<svg viewBox="0 0 330 200" xmlns="http://www.w3.org/2000/svg"><g><g><g><g><g><line x1="41.171875" y1="176.89332235840843" x2="36.171875" y2="176.89332235840843" style="visibility: inherit;" fill="rgb(0, 0, 0)" stroke="rgb(204, 204, 204)" stroke-width="1px"></line><line x1="41.171875" y1="169.29510207440597" x2="36.171875" y2="169.29510207440597" style="visibility: inherit;" fill="rgb(0, 0, 0)" stroke="rgb(204, 204, 204)" stroke-width="1px"></line><line x1="41.171875" y1="162.7132242836125" x2="36.171875" y2="162.7132242836125" style="visibility: inherit;" fill="rgb(0, 0, 0)" stroke="rgb(204, 204, 204)" stroke-width="1px"></line><line x1="41.171875" y1="156.90759662346468" x2="36.171875" y2="156.90759662346468" style="visibility: inherit;" fill="rgb(0, 0, 0)" stroke="rgb(204, 204, 204)" stroke-width="1px"></line><line x1="41.171875" y1="151.71428571428572" x2="36.171875" y2="151.71428571428572" style="visibility: inherit;" fill="rgb(0, 0, 0)" stroke="rgb(204, 204, 204)" stroke-width="1px"></line><line x1="41.171875" y1="117.548461904546" x2="36.171875" y2="117.548461904546" style="visibility: inherit;" fill="rgb(0, 0, 0)" stroke="rgb(204, 204, 204)" stroke-width="1px"></line><line x1="41.171875" y1="97.56273616960225" x2="36.171875" y2="97.56273616960225" style="visibility: inherit;" fill="rgb(0, 0, 0)" stroke="rgb(204, 204, 204)" stroke-width="1px"></line><line x1="41.171875" y1="83.38263809480628" x2="36.171875" y2="83.38263809480628" style="visibility: inherit;" fill="rgb(0, 0, 0)" stroke="rgb(204, 204, 204)" stroke-width="1px"></line><line x1="41.171875" y1="72.38369952547953" x2="36.171875" y2="72.38369952547953" style="visibility: inherit;" fill="rgb(0, 0, 0)" stroke="rgb(204, 204, 204)" stroke-width="1px"></line><line x1="41.171875" y1="63.39691235986254" x2="36.171875" y2="63.39691235986254" style="visibility: inherit;" fill="rgb(0, 0, 0)" stroke="rgb(204, 204, 204)" stroke-width="1px"></line><line x1="41.171875" y1="55.79869207586006" x2="36.171875" y2="55.79869207586006" style="visibility: inherit;" fill="rgb(0, 0, 0)" stroke="rgb(204, 204, 204)" stroke-width="1px"></line><line x1="41.171875" y1="49.2168142850666" x2="36.171875" y2="49.2168142850666" style="visibility: inherit;" fill="rgb(0, 0, 0)" stroke="rgb(204, 204, 204)" stroke-width="1px"></line><line x1="41.171875" y1="43.411186624918756" x2="36.171875" y2="43.411186624918756" style="visibility: inherit;" fill="rgb(0, 0, 0)" stroke="rgb(204, 204, 204)" stroke-width="1px"></line><line x1="41.171875" y1="38.217875715739794" x2="36.171875" y2="38.217875715739794" style="visibility: inherit;" fill="rgb(0, 0, 0)" stroke="rgb(204, 204, 204)" stroke-width="1px"></line><line x1="41.171875" y1="4.0520519060000835" x2="36.171875" y2="4.0520519060000835" style="visibility: inherit;" fill="rgb(0, 0, 0)" stroke="rgb(204, 204, 204)" stroke-width="1px"></line></g><g transform="translate(31.171875, 0)"><text x="0" y="176.89332235840843" dx="0em" dy="0.3em" style="text-anchor: end; visibility: hidden; font-family: Roboto, sans-serif; font-size: 12px; font-weight: 200;" fill="rgb(33, 33, 33)" stroke="none" stroke-width="1px">0.6</text><text x="0" y="169.29510207440597" dx="0em" dy="0.3em" style="text-anchor: end; visibility: inherit; font-family: Roboto, sans-serif; font-size: 12px; font-weight: 200;" fill="rgb(33, 33, 33)" stroke="none" stroke-width="1px">0.7</text><text x="0" y="162.7132242836125" dx="0em" dy="0.3em" style="text-anchor: end; visibility: hidden; font-family: Roboto, sans-serif; font-size: 12px; font-weight: 200;" fill="rgb(33, 33, 33)" stroke="none" stroke-width="1px">0.8</text><text x="0" y="156.90759662346468" dx="0em" dy="0.3em" style="text-anchor: end; visibility: hidden; font-family: Roboto, sans-serif; font-size: 12px; font-weight: 200;" fill="rgb(33, 33, 33)" stroke="none" stroke-width="1px">0.9</text><text x="0" y="151.71428571428572" dx="0em" dy="0.3em" style="text-anchor: end; visibility: hidden; font-family: Roboto, sans-serif; font-size: 12px; font-weight: 200;" fill="rgb(33, 33, 33)" stroke="none" stroke-width="1px">1</text><text x="0" y="117.548461904546" dx="0em" dy="0.3em" style="text-anchor: end; visibility: inherit; font-family: Roboto, sans-serif; font-size: 12px; font-weight: 200;" fill="rgb(33, 33, 33)" stroke="none" stroke-width="1px">2</text><text x="0" y="97.56273616960225" dx="0em" dy="0.3em" style="text-anchor: end; visibility: hidden; font-family: Roboto, sans-serif; font-size: 12px; font-weight: 200;" fill="rgb(33, 33, 33)" stroke="none" stroke-width="1px">3</text><text x="0" y="83.38263809480628" dx="0em" dy="0.3em" style="text-anchor: end; visibility: hidden; font-family: Roboto, sans-serif; font-size: 12px; font-weight: 200;" fill="rgb(33, 33, 33)" stroke="none" stroke-width="1px">4</text><text x="0" y="72.38369952547953" dx="0em" dy="0.3em" style="text-anchor: end; visibility: hidden; font-family: Roboto, sans-serif; font-size: 12px; font-weight: 200;" fill="rgb(33, 33, 33)" stroke="none" stroke-width="1px">5</text><text x="0" y="63.39691235986254" dx="0em" dy="0.3em" style="text-anchor: end; visibility: inherit; font-family: Roboto, sans-serif; font-size: 12px; font-weight: 200;" fill="rgb(33, 33, 33)" stroke="none" stroke-width="1px">6</text><text x="0" y="55.79869207586006" dx="0em" dy="0.3em" style="text-anchor: end; visibility: hidden; font-family: Roboto, sans-serif; font-size: 12px; font-weight: 200;" fill="rgb(33, 33, 33)" stroke="none" stroke-width="1px">7</text><text x="0" y="49.2168142850666" dx="0em" dy="0.3em" style="text-anchor: end; visibility: hidden; font-family: Roboto, sans-serif; font-size: 12px; font-weight: 200;" fill="rgb(33, 33, 33)" stroke="none" stroke-width="1px">8</text><text x="0" y="43.411186624918756" dx="0em" dy="0.3em" style="text-anchor: end; visibility: hidden; font-family: Roboto, sans-serif; font-size: 12px; font-weight: 200;" fill="rgb(33, 33, 33)" stroke="none" stroke-width="1px">9</text><text x="0" y="38.217875715739794" dx="0em" dy="0.3em" style="text-anchor: end; visibility: inherit; font-family: Roboto, sans-serif; font-size: 12px; font-weight: 200;" fill="rgb(33, 33, 33)" stroke="none" stroke-width="1px">10</text><text x="0" y="4.0520519060000835" dx="0em" dy="0.3em" style="text-anchor: end; visibility: hidden; font-family: Roboto, sans-serif; font-size: 12px; font-weight: 200;" fill="rgb(33, 33, 33)" stroke="none" stroke-width="1px">20</text></g><line x1="41.171875" y1="0" x2="41.171875" y2="177" fill="rgb(0, 0, 0)" stroke="rgb(204, 204, 204)" stroke-width="1px"></line></g></g><g transform="translate(41, 0)" clip-path="url(#clip_0)"><clipPath id="clip_0"><rect width="288" height="177"></rect></clipPath><g><g><g><line x1="0" y1="0" x2="0" y2="177" fill="rgb(0, 0, 0)" stroke="rgb(66, 66, 66)" stroke-width="1px" opacity="0.25"></line><line x1="24.069010416666664" y1="0" x2="24.069010416666664" y2="177" fill="rgb(0, 0, 0)" stroke="rgb(66, 66, 66)" stroke-width="1px" opacity="0.25"></line><line x1="48.13802083333333" y1="0" x2="48.13802083333333" y2="177" fill="rgb(0, 0, 0)" stroke="rgb(66, 66, 66)" stroke-width="1px" opacity="0.25"></line><line x1="72.20703125" y1="0" x2="72.20703125" y2="177" fill="rgb(0, 0, 0)" stroke="rgb(66, 66, 66)" stroke-width="1px" opacity="0.25"></line><line x1="96.27604166666666" y1="0" x2="96.27604166666666" y2="177" fill="rgb(0, 0, 0)" stroke="rgb(66, 66, 66)" stroke-width="1px" opacity="0.25"></line><line x1="120.34505208333334" y1="0" x2="120.34505208333334" y2="177" fill="rgb(0, 0, 0)" stroke="rgb(66, 66, 66)" stroke-width="1px" opacity="0.25"></line><line x1="144.4140625" y1="0" x2="144.4140625" y2="177" fill="rgb(0, 0, 0)" stroke="rgb(66, 66, 66)" stroke-width="1px" opacity="0.25"></line><line x1="168.48307291666669" y1="0" x2="168.48307291666669" y2="177" fill="rgb(0, 0, 0)" stroke="rgb(66, 66, 66)" stroke-width="1px" opacity="0.25"></line><line x1="192.55208333333331" y1="0" x2="192.55208333333331" y2="177" fill="rgb(0, 0, 0)" stroke="rgb(66, 66, 66)" stroke-width="1px" opacity="0.25"></line><line x1="216.62109375" y1="0" x2="216.62109375" y2="177" fill="rgb(0, 0, 0)" stroke="rgb(66, 66, 66)" stroke-width="1px" opacity="0.25"></line><line x1="240.69010416666669" y1="0" x2="240.69010416666669" y2="177" fill="rgb(0, 0, 0)" stroke="rgb(66, 66, 66)" stroke-width="1px" opacity="0.25"></line><line x1="264.7591145833333" y1="0" x2="264.7591145833333" y2="177" fill="rgb(0, 0, 0)" stroke="rgb(66, 66, 66)" stroke-width="1px" opacity="0.25"></line><line x1="288.828125" y1="0" x2="288.828125" y2="177" fill="rgb(0, 0, 0)" stroke="rgb(66, 66, 66)" stroke-width="1px" opacity="0.25"></line></g><g><line x1="0" y1="176.89332235840843" x2="288.828125" y2="176.89332235840843" fill="rgb(0, 0, 0)" stroke="rgb(66, 66, 66)" stroke-width="1px" opacity="0.25"></line><line x1="0" y1="169.29510207440597" x2="288.828125" y2="169.29510207440597" fill="rgb(0, 0, 0)" stroke="rgb(66, 66, 66)" stroke-width="1px" opacity="0.25"></line><line x1="0" y1="162.7132242836125" x2="288.828125" y2="162.7132242836125" fill="rgb(0, 0, 0)" stroke="rgb(66, 66, 66)" stroke-width="1px" opacity="0.25"></line><line x1="0" y1="156.90759662346468" x2="288.828125" y2="156.90759662346468" fill="rgb(0, 0, 0)" stroke="rgb(66, 66, 66)" stroke-width="1px" opacity="0.25"></line><line x1="0" y1="151.71428571428572" x2="288.828125" y2="151.71428571428572" fill="rgb(0, 0, 0)" stroke="rgb(66, 66, 66)" stroke-width="1px" opacity="0.25"></line><line x1="0" y1="117.548461904546" x2="288.828125" y2="117.548461904546" fill="rgb(0, 0, 0)" stroke="rgb(66, 66, 66)" stroke-width="1px" opacity="0.25"></line><line x1="0" y1="97.56273616960225" x2="288.828125" y2="97.56273616960225" fill="rgb(0, 0, 0)" stroke="rgb(66, 66, 66)" stroke-width="1px" opacity="0.25"></line><line x1="0" y1="83.38263809480628" x2="288.828125" y2="83.38263809480628" fill="rgb(0, 0, 0)" stroke="rgb(66, 66, 66)" stroke-width="1px" opacity="0.25"></line><line x1="0" y1="72.38369952547953" x2="288.828125" y2="72.38369952547953" fill="rgb(0, 0, 0)" stroke="rgb(66, 66, 66)" stroke-width="1px" opacity="0.25"></line><line x1="0" y1="63.39691235986254" x2="288.828125" y2="63.39691235986254" fill="rgb(0, 0, 0)" stroke="rgb(66, 66, 66)" stroke-width="1px" opacity="0.25"></line><line x1="0" y1="55.79869207586006" x2="288.828125" y2="55.79869207586006" fill="rgb(0, 0, 0)" stroke="rgb(66, 66, 66)" stroke-width="1px" opacity="0.25"></line><line x1="0" y1="49.2168142850666" x2="288.828125" y2="49.2168142850666" fill="rgb(0, 0, 0)" stroke="rgb(66, 66, 66)" stroke-width="1px" opacity="0.25"></line><line x1="0" y1="43.411186624918756" x2="288.828125" y2="43.411186624918756" fill="rgb(0, 0, 0)" stroke="rgb(66, 66, 66)" stroke-width="1px" opacity="0.25"></line><line x1="0" y1="38.217875715739794" x2="288.828125" y2="38.217875715739794" fill="rgb(0, 0, 0)" stroke="rgb(66, 66, 66)" stroke-width="1px" opacity="0.25"></line><line x1="0" y1="4.0520519060000835" x2="288.828125" y2="4.0520519060000835" fill="rgb(0, 0, 0)" stroke="rgb(66, 66, 66)" stroke-width="1px" opacity="0.25"></line></g></g></g><g><g><line x1="24.069010416666664" y1="0" x2="24.069010416666664" y2="177" fill="rgb(0, 0, 0)" stroke="rgb(153, 153, 153)" stroke-width="1.5px"></line></g></g><g><g><g><g><g><path stroke="rgb(255, 112, 67)" stroke-width="2px" d="M24.403569661458334,151.71428571428572L24.742942708333334,151.71428571428572L25.019736328125,186.89645201723445L25.592578776041666,127.22872694864874L25.859744791666667,155.25936911609296L26.61551171875,103.90066775650097L26.998208984375,118.44517839855288L27.378499348958332,129.42453549309357L27.717872395833336,137.26115412106375L28.105383463541667,142.5792519006279L28.4495703125,146.04589221627091L28.950205729166665,132.594119380567L29.217371744791667,157.81614908998282L29.660241536458333,137.63949164699633L30.158470052083334,128.59613941530847L30.430449869791666,153.78444987754716L30.7024296875,178.96904997514125L31.3378515625,118.91550603720606L31.609831380208334,144.09654523526078L31.886625,169.27678337269188L32.15860481770834,194.45654089874213L32.70737825520833,244.81530622371926L33.39815885416667,125.82784773112375L33.857876953125,122.34750982001897L34.206877604166664,132.10219462813177L34.61123697916667,125.75660807981801L34.88803059895834,150.93566490344736L35.227403645833334,151.24563897650566L35.504197265625,176.42468288524697L36.067412109375,129.68678939609597L36.334578125,154.8658286554809L36.83521354166667,136.4553440774229L37.11200716145834,161.63438166303993L37.38398697916667,186.8134188720593L38.195112630208335,262.3505294687459L38.943658854166664,99.85663934142497L39.21082486979167,125.03567602947408L39.487618489583326,150.21471269995263L39.764412109374994,175.39374935988886L40.04120572916666,200.57278601349967L40.56350325520833,134.33743070312516L40.840296875,159.51646735066362L41.75973307291667,99.02748882959011L42.036526692708335,124.2065254749425L42.671948567708334,103.70757120983313L42.94392838541667,128.88660785439853L43.386798177083335,124.03421207492919L44.54692447916667,75.93904908900365L45.07162890625,83.49082903312957L45.829802734375,78.74370072739666L46.161955078125,96.96108622995477L46.438748697916665,122.14012287409817L46.71554231770833,147.3191595182333L46.9923359375,172.49819616236348L47.683116536458336,117.70706817169652L47.94546875,142.88610481582194L48.222262369791665,168.0651414599463L48.746966796875,127.61324622337814L49.01894661458333,152.79228286750146L49.295740234374996,177.97131951162453L50.67970833333333,303.8665027322387L51.132205729166664,161.05399271146695L51.40899934895833,186.2330293555897L51.7868828125,169.4460441222637L52.05886263020833,194.6250807663864L52.65096028645833,121.3585064521988L52.92775390625,146.53754309632157L53.673893229166666,90.43938817708793L54.06381119791667,106.94810795099558L54.34060481770834,132.12714459511832L54.793102213541665,125.76977427785087L55.13247526041666,134.5813002287635L55.707724609375,116.34599700496567L55.98451822916667,141.5250336490884L56.31667057291667,145.35184409231104L56.59346419270833,170.53088073643377L56.86063020833333,195.7099173805565L57.3035,149.50879168945443L57.58029361979167,174.68782833357716L57.91966666666667,164.18449748838012L58.256632812499994,158.81236694824847L58.77170963541666,124.99610690455157L59.188103515625,121.88076749369442L59.57080078125,131.76041193435L60.01848437500001,125.5760206855371L60.36267122395833,134.44221563224045L60.634651041666665,159.62125227636318L61.193052083333335,125.23910318082461L61.60463216145833,122.01748816671416L61.87661197916667,147.1965248108369L62.148591796875,172.37556145495964L62.42538541666667,197.5545980990824L62.827337890624996,149.93613925571566L63.104131510416664,175.11517589983836L63.55662890625,143.83980109105653L63.94413997395833,146.84038090684098L64.50013411458333,121.06301634458441L64.83950716145833,131.15954507478097L65.11148697916667,156.3385817189037L65.55435677083334,137.0582521283169L66.04536458333332,128.30885828696728L66.322158203125,153.48789493109L66.59413802083334,178.66693157521277L67.81443684895834,208.65239962760282L68.50040364583333,123.04372483964673L68.77238346354167,148.2227614837695L69.585916015625,103.78833399309181L69.85789583333333,128.96737063721457L70.23096549479166,136.8541766679464L70.65217317708334,128.20622232847555L70.92415299479167,153.3852589725983L71.376650390625,135.83848487102705L71.98078255208334,116.86316478627225L72.25276236979167,142.04220143039498L72.69563216145833,130.7498889241918L73.14812955729165,125.03862092418551L73.48268880208333,134.055641371512L73.75466861979167,159.23467801563476L74.09404166666667,156.08755313274037L74.37083528645833,181.2665897768631L74.64762890625,206.44562642098583L75.13863671874999,151.82969963953076L75.41543033854167,177.0087362836535L75.80534830729167,165.2961511800396L77.02564713541666,69.92722761659849L77.54072395833334,79.21070345393004L78.23150455729166,80.83735431232842L79.24480989583333,59.245804203073675L79.521603515625,84.42484084719642L80.14980468750001,84.00531171042027L81.18477213541667,67.06352816668276L81.46156575520834,92.2425648108055L81.73835937499999,117.42160145492826L82.50134700520834,94.33396572535705L82.944216796875,102.3586627146769L83.39671419270833,107.88624777823318L83.6735078125,133.06528442235594L83.95030143229167,158.24432106647868L84.59535091145833,114.54740867620573L84.86251692708333,139.72644532032848L85.31501432291667,129.63134247775398L85.81083593749999,124.43776353067406L86.08281575520833,149.6168001747968L86.35960937499999,174.79583681891953L86.63640299479167,199.97487346304226L87.088900390625,150.47842094810798L87.35606640625,175.6574575922307L87.69543945312499,164.65224127706114L88.14793684895834,140.2645614062807L88.42473046875,165.44359805040344L88.81705533854166,159.48581953493394L89.09384895833334,184.66485617905667L89.710015625,178.1839952420748L90.15288541666666,144.79548432714498L90.42967903645832,169.97452097126774L90.70647265625,195.15355761539047L91.26005989583334,245.51163090363593L91.71737109375,157.48725080146014L92.68975911458334,92.36419779406289L93.24575325520834,88.57304478756424L94.23017578125,58.99767634584123L94.68267317708333,75.05668845470615L95.13517057291666,88.00901131223338L96.02091015625001,76.65477931573511L96.29770377604166,101.83381595985784L96.74779427083334,107.53335307230344L97.19547786458334,111.29887128571733L97.53485091145834,123.78750201396642L97.86941015625,133.15109707665343L98.20156250000001,139.7625688972456L98.57703906249999,144.2018368643018L98.85383268229167,169.38087350842457L99.77086197916667,88.31281245491502L100.04765559895833,113.49184909903775L100.32444921875,138.67088574316048L100.89729166666666,118.00000043169896L101.54474804687501,101.15646469044351L101.82154166666666,126.33550133456626L102.39197721354167,112.75964595464025L102.66877083333333,137.938682598763L102.945564453125,163.11771924288573L103.22235807291666,188.29675588700846L104.05273893229167,263.8338658193767L105.03716145833334,87.73832156029887L105.31395507812499,112.91735820442163L105.59074869791667,138.09639484854435L106.584798828125,94.52152843951882L107.51386263020834,75.28116992214275L108.71731315104167,57.01967048623071L108.99410677083334,82.19870713035345L109.270900390625,107.3777437744762L109.54769401041666,132.55678041859895L109.82448763020832,157.73581706272168L110.10128125,182.9148537068444L110.37807486979166,208.09389035096717L112.07494010416667,30.096462640884866L112.35173372395833,55.2754992850076L113.25432161458333,55.4841104705618L114.13524739583333,58.49857073839314L114.93674544270834,63.59336229117156L115.32666341145833,83.5594077624995L116.13538216145834,78.78105815162392L117.08129427083333,68.27318171112323L117.358087890625,93.45221835524595L118.62411783854166,63.75520696972922L118.90091145833334,88.93424361385195L119.71925781249999,81.63512771719054L120.824025390625,62.69045643768035L121.80363411458333,56.85224584815191L122.874705078125,53.65480295134173L124.32365950520834,29.28571449168991L125.3802890625,32.66691656186643L126.93755403645834,24.85078872775805L127.85699023437499,36.908852246446806L128.795681640625,39.40782266978993L129.77529036458333,43.100613499729384L130.34331901041665,58.44474055235139L131.85485286458334,42.43252547614506L132.30735026041668,60.9272048381663L133.18827604166668,58.811349342754234L133.70335286458334,70.91730847488758L134.52169921875,67.77018192499166L135.60480468749998,59.49437107422139L136.78177929687502,47.42234342502826L137.48940820312498,55.95408002166637L137.91302278645833,72.51419245812265L139.26329427083334,53.112466977355155L139.98536458333334,59.94508207851579L140.926462890625,58.244446612007245L141.61724348958333,66.82680230627658L142.42596223958333,68.97498448049642L142.87845963541665,83.20050969840052L143.99044791666665,63.32398022631499L145.085587890625,57.18888825882445L145.81969270833335,62.71812122124374L147.14348828125,48.910200969682926L148.26029036458334,49.03261751687834L149.519099609375,42.23163877452933L150.414466796875,49.645143716940815L151.22799934895835,57.529476178924284L152.60474674479167,46.489742791473425L153.53140364583334,52.57541773752314L154.501384765625,46.32243559648519L154.84557161458335,67.7728073863528L155.72649739583335,65.97556968275245L156.0706842447917,85.69727373597347L156.67481640625,84.75833663229108L157.54611458333332,75.0789009185422L157.89030143229166,93.76369910535087L158.38130924479165,95.248365250012L158.848248046875,103.00253988691875L159.53902864583333,94.19832531225832L160.33330598958335,84.28860611403763L162.20346809895835,31.08820571386209L163.36600130208333,35.654670882901584L164.17953385416666,47.28202328342424L164.92567317708333,55.85393711388366L165.63811588541668,61.81809093538681L166.80064908854166,56.38537094295907L167.92707877604167,45.93771163315262L168.88261848958334,47.22329569074187L169.84297200520834,45.66289852052566L171.296740234375,38.421046106430445L172.52185286458334,36.40176431791156L173.81195182291665,37.120199289237L174.15132486979167,59.18596968770294L175.383658203125,47.27725834275789L176.033521484375,58.753977935352474L177.61485546875,36.495609474663L178.4668984375,31.701686997360575L178.9988235677083,48.921888188744695L179.94473567708334,36.148313808220465L180.68846809895834,47.6565536799058L181.54773177083334,35.558390785761944L182.13260872395833,52.18404207156599L183.58397005208334,41.69131661313287L184.57802018229165,46.86037472819367L185.73092578125,39.03772694618275L187.75512955729167,23.42170823498918L189.12465625000002,28.8195212449275L189.98391992187499,39.92102991803119L190.792638671875,48.02240908760448L192.4750625,32.11637089905506L193.3102571614583,34.467137076628525L194.57147330729168,34.08607714909716L196.06856575520834,32.08634159005754L196.58123567708333,49.24899802362176L197.25998177083335,60.23988868804276L198.75707421875,31.594831910307413L200.1290078125,30.635689838354672L200.8221953125,45.66511721517345L202.13877018229167,40.44287854839347L203.07746158854167,41.608840447667156L204.18944986979167,42.321890134874266L205.78522526041667,27.93122541835958L206.60357161458336,26.85592321193166L207.81424283854165,31.09183751736134L208.93104492187499,37.56534611239506L209.83122591145832,44.073051061341644L210.44979947916667,39.57728559414525L212.00465755208333,22.21088785225125L213.34770833333334,28.00566986285234L214.40193098958332,33.60407806518607L215.67999544270833,35.398112779635255L217.24207421875,31.10118879959234L218.77286328124998,19.794701822090634L220.975177734375,10.579967333226438L222.32544921875,18.523822674981098L222.94402278645833,23.98764653141157L223.33153385416668,46.76415984061958L224.47481184895832,43.165976864521056L224.92730924479167,61.56703539094594L225.99115950520834,56.25029889980577L226.81431966145834,41.469038447595324L227.56527278645834,46.71215080571874L228.21272916666666,58.325424864133936L229.69778710937499,40.28075028939244L230.31636067708334,37.46421464685466L230.9349342447917,35.848443159066235L232.239474609375,36.78259317761195L233.77267057291667,31.857711730706285L235.27216992187502,22.966214506332715L235.89074348958331,26.920857947685L236.63447591145834,27.831998346683886L237.28674609375,28.38687811031405L239.214673828125,14.669305489311261L240.50717968749998,24.255285531858274L242.521755859375,8.25645423685607L243.32806770833335,25.214235610349053L244.456904296875,28.37063353626528L245.83605859374998,18.47330603562379L247.26335091145833,21.086403750167303L248.10095247395836,33.99884901265719L249.08296809895833,28.674841177609302L250.7341022135417,22.766423353300027L251.648724609375,33.47951985976009L253.035099609375,33.49568975573987L253.90639778645834,43.39339127453398L255.08577929687502,28.40846754306371L255.93541536458332,37.62420811978049L256.87410677083335,41.93984279499645L257.699673828125,27.759670726484472L259.13900065104167,28.342977592048456L260.98509375,8.88819593595839L262.05135091145837,19.97618388673568L263.42087760416666,17.946679464342505L264.54249348958336,26.62210309743494" style="fill: none;" fill="none"></path></g><g><path stroke="rgb(187, 187, 187)" stroke-width="2px" d="M24.403569661458334,151.71428571428572L24.742942708333334,151.71428571428572L25.019736328125,186.89645201723445L25.592578776041666,127.22872694864874L25.859744791666667,155.25936911609296L26.61551171875,103.90066775650097L27.116147135416668,109.06818118948185L27.392940755208336,134.81179909613806L27.883948567708334,127.09537850062334L28.27145963541667,135.58470556174504L28.548253255208333,160.8835389603937L28.82023307291667,186.13431415163913L29.436399739583333,131.73625209836126L29.958697265625,115.135803018709L30.406380859375,116.08719452221712L30.683174479166667,141.27550498445578L30.955154296875,166.46010508204986L31.402837890625,140.9162350506793L31.809604166666666,130.20883639154127L32.257287760416666,124.74857898369723L32.878268229166665,103.92106184106939L33.21764127604167,117.99033772481148L33.561828125,128.87853163992162L33.83380794270833,154.05772399097003L34.100973958333334,179.23685405901205L34.44034700520833,166.33771328854255L34.89284440104167,140.87446645269287L35.299610677083336,130.18924443825478L35.81950130208333,114.4779460616559L36.26237109375,115.68329832422074L36.705240885416664,116.42091633955152L36.972406901041666,141.59995559893648L37.473042317708334,130.5383751371366L38.089208984375,106.11773817889346L38.351561197916666,131.2967753879128L38.69093424479167,138.48279416360833L39.201197265625005,117.92571652976267L39.54538411458333,128.8300704518683L40.51777213541667,86.5045472744164L40.789751953125,111.68358396246548L41.30001497395833,105.54205804218216L41.57199479166667,130.7210947021184L41.901740234375005,138.08246088697194L42.48902408854167,108.74375570569615L42.828397135416665,121.80085439244671L43.16777018229167,131.7018100992178L43.44456380208334,156.88084674457022L44.253282552083334,105.76142403350993L44.77317317708333,102.3166594257302L45.38933984375,100.35973560730223L45.66131966145833,125.53877225158432L45.93811328125,150.71780889580268L46.624080078125004,112.57677037291579L46.900873697916666,137.75580701707295L47.16803971354167,162.93484366121635L47.444833333333335,188.11388030535147L47.721626953125,213.29291694948165L48.169310546875,153.11286233130602L49.165767578125,91.63727834966734L49.42811979166667,116.81631499379169L49.690472005208335,141.9953516379154L49.967265624999996,167.1743882820387L50.244059244791664,192.3534249261618L50.816901692708335,132.95699345205753L51.0936953125,158.1360300961804L51.510089192708335,137.7797109571143L51.7868828125,162.9587476012371L52.049235026041664,188.13778424535982L52.465628906250004,147.62191012963495L52.732794921875,172.80094677375772L53.009588541666666,197.97998341788045L54.48983268229167,257.54901073727746L55.062675130208326,139.92943585877208L55.339468749999995,165.1084725028948L55.60182096354167,190.28750914701757L56.52847786458334,205.0695199412525L56.903954427083335,176.62645193929262L57.240920572916664,165.11492267955902L57.81376302083333,126.81683317301605L58.090556640624996,151.9958698171388L58.425115885416666,151.8830430699284L58.70190950520833,177.06207971405115L59.64060091145833,83.89334556338034L60.57929231770833,63.60056080958879L60.99568619791667,78.85127575065648L61.27247981770834,104.03031239477923L61.549273437500005,129.20934903890196L61.82606705729167,154.3883856830247L62.102860677083335,179.56742232714745L63.879153645833334,216.8927479640071L64.29073372395833,153.73109837157165L64.68305859375,152.91444438438785L64.95985221354167,178.09348102851064L68.18991341145833,286.321768073055L68.75794205729167,100.27995441247833L69.03473567708333,125.45899105660105L69.42224674479166,134.35813209076994L69.69904036458334,159.5371687348927L69.975833984375,184.71620537901543L70.85435286458333,102.6253588645161L71.12633268229166,127.8043955086388L71.40312630208334,152.98343215276157L71.679919921875,178.1624687968843L72.49345247395833,109.58161110997588L73.095177734375,97.39036546475324L73.48990950520833,112.70946536040015L73.766703125,137.8885020045229L74.106076171875,142.96342491138182L74.45026302083333,146.27975409023333L75.06883658854167,71.69902375361681L75.48523046875,85.36960719019422L75.76202408854166,110.54864383431695L76.03881770833333,135.72768047843968L76.315611328125,160.90671712256244L76.59240494791666,186.0857537666852L76.86919856770834,211.26479041080793L77.55997916666666,123.31327099562016L77.83677278645834,148.49230763974288L78.84045052083334,90.80923201576444L79.17260286458334,107.25810829925706L79.449396484375,132.4371449433798L79.72619010416668,157.61618158750252L80.66488151041666,81.77881052350304L81.11737890625,93.17384018916442L81.78409049479167,89.02122450136542L82.12346354166667,105.75595073303774L82.47005729166666,119.44918959798784L83.47373502604167,63.77123950134859L83.75052864583333,88.95027614547134L84.20302604166666,98.49724543698794L85.25965559895833,65.3560777918575L85.52682161458333,90.53511443598025L85.87341536458334,107.02838107332207L86.32591276041667,110.9712452906582L86.77841015625,113.49781879109983L87.04076236979166,138.6768554352226L87.45234244791668,129.11542326006966L87.72913606770834,154.29445990419242L88.00111588541665,179.47349654831515L88.273095703125,204.65253319243786L88.66782747395833,176.48556091516946L89.05533854166667,165.0479444082165L89.38989778645833,159.27505929390676L89.73649153645833,156.1102792212051L90.18898893229168,136.96548732670908L90.46096874999999,162.1445239708318L90.73294856770833,187.32356061495457L91.175818359375,147.40585956550495L91.565736328125,149.0843148112373L92.504427734375,80.59331758024638L93.03394596354167,86.69897548366295L93.45033984375,96.84767809296243L93.90283723958333,104.12015748119593L94.16518945312501,129.29919412531868L95.27958463541665,62.216120515079396L95.55637825520833,87.39515715920214L95.82835807291666,112.57419380332489L96.40120052083333,106.0118189982033L96.79593229166667,119.65176287900069L97.067912109375,144.83079952312343L97.44579557291667,147.46999463534337L97.72258919270833,172.6490312794661L98.72626692708333,70.52283299432253L99.11377799479168,89.74778416665443L100.05246940104166,65.8452437448902L100.82027083333334,68.35753253890229L101.09706445312499,93.53656918302504L101.44125130208333,109.5323653624672L101.718044921875,134.71140200658994L102.59175,82.80500032053443L102.86854361979167,107.98403696465718L103.14533723958334,133.16307360877988L103.83130403645833,107.06115198461887L104.32231184895834,103.03962933897324L105.37894140625001,66.703482575496L105.65573502604167,91.88251921961876L105.93252864583334,117.0615558637415L106.87122005208333,74.27367276157558L107.38148307291667,87.3969462430871L107.65827669270834,112.57598288720985L107.9928359375,124.77180901130849L108.404416015625,121.75430582211011L109.343107421875,75.41414843297419L110.281798828125,60.053417648163084L110.55859244791667,85.23245429228584L111.61762890625,60.90132448444881L111.89442252604167,86.08036112857155L112.77775520833333,75.72625871870017L113.16526627604166,94.3306837068367L113.58166015625,102.35634531501157L113.921033203125,116.73719165028112L114.37834440104167,117.0600992183149L114.70808984375,128.18067559122824L114.98006966145833,153.35971223535094L115.91876106770833,81.20945338304426L116.19555468749999,106.38849002716701L116.47234830729167,131.56752667128976L116.74914192708333,156.74656331541252L117.025935546875,181.92559995953522L117.57952278645834,232.2836732477807L118.08978580729166,138.14091793645727L118.36657942708334,163.31995458058003L118.701138671875,158.34532074758778L119.14882226562499,137.86269381985122L119.42080208333333,163.04173046397398L119.75776822916667,158.1942168424827L120.32098307291668,124.80852343247214L121.11526041666667,96.98041396862158L121.39205403645833,122.15945061274432L121.66884765625001,147.33848725686704L121.936013671875,172.5175239009898L122.3187109375,163.1202856747739L122.59550455729166,188.29932231889663L122.86267057291667,213.4783589630194L123.31757486979167,153.14563030012675L124.131107421875,104.9429408559499L124.51861848958333,118.80407386555923L124.97111588541667,118.29798447154883L125.24790950520833,143.47702111567156L125.59209635416667,146.60874251813604L125.936283203125,148.5879627126934L126.874974609375,80.51878653523866L127.813666015625,62.23132975288798L128.09045963541666,87.4103663970107L128.477970703125,104.39524786828015L129.416662109375,70.76416852397895L129.69345572916666,95.94320516810168L130.68028515625,75.85356956193424L131.6189765625,60.24599480879049L131.89095638020834,85.42503145291323L132.23032942708332,102.7088447367863L133.16902083333335,70.2466062210584L133.50839388020833,89.50290972984608L133.85258072916665,106.16148428070125L134.31470572916666,110.40605977703682L134.59149934895834,135.58509642115956L135.53019075520834,78.32455590109683L136.02119856770832,85.14689635425438L136.2979921875,110.32593299837713L136.57478580729168,135.50496964249987L137.027283203125,127.52234979677458L137.4797805989583,123.28771987668051L137.75657421875,148.46675652080327L138.56529296875001,103.84765574377722L139.01779036458333,108.88068428866983L139.294583984375,134.05972093279257L139.57137760416668,159.23875757691533L140.51006901041666,81.98484662396L140.782048828125,107.16388326808274L141.05884244791667,132.34291991220547L141.55947786458333,125.88345574045483L142.36819661458333,97.34451266501695L142.81588020833334,104.46511982043862L143.62459895833334,89.06038586550186L143.89657877604165,114.23942250962457L144.34426236979166,115.53650447229786L144.62105598958334,140.7155411164206L145.0663326822917,130.1124151200944L145.34312630208333,155.29145176421713L146.15184505208333,105.41905924551568L146.42863867187498,130.59809588963842L147.04721223958333,69.31777231417948L147.98590364583333,57.281706236571516L148.40229752604165,73.62641250215444L149.34098893229165,59.25997977957492L149.793486328125,75.27458649748134L150.07027994791665,100.4536231416041L150.34225976562502,125.63265978572682L150.61905338541666,150.81169642984958L150.89584700520834,175.9907330739723L151.35075130208335,144.1166486191166L151.627544921875,169.29568526323933L152.56623632812497,83.13685879146135L153.24738932291666,83.23502349814066L153.50974153645834,108.41406014226341L153.952611328125,111.86744719292174L154.22459114583333,137.0464838370445L154.67227473958332,128.3029453827114L155.61096614583332,76.87257668030003L156.54965755208335,60.68886924245912L156.93235481770833,80.93880149878345L157.30542447916665,98.86140625799594L157.89992903645833,92.07660356324148L158.40537825520835,100.75411874416636L159.21409700520832,87.39691308367978L159.656966796875,97.36121998717823L160.595658203125,68.52295962669325L160.87245182291667,93.70199627081598L161.14924544270832,118.88103291493873L161.4260390625,144.06006955906145L161.83761914062498,131.7024206562934L162.11441276041668,156.88145730041614L162.39120638020833,182.0604939445389L162.668,207.2395305886616L163.60669140625,85.98228212406505L164.5453828125,64.42037657910826L165.05083203125,79.52050912588454L165.32762565104164,104.69954577000728L165.60441927083335,129.87858241413002L165.938978515625,137.494011166773L166.3553723958333,128.52730814408622L167.16409114583334,98.21785111830768L167.44088476562501,123.39688776243041L168.24960351562498,96.49425897013874L168.52639713541666,121.67329561426148L168.80319075520833,146.8523322583842L169.7418821614583,80.2531065820735L170.55060091145833,76.95311923505528L170.82739453125,102.13215587917803L171.27989192708333,107.73410088440984L171.556685546875,132.91313752853256L171.83347916666665,158.09217417265532L172.11027278645835,183.27121081677805L172.56036328125,146.29104309871795L173.12839192708336,90.39190138437434L173.58088932291665,99.54288840217177L174.03338671875,105.97865918601585L174.47866341145834,110.28642322280248L174.86136067708335,123.00304899283934L175.37643749999998,111.21355534440364L176.18515625,91.90960938776625L176.86630924479167,88.31996636463916L177.20568229166668,105.16444235463435L177.54505533854166,118.98005085439134L177.87961458333334,129.61717535566328L178.33211197916665,124.43011282061983L178.67148502604167,133.61649160055677L179.48020377604166,99.81198209024456L179.81476302083334,114.68312460535422L180.6234817708333,93.28746348609283L180.900275390625,118.46650013021559L181.83896679687498,74.6237624935643L182.52011979166667,77.94296276422737L182.79691341145832,103.12199940835012L183.355314453125,100.82252404125101L183.701908203125,115.50137935754664L184.64059960937502,73.87605495664272L185.33138020833334,77.46178604113135L186.1400989583333,75.3673660156665L186.41689257812502,100.54640265978924L187.06194205729167,92.95040375352225L187.74790885416667,88.89786905665662L188.0247024739583,114.07690570077935L188.83342122395834,93.05092725877243L189.63251236979167,78.99332298017572L190.44123111979167,76.24223693070202L191.04777018229169,78.97556395618558L191.861302734375,76.23215915299087L192.67002148437498,74.65653886176534L193.28859505208334,53.96843374120517L193.56538867187498,79.14747038532792L194.16711393229164,80.79813197385997L194.62442513020832,92.4306038730542L195.226150390625,88.6099277471901L196.03968294270834,81.46705511947155L196.453669921875,92.93795552533601L197.07224348958334,60.392715157137346L197.479009765625,76.21329392086471L198.359935546875,70.68094616052193L199.16865429687502,71.35500547381426L199.98218684895832,71.76391047424514L200.60076041666667,52.807400202410584L200.87755403645832,77.98643684653334L201.68627278645832,75.66837823295263L202.03045963541666,94.28002710287734L202.66106770833332,89.62823889476667L202.93786132812502,114.8072755388894L203.356662109375,115.88552666698479L203.63345572916666,141.06456331110755L203.977642578125,145.0527675923063L204.93318229166667,71.5351287602146L205.61433528645836,75.93858137783666L206.18236393229168,66.8746521579109L206.45915755208333,92.05368880203365L206.735951171875,117.23272544615638L207.4893111979167,74.31672700527594L207.898484375,87.43065581717832L208.53872005208333,85.77134704412573L208.81069986979168,110.95038368824846L209.08749348958332,136.1294203323712L209.65552213541667,88.26030040597308L210.33426822916667,68.82925485638914L210.606248046875,94.00829150051187L210.99135221354166,109.92358452888124L211.26333203125,135.102621173004L211.54012565104168,160.28165781712673L211.81691927083332,185.46069446124946L212.26460286458334,146.9016242364326L212.54139648437499,172.08066088055534L212.81819010416666,197.25969752467807L213.49934309895835,121.70789703647254L213.77132291666666,146.88693368059526L214.2238203125,133.0022746689994L214.84239388020833,69.72555899844309L215.29489127604168,83.80060836026878L215.74257486979164,94.69472162045615L216.42372786458333,89.85421517007667L216.758287109375,106.45685415591046L217.09766015625002,120.00357838050103L217.36963997395833,145.18261502462377L217.812509765625,132.22341264712713L218.3709108072917,115.35502420584172L218.71028385416665,126.89323952412556L219.70433398437498,76.5712542607956L220.04370703125,95.06936891627515L220.85242578125002,84.71412580640195L221.41564062499998,89.4595991981517L221.68280664062502,114.63863584227445L222.49152539062501,93.27016502819761L223.17267838541667,89.07432652796236L223.44465820312502,114.25336317208507L224.253376953125,93.11996101106763L224.52535677083333,118.29899765519038L225.09338541666668,108.9355141079851L225.77453841145834,97.08659591131712L226.04651822916665,122.26563255543986L226.318498046875,147.44466919956258L226.5856640625,172.62370584368531L227.03816145833335,143.03347740064024L227.31014127604166,168.212514044763L227.99129427083332,116.8309426319637L228.26808789062503,142.00997927608645L228.94924088541666,110.00891332847755L229.63039388020832,97.5901076092661L230.073263671875,104.63524831375412L230.63166471354168,101.68339651740231L230.89883072916666,126.86243316152505L231.34170052083334,122.9232735656488L231.7845703125,120.70253873640979L232.34297135416668,110.11348915046648L232.78584114583336,112.9543629557727L233.2287109375,114.74095537177648L233.6715807291667,115.8448439324393L234.11445052083334,116.51924194388303L234.55732031250002,116.92835467866688L235.16626627604165,108.25064596954046L235.618763671875,111.76222079392508L236.06163346354165,113.99588602735108L236.50931705729167,115.38634410885132L236.95700065104165,116.2398444859468L237.22898046875,141.41888113006956L237.496146484375,166.5979177741923L237.94864388020835,140.9674641336368L238.22062369791666,166.14650077775954L238.48778971354167,191.3255374218823L238.76458333333332,216.504574066005L239.21226692708333,153.66622073499764L239.48424674479168,178.84525737912037L240.3098138020833,254.38236731148857L240.75268359375,158.31076411666146L241.19555338541664,137.84900691617196L241.63842317708333,128.70455876997897L242.19682421875,113.82477192515341L242.47361783854166,139.00380856927617L243.15477083333332,109.046696056584L243.43156445312502,134.22573270070671L244.11271744791665,107.43400145528628L244.7938704427083,96.37248931966988L245.06585026041668,121.55152596379263L245.34264388020833,146.73056260791537L245.60980989583334,171.9095992520381L246.290962890625,117.59030823130968L246.73383268229168,117.57356543722403L247.00099869791666,142.75260208134677L247.68215169270832,110.24050091497413L248.3633046875,97.69797782835401L248.63047070312498,122.87701447247673L249.18887174479167,111.15398115182799L249.46566536458334,136.33301779595072L250.02406640625,117.0644757782372L250.47175,117.25750033392718L250.86166796875003,128.32901843575908L251.30453776041665,123.73024190652683L251.98569075520834,103.51848047964602L252.544091796875,101.04917940787689L252.98696158854165,107.00349147185568L253.54536263020833,103.00773524706L253.988232421875,108.32096275808166L254.32760546875002,121.46993030498837L254.77047526041667,119.86371521686364L255.21334505208335,118.92452405102144L255.83191861979165,67.08928432198005L256.284416015625,81.68484747912777L256.72728580729165,93.10278281087076L257.00407942708335,118.2818194549935L257.44694921875,117.9871658251424L257.88981901041666,117.8112154282007L258.234005859375,128.74433418873917L258.79240690104166,113.84241462014454L259.35080794270834,106.67382833438413L259.793677734375,110.74050784291019L260.23654752604165,113.35196933822294L260.9177005208333,99.12104445363101L261.3605703125,105.68986096019404L261.9911783854167,95.52865928199162L262.33055143229166,111.18010710497393L262.60253125,136.35914374909666L263.04540104166665,127.95637713074204L263.60380208333333,113.49143332444679L264.05148567708335,115.07440337394071L264.49435546875,116.04917635131525" style="fill: none;" fill="none"></path></g></g></g></g><g opacity="0.2"><g><g><g><path stroke="rgb(255, 112, 67)" stroke-width="2px" d="M24.403569661458334,151.71428571428572L24.742942708333334,151.71428571428572M25.592578776041666,97.56273616960225ZM26.61551171875,72.38369952547953L26.998208984375,151.71428571428572L27.378499348958332,151.71428571428572L27.717872395833336,151.71428571428572L28.105383463541667,151.71428571428572L28.4495703125,151.71428571428572L28.950205729166665,117.548461904546M29.660241536458333,117.548461904546L30.158470052083334,117.548461904546M31.3378515625,83.38263809480628ZM33.39815885416667,83.38263809480628L33.857876953125,117.548461904546L34.206877604166664,151.71428571428572L34.61123697916667,117.548461904546M35.227403645833334,151.71428571428572ZM36.067412109375,97.56273616960225ZM36.83521354166667,117.548461904546ZM38.943658854166664,55.79869207586006ZM40.56350325520833,97.56273616960225ZM41.75973307291667,63.39691235986254ZM42.671948567708334,83.38263809480628ZM43.386798177083335,117.548461904546L44.54692447916667,43.411186624918756L45.07162890625,97.56273616960225L45.829802734375,72.38369952547953L46.161955078125,151.71428571428572M47.683116536458336,83.38263809480628ZM48.746966796875,97.56273616960225ZM51.132205729166664,117.548461904546ZM51.7868828125,151.71428571428572ZM52.65096028645833,83.38263809480628ZM53.673893229166666,55.79869207586006L54.06381119791667,151.71428571428572M54.793102213541665,117.548461904546L55.13247526041666,151.71428571428572L55.707724609375,97.56273616960225M56.31667057291667,151.71428571428572ZM57.3035,117.548461904546ZM57.91966666666667,151.71428571428572L58.256632812499994,151.71428571428572L58.77170963541666,97.56273616960225L59.188103515625,117.548461904546L59.57080078125,151.71428571428572L60.01848437500001,117.548461904546L60.36267122395833,151.71428571428572M61.193052083333335,97.56273616960225L61.60463216145833,117.548461904546M62.827337890624996,117.548461904546ZM63.55662890625,117.548461904546L63.94413997395833,151.71428571428572L64.50013411458333,97.56273616960225L64.83950716145833,151.71428571428572M65.55435677083334,117.548461904546L66.04536458333332,117.548461904546M67.53764322916666,151.71428571428572ZM68.50040364583333,83.38263809480628ZM69.585916015625,72.38369952547953ZM70.23096549479166,151.71428571428572L70.65217317708334,117.548461904546M71.376650390625,117.548461904546L71.98078255208334,97.56273616960225M72.69563216145833,117.548461904546L73.14812955729165,117.548461904546L73.48268880208333,151.71428571428572M74.09404166666667,151.71428571428572ZM75.13863671874999,117.548461904546ZM75.80534830729167,151.71428571428572L77.02564713541666,29.231088550122813L77.54072395833334,97.56273616960225L78.23150455729166,83.38263809480628L79.24480989583333,38.217875715739794M80.14980468750001,83.38263809480628L81.18477213541667,49.2168142850666M82.50134700520834,72.38369952547953L82.944216796875,117.548461904546L83.39671419270833,117.548461904546M84.59535091145833,83.38263809480628ZM85.31501432291667,117.548461904546L85.81083593749999,117.548461904546M87.088900390625,117.548461904546ZM87.69543945312499,151.71428571428572L88.14793684895834,117.548461904546M88.81705533854166,151.71428571428572ZM89.710015625,151.71428571428572L90.15288541666666,117.548461904546M91.71737109375,117.548461904546L92.68975911458334,55.79869207586006L93.24575325520834,83.38263809480628L94.23017578125,33.51995455008115L94.68267317708333,117.548461904546L95.13517057291666,117.548461904546L96.02091015625001,63.39691235986254M96.74779427083334,117.548461904546L97.19547786458334,117.548461904546L97.53485091145834,151.71428571428572L97.86941015625,151.71428571428572L98.20156250000001,151.71428571428572L98.57703906249999,151.71428571428572M99.77086197916667,49.2168142850666ZM100.89729166666666,97.56273616960225L101.54474804687501,83.38263809480628M102.39197721354167,97.56273616960225ZM105.03716145833334,43.411186624918756ZM106.584798828125,63.39691235986254L107.51386263020834,55.79869207586006L108.71731315104167,38.217875715739794M113.25432161458333,55.79869207586006L114.13524739583333,63.39691235986254L114.93674544270834,72.38369952547953L115.32666341145833,151.71428571428572L116.13538216145834,72.38369952547953L117.08129427083333,55.79869207586006M118.62411783854166,38.217875715739794ZM119.71925781249999,72.38369952547953L120.824025390625,43.411186624918756L121.80363411458333,49.2168142850666L122.874705078125,49.2168142850666L124.32365950520834,6.580342733426463L125.3802890625,38.217875715739794L126.93755403645834,15.05099047532687L127.85699023437499,63.39691235986254L128.795681640625,43.411186624918756L129.77529036458333,49.2168142850666L130.34331901041665,97.56273616960225L131.85485286458334,25.285714285714295L132.30735026041668,117.548461904546L133.18827604166668,55.79869207586006L133.70335286458334,97.56273616960225L134.52169921875,63.39691235986254L135.60480468749998,49.2168142850666L136.78177929687502,33.51995455008115L137.48940820312498,72.38369952547953L137.91302278645833,117.548461904546L139.26329427083334,33.51995455008115L139.98536458333334,72.38369952547953L140.926462890625,55.79869207586006L141.61724348958333,83.38263809480628L142.42596223958333,72.38369952547953L142.87845963541665,117.548461904546L143.99044791666665,43.411186624918756L145.085587890625,49.2168142850666L145.81969270833335,72.38369952547953L147.14348828125,33.51995455008115L148.26029036458334,49.2168142850666L149.519099609375,33.51995455008115L150.414466796875,63.39691235986254L151.22799934895835,72.38369952547953L152.60474674479167,33.51995455008115L153.53140364583334,63.39691235986254L154.501384765625,38.217875715739794L154.84557161458335,151.71428571428572L155.72649739583335,63.39691235986254L156.0706842447917,151.71428571428572L156.67481640625,83.38263809480628L157.54611458333332,63.39691235986254L157.89030143229166,151.71428571428572L158.38130924479165,97.56273616960225L158.848248046875,117.548461904546L159.53902864583333,83.38263809480628L160.33330598958335,72.38369952547953L162.20346809895835,-2.836935068799705L163.36600130208333,43.411186624918756L164.17953385416666,72.38369952547953L164.92567317708333,72.38369952547953L165.63811588541668,72.38369952547953L166.80064908854166,49.2168142850666L167.92707877604167,33.51995455008115L168.88261848958334,49.2168142850666L169.84297200520834,43.411186624918756L171.296740234375,29.231088550122813L172.52185286458334,33.51995455008115L173.81195182291665,38.217875715739794L174.15132486979167,151.71428571428572L175.383658203125,33.51995455008115L176.033521484375,83.38263809480628L177.61485546875,15.05099047532687L178.4668984375,25.285714285714295L178.9988235677083,97.56273616960225L179.94473567708334,21.632868266120354L180.68846809895834,72.38369952547953L181.54773177083334,21.632868266120354L182.13260872395833,97.56273616960225L183.58397005208334,29.231088550122813L184.57802018229165,55.79869207586006L185.73092578125,29.231088550122813L187.75512955729167,6.580342733426463L189.12465625000002,38.217875715739794L189.98391992187499,63.39691235986254L190.792638671875,63.39691235986254L192.4750625,15.05099047532687L193.3102571614583,38.217875715739794L194.57147330729168,33.51995455008115L196.06856575520834,29.231088550122813L196.58123567708333,97.56273616960225L197.25998177083335,83.38263809480628L198.75707421875,6.580342733426463L200.1290078125,29.231088550122813L200.8221953125,83.38263809480628L202.13877018229167,33.51995455008115L203.07746158854167,43.411186624918756L204.18944986979167,43.411186624918756L205.78522526041667,12.062750451268542L206.60357161458336,25.285714285714295L207.81424283854165,38.217875715739794L208.93104492187499,49.2168142850666L209.83122591145832,55.79869207586006L210.44979947916667,33.51995455008115L212.00465755208333,4.0520519060000835L213.34770833333334,38.217875715739794L214.40193098958332,43.411186624918756L215.67999544270833,38.217875715739794L217.24207421875,25.285714285714295L218.77286328124998,6.580342733426463L220.975177734375,-0.6458692596585744L222.32544921875,33.51995455008115L222.94402278645833,33.51995455008115L223.33153385416668,151.71428571428572L224.47481184895832,38.217875715739794L224.92730924479167,117.548461904546L225.99115950520834,49.2168142850666L226.81431966145834,25.285714285714295L227.56527278645834,55.79869207586006L228.21272916666666,83.38263809480628L229.69778710937499,21.632868266120354L230.31636067708334,33.51995455008115L230.9349342447917,33.51995455008115L232.239474609375,38.217875715739794L233.77267057291667,25.285714285714295L235.27216992187502,12.062750451268542L235.89074348958331,33.51995455008115L236.63447591145834,29.231088550122813L237.28674609375,29.231088550122813L239.214673828125,-0.6458692596585744L240.50717968749998,43.411186624918756L242.521755859375,-8.880109524025414L243.32806770833335,72.38369952547953L244.456904296875,33.51995455008115L245.83605859374998,6.580342733426463L247.26335091145833,25.285714285714295L248.10095247395836,63.39691235986254L249.08296809895833,21.632868266120354L250.7341022135417,15.05099047532687L251.648724609375,55.79869207586006L253.035099609375,33.51995455008115L253.90639778645834,63.39691235986254L255.08577929687502,12.062750451268542L255.93541536458332,55.79869207586006L256.87410677083335,49.2168142850666L257.699673828125,12.062750451268542L259.13900065104167,29.231088550122813L260.98509375,-10.740362919764719L262.05135091145837,43.411186624918756L263.42087760416666,15.05099047532687L264.54249348958336,43.411186624918756" style="fill: none;" fill="none"></path></g><g><path stroke="rgb(187, 187, 187)" stroke-width="2px" d="M24.403569661458334,151.71428571428572L24.742942708333334,151.71428571428572M25.592578776041666,97.56273616960225ZM26.61551171875,72.38369952547953L27.116147135416668,117.548461904546M27.883948567708334,117.548461904546L28.27145963541667,151.71428571428572M29.436399739583333,97.56273616960225L29.958697265625,97.56273616960225L30.406380859375,117.548461904546M31.402837890625,117.548461904546L31.809604166666666,117.548461904546L32.257287760416666,117.548461904546L32.878268229166665,83.38263809480628L33.21764127604167,151.71428571428572L33.561828125,151.71428571428572M34.44034700520833,151.71428571428572L34.89284440104167,117.548461904546L35.299610677083336,117.548461904546L35.81950130208333,97.56273616960225L36.26237109375,117.548461904546L36.705240885416664,117.548461904546M37.473042317708334,117.548461904546L38.089208984375,83.38263809480628M38.69093424479167,151.71428571428572L39.201197265625005,97.56273616960225L39.54538411458333,151.71428571428572L40.51777213541667,55.79869207586006M41.30001497395833,97.56273616960225ZM41.901740234375005,151.71428571428572L42.48902408854167,83.38263809480628L42.828397135416665,151.71428571428572L43.16777018229167,151.71428571428572M44.253282552083334,72.38369952547953L44.77317317708333,97.56273616960225L45.38933984375,97.56273616960225M46.624080078125004,83.38263809480628ZM48.169310546875,117.548461904546L49.165767578125,55.79869207586006M50.816901692708335,97.56273616960225ZM51.510089192708335,117.548461904546ZM52.465628906250004,117.548461904546ZM53.673893229166666,151.71428571428572ZM55.062675130208326,97.56273616960225ZM56.256498046875,151.71428571428572ZM56.903954427083335,151.71428571428572L57.240920572916664,151.71428571428572L57.81376302083333,97.56273616960225M58.425115885416666,151.71428571428572ZM59.64060091145833,43.411186624918756L60.57929231770833,43.411186624918756L60.99568619791667,117.548461904546M63.602360026041666,151.71428571428572ZM64.29073372395833,117.548461904546L64.68305859375,151.71428571428572M66.13441992187501,151.71428571428572ZM67.08273893229168,151.71428571428572ZM68.75794205729167,55.79869207586006ZM69.42224674479166,151.71428571428572ZM70.85435286458333,63.39691235986254ZM72.49345247395833,72.38369952547953L73.095177734375,83.38263809480628L73.48990950520833,151.71428571428572M74.106076171875,151.71428571428572L74.45026302083333,151.71428571428572L75.06883658854167,33.51995455008115L75.48523046875,117.548461904546M77.55997916666666,83.38263809480628ZM78.84045052083334,55.79869207586006L79.17260286458334,151.71428571428572M80.66488151041666,43.411186624918756L81.11737890625,117.548461904546L81.78409049479167,83.38263809480628L82.12346354166667,151.71428571428572L82.47005729166666,151.71428571428572L83.47373502604167,29.231088550122813M84.20302604166666,117.548461904546L85.25965559895833,38.217875715739794M85.87341536458334,151.71428571428572L86.32591276041667,117.548461904546L86.77841015625,117.548461904546M87.45234244791668,117.548461904546ZM88.66782747395833,151.71428571428572L89.05533854166667,151.71428571428572L89.38989778645833,151.71428571428572L89.73649153645833,151.71428571428572L90.18898893229168,117.548461904546M91.175818359375,117.548461904546L91.565736328125,151.71428571428572L92.504427734375,43.411186624918756L93.03394596354167,97.56273616960225L93.45033984375,117.548461904546L93.90283723958333,117.548461904546M95.27958463541665,25.285714285714295ZM96.40120052083333,97.56273616960225L96.79593229166667,151.71428571428572M97.44579557291667,151.71428571428572ZM98.72626692708333,29.231088550122813L99.11377799479168,151.71428571428572L100.05246940104166,43.411186624918756L100.82027083333334,72.38369952547953M101.44125130208333,151.71428571428572ZM102.59175,49.2168142850666ZM103.83130403645833,83.38263809480628L104.32231184895834,97.56273616960225L105.37894140625001,38.217875715739794M106.87122005208333,43.411186624918756L107.38148307291667,117.548461904546M107.9928359375,151.71428571428572L108.404416015625,117.548461904546L109.343107421875,43.411186624918756L110.281798828125,43.411186624918756M111.61762890625,38.217875715739794ZM112.77775520833333,63.39691235986254L113.16526627604166,151.71428571428572L113.58166015625,117.548461904546L113.921033203125,151.71428571428572L114.37834440104167,117.548461904546L114.70808984375,151.71428571428572M115.91876106770833,43.411186624918756ZM118.08978580729166,97.56273616960225ZM118.701138671875,151.71428571428572L119.14882226562499,117.548461904546M119.75776822916667,151.71428571428572L120.32098307291668,97.56273616960225L121.11526041666667,72.38369952547953M122.3187109375,151.71428571428572ZM123.31757486979167,117.548461904546L124.131107421875,72.38369952547953L124.51861848958333,151.71428571428572L124.97111588541667,117.548461904546M125.59209635416667,151.71428571428572L125.936283203125,151.71428571428572L126.874974609375,43.411186624918756L127.813666015625,43.411186624918756M128.477970703125,151.71428571428572L129.416662109375,43.411186624918756M130.68028515625,55.79869207586006L131.6189765625,43.411186624918756M132.23032942708332,151.71428571428572L133.16902083333335,43.411186624918756L133.50839388020833,151.71428571428572L133.85258072916665,151.71428571428572L134.31470572916666,117.548461904546M135.53019075520834,43.411186624918756L136.02119856770832,97.56273616960225M137.027283203125,117.548461904546L137.4797805989583,117.548461904546M138.56529296875001,72.38369952547953L139.01779036458333,117.548461904546M140.51006901041666,43.411186624918756ZM141.55947786458333,117.548461904546L142.36819661458333,72.38369952547953L142.81588020833334,117.548461904546L143.62459895833334,72.38369952547953M144.34426236979166,117.548461904546ZM145.0663326822917,117.548461904546ZM146.15184505208333,72.38369952547953ZM147.04721223958333,33.51995455008115L147.98590364583333,43.411186624918756L148.40229752604165,117.548461904546L149.34098893229165,43.411186624918756L149.793486328125,117.548461904546M151.35075130208335,117.548461904546ZM152.56623632812497,43.411186624918756L153.24738932291666,83.38263809480628M153.952611328125,117.548461904546ZM154.67227473958332,117.548461904546L155.61096614583332,43.411186624918756L156.54965755208335,43.411186624918756L156.93235481770833,151.71428571428572L157.30542447916665,151.71428571428572L157.89992903645833,83.38263809480628L158.40537825520835,117.548461904546L159.21409700520832,72.38369952547953L159.656966796875,117.548461904546L160.595658203125,43.411186624918756M161.83761914062498,117.548461904546ZM163.60669140625,43.411186624918756L164.5453828125,43.411186624918756L165.05083203125,117.548461904546M165.938978515625,151.71428571428572L166.3553723958333,117.548461904546L167.16409114583334,72.38369952547953M168.24960351562498,72.38369952547953ZM169.7418821614583,43.411186624918756L170.55060091145833,72.38369952547953M171.27989192708333,117.548461904546ZM172.56036328125,117.548461904546L173.12839192708336,55.79869207586006L173.58088932291665,117.548461904546L174.03338671875,117.548461904546L174.47866341145834,117.548461904546L174.86136067708335,151.71428571428572L175.37643749999998,97.56273616960225L176.18515625,72.38369952547953L176.86630924479167,83.38263809480628L177.20568229166668,151.71428571428572L177.54505533854166,151.71428571428572L177.87961458333334,151.71428571428572L178.33211197916665,117.548461904546L178.67148502604167,151.71428571428572L179.48020377604166,72.38369952547953L179.81476302083334,151.71428571428572L180.6234817708333,72.38369952547953M181.83896679687498,43.411186624918756L182.52011979166667,83.38263809480628M183.355314453125,97.56273616960225L183.701908203125,151.71428571428572L184.64059960937502,43.411186624918756L185.33138020833334,83.38263809480628L186.1400989583333,72.38369952547953M187.06194205729167,83.38263809480628L187.74790885416667,83.38263809480628M188.83342122395834,72.38369952547953L189.63251236979167,63.39691235986254L190.44123111979167,72.38369952547953L191.04777018229169,83.38263809480628L191.861302734375,72.38369952547953L192.67002148437498,72.38369952547953L193.28859505208334,33.51995455008115M194.16711393229164,83.38263809480628L194.62442513020832,117.548461904546L195.226150390625,83.38263809480628L196.03968294270834,72.38369952547953L196.453669921875,117.548461904546L197.07224348958334,33.51995455008115L197.479009765625,117.548461904546L198.359935546875,63.39691235986254L199.16865429687502,72.38369952547953L199.98218684895832,72.38369952547953L200.60076041666667,33.51995455008115M201.68627278645832,72.38369952547953L202.03045963541666,151.71428571428572L202.66106770833332,83.38263809480628M203.356662109375,117.548461904546ZM203.977642578125,151.71428571428572L204.93318229166667,33.51995455008115L205.61433528645836,83.38263809480628L206.18236393229168,55.79869207586006M207.4893111979167,43.411186624918756L207.898484375,117.548461904546L208.53872005208333,83.38263809480628M209.65552213541667,55.79869207586006L210.33426822916667,49.2168142850666M210.99135221354166,151.71428571428572ZM212.26460286458334,117.548461904546ZM213.49934309895835,83.38263809480628ZM214.2238203125,117.548461904546L214.84239388020833,33.51995455008115L215.29489127604168,117.548461904546L215.74257486979164,117.548461904546L216.42372786458333,83.38263809480628L216.758287109375,151.71428571428572L217.09766015625002,151.71428571428572M217.812509765625,117.548461904546L218.3709108072917,97.56273616960225L218.71028385416665,151.71428571428572L219.70433398437498,43.411186624918756L220.04370703125,151.71428571428572L220.85242578125002,72.38369952547953L221.41564062499998,97.56273616960225M222.49152539062501,72.38369952547953L223.17267838541667,83.38263809480628M224.253376953125,72.38369952547953ZM225.09338541666668,97.56273616960225L225.77453841145834,83.38263809480628M227.03816145833335,117.548461904546ZM227.99129427083332,83.38263809480628ZM228.94924088541666,83.38263809480628L229.63039388020832,83.38263809480628L230.073263671875,117.548461904546L230.63166471354168,97.56273616960225M231.34170052083334,117.548461904546L231.7845703125,117.548461904546L232.34297135416668,97.56273616960225L232.78584114583336,117.548461904546L233.2287109375,117.548461904546L233.6715807291667,117.548461904546L234.11445052083334,117.548461904546L234.55732031250002,117.548461904546L235.16626627604165,97.56273616960225L235.618763671875,117.548461904546L236.06163346354165,117.548461904546L236.50931705729167,117.548461904546L236.95700065104165,117.548461904546M237.94864388020835,117.548461904546ZM239.21226692708333,117.548461904546ZM240.75268359375,117.548461904546L241.19555338541664,117.548461904546L241.63842317708333,117.548461904546L242.19682421875,97.56273616960225M243.15477083333332,83.38263809480628ZM244.11271744791665,83.38263809480628L244.7938704427083,83.38263809480628M246.290962890625,83.38263809480628L246.73383268229168,117.548461904546M247.68215169270832,83.38263809480628L248.3633046875,83.38263809480628M249.18887174479167,97.56273616960225ZM250.02406640625,97.56273616960225L250.47175,117.548461904546L250.86166796875003,151.71428571428572L251.30453776041665,117.548461904546L251.98569075520834,83.38263809480628L252.544091796875,97.56273616960225L252.98696158854165,117.548461904546L253.54536263020833,97.56273616960225L253.988232421875,117.548461904546L254.32760546875002,151.71428571428572L254.77047526041667,117.548461904546L255.21334505208335,117.548461904546L255.83191861979165,33.51995455008115L256.284416015625,117.548461904546L256.72728580729165,117.548461904546M257.44694921875,117.548461904546L257.88981901041666,117.548461904546L258.234005859375,151.71428571428572L258.79240690104166,97.56273616960225L259.35080794270834,97.56273616960225L259.793677734375,117.548461904546L260.23654752604165,117.548461904546L260.9177005208333,83.38263809480628L261.3605703125,117.548461904546L261.9911783854167,83.38263809480628L262.33055143229166,151.71428571428572M263.04540104166665,117.548461904546L263.60380208333333,97.56273616960225L264.05148567708335,117.548461904546L264.49435546875,117.548461904546" style="fill: none;" fill="none"></path></g></g></g></g></g></g><g transform="translate(41, 177)" clip-path="url(#clip_1)"><clipPath id="clip_1"><rect width="288" height="23"></rect></clipPath><g><g><line x1="0" y1="0" x2="0" y2="5" style="visibility: inherit;" fill="rgb(0, 0, 0)" stroke="rgb(204, 204, 204)" stroke-width="1px"></line><line x1="24.069010416666664" y1="0" x2="24.069010416666664" y2="5" style="visibility: inherit;" fill="rgb(0, 0, 0)" stroke="rgb(204, 204, 204)" stroke-width="1px"></line><line x1="48.13802083333333" y1="0" x2="48.13802083333333" y2="5" style="visibility: inherit;" fill="rgb(0, 0, 0)" stroke="rgb(204, 204, 204)" stroke-width="1px"></line><line x1="72.20703125" y1="0" x2="72.20703125" y2="5" style="visibility: inherit;" fill="rgb(0, 0, 0)" stroke="rgb(204, 204, 204)" stroke-width="1px"></line><line x1="96.27604166666666" y1="0" x2="96.27604166666666" y2="5" style="visibility: inherit;" fill="rgb(0, 0, 0)" stroke="rgb(204, 204, 204)" stroke-width="1px"></line><line x1="120.34505208333334" y1="0" x2="120.34505208333334" y2="5" style="visibility: inherit;" fill="rgb(0, 0, 0)" stroke="rgb(204, 204, 204)" stroke-width="1px"></line><line x1="144.4140625" y1="0" x2="144.4140625" y2="5" style="visibility: inherit;" fill="rgb(0, 0, 0)" stroke="rgb(204, 204, 204)" stroke-width="1px"></line><line x1="168.48307291666669" y1="0" x2="168.48307291666669" y2="5" style="visibility: inherit;" fill="rgb(0, 0, 0)" stroke="rgb(204, 204, 204)" stroke-width="1px"></line><line x1="192.55208333333331" y1="0" x2="192.55208333333331" y2="5" style="visibility: inherit;" fill="rgb(0, 0, 0)" stroke="rgb(204, 204, 204)" stroke-width="1px"></line><line x1="216.62109375" y1="0" x2="216.62109375" y2="5" style="visibility: inherit;" fill="rgb(0, 0, 0)" stroke="rgb(204, 204, 204)" stroke-width="1px"></line><line x1="240.69010416666669" y1="0" x2="240.69010416666669" y2="5" style="visibility: inherit;" fill="rgb(0, 0, 0)" stroke="rgb(204, 204, 204)" stroke-width="1px"></line><line x1="264.7591145833333" y1="0" x2="264.7591145833333" y2="5" style="visibility: inherit;" fill="rgb(0, 0, 0)" stroke="rgb(204, 204, 204)" stroke-width="1px"></line><line x1="288.828125" y1="0" x2="288.828125" y2="5" style="visibility: inherit;" fill="rgb(0, 0, 0)" stroke="rgb(204, 204, 204)" stroke-width="1px"></line></g><g transform="translate(0, 8)"><text x="0" y="0" dx="0em" dy="0.95em" style="text-anchor: middle; visibility: hidden; font-family: Roboto, sans-serif; font-size: 12px; font-weight: 200;" fill="rgb(33, 33, 33)" stroke="none" stroke-width="1px">-10k</text><text x="24.069010416666664" y="0" dx="0em" dy="0.95em" style="text-anchor: middle; visibility: inherit; font-family: Roboto, sans-serif; font-size: 12px; font-weight: 200;" fill="rgb(33, 33, 33)" stroke="none" stroke-width="1px">0</text><text x="48.13802083333333" y="0" dx="0em" dy="0.95em" style="text-anchor: middle; visibility: hidden; font-family: Roboto, sans-serif; font-size: 12px; font-weight: 200;" fill="rgb(33, 33, 33)" stroke="none" stroke-width="1px">10k</text><text x="72.20703125" y="0" dx="0em" dy="0.95em" style="text-anchor: middle; visibility: inherit; font-family: Roboto, sans-serif; font-size: 12px; font-weight: 200;" fill="rgb(33, 33, 33)" stroke="none" stroke-width="1px">20k</text><text x="96.27604166666666" y="0" dx="0em" dy="0.95em" style="text-anchor: middle; visibility: hidden; font-family: Roboto, sans-serif; font-size: 12px; font-weight: 200;" fill="rgb(33, 33, 33)" stroke="none" stroke-width="1px">30k</text><text x="120.34505208333334" y="0" dx="0em" dy="0.95em" style="text-anchor: middle; visibility: inherit; font-family: Roboto, sans-serif; font-size: 12px; font-weight: 200;" fill="rgb(33, 33, 33)" stroke="none" stroke-width="1px">40k</text><text x="144.4140625" y="0" dx="0em" dy="0.95em" style="text-anchor: middle; visibility: hidden; font-family: Roboto, sans-serif; font-size: 12px; font-weight: 200;" fill="rgb(33, 33, 33)" stroke="none" stroke-width="1px">50k</text><text x="168.48307291666669" y="0" dx="0em" dy="0.95em" style="text-anchor: middle; visibility: inherit; font-family: Roboto, sans-serif; font-size: 12px; font-weight: 200;" fill="rgb(33, 33, 33)" stroke="none" stroke-width="1px">60k</text><text x="192.55208333333331" y="0" dx="0em" dy="0.95em" style="text-anchor: middle; visibility: hidden; font-family: Roboto, sans-serif; font-size: 12px; font-weight: 200;" fill="rgb(33, 33, 33)" stroke="none" stroke-width="1px">70k</text><text x="216.62109375" y="0" dx="0em" dy="0.95em" style="text-anchor: middle; visibility: inherit; font-family: Roboto, sans-serif; font-size: 12px; font-weight: 200;" fill="rgb(33, 33, 33)" stroke="none" stroke-width="1px">80k</text><text x="240.69010416666669" y="0" dx="0em" dy="0.95em" style="text-anchor: middle; visibility: hidden; font-family: Roboto, sans-serif; font-size: 12px; font-weight: 200;" fill="rgb(33, 33, 33)" stroke="none" stroke-width="1px">90k</text><text x="264.7591145833333" y="0" dx="0em" dy="0.95em" style="text-anchor: middle; visibility: inherit; font-family: Roboto, sans-serif; font-size: 12px; font-weight: 200;" fill="rgb(33, 33, 33)" stroke="none" stroke-width="1px">100k</text><text x="288.828125" y="0" dx="0em" dy="0.95em" style="text-anchor: middle; visibility: hidden; font-family: Roboto, sans-serif; font-size: 12px; font-weight: 200;" fill="rgb(33, 33, 33)" stroke="none" stroke-width="1px">110k</text></g><line x1="0" y1="0" x2="288.828125" y2="0" fill="rgb(0, 0, 0)" stroke="rgb(204, 204, 204)" stroke-width="1px"></line></g></g></g></g></svg>