<svg viewBox="0 0 330 200" xmlns="http://www.w3.org/2000/svg"><g><g><g><g><g><line x1="30.78125" y1="177" x2="25.78125" y2="177" style="visibility: inherit;" fill="rgb(0, 0, 0)" stroke="rgb(204, 204, 204)" stroke-width="1px"></line><line x1="30.78125" y1="154.875" x2="25.78125" y2="154.875" style="visibility: inherit;" fill="rgb(0, 0, 0)" stroke="rgb(204, 204, 204)" stroke-width="1px"></line><line x1="30.78125" y1="132.75" x2="25.78125" y2="132.75" style="visibility: inherit;" fill="rgb(0, 0, 0)" stroke="rgb(204, 204, 204)" stroke-width="1px"></line><line x1="30.78125" y1="110.625" x2="25.78125" y2="110.625" style="visibility: inherit;" fill="rgb(0, 0, 0)" stroke="rgb(204, 204, 204)" stroke-width="1px"></line><line x1="30.78125" y1="88.5" x2="25.78125" y2="88.5" style="visibility: inherit;" fill="rgb(0, 0, 0)" stroke="rgb(204, 204, 204)" stroke-width="1px"></line><line x1="30.78125" y1="66.375" x2="25.78125" y2="66.375" style="visibility: inherit;" fill="rgb(0, 0, 0)" stroke="rgb(204, 204, 204)" stroke-width="1px"></line><line x1="30.78125" y1="44.25" x2="25.78125" y2="44.25" style="visibility: inherit;" fill="rgb(0, 0, 0)" stroke="rgb(204, 204, 204)" stroke-width="1px"></line><line x1="30.78125" y1="22.125" x2="25.78125" y2="22.125" style="visibility: inherit;" fill="rgb(0, 0, 0)" stroke="rgb(204, 204, 204)" stroke-width="1px"></line><line x1="30.78125" y1="0" x2="25.78125" y2="0" style="visibility: inherit;" fill="rgb(0, 0, 0)" stroke="rgb(204, 204, 204)" stroke-width="1px"></line></g><g transform="translate(20.78125, 0)"><text x="0" y="177" dx="0em" dy="0.3em" style="text-anchor: end; visibility: hidden; font-family: Roboto, sans-serif; font-size: 12px; font-weight: 200;" fill="rgb(33, 33, 33)" stroke="none" stroke-width="1px">-5</text><text x="0" y="154.875" dx="0em" dy="0.3em" style="text-anchor: end; visibility: inherit; font-family: Roboto, sans-serif; font-size: 12px; font-weight: 200;" fill="rgb(33, 33, 33)" stroke="none" stroke-width="1px">0</text><text x="0" y="132.75" dx="0em" dy="0.3em" style="text-anchor: end; visibility: hidden; font-family: Roboto, sans-serif; font-size: 12px; font-weight: 200;" fill="rgb(33, 33, 33)" stroke="none" stroke-width="1px">5</text><text x="0" y="110.625" dx="0em" dy="0.3em" style="text-anchor: end; visibility: inherit; font-family: Roboto, sans-serif; font-size: 12px; font-weight: 200;" fill="rgb(33, 33, 33)" stroke="none" stroke-width="1px">10</text><text x="0" y="88.5" dx="0em" dy="0.3em" style="text-anchor: end; visibility: hidden; font-family: Roboto, sans-serif; font-size: 12px; font-weight: 200;" fill="rgb(33, 33, 33)" stroke="none" stroke-width="1px">15</text><text x="0" y="66.375" dx="0em" dy="0.3em" style="text-anchor: end; visibility: inherit; font-family: Roboto, sans-serif; font-size: 12px; font-weight: 200;" fill="rgb(33, 33, 33)" stroke="none" stroke-width="1px">20</text><text x="0" y="44.25" dx="0em" dy="0.3em" style="text-anchor: end; visibility: hidden; font-family: Roboto, sans-serif; font-size: 12px; font-weight: 200;" fill="rgb(33, 33, 33)" stroke="none" stroke-width="1px">25</text><text x="0" y="22.125" dx="0em" dy="0.3em" style="text-anchor: end; visibility: inherit; font-family: Roboto, sans-serif; font-size: 12px; font-weight: 200;" fill="rgb(33, 33, 33)" stroke="none" stroke-width="1px">30</text><text x="0" y="0" dx="0em" dy="0.3em" style="text-anchor: end; visibility: hidden; font-family: Roboto, sans-serif; font-size: 12px; font-weight: 200;" fill="rgb(33, 33, 33)" stroke="none" stroke-width="1px">35</text></g><line x1="30.78125" y1="0" x2="30.78125" y2="177" fill="rgb(0, 0, 0)" stroke="rgb(204, 204, 204)" stroke-width="1px"></line></g></g><g transform="translate(30, 0)" clip-path="url(#clip_0)"><clipPath id="clip_0"><rect width="299" height="177"></rect></clipPath><g><g><g><line x1="0" y1="0" x2="0" y2="177" fill="rgb(0, 0, 0)" stroke="rgb(66, 66, 66)" stroke-width="1px" opacity="0.25"></line><line x1="24.934895833333332" y1="0" x2="24.934895833333332" y2="177" fill="rgb(0, 0, 0)" stroke="rgb(66, 66, 66)" stroke-width="1px" opacity="0.25"></line><line x1="49.869791666666664" y1="0" x2="49.869791666666664" y2="177" fill="rgb(0, 0, 0)" stroke="rgb(66, 66, 66)" stroke-width="1px" opacity="0.25"></line><line x1="74.8046875" y1="0" x2="74.8046875" y2="177" fill="rgb(0, 0, 0)" stroke="rgb(66, 66, 66)" stroke-width="1px" opacity="0.25"></line><line x1="99.73958333333333" y1="0" x2="99.73958333333333" y2="177" fill="rgb(0, 0, 0)" stroke="rgb(66, 66, 66)" stroke-width="1px" opacity="0.25"></line><line x1="124.67447916666667" y1="0" x2="124.67447916666667" y2="177" fill="rgb(0, 0, 0)" stroke="rgb(66, 66, 66)" stroke-width="1px" opacity="0.25"></line><line x1="149.609375" y1="0" x2="149.609375" y2="177" fill="rgb(0, 0, 0)" stroke="rgb(66, 66, 66)" stroke-width="1px" opacity="0.25"></line><line x1="174.54427083333334" y1="0" x2="174.54427083333334" y2="177" fill="rgb(0, 0, 0)" stroke="rgb(66, 66, 66)" stroke-width="1px" opacity="0.25"></line><line x1="199.47916666666666" y1="0" x2="199.47916666666666" y2="177" fill="rgb(0, 0, 0)" stroke="rgb(66, 66, 66)" stroke-width="1px" opacity="0.25"></line><line x1="224.4140625" y1="0" x2="224.4140625" y2="177" fill="rgb(0, 0, 0)" stroke="rgb(66, 66, 66)" stroke-width="1px" opacity="0.25"></line><line x1="249.34895833333334" y1="0" x2="249.34895833333334" y2="177" fill="rgb(0, 0, 0)" stroke="rgb(66, 66, 66)" stroke-width="1px" opacity="0.25"></line><line x1="274.28385416666663" y1="0" x2="274.28385416666663" y2="177" fill="rgb(0, 0, 0)" stroke="rgb(66, 66, 66)" stroke-width="1px" opacity="0.25"></line><line x1="299.21875" y1="0" x2="299.21875" y2="177" fill="rgb(0, 0, 0)" stroke="rgb(66, 66, 66)" stroke-width="1px" opacity="0.25"></line></g><g><line x1="0" y1="177" x2="299.21875" y2="177" fill="rgb(0, 0, 0)" stroke="rgb(66, 66, 66)" stroke-width="1px" opacity="0.25"></line><line x1="0" y1="154.875" x2="299.21875" y2="154.875" fill="rgb(0, 0, 0)" stroke="rgb(66, 66, 66)" stroke-width="1px" opacity="0.25"></line><line x1="0" y1="132.75" x2="299.21875" y2="132.75" fill="rgb(0, 0, 0)" stroke="rgb(66, 66, 66)" stroke-width="1px" opacity="0.25"></line><line x1="0" y1="110.625" x2="299.21875" y2="110.625" fill="rgb(0, 0, 0)" stroke="rgb(66, 66, 66)" stroke-width="1px" opacity="0.25"></line><line x1="0" y1="88.5" x2="299.21875" y2="88.5" fill="rgb(0, 0, 0)" stroke="rgb(66, 66, 66)" stroke-width="1px" opacity="0.25"></line><line x1="0" y1="66.375" x2="299.21875" y2="66.375" fill="rgb(0, 0, 0)" stroke="rgb(66, 66, 66)" stroke-width="1px" opacity="0.25"></line><line x1="0" y1="44.25" x2="299.21875" y2="44.25" fill="rgb(0, 0, 0)" stroke="rgb(66, 66, 66)" stroke-width="1px" opacity="0.25"></line><line x1="0" y1="22.125" x2="299.21875" y2="22.125" fill="rgb(0, 0, 0)" stroke="rgb(66, 66, 66)" stroke-width="1px" opacity="0.25"></line><line x1="0" y1="0" x2="299.21875" y2="0" fill="rgb(0, 0, 0)" stroke="rgb(66, 66, 66)" stroke-width="1px" opacity="0.25"></line></g></g></g><g><g><line x1="0" y1="154.875" x2="299.21875" y2="154.875" fill="rgb(0, 0, 0)" stroke="rgb(153, 153, 153)" stroke-width="1.5px"></line></g></g><g><g><line x1="24.934895833333332" y1="0" x2="24.934895833333332" y2="177" fill="rgb(0, 0, 0)" stroke="rgb(153, 153, 153)" stroke-width="1.5px"></line></g></g><g><g><g><g><g><path stroke="rgb(255, 112, 67)" stroke-width="2px" d="M25.28149088541667,150.45L25.633072916666666,150.45L25.919824218749998,154.875L26.513274739583334,141.6L26.790052083333336,154.875L27.5730078125,132.75L27.96947265625,150.45L28.363444010416664,150.45L28.71502604166667,150.45L29.11647786458333,150.45L29.473046875,150.45L29.991692708333332,146.025L30.268470052083334,154.875L30.727272135416666,146.025L31.243424479166666,146.025L31.52518880208333,154.875L31.806953125000003,154.875L32.465234375,137.175L32.746998697916666,154.875L33.03375,154.875L33.31551432291667,154.875L33.602265625,154.875L33.884029947916666,154.875L34.59966145833334,137.175L35.07591796875,146.025L35.437473958333335,150.45L35.856380208333334,146.025L36.143131510416666,154.875L36.49471354166667,150.45L36.78146484375,154.875L37.36494140625,141.6L37.641718749999995,154.875L38.16036458333333,146.025L38.447115885416665,154.875L38.72888020833334,154.875L39.00565755208333,154.875L39.287421875,154.875L39.56918619791667,154.875L40.344661458333334,123.89999999999999L40.62143880208333,154.875L40.908190104166664,154.875L41.194941406249995,154.875L41.481692708333334,154.875L42.02277994791667,141.6L42.30953125,154.875L43.262044270833336,128.325L43.548795572916674,154.875L44.20707682291666,137.175L44.488841145833334,154.875L44.947643229166665,146.025L46.14950520833333,115.05L46.6930859375,141.6L47.478535156250004,132.75L47.82263671875,150.45L48.109388020833336,154.875L48.39613932291667,154.875L48.682890625000006,154.875L49.39852213541666,137.175L49.6703125,154.875L49.957063802083326,154.875L50.50064453125,141.6L50.78240885416666,154.875L51.06916015625,154.875L51.35591145833333,154.875L51.64266276041667,154.875L51.9294140625,154.875L52.21616536458333,154.875L52.502916666666664,154.875L52.97169270833333,146.025L53.25844401041667,154.875L53.649921875,150.45L53.93168619791666,154.875L54.545084635416664,137.175L54.831835937499996,154.875L55.60481770833333,123.89999999999999L56.008763020833335,150.45L56.295514322916674,154.875L56.76429036458334,146.025L57.11587239583333,150.45L57.711816406249994,141.6L57.99856770833333,154.875L58.34266927083333,150.45L58.629420572916665,154.875L58.90619791666666,154.875L59.364999999999995,146.025L59.65175130208333,154.875L60.00333333333334,150.45L60.352421875,150.45L60.88602864583333,141.6L61.31740234375,146.025L61.7138671875,150.45L62.177656250000005,146.025L62.53422526041666,150.45L62.815989583333334,154.875L63.39447916666667,141.6L63.820865885416666,146.025L64.10263020833334,154.875L64.38439453125,154.875L64.67114583333334,154.875L65.08755859375,146.025L65.37430989583333,154.875L65.84308593749999,146.025L66.24453776041666,150.45L66.82053385416667,141.6L67.17211588541667,150.45L67.45388020833333,154.875L67.91268229166667,146.025L68.42135416666666,146.025L68.70810546875,154.875L68.98986979166666,154.875L69.27662109375001,154.875L69.55838541666667,154.875L69.96731770833334,150.45L70.25406901041667,154.875L70.96471354166667,137.175L71.24647786458334,154.875L72.08927734375,132.75L72.37104166666667,154.875L72.75753255208333,150.45L73.19389322916668,146.025L73.47565755208333,154.875L73.94443359375,146.025L74.57029947916666,141.6L74.85206380208332,154.875L75.31086588541666,146.025L75.77964192708333,146.025L76.12623697916668,150.45L76.40800130208333,154.875L76.75958333333334,150.45L77.04633463541667,154.875L77.3330859375,154.875L77.84175781249999,146.025L78.12850911458334,154.875L78.53245442708334,150.45L79.79665364583333,101.77499999999999L80.33026041666668,141.6L81.04589192708333,137.175L82.09565104166666,110.625L82.38240234375,154.875L83.03320312500001,137.175L84.10540364583333,119.47500000000001L84.39215494791668,154.875L84.67890625,154.875L85.46934244791667,132.75L85.92814453125,146.025L86.39692057291667,146.025L86.683671875,154.875L86.97042317708333,154.875L87.63867838541667,137.175L87.91545572916667,154.875L88.38423177083334,146.025L88.89789062499999,146.025L89.17965494791666,154.875L89.46640624999999,154.875L89.75315755208334,154.875L90.22193359375,146.025L90.4987109375,154.875L90.85029296875,150.45L91.31906901041667,146.025L91.60582031249999,154.875L92.01225911458333,150.45L92.29901041666666,154.875L92.58576171875,154.875L92.93734375,150.45L93.39614583333334,146.025L93.68289713541667,154.875L93.9696484375,154.875L94.25639973958333,154.875L94.54315104166668,154.875L95.01691406249999,146.025L96.02428385416667,123.89999999999999L96.60027994791668,137.175L97.6201171875,106.2L98.08889322916666,146.025L98.55766927083333,146.025L99.47527343750001,128.325L99.76202473958332,154.875L100.22830729166667,146.025L100.69209635416668,146.025L101.04367838541667,150.45L101.3902734375,150.45L101.73437500000001,150.45L102.12335937499999,150.45L102.41011067708334,154.875L103.36013020833333,119.47500000000001L103.64688151041666,154.875L103.9336328125,154.875L104.52708333333334,141.6L105.19783203125,137.175L105.48458333333333,154.875L106.07554036458333,141.6L106.36229166666666,154.875L106.64904296875,154.875L106.93579427083333,154.875L107.22254557291667,154.875L107.509296875,154.875L107.79604817708334,154.875L108.81588541666667,115.05L109.10263671874999,154.875L109.38938802083332,154.875L110.41919921875,128.325L111.38168619791668,123.89999999999999L112.62843098958334,110.625L112.91518229166667,154.875L113.20193359375001,154.875L113.48868489583333,154.875L113.77543619791666,154.875L114.0621875,154.875L114.34893880208332,154.875L116.10684895833333,26.550000000000004L116.39360026041668,154.875L117.32865885416666,123.89999999999999L118.24127604166667,128.325L119.07160807291667,132.75L119.47555338541666,150.45L120.31336588541667,132.75L121.29330729166666,123.89999999999999L121.58005859375,154.875L122.89163411458334,110.625L123.17838541666667,154.875L124.02617187499999,132.75L125.17068359375,115.05L126.18553385416668,119.47500000000001L127.29513671875,119.47500000000001L128.79621744791666,70.8L129.890859375,110.625L131.50414713541667,84.075L132.45666015625,128.325L133.42912109375,115.05L134.44397135416665,119.47500000000001L135.03243489583332,141.6L136.59834635416667,97.35000000000001L137.06712239583334,146.025L137.97973958333333,123.89999999999999L138.51334635416666,141.6L139.3611328125,128.325L140.483203125,119.47500000000001L141.70251953125,106.2L142.43560546875,132.75L142.87445963541666,146.025L144.27330729166667,106.2L145.02135416666667,132.75L145.99630859375,123.89999999999999L146.71194010416667,137.175L147.54975260416666,132.75L148.01852864583333,146.025L149.17052083333334,115.05L150.30505859375,119.47500000000001L151.06557291666667,132.75L152.43699218749998,106.2L153.59397135416665,119.47500000000001L154.89806640625,106.2L155.82564453125,128.325L156.66844401041666,132.75L158.09472005208335,106.2L159.05471354166664,128.325L160.05958984375,110.625L160.41615885416667,150.45L161.32877604166669,128.325L161.68534505208333,150.45L162.3112109375,137.175L163.21385416666666,128.325L163.57042317708334,150.45L164.07909505208332,141.6L164.56283203125,146.025L165.27846354166667,137.175L166.10131510416667,132.75L168.03875651041668,53.10000000000001L169.24311197916666,115.05L170.08591145833333,132.75L170.85889322916665,132.75L171.59696614583333,132.75L172.80132161458332,119.47500000000001L173.96827473958334,106.2L174.95819010416668,119.47500000000001L175.95309244791667,115.05L177.45916015625,101.77499999999999L178.7283463541667,106.2L180.06485677083333,110.625L180.41643880208335,150.45L181.69310546875,106.2L182.36634765624999,137.175L184.0045703125,84.075L184.887265625,97.35000000000001L185.43832682291665,141.6L186.41826822916667,92.925L187.18875651041665,132.75L188.0789322916667,92.925L188.68485026041665,141.6L190.18842447916668,101.77499999999999L191.21823567708333,123.89999999999999L192.4126171875,101.77499999999999L194.50964192708332,70.8L195.9284375,110.625L196.81861328125,128.325L197.65642578125,128.325L199.399375,84.075L200.26461588541665,110.625L201.57120442708333,106.2L203.12215494791667,101.77499999999999L203.65326822916666,141.6L204.3564322916667,137.175L205.9073828125,70.8L207.328671875,101.77499999999999L208.046796875,137.175L209.41073567708335,106.2L210.38319661458334,115.05L211.53518880208333,115.05L213.18837239583334,79.64999999999999L214.03615885416667,97.35000000000001L215.29038411458333,110.625L216.44736328125,119.47500000000001L217.37992838541666,123.89999999999999L218.02075520833333,106.2L219.63154947916667,66.375L221.02291666666667,110.625L222.11506510416666,115.05L223.43910807291667,110.625L225.0573828125,97.35000000000001L226.6432421875,70.8L228.92478515624998,57.52499999999999L230.32363281250002,106.2L230.96445963541666,106.2L231.36591145833333,150.45L232.55031901041664,110.625L233.01909505208334,146.025L234.12121744791668,119.47500000000001L234.9739908854167,97.35000000000001L235.75195963541665,123.89999999999999L236.42270833333333,137.175L237.96119140624998,92.925L238.60201822916667,106.2L239.24284505208334,106.2L240.59431640625,110.625L242.18266927083334,97.35000000000001L243.73611328125003,79.64999999999999L244.37694010416666,106.2L245.14742838541665,101.77499999999999L245.8231640625,101.77499999999999L247.82044921874999,57.52499999999999L249.159453125,115.05L251.24650390624998,39.824999999999996L252.08182291666668,132.75L253.25126953125,106.2L254.6800390625,70.8L256.1586783854167,97.35000000000001L257.0264127604167,128.325L258.04375651041664,92.925L259.75429036458337,84.075L260.70181640625003,123.89999999999999L262.13806640625,106.2L263.0407096354167,128.325L264.26251953125,79.64999999999999L265.14272135416667,123.89999999999999L266.11518229166666,119.47500000000001L266.97044921875,79.64999999999999L268.46155598958336,101.77499999999999L270.3740625,35.39999999999999L271.4786783854167,115.05L272.89747395833336,84.075L274.0594401041667,115.05" style="fill: none;" fill="none"></path></g><g><path stroke="rgb(187, 187, 187)" stroke-width="2px" d="M25.28149088541667,150.45L25.633072916666666,150.45L25.919824218749998,154.875L26.513274739583334,141.6L26.790052083333336,154.875L27.5730078125,132.75L28.091653645833333,146.025L28.378404947916668,154.875L28.887076822916665,146.025L29.288528645833335,150.45L29.575279947916666,154.875L29.857044270833335,154.875L30.495377604166666,141.6L31.03646484375,141.6L31.50025390625,146.025L31.787005208333333,154.875L32.068769531250005,154.875L32.532558593750004,146.025L32.95395833333333,146.025L33.41774739583333,146.025L34.06106770833333,137.175L34.41264973958334,150.45L34.76921875,150.45L35.050983072916665,154.875L35.32776041666666,154.875L35.67934244791667,150.45L36.14811848958333,146.025L36.56951822916667,146.025L37.108111979166665,141.6L37.5669140625,146.025L38.02571614583333,146.025L38.302493489583334,154.875L38.82113932291667,146.025L39.45947265625,137.175L39.73126302083333,154.875L40.082845052083336,150.45L40.61146484375001,141.6L40.96803385416666,150.45L41.97540364583334,123.89999999999999L42.25716796875,154.875L42.78578776041666,141.6L43.06755208333333,154.875L43.40916015625,150.45L44.01757161458334,137.175L44.36915364583333,150.45L44.72073567708333,150.45L45.00748697916667,154.875L45.84529947916667,132.75L46.38389322916667,141.6L47.0222265625,141.6L47.30399088541667,154.875L47.5907421875,154.875L48.30138671875,137.175L48.588138020833334,154.875L48.86491536458333,154.875L49.15166666666667,154.875L49.43841796875,154.875L49.90220703125,146.025L50.934511718749995,123.89999999999999L51.206302083333334,154.875L51.47809244791667,154.875L51.76484375,154.875L52.05159505208333,154.875L52.645045572916665,141.6L52.931796875,154.875L53.36317057291667,146.025L53.649921875,154.875L53.921712239583336,154.875L54.353085937500005,146.025L54.629863281249996,154.875L54.916614583333335,154.875L55.203365885416666,154.875L55.60481770833333,150.45L55.881595052083334,154.875L56.163359375,154.875L56.45011067708334,154.875L57.04356119791666,141.6L57.3303125,154.875L57.60210286458334,154.875L57.88885416666667,154.875L58.28033203125,150.45L58.56209635416667,154.875L58.95108072916667,150.45L59.30016927083333,150.45L59.893619791666666,141.6L60.18037109375,154.875L60.526966145833335,150.45L60.813717447916666,154.875L61.78617838541666,115.05L62.758639322916665,115.05L63.190013020833334,146.025L63.476764322916665,154.875L63.763515625000004,154.875L64.05026692708333,154.875L64.33701822916666,154.875L64.62376953125,154.875L64.91052083333334,154.875L65.19727213541667,154.875L65.4840234375,154.875L65.89046223958333,150.45L66.17721354166667,154.875L66.60360026041667,146.025L67.0100390625,150.45L67.29679036458333,154.875L67.58354166666666,154.875L67.87029296875,154.875L68.15704427083334,154.875L68.51361328125,150.45L68.80036458333333,154.875L69.08711588541667,154.875L69.49604817708334,150.45L69.78279947916667,154.875L70.06955078125,154.875L70.35630208333333,154.875L70.64305338541666,154.875L71.23151692708333,123.89999999999999L71.51826822916667,154.875L71.91972005208333,150.45L72.20647135416667,154.875L72.49322265625,154.875L73.40334635416666,128.325L73.68511067708333,154.875L73.97186197916666,154.875L74.25861328125,154.875L75.10141276041666,132.75L75.72478515625,137.175L76.13371744791667,150.45L76.42046875,154.875L76.77205078125,150.45L77.12861979166667,150.45L77.76944661458334,106.2L78.20082031250001,146.025L78.48757161458333,154.875L78.77432291666666,154.875L79.06107421875,154.875L79.34782552083333,154.875L79.63457682291667,154.875L80.35020833333334,137.175L80.63695963541667,154.875L81.67674479166668,123.89999999999999L82.02084635416666,150.45L82.30759765625001,154.875L82.59434895833334,154.875L83.56680989583333,115.05L84.0355859375,146.025L84.72628255208333,137.175L85.07786458333334,150.45L85.43692708333333,150.45L86.47671223958332,101.77499999999999L86.76346354166667,154.875L87.23223958333332,146.025L88.32688151041667,110.625L88.60365885416665,154.875L88.96272135416667,150.45L89.43149739583333,146.025L89.9002734375,146.025L90.17206380208333,154.875L90.59845052083334,146.025L90.88520182291667,154.875L91.16696614583333,154.875L91.44873046875,154.875L91.85766276041666,150.45L92.25911458333334,150.45L92.60570963541667,150.45L92.96477213541667,150.45L93.43354817708334,146.025L93.7153125,154.875L93.99707682291667,154.875L94.45587890624999,146.025L94.85982421875,150.45L95.83228515625,115.05L96.38085286458333,141.6L96.8122265625,146.025L97.28100260416667,146.025L97.55279296875,154.875L98.70727864583333,97.35000000000001L98.99402994791666,154.875L99.27579427083333,154.875L99.86924479166666,141.6L100.27817708333333,150.45L100.55994140625,154.875L100.95141927083333,150.45L101.23817057291666,154.875L102.27795572916666,101.77499999999999L102.67940755208333,150.45L103.65186848958332,115.05L104.44729166666667,132.75L104.73404296874999,154.875L105.09061197916667,150.45L105.37736328125,154.875L106.2825,119.47500000000001L106.56925130208334,154.875L106.85600260416668,154.875L107.56664713541666,137.175L108.07531901041668,141.6L109.16996093750001,110.625L109.45671223958334,154.875L109.74346354166667,154.875L110.71592447916666,115.05L111.24454427083334,146.025L111.53129557291668,154.875L111.877890625,150.45L112.30427734375,146.025L113.27673828125,115.05L114.24919921875001,115.05L114.53595052083332,154.875L115.6330859375,110.625L115.91983723958334,154.875L116.83494791666668,128.325L117.23639973958333,150.45L117.6677734375,146.025L118.01935546875,150.45L118.49311848958334,146.025L118.8347265625,150.45L119.11649088541667,154.875L120.08895182291666,115.05L120.375703125,154.875L120.66245442708333,154.875L120.94920572916666,154.875L121.23595703125,154.875L121.52270833333334,154.875L121.80945963541667,154.875L122.33807942708333,141.6L122.62483072916666,154.875L122.97142578124999,150.45L123.43521484374999,146.025L123.71697916666666,154.875L124.06606770833334,150.45L124.64954427083335,141.6L125.47239583333334,132.75L125.75914713541667,154.875L126.0458984375,154.875L126.32267578125001,154.875L126.719140625,150.45L127.00589192708333,154.875L127.28266927083334,154.875L127.75393880208333,146.025L128.59673828125,132.75L128.99819010416667,150.45L129.46696614583334,146.025L129.75371744791667,154.875L130.11028645833335,150.45L130.46685546875,150.45L131.43931640625001,115.05L132.41177734375,115.05L132.69852864583333,154.875L133.09998046875,150.45L134.07244140625,115.05L134.35919270833332,154.875L135.3815234375,123.89999999999999L136.353984375,115.05L136.63574869791665,154.875L136.98733072916667,150.45L137.95979166666666,115.05L138.31137369791668,150.45L138.66794270833333,150.45L139.14669270833335,146.025L139.43344401041668,154.875L140.40590494791667,115.05L140.91457682291667,141.6L141.201328125,154.875L141.48807942708333,154.875L141.95685546875,146.025L142.42563151041665,146.025L142.71238281249998,154.875L143.5501953125,132.75L144.01897135416667,146.025L144.30572265625,154.875L144.59247395833333,154.875L145.56493489583332,115.05L145.84669921875,154.875L146.13345052083332,154.875L146.65209635416667,146.025L147.48990885416666,132.75L147.95369791666667,146.025L148.79151041666668,132.75L149.07327473958333,154.875L149.53706380208334,146.025L149.82381510416667,154.875L150.28511067708334,146.025L150.57186197916667,154.875L151.40967447916665,132.75L151.69642578124999,154.875L152.33725260416668,106.2L153.30971354166667,115.05L153.74108723958332,146.025L154.7135481770833,115.05L155.18232421875,146.025L155.46907552083331,154.875L155.75083984375001,154.875L156.03759114583332,154.875L156.32434244791668,154.875L156.79561197916667,146.025L157.08236328125,154.875L158.05482421874999,115.05L158.7604817708333,137.175L159.03227213541666,154.875L159.49107421875,146.025L159.7728385416667,154.875L160.23662760416667,146.025L161.20908854166666,115.05L162.18154947916668,115.05L162.57801432291666,150.45L162.96450520833332,150.45L163.58039713541666,137.175L164.10402994791667,146.025L164.94184244791666,132.75L165.40064453125,146.025L166.37310546875,115.05L166.65985677083336,154.875L166.94660807291666,154.875L167.233359375,154.875L167.65974609375,146.025L167.94649739583335,154.875L168.23324869791665,154.875L168.52,154.875L169.4924609375,115.05L170.464921875,115.05L170.9885546875,146.025L171.27530598958333,154.875L171.56205729166666,154.875L171.90865234375,150.45L172.34002604166665,146.025L173.17783854166666,132.75L173.46458984375002,154.875L174.30240234374997,132.75L174.58915364583333,154.875L174.87590494791667,154.875L175.84836588541665,115.05L176.68617838541667,132.75L176.9729296875,154.875L177.44170572916667,146.025L177.72845703125,154.875L178.01520833333333,154.875L178.30195963541667,154.875L178.76824218750002,146.025L179.3567057291667,123.89999999999999L179.82548177083333,146.025L180.2942578125,146.025L180.75555338541668,146.025L181.15201822916669,150.45L181.685625,141.6L182.5234375,132.75L183.22909505208332,137.175L183.58067708333334,150.45L183.93225911458333,150.45L184.27885416666666,150.45L184.7476302083333,146.025L185.09921223958332,150.45L185.93702473958334,132.75L186.28361979166667,150.45L187.12143229166665,132.75L187.40818359375,154.875L188.38064453125,115.05L189.08630208333335,137.175L189.37305338541665,154.875L189.95154296875,141.6L190.31060546875,150.45L191.28306640625001,115.05L191.99869791666669,137.175L192.83651041666667,132.75L193.12326171875,154.875L193.79151692708334,137.175L194.50216145833335,137.175L194.78891276041665,154.875L195.62672526041666,132.75L196.45456380208333,128.325L197.29237630208334,132.75L197.92073567708334,137.175L198.76353515625,132.75L199.60134765625,132.75L200.24217447916666,106.2L200.52892578125,154.875L201.1522981770833,137.175L201.62606119791667,146.025L202.24943359375,137.175L203.09223307291668,132.75L203.52111328125,146.025L204.16194010416666,106.2L204.58333984375,146.025L205.49595703125001,128.325L206.33376953125003,132.75L207.17656901041664,132.75L207.81739583333334,106.2L208.10414713541664,154.875L208.94195963541665,132.75L209.29852864583333,150.45L209.95182291666666,137.175L210.23857421875002,154.875L210.67244140625002,146.025L210.95919270833332,154.875L211.31576171875,150.45L212.30567708333334,106.2L213.0113346354167,137.175L213.59979817708336,123.89999999999999L213.88654947916666,154.875L214.17330078125002,154.875L214.95376302083335,115.05L215.37765625,146.025L216.04092447916665,137.175L216.32268880208335,154.875L216.60944010416665,154.875L217.19790364583332,123.89999999999999L217.90106770833333,119.47500000000001L218.18283203125,154.875L218.58179036458333,150.45L218.86355468750003,154.875L219.15030598958333,154.875L219.43705729166666,154.875L219.90084635416667,146.025L220.18759765624998,154.875L220.47434895833334,154.875L221.18000651041666,137.175L221.46177083333333,154.875L221.930546875,146.025L222.57137369791664,106.2L223.04014973958334,146.025L223.50393880208333,146.025L224.20959635416665,137.175L224.55619140625,150.45L224.90777343750003,150.45L225.18953776041667,154.875L225.64833984375002,146.025L226.22682942708335,141.6L226.57841145833333,150.45L227.60822265625,115.05L227.9598046875,150.45L228.7976171875,132.75L229.38109375,141.6L229.65787109375,154.875L230.49568359375002,132.75L231.20134114583334,137.175L231.48310546875,154.875L232.32091796875,132.75L232.60268229166667,154.875L233.19114583333334,141.6L233.89680338541666,137.175L234.17856770833333,154.875L234.46033203125,154.875L234.737109375,154.875L235.20588541666666,146.025L235.48764973958333,154.875L236.19330729166666,137.175L236.48005859375002,154.875L237.1857161458333,137.175L237.89137369791666,137.175L238.35017578125002,146.025L238.92866536458334,141.6L239.20544270833332,154.875L239.66424479166668,146.025L240.123046875,146.025L240.70153645833332,141.6L241.16033854166668,146.025L241.619140625,146.025L242.07794270833335,146.025L242.53674479166668,146.025L242.995546875,146.025L243.62639973958332,141.6L244.09517578125002,146.025L244.55397786458332,146.025L245.01776692708333,146.025L245.4815559895833,146.025L245.7633203125,154.875L246.04009765625,154.875L246.50887369791667,146.025L246.7906380208333,154.875L247.06741536458335,154.875L247.35416666666666,154.875L247.81795572916667,146.025L248.09972005208334,154.875L248.38647135416664,154.875L248.66823567708335,154.875L248.95498697916665,154.875L249.4137890625,146.025L249.87259114583333,146.025L250.33139322916668,146.025L250.9098828125,141.6L251.19663411458333,154.875L251.90229166666666,137.175L252.18904296875002,154.875L252.8947005208333,137.175L253.60035807291666,137.175L253.88212239583333,154.875L254.16887369791667,154.875L254.44565104166668,154.875L255.15130859374997,137.175L255.61011067708333,146.025L255.8868880208333,154.875L256.59254557291666,137.175L257.298203125,137.175L257.57498046874997,154.875L258.1534700520833,141.6L258.4402213541667,154.875L259.01871093750003,141.6L259.4825,146.025L259.88644531250003,150.45L260.3452473958333,146.025L261.05090494791665,137.175L261.62939453125,141.6L262.0881966145833,146.025L262.66668619791665,141.6L263.12548828125,146.025L263.4770703125,150.45L263.9358723958333,146.025L264.39467447916667,146.025L265.03550130208333,106.2L265.50427734375,146.025L265.9630794270833,146.025L266.24983072916666,154.875L266.7086328125,146.025L267.16743489583337,146.025L267.52400390624996,150.45L268.1024934895833,141.6L268.68098307291666,141.6L269.13978515625,146.025L269.5985872395833,146.025L270.3042447916667,137.175L270.763046875,146.025L271.4163411458333,137.175L271.76792317708333,150.45L272.0496875,154.875L272.5084895833333,146.025L273.08697916666665,141.6L273.5507682291667,146.025L274.0095703125,146.025" style="fill: none;" fill="none"></path></g></g></g></g></g></g><g transform="translate(30, 177)" clip-path="url(#clip_1)"><clipPath id="clip_1"><rect width="299" height="23"></rect></clipPath><g><g><line x1="0" y1="0" x2="0" y2="5" style="visibility: inherit;" fill="rgb(0, 0, 0)" stroke="rgb(204, 204, 204)" stroke-width="1px"></line><line x1="24.934895833333332" y1="0" x2="24.934895833333332" y2="5" style="visibility: inherit;" fill="rgb(0, 0, 0)" stroke="rgb(204, 204, 204)" stroke-width="1px"></line><line x1="49.869791666666664" y1="0" x2="49.869791666666664" y2="5" style="visibility: inherit;" fill="rgb(0, 0, 0)" stroke="rgb(204, 204, 204)" stroke-width="1px"></line><line x1="74.8046875" y1="0" x2="74.8046875" y2="5" style="visibility: inherit;" fill="rgb(0, 0, 0)" stroke="rgb(204, 204, 204)" stroke-width="1px"></line><line x1="99.73958333333333" y1="0" x2="99.73958333333333" y2="5" style="visibility: inherit;" fill="rgb(0, 0, 0)" stroke="rgb(204, 204, 204)" stroke-width="1px"></line><line x1="124.67447916666667" y1="0" x2="124.67447916666667" y2="5" style="visibility: inherit;" fill="rgb(0, 0, 0)" stroke="rgb(204, 204, 204)" stroke-width="1px"></line><line x1="149.609375" y1="0" x2="149.609375" y2="5" style="visibility: inherit;" fill="rgb(0, 0, 0)" stroke="rgb(204, 204, 204)" stroke-width="1px"></line><line x1="174.54427083333334" y1="0" x2="174.54427083333334" y2="5" style="visibility: inherit;" fill="rgb(0, 0, 0)" stroke="rgb(204, 204, 204)" stroke-width="1px"></line><line x1="199.47916666666666" y1="0" x2="199.47916666666666" y2="5" style="visibility: inherit;" fill="rgb(0, 0, 0)" stroke="rgb(204, 204, 204)" stroke-width="1px"></line><line x1="224.4140625" y1="0" x2="224.4140625" y2="5" style="visibility: inherit;" fill="rgb(0, 0, 0)" stroke="rgb(204, 204, 204)" stroke-width="1px"></line><line x1="249.34895833333334" y1="0" x2="249.34895833333334" y2="5" style="visibility: inherit;" fill="rgb(0, 0, 0)" stroke="rgb(204, 204, 204)" stroke-width="1px"></line><line x1="274.28385416666663" y1="0" x2="274.28385416666663" y2="5" style="visibility: inherit;" fill="rgb(0, 0, 0)" stroke="rgb(204, 204, 204)" stroke-width="1px"></line><line x1="299.21875" y1="0" x2="299.21875" y2="5" style="visibility: inherit;" fill="rgb(0, 0, 0)" stroke="rgb(204, 204, 204)" stroke-width="1px"></line></g><g transform="translate(0, 8)"><text x="0" y="0" dx="0em" dy="0.95em" style="text-anchor: middle; visibility: hidden; font-family: Roboto, sans-serif; font-size: 12px; font-weight: 200;" fill="rgb(33, 33, 33)" stroke="none" stroke-width="1px">-10k</text><text x="24.934895833333332" y="0" dx="0em" dy="0.95em" style="text-anchor: middle; visibility: inherit; font-family: Roboto, sans-serif; font-size: 12px; font-weight: 200;" fill="rgb(33, 33, 33)" stroke="none" stroke-width="1px">0</text><text x="49.869791666666664" y="0" dx="0em" dy="0.95em" style="text-anchor: middle; visibility: hidden; font-family: Roboto, sans-serif; font-size: 12px; font-weight: 200;" fill="rgb(33, 33, 33)" stroke="none" stroke-width="1px">10k</text><text x="74.8046875" y="0" dx="0em" dy="0.95em" style="text-anchor: middle; visibility: inherit; font-family: Roboto, sans-serif; font-size: 12px; font-weight: 200;" fill="rgb(33, 33, 33)" stroke="none" stroke-width="1px">20k</text><text x="99.73958333333333" y="0" dx="0em" dy="0.95em" style="text-anchor: middle; visibility: hidden; font-family: Roboto, sans-serif; font-size: 12px; font-weight: 200;" fill="rgb(33, 33, 33)" stroke="none" stroke-width="1px">30k</text><text x="124.67447916666667" y="0" dx="0em" dy="0.95em" style="text-anchor: middle; visibility: inherit; font-family: Roboto, sans-serif; font-size: 12px; font-weight: 200;" fill="rgb(33, 33, 33)" stroke="none" stroke-width="1px">40k</text><text x="149.609375" y="0" dx="0em" dy="0.95em" style="text-anchor: middle; visibility: hidden; font-family: Roboto, sans-serif; font-size: 12px; font-weight: 200;" fill="rgb(33, 33, 33)" stroke="none" stroke-width="1px">50k</text><text x="174.54427083333334" y="0" dx="0em" dy="0.95em" style="text-anchor: middle; visibility: inherit; font-family: Roboto, sans-serif; font-size: 12px; font-weight: 200;" fill="rgb(33, 33, 33)" stroke="none" stroke-width="1px">60k</text><text x="199.47916666666666" y="0" dx="0em" dy="0.95em" style="text-anchor: middle; visibility: hidden; font-family: Roboto, sans-serif; font-size: 12px; font-weight: 200;" fill="rgb(33, 33, 33)" stroke="none" stroke-width="1px">70k</text><text x="224.4140625" y="0" dx="0em" dy="0.95em" style="text-anchor: middle; visibility: inherit; font-family: Roboto, sans-serif; font-size: 12px; font-weight: 200;" fill="rgb(33, 33, 33)" stroke="none" stroke-width="1px">80k</text><text x="249.34895833333334" y="0" dx="0em" dy="0.95em" style="text-anchor: middle; visibility: hidden; font-family: Roboto, sans-serif; font-size: 12px; font-weight: 200;" fill="rgb(33, 33, 33)" stroke="none" stroke-width="1px">90k</text><text x="274.28385416666663" y="0" dx="0em" dy="0.95em" style="text-anchor: middle; visibility: inherit; font-family: Roboto, sans-serif; font-size: 12px; font-weight: 200;" fill="rgb(33, 33, 33)" stroke="none" stroke-width="1px">100k</text><text x="299.21875" y="0" dx="0em" dy="0.95em" style="text-anchor: middle; visibility: hidden; font-family: Roboto, sans-serif; font-size: 12px; font-weight: 200;" fill="rgb(33, 33, 33)" stroke="none" stroke-width="1px">110k</text></g><line x1="0" y1="0" x2="299.21875" y2="0" fill="rgb(0, 0, 0)" stroke="rgb(204, 204, 204)" stroke-width="1px"></line></g></g></g></g></svg>