<?xml version="1.0" encoding="utf-8" standalone="no"?>
<!DOCTYPE svg PUBLIC "-//W3C//DTD SVG 1.1//EN"
  "http://www.w3.org/Graphics/SVG/1.1/DTD/svg11.dtd">
<svg xmlns:xlink="http://www.w3.org/1999/xlink" width="720pt" height="432pt" viewBox="0 0 720 432" xmlns="http://www.w3.org/2000/svg" version="1.1">
 <metadata>
  <rdf:RDF xmlns:dc="http://purl.org/dc/elements/1.1/" xmlns:cc="http://creativecommons.org/ns#" xmlns:rdf="http://www.w3.org/1999/02/22-rdf-syntax-ns#">
   <cc:Work>
    <dc:type rdf:resource="http://purl.org/dc/dcmitype/StillImage"/>
    <dc:date>2025-02-05T22:13:36.698782</dc:date>
    <dc:format>image/svg+xml</dc:format>
    <dc:creator>
     <cc:Agent>
      <dc:title>Matplotlib v3.10.0, https://matplotlib.org/</dc:title>
     </cc:Agent>
    </dc:creator>
   </cc:Work>
  </rdf:RDF>
 </metadata>
 <defs>
  <style type="text/css">*{stroke-linejoin: round; stroke-linecap: butt}</style>
 </defs>
 <g id="figure_1">
  <g id="patch_1">
   <path d="M 0 432 
L 720 432 
L 720 0 
L 0 0 
z
" style="fill: #ffffff"/>
  </g>
  <g id="axes_1">
   <g id="patch_2">
    <path d="M 46.64 390.04 
L 709.2 390.04 
L 709.2 25.44 
L 46.64 25.44 
z
" style="fill: #ffffff"/>
   </g>
   <g id="matplotlib.axis_1">
    <g id="xtick_1">
     <g id="line2d_1">
      <defs>
       <path id="m3555210701" d="M 0 0 
L 0 3.5 
" style="stroke: #000000; stroke-width: 0.8"/>
      </defs>
      <g>
       <use xlink:href="#m3555210701" x="66.025874" y="390.04" style="stroke: #000000; stroke-width: 0.8"/>
      </g>
     </g>
     <g id="text_1">
      <!-- 0 -->
      <g transform="translate(62.844624 404.638438) scale(0.1 -0.1)">
       <defs>
        <path id="DejaVuSans-30" d="M 2034 4250 
Q 1547 4250 1301 3770 
Q 1056 3291 1056 2328 
Q 1056 1369 1301 889 
Q 1547 409 2034 409 
Q 2525 409 2770 889 
Q 3016 1369 3016 2328 
Q 3016 3291 2770 3770 
Q 2525 4250 2034 4250 
z
M 2034 4750 
Q 2819 4750 3233 4129 
Q 3647 3509 3647 2328 
Q 3647 1150 3233 529 
Q 2819 -91 2034 -91 
Q 1250 -91 836 529 
Q 422 1150 422 2328 
Q 422 3509 836 4129 
Q 1250 4750 2034 4750 
z
" transform="scale(0.015625)"/>
       </defs>
       <use xlink:href="#DejaVuSans-30"/>
      </g>
     </g>
    </g>
    <g id="xtick_2">
     <g id="line2d_2">
      <g>
       <use xlink:href="#m3555210701" x="186.864721" y="390.04" style="stroke: #000000; stroke-width: 0.8"/>
      </g>
     </g>
     <g id="text_2">
      <!-- 20000 -->
      <g transform="translate(170.958471 404.638438) scale(0.1 -0.1)">
       <defs>
        <path id="DejaVuSans-32" d="M 1228 531 
L 3431 531 
L 3431 0 
L 469 0 
L 469 531 
Q 828 903 1448 1529 
Q 2069 2156 2228 2338 
Q 2531 2678 2651 2914 
Q 2772 3150 2772 3378 
Q 2772 3750 2511 3984 
Q 2250 4219 1831 4219 
Q 1534 4219 1204 4116 
Q 875 4013 500 3803 
L 500 4441 
Q 881 4594 1212 4672 
Q 1544 4750 1819 4750 
Q 2544 4750 2975 4387 
Q 3406 4025 3406 3419 
Q 3406 3131 3298 2873 
Q 3191 2616 2906 2266 
Q 2828 2175 2409 1742 
Q 1991 1309 1228 531 
z
" transform="scale(0.015625)"/>
       </defs>
       <use xlink:href="#DejaVuSans-32"/>
       <use xlink:href="#DejaVuSans-30" transform="translate(63.623047 0)"/>
       <use xlink:href="#DejaVuSans-30" transform="translate(127.246094 0)"/>
       <use xlink:href="#DejaVuSans-30" transform="translate(190.869141 0)"/>
       <use xlink:href="#DejaVuSans-30" transform="translate(254.492188 0)"/>
      </g>
     </g>
    </g>
    <g id="xtick_3">
     <g id="line2d_3">
      <g>
       <use xlink:href="#m3555210701" x="307.703567" y="390.04" style="stroke: #000000; stroke-width: 0.8"/>
      </g>
     </g>
     <g id="text_3">
      <!-- 40000 -->
      <g transform="translate(291.797317 404.638438) scale(0.1 -0.1)">
       <defs>
        <path id="DejaVuSans-34" d="M 2419 4116 
L 825 1625 
L 2419 1625 
L 2419 4116 
z
M 2253 4666 
L 3047 4666 
L 3047 1625 
L 3713 1625 
L 3713 1100 
L 3047 1100 
L 3047 0 
L 2419 0 
L 2419 1100 
L 313 1100 
L 313 1709 
L 2253 4666 
z
" transform="scale(0.015625)"/>
       </defs>
       <use xlink:href="#DejaVuSans-34"/>
       <use xlink:href="#DejaVuSans-30" transform="translate(63.623047 0)"/>
       <use xlink:href="#DejaVuSans-30" transform="translate(127.246094 0)"/>
       <use xlink:href="#DejaVuSans-30" transform="translate(190.869141 0)"/>
       <use xlink:href="#DejaVuSans-30" transform="translate(254.492188 0)"/>
      </g>
     </g>
    </g>
    <g id="xtick_4">
     <g id="line2d_4">
      <g>
       <use xlink:href="#m3555210701" x="428.542414" y="390.04" style="stroke: #000000; stroke-width: 0.8"/>
      </g>
     </g>
     <g id="text_4">
      <!-- 60000 -->
      <g transform="translate(412.636164 404.638438) scale(0.1 -0.1)">
       <defs>
        <path id="DejaVuSans-36" d="M 2113 2584 
Q 1688 2584 1439 2293 
Q 1191 2003 1191 1497 
Q 1191 994 1439 701 
Q 1688 409 2113 409 
Q 2538 409 2786 701 
Q 3034 994 3034 1497 
Q 3034 2003 2786 2293 
Q 2538 2584 2113 2584 
z
M 3366 4563 
L 3366 3988 
Q 3128 4100 2886 4159 
Q 2644 4219 2406 4219 
Q 1781 4219 1451 3797 
Q 1122 3375 1075 2522 
Q 1259 2794 1537 2939 
Q 1816 3084 2150 3084 
Q 2853 3084 3261 2657 
Q 3669 2231 3669 1497 
Q 3669 778 3244 343 
Q 2819 -91 2113 -91 
Q 1303 -91 875 529 
Q 447 1150 447 2328 
Q 447 3434 972 4092 
Q 1497 4750 2381 4750 
Q 2619 4750 2861 4703 
Q 3103 4656 3366 4563 
z
" transform="scale(0.015625)"/>
       </defs>
       <use xlink:href="#DejaVuSans-36"/>
       <use xlink:href="#DejaVuSans-30" transform="translate(63.623047 0)"/>
       <use xlink:href="#DejaVuSans-30" transform="translate(127.246094 0)"/>
       <use xlink:href="#DejaVuSans-30" transform="translate(190.869141 0)"/>
       <use xlink:href="#DejaVuSans-30" transform="translate(254.492188 0)"/>
      </g>
     </g>
    </g>
    <g id="xtick_5">
     <g id="line2d_5">
      <g>
       <use xlink:href="#m3555210701" x="549.38126" y="390.04" style="stroke: #000000; stroke-width: 0.8"/>
      </g>
     </g>
     <g id="text_5">
      <!-- 80000 -->
      <g transform="translate(533.47501 404.638438) scale(0.1 -0.1)">
       <defs>
        <path id="DejaVuSans-38" d="M 2034 2216 
Q 1584 2216 1326 1975 
Q 1069 1734 1069 1313 
Q 1069 891 1326 650 
Q 1584 409 2034 409 
Q 2484 409 2743 651 
Q 3003 894 3003 1313 
Q 3003 1734 2745 1975 
Q 2488 2216 2034 2216 
z
M 1403 2484 
Q 997 2584 770 2862 
Q 544 3141 544 3541 
Q 544 4100 942 4425 
Q 1341 4750 2034 4750 
Q 2731 4750 3128 4425 
Q 3525 4100 3525 3541 
Q 3525 3141 3298 2862 
Q 3072 2584 2669 2484 
Q 3125 2378 3379 2068 
Q 3634 1759 3634 1313 
Q 3634 634 3220 271 
Q 2806 -91 2034 -91 
Q 1263 -91 848 271 
Q 434 634 434 1313 
Q 434 1759 690 2068 
Q 947 2378 1403 2484 
z
M 1172 3481 
Q 1172 3119 1398 2916 
Q 1625 2713 2034 2713 
Q 2441 2713 2670 2916 
Q 2900 3119 2900 3481 
Q 2900 3844 2670 4047 
Q 2441 4250 2034 4250 
Q 1625 4250 1398 4047 
Q 1172 3844 1172 3481 
z
" transform="scale(0.015625)"/>
       </defs>
       <use xlink:href="#DejaVuSans-38"/>
       <use xlink:href="#DejaVuSans-30" transform="translate(63.623047 0)"/>
       <use xlink:href="#DejaVuSans-30" transform="translate(127.246094 0)"/>
       <use xlink:href="#DejaVuSans-30" transform="translate(190.869141 0)"/>
       <use xlink:href="#DejaVuSans-30" transform="translate(254.492188 0)"/>
      </g>
     </g>
    </g>
    <g id="xtick_6">
     <g id="line2d_6">
      <g>
       <use xlink:href="#m3555210701" x="670.220107" y="390.04" style="stroke: #000000; stroke-width: 0.8"/>
      </g>
     </g>
     <g id="text_6">
      <!-- 100000 -->
      <g transform="translate(651.132607 404.638438) scale(0.1 -0.1)">
       <defs>
        <path id="DejaVuSans-31" d="M 794 531 
L 1825 531 
L 1825 4091 
L 703 3866 
L 703 4441 
L 1819 4666 
L 2450 4666 
L 2450 531 
L 3481 531 
L 3481 0 
L 794 0 
L 794 531 
z
" transform="scale(0.015625)"/>
       </defs>
       <use xlink:href="#DejaVuSans-31"/>
       <use xlink:href="#DejaVuSans-30" transform="translate(63.623047 0)"/>
       <use xlink:href="#DejaVuSans-30" transform="translate(127.246094 0)"/>
       <use xlink:href="#DejaVuSans-30" transform="translate(190.869141 0)"/>
       <use xlink:href="#DejaVuSans-30" transform="translate(254.492188 0)"/>
       <use xlink:href="#DejaVuSans-30" transform="translate(318.115234 0)"/>
      </g>
     </g>
    </g>
    <g id="text_7">
     <!-- Step -->
     <g transform="translate(366.534844 418.316562) scale(0.1 -0.1)">
      <defs>
       <path id="DejaVuSans-53" d="M 3425 4513 
L 3425 3897 
Q 3066 4069 2747 4153 
Q 2428 4238 2131 4238 
Q 1616 4238 1336 4038 
Q 1056 3838 1056 3469 
Q 1056 3159 1242 3001 
Q 1428 2844 1947 2747 
L 2328 2669 
Q 3034 2534 3370 2195 
Q 3706 1856 3706 1288 
Q 3706 609 3251 259 
Q 2797 -91 1919 -91 
Q 1588 -91 1214 -16 
Q 841 59 441 206 
L 441 856 
Q 825 641 1194 531 
Q 1563 422 1919 422 
Q 2459 422 2753 634 
Q 3047 847 3047 1241 
Q 3047 1584 2836 1778 
Q 2625 1972 2144 2069 
L 1759 2144 
Q 1053 2284 737 2584 
Q 422 2884 422 3419 
Q 422 4038 858 4394 
Q 1294 4750 2059 4750 
Q 2388 4750 2728 4690 
Q 3069 4631 3425 4513 
z
" transform="scale(0.015625)"/>
       <path id="DejaVuSans-74" d="M 1172 4494 
L 1172 3500 
L 2356 3500 
L 2356 3053 
L 1172 3053 
L 1172 1153 
Q 1172 725 1289 603 
Q 1406 481 1766 481 
L 2356 481 
L 2356 0 
L 1766 0 
Q 1100 0 847 248 
Q 594 497 594 1153 
L 594 3053 
L 172 3053 
L 172 3500 
L 594 3500 
L 594 4494 
L 1172 4494 
z
" transform="scale(0.015625)"/>
       <path id="DejaVuSans-65" d="M 3597 1894 
L 3597 1613 
L 953 1613 
Q 991 1019 1311 708 
Q 1631 397 2203 397 
Q 2534 397 2845 478 
Q 3156 559 3463 722 
L 3463 178 
Q 3153 47 2828 -22 
Q 2503 -91 2169 -91 
Q 1331 -91 842 396 
Q 353 884 353 1716 
Q 353 2575 817 3079 
Q 1281 3584 2069 3584 
Q 2775 3584 3186 3129 
Q 3597 2675 3597 1894 
z
M 3022 2063 
Q 3016 2534 2758 2815 
Q 2500 3097 2075 3097 
Q 1594 3097 1305 2825 
Q 1016 2553 972 2059 
L 3022 2063 
z
" transform="scale(0.015625)"/>
       <path id="DejaVuSans-70" d="M 1159 525 
L 1159 -1331 
L 581 -1331 
L 581 3500 
L 1159 3500 
L 1159 2969 
Q 1341 3281 1617 3432 
Q 1894 3584 2278 3584 
Q 2916 3584 3314 3078 
Q 3713 2572 3713 1747 
Q 3713 922 3314 415 
Q 2916 -91 2278 -91 
Q 1894 -91 1617 61 
Q 1341 213 1159 525 
z
M 3116 1747 
Q 3116 2381 2855 2742 
Q 2594 3103 2138 3103 
Q 1681 3103 1420 2742 
Q 1159 2381 1159 1747 
Q 1159 1113 1420 752 
Q 1681 391 2138 391 
Q 2594 391 2855 752 
Q 3116 1113 3116 1747 
z
" transform="scale(0.015625)"/>
      </defs>
      <use xlink:href="#DejaVuSans-53"/>
      <use xlink:href="#DejaVuSans-74" transform="translate(63.476562 0)"/>
      <use xlink:href="#DejaVuSans-65" transform="translate(102.685547 0)"/>
      <use xlink:href="#DejaVuSans-70" transform="translate(164.208984 0)"/>
     </g>
    </g>
   </g>
   <g id="matplotlib.axis_2">
    <g id="ytick_1">
     <g id="line2d_7">
      <defs>
       <path id="m156666bb11" d="M 0 0 
L -3.5 0 
" style="stroke: #000000; stroke-width: 0.8"/>
      </defs>
      <g>
       <use xlink:href="#m156666bb11" x="46.64" y="340.994852" style="stroke: #000000; stroke-width: 0.8"/>
      </g>
     </g>
     <g id="text_8">
      <!-- −8 -->
      <g transform="translate(24.897813 344.794071) scale(0.1 -0.1)">
       <defs>
        <path id="DejaVuSans-2212" d="M 678 2272 
L 4684 2272 
L 4684 1741 
L 678 1741 
L 678 2272 
z
" transform="scale(0.015625)"/>
       </defs>
       <use xlink:href="#DejaVuSans-2212"/>
       <use xlink:href="#DejaVuSans-38" transform="translate(83.789062 0)"/>
      </g>
     </g>
    </g>
    <g id="ytick_2">
     <g id="line2d_8">
      <g>
       <use xlink:href="#m156666bb11" x="46.64" y="282.962851" style="stroke: #000000; stroke-width: 0.8"/>
      </g>
     </g>
     <g id="text_9">
      <!-- −6 -->
      <g transform="translate(24.897813 286.76207) scale(0.1 -0.1)">
       <use xlink:href="#DejaVuSans-2212"/>
       <use xlink:href="#DejaVuSans-36" transform="translate(83.789062 0)"/>
      </g>
     </g>
    </g>
    <g id="ytick_3">
     <g id="line2d_9">
      <g>
       <use xlink:href="#m156666bb11" x="46.64" y="224.93085" style="stroke: #000000; stroke-width: 0.8"/>
      </g>
     </g>
     <g id="text_10">
      <!-- −4 -->
      <g transform="translate(24.897813 228.730069) scale(0.1 -0.1)">
       <use xlink:href="#DejaVuSans-2212"/>
       <use xlink:href="#DejaVuSans-34" transform="translate(83.789062 0)"/>
      </g>
     </g>
    </g>
    <g id="ytick_4">
     <g id="line2d_10">
      <g>
       <use xlink:href="#m156666bb11" x="46.64" y="166.898849" style="stroke: #000000; stroke-width: 0.8"/>
      </g>
     </g>
     <g id="text_11">
      <!-- −2 -->
      <g transform="translate(24.897813 170.698068) scale(0.1 -0.1)">
       <use xlink:href="#DejaVuSans-2212"/>
       <use xlink:href="#DejaVuSans-32" transform="translate(83.789062 0)"/>
      </g>
     </g>
    </g>
    <g id="ytick_5">
     <g id="line2d_11">
      <g>
       <use xlink:href="#m156666bb11" x="46.64" y="108.866849" style="stroke: #000000; stroke-width: 0.8"/>
      </g>
     </g>
     <g id="text_12">
      <!-- 0 -->
      <g transform="translate(33.2775 112.666067) scale(0.1 -0.1)">
       <use xlink:href="#DejaVuSans-30"/>
      </g>
     </g>
    </g>
    <g id="ytick_6">
     <g id="line2d_12">
      <g>
       <use xlink:href="#m156666bb11" x="46.64" y="50.834848" style="stroke: #000000; stroke-width: 0.8"/>
      </g>
     </g>
     <g id="text_13">
      <!-- 2 -->
      <g transform="translate(33.2775 54.634066) scale(0.1 -0.1)">
       <use xlink:href="#DejaVuSans-32"/>
      </g>
     </g>
    </g>
    <g id="text_14">
     <!-- Normalized (human) Episodic Return -->
     <g transform="translate(18.818125 299.495469) rotate(-90) scale(0.1 -0.1)">
      <defs>
       <path id="DejaVuSans-4e" d="M 628 4666 
L 1478 4666 
L 3547 763 
L 3547 4666 
L 4159 4666 
L 4159 0 
L 3309 0 
L 1241 3903 
L 1241 0 
L 628 0 
L 628 4666 
z
" transform="scale(0.015625)"/>
       <path id="DejaVuSans-6f" d="M 1959 3097 
Q 1497 3097 1228 2736 
Q 959 2375 959 1747 
Q 959 1119 1226 758 
Q 1494 397 1959 397 
Q 2419 397 2687 759 
Q 2956 1122 2956 1747 
Q 2956 2369 2687 2733 
Q 2419 3097 1959 3097 
z
M 1959 3584 
Q 2709 3584 3137 3096 
Q 3566 2609 3566 1747 
Q 3566 888 3137 398 
Q 2709 -91 1959 -91 
Q 1206 -91 779 398 
Q 353 888 353 1747 
Q 353 2609 779 3096 
Q 1206 3584 1959 3584 
z
" transform="scale(0.015625)"/>
       <path id="DejaVuSans-72" d="M 2631 2963 
Q 2534 3019 2420 3045 
Q 2306 3072 2169 3072 
Q 1681 3072 1420 2755 
Q 1159 2438 1159 1844 
L 1159 0 
L 581 0 
L 581 3500 
L 1159 3500 
L 1159 2956 
Q 1341 3275 1631 3429 
Q 1922 3584 2338 3584 
Q 2397 3584 2469 3576 
Q 2541 3569 2628 3553 
L 2631 2963 
z
" transform="scale(0.015625)"/>
       <path id="DejaVuSans-6d" d="M 3328 2828 
Q 3544 3216 3844 3400 
Q 4144 3584 4550 3584 
Q 5097 3584 5394 3201 
Q 5691 2819 5691 2113 
L 5691 0 
L 5113 0 
L 5113 2094 
Q 5113 2597 4934 2840 
Q 4756 3084 4391 3084 
Q 3944 3084 3684 2787 
Q 3425 2491 3425 1978 
L 3425 0 
L 2847 0 
L 2847 2094 
Q 2847 2600 2669 2842 
Q 2491 3084 2119 3084 
Q 1678 3084 1418 2786 
Q 1159 2488 1159 1978 
L 1159 0 
L 581 0 
L 581 3500 
L 1159 3500 
L 1159 2956 
Q 1356 3278 1631 3431 
Q 1906 3584 2284 3584 
Q 2666 3584 2933 3390 
Q 3200 3197 3328 2828 
z
" transform="scale(0.015625)"/>
       <path id="DejaVuSans-61" d="M 2194 1759 
Q 1497 1759 1228 1600 
Q 959 1441 959 1056 
Q 959 750 1161 570 
Q 1363 391 1709 391 
Q 2188 391 2477 730 
Q 2766 1069 2766 1631 
L 2766 1759 
L 2194 1759 
z
M 3341 1997 
L 3341 0 
L 2766 0 
L 2766 531 
Q 2569 213 2275 61 
Q 1981 -91 1556 -91 
Q 1019 -91 701 211 
Q 384 513 384 1019 
Q 384 1609 779 1909 
Q 1175 2209 1959 2209 
L 2766 2209 
L 2766 2266 
Q 2766 2663 2505 2880 
Q 2244 3097 1772 3097 
Q 1472 3097 1187 3025 
Q 903 2953 641 2809 
L 641 3341 
Q 956 3463 1253 3523 
Q 1550 3584 1831 3584 
Q 2591 3584 2966 3190 
Q 3341 2797 3341 1997 
z
" transform="scale(0.015625)"/>
       <path id="DejaVuSans-6c" d="M 603 4863 
L 1178 4863 
L 1178 0 
L 603 0 
L 603 4863 
z
" transform="scale(0.015625)"/>
       <path id="DejaVuSans-69" d="M 603 3500 
L 1178 3500 
L 1178 0 
L 603 0 
L 603 3500 
z
M 603 4863 
L 1178 4863 
L 1178 4134 
L 603 4134 
L 603 4863 
z
" transform="scale(0.015625)"/>
       <path id="DejaVuSans-7a" d="M 353 3500 
L 3084 3500 
L 3084 2975 
L 922 459 
L 3084 459 
L 3084 0 
L 275 0 
L 275 525 
L 2438 3041 
L 353 3041 
L 353 3500 
z
" transform="scale(0.015625)"/>
       <path id="DejaVuSans-64" d="M 2906 2969 
L 2906 4863 
L 3481 4863 
L 3481 0 
L 2906 0 
L 2906 525 
Q 2725 213 2448 61 
Q 2172 -91 1784 -91 
Q 1150 -91 751 415 
Q 353 922 353 1747 
Q 353 2572 751 3078 
Q 1150 3584 1784 3584 
Q 2172 3584 2448 3432 
Q 2725 3281 2906 2969 
z
M 947 1747 
Q 947 1113 1208 752 
Q 1469 391 1925 391 
Q 2381 391 2643 752 
Q 2906 1113 2906 1747 
Q 2906 2381 2643 2742 
Q 2381 3103 1925 3103 
Q 1469 3103 1208 2742 
Q 947 2381 947 1747 
z
" transform="scale(0.015625)"/>
       <path id="DejaVuSans-20" transform="scale(0.015625)"/>
       <path id="DejaVuSans-28" d="M 1984 4856 
Q 1566 4138 1362 3434 
Q 1159 2731 1159 2009 
Q 1159 1288 1364 580 
Q 1569 -128 1984 -844 
L 1484 -844 
Q 1016 -109 783 600 
Q 550 1309 550 2009 
Q 550 2706 781 3412 
Q 1013 4119 1484 4856 
L 1984 4856 
z
" transform="scale(0.015625)"/>
       <path id="DejaVuSans-68" d="M 3513 2113 
L 3513 0 
L 2938 0 
L 2938 2094 
Q 2938 2591 2744 2837 
Q 2550 3084 2163 3084 
Q 1697 3084 1428 2787 
Q 1159 2491 1159 1978 
L 1159 0 
L 581 0 
L 581 4863 
L 1159 4863 
L 1159 2956 
Q 1366 3272 1645 3428 
Q 1925 3584 2291 3584 
Q 2894 3584 3203 3211 
Q 3513 2838 3513 2113 
z
" transform="scale(0.015625)"/>
       <path id="DejaVuSans-75" d="M 544 1381 
L 544 3500 
L 1119 3500 
L 1119 1403 
Q 1119 906 1312 657 
Q 1506 409 1894 409 
Q 2359 409 2629 706 
Q 2900 1003 2900 1516 
L 2900 3500 
L 3475 3500 
L 3475 0 
L 2900 0 
L 2900 538 
Q 2691 219 2414 64 
Q 2138 -91 1772 -91 
Q 1169 -91 856 284 
Q 544 659 544 1381 
z
M 1991 3584 
L 1991 3584 
z
" transform="scale(0.015625)"/>
       <path id="DejaVuSans-6e" d="M 3513 2113 
L 3513 0 
L 2938 0 
L 2938 2094 
Q 2938 2591 2744 2837 
Q 2550 3084 2163 3084 
Q 1697 3084 1428 2787 
Q 1159 2491 1159 1978 
L 1159 0 
L 581 0 
L 581 3500 
L 1159 3500 
L 1159 2956 
Q 1366 3272 1645 3428 
Q 1925 3584 2291 3584 
Q 2894 3584 3203 3211 
Q 3513 2838 3513 2113 
z
" transform="scale(0.015625)"/>
       <path id="DejaVuSans-29" d="M 513 4856 
L 1013 4856 
Q 1481 4119 1714 3412 
Q 1947 2706 1947 2009 
Q 1947 1309 1714 600 
Q 1481 -109 1013 -844 
L 513 -844 
Q 928 -128 1133 580 
Q 1338 1288 1338 2009 
Q 1338 2731 1133 3434 
Q 928 4138 513 4856 
z
" transform="scale(0.015625)"/>
       <path id="DejaVuSans-45" d="M 628 4666 
L 3578 4666 
L 3578 4134 
L 1259 4134 
L 1259 2753 
L 3481 2753 
L 3481 2222 
L 1259 2222 
L 1259 531 
L 3634 531 
L 3634 0 
L 628 0 
L 628 4666 
z
" transform="scale(0.015625)"/>
       <path id="DejaVuSans-73" d="M 2834 3397 
L 2834 2853 
Q 2591 2978 2328 3040 
Q 2066 3103 1784 3103 
Q 1356 3103 1142 2972 
Q 928 2841 928 2578 
Q 928 2378 1081 2264 
Q 1234 2150 1697 2047 
L 1894 2003 
Q 2506 1872 2764 1633 
Q 3022 1394 3022 966 
Q 3022 478 2636 193 
Q 2250 -91 1575 -91 
Q 1294 -91 989 -36 
Q 684 19 347 128 
L 347 722 
Q 666 556 975 473 
Q 1284 391 1588 391 
Q 1994 391 2212 530 
Q 2431 669 2431 922 
Q 2431 1156 2273 1281 
Q 2116 1406 1581 1522 
L 1381 1569 
Q 847 1681 609 1914 
Q 372 2147 372 2553 
Q 372 3047 722 3315 
Q 1072 3584 1716 3584 
Q 2034 3584 2315 3537 
Q 2597 3491 2834 3397 
z
" transform="scale(0.015625)"/>
       <path id="DejaVuSans-63" d="M 3122 3366 
L 3122 2828 
Q 2878 2963 2633 3030 
Q 2388 3097 2138 3097 
Q 1578 3097 1268 2742 
Q 959 2388 959 1747 
Q 959 1106 1268 751 
Q 1578 397 2138 397 
Q 2388 397 2633 464 
Q 2878 531 3122 666 
L 3122 134 
Q 2881 22 2623 -34 
Q 2366 -91 2075 -91 
Q 1284 -91 818 406 
Q 353 903 353 1747 
Q 353 2603 823 3093 
Q 1294 3584 2113 3584 
Q 2378 3584 2631 3529 
Q 2884 3475 3122 3366 
z
" transform="scale(0.015625)"/>
       <path id="DejaVuSans-52" d="M 2841 2188 
Q 3044 2119 3236 1894 
Q 3428 1669 3622 1275 
L 4263 0 
L 3584 0 
L 2988 1197 
Q 2756 1666 2539 1819 
Q 2322 1972 1947 1972 
L 1259 1972 
L 1259 0 
L 628 0 
L 628 4666 
L 2053 4666 
Q 2853 4666 3247 4331 
Q 3641 3997 3641 3322 
Q 3641 2881 3436 2590 
Q 3231 2300 2841 2188 
z
M 1259 4147 
L 1259 2491 
L 2053 2491 
Q 2509 2491 2742 2702 
Q 2975 2913 2975 3322 
Q 2975 3731 2742 3939 
Q 2509 4147 2053 4147 
L 1259 4147 
z
" transform="scale(0.015625)"/>
      </defs>
      <use xlink:href="#DejaVuSans-4e"/>
      <use xlink:href="#DejaVuSans-6f" transform="translate(74.804688 0)"/>
      <use xlink:href="#DejaVuSans-72" transform="translate(135.986328 0)"/>
      <use xlink:href="#DejaVuSans-6d" transform="translate(175.349609 0)"/>
      <use xlink:href="#DejaVuSans-61" transform="translate(272.761719 0)"/>
      <use xlink:href="#DejaVuSans-6c" transform="translate(334.041016 0)"/>
      <use xlink:href="#DejaVuSans-69" transform="translate(361.824219 0)"/>
      <use xlink:href="#DejaVuSans-7a" transform="translate(389.607422 0)"/>
      <use xlink:href="#DejaVuSans-65" transform="translate(442.097656 0)"/>
      <use xlink:href="#DejaVuSans-64" transform="translate(503.621094 0)"/>
      <use xlink:href="#DejaVuSans-20" transform="translate(567.097656 0)"/>
      <use xlink:href="#DejaVuSans-28" transform="translate(598.884766 0)"/>
      <use xlink:href="#DejaVuSans-68" transform="translate(637.898438 0)"/>
      <use xlink:href="#DejaVuSans-75" transform="translate(701.277344 0)"/>
      <use xlink:href="#DejaVuSans-6d" transform="translate(764.65625 0)"/>
      <use xlink:href="#DejaVuSans-61" transform="translate(862.068359 0)"/>
      <use xlink:href="#DejaVuSans-6e" transform="translate(923.347656 0)"/>
      <use xlink:href="#DejaVuSans-29" transform="translate(986.726562 0)"/>
      <use xlink:href="#DejaVuSans-20" transform="translate(1025.740234 0)"/>
      <use xlink:href="#DejaVuSans-45" transform="translate(1057.527344 0)"/>
      <use xlink:href="#DejaVuSans-70" transform="translate(1120.710938 0)"/>
      <use xlink:href="#DejaVuSans-69" transform="translate(1184.1875 0)"/>
      <use xlink:href="#DejaVuSans-73" transform="translate(1211.970703 0)"/>
      <use xlink:href="#DejaVuSans-6f" transform="translate(1264.070312 0)"/>
      <use xlink:href="#DejaVuSans-64" transform="translate(1325.251953 0)"/>
      <use xlink:href="#DejaVuSans-69" transform="translate(1388.728516 0)"/>
      <use xlink:href="#DejaVuSans-63" transform="translate(1416.511719 0)"/>
      <use xlink:href="#DejaVuSans-20" transform="translate(1471.492188 0)"/>
      <use xlink:href="#DejaVuSans-52" transform="translate(1503.279297 0)"/>
      <use xlink:href="#DejaVuSans-65" transform="translate(1568.261719 0)"/>
      <use xlink:href="#DejaVuSans-74" transform="translate(1629.785156 0)"/>
      <use xlink:href="#DejaVuSans-75" transform="translate(1668.994141 0)"/>
      <use xlink:href="#DejaVuSans-72" transform="translate(1732.373047 0)"/>
      <use xlink:href="#DejaVuSans-6e" transform="translate(1771.736328 0)"/>
     </g>
    </g>
   </g>
   <g id="line2d_13">
    <path d="M 76.756364 92.286277 
L 80.901475 95.594212 
L 87.415221 100.827545 
L 88.00738 102.860576 
L 98.074078 144.872823 
L 98.666237 146.753738 
L 108.732935 170.976425 
L 109.325094 173.869532 
L 119.983951 249.577039 
L 130.642808 356.348804 
L 141.301665 322.202714 
L 143.078142 328.610297 
L 151.960523 361.431869 
L 152.552681 361.228615 
L 162.61938 353.148941 
L 163.803697 351.553043 
L 173.278237 337.840983 
L 173.870396 337.827334 
L 183.937094 349.229482 
L 184.529253 348.348832 
L 195.18811 268.508906 
L 205.846967 299.407738 
L 211.768555 296.570089 
L 216.505824 294.247332 
L 217.097983 294.220527 
L 227.164682 295.829868 
L 227.75684 294.692849 
L 237.823539 257.536017 
L 238.415698 258.196528 
L 248.482396 309.962489 
L 249.074555 311.617196 
L 259.141253 310.027781 
L 259.733412 310.108325 
L 269.80011 332.723388 
L 270.392269 333.625117 
L 281.051126 260.060729 
L 282.235444 266.832845 
L 291.709983 324.624974 
L 292.302142 326.075998 
L 302.368841 340.572361 
L 302.960999 338.480771 
L 313.027698 267.416669 
L 313.619857 266.674136 
L 323.686555 328.069159 
L 324.278714 330.575594 
L 334.345412 311.064763 
L 334.937571 310.337668 
L 345.596428 373.467273 
L 347.372904 354.483725 
L 356.255285 257.608921 
L 356.847444 259.739527 
L 366.914142 330.878937 
L 367.506301 331.421127 
L 378.165158 312.585077 
L 388.231857 280.191838 
L 388.824015 280.462807 
L 398.890714 359.671081 
L 399.482873 363.286582 
L 410.14173 352.975059 
L 417.839793 327.028898 
L 420.800587 317.037487 
L 421.392746 318.768306 
L 431.459444 357.575423 
L 432.051603 354.997999 
L 442.118301 262.884583 
L 442.71046 262.464321 
L 452.777159 364.343239 
L 453.369317 367.518894 
L 464.028174 301.46546 
L 474.687032 335.965733 
L 475.871349 340.202372 
L 485.345889 372.180847 
L 487.714524 366.381406 
L 496.004746 346.410174 
L 496.596905 346.318001 
L 506.663603 349.564035 
L 507.255762 348.590233 
L 520.283254 306.357686 
L 527.981318 280.375152 
L 528.573476 279.658334 
L 539.232333 349.303599 
L 549.891191 287.639869 
L 551.667667 301.228746 
L 560.550048 371.120051 
L 561.142207 371.756012 
L 572.393222 362.607731 
L 581.867762 353.458746 
L 588.973667 341.977397 
L 592.526619 336.246181 
L 593.118778 334.916475 
L 603.185477 265.346283 
L 603.777635 262.038299 
L 610.291381 300.631173 
L 614.436492 325.122097 
L 615.62081 328.896936 
L 625.09535 356.327792 
L 625.687508 357.022342 
L 635.754207 361.874151 
L 636.346366 360.084258 
L 647.005223 315.19547 
L 657.071921 263.484989 
L 657.66408 262.815257 
L 668.322937 328.904852 
L 668.322937 328.904852 
" clip-path="url(#pe864ba8353)" style="fill: none; stroke: #ff00ff; stroke-width: 1.5; stroke-linecap: square"/>
   </g>
   <g id="line2d_14">
    <path d="M 76.756364 88.831991 
L 79.716764 96.839484 
L 87.413806 117.830383 
L 88.005886 117.122212 
L 98.071248 94.48557 
L 98.663328 93.993028 
L 108.728689 92.319336 
L 109.32077 94.739875 
L 119.386131 185.369167 
L 119.978212 188.609163 
L 130.043573 161.155015 
L 130.635653 160.053464 
L 141.885176 212.097332 
L 151.950537 250.97021 
L 152.542617 247.944403 
L 162.607979 183.291992 
L 163.200059 183.098462 
L 173.265421 213.842774 
L 173.857501 213.938837 
L 183.922863 178.427925 
L 184.514943 177.018888 
L 194.580305 199.461958 
L 195.172385 201.258837 
L 205.829827 182.153309 
L 207.013987 187.329033 
L 216.487269 231.492979 
L 217.079349 229.097582 
L 227.736791 162.631984 
L 237.802153 110.964693 
L 238.394233 110.341587 
L 248.459595 136.232094 
L 249.051675 137.164172 
L 259.117037 127.462811 
L 261.485357 123.342703 
L 269.774479 108.703303 
L 270.366559 108.06143 
L 281.024001 155.957394 
L 281.616081 156.009988 
L 291.681443 152.783477 
L 292.865603 151.015722 
L 302.338885 135.851801 
L 302.930965 133.201965 
L 312.996327 65.381994 
L 313.588407 63.762698 
L 324.245849 106.316202 
L 334.903291 123.31965 
L 345.560733 114.808141 
L 346.744893 118.792209 
L 356.218175 152.239954 
L 356.810255 150.285166 
L 366.875617 95.313296 
L 367.467697 95.094315 
L 377.533059 122.621209 
L 378.125139 123.192839 
L 388.190501 116.730638 
L 388.782581 116.565307 
L 398.847943 123.071061 
L 399.440023 123.28481 
L 410.097465 73.685015 
L 410.689545 75.907495 
L 420.754907 129.213898 
L 421.346987 127.399991 
L 431.412349 57.968094 
L 432.004429 56.849788 
L 442.06979 90.77071 
L 443.253951 95.487484 
L 453.319313 133.110606 
L 463.384674 199.50394 
L 463.976754 202.089423 
L 474.634196 94.249044 
L 475.226277 94.226098 
L 485.291638 99.042745 
L 485.883718 100.899675 
L 495.94908 141.328171 
L 496.54116 140.970226 
L 506.606522 100.592653 
L 507.198602 99.481688 
L 517.856044 109.781089 
L 527.921406 124.31821 
L 528.513486 124.53699 
L 539.170928 68.184765 
L 541.539249 83.208884 
L 549.82837 136.493929 
L 550.42045 135.892825 
L 560.485812 105.263801 
L 561.077892 103.927096 
L 571.143254 92.625594 
L 571.735334 93.718449 
L 581.800696 142.16193 
L 582.392776 143.571545 
L 592.458138 127.369761 
L 593.050218 127.171947 
L 596.602699 120.329223 
L 603.11558 107.699146 
L 604.29974 104.800279 
L 614.365102 90.235934 
L 614.957182 90.24143 
L 625.022544 87.002173 
L 625.614624 87.775093 
L 635.679986 86.153173 
L 636.272066 86.408389 
L 646.337428 138.072948 
L 646.929508 139.297553 
L 656.40279 42.149051 
L 656.99487 42.012727 
L 657.58695 44.129999 
L 667.060232 136.948394 
L 667.652312 141.050434 
L 668.244392 144.100563 
L 668.244392 144.100563 
" clip-path="url(#pe864ba8353)" style="fill: none; stroke: #ff0000; stroke-width: 1.5; stroke-linecap: square"/>
   </g>
   <g id="line2d_15">
    <path d="M 76.756364 99.194848 
L 79.124999 95.061637 
L 87.415221 80.401618 
L 88.00738 83.775226 
L 98.074078 158.294543 
L 98.666237 157.250922 
L 108.732935 97.501628 
L 109.325094 98.116864 
L 119.391792 180.521348 
L 119.983951 183.732197 
L 130.05065 183.7558 
L 130.642808 184.074919 
L 141.301665 211.602866 
L 151.960523 264.691733 
L 152.552681 264.950774 
L 162.61938 266.622784 
L 163.211539 262.629754 
L 173.278237 154.2671 
L 173.870396 152.365392 
L 183.937094 196.062548 
L 185.121412 199.710616 
L 194.595951 227.059488 
L 195.18811 227.798549 
L 205.846967 132.495219 
L 209.39992 157.492397 
L 216.505824 207.698983 
L 217.690142 198.976975 
L 227.164682 124.361202 
L 227.75684 123.307627 
L 237.823539 129.822353 
L 239.007856 133.736703 
L 249.074555 169.311907 
L 259.141253 196.707125 
L 259.733412 197.009785 
L 269.80011 169.512883 
L 270.392269 168.3768 
L 281.051126 185.495354 
L 285.196237 190.118487 
L 291.709983 197.421648 
L 292.302142 196.955387 
L 302.368841 182.332625 
L 302.960999 181.167313 
L 313.027698 153.686836 
L 313.619857 153.088896 
L 323.686555 162.861585 
L 324.278714 163.612195 
L 334.345412 184.592451 
L 334.937571 184.81607 
L 345.596428 126.904856 
L 350.333698 139.025266 
L 356.255285 154.226493 
L 359.216079 159.997891 
L 366.914142 174.856753 
L 367.506301 174.710615 
L 377.573 158.545855 
L 378.165158 159.096649 
L 388.231857 204.325019 
L 388.824015 205.277241 
L 399.482873 154.199965 
L 410.14173 113.102312 
L 413.102524 124.442656 
L 420.800587 154.181995 
L 421.392746 154.181254 
L 431.459444 150.899777 
L 432.051603 151.732639 
L 442.118301 171.184287 
L 442.71046 172.624025 
L 452.777159 206.584882 
L 453.369317 207.815632 
L 464.028174 187.380026 
L 474.687032 204.651079 
L 480.01646 167.085493 
L 485.345889 129.432055 
L 485.938048 128.204101 
L 496.004746 128.304016 
L 496.596905 130.391596 
L 506.663603 175.621784 
L 507.255762 177.458088 
L 517.32246 200.088598 
L 517.914619 199.796993 
L 527.981318 131.870865 
L 528.573476 129.256189 
L 539.232333 183.468498 
L 549.891191 111.523354 
L 550.483349 112.766416 
L 560.550048 141.803721 
L 561.734365 147.04489 
L 571.208905 191.10618 
L 571.801064 190.740935 
L 582.459921 129.720344 
L 592.526619 108.693725 
L 593.118778 107.819392 
L 603.777635 104.409205 
L 607.922746 111.687415 
L 614.436492 123.309982 
L 615.028651 124.897491 
L 625.09535 145.924079 
L 625.687508 145.437206 
L 635.754207 140.582707 
L 636.346366 140.788466 
L 646.413064 135.952985 
L 647.005223 136.449935 
L 657.071921 167.142054 
L 657.66408 167.668217 
L 667.730778 146.704341 
L 668.322937 145.827706 
L 668.322937 145.827706 
" clip-path="url(#pe864ba8353)" style="fill: none; stroke: #daa520; stroke-width: 1.5; stroke-linecap: square"/>
   </g>
   <g id="line2d_16">
    <path d="M 76.756364 94.01342 
L 87.415221 117.961686 
L 88.00738 116.891187 
L 98.074078 89.417949 
L 98.666237 90.197484 
L 108.732935 125.733179 
L 109.325094 129.556232 
L 119.391792 221.656225 
L 119.983951 224.959807 
L 130.05065 208.778678 
L 130.642808 208.76765 
L 141.301665 301.056162 
L 143.6703 283.07558 
L 151.960523 219.239494 
L 153.14484 214.001026 
L 165.580173 164.437101 
L 173.278237 134.715148 
L 173.870396 134.563937 
L 183.937094 160.475986 
L 184.529253 160.953647 
L 194.595951 154.394277 
L 195.18811 155.367151 
L 205.254809 200.665472 
L 205.846967 202.673216 
L 216.505824 161.601885 
L 217.097983 162.009453 
L 227.164682 174.958137 
L 228.941158 180.775714 
L 237.823539 210.740357 
L 238.415698 208.717155 
L 248.482396 137.577576 
L 249.074555 134.595866 
L 259.141253 103.900171 
L 259.733412 103.125165 
L 270.984428 144.373572 
L 281.051126 171.796858 
L 283.419761 159.420836 
L 291.709983 115.528998 
L 292.302142 119.169593 
L 302.368841 211.239402 
L 302.960999 209.570642 
L 313.027698 119.161025 
L 313.619857 116.983272 
L 324.278714 130.475223 
L 334.937571 133.783541 
L 345.004269 135.370216 
L 345.596428 135.577856 
L 347.965063 141.372463 
L 356.255285 161.36164 
L 360.400396 147.314763 
L 366.914142 125.333679 
L 367.506301 125.261696 
L 377.573 120.388963 
L 378.165158 118.968434 
L 388.231857 101.291385 
L 390.600492 100.494582 
L 398.890714 97.816164 
L 399.482873 97.757607 
L 410.14173 130.222955 
L 411.918206 127.442001 
L 420.800587 113.20138 
L 421.984904 107.813642 
L 431.459444 62.190651 
L 432.051603 61.417903 
L 442.118301 71.121518 
L 443.894778 75.020239 
L 452.777159 94.99638 
L 453.369317 95.607973 
L 463.436016 92.357378 
L 464.028174 92.625414 
L 474.687032 114.765572 
L 485.345889 87.364675 
L 485.938048 87.282229 
L 496.004746 92.154905 
L 496.596905 93.752034 
L 507.255762 129.623728 
L 517.32246 173.271738 
L 517.914619 174.443919 
L 528.573476 137.069901 
L 539.824492 110.181245 
L 549.891191 93.993813 
L 552.851984 102.160197 
L 560.550048 123.203892 
L 561.734365 121.156809 
L 571.208905 105.819841 
L 571.801064 106.023534 
L 581.867762 96.329026 
L 582.459921 96.787291 
L 593.118778 149.827983 
L 603.185477 149.753358 
L 603.777635 149.292643 
L 612.067858 130.642344 
L 614.436492 125.332671 
L 615.62081 123.464065 
L 625.09535 109.775119 
L 627.463985 102.459026 
L 635.754207 77.185456 
L 636.346366 77.488791 
L 646.413064 96.88327 
L 647.005223 97.093003 
L 657.071921 82.543006 
L 657.66408 82.30729 
L 667.730778 100.102378 
L 668.322937 100.921991 
L 668.322937 100.921991 
" clip-path="url(#pe864ba8353)" style="fill: none; stroke: #0000ff; stroke-width: 1.5; stroke-linecap: square"/>
   </g>
   <g id="line2d_17">
    <path d="M 76.756364 75.014848 
L 81.493633 93.221268 
L 87.415221 116.048458 
L 88.00738 116.123631 
L 98.074078 109.646056 
L 98.666237 109.694639 
L 108.732935 112.942505 
L 109.325094 114.43501 
L 119.983951 167.376287 
L 130.05065 204.49686 
L 130.642808 206.069561 
L 143.078142 189.891125 
L 151.960523 177.024072 
L 152.552681 177.387801 
L 162.61938 180.66009 
L 163.803697 175.112868 
L 173.278237 127.871675 
L 173.870396 126.758506 
L 183.937094 123.521543 
L 184.529253 125.068827 
L 194.595951 188.233188 
L 195.18811 189.320763 
L 205.254809 136.002762 
L 205.846967 133.929657 
L 207.623443 137.477564 
L 216.505824 154.626432 
L 217.097983 154.680332 
L 227.164682 159.620138 
L 227.75684 160.503253 
L 237.823539 171.773647 
L 238.415698 170.232377 
L 248.482396 129.839355 
L 249.074555 130.033083 
L 259.141253 176.833692 
L 259.733412 178.112615 
L 270.392269 155.684789 
L 281.051126 92.438788 
L 282.827602 102.432755 
L 291.709983 153.787984 
L 292.302142 152.598445 
L 302.368841 113.773054 
L 302.960999 112.281611 
L 313.027698 97.770646 
L 313.619857 98.496059 
L 323.686555 126.013879 
L 324.870872 128.158384 
L 334.345412 146.486464 
L 334.937571 147.317777 
L 345.596428 113.250261 
L 347.965063 129.349448 
L 356.255285 186.545967 
L 356.847444 183.436048 
L 366.914142 104.198797 
L 367.506301 102.766996 
L 377.573 109.22998 
L 378.165158 109.369935 
L 388.231857 93.114284 
L 388.824015 93.160767 
L 399.482873 144.255036 
L 410.14173 140.728437 
L 412.510365 129.907443 
L 420.800587 92.631356 
L 421.392746 94.06788 
L 431.459444 131.226587 
L 432.051603 131.287832 
L 442.118301 115.103061 
L 442.71046 115.229564 
L 452.777159 133.010147 
L 453.369317 133.716375 
L 464.028174 128.567595 
L 474.687032 140.716358 
L 477.647825 146.465441 
L 485.345889 161.281243 
L 485.938048 160.751489 
L 506.663603 130.640091 
L 507.255762 129.141488 
L 517.32246 95.143419 
L 517.914619 95.90178 
L 527.981318 171.918522 
L 528.573476 174.440502 
L 539.232333 125.038169 
L 549.891191 102.78002 
L 550.483349 101.898444 
L 560.550048 90.532784 
L 561.142207 92.874605 
L 571.208905 146.294525 
L 571.801064 148.013111 
L 581.867762 156.120869 
L 582.459921 154.967853 
L 592.526619 106.415218 
L 593.118778 105.216734 
L 603.777635 154.576548 
L 607.922746 147.275028 
L 614.436492 135.678894 
L 615.028651 136.038502 
L 625.09535 145.761164 
L 625.687508 144.495902 
L 635.754207 133.190174 
L 636.346366 134.202501 
L 646.413064 135.861828 
L 647.005223 134.879686 
L 657.071921 104.094946 
L 657.66408 102.82052 
L 668.322937 123.374849 
L 668.322937 123.374849 
" clip-path="url(#pe864ba8353)" style="fill: none; stroke: #008000; stroke-width: 1.5; stroke-linecap: square"/>
   </g>
   <g id="line2d_18">
    <path d="M 151.869791 95.740563 
L 152.300843 111.286719 
L 237.649212 113.00874 
L 238.080264 83.652752 
L 238.511316 121.581818 
L 323.428632 95.867444 
L 323.859685 92.29665 
L 324.290737 108.026502 
L 324.721789 114.762802 
L 409.639106 119.905677 
L 410.070158 108.995822 
L 410.50121 102.638867 
L 495.849579 78.489669 
L 496.280631 109.041926 
L 496.711684 106.150056 
L 581.629 125.052889 
L 582.060052 127.873373 
L 582.491104 87.104848 
L 582.491104 87.104848 
" clip-path="url(#pe864ba8353)" style="fill: none; stroke: #00008b; stroke-width: 1.5; stroke-linecap: square"/>
   </g>
   <g id="line2d_19">
    <path d="M 76.762406 104.376277 
L 86.409192 91.969104 
L 87.012116 91.194383 
L 87.61504 90.743083 
L 97.864751 110.494803 
L 98.467675 110.893035 
L 108.717386 86.183717 
L 109.32031 85.180873 
L 119.570021 80.2815 
L 120.172945 80.848746 
L 130.422655 95.629949 
L 131.02558 94.690181 
L 141.27529 74.865827 
L 141.878214 76.102777 
L 151.525001 91.613324 
L 152.127925 92.211274 
L 162.98056 69.776429 
L 173.23027 69.731996 
L 173.833195 70.461325 
L 184.685829 99.988312 
L 194.93554 121.35365 
L 195.538464 120.672582 
L 205.788175 97.613314 
L 206.391099 98.283057 
L 216.64081 113.091621 
L 226.89052 118.064969 
L 227.493444 117.699641 
L 238.346079 100.170593 
L 248.59579 75.492709 
L 249.198714 75.435539 
L 259.448425 83.619588 
L 260.654273 80.047069 
L 270.301059 49.126631 
L 275.727377 72.572858 
L 281.153694 95.592197 
L 291.403405 64.34031 
L 292.006329 63.794883 
L 302.25604 109.888125 
L 302.858964 111.544279 
L 313.108674 124.70898 
L 313.711598 124.788031 
L 323.961309 114.90157 
L 324.564233 115.487876 
L 334.813944 131.940695 
L 336.019792 127.131733 
L 345.666579 87.29713 
L 355.916289 110.306765 
L 356.519213 111.31199 
L 366.768924 111.31014 
L 368.577697 110.768241 
L 377.621559 107.846261 
L 378.224483 108.540027 
L 388.474194 126.630899 
L 389.077118 126.091148 
L 399.326828 111.284059 
L 400.532677 108.421964 
L 410.179463 83.696427 
L 413.797008 91.206143 
L 420.429174 105.054756 
L 421.032098 106.027 
L 431.884733 97.409219 
L 442.134443 95.758554 
L 442.737368 96.093734 
L 452.987078 105.986699 
L 454.795851 106.813926 
L 463.839713 111.158874 
L 464.442637 110.977725 
L 474.692348 104.449743 
L 480.118665 111.438469 
L 484.942058 117.632328 
L 485.544983 118.168209 
L 495.794693 111.567341 
L 496.397617 110.086665 
L 506.647328 62.36135 
L 507.250252 62.253928 
L 517.499963 90.263633 
L 528.352598 98.916628 
L 528.955522 99.081751 
L 539.205232 95.806336 
L 541.014005 97.318261 
L 550.057867 104.579591 
L 560.307578 125.946871 
L 560.910502 126.452354 
L 571.160213 114.881892 
L 571.763137 114.543839 
L 582.615772 105.756342 
L 592.865482 94.252482 
L 593.468406 94.891733 
L 603.115193 108.826063 
L 603.718117 109.482507 
L 606.732738 100.829592 
L 613.967828 79.888883 
L 614.570752 78.770699 
L 624.820462 116.578139 
L 625.423387 117.905938 
L 636.276021 93.555357 
L 646.525732 77.103161 
L 647.128656 76.854024 
L 657.378367 91.741693 
L 657.981291 94.007978 
L 667.628077 118.769456 
L 668.231002 119.978651 
L 669.43685 116.067853 
L 678.480712 88.460048 
L 679.083636 87.104848 
L 679.083636 87.104848 
" clip-path="url(#pe864ba8353)" style="fill: none; stroke: #ff8c00; stroke-width: 1.5; stroke-linecap: square"/>
   </g>
   <g id="line2d_20">
    <path d="M 76.756364 95.740563 
L 78.53284 93.800052 
L 87.415221 83.791545 
L 88.00738 83.861934 
L 98.074078 88.740115 
L 98.666237 90.010901 
L 108.732935 120.738408 
L 109.325094 120.439302 
L 119.391792 78.374226 
L 119.983951 77.586665 
L 130.642808 125.027715 
L 141.301665 119.959537 
L 143.6703 120.000239 
L 151.960523 120.024178 
L 153.14484 118.759274 
L 162.61938 109.650397 
L 163.803697 108.960793 
L 173.278237 102.869427 
L 173.870396 103.608886 
L 183.937094 131.080279 
L 187.490047 139.005236 
L 194.595951 154.952805 
L 195.18811 155.901722 
L 205.846967 116.369804 
L 208.215602 112.500948 
L 216.505824 99.194199 
L 218.282301 102.808312 
L 227.164682 121.327582 
L 227.75684 121.858508 
L 237.823539 121.801309 
L 238.415698 120.410425 
L 248.482396 86.473194 
L 249.074555 85.839448 
L 259.141253 101.994276 
L 259.733412 103.155455 
L 269.80011 140.334116 
L 270.392269 141.931256 
L 281.051126 75.243303 
L 282.235444 80.313829 
L 291.709983 122.9741 
L 292.894301 125.019136 
L 302.368841 140.264743 
L 302.960999 139.723372 
L 313.027698 117.130931 
L 313.619857 116.570028 
L 323.686555 119.784281 
L 324.278714 119.655104 
L 334.345412 103.471192 
L 334.937571 102.241428 
L 345.596428 49.260682 
L 346.780746 55.346116 
L 356.255285 107.055327 
L 356.847444 107.560349 
L 366.914142 101.086439 
L 372.243571 99.354834 
L 378.757317 97.289417 
L 388.231857 95.770391 
L 388.824015 96.20968 
L 398.890714 117.210848 
L 399.482873 117.966007 
L 410.14173 97.462795 
L 413.694682 92.361266 
L 421.392746 81.341462 
L 431.459444 70.002122 
L 432.051603 71.321426 
L 442.118301 108.506434 
L 442.71046 109.759656 
L 452.777159 117.823907 
L 453.369317 117.770124 
L 463.436016 91.919861 
L 464.028174 90.81437 
L 474.687032 117.957624 
L 477.055667 104.828902 
L 485.345889 58.278111 
L 485.938048 59.662657 
L 496.004746 101.743146 
L 496.596905 102.813009 
L 507.255762 107.993654 
L 517.914619 114.89847 
L 527.981318 114.902142 
L 528.573476 114.345011 
L 539.232333 90.629254 
L 549.891191 99.224912 
L 551.667667 104.247314 
L 560.550048 129.920527 
L 561.142207 129.897054 
L 571.208905 120.202503 
L 573.57754 116.084665 
L 581.867762 101.456804 
L 582.459921 101.10586 
L 593.118778 102.813733 
L 603.777635 123.223059 
L 606.738429 119.016649 
L 614.436492 107.937382 
L 615.62081 103.730062 
L 625.09535 71.794308 
L 625.687508 73.939622 
L 635.754207 130.477389 
L 636.346366 131.28472 
L 646.413064 111.882965 
L 647.005223 111.650269 
L 657.071921 114.843561 
L 657.66408 114.382852 
L 668.322937 92.286277 
L 668.322937 92.286277 
" clip-path="url(#pe864ba8353)" style="fill: none; stroke: #8b0000; stroke-width: 1.5; stroke-linecap: square"/>
   </g>
   <g id="patch_3">
    <path d="M 46.64 390.04 
L 46.64 25.44 
" style="fill: none; stroke: #000000; stroke-width: 0.8; stroke-linejoin: miter; stroke-linecap: square"/>
   </g>
   <g id="patch_4">
    <path d="M 709.2 390.04 
L 709.2 25.44 
" style="fill: none; stroke: #000000; stroke-width: 0.8; stroke-linejoin: miter; stroke-linecap: square"/>
   </g>
   <g id="patch_5">
    <path d="M 46.64 390.04 
L 709.2 390.04 
" style="fill: none; stroke: #000000; stroke-width: 0.8; stroke-linejoin: miter; stroke-linecap: square"/>
   </g>
   <g id="patch_6">
    <path d="M 46.64 25.44 
L 709.2 25.44 
" style="fill: none; stroke: #000000; stroke-width: 0.8; stroke-linejoin: miter; stroke-linecap: square"/>
   </g>
   <g id="text_15">
    <!-- Comparison of Algorithms on BoxingNoFrameskip-v4 -->
    <g transform="translate(219.864063 19.44) scale(0.12 -0.12)">
     <defs>
      <path id="DejaVuSans-43" d="M 4122 4306 
L 4122 3641 
Q 3803 3938 3442 4084 
Q 3081 4231 2675 4231 
Q 1875 4231 1450 3742 
Q 1025 3253 1025 2328 
Q 1025 1406 1450 917 
Q 1875 428 2675 428 
Q 3081 428 3442 575 
Q 3803 722 4122 1019 
L 4122 359 
Q 3791 134 3420 21 
Q 3050 -91 2638 -91 
Q 1578 -91 968 557 
Q 359 1206 359 2328 
Q 359 3453 968 4101 
Q 1578 4750 2638 4750 
Q 3056 4750 3426 4639 
Q 3797 4528 4122 4306 
z
" transform="scale(0.015625)"/>
      <path id="DejaVuSans-66" d="M 2375 4863 
L 2375 4384 
L 1825 4384 
Q 1516 4384 1395 4259 
Q 1275 4134 1275 3809 
L 1275 3500 
L 2222 3500 
L 2222 3053 
L 1275 3053 
L 1275 0 
L 697 0 
L 697 3053 
L 147 3053 
L 147 3500 
L 697 3500 
L 697 3744 
Q 697 4328 969 4595 
Q 1241 4863 1831 4863 
L 2375 4863 
z
" transform="scale(0.015625)"/>
      <path id="DejaVuSans-41" d="M 2188 4044 
L 1331 1722 
L 3047 1722 
L 2188 4044 
z
M 1831 4666 
L 2547 4666 
L 4325 0 
L 3669 0 
L 3244 1197 
L 1141 1197 
L 716 0 
L 50 0 
L 1831 4666 
z
" transform="scale(0.015625)"/>
      <path id="DejaVuSans-67" d="M 2906 1791 
Q 2906 2416 2648 2759 
Q 2391 3103 1925 3103 
Q 1463 3103 1205 2759 
Q 947 2416 947 1791 
Q 947 1169 1205 825 
Q 1463 481 1925 481 
Q 2391 481 2648 825 
Q 2906 1169 2906 1791 
z
M 3481 434 
Q 3481 -459 3084 -895 
Q 2688 -1331 1869 -1331 
Q 1566 -1331 1297 -1286 
Q 1028 -1241 775 -1147 
L 775 -588 
Q 1028 -725 1275 -790 
Q 1522 -856 1778 -856 
Q 2344 -856 2625 -561 
Q 2906 -266 2906 331 
L 2906 616 
Q 2728 306 2450 153 
Q 2172 0 1784 0 
Q 1141 0 747 490 
Q 353 981 353 1791 
Q 353 2603 747 3093 
Q 1141 3584 1784 3584 
Q 2172 3584 2450 3431 
Q 2728 3278 2906 2969 
L 2906 3500 
L 3481 3500 
L 3481 434 
z
" transform="scale(0.015625)"/>
      <path id="DejaVuSans-42" d="M 1259 2228 
L 1259 519 
L 2272 519 
Q 2781 519 3026 730 
Q 3272 941 3272 1375 
Q 3272 1813 3026 2020 
Q 2781 2228 2272 2228 
L 1259 2228 
z
M 1259 4147 
L 1259 2741 
L 2194 2741 
Q 2656 2741 2882 2914 
Q 3109 3088 3109 3444 
Q 3109 3797 2882 3972 
Q 2656 4147 2194 4147 
L 1259 4147 
z
M 628 4666 
L 2241 4666 
Q 2963 4666 3353 4366 
Q 3744 4066 3744 3513 
Q 3744 3084 3544 2831 
Q 3344 2578 2956 2516 
Q 3422 2416 3680 2098 
Q 3938 1781 3938 1306 
Q 3938 681 3513 340 
Q 3088 0 2303 0 
L 628 0 
L 628 4666 
z
" transform="scale(0.015625)"/>
      <path id="DejaVuSans-78" d="M 3513 3500 
L 2247 1797 
L 3578 0 
L 2900 0 
L 1881 1375 
L 863 0 
L 184 0 
L 1544 1831 
L 300 3500 
L 978 3500 
L 1906 2253 
L 2834 3500 
L 3513 3500 
z
" transform="scale(0.015625)"/>
      <path id="DejaVuSans-46" d="M 628 4666 
L 3309 4666 
L 3309 4134 
L 1259 4134 
L 1259 2759 
L 3109 2759 
L 3109 2228 
L 1259 2228 
L 1259 0 
L 628 0 
L 628 4666 
z
" transform="scale(0.015625)"/>
      <path id="DejaVuSans-6b" d="M 581 4863 
L 1159 4863 
L 1159 1991 
L 2875 3500 
L 3609 3500 
L 1753 1863 
L 3688 0 
L 2938 0 
L 1159 1709 
L 1159 0 
L 581 0 
L 581 4863 
z
" transform="scale(0.015625)"/>
      <path id="DejaVuSans-2d" d="M 313 2009 
L 1997 2009 
L 1997 1497 
L 313 1497 
L 313 2009 
z
" transform="scale(0.015625)"/>
      <path id="DejaVuSans-76" d="M 191 3500 
L 800 3500 
L 1894 563 
L 2988 3500 
L 3597 3500 
L 2284 0 
L 1503 0 
L 191 3500 
z
" transform="scale(0.015625)"/>
     </defs>
     <use xlink:href="#DejaVuSans-43"/>
     <use xlink:href="#DejaVuSans-6f" transform="translate(69.824219 0)"/>
     <use xlink:href="#DejaVuSans-6d" transform="translate(131.005859 0)"/>
     <use xlink:href="#DejaVuSans-70" transform="translate(228.417969 0)"/>
     <use xlink:href="#DejaVuSans-61" transform="translate(291.894531 0)"/>
     <use xlink:href="#DejaVuSans-72" transform="translate(353.173828 0)"/>
     <use xlink:href="#DejaVuSans-69" transform="translate(394.287109 0)"/>
     <use xlink:href="#DejaVuSans-73" transform="translate(422.070312 0)"/>
     <use xlink:href="#DejaVuSans-6f" transform="translate(474.169922 0)"/>
     <use xlink:href="#DejaVuSans-6e" transform="translate(535.351562 0)"/>
     <use xlink:href="#DejaVuSans-20" transform="translate(598.730469 0)"/>
     <use xlink:href="#DejaVuSans-6f" transform="translate(630.517578 0)"/>
     <use xlink:href="#DejaVuSans-66" transform="translate(691.699219 0)"/>
     <use xlink:href="#DejaVuSans-20" transform="translate(726.904297 0)"/>
     <use xlink:href="#DejaVuSans-41" transform="translate(758.691406 0)"/>
     <use xlink:href="#DejaVuSans-6c" transform="translate(827.099609 0)"/>
     <use xlink:href="#DejaVuSans-67" transform="translate(854.882812 0)"/>
     <use xlink:href="#DejaVuSans-6f" transform="translate(918.359375 0)"/>
     <use xlink:href="#DejaVuSans-72" transform="translate(979.541016 0)"/>
     <use xlink:href="#DejaVuSans-69" transform="translate(1020.654297 0)"/>
     <use xlink:href="#DejaVuSans-74" transform="translate(1048.4375 0)"/>
     <use xlink:href="#DejaVuSans-68" transform="translate(1087.646484 0)"/>
     <use xlink:href="#DejaVuSans-6d" transform="translate(1151.025391 0)"/>
     <use xlink:href="#DejaVuSans-73" transform="translate(1248.4375 0)"/>
     <use xlink:href="#DejaVuSans-20" transform="translate(1300.537109 0)"/>
     <use xlink:href="#DejaVuSans-6f" transform="translate(1332.324219 0)"/>
     <use xlink:href="#DejaVuSans-6e" transform="translate(1393.505859 0)"/>
     <use xlink:href="#DejaVuSans-20" transform="translate(1456.884766 0)"/>
     <use xlink:href="#DejaVuSans-42" transform="translate(1488.671875 0)"/>
     <use xlink:href="#DejaVuSans-6f" transform="translate(1557.275391 0)"/>
     <use xlink:href="#DejaVuSans-78" transform="translate(1615.332031 0)"/>
     <use xlink:href="#DejaVuSans-69" transform="translate(1674.511719 0)"/>
     <use xlink:href="#DejaVuSans-6e" transform="translate(1702.294922 0)"/>
     <use xlink:href="#DejaVuSans-67" transform="translate(1765.673828 0)"/>
     <use xlink:href="#DejaVuSans-4e" transform="translate(1829.150391 0)"/>
     <use xlink:href="#DejaVuSans-6f" transform="translate(1903.955078 0)"/>
     <use xlink:href="#DejaVuSans-46" transform="translate(1965.136719 0)"/>
     <use xlink:href="#DejaVuSans-72" transform="translate(2015.40625 0)"/>
     <use xlink:href="#DejaVuSans-61" transform="translate(2056.519531 0)"/>
     <use xlink:href="#DejaVuSans-6d" transform="translate(2117.798828 0)"/>
     <use xlink:href="#DejaVuSans-65" transform="translate(2215.210938 0)"/>
     <use xlink:href="#DejaVuSans-73" transform="translate(2276.734375 0)"/>
     <use xlink:href="#DejaVuSans-6b" transform="translate(2328.833984 0)"/>
     <use xlink:href="#DejaVuSans-69" transform="translate(2386.744141 0)"/>
     <use xlink:href="#DejaVuSans-70" transform="translate(2414.527344 0)"/>
     <use xlink:href="#DejaVuSans-2d" transform="translate(2478.003906 0)"/>
     <use xlink:href="#DejaVuSans-76" transform="translate(2511.462891 0)"/>
     <use xlink:href="#DejaVuSans-34" transform="translate(2570.642578 0)"/>
    </g>
   </g>
   <g id="legend_1">
    <g id="patch_7">
     <path d="M 53.64 385.04 
L 146.755625 385.04 
Q 148.755625 385.04 148.755625 383.04 
L 148.755625 251.65875 
Q 148.755625 249.65875 146.755625 249.65875 
L 53.64 249.65875 
Q 51.64 249.65875 51.64 251.65875 
L 51.64 383.04 
Q 51.64 385.04 53.64 385.04 
z
" style="fill: #ffffff; opacity: 0.8; stroke: #cccccc; stroke-linejoin: miter"/>
    </g>
    <g id="text_16">
     <!-- Algorithm -->
     <g transform="translate(75.711094 261.257187) scale(0.1 -0.1)">
      <use xlink:href="#DejaVuSans-41"/>
      <use xlink:href="#DejaVuSans-6c" transform="translate(68.408203 0)"/>
      <use xlink:href="#DejaVuSans-67" transform="translate(96.191406 0)"/>
      <use xlink:href="#DejaVuSans-6f" transform="translate(159.667969 0)"/>
      <use xlink:href="#DejaVuSans-72" transform="translate(220.849609 0)"/>
      <use xlink:href="#DejaVuSans-69" transform="translate(261.962891 0)"/>
      <use xlink:href="#DejaVuSans-74" transform="translate(289.746094 0)"/>
      <use xlink:href="#DejaVuSans-68" transform="translate(328.955078 0)"/>
      <use xlink:href="#DejaVuSans-6d" transform="translate(392.333984 0)"/>
     </g>
    </g>
    <g id="line2d_21">
     <path d="M 55.64 272.435313 
L 65.64 272.435313 
L 75.64 272.435313 
" style="fill: none; stroke: #ff00ff; stroke-width: 1.5; stroke-linecap: square"/>
    </g>
    <g id="text_17">
     <!-- c51 -->
     <g transform="translate(83.64 275.935313) scale(0.1 -0.1)">
      <defs>
       <path id="DejaVuSans-35" d="M 691 4666 
L 3169 4666 
L 3169 4134 
L 1269 4134 
L 1269 2991 
Q 1406 3038 1543 3061 
Q 1681 3084 1819 3084 
Q 2600 3084 3056 2656 
Q 3513 2228 3513 1497 
Q 3513 744 3044 326 
Q 2575 -91 1722 -91 
Q 1428 -91 1123 -41 
Q 819 9 494 109 
L 494 744 
Q 775 591 1075 516 
Q 1375 441 1709 441 
Q 2250 441 2565 725 
Q 2881 1009 2881 1497 
Q 2881 1984 2565 2268 
Q 2250 2553 1709 2553 
Q 1456 2553 1204 2497 
Q 953 2441 691 2322 
L 691 4666 
z
" transform="scale(0.015625)"/>
      </defs>
      <use xlink:href="#DejaVuSans-63"/>
      <use xlink:href="#DejaVuSans-35" transform="translate(54.980469 0)"/>
      <use xlink:href="#DejaVuSans-31" transform="translate(118.603516 0)"/>
     </g>
    </g>
    <g id="line2d_22">
     <path d="M 55.64 287.113438 
L 65.64 287.113438 
L 75.64 287.113438 
" style="fill: none; stroke: #ff0000; stroke-width: 1.5; stroke-linecap: square"/>
    </g>
    <g id="text_18">
     <!-- ddqn -->
     <g transform="translate(83.64 290.613438) scale(0.1 -0.1)">
      <defs>
       <path id="DejaVuSans-71" d="M 947 1747 
Q 947 1113 1208 752 
Q 1469 391 1925 391 
Q 2381 391 2643 752 
Q 2906 1113 2906 1747 
Q 2906 2381 2643 2742 
Q 2381 3103 1925 3103 
Q 1469 3103 1208 2742 
Q 947 2381 947 1747 
z
M 2906 525 
Q 2725 213 2448 61 
Q 2172 -91 1784 -91 
Q 1150 -91 751 415 
Q 353 922 353 1747 
Q 353 2572 751 3078 
Q 1150 3584 1784 3584 
Q 2172 3584 2448 3432 
Q 2725 3281 2906 2969 
L 2906 3500 
L 3481 3500 
L 3481 -1331 
L 2906 -1331 
L 2906 525 
z
" transform="scale(0.015625)"/>
      </defs>
      <use xlink:href="#DejaVuSans-64"/>
      <use xlink:href="#DejaVuSans-64" transform="translate(63.476562 0)"/>
      <use xlink:href="#DejaVuSans-71" transform="translate(126.953125 0)"/>
      <use xlink:href="#DejaVuSans-6e" transform="translate(190.429688 0)"/>
     </g>
    </g>
    <g id="line2d_23">
     <path d="M 55.64 301.791562 
L 65.64 301.791562 
L 75.64 301.791562 
" style="fill: none; stroke: #daa520; stroke-width: 1.5; stroke-linecap: square"/>
    </g>
    <g id="text_19">
     <!-- dqn -->
     <g transform="translate(83.64 305.291562) scale(0.1 -0.1)">
      <use xlink:href="#DejaVuSans-64"/>
      <use xlink:href="#DejaVuSans-71" transform="translate(63.476562 0)"/>
      <use xlink:href="#DejaVuSans-6e" transform="translate(126.953125 0)"/>
     </g>
    </g>
    <g id="line2d_24">
     <path d="M 55.64 316.469688 
L 65.64 316.469688 
L 75.64 316.469688 
" style="fill: none; stroke: #0000ff; stroke-width: 1.5; stroke-linecap: square"/>
    </g>
    <g id="text_20">
     <!-- dueling_dqn -->
     <g transform="translate(83.64 319.969688) scale(0.1 -0.1)">
      <defs>
       <path id="DejaVuSans-5f" d="M 3263 -1063 
L 3263 -1509 
L -63 -1509 
L -63 -1063 
L 3263 -1063 
z
" transform="scale(0.015625)"/>
      </defs>
      <use xlink:href="#DejaVuSans-64"/>
      <use xlink:href="#DejaVuSans-75" transform="translate(63.476562 0)"/>
      <use xlink:href="#DejaVuSans-65" transform="translate(126.855469 0)"/>
      <use xlink:href="#DejaVuSans-6c" transform="translate(188.378906 0)"/>
      <use xlink:href="#DejaVuSans-69" transform="translate(216.162109 0)"/>
      <use xlink:href="#DejaVuSans-6e" transform="translate(243.945312 0)"/>
      <use xlink:href="#DejaVuSans-67" transform="translate(307.324219 0)"/>
      <use xlink:href="#DejaVuSans-5f" transform="translate(370.800781 0)"/>
      <use xlink:href="#DejaVuSans-64" transform="translate(420.800781 0)"/>
      <use xlink:href="#DejaVuSans-71" transform="translate(484.277344 0)"/>
      <use xlink:href="#DejaVuSans-6e" transform="translate(547.753906 0)"/>
     </g>
    </g>
    <g id="line2d_25">
     <path d="M 55.64 331.425938 
L 65.64 331.425938 
L 75.64 331.425938 
" style="fill: none; stroke: #008000; stroke-width: 1.5; stroke-linecap: square"/>
    </g>
    <g id="text_21">
     <!-- per -->
     <g transform="translate(83.64 334.925938) scale(0.1 -0.1)">
      <use xlink:href="#DejaVuSans-70"/>
      <use xlink:href="#DejaVuSans-65" transform="translate(63.476562 0)"/>
      <use xlink:href="#DejaVuSans-72" transform="translate(125 0)"/>
     </g>
    </g>
    <g id="line2d_26">
     <path d="M 55.64 346.104063 
L 65.64 346.104063 
L 75.64 346.104063 
" style="fill: none; stroke: #00008b; stroke-width: 1.5; stroke-linecap: square"/>
    </g>
    <g id="text_22">
     <!-- ppo -->
     <g transform="translate(83.64 349.604063) scale(0.1 -0.1)">
      <use xlink:href="#DejaVuSans-70"/>
      <use xlink:href="#DejaVuSans-70" transform="translate(63.476562 0)"/>
      <use xlink:href="#DejaVuSans-6f" transform="translate(126.953125 0)"/>
     </g>
    </g>
    <g id="line2d_27">
     <path d="M 55.64 360.782188 
L 65.64 360.782188 
L 75.64 360.782188 
" style="fill: none; stroke: #ff8c00; stroke-width: 1.5; stroke-linecap: square"/>
    </g>
    <g id="text_23">
     <!-- reinforce -->
     <g transform="translate(83.64 364.282188) scale(0.1 -0.1)">
      <use xlink:href="#DejaVuSans-72"/>
      <use xlink:href="#DejaVuSans-65" transform="translate(38.863281 0)"/>
      <use xlink:href="#DejaVuSans-69" transform="translate(100.386719 0)"/>
      <use xlink:href="#DejaVuSans-6e" transform="translate(128.169922 0)"/>
      <use xlink:href="#DejaVuSans-66" transform="translate(191.548828 0)"/>
      <use xlink:href="#DejaVuSans-6f" transform="translate(226.753906 0)"/>
      <use xlink:href="#DejaVuSans-72" transform="translate(287.935547 0)"/>
      <use xlink:href="#DejaVuSans-63" transform="translate(326.798828 0)"/>
      <use xlink:href="#DejaVuSans-65" transform="translate(381.779297 0)"/>
     </g>
    </g>
    <g id="line2d_28">
     <path d="M 55.64 375.460312 
L 65.64 375.460312 
L 75.64 375.460312 
" style="fill: none; stroke: #8b0000; stroke-width: 1.5; stroke-linecap: square"/>
    </g>
    <g id="text_24">
     <!-- sac -->
     <g transform="translate(83.64 378.960312) scale(0.1 -0.1)">
      <use xlink:href="#DejaVuSans-73"/>
      <use xlink:href="#DejaVuSans-61" transform="translate(52.099609 0)"/>
      <use xlink:href="#DejaVuSans-63" transform="translate(113.378906 0)"/>
     </g>
    </g>
   </g>
  </g>
 </g>
 <defs>
  <clipPath id="pe864ba8353">
   <rect x="46.64" y="25.44" width="662.56" height="364.6"/>
  </clipPath>
 </defs>
</svg>
