<?xml version="1.0" encoding="utf-8" standalone="no"?>
<!DOCTYPE svg PUBLIC "-//W3C//DTD SVG 1.1//EN"
  "http://www.w3.org/Graphics/SVG/1.1/DTD/svg11.dtd">
<svg xmlns:xlink="http://www.w3.org/1999/xlink" width="720pt" height="432pt" viewBox="0 0 720 432" xmlns="http://www.w3.org/2000/svg" version="1.1">
 <metadata>
  <rdf:RDF xmlns:dc="http://purl.org/dc/elements/1.1/" xmlns:cc="http://creativecommons.org/ns#" xmlns:rdf="http://www.w3.org/1999/02/22-rdf-syntax-ns#">
   <cc:Work>
    <dc:type rdf:resource="http://purl.org/dc/dcmitype/StillImage"/>
    <dc:date>2025-02-05T22:14:22.244135</dc:date>
    <dc:format>image/svg+xml</dc:format>
    <dc:creator>
     <cc:Agent>
      <dc:title>Matplotlib v3.10.0, https://matplotlib.org/</dc:title>
     </cc:Agent>
    </dc:creator>
   </cc:Work>
  </rdf:RDF>
 </metadata>
 <defs>
  <style type="text/css">*{stroke-linejoin: round; stroke-linecap: butt}</style>
 </defs>
 <g id="figure_1">
  <g id="patch_1">
   <path d="M 0 432 
L 720 432 
L 720 0 
L 0 0 
z
" style="fill: #ffffff"/>
  </g>
  <g id="axes_1">
   <g id="patch_2">
    <path d="M 54.2 390.04 
L 709.2 390.04 
L 709.2 25.44 
L 54.2 25.44 
z
" style="fill: #ffffff"/>
   </g>
   <g id="matplotlib.axis_1">
    <g id="xtick_1">
     <g id="line2d_1">
      <defs>
       <path id="mda33e2913c" d="M 0 0 
L 0 3.5 
" style="stroke: #000000; stroke-width: 0.8"/>
      </defs>
      <g>
       <use xlink:href="#mda33e2913c" x="73.364676" y="390.04" style="stroke: #000000; stroke-width: 0.8"/>
      </g>
     </g>
     <g id="text_1">
      <!-- 0 -->
      <g transform="translate(70.183426 404.638438) scale(0.1 -0.1)">
       <defs>
        <path id="DejaVuSans-30" d="M 2034 4250 
Q 1547 4250 1301 3770 
Q 1056 3291 1056 2328 
Q 1056 1369 1301 889 
Q 1547 409 2034 409 
Q 2525 409 2770 889 
Q 3016 1369 3016 2328 
Q 3016 3291 2770 3770 
Q 2525 4250 2034 4250 
z
M 2034 4750 
Q 2819 4750 3233 4129 
Q 3647 3509 3647 2328 
Q 3647 1150 3233 529 
Q 2819 -91 2034 -91 
Q 1250 -91 836 529 
Q 422 1150 422 2328 
Q 422 3509 836 4129 
Q 1250 4750 2034 4750 
z
" transform="scale(0.015625)"/>
       </defs>
       <use xlink:href="#DejaVuSans-30"/>
      </g>
     </g>
    </g>
    <g id="xtick_2">
     <g id="line2d_2">
      <g>
       <use xlink:href="#mda33e2913c" x="192.824716" y="390.04" style="stroke: #000000; stroke-width: 0.8"/>
      </g>
     </g>
     <g id="text_2">
      <!-- 20000 -->
      <g transform="translate(176.918466 404.638438) scale(0.1 -0.1)">
       <defs>
        <path id="DejaVuSans-32" d="M 1228 531 
L 3431 531 
L 3431 0 
L 469 0 
L 469 531 
Q 828 903 1448 1529 
Q 2069 2156 2228 2338 
Q 2531 2678 2651 2914 
Q 2772 3150 2772 3378 
Q 2772 3750 2511 3984 
Q 2250 4219 1831 4219 
Q 1534 4219 1204 4116 
Q 875 4013 500 3803 
L 500 4441 
Q 881 4594 1212 4672 
Q 1544 4750 1819 4750 
Q 2544 4750 2975 4387 
Q 3406 4025 3406 3419 
Q 3406 3131 3298 2873 
Q 3191 2616 2906 2266 
Q 2828 2175 2409 1742 
Q 1991 1309 1228 531 
z
" transform="scale(0.015625)"/>
       </defs>
       <use xlink:href="#DejaVuSans-32"/>
       <use xlink:href="#DejaVuSans-30" transform="translate(63.623047 0)"/>
       <use xlink:href="#DejaVuSans-30" transform="translate(127.246094 0)"/>
       <use xlink:href="#DejaVuSans-30" transform="translate(190.869141 0)"/>
       <use xlink:href="#DejaVuSans-30" transform="translate(254.492188 0)"/>
      </g>
     </g>
    </g>
    <g id="xtick_3">
     <g id="line2d_3">
      <g>
       <use xlink:href="#mda33e2913c" x="312.284757" y="390.04" style="stroke: #000000; stroke-width: 0.8"/>
      </g>
     </g>
     <g id="text_3">
      <!-- 40000 -->
      <g transform="translate(296.378507 404.638438) scale(0.1 -0.1)">
       <defs>
        <path id="DejaVuSans-34" d="M 2419 4116 
L 825 1625 
L 2419 1625 
L 2419 4116 
z
M 2253 4666 
L 3047 4666 
L 3047 1625 
L 3713 1625 
L 3713 1100 
L 3047 1100 
L 3047 0 
L 2419 0 
L 2419 1100 
L 313 1100 
L 313 1709 
L 2253 4666 
z
" transform="scale(0.015625)"/>
       </defs>
       <use xlink:href="#DejaVuSans-34"/>
       <use xlink:href="#DejaVuSans-30" transform="translate(63.623047 0)"/>
       <use xlink:href="#DejaVuSans-30" transform="translate(127.246094 0)"/>
       <use xlink:href="#DejaVuSans-30" transform="translate(190.869141 0)"/>
       <use xlink:href="#DejaVuSans-30" transform="translate(254.492188 0)"/>
      </g>
     </g>
    </g>
    <g id="xtick_4">
     <g id="line2d_4">
      <g>
       <use xlink:href="#mda33e2913c" x="431.744798" y="390.04" style="stroke: #000000; stroke-width: 0.8"/>
      </g>
     </g>
     <g id="text_4">
      <!-- 60000 -->
      <g transform="translate(415.838548 404.638438) scale(0.1 -0.1)">
       <defs>
        <path id="DejaVuSans-36" d="M 2113 2584 
Q 1688 2584 1439 2293 
Q 1191 2003 1191 1497 
Q 1191 994 1439 701 
Q 1688 409 2113 409 
Q 2538 409 2786 701 
Q 3034 994 3034 1497 
Q 3034 2003 2786 2293 
Q 2538 2584 2113 2584 
z
M 3366 4563 
L 3366 3988 
Q 3128 4100 2886 4159 
Q 2644 4219 2406 4219 
Q 1781 4219 1451 3797 
Q 1122 3375 1075 2522 
Q 1259 2794 1537 2939 
Q 1816 3084 2150 3084 
Q 2853 3084 3261 2657 
Q 3669 2231 3669 1497 
Q 3669 778 3244 343 
Q 2819 -91 2113 -91 
Q 1303 -91 875 529 
Q 447 1150 447 2328 
Q 447 3434 972 4092 
Q 1497 4750 2381 4750 
Q 2619 4750 2861 4703 
Q 3103 4656 3366 4563 
z
" transform="scale(0.015625)"/>
       </defs>
       <use xlink:href="#DejaVuSans-36"/>
       <use xlink:href="#DejaVuSans-30" transform="translate(63.623047 0)"/>
       <use xlink:href="#DejaVuSans-30" transform="translate(127.246094 0)"/>
       <use xlink:href="#DejaVuSans-30" transform="translate(190.869141 0)"/>
       <use xlink:href="#DejaVuSans-30" transform="translate(254.492188 0)"/>
      </g>
     </g>
    </g>
    <g id="xtick_5">
     <g id="line2d_5">
      <g>
       <use xlink:href="#mda33e2913c" x="551.204838" y="390.04" style="stroke: #000000; stroke-width: 0.8"/>
      </g>
     </g>
     <g id="text_5">
      <!-- 80000 -->
      <g transform="translate(535.298588 404.638438) scale(0.1 -0.1)">
       <defs>
        <path id="DejaVuSans-38" d="M 2034 2216 
Q 1584 2216 1326 1975 
Q 1069 1734 1069 1313 
Q 1069 891 1326 650 
Q 1584 409 2034 409 
Q 2484 409 2743 651 
Q 3003 894 3003 1313 
Q 3003 1734 2745 1975 
Q 2488 2216 2034 2216 
z
M 1403 2484 
Q 997 2584 770 2862 
Q 544 3141 544 3541 
Q 544 4100 942 4425 
Q 1341 4750 2034 4750 
Q 2731 4750 3128 4425 
Q 3525 4100 3525 3541 
Q 3525 3141 3298 2862 
Q 3072 2584 2669 2484 
Q 3125 2378 3379 2068 
Q 3634 1759 3634 1313 
Q 3634 634 3220 271 
Q 2806 -91 2034 -91 
Q 1263 -91 848 271 
Q 434 634 434 1313 
Q 434 1759 690 2068 
Q 947 2378 1403 2484 
z
M 1172 3481 
Q 1172 3119 1398 2916 
Q 1625 2713 2034 2713 
Q 2441 2713 2670 2916 
Q 2900 3119 2900 3481 
Q 2900 3844 2670 4047 
Q 2441 4250 2034 4250 
Q 1625 4250 1398 4047 
Q 1172 3844 1172 3481 
z
" transform="scale(0.015625)"/>
       </defs>
       <use xlink:href="#DejaVuSans-38"/>
       <use xlink:href="#DejaVuSans-30" transform="translate(63.623047 0)"/>
       <use xlink:href="#DejaVuSans-30" transform="translate(127.246094 0)"/>
       <use xlink:href="#DejaVuSans-30" transform="translate(190.869141 0)"/>
       <use xlink:href="#DejaVuSans-30" transform="translate(254.492188 0)"/>
      </g>
     </g>
    </g>
    <g id="xtick_6">
     <g id="line2d_6">
      <g>
       <use xlink:href="#mda33e2913c" x="670.664879" y="390.04" style="stroke: #000000; stroke-width: 0.8"/>
      </g>
     </g>
     <g id="text_6">
      <!-- 100000 -->
      <g transform="translate(651.577379 404.638438) scale(0.1 -0.1)">
       <defs>
        <path id="DejaVuSans-31" d="M 794 531 
L 1825 531 
L 1825 4091 
L 703 3866 
L 703 4441 
L 1819 4666 
L 2450 4666 
L 2450 531 
L 3481 531 
L 3481 0 
L 794 0 
L 794 531 
z
" transform="scale(0.015625)"/>
       </defs>
       <use xlink:href="#DejaVuSans-31"/>
       <use xlink:href="#DejaVuSans-30" transform="translate(63.623047 0)"/>
       <use xlink:href="#DejaVuSans-30" transform="translate(127.246094 0)"/>
       <use xlink:href="#DejaVuSans-30" transform="translate(190.869141 0)"/>
       <use xlink:href="#DejaVuSans-30" transform="translate(254.492188 0)"/>
       <use xlink:href="#DejaVuSans-30" transform="translate(318.115234 0)"/>
      </g>
     </g>
    </g>
    <g id="text_7">
     <!-- Step -->
     <g transform="translate(370.314844 418.316562) scale(0.1 -0.1)">
      <defs>
       <path id="DejaVuSans-53" d="M 3425 4513 
L 3425 3897 
Q 3066 4069 2747 4153 
Q 2428 4238 2131 4238 
Q 1616 4238 1336 4038 
Q 1056 3838 1056 3469 
Q 1056 3159 1242 3001 
Q 1428 2844 1947 2747 
L 2328 2669 
Q 3034 2534 3370 2195 
Q 3706 1856 3706 1288 
Q 3706 609 3251 259 
Q 2797 -91 1919 -91 
Q 1588 -91 1214 -16 
Q 841 59 441 206 
L 441 856 
Q 825 641 1194 531 
Q 1563 422 1919 422 
Q 2459 422 2753 634 
Q 3047 847 3047 1241 
Q 3047 1584 2836 1778 
Q 2625 1972 2144 2069 
L 1759 2144 
Q 1053 2284 737 2584 
Q 422 2884 422 3419 
Q 422 4038 858 4394 
Q 1294 4750 2059 4750 
Q 2388 4750 2728 4690 
Q 3069 4631 3425 4513 
z
" transform="scale(0.015625)"/>
       <path id="DejaVuSans-74" d="M 1172 4494 
L 1172 3500 
L 2356 3500 
L 2356 3053 
L 1172 3053 
L 1172 1153 
Q 1172 725 1289 603 
Q 1406 481 1766 481 
L 2356 481 
L 2356 0 
L 1766 0 
Q 1100 0 847 248 
Q 594 497 594 1153 
L 594 3053 
L 172 3053 
L 172 3500 
L 594 3500 
L 594 4494 
L 1172 4494 
z
" transform="scale(0.015625)"/>
       <path id="DejaVuSans-65" d="M 3597 1894 
L 3597 1613 
L 953 1613 
Q 991 1019 1311 708 
Q 1631 397 2203 397 
Q 2534 397 2845 478 
Q 3156 559 3463 722 
L 3463 178 
Q 3153 47 2828 -22 
Q 2503 -91 2169 -91 
Q 1331 -91 842 396 
Q 353 884 353 1716 
Q 353 2575 817 3079 
Q 1281 3584 2069 3584 
Q 2775 3584 3186 3129 
Q 3597 2675 3597 1894 
z
M 3022 2063 
Q 3016 2534 2758 2815 
Q 2500 3097 2075 3097 
Q 1594 3097 1305 2825 
Q 1016 2553 972 2059 
L 3022 2063 
z
" transform="scale(0.015625)"/>
       <path id="DejaVuSans-70" d="M 1159 525 
L 1159 -1331 
L 581 -1331 
L 581 3500 
L 1159 3500 
L 1159 2969 
Q 1341 3281 1617 3432 
Q 1894 3584 2278 3584 
Q 2916 3584 3314 3078 
Q 3713 2572 3713 1747 
Q 3713 922 3314 415 
Q 2916 -91 2278 -91 
Q 1894 -91 1617 61 
Q 1341 213 1159 525 
z
M 3116 1747 
Q 3116 2381 2855 2742 
Q 2594 3103 2138 3103 
Q 1681 3103 1420 2742 
Q 1159 2381 1159 1747 
Q 1159 1113 1420 752 
Q 1681 391 2138 391 
Q 2594 391 2855 752 
Q 3116 1113 3116 1747 
z
" transform="scale(0.015625)"/>
      </defs>
      <use xlink:href="#DejaVuSans-53"/>
      <use xlink:href="#DejaVuSans-74" transform="translate(63.476562 0)"/>
      <use xlink:href="#DejaVuSans-65" transform="translate(102.685547 0)"/>
      <use xlink:href="#DejaVuSans-70" transform="translate(164.208984 0)"/>
     </g>
    </g>
   </g>
   <g id="matplotlib.axis_2">
    <g id="ytick_1">
     <g id="line2d_7">
      <defs>
       <path id="m5338afd36d" d="M 0 0 
L -3.5 0 
" style="stroke: #000000; stroke-width: 0.8"/>
      </defs>
      <g>
       <use xlink:href="#m5338afd36d" x="54.2" y="385.555138" style="stroke: #000000; stroke-width: 0.8"/>
      </g>
     </g>
     <g id="text_8">
      <!-- 0.45 -->
      <g transform="translate(24.934375 389.354357) scale(0.1 -0.1)">
       <defs>
        <path id="DejaVuSans-2e" d="M 684 794 
L 1344 794 
L 1344 0 
L 684 0 
L 684 794 
z
" transform="scale(0.015625)"/>
        <path id="DejaVuSans-35" d="M 691 4666 
L 3169 4666 
L 3169 4134 
L 1269 4134 
L 1269 2991 
Q 1406 3038 1543 3061 
Q 1681 3084 1819 3084 
Q 2600 3084 3056 2656 
Q 3513 2228 3513 1497 
Q 3513 744 3044 326 
Q 2575 -91 1722 -91 
Q 1428 -91 1123 -41 
Q 819 9 494 109 
L 494 744 
Q 775 591 1075 516 
Q 1375 441 1709 441 
Q 2250 441 2565 725 
Q 2881 1009 2881 1497 
Q 2881 1984 2565 2268 
Q 2250 2553 1709 2553 
Q 1456 2553 1204 2497 
Q 953 2441 691 2322 
L 691 4666 
z
" transform="scale(0.015625)"/>
       </defs>
       <use xlink:href="#DejaVuSans-30"/>
       <use xlink:href="#DejaVuSans-2e" transform="translate(63.623047 0)"/>
       <use xlink:href="#DejaVuSans-34" transform="translate(95.410156 0)"/>
       <use xlink:href="#DejaVuSans-35" transform="translate(159.033203 0)"/>
      </g>
     </g>
    </g>
    <g id="ytick_2">
     <g id="line2d_8">
      <g>
       <use xlink:href="#m5338afd36d" x="54.2" y="340.994852" style="stroke: #000000; stroke-width: 0.8"/>
      </g>
     </g>
     <g id="text_9">
      <!-- 0.50 -->
      <g transform="translate(24.934375 344.794071) scale(0.1 -0.1)">
       <use xlink:href="#DejaVuSans-30"/>
       <use xlink:href="#DejaVuSans-2e" transform="translate(63.623047 0)"/>
       <use xlink:href="#DejaVuSans-35" transform="translate(95.410156 0)"/>
       <use xlink:href="#DejaVuSans-30" transform="translate(159.033203 0)"/>
      </g>
     </g>
    </g>
    <g id="ytick_3">
     <g id="line2d_9">
      <g>
       <use xlink:href="#m5338afd36d" x="54.2" y="296.434565" style="stroke: #000000; stroke-width: 0.8"/>
      </g>
     </g>
     <g id="text_10">
      <!-- 0.55 -->
      <g transform="translate(24.934375 300.233784) scale(0.1 -0.1)">
       <use xlink:href="#DejaVuSans-30"/>
       <use xlink:href="#DejaVuSans-2e" transform="translate(63.623047 0)"/>
       <use xlink:href="#DejaVuSans-35" transform="translate(95.410156 0)"/>
       <use xlink:href="#DejaVuSans-35" transform="translate(159.033203 0)"/>
      </g>
     </g>
    </g>
    <g id="ytick_4">
     <g id="line2d_10">
      <g>
       <use xlink:href="#m5338afd36d" x="54.2" y="251.874279" style="stroke: #000000; stroke-width: 0.8"/>
      </g>
     </g>
     <g id="text_11">
      <!-- 0.60 -->
      <g transform="translate(24.934375 255.673498) scale(0.1 -0.1)">
       <use xlink:href="#DejaVuSans-30"/>
       <use xlink:href="#DejaVuSans-2e" transform="translate(63.623047 0)"/>
       <use xlink:href="#DejaVuSans-36" transform="translate(95.410156 0)"/>
       <use xlink:href="#DejaVuSans-30" transform="translate(159.033203 0)"/>
      </g>
     </g>
    </g>
    <g id="ytick_5">
     <g id="line2d_11">
      <g>
       <use xlink:href="#m5338afd36d" x="54.2" y="207.313993" style="stroke: #000000; stroke-width: 0.8"/>
      </g>
     </g>
     <g id="text_12">
      <!-- 0.65 -->
      <g transform="translate(24.934375 211.113212) scale(0.1 -0.1)">
       <use xlink:href="#DejaVuSans-30"/>
       <use xlink:href="#DejaVuSans-2e" transform="translate(63.623047 0)"/>
       <use xlink:href="#DejaVuSans-36" transform="translate(95.410156 0)"/>
       <use xlink:href="#DejaVuSans-35" transform="translate(159.033203 0)"/>
      </g>
     </g>
    </g>
    <g id="ytick_6">
     <g id="line2d_12">
      <g>
       <use xlink:href="#m5338afd36d" x="54.2" y="162.753706" style="stroke: #000000; stroke-width: 0.8"/>
      </g>
     </g>
     <g id="text_13">
      <!-- 0.70 -->
      <g transform="translate(24.934375 166.552925) scale(0.1 -0.1)">
       <defs>
        <path id="DejaVuSans-37" d="M 525 4666 
L 3525 4666 
L 3525 4397 
L 1831 0 
L 1172 0 
L 2766 4134 
L 525 4134 
L 525 4666 
z
" transform="scale(0.015625)"/>
       </defs>
       <use xlink:href="#DejaVuSans-30"/>
       <use xlink:href="#DejaVuSans-2e" transform="translate(63.623047 0)"/>
       <use xlink:href="#DejaVuSans-37" transform="translate(95.410156 0)"/>
       <use xlink:href="#DejaVuSans-30" transform="translate(159.033203 0)"/>
      </g>
     </g>
    </g>
    <g id="ytick_7">
     <g id="line2d_13">
      <g>
       <use xlink:href="#m5338afd36d" x="54.2" y="118.19342" style="stroke: #000000; stroke-width: 0.8"/>
      </g>
     </g>
     <g id="text_14">
      <!-- 0.75 -->
      <g transform="translate(24.934375 121.992639) scale(0.1 -0.1)">
       <use xlink:href="#DejaVuSans-30"/>
       <use xlink:href="#DejaVuSans-2e" transform="translate(63.623047 0)"/>
       <use xlink:href="#DejaVuSans-37" transform="translate(95.410156 0)"/>
       <use xlink:href="#DejaVuSans-35" transform="translate(159.033203 0)"/>
      </g>
     </g>
    </g>
    <g id="ytick_8">
     <g id="line2d_14">
      <g>
       <use xlink:href="#m5338afd36d" x="54.2" y="73.633134" style="stroke: #000000; stroke-width: 0.8"/>
      </g>
     </g>
     <g id="text_15">
      <!-- 0.80 -->
      <g transform="translate(24.934375 77.432352) scale(0.1 -0.1)">
       <use xlink:href="#DejaVuSans-30"/>
       <use xlink:href="#DejaVuSans-2e" transform="translate(63.623047 0)"/>
       <use xlink:href="#DejaVuSans-38" transform="translate(95.410156 0)"/>
       <use xlink:href="#DejaVuSans-30" transform="translate(159.033203 0)"/>
      </g>
     </g>
    </g>
    <g id="ytick_9">
     <g id="line2d_15">
      <g>
       <use xlink:href="#m5338afd36d" x="54.2" y="29.072847" style="stroke: #000000; stroke-width: 0.8"/>
      </g>
     </g>
     <g id="text_16">
      <!-- 0.85 -->
      <g transform="translate(24.934375 32.872066) scale(0.1 -0.1)">
       <use xlink:href="#DejaVuSans-30"/>
       <use xlink:href="#DejaVuSans-2e" transform="translate(63.623047 0)"/>
       <use xlink:href="#DejaVuSans-38" transform="translate(95.410156 0)"/>
       <use xlink:href="#DejaVuSans-35" transform="translate(159.033203 0)"/>
      </g>
     </g>
    </g>
    <g id="text_17">
     <!-- Normalized (minmax) Episodic Return -->
     <g transform="translate(18.854688 302.376719) rotate(-90) scale(0.1 -0.1)">
      <defs>
       <path id="DejaVuSans-4e" d="M 628 4666 
L 1478 4666 
L 3547 763 
L 3547 4666 
L 4159 4666 
L 4159 0 
L 3309 0 
L 1241 3903 
L 1241 0 
L 628 0 
L 628 4666 
z
" transform="scale(0.015625)"/>
       <path id="DejaVuSans-6f" d="M 1959 3097 
Q 1497 3097 1228 2736 
Q 959 2375 959 1747 
Q 959 1119 1226 758 
Q 1494 397 1959 397 
Q 2419 397 2687 759 
Q 2956 1122 2956 1747 
Q 2956 2369 2687 2733 
Q 2419 3097 1959 3097 
z
M 1959 3584 
Q 2709 3584 3137 3096 
Q 3566 2609 3566 1747 
Q 3566 888 3137 398 
Q 2709 -91 1959 -91 
Q 1206 -91 779 398 
Q 353 888 353 1747 
Q 353 2609 779 3096 
Q 1206 3584 1959 3584 
z
" transform="scale(0.015625)"/>
       <path id="DejaVuSans-72" d="M 2631 2963 
Q 2534 3019 2420 3045 
Q 2306 3072 2169 3072 
Q 1681 3072 1420 2755 
Q 1159 2438 1159 1844 
L 1159 0 
L 581 0 
L 581 3500 
L 1159 3500 
L 1159 2956 
Q 1341 3275 1631 3429 
Q 1922 3584 2338 3584 
Q 2397 3584 2469 3576 
Q 2541 3569 2628 3553 
L 2631 2963 
z
" transform="scale(0.015625)"/>
       <path id="DejaVuSans-6d" d="M 3328 2828 
Q 3544 3216 3844 3400 
Q 4144 3584 4550 3584 
Q 5097 3584 5394 3201 
Q 5691 2819 5691 2113 
L 5691 0 
L 5113 0 
L 5113 2094 
Q 5113 2597 4934 2840 
Q 4756 3084 4391 3084 
Q 3944 3084 3684 2787 
Q 3425 2491 3425 1978 
L 3425 0 
L 2847 0 
L 2847 2094 
Q 2847 2600 2669 2842 
Q 2491 3084 2119 3084 
Q 1678 3084 1418 2786 
Q 1159 2488 1159 1978 
L 1159 0 
L 581 0 
L 581 3500 
L 1159 3500 
L 1159 2956 
Q 1356 3278 1631 3431 
Q 1906 3584 2284 3584 
Q 2666 3584 2933 3390 
Q 3200 3197 3328 2828 
z
" transform="scale(0.015625)"/>
       <path id="DejaVuSans-61" d="M 2194 1759 
Q 1497 1759 1228 1600 
Q 959 1441 959 1056 
Q 959 750 1161 570 
Q 1363 391 1709 391 
Q 2188 391 2477 730 
Q 2766 1069 2766 1631 
L 2766 1759 
L 2194 1759 
z
M 3341 1997 
L 3341 0 
L 2766 0 
L 2766 531 
Q 2569 213 2275 61 
Q 1981 -91 1556 -91 
Q 1019 -91 701 211 
Q 384 513 384 1019 
Q 384 1609 779 1909 
Q 1175 2209 1959 2209 
L 2766 2209 
L 2766 2266 
Q 2766 2663 2505 2880 
Q 2244 3097 1772 3097 
Q 1472 3097 1187 3025 
Q 903 2953 641 2809 
L 641 3341 
Q 956 3463 1253 3523 
Q 1550 3584 1831 3584 
Q 2591 3584 2966 3190 
Q 3341 2797 3341 1997 
z
" transform="scale(0.015625)"/>
       <path id="DejaVuSans-6c" d="M 603 4863 
L 1178 4863 
L 1178 0 
L 603 0 
L 603 4863 
z
" transform="scale(0.015625)"/>
       <path id="DejaVuSans-69" d="M 603 3500 
L 1178 3500 
L 1178 0 
L 603 0 
L 603 3500 
z
M 603 4863 
L 1178 4863 
L 1178 4134 
L 603 4134 
L 603 4863 
z
" transform="scale(0.015625)"/>
       <path id="DejaVuSans-7a" d="M 353 3500 
L 3084 3500 
L 3084 2975 
L 922 459 
L 3084 459 
L 3084 0 
L 275 0 
L 275 525 
L 2438 3041 
L 353 3041 
L 353 3500 
z
" transform="scale(0.015625)"/>
       <path id="DejaVuSans-64" d="M 2906 2969 
L 2906 4863 
L 3481 4863 
L 3481 0 
L 2906 0 
L 2906 525 
Q 2725 213 2448 61 
Q 2172 -91 1784 -91 
Q 1150 -91 751 415 
Q 353 922 353 1747 
Q 353 2572 751 3078 
Q 1150 3584 1784 3584 
Q 2172 3584 2448 3432 
Q 2725 3281 2906 2969 
z
M 947 1747 
Q 947 1113 1208 752 
Q 1469 391 1925 391 
Q 2381 391 2643 752 
Q 2906 1113 2906 1747 
Q 2906 2381 2643 2742 
Q 2381 3103 1925 3103 
Q 1469 3103 1208 2742 
Q 947 2381 947 1747 
z
" transform="scale(0.015625)"/>
       <path id="DejaVuSans-20" transform="scale(0.015625)"/>
       <path id="DejaVuSans-28" d="M 1984 4856 
Q 1566 4138 1362 3434 
Q 1159 2731 1159 2009 
Q 1159 1288 1364 580 
Q 1569 -128 1984 -844 
L 1484 -844 
Q 1016 -109 783 600 
Q 550 1309 550 2009 
Q 550 2706 781 3412 
Q 1013 4119 1484 4856 
L 1984 4856 
z
" transform="scale(0.015625)"/>
       <path id="DejaVuSans-6e" d="M 3513 2113 
L 3513 0 
L 2938 0 
L 2938 2094 
Q 2938 2591 2744 2837 
Q 2550 3084 2163 3084 
Q 1697 3084 1428 2787 
Q 1159 2491 1159 1978 
L 1159 0 
L 581 0 
L 581 3500 
L 1159 3500 
L 1159 2956 
Q 1366 3272 1645 3428 
Q 1925 3584 2291 3584 
Q 2894 3584 3203 3211 
Q 3513 2838 3513 2113 
z
" transform="scale(0.015625)"/>
       <path id="DejaVuSans-78" d="M 3513 3500 
L 2247 1797 
L 3578 0 
L 2900 0 
L 1881 1375 
L 863 0 
L 184 0 
L 1544 1831 
L 300 3500 
L 978 3500 
L 1906 2253 
L 2834 3500 
L 3513 3500 
z
" transform="scale(0.015625)"/>
       <path id="DejaVuSans-29" d="M 513 4856 
L 1013 4856 
Q 1481 4119 1714 3412 
Q 1947 2706 1947 2009 
Q 1947 1309 1714 600 
Q 1481 -109 1013 -844 
L 513 -844 
Q 928 -128 1133 580 
Q 1338 1288 1338 2009 
Q 1338 2731 1133 3434 
Q 928 4138 513 4856 
z
" transform="scale(0.015625)"/>
       <path id="DejaVuSans-45" d="M 628 4666 
L 3578 4666 
L 3578 4134 
L 1259 4134 
L 1259 2753 
L 3481 2753 
L 3481 2222 
L 1259 2222 
L 1259 531 
L 3634 531 
L 3634 0 
L 628 0 
L 628 4666 
z
" transform="scale(0.015625)"/>
       <path id="DejaVuSans-73" d="M 2834 3397 
L 2834 2853 
Q 2591 2978 2328 3040 
Q 2066 3103 1784 3103 
Q 1356 3103 1142 2972 
Q 928 2841 928 2578 
Q 928 2378 1081 2264 
Q 1234 2150 1697 2047 
L 1894 2003 
Q 2506 1872 2764 1633 
Q 3022 1394 3022 966 
Q 3022 478 2636 193 
Q 2250 -91 1575 -91 
Q 1294 -91 989 -36 
Q 684 19 347 128 
L 347 722 
Q 666 556 975 473 
Q 1284 391 1588 391 
Q 1994 391 2212 530 
Q 2431 669 2431 922 
Q 2431 1156 2273 1281 
Q 2116 1406 1581 1522 
L 1381 1569 
Q 847 1681 609 1914 
Q 372 2147 372 2553 
Q 372 3047 722 3315 
Q 1072 3584 1716 3584 
Q 2034 3584 2315 3537 
Q 2597 3491 2834 3397 
z
" transform="scale(0.015625)"/>
       <path id="DejaVuSans-63" d="M 3122 3366 
L 3122 2828 
Q 2878 2963 2633 3030 
Q 2388 3097 2138 3097 
Q 1578 3097 1268 2742 
Q 959 2388 959 1747 
Q 959 1106 1268 751 
Q 1578 397 2138 397 
Q 2388 397 2633 464 
Q 2878 531 3122 666 
L 3122 134 
Q 2881 22 2623 -34 
Q 2366 -91 2075 -91 
Q 1284 -91 818 406 
Q 353 903 353 1747 
Q 353 2603 823 3093 
Q 1294 3584 2113 3584 
Q 2378 3584 2631 3529 
Q 2884 3475 3122 3366 
z
" transform="scale(0.015625)"/>
       <path id="DejaVuSans-52" d="M 2841 2188 
Q 3044 2119 3236 1894 
Q 3428 1669 3622 1275 
L 4263 0 
L 3584 0 
L 2988 1197 
Q 2756 1666 2539 1819 
Q 2322 1972 1947 1972 
L 1259 1972 
L 1259 0 
L 628 0 
L 628 4666 
L 2053 4666 
Q 2853 4666 3247 4331 
Q 3641 3997 3641 3322 
Q 3641 2881 3436 2590 
Q 3231 2300 2841 2188 
z
M 1259 4147 
L 1259 2491 
L 2053 2491 
Q 2509 2491 2742 2702 
Q 2975 2913 2975 3322 
Q 2975 3731 2742 3939 
Q 2509 4147 2053 4147 
L 1259 4147 
z
" transform="scale(0.015625)"/>
       <path id="DejaVuSans-75" d="M 544 1381 
L 544 3500 
L 1119 3500 
L 1119 1403 
Q 1119 906 1312 657 
Q 1506 409 1894 409 
Q 2359 409 2629 706 
Q 2900 1003 2900 1516 
L 2900 3500 
L 3475 3500 
L 3475 0 
L 2900 0 
L 2900 538 
Q 2691 219 2414 64 
Q 2138 -91 1772 -91 
Q 1169 -91 856 284 
Q 544 659 544 1381 
z
M 1991 3584 
L 1991 3584 
z
" transform="scale(0.015625)"/>
      </defs>
      <use xlink:href="#DejaVuSans-4e"/>
      <use xlink:href="#DejaVuSans-6f" transform="translate(74.804688 0)"/>
      <use xlink:href="#DejaVuSans-72" transform="translate(135.986328 0)"/>
      <use xlink:href="#DejaVuSans-6d" transform="translate(175.349609 0)"/>
      <use xlink:href="#DejaVuSans-61" transform="translate(272.761719 0)"/>
      <use xlink:href="#DejaVuSans-6c" transform="translate(334.041016 0)"/>
      <use xlink:href="#DejaVuSans-69" transform="translate(361.824219 0)"/>
      <use xlink:href="#DejaVuSans-7a" transform="translate(389.607422 0)"/>
      <use xlink:href="#DejaVuSans-65" transform="translate(442.097656 0)"/>
      <use xlink:href="#DejaVuSans-64" transform="translate(503.621094 0)"/>
      <use xlink:href="#DejaVuSans-20" transform="translate(567.097656 0)"/>
      <use xlink:href="#DejaVuSans-28" transform="translate(598.884766 0)"/>
      <use xlink:href="#DejaVuSans-6d" transform="translate(637.898438 0)"/>
      <use xlink:href="#DejaVuSans-69" transform="translate(735.310547 0)"/>
      <use xlink:href="#DejaVuSans-6e" transform="translate(763.09375 0)"/>
      <use xlink:href="#DejaVuSans-6d" transform="translate(826.472656 0)"/>
      <use xlink:href="#DejaVuSans-61" transform="translate(923.884766 0)"/>
      <use xlink:href="#DejaVuSans-78" transform="translate(985.164062 0)"/>
      <use xlink:href="#DejaVuSans-29" transform="translate(1044.34375 0)"/>
      <use xlink:href="#DejaVuSans-20" transform="translate(1083.357422 0)"/>
      <use xlink:href="#DejaVuSans-45" transform="translate(1115.144531 0)"/>
      <use xlink:href="#DejaVuSans-70" transform="translate(1178.328125 0)"/>
      <use xlink:href="#DejaVuSans-69" transform="translate(1241.804688 0)"/>
      <use xlink:href="#DejaVuSans-73" transform="translate(1269.587891 0)"/>
      <use xlink:href="#DejaVuSans-6f" transform="translate(1321.6875 0)"/>
      <use xlink:href="#DejaVuSans-64" transform="translate(1382.869141 0)"/>
      <use xlink:href="#DejaVuSans-69" transform="translate(1446.345703 0)"/>
      <use xlink:href="#DejaVuSans-63" transform="translate(1474.128906 0)"/>
      <use xlink:href="#DejaVuSans-20" transform="translate(1529.109375 0)"/>
      <use xlink:href="#DejaVuSans-52" transform="translate(1560.896484 0)"/>
      <use xlink:href="#DejaVuSans-65" transform="translate(1625.878906 0)"/>
      <use xlink:href="#DejaVuSans-74" transform="translate(1687.402344 0)"/>
      <use xlink:href="#DejaVuSans-75" transform="translate(1726.611328 0)"/>
      <use xlink:href="#DejaVuSans-72" transform="translate(1789.990234 0)"/>
      <use xlink:href="#DejaVuSans-6e" transform="translate(1829.353516 0)"/>
     </g>
    </g>
   </g>
   <g id="line2d_16">
    <path d="M 83.972727 92.286277 
L 88.070541 95.594212 
L 94.509964 100.827545 
L 95.095366 102.860576 
L 105.0472 144.872823 
L 105.632602 146.753738 
L 115.584437 170.976425 
L 116.169839 173.869532 
L 126.707076 249.577039 
L 137.244312 356.348804 
L 147.781549 322.202714 
L 149.537755 328.610297 
L 158.318785 361.431869 
L 158.904187 361.228615 
L 168.856022 353.148941 
L 170.026826 351.553043 
L 179.393258 337.840983 
L 179.97866 337.827334 
L 189.930495 349.229482 
L 190.515897 348.348832 
L 201.053133 268.508906 
L 211.59037 299.407738 
L 217.44439 296.570089 
L 222.127607 294.247332 
L 222.713009 294.220527 
L 232.664843 295.829868 
L 233.250245 294.692849 
L 243.20208 257.536017 
L 243.787482 258.196528 
L 253.739316 309.962489 
L 254.324718 311.617196 
L 264.276553 310.027781 
L 264.861955 310.108325 
L 274.813789 332.723388 
L 275.399191 333.625117 
L 285.936428 260.060729 
L 287.107232 266.832845 
L 296.473664 324.624974 
L 297.059067 326.075998 
L 307.010901 340.572361 
L 307.596303 338.480771 
L 317.548138 267.416669 
L 318.13354 266.674136 
L 328.085374 328.069159 
L 328.670776 330.575594 
L 338.622611 311.064763 
L 339.208013 310.337668 
L 349.745249 373.467273 
L 351.501455 354.483725 
L 360.282486 257.608921 
L 360.867888 259.739527 
L 370.819722 330.878937 
L 371.405124 331.421127 
L 381.942361 312.585077 
L 391.894196 280.191838 
L 392.479598 280.462807 
L 402.431432 359.671081 
L 403.016834 363.286582 
L 413.554071 352.975059 
L 421.164297 327.028898 
L 424.091307 317.037487 
L 424.676709 318.768306 
L 434.628544 357.575423 
L 435.213946 354.997999 
L 445.16578 262.884583 
L 445.751182 262.464321 
L 455.703017 364.343239 
L 456.288419 367.518894 
L 466.825655 301.46546 
L 477.362892 335.965733 
L 478.533696 340.202372 
L 487.900129 372.180847 
L 490.241737 366.381406 
L 498.437365 346.410174 
L 499.022767 346.318001 
L 508.974602 349.564035 
L 509.560004 348.590233 
L 522.438848 306.357686 
L 530.049075 280.375152 
L 530.634477 279.658334 
L 541.171713 349.303599 
L 551.70895 287.639869 
L 553.465156 301.228746 
L 562.246186 371.120051 
L 562.831589 371.756012 
L 573.954227 362.607731 
L 583.32066 353.458746 
L 590.345484 341.977397 
L 593.857896 336.246181 
L 594.443298 334.916475 
L 604.980535 262.038299 
L 611.419957 300.631173 
L 615.517771 325.122097 
L 616.688575 328.896936 
L 626.055008 356.327792 
L 626.64041 357.022342 
L 636.592244 361.874151 
L 637.177646 360.084258 
L 647.714883 315.19547 
L 657.666718 263.484989 
L 658.25212 262.815257 
L 668.789356 328.904852 
L 668.789356 328.904852 
" clip-path="url(#p13db48a92d)" style="fill: none; stroke: #ff00ff; stroke-width: 1.5; stroke-linecap: square"/>
   </g>
   <g id="line2d_17">
    <path d="M 83.972727 88.831991 
L 86.899349 96.839484 
L 94.508565 117.830383 
L 95.093889 117.122212 
L 105.044402 94.48557 
L 105.629727 93.993028 
L 115.58024 92.319336 
L 116.165564 94.739875 
L 126.116077 185.369167 
L 126.701401 188.609163 
L 136.651915 161.155015 
L 137.237239 160.053464 
L 148.358401 212.097332 
L 158.308914 250.97021 
L 158.894238 247.944403 
L 168.844751 183.291992 
L 169.430076 183.098462 
L 179.380589 213.842774 
L 179.965913 213.938837 
L 189.916426 178.427925 
L 190.501751 177.018888 
L 200.452264 199.461958 
L 201.037588 201.258837 
L 211.573426 182.153309 
L 212.744074 187.329033 
L 222.109263 231.492979 
L 222.694587 229.097582 
L 233.230425 162.631984 
L 243.180938 110.964693 
L 243.766262 110.341587 
L 253.716775 136.232094 
L 254.3021 137.164172 
L 264.252613 127.462811 
L 266.59391 123.342703 
L 274.78845 108.703303 
L 275.373775 108.06143 
L 285.909612 155.957394 
L 286.494936 156.009988 
L 296.44545 152.783477 
L 297.616098 151.015722 
L 306.981287 135.851801 
L 307.566611 133.201965 
L 317.517125 65.381994 
L 318.102449 63.762698 
L 328.638286 106.316202 
L 339.174124 123.31965 
L 349.709961 114.808141 
L 350.88061 118.792209 
L 360.245799 152.239954 
L 360.831123 150.285166 
L 370.781636 95.313296 
L 371.366961 95.094315 
L 381.317474 122.621209 
L 381.902798 123.192839 
L 391.853311 116.730638 
L 392.438636 116.565307 
L 402.389149 123.071061 
L 402.974473 123.28481 
L 413.51031 73.685015 
L 414.095635 75.907495 
L 424.046148 129.213898 
L 424.631472 127.399991 
L 434.581985 57.968094 
L 435.16731 56.849788 
L 445.117823 90.77071 
L 446.288472 95.487484 
L 456.238985 133.110606 
L 466.189498 199.50394 
L 466.774822 202.089423 
L 477.31066 94.249044 
L 477.895984 94.226098 
L 487.846497 99.042745 
L 488.431821 100.899675 
L 498.382335 141.328171 
L 498.967659 140.970226 
L 508.918172 100.592653 
L 509.503496 99.481688 
L 520.039334 109.781089 
L 529.989847 124.31821 
L 530.575171 124.53699 
L 541.111009 68.184765 
L 543.452306 83.208884 
L 551.646846 136.493929 
L 552.232171 135.892825 
L 562.182684 105.263801 
L 562.768008 103.927096 
L 572.718521 92.625594 
L 573.303846 93.718449 
L 583.254359 142.16193 
L 583.839683 143.571545 
L 593.790196 127.369761 
L 594.37552 127.171947 
L 597.887466 120.329223 
L 604.326034 107.699146 
L 605.496682 104.800279 
L 615.447195 90.235934 
L 616.03252 90.24143 
L 625.983033 87.002173 
L 626.568357 87.775093 
L 636.51887 86.153173 
L 637.104195 86.408389 
L 647.054708 138.072948 
L 647.640032 139.297553 
L 657.005221 42.149051 
L 657.590545 42.012727 
L 658.17587 44.129999 
L 667.541058 136.948394 
L 668.126383 141.050434 
L 668.711707 144.100563 
L 668.711707 144.100563 
" clip-path="url(#p13db48a92d)" style="fill: none; stroke: #ff0000; stroke-width: 1.5; stroke-linecap: square"/>
   </g>
   <g id="line2d_18">
    <path d="M 83.972727 99.194848 
L 86.314335 95.061637 
L 94.509964 80.401618 
L 95.095366 83.775226 
L 105.0472 158.294543 
L 105.632602 157.250922 
L 115.584437 97.501628 
L 116.169839 98.116864 
L 126.121673 180.521348 
L 126.707076 183.732197 
L 136.65891 183.7558 
L 137.244312 184.074919 
L 147.781549 211.602866 
L 158.318785 264.691733 
L 158.904187 264.950774 
L 168.856022 266.622784 
L 169.441424 262.629754 
L 179.393258 154.2671 
L 179.97866 152.365392 
L 189.930495 196.062548 
L 191.101299 199.710616 
L 200.467731 227.059488 
L 201.053133 227.798549 
L 211.59037 132.495219 
L 215.102782 157.492397 
L 222.127607 207.698983 
L 223.298411 198.976975 
L 232.664843 124.361202 
L 233.250245 123.307627 
L 243.20208 129.822353 
L 244.372884 133.736703 
L 254.324718 169.311907 
L 264.276553 196.707125 
L 264.861955 197.009785 
L 274.813789 169.512883 
L 275.399191 168.3768 
L 285.936428 185.495354 
L 290.034242 190.118487 
L 296.473664 197.421648 
L 297.059067 196.955387 
L 307.010901 182.332625 
L 307.596303 181.167313 
L 317.548138 153.686836 
L 318.13354 153.088896 
L 328.085374 162.861585 
L 328.670776 163.612195 
L 338.622611 184.592451 
L 339.208013 184.81607 
L 349.745249 126.904856 
L 354.428466 139.025266 
L 360.282486 154.226493 
L 363.209496 159.997891 
L 370.819722 174.856753 
L 371.405124 174.710615 
L 381.356959 158.545855 
L 381.942361 159.096649 
L 391.894196 204.325019 
L 392.479598 205.277241 
L 403.016834 154.199965 
L 413.554071 113.102312 
L 416.481081 124.442656 
L 424.091307 154.181995 
L 424.676709 154.181254 
L 434.628544 150.899777 
L 435.213946 151.732639 
L 445.16578 171.184287 
L 445.751182 172.624025 
L 455.703017 206.584882 
L 456.288419 207.815632 
L 466.825655 187.380026 
L 477.362892 204.651079 
L 482.63151 167.085493 
L 487.900129 129.432055 
L 488.485531 128.204101 
L 498.437365 128.304016 
L 499.022767 130.391596 
L 508.974602 175.621784 
L 509.560004 177.458088 
L 519.511838 200.088598 
L 520.09724 199.796993 
L 530.049075 131.870865 
L 530.634477 129.256189 
L 541.171713 183.468498 
L 551.70895 111.523354 
L 552.294352 112.766416 
L 562.246186 141.803721 
L 563.416991 147.04489 
L 572.783423 191.10618 
L 573.368825 190.740935 
L 583.906062 129.720344 
L 593.857896 108.693725 
L 594.443298 107.819392 
L 604.980535 104.409205 
L 609.078349 111.687415 
L 615.517771 123.309982 
L 616.103173 124.897491 
L 626.055008 145.924079 
L 626.64041 145.437206 
L 636.592244 140.582707 
L 637.177646 140.788466 
L 647.129481 135.952985 
L 647.714883 136.449935 
L 657.666718 167.142054 
L 658.25212 167.668217 
L 668.203954 146.704341 
L 668.789356 145.827706 
L 668.789356 145.827706 
" clip-path="url(#p13db48a92d)" style="fill: none; stroke: #daa520; stroke-width: 1.5; stroke-linecap: square"/>
   </g>
   <g id="line2d_19">
    <path d="M 83.972727 94.01342 
L 94.509964 117.961686 
L 95.095366 116.891187 
L 105.0472 89.417949 
L 105.632602 90.197484 
L 115.584437 125.733179 
L 116.169839 129.556232 
L 126.121673 221.656225 
L 126.707076 224.959807 
L 136.65891 208.778678 
L 137.244312 208.76765 
L 147.781549 301.056162 
L 150.123157 283.07558 
L 158.318785 219.239494 
L 159.489589 214.001026 
L 171.783032 164.437101 
L 179.393258 134.715148 
L 179.97866 134.563937 
L 189.930495 160.475986 
L 190.515897 160.953647 
L 200.467731 154.394277 
L 201.053133 155.367151 
L 211.004968 200.665472 
L 211.59037 202.673216 
L 222.127607 161.601885 
L 222.713009 162.009453 
L 232.664843 174.958137 
L 234.421049 180.775714 
L 243.20208 210.740357 
L 243.787482 208.717155 
L 253.739316 137.577576 
L 254.324718 134.595866 
L 264.276553 103.900171 
L 264.861955 103.125165 
L 275.984593 144.373572 
L 285.936428 171.796858 
L 288.278036 159.420836 
L 296.473664 115.528998 
L 297.059067 119.169593 
L 307.010901 211.239402 
L 307.596303 209.570642 
L 317.548138 119.161025 
L 318.13354 116.983272 
L 328.670776 130.475223 
L 339.208013 133.783541 
L 349.159847 135.370216 
L 349.745249 135.577856 
L 352.086857 141.372463 
L 360.282486 161.36164 
L 364.3803 147.314763 
L 370.819722 125.333679 
L 371.405124 125.261696 
L 381.356959 120.388963 
L 381.942361 118.968434 
L 391.894196 101.291385 
L 394.235804 100.494582 
L 402.431432 97.816164 
L 403.016834 97.757607 
L 413.554071 130.222955 
L 415.310277 127.442001 
L 424.091307 113.20138 
L 425.262111 107.813642 
L 434.628544 62.190651 
L 435.213946 61.417903 
L 445.16578 71.121518 
L 446.921986 75.020239 
L 455.703017 94.99638 
L 456.288419 95.607973 
L 466.240253 92.357378 
L 466.825655 92.625414 
L 477.362892 114.765572 
L 487.900129 87.364675 
L 488.485531 87.282229 
L 498.437365 92.154905 
L 499.022767 93.752034 
L 509.560004 129.623728 
L 519.511838 173.271738 
L 520.09724 174.443919 
L 530.634477 137.069901 
L 541.757115 110.181245 
L 551.70895 93.993813 
L 554.63596 102.160197 
L 562.246186 123.203892 
L 563.416991 121.156809 
L 572.783423 105.819841 
L 573.368825 106.023534 
L 583.32066 96.329026 
L 583.906062 96.787291 
L 594.443298 149.827983 
L 604.395133 149.753358 
L 604.980535 149.292643 
L 613.176163 130.642344 
L 615.517771 125.332671 
L 616.688575 123.464065 
L 626.055008 109.775119 
L 628.396616 102.459026 
L 636.592244 77.185456 
L 637.177646 77.488791 
L 647.129481 96.88327 
L 647.714883 97.093003 
L 657.666718 82.543006 
L 658.25212 82.30729 
L 668.789356 100.921991 
L 668.789356 100.921991 
" clip-path="url(#p13db48a92d)" style="fill: none; stroke: #0000ff; stroke-width: 1.5; stroke-linecap: square"/>
   </g>
   <g id="line2d_20">
    <path d="M 83.972727 75.014848 
L 88.655944 93.221268 
L 94.509964 116.048458 
L 95.095366 116.123631 
L 105.0472 109.646056 
L 105.632602 109.694639 
L 115.584437 112.942505 
L 116.169839 114.43501 
L 126.707076 167.376287 
L 136.65891 204.49686 
L 137.244312 206.069561 
L 149.537755 189.891125 
L 158.318785 177.024072 
L 158.904187 177.387801 
L 168.856022 180.66009 
L 170.026826 175.112868 
L 179.393258 127.871675 
L 179.97866 126.758506 
L 189.930495 123.521543 
L 190.515897 125.068827 
L 200.467731 188.233188 
L 201.053133 189.320763 
L 211.004968 136.002762 
L 211.59037 133.929657 
L 213.346576 137.477564 
L 222.127607 154.626432 
L 222.713009 154.680332 
L 232.664843 159.620138 
L 233.250245 160.503253 
L 243.20208 171.773647 
L 243.787482 170.232377 
L 253.739316 129.839355 
L 254.324718 130.033083 
L 264.276553 176.833692 
L 264.861955 178.112615 
L 275.399191 155.684789 
L 285.936428 92.438788 
L 287.692634 102.432755 
L 296.473664 153.787984 
L 297.059067 152.598445 
L 307.010901 113.773054 
L 307.596303 112.281611 
L 317.548138 97.770646 
L 318.13354 98.496059 
L 328.085374 126.013879 
L 329.256178 128.158384 
L 338.622611 146.486464 
L 339.208013 147.317777 
L 349.745249 113.250261 
L 352.086857 129.349448 
L 360.282486 186.545967 
L 360.867888 183.436048 
L 370.819722 104.198797 
L 371.405124 102.766996 
L 381.356959 109.22998 
L 381.942361 109.369935 
L 391.894196 93.114284 
L 392.479598 93.160767 
L 403.016834 144.255036 
L 413.554071 140.728437 
L 415.895679 129.907443 
L 424.091307 92.631356 
L 424.676709 94.06788 
L 434.628544 131.226587 
L 435.213946 131.287832 
L 445.16578 115.103061 
L 445.751182 115.229564 
L 455.703017 133.010147 
L 456.288419 133.716375 
L 466.825655 128.567595 
L 477.362892 140.716358 
L 480.289902 146.465441 
L 487.900129 161.281243 
L 488.485531 160.751489 
L 508.974602 130.640091 
L 509.560004 129.141488 
L 519.511838 95.143419 
L 520.09724 95.90178 
L 530.049075 171.918522 
L 530.634477 174.440502 
L 541.171713 125.038169 
L 551.70895 102.78002 
L 552.294352 101.898444 
L 562.246186 90.532784 
L 562.831589 92.874605 
L 572.783423 146.294525 
L 573.368825 148.013111 
L 583.32066 156.120869 
L 583.906062 154.967853 
L 593.857896 106.415218 
L 594.443298 105.216734 
L 604.980535 154.576548 
L 609.078349 147.275028 
L 615.517771 135.678894 
L 616.103173 136.038502 
L 626.055008 145.761164 
L 626.64041 144.495902 
L 636.592244 133.190174 
L 637.177646 134.202501 
L 647.129481 135.861828 
L 647.714883 134.879686 
L 657.666718 104.094946 
L 658.25212 102.82052 
L 668.789356 123.374849 
L 668.789356 123.374849 
" clip-path="url(#p13db48a92d)" style="fill: none; stroke: #008000; stroke-width: 1.5; stroke-linecap: square"/>
   </g>
   <g id="line2d_21">
    <path d="M 158.229089 95.740563 
L 158.655222 111.286719 
L 243.029742 113.00874 
L 243.455875 83.652752 
L 243.882009 121.581818 
L 327.830395 95.867444 
L 328.256528 92.29665 
L 328.682662 108.026502 
L 329.108796 114.762802 
L 413.057181 119.905677 
L 413.483315 108.995822 
L 413.909449 102.638867 
L 498.283968 78.489669 
L 498.710102 109.041926 
L 499.136236 106.150056 
L 583.084621 125.052889 
L 583.510755 127.873373 
L 583.936889 87.104848 
L 583.936889 87.104848 
" clip-path="url(#p13db48a92d)" style="fill: none; stroke: #00008b; stroke-width: 1.5; stroke-linecap: square"/>
   </g>
   <g id="line2d_22">
    <path d="M 83.9787 104.376277 
L 93.515414 91.969104 
L 94.111459 91.194383 
L 94.707503 90.743083 
L 104.840262 110.494803 
L 105.436306 110.893035 
L 115.569065 86.183717 
L 116.16511 85.180873 
L 126.297868 80.2815 
L 126.893913 80.848746 
L 137.026671 95.629949 
L 137.622716 94.690181 
L 147.755474 74.865827 
L 148.351519 76.102777 
L 157.888233 91.613324 
L 158.484277 92.211274 
L 169.213081 69.776429 
L 179.345839 69.731996 
L 179.941884 70.461325 
L 190.670687 99.988312 
L 200.803445 121.35365 
L 201.39949 120.672582 
L 211.532248 97.613314 
L 212.128293 98.283057 
L 222.261051 113.091621 
L 232.39381 118.064969 
L 232.989855 117.699641 
L 243.718658 100.170593 
L 253.851416 75.492709 
L 254.447461 75.435539 
L 264.580219 83.619588 
L 265.772308 80.047069 
L 275.309022 49.126631 
L 280.673424 72.572858 
L 286.037825 95.592197 
L 296.170584 64.34031 
L 296.766629 63.794883 
L 306.899387 109.888125 
L 307.495432 111.544279 
L 317.62819 124.70898 
L 318.224235 124.788031 
L 328.356993 114.90157 
L 328.953038 115.487876 
L 339.085796 131.940695 
L 340.277886 127.131733 
L 349.814599 87.29713 
L 359.947358 110.306765 
L 360.543403 111.31199 
L 370.676161 111.31014 
L 372.464295 110.768241 
L 381.404964 107.846261 
L 382.001009 108.540027 
L 392.133767 126.630899 
L 392.729812 126.091148 
L 402.86257 111.284059 
L 404.05466 108.421964 
L 413.591374 83.696427 
L 417.167641 91.206143 
L 423.724132 105.054756 
L 424.320177 106.027 
L 435.04898 97.409219 
L 445.181738 95.758554 
L 445.777783 96.093734 
L 455.910541 105.986699 
L 457.698675 106.813926 
L 466.639344 111.158874 
L 467.235389 110.977725 
L 477.368148 104.449743 
L 482.732549 111.438469 
L 487.500906 117.632328 
L 488.096951 118.168209 
L 498.229709 111.567341 
L 498.825754 110.086665 
L 508.958512 62.36135 
L 509.554557 62.253928 
L 519.687315 90.263633 
L 530.416118 98.916628 
L 531.012163 99.081751 
L 541.144922 95.806336 
L 542.933055 97.318261 
L 551.873725 104.579591 
L 562.006483 125.946871 
L 562.602528 126.452354 
L 572.735286 114.881892 
L 573.331331 114.543839 
L 584.060134 105.756342 
L 594.192892 94.252482 
L 594.788937 94.891733 
L 604.325651 108.826063 
L 604.921696 109.482507 
L 607.901919 100.829592 
L 615.054454 79.888883 
L 615.650499 78.770699 
L 625.783257 116.578139 
L 626.379302 117.905938 
L 637.108105 93.555357 
L 647.240863 77.103161 
L 647.836908 76.854024 
L 657.969667 91.741693 
L 658.565711 94.007978 
L 668.102425 118.769456 
L 668.69847 119.978651 
L 669.890559 116.067853 
L 678.831228 88.460048 
L 679.427273 87.104848 
L 679.427273 87.104848 
" clip-path="url(#p13db48a92d)" style="fill: none; stroke: #ff8c00; stroke-width: 1.5; stroke-linecap: square"/>
   </g>
   <g id="line2d_23">
    <path d="M 83.972727 95.740563 
L 85.728933 93.800052 
L 94.509964 83.791545 
L 95.095366 83.861934 
L 105.0472 88.740115 
L 105.632602 90.010901 
L 115.584437 120.738408 
L 116.169839 120.439302 
L 126.121673 78.374226 
L 126.707076 77.586665 
L 137.244312 125.027715 
L 147.781549 119.959537 
L 150.123157 120.000239 
L 158.318785 120.024178 
L 159.489589 118.759274 
L 168.856022 109.650397 
L 170.026826 108.960793 
L 179.393258 102.869427 
L 179.97866 103.608886 
L 189.930495 131.080279 
L 193.442907 139.005236 
L 200.467731 154.952805 
L 201.053133 155.901722 
L 211.59037 116.369804 
L 213.931978 112.500948 
L 222.127607 99.194199 
L 223.883813 102.808312 
L 232.664843 121.327582 
L 233.250245 121.858508 
L 243.20208 121.801309 
L 243.787482 120.410425 
L 253.739316 86.473194 
L 254.324718 85.839448 
L 264.861955 103.155455 
L 274.813789 140.334116 
L 275.399191 141.931256 
L 285.936428 75.243303 
L 287.107232 80.313829 
L 296.473664 122.9741 
L 297.644469 125.019136 
L 307.010901 140.264743 
L 307.596303 139.723372 
L 317.548138 117.130931 
L 318.13354 116.570028 
L 328.085374 119.784281 
L 328.670776 119.655104 
L 338.622611 103.471192 
L 339.208013 102.241428 
L 349.745249 49.260682 
L 350.916053 55.346116 
L 360.282486 107.055327 
L 360.867888 107.560349 
L 370.819722 101.086439 
L 376.088341 99.354834 
L 382.527763 97.289417 
L 391.894196 95.770391 
L 392.479598 96.20968 
L 402.431432 117.210848 
L 403.016834 117.966007 
L 413.554071 97.462795 
L 417.066483 92.361266 
L 424.676709 81.341462 
L 434.628544 70.002122 
L 435.213946 71.321426 
L 445.16578 108.506434 
L 445.751182 109.759656 
L 455.703017 117.823907 
L 456.288419 117.770124 
L 466.240253 91.919861 
L 466.825655 90.81437 
L 477.362892 117.957624 
L 479.7045 104.828902 
L 487.900129 58.278111 
L 488.485531 59.662657 
L 498.437365 101.743146 
L 499.022767 102.813009 
L 509.560004 107.993654 
L 520.09724 114.89847 
L 530.049075 114.902142 
L 530.634477 114.345011 
L 541.171713 90.629254 
L 551.70895 99.224912 
L 553.465156 104.247314 
L 562.246186 129.920527 
L 562.831589 129.897054 
L 572.783423 120.202503 
L 575.125031 116.084665 
L 583.32066 101.456804 
L 583.906062 101.10586 
L 594.443298 102.813733 
L 604.980535 123.223059 
L 607.907545 119.016649 
L 615.517771 107.937382 
L 617.273977 101.734077 
L 626.055008 71.794308 
L 626.64041 73.939622 
L 636.592244 130.477389 
L 637.177646 131.28472 
L 647.129481 111.882965 
L 647.714883 111.650269 
L 657.666718 114.843561 
L 658.25212 114.382852 
L 668.789356 92.286277 
L 668.789356 92.286277 
" clip-path="url(#p13db48a92d)" style="fill: none; stroke: #8b0000; stroke-width: 1.5; stroke-linecap: square"/>
   </g>
   <g id="patch_3">
    <path d="M 54.2 390.04 
L 54.2 25.44 
" style="fill: none; stroke: #000000; stroke-width: 0.8; stroke-linejoin: miter; stroke-linecap: square"/>
   </g>
   <g id="patch_4">
    <path d="M 709.2 390.04 
L 709.2 25.44 
" style="fill: none; stroke: #000000; stroke-width: 0.8; stroke-linejoin: miter; stroke-linecap: square"/>
   </g>
   <g id="patch_5">
    <path d="M 54.2 390.04 
L 709.2 390.04 
" style="fill: none; stroke: #000000; stroke-width: 0.8; stroke-linejoin: miter; stroke-linecap: square"/>
   </g>
   <g id="patch_6">
    <path d="M 54.2 25.44 
L 709.2 25.44 
" style="fill: none; stroke: #000000; stroke-width: 0.8; stroke-linejoin: miter; stroke-linecap: square"/>
   </g>
   <g id="text_18">
    <!-- Comparison of Algorithms on BoxingNoFrameskip-v4 -->
    <g transform="translate(223.644063 19.44) scale(0.12 -0.12)">
     <defs>
      <path id="DejaVuSans-43" d="M 4122 4306 
L 4122 3641 
Q 3803 3938 3442 4084 
Q 3081 4231 2675 4231 
Q 1875 4231 1450 3742 
Q 1025 3253 1025 2328 
Q 1025 1406 1450 917 
Q 1875 428 2675 428 
Q 3081 428 3442 575 
Q 3803 722 4122 1019 
L 4122 359 
Q 3791 134 3420 21 
Q 3050 -91 2638 -91 
Q 1578 -91 968 557 
Q 359 1206 359 2328 
Q 359 3453 968 4101 
Q 1578 4750 2638 4750 
Q 3056 4750 3426 4639 
Q 3797 4528 4122 4306 
z
" transform="scale(0.015625)"/>
      <path id="DejaVuSans-66" d="M 2375 4863 
L 2375 4384 
L 1825 4384 
Q 1516 4384 1395 4259 
Q 1275 4134 1275 3809 
L 1275 3500 
L 2222 3500 
L 2222 3053 
L 1275 3053 
L 1275 0 
L 697 0 
L 697 3053 
L 147 3053 
L 147 3500 
L 697 3500 
L 697 3744 
Q 697 4328 969 4595 
Q 1241 4863 1831 4863 
L 2375 4863 
z
" transform="scale(0.015625)"/>
      <path id="DejaVuSans-41" d="M 2188 4044 
L 1331 1722 
L 3047 1722 
L 2188 4044 
z
M 1831 4666 
L 2547 4666 
L 4325 0 
L 3669 0 
L 3244 1197 
L 1141 1197 
L 716 0 
L 50 0 
L 1831 4666 
z
" transform="scale(0.015625)"/>
      <path id="DejaVuSans-67" d="M 2906 1791 
Q 2906 2416 2648 2759 
Q 2391 3103 1925 3103 
Q 1463 3103 1205 2759 
Q 947 2416 947 1791 
Q 947 1169 1205 825 
Q 1463 481 1925 481 
Q 2391 481 2648 825 
Q 2906 1169 2906 1791 
z
M 3481 434 
Q 3481 -459 3084 -895 
Q 2688 -1331 1869 -1331 
Q 1566 -1331 1297 -1286 
Q 1028 -1241 775 -1147 
L 775 -588 
Q 1028 -725 1275 -790 
Q 1522 -856 1778 -856 
Q 2344 -856 2625 -561 
Q 2906 -266 2906 331 
L 2906 616 
Q 2728 306 2450 153 
Q 2172 0 1784 0 
Q 1141 0 747 490 
Q 353 981 353 1791 
Q 353 2603 747 3093 
Q 1141 3584 1784 3584 
Q 2172 3584 2450 3431 
Q 2728 3278 2906 2969 
L 2906 3500 
L 3481 3500 
L 3481 434 
z
" transform="scale(0.015625)"/>
      <path id="DejaVuSans-68" d="M 3513 2113 
L 3513 0 
L 2938 0 
L 2938 2094 
Q 2938 2591 2744 2837 
Q 2550 3084 2163 3084 
Q 1697 3084 1428 2787 
Q 1159 2491 1159 1978 
L 1159 0 
L 581 0 
L 581 4863 
L 1159 4863 
L 1159 2956 
Q 1366 3272 1645 3428 
Q 1925 3584 2291 3584 
Q 2894 3584 3203 3211 
Q 3513 2838 3513 2113 
z
" transform="scale(0.015625)"/>
      <path id="DejaVuSans-42" d="M 1259 2228 
L 1259 519 
L 2272 519 
Q 2781 519 3026 730 
Q 3272 941 3272 1375 
Q 3272 1813 3026 2020 
Q 2781 2228 2272 2228 
L 1259 2228 
z
M 1259 4147 
L 1259 2741 
L 2194 2741 
Q 2656 2741 2882 2914 
Q 3109 3088 3109 3444 
Q 3109 3797 2882 3972 
Q 2656 4147 2194 4147 
L 1259 4147 
z
M 628 4666 
L 2241 4666 
Q 2963 4666 3353 4366 
Q 3744 4066 3744 3513 
Q 3744 3084 3544 2831 
Q 3344 2578 2956 2516 
Q 3422 2416 3680 2098 
Q 3938 1781 3938 1306 
Q 3938 681 3513 340 
Q 3088 0 2303 0 
L 628 0 
L 628 4666 
z
" transform="scale(0.015625)"/>
      <path id="DejaVuSans-46" d="M 628 4666 
L 3309 4666 
L 3309 4134 
L 1259 4134 
L 1259 2759 
L 3109 2759 
L 3109 2228 
L 1259 2228 
L 1259 0 
L 628 0 
L 628 4666 
z
" transform="scale(0.015625)"/>
      <path id="DejaVuSans-6b" d="M 581 4863 
L 1159 4863 
L 1159 1991 
L 2875 3500 
L 3609 3500 
L 1753 1863 
L 3688 0 
L 2938 0 
L 1159 1709 
L 1159 0 
L 581 0 
L 581 4863 
z
" transform="scale(0.015625)"/>
      <path id="DejaVuSans-2d" d="M 313 2009 
L 1997 2009 
L 1997 1497 
L 313 1497 
L 313 2009 
z
" transform="scale(0.015625)"/>
      <path id="DejaVuSans-76" d="M 191 3500 
L 800 3500 
L 1894 563 
L 2988 3500 
L 3597 3500 
L 2284 0 
L 1503 0 
L 191 3500 
z
" transform="scale(0.015625)"/>
     </defs>
     <use xlink:href="#DejaVuSans-43"/>
     <use xlink:href="#DejaVuSans-6f" transform="translate(69.824219 0)"/>
     <use xlink:href="#DejaVuSans-6d" transform="translate(131.005859 0)"/>
     <use xlink:href="#DejaVuSans-70" transform="translate(228.417969 0)"/>
     <use xlink:href="#DejaVuSans-61" transform="translate(291.894531 0)"/>
     <use xlink:href="#DejaVuSans-72" transform="translate(353.173828 0)"/>
     <use xlink:href="#DejaVuSans-69" transform="translate(394.287109 0)"/>
     <use xlink:href="#DejaVuSans-73" transform="translate(422.070312 0)"/>
     <use xlink:href="#DejaVuSans-6f" transform="translate(474.169922 0)"/>
     <use xlink:href="#DejaVuSans-6e" transform="translate(535.351562 0)"/>
     <use xlink:href="#DejaVuSans-20" transform="translate(598.730469 0)"/>
     <use xlink:href="#DejaVuSans-6f" transform="translate(630.517578 0)"/>
     <use xlink:href="#DejaVuSans-66" transform="translate(691.699219 0)"/>
     <use xlink:href="#DejaVuSans-20" transform="translate(726.904297 0)"/>
     <use xlink:href="#DejaVuSans-41" transform="translate(758.691406 0)"/>
     <use xlink:href="#DejaVuSans-6c" transform="translate(827.099609 0)"/>
     <use xlink:href="#DejaVuSans-67" transform="translate(854.882812 0)"/>
     <use xlink:href="#DejaVuSans-6f" transform="translate(918.359375 0)"/>
     <use xlink:href="#DejaVuSans-72" transform="translate(979.541016 0)"/>
     <use xlink:href="#DejaVuSans-69" transform="translate(1020.654297 0)"/>
     <use xlink:href="#DejaVuSans-74" transform="translate(1048.4375 0)"/>
     <use xlink:href="#DejaVuSans-68" transform="translate(1087.646484 0)"/>
     <use xlink:href="#DejaVuSans-6d" transform="translate(1151.025391 0)"/>
     <use xlink:href="#DejaVuSans-73" transform="translate(1248.4375 0)"/>
     <use xlink:href="#DejaVuSans-20" transform="translate(1300.537109 0)"/>
     <use xlink:href="#DejaVuSans-6f" transform="translate(1332.324219 0)"/>
     <use xlink:href="#DejaVuSans-6e" transform="translate(1393.505859 0)"/>
     <use xlink:href="#DejaVuSans-20" transform="translate(1456.884766 0)"/>
     <use xlink:href="#DejaVuSans-42" transform="translate(1488.671875 0)"/>
     <use xlink:href="#DejaVuSans-6f" transform="translate(1557.275391 0)"/>
     <use xlink:href="#DejaVuSans-78" transform="translate(1615.332031 0)"/>
     <use xlink:href="#DejaVuSans-69" transform="translate(1674.511719 0)"/>
     <use xlink:href="#DejaVuSans-6e" transform="translate(1702.294922 0)"/>
     <use xlink:href="#DejaVuSans-67" transform="translate(1765.673828 0)"/>
     <use xlink:href="#DejaVuSans-4e" transform="translate(1829.150391 0)"/>
     <use xlink:href="#DejaVuSans-6f" transform="translate(1903.955078 0)"/>
     <use xlink:href="#DejaVuSans-46" transform="translate(1965.136719 0)"/>
     <use xlink:href="#DejaVuSans-72" transform="translate(2015.40625 0)"/>
     <use xlink:href="#DejaVuSans-61" transform="translate(2056.519531 0)"/>
     <use xlink:href="#DejaVuSans-6d" transform="translate(2117.798828 0)"/>
     <use xlink:href="#DejaVuSans-65" transform="translate(2215.210938 0)"/>
     <use xlink:href="#DejaVuSans-73" transform="translate(2276.734375 0)"/>
     <use xlink:href="#DejaVuSans-6b" transform="translate(2328.833984 0)"/>
     <use xlink:href="#DejaVuSans-69" transform="translate(2386.744141 0)"/>
     <use xlink:href="#DejaVuSans-70" transform="translate(2414.527344 0)"/>
     <use xlink:href="#DejaVuSans-2d" transform="translate(2478.003906 0)"/>
     <use xlink:href="#DejaVuSans-76" transform="translate(2511.462891 0)"/>
     <use xlink:href="#DejaVuSans-34" transform="translate(2570.642578 0)"/>
    </g>
   </g>
   <g id="legend_1">
    <g id="patch_7">
     <path d="M 61.2 385.04 
L 154.315625 385.04 
Q 156.315625 385.04 156.315625 383.04 
L 156.315625 251.65875 
Q 156.315625 249.65875 154.315625 249.65875 
L 61.2 249.65875 
Q 59.2 249.65875 59.2 251.65875 
L 59.2 383.04 
Q 59.2 385.04 61.2 385.04 
z
" style="fill: #ffffff; opacity: 0.8; stroke: #cccccc; stroke-linejoin: miter"/>
    </g>
    <g id="text_19">
     <!-- Algorithm -->
     <g transform="translate(83.271094 261.257187) scale(0.1 -0.1)">
      <use xlink:href="#DejaVuSans-41"/>
      <use xlink:href="#DejaVuSans-6c" transform="translate(68.408203 0)"/>
      <use xlink:href="#DejaVuSans-67" transform="translate(96.191406 0)"/>
      <use xlink:href="#DejaVuSans-6f" transform="translate(159.667969 0)"/>
      <use xlink:href="#DejaVuSans-72" transform="translate(220.849609 0)"/>
      <use xlink:href="#DejaVuSans-69" transform="translate(261.962891 0)"/>
      <use xlink:href="#DejaVuSans-74" transform="translate(289.746094 0)"/>
      <use xlink:href="#DejaVuSans-68" transform="translate(328.955078 0)"/>
      <use xlink:href="#DejaVuSans-6d" transform="translate(392.333984 0)"/>
     </g>
    </g>
    <g id="line2d_24">
     <path d="M 63.2 272.435313 
L 73.2 272.435313 
L 83.2 272.435313 
" style="fill: none; stroke: #ff00ff; stroke-width: 1.5; stroke-linecap: square"/>
    </g>
    <g id="text_20">
     <!-- c51 -->
     <g transform="translate(91.2 275.935313) scale(0.1 -0.1)">
      <use xlink:href="#DejaVuSans-63"/>
      <use xlink:href="#DejaVuSans-35" transform="translate(54.980469 0)"/>
      <use xlink:href="#DejaVuSans-31" transform="translate(118.603516 0)"/>
     </g>
    </g>
    <g id="line2d_25">
     <path d="M 63.2 287.113438 
L 73.2 287.113438 
L 83.2 287.113438 
" style="fill: none; stroke: #ff0000; stroke-width: 1.5; stroke-linecap: square"/>
    </g>
    <g id="text_21">
     <!-- ddqn -->
     <g transform="translate(91.2 290.613438) scale(0.1 -0.1)">
      <defs>
       <path id="DejaVuSans-71" d="M 947 1747 
Q 947 1113 1208 752 
Q 1469 391 1925 391 
Q 2381 391 2643 752 
Q 2906 1113 2906 1747 
Q 2906 2381 2643 2742 
Q 2381 3103 1925 3103 
Q 1469 3103 1208 2742 
Q 947 2381 947 1747 
z
M 2906 525 
Q 2725 213 2448 61 
Q 2172 -91 1784 -91 
Q 1150 -91 751 415 
Q 353 922 353 1747 
Q 353 2572 751 3078 
Q 1150 3584 1784 3584 
Q 2172 3584 2448 3432 
Q 2725 3281 2906 2969 
L 2906 3500 
L 3481 3500 
L 3481 -1331 
L 2906 -1331 
L 2906 525 
z
" transform="scale(0.015625)"/>
      </defs>
      <use xlink:href="#DejaVuSans-64"/>
      <use xlink:href="#DejaVuSans-64" transform="translate(63.476562 0)"/>
      <use xlink:href="#DejaVuSans-71" transform="translate(126.953125 0)"/>
      <use xlink:href="#DejaVuSans-6e" transform="translate(190.429688 0)"/>
     </g>
    </g>
    <g id="line2d_26">
     <path d="M 63.2 301.791562 
L 73.2 301.791562 
L 83.2 301.791562 
" style="fill: none; stroke: #daa520; stroke-width: 1.5; stroke-linecap: square"/>
    </g>
    <g id="text_22">
     <!-- dqn -->
     <g transform="translate(91.2 305.291562) scale(0.1 -0.1)">
      <use xlink:href="#DejaVuSans-64"/>
      <use xlink:href="#DejaVuSans-71" transform="translate(63.476562 0)"/>
      <use xlink:href="#DejaVuSans-6e" transform="translate(126.953125 0)"/>
     </g>
    </g>
    <g id="line2d_27">
     <path d="M 63.2 316.469688 
L 73.2 316.469688 
L 83.2 316.469688 
" style="fill: none; stroke: #0000ff; stroke-width: 1.5; stroke-linecap: square"/>
    </g>
    <g id="text_23">
     <!-- dueling_dqn -->
     <g transform="translate(91.2 319.969688) scale(0.1 -0.1)">
      <defs>
       <path id="DejaVuSans-5f" d="M 3263 -1063 
L 3263 -1509 
L -63 -1509 
L -63 -1063 
L 3263 -1063 
z
" transform="scale(0.015625)"/>
      </defs>
      <use xlink:href="#DejaVuSans-64"/>
      <use xlink:href="#DejaVuSans-75" transform="translate(63.476562 0)"/>
      <use xlink:href="#DejaVuSans-65" transform="translate(126.855469 0)"/>
      <use xlink:href="#DejaVuSans-6c" transform="translate(188.378906 0)"/>
      <use xlink:href="#DejaVuSans-69" transform="translate(216.162109 0)"/>
      <use xlink:href="#DejaVuSans-6e" transform="translate(243.945312 0)"/>
      <use xlink:href="#DejaVuSans-67" transform="translate(307.324219 0)"/>
      <use xlink:href="#DejaVuSans-5f" transform="translate(370.800781 0)"/>
      <use xlink:href="#DejaVuSans-64" transform="translate(420.800781 0)"/>
      <use xlink:href="#DejaVuSans-71" transform="translate(484.277344 0)"/>
      <use xlink:href="#DejaVuSans-6e" transform="translate(547.753906 0)"/>
     </g>
    </g>
    <g id="line2d_28">
     <path d="M 63.2 331.425938 
L 73.2 331.425938 
L 83.2 331.425938 
" style="fill: none; stroke: #008000; stroke-width: 1.5; stroke-linecap: square"/>
    </g>
    <g id="text_24">
     <!-- per -->
     <g transform="translate(91.2 334.925938) scale(0.1 -0.1)">
      <use xlink:href="#DejaVuSans-70"/>
      <use xlink:href="#DejaVuSans-65" transform="translate(63.476562 0)"/>
      <use xlink:href="#DejaVuSans-72" transform="translate(125 0)"/>
     </g>
    </g>
    <g id="line2d_29">
     <path d="M 63.2 346.104063 
L 73.2 346.104063 
L 83.2 346.104063 
" style="fill: none; stroke: #00008b; stroke-width: 1.5; stroke-linecap: square"/>
    </g>
    <g id="text_25">
     <!-- ppo -->
     <g transform="translate(91.2 349.604063) scale(0.1 -0.1)">
      <use xlink:href="#DejaVuSans-70"/>
      <use xlink:href="#DejaVuSans-70" transform="translate(63.476562 0)"/>
      <use xlink:href="#DejaVuSans-6f" transform="translate(126.953125 0)"/>
     </g>
    </g>
    <g id="line2d_30">
     <path d="M 63.2 360.782188 
L 73.2 360.782188 
L 83.2 360.782188 
" style="fill: none; stroke: #ff8c00; stroke-width: 1.5; stroke-linecap: square"/>
    </g>
    <g id="text_26">
     <!-- reinforce -->
     <g transform="translate(91.2 364.282188) scale(0.1 -0.1)">
      <use xlink:href="#DejaVuSans-72"/>
      <use xlink:href="#DejaVuSans-65" transform="translate(38.863281 0)"/>
      <use xlink:href="#DejaVuSans-69" transform="translate(100.386719 0)"/>
      <use xlink:href="#DejaVuSans-6e" transform="translate(128.169922 0)"/>
      <use xlink:href="#DejaVuSans-66" transform="translate(191.548828 0)"/>
      <use xlink:href="#DejaVuSans-6f" transform="translate(226.753906 0)"/>
      <use xlink:href="#DejaVuSans-72" transform="translate(287.935547 0)"/>
      <use xlink:href="#DejaVuSans-63" transform="translate(326.798828 0)"/>
      <use xlink:href="#DejaVuSans-65" transform="translate(381.779297 0)"/>
     </g>
    </g>
    <g id="line2d_31">
     <path d="M 63.2 375.460312 
L 73.2 375.460312 
L 83.2 375.460312 
" style="fill: none; stroke: #8b0000; stroke-width: 1.5; stroke-linecap: square"/>
    </g>
    <g id="text_27">
     <!-- sac -->
     <g transform="translate(91.2 378.960312) scale(0.1 -0.1)">
      <use xlink:href="#DejaVuSans-73"/>
      <use xlink:href="#DejaVuSans-61" transform="translate(52.099609 0)"/>
      <use xlink:href="#DejaVuSans-63" transform="translate(113.378906 0)"/>
     </g>
    </g>
   </g>
  </g>
 </g>
 <defs>
  <clipPath id="p13db48a92d">
   <rect x="54.2" y="25.44" width="655" height="364.6"/>
  </clipPath>
 </defs>
</svg>
