<?xml version="1.0" encoding="utf-8" standalone="no"?>
<!DOCTYPE svg PUBLIC "-//W3C//DTD SVG 1.1//EN"
  "http://www.w3.org/Graphics/SVG/1.1/DTD/svg11.dtd">
<svg xmlns:xlink="http://www.w3.org/1999/xlink" width="720pt" height="432pt" viewBox="0 0 720 432" xmlns="http://www.w3.org/2000/svg" version="1.1">
 <metadata>
  <rdf:RDF xmlns:dc="http://purl.org/dc/elements/1.1/" xmlns:cc="http://creativecommons.org/ns#" xmlns:rdf="http://www.w3.org/1999/02/22-rdf-syntax-ns#">
   <cc:Work>
    <dc:type rdf:resource="http://purl.org/dc/dcmitype/StillImage"/>
    <dc:date>2025-02-05T20:31:27.912283</dc:date>
    <dc:format>image/svg+xml</dc:format>
    <dc:creator>
     <cc:Agent>
      <dc:title>Matplotlib v3.10.0, https://matplotlib.org/</dc:title>
     </cc:Agent>
    </dc:creator>
   </cc:Work>
  </rdf:RDF>
 </metadata>
 <defs>
  <style type="text/css">*{stroke-linejoin: round; stroke-linecap: butt}</style>
 </defs>
 <g id="figure_1">
  <g id="patch_1">
   <path d="M 0 432 
L 720 432 
L 720 0 
L 0 0 
z
" style="fill: #ffffff"/>
  </g>
  <g id="axes_1">
   <g id="patch_2">
    <path d="M 51.05 390.04 
L 709.2 390.04 
L 709.2 25.44 
L 51.05 25.44 
z
" style="fill: #ffffff"/>
   </g>
   <g id="FillBetweenPolyCollection_1">
    <defs>
     <path id="m22f047fa72" d="M 80.965909 -73.456036 
L 80.965909 -58.532727 
L 81.564826 -64.419969 
L 82.163743 -70.307211 
L 82.76266 -76.194453 
L 83.361577 -82.081695 
L 83.960495 -87.968936 
L 84.559412 -93.856178 
L 85.158329 -99.74342 
L 85.757246 -105.630662 
L 86.356163 -111.517904 
L 86.95508 -117.405146 
L 87.553997 -121.858316 
L 88.152914 -125.330279 
L 88.751831 -128.802242 
L 89.350748 -132.274205 
L 89.949666 -135.746168 
L 90.548583 -139.218131 
L 91.1475 -142.690094 
L 91.746417 -146.162058 
L 92.345334 -149.634021 
L 92.944251 -153.105984 
L 93.543168 -156.379819 
L 94.142085 -158.795097 
L 94.741002 -161.210376 
L 95.339919 -163.625655 
L 95.938837 -166.040933 
L 96.537754 -168.456212 
L 97.136671 -170.871491 
L 97.735588 -173.28677 
L 98.334505 -175.702048 
L 98.933422 -178.117327 
L 99.532339 -180.532606 
L 100.131256 -182.417183 
L 100.730173 -184.153165 
L 101.32909 -185.889147 
L 101.928008 -187.625128 
L 102.526925 -189.36111 
L 103.125842 -191.097091 
L 103.724759 -192.833073 
L 104.323676 -194.569054 
L 104.922593 -196.305036 
L 105.52151 -198.041018 
L 106.120427 -199.720391 
L 106.719344 -201.305418 
L 107.318261 -202.890444 
L 107.917179 -204.475471 
L 108.516096 -205.855293 
L 109.115013 -207.213888 
L 109.71393 -208.572482 
L 110.312847 -209.931076 
L 110.911764 -211.28967 
L 111.510681 -212.648265 
L 112.109598 -214.006859 
L 112.708515 -215.072978 
L 113.307432 -216.129662 
L 113.90635 -217.186347 
L 114.505267 -218.243031 
L 115.104184 -219.299716 
L 115.703101 -220.3564 
L 116.302018 -221.413085 
L 116.900935 -222.469769 
L 117.499852 -223.526453 
L 118.098769 -224.583138 
L 118.697686 -225.512454 
L 119.296603 -226.342706 
L 119.895521 -227.172958 
L 120.494438 -228.00321 
L 121.093355 -228.833462 
L 121.692272 -229.663714 
L 122.291189 -230.493966 
L 122.890106 -231.324218 
L 123.489023 -232.154471 
L 124.08794 -232.984723 
L 124.686857 -233.814975 
L 125.285774 -234.645227 
L 125.884692 -235.475479 
L 126.483609 -236.305731 
L 127.082526 -237.135983 
L 127.681443 -237.966235 
L 128.28036 -238.796487 
L 128.879277 -239.626739 
L 129.478194 -240.456991 
L 130.077111 -241.287243 
L 130.676028 -242.117495 
L 131.274945 -242.664707 
L 131.873862 -243.117571 
L 132.47278 -243.570436 
L 133.071697 -244.023301 
L 133.670614 -244.476166 
L 134.269531 -244.929031 
L 134.868448 -245.381895 
L 135.467365 -245.83476 
L 136.066282 -246.287625 
L 136.665199 -246.74049 
L 137.264116 -247.245245 
L 137.863033 -247.849065 
L 138.461951 -248.452884 
L 139.060868 -249.056704 
L 139.659785 -249.660524 
L 140.258702 -250.264343 
L 140.857619 -250.868163 
L 141.456536 -251.471983 
L 142.055453 -252.075802 
L 142.65437 -252.679622 
L 143.253287 -253.283442 
L 143.852204 -253.604221 
L 144.451122 -253.906131 
L 145.050039 -254.208041 
L 145.648956 -254.509951 
L 146.247873 -254.81186 
L 146.84679 -255.11377 
L 147.445707 -255.41568 
L 148.044624 -255.71759 
L 148.643541 -256.0195 
L 149.242458 -256.32141 
L 149.841375 -256.663417 
L 150.440293 -257.040804 
L 151.03921 -257.418191 
L 151.638127 -257.795579 
L 152.237044 -258.172966 
L 152.835961 -258.550353 
L 153.434878 -258.927741 
L 154.033795 -259.305128 
L 154.632712 -259.682515 
L 155.231629 -260.059902 
L 155.830546 -260.43729 
L 156.429464 -260.814677 
L 157.028381 -261.192064 
L 157.627298 -261.569452 
L 158.226215 -261.946839 
L 158.825132 -262.324226 
L 159.424049 -262.701614 
L 160.022966 -263.079001 
L 160.621883 -263.456388 
L 161.2208 -263.833775 
L 161.819717 -264.211163 
L 162.418635 -264.480051 
L 163.017552 -264.706484 
L 163.616469 -264.932916 
L 164.215386 -265.159348 
L 164.814303 -265.385781 
L 165.41322 -265.612213 
L 166.012137 -265.838645 
L 166.611054 -266.065078 
L 167.209971 -266.29151 
L 167.808888 -266.517943 
L 168.407806 -266.697202 
L 169.006723 -266.772679 
L 169.60564 -266.848156 
L 170.204557 -266.923634 
L 170.803474 -266.999111 
L 171.402391 -267.074589 
L 172.001308 -267.150066 
L 172.600225 -267.225544 
L 173.199142 -267.301021 
L 173.798059 -267.376499 
L 174.396977 -267.451976 
L 174.995894 -267.664256 
L 175.594811 -267.890689 
L 176.193728 -268.117121 
L 176.792645 -268.343554 
L 177.391562 -268.569986 
L 177.990479 -268.796418 
L 178.589396 -269.022851 
L 179.188313 -269.249283 
L 179.78723 -269.475716 
L 180.386148 -269.702148 
L 180.985065 -269.966319 
L 181.583982 -270.268229 
L 182.182899 -270.570139 
L 182.781816 -270.872048 
L 183.380733 -271.173958 
L 183.97965 -271.475868 
L 184.578567 -271.777778 
L 185.177484 -272.079688 
L 185.776401 -272.381598 
L 186.375319 -272.683508 
L 186.974236 -272.971265 
L 187.573153 -273.12222 
L 188.17207 -273.273175 
L 188.770987 -273.42413 
L 189.369904 -273.575085 
L 189.968821 -273.72604 
L 190.567738 -273.876995 
L 191.166655 -274.02795 
L 191.765572 -274.178905 
L 192.364489 -274.32986 
L 192.963407 -274.480815 
L 193.562324 -274.631769 
L 194.161241 -274.782724 
L 194.760158 -274.933679 
L 195.359075 -275.084634 
L 195.957992 -275.235589 
L 196.556909 -275.386544 
L 197.155826 -275.537499 
L 197.754743 -275.688454 
L 198.35366 -275.839409 
L 198.952578 -275.990364 
L 199.551495 -276.162547 
L 200.150412 -276.388979 
L 200.749329 -276.615411 
L 201.348246 -276.841844 
L 201.947163 -277.068276 
L 202.54608 -277.294709 
L 203.144997 -277.521141 
L 203.743914 -277.747573 
L 204.342831 -277.974006 
L 204.941749 -278.200438 
L 205.540666 -278.42687 
L 206.139583 -278.521217 
L 206.7385 -278.596695 
L 207.337417 -278.672172 
L 207.936334 -278.74765 
L 208.535251 -278.823127 
L 209.134168 -278.898605 
L 209.733085 -278.974082 
L 210.332002 -279.049559 
L 210.93092 -279.125037 
L 211.529837 -279.200514 
L 212.128754 -279.311372 
L 212.727671 -279.462327 
L 213.326588 -279.613282 
L 213.925505 -279.764237 
L 214.524422 -279.915192 
L 215.123339 -280.066147 
L 215.722256 -280.217101 
L 216.321173 -280.368056 
L 216.920091 -280.519011 
L 217.519008 -280.669966 
L 218.117925 -280.820921 
L 218.716842 -280.971876 
L 219.315759 -281.122831 
L 219.914676 -281.273786 
L 220.513593 -281.424741 
L 221.11251 -281.575696 
L 221.711427 -281.726651 
L 222.310344 -281.877606 
L 222.909262 -282.02856 
L 223.508179 -282.179515 
L 224.107096 -282.33047 
L 224.706013 -282.431893 
L 225.30493 -282.507371 
L 225.903847 -282.582848 
L 226.502764 -282.658326 
L 227.101681 -282.733803 
L 227.700598 -282.80928 
L 228.299515 -282.884758 
L 228.898433 -282.960235 
L 229.49735 -283.035713 
L 230.096267 -283.11119 
L 230.695184 -283.186668 
L 231.294101 -283.262145 
L 231.893018 -283.337623 
L 232.491935 -283.4131 
L 233.090852 -283.488578 
L 233.689769 -283.564055 
L 234.288686 -283.639532 
L 234.887604 -283.71501 
L 235.486521 -283.790487 
L 236.085438 -283.865965 
L 236.684355 -283.941442 
L 237.283272 -284.01692 
L 237.882189 -284.092397 
L 238.481106 -284.167875 
L 239.080023 -284.243352 
L 239.67894 -284.31883 
L 240.277857 -284.394307 
L 240.876775 -284.469785 
L 241.475692 -284.545262 
L 242.074609 -284.620739 
L 242.673526 -284.696217 
L 243.272443 -284.804716 
L 243.87136 -284.955671 
L 244.470277 -285.106626 
L 245.069194 -285.257581 
L 245.668111 -285.408535 
L 246.267028 -285.55949 
L 246.865945 -285.710445 
L 247.464863 -285.8614 
L 248.06378 -286.012355 
L 248.662697 -286.16331 
L 249.261614 -286.311906 
L 249.860531 -286.387384 
L 250.459448 -286.462861 
L 251.058365 -286.538339 
L 251.657282 -286.613816 
L 252.256199 -286.689294 
L 252.855116 -286.764771 
L 253.454034 -286.840248 
L 254.052951 -286.915726 
L 254.651868 -286.991203 
L 255.250785 -287.066681 
L 255.849702 -287.142158 
L 256.448619 -287.217636 
L 257.047536 -287.293113 
L 257.646453 -287.368591 
L 258.24537 -287.444068 
L 258.844287 -287.519546 
L 259.443205 -287.595023 
L 260.042122 -287.670501 
L 260.641039 -287.745978 
L 261.239956 -287.821455 
L 261.838873 -287.913444 
L 262.43779 -288.064399 
L 263.036707 -288.215353 
L 263.635624 -288.366308 
L 264.234541 -288.517263 
L 264.833458 -288.668218 
L 265.432376 -288.819173 
L 266.031293 -288.970128 
L 266.63021 -289.121083 
L 267.229127 -289.272038 
L 267.828044 -289.422993 
L 268.426961 -289.451297 
L 269.025878 -289.451297 
L 269.624795 -289.451297 
L 270.223712 -289.451297 
L 270.822629 -289.451297 
L 271.421547 -289.451297 
L 272.020464 -289.451297 
L 272.619381 -289.451297 
L 273.218298 -289.451297 
L 273.817215 -289.451297 
L 274.416132 -289.48196 
L 275.015049 -289.557437 
L 275.613966 -289.632914 
L 276.212883 -289.708392 
L 276.8118 -289.783869 
L 277.410718 -289.859347 
L 278.009635 -289.934824 
L 278.608552 -290.010302 
L 279.207469 -290.085779 
L 279.806386 -290.161257 
L 280.405303 -290.236734 
L 281.00422 -290.312212 
L 281.603137 -290.387689 
L 282.202054 -290.463167 
L 282.800971 -290.538644 
L 283.399889 -290.614121 
L 283.998806 -290.689599 
L 284.597723 -290.765076 
L 285.19664 -290.840554 
L 285.795557 -290.916031 
L 286.394474 -290.991509 
L 286.993391 -291.066986 
L 287.592308 -291.142464 
L 288.191225 -291.217941 
L 288.790142 -291.293419 
L 289.38906 -291.368896 
L 289.987977 -291.444374 
L 290.586894 -291.519851 
L 291.185811 -291.595328 
L 291.784728 -291.670806 
L 292.383645 -291.746283 
L 292.982562 -291.821761 
L 293.581479 -291.897238 
L 294.180396 -291.972716 
L 294.779313 -292.048193 
L 295.378231 -292.123671 
L 295.977148 -292.199148 
L 296.576065 -292.274626 
L 297.174982 -292.350103 
L 297.773899 -292.42558 
L 298.372816 -292.501058 
L 298.971733 -292.576535 
L 299.57065 -292.593046 
L 300.169567 -292.593046 
L 300.768484 -292.593046 
L 301.367401 -292.593046 
L 301.966319 -292.593046 
L 302.565236 -292.593046 
L 303.164153 -292.593046 
L 303.76307 -292.593046 
L 304.361987 -292.593046 
L 304.960904 -292.593046 
L 305.559821 -292.62135 
L 306.158738 -292.696828 
L 306.757655 -292.772305 
L 307.356572 -292.847783 
L 307.95549 -292.92326 
L 308.554407 -292.998737 
L 309.153324 -293.074215 
L 309.752241 -293.149692 
L 310.351158 -293.22517 
L 310.950075 -293.300647 
L 311.548992 -293.376125 
L 312.147909 -293.451602 
L 312.746826 -293.52708 
L 313.345743 -293.602557 
L 313.944661 -293.678035 
L 314.543578 -293.753512 
L 315.142495 -293.828989 
L 315.741412 -293.904467 
L 316.340329 -293.979944 
L 316.939246 -294.055422 
L 317.538163 -294.130899 
L 318.13708 -294.163921 
L 318.735997 -294.163921 
L 319.334914 -294.163921 
L 319.933832 -294.163921 
L 320.532749 -294.163921 
L 321.131666 -294.163921 
L 321.730583 -294.163921 
L 322.3295 -294.163921 
L 322.928417 -294.163921 
L 323.527334 -294.163921 
L 324.126251 -294.175714 
L 324.725168 -294.251192 
L 325.324085 -294.326669 
L 325.923003 -294.402146 
L 326.52192 -294.477624 
L 327.120837 -294.553101 
L 327.719754 -294.628579 
L 328.318671 -294.704056 
L 328.917588 -294.779534 
L 329.516505 -294.855011 
L 330.115422 -294.930489 
L 330.714339 -294.949358 
L 331.313256 -294.949358 
L 331.912174 -294.949358 
L 332.511091 -294.949358 
L 333.110008 -294.949358 
L 333.708925 -294.949358 
L 334.307842 -294.949358 
L 334.906759 -294.949358 
L 335.505676 -294.949358 
L 336.104593 -294.949358 
L 336.70351 -294.975303 
L 337.302427 -295.050781 
L 337.901345 -295.126258 
L 338.500262 -295.201736 
L 339.099179 -295.277213 
L 339.698096 -295.352691 
L 340.297013 -295.428168 
L 340.89593 -295.503646 
L 341.494847 -295.579123 
L 342.093764 -295.654601 
L 342.692681 -295.730078 
L 343.291598 -295.734795 
L 343.890516 -295.734795 
L 344.489433 -295.734795 
L 345.08835 -295.734795 
L 345.687267 -295.734795 
L 346.286184 -295.734795 
L 346.885101 -295.734795 
L 347.484018 -295.734795 
L 348.082935 -295.734795 
L 348.681852 -295.734795 
L 349.280769 -295.774893 
L 349.879687 -295.85037 
L 350.478604 -295.925848 
L 351.077521 -296.001325 
L 351.676438 -296.076803 
L 352.275355 -296.15228 
L 352.874272 -296.227758 
L 353.473189 -296.303235 
L 354.072106 -296.378712 
L 354.671023 -296.45419 
L 355.26994 -296.520233 
L 355.868857 -296.520233 
L 356.467775 -296.520233 
L 357.066692 -296.520233 
L 357.665609 -296.520233 
L 358.264526 -296.520233 
L 358.863443 -296.520233 
L 359.46236 -296.520233 
L 360.061277 -296.520233 
L 360.660194 -296.520233 
L 361.259111 -296.520233 
L 361.858028 -296.574482 
L 362.456946 -296.64996 
L 363.055863 -296.725437 
L 363.65478 -296.800914 
L 364.253697 -296.876392 
L 364.852614 -296.951869 
L 365.451531 -297.027347 
L 366.050448 -297.102824 
L 366.649365 -297.178302 
L 367.248282 -297.253779 
L 367.847199 -297.30567 
L 368.446117 -297.30567 
L 369.045034 -297.30567 
L 369.643951 -297.30567 
L 370.242868 -297.30567 
L 370.841785 -297.30567 
L 371.440702 -297.30567 
L 372.039619 -297.30567 
L 372.638536 -297.30567 
L 373.237453 -297.30567 
L 373.83637 -297.30567 
L 374.435288 -297.30567 
L 375.034205 -297.30567 
L 375.633122 -297.30567 
L 376.232039 -297.30567 
L 376.830956 -297.30567 
L 377.429873 -297.30567 
L 378.02879 -297.30567 
L 378.627707 -297.30567 
L 379.226624 -297.30567 
L 379.825541 -297.30567 
L 380.424459 -297.343409 
L 381.023376 -297.418886 
L 381.622293 -297.494364 
L 382.22121 -297.569841 
L 382.820127 -297.645319 
L 383.419044 -297.720796 
L 384.017961 -297.796273 
L 384.616878 -297.871751 
L 385.215795 -297.947228 
L 385.814712 -298.022706 
L 386.41363 -298.091107 
L 387.012547 -298.091107 
L 387.611464 -298.091107 
L 388.210381 -298.091107 
L 388.809298 -298.091107 
L 389.408215 -298.091107 
L 390.007132 -298.091107 
L 390.606049 -298.091107 
L 391.204966 -298.091107 
L 391.803883 -298.091107 
L 392.402801 -298.091107 
L 393.001718 -298.142998 
L 393.600635 -298.218475 
L 394.199552 -298.293953 
L 394.798469 -298.36943 
L 395.397386 -298.444908 
L 395.996303 -298.520385 
L 396.59522 -298.595863 
L 397.194137 -298.67134 
L 397.793054 -298.746818 
L 398.391972 -298.822295 
L 398.990889 -298.876545 
L 399.589806 -298.876545 
L 400.188723 -298.876545 
L 400.78764 -298.876545 
L 401.386557 -298.876545 
L 401.985474 -298.876545 
L 402.584391 -298.876545 
L 403.183308 -298.876545 
L 403.782225 -298.876545 
L 404.381143 -298.876545 
L 404.98006 -298.876545 
L 405.578977 -298.876545 
L 406.177894 -298.876545 
L 406.776811 -298.876545 
L 407.375728 -298.876545 
L 407.974645 -298.876545 
L 408.573562 -298.876545 
L 409.172479 -298.876545 
L 409.771396 -298.876545 
L 410.370313 -298.876545 
L 410.969231 -298.876545 
L 411.568148 -298.911925 
L 412.167065 -298.987402 
L 412.765982 -299.06288 
L 413.364899 -299.138357 
L 413.963816 -299.213834 
L 414.562733 -299.289312 
L 415.16165 -299.364789 
L 415.760567 -299.440267 
L 416.359484 -299.515744 
L 416.958402 -299.591222 
L 417.557319 -299.661982 
L 418.156236 -299.661982 
L 418.755153 -299.661982 
L 419.35407 -299.661982 
L 419.952987 -299.661982 
L 420.551904 -299.661982 
L 421.150821 -299.661982 
L 421.749738 -299.661982 
L 422.348655 -299.661982 
L 422.947573 -299.661982 
L 423.54649 -299.661982 
L 424.145407 -299.661982 
L 424.744324 -299.661982 
L 425.343241 -299.661982 
L 425.942158 -299.661982 
L 426.541075 -299.661982 
L 427.139992 -299.661982 
L 427.738909 -299.661982 
L 428.337826 -299.661982 
L 428.936744 -299.661982 
L 429.535661 -299.661982 
L 430.134578 -299.680851 
L 430.733495 -299.756329 
L 431.332412 -299.831806 
L 431.931329 -299.907284 
L 432.530246 -299.982761 
L 433.129163 -300.058239 
L 433.72808 -300.133716 
L 434.326997 -300.209193 
L 434.925915 -300.284671 
L 435.524832 -300.360148 
L 436.123749 -300.435626 
L 436.722666 -300.383735 
L 437.321583 -300.308258 
L 437.9205 -300.23278 
L 438.519417 -300.157303 
L 439.118334 -300.081825 
L 439.717251 -300.006348 
L 440.316168 -299.93087 
L 440.915086 -299.855393 
L 441.514003 -299.779915 
L 442.11292 -299.704438 
L 442.711837 -299.695003 
L 443.310754 -299.770481 
L 443.909671 -299.845958 
L 444.508588 -299.921436 
L 445.107505 -299.996913 
L 445.706422 -300.072391 
L 446.305339 -300.147868 
L 446.904257 -300.223346 
L 447.503174 -300.298823 
L 448.102091 -300.3743 
L 448.701008 -300.447419 
L 449.299925 -300.447419 
L 449.898842 -300.447419 
L 450.497759 -300.447419 
L 451.096676 -300.447419 
L 451.695593 -300.447419 
L 452.29451 -300.447419 
L 452.893428 -300.447419 
L 453.492345 -300.447419 
L 454.091262 -300.447419 
L 454.690179 -300.447419 
L 455.289096 -300.447419 
L 455.888013 -300.447419 
L 456.48693 -300.447419 
L 457.085847 -300.447419 
L 457.684764 -300.447419 
L 458.283681 -300.447419 
L 458.882599 -300.447419 
L 459.481516 -300.447419 
L 460.080433 -300.447419 
L 460.67935 -300.447419 
L 461.278267 -300.46393 
L 461.877184 -300.539407 
L 462.476101 -300.614885 
L 463.075018 -300.690362 
L 463.673935 -300.76584 
L 464.272852 -300.841317 
L 464.871769 -300.916795 
L 465.470687 -300.992272 
L 466.069604 -301.06775 
L 466.668521 -301.143227 
L 467.267438 -301.218705 
L 467.866355 -301.171531 
L 468.465272 -301.096054 
L 469.064189 -301.020576 
L 469.663106 -300.945099 
L 470.262023 -300.869621 
L 470.86094 -300.794144 
L 471.459858 -300.718666 
L 472.058775 -300.643189 
L 472.657692 -300.567711 
L 473.256609 -300.492234 
L 473.855526 -300.478082 
L 474.454443 -300.553559 
L 475.05336 -300.629037 
L 475.652277 -300.704514 
L 476.251194 -300.779992 
L 476.850111 -300.855469 
L 477.449029 -300.930947 
L 478.047946 -301.006424 
L 478.646863 -301.081902 
L 479.24578 -301.157379 
L 479.844697 -301.232857 
L 480.443614 -301.232857 
L 481.042531 -301.232857 
L 481.641448 -301.232857 
L 482.240365 -301.232857 
L 482.839282 -301.232857 
L 483.4382 -301.232857 
L 484.037117 -301.232857 
L 484.636034 -301.232857 
L 485.234951 -301.232857 
L 485.833868 -301.232857 
L 486.432785 -301.232857 
L 487.031702 -301.232857 
L 487.630619 -301.232857 
L 488.229536 -301.232857 
L 488.828453 -301.232857 
L 489.427371 -301.232857 
L 490.026288 -301.232857 
L 490.625205 -301.232857 
L 491.224122 -301.232857 
L 491.823039 -301.232857 
L 492.421956 -301.232857 
L 493.020873 -301.232857 
L 493.61979 -301.232857 
L 494.218707 -301.232857 
L 494.817624 -301.232857 
L 495.416542 -301.232857 
L 496.015459 -301.232857 
L 496.614376 -301.232857 
L 497.213293 -301.232857 
L 497.81221 -301.232857 
L 498.411127 -301.232857 
L 499.010044 -301.291823 
L 499.608961 -301.367301 
L 500.207878 -301.442778 
L 500.806795 -301.518256 
L 501.405713 -301.593733 
L 502.00463 -301.669211 
L 502.603547 -301.744688 
L 503.202464 -301.820166 
L 503.801381 -301.895643 
L 504.400298 -301.97112 
L 504.999215 -302.018294 
L 505.598132 -302.018294 
L 506.197049 -302.018294 
L 506.795966 -302.018294 
L 507.394884 -302.018294 
L 507.993801 -302.018294 
L 508.592718 -302.018294 
L 509.191635 -302.018294 
L 509.790552 -302.018294 
L 510.389469 -302.018294 
L 510.988386 -302.018294 
L 511.587303 -302.018294 
L 512.18622 -302.018294 
L 512.785137 -302.018294 
L 513.384055 -302.018294 
L 513.982972 -302.018294 
L 514.581889 -302.018294 
L 515.180806 -302.018294 
L 515.779723 -302.018294 
L 516.37864 -302.018294 
L 516.977557 -302.018294 
L 517.576474 -302.018294 
L 518.175391 -302.018294 
L 518.774308 -302.018294 
L 519.373225 -302.018294 
L 519.972143 -302.018294 
L 520.57106 -302.018294 
L 521.169977 -302.018294 
L 521.768894 -302.018294 
L 522.367811 -302.018294 
L 522.966728 -302.018294 
L 523.565645 -302.018294 
L 524.164562 -302.018294 
L 524.763479 -302.018294 
L 525.362396 -302.018294 
L 525.961314 -302.018294 
L 526.560231 -302.018294 
L 527.159148 -302.018294 
L 527.758065 -302.018294 
L 528.356982 -302.018294 
L 528.955899 -302.018294 
L 529.554816 -302.018294 
L 530.153733 -302.074902 
L 530.75265 -302.150379 
L 531.351567 -302.225857 
L 531.950485 -302.301334 
L 532.549402 -302.376812 
L 533.148319 -302.452289 
L 533.747236 -302.527767 
L 534.346153 -302.603244 
L 534.94507 -302.678722 
L 535.543987 -302.754199 
L 536.142904 -302.803731 
L 536.741821 -302.803731 
L 537.340738 -302.803731 
L 537.939656 -302.803731 
L 538.538573 -302.803731 
L 539.13749 -302.803731 
L 539.736407 -302.803731 
L 540.335324 -302.803731 
L 540.934241 -302.803731 
L 541.533158 -302.803731 
L 542.132075 -302.803731 
L 542.730992 -302.803731 
L 543.329909 -302.803731 
L 543.928827 -302.803731 
L 544.527744 -302.803731 
L 545.126661 -302.803731 
L 545.725578 -302.803731 
L 546.324495 -302.803731 
L 546.923412 -302.803731 
L 547.522329 -302.803731 
L 548.121246 -302.803731 
L 548.720163 -302.803731 
L 549.31908 -302.803731 
L 549.917998 -302.803731 
L 550.516915 -302.803731 
L 551.115832 -302.803731 
L 551.714749 -302.803731 
L 552.313666 -302.803731 
L 552.912583 -302.803731 
L 553.5115 -302.803731 
L 554.110417 -302.803731 
L 554.709334 -302.803731 
L 555.308251 -302.803731 
L 555.907169 -302.803731 
L 556.506086 -302.803731 
L 557.105003 -302.803731 
L 557.70392 -302.803731 
L 558.302837 -302.803731 
L 558.901754 -302.803731 
L 559.500671 -302.803731 
L 560.099588 -302.803731 
L 560.698505 -302.803731 
L 561.297422 -302.857981 
L 561.89634 -302.933458 
L 562.495257 -303.008935 
L 563.094174 -303.084413 
L 563.693091 -303.15989 
L 564.292008 -303.235368 
L 564.890925 -303.310845 
L 565.489842 -303.386323 
L 566.088759 -303.4618 
L 566.687676 -303.537278 
L 567.286593 -303.589168 
L 567.885511 -303.589168 
L 568.484428 -303.589168 
L 569.083345 -303.589168 
L 569.682262 -303.589168 
L 570.281179 -303.589168 
L 570.880096 -303.589168 
L 571.479013 -303.589168 
L 572.07793 -303.589168 
L 572.676847 -303.589168 
L 573.275764 -303.589168 
L 573.874681 -303.520767 
L 574.473599 -303.44529 
L 575.072516 -303.369812 
L 575.671433 -303.294335 
L 576.27035 -303.218857 
L 576.869267 -303.14338 
L 577.468184 -303.067902 
L 578.067101 -302.992425 
L 578.666018 -302.916947 
L 579.264935 -302.84147 
L 579.863852 -302.84147 
L 580.46277 -302.916947 
L 581.061687 -302.992425 
L 581.660604 -303.067902 
L 582.259521 -303.14338 
L 582.858438 -303.218857 
L 583.457355 -303.294335 
L 584.056272 -303.369812 
L 584.655189 -303.44529 
L 585.254106 -303.520767 
L 585.853023 -303.589168 
L 586.451941 -303.589168 
L 587.050858 -303.589168 
L 587.649775 -303.589168 
L 588.248692 -303.589168 
L 588.847609 -303.589168 
L 589.446526 -303.589168 
L 590.045443 -303.589168 
L 590.64436 -303.589168 
L 591.243277 -303.589168 
L 591.842194 -303.589168 
L 592.441112 -303.641059 
L 593.040029 -303.716537 
L 593.638946 -303.792014 
L 594.237863 -303.867492 
L 594.83678 -303.942969 
L 595.435697 -304.018447 
L 596.034614 -304.093924 
L 596.633531 -304.169401 
L 597.232448 -304.244879 
L 597.831365 -304.320356 
L 598.430283 -304.374606 
L 599.0292 -304.374606 
L 599.628117 -304.374606 
L 600.227034 -304.374606 
L 600.825951 -304.374606 
L 601.424868 -304.374606 
L 602.023785 -304.374606 
L 602.622702 -304.374606 
L 603.221619 -304.374606 
L 603.820536 -304.374606 
L 604.419454 -304.374606 
L 605.018371 -304.374606 
L 605.617288 -304.374606 
L 606.216205 -304.374606 
L 606.815122 -304.374606 
L 607.414039 -304.374606 
L 608.012956 -304.374606 
L 608.611873 -304.374606 
L 609.21079 -304.374606 
L 609.809707 -304.374606 
L 610.408625 -304.374606 
L 611.007542 -304.374606 
L 611.606459 -304.374606 
L 612.205376 -304.374606 
L 612.804293 -304.374606 
L 613.40321 -304.374606 
L 614.002127 -304.374606 
L 614.601044 -304.374606 
L 615.199961 -304.374606 
L 615.798878 -304.374606 
L 616.397796 -304.374606 
L 616.996713 -304.374606 
L 617.59563 -304.374606 
L 618.194547 -304.374606 
L 618.793464 -304.374606 
L 619.392381 -304.374606 
L 619.991298 -304.374606 
L 620.590215 -304.374606 
L 621.189132 -304.374606 
L 621.788049 -304.374606 
L 622.386967 -304.374606 
L 622.985884 -304.374606 
L 623.584801 -304.374606 
L 624.183718 -304.374606 
L 624.782635 -304.374606 
L 625.381552 -304.374606 
L 625.980469 -304.374606 
L 626.579386 -304.374606 
L 627.178303 -304.374606 
L 627.77722 -304.374606 
L 628.376138 -304.374606 
L 628.975055 -304.374606 
L 629.573972 -304.374606 
L 630.172889 -304.374606 
L 630.771806 -304.374606 
L 631.370723 -304.374606 
L 631.96964 -304.374606 
L 632.568557 -304.374606 
L 633.167474 -304.374606 
L 633.766391 -304.374606 
L 634.365308 -304.374606 
L 634.964226 -304.374606 
L 635.563143 -304.374606 
L 636.16206 -304.374606 
L 636.760977 -304.374606 
L 637.359894 -304.374606 
L 637.958811 -304.374606 
L 638.557728 -304.374606 
L 639.156645 -304.374606 
L 639.755562 -304.374606 
L 640.354479 -304.374606 
L 640.953397 -304.374606 
L 641.552314 -304.374606 
L 642.151231 -304.407627 
L 642.750148 -304.483105 
L 643.349065 -304.558582 
L 643.947982 -304.63406 
L 644.546899 -304.709537 
L 645.145816 -304.785014 
L 645.744733 -304.860492 
L 646.34365 -304.935969 
L 646.942568 -305.011447 
L 647.541485 -305.086924 
L 648.140402 -305.160043 
L 648.739319 -305.160043 
L 649.338236 -305.160043 
L 649.937153 -305.160043 
L 650.53607 -305.160043 
L 651.134987 -305.160043 
L 651.733904 -305.160043 
L 652.332821 -305.160043 
L 652.931739 -305.160043 
L 653.530656 -305.160043 
L 654.129573 -305.160043 
L 654.72849 -305.160043 
L 655.327407 -305.160043 
L 655.926324 -305.160043 
L 656.525241 -305.160043 
L 657.124158 -305.160043 
L 657.723075 -305.160043 
L 658.321992 -305.160043 
L 658.92091 -305.160043 
L 659.519827 -305.160043 
L 660.118744 -305.160043 
L 660.717661 -305.160043 
L 661.316578 -305.160043 
L 661.915495 -305.160043 
L 662.514412 -305.160043 
L 663.113329 -305.160043 
L 663.712246 -305.160043 
L 664.311163 -305.160043 
L 664.910081 -305.160043 
L 665.508998 -305.160043 
L 666.107915 -305.160043 
L 666.706832 -305.160043 
L 667.305749 -305.160043 
L 667.904666 -305.160043 
L 668.503583 -305.160043 
L 669.1025 -305.160043 
L 669.701417 -305.160043 
L 670.300334 -305.160043 
L 670.899252 -305.160043 
L 671.498169 -305.160043 
L 672.097086 -305.160043 
L 672.696003 -305.160043 
L 673.29492 -305.160043 
L 673.893837 -305.160043 
L 674.492754 -305.160043 
L 675.091671 -305.160043 
L 675.690588 -305.160043 
L 676.289505 -305.160043 
L 676.888423 -305.160043 
L 677.48734 -305.160043 
L 678.086257 -305.160043 
L 678.685174 -305.160043 
L 679.284091 -305.160043 
L 679.284091 -389.987273 
L 679.284091 -389.987273 
L 678.685174 -389.987273 
L 678.086257 -389.987273 
L 677.48734 -389.987273 
L 676.888423 -389.987273 
L 676.289505 -389.987273 
L 675.690588 -389.987273 
L 675.091671 -389.987273 
L 674.492754 -389.987273 
L 673.893837 -389.987273 
L 673.29492 -389.987273 
L 672.696003 -389.987273 
L 672.097086 -389.987273 
L 671.498169 -389.987273 
L 670.899252 -389.987273 
L 670.300334 -389.987273 
L 669.701417 -389.987273 
L 669.1025 -389.987273 
L 668.503583 -389.987273 
L 667.904666 -389.987273 
L 667.305749 -389.987273 
L 666.706832 -389.987273 
L 666.107915 -389.987273 
L 665.508998 -389.987273 
L 664.910081 -389.987273 
L 664.311163 -389.987273 
L 663.712246 -389.987273 
L 663.113329 -389.987273 
L 662.514412 -389.987273 
L 661.915495 -389.987273 
L 661.316578 -389.987273 
L 660.717661 -389.987273 
L 660.118744 -389.987273 
L 659.519827 -389.987273 
L 658.92091 -389.987273 
L 658.321992 -389.987273 
L 657.723075 -389.987273 
L 657.124158 -389.987273 
L 656.525241 -389.987273 
L 655.926324 -389.987273 
L 655.327407 -389.987273 
L 654.72849 -389.987273 
L 654.129573 -389.958969 
L 653.530656 -389.883491 
L 652.931739 -389.808014 
L 652.332821 -389.732536 
L 651.733904 -389.657059 
L 651.134987 -389.581581 
L 650.53607 -389.506104 
L 649.937153 -389.430626 
L 649.338236 -389.355149 
L 648.739319 -389.279672 
L 648.140402 -389.204194 
L 647.541485 -389.274954 
L 646.942568 -389.350432 
L 646.34365 -389.425909 
L 645.744733 -389.501387 
L 645.145816 -389.576864 
L 644.546899 -389.652342 
L 643.947982 -389.727819 
L 643.349065 -389.803296 
L 642.750148 -389.878774 
L 642.151231 -389.954251 
L 641.552314 -389.944817 
L 640.953397 -389.869339 
L 640.354479 -389.793862 
L 639.755562 -389.718384 
L 639.156645 -389.642907 
L 638.557728 -389.567429 
L 637.958811 -389.491952 
L 637.359894 -389.416474 
L 636.760977 -389.340997 
L 636.16206 -389.26552 
L 635.563143 -389.201835 
L 634.964226 -389.201835 
L 634.365308 -389.201835 
L 633.766391 -389.201835 
L 633.167474 -389.201835 
L 632.568557 -389.201835 
L 631.96964 -389.201835 
L 631.370723 -389.201835 
L 630.771806 -389.201835 
L 630.172889 -389.201835 
L 629.573972 -389.201835 
L 628.975055 -389.201835 
L 628.376138 -389.201835 
L 627.77722 -389.201835 
L 627.178303 -389.201835 
L 626.579386 -389.201835 
L 625.980469 -389.201835 
L 625.381552 -389.201835 
L 624.782635 -389.201835 
L 624.183718 -389.201835 
L 623.584801 -389.201835 
L 622.985884 -389.201835 
L 622.386967 -389.201835 
L 621.788049 -389.201835 
L 621.189132 -389.201835 
L 620.590215 -389.201835 
L 619.991298 -389.201835 
L 619.392381 -389.201835 
L 618.793464 -389.201835 
L 618.194547 -389.201835 
L 617.59563 -389.201835 
L 616.996713 -389.201835 
L 616.397796 -389.201835 
L 615.798878 -389.201835 
L 615.199961 -389.201835 
L 614.601044 -389.201835 
L 614.002127 -389.201835 
L 613.40321 -389.201835 
L 612.804293 -389.201835 
L 612.205376 -389.201835 
L 611.606459 -389.201835 
L 611.007542 -389.201835 
L 610.408625 -389.161738 
L 609.809707 -389.086261 
L 609.21079 -389.010783 
L 608.611873 -388.935306 
L 608.012956 -388.859828 
L 607.414039 -388.784351 
L 606.815122 -388.708873 
L 606.216205 -388.633396 
L 605.617288 -388.557918 
L 605.018371 -388.482441 
L 604.419454 -388.416398 
L 603.820536 -388.416398 
L 603.221619 -388.416398 
L 602.622702 -388.416398 
L 602.023785 -388.416398 
L 601.424868 -388.416398 
L 600.825951 -388.416398 
L 600.227034 -388.416398 
L 599.628117 -388.416398 
L 599.0292 -388.416398 
L 598.430283 -388.416398 
L 597.831365 -388.416398 
L 597.232448 -388.416398 
L 596.633531 -388.416398 
L 596.034614 -388.416398 
L 595.435697 -388.416398 
L 594.83678 -388.416398 
L 594.237863 -388.416398 
L 593.638946 -388.416398 
L 593.040029 -388.416398 
L 592.441112 -388.416398 
L 591.842194 -388.416398 
L 591.243277 -388.416398 
L 590.64436 -388.416398 
L 590.045443 -388.416398 
L 589.446526 -388.416398 
L 588.847609 -388.416398 
L 588.248692 -388.416398 
L 587.649775 -388.416398 
L 587.050858 -388.416398 
L 586.451941 -388.416398 
L 585.853023 -388.416398 
L 585.254106 -388.416398 
L 584.655189 -388.416398 
L 584.056272 -388.416398 
L 583.457355 -388.416398 
L 582.858438 -388.416398 
L 582.259521 -388.416398 
L 581.660604 -388.416398 
L 581.061687 -388.416398 
L 580.46277 -388.416398 
L 579.863852 -388.416398 
L 579.264935 -388.416398 
L 578.666018 -388.416398 
L 578.067101 -388.416398 
L 577.468184 -388.416398 
L 576.869267 -388.416398 
L 576.27035 -388.416398 
L 575.671433 -388.416398 
L 575.072516 -388.416398 
L 574.473599 -388.416398 
L 573.874681 -388.416398 
L 573.275764 -388.416398 
L 572.676847 -388.416398 
L 572.07793 -388.416398 
L 571.479013 -388.416398 
L 570.880096 -388.416398 
L 570.281179 -388.416398 
L 569.682262 -388.416398 
L 569.083345 -388.416398 
L 568.484428 -388.416398 
L 567.885511 -388.416398 
L 567.286593 -388.416398 
L 566.687676 -388.364507 
L 566.088759 -388.28903 
L 565.489842 -388.213552 
L 564.890925 -388.138075 
L 564.292008 -388.062598 
L 563.693091 -387.98712 
L 563.094174 -387.911643 
L 562.495257 -387.836165 
L 561.89634 -387.760688 
L 561.297422 -387.68521 
L 560.698505 -387.652189 
L 560.099588 -387.727666 
L 559.500671 -387.803144 
L 558.901754 -387.878621 
L 558.302837 -387.954099 
L 557.70392 -388.029576 
L 557.105003 -388.105054 
L 556.506086 -388.180531 
L 555.907169 -388.256009 
L 555.308251 -388.331486 
L 554.709334 -388.406963 
L 554.110417 -388.350355 
L 553.5115 -388.274878 
L 552.912583 -388.1994 
L 552.313666 -388.123923 
L 551.714749 -388.048445 
L 551.115832 -387.972968 
L 550.516915 -387.897491 
L 549.917998 -387.822013 
L 549.31908 -387.746536 
L 548.720163 -387.671058 
L 548.121246 -387.630961 
L 547.522329 -387.630961 
L 546.923412 -387.630961 
L 546.324495 -387.630961 
L 545.725578 -387.630961 
L 545.126661 -387.630961 
L 544.527744 -387.630961 
L 543.928827 -387.630961 
L 543.329909 -387.630961 
L 542.730992 -387.630961 
L 542.132075 -387.630961 
L 541.533158 -387.630961 
L 540.934241 -387.630961 
L 540.335324 -387.630961 
L 539.736407 -387.630961 
L 539.13749 -387.630961 
L 538.538573 -387.630961 
L 537.939656 -387.630961 
L 537.340738 -387.630961 
L 536.741821 -387.630961 
L 536.142904 -387.630961 
L 535.543987 -387.630961 
L 534.94507 -387.630961 
L 534.346153 -387.630961 
L 533.747236 -387.630961 
L 533.148319 -387.630961 
L 532.549402 -387.630961 
L 531.950485 -387.630961 
L 531.351567 -387.630961 
L 530.75265 -387.630961 
L 530.153733 -387.630961 
L 529.554816 -387.612091 
L 528.955899 -387.536614 
L 528.356982 -387.461137 
L 527.758065 -387.385659 
L 527.159148 -387.310182 
L 526.560231 -387.234704 
L 525.961314 -387.159227 
L 525.362396 -387.083749 
L 524.763479 -387.008272 
L 524.164562 -386.932794 
L 523.565645 -386.857317 
L 522.966728 -386.781839 
L 522.367811 -386.706362 
L 521.768894 -386.630884 
L 521.169977 -386.555407 
L 520.57106 -386.47993 
L 519.972143 -386.404452 
L 519.373225 -386.328975 
L 518.774308 -386.253497 
L 518.175391 -386.17802 
L 517.576474 -386.102542 
L 516.977557 -386.093108 
L 516.37864 -386.168585 
L 515.779723 -386.244062 
L 515.180806 -386.31954 
L 514.581889 -386.395017 
L 513.982972 -386.470495 
L 513.384055 -386.545972 
L 512.785137 -386.62145 
L 512.18622 -386.696927 
L 511.587303 -386.772405 
L 510.988386 -386.843165 
L 510.389469 -386.767687 
L 509.790552 -386.69221 
L 509.191635 -386.616732 
L 508.592718 -386.541255 
L 507.993801 -386.465778 
L 507.394884 -386.3903 
L 506.795966 -386.314823 
L 506.197049 -386.239345 
L 505.598132 -386.163868 
L 504.999215 -386.08839 
L 504.400298 -386.060086 
L 503.801381 -386.060086 
L 503.202464 -386.060086 
L 502.603547 -386.060086 
L 502.00463 -386.060086 
L 501.405713 -386.060086 
L 500.806795 -386.060086 
L 500.207878 -386.060086 
L 499.608961 -386.060086 
L 499.010044 -386.060086 
L 498.411127 -386.060086 
L 497.81221 -386.060086 
L 497.213293 -386.060086 
L 496.614376 -386.060086 
L 496.015459 -386.060086 
L 495.416542 -386.060086 
L 494.817624 -386.060086 
L 494.218707 -386.060086 
L 493.61979 -386.060086 
L 493.020873 -386.060086 
L 492.421956 -386.060086 
L 491.823039 -385.998761 
L 491.224122 -385.923283 
L 490.625205 -385.847806 
L 490.026288 -385.772328 
L 489.427371 -385.696851 
L 488.828453 -385.621373 
L 488.229536 -385.545896 
L 487.630619 -385.470419 
L 487.031702 -385.394941 
L 486.432785 -385.319464 
L 485.833868 -385.274649 
L 485.234951 -385.274649 
L 484.636034 -385.274649 
L 484.037117 -385.274649 
L 483.4382 -385.274649 
L 482.839282 -385.274649 
L 482.240365 -385.274649 
L 481.641448 -385.274649 
L 481.042531 -385.274649 
L 480.443614 -385.274649 
L 479.844697 -385.274649 
L 479.24578 -385.199171 
L 478.646863 -385.123694 
L 478.047946 -385.048216 
L 477.449029 -384.972739 
L 476.850111 -384.897262 
L 476.251194 -384.821784 
L 475.652277 -384.746307 
L 475.05336 -384.670829 
L 474.454443 -384.595352 
L 473.855526 -384.519874 
L 473.256609 -384.489212 
L 472.657692 -384.489212 
L 472.058775 -384.489212 
L 471.459858 -384.489212 
L 470.86094 -384.489212 
L 470.262023 -384.489212 
L 469.663106 -384.489212 
L 469.064189 -384.489212 
L 468.465272 -384.489212 
L 467.866355 -384.489212 
L 467.267438 -384.489212 
L 466.668521 -384.489212 
L 466.069604 -384.489212 
L 465.470687 -384.489212 
L 464.871769 -384.489212 
L 464.272852 -384.489212 
L 463.673935 -384.489212 
L 463.075018 -384.489212 
L 462.476101 -384.489212 
L 461.877184 -384.489212 
L 461.278267 -384.489212 
L 460.67935 -384.489212 
L 460.080433 -384.489212 
L 459.481516 -384.489212 
L 458.882599 -384.489212 
L 458.283681 -384.489212 
L 457.684764 -384.489212 
L 457.085847 -384.489212 
L 456.48693 -384.489212 
L 455.888013 -384.489212 
L 455.289096 -384.489212 
L 454.690179 -384.460907 
L 454.091262 -384.38543 
L 453.492345 -384.309953 
L 452.893428 -384.234475 
L 452.29451 -384.158998 
L 451.695593 -384.08352 
L 451.096676 -384.008043 
L 450.497759 -383.932565 
L 449.898842 -383.857088 
L 449.299925 -383.78161 
L 448.701008 -383.706133 
L 448.102091 -383.703774 
L 447.503174 -383.703774 
L 446.904257 -383.703774 
L 446.305339 -383.703774 
L 445.706422 -383.703774 
L 445.107505 -383.703774 
L 444.508588 -383.703774 
L 443.909671 -383.703774 
L 443.310754 -383.703774 
L 442.711837 -383.703774 
L 442.11292 -383.703774 
L 441.514003 -383.703774 
L 440.915086 -383.703774 
L 440.316168 -383.703774 
L 439.717251 -383.703774 
L 439.118334 -383.703774 
L 438.519417 -383.703774 
L 437.9205 -383.703774 
L 437.321583 -383.703774 
L 436.722666 -383.703774 
L 436.123749 -383.703774 
L 435.524832 -383.703774 
L 434.925915 -383.703774 
L 434.326997 -383.703774 
L 433.72808 -383.703774 
L 433.129163 -383.703774 
L 432.530246 -383.703774 
L 431.931329 -383.703774 
L 431.332412 -383.703774 
L 430.733495 -383.703774 
L 430.134578 -383.703774 
L 429.535661 -383.647166 
L 428.936744 -383.571689 
L 428.337826 -383.496211 
L 427.738909 -383.420734 
L 427.139992 -383.345256 
L 426.541075 -383.269779 
L 425.942158 -383.194301 
L 425.343241 -383.118824 
L 424.744324 -383.043346 
L 424.145407 -382.967869 
L 423.54649 -382.918337 
L 422.947573 -382.918337 
L 422.348655 -382.918337 
L 421.749738 -382.918337 
L 421.150821 -382.918337 
L 420.551904 -382.918337 
L 419.952987 -382.918337 
L 419.35407 -382.918337 
L 418.755153 -382.918337 
L 418.156236 -382.918337 
L 417.557319 -382.918337 
L 416.958402 -382.847577 
L 416.359484 -382.772099 
L 415.760567 -382.696622 
L 415.16165 -382.621144 
L 414.562733 -382.545667 
L 413.963816 -382.47019 
L 413.364899 -382.394712 
L 412.765982 -382.319235 
L 412.167065 -382.243757 
L 411.568148 -382.16828 
L 410.969231 -382.172997 
L 410.370313 -382.248474 
L 409.771396 -382.323952 
L 409.172479 -382.399429 
L 408.573562 -382.474907 
L 407.974645 -382.550384 
L 407.375728 -382.625862 
L 406.776811 -382.701339 
L 406.177894 -382.776817 
L 405.578977 -382.852294 
L 404.98006 -382.908902 
L 404.381143 -382.833425 
L 403.782225 -382.757947 
L 403.183308 -382.68247 
L 402.584391 -382.606992 
L 401.985474 -382.531515 
L 401.386557 -382.456037 
L 400.78764 -382.38056 
L 400.188723 -382.305083 
L 399.589806 -382.229605 
L 398.990889 -382.154128 
L 398.391972 -382.1329 
L 397.793054 -382.1329 
L 397.194137 -382.1329 
L 396.59522 -382.1329 
L 395.996303 -382.1329 
L 395.397386 -382.1329 
L 394.798469 -382.1329 
L 394.199552 -382.1329 
L 393.600635 -382.1329 
L 393.001718 -382.1329 
L 392.402801 -382.109313 
L 391.803883 -382.033835 
L 391.204966 -381.958358 
L 390.606049 -381.882881 
L 390.007132 -381.807403 
L 389.408215 -381.731926 
L 388.809298 -381.656448 
L 388.210381 -381.580971 
L 387.611464 -381.505493 
L 387.012547 -381.430016 
L 386.41363 -381.354538 
L 385.814712 -381.279061 
L 385.215795 -381.203583 
L 384.616878 -381.128106 
L 384.017961 -381.052628 
L 383.419044 -380.977151 
L 382.820127 -380.901674 
L 382.22121 -380.826196 
L 381.622293 -380.750719 
L 381.023376 -380.675241 
L 380.424459 -380.599764 
L 379.825541 -380.524286 
L 379.226624 -380.448809 
L 378.627707 -380.373331 
L 378.02879 -380.297854 
L 377.429873 -380.222376 
L 376.830956 -380.146899 
L 376.232039 -380.071422 
L 375.633122 -379.995944 
L 375.034205 -379.920467 
L 374.435288 -379.844989 
L 373.83637 -379.783664 
L 373.237453 -379.859141 
L 372.638536 -379.934619 
L 372.039619 -380.010096 
L 371.440702 -380.085574 
L 370.841785 -380.161051 
L 370.242868 -380.236528 
L 369.643951 -380.312006 
L 369.045034 -380.387483 
L 368.446117 -380.462961 
L 367.847199 -380.538438 
L 367.248282 -380.458243 
L 366.649365 -380.307289 
L 366.050448 -380.156334 
L 365.451531 -380.005379 
L 364.852614 -379.854424 
L 364.253697 -379.703469 
L 363.65478 -379.552514 
L 363.055863 -379.401559 
L 362.456946 -379.250604 
L 361.858028 -379.099649 
L 361.259111 -378.99115 
L 360.660194 -378.99115 
L 360.061277 -378.99115 
L 359.46236 -378.99115 
L 358.863443 -378.99115 
L 358.264526 -378.99115 
L 357.665609 -378.99115 
L 357.066692 -378.99115 
L 356.467775 -378.99115 
L 355.868857 -378.99115 
L 355.26994 -378.99115 
L 354.671023 -378.925108 
L 354.072106 -378.84963 
L 353.473189 -378.774153 
L 352.874272 -378.698675 
L 352.275355 -378.623198 
L 351.676438 -378.54772 
L 351.077521 -378.472243 
L 350.478604 -378.396765 
L 349.879687 -378.321288 
L 349.280769 -378.24581 
L 348.681852 -378.241093 
L 348.082935 -378.316571 
L 347.484018 -378.392048 
L 346.885101 -378.467525 
L 346.286184 -378.543003 
L 345.687267 -378.61848 
L 345.08835 -378.693958 
L 344.489433 -378.769435 
L 343.890516 -378.844913 
L 343.291598 -378.92039 
L 342.692681 -378.986433 
L 342.093764 -378.910956 
L 341.494847 -378.835478 
L 340.89593 -378.760001 
L 340.297013 -378.684523 
L 339.698096 -378.609046 
L 339.099179 -378.533568 
L 338.500262 -378.458091 
L 337.901345 -378.382613 
L 337.302427 -378.307136 
L 336.70351 -378.231658 
L 336.104593 -378.205713 
L 335.505676 -378.205713 
L 334.906759 -378.205713 
L 334.307842 -378.205713 
L 333.708925 -378.205713 
L 333.110008 -378.205713 
L 332.511091 -378.205713 
L 331.912174 -378.205713 
L 331.313256 -378.205713 
L 330.714339 -378.205713 
L 330.115422 -378.167974 
L 329.516505 -378.017019 
L 328.917588 -377.866064 
L 328.318671 -377.71511 
L 327.719754 -377.564155 
L 327.120837 -377.4132 
L 326.52192 -377.262245 
L 325.923003 -377.11129 
L 325.324085 -376.960335 
L 324.725168 -376.80938 
L 324.126251 -376.658425 
L 323.527334 -376.634838 
L 322.928417 -376.634838 
L 322.3295 -376.634838 
L 321.730583 -376.634838 
L 321.131666 -376.634838 
L 320.532749 -376.634838 
L 319.933832 -376.634838 
L 319.334914 -376.634838 
L 318.735997 -376.634838 
L 318.13708 -376.634838 
L 317.538163 -376.601817 
L 316.939246 -376.52634 
L 316.340329 -376.450862 
L 315.741412 -376.375385 
L 315.142495 -376.299907 
L 314.543578 -376.22443 
L 313.944661 -376.148952 
L 313.345743 -376.073475 
L 312.746826 -375.997997 
L 312.147909 -375.92252 
L 311.548992 -375.849401 
L 310.950075 -375.849401 
L 310.351158 -375.849401 
L 309.752241 -375.849401 
L 309.153324 -375.849401 
L 308.554407 -375.849401 
L 307.95549 -375.849401 
L 307.356572 -375.849401 
L 306.757655 -375.849401 
L 306.158738 -375.849401 
L 305.559821 -375.849401 
L 304.960904 -375.755054 
L 304.361987 -375.604099 
L 303.76307 -375.453144 
L 303.164153 -375.30219 
L 302.565236 -375.151235 
L 301.966319 -375.00028 
L 301.367401 -374.849325 
L 300.768484 -374.69837 
L 300.169567 -374.547415 
L 299.57065 -374.39646 
L 298.971733 -374.278526 
L 298.372816 -374.278526 
L 297.773899 -374.278526 
L 297.174982 -374.278526 
L 296.576065 -374.278526 
L 295.977148 -374.278526 
L 295.378231 -374.278526 
L 294.779313 -374.278526 
L 294.180396 -374.278526 
L 293.581479 -374.278526 
L 292.982562 -374.278526 
L 292.383645 -374.155876 
L 291.784728 -374.004921 
L 291.185811 -373.853966 
L 290.586894 -373.703011 
L 289.987977 -373.552056 
L 289.38906 -373.401101 
L 288.790142 -373.250146 
L 288.191225 -373.099191 
L 287.592308 -372.948236 
L 286.993391 -372.797281 
L 286.394474 -372.646326 
L 285.795557 -372.495372 
L 285.19664 -372.344417 
L 284.597723 -372.193462 
L 283.998806 -372.042507 
L 283.399889 -371.891552 
L 282.800971 -371.740597 
L 282.202054 -371.589642 
L 281.603137 -371.438687 
L 281.00422 -371.287732 
L 280.405303 -371.136777 
L 279.806386 -371.0613 
L 279.207469 -370.985822 
L 278.608552 -370.910345 
L 278.009635 -370.834867 
L 277.410718 -370.75939 
L 276.8118 -370.683912 
L 276.212883 -370.608435 
L 275.613966 -370.532958 
L 275.015049 -370.45748 
L 274.416132 -370.382003 
L 273.817215 -370.26171 
L 273.218298 -370.110756 
L 272.619381 -369.959801 
L 272.020464 -369.808846 
L 271.421547 -369.657891 
L 270.822629 -369.506936 
L 270.223712 -369.355981 
L 269.624795 -369.205026 
L 269.025878 -369.054071 
L 268.426961 -368.903116 
L 267.828044 -368.780465 
L 267.229127 -368.780465 
L 266.63021 -368.780465 
L 266.031293 -368.780465 
L 265.432376 -368.780465 
L 264.833458 -368.780465 
L 264.234541 -368.780465 
L 263.635624 -368.780465 
L 263.036707 -368.780465 
L 262.43779 -368.780465 
L 261.838873 -368.780465 
L 261.239956 -368.603565 
L 260.641039 -368.377133 
L 260.042122 -368.1507 
L 259.443205 -367.924268 
L 258.844287 -367.697836 
L 258.24537 -367.471403 
L 257.646453 -367.244971 
L 257.047536 -367.018538 
L 256.448619 -366.792106 
L 255.849702 -366.565674 
L 255.250785 -366.424153 
L 254.651868 -366.424153 
L 254.052951 -366.424153 
L 253.454034 -366.424153 
L 252.855116 -366.424153 
L 252.256199 -366.424153 
L 251.657282 -366.424153 
L 251.058365 -366.424153 
L 250.459448 -366.424153 
L 249.860531 -366.424153 
L 249.261614 -366.424153 
L 248.662697 -366.277916 
L 248.06378 -366.126961 
L 247.464863 -365.976006 
L 246.865945 -365.825051 
L 246.267028 -365.674096 
L 245.668111 -365.523141 
L 245.069194 -365.372186 
L 244.470277 -365.221231 
L 243.87136 -365.070276 
L 243.272443 -364.919322 
L 242.673526 -364.768367 
L 242.074609 -364.617412 
L 241.475692 -364.466457 
L 240.876775 -364.315502 
L 240.277857 -364.164547 
L 239.67894 -364.013592 
L 239.080023 -363.862637 
L 238.481106 -363.711682 
L 237.882189 -363.560727 
L 237.283272 -363.409772 
L 236.684355 -363.247024 
L 236.085438 -363.020592 
L 235.486521 -362.794159 
L 234.887604 -362.567727 
L 234.288686 -362.341295 
L 233.689769 -362.114862 
L 233.090852 -361.88843 
L 232.491935 -361.661997 
L 231.893018 -361.435565 
L 231.294101 -361.209133 
L 230.695184 -360.9827 
L 230.096267 -360.812876 
L 229.49735 -360.661921 
L 228.898433 -360.510966 
L 228.299515 -360.360011 
L 227.700598 -360.209056 
L 227.101681 -360.058101 
L 226.502764 -359.907147 
L 225.903847 -359.756192 
L 225.30493 -359.605237 
L 224.706013 -359.454282 
L 224.107096 -359.277381 
L 223.508179 -359.050949 
L 222.909262 -358.824517 
L 222.310344 -358.598084 
L 221.711427 -358.371652 
L 221.11251 -358.14522 
L 220.513593 -357.918787 
L 219.914676 -357.692355 
L 219.315759 -357.465922 
L 218.716842 -357.23949 
L 218.117925 -357.013058 
L 217.519008 -356.786625 
L 216.920091 -356.560193 
L 216.321173 -356.333761 
L 215.722256 -356.107328 
L 215.123339 -355.880896 
L 214.524422 -355.654463 
L 213.925505 -355.428031 
L 213.326588 -355.201599 
L 212.727671 -354.975166 
L 212.128754 -354.748734 
L 211.529837 -354.562399 
L 210.93092 -354.411444 
L 210.332002 -354.260489 
L 209.733085 -354.109534 
L 209.134168 -353.958579 
L 208.535251 -353.807624 
L 207.936334 -353.656669 
L 207.337417 -353.505714 
L 206.7385 -353.35476 
L 206.139583 -353.203805 
L 205.540666 -353.043415 
L 204.941749 -352.816983 
L 204.342831 -352.59055 
L 203.743914 -352.364118 
L 203.144997 -352.137686 
L 202.54608 -351.911253 
L 201.947163 -351.684821 
L 201.348246 -351.458388 
L 200.749329 -351.231956 
L 200.150412 -351.005524 
L 199.551495 -350.779091 
L 198.952578 -350.498409 
L 198.35366 -350.1965 
L 197.754743 -349.89459 
L 197.155826 -349.59268 
L 196.556909 -349.29077 
L 195.957992 -348.98886 
L 195.359075 -348.68695 
L 194.760158 -348.385041 
L 194.161241 -348.359095 
L 193.562324 -348.359095 
L 192.963407 -348.241162 
L 192.364489 -347.863774 
L 191.765572 -347.486387 
L 191.166655 -347.109 
L 190.567738 -346.731613 
L 189.968821 -346.354225 
L 189.369904 -345.976838 
L 188.770987 -345.599451 
L 188.17207 -345.222063 
L 187.573153 -344.844676 
L 186.974236 -344.467289 
L 186.375319 -344.295106 
L 185.776401 -344.144151 
L 185.177484 -343.993196 
L 184.578567 -343.842241 
L 183.97965 -343.691286 
L 183.380733 -343.540331 
L 182.781816 -343.389376 
L 182.182899 -343.238421 
L 181.583982 -343.087466 
L 180.985065 -342.936511 
L 180.386148 -342.634602 
L 179.78723 -342.181737 
L 179.188313 -341.728872 
L 178.589396 -341.276007 
L 177.990479 -340.823143 
L 177.391562 -340.370278 
L 176.792645 -339.917413 
L 176.193728 -339.464548 
L 175.594811 -339.011684 
L 174.995894 -338.558819 
L 174.396977 -338.127182 
L 173.798059 -337.90075 
L 173.199142 -337.674317 
L 172.600225 -337.447885 
L 172.001308 -337.221453 
L 171.402391 -336.99502 
L 170.803474 -336.768588 
L 170.204557 -336.542155 
L 169.60564 -336.315723 
L 169.006723 -336.089291 
L 168.407806 -335.862858 
L 167.808888 -335.480754 
L 167.209971 -335.027889 
L 166.611054 -334.575024 
L 166.012137 -334.122159 
L 165.41322 -333.669295 
L 164.814303 -333.21643 
L 164.215386 -332.763565 
L 163.616469 -332.3107 
L 163.017552 -331.857836 
L 162.418635 -331.404971 
L 161.819717 -330.994562 
L 161.2208 -330.692652 
L 160.621883 -330.390743 
L 160.022966 -330.088833 
L 159.424049 -329.786923 
L 158.825132 -329.485013 
L 158.226215 -329.183103 
L 157.627298 -328.881193 
L 157.028381 -328.579284 
L 156.429464 -328.277374 
L 155.830546 -327.975464 
L 155.231629 -327.475426 
L 154.632712 -326.947083 
L 154.033795 -326.418741 
L 153.434878 -325.890399 
L 152.835961 -325.362057 
L 152.237044 -324.833715 
L 151.638127 -324.305372 
L 151.03921 -323.77703 
L 150.440293 -323.248688 
L 149.841375 -322.720346 
L 149.242458 -322.262764 
L 148.643541 -321.885376 
L 148.044624 -321.507989 
L 147.445707 -321.130602 
L 146.84679 -320.753214 
L 146.247873 -320.375827 
L 145.648956 -319.99844 
L 145.050039 -319.621053 
L 144.451122 -319.243665 
L 143.852204 -318.866278 
L 143.253287 -318.460587 
L 142.65437 -317.630335 
L 142.055453 -316.800083 
L 141.456536 -315.96983 
L 140.857619 -315.139578 
L 140.258702 -314.309326 
L 139.659785 -313.479074 
L 139.060868 -312.648822 
L 138.461951 -311.81857 
L 137.863033 -310.988318 
L 137.264116 -310.158066 
L 136.665199 -309.426878 
L 136.066282 -308.747581 
L 135.467365 -308.068284 
L 134.868448 -307.388987 
L 134.269531 -306.70969 
L 133.670614 -306.030393 
L 133.071697 -305.351095 
L 132.47278 -304.671798 
L 131.873862 -303.992501 
L 131.274945 -303.313204 
L 130.676028 -302.53956 
L 130.077111 -301.482876 
L 129.478194 -300.426191 
L 128.879277 -299.369507 
L 128.28036 -298.312822 
L 127.681443 -297.256138 
L 127.082526 -296.199453 
L 126.483609 -295.142769 
L 125.884692 -294.086085 
L 125.285774 -293.0294 
L 124.686857 -291.972716 
L 124.08794 -290.788663 
L 123.489023 -289.581024 
L 122.890106 -288.373384 
L 122.291189 -287.165745 
L 121.692272 -285.958106 
L 121.093355 -284.750466 
L 120.494438 -283.542827 
L 119.895521 -282.335188 
L 119.296603 -281.127548 
L 118.697686 -279.919909 
L 118.098769 -278.679248 
L 117.499852 -277.396131 
L 116.900935 -276.113015 
L 116.302018 -274.829898 
L 115.703101 -273.546781 
L 115.104184 -272.263664 
L 114.505267 -270.980547 
L 113.90635 -269.697431 
L 113.307432 -268.414314 
L 112.708515 -267.131197 
L 112.109598 -265.831569 
L 111.510681 -264.02011 
L 110.911764 -262.208651 
L 110.312847 -260.397192 
L 109.71393 -258.585733 
L 109.115013 -256.774274 
L 108.516096 -254.962815 
L 107.917179 -253.151356 
L 107.318261 -251.339897 
L 106.719344 -249.528438 
L 106.120427 -247.716979 
L 105.52151 -245.669653 
L 104.922593 -243.480807 
L 104.323676 -241.29196 
L 103.724759 -239.103114 
L 103.125842 -236.914268 
L 102.526925 -234.725421 
L 101.928008 -232.536575 
L 101.32909 -230.347729 
L 100.730173 -228.158883 
L 100.131256 -225.970036 
L 99.532339 -223.533529 
L 98.933422 -220.212521 
L 98.334505 -216.891513 
L 97.735588 -213.570505 
L 97.136671 -210.249497 
L 96.537754 -206.928488 
L 95.938837 -203.751359 
L 95.339919 -200.958693 
L 94.741002 -198.166027 
L 94.142085 -195.373361 
L 93.543168 -192.580695 
L 92.944251 -188.316219 
L 92.345334 -183.712094 
L 91.746417 -179.107969 
L 91.1475 -174.503844 
L 90.548583 -169.899719 
L 89.949666 -165.295594 
L 89.350748 -160.906108 
L 88.751831 -156.67937 
L 88.152914 -152.452632 
L 87.553997 -148.225894 
L 86.95508 -142.895299 
L 86.356163 -135.951373 
L 85.757246 -129.007446 
L 85.158329 -122.06352 
L 84.559412 -115.119594 
L 83.960495 -108.175667 
L 83.361577 -101.231741 
L 82.76266 -94.287815 
L 82.163743 -87.343889 
L 81.564826 -80.399962 
L 80.965909 -73.456036 
z
" style="stroke: #00008b; stroke-opacity: 0.3"/>
    </defs>
    <g clip-path="url(#p87da8ca683)">
     <use xlink:href="#m22f047fa72" x="0" y="432" style="fill: #00008b; fill-opacity: 0.3; stroke: #00008b; stroke-opacity: 0.3"/>
    </g>
   </g>
   <g id="matplotlib.axis_1">
    <g id="xtick_1">
     <g id="line2d_1">
      <defs>
       <path id="mf2fd3fb13b" d="M 0 0 
L 0 3.5 
" style="stroke: #000000; stroke-width: 0.8"/>
      </defs>
      <g>
       <use xlink:href="#mf2fd3fb13b" x="74.733428" y="390.04" style="stroke: #000000; stroke-width: 0.8"/>
      </g>
     </g>
     <g id="text_1">
      <!-- 0 -->
      <g transform="translate(71.552178 404.638438) scale(0.1 -0.1)">
       <defs>
        <path id="DejaVuSans-30" d="M 2034 4250 
Q 1547 4250 1301 3770 
Q 1056 3291 1056 2328 
Q 1056 1369 1301 889 
Q 1547 409 2034 409 
Q 2525 409 2770 889 
Q 3016 1369 3016 2328 
Q 3016 3291 2770 3770 
Q 2525 4250 2034 4250 
z
M 2034 4750 
Q 2819 4750 3233 4129 
Q 3647 3509 3647 2328 
Q 3647 1150 3233 529 
Q 2819 -91 2034 -91 
Q 1250 -91 836 529 
Q 422 1150 422 2328 
Q 422 3509 836 4129 
Q 1250 4750 2034 4750 
z
" transform="scale(0.015625)"/>
       </defs>
       <use xlink:href="#DejaVuSans-30"/>
      </g>
     </g>
    </g>
    <g id="xtick_2">
     <g id="line2d_2">
      <g>
       <use xlink:href="#mf2fd3fb13b" x="196.461574" y="390.04" style="stroke: #000000; stroke-width: 0.8"/>
      </g>
     </g>
     <g id="text_2">
      <!-- 20000 -->
      <g transform="translate(180.555324 404.638438) scale(0.1 -0.1)">
       <defs>
        <path id="DejaVuSans-32" d="M 1228 531 
L 3431 531 
L 3431 0 
L 469 0 
L 469 531 
Q 828 903 1448 1529 
Q 2069 2156 2228 2338 
Q 2531 2678 2651 2914 
Q 2772 3150 2772 3378 
Q 2772 3750 2511 3984 
Q 2250 4219 1831 4219 
Q 1534 4219 1204 4116 
Q 875 4013 500 3803 
L 500 4441 
Q 881 4594 1212 4672 
Q 1544 4750 1819 4750 
Q 2544 4750 2975 4387 
Q 3406 4025 3406 3419 
Q 3406 3131 3298 2873 
Q 3191 2616 2906 2266 
Q 2828 2175 2409 1742 
Q 1991 1309 1228 531 
z
" transform="scale(0.015625)"/>
       </defs>
       <use xlink:href="#DejaVuSans-32"/>
       <use xlink:href="#DejaVuSans-30" transform="translate(63.623047 0)"/>
       <use xlink:href="#DejaVuSans-30" transform="translate(127.246094 0)"/>
       <use xlink:href="#DejaVuSans-30" transform="translate(190.869141 0)"/>
       <use xlink:href="#DejaVuSans-30" transform="translate(254.492188 0)"/>
      </g>
     </g>
    </g>
    <g id="xtick_3">
     <g id="line2d_3">
      <g>
       <use xlink:href="#mf2fd3fb13b" x="318.189719" y="390.04" style="stroke: #000000; stroke-width: 0.8"/>
      </g>
     </g>
     <g id="text_3">
      <!-- 40000 -->
      <g transform="translate(302.283469 404.638438) scale(0.1 -0.1)">
       <defs>
        <path id="DejaVuSans-34" d="M 2419 4116 
L 825 1625 
L 2419 1625 
L 2419 4116 
z
M 2253 4666 
L 3047 4666 
L 3047 1625 
L 3713 1625 
L 3713 1100 
L 3047 1100 
L 3047 0 
L 2419 0 
L 2419 1100 
L 313 1100 
L 313 1709 
L 2253 4666 
z
" transform="scale(0.015625)"/>
       </defs>
       <use xlink:href="#DejaVuSans-34"/>
       <use xlink:href="#DejaVuSans-30" transform="translate(63.623047 0)"/>
       <use xlink:href="#DejaVuSans-30" transform="translate(127.246094 0)"/>
       <use xlink:href="#DejaVuSans-30" transform="translate(190.869141 0)"/>
       <use xlink:href="#DejaVuSans-30" transform="translate(254.492188 0)"/>
      </g>
     </g>
    </g>
    <g id="xtick_4">
     <g id="line2d_4">
      <g>
       <use xlink:href="#mf2fd3fb13b" x="439.917865" y="390.04" style="stroke: #000000; stroke-width: 0.8"/>
      </g>
     </g>
     <g id="text_4">
      <!-- 60000 -->
      <g transform="translate(424.011615 404.638438) scale(0.1 -0.1)">
       <defs>
        <path id="DejaVuSans-36" d="M 2113 2584 
Q 1688 2584 1439 2293 
Q 1191 2003 1191 1497 
Q 1191 994 1439 701 
Q 1688 409 2113 409 
Q 2538 409 2786 701 
Q 3034 994 3034 1497 
Q 3034 2003 2786 2293 
Q 2538 2584 2113 2584 
z
M 3366 4563 
L 3366 3988 
Q 3128 4100 2886 4159 
Q 2644 4219 2406 4219 
Q 1781 4219 1451 3797 
Q 1122 3375 1075 2522 
Q 1259 2794 1537 2939 
Q 1816 3084 2150 3084 
Q 2853 3084 3261 2657 
Q 3669 2231 3669 1497 
Q 3669 778 3244 343 
Q 2819 -91 2113 -91 
Q 1303 -91 875 529 
Q 447 1150 447 2328 
Q 447 3434 972 4092 
Q 1497 4750 2381 4750 
Q 2619 4750 2861 4703 
Q 3103 4656 3366 4563 
z
" transform="scale(0.015625)"/>
       </defs>
       <use xlink:href="#DejaVuSans-36"/>
       <use xlink:href="#DejaVuSans-30" transform="translate(63.623047 0)"/>
       <use xlink:href="#DejaVuSans-30" transform="translate(127.246094 0)"/>
       <use xlink:href="#DejaVuSans-30" transform="translate(190.869141 0)"/>
       <use xlink:href="#DejaVuSans-30" transform="translate(254.492188 0)"/>
      </g>
     </g>
    </g>
    <g id="xtick_5">
     <g id="line2d_5">
      <g>
       <use xlink:href="#mf2fd3fb13b" x="561.646011" y="390.04" style="stroke: #000000; stroke-width: 0.8"/>
      </g>
     </g>
     <g id="text_5">
      <!-- 80000 -->
      <g transform="translate(545.739761 404.638438) scale(0.1 -0.1)">
       <defs>
        <path id="DejaVuSans-38" d="M 2034 2216 
Q 1584 2216 1326 1975 
Q 1069 1734 1069 1313 
Q 1069 891 1326 650 
Q 1584 409 2034 409 
Q 2484 409 2743 651 
Q 3003 894 3003 1313 
Q 3003 1734 2745 1975 
Q 2488 2216 2034 2216 
z
M 1403 2484 
Q 997 2584 770 2862 
Q 544 3141 544 3541 
Q 544 4100 942 4425 
Q 1341 4750 2034 4750 
Q 2731 4750 3128 4425 
Q 3525 4100 3525 3541 
Q 3525 3141 3298 2862 
Q 3072 2584 2669 2484 
Q 3125 2378 3379 2068 
Q 3634 1759 3634 1313 
Q 3634 634 3220 271 
Q 2806 -91 2034 -91 
Q 1263 -91 848 271 
Q 434 634 434 1313 
Q 434 1759 690 2068 
Q 947 2378 1403 2484 
z
M 1172 3481 
Q 1172 3119 1398 2916 
Q 1625 2713 2034 2713 
Q 2441 2713 2670 2916 
Q 2900 3119 2900 3481 
Q 2900 3844 2670 4047 
Q 2441 4250 2034 4250 
Q 1625 4250 1398 4047 
Q 1172 3844 1172 3481 
z
" transform="scale(0.015625)"/>
       </defs>
       <use xlink:href="#DejaVuSans-38"/>
       <use xlink:href="#DejaVuSans-30" transform="translate(63.623047 0)"/>
       <use xlink:href="#DejaVuSans-30" transform="translate(127.246094 0)"/>
       <use xlink:href="#DejaVuSans-30" transform="translate(190.869141 0)"/>
       <use xlink:href="#DejaVuSans-30" transform="translate(254.492188 0)"/>
      </g>
     </g>
    </g>
    <g id="xtick_6">
     <g id="line2d_6">
      <g>
       <use xlink:href="#mf2fd3fb13b" x="683.374157" y="390.04" style="stroke: #000000; stroke-width: 0.8"/>
      </g>
     </g>
     <g id="text_6">
      <!-- 100000 -->
      <g transform="translate(664.286657 404.638438) scale(0.1 -0.1)">
       <defs>
        <path id="DejaVuSans-31" d="M 794 531 
L 1825 531 
L 1825 4091 
L 703 3866 
L 703 4441 
L 1819 4666 
L 2450 4666 
L 2450 531 
L 3481 531 
L 3481 0 
L 794 0 
L 794 531 
z
" transform="scale(0.015625)"/>
       </defs>
       <use xlink:href="#DejaVuSans-31"/>
       <use xlink:href="#DejaVuSans-30" transform="translate(63.623047 0)"/>
       <use xlink:href="#DejaVuSans-30" transform="translate(127.246094 0)"/>
       <use xlink:href="#DejaVuSans-30" transform="translate(190.869141 0)"/>
       <use xlink:href="#DejaVuSans-30" transform="translate(254.492188 0)"/>
       <use xlink:href="#DejaVuSans-30" transform="translate(318.115234 0)"/>
      </g>
     </g>
    </g>
    <g id="text_7">
     <!-- Step -->
     <g transform="translate(368.739844 418.316562) scale(0.1 -0.1)">
      <defs>
       <path id="DejaVuSans-53" d="M 3425 4513 
L 3425 3897 
Q 3066 4069 2747 4153 
Q 2428 4238 2131 4238 
Q 1616 4238 1336 4038 
Q 1056 3838 1056 3469 
Q 1056 3159 1242 3001 
Q 1428 2844 1947 2747 
L 2328 2669 
Q 3034 2534 3370 2195 
Q 3706 1856 3706 1288 
Q 3706 609 3251 259 
Q 2797 -91 1919 -91 
Q 1588 -91 1214 -16 
Q 841 59 441 206 
L 441 856 
Q 825 641 1194 531 
Q 1563 422 1919 422 
Q 2459 422 2753 634 
Q 3047 847 3047 1241 
Q 3047 1584 2836 1778 
Q 2625 1972 2144 2069 
L 1759 2144 
Q 1053 2284 737 2584 
Q 422 2884 422 3419 
Q 422 4038 858 4394 
Q 1294 4750 2059 4750 
Q 2388 4750 2728 4690 
Q 3069 4631 3425 4513 
z
" transform="scale(0.015625)"/>
       <path id="DejaVuSans-74" d="M 1172 4494 
L 1172 3500 
L 2356 3500 
L 2356 3053 
L 1172 3053 
L 1172 1153 
Q 1172 725 1289 603 
Q 1406 481 1766 481 
L 2356 481 
L 2356 0 
L 1766 0 
Q 1100 0 847 248 
Q 594 497 594 1153 
L 594 3053 
L 172 3053 
L 172 3500 
L 594 3500 
L 594 4494 
L 1172 4494 
z
" transform="scale(0.015625)"/>
       <path id="DejaVuSans-65" d="M 3597 1894 
L 3597 1613 
L 953 1613 
Q 991 1019 1311 708 
Q 1631 397 2203 397 
Q 2534 397 2845 478 
Q 3156 559 3463 722 
L 3463 178 
Q 3153 47 2828 -22 
Q 2503 -91 2169 -91 
Q 1331 -91 842 396 
Q 353 884 353 1716 
Q 353 2575 817 3079 
Q 1281 3584 2069 3584 
Q 2775 3584 3186 3129 
Q 3597 2675 3597 1894 
z
M 3022 2063 
Q 3016 2534 2758 2815 
Q 2500 3097 2075 3097 
Q 1594 3097 1305 2825 
Q 1016 2553 972 2059 
L 3022 2063 
z
" transform="scale(0.015625)"/>
       <path id="DejaVuSans-70" d="M 1159 525 
L 1159 -1331 
L 581 -1331 
L 581 3500 
L 1159 3500 
L 1159 2969 
Q 1341 3281 1617 3432 
Q 1894 3584 2278 3584 
Q 2916 3584 3314 3078 
Q 3713 2572 3713 1747 
Q 3713 922 3314 415 
Q 2916 -91 2278 -91 
Q 1894 -91 1617 61 
Q 1341 213 1159 525 
z
M 3116 1747 
Q 3116 2381 2855 2742 
Q 2594 3103 2138 3103 
Q 1681 3103 1420 2742 
Q 1159 2381 1159 1747 
Q 1159 1113 1420 752 
Q 1681 391 2138 391 
Q 2594 391 2855 752 
Q 3116 1113 3116 1747 
z
" transform="scale(0.015625)"/>
      </defs>
      <use xlink:href="#DejaVuSans-53"/>
      <use xlink:href="#DejaVuSans-74" transform="translate(63.476562 0)"/>
      <use xlink:href="#DejaVuSans-65" transform="translate(102.685547 0)"/>
      <use xlink:href="#DejaVuSans-70" transform="translate(164.208984 0)"/>
     </g>
    </g>
   </g>
   <g id="matplotlib.axis_2">
    <g id="ytick_1">
     <g id="line2d_7">
      <defs>
       <path id="mb172f49f28" d="M 0 0 
L -3.5 0 
" style="stroke: #000000; stroke-width: 0.8"/>
      </defs>
      <g>
       <use xlink:href="#mb172f49f28" x="51.05" y="325.555597" style="stroke: #000000; stroke-width: 0.8"/>
      </g>
     </g>
     <g id="text_8">
      <!-- 200 -->
      <g transform="translate(24.9625 329.354815) scale(0.1 -0.1)">
       <use xlink:href="#DejaVuSans-32"/>
       <use xlink:href="#DejaVuSans-30" transform="translate(63.623047 0)"/>
       <use xlink:href="#DejaVuSans-30" transform="translate(127.246094 0)"/>
      </g>
     </g>
    </g>
    <g id="ytick_2">
     <g id="line2d_8">
      <g>
       <use xlink:href="#mb172f49f28" x="51.05" y="247.011866" style="stroke: #000000; stroke-width: 0.8"/>
      </g>
     </g>
     <g id="text_9">
      <!-- 300 -->
      <g transform="translate(24.9625 250.811084) scale(0.1 -0.1)">
       <defs>
        <path id="DejaVuSans-33" d="M 2597 2516 
Q 3050 2419 3304 2112 
Q 3559 1806 3559 1356 
Q 3559 666 3084 287 
Q 2609 -91 1734 -91 
Q 1441 -91 1130 -33 
Q 819 25 488 141 
L 488 750 
Q 750 597 1062 519 
Q 1375 441 1716 441 
Q 2309 441 2620 675 
Q 2931 909 2931 1356 
Q 2931 1769 2642 2001 
Q 2353 2234 1838 2234 
L 1294 2234 
L 1294 2753 
L 1863 2753 
Q 2328 2753 2575 2939 
Q 2822 3125 2822 3475 
Q 2822 3834 2567 4026 
Q 2313 4219 1838 4219 
Q 1578 4219 1281 4162 
Q 984 4106 628 3988 
L 628 4550 
Q 988 4650 1302 4700 
Q 1616 4750 1894 4750 
Q 2613 4750 3031 4423 
Q 3450 4097 3450 3541 
Q 3450 3153 3228 2886 
Q 3006 2619 2597 2516 
z
" transform="scale(0.015625)"/>
       </defs>
       <use xlink:href="#DejaVuSans-33"/>
       <use xlink:href="#DejaVuSans-30" transform="translate(63.623047 0)"/>
       <use xlink:href="#DejaVuSans-30" transform="translate(127.246094 0)"/>
      </g>
     </g>
    </g>
    <g id="ytick_3">
     <g id="line2d_9">
      <g>
       <use xlink:href="#mb172f49f28" x="51.05" y="168.468134" style="stroke: #000000; stroke-width: 0.8"/>
      </g>
     </g>
     <g id="text_10">
      <!-- 400 -->
      <g transform="translate(24.9625 172.267353) scale(0.1 -0.1)">
       <use xlink:href="#DejaVuSans-34"/>
       <use xlink:href="#DejaVuSans-30" transform="translate(63.623047 0)"/>
       <use xlink:href="#DejaVuSans-30" transform="translate(127.246094 0)"/>
      </g>
     </g>
    </g>
    <g id="ytick_4">
     <g id="line2d_10">
      <g>
       <use xlink:href="#mb172f49f28" x="51.05" y="89.924403" style="stroke: #000000; stroke-width: 0.8"/>
      </g>
     </g>
     <g id="text_11">
      <!-- 500 -->
      <g transform="translate(24.9625 93.723622) scale(0.1 -0.1)">
       <defs>
        <path id="DejaVuSans-35" d="M 691 4666 
L 3169 4666 
L 3169 4134 
L 1269 4134 
L 1269 2991 
Q 1406 3038 1543 3061 
Q 1681 3084 1819 3084 
Q 2600 3084 3056 2656 
Q 3513 2228 3513 1497 
Q 3513 744 3044 326 
Q 2575 -91 1722 -91 
Q 1428 -91 1123 -41 
Q 819 9 494 109 
L 494 744 
Q 775 591 1075 516 
Q 1375 441 1709 441 
Q 2250 441 2565 725 
Q 2881 1009 2881 1497 
Q 2881 1984 2565 2268 
Q 2250 2553 1709 2553 
Q 1456 2553 1204 2497 
Q 953 2441 691 2322 
L 691 4666 
z
" transform="scale(0.015625)"/>
       </defs>
       <use xlink:href="#DejaVuSans-35"/>
       <use xlink:href="#DejaVuSans-30" transform="translate(63.623047 0)"/>
       <use xlink:href="#DejaVuSans-30" transform="translate(127.246094 0)"/>
      </g>
     </g>
    </g>
    <g id="text_12">
     <!-- charts/SPS -->
     <g transform="translate(18.882812 234.39) rotate(-90) scale(0.1 -0.1)">
      <defs>
       <path id="DejaVuSans-63" d="M 3122 3366 
L 3122 2828 
Q 2878 2963 2633 3030 
Q 2388 3097 2138 3097 
Q 1578 3097 1268 2742 
Q 959 2388 959 1747 
Q 959 1106 1268 751 
Q 1578 397 2138 397 
Q 2388 397 2633 464 
Q 2878 531 3122 666 
L 3122 134 
Q 2881 22 2623 -34 
Q 2366 -91 2075 -91 
Q 1284 -91 818 406 
Q 353 903 353 1747 
Q 353 2603 823 3093 
Q 1294 3584 2113 3584 
Q 2378 3584 2631 3529 
Q 2884 3475 3122 3366 
z
" transform="scale(0.015625)"/>
       <path id="DejaVuSans-68" d="M 3513 2113 
L 3513 0 
L 2938 0 
L 2938 2094 
Q 2938 2591 2744 2837 
Q 2550 3084 2163 3084 
Q 1697 3084 1428 2787 
Q 1159 2491 1159 1978 
L 1159 0 
L 581 0 
L 581 4863 
L 1159 4863 
L 1159 2956 
Q 1366 3272 1645 3428 
Q 1925 3584 2291 3584 
Q 2894 3584 3203 3211 
Q 3513 2838 3513 2113 
z
" transform="scale(0.015625)"/>
       <path id="DejaVuSans-61" d="M 2194 1759 
Q 1497 1759 1228 1600 
Q 959 1441 959 1056 
Q 959 750 1161 570 
Q 1363 391 1709 391 
Q 2188 391 2477 730 
Q 2766 1069 2766 1631 
L 2766 1759 
L 2194 1759 
z
M 3341 1997 
L 3341 0 
L 2766 0 
L 2766 531 
Q 2569 213 2275 61 
Q 1981 -91 1556 -91 
Q 1019 -91 701 211 
Q 384 513 384 1019 
Q 384 1609 779 1909 
Q 1175 2209 1959 2209 
L 2766 2209 
L 2766 2266 
Q 2766 2663 2505 2880 
Q 2244 3097 1772 3097 
Q 1472 3097 1187 3025 
Q 903 2953 641 2809 
L 641 3341 
Q 956 3463 1253 3523 
Q 1550 3584 1831 3584 
Q 2591 3584 2966 3190 
Q 3341 2797 3341 1997 
z
" transform="scale(0.015625)"/>
       <path id="DejaVuSans-72" d="M 2631 2963 
Q 2534 3019 2420 3045 
Q 2306 3072 2169 3072 
Q 1681 3072 1420 2755 
Q 1159 2438 1159 1844 
L 1159 0 
L 581 0 
L 581 3500 
L 1159 3500 
L 1159 2956 
Q 1341 3275 1631 3429 
Q 1922 3584 2338 3584 
Q 2397 3584 2469 3576 
Q 2541 3569 2628 3553 
L 2631 2963 
z
" transform="scale(0.015625)"/>
       <path id="DejaVuSans-73" d="M 2834 3397 
L 2834 2853 
Q 2591 2978 2328 3040 
Q 2066 3103 1784 3103 
Q 1356 3103 1142 2972 
Q 928 2841 928 2578 
Q 928 2378 1081 2264 
Q 1234 2150 1697 2047 
L 1894 2003 
Q 2506 1872 2764 1633 
Q 3022 1394 3022 966 
Q 3022 478 2636 193 
Q 2250 -91 1575 -91 
Q 1294 -91 989 -36 
Q 684 19 347 128 
L 347 722 
Q 666 556 975 473 
Q 1284 391 1588 391 
Q 1994 391 2212 530 
Q 2431 669 2431 922 
Q 2431 1156 2273 1281 
Q 2116 1406 1581 1522 
L 1381 1569 
Q 847 1681 609 1914 
Q 372 2147 372 2553 
Q 372 3047 722 3315 
Q 1072 3584 1716 3584 
Q 2034 3584 2315 3537 
Q 2597 3491 2834 3397 
z
" transform="scale(0.015625)"/>
       <path id="DejaVuSans-2f" d="M 1625 4666 
L 2156 4666 
L 531 -594 
L 0 -594 
L 1625 4666 
z
" transform="scale(0.015625)"/>
       <path id="DejaVuSans-50" d="M 1259 4147 
L 1259 2394 
L 2053 2394 
Q 2494 2394 2734 2622 
Q 2975 2850 2975 3272 
Q 2975 3691 2734 3919 
Q 2494 4147 2053 4147 
L 1259 4147 
z
M 628 4666 
L 2053 4666 
Q 2838 4666 3239 4311 
Q 3641 3956 3641 3272 
Q 3641 2581 3239 2228 
Q 2838 1875 2053 1875 
L 1259 1875 
L 1259 0 
L 628 0 
L 628 4666 
z
" transform="scale(0.015625)"/>
      </defs>
      <use xlink:href="#DejaVuSans-63"/>
      <use xlink:href="#DejaVuSans-68" transform="translate(54.980469 0)"/>
      <use xlink:href="#DejaVuSans-61" transform="translate(118.359375 0)"/>
      <use xlink:href="#DejaVuSans-72" transform="translate(179.638672 0)"/>
      <use xlink:href="#DejaVuSans-74" transform="translate(220.751953 0)"/>
      <use xlink:href="#DejaVuSans-73" transform="translate(259.960938 0)"/>
      <use xlink:href="#DejaVuSans-2f" transform="translate(312.060547 0)"/>
      <use xlink:href="#DejaVuSans-53" transform="translate(345.751953 0)"/>
      <use xlink:href="#DejaVuSans-50" transform="translate(409.228516 0)"/>
      <use xlink:href="#DejaVuSans-53" transform="translate(469.53125 0)"/>
     </g>
    </g>
   </g>
   <g id="line2d_11">
    <path d="M 80.965909 365.41654 
L 86.95508 302.322102 
L 87.553997 297.415919 
L 93.543168 258.183561 
L 99.532339 230.893743 
L 101.32909 224.917535 
L 106.120427 209.597674 
L 112.109598 194.337075 
L 118.697686 181.319056 
L 125.285774 170.764448 
L 131.274945 162.909485 
L 137.863033 155.651929 
L 143.852204 149.865078 
L 149.841375 144.961992 
L 157.028381 140.260572 
L 166.012137 135.151101 
L 169.60564 133.278907 
L 180.985065 128.015828 
L 190.567738 124.130508 
L 195.359075 122.376984 
L 202.54608 120.014185 
L 207.337417 118.618442 
L 214.524422 116.683816 
L 221.11251 114.871325 
L 226.502764 113.586366 
L 242.673526 110.241623 
L 247.464863 109.489797 
L 258.24537 107.733103 
L 264.833458 106.6504 
L 276.8118 105.016431 
L 298.372816 102.275803 
L 301.367401 101.958267 
L 331.313256 99.226263 
L 342.093764 98.35186 
L 345.687267 98.131177 
L 352.275355 97.66357 
L 360.660194 97.044714 
L 371.440702 96.427184 
L 378.02879 96.069993 
L 391.803883 95.091661 
L 395.397386 94.919183 
L 402.584391 94.532435 
L 408.573562 94.228461 
L 484.037117 91.3556 
L 492.421956 91.121797 
L 503.202464 90.722445 
L 523.565645 90.141254 
L 537.340738 89.629864 
L 545.126661 89.525051 
L 559.500671 89.12216 
L 638.557728 87.363698 
L 679.284091 86.61084 
L 679.284091 86.61084 
" clip-path="url(#p87da8ca683)" style="fill: none; stroke: #00008b; stroke-width: 1.5; stroke-linecap: square"/>
   </g>
   <g id="patch_3">
    <path d="M 51.05 390.04 
L 51.05 25.44 
" style="fill: none; stroke: #000000; stroke-width: 0.8; stroke-linejoin: miter; stroke-linecap: square"/>
   </g>
   <g id="patch_4">
    <path d="M 709.2 390.04 
L 709.2 25.44 
" style="fill: none; stroke: #000000; stroke-width: 0.8; stroke-linejoin: miter; stroke-linecap: square"/>
   </g>
   <g id="patch_5">
    <path d="M 51.05 390.04 
L 709.2 390.04 
" style="fill: none; stroke: #000000; stroke-width: 0.8; stroke-linejoin: miter; stroke-linecap: square"/>
   </g>
   <g id="patch_6">
    <path d="M 51.05 25.44 
L 709.2 25.44 
" style="fill: none; stroke: #000000; stroke-width: 0.8; stroke-linejoin: miter; stroke-linecap: square"/>
   </g>
   <g id="text_13">
    <!-- charts/SPS for ppo_atari (aggregated via interpolation over runs) -->
    <g transform="translate(185.30875 19.44) scale(0.12 -0.12)">
     <defs>
      <path id="DejaVuSans-20" transform="scale(0.015625)"/>
      <path id="DejaVuSans-66" d="M 2375 4863 
L 2375 4384 
L 1825 4384 
Q 1516 4384 1395 4259 
Q 1275 4134 1275 3809 
L 1275 3500 
L 2222 3500 
L 2222 3053 
L 1275 3053 
L 1275 0 
L 697 0 
L 697 3053 
L 147 3053 
L 147 3500 
L 697 3500 
L 697 3744 
Q 697 4328 969 4595 
Q 1241 4863 1831 4863 
L 2375 4863 
z
" transform="scale(0.015625)"/>
      <path id="DejaVuSans-6f" d="M 1959 3097 
Q 1497 3097 1228 2736 
Q 959 2375 959 1747 
Q 959 1119 1226 758 
Q 1494 397 1959 397 
Q 2419 397 2687 759 
Q 2956 1122 2956 1747 
Q 2956 2369 2687 2733 
Q 2419 3097 1959 3097 
z
M 1959 3584 
Q 2709 3584 3137 3096 
Q 3566 2609 3566 1747 
Q 3566 888 3137 398 
Q 2709 -91 1959 -91 
Q 1206 -91 779 398 
Q 353 888 353 1747 
Q 353 2609 779 3096 
Q 1206 3584 1959 3584 
z
" transform="scale(0.015625)"/>
      <path id="DejaVuSans-5f" d="M 3263 -1063 
L 3263 -1509 
L -63 -1509 
L -63 -1063 
L 3263 -1063 
z
" transform="scale(0.015625)"/>
      <path id="DejaVuSans-69" d="M 603 3500 
L 1178 3500 
L 1178 0 
L 603 0 
L 603 3500 
z
M 603 4863 
L 1178 4863 
L 1178 4134 
L 603 4134 
L 603 4863 
z
" transform="scale(0.015625)"/>
      <path id="DejaVuSans-28" d="M 1984 4856 
Q 1566 4138 1362 3434 
Q 1159 2731 1159 2009 
Q 1159 1288 1364 580 
Q 1569 -128 1984 -844 
L 1484 -844 
Q 1016 -109 783 600 
Q 550 1309 550 2009 
Q 550 2706 781 3412 
Q 1013 4119 1484 4856 
L 1984 4856 
z
" transform="scale(0.015625)"/>
      <path id="DejaVuSans-67" d="M 2906 1791 
Q 2906 2416 2648 2759 
Q 2391 3103 1925 3103 
Q 1463 3103 1205 2759 
Q 947 2416 947 1791 
Q 947 1169 1205 825 
Q 1463 481 1925 481 
Q 2391 481 2648 825 
Q 2906 1169 2906 1791 
z
M 3481 434 
Q 3481 -459 3084 -895 
Q 2688 -1331 1869 -1331 
Q 1566 -1331 1297 -1286 
Q 1028 -1241 775 -1147 
L 775 -588 
Q 1028 -725 1275 -790 
Q 1522 -856 1778 -856 
Q 2344 -856 2625 -561 
Q 2906 -266 2906 331 
L 2906 616 
Q 2728 306 2450 153 
Q 2172 0 1784 0 
Q 1141 0 747 490 
Q 353 981 353 1791 
Q 353 2603 747 3093 
Q 1141 3584 1784 3584 
Q 2172 3584 2450 3431 
Q 2728 3278 2906 2969 
L 2906 3500 
L 3481 3500 
L 3481 434 
z
" transform="scale(0.015625)"/>
      <path id="DejaVuSans-64" d="M 2906 2969 
L 2906 4863 
L 3481 4863 
L 3481 0 
L 2906 0 
L 2906 525 
Q 2725 213 2448 61 
Q 2172 -91 1784 -91 
Q 1150 -91 751 415 
Q 353 922 353 1747 
Q 353 2572 751 3078 
Q 1150 3584 1784 3584 
Q 2172 3584 2448 3432 
Q 2725 3281 2906 2969 
z
M 947 1747 
Q 947 1113 1208 752 
Q 1469 391 1925 391 
Q 2381 391 2643 752 
Q 2906 1113 2906 1747 
Q 2906 2381 2643 2742 
Q 2381 3103 1925 3103 
Q 1469 3103 1208 2742 
Q 947 2381 947 1747 
z
" transform="scale(0.015625)"/>
      <path id="DejaVuSans-76" d="M 191 3500 
L 800 3500 
L 1894 563 
L 2988 3500 
L 3597 3500 
L 2284 0 
L 1503 0 
L 191 3500 
z
" transform="scale(0.015625)"/>
      <path id="DejaVuSans-6e" d="M 3513 2113 
L 3513 0 
L 2938 0 
L 2938 2094 
Q 2938 2591 2744 2837 
Q 2550 3084 2163 3084 
Q 1697 3084 1428 2787 
Q 1159 2491 1159 1978 
L 1159 0 
L 581 0 
L 581 3500 
L 1159 3500 
L 1159 2956 
Q 1366 3272 1645 3428 
Q 1925 3584 2291 3584 
Q 2894 3584 3203 3211 
Q 3513 2838 3513 2113 
z
" transform="scale(0.015625)"/>
      <path id="DejaVuSans-6c" d="M 603 4863 
L 1178 4863 
L 1178 0 
L 603 0 
L 603 4863 
z
" transform="scale(0.015625)"/>
      <path id="DejaVuSans-75" d="M 544 1381 
L 544 3500 
L 1119 3500 
L 1119 1403 
Q 1119 906 1312 657 
Q 1506 409 1894 409 
Q 2359 409 2629 706 
Q 2900 1003 2900 1516 
L 2900 3500 
L 3475 3500 
L 3475 0 
L 2900 0 
L 2900 538 
Q 2691 219 2414 64 
Q 2138 -91 1772 -91 
Q 1169 -91 856 284 
Q 544 659 544 1381 
z
M 1991 3584 
L 1991 3584 
z
" transform="scale(0.015625)"/>
      <path id="DejaVuSans-29" d="M 513 4856 
L 1013 4856 
Q 1481 4119 1714 3412 
Q 1947 2706 1947 2009 
Q 1947 1309 1714 600 
Q 1481 -109 1013 -844 
L 513 -844 
Q 928 -128 1133 580 
Q 1338 1288 1338 2009 
Q 1338 2731 1133 3434 
Q 928 4138 513 4856 
z
" transform="scale(0.015625)"/>
     </defs>
     <use xlink:href="#DejaVuSans-63"/>
     <use xlink:href="#DejaVuSans-68" transform="translate(54.980469 0)"/>
     <use xlink:href="#DejaVuSans-61" transform="translate(118.359375 0)"/>
     <use xlink:href="#DejaVuSans-72" transform="translate(179.638672 0)"/>
     <use xlink:href="#DejaVuSans-74" transform="translate(220.751953 0)"/>
     <use xlink:href="#DejaVuSans-73" transform="translate(259.960938 0)"/>
     <use xlink:href="#DejaVuSans-2f" transform="translate(312.060547 0)"/>
     <use xlink:href="#DejaVuSans-53" transform="translate(345.751953 0)"/>
     <use xlink:href="#DejaVuSans-50" transform="translate(409.228516 0)"/>
     <use xlink:href="#DejaVuSans-53" transform="translate(469.53125 0)"/>
     <use xlink:href="#DejaVuSans-20" transform="translate(533.007812 0)"/>
     <use xlink:href="#DejaVuSans-66" transform="translate(564.794922 0)"/>
     <use xlink:href="#DejaVuSans-6f" transform="translate(600 0)"/>
     <use xlink:href="#DejaVuSans-72" transform="translate(661.181641 0)"/>
     <use xlink:href="#DejaVuSans-20" transform="translate(702.294922 0)"/>
     <use xlink:href="#DejaVuSans-70" transform="translate(734.082031 0)"/>
     <use xlink:href="#DejaVuSans-70" transform="translate(797.558594 0)"/>
     <use xlink:href="#DejaVuSans-6f" transform="translate(861.035156 0)"/>
     <use xlink:href="#DejaVuSans-5f" transform="translate(922.216797 0)"/>
     <use xlink:href="#DejaVuSans-61" transform="translate(972.216797 0)"/>
     <use xlink:href="#DejaVuSans-74" transform="translate(1033.496094 0)"/>
     <use xlink:href="#DejaVuSans-61" transform="translate(1072.705078 0)"/>
     <use xlink:href="#DejaVuSans-72" transform="translate(1133.984375 0)"/>
     <use xlink:href="#DejaVuSans-69" transform="translate(1175.097656 0)"/>
     <use xlink:href="#DejaVuSans-20" transform="translate(1202.880859 0)"/>
     <use xlink:href="#DejaVuSans-28" transform="translate(1234.667969 0)"/>
     <use xlink:href="#DejaVuSans-61" transform="translate(1273.681641 0)"/>
     <use xlink:href="#DejaVuSans-67" transform="translate(1334.960938 0)"/>
     <use xlink:href="#DejaVuSans-67" transform="translate(1398.4375 0)"/>
     <use xlink:href="#DejaVuSans-72" transform="translate(1461.914062 0)"/>
     <use xlink:href="#DejaVuSans-65" transform="translate(1500.777344 0)"/>
     <use xlink:href="#DejaVuSans-67" transform="translate(1562.300781 0)"/>
     <use xlink:href="#DejaVuSans-61" transform="translate(1625.777344 0)"/>
     <use xlink:href="#DejaVuSans-74" transform="translate(1687.056641 0)"/>
     <use xlink:href="#DejaVuSans-65" transform="translate(1726.265625 0)"/>
     <use xlink:href="#DejaVuSans-64" transform="translate(1787.789062 0)"/>
     <use xlink:href="#DejaVuSans-20" transform="translate(1851.265625 0)"/>
     <use xlink:href="#DejaVuSans-76" transform="translate(1883.052734 0)"/>
     <use xlink:href="#DejaVuSans-69" transform="translate(1942.232422 0)"/>
     <use xlink:href="#DejaVuSans-61" transform="translate(1970.015625 0)"/>
     <use xlink:href="#DejaVuSans-20" transform="translate(2031.294922 0)"/>
     <use xlink:href="#DejaVuSans-69" transform="translate(2063.082031 0)"/>
     <use xlink:href="#DejaVuSans-6e" transform="translate(2090.865234 0)"/>
     <use xlink:href="#DejaVuSans-74" transform="translate(2154.244141 0)"/>
     <use xlink:href="#DejaVuSans-65" transform="translate(2193.453125 0)"/>
     <use xlink:href="#DejaVuSans-72" transform="translate(2254.976562 0)"/>
     <use xlink:href="#DejaVuSans-70" transform="translate(2296.089844 0)"/>
     <use xlink:href="#DejaVuSans-6f" transform="translate(2359.566406 0)"/>
     <use xlink:href="#DejaVuSans-6c" transform="translate(2420.748047 0)"/>
     <use xlink:href="#DejaVuSans-61" transform="translate(2448.53125 0)"/>
     <use xlink:href="#DejaVuSans-74" transform="translate(2509.810547 0)"/>
     <use xlink:href="#DejaVuSans-69" transform="translate(2549.019531 0)"/>
     <use xlink:href="#DejaVuSans-6f" transform="translate(2576.802734 0)"/>
     <use xlink:href="#DejaVuSans-6e" transform="translate(2637.984375 0)"/>
     <use xlink:href="#DejaVuSans-20" transform="translate(2701.363281 0)"/>
     <use xlink:href="#DejaVuSans-6f" transform="translate(2733.150391 0)"/>
     <use xlink:href="#DejaVuSans-76" transform="translate(2794.332031 0)"/>
     <use xlink:href="#DejaVuSans-65" transform="translate(2853.511719 0)"/>
     <use xlink:href="#DejaVuSans-72" transform="translate(2915.035156 0)"/>
     <use xlink:href="#DejaVuSans-20" transform="translate(2956.148438 0)"/>
     <use xlink:href="#DejaVuSans-72" transform="translate(2987.935547 0)"/>
     <use xlink:href="#DejaVuSans-75" transform="translate(3029.048828 0)"/>
     <use xlink:href="#DejaVuSans-6e" transform="translate(3092.427734 0)"/>
     <use xlink:href="#DejaVuSans-73" transform="translate(3155.806641 0)"/>
     <use xlink:href="#DejaVuSans-29" transform="translate(3207.90625 0)"/>
    </g>
   </g>
   <g id="legend_1">
    <g id="patch_7">
     <path d="M 58.05 62.79625 
L 133.46875 62.79625 
Q 135.46875 62.79625 135.46875 60.79625 
L 135.46875 32.44 
Q 135.46875 30.44 133.46875 30.44 
L 58.05 30.44 
Q 56.05 30.44 56.05 32.44 
L 56.05 60.79625 
Q 56.05 62.79625 58.05 62.79625 
z
" style="fill: #ffffff; opacity: 0.8; stroke: #cccccc; stroke-linejoin: miter"/>
    </g>
    <g id="line2d_12">
     <path d="M 60.05 38.538437 
L 70.05 38.538437 
L 80.05 38.538437 
" style="fill: none; stroke: #00008b; stroke-width: 1.5; stroke-linecap: square"/>
    </g>
    <g id="text_14">
     <!-- Mean -->
     <g transform="translate(88.05 42.038437) scale(0.1 -0.1)">
      <defs>
       <path id="DejaVuSans-4d" d="M 628 4666 
L 1569 4666 
L 2759 1491 
L 3956 4666 
L 4897 4666 
L 4897 0 
L 4281 0 
L 4281 4097 
L 3078 897 
L 2444 897 
L 1241 4097 
L 1241 0 
L 628 0 
L 628 4666 
z
" transform="scale(0.015625)"/>
      </defs>
      <use xlink:href="#DejaVuSans-4d"/>
      <use xlink:href="#DejaVuSans-65" transform="translate(86.279297 0)"/>
      <use xlink:href="#DejaVuSans-61" transform="translate(147.802734 0)"/>
      <use xlink:href="#DejaVuSans-6e" transform="translate(209.082031 0)"/>
     </g>
    </g>
    <g id="patch_8">
     <path d="M 60.05 56.716563 
L 80.05 56.716563 
L 80.05 49.716563 
L 60.05 49.716563 
z
" style="fill: #00008b; fill-opacity: 0.3; stroke: #00008b; stroke-opacity: 0.3; stroke-linejoin: miter"/>
    </g>
    <g id="text_15">
     <!-- MinMax -->
     <g transform="translate(88.05 56.716563) scale(0.1 -0.1)">
      <defs>
       <path id="DejaVuSans-2013" d="M 313 1978 
L 2888 1978 
L 2888 1528 
L 313 1528 
L 313 1978 
z
" transform="scale(0.015625)"/>
       <path id="DejaVuSans-78" d="M 3513 3500 
L 2247 1797 
L 3578 0 
L 2900 0 
L 1881 1375 
L 863 0 
L 184 0 
L 1544 1831 
L 300 3500 
L 978 3500 
L 1906 2253 
L 2834 3500 
L 3513 3500 
z
" transform="scale(0.015625)"/>
      </defs>
      <use xlink:href="#DejaVuSans-4d"/>
      <use xlink:href="#DejaVuSans-69" transform="translate(86.279297 0)"/>
      <use xlink:href="#DejaVuSans-6e" transform="translate(114.0625 0)"/>
      <use xlink:href="#DejaVuSans-2013" transform="translate(177.441406 0)"/>
      <use xlink:href="#DejaVuSans-4d" transform="translate(227.441406 0)"/>
      <use xlink:href="#DejaVuSans-61" transform="translate(313.720703 0)"/>
      <use xlink:href="#DejaVuSans-78" transform="translate(375 0)"/>
     </g>
    </g>
   </g>
  </g>
 </g>
 <defs>
  <clipPath id="p87da8ca683">
   <rect x="51.05" y="25.44" width="658.15" height="364.6"/>
  </clipPath>
 </defs>
</svg>
