<?xml version="1.0" encoding="utf-8" standalone="no"?>
<!DOCTYPE svg PUBLIC "-//W3C//DTD SVG 1.1//EN"
  "http://www.w3.org/Graphics/SVG/1.1/DTD/svg11.dtd">
<svg xmlns:xlink="http://www.w3.org/1999/xlink" width="720pt" height="432pt" viewBox="0 0 720 432" xmlns="http://www.w3.org/2000/svg" version="1.1">
 <metadata>
  <rdf:RDF xmlns:dc="http://purl.org/dc/elements/1.1/" xmlns:cc="http://creativecommons.org/ns#" xmlns:rdf="http://www.w3.org/1999/02/22-rdf-syntax-ns#">
   <cc:Work>
    <dc:type rdf:resource="http://purl.org/dc/dcmitype/StillImage"/>
    <dc:date>2025-02-05T20:32:07.946182</dc:date>
    <dc:format>image/svg+xml</dc:format>
    <dc:creator>
     <cc:Agent>
      <dc:title>Matplotlib v3.10.0, https://matplotlib.org/</dc:title>
     </cc:Agent>
    </dc:creator>
   </cc:Work>
  </rdf:RDF>
 </metadata>
 <defs>
  <style type="text/css">*{stroke-linejoin: round; stroke-linecap: butt}</style>
 </defs>
 <g id="figure_1">
  <g id="patch_1">
   <path d="M 0 432 
L 720 432 
L 720 0 
L 0 0 
z
" style="fill: #ffffff"/>
  </g>
  <g id="axes_1">
   <g id="patch_2">
    <path d="M 73.47125 390.04 
L 709.2 390.04 
L 709.2 25.44 
L 73.47125 25.44 
z
" style="fill: #ffffff"/>
   </g>
   <g id="FillBetweenPolyCollection_1">
    <defs>
     <path id="m0a1af7604f" d="M 102.368011 -389.987273 
L 102.368011 -389.987273 
L 102.946525 -389.655487 
L 103.525039 -389.3237 
L 104.103553 -388.991914 
L 104.682066 -388.660128 
L 105.26058 -388.328342 
L 105.839094 -387.996555 
L 106.417608 -387.664769 
L 106.996121 -387.332983 
L 107.574635 -387.001197 
L 108.153149 -386.669411 
L 108.731663 -386.337624 
L 109.310176 -386.005838 
L 109.88869 -385.674052 
L 110.467204 -385.342266 
L 111.045717 -385.010479 
L 111.624231 -384.678693 
L 112.202745 -384.346907 
L 112.781259 -384.015121 
L 113.359772 -383.683335 
L 113.938286 -383.351548 
L 114.5168 -383.019762 
L 115.095314 -382.687974 
L 115.673827 -382.356186 
L 116.252341 -382.024398 
L 116.830855 -381.692609 
L 117.409369 -381.360821 
L 117.987882 -381.029033 
L 118.566396 -380.697245 
L 119.14491 -380.365457 
L 119.723424 -380.033669 
L 120.301937 -379.701881 
L 120.880451 -379.370094 
L 121.458965 -379.038308 
L 122.037479 -378.706522 
L 122.615992 -378.374736 
L 123.194506 -378.042949 
L 123.77302 -377.711163 
L 124.351534 -377.379377 
L 124.930047 -377.047591 
L 125.508561 -376.715805 
L 126.087075 -376.384018 
L 126.665588 -376.052232 
L 127.244102 -375.720446 
L 127.822616 -375.38866 
L 128.40113 -375.056874 
L 128.979643 -374.725087 
L 129.558157 -374.393301 
L 130.136671 -374.061515 
L 130.715185 -373.729729 
L 131.293698 -373.397942 
L 131.872212 -373.066156 
L 132.450726 -372.73437 
L 133.02924 -372.402584 
L 133.607753 -372.070798 
L 134.186267 -371.739011 
L 134.764781 -371.407225 
L 135.343295 -371.075439 
L 135.921808 -370.743653 
L 136.500322 -370.411867 
L 137.078836 -370.08008 
L 137.65735 -369.748294 
L 138.235863 -369.416508 
L 138.814377 -369.084722 
L 139.392891 -368.752935 
L 139.971405 -368.421149 
L 140.549918 -368.089363 
L 141.128432 -367.757577 
L 141.706946 -367.425791 
L 142.285459 -367.094004 
L 142.863973 -366.762218 
L 143.442487 -366.430432 
L 144.021001 -366.098646 
L 144.599514 -365.766859 
L 145.178028 -365.435073 
L 145.756542 -365.103287 
L 146.335056 -364.771501 
L 146.913569 -364.439715 
L 147.492083 -364.107928 
L 148.070597 -363.776142 
L 148.649111 -363.444356 
L 149.227624 -363.11257 
L 149.806138 -362.780784 
L 150.384652 -362.448997 
L 150.963166 -362.117211 
L 151.541679 -361.785425 
L 152.120193 -361.453639 
L 152.698707 -361.121852 
L 153.277221 -360.790066 
L 153.855734 -360.45828 
L 154.434248 -360.126494 
L 155.012762 -359.794708 
L 155.591276 -359.462921 
L 156.169789 -359.131135 
L 156.748303 -358.799349 
L 157.326817 -358.467563 
L 157.905331 -358.135777 
L 158.483844 -357.80399 
L 159.062358 -357.472204 
L 159.640872 -357.140418 
L 160.219385 -356.808632 
L 160.797899 -356.476845 
L 161.376413 -356.145059 
L 161.954927 -355.813273 
L 162.53344 -355.481487 
L 163.111954 -355.149701 
L 163.690468 -354.817914 
L 164.268982 -354.486128 
L 164.847495 -354.154342 
L 165.426009 -353.822556 
L 166.004523 -353.49077 
L 166.583037 -353.158983 
L 167.16155 -352.827197 
L 167.740064 -352.495411 
L 168.318578 -352.163625 
L 168.897092 -351.831838 
L 169.475605 -351.500052 
L 170.054119 -351.168266 
L 170.632633 -350.83648 
L 171.211147 -350.504694 
L 171.78966 -350.172907 
L 172.368174 -349.841121 
L 172.946688 -349.509335 
L 173.525202 -349.177549 
L 174.103715 -348.845762 
L 174.682229 -348.513976 
L 175.260743 -348.182188 
L 175.839256 -347.8504 
L 176.41777 -347.518612 
L 176.996284 -347.186824 
L 177.574798 -346.855036 
L 178.153311 -346.523248 
L 178.731825 -346.191459 
L 179.310339 -345.859671 
L 179.888853 -345.527883 
L 180.467366 -345.196095 
L 181.04588 -344.864308 
L 181.624394 -344.532522 
L 182.202908 -344.200736 
L 182.781421 -343.86895 
L 183.359935 -343.537164 
L 183.938449 -343.205377 
L 184.516963 -342.873591 
L 185.095476 -342.541805 
L 185.67399 -342.210019 
L 186.252504 -341.878232 
L 186.831018 -341.546446 
L 187.409531 -341.21466 
L 187.988045 -340.882874 
L 188.566559 -340.551088 
L 189.145073 -340.219301 
L 189.723586 -339.887515 
L 190.3021 -339.555729 
L 190.880614 -339.223943 
L 191.459127 -338.892157 
L 192.037641 -338.56037 
L 192.616155 -338.228584 
L 193.194669 -337.896798 
L 193.773182 -337.565012 
L 194.351696 -337.233225 
L 194.93021 -336.901439 
L 195.508724 -336.569653 
L 196.087237 -336.237867 
L 196.665751 -335.906081 
L 197.244265 -335.574294 
L 197.822779 -335.242508 
L 198.401292 -334.910722 
L 198.979806 -334.578936 
L 199.55832 -334.24715 
L 200.136834 -333.915363 
L 200.715347 -333.583577 
L 201.293861 -333.251791 
L 201.872375 -332.920005 
L 202.450889 -332.588218 
L 203.029402 -332.256432 
L 203.607916 -331.924646 
L 204.18643 -331.59286 
L 204.764944 -331.261074 
L 205.343457 -330.929287 
L 205.921971 -330.597501 
L 206.500485 -330.265715 
L 207.078998 -329.933929 
L 207.657512 -329.602142 
L 208.236026 -329.270356 
L 208.81454 -328.93857 
L 209.393053 -328.606784 
L 209.971567 -328.274998 
L 210.550081 -327.943211 
L 211.128595 -327.611425 
L 211.707108 -327.279639 
L 212.285622 -326.947853 
L 212.864136 -326.616067 
L 213.44265 -326.28428 
L 214.021163 -325.952494 
L 214.599677 -325.620708 
L 215.178191 -325.288922 
L 215.756705 -324.957135 
L 216.335218 -324.625349 
L 216.913732 -324.293563 
L 217.492246 -323.961777 
L 218.07076 -323.629991 
L 218.649273 -323.298204 
L 219.227787 -322.966418 
L 219.806301 -322.634632 
L 220.384815 -322.302846 
L 220.963328 -321.97106 
L 221.541842 -321.639273 
L 222.120356 -321.307487 
L 222.698869 -320.975701 
L 223.277383 -320.643915 
L 223.855897 -320.312128 
L 224.434411 -319.980342 
L 225.012924 -319.648556 
L 225.591438 -319.31677 
L 226.169952 -318.984984 
L 226.748466 -318.653197 
L 227.326979 -318.321411 
L 227.905493 -317.989625 
L 228.484007 -317.657839 
L 229.062521 -317.326053 
L 229.641034 -316.994266 
L 230.219548 -316.66248 
L 230.798062 -316.330694 
L 231.376576 -315.998908 
L 231.955089 -315.667121 
L 232.533603 -315.335335 
L 233.112117 -315.003549 
L 233.690631 -314.671763 
L 234.269144 -314.339977 
L 234.847658 -314.00819 
L 235.426172 -313.676404 
L 236.004686 -313.344618 
L 236.583199 -313.012832 
L 237.161713 -312.681045 
L 237.740227 -312.349259 
L 238.318741 -312.017473 
L 238.897254 -311.685687 
L 239.475768 -311.353901 
L 240.054282 -311.022114 
L 240.632795 -310.690328 
L 241.211309 -310.358542 
L 241.789823 -310.026756 
L 242.368337 -309.69497 
L 242.94685 -309.363183 
L 243.525364 -309.031397 
L 244.103878 -308.699611 
L 244.682392 -308.367825 
L 245.260905 -308.036038 
L 245.839419 -307.704252 
L 246.417933 -307.372466 
L 246.996447 -307.04068 
L 247.57496 -306.708894 
L 248.153474 -306.377107 
L 248.731988 -306.045321 
L 249.310502 -305.713535 
L 249.889015 -305.381749 
L 250.467529 -305.049963 
L 251.046043 -304.718176 
L 251.624557 -304.38639 
L 252.20307 -304.054604 
L 252.781584 -303.722818 
L 253.360098 -303.391031 
L 253.938612 -303.059245 
L 254.517125 -302.727459 
L 255.095639 -302.395673 
L 255.674153 -302.063887 
L 256.252666 -301.7321 
L 256.83118 -301.400314 
L 257.409694 -301.068528 
L 257.988208 -300.736742 
L 258.566721 -300.404956 
L 259.145235 -300.073169 
L 259.723749 -299.741383 
L 260.302263 -299.409597 
L 260.880776 -299.077811 
L 261.45929 -298.746024 
L 262.037804 -298.414238 
L 262.616318 -298.082452 
L 263.194831 -297.750666 
L 263.773345 -297.41888 
L 264.351859 -297.087093 
L 264.930373 -296.755307 
L 265.508886 -296.423521 
L 266.0874 -296.091735 
L 266.665914 -295.759949 
L 267.244428 -295.428162 
L 267.822941 -295.096376 
L 268.401455 -294.76459 
L 268.979969 -294.432804 
L 269.558483 -294.101017 
L 270.136996 -293.769231 
L 270.71551 -293.437445 
L 271.294024 -293.105659 
L 271.872537 -292.773873 
L 272.451051 -292.442086 
L 273.029565 -292.1103 
L 273.608079 -291.778514 
L 274.186592 -291.446728 
L 274.765106 -291.114941 
L 275.34362 -290.783155 
L 275.922134 -290.451369 
L 276.500647 -290.119583 
L 277.079161 -289.787797 
L 277.657675 -289.45601 
L 278.236189 -289.124224 
L 278.814702 -288.792438 
L 279.393216 -288.460652 
L 279.97173 -288.128866 
L 280.550244 -287.797079 
L 281.128757 -287.465293 
L 281.707271 -287.133507 
L 282.285785 -286.801721 
L 282.864299 -286.469934 
L 283.442812 -286.138148 
L 284.021326 -285.806362 
L 284.59984 -285.474576 
L 285.178354 -285.14279 
L 285.756867 -284.811003 
L 286.335381 -284.479217 
L 286.913895 -284.147431 
L 287.492408 -283.815645 
L 288.070922 -283.483859 
L 288.649436 -283.152072 
L 289.22795 -282.820285 
L 289.806463 -282.488497 
L 290.384977 -282.156709 
L 290.963491 -281.824921 
L 291.542005 -281.493133 
L 292.120518 -281.161345 
L 292.699032 -280.829557 
L 293.277546 -280.497769 
L 293.85606 -280.165981 
L 294.434573 -279.834193 
L 295.013087 -279.502404 
L 295.591601 -279.170618 
L 296.170115 -278.838832 
L 296.748628 -278.507046 
L 297.327142 -278.17526 
L 297.905656 -277.843473 
L 298.48417 -277.511687 
L 299.062683 -277.179901 
L 299.641197 -276.848115 
L 300.219711 -276.516329 
L 300.798225 -276.184542 
L 301.376738 -275.852756 
L 301.955252 -275.52097 
L 302.533766 -275.189184 
L 303.112279 -274.857397 
L 303.690793 -274.525611 
L 304.269307 -274.193825 
L 304.847821 -273.862039 
L 305.426334 -273.530253 
L 306.004848 -273.198466 
L 306.583362 -272.86668 
L 307.161876 -272.534894 
L 307.740389 -272.203108 
L 308.318903 -271.871321 
L 308.897417 -271.539535 
L 309.475931 -271.207749 
L 310.054444 -270.875963 
L 310.632958 -270.544177 
L 311.211472 -270.21239 
L 311.789986 -269.880604 
L 312.368499 -269.548818 
L 312.947013 -269.217032 
L 313.525527 -268.885246 
L 314.104041 -268.553459 
L 314.682554 -268.221673 
L 315.261068 -267.889887 
L 315.839582 -267.558101 
L 316.418096 -267.226314 
L 316.996609 -266.894528 
L 317.575123 -266.562742 
L 318.153637 -266.230956 
L 318.732151 -265.89917 
L 319.310664 -265.567383 
L 319.889178 -265.235597 
L 320.467692 -264.903811 
L 321.046205 -264.572025 
L 321.624719 -264.240239 
L 322.203233 -263.908452 
L 322.781747 -263.576666 
L 323.36026 -263.24488 
L 323.938774 -262.913094 
L 324.517288 -262.581307 
L 325.095802 -262.249521 
L 325.674315 -261.917735 
L 326.252829 -261.585949 
L 326.831343 -261.254163 
L 327.409857 -260.922376 
L 327.98837 -260.59059 
L 328.566884 -260.258804 
L 329.145398 -259.927018 
L 329.723912 -259.595232 
L 330.302425 -259.263445 
L 330.880939 -258.931659 
L 331.459453 -258.599873 
L 332.037967 -258.268087 
L 332.61648 -257.9363 
L 333.194994 -257.604514 
L 333.773508 -257.272728 
L 334.352022 -256.940942 
L 334.930535 -256.609156 
L 335.509049 -256.277369 
L 336.087563 -255.945583 
L 336.666076 -255.613797 
L 337.24459 -255.282011 
L 337.823104 -254.950224 
L 338.401618 -254.618438 
L 338.980131 -254.286652 
L 339.558645 -253.954866 
L 340.137159 -253.62308 
L 340.715673 -253.291293 
L 341.294186 -252.959507 
L 341.8727 -252.627721 
L 342.451214 -252.295935 
L 343.029728 -251.964149 
L 343.608241 -251.632362 
L 344.186755 -251.300576 
L 344.765269 -250.96879 
L 345.343783 -250.637004 
L 345.922296 -250.305217 
L 346.50081 -249.973431 
L 347.079324 -249.641645 
L 347.657838 -249.309859 
L 348.236351 -248.978073 
L 348.814865 -248.646286 
L 349.393379 -248.3145 
L 349.971893 -247.982714 
L 350.550406 -247.650928 
L 351.12892 -247.319142 
L 351.707434 -246.987355 
L 352.285947 -246.655569 
L 352.864461 -246.323783 
L 353.442975 -245.991997 
L 354.021489 -245.66021 
L 354.600002 -245.328424 
L 355.178516 -244.996638 
L 355.75703 -244.664852 
L 356.335544 -244.333066 
L 356.914057 -244.001279 
L 357.492571 -243.669493 
L 358.071085 -243.337707 
L 358.649599 -243.005921 
L 359.228112 -242.674135 
L 359.806626 -242.342348 
L 360.38514 -242.010562 
L 360.963654 -241.678776 
L 361.542167 -241.34699 
L 362.120681 -241.015203 
L 362.699195 -240.683417 
L 363.277709 -240.351631 
L 363.856222 -240.019845 
L 364.434736 -239.688059 
L 365.01325 -239.356272 
L 365.591764 -239.024486 
L 366.170277 -238.6927 
L 366.748791 -238.360914 
L 367.327305 -238.029127 
L 367.905818 -237.697341 
L 368.484332 -237.365555 
L 369.062846 -237.033769 
L 369.64136 -236.701983 
L 370.219873 -236.370196 
L 370.798387 -236.03841 
L 371.376901 -235.706624 
L 371.955415 -235.374838 
L 372.533928 -235.043052 
L 373.112442 -234.711265 
L 373.690956 -234.379479 
L 374.26947 -234.047693 
L 374.847983 -233.715907 
L 375.426497 -233.38412 
L 376.005011 -233.052334 
L 376.583525 -232.720548 
L 377.162038 -232.388762 
L 377.740552 -232.056976 
L 378.319066 -231.725189 
L 378.89758 -231.393403 
L 379.476093 -231.061617 
L 380.054607 -230.729831 
L 380.633121 -230.398045 
L 381.211635 -230.066258 
L 381.790148 -229.734472 
L 382.368662 -229.402686 
L 382.947176 -229.0709 
L 383.525689 -228.739113 
L 384.104203 -228.407327 
L 384.682717 -228.075541 
L 385.261231 -227.743755 
L 385.839744 -227.411969 
L 386.418258 -227.080182 
L 386.996772 -226.748396 
L 387.575286 -226.41661 
L 388.153799 -226.084824 
L 388.732313 -225.753038 
L 389.310827 -225.421251 
L 389.889341 -225.089465 
L 390.467854 -224.757679 
L 391.046368 -224.425893 
L 391.624882 -224.094106 
L 392.203396 -223.76232 
L 392.781909 -223.430534 
L 393.360423 -223.098748 
L 393.938937 -222.766962 
L 394.517451 -222.435175 
L 395.095964 -222.103389 
L 395.674478 -221.771603 
L 396.252992 -221.439817 
L 396.831506 -221.10803 
L 397.410019 -220.776244 
L 397.988533 -220.444457 
L 398.567047 -220.11267 
L 399.145561 -219.780883 
L 399.724074 -219.449096 
L 400.302588 -219.117308 
L 400.881102 -218.785521 
L 401.459615 -218.453734 
L 402.038129 -218.121947 
L 402.616643 -217.79016 
L 403.195157 -217.458373 
L 403.77367 -217.126586 
L 404.352184 -216.7948 
L 404.930698 -216.463014 
L 405.509212 -216.131228 
L 406.087725 -215.799441 
L 406.666239 -215.467655 
L 407.244753 -215.135869 
L 407.823267 -214.804083 
L 408.40178 -214.472296 
L 408.980294 -214.14051 
L 409.558808 -213.808724 
L 410.137322 -213.476938 
L 410.715835 -213.145152 
L 411.294349 -212.813365 
L 411.872863 -212.481579 
L 412.451377 -212.149793 
L 413.02989 -211.818007 
L 413.608404 -211.48622 
L 414.186918 -211.154434 
L 414.765432 -210.822648 
L 415.343945 -210.490862 
L 415.922459 -210.159076 
L 416.500973 -209.827289 
L 417.079486 -209.495503 
L 417.658 -209.163717 
L 418.236514 -208.831931 
L 418.815028 -208.500145 
L 419.393541 -208.168358 
L 419.972055 -207.836572 
L 420.550569 -207.504786 
L 421.129083 -207.173 
L 421.707596 -206.841213 
L 422.28611 -206.509427 
L 422.864624 -206.177641 
L 423.443138 -205.845855 
L 424.021651 -205.514069 
L 424.600165 -205.182282 
L 425.178679 -204.850496 
L 425.757193 -204.51871 
L 426.335706 -204.186924 
L 426.91422 -203.855138 
L 427.492734 -203.523351 
L 428.071248 -203.191564 
L 428.649761 -202.859777 
L 429.228275 -202.52799 
L 429.806789 -202.196203 
L 430.385303 -201.864415 
L 430.963816 -201.532628 
L 431.54233 -201.200841 
L 432.120844 -200.869054 
L 432.699357 -200.537267 
L 433.277871 -200.20548 
L 433.856385 -199.873693 
L 434.434899 -199.541907 
L 435.013412 -199.210121 
L 435.591926 -198.878335 
L 436.17044 -198.546548 
L 436.748954 -198.214762 
L 437.327467 -197.882976 
L 437.905981 -197.55119 
L 438.484495 -197.219403 
L 439.063009 -196.887617 
L 439.641522 -196.555831 
L 440.220036 -196.224045 
L 440.79855 -195.892259 
L 441.377064 -195.560472 
L 441.955577 -195.228686 
L 442.534091 -194.8969 
L 443.112605 -194.565114 
L 443.691119 -194.233328 
L 444.269632 -193.901541 
L 444.848146 -193.569755 
L 445.42666 -193.237969 
L 446.005174 -192.906183 
L 446.583687 -192.574396 
L 447.162201 -192.24261 
L 447.740715 -191.910824 
L 448.319228 -191.579038 
L 448.897742 -191.247252 
L 449.476256 -190.915465 
L 450.05477 -190.583679 
L 450.633283 -190.251893 
L 451.211797 -189.920107 
L 451.790311 -189.588321 
L 452.368825 -189.256534 
L 452.947338 -188.924748 
L 453.525852 -188.592962 
L 454.104366 -188.261176 
L 454.68288 -187.929389 
L 455.261393 -187.597603 
L 455.839907 -187.265817 
L 456.418421 -186.934031 
L 456.996935 -186.602245 
L 457.575448 -186.270458 
L 458.153962 -185.938672 
L 458.732476 -185.606886 
L 459.31099 -185.2751 
L 459.889503 -184.943313 
L 460.468017 -184.611527 
L 461.046531 -184.279741 
L 461.625045 -183.947955 
L 462.203558 -183.616169 
L 462.782072 -183.284382 
L 463.360586 -182.952596 
L 463.939099 -182.62081 
L 464.517613 -182.289024 
L 465.096127 -181.957238 
L 465.674641 -181.625451 
L 466.253154 -181.293665 
L 466.831668 -180.961879 
L 467.410182 -180.630093 
L 467.988696 -180.298306 
L 468.567209 -179.96652 
L 469.145723 -179.634734 
L 469.724237 -179.302948 
L 470.302751 -178.971162 
L 470.881264 -178.639375 
L 471.459778 -178.307589 
L 472.038292 -177.975803 
L 472.616806 -177.644017 
L 473.195319 -177.312231 
L 473.773833 -176.980444 
L 474.352347 -176.648658 
L 474.930861 -176.316872 
L 475.509374 -175.985086 
L 476.087888 -175.653299 
L 476.666402 -175.321513 
L 477.244916 -174.989727 
L 477.823429 -174.657941 
L 478.401943 -174.326155 
L 478.980457 -173.994368 
L 479.558971 -173.662582 
L 480.137484 -173.330796 
L 480.715998 -172.99901 
L 481.294512 -172.667224 
L 481.873025 -172.335437 
L 482.451539 -172.003651 
L 483.030053 -171.671865 
L 483.608567 -171.340079 
L 484.18708 -171.008292 
L 484.765594 -170.676506 
L 485.344108 -170.34472 
L 485.922622 -170.012934 
L 486.501135 -169.681148 
L 487.079649 -169.349361 
L 487.658163 -169.017575 
L 488.236677 -168.685788 
L 488.81519 -168.354001 
L 489.393704 -168.022214 
L 489.972218 -167.690427 
L 490.550732 -167.358639 
L 491.129245 -167.026852 
L 491.707759 -166.695065 
L 492.286273 -166.363278 
L 492.864787 -166.031491 
L 493.4433 -165.699704 
L 494.021814 -165.367917 
L 494.600328 -165.036131 
L 495.178842 -164.704345 
L 495.757355 -164.372558 
L 496.335869 -164.040772 
L 496.914383 -163.708986 
L 497.492896 -163.3772 
L 498.07141 -163.045414 
L 498.649924 -162.713627 
L 499.228438 -162.381841 
L 499.806951 -162.050055 
L 500.385465 -161.718269 
L 500.963979 -161.386482 
L 501.542493 -161.054696 
L 502.121006 -160.72291 
L 502.69952 -160.391124 
L 503.278034 -160.059338 
L 503.856548 -159.727551 
L 504.435061 -159.395765 
L 505.013575 -159.063979 
L 505.592089 -158.732193 
L 506.170603 -158.400407 
L 506.749116 -158.06862 
L 507.32763 -157.736834 
L 507.906144 -157.405048 
L 508.484658 -157.073262 
L 509.063171 -156.741475 
L 509.641685 -156.409689 
L 510.220199 -156.077903 
L 510.798713 -155.746117 
L 511.377226 -155.414331 
L 511.95574 -155.082544 
L 512.534254 -154.750758 
L 513.112767 -154.418972 
L 513.691281 -154.087186 
L 514.269795 -153.755399 
L 514.848309 -153.423613 
L 515.426822 -153.091827 
L 516.005336 -152.760041 
L 516.58385 -152.428255 
L 517.162364 -152.096468 
L 517.740877 -151.764682 
L 518.319391 -151.432896 
L 518.897905 -151.10111 
L 519.476419 -150.769324 
L 520.054932 -150.437537 
L 520.633446 -150.105751 
L 521.21196 -149.773965 
L 521.790474 -149.442179 
L 522.368987 -149.110392 
L 522.947501 -148.778606 
L 523.526015 -148.44682 
L 524.104529 -148.115034 
L 524.683042 -147.783248 
L 525.261556 -147.451461 
L 525.84007 -147.119675 
L 526.418584 -146.787889 
L 526.997097 -146.456103 
L 527.575611 -146.124317 
L 528.154125 -145.79253 
L 528.732638 -145.460744 
L 529.311152 -145.128958 
L 529.889666 -144.797172 
L 530.46818 -144.465385 
L 531.046693 -144.133599 
L 531.625207 -143.801813 
L 532.203721 -143.470027 
L 532.782235 -143.138241 
L 533.360748 -142.806454 
L 533.939262 -142.474668 
L 534.517776 -142.142882 
L 535.09629 -141.811096 
L 535.674803 -141.47931 
L 536.253317 -141.147523 
L 536.831831 -140.815737 
L 537.410345 -140.483951 
L 537.988858 -140.152165 
L 538.567372 -139.820378 
L 539.145886 -139.488592 
L 539.7244 -139.156806 
L 540.302913 -138.82502 
L 540.881427 -138.493234 
L 541.459941 -138.161447 
L 542.038455 -137.829661 
L 542.616968 -137.497874 
L 543.195482 -137.166088 
L 543.773996 -136.834301 
L 544.352509 -136.502514 
L 544.931023 -136.170728 
L 545.509537 -135.838941 
L 546.088051 -135.507154 
L 546.666564 -135.175368 
L 547.245078 -134.843581 
L 547.823592 -134.511794 
L 548.402106 -134.180008 
L 548.980619 -133.848222 
L 549.559133 -133.516435 
L 550.137647 -133.184649 
L 550.716161 -132.852863 
L 551.294674 -132.521077 
L 551.873188 -132.189291 
L 552.451702 -131.857504 
L 553.030216 -131.525718 
L 553.608729 -131.193932 
L 554.187243 -130.862145 
L 554.765757 -130.530359 
L 555.344271 -130.198572 
L 555.922784 -129.866785 
L 556.501298 -129.534999 
L 557.079812 -129.203212 
L 557.658326 -128.871425 
L 558.236839 -128.539639 
L 558.815353 -128.207852 
L 559.393867 -127.876065 
L 559.972381 -127.544279 
L 560.550894 -127.212492 
L 561.129408 -126.880706 
L 561.707922 -126.54892 
L 562.286435 -126.217134 
L 562.864949 -125.885348 
L 563.443463 -125.553561 
L 564.021977 -125.221775 
L 564.60049 -124.889989 
L 565.179004 -124.558203 
L 565.757518 -124.226417 
L 566.336032 -123.89463 
L 566.914545 -123.562844 
L 567.493059 -123.231058 
L 568.071573 -122.899272 
L 568.650087 -122.567485 
L 569.2286 -122.235699 
L 569.807114 -121.903913 
L 570.385628 -121.572127 
L 570.964142 -121.240341 
L 571.542655 -120.908554 
L 572.121169 -120.576768 
L 572.699683 -120.244982 
L 573.278197 -119.913196 
L 573.85671 -119.58141 
L 574.435224 -119.249623 
L 575.013738 -118.917837 
L 575.592252 -118.586051 
L 576.170765 -118.254265 
L 576.749279 -117.922478 
L 577.327793 -117.590692 
L 577.906306 -117.258906 
L 578.48482 -116.92712 
L 579.063334 -116.595334 
L 579.641848 -116.263547 
L 580.220361 -115.931761 
L 580.798875 -115.599975 
L 581.377389 -115.268189 
L 581.955903 -114.936403 
L 582.534416 -114.604616 
L 583.11293 -114.27283 
L 583.691444 -113.941044 
L 584.269958 -113.609257 
L 584.848471 -113.277471 
L 585.426985 -112.945684 
L 586.005499 -112.613897 
L 586.584013 -112.282111 
L 587.162526 -111.950324 
L 587.74104 -111.618537 
L 588.319554 -111.286751 
L 588.898068 -110.954964 
L 589.476581 -110.623177 
L 590.055095 -110.291391 
L 590.633609 -109.959604 
L 591.212123 -109.627818 
L 591.790636 -109.296032 
L 592.36915 -108.964246 
L 592.947664 -108.63246 
L 593.526177 -108.300673 
L 594.104691 -107.968887 
L 594.683205 -107.637101 
L 595.261719 -107.305315 
L 595.840232 -106.973528 
L 596.418746 -106.641742 
L 596.99726 -106.309956 
L 597.575774 -105.97817 
L 598.154287 -105.646384 
L 598.732801 -105.314597 
L 599.311315 -104.982811 
L 599.889829 -104.651025 
L 600.468342 -104.319239 
L 601.046856 -103.987453 
L 601.62537 -103.655666 
L 602.203884 -103.32388 
L 602.782397 -102.992094 
L 603.360911 -102.660308 
L 603.939425 -102.328521 
L 604.517939 -101.996735 
L 605.096452 -101.664949 
L 605.674966 -101.333163 
L 606.25348 -101.001377 
L 606.831994 -100.66959 
L 607.410507 -100.337804 
L 607.989021 -100.006018 
L 608.567535 -99.674232 
L 609.146048 -99.342446 
L 609.724562 -99.010659 
L 610.303076 -98.678873 
L 610.88159 -98.347087 
L 611.460103 -98.015301 
L 612.038617 -97.683514 
L 612.617131 -97.351728 
L 613.195645 -97.019942 
L 613.774158 -96.688156 
L 614.352672 -96.356369 
L 614.931186 -96.024583 
L 615.5097 -95.692797 
L 616.088213 -95.36101 
L 616.666727 -95.029224 
L 617.245241 -94.697437 
L 617.823755 -94.365651 
L 618.402268 -94.033864 
L 618.980782 -93.702078 
L 619.559296 -93.370291 
L 620.13781 -93.038505 
L 620.716323 -92.706719 
L 621.294837 -92.374932 
L 621.873351 -92.043146 
L 622.451865 -91.711359 
L 623.030378 -91.379573 
L 623.608892 -91.047786 
L 624.187406 -90.716 
L 624.765919 -90.384213 
L 625.344433 -90.052427 
L 625.922947 -89.72064 
L 626.501461 -89.388854 
L 627.079974 -89.057068 
L 627.658488 -88.725282 
L 628.237002 -88.393496 
L 628.815516 -88.061709 
L 629.394029 -87.729923 
L 629.972543 -87.398137 
L 630.551057 -87.066351 
L 631.129571 -86.734564 
L 631.708084 -86.402778 
L 632.286598 -86.070992 
L 632.865112 -85.739205 
L 633.443626 -85.407419 
L 634.022139 -85.075633 
L 634.600653 -84.743846 
L 635.179167 -84.41206 
L 635.757681 -84.080273 
L 636.336194 -83.748487 
L 636.914708 -83.4167 
L 637.493222 -83.084914 
L 638.071736 -82.753127 
L 638.650249 -82.421341 
L 639.228763 -82.089555 
L 639.807277 -81.757769 
L 640.385791 -81.425983 
L 640.964304 -81.094196 
L 641.542818 -80.76241 
L 642.121332 -80.430624 
L 642.699845 -80.098838 
L 643.278359 -79.767051 
L 643.856873 -79.435265 
L 644.435387 -79.103479 
L 645.0139 -78.771693 
L 645.592414 -78.439907 
L 646.170928 -78.10812 
L 646.749442 -77.776334 
L 647.327955 -77.444548 
L 647.906469 -77.112762 
L 648.484983 -76.780976 
L 649.063497 -76.449189 
L 649.64201 -76.117403 
L 650.220524 -75.785617 
L 650.799038 -75.45383 
L 651.377552 -75.122044 
L 651.956065 -74.790258 
L 652.534579 -74.458471 
L 653.113093 -74.126685 
L 653.691607 -73.794898 
L 654.27012 -73.463112 
L 654.848634 -73.131325 
L 655.427148 -72.799539 
L 656.005662 -72.467752 
L 656.584175 -72.135966 
L 657.162689 -71.80418 
L 657.741203 -71.472393 
L 658.319716 -71.140607 
L 658.89823 -70.808821 
L 659.476744 -70.477034 
L 660.055258 -70.145248 
L 660.633771 -69.813462 
L 661.212285 -69.481675 
L 661.790799 -69.149889 
L 662.369313 -68.818103 
L 662.947826 -68.486316 
L 663.52634 -68.15453 
L 664.104854 -67.822744 
L 664.683368 -67.490958 
L 665.261881 -67.159172 
L 665.840395 -66.827385 
L 666.418909 -66.495599 
L 666.997423 -66.163813 
L 667.575936 -65.832027 
L 668.15445 -65.500241 
L 668.732964 -65.168454 
L 669.311478 -64.836668 
L 669.889991 -64.504881 
L 670.468505 -64.173095 
L 671.047019 -63.841309 
L 671.625533 -63.509522 
L 672.204046 -63.177736 
L 672.78256 -62.845949 
L 673.361074 -62.514163 
L 673.939587 -62.182377 
L 674.518101 -61.85059 
L 675.096615 -61.518804 
L 675.675129 -61.187018 
L 676.253642 -60.855231 
L 676.832156 -60.523445 
L 677.41067 -60.191659 
L 677.989184 -59.859872 
L 678.567697 -59.528086 
L 679.146211 -59.1963 
L 679.724725 -58.864514 
L 680.303239 -58.532727 
L 680.303239 -58.532727 
L 680.303239 -58.532727 
L 679.724725 -58.864514 
L 679.146211 -59.1963 
L 678.567697 -59.528086 
L 677.989184 -59.859872 
L 677.41067 -60.191659 
L 676.832156 -60.523445 
L 676.253642 -60.855231 
L 675.675129 -61.187018 
L 675.096615 -61.518804 
L 674.518101 -61.85059 
L 673.939587 -62.182377 
L 673.361074 -62.514163 
L 672.78256 -62.845949 
L 672.204046 -63.177736 
L 671.625533 -63.509522 
L 671.047019 -63.841309 
L 670.468505 -64.173095 
L 669.889991 -64.504881 
L 669.311478 -64.836668 
L 668.732964 -65.168454 
L 668.15445 -65.500241 
L 667.575936 -65.832027 
L 666.997423 -66.163813 
L 666.418909 -66.495599 
L 665.840395 -66.827385 
L 665.261881 -67.159172 
L 664.683368 -67.490958 
L 664.104854 -67.822744 
L 663.52634 -68.15453 
L 662.947826 -68.486316 
L 662.369313 -68.818103 
L 661.790799 -69.149889 
L 661.212285 -69.481675 
L 660.633771 -69.813462 
L 660.055258 -70.145248 
L 659.476744 -70.477034 
L 658.89823 -70.808821 
L 658.319716 -71.140607 
L 657.741203 -71.472393 
L 657.162689 -71.80418 
L 656.584175 -72.135966 
L 656.005662 -72.467752 
L 655.427148 -72.799539 
L 654.848634 -73.131325 
L 654.27012 -73.463112 
L 653.691607 -73.794898 
L 653.113093 -74.126685 
L 652.534579 -74.458471 
L 651.956065 -74.790258 
L 651.377552 -75.122044 
L 650.799038 -75.45383 
L 650.220524 -75.785617 
L 649.64201 -76.117403 
L 649.063497 -76.449189 
L 648.484983 -76.780976 
L 647.906469 -77.112762 
L 647.327955 -77.444548 
L 646.749442 -77.776334 
L 646.170928 -78.10812 
L 645.592414 -78.439907 
L 645.0139 -78.771693 
L 644.435387 -79.103479 
L 643.856873 -79.435265 
L 643.278359 -79.767051 
L 642.699845 -80.098838 
L 642.121332 -80.430624 
L 641.542818 -80.76241 
L 640.964304 -81.094196 
L 640.385791 -81.425983 
L 639.807277 -81.757769 
L 639.228763 -82.089555 
L 638.650249 -82.421341 
L 638.071736 -82.753127 
L 637.493222 -83.084914 
L 636.914708 -83.4167 
L 636.336194 -83.748487 
L 635.757681 -84.080273 
L 635.179167 -84.41206 
L 634.600653 -84.743846 
L 634.022139 -85.075633 
L 633.443626 -85.407419 
L 632.865112 -85.739205 
L 632.286598 -86.070992 
L 631.708084 -86.402778 
L 631.129571 -86.734564 
L 630.551057 -87.066351 
L 629.972543 -87.398137 
L 629.394029 -87.729923 
L 628.815516 -88.061709 
L 628.237002 -88.393496 
L 627.658488 -88.725282 
L 627.079974 -89.057068 
L 626.501461 -89.388854 
L 625.922947 -89.72064 
L 625.344433 -90.052427 
L 624.765919 -90.384213 
L 624.187406 -90.716 
L 623.608892 -91.047786 
L 623.030378 -91.379573 
L 622.451865 -91.711359 
L 621.873351 -92.043146 
L 621.294837 -92.374932 
L 620.716323 -92.706719 
L 620.13781 -93.038505 
L 619.559296 -93.370291 
L 618.980782 -93.702078 
L 618.402268 -94.033864 
L 617.823755 -94.365651 
L 617.245241 -94.697437 
L 616.666727 -95.029224 
L 616.088213 -95.36101 
L 615.5097 -95.692797 
L 614.931186 -96.024583 
L 614.352672 -96.356369 
L 613.774158 -96.688156 
L 613.195645 -97.019942 
L 612.617131 -97.351728 
L 612.038617 -97.683514 
L 611.460103 -98.015301 
L 610.88159 -98.347087 
L 610.303076 -98.678873 
L 609.724562 -99.010659 
L 609.146048 -99.342446 
L 608.567535 -99.674232 
L 607.989021 -100.006018 
L 607.410507 -100.337804 
L 606.831994 -100.66959 
L 606.25348 -101.001377 
L 605.674966 -101.333163 
L 605.096452 -101.664949 
L 604.517939 -101.996735 
L 603.939425 -102.328521 
L 603.360911 -102.660308 
L 602.782397 -102.992094 
L 602.203884 -103.32388 
L 601.62537 -103.655666 
L 601.046856 -103.987453 
L 600.468342 -104.319239 
L 599.889829 -104.651025 
L 599.311315 -104.982811 
L 598.732801 -105.314597 
L 598.154287 -105.646384 
L 597.575774 -105.97817 
L 596.99726 -106.309956 
L 596.418746 -106.641742 
L 595.840232 -106.973528 
L 595.261719 -107.305315 
L 594.683205 -107.637101 
L 594.104691 -107.968887 
L 593.526177 -108.300673 
L 592.947664 -108.63246 
L 592.36915 -108.964246 
L 591.790636 -109.296032 
L 591.212123 -109.627818 
L 590.633609 -109.959604 
L 590.055095 -110.291391 
L 589.476581 -110.623177 
L 588.898068 -110.954964 
L 588.319554 -111.286751 
L 587.74104 -111.618537 
L 587.162526 -111.950324 
L 586.584013 -112.282111 
L 586.005499 -112.613897 
L 585.426985 -112.945684 
L 584.848471 -113.277471 
L 584.269958 -113.609257 
L 583.691444 -113.941044 
L 583.11293 -114.27283 
L 582.534416 -114.604616 
L 581.955903 -114.936403 
L 581.377389 -115.268189 
L 580.798875 -115.599975 
L 580.220361 -115.931761 
L 579.641848 -116.263547 
L 579.063334 -116.595334 
L 578.48482 -116.92712 
L 577.906306 -117.258906 
L 577.327793 -117.590692 
L 576.749279 -117.922478 
L 576.170765 -118.254265 
L 575.592252 -118.586051 
L 575.013738 -118.917837 
L 574.435224 -119.249623 
L 573.85671 -119.58141 
L 573.278197 -119.913196 
L 572.699683 -120.244982 
L 572.121169 -120.576768 
L 571.542655 -120.908554 
L 570.964142 -121.240341 
L 570.385628 -121.572127 
L 569.807114 -121.903913 
L 569.2286 -122.235699 
L 568.650087 -122.567485 
L 568.071573 -122.899272 
L 567.493059 -123.231058 
L 566.914545 -123.562844 
L 566.336032 -123.89463 
L 565.757518 -124.226417 
L 565.179004 -124.558203 
L 564.60049 -124.889989 
L 564.021977 -125.221775 
L 563.443463 -125.553561 
L 562.864949 -125.885348 
L 562.286435 -126.217134 
L 561.707922 -126.54892 
L 561.129408 -126.880706 
L 560.550894 -127.212492 
L 559.972381 -127.544279 
L 559.393867 -127.876065 
L 558.815353 -128.207852 
L 558.236839 -128.539639 
L 557.658326 -128.871425 
L 557.079812 -129.203212 
L 556.501298 -129.534999 
L 555.922784 -129.866785 
L 555.344271 -130.198572 
L 554.765757 -130.530359 
L 554.187243 -130.862145 
L 553.608729 -131.193932 
L 553.030216 -131.525718 
L 552.451702 -131.857504 
L 551.873188 -132.189291 
L 551.294674 -132.521077 
L 550.716161 -132.852863 
L 550.137647 -133.184649 
L 549.559133 -133.516435 
L 548.980619 -133.848222 
L 548.402106 -134.180008 
L 547.823592 -134.511794 
L 547.245078 -134.843581 
L 546.666564 -135.175368 
L 546.088051 -135.507154 
L 545.509537 -135.838941 
L 544.931023 -136.170728 
L 544.352509 -136.502514 
L 543.773996 -136.834301 
L 543.195482 -137.166088 
L 542.616968 -137.497874 
L 542.038455 -137.829661 
L 541.459941 -138.161447 
L 540.881427 -138.493234 
L 540.302913 -138.82502 
L 539.7244 -139.156806 
L 539.145886 -139.488592 
L 538.567372 -139.820378 
L 537.988858 -140.152165 
L 537.410345 -140.483951 
L 536.831831 -140.815737 
L 536.253317 -141.147523 
L 535.674803 -141.47931 
L 535.09629 -141.811096 
L 534.517776 -142.142882 
L 533.939262 -142.474668 
L 533.360748 -142.806454 
L 532.782235 -143.138241 
L 532.203721 -143.470027 
L 531.625207 -143.801813 
L 531.046693 -144.133599 
L 530.46818 -144.465385 
L 529.889666 -144.797172 
L 529.311152 -145.128958 
L 528.732638 -145.460744 
L 528.154125 -145.79253 
L 527.575611 -146.124317 
L 526.997097 -146.456103 
L 526.418584 -146.787889 
L 525.84007 -147.119675 
L 525.261556 -147.451461 
L 524.683042 -147.783248 
L 524.104529 -148.115034 
L 523.526015 -148.44682 
L 522.947501 -148.778606 
L 522.368987 -149.110392 
L 521.790474 -149.442179 
L 521.21196 -149.773965 
L 520.633446 -150.105751 
L 520.054932 -150.437537 
L 519.476419 -150.769324 
L 518.897905 -151.10111 
L 518.319391 -151.432896 
L 517.740877 -151.764682 
L 517.162364 -152.096468 
L 516.58385 -152.428255 
L 516.005336 -152.760041 
L 515.426822 -153.091827 
L 514.848309 -153.423613 
L 514.269795 -153.755399 
L 513.691281 -154.087186 
L 513.112767 -154.418972 
L 512.534254 -154.750758 
L 511.95574 -155.082544 
L 511.377226 -155.414331 
L 510.798713 -155.746117 
L 510.220199 -156.077903 
L 509.641685 -156.409689 
L 509.063171 -156.741475 
L 508.484658 -157.073262 
L 507.906144 -157.405048 
L 507.32763 -157.736834 
L 506.749116 -158.06862 
L 506.170603 -158.400407 
L 505.592089 -158.732193 
L 505.013575 -159.063979 
L 504.435061 -159.395765 
L 503.856548 -159.727551 
L 503.278034 -160.059338 
L 502.69952 -160.391124 
L 502.121006 -160.72291 
L 501.542493 -161.054696 
L 500.963979 -161.386482 
L 500.385465 -161.718269 
L 499.806951 -162.050055 
L 499.228438 -162.381841 
L 498.649924 -162.713627 
L 498.07141 -163.045414 
L 497.492896 -163.3772 
L 496.914383 -163.708986 
L 496.335869 -164.040772 
L 495.757355 -164.372558 
L 495.178842 -164.704345 
L 494.600328 -165.036131 
L 494.021814 -165.367917 
L 493.4433 -165.699704 
L 492.864787 -166.031491 
L 492.286273 -166.363278 
L 491.707759 -166.695065 
L 491.129245 -167.026852 
L 490.550732 -167.358639 
L 489.972218 -167.690427 
L 489.393704 -168.022214 
L 488.81519 -168.354001 
L 488.236677 -168.685788 
L 487.658163 -169.017575 
L 487.079649 -169.349361 
L 486.501135 -169.681148 
L 485.922622 -170.012934 
L 485.344108 -170.34472 
L 484.765594 -170.676506 
L 484.18708 -171.008292 
L 483.608567 -171.340079 
L 483.030053 -171.671865 
L 482.451539 -172.003651 
L 481.873025 -172.335437 
L 481.294512 -172.667224 
L 480.715998 -172.99901 
L 480.137484 -173.330796 
L 479.558971 -173.662582 
L 478.980457 -173.994368 
L 478.401943 -174.326155 
L 477.823429 -174.657941 
L 477.244916 -174.989727 
L 476.666402 -175.321513 
L 476.087888 -175.653299 
L 475.509374 -175.985086 
L 474.930861 -176.316872 
L 474.352347 -176.648658 
L 473.773833 -176.980444 
L 473.195319 -177.312231 
L 472.616806 -177.644017 
L 472.038292 -177.975803 
L 471.459778 -178.307589 
L 470.881264 -178.639375 
L 470.302751 -178.971162 
L 469.724237 -179.302948 
L 469.145723 -179.634734 
L 468.567209 -179.96652 
L 467.988696 -180.298306 
L 467.410182 -180.630093 
L 466.831668 -180.961879 
L 466.253154 -181.293665 
L 465.674641 -181.625451 
L 465.096127 -181.957238 
L 464.517613 -182.289024 
L 463.939099 -182.62081 
L 463.360586 -182.952596 
L 462.782072 -183.284382 
L 462.203558 -183.616169 
L 461.625045 -183.947955 
L 461.046531 -184.279741 
L 460.468017 -184.611527 
L 459.889503 -184.943313 
L 459.31099 -185.2751 
L 458.732476 -185.606886 
L 458.153962 -185.938672 
L 457.575448 -186.270458 
L 456.996935 -186.602245 
L 456.418421 -186.934031 
L 455.839907 -187.265817 
L 455.261393 -187.597603 
L 454.68288 -187.929389 
L 454.104366 -188.261176 
L 453.525852 -188.592962 
L 452.947338 -188.924748 
L 452.368825 -189.256534 
L 451.790311 -189.588321 
L 451.211797 -189.920107 
L 450.633283 -190.251893 
L 450.05477 -190.583679 
L 449.476256 -190.915465 
L 448.897742 -191.247252 
L 448.319228 -191.579038 
L 447.740715 -191.910824 
L 447.162201 -192.24261 
L 446.583687 -192.574396 
L 446.005174 -192.906183 
L 445.42666 -193.237969 
L 444.848146 -193.569755 
L 444.269632 -193.901541 
L 443.691119 -194.233328 
L 443.112605 -194.565114 
L 442.534091 -194.8969 
L 441.955577 -195.228686 
L 441.377064 -195.560472 
L 440.79855 -195.892259 
L 440.220036 -196.224045 
L 439.641522 -196.555831 
L 439.063009 -196.887617 
L 438.484495 -197.219403 
L 437.905981 -197.55119 
L 437.327467 -197.882976 
L 436.748954 -198.214762 
L 436.17044 -198.546548 
L 435.591926 -198.878335 
L 435.013412 -199.210121 
L 434.434899 -199.541907 
L 433.856385 -199.873693 
L 433.277871 -200.20548 
L 432.699357 -200.537267 
L 432.120844 -200.869054 
L 431.54233 -201.200841 
L 430.963816 -201.532628 
L 430.385303 -201.864415 
L 429.806789 -202.196203 
L 429.228275 -202.52799 
L 428.649761 -202.859777 
L 428.071248 -203.191564 
L 427.492734 -203.523351 
L 426.91422 -203.855138 
L 426.335706 -204.186924 
L 425.757193 -204.51871 
L 425.178679 -204.850496 
L 424.600165 -205.182282 
L 424.021651 -205.514069 
L 423.443138 -205.845855 
L 422.864624 -206.177641 
L 422.28611 -206.509427 
L 421.707596 -206.841213 
L 421.129083 -207.173 
L 420.550569 -207.504786 
L 419.972055 -207.836572 
L 419.393541 -208.168358 
L 418.815028 -208.500145 
L 418.236514 -208.831931 
L 417.658 -209.163717 
L 417.079486 -209.495503 
L 416.500973 -209.827289 
L 415.922459 -210.159076 
L 415.343945 -210.490862 
L 414.765432 -210.822648 
L 414.186918 -211.154434 
L 413.608404 -211.48622 
L 413.02989 -211.818007 
L 412.451377 -212.149793 
L 411.872863 -212.481579 
L 411.294349 -212.813365 
L 410.715835 -213.145152 
L 410.137322 -213.476938 
L 409.558808 -213.808724 
L 408.980294 -214.14051 
L 408.40178 -214.472296 
L 407.823267 -214.804083 
L 407.244753 -215.135869 
L 406.666239 -215.467655 
L 406.087725 -215.799441 
L 405.509212 -216.131228 
L 404.930698 -216.463014 
L 404.352184 -216.7948 
L 403.77367 -217.126586 
L 403.195157 -217.458373 
L 402.616643 -217.79016 
L 402.038129 -218.121947 
L 401.459615 -218.453734 
L 400.881102 -218.785521 
L 400.302588 -219.117308 
L 399.724074 -219.449096 
L 399.145561 -219.780883 
L 398.567047 -220.11267 
L 397.988533 -220.444457 
L 397.410019 -220.776244 
L 396.831506 -221.10803 
L 396.252992 -221.439817 
L 395.674478 -221.771603 
L 395.095964 -222.103389 
L 394.517451 -222.435175 
L 393.938937 -222.766962 
L 393.360423 -223.098748 
L 392.781909 -223.430534 
L 392.203396 -223.76232 
L 391.624882 -224.094106 
L 391.046368 -224.425893 
L 390.467854 -224.757679 
L 389.889341 -225.089465 
L 389.310827 -225.421251 
L 388.732313 -225.753038 
L 388.153799 -226.084824 
L 387.575286 -226.41661 
L 386.996772 -226.748396 
L 386.418258 -227.080182 
L 385.839744 -227.411969 
L 385.261231 -227.743755 
L 384.682717 -228.075541 
L 384.104203 -228.407327 
L 383.525689 -228.739113 
L 382.947176 -229.0709 
L 382.368662 -229.402686 
L 381.790148 -229.734472 
L 381.211635 -230.066258 
L 380.633121 -230.398045 
L 380.054607 -230.729831 
L 379.476093 -231.061617 
L 378.89758 -231.393403 
L 378.319066 -231.725189 
L 377.740552 -232.056976 
L 377.162038 -232.388762 
L 376.583525 -232.720548 
L 376.005011 -233.052334 
L 375.426497 -233.38412 
L 374.847983 -233.715907 
L 374.26947 -234.047693 
L 373.690956 -234.379479 
L 373.112442 -234.711265 
L 372.533928 -235.043052 
L 371.955415 -235.374838 
L 371.376901 -235.706624 
L 370.798387 -236.03841 
L 370.219873 -236.370196 
L 369.64136 -236.701983 
L 369.062846 -237.033769 
L 368.484332 -237.365555 
L 367.905818 -237.697341 
L 367.327305 -238.029127 
L 366.748791 -238.360914 
L 366.170277 -238.6927 
L 365.591764 -239.024486 
L 365.01325 -239.356272 
L 364.434736 -239.688059 
L 363.856222 -240.019845 
L 363.277709 -240.351631 
L 362.699195 -240.683417 
L 362.120681 -241.015203 
L 361.542167 -241.34699 
L 360.963654 -241.678776 
L 360.38514 -242.010562 
L 359.806626 -242.342348 
L 359.228112 -242.674135 
L 358.649599 -243.005921 
L 358.071085 -243.337707 
L 357.492571 -243.669493 
L 356.914057 -244.001279 
L 356.335544 -244.333066 
L 355.75703 -244.664852 
L 355.178516 -244.996638 
L 354.600002 -245.328424 
L 354.021489 -245.66021 
L 353.442975 -245.991997 
L 352.864461 -246.323783 
L 352.285947 -246.655569 
L 351.707434 -246.987355 
L 351.12892 -247.319142 
L 350.550406 -247.650928 
L 349.971893 -247.982714 
L 349.393379 -248.3145 
L 348.814865 -248.646286 
L 348.236351 -248.978073 
L 347.657838 -249.309859 
L 347.079324 -249.641645 
L 346.50081 -249.973431 
L 345.922296 -250.305217 
L 345.343783 -250.637004 
L 344.765269 -250.96879 
L 344.186755 -251.300576 
L 343.608241 -251.632362 
L 343.029728 -251.964149 
L 342.451214 -252.295935 
L 341.8727 -252.627721 
L 341.294186 -252.959507 
L 340.715673 -253.291293 
L 340.137159 -253.62308 
L 339.558645 -253.954866 
L 338.980131 -254.286652 
L 338.401618 -254.618438 
L 337.823104 -254.950224 
L 337.24459 -255.282011 
L 336.666076 -255.613797 
L 336.087563 -255.945583 
L 335.509049 -256.277369 
L 334.930535 -256.609156 
L 334.352022 -256.940942 
L 333.773508 -257.272728 
L 333.194994 -257.604514 
L 332.61648 -257.9363 
L 332.037967 -258.268087 
L 331.459453 -258.599873 
L 330.880939 -258.931659 
L 330.302425 -259.263445 
L 329.723912 -259.595232 
L 329.145398 -259.927018 
L 328.566884 -260.258804 
L 327.98837 -260.59059 
L 327.409857 -260.922376 
L 326.831343 -261.254163 
L 326.252829 -261.585949 
L 325.674315 -261.917735 
L 325.095802 -262.249521 
L 324.517288 -262.581307 
L 323.938774 -262.913094 
L 323.36026 -263.24488 
L 322.781747 -263.576666 
L 322.203233 -263.908452 
L 321.624719 -264.240239 
L 321.046205 -264.572025 
L 320.467692 -264.903811 
L 319.889178 -265.235597 
L 319.310664 -265.567383 
L 318.732151 -265.89917 
L 318.153637 -266.230956 
L 317.575123 -266.562742 
L 316.996609 -266.894528 
L 316.418096 -267.226314 
L 315.839582 -267.558101 
L 315.261068 -267.889887 
L 314.682554 -268.221673 
L 314.104041 -268.553459 
L 313.525527 -268.885246 
L 312.947013 -269.217032 
L 312.368499 -269.548818 
L 311.789986 -269.880604 
L 311.211472 -270.21239 
L 310.632958 -270.544177 
L 310.054444 -270.875963 
L 309.475931 -271.207749 
L 308.897417 -271.539535 
L 308.318903 -271.871321 
L 307.740389 -272.203108 
L 307.161876 -272.534894 
L 306.583362 -272.86668 
L 306.004848 -273.198466 
L 305.426334 -273.530253 
L 304.847821 -273.862039 
L 304.269307 -274.193825 
L 303.690793 -274.525611 
L 303.112279 -274.857397 
L 302.533766 -275.189184 
L 301.955252 -275.52097 
L 301.376738 -275.852756 
L 300.798225 -276.184542 
L 300.219711 -276.516329 
L 299.641197 -276.848115 
L 299.062683 -277.179901 
L 298.48417 -277.511687 
L 297.905656 -277.843473 
L 297.327142 -278.17526 
L 296.748628 -278.507046 
L 296.170115 -278.838832 
L 295.591601 -279.170618 
L 295.013087 -279.502404 
L 294.434573 -279.834193 
L 293.85606 -280.165981 
L 293.277546 -280.497769 
L 292.699032 -280.829557 
L 292.120518 -281.161345 
L 291.542005 -281.493133 
L 290.963491 -281.824921 
L 290.384977 -282.156709 
L 289.806463 -282.488497 
L 289.22795 -282.820285 
L 288.649436 -283.152072 
L 288.070922 -283.483859 
L 287.492408 -283.815645 
L 286.913895 -284.147431 
L 286.335381 -284.479217 
L 285.756867 -284.811003 
L 285.178354 -285.14279 
L 284.59984 -285.474576 
L 284.021326 -285.806362 
L 283.442812 -286.138148 
L 282.864299 -286.469934 
L 282.285785 -286.801721 
L 281.707271 -287.133507 
L 281.128757 -287.465293 
L 280.550244 -287.797079 
L 279.97173 -288.128866 
L 279.393216 -288.460652 
L 278.814702 -288.792438 
L 278.236189 -289.124224 
L 277.657675 -289.45601 
L 277.079161 -289.787797 
L 276.500647 -290.119583 
L 275.922134 -290.451369 
L 275.34362 -290.783155 
L 274.765106 -291.114941 
L 274.186592 -291.446728 
L 273.608079 -291.778514 
L 273.029565 -292.1103 
L 272.451051 -292.442086 
L 271.872537 -292.773873 
L 271.294024 -293.105659 
L 270.71551 -293.437445 
L 270.136996 -293.769231 
L 269.558483 -294.101017 
L 268.979969 -294.432804 
L 268.401455 -294.76459 
L 267.822941 -295.096376 
L 267.244428 -295.428162 
L 266.665914 -295.759949 
L 266.0874 -296.091735 
L 265.508886 -296.423521 
L 264.930373 -296.755307 
L 264.351859 -297.087093 
L 263.773345 -297.41888 
L 263.194831 -297.750666 
L 262.616318 -298.082452 
L 262.037804 -298.414238 
L 261.45929 -298.746024 
L 260.880776 -299.077811 
L 260.302263 -299.409597 
L 259.723749 -299.741383 
L 259.145235 -300.073169 
L 258.566721 -300.404956 
L 257.988208 -300.736742 
L 257.409694 -301.068528 
L 256.83118 -301.400314 
L 256.252666 -301.7321 
L 255.674153 -302.063887 
L 255.095639 -302.395673 
L 254.517125 -302.727459 
L 253.938612 -303.059245 
L 253.360098 -303.391031 
L 252.781584 -303.722818 
L 252.20307 -304.054604 
L 251.624557 -304.38639 
L 251.046043 -304.718176 
L 250.467529 -305.049963 
L 249.889015 -305.381749 
L 249.310502 -305.713535 
L 248.731988 -306.045321 
L 248.153474 -306.377107 
L 247.57496 -306.708894 
L 246.996447 -307.04068 
L 246.417933 -307.372466 
L 245.839419 -307.704252 
L 245.260905 -308.036038 
L 244.682392 -308.367825 
L 244.103878 -308.699611 
L 243.525364 -309.031397 
L 242.94685 -309.363183 
L 242.368337 -309.69497 
L 241.789823 -310.026756 
L 241.211309 -310.358542 
L 240.632795 -310.690328 
L 240.054282 -311.022114 
L 239.475768 -311.353901 
L 238.897254 -311.685687 
L 238.318741 -312.017473 
L 237.740227 -312.349259 
L 237.161713 -312.681045 
L 236.583199 -313.012832 
L 236.004686 -313.344618 
L 235.426172 -313.676404 
L 234.847658 -314.00819 
L 234.269144 -314.339977 
L 233.690631 -314.671763 
L 233.112117 -315.003549 
L 232.533603 -315.335335 
L 231.955089 -315.667121 
L 231.376576 -315.998908 
L 230.798062 -316.330694 
L 230.219548 -316.66248 
L 229.641034 -316.994266 
L 229.062521 -317.326053 
L 228.484007 -317.657839 
L 227.905493 -317.989625 
L 227.326979 -318.321411 
L 226.748466 -318.653197 
L 226.169952 -318.984984 
L 225.591438 -319.31677 
L 225.012924 -319.648556 
L 224.434411 -319.980342 
L 223.855897 -320.312128 
L 223.277383 -320.643915 
L 222.698869 -320.975701 
L 222.120356 -321.307487 
L 221.541842 -321.639273 
L 220.963328 -321.97106 
L 220.384815 -322.302846 
L 219.806301 -322.634632 
L 219.227787 -322.966418 
L 218.649273 -323.298204 
L 218.07076 -323.629991 
L 217.492246 -323.961777 
L 216.913732 -324.293563 
L 216.335218 -324.625349 
L 215.756705 -324.957135 
L 215.178191 -325.288922 
L 214.599677 -325.620708 
L 214.021163 -325.952494 
L 213.44265 -326.28428 
L 212.864136 -326.616067 
L 212.285622 -326.947853 
L 211.707108 -327.279639 
L 211.128595 -327.611425 
L 210.550081 -327.943211 
L 209.971567 -328.274998 
L 209.393053 -328.606784 
L 208.81454 -328.93857 
L 208.236026 -329.270356 
L 207.657512 -329.602142 
L 207.078998 -329.933929 
L 206.500485 -330.265715 
L 205.921971 -330.597501 
L 205.343457 -330.929287 
L 204.764944 -331.261074 
L 204.18643 -331.59286 
L 203.607916 -331.924646 
L 203.029402 -332.256432 
L 202.450889 -332.588218 
L 201.872375 -332.920005 
L 201.293861 -333.251791 
L 200.715347 -333.583577 
L 200.136834 -333.915363 
L 199.55832 -334.24715 
L 198.979806 -334.578936 
L 198.401292 -334.910722 
L 197.822779 -335.242508 
L 197.244265 -335.574294 
L 196.665751 -335.906081 
L 196.087237 -336.237867 
L 195.508724 -336.569653 
L 194.93021 -336.901439 
L 194.351696 -337.233225 
L 193.773182 -337.565012 
L 193.194669 -337.896798 
L 192.616155 -338.228584 
L 192.037641 -338.56037 
L 191.459127 -338.892157 
L 190.880614 -339.223943 
L 190.3021 -339.555729 
L 189.723586 -339.887515 
L 189.145073 -340.219301 
L 188.566559 -340.551088 
L 187.988045 -340.882874 
L 187.409531 -341.21466 
L 186.831018 -341.546446 
L 186.252504 -341.878232 
L 185.67399 -342.210019 
L 185.095476 -342.541805 
L 184.516963 -342.873591 
L 183.938449 -343.205377 
L 183.359935 -343.537164 
L 182.781421 -343.86895 
L 182.202908 -344.200736 
L 181.624394 -344.532522 
L 181.04588 -344.864308 
L 180.467366 -345.196095 
L 179.888853 -345.527883 
L 179.310339 -345.859671 
L 178.731825 -346.191459 
L 178.153311 -346.523248 
L 177.574798 -346.855036 
L 176.996284 -347.186824 
L 176.41777 -347.518612 
L 175.839256 -347.8504 
L 175.260743 -348.182188 
L 174.682229 -348.513976 
L 174.103715 -348.845762 
L 173.525202 -349.177549 
L 172.946688 -349.509335 
L 172.368174 -349.841121 
L 171.78966 -350.172907 
L 171.211147 -350.504694 
L 170.632633 -350.83648 
L 170.054119 -351.168266 
L 169.475605 -351.500052 
L 168.897092 -351.831838 
L 168.318578 -352.163625 
L 167.740064 -352.495411 
L 167.16155 -352.827197 
L 166.583037 -353.158983 
L 166.004523 -353.49077 
L 165.426009 -353.822556 
L 164.847495 -354.154342 
L 164.268982 -354.486128 
L 163.690468 -354.817914 
L 163.111954 -355.149701 
L 162.53344 -355.481487 
L 161.954927 -355.813273 
L 161.376413 -356.145059 
L 160.797899 -356.476845 
L 160.219385 -356.808632 
L 159.640872 -357.140418 
L 159.062358 -357.472204 
L 158.483844 -357.80399 
L 157.905331 -358.135777 
L 157.326817 -358.467563 
L 156.748303 -358.799349 
L 156.169789 -359.131135 
L 155.591276 -359.462921 
L 155.012762 -359.794708 
L 154.434248 -360.126494 
L 153.855734 -360.45828 
L 153.277221 -360.790066 
L 152.698707 -361.121852 
L 152.120193 -361.453639 
L 151.541679 -361.785425 
L 150.963166 -362.117211 
L 150.384652 -362.448997 
L 149.806138 -362.780784 
L 149.227624 -363.11257 
L 148.649111 -363.444356 
L 148.070597 -363.776142 
L 147.492083 -364.107928 
L 146.913569 -364.439715 
L 146.335056 -364.771501 
L 145.756542 -365.103287 
L 145.178028 -365.435073 
L 144.599514 -365.766859 
L 144.021001 -366.098646 
L 143.442487 -366.430432 
L 142.863973 -366.762218 
L 142.285459 -367.094004 
L 141.706946 -367.425791 
L 141.128432 -367.757577 
L 140.549918 -368.089363 
L 139.971405 -368.421149 
L 139.392891 -368.752935 
L 138.814377 -369.084722 
L 138.235863 -369.416508 
L 137.65735 -369.748294 
L 137.078836 -370.08008 
L 136.500322 -370.411867 
L 135.921808 -370.743653 
L 135.343295 -371.075439 
L 134.764781 -371.407225 
L 134.186267 -371.739011 
L 133.607753 -372.070798 
L 133.02924 -372.402584 
L 132.450726 -372.73437 
L 131.872212 -373.066156 
L 131.293698 -373.397942 
L 130.715185 -373.729729 
L 130.136671 -374.061515 
L 129.558157 -374.393301 
L 128.979643 -374.725087 
L 128.40113 -375.056874 
L 127.822616 -375.38866 
L 127.244102 -375.720446 
L 126.665588 -376.052232 
L 126.087075 -376.384018 
L 125.508561 -376.715805 
L 124.930047 -377.047591 
L 124.351534 -377.379377 
L 123.77302 -377.711163 
L 123.194506 -378.042949 
L 122.615992 -378.374736 
L 122.037479 -378.706522 
L 121.458965 -379.038308 
L 120.880451 -379.370094 
L 120.301937 -379.701881 
L 119.723424 -380.033669 
L 119.14491 -380.365457 
L 118.566396 -380.697245 
L 117.987882 -381.029033 
L 117.409369 -381.360821 
L 116.830855 -381.692609 
L 116.252341 -382.024398 
L 115.673827 -382.356186 
L 115.095314 -382.687974 
L 114.5168 -383.019762 
L 113.938286 -383.351548 
L 113.359772 -383.683335 
L 112.781259 -384.015121 
L 112.202745 -384.346907 
L 111.624231 -384.678693 
L 111.045717 -385.010479 
L 110.467204 -385.342266 
L 109.88869 -385.674052 
L 109.310176 -386.005838 
L 108.731663 -386.337624 
L 108.153149 -386.669411 
L 107.574635 -387.001197 
L 106.996121 -387.332983 
L 106.417608 -387.664769 
L 105.839094 -387.996555 
L 105.26058 -388.328342 
L 104.682066 -388.660128 
L 104.103553 -388.991914 
L 103.525039 -389.3237 
L 102.946525 -389.655487 
L 102.368011 -389.987273 
z
" style="stroke: #00008b; stroke-opacity: 0.3"/>
    </defs>
    <g clip-path="url(#p52c09ebe7d)">
     <use xlink:href="#m0a1af7604f" x="0" y="432" style="fill: #00008b; fill-opacity: 0.3; stroke: #00008b; stroke-opacity: 0.3"/>
    </g>
   </g>
   <g id="matplotlib.axis_1">
    <g id="xtick_1">
     <g id="line2d_1">
      <defs>
       <path id="ma4ac349a84" d="M 0 0 
L 0 3.5 
" style="stroke: #000000; stroke-width: 0.8"/>
      </defs>
      <g>
       <use xlink:href="#ma4ac349a84" x="96.347853" y="390.04" style="stroke: #000000; stroke-width: 0.8"/>
      </g>
     </g>
     <g id="text_1">
      <!-- 0 -->
      <g transform="translate(93.166603 404.638438) scale(0.1 -0.1)">
       <defs>
        <path id="DejaVuSans-30" d="M 2034 4250 
Q 1547 4250 1301 3770 
Q 1056 3291 1056 2328 
Q 1056 1369 1301 889 
Q 1547 409 2034 409 
Q 2525 409 2770 889 
Q 3016 1369 3016 2328 
Q 3016 3291 2770 3770 
Q 2525 4250 2034 4250 
z
M 2034 4750 
Q 2819 4750 3233 4129 
Q 3647 3509 3647 2328 
Q 3647 1150 3233 529 
Q 2819 -91 2034 -91 
Q 1250 -91 836 529 
Q 422 1150 422 2328 
Q 422 3509 836 4129 
Q 1250 4750 2034 4750 
z
" transform="scale(0.015625)"/>
       </defs>
       <use xlink:href="#DejaVuSans-30"/>
      </g>
     </g>
    </g>
    <g id="xtick_2">
     <g id="line2d_2">
      <g>
       <use xlink:href="#ma4ac349a84" x="213.929076" y="390.04" style="stroke: #000000; stroke-width: 0.8"/>
      </g>
     </g>
     <g id="text_2">
      <!-- 20000 -->
      <g transform="translate(198.022826 404.638438) scale(0.1 -0.1)">
       <defs>
        <path id="DejaVuSans-32" d="M 1228 531 
L 3431 531 
L 3431 0 
L 469 0 
L 469 531 
Q 828 903 1448 1529 
Q 2069 2156 2228 2338 
Q 2531 2678 2651 2914 
Q 2772 3150 2772 3378 
Q 2772 3750 2511 3984 
Q 2250 4219 1831 4219 
Q 1534 4219 1204 4116 
Q 875 4013 500 3803 
L 500 4441 
Q 881 4594 1212 4672 
Q 1544 4750 1819 4750 
Q 2544 4750 2975 4387 
Q 3406 4025 3406 3419 
Q 3406 3131 3298 2873 
Q 3191 2616 2906 2266 
Q 2828 2175 2409 1742 
Q 1991 1309 1228 531 
z
" transform="scale(0.015625)"/>
       </defs>
       <use xlink:href="#DejaVuSans-32"/>
       <use xlink:href="#DejaVuSans-30" transform="translate(63.623047 0)"/>
       <use xlink:href="#DejaVuSans-30" transform="translate(127.246094 0)"/>
       <use xlink:href="#DejaVuSans-30" transform="translate(190.869141 0)"/>
       <use xlink:href="#DejaVuSans-30" transform="translate(254.492188 0)"/>
      </g>
     </g>
    </g>
    <g id="xtick_3">
     <g id="line2d_3">
      <g>
       <use xlink:href="#ma4ac349a84" x="331.510299" y="390.04" style="stroke: #000000; stroke-width: 0.8"/>
      </g>
     </g>
     <g id="text_3">
      <!-- 40000 -->
      <g transform="translate(315.604049 404.638438) scale(0.1 -0.1)">
       <defs>
        <path id="DejaVuSans-34" d="M 2419 4116 
L 825 1625 
L 2419 1625 
L 2419 4116 
z
M 2253 4666 
L 3047 4666 
L 3047 1625 
L 3713 1625 
L 3713 1100 
L 3047 1100 
L 3047 0 
L 2419 0 
L 2419 1100 
L 313 1100 
L 313 1709 
L 2253 4666 
z
" transform="scale(0.015625)"/>
       </defs>
       <use xlink:href="#DejaVuSans-34"/>
       <use xlink:href="#DejaVuSans-30" transform="translate(63.623047 0)"/>
       <use xlink:href="#DejaVuSans-30" transform="translate(127.246094 0)"/>
       <use xlink:href="#DejaVuSans-30" transform="translate(190.869141 0)"/>
       <use xlink:href="#DejaVuSans-30" transform="translate(254.492188 0)"/>
      </g>
     </g>
    </g>
    <g id="xtick_4">
     <g id="line2d_4">
      <g>
       <use xlink:href="#ma4ac349a84" x="449.091522" y="390.04" style="stroke: #000000; stroke-width: 0.8"/>
      </g>
     </g>
     <g id="text_4">
      <!-- 60000 -->
      <g transform="translate(433.185272 404.638438) scale(0.1 -0.1)">
       <defs>
        <path id="DejaVuSans-36" d="M 2113 2584 
Q 1688 2584 1439 2293 
Q 1191 2003 1191 1497 
Q 1191 994 1439 701 
Q 1688 409 2113 409 
Q 2538 409 2786 701 
Q 3034 994 3034 1497 
Q 3034 2003 2786 2293 
Q 2538 2584 2113 2584 
z
M 3366 4563 
L 3366 3988 
Q 3128 4100 2886 4159 
Q 2644 4219 2406 4219 
Q 1781 4219 1451 3797 
Q 1122 3375 1075 2522 
Q 1259 2794 1537 2939 
Q 1816 3084 2150 3084 
Q 2853 3084 3261 2657 
Q 3669 2231 3669 1497 
Q 3669 778 3244 343 
Q 2819 -91 2113 -91 
Q 1303 -91 875 529 
Q 447 1150 447 2328 
Q 447 3434 972 4092 
Q 1497 4750 2381 4750 
Q 2619 4750 2861 4703 
Q 3103 4656 3366 4563 
z
" transform="scale(0.015625)"/>
       </defs>
       <use xlink:href="#DejaVuSans-36"/>
       <use xlink:href="#DejaVuSans-30" transform="translate(63.623047 0)"/>
       <use xlink:href="#DejaVuSans-30" transform="translate(127.246094 0)"/>
       <use xlink:href="#DejaVuSans-30" transform="translate(190.869141 0)"/>
       <use xlink:href="#DejaVuSans-30" transform="translate(254.492188 0)"/>
      </g>
     </g>
    </g>
    <g id="xtick_5">
     <g id="line2d_5">
      <g>
       <use xlink:href="#ma4ac349a84" x="566.672745" y="390.04" style="stroke: #000000; stroke-width: 0.8"/>
      </g>
     </g>
     <g id="text_5">
      <!-- 80000 -->
      <g transform="translate(550.766495 404.638438) scale(0.1 -0.1)">
       <defs>
        <path id="DejaVuSans-38" d="M 2034 2216 
Q 1584 2216 1326 1975 
Q 1069 1734 1069 1313 
Q 1069 891 1326 650 
Q 1584 409 2034 409 
Q 2484 409 2743 651 
Q 3003 894 3003 1313 
Q 3003 1734 2745 1975 
Q 2488 2216 2034 2216 
z
M 1403 2484 
Q 997 2584 770 2862 
Q 544 3141 544 3541 
Q 544 4100 942 4425 
Q 1341 4750 2034 4750 
Q 2731 4750 3128 4425 
Q 3525 4100 3525 3541 
Q 3525 3141 3298 2862 
Q 3072 2584 2669 2484 
Q 3125 2378 3379 2068 
Q 3634 1759 3634 1313 
Q 3634 634 3220 271 
Q 2806 -91 2034 -91 
Q 1263 -91 848 271 
Q 434 634 434 1313 
Q 434 1759 690 2068 
Q 947 2378 1403 2484 
z
M 1172 3481 
Q 1172 3119 1398 2916 
Q 1625 2713 2034 2713 
Q 2441 2713 2670 2916 
Q 2900 3119 2900 3481 
Q 2900 3844 2670 4047 
Q 2441 4250 2034 4250 
Q 1625 4250 1398 4047 
Q 1172 3844 1172 3481 
z
" transform="scale(0.015625)"/>
       </defs>
       <use xlink:href="#DejaVuSans-38"/>
       <use xlink:href="#DejaVuSans-30" transform="translate(63.623047 0)"/>
       <use xlink:href="#DejaVuSans-30" transform="translate(127.246094 0)"/>
       <use xlink:href="#DejaVuSans-30" transform="translate(190.869141 0)"/>
       <use xlink:href="#DejaVuSans-30" transform="translate(254.492188 0)"/>
      </g>
     </g>
    </g>
    <g id="xtick_6">
     <g id="line2d_6">
      <g>
       <use xlink:href="#ma4ac349a84" x="684.253968" y="390.04" style="stroke: #000000; stroke-width: 0.8"/>
      </g>
     </g>
     <g id="text_6">
      <!-- 100000 -->
      <g transform="translate(665.166468 404.638438) scale(0.1 -0.1)">
       <defs>
        <path id="DejaVuSans-31" d="M 794 531 
L 1825 531 
L 1825 4091 
L 703 3866 
L 703 4441 
L 1819 4666 
L 2450 4666 
L 2450 531 
L 3481 531 
L 3481 0 
L 794 0 
L 794 531 
z
" transform="scale(0.015625)"/>
       </defs>
       <use xlink:href="#DejaVuSans-31"/>
       <use xlink:href="#DejaVuSans-30" transform="translate(63.623047 0)"/>
       <use xlink:href="#DejaVuSans-30" transform="translate(127.246094 0)"/>
       <use xlink:href="#DejaVuSans-30" transform="translate(190.869141 0)"/>
       <use xlink:href="#DejaVuSans-30" transform="translate(254.492188 0)"/>
       <use xlink:href="#DejaVuSans-30" transform="translate(318.115234 0)"/>
      </g>
     </g>
    </g>
    <g id="text_7">
     <!-- Step -->
     <g transform="translate(379.950469 418.316562) scale(0.1 -0.1)">
      <defs>
       <path id="DejaVuSans-53" d="M 3425 4513 
L 3425 3897 
Q 3066 4069 2747 4153 
Q 2428 4238 2131 4238 
Q 1616 4238 1336 4038 
Q 1056 3838 1056 3469 
Q 1056 3159 1242 3001 
Q 1428 2844 1947 2747 
L 2328 2669 
Q 3034 2534 3370 2195 
Q 3706 1856 3706 1288 
Q 3706 609 3251 259 
Q 2797 -91 1919 -91 
Q 1588 -91 1214 -16 
Q 841 59 441 206 
L 441 856 
Q 825 641 1194 531 
Q 1563 422 1919 422 
Q 2459 422 2753 634 
Q 3047 847 3047 1241 
Q 3047 1584 2836 1778 
Q 2625 1972 2144 2069 
L 1759 2144 
Q 1053 2284 737 2584 
Q 422 2884 422 3419 
Q 422 4038 858 4394 
Q 1294 4750 2059 4750 
Q 2388 4750 2728 4690 
Q 3069 4631 3425 4513 
z
" transform="scale(0.015625)"/>
       <path id="DejaVuSans-74" d="M 1172 4494 
L 1172 3500 
L 2356 3500 
L 2356 3053 
L 1172 3053 
L 1172 1153 
Q 1172 725 1289 603 
Q 1406 481 1766 481 
L 2356 481 
L 2356 0 
L 1766 0 
Q 1100 0 847 248 
Q 594 497 594 1153 
L 594 3053 
L 172 3053 
L 172 3500 
L 594 3500 
L 594 4494 
L 1172 4494 
z
" transform="scale(0.015625)"/>
       <path id="DejaVuSans-65" d="M 3597 1894 
L 3597 1613 
L 953 1613 
Q 991 1019 1311 708 
Q 1631 397 2203 397 
Q 2534 397 2845 478 
Q 3156 559 3463 722 
L 3463 178 
Q 3153 47 2828 -22 
Q 2503 -91 2169 -91 
Q 1331 -91 842 396 
Q 353 884 353 1716 
Q 353 2575 817 3079 
Q 1281 3584 2069 3584 
Q 2775 3584 3186 3129 
Q 3597 2675 3597 1894 
z
M 3022 2063 
Q 3016 2534 2758 2815 
Q 2500 3097 2075 3097 
Q 1594 3097 1305 2825 
Q 1016 2553 972 2059 
L 3022 2063 
z
" transform="scale(0.015625)"/>
       <path id="DejaVuSans-70" d="M 1159 525 
L 1159 -1331 
L 581 -1331 
L 581 3500 
L 1159 3500 
L 1159 2969 
Q 1341 3281 1617 3432 
Q 1894 3584 2278 3584 
Q 2916 3584 3314 3078 
Q 3713 2572 3713 1747 
Q 3713 922 3314 415 
Q 2916 -91 2278 -91 
Q 1894 -91 1617 61 
Q 1341 213 1159 525 
z
M 3116 1747 
Q 3116 2381 2855 2742 
Q 2594 3103 2138 3103 
Q 1681 3103 1420 2742 
Q 1159 2381 1159 1747 
Q 1159 1113 1420 752 
Q 1681 391 2138 391 
Q 2594 391 2855 752 
Q 3116 1113 3116 1747 
z
" transform="scale(0.015625)"/>
      </defs>
      <use xlink:href="#DejaVuSans-53"/>
      <use xlink:href="#DejaVuSans-74" transform="translate(63.476562 0)"/>
      <use xlink:href="#DejaVuSans-65" transform="translate(102.685547 0)"/>
      <use xlink:href="#DejaVuSans-70" transform="translate(164.208984 0)"/>
     </g>
    </g>
   </g>
   <g id="matplotlib.axis_2">
    <g id="ytick_1">
     <g id="line2d_7">
      <defs>
       <path id="m9dcf51c380" d="M 0 0 
L -3.5 0 
" style="stroke: #000000; stroke-width: 0.8"/>
      </defs>
      <g>
       <use xlink:href="#m9dcf51c380" x="73.47125" y="376.919924" style="stroke: #000000; stroke-width: 0.8"/>
      </g>
     </g>
     <g id="text_8">
      <!-- 0.00000 -->
      <g transform="translate(25.118125 380.719143) scale(0.1 -0.1)">
       <defs>
        <path id="DejaVuSans-2e" d="M 684 794 
L 1344 794 
L 1344 0 
L 684 0 
L 684 794 
z
" transform="scale(0.015625)"/>
       </defs>
       <use xlink:href="#DejaVuSans-30"/>
       <use xlink:href="#DejaVuSans-2e" transform="translate(63.623047 0)"/>
       <use xlink:href="#DejaVuSans-30" transform="translate(95.410156 0)"/>
       <use xlink:href="#DejaVuSans-30" transform="translate(159.033203 0)"/>
       <use xlink:href="#DejaVuSans-30" transform="translate(222.65625 0)"/>
       <use xlink:href="#DejaVuSans-30" transform="translate(286.279297 0)"/>
       <use xlink:href="#DejaVuSans-30" transform="translate(349.902344 0)"/>
      </g>
     </g>
    </g>
    <g id="ytick_2">
     <g id="line2d_8">
      <g>
       <use xlink:href="#m9dcf51c380" x="73.47125" y="309.938488" style="stroke: #000000; stroke-width: 0.8"/>
      </g>
     </g>
     <g id="text_9">
      <!-- 0.00005 -->
      <g transform="translate(25.118125 313.737707) scale(0.1 -0.1)">
       <defs>
        <path id="DejaVuSans-35" d="M 691 4666 
L 3169 4666 
L 3169 4134 
L 1269 4134 
L 1269 2991 
Q 1406 3038 1543 3061 
Q 1681 3084 1819 3084 
Q 2600 3084 3056 2656 
Q 3513 2228 3513 1497 
Q 3513 744 3044 326 
Q 2575 -91 1722 -91 
Q 1428 -91 1123 -41 
Q 819 9 494 109 
L 494 744 
Q 775 591 1075 516 
Q 1375 441 1709 441 
Q 2250 441 2565 725 
Q 2881 1009 2881 1497 
Q 2881 1984 2565 2268 
Q 2250 2553 1709 2553 
Q 1456 2553 1204 2497 
Q 953 2441 691 2322 
L 691 4666 
z
" transform="scale(0.015625)"/>
       </defs>
       <use xlink:href="#DejaVuSans-30"/>
       <use xlink:href="#DejaVuSans-2e" transform="translate(63.623047 0)"/>
       <use xlink:href="#DejaVuSans-30" transform="translate(95.410156 0)"/>
       <use xlink:href="#DejaVuSans-30" transform="translate(159.033203 0)"/>
       <use xlink:href="#DejaVuSans-30" transform="translate(222.65625 0)"/>
       <use xlink:href="#DejaVuSans-30" transform="translate(286.279297 0)"/>
       <use xlink:href="#DejaVuSans-35" transform="translate(349.902344 0)"/>
      </g>
     </g>
    </g>
    <g id="ytick_3">
     <g id="line2d_9">
      <g>
       <use xlink:href="#m9dcf51c380" x="73.47125" y="242.957052" style="stroke: #000000; stroke-width: 0.8"/>
      </g>
     </g>
     <g id="text_10">
      <!-- 0.00010 -->
      <g transform="translate(25.118125 246.75627) scale(0.1 -0.1)">
       <use xlink:href="#DejaVuSans-30"/>
       <use xlink:href="#DejaVuSans-2e" transform="translate(63.623047 0)"/>
       <use xlink:href="#DejaVuSans-30" transform="translate(95.410156 0)"/>
       <use xlink:href="#DejaVuSans-30" transform="translate(159.033203 0)"/>
       <use xlink:href="#DejaVuSans-30" transform="translate(222.65625 0)"/>
       <use xlink:href="#DejaVuSans-31" transform="translate(286.279297 0)"/>
       <use xlink:href="#DejaVuSans-30" transform="translate(349.902344 0)"/>
      </g>
     </g>
    </g>
    <g id="ytick_4">
     <g id="line2d_10">
      <g>
       <use xlink:href="#m9dcf51c380" x="73.47125" y="175.975615" style="stroke: #000000; stroke-width: 0.8"/>
      </g>
     </g>
     <g id="text_11">
      <!-- 0.00015 -->
      <g transform="translate(25.118125 179.774834) scale(0.1 -0.1)">
       <use xlink:href="#DejaVuSans-30"/>
       <use xlink:href="#DejaVuSans-2e" transform="translate(63.623047 0)"/>
       <use xlink:href="#DejaVuSans-30" transform="translate(95.410156 0)"/>
       <use xlink:href="#DejaVuSans-30" transform="translate(159.033203 0)"/>
       <use xlink:href="#DejaVuSans-30" transform="translate(222.65625 0)"/>
       <use xlink:href="#DejaVuSans-31" transform="translate(286.279297 0)"/>
       <use xlink:href="#DejaVuSans-35" transform="translate(349.902344 0)"/>
      </g>
     </g>
    </g>
    <g id="ytick_5">
     <g id="line2d_11">
      <g>
       <use xlink:href="#m9dcf51c380" x="73.47125" y="108.994179" style="stroke: #000000; stroke-width: 0.8"/>
      </g>
     </g>
     <g id="text_12">
      <!-- 0.00020 -->
      <g transform="translate(25.118125 112.793398) scale(0.1 -0.1)">
       <use xlink:href="#DejaVuSans-30"/>
       <use xlink:href="#DejaVuSans-2e" transform="translate(63.623047 0)"/>
       <use xlink:href="#DejaVuSans-30" transform="translate(95.410156 0)"/>
       <use xlink:href="#DejaVuSans-30" transform="translate(159.033203 0)"/>
       <use xlink:href="#DejaVuSans-30" transform="translate(222.65625 0)"/>
       <use xlink:href="#DejaVuSans-32" transform="translate(286.279297 0)"/>
       <use xlink:href="#DejaVuSans-30" transform="translate(349.902344 0)"/>
      </g>
     </g>
    </g>
    <g id="ytick_6">
     <g id="line2d_12">
      <g>
       <use xlink:href="#m9dcf51c380" x="73.47125" y="42.012743" style="stroke: #000000; stroke-width: 0.8"/>
      </g>
     </g>
     <g id="text_13">
      <!-- 0.00025 -->
      <g transform="translate(25.118125 45.811962) scale(0.1 -0.1)">
       <use xlink:href="#DejaVuSans-30"/>
       <use xlink:href="#DejaVuSans-2e" transform="translate(63.623047 0)"/>
       <use xlink:href="#DejaVuSans-30" transform="translate(95.410156 0)"/>
       <use xlink:href="#DejaVuSans-30" transform="translate(159.033203 0)"/>
       <use xlink:href="#DejaVuSans-30" transform="translate(222.65625 0)"/>
       <use xlink:href="#DejaVuSans-32" transform="translate(286.279297 0)"/>
       <use xlink:href="#DejaVuSans-35" transform="translate(349.902344 0)"/>
      </g>
     </g>
    </g>
    <g id="text_14">
     <!-- charts/learning_rate -->
     <g transform="translate(18.760312 258.081406) rotate(-90) scale(0.1 -0.1)">
      <defs>
       <path id="DejaVuSans-63" d="M 3122 3366 
L 3122 2828 
Q 2878 2963 2633 3030 
Q 2388 3097 2138 3097 
Q 1578 3097 1268 2742 
Q 959 2388 959 1747 
Q 959 1106 1268 751 
Q 1578 397 2138 397 
Q 2388 397 2633 464 
Q 2878 531 3122 666 
L 3122 134 
Q 2881 22 2623 -34 
Q 2366 -91 2075 -91 
Q 1284 -91 818 406 
Q 353 903 353 1747 
Q 353 2603 823 3093 
Q 1294 3584 2113 3584 
Q 2378 3584 2631 3529 
Q 2884 3475 3122 3366 
z
" transform="scale(0.015625)"/>
       <path id="DejaVuSans-68" d="M 3513 2113 
L 3513 0 
L 2938 0 
L 2938 2094 
Q 2938 2591 2744 2837 
Q 2550 3084 2163 3084 
Q 1697 3084 1428 2787 
Q 1159 2491 1159 1978 
L 1159 0 
L 581 0 
L 581 4863 
L 1159 4863 
L 1159 2956 
Q 1366 3272 1645 3428 
Q 1925 3584 2291 3584 
Q 2894 3584 3203 3211 
Q 3513 2838 3513 2113 
z
" transform="scale(0.015625)"/>
       <path id="DejaVuSans-61" d="M 2194 1759 
Q 1497 1759 1228 1600 
Q 959 1441 959 1056 
Q 959 750 1161 570 
Q 1363 391 1709 391 
Q 2188 391 2477 730 
Q 2766 1069 2766 1631 
L 2766 1759 
L 2194 1759 
z
M 3341 1997 
L 3341 0 
L 2766 0 
L 2766 531 
Q 2569 213 2275 61 
Q 1981 -91 1556 -91 
Q 1019 -91 701 211 
Q 384 513 384 1019 
Q 384 1609 779 1909 
Q 1175 2209 1959 2209 
L 2766 2209 
L 2766 2266 
Q 2766 2663 2505 2880 
Q 2244 3097 1772 3097 
Q 1472 3097 1187 3025 
Q 903 2953 641 2809 
L 641 3341 
Q 956 3463 1253 3523 
Q 1550 3584 1831 3584 
Q 2591 3584 2966 3190 
Q 3341 2797 3341 1997 
z
" transform="scale(0.015625)"/>
       <path id="DejaVuSans-72" d="M 2631 2963 
Q 2534 3019 2420 3045 
Q 2306 3072 2169 3072 
Q 1681 3072 1420 2755 
Q 1159 2438 1159 1844 
L 1159 0 
L 581 0 
L 581 3500 
L 1159 3500 
L 1159 2956 
Q 1341 3275 1631 3429 
Q 1922 3584 2338 3584 
Q 2397 3584 2469 3576 
Q 2541 3569 2628 3553 
L 2631 2963 
z
" transform="scale(0.015625)"/>
       <path id="DejaVuSans-73" d="M 2834 3397 
L 2834 2853 
Q 2591 2978 2328 3040 
Q 2066 3103 1784 3103 
Q 1356 3103 1142 2972 
Q 928 2841 928 2578 
Q 928 2378 1081 2264 
Q 1234 2150 1697 2047 
L 1894 2003 
Q 2506 1872 2764 1633 
Q 3022 1394 3022 966 
Q 3022 478 2636 193 
Q 2250 -91 1575 -91 
Q 1294 -91 989 -36 
Q 684 19 347 128 
L 347 722 
Q 666 556 975 473 
Q 1284 391 1588 391 
Q 1994 391 2212 530 
Q 2431 669 2431 922 
Q 2431 1156 2273 1281 
Q 2116 1406 1581 1522 
L 1381 1569 
Q 847 1681 609 1914 
Q 372 2147 372 2553 
Q 372 3047 722 3315 
Q 1072 3584 1716 3584 
Q 2034 3584 2315 3537 
Q 2597 3491 2834 3397 
z
" transform="scale(0.015625)"/>
       <path id="DejaVuSans-2f" d="M 1625 4666 
L 2156 4666 
L 531 -594 
L 0 -594 
L 1625 4666 
z
" transform="scale(0.015625)"/>
       <path id="DejaVuSans-6c" d="M 603 4863 
L 1178 4863 
L 1178 0 
L 603 0 
L 603 4863 
z
" transform="scale(0.015625)"/>
       <path id="DejaVuSans-6e" d="M 3513 2113 
L 3513 0 
L 2938 0 
L 2938 2094 
Q 2938 2591 2744 2837 
Q 2550 3084 2163 3084 
Q 1697 3084 1428 2787 
Q 1159 2491 1159 1978 
L 1159 0 
L 581 0 
L 581 3500 
L 1159 3500 
L 1159 2956 
Q 1366 3272 1645 3428 
Q 1925 3584 2291 3584 
Q 2894 3584 3203 3211 
Q 3513 2838 3513 2113 
z
" transform="scale(0.015625)"/>
       <path id="DejaVuSans-69" d="M 603 3500 
L 1178 3500 
L 1178 0 
L 603 0 
L 603 3500 
z
M 603 4863 
L 1178 4863 
L 1178 4134 
L 603 4134 
L 603 4863 
z
" transform="scale(0.015625)"/>
       <path id="DejaVuSans-67" d="M 2906 1791 
Q 2906 2416 2648 2759 
Q 2391 3103 1925 3103 
Q 1463 3103 1205 2759 
Q 947 2416 947 1791 
Q 947 1169 1205 825 
Q 1463 481 1925 481 
Q 2391 481 2648 825 
Q 2906 1169 2906 1791 
z
M 3481 434 
Q 3481 -459 3084 -895 
Q 2688 -1331 1869 -1331 
Q 1566 -1331 1297 -1286 
Q 1028 -1241 775 -1147 
L 775 -588 
Q 1028 -725 1275 -790 
Q 1522 -856 1778 -856 
Q 2344 -856 2625 -561 
Q 2906 -266 2906 331 
L 2906 616 
Q 2728 306 2450 153 
Q 2172 0 1784 0 
Q 1141 0 747 490 
Q 353 981 353 1791 
Q 353 2603 747 3093 
Q 1141 3584 1784 3584 
Q 2172 3584 2450 3431 
Q 2728 3278 2906 2969 
L 2906 3500 
L 3481 3500 
L 3481 434 
z
" transform="scale(0.015625)"/>
       <path id="DejaVuSans-5f" d="M 3263 -1063 
L 3263 -1509 
L -63 -1509 
L -63 -1063 
L 3263 -1063 
z
" transform="scale(0.015625)"/>
      </defs>
      <use xlink:href="#DejaVuSans-63"/>
      <use xlink:href="#DejaVuSans-68" transform="translate(54.980469 0)"/>
      <use xlink:href="#DejaVuSans-61" transform="translate(118.359375 0)"/>
      <use xlink:href="#DejaVuSans-72" transform="translate(179.638672 0)"/>
      <use xlink:href="#DejaVuSans-74" transform="translate(220.751953 0)"/>
      <use xlink:href="#DejaVuSans-73" transform="translate(259.960938 0)"/>
      <use xlink:href="#DejaVuSans-2f" transform="translate(312.060547 0)"/>
      <use xlink:href="#DejaVuSans-6c" transform="translate(345.751953 0)"/>
      <use xlink:href="#DejaVuSans-65" transform="translate(373.535156 0)"/>
      <use xlink:href="#DejaVuSans-61" transform="translate(435.058594 0)"/>
      <use xlink:href="#DejaVuSans-72" transform="translate(496.337891 0)"/>
      <use xlink:href="#DejaVuSans-6e" transform="translate(535.701172 0)"/>
      <use xlink:href="#DejaVuSans-69" transform="translate(599.080078 0)"/>
      <use xlink:href="#DejaVuSans-6e" transform="translate(626.863281 0)"/>
      <use xlink:href="#DejaVuSans-67" transform="translate(690.242188 0)"/>
      <use xlink:href="#DejaVuSans-5f" transform="translate(753.71875 0)"/>
      <use xlink:href="#DejaVuSans-72" transform="translate(803.71875 0)"/>
      <use xlink:href="#DejaVuSans-61" transform="translate(844.832031 0)"/>
      <use xlink:href="#DejaVuSans-74" transform="translate(906.111328 0)"/>
      <use xlink:href="#DejaVuSans-65" transform="translate(945.320312 0)"/>
     </g>
    </g>
   </g>
   <g id="line2d_13">
    <path d="M 102.368011 42.012727 
L 680.303239 373.467273 
L 680.303239 373.467273 
" clip-path="url(#p52c09ebe7d)" style="fill: none; stroke: #00008b; stroke-width: 1.5; stroke-linecap: square"/>
   </g>
   <g id="patch_3">
    <path d="M 73.47125 390.04 
L 73.47125 25.44 
" style="fill: none; stroke: #000000; stroke-width: 0.8; stroke-linejoin: miter; stroke-linecap: square"/>
   </g>
   <g id="patch_4">
    <path d="M 709.2 390.04 
L 709.2 25.44 
" style="fill: none; stroke: #000000; stroke-width: 0.8; stroke-linejoin: miter; stroke-linecap: square"/>
   </g>
   <g id="patch_5">
    <path d="M 73.47125 390.04 
L 709.2 390.04 
" style="fill: none; stroke: #000000; stroke-width: 0.8; stroke-linejoin: miter; stroke-linecap: square"/>
   </g>
   <g id="patch_6">
    <path d="M 73.47125 25.44 
L 709.2 25.44 
" style="fill: none; stroke: #000000; stroke-width: 0.8; stroke-linejoin: miter; stroke-linecap: square"/>
   </g>
   <g id="text_15">
    <!-- charts/learning_rate for ppo_atari (aggregated via interpolation over runs) -->
    <g transform="translate(168.089687 19.44) scale(0.12 -0.12)">
     <defs>
      <path id="DejaVuSans-20" transform="scale(0.015625)"/>
      <path id="DejaVuSans-66" d="M 2375 4863 
L 2375 4384 
L 1825 4384 
Q 1516 4384 1395 4259 
Q 1275 4134 1275 3809 
L 1275 3500 
L 2222 3500 
L 2222 3053 
L 1275 3053 
L 1275 0 
L 697 0 
L 697 3053 
L 147 3053 
L 147 3500 
L 697 3500 
L 697 3744 
Q 697 4328 969 4595 
Q 1241 4863 1831 4863 
L 2375 4863 
z
" transform="scale(0.015625)"/>
      <path id="DejaVuSans-6f" d="M 1959 3097 
Q 1497 3097 1228 2736 
Q 959 2375 959 1747 
Q 959 1119 1226 758 
Q 1494 397 1959 397 
Q 2419 397 2687 759 
Q 2956 1122 2956 1747 
Q 2956 2369 2687 2733 
Q 2419 3097 1959 3097 
z
M 1959 3584 
Q 2709 3584 3137 3096 
Q 3566 2609 3566 1747 
Q 3566 888 3137 398 
Q 2709 -91 1959 -91 
Q 1206 -91 779 398 
Q 353 888 353 1747 
Q 353 2609 779 3096 
Q 1206 3584 1959 3584 
z
" transform="scale(0.015625)"/>
      <path id="DejaVuSans-28" d="M 1984 4856 
Q 1566 4138 1362 3434 
Q 1159 2731 1159 2009 
Q 1159 1288 1364 580 
Q 1569 -128 1984 -844 
L 1484 -844 
Q 1016 -109 783 600 
Q 550 1309 550 2009 
Q 550 2706 781 3412 
Q 1013 4119 1484 4856 
L 1984 4856 
z
" transform="scale(0.015625)"/>
      <path id="DejaVuSans-64" d="M 2906 2969 
L 2906 4863 
L 3481 4863 
L 3481 0 
L 2906 0 
L 2906 525 
Q 2725 213 2448 61 
Q 2172 -91 1784 -91 
Q 1150 -91 751 415 
Q 353 922 353 1747 
Q 353 2572 751 3078 
Q 1150 3584 1784 3584 
Q 2172 3584 2448 3432 
Q 2725 3281 2906 2969 
z
M 947 1747 
Q 947 1113 1208 752 
Q 1469 391 1925 391 
Q 2381 391 2643 752 
Q 2906 1113 2906 1747 
Q 2906 2381 2643 2742 
Q 2381 3103 1925 3103 
Q 1469 3103 1208 2742 
Q 947 2381 947 1747 
z
" transform="scale(0.015625)"/>
      <path id="DejaVuSans-76" d="M 191 3500 
L 800 3500 
L 1894 563 
L 2988 3500 
L 3597 3500 
L 2284 0 
L 1503 0 
L 191 3500 
z
" transform="scale(0.015625)"/>
      <path id="DejaVuSans-75" d="M 544 1381 
L 544 3500 
L 1119 3500 
L 1119 1403 
Q 1119 906 1312 657 
Q 1506 409 1894 409 
Q 2359 409 2629 706 
Q 2900 1003 2900 1516 
L 2900 3500 
L 3475 3500 
L 3475 0 
L 2900 0 
L 2900 538 
Q 2691 219 2414 64 
Q 2138 -91 1772 -91 
Q 1169 -91 856 284 
Q 544 659 544 1381 
z
M 1991 3584 
L 1991 3584 
z
" transform="scale(0.015625)"/>
      <path id="DejaVuSans-29" d="M 513 4856 
L 1013 4856 
Q 1481 4119 1714 3412 
Q 1947 2706 1947 2009 
Q 1947 1309 1714 600 
Q 1481 -109 1013 -844 
L 513 -844 
Q 928 -128 1133 580 
Q 1338 1288 1338 2009 
Q 1338 2731 1133 3434 
Q 928 4138 513 4856 
z
" transform="scale(0.015625)"/>
     </defs>
     <use xlink:href="#DejaVuSans-63"/>
     <use xlink:href="#DejaVuSans-68" transform="translate(54.980469 0)"/>
     <use xlink:href="#DejaVuSans-61" transform="translate(118.359375 0)"/>
     <use xlink:href="#DejaVuSans-72" transform="translate(179.638672 0)"/>
     <use xlink:href="#DejaVuSans-74" transform="translate(220.751953 0)"/>
     <use xlink:href="#DejaVuSans-73" transform="translate(259.960938 0)"/>
     <use xlink:href="#DejaVuSans-2f" transform="translate(312.060547 0)"/>
     <use xlink:href="#DejaVuSans-6c" transform="translate(345.751953 0)"/>
     <use xlink:href="#DejaVuSans-65" transform="translate(373.535156 0)"/>
     <use xlink:href="#DejaVuSans-61" transform="translate(435.058594 0)"/>
     <use xlink:href="#DejaVuSans-72" transform="translate(496.337891 0)"/>
     <use xlink:href="#DejaVuSans-6e" transform="translate(535.701172 0)"/>
     <use xlink:href="#DejaVuSans-69" transform="translate(599.080078 0)"/>
     <use xlink:href="#DejaVuSans-6e" transform="translate(626.863281 0)"/>
     <use xlink:href="#DejaVuSans-67" transform="translate(690.242188 0)"/>
     <use xlink:href="#DejaVuSans-5f" transform="translate(753.71875 0)"/>
     <use xlink:href="#DejaVuSans-72" transform="translate(803.71875 0)"/>
     <use xlink:href="#DejaVuSans-61" transform="translate(844.832031 0)"/>
     <use xlink:href="#DejaVuSans-74" transform="translate(906.111328 0)"/>
     <use xlink:href="#DejaVuSans-65" transform="translate(945.320312 0)"/>
     <use xlink:href="#DejaVuSans-20" transform="translate(1006.84375 0)"/>
     <use xlink:href="#DejaVuSans-66" transform="translate(1038.630859 0)"/>
     <use xlink:href="#DejaVuSans-6f" transform="translate(1073.835938 0)"/>
     <use xlink:href="#DejaVuSans-72" transform="translate(1135.017578 0)"/>
     <use xlink:href="#DejaVuSans-20" transform="translate(1176.130859 0)"/>
     <use xlink:href="#DejaVuSans-70" transform="translate(1207.917969 0)"/>
     <use xlink:href="#DejaVuSans-70" transform="translate(1271.394531 0)"/>
     <use xlink:href="#DejaVuSans-6f" transform="translate(1334.871094 0)"/>
     <use xlink:href="#DejaVuSans-5f" transform="translate(1396.052734 0)"/>
     <use xlink:href="#DejaVuSans-61" transform="translate(1446.052734 0)"/>
     <use xlink:href="#DejaVuSans-74" transform="translate(1507.332031 0)"/>
     <use xlink:href="#DejaVuSans-61" transform="translate(1546.541016 0)"/>
     <use xlink:href="#DejaVuSans-72" transform="translate(1607.820312 0)"/>
     <use xlink:href="#DejaVuSans-69" transform="translate(1648.933594 0)"/>
     <use xlink:href="#DejaVuSans-20" transform="translate(1676.716797 0)"/>
     <use xlink:href="#DejaVuSans-28" transform="translate(1708.503906 0)"/>
     <use xlink:href="#DejaVuSans-61" transform="translate(1747.517578 0)"/>
     <use xlink:href="#DejaVuSans-67" transform="translate(1808.796875 0)"/>
     <use xlink:href="#DejaVuSans-67" transform="translate(1872.273438 0)"/>
     <use xlink:href="#DejaVuSans-72" transform="translate(1935.75 0)"/>
     <use xlink:href="#DejaVuSans-65" transform="translate(1974.613281 0)"/>
     <use xlink:href="#DejaVuSans-67" transform="translate(2036.136719 0)"/>
     <use xlink:href="#DejaVuSans-61" transform="translate(2099.613281 0)"/>
     <use xlink:href="#DejaVuSans-74" transform="translate(2160.892578 0)"/>
     <use xlink:href="#DejaVuSans-65" transform="translate(2200.101562 0)"/>
     <use xlink:href="#DejaVuSans-64" transform="translate(2261.625 0)"/>
     <use xlink:href="#DejaVuSans-20" transform="translate(2325.101562 0)"/>
     <use xlink:href="#DejaVuSans-76" transform="translate(2356.888672 0)"/>
     <use xlink:href="#DejaVuSans-69" transform="translate(2416.068359 0)"/>
     <use xlink:href="#DejaVuSans-61" transform="translate(2443.851562 0)"/>
     <use xlink:href="#DejaVuSans-20" transform="translate(2505.130859 0)"/>
     <use xlink:href="#DejaVuSans-69" transform="translate(2536.917969 0)"/>
     <use xlink:href="#DejaVuSans-6e" transform="translate(2564.701172 0)"/>
     <use xlink:href="#DejaVuSans-74" transform="translate(2628.080078 0)"/>
     <use xlink:href="#DejaVuSans-65" transform="translate(2667.289062 0)"/>
     <use xlink:href="#DejaVuSans-72" transform="translate(2728.8125 0)"/>
     <use xlink:href="#DejaVuSans-70" transform="translate(2769.925781 0)"/>
     <use xlink:href="#DejaVuSans-6f" transform="translate(2833.402344 0)"/>
     <use xlink:href="#DejaVuSans-6c" transform="translate(2894.583984 0)"/>
     <use xlink:href="#DejaVuSans-61" transform="translate(2922.367188 0)"/>
     <use xlink:href="#DejaVuSans-74" transform="translate(2983.646484 0)"/>
     <use xlink:href="#DejaVuSans-69" transform="translate(3022.855469 0)"/>
     <use xlink:href="#DejaVuSans-6f" transform="translate(3050.638672 0)"/>
     <use xlink:href="#DejaVuSans-6e" transform="translate(3111.820312 0)"/>
     <use xlink:href="#DejaVuSans-20" transform="translate(3175.199219 0)"/>
     <use xlink:href="#DejaVuSans-6f" transform="translate(3206.986328 0)"/>
     <use xlink:href="#DejaVuSans-76" transform="translate(3268.167969 0)"/>
     <use xlink:href="#DejaVuSans-65" transform="translate(3327.347656 0)"/>
     <use xlink:href="#DejaVuSans-72" transform="translate(3388.871094 0)"/>
     <use xlink:href="#DejaVuSans-20" transform="translate(3429.984375 0)"/>
     <use xlink:href="#DejaVuSans-72" transform="translate(3461.771484 0)"/>
     <use xlink:href="#DejaVuSans-75" transform="translate(3502.884766 0)"/>
     <use xlink:href="#DejaVuSans-6e" transform="translate(3566.263672 0)"/>
     <use xlink:href="#DejaVuSans-73" transform="translate(3629.642578 0)"/>
     <use xlink:href="#DejaVuSans-29" transform="translate(3681.742188 0)"/>
    </g>
   </g>
   <g id="legend_1">
    <g id="patch_7">
     <path d="M 626.78125 62.79625 
L 702.2 62.79625 
Q 704.2 62.79625 704.2 60.79625 
L 704.2 32.44 
Q 704.2 30.44 702.2 30.44 
L 626.78125 30.44 
Q 624.78125 30.44 624.78125 32.44 
L 624.78125 60.79625 
Q 624.78125 62.79625 626.78125 62.79625 
z
" style="fill: #ffffff; opacity: 0.8; stroke: #cccccc; stroke-linejoin: miter"/>
    </g>
    <g id="line2d_14">
     <path d="M 628.78125 38.538437 
L 638.78125 38.538437 
L 648.78125 38.538437 
" style="fill: none; stroke: #00008b; stroke-width: 1.5; stroke-linecap: square"/>
    </g>
    <g id="text_16">
     <!-- Mean -->
     <g transform="translate(656.78125 42.038437) scale(0.1 -0.1)">
      <defs>
       <path id="DejaVuSans-4d" d="M 628 4666 
L 1569 4666 
L 2759 1491 
L 3956 4666 
L 4897 4666 
L 4897 0 
L 4281 0 
L 4281 4097 
L 3078 897 
L 2444 897 
L 1241 4097 
L 1241 0 
L 628 0 
L 628 4666 
z
" transform="scale(0.015625)"/>
      </defs>
      <use xlink:href="#DejaVuSans-4d"/>
      <use xlink:href="#DejaVuSans-65" transform="translate(86.279297 0)"/>
      <use xlink:href="#DejaVuSans-61" transform="translate(147.802734 0)"/>
      <use xlink:href="#DejaVuSans-6e" transform="translate(209.082031 0)"/>
     </g>
    </g>
    <g id="patch_8">
     <path d="M 628.78125 56.716563 
L 648.78125 56.716563 
L 648.78125 49.716563 
L 628.78125 49.716563 
z
" style="fill: #00008b; fill-opacity: 0.3; stroke: #00008b; stroke-opacity: 0.3; stroke-linejoin: miter"/>
    </g>
    <g id="text_17">
     <!-- MinMax -->
     <g transform="translate(656.78125 56.716563) scale(0.1 -0.1)">
      <defs>
       <path id="DejaVuSans-2013" d="M 313 1978 
L 2888 1978 
L 2888 1528 
L 313 1528 
L 313 1978 
z
" transform="scale(0.015625)"/>
       <path id="DejaVuSans-78" d="M 3513 3500 
L 2247 1797 
L 3578 0 
L 2900 0 
L 1881 1375 
L 863 0 
L 184 0 
L 1544 1831 
L 300 3500 
L 978 3500 
L 1906 2253 
L 2834 3500 
L 3513 3500 
z
" transform="scale(0.015625)"/>
      </defs>
      <use xlink:href="#DejaVuSans-4d"/>
      <use xlink:href="#DejaVuSans-69" transform="translate(86.279297 0)"/>
      <use xlink:href="#DejaVuSans-6e" transform="translate(114.0625 0)"/>
      <use xlink:href="#DejaVuSans-2013" transform="translate(177.441406 0)"/>
      <use xlink:href="#DejaVuSans-4d" transform="translate(227.441406 0)"/>
      <use xlink:href="#DejaVuSans-61" transform="translate(313.720703 0)"/>
      <use xlink:href="#DejaVuSans-78" transform="translate(375 0)"/>
     </g>
    </g>
   </g>
  </g>
 </g>
 <defs>
  <clipPath id="p52c09ebe7d">
   <rect x="73.47125" y="25.44" width="635.72875" height="364.6"/>
  </clipPath>
 </defs>
</svg>
