<?xml version="1.0" encoding="utf-8" standalone="no"?>
<!DOCTYPE svg PUBLIC "-//W3C//DTD SVG 1.1//EN"
  "http://www.w3.org/Graphics/SVG/1.1/DTD/svg11.dtd">
<svg xmlns:xlink="http://www.w3.org/1999/xlink" width="720pt" height="432pt" viewBox="0 0 720 432" xmlns="http://www.w3.org/2000/svg" version="1.1">
 <metadata>
  <rdf:RDF xmlns:dc="http://purl.org/dc/elements/1.1/" xmlns:cc="http://creativecommons.org/ns#" xmlns:rdf="http://www.w3.org/1999/02/22-rdf-syntax-ns#">
   <cc:Work>
    <dc:type rdf:resource="http://purl.org/dc/dcmitype/StillImage"/>
    <dc:date>2025-02-05T20:31:48.351389</dc:date>
    <dc:format>image/svg+xml</dc:format>
    <dc:creator>
     <cc:Agent>
      <dc:title>Matplotlib v3.10.0, https://matplotlib.org/</dc:title>
     </cc:Agent>
    </dc:creator>
   </cc:Work>
  </rdf:RDF>
 </metadata>
 <defs>
  <style type="text/css">*{stroke-linejoin: round; stroke-linecap: butt}</style>
 </defs>
 <g id="figure_1">
  <g id="patch_1">
   <path d="M 0 432 
L 720 432 
L 720 0 
L 0 0 
z
" style="fill: #ffffff"/>
  </g>
  <g id="axes_1">
   <g id="patch_2">
    <path d="M 46.74125 390.04 
L 709.2 390.04 
L 709.2 25.44 
L 46.74125 25.44 
z
" style="fill: #ffffff"/>
   </g>
   <g id="FillBetweenPolyCollection_1">
    <defs>
     <path id="m33808b0d05" d="M 76.853011 -244.693775 
L 76.853011 -201.638646 
L 77.455849 -201.638646 
L 78.058687 -201.638646 
L 78.661526 -201.638646 
L 79.264364 -201.638646 
L 79.867202 -201.638646 
L 80.47004 -201.638646 
L 81.072878 -201.638646 
L 81.675716 -201.638646 
L 82.278554 -201.638646 
L 82.881392 -201.638646 
L 83.48423 -201.638646 
L 84.087068 -201.638646 
L 84.689906 -201.638646 
L 85.292744 -201.638646 
L 85.895582 -201.638646 
L 86.49842 -201.638646 
L 87.101258 -201.638646 
L 87.704097 -201.638646 
L 88.306935 -201.638646 
L 88.909773 -201.638646 
L 89.512611 -201.718898 
L 90.115449 -201.757374 
L 90.718287 -201.757374 
L 91.321125 -201.757374 
L 91.923963 -201.757374 
L 92.526801 -201.757374 
L 93.129639 -201.757374 
L 93.732477 -201.757374 
L 94.335315 -201.757374 
L 94.938153 -201.829475 
L 95.540991 -202.186182 
L 96.143829 -201.757374 
L 96.746668 -201.757374 
L 97.349506 -201.757374 
L 97.952344 -201.757374 
L 98.555182 -201.757374 
L 99.15802 -201.757374 
L 99.760858 -201.757374 
L 100.363696 -201.757374 
L 100.966534 -201.757374 
L 101.569372 -201.757374 
L 102.17221 -201.757374 
L 102.775048 -203.181346 
L 103.377886 -201.757374 
L 103.980724 -201.757374 
L 104.583562 -202.072164 
L 105.1864 -203.076066 
L 105.789238 -203.076066 
L 106.392077 -203.076066 
L 106.994915 -203.014939 
L 107.597753 -201.922978 
L 108.200591 -202.342995 
L 108.803429 -202.078067 
L 109.406267 -202.360857 
L 110.009105 -201.785523 
L 110.611943 -201.757374 
L 111.214781 -201.757374 
L 111.817619 -201.757374 
L 112.420457 -201.757374 
L 113.023295 -201.757374 
L 113.626133 -201.757374 
L 114.228971 -201.887165 
L 114.831809 -202.876575 
L 115.434648 -202.446514 
L 116.037486 -201.95253 
L 116.640324 -202.540428 
L 117.243162 -201.757374 
L 117.846 -201.757374 
L 118.448838 -201.757374 
L 119.051676 -201.757374 
L 119.654514 -201.757374 
L 120.257352 -202.85063 
L 120.86019 -203.181346 
L 121.463028 -203.181346 
L 122.065866 -201.837389 
L 122.668704 -202.41735 
L 123.271542 -202.802552 
L 123.87438 -202.692066 
L 124.477219 -201.757374 
L 125.080057 -201.780643 
L 125.682895 -201.757374 
L 126.285733 -201.757374 
L 126.888571 -201.757374 
L 127.491409 -201.757374 
L 128.094247 -201.757374 
L 128.697085 -202.217224 
L 129.299923 -201.757374 
L 129.902761 -201.757374 
L 130.505599 -202.164449 
L 131.108437 -201.961036 
L 131.711275 -202.387126 
L 132.314113 -203.179808 
L 132.916951 -203.181346 
L 133.51979 -203.181346 
L 134.122628 -202.664339 
L 134.725466 -201.945816 
L 135.328304 -202.818336 
L 135.931142 -202.585278 
L 136.53398 -201.757374 
L 137.136818 -201.757374 
L 137.739656 -201.757374 
L 138.342494 -201.757374 
L 138.945332 -201.757374 
L 139.54817 -201.757374 
L 140.151008 -201.757374 
L 140.753846 -201.757374 
L 141.356684 -201.757374 
L 141.959522 -202.296221 
L 142.56236 -201.977732 
L 143.165199 -203.076066 
L 143.768037 -203.076066 
L 144.370875 -203.076066 
L 144.973713 -201.757374 
L 145.576551 -201.757374 
L 146.179389 -201.757374 
L 146.782227 -202.00108 
L 147.385065 -203.076066 
L 147.987903 -203.076066 
L 148.590741 -203.076066 
L 149.193579 -201.923506 
L 149.796417 -202.440472 
L 150.399255 -201.757374 
L 151.002093 -201.757374 
L 151.604931 -201.757374 
L 152.20777 -201.757374 
L 152.810608 -201.757374 
L 153.413446 -201.757374 
L 154.016284 -201.757374 
L 154.619122 -203.181346 
L 155.22196 -203.181346 
L 155.824798 -201.757374 
L 156.427636 -201.757374 
L 157.030474 -201.838172 
L 157.633312 -201.757374 
L 158.23615 -201.757374 
L 158.838988 -192.820931 
L 159.441826 -192.893105 
L 160.044664 -192.965279 
L 160.647502 -193.037453 
L 161.250341 -193.109627 
L 161.853179 -193.181801 
L 162.456017 -193.253975 
L 163.058855 -193.326149 
L 163.661693 -193.398322 
L 164.264531 -193.470496 
L 164.867369 -193.54267 
L 165.470207 -193.614844 
L 166.073045 -193.687018 
L 166.675883 -193.759192 
L 167.278721 -193.831366 
L 167.881559 -193.90354 
L 168.484397 -193.975714 
L 169.087235 -194.047888 
L 169.690073 -194.120062 
L 170.292911 -194.192236 
L 170.89575 -194.26441 
L 171.498588 -194.336584 
L 172.101426 -194.408758 
L 172.704264 -194.480932 
L 173.307102 -194.432016 
L 173.90994 -194.071146 
L 174.512778 -193.710277 
L 175.115616 -193.349407 
L 175.718454 -192.988537 
L 176.321292 -192.627667 
L 176.92413 -192.266798 
L 177.526968 -191.905928 
L 178.129806 -191.545058 
L 178.732644 -191.184189 
L 179.335482 -190.823319 
L 179.938321 -190.462449 
L 180.541159 -190.101579 
L 181.143997 -189.74071 
L 181.746835 -189.37984 
L 182.349673 -189.01897 
L 182.952511 -188.658101 
L 183.555349 -188.297231 
L 184.158187 -187.936361 
L 184.761025 -187.575492 
L 185.363863 -187.214622 
L 185.966701 -186.853752 
L 186.569539 -186.492882 
L 187.172377 -186.132013 
L 187.775215 -185.771143 
L 188.378053 -185.410273 
L 188.980892 -185.049404 
L 189.58373 -184.688534 
L 190.186568 -184.327664 
L 190.789406 -183.966795 
L 191.392244 -183.605925 
L 191.995082 -183.245055 
L 192.59792 -182.884185 
L 193.200758 -182.523316 
L 193.803596 -182.162446 
L 194.406434 -181.801576 
L 195.009272 -181.440707 
L 195.61211 -181.079837 
L 196.214948 -180.718967 
L 196.817786 -180.358097 
L 197.420624 -179.997228 
L 198.023462 -179.636358 
L 198.626301 -179.275488 
L 199.229139 -178.914619 
L 199.831977 -178.553749 
L 200.434815 -178.192879 
L 201.037653 -177.83201 
L 201.640491 -177.47114 
L 202.243329 -177.11027 
L 202.846167 -176.7494 
L 203.449005 -176.388531 
L 204.051843 -176.027661 
L 204.654681 -175.666791 
L 205.257519 -175.305922 
L 205.860357 -174.945052 
L 206.463195 -174.584182 
L 207.066033 -174.223313 
L 207.668872 -173.862443 
L 208.27171 -173.501573 
L 208.874548 -173.140703 
L 209.477386 -172.779834 
L 210.080224 -172.418964 
L 210.683062 -172.058094 
L 211.2859 -171.697225 
L 211.888738 -171.336355 
L 212.491576 -170.975485 
L 213.094414 -170.614616 
L 213.697252 -170.253746 
L 214.30009 -169.892876 
L 214.902928 -169.532006 
L 215.505766 -169.171137 
L 216.108604 -168.810267 
L 216.711443 -168.449397 
L 217.314281 -168.088528 
L 217.917119 -167.727658 
L 218.519957 -167.366788 
L 219.122795 -167.005918 
L 219.725633 -166.645049 
L 220.328471 -166.284179 
L 220.931309 -165.923309 
L 221.534147 -165.56244 
L 222.136985 -165.20157 
L 222.739823 -164.8407 
L 223.342661 -164.479831 
L 223.945499 -164.118961 
L 224.548337 -163.758091 
L 225.151175 -163.397221 
L 225.754014 -163.036352 
L 226.356852 -162.675482 
L 226.95969 -162.314612 
L 227.562528 -161.953743 
L 228.165366 -161.592873 
L 228.768204 -161.232003 
L 229.371042 -160.871134 
L 229.97388 -160.510264 
L 230.576718 -160.149394 
L 231.179556 -159.788524 
L 231.782394 -159.427655 
L 232.385232 -159.066785 
L 232.98807 -158.705915 
L 233.590908 -158.345046 
L 234.193746 -157.984176 
L 234.796584 -157.623306 
L 235.399423 -157.262437 
L 236.002261 -156.901567 
L 236.605099 -156.540697 
L 237.207937 -156.179827 
L 237.810775 -155.818958 
L 238.413613 -155.458088 
L 239.016451 -155.097218 
L 239.619289 -154.736349 
L 240.222127 -154.375479 
L 240.824965 -154.014609 
L 241.427803 -153.653739 
L 242.030641 -153.29287 
L 242.633479 -152.932 
L 243.236317 -152.57113 
L 243.839155 -152.210261 
L 244.441994 -151.849391 
L 245.044832 -151.488521 
L 245.64767 -165.059031 
L 246.250508 -120.803735 
L 246.853346 -121.814741 
L 247.456184 -122.825747 
L 248.059022 -123.836753 
L 248.66186 -124.847759 
L 249.264698 -125.858765 
L 249.867536 -126.869771 
L 250.470374 -127.880777 
L 251.073212 -128.891783 
L 251.67605 -129.902789 
L 252.278888 -130.913795 
L 252.881726 -131.924801 
L 253.484565 -132.935807 
L 254.087403 -133.946813 
L 254.690241 -134.957819 
L 255.293079 -135.968825 
L 255.895917 -136.979831 
L 256.498755 -137.990837 
L 257.101593 -139.001843 
L 257.704431 -140.012849 
L 258.307269 -141.023855 
L 258.910107 -142.034861 
L 259.512945 -143.045867 
L 260.115783 -144.056873 
L 260.718621 -145.06788 
L 261.321459 -146.078886 
L 261.924297 -147.089892 
L 262.527135 -148.100898 
L 263.129974 -149.111904 
L 263.732812 -150.12291 
L 264.33565 -151.133916 
L 264.938488 -152.144922 
L 265.541326 -153.155928 
L 266.144164 -154.166934 
L 266.747002 -155.17794 
L 267.34984 -156.188946 
L 267.952678 -157.199952 
L 268.555516 -158.210958 
L 269.158354 -159.221964 
L 269.761192 -160.23297 
L 270.36403 -161.243976 
L 270.966868 -162.254982 
L 271.569706 -163.265988 
L 272.172545 -164.276994 
L 272.775383 -165.288 
L 273.378221 -166.299006 
L 273.981059 -167.310012 
L 274.583897 -168.321018 
L 275.186735 -169.332024 
L 275.789573 -170.34303 
L 276.392411 -171.354036 
L 276.995249 -172.365042 
L 277.598087 -173.376049 
L 278.200925 -174.387055 
L 278.803763 -175.398061 
L 279.406601 -176.409067 
L 280.009439 -177.420073 
L 280.612277 -178.431079 
L 281.215116 -179.442085 
L 281.817954 -180.453091 
L 282.420792 -181.464097 
L 283.02363 -182.475103 
L 283.626468 -183.486109 
L 284.229306 -184.497115 
L 284.832144 -185.508121 
L 285.434982 -186.519127 
L 286.03782 -187.530133 
L 286.640658 -188.541139 
L 287.243496 -189.552145 
L 287.846334 -190.563151 
L 288.449172 -191.574157 
L 289.05201 -192.585163 
L 289.654848 -193.596169 
L 290.257686 -194.607175 
L 290.860525 -195.618181 
L 291.463363 -196.629187 
L 292.066201 -197.640193 
L 292.669039 -197.574582 
L 293.271877 -197.502367 
L 293.874715 -197.430152 
L 294.477553 -197.357937 
L 295.080391 -197.285723 
L 295.683229 -197.213508 
L 296.286067 -197.141293 
L 296.888905 -197.069078 
L 297.491743 -196.996864 
L 298.094581 -196.924649 
L 298.697419 -196.852434 
L 299.300257 -196.78022 
L 299.903096 -196.708005 
L 300.505934 -196.63579 
L 301.108772 -196.563575 
L 301.71161 -196.491361 
L 302.314448 -196.419146 
L 302.917286 -196.346931 
L 303.520124 -196.274717 
L 304.122962 -196.202502 
L 304.7258 -196.130287 
L 305.328638 -196.058072 
L 305.931476 -195.985858 
L 306.534314 -195.913643 
L 307.137152 -195.841428 
L 307.73999 -195.769214 
L 308.342828 -195.696999 
L 308.945667 -195.624784 
L 309.548505 -195.552569 
L 310.151343 -195.480355 
L 310.754181 -195.40814 
L 311.357019 -195.335925 
L 311.959857 -195.263711 
L 312.562695 -195.191496 
L 313.165533 -195.119281 
L 313.768371 -195.047066 
L 314.371209 -194.974852 
L 314.974047 -194.902637 
L 315.576885 -194.830422 
L 316.179723 -194.758208 
L 316.782561 -194.685993 
L 317.385399 -194.613778 
L 317.988237 -194.541563 
L 318.591076 -194.469349 
L 319.193914 -194.397134 
L 319.796752 -194.324919 
L 320.39959 -194.252705 
L 321.002428 -194.18049 
L 321.605266 -194.108275 
L 322.208104 -194.03606 
L 322.810942 -193.963846 
L 323.41378 -193.891631 
L 324.016618 -193.819416 
L 324.619456 -193.747202 
L 325.222294 -193.674987 
L 325.825132 -193.602772 
L 326.42797 -193.530557 
L 327.030808 -193.458343 
L 327.633647 -193.386128 
L 328.236485 -193.313913 
L 328.839323 -193.241698 
L 329.442161 -193.169484 
L 330.044999 -193.097269 
L 330.647837 -193.025054 
L 331.250675 -192.95284 
L 331.853513 -192.880625 
L 332.456351 -192.80841 
L 333.059189 -172.122721 
L 333.662027 -172.772653 
L 334.264865 -173.422585 
L 334.867703 -174.072518 
L 335.470541 -174.72245 
L 336.073379 -175.372383 
L 336.676218 -176.022315 
L 337.279056 -176.672248 
L 337.881894 -177.32218 
L 338.484732 -177.972113 
L 339.08757 -178.622045 
L 339.690408 -179.271978 
L 340.293246 -179.92191 
L 340.896084 -180.571842 
L 341.498922 -181.221775 
L 342.10176 -181.871707 
L 342.704598 -182.52164 
L 343.307436 -183.171572 
L 343.910274 -183.821505 
L 344.513112 -184.471437 
L 345.11595 -185.12137 
L 345.718789 -185.771302 
L 346.321627 -186.421234 
L 346.924465 -187.071167 
L 347.527303 -187.435997 
L 348.130141 -186.352776 
L 348.732979 -185.269555 
L 349.335817 -184.186335 
L 349.938655 -183.103114 
L 350.541493 -182.019893 
L 351.144331 -180.936672 
L 351.747169 -179.853452 
L 352.350007 -178.770231 
L 352.952845 -177.68701 
L 353.555683 -176.603789 
L 354.158521 -175.520569 
L 354.761359 -174.437348 
L 355.364198 -173.354127 
L 355.967036 -172.270906 
L 356.569874 -171.187686 
L 357.172712 -170.104465 
L 357.77555 -169.021244 
L 358.378388 -167.938023 
L 358.981226 -166.854803 
L 359.584064 -165.771582 
L 360.186902 -164.688361 
L 360.78974 -163.60514 
L 361.392578 -162.521919 
L 361.995416 -161.438699 
L 362.598254 -160.355478 
L 363.201092 -159.272257 
L 363.80393 -158.189036 
L 364.406769 -157.105816 
L 365.009607 -156.022595 
L 365.612445 -154.939374 
L 366.215283 -153.856153 
L 366.818121 -152.772933 
L 367.420959 -151.689712 
L 368.023797 -150.606491 
L 368.626635 -149.52327 
L 369.229473 -148.44005 
L 369.832311 -147.356829 
L 370.435149 -146.273608 
L 371.037987 -145.190387 
L 371.640825 -144.107167 
L 372.243663 -143.023946 
L 372.846501 -141.940725 
L 373.44934 -140.857504 
L 374.052178 -139.774284 
L 374.655016 -138.691063 
L 375.257854 -137.607842 
L 375.860692 -136.524621 
L 376.46353 -135.441401 
L 377.066368 -134.35818 
L 377.669206 -133.274959 
L 378.272044 -132.191738 
L 378.874882 -131.108518 
L 379.47772 -130.025297 
L 380.080558 -128.942076 
L 380.683396 -127.858855 
L 381.286234 -126.775635 
L 381.889072 -125.692414 
L 382.49191 -124.609193 
L 383.094749 -123.525972 
L 383.697587 -122.442752 
L 384.300425 -121.359531 
L 384.903263 -120.27631 
L 385.506101 -119.193089 
L 386.108939 -118.109869 
L 386.711777 -117.026648 
L 387.314615 -115.943427 
L 387.917453 -114.860206 
L 388.520291 -113.776986 
L 389.123129 -112.693765 
L 389.725967 -111.610544 
L 390.328805 -110.527323 
L 390.931643 -109.444103 
L 391.534481 -108.360882 
L 392.13732 -107.277661 
L 392.740158 -106.19444 
L 393.342996 -105.11122 
L 393.945834 -104.027999 
L 394.548672 -102.944778 
L 395.15151 -101.861557 
L 395.754348 -100.778337 
L 396.357186 -99.695116 
L 396.960024 -98.611895 
L 397.562862 -97.528674 
L 398.1657 -96.445454 
L 398.768538 -95.362233 
L 399.371376 -94.279012 
L 399.974214 -93.195791 
L 400.577052 -92.112571 
L 401.179891 -91.02935 
L 401.782729 -89.946129 
L 402.385567 -88.862908 
L 402.988405 -87.779688 
L 403.591243 -86.696467 
L 404.194081 -85.613246 
L 404.796919 -84.530025 
L 405.399757 -83.446805 
L 406.002595 -82.363584 
L 406.605433 -81.280363 
L 407.208271 -80.197142 
L 407.811109 -79.113922 
L 408.413947 -78.030701 
L 409.016785 -76.94748 
L 409.619623 -75.864259 
L 410.222461 -74.781039 
L 410.8253 -73.697818 
L 411.428138 -72.614597 
L 412.030976 -71.531376 
L 412.633814 -70.448156 
L 413.236652 -69.364935 
L 413.83949 -68.281714 
L 414.442328 -67.198493 
L 415.045166 -66.115273 
L 415.648004 -65.032052 
L 416.250842 -63.948831 
L 416.85368 -62.86561 
L 417.456518 -61.78239 
L 418.059356 -60.699169 
L 418.662194 -59.615948 
L 419.265032 -58.532727 
L 419.867871 -201.757374 
L 420.470709 -151.726388 
L 421.073547 -152.738538 
L 421.676385 -153.750687 
L 422.279223 -154.762837 
L 422.882061 -155.774987 
L 423.484899 -156.787136 
L 424.087737 -157.799286 
L 424.690575 -158.811436 
L 425.293413 -159.823585 
L 425.896251 -160.835735 
L 426.499089 -161.847885 
L 427.101927 -162.860035 
L 427.704765 -163.872184 
L 428.307603 -164.884334 
L 428.910442 -165.896484 
L 429.51328 -166.908633 
L 430.116118 -167.920783 
L 430.718956 -168.932933 
L 431.321794 -169.945083 
L 431.924632 -170.957232 
L 432.52747 -171.969382 
L 433.130308 -172.981532 
L 433.733146 -173.993681 
L 434.335984 -175.005831 
L 434.938822 -176.017981 
L 435.54166 -177.03013 
L 436.144498 -178.04228 
L 436.747336 -179.05443 
L 437.350174 -180.06658 
L 437.953013 -181.078729 
L 438.555851 -182.090879 
L 439.158689 -183.103029 
L 439.761527 -184.115178 
L 440.364365 -185.127328 
L 440.967203 -186.139478 
L 441.570041 -187.151628 
L 442.172879 -188.163777 
L 442.775717 -189.175927 
L 443.378555 -190.188077 
L 443.981393 -191.200226 
L 444.584231 -192.212376 
L 445.187069 -193.224526 
L 445.789907 -194.236676 
L 446.392745 -195.248825 
L 446.995583 -196.260975 
L 447.598422 -197.273125 
L 448.20126 -198.285274 
L 448.804098 -199.297424 
L 449.406936 -199.680006 
L 450.009774 -199.60771 
L 450.612612 -199.535413 
L 451.21545 -199.463117 
L 451.818288 -199.390821 
L 452.421126 -199.318524 
L 453.023964 -199.246228 
L 453.626802 -199.173931 
L 454.22964 -199.101635 
L 454.832478 -199.029339 
L 455.435316 -198.957042 
L 456.038154 -198.884746 
L 456.640993 -198.812449 
L 457.243831 -198.740153 
L 457.846669 -198.667857 
L 458.449507 -198.59556 
L 459.052345 -198.523264 
L 459.655183 -198.450967 
L 460.258021 -198.378671 
L 460.860859 -198.306375 
L 461.463697 -198.234078 
L 462.066535 -198.161782 
L 462.669373 -198.089485 
L 463.272211 -198.017189 
L 463.875049 -197.944892 
L 464.477887 -197.872596 
L 465.080725 -197.8003 
L 465.683564 -197.728003 
L 466.286402 -197.655707 
L 466.88924 -197.58341 
L 467.492078 -197.511114 
L 468.094916 -197.438818 
L 468.697754 -197.366521 
L 469.300592 -197.294225 
L 469.90343 -197.221928 
L 470.506268 -197.149632 
L 471.109106 -197.077336 
L 471.711944 -197.005039 
L 472.314782 -196.932743 
L 472.91762 -196.860446 
L 473.520458 -196.78815 
L 474.123296 -196.715854 
L 474.726134 -196.643557 
L 475.328973 -196.571261 
L 475.931811 -196.498964 
L 476.534649 -196.426668 
L 477.137487 -196.354372 
L 477.740325 -196.282075 
L 478.343163 -196.209779 
L 478.946001 -196.137482 
L 479.548839 -196.065186 
L 480.151677 -195.992889 
L 480.754515 -195.920593 
L 481.357353 -195.848297 
L 481.960191 -195.776 
L 482.563029 -195.703704 
L 483.165867 -195.631407 
L 483.768705 -195.559111 
L 484.371544 -195.486815 
L 484.974382 -195.414518 
L 485.57722 -195.342222 
L 486.180058 -195.269925 
L 486.782896 -195.197629 
L 487.385734 -195.125333 
L 487.988572 -195.053036 
L 488.59141 -194.98074 
L 489.194248 -194.908443 
L 489.797086 -194.836147 
L 490.399924 -194.763851 
L 491.002762 -194.691554 
L 491.6056 -194.619258 
L 492.208438 -194.546961 
L 492.811276 -194.474665 
L 493.414115 -194.402369 
L 494.016953 -194.330072 
L 494.619791 -194.257776 
L 495.222629 -194.185479 
L 495.825467 -194.113183 
L 496.428305 -194.040886 
L 497.031143 -193.96859 
L 497.633981 -193.896294 
L 498.236819 -193.823997 
L 498.839657 -193.751701 
L 499.442495 -193.679404 
L 500.045333 -193.607108 
L 500.648171 -193.534812 
L 501.251009 -193.462515 
L 501.853847 -193.390219 
L 502.456685 -193.317922 
L 503.059524 -193.245626 
L 503.662362 -193.17333 
L 504.2652 -193.101033 
L 504.868038 -193.028737 
L 505.470876 -192.95644 
L 506.073714 -192.884144 
L 506.676552 -192.811848 
L 507.27939 -151.810236 
L 507.882228 -141.567784 
L 508.485066 -142.29034 
L 509.087904 -143.012895 
L 509.690742 -143.735451 
L 510.29358 -144.458006 
L 510.896418 -145.180561 
L 511.499256 -145.903117 
L 512.102095 -146.625672 
L 512.704933 -147.348228 
L 513.307771 -148.070783 
L 513.910609 -148.793338 
L 514.513447 -149.515894 
L 515.116285 -150.238449 
L 515.719123 -150.961005 
L 516.321961 -151.68356 
L 516.924799 -152.406115 
L 517.527637 -153.128671 
L 518.130475 -153.851226 
L 518.733313 -154.573781 
L 519.336151 -155.296337 
L 519.938989 -156.018892 
L 520.541827 -156.741448 
L 521.144666 -157.464003 
L 521.747504 -158.186558 
L 522.350342 -158.909114 
L 522.95318 -159.631669 
L 523.556018 -160.354225 
L 524.158856 -161.07678 
L 524.761694 -161.799335 
L 525.364532 -162.521891 
L 525.96737 -163.244446 
L 526.570208 -163.967002 
L 527.173046 -164.689557 
L 527.775884 -165.412112 
L 528.378722 -166.134668 
L 528.98156 -166.857223 
L 529.584398 -167.579779 
L 530.187236 -167.514341 
L 530.790075 -166.573424 
L 531.392913 -165.632506 
L 531.995751 -164.691588 
L 532.598589 -163.750671 
L 533.201427 -162.809753 
L 533.804265 -161.868835 
L 534.407103 -160.927917 
L 535.009941 -159.987 
L 535.612779 -159.046082 
L 536.215617 -158.105164 
L 536.818455 -157.164247 
L 537.421293 -156.223329 
L 538.024131 -155.282411 
L 538.626969 -154.341494 
L 539.229807 -153.400576 
L 539.832646 -152.459658 
L 540.435484 -151.518741 
L 541.038322 -150.577823 
L 541.64116 -149.636905 
L 542.243998 -148.695988 
L 542.846836 -147.75507 
L 543.449674 -146.814152 
L 544.052512 -145.873234 
L 544.65535 -144.932317 
L 545.258188 -143.991399 
L 545.861026 -143.050481 
L 546.463864 -142.109564 
L 547.066702 -141.168646 
L 547.66954 -140.227728 
L 548.272378 -139.286811 
L 548.875217 -138.345893 
L 549.478055 -137.404975 
L 550.080893 -136.464058 
L 550.683731 -135.52314 
L 551.286569 -134.582222 
L 551.889407 -133.641305 
L 552.492245 -132.700387 
L 553.095083 -131.759469 
L 553.697921 -130.818551 
L 554.300759 -129.877634 
L 554.903597 -128.936716 
L 555.506435 -127.995798 
L 556.109273 -127.054881 
L 556.712111 -126.113963 
L 557.314949 -125.173045 
L 557.917788 -124.232128 
L 558.520626 -123.29121 
L 559.123464 -122.350292 
L 559.726302 -121.409375 
L 560.32914 -120.468457 
L 560.931978 -119.527539 
L 561.534816 -118.586622 
L 562.137654 -117.645704 
L 562.740492 -116.704786 
L 563.34333 -115.763869 
L 563.946168 -114.822951 
L 564.549006 -113.882033 
L 565.151844 -112.941115 
L 565.754682 -112.000198 
L 566.35752 -111.05928 
L 566.960358 -110.118362 
L 567.563197 -109.177445 
L 568.166035 -108.236527 
L 568.768873 -107.295609 
L 569.371711 -106.354692 
L 569.974549 -105.413774 
L 570.577387 -104.472856 
L 571.180225 -103.531939 
L 571.783063 -102.591021 
L 572.385901 -101.650103 
L 572.988739 -100.709186 
L 573.591577 -99.768268 
L 574.194415 -98.82735 
L 574.797253 -97.886432 
L 575.400091 -96.945515 
L 576.002929 -96.004597 
L 576.605768 -95.063679 
L 577.208606 -94.122762 
L 577.811444 -93.181844 
L 578.414282 -92.240926 
L 579.01712 -91.300009 
L 579.619958 -90.359091 
L 580.222796 -89.418173 
L 580.825634 -88.477256 
L 581.428472 -87.536338 
L 582.03131 -86.59542 
L 582.634148 -85.654503 
L 583.236986 -84.713585 
L 583.839824 -83.772667 
L 584.442662 -82.831749 
L 585.0455 -81.890832 
L 585.648339 -80.949914 
L 586.251177 -80.008996 
L 586.854015 -79.068079 
L 587.456853 -78.127161 
L 588.059691 -77.186243 
L 588.662529 -76.245326 
L 589.265367 -75.304408 
L 589.868205 -74.36349 
L 590.471043 -73.422573 
L 591.073881 -72.481655 
L 591.676719 -71.540737 
L 592.279557 -70.59982 
L 592.882395 -69.658902 
L 593.485233 -68.717984 
L 594.088071 -148.496306 
L 594.690909 -130.534597 
L 595.293748 -130.534597 
L 595.896586 -130.534597 
L 596.499424 -130.534597 
L 597.102262 -130.534597 
L 597.7051 -130.534597 
L 598.307938 -130.534597 
L 598.910776 -130.534597 
L 599.513614 -130.534597 
L 600.116452 -130.534597 
L 600.71929 -130.534597 
L 601.322128 -130.534597 
L 601.924966 -130.534597 
L 602.527804 -130.534597 
L 603.130642 -130.534597 
L 603.73348 -130.534597 
L 604.336319 -130.534597 
L 604.939157 -130.534597 
L 605.541995 -130.534597 
L 606.144833 -130.534597 
L 606.747671 -130.534597 
L 607.350509 -130.534597 
L 607.953347 -130.534597 
L 608.556185 -130.534597 
L 609.159023 -130.534597 
L 609.761861 -130.534597 
L 610.364699 -130.534597 
L 610.967537 -130.534597 
L 611.570375 -130.534597 
L 612.173213 -130.534597 
L 612.776051 -130.534597 
L 613.37889 -130.534597 
L 613.981728 -130.534597 
L 614.584566 -130.534597 
L 615.187404 -130.534597 
L 615.790242 -130.534597 
L 616.39308 -130.534597 
L 616.995918 -130.534597 
L 617.598756 -130.534597 
L 618.201594 -130.534597 
L 618.804432 -130.534597 
L 619.40727 -130.534597 
L 620.010108 -130.534597 
L 620.612946 -130.534597 
L 621.215784 -130.534597 
L 621.818622 -130.534597 
L 622.42146 -130.534597 
L 623.024299 -130.534597 
L 623.627137 -130.534597 
L 624.229975 -130.534597 
L 624.832813 -130.534597 
L 625.435651 -130.534597 
L 626.038489 -130.534597 
L 626.641327 -130.534597 
L 627.244165 -130.534597 
L 627.847003 -130.534597 
L 628.449841 -130.534597 
L 629.052679 -130.534597 
L 629.655517 -130.534597 
L 630.258355 -130.534597 
L 630.861193 -130.534597 
L 631.464031 -130.534597 
L 632.06687 -130.534597 
L 632.669708 -130.534597 
L 633.272546 -130.534597 
L 633.875384 -130.534597 
L 634.478222 -130.534597 
L 635.08106 -130.534597 
L 635.683898 -130.534597 
L 636.286736 -130.534597 
L 636.889574 -130.534597 
L 637.492412 -130.534597 
L 638.09525 -130.534597 
L 638.698088 -130.534597 
L 639.300926 -130.534597 
L 639.903764 -130.534597 
L 640.506602 -130.534597 
L 641.109441 -130.534597 
L 641.712279 -130.534597 
L 642.315117 -130.534597 
L 642.917955 -130.534597 
L 643.520793 -130.534597 
L 644.123631 -130.534597 
L 644.726469 -130.534597 
L 645.329307 -130.534597 
L 645.932145 -130.534597 
L 646.534983 -130.534597 
L 647.137821 -130.534597 
L 647.740659 -130.534597 
L 648.343497 -130.534597 
L 648.946335 -130.534597 
L 649.549173 -130.534597 
L 650.152012 -130.534597 
L 650.75485 -130.534597 
L 651.357688 -130.534597 
L 651.960526 -130.534597 
L 652.563364 -130.534597 
L 653.166202 -130.534597 
L 653.76904 -130.534597 
L 654.371878 -130.534597 
L 654.974716 -130.534597 
L 655.577554 -130.534597 
L 656.180392 -130.534597 
L 656.78323 -130.534597 
L 657.386068 -130.534597 
L 657.988906 -130.534597 
L 658.591744 -130.534597 
L 659.194582 -130.534597 
L 659.797421 -130.534597 
L 660.400259 -130.534597 
L 661.003097 -130.534597 
L 661.605935 -130.534597 
L 662.208773 -130.534597 
L 662.811611 -130.534597 
L 663.414449 -130.534597 
L 664.017287 -130.534597 
L 664.620125 -130.534597 
L 665.222963 -130.534597 
L 665.825801 -130.534597 
L 666.428639 -130.534597 
L 667.031477 -130.534597 
L 667.634315 -130.534597 
L 668.237153 -130.534597 
L 668.839992 -130.534597 
L 669.44283 -130.534597 
L 670.045668 -130.534597 
L 670.648506 -130.534597 
L 671.251344 -130.534597 
L 671.854182 -130.534597 
L 672.45702 -130.534597 
L 673.059858 -130.534597 
L 673.662696 -130.534597 
L 674.265534 -130.534597 
L 674.868372 -130.534597 
L 675.47121 -130.534597 
L 676.074048 -130.534597 
L 676.676886 -130.534597 
L 677.279724 -130.534597 
L 677.882563 -130.534597 
L 678.485401 -130.534597 
L 679.088239 -130.534597 
L 679.088239 -389.987273 
L 679.088239 -389.987273 
L 678.485401 -389.987273 
L 677.882563 -389.987273 
L 677.279724 -389.987273 
L 676.676886 -389.987273 
L 676.074048 -389.987273 
L 675.47121 -389.987273 
L 674.868372 -389.987273 
L 674.265534 -389.987273 
L 673.662696 -389.987273 
L 673.059858 -389.987273 
L 672.45702 -389.987273 
L 671.854182 -389.987273 
L 671.251344 -389.987273 
L 670.648506 -389.987273 
L 670.045668 -389.987273 
L 669.44283 -389.987273 
L 668.839992 -389.987273 
L 668.237153 -389.987273 
L 667.634315 -389.987273 
L 667.031477 -389.987273 
L 666.428639 -389.987273 
L 665.825801 -389.987273 
L 665.222963 -389.987273 
L 664.620125 -389.987273 
L 664.017287 -389.987273 
L 663.414449 -389.987273 
L 662.811611 -389.987273 
L 662.208773 -389.987273 
L 661.605935 -389.987273 
L 661.003097 -389.987273 
L 660.400259 -389.987273 
L 659.797421 -389.987273 
L 659.194582 -389.987273 
L 658.591744 -389.987273 
L 657.988906 -389.987273 
L 657.386068 -389.987273 
L 656.78323 -389.987273 
L 656.180392 -389.987273 
L 655.577554 -389.987273 
L 654.974716 -389.987273 
L 654.371878 -389.987273 
L 653.76904 -389.987273 
L 653.166202 -389.987273 
L 652.563364 -389.987273 
L 651.960526 -389.987273 
L 651.357688 -389.987273 
L 650.75485 -389.987273 
L 650.152012 -389.987273 
L 649.549173 -389.987273 
L 648.946335 -389.987273 
L 648.343497 -389.987273 
L 647.740659 -389.987273 
L 647.137821 -389.987273 
L 646.534983 -389.987273 
L 645.932145 -389.987273 
L 645.329307 -389.987273 
L 644.726469 -389.987273 
L 644.123631 -389.987273 
L 643.520793 -389.987273 
L 642.917955 -389.987273 
L 642.315117 -389.987273 
L 641.712279 -389.987273 
L 641.109441 -389.987273 
L 640.506602 -389.987273 
L 639.903764 -389.987273 
L 639.300926 -389.987273 
L 638.698088 -389.987273 
L 638.09525 -389.987273 
L 637.492412 -389.987273 
L 636.889574 -389.987273 
L 636.286736 -389.987273 
L 635.683898 -389.987273 
L 635.08106 -389.987273 
L 634.478222 -389.987273 
L 633.875384 -389.987273 
L 633.272546 -389.987273 
L 632.669708 -389.987273 
L 632.06687 -389.987273 
L 631.464031 -389.987273 
L 630.861193 -389.987273 
L 630.258355 -389.987273 
L 629.655517 -389.987273 
L 629.052679 -389.987273 
L 628.449841 -389.987273 
L 627.847003 -389.987273 
L 627.244165 -389.987273 
L 626.641327 -389.987273 
L 626.038489 -389.987273 
L 625.435651 -389.987273 
L 624.832813 -389.987273 
L 624.229975 -389.987273 
L 623.627137 -389.987273 
L 623.024299 -389.987273 
L 622.42146 -389.987273 
L 621.818622 -389.987273 
L 621.215784 -389.987273 
L 620.612946 -389.987273 
L 620.010108 -389.987273 
L 619.40727 -389.987273 
L 618.804432 -389.987273 
L 618.201594 -389.987273 
L 617.598756 -389.987273 
L 616.995918 -389.987273 
L 616.39308 -389.987273 
L 615.790242 -389.987273 
L 615.187404 -389.987273 
L 614.584566 -389.987273 
L 613.981728 -389.987273 
L 613.37889 -389.987273 
L 612.776051 -389.987273 
L 612.173213 -389.987273 
L 611.570375 -389.987273 
L 610.967537 -389.987273 
L 610.364699 -389.987273 
L 609.761861 -389.987273 
L 609.159023 -389.987273 
L 608.556185 -389.987273 
L 607.953347 -389.987273 
L 607.350509 -389.987273 
L 606.747671 -389.987273 
L 606.144833 -389.987273 
L 605.541995 -389.987273 
L 604.939157 -389.987273 
L 604.336319 -389.987273 
L 603.73348 -389.987273 
L 603.130642 -389.987273 
L 602.527804 -389.987273 
L 601.924966 -389.987273 
L 601.322128 -389.987273 
L 600.71929 -389.987273 
L 600.116452 -389.987273 
L 599.513614 -389.987273 
L 598.910776 -389.987273 
L 598.307938 -389.987273 
L 597.7051 -389.987273 
L 597.102262 -389.987273 
L 596.499424 -389.987273 
L 595.896586 -389.987273 
L 595.293748 -389.987273 
L 594.690909 -389.987273 
L 594.088071 -232.673634 
L 593.485233 -244.659003 
L 592.882395 -244.586625 
L 592.279557 -244.514246 
L 591.676719 -244.441868 
L 591.073881 -244.36949 
L 590.471043 -244.297112 
L 589.868205 -244.224733 
L 589.265367 -244.152355 
L 588.662529 -244.079977 
L 588.059691 -244.007598 
L 587.456853 -243.93522 
L 586.854015 -243.862842 
L 586.251177 -243.790464 
L 585.648339 -243.718085 
L 585.0455 -243.645707 
L 584.442662 -243.573329 
L 583.839824 -243.500951 
L 583.236986 -243.428572 
L 582.634148 -243.356194 
L 582.03131 -243.283816 
L 581.428472 -243.211437 
L 580.825634 -243.139059 
L 580.222796 -243.066681 
L 579.619958 -242.994303 
L 579.01712 -242.921924 
L 578.414282 -242.849546 
L 577.811444 -242.777168 
L 577.208606 -242.704789 
L 576.605768 -242.632411 
L 576.002929 -242.560033 
L 575.400091 -242.487655 
L 574.797253 -242.415276 
L 574.194415 -242.342898 
L 573.591577 -242.27052 
L 572.988739 -242.198141 
L 572.385901 -242.125763 
L 571.783063 -242.053385 
L 571.180225 -241.981007 
L 570.577387 -241.908628 
L 569.974549 -241.83625 
L 569.371711 -241.763872 
L 568.768873 -241.691493 
L 568.166035 -241.619115 
L 567.563197 -241.546737 
L 566.960358 -241.474359 
L 566.35752 -241.40198 
L 565.754682 -241.329602 
L 565.151844 -241.257224 
L 564.549006 -241.184845 
L 563.946168 -241.112467 
L 563.34333 -241.040089 
L 562.740492 -240.967711 
L 562.137654 -240.895332 
L 561.534816 -240.822954 
L 560.931978 -240.750576 
L 560.32914 -240.678197 
L 559.726302 -240.605819 
L 559.123464 -240.533441 
L 558.520626 -240.461063 
L 557.917788 -240.388684 
L 557.314949 -240.316306 
L 556.712111 -240.243928 
L 556.109273 -240.171549 
L 555.506435 -240.099171 
L 554.903597 -240.026793 
L 554.300759 -239.954415 
L 553.697921 -239.882036 
L 553.095083 -239.809658 
L 552.492245 -239.73728 
L 551.889407 -239.664901 
L 551.286569 -239.592523 
L 550.683731 -239.520145 
L 550.080893 -239.447767 
L 549.478055 -239.375388 
L 548.875217 -239.30301 
L 548.272378 -239.230632 
L 547.66954 -239.158253 
L 547.066702 -239.085875 
L 546.463864 -239.013497 
L 545.861026 -238.941119 
L 545.258188 -238.86874 
L 544.65535 -238.796362 
L 544.052512 -238.723984 
L 543.449674 -238.651606 
L 542.846836 -238.579227 
L 542.243998 -238.506849 
L 541.64116 -238.434471 
L 541.038322 -238.362092 
L 540.435484 -238.289714 
L 539.832646 -238.217336 
L 539.229807 -238.144958 
L 538.626969 -238.072579 
L 538.024131 -238.000201 
L 537.421293 -237.927823 
L 536.818455 -237.855444 
L 536.215617 -237.783066 
L 535.612779 -237.710688 
L 535.009941 -237.63831 
L 534.407103 -237.565931 
L 533.804265 -237.493553 
L 533.201427 -237.421175 
L 532.598589 -237.348796 
L 531.995751 -237.276418 
L 531.392913 -237.20404 
L 530.790075 -237.131662 
L 530.187236 -237.059283 
L 529.584398 -236.986905 
L 528.98156 -236.914527 
L 528.378722 -236.842148 
L 527.775884 -236.76977 
L 527.173046 -236.697392 
L 526.570208 -236.625014 
L 525.96737 -236.552635 
L 525.364532 -236.480257 
L 524.761694 -236.407879 
L 524.158856 -236.924213 
L 523.556018 -237.574513 
L 522.95318 -238.224813 
L 522.350342 -238.875113 
L 521.747504 -239.525413 
L 521.144666 -240.175713 
L 520.541827 -240.826013 
L 519.938989 -241.476312 
L 519.336151 -242.126612 
L 518.733313 -242.776912 
L 518.130475 -243.427212 
L 517.527637 -244.077512 
L 516.924799 -244.727812 
L 516.321961 -245.378112 
L 515.719123 -246.028411 
L 515.116285 -246.678711 
L 514.513447 -247.329011 
L 513.910609 -247.979311 
L 513.307771 -248.629611 
L 512.704933 -249.279911 
L 512.102095 -249.93021 
L 511.499256 -250.58051 
L 510.896418 -251.23081 
L 510.29358 -251.88111 
L 509.690742 -252.53141 
L 509.087904 -253.18171 
L 508.485066 -253.83201 
L 507.882228 -254.482309 
L 507.27939 -241.966794 
L 506.676552 -296.463796 
L 506.073714 -295.451646 
L 505.470876 -294.439497 
L 504.868038 -293.427347 
L 504.2652 -292.415197 
L 503.662362 -291.403047 
L 503.059524 -290.390898 
L 502.456685 -289.378748 
L 501.853847 -288.366598 
L 501.251009 -287.354449 
L 500.648171 -286.342299 
L 500.045333 -285.330149 
L 499.442495 -284.317999 
L 498.839657 -283.30585 
L 498.236819 -282.2937 
L 497.633981 -281.28155 
L 497.031143 -280.269401 
L 496.428305 -279.257251 
L 495.825467 -278.245101 
L 495.222629 -277.232952 
L 494.619791 -276.220802 
L 494.016953 -275.208652 
L 493.414115 -274.196502 
L 492.811276 -273.184353 
L 492.208438 -272.172203 
L 491.6056 -271.160053 
L 491.002762 -270.147904 
L 490.399924 -269.135754 
L 489.797086 -268.123604 
L 489.194248 -267.111454 
L 488.59141 -266.099305 
L 487.988572 -265.087155 
L 487.385734 -264.075005 
L 486.782896 -263.062856 
L 486.180058 -262.050706 
L 485.57722 -261.038556 
L 484.974382 -260.160423 
L 484.371544 -259.726644 
L 483.768705 -259.292866 
L 483.165867 -258.859087 
L 482.563029 -258.425309 
L 481.960191 -257.991531 
L 481.357353 -257.557752 
L 480.754515 -257.123974 
L 480.151677 -256.690195 
L 479.548839 -256.256417 
L 478.946001 -255.822638 
L 478.343163 -255.38886 
L 477.740325 -254.955081 
L 477.137487 -254.521303 
L 476.534649 -254.087525 
L 475.931811 -253.653746 
L 475.328973 -253.219968 
L 474.726134 -253.517256 
L 474.123296 -253.878738 
L 473.520458 -254.24022 
L 472.91762 -254.601702 
L 472.314782 -254.963184 
L 471.711944 -255.324666 
L 471.109106 -255.686148 
L 470.506268 -256.04763 
L 469.90343 -256.409112 
L 469.300592 -256.770594 
L 468.697754 -257.132076 
L 468.094916 -257.493559 
L 467.492078 -257.855041 
L 466.88924 -258.216523 
L 466.286402 -258.578005 
L 465.683564 -258.939487 
L 465.080725 -259.300969 
L 464.477887 -259.662451 
L 463.875049 -260.023933 
L 463.272211 -260.385415 
L 462.669373 -260.746897 
L 462.066535 -261.108379 
L 461.463697 -261.469861 
L 460.860859 -261.831343 
L 460.258021 -262.192825 
L 459.655183 -262.554307 
L 459.052345 -262.915789 
L 458.449507 -263.277271 
L 457.846669 -263.638753 
L 457.243831 -264.000235 
L 456.640993 -264.361717 
L 456.038154 -264.723199 
L 455.435316 -265.084681 
L 454.832478 -265.446163 
L 454.22964 -265.807645 
L 453.626802 -266.169127 
L 453.023964 -266.530609 
L 452.421126 -266.892092 
L 451.818288 -267.253574 
L 451.21545 -267.615056 
L 450.612612 -267.976538 
L 450.009774 -268.33802 
L 449.406936 -268.699502 
L 448.804098 -269.060984 
L 448.20126 -269.422466 
L 447.598422 -269.783948 
L 446.995583 -270.14543 
L 446.392745 -270.506912 
L 445.789907 -270.868394 
L 445.187069 -271.229876 
L 444.584231 -271.591358 
L 443.981393 -271.95284 
L 443.378555 -272.314322 
L 442.775717 -272.675804 
L 442.172879 -273.037286 
L 441.570041 -273.398768 
L 440.967203 -273.76025 
L 440.364365 -274.121732 
L 439.761527 -274.483214 
L 439.158689 -274.844696 
L 438.555851 -275.206178 
L 437.953013 -275.56766 
L 437.350174 -275.929142 
L 436.747336 -276.290625 
L 436.144498 -276.652107 
L 435.54166 -277.013589 
L 434.938822 -277.375071 
L 434.335984 -277.736553 
L 433.733146 -278.098035 
L 433.130308 -278.459517 
L 432.52747 -278.820999 
L 431.924632 -279.182481 
L 431.321794 -279.543963 
L 430.718956 -279.905445 
L 430.116118 -280.266927 
L 429.51328 -280.628409 
L 428.910442 -280.989891 
L 428.307603 -281.351373 
L 427.704765 -281.712855 
L 427.101927 -282.074337 
L 426.499089 -282.435819 
L 425.896251 -282.797301 
L 425.293413 -283.158783 
L 424.690575 -283.520265 
L 424.087737 -283.881747 
L 423.484899 -284.243229 
L 422.882061 -284.604711 
L 422.279223 -284.966193 
L 421.676385 -285.327675 
L 421.073547 -285.689158 
L 420.470709 -286.05064 
L 419.867871 -234.149452 
L 419.265032 -285.819275 
L 418.662194 -285.169343 
L 418.059356 -284.51941 
L 417.456518 -283.869478 
L 416.85368 -283.219545 
L 416.250842 -282.569613 
L 415.648004 -281.91968 
L 415.045166 -281.269748 
L 414.442328 -280.619816 
L 413.83949 -279.969883 
L 413.236652 -279.319951 
L 412.633814 -278.670018 
L 412.030976 -278.020086 
L 411.428138 -277.370153 
L 410.8253 -276.720221 
L 410.222461 -276.070288 
L 409.619623 -275.420356 
L 409.016785 -274.770423 
L 408.413947 -274.120491 
L 407.811109 -273.470559 
L 407.208271 -272.820626 
L 406.605433 -272.170694 
L 406.002595 -271.520761 
L 405.399757 -270.870829 
L 404.796919 -270.220896 
L 404.194081 -269.570964 
L 403.591243 -268.921031 
L 402.988405 -268.271099 
L 402.385567 -267.621166 
L 401.782729 -266.971234 
L 401.179891 -266.321302 
L 400.577052 -265.671369 
L 399.974214 -265.021437 
L 399.371376 -264.371504 
L 398.768538 -263.721572 
L 398.1657 -263.071639 
L 397.562862 -262.421707 
L 396.960024 -261.771774 
L 396.357186 -261.121842 
L 395.754348 -260.47191 
L 395.15151 -259.821977 
L 394.548672 -259.172045 
L 393.945834 -258.522112 
L 393.342996 -257.87218 
L 392.740158 -257.222247 
L 392.13732 -256.572315 
L 391.534481 -255.922382 
L 390.931643 -255.27245 
L 390.328805 -254.622517 
L 389.725967 -253.972585 
L 389.123129 -253.322653 
L 388.520291 -252.67272 
L 387.917453 -252.022788 
L 387.314615 -251.372855 
L 386.711777 -250.722923 
L 386.108939 -250.07299 
L 385.506101 -249.423058 
L 384.903263 -248.773125 
L 384.300425 -248.123193 
L 383.697587 -247.47326 
L 383.094749 -246.823328 
L 382.49191 -246.173396 
L 381.889072 -245.523463 
L 381.286234 -244.873531 
L 380.683396 -244.223598 
L 380.080558 -243.573666 
L 379.47772 -242.923733 
L 378.874882 -242.273801 
L 378.272044 -241.623868 
L 377.669206 -240.973936 
L 377.066368 -240.324004 
L 376.46353 -239.674071 
L 375.860692 -239.024139 
L 375.257854 -238.374206 
L 374.655016 -237.724274 
L 374.052178 -237.074341 
L 373.44934 -236.424409 
L 372.846501 -235.774476 
L 372.243663 -235.124544 
L 371.640825 -234.474611 
L 371.037987 -233.824679 
L 370.435149 -233.174747 
L 369.832311 -232.524814 
L 369.229473 -231.874882 
L 368.626635 -231.224949 
L 368.023797 -230.575017 
L 367.420959 -230.149301 
L 366.818121 -230.06009 
L 366.215283 -229.970879 
L 365.612445 -229.881668 
L 365.009607 -229.792457 
L 364.406769 -229.703245 
L 363.80393 -229.614034 
L 363.201092 -229.524823 
L 362.598254 -229.435612 
L 361.995416 -229.346401 
L 361.392578 -229.25719 
L 360.78974 -229.167978 
L 360.186902 -229.078767 
L 359.584064 -228.989556 
L 358.981226 -228.900345 
L 358.378388 -228.811134 
L 357.77555 -228.721923 
L 357.172712 -228.632712 
L 356.569874 -228.5435 
L 355.967036 -228.454289 
L 355.364198 -228.365078 
L 354.761359 -228.275867 
L 354.158521 -228.186656 
L 353.555683 -228.097445 
L 352.952845 -228.008233 
L 352.350007 -227.919022 
L 351.747169 -227.829811 
L 351.144331 -227.7406 
L 350.541493 -227.651389 
L 349.938655 -227.562178 
L 349.335817 -227.472966 
L 348.732979 -227.383755 
L 348.130141 -227.294544 
L 347.527303 -227.205333 
L 346.924465 -227.116122 
L 346.321627 -227.026911 
L 345.718789 -226.937699 
L 345.11595 -226.848488 
L 344.513112 -226.759277 
L 343.910274 -226.670066 
L 343.307436 -226.580855 
L 342.704598 -226.491644 
L 342.10176 -226.402433 
L 341.498922 -226.313221 
L 340.896084 -226.22401 
L 340.293246 -226.134799 
L 339.690408 -226.045588 
L 339.08757 -225.956377 
L 338.484732 -225.867166 
L 337.881894 -225.777954 
L 337.279056 -225.688743 
L 336.676218 -225.599532 
L 336.073379 -225.510321 
L 335.470541 -225.42111 
L 334.867703 -225.331899 
L 334.264865 -225.242687 
L 333.662027 -225.153476 
L 333.059189 -225.064265 
L 332.456351 -265.377598 
L 331.853513 -264.366592 
L 331.250675 -263.355586 
L 330.647837 -262.34458 
L 330.044999 -261.333574 
L 329.442161 -260.322568 
L 328.839323 -259.311562 
L 328.236485 -258.300555 
L 327.633647 -257.289549 
L 327.030808 -256.278543 
L 326.42797 -255.267537 
L 325.825132 -254.256531 
L 325.222294 -253.245525 
L 324.619456 -252.234519 
L 324.016618 -251.223513 
L 323.41378 -250.212507 
L 322.810942 -249.201501 
L 322.208104 -248.190495 
L 321.605266 -247.179489 
L 321.002428 -246.168483 
L 320.39959 -245.157477 
L 319.796752 -244.146471 
L 319.193914 -243.135465 
L 318.591076 -242.124459 
L 317.988237 -241.113453 
L 317.385399 -240.102447 
L 316.782561 -239.091441 
L 316.179723 -238.82887 
L 315.576885 -238.612226 
L 314.974047 -238.395582 
L 314.371209 -238.178938 
L 313.768371 -237.962294 
L 313.165533 -237.745649 
L 312.562695 -237.529005 
L 311.959857 -237.312361 
L 311.357019 -237.095717 
L 310.754181 -236.879073 
L 310.151343 -236.662429 
L 309.548505 -236.445784 
L 308.945667 -236.22914 
L 308.342828 -236.012496 
L 307.73999 -235.795852 
L 307.137152 -235.579208 
L 306.534314 -235.362564 
L 305.931476 -235.14592 
L 305.328638 -234.929275 
L 304.7258 -234.712631 
L 304.122962 -234.495987 
L 303.520124 -234.279343 
L 302.917286 -234.062699 
L 302.314448 -233.846055 
L 301.71161 -233.629411 
L 301.108772 -233.412766 
L 300.505934 -233.196122 
L 299.903096 -232.979478 
L 299.300257 -232.762834 
L 298.697419 -232.54619 
L 298.094581 -232.329546 
L 297.491743 -232.112901 
L 296.888905 -231.896257 
L 296.286067 -231.679613 
L 295.683229 -231.462969 
L 295.080391 -231.246325 
L 294.477553 -231.029681 
L 293.874715 -230.813037 
L 293.271877 -230.596392 
L 292.669039 -230.379748 
L 292.066201 -230.163104 
L 291.463363 -229.94646 
L 290.860525 -229.729816 
L 290.257686 -229.513172 
L 289.654848 -229.296528 
L 289.05201 -229.079883 
L 288.449172 -228.863239 
L 287.846334 -228.646595 
L 287.243496 -228.429951 
L 286.640658 -228.213307 
L 286.03782 -227.996663 
L 285.434982 -227.780018 
L 284.832144 -227.563374 
L 284.229306 -227.34673 
L 283.626468 -227.130086 
L 283.02363 -226.913442 
L 282.420792 -226.696798 
L 281.817954 -226.480154 
L 281.215116 -226.263509 
L 280.612277 -226.046865 
L 280.009439 -225.830221 
L 279.406601 -225.613577 
L 278.803763 -225.396933 
L 278.200925 -225.180289 
L 277.598087 -224.963644 
L 276.995249 -224.747 
L 276.392411 -224.530356 
L 275.789573 -224.313712 
L 275.186735 -224.097068 
L 274.583897 -223.880424 
L 273.981059 -223.66378 
L 273.378221 -223.447135 
L 272.775383 -223.230491 
L 272.172545 -223.013847 
L 271.569706 -222.797203 
L 270.966868 -222.580559 
L 270.36403 -222.363915 
L 269.761192 -222.147271 
L 269.158354 -221.930626 
L 268.555516 -221.713982 
L 267.952678 -221.497338 
L 267.34984 -221.280694 
L 266.747002 -221.06405 
L 266.144164 -220.847406 
L 265.541326 -220.630761 
L 264.938488 -220.414117 
L 264.33565 -220.197473 
L 263.732812 -219.980829 
L 263.129974 -219.764185 
L 262.527135 -219.547541 
L 261.924297 -219.330897 
L 261.321459 -219.114252 
L 260.718621 -218.897608 
L 260.115783 -218.680964 
L 259.512945 -218.46432 
L 258.910107 -218.247676 
L 258.307269 -218.031032 
L 257.704431 -217.814388 
L 257.101593 -217.597743 
L 256.498755 -217.381099 
L 255.895917 -217.530436 
L 255.293079 -216.947811 
L 254.690241 -216.731167 
L 254.087403 -216.514523 
L 253.484565 -216.297878 
L 252.881726 -216.081234 
L 252.278888 -217.663368 
L 251.67605 -215.712586 
L 251.073212 -215.431302 
L 250.470374 -215.214658 
L 249.867536 -214.998014 
L 249.264698 -220.829041 
L 248.66186 -214.564725 
L 248.059022 -214.348081 
L 247.456184 -214.131437 
L 246.853346 -213.914793 
L 246.250508 -213.698149 
L 245.64767 -333.203756 
L 245.044832 -223.858477 
L 244.441994 -223.714129 
L 243.839155 -223.569781 
L 243.236317 -223.425433 
L 242.633479 -223.281085 
L 242.030641 -223.136737 
L 241.427803 -222.992389 
L 240.824965 -222.848041 
L 240.222127 -222.703693 
L 239.619289 -222.559346 
L 239.016451 -222.414998 
L 238.413613 -222.27065 
L 237.810775 -222.126302 
L 237.207937 -221.981954 
L 236.605099 -221.837606 
L 236.002261 -221.693258 
L 235.399423 -221.54891 
L 234.796584 -221.404563 
L 234.193746 -221.260215 
L 233.590908 -221.115867 
L 232.98807 -220.971519 
L 232.385232 -220.827171 
L 231.782394 -220.682823 
L 231.179556 -220.538475 
L 230.576718 -220.394127 
L 229.97388 -220.249779 
L 229.371042 -220.105432 
L 228.768204 -219.961084 
L 228.165366 -219.816736 
L 227.562528 -219.672388 
L 226.95969 -219.52804 
L 226.356852 -219.383692 
L 225.754014 -219.239344 
L 225.151175 -219.094996 
L 224.548337 -218.950649 
L 223.945499 -218.806301 
L 223.342661 -218.661953 
L 222.739823 -218.517605 
L 222.136985 -218.373257 
L 221.534147 -218.228909 
L 220.931309 -218.084561 
L 220.328471 -217.940213 
L 219.725633 -217.795865 
L 219.122795 -217.651518 
L 218.519957 -217.50717 
L 217.917119 -217.362822 
L 217.314281 -217.218474 
L 216.711443 -217.074126 
L 216.108604 -216.929778 
L 215.505766 -216.78543 
L 214.902928 -216.641082 
L 214.30009 -216.496735 
L 213.697252 -216.352387 
L 213.094414 -216.208039 
L 212.491576 -216.063691 
L 211.888738 -215.919343 
L 211.2859 -215.774995 
L 210.683062 -215.630647 
L 210.080224 -215.486299 
L 209.477386 -215.341952 
L 208.874548 -215.197604 
L 208.27171 -215.053256 
L 207.668872 -214.908908 
L 207.066033 -214.76456 
L 206.463195 -214.620212 
L 205.860357 -214.475864 
L 205.257519 -214.331516 
L 204.654681 -214.187168 
L 204.051843 -214.042821 
L 203.449005 -213.898473 
L 202.846167 -213.754125 
L 202.243329 -213.609777 
L 201.640491 -213.465429 
L 201.037653 -213.321081 
L 200.434815 -213.176733 
L 199.831977 -213.032385 
L 199.229139 -212.888038 
L 198.626301 -212.74369 
L 198.023462 -212.599342 
L 197.420624 -212.454994 
L 196.817786 -212.310646 
L 196.214948 -212.166298 
L 195.61211 -212.040435 
L 195.009272 -211.877602 
L 194.406434 -211.733254 
L 193.803596 -211.588907 
L 193.200758 -211.444559 
L 192.59792 -211.300211 
L 191.995082 -211.155863 
L 191.392244 -217.586904 
L 190.789406 -214.597761 
L 190.186568 -211.483651 
L 189.58373 -210.578471 
L 188.980892 -210.434124 
L 188.378053 -211.699355 
L 187.775215 -214.515463 
L 187.172377 -210.00108 
L 186.569539 -209.856732 
L 185.966701 -209.712384 
L 185.363863 -209.888873 
L 184.761025 -209.423688 
L 184.158187 -209.279341 
L 183.555349 -209.134993 
L 182.952511 -208.990645 
L 182.349673 -208.846297 
L 181.746835 -208.701949 
L 181.143997 -208.833717 
L 180.541159 -209.187792 
L 179.938321 -209.541866 
L 179.335482 -209.89594 
L 178.732644 -210.250015 
L 178.129806 -210.931156 
L 177.526968 -210.128931 
L 176.92413 -207.738618 
L 176.321292 -208.251401 
L 175.718454 -209.234941 
L 175.115616 -210.218481 
L 174.512778 -210.073285 
L 173.90994 -209.874367 
L 173.307102 -210.261628 
L 172.704264 -210.212992 
L 172.101426 -210.243659 
L 171.498588 -210.159987 
L 170.89575 -210.733129 
L 170.292911 -210.904797 
L 169.690073 -210.881251 
L 169.087235 -214.93849 
L 168.484397 -215.334831 
L 167.881559 -215.731172 
L 167.278721 -216.127514 
L 166.675883 -211.422298 
L 166.073045 -209.95152 
L 165.470207 -209.815338 
L 164.867369 -209.679155 
L 164.264531 -209.543501 
L 163.661693 -209.455859 
L 163.058855 -209.368217 
L 162.456017 -209.280575 
L 161.853179 -209.192933 
L 161.250341 -209.269832 
L 160.647502 -209.491128 
L 160.044664 -209.625405 
L 159.441826 -215.657471 
L 158.838988 -214.130382 
L 158.23615 -244.693775 
L 157.633312 -244.693775 
L 157.030474 -244.693775 
L 156.427636 -244.693775 
L 155.824798 -244.693775 
L 155.22196 -244.693775 
L 154.619122 -244.693775 
L 154.016284 -244.693775 
L 153.413446 -244.693775 
L 152.810608 -244.693775 
L 152.20777 -244.693775 
L 151.604931 -244.693775 
L 151.002093 -244.693775 
L 150.399255 -244.693775 
L 149.796417 -244.693775 
L 149.193579 -244.693775 
L 148.590741 -244.693775 
L 147.987903 -244.693775 
L 147.385065 -244.693775 
L 146.782227 -244.693775 
L 146.179389 -244.693775 
L 145.576551 -244.693775 
L 144.973713 -244.693775 
L 144.370875 -244.693775 
L 143.768037 -244.693775 
L 143.165199 -244.693775 
L 142.56236 -244.693775 
L 141.959522 -244.693775 
L 141.356684 -244.693775 
L 140.753846 -244.693775 
L 140.151008 -244.693775 
L 139.54817 -244.693775 
L 138.945332 -244.693775 
L 138.342494 -244.693775 
L 137.739656 -244.693775 
L 137.136818 -244.693775 
L 136.53398 -244.693775 
L 135.931142 -244.693775 
L 135.328304 -244.693775 
L 134.725466 -244.693775 
L 134.122628 -244.693775 
L 133.51979 -244.693775 
L 132.916951 -244.693775 
L 132.314113 -244.693775 
L 131.711275 -244.693775 
L 131.108437 -244.693775 
L 130.505599 -244.693775 
L 129.902761 -244.693775 
L 129.299923 -244.693775 
L 128.697085 -244.693775 
L 128.094247 -244.693775 
L 127.491409 -244.693775 
L 126.888571 -244.693775 
L 126.285733 -244.693775 
L 125.682895 -244.693775 
L 125.080057 -244.693775 
L 124.477219 -244.693775 
L 123.87438 -244.693775 
L 123.271542 -244.693775 
L 122.668704 -244.693775 
L 122.065866 -244.693775 
L 121.463028 -244.693775 
L 120.86019 -244.693775 
L 120.257352 -244.693775 
L 119.654514 -244.693775 
L 119.051676 -244.693775 
L 118.448838 -244.693775 
L 117.846 -244.693775 
L 117.243162 -244.693775 
L 116.640324 -244.693775 
L 116.037486 -244.693775 
L 115.434648 -244.693775 
L 114.831809 -244.693775 
L 114.228971 -244.693775 
L 113.626133 -244.693775 
L 113.023295 -244.693775 
L 112.420457 -244.693775 
L 111.817619 -244.693775 
L 111.214781 -244.693775 
L 110.611943 -244.693775 
L 110.009105 -244.693775 
L 109.406267 -244.693775 
L 108.803429 -244.693775 
L 108.200591 -244.693775 
L 107.597753 -244.693775 
L 106.994915 -244.693775 
L 106.392077 -244.693775 
L 105.789238 -244.693775 
L 105.1864 -244.693775 
L 104.583562 -244.693775 
L 103.980724 -244.693775 
L 103.377886 -244.693775 
L 102.775048 -244.693775 
L 102.17221 -244.693775 
L 101.569372 -244.693775 
L 100.966534 -244.693775 
L 100.363696 -244.693775 
L 99.760858 -244.693775 
L 99.15802 -244.693775 
L 98.555182 -244.693775 
L 97.952344 -244.693775 
L 97.349506 -244.693775 
L 96.746668 -244.693775 
L 96.143829 -244.693775 
L 95.540991 -244.693775 
L 94.938153 -244.693775 
L 94.335315 -244.693775 
L 93.732477 -244.693775 
L 93.129639 -244.693775 
L 92.526801 -244.693775 
L 91.923963 -244.693775 
L 91.321125 -244.693775 
L 90.718287 -244.693775 
L 90.115449 -244.693775 
L 89.512611 -244.693775 
L 88.909773 -244.693775 
L 88.306935 -244.693775 
L 87.704097 -244.693775 
L 87.101258 -244.693775 
L 86.49842 -244.693775 
L 85.895582 -244.693775 
L 85.292744 -244.693775 
L 84.689906 -244.693775 
L 84.087068 -244.693775 
L 83.48423 -244.693775 
L 82.881392 -244.693775 
L 82.278554 -244.693775 
L 81.675716 -244.693775 
L 81.072878 -244.693775 
L 80.47004 -244.693775 
L 79.867202 -244.693775 
L 79.264364 -244.693775 
L 78.661526 -244.693775 
L 78.058687 -244.693775 
L 77.455849 -244.693775 
L 76.853011 -244.693775 
z
" style="stroke: #00008b; stroke-opacity: 0.3"/>
    </defs>
    <g clip-path="url(#p23bb759825)">
     <use xlink:href="#m33808b0d05" x="0" y="432" style="fill: #00008b; fill-opacity: 0.3; stroke: #00008b; stroke-opacity: 0.3"/>
    </g>
   </g>
   <g id="matplotlib.axis_1">
    <g id="xtick_1">
     <g id="line2d_1">
      <defs>
       <path id="md548d848d5" d="M 0 0 
L 0 3.5 
" style="stroke: #000000; stroke-width: 0.8"/>
      </defs>
      <g>
       <use xlink:href="#md548d848d5" x="71.419972" y="390.04" style="stroke: #000000; stroke-width: 0.8"/>
      </g>
     </g>
     <g id="text_1">
      <!-- 0 -->
      <g transform="translate(68.238722 404.638438) scale(0.1 -0.1)">
       <defs>
        <path id="DejaVuSans-30" d="M 2034 4250 
Q 1547 4250 1301 3770 
Q 1056 3291 1056 2328 
Q 1056 1369 1301 889 
Q 1547 409 2034 409 
Q 2525 409 2770 889 
Q 3016 1369 3016 2328 
Q 3016 3291 2770 3770 
Q 2525 4250 2034 4250 
z
M 2034 4750 
Q 2819 4750 3233 4129 
Q 3647 3509 3647 2328 
Q 3647 1150 3233 529 
Q 2819 -91 2034 -91 
Q 1250 -91 836 529 
Q 422 1150 422 2328 
Q 422 3509 836 4129 
Q 1250 4750 2034 4750 
z
" transform="scale(0.015625)"/>
       </defs>
       <use xlink:href="#DejaVuSans-30"/>
      </g>
     </g>
    </g>
    <g id="xtick_2">
     <g id="line2d_2">
      <g>
       <use xlink:href="#md548d848d5" x="193.785713" y="390.04" style="stroke: #000000; stroke-width: 0.8"/>
      </g>
     </g>
     <g id="text_2">
      <!-- 20000 -->
      <g transform="translate(177.879463 404.638438) scale(0.1 -0.1)">
       <defs>
        <path id="DejaVuSans-32" d="M 1228 531 
L 3431 531 
L 3431 0 
L 469 0 
L 469 531 
Q 828 903 1448 1529 
Q 2069 2156 2228 2338 
Q 2531 2678 2651 2914 
Q 2772 3150 2772 3378 
Q 2772 3750 2511 3984 
Q 2250 4219 1831 4219 
Q 1534 4219 1204 4116 
Q 875 4013 500 3803 
L 500 4441 
Q 881 4594 1212 4672 
Q 1544 4750 1819 4750 
Q 2544 4750 2975 4387 
Q 3406 4025 3406 3419 
Q 3406 3131 3298 2873 
Q 3191 2616 2906 2266 
Q 2828 2175 2409 1742 
Q 1991 1309 1228 531 
z
" transform="scale(0.015625)"/>
       </defs>
       <use xlink:href="#DejaVuSans-32"/>
       <use xlink:href="#DejaVuSans-30" transform="translate(63.623047 0)"/>
       <use xlink:href="#DejaVuSans-30" transform="translate(127.246094 0)"/>
       <use xlink:href="#DejaVuSans-30" transform="translate(190.869141 0)"/>
       <use xlink:href="#DejaVuSans-30" transform="translate(254.492188 0)"/>
      </g>
     </g>
    </g>
    <g id="xtick_3">
     <g id="line2d_3">
      <g>
       <use xlink:href="#md548d848d5" x="316.151453" y="390.04" style="stroke: #000000; stroke-width: 0.8"/>
      </g>
     </g>
     <g id="text_3">
      <!-- 40000 -->
      <g transform="translate(300.245203 404.638438) scale(0.1 -0.1)">
       <defs>
        <path id="DejaVuSans-34" d="M 2419 4116 
L 825 1625 
L 2419 1625 
L 2419 4116 
z
M 2253 4666 
L 3047 4666 
L 3047 1625 
L 3713 1625 
L 3713 1100 
L 3047 1100 
L 3047 0 
L 2419 0 
L 2419 1100 
L 313 1100 
L 313 1709 
L 2253 4666 
z
" transform="scale(0.015625)"/>
       </defs>
       <use xlink:href="#DejaVuSans-34"/>
       <use xlink:href="#DejaVuSans-30" transform="translate(63.623047 0)"/>
       <use xlink:href="#DejaVuSans-30" transform="translate(127.246094 0)"/>
       <use xlink:href="#DejaVuSans-30" transform="translate(190.869141 0)"/>
       <use xlink:href="#DejaVuSans-30" transform="translate(254.492188 0)"/>
      </g>
     </g>
    </g>
    <g id="xtick_4">
     <g id="line2d_4">
      <g>
       <use xlink:href="#md548d848d5" x="438.517193" y="390.04" style="stroke: #000000; stroke-width: 0.8"/>
      </g>
     </g>
     <g id="text_4">
      <!-- 60000 -->
      <g transform="translate(422.610943 404.638438) scale(0.1 -0.1)">
       <defs>
        <path id="DejaVuSans-36" d="M 2113 2584 
Q 1688 2584 1439 2293 
Q 1191 2003 1191 1497 
Q 1191 994 1439 701 
Q 1688 409 2113 409 
Q 2538 409 2786 701 
Q 3034 994 3034 1497 
Q 3034 2003 2786 2293 
Q 2538 2584 2113 2584 
z
M 3366 4563 
L 3366 3988 
Q 3128 4100 2886 4159 
Q 2644 4219 2406 4219 
Q 1781 4219 1451 3797 
Q 1122 3375 1075 2522 
Q 1259 2794 1537 2939 
Q 1816 3084 2150 3084 
Q 2853 3084 3261 2657 
Q 3669 2231 3669 1497 
Q 3669 778 3244 343 
Q 2819 -91 2113 -91 
Q 1303 -91 875 529 
Q 447 1150 447 2328 
Q 447 3434 972 4092 
Q 1497 4750 2381 4750 
Q 2619 4750 2861 4703 
Q 3103 4656 3366 4563 
z
" transform="scale(0.015625)"/>
       </defs>
       <use xlink:href="#DejaVuSans-36"/>
       <use xlink:href="#DejaVuSans-30" transform="translate(63.623047 0)"/>
       <use xlink:href="#DejaVuSans-30" transform="translate(127.246094 0)"/>
       <use xlink:href="#DejaVuSans-30" transform="translate(190.869141 0)"/>
       <use xlink:href="#DejaVuSans-30" transform="translate(254.492188 0)"/>
      </g>
     </g>
    </g>
    <g id="xtick_5">
     <g id="line2d_5">
      <g>
       <use xlink:href="#md548d848d5" x="560.882934" y="390.04" style="stroke: #000000; stroke-width: 0.8"/>
      </g>
     </g>
     <g id="text_5">
      <!-- 80000 -->
      <g transform="translate(544.976684 404.638438) scale(0.1 -0.1)">
       <defs>
        <path id="DejaVuSans-38" d="M 2034 2216 
Q 1584 2216 1326 1975 
Q 1069 1734 1069 1313 
Q 1069 891 1326 650 
Q 1584 409 2034 409 
Q 2484 409 2743 651 
Q 3003 894 3003 1313 
Q 3003 1734 2745 1975 
Q 2488 2216 2034 2216 
z
M 1403 2484 
Q 997 2584 770 2862 
Q 544 3141 544 3541 
Q 544 4100 942 4425 
Q 1341 4750 2034 4750 
Q 2731 4750 3128 4425 
Q 3525 4100 3525 3541 
Q 3525 3141 3298 2862 
Q 3072 2584 2669 2484 
Q 3125 2378 3379 2068 
Q 3634 1759 3634 1313 
Q 3634 634 3220 271 
Q 2806 -91 2034 -91 
Q 1263 -91 848 271 
Q 434 634 434 1313 
Q 434 1759 690 2068 
Q 947 2378 1403 2484 
z
M 1172 3481 
Q 1172 3119 1398 2916 
Q 1625 2713 2034 2713 
Q 2441 2713 2670 2916 
Q 2900 3119 2900 3481 
Q 2900 3844 2670 4047 
Q 2441 4250 2034 4250 
Q 1625 4250 1398 4047 
Q 1172 3844 1172 3481 
z
" transform="scale(0.015625)"/>
       </defs>
       <use xlink:href="#DejaVuSans-38"/>
       <use xlink:href="#DejaVuSans-30" transform="translate(63.623047 0)"/>
       <use xlink:href="#DejaVuSans-30" transform="translate(127.246094 0)"/>
       <use xlink:href="#DejaVuSans-30" transform="translate(190.869141 0)"/>
       <use xlink:href="#DejaVuSans-30" transform="translate(254.492188 0)"/>
      </g>
     </g>
    </g>
    <g id="xtick_6">
     <g id="line2d_6">
      <g>
       <use xlink:href="#md548d848d5" x="683.248674" y="390.04" style="stroke: #000000; stroke-width: 0.8"/>
      </g>
     </g>
     <g id="text_6">
      <!-- 100000 -->
      <g transform="translate(664.161174 404.638438) scale(0.1 -0.1)">
       <defs>
        <path id="DejaVuSans-31" d="M 794 531 
L 1825 531 
L 1825 4091 
L 703 3866 
L 703 4441 
L 1819 4666 
L 2450 4666 
L 2450 531 
L 3481 531 
L 3481 0 
L 794 0 
L 794 531 
z
" transform="scale(0.015625)"/>
       </defs>
       <use xlink:href="#DejaVuSans-31"/>
       <use xlink:href="#DejaVuSans-30" transform="translate(63.623047 0)"/>
       <use xlink:href="#DejaVuSans-30" transform="translate(127.246094 0)"/>
       <use xlink:href="#DejaVuSans-30" transform="translate(190.869141 0)"/>
       <use xlink:href="#DejaVuSans-30" transform="translate(254.492188 0)"/>
       <use xlink:href="#DejaVuSans-30" transform="translate(318.115234 0)"/>
      </g>
     </g>
    </g>
    <g id="text_7">
     <!-- Step -->
     <g transform="translate(366.585469 418.316562) scale(0.1 -0.1)">
      <defs>
       <path id="DejaVuSans-53" d="M 3425 4513 
L 3425 3897 
Q 3066 4069 2747 4153 
Q 2428 4238 2131 4238 
Q 1616 4238 1336 4038 
Q 1056 3838 1056 3469 
Q 1056 3159 1242 3001 
Q 1428 2844 1947 2747 
L 2328 2669 
Q 3034 2534 3370 2195 
Q 3706 1856 3706 1288 
Q 3706 609 3251 259 
Q 2797 -91 1919 -91 
Q 1588 -91 1214 -16 
Q 841 59 441 206 
L 441 856 
Q 825 641 1194 531 
Q 1563 422 1919 422 
Q 2459 422 2753 634 
Q 3047 847 3047 1241 
Q 3047 1584 2836 1778 
Q 2625 1972 2144 2069 
L 1759 2144 
Q 1053 2284 737 2584 
Q 422 2884 422 3419 
Q 422 4038 858 4394 
Q 1294 4750 2059 4750 
Q 2388 4750 2728 4690 
Q 3069 4631 3425 4513 
z
" transform="scale(0.015625)"/>
       <path id="DejaVuSans-74" d="M 1172 4494 
L 1172 3500 
L 2356 3500 
L 2356 3053 
L 1172 3053 
L 1172 1153 
Q 1172 725 1289 603 
Q 1406 481 1766 481 
L 2356 481 
L 2356 0 
L 1766 0 
Q 1100 0 847 248 
Q 594 497 594 1153 
L 594 3053 
L 172 3053 
L 172 3500 
L 594 3500 
L 594 4494 
L 1172 4494 
z
" transform="scale(0.015625)"/>
       <path id="DejaVuSans-65" d="M 3597 1894 
L 3597 1613 
L 953 1613 
Q 991 1019 1311 708 
Q 1631 397 2203 397 
Q 2534 397 2845 478 
Q 3156 559 3463 722 
L 3463 178 
Q 3153 47 2828 -22 
Q 2503 -91 2169 -91 
Q 1331 -91 842 396 
Q 353 884 353 1716 
Q 353 2575 817 3079 
Q 1281 3584 2069 3584 
Q 2775 3584 3186 3129 
Q 3597 2675 3597 1894 
z
M 3022 2063 
Q 3016 2534 2758 2815 
Q 2500 3097 2075 3097 
Q 1594 3097 1305 2825 
Q 1016 2553 972 2059 
L 3022 2063 
z
" transform="scale(0.015625)"/>
       <path id="DejaVuSans-70" d="M 1159 525 
L 1159 -1331 
L 581 -1331 
L 581 3500 
L 1159 3500 
L 1159 2969 
Q 1341 3281 1617 3432 
Q 1894 3584 2278 3584 
Q 2916 3584 3314 3078 
Q 3713 2572 3713 1747 
Q 3713 922 3314 415 
Q 2916 -91 2278 -91 
Q 1894 -91 1617 61 
Q 1341 213 1159 525 
z
M 3116 1747 
Q 3116 2381 2855 2742 
Q 2594 3103 2138 3103 
Q 1681 3103 1420 2742 
Q 1159 2381 1159 1747 
Q 1159 1113 1420 752 
Q 1681 391 2138 391 
Q 2594 391 2855 752 
Q 3116 1113 3116 1747 
z
" transform="scale(0.015625)"/>
      </defs>
      <use xlink:href="#DejaVuSans-53"/>
      <use xlink:href="#DejaVuSans-74" transform="translate(63.476562 0)"/>
      <use xlink:href="#DejaVuSans-65" transform="translate(102.685547 0)"/>
      <use xlink:href="#DejaVuSans-70" transform="translate(164.208984 0)"/>
     </g>
    </g>
   </g>
   <g id="matplotlib.axis_2">
    <g id="ytick_1">
     <g id="line2d_7">
      <defs>
       <path id="mdf711de2a2" d="M 0 0 
L -3.5 0 
" style="stroke: #000000; stroke-width: 0.8"/>
      </defs>
      <g>
       <use xlink:href="#mdf711de2a2" x="46.74125" y="358.544991" style="stroke: #000000; stroke-width: 0.8"/>
      </g>
     </g>
     <g id="text_8">
      <!-- 3 -->
      <g transform="translate(24.999063 362.34421) scale(0.1 -0.1)">
       <defs>
        <path id="DejaVuSans-2212" d="M 678 2272 
L 4684 2272 
L 4684 1741 
L 678 1741 
L 678 2272 
z
" transform="scale(0.015625)"/>
        <path id="DejaVuSans-33" d="M 2597 2516 
Q 3050 2419 3304 2112 
Q 3559 1806 3559 1356 
Q 3559 666 3084 287 
Q 2609 -91 1734 -91 
Q 1441 -91 1130 -33 
Q 819 25 488 141 
L 488 750 
Q 750 597 1062 519 
Q 1375 441 1716 441 
Q 2309 441 2620 675 
Q 2931 909 2931 1356 
Q 2931 1769 2642 2001 
Q 2353 2234 1838 2234 
L 1294 2234 
L 1294 2753 
L 1863 2753 
Q 2328 2753 2575 2939 
Q 2822 3125 2822 3475 
Q 2822 3834 2567 4026 
Q 2313 4219 1838 4219 
Q 1578 4219 1281 4162 
Q 984 4106 628 3988 
L 628 4550 
Q 988 4650 1302 4700 
Q 1616 4750 1894 4750 
Q 2613 4750 3031 4423 
Q 3450 4097 3450 3541 
Q 3450 3153 3228 2886 
Q 3006 2619 2597 2516 
z
" transform="scale(0.015625)"/>
       </defs>
       <use xlink:href="#DejaVuSans-2212"/>
       <use xlink:href="#DejaVuSans-33" transform="translate(83.789062 0)"/>
      </g>
     </g>
    </g>
    <g id="ytick_2">
     <g id="line2d_8">
      <g>
       <use xlink:href="#mdf711de2a2" x="46.74125" y="314.956942" style="stroke: #000000; stroke-width: 0.8"/>
      </g>
     </g>
     <g id="text_9">
      <!-- 2 -->
      <g transform="translate(24.999063 318.756161) scale(0.1 -0.1)">
       <use xlink:href="#DejaVuSans-2212"/>
       <use xlink:href="#DejaVuSans-32" transform="translate(83.789062 0)"/>
      </g>
     </g>
    </g>
    <g id="ytick_3">
     <g id="line2d_9">
      <g>
       <use xlink:href="#mdf711de2a2" x="46.74125" y="271.368892" style="stroke: #000000; stroke-width: 0.8"/>
      </g>
     </g>
     <g id="text_10">
      <!-- 1 -->
      <g transform="translate(24.999063 275.168111) scale(0.1 -0.1)">
       <use xlink:href="#DejaVuSans-2212"/>
       <use xlink:href="#DejaVuSans-31" transform="translate(83.789062 0)"/>
      </g>
     </g>
    </g>
    <g id="ytick_4">
     <g id="line2d_10">
      <g>
       <use xlink:href="#mdf711de2a2" x="46.74125" y="227.780843" style="stroke: #000000; stroke-width: 0.8"/>
      </g>
     </g>
     <g id="text_11">
      <!-- 0 -->
      <g transform="translate(33.37875 231.580062) scale(0.1 -0.1)">
       <use xlink:href="#DejaVuSans-30"/>
      </g>
     </g>
    </g>
    <g id="ytick_5">
     <g id="line2d_11">
      <g>
       <use xlink:href="#mdf711de2a2" x="46.74125" y="184.192793" style="stroke: #000000; stroke-width: 0.8"/>
      </g>
     </g>
     <g id="text_12">
      <!-- 1 -->
      <g transform="translate(33.37875 187.992012) scale(0.1 -0.1)">
       <use xlink:href="#DejaVuSans-31"/>
      </g>
     </g>
    </g>
    <g id="ytick_6">
     <g id="line2d_12">
      <g>
       <use xlink:href="#mdf711de2a2" x="46.74125" y="140.604744" style="stroke: #000000; stroke-width: 0.8"/>
      </g>
     </g>
     <g id="text_13">
      <!-- 2 -->
      <g transform="translate(33.37875 144.403963) scale(0.1 -0.1)">
       <use xlink:href="#DejaVuSans-32"/>
      </g>
     </g>
    </g>
    <g id="ytick_7">
     <g id="line2d_13">
      <g>
       <use xlink:href="#mdf711de2a2" x="46.74125" y="97.016694" style="stroke: #000000; stroke-width: 0.8"/>
      </g>
     </g>
     <g id="text_14">
      <!-- 3 -->
      <g transform="translate(33.37875 100.815913) scale(0.1 -0.1)">
       <use xlink:href="#DejaVuSans-33"/>
      </g>
     </g>
    </g>
    <g id="ytick_8">
     <g id="line2d_14">
      <g>
       <use xlink:href="#mdf711de2a2" x="46.74125" y="53.428645" style="stroke: #000000; stroke-width: 0.8"/>
      </g>
     </g>
     <g id="text_15">
      <!-- 4 -->
      <g transform="translate(33.37875 57.227864) scale(0.1 -0.1)">
       <use xlink:href="#DejaVuSans-34"/>
      </g>
     </g>
    </g>
    <g id="text_16">
     <!-- charts/episodic_return -->
     <g transform="translate(18.64125 263.428281) rotate(-90) scale(0.1 -0.1)">
      <defs>
       <path id="DejaVuSans-63" d="M 3122 3366 
L 3122 2828 
Q 2878 2963 2633 3030 
Q 2388 3097 2138 3097 
Q 1578 3097 1268 2742 
Q 959 2388 959 1747 
Q 959 1106 1268 751 
Q 1578 397 2138 397 
Q 2388 397 2633 464 
Q 2878 531 3122 666 
L 3122 134 
Q 2881 22 2623 -34 
Q 2366 -91 2075 -91 
Q 1284 -91 818 406 
Q 353 903 353 1747 
Q 353 2603 823 3093 
Q 1294 3584 2113 3584 
Q 2378 3584 2631 3529 
Q 2884 3475 3122 3366 
z
" transform="scale(0.015625)"/>
       <path id="DejaVuSans-68" d="M 3513 2113 
L 3513 0 
L 2938 0 
L 2938 2094 
Q 2938 2591 2744 2837 
Q 2550 3084 2163 3084 
Q 1697 3084 1428 2787 
Q 1159 2491 1159 1978 
L 1159 0 
L 581 0 
L 581 4863 
L 1159 4863 
L 1159 2956 
Q 1366 3272 1645 3428 
Q 1925 3584 2291 3584 
Q 2894 3584 3203 3211 
Q 3513 2838 3513 2113 
z
" transform="scale(0.015625)"/>
       <path id="DejaVuSans-61" d="M 2194 1759 
Q 1497 1759 1228 1600 
Q 959 1441 959 1056 
Q 959 750 1161 570 
Q 1363 391 1709 391 
Q 2188 391 2477 730 
Q 2766 1069 2766 1631 
L 2766 1759 
L 2194 1759 
z
M 3341 1997 
L 3341 0 
L 2766 0 
L 2766 531 
Q 2569 213 2275 61 
Q 1981 -91 1556 -91 
Q 1019 -91 701 211 
Q 384 513 384 1019 
Q 384 1609 779 1909 
Q 1175 2209 1959 2209 
L 2766 2209 
L 2766 2266 
Q 2766 2663 2505 2880 
Q 2244 3097 1772 3097 
Q 1472 3097 1187 3025 
Q 903 2953 641 2809 
L 641 3341 
Q 956 3463 1253 3523 
Q 1550 3584 1831 3584 
Q 2591 3584 2966 3190 
Q 3341 2797 3341 1997 
z
" transform="scale(0.015625)"/>
       <path id="DejaVuSans-72" d="M 2631 2963 
Q 2534 3019 2420 3045 
Q 2306 3072 2169 3072 
Q 1681 3072 1420 2755 
Q 1159 2438 1159 1844 
L 1159 0 
L 581 0 
L 581 3500 
L 1159 3500 
L 1159 2956 
Q 1341 3275 1631 3429 
Q 1922 3584 2338 3584 
Q 2397 3584 2469 3576 
Q 2541 3569 2628 3553 
L 2631 2963 
z
" transform="scale(0.015625)"/>
       <path id="DejaVuSans-73" d="M 2834 3397 
L 2834 2853 
Q 2591 2978 2328 3040 
Q 2066 3103 1784 3103 
Q 1356 3103 1142 2972 
Q 928 2841 928 2578 
Q 928 2378 1081 2264 
Q 1234 2150 1697 2047 
L 1894 2003 
Q 2506 1872 2764 1633 
Q 3022 1394 3022 966 
Q 3022 478 2636 193 
Q 2250 -91 1575 -91 
Q 1294 -91 989 -36 
Q 684 19 347 128 
L 347 722 
Q 666 556 975 473 
Q 1284 391 1588 391 
Q 1994 391 2212 530 
Q 2431 669 2431 922 
Q 2431 1156 2273 1281 
Q 2116 1406 1581 1522 
L 1381 1569 
Q 847 1681 609 1914 
Q 372 2147 372 2553 
Q 372 3047 722 3315 
Q 1072 3584 1716 3584 
Q 2034 3584 2315 3537 
Q 2597 3491 2834 3397 
z
" transform="scale(0.015625)"/>
       <path id="DejaVuSans-2f" d="M 1625 4666 
L 2156 4666 
L 531 -594 
L 0 -594 
L 1625 4666 
z
" transform="scale(0.015625)"/>
       <path id="DejaVuSans-69" d="M 603 3500 
L 1178 3500 
L 1178 0 
L 603 0 
L 603 3500 
z
M 603 4863 
L 1178 4863 
L 1178 4134 
L 603 4134 
L 603 4863 
z
" transform="scale(0.015625)"/>
       <path id="DejaVuSans-6f" d="M 1959 3097 
Q 1497 3097 1228 2736 
Q 959 2375 959 1747 
Q 959 1119 1226 758 
Q 1494 397 1959 397 
Q 2419 397 2687 759 
Q 2956 1122 2956 1747 
Q 2956 2369 2687 2733 
Q 2419 3097 1959 3097 
z
M 1959 3584 
Q 2709 3584 3137 3096 
Q 3566 2609 3566 1747 
Q 3566 888 3137 398 
Q 2709 -91 1959 -91 
Q 1206 -91 779 398 
Q 353 888 353 1747 
Q 353 2609 779 3096 
Q 1206 3584 1959 3584 
z
" transform="scale(0.015625)"/>
       <path id="DejaVuSans-64" d="M 2906 2969 
L 2906 4863 
L 3481 4863 
L 3481 0 
L 2906 0 
L 2906 525 
Q 2725 213 2448 61 
Q 2172 -91 1784 -91 
Q 1150 -91 751 415 
Q 353 922 353 1747 
Q 353 2572 751 3078 
Q 1150 3584 1784 3584 
Q 2172 3584 2448 3432 
Q 2725 3281 2906 2969 
z
M 947 1747 
Q 947 1113 1208 752 
Q 1469 391 1925 391 
Q 2381 391 2643 752 
Q 2906 1113 2906 1747 
Q 2906 2381 2643 2742 
Q 2381 3103 1925 3103 
Q 1469 3103 1208 2742 
Q 947 2381 947 1747 
z
" transform="scale(0.015625)"/>
       <path id="DejaVuSans-5f" d="M 3263 -1063 
L 3263 -1509 
L -63 -1509 
L -63 -1063 
L 3263 -1063 
z
" transform="scale(0.015625)"/>
       <path id="DejaVuSans-75" d="M 544 1381 
L 544 3500 
L 1119 3500 
L 1119 1403 
Q 1119 906 1312 657 
Q 1506 409 1894 409 
Q 2359 409 2629 706 
Q 2900 1003 2900 1516 
L 2900 3500 
L 3475 3500 
L 3475 0 
L 2900 0 
L 2900 538 
Q 2691 219 2414 64 
Q 2138 -91 1772 -91 
Q 1169 -91 856 284 
Q 544 659 544 1381 
z
M 1991 3584 
L 1991 3584 
z
" transform="scale(0.015625)"/>
       <path id="DejaVuSans-6e" d="M 3513 2113 
L 3513 0 
L 2938 0 
L 2938 2094 
Q 2938 2591 2744 2837 
Q 2550 3084 2163 3084 
Q 1697 3084 1428 2787 
Q 1159 2491 1159 1978 
L 1159 0 
L 581 0 
L 581 3500 
L 1159 3500 
L 1159 2956 
Q 1366 3272 1645 3428 
Q 1925 3584 2291 3584 
Q 2894 3584 3203 3211 
Q 3513 2838 3513 2113 
z
" transform="scale(0.015625)"/>
      </defs>
      <use xlink:href="#DejaVuSans-63"/>
      <use xlink:href="#DejaVuSans-68" transform="translate(54.980469 0)"/>
      <use xlink:href="#DejaVuSans-61" transform="translate(118.359375 0)"/>
      <use xlink:href="#DejaVuSans-72" transform="translate(179.638672 0)"/>
      <use xlink:href="#DejaVuSans-74" transform="translate(220.751953 0)"/>
      <use xlink:href="#DejaVuSans-73" transform="translate(259.960938 0)"/>
      <use xlink:href="#DejaVuSans-2f" transform="translate(312.060547 0)"/>
      <use xlink:href="#DejaVuSans-65" transform="translate(345.751953 0)"/>
      <use xlink:href="#DejaVuSans-70" transform="translate(407.275391 0)"/>
      <use xlink:href="#DejaVuSans-69" transform="translate(470.751953 0)"/>
      <use xlink:href="#DejaVuSans-73" transform="translate(498.535156 0)"/>
      <use xlink:href="#DejaVuSans-6f" transform="translate(550.634766 0)"/>
      <use xlink:href="#DejaVuSans-64" transform="translate(611.816406 0)"/>
      <use xlink:href="#DejaVuSans-69" transform="translate(675.292969 0)"/>
      <use xlink:href="#DejaVuSans-63" transform="translate(703.076172 0)"/>
      <use xlink:href="#DejaVuSans-5f" transform="translate(758.056641 0)"/>
      <use xlink:href="#DejaVuSans-72" transform="translate(808.056641 0)"/>
      <use xlink:href="#DejaVuSans-65" transform="translate(846.919922 0)"/>
      <use xlink:href="#DejaVuSans-74" transform="translate(908.443359 0)"/>
      <use xlink:href="#DejaVuSans-75" transform="translate(947.652344 0)"/>
      <use xlink:href="#DejaVuSans-72" transform="translate(1011.03125 0)"/>
      <use xlink:href="#DejaVuSans-6e" transform="translate(1050.394531 0)"/>
     </g>
    </g>
   </g>
   <g id="line2d_15">
    <path d="M 76.853011 225.973885 
L 81.072878 225.702526 
L 82.278554 225.790771 
L 82.881392 225.570024 
L 85.292744 225.669969 
L 85.895582 225.761249 
L 86.49842 225.527976 
L 87.101258 225.530709 
L 88.306935 225.79376 
L 91.923963 225.56447 
L 93.129639 225.533443 
L 94.938153 225.700363 
L 97.349506 225.523726 
L 98.555182 225.251784 
L 102.17221 225.140472 
L 102.775048 224.841207 
L 103.980724 225.152348 
L 104.583562 225.239602 
L 105.1864 225.04937 
L 105.789238 225.104067 
L 107.597753 224.903912 
L 108.200591 225.170931 
L 109.406267 225.128759 
L 113.626133 225.268978 
L 114.228971 225.097969 
L 114.831809 225.072069 
L 116.037486 225.35329 
L 118.448838 225.357345 
L 119.051676 225.456012 
L 119.654514 225.275286 
L 120.257352 224.977986 
L 121.463028 224.93495 
L 122.065866 224.945722 
L 122.668704 224.832091 
L 123.271542 224.891702 
L 124.477219 225.306774 
L 125.080057 225.140328 
L 125.682895 225.237376 
L 127.491409 225.088192 
L 128.094247 225.189574 
L 129.299923 224.904421 
L 129.902761 225.002551 
L 132.314113 224.48942 
L 132.916951 224.251479 
L 133.51979 224.473854 
L 135.931142 224.691664 
L 136.53398 224.728228 
L 138.342494 224.195296 
L 138.945332 224.35853 
L 139.54817 224.647241 
L 140.151008 224.809545 
L 143.165199 224.837212 
L 143.768037 224.581314 
L 144.973713 224.90566 
L 145.576551 224.894394 
L 146.179389 225.068532 
L 146.782227 225.039691 
L 148.590741 224.290642 
L 149.193579 224.552143 
L 150.399255 224.83078 
L 151.002093 224.622337 
L 151.604931 224.922484 
L 152.20777 224.896035 
L 152.810608 224.612674 
L 154.016284 224.832955 
L 155.22196 224.25203 
L 155.824798 224.885178 
L 156.427636 224.914553 
L 157.633312 224.624147 
L 158.23615 224.381943 
L 158.838988 226.834907 
L 159.441826 226.959351 
L 160.044664 227.436484 
L 160.647502 227.714371 
L 162.456017 227.80536 
L 163.058855 227.676565 
L 164.264531 227.784806 
L 164.867369 227.610087 
L 165.470207 227.613733 
L 166.675883 227.172253 
L 167.278721 226.922399 
L 167.881559 227.015753 
L 168.484397 226.840282 
L 170.292911 227.561769 
L 170.89575 227.520546 
L 171.498588 227.645305 
L 173.307102 227.421726 
L 175.115616 227.491049 
L 175.718454 227.667591 
L 176.321292 227.966106 
L 176.92413 228.046125 
L 177.526968 227.631819 
L 182.349673 228.058761 
L 184.158187 227.719763 
L 184.761025 227.873137 
L 185.363863 227.592272 
L 187.172377 227.793759 
L 187.775215 227.504546 
L 188.378053 227.718167 
L 188.980892 227.738602 
L 189.58373 227.888304 
L 190.789406 227.883279 
L 191.392244 227.711142 
L 191.995082 228.028743 
L 192.59792 228.145751 
L 193.803596 228.094767 
L 195.009272 227.871848 
L 195.61211 227.840133 
L 196.214948 228.120806 
L 200.434815 227.925413 
L 201.037653 227.458101 
L 202.243329 227.810279 
L 205.257519 227.769367 
L 205.860357 227.792119 
L 206.463195 227.643505 
L 207.066033 227.667349 
L 207.668872 227.451536 
L 210.080224 227.740961 
L 211.2859 227.651186 
L 212.491576 227.538912 
L 213.094414 227.267334 
L 214.902928 227.305602 
L 218.519957 227.510284 
L 219.725633 227.434777 
L 220.328471 227.438909 
L 220.931309 227.206566 
L 223.342661 227.261322 
L 223.945499 227.409387 
L 225.151175 227.361461 
L 225.754014 227.482676 
L 227.562528 227.447245 
L 228.165366 227.287502 
L 228.768204 227.410946 
L 229.97388 227.276514 
L 231.782394 227.675967 
L 232.98807 227.809446 
L 234.193746 227.618328 
L 234.796584 227.680278 
L 235.399423 227.587305 
L 236.002261 227.292538 
L 236.605099 227.542069 
L 237.207937 227.46435 
L 239.619289 227.620406 
L 240.824965 227.528189 
L 241.427803 227.662754 
L 242.030641 227.580709 
L 242.633479 227.26587 
L 243.236317 227.236454 
L 243.839155 227.641625 
L 244.441994 227.415389 
L 245.044832 227.382463 
L 245.64767 222.0684 
L 246.250508 229.110899 
L 247.456184 229.130788 
L 248.66186 229.070167 
L 249.264698 228.532706 
L 249.867536 228.874039 
L 250.470374 228.706289 
L 251.67605 228.008819 
L 252.278888 227.918952 
L 252.881726 228.059334 
L 254.087403 228.656225 
L 257.101593 227.974581 
L 258.910107 228.233257 
L 259.512945 228.174653 
L 260.115783 228.381955 
L 260.718621 228.25246 
L 261.321459 227.949763 
L 261.924297 228.020408 
L 262.527135 228.222058 
L 263.732812 228.243818 
L 264.33565 227.936992 
L 264.938488 227.944345 
L 266.144164 228.149804 
L 267.952678 228.231792 
L 268.555516 227.961303 
L 269.158354 228.107564 
L 270.966868 227.994229 
L 272.172545 228.039573 
L 273.378221 227.740873 
L 273.981059 227.883895 
L 276.392411 227.586367 
L 276.995249 227.787766 
L 278.200925 227.655323 
L 278.803763 227.455646 
L 279.406601 227.38499 
L 281.215116 226.750416 
L 281.817954 226.869796 
L 282.420792 226.570899 
L 283.02363 226.656932 
L 283.626468 226.456646 
L 284.229306 226.587223 
L 284.832144 226.371515 
L 285.434982 226.316202 
L 286.03782 226.491167 
L 286.640658 226.468584 
L 287.243496 226.759239 
L 289.05201 227.020856 
L 290.257686 226.890275 
L 290.860525 226.931981 
L 292.066201 226.716619 
L 292.669039 226.15385 
L 293.874715 226.061992 
L 295.683229 226.334984 
L 298.094581 225.902858 
L 299.300257 225.5522 
L 299.903096 225.581561 
L 301.108772 225.845895 
L 301.71161 225.811147 
L 302.314448 225.462152 
L 302.917286 224.905152 
L 303.520124 225.073308 
L 304.122962 224.893597 
L 304.7258 225.413338 
L 305.328638 225.376419 
L 306.534314 225.652977 
L 307.137152 225.566885 
L 307.73999 225.083451 
L 308.342828 225.15803 
L 308.945667 225.435473 
L 310.151343 225.493628 
L 312.562695 225.029215 
L 313.165533 224.900819 
L 314.371209 224.959611 
L 314.974047 225.203554 
L 316.179723 225.150626 
L 317.988237 225.069784 
L 319.796752 224.390911 
L 321.002428 224.586922 
L 321.605266 224.674076 
L 323.41378 224.531918 
L 324.016618 224.706915 
L 325.222294 224.630836 
L 325.825132 224.514681 
L 326.42797 224.083175 
L 327.633647 224.108872 
L 328.236485 224.104926 
L 328.839323 224.296475 
L 331.853513 224.234382 
L 332.456351 223.899439 
L 333.059189 227.559527 
L 335.470541 226.981981 
L 336.676218 227.580803 
L 337.881894 227.455847 
L 338.484732 227.173936 
L 339.08757 227.10358 
L 339.690408 227.248875 
L 340.293246 227.569953 
L 342.10176 227.560924 
L 342.704598 227.503769 
L 343.307436 227.561829 
L 344.513112 227.363849 
L 345.718789 227.818106 
L 346.321627 227.736077 
L 347.527303 227.901599 
L 348.732979 227.558384 
L 349.335817 227.634774 
L 349.938655 227.880094 
L 350.541493 227.895235 
L 351.747169 227.5639 
L 352.350007 227.425721 
L 354.158521 227.646412 
L 355.967036 227.575333 
L 356.569874 227.447141 
L 357.172712 227.454939 
L 357.77555 227.611581 
L 358.378388 227.609313 
L 358.981226 227.426262 
L 359.584064 227.603966 
L 360.186902 227.562325 
L 360.78974 227.242672 
L 361.392578 227.12746 
L 361.995416 227.266907 
L 362.598254 227.251337 
L 363.201092 227.60194 
L 363.80393 227.5107 
L 364.406769 227.194542 
L 365.009607 227.656302 
L 366.215283 227.565716 
L 368.626635 227.892912 
L 369.832311 227.630969 
L 372.846501 228.162825 
L 373.44934 228.056947 
L 374.052178 227.690754 
L 374.655016 227.569046 
L 375.860692 228.199585 
L 376.46353 228.26221 
L 377.066368 228.0215 
L 378.874882 228.148588 
L 380.080558 228.098429 
L 380.683396 227.894307 
L 381.889072 227.916251 
L 382.49191 227.798253 
L 384.300425 227.792593 
L 384.903263 227.700121 
L 385.506101 227.231503 
L 386.108939 227.540113 
L 387.917453 227.230745 
L 388.520291 227.597084 
L 389.725967 227.770375 
L 390.328805 227.880997 
L 390.931643 228.156438 
L 391.534481 228.134495 
L 392.13732 227.913876 
L 393.342996 227.889271 
L 393.945834 227.644704 
L 395.15151 228.002985 
L 396.357186 227.884446 
L 397.562862 228.072264 
L 398.1657 227.891398 
L 398.768538 227.928421 
L 399.371376 227.80408 
L 399.974214 227.85477 
L 400.577052 227.765156 
L 402.385567 227.739896 
L 402.988405 227.731195 
L 404.194081 228.10217 
L 404.796919 228.088478 
L 406.002595 227.9248 
L 406.605433 227.982784 
L 407.208271 227.848529 
L 410.8253 228.164604 
L 412.030976 227.964045 
L 413.83949 228.095565 
L 415.045166 228.022363 
L 415.648004 228.219101 
L 418.059356 228.231411 
L 418.662194 228.013647 
L 419.265032 228.097136 
L 419.867871 223.169375 
L 420.470709 224.991438 
L 424.087737 225.078456 
L 424.690575 224.990555 
L 425.896251 225.012331 
L 427.101927 224.55932 
L 427.704765 224.511767 
L 428.910442 224.74265 
L 430.116118 224.484999 
L 430.718956 223.955925 
L 433.130308 223.927444 
L 433.733146 224.162386 
L 434.938822 223.770534 
L 436.144498 223.989585 
L 439.158689 223.90142 
L 439.761527 223.650119 
L 440.364365 223.676629 
L 442.775717 222.910076 
L 443.981393 223.048475 
L 446.995583 223.250749 
L 447.598422 223.373707 
L 451.818288 223.432435 
L 452.421126 223.179334 
L 453.626802 223.015144 
L 454.22964 223.24385 
L 454.832478 223.32114 
L 456.640993 223.182376 
L 457.243831 223.159415 
L 458.449507 222.875291 
L 459.655183 223.159612 
L 460.258021 223.124261 
L 460.860859 223.212454 
L 462.066535 222.980482 
L 462.669373 222.693431 
L 463.875049 222.421312 
L 464.477887 222.524474 
L 465.080725 222.962561 
L 465.683564 222.480129 
L 466.286402 222.430364 
L 467.492078 222.550928 
L 468.697754 222.184421 
L 469.300592 221.803076 
L 470.506268 222.213301 
L 471.109106 222.13261 
L 471.711944 221.815008 
L 472.91762 221.910094 
L 473.520458 222.2033 
L 474.123296 222.279197 
L 474.726134 222.044281 
L 475.328973 221.632786 
L 475.931811 221.85767 
L 476.534649 221.860886 
L 477.137487 222.011276 
L 478.343163 221.80913 
L 478.946001 221.472928 
L 481.357353 221.653161 
L 482.563029 221.49211 
L 483.768705 221.021704 
L 484.371544 221.047712 
L 484.974382 221.327125 
L 486.782896 221.046193 
L 487.385734 220.617101 
L 487.988572 221.056683 
L 489.194248 220.938125 
L 489.797086 220.566618 
L 490.399924 220.731855 
L 491.6056 220.485864 
L 494.016953 220.956743 
L 495.222629 220.889507 
L 495.825467 220.804604 
L 497.031143 220.305455 
L 497.633981 220.56173 
L 498.236819 220.550551 
L 498.839657 220.405325 
L 500.648171 220.499164 
L 503.059524 220.387175 
L 503.662362 219.881675 
L 504.868038 219.889968 
L 506.676552 219.502686 
L 507.27939 225.496018 
L 507.882228 224.966642 
L 509.087904 224.904858 
L 510.29358 225.159334 
L 513.307771 225.569185 
L 514.513447 225.326683 
L 515.116285 225.369511 
L 515.719123 225.159533 
L 517.527637 225.449671 
L 518.130475 225.837977 
L 518.733313 225.796706 
L 519.938989 225.969247 
L 521.144666 225.946637 
L 523.556018 226.040955 
L 524.158856 226.125116 
L 524.761694 226.038381 
L 525.364532 226.209371 
L 526.570208 226.085615 
L 527.775884 226.396417 
L 530.790075 226.430565 
L 531.995751 226.895831 
L 532.598589 227.06357 
L 533.201427 226.909511 
L 533.804265 226.958484 
L 535.009941 226.431335 
L 536.215617 226.33749 
L 537.421293 226.347626 
L 538.626969 226.595129 
L 539.229807 226.47953 
L 541.038322 226.680439 
L 541.64116 226.570016 
L 542.243998 226.608249 
L 542.846836 226.466242 
L 544.052512 226.873442 
L 544.65535 226.783456 
L 547.066702 227.080473 
L 547.66954 226.96737 
L 550.080893 226.984343 
L 551.889407 226.902145 
L 552.492245 226.521454 
L 554.300759 226.797539 
L 554.903597 227.197683 
L 555.506435 227.352471 
L 556.109273 227.110661 
L 556.712111 227.184437 
L 557.314949 227.105368 
L 558.520626 227.681375 
L 559.726302 227.33878 
L 560.32914 227.020283 
L 560.931978 226.923083 
L 561.534816 227.398642 
L 562.137654 227.505301 
L 562.740492 227.441769 
L 563.34333 227.2614 
L 563.946168 227.512339 
L 565.151844 227.607366 
L 566.35752 227.890525 
L 568.768873 227.780874 
L 569.371711 228.132348 
L 569.974549 228.228543 
L 571.783063 227.718869 
L 572.988739 228.212296 
L 575.400091 228.426804 
L 576.002929 228.398935 
L 577.208606 228.79575 
L 578.414282 228.783865 
L 579.01712 228.322062 
L 581.428472 228.931122 
L 582.634148 228.801313 
L 583.236986 228.556217 
L 584.442662 228.445182 
L 585.648339 228.436437 
L 586.854015 228.501979 
L 588.662529 228.823765 
L 589.265367 228.63855 
L 591.676719 228.840443 
L 592.279557 229.0069 
L 592.882395 229.011649 
L 593.485233 228.825579 
L 594.088071 229.649379 
L 594.690909 221.754124 
L 595.293748 221.821076 
L 595.896586 221.707247 
L 597.102262 222.085025 
L 597.7051 221.969902 
L 598.910776 222.019643 
L 600.71929 221.97593 
L 601.322128 222.274777 
L 601.924966 222.020067 
L 604.939157 221.367623 
L 605.541995 221.626583 
L 606.144833 221.657942 
L 606.747671 222.025469 
L 607.350509 222.043354 
L 609.159023 221.518513 
L 609.761861 221.589058 
L 610.364699 221.527325 
L 610.967537 221.757864 
L 611.570375 221.741229 
L 612.776051 221.053564 
L 613.37889 221.207967 
L 614.584566 221.834809 
L 615.790242 221.761433 
L 616.39308 221.634945 
L 616.995918 221.636203 
L 618.201594 221.835343 
L 618.804432 221.847558 
L 619.40727 221.465405 
L 620.010108 221.657683 
L 621.215784 221.208834 
L 621.818622 221.26157 
L 623.627137 221.797064 
L 624.229975 221.850532 
L 624.832813 221.582275 
L 625.435651 221.667953 
L 626.038489 221.542716 
L 627.847003 221.797501 
L 628.449841 221.710193 
L 629.052679 221.88593 
L 630.258355 222.012772 
L 631.464031 221.772643 
L 632.06687 221.688437 
L 632.669708 221.462455 
L 633.272546 221.035497 
L 633.875384 221.571908 
L 635.683898 221.612428 
L 637.492412 221.266716 
L 638.09525 221.595146 
L 639.903764 221.762102 
L 640.506602 221.792984 
L 642.315117 221.366629 
L 643.520793 220.958409 
L 644.123631 221.308678 
L 644.726469 221.212708 
L 645.329307 221.231012 
L 645.932145 221.378777 
L 647.137821 221.451633 
L 648.343497 221.777556 
L 648.946335 221.856757 
L 651.357688 221.647045 
L 652.563364 221.404952 
L 653.76904 221.390014 
L 654.371878 221.224072 
L 654.974716 221.329067 
L 656.180392 221.225182 
L 657.988906 221.213872 
L 659.797421 221.476123 
L 661.003097 221.439591 
L 662.208773 220.96974 
L 662.811611 221.050406 
L 663.414449 221.002201 
L 664.017287 221.113892 
L 664.620125 221.360481 
L 665.825801 221.44633 
L 667.031477 221.306767 
L 668.237153 221.113395 
L 668.839992 221.070494 
L 670.045668 221.378985 
L 671.854182 221.645971 
L 672.45702 221.119538 
L 673.059858 221.133683 
L 673.662696 220.685079 
L 674.265534 220.562515 
L 675.47121 220.996906 
L 677.279724 220.982923 
L 677.882563 221.436946 
L 679.088239 221.323899 
L 679.088239 221.323899 
" clip-path="url(#p23bb759825)" style="fill: none; stroke: #00008b; stroke-width: 1.5; stroke-linecap: square"/>
   </g>
   <g id="patch_3">
    <path d="M 46.74125 390.04 
L 46.74125 25.44 
" style="fill: none; stroke: #000000; stroke-width: 0.8; stroke-linejoin: miter; stroke-linecap: square"/>
   </g>
   <g id="patch_4">
    <path d="M 709.2 390.04 
L 709.2 25.44 
" style="fill: none; stroke: #000000; stroke-width: 0.8; stroke-linejoin: miter; stroke-linecap: square"/>
   </g>
   <g id="patch_5">
    <path d="M 46.74125 390.04 
L 709.2 390.04 
" style="fill: none; stroke: #000000; stroke-width: 0.8; stroke-linejoin: miter; stroke-linecap: square"/>
   </g>
   <g id="patch_6">
    <path d="M 46.74125 25.44 
L 709.2 25.44 
" style="fill: none; stroke: #000000; stroke-width: 0.8; stroke-linejoin: miter; stroke-linecap: square"/>
   </g>
   <g id="text_17">
    <!-- charts/episodic_return for ppo_atari (aggregated via interpolation over runs) -->
    <g transform="translate(148.308438 19.44) scale(0.12 -0.12)">
     <defs>
      <path id="DejaVuSans-20" transform="scale(0.015625)"/>
      <path id="DejaVuSans-66" d="M 2375 4863 
L 2375 4384 
L 1825 4384 
Q 1516 4384 1395 4259 
Q 1275 4134 1275 3809 
L 1275 3500 
L 2222 3500 
L 2222 3053 
L 1275 3053 
L 1275 0 
L 697 0 
L 697 3053 
L 147 3053 
L 147 3500 
L 697 3500 
L 697 3744 
Q 697 4328 969 4595 
Q 1241 4863 1831 4863 
L 2375 4863 
z
" transform="scale(0.015625)"/>
      <path id="DejaVuSans-28" d="M 1984 4856 
Q 1566 4138 1362 3434 
Q 1159 2731 1159 2009 
Q 1159 1288 1364 580 
Q 1569 -128 1984 -844 
L 1484 -844 
Q 1016 -109 783 600 
Q 550 1309 550 2009 
Q 550 2706 781 3412 
Q 1013 4119 1484 4856 
L 1984 4856 
z
" transform="scale(0.015625)"/>
      <path id="DejaVuSans-67" d="M 2906 1791 
Q 2906 2416 2648 2759 
Q 2391 3103 1925 3103 
Q 1463 3103 1205 2759 
Q 947 2416 947 1791 
Q 947 1169 1205 825 
Q 1463 481 1925 481 
Q 2391 481 2648 825 
Q 2906 1169 2906 1791 
z
M 3481 434 
Q 3481 -459 3084 -895 
Q 2688 -1331 1869 -1331 
Q 1566 -1331 1297 -1286 
Q 1028 -1241 775 -1147 
L 775 -588 
Q 1028 -725 1275 -790 
Q 1522 -856 1778 -856 
Q 2344 -856 2625 -561 
Q 2906 -266 2906 331 
L 2906 616 
Q 2728 306 2450 153 
Q 2172 0 1784 0 
Q 1141 0 747 490 
Q 353 981 353 1791 
Q 353 2603 747 3093 
Q 1141 3584 1784 3584 
Q 2172 3584 2450 3431 
Q 2728 3278 2906 2969 
L 2906 3500 
L 3481 3500 
L 3481 434 
z
" transform="scale(0.015625)"/>
      <path id="DejaVuSans-76" d="M 191 3500 
L 800 3500 
L 1894 563 
L 2988 3500 
L 3597 3500 
L 2284 0 
L 1503 0 
L 191 3500 
z
" transform="scale(0.015625)"/>
      <path id="DejaVuSans-6c" d="M 603 4863 
L 1178 4863 
L 1178 0 
L 603 0 
L 603 4863 
z
" transform="scale(0.015625)"/>
      <path id="DejaVuSans-29" d="M 513 4856 
L 1013 4856 
Q 1481 4119 1714 3412 
Q 1947 2706 1947 2009 
Q 1947 1309 1714 600 
Q 1481 -109 1013 -844 
L 513 -844 
Q 928 -128 1133 580 
Q 1338 1288 1338 2009 
Q 1338 2731 1133 3434 
Q 928 4138 513 4856 
z
" transform="scale(0.015625)"/>
     </defs>
     <use xlink:href="#DejaVuSans-63"/>
     <use xlink:href="#DejaVuSans-68" transform="translate(54.980469 0)"/>
     <use xlink:href="#DejaVuSans-61" transform="translate(118.359375 0)"/>
     <use xlink:href="#DejaVuSans-72" transform="translate(179.638672 0)"/>
     <use xlink:href="#DejaVuSans-74" transform="translate(220.751953 0)"/>
     <use xlink:href="#DejaVuSans-73" transform="translate(259.960938 0)"/>
     <use xlink:href="#DejaVuSans-2f" transform="translate(312.060547 0)"/>
     <use xlink:href="#DejaVuSans-65" transform="translate(345.751953 0)"/>
     <use xlink:href="#DejaVuSans-70" transform="translate(407.275391 0)"/>
     <use xlink:href="#DejaVuSans-69" transform="translate(470.751953 0)"/>
     <use xlink:href="#DejaVuSans-73" transform="translate(498.535156 0)"/>
     <use xlink:href="#DejaVuSans-6f" transform="translate(550.634766 0)"/>
     <use xlink:href="#DejaVuSans-64" transform="translate(611.816406 0)"/>
     <use xlink:href="#DejaVuSans-69" transform="translate(675.292969 0)"/>
     <use xlink:href="#DejaVuSans-63" transform="translate(703.076172 0)"/>
     <use xlink:href="#DejaVuSans-5f" transform="translate(758.056641 0)"/>
     <use xlink:href="#DejaVuSans-72" transform="translate(808.056641 0)"/>
     <use xlink:href="#DejaVuSans-65" transform="translate(846.919922 0)"/>
     <use xlink:href="#DejaVuSans-74" transform="translate(908.443359 0)"/>
     <use xlink:href="#DejaVuSans-75" transform="translate(947.652344 0)"/>
     <use xlink:href="#DejaVuSans-72" transform="translate(1011.03125 0)"/>
     <use xlink:href="#DejaVuSans-6e" transform="translate(1050.394531 0)"/>
     <use xlink:href="#DejaVuSans-20" transform="translate(1113.773438 0)"/>
     <use xlink:href="#DejaVuSans-66" transform="translate(1145.560547 0)"/>
     <use xlink:href="#DejaVuSans-6f" transform="translate(1180.765625 0)"/>
     <use xlink:href="#DejaVuSans-72" transform="translate(1241.947266 0)"/>
     <use xlink:href="#DejaVuSans-20" transform="translate(1283.060547 0)"/>
     <use xlink:href="#DejaVuSans-70" transform="translate(1314.847656 0)"/>
     <use xlink:href="#DejaVuSans-70" transform="translate(1378.324219 0)"/>
     <use xlink:href="#DejaVuSans-6f" transform="translate(1441.800781 0)"/>
     <use xlink:href="#DejaVuSans-5f" transform="translate(1502.982422 0)"/>
     <use xlink:href="#DejaVuSans-61" transform="translate(1552.982422 0)"/>
     <use xlink:href="#DejaVuSans-74" transform="translate(1614.261719 0)"/>
     <use xlink:href="#DejaVuSans-61" transform="translate(1653.470703 0)"/>
     <use xlink:href="#DejaVuSans-72" transform="translate(1714.75 0)"/>
     <use xlink:href="#DejaVuSans-69" transform="translate(1755.863281 0)"/>
     <use xlink:href="#DejaVuSans-20" transform="translate(1783.646484 0)"/>
     <use xlink:href="#DejaVuSans-28" transform="translate(1815.433594 0)"/>
     <use xlink:href="#DejaVuSans-61" transform="translate(1854.447266 0)"/>
     <use xlink:href="#DejaVuSans-67" transform="translate(1915.726562 0)"/>
     <use xlink:href="#DejaVuSans-67" transform="translate(1979.203125 0)"/>
     <use xlink:href="#DejaVuSans-72" transform="translate(2042.679688 0)"/>
     <use xlink:href="#DejaVuSans-65" transform="translate(2081.542969 0)"/>
     <use xlink:href="#DejaVuSans-67" transform="translate(2143.066406 0)"/>
     <use xlink:href="#DejaVuSans-61" transform="translate(2206.542969 0)"/>
     <use xlink:href="#DejaVuSans-74" transform="translate(2267.822266 0)"/>
     <use xlink:href="#DejaVuSans-65" transform="translate(2307.03125 0)"/>
     <use xlink:href="#DejaVuSans-64" transform="translate(2368.554688 0)"/>
     <use xlink:href="#DejaVuSans-20" transform="translate(2432.03125 0)"/>
     <use xlink:href="#DejaVuSans-76" transform="translate(2463.818359 0)"/>
     <use xlink:href="#DejaVuSans-69" transform="translate(2522.998047 0)"/>
     <use xlink:href="#DejaVuSans-61" transform="translate(2550.78125 0)"/>
     <use xlink:href="#DejaVuSans-20" transform="translate(2612.060547 0)"/>
     <use xlink:href="#DejaVuSans-69" transform="translate(2643.847656 0)"/>
     <use xlink:href="#DejaVuSans-6e" transform="translate(2671.630859 0)"/>
     <use xlink:href="#DejaVuSans-74" transform="translate(2735.009766 0)"/>
     <use xlink:href="#DejaVuSans-65" transform="translate(2774.21875 0)"/>
     <use xlink:href="#DejaVuSans-72" transform="translate(2835.742188 0)"/>
     <use xlink:href="#DejaVuSans-70" transform="translate(2876.855469 0)"/>
     <use xlink:href="#DejaVuSans-6f" transform="translate(2940.332031 0)"/>
     <use xlink:href="#DejaVuSans-6c" transform="translate(3001.513672 0)"/>
     <use xlink:href="#DejaVuSans-61" transform="translate(3029.296875 0)"/>
     <use xlink:href="#DejaVuSans-74" transform="translate(3090.576172 0)"/>
     <use xlink:href="#DejaVuSans-69" transform="translate(3129.785156 0)"/>
     <use xlink:href="#DejaVuSans-6f" transform="translate(3157.568359 0)"/>
     <use xlink:href="#DejaVuSans-6e" transform="translate(3218.75 0)"/>
     <use xlink:href="#DejaVuSans-20" transform="translate(3282.128906 0)"/>
     <use xlink:href="#DejaVuSans-6f" transform="translate(3313.916016 0)"/>
     <use xlink:href="#DejaVuSans-76" transform="translate(3375.097656 0)"/>
     <use xlink:href="#DejaVuSans-65" transform="translate(3434.277344 0)"/>
     <use xlink:href="#DejaVuSans-72" transform="translate(3495.800781 0)"/>
     <use xlink:href="#DejaVuSans-20" transform="translate(3536.914062 0)"/>
     <use xlink:href="#DejaVuSans-72" transform="translate(3568.701172 0)"/>
     <use xlink:href="#DejaVuSans-75" transform="translate(3609.814453 0)"/>
     <use xlink:href="#DejaVuSans-6e" transform="translate(3673.193359 0)"/>
     <use xlink:href="#DejaVuSans-73" transform="translate(3736.572266 0)"/>
     <use xlink:href="#DejaVuSans-29" transform="translate(3788.671875 0)"/>
    </g>
   </g>
   <g id="legend_1">
    <g id="patch_7">
     <path d="M 53.74125 62.79625 
L 129.16 62.79625 
Q 131.16 62.79625 131.16 60.79625 
L 131.16 32.44 
Q 131.16 30.44 129.16 30.44 
L 53.74125 30.44 
Q 51.74125 30.44 51.74125 32.44 
L 51.74125 60.79625 
Q 51.74125 62.79625 53.74125 62.79625 
z
" style="fill: #ffffff; opacity: 0.8; stroke: #cccccc; stroke-linejoin: miter"/>
    </g>
    <g id="line2d_16">
     <path d="M 55.74125 38.538437 
L 65.74125 38.538437 
L 75.74125 38.538437 
" style="fill: none; stroke: #00008b; stroke-width: 1.5; stroke-linecap: square"/>
    </g>
    <g id="text_18">
     <!-- Mean -->
     <g transform="translate(83.74125 42.038437) scale(0.1 -0.1)">
      <defs>
       <path id="DejaVuSans-4d" d="M 628 4666 
L 1569 4666 
L 2759 1491 
L 3956 4666 
L 4897 4666 
L 4897 0 
L 4281 0 
L 4281 4097 
L 3078 897 
L 2444 897 
L 1241 4097 
L 1241 0 
L 628 0 
L 628 4666 
z
" transform="scale(0.015625)"/>
      </defs>
      <use xlink:href="#DejaVuSans-4d"/>
      <use xlink:href="#DejaVuSans-65" transform="translate(86.279297 0)"/>
      <use xlink:href="#DejaVuSans-61" transform="translate(147.802734 0)"/>
      <use xlink:href="#DejaVuSans-6e" transform="translate(209.082031 0)"/>
     </g>
    </g>
    <g id="patch_8">
     <path d="M 55.74125 56.716563 
L 75.74125 56.716563 
L 75.74125 49.716563 
L 55.74125 49.716563 
z
" style="fill: #00008b; fill-opacity: 0.3; stroke: #00008b; stroke-opacity: 0.3; stroke-linejoin: miter"/>
    </g>
    <g id="text_19">
     <!-- MinMax -->
     <g transform="translate(83.74125 56.716563) scale(0.1 -0.1)">
      <defs>
       <path id="DejaVuSans-2013" d="M 313 1978 
L 2888 1978 
L 2888 1528 
L 313 1528 
L 313 1978 
z
" transform="scale(0.015625)"/>
       <path id="DejaVuSans-78" d="M 3513 3500 
L 2247 1797 
L 3578 0 
L 2900 0 
L 1881 1375 
L 863 0 
L 184 0 
L 1544 1831 
L 300 3500 
L 978 3500 
L 1906 2253 
L 2834 3500 
L 3513 3500 
z
" transform="scale(0.015625)"/>
      </defs>
      <use xlink:href="#DejaVuSans-4d"/>
      <use xlink:href="#DejaVuSans-69" transform="translate(86.279297 0)"/>
      <use xlink:href="#DejaVuSans-6e" transform="translate(114.0625 0)"/>
      <use xlink:href="#DejaVuSans-2013" transform="translate(177.441406 0)"/>
      <use xlink:href="#DejaVuSans-4d" transform="translate(227.441406 0)"/>
      <use xlink:href="#DejaVuSans-61" transform="translate(313.720703 0)"/>
      <use xlink:href="#DejaVuSans-78" transform="translate(375 0)"/>
     </g>
    </g>
   </g>
  </g>
 </g>
 <defs>
  <clipPath id="p23bb759825">
   <rect x="46.74125" y="25.44" width="662.45875" height="364.6"/>
  </clipPath>
 </defs>
</svg>
