<?xml version="1.0" encoding="utf-8" standalone="no"?>
<!DOCTYPE svg PUBLIC "-//W3C//DTD SVG 1.1//EN"
  "http://www.w3.org/Graphics/SVG/1.1/DTD/svg11.dtd">
<svg xmlns:xlink="http://www.w3.org/1999/xlink" width="720pt" height="432pt" viewBox="0 0 720 432" xmlns="http://www.w3.org/2000/svg" version="1.1">
 <metadata>
  <rdf:RDF xmlns:dc="http://purl.org/dc/elements/1.1/" xmlns:cc="http://creativecommons.org/ns#" xmlns:rdf="http://www.w3.org/1999/02/22-rdf-syntax-ns#">
   <cc:Work>
    <dc:type rdf:resource="http://purl.org/dc/dcmitype/StillImage"/>
    <dc:date>2025-02-05T20:32:18.795758</dc:date>
    <dc:format>image/svg+xml</dc:format>
    <dc:creator>
     <cc:Agent>
      <dc:title>Matplotlib v3.10.0, https://matplotlib.org/</dc:title>
     </cc:Agent>
    </dc:creator>
   </cc:Work>
  </rdf:RDF>
 </metadata>
 <defs>
  <style type="text/css">*{stroke-linejoin: round; stroke-linecap: butt}</style>
 </defs>
 <g id="figure_1">
  <g id="patch_1">
   <path d="M 0 432 
L 720 432 
L 720 0 
L 0 0 
z
" style="fill: #ffffff"/>
  </g>
  <g id="axes_1">
   <g id="patch_2">
    <path d="M 54.30125 390.04 
L 709.2 390.04 
L 709.2 25.44 
L 54.30125 25.44 
z
" style="fill: #ffffff"/>
   </g>
   <g id="FillBetweenPolyCollection_1">
    <defs>
     <path id="mcedbc6ba61" d="M 84.069375 -265.395653 
L 84.069375 -58.618893 
L 84.665333 -58.615231 
L 85.261292 -58.611569 
L 85.85725 -58.607908 
L 86.453209 -58.604246 
L 87.049167 -58.600585 
L 87.645126 -58.596923 
L 88.241084 -58.593262 
L 88.837043 -58.5896 
L 89.433001 -58.585939 
L 90.02896 -58.570066 
L 90.624918 -58.557085 
L 91.220877 -58.556371 
L 91.816835 -58.555656 
L 92.412793 -58.554942 
L 93.008752 -58.554228 
L 93.60471 -58.553513 
L 94.200669 -58.552799 
L 94.796627 -58.549313 
L 95.392586 -58.545168 
L 95.988544 -58.541023 
L 96.584503 -58.537666 
L 97.180461 -58.537727 
L 97.77642 -58.537788 
L 98.372378 -58.537848 
L 98.968336 -58.537909 
L 99.564295 -58.53797 
L 100.160253 -58.53803 
L 100.756212 -58.538091 
L 101.35217 -58.538152 
L 101.948129 -58.538212 
L 102.544087 -58.538273 
L 103.140046 -58.538102 
L 103.736004 -58.537866 
L 104.331963 -58.537629 
L 104.927921 -58.537393 
L 105.52388 -58.537157 
L 106.119838 -58.536921 
L 106.715796 -58.536685 
L 107.311755 -58.536448 
L 107.907713 -58.536212 
L 108.503672 -58.535976 
L 109.09963 -58.535865 
L 109.695589 -58.535963 
L 110.291547 -58.536061 
L 110.887506 -58.536159 
L 111.483464 -58.536257 
L 112.079423 -58.536355 
L 112.675381 -58.536454 
L 113.271339 -58.536552 
L 113.867298 -58.53665 
L 114.463256 -58.536748 
L 115.059215 -58.536846 
L 115.655173 -58.53706 
L 116.251132 -58.537279 
L 116.84709 -58.537497 
L 117.443049 -58.537715 
L 118.039007 -58.537934 
L 118.634966 -58.538152 
L 119.230924 -58.53837 
L 119.826883 -58.538589 
L 120.422841 -58.538807 
L 121.018799 -58.539025 
L 121.614758 -58.53906 
L 122.210716 -58.538952 
L 122.806675 -58.538844 
L 123.402633 -58.538735 
L 123.998592 -58.538627 
L 124.59455 -58.538519 
L 125.190509 -58.538411 
L 125.786467 -58.538303 
L 126.382426 -58.538195 
L 126.978384 -58.538086 
L 127.574342 -58.537996 
L 128.170301 -58.537998 
L 128.766259 -58.538001 
L 129.362218 -58.538004 
L 129.958176 -58.538007 
L 130.554135 -58.53801 
L 131.150093 -58.538013 
L 131.746052 -58.538015 
L 132.34201 -58.538018 
L 132.937969 -58.538021 
L 133.533927 -58.538024 
L 134.129886 -58.537923 
L 134.725844 -58.537788 
L 135.321802 -58.537653 
L 135.917761 -58.537518 
L 136.513719 -58.537383 
L 137.109678 -58.537248 
L 137.705636 -58.537113 
L 138.301595 -58.536978 
L 138.897553 -58.536843 
L 139.493512 -58.536708 
L 140.08947 -58.536589 
L 140.685429 -58.5365 
L 141.281387 -58.536411 
L 141.877345 -58.536321 
L 142.473304 -58.536232 
L 143.069262 -58.536143 
L 143.665221 -58.536053 
L 144.261179 -58.535964 
L 144.857138 -58.535875 
L 145.453096 -58.535785 
L 146.049055 -58.535696 
L 146.645013 -58.535692 
L 147.240972 -58.535694 
L 147.83693 -58.535697 
L 148.432889 -58.535699 
L 149.028847 -58.535701 
L 149.624805 -58.535703 
L 150.220764 -58.535705 
L 150.816722 -58.535707 
L 151.412681 -58.535709 
L 152.008639 -58.535711 
L 152.604598 -58.535684 
L 153.200556 -58.535631 
L 153.796515 -58.535578 
L 154.392473 -58.535524 
L 154.988432 -58.535471 
L 155.58439 -58.535418 
L 156.180348 -58.535365 
L 156.776307 -58.535312 
L 157.372265 -58.535258 
L 157.968224 -58.535205 
L 158.564182 -58.535172 
L 159.160141 -58.535283 
L 159.756099 -58.535394 
L 160.352058 -58.535504 
L 160.948016 -58.535615 
L 161.543975 -58.535726 
L 162.139933 -58.535836 
L 162.735892 -58.535947 
L 163.33185 -58.536057 
L 163.927808 -58.536168 
L 164.523767 -58.536279 
L 165.119725 -58.537066 
L 165.715684 -58.537723 
L 166.311642 -58.538381 
L 166.907601 -58.539038 
L 167.503559 -58.539695 
L 168.099518 -58.540352 
L 168.695476 -58.540624 
L 169.291435 -58.540834 
L 169.887393 -58.541043 
L 170.483351 -58.541252 
L 171.07931 -58.541339 
L 171.675268 -58.542088 
L 172.271227 -58.542615 
L 172.867185 -58.543042 
L 173.463144 -58.542925 
L 174.059102 -58.542807 
L 174.655061 -58.54269 
L 175.251019 -58.542572 
L 175.846978 -58.542454 
L 176.442936 -58.542337 
L 177.038895 -58.542219 
L 177.634853 -58.541661 
L 178.230811 -58.541057 
L 178.82677 -58.540454 
L 179.422728 -58.53985 
L 180.018687 -58.539246 
L 180.614645 -58.538643 
L 181.210604 -58.538039 
L 181.806562 -58.537436 
L 182.402521 -58.536832 
L 182.998479 -58.536117 
L 183.594438 -58.535568 
L 184.190396 -58.535557 
L 184.786354 -58.535546 
L 185.382313 -58.535534 
L 185.978271 -58.535523 
L 186.57423 -58.535512 
L 187.170188 -58.535501 
L 187.766147 -58.535489 
L 188.362105 -58.535478 
L 188.958064 -58.535467 
L 189.554022 -58.535469 
L 190.149981 -58.535595 
L 190.745939 -58.535722 
L 191.341898 -58.535849 
L 191.937856 -58.535976 
L 192.533814 -58.536103 
L 193.129773 -58.536229 
L 193.725731 -58.536356 
L 194.32169 -58.536483 
L 194.917648 -58.536434 
L 195.513607 -58.536162 
L 196.109565 -58.535752 
L 196.705524 -58.535955 
L 197.301482 -58.536158 
L 197.897441 -58.536317 
L 198.493399 -58.536193 
L 199.089357 -58.536068 
L 199.685316 -58.535944 
L 200.281274 -58.535819 
L 200.877233 -58.535694 
L 201.473191 -58.53557 
L 202.06915 -58.53545 
L 202.665108 -58.53534 
L 203.261067 -58.535231 
L 203.857025 -58.535121 
L 204.452984 -58.535011 
L 205.048942 -58.534902 
L 205.644901 -58.534792 
L 206.240859 -58.534683 
L 206.836817 -58.534573 
L 207.432776 -58.534464 
L 208.028734 -58.534354 
L 208.624693 -58.534513 
L 209.220651 -58.53471 
L 209.81661 -58.534908 
L 210.412568 -58.535105 
L 211.008527 -58.535302 
L 211.604485 -58.535499 
L 212.200444 -58.535697 
L 212.796402 -58.535894 
L 213.39236 -58.536091 
L 213.988319 -58.536152 
L 214.584277 -58.536159 
L 215.180236 -58.53622 
L 215.776194 -58.536102 
L 216.372153 -58.535984 
L 216.968111 -58.535866 
L 217.56407 -58.535748 
L 218.160028 -58.53563 
L 218.755987 -58.535512 
L 219.351945 -58.535395 
L 219.947904 -58.535255 
L 220.543862 -58.535093 
L 221.13982 -58.535131 
L 221.735779 -58.535169 
L 222.331737 -58.535207 
L 222.927696 -58.535246 
L 223.523654 -58.535284 
L 224.119613 -58.535322 
L 224.715571 -58.53536 
L 225.31153 -58.535398 
L 225.907488 -58.535437 
L 226.503447 -58.535475 
L 227.099405 -58.535635 
L 227.695363 -58.535858 
L 228.291322 -58.536081 
L 228.88728 -58.536304 
L 229.483239 -58.536527 
L 230.079197 -58.536751 
L 230.675156 -58.536974 
L 231.271114 -58.537197 
L 231.867073 -58.53742 
L 232.463031 -58.537644 
L 233.05899 -58.537758 
L 233.654948 -58.537546 
L 234.250907 -58.537334 
L 234.846865 -58.537122 
L 235.442823 -58.53691 
L 236.038782 -58.536698 
L 236.63474 -58.536486 
L 237.230699 -58.536274 
L 237.826657 -58.536062 
L 238.422616 -58.53585 
L 239.018574 -58.535114 
L 239.614533 -58.534825 
L 240.210491 -58.534899 
L 240.80645 -58.534972 
L 241.402408 -58.535045 
L 241.998366 -58.535118 
L 242.594325 -58.535191 
L 243.190283 -58.535265 
L 243.786242 -58.535338 
L 244.3822 -58.535411 
L 244.978159 -58.535484 
L 245.574117 -58.5358 
L 246.170076 -58.53586 
L 246.766034 -58.535747 
L 247.361993 -58.535628 
L 247.957951 -58.53551 
L 248.55391 -58.535392 
L 249.149868 -58.535274 
L 249.745826 -58.535156 
L 250.341785 -58.535038 
L 250.937743 -58.534919 
L 251.533702 -58.534806 
L 252.12966 -58.534845 
L 252.725619 -58.534884 
L 253.321577 -58.534923 
L 253.917536 -58.534962 
L 254.513494 -58.535001 
L 255.109453 -58.53504 
L 255.705411 -58.535079 
L 256.301369 -58.535118 
L 256.897328 -58.534964 
L 257.493286 -58.534804 
L 258.089245 -58.535147 
L 258.685203 -58.535046 
L 259.281162 -58.534944 
L 259.87712 -58.534842 
L 260.473079 -58.53474 
L 261.069037 -58.534639 
L 261.664996 -58.534537 
L 262.260954 -58.534435 
L 262.856913 -58.534334 
L 263.452871 -58.534232 
L 264.048829 -58.534158 
L 264.644788 -58.534182 
L 265.240746 -58.534206 
L 265.836705 -58.53423 
L 266.432663 -58.534254 
L 267.028622 -58.534279 
L 267.62458 -58.534303 
L 268.220539 -58.534327 
L 268.816497 -58.534351 
L 269.412456 -58.534375 
L 270.008414 -58.5344 
L 270.604372 -58.534423 
L 271.200331 -58.534447 
L 271.796289 -58.53447 
L 272.392248 -58.534494 
L 272.988206 -58.534518 
L 273.584165 -58.534541 
L 274.180123 -58.534565 
L 274.776082 -58.534588 
L 275.37204 -58.534612 
L 275.967999 -58.534635 
L 276.563957 -58.534675 
L 277.159916 -58.534696 
L 277.755874 -58.534658 
L 278.351832 -58.53462 
L 278.947791 -58.534582 
L 279.543749 -58.534544 
L 280.139708 -58.534506 
L 280.735666 -58.534469 
L 281.331625 -58.534431 
L 281.927583 -58.534393 
L 282.523542 -58.534355 
L 283.1195 -58.53441 
L 283.715459 -58.534465 
L 284.311417 -58.534521 
L 284.907376 -58.534576 
L 285.503334 -58.534631 
L 286.099292 -58.534686 
L 286.695251 -58.534741 
L 287.291209 -58.534797 
L 287.887168 -58.534852 
L 288.483126 -58.534907 
L 289.079085 -58.534893 
L 289.675043 -58.534888 
L 290.271002 -58.534883 
L 290.86696 -58.534878 
L 291.462919 -58.534873 
L 292.058877 -58.534867 
L 292.654835 -58.534862 
L 293.250794 -58.534857 
L 293.846752 -58.534852 
L 294.442711 -58.534846 
L 295.038669 -58.534864 
L 295.634628 -58.534982 
L 296.230586 -58.5351 
L 296.826545 -58.535218 
L 297.422503 -58.535336 
L 298.018462 -58.535281 
L 298.61442 -58.535094 
L 299.210379 -58.534907 
L 299.806337 -58.534721 
L 300.402295 -58.534534 
L 300.998254 -58.534347 
L 301.594212 -58.5343 
L 302.190171 -58.534292 
L 302.786129 -58.534285 
L 303.382088 -58.534277 
L 303.978046 -58.534269 
L 304.574005 -58.534261 
L 305.169963 -58.534254 
L 305.765922 -58.534246 
L 306.36188 -58.534238 
L 306.957838 -58.53423 
L 307.553797 -58.534263 
L 308.149755 -58.534364 
L 308.745714 -58.534464 
L 309.341672 -58.534565 
L 309.937631 -58.534665 
L 310.533589 -58.534765 
L 311.129548 -58.534866 
L 311.725506 -58.534966 
L 312.321465 -58.535067 
L 312.917423 -58.535167 
L 313.513382 -58.535268 
L 314.10934 -58.535234 
L 314.705298 -58.535195 
L 315.301257 -58.535157 
L 315.897215 -58.535119 
L 316.493174 -58.535081 
L 317.089132 -58.535042 
L 317.685091 -58.535004 
L 318.281049 -58.534966 
L 318.877008 -58.534928 
L 319.472966 -58.534889 
L 320.068925 -58.535243 
L 320.664883 -58.53545 
L 321.260841 -58.535316 
L 321.8568 -58.535181 
L 322.452758 -58.535047 
L 323.048717 -58.534912 
L 323.644675 -58.534778 
L 324.240634 -58.534529 
L 324.836592 -58.534267 
L 325.432551 -58.534004 
L 326.028509 -58.533809 
L 326.624468 -58.533975 
L 327.220426 -58.534141 
L 327.816385 -58.534307 
L 328.412343 -58.534472 
L 329.008301 -58.534638 
L 329.60426 -58.534804 
L 330.200218 -58.53497 
L 330.796177 -58.535136 
L 331.392135 -58.535302 
L 331.988094 -58.535468 
L 332.584052 -58.535451 
L 333.180011 -58.535373 
L 333.775969 -58.535295 
L 334.371928 -58.535217 
L 334.967886 -58.535139 
L 335.563844 -58.535061 
L 336.159803 -58.534984 
L 336.755761 -58.534906 
L 337.35172 -58.534828 
L 337.947678 -58.53475 
L 338.543637 -58.53471 
L 339.139595 -58.534712 
L 339.735554 -58.534715 
L 340.331512 -58.534717 
L 340.927471 -58.53472 
L 341.523429 -58.534723 
L 342.119388 -58.534725 
L 342.715346 -58.534728 
L 343.311304 -58.53473 
L 343.907263 -58.534733 
L 344.503221 -58.534735 
L 345.09918 -58.534735 
L 345.695138 -58.534701 
L 346.291097 -58.534666 
L 346.887055 -58.534631 
L 347.483014 -58.534597 
L 348.078972 -58.534562 
L 348.674931 -58.534527 
L 349.270889 -58.534493 
L 349.866847 -58.534458 
L 350.462806 -58.534424 
L 351.058764 -58.534458 
L 351.654723 -58.534554 
L 352.250681 -58.53465 
L 352.84664 -58.534747 
L 353.442598 -58.534843 
L 354.038557 -58.534939 
L 354.634515 -58.535035 
L 355.230474 -58.535131 
L 355.826432 -58.535227 
L 356.422391 -58.535323 
L 357.018349 -58.535388 
L 357.614307 -58.53524 
L 358.210266 -58.535092 
L 358.806224 -58.534944 
L 359.402183 -58.534796 
L 359.998141 -58.534648 
L 360.5941 -58.5345 
L 361.190058 -58.534353 
L 361.786017 -58.534205 
L 362.381975 -58.534057 
L 362.977934 -58.533909 
L 363.573892 -58.534492 
L 364.16985 -58.53449 
L 364.765809 -58.534488 
L 365.361767 -58.534486 
L 365.957726 -58.534484 
L 366.553684 -58.534482 
L 367.149643 -58.53448 
L 367.745601 -58.534478 
L 368.34156 -58.534476 
L 368.937518 -58.534474 
L 369.533477 -58.534466 
L 370.129435 -58.534444 
L 370.725394 -58.534423 
L 371.321352 -58.534401 
L 371.91731 -58.534379 
L 372.513269 -58.534357 
L 373.109227 -58.534335 
L 373.705186 -58.534313 
L 374.301144 -58.534291 
L 374.897103 -58.534269 
L 375.493061 -58.534248 
L 376.08902 -58.534192 
L 376.684978 -58.534133 
L 377.280937 -58.534074 
L 377.876895 -58.534015 
L 378.472853 -58.533956 
L 379.068812 -58.533897 
L 379.66477 -58.533838 
L 380.260729 -58.533779 
L 380.856687 -58.53372 
L 381.452646 -58.533661 
L 382.048604 -58.533624 
L 382.644563 -58.533607 
L 383.240521 -58.53359 
L 383.83648 -58.533574 
L 384.432438 -58.533557 
L 385.028397 -58.53354 
L 385.624355 -58.533524 
L 386.220313 -58.533507 
L 386.816272 -58.53349 
L 387.41223 -58.533474 
L 388.008189 -58.533459 
L 388.604147 -58.533462 
L 389.200106 -58.533465 
L 389.796064 -58.533468 
L 390.392023 -58.533471 
L 390.987981 -58.533474 
L 391.58394 -58.533477 
L 392.179898 -58.53348 
L 392.775856 -58.533483 
L 393.371815 -58.533487 
L 393.967773 -58.53349 
L 394.563732 -58.533541 
L 395.15969 -58.533615 
L 395.755649 -58.533689 
L 396.351607 -58.533763 
L 396.947566 -58.533837 
L 397.543524 -58.533911 
L 398.139483 -58.533984 
L 398.735441 -58.534058 
L 399.3314 -58.534132 
L 399.927358 -58.534206 
L 400.523316 -58.534243 
L 401.119275 -58.534186 
L 401.715233 -58.53413 
L 402.311192 -58.534073 
L 402.90715 -58.534016 
L 403.503109 -58.53396 
L 404.099067 -58.533903 
L 404.695026 -58.533847 
L 405.290984 -58.53379 
L 405.886943 -58.533733 
L 406.482901 -58.533677 
L 407.078859 -58.533737 
L 407.674818 -58.533813 
L 408.270776 -58.53389 
L 408.866735 -58.533967 
L 409.462693 -58.534044 
L 410.058652 -58.53407 
L 410.65461 -58.534054 
L 411.250569 -58.534038 
L 411.846527 -58.534022 
L 412.442486 -58.534006 
L 413.038444 -58.534173 
L 413.634403 -58.53421 
L 414.230361 -58.534222 
L 414.826319 -58.534233 
L 415.422278 -58.534244 
L 416.018236 -58.534194 
L 416.614195 -58.534144 
L 417.210153 -58.534094 
L 417.806112 -58.534044 
L 418.40207 -58.533994 
L 418.998029 -58.533948 
L 419.593987 -58.533955 
L 420.189946 -58.533962 
L 420.785904 -58.533969 
L 421.381862 -58.533977 
L 421.977821 -58.533984 
L 422.573779 -58.533924 
L 423.169738 -58.533859 
L 423.765696 -58.533795 
L 424.361655 -58.53373 
L 424.957613 -58.533665 
L 425.553572 -58.533564 
L 426.14953 -58.533568 
L 426.745489 -58.533572 
L 427.341447 -58.533576 
L 427.937406 -58.53358 
L 428.533364 -58.533584 
L 429.129322 -58.533589 
L 429.725281 -58.533593 
L 430.321239 -58.533597 
L 430.917198 -58.533601 
L 431.513156 -58.53361 
L 432.109115 -58.533633 
L 432.705073 -58.533656 
L 433.301032 -58.533678 
L 433.89699 -58.533701 
L 434.492949 -58.533724 
L 435.088907 -58.533747 
L 435.684865 -58.533727 
L 436.280824 -58.533683 
L 436.876782 -58.53364 
L 437.472741 -58.533596 
L 438.068699 -58.53357 
L 438.664658 -58.533548 
L 439.260616 -58.533525 
L 439.856575 -58.533502 
L 440.452533 -58.53348 
L 441.048492 -58.533457 
L 441.64445 -58.533434 
L 442.240409 -58.533412 
L 442.836367 -58.533389 
L 443.432325 -58.533367 
L 444.028284 -58.533355 
L 444.624242 -58.533359 
L 445.220201 -58.533363 
L 445.816159 -58.533366 
L 446.412118 -58.53337 
L 447.008076 -58.533374 
L 447.604035 -58.533377 
L 448.199993 -58.533381 
L 448.795952 -58.533385 
L 449.39191 -58.533388 
L 449.987868 -58.533391 
L 450.583827 -58.533368 
L 451.179785 -58.533345 
L 451.775744 -58.533321 
L 452.371702 -58.533298 
L 452.967661 -58.533275 
L 453.563619 -58.533252 
L 454.159578 -58.533228 
L 454.755536 -58.533205 
L 455.351495 -58.533182 
L 455.947453 -58.533159 
L 456.543412 -58.533159 
L 457.13937 -58.533173 
L 457.735328 -58.533188 
L 458.331287 -58.533203 
L 458.927245 -58.533217 
L 459.523204 -58.533232 
L 460.119162 -58.533246 
L 460.715121 -58.533261 
L 461.311079 -58.533275 
L 461.907038 -58.53329 
L 462.502996 -58.533306 
L 463.098955 -58.533328 
L 463.694913 -58.53335 
L 464.290871 -58.533372 
L 464.88683 -58.533395 
L 465.482788 -58.533417 
L 466.078747 -58.533439 
L 466.674705 -58.533461 
L 467.270664 -58.533483 
L 467.866622 -58.533505 
L 468.462581 -58.533527 
L 469.058539 -58.533575 
L 469.654498 -58.53355 
L 470.250456 -58.533521 
L 470.846415 -58.533493 
L 471.442373 -58.533465 
L 472.038331 -58.533436 
L 472.63429 -58.533408 
L 473.230248 -58.53338 
L 473.826207 -58.533351 
L 474.422165 -58.533323 
L 475.018124 -58.533307 
L 475.614082 -58.533308 
L 476.210041 -58.533309 
L 476.805999 -58.53331 
L 477.401958 -58.533312 
L 477.997916 -58.533313 
L 478.593874 -58.533314 
L 479.189833 -58.533315 
L 479.785791 -58.533317 
L 480.38175 -58.533318 
L 480.977708 -58.533319 
L 481.573667 -58.533322 
L 482.169625 -58.533325 
L 482.765584 -58.533329 
L 483.361542 -58.533332 
L 483.957501 -58.533335 
L 484.553459 -58.533338 
L 485.149418 -58.533341 
L 485.745376 -58.533344 
L 486.341334 -58.533347 
L 486.937293 -58.533351 
L 487.533251 -58.533341 
L 488.12921 -58.533324 
L 488.725168 -58.533307 
L 489.321127 -58.533289 
L 489.917085 -58.533272 
L 490.513044 -58.533254 
L 491.109002 -58.533237 
L 491.704961 -58.533219 
L 492.300919 -58.533202 
L 492.896878 -58.533184 
L 493.492836 -58.533177 
L 494.088794 -58.533211 
L 494.684753 -58.533245 
L 495.280711 -58.53328 
L 495.87667 -58.533314 
L 496.472628 -58.533348 
L 497.068587 -58.533382 
L 497.664545 -58.533417 
L 498.260504 -58.533451 
L 498.856462 -58.533485 
L 499.452421 -58.53352 
L 500.048379 -58.533516 
L 500.644337 -58.533502 
L 501.240296 -58.533487 
L 501.836254 -58.533473 
L 502.432213 -58.533459 
L 503.028171 -58.533444 
L 503.62413 -58.53343 
L 504.220088 -58.533416 
L 504.816047 -58.533401 
L 505.412005 -58.533387 
L 506.007964 -58.533379 
L 506.603922 -58.533383 
L 507.199881 -58.533386 
L 507.795839 -58.533389 
L 508.391797 -58.533392 
L 508.987756 -58.533395 
L 509.583714 -58.533399 
L 510.179673 -58.533402 
L 510.775631 -58.533405 
L 511.37159 -58.533408 
L 511.967548 -58.533411 
L 512.563507 -58.533411 
L 513.159465 -58.53341 
L 513.755424 -58.533409 
L 514.351382 -58.533408 
L 514.94734 -58.533408 
L 515.543299 -58.533407 
L 516.139257 -58.533406 
L 516.735216 -58.533405 
L 517.331174 -58.533405 
L 517.927133 -58.533404 
L 518.523091 -58.533407 
L 519.11905 -58.533414 
L 519.715008 -58.533421 
L 520.310967 -58.533428 
L 520.906925 -58.533434 
L 521.502884 -58.533441 
L 522.098842 -58.533448 
L 522.6948 -58.533455 
L 523.290759 -58.533461 
L 523.886717 -58.533468 
L 524.482676 -58.533475 
L 525.078634 -58.533483 
L 525.674593 -58.533491 
L 526.270551 -58.533499 
L 526.86651 -58.533507 
L 527.462468 -58.533515 
L 528.058427 -58.533523 
L 528.654385 -58.533531 
L 529.250343 -58.533539 
L 529.846302 -58.533548 
L 530.44226 -58.533556 
L 531.038219 -58.53354 
L 531.634177 -58.533517 
L 532.230136 -58.533494 
L 532.826094 -58.533471 
L 533.422053 -58.533448 
L 534.018011 -58.533424 
L 534.61397 -58.533401 
L 535.209928 -58.533378 
L 535.805887 -58.533355 
L 536.401845 -58.533332 
L 536.997803 -58.533319 
L 537.593762 -58.533326 
L 538.18972 -58.533333 
L 538.785679 -58.53334 
L 539.381637 -58.533347 
L 539.977596 -58.533354 
L 540.573554 -58.533361 
L 541.169513 -58.533368 
L 541.765471 -58.533375 
L 542.36143 -58.533382 
L 542.957388 -58.533389 
L 543.553346 -58.533372 
L 544.149305 -58.533353 
L 544.745263 -58.533334 
L 545.341222 -58.533315 
L 545.93718 -58.533296 
L 546.533139 -58.533277 
L 547.129097 -58.533258 
L 547.725056 -58.533239 
L 548.321014 -58.53322 
L 548.916973 -58.533201 
L 549.512931 -58.533214 
L 550.10889 -58.533256 
L 550.704848 -58.533298 
L 551.300806 -58.53334 
L 551.896765 -58.533382 
L 552.492723 -58.533383 
L 553.088682 -58.53337 
L 553.68464 -58.533357 
L 554.280599 -58.533344 
L 554.876557 -58.533331 
L 555.472516 -58.533348 
L 556.068474 -58.533577 
L 556.664433 -58.533677 
L 557.260391 -58.53361 
L 557.856349 -58.533526 
L 558.452308 -58.533442 
L 559.048266 -58.533358 
L 559.644225 -58.533273 
L 560.240183 -58.533189 
L 560.836142 -58.533105 
L 561.4321 -58.533021 
L 562.028059 -58.533009 
L 562.624017 -58.533026 
L 563.219976 -58.533043 
L 563.815934 -58.533059 
L 564.411893 -58.533076 
L 565.007851 -58.533093 
L 565.603809 -58.53311 
L 566.199768 -58.533126 
L 566.795726 -58.53304 
L 567.391685 -58.532945 
L 567.987643 -58.532908 
L 568.583602 -58.533001 
L 569.17956 -58.533093 
L 569.775519 -58.533185 
L 570.371477 -58.533195 
L 570.967436 -58.5332 
L 571.563394 -58.533206 
L 572.159352 -58.533211 
L 572.755311 -58.533217 
L 573.351269 -58.533222 
L 573.947228 -58.533228 
L 574.543186 -58.533216 
L 575.139145 -58.533202 
L 575.735103 -58.533189 
L 576.331062 -58.533175 
L 576.92702 -58.533162 
L 577.522979 -58.533148 
L 578.118937 -58.533135 
L 578.714896 -58.533121 
L 579.310854 -58.533058 
L 579.906812 -58.532971 
L 580.502771 -58.532927 
L 581.098729 -58.532927 
L 581.694688 -58.532927 
L 582.290646 -58.532926 
L 582.886605 -58.532926 
L 583.482563 -58.532926 
L 584.078522 -58.532926 
L 584.67448 -58.532926 
L 585.270439 -58.532926 
L 585.866397 -58.532926 
L 586.462355 -58.532926 
L 587.058314 -58.532933 
L 587.654272 -58.532941 
L 588.250231 -58.532948 
L 588.846189 -58.532955 
L 589.442148 -58.532962 
L 590.038106 -58.532969 
L 590.634065 -58.532977 
L 591.230023 -58.532984 
L 591.825982 -58.532991 
L 592.42194 -58.532998 
L 593.017899 -58.533007 
L 593.613857 -58.533016 
L 594.209815 -58.533025 
L 594.805774 -58.533035 
L 595.401732 -58.533044 
L 595.997691 -58.533053 
L 596.593649 -58.533062 
L 597.189608 -58.533072 
L 597.785566 -58.533081 
L 598.381525 -58.53309 
L 598.977483 -58.53309 
L 599.573442 -58.533065 
L 600.1694 -58.53304 
L 600.765358 -58.533015 
L 601.361317 -58.53299 
L 601.957275 -58.532965 
L 602.553234 -58.53294 
L 603.149192 -58.532915 
L 603.745151 -58.53289 
L 604.341109 -58.532865 
L 604.937068 -58.532839 
L 605.533026 -58.532851 
L 606.128985 -58.532867 
L 606.724943 -58.532884 
L 607.320902 -58.5329 
L 607.91686 -58.532917 
L 608.512818 -58.532933 
L 609.108777 -58.532949 
L 609.704735 -58.532966 
L 610.300694 -58.532982 
L 610.896652 -58.532999 
L 611.492611 -58.533005 
L 612.088569 -58.532999 
L 612.684528 -58.532993 
L 613.280486 -58.532987 
L 613.876445 -58.532981 
L 614.472403 -58.532975 
L 615.068361 -58.532969 
L 615.66432 -58.532963 
L 616.260278 -58.532957 
L 616.856237 -58.532951 
L 617.452195 -58.532945 
L 618.048154 -58.532927 
L 618.644112 -58.53291 
L 619.240071 -58.532893 
L 619.836029 -58.532876 
L 620.431988 -58.532859 
L 621.027946 -58.532842 
L 621.623905 -58.532825 
L 622.219863 -58.532808 
L 622.815821 -58.532791 
L 623.41178 -58.532774 
L 624.007738 -58.532775 
L 624.603697 -58.532786 
L 625.199655 -58.532798 
L 625.795614 -58.532809 
L 626.391572 -58.53282 
L 626.987531 -58.532831 
L 627.583489 -58.532842 
L 628.179448 -58.532853 
L 628.775406 -58.532865 
L 629.371364 -58.532876 
L 629.967323 -58.532884 
L 630.563281 -58.532883 
L 631.15924 -58.532883 
L 631.755198 -58.532882 
L 632.351157 -58.532881 
L 632.947115 -58.532881 
L 633.543074 -58.53288 
L 634.139032 -58.532879 
L 634.734991 -58.532878 
L 635.330949 -58.532878 
L 635.926908 -58.532877 
L 636.522866 -58.532891 
L 637.118824 -58.532908 
L 637.714783 -58.532925 
L 638.310741 -58.532942 
L 638.9067 -58.532958 
L 639.502658 -58.532975 
L 640.098617 -58.532992 
L 640.694575 -58.533009 
L 641.290534 -58.533026 
L 641.886492 -58.533043 
L 642.482451 -58.533045 
L 643.078409 -58.533028 
L 643.674367 -58.533012 
L 644.270326 -58.532995 
L 644.866284 -58.532978 
L 645.462243 -58.532962 
L 646.058201 -58.532945 
L 646.65416 -58.532929 
L 647.250118 -58.532912 
L 647.846077 -58.532895 
L 648.442035 -58.532879 
L 649.037994 -58.532874 
L 649.633952 -58.532869 
L 650.229911 -58.532864 
L 650.825869 -58.532859 
L 651.421827 -58.532854 
L 652.017786 -58.532849 
L 652.613744 -58.532844 
L 653.209703 -58.532838 
L 653.805661 -58.532833 
L 654.40162 -58.532828 
L 654.997578 -58.532823 
L 655.593537 -58.532818 
L 656.189495 -58.532813 
L 656.785454 -58.532808 
L 657.381412 -58.532803 
L 657.97737 -58.532797 
L 658.573329 -58.532792 
L 659.169287 -58.532787 
L 659.765246 -58.532782 
L 660.361204 -58.532777 
L 660.957163 -58.532774 
L 661.553121 -58.532781 
L 662.14908 -58.532788 
L 662.745038 -58.532794 
L 663.340997 -58.532801 
L 663.936955 -58.532807 
L 664.532914 -58.532814 
L 665.128872 -58.53282 
L 665.72483 -58.532827 
L 666.320789 -58.532834 
L 666.916747 -58.53284 
L 667.512706 -58.532832 
L 668.108664 -58.53282 
L 668.704623 -58.532809 
L 669.300581 -58.532797 
L 669.89654 -58.532785 
L 670.492498 -58.532774 
L 671.088457 -58.532762 
L 671.684415 -58.532751 
L 672.280373 -58.532739 
L 672.876332 -58.532727 
L 673.47229 -58.532729 
L 674.068249 -58.53275 
L 674.664207 -58.532771 
L 675.260166 -58.532792 
L 675.856124 -58.532813 
L 676.452083 -58.532834 
L 677.048041 -58.532855 
L 677.644 -58.532876 
L 678.239958 -58.532897 
L 678.835917 -58.532918 
L 679.431875 -58.532939 
L 679.431875 -273.485884 
L 679.431875 -273.485884 
L 678.835917 -285.100149 
L 678.239958 -296.714413 
L 677.644 -308.328677 
L 677.048041 -319.942942 
L 676.452083 -331.557206 
L 675.856124 -343.171471 
L 675.260166 -354.785735 
L 674.664207 -366.399999 
L 674.068249 -378.014264 
L 673.47229 -389.628528 
L 672.876332 -389.987273 
L 672.280373 -382.644872 
L 671.684415 -375.302471 
L 671.088457 -367.96007 
L 670.492498 -360.61767 
L 669.89654 -353.275269 
L 669.300581 -345.932868 
L 668.704623 -338.590467 
L 668.108664 -331.248066 
L 667.512706 -323.905666 
L 666.916747 -316.563782 
L 666.320789 -309.224137 
L 665.72483 -301.884492 
L 665.128872 -294.544847 
L 664.532914 -287.205202 
L 663.936955 -279.865557 
L 663.340997 -272.525913 
L 662.745038 -265.186268 
L 662.14908 -257.846623 
L 661.553121 -250.506978 
L 660.957163 -243.167333 
L 660.361204 -241.031084 
L 659.765246 -240.351785 
L 659.169287 -239.672486 
L 658.573329 -238.993187 
L 657.97737 -238.313888 
L 657.381412 -237.634589 
L 656.785454 -236.95529 
L 656.189495 -236.275992 
L 655.593537 -235.596693 
L 654.997578 -234.917394 
L 654.40162 -230.941818 
L 653.805661 -221.472446 
L 653.209703 -212.005082 
L 652.613744 -212.383119 
L 652.017786 -212.761156 
L 651.421827 -213.139194 
L 650.825869 -213.517231 
L 650.229911 -213.895269 
L 649.633952 -214.273306 
L 649.037994 -214.651343 
L 648.442035 -215.029381 
L 647.846077 -212.953424 
L 647.250118 -210.798306 
L 646.65416 -208.643188 
L 646.058201 -206.48807 
L 645.462243 -204.332952 
L 644.866284 -202.177834 
L 644.270326 -200.022716 
L 643.674367 -197.867598 
L 643.078409 -195.712481 
L 642.482451 -193.642884 
L 641.886492 -195.133147 
L 641.290534 -197.412483 
L 640.694575 -199.691819 
L 640.098617 -201.971155 
L 639.502658 -204.25049 
L 638.9067 -206.529826 
L 638.310741 -208.809162 
L 637.714783 -211.088498 
L 637.118824 -213.367833 
L 636.522866 -215.647169 
L 635.926908 -218.192673 
L 635.330949 -222.175485 
L 634.734991 -226.158297 
L 634.139032 -230.141109 
L 633.543074 -234.123921 
L 632.947115 -238.106732 
L 632.351157 -242.089544 
L 631.755198 -246.072356 
L 631.15924 -250.055168 
L 630.563281 -254.03798 
L 629.967323 -258.020792 
L 629.371364 -258.09921 
L 628.775406 -256.876164 
L 628.179448 -255.653118 
L 627.583489 -254.430072 
L 626.987531 -253.207025 
L 626.391572 -251.983979 
L 625.795614 -250.760933 
L 625.199655 -249.537887 
L 624.603697 -248.314841 
L 624.007738 -249.700906 
L 623.41178 -255.595858 
L 622.815821 -246.609566 
L 622.219863 -237.623273 
L 621.623905 -228.636981 
L 621.027946 -219.650688 
L 620.431988 -210.664395 
L 619.836029 -215.068833 
L 619.240071 -227.889408 
L 618.644112 -240.709984 
L 618.048154 -253.530559 
L 617.452195 -266.351135 
L 616.856237 -252.050116 
L 616.260278 -235.940992 
L 615.66432 -219.831867 
L 615.068361 -203.722743 
L 614.472403 -204.451875 
L 613.876445 -207.472246 
L 613.280486 -210.492616 
L 612.684528 -213.512987 
L 612.088569 -216.533358 
L 611.492611 -219.553728 
L 610.896652 -220.279266 
L 610.300694 -218.979952 
L 609.704735 -217.680637 
L 609.108777 -216.381323 
L 608.512818 -215.082009 
L 607.91686 -213.782694 
L 607.320902 -214.091921 
L 606.724943 -216.839832 
L 606.128985 -219.587743 
L 605.533026 -222.335653 
L 604.937068 -223.849611 
L 604.341109 -216.725896 
L 603.745151 -210.906966 
L 603.149192 -212.534463 
L 602.553234 -214.161959 
L 601.957275 -215.789456 
L 601.361317 -217.416952 
L 600.765358 -219.044449 
L 600.1694 -220.671945 
L 599.573442 -222.299441 
L 598.977483 -223.926938 
L 598.381525 -231.746835 
L 597.785566 -241.989847 
L 597.189608 -252.232858 
L 596.593649 -262.475869 
L 595.997691 -272.71888 
L 595.401732 -282.961891 
L 594.805774 -293.204902 
L 594.209815 -303.447913 
L 593.613857 -313.690924 
L 593.017899 -323.933935 
L 592.42194 -327.024959 
L 591.825982 -314.381612 
L 591.230023 -301.738265 
L 590.634065 -289.094918 
L 590.038106 -276.45157 
L 589.442148 -263.808223 
L 588.846189 -251.164876 
L 588.250231 -238.521529 
L 587.654272 -225.878182 
L 587.058314 -213.234835 
L 586.462355 -200.591488 
L 585.866397 -211.879765 
L 585.270439 -225.643728 
L 584.67448 -239.40769 
L 584.078522 -253.171653 
L 583.482563 -266.935615 
L 582.886605 -280.699578 
L 582.290646 -294.46354 
L 581.694688 -308.227503 
L 581.098729 -321.991465 
L 580.502771 -335.755428 
L 579.906812 -334.369972 
L 579.310854 -317.835099 
L 578.714896 -301.300226 
L 578.118937 -284.765352 
L 577.522979 -272.259763 
L 576.92702 -285.272736 
L 576.331062 -298.285709 
L 575.735103 -311.298682 
L 575.139145 -324.311655 
L 574.543186 -337.324627 
L 573.947228 -347.586182 
L 573.351269 -331.250691 
L 572.755311 -314.915199 
L 572.159352 -298.579708 
L 571.563394 -282.244217 
L 570.967436 -265.908726 
L 570.371477 -249.573235 
L 569.775519 -233.237744 
L 569.17956 -216.902252 
L 568.583602 -205.571745 
L 567.987643 -209.420582 
L 567.391685 -208.092318 
L 566.795726 -204.410826 
L 566.199768 -200.729334 
L 565.603809 -197.047842 
L 565.007851 -193.36635 
L 564.411893 -189.684858 
L 563.815934 -186.003366 
L 563.219976 -182.321874 
L 562.624017 -178.640382 
L 562.028059 -183.185389 
L 561.4321 -188.45321 
L 560.836142 -191.26543 
L 560.240183 -194.07765 
L 559.644225 -196.88987 
L 559.048266 -199.70209 
L 558.452308 -202.514309 
L 557.856349 -205.326529 
L 557.260391 -208.138749 
L 556.664433 -210.950969 
L 556.068474 -213.763189 
L 555.472516 -216.575409 
L 554.876557 -213.257034 
L 554.280599 -209.062861 
L 553.68464 -204.868687 
L 553.088682 -200.674513 
L 552.492723 -196.48034 
L 551.896765 -192.286166 
L 551.300806 -188.091993 
L 550.704848 -183.897819 
L 550.10889 -179.703646 
L 549.512931 -175.509472 
L 548.916973 -175.070663 
L 548.321014 -178.887933 
L 547.725056 -182.705204 
L 547.129097 -186.522474 
L 546.533139 -190.339745 
L 545.93718 -199.823656 
L 545.341222 -213.778464 
L 544.745263 -227.733272 
L 544.149305 -241.68808 
L 543.553346 -255.642887 
L 542.957388 -268.557697 
L 542.36143 -265.872526 
L 541.765471 -263.187355 
L 541.169513 -260.502184 
L 540.573554 -257.817013 
L 539.977596 -255.131843 
L 539.381637 -252.446672 
L 538.785679 -249.761501 
L 538.18972 -247.07633 
L 537.593762 -244.39116 
L 536.997803 -241.705989 
L 536.401845 -238.527931 
L 535.805887 -235.091694 
L 535.209928 -231.655457 
L 534.61397 -228.219221 
L 534.018011 -224.782984 
L 533.422053 -221.346747 
L 532.826094 -217.91051 
L 532.230136 -214.474274 
L 531.634177 -211.038037 
L 531.038219 -207.6018 
L 530.44226 -205.861983 
L 529.846302 -209.211425 
L 529.250343 -212.560867 
L 528.654385 -215.91031 
L 528.058427 -219.259752 
L 527.462468 -222.609194 
L 526.86651 -225.958636 
L 526.270551 -229.308078 
L 525.674593 -235.019057 
L 525.078634 -248.833146 
L 524.482676 -262.647234 
L 523.886717 -258.720421 
L 523.290759 -251.508255 
L 522.6948 -244.29609 
L 522.098842 -237.083924 
L 521.502884 -229.871758 
L 520.906925 -222.659593 
L 520.310967 -215.447427 
L 519.715008 -213.01284 
L 519.11905 -225.557577 
L 518.523091 -238.102314 
L 517.927133 -242.31466 
L 517.331174 -235.813931 
L 516.735216 -229.313202 
L 516.139257 -222.812474 
L 515.543299 -216.311745 
L 514.94734 -220.929338 
L 514.351382 -226.662718 
L 513.755424 -232.396097 
L 513.159465 -238.129477 
L 512.563507 -243.862856 
L 511.967548 -249.217573 
L 511.37159 -242.833748 
L 510.775631 -236.449923 
L 510.179673 -230.066098 
L 509.583714 -223.682272 
L 508.987756 -234.133872 
L 508.391797 -245.388202 
L 507.795839 -256.642533 
L 507.199881 -267.896863 
L 506.603922 -279.151194 
L 506.007964 -290.405525 
L 505.412005 -289.229631 
L 504.816047 -280.595603 
L 504.220088 -271.961575 
L 503.62413 -263.327547 
L 503.028171 -254.693519 
L 502.432213 -246.059491 
L 501.836254 -237.425463 
L 501.240296 -228.791435 
L 500.644337 -220.157407 
L 500.048379 -211.523379 
L 499.452421 -210.81537 
L 498.856462 -209.270815 
L 498.260504 -207.72626 
L 497.664545 -206.181705 
L 497.068587 -204.63715 
L 496.472628 -203.092595 
L 495.87667 -201.54804 
L 495.280711 -200.003485 
L 494.684753 -198.45893 
L 494.088794 -196.914375 
L 493.492836 -195.943148 
L 492.896878 -195.09849 
L 492.300919 -193.729919 
L 491.704961 -197.161413 
L 491.109002 -219.0085 
L 490.513044 -240.855588 
L 489.917085 -262.702676 
L 489.321127 -284.549764 
L 488.725168 -306.396851 
L 488.12921 -328.243939 
L 487.533251 -350.091027 
L 486.937293 -357.203025 
L 486.341334 -342.779124 
L 485.745376 -328.355223 
L 485.149418 -313.931322 
L 484.553459 -299.50742 
L 483.957501 -285.083519 
L 483.361542 -270.659618 
L 482.765584 -256.235717 
L 482.169625 -241.811816 
L 481.573667 -227.387914 
L 480.977708 -218.742277 
L 480.38175 -218.291376 
L 479.785791 -217.840476 
L 479.189833 -217.389575 
L 478.593874 -216.938675 
L 477.997916 -216.487774 
L 477.401958 -216.036873 
L 476.805999 -215.585973 
L 476.210041 -215.135072 
L 475.614082 -214.684172 
L 475.018124 -214.233271 
L 474.422165 -213.398727 
L 473.826207 -212.30169 
L 473.230248 -211.204653 
L 472.63429 -210.107616 
L 472.038331 -209.010579 
L 471.442373 -207.913542 
L 470.846415 -206.816505 
L 470.250456 -205.719467 
L 469.654498 -209.96506 
L 469.058539 -222.835941 
L 468.462581 -232.662995 
L 467.866622 -229.300132 
L 467.270664 -225.93727 
L 466.674705 -229.970646 
L 466.078747 -238.546832 
L 465.482788 -247.123019 
L 464.88683 -255.699205 
L 464.290871 -264.275392 
L 463.694913 -272.851579 
L 463.098955 -281.427765 
L 462.502996 -290.003952 
L 461.907038 -282.057459 
L 461.311079 -269.484615 
L 460.715121 -256.911772 
L 460.119162 -244.338929 
L 459.523204 -231.766085 
L 458.927245 -219.193242 
L 458.331287 -217.687306 
L 457.735328 -220.546449 
L 457.13937 -223.405592 
L 456.543412 -226.264735 
L 455.947453 -224.579308 
L 455.351495 -215.319601 
L 454.755536 -206.059893 
L 454.159578 -196.800186 
L 453.563619 -193.396911 
L 452.967661 -199.581287 
L 452.371702 -205.765664 
L 451.775744 -211.950041 
L 451.179785 -218.134418 
L 450.583827 -224.318794 
L 449.987868 -230.503171 
L 449.39191 -228.313118 
L 448.795952 -225.852923 
L 448.199993 -223.392727 
L 447.604035 -220.932532 
L 447.008076 -218.472336 
L 446.412118 -216.012141 
L 445.816159 -213.551945 
L 445.220201 -211.09175 
L 444.624242 -208.631554 
L 444.028284 -206.171359 
L 443.432325 -209.370501 
L 442.836367 -216.97135 
L 442.240409 -224.5722 
L 441.64445 -232.17305 
L 441.048492 -239.773899 
L 440.452533 -247.374749 
L 439.856575 -254.975598 
L 439.260616 -262.576448 
L 438.664658 -270.177297 
L 438.068699 -277.778147 
L 437.472741 -282.723282 
L 436.876782 -273.327558 
L 436.280824 -263.931834 
L 435.684865 -254.536111 
L 435.088907 -245.140387 
L 434.492949 -235.744664 
L 433.89699 -227.778195 
L 433.301032 -228.835101 
L 432.705073 -229.892007 
L 432.109115 -230.948913 
L 431.513156 -232.00582 
L 430.917198 -232.450111 
L 430.321239 -232.690198 
L 429.725281 -232.930285 
L 429.129322 -233.170372 
L 428.533364 -233.410459 
L 427.937406 -233.650546 
L 427.341447 -233.890633 
L 426.745489 -234.13072 
L 426.14953 -234.370807 
L 425.553572 -234.610894 
L 424.957613 -233.059329 
L 424.361655 -228.087339 
L 423.765696 -223.115348 
L 423.169738 -218.143358 
L 422.573779 -213.171367 
L 421.977821 -208.199377 
L 421.381862 -203.227386 
L 420.785904 -198.255396 
L 420.189946 -193.283405 
L 419.593987 -188.311415 
L 418.998029 -183.339424 
L 418.40207 -177.689811 
L 417.806112 -175.4087 
L 417.210153 -177.827027 
L 416.614195 -180.245353 
L 416.018236 -182.663679 
L 415.422278 -185.082005 
L 414.826319 -187.500331 
L 414.230361 -189.918657 
L 413.634403 -192.336983 
L 413.038444 -199.620392 
L 412.442486 -200.640628 
L 411.846527 -206.230355 
L 411.250569 -212.983959 
L 410.65461 -219.737563 
L 410.058652 -226.491166 
L 409.462693 -233.24477 
L 408.866735 -239.998374 
L 408.270776 -246.751977 
L 407.674818 -253.505581 
L 407.078859 -260.259185 
L 406.482901 -266.086726 
L 405.886943 -265.431831 
L 405.290984 -264.776936 
L 404.695026 -264.122041 
L 404.099067 -263.467146 
L 403.503109 -262.812251 
L 402.90715 -262.157355 
L 402.311192 -261.50246 
L 401.715233 -260.847565 
L 401.119275 -260.19267 
L 400.523316 -259.537775 
L 399.927358 -255.618755 
L 399.3314 -250.422469 
L 398.735441 -245.226182 
L 398.139483 -240.029896 
L 397.543524 -234.83361 
L 396.947566 -229.637323 
L 396.351607 -224.441037 
L 395.755649 -219.244751 
L 395.15969 -214.048464 
L 394.563732 -208.852178 
L 393.967773 -204.66611 
L 393.371815 -202.702522 
L 392.775856 -200.738934 
L 392.179898 -198.775346 
L 391.58394 -196.811758 
L 390.987981 -194.848169 
L 390.392023 -192.884581 
L 389.796064 -198.97908 
L 389.200106 -210.702912 
L 388.604147 -222.426744 
L 388.008189 -234.150576 
L 387.41223 -230.016974 
L 386.816272 -224.242947 
L 386.220313 -218.46892 
L 385.624355 -212.694892 
L 385.028397 -206.920865 
L 384.432438 -201.146838 
L 383.83648 -195.372811 
L 383.240521 -189.598784 
L 382.644563 -183.824757 
L 382.048604 -178.05073 
L 381.452646 -173.268932 
L 380.856687 -175.497169 
L 380.260729 -177.725406 
L 379.66477 -187.842785 
L 379.068812 -202.893097 
L 378.472853 -217.943408 
L 377.876895 -232.993719 
L 377.280937 -248.044031 
L 376.684978 -263.094342 
L 376.08902 -278.144654 
L 375.493061 -290.641641 
L 374.897103 -278.456492 
L 374.301144 -266.271343 
L 373.705186 -254.086194 
L 373.109227 -241.901045 
L 372.513269 -229.715896 
L 371.91731 -217.530747 
L 371.321352 -212.588649 
L 370.725394 -215.019838 
L 370.129435 -217.451026 
L 369.533477 -219.882214 
L 368.937518 -213.720977 
L 368.34156 -203.654091 
L 367.745601 -193.587205 
L 367.149643 -183.520319 
L 366.553684 -186.274427 
L 365.957726 -190.81675 
L 365.361767 -195.359072 
L 364.765809 -199.901394 
L 364.16985 -204.443716 
L 363.573892 -208.986039 
L 362.977934 -212.187328 
L 362.381975 -211.961536 
L 361.786017 -211.735743 
L 361.190058 -211.50995 
L 360.5941 -211.284157 
L 359.998141 -211.058364 
L 359.402183 -210.832571 
L 358.806224 -210.606779 
L 358.210266 -210.380986 
L 357.614307 -210.155193 
L 357.018349 -209.9294 
L 356.422391 -203.598445 
L 355.826432 -199.437362 
L 355.230474 -202.372409 
L 354.634515 -205.307457 
L 354.038557 -208.242504 
L 353.442598 -211.177551 
L 352.84664 -214.112599 
L 352.250681 -217.047646 
L 351.654723 -219.982693 
L 351.058764 -222.917741 
L 350.462806 -223.551675 
L 349.866847 -221.577682 
L 349.270889 -219.603689 
L 348.674931 -217.629696 
L 348.078972 -215.655703 
L 347.483014 -213.68171 
L 346.887055 -211.707717 
L 346.291097 -222.578031 
L 345.695138 -234.311498 
L 345.09918 -246.044965 
L 344.503221 -257.046863 
L 343.907263 -257.075231 
L 343.311304 -257.103599 
L 342.715346 -257.131967 
L 342.119388 -257.160335 
L 341.523429 -257.188703 
L 340.927471 -257.217072 
L 340.331512 -257.24544 
L 339.735554 -257.273808 
L 339.139595 -257.302176 
L 338.543637 -257.330544 
L 337.947678 -253.643296 
L 337.35172 -248.009773 
L 336.755761 -242.376251 
L 336.159803 -236.742728 
L 335.563844 -231.109205 
L 334.967886 -225.475682 
L 334.371928 -219.842159 
L 333.775969 -214.208637 
L 333.180011 -208.575114 
L 332.584052 -212.078113 
L 331.988094 -217.202071 
L 331.392135 -217.090699 
L 330.796177 -216.979328 
L 330.200218 -216.867957 
L 329.60426 -216.756585 
L 329.008301 -216.645214 
L 328.412343 -216.533843 
L 327.816385 -216.422472 
L 327.220426 -216.3111 
L 326.624468 -216.199729 
L 326.028509 -216.088358 
L 325.432551 -213.578271 
L 324.836592 -210.623978 
L 324.240634 -207.669685 
L 323.644675 -204.715392 
L 323.048717 -206.515217 
L 322.452758 -213.82624 
L 321.8568 -221.137263 
L 321.260841 -228.448286 
L 320.664883 -235.759309 
L 320.068925 -243.070332 
L 319.472966 -242.061114 
L 318.877008 -230.354443 
L 318.281049 -218.647772 
L 317.685091 -224.289834 
L 317.089132 -230.06848 
L 316.493174 -235.847126 
L 315.897215 -241.625772 
L 315.301257 -247.404418 
L 314.705298 -253.183065 
L 314.10934 -258.961711 
L 313.513382 -264.639538 
L 312.917423 -267.191988 
L 312.321465 -269.744437 
L 311.725506 -272.296886 
L 311.129548 -274.849335 
L 310.533589 -277.401784 
L 309.937631 -279.954234 
L 309.341672 -282.506683 
L 308.745714 -285.059132 
L 308.149755 -287.611581 
L 307.553797 -290.164031 
L 306.957838 -281.884054 
L 306.36188 -267.104623 
L 305.765922 -252.325191 
L 305.169963 -237.545759 
L 304.574005 -222.766328 
L 303.978046 -218.745874 
L 303.382088 -221.151741 
L 302.786129 -223.557608 
L 302.190171 -225.963475 
L 301.594212 -228.369342 
L 300.998254 -231.492581 
L 300.402295 -237.177863 
L 299.806337 -242.863145 
L 299.210379 -248.548426 
L 298.61442 -254.233708 
L 298.018462 -259.91899 
L 297.422503 -265.604272 
L 296.826545 -271.289553 
L 296.230586 -276.974835 
L 295.634628 -282.660117 
L 295.038669 -288.345399 
L 294.442711 -279.069358 
L 293.846752 -266.340704 
L 293.250794 -253.612051 
L 292.654835 -240.883397 
L 292.058877 -228.154743 
L 291.462919 -215.42609 
L 290.86696 -202.697436 
L 290.271002 -189.968782 
L 289.675043 -177.240129 
L 289.079085 -164.511475 
L 288.483126 -164.646513 
L 287.887168 -170.722434 
L 287.291209 -177.936954 
L 286.695251 -185.151473 
L 286.099292 -192.365993 
L 285.503334 -199.580512 
L 284.907376 -206.795032 
L 284.311417 -214.009552 
L 283.715459 -221.224071 
L 283.1195 -228.438591 
L 282.523542 -235.65311 
L 281.927583 -228.512573 
L 281.331625 -221.372035 
L 280.735666 -214.231497 
L 280.139708 -207.090959 
L 279.543749 -199.950421 
L 278.947791 -192.809883 
L 278.351832 -185.669346 
L 277.755874 -187.831307 
L 277.159916 -196.482871 
L 276.563957 -205.134436 
L 275.967999 -203.067486 
L 275.37204 -193.666817 
L 274.776082 -184.266147 
L 274.180123 -184.625245 
L 273.584165 -188.385215 
L 272.988206 -192.145186 
L 272.392248 -195.905156 
L 271.796289 -199.665127 
L 271.200331 -203.425097 
L 270.604372 -207.185067 
L 270.008414 -210.238509 
L 269.412456 -210.230325 
L 268.816497 -210.222142 
L 268.220539 -210.213958 
L 267.62458 -210.205774 
L 267.028622 -210.197591 
L 266.432663 -210.189407 
L 265.836705 -210.181224 
L 265.240746 -210.17304 
L 264.644788 -210.164856 
L 264.048829 -210.156673 
L 263.452871 -205.368264 
L 262.856913 -199.241392 
L 262.260954 -197.431677 
L 261.664996 -201.016604 
L 261.069037 -204.601531 
L 260.473079 -208.186457 
L 259.87712 -211.771384 
L 259.281162 -215.356311 
L 258.685203 -218.941238 
L 258.089245 -222.526165 
L 257.493286 -224.115622 
L 256.897328 -222.379294 
L 256.301369 -220.642967 
L 255.705411 -218.906639 
L 255.109453 -217.170312 
L 254.513494 -219.13311 
L 253.917536 -232.665386 
L 253.321577 -246.197663 
L 252.725619 -259.729939 
L 252.12966 -273.262216 
L 251.533702 -286.794492 
L 250.937743 -275.166798 
L 250.341785 -262.727491 
L 249.745826 -250.288185 
L 249.149868 -237.848878 
L 248.55391 -225.409571 
L 247.957951 -212.970265 
L 247.361993 -200.530958 
L 246.766034 -188.091652 
L 246.170076 -175.652345 
L 245.574117 -171.125363 
L 244.978159 -171.29012 
L 244.3822 -174.358463 
L 243.786242 -177.426806 
L 243.190283 -180.495148 
L 242.594325 -183.563491 
L 241.998366 -186.631834 
L 241.402408 -189.700176 
L 240.80645 -197.688876 
L 240.210491 -210.880211 
L 239.614533 -224.071546 
L 239.018574 -234.785984 
L 238.422616 -232.125174 
L 237.826657 -229.464364 
L 237.230699 -226.803555 
L 236.63474 -224.142745 
L 236.038782 -221.481935 
L 235.442823 -218.821126 
L 234.846865 -216.160316 
L 234.250907 -216.322688 
L 233.654948 -223.066809 
L 233.05899 -229.810929 
L 232.463031 -229.801976 
L 231.867073 -227.541998 
L 231.271114 -225.282021 
L 230.675156 -223.022043 
L 230.079197 -220.762065 
L 229.483239 -218.502087 
L 228.88728 -216.242109 
L 228.291322 -216.72449 
L 227.695363 -223.389189 
L 227.099405 -230.053888 
L 226.503447 -231.700109 
L 225.907488 -223.765597 
L 225.31153 -215.831086 
L 224.715571 -207.896574 
L 224.119613 -199.962063 
L 223.523654 -192.027551 
L 222.927696 -189.260225 
L 222.331737 -193.294694 
L 221.735779 -197.329164 
L 221.13982 -201.363634 
L 220.543862 -205.398104 
L 219.947904 -203.09952 
L 219.351945 -200.378733 
L 218.755987 -197.657946 
L 218.160028 -194.937159 
L 217.56407 -192.216372 
L 216.968111 -194.963111 
L 216.372153 -202.222736 
L 215.776194 -209.482361 
L 215.180236 -216.741986 
L 214.584277 -224.001611 
L 213.988319 -222.020633 
L 213.39236 -211.886181 
L 212.796402 -207.752954 
L 212.200444 -206.215959 
L 211.604485 -206.743685 
L 211.008527 -213.233421 
L 210.412568 -219.723157 
L 209.81661 -226.212894 
L 209.220651 -232.70263 
L 208.624693 -239.192366 
L 208.028734 -243.429909 
L 207.432776 -231.902096 
L 206.836817 -220.374283 
L 206.240859 -210.175522 
L 205.644901 -214.823973 
L 205.048942 -219.472424 
L 204.452984 -224.120876 
L 203.857025 -228.769327 
L 203.261067 -233.417778 
L 202.665108 -238.066229 
L 202.06915 -242.71468 
L 201.473191 -237.373232 
L 200.877233 -228.122693 
L 200.281274 -218.872154 
L 199.685316 -209.621615 
L 199.089357 -200.371076 
L 198.493399 -209.518022 
L 197.897441 -222.884258 
L 197.301482 -236.250494 
L 196.705524 -249.61673 
L 196.109565 -262.982966 
L 195.513607 -266.757118 
L 194.917648 -249.428685 
L 194.32169 -232.100251 
L 193.725731 -214.771818 
L 193.129773 -208.265742 
L 192.533814 -214.04805 
L 191.937856 -219.830359 
L 191.341898 -225.612667 
L 190.745939 -231.394976 
L 190.149981 -237.177284 
L 189.554022 -242.959592 
L 188.958064 -239.34317 
L 188.362105 -234.754465 
L 187.766147 -230.165759 
L 187.170188 -225.577054 
L 186.57423 -220.988349 
L 185.978271 -216.399644 
L 185.382313 -211.810939 
L 184.786354 -207.222234 
L 184.190396 -208.749046 
L 183.594438 -211.563005 
L 182.998479 -212.750595 
L 182.402521 -212.311814 
L 181.806562 -211.873033 
L 181.210604 -215.331232 
L 180.614645 -227.020816 
L 180.018687 -238.710401 
L 179.422728 -250.399986 
L 178.82677 -262.089571 
L 178.230811 -273.779156 
L 177.634853 -285.468741 
L 177.038895 -295.495683 
L 176.442936 -289.450418 
L 175.846978 -283.405153 
L 175.251019 -277.359888 
L 174.655061 -271.314623 
L 174.059102 -265.269358 
L 173.463144 -259.224093 
L 172.867185 -253.178828 
L 172.271227 -247.133563 
L 171.675268 -241.088298 
L 171.07931 -235.043033 
L 170.483351 -230.20058 
L 169.887393 -230.407749 
L 169.291435 -230.614917 
L 168.695476 -230.822085 
L 168.099518 -231.029253 
L 167.503559 -231.236422 
L 166.907601 -231.44359 
L 166.311642 -231.650758 
L 165.715684 -231.857926 
L 165.119725 -232.065095 
L 164.523767 -232.344424 
L 163.927808 -232.808164 
L 163.33185 -233.271904 
L 162.735892 -233.735645 
L 162.139933 -234.199385 
L 161.543975 -234.663126 
L 160.948016 -235.126866 
L 160.352058 -238.676448 
L 159.756099 -242.754801 
L 159.160141 -246.833154 
L 158.564182 -250.911506 
L 157.968224 -242.722518 
L 157.372265 -232.781053 
L 156.776307 -229.441743 
L 156.180348 -227.45147 
L 155.58439 -225.461197 
L 154.988432 -223.470924 
L 154.392473 -221.480651 
L 153.796515 -219.490379 
L 153.200556 -217.500106 
L 152.604598 -215.509833 
L 152.008639 -210.17905 
L 151.412681 -207.66719 
L 150.816722 -224.845016 
L 150.220764 -242.022842 
L 149.624805 -259.200668 
L 149.028847 -276.378494 
L 148.432889 -293.55632 
L 147.83693 -310.734146 
L 147.240972 -327.911972 
L 146.645013 -345.089797 
L 146.049055 -359.856616 
L 145.453096 -338.458327 
L 144.857138 -317.060037 
L 144.261179 -295.661748 
L 143.665221 -274.263458 
L 143.069262 -252.865169 
L 142.473304 -231.466879 
L 141.877345 -210.06859 
L 141.281387 -188.6703 
L 140.685429 -180.705779 
L 140.08947 -187.450483 
L 139.493512 -191.762389 
L 138.897553 -194.799972 
L 138.301595 -197.837554 
L 137.705636 -200.875137 
L 137.109678 -203.912719 
L 136.513719 -206.950302 
L 135.917761 -214.572951 
L 135.321802 -224.460886 
L 134.725844 -234.348822 
L 134.129886 -244.236757 
L 133.533927 -250.496652 
L 132.937969 -245.872426 
L 132.34201 -241.2482 
L 131.746052 -236.623974 
L 131.150093 -231.999749 
L 130.554135 -227.375523 
L 129.958176 -222.751297 
L 129.362218 -218.127071 
L 128.766259 -213.502845 
L 128.170301 -212.199518 
L 127.574342 -211.207161 
L 126.978384 -206.752949 
L 126.382426 -201.657652 
L 125.786467 -200.628743 
L 125.190509 -199.607867 
L 124.59455 -198.586992 
L 123.998592 -197.566117 
L 123.402633 -196.545241 
L 122.806675 -195.524366 
L 122.210716 -194.50349 
L 121.614758 -193.482615 
L 121.018799 -189.733823 
L 120.422841 -182.477712 
L 119.826883 -175.2216 
L 119.230924 -167.965489 
L 118.634966 -160.709377 
L 118.039007 -155.47693 
L 117.443049 -155.007552 
L 116.84709 -154.538173 
L 116.251132 -154.068794 
L 115.655173 -153.599416 
L 115.059215 -157.596549 
L 114.463256 -162.275418 
L 113.867298 -166.954287 
L 113.271339 -171.633156 
L 112.675381 -176.312025 
L 112.079423 -184.815363 
L 111.483464 -197.610582 
L 110.887506 -210.4058 
L 110.291547 -223.201018 
L 109.695589 -235.996236 
L 109.09963 -248.791455 
L 108.503672 -247.347482 
L 107.907713 -237.359996 
L 107.311755 -227.372509 
L 106.715796 -217.385022 
L 106.119838 -207.397536 
L 105.52388 -197.410049 
L 104.927921 -187.422562 
L 104.331963 -190.107318 
L 103.736004 -193.271589 
L 103.140046 -196.43586 
L 102.544087 -198.391067 
L 101.948129 -196.028185 
L 101.35217 -193.665304 
L 100.756212 -191.302423 
L 100.160253 -188.939541 
L 99.564295 -186.57666 
L 98.968336 -184.213778 
L 98.372378 -181.850897 
L 97.77642 -179.488016 
L 97.180461 -177.125134 
L 96.584503 -174.762253 
L 95.988544 -173.755364 
L 95.392586 -173.723362 
L 94.796627 -174.021707 
L 94.200669 -174.320052 
L 93.60471 -174.618397 
L 93.008752 -174.916742 
L 92.412793 -175.215086 
L 91.816835 -175.513431 
L 91.220877 -175.811776 
L 90.624918 -176.110121 
L 90.02896 -178.957607 
L 89.433001 -185.530761 
L 88.837043 -192.103915 
L 88.241084 -198.677069 
L 87.645126 -205.250223 
L 87.049167 -212.022455 
L 86.453209 -222.697095 
L 85.85725 -233.371735 
L 85.261292 -244.046374 
L 84.665333 -254.721014 
L 84.069375 -265.395653 
z
" style="stroke: #00008b; stroke-opacity: 0.3"/>
    </defs>
    <g clip-path="url(#p7441f297e0)">
     <use xlink:href="#mcedbc6ba61" x="0" y="432" style="fill: #00008b; fill-opacity: 0.3; stroke: #00008b; stroke-opacity: 0.3"/>
    </g>
   </g>
   <g id="matplotlib.axis_1">
    <g id="xtick_1">
     <g id="line2d_1">
      <defs>
       <path id="me46961eeee" d="M 0 0 
L 0 3.5 
" style="stroke: #000000; stroke-width: 0.8"/>
      </defs>
      <g>
       <use xlink:href="#me46961eeee" x="77.867682" y="390.04" style="stroke: #000000; stroke-width: 0.8"/>
      </g>
     </g>
     <g id="text_1">
      <!-- 0 -->
      <g transform="translate(74.686432 404.638438) scale(0.1 -0.1)">
       <defs>
        <path id="DejaVuSans-30" d="M 2034 4250 
Q 1547 4250 1301 3770 
Q 1056 3291 1056 2328 
Q 1056 1369 1301 889 
Q 1547 409 2034 409 
Q 2525 409 2770 889 
Q 3016 1369 3016 2328 
Q 3016 3291 2770 3770 
Q 2525 4250 2034 4250 
z
M 2034 4750 
Q 2819 4750 3233 4129 
Q 3647 3509 3647 2328 
Q 3647 1150 3233 529 
Q 2819 -91 2034 -91 
Q 1250 -91 836 529 
Q 422 1150 422 2328 
Q 422 3509 836 4129 
Q 1250 4750 2034 4750 
z
" transform="scale(0.015625)"/>
       </defs>
       <use xlink:href="#DejaVuSans-30"/>
      </g>
     </g>
    </g>
    <g id="xtick_2">
     <g id="line2d_2">
      <g>
       <use xlink:href="#me46961eeee" x="198.994493" y="390.04" style="stroke: #000000; stroke-width: 0.8"/>
      </g>
     </g>
     <g id="text_2">
      <!-- 20000 -->
      <g transform="translate(183.088243 404.638438) scale(0.1 -0.1)">
       <defs>
        <path id="DejaVuSans-32" d="M 1228 531 
L 3431 531 
L 3431 0 
L 469 0 
L 469 531 
Q 828 903 1448 1529 
Q 2069 2156 2228 2338 
Q 2531 2678 2651 2914 
Q 2772 3150 2772 3378 
Q 2772 3750 2511 3984 
Q 2250 4219 1831 4219 
Q 1534 4219 1204 4116 
Q 875 4013 500 3803 
L 500 4441 
Q 881 4594 1212 4672 
Q 1544 4750 1819 4750 
Q 2544 4750 2975 4387 
Q 3406 4025 3406 3419 
Q 3406 3131 3298 2873 
Q 3191 2616 2906 2266 
Q 2828 2175 2409 1742 
Q 1991 1309 1228 531 
z
" transform="scale(0.015625)"/>
       </defs>
       <use xlink:href="#DejaVuSans-32"/>
       <use xlink:href="#DejaVuSans-30" transform="translate(63.623047 0)"/>
       <use xlink:href="#DejaVuSans-30" transform="translate(127.246094 0)"/>
       <use xlink:href="#DejaVuSans-30" transform="translate(190.869141 0)"/>
       <use xlink:href="#DejaVuSans-30" transform="translate(254.492188 0)"/>
      </g>
     </g>
    </g>
    <g id="xtick_3">
     <g id="line2d_3">
      <g>
       <use xlink:href="#me46961eeee" x="320.121304" y="390.04" style="stroke: #000000; stroke-width: 0.8"/>
      </g>
     </g>
     <g id="text_3">
      <!-- 40000 -->
      <g transform="translate(304.215054 404.638438) scale(0.1 -0.1)">
       <defs>
        <path id="DejaVuSans-34" d="M 2419 4116 
L 825 1625 
L 2419 1625 
L 2419 4116 
z
M 2253 4666 
L 3047 4666 
L 3047 1625 
L 3713 1625 
L 3713 1100 
L 3047 1100 
L 3047 0 
L 2419 0 
L 2419 1100 
L 313 1100 
L 313 1709 
L 2253 4666 
z
" transform="scale(0.015625)"/>
       </defs>
       <use xlink:href="#DejaVuSans-34"/>
       <use xlink:href="#DejaVuSans-30" transform="translate(63.623047 0)"/>
       <use xlink:href="#DejaVuSans-30" transform="translate(127.246094 0)"/>
       <use xlink:href="#DejaVuSans-30" transform="translate(190.869141 0)"/>
       <use xlink:href="#DejaVuSans-30" transform="translate(254.492188 0)"/>
      </g>
     </g>
    </g>
    <g id="xtick_4">
     <g id="line2d_4">
      <g>
       <use xlink:href="#me46961eeee" x="441.248114" y="390.04" style="stroke: #000000; stroke-width: 0.8"/>
      </g>
     </g>
     <g id="text_4">
      <!-- 60000 -->
      <g transform="translate(425.341864 404.638438) scale(0.1 -0.1)">
       <defs>
        <path id="DejaVuSans-36" d="M 2113 2584 
Q 1688 2584 1439 2293 
Q 1191 2003 1191 1497 
Q 1191 994 1439 701 
Q 1688 409 2113 409 
Q 2538 409 2786 701 
Q 3034 994 3034 1497 
Q 3034 2003 2786 2293 
Q 2538 2584 2113 2584 
z
M 3366 4563 
L 3366 3988 
Q 3128 4100 2886 4159 
Q 2644 4219 2406 4219 
Q 1781 4219 1451 3797 
Q 1122 3375 1075 2522 
Q 1259 2794 1537 2939 
Q 1816 3084 2150 3084 
Q 2853 3084 3261 2657 
Q 3669 2231 3669 1497 
Q 3669 778 3244 343 
Q 2819 -91 2113 -91 
Q 1303 -91 875 529 
Q 447 1150 447 2328 
Q 447 3434 972 4092 
Q 1497 4750 2381 4750 
Q 2619 4750 2861 4703 
Q 3103 4656 3366 4563 
z
" transform="scale(0.015625)"/>
       </defs>
       <use xlink:href="#DejaVuSans-36"/>
       <use xlink:href="#DejaVuSans-30" transform="translate(63.623047 0)"/>
       <use xlink:href="#DejaVuSans-30" transform="translate(127.246094 0)"/>
       <use xlink:href="#DejaVuSans-30" transform="translate(190.869141 0)"/>
       <use xlink:href="#DejaVuSans-30" transform="translate(254.492188 0)"/>
      </g>
     </g>
    </g>
    <g id="xtick_5">
     <g id="line2d_5">
      <g>
       <use xlink:href="#me46961eeee" x="562.374925" y="390.04" style="stroke: #000000; stroke-width: 0.8"/>
      </g>
     </g>
     <g id="text_5">
      <!-- 80000 -->
      <g transform="translate(546.468675 404.638438) scale(0.1 -0.1)">
       <defs>
        <path id="DejaVuSans-38" d="M 2034 2216 
Q 1584 2216 1326 1975 
Q 1069 1734 1069 1313 
Q 1069 891 1326 650 
Q 1584 409 2034 409 
Q 2484 409 2743 651 
Q 3003 894 3003 1313 
Q 3003 1734 2745 1975 
Q 2488 2216 2034 2216 
z
M 1403 2484 
Q 997 2584 770 2862 
Q 544 3141 544 3541 
Q 544 4100 942 4425 
Q 1341 4750 2034 4750 
Q 2731 4750 3128 4425 
Q 3525 4100 3525 3541 
Q 3525 3141 3298 2862 
Q 3072 2584 2669 2484 
Q 3125 2378 3379 2068 
Q 3634 1759 3634 1313 
Q 3634 634 3220 271 
Q 2806 -91 2034 -91 
Q 1263 -91 848 271 
Q 434 634 434 1313 
Q 434 1759 690 2068 
Q 947 2378 1403 2484 
z
M 1172 3481 
Q 1172 3119 1398 2916 
Q 1625 2713 2034 2713 
Q 2441 2713 2670 2916 
Q 2900 3119 2900 3481 
Q 2900 3844 2670 4047 
Q 2441 4250 2034 4250 
Q 1625 4250 1398 4047 
Q 1172 3844 1172 3481 
z
" transform="scale(0.015625)"/>
       </defs>
       <use xlink:href="#DejaVuSans-38"/>
       <use xlink:href="#DejaVuSans-30" transform="translate(63.623047 0)"/>
       <use xlink:href="#DejaVuSans-30" transform="translate(127.246094 0)"/>
       <use xlink:href="#DejaVuSans-30" transform="translate(190.869141 0)"/>
       <use xlink:href="#DejaVuSans-30" transform="translate(254.492188 0)"/>
      </g>
     </g>
    </g>
    <g id="xtick_6">
     <g id="line2d_6">
      <g>
       <use xlink:href="#me46961eeee" x="683.501736" y="390.04" style="stroke: #000000; stroke-width: 0.8"/>
      </g>
     </g>
     <g id="text_6">
      <!-- 100000 -->
      <g transform="translate(664.414236 404.638438) scale(0.1 -0.1)">
       <defs>
        <path id="DejaVuSans-31" d="M 794 531 
L 1825 531 
L 1825 4091 
L 703 3866 
L 703 4441 
L 1819 4666 
L 2450 4666 
L 2450 531 
L 3481 531 
L 3481 0 
L 794 0 
L 794 531 
z
" transform="scale(0.015625)"/>
       </defs>
       <use xlink:href="#DejaVuSans-31"/>
       <use xlink:href="#DejaVuSans-30" transform="translate(63.623047 0)"/>
       <use xlink:href="#DejaVuSans-30" transform="translate(127.246094 0)"/>
       <use xlink:href="#DejaVuSans-30" transform="translate(190.869141 0)"/>
       <use xlink:href="#DejaVuSans-30" transform="translate(254.492188 0)"/>
       <use xlink:href="#DejaVuSans-30" transform="translate(318.115234 0)"/>
      </g>
     </g>
    </g>
    <g id="text_7">
     <!-- Step -->
     <g transform="translate(370.365469 418.316562) scale(0.1 -0.1)">
      <defs>
       <path id="DejaVuSans-53" d="M 3425 4513 
L 3425 3897 
Q 3066 4069 2747 4153 
Q 2428 4238 2131 4238 
Q 1616 4238 1336 4038 
Q 1056 3838 1056 3469 
Q 1056 3159 1242 3001 
Q 1428 2844 1947 2747 
L 2328 2669 
Q 3034 2534 3370 2195 
Q 3706 1856 3706 1288 
Q 3706 609 3251 259 
Q 2797 -91 1919 -91 
Q 1588 -91 1214 -16 
Q 841 59 441 206 
L 441 856 
Q 825 641 1194 531 
Q 1563 422 1919 422 
Q 2459 422 2753 634 
Q 3047 847 3047 1241 
Q 3047 1584 2836 1778 
Q 2625 1972 2144 2069 
L 1759 2144 
Q 1053 2284 737 2584 
Q 422 2884 422 3419 
Q 422 4038 858 4394 
Q 1294 4750 2059 4750 
Q 2388 4750 2728 4690 
Q 3069 4631 3425 4513 
z
" transform="scale(0.015625)"/>
       <path id="DejaVuSans-74" d="M 1172 4494 
L 1172 3500 
L 2356 3500 
L 2356 3053 
L 1172 3053 
L 1172 1153 
Q 1172 725 1289 603 
Q 1406 481 1766 481 
L 2356 481 
L 2356 0 
L 1766 0 
Q 1100 0 847 248 
Q 594 497 594 1153 
L 594 3053 
L 172 3053 
L 172 3500 
L 594 3500 
L 594 4494 
L 1172 4494 
z
" transform="scale(0.015625)"/>
       <path id="DejaVuSans-65" d="M 3597 1894 
L 3597 1613 
L 953 1613 
Q 991 1019 1311 708 
Q 1631 397 2203 397 
Q 2534 397 2845 478 
Q 3156 559 3463 722 
L 3463 178 
Q 3153 47 2828 -22 
Q 2503 -91 2169 -91 
Q 1331 -91 842 396 
Q 353 884 353 1716 
Q 353 2575 817 3079 
Q 1281 3584 2069 3584 
Q 2775 3584 3186 3129 
Q 3597 2675 3597 1894 
z
M 3022 2063 
Q 3016 2534 2758 2815 
Q 2500 3097 2075 3097 
Q 1594 3097 1305 2825 
Q 1016 2553 972 2059 
L 3022 2063 
z
" transform="scale(0.015625)"/>
       <path id="DejaVuSans-70" d="M 1159 525 
L 1159 -1331 
L 581 -1331 
L 581 3500 
L 1159 3500 
L 1159 2969 
Q 1341 3281 1617 3432 
Q 1894 3584 2278 3584 
Q 2916 3584 3314 3078 
Q 3713 2572 3713 1747 
Q 3713 922 3314 415 
Q 2916 -91 2278 -91 
Q 1894 -91 1617 61 
Q 1341 213 1159 525 
z
M 3116 1747 
Q 3116 2381 2855 2742 
Q 2594 3103 2138 3103 
Q 1681 3103 1420 2742 
Q 1159 2381 1159 1747 
Q 1159 1113 1420 752 
Q 1681 391 2138 391 
Q 2594 391 2855 752 
Q 3116 1113 3116 1747 
z
" transform="scale(0.015625)"/>
      </defs>
      <use xlink:href="#DejaVuSans-53"/>
      <use xlink:href="#DejaVuSans-74" transform="translate(63.476562 0)"/>
      <use xlink:href="#DejaVuSans-65" transform="translate(102.685547 0)"/>
      <use xlink:href="#DejaVuSans-70" transform="translate(164.208984 0)"/>
     </g>
    </g>
   </g>
   <g id="matplotlib.axis_2">
    <g id="ytick_1">
     <g id="line2d_7">
      <defs>
       <path id="m62e8d91b73" d="M 0 0 
L -3.5 0 
" style="stroke: #000000; stroke-width: 0.8"/>
      </defs>
      <g>
       <use xlink:href="#m62e8d91b73" x="54.30125" y="373.468042" style="stroke: #000000; stroke-width: 0.8"/>
      </g>
     </g>
     <g id="text_8">
      <!-- 0.00 -->
      <g transform="translate(25.035625 377.26726) scale(0.1 -0.1)">
       <defs>
        <path id="DejaVuSans-2e" d="M 684 794 
L 1344 794 
L 1344 0 
L 684 0 
L 684 794 
z
" transform="scale(0.015625)"/>
       </defs>
       <use xlink:href="#DejaVuSans-30"/>
       <use xlink:href="#DejaVuSans-2e" transform="translate(63.623047 0)"/>
       <use xlink:href="#DejaVuSans-30" transform="translate(95.410156 0)"/>
       <use xlink:href="#DejaVuSans-30" transform="translate(159.033203 0)"/>
      </g>
     </g>
    </g>
    <g id="ytick_2">
     <g id="line2d_8">
      <g>
       <use xlink:href="#m62e8d91b73" x="54.30125" y="324.450494" style="stroke: #000000; stroke-width: 0.8"/>
      </g>
     </g>
     <g id="text_9">
      <!-- 0.25 -->
      <g transform="translate(25.035625 328.249712) scale(0.1 -0.1)">
       <defs>
        <path id="DejaVuSans-35" d="M 691 4666 
L 3169 4666 
L 3169 4134 
L 1269 4134 
L 1269 2991 
Q 1406 3038 1543 3061 
Q 1681 3084 1819 3084 
Q 2600 3084 3056 2656 
Q 3513 2228 3513 1497 
Q 3513 744 3044 326 
Q 2575 -91 1722 -91 
Q 1428 -91 1123 -41 
Q 819 9 494 109 
L 494 744 
Q 775 591 1075 516 
Q 1375 441 1709 441 
Q 2250 441 2565 725 
Q 2881 1009 2881 1497 
Q 2881 1984 2565 2268 
Q 2250 2553 1709 2553 
Q 1456 2553 1204 2497 
Q 953 2441 691 2322 
L 691 4666 
z
" transform="scale(0.015625)"/>
       </defs>
       <use xlink:href="#DejaVuSans-30"/>
       <use xlink:href="#DejaVuSans-2e" transform="translate(63.623047 0)"/>
       <use xlink:href="#DejaVuSans-32" transform="translate(95.410156 0)"/>
       <use xlink:href="#DejaVuSans-35" transform="translate(159.033203 0)"/>
      </g>
     </g>
    </g>
    <g id="ytick_3">
     <g id="line2d_9">
      <g>
       <use xlink:href="#m62e8d91b73" x="54.30125" y="275.432946" style="stroke: #000000; stroke-width: 0.8"/>
      </g>
     </g>
     <g id="text_10">
      <!-- 0.50 -->
      <g transform="translate(25.035625 279.232165) scale(0.1 -0.1)">
       <use xlink:href="#DejaVuSans-30"/>
       <use xlink:href="#DejaVuSans-2e" transform="translate(63.623047 0)"/>
       <use xlink:href="#DejaVuSans-35" transform="translate(95.410156 0)"/>
       <use xlink:href="#DejaVuSans-30" transform="translate(159.033203 0)"/>
      </g>
     </g>
    </g>
    <g id="ytick_4">
     <g id="line2d_10">
      <g>
       <use xlink:href="#m62e8d91b73" x="54.30125" y="226.415398" style="stroke: #000000; stroke-width: 0.8"/>
      </g>
     </g>
     <g id="text_11">
      <!-- 0.75 -->
      <g transform="translate(25.035625 230.214617) scale(0.1 -0.1)">
       <defs>
        <path id="DejaVuSans-37" d="M 525 4666 
L 3525 4666 
L 3525 4397 
L 1831 0 
L 1172 0 
L 2766 4134 
L 525 4134 
L 525 4666 
z
" transform="scale(0.015625)"/>
       </defs>
       <use xlink:href="#DejaVuSans-30"/>
       <use xlink:href="#DejaVuSans-2e" transform="translate(63.623047 0)"/>
       <use xlink:href="#DejaVuSans-37" transform="translate(95.410156 0)"/>
       <use xlink:href="#DejaVuSans-35" transform="translate(159.033203 0)"/>
      </g>
     </g>
    </g>
    <g id="ytick_5">
     <g id="line2d_11">
      <g>
       <use xlink:href="#m62e8d91b73" x="54.30125" y="177.39785" style="stroke: #000000; stroke-width: 0.8"/>
      </g>
     </g>
     <g id="text_12">
      <!-- 1.00 -->
      <g transform="translate(25.035625 181.197069) scale(0.1 -0.1)">
       <use xlink:href="#DejaVuSans-31"/>
       <use xlink:href="#DejaVuSans-2e" transform="translate(63.623047 0)"/>
       <use xlink:href="#DejaVuSans-30" transform="translate(95.410156 0)"/>
       <use xlink:href="#DejaVuSans-30" transform="translate(159.033203 0)"/>
      </g>
     </g>
    </g>
    <g id="ytick_6">
     <g id="line2d_12">
      <g>
       <use xlink:href="#m62e8d91b73" x="54.30125" y="128.380302" style="stroke: #000000; stroke-width: 0.8"/>
      </g>
     </g>
     <g id="text_13">
      <!-- 1.25 -->
      <g transform="translate(25.035625 132.179521) scale(0.1 -0.1)">
       <use xlink:href="#DejaVuSans-31"/>
       <use xlink:href="#DejaVuSans-2e" transform="translate(63.623047 0)"/>
       <use xlink:href="#DejaVuSans-32" transform="translate(95.410156 0)"/>
       <use xlink:href="#DejaVuSans-35" transform="translate(159.033203 0)"/>
      </g>
     </g>
    </g>
    <g id="ytick_7">
     <g id="line2d_13">
      <g>
       <use xlink:href="#m62e8d91b73" x="54.30125" y="79.362754" style="stroke: #000000; stroke-width: 0.8"/>
      </g>
     </g>
     <g id="text_14">
      <!-- 1.50 -->
      <g transform="translate(25.035625 83.161973) scale(0.1 -0.1)">
       <use xlink:href="#DejaVuSans-31"/>
       <use xlink:href="#DejaVuSans-2e" transform="translate(63.623047 0)"/>
       <use xlink:href="#DejaVuSans-35" transform="translate(95.410156 0)"/>
       <use xlink:href="#DejaVuSans-30" transform="translate(159.033203 0)"/>
      </g>
     </g>
    </g>
    <g id="ytick_8">
     <g id="line2d_14">
      <g>
       <use xlink:href="#m62e8d91b73" x="54.30125" y="30.345206" style="stroke: #000000; stroke-width: 0.8"/>
      </g>
     </g>
     <g id="text_15">
      <!-- 1.75 -->
      <g transform="translate(25.035625 34.144425) scale(0.1 -0.1)">
       <use xlink:href="#DejaVuSans-31"/>
       <use xlink:href="#DejaVuSans-2e" transform="translate(63.623047 0)"/>
       <use xlink:href="#DejaVuSans-37" transform="translate(95.410156 0)"/>
       <use xlink:href="#DejaVuSans-35" transform="translate(159.033203 0)"/>
      </g>
     </g>
    </g>
    <g id="text_16">
     <!-- losses/value_loss -->
     <g transform="translate(18.677813 250.579063) rotate(-90) scale(0.1 -0.1)">
      <defs>
       <path id="DejaVuSans-6c" d="M 603 4863 
L 1178 4863 
L 1178 0 
L 603 0 
L 603 4863 
z
" transform="scale(0.015625)"/>
       <path id="DejaVuSans-6f" d="M 1959 3097 
Q 1497 3097 1228 2736 
Q 959 2375 959 1747 
Q 959 1119 1226 758 
Q 1494 397 1959 397 
Q 2419 397 2687 759 
Q 2956 1122 2956 1747 
Q 2956 2369 2687 2733 
Q 2419 3097 1959 3097 
z
M 1959 3584 
Q 2709 3584 3137 3096 
Q 3566 2609 3566 1747 
Q 3566 888 3137 398 
Q 2709 -91 1959 -91 
Q 1206 -91 779 398 
Q 353 888 353 1747 
Q 353 2609 779 3096 
Q 1206 3584 1959 3584 
z
" transform="scale(0.015625)"/>
       <path id="DejaVuSans-73" d="M 2834 3397 
L 2834 2853 
Q 2591 2978 2328 3040 
Q 2066 3103 1784 3103 
Q 1356 3103 1142 2972 
Q 928 2841 928 2578 
Q 928 2378 1081 2264 
Q 1234 2150 1697 2047 
L 1894 2003 
Q 2506 1872 2764 1633 
Q 3022 1394 3022 966 
Q 3022 478 2636 193 
Q 2250 -91 1575 -91 
Q 1294 -91 989 -36 
Q 684 19 347 128 
L 347 722 
Q 666 556 975 473 
Q 1284 391 1588 391 
Q 1994 391 2212 530 
Q 2431 669 2431 922 
Q 2431 1156 2273 1281 
Q 2116 1406 1581 1522 
L 1381 1569 
Q 847 1681 609 1914 
Q 372 2147 372 2553 
Q 372 3047 722 3315 
Q 1072 3584 1716 3584 
Q 2034 3584 2315 3537 
Q 2597 3491 2834 3397 
z
" transform="scale(0.015625)"/>
       <path id="DejaVuSans-2f" d="M 1625 4666 
L 2156 4666 
L 531 -594 
L 0 -594 
L 1625 4666 
z
" transform="scale(0.015625)"/>
       <path id="DejaVuSans-76" d="M 191 3500 
L 800 3500 
L 1894 563 
L 2988 3500 
L 3597 3500 
L 2284 0 
L 1503 0 
L 191 3500 
z
" transform="scale(0.015625)"/>
       <path id="DejaVuSans-61" d="M 2194 1759 
Q 1497 1759 1228 1600 
Q 959 1441 959 1056 
Q 959 750 1161 570 
Q 1363 391 1709 391 
Q 2188 391 2477 730 
Q 2766 1069 2766 1631 
L 2766 1759 
L 2194 1759 
z
M 3341 1997 
L 3341 0 
L 2766 0 
L 2766 531 
Q 2569 213 2275 61 
Q 1981 -91 1556 -91 
Q 1019 -91 701 211 
Q 384 513 384 1019 
Q 384 1609 779 1909 
Q 1175 2209 1959 2209 
L 2766 2209 
L 2766 2266 
Q 2766 2663 2505 2880 
Q 2244 3097 1772 3097 
Q 1472 3097 1187 3025 
Q 903 2953 641 2809 
L 641 3341 
Q 956 3463 1253 3523 
Q 1550 3584 1831 3584 
Q 2591 3584 2966 3190 
Q 3341 2797 3341 1997 
z
" transform="scale(0.015625)"/>
       <path id="DejaVuSans-75" d="M 544 1381 
L 544 3500 
L 1119 3500 
L 1119 1403 
Q 1119 906 1312 657 
Q 1506 409 1894 409 
Q 2359 409 2629 706 
Q 2900 1003 2900 1516 
L 2900 3500 
L 3475 3500 
L 3475 0 
L 2900 0 
L 2900 538 
Q 2691 219 2414 64 
Q 2138 -91 1772 -91 
Q 1169 -91 856 284 
Q 544 659 544 1381 
z
M 1991 3584 
L 1991 3584 
z
" transform="scale(0.015625)"/>
       <path id="DejaVuSans-5f" d="M 3263 -1063 
L 3263 -1509 
L -63 -1509 
L -63 -1063 
L 3263 -1063 
z
" transform="scale(0.015625)"/>
      </defs>
      <use xlink:href="#DejaVuSans-6c"/>
      <use xlink:href="#DejaVuSans-6f" transform="translate(27.783203 0)"/>
      <use xlink:href="#DejaVuSans-73" transform="translate(88.964844 0)"/>
      <use xlink:href="#DejaVuSans-73" transform="translate(141.064453 0)"/>
      <use xlink:href="#DejaVuSans-65" transform="translate(193.164062 0)"/>
      <use xlink:href="#DejaVuSans-73" transform="translate(254.6875 0)"/>
      <use xlink:href="#DejaVuSans-2f" transform="translate(306.787109 0)"/>
      <use xlink:href="#DejaVuSans-76" transform="translate(340.478516 0)"/>
      <use xlink:href="#DejaVuSans-61" transform="translate(399.658203 0)"/>
      <use xlink:href="#DejaVuSans-6c" transform="translate(460.9375 0)"/>
      <use xlink:href="#DejaVuSans-75" transform="translate(488.720703 0)"/>
      <use xlink:href="#DejaVuSans-65" transform="translate(552.099609 0)"/>
      <use xlink:href="#DejaVuSans-5f" transform="translate(613.623047 0)"/>
      <use xlink:href="#DejaVuSans-6c" transform="translate(663.623047 0)"/>
      <use xlink:href="#DejaVuSans-6f" transform="translate(691.40625 0)"/>
      <use xlink:href="#DejaVuSans-73" transform="translate(752.587891 0)"/>
      <use xlink:href="#DejaVuSans-73" transform="translate(804.6875 0)"/>
     </g>
    </g>
   </g>
   <g id="line2d_15">
    <path d="M 84.069375 333.859121 
L 90.02896 346.837778 
L 90.624918 347.642643 
L 95.988544 351.850581 
L 96.584503 352.166981 
L 103.140046 348.31606 
L 108.503672 343.810333 
L 109.09963 343.736307 
L 115.059215 350.106218 
L 117.443049 347.978839 
L 121.018799 344.73255 
L 121.614758 344.402833 
L 127.574342 342.776347 
L 133.533927 342.850372 
L 134.129886 343.296483 
L 139.493512 348.62761 
L 140.08947 348.809512 
L 146.049055 342.792733 
L 147.83693 343.108622 
L 152.008639 343.950988 
L 152.604598 343.772927 
L 158.564182 339.450018 
L 165.119725 342.482022 
L 170.483351 343.913649 
L 171.07931 343.944094 
L 177.038895 341.418775 
L 178.82677 342.346332 
L 183.594438 344.873353 
L 189.554022 346.272106 
L 195.513607 342.826583 
L 196.109565 342.778149 
L 202.06915 343.602714 
L 208.624693 342.997758 
L 213.988319 341.536308 
L 214.584277 341.558999 
L 220.543862 343.864432 
L 227.099405 343.02241 
L 233.05899 341.453708 
L 239.018574 341.089155 
L 240.210491 341.895024 
L 244.978159 345.416388 
L 245.574117 345.391598 
L 251.533702 339.190685 
L 258.089245 341.215539 
L 263.452871 343.649006 
L 264.048829 343.794419 
L 270.008414 340.785272 
L 271.796289 340.571104 
L 275.967999 340.178491 
L 276.563957 340.273147 
L 282.523542 343.422896 
L 288.483126 344.001716 
L 289.079085 343.63118 
L 294.442711 337.658202 
L 295.038669 337.192373 
L 300.998254 341.106959 
L 301.594212 341.037236 
L 306.957838 339.247548 
L 307.553797 339.329122 
L 313.513382 344.818686 
L 317.089132 344.447853 
L 320.664883 343.949995 
L 326.028509 342.775198 
L 332.584052 343.412758 
L 337.947678 342.842002 
L 338.543637 342.535329 
L 344.503221 334.824625 
L 345.695138 336.638143 
L 350.462806 344.325201 
L 351.058764 344.784088 
L 357.018349 344.963227 
L 363.573892 346.761851 
L 368.937518 347.004632 
L 369.533477 346.796143 
L 375.493061 339.530999 
L 376.684978 340.095055 
L 381.452646 342.748082 
L 382.048604 342.917467 
L 388.008189 343.006751 
L 393.967773 344.985222 
L 394.563732 344.8568 
L 402.311192 341.139426 
L 406.482901 338.946496 
L 407.674818 339.974869 
L 413.038444 344.949253 
L 418.998029 347.382815 
L 424.957613 339.508282 
L 425.553572 339.365139 
L 430.917198 341.114309 
L 431.513156 341.150321 
L 437.472741 336.760232 
L 438.664658 337.210619 
L 444.028284 339.825667 
L 449.987868 344.491499 
L 455.947453 343.84217 
L 456.543412 343.461708 
L 461.907038 338.333694 
L 462.502996 337.940572 
L 469.058539 340.497498 
L 475.018124 342.087575 
L 480.977708 342.182564 
L 486.937293 333.739779 
L 487.533251 333.870282 
L 492.896878 341.047409 
L 493.492836 341.649179 
L 499.452421 339.18704 
L 501.240296 339.053459 
L 508.987756 338.573549 
L 511.967548 338.330435 
L 517.927133 341.955778 
L 518.523091 342.059466 
L 524.482676 341.171467 
L 530.44226 346.481731 
L 531.038219 345.700143 
L 536.401845 334.727998 
L 536.997803 333.983367 
L 542.957388 335.595636 
L 545.93718 340.176152 
L 548.916973 344.804445 
L 549.512931 345.196529 
L 555.472516 344.371669 
L 561.4321 340.568778 
L 562.624017 340.440727 
L 567.391685 340.342544 
L 567.987643 340.139429 
L 573.947228 333.909731 
L 575.139145 333.922209 
L 579.906812 334.219678 
L 580.502771 334.798787 
L 586.462355 345.80022 
L 592.42194 334.726131 
L 593.017899 335.109054 
L 598.381525 344.652162 
L 598.977483 345.309432 
L 604.937068 341.581324 
L 607.320902 341.023192 
L 612.088569 339.899324 
L 617.452195 338.316688 
L 623.41178 339.883432 
L 624.603697 339.680513 
L 629.967323 338.34388 
L 637.118824 339.205467 
L 643.078409 339.383549 
L 648.442035 338.983331 
L 654.40162 341.14521 
L 654.997578 341.154584 
L 660.361204 340.122156 
L 660.957163 339.873001 
L 666.916747 332.580003 
L 667.512706 332.564176 
L 673.47229 333.988743 
L 679.431875 333.910631 
L 679.431875 333.910631 
" clip-path="url(#p7441f297e0)" style="fill: none; stroke: #00008b; stroke-width: 1.5; stroke-linecap: square"/>
   </g>
   <g id="patch_3">
    <path d="M 54.30125 390.04 
L 54.30125 25.44 
" style="fill: none; stroke: #000000; stroke-width: 0.8; stroke-linejoin: miter; stroke-linecap: square"/>
   </g>
   <g id="patch_4">
    <path d="M 709.2 390.04 
L 709.2 25.44 
" style="fill: none; stroke: #000000; stroke-width: 0.8; stroke-linejoin: miter; stroke-linecap: square"/>
   </g>
   <g id="patch_5">
    <path d="M 54.30125 390.04 
L 709.2 390.04 
" style="fill: none; stroke: #000000; stroke-width: 0.8; stroke-linejoin: miter; stroke-linecap: square"/>
   </g>
   <g id="patch_6">
    <path d="M 54.30125 25.44 
L 709.2 25.44 
" style="fill: none; stroke: #000000; stroke-width: 0.8; stroke-linejoin: miter; stroke-linecap: square"/>
   </g>
   <g id="text_17">
    <!-- losses/value_loss for ppo_atari (aggregated via interpolation over runs) -->
    <g transform="translate(167.5075 19.44) scale(0.12 -0.12)">
     <defs>
      <path id="DejaVuSans-20" transform="scale(0.015625)"/>
      <path id="DejaVuSans-66" d="M 2375 4863 
L 2375 4384 
L 1825 4384 
Q 1516 4384 1395 4259 
Q 1275 4134 1275 3809 
L 1275 3500 
L 2222 3500 
L 2222 3053 
L 1275 3053 
L 1275 0 
L 697 0 
L 697 3053 
L 147 3053 
L 147 3500 
L 697 3500 
L 697 3744 
Q 697 4328 969 4595 
Q 1241 4863 1831 4863 
L 2375 4863 
z
" transform="scale(0.015625)"/>
      <path id="DejaVuSans-72" d="M 2631 2963 
Q 2534 3019 2420 3045 
Q 2306 3072 2169 3072 
Q 1681 3072 1420 2755 
Q 1159 2438 1159 1844 
L 1159 0 
L 581 0 
L 581 3500 
L 1159 3500 
L 1159 2956 
Q 1341 3275 1631 3429 
Q 1922 3584 2338 3584 
Q 2397 3584 2469 3576 
Q 2541 3569 2628 3553 
L 2631 2963 
z
" transform="scale(0.015625)"/>
      <path id="DejaVuSans-69" d="M 603 3500 
L 1178 3500 
L 1178 0 
L 603 0 
L 603 3500 
z
M 603 4863 
L 1178 4863 
L 1178 4134 
L 603 4134 
L 603 4863 
z
" transform="scale(0.015625)"/>
      <path id="DejaVuSans-28" d="M 1984 4856 
Q 1566 4138 1362 3434 
Q 1159 2731 1159 2009 
Q 1159 1288 1364 580 
Q 1569 -128 1984 -844 
L 1484 -844 
Q 1016 -109 783 600 
Q 550 1309 550 2009 
Q 550 2706 781 3412 
Q 1013 4119 1484 4856 
L 1984 4856 
z
" transform="scale(0.015625)"/>
      <path id="DejaVuSans-67" d="M 2906 1791 
Q 2906 2416 2648 2759 
Q 2391 3103 1925 3103 
Q 1463 3103 1205 2759 
Q 947 2416 947 1791 
Q 947 1169 1205 825 
Q 1463 481 1925 481 
Q 2391 481 2648 825 
Q 2906 1169 2906 1791 
z
M 3481 434 
Q 3481 -459 3084 -895 
Q 2688 -1331 1869 -1331 
Q 1566 -1331 1297 -1286 
Q 1028 -1241 775 -1147 
L 775 -588 
Q 1028 -725 1275 -790 
Q 1522 -856 1778 -856 
Q 2344 -856 2625 -561 
Q 2906 -266 2906 331 
L 2906 616 
Q 2728 306 2450 153 
Q 2172 0 1784 0 
Q 1141 0 747 490 
Q 353 981 353 1791 
Q 353 2603 747 3093 
Q 1141 3584 1784 3584 
Q 2172 3584 2450 3431 
Q 2728 3278 2906 2969 
L 2906 3500 
L 3481 3500 
L 3481 434 
z
" transform="scale(0.015625)"/>
      <path id="DejaVuSans-64" d="M 2906 2969 
L 2906 4863 
L 3481 4863 
L 3481 0 
L 2906 0 
L 2906 525 
Q 2725 213 2448 61 
Q 2172 -91 1784 -91 
Q 1150 -91 751 415 
Q 353 922 353 1747 
Q 353 2572 751 3078 
Q 1150 3584 1784 3584 
Q 2172 3584 2448 3432 
Q 2725 3281 2906 2969 
z
M 947 1747 
Q 947 1113 1208 752 
Q 1469 391 1925 391 
Q 2381 391 2643 752 
Q 2906 1113 2906 1747 
Q 2906 2381 2643 2742 
Q 2381 3103 1925 3103 
Q 1469 3103 1208 2742 
Q 947 2381 947 1747 
z
" transform="scale(0.015625)"/>
      <path id="DejaVuSans-6e" d="M 3513 2113 
L 3513 0 
L 2938 0 
L 2938 2094 
Q 2938 2591 2744 2837 
Q 2550 3084 2163 3084 
Q 1697 3084 1428 2787 
Q 1159 2491 1159 1978 
L 1159 0 
L 581 0 
L 581 3500 
L 1159 3500 
L 1159 2956 
Q 1366 3272 1645 3428 
Q 1925 3584 2291 3584 
Q 2894 3584 3203 3211 
Q 3513 2838 3513 2113 
z
" transform="scale(0.015625)"/>
      <path id="DejaVuSans-29" d="M 513 4856 
L 1013 4856 
Q 1481 4119 1714 3412 
Q 1947 2706 1947 2009 
Q 1947 1309 1714 600 
Q 1481 -109 1013 -844 
L 513 -844 
Q 928 -128 1133 580 
Q 1338 1288 1338 2009 
Q 1338 2731 1133 3434 
Q 928 4138 513 4856 
z
" transform="scale(0.015625)"/>
     </defs>
     <use xlink:href="#DejaVuSans-6c"/>
     <use xlink:href="#DejaVuSans-6f" transform="translate(27.783203 0)"/>
     <use xlink:href="#DejaVuSans-73" transform="translate(88.964844 0)"/>
     <use xlink:href="#DejaVuSans-73" transform="translate(141.064453 0)"/>
     <use xlink:href="#DejaVuSans-65" transform="translate(193.164062 0)"/>
     <use xlink:href="#DejaVuSans-73" transform="translate(254.6875 0)"/>
     <use xlink:href="#DejaVuSans-2f" transform="translate(306.787109 0)"/>
     <use xlink:href="#DejaVuSans-76" transform="translate(340.478516 0)"/>
     <use xlink:href="#DejaVuSans-61" transform="translate(399.658203 0)"/>
     <use xlink:href="#DejaVuSans-6c" transform="translate(460.9375 0)"/>
     <use xlink:href="#DejaVuSans-75" transform="translate(488.720703 0)"/>
     <use xlink:href="#DejaVuSans-65" transform="translate(552.099609 0)"/>
     <use xlink:href="#DejaVuSans-5f" transform="translate(613.623047 0)"/>
     <use xlink:href="#DejaVuSans-6c" transform="translate(663.623047 0)"/>
     <use xlink:href="#DejaVuSans-6f" transform="translate(691.40625 0)"/>
     <use xlink:href="#DejaVuSans-73" transform="translate(752.587891 0)"/>
     <use xlink:href="#DejaVuSans-73" transform="translate(804.6875 0)"/>
     <use xlink:href="#DejaVuSans-20" transform="translate(856.787109 0)"/>
     <use xlink:href="#DejaVuSans-66" transform="translate(888.574219 0)"/>
     <use xlink:href="#DejaVuSans-6f" transform="translate(923.779297 0)"/>
     <use xlink:href="#DejaVuSans-72" transform="translate(984.960938 0)"/>
     <use xlink:href="#DejaVuSans-20" transform="translate(1026.074219 0)"/>
     <use xlink:href="#DejaVuSans-70" transform="translate(1057.861328 0)"/>
     <use xlink:href="#DejaVuSans-70" transform="translate(1121.337891 0)"/>
     <use xlink:href="#DejaVuSans-6f" transform="translate(1184.814453 0)"/>
     <use xlink:href="#DejaVuSans-5f" transform="translate(1245.996094 0)"/>
     <use xlink:href="#DejaVuSans-61" transform="translate(1295.996094 0)"/>
     <use xlink:href="#DejaVuSans-74" transform="translate(1357.275391 0)"/>
     <use xlink:href="#DejaVuSans-61" transform="translate(1396.484375 0)"/>
     <use xlink:href="#DejaVuSans-72" transform="translate(1457.763672 0)"/>
     <use xlink:href="#DejaVuSans-69" transform="translate(1498.876953 0)"/>
     <use xlink:href="#DejaVuSans-20" transform="translate(1526.660156 0)"/>
     <use xlink:href="#DejaVuSans-28" transform="translate(1558.447266 0)"/>
     <use xlink:href="#DejaVuSans-61" transform="translate(1597.460938 0)"/>
     <use xlink:href="#DejaVuSans-67" transform="translate(1658.740234 0)"/>
     <use xlink:href="#DejaVuSans-67" transform="translate(1722.216797 0)"/>
     <use xlink:href="#DejaVuSans-72" transform="translate(1785.693359 0)"/>
     <use xlink:href="#DejaVuSans-65" transform="translate(1824.556641 0)"/>
     <use xlink:href="#DejaVuSans-67" transform="translate(1886.080078 0)"/>
     <use xlink:href="#DejaVuSans-61" transform="translate(1949.556641 0)"/>
     <use xlink:href="#DejaVuSans-74" transform="translate(2010.835938 0)"/>
     <use xlink:href="#DejaVuSans-65" transform="translate(2050.044922 0)"/>
     <use xlink:href="#DejaVuSans-64" transform="translate(2111.568359 0)"/>
     <use xlink:href="#DejaVuSans-20" transform="translate(2175.044922 0)"/>
     <use xlink:href="#DejaVuSans-76" transform="translate(2206.832031 0)"/>
     <use xlink:href="#DejaVuSans-69" transform="translate(2266.011719 0)"/>
     <use xlink:href="#DejaVuSans-61" transform="translate(2293.794922 0)"/>
     <use xlink:href="#DejaVuSans-20" transform="translate(2355.074219 0)"/>
     <use xlink:href="#DejaVuSans-69" transform="translate(2386.861328 0)"/>
     <use xlink:href="#DejaVuSans-6e" transform="translate(2414.644531 0)"/>
     <use xlink:href="#DejaVuSans-74" transform="translate(2478.023438 0)"/>
     <use xlink:href="#DejaVuSans-65" transform="translate(2517.232422 0)"/>
     <use xlink:href="#DejaVuSans-72" transform="translate(2578.755859 0)"/>
     <use xlink:href="#DejaVuSans-70" transform="translate(2619.869141 0)"/>
     <use xlink:href="#DejaVuSans-6f" transform="translate(2683.345703 0)"/>
     <use xlink:href="#DejaVuSans-6c" transform="translate(2744.527344 0)"/>
     <use xlink:href="#DejaVuSans-61" transform="translate(2772.310547 0)"/>
     <use xlink:href="#DejaVuSans-74" transform="translate(2833.589844 0)"/>
     <use xlink:href="#DejaVuSans-69" transform="translate(2872.798828 0)"/>
     <use xlink:href="#DejaVuSans-6f" transform="translate(2900.582031 0)"/>
     <use xlink:href="#DejaVuSans-6e" transform="translate(2961.763672 0)"/>
     <use xlink:href="#DejaVuSans-20" transform="translate(3025.142578 0)"/>
     <use xlink:href="#DejaVuSans-6f" transform="translate(3056.929688 0)"/>
     <use xlink:href="#DejaVuSans-76" transform="translate(3118.111328 0)"/>
     <use xlink:href="#DejaVuSans-65" transform="translate(3177.291016 0)"/>
     <use xlink:href="#DejaVuSans-72" transform="translate(3238.814453 0)"/>
     <use xlink:href="#DejaVuSans-20" transform="translate(3279.927734 0)"/>
     <use xlink:href="#DejaVuSans-72" transform="translate(3311.714844 0)"/>
     <use xlink:href="#DejaVuSans-75" transform="translate(3352.828125 0)"/>
     <use xlink:href="#DejaVuSans-6e" transform="translate(3416.207031 0)"/>
     <use xlink:href="#DejaVuSans-73" transform="translate(3479.585938 0)"/>
     <use xlink:href="#DejaVuSans-29" transform="translate(3531.685547 0)"/>
    </g>
   </g>
   <g id="legend_1">
    <g id="patch_7">
     <path d="M 61.30125 62.79625 
L 136.72 62.79625 
Q 138.72 62.79625 138.72 60.79625 
L 138.72 32.44 
Q 138.72 30.44 136.72 30.44 
L 61.30125 30.44 
Q 59.30125 30.44 59.30125 32.44 
L 59.30125 60.79625 
Q 59.30125 62.79625 61.30125 62.79625 
z
" style="fill: #ffffff; opacity: 0.8; stroke: #cccccc; stroke-linejoin: miter"/>
    </g>
    <g id="line2d_16">
     <path d="M 63.30125 38.538437 
L 73.30125 38.538437 
L 83.30125 38.538437 
" style="fill: none; stroke: #00008b; stroke-width: 1.5; stroke-linecap: square"/>
    </g>
    <g id="text_18">
     <!-- Mean -->
     <g transform="translate(91.30125 42.038437) scale(0.1 -0.1)">
      <defs>
       <path id="DejaVuSans-4d" d="M 628 4666 
L 1569 4666 
L 2759 1491 
L 3956 4666 
L 4897 4666 
L 4897 0 
L 4281 0 
L 4281 4097 
L 3078 897 
L 2444 897 
L 1241 4097 
L 1241 0 
L 628 0 
L 628 4666 
z
" transform="scale(0.015625)"/>
      </defs>
      <use xlink:href="#DejaVuSans-4d"/>
      <use xlink:href="#DejaVuSans-65" transform="translate(86.279297 0)"/>
      <use xlink:href="#DejaVuSans-61" transform="translate(147.802734 0)"/>
      <use xlink:href="#DejaVuSans-6e" transform="translate(209.082031 0)"/>
     </g>
    </g>
    <g id="patch_8">
     <path d="M 63.30125 56.716563 
L 83.30125 56.716563 
L 83.30125 49.716563 
L 63.30125 49.716563 
z
" style="fill: #00008b; fill-opacity: 0.3; stroke: #00008b; stroke-opacity: 0.3; stroke-linejoin: miter"/>
    </g>
    <g id="text_19">
     <!-- MinMax -->
     <g transform="translate(91.30125 56.716563) scale(0.1 -0.1)">
      <defs>
       <path id="DejaVuSans-2013" d="M 313 1978 
L 2888 1978 
L 2888 1528 
L 313 1528 
L 313 1978 
z
" transform="scale(0.015625)"/>
       <path id="DejaVuSans-78" d="M 3513 3500 
L 2247 1797 
L 3578 0 
L 2900 0 
L 1881 1375 
L 863 0 
L 184 0 
L 1544 1831 
L 300 3500 
L 978 3500 
L 1906 2253 
L 2834 3500 
L 3513 3500 
z
" transform="scale(0.015625)"/>
      </defs>
      <use xlink:href="#DejaVuSans-4d"/>
      <use xlink:href="#DejaVuSans-69" transform="translate(86.279297 0)"/>
      <use xlink:href="#DejaVuSans-6e" transform="translate(114.0625 0)"/>
      <use xlink:href="#DejaVuSans-2013" transform="translate(177.441406 0)"/>
      <use xlink:href="#DejaVuSans-4d" transform="translate(227.441406 0)"/>
      <use xlink:href="#DejaVuSans-61" transform="translate(313.720703 0)"/>
      <use xlink:href="#DejaVuSans-78" transform="translate(375 0)"/>
     </g>
    </g>
   </g>
  </g>
 </g>
 <defs>
  <clipPath id="p7441f297e0">
   <rect x="54.30125" y="25.44" width="654.89875" height="364.6"/>
  </clipPath>
 </defs>
</svg>
