<?xml version="1.0" encoding="utf-8" standalone="no"?>
<!DOCTYPE svg PUBLIC "-//W3C//DTD SVG 1.1//EN"
  "http://www.w3.org/Graphics/SVG/1.1/DTD/svg11.dtd">
<svg xmlns:xlink="http://www.w3.org/1999/xlink" width="720pt" height="432pt" viewBox="0 0 720 432" xmlns="http://www.w3.org/2000/svg" version="1.1">
 <metadata>
  <rdf:RDF xmlns:dc="http://purl.org/dc/elements/1.1/" xmlns:cc="http://creativecommons.org/ns#" xmlns:rdf="http://www.w3.org/1999/02/22-rdf-syntax-ns#">
   <cc:Work>
    <dc:type rdf:resource="http://purl.org/dc/dcmitype/StillImage"/>
    <dc:date>2025-02-05T20:32:14.600904</dc:date>
    <dc:format>image/svg+xml</dc:format>
    <dc:creator>
     <cc:Agent>
      <dc:title>Matplotlib v3.10.0, https://matplotlib.org/</dc:title>
     </cc:Agent>
    </dc:creator>
   </cc:Work>
  </rdf:RDF>
 </metadata>
 <defs>
  <style type="text/css">*{stroke-linejoin: round; stroke-linecap: butt}</style>
 </defs>
 <g id="figure_1">
  <g id="patch_1">
   <path d="M 0 432 
L 720 432 
L 720 0 
L 0 0 
z
" style="fill: #ffffff"/>
  </g>
  <g id="axes_1">
   <g id="patch_2">
    <path d="M 53.13125 390.04 
L 709.2 390.04 
L 709.2 25.44 
L 53.13125 25.44 
z
" style="fill: #ffffff"/>
   </g>
   <g id="FillBetweenPolyCollection_1">
    <defs>
     <path id="m60991ca723" d="M 82.952557 -376.85407 
L 82.952557 -324.560963 
L 83.54958 -317.392241 
L 84.146603 -310.223519 
L 84.743626 -303.054797 
L 85.340649 -295.886075 
L 85.937673 -288.717353 
L 86.534696 -281.548631 
L 87.131719 -274.379909 
L 87.728742 -267.211187 
L 88.325765 -260.042465 
L 88.922788 -252.873743 
L 89.519812 -255.122165 
L 90.116835 -263.813895 
L 90.713858 -272.505626 
L 91.310881 -281.197357 
L 91.907904 -289.889088 
L 92.504927 -298.580819 
L 93.101951 -307.27255 
L 93.698974 -315.964281 
L 94.295997 -324.656012 
L 94.89302 -333.347743 
L 95.490043 -340.634749 
L 96.087066 -341.834617 
L 96.684089 -343.034484 
L 97.281113 -344.234352 
L 97.878136 -345.434219 
L 98.475159 -346.634087 
L 99.072182 -347.833954 
L 99.669205 -349.033822 
L 100.266228 -350.233689 
L 100.863252 -351.433557 
L 101.460275 -352.633424 
L 102.057298 -351.618017 
L 102.654321 -349.982332 
L 103.251344 -348.346648 
L 103.848367 -346.710963 
L 104.445391 -345.075279 
L 105.042414 -343.439595 
L 105.639437 -341.48821 
L 106.23646 -338.100617 
L 106.833483 -334.713024 
L 107.430506 -331.325432 
L 108.02753 -328.269261 
L 108.624553 -325.765461 
L 109.221576 -323.261661 
L 109.818599 -320.757861 
L 110.415622 -318.254062 
L 111.012645 -315.750262 
L 111.609668 -313.246462 
L 112.206692 -310.742662 
L 112.803715 -308.238862 
L 113.400738 -305.735062 
L 113.997761 -303.231262 
L 114.594784 -303.630234 
L 115.191807 -304.122843 
L 115.788831 -304.615452 
L 116.385854 -305.108061 
L 116.982877 -305.600671 
L 117.5799 -306.09328 
L 118.176923 -306.585889 
L 118.773946 -307.078498 
L 119.37097 -307.571108 
L 119.967993 -308.063717 
L 120.565016 -310.195565 
L 121.162039 -313.602377 
L 121.759062 -316.095286 
L 122.356085 -316.497124 
L 122.953109 -316.898963 
L 123.550132 -317.300801 
L 124.147155 -317.702639 
L 124.744178 -318.104478 
L 125.341201 -318.506316 
L 125.938224 -318.908154 
L 126.535247 -319.739925 
L 127.132271 -322.893329 
L 127.729294 -316.497249 
L 128.326317 -303.866934 
L 128.92334 -291.236618 
L 129.520363 -278.606303 
L 130.117386 -265.975988 
L 130.71441 -253.345672 
L 131.311433 -240.715357 
L 131.908456 -228.085042 
L 132.505479 -215.454726 
L 133.102502 -220.831141 
L 133.699525 -232.209798 
L 134.296549 -243.588456 
L 134.893572 -254.967114 
L 135.490595 -266.345772 
L 136.087618 -277.724429 
L 136.684641 -289.103087 
L 137.281664 -300.481745 
L 137.878687 -310.689578 
L 138.475711 -305.961264 
L 139.072734 -301.818892 
L 139.669757 -298.795135 
L 140.26678 -295.771378 
L 140.863803 -292.74762 
L 141.460826 -289.723863 
L 142.05785 -286.700106 
L 142.654873 -283.676349 
L 143.251896 -280.652592 
L 143.848919 -277.628834 
L 144.445942 -274.605077 
L 145.042965 -271.58132 
L 145.639989 -278.569382 
L 146.237012 -286.224898 
L 146.834035 -293.880414 
L 147.431058 -301.53593 
L 148.028081 -309.191446 
L 148.625104 -316.846963 
L 149.222128 -318.041074 
L 149.819151 -315.087159 
L 150.416174 -312.133243 
L 151.013197 -309.179328 
L 151.61022 -305.098189 
L 152.207243 -300.022443 
L 152.804266 -294.946697 
L 153.40129 -289.87095 
L 153.998313 -284.795204 
L 154.595336 -279.719458 
L 155.192359 -274.643711 
L 155.789382 -269.567965 
L 156.386405 -264.492219 
L 156.983429 -259.416472 
L 157.580452 -255.715513 
L 158.177475 -261.638062 
L 158.774498 -267.560612 
L 159.371521 -273.483161 
L 159.968544 -279.405711 
L 160.565568 -285.32826 
L 161.162591 -291.250809 
L 161.759614 -292.700085 
L 162.356637 -287.308501 
L 162.95366 -281.916918 
L 163.550683 -276.525334 
L 164.147707 -278.816332 
L 164.74473 -284.113556 
L 165.341753 -273.332057 
L 165.938776 -261.683318 
L 166.535799 -250.034578 
L 167.132822 -238.385838 
L 167.729845 -226.737098 
L 168.326869 -215.088359 
L 168.923892 -203.439619 
L 169.520915 -191.790879 
L 170.117938 -189.553697 
L 170.714961 -208.02194 
L 171.311984 -226.490183 
L 171.909008 -244.958426 
L 172.506031 -263.426669 
L 173.103054 -281.894912 
L 173.700077 -300.363155 
L 174.2971 -318.831398 
L 174.894123 -337.299641 
L 175.491147 -348.737249 
L 176.08817 -358.348142 
L 176.685193 -349.346898 
L 177.282216 -338.42026 
L 177.879239 -327.493622 
L 178.476262 -316.566985 
L 179.073286 -305.640347 
L 179.670309 -294.713709 
L 180.267332 -283.787072 
L 180.864355 -272.860434 
L 181.461378 -261.933796 
L 182.058401 -251.007159 
L 182.655424 -248.010011 
L 183.252448 -252.942354 
L 183.849471 -257.874696 
L 184.446494 -262.807038 
L 185.043517 -267.739381 
L 185.64054 -272.671723 
L 186.237563 -277.604066 
L 186.834587 -282.536408 
L 187.43161 -275.006902 
L 188.028633 -267.402525 
L 188.625656 -260.286231 
L 189.222679 -257.888067 
L 189.819702 -255.489903 
L 190.416726 -253.09174 
L 191.013749 -250.693576 
L 191.610772 -248.295412 
L 192.207795 -245.897248 
L 192.804818 -243.499084 
L 193.401841 -241.10092 
L 193.998864 -238.702756 
L 194.595888 -236.304593 
L 195.192911 -238.460124 
L 195.789934 -242.685517 
L 196.386957 -246.91091 
L 196.98398 -251.136304 
L 197.581003 -255.361697 
L 198.178027 -259.58709 
L 198.77505 -263.812483 
L 199.372073 -268.037876 
L 199.969096 -272.26327 
L 200.566119 -276.488663 
L 201.163142 -280.038363 
L 201.760166 -281.861291 
L 202.357189 -283.68422 
L 202.954212 -278.398883 
L 203.551235 -267.058539 
L 204.148258 -255.718196 
L 204.745281 -244.377852 
L 205.342305 -233.037509 
L 205.939328 -221.697165 
L 206.536351 -210.356822 
L 207.133374 -199.016478 
L 207.730397 -208.636196 
L 208.32742 -221.250208 
L 208.924443 -233.86422 
L 209.521467 -246.478231 
L 210.11849 -259.092243 
L 210.715513 -271.706255 
L 211.312536 -284.320267 
L 211.909559 -287.458406 
L 212.506582 -286.056869 
L 213.103606 -284.655331 
L 213.700629 -285.177991 
L 214.297652 -287.881408 
L 214.894675 -290.584826 
L 215.491698 -293.288243 
L 216.088721 -295.991661 
L 216.685745 -298.695078 
L 217.282768 -301.398496 
L 217.879791 -304.101913 
L 218.476814 -301.701528 
L 219.073837 -298.49421 
L 219.67086 -295.740766 
L 220.267884 -299.795415 
L 220.864907 -303.850063 
L 221.46193 -306.070856 
L 222.058953 -304.120703 
L 222.655976 -302.170549 
L 223.252999 -294.591727 
L 223.850022 -284.392447 
L 224.447046 -274.193167 
L 225.044069 -263.993886 
L 225.641092 -253.794606 
L 226.238115 -253.94458 
L 226.835138 -259.515591 
L 227.432161 -265.086602 
L 228.029185 -270.657613 
L 228.626208 -276.228624 
L 229.223231 -279.477546 
L 229.820254 -277.307934 
L 230.417277 -275.138322 
L 231.0143 -272.968709 
L 231.611324 -267.695499 
L 232.208347 -261.408072 
L 232.80537 -243.484185 
L 233.402393 -222.934023 
L 233.999416 -202.383861 
L 234.596439 -181.833699 
L 235.193462 -161.283537 
L 235.790486 -140.733375 
L 236.387509 -120.183213 
L 236.984532 -99.633051 
L 237.581555 -79.082889 
L 238.178578 -58.532727 
L 238.775601 -67.261892 
L 239.372625 -81.413155 
L 239.969648 -95.564418 
L 240.566671 -109.71568 
L 241.163694 -123.866943 
L 241.760717 -138.018205 
L 242.35774 -152.169468 
L 242.954764 -166.320731 
L 243.551787 -180.471993 
L 244.14881 -178.195595 
L 244.745833 -181.181421 
L 245.342856 -194.355737 
L 245.939879 -207.530052 
L 246.536903 -220.704368 
L 247.133926 -233.878683 
L 247.730949 -243.120224 
L 248.327972 -250.575283 
L 248.924995 -258.030342 
L 249.522018 -265.485401 
L 250.119041 -272.94046 
L 250.716065 -280.014139 
L 251.313088 -275.265029 
L 251.910111 -270.51592 
L 252.507134 -265.766811 
L 253.104157 -261.017701 
L 253.70118 -251.381779 
L 254.298204 -239.231498 
L 254.895227 -227.081218 
L 255.49225 -214.930937 
L 256.089273 -202.780656 
L 256.686296 -190.630376 
L 257.283319 -190.527158 
L 257.880343 -197.652177 
L 258.477366 -204.777197 
L 259.074389 -211.902216 
L 259.671412 -219.027235 
L 260.268435 -226.152255 
L 260.865458 -233.277274 
L 261.462482 -240.402294 
L 262.059505 -242.517041 
L 262.656528 -239.805424 
L 263.253551 -237.723632 
L 263.850574 -237.891216 
L 264.447597 -220.919926 
L 265.04462 -203.207779 
L 265.641644 -185.495631 
L 266.238667 -167.783483 
L 266.83569 -150.071335 
L 267.432713 -129.56528 
L 268.029736 -106.159058 
L 268.626759 -82.752835 
L 269.223783 -59.346612 
L 269.820806 -67.966764 
L 270.417829 -83.977617 
L 271.014852 -99.988471 
L 271.611875 -115.999324 
L 272.208898 -132.010177 
L 272.805922 -148.021031 
L 273.402945 -164.031884 
L 273.999968 -180.042738 
L 274.596991 -196.053591 
L 275.194014 -212.064444 
L 275.791037 -225.657531 
L 276.388061 -235.716957 
L 276.985084 -245.776384 
L 277.582107 -255.835811 
L 278.17913 -265.895237 
L 278.776153 -275.954664 
L 279.373176 -286.01409 
L 279.970199 -293.763439 
L 280.567223 -295.290587 
L 281.164246 -296.817735 
L 281.761269 -298.344883 
L 282.358292 -299.699784 
L 282.955315 -297.523754 
L 283.552338 -291.836842 
L 284.149362 -286.149931 
L 284.746385 -280.463019 
L 285.343408 -274.776107 
L 285.940431 -269.089195 
L 286.537454 -263.402283 
L 287.134477 -257.715371 
L 287.731501 -252.028459 
L 288.328524 -249.265336 
L 288.925547 -248.502699 
L 289.52257 -247.740063 
L 290.119593 -246.977427 
L 290.716616 -246.21479 
L 291.313639 -245.452154 
L 291.910663 -244.689517 
L 292.507686 -234.930734 
L 293.104709 -224.723183 
L 293.701732 -214.515633 
L 294.298755 -207.721294 
L 294.895778 -215.717543 
L 295.492802 -223.713791 
L 296.089825 -231.710039 
L 296.686848 -239.706288 
L 297.283871 -247.702536 
L 297.880894 -255.698785 
L 298.477917 -258.476732 
L 299.074941 -260.799482 
L 299.671964 -263.122233 
L 300.268987 -265.444983 
L 300.86601 -271.416548 
L 301.463033 -278.409782 
L 302.060056 -285.403015 
L 302.65708 -292.396249 
L 303.254103 -299.389482 
L 303.851126 -305.39217 
L 304.448149 -306.051758 
L 305.045172 -306.711347 
L 305.642195 -307.370935 
L 306.239218 -308.030523 
L 306.836242 -307.385931 
L 307.433265 -304.567706 
L 308.030288 -301.749481 
L 308.627311 -298.931256 
L 309.224334 -296.113031 
L 309.821357 -293.294807 
L 310.418381 -290.37731 
L 311.015404 -282.793136 
L 311.612427 -275.208961 
L 312.20945 -267.624787 
L 312.806473 -260.040613 
L 313.403496 -264.018329 
L 314.00052 -268.36901 
L 314.597543 -272.719691 
L 315.194566 -277.070372 
L 315.791589 -281.421053 
L 316.388612 -285.771734 
L 316.985635 -290.122415 
L 317.582659 -294.473096 
L 318.179682 -298.823777 
L 318.776705 -303.174458 
L 319.373728 -303.064851 
L 319.970751 -299.486132 
L 320.567774 -295.907413 
L 321.164797 -292.328694 
L 321.761821 -288.749975 
L 322.358844 -285.171256 
L 322.955867 -281.420779 
L 323.55289 -273.941471 
L 324.149913 -266.462162 
L 324.746936 -258.982854 
L 325.34396 -252.86244 
L 325.940983 -254.080055 
L 326.538006 -255.297671 
L 327.135029 -256.515286 
L 327.732052 -257.732902 
L 328.329075 -258.950517 
L 328.926099 -260.068915 
L 329.523122 -259.302963 
L 330.120145 -258.537011 
L 330.717168 -257.77106 
L 331.314191 -257.005108 
L 331.911214 -258.593986 
L 332.508237 -260.967806 
L 333.105261 -263.341627 
L 333.702284 -265.715448 
L 334.299307 -267.355864 
L 334.89633 -267.779626 
L 335.493353 -268.203387 
L 336.090376 -268.627148 
L 336.6874 -269.05091 
L 337.284423 -269.474671 
L 337.881446 -271.28231 
L 338.478469 -275.731897 
L 339.075492 -280.181484 
L 339.672515 -284.631072 
L 340.269539 -275.817801 
L 340.866562 -262.465945 
L 341.463585 -249.114089 
L 342.060608 -235.762232 
L 342.657631 -222.410376 
L 343.254654 -209.05852 
L 343.851678 -195.706664 
L 344.448701 -198.059888 
L 345.045724 -201.460117 
L 345.642747 -204.860346 
L 346.23977 -208.260575 
L 346.836793 -211.660804 
L 347.433816 -215.061033 
L 348.03084 -218.461262 
L 348.627863 -221.861491 
L 349.224886 -225.26172 
L 349.821909 -228.661949 
L 350.418932 -232.851858 
L 351.015955 -237.738543 
L 351.612979 -242.625229 
L 352.210002 -247.511915 
L 352.807025 -252.3986 
L 353.404048 -257.285286 
L 354.001071 -262.171972 
L 354.598094 -267.058657 
L 355.195118 -269.579343 
L 355.792141 -264.68653 
L 356.389164 -260.910895 
L 356.986187 -264.955511 
L 357.58321 -260.728479 
L 358.180233 -251.138173 
L 358.777257 -241.547867 
L 359.37428 -231.957562 
L 359.971303 -222.367256 
L 360.568326 -212.77695 
L 361.165349 -203.186644 
L 361.762372 -193.596339 
L 362.359395 -184.006033 
L 362.956419 -186.273619 
L 363.553442 -193.181251 
L 364.150465 -200.088882 
L 364.747488 -206.996514 
L 365.344511 -213.904145 
L 365.941534 -220.811777 
L 366.538558 -227.719408 
L 367.135581 -234.627039 
L 367.732604 -241.534671 
L 368.329627 -245.09837 
L 368.92665 -242.194525 
L 369.523673 -245.724427 
L 370.120697 -240.035381 
L 370.71772 -234.346336 
L 371.314743 -228.657291 
L 371.911766 -222.968245 
L 372.508789 -217.2792 
L 373.105812 -211.590154 
L 373.702836 -205.901109 
L 374.299859 -200.212063 
L 374.896882 -194.523018 
L 375.493905 -203.016988 
L 376.090928 -212.978166 
L 376.687951 -222.939344 
L 377.284974 -232.900522 
L 377.881998 -242.8617 
L 378.479021 -252.822878 
L 379.076044 -262.784056 
L 379.673067 -272.745234 
L 380.27009 -276.76954 
L 380.867113 -276.457993 
L 381.464137 -276.90078 
L 382.06116 -274.394615 
L 382.658183 -267.113253 
L 383.255206 -259.831891 
L 383.852229 -252.550529 
L 384.449252 -245.269168 
L 385.046276 -237.987806 
L 385.643299 -230.706444 
L 386.240322 -223.425083 
L 386.837345 -216.143721 
L 387.434368 -210.311376 
L 388.031391 -218.486189 
L 388.628414 -226.661003 
L 389.225438 -234.835817 
L 389.822461 -243.010631 
L 390.419484 -251.185445 
L 391.016507 -259.360259 
L 391.61353 -267.535072 
L 392.210553 -263.114913 
L 392.807577 -251.70863 
L 393.4046 -240.302346 
L 394.001623 -240.207496 
L 394.598646 -245.254206 
L 395.195669 -250.300916 
L 395.792692 -255.347626 
L 396.389716 -260.394336 
L 396.986739 -265.441046 
L 397.583762 -270.487756 
L 398.180785 -275.534467 
L 398.777808 -280.581177 
L 399.374831 -285.627887 
L 399.971855 -290.032094 
L 400.568878 -292.79435 
L 401.165901 -295.556606 
L 401.762924 -298.318862 
L 402.359947 -297.825513 
L 402.95697 -287.418974 
L 403.553993 -277.012435 
L 404.151017 -266.605896 
L 404.74804 -256.199356 
L 405.345063 -245.792817 
L 405.942086 -235.386278 
L 406.539109 -242.034259 
L 407.136132 -251.118601 
L 407.733156 -260.202942 
L 408.330179 -269.287284 
L 408.927202 -278.371625 
L 409.524225 -273.170235 
L 410.121248 -267.351207 
L 410.718271 -261.532179 
L 411.315295 -255.713151 
L 411.912318 -249.894122 
L 412.509341 -250.32813 
L 413.106364 -257.848912 
L 413.703387 -265.369693 
L 414.30041 -262.229543 
L 414.897434 -243.090128 
L 415.494457 -223.950713 
L 416.09148 -204.811298 
L 416.688503 -185.671883 
L 417.285526 -166.532468 
L 417.882549 -147.393053 
L 418.479572 -130.295595 
L 419.076596 -143.827499 
L 419.673619 -157.359402 
L 420.270642 -170.891306 
L 420.867665 -184.42321 
L 421.464688 -197.955113 
L 422.061711 -208.193273 
L 422.658735 -197.873533 
L 423.255758 -187.553793 
L 423.852781 -177.234053 
L 424.449804 -166.914314 
L 425.046827 -168.760647 
L 425.64385 -176.979685 
L 426.240874 -185.198724 
L 426.837897 -193.417762 
L 427.43492 -201.636801 
L 428.031943 -209.855839 
L 428.628966 -218.074878 
L 429.225989 -226.293916 
L 429.823013 -234.512955 
L 430.420036 -242.731993 
L 431.017059 -249.725482 
L 431.614082 -253.042322 
L 432.211105 -256.359162 
L 432.808128 -259.676002 
L 433.405151 -258.52108 
L 434.002175 -251.066086 
L 434.599198 -243.611092 
L 435.196221 -236.156098 
L 435.793244 -228.701104 
L 436.390267 -221.246109 
L 436.98729 -213.791115 
L 437.584314 -222.055235 
L 438.181337 -233.230301 
L 438.77836 -244.405368 
L 439.375383 -253.716807 
L 439.972406 -261.009586 
L 440.569429 -268.302366 
L 441.166453 -275.595145 
L 441.763476 -281.838432 
L 442.360499 -281.6378 
L 442.957522 -281.437169 
L 443.554545 -282.194212 
L 444.151568 -284.182552 
L 444.748591 -286.170891 
L 445.345615 -283.900126 
L 445.942638 -270.804364 
L 446.539661 -257.708601 
L 447.136684 -244.612839 
L 447.733707 -231.517077 
L 448.33073 -218.421315 
L 448.927754 -205.325553 
L 449.524777 -192.936773 
L 450.1218 -202.464461 
L 450.718823 -211.992149 
L 451.315846 -221.519837 
L 451.912869 -231.047524 
L 452.509893 -240.575212 
L 453.106916 -239.759629 
L 453.703939 -229.437417 
L 454.300962 -219.115204 
L 454.897985 -208.792992 
L 455.495008 -198.47078 
L 456.092032 -197.22521 
L 456.689055 -201.425624 
L 457.286078 -205.626039 
L 457.883101 -209.826454 
L 458.480124 -214.026869 
L 459.077147 -218.227283 
L 459.67417 -222.427698 
L 460.271194 -226.628113 
L 460.868217 -230.828528 
L 461.46524 -235.028942 
L 462.062263 -238.595136 
L 462.659286 -239.896253 
L 463.256309 -241.19737 
L 463.853333 -242.498488 
L 464.450356 -243.799605 
L 465.047379 -245.100723 
L 465.644402 -246.40184 
L 466.241425 -247.702957 
L 466.838448 -246.409205 
L 467.435472 -242.797485 
L 468.032495 -239.185765 
L 468.629518 -239.179058 
L 469.226541 -240.004279 
L 469.823564 -240.829499 
L 470.420587 -241.654719 
L 471.017611 -242.479939 
L 471.614634 -243.30516 
L 472.211657 -244.068043 
L 472.80868 -242.925698 
L 473.405703 -241.783353 
L 474.002726 -240.641008 
L 474.599749 -242.256981 
L 475.196773 -247.90434 
L 475.793796 -253.551699 
L 476.390819 -259.199058 
L 476.987842 -264.846418 
L 477.584865 -270.493777 
L 478.181888 -276.141136 
L 478.778912 -281.788495 
L 479.375935 -283.137121 
L 479.972958 -280.620499 
L 480.569981 -278.103876 
L 481.167004 -272.743963 
L 481.764027 -267.38405 
L 482.361051 -262.024138 
L 482.958074 -256.664225 
L 483.555097 -251.304312 
L 484.15212 -245.944399 
L 484.749143 -240.584486 
L 485.346166 -235.224573 
L 485.943189 -229.86466 
L 486.540213 -224.504747 
L 487.137236 -225.783859 
L 487.734259 -231.605461 
L 488.331282 -237.427063 
L 488.928305 -243.248665 
L 489.525328 -234.714269 
L 490.122352 -210.706188 
L 490.719375 -186.698106 
L 491.316398 -162.690024 
L 491.913421 -138.681943 
L 492.510444 -114.673861 
L 493.107467 -99.496552 
L 493.704491 -122.585926 
L 494.301514 -145.6753 
L 494.898537 -168.764674 
L 495.49556 -191.854048 
L 496.092583 -214.943422 
L 496.689606 -238.032796 
L 497.28663 -261.12217 
L 497.883653 -276.990386 
L 498.480676 -276.267584 
L 499.077699 -275.544782 
L 499.674722 -273.710115 
L 500.271745 -271.564126 
L 500.868768 -269.418138 
L 501.465792 -267.272149 
L 502.062815 -265.013905 
L 502.659838 -261.849921 
L 503.256861 -258.685937 
L 503.853884 -255.521954 
L 504.450907 -252.35797 
L 505.047931 -249.193987 
L 505.644954 -246.213324 
L 506.241977 -243.538196 
L 506.839 -240.863068 
L 507.436023 -238.18794 
L 508.033046 -235.512812 
L 508.63007 -232.837684 
L 509.227093 -230.162556 
L 509.824116 -227.487427 
L 510.421139 -224.812299 
L 511.018162 -222.137171 
L 511.615185 -219.462043 
L 512.212209 -220.733553 
L 512.809232 -222.132374 
L 513.406255 -223.531195 
L 514.003278 -224.930016 
L 514.600301 -226.328837 
L 515.197324 -227.727658 
L 515.794347 -221.157642 
L 516.391371 -208.704858 
L 516.988394 -196.252074 
L 517.585417 -183.79929 
L 518.18244 -186.118904 
L 518.779463 -199.92816 
L 519.376486 -213.737417 
L 519.97351 -227.546673 
L 520.570533 -241.35593 
L 521.167556 -255.165186 
L 521.764579 -264.665583 
L 522.361602 -263.811435 
L 522.958625 -258.833334 
L 523.555649 -253.855233 
L 524.152672 -249.934457 
L 524.749695 -251.723231 
L 525.346718 -253.512005 
L 525.943741 -255.30078 
L 526.540764 -257.089554 
L 527.137788 -248.251717 
L 527.734811 -233.938591 
L 528.331834 -219.625465 
L 528.928857 -205.312339 
L 529.52588 -190.999213 
L 530.122903 -176.686087 
L 530.719926 -187.778932 
L 531.31695 -207.340433 
L 531.913973 -226.901934 
L 532.510996 -243.442973 
L 533.108019 -236.822594 
L 533.705042 -230.202215 
L 534.302065 -223.581836 
L 534.899089 -216.961457 
L 535.496112 -210.341079 
L 536.093135 -203.7207 
L 536.690158 -203.784709 
L 537.287181 -216.609825 
L 537.884204 -229.43494 
L 538.481228 -232.890049 
L 539.078251 -221.628338 
L 539.675274 -210.366628 
L 540.272297 -199.104917 
L 540.86932 -187.843207 
L 541.466343 -176.581496 
L 542.063366 -165.319786 
L 542.66039 -154.058076 
L 543.257413 -170.281375 
L 543.854436 -188.337007 
L 544.451459 -206.39264 
L 545.048482 -224.448273 
L 545.645505 -242.503906 
L 546.242529 -257.069018 
L 546.839552 -262.613222 
L 547.436575 -252.490813 
L 548.033598 -242.368405 
L 548.630621 -232.245996 
L 549.227644 -223.462077 
L 549.824668 -215.859179 
L 550.421691 -208.25628 
L 551.018714 -200.653381 
L 551.615737 -193.050482 
L 552.21276 -185.447583 
L 552.809783 -177.844685 
L 553.406807 -170.241786 
L 554.00383 -162.638887 
L 554.600853 -155.035988 
L 555.197876 -149.819437 
L 555.794899 -161.307313 
L 556.391922 -172.79519 
L 556.988945 -184.283067 
L 557.585969 -195.770944 
L 558.182992 -207.258821 
L 558.780015 -218.746698 
L 559.377038 -230.234574 
L 559.974061 -237.339061 
L 560.571084 -235.184919 
L 561.168108 -233.030778 
L 561.765131 -234.303344 
L 562.362154 -236.916797 
L 562.959177 -239.53025 
L 563.5562 -242.143702 
L 564.153223 -244.757155 
L 564.750247 -247.370607 
L 565.34727 -249.98406 
L 565.944293 -252.597512 
L 566.541316 -255.210965 
L 567.138339 -257.824418 
L 567.735362 -260.757672 
L 568.332386 -264.39449 
L 568.929409 -255.899638 
L 569.526432 -244.676465 
L 570.123455 -233.453292 
L 570.720478 -222.230119 
L 571.317501 -211.006946 
L 571.914524 -199.783772 
L 572.511548 -188.560599 
L 573.108571 -177.337426 
L 573.705594 -166.114253 
L 574.302617 -166.74842 
L 574.89964 -168.60921 
L 575.496663 -170.469999 
L 576.093687 -172.330788 
L 576.69071 -174.191578 
L 577.287733 -176.052367 
L 577.884756 -177.913156 
L 578.481779 -179.773945 
L 579.078802 -181.634735 
L 579.675826 -183.495524 
L 580.272849 -188.565011 
L 580.869872 -196.843194 
L 581.466895 -202.080982 
L 582.063918 -204.862379 
L 582.660941 -207.643776 
L 583.257964 -210.425173 
L 583.854988 -213.20657 
L 584.452011 -215.987967 
L 585.049034 -218.769364 
L 585.646057 -221.550761 
L 586.24308 -224.218039 
L 586.840103 -225.782164 
L 587.437127 -227.346289 
L 588.03415 -228.910415 
L 588.631173 -230.47454 
L 589.228196 -232.038665 
L 589.825219 -233.602791 
L 590.422242 -235.166916 
L 591.019266 -236.731042 
L 591.616289 -238.295167 
L 592.213312 -239.859292 
L 592.810335 -242.754324 
L 593.407358 -246.254314 
L 594.004381 -249.754303 
L 594.601405 -252.671663 
L 595.198428 -255.377885 
L 595.795451 -258.084106 
L 596.392474 -260.790327 
L 596.989497 -263.496548 
L 597.58652 -266.20277 
L 598.183543 -265.168506 
L 598.780567 -259.543932 
L 599.37759 -258.284595 
L 599.974613 -256.476193 
L 600.571636 -250.173555 
L 601.168659 -243.870916 
L 601.765682 -237.568277 
L 602.362706 -231.265639 
L 602.959729 -224.963 
L 603.556752 -218.660362 
L 604.153775 -212.357723 
L 604.750798 -206.055085 
L 605.347821 -202.472424 
L 605.944845 -199.278332 
L 606.541868 -196.084239 
L 607.138891 -192.890147 
L 607.735914 -189.696054 
L 608.332937 -186.501962 
L 608.92996 -183.307869 
L 609.526984 -180.113777 
L 610.124007 -176.919684 
L 610.72103 -173.725592 
L 611.318053 -176.214419 
L 611.915076 -176.465158 
L 612.512099 -176.715897 
L 613.109122 -176.966635 
L 613.706146 -177.217374 
L 614.303169 -177.468113 
L 614.900192 -177.718851 
L 615.497215 -177.96959 
L 616.094238 -178.220329 
L 616.691261 -178.471067 
L 617.288285 -179.452151 
L 617.885308 -191.388411 
L 618.482331 -203.32467 
L 619.079354 -215.26093 
L 619.676377 -227.19719 
L 620.2734 -239.133449 
L 620.870424 -249.55554 
L 621.467447 -251.175119 
L 622.06447 -252.794698 
L 622.661493 -254.414277 
L 623.258516 -256.033856 
L 623.855539 -254.964199 
L 624.452563 -252.485894 
L 625.049586 -250.00759 
L 625.646609 -247.529285 
L 626.243632 -245.050981 
L 626.840655 -242.572677 
L 627.437678 -233.798119 
L 628.034701 -221.229404 
L 628.631725 -208.660689 
L 629.228748 -196.091973 
L 629.825771 -189.418695 
L 630.422794 -200.431725 
L 631.019817 -211.444756 
L 631.61684 -222.457786 
L 632.213864 -233.470817 
L 632.810887 -238.039149 
L 633.40791 -239.417895 
L 634.004933 -240.796641 
L 634.601956 -242.175387 
L 635.198979 -243.554134 
L 635.796003 -244.93288 
L 636.393026 -248.980441 
L 636.990049 -253.522227 
L 637.587072 -258.064013 
L 638.184095 -262.605799 
L 638.781118 -267.147585 
L 639.378141 -271.689371 
L 639.975165 -276.231157 
L 640.572188 -280.772943 
L 641.169211 -285.314729 
L 641.766234 -288.591249 
L 642.363257 -288.991411 
L 642.96028 -283.616244 
L 643.557304 -278.241077 
L 644.154327 -272.86591 
L 644.75135 -267.490744 
L 645.348373 -262.115577 
L 645.945396 -256.74041 
L 646.542419 -251.365244 
L 647.139443 -245.990077 
L 647.736466 -240.61491 
L 648.333489 -235.412596 
L 648.930512 -235.568719 
L 649.527535 -235.724841 
L 650.124558 -235.880963 
L 650.721582 -236.037086 
L 651.318605 -236.193208 
L 651.915628 -232.193759 
L 652.512651 -223.896958 
L 653.109674 -215.600156 
L 653.706697 -207.303355 
L 654.30372 -199.006554 
L 654.900744 -201.189565 
L 655.497767 -209.660464 
L 656.09479 -218.131363 
L 656.691813 -226.602262 
L 657.288836 -235.073161 
L 657.885859 -243.54406 
L 658.482883 -252.01496 
L 659.079906 -252.535556 
L 659.676929 -244.263428 
L 660.273952 -235.9913 
L 660.870975 -231.255217 
L 661.467998 -239.147868 
L 662.065022 -247.04052 
L 662.662045 -254.933171 
L 663.259068 -262.825822 
L 663.856091 -270.718473 
L 664.453114 -278.611124 
L 665.050137 -286.503776 
L 665.647161 -293.928854 
L 666.244184 -288.669932 
L 666.841207 -283.41101 
L 667.43823 -279.04649 
L 668.035253 -274.88837 
L 668.632276 -270.73025 
L 669.229299 -266.57213 
L 669.826323 -262.41401 
L 670.423346 -257.577418 
L 671.020369 -249.33398 
L 671.617392 -241.090543 
L 672.214415 -232.847105 
L 672.811438 -224.603667 
L 673.408462 -217.006593 
L 674.005485 -210.354203 
L 674.602508 -203.701812 
L 675.199531 -197.049422 
L 675.796554 -190.397032 
L 676.393577 -183.744642 
L 676.990601 -177.092252 
L 677.587624 -170.439861 
L 678.184647 -163.787471 
L 678.78167 -157.135081 
L 679.378693 -150.482691 
L 679.378693 -389.83963 
L 679.378693 -389.83963 
L 678.78167 -389.838564 
L 678.184647 -389.837498 
L 677.587624 -389.836433 
L 676.990601 -389.835367 
L 676.393577 -389.834301 
L 675.796554 -389.833236 
L 675.199531 -389.83217 
L 674.602508 -389.831104 
L 674.005485 -389.830038 
L 673.408462 -389.828973 
L 672.811438 -389.833578 
L 672.214415 -389.842065 
L 671.617392 -389.850551 
L 671.020369 -389.859037 
L 670.423346 -389.867523 
L 669.826323 -389.876009 
L 669.229299 -389.884495 
L 668.632276 -389.892981 
L 668.035253 -389.901467 
L 667.43823 -389.909953 
L 666.841207 -389.912376 
L 666.244184 -389.888522 
L 665.647161 -389.864668 
L 665.050137 -389.840814 
L 664.453114 -389.81696 
L 663.856091 -389.793106 
L 663.259068 -389.769252 
L 662.662045 -389.745398 
L 662.065022 -389.721544 
L 661.467998 -389.697691 
L 660.870975 -389.673837 
L 660.273952 -389.664657 
L 659.676929 -389.659586 
L 659.079906 -389.654515 
L 658.482883 -389.649444 
L 657.885859 -389.644373 
L 657.288836 -389.639302 
L 656.691813 -389.634231 
L 656.09479 -389.62916 
L 655.497767 -389.624089 
L 654.900744 -389.619018 
L 654.30372 -389.609505 
L 653.706697 -389.59259 
L 653.109674 -389.575675 
L 652.512651 -389.55876 
L 651.915628 -389.541844 
L 651.318605 -389.524929 
L 650.721582 -389.508014 
L 650.124558 -389.491099 
L 649.527535 -389.474183 
L 648.930512 -389.457268 
L 648.333489 -389.440353 
L 647.736466 -389.474304 
L 647.139443 -389.509896 
L 646.542419 -389.545488 
L 645.945396 -389.592065 
L 645.348373 -389.648009 
L 644.75135 -389.703952 
L 644.154327 -389.759896 
L 643.557304 -389.81584 
L 642.96028 -389.871783 
L 642.363257 -389.927727 
L 641.766234 -389.937026 
L 641.169211 -389.910047 
L 640.572188 -389.883067 
L 639.975165 -389.856088 
L 639.378141 -389.829108 
L 638.781118 -389.80505 
L 638.184095 -389.804124 
L 637.587072 -389.803197 
L 636.990049 -389.802271 
L 636.393026 -389.801344 
L 635.796003 -389.789816 
L 635.198979 -389.721036 
L 634.601956 -389.652256 
L 634.004933 -389.651147 
L 633.40791 -389.674213 
L 632.810887 -389.697279 
L 632.213864 -389.720345 
L 631.61684 -389.743411 
L 631.019817 -389.766477 
L 630.422794 -389.789543 
L 629.825771 -389.812609 
L 629.228748 -389.831368 
L 628.631725 -389.84869 
L 628.034701 -389.866013 
L 627.437678 -389.883336 
L 626.840655 -389.900659 
L 626.243632 -389.917982 
L 625.646609 -389.935304 
L 625.049586 -389.952627 
L 624.452563 -389.96995 
L 623.855539 -389.987273 
L 623.258516 -389.968923 
L 622.661493 -389.882472 
L 622.06447 -389.796021 
L 621.467447 -389.780259 
L 620.870424 -389.777006 
L 620.2734 -389.773752 
L 619.676377 -389.770498 
L 619.079354 -389.767245 
L 618.482331 -389.763991 
L 617.885308 -389.760737 
L 617.288285 -389.757484 
L 616.691261 -389.739409 
L 616.094238 -389.720346 
L 615.497215 -389.701284 
L 614.900192 -389.682221 
L 614.303169 -389.663158 
L 613.706146 -389.644096 
L 613.109122 -389.625033 
L 612.512099 -389.60597 
L 611.915076 -389.586908 
L 611.318053 -389.567845 
L 610.72103 -389.556579 
L 610.124007 -389.552193 
L 609.526984 -389.547807 
L 608.92996 -389.579173 
L 608.332937 -389.614261 
L 607.735914 -389.64935 
L 607.138891 -389.684438 
L 606.541868 -389.719527 
L 605.944845 -389.754615 
L 605.347821 -389.789704 
L 604.750798 -389.819153 
L 604.153775 -389.809131 
L 603.556752 -389.799108 
L 602.959729 -389.789086 
L 602.362706 -389.779064 
L 601.765682 -389.769041 
L 601.168659 -389.759019 
L 600.571636 -389.78681 
L 599.974613 -389.825202 
L 599.37759 -389.863594 
L 598.780567 -389.901987 
L 598.183543 -389.903014 
L 597.58652 -389.881894 
L 596.989497 -389.860773 
L 596.392474 -389.839653 
L 595.795451 -389.818533 
L 595.198428 -389.797412 
L 594.601405 -389.776292 
L 594.004381 -389.755172 
L 593.407358 -389.734052 
L 592.810335 -389.712931 
L 592.213312 -389.678064 
L 591.616289 -389.612955 
L 591.019266 -389.547846 
L 590.422242 -389.482737 
L 589.825219 -389.436252 
L 589.228196 -389.474876 
L 588.631173 -389.513499 
L 588.03415 -389.552123 
L 587.437127 -389.590747 
L 586.840103 -389.65321 
L 586.24308 -389.779636 
L 585.646057 -389.791375 
L 585.049034 -389.791249 
L 584.452011 -389.791124 
L 583.854988 -389.790999 
L 583.257964 -389.790874 
L 582.660941 -389.790749 
L 582.063918 -389.790624 
L 581.466895 -389.790499 
L 580.869872 -389.790374 
L 580.272849 -389.84299 
L 579.675826 -389.880717 
L 579.078802 -389.873181 
L 578.481779 -389.865645 
L 577.884756 -389.858108 
L 577.287733 -389.850572 
L 576.69071 -389.843036 
L 576.093687 -389.835499 
L 575.496663 -389.827963 
L 574.89964 -389.831113 
L 574.302617 -389.835928 
L 573.705594 -389.837991 
L 573.108571 -389.813454 
L 572.511548 -389.800466 
L 571.914524 -389.797794 
L 571.317501 -389.795122 
L 570.720478 -389.79245 
L 570.123455 -389.789778 
L 569.526432 -389.787106 
L 568.929409 -389.784434 
L 568.332386 -389.781762 
L 567.735362 -389.77909 
L 567.138339 -389.765602 
L 566.541316 -389.747199 
L 565.944293 -389.728795 
L 565.34727 -389.710392 
L 564.750247 -389.691988 
L 564.153223 -389.675848 
L 563.5562 -389.691831 
L 562.959177 -389.707813 
L 562.362154 -389.723796 
L 561.765131 -389.781118 
L 561.168108 -389.819061 
L 560.571084 -389.793692 
L 559.974061 -389.768323 
L 559.377038 -389.746702 
L 558.780015 -389.745311 
L 558.182992 -389.74392 
L 557.585969 -389.742528 
L 556.988945 -389.741137 
L 556.391922 -389.739746 
L 555.794899 -389.738355 
L 555.197876 -389.736964 
L 554.600853 -389.747938 
L 554.00383 -389.760679 
L 553.406807 -389.773419 
L 552.809783 -389.78616 
L 552.21276 -389.7989 
L 551.615737 -389.811641 
L 551.018714 -389.824382 
L 550.421691 -389.837122 
L 549.824668 -389.849863 
L 549.227644 -389.862603 
L 548.630621 -389.861765 
L 548.033598 -389.845537 
L 547.436575 -389.829309 
L 546.839552 -389.821229 
L 546.242529 -389.824995 
L 545.645505 -389.828762 
L 545.048482 -389.832529 
L 544.451459 -389.836295 
L 543.854436 -389.840062 
L 543.257413 -389.843829 
L 542.66039 -389.846785 
L 542.063366 -389.837578 
L 541.466343 -389.828372 
L 540.86932 -389.819166 
L 540.272297 -389.80996 
L 539.675274 -389.800754 
L 539.078251 -389.791548 
L 538.481228 -389.782342 
L 537.884204 -389.777107 
L 537.287181 -389.787091 
L 536.690158 -389.84509 
L 536.093135 -389.866522 
L 535.496112 -389.868801 
L 534.899089 -389.871079 
L 534.302065 -389.873358 
L 533.705042 -389.875636 
L 533.108019 -389.877915 
L 532.510996 -389.880193 
L 531.913973 -389.882472 
L 531.31695 -389.884751 
L 530.719926 -389.887029 
L 530.122903 -389.888195 
L 529.52588 -389.886021 
L 528.928857 -389.883848 
L 528.331834 -389.881675 
L 527.734811 -389.879501 
L 527.137788 -389.877328 
L 526.540764 -389.875155 
L 525.943741 -389.872981 
L 525.346718 -389.870808 
L 524.749695 -389.868635 
L 524.152672 -389.866461 
L 523.555649 -389.834691 
L 522.958625 -389.797439 
L 522.361602 -389.760188 
L 521.764579 -389.722937 
L 521.167556 -389.730935 
L 520.570533 -389.744723 
L 519.97351 -389.75851 
L 519.376486 -389.772298 
L 518.779463 -389.786085 
L 518.18244 -389.799873 
L 517.585417 -389.804016 
L 516.988394 -389.795759 
L 516.391371 -389.787502 
L 515.794347 -389.779245 
L 515.197324 -389.770989 
L 514.600301 -389.762732 
L 514.003278 -389.754475 
L 513.406255 -389.746218 
L 512.809232 -389.737961 
L 512.212209 -389.729704 
L 511.615185 -389.721696 
L 511.018162 -389.721387 
L 510.421139 -389.721079 
L 509.824116 -389.72077 
L 509.227093 -389.720461 
L 508.63007 -389.720153 
L 508.033046 -389.719844 
L 507.436023 -389.773834 
L 506.839 -389.837533 
L 506.241977 -389.901232 
L 505.644954 -389.964931 
L 505.047931 -389.961731 
L 504.450907 -389.918392 
L 503.853884 -389.875052 
L 503.256861 -389.831713 
L 502.659838 -389.788373 
L 502.062815 -389.745034 
L 501.465792 -389.719849 
L 500.868768 -389.708286 
L 500.271745 -389.696722 
L 499.674722 -389.685159 
L 499.077699 -389.679756 
L 498.480676 -389.696352 
L 497.883653 -389.712949 
L 497.28663 -389.729545 
L 496.689606 -389.746141 
L 496.092583 -389.762738 
L 495.49556 -389.779334 
L 494.898537 -389.79593 
L 494.301514 -389.812527 
L 493.704491 -389.829123 
L 493.107467 -389.84572 
L 492.510444 -389.838332 
L 491.913421 -389.82541 
L 491.316398 -389.812487 
L 490.719375 -389.799565 
L 490.122352 -389.786643 
L 489.525328 -389.77372 
L 488.928305 -389.760798 
L 488.331282 -389.747876 
L 487.734259 -389.734954 
L 487.137236 -389.722031 
L 486.540213 -389.709602 
L 485.943189 -389.697893 
L 485.346166 -389.686185 
L 484.749143 -389.674476 
L 484.15212 -389.662768 
L 483.555097 -389.651059 
L 482.958074 -389.639351 
L 482.361051 -389.627642 
L 481.764027 -389.615934 
L 481.167004 -389.604225 
L 480.569981 -389.622944 
L 479.972958 -389.560859 
L 479.375935 -389.529201 
L 478.778912 -389.497543 
L 478.181888 -389.465886 
L 477.584865 -389.434228 
L 476.987842 -389.40257 
L 476.390819 -389.370912 
L 475.793796 -389.339255 
L 475.196773 -389.307597 
L 474.599749 -389.275939 
L 474.002726 -389.289011 
L 473.405703 -389.332688 
L 472.80868 -389.376365 
L 472.211657 -389.420042 
L 471.614634 -389.463719 
L 471.017611 -389.507395 
L 470.420587 -389.551072 
L 469.823564 -389.594749 
L 469.226541 -389.638426 
L 468.629518 -389.682103 
L 468.032495 -389.717047 
L 467.435472 -389.714153 
L 466.838448 -389.711259 
L 466.241425 -389.708364 
L 465.644402 -389.70547 
L 465.047379 -389.702576 
L 464.450356 -389.699682 
L 463.853333 -389.696787 
L 463.256309 -389.69543 
L 462.659286 -389.738857 
L 462.062263 -389.782284 
L 461.46524 -389.753304 
L 460.868217 -389.717645 
L 460.271194 -389.734585 
L 459.67417 -389.751525 
L 459.077147 -389.768464 
L 458.480124 -389.785404 
L 457.883101 -389.802344 
L 457.286078 -389.819284 
L 456.689055 -389.836224 
L 456.092032 -389.853163 
L 455.495008 -389.85815 
L 454.897985 -389.843213 
L 454.300962 -389.828277 
L 453.703939 -389.81334 
L 453.106916 -389.798404 
L 452.509893 -389.783467 
L 451.912869 -389.768531 
L 451.315846 -389.753595 
L 450.718823 -389.769026 
L 450.1218 -389.827508 
L 449.524777 -389.88599 
L 448.927754 -389.867045 
L 448.33073 -389.845602 
L 447.733707 -389.82416 
L 447.136684 -389.802717 
L 446.539661 -389.781275 
L 445.942638 -389.759832 
L 445.345615 -389.738389 
L 444.748591 -389.716947 
L 444.151568 -389.707115 
L 443.554545 -389.70698 
L 442.957522 -389.672376 
L 442.360499 -389.674301 
L 441.763476 -389.680457 
L 441.166453 -389.686614 
L 440.569429 -389.692771 
L 439.972406 -389.698928 
L 439.375383 -389.705084 
L 438.77836 -389.711241 
L 438.181337 -389.717398 
L 437.584314 -389.723555 
L 436.98729 -389.729025 
L 436.390267 -389.730786 
L 435.793244 -389.732547 
L 435.196221 -389.734309 
L 434.599198 -389.73607 
L 434.002175 -389.737832 
L 433.405151 -389.739593 
L 432.808128 -389.741354 
L 432.211105 -389.743116 
L 431.614082 -389.744877 
L 431.017059 -389.746638 
L 430.420036 -389.747778 
L 429.823013 -389.74871 
L 429.225989 -389.749642 
L 428.628966 -389.750574 
L 428.031943 -389.751506 
L 427.43492 -389.752438 
L 426.837897 -389.75337 
L 426.240874 -389.754302 
L 425.64385 -389.755233 
L 425.046827 -389.756165 
L 424.449804 -389.759485 
L 423.852781 -389.767363 
L 423.255758 -389.77524 
L 422.658735 -389.783118 
L 422.061711 -389.790995 
L 421.464688 -389.798873 
L 420.867665 -389.80675 
L 420.270642 -389.814628 
L 419.673619 -389.822505 
L 419.076596 -389.830383 
L 418.479572 -389.838261 
L 417.882549 -389.812297 
L 417.285526 -389.784078 
L 416.688503 -389.755859 
L 416.09148 -389.72764 
L 415.494457 -389.69942 
L 414.897434 -389.671201 
L 414.30041 -389.648946 
L 413.703387 -389.675963 
L 413.106364 -389.702979 
L 412.509341 -389.729995 
L 411.912318 -389.745666 
L 411.315295 -389.751325 
L 410.718271 -389.756985 
L 410.121248 -389.762645 
L 409.524225 -389.768304 
L 408.927202 -389.773964 
L 408.330179 -389.779623 
L 407.733156 -389.785283 
L 407.136132 -389.790943 
L 406.539109 -389.796602 
L 405.942086 -389.793502 
L 405.345063 -389.704272 
L 404.74804 -389.615042 
L 404.151017 -389.525812 
L 403.553993 -389.436582 
L 402.95697 -389.347352 
L 402.359947 -389.295447 
L 401.762924 -389.297926 
L 401.165901 -389.300404 
L 400.568878 -389.302883 
L 399.971855 -389.305362 
L 399.374831 -389.265846 
L 398.777808 -389.209898 
L 398.180785 -389.15395 
L 397.583762 -389.098002 
L 396.986739 -389.042053 
L 396.389716 -389.058502 
L 395.792692 -389.089591 
L 395.195669 -389.120681 
L 394.598646 -389.15177 
L 394.001623 -389.18286 
L 393.4046 -389.208264 
L 392.807577 -389.22116 
L 392.210553 -389.234057 
L 391.61353 -389.246953 
L 391.016507 -389.25985 
L 390.419484 -389.272746 
L 389.822461 -389.285642 
L 389.225438 -389.298539 
L 388.628414 -389.311435 
L 388.031391 -389.324332 
L 387.434368 -389.337228 
L 386.837345 -389.325492 
L 386.240322 -389.373859 
L 385.643299 -389.422226 
L 385.046276 -389.470592 
L 384.449252 -389.518959 
L 383.852229 -389.567326 
L 383.255206 -389.615692 
L 382.658183 -389.664059 
L 382.06116 -389.712426 
L 381.464137 -389.760792 
L 380.867113 -389.730797 
L 380.27009 -389.622439 
L 379.673067 -389.514082 
L 379.076044 -389.494353 
L 378.479021 -389.504381 
L 377.881998 -389.514409 
L 377.284974 -389.524436 
L 376.687951 -389.534464 
L 376.090928 -389.544492 
L 375.493905 -389.55452 
L 374.896882 -389.564208 
L 374.299859 -389.570611 
L 373.702836 -389.577014 
L 373.105812 -389.583417 
L 372.508789 -389.589821 
L 371.911766 -389.596224 
L 371.314743 -389.602627 
L 370.71772 -389.60903 
L 370.120697 -389.615433 
L 369.523673 -389.621836 
L 368.92665 -389.628239 
L 368.329627 -389.591858 
L 367.732604 -389.536029 
L 367.135581 -389.4802 
L 366.538558 -389.424371 
L 365.941534 -389.368542 
L 365.344511 -389.367423 
L 364.747488 -389.425951 
L 364.150465 -389.484478 
L 363.553442 -389.543006 
L 362.956419 -389.601533 
L 362.359395 -389.647416 
L 361.762372 -389.660987 
L 361.165349 -389.674557 
L 360.568326 -389.688127 
L 359.971303 -389.701697 
L 359.37428 -389.715267 
L 358.777257 -389.728837 
L 358.180233 -389.742408 
L 357.58321 -389.755978 
L 356.986187 -389.769548 
L 356.389164 -389.783118 
L 355.792141 -389.65273 
L 355.195118 -389.626481 
L 354.598094 -389.617621 
L 354.001071 -389.608761 
L 353.404048 -389.599902 
L 352.807025 -389.591042 
L 352.210002 -389.582182 
L 351.612979 -389.594354 
L 351.015955 -389.649711 
L 350.418932 -389.705069 
L 349.821909 -389.724224 
L 349.224886 -389.702349 
L 348.627863 -389.680474 
L 348.03084 -389.658599 
L 347.433816 -389.636724 
L 346.836793 -389.614849 
L 346.23977 -389.592974 
L 345.642747 -389.571099 
L 345.045724 -389.549224 
L 344.448701 -389.527349 
L 343.851678 -389.506216 
L 343.254654 -389.496215 
L 342.657631 -389.486214 
L 342.060608 -389.476213 
L 341.463585 -389.480721 
L 340.866562 -389.490754 
L 340.269539 -389.506198 
L 339.672515 -389.526437 
L 339.075492 -389.546677 
L 338.478469 -389.566917 
L 337.881446 -389.587156 
L 337.284423 -389.597174 
L 336.6874 -389.601837 
L 336.090376 -389.6065 
L 335.493353 -389.611163 
L 334.89633 -389.615826 
L 334.299307 -389.620488 
L 333.702284 -389.625151 
L 333.105261 -389.629814 
L 332.508237 -389.634477 
L 331.911214 -389.63914 
L 331.314191 -389.616546 
L 330.717168 -389.512182 
L 330.120145 -389.434581 
L 329.523122 -389.443446 
L 328.926099 -389.452311 
L 328.329075 -389.461175 
L 327.732052 -389.47004 
L 327.135029 -389.478904 
L 326.538006 -389.487769 
L 325.940983 -389.496634 
L 325.34396 -389.505498 
L 324.746936 -389.521564 
L 324.149913 -389.538962 
L 323.55289 -389.556361 
L 322.955867 -389.57376 
L 322.358844 -389.591159 
L 321.761821 -389.608558 
L 321.164797 -389.625957 
L 320.567774 -389.643356 
L 319.970751 -389.660755 
L 319.373728 -389.678153 
L 318.776705 -389.680876 
L 318.179682 -389.66473 
L 317.582659 -389.648583 
L 316.985635 -389.632436 
L 316.388612 -389.61629 
L 315.791589 -389.600143 
L 315.194566 -389.583996 
L 314.597543 -389.56785 
L 314.00052 -389.551703 
L 313.403496 -389.541275 
L 312.806473 -389.545825 
L 312.20945 -389.464377 
L 311.612427 -389.410523 
L 311.015404 -389.356669 
L 310.418381 -389.302815 
L 309.821357 -389.248961 
L 309.224334 -389.195107 
L 308.627311 -389.141252 
L 308.030288 -389.087398 
L 307.433265 -389.033544 
L 306.836242 -388.97969 
L 306.239218 -388.948561 
L 305.642195 -388.931067 
L 305.045172 -388.913574 
L 304.448149 -388.89608 
L 303.851126 -388.878586 
L 303.254103 -388.861093 
L 302.65708 -388.915672 
L 302.060056 -389.006436 
L 301.463033 -389.0972 
L 300.86601 -389.187965 
L 300.268987 -389.264187 
L 299.671964 -389.288476 
L 299.074941 -389.312764 
L 298.477917 -389.337052 
L 297.880894 -389.36134 
L 297.283871 -389.385628 
L 296.686848 -389.409917 
L 296.089825 -389.434205 
L 295.492802 -389.458493 
L 294.895778 -389.482781 
L 294.298755 -389.50707 
L 293.701732 -389.464062 
L 293.104709 -389.405525 
L 292.507686 -389.346988 
L 291.910663 -389.288451 
L 291.313639 -389.229915 
L 290.716616 -389.171378 
L 290.119593 -389.112841 
L 289.52257 -389.089992 
L 288.925547 -389.168877 
L 288.328524 -389.247762 
L 287.731501 -389.282785 
L 287.134477 -389.253702 
L 286.537454 -389.224619 
L 285.940431 -389.195536 
L 285.343408 -389.166452 
L 284.746385 -389.137369 
L 284.149362 -389.108286 
L 283.552338 -389.079203 
L 282.955315 -389.050119 
L 282.358292 -389.021036 
L 281.761269 -388.991953 
L 281.164246 -388.948583 
L 280.567223 -388.921035 
L 279.970199 -388.971027 
L 279.373176 -389.021019 
L 278.776153 -389.071011 
L 278.17913 -389.121003 
L 277.582107 -389.170995 
L 276.985084 -389.220987 
L 276.388061 -389.270979 
L 275.791037 -389.320971 
L 275.194014 -389.332489 
L 274.596991 -389.317682 
L 273.999968 -389.302875 
L 273.402945 -389.288068 
L 272.805922 -389.273261 
L 272.208898 -389.258454 
L 271.611875 -389.243647 
L 271.014852 -389.22884 
L 270.417829 -389.214033 
L 269.820806 -389.199226 
L 269.223783 -389.175632 
L 268.626759 -389.11396 
L 268.029736 -389.052288 
L 267.432713 -388.990616 
L 266.83569 -388.928944 
L 266.238667 -388.867271 
L 265.641644 -388.805599 
L 265.04462 -388.743927 
L 264.447597 -388.682255 
L 263.850574 -388.620583 
L 263.253551 -388.558911 
L 262.656528 -388.448147 
L 262.059505 -388.323637 
L 261.462482 -388.268244 
L 260.865458 -388.251183 
L 260.268435 -388.234122 
L 259.671412 -388.21706 
L 259.074389 -388.199999 
L 258.477366 -388.266083 
L 257.880343 -388.378007 
L 257.283319 -388.489931 
L 256.686296 -388.566246 
L 256.089273 -388.583213 
L 255.49225 -388.600179 
L 254.895227 -388.617146 
L 254.298204 -388.634112 
L 253.70118 -388.651079 
L 253.104157 -388.668045 
L 252.507134 -388.685011 
L 251.910111 -388.701978 
L 251.313088 -388.718944 
L 250.716065 -388.735911 
L 250.119041 -388.721945 
L 249.522018 -388.706982 
L 248.924995 -388.692018 
L 248.327972 -388.677054 
L 247.730949 -388.662091 
L 247.133926 -388.647127 
L 246.536903 -388.632164 
L 245.939879 -388.6172 
L 245.342856 -388.602236 
L 244.745833 -388.587273 
L 244.14881 -388.563352 
L 243.551787 -388.532465 
L 242.954764 -388.501578 
L 242.35774 -388.47069 
L 241.760717 -388.439803 
L 241.163694 -388.408916 
L 240.566671 -388.378028 
L 239.969648 -388.388295 
L 239.372625 -388.463115 
L 238.775601 -388.537935 
L 238.178578 -388.602683 
L 237.581555 -388.613042 
L 236.984532 -388.6234 
L 236.387509 -388.633758 
L 235.790486 -388.644116 
L 235.193462 -388.654474 
L 234.596439 -388.664833 
L 233.999416 -388.675191 
L 233.402393 -388.685549 
L 232.80537 -388.695907 
L 232.208347 -388.706266 
L 231.611324 -388.614817 
L 231.0143 -388.489433 
L 230.417277 -388.364049 
L 229.820254 -388.238665 
L 229.223231 -388.113281 
L 228.626208 -387.987896 
L 228.029185 -387.862512 
L 227.432161 -387.737128 
L 226.835138 -387.611744 
L 226.238115 -387.48636 
L 225.641092 -387.400597 
L 225.044069 -387.390476 
L 224.447046 -387.380355 
L 223.850022 -387.370234 
L 223.252999 -387.360113 
L 222.655976 -387.349991 
L 222.058953 -387.33987 
L 221.46193 -387.329749 
L 220.864907 -387.319628 
L 220.267884 -387.309507 
L 219.67086 -387.299385 
L 219.073837 -387.289865 
L 218.476814 -387.280384 
L 217.879791 -387.270904 
L 217.282768 -387.261424 
L 216.685745 -387.251943 
L 216.088721 -387.242463 
L 215.491698 -387.232982 
L 214.894675 -387.318167 
L 214.297652 -387.493073 
L 213.700629 -387.667978 
L 213.103606 -387.73885 
L 212.506582 -387.717928 
L 211.909559 -387.697006 
L 211.312536 -387.676084 
L 210.715513 -387.655162 
L 210.11849 -387.63424 
L 209.521467 -387.613318 
L 208.924443 -387.592396 
L 208.32742 -387.571474 
L 207.730397 -387.550552 
L 207.133374 -387.521251 
L 206.536351 -387.433298 
L 205.939328 -387.350214 
L 205.342305 -387.400253 
L 204.745281 -387.450293 
L 204.148258 -387.500333 
L 203.551235 -387.550373 
L 202.954212 -387.600413 
L 202.357189 -387.650452 
L 201.760166 -387.700492 
L 201.163142 -387.750532 
L 200.566119 -387.704071 
L 199.969096 -387.619849 
L 199.372073 -387.535626 
L 198.77505 -387.451404 
L 198.178027 -387.367182 
L 197.581003 -387.282959 
L 196.98398 -387.198737 
L 196.386957 -387.114515 
L 195.789934 -387.030292 
L 195.192911 -386.94607 
L 194.595888 -386.864512 
L 193.998864 -386.788814 
L 193.401841 -386.713117 
L 192.804818 -386.63742 
L 192.207795 -386.561723 
L 191.610772 -386.486025 
L 191.013749 -386.410328 
L 190.416726 -386.334631 
L 189.819702 -386.258933 
L 189.222679 -386.183236 
L 188.625656 -386.107539 
L 188.028633 -386.033465 
L 187.43161 -385.95956 
L 186.834587 -385.885654 
L 186.237563 -385.811748 
L 185.64054 -385.792571 
L 185.043517 -385.863138 
L 184.446494 -385.933706 
L 183.849471 -386.004273 
L 183.252448 -386.07484 
L 182.655424 -386.145408 
L 182.058401 -386.266238 
L 181.461378 -386.31228 
L 180.864355 -386.358322 
L 180.267332 -386.404364 
L 179.670309 -386.450406 
L 179.073286 -386.496448 
L 178.476262 -386.542489 
L 177.879239 -386.588531 
L 177.282216 -386.634573 
L 176.685193 -386.680615 
L 176.08817 -386.735371 
L 175.491147 -386.874367 
L 174.894123 -387.013362 
L 174.2971 -387.152357 
L 173.700077 -387.291352 
L 173.103054 -387.430348 
L 172.506031 -387.569343 
L 171.909008 -387.708338 
L 171.311984 -387.847333 
L 170.714961 -387.986329 
L 170.117938 -388.125324 
L 169.520915 -388.049825 
L 168.923892 -387.876829 
L 168.326869 -387.703833 
L 167.729845 -387.530837 
L 167.132822 -387.357841 
L 166.535799 -387.184845 
L 165.938776 -387.011849 
L 165.341753 -386.838853 
L 164.74473 -386.665858 
L 164.147707 -386.492862 
L 163.550683 -386.365532 
L 162.95366 -386.354905 
L 162.356637 -386.344278 
L 161.759614 -386.333651 
L 161.162591 -386.323023 
L 160.565568 -386.312396 
L 159.968544 -386.301769 
L 159.371521 -386.291142 
L 158.774498 -386.280515 
L 158.177475 -386.269888 
L 157.580452 -386.259261 
L 156.983429 -386.173711 
L 156.386405 -386.077458 
L 155.789382 -385.981205 
L 155.192359 -385.884953 
L 154.595336 -385.7887 
L 153.998313 -385.692447 
L 153.40129 -385.596194 
L 152.804266 -385.499941 
L 152.207243 -385.403689 
L 151.61022 -385.307436 
L 151.013197 -385.257034 
L 150.416174 -385.258596 
L 149.819151 -385.260158 
L 149.222128 -385.261721 
L 148.625104 -385.263283 
L 148.028081 -385.264845 
L 147.431058 -385.266408 
L 146.834035 -385.26797 
L 146.237012 -385.269532 
L 145.639989 -385.271095 
L 145.042965 -385.26443 
L 144.445942 -385.134354 
L 143.848919 -385.004278 
L 143.251896 -384.874202 
L 142.654873 -384.744126 
L 142.05785 -384.614051 
L 141.460826 -384.483975 
L 140.863803 -384.353899 
L 140.26678 -384.223823 
L 139.669757 -384.093748 
L 139.072734 -383.963672 
L 138.475711 -383.877384 
L 137.878687 -383.814032 
L 137.281664 -383.750681 
L 136.684641 -383.687329 
L 136.087618 -383.623978 
L 135.490595 -383.560626 
L 134.893572 -383.497275 
L 134.296549 -383.433923 
L 133.699525 -383.370572 
L 133.102502 -383.30722 
L 132.505479 -383.23688 
L 131.908456 -383.145573 
L 131.311433 -383.054267 
L 130.71441 -382.96296 
L 130.117386 -382.871653 
L 129.520363 -382.780347 
L 128.92334 -382.68904 
L 128.326317 -382.597733 
L 127.729294 -382.506427 
L 127.132271 -382.41512 
L 126.535247 -382.323813 
L 125.938224 -382.157959 
L 125.341201 -381.9783 
L 124.744178 -381.798641 
L 124.147155 -381.618981 
L 123.550132 -381.439322 
L 122.953109 -381.259663 
L 122.356085 -381.080003 
L 121.759062 -380.900344 
L 121.162039 -380.720685 
L 120.565016 -380.720536 
L 119.967993 -380.700326 
L 119.37097 -380.54782 
L 118.773946 -380.395315 
L 118.176923 -380.242809 
L 117.5799 -380.090304 
L 116.982877 -380.110087 
L 116.385854 -380.261893 
L 115.788831 -380.4137 
L 115.191807 -380.565506 
L 114.594784 -380.717312 
L 113.997761 -380.861532 
L 113.400738 -380.770584 
L 112.803715 -380.679635 
L 112.206692 -380.747735 
L 111.609668 -381.501165 
L 111.012645 -382.254594 
L 110.415622 -383.008023 
L 109.818599 -383.761453 
L 109.221576 -384.514882 
L 108.624553 -385.268311 
L 108.02753 -386.021741 
L 107.430506 -385.875015 
L 106.833483 -385.188196 
L 106.23646 -384.501377 
L 105.639437 -383.814559 
L 105.042414 -383.164084 
L 104.445391 -383.214341 
L 103.848367 -383.264599 
L 103.251344 -383.314856 
L 102.654321 -383.365113 
L 102.057298 -383.41537 
L 101.460275 -383.343534 
L 100.863252 -382.835649 
L 100.266228 -382.327765 
L 99.669205 -381.81988 
L 99.072182 -381.311995 
L 98.475159 -380.804111 
L 97.878136 -380.296226 
L 97.281113 -379.788341 
L 96.684089 -379.280457 
L 96.087066 -378.772572 
L 95.490043 -378.620639 
L 94.89302 -378.479477 
L 94.295997 -378.317854 
L 93.698974 -378.15623 
L 93.101951 -378.14636 
L 92.504927 -378.140302 
L 91.907904 -378.134243 
L 91.310881 -378.128184 
L 90.713858 -378.122125 
L 90.116835 -378.116067 
L 89.519812 -378.110008 
L 88.922788 -378.057113 
L 88.325765 -377.935767 
L 87.728742 -377.81442 
L 87.131719 -377.693074 
L 86.534696 -377.571727 
L 85.937673 -377.450381 
L 85.340649 -377.329034 
L 84.743626 -377.207687 
L 84.146603 -377.086341 
L 83.54958 -376.964994 
L 82.952557 -376.85407 
z
" style="stroke: #00008b; stroke-opacity: 0.3"/>
    </defs>
    <g clip-path="url(#paa3883dabd)">
     <use xlink:href="#m60991ca723" x="0" y="432" style="fill: #00008b; fill-opacity: 0.3; stroke: #00008b; stroke-opacity: 0.3"/>
    </g>
   </g>
   <g id="matplotlib.axis_1">
    <g id="xtick_1">
     <g id="line2d_1">
      <defs>
       <path id="m93f3ce6ab5" d="M 0 0 
L 0 3.5 
" style="stroke: #000000; stroke-width: 0.8"/>
      </defs>
      <g>
       <use xlink:href="#m93f3ce6ab5" x="76.739785" y="390.04" style="stroke: #000000; stroke-width: 0.8"/>
      </g>
     </g>
     <g id="text_1">
      <!-- 0 -->
      <g transform="translate(73.558535 404.638438) scale(0.1 -0.1)">
       <defs>
        <path id="DejaVuSans-30" d="M 2034 4250 
Q 1547 4250 1301 3770 
Q 1056 3291 1056 2328 
Q 1056 1369 1301 889 
Q 1547 409 2034 409 
Q 2525 409 2770 889 
Q 3016 1369 3016 2328 
Q 3016 3291 2770 3770 
Q 2525 4250 2034 4250 
z
M 2034 4750 
Q 2819 4750 3233 4129 
Q 3647 3509 3647 2328 
Q 3647 1150 3233 529 
Q 2819 -91 2034 -91 
Q 1250 -91 836 529 
Q 422 1150 422 2328 
Q 422 3509 836 4129 
Q 1250 4750 2034 4750 
z
" transform="scale(0.015625)"/>
       </defs>
       <use xlink:href="#DejaVuSans-30"/>
      </g>
     </g>
    </g>
    <g id="xtick_2">
     <g id="line2d_2">
      <g>
       <use xlink:href="#m93f3ce6ab5" x="198.082993" y="390.04" style="stroke: #000000; stroke-width: 0.8"/>
      </g>
     </g>
     <g id="text_2">
      <!-- 20000 -->
      <g transform="translate(182.176743 404.638438) scale(0.1 -0.1)">
       <defs>
        <path id="DejaVuSans-32" d="M 1228 531 
L 3431 531 
L 3431 0 
L 469 0 
L 469 531 
Q 828 903 1448 1529 
Q 2069 2156 2228 2338 
Q 2531 2678 2651 2914 
Q 2772 3150 2772 3378 
Q 2772 3750 2511 3984 
Q 2250 4219 1831 4219 
Q 1534 4219 1204 4116 
Q 875 4013 500 3803 
L 500 4441 
Q 881 4594 1212 4672 
Q 1544 4750 1819 4750 
Q 2544 4750 2975 4387 
Q 3406 4025 3406 3419 
Q 3406 3131 3298 2873 
Q 3191 2616 2906 2266 
Q 2828 2175 2409 1742 
Q 1991 1309 1228 531 
z
" transform="scale(0.015625)"/>
       </defs>
       <use xlink:href="#DejaVuSans-32"/>
       <use xlink:href="#DejaVuSans-30" transform="translate(63.623047 0)"/>
       <use xlink:href="#DejaVuSans-30" transform="translate(127.246094 0)"/>
       <use xlink:href="#DejaVuSans-30" transform="translate(190.869141 0)"/>
       <use xlink:href="#DejaVuSans-30" transform="translate(254.492188 0)"/>
      </g>
     </g>
    </g>
    <g id="xtick_3">
     <g id="line2d_3">
      <g>
       <use xlink:href="#m93f3ce6ab5" x="319.426201" y="390.04" style="stroke: #000000; stroke-width: 0.8"/>
      </g>
     </g>
     <g id="text_3">
      <!-- 40000 -->
      <g transform="translate(303.519951 404.638438) scale(0.1 -0.1)">
       <defs>
        <path id="DejaVuSans-34" d="M 2419 4116 
L 825 1625 
L 2419 1625 
L 2419 4116 
z
M 2253 4666 
L 3047 4666 
L 3047 1625 
L 3713 1625 
L 3713 1100 
L 3047 1100 
L 3047 0 
L 2419 0 
L 2419 1100 
L 313 1100 
L 313 1709 
L 2253 4666 
z
" transform="scale(0.015625)"/>
       </defs>
       <use xlink:href="#DejaVuSans-34"/>
       <use xlink:href="#DejaVuSans-30" transform="translate(63.623047 0)"/>
       <use xlink:href="#DejaVuSans-30" transform="translate(127.246094 0)"/>
       <use xlink:href="#DejaVuSans-30" transform="translate(190.869141 0)"/>
       <use xlink:href="#DejaVuSans-30" transform="translate(254.492188 0)"/>
      </g>
     </g>
    </g>
    <g id="xtick_4">
     <g id="line2d_4">
      <g>
       <use xlink:href="#m93f3ce6ab5" x="440.769409" y="390.04" style="stroke: #000000; stroke-width: 0.8"/>
      </g>
     </g>
     <g id="text_4">
      <!-- 60000 -->
      <g transform="translate(424.863159 404.638438) scale(0.1 -0.1)">
       <defs>
        <path id="DejaVuSans-36" d="M 2113 2584 
Q 1688 2584 1439 2293 
Q 1191 2003 1191 1497 
Q 1191 994 1439 701 
Q 1688 409 2113 409 
Q 2538 409 2786 701 
Q 3034 994 3034 1497 
Q 3034 2003 2786 2293 
Q 2538 2584 2113 2584 
z
M 3366 4563 
L 3366 3988 
Q 3128 4100 2886 4159 
Q 2644 4219 2406 4219 
Q 1781 4219 1451 3797 
Q 1122 3375 1075 2522 
Q 1259 2794 1537 2939 
Q 1816 3084 2150 3084 
Q 2853 3084 3261 2657 
Q 3669 2231 3669 1497 
Q 3669 778 3244 343 
Q 2819 -91 2113 -91 
Q 1303 -91 875 529 
Q 447 1150 447 2328 
Q 447 3434 972 4092 
Q 1497 4750 2381 4750 
Q 2619 4750 2861 4703 
Q 3103 4656 3366 4563 
z
" transform="scale(0.015625)"/>
       </defs>
       <use xlink:href="#DejaVuSans-36"/>
       <use xlink:href="#DejaVuSans-30" transform="translate(63.623047 0)"/>
       <use xlink:href="#DejaVuSans-30" transform="translate(127.246094 0)"/>
       <use xlink:href="#DejaVuSans-30" transform="translate(190.869141 0)"/>
       <use xlink:href="#DejaVuSans-30" transform="translate(254.492188 0)"/>
      </g>
     </g>
    </g>
    <g id="xtick_5">
     <g id="line2d_5">
      <g>
       <use xlink:href="#m93f3ce6ab5" x="562.112617" y="390.04" style="stroke: #000000; stroke-width: 0.8"/>
      </g>
     </g>
     <g id="text_5">
      <!-- 80000 -->
      <g transform="translate(546.206367 404.638438) scale(0.1 -0.1)">
       <defs>
        <path id="DejaVuSans-38" d="M 2034 2216 
Q 1584 2216 1326 1975 
Q 1069 1734 1069 1313 
Q 1069 891 1326 650 
Q 1584 409 2034 409 
Q 2484 409 2743 651 
Q 3003 894 3003 1313 
Q 3003 1734 2745 1975 
Q 2488 2216 2034 2216 
z
M 1403 2484 
Q 997 2584 770 2862 
Q 544 3141 544 3541 
Q 544 4100 942 4425 
Q 1341 4750 2034 4750 
Q 2731 4750 3128 4425 
Q 3525 4100 3525 3541 
Q 3525 3141 3298 2862 
Q 3072 2584 2669 2484 
Q 3125 2378 3379 2068 
Q 3634 1759 3634 1313 
Q 3634 634 3220 271 
Q 2806 -91 2034 -91 
Q 1263 -91 848 271 
Q 434 634 434 1313 
Q 434 1759 690 2068 
Q 947 2378 1403 2484 
z
M 1172 3481 
Q 1172 3119 1398 2916 
Q 1625 2713 2034 2713 
Q 2441 2713 2670 2916 
Q 2900 3119 2900 3481 
Q 2900 3844 2670 4047 
Q 2441 4250 2034 4250 
Q 1625 4250 1398 4047 
Q 1172 3844 1172 3481 
z
" transform="scale(0.015625)"/>
       </defs>
       <use xlink:href="#DejaVuSans-38"/>
       <use xlink:href="#DejaVuSans-30" transform="translate(63.623047 0)"/>
       <use xlink:href="#DejaVuSans-30" transform="translate(127.246094 0)"/>
       <use xlink:href="#DejaVuSans-30" transform="translate(190.869141 0)"/>
       <use xlink:href="#DejaVuSans-30" transform="translate(254.492188 0)"/>
      </g>
     </g>
    </g>
    <g id="xtick_6">
     <g id="line2d_6">
      <g>
       <use xlink:href="#m93f3ce6ab5" x="683.455825" y="390.04" style="stroke: #000000; stroke-width: 0.8"/>
      </g>
     </g>
     <g id="text_6">
      <!-- 100000 -->
      <g transform="translate(664.368325 404.638438) scale(0.1 -0.1)">
       <defs>
        <path id="DejaVuSans-31" d="M 794 531 
L 1825 531 
L 1825 4091 
L 703 3866 
L 703 4441 
L 1819 4666 
L 2450 4666 
L 2450 531 
L 3481 531 
L 3481 0 
L 794 0 
L 794 531 
z
" transform="scale(0.015625)"/>
       </defs>
       <use xlink:href="#DejaVuSans-31"/>
       <use xlink:href="#DejaVuSans-30" transform="translate(63.623047 0)"/>
       <use xlink:href="#DejaVuSans-30" transform="translate(127.246094 0)"/>
       <use xlink:href="#DejaVuSans-30" transform="translate(190.869141 0)"/>
       <use xlink:href="#DejaVuSans-30" transform="translate(254.492188 0)"/>
       <use xlink:href="#DejaVuSans-30" transform="translate(318.115234 0)"/>
      </g>
     </g>
    </g>
    <g id="text_7">
     <!-- Step -->
     <g transform="translate(369.780469 418.316562) scale(0.1 -0.1)">
      <defs>
       <path id="DejaVuSans-53" d="M 3425 4513 
L 3425 3897 
Q 3066 4069 2747 4153 
Q 2428 4238 2131 4238 
Q 1616 4238 1336 4038 
Q 1056 3838 1056 3469 
Q 1056 3159 1242 3001 
Q 1428 2844 1947 2747 
L 2328 2669 
Q 3034 2534 3370 2195 
Q 3706 1856 3706 1288 
Q 3706 609 3251 259 
Q 2797 -91 1919 -91 
Q 1588 -91 1214 -16 
Q 841 59 441 206 
L 441 856 
Q 825 641 1194 531 
Q 1563 422 1919 422 
Q 2459 422 2753 634 
Q 3047 847 3047 1241 
Q 3047 1584 2836 1778 
Q 2625 1972 2144 2069 
L 1759 2144 
Q 1053 2284 737 2584 
Q 422 2884 422 3419 
Q 422 4038 858 4394 
Q 1294 4750 2059 4750 
Q 2388 4750 2728 4690 
Q 3069 4631 3425 4513 
z
" transform="scale(0.015625)"/>
       <path id="DejaVuSans-74" d="M 1172 4494 
L 1172 3500 
L 2356 3500 
L 2356 3053 
L 1172 3053 
L 1172 1153 
Q 1172 725 1289 603 
Q 1406 481 1766 481 
L 2356 481 
L 2356 0 
L 1766 0 
Q 1100 0 847 248 
Q 594 497 594 1153 
L 594 3053 
L 172 3053 
L 172 3500 
L 594 3500 
L 594 4494 
L 1172 4494 
z
" transform="scale(0.015625)"/>
       <path id="DejaVuSans-65" d="M 3597 1894 
L 3597 1613 
L 953 1613 
Q 991 1019 1311 708 
Q 1631 397 2203 397 
Q 2534 397 2845 478 
Q 3156 559 3463 722 
L 3463 178 
Q 3153 47 2828 -22 
Q 2503 -91 2169 -91 
Q 1331 -91 842 396 
Q 353 884 353 1716 
Q 353 2575 817 3079 
Q 1281 3584 2069 3584 
Q 2775 3584 3186 3129 
Q 3597 2675 3597 1894 
z
M 3022 2063 
Q 3016 2534 2758 2815 
Q 2500 3097 2075 3097 
Q 1594 3097 1305 2825 
Q 1016 2553 972 2059 
L 3022 2063 
z
" transform="scale(0.015625)"/>
       <path id="DejaVuSans-70" d="M 1159 525 
L 1159 -1331 
L 581 -1331 
L 581 3500 
L 1159 3500 
L 1159 2969 
Q 1341 3281 1617 3432 
Q 1894 3584 2278 3584 
Q 2916 3584 3314 3078 
Q 3713 2572 3713 1747 
Q 3713 922 3314 415 
Q 2916 -91 2278 -91 
Q 1894 -91 1617 61 
Q 1341 213 1159 525 
z
M 3116 1747 
Q 3116 2381 2855 2742 
Q 2594 3103 2138 3103 
Q 1681 3103 1420 2742 
Q 1159 2381 1159 1747 
Q 1159 1113 1420 752 
Q 1681 391 2138 391 
Q 2594 391 2855 752 
Q 3116 1113 3116 1747 
z
" transform="scale(0.015625)"/>
      </defs>
      <use xlink:href="#DejaVuSans-53"/>
      <use xlink:href="#DejaVuSans-74" transform="translate(63.476562 0)"/>
      <use xlink:href="#DejaVuSans-65" transform="translate(102.685547 0)"/>
      <use xlink:href="#DejaVuSans-70" transform="translate(164.208984 0)"/>
     </g>
    </g>
   </g>
   <g id="matplotlib.axis_2">
    <g id="ytick_1">
     <g id="line2d_7">
      <defs>
       <path id="m3e0dff8aaf" d="M 0 0 
L -3.5 0 
" style="stroke: #000000; stroke-width: 0.8"/>
      </defs>
      <g>
       <use xlink:href="#m3e0dff8aaf" x="53.13125" y="327.31144" style="stroke: #000000; stroke-width: 0.8"/>
      </g>
     </g>
     <g id="text_8">
      <!-- 20 -->
      <g transform="translate(25.026563 331.110658) scale(0.1 -0.1)">
       <defs>
        <path id="DejaVuSans-2212" d="M 678 2272 
L 4684 2272 
L 4684 1741 
L 678 1741 
L 678 2272 
z
" transform="scale(0.015625)"/>
       </defs>
       <use xlink:href="#DejaVuSans-2212"/>
       <use xlink:href="#DejaVuSans-32" transform="translate(83.789062 0)"/>
       <use xlink:href="#DejaVuSans-30" transform="translate(147.412109 0)"/>
      </g>
     </g>
    </g>
    <g id="ytick_2">
     <g id="line2d_8">
      <g>
       <use xlink:href="#m3e0dff8aaf" x="53.13125" y="259.338405" style="stroke: #000000; stroke-width: 0.8"/>
      </g>
     </g>
     <g id="text_9">
      <!-- 15 -->
      <g transform="translate(25.026563 263.137623) scale(0.1 -0.1)">
       <defs>
        <path id="DejaVuSans-35" d="M 691 4666 
L 3169 4666 
L 3169 4134 
L 1269 4134 
L 1269 2991 
Q 1406 3038 1543 3061 
Q 1681 3084 1819 3084 
Q 2600 3084 3056 2656 
Q 3513 2228 3513 1497 
Q 3513 744 3044 326 
Q 2575 -91 1722 -91 
Q 1428 -91 1123 -41 
Q 819 9 494 109 
L 494 744 
Q 775 591 1075 516 
Q 1375 441 1709 441 
Q 2250 441 2565 725 
Q 2881 1009 2881 1497 
Q 2881 1984 2565 2268 
Q 2250 2553 1709 2553 
Q 1456 2553 1204 2497 
Q 953 2441 691 2322 
L 691 4666 
z
" transform="scale(0.015625)"/>
       </defs>
       <use xlink:href="#DejaVuSans-2212"/>
       <use xlink:href="#DejaVuSans-31" transform="translate(83.789062 0)"/>
       <use xlink:href="#DejaVuSans-35" transform="translate(147.412109 0)"/>
      </g>
     </g>
    </g>
    <g id="ytick_3">
     <g id="line2d_9">
      <g>
       <use xlink:href="#m3e0dff8aaf" x="53.13125" y="191.36537" style="stroke: #000000; stroke-width: 0.8"/>
      </g>
     </g>
     <g id="text_10">
      <!-- 10 -->
      <g transform="translate(25.026563 195.164589) scale(0.1 -0.1)">
       <use xlink:href="#DejaVuSans-2212"/>
       <use xlink:href="#DejaVuSans-31" transform="translate(83.789062 0)"/>
       <use xlink:href="#DejaVuSans-30" transform="translate(147.412109 0)"/>
      </g>
     </g>
    </g>
    <g id="ytick_4">
     <g id="line2d_10">
      <g>
       <use xlink:href="#m3e0dff8aaf" x="53.13125" y="123.392335" style="stroke: #000000; stroke-width: 0.8"/>
      </g>
     </g>
     <g id="text_11">
      <!-- 5 -->
      <g transform="translate(31.389063 127.191554) scale(0.1 -0.1)">
       <use xlink:href="#DejaVuSans-2212"/>
       <use xlink:href="#DejaVuSans-35" transform="translate(83.789062 0)"/>
      </g>
     </g>
    </g>
    <g id="ytick_5">
     <g id="line2d_11">
      <g>
       <use xlink:href="#m3e0dff8aaf" x="53.13125" y="55.4193" style="stroke: #000000; stroke-width: 0.8"/>
      </g>
     </g>
     <g id="text_12">
      <!-- 0 -->
      <g transform="translate(39.76875 59.218519) scale(0.1 -0.1)">
       <use xlink:href="#DejaVuSans-30"/>
      </g>
     </g>
    </g>
    <g id="text_13">
     <!-- losses/explained_variance -->
     <g transform="translate(18.66875 273.174375) rotate(-90) scale(0.1 -0.1)">
      <defs>
       <path id="DejaVuSans-6c" d="M 603 4863 
L 1178 4863 
L 1178 0 
L 603 0 
L 603 4863 
z
" transform="scale(0.015625)"/>
       <path id="DejaVuSans-6f" d="M 1959 3097 
Q 1497 3097 1228 2736 
Q 959 2375 959 1747 
Q 959 1119 1226 758 
Q 1494 397 1959 397 
Q 2419 397 2687 759 
Q 2956 1122 2956 1747 
Q 2956 2369 2687 2733 
Q 2419 3097 1959 3097 
z
M 1959 3584 
Q 2709 3584 3137 3096 
Q 3566 2609 3566 1747 
Q 3566 888 3137 398 
Q 2709 -91 1959 -91 
Q 1206 -91 779 398 
Q 353 888 353 1747 
Q 353 2609 779 3096 
Q 1206 3584 1959 3584 
z
" transform="scale(0.015625)"/>
       <path id="DejaVuSans-73" d="M 2834 3397 
L 2834 2853 
Q 2591 2978 2328 3040 
Q 2066 3103 1784 3103 
Q 1356 3103 1142 2972 
Q 928 2841 928 2578 
Q 928 2378 1081 2264 
Q 1234 2150 1697 2047 
L 1894 2003 
Q 2506 1872 2764 1633 
Q 3022 1394 3022 966 
Q 3022 478 2636 193 
Q 2250 -91 1575 -91 
Q 1294 -91 989 -36 
Q 684 19 347 128 
L 347 722 
Q 666 556 975 473 
Q 1284 391 1588 391 
Q 1994 391 2212 530 
Q 2431 669 2431 922 
Q 2431 1156 2273 1281 
Q 2116 1406 1581 1522 
L 1381 1569 
Q 847 1681 609 1914 
Q 372 2147 372 2553 
Q 372 3047 722 3315 
Q 1072 3584 1716 3584 
Q 2034 3584 2315 3537 
Q 2597 3491 2834 3397 
z
" transform="scale(0.015625)"/>
       <path id="DejaVuSans-2f" d="M 1625 4666 
L 2156 4666 
L 531 -594 
L 0 -594 
L 1625 4666 
z
" transform="scale(0.015625)"/>
       <path id="DejaVuSans-78" d="M 3513 3500 
L 2247 1797 
L 3578 0 
L 2900 0 
L 1881 1375 
L 863 0 
L 184 0 
L 1544 1831 
L 300 3500 
L 978 3500 
L 1906 2253 
L 2834 3500 
L 3513 3500 
z
" transform="scale(0.015625)"/>
       <path id="DejaVuSans-61" d="M 2194 1759 
Q 1497 1759 1228 1600 
Q 959 1441 959 1056 
Q 959 750 1161 570 
Q 1363 391 1709 391 
Q 2188 391 2477 730 
Q 2766 1069 2766 1631 
L 2766 1759 
L 2194 1759 
z
M 3341 1997 
L 3341 0 
L 2766 0 
L 2766 531 
Q 2569 213 2275 61 
Q 1981 -91 1556 -91 
Q 1019 -91 701 211 
Q 384 513 384 1019 
Q 384 1609 779 1909 
Q 1175 2209 1959 2209 
L 2766 2209 
L 2766 2266 
Q 2766 2663 2505 2880 
Q 2244 3097 1772 3097 
Q 1472 3097 1187 3025 
Q 903 2953 641 2809 
L 641 3341 
Q 956 3463 1253 3523 
Q 1550 3584 1831 3584 
Q 2591 3584 2966 3190 
Q 3341 2797 3341 1997 
z
" transform="scale(0.015625)"/>
       <path id="DejaVuSans-69" d="M 603 3500 
L 1178 3500 
L 1178 0 
L 603 0 
L 603 3500 
z
M 603 4863 
L 1178 4863 
L 1178 4134 
L 603 4134 
L 603 4863 
z
" transform="scale(0.015625)"/>
       <path id="DejaVuSans-6e" d="M 3513 2113 
L 3513 0 
L 2938 0 
L 2938 2094 
Q 2938 2591 2744 2837 
Q 2550 3084 2163 3084 
Q 1697 3084 1428 2787 
Q 1159 2491 1159 1978 
L 1159 0 
L 581 0 
L 581 3500 
L 1159 3500 
L 1159 2956 
Q 1366 3272 1645 3428 
Q 1925 3584 2291 3584 
Q 2894 3584 3203 3211 
Q 3513 2838 3513 2113 
z
" transform="scale(0.015625)"/>
       <path id="DejaVuSans-64" d="M 2906 2969 
L 2906 4863 
L 3481 4863 
L 3481 0 
L 2906 0 
L 2906 525 
Q 2725 213 2448 61 
Q 2172 -91 1784 -91 
Q 1150 -91 751 415 
Q 353 922 353 1747 
Q 353 2572 751 3078 
Q 1150 3584 1784 3584 
Q 2172 3584 2448 3432 
Q 2725 3281 2906 2969 
z
M 947 1747 
Q 947 1113 1208 752 
Q 1469 391 1925 391 
Q 2381 391 2643 752 
Q 2906 1113 2906 1747 
Q 2906 2381 2643 2742 
Q 2381 3103 1925 3103 
Q 1469 3103 1208 2742 
Q 947 2381 947 1747 
z
" transform="scale(0.015625)"/>
       <path id="DejaVuSans-5f" d="M 3263 -1063 
L 3263 -1509 
L -63 -1509 
L -63 -1063 
L 3263 -1063 
z
" transform="scale(0.015625)"/>
       <path id="DejaVuSans-76" d="M 191 3500 
L 800 3500 
L 1894 563 
L 2988 3500 
L 3597 3500 
L 2284 0 
L 1503 0 
L 191 3500 
z
" transform="scale(0.015625)"/>
       <path id="DejaVuSans-72" d="M 2631 2963 
Q 2534 3019 2420 3045 
Q 2306 3072 2169 3072 
Q 1681 3072 1420 2755 
Q 1159 2438 1159 1844 
L 1159 0 
L 581 0 
L 581 3500 
L 1159 3500 
L 1159 2956 
Q 1341 3275 1631 3429 
Q 1922 3584 2338 3584 
Q 2397 3584 2469 3576 
Q 2541 3569 2628 3553 
L 2631 2963 
z
" transform="scale(0.015625)"/>
       <path id="DejaVuSans-63" d="M 3122 3366 
L 3122 2828 
Q 2878 2963 2633 3030 
Q 2388 3097 2138 3097 
Q 1578 3097 1268 2742 
Q 959 2388 959 1747 
Q 959 1106 1268 751 
Q 1578 397 2138 397 
Q 2388 397 2633 464 
Q 2878 531 3122 666 
L 3122 134 
Q 2881 22 2623 -34 
Q 2366 -91 2075 -91 
Q 1284 -91 818 406 
Q 353 903 353 1747 
Q 353 2603 823 3093 
Q 1294 3584 2113 3584 
Q 2378 3584 2631 3529 
Q 2884 3475 3122 3366 
z
" transform="scale(0.015625)"/>
      </defs>
      <use xlink:href="#DejaVuSans-6c"/>
      <use xlink:href="#DejaVuSans-6f" transform="translate(27.783203 0)"/>
      <use xlink:href="#DejaVuSans-73" transform="translate(88.964844 0)"/>
      <use xlink:href="#DejaVuSans-73" transform="translate(141.064453 0)"/>
      <use xlink:href="#DejaVuSans-65" transform="translate(193.164062 0)"/>
      <use xlink:href="#DejaVuSans-73" transform="translate(254.6875 0)"/>
      <use xlink:href="#DejaVuSans-2f" transform="translate(306.787109 0)"/>
      <use xlink:href="#DejaVuSans-65" transform="translate(340.478516 0)"/>
      <use xlink:href="#DejaVuSans-78" transform="translate(400.251953 0)"/>
      <use xlink:href="#DejaVuSans-70" transform="translate(459.431641 0)"/>
      <use xlink:href="#DejaVuSans-6c" transform="translate(522.908203 0)"/>
      <use xlink:href="#DejaVuSans-61" transform="translate(550.691406 0)"/>
      <use xlink:href="#DejaVuSans-69" transform="translate(611.970703 0)"/>
      <use xlink:href="#DejaVuSans-6e" transform="translate(639.753906 0)"/>
      <use xlink:href="#DejaVuSans-65" transform="translate(703.132812 0)"/>
      <use xlink:href="#DejaVuSans-64" transform="translate(764.65625 0)"/>
      <use xlink:href="#DejaVuSans-5f" transform="translate(828.132812 0)"/>
      <use xlink:href="#DejaVuSans-76" transform="translate(878.132812 0)"/>
      <use xlink:href="#DejaVuSans-61" transform="translate(937.3125 0)"/>
      <use xlink:href="#DejaVuSans-72" transform="translate(998.591797 0)"/>
      <use xlink:href="#DejaVuSans-69" transform="translate(1039.705078 0)"/>
      <use xlink:href="#DejaVuSans-61" transform="translate(1067.488281 0)"/>
      <use xlink:href="#DejaVuSans-6e" transform="translate(1128.767578 0)"/>
      <use xlink:href="#DejaVuSans-63" transform="translate(1192.146484 0)"/>
      <use xlink:href="#DejaVuSans-65" transform="translate(1247.126953 0)"/>
     </g>
    </g>
   </g>
   <g id="line2d_12">
    <path d="M 82.952557 60.032159 
L 88.922788 60.025001 
L 90.116835 59.61887 
L 95.490043 57.355654 
L 101.460275 56.333999 
L 103.251344 56.606535 
L 109.221576 57.765958 
L 113.997761 58.948197 
L 120.565016 58.934912 
L 126.535247 58.271324 
L 132.505479 61.286336 
L 133.102502 61.143751 
L 138.475711 58.528223 
L 139.072734 58.366392 
L 145.042965 59.206648 
L 151.013197 58.057485 
L 151.61022 58.189718 
L 157.580452 61.668057 
L 164.147707 62.442817 
L 169.520915 63.732405 
L 170.117938 63.51511 
L 176.08817 53.409335 
L 176.685193 54.090827 
L 182.058401 61.799633 
L 182.655424 62.131656 
L 188.625656 60.223523 
L 195.192911 60.007851 
L 201.163142 59.080981 
L 207.133374 61.955312 
L 208.32742 61.306125 
L 213.700629 58.103243 
L 219.67086 56.303884 
L 226.238115 58.931071 
L 231.611324 60.021318 
L 232.208347 60.338228 
L 238.178578 69.380449 
L 238.775601 69.059228 
L 250.716065 58.019769 
L 256.686296 64.27091 
L 257.283319 64.257571 
L 262.656528 60.689862 
L 263.253551 60.665547 
L 269.223783 73.71159 
L 269.820806 72.940532 
L 275.194014 61.69002 
L 275.791037 60.758323 
L 281.761269 56.094295 
L 287.731501 57.760223 
L 288.328524 58.123801 
L 293.701732 62.609019 
L 294.298755 62.921412 
L 300.86601 57.58359 
L 306.239218 54.181069 
L 306.836242 54.075022 
L 312.806473 57.548072 
L 316.985635 55.497231 
L 318.776705 54.609686 
L 319.373728 54.760728 
L 325.34396 59.662998 
L 331.314191 59.274628 
L 332.508237 58.767705 
L 337.284423 56.49473 
L 337.881446 56.345619 
L 344.448701 57.449097 
L 351.015955 57.488823 
L 356.389164 57.16994 
L 362.359395 61.489613 
L 362.956419 61.508528 
L 373.702836 58.828367 
L 377.284974 57.78876 
L 381.464137 56.616235 
L 388.031391 56.97492 
L 393.4046 57.723833 
L 394.001623 57.515508 
L 399.374831 54.447932 
L 399.971855 54.26399 
L 405.942086 56.434251 
L 408.330179 56.177055 
L 411.912318 55.736811 
L 412.509341 55.918986 
L 418.479572 60.606659 
L 424.449804 60.475146 
L 425.64385 59.899063 
L 430.420036 57.138306 
L 431.017059 56.977647 
L 436.98729 60.90411 
L 437.584314 60.4521 
L 442.957522 54.976252 
L 443.554545 54.814578 
L 449.524777 58.933778 
L 455.495008 60.492882 
L 456.689055 60.328248 
L 462.659286 59.023167 
L 468.629518 58.301391 
L 474.002726 58.613474 
L 474.599749 58.487736 
L 480.569981 54.885834 
L 486.540213 55.427182 
L 487.137236 55.804708 
L 492.510444 61.193847 
L 493.107467 61.562724 
L 499.077699 55.288489 
L 499.674722 55.31986 
L 505.644954 57.41617 
L 511.615185 57.920373 
L 517.585417 60.747591 
L 518.18244 60.601853 
L 523.555649 56.285903 
L 524.152672 55.953047 
L 530.122903 60.546007 
L 530.719926 60.336964 
L 536.093135 56.450562 
L 536.690158 56.332513 
L 542.66039 61.142228 
L 544.451459 59.726639 
L 548.630621 56.281686 
L 549.227644 56.247117 
L 555.197876 59.87057 
L 563.5562 57.492149 
L 567.735362 56.5411 
L 573.705594 58.470793 
L 576.69071 61.043801 
L 579.675826 63.647538 
L 580.272849 63.625705 
L 586.24308 58.026959 
L 592.810335 57.22412 
L 598.780567 57.627133 
L 605.347821 60.035667 
L 610.72103 62.766991 
L 611.318053 62.750824 
L 622.06447 56.059931 
L 623.258516 55.333058 
L 623.855539 55.506139 
L 629.228748 59.593172 
L 629.825771 59.856911 
L 635.796003 56.783017 
L 638.184095 56.270746 
L 642.363257 55.529795 
L 648.930512 56.925926 
L 654.30372 58.838037 
L 654.900744 58.744811 
L 660.870975 56.006354 
L 666.841207 54.515011 
L 668.035253 55.231213 
L 672.811438 58.5158 
L 673.408462 58.787223 
L 679.378693 59.467701 
L 679.378693 59.467701 
" clip-path="url(#paa3883dabd)" style="fill: none; stroke: #00008b; stroke-width: 1.5; stroke-linecap: square"/>
   </g>
   <g id="patch_3">
    <path d="M 53.13125 390.04 
L 53.13125 25.44 
" style="fill: none; stroke: #000000; stroke-width: 0.8; stroke-linejoin: miter; stroke-linecap: square"/>
   </g>
   <g id="patch_4">
    <path d="M 709.2 390.04 
L 709.2 25.44 
" style="fill: none; stroke: #000000; stroke-width: 0.8; stroke-linejoin: miter; stroke-linecap: square"/>
   </g>
   <g id="patch_5">
    <path d="M 53.13125 390.04 
L 709.2 390.04 
" style="fill: none; stroke: #000000; stroke-width: 0.8; stroke-linejoin: miter; stroke-linecap: square"/>
   </g>
   <g id="patch_6">
    <path d="M 53.13125 25.44 
L 709.2 25.44 
" style="fill: none; stroke: #000000; stroke-width: 0.8; stroke-linejoin: miter; stroke-linecap: square"/>
   </g>
   <g id="text_14">
    <!-- losses/explained_variance for ppo_atari (aggregated via interpolation over runs) -->
    <g transform="translate(139.808125 19.44) scale(0.12 -0.12)">
     <defs>
      <path id="DejaVuSans-20" transform="scale(0.015625)"/>
      <path id="DejaVuSans-66" d="M 2375 4863 
L 2375 4384 
L 1825 4384 
Q 1516 4384 1395 4259 
Q 1275 4134 1275 3809 
L 1275 3500 
L 2222 3500 
L 2222 3053 
L 1275 3053 
L 1275 0 
L 697 0 
L 697 3053 
L 147 3053 
L 147 3500 
L 697 3500 
L 697 3744 
Q 697 4328 969 4595 
Q 1241 4863 1831 4863 
L 2375 4863 
z
" transform="scale(0.015625)"/>
      <path id="DejaVuSans-28" d="M 1984 4856 
Q 1566 4138 1362 3434 
Q 1159 2731 1159 2009 
Q 1159 1288 1364 580 
Q 1569 -128 1984 -844 
L 1484 -844 
Q 1016 -109 783 600 
Q 550 1309 550 2009 
Q 550 2706 781 3412 
Q 1013 4119 1484 4856 
L 1984 4856 
z
" transform="scale(0.015625)"/>
      <path id="DejaVuSans-67" d="M 2906 1791 
Q 2906 2416 2648 2759 
Q 2391 3103 1925 3103 
Q 1463 3103 1205 2759 
Q 947 2416 947 1791 
Q 947 1169 1205 825 
Q 1463 481 1925 481 
Q 2391 481 2648 825 
Q 2906 1169 2906 1791 
z
M 3481 434 
Q 3481 -459 3084 -895 
Q 2688 -1331 1869 -1331 
Q 1566 -1331 1297 -1286 
Q 1028 -1241 775 -1147 
L 775 -588 
Q 1028 -725 1275 -790 
Q 1522 -856 1778 -856 
Q 2344 -856 2625 -561 
Q 2906 -266 2906 331 
L 2906 616 
Q 2728 306 2450 153 
Q 2172 0 1784 0 
Q 1141 0 747 490 
Q 353 981 353 1791 
Q 353 2603 747 3093 
Q 1141 3584 1784 3584 
Q 2172 3584 2450 3431 
Q 2728 3278 2906 2969 
L 2906 3500 
L 3481 3500 
L 3481 434 
z
" transform="scale(0.015625)"/>
      <path id="DejaVuSans-75" d="M 544 1381 
L 544 3500 
L 1119 3500 
L 1119 1403 
Q 1119 906 1312 657 
Q 1506 409 1894 409 
Q 2359 409 2629 706 
Q 2900 1003 2900 1516 
L 2900 3500 
L 3475 3500 
L 3475 0 
L 2900 0 
L 2900 538 
Q 2691 219 2414 64 
Q 2138 -91 1772 -91 
Q 1169 -91 856 284 
Q 544 659 544 1381 
z
M 1991 3584 
L 1991 3584 
z
" transform="scale(0.015625)"/>
      <path id="DejaVuSans-29" d="M 513 4856 
L 1013 4856 
Q 1481 4119 1714 3412 
Q 1947 2706 1947 2009 
Q 1947 1309 1714 600 
Q 1481 -109 1013 -844 
L 513 -844 
Q 928 -128 1133 580 
Q 1338 1288 1338 2009 
Q 1338 2731 1133 3434 
Q 928 4138 513 4856 
z
" transform="scale(0.015625)"/>
     </defs>
     <use xlink:href="#DejaVuSans-6c"/>
     <use xlink:href="#DejaVuSans-6f" transform="translate(27.783203 0)"/>
     <use xlink:href="#DejaVuSans-73" transform="translate(88.964844 0)"/>
     <use xlink:href="#DejaVuSans-73" transform="translate(141.064453 0)"/>
     <use xlink:href="#DejaVuSans-65" transform="translate(193.164062 0)"/>
     <use xlink:href="#DejaVuSans-73" transform="translate(254.6875 0)"/>
     <use xlink:href="#DejaVuSans-2f" transform="translate(306.787109 0)"/>
     <use xlink:href="#DejaVuSans-65" transform="translate(340.478516 0)"/>
     <use xlink:href="#DejaVuSans-78" transform="translate(400.251953 0)"/>
     <use xlink:href="#DejaVuSans-70" transform="translate(459.431641 0)"/>
     <use xlink:href="#DejaVuSans-6c" transform="translate(522.908203 0)"/>
     <use xlink:href="#DejaVuSans-61" transform="translate(550.691406 0)"/>
     <use xlink:href="#DejaVuSans-69" transform="translate(611.970703 0)"/>
     <use xlink:href="#DejaVuSans-6e" transform="translate(639.753906 0)"/>
     <use xlink:href="#DejaVuSans-65" transform="translate(703.132812 0)"/>
     <use xlink:href="#DejaVuSans-64" transform="translate(764.65625 0)"/>
     <use xlink:href="#DejaVuSans-5f" transform="translate(828.132812 0)"/>
     <use xlink:href="#DejaVuSans-76" transform="translate(878.132812 0)"/>
     <use xlink:href="#DejaVuSans-61" transform="translate(937.3125 0)"/>
     <use xlink:href="#DejaVuSans-72" transform="translate(998.591797 0)"/>
     <use xlink:href="#DejaVuSans-69" transform="translate(1039.705078 0)"/>
     <use xlink:href="#DejaVuSans-61" transform="translate(1067.488281 0)"/>
     <use xlink:href="#DejaVuSans-6e" transform="translate(1128.767578 0)"/>
     <use xlink:href="#DejaVuSans-63" transform="translate(1192.146484 0)"/>
     <use xlink:href="#DejaVuSans-65" transform="translate(1247.126953 0)"/>
     <use xlink:href="#DejaVuSans-20" transform="translate(1308.650391 0)"/>
     <use xlink:href="#DejaVuSans-66" transform="translate(1340.4375 0)"/>
     <use xlink:href="#DejaVuSans-6f" transform="translate(1375.642578 0)"/>
     <use xlink:href="#DejaVuSans-72" transform="translate(1436.824219 0)"/>
     <use xlink:href="#DejaVuSans-20" transform="translate(1477.9375 0)"/>
     <use xlink:href="#DejaVuSans-70" transform="translate(1509.724609 0)"/>
     <use xlink:href="#DejaVuSans-70" transform="translate(1573.201172 0)"/>
     <use xlink:href="#DejaVuSans-6f" transform="translate(1636.677734 0)"/>
     <use xlink:href="#DejaVuSans-5f" transform="translate(1697.859375 0)"/>
     <use xlink:href="#DejaVuSans-61" transform="translate(1747.859375 0)"/>
     <use xlink:href="#DejaVuSans-74" transform="translate(1809.138672 0)"/>
     <use xlink:href="#DejaVuSans-61" transform="translate(1848.347656 0)"/>
     <use xlink:href="#DejaVuSans-72" transform="translate(1909.626953 0)"/>
     <use xlink:href="#DejaVuSans-69" transform="translate(1950.740234 0)"/>
     <use xlink:href="#DejaVuSans-20" transform="translate(1978.523438 0)"/>
     <use xlink:href="#DejaVuSans-28" transform="translate(2010.310547 0)"/>
     <use xlink:href="#DejaVuSans-61" transform="translate(2049.324219 0)"/>
     <use xlink:href="#DejaVuSans-67" transform="translate(2110.603516 0)"/>
     <use xlink:href="#DejaVuSans-67" transform="translate(2174.080078 0)"/>
     <use xlink:href="#DejaVuSans-72" transform="translate(2237.556641 0)"/>
     <use xlink:href="#DejaVuSans-65" transform="translate(2276.419922 0)"/>
     <use xlink:href="#DejaVuSans-67" transform="translate(2337.943359 0)"/>
     <use xlink:href="#DejaVuSans-61" transform="translate(2401.419922 0)"/>
     <use xlink:href="#DejaVuSans-74" transform="translate(2462.699219 0)"/>
     <use xlink:href="#DejaVuSans-65" transform="translate(2501.908203 0)"/>
     <use xlink:href="#DejaVuSans-64" transform="translate(2563.431641 0)"/>
     <use xlink:href="#DejaVuSans-20" transform="translate(2626.908203 0)"/>
     <use xlink:href="#DejaVuSans-76" transform="translate(2658.695312 0)"/>
     <use xlink:href="#DejaVuSans-69" transform="translate(2717.875 0)"/>
     <use xlink:href="#DejaVuSans-61" transform="translate(2745.658203 0)"/>
     <use xlink:href="#DejaVuSans-20" transform="translate(2806.9375 0)"/>
     <use xlink:href="#DejaVuSans-69" transform="translate(2838.724609 0)"/>
     <use xlink:href="#DejaVuSans-6e" transform="translate(2866.507812 0)"/>
     <use xlink:href="#DejaVuSans-74" transform="translate(2929.886719 0)"/>
     <use xlink:href="#DejaVuSans-65" transform="translate(2969.095703 0)"/>
     <use xlink:href="#DejaVuSans-72" transform="translate(3030.619141 0)"/>
     <use xlink:href="#DejaVuSans-70" transform="translate(3071.732422 0)"/>
     <use xlink:href="#DejaVuSans-6f" transform="translate(3135.208984 0)"/>
     <use xlink:href="#DejaVuSans-6c" transform="translate(3196.390625 0)"/>
     <use xlink:href="#DejaVuSans-61" transform="translate(3224.173828 0)"/>
     <use xlink:href="#DejaVuSans-74" transform="translate(3285.453125 0)"/>
     <use xlink:href="#DejaVuSans-69" transform="translate(3324.662109 0)"/>
     <use xlink:href="#DejaVuSans-6f" transform="translate(3352.445312 0)"/>
     <use xlink:href="#DejaVuSans-6e" transform="translate(3413.626953 0)"/>
     <use xlink:href="#DejaVuSans-20" transform="translate(3477.005859 0)"/>
     <use xlink:href="#DejaVuSans-6f" transform="translate(3508.792969 0)"/>
     <use xlink:href="#DejaVuSans-76" transform="translate(3569.974609 0)"/>
     <use xlink:href="#DejaVuSans-65" transform="translate(3629.154297 0)"/>
     <use xlink:href="#DejaVuSans-72" transform="translate(3690.677734 0)"/>
     <use xlink:href="#DejaVuSans-20" transform="translate(3731.791016 0)"/>
     <use xlink:href="#DejaVuSans-72" transform="translate(3763.578125 0)"/>
     <use xlink:href="#DejaVuSans-75" transform="translate(3804.691406 0)"/>
     <use xlink:href="#DejaVuSans-6e" transform="translate(3868.070312 0)"/>
     <use xlink:href="#DejaVuSans-73" transform="translate(3931.449219 0)"/>
     <use xlink:href="#DejaVuSans-29" transform="translate(3983.548828 0)"/>
    </g>
   </g>
   <g id="legend_1">
    <g id="patch_7">
     <path d="M 60.13125 385.04 
L 135.55 385.04 
Q 137.55 385.04 137.55 383.04 
L 137.55 354.68375 
Q 137.55 352.68375 135.55 352.68375 
L 60.13125 352.68375 
Q 58.13125 352.68375 58.13125 354.68375 
L 58.13125 383.04 
Q 58.13125 385.04 60.13125 385.04 
z
" style="fill: #ffffff; opacity: 0.8; stroke: #cccccc; stroke-linejoin: miter"/>
    </g>
    <g id="line2d_13">
     <path d="M 62.13125 360.782187 
L 72.13125 360.782187 
L 82.13125 360.782187 
" style="fill: none; stroke: #00008b; stroke-width: 1.5; stroke-linecap: square"/>
    </g>
    <g id="text_15">
     <!-- Mean -->
     <g transform="translate(90.13125 364.282187) scale(0.1 -0.1)">
      <defs>
       <path id="DejaVuSans-4d" d="M 628 4666 
L 1569 4666 
L 2759 1491 
L 3956 4666 
L 4897 4666 
L 4897 0 
L 4281 0 
L 4281 4097 
L 3078 897 
L 2444 897 
L 1241 4097 
L 1241 0 
L 628 0 
L 628 4666 
z
" transform="scale(0.015625)"/>
      </defs>
      <use xlink:href="#DejaVuSans-4d"/>
      <use xlink:href="#DejaVuSans-65" transform="translate(86.279297 0)"/>
      <use xlink:href="#DejaVuSans-61" transform="translate(147.802734 0)"/>
      <use xlink:href="#DejaVuSans-6e" transform="translate(209.082031 0)"/>
     </g>
    </g>
    <g id="patch_8">
     <path d="M 62.13125 378.960312 
L 82.13125 378.960312 
L 82.13125 371.960312 
L 62.13125 371.960312 
z
" style="fill: #00008b; fill-opacity: 0.3; stroke: #00008b; stroke-opacity: 0.3; stroke-linejoin: miter"/>
    </g>
    <g id="text_16">
     <!-- MinMax -->
     <g transform="translate(90.13125 378.960312) scale(0.1 -0.1)">
      <defs>
       <path id="DejaVuSans-2013" d="M 313 1978 
L 2888 1978 
L 2888 1528 
L 313 1528 
L 313 1978 
z
" transform="scale(0.015625)"/>
      </defs>
      <use xlink:href="#DejaVuSans-4d"/>
      <use xlink:href="#DejaVuSans-69" transform="translate(86.279297 0)"/>
      <use xlink:href="#DejaVuSans-6e" transform="translate(114.0625 0)"/>
      <use xlink:href="#DejaVuSans-2013" transform="translate(177.441406 0)"/>
      <use xlink:href="#DejaVuSans-4d" transform="translate(227.441406 0)"/>
      <use xlink:href="#DejaVuSans-61" transform="translate(313.720703 0)"/>
      <use xlink:href="#DejaVuSans-78" transform="translate(375 0)"/>
     </g>
    </g>
   </g>
  </g>
 </g>
 <defs>
  <clipPath id="paa3883dabd">
   <rect x="53.13125" y="25.44" width="656.06875" height="364.6"/>
  </clipPath>
 </defs>
</svg>
