<?xml version="1.0" encoding="utf-8" standalone="no"?>
<!DOCTYPE svg PUBLIC "-//W3C//DTD SVG 1.1//EN"
  "http://www.w3.org/Graphics/SVG/1.1/DTD/svg11.dtd">
<svg xmlns:xlink="http://www.w3.org/1999/xlink" width="720pt" height="432pt" viewBox="0 0 720 432" xmlns="http://www.w3.org/2000/svg" version="1.1">
 <metadata>
  <rdf:RDF xmlns:dc="http://purl.org/dc/elements/1.1/" xmlns:cc="http://creativecommons.org/ns#" xmlns:rdf="http://www.w3.org/1999/02/22-rdf-syntax-ns#">
   <cc:Work>
    <dc:type rdf:resource="http://purl.org/dc/dcmitype/StillImage"/>
    <dc:date>2025-02-05T20:32:10.586113</dc:date>
    <dc:format>image/svg+xml</dc:format>
    <dc:creator>
     <cc:Agent>
      <dc:title>Matplotlib v3.10.0, https://matplotlib.org/</dc:title>
     </cc:Agent>
    </dc:creator>
   </cc:Work>
  </rdf:RDF>
 </metadata>
 <defs>
  <style type="text/css">*{stroke-linejoin: round; stroke-linecap: butt}</style>
 </defs>
 <g id="figure_1">
  <g id="patch_1">
   <path d="M 0 432 
L 720 432 
L 720 0 
L 0 0 
z
" style="fill: #ffffff"/>
  </g>
  <g id="axes_1">
   <g id="patch_2">
    <path d="M 60.69125 390.04 
L 709.2 390.04 
L 709.2 25.44 
L 60.69125 25.44 
z
" style="fill: #ffffff"/>
   </g>
   <g id="FillBetweenPolyCollection_1">
    <defs>
     <path id="mb8c6cb465d" d="M 90.16892 -280.36 
L 90.16892 -65.479383 
L 90.759064 -65.212688 
L 91.349208 -64.945993 
L 91.939351 -64.679299 
L 92.529495 -64.412604 
L 93.119638 -64.145909 
L 93.709782 -63.879214 
L 94.299925 -63.61252 
L 94.890069 -63.345825 
L 95.480212 -63.07913 
L 96.070356 -62.812435 
L 96.6605 -62.811511 
L 97.250643 -62.99243 
L 97.840787 -63.173348 
L 98.43093 -63.354267 
L 99.021074 -63.535185 
L 99.611217 -63.716104 
L 100.201361 -63.721865 
L 100.791504 -63.384551 
L 101.381648 -63.047236 
L 101.971792 -62.709922 
L 102.561935 -62.419182 
L 103.152079 -62.330262 
L 103.742222 -62.241342 
L 104.332366 -62.152422 
L 104.922509 -62.063502 
L 105.512653 -61.974582 
L 106.102796 -61.340627 
L 106.69294 -60.686329 
L 107.283083 -60.032031 
L 107.873227 -59.377733 
L 108.463371 -58.723435 
L 109.053514 -59.595848 
L 109.643658 -60.89574 
L 110.233801 -61.011147 
L 110.823945 -60.831593 
L 111.414088 -60.652039 
L 112.004232 -60.472485 
L 112.594375 -60.292931 
L 113.184519 -60.113377 
L 113.774663 -59.933823 
L 114.364806 -59.754269 
L 114.95495 -60.986826 
L 115.545093 -64.092929 
L 116.135237 -63.58609 
L 116.72538 -63.079251 
L 117.315524 -62.572412 
L 117.905667 -62.065573 
L 118.495811 -61.558735 
L 119.085955 -61.051896 
L 119.676098 -60.545057 
L 120.266242 -60.038218 
L 120.856385 -59.531379 
L 121.446529 -59.868487 
L 122.036672 -60.23282 
L 122.626816 -60.597152 
L 123.216959 -60.961484 
L 123.807103 -61.325816 
L 124.397247 -61.690148 
L 124.98739 -62.05448 
L 125.577534 -62.418812 
L 126.167677 -62.783144 
L 126.757821 -63.147476 
L 127.347964 -72.79318 
L 127.938108 -78.217296 
L 128.528251 -83.641412 
L 129.118395 -89.065527 
L 129.708538 -90.433792 
L 130.298682 -88.551404 
L 130.888826 -86.669015 
L 131.478969 -84.786626 
L 132.069113 -82.904237 
L 132.659256 -81.021849 
L 133.2494 -80.766326 
L 133.839543 -86.370896 
L 134.429687 -87.9376 
L 135.01983 -89.504303 
L 135.609974 -91.071007 
L 136.200118 -92.63771 
L 136.790261 -94.204414 
L 137.380405 -95.771117 
L 137.970548 -94.900551 
L 138.560692 -91.064687 
L 139.150835 -87.228823 
L 139.740979 -93.986719 
L 140.331122 -95.636745 
L 140.921266 -92.650369 
L 141.51141 -89.663993 
L 142.101553 -86.677617 
L 142.691697 -83.691241 
L 143.28184 -80.704865 
L 143.871984 -77.718489 
L 144.462127 -74.732113 
L 145.052271 -71.515254 
L 145.642414 -66.160978 
L 146.232558 -67.890812 
L 146.822702 -67.02841 
L 147.412845 -66.166008 
L 148.002989 -65.303606 
L 148.593132 -64.441204 
L 149.183276 -63.578802 
L 149.773419 -62.716399 
L 150.363563 -61.853997 
L 150.953706 -60.991595 
L 151.54385 -60.129193 
L 152.133993 -60.616142 
L 152.724137 -61.193048 
L 153.314281 -61.769953 
L 153.904424 -62.346859 
L 154.494568 -62.923765 
L 155.084711 -63.50067 
L 155.674855 -64.077576 
L 156.264998 -64.654482 
L 156.855142 -65.231388 
L 157.445285 -65.808293 
L 158.035429 -72.687995 
L 158.625573 -74.789873 
L 159.215716 -76.89175 
L 159.80586 -78.993628 
L 160.396003 -81.095506 
L 160.986147 -83.197384 
L 161.57629 -85.299262 
L 162.166434 -87.401139 
L 162.756577 -83.92507 
L 163.346721 -71.242277 
L 163.936865 -60.219982 
L 164.527008 -60.821175 
L 165.117152 -61.422368 
L 165.707295 -62.023561 
L 166.297439 -62.624754 
L 166.887582 -63.225948 
L 167.477726 -63.827141 
L 168.067869 -64.428334 
L 168.658013 -65.029527 
L 169.248157 -65.63072 
L 169.8383 -66.231913 
L 170.428444 -67.654845 
L 171.018587 -69.399327 
L 171.608731 -71.143808 
L 172.198874 -72.88829 
L 172.789018 -74.632772 
L 173.379161 -76.377253 
L 173.969305 -78.121735 
L 174.559448 -79.866217 
L 175.149592 -81.610698 
L 175.739736 -75.519659 
L 176.329879 -69.508797 
L 176.920023 -83.589288 
L 177.510166 -85.626433 
L 178.10031 -86.089967 
L 178.690453 -86.553501 
L 179.280597 -83.754223 
L 179.87074 -78.868618 
L 180.460884 -73.983014 
L 181.051028 -69.097409 
L 181.641171 -64.211805 
L 182.231315 -59.3262 
L 182.821458 -65.241402 
L 183.411602 -72.273928 
L 184.001745 -79.306455 
L 184.591889 -86.338981 
L 185.182032 -93.371507 
L 185.772176 -100.404034 
L 186.36232 -107.43656 
L 186.952463 -101.44799 
L 187.542607 -93.751327 
L 188.13275 -86.054664 
L 188.722894 -82.165086 
L 189.313037 -82.082594 
L 189.903181 -82.000102 
L 190.493324 -81.91761 
L 191.083468 -81.835118 
L 191.673612 -81.752626 
L 192.263755 -81.670134 
L 192.853899 -81.587642 
L 193.444042 -81.50515 
L 194.034186 -73.728945 
L 194.624329 -64.078848 
L 195.214473 -65.917316 
L 195.804616 -67.755785 
L 196.39476 -69.594253 
L 196.984903 -71.432721 
L 197.575047 -73.27119 
L 198.165191 -75.109658 
L 198.755334 -76.948126 
L 199.345478 -78.786595 
L 199.935621 -80.625063 
L 200.525765 -80.234386 
L 201.115908 -78.137264 
L 201.706052 -76.12733 
L 202.296195 -74.117396 
L 202.886339 -72.107462 
L 203.476483 -70.097528 
L 204.066626 -68.087594 
L 204.65677 -66.07766 
L 205.246913 -64.067726 
L 205.837057 -62.057792 
L 206.4272 -60.047858 
L 207.017344 -58.607436 
L 207.607487 -58.622437 
L 208.197631 -58.637437 
L 208.787775 -58.652437 
L 209.377918 -58.667437 
L 209.968062 -58.682438 
L 210.558205 -58.697438 
L 211.148349 -58.712438 
L 211.738492 -58.727438 
L 212.328636 -58.742439 
L 212.918779 -58.757439 
L 213.508923 -61.237563 
L 214.099067 -64.069847 
L 214.68921 -66.902132 
L 215.279354 -69.734416 
L 215.869497 -72.566701 
L 216.459641 -75.398985 
L 217.049784 -78.23127 
L 217.639928 -81.063554 
L 218.230071 -81.747417 
L 218.820215 -79.974833 
L 219.410358 -79.54115 
L 220.000502 -80.62489 
L 220.590646 -81.70863 
L 221.180789 -82.79237 
L 221.770933 -83.87611 
L 222.361076 -84.95985 
L 222.95122 -86.04359 
L 223.541363 -84.742879 
L 224.131507 -77.467644 
L 224.72165 -67.888023 
L 225.311794 -59.22001 
L 225.901938 -64.226132 
L 226.492081 -69.232255 
L 227.082225 -74.238378 
L 227.672368 -79.2445 
L 228.262512 -84.250623 
L 228.852655 -88.587043 
L 229.442799 -83.215483 
L 230.032942 -77.843923 
L 230.623086 -72.472363 
L 231.21323 -67.100803 
L 231.803373 -71.615449 
L 232.393517 -81.308583 
L 232.98366 -91.001717 
L 233.573804 -97.091974 
L 234.163947 -97.926546 
L 234.754091 -98.761119 
L 235.344234 -99.595691 
L 235.934378 -100.430263 
L 236.524522 -101.264836 
L 237.114665 -89.23421 
L 237.704809 -77.685224 
L 238.294952 -80.282521 
L 238.885096 -82.879819 
L 239.475239 -85.477116 
L 240.065383 -88.074413 
L 240.655526 -90.671711 
L 241.24567 -93.269008 
L 241.835813 -91.366211 
L 242.425957 -87.916785 
L 243.016101 -84.46736 
L 243.606244 -71.826069 
L 244.196388 -81.153522 
L 244.786531 -88.635196 
L 245.376675 -93.058917 
L 245.966818 -97.482638 
L 246.556962 -101.906359 
L 247.147105 -103.764837 
L 247.737249 -99.735206 
L 248.327393 -95.705576 
L 248.917536 -91.675946 
L 249.50768 -79.029925 
L 250.097823 -70.363765 
L 250.687967 -78.749872 
L 251.27811 -87.135979 
L 251.868254 -84.897753 
L 252.458397 -82.459062 
L 253.048541 -80.020371 
L 253.638685 -77.58168 
L 254.228828 -75.14299 
L 254.818972 -72.704299 
L 255.409115 -70.265608 
L 255.999259 -68.039324 
L 256.589402 -72.397642 
L 257.179546 -76.755961 
L 257.769689 -81.11428 
L 258.359833 -83.31102 
L 258.949977 -81.758181 
L 259.54012 -80.205341 
L 260.130264 -78.652502 
L 260.720407 -76.804119 
L 261.310551 -74.101973 
L 261.900694 -71.399827 
L 262.490838 -76.544031 
L 263.080981 -86.396045 
L 263.671125 -96.248058 
L 264.261268 -104.957473 
L 264.851412 -102.667982 
L 265.441556 -100.378491 
L 266.031699 -98.088999 
L 266.621843 -95.799508 
L 267.211986 -93.510017 
L 267.80213 -91.220525 
L 268.392273 -90.323181 
L 268.982417 -94.397792 
L 269.57256 -98.472402 
L 270.162704 -102.547013 
L 270.752848 -106.621623 
L 271.342991 -110.696233 
L 271.933135 -114.770844 
L 272.523278 -114.549355 
L 273.113422 -108.480212 
L 273.703565 -86.900696 
L 274.293709 -65.32118 
L 274.883852 -68.682001 
L 275.473996 -77.798285 
L 276.06414 -86.91457 
L 276.654283 -96.030854 
L 277.244427 -105.147138 
L 277.83457 -105.349418 
L 278.424714 -100.793056 
L 279.014857 -96.236693 
L 279.605001 -91.680331 
L 280.195144 -87.123969 
L 280.785288 -88.674886 
L 281.375432 -99.151829 
L 281.965575 -109.628771 
L 282.555719 -111.383034 
L 283.145862 -105.256488 
L 283.736006 -99.129941 
L 284.326149 -93.003395 
L 284.916293 -86.876848 
L 285.506436 -80.750302 
L 286.09658 -74.623755 
L 286.686723 -68.497209 
L 287.276867 -76.211135 
L 287.867011 -83.925062 
L 288.457154 -91.638989 
L 289.047298 -99.352915 
L 289.637441 -102.371038 
L 290.227585 -103.412653 
L 290.817728 -99.162359 
L 291.407872 -89.008624 
L 291.998015 -78.854888 
L 292.588159 -68.701153 
L 293.178303 -64.571802 
L 293.768446 -64.564398 
L 294.35859 -64.556993 
L 294.948733 -64.549589 
L 295.538877 -64.542185 
L 296.12902 -64.534781 
L 296.719164 -64.527377 
L 297.309307 -64.519972 
L 297.899451 -64.512568 
L 298.489595 -64.505164 
L 299.079738 -64.6681 
L 299.669882 -65.569178 
L 300.260025 -66.470256 
L 300.850169 -67.371333 
L 301.440312 -68.272411 
L 302.030456 -69.173489 
L 302.620599 -70.074566 
L 303.210743 -70.975644 
L 303.800887 -71.876722 
L 304.39103 -72.777799 
L 304.981174 -70.271274 
L 305.571317 -71.930734 
L 306.161461 -76.134134 
L 306.751604 -77.651876 
L 307.341748 -75.674547 
L 307.931891 -73.697218 
L 308.522035 -71.71989 
L 309.112178 -69.742561 
L 309.702322 -67.765232 
L 310.292466 -65.787903 
L 310.882609 -63.810574 
L 311.472753 -62.664674 
L 312.062896 -62.904489 
L 312.65304 -63.144304 
L 313.243183 -63.38412 
L 313.833327 -63.623935 
L 314.42347 -63.86375 
L 315.013614 -64.103565 
L 315.603758 -64.34338 
L 316.193901 -64.583195 
L 316.784045 -64.823011 
L 317.374188 -65.062826 
L 317.964332 -71.394958 
L 318.554475 -77.923617 
L 319.144619 -84.452276 
L 319.734762 -84.411316 
L 320.324906 -83.36532 
L 320.91505 -82.319324 
L 321.505193 -81.273328 
L 322.095337 -80.227332 
L 322.68548 -79.181336 
L 323.275624 -73.657281 
L 323.865767 -78.467076 
L 324.455911 -79.870383 
L 325.046054 -81.273689 
L 325.636198 -81.525562 
L 326.226342 -79.422556 
L 326.816485 -77.31955 
L 327.406629 -75.216544 
L 327.996772 -73.113538 
L 328.586916 -71.010532 
L 329.177059 -68.907526 
L 329.767203 -68.833922 
L 330.357346 -79.719087 
L 330.94749 -88.068169 
L 331.537633 -86.114451 
L 332.127777 -84.160732 
L 332.717921 -82.207013 
L 333.308064 -80.253295 
L 333.898208 -78.299576 
L 334.488351 -76.345858 
L 335.078495 -74.392139 
L 335.668638 -72.43842 
L 336.258782 -79.126053 
L 336.848925 -80.626534 
L 337.439069 -81.771925 
L 338.029213 -82.882796 
L 338.619356 -83.609583 
L 339.2095 -84.33637 
L 339.799643 -84.712471 
L 340.389787 -81.95827 
L 340.97993 -79.204068 
L 341.570074 -76.449867 
L 342.160217 -79.211782 
L 342.750361 -90.007194 
L 343.340505 -86.752813 
L 343.930648 -83.498431 
L 344.520792 -80.24405 
L 345.110935 -76.989668 
L 345.701079 -73.735286 
L 346.291222 -70.480905 
L 346.881366 -67.226523 
L 347.471509 -63.972141 
L 348.061653 -60.71776 
L 348.651797 -62.330543 
L 349.24194 -64.267805 
L 349.832084 -66.205066 
L 350.422227 -68.142327 
L 351.012371 -70.079588 
L 351.602514 -72.01685 
L 352.192658 -70.169146 
L 352.782801 -67.217069 
L 353.372945 -64.264993 
L 353.963088 -61.312917 
L 354.553232 -60.811782 
L 355.143376 -62.473241 
L 355.733519 -64.134701 
L 356.323663 -65.796161 
L 356.913806 -67.457621 
L 357.50395 -69.11908 
L 358.094093 -70.78054 
L 358.684237 -72.442 
L 359.27438 -73.680338 
L 359.864524 -70.786366 
L 360.454668 -69.533149 
L 361.044811 -75.360746 
L 361.634955 -79.161833 
L 362.225098 -82.96292 
L 362.815242 -86.764007 
L 363.405385 -88.360135 
L 363.995529 -87.384728 
L 364.585672 -86.226258 
L 365.175816 -83.848183 
L 365.76596 -81.470109 
L 366.356103 -77.608854 
L 366.946247 -72.426176 
L 367.53639 -71.526774 
L 368.126534 -70.627373 
L 368.716677 -69.727972 
L 369.306821 -68.82857 
L 369.896964 -67.929169 
L 370.487108 -67.029768 
L 371.077252 -66.130366 
L 371.667395 -65.230965 
L 372.257539 -63.654007 
L 372.847682 -61.063693 
L 373.437826 -63.410652 
L 374.027969 -65.757612 
L 374.618113 -67.191241 
L 375.208256 -68.140303 
L 375.7984 -69.089365 
L 376.388543 -70.038427 
L 376.978687 -70.98749 
L 377.568831 -71.936552 
L 378.158974 -67.142599 
L 378.749118 -61.736051 
L 379.339261 -65.342138 
L 379.929405 -68.635095 
L 380.519548 -68.07878 
L 381.109692 -67.522465 
L 381.699835 -66.966151 
L 382.289979 -66.409836 
L 382.880123 -65.853521 
L 383.470266 -65.297207 
L 384.06041 -64.740892 
L 384.650553 -64.184578 
L 385.240697 -66.748875 
L 385.83084 -66.351053 
L 386.420984 -65.953231 
L 387.011127 -65.555409 
L 387.601271 -65.157586 
L 388.191415 -64.759764 
L 388.781558 -64.361942 
L 389.371702 -63.96412 
L 389.961845 -63.566297 
L 390.551989 -63.168475 
L 391.142132 -62.861432 
L 391.732276 -63.431918 
L 392.322419 -64.002403 
L 392.912563 -64.572889 
L 393.502707 -65.143375 
L 394.09285 -65.713861 
L 394.682994 -66.284347 
L 395.273137 -66.854833 
L 395.863281 -67.425318 
L 396.453424 -67.995804 
L 397.043568 -66.717911 
L 397.633711 -66.206201 
L 398.223855 -66.263552 
L 398.813998 -66.320904 
L 399.404142 -66.378256 
L 399.994286 -66.077411 
L 400.584429 -65.508417 
L 401.174573 -64.939424 
L 401.764716 -64.370431 
L 402.35486 -63.801437 
L 402.945003 -63.232444 
L 403.535147 -62.864137 
L 404.12529 -63.008697 
L 404.715434 -63.153257 
L 405.305578 -63.297817 
L 405.895721 -63.442377 
L 406.485865 -63.586937 
L 407.076008 -63.731497 
L 407.666152 -63.876056 
L 408.256295 -64.020616 
L 408.846439 -64.165176 
L 409.436582 -64.309736 
L 410.026726 -65.543886 
L 410.61687 -66.933692 
L 411.207013 -68.323497 
L 411.797157 -69.713303 
L 412.3873 -71.103109 
L 412.977444 -72.492914 
L 413.567587 -73.88272 
L 414.157731 -75.272526 
L 414.747874 -72.336597 
L 415.338018 -65.358148 
L 415.928162 -63.626003 
L 416.518305 -67.83967 
L 417.108449 -72.053338 
L 417.698592 -72.644869 
L 418.288736 -70.873164 
L 418.878879 -69.101459 
L 419.469023 -67.329754 
L 420.059166 -65.558049 
L 420.64931 -63.786344 
L 421.239453 -62.014639 
L 421.829597 -60.405325 
L 422.419741 -61.231862 
L 423.009884 -62.0584 
L 423.600028 -62.884938 
L 424.190171 -63.711476 
L 424.780315 -64.538014 
L 425.370458 -65.364552 
L 425.960602 -66.19109 
L 426.550745 -67.017628 
L 427.140889 -67.844166 
L 427.731033 -66.039788 
L 428.321176 -65.241218 
L 428.91132 -65.6388 
L 429.501463 -66.036381 
L 430.091607 -66.433962 
L 430.68175 -66.831544 
L 431.271894 -67.229125 
L 431.862037 -67.626706 
L 432.452181 -68.024287 
L 433.042325 -68.421869 
L 433.632468 -68.81945 
L 434.222612 -69.048555 
L 434.812755 -68.772233 
L 435.402899 -68.495911 
L 435.993042 -68.219589 
L 436.583186 -67.943266 
L 437.173329 -67.666944 
L 437.763473 -67.390622 
L 438.353617 -67.1143 
L 438.94376 -66.837977 
L 439.533904 -66.561655 
L 440.124047 -66.285333 
L 440.714191 -67.070235 
L 441.304334 -68.05166 
L 441.894478 -69.033086 
L 442.484621 -70.014511 
L 443.074765 -70.995936 
L 443.664908 -70.979055 
L 444.255052 -70.731805 
L 444.845196 -70.484555 
L 445.435339 -70.237305 
L 446.025483 -69.990054 
L 446.615626 -68.100121 
L 447.20577 -68.31746 
L 447.795913 -68.534799 
L 448.386057 -68.752138 
L 448.9762 -68.969476 
L 449.566344 -69.186815 
L 450.156488 -69.404154 
L 450.746631 -69.621493 
L 451.336775 -69.838832 
L 451.926918 -70.056171 
L 452.517062 -70.243383 
L 453.107205 -69.496686 
L 453.697349 -68.749989 
L 454.287492 -68.003291 
L 454.877636 -67.256594 
L 455.46778 -66.509897 
L 456.057923 -65.763199 
L 456.648067 -65.016502 
L 457.23821 -64.269805 
L 457.828354 -63.523107 
L 458.418497 -62.77641 
L 459.008641 -63.27728 
L 459.598784 -64.52669 
L 460.188928 -65.776101 
L 460.779072 -67.025511 
L 461.369215 -68.274921 
L 461.959359 -69.524332 
L 462.549502 -70.773742 
L 463.139646 -72.023152 
L 463.729789 -73.272563 
L 464.319933 -74.521973 
L 464.910076 -75.235494 
L 465.50022 -74.035123 
L 466.090363 -72.834752 
L 466.680507 -71.634382 
L 467.270651 -70.434011 
L 467.860794 -69.23364 
L 468.450938 -68.033269 
L 469.041081 -66.832899 
L 469.631225 -65.632528 
L 470.221368 -64.432157 
L 470.811512 -63.231787 
L 471.401655 -62.799297 
L 471.991799 -62.544011 
L 472.581943 -62.288726 
L 473.172086 -62.03344 
L 473.76223 -61.778154 
L 474.352373 -61.522868 
L 474.942517 -61.267582 
L 475.53266 -61.012296 
L 476.122804 -60.75701 
L 476.712947 -60.501725 
L 477.303091 -60.288191 
L 477.893235 -60.13568 
L 478.483378 -59.983169 
L 479.073522 -59.830658 
L 479.663665 -59.678147 
L 480.253809 -59.525636 
L 480.843952 -59.373125 
L 481.434096 -59.220614 
L 482.024239 -59.068103 
L 482.614383 -58.915592 
L 483.204527 -58.763081 
L 483.79467 -58.879813 
L 484.384814 -58.996546 
L 484.974957 -59.113278 
L 485.565101 -59.230011 
L 486.155244 -59.346743 
L 486.745388 -59.463476 
L 487.335531 -59.580208 
L 487.925675 -59.696941 
L 488.515818 -59.813673 
L 489.105962 -59.930405 
L 489.696106 -59.903336 
L 490.286249 -59.777876 
L 490.876393 -59.652416 
L 491.466536 -59.526956 
L 492.05668 -59.401495 
L 492.646823 -59.276035 
L 493.236967 -59.150575 
L 493.82711 -59.025115 
L 494.417254 -58.899655 
L 495.007398 -58.774195 
L 495.597541 -58.685474 
L 496.187685 -58.755955 
L 496.777828 -58.826436 
L 497.367972 -58.896918 
L 497.958115 -58.967399 
L 498.548259 -59.037881 
L 499.138402 -59.108362 
L 499.728546 -59.178843 
L 500.31869 -59.249325 
L 500.908833 -59.319806 
L 501.498977 -59.390288 
L 502.08912 -59.48828 
L 502.679264 -59.593976 
L 503.269407 -59.699672 
L 503.859551 -59.805368 
L 504.449694 -59.911064 
L 505.039838 -60.01676 
L 505.629982 -60.122456 
L 506.220125 -60.228151 
L 506.810269 -60.333847 
L 507.400412 -60.439543 
L 507.990556 -60.455015 
L 508.580699 -60.320113 
L 509.170843 -60.185212 
L 509.760986 -60.05031 
L 510.35113 -59.915409 
L 510.941273 -59.780507 
L 511.531417 -59.645606 
L 512.121561 -59.510704 
L 512.711704 -59.375803 
L 513.301848 -59.240901 
L 513.891991 -59.106 
L 514.482135 -59.051683 
L 515.072278 -58.999965 
L 515.662422 -58.948248 
L 516.252565 -58.89653 
L 516.842709 -58.844813 
L 517.432853 -58.793096 
L 518.022996 -58.741378 
L 518.61314 -58.689661 
L 519.203283 -58.637943 
L 519.793427 -58.586226 
L 520.38357 -58.776598 
L 520.973714 -58.9409 
L 521.563857 -58.911522 
L 522.154001 -58.882144 
L 522.744145 -58.852766 
L 523.334288 -58.823388 
L 523.924432 -58.79401 
L 524.514575 -58.764631 
L 525.104719 -58.735253 
L 525.694862 -58.705875 
L 526.285006 -58.709381 
L 526.875149 -58.890457 
L 527.465293 -59.071533 
L 528.055437 -59.252609 
L 528.64558 -59.433685 
L 529.235724 -59.614761 
L 529.825867 -59.795837 
L 530.416011 -59.976913 
L 531.006154 -60.157989 
L 531.596298 -60.339065 
L 532.186441 -60.520141 
L 532.776585 -60.424855 
L 533.366728 -60.237448 
L 533.956872 -60.050042 
L 534.547016 -59.862635 
L 535.137159 -59.675228 
L 535.727303 -59.487821 
L 536.317446 -59.300414 
L 536.90759 -59.113007 
L 537.497733 -58.9256 
L 538.087877 -58.738193 
L 538.67802 -58.752638 
L 539.268164 -59.152436 
L 539.858308 -59.552234 
L 540.448451 -59.952031 
L 541.038595 -60.351829 
L 541.628738 -60.751627 
L 542.218882 -60.798162 
L 542.809025 -60.696297 
L 543.399169 -60.594432 
L 543.989312 -60.492567 
L 544.579456 -60.390703 
L 545.1696 -60.400027 
L 545.759743 -60.416764 
L 546.349887 -60.433501 
L 546.94003 -60.450238 
L 547.530174 -60.466976 
L 548.120317 -60.483713 
L 548.710461 -60.50045 
L 549.300604 -60.254216 
L 549.890748 -59.936561 
L 550.480892 -59.618906 
L 551.071035 -59.857156 
L 551.661179 -60.300718 
L 552.251322 -60.132366 
L 552.841466 -59.964014 
L 553.431609 -59.795663 
L 554.021753 -59.627311 
L 554.611896 -59.458959 
L 555.20204 -59.290608 
L 555.792183 -59.122256 
L 556.382327 -58.953904 
L 556.972471 -58.824929 
L 557.562614 -58.97159 
L 558.152758 -59.118251 
L 558.742901 -59.264912 
L 559.333045 -59.411573 
L 559.923188 -59.558234 
L 560.513332 -59.704895 
L 561.103475 -59.851556 
L 561.693619 -59.998217 
L 562.283763 -60.144878 
L 562.873906 -60.291539 
L 563.46405 -60.394575 
L 564.054193 -60.480541 
L 564.644337 -60.566507 
L 565.23448 -60.639622 
L 565.824624 -60.358854 
L 566.414767 -60.078086 
L 567.004911 -59.797318 
L 567.595055 -59.516551 
L 568.185198 -59.235783 
L 568.775342 -58.955015 
L 569.365485 -59.302192 
L 569.955629 -60.083623 
L 570.545772 -60.865054 
L 571.135916 -61.646485 
L 571.726059 -62.348647 
L 572.316203 -62.608654 
L 572.906347 -62.86866 
L 573.49649 -62.991212 
L 574.086634 -62.463873 
L 574.676777 -61.936535 
L 575.266921 -61.409196 
L 575.857064 -62.04143 
L 576.447208 -62.793618 
L 577.037351 -63.300565 
L 577.627495 -63.082932 
L 578.217638 -62.865298 
L 578.807782 -62.647665 
L 579.397926 -62.003049 
L 579.988069 -61.252032 
L 580.578213 -60.501014 
L 581.168356 -59.749997 
L 581.7585 -59.349941 
L 582.348643 -59.300845 
L 582.938787 -59.25175 
L 583.52893 -59.202654 
L 584.119074 -59.153559 
L 584.709218 -59.104463 
L 585.299361 -59.055367 
L 585.889505 -59.006272 
L 586.479648 -58.957176 
L 587.069792 -58.908081 
L 587.659935 -58.695728 
L 588.250079 -59.493596 
L 588.840222 -59.521826 
L 589.430366 -59.550055 
L 590.02051 -59.578284 
L 590.610653 -59.606514 
L 591.200797 -59.634743 
L 591.79094 -59.662972 
L 592.381084 -59.691202 
L 592.971227 -59.719431 
L 593.561371 -59.74766 
L 594.151514 -59.784837 
L 594.741658 -59.826081 
L 595.331802 -59.867325 
L 595.921945 -59.908568 
L 596.512089 -59.949812 
L 597.102232 -59.991056 
L 597.692376 -60.0323 
L 598.282519 -60.073543 
L 598.872663 -60.114787 
L 599.462806 -60.156031 
L 600.05295 -59.239415 
L 600.643093 -59.271152 
L 601.233237 -59.302888 
L 601.823381 -59.334624 
L 602.413524 -59.36636 
L 603.003668 -59.398096 
L 603.593811 -59.429832 
L 604.183955 -59.461568 
L 604.774098 -59.493305 
L 605.364242 -59.525041 
L 605.954385 -59.556777 
L 606.544529 -59.901937 
L 607.134673 -59.83692 
L 607.724816 -59.771902 
L 608.31496 -59.706885 
L 608.905103 -59.641868 
L 609.495247 -59.57685 
L 610.08539 -59.511833 
L 610.675534 -59.446815 
L 611.265677 -59.381798 
L 611.855821 -59.316781 
L 612.445965 -59.251778 
L 613.036108 -59.236282 
L 613.626252 -59.204991 
L 614.216395 -59.1737 
L 614.806539 -59.14241 
L 615.396682 -59.111119 
L 615.986826 -59.079828 
L 616.576969 -59.048537 
L 617.167113 -59.017246 
L 617.757257 -58.985955 
L 618.3474 -58.959252 
L 618.937544 -59.001363 
L 619.527687 -59.043473 
L 620.117831 -59.085584 
L 620.707974 -59.127694 
L 621.298118 -59.169805 
L 621.888261 -59.211915 
L 622.478405 -59.121395 
L 623.068548 -59.004878 
L 623.658692 -58.888362 
L 624.248836 -58.771845 
L 624.838979 -58.741798 
L 625.429123 -58.757043 
L 626.019266 -58.772289 
L 626.60941 -58.787535 
L 627.199553 -58.802781 
L 627.789697 -58.818026 
L 628.37984 -58.833272 
L 628.969984 -58.848518 
L 629.560128 -58.863763 
L 630.150271 -58.879009 
L 630.740415 -58.892127 
L 631.330558 -58.898862 
L 631.920702 -58.905597 
L 632.510845 -58.912332 
L 633.100989 -58.919067 
L 633.691132 -58.925802 
L 634.281276 -58.932537 
L 634.87142 -58.939272 
L 635.461563 -58.946007 
L 636.051707 -58.952742 
L 636.64185 -58.810644 
L 637.231994 -58.817156 
L 637.822137 -58.814235 
L 638.412281 -58.788847 
L 639.002424 -58.763459 
L 639.592568 -58.73807 
L 640.182712 -58.712682 
L 640.772855 -58.687294 
L 641.362999 -58.661906 
L 641.953142 -58.636517 
L 642.543286 -58.611129 
L 643.133429 -58.602044 
L 643.723573 -58.61392 
L 644.313716 -58.625796 
L 644.90386 -58.637672 
L 645.494003 -58.649548 
L 646.084147 -58.661424 
L 646.674291 -58.6733 
L 647.264434 -58.685176 
L 647.854578 -58.697052 
L 648.444721 -58.708928 
L 649.034865 -58.719889 
L 649.625008 -58.702493 
L 650.215152 -58.685097 
L 650.805295 -58.667701 
L 651.395439 -58.650305 
L 651.985583 -58.632909 
L 652.575726 -58.615513 
L 653.16587 -58.598117 
L 653.756013 -58.580721 
L 654.346157 -58.563325 
L 654.9363 -58.545929 
L 655.526444 -58.540306 
L 656.116587 -58.541745 
L 656.706731 -58.543185 
L 657.296875 -58.544625 
L 657.887018 -58.546065 
L 658.477162 -58.547505 
L 659.067305 -58.548945 
L 659.657449 -58.550385 
L 660.247592 -58.551825 
L 660.837736 -58.553265 
L 661.427879 -58.55263 
L 662.018023 -58.567588 
L 662.608167 -58.578417 
L 663.19831 -58.589245 
L 663.788454 -58.600074 
L 664.378597 -58.610903 
L 664.968741 -58.621732 
L 665.558884 -58.632561 
L 666.149028 -58.643389 
L 666.739171 -58.654218 
L 667.329315 -58.665047 
L 667.919458 -58.658413 
L 668.509602 -58.647748 
L 669.099746 -58.637084 
L 669.689889 -58.626419 
L 670.280033 -58.615755 
L 670.870176 -58.605091 
L 671.46032 -58.594426 
L 672.050463 -58.583762 
L 672.640607 -58.573098 
L 673.23075 -58.562433 
L 673.820894 -58.555189 
L 674.411038 -58.552943 
L 675.001181 -58.550696 
L 675.591325 -58.54845 
L 676.181468 -58.546204 
L 676.771612 -58.543958 
L 677.361755 -58.541712 
L 677.951899 -58.539466 
L 678.542042 -58.53722 
L 679.132186 -58.534973 
L 679.72233 -58.532727 
L 679.72233 -69.788709 
L 679.72233 -69.788709 
L 679.132186 -72.47288 
L 678.542042 -80.933866 
L 677.951899 -89.394852 
L 677.361755 -97.855838 
L 676.771612 -106.316824 
L 676.181468 -114.77781 
L 675.591325 -123.238796 
L 675.001181 -131.699782 
L 674.411038 -140.160768 
L 673.820894 -148.621754 
L 673.23075 -147.197553 
L 672.640607 -139.009803 
L 672.050463 -130.822052 
L 671.46032 -122.634302 
L 670.870176 -114.446552 
L 670.280033 -106.258801 
L 669.689889 -98.071051 
L 669.099746 -89.883301 
L 668.509602 -85.720203 
L 667.919458 -86.80891 
L 667.329315 -87.878236 
L 666.739171 -88.863575 
L 666.149028 -89.848913 
L 665.558884 -90.834252 
L 664.968741 -91.81959 
L 664.378597 -92.804929 
L 663.788454 -93.790268 
L 663.19831 -94.775606 
L 662.608167 -95.760945 
L 662.018023 -96.746284 
L 661.427879 -97.731622 
L 660.837736 -96.142328 
L 660.247592 -93.832137 
L 659.657449 -91.521947 
L 659.067305 -93.361417 
L 658.477162 -96.777093 
L 657.887018 -100.192769 
L 657.296875 -103.608445 
L 656.706731 -107.024122 
L 656.116587 -110.439798 
L 655.526444 -113.855474 
L 654.9363 -118.677196 
L 654.346157 -125.842328 
L 653.756013 -133.007459 
L 653.16587 -140.172591 
L 652.575726 -147.337723 
L 651.985583 -154.502854 
L 651.395439 -161.667986 
L 650.805295 -168.833117 
L 650.215152 -175.998249 
L 649.625008 -183.16338 
L 649.034865 -190.328512 
L 648.444721 -184.894844 
L 647.854578 -179.054764 
L 647.264434 -173.214683 
L 646.674291 -167.374602 
L 646.084147 -161.534522 
L 645.494003 -155.694441 
L 644.90386 -149.854361 
L 644.313716 -144.01428 
L 643.723573 -138.174199 
L 643.133429 -132.334119 
L 642.543286 -131.402929 
L 641.953142 -134.289765 
L 641.362999 -137.176601 
L 640.772855 -140.063438 
L 640.182712 -142.950274 
L 639.592568 -145.83711 
L 639.002424 -148.723946 
L 638.412281 -151.610782 
L 637.822137 -154.497619 
L 637.231994 -157.384455 
L 636.64185 -161.276022 
L 636.051707 -170.593136 
L 635.461563 -179.910251 
L 634.87142 -189.227365 
L 634.281276 -198.544479 
L 633.691132 -207.861594 
L 633.100989 -217.178708 
L 632.510845 -226.495823 
L 631.920702 -235.812937 
L 631.330558 -245.130051 
L 630.740415 -254.447166 
L 630.150271 -246.407707 
L 629.560128 -232.582724 
L 628.969984 -218.757741 
L 628.37984 -204.932758 
L 627.789697 -191.107775 
L 627.199553 -177.282792 
L 626.60941 -163.457809 
L 626.019266 -149.632826 
L 625.429123 -135.807843 
L 624.838979 -126.58294 
L 624.248836 -127.445113 
L 623.658692 -125.378281 
L 623.068548 -128.786306 
L 622.478405 -132.194332 
L 621.888261 -135.602357 
L 621.298118 -141.404163 
L 620.707974 -148.05127 
L 620.117831 -154.698378 
L 619.527687 -161.345486 
L 618.937544 -167.992593 
L 618.3474 -175.400334 
L 617.757257 -172.667748 
L 617.167113 -170.12119 
L 616.576969 -167.574633 
L 615.986826 -171.570454 
L 615.396682 -176.920735 
L 614.806539 -182.271015 
L 614.216395 -187.621295 
L 613.626252 -196.454269 
L 613.036108 -206.497044 
L 612.445965 -216.539818 
L 611.855821 -214.812834 
L 611.265677 -202.700769 
L 610.675534 -190.588704 
L 610.08539 -178.476638 
L 609.495247 -166.364573 
L 608.905103 -154.252508 
L 608.31496 -157.669962 
L 607.724816 -168.595055 
L 607.134673 -179.520147 
L 606.544529 -190.44524 
L 605.954385 -198.574237 
L 605.364242 -187.130565 
L 604.774098 -175.686894 
L 604.183955 -164.243223 
L 603.593811 -165.653933 
L 603.003668 -176.765674 
L 602.413524 -187.877415 
L 601.823381 -198.989156 
L 601.233237 -210.100897 
L 600.643093 -221.212638 
L 600.05295 -232.324379 
L 599.462806 -230.183845 
L 598.872663 -222.857638 
L 598.282519 -215.531431 
L 597.692376 -208.205224 
L 597.102232 -200.879017 
L 596.512089 -193.55281 
L 595.921945 -186.226603 
L 595.331802 -181.829394 
L 594.741658 -187.638393 
L 594.151514 -199.073913 
L 593.561371 -203.458976 
L 592.971227 -192.333035 
L 592.381084 -181.207094 
L 591.79094 -180.506246 
L 591.200797 -183.450882 
L 590.610653 -190.657586 
L 590.02051 -206.802962 
L 589.430366 -222.948337 
L 588.840222 -239.093713 
L 588.250079 -255.239089 
L 587.659935 -271.384465 
L 587.069792 -263.023602 
L 586.479648 -252.127611 
L 585.889505 -241.231621 
L 585.299361 -230.33563 
L 584.709218 -219.439639 
L 584.119074 -208.543649 
L 583.52893 -201.385153 
L 582.938787 -208.648696 
L 582.348643 -215.91224 
L 581.7585 -223.175783 
L 581.168356 -220.605742 
L 580.578213 -208.202117 
L 579.988069 -195.798492 
L 579.397926 -183.394866 
L 578.807782 -175.064332 
L 578.217638 -176.214056 
L 577.627495 -185.06738 
L 577.037351 -193.920703 
L 576.447208 -202.774027 
L 575.857064 -211.627351 
L 575.266921 -219.70472 
L 574.676777 -220.281205 
L 574.086634 -220.857689 
L 573.49649 -221.434173 
L 572.906347 -222.010658 
L 572.316203 -222.587142 
L 571.726059 -223.163626 
L 571.135916 -223.740111 
L 570.545772 -224.316595 
L 569.955629 -232.965403 
L 569.365485 -243.361493 
L 568.775342 -240.225759 
L 568.185198 -230.939195 
L 567.595055 -221.652632 
L 567.004911 -212.366068 
L 566.414767 -203.079505 
L 565.824624 -193.792941 
L 565.23448 -195.063859 
L 564.644337 -207.515359 
L 564.054193 -221.081441 
L 563.46405 -237.895433 
L 562.873906 -246.785709 
L 562.283763 -235.42649 
L 561.693619 -224.06727 
L 561.103475 -214.223415 
L 560.513332 -213.794527 
L 559.923188 -230.970924 
L 559.333045 -248.147321 
L 558.742901 -265.323718 
L 558.152758 -282.500115 
L 557.562614 -299.676511 
L 556.972471 -316.852908 
L 556.382327 -301.967692 
L 555.792183 -282.502246 
L 555.20204 -263.0368 
L 554.611896 -243.571354 
L 554.021753 -224.105907 
L 553.431609 -204.640461 
L 552.841466 -206.367621 
L 552.251322 -224.528355 
L 551.661179 -242.689089 
L 551.071035 -260.849823 
L 550.480892 -263.810448 
L 549.890748 -249.544283 
L 549.300604 -235.278118 
L 548.710461 -221.011953 
L 548.120317 -213.087007 
L 547.530174 -212.652369 
L 546.94003 -212.21773 
L 546.349887 -213.431042 
L 545.759743 -226.189628 
L 545.1696 -238.948215 
L 544.579456 -250.698662 
L 543.989312 -247.327024 
L 543.399169 -243.955386 
L 542.809025 -240.583748 
L 542.218882 -237.212109 
L 541.628738 -233.840471 
L 541.038595 -253.366359 
L 540.448451 -275.028367 
L 539.858308 -296.690375 
L 539.268164 -318.352384 
L 538.67802 -340.014392 
L 538.087877 -332.415769 
L 537.497733 -309.490148 
L 536.90759 -286.564527 
L 536.317446 -263.638906 
L 535.727303 -240.713286 
L 535.137159 -237.306184 
L 534.547016 -241.104267 
L 533.956872 -246.229665 
L 533.366728 -264.762701 
L 532.776585 -283.295736 
L 532.186441 -294.511497 
L 531.596298 -283.775433 
L 531.006154 -273.039369 
L 530.416011 -262.303305 
L 529.825867 -251.567241 
L 529.235724 -240.831177 
L 528.64558 -230.095113 
L 528.055437 -219.359048 
L 527.465293 -212.740601 
L 526.875149 -222.131708 
L 526.285006 -231.522815 
L 525.694862 -230.323794 
L 525.104719 -227.163637 
L 524.514575 -224.003481 
L 523.924432 -220.843325 
L 523.334288 -219.2066 
L 522.744145 -229.076913 
L 522.154001 -238.947226 
L 521.563857 -248.817539 
L 520.973714 -258.687851 
L 520.38357 -268.558164 
L 519.793427 -267.225636 
L 519.203283 -251.489456 
L 518.61314 -235.753276 
L 518.022996 -237.095828 
L 517.432853 -247.209738 
L 516.842709 -257.323648 
L 516.252565 -267.437558 
L 515.662422 -277.551468 
L 515.072278 -287.665378 
L 514.482135 -297.779288 
L 513.891991 -307.494138 
L 513.301848 -304.838144 
L 512.711704 -302.18215 
L 512.121561 -299.526155 
L 511.531417 -296.870161 
L 510.941273 -294.214167 
L 510.35113 -291.558173 
L 509.760986 -288.902178 
L 509.170843 -286.246184 
L 508.580699 -283.59019 
L 507.990556 -280.934196 
L 507.400412 -279.14119 
L 506.810269 -277.865977 
L 506.220125 -276.590763 
L 505.629982 -275.31555 
L 505.039838 -274.040337 
L 504.449694 -272.765124 
L 503.859551 -271.489911 
L 503.269407 -270.214698 
L 502.679264 -268.939485 
L 502.08912 -267.664272 
L 501.498977 -270.209208 
L 500.908833 -255.599428 
L 500.31869 -240.989649 
L 499.728546 -226.37987 
L 499.138402 -215.370273 
L 498.548259 -221.871297 
L 497.958115 -228.372322 
L 497.367972 -234.873346 
L 496.777828 -241.374371 
L 496.187685 -247.875395 
L 495.597541 -254.37642 
L 495.007398 -253.954832 
L 494.417254 -251.935718 
L 493.82711 -249.916604 
L 493.236967 -247.89749 
L 492.646823 -245.878376 
L 492.05668 -243.859262 
L 491.466536 -241.840148 
L 490.876393 -239.821034 
L 490.286249 -237.80192 
L 489.696106 -243.662415 
L 489.105962 -247.485162 
L 488.515818 -241.155702 
L 487.925675 -234.826241 
L 487.335531 -228.496781 
L 486.745388 -222.16732 
L 486.155244 -219.272196 
L 485.565101 -227.578808 
L 484.974957 -235.885421 
L 484.384814 -246.595478 
L 483.79467 -258.661029 
L 483.204527 -270.726581 
L 482.614383 -252.443189 
L 482.024239 -243.76624 
L 481.434096 -235.246731 
L 480.843952 -226.727221 
L 480.253809 -218.207712 
L 479.663665 -209.688203 
L 479.073522 -204.204149 
L 478.483378 -213.725286 
L 477.893235 -223.246424 
L 477.303091 -232.767561 
L 476.712947 -231.084166 
L 476.122804 -221.734511 
L 475.53266 -212.384857 
L 474.942517 -205.782581 
L 474.352373 -205.408926 
L 473.76223 -205.035272 
L 473.172086 -204.661617 
L 472.581943 -204.287962 
L 471.991799 -209.360071 
L 471.401655 -219.524013 
L 470.811512 -226.02756 
L 470.221368 -216.669395 
L 469.631225 -207.31123 
L 469.041081 -209.135891 
L 468.450938 -211.061129 
L 467.860794 -212.986367 
L 467.270651 -214.911605 
L 466.680507 -216.836843 
L 466.090363 -218.762081 
L 465.50022 -220.68732 
L 464.910076 -222.612558 
L 464.319933 -224.686069 
L 463.729789 -226.801097 
L 463.139646 -228.916125 
L 462.549502 -231.031153 
L 461.959359 -233.146182 
L 461.369215 -249.558303 
L 460.779072 -271.806843 
L 460.188928 -294.055383 
L 459.598784 -316.303924 
L 459.008641 -338.552464 
L 458.418497 -347.724267 
L 457.828354 -335.101505 
L 457.23821 -322.478744 
L 456.648067 -309.855983 
L 456.057923 -297.233222 
L 455.46778 -284.61046 
L 454.877636 -271.987699 
L 454.287492 -259.364938 
L 453.697349 -246.742176 
L 453.107205 -237.78689 
L 452.517062 -245.126081 
L 451.926918 -237.931437 
L 451.336775 -230.267961 
L 450.746631 -222.604484 
L 450.156488 -214.941007 
L 449.566344 -207.27753 
L 448.9762 -207.817812 
L 448.386057 -220.120265 
L 447.795913 -232.422718 
L 447.20577 -244.725172 
L 446.615626 -257.027625 
L 446.025483 -257.591762 
L 445.435339 -249.026096 
L 444.845196 -240.460431 
L 444.255052 -231.894765 
L 443.664908 -223.3291 
L 443.074765 -214.763434 
L 442.484621 -226.469476 
L 441.894478 -242.500222 
L 441.304334 -258.530969 
L 440.714191 -274.561716 
L 440.124047 -285.023785 
L 439.533904 -265.414996 
L 438.94376 -245.806208 
L 438.353617 -226.197419 
L 437.763473 -206.58863 
L 437.173329 -210.432853 
L 436.583186 -216.281146 
L 435.993042 -222.129439 
L 435.402899 -227.977732 
L 434.812755 -243.0909 
L 434.222612 -260.154537 
L 433.632468 -251.686498 
L 433.042325 -240.341707 
L 432.452181 -236.046142 
L 431.862037 -231.750578 
L 431.271894 -227.455013 
L 430.68175 -223.159449 
L 430.091607 -218.863884 
L 429.501463 -214.56832 
L 428.91132 -210.272755 
L 428.321176 -205.97719 
L 427.731033 -202.97577 
L 427.140889 -202.44499 
L 426.550745 -201.91421 
L 425.960602 -203.416522 
L 425.370458 -206.820238 
L 424.780315 -210.223953 
L 424.190171 -214.044659 
L 423.600028 -220.732626 
L 423.009884 -227.420592 
L 422.419741 -234.108559 
L 421.829597 -240.796525 
L 421.239453 -232.066407 
L 420.64931 -226.72704 
L 420.059166 -226.988372 
L 419.469023 -227.249705 
L 418.878879 -227.511037 
L 418.288736 -227.772369 
L 417.698592 -230.778553 
L 417.108449 -242.634539 
L 416.518305 -254.490524 
L 415.928162 -266.34651 
L 415.338018 -266.242533 
L 414.747874 -255.585649 
L 414.157731 -244.928764 
L 413.567587 -246.818377 
L 412.977444 -251.881224 
L 412.3873 -256.944072 
L 411.797157 -262.006919 
L 411.207013 -267.069766 
L 410.61687 -272.132613 
L 410.026726 -277.195461 
L 409.436582 -279.762546 
L 408.846439 -264.859297 
L 408.256295 -249.956049 
L 407.666152 -235.0528 
L 407.076008 -220.149552 
L 406.485865 -209.583121 
L 405.895721 -219.771972 
L 405.305578 -229.960822 
L 404.715434 -240.149673 
L 404.12529 -256.608133 
L 403.535147 -274.315802 
L 402.945003 -264.656707 
L 402.35486 -244.288878 
L 401.764716 -223.921049 
L 401.174573 -215.078135 
L 400.584429 -219.52338 
L 399.994286 -225.207834 
L 399.404142 -230.892288 
L 398.813998 -236.576743 
L 398.223855 -242.261197 
L 397.633711 -248.799455 
L 397.043568 -252.83099 
L 396.453424 -239.991867 
L 395.863281 -227.152744 
L 395.273137 -216.385915 
L 394.682994 -213.562775 
L 394.09285 -210.739635 
L 393.502707 -207.916495 
L 392.912563 -210.666982 
L 392.322419 -214.470083 
L 391.732276 -218.273183 
L 391.142132 -222.148248 
L 390.551989 -217.588656 
L 389.961845 -219.859645 
L 389.371702 -226.047026 
L 388.781558 -232.234407 
L 388.191415 -238.421788 
L 387.601271 -244.609169 
L 387.011127 -250.79655 
L 386.420984 -262.244275 
L 385.83084 -277.887431 
L 385.240697 -293.530587 
L 384.650553 -294.556874 
L 384.06041 -280.966292 
L 383.470266 -267.375711 
L 382.880123 -253.785129 
L 382.289979 -240.194547 
L 381.699835 -226.603966 
L 381.109692 -216.882183 
L 380.519548 -216.342589 
L 379.929405 -215.802996 
L 379.339261 -221.966669 
L 378.749118 -227.374927 
L 378.158974 -222.18875 
L 377.568831 -221.13182 
L 376.978687 -224.168201 
L 376.388543 -227.204583 
L 375.7984 -230.240965 
L 375.208256 -233.277346 
L 374.618113 -236.313728 
L 374.027969 -245.525343 
L 373.437826 -255.982445 
L 372.847682 -266.439548 
L 372.257539 -272.064122 
L 371.667395 -275.492091 
L 371.077252 -278.92006 
L 370.487108 -282.348029 
L 369.896964 -285.775998 
L 369.306821 -289.203967 
L 368.716677 -292.631936 
L 368.126534 -296.059905 
L 367.53639 -299.487874 
L 366.946247 -302.915843 
L 366.356103 -299.999119 
L 365.76596 -289.664643 
L 365.175816 -280.576861 
L 364.585672 -271.489079 
L 363.995529 -262.401297 
L 363.405385 -253.313515 
L 362.815242 -244.225733 
L 362.225098 -235.137951 
L 361.634955 -235.113619 
L 361.044811 -248.202304 
L 360.454668 -267.157132 
L 359.864524 -270.272223 
L 359.27438 -275.27594 
L 358.684237 -280.279656 
L 358.094093 -285.283373 
L 357.50395 -290.287089 
L 356.913806 -295.290806 
L 356.323663 -300.294522 
L 355.733519 -305.298239 
L 355.143376 -310.301955 
L 354.553232 -315.305672 
L 353.963088 -312.437035 
L 353.372945 -300.646396 
L 352.782801 -288.855758 
L 352.192658 -277.06512 
L 351.602514 -265.274482 
L 351.012371 -253.483843 
L 350.422227 -241.693205 
L 349.832084 -241.566111 
L 349.24194 -254.388804 
L 348.651797 -267.211497 
L 348.061653 -278.572932 
L 347.471509 -268.015505 
L 346.881366 -257.458078 
L 346.291222 -246.900651 
L 345.701079 -236.343223 
L 345.110935 -225.785796 
L 344.520792 -224.759739 
L 343.930648 -223.761693 
L 343.340505 -222.763647 
L 342.750361 -221.765601 
L 342.160217 -220.767555 
L 341.570074 -219.950644 
L 340.97993 -219.228614 
L 340.389787 -218.506583 
L 339.799643 -217.784552 
L 339.2095 -217.062521 
L 338.619356 -219.944458 
L 338.029213 -236.263911 
L 337.439069 -252.583364 
L 336.848925 -268.902817 
L 336.258782 -285.22227 
L 335.668638 -294.81395 
L 335.078495 -284.222309 
L 334.488351 -273.630667 
L 333.898208 -263.039026 
L 333.308064 -252.447385 
L 332.717921 -241.855744 
L 332.127777 -231.264102 
L 331.537633 -221.819673 
L 330.94749 -238.166755 
L 330.357346 -254.513837 
L 329.767203 -270.860919 
L 329.177059 -259.804331 
L 328.586916 -243.672989 
L 327.996772 -227.541647 
L 327.406629 -211.410306 
L 326.816485 -203.329978 
L 326.226342 -205.562727 
L 325.636198 -216.380238 
L 325.046054 -227.19775 
L 324.455911 -238.015261 
L 323.865767 -248.832772 
L 323.275624 -251.33683 
L 322.68548 -243.152162 
L 322.095337 -238.239507 
L 321.505193 -240.927117 
L 320.91505 -243.614728 
L 320.324906 -246.302338 
L 319.734762 -248.989949 
L 319.144619 -251.677559 
L 318.554475 -254.36517 
L 317.964332 -257.05278 
L 317.374188 -259.402148 
L 316.784045 -251.265983 
L 316.193901 -243.129819 
L 315.603758 -236.298601 
L 315.013614 -258.254126 
L 314.42347 -280.20965 
L 313.833327 -302.165175 
L 313.243183 -324.120699 
L 312.65304 -346.076224 
L 312.062896 -368.031748 
L 311.472753 -389.987273 
L 310.882609 -381.731857 
L 310.292466 -355.349877 
L 309.702322 -328.967897 
L 309.112178 -302.585916 
L 308.522035 -276.203936 
L 307.931891 -249.821956 
L 307.341748 -241.657535 
L 306.751604 -248.436317 
L 306.161461 -255.215099 
L 305.571317 -261.993881 
L 304.981174 -265.913833 
L 304.39103 -259.623678 
L 303.800887 -259.063116 
L 303.210743 -259.787936 
L 302.620599 -260.512757 
L 302.030456 -261.237577 
L 301.440312 -261.962398 
L 300.850169 -273.339547 
L 300.260025 -289.321235 
L 299.669882 -305.302923 
L 299.079738 -321.28461 
L 298.489595 -319.168214 
L 297.899451 -312.875337 
L 297.309307 -306.58246 
L 296.719164 -300.289583 
L 296.12902 -293.996706 
L 295.538877 -287.703829 
L 294.948733 -281.410952 
L 294.35859 -275.118075 
L 293.768446 -268.825198 
L 293.178303 -262.532321 
L 292.588159 -258.296119 
L 291.998015 -257.065827 
L 291.407872 -255.835534 
L 290.817728 -254.605242 
L 290.227585 -265.185332 
L 289.637441 -277.415603 
L 289.047298 -289.645875 
L 288.457154 -301.876147 
L 287.867011 -314.106419 
L 287.276867 -326.336691 
L 286.686723 -338.566962 
L 286.09658 -321.063364 
L 285.506436 -303.559766 
L 284.916293 -289.132965 
L 284.326149 -289.911869 
L 283.736006 -290.690773 
L 283.145862 -291.469677 
L 282.555719 -292.248581 
L 281.965575 -293.027485 
L 281.375432 -293.806389 
L 280.785288 -294.585293 
L 280.195144 -295.522109 
L 279.605001 -296.56697 
L 279.014857 -297.611831 
L 278.424714 -298.656692 
L 277.83457 -299.701553 
L 277.244427 -300.746414 
L 276.654283 -301.791275 
L 276.06414 -302.836136 
L 275.473996 -303.880997 
L 274.883852 -304.925858 
L 274.293709 -302.304899 
L 273.703565 -283.798718 
L 273.113422 -265.292537 
L 272.523278 -246.786356 
L 271.933135 -233.504551 
L 271.342991 -230.935108 
L 270.752848 -232.567723 
L 270.162704 -239.945695 
L 269.57256 -252.126269 
L 268.982417 -264.306844 
L 268.392273 -281.116342 
L 267.80213 -278.635754 
L 267.211986 -269.418337 
L 266.621843 -260.20092 
L 266.031699 -250.983503 
L 265.441556 -241.766086 
L 264.851412 -232.548669 
L 264.261268 -233.188897 
L 263.671125 -237.916063 
L 263.080981 -242.643229 
L 262.490838 -247.370395 
L 261.900694 -246.06577 
L 261.310551 -234.70816 
L 260.720407 -226.146631 
L 260.130264 -225.031824 
L 259.54012 -223.917017 
L 258.949977 -222.80221 
L 258.359833 -221.687404 
L 257.769689 -228.46819 
L 257.179546 -239.025712 
L 256.589402 -249.583234 
L 255.999259 -260.140756 
L 255.409115 -253.797117 
L 254.818972 -246.908279 
L 254.228828 -240.019441 
L 253.638685 -233.130603 
L 253.048541 -226.241765 
L 252.458397 -219.352928 
L 251.868254 -212.46409 
L 251.27811 -211.287323 
L 250.687967 -222.491776 
L 250.097823 -236.541249 
L 249.50768 -236.720796 
L 248.917536 -226.112621 
L 248.327393 -216.988545 
L 247.737249 -217.472785 
L 247.147105 -217.957025 
L 246.556962 -218.441265 
L 245.966818 -218.925506 
L 245.376675 -232.533165 
L 244.786531 -254.462199 
L 244.196388 -276.391234 
L 243.606244 -295.022512 
L 243.016101 -295.845907 
L 242.425957 -296.669302 
L 241.835813 -297.492698 
L 241.24567 -298.316093 
L 240.655526 -299.139488 
L 240.065383 -299.962884 
L 239.475239 -300.786279 
L 238.885096 -321.970145 
L 238.294952 -353.238155 
L 237.704809 -384.506164 
L 237.114665 -371.621776 
L 236.524522 -344.019923 
L 235.934378 -316.418069 
L 235.344234 -288.816215 
L 234.754091 -275.192458 
L 234.163947 -275.64952 
L 233.573804 -276.106581 
L 232.98366 -276.563643 
L 232.393517 -277.020704 
L 231.803373 -283.471618 
L 231.21323 -289.793444 
L 230.623086 -284.416886 
L 230.032942 -280.121703 
L 229.442799 -281.299896 
L 228.852655 -286.093367 
L 228.262512 -290.886838 
L 227.672368 -295.68031 
L 227.082225 -300.473781 
L 226.492081 -305.267252 
L 225.901938 -310.060723 
L 225.311794 -314.854195 
L 224.72165 -297.572625 
L 224.131507 -278.819385 
L 223.541363 -262.669252 
L 222.95122 -257.103569 
L 222.361076 -251.537885 
L 221.770933 -245.972201 
L 221.180789 -255.539361 
L 220.590646 -272.430846 
L 220.000502 -289.322331 
L 219.410358 -306.213816 
L 218.820215 -306.020853 
L 218.230071 -290.753377 
L 217.639928 -275.485902 
L 217.049784 -267.615324 
L 216.459641 -267.205061 
L 215.869497 -266.794797 
L 215.279354 -266.384534 
L 214.68921 -265.974271 
L 214.099067 -270.301783 
L 213.508923 -276.06896 
L 212.918779 -279.366254 
L 212.328636 -265.374365 
L 211.738492 -251.382476 
L 211.148349 -237.390587 
L 210.558205 -228.421602 
L 209.968062 -226.36155 
L 209.377918 -224.301498 
L 208.787775 -222.241447 
L 208.197631 -220.181395 
L 207.607487 -218.609666 
L 207.017344 -227.933847 
L 206.4272 -223.688293 
L 205.837057 -215.914857 
L 205.246913 -216.166759 
L 204.65677 -217.926189 
L 204.066626 -223.079496 
L 203.476483 -241.636815 
L 202.886339 -260.194135 
L 202.296195 -278.751454 
L 201.706052 -297.308774 
L 201.115908 -315.866093 
L 200.525765 -326.377586 
L 199.935621 -319.188258 
L 199.345478 -311.99893 
L 198.755334 -304.809603 
L 198.165191 -297.620275 
L 197.575047 -290.430948 
L 196.984903 -283.24162 
L 196.39476 -276.052292 
L 195.804616 -270.432136 
L 195.214473 -275.322546 
L 194.624329 -280.212955 
L 194.034186 -267.888365 
L 193.444042 -255.183393 
L 192.853899 -248.730293 
L 192.263755 -242.277192 
L 191.673612 -235.824092 
L 191.083468 -229.370991 
L 190.493324 -230.273859 
L 189.903181 -234.557348 
L 189.313037 -240.469172 
L 188.722894 -252.929296 
L 188.13275 -255.721739 
L 187.542607 -248.846503 
L 186.952463 -241.971266 
L 186.36232 -235.09603 
L 185.772176 -228.220793 
L 185.182032 -221.345557 
L 184.591889 -216.608364 
L 184.001745 -215.947461 
L 183.411602 -220.959677 
L 182.821458 -228.214279 
L 182.231315 -234.67791 
L 181.641171 -233.495483 
L 181.051028 -232.313057 
L 180.460884 -231.377232 
L 179.87074 -238.052502 
L 179.280597 -247.182866 
L 178.690453 -258.517907 
L 178.10031 -272.545259 
L 177.510166 -294.460198 
L 176.920023 -316.375136 
L 176.329879 -338.290075 
L 175.739736 -341.944715 
L 175.149592 -337.299221 
L 174.559448 -332.653726 
L 173.969305 -328.008231 
L 173.379161 -323.362736 
L 172.789018 -318.717241 
L 172.198874 -314.071747 
L 171.608731 -309.426252 
L 171.018587 -304.780757 
L 170.428444 -300.135262 
L 169.8383 -295.728745 
L 169.248157 -291.932947 
L 168.658013 -288.137149 
L 168.067869 -284.341352 
L 167.477726 -280.545554 
L 166.887582 -276.749756 
L 166.297439 -272.953959 
L 165.707295 -269.158161 
L 165.117152 -265.362363 
L 164.527008 -261.566566 
L 163.936865 -258.041012 
L 163.346721 -261.075207 
L 162.756577 -262.269886 
L 162.166434 -263.464564 
L 161.57629 -264.659242 
L 160.986147 -265.853921 
L 160.396003 -267.048599 
L 159.80586 -268.243277 
L 159.215716 -269.437955 
L 158.625573 -270.632634 
L 158.035429 -271.827312 
L 157.445285 -265.245034 
L 156.855142 -250.821318 
L 156.264998 -237.441607 
L 155.674855 -232.212191 
L 155.084711 -226.982774 
L 154.494568 -221.753358 
L 153.904424 -231.069013 
L 153.314281 -247.856007 
L 152.724137 -264.643001 
L 152.133993 -281.429995 
L 151.54385 -296.540063 
L 150.953706 -286.496241 
L 150.363563 -276.45242 
L 149.773419 -266.408599 
L 149.183276 -256.364777 
L 148.593132 -246.320956 
L 148.002989 -236.277135 
L 147.412845 -232.570419 
L 146.822702 -240.310017 
L 146.232558 -248.049615 
L 145.642414 -255.789213 
L 145.052271 -249.892356 
L 144.462127 -236.852594 
L 143.871984 -223.812832 
L 143.28184 -210.77307 
L 142.691697 -204.474099 
L 142.101553 -213.279449 
L 141.51141 -222.0848 
L 140.921266 -230.89015 
L 140.331122 -239.695501 
L 139.740979 -248.500851 
L 139.150835 -252.809259 
L 138.560692 -243.626837 
L 137.970548 -234.444415 
L 137.380405 -230.779494 
L 136.790261 -229.76499 
L 136.200118 -228.750486 
L 135.609974 -237.531653 
L 135.01983 -248.429341 
L 134.429687 -259.327028 
L 133.839543 -270.224716 
L 133.2494 -281.122404 
L 132.659256 -265.026387 
L 132.069113 -243.931535 
L 131.478969 -232.662446 
L 130.888826 -228.352411 
L 130.298682 -224.042376 
L 129.708538 -219.732341 
L 129.118395 -215.422306 
L 128.528251 -219.945345 
L 127.938108 -235.848348 
L 127.347964 -251.751351 
L 126.757821 -255.476169 
L 126.167677 -243.543322 
L 125.577534 -231.610475 
L 124.98739 -219.677629 
L 124.397247 -224.046558 
L 123.807103 -235.645152 
L 123.216959 -251.651423 
L 122.626816 -271.356741 
L 122.036672 -291.06206 
L 121.446529 -310.767378 
L 120.856385 -329.242332 
L 120.266242 -309.575975 
L 119.676098 -289.909617 
L 119.085955 -270.24326 
L 118.495811 -250.576902 
L 117.905667 -230.910545 
L 117.315524 -231.053653 
L 116.72538 -245.833884 
L 116.135237 -260.614115 
L 115.545093 -275.394346 
L 114.95495 -290.174577 
L 114.364806 -286.99691 
L 113.774663 -273.044505 
L 113.184519 -259.0921 
L 112.594375 -245.139695 
L 112.004232 -231.18729 
L 111.414088 -217.234885 
L 110.823945 -203.28248 
L 110.233801 -202.142768 
L 109.643658 -205.034215 
L 109.053514 -207.925662 
L 108.463371 -211.621258 
L 107.873227 -216.513831 
L 107.283083 -221.406403 
L 106.69294 -226.298976 
L 106.102796 -231.191549 
L 105.512653 -236.084121 
L 104.922509 -240.976694 
L 104.332366 -245.869266 
L 103.742222 -250.761839 
L 103.152079 -255.654411 
L 102.561935 -260.546984 
L 101.971792 -250.540737 
L 101.381648 -237.096302 
L 100.791504 -223.651866 
L 100.201361 -210.20743 
L 99.611217 -196.762994 
L 99.021074 -183.318559 
L 98.43093 -181.336367 
L 97.840787 -186.546395 
L 97.250643 -191.756423 
L 96.6605 -201.131089 
L 96.070356 -209.738514 
L 95.480212 -210.232349 
L 94.890069 -210.726185 
L 94.299925 -211.220021 
L 93.709782 -211.713857 
L 93.119638 -212.207692 
L 92.529495 -222.064275 
L 91.939351 -236.638206 
L 91.349208 -251.212137 
L 90.759064 -265.786068 
L 90.16892 -280.36 
z
" style="stroke: #00008b; stroke-opacity: 0.3"/>
    </defs>
    <g clip-path="url(#paa1ffe80df)">
     <use xlink:href="#mb8c6cb465d" x="0" y="432" style="fill: #00008b; fill-opacity: 0.3; stroke: #00008b; stroke-opacity: 0.3"/>
    </g>
   </g>
   <g id="matplotlib.axis_1">
    <g id="xtick_1">
     <g id="line2d_1">
      <defs>
       <path id="m56d44f0768" d="M 0 0 
L 0 3.5 
" style="stroke: #000000; stroke-width: 0.8"/>
      </defs>
      <g>
       <use xlink:href="#m56d44f0768" x="84.027739" y="390.04" style="stroke: #000000; stroke-width: 0.8"/>
      </g>
     </g>
     <g id="text_1">
      <!-- 0 -->
      <g transform="translate(80.846489 404.638438) scale(0.1 -0.1)">
       <defs>
        <path id="DejaVuSans-30" d="M 2034 4250 
Q 1547 4250 1301 3770 
Q 1056 3291 1056 2328 
Q 1056 1369 1301 889 
Q 1547 409 2034 409 
Q 2525 409 2770 889 
Q 3016 1369 3016 2328 
Q 3016 3291 2770 3770 
Q 2525 4250 2034 4250 
z
M 2034 4750 
Q 2819 4750 3233 4129 
Q 3647 3509 3647 2328 
Q 3647 1150 3233 529 
Q 2819 -91 2034 -91 
Q 1250 -91 836 529 
Q 422 1150 422 2328 
Q 422 3509 836 4129 
Q 1250 4750 2034 4750 
z
" transform="scale(0.015625)"/>
       </defs>
       <use xlink:href="#DejaVuSans-30"/>
      </g>
     </g>
    </g>
    <g id="xtick_2">
     <g id="line2d_2">
      <g>
       <use xlink:href="#m56d44f0768" x="203.972687" y="390.04" style="stroke: #000000; stroke-width: 0.8"/>
      </g>
     </g>
     <g id="text_2">
      <!-- 20000 -->
      <g transform="translate(188.066437 404.638438) scale(0.1 -0.1)">
       <defs>
        <path id="DejaVuSans-32" d="M 1228 531 
L 3431 531 
L 3431 0 
L 469 0 
L 469 531 
Q 828 903 1448 1529 
Q 2069 2156 2228 2338 
Q 2531 2678 2651 2914 
Q 2772 3150 2772 3378 
Q 2772 3750 2511 3984 
Q 2250 4219 1831 4219 
Q 1534 4219 1204 4116 
Q 875 4013 500 3803 
L 500 4441 
Q 881 4594 1212 4672 
Q 1544 4750 1819 4750 
Q 2544 4750 2975 4387 
Q 3406 4025 3406 3419 
Q 3406 3131 3298 2873 
Q 3191 2616 2906 2266 
Q 2828 2175 2409 1742 
Q 1991 1309 1228 531 
z
" transform="scale(0.015625)"/>
       </defs>
       <use xlink:href="#DejaVuSans-32"/>
       <use xlink:href="#DejaVuSans-30" transform="translate(63.623047 0)"/>
       <use xlink:href="#DejaVuSans-30" transform="translate(127.246094 0)"/>
       <use xlink:href="#DejaVuSans-30" transform="translate(190.869141 0)"/>
       <use xlink:href="#DejaVuSans-30" transform="translate(254.492188 0)"/>
      </g>
     </g>
    </g>
    <g id="xtick_3">
     <g id="line2d_3">
      <g>
       <use xlink:href="#m56d44f0768" x="323.917635" y="390.04" style="stroke: #000000; stroke-width: 0.8"/>
      </g>
     </g>
     <g id="text_3">
      <!-- 40000 -->
      <g transform="translate(308.011385 404.638438) scale(0.1 -0.1)">
       <defs>
        <path id="DejaVuSans-34" d="M 2419 4116 
L 825 1625 
L 2419 1625 
L 2419 4116 
z
M 2253 4666 
L 3047 4666 
L 3047 1625 
L 3713 1625 
L 3713 1100 
L 3047 1100 
L 3047 0 
L 2419 0 
L 2419 1100 
L 313 1100 
L 313 1709 
L 2253 4666 
z
" transform="scale(0.015625)"/>
       </defs>
       <use xlink:href="#DejaVuSans-34"/>
       <use xlink:href="#DejaVuSans-30" transform="translate(63.623047 0)"/>
       <use xlink:href="#DejaVuSans-30" transform="translate(127.246094 0)"/>
       <use xlink:href="#DejaVuSans-30" transform="translate(190.869141 0)"/>
       <use xlink:href="#DejaVuSans-30" transform="translate(254.492188 0)"/>
      </g>
     </g>
    </g>
    <g id="xtick_4">
     <g id="line2d_4">
      <g>
       <use xlink:href="#m56d44f0768" x="443.862584" y="390.04" style="stroke: #000000; stroke-width: 0.8"/>
      </g>
     </g>
     <g id="text_4">
      <!-- 60000 -->
      <g transform="translate(427.956334 404.638438) scale(0.1 -0.1)">
       <defs>
        <path id="DejaVuSans-36" d="M 2113 2584 
Q 1688 2584 1439 2293 
Q 1191 2003 1191 1497 
Q 1191 994 1439 701 
Q 1688 409 2113 409 
Q 2538 409 2786 701 
Q 3034 994 3034 1497 
Q 3034 2003 2786 2293 
Q 2538 2584 2113 2584 
z
M 3366 4563 
L 3366 3988 
Q 3128 4100 2886 4159 
Q 2644 4219 2406 4219 
Q 1781 4219 1451 3797 
Q 1122 3375 1075 2522 
Q 1259 2794 1537 2939 
Q 1816 3084 2150 3084 
Q 2853 3084 3261 2657 
Q 3669 2231 3669 1497 
Q 3669 778 3244 343 
Q 2819 -91 2113 -91 
Q 1303 -91 875 529 
Q 447 1150 447 2328 
Q 447 3434 972 4092 
Q 1497 4750 2381 4750 
Q 2619 4750 2861 4703 
Q 3103 4656 3366 4563 
z
" transform="scale(0.015625)"/>
       </defs>
       <use xlink:href="#DejaVuSans-36"/>
       <use xlink:href="#DejaVuSans-30" transform="translate(63.623047 0)"/>
       <use xlink:href="#DejaVuSans-30" transform="translate(127.246094 0)"/>
       <use xlink:href="#DejaVuSans-30" transform="translate(190.869141 0)"/>
       <use xlink:href="#DejaVuSans-30" transform="translate(254.492188 0)"/>
      </g>
     </g>
    </g>
    <g id="xtick_5">
     <g id="line2d_5">
      <g>
       <use xlink:href="#m56d44f0768" x="563.807532" y="390.04" style="stroke: #000000; stroke-width: 0.8"/>
      </g>
     </g>
     <g id="text_5">
      <!-- 80000 -->
      <g transform="translate(547.901282 404.638438) scale(0.1 -0.1)">
       <defs>
        <path id="DejaVuSans-38" d="M 2034 2216 
Q 1584 2216 1326 1975 
Q 1069 1734 1069 1313 
Q 1069 891 1326 650 
Q 1584 409 2034 409 
Q 2484 409 2743 651 
Q 3003 894 3003 1313 
Q 3003 1734 2745 1975 
Q 2488 2216 2034 2216 
z
M 1403 2484 
Q 997 2584 770 2862 
Q 544 3141 544 3541 
Q 544 4100 942 4425 
Q 1341 4750 2034 4750 
Q 2731 4750 3128 4425 
Q 3525 4100 3525 3541 
Q 3525 3141 3298 2862 
Q 3072 2584 2669 2484 
Q 3125 2378 3379 2068 
Q 3634 1759 3634 1313 
Q 3634 634 3220 271 
Q 2806 -91 2034 -91 
Q 1263 -91 848 271 
Q 434 634 434 1313 
Q 434 1759 690 2068 
Q 947 2378 1403 2484 
z
M 1172 3481 
Q 1172 3119 1398 2916 
Q 1625 2713 2034 2713 
Q 2441 2713 2670 2916 
Q 2900 3119 2900 3481 
Q 2900 3844 2670 4047 
Q 2441 4250 2034 4250 
Q 1625 4250 1398 4047 
Q 1172 3844 1172 3481 
z
" transform="scale(0.015625)"/>
       </defs>
       <use xlink:href="#DejaVuSans-38"/>
       <use xlink:href="#DejaVuSans-30" transform="translate(63.623047 0)"/>
       <use xlink:href="#DejaVuSans-30" transform="translate(127.246094 0)"/>
       <use xlink:href="#DejaVuSans-30" transform="translate(190.869141 0)"/>
       <use xlink:href="#DejaVuSans-30" transform="translate(254.492188 0)"/>
      </g>
     </g>
    </g>
    <g id="xtick_6">
     <g id="line2d_6">
      <g>
       <use xlink:href="#m56d44f0768" x="683.75248" y="390.04" style="stroke: #000000; stroke-width: 0.8"/>
      </g>
     </g>
     <g id="text_6">
      <!-- 100000 -->
      <g transform="translate(664.66498 404.638438) scale(0.1 -0.1)">
       <defs>
        <path id="DejaVuSans-31" d="M 794 531 
L 1825 531 
L 1825 4091 
L 703 3866 
L 703 4441 
L 1819 4666 
L 2450 4666 
L 2450 531 
L 3481 531 
L 3481 0 
L 794 0 
L 794 531 
z
" transform="scale(0.015625)"/>
       </defs>
       <use xlink:href="#DejaVuSans-31"/>
       <use xlink:href="#DejaVuSans-30" transform="translate(63.623047 0)"/>
       <use xlink:href="#DejaVuSans-30" transform="translate(127.246094 0)"/>
       <use xlink:href="#DejaVuSans-30" transform="translate(190.869141 0)"/>
       <use xlink:href="#DejaVuSans-30" transform="translate(254.492188 0)"/>
       <use xlink:href="#DejaVuSans-30" transform="translate(318.115234 0)"/>
      </g>
     </g>
    </g>
    <g id="text_7">
     <!-- Step -->
     <g transform="translate(373.560469 418.316562) scale(0.1 -0.1)">
      <defs>
       <path id="DejaVuSans-53" d="M 3425 4513 
L 3425 3897 
Q 3066 4069 2747 4153 
Q 2428 4238 2131 4238 
Q 1616 4238 1336 4038 
Q 1056 3838 1056 3469 
Q 1056 3159 1242 3001 
Q 1428 2844 1947 2747 
L 2328 2669 
Q 3034 2534 3370 2195 
Q 3706 1856 3706 1288 
Q 3706 609 3251 259 
Q 2797 -91 1919 -91 
Q 1588 -91 1214 -16 
Q 841 59 441 206 
L 441 856 
Q 825 641 1194 531 
Q 1563 422 1919 422 
Q 2459 422 2753 634 
Q 3047 847 3047 1241 
Q 3047 1584 2836 1778 
Q 2625 1972 2144 2069 
L 1759 2144 
Q 1053 2284 737 2584 
Q 422 2884 422 3419 
Q 422 4038 858 4394 
Q 1294 4750 2059 4750 
Q 2388 4750 2728 4690 
Q 3069 4631 3425 4513 
z
" transform="scale(0.015625)"/>
       <path id="DejaVuSans-74" d="M 1172 4494 
L 1172 3500 
L 2356 3500 
L 2356 3053 
L 1172 3053 
L 1172 1153 
Q 1172 725 1289 603 
Q 1406 481 1766 481 
L 2356 481 
L 2356 0 
L 1766 0 
Q 1100 0 847 248 
Q 594 497 594 1153 
L 594 3053 
L 172 3053 
L 172 3500 
L 594 3500 
L 594 4494 
L 1172 4494 
z
" transform="scale(0.015625)"/>
       <path id="DejaVuSans-65" d="M 3597 1894 
L 3597 1613 
L 953 1613 
Q 991 1019 1311 708 
Q 1631 397 2203 397 
Q 2534 397 2845 478 
Q 3156 559 3463 722 
L 3463 178 
Q 3153 47 2828 -22 
Q 2503 -91 2169 -91 
Q 1331 -91 842 396 
Q 353 884 353 1716 
Q 353 2575 817 3079 
Q 1281 3584 2069 3584 
Q 2775 3584 3186 3129 
Q 3597 2675 3597 1894 
z
M 3022 2063 
Q 3016 2534 2758 2815 
Q 2500 3097 2075 3097 
Q 1594 3097 1305 2825 
Q 1016 2553 972 2059 
L 3022 2063 
z
" transform="scale(0.015625)"/>
       <path id="DejaVuSans-70" d="M 1159 525 
L 1159 -1331 
L 581 -1331 
L 581 3500 
L 1159 3500 
L 1159 2969 
Q 1341 3281 1617 3432 
Q 1894 3584 2278 3584 
Q 2916 3584 3314 3078 
Q 3713 2572 3713 1747 
Q 3713 922 3314 415 
Q 2916 -91 2278 -91 
Q 1894 -91 1617 61 
Q 1341 213 1159 525 
z
M 3116 1747 
Q 3116 2381 2855 2742 
Q 2594 3103 2138 3103 
Q 1681 3103 1420 2742 
Q 1159 2381 1159 1747 
Q 1159 1113 1420 752 
Q 1681 391 2138 391 
Q 2594 391 2855 752 
Q 3116 1113 3116 1747 
z
" transform="scale(0.015625)"/>
      </defs>
      <use xlink:href="#DejaVuSans-53"/>
      <use xlink:href="#DejaVuSans-74" transform="translate(63.476562 0)"/>
      <use xlink:href="#DejaVuSans-65" transform="translate(102.685547 0)"/>
      <use xlink:href="#DejaVuSans-70" transform="translate(164.208984 0)"/>
     </g>
    </g>
   </g>
   <g id="matplotlib.axis_2">
    <g id="ytick_1">
     <g id="line2d_7">
      <defs>
       <path id="md48f2d5910" d="M 0 0 
L -3.5 0 
" style="stroke: #000000; stroke-width: 0.8"/>
      </defs>
      <g>
       <use xlink:href="#md48f2d5910" x="60.69125" y="373.472442" style="stroke: #000000; stroke-width: 0.8"/>
      </g>
     </g>
     <g id="text_8">
      <!-- 0.000 -->
      <g transform="translate(25.063125 377.271661) scale(0.1 -0.1)">
       <defs>
        <path id="DejaVuSans-2e" d="M 684 794 
L 1344 794 
L 1344 0 
L 684 0 
L 684 794 
z
" transform="scale(0.015625)"/>
       </defs>
       <use xlink:href="#DejaVuSans-30"/>
       <use xlink:href="#DejaVuSans-2e" transform="translate(63.623047 0)"/>
       <use xlink:href="#DejaVuSans-30" transform="translate(95.410156 0)"/>
       <use xlink:href="#DejaVuSans-30" transform="translate(159.033203 0)"/>
       <use xlink:href="#DejaVuSans-30" transform="translate(222.65625 0)"/>
      </g>
     </g>
    </g>
    <g id="ytick_2">
     <g id="line2d_8">
      <g>
       <use xlink:href="#md48f2d5910" x="60.69125" y="322.435022" style="stroke: #000000; stroke-width: 0.8"/>
      </g>
     </g>
     <g id="text_9">
      <!-- 0.001 -->
      <g transform="translate(25.063125 326.234241) scale(0.1 -0.1)">
       <use xlink:href="#DejaVuSans-30"/>
       <use xlink:href="#DejaVuSans-2e" transform="translate(63.623047 0)"/>
       <use xlink:href="#DejaVuSans-30" transform="translate(95.410156 0)"/>
       <use xlink:href="#DejaVuSans-30" transform="translate(159.033203 0)"/>
       <use xlink:href="#DejaVuSans-31" transform="translate(222.65625 0)"/>
      </g>
     </g>
    </g>
    <g id="ytick_3">
     <g id="line2d_9">
      <g>
       <use xlink:href="#md48f2d5910" x="60.69125" y="271.397602" style="stroke: #000000; stroke-width: 0.8"/>
      </g>
     </g>
     <g id="text_10">
      <!-- 0.002 -->
      <g transform="translate(25.063125 275.196821) scale(0.1 -0.1)">
       <use xlink:href="#DejaVuSans-30"/>
       <use xlink:href="#DejaVuSans-2e" transform="translate(63.623047 0)"/>
       <use xlink:href="#DejaVuSans-30" transform="translate(95.410156 0)"/>
       <use xlink:href="#DejaVuSans-30" transform="translate(159.033203 0)"/>
       <use xlink:href="#DejaVuSans-32" transform="translate(222.65625 0)"/>
      </g>
     </g>
    </g>
    <g id="ytick_4">
     <g id="line2d_10">
      <g>
       <use xlink:href="#md48f2d5910" x="60.69125" y="220.360183" style="stroke: #000000; stroke-width: 0.8"/>
      </g>
     </g>
     <g id="text_11">
      <!-- 0.003 -->
      <g transform="translate(25.063125 224.159401) scale(0.1 -0.1)">
       <defs>
        <path id="DejaVuSans-33" d="M 2597 2516 
Q 3050 2419 3304 2112 
Q 3559 1806 3559 1356 
Q 3559 666 3084 287 
Q 2609 -91 1734 -91 
Q 1441 -91 1130 -33 
Q 819 25 488 141 
L 488 750 
Q 750 597 1062 519 
Q 1375 441 1716 441 
Q 2309 441 2620 675 
Q 2931 909 2931 1356 
Q 2931 1769 2642 2001 
Q 2353 2234 1838 2234 
L 1294 2234 
L 1294 2753 
L 1863 2753 
Q 2328 2753 2575 2939 
Q 2822 3125 2822 3475 
Q 2822 3834 2567 4026 
Q 2313 4219 1838 4219 
Q 1578 4219 1281 4162 
Q 984 4106 628 3988 
L 628 4550 
Q 988 4650 1302 4700 
Q 1616 4750 1894 4750 
Q 2613 4750 3031 4423 
Q 3450 4097 3450 3541 
Q 3450 3153 3228 2886 
Q 3006 2619 2597 2516 
z
" transform="scale(0.015625)"/>
       </defs>
       <use xlink:href="#DejaVuSans-30"/>
       <use xlink:href="#DejaVuSans-2e" transform="translate(63.623047 0)"/>
       <use xlink:href="#DejaVuSans-30" transform="translate(95.410156 0)"/>
       <use xlink:href="#DejaVuSans-30" transform="translate(159.033203 0)"/>
       <use xlink:href="#DejaVuSans-33" transform="translate(222.65625 0)"/>
      </g>
     </g>
    </g>
    <g id="ytick_5">
     <g id="line2d_11">
      <g>
       <use xlink:href="#md48f2d5910" x="60.69125" y="169.322763" style="stroke: #000000; stroke-width: 0.8"/>
      </g>
     </g>
     <g id="text_12">
      <!-- 0.004 -->
      <g transform="translate(25.063125 173.121982) scale(0.1 -0.1)">
       <use xlink:href="#DejaVuSans-30"/>
       <use xlink:href="#DejaVuSans-2e" transform="translate(63.623047 0)"/>
       <use xlink:href="#DejaVuSans-30" transform="translate(95.410156 0)"/>
       <use xlink:href="#DejaVuSans-30" transform="translate(159.033203 0)"/>
       <use xlink:href="#DejaVuSans-34" transform="translate(222.65625 0)"/>
      </g>
     </g>
    </g>
    <g id="ytick_6">
     <g id="line2d_12">
      <g>
       <use xlink:href="#md48f2d5910" x="60.69125" y="118.285343" style="stroke: #000000; stroke-width: 0.8"/>
      </g>
     </g>
     <g id="text_13">
      <!-- 0.005 -->
      <g transform="translate(25.063125 122.084562) scale(0.1 -0.1)">
       <defs>
        <path id="DejaVuSans-35" d="M 691 4666 
L 3169 4666 
L 3169 4134 
L 1269 4134 
L 1269 2991 
Q 1406 3038 1543 3061 
Q 1681 3084 1819 3084 
Q 2600 3084 3056 2656 
Q 3513 2228 3513 1497 
Q 3513 744 3044 326 
Q 2575 -91 1722 -91 
Q 1428 -91 1123 -41 
Q 819 9 494 109 
L 494 744 
Q 775 591 1075 516 
Q 1375 441 1709 441 
Q 2250 441 2565 725 
Q 2881 1009 2881 1497 
Q 2881 1984 2565 2268 
Q 2250 2553 1709 2553 
Q 1456 2553 1204 2497 
Q 953 2441 691 2322 
L 691 4666 
z
" transform="scale(0.015625)"/>
       </defs>
       <use xlink:href="#DejaVuSans-30"/>
       <use xlink:href="#DejaVuSans-2e" transform="translate(63.623047 0)"/>
       <use xlink:href="#DejaVuSans-30" transform="translate(95.410156 0)"/>
       <use xlink:href="#DejaVuSans-30" transform="translate(159.033203 0)"/>
       <use xlink:href="#DejaVuSans-35" transform="translate(222.65625 0)"/>
      </g>
     </g>
    </g>
    <g id="ytick_7">
     <g id="line2d_13">
      <g>
       <use xlink:href="#md48f2d5910" x="60.69125" y="67.247923" style="stroke: #000000; stroke-width: 0.8"/>
      </g>
     </g>
     <g id="text_14">
      <!-- 0.006 -->
      <g transform="translate(25.063125 71.047142) scale(0.1 -0.1)">
       <use xlink:href="#DejaVuSans-30"/>
       <use xlink:href="#DejaVuSans-2e" transform="translate(63.623047 0)"/>
       <use xlink:href="#DejaVuSans-30" transform="translate(95.410156 0)"/>
       <use xlink:href="#DejaVuSans-30" transform="translate(159.033203 0)"/>
       <use xlink:href="#DejaVuSans-36" transform="translate(222.65625 0)"/>
      </g>
     </g>
    </g>
    <g id="text_15">
     <!-- losses/approx_kl -->
     <g transform="translate(18.705313 248.765781) rotate(-90) scale(0.1 -0.1)">
      <defs>
       <path id="DejaVuSans-6c" d="M 603 4863 
L 1178 4863 
L 1178 0 
L 603 0 
L 603 4863 
z
" transform="scale(0.015625)"/>
       <path id="DejaVuSans-6f" d="M 1959 3097 
Q 1497 3097 1228 2736 
Q 959 2375 959 1747 
Q 959 1119 1226 758 
Q 1494 397 1959 397 
Q 2419 397 2687 759 
Q 2956 1122 2956 1747 
Q 2956 2369 2687 2733 
Q 2419 3097 1959 3097 
z
M 1959 3584 
Q 2709 3584 3137 3096 
Q 3566 2609 3566 1747 
Q 3566 888 3137 398 
Q 2709 -91 1959 -91 
Q 1206 -91 779 398 
Q 353 888 353 1747 
Q 353 2609 779 3096 
Q 1206 3584 1959 3584 
z
" transform="scale(0.015625)"/>
       <path id="DejaVuSans-73" d="M 2834 3397 
L 2834 2853 
Q 2591 2978 2328 3040 
Q 2066 3103 1784 3103 
Q 1356 3103 1142 2972 
Q 928 2841 928 2578 
Q 928 2378 1081 2264 
Q 1234 2150 1697 2047 
L 1894 2003 
Q 2506 1872 2764 1633 
Q 3022 1394 3022 966 
Q 3022 478 2636 193 
Q 2250 -91 1575 -91 
Q 1294 -91 989 -36 
Q 684 19 347 128 
L 347 722 
Q 666 556 975 473 
Q 1284 391 1588 391 
Q 1994 391 2212 530 
Q 2431 669 2431 922 
Q 2431 1156 2273 1281 
Q 2116 1406 1581 1522 
L 1381 1569 
Q 847 1681 609 1914 
Q 372 2147 372 2553 
Q 372 3047 722 3315 
Q 1072 3584 1716 3584 
Q 2034 3584 2315 3537 
Q 2597 3491 2834 3397 
z
" transform="scale(0.015625)"/>
       <path id="DejaVuSans-2f" d="M 1625 4666 
L 2156 4666 
L 531 -594 
L 0 -594 
L 1625 4666 
z
" transform="scale(0.015625)"/>
       <path id="DejaVuSans-61" d="M 2194 1759 
Q 1497 1759 1228 1600 
Q 959 1441 959 1056 
Q 959 750 1161 570 
Q 1363 391 1709 391 
Q 2188 391 2477 730 
Q 2766 1069 2766 1631 
L 2766 1759 
L 2194 1759 
z
M 3341 1997 
L 3341 0 
L 2766 0 
L 2766 531 
Q 2569 213 2275 61 
Q 1981 -91 1556 -91 
Q 1019 -91 701 211 
Q 384 513 384 1019 
Q 384 1609 779 1909 
Q 1175 2209 1959 2209 
L 2766 2209 
L 2766 2266 
Q 2766 2663 2505 2880 
Q 2244 3097 1772 3097 
Q 1472 3097 1187 3025 
Q 903 2953 641 2809 
L 641 3341 
Q 956 3463 1253 3523 
Q 1550 3584 1831 3584 
Q 2591 3584 2966 3190 
Q 3341 2797 3341 1997 
z
" transform="scale(0.015625)"/>
       <path id="DejaVuSans-72" d="M 2631 2963 
Q 2534 3019 2420 3045 
Q 2306 3072 2169 3072 
Q 1681 3072 1420 2755 
Q 1159 2438 1159 1844 
L 1159 0 
L 581 0 
L 581 3500 
L 1159 3500 
L 1159 2956 
Q 1341 3275 1631 3429 
Q 1922 3584 2338 3584 
Q 2397 3584 2469 3576 
Q 2541 3569 2628 3553 
L 2631 2963 
z
" transform="scale(0.015625)"/>
       <path id="DejaVuSans-78" d="M 3513 3500 
L 2247 1797 
L 3578 0 
L 2900 0 
L 1881 1375 
L 863 0 
L 184 0 
L 1544 1831 
L 300 3500 
L 978 3500 
L 1906 2253 
L 2834 3500 
L 3513 3500 
z
" transform="scale(0.015625)"/>
       <path id="DejaVuSans-5f" d="M 3263 -1063 
L 3263 -1509 
L -63 -1509 
L -63 -1063 
L 3263 -1063 
z
" transform="scale(0.015625)"/>
       <path id="DejaVuSans-6b" d="M 581 4863 
L 1159 4863 
L 1159 1991 
L 2875 3500 
L 3609 3500 
L 1753 1863 
L 3688 0 
L 2938 0 
L 1159 1709 
L 1159 0 
L 581 0 
L 581 4863 
z
" transform="scale(0.015625)"/>
      </defs>
      <use xlink:href="#DejaVuSans-6c"/>
      <use xlink:href="#DejaVuSans-6f" transform="translate(27.783203 0)"/>
      <use xlink:href="#DejaVuSans-73" transform="translate(88.964844 0)"/>
      <use xlink:href="#DejaVuSans-73" transform="translate(141.064453 0)"/>
      <use xlink:href="#DejaVuSans-65" transform="translate(193.164062 0)"/>
      <use xlink:href="#DejaVuSans-73" transform="translate(254.6875 0)"/>
      <use xlink:href="#DejaVuSans-2f" transform="translate(306.787109 0)"/>
      <use xlink:href="#DejaVuSans-61" transform="translate(340.478516 0)"/>
      <use xlink:href="#DejaVuSans-70" transform="translate(401.757812 0)"/>
      <use xlink:href="#DejaVuSans-70" transform="translate(465.234375 0)"/>
      <use xlink:href="#DejaVuSans-72" transform="translate(528.710938 0)"/>
      <use xlink:href="#DejaVuSans-6f" transform="translate(567.574219 0)"/>
      <use xlink:href="#DejaVuSans-78" transform="translate(625.630859 0)"/>
      <use xlink:href="#DejaVuSans-5f" transform="translate(684.810547 0)"/>
      <use xlink:href="#DejaVuSans-6b" transform="translate(734.810547 0)"/>
      <use xlink:href="#DejaVuSans-6c" transform="translate(792.720703 0)"/>
     </g>
    </g>
   </g>
   <g id="line2d_14">
    <path d="M 90.16892 295.167189 
L 96.070356 323.388052 
L 96.6605 323.875346 
L 102.561935 312.837792 
L 108.463371 305.170711 
L 109.053514 305.237598 
L 114.364806 307.940242 
L 114.95495 307.163471 
L 120.856385 281.444663 
L 122.036672 282.131574 
L 127.938108 286.151501 
L 132.659256 289.897168 
L 133.2494 290.066198 
L 139.150835 275.600898 
L 139.740979 276.048344 
L 145.052271 285.757283 
L 145.642414 286.564761 
L 151.54385 289.460332 
L 153.314281 286.609757 
L 157.445285 279.77377 
L 158.625573 277.090331 
L 163.936865 264.187133 
L 169.8383 263.916191 
L 170.428444 263.294058 
L 175.739736 255.599283 
L 176.329879 255.315037 
L 182.231315 265.028614 
L 182.821458 264.851125 
L 188.722894 261.767703 
L 194.624329 256.535924 
L 200.525765 265.35143 
L 201.115908 266.933303 
L 206.4272 284.035109 
L 207.017344 284.967651 
L 212.918779 269.56401 
L 213.508923 269.418492 
L 218.820215 269.902201 
L 219.410358 269.844117 
L 225.311794 268.034473 
L 231.21323 272.364275 
L 231.803373 270.949194 
L 237.114665 249.501165 
L 237.704809 248.220763 
L 243.606244 268.498089 
L 244.196388 269.003962 
L 249.50768 271.020387 
L 250.097823 271.430344 
L 255.999259 277.893531 
L 261.900694 275.856897 
L 262.490838 274.663266 
L 268.392273 257.128738 
L 274.293709 254.868659 
L 274.883852 255.690996 
L 280.195144 265.269358 
L 280.785288 265.534807 
L 286.686723 256.514326 
L 292.588159 277.221812 
L 293.178303 276.93061 
L 298.489595 259.765149 
L 299.079738 258.653682 
L 304.981174 282.023993 
L 305.571317 282.597319 
L 311.472753 283.289515 
L 317.374188 281.346058 
L 323.275624 277.993432 
L 323.865767 277.967126 
L 329.767203 280.033616 
L 335.668638 277.257178 
L 336.258782 277.563436 
L 341.570074 282.071467 
L 342.160217 282.053262 
L 348.061653 271.961169 
L 349.24194 273.88446 
L 353.963088 282.086233 
L 354.553232 282.518213 
L 360.454668 281.569737 
L 366.356103 277.95287 
L 366.946247 278.358908 
L 375.208256 288.415904 
L 378.749118 292.886505 
L 379.929405 290.212858 
L 384.650553 278.699152 
L 385.240697 278.393202 
L 391.142132 286.544458 
L 397.043568 281.817383 
L 397.633711 281.863891 
L 402.945003 284.406525 
L 403.535147 284.324962 
L 409.436582 274.205126 
L 410.026726 275.166486 
L 415.338018 286.355875 
L 415.928162 286.680252 
L 421.829597 279.65781 
L 427.731033 296.144915 
L 428.321176 295.829371 
L 433.632468 283.729422 
L 434.222612 282.783028 
L 440.124047 285.260455 
L 441.304334 287.614293 
L 446.025483 297.659598 
L 446.615626 298.392311 
L 452.517062 298.915157 
L 458.418497 273.718543 
L 459.008641 273.411194 
L 465.50022 284.509119 
L 470.811512 292.784854 
L 471.401655 292.5465 
L 477.303091 287.35567 
L 483.204527 278.970423 
L 489.696106 290.26538 
L 495.007398 301.644448 
L 495.597541 302.487312 
L 501.498977 292.651929 
L 503.269407 290.538347 
L 507.400412 285.760271 
L 507.990556 285.357742 
L 513.891991 286.000005 
L 518.61314 294.462777 
L 521.563857 299.547991 
L 525.694862 306.369654 
L 526.285006 306.89689 
L 532.186441 288.01574 
L 532.776585 288.841106 
L 538.087877 304.409844 
L 538.67802 305.568254 
L 544.579456 306.242844 
L 548.120317 304.603632 
L 550.480892 303.496481 
L 551.071035 303.63092 
L 556.972471 308.624053 
L 562.873906 315.219272 
L 563.46405 315.320914 
L 568.775342 314.270991 
L 569.365485 314.644487 
L 575.266921 329.162834 
L 575.857064 328.707767 
L 581.168356 322.836774 
L 581.7585 322.558781 
L 588.840222 323.620762 
L 594.741658 324.223102 
L 599.462806 325.054333 
L 600.05295 325.62151 
L 605.954385 343.132494 
L 606.544529 342.876836 
L 611.855821 337.995797 
L 612.445965 337.685778 
L 618.3474 337.285082 
L 624.248836 347.46762 
L 624.838979 347.760401 
L 630.150271 346.975338 
L 630.740415 347.040378 
L 638.412281 353.710899 
L 643.133429 357.435395 
L 649.034865 359.267422 
L 657.296875 364.353978 
L 661.427879 366.700929 
L 667.329315 368.456879 
L 669.099746 368.393276 
L 673.23075 368.153031 
L 673.820894 368.264118 
L 679.72233 371.50018 
L 679.72233 371.50018 
" clip-path="url(#paa1ffe80df)" style="fill: none; stroke: #00008b; stroke-width: 1.5; stroke-linecap: square"/>
   </g>
   <g id="patch_3">
    <path d="M 60.69125 390.04 
L 60.69125 25.44 
" style="fill: none; stroke: #000000; stroke-width: 0.8; stroke-linejoin: miter; stroke-linecap: square"/>
   </g>
   <g id="patch_4">
    <path d="M 709.2 390.04 
L 709.2 25.44 
" style="fill: none; stroke: #000000; stroke-width: 0.8; stroke-linejoin: miter; stroke-linecap: square"/>
   </g>
   <g id="patch_5">
    <path d="M 60.69125 390.04 
L 709.2 390.04 
" style="fill: none; stroke: #000000; stroke-width: 0.8; stroke-linejoin: miter; stroke-linecap: square"/>
   </g>
   <g id="patch_6">
    <path d="M 60.69125 25.44 
L 709.2 25.44 
" style="fill: none; stroke: #000000; stroke-width: 0.8; stroke-linejoin: miter; stroke-linecap: square"/>
   </g>
   <g id="text_16">
    <!-- losses/approx_kl for ppo_atari (aggregated via interpolation over runs) -->
    <g transform="translate(172.878438 19.44) scale(0.12 -0.12)">
     <defs>
      <path id="DejaVuSans-20" transform="scale(0.015625)"/>
      <path id="DejaVuSans-66" d="M 2375 4863 
L 2375 4384 
L 1825 4384 
Q 1516 4384 1395 4259 
Q 1275 4134 1275 3809 
L 1275 3500 
L 2222 3500 
L 2222 3053 
L 1275 3053 
L 1275 0 
L 697 0 
L 697 3053 
L 147 3053 
L 147 3500 
L 697 3500 
L 697 3744 
Q 697 4328 969 4595 
Q 1241 4863 1831 4863 
L 2375 4863 
z
" transform="scale(0.015625)"/>
      <path id="DejaVuSans-69" d="M 603 3500 
L 1178 3500 
L 1178 0 
L 603 0 
L 603 3500 
z
M 603 4863 
L 1178 4863 
L 1178 4134 
L 603 4134 
L 603 4863 
z
" transform="scale(0.015625)"/>
      <path id="DejaVuSans-28" d="M 1984 4856 
Q 1566 4138 1362 3434 
Q 1159 2731 1159 2009 
Q 1159 1288 1364 580 
Q 1569 -128 1984 -844 
L 1484 -844 
Q 1016 -109 783 600 
Q 550 1309 550 2009 
Q 550 2706 781 3412 
Q 1013 4119 1484 4856 
L 1984 4856 
z
" transform="scale(0.015625)"/>
      <path id="DejaVuSans-67" d="M 2906 1791 
Q 2906 2416 2648 2759 
Q 2391 3103 1925 3103 
Q 1463 3103 1205 2759 
Q 947 2416 947 1791 
Q 947 1169 1205 825 
Q 1463 481 1925 481 
Q 2391 481 2648 825 
Q 2906 1169 2906 1791 
z
M 3481 434 
Q 3481 -459 3084 -895 
Q 2688 -1331 1869 -1331 
Q 1566 -1331 1297 -1286 
Q 1028 -1241 775 -1147 
L 775 -588 
Q 1028 -725 1275 -790 
Q 1522 -856 1778 -856 
Q 2344 -856 2625 -561 
Q 2906 -266 2906 331 
L 2906 616 
Q 2728 306 2450 153 
Q 2172 0 1784 0 
Q 1141 0 747 490 
Q 353 981 353 1791 
Q 353 2603 747 3093 
Q 1141 3584 1784 3584 
Q 2172 3584 2450 3431 
Q 2728 3278 2906 2969 
L 2906 3500 
L 3481 3500 
L 3481 434 
z
" transform="scale(0.015625)"/>
      <path id="DejaVuSans-64" d="M 2906 2969 
L 2906 4863 
L 3481 4863 
L 3481 0 
L 2906 0 
L 2906 525 
Q 2725 213 2448 61 
Q 2172 -91 1784 -91 
Q 1150 -91 751 415 
Q 353 922 353 1747 
Q 353 2572 751 3078 
Q 1150 3584 1784 3584 
Q 2172 3584 2448 3432 
Q 2725 3281 2906 2969 
z
M 947 1747 
Q 947 1113 1208 752 
Q 1469 391 1925 391 
Q 2381 391 2643 752 
Q 2906 1113 2906 1747 
Q 2906 2381 2643 2742 
Q 2381 3103 1925 3103 
Q 1469 3103 1208 2742 
Q 947 2381 947 1747 
z
" transform="scale(0.015625)"/>
      <path id="DejaVuSans-76" d="M 191 3500 
L 800 3500 
L 1894 563 
L 2988 3500 
L 3597 3500 
L 2284 0 
L 1503 0 
L 191 3500 
z
" transform="scale(0.015625)"/>
      <path id="DejaVuSans-6e" d="M 3513 2113 
L 3513 0 
L 2938 0 
L 2938 2094 
Q 2938 2591 2744 2837 
Q 2550 3084 2163 3084 
Q 1697 3084 1428 2787 
Q 1159 2491 1159 1978 
L 1159 0 
L 581 0 
L 581 3500 
L 1159 3500 
L 1159 2956 
Q 1366 3272 1645 3428 
Q 1925 3584 2291 3584 
Q 2894 3584 3203 3211 
Q 3513 2838 3513 2113 
z
" transform="scale(0.015625)"/>
      <path id="DejaVuSans-75" d="M 544 1381 
L 544 3500 
L 1119 3500 
L 1119 1403 
Q 1119 906 1312 657 
Q 1506 409 1894 409 
Q 2359 409 2629 706 
Q 2900 1003 2900 1516 
L 2900 3500 
L 3475 3500 
L 3475 0 
L 2900 0 
L 2900 538 
Q 2691 219 2414 64 
Q 2138 -91 1772 -91 
Q 1169 -91 856 284 
Q 544 659 544 1381 
z
M 1991 3584 
L 1991 3584 
z
" transform="scale(0.015625)"/>
      <path id="DejaVuSans-29" d="M 513 4856 
L 1013 4856 
Q 1481 4119 1714 3412 
Q 1947 2706 1947 2009 
Q 1947 1309 1714 600 
Q 1481 -109 1013 -844 
L 513 -844 
Q 928 -128 1133 580 
Q 1338 1288 1338 2009 
Q 1338 2731 1133 3434 
Q 928 4138 513 4856 
z
" transform="scale(0.015625)"/>
     </defs>
     <use xlink:href="#DejaVuSans-6c"/>
     <use xlink:href="#DejaVuSans-6f" transform="translate(27.783203 0)"/>
     <use xlink:href="#DejaVuSans-73" transform="translate(88.964844 0)"/>
     <use xlink:href="#DejaVuSans-73" transform="translate(141.064453 0)"/>
     <use xlink:href="#DejaVuSans-65" transform="translate(193.164062 0)"/>
     <use xlink:href="#DejaVuSans-73" transform="translate(254.6875 0)"/>
     <use xlink:href="#DejaVuSans-2f" transform="translate(306.787109 0)"/>
     <use xlink:href="#DejaVuSans-61" transform="translate(340.478516 0)"/>
     <use xlink:href="#DejaVuSans-70" transform="translate(401.757812 0)"/>
     <use xlink:href="#DejaVuSans-70" transform="translate(465.234375 0)"/>
     <use xlink:href="#DejaVuSans-72" transform="translate(528.710938 0)"/>
     <use xlink:href="#DejaVuSans-6f" transform="translate(567.574219 0)"/>
     <use xlink:href="#DejaVuSans-78" transform="translate(625.630859 0)"/>
     <use xlink:href="#DejaVuSans-5f" transform="translate(684.810547 0)"/>
     <use xlink:href="#DejaVuSans-6b" transform="translate(734.810547 0)"/>
     <use xlink:href="#DejaVuSans-6c" transform="translate(792.720703 0)"/>
     <use xlink:href="#DejaVuSans-20" transform="translate(820.503906 0)"/>
     <use xlink:href="#DejaVuSans-66" transform="translate(852.291016 0)"/>
     <use xlink:href="#DejaVuSans-6f" transform="translate(887.496094 0)"/>
     <use xlink:href="#DejaVuSans-72" transform="translate(948.677734 0)"/>
     <use xlink:href="#DejaVuSans-20" transform="translate(989.791016 0)"/>
     <use xlink:href="#DejaVuSans-70" transform="translate(1021.578125 0)"/>
     <use xlink:href="#DejaVuSans-70" transform="translate(1085.054688 0)"/>
     <use xlink:href="#DejaVuSans-6f" transform="translate(1148.53125 0)"/>
     <use xlink:href="#DejaVuSans-5f" transform="translate(1209.712891 0)"/>
     <use xlink:href="#DejaVuSans-61" transform="translate(1259.712891 0)"/>
     <use xlink:href="#DejaVuSans-74" transform="translate(1320.992188 0)"/>
     <use xlink:href="#DejaVuSans-61" transform="translate(1360.201172 0)"/>
     <use xlink:href="#DejaVuSans-72" transform="translate(1421.480469 0)"/>
     <use xlink:href="#DejaVuSans-69" transform="translate(1462.59375 0)"/>
     <use xlink:href="#DejaVuSans-20" transform="translate(1490.376953 0)"/>
     <use xlink:href="#DejaVuSans-28" transform="translate(1522.164062 0)"/>
     <use xlink:href="#DejaVuSans-61" transform="translate(1561.177734 0)"/>
     <use xlink:href="#DejaVuSans-67" transform="translate(1622.457031 0)"/>
     <use xlink:href="#DejaVuSans-67" transform="translate(1685.933594 0)"/>
     <use xlink:href="#DejaVuSans-72" transform="translate(1749.410156 0)"/>
     <use xlink:href="#DejaVuSans-65" transform="translate(1788.273438 0)"/>
     <use xlink:href="#DejaVuSans-67" transform="translate(1849.796875 0)"/>
     <use xlink:href="#DejaVuSans-61" transform="translate(1913.273438 0)"/>
     <use xlink:href="#DejaVuSans-74" transform="translate(1974.552734 0)"/>
     <use xlink:href="#DejaVuSans-65" transform="translate(2013.761719 0)"/>
     <use xlink:href="#DejaVuSans-64" transform="translate(2075.285156 0)"/>
     <use xlink:href="#DejaVuSans-20" transform="translate(2138.761719 0)"/>
     <use xlink:href="#DejaVuSans-76" transform="translate(2170.548828 0)"/>
     <use xlink:href="#DejaVuSans-69" transform="translate(2229.728516 0)"/>
     <use xlink:href="#DejaVuSans-61" transform="translate(2257.511719 0)"/>
     <use xlink:href="#DejaVuSans-20" transform="translate(2318.791016 0)"/>
     <use xlink:href="#DejaVuSans-69" transform="translate(2350.578125 0)"/>
     <use xlink:href="#DejaVuSans-6e" transform="translate(2378.361328 0)"/>
     <use xlink:href="#DejaVuSans-74" transform="translate(2441.740234 0)"/>
     <use xlink:href="#DejaVuSans-65" transform="translate(2480.949219 0)"/>
     <use xlink:href="#DejaVuSans-72" transform="translate(2542.472656 0)"/>
     <use xlink:href="#DejaVuSans-70" transform="translate(2583.585938 0)"/>
     <use xlink:href="#DejaVuSans-6f" transform="translate(2647.0625 0)"/>
     <use xlink:href="#DejaVuSans-6c" transform="translate(2708.244141 0)"/>
     <use xlink:href="#DejaVuSans-61" transform="translate(2736.027344 0)"/>
     <use xlink:href="#DejaVuSans-74" transform="translate(2797.306641 0)"/>
     <use xlink:href="#DejaVuSans-69" transform="translate(2836.515625 0)"/>
     <use xlink:href="#DejaVuSans-6f" transform="translate(2864.298828 0)"/>
     <use xlink:href="#DejaVuSans-6e" transform="translate(2925.480469 0)"/>
     <use xlink:href="#DejaVuSans-20" transform="translate(2988.859375 0)"/>
     <use xlink:href="#DejaVuSans-6f" transform="translate(3020.646484 0)"/>
     <use xlink:href="#DejaVuSans-76" transform="translate(3081.828125 0)"/>
     <use xlink:href="#DejaVuSans-65" transform="translate(3141.007812 0)"/>
     <use xlink:href="#DejaVuSans-72" transform="translate(3202.53125 0)"/>
     <use xlink:href="#DejaVuSans-20" transform="translate(3243.644531 0)"/>
     <use xlink:href="#DejaVuSans-72" transform="translate(3275.431641 0)"/>
     <use xlink:href="#DejaVuSans-75" transform="translate(3316.544922 0)"/>
     <use xlink:href="#DejaVuSans-6e" transform="translate(3379.923828 0)"/>
     <use xlink:href="#DejaVuSans-73" transform="translate(3443.302734 0)"/>
     <use xlink:href="#DejaVuSans-29" transform="translate(3495.402344 0)"/>
    </g>
   </g>
   <g id="legend_1">
    <g id="patch_7">
     <path d="M 626.78125 62.79625 
L 702.2 62.79625 
Q 704.2 62.79625 704.2 60.79625 
L 704.2 32.44 
Q 704.2 30.44 702.2 30.44 
L 626.78125 30.44 
Q 624.78125 30.44 624.78125 32.44 
L 624.78125 60.79625 
Q 624.78125 62.79625 626.78125 62.79625 
z
" style="fill: #ffffff; opacity: 0.8; stroke: #cccccc; stroke-linejoin: miter"/>
    </g>
    <g id="line2d_15">
     <path d="M 628.78125 38.538437 
L 638.78125 38.538437 
L 648.78125 38.538437 
" style="fill: none; stroke: #00008b; stroke-width: 1.5; stroke-linecap: square"/>
    </g>
    <g id="text_17">
     <!-- Mean -->
     <g transform="translate(656.78125 42.038437) scale(0.1 -0.1)">
      <defs>
       <path id="DejaVuSans-4d" d="M 628 4666 
L 1569 4666 
L 2759 1491 
L 3956 4666 
L 4897 4666 
L 4897 0 
L 4281 0 
L 4281 4097 
L 3078 897 
L 2444 897 
L 1241 4097 
L 1241 0 
L 628 0 
L 628 4666 
z
" transform="scale(0.015625)"/>
      </defs>
      <use xlink:href="#DejaVuSans-4d"/>
      <use xlink:href="#DejaVuSans-65" transform="translate(86.279297 0)"/>
      <use xlink:href="#DejaVuSans-61" transform="translate(147.802734 0)"/>
      <use xlink:href="#DejaVuSans-6e" transform="translate(209.082031 0)"/>
     </g>
    </g>
    <g id="patch_8">
     <path d="M 628.78125 56.716563 
L 648.78125 56.716563 
L 648.78125 49.716563 
L 628.78125 49.716563 
z
" style="fill: #00008b; fill-opacity: 0.3; stroke: #00008b; stroke-opacity: 0.3; stroke-linejoin: miter"/>
    </g>
    <g id="text_18">
     <!-- MinMax -->
     <g transform="translate(656.78125 56.716563) scale(0.1 -0.1)">
      <defs>
       <path id="DejaVuSans-2013" d="M 313 1978 
L 2888 1978 
L 2888 1528 
L 313 1528 
L 313 1978 
z
" transform="scale(0.015625)"/>
      </defs>
      <use xlink:href="#DejaVuSans-4d"/>
      <use xlink:href="#DejaVuSans-69" transform="translate(86.279297 0)"/>
      <use xlink:href="#DejaVuSans-6e" transform="translate(114.0625 0)"/>
      <use xlink:href="#DejaVuSans-2013" transform="translate(177.441406 0)"/>
      <use xlink:href="#DejaVuSans-4d" transform="translate(227.441406 0)"/>
      <use xlink:href="#DejaVuSans-61" transform="translate(313.720703 0)"/>
      <use xlink:href="#DejaVuSans-78" transform="translate(375 0)"/>
     </g>
    </g>
   </g>
  </g>
 </g>
 <defs>
  <clipPath id="paa1ffe80df">
   <rect x="60.69125" y="25.44" width="648.50875" height="364.6"/>
  </clipPath>
 </defs>
</svg>
