<?xml version="1.0" encoding="utf-8" standalone="no"?>
<!DOCTYPE svg PUBLIC "-//W3C//DTD SVG 1.1//EN"
  "http://www.w3.org/Graphics/SVG/1.1/DTD/svg11.dtd">
<svg xmlns:xlink="http://www.w3.org/1999/xlink" width="720pt" height="432pt" viewBox="0 0 720 432" xmlns="http://www.w3.org/2000/svg" version="1.1">
 <metadata>
  <rdf:RDF xmlns:dc="http://purl.org/dc/elements/1.1/" xmlns:cc="http://creativecommons.org/ns#" xmlns:rdf="http://www.w3.org/1999/02/22-rdf-syntax-ns#">
   <cc:Work>
    <dc:type rdf:resource="http://purl.org/dc/dcmitype/StillImage"/>
    <dc:date>2025-02-05T20:32:11.886972</dc:date>
    <dc:format>image/svg+xml</dc:format>
    <dc:creator>
     <cc:Agent>
      <dc:title>Matplotlib v3.10.0, https://matplotlib.org/</dc:title>
     </cc:Agent>
    </dc:creator>
   </cc:Work>
  </rdf:RDF>
 </metadata>
 <defs>
  <style type="text/css">*{stroke-linejoin: round; stroke-linecap: butt}</style>
 </defs>
 <g id="figure_1">
  <g id="patch_1">
   <path d="M 0 432 
L 720 432 
L 720 0 
L 0 0 
z
" style="fill: #ffffff"/>
  </g>
  <g id="axes_1">
   <g id="patch_2">
    <path d="M 54.2 390.04 
L 709.2 390.04 
L 709.2 25.44 
L 54.2 25.44 
z
" style="fill: #ffffff"/>
   </g>
   <g id="FillBetweenPolyCollection_1">
    <defs>
     <path id="m9479da67e4" d="M 83.972727 -202.336198 
L 83.972727 -58.532727 
L 84.568778 -58.532727 
L 85.164828 -58.532727 
L 85.760879 -58.532727 
L 86.35693 -58.532727 
L 86.95298 -58.532727 
L 87.549031 -58.532727 
L 88.145081 -58.532727 
L 88.741132 -58.532727 
L 89.337183 -58.532727 
L 89.933233 -58.532727 
L 90.529284 -58.532727 
L 91.125334 -58.532727 
L 91.721385 -58.532727 
L 92.317436 -58.532727 
L 92.913486 -58.532727 
L 93.509537 -58.532727 
L 94.105587 -58.532727 
L 94.701638 -58.532727 
L 95.297689 -58.532727 
L 95.893739 -58.532727 
L 96.48979 -58.532727 
L 97.08584 -58.532727 
L 97.681891 -58.532727 
L 98.277942 -58.532727 
L 98.873992 -58.532727 
L 99.470043 -58.532727 
L 100.066093 -58.532727 
L 100.662144 -58.532727 
L 101.258195 -58.532727 
L 101.854245 -58.532727 
L 102.450296 -58.532727 
L 103.046346 -58.532727 
L 103.642397 -58.532727 
L 104.238448 -58.532727 
L 104.834498 -58.532727 
L 105.430549 -58.532727 
L 106.026599 -58.532727 
L 106.62265 -58.532727 
L 107.218701 -58.532727 
L 107.814751 -58.532727 
L 108.410802 -58.532727 
L 109.006852 -58.532727 
L 109.602903 -58.532727 
L 110.198953 -58.532727 
L 110.795004 -58.532727 
L 111.391055 -58.532727 
L 111.987105 -58.532727 
L 112.583156 -58.532727 
L 113.179206 -58.532727 
L 113.775257 -58.532727 
L 114.371308 -58.532727 
L 114.967358 -58.532727 
L 115.563409 -58.532727 
L 116.159459 -58.532727 
L 116.75551 -58.532727 
L 117.351561 -58.532727 
L 117.947611 -58.532727 
L 118.543662 -58.532727 
L 119.139712 -58.532727 
L 119.735763 -58.532727 
L 120.331814 -58.532727 
L 120.927864 -58.532727 
L 121.523915 -58.532727 
L 122.119965 -58.532727 
L 122.716016 -58.532727 
L 123.312067 -58.532727 
L 123.908117 -58.532727 
L 124.504168 -58.532727 
L 125.100218 -58.532727 
L 125.696269 -58.532727 
L 126.29232 -58.532727 
L 126.88837 -58.532727 
L 127.484421 -58.532727 
L 128.080471 -58.532727 
L 128.676522 -58.532727 
L 129.272573 -58.532727 
L 129.868623 -58.532727 
L 130.464674 -58.532727 
L 131.060724 -58.532727 
L 131.656775 -58.532727 
L 132.252826 -58.532727 
L 132.848876 -58.532727 
L 133.444927 -58.532727 
L 134.040977 -58.532727 
L 134.637028 -58.532727 
L 135.233079 -58.532727 
L 135.829129 -58.532727 
L 136.42518 -58.532727 
L 137.02123 -58.532727 
L 137.617281 -58.532727 
L 138.213332 -58.532727 
L 138.809382 -58.532727 
L 139.405433 -58.532727 
L 140.001483 -58.532727 
L 140.597534 -58.532727 
L 141.193584 -58.532727 
L 141.789635 -58.532727 
L 142.385686 -58.532727 
L 142.981736 -58.532727 
L 143.577787 -58.532727 
L 144.173837 -58.532727 
L 144.769888 -58.532727 
L 145.365939 -58.532727 
L 145.961989 -58.532727 
L 146.55804 -58.532727 
L 147.15409 -58.532727 
L 147.750141 -58.532727 
L 148.346192 -58.532727 
L 148.942242 -58.532727 
L 149.538293 -58.532727 
L 150.134343 -58.532727 
L 150.730394 -58.532727 
L 151.326445 -58.532727 
L 151.922495 -58.532727 
L 152.518546 -58.532727 
L 153.114596 -58.532727 
L 153.710647 -58.532727 
L 154.306698 -58.532727 
L 154.902748 -58.532727 
L 155.498799 -58.532727 
L 156.094849 -58.532727 
L 156.6909 -58.532727 
L 157.286951 -58.532727 
L 157.883001 -58.532727 
L 158.479052 -58.532727 
L 159.075102 -58.532727 
L 159.671153 -58.532727 
L 160.267204 -58.532727 
L 160.863254 -58.532727 
L 161.459305 -58.532727 
L 162.055355 -58.532727 
L 162.651406 -58.532727 
L 163.247457 -58.532727 
L 163.843507 -58.532727 
L 164.439558 -58.532727 
L 165.035608 -58.532727 
L 165.631659 -58.532727 
L 166.22771 -58.532727 
L 166.82376 -58.532727 
L 167.419811 -58.532727 
L 168.015861 -58.532727 
L 168.611912 -58.532727 
L 169.207963 -58.532727 
L 169.804013 -58.532727 
L 170.400064 -58.532727 
L 170.996114 -58.532727 
L 171.592165 -58.532727 
L 172.188215 -58.532727 
L 172.784266 -58.532727 
L 173.380317 -58.532727 
L 173.976367 -58.532727 
L 174.572418 -58.532727 
L 175.168468 -58.532727 
L 175.764519 -58.532727 
L 176.36057 -58.532727 
L 176.95662 -58.532727 
L 177.552671 -58.532727 
L 178.148721 -58.532727 
L 178.744772 -58.532727 
L 179.340823 -58.532727 
L 179.936873 -58.532727 
L 180.532924 -58.532727 
L 181.128974 -58.532727 
L 181.725025 -58.532727 
L 182.321076 -58.532727 
L 182.917126 -58.532727 
L 183.513177 -58.532727 
L 184.109227 -58.532727 
L 184.705278 -58.532727 
L 185.301329 -58.532727 
L 185.897379 -58.532727 
L 186.49343 -58.532727 
L 187.08948 -58.532727 
L 187.685531 -58.532727 
L 188.281582 -58.532727 
L 188.877632 -58.532727 
L 189.473683 -58.532727 
L 190.069733 -58.532727 
L 190.665784 -58.532727 
L 191.261835 -58.532727 
L 191.857885 -58.532727 
L 192.453936 -58.532727 
L 193.049986 -58.532727 
L 193.646037 -58.532727 
L 194.242088 -58.532727 
L 194.838138 -58.532727 
L 195.434189 -58.532727 
L 196.030239 -58.532727 
L 196.62629 -58.532727 
L 197.222341 -58.532727 
L 197.818391 -58.532727 
L 198.414442 -58.532727 
L 199.010492 -58.532727 
L 199.606543 -58.532727 
L 200.202594 -58.532727 
L 200.798644 -58.532727 
L 201.394695 -58.532727 
L 201.990745 -58.532727 
L 202.586796 -58.532727 
L 203.182846 -58.532727 
L 203.778897 -58.532727 
L 204.374948 -58.532727 
L 204.970998 -58.532727 
L 205.567049 -58.532727 
L 206.163099 -58.532727 
L 206.75915 -58.532727 
L 207.355201 -58.532727 
L 207.951251 -58.532727 
L 208.547302 -58.532727 
L 209.143352 -58.532727 
L 209.739403 -58.532727 
L 210.335454 -58.532727 
L 210.931504 -58.532727 
L 211.527555 -58.532727 
L 212.123605 -58.532727 
L 212.719656 -58.532727 
L 213.315707 -58.532727 
L 213.911757 -58.532727 
L 214.507808 -58.532727 
L 215.103858 -58.532727 
L 215.699909 -58.532727 
L 216.29596 -58.532727 
L 216.89201 -58.532727 
L 217.488061 -58.532727 
L 218.084111 -58.532727 
L 218.680162 -58.532727 
L 219.276213 -58.532727 
L 219.872263 -58.532727 
L 220.468314 -58.532727 
L 221.064364 -58.532727 
L 221.660415 -58.532727 
L 222.256466 -58.532727 
L 222.852516 -58.532727 
L 223.448567 -58.532727 
L 224.044617 -58.532727 
L 224.640668 -58.532727 
L 225.236719 -58.532727 
L 225.832769 -58.532727 
L 226.42882 -58.532727 
L 227.02487 -58.532727 
L 227.620921 -58.532727 
L 228.216972 -58.532727 
L 228.813022 -58.532727 
L 229.409073 -58.532727 
L 230.005123 -58.532727 
L 230.601174 -58.532727 
L 231.197224 -58.532727 
L 231.793275 -58.532727 
L 232.389326 -58.532727 
L 232.985376 -58.532727 
L 233.581427 -58.532727 
L 234.177477 -58.532727 
L 234.773528 -58.532727 
L 235.369579 -58.532727 
L 235.965629 -58.532727 
L 236.56168 -58.532727 
L 237.15773 -58.532727 
L 237.753781 -58.532727 
L 238.349832 -58.532727 
L 238.945882 -58.532727 
L 239.541933 -58.532727 
L 240.137983 -58.532727 
L 240.734034 -58.532727 
L 241.330085 -58.532727 
L 241.926135 -58.532727 
L 242.522186 -58.532727 
L 243.118236 -58.532727 
L 243.714287 -58.532727 
L 244.310338 -58.532727 
L 244.906388 -58.532727 
L 245.502439 -58.532727 
L 246.098489 -58.532727 
L 246.69454 -58.532727 
L 247.290591 -58.532727 
L 247.886641 -58.532727 
L 248.482692 -58.532727 
L 249.078742 -58.532727 
L 249.674793 -58.532727 
L 250.270844 -58.532727 
L 250.866894 -58.532727 
L 251.462945 -58.532727 
L 252.058995 -58.532727 
L 252.655046 -58.532727 
L 253.251097 -58.532727 
L 253.847147 -58.532727 
L 254.443198 -58.532727 
L 255.039248 -58.532727 
L 255.635299 -58.532727 
L 256.23135 -58.532727 
L 256.8274 -58.532727 
L 257.423451 -58.532727 
L 258.019501 -58.532727 
L 258.615552 -58.532727 
L 259.211603 -58.532727 
L 259.807653 -58.532727 
L 260.403704 -58.532727 
L 260.999754 -58.532727 
L 261.595805 -58.532727 
L 262.191855 -58.532727 
L 262.787906 -58.532727 
L 263.383957 -58.532727 
L 263.980007 -58.766417 
L 264.576058 -59.834716 
L 265.172108 -60.903014 
L 265.768159 -61.971312 
L 266.36421 -63.03961 
L 266.96026 -64.107908 
L 267.556311 -65.176206 
L 268.152361 -66.244504 
L 268.748412 -67.312802 
L 269.344463 -64.507443 
L 269.940513 -59.476103 
L 270.536564 -58.532727 
L 271.132614 -58.532727 
L 271.728665 -58.532727 
L 272.324716 -58.532727 
L 272.920766 -58.532727 
L 273.516817 -58.532727 
L 274.112867 -58.532727 
L 274.708918 -58.532727 
L 275.304969 -58.532727 
L 275.901019 -58.532727 
L 276.49707 -59.932715 
L 277.09312 -63.378837 
L 277.689171 -66.82496 
L 278.285222 -70.271083 
L 278.881272 -70.486465 
L 279.477323 -69.2114 
L 280.073373 -67.936335 
L 280.669424 -66.661269 
L 281.265475 -65.386204 
L 281.861525 -64.111138 
L 282.457576 -58.532727 
L 283.053626 -58.532727 
L 283.649677 -58.532727 
L 284.245728 -58.532727 
L 284.841778 -58.532727 
L 285.437829 -58.532727 
L 286.033879 -58.532727 
L 286.62993 -58.532727 
L 287.225981 -58.532727 
L 287.822031 -58.532727 
L 288.418082 -58.532727 
L 289.014132 -58.532727 
L 289.610183 -58.532727 
L 290.206234 -58.532727 
L 290.802284 -58.532727 
L 291.398335 -58.532727 
L 291.994385 -58.532727 
L 292.590436 -58.532727 
L 293.186486 -58.532727 
L 293.782537 -58.532727 
L 294.378588 -58.532727 
L 294.974638 -58.532727 
L 295.570689 -58.532727 
L 296.166739 -58.532727 
L 296.76279 -58.532727 
L 297.358841 -58.532727 
L 297.954891 -58.532727 
L 298.550942 -58.532727 
L 299.146992 -58.532727 
L 299.743043 -58.532727 
L 300.339094 -58.532727 
L 300.935144 -58.532727 
L 301.531195 -58.532727 
L 302.127245 -58.532727 
L 302.723296 -58.532727 
L 303.319347 -58.532727 
L 303.915397 -58.532727 
L 304.511448 -58.532727 
L 305.107498 -58.532727 
L 305.703549 -58.532727 
L 306.2996 -58.532727 
L 306.89565 -58.532727 
L 307.491701 -58.532727 
L 308.087751 -58.532727 
L 308.683802 -58.532727 
L 309.279853 -58.532727 
L 309.875903 -58.532727 
L 310.471954 -58.532727 
L 311.068004 -58.532727 
L 311.664055 -58.532727 
L 312.260106 -58.532727 
L 312.856156 -58.532727 
L 313.452207 -58.532727 
L 314.048257 -58.532727 
L 314.644308 -58.532727 
L 315.240359 -58.532727 
L 315.836409 -58.532727 
L 316.43246 -58.532727 
L 317.02851 -58.532727 
L 317.624561 -58.532727 
L 318.220612 -58.532727 
L 318.816662 -58.532727 
L 319.412713 -58.532727 
L 320.008763 -58.532727 
L 320.604814 -58.532727 
L 321.200865 -58.532727 
L 321.796915 -58.532727 
L 322.392966 -58.532727 
L 322.989016 -58.532727 
L 323.585067 -58.532727 
L 324.181117 -58.532727 
L 324.777168 -58.532727 
L 325.373219 -58.532727 
L 325.969269 -58.532727 
L 326.56532 -58.532727 
L 327.16137 -58.532727 
L 327.757421 -58.532727 
L 328.353472 -58.532727 
L 328.949522 -58.532727 
L 329.545573 -58.532727 
L 330.141623 -58.532727 
L 330.737674 -58.532727 
L 331.333725 -58.532727 
L 331.929775 -58.532727 
L 332.525826 -58.532727 
L 333.121876 -58.532727 
L 333.717927 -58.532727 
L 334.313978 -58.532727 
L 334.910028 -58.532727 
L 335.506079 -58.532727 
L 336.102129 -58.532727 
L 336.69818 -58.532727 
L 337.294231 -58.532727 
L 337.890281 -58.532727 
L 338.486332 -58.532727 
L 339.082382 -58.532727 
L 339.678433 -58.532727 
L 340.274484 -58.532727 
L 340.870534 -58.532727 
L 341.466585 -58.532727 
L 342.062635 -58.532727 
L 342.658686 -58.532727 
L 343.254737 -58.532727 
L 343.850787 -58.532727 
L 344.446838 -58.532727 
L 345.042888 -58.532727 
L 345.638939 -58.532727 
L 346.23499 -58.532727 
L 346.83104 -58.532727 
L 347.427091 -58.532727 
L 348.023141 -58.532727 
L 348.619192 -58.532727 
L 349.215243 -58.532727 
L 349.811293 -58.532727 
L 350.407344 -58.532727 
L 351.003394 -58.532727 
L 351.599445 -58.532727 
L 352.195495 -58.532727 
L 352.791546 -58.532727 
L 353.387597 -58.532727 
L 353.983647 -58.532727 
L 354.579698 -58.532727 
L 355.175748 -58.532727 
L 355.771799 -58.532727 
L 356.36785 -58.532727 
L 356.9639 -58.532727 
L 357.559951 -58.532727 
L 358.156001 -58.532727 
L 358.752052 -58.532727 
L 359.348103 -58.532727 
L 359.944153 -58.532727 
L 360.540204 -58.532727 
L 361.136254 -58.532727 
L 361.732305 -58.532727 
L 362.328356 -58.532727 
L 362.924406 -58.532727 
L 363.520457 -58.532727 
L 364.116507 -58.532727 
L 364.712558 -58.532727 
L 365.308609 -58.532727 
L 365.904659 -58.532727 
L 366.50071 -58.532727 
L 367.09676 -58.532727 
L 367.692811 -58.532727 
L 368.288862 -58.532727 
L 368.884912 -58.532727 
L 369.480963 -58.532727 
L 370.077013 -58.532727 
L 370.673064 -58.532727 
L 371.269115 -58.532727 
L 371.865165 -58.532727 
L 372.461216 -58.532727 
L 373.057266 -58.532727 
L 373.653317 -58.532727 
L 374.249368 -58.532727 
L 374.845418 -58.532727 
L 375.441469 -58.532727 
L 376.037519 -58.532727 
L 376.63357 -58.532727 
L 377.229621 -58.532727 
L 377.825671 -58.532727 
L 378.421722 -58.532727 
L 379.017772 -58.532727 
L 379.613823 -58.532727 
L 380.209874 -58.532727 
L 380.805924 -58.532727 
L 381.401975 -58.532727 
L 381.998025 -58.532727 
L 382.594076 -58.532727 
L 383.190126 -58.532727 
L 383.786177 -58.532727 
L 384.382228 -58.532727 
L 384.978278 -58.532727 
L 385.574329 -58.532727 
L 386.170379 -58.532727 
L 386.76643 -58.532727 
L 387.362481 -58.532727 
L 387.958531 -58.532727 
L 388.554582 -58.532727 
L 389.150632 -58.532727 
L 389.746683 -58.532727 
L 390.342734 -58.532727 
L 390.938784 -58.532727 
L 391.534835 -58.532727 
L 392.130885 -58.532727 
L 392.726936 -58.532727 
L 393.322987 -58.532727 
L 393.919037 -58.532727 
L 394.515088 -58.532727 
L 395.111138 -58.532727 
L 395.707189 -58.532727 
L 396.30324 -58.532727 
L 396.89929 -58.532727 
L 397.495341 -58.532727 
L 398.091391 -58.532727 
L 398.687442 -58.532727 
L 399.283493 -58.532727 
L 399.879543 -58.532727 
L 400.475594 -58.532727 
L 401.071644 -58.532727 
L 401.667695 -58.532727 
L 402.263746 -58.532727 
L 402.859796 -58.532727 
L 403.455847 -58.532727 
L 404.051897 -58.532727 
L 404.647948 -58.532727 
L 405.243999 -58.532727 
L 405.840049 -58.532727 
L 406.4361 -58.532727 
L 407.03215 -58.532727 
L 407.628201 -58.532727 
L 408.224252 -58.532727 
L 408.820302 -58.532727 
L 409.416353 -58.532727 
L 410.012403 -58.532727 
L 410.608454 -58.532727 
L 411.204505 -58.532727 
L 411.800555 -58.532727 
L 412.396606 -58.532727 
L 412.992656 -58.532727 
L 413.588707 -58.532727 
L 414.184757 -58.532727 
L 414.780808 -58.532727 
L 415.376859 -58.532727 
L 415.972909 -58.532727 
L 416.56896 -58.532727 
L 417.16501 -58.532727 
L 417.761061 -58.532727 
L 418.357112 -58.532727 
L 418.953162 -58.532727 
L 419.549213 -58.532727 
L 420.145263 -58.532727 
L 420.741314 -58.532727 
L 421.337365 -58.532727 
L 421.933415 -58.532727 
L 422.529466 -58.532727 
L 423.125516 -58.532727 
L 423.721567 -58.532727 
L 424.317618 -58.532727 
L 424.913668 -58.532727 
L 425.509719 -58.532727 
L 426.105769 -58.532727 
L 426.70182 -58.532727 
L 427.297871 -58.532727 
L 427.893921 -58.532727 
L 428.489972 -58.532727 
L 429.086022 -58.532727 
L 429.682073 -58.532727 
L 430.278124 -58.532727 
L 430.874174 -58.532727 
L 431.470225 -58.532727 
L 432.066275 -58.532727 
L 432.662326 -58.532727 
L 433.258377 -58.532727 
L 433.854427 -58.532727 
L 434.450478 -58.532727 
L 435.046528 -58.532727 
L 435.642579 -58.532727 
L 436.23863 -58.532727 
L 436.83468 -58.532727 
L 437.430731 -58.532727 
L 438.026781 -58.532727 
L 438.622832 -58.532727 
L 439.218883 -58.532727 
L 439.814933 -58.532727 
L 440.410984 -58.532727 
L 441.007034 -58.532727 
L 441.603085 -58.532727 
L 442.199135 -58.532727 
L 442.795186 -58.532727 
L 443.391237 -58.532727 
L 443.987287 -58.532727 
L 444.583338 -58.532727 
L 445.179388 -58.532727 
L 445.775439 -58.532727 
L 446.37149 -58.532727 
L 446.96754 -58.532727 
L 447.563591 -58.532727 
L 448.159641 -58.532727 
L 448.755692 -58.532727 
L 449.351743 -58.532727 
L 449.947793 -58.532727 
L 450.543844 -58.532727 
L 451.139894 -58.532727 
L 451.735945 -58.532727 
L 452.331996 -58.532727 
L 452.928046 -58.532727 
L 453.524097 -58.532727 
L 454.120147 -58.532727 
L 454.716198 -58.532727 
L 455.312249 -58.532727 
L 455.908299 -58.532727 
L 456.50435 -58.532727 
L 457.1004 -58.532727 
L 457.696451 -58.532727 
L 458.292502 -58.532727 
L 458.888552 -58.532727 
L 459.484603 -58.532727 
L 460.080653 -58.532727 
L 460.676704 -58.532727 
L 461.272755 -58.532727 
L 461.868805 -58.532727 
L 462.464856 -58.532727 
L 463.060906 -58.532727 
L 463.656957 -58.532727 
L 464.253008 -58.532727 
L 464.849058 -58.532727 
L 465.445109 -58.532727 
L 466.041159 -58.532727 
L 466.63721 -58.532727 
L 467.233261 -58.532727 
L 467.829311 -58.532727 
L 468.425362 -58.532727 
L 469.021412 -58.532727 
L 469.617463 -58.532727 
L 470.213514 -58.532727 
L 470.809564 -58.532727 
L 471.405615 -58.532727 
L 472.001665 -58.532727 
L 472.597716 -58.532727 
L 473.193766 -58.532727 
L 473.789817 -58.532727 
L 474.385868 -58.532727 
L 474.981918 -58.532727 
L 475.577969 -58.532727 
L 476.174019 -58.532727 
L 476.77007 -58.532727 
L 477.366121 -58.532727 
L 477.962171 -58.532727 
L 478.558222 -58.532727 
L 479.154272 -58.532727 
L 479.750323 -58.532727 
L 480.346374 -58.532727 
L 480.942424 -58.532727 
L 481.538475 -58.532727 
L 482.134525 -58.532727 
L 482.730576 -58.532727 
L 483.326627 -58.532727 
L 483.922677 -58.532727 
L 484.518728 -58.532727 
L 485.114778 -58.532727 
L 485.710829 -58.532727 
L 486.30688 -58.532727 
L 486.90293 -58.532727 
L 487.498981 -58.532727 
L 488.095031 -58.532727 
L 488.691082 -58.532727 
L 489.287133 -58.532727 
L 489.883183 -58.532727 
L 490.479234 -58.532727 
L 491.075284 -58.532727 
L 491.671335 -58.532727 
L 492.267386 -58.532727 
L 492.863436 -58.532727 
L 493.459487 -58.532727 
L 494.055537 -58.532727 
L 494.651588 -58.532727 
L 495.247639 -58.532727 
L 495.843689 -58.532727 
L 496.43974 -58.532727 
L 497.03579 -58.532727 
L 497.631841 -58.532727 
L 498.227892 -58.532727 
L 498.823942 -58.532727 
L 499.419993 -58.532727 
L 500.016043 -58.532727 
L 500.612094 -58.532727 
L 501.208145 -58.532727 
L 501.804195 -58.532727 
L 502.400246 -58.532727 
L 502.996296 -58.532727 
L 503.592347 -58.532727 
L 504.188397 -58.532727 
L 504.784448 -58.532727 
L 505.380499 -58.532727 
L 505.976549 -58.532727 
L 506.5726 -58.532727 
L 507.16865 -58.532727 
L 507.764701 -58.532727 
L 508.360752 -58.532727 
L 508.956802 -58.532727 
L 509.552853 -58.532727 
L 510.148903 -58.532727 
L 510.744954 -58.532727 
L 511.341005 -58.532727 
L 511.937055 -58.532727 
L 512.533106 -58.532727 
L 513.129156 -58.532727 
L 513.725207 -58.532727 
L 514.321258 -58.532727 
L 514.917308 -58.532727 
L 515.513359 -58.532727 
L 516.109409 -58.532727 
L 516.70546 -58.532727 
L 517.301511 -58.532727 
L 517.897561 -58.532727 
L 518.493612 -58.532727 
L 519.089662 -58.532727 
L 519.685713 -58.532727 
L 520.281764 -58.532727 
L 520.877814 -58.532727 
L 521.473865 -58.532727 
L 522.069915 -58.532727 
L 522.665966 -58.532727 
L 523.262017 -58.532727 
L 523.858067 -58.532727 
L 524.454118 -58.532727 
L 525.050168 -58.532727 
L 525.646219 -58.532727 
L 526.24227 -58.532727 
L 526.83832 -58.532727 
L 527.434371 -58.532727 
L 528.030421 -58.532727 
L 528.626472 -58.532727 
L 529.222523 -58.532727 
L 529.818573 -58.532727 
L 530.414624 -58.532727 
L 531.010674 -58.532727 
L 531.606725 -58.532727 
L 532.202776 -58.532727 
L 532.798826 -58.532727 
L 533.394877 -58.532727 
L 533.990927 -58.532727 
L 534.586978 -58.532727 
L 535.183028 -58.532727 
L 535.779079 -58.532727 
L 536.37513 -58.532727 
L 536.97118 -58.532727 
L 537.567231 -58.532727 
L 538.163281 -58.532727 
L 538.759332 -58.532727 
L 539.355383 -58.532727 
L 539.951433 -58.532727 
L 540.547484 -58.532727 
L 541.143534 -58.532727 
L 541.739585 -58.532727 
L 542.335636 -58.532727 
L 542.931686 -58.532727 
L 543.527737 -58.532727 
L 544.123787 -58.532727 
L 544.719838 -58.532727 
L 545.315889 -58.532727 
L 545.911939 -58.532727 
L 546.50799 -58.532727 
L 547.10404 -58.532727 
L 547.700091 -58.532727 
L 548.296142 -58.532727 
L 548.892192 -58.532727 
L 549.488243 -58.532727 
L 550.084293 -58.532727 
L 550.680344 -58.532727 
L 551.276395 -58.532727 
L 551.872445 -58.532727 
L 552.468496 -58.532727 
L 553.064546 -58.532727 
L 553.660597 -58.532727 
L 554.256648 -58.532727 
L 554.852698 -58.532727 
L 555.448749 -58.532727 
L 556.044799 -58.532727 
L 556.64085 -58.532727 
L 557.236901 -58.532727 
L 557.832951 -58.532727 
L 558.429002 -58.532727 
L 559.025052 -58.532727 
L 559.621103 -58.532727 
L 560.217154 -58.532727 
L 560.813204 -58.532727 
L 561.409255 -58.532727 
L 562.005305 -58.532727 
L 562.601356 -58.532727 
L 563.197406 -58.532727 
L 563.793457 -58.532727 
L 564.389508 -58.532727 
L 564.985558 -58.532727 
L 565.581609 -58.532727 
L 566.177659 -58.532727 
L 566.77371 -58.532727 
L 567.369761 -58.532727 
L 567.965811 -58.532727 
L 568.561862 -58.532727 
L 569.157912 -58.532727 
L 569.753963 -58.532727 
L 570.350014 -58.532727 
L 570.946064 -58.532727 
L 571.542115 -58.532727 
L 572.138165 -58.532727 
L 572.734216 -58.532727 
L 573.330267 -58.532727 
L 573.926317 -58.532727 
L 574.522368 -58.532727 
L 575.118418 -58.532727 
L 575.714469 -58.532727 
L 576.31052 -58.532727 
L 576.90657 -58.532727 
L 577.502621 -58.532727 
L 578.098671 -58.532727 
L 578.694722 -58.532727 
L 579.290773 -58.532727 
L 579.886823 -58.532727 
L 580.482874 -58.532727 
L 581.078924 -58.532727 
L 581.674975 -58.532727 
L 582.271026 -58.532727 
L 582.867076 -58.532727 
L 583.463127 -58.532727 
L 584.059177 -58.532727 
L 584.655228 -58.532727 
L 585.251279 -58.532727 
L 585.847329 -58.532727 
L 586.44338 -58.532727 
L 587.03943 -58.532727 
L 587.635481 -58.532727 
L 588.231532 -58.532727 
L 588.827582 -58.532727 
L 589.423633 -58.532727 
L 590.019683 -58.532727 
L 590.615734 -58.532727 
L 591.211785 -58.532727 
L 591.807835 -58.532727 
L 592.403886 -58.532727 
L 592.999936 -58.532727 
L 593.595987 -58.532727 
L 594.192037 -58.532727 
L 594.788088 -58.532727 
L 595.384139 -58.532727 
L 595.980189 -58.532727 
L 596.57624 -58.532727 
L 597.17229 -58.532727 
L 597.768341 -58.532727 
L 598.364392 -58.532727 
L 598.960442 -58.532727 
L 599.556493 -58.532727 
L 600.152543 -58.532727 
L 600.748594 -58.532727 
L 601.344645 -58.532727 
L 601.940695 -58.532727 
L 602.536746 -58.532727 
L 603.132796 -58.532727 
L 603.728847 -58.532727 
L 604.324898 -58.532727 
L 604.920948 -58.532727 
L 605.516999 -58.532727 
L 606.113049 -58.532727 
L 606.7091 -58.532727 
L 607.305151 -58.532727 
L 607.901201 -58.532727 
L 608.497252 -58.532727 
L 609.093302 -58.532727 
L 609.689353 -58.532727 
L 610.285404 -58.532727 
L 610.881454 -58.532727 
L 611.477505 -58.532727 
L 612.073555 -58.532727 
L 612.669606 -58.532727 
L 613.265657 -58.532727 
L 613.861707 -58.532727 
L 614.457758 -58.532727 
L 615.053808 -58.532727 
L 615.649859 -58.532727 
L 616.24591 -58.532727 
L 616.84196 -58.532727 
L 617.438011 -58.532727 
L 618.034061 -58.532727 
L 618.630112 -58.532727 
L 619.226163 -58.532727 
L 619.822213 -58.532727 
L 620.418264 -58.532727 
L 621.014314 -58.532727 
L 621.610365 -58.532727 
L 622.206416 -58.532727 
L 622.802466 -58.532727 
L 623.398517 -58.532727 
L 623.994567 -58.532727 
L 624.590618 -58.532727 
L 625.186668 -58.532727 
L 625.782719 -58.532727 
L 626.37877 -58.532727 
L 626.97482 -58.532727 
L 627.570871 -58.532727 
L 628.166921 -58.532727 
L 628.762972 -58.532727 
L 629.359023 -58.532727 
L 629.955073 -58.532727 
L 630.551124 -58.532727 
L 631.147174 -58.532727 
L 631.743225 -58.532727 
L 632.339276 -58.532727 
L 632.935326 -58.532727 
L 633.531377 -58.532727 
L 634.127427 -58.532727 
L 634.723478 -58.532727 
L 635.319529 -58.532727 
L 635.915579 -58.532727 
L 636.51163 -58.532727 
L 637.10768 -58.532727 
L 637.703731 -58.532727 
L 638.299782 -58.532727 
L 638.895832 -58.532727 
L 639.491883 -58.532727 
L 640.087933 -58.532727 
L 640.683984 -58.532727 
L 641.280035 -58.532727 
L 641.876085 -58.532727 
L 642.472136 -58.532727 
L 643.068186 -58.532727 
L 643.664237 -58.532727 
L 644.260288 -58.532727 
L 644.856338 -58.532727 
L 645.452389 -58.532727 
L 646.048439 -58.532727 
L 646.64449 -58.532727 
L 647.240541 -58.532727 
L 647.836591 -58.532727 
L 648.432642 -58.532727 
L 649.028692 -58.532727 
L 649.624743 -58.532727 
L 650.220794 -58.532727 
L 650.816844 -58.532727 
L 651.412895 -58.532727 
L 652.008945 -58.532727 
L 652.604996 -58.532727 
L 653.201047 -58.532727 
L 653.797097 -58.532727 
L 654.393148 -58.532727 
L 654.989198 -58.532727 
L 655.585249 -58.532727 
L 656.181299 -58.532727 
L 656.77735 -58.532727 
L 657.373401 -58.532727 
L 657.969451 -58.532727 
L 658.565502 -58.532727 
L 659.161552 -58.532727 
L 659.757603 -58.532727 
L 660.353654 -58.532727 
L 660.949704 -58.532727 
L 661.545755 -58.532727 
L 662.141805 -58.532727 
L 662.737856 -58.532727 
L 663.333907 -58.532727 
L 663.929957 -58.532727 
L 664.526008 -58.532727 
L 665.122058 -58.532727 
L 665.718109 -58.532727 
L 666.31416 -58.532727 
L 666.91021 -58.532727 
L 667.506261 -58.532727 
L 668.102311 -58.532727 
L 668.698362 -58.532727 
L 669.294413 -58.532727 
L 669.890463 -58.532727 
L 670.486514 -58.532727 
L 671.082564 -58.532727 
L 671.678615 -58.532727 
L 672.274666 -58.532727 
L 672.870716 -58.532727 
L 673.466767 -58.532727 
L 674.062817 -58.532727 
L 674.658868 -58.532727 
L 675.254919 -58.532727 
L 675.850969 -58.532727 
L 676.44702 -58.532727 
L 677.04307 -58.532727 
L 677.639121 -58.532727 
L 678.235172 -58.532727 
L 678.831222 -58.532727 
L 679.427273 -58.532727 
L 679.427273 -58.532727 
L 679.427273 -58.532727 
L 678.831222 -60.186866 
L 678.235172 -61.841005 
L 677.639121 -63.495144 
L 677.04307 -65.149283 
L 676.44702 -66.803422 
L 675.850969 -68.457561 
L 675.254919 -70.1117 
L 674.658868 -71.765839 
L 674.062817 -73.419977 
L 673.466767 -75.074116 
L 672.870716 -74.763965 
L 672.274666 -73.109826 
L 671.678615 -71.455688 
L 671.082564 -69.801549 
L 670.486514 -68.14741 
L 669.890463 -66.493271 
L 669.294413 -64.839132 
L 668.698362 -63.184993 
L 668.102311 -61.530854 
L 667.506261 -60.516402 
L 666.91021 -60.729631 
L 666.31416 -60.970859 
L 665.718109 -61.212088 
L 665.122058 -61.453316 
L 664.526008 -61.694545 
L 663.929957 -62.286847 
L 663.333907 -63.010533 
L 662.737856 -63.734219 
L 662.141805 -64.457905 
L 661.545755 -65.18159 
L 660.949704 -65.905276 
L 660.353654 -65.740508 
L 659.757603 -65.326974 
L 659.161552 -64.913439 
L 658.565502 -64.499904 
L 657.969451 -64.086369 
L 657.373401 -64.708825 
L 656.77735 -65.777123 
L 656.181299 -66.845421 
L 655.585249 -67.913719 
L 654.989198 -68.982018 
L 654.393148 -71.109998 
L 653.797097 -75.004117 
L 653.201047 -78.898236 
L 652.604996 -82.792354 
L 652.008945 -86.686473 
L 651.412895 -90.580592 
L 650.816844 -94.47471 
L 650.220794 -98.368829 
L 649.624743 -102.262948 
L 649.028692 -106.157066 
L 648.432642 -110.051185 
L 647.836591 -106.500602 
L 647.240541 -102.709867 
L 646.64449 -98.919132 
L 646.048439 -95.128397 
L 645.452389 -91.337662 
L 644.856338 -87.546927 
L 644.260288 -83.756192 
L 643.664237 -79.965457 
L 643.068186 -76.174722 
L 642.472136 -72.383987 
L 641.876085 -70.822462 
L 641.280035 -70.994769 
L 640.683984 -71.167075 
L 640.087933 -71.339381 
L 639.491883 -71.511687 
L 638.895832 -71.683993 
L 638.299782 -72.29568 
L 637.703731 -73.846435 
L 637.10768 -75.39719 
L 636.51163 -76.947946 
L 635.915579 -78.01409 
L 635.319529 -80.447914 
L 634.723478 -87.305698 
L 634.127427 -94.163482 
L 633.531377 -101.021267 
L 632.935326 -107.879051 
L 632.339276 -114.736835 
L 631.743225 -121.594619 
L 631.147174 -128.452404 
L 630.551124 -135.310188 
L 629.955073 -142.167972 
L 629.359023 -137.91201 
L 628.762972 -129.951467 
L 628.166921 -121.990923 
L 627.570871 -114.03038 
L 626.97482 -106.069836 
L 626.37877 -98.109293 
L 625.782719 -90.148749 
L 625.186668 -82.188206 
L 624.590618 -81.588365 
L 623.994567 -83.6905 
L 623.398517 -84.987104 
L 622.802466 -84.745875 
L 622.206416 -89.958136 
L 621.610365 -102.295255 
L 621.014314 -114.632375 
L 620.418264 -126.969494 
L 619.822213 -139.306613 
L 619.226163 -151.643733 
L 618.630112 -163.980852 
L 618.034061 -176.317971 
L 617.438011 -188.655091 
L 616.84196 -182.900066 
L 616.24591 -175.938898 
L 615.649859 -168.97773 
L 615.053808 -162.016562 
L 614.457758 -155.055394 
L 613.861707 -148.094226 
L 613.265657 -141.133058 
L 612.669606 -134.17189 
L 612.073555 -127.210723 
L 611.477505 -125.696582 
L 610.881454 -124.551823 
L 610.285404 -121.52462 
L 609.689353 -124.488286 
L 609.093302 -127.451951 
L 608.497252 -130.415617 
L 607.901201 -133.379282 
L 607.305151 -136.342948 
L 606.7091 -139.306613 
L 606.113049 -142.270279 
L 605.516999 -145.233944 
L 604.920948 -146.754546 
L 604.324898 -138.1737 
L 603.728847 -129.592855 
L 603.132796 -121.012009 
L 602.536746 -112.431164 
L 601.940695 -103.850318 
L 601.344645 -107.502131 
L 600.748594 -115.497136 
L 600.152543 -123.492141 
L 599.556493 -131.487145 
L 598.960442 -139.48215 
L 598.364392 -136.13295 
L 597.768341 -128.344712 
L 597.17229 -120.556475 
L 596.57624 -114.894064 
L 595.980189 -129.953621 
L 595.384139 -145.013177 
L 594.788088 -160.072733 
L 594.192037 -175.13229 
L 593.595987 -190.191846 
L 592.999936 -205.251402 
L 592.403886 -211.049504 
L 591.807835 -196.472405 
L 591.211785 -181.895306 
L 590.615734 -167.318206 
L 590.019683 -155.286931 
L 589.423633 -155.769388 
L 588.827582 -164.690538 
L 588.231532 -181.507617 
L 587.635481 -198.324696 
L 587.03943 -215.141775 
L 586.44338 -231.958854 
L 585.847329 -223.448007 
L 585.251279 -212.317031 
L 584.655228 -201.186055 
L 584.059177 -190.055078 
L 583.463127 -178.924102 
L 582.867076 -167.793125 
L 582.271026 -156.662149 
L 581.674975 -145.531172 
L 581.078924 -144.373491 
L 580.482874 -153.6091 
L 579.886823 -153.712483 
L 579.290773 -144.683642 
L 578.694722 -135.6548 
L 578.098671 -126.625959 
L 577.502621 -117.597117 
L 576.90657 -115.307599 
L 576.31052 -123.543833 
L 575.714469 -131.780066 
L 575.118418 -140.016299 
L 574.522368 -148.252532 
L 573.926317 -156.130154 
L 573.330267 -160.541191 
L 572.734216 -164.952228 
L 572.138165 -169.363265 
L 571.542115 -173.774302 
L 570.946064 -178.185339 
L 570.350014 -182.596376 
L 569.753963 -187.007413 
L 569.157912 -191.41845 
L 568.561862 -195.829487 
L 567.965811 -206.886157 
L 567.369761 -201.753588 
L 566.77371 -187.865713 
L 566.177659 -173.977839 
L 565.581609 -164.499924 
L 564.985558 -159.296279 
L 564.389508 -154.092634 
L 563.793457 -156.708456 
L 563.197406 -171.388939 
L 562.601356 -186.069422 
L 562.005305 -200.749905 
L 561.409255 -207.172616 
L 560.813204 -192.492133 
L 560.217154 -177.81165 
L 559.621103 -163.131167 
L 559.025052 -173.00754 
L 558.429002 -186.344035 
L 557.832951 -199.68053 
L 557.236901 -213.017025 
L 556.64085 -226.35352 
L 556.044799 -239.690015 
L 555.448749 -253.026509 
L 554.852698 -238.440795 
L 554.256648 -219.866194 
L 553.660597 -201.291592 
L 553.064546 -193.392433 
L 552.468496 -200.801596 
L 551.872445 -208.21076 
L 551.276395 -215.619924 
L 550.680344 -223.029088 
L 550.084293 -230.438252 
L 549.488243 -237.847416 
L 548.892192 -234.595137 
L 548.296142 -219.259891 
L 547.700091 -203.924645 
L 547.10404 -188.589399 
L 546.50799 -173.254153 
L 545.911939 -157.918907 
L 545.315889 -155.464621 
L 544.719838 -163.907622 
L 544.123787 -172.350623 
L 543.527737 -180.793623 
L 542.931686 -188.222172 
L 542.335636 -180.433934 
L 541.739585 -172.645697 
L 541.143534 -164.857459 
L 540.547484 -157.069222 
L 539.951433 -149.280985 
L 539.355383 -141.492747 
L 538.759332 -146.39378 
L 538.163281 -158.834283 
L 537.567231 -171.274786 
L 536.97118 -183.715289 
L 536.37513 -179.827632 
L 535.779079 -167.387129 
L 535.183028 -154.946626 
L 534.586978 -154.19494 
L 533.990927 -159.467508 
L 533.394877 -164.740076 
L 532.798826 -170.012644 
L 532.202776 -179.109331 
L 531.606725 -194.858112 
L 531.010674 -210.606893 
L 530.414624 -219.204969 
L 529.818573 -206.350931 
L 529.222523 -193.496893 
L 528.626472 -180.642855 
L 528.030421 -167.788818 
L 527.434371 -154.93478 
L 526.83832 -150.494666 
L 526.24227 -164.175773 
L 525.646219 -177.856881 
L 525.050168 -191.537988 
L 524.454118 -205.219095 
L 523.858067 -204.478179 
L 523.262017 -201.066517 
L 522.665966 -197.654856 
L 522.069915 -194.243194 
L 521.473865 -190.831533 
L 520.877814 -187.419871 
L 520.281764 -184.00821 
L 519.685713 -180.596548 
L 519.089662 -177.184887 
L 518.493612 -179.239637 
L 517.897561 -181.128543 
L 517.301511 -176.097204 
L 516.70546 -171.598937 
L 516.109409 -169.875876 
L 515.513359 -173.033386 
L 514.917308 -177.582268 
L 514.321258 -182.13115 
L 513.725207 -192.87336 
L 513.129156 -207.657227 
L 512.533106 -222.441093 
L 511.937055 -236.227738 
L 511.341005 -219.100508 
L 510.744954 -201.973278 
L 510.148903 -191.827677 
L 509.552853 -189.070779 
L 508.956802 -186.313881 
L 508.360752 -190.379229 
L 507.764701 -200.407446 
L 507.16865 -210.435663 
L 506.5726 -220.46388 
L 505.976549 -230.492098 
L 505.380499 -223.698928 
L 504.784448 -206.812927 
L 504.188397 -189.926925 
L 503.592347 -181.864075 
L 502.996296 -184.724357 
L 502.400246 -187.584639 
L 501.804195 -190.444921 
L 501.208145 -193.305203 
L 500.612094 -196.165484 
L 500.016043 -199.025766 
L 499.419993 -198.260081 
L 498.823942 -184.874048 
L 498.227892 -180.256244 
L 497.631841 -178.692565 
L 497.03579 -198.19762 
L 496.43974 -217.702675 
L 495.843689 -237.207729 
L 495.247639 -256.712784 
L 494.651588 -276.217839 
L 494.055537 -295.722893 
L 493.459487 -315.227948 
L 492.863436 -304.437276 
L 492.267386 -286.655283 
L 491.671335 -268.873289 
L 491.075284 -251.091296 
L 490.479234 -233.309303 
L 489.883183 -215.52731 
L 489.287133 -197.745316 
L 488.691082 -197.993006 
L 488.095031 -215.843922 
L 487.498981 -233.694838 
L 486.90293 -240.779851 
L 486.30688 -232.130083 
L 485.710829 -223.480315 
L 485.114778 -214.830547 
L 484.518728 -206.180779 
L 483.922677 -213.571635 
L 483.326627 -241.51969 
L 482.730576 -269.467746 
L 482.134525 -297.415801 
L 481.538475 -325.363856 
L 480.942424 -353.311912 
L 480.346374 -326.156464 
L 479.750323 -299.001017 
L 479.154272 -271.84557 
L 478.558222 -244.690123 
L 477.962171 -217.534676 
L 477.366121 -197.822854 
L 476.77007 -187.208796 
L 476.174019 -198.519617 
L 475.577969 -212.028418 
L 474.981918 -225.537219 
L 474.385868 -225.091377 
L 473.789817 -215.097621 
L 473.193766 -205.103865 
L 472.597716 -195.110109 
L 472.001665 -186.983721 
L 471.405615 -207.763841 
L 470.809564 -228.543961 
L 470.213514 -249.324081 
L 469.617463 -270.104201 
L 469.021412 -290.884321 
L 468.425362 -304.485737 
L 467.829311 -286.979434 
L 467.233261 -269.47313 
L 466.63721 -251.966827 
L 466.041159 -235.927279 
L 465.445109 -225.451066 
L 464.849058 -214.974853 
L 464.253008 -204.49864 
L 463.656957 -194.068734 
L 463.060906 -206.520006 
L 462.464856 -219.27066 
L 461.868805 -209.783054 
L 461.272755 -200.94698 
L 460.676704 -203.18696 
L 460.080653 -205.426939 
L 459.484603 -207.666919 
L 458.888552 -209.906899 
L 458.292502 -212.146879 
L 457.696451 -214.386858 
L 457.1004 -216.626838 
L 456.50435 -218.866818 
L 455.908299 -221.058337 
L 455.312249 -216.474993 
L 454.716198 -211.89165 
L 454.120147 -210.24505 
L 453.524097 -212.588413 
L 452.928046 -214.931777 
L 452.331996 -225.574911 
L 451.735945 -249.077468 
L 451.139894 -272.580025 
L 450.543844 -296.082582 
L 449.947793 -319.585139 
L 449.351743 -314.243649 
L 448.755692 -307.971706 
L 448.159641 -301.699762 
L 447.563591 -295.427819 
L 446.96754 -289.155876 
L 446.37149 -282.883932 
L 445.775439 -276.611989 
L 445.179388 -270.340045 
L 444.583338 -264.068102 
L 443.987287 -257.796159 
L 443.391237 -249.643925 
L 442.795186 -240.029242 
L 442.199135 -230.41456 
L 441.603085 -220.799877 
L 441.007034 -211.185195 
L 440.410984 -201.570513 
L 439.814933 -200.523753 
L 439.218883 -210.138435 
L 438.622832 -226.174752 
L 438.026781 -243.198598 
L 437.430731 -256.485555 
L 436.83468 -249.59331 
L 436.23863 -242.701064 
L 435.642579 -235.808819 
L 435.046528 -232.439157 
L 434.450478 -235.712974 
L 433.854427 -238.98679 
L 433.258377 -242.260607 
L 432.662326 -245.534423 
L 432.066275 -261.781815 
L 431.470225 -283.078853 
L 430.874174 -273.619247 
L 430.278124 -253.907425 
L 429.682073 -234.195603 
L 429.086022 -214.483781 
L 428.489972 -194.771959 
L 427.893921 -175.877514 
L 427.297871 -195.037956 
L 426.70182 -214.198399 
L 426.105769 -233.358841 
L 425.509719 -252.519283 
L 424.913668 -258.577998 
L 424.317618 -239.624323 
L 423.721567 -220.670648 
L 423.125516 -206.315393 
L 422.529466 -198.389311 
L 421.933415 -208.607064 
L 421.337365 -226.423519 
L 420.741314 -244.239973 
L 420.145263 -262.056428 
L 419.549213 -279.872882 
L 418.953162 -297.689337 
L 418.357112 -280.35534 
L 417.761061 -260.677979 
L 417.16501 -241.000618 
L 416.56896 -221.323257 
L 415.972909 -201.645897 
L 415.376859 -181.968536 
L 414.780808 -162.291175 
L 414.184757 -162.875939 
L 413.588707 -172.904156 
L 412.992656 -182.932373 
L 412.396606 -181.097313 
L 411.800555 -168.794655 
L 411.204505 -191.897677 
L 410.608454 -215.400234 
L 410.012403 -238.902791 
L 409.416353 -262.405348 
L 408.820302 -285.907905 
L 408.224252 -309.410462 
L 407.628201 -332.913019 
L 407.03215 -356.415576 
L 406.4361 -374.843717 
L 405.840049 -357.750948 
L 405.243999 -340.65818 
L 404.647948 -323.565411 
L 404.051897 -306.472642 
L 403.455847 -292.688151 
L 402.859796 -286.037134 
L 402.263746 -279.386118 
L 401.667695 -272.735101 
L 401.071644 -266.084084 
L 400.475594 -259.433067 
L 399.879543 -250.676685 
L 399.283493 -241.096463 
L 398.687442 -231.516242 
L 398.091391 -221.936021 
L 397.495341 -212.3558 
L 396.89929 -202.775579 
L 396.30324 -217.457138 
L 395.707189 -240.684006 
L 395.111138 -263.910873 
L 394.515088 -287.13774 
L 393.919037 -299.724703 
L 393.322987 -288.903878 
L 392.726936 -278.083052 
L 392.130885 -267.262227 
L 391.534835 -256.441402 
L 390.938784 -245.620576 
L 390.342734 -234.799751 
L 389.746683 -223.978926 
L 389.150632 -222.986012 
L 388.554582 -240.699082 
L 387.958531 -258.412153 
L 387.362481 -242.771064 
L 386.76643 -223.679544 
L 386.170379 -217.14268 
L 385.574329 -226.309366 
L 384.978278 -235.476053 
L 384.382228 -244.642739 
L 383.786177 -253.809425 
L 383.190126 -262.976112 
L 382.594076 -272.142798 
L 381.998025 -281.309485 
L 381.401975 -277.449827 
L 380.805924 -260.563826 
L 380.209874 -243.677825 
L 379.613823 -226.791823 
L 379.017772 -218.929279 
L 378.421722 -221.341565 
L 377.825671 -232.092391 
L 377.229621 -245.773498 
L 376.63357 -259.454605 
L 376.037519 -273.135713 
L 375.441469 -284.855761 
L 374.845418 -277.618903 
L 374.249368 -270.382045 
L 373.653317 -263.145187 
L 373.057266 -255.90833 
L 372.461216 -248.671472 
L 371.865165 -241.434614 
L 371.269115 -234.197756 
L 370.673064 -231.503319 
L 370.077013 -231.296552 
L 369.480963 -237.788186 
L 368.884912 -230.837787 
L 368.288862 -221.895098 
L 367.692811 -216.484686 
L 367.09676 -211.074273 
L 366.50071 -209.146598 
L 365.904659 -208.457373 
L 365.308609 -207.768149 
L 364.712558 -208.71691 
L 364.116507 -219.296506 
L 363.520457 -229.876103 
L 362.924406 -232.895768 
L 362.328356 -234.288217 
L 361.732305 -250.829606 
L 361.136254 -267.370995 
L 360.540204 -283.912384 
L 359.944153 -300.453774 
L 359.348103 -316.995163 
L 358.752052 -333.536552 
L 358.156001 -350.077941 
L 357.559951 -366.61933 
L 356.9639 -383.160719 
L 356.36785 -365.869798 
L 355.771799 -343.74569 
L 355.175748 -321.621582 
L 354.579698 -314.673337 
L 353.983647 -314.604415 
L 353.387597 -314.535493 
L 352.791546 -314.46657 
L 352.195495 -314.397648 
L 351.599445 -314.328725 
L 351.003394 -314.259803 
L 350.407344 -302.705599 
L 349.811293 -278.134744 
L 349.215243 -253.563889 
L 348.619192 -250.868375 
L 348.023141 -251.00622 
L 347.427091 -251.144065 
L 346.83104 -251.28191 
L 346.23499 -251.419755 
L 345.638939 -251.5576 
L 345.042888 -251.695445 
L 344.446838 -257.315855 
L 343.850787 -247.63225 
L 343.254737 -238.391257 
L 342.658686 -231.878085 
L 342.062635 -225.364913 
L 341.466585 -218.851741 
L 340.870534 -212.338569 
L 340.274484 -225.633065 
L 339.678433 -248.480858 
L 339.082382 -271.328652 
L 338.486332 -294.176446 
L 337.890281 -292.260617 
L 337.294231 -277.373367 
L 336.69818 -262.486116 
L 336.102129 -249.837769 
L 335.506079 -242.428605 
L 334.910028 -235.019441 
L 334.313978 -227.610277 
L 333.717927 -223.397392 
L 333.121876 -236.733887 
L 332.525826 -250.070382 
L 331.929775 -255.282643 
L 331.333725 -236.122201 
L 330.737674 -216.961758 
L 330.141623 -203.444342 
L 329.545573 -198.378541 
L 328.949522 -203.34742 
L 328.353472 -213.444559 
L 327.757421 -223.541699 
L 327.16137 -233.638838 
L 326.56532 -243.735978 
L 325.969269 -253.833118 
L 325.373219 -248.694087 
L 324.777168 -245.637807 
L 324.181117 -244.810738 
L 323.585067 -243.983668 
L 322.989016 -243.156599 
L 322.392966 -242.329529 
L 321.796915 -241.50246 
L 321.200865 -240.67539 
L 320.604814 -239.848321 
L 320.008763 -240.581699 
L 319.412713 -239.504785 
L 318.816662 -227.225819 
L 318.220612 -220.092345 
L 317.624561 -212.958871 
L 317.02851 -205.825397 
L 316.43246 -203.69957 
L 315.836409 -212.642259 
L 315.240359 -222.153557 
L 314.644308 -231.664856 
L 314.048257 -241.176155 
L 313.452207 -250.099459 
L 312.856156 -240.794928 
L 312.260106 -237.9228 
L 311.664055 -244.849506 
L 311.068004 -251.776213 
L 310.471954 -258.70292 
L 309.875903 -265.629626 
L 309.279853 -272.556333 
L 308.683802 -279.48304 
L 308.087751 -286.409746 
L 307.491701 -293.336453 
L 306.89565 -286.607899 
L 306.2996 -271.686187 
L 305.703549 -256.764476 
L 305.107498 -243.319213 
L 304.511448 -239.592015 
L 303.915397 -238.730485 
L 303.319347 -237.868954 
L 302.723296 -237.007423 
L 302.127245 -252.936049 
L 301.531195 -270.028817 
L 300.935144 -281.279331 
L 300.339094 -271.664649 
L 299.743043 -262.049966 
L 299.146992 -252.435284 
L 298.550942 -242.820602 
L 297.954891 -233.205919 
L 297.358841 -223.591237 
L 296.76279 -231.380551 
L 296.166739 -248.369936 
L 295.570689 -265.359321 
L 294.974638 -282.348706 
L 294.378588 -281.614251 
L 293.782537 -276.78968 
L 293.186486 -271.965108 
L 292.590436 -267.140536 
L 291.994385 -262.315964 
L 291.398335 -257.491392 
L 290.802284 -252.66682 
L 290.206234 -256.795706 
L 289.610183 -273.406018 
L 289.014132 -290.016329 
L 288.418082 -292.542768 
L 287.822031 -274.485085 
L 287.225981 -256.427402 
L 286.62993 -238.369719 
L 286.033879 -240.830466 
L 285.437829 -255.752177 
L 284.841778 -270.673889 
L 284.245728 -285.5956 
L 283.649677 -300.517311 
L 283.053626 -315.439023 
L 282.457576 -330.360734 
L 281.861525 -311.234753 
L 281.265475 -292.108772 
L 280.669424 -272.982791 
L 280.073373 -253.85681 
L 279.477323 -237.924954 
L 278.881272 -243.679978 
L 278.285222 -249.435003 
L 277.689171 -255.190028 
L 277.09312 -260.945053 
L 276.49707 -266.700078 
L 275.901019 -265.927931 
L 275.304969 -260.689825 
L 274.708918 -255.451718 
L 274.112867 -250.213612 
L 273.516817 -269.655129 
L 272.920766 -290.710938 
L 272.324716 -311.766748 
L 271.728665 -332.822558 
L 271.132614 -353.878368 
L 270.536564 -374.934178 
L 269.940513 -389.987273 
L 269.344463 -379.028602 
L 268.748412 -368.069932 
L 268.152361 -357.111262 
L 267.556311 -346.152592 
L 266.96026 -335.193921 
L 266.36421 -324.235251 
L 265.768159 -318.894838 
L 265.172108 -323.236952 
L 264.576058 -327.579067 
L 263.980007 -331.921182 
L 263.383957 -319.813445 
L 262.787906 -303.09975 
L 262.191855 -286.386054 
L 261.595805 -269.672359 
L 260.999754 -255.95356 
L 260.403704 -257.64216 
L 259.807653 -259.33076 
L 259.211603 -261.01936 
L 258.615552 -262.707961 
L 258.019501 -264.396561 
L 257.423451 -262.37304 
L 256.8274 -257.03155 
L 256.23135 -251.69006 
L 255.635299 -246.34857 
L 255.039248 -241.00708 
L 254.443198 -235.665589 
L 253.847147 -251.621138 
L 253.251097 -275.153848 
L 252.655046 -303.067442 
L 252.058995 -330.981036 
L 251.462945 -358.89463 
L 250.866894 -335.663456 
L 250.270844 -310.782449 
L 249.674793 -293.695065 
L 249.078742 -278.807815 
L 248.482692 -263.920565 
L 247.886641 -266.29839 
L 247.290591 -291.253703 
L 246.69454 -317.444235 
L 246.098489 -343.634768 
L 245.502439 -369.825301 
L 244.906388 -373.432961 
L 244.310338 -359.476164 
L 243.714287 -345.519367 
L 243.118236 -331.56257 
L 242.522186 -317.605772 
L 241.926135 -303.648975 
L 241.330085 -289.692178 
L 240.734034 -275.735381 
L 240.137983 -261.778584 
L 239.541933 -247.821787 
L 238.945882 -235.415745 
L 238.349832 -231.383782 
L 237.753781 -227.351818 
L 237.15773 -223.319855 
L 236.56168 -223.813081 
L 235.965629 -230.188408 
L 235.369579 -236.563735 
L 234.773528 -249.226082 
L 234.177477 -272.866484 
L 233.581427 -296.506886 
L 232.985376 -320.147288 
L 232.389326 -309.619383 
L 231.793275 -287.702043 
L 231.197224 -265.784702 
L 230.601174 -243.867361 
L 230.005123 -226.337366 
L 229.409073 -245.296425 
L 228.813022 -276.966293 
L 228.216972 -308.636161 
L 227.620921 -340.306029 
L 227.02487 -371.975897 
L 226.42882 -384.727628 
L 225.832769 -361.362916 
L 225.236719 -337.998204 
L 224.640668 -314.633492 
L 224.044617 -291.26878 
L 223.448567 -291.698468 
L 222.852516 -299.831318 
L 222.256466 -307.964167 
L 221.660415 -316.097017 
L 221.064364 -324.229867 
L 220.468314 -332.362716 
L 219.872263 -308.931235 
L 219.276213 -283.395466 
L 218.680162 -269.662667 
L 218.084111 -257.911388 
L 217.488061 -246.16011 
L 216.89201 -234.408831 
L 216.29596 -222.657553 
L 215.699909 -225.417682 
L 215.103858 -241.92461 
L 214.507808 -258.431538 
L 213.911757 -261.903506 
L 213.315707 -253.87404 
L 212.719656 -245.844574 
L 212.123605 -245.053043 
L 211.527555 -262.93842 
L 210.931504 -280.823797 
L 210.335454 -298.709174 
L 209.739403 -316.594551 
L 209.143352 -334.479928 
L 208.547302 -352.365305 
L 207.951251 -364.642117 
L 207.355201 -337.658976 
L 206.75915 -310.675835 
L 206.163099 -295.359973 
L 205.567049 -295.291051 
L 204.970998 -295.222128 
L 204.374948 -295.153206 
L 203.778897 -295.084284 
L 203.182846 -304.089433 
L 202.586796 -325.35201 
L 201.990745 -346.614587 
L 201.394695 -346.773971 
L 200.798644 -338.675582 
L 200.202594 -330.577194 
L 199.606543 -322.478805 
L 199.010492 -314.380417 
L 198.414442 -306.282029 
L 197.818391 -298.18364 
L 197.222341 -290.085252 
L 196.62629 -281.986863 
L 196.030239 -274.829697 
L 195.434189 -272.305412 
L 194.838138 -262.104889 
L 194.242088 -252.342669 
L 193.646037 -255.513102 
L 193.049986 -258.683535 
L 192.453936 -261.853968 
L 191.857885 -265.024401 
L 191.261835 -268.194834 
L 190.665784 -271.365267 
L 190.069733 -274.5357 
L 189.473683 -277.706133 
L 188.877632 -269.727282 
L 188.281582 -260.595057 
L 187.685531 -251.462831 
L 187.08948 -242.330606 
L 186.49343 -233.198381 
L 185.897379 -224.066156 
L 185.301329 -220.613571 
L 184.705278 -224.817841 
L 184.109227 -229.022111 
L 183.513177 -233.226381 
L 182.917126 -228.332886 
L 182.321076 -214.341628 
L 181.725025 -201.091286 
L 181.128974 -208.052454 
L 180.532924 -220.315266 
L 179.936873 -234.272063 
L 179.340823 -248.22886 
L 178.744772 -262.185658 
L 178.148721 -276.142455 
L 177.552671 -291.00709 
L 176.95662 -310.074917 
L 176.36057 -296.339965 
L 175.764519 -290.481556 
L 175.168468 -284.623147 
L 174.572418 -278.764739 
L 173.976367 -272.90633 
L 173.380317 -267.047921 
L 172.784266 -266.157314 
L 172.188215 -274.496931 
L 171.592165 -282.836548 
L 170.996114 -291.176165 
L 170.400064 -286.058673 
L 169.804013 -274.824313 
L 169.207963 -263.589953 
L 168.611912 -252.355592 
L 168.015861 -241.121232 
L 167.419811 -231.982546 
L 166.82376 -238.771407 
L 166.22771 -245.560269 
L 165.631659 -252.349131 
L 165.035608 -259.137993 
L 164.439558 -259.985524 
L 163.843507 -252.44713 
L 163.247457 -250.413918 
L 162.651406 -248.380705 
L 162.055355 -246.347493 
L 161.459305 -244.31428 
L 160.863254 -242.281068 
L 160.267204 -240.247856 
L 159.671153 -238.214643 
L 159.075102 -236.181431 
L 158.479052 -234.148218 
L 157.883001 -231.331013 
L 157.286951 -228.401809 
L 156.6909 -225.472604 
L 156.094849 -222.5434 
L 155.498799 -219.614196 
L 154.902748 -216.684991 
L 154.306698 -213.755787 
L 153.710647 -215.391619 
L 153.114596 -235.310208 
L 152.518546 -255.228797 
L 151.922495 -258.040618 
L 151.326445 -241.464768 
L 150.730394 -224.888917 
L 150.134343 -230.427483 
L 149.538293 -241.110463 
L 148.942242 -251.793444 
L 148.346192 -262.476424 
L 147.750141 -273.159405 
L 147.15409 -283.842385 
L 146.55804 -294.525366 
L 145.961989 -303.633899 
L 145.365939 -289.125722 
L 144.769888 -274.617545 
L 144.173837 -260.109369 
L 143.577787 -245.601192 
L 142.981736 -231.093015 
L 142.385686 -216.584839 
L 141.789635 -202.076662 
L 141.193584 -202.132661 
L 140.597534 -208.645833 
L 140.001483 -215.159005 
L 139.405433 -211.495346 
L 138.809382 -206.719235 
L 138.213332 -204.169104 
L 137.617281 -201.618974 
L 137.02123 -199.068843 
L 136.42518 -204.577255 
L 135.829129 -221.394334 
L 135.233079 -238.211412 
L 134.637028 -255.028491 
L 134.040977 -271.84557 
L 133.444927 -280.12488 
L 132.848876 -262.790883 
L 132.252826 -245.456886 
L 131.656775 -228.122888 
L 131.060724 -210.788891 
L 130.464674 -209.337212 
L 129.868623 -228.635499 
L 129.272573 -247.933786 
L 128.676522 -267.920221 
L 128.080471 -288.562496 
L 127.484421 -309.204771 
L 126.88837 -294.286291 
L 126.29232 -276.503221 
L 125.696269 -258.962456 
L 125.100218 -241.421691 
L 124.504168 -223.880926 
L 123.908117 -210.375356 
L 123.312067 -236.359122 
L 122.716016 -262.342887 
L 122.119965 -288.326652 
L 121.523915 -314.310418 
L 120.927864 -317.558388 
L 120.331814 -291.574623 
L 119.735763 -265.674857 
L 119.139712 -258.851534 
L 118.543662 -252.028211 
L 117.947611 -245.204888 
L 117.351561 -238.381565 
L 116.75551 -239.17525 
L 116.159459 -240.174626 
L 115.563409 -247.199331 
L 114.967358 -264.475175 
L 114.371308 -244.694431 
L 113.775257 -235.772204 
L 113.179206 -232.636232 
L 112.583156 -229.50026 
L 111.987105 -226.364289 
L 111.391055 -223.228317 
L 110.795004 -220.092345 
L 110.198953 -216.956374 
L 109.602903 -213.820402 
L 109.006852 -210.68443 
L 108.410802 -202.443889 
L 107.814751 -191.140607 
L 107.218701 -179.837324 
L 106.62265 -168.534042 
L 106.026599 -171.535399 
L 105.430549 -195.968409 
L 104.834498 -220.401419 
L 104.238448 -244.83443 
L 103.642397 -269.26744 
L 103.046346 -293.70045 
L 102.450296 -309.59246 
L 101.854245 -294.9809 
L 101.258195 -280.369339 
L 100.662144 -265.757779 
L 100.066093 -251.146219 
L 99.470043 -236.534658 
L 98.873992 -222.305402 
L 98.277942 -223.959541 
L 97.681891 -225.61368 
L 97.08584 -227.267819 
L 96.48979 -228.921958 
L 95.893739 -215.904229 
L 95.297689 -199.500685 
L 94.701638 -183.097141 
L 94.105587 -166.693597 
L 93.509537 -150.290053 
L 92.913486 -148.337609 
L 92.317436 -146.821315 
L 91.721385 -158.416441 
L 91.125334 -171.201556 
L 90.529284 -183.986671 
L 89.933233 -191.99783 
L 89.337183 -193.031667 
L 88.741132 -194.065503 
L 88.145081 -195.09934 
L 87.549031 -196.133177 
L 86.95298 -197.167014 
L 86.35693 -198.200851 
L 85.760879 -199.234688 
L 85.164828 -200.268524 
L 84.568778 -201.302361 
L 83.972727 -202.336198 
z
" style="stroke: #00008b; stroke-opacity: 0.3"/>
    </defs>
    <g clip-path="url(#padd05c22f6)">
     <use xlink:href="#m9479da67e4" x="0" y="432" style="fill: #00008b; fill-opacity: 0.3; stroke: #00008b; stroke-opacity: 0.3"/>
    </g>
   </g>
   <g id="matplotlib.axis_1">
    <g id="xtick_1">
     <g id="line2d_1">
      <defs>
       <path id="m27e48eedc5" d="M 0 0 
L 0 3.5 
" style="stroke: #000000; stroke-width: 0.8"/>
      </defs>
      <g>
       <use xlink:href="#m27e48eedc5" x="77.770076" y="390.04" style="stroke: #000000; stroke-width: 0.8"/>
      </g>
     </g>
     <g id="text_1">
      <!-- 0 -->
      <g transform="translate(74.588826 404.638438) scale(0.1 -0.1)">
       <defs>
        <path id="DejaVuSans-30" d="M 2034 4250 
Q 1547 4250 1301 3770 
Q 1056 3291 1056 2328 
Q 1056 1369 1301 889 
Q 1547 409 2034 409 
Q 2525 409 2770 889 
Q 3016 1369 3016 2328 
Q 3016 3291 2770 3770 
Q 2525 4250 2034 4250 
z
M 2034 4750 
Q 2819 4750 3233 4129 
Q 3647 3509 3647 2328 
Q 3647 1150 3233 529 
Q 2819 -91 2034 -91 
Q 1250 -91 836 529 
Q 422 1150 422 2328 
Q 422 3509 836 4129 
Q 1250 4750 2034 4750 
z
" transform="scale(0.015625)"/>
       </defs>
       <use xlink:href="#DejaVuSans-30"/>
      </g>
     </g>
    </g>
    <g id="xtick_2">
     <g id="line2d_2">
      <g>
       <use xlink:href="#m27e48eedc5" x="198.915613" y="390.04" style="stroke: #000000; stroke-width: 0.8"/>
      </g>
     </g>
     <g id="text_2">
      <!-- 20000 -->
      <g transform="translate(183.009363 404.638438) scale(0.1 -0.1)">
       <defs>
        <path id="DejaVuSans-32" d="M 1228 531 
L 3431 531 
L 3431 0 
L 469 0 
L 469 531 
Q 828 903 1448 1529 
Q 2069 2156 2228 2338 
Q 2531 2678 2651 2914 
Q 2772 3150 2772 3378 
Q 2772 3750 2511 3984 
Q 2250 4219 1831 4219 
Q 1534 4219 1204 4116 
Q 875 4013 500 3803 
L 500 4441 
Q 881 4594 1212 4672 
Q 1544 4750 1819 4750 
Q 2544 4750 2975 4387 
Q 3406 4025 3406 3419 
Q 3406 3131 3298 2873 
Q 3191 2616 2906 2266 
Q 2828 2175 2409 1742 
Q 1991 1309 1228 531 
z
" transform="scale(0.015625)"/>
       </defs>
       <use xlink:href="#DejaVuSans-32"/>
       <use xlink:href="#DejaVuSans-30" transform="translate(63.623047 0)"/>
       <use xlink:href="#DejaVuSans-30" transform="translate(127.246094 0)"/>
       <use xlink:href="#DejaVuSans-30" transform="translate(190.869141 0)"/>
       <use xlink:href="#DejaVuSans-30" transform="translate(254.492188 0)"/>
      </g>
     </g>
    </g>
    <g id="xtick_3">
     <g id="line2d_3">
      <g>
       <use xlink:href="#m27e48eedc5" x="320.061151" y="390.04" style="stroke: #000000; stroke-width: 0.8"/>
      </g>
     </g>
     <g id="text_3">
      <!-- 40000 -->
      <g transform="translate(304.154901 404.638438) scale(0.1 -0.1)">
       <defs>
        <path id="DejaVuSans-34" d="M 2419 4116 
L 825 1625 
L 2419 1625 
L 2419 4116 
z
M 2253 4666 
L 3047 4666 
L 3047 1625 
L 3713 1625 
L 3713 1100 
L 3047 1100 
L 3047 0 
L 2419 0 
L 2419 1100 
L 313 1100 
L 313 1709 
L 2253 4666 
z
" transform="scale(0.015625)"/>
       </defs>
       <use xlink:href="#DejaVuSans-34"/>
       <use xlink:href="#DejaVuSans-30" transform="translate(63.623047 0)"/>
       <use xlink:href="#DejaVuSans-30" transform="translate(127.246094 0)"/>
       <use xlink:href="#DejaVuSans-30" transform="translate(190.869141 0)"/>
       <use xlink:href="#DejaVuSans-30" transform="translate(254.492188 0)"/>
      </g>
     </g>
    </g>
    <g id="xtick_4">
     <g id="line2d_4">
      <g>
       <use xlink:href="#m27e48eedc5" x="441.206688" y="390.04" style="stroke: #000000; stroke-width: 0.8"/>
      </g>
     </g>
     <g id="text_4">
      <!-- 60000 -->
      <g transform="translate(425.300438 404.638438) scale(0.1 -0.1)">
       <defs>
        <path id="DejaVuSans-36" d="M 2113 2584 
Q 1688 2584 1439 2293 
Q 1191 2003 1191 1497 
Q 1191 994 1439 701 
Q 1688 409 2113 409 
Q 2538 409 2786 701 
Q 3034 994 3034 1497 
Q 3034 2003 2786 2293 
Q 2538 2584 2113 2584 
z
M 3366 4563 
L 3366 3988 
Q 3128 4100 2886 4159 
Q 2644 4219 2406 4219 
Q 1781 4219 1451 3797 
Q 1122 3375 1075 2522 
Q 1259 2794 1537 2939 
Q 1816 3084 2150 3084 
Q 2853 3084 3261 2657 
Q 3669 2231 3669 1497 
Q 3669 778 3244 343 
Q 2819 -91 2113 -91 
Q 1303 -91 875 529 
Q 447 1150 447 2328 
Q 447 3434 972 4092 
Q 1497 4750 2381 4750 
Q 2619 4750 2861 4703 
Q 3103 4656 3366 4563 
z
" transform="scale(0.015625)"/>
       </defs>
       <use xlink:href="#DejaVuSans-36"/>
       <use xlink:href="#DejaVuSans-30" transform="translate(63.623047 0)"/>
       <use xlink:href="#DejaVuSans-30" transform="translate(127.246094 0)"/>
       <use xlink:href="#DejaVuSans-30" transform="translate(190.869141 0)"/>
       <use xlink:href="#DejaVuSans-30" transform="translate(254.492188 0)"/>
      </g>
     </g>
    </g>
    <g id="xtick_5">
     <g id="line2d_5">
      <g>
       <use xlink:href="#m27e48eedc5" x="562.352225" y="390.04" style="stroke: #000000; stroke-width: 0.8"/>
      </g>
     </g>
     <g id="text_5">
      <!-- 80000 -->
      <g transform="translate(546.445975 404.638438) scale(0.1 -0.1)">
       <defs>
        <path id="DejaVuSans-38" d="M 2034 2216 
Q 1584 2216 1326 1975 
Q 1069 1734 1069 1313 
Q 1069 891 1326 650 
Q 1584 409 2034 409 
Q 2484 409 2743 651 
Q 3003 894 3003 1313 
Q 3003 1734 2745 1975 
Q 2488 2216 2034 2216 
z
M 1403 2484 
Q 997 2584 770 2862 
Q 544 3141 544 3541 
Q 544 4100 942 4425 
Q 1341 4750 2034 4750 
Q 2731 4750 3128 4425 
Q 3525 4100 3525 3541 
Q 3525 3141 3298 2862 
Q 3072 2584 2669 2484 
Q 3125 2378 3379 2068 
Q 3634 1759 3634 1313 
Q 3634 634 3220 271 
Q 2806 -91 2034 -91 
Q 1263 -91 848 271 
Q 434 634 434 1313 
Q 434 1759 690 2068 
Q 947 2378 1403 2484 
z
M 1172 3481 
Q 1172 3119 1398 2916 
Q 1625 2713 2034 2713 
Q 2441 2713 2670 2916 
Q 2900 3119 2900 3481 
Q 2900 3844 2670 4047 
Q 2441 4250 2034 4250 
Q 1625 4250 1398 4047 
Q 1172 3844 1172 3481 
z
" transform="scale(0.015625)"/>
       </defs>
       <use xlink:href="#DejaVuSans-38"/>
       <use xlink:href="#DejaVuSans-30" transform="translate(63.623047 0)"/>
       <use xlink:href="#DejaVuSans-30" transform="translate(127.246094 0)"/>
       <use xlink:href="#DejaVuSans-30" transform="translate(190.869141 0)"/>
       <use xlink:href="#DejaVuSans-30" transform="translate(254.492188 0)"/>
      </g>
     </g>
    </g>
    <g id="xtick_6">
     <g id="line2d_6">
      <g>
       <use xlink:href="#m27e48eedc5" x="683.497763" y="390.04" style="stroke: #000000; stroke-width: 0.8"/>
      </g>
     </g>
     <g id="text_6">
      <!-- 100000 -->
      <g transform="translate(664.410263 404.638438) scale(0.1 -0.1)">
       <defs>
        <path id="DejaVuSans-31" d="M 794 531 
L 1825 531 
L 1825 4091 
L 703 3866 
L 703 4441 
L 1819 4666 
L 2450 4666 
L 2450 531 
L 3481 531 
L 3481 0 
L 794 0 
L 794 531 
z
" transform="scale(0.015625)"/>
       </defs>
       <use xlink:href="#DejaVuSans-31"/>
       <use xlink:href="#DejaVuSans-30" transform="translate(63.623047 0)"/>
       <use xlink:href="#DejaVuSans-30" transform="translate(127.246094 0)"/>
       <use xlink:href="#DejaVuSans-30" transform="translate(190.869141 0)"/>
       <use xlink:href="#DejaVuSans-30" transform="translate(254.492188 0)"/>
       <use xlink:href="#DejaVuSans-30" transform="translate(318.115234 0)"/>
      </g>
     </g>
    </g>
    <g id="text_7">
     <!-- Step -->
     <g transform="translate(370.314844 418.316562) scale(0.1 -0.1)">
      <defs>
       <path id="DejaVuSans-53" d="M 3425 4513 
L 3425 3897 
Q 3066 4069 2747 4153 
Q 2428 4238 2131 4238 
Q 1616 4238 1336 4038 
Q 1056 3838 1056 3469 
Q 1056 3159 1242 3001 
Q 1428 2844 1947 2747 
L 2328 2669 
Q 3034 2534 3370 2195 
Q 3706 1856 3706 1288 
Q 3706 609 3251 259 
Q 2797 -91 1919 -91 
Q 1588 -91 1214 -16 
Q 841 59 441 206 
L 441 856 
Q 825 641 1194 531 
Q 1563 422 1919 422 
Q 2459 422 2753 634 
Q 3047 847 3047 1241 
Q 3047 1584 2836 1778 
Q 2625 1972 2144 2069 
L 1759 2144 
Q 1053 2284 737 2584 
Q 422 2884 422 3419 
Q 422 4038 858 4394 
Q 1294 4750 2059 4750 
Q 2388 4750 2728 4690 
Q 3069 4631 3425 4513 
z
" transform="scale(0.015625)"/>
       <path id="DejaVuSans-74" d="M 1172 4494 
L 1172 3500 
L 2356 3500 
L 2356 3053 
L 1172 3053 
L 1172 1153 
Q 1172 725 1289 603 
Q 1406 481 1766 481 
L 2356 481 
L 2356 0 
L 1766 0 
Q 1100 0 847 248 
Q 594 497 594 1153 
L 594 3053 
L 172 3053 
L 172 3500 
L 594 3500 
L 594 4494 
L 1172 4494 
z
" transform="scale(0.015625)"/>
       <path id="DejaVuSans-65" d="M 3597 1894 
L 3597 1613 
L 953 1613 
Q 991 1019 1311 708 
Q 1631 397 2203 397 
Q 2534 397 2845 478 
Q 3156 559 3463 722 
L 3463 178 
Q 3153 47 2828 -22 
Q 2503 -91 2169 -91 
Q 1331 -91 842 396 
Q 353 884 353 1716 
Q 353 2575 817 3079 
Q 1281 3584 2069 3584 
Q 2775 3584 3186 3129 
Q 3597 2675 3597 1894 
z
M 3022 2063 
Q 3016 2534 2758 2815 
Q 2500 3097 2075 3097 
Q 1594 3097 1305 2825 
Q 1016 2553 972 2059 
L 3022 2063 
z
" transform="scale(0.015625)"/>
       <path id="DejaVuSans-70" d="M 1159 525 
L 1159 -1331 
L 581 -1331 
L 581 3500 
L 1159 3500 
L 1159 2969 
Q 1341 3281 1617 3432 
Q 1894 3584 2278 3584 
Q 2916 3584 3314 3078 
Q 3713 2572 3713 1747 
Q 3713 922 3314 415 
Q 2916 -91 2278 -91 
Q 1894 -91 1617 61 
Q 1341 213 1159 525 
z
M 3116 1747 
Q 3116 2381 2855 2742 
Q 2594 3103 2138 3103 
Q 1681 3103 1420 2742 
Q 1159 2381 1159 1747 
Q 1159 1113 1420 752 
Q 1681 391 2138 391 
Q 2594 391 2855 752 
Q 3116 1113 3116 1747 
z
" transform="scale(0.015625)"/>
      </defs>
      <use xlink:href="#DejaVuSans-53"/>
      <use xlink:href="#DejaVuSans-74" transform="translate(63.476562 0)"/>
      <use xlink:href="#DejaVuSans-65" transform="translate(102.685547 0)"/>
      <use xlink:href="#DejaVuSans-70" transform="translate(164.208984 0)"/>
     </g>
    </g>
   </g>
   <g id="matplotlib.axis_2">
    <g id="ytick_1">
     <g id="line2d_7">
      <defs>
       <path id="m1ce2f2f11b" d="M 0 0 
L -3.5 0 
" style="stroke: #000000; stroke-width: 0.8"/>
      </defs>
      <g>
       <use xlink:href="#m1ce2f2f11b" x="54.2" y="373.467273" style="stroke: #000000; stroke-width: 0.8"/>
      </g>
     </g>
     <g id="text_8">
      <!-- 0.00 -->
      <g transform="translate(24.934375 377.266491) scale(0.1 -0.1)">
       <defs>
        <path id="DejaVuSans-2e" d="M 684 794 
L 1344 794 
L 1344 0 
L 684 0 
L 684 794 
z
" transform="scale(0.015625)"/>
       </defs>
       <use xlink:href="#DejaVuSans-30"/>
       <use xlink:href="#DejaVuSans-2e" transform="translate(63.623047 0)"/>
       <use xlink:href="#DejaVuSans-30" transform="translate(95.410156 0)"/>
       <use xlink:href="#DejaVuSans-30" transform="translate(159.033203 0)"/>
      </g>
     </g>
    </g>
    <g id="ytick_2">
     <g id="line2d_8">
      <g>
       <use xlink:href="#m1ce2f2f11b" x="54.2" y="300.023505" style="stroke: #000000; stroke-width: 0.8"/>
      </g>
     </g>
     <g id="text_9">
      <!-- 0.05 -->
      <g transform="translate(24.934375 303.822724) scale(0.1 -0.1)">
       <defs>
        <path id="DejaVuSans-35" d="M 691 4666 
L 3169 4666 
L 3169 4134 
L 1269 4134 
L 1269 2991 
Q 1406 3038 1543 3061 
Q 1681 3084 1819 3084 
Q 2600 3084 3056 2656 
Q 3513 2228 3513 1497 
Q 3513 744 3044 326 
Q 2575 -91 1722 -91 
Q 1428 -91 1123 -41 
Q 819 9 494 109 
L 494 744 
Q 775 591 1075 516 
Q 1375 441 1709 441 
Q 2250 441 2565 725 
Q 2881 1009 2881 1497 
Q 2881 1984 2565 2268 
Q 2250 2553 1709 2553 
Q 1456 2553 1204 2497 
Q 953 2441 691 2322 
L 691 4666 
z
" transform="scale(0.015625)"/>
       </defs>
       <use xlink:href="#DejaVuSans-30"/>
       <use xlink:href="#DejaVuSans-2e" transform="translate(63.623047 0)"/>
       <use xlink:href="#DejaVuSans-30" transform="translate(95.410156 0)"/>
       <use xlink:href="#DejaVuSans-35" transform="translate(159.033203 0)"/>
      </g>
     </g>
    </g>
    <g id="ytick_3">
     <g id="line2d_9">
      <g>
       <use xlink:href="#m1ce2f2f11b" x="54.2" y="226.579738" style="stroke: #000000; stroke-width: 0.8"/>
      </g>
     </g>
     <g id="text_10">
      <!-- 0.10 -->
      <g transform="translate(24.934375 230.378956) scale(0.1 -0.1)">
       <use xlink:href="#DejaVuSans-30"/>
       <use xlink:href="#DejaVuSans-2e" transform="translate(63.623047 0)"/>
       <use xlink:href="#DejaVuSans-31" transform="translate(95.410156 0)"/>
       <use xlink:href="#DejaVuSans-30" transform="translate(159.033203 0)"/>
      </g>
     </g>
    </g>
    <g id="ytick_4">
     <g id="line2d_10">
      <g>
       <use xlink:href="#m1ce2f2f11b" x="54.2" y="153.13597" style="stroke: #000000; stroke-width: 0.8"/>
      </g>
     </g>
     <g id="text_11">
      <!-- 0.15 -->
      <g transform="translate(24.934375 156.935189) scale(0.1 -0.1)">
       <use xlink:href="#DejaVuSans-30"/>
       <use xlink:href="#DejaVuSans-2e" transform="translate(63.623047 0)"/>
       <use xlink:href="#DejaVuSans-31" transform="translate(95.410156 0)"/>
       <use xlink:href="#DejaVuSans-35" transform="translate(159.033203 0)"/>
      </g>
     </g>
    </g>
    <g id="ytick_5">
     <g id="line2d_11">
      <g>
       <use xlink:href="#m1ce2f2f11b" x="54.2" y="79.692202" style="stroke: #000000; stroke-width: 0.8"/>
      </g>
     </g>
     <g id="text_12">
      <!-- 0.20 -->
      <g transform="translate(24.934375 83.491421) scale(0.1 -0.1)">
       <use xlink:href="#DejaVuSans-30"/>
       <use xlink:href="#DejaVuSans-2e" transform="translate(63.623047 0)"/>
       <use xlink:href="#DejaVuSans-32" transform="translate(95.410156 0)"/>
       <use xlink:href="#DejaVuSans-30" transform="translate(159.033203 0)"/>
      </g>
     </g>
    </g>
    <g id="text_13">
     <!-- losses/clipfrac -->
     <g transform="translate(18.854688 243.093906) rotate(-90) scale(0.1 -0.1)">
      <defs>
       <path id="DejaVuSans-6c" d="M 603 4863 
L 1178 4863 
L 1178 0 
L 603 0 
L 603 4863 
z
" transform="scale(0.015625)"/>
       <path id="DejaVuSans-6f" d="M 1959 3097 
Q 1497 3097 1228 2736 
Q 959 2375 959 1747 
Q 959 1119 1226 758 
Q 1494 397 1959 397 
Q 2419 397 2687 759 
Q 2956 1122 2956 1747 
Q 2956 2369 2687 2733 
Q 2419 3097 1959 3097 
z
M 1959 3584 
Q 2709 3584 3137 3096 
Q 3566 2609 3566 1747 
Q 3566 888 3137 398 
Q 2709 -91 1959 -91 
Q 1206 -91 779 398 
Q 353 888 353 1747 
Q 353 2609 779 3096 
Q 1206 3584 1959 3584 
z
" transform="scale(0.015625)"/>
       <path id="DejaVuSans-73" d="M 2834 3397 
L 2834 2853 
Q 2591 2978 2328 3040 
Q 2066 3103 1784 3103 
Q 1356 3103 1142 2972 
Q 928 2841 928 2578 
Q 928 2378 1081 2264 
Q 1234 2150 1697 2047 
L 1894 2003 
Q 2506 1872 2764 1633 
Q 3022 1394 3022 966 
Q 3022 478 2636 193 
Q 2250 -91 1575 -91 
Q 1294 -91 989 -36 
Q 684 19 347 128 
L 347 722 
Q 666 556 975 473 
Q 1284 391 1588 391 
Q 1994 391 2212 530 
Q 2431 669 2431 922 
Q 2431 1156 2273 1281 
Q 2116 1406 1581 1522 
L 1381 1569 
Q 847 1681 609 1914 
Q 372 2147 372 2553 
Q 372 3047 722 3315 
Q 1072 3584 1716 3584 
Q 2034 3584 2315 3537 
Q 2597 3491 2834 3397 
z
" transform="scale(0.015625)"/>
       <path id="DejaVuSans-2f" d="M 1625 4666 
L 2156 4666 
L 531 -594 
L 0 -594 
L 1625 4666 
z
" transform="scale(0.015625)"/>
       <path id="DejaVuSans-63" d="M 3122 3366 
L 3122 2828 
Q 2878 2963 2633 3030 
Q 2388 3097 2138 3097 
Q 1578 3097 1268 2742 
Q 959 2388 959 1747 
Q 959 1106 1268 751 
Q 1578 397 2138 397 
Q 2388 397 2633 464 
Q 2878 531 3122 666 
L 3122 134 
Q 2881 22 2623 -34 
Q 2366 -91 2075 -91 
Q 1284 -91 818 406 
Q 353 903 353 1747 
Q 353 2603 823 3093 
Q 1294 3584 2113 3584 
Q 2378 3584 2631 3529 
Q 2884 3475 3122 3366 
z
" transform="scale(0.015625)"/>
       <path id="DejaVuSans-69" d="M 603 3500 
L 1178 3500 
L 1178 0 
L 603 0 
L 603 3500 
z
M 603 4863 
L 1178 4863 
L 1178 4134 
L 603 4134 
L 603 4863 
z
" transform="scale(0.015625)"/>
       <path id="DejaVuSans-66" d="M 2375 4863 
L 2375 4384 
L 1825 4384 
Q 1516 4384 1395 4259 
Q 1275 4134 1275 3809 
L 1275 3500 
L 2222 3500 
L 2222 3053 
L 1275 3053 
L 1275 0 
L 697 0 
L 697 3053 
L 147 3053 
L 147 3500 
L 697 3500 
L 697 3744 
Q 697 4328 969 4595 
Q 1241 4863 1831 4863 
L 2375 4863 
z
" transform="scale(0.015625)"/>
       <path id="DejaVuSans-72" d="M 2631 2963 
Q 2534 3019 2420 3045 
Q 2306 3072 2169 3072 
Q 1681 3072 1420 2755 
Q 1159 2438 1159 1844 
L 1159 0 
L 581 0 
L 581 3500 
L 1159 3500 
L 1159 2956 
Q 1341 3275 1631 3429 
Q 1922 3584 2338 3584 
Q 2397 3584 2469 3576 
Q 2541 3569 2628 3553 
L 2631 2963 
z
" transform="scale(0.015625)"/>
       <path id="DejaVuSans-61" d="M 2194 1759 
Q 1497 1759 1228 1600 
Q 959 1441 959 1056 
Q 959 750 1161 570 
Q 1363 391 1709 391 
Q 2188 391 2477 730 
Q 2766 1069 2766 1631 
L 2766 1759 
L 2194 1759 
z
M 3341 1997 
L 3341 0 
L 2766 0 
L 2766 531 
Q 2569 213 2275 61 
Q 1981 -91 1556 -91 
Q 1019 -91 701 211 
Q 384 513 384 1019 
Q 384 1609 779 1909 
Q 1175 2209 1959 2209 
L 2766 2209 
L 2766 2266 
Q 2766 2663 2505 2880 
Q 2244 3097 1772 3097 
Q 1472 3097 1187 3025 
Q 903 2953 641 2809 
L 641 3341 
Q 956 3463 1253 3523 
Q 1550 3584 1831 3584 
Q 2591 3584 2966 3190 
Q 3341 2797 3341 1997 
z
" transform="scale(0.015625)"/>
      </defs>
      <use xlink:href="#DejaVuSans-6c"/>
      <use xlink:href="#DejaVuSans-6f" transform="translate(27.783203 0)"/>
      <use xlink:href="#DejaVuSans-73" transform="translate(88.964844 0)"/>
      <use xlink:href="#DejaVuSans-73" transform="translate(141.064453 0)"/>
      <use xlink:href="#DejaVuSans-65" transform="translate(193.164062 0)"/>
      <use xlink:href="#DejaVuSans-73" transform="translate(254.6875 0)"/>
      <use xlink:href="#DejaVuSans-2f" transform="translate(306.787109 0)"/>
      <use xlink:href="#DejaVuSans-63" transform="translate(340.478516 0)"/>
      <use xlink:href="#DejaVuSans-6c" transform="translate(395.458984 0)"/>
      <use xlink:href="#DejaVuSans-69" transform="translate(423.242188 0)"/>
      <use xlink:href="#DejaVuSans-70" transform="translate(451.025391 0)"/>
      <use xlink:href="#DejaVuSans-66" transform="translate(514.501953 0)"/>
      <use xlink:href="#DejaVuSans-72" transform="translate(549.707031 0)"/>
      <use xlink:href="#DejaVuSans-61" transform="translate(590.820312 0)"/>
      <use xlink:href="#DejaVuSans-63" transform="translate(652.099609 0)"/>
     </g>
    </g>
   </g>
   <g id="line2d_12">
    <path d="M 83.972727 350.26955 
L 89.933233 361.135605 
L 90.529284 360.295646 
L 96.48979 339.119559 
L 102.450296 339.151866 
L 104.238448 339.850446 
L 108.410802 341.606892 
L 109.006852 340.998436 
L 114.967358 320.590928 
L 117.351561 318.227743 
L 120.927864 314.751466 
L 121.523915 314.97533 
L 126.88837 322.612799 
L 127.484421 323.209847 
L 133.444927 315.596069 
L 134.040977 315.833798 
L 140.001483 321.40595 
L 145.961989 323.172087 
L 148.346192 320.893339 
L 152.518546 316.719626 
L 158.479052 308.797179 
L 164.439558 287.549678 
L 165.035608 287.580606 
L 170.996114 296.191538 
L 176.95662 300.660728 
L 178.744772 300.815299 
L 182.917126 301.086681 
L 183.513177 300.829837 
L 189.473683 295.383718 
L 197.222341 299.18677 
L 201.394695 301.455827 
L 201.990745 301.400164 
L 207.951251 291.13718 
L 208.547302 291.066373 
L 217.488061 291.951629 
L 220.468314 292.129724 
L 226.42882 283.191343 
L 227.02487 283.114478 
L 232.389326 286.274142 
L 232.985376 286.974943 
L 238.945882 304.474785 
L 239.541933 303.662389 
L 244.906388 292.080186 
L 245.502439 291.296462 
L 251.462945 289.972296 
L 257.423451 302.529106 
L 258.019501 301.075003 
L 263.383957 273.355254 
L 263.980007 271.024645 
L 269.940513 274.481537 
L 271.132614 277.901679 
L 275.901019 292.711391 
L 276.49707 292.749184 
L 282.457576 266.623266 
L 288.418082 294.095326 
L 289.014132 294.798954 
L 294.378588 288.547472 
L 294.974638 288.350397 
L 300.935144 307.939451 
L 301.531195 307.232996 
L 306.89565 294.158191 
L 307.491701 293.346333 
L 313.452207 295.909387 
L 320.008763 305.758634 
L 325.373219 307.580772 
L 325.969269 307.469075 
L 331.929775 289.3877 
L 332.525826 289.014011 
L 337.890281 289.954157 
L 338.486332 290.569108 
L 344.446838 306.464349 
L 345.638939 307.095757 
L 350.407344 309.29266 
L 351.003394 309.158786 
L 356.9639 304.257888 
L 362.924406 302.685595 
L 363.520457 302.835656 
L 368.884912 305.268403 
L 369.480963 305.745341 
L 375.441469 315.060641 
L 376.037519 314.848355 
L 387.958531 308.210867 
L 393.919037 311.77545 
L 394.515088 311.276772 
L 401.071644 301.341775 
L 406.4361 292.134166 
L 407.03215 294.530702 
L 412.396606 320.49616 
L 412.992656 321.562405 
L 418.953162 311.759195 
L 424.913668 325.403688 
L 425.509719 324.24089 
L 430.874174 301.861554 
L 431.470225 300.354414 
L 438.622832 317.787151 
L 443.391237 330.356883 
L 443.987287 330.468007 
L 449.947793 312.85482 
L 455.908299 310.61484 
L 456.50435 310.93401 
L 462.464856 317.337606 
L 470.809564 323.230073 
L 474.385868 325.614359 
L 474.981918 325.540994 
L 480.942424 317.927217 
L 486.90293 343.579293 
L 487.498981 344.09261 
L 493.459487 335.336766 
L 499.419993 334.442928 
L 501.208145 333.527821 
L 505.976549 330.839576 
L 511.937055 324.625786 
L 514.917308 329.77535 
L 518.493612 336.18009 
L 523.858067 348.149982 
L 524.454118 348.985768 
L 530.414624 330.656703 
L 531.010674 331.363158 
L 536.37513 345.339339 
L 536.97118 346.46431 
L 542.931686 349.544282 
L 545.911939 349.212593 
L 548.892192 348.857211 
L 550.084293 348.370413 
L 555.448749 345.750013 
L 561.409255 346.385392 
L 563.197406 346.116332 
L 567.369761 345.37757 
L 567.965811 345.821931 
L 573.926317 362.36332 
L 574.522368 361.707379 
L 579.886823 353.653144 
L 580.482874 353.15561 
L 586.44338 352.233537 
L 592.403886 359.707315 
L 592.999936 360.060812 
L 604.920948 363.494651 
L 609.093302 363.752707 
L 612.073555 363.853835 
L 617.438011 363.766202 
L 623.398517 369.764609 
L 623.994567 369.937588 
L 629.955073 369.505746 
L 635.915579 371.971878 
L 638.895832 372.344254 
L 642.472136 372.662145 
L 648.432642 371.174188 
L 654.989198 372.616713 
L 667.506261 373.34262 
L 673.466767 372.950354 
L 679.427273 373.467273 
L 679.427273 373.467273 
" clip-path="url(#padd05c22f6)" style="fill: none; stroke: #00008b; stroke-width: 1.5; stroke-linecap: square"/>
   </g>
   <g id="patch_3">
    <path d="M 54.2 390.04 
L 54.2 25.44 
" style="fill: none; stroke: #000000; stroke-width: 0.8; stroke-linejoin: miter; stroke-linecap: square"/>
   </g>
   <g id="patch_4">
    <path d="M 709.2 390.04 
L 709.2 25.44 
" style="fill: none; stroke: #000000; stroke-width: 0.8; stroke-linejoin: miter; stroke-linecap: square"/>
   </g>
   <g id="patch_5">
    <path d="M 54.2 390.04 
L 709.2 390.04 
" style="fill: none; stroke: #000000; stroke-width: 0.8; stroke-linejoin: miter; stroke-linecap: square"/>
   </g>
   <g id="patch_6">
    <path d="M 54.2 25.44 
L 709.2 25.44 
" style="fill: none; stroke: #000000; stroke-width: 0.8; stroke-linejoin: miter; stroke-linecap: square"/>
   </g>
   <g id="text_14">
    <!-- losses/clipfrac for ppo_atari (aggregated via interpolation over runs) -->
    <g transform="translate(176.439063 19.44) scale(0.12 -0.12)">
     <defs>
      <path id="DejaVuSans-20" transform="scale(0.015625)"/>
      <path id="DejaVuSans-5f" d="M 3263 -1063 
L 3263 -1509 
L -63 -1509 
L -63 -1063 
L 3263 -1063 
z
" transform="scale(0.015625)"/>
      <path id="DejaVuSans-28" d="M 1984 4856 
Q 1566 4138 1362 3434 
Q 1159 2731 1159 2009 
Q 1159 1288 1364 580 
Q 1569 -128 1984 -844 
L 1484 -844 
Q 1016 -109 783 600 
Q 550 1309 550 2009 
Q 550 2706 781 3412 
Q 1013 4119 1484 4856 
L 1984 4856 
z
" transform="scale(0.015625)"/>
      <path id="DejaVuSans-67" d="M 2906 1791 
Q 2906 2416 2648 2759 
Q 2391 3103 1925 3103 
Q 1463 3103 1205 2759 
Q 947 2416 947 1791 
Q 947 1169 1205 825 
Q 1463 481 1925 481 
Q 2391 481 2648 825 
Q 2906 1169 2906 1791 
z
M 3481 434 
Q 3481 -459 3084 -895 
Q 2688 -1331 1869 -1331 
Q 1566 -1331 1297 -1286 
Q 1028 -1241 775 -1147 
L 775 -588 
Q 1028 -725 1275 -790 
Q 1522 -856 1778 -856 
Q 2344 -856 2625 -561 
Q 2906 -266 2906 331 
L 2906 616 
Q 2728 306 2450 153 
Q 2172 0 1784 0 
Q 1141 0 747 490 
Q 353 981 353 1791 
Q 353 2603 747 3093 
Q 1141 3584 1784 3584 
Q 2172 3584 2450 3431 
Q 2728 3278 2906 2969 
L 2906 3500 
L 3481 3500 
L 3481 434 
z
" transform="scale(0.015625)"/>
      <path id="DejaVuSans-64" d="M 2906 2969 
L 2906 4863 
L 3481 4863 
L 3481 0 
L 2906 0 
L 2906 525 
Q 2725 213 2448 61 
Q 2172 -91 1784 -91 
Q 1150 -91 751 415 
Q 353 922 353 1747 
Q 353 2572 751 3078 
Q 1150 3584 1784 3584 
Q 2172 3584 2448 3432 
Q 2725 3281 2906 2969 
z
M 947 1747 
Q 947 1113 1208 752 
Q 1469 391 1925 391 
Q 2381 391 2643 752 
Q 2906 1113 2906 1747 
Q 2906 2381 2643 2742 
Q 2381 3103 1925 3103 
Q 1469 3103 1208 2742 
Q 947 2381 947 1747 
z
" transform="scale(0.015625)"/>
      <path id="DejaVuSans-76" d="M 191 3500 
L 800 3500 
L 1894 563 
L 2988 3500 
L 3597 3500 
L 2284 0 
L 1503 0 
L 191 3500 
z
" transform="scale(0.015625)"/>
      <path id="DejaVuSans-6e" d="M 3513 2113 
L 3513 0 
L 2938 0 
L 2938 2094 
Q 2938 2591 2744 2837 
Q 2550 3084 2163 3084 
Q 1697 3084 1428 2787 
Q 1159 2491 1159 1978 
L 1159 0 
L 581 0 
L 581 3500 
L 1159 3500 
L 1159 2956 
Q 1366 3272 1645 3428 
Q 1925 3584 2291 3584 
Q 2894 3584 3203 3211 
Q 3513 2838 3513 2113 
z
" transform="scale(0.015625)"/>
      <path id="DejaVuSans-75" d="M 544 1381 
L 544 3500 
L 1119 3500 
L 1119 1403 
Q 1119 906 1312 657 
Q 1506 409 1894 409 
Q 2359 409 2629 706 
Q 2900 1003 2900 1516 
L 2900 3500 
L 3475 3500 
L 3475 0 
L 2900 0 
L 2900 538 
Q 2691 219 2414 64 
Q 2138 -91 1772 -91 
Q 1169 -91 856 284 
Q 544 659 544 1381 
z
M 1991 3584 
L 1991 3584 
z
" transform="scale(0.015625)"/>
      <path id="DejaVuSans-29" d="M 513 4856 
L 1013 4856 
Q 1481 4119 1714 3412 
Q 1947 2706 1947 2009 
Q 1947 1309 1714 600 
Q 1481 -109 1013 -844 
L 513 -844 
Q 928 -128 1133 580 
Q 1338 1288 1338 2009 
Q 1338 2731 1133 3434 
Q 928 4138 513 4856 
z
" transform="scale(0.015625)"/>
     </defs>
     <use xlink:href="#DejaVuSans-6c"/>
     <use xlink:href="#DejaVuSans-6f" transform="translate(27.783203 0)"/>
     <use xlink:href="#DejaVuSans-73" transform="translate(88.964844 0)"/>
     <use xlink:href="#DejaVuSans-73" transform="translate(141.064453 0)"/>
     <use xlink:href="#DejaVuSans-65" transform="translate(193.164062 0)"/>
     <use xlink:href="#DejaVuSans-73" transform="translate(254.6875 0)"/>
     <use xlink:href="#DejaVuSans-2f" transform="translate(306.787109 0)"/>
     <use xlink:href="#DejaVuSans-63" transform="translate(340.478516 0)"/>
     <use xlink:href="#DejaVuSans-6c" transform="translate(395.458984 0)"/>
     <use xlink:href="#DejaVuSans-69" transform="translate(423.242188 0)"/>
     <use xlink:href="#DejaVuSans-70" transform="translate(451.025391 0)"/>
     <use xlink:href="#DejaVuSans-66" transform="translate(514.501953 0)"/>
     <use xlink:href="#DejaVuSans-72" transform="translate(549.707031 0)"/>
     <use xlink:href="#DejaVuSans-61" transform="translate(590.820312 0)"/>
     <use xlink:href="#DejaVuSans-63" transform="translate(652.099609 0)"/>
     <use xlink:href="#DejaVuSans-20" transform="translate(707.080078 0)"/>
     <use xlink:href="#DejaVuSans-66" transform="translate(738.867188 0)"/>
     <use xlink:href="#DejaVuSans-6f" transform="translate(774.072266 0)"/>
     <use xlink:href="#DejaVuSans-72" transform="translate(835.253906 0)"/>
     <use xlink:href="#DejaVuSans-20" transform="translate(876.367188 0)"/>
     <use xlink:href="#DejaVuSans-70" transform="translate(908.154297 0)"/>
     <use xlink:href="#DejaVuSans-70" transform="translate(971.630859 0)"/>
     <use xlink:href="#DejaVuSans-6f" transform="translate(1035.107422 0)"/>
     <use xlink:href="#DejaVuSans-5f" transform="translate(1096.289062 0)"/>
     <use xlink:href="#DejaVuSans-61" transform="translate(1146.289062 0)"/>
     <use xlink:href="#DejaVuSans-74" transform="translate(1207.568359 0)"/>
     <use xlink:href="#DejaVuSans-61" transform="translate(1246.777344 0)"/>
     <use xlink:href="#DejaVuSans-72" transform="translate(1308.056641 0)"/>
     <use xlink:href="#DejaVuSans-69" transform="translate(1349.169922 0)"/>
     <use xlink:href="#DejaVuSans-20" transform="translate(1376.953125 0)"/>
     <use xlink:href="#DejaVuSans-28" transform="translate(1408.740234 0)"/>
     <use xlink:href="#DejaVuSans-61" transform="translate(1447.753906 0)"/>
     <use xlink:href="#DejaVuSans-67" transform="translate(1509.033203 0)"/>
     <use xlink:href="#DejaVuSans-67" transform="translate(1572.509766 0)"/>
     <use xlink:href="#DejaVuSans-72" transform="translate(1635.986328 0)"/>
     <use xlink:href="#DejaVuSans-65" transform="translate(1674.849609 0)"/>
     <use xlink:href="#DejaVuSans-67" transform="translate(1736.373047 0)"/>
     <use xlink:href="#DejaVuSans-61" transform="translate(1799.849609 0)"/>
     <use xlink:href="#DejaVuSans-74" transform="translate(1861.128906 0)"/>
     <use xlink:href="#DejaVuSans-65" transform="translate(1900.337891 0)"/>
     <use xlink:href="#DejaVuSans-64" transform="translate(1961.861328 0)"/>
     <use xlink:href="#DejaVuSans-20" transform="translate(2025.337891 0)"/>
     <use xlink:href="#DejaVuSans-76" transform="translate(2057.125 0)"/>
     <use xlink:href="#DejaVuSans-69" transform="translate(2116.304688 0)"/>
     <use xlink:href="#DejaVuSans-61" transform="translate(2144.087891 0)"/>
     <use xlink:href="#DejaVuSans-20" transform="translate(2205.367188 0)"/>
     <use xlink:href="#DejaVuSans-69" transform="translate(2237.154297 0)"/>
     <use xlink:href="#DejaVuSans-6e" transform="translate(2264.9375 0)"/>
     <use xlink:href="#DejaVuSans-74" transform="translate(2328.316406 0)"/>
     <use xlink:href="#DejaVuSans-65" transform="translate(2367.525391 0)"/>
     <use xlink:href="#DejaVuSans-72" transform="translate(2429.048828 0)"/>
     <use xlink:href="#DejaVuSans-70" transform="translate(2470.162109 0)"/>
     <use xlink:href="#DejaVuSans-6f" transform="translate(2533.638672 0)"/>
     <use xlink:href="#DejaVuSans-6c" transform="translate(2594.820312 0)"/>
     <use xlink:href="#DejaVuSans-61" transform="translate(2622.603516 0)"/>
     <use xlink:href="#DejaVuSans-74" transform="translate(2683.882812 0)"/>
     <use xlink:href="#DejaVuSans-69" transform="translate(2723.091797 0)"/>
     <use xlink:href="#DejaVuSans-6f" transform="translate(2750.875 0)"/>
     <use xlink:href="#DejaVuSans-6e" transform="translate(2812.056641 0)"/>
     <use xlink:href="#DejaVuSans-20" transform="translate(2875.435547 0)"/>
     <use xlink:href="#DejaVuSans-6f" transform="translate(2907.222656 0)"/>
     <use xlink:href="#DejaVuSans-76" transform="translate(2968.404297 0)"/>
     <use xlink:href="#DejaVuSans-65" transform="translate(3027.583984 0)"/>
     <use xlink:href="#DejaVuSans-72" transform="translate(3089.107422 0)"/>
     <use xlink:href="#DejaVuSans-20" transform="translate(3130.220703 0)"/>
     <use xlink:href="#DejaVuSans-72" transform="translate(3162.007812 0)"/>
     <use xlink:href="#DejaVuSans-75" transform="translate(3203.121094 0)"/>
     <use xlink:href="#DejaVuSans-6e" transform="translate(3266.5 0)"/>
     <use xlink:href="#DejaVuSans-73" transform="translate(3329.878906 0)"/>
     <use xlink:href="#DejaVuSans-29" transform="translate(3381.978516 0)"/>
    </g>
   </g>
   <g id="legend_1">
    <g id="patch_7">
     <path d="M 626.78125 62.79625 
L 702.2 62.79625 
Q 704.2 62.79625 704.2 60.79625 
L 704.2 32.44 
Q 704.2 30.44 702.2 30.44 
L 626.78125 30.44 
Q 624.78125 30.44 624.78125 32.44 
L 624.78125 60.79625 
Q 624.78125 62.79625 626.78125 62.79625 
z
" style="fill: #ffffff; opacity: 0.8; stroke: #cccccc; stroke-linejoin: miter"/>
    </g>
    <g id="line2d_13">
     <path d="M 628.78125 38.538437 
L 638.78125 38.538437 
L 648.78125 38.538437 
" style="fill: none; stroke: #00008b; stroke-width: 1.5; stroke-linecap: square"/>
    </g>
    <g id="text_15">
     <!-- Mean -->
     <g transform="translate(656.78125 42.038437) scale(0.1 -0.1)">
      <defs>
       <path id="DejaVuSans-4d" d="M 628 4666 
L 1569 4666 
L 2759 1491 
L 3956 4666 
L 4897 4666 
L 4897 0 
L 4281 0 
L 4281 4097 
L 3078 897 
L 2444 897 
L 1241 4097 
L 1241 0 
L 628 0 
L 628 4666 
z
" transform="scale(0.015625)"/>
      </defs>
      <use xlink:href="#DejaVuSans-4d"/>
      <use xlink:href="#DejaVuSans-65" transform="translate(86.279297 0)"/>
      <use xlink:href="#DejaVuSans-61" transform="translate(147.802734 0)"/>
      <use xlink:href="#DejaVuSans-6e" transform="translate(209.082031 0)"/>
     </g>
    </g>
    <g id="patch_8">
     <path d="M 628.78125 56.716563 
L 648.78125 56.716563 
L 648.78125 49.716563 
L 628.78125 49.716563 
z
" style="fill: #00008b; fill-opacity: 0.3; stroke: #00008b; stroke-opacity: 0.3; stroke-linejoin: miter"/>
    </g>
    <g id="text_16">
     <!-- MinMax -->
     <g transform="translate(656.78125 56.716563) scale(0.1 -0.1)">
      <defs>
       <path id="DejaVuSans-2013" d="M 313 1978 
L 2888 1978 
L 2888 1528 
L 313 1528 
L 313 1978 
z
" transform="scale(0.015625)"/>
       <path id="DejaVuSans-78" d="M 3513 3500 
L 2247 1797 
L 3578 0 
L 2900 0 
L 1881 1375 
L 863 0 
L 184 0 
L 1544 1831 
L 300 3500 
L 978 3500 
L 1906 2253 
L 2834 3500 
L 3513 3500 
z
" transform="scale(0.015625)"/>
      </defs>
      <use xlink:href="#DejaVuSans-4d"/>
      <use xlink:href="#DejaVuSans-69" transform="translate(86.279297 0)"/>
      <use xlink:href="#DejaVuSans-6e" transform="translate(114.0625 0)"/>
      <use xlink:href="#DejaVuSans-2013" transform="translate(177.441406 0)"/>
      <use xlink:href="#DejaVuSans-4d" transform="translate(227.441406 0)"/>
      <use xlink:href="#DejaVuSans-61" transform="translate(313.720703 0)"/>
      <use xlink:href="#DejaVuSans-78" transform="translate(375 0)"/>
     </g>
    </g>
   </g>
  </g>
 </g>
 <defs>
  <clipPath id="padd05c22f6">
   <rect x="54.2" y="25.44" width="655" height="364.6"/>
  </clipPath>
 </defs>
</svg>
