<?xml version="1.0" encoding="utf-8" standalone="no"?>
<!DOCTYPE svg PUBLIC "-//W3C//DTD SVG 1.1//EN"
  "http://www.w3.org/Graphics/SVG/1.1/DTD/svg11.dtd">
<svg xmlns:xlink="http://www.w3.org/1999/xlink" width="720pt" height="432pt" viewBox="0 0 720 432" xmlns="http://www.w3.org/2000/svg" version="1.1">
 <metadata>
  <rdf:RDF xmlns:dc="http://purl.org/dc/elements/1.1/" xmlns:cc="http://creativecommons.org/ns#" xmlns:rdf="http://www.w3.org/1999/02/22-rdf-syntax-ns#">
   <cc:Work>
    <dc:type rdf:resource="http://purl.org/dc/dcmitype/StillImage"/>
    <dc:date>2025-02-05T20:32:17.497992</dc:date>
    <dc:format>image/svg+xml</dc:format>
    <dc:creator>
     <cc:Agent>
      <dc:title>Matplotlib v3.10.0, https://matplotlib.org/</dc:title>
     </cc:Agent>
    </dc:creator>
   </cc:Work>
  </rdf:RDF>
 </metadata>
 <defs>
  <style type="text/css">*{stroke-linejoin: round; stroke-linecap: butt}</style>
 </defs>
 <g id="figure_1">
  <g id="patch_1">
   <path d="M 0 432 
L 720 432 
L 720 0 
L 0 0 
z
" style="fill: #ffffff"/>
  </g>
  <g id="axes_1">
   <g id="patch_2">
    <path d="M 69.06125 390.04 
L 709.2 390.04 
L 709.2 25.44 
L 69.06125 25.44 
z
" style="fill: #ffffff"/>
   </g>
   <g id="FillBetweenPolyCollection_1">
    <defs>
     <path id="m0cbdb64b6e" d="M 98.158466 -305.590092 
L 98.158466 -72.778512 
L 98.740993 -91.319837 
L 99.32352 -109.861161 
L 99.906046 -128.402486 
L 100.488573 -146.943811 
L 101.0711 -152.894769 
L 101.653627 -141.108262 
L 102.236154 -129.321756 
L 102.818681 -117.535249 
L 103.401208 -105.748743 
L 103.983734 -93.962236 
L 104.566261 -94.06903 
L 105.148788 -102.313345 
L 105.731315 -110.55766 
L 106.313842 -118.801976 
L 106.896369 -127.046291 
L 107.478895 -135.290606 
L 108.061422 -143.534921 
L 108.643949 -151.779236 
L 109.226476 -160.023552 
L 109.809003 -168.267867 
L 110.39153 -176.40177 
L 110.974056 -184.05722 
L 111.556583 -191.71267 
L 112.13911 -196.528879 
L 112.721637 -194.301503 
L 113.304164 -189.284856 
L 113.886691 -180.386431 
L 114.469218 -171.488006 
L 115.051744 -162.589581 
L 115.634271 -153.691156 
L 116.216798 -144.792731 
L 116.799325 -155.320699 
L 117.381852 -171.288056 
L 117.964379 -187.255414 
L 118.546905 -203.222772 
L 119.129432 -210.912393 
L 119.711959 -217.92425 
L 120.294486 -214.98185 
L 120.877013 -210.293927 
L 121.45954 -205.606004 
L 122.042067 -200.918081 
L 122.624593 -201.054625 
L 123.20712 -209.231949 
L 123.789647 -217.409272 
L 124.372174 -222.626067 
L 124.954701 -214.410356 
L 125.537228 -206.194645 
L 126.119754 -197.978935 
L 126.702281 -189.763224 
L 127.284808 -181.547514 
L 127.867335 -173.331803 
L 128.449862 -165.116092 
L 129.032389 -169.276946 
L 129.614916 -173.837044 
L 130.197442 -178.397141 
L 130.779969 -182.957239 
L 131.362496 -187.517337 
L 131.945023 -187.514305 
L 132.52755 -182.2565 
L 133.110077 -176.998694 
L 133.692603 -171.740889 
L 134.27513 -166.483084 
L 134.857657 -169.45043 
L 135.440184 -178.815115 
L 136.022711 -188.179801 
L 136.605238 -197.544487 
L 137.187765 -206.909173 
L 137.770291 -216.273858 
L 138.352818 -214.794073 
L 138.935345 -209.023461 
L 139.517872 -201.163305 
L 140.100399 -191.578567 
L 140.682926 -185.397494 
L 141.265452 -185.213227 
L 141.847979 -178.813179 
L 142.430506 -172.413132 
L 143.013033 -166.013085 
L 143.59556 -159.613037 
L 144.178087 -153.21299 
L 144.760614 -146.812942 
L 145.34314 -140.412895 
L 145.925667 -134.012847 
L 146.508194 -127.6128 
L 147.090721 -132.482453 
L 147.673248 -141.108672 
L 148.255775 -149.734892 
L 148.838301 -158.361112 
L 149.420828 -166.987331 
L 150.003355 -175.613551 
L 150.585882 -184.239771 
L 151.168409 -191.085572 
L 151.750936 -180.863725 
L 152.333462 -170.641877 
L 152.915989 -168.719182 
L 153.498516 -182.640321 
L 154.081043 -196.56146 
L 154.66357 -210.4826 
L 155.246097 -211.752965 
L 155.828624 -210.826019 
L 156.41115 -209.899073 
L 156.993677 -208.972127 
L 157.576204 -200.173268 
L 158.158731 -187.017794 
L 158.741258 -173.86232 
L 159.323785 -178.142469 
L 159.906311 -183.584993 
L 160.488838 -187.017798 
L 161.071365 -184.125852 
L 161.653892 -181.233905 
L 162.236419 -178.341959 
L 162.818946 -175.450012 
L 163.401473 -172.558066 
L 163.983999 -169.666119 
L 164.566526 -163.738528 
L 165.149053 -162.217039 
L 165.73158 -171.546418 
L 166.314107 -180.875798 
L 166.896634 -187.869581 
L 167.47916 -194.227389 
L 168.061687 -198.029757 
L 168.644214 -198.333935 
L 169.226741 -198.638113 
L 169.809268 -198.942291 
L 170.391795 -190.214148 
L 170.974322 -183.481757 
L 171.556848 -192.406145 
L 172.139375 -201.330533 
L 172.721902 -208.577891 
L 173.304429 -211.478776 
L 173.886956 -214.379661 
L 174.469483 -217.280547 
L 175.052009 -214.602024 
L 175.634536 -204.524864 
L 176.217063 -194.447704 
L 176.79959 -184.370544 
L 177.382117 -183.707781 
L 177.964644 -186.728913 
L 178.547171 -189.750044 
L 179.129697 -190.584332 
L 179.712224 -182.394326 
L 180.294751 -174.204321 
L 180.877278 -166.014315 
L 181.459805 -157.824309 
L 182.042332 -149.634304 
L 182.624858 -141.444298 
L 183.207385 -137.865878 
L 183.789912 -144.432947 
L 184.372439 -151.000015 
L 184.954966 -157.567084 
L 185.537493 -164.134152 
L 186.12002 -170.701221 
L 186.702546 -177.268289 
L 187.285073 -182.527194 
L 187.8676 -181.208303 
L 188.450127 -179.889412 
L 189.032654 -178.570521 
L 189.615181 -185.575497 
L 190.197707 -188.683253 
L 190.780234 -190.969957 
L 191.362761 -193.25666 
L 191.945288 -195.543364 
L 192.527815 -197.830067 
L 193.110342 -200.116771 
L 193.692868 -200.80363 
L 194.275395 -191.282605 
L 194.857922 -179.886148 
L 195.440449 -176.071309 
L 196.022976 -180.238181 
L 196.605503 -182.396257 
L 197.18803 -184.554332 
L 197.770556 -186.712408 
L 198.353083 -188.870483 
L 198.93561 -187.631747 
L 199.518137 -182.884514 
L 200.100664 -175.55396 
L 200.683191 -164.48939 
L 201.265717 -154.43692 
L 201.848244 -154.168096 
L 202.430771 -153.899272 
L 203.013298 -153.630448 
L 203.595825 -153.361624 
L 204.178352 -153.0928 
L 204.760879 -152.823976 
L 205.343405 -152.555152 
L 205.925932 -152.286328 
L 206.508459 -152.017504 
L 207.090986 -149.684149 
L 207.673513 -153.495895 
L 208.25604 -157.733589 
L 208.838566 -161.329984 
L 209.421093 -164.926379 
L 210.00362 -168.522773 
L 210.586147 -172.119168 
L 211.168674 -175.715563 
L 211.751201 -176.486214 
L 212.333728 -177.049391 
L 212.916254 -177.612568 
L 213.498781 -177.531893 
L 214.081308 -175.805817 
L 214.663835 -174.07974 
L 215.246362 -172.353664 
L 215.828889 -170.627588 
L 216.411415 -168.901512 
L 216.993942 -164.297687 
L 217.576469 -142.628146 
L 218.158996 -120.958606 
L 218.741523 -99.289065 
L 219.32405 -77.619524 
L 219.906577 -89.446558 
L 220.489103 -106.058816 
L 221.07163 -122.671074 
L 221.654157 -139.283332 
L 222.236684 -145.883137 
L 222.819211 -139.649849 
L 223.401738 -133.416561 
L 223.984264 -127.183273 
L 224.566791 -120.949984 
L 225.149318 -114.716696 
L 225.731845 -116.429269 
L 226.314372 -123.128945 
L 226.896899 -123.54355 
L 227.479426 -123.958155 
L 228.061952 -124.372761 
L 228.644479 -124.787366 
L 229.227006 -125.201971 
L 229.809533 -123.513005 
L 230.39206 -120.333325 
L 230.974587 -117.153646 
L 231.557113 -114.602935 
L 232.13964 -121.486753 
L 232.722167 -128.370571 
L 233.304694 -135.254389 
L 233.887221 -142.138207 
L 234.469748 -149.022025 
L 235.052274 -155.905842 
L 235.634801 -162.278936 
L 236.217328 -159.778299 
L 236.799855 -157.277662 
L 237.382382 -154.777025 
L 237.964909 -154.904344 
L 238.547436 -156.40821 
L 239.129962 -157.912076 
L 239.712489 -159.415942 
L 240.295016 -160.919809 
L 240.877543 -162.423675 
L 241.46007 -163.927541 
L 242.042597 -163.320017 
L 242.625123 -151.098012 
L 243.20765 -138.876007 
L 243.790177 -134.354274 
L 244.372704 -152.933355 
L 244.955231 -168.23445 
L 245.537758 -172.107419 
L 246.120285 -175.980389 
L 246.702811 -179.853359 
L 247.285338 -180.464626 
L 247.867865 -172.714344 
L 248.450392 -164.964062 
L 249.032919 -157.213779 
L 249.615446 -149.463497 
L 250.197972 -151.433805 
L 250.780499 -155.204223 
L 251.363026 -158.97464 
L 251.945553 -162.745058 
L 252.52808 -166.515475 
L 253.110607 -170.285893 
L 253.693134 -174.05631 
L 254.27566 -177.826728 
L 254.858187 -181.597145 
L 255.440714 -185.367563 
L 256.023241 -186.148119 
L 256.605768 -183.084566 
L 257.188295 -180.021014 
L 257.770821 -176.957462 
L 258.353348 -173.89391 
L 258.935875 -170.830358 
L 259.518402 -167.766806 
L 260.100929 -164.703254 
L 260.683456 -161.639701 
L 261.265983 -158.576149 
L 261.848509 -155.763507 
L 262.431036 -160.729054 
L 263.013563 -165.694601 
L 263.59609 -170.660148 
L 264.178617 -175.625695 
L 264.761144 -180.591242 
L 265.34367 -184.922402 
L 265.926197 -177.49021 
L 266.508724 -170.058018 
L 267.091251 -162.625826 
L 267.673778 -155.193634 
L 268.256305 -153.606893 
L 268.838832 -155.527423 
L 269.421358 -157.447953 
L 270.003885 -159.368483 
L 270.586412 -161.289014 
L 271.168939 -163.209544 
L 271.751466 -165.130074 
L 272.333993 -167.050604 
L 272.916519 -164.675103 
L 273.499046 -149.270842 
L 274.081573 -139.884927 
L 274.6641 -151.993104 
L 275.246627 -164.101281 
L 275.829154 -176.209458 
L 276.41168 -176.385901 
L 276.994207 -167.998772 
L 277.576734 -159.611643 
L 278.159261 -151.224514 
L 278.741788 -142.837385 
L 279.324315 -134.450256 
L 279.906842 -126.063128 
L 280.489368 -127.31708 
L 281.071895 -130.795896 
L 281.654422 -134.274713 
L 282.236949 -137.75353 
L 282.819476 -141.232347 
L 283.402003 -144.711164 
L 283.984529 -148.189981 
L 284.567056 -151.668797 
L 285.149583 -155.147614 
L 285.73211 -158.626431 
L 286.314637 -160.403192 
L 286.897164 -159.692334 
L 287.479691 -158.981476 
L 288.062217 -158.270617 
L 288.644744 -157.559759 
L 289.227271 -156.848901 
L 289.809798 -156.138042 
L 290.392325 -147.478728 
L 290.974852 -131.06987 
L 291.557378 -114.661012 
L 292.139905 -98.252155 
L 292.722432 -113.699646 
L 293.304959 -129.147138 
L 293.887486 -144.594629 
L 294.470013 -160.042121 
L 295.05254 -163.182631 
L 295.635066 -164.573455 
L 296.217593 -165.964279 
L 296.80012 -167.355103 
L 297.382647 -168.745927 
L 297.965174 -170.136751 
L 298.547701 -167.969464 
L 299.130227 -163.36768 
L 299.712754 -158.765896 
L 300.295281 -154.164112 
L 300.877808 -149.562328 
L 301.460335 -144.960544 
L 302.042862 -140.35876 
L 302.625389 -135.756976 
L 303.207915 -131.155191 
L 303.790442 -126.553407 
L 304.372969 -123.568041 
L 304.955496 -127.587154 
L 305.538023 -131.606266 
L 306.12055 -135.625378 
L 306.703076 -139.64449 
L 307.285603 -143.663602 
L 307.86813 -147.682715 
L 308.450657 -151.701827 
L 309.033184 -155.720939 
L 309.615711 -159.740051 
L 310.198237 -163.759163 
L 310.780764 -160.166421 
L 311.363291 -154.44236 
L 311.945818 -148.718299 
L 312.528345 -142.994237 
L 313.110872 -137.270176 
L 313.693399 -131.546115 
L 314.275925 -125.822054 
L 314.858452 -120.097992 
L 315.440979 -114.373931 
L 316.023506 -108.64987 
L 316.606033 -107.199792 
L 317.18856 -112.873021 
L 317.771086 -118.546249 
L 318.353613 -124.219478 
L 318.93614 -129.892707 
L 319.518667 -135.565935 
L 320.101194 -141.239164 
L 320.683721 -146.912393 
L 321.266248 -152.585621 
L 321.848774 -158.25885 
L 322.431301 -163.932078 
L 323.013828 -161.8544 
L 323.596355 -159.526693 
L 324.178882 -157.198985 
L 324.761409 -154.871277 
L 325.343935 -152.54357 
L 325.926462 -150.215862 
L 326.508989 -147.888155 
L 327.091516 -145.560447 
L 327.674043 -143.23274 
L 328.25657 -140.905032 
L 328.839097 -143.636079 
L 329.421623 -149.675153 
L 330.00415 -151.331729 
L 330.586677 -152.988306 
L 331.169204 -154.644882 
L 331.751731 -156.301459 
L 332.334258 -157.958035 
L 332.916784 -159.614612 
L 333.499311 -161.271188 
L 334.081838 -162.927764 
L 334.664365 -164.615155 
L 335.246892 -166.468945 
L 335.829419 -168.322735 
L 336.411946 -170.176524 
L 336.994472 -172.030314 
L 337.576999 -173.884103 
L 338.159526 -175.737893 
L 338.742053 -177.591682 
L 339.32458 -179.445472 
L 339.907107 -171.838078 
L 340.489633 -161.715988 
L 341.07216 -161.330026 
L 341.654687 -164.189441 
L 342.237214 -167.048856 
L 342.819741 -162.364944 
L 343.402268 -156.337968 
L 343.984795 -150.310992 
L 344.567321 -144.284017 
L 345.149848 -138.257041 
L 345.732375 -132.230065 
L 346.314902 -126.203089 
L 346.897429 -123.737389 
L 347.479956 -128.070487 
L 348.062482 -132.403584 
L 348.645009 -136.736682 
L 349.227536 -141.06978 
L 349.810063 -145.402877 
L 350.39259 -149.735975 
L 350.975117 -154.069073 
L 351.557643 -158.40217 
L 352.14017 -162.735268 
L 352.722697 -167.068366 
L 353.305224 -157.252087 
L 353.887751 -146.492516 
L 354.470278 -135.732945 
L 355.052805 -124.973375 
L 355.635331 -114.213804 
L 356.217858 -103.454233 
L 356.800385 -92.694663 
L 357.382912 -81.935092 
L 357.965439 -71.175521 
L 358.547966 -60.415951 
L 359.130492 -58.532727 
L 359.713019 -64.481575 
L 360.295546 -70.430423 
L 360.878073 -76.379271 
L 361.4606 -82.328118 
L 362.043127 -88.276966 
L 362.625654 -94.225814 
L 363.20818 -100.174662 
L 363.790707 -106.12351 
L 364.373234 -112.072357 
L 364.955761 -117.525161 
L 365.538288 -119.50565 
L 366.120815 -121.48614 
L 366.703341 -123.46663 
L 367.285868 -125.44712 
L 367.868395 -127.42761 
L 368.450922 -129.4081 
L 369.033449 -131.38859 
L 369.615976 -133.36908 
L 370.198503 -135.34957 
L 370.781029 -137.330059 
L 371.363556 -141.772638 
L 371.946083 -147.178642 
L 372.52861 -152.584647 
L 373.111137 -157.990651 
L 373.693664 -163.396656 
L 374.27619 -168.80266 
L 374.858717 -174.208665 
L 375.441244 -173.338011 
L 376.023771 -170.065607 
L 376.606298 -166.793203 
L 377.188825 -164.919875 
L 377.771352 -166.124516 
L 378.353878 -167.329157 
L 378.936405 -168.533798 
L 379.518932 -169.738439 
L 380.101459 -170.94308 
L 380.683986 -172.147721 
L 381.266513 -173.352362 
L 381.849039 -174.557003 
L 382.431566 -175.761643 
L 383.014093 -176.966284 
L 383.59662 -178.35634 
L 384.179147 -179.710883 
L 384.761674 -180.927611 
L 385.344201 -182.144339 
L 385.926727 -183.361067 
L 386.509254 -180.185757 
L 387.091781 -171.571385 
L 387.674308 -162.957012 
L 388.256835 -154.342639 
L 388.839362 -145.728267 
L 389.421888 -148.878002 
L 390.004415 -163.791844 
L 390.586942 -172.739888 
L 391.169469 -173.314995 
L 391.751996 -173.890102 
L 392.334523 -174.46521 
L 392.917049 -164.701911 
L 393.499576 -151.55036 
L 394.082103 -138.39881 
L 394.66463 -125.24726 
L 395.247157 -115.338923 
L 395.829684 -136.781646 
L 396.412211 -158.224369 
L 396.994737 -169.597374 
L 397.577264 -170.874754 
L 398.159791 -172.152135 
L 398.742318 -173.429515 
L 399.324845 -174.706896 
L 399.907372 -171.709481 
L 400.489898 -156.276737 
L 401.072425 -140.843993 
L 401.654952 -139.794957 
L 402.237479 -145.28397 
L 402.820006 -150.772983 
L 403.402533 -156.261997 
L 403.98506 -161.75101 
L 404.567586 -167.240023 
L 405.150113 -172.729036 
L 405.73264 -178.21805 
L 406.315167 -174.559483 
L 406.897694 -165.931221 
L 407.480221 -161.964141 
L 408.062747 -169.908965 
L 408.645274 -177.853789 
L 409.227801 -185.798613 
L 409.810328 -193.743437 
L 410.392855 -196.662715 
L 410.975382 -193.669915 
L 411.557909 -184.300934 
L 412.140435 -174.555917 
L 412.722962 -161.888141 
L 413.305489 -149.220366 
L 413.888016 -151.013789 
L 414.470543 -146.431987 
L 415.05307 -141.850185 
L 415.635596 -137.268383 
L 416.218123 -132.686581 
L 416.80065 -128.104779 
L 417.383177 -123.522977 
L 417.965704 -118.941175 
L 418.548231 -114.359373 
L 419.130758 -109.777571 
L 419.713284 -112.147063 
L 420.295811 -122.394687 
L 420.878338 -132.64231 
L 421.460865 -142.889934 
L 422.043392 -153.137558 
L 422.625919 -157.820261 
L 423.208445 -148.75177 
L 423.790972 -139.683279 
L 424.373499 -130.614788 
L 424.956026 -121.546297 
L 425.538553 -113.186289 
L 426.12108 -115.45353 
L 426.703607 -117.720772 
L 427.286133 -119.988013 
L 427.86866 -122.255254 
L 428.451187 -124.522495 
L 429.033714 -126.789737 
L 429.616241 -129.056978 
L 430.198768 -131.324219 
L 430.781294 -133.59146 
L 431.363821 -135.858702 
L 431.946348 -139.906631 
L 432.528875 -144.887301 
L 433.111402 -149.867971 
L 433.693929 -154.848642 
L 434.276455 -159.829312 
L 434.858982 -158.808805 
L 435.441509 -156.121631 
L 436.024036 -153.434458 
L 436.606563 -150.747284 
L 437.18909 -148.06011 
L 437.771617 -147.639006 
L 438.354143 -154.016111 
L 438.93667 -160.393215 
L 439.519197 -166.507513 
L 440.101724 -167.521416 
L 440.684251 -168.535318 
L 441.266778 -169.549221 
L 441.849304 -170.563124 
L 442.431831 -171.577027 
L 443.014358 -172.590929 
L 443.596885 -173.604832 
L 444.179412 -179.788378 
L 444.761939 -186.929266 
L 445.344466 -194.070154 
L 445.926992 -200.808497 
L 446.509519 -197.273835 
L 447.092046 -193.238334 
L 447.674573 -189.202833 
L 448.2571 -185.167332 
L 448.839627 -179.085236 
L 449.422153 -170.542095 
L 450.00468 -167.303477 
L 450.587207 -170.884961 
L 451.169734 -174.466445 
L 451.752261 -178.047928 
L 452.334788 -181.629412 
L 452.917315 -185.210896 
L 453.499841 -188.79238 
L 454.082368 -192.373863 
L 454.664895 -179.379769 
L 455.247422 -163.138978 
L 455.829949 -147.788801 
L 456.412476 -160.047654 
L 456.995002 -172.306506 
L 457.577529 -182.085784 
L 458.160056 -182.095521 
L 458.742583 -182.105258 
L 459.32511 -182.114995 
L 459.907637 -182.124732 
L 460.490164 -182.134469 
L 461.07269 -178.674589 
L 461.655217 -175.11693 
L 462.237744 -174.838634 
L 462.820271 -176.527957 
L 463.402798 -177.175655 
L 463.985325 -175.277773 
L 464.567851 -173.379891 
L 465.150378 -171.48201 
L 465.732905 -169.584128 
L 466.315432 -167.686247 
L 466.897959 -165.788365 
L 467.480486 -156.912644 
L 468.063013 -143.87778 
L 468.645539 -156.17478 
L 469.228066 -168.471781 
L 469.810593 -178.624248 
L 470.39312 -184.764 
L 470.975647 -190.903752 
L 471.558174 -197.043504 
L 472.1407 -191.047513 
L 472.723227 -184.420033 
L 473.305754 -177.792553 
L 473.888281 -171.165072 
L 474.470808 -175.211374 
L 475.053335 -181.720856 
L 475.635861 -188.230337 
L 476.218388 -194.739819 
L 476.800915 -201.249301 
L 477.383442 -207.758783 
L 477.965969 -208.781619 
L 478.548496 -204.919913 
L 479.131023 -192.621894 
L 479.713549 -178.627593 
L 480.296076 -172.509814 
L 480.878603 -177.903876 
L 481.46113 -183.297938 
L 482.043657 -188.692 
L 482.626184 -194.086062 
L 483.20871 -199.480123 
L 483.791237 -204.699582 
L 484.373764 -200.492437 
L 484.956291 -196.285293 
L 485.538818 -192.078148 
L 486.121345 -187.871003 
L 486.703872 -193.478608 
L 487.286398 -191.78809 
L 487.868925 -184.637566 
L 488.451452 -177.487042 
L 489.033979 -170.336518 
L 489.616506 -163.185993 
L 490.199033 -156.035469 
L 490.781559 -148.884945 
L 491.364086 -141.734421 
L 491.946613 -134.583897 
L 492.52914 -132.267737 
L 493.111667 -133.259299 
L 493.694194 -134.250861 
L 494.276721 -135.242422 
L 494.859247 -136.233984 
L 495.441774 -137.225546 
L 496.024301 -138.217108 
L 496.606828 -139.20867 
L 497.189355 -140.200232 
L 497.771882 -141.191794 
L 498.354408 -142.206931 
L 498.936935 -143.324227 
L 499.519462 -144.441523 
L 500.101989 -145.558819 
L 500.684516 -146.676115 
L 501.267043 -147.793411 
L 501.84957 -148.910707 
L 502.432096 -150.028003 
L 503.014623 -151.145299 
L 503.59715 -152.262595 
L 504.179677 -153.379891 
L 504.762204 -154.588645 
L 505.344731 -155.823007 
L 505.927257 -157.057369 
L 506.509784 -158.29173 
L 507.092311 -159.526092 
L 507.674838 -160.760454 
L 508.257365 -161.994816 
L 508.839892 -163.229177 
L 509.422418 -164.463539 
L 510.004945 -164.645685 
L 510.587472 -159.364638 
L 511.169999 -156.713946 
L 511.752526 -154.063254 
L 512.335053 -151.412562 
L 512.91758 -148.76187 
L 513.500106 -146.111178 
L 514.082633 -143.460486 
L 514.66516 -140.809794 
L 515.247687 -138.159102 
L 515.830214 -135.50841 
L 516.412741 -132.857718 
L 516.995267 -144.406338 
L 517.577794 -156.413001 
L 518.160321 -168.419663 
L 518.742848 -180.426326 
L 519.325375 -192.432988 
L 519.907902 -204.439651 
L 520.490429 -203.573729 
L 521.072955 -201.020116 
L 521.655482 -198.466504 
L 522.238009 -195.912892 
L 522.820536 -197.164992 
L 523.403063 -201.37709 
L 523.98559 -205.589188 
L 524.568116 -209.801286 
L 525.150643 -207.971103 
L 525.73317 -204.227032 
L 526.315697 -200.482961 
L 526.898224 -196.738889 
L 527.480751 -192.994818 
L 528.063278 -189.250747 
L 528.645804 -185.647427 
L 529.228331 -182.804164 
L 529.810858 -179.9609 
L 530.393385 -177.117637 
L 530.975912 -174.274374 
L 531.558439 -171.431111 
L 532.140965 -168.587847 
L 532.723492 -165.744584 
L 533.306019 -162.901321 
L 533.888546 -160.058058 
L 534.471073 -147.814066 
L 535.0536 -152.157356 
L 535.636127 -159.207809 
L 536.218653 -160.752856 
L 536.80118 -162.297902 
L 537.383707 -163.842948 
L 537.966234 -165.387994 
L 538.548761 -166.93304 
L 539.131288 -168.478087 
L 539.713814 -170.023133 
L 540.296341 -171.568179 
L 540.878868 -172.378387 
L 541.461395 -171.785721 
L 542.043922 -171.193055 
L 542.626449 -170.600389 
L 543.208976 -170.007724 
L 543.791502 -169.415058 
L 544.374029 -168.822392 
L 544.956556 -168.229726 
L 545.539083 -167.63706 
L 546.12161 -167.044395 
L 546.704137 -166.451729 
L 547.286663 -169.617424 
L 547.86919 -173.033677 
L 548.451717 -176.44993 
L 549.034244 -179.866182 
L 549.616771 -183.282435 
L 550.199298 -186.698688 
L 550.781824 -190.114941 
L 551.364351 -187.007431 
L 551.946878 -177.07278 
L 552.529405 -167.138128 
L 553.111932 -166.774525 
L 553.694459 -174.855965 
L 554.276986 -182.937405 
L 554.859512 -191.018846 
L 555.442039 -199.100286 
L 556.024566 -207.181726 
L 556.607093 -206.750317 
L 557.18962 -196.796417 
L 557.772147 -186.842518 
L 558.354673 -176.888618 
L 558.9372 -168.832866 
L 559.519727 -174.06414 
L 560.102254 -179.295415 
L 560.684781 -184.526689 
L 561.267308 -189.757964 
L 561.849835 -194.989239 
L 562.432361 -200.220513 
L 563.014888 -205.451788 
L 563.597415 -203.509103 
L 564.179942 -185.804498 
L 564.762469 -168.099893 
L 565.344996 -171.137082 
L 565.927522 -182.290625 
L 566.510049 -193.444168 
L 567.092576 -197.292639 
L 567.675103 -190.482751 
L 568.25763 -183.672864 
L 568.840157 -176.862976 
L 569.422684 -170.053089 
L 570.00521 -163.243201 
L 570.587737 -156.433314 
L 571.170264 -154.219786 
L 571.752791 -162.11825 
L 572.335318 -170.016715 
L 572.917845 -177.915179 
L 573.500371 -185.813643 
L 574.082898 -193.712107 
L 574.665425 -197.97448 
L 575.247952 -196.732767 
L 575.830479 -195.491054 
L 576.413006 -194.24934 
L 576.995533 -193.007627 
L 577.578059 -197.78712 
L 578.160586 -203.189497 
L 578.743113 -208.591874 
L 579.32564 -213.99425 
L 579.908167 -218.589077 
L 580.490694 -207.980816 
L 581.07322 -197.372554 
L 581.655747 -186.764293 
L 582.238274 -176.156031 
L 582.820801 -165.547769 
L 583.403328 -160.057975 
L 583.985855 -159.686649 
L 584.568382 -159.315322 
L 585.150908 -158.943996 
L 585.733435 -158.572669 
L 586.315962 -158.201342 
L 586.898489 -157.830016 
L 587.481016 -157.458689 
L 588.063543 -157.087363 
L 588.646069 -156.716036 
L 589.228596 -157.435232 
L 589.811123 -168.696143 
L 590.39365 -179.957054 
L 590.976177 -191.217965 
L 591.558704 -202.478876 
L 592.14123 -201.201479 
L 592.723757 -193.631301 
L 593.306284 -186.061124 
L 593.888811 -178.490946 
L 594.471338 -170.920769 
L 595.053865 -163.350592 
L 595.636392 -163.122249 
L 596.218918 -168.042807 
L 596.801445 -172.963364 
L 597.383972 -177.883922 
L 597.966499 -182.80448 
L 598.549026 -187.725037 
L 599.131553 -192.645595 
L 599.714079 -197.566153 
L 600.296606 -202.48671 
L 600.879133 -207.407268 
L 601.46166 -208.474561 
L 602.044187 -212.713035 
L 602.626714 -216.951509 
L 603.209241 -221.189983 
L 603.791767 -225.428457 
L 604.374294 -229.666931 
L 604.956821 -233.905405 
L 605.539348 -238.143879 
L 606.121875 -242.382353 
L 606.704402 -236.310607 
L 607.286928 -227.607236 
L 607.869455 -230.320762 
L 608.451982 -234.665272 
L 609.034509 -239.009783 
L 609.617036 -243.354294 
L 610.199563 -240.328682 
L 610.78209 -232.949253 
L 611.364616 -225.569823 
L 611.947143 -218.190393 
L 612.52967 -210.810964 
L 613.112197 -203.431534 
L 613.694724 -205.477474 
L 614.277251 -218.2055 
L 614.859777 -220.052282 
L 615.442304 -221.293963 
L 616.024831 -222.535645 
L 616.607358 -220.97119 
L 617.189885 -212.366478 
L 617.772412 -203.761765 
L 618.354939 -195.157053 
L 618.937465 -186.552341 
L 619.519992 -179.07589 
L 620.102519 -188.523349 
L 620.685046 -197.970808 
L 621.267573 -207.418268 
L 621.8501 -215.433387 
L 622.432626 -217.238816 
L 623.015153 -219.044246 
L 623.59768 -220.849675 
L 624.180207 -222.655104 
L 624.762734 -224.460534 
L 625.345261 -226.265963 
L 625.927788 -231.070369 
L 626.510314 -237.445667 
L 627.092841 -243.124099 
L 627.675368 -245.497169 
L 628.257895 -247.87024 
L 628.840422 -248.819599 
L 629.422949 -241.287883 
L 630.005475 -233.756166 
L 630.588002 -226.22445 
L 631.170529 -218.692733 
L 631.753056 -214.88024 
L 632.335583 -222.225417 
L 632.91811 -229.570594 
L 633.500636 -236.915771 
L 634.083163 -244.260947 
L 634.66569 -251.606124 
L 635.248217 -253.78155 
L 635.830744 -247.469874 
L 636.413271 -241.158198 
L 636.995798 -234.846522 
L 637.578324 -228.534846 
L 638.160851 -233.290576 
L 638.743378 -240.095827 
L 639.325905 -246.901077 
L 639.908432 -253.706328 
L 640.490959 -251.516434 
L 641.073485 -249.109488 
L 641.656012 -246.702542 
L 642.238539 -244.295596 
L 642.821066 -241.88865 
L 643.403593 -237.217847 
L 643.98612 -236.196309 
L 644.568647 -240.181148 
L 645.151173 -244.165987 
L 645.7337 -248.150827 
L 646.316227 -251.128613 
L 646.898754 -254.058375 
L 647.481281 -256.988136 
L 648.063808 -259.364901 
L 648.646334 -256.50204 
L 649.228861 -253.639179 
L 649.811388 -251.000308 
L 650.393915 -255.305128 
L 650.976442 -258.65411 
L 651.558969 -259.925863 
L 652.141496 -261.197616 
L 652.724022 -258.132811 
L 653.306549 -252.988706 
L 653.889076 -247.8446 
L 654.471603 -242.700495 
L 655.05413 -237.556389 
L 655.636657 -232.412284 
L 656.219183 -234.364894 
L 656.80171 -240.575533 
L 657.384237 -246.786173 
L 657.966764 -252.996813 
L 658.549291 -259.207452 
L 659.131818 -265.418092 
L 659.714345 -271.396096 
L 660.296871 -272.103902 
L 660.879398 -272.811709 
L 661.461925 -273.147218 
L 662.044452 -272.925664 
L 662.626979 -274.533988 
L 663.209506 -274.912654 
L 663.792032 -275.29132 
L 664.374559 -275.669986 
L 664.957086 -276.048652 
L 665.539613 -276.423852 
L 666.12214 -274.907265 
L 666.704667 -272.108242 
L 667.287194 -269.309219 
L 667.86972 -266.510196 
L 668.452247 -267.589384 
L 669.034774 -264.79293 
L 669.617301 -261.298059 
L 670.199828 -257.803188 
L 670.782355 -254.308317 
L 671.364881 -250.813446 
L 671.947408 -247.318575 
L 672.529935 -243.823704 
L 673.112462 -240.328834 
L 673.694989 -236.833963 
L 674.277516 -236.997079 
L 674.860042 -242.506484 
L 675.442569 -248.01589 
L 676.025096 -253.525295 
L 676.607623 -259.0347 
L 677.19015 -264.544106 
L 677.772677 -270.053511 
L 678.355204 -275.562917 
L 678.93773 -275.880015 
L 679.520257 -273.893988 
L 680.102784 -271.907961 
L 680.102784 -307.767852 
L 680.102784 -307.767852 
L 679.520257 -306.88054 
L 678.93773 -305.993228 
L 678.355204 -305.105915 
L 677.772677 -304.218603 
L 677.19015 -303.331291 
L 676.607623 -302.443978 
L 676.025096 -302.541366 
L 675.442569 -303.7446 
L 674.860042 -304.947834 
L 674.277516 -306.151068 
L 673.694989 -306.18362 
L 673.112462 -305.41518 
L 672.529935 -304.64674 
L 671.947408 -303.878299 
L 671.364881 -303.109859 
L 670.782355 -303.38548 
L 670.199828 -304.252738 
L 669.617301 -305.119996 
L 669.034774 -305.987253 
L 668.452247 -306.854511 
L 667.86972 -307.086751 
L 667.287194 -305.510445 
L 666.704667 -304.46755 
L 666.12214 -303.424655 
L 665.539613 -302.381759 
L 664.957086 -301.338864 
L 664.374559 -300.295968 
L 663.792032 -299.739607 
L 663.209506 -300.156475 
L 662.626979 -301.016523 
L 662.044452 -302.250601 
L 661.461925 -301.372145 
L 660.879398 -299.90218 
L 660.296871 -298.432215 
L 659.714345 -297.450143 
L 659.131818 -297.139361 
L 658.549291 -297.247618 
L 657.966764 -297.699518 
L 657.384237 -298.16216 
L 656.80171 -298.624802 
L 656.219183 -299.087445 
L 655.636657 -299.25412 
L 655.05413 -298.927517 
L 654.471603 -298.600915 
L 653.889076 -298.274312 
L 653.306549 -297.947709 
L 652.724022 -297.621106 
L 652.141496 -297.294503 
L 651.558969 -296.9679 
L 650.976442 -296.986356 
L 650.393915 -297.262207 
L 649.811388 -297.538057 
L 649.228861 -297.628936 
L 648.646334 -299.915866 
L 648.063808 -302.202796 
L 647.481281 -304.489726 
L 646.898754 -306.776656 
L 646.316227 -309.063586 
L 645.7337 -311.350516 
L 645.151173 -313.637446 
L 644.568647 -315.924376 
L 643.98612 -318.211306 
L 643.403593 -317.213127 
L 642.821066 -313.659864 
L 642.238539 -310.1066 
L 641.656012 -306.553337 
L 641.073485 -303.000074 
L 640.490959 -300.851813 
L 639.908432 -301.412443 
L 639.325905 -301.973072 
L 638.743378 -302.533701 
L 638.160851 -303.09433 
L 637.578324 -303.382218 
L 636.995798 -302.197305 
L 636.413271 -301.012392 
L 635.830744 -299.827479 
L 635.248217 -298.642566 
L 634.66569 -298.551308 
L 634.083163 -300.97443 
L 633.500636 -303.397553 
L 632.91811 -305.820675 
L 632.335583 -308.833069 
L 631.753056 -314.657381 
L 631.170529 -312.462752 
L 630.588002 -307.595143 
L 630.005475 -302.727534 
L 629.422949 -301.457973 
L 628.840422 -300.463572 
L 628.257895 -299.469172 
L 627.675368 -298.474771 
L 627.092841 -297.480371 
L 626.510314 -296.949491 
L 625.927788 -296.690134 
L 625.345261 -297.178468 
L 624.762734 -297.144254 
L 624.180207 -297.608866 
L 623.59768 -298.073478 
L 623.015153 -298.53809 
L 622.432626 -299.609748 
L 621.8501 -306.000363 
L 621.267573 -312.390977 
L 620.685046 -318.781592 
L 620.102519 -325.172206 
L 619.519992 -331.562821 
L 618.937465 -322.818568 
L 618.354939 -317.503859 
L 617.772412 -312.18915 
L 617.189885 -306.874442 
L 616.607358 -301.559733 
L 616.024831 -298.398703 
L 615.442304 -301.703018 
L 614.859777 -305.007332 
L 614.277251 -308.311646 
L 613.694724 -311.615961 
L 613.112197 -311.917379 
L 612.52967 -309.569183 
L 611.947143 -307.220987 
L 611.364616 -304.87279 
L 610.78209 -302.524594 
L 610.199563 -300.176398 
L 609.617036 -297.828202 
L 609.034509 -297.040229 
L 608.451982 -298.180322 
L 607.869455 -301.742111 
L 607.286928 -304.241 
L 606.704402 -301.887287 
L 606.121875 -302.335112 
L 605.539348 -304.189066 
L 604.956821 -306.04302 
L 604.374294 -307.896974 
L 603.791767 -309.750928 
L 603.209241 -311.604882 
L 602.626714 -313.458836 
L 602.044187 -315.31279 
L 601.46166 -317.166744 
L 600.879133 -314.37695 
L 600.296606 -310.603986 
L 599.714079 -306.831023 
L 599.131553 -306.197882 
L 598.549026 -305.800785 
L 597.966499 -305.403688 
L 597.383972 -305.006592 
L 596.801445 -304.609495 
L 596.218918 -304.366788 
L 595.636392 -306.627687 
L 595.053865 -306.886808 
L 594.471338 -302.74202 
L 593.888811 -304.2326 
L 593.306284 -311.000518 
L 592.723757 -317.768436 
L 592.14123 -324.536354 
L 591.558704 -331.304272 
L 590.976177 -338.07219 
L 590.39365 -344.840109 
L 589.811123 -351.608027 
L 589.228596 -358.375945 
L 588.646069 -347.786499 
L 588.063543 -335.401465 
L 587.481016 -323.01643 
L 586.898489 -310.631395 
L 586.315962 -299.024288 
L 585.733435 -299.613313 
L 585.150908 -300.202337 
L 584.568382 -300.791362 
L 583.985855 -301.380386 
L 583.403328 -301.969411 
L 582.820801 -302.727208 
L 582.238274 -303.653777 
L 581.655747 -304.580347 
L 581.07322 -305.506916 
L 580.490694 -306.433485 
L 579.908167 -307.360055 
L 579.32564 -308.286624 
L 578.743113 -309.213193 
L 578.160586 -311.906703 
L 577.578059 -315.19852 
L 576.995533 -317.808165 
L 576.413006 -313.823474 
L 575.830479 -313.456046 
L 575.247952 -313.194225 
L 574.665425 -312.932405 
L 574.082898 -312.670584 
L 573.500371 -312.408764 
L 572.917845 -312.146943 
L 572.335318 -311.885123 
L 571.752791 -311.623302 
L 571.170264 -312.820285 
L 570.587737 -312.955291 
L 570.00521 -313.255207 
L 569.422684 -313.555122 
L 568.840157 -313.855038 
L 568.25763 -314.154953 
L 567.675103 -314.454868 
L 567.092576 -321.241342 
L 566.510049 -334.022063 
L 565.927522 -346.802783 
L 565.344996 -359.583504 
L 564.762469 -366.09634 
L 564.179942 -356.591247 
L 563.597415 -347.086154 
L 563.014888 -337.581061 
L 562.432361 -328.075968 
L 561.849835 -318.570875 
L 561.267308 -309.065782 
L 560.684781 -299.560689 
L 560.102254 -309.736734 
L 559.519727 -327.441339 
L 558.9372 -345.145944 
L 558.354673 -334.388308 
L 557.772147 -319.564636 
L 557.18962 -304.740965 
L 556.607093 -302.579462 
L 556.024566 -309.992807 
L 555.442039 -321.20442 
L 554.859512 -332.416034 
L 554.276986 -343.627647 
L 553.694459 -354.83926 
L 553.111932 -366.050873 
L 552.529405 -367.724745 
L 551.946878 -358.589175 
L 551.364351 -349.453605 
L 550.781824 -340.318035 
L 550.199298 -331.182465 
L 549.616771 -322.046895 
L 549.034244 -312.911325 
L 548.451717 -303.907072 
L 547.86919 -307.752384 
L 547.286663 -311.597696 
L 546.704137 -315.088059 
L 546.12161 -313.254177 
L 545.539083 -311.420295 
L 544.956556 -309.586413 
L 544.374029 -315.191094 
L 543.791502 -321.935113 
L 543.208976 -328.679132 
L 542.626449 -335.423152 
L 542.043922 -342.167171 
L 541.461395 -348.911191 
L 540.878868 -355.65521 
L 540.296341 -352.730407 
L 539.713814 -344.740981 
L 539.131288 -336.751556 
L 538.548761 -328.76213 
L 537.966234 -320.772705 
L 537.383707 -312.783279 
L 536.80118 -307.131239 
L 536.218653 -317.695131 
L 535.636127 -329.245321 
L 535.0536 -340.79551 
L 534.471073 -347.476677 
L 533.888546 -339.550776 
L 533.306019 -331.624875 
L 532.723492 -323.698974 
L 532.140965 -315.773073 
L 531.558439 -312.106077 
L 530.975912 -316.563515 
L 530.393385 -321.020954 
L 529.810858 -325.478392 
L 529.228331 -329.93583 
L 528.645804 -334.393269 
L 528.063278 -332.930295 
L 527.480751 -330.37095 
L 526.898224 -327.811604 
L 526.315697 -325.252259 
L 525.73317 -322.692913 
L 525.150643 -320.133568 
L 524.568116 -317.574222 
L 523.98559 -315.014876 
L 523.403063 -312.455531 
L 522.820536 -310.19205 
L 522.238009 -308.546513 
L 521.655482 -308.752136 
L 521.072955 -308.957758 
L 520.490429 -309.163381 
L 519.907902 -309.369003 
L 519.325375 -309.574626 
L 518.742848 -309.780248 
L 518.160321 -312.451656 
L 517.577794 -318.621723 
L 516.995267 -324.79179 
L 516.412741 -330.261659 
L 515.830214 -314.025428 
L 515.247687 -310.174895 
L 514.66516 -309.967428 
L 514.082633 -309.759961 
L 513.500106 -309.552494 
L 512.91758 -309.530358 
L 512.335053 -317.432257 
L 511.752526 -325.334156 
L 511.169999 -333.236055 
L 510.587472 -341.137954 
L 510.004945 -344.11202 
L 509.422418 -344.129385 
L 508.839892 -344.14675 
L 508.257365 -344.164116 
L 507.674838 -344.181481 
L 507.092311 -344.198847 
L 506.509784 -344.216212 
L 505.927257 -345.739458 
L 505.344731 -352.59721 
L 504.762204 -359.454961 
L 504.179677 -363.236894 
L 503.59715 -356.03376 
L 503.014623 -348.830626 
L 502.432096 -341.627491 
L 501.84957 -334.424357 
L 501.267043 -327.221222 
L 500.684516 -320.018088 
L 500.101989 -312.814954 
L 499.519462 -314.931959 
L 498.936935 -317.508379 
L 498.354408 -320.084798 
L 497.771882 -313.561659 
L 497.189355 -304.938622 
L 496.606828 -297.625158 
L 496.024301 -299.010378 
L 495.441774 -300.395599 
L 494.859247 -301.78082 
L 494.276721 -303.924105 
L 493.694194 -310.74639 
L 493.111667 -317.568675 
L 492.52914 -324.39096 
L 491.946613 -323.949 
L 491.364086 -312.890067 
L 490.781559 -309.301197 
L 490.199033 -309.782036 
L 489.616506 -310.262876 
L 489.033979 -310.743715 
L 488.451452 -311.224554 
L 487.868925 -311.705393 
L 487.286398 -313.829459 
L 486.703872 -335.529603 
L 486.121345 -357.229748 
L 485.538818 -349.879747 
L 484.956291 -342.529745 
L 484.373764 -335.179744 
L 483.791237 -327.829743 
L 483.20871 -320.479742 
L 482.626184 -313.12974 
L 482.043657 -305.779739 
L 481.46113 -301.30117 
L 480.878603 -304.670882 
L 480.296076 -308.040594 
L 479.713549 -311.076948 
L 479.131023 -313.885215 
L 478.548496 -316.693482 
L 477.965969 -319.50175 
L 477.383442 -322.310017 
L 476.800915 -325.118284 
L 476.218388 -327.926552 
L 475.635861 -330.734819 
L 475.053335 -333.543086 
L 474.470808 -336.351353 
L 473.888281 -337.782066 
L 473.305754 -333.243374 
L 472.723227 -328.704683 
L 472.1407 -324.165992 
L 471.558174 -319.6273 
L 470.975647 -315.088609 
L 470.39312 -310.549917 
L 469.810593 -306.011226 
L 469.228066 -303.857222 
L 468.645539 -308.048887 
L 468.063013 -312.240552 
L 467.480486 -312.32176 
L 466.897959 -311.252039 
L 466.315432 -310.182319 
L 465.732905 -309.112598 
L 465.150378 -308.042878 
L 464.567851 -306.973157 
L 463.985325 -305.903437 
L 463.402798 -306.509845 
L 462.820271 -317.934939 
L 462.237744 -338.062726 
L 461.655217 -348.418161 
L 461.07269 -342.486344 
L 460.490164 -336.554527 
L 459.907637 -330.622711 
L 459.32511 -324.690894 
L 458.742583 -318.759077 
L 458.160056 -312.82726 
L 457.577529 -306.895443 
L 456.995002 -304.781054 
L 456.412476 -307.880124 
L 455.829949 -313.21943 
L 455.247422 -308.416733 
L 454.664895 -305.671642 
L 454.082368 -304.225463 
L 453.499841 -313.641475 
L 452.917315 -324.28621 
L 452.334788 -334.930944 
L 451.752261 -345.575679 
L 451.169734 -356.220413 
L 450.587207 -366.865148 
L 450.00468 -377.509883 
L 449.422153 -377.33128 
L 448.839627 -368.734528 
L 448.2571 -360.137775 
L 447.674573 -351.541022 
L 447.092046 -342.944269 
L 446.509519 -334.347516 
L 445.926992 -325.750763 
L 445.344466 -320.254541 
L 444.761939 -327.374647 
L 444.179412 -334.494754 
L 443.596885 -339.049691 
L 443.014358 -333.576545 
L 442.431831 -330.940965 
L 441.849304 -328.305385 
L 441.266778 -325.669805 
L 440.684251 -323.034224 
L 440.101724 -320.398644 
L 439.519197 -317.763064 
L 438.93667 -315.127484 
L 438.354143 -312.491903 
L 437.771617 -311.306132 
L 437.18909 -309.724064 
L 436.606563 -307.934637 
L 436.024036 -306.145211 
L 435.441509 -304.355784 
L 434.858982 -302.566357 
L 434.276455 -300.77693 
L 433.693929 -301.591499 
L 433.111402 -307.686537 
L 432.528875 -313.781575 
L 431.946348 -319.876613 
L 431.363821 -321.644206 
L 430.781294 -317.61117 
L 430.198768 -319.80063 
L 429.616241 -321.990089 
L 429.033714 -324.179548 
L 428.451187 -326.369007 
L 427.86866 -328.558467 
L 427.286133 -330.747926 
L 426.703607 -332.937385 
L 426.12108 -335.126845 
L 425.538553 -337.316304 
L 424.956026 -326.926512 
L 424.373499 -315.698102 
L 423.790972 -304.469693 
L 423.208445 -297.912682 
L 422.625919 -297.911069 
L 422.043392 -298.772483 
L 421.460865 -306.094219 
L 420.878338 -313.84908 
L 420.295811 -321.603941 
L 419.713284 -329.358802 
L 419.130758 -332.051309 
L 418.548231 -330.277032 
L 417.965704 -328.502755 
L 417.383177 -326.728479 
L 416.80065 -328.261479 
L 416.218123 -334.961448 
L 415.635596 -341.661416 
L 415.05307 -348.361385 
L 414.470543 -355.061353 
L 413.888016 -361.761322 
L 413.305489 -366.915177 
L 412.722962 -361.24624 
L 412.140435 -355.577302 
L 411.557909 -349.908365 
L 410.975382 -344.239427 
L 410.392855 -338.57049 
L 409.810328 -332.901552 
L 409.227801 -327.232615 
L 408.645274 -321.563677 
L 408.062747 -315.89474 
L 407.480221 -318.95819 
L 406.897694 -317.983694 
L 406.315167 -315.064834 
L 405.73264 -312.145973 
L 405.150113 -309.227113 
L 404.567586 -306.308252 
L 403.98506 -308.725723 
L 403.402533 -311.661162 
L 402.820006 -315.727804 
L 402.237479 -323.444716 
L 401.654952 -331.161629 
L 401.072425 -329.766155 
L 400.489898 -321.093136 
L 399.907372 -320.032216 
L 399.324845 -318.971296 
L 398.742318 -317.910376 
L 398.159791 -316.849455 
L 397.577264 -315.788535 
L 396.994737 -329.070984 
L 396.412211 -342.94777 
L 395.829684 -356.824555 
L 395.247157 -370.70134 
L 394.66463 -362.513649 
L 394.082103 -352.043425 
L 393.499576 -341.573202 
L 392.917049 -331.102978 
L 392.334523 -325.170936 
L 391.751996 -327.968498 
L 391.169469 -330.766061 
L 390.586942 -333.563624 
L 390.004415 -336.361187 
L 389.421888 -339.158749 
L 388.839362 -337.904023 
L 388.256835 -332.597007 
L 387.674308 -327.289991 
L 387.091781 -321.982974 
L 386.509254 -316.675958 
L 385.926727 -312.305807 
L 385.344201 -320.919551 
L 384.761674 -331.801484 
L 384.179147 -342.683417 
L 383.59662 -353.56535 
L 383.014093 -362.704105 
L 382.431566 -354.992131 
L 381.849039 -347.280158 
L 381.266513 -339.568185 
L 380.683986 -331.856212 
L 380.101459 -324.144238 
L 379.518932 -316.432265 
L 378.936405 -314.725398 
L 378.353878 -316.459604 
L 377.771352 -318.193809 
L 377.188825 -319.928015 
L 376.606298 -321.055628 
L 376.023771 -321.907518 
L 375.441244 -322.759408 
L 374.858717 -323.611297 
L 374.27619 -324.463187 
L 373.693664 -325.315077 
L 373.111137 -326.166966 
L 372.52861 -327.018856 
L 371.946083 -327.870745 
L 371.363556 -333.620422 
L 370.781029 -335.92868 
L 370.198503 -325.729606 
L 369.615976 -315.530532 
L 369.033449 -308.441252 
L 368.450922 -309.908552 
L 367.868395 -311.375852 
L 367.285868 -312.843151 
L 366.703341 -314.310451 
L 366.120815 -315.77775 
L 365.538288 -317.24505 
L 364.955761 -318.795142 
L 364.373234 -319.501384 
L 363.790707 -319.845252 
L 363.20818 -320.18912 
L 362.625654 -320.532988 
L 362.043127 -320.876856 
L 361.4606 -321.220724 
L 360.878073 -321.564591 
L 360.295546 -321.908459 
L 359.713019 -322.252327 
L 359.130492 -331.61834 
L 358.547966 -338.628747 
L 357.965439 -336.723325 
L 357.382912 -334.817902 
L 356.800385 -332.91248 
L 356.217858 -331.007058 
L 355.635331 -329.101636 
L 355.052805 -327.196214 
L 354.470278 -325.290792 
L 353.887751 -323.385369 
L 353.305224 -321.479947 
L 352.722697 -319.991374 
L 352.14017 -315.77235 
L 351.557643 -311.553326 
L 350.975117 -307.334301 
L 350.39259 -303.115277 
L 349.810063 -299.726545 
L 349.227536 -301.116754 
L 348.645009 -302.506963 
L 348.062482 -303.897171 
L 347.479956 -305.28738 
L 346.897429 -307.334709 
L 346.314902 -307.861165 
L 345.732375 -308.936506 
L 345.149848 -310.011847 
L 344.567321 -311.087188 
L 343.984795 -312.162529 
L 343.402268 -313.23787 
L 342.819741 -314.313211 
L 342.237214 -315.388552 
L 341.654687 -316.463893 
L 341.07216 -317.539234 
L 340.489633 -317.645837 
L 339.907107 -314.846226 
L 339.32458 -312.046616 
L 338.742053 -309.247005 
L 338.159526 -307.835137 
L 337.576999 -309.420246 
L 336.994472 -317.350711 
L 336.411946 -325.281177 
L 335.829419 -333.211642 
L 335.246892 -341.142108 
L 334.664365 -349.072573 
L 334.081838 -347.135604 
L 333.499311 -343.371331 
L 332.916784 -339.607059 
L 332.334258 -335.842787 
L 331.751731 -332.078515 
L 331.169204 -328.314242 
L 330.586677 -324.54997 
L 330.00415 -320.785698 
L 329.421623 -317.021426 
L 328.839097 -313.257153 
L 328.25657 -307.381182 
L 327.674043 -298.790169 
L 327.091516 -291.721201 
L 326.508989 -292.28806 
L 325.926462 -293.243859 
L 325.343935 -294.199658 
L 324.761409 -299.401907 
L 324.178882 -304.97819 
L 323.596355 -310.554474 
L 323.013828 -316.130758 
L 322.431301 -321.427724 
L 321.848774 -318.065854 
L 321.266248 -314.703985 
L 320.683721 -311.342115 
L 320.101194 -307.980246 
L 319.518667 -305.219401 
L 318.93614 -312.14142 
L 318.353613 -319.063439 
L 317.771086 -325.985458 
L 317.18856 -333.568504 
L 316.606033 -342.377974 
L 316.023506 -340.259307 
L 315.440979 -331.583758 
L 314.858452 -323.980761 
L 314.275925 -316.954288 
L 313.693399 -309.927815 
L 313.110872 -302.901342 
L 312.528345 -310.908029 
L 311.945818 -322.846636 
L 311.363291 -334.785243 
L 310.780764 -346.72385 
L 310.198237 -354.195862 
L 309.615711 -345.715747 
L 309.033184 -337.235633 
L 308.450657 -328.755518 
L 307.86813 -321.134593 
L 307.285603 -325.893359 
L 306.703076 -330.652125 
L 306.12055 -335.410891 
L 305.538023 -340.169658 
L 304.955496 -344.928424 
L 304.372969 -349.68719 
L 303.790442 -343.414471 
L 303.207915 -334.596024 
L 302.625389 -325.777578 
L 302.042862 -316.959131 
L 301.460335 -308.140684 
L 300.877808 -304.22405 
L 300.295281 -307.919436 
L 299.712754 -311.614822 
L 299.130227 -315.310208 
L 298.547701 -322.298856 
L 297.965174 -323.811903 
L 297.382647 -314.177001 
L 296.80012 -310.477949 
L 296.217593 -306.778898 
L 295.635066 -313.511665 
L 295.05254 -322.607019 
L 294.470013 -331.702373 
L 293.887486 -340.797728 
L 293.304959 -349.893082 
L 292.722432 -358.988436 
L 292.139905 -368.08379 
L 291.557378 -357.47987 
L 290.974852 -346.875949 
L 290.392325 -336.272028 
L 289.809798 -325.668107 
L 289.227271 -315.56944 
L 288.644744 -310.621619 
L 288.062217 -312.57563 
L 287.479691 -317.540158 
L 286.897164 -322.504685 
L 286.314637 -327.469212 
L 285.73211 -326.807693 
L 285.149583 -322.296774 
L 284.567056 -319.613103 
L 283.984529 -322.215524 
L 283.402003 -324.817944 
L 282.819476 -327.420365 
L 282.236949 -330.022786 
L 281.654422 -332.625206 
L 281.071895 -335.227627 
L 280.489368 -337.830048 
L 279.906842 -338.37659 
L 279.324315 -330.014324 
L 278.741788 -321.652058 
L 278.159261 -313.289792 
L 277.576734 -315.58341 
L 276.994207 -323.473347 
L 276.41168 -331.363285 
L 275.829154 -339.253222 
L 275.246627 -347.143159 
L 274.6641 -355.033097 
L 274.081573 -362.923034 
L 273.499046 -358.461274 
L 272.916519 -350.541038 
L 272.333993 -342.620803 
L 271.751466 -334.700567 
L 271.168939 -326.780332 
L 270.586412 -318.860097 
L 270.003885 -330.311822 
L 269.421358 -345.59497 
L 268.838832 -360.878119 
L 268.256305 -376.161267 
L 267.673778 -377.714121 
L 267.091251 -356.383151 
L 266.508724 -335.052181 
L 265.926197 -313.72121 
L 265.34367 -303.345924 
L 264.761144 -301.042983 
L 264.178617 -304.107169 
L 263.59609 -308.909965 
L 263.013563 -313.712761 
L 262.431036 -318.515557 
L 261.848509 -323.318354 
L 261.265983 -316.701656 
L 260.683456 -313.046333 
L 260.100929 -309.39101 
L 259.518402 -305.735686 
L 258.935875 -302.080363 
L 258.353348 -300.972131 
L 257.770821 -308.133124 
L 257.188295 -315.294117 
L 256.605768 -322.45511 
L 256.023241 -329.616103 
L 255.440714 -329.9324 
L 254.858187 -324.925047 
L 254.27566 -319.917693 
L 253.693134 -314.910339 
L 253.110607 -311.193139 
L 252.52808 -314.130696 
L 251.945553 -317.068252 
L 251.363026 -320.005808 
L 250.780499 -322.943364 
L 250.197972 -325.88092 
L 249.615446 -329.013723 
L 249.032919 -333.200856 
L 248.450392 -337.387989 
L 247.867865 -341.575122 
L 247.285338 -345.762255 
L 246.702811 -349.949388 
L 246.120285 -354.13652 
L 245.537758 -358.323653 
L 244.955231 -362.510786 
L 244.372704 -366.697919 
L 243.790177 -370.885052 
L 243.20765 -363.939442 
L 242.625123 -353.282916 
L 242.042597 -342.626391 
L 241.46007 -331.969866 
L 240.877543 -321.31334 
L 240.295016 -317.959438 
L 239.712489 -321.5072 
L 239.129962 -325.054963 
L 238.547436 -328.602725 
L 237.964909 -333.026838 
L 237.382382 -335.521177 
L 236.799855 -333.764681 
L 236.217328 -332.008184 
L 235.634801 -330.251687 
L 235.052274 -328.495191 
L 234.469748 -326.738694 
L 233.887221 -324.982197 
L 233.304694 -333.078022 
L 232.722167 -344.50319 
L 232.13964 -355.928358 
L 231.557113 -367.353526 
L 230.974587 -361.790708 
L 230.39206 -355.095357 
L 229.809533 -348.400007 
L 229.227006 -341.704656 
L 228.644479 -335.009306 
L 228.061952 -328.313955 
L 227.479426 -321.618605 
L 226.896899 -314.923254 
L 226.314372 -317.891742 
L 225.731845 -333.326937 
L 225.149318 -341.429143 
L 224.566791 -343.061064 
L 223.984264 -344.692985 
L 223.401738 -346.324906 
L 222.819211 -347.956827 
L 222.236684 -349.588747 
L 221.654157 -351.220668 
L 221.07163 -352.852589 
L 220.489103 -354.48451 
L 219.906577 -356.116431 
L 219.32405 -356.097672 
L 218.741523 -344.524158 
L 218.158996 -332.950643 
L 217.576469 -321.377129 
L 216.993942 -314.555735 
L 216.411415 -321.81847 
L 215.828889 -329.081205 
L 215.246362 -336.34394 
L 214.663835 -343.606674 
L 214.081308 -350.869409 
L 213.498781 -358.132144 
L 212.916254 -354.923634 
L 212.333728 -347.617679 
L 211.751201 -340.311725 
L 211.168674 -333.005771 
L 210.586147 -325.699817 
L 210.00362 -318.393863 
L 209.421093 -311.087908 
L 208.838566 -310.34286 
L 208.25604 -311.629775 
L 207.673513 -312.916689 
L 207.090986 -313.024563 
L 206.508459 -311.73017 
L 205.925932 -312.595138 
L 205.343405 -313.460105 
L 204.760879 -314.325073 
L 204.178352 -317.161394 
L 203.595825 -321.902469 
L 203.013298 -326.643544 
L 202.430771 -331.384619 
L 201.848244 -336.125694 
L 201.265717 -342.724982 
L 200.683191 -342.446344 
L 200.100664 -341.31079 
L 199.518137 -340.175236 
L 198.93561 -339.039682 
L 198.353083 -337.904128 
L 197.770556 -336.768574 
L 197.18803 -335.63302 
L 196.605503 -334.497466 
L 196.022976 -333.361912 
L 195.440449 -332.226358 
L 194.857922 -333.875566 
L 194.275395 -329.046524 
L 193.692868 -324.938428 
L 193.110342 -323.224581 
L 192.527815 -321.510734 
L 191.945288 -319.796887 
L 191.362761 -318.08304 
L 190.780234 -329.529894 
L 190.197707 -350.907572 
L 189.615181 -372.28525 
L 189.032654 -389.987273 
L 188.450127 -372.157957 
L 187.8676 -354.328641 
L 187.285073 -336.499326 
L 186.702546 -342.462553 
L 186.12002 -350.053204 
L 185.537493 -357.643854 
L 184.954966 -365.234505 
L 184.372439 -372.825156 
L 183.789912 -380.415807 
L 183.207385 -388.006458 
L 182.624858 -383.166957 
L 182.042332 -372.677388 
L 181.459805 -362.187819 
L 180.877278 -351.698249 
L 180.294751 -341.20868 
L 179.712224 -330.719111 
L 179.129697 -320.229542 
L 178.547171 -317.755112 
L 177.964644 -323.65803 
L 177.382117 -329.560948 
L 176.79959 -332.96603 
L 176.217063 -329.987755 
L 175.634536 -327.009479 
L 175.052009 -324.031204 
L 174.469483 -323.239453 
L 173.886956 -323.948036 
L 173.304429 -324.656619 
L 172.721902 -325.365202 
L 172.139375 -326.073785 
L 171.556848 -326.782367 
L 170.974322 -327.49095 
L 170.391795 -319.7119 
L 169.809268 -310.720331 
L 169.226741 -301.728762 
L 168.644214 -300.878805 
L 168.061687 -303.289497 
L 167.47916 -305.700189 
L 166.896634 -308.110882 
L 166.314107 -310.521574 
L 165.73158 -312.932267 
L 165.149053 -315.342959 
L 164.566526 -313.145459 
L 163.983999 -305.612849 
L 163.401473 -298.812995 
L 162.818946 -296.369961 
L 162.236419 -297.520063 
L 161.653892 -298.670165 
L 161.071365 -299.820267 
L 160.488838 -302.829836 
L 159.906311 -306.462198 
L 159.323785 -310.09456 
L 158.741258 -313.286885 
L 158.158731 -309.878652 
L 157.576204 -308.077583 
L 156.993677 -312.575472 
L 156.41115 -317.073361 
L 155.828624 -321.57125 
L 155.246097 -326.069139 
L 154.66357 -330.567028 
L 154.081043 -335.064917 
L 153.498516 -340.596298 
L 152.915989 -348.036004 
L 152.333462 -345.430411 
L 151.750936 -337.562995 
L 151.168409 -329.695579 
L 150.585882 -321.828163 
L 150.003355 -313.960748 
L 149.420828 -308.228377 
L 148.838301 -308.692791 
L 148.255775 -313.575273 
L 147.673248 -321.865588 
L 147.090721 -330.155902 
L 146.508194 -334.580269 
L 145.925667 -327.406792 
L 145.34314 -320.233314 
L 144.760614 -313.059836 
L 144.178087 -305.886359 
L 143.59556 -298.712881 
L 143.013033 -291.539404 
L 142.430506 -284.365926 
L 141.847979 -290.217308 
L 141.265452 -298.807144 
L 140.682926 -307.396981 
L 140.100399 -307.469369 
L 139.517872 -305.964451 
L 138.935345 -304.459533 
L 138.352818 -302.954616 
L 137.770291 -303.112854 
L 137.187765 -306.318792 
L 136.605238 -309.52473 
L 136.022711 -312.730667 
L 135.440184 -315.936605 
L 134.857657 -319.142543 
L 134.27513 -321.438566 
L 133.692603 -322.564698 
L 133.110077 -323.690831 
L 132.52755 -324.816963 
L 131.945023 -325.943096 
L 131.362496 -327.069229 
L 130.779969 -332.125724 
L 130.197442 -339.623423 
L 129.614916 -347.121123 
L 129.032389 -354.618823 
L 128.449862 -361.63638 
L 127.867335 -353.769531 
L 127.284808 -345.902682 
L 126.702281 -338.035833 
L 126.119754 -330.168984 
L 125.537228 -322.302135 
L 124.954701 -314.435286 
L 124.372174 -307.194748 
L 123.789647 -308.726158 
L 123.20712 -310.257568 
L 122.624593 -311.788978 
L 122.042067 -310.11578 
L 121.45954 -306.519817 
L 120.877013 -302.923854 
L 120.294486 -308.826852 
L 119.711959 -319.415237 
L 119.129432 -330.003623 
L 118.546905 -340.592008 
L 117.964379 -351.180394 
L 117.381852 -361.768779 
L 116.799325 -372.357165 
L 116.216798 -378.948725 
L 115.634271 -371.26591 
L 115.051744 -363.583095 
L 114.469218 -355.900279 
L 113.886691 -348.217464 
L 113.304164 -340.534649 
L 112.721637 -332.851833 
L 112.13911 -329.665289 
L 111.556583 -335.395169 
L 110.974056 -341.125049 
L 110.39153 -346.854929 
L 109.809003 -343.547517 
L 109.226476 -338.154578 
L 108.643949 -332.761638 
L 108.061422 -327.368698 
L 107.478895 -321.975758 
L 106.896369 -316.582818 
L 106.313842 -311.189878 
L 105.731315 -305.796939 
L 105.148788 -300.403999 
L 104.566261 -295.011059 
L 103.983734 -298.728069 
L 103.401208 -299.414272 
L 102.818681 -300.100474 
L 102.236154 -300.786676 
L 101.653627 -301.472878 
L 101.0711 -302.159081 
L 100.488573 -302.845283 
L 99.906046 -303.531485 
L 99.32352 -304.217688 
L 98.740993 -304.90389 
L 98.158466 -305.590092 
z
" style="stroke: #00008b; stroke-opacity: 0.3"/>
    </defs>
    <g clip-path="url(#p91fffab800)">
     <use xlink:href="#m0cbdb64b6e" x="0" y="432" style="fill: #00008b; fill-opacity: 0.3; stroke: #00008b; stroke-opacity: 0.3"/>
    </g>
   </g>
   <g id="matplotlib.axis_1">
    <g id="xtick_1">
     <g id="line2d_1">
      <defs>
       <path id="m6ecbfd42e5" d="M 0 0 
L 0 3.5 
" style="stroke: #000000; stroke-width: 0.8"/>
      </defs>
      <g>
       <use xlink:href="#m6ecbfd42e5" x="92.096546" y="390.04" style="stroke: #000000; stroke-width: 0.8"/>
      </g>
     </g>
     <g id="text_1">
      <!-- 0 -->
      <g transform="translate(88.915296 404.638438) scale(0.1 -0.1)">
       <defs>
        <path id="DejaVuSans-30" d="M 2034 4250 
Q 1547 4250 1301 3770 
Q 1056 3291 1056 2328 
Q 1056 1369 1301 889 
Q 1547 409 2034 409 
Q 2525 409 2770 889 
Q 3016 1369 3016 2328 
Q 3016 3291 2770 3770 
Q 2525 4250 2034 4250 
z
M 2034 4750 
Q 2819 4750 3233 4129 
Q 3647 3509 3647 2328 
Q 3647 1150 3233 529 
Q 2819 -91 2034 -91 
Q 1250 -91 836 529 
Q 422 1150 422 2328 
Q 422 3509 836 4129 
Q 1250 4750 2034 4750 
z
" transform="scale(0.015625)"/>
       </defs>
       <use xlink:href="#DejaVuSans-30"/>
      </g>
     </g>
    </g>
    <g id="xtick_2">
     <g id="line2d_2">
      <g>
       <use xlink:href="#m6ecbfd42e5" x="210.493421" y="390.04" style="stroke: #000000; stroke-width: 0.8"/>
      </g>
     </g>
     <g id="text_2">
      <!-- 20000 -->
      <g transform="translate(194.587171 404.638438) scale(0.1 -0.1)">
       <defs>
        <path id="DejaVuSans-32" d="M 1228 531 
L 3431 531 
L 3431 0 
L 469 0 
L 469 531 
Q 828 903 1448 1529 
Q 2069 2156 2228 2338 
Q 2531 2678 2651 2914 
Q 2772 3150 2772 3378 
Q 2772 3750 2511 3984 
Q 2250 4219 1831 4219 
Q 1534 4219 1204 4116 
Q 875 4013 500 3803 
L 500 4441 
Q 881 4594 1212 4672 
Q 1544 4750 1819 4750 
Q 2544 4750 2975 4387 
Q 3406 4025 3406 3419 
Q 3406 3131 3298 2873 
Q 3191 2616 2906 2266 
Q 2828 2175 2409 1742 
Q 1991 1309 1228 531 
z
" transform="scale(0.015625)"/>
       </defs>
       <use xlink:href="#DejaVuSans-32"/>
       <use xlink:href="#DejaVuSans-30" transform="translate(63.623047 0)"/>
       <use xlink:href="#DejaVuSans-30" transform="translate(127.246094 0)"/>
       <use xlink:href="#DejaVuSans-30" transform="translate(190.869141 0)"/>
       <use xlink:href="#DejaVuSans-30" transform="translate(254.492188 0)"/>
      </g>
     </g>
    </g>
    <g id="xtick_3">
     <g id="line2d_3">
      <g>
       <use xlink:href="#m6ecbfd42e5" x="328.890295" y="390.04" style="stroke: #000000; stroke-width: 0.8"/>
      </g>
     </g>
     <g id="text_3">
      <!-- 40000 -->
      <g transform="translate(312.984045 404.638438) scale(0.1 -0.1)">
       <defs>
        <path id="DejaVuSans-34" d="M 2419 4116 
L 825 1625 
L 2419 1625 
L 2419 4116 
z
M 2253 4666 
L 3047 4666 
L 3047 1625 
L 3713 1625 
L 3713 1100 
L 3047 1100 
L 3047 0 
L 2419 0 
L 2419 1100 
L 313 1100 
L 313 1709 
L 2253 4666 
z
" transform="scale(0.015625)"/>
       </defs>
       <use xlink:href="#DejaVuSans-34"/>
       <use xlink:href="#DejaVuSans-30" transform="translate(63.623047 0)"/>
       <use xlink:href="#DejaVuSans-30" transform="translate(127.246094 0)"/>
       <use xlink:href="#DejaVuSans-30" transform="translate(190.869141 0)"/>
       <use xlink:href="#DejaVuSans-30" transform="translate(254.492188 0)"/>
      </g>
     </g>
    </g>
    <g id="xtick_4">
     <g id="line2d_4">
      <g>
       <use xlink:href="#m6ecbfd42e5" x="447.28717" y="390.04" style="stroke: #000000; stroke-width: 0.8"/>
      </g>
     </g>
     <g id="text_4">
      <!-- 60000 -->
      <g transform="translate(431.38092 404.638438) scale(0.1 -0.1)">
       <defs>
        <path id="DejaVuSans-36" d="M 2113 2584 
Q 1688 2584 1439 2293 
Q 1191 2003 1191 1497 
Q 1191 994 1439 701 
Q 1688 409 2113 409 
Q 2538 409 2786 701 
Q 3034 994 3034 1497 
Q 3034 2003 2786 2293 
Q 2538 2584 2113 2584 
z
M 3366 4563 
L 3366 3988 
Q 3128 4100 2886 4159 
Q 2644 4219 2406 4219 
Q 1781 4219 1451 3797 
Q 1122 3375 1075 2522 
Q 1259 2794 1537 2939 
Q 1816 3084 2150 3084 
Q 2853 3084 3261 2657 
Q 3669 2231 3669 1497 
Q 3669 778 3244 343 
Q 2819 -91 2113 -91 
Q 1303 -91 875 529 
Q 447 1150 447 2328 
Q 447 3434 972 4092 
Q 1497 4750 2381 4750 
Q 2619 4750 2861 4703 
Q 3103 4656 3366 4563 
z
" transform="scale(0.015625)"/>
       </defs>
       <use xlink:href="#DejaVuSans-36"/>
       <use xlink:href="#DejaVuSans-30" transform="translate(63.623047 0)"/>
       <use xlink:href="#DejaVuSans-30" transform="translate(127.246094 0)"/>
       <use xlink:href="#DejaVuSans-30" transform="translate(190.869141 0)"/>
       <use xlink:href="#DejaVuSans-30" transform="translate(254.492188 0)"/>
      </g>
     </g>
    </g>
    <g id="xtick_5">
     <g id="line2d_5">
      <g>
       <use xlink:href="#m6ecbfd42e5" x="565.684044" y="390.04" style="stroke: #000000; stroke-width: 0.8"/>
      </g>
     </g>
     <g id="text_5">
      <!-- 80000 -->
      <g transform="translate(549.777794 404.638438) scale(0.1 -0.1)">
       <defs>
        <path id="DejaVuSans-38" d="M 2034 2216 
Q 1584 2216 1326 1975 
Q 1069 1734 1069 1313 
Q 1069 891 1326 650 
Q 1584 409 2034 409 
Q 2484 409 2743 651 
Q 3003 894 3003 1313 
Q 3003 1734 2745 1975 
Q 2488 2216 2034 2216 
z
M 1403 2484 
Q 997 2584 770 2862 
Q 544 3141 544 3541 
Q 544 4100 942 4425 
Q 1341 4750 2034 4750 
Q 2731 4750 3128 4425 
Q 3525 4100 3525 3541 
Q 3525 3141 3298 2862 
Q 3072 2584 2669 2484 
Q 3125 2378 3379 2068 
Q 3634 1759 3634 1313 
Q 3634 634 3220 271 
Q 2806 -91 2034 -91 
Q 1263 -91 848 271 
Q 434 634 434 1313 
Q 434 1759 690 2068 
Q 947 2378 1403 2484 
z
M 1172 3481 
Q 1172 3119 1398 2916 
Q 1625 2713 2034 2713 
Q 2441 2713 2670 2916 
Q 2900 3119 2900 3481 
Q 2900 3844 2670 4047 
Q 2441 4250 2034 4250 
Q 1625 4250 1398 4047 
Q 1172 3844 1172 3481 
z
" transform="scale(0.015625)"/>
       </defs>
       <use xlink:href="#DejaVuSans-38"/>
       <use xlink:href="#DejaVuSans-30" transform="translate(63.623047 0)"/>
       <use xlink:href="#DejaVuSans-30" transform="translate(127.246094 0)"/>
       <use xlink:href="#DejaVuSans-30" transform="translate(190.869141 0)"/>
       <use xlink:href="#DejaVuSans-30" transform="translate(254.492188 0)"/>
      </g>
     </g>
    </g>
    <g id="xtick_6">
     <g id="line2d_6">
      <g>
       <use xlink:href="#m6ecbfd42e5" x="684.080919" y="390.04" style="stroke: #000000; stroke-width: 0.8"/>
      </g>
     </g>
     <g id="text_6">
      <!-- 100000 -->
      <g transform="translate(664.993419 404.638438) scale(0.1 -0.1)">
       <defs>
        <path id="DejaVuSans-31" d="M 794 531 
L 1825 531 
L 1825 4091 
L 703 3866 
L 703 4441 
L 1819 4666 
L 2450 4666 
L 2450 531 
L 3481 531 
L 3481 0 
L 794 0 
L 794 531 
z
" transform="scale(0.015625)"/>
       </defs>
       <use xlink:href="#DejaVuSans-31"/>
       <use xlink:href="#DejaVuSans-30" transform="translate(63.623047 0)"/>
       <use xlink:href="#DejaVuSans-30" transform="translate(127.246094 0)"/>
       <use xlink:href="#DejaVuSans-30" transform="translate(190.869141 0)"/>
       <use xlink:href="#DejaVuSans-30" transform="translate(254.492188 0)"/>
       <use xlink:href="#DejaVuSans-30" transform="translate(318.115234 0)"/>
      </g>
     </g>
    </g>
    <g id="text_7">
     <!-- Step -->
     <g transform="translate(377.745469 418.316562) scale(0.1 -0.1)">
      <defs>
       <path id="DejaVuSans-53" d="M 3425 4513 
L 3425 3897 
Q 3066 4069 2747 4153 
Q 2428 4238 2131 4238 
Q 1616 4238 1336 4038 
Q 1056 3838 1056 3469 
Q 1056 3159 1242 3001 
Q 1428 2844 1947 2747 
L 2328 2669 
Q 3034 2534 3370 2195 
Q 3706 1856 3706 1288 
Q 3706 609 3251 259 
Q 2797 -91 1919 -91 
Q 1588 -91 1214 -16 
Q 841 59 441 206 
L 441 856 
Q 825 641 1194 531 
Q 1563 422 1919 422 
Q 2459 422 2753 634 
Q 3047 847 3047 1241 
Q 3047 1584 2836 1778 
Q 2625 1972 2144 2069 
L 1759 2144 
Q 1053 2284 737 2584 
Q 422 2884 422 3419 
Q 422 4038 858 4394 
Q 1294 4750 2059 4750 
Q 2388 4750 2728 4690 
Q 3069 4631 3425 4513 
z
" transform="scale(0.015625)"/>
       <path id="DejaVuSans-74" d="M 1172 4494 
L 1172 3500 
L 2356 3500 
L 2356 3053 
L 1172 3053 
L 1172 1153 
Q 1172 725 1289 603 
Q 1406 481 1766 481 
L 2356 481 
L 2356 0 
L 1766 0 
Q 1100 0 847 248 
Q 594 497 594 1153 
L 594 3053 
L 172 3053 
L 172 3500 
L 594 3500 
L 594 4494 
L 1172 4494 
z
" transform="scale(0.015625)"/>
       <path id="DejaVuSans-65" d="M 3597 1894 
L 3597 1613 
L 953 1613 
Q 991 1019 1311 708 
Q 1631 397 2203 397 
Q 2534 397 2845 478 
Q 3156 559 3463 722 
L 3463 178 
Q 3153 47 2828 -22 
Q 2503 -91 2169 -91 
Q 1331 -91 842 396 
Q 353 884 353 1716 
Q 353 2575 817 3079 
Q 1281 3584 2069 3584 
Q 2775 3584 3186 3129 
Q 3597 2675 3597 1894 
z
M 3022 2063 
Q 3016 2534 2758 2815 
Q 2500 3097 2075 3097 
Q 1594 3097 1305 2825 
Q 1016 2553 972 2059 
L 3022 2063 
z
" transform="scale(0.015625)"/>
       <path id="DejaVuSans-70" d="M 1159 525 
L 1159 -1331 
L 581 -1331 
L 581 3500 
L 1159 3500 
L 1159 2969 
Q 1341 3281 1617 3432 
Q 1894 3584 2278 3584 
Q 2916 3584 3314 3078 
Q 3713 2572 3713 1747 
Q 3713 922 3314 415 
Q 2916 -91 2278 -91 
Q 1894 -91 1617 61 
Q 1341 213 1159 525 
z
M 3116 1747 
Q 3116 2381 2855 2742 
Q 2594 3103 2138 3103 
Q 1681 3103 1420 2742 
Q 1159 2381 1159 1747 
Q 1159 1113 1420 752 
Q 1681 391 2138 391 
Q 2594 391 2855 752 
Q 3116 1113 3116 1747 
z
" transform="scale(0.015625)"/>
      </defs>
      <use xlink:href="#DejaVuSans-53"/>
      <use xlink:href="#DejaVuSans-74" transform="translate(63.476562 0)"/>
      <use xlink:href="#DejaVuSans-65" transform="translate(102.685547 0)"/>
      <use xlink:href="#DejaVuSans-70" transform="translate(164.208984 0)"/>
     </g>
    </g>
   </g>
   <g id="matplotlib.axis_2">
    <g id="ytick_1">
     <g id="line2d_7">
      <defs>
       <path id="m3aa89337ca" d="M 0 0 
L -3.5 0 
" style="stroke: #000000; stroke-width: 0.8"/>
      </defs>
      <g>
       <use xlink:href="#m3aa89337ca" x="69.06125" y="349.074312" style="stroke: #000000; stroke-width: 0.8"/>
      </g>
     </g>
     <g id="text_8">
      <!-- 0.020 -->
      <g transform="translate(25.053438 352.87353) scale(0.1 -0.1)">
       <defs>
        <path id="DejaVuSans-2212" d="M 678 2272 
L 4684 2272 
L 4684 1741 
L 678 1741 
L 678 2272 
z
" transform="scale(0.015625)"/>
        <path id="DejaVuSans-2e" d="M 684 794 
L 1344 794 
L 1344 0 
L 684 0 
L 684 794 
z
" transform="scale(0.015625)"/>
       </defs>
       <use xlink:href="#DejaVuSans-2212"/>
       <use xlink:href="#DejaVuSans-30" transform="translate(83.789062 0)"/>
       <use xlink:href="#DejaVuSans-2e" transform="translate(147.412109 0)"/>
       <use xlink:href="#DejaVuSans-30" transform="translate(179.199219 0)"/>
       <use xlink:href="#DejaVuSans-32" transform="translate(242.822266 0)"/>
       <use xlink:href="#DejaVuSans-30" transform="translate(306.445312 0)"/>
      </g>
     </g>
    </g>
    <g id="ytick_2">
     <g id="line2d_8">
      <g>
       <use xlink:href="#m3aa89337ca" x="69.06125" y="295.680202" style="stroke: #000000; stroke-width: 0.8"/>
      </g>
     </g>
     <g id="text_9">
      <!-- 0.015 -->
      <g transform="translate(25.053438 299.47942) scale(0.1 -0.1)">
       <defs>
        <path id="DejaVuSans-35" d="M 691 4666 
L 3169 4666 
L 3169 4134 
L 1269 4134 
L 1269 2991 
Q 1406 3038 1543 3061 
Q 1681 3084 1819 3084 
Q 2600 3084 3056 2656 
Q 3513 2228 3513 1497 
Q 3513 744 3044 326 
Q 2575 -91 1722 -91 
Q 1428 -91 1123 -41 
Q 819 9 494 109 
L 494 744 
Q 775 591 1075 516 
Q 1375 441 1709 441 
Q 2250 441 2565 725 
Q 2881 1009 2881 1497 
Q 2881 1984 2565 2268 
Q 2250 2553 1709 2553 
Q 1456 2553 1204 2497 
Q 953 2441 691 2322 
L 691 4666 
z
" transform="scale(0.015625)"/>
       </defs>
       <use xlink:href="#DejaVuSans-2212"/>
       <use xlink:href="#DejaVuSans-30" transform="translate(83.789062 0)"/>
       <use xlink:href="#DejaVuSans-2e" transform="translate(147.412109 0)"/>
       <use xlink:href="#DejaVuSans-30" transform="translate(179.199219 0)"/>
       <use xlink:href="#DejaVuSans-31" transform="translate(242.822266 0)"/>
       <use xlink:href="#DejaVuSans-35" transform="translate(306.445312 0)"/>
      </g>
     </g>
    </g>
    <g id="ytick_3">
     <g id="line2d_9">
      <g>
       <use xlink:href="#m3aa89337ca" x="69.06125" y="242.286091" style="stroke: #000000; stroke-width: 0.8"/>
      </g>
     </g>
     <g id="text_10">
      <!-- 0.010 -->
      <g transform="translate(25.053438 246.08531) scale(0.1 -0.1)">
       <use xlink:href="#DejaVuSans-2212"/>
       <use xlink:href="#DejaVuSans-30" transform="translate(83.789062 0)"/>
       <use xlink:href="#DejaVuSans-2e" transform="translate(147.412109 0)"/>
       <use xlink:href="#DejaVuSans-30" transform="translate(179.199219 0)"/>
       <use xlink:href="#DejaVuSans-31" transform="translate(242.822266 0)"/>
       <use xlink:href="#DejaVuSans-30" transform="translate(306.445312 0)"/>
      </g>
     </g>
    </g>
    <g id="ytick_4">
     <g id="line2d_10">
      <g>
       <use xlink:href="#m3aa89337ca" x="69.06125" y="188.891981" style="stroke: #000000; stroke-width: 0.8"/>
      </g>
     </g>
     <g id="text_11">
      <!-- 0.005 -->
      <g transform="translate(25.053438 192.6912) scale(0.1 -0.1)">
       <use xlink:href="#DejaVuSans-2212"/>
       <use xlink:href="#DejaVuSans-30" transform="translate(83.789062 0)"/>
       <use xlink:href="#DejaVuSans-2e" transform="translate(147.412109 0)"/>
       <use xlink:href="#DejaVuSans-30" transform="translate(179.199219 0)"/>
       <use xlink:href="#DejaVuSans-30" transform="translate(242.822266 0)"/>
       <use xlink:href="#DejaVuSans-35" transform="translate(306.445312 0)"/>
      </g>
     </g>
    </g>
    <g id="ytick_5">
     <g id="line2d_11">
      <g>
       <use xlink:href="#m3aa89337ca" x="69.06125" y="135.497871" style="stroke: #000000; stroke-width: 0.8"/>
      </g>
     </g>
     <g id="text_12">
      <!-- 0.000 -->
      <g transform="translate(33.433125 139.29709) scale(0.1 -0.1)">
       <use xlink:href="#DejaVuSans-30"/>
       <use xlink:href="#DejaVuSans-2e" transform="translate(63.623047 0)"/>
       <use xlink:href="#DejaVuSans-30" transform="translate(95.410156 0)"/>
       <use xlink:href="#DejaVuSans-30" transform="translate(159.033203 0)"/>
       <use xlink:href="#DejaVuSans-30" transform="translate(222.65625 0)"/>
      </g>
     </g>
    </g>
    <g id="ytick_6">
     <g id="line2d_12">
      <g>
       <use xlink:href="#m3aa89337ca" x="69.06125" y="82.103761" style="stroke: #000000; stroke-width: 0.8"/>
      </g>
     </g>
     <g id="text_13">
      <!-- 0.005 -->
      <g transform="translate(33.433125 85.90298) scale(0.1 -0.1)">
       <use xlink:href="#DejaVuSans-30"/>
       <use xlink:href="#DejaVuSans-2e" transform="translate(63.623047 0)"/>
       <use xlink:href="#DejaVuSans-30" transform="translate(95.410156 0)"/>
       <use xlink:href="#DejaVuSans-30" transform="translate(159.033203 0)"/>
       <use xlink:href="#DejaVuSans-35" transform="translate(222.65625 0)"/>
      </g>
     </g>
    </g>
    <g id="ytick_7">
     <g id="line2d_13">
      <g>
       <use xlink:href="#m3aa89337ca" x="69.06125" y="28.709651" style="stroke: #000000; stroke-width: 0.8"/>
      </g>
     </g>
     <g id="text_14">
      <!-- 0.010 -->
      <g transform="translate(33.433125 32.508869) scale(0.1 -0.1)">
       <use xlink:href="#DejaVuSans-30"/>
       <use xlink:href="#DejaVuSans-2e" transform="translate(63.623047 0)"/>
       <use xlink:href="#DejaVuSans-30" transform="translate(95.410156 0)"/>
       <use xlink:href="#DejaVuSans-31" transform="translate(159.033203 0)"/>
       <use xlink:href="#DejaVuSans-30" transform="translate(222.65625 0)"/>
      </g>
     </g>
    </g>
    <g id="text_15">
     <!-- losses/policy_loss -->
     <g transform="translate(18.695625 251.641563) rotate(-90) scale(0.1 -0.1)">
      <defs>
       <path id="DejaVuSans-6c" d="M 603 4863 
L 1178 4863 
L 1178 0 
L 603 0 
L 603 4863 
z
" transform="scale(0.015625)"/>
       <path id="DejaVuSans-6f" d="M 1959 3097 
Q 1497 3097 1228 2736 
Q 959 2375 959 1747 
Q 959 1119 1226 758 
Q 1494 397 1959 397 
Q 2419 397 2687 759 
Q 2956 1122 2956 1747 
Q 2956 2369 2687 2733 
Q 2419 3097 1959 3097 
z
M 1959 3584 
Q 2709 3584 3137 3096 
Q 3566 2609 3566 1747 
Q 3566 888 3137 398 
Q 2709 -91 1959 -91 
Q 1206 -91 779 398 
Q 353 888 353 1747 
Q 353 2609 779 3096 
Q 1206 3584 1959 3584 
z
" transform="scale(0.015625)"/>
       <path id="DejaVuSans-73" d="M 2834 3397 
L 2834 2853 
Q 2591 2978 2328 3040 
Q 2066 3103 1784 3103 
Q 1356 3103 1142 2972 
Q 928 2841 928 2578 
Q 928 2378 1081 2264 
Q 1234 2150 1697 2047 
L 1894 2003 
Q 2506 1872 2764 1633 
Q 3022 1394 3022 966 
Q 3022 478 2636 193 
Q 2250 -91 1575 -91 
Q 1294 -91 989 -36 
Q 684 19 347 128 
L 347 722 
Q 666 556 975 473 
Q 1284 391 1588 391 
Q 1994 391 2212 530 
Q 2431 669 2431 922 
Q 2431 1156 2273 1281 
Q 2116 1406 1581 1522 
L 1381 1569 
Q 847 1681 609 1914 
Q 372 2147 372 2553 
Q 372 3047 722 3315 
Q 1072 3584 1716 3584 
Q 2034 3584 2315 3537 
Q 2597 3491 2834 3397 
z
" transform="scale(0.015625)"/>
       <path id="DejaVuSans-2f" d="M 1625 4666 
L 2156 4666 
L 531 -594 
L 0 -594 
L 1625 4666 
z
" transform="scale(0.015625)"/>
       <path id="DejaVuSans-69" d="M 603 3500 
L 1178 3500 
L 1178 0 
L 603 0 
L 603 3500 
z
M 603 4863 
L 1178 4863 
L 1178 4134 
L 603 4134 
L 603 4863 
z
" transform="scale(0.015625)"/>
       <path id="DejaVuSans-63" d="M 3122 3366 
L 3122 2828 
Q 2878 2963 2633 3030 
Q 2388 3097 2138 3097 
Q 1578 3097 1268 2742 
Q 959 2388 959 1747 
Q 959 1106 1268 751 
Q 1578 397 2138 397 
Q 2388 397 2633 464 
Q 2878 531 3122 666 
L 3122 134 
Q 2881 22 2623 -34 
Q 2366 -91 2075 -91 
Q 1284 -91 818 406 
Q 353 903 353 1747 
Q 353 2603 823 3093 
Q 1294 3584 2113 3584 
Q 2378 3584 2631 3529 
Q 2884 3475 3122 3366 
z
" transform="scale(0.015625)"/>
       <path id="DejaVuSans-79" d="M 2059 -325 
Q 1816 -950 1584 -1140 
Q 1353 -1331 966 -1331 
L 506 -1331 
L 506 -850 
L 844 -850 
Q 1081 -850 1212 -737 
Q 1344 -625 1503 -206 
L 1606 56 
L 191 3500 
L 800 3500 
L 1894 763 
L 2988 3500 
L 3597 3500 
L 2059 -325 
z
" transform="scale(0.015625)"/>
       <path id="DejaVuSans-5f" d="M 3263 -1063 
L 3263 -1509 
L -63 -1509 
L -63 -1063 
L 3263 -1063 
z
" transform="scale(0.015625)"/>
      </defs>
      <use xlink:href="#DejaVuSans-6c"/>
      <use xlink:href="#DejaVuSans-6f" transform="translate(27.783203 0)"/>
      <use xlink:href="#DejaVuSans-73" transform="translate(88.964844 0)"/>
      <use xlink:href="#DejaVuSans-73" transform="translate(141.064453 0)"/>
      <use xlink:href="#DejaVuSans-65" transform="translate(193.164062 0)"/>
      <use xlink:href="#DejaVuSans-73" transform="translate(254.6875 0)"/>
      <use xlink:href="#DejaVuSans-2f" transform="translate(306.787109 0)"/>
      <use xlink:href="#DejaVuSans-70" transform="translate(340.478516 0)"/>
      <use xlink:href="#DejaVuSans-6f" transform="translate(403.955078 0)"/>
      <use xlink:href="#DejaVuSans-6c" transform="translate(465.136719 0)"/>
      <use xlink:href="#DejaVuSans-69" transform="translate(492.919922 0)"/>
      <use xlink:href="#DejaVuSans-63" transform="translate(520.703125 0)"/>
      <use xlink:href="#DejaVuSans-79" transform="translate(575.683594 0)"/>
      <use xlink:href="#DejaVuSans-5f" transform="translate(634.863281 0)"/>
      <use xlink:href="#DejaVuSans-6c" transform="translate(684.863281 0)"/>
      <use xlink:href="#DejaVuSans-6f" transform="translate(712.646484 0)"/>
      <use xlink:href="#DejaVuSans-73" transform="translate(773.828125 0)"/>
      <use xlink:href="#DejaVuSans-73" transform="translate(825.927734 0)"/>
     </g>
    </g>
   </g>
   <g id="line2d_14">
    <path d="M 98.158466 181.174928 
L 103.983734 171.744409 
L 104.566261 171.090672 
L 110.39153 166.654375 
L 116.216798 168.579061 
L 116.799325 168.283599 
L 122.042067 164.394847 
L 122.624593 164.599491 
L 128.449862 177.258073 
L 130.197442 176.568465 
L 134.27513 174.849166 
L 134.857657 174.866956 
L 140.682926 177.015271 
L 146.508194 174.231364 
L 147.090721 173.207047 
L 152.333462 161.750417 
L 152.915989 161.297861 
L 158.741258 172.434547 
L 164.566526 188.400112 
L 165.149053 188.416004 
L 170.974322 174.762685 
L 176.79959 173.876303 
L 177.382117 174.359267 
L 182.624858 180.71898 
L 183.207385 181.192401 
L 189.032654 180.795919 
L 190.780234 178.60655 
L 194.857922 173.342185 
L 195.440449 173.104138 
L 201.265717 175.937162 
L 207.090986 186.529383 
L 207.673513 186.531544 
L 213.498781 181.701155 
L 219.32405 175.240575 
L 219.906577 175.456918 
L 225.731845 178.91904 
L 231.557113 183.710892 
L 237.382382 184.324402 
L 237.964909 183.732687 
L 243.20765 175.328512 
L 243.790177 174.842652 
L 249.615446 183.422141 
L 250.197972 183.44115 
L 255.440714 182.214001 
L 256.023241 182.326713 
L 261.848509 186.629398 
L 267.673778 182.431385 
L 268.838832 182.089575 
L 279.906842 179.994756 
L 281.071895 180.529912 
L 286.314637 183.248508 
L 292.139905 185.356999 
L 297.965174 172.582692 
L 298.547701 172.613541 
L 303.790442 180.947429 
L 304.372969 181.653612 
L 310.198237 179.19058 
L 310.780764 180.265921 
L 316.023506 193.274533 
L 316.606033 193.604882 
L 322.431301 178.324168 
L 324.178882 181.081051 
L 328.25657 187.694084 
L 328.839097 187.705003 
L 334.664365 180.696128 
L 341.654687 183.320387 
L 346.314902 185.404681 
L 346.897429 185.353024 
L 352.722697 178.876409 
L 354.470278 184.363686 
L 358.547966 197.536212 
L 359.130492 198.002253 
L 364.955761 190.032003 
L 370.781029 171.098837 
L 371.363556 170.518958 
L 376.606298 169.92564 
L 377.188825 170.150866 
L 383.014093 178.80843 
L 384.179147 179.15676 
L 388.839362 180.277975 
L 389.421888 180.046787 
L 395.247157 174.136045 
L 401.072425 180.326739 
L 402.820006 182.965639 
L 406.897694 189.335159 
L 407.480221 189.648629 
L 413.305489 177.540432 
L 413.888016 177.51303 
L 419.713284 178.88512 
L 425.538553 179.322098 
L 431.363821 174.927511 
L 431.946348 175.832912 
L 437.18909 190.321571 
L 437.771617 191.112269 
L 444.179412 173.061746 
L 449.422153 161.08887 
L 450.00468 160.936894 
L 455.829949 174.529003 
L 461.655217 175.916265 
L 462.237744 177.061865 
L 467.480486 192.809385 
L 468.063013 193.665887 
L 473.888281 170.330092 
L 474.470808 170.842404 
L 479.713549 181.363914 
L 480.296076 181.752787 
L 486.121345 174.238846 
L 491.946613 175.315123 
L 492.52914 175.111001 
L 498.936935 170.598958 
L 504.179677 167.445668 
L 504.762204 168.193626 
L 510.004945 177.693025 
L 510.587472 178.17733 
L 516.412741 173.500667 
L 522.820536 170.673786 
L 528.063278 168.648856 
L 528.645804 168.604467 
L 534.471073 177.913159 
L 535.0536 177.178359 
L 540.296341 165.568153 
L 540.878868 164.646491 
L 546.704137 162.462211 
L 549.034244 163.512149 
L 553.111932 165.481742 
L 558.9372 169.533948 
L 564.762469 163.187581 
L 565.344996 163.264595 
L 570.587737 166.463972 
L 571.170264 166.348019 
L 576.995533 154.816824 
L 577.578059 155.622925 
L 582.820801 164.701945 
L 583.403328 165.036162 
L 589.228596 161.664596 
L 595.636392 161.586423 
L 600.879133 160.586209 
L 601.46166 160.325514 
L 607.286928 153.896448 
L 607.869455 154.674086 
L 613.112197 163.499234 
L 613.694724 163.607509 
L 619.519992 154.870739 
L 625.345261 156.711516 
L 625.927788 156.369824 
L 631.170529 150.815973 
L 631.753056 150.372782 
L 637.578324 151.157971 
L 638.743378 150.071487 
L 643.403593 145.30402 
L 643.98612 145.113467 
L 649.811388 148.410598 
L 655.636657 148.714878 
L 656.219183 148.280826 
L 662.044452 141.324357 
L 667.86972 142.011002 
L 670.782355 141.667284 
L 680.102784 140.388001 
L 680.102784 140.388001 
" clip-path="url(#p91fffab800)" style="fill: none; stroke: #00008b; stroke-width: 1.5; stroke-linecap: square"/>
   </g>
   <g id="patch_3">
    <path d="M 69.06125 390.04 
L 69.06125 25.44 
" style="fill: none; stroke: #000000; stroke-width: 0.8; stroke-linejoin: miter; stroke-linecap: square"/>
   </g>
   <g id="patch_4">
    <path d="M 709.2 390.04 
L 709.2 25.44 
" style="fill: none; stroke: #000000; stroke-width: 0.8; stroke-linejoin: miter; stroke-linecap: square"/>
   </g>
   <g id="patch_5">
    <path d="M 69.06125 390.04 
L 709.2 390.04 
" style="fill: none; stroke: #000000; stroke-width: 0.8; stroke-linejoin: miter; stroke-linecap: square"/>
   </g>
   <g id="patch_6">
    <path d="M 69.06125 25.44 
L 709.2 25.44 
" style="fill: none; stroke: #000000; stroke-width: 0.8; stroke-linejoin: miter; stroke-linecap: square"/>
   </g>
   <g id="text_16">
    <!-- losses/policy_loss for ppo_atari (aggregated via interpolation over runs) -->
    <g transform="translate(173.6125 19.44) scale(0.12 -0.12)">
     <defs>
      <path id="DejaVuSans-20" transform="scale(0.015625)"/>
      <path id="DejaVuSans-66" d="M 2375 4863 
L 2375 4384 
L 1825 4384 
Q 1516 4384 1395 4259 
Q 1275 4134 1275 3809 
L 1275 3500 
L 2222 3500 
L 2222 3053 
L 1275 3053 
L 1275 0 
L 697 0 
L 697 3053 
L 147 3053 
L 147 3500 
L 697 3500 
L 697 3744 
Q 697 4328 969 4595 
Q 1241 4863 1831 4863 
L 2375 4863 
z
" transform="scale(0.015625)"/>
      <path id="DejaVuSans-72" d="M 2631 2963 
Q 2534 3019 2420 3045 
Q 2306 3072 2169 3072 
Q 1681 3072 1420 2755 
Q 1159 2438 1159 1844 
L 1159 0 
L 581 0 
L 581 3500 
L 1159 3500 
L 1159 2956 
Q 1341 3275 1631 3429 
Q 1922 3584 2338 3584 
Q 2397 3584 2469 3576 
Q 2541 3569 2628 3553 
L 2631 2963 
z
" transform="scale(0.015625)"/>
      <path id="DejaVuSans-61" d="M 2194 1759 
Q 1497 1759 1228 1600 
Q 959 1441 959 1056 
Q 959 750 1161 570 
Q 1363 391 1709 391 
Q 2188 391 2477 730 
Q 2766 1069 2766 1631 
L 2766 1759 
L 2194 1759 
z
M 3341 1997 
L 3341 0 
L 2766 0 
L 2766 531 
Q 2569 213 2275 61 
Q 1981 -91 1556 -91 
Q 1019 -91 701 211 
Q 384 513 384 1019 
Q 384 1609 779 1909 
Q 1175 2209 1959 2209 
L 2766 2209 
L 2766 2266 
Q 2766 2663 2505 2880 
Q 2244 3097 1772 3097 
Q 1472 3097 1187 3025 
Q 903 2953 641 2809 
L 641 3341 
Q 956 3463 1253 3523 
Q 1550 3584 1831 3584 
Q 2591 3584 2966 3190 
Q 3341 2797 3341 1997 
z
" transform="scale(0.015625)"/>
      <path id="DejaVuSans-28" d="M 1984 4856 
Q 1566 4138 1362 3434 
Q 1159 2731 1159 2009 
Q 1159 1288 1364 580 
Q 1569 -128 1984 -844 
L 1484 -844 
Q 1016 -109 783 600 
Q 550 1309 550 2009 
Q 550 2706 781 3412 
Q 1013 4119 1484 4856 
L 1984 4856 
z
" transform="scale(0.015625)"/>
      <path id="DejaVuSans-67" d="M 2906 1791 
Q 2906 2416 2648 2759 
Q 2391 3103 1925 3103 
Q 1463 3103 1205 2759 
Q 947 2416 947 1791 
Q 947 1169 1205 825 
Q 1463 481 1925 481 
Q 2391 481 2648 825 
Q 2906 1169 2906 1791 
z
M 3481 434 
Q 3481 -459 3084 -895 
Q 2688 -1331 1869 -1331 
Q 1566 -1331 1297 -1286 
Q 1028 -1241 775 -1147 
L 775 -588 
Q 1028 -725 1275 -790 
Q 1522 -856 1778 -856 
Q 2344 -856 2625 -561 
Q 2906 -266 2906 331 
L 2906 616 
Q 2728 306 2450 153 
Q 2172 0 1784 0 
Q 1141 0 747 490 
Q 353 981 353 1791 
Q 353 2603 747 3093 
Q 1141 3584 1784 3584 
Q 2172 3584 2450 3431 
Q 2728 3278 2906 2969 
L 2906 3500 
L 3481 3500 
L 3481 434 
z
" transform="scale(0.015625)"/>
      <path id="DejaVuSans-64" d="M 2906 2969 
L 2906 4863 
L 3481 4863 
L 3481 0 
L 2906 0 
L 2906 525 
Q 2725 213 2448 61 
Q 2172 -91 1784 -91 
Q 1150 -91 751 415 
Q 353 922 353 1747 
Q 353 2572 751 3078 
Q 1150 3584 1784 3584 
Q 2172 3584 2448 3432 
Q 2725 3281 2906 2969 
z
M 947 1747 
Q 947 1113 1208 752 
Q 1469 391 1925 391 
Q 2381 391 2643 752 
Q 2906 1113 2906 1747 
Q 2906 2381 2643 2742 
Q 2381 3103 1925 3103 
Q 1469 3103 1208 2742 
Q 947 2381 947 1747 
z
" transform="scale(0.015625)"/>
      <path id="DejaVuSans-76" d="M 191 3500 
L 800 3500 
L 1894 563 
L 2988 3500 
L 3597 3500 
L 2284 0 
L 1503 0 
L 191 3500 
z
" transform="scale(0.015625)"/>
      <path id="DejaVuSans-6e" d="M 3513 2113 
L 3513 0 
L 2938 0 
L 2938 2094 
Q 2938 2591 2744 2837 
Q 2550 3084 2163 3084 
Q 1697 3084 1428 2787 
Q 1159 2491 1159 1978 
L 1159 0 
L 581 0 
L 581 3500 
L 1159 3500 
L 1159 2956 
Q 1366 3272 1645 3428 
Q 1925 3584 2291 3584 
Q 2894 3584 3203 3211 
Q 3513 2838 3513 2113 
z
" transform="scale(0.015625)"/>
      <path id="DejaVuSans-75" d="M 544 1381 
L 544 3500 
L 1119 3500 
L 1119 1403 
Q 1119 906 1312 657 
Q 1506 409 1894 409 
Q 2359 409 2629 706 
Q 2900 1003 2900 1516 
L 2900 3500 
L 3475 3500 
L 3475 0 
L 2900 0 
L 2900 538 
Q 2691 219 2414 64 
Q 2138 -91 1772 -91 
Q 1169 -91 856 284 
Q 544 659 544 1381 
z
M 1991 3584 
L 1991 3584 
z
" transform="scale(0.015625)"/>
      <path id="DejaVuSans-29" d="M 513 4856 
L 1013 4856 
Q 1481 4119 1714 3412 
Q 1947 2706 1947 2009 
Q 1947 1309 1714 600 
Q 1481 -109 1013 -844 
L 513 -844 
Q 928 -128 1133 580 
Q 1338 1288 1338 2009 
Q 1338 2731 1133 3434 
Q 928 4138 513 4856 
z
" transform="scale(0.015625)"/>
     </defs>
     <use xlink:href="#DejaVuSans-6c"/>
     <use xlink:href="#DejaVuSans-6f" transform="translate(27.783203 0)"/>
     <use xlink:href="#DejaVuSans-73" transform="translate(88.964844 0)"/>
     <use xlink:href="#DejaVuSans-73" transform="translate(141.064453 0)"/>
     <use xlink:href="#DejaVuSans-65" transform="translate(193.164062 0)"/>
     <use xlink:href="#DejaVuSans-73" transform="translate(254.6875 0)"/>
     <use xlink:href="#DejaVuSans-2f" transform="translate(306.787109 0)"/>
     <use xlink:href="#DejaVuSans-70" transform="translate(340.478516 0)"/>
     <use xlink:href="#DejaVuSans-6f" transform="translate(403.955078 0)"/>
     <use xlink:href="#DejaVuSans-6c" transform="translate(465.136719 0)"/>
     <use xlink:href="#DejaVuSans-69" transform="translate(492.919922 0)"/>
     <use xlink:href="#DejaVuSans-63" transform="translate(520.703125 0)"/>
     <use xlink:href="#DejaVuSans-79" transform="translate(575.683594 0)"/>
     <use xlink:href="#DejaVuSans-5f" transform="translate(634.863281 0)"/>
     <use xlink:href="#DejaVuSans-6c" transform="translate(684.863281 0)"/>
     <use xlink:href="#DejaVuSans-6f" transform="translate(712.646484 0)"/>
     <use xlink:href="#DejaVuSans-73" transform="translate(773.828125 0)"/>
     <use xlink:href="#DejaVuSans-73" transform="translate(825.927734 0)"/>
     <use xlink:href="#DejaVuSans-20" transform="translate(878.027344 0)"/>
     <use xlink:href="#DejaVuSans-66" transform="translate(909.814453 0)"/>
     <use xlink:href="#DejaVuSans-6f" transform="translate(945.019531 0)"/>
     <use xlink:href="#DejaVuSans-72" transform="translate(1006.201172 0)"/>
     <use xlink:href="#DejaVuSans-20" transform="translate(1047.314453 0)"/>
     <use xlink:href="#DejaVuSans-70" transform="translate(1079.101562 0)"/>
     <use xlink:href="#DejaVuSans-70" transform="translate(1142.578125 0)"/>
     <use xlink:href="#DejaVuSans-6f" transform="translate(1206.054688 0)"/>
     <use xlink:href="#DejaVuSans-5f" transform="translate(1267.236328 0)"/>
     <use xlink:href="#DejaVuSans-61" transform="translate(1317.236328 0)"/>
     <use xlink:href="#DejaVuSans-74" transform="translate(1378.515625 0)"/>
     <use xlink:href="#DejaVuSans-61" transform="translate(1417.724609 0)"/>
     <use xlink:href="#DejaVuSans-72" transform="translate(1479.003906 0)"/>
     <use xlink:href="#DejaVuSans-69" transform="translate(1520.117188 0)"/>
     <use xlink:href="#DejaVuSans-20" transform="translate(1547.900391 0)"/>
     <use xlink:href="#DejaVuSans-28" transform="translate(1579.6875 0)"/>
     <use xlink:href="#DejaVuSans-61" transform="translate(1618.701172 0)"/>
     <use xlink:href="#DejaVuSans-67" transform="translate(1679.980469 0)"/>
     <use xlink:href="#DejaVuSans-67" transform="translate(1743.457031 0)"/>
     <use xlink:href="#DejaVuSans-72" transform="translate(1806.933594 0)"/>
     <use xlink:href="#DejaVuSans-65" transform="translate(1845.796875 0)"/>
     <use xlink:href="#DejaVuSans-67" transform="translate(1907.320312 0)"/>
     <use xlink:href="#DejaVuSans-61" transform="translate(1970.796875 0)"/>
     <use xlink:href="#DejaVuSans-74" transform="translate(2032.076172 0)"/>
     <use xlink:href="#DejaVuSans-65" transform="translate(2071.285156 0)"/>
     <use xlink:href="#DejaVuSans-64" transform="translate(2132.808594 0)"/>
     <use xlink:href="#DejaVuSans-20" transform="translate(2196.285156 0)"/>
     <use xlink:href="#DejaVuSans-76" transform="translate(2228.072266 0)"/>
     <use xlink:href="#DejaVuSans-69" transform="translate(2287.251953 0)"/>
     <use xlink:href="#DejaVuSans-61" transform="translate(2315.035156 0)"/>
     <use xlink:href="#DejaVuSans-20" transform="translate(2376.314453 0)"/>
     <use xlink:href="#DejaVuSans-69" transform="translate(2408.101562 0)"/>
     <use xlink:href="#DejaVuSans-6e" transform="translate(2435.884766 0)"/>
     <use xlink:href="#DejaVuSans-74" transform="translate(2499.263672 0)"/>
     <use xlink:href="#DejaVuSans-65" transform="translate(2538.472656 0)"/>
     <use xlink:href="#DejaVuSans-72" transform="translate(2599.996094 0)"/>
     <use xlink:href="#DejaVuSans-70" transform="translate(2641.109375 0)"/>
     <use xlink:href="#DejaVuSans-6f" transform="translate(2704.585938 0)"/>
     <use xlink:href="#DejaVuSans-6c" transform="translate(2765.767578 0)"/>
     <use xlink:href="#DejaVuSans-61" transform="translate(2793.550781 0)"/>
     <use xlink:href="#DejaVuSans-74" transform="translate(2854.830078 0)"/>
     <use xlink:href="#DejaVuSans-69" transform="translate(2894.039062 0)"/>
     <use xlink:href="#DejaVuSans-6f" transform="translate(2921.822266 0)"/>
     <use xlink:href="#DejaVuSans-6e" transform="translate(2983.003906 0)"/>
     <use xlink:href="#DejaVuSans-20" transform="translate(3046.382812 0)"/>
     <use xlink:href="#DejaVuSans-6f" transform="translate(3078.169922 0)"/>
     <use xlink:href="#DejaVuSans-76" transform="translate(3139.351562 0)"/>
     <use xlink:href="#DejaVuSans-65" transform="translate(3198.53125 0)"/>
     <use xlink:href="#DejaVuSans-72" transform="translate(3260.054688 0)"/>
     <use xlink:href="#DejaVuSans-20" transform="translate(3301.167969 0)"/>
     <use xlink:href="#DejaVuSans-72" transform="translate(3332.955078 0)"/>
     <use xlink:href="#DejaVuSans-75" transform="translate(3374.068359 0)"/>
     <use xlink:href="#DejaVuSans-6e" transform="translate(3437.447266 0)"/>
     <use xlink:href="#DejaVuSans-73" transform="translate(3500.826172 0)"/>
     <use xlink:href="#DejaVuSans-29" transform="translate(3552.925781 0)"/>
    </g>
   </g>
   <g id="legend_1">
    <g id="patch_7">
     <path d="M 626.78125 62.79625 
L 702.2 62.79625 
Q 704.2 62.79625 704.2 60.79625 
L 704.2 32.44 
Q 704.2 30.44 702.2 30.44 
L 626.78125 30.44 
Q 624.78125 30.44 624.78125 32.44 
L 624.78125 60.79625 
Q 624.78125 62.79625 626.78125 62.79625 
z
" style="fill: #ffffff; opacity: 0.8; stroke: #cccccc; stroke-linejoin: miter"/>
    </g>
    <g id="line2d_15">
     <path d="M 628.78125 38.538437 
L 638.78125 38.538437 
L 648.78125 38.538437 
" style="fill: none; stroke: #00008b; stroke-width: 1.5; stroke-linecap: square"/>
    </g>
    <g id="text_17">
     <!-- Mean -->
     <g transform="translate(656.78125 42.038437) scale(0.1 -0.1)">
      <defs>
       <path id="DejaVuSans-4d" d="M 628 4666 
L 1569 4666 
L 2759 1491 
L 3956 4666 
L 4897 4666 
L 4897 0 
L 4281 0 
L 4281 4097 
L 3078 897 
L 2444 897 
L 1241 4097 
L 1241 0 
L 628 0 
L 628 4666 
z
" transform="scale(0.015625)"/>
      </defs>
      <use xlink:href="#DejaVuSans-4d"/>
      <use xlink:href="#DejaVuSans-65" transform="translate(86.279297 0)"/>
      <use xlink:href="#DejaVuSans-61" transform="translate(147.802734 0)"/>
      <use xlink:href="#DejaVuSans-6e" transform="translate(209.082031 0)"/>
     </g>
    </g>
    <g id="patch_8">
     <path d="M 628.78125 56.716563 
L 648.78125 56.716563 
L 648.78125 49.716563 
L 628.78125 49.716563 
z
" style="fill: #00008b; fill-opacity: 0.3; stroke: #00008b; stroke-opacity: 0.3; stroke-linejoin: miter"/>
    </g>
    <g id="text_18">
     <!-- MinMax -->
     <g transform="translate(656.78125 56.716563) scale(0.1 -0.1)">
      <defs>
       <path id="DejaVuSans-2013" d="M 313 1978 
L 2888 1978 
L 2888 1528 
L 313 1528 
L 313 1978 
z
" transform="scale(0.015625)"/>
       <path id="DejaVuSans-78" d="M 3513 3500 
L 2247 1797 
L 3578 0 
L 2900 0 
L 1881 1375 
L 863 0 
L 184 0 
L 1544 1831 
L 300 3500 
L 978 3500 
L 1906 2253 
L 2834 3500 
L 3513 3500 
z
" transform="scale(0.015625)"/>
      </defs>
      <use xlink:href="#DejaVuSans-4d"/>
      <use xlink:href="#DejaVuSans-69" transform="translate(86.279297 0)"/>
      <use xlink:href="#DejaVuSans-6e" transform="translate(114.0625 0)"/>
      <use xlink:href="#DejaVuSans-2013" transform="translate(177.441406 0)"/>
      <use xlink:href="#DejaVuSans-4d" transform="translate(227.441406 0)"/>
      <use xlink:href="#DejaVuSans-61" transform="translate(313.720703 0)"/>
      <use xlink:href="#DejaVuSans-78" transform="translate(375 0)"/>
     </g>
    </g>
   </g>
  </g>
 </g>
 <defs>
  <clipPath id="p91fffab800">
   <rect x="69.06125" y="25.44" width="640.13875" height="364.6"/>
  </clipPath>
 </defs>
</svg>
