<?xml version="1.0" encoding="utf-8" standalone="no"?>
<!DOCTYPE svg PUBLIC "-//W3C//DTD SVG 1.1//EN"
  "http://www.w3.org/Graphics/SVG/1.1/DTD/svg11.dtd">
<svg xmlns:xlink="http://www.w3.org/1999/xlink" width="720pt" height="432pt" viewBox="0 0 720 432" xmlns="http://www.w3.org/2000/svg" version="1.1">
 <metadata>
  <rdf:RDF xmlns:dc="http://purl.org/dc/elements/1.1/" xmlns:cc="http://creativecommons.org/ns#" xmlns:rdf="http://www.w3.org/1999/02/22-rdf-syntax-ns#">
   <cc:Work>
    <dc:type rdf:resource="http://purl.org/dc/dcmitype/StillImage"/>
    <dc:date>2025-02-05T20:32:15.989577</dc:date>
    <dc:format>image/svg+xml</dc:format>
    <dc:creator>
     <cc:Agent>
      <dc:title>Matplotlib v3.10.0, https://matplotlib.org/</dc:title>
     </cc:Agent>
    </dc:creator>
   </cc:Work>
  </rdf:RDF>
 </metadata>
 <defs>
  <style type="text/css">*{stroke-linejoin: round; stroke-linecap: butt}</style>
 </defs>
 <g id="figure_1">
  <g id="patch_1">
   <path d="M 0 432 
L 720 432 
L 720 0 
L 0 0 
z
" style="fill: #ffffff"/>
  </g>
  <g id="axes_1">
   <g id="patch_2">
    <path d="M 69.06125 390.04 
L 709.2 390.04 
L 709.2 25.44 
L 69.06125 25.44 
z
" style="fill: #ffffff"/>
   </g>
   <g id="FillBetweenPolyCollection_1">
    <defs>
     <path id="m487d851b8b" d="M 98.158466 -253.037735 
L 98.158466 -113.941554 
L 98.740993 -111.524696 
L 99.32352 -109.107837 
L 99.906046 -106.690978 
L 100.488573 -104.274119 
L 101.0711 -101.857261 
L 101.653627 -99.440402 
L 102.236154 -97.023543 
L 102.818681 -94.606684 
L 103.401208 -92.189826 
L 103.983734 -89.772967 
L 104.566261 -93.103418 
L 105.148788 -100.366239 
L 105.731315 -107.62906 
L 106.313842 -114.891881 
L 106.896369 -122.154703 
L 107.478895 -119.190067 
L 108.061422 -114.174096 
L 108.643949 -109.158126 
L 109.226476 -104.142155 
L 109.809003 -99.126184 
L 110.39153 -96.759891 
L 110.974056 -105.875531 
L 111.556583 -114.991172 
L 112.13911 -124.106813 
L 112.721637 -133.222453 
L 113.304164 -142.338094 
L 113.886691 -147.653716 
L 114.469218 -144.332142 
L 115.051744 -141.010567 
L 115.634271 -137.688993 
L 116.216798 -134.367418 
L 116.799325 -135.732875 
L 117.381852 -138.410702 
L 117.964379 -141.088528 
L 118.546905 -143.766355 
L 119.129432 -142.949914 
L 119.711959 -138.067317 
L 120.294486 -133.18472 
L 120.877013 -128.302122 
L 121.45954 -123.419525 
L 122.042067 -118.536928 
L 122.624593 -118.783557 
L 123.20712 -127.578897 
L 123.789647 -136.374237 
L 124.372174 -143.653733 
L 124.954701 -142.606046 
L 125.537228 -132.472159 
L 126.119754 -122.338273 
L 126.702281 -112.204386 
L 127.284808 -102.070499 
L 127.867335 -91.936613 
L 128.449862 -81.802726 
L 129.032389 -88.330463 
L 129.614916 -95.395673 
L 130.197442 -102.460882 
L 130.779969 -109.526092 
L 131.362496 -116.591301 
L 131.945023 -123.65651 
L 132.52755 -123.746315 
L 133.110077 -123.669245 
L 133.692603 -123.592174 
L 134.27513 -123.515104 
L 134.857657 -125.526511 
L 135.440184 -127.253133 
L 136.022711 -127.692054 
L 136.605238 -128.130974 
L 137.187765 -128.569895 
L 137.770291 -129.008815 
L 138.352818 -129.447735 
L 138.935345 -129.886656 
L 139.517872 -130.325576 
L 140.100399 -129.724502 
L 140.682926 -130.217411 
L 141.265452 -134.302331 
L 141.847979 -137.041787 
L 142.430506 -139.781242 
L 143.013033 -142.520697 
L 143.59556 -143.296877 
L 144.178087 -136.129217 
L 144.760614 -128.590009 
L 145.34314 -121.0508 
L 145.925667 -113.511592 
L 146.508194 -105.972383 
L 147.090721 -105.537027 
L 147.673248 -107.469622 
L 148.255775 -109.402216 
L 148.838301 -111.334811 
L 149.420828 -111.813666 
L 150.003355 -107.391809 
L 150.585882 -102.969952 
L 151.168409 -98.548095 
L 151.750936 -94.126238 
L 152.333462 -89.704381 
L 152.915989 -90.092313 
L 153.498516 -99.662569 
L 154.081043 -109.232825 
L 154.66357 -118.803081 
L 155.246097 -124.223298 
L 155.828624 -128.267165 
L 156.41115 -132.311031 
L 156.993677 -130.126115 
L 157.576204 -122.756418 
L 158.158731 -115.386722 
L 158.741258 -108.017025 
L 159.323785 -111.784446 
L 159.906311 -116.294342 
L 160.488838 -120.804238 
L 161.071365 -125.314134 
L 161.653892 -129.824029 
L 162.236419 -134.333925 
L 162.818946 -138.843821 
L 163.401473 -143.353717 
L 163.983999 -138.674439 
L 164.566526 -124.370782 
L 165.149053 -121.016608 
L 165.73158 -127.323743 
L 166.314107 -133.347936 
L 166.896634 -137.131477 
L 167.47916 -140.915018 
L 168.061687 -144.69856 
L 168.644214 -148.482101 
L 169.226741 -146.342924 
L 169.809268 -143.169054 
L 170.391795 -139.995184 
L 170.974322 -137.905383 
L 171.556848 -143.404062 
L 172.139375 -148.902741 
L 172.721902 -151.173717 
L 173.304429 -146.025707 
L 173.886956 -140.877697 
L 174.469483 -135.729687 
L 175.052009 -130.581677 
L 175.634536 -125.433667 
L 176.217063 -120.285657 
L 176.79959 -115.137647 
L 177.382117 -116.306022 
L 177.964644 -119.946027 
L 178.547171 -123.586032 
L 179.129697 -127.226037 
L 179.712224 -130.866042 
L 180.294751 -134.506047 
L 180.877278 -138.146051 
L 181.459805 -140.745952 
L 182.042332 -135.831156 
L 182.624858 -130.91636 
L 183.207385 -129.84086 
L 183.789912 -137.211812 
L 184.372439 -142.64916 
L 184.954966 -143.1122 
L 185.537493 -143.575241 
L 186.12002 -141.774012 
L 186.702546 -136.545936 
L 187.285073 -131.31786 
L 187.8676 -123.592228 
L 188.450127 -111.386455 
L 189.032654 -99.180682 
L 189.615181 -108.266446 
L 190.197707 -119.554782 
L 190.780234 -122.563643 
L 191.362761 -125.116811 
L 191.945288 -125.656806 
L 192.527815 -119.998109 
L 193.110342 -114.339411 
L 193.692868 -108.680713 
L 194.275395 -103.022016 
L 194.857922 -97.363318 
L 195.440449 -97.607936 
L 196.022976 -103.755871 
L 196.605503 -109.903805 
L 197.18803 -116.05174 
L 197.770556 -122.199674 
L 198.353083 -128.347609 
L 198.93561 -134.495543 
L 199.518137 -139.278887 
L 200.100664 -136.091984 
L 200.683191 -131.037769 
L 201.265717 -122.961168 
L 201.848244 -124.600039 
L 202.430771 -122.205175 
L 203.013298 -119.262526 
L 203.595825 -116.319876 
L 204.178352 -113.377227 
L 204.760879 -110.434578 
L 205.343405 -107.491928 
L 205.925932 -104.549279 
L 206.508459 -101.60663 
L 207.090986 -95.620637 
L 207.673513 -95.853482 
L 208.25604 -103.268497 
L 208.838566 -110.683511 
L 209.421093 -118.098526 
L 210.00362 -125.513541 
L 210.586147 -130.807017 
L 211.168674 -131.605078 
L 211.751201 -132.40314 
L 212.333728 -133.201202 
L 212.916254 -133.999264 
L 213.498781 -135.636172 
L 214.081308 -137.031853 
L 214.663835 -136.96355 
L 215.246362 -136.895247 
L 215.828889 -129.967568 
L 216.411415 -121.103196 
L 216.993942 -112.238825 
L 217.576469 -103.374454 
L 218.158996 -94.510083 
L 218.741523 -85.645711 
L 219.32405 -76.78134 
L 219.906577 -76.361383 
L 220.489103 -77.147771 
L 221.07163 -77.934159 
L 221.654157 -78.720547 
L 222.236684 -79.506935 
L 222.819211 -80.293323 
L 223.401738 -81.079711 
L 223.984264 -81.866099 
L 224.566791 -82.652487 
L 225.149318 -81.448425 
L 225.731845 -79.515183 
L 226.314372 -91.235615 
L 226.896899 -100.919531 
L 227.479426 -107.831081 
L 228.061952 -114.74263 
L 228.644479 -121.65418 
L 229.227006 -113.892451 
L 229.809533 -99.694605 
L 230.39206 -85.496759 
L 230.974587 -71.298914 
L 231.557113 -58.532727 
L 232.13964 -67.241428 
L 232.722167 -75.950129 
L 233.304694 -84.658831 
L 233.887221 -93.367532 
L 234.469748 -102.076233 
L 235.052274 -110.784934 
L 235.634801 -118.922376 
L 236.217328 -119.22199 
L 236.799855 -119.521604 
L 237.382382 -119.821218 
L 237.964909 -122.067377 
L 238.547436 -125.333154 
L 239.129962 -128.598932 
L 239.712489 -131.86471 
L 240.295016 -127.768142 
L 240.877543 -120.4678 
L 241.46007 -113.167459 
L 242.042597 -105.867117 
L 242.625123 -98.566775 
L 243.20765 -91.266434 
L 243.790177 -87.720169 
L 244.372704 -95.436137 
L 244.955231 -103.152104 
L 245.537758 -110.868071 
L 246.120285 -118.584038 
L 246.702811 -126.300005 
L 247.285338 -127.590977 
L 247.867865 -119.733104 
L 248.450392 -111.792587 
L 249.032919 -103.85207 
L 249.615446 -93.471045 
L 250.197972 -94.017262 
L 250.780499 -96.97902 
L 251.363026 -99.940778 
L 251.945553 -102.902536 
L 252.52808 -105.864294 
L 253.110607 -108.826052 
L 253.693134 -108.644872 
L 254.27566 -105.515509 
L 254.858187 -102.386145 
L 255.440714 -99.256781 
L 256.023241 -101.431694 
L 256.605768 -110.42639 
L 257.188295 -119.421086 
L 257.770821 -128.415782 
L 258.353348 -130.881862 
L 258.935875 -129.890833 
L 259.518402 -128.899804 
L 260.100929 -127.908774 
L 260.683456 -121.149241 
L 261.265983 -114.043115 
L 261.848509 -107.330325 
L 262.431036 -112.810953 
L 263.013563 -118.291582 
L 263.59609 -123.77221 
L 264.178617 -129.252838 
L 264.761144 -134.733466 
L 265.34367 -140.214095 
L 265.926197 -140.998176 
L 266.508724 -128.046367 
L 267.091251 -115.094557 
L 267.673778 -102.142747 
L 268.256305 -101.805343 
L 268.838832 -109.036582 
L 269.421358 -116.267822 
L 270.003885 -123.499061 
L 270.586412 -130.730301 
L 271.168939 -135.522828 
L 271.751466 -135.281118 
L 272.333993 -130.088767 
L 272.916519 -124.896417 
L 273.499046 -119.704066 
L 274.081573 -117.774422 
L 274.6641 -125.5344 
L 275.246627 -125.08391 
L 275.829154 -124.63342 
L 276.41168 -124.18293 
L 276.994207 -123.732441 
L 277.576734 -123.281951 
L 278.159261 -122.831461 
L 278.741788 -122.380971 
L 279.324315 -120.309791 
L 279.906842 -115.227753 
L 280.489368 -119.734401 
L 281.071895 -120.843721 
L 281.654422 -120.539278 
L 282.236949 -120.234835 
L 282.819476 -119.930392 
L 283.402003 -119.625949 
L 283.984529 -119.321506 
L 284.567056 -119.017063 
L 285.149583 -117.718794 
L 285.73211 -107.805025 
L 286.314637 -102.734828 
L 286.897164 -104.743697 
L 287.479691 -106.752566 
L 288.062217 -107.498015 
L 288.644744 -101.419878 
L 289.227271 -95.341741 
L 289.809798 -89.263604 
L 290.392325 -83.185467 
L 290.974852 -77.107329 
L 291.557378 -71.029192 
L 292.139905 -64.951055 
L 292.722432 -71.521204 
L 293.304959 -78.091352 
L 293.887486 -84.661501 
L 294.470013 -91.231649 
L 295.05254 -97.801798 
L 295.635066 -104.371946 
L 296.217593 -110.942095 
L 296.80012 -117.512243 
L 297.382647 -124.082392 
L 297.965174 -130.65254 
L 298.547701 -133.299824 
L 299.130227 -133.263043 
L 299.712754 -133.226261 
L 300.295281 -133.189479 
L 300.877808 -133.152698 
L 301.460335 -133.115916 
L 302.042862 -133.079134 
L 302.625389 -133.042353 
L 303.207915 -133.005571 
L 303.790442 -130.322445 
L 304.372969 -124.950159 
L 304.955496 -130.70579 
L 305.538023 -133.29905 
L 306.12055 -133.463688 
L 306.703076 -133.628326 
L 307.285603 -133.792964 
L 307.86813 -133.957603 
L 308.450657 -129.250375 
L 309.033184 -123.42545 
L 309.615711 -117.600526 
L 310.198237 -111.775601 
L 310.780764 -113.265457 
L 311.363291 -116.803451 
L 311.945818 -120.341446 
L 312.528345 -123.87944 
L 313.110872 -127.417434 
L 313.693399 -130.955428 
L 314.275925 -128.992888 
L 314.858452 -121.653086 
L 315.440979 -114.313285 
L 316.023506 -106.973483 
L 316.606033 -103.472464 
L 317.18856 -106.369417 
L 317.771086 -109.266369 
L 318.353613 -112.163321 
L 318.93614 -115.060273 
L 319.518667 -117.957225 
L 320.101194 -120.854177 
L 320.683721 -123.75113 
L 321.266248 -116.046358 
L 321.848774 -107.309886 
L 322.431301 -98.573414 
L 323.013828 -104.618623 
L 323.596355 -111.14066 
L 324.178882 -117.662697 
L 324.761409 -124.184735 
L 325.343935 -124.191525 
L 325.926462 -117.641993 
L 326.508989 -111.092462 
L 327.091516 -104.54293 
L 327.674043 -97.993398 
L 328.25657 -91.443866 
L 328.839097 -95.415276 
L 329.421623 -107.56964 
L 330.00415 -119.724005 
L 330.586677 -131.878369 
L 331.169204 -133.578416 
L 331.751731 -128.177762 
L 332.334258 -122.777109 
L 332.916784 -117.376456 
L 333.499311 -111.975803 
L 334.081838 -106.575149 
L 334.664365 -103.602291 
L 335.246892 -113.739526 
L 335.829419 -123.876761 
L 336.411946 -131.116372 
L 336.994472 -136.411099 
L 337.576999 -138.566939 
L 338.159526 -139.571163 
L 338.742053 -132.613655 
L 339.32458 -125.656146 
L 339.907107 -118.698638 
L 340.489633 -111.74113 
L 341.07216 -111.7647 
L 341.654687 -114.115297 
L 342.237214 -116.465893 
L 342.819741 -118.81649 
L 343.402268 -121.167087 
L 343.984795 -123.517683 
L 344.567321 -125.86828 
L 345.149848 -128.218877 
L 345.732375 -122.203907 
L 346.314902 -115.446611 
L 346.897429 -112.958537 
L 347.479956 -118.620794 
L 348.062482 -124.28305 
L 348.645009 -129.945307 
L 349.227536 -135.607564 
L 349.810063 -141.269821 
L 350.39259 -146.932077 
L 350.975117 -146.463294 
L 351.557643 -141.517882 
L 352.14017 -136.57247 
L 352.722697 -131.627058 
L 353.305224 -134.556195 
L 353.887751 -138.010303 
L 354.470278 -140.126625 
L 355.052805 -133.68592 
L 355.635331 -127.245215 
L 356.217858 -120.804509 
L 356.800385 -114.363804 
L 357.382912 -107.923099 
L 357.965439 -101.482394 
L 358.547966 -95.041688 
L 359.130492 -96.298105 
L 359.713019 -104.346099 
L 360.295546 -112.394094 
L 360.878073 -120.442088 
L 361.4606 -128.490082 
L 362.043127 -136.538077 
L 362.625654 -139.354235 
L 363.20818 -135.014252 
L 363.790707 -130.674268 
L 364.373234 -126.334285 
L 364.955761 -123.398614 
L 365.538288 -130.293133 
L 366.120815 -137.187652 
L 366.703341 -140.429187 
L 367.285868 -134.461122 
L 367.868395 -128.493057 
L 368.450922 -122.524992 
L 369.033449 -116.556927 
L 369.615976 -110.588862 
L 370.198503 -104.620797 
L 370.781029 -98.652732 
L 371.363556 -100.109876 
L 371.946083 -104.472535 
L 372.52861 -108.835195 
L 373.111137 -113.197855 
L 373.693664 -117.560515 
L 374.27619 -121.923174 
L 374.858717 -126.285834 
L 375.441244 -130.132366 
L 376.023771 -121.821367 
L 376.606298 -113.510368 
L 377.188825 -110.090843 
L 377.771352 -117.432562 
L 378.353878 -124.774281 
L 378.936405 -129.357953 
L 379.518932 -128.42838 
L 380.101459 -127.498808 
L 380.683986 -126.569236 
L 381.266513 -123.798939 
L 381.849039 -117.523688 
L 382.431566 -111.248436 
L 383.014093 -104.973185 
L 383.59662 -107.744436 
L 384.179147 -111.451531 
L 384.761674 -115.158627 
L 385.344201 -118.865723 
L 385.926727 -122.572818 
L 386.509254 -126.279914 
L 387.091781 -120.244312 
L 387.674308 -111.175876 
L 388.256835 -102.107441 
L 388.839362 -93.039006 
L 389.421888 -90.628908 
L 390.004415 -94.877149 
L 390.586942 -99.125389 
L 391.169469 -103.37363 
L 391.751996 -107.62187 
L 392.334523 -111.870111 
L 392.917049 -116.118351 
L 393.499576 -120.366592 
L 394.082103 -116.233111 
L 394.66463 -109.684231 
L 395.247157 -104.203783 
L 395.829684 -109.0515 
L 396.412211 -113.899218 
L 396.994737 -118.746935 
L 397.577264 -115.746436 
L 398.159791 -112.065844 
L 398.742318 -108.385252 
L 399.324845 -104.70466 
L 399.907372 -101.024068 
L 400.489898 -97.343476 
L 401.072425 -93.662884 
L 401.654952 -98.231625 
L 402.237479 -105.398478 
L 402.820006 -109.286252 
L 403.402533 -113.174026 
L 403.98506 -117.0618 
L 404.567586 -120.949575 
L 405.150113 -122.826935 
L 405.73264 -121.68661 
L 406.315167 -120.546285 
L 406.897694 -119.405961 
L 407.480221 -119.922995 
L 408.062747 -124.675504 
L 408.645274 -129.428012 
L 409.227801 -134.180521 
L 409.810328 -137.256775 
L 410.392855 -137.170266 
L 410.975382 -137.083757 
L 411.557909 -134.73103 
L 412.140435 -130.193956 
L 412.722962 -120.135345 
L 413.305489 -110.076734 
L 413.888016 -113.786239 
L 414.470543 -119.462617 
L 415.05307 -125.138995 
L 415.635596 -130.815373 
L 416.218123 -136.491752 
L 416.80065 -142.16813 
L 417.383177 -138.879991 
L 417.965704 -129.9446 
L 418.548231 -121.00921 
L 419.130758 -112.073819 
L 419.713284 -110.09606 
L 420.295811 -116.003618 
L 420.878338 -121.911176 
L 421.460865 -127.818734 
L 422.043392 -133.726292 
L 422.625919 -134.628531 
L 423.208445 -133.144293 
L 423.790972 -131.660055 
L 424.373499 -130.175816 
L 424.956026 -128.691578 
L 425.538553 -127.655785 
L 426.12108 -133.346663 
L 426.703607 -138.043502 
L 427.286133 -139.271047 
L 427.86866 -140.498591 
L 428.451187 -141.726135 
L 429.033714 -140.091009 
L 429.616241 -132.33178 
L 430.198768 -124.57255 
L 430.781294 -116.813321 
L 431.363821 -109.054091 
L 431.946348 -110.255854 
L 432.528875 -116.15147 
L 433.111402 -122.047087 
L 433.693929 -127.942703 
L 434.276455 -133.838319 
L 434.858982 -139.733935 
L 435.441509 -145.629551 
L 436.024036 -145.96291 
L 436.606563 -145.572814 
L 437.18909 -142.871366 
L 437.771617 -140.248048 
L 438.354143 -143.315768 
L 438.93667 -146.383487 
L 439.519197 -149.3717 
L 440.101724 -148.483329 
L 440.684251 -147.594957 
L 441.266778 -146.706586 
L 441.849304 -145.818214 
L 442.431831 -144.929842 
L 443.014358 -135.925402 
L 443.596885 -126.340096 
L 444.179412 -125.957149 
L 444.761939 -127.278343 
L 445.344466 -128.599537 
L 445.926992 -129.92073 
L 446.509519 -130.447605 
L 447.092046 -125.602496 
L 447.674573 -120.757387 
L 448.2571 -115.912279 
L 448.839627 -111.06717 
L 449.422153 -106.222062 
L 450.00468 -107.827928 
L 450.587207 -117.727904 
L 451.169734 -127.111203 
L 451.752261 -131.502702 
L 452.334788 -135.894201 
L 452.917315 -140.2857 
L 453.499841 -136.904706 
L 454.082368 -132.682892 
L 454.664895 -128.461078 
L 455.247422 -124.239264 
L 455.829949 -120.415815 
L 456.412476 -126.410325 
L 456.995002 -124.630214 
L 457.577529 -122.850103 
L 458.160056 -121.069992 
L 458.742583 -119.289881 
L 459.32511 -116.150859 
L 459.907637 -110.493698 
L 460.490164 -104.836538 
L 461.07269 -99.179378 
L 461.655217 -93.522218 
L 462.237744 -93.644271 
L 462.820271 -97.233852 
L 463.402798 -100.823433 
L 463.985325 -104.413014 
L 464.567851 -108.002596 
L 465.150378 -111.592177 
L 465.732905 -109.237486 
L 466.315432 -106.77645 
L 466.897959 -104.315414 
L 467.480486 -101.854379 
L 468.063013 -95.085149 
L 468.645539 -100.541003 
L 469.228066 -105.996857 
L 469.810593 -111.452711 
L 470.39312 -116.908565 
L 470.975647 -122.364419 
L 471.558174 -127.820273 
L 472.1407 -117.942652 
L 472.723227 -105.166518 
L 473.305754 -92.390383 
L 473.888281 -79.614248 
L 474.470808 -81.747486 
L 475.053335 -87.321349 
L 475.635861 -92.895212 
L 476.218388 -98.469074 
L 476.800915 -104.042937 
L 477.383442 -109.6168 
L 477.965969 -112.507267 
L 478.548496 -103.754425 
L 479.131023 -95.001582 
L 479.713549 -86.24874 
L 480.296076 -85.05969 
L 480.878603 -94.925415 
L 481.46113 -104.79114 
L 482.043657 -114.656864 
L 482.626184 -124.522589 
L 483.20871 -121.019006 
L 483.791237 -113.582995 
L 484.373764 -105.646583 
L 484.956291 -97.19277 
L 485.538818 -88.738957 
L 486.121345 -80.285144 
L 486.703872 -92.710984 
L 487.286398 -103.428817 
L 487.868925 -113.223748 
L 488.451452 -123.01868 
L 489.033979 -132.813612 
L 489.616506 -137.83657 
L 490.199033 -135.176876 
L 490.781559 -132.517182 
L 491.364086 -129.406324 
L 491.946613 -125.646804 
L 492.52914 -127.439006 
L 493.111667 -130.151452 
L 493.694194 -132.68269 
L 494.276721 -135.213927 
L 494.859247 -137.745165 
L 495.441774 -140.276403 
L 496.024301 -138.351361 
L 496.606828 -131.236724 
L 497.189355 -124.122087 
L 497.771882 -117.00745 
L 498.354408 -113.054087 
L 498.936935 -122.799577 
L 499.519462 -132.545068 
L 500.101989 -137.963403 
L 500.684516 -138.845623 
L 501.267043 -139.727843 
L 501.84957 -139.193587 
L 502.432096 -128.494154 
L 503.014623 -117.79472 
L 503.59715 -107.095286 
L 504.179677 -96.395853 
L 504.762204 -96.880503 
L 505.344731 -100.496696 
L 505.927257 -104.11289 
L 506.509784 -107.729083 
L 507.092311 -111.345277 
L 507.674838 -114.96147 
L 508.257365 -112.74295 
L 508.839892 -103.911341 
L 509.422418 -95.079731 
L 510.004945 -86.248122 
L 510.587472 -84.651 
L 511.169999 -95.11136 
L 511.752526 -105.571719 
L 512.335053 -116.032078 
L 512.91758 -116.069036 
L 513.500106 -112.499361 
L 514.082633 -108.929686 
L 514.66516 -105.36001 
L 515.247687 -101.790335 
L 515.830214 -98.22066 
L 516.412741 -94.650985 
L 516.995267 -100.360587 
L 517.577794 -106.36952 
L 518.160321 -112.378454 
L 518.742848 -118.387387 
L 519.325375 -124.396321 
L 519.907902 -130.405255 
L 520.490429 -134.953914 
L 521.072955 -136.854075 
L 521.655482 -136.168103 
L 522.238009 -130.10694 
L 522.820536 -129.726111 
L 523.403063 -129.929965 
L 523.98559 -130.133818 
L 524.568116 -130.337672 
L 525.150643 -130.541526 
L 525.73317 -130.74538 
L 526.315697 -130.949234 
L 526.898224 -131.153088 
L 527.480751 -131.356942 
L 528.063278 -131.560796 
L 528.645804 -125.27915 
L 529.228331 -130.281124 
L 529.810858 -135.283098 
L 530.393385 -140.285073 
L 530.975912 -145.287047 
L 531.558439 -145.431378 
L 532.140965 -144.256015 
L 532.723492 -142.886855 
L 533.306019 -141.517695 
L 533.888546 -140.148535 
L 534.471073 -138.779375 
L 535.0536 -139.90864 
L 535.636127 -139.670178 
L 536.218653 -139.431715 
L 536.80118 -139.193252 
L 537.383707 -138.95479 
L 537.966234 -138.716327 
L 538.548761 -138.477864 
L 539.131288 -136.465912 
L 539.713814 -133.650653 
L 540.296341 -130.835393 
L 540.878868 -132.153345 
L 541.461395 -138.053328 
L 542.043922 -138.386234 
L 542.626449 -137.357772 
L 543.208976 -135.942828 
L 543.791502 -134.527884 
L 544.374029 -133.11294 
L 544.956556 -129.430878 
L 545.539083 -123.922895 
L 546.12161 -118.414913 
L 546.704137 -112.90693 
L 547.286663 -116.849593 
L 547.86919 -121.422299 
L 548.451717 -125.995005 
L 549.034244 -130.56771 
L 549.616771 -134.911319 
L 550.199298 -130.333136 
L 550.781824 -125.754953 
L 551.364351 -121.17677 
L 551.946878 -116.598586 
L 552.529405 -112.020403 
L 553.111932 -112.533973 
L 553.694459 -117.540266 
L 554.276986 -122.546559 
L 554.859512 -127.552852 
L 555.442039 -132.559145 
L 556.024566 -137.565438 
L 556.607093 -137.65089 
L 557.18962 -131.184338 
L 557.772147 -124.717786 
L 558.354673 -118.251234 
L 558.9372 -113.182382 
L 559.519727 -117.897431 
L 560.102254 -122.61248 
L 560.684781 -127.327529 
L 561.267308 -132.042578 
L 561.849835 -136.293445 
L 562.432361 -133.022343 
L 563.014888 -129.751241 
L 563.597415 -126.480138 
L 564.179942 -123.209036 
L 564.762469 -119.937934 
L 565.344996 -123.973932 
L 565.927522 -130.092333 
L 566.510049 -136.210733 
L 567.092576 -142.329134 
L 567.675103 -143.924161 
L 568.25763 -140.165788 
L 568.840157 -136.407415 
L 569.422684 -132.649043 
L 570.00521 -128.89067 
L 570.587737 -125.132298 
L 571.170264 -125.592573 
L 571.752791 -134.194193 
L 572.335318 -136.019033 
L 572.917845 -137.843873 
L 573.500371 -139.668714 
L 574.082898 -141.493554 
L 574.665425 -143.318394 
L 575.247952 -145.143234 
L 575.830479 -146.968074 
L 576.413006 -139.187533 
L 576.995533 -130.592268 
L 577.578059 -138.644479 
L 578.160586 -148.418843 
L 578.743113 -144.133532 
L 579.32564 -139.787023 
L 579.908167 -135.440515 
L 580.490694 -131.094006 
L 581.07322 -125.369519 
L 581.655747 -119.338442 
L 582.238274 -113.307365 
L 582.820801 -107.276288 
L 583.403328 -106.286947 
L 583.985855 -110.339342 
L 584.568382 -113.445413 
L 585.150908 -114.209692 
L 585.733435 -114.97397 
L 586.315962 -115.738249 
L 586.898489 -116.502527 
L 587.481016 -117.266806 
L 588.063543 -118.031084 
L 588.646069 -118.795363 
L 589.228596 -120.1307 
L 589.811123 -126.986269 
L 590.39365 -132.775256 
L 590.976177 -132.794653 
L 591.558704 -132.814049 
L 592.14123 -132.833446 
L 592.723757 -132.852843 
L 593.306284 -132.872239 
L 593.888811 -132.891636 
L 594.471338 -132.911033 
L 595.053865 -132.93043 
L 595.636392 -134.961305 
L 596.218918 -137.906489 
L 596.801445 -140.851674 
L 597.383972 -143.796858 
L 597.966499 -146.742042 
L 598.549026 -149.687227 
L 599.131553 -151.807747 
L 599.714079 -151.083032 
L 600.296606 -150.081087 
L 600.879133 -149.079141 
L 601.46166 -148.248114 
L 602.044187 -149.084621 
L 602.626714 -149.921127 
L 603.209241 -150.757634 
L 603.791767 -151.537623 
L 604.374294 -149.890966 
L 604.956821 -147.479582 
L 605.539348 -145.068198 
L 606.121875 -142.656815 
L 606.704402 -140.245431 
L 607.286928 -137.834047 
L 607.869455 -138.214055 
L 608.451982 -138.992833 
L 609.034509 -139.771611 
L 609.617036 -140.55039 
L 610.199563 -139.3722 
L 610.78209 -135.81414 
L 611.364616 -132.25608 
L 611.947143 -128.69802 
L 612.52967 -125.13996 
L 613.112197 -121.5819 
L 613.694724 -121.85193 
L 614.277251 -126.460463 
L 614.859777 -131.068996 
L 615.442304 -135.677528 
L 616.024831 -140.286061 
L 616.607358 -144.894594 
L 617.189885 -147.132799 
L 617.772412 -147.364067 
L 618.354939 -147.366085 
L 618.937465 -140.482371 
L 619.519992 -134.046306 
L 620.102519 -134.324963 
L 620.685046 -134.603621 
L 621.267573 -134.882279 
L 621.8501 -135.160937 
L 622.432626 -135.439594 
L 623.015153 -135.718252 
L 623.59768 -135.99691 
L 624.180207 -136.275568 
L 624.762734 -134.410761 
L 625.345261 -128.603074 
L 625.927788 -131.641941 
L 626.510314 -135.035678 
L 627.092841 -133.892739 
L 627.675368 -132.749799 
L 628.257895 -131.606859 
L 628.840422 -130.46392 
L 629.422949 -129.32098 
L 630.005475 -128.178041 
L 630.588002 -127.035101 
L 631.170529 -125.892162 
L 631.753056 -125.914597 
L 632.335583 -129.433156 
L 632.91811 -132.951716 
L 633.500636 -136.470276 
L 634.083163 -139.988835 
L 634.66569 -143.507395 
L 635.248217 -147.025955 
L 635.830744 -150.544514 
L 636.413271 -151.306132 
L 636.995798 -151.094139 
L 637.578324 -150.346442 
L 638.160851 -151.039017 
L 638.743378 -150.132041 
L 639.325905 -149.225065 
L 639.908432 -148.31809 
L 640.490959 -147.411114 
L 641.073485 -146.504138 
L 641.656012 -145.597162 
L 642.238539 -142.515049 
L 642.821066 -139.329003 
L 643.403593 -136.142957 
L 643.98612 -135.390514 
L 644.568647 -137.766987 
L 645.151173 -140.143461 
L 645.7337 -142.519934 
L 646.316227 -144.896408 
L 646.898754 -145.928745 
L 647.481281 -144.010981 
L 648.063808 -142.093218 
L 648.646334 -140.175455 
L 649.228861 -138.257691 
L 649.811388 -136.437764 
L 650.393915 -137.650761 
L 650.976442 -138.863757 
L 651.558969 -140.076754 
L 652.141496 -141.28975 
L 652.724022 -142.502747 
L 653.306549 -143.715743 
L 653.889076 -144.92874 
L 654.471603 -145.546766 
L 655.05413 -144.647248 
L 655.636657 -143.747731 
L 656.219183 -143.072107 
L 656.80171 -143.034047 
L 657.384237 -142.995987 
L 657.966764 -142.957928 
L 658.549291 -142.919868 
L 659.131818 -142.881808 
L 659.714345 -142.843748 
L 660.296871 -142.805688 
L 660.879398 -142.767629 
L 661.461925 -142.729569 
L 662.044452 -142.923143 
L 662.626979 -143.943979 
L 663.209506 -144.964816 
L 663.792032 -145.985652 
L 664.374559 -147.006489 
L 664.957086 -147.755492 
L 665.539613 -148.381496 
L 666.12214 -149.007501 
L 666.704667 -149.633506 
L 667.287194 -149.529381 
L 667.86972 -147.002038 
L 668.452247 -148.265142 
L 669.034774 -150.402965 
L 669.617301 -150.579959 
L 670.199828 -149.201283 
L 670.782355 -147.822606 
L 671.364881 -146.443929 
L 671.947408 -145.065253 
L 672.529935 -143.686576 
L 673.112462 -142.307899 
L 673.694989 -140.929222 
L 674.277516 -141.026623 
L 674.860042 -143.281367 
L 675.442569 -145.536112 
L 676.025096 -147.790856 
L 676.607623 -149.892324 
L 677.19015 -149.440886 
L 677.772677 -148.989448 
L 678.355204 -148.53801 
L 678.93773 -148.086572 
L 679.520257 -147.635133 
L 680.102784 -147.183695 
L 680.102784 -163.574068 
L 680.102784 -163.574068 
L 679.520257 -161.319323 
L 678.93773 -160.325357 
L 678.355204 -164.818798 
L 677.772677 -170.024115 
L 677.19015 -175.229432 
L 676.607623 -180.434749 
L 676.025096 -185.640066 
L 675.442569 -190.845383 
L 674.860042 -196.0507 
L 674.277516 -201.256017 
L 673.694989 -200.946508 
L 673.112462 -196.863696 
L 672.529935 -192.780885 
L 671.947408 -188.698073 
L 671.364881 -184.615262 
L 670.782355 -180.53245 
L 670.199828 -176.449638 
L 669.617301 -172.366827 
L 669.034774 -171.508163 
L 668.452247 -173.053908 
L 667.86972 -173.964225 
L 667.287194 -172.121024 
L 666.704667 -170.277823 
L 666.12214 -168.92726 
L 665.539613 -172.352914 
L 664.957086 -176.245975 
L 664.374559 -180.139036 
L 663.792032 -184.032098 
L 663.209506 -187.925159 
L 662.626979 -191.81822 
L 662.044452 -195.711282 
L 661.461925 -192.572462 
L 660.879398 -187.464717 
L 660.296871 -182.356971 
L 659.714345 -177.249226 
L 659.131818 -172.14148 
L 658.549291 -171.845967 
L 657.966764 -174.675363 
L 657.384237 -177.504758 
L 656.80171 -180.334154 
L 656.219183 -183.163549 
L 655.636657 -183.649524 
L 655.05413 -180.229797 
L 654.471603 -176.81007 
L 653.889076 -174.194789 
L 653.306549 -181.996726 
L 652.724022 -189.798663 
L 652.141496 -197.600601 
L 651.558969 -205.402538 
L 650.976442 -213.204475 
L 650.393915 -221.006413 
L 649.811388 -228.80835 
L 649.228861 -230.615346 
L 648.646334 -232.228956 
L 648.063808 -233.842566 
L 647.481281 -235.456176 
L 646.898754 -237.069786 
L 646.316227 -238.683396 
L 645.7337 -240.297006 
L 645.151173 -241.910616 
L 644.568647 -243.524226 
L 643.98612 -245.137836 
L 643.403593 -241.8396 
L 642.821066 -234.721039 
L 642.238539 -227.602478 
L 641.656012 -220.483917 
L 641.073485 -213.365356 
L 640.490959 -206.246795 
L 639.908432 -199.128234 
L 639.325905 -192.009673 
L 638.743378 -190.48178 
L 638.160851 -193.896207 
L 637.578324 -196.380901 
L 636.995798 -192.573564 
L 636.413271 -188.938047 
L 635.830744 -185.30253 
L 635.248217 -186.202912 
L 634.66569 -188.95265 
L 634.083163 -192.285768 
L 633.500636 -195.618885 
L 632.91811 -198.952002 
L 632.335583 -202.285119 
L 631.753056 -205.618237 
L 631.170529 -200.696933 
L 630.588002 -193.024156 
L 630.005475 -185.351379 
L 629.422949 -178.847206 
L 628.840422 -176.059548 
L 628.257895 -175.447505 
L 627.675368 -174.835462 
L 627.092841 -174.512633 
L 626.510314 -174.368731 
L 625.927788 -174.224829 
L 625.345261 -173.497385 
L 624.762734 -173.921362 
L 624.180207 -176.167856 
L 623.59768 -178.414349 
L 623.015153 -180.660842 
L 622.432626 -182.907335 
L 621.8501 -187.007224 
L 621.267573 -191.195173 
L 620.685046 -195.383122 
L 620.102519 -199.571072 
L 619.519992 -203.759021 
L 618.937465 -200.378713 
L 618.354939 -196.594009 
L 617.772412 -199.083013 
L 617.189885 -201.572018 
L 616.607358 -204.061022 
L 616.024831 -206.550026 
L 615.442304 -210.629164 
L 614.859777 -218.246615 
L 614.277251 -225.864066 
L 613.694724 -233.481517 
L 613.112197 -233.467137 
L 612.52967 -226.718789 
L 611.947143 -219.97044 
L 611.364616 -213.222092 
L 610.78209 -206.473743 
L 610.199563 -199.725395 
L 609.617036 -192.977046 
L 609.034509 -186.228698 
L 608.451982 -188.749223 
L 607.869455 -191.697825 
L 607.286928 -193.745422 
L 606.704402 -189.485979 
L 606.121875 -185.226537 
L 605.539348 -185.423794 
L 604.956821 -192.508014 
L 604.374294 -199.592235 
L 603.791767 -206.676455 
L 603.209241 -213.760675 
L 602.626714 -220.844896 
L 602.044187 -227.929116 
L 601.46166 -235.013336 
L 600.879133 -231.122296 
L 600.296606 -222.936588 
L 599.714079 -214.75088 
L 599.131553 -207.518273 
L 598.549026 -209.777749 
L 597.966499 -212.037224 
L 597.383972 -217.826713 
L 596.801445 -227.08068 
L 596.218918 -236.334648 
L 595.636392 -245.588616 
L 595.053865 -248.781958 
L 594.471338 -238.641923 
L 593.888811 -229.50397 
L 593.306284 -226.558883 
L 592.723757 -223.613796 
L 592.14123 -220.668709 
L 591.558704 -217.723622 
L 590.976177 -214.778535 
L 590.39365 -213.532272 
L 589.811123 -218.936934 
L 589.228596 -224.341597 
L 588.646069 -217.593508 
L 588.063543 -212.575493 
L 587.481016 -216.19953 
L 586.898489 -219.823567 
L 586.315962 -223.447605 
L 585.733435 -227.071642 
L 585.150908 -230.69568 
L 584.568382 -234.319717 
L 583.985855 -237.943754 
L 583.403328 -241.567792 
L 582.820801 -238.968335 
L 582.238274 -230.145386 
L 581.655747 -221.322436 
L 581.07322 -216.349796 
L 580.490694 -217.445766 
L 579.908167 -218.541736 
L 579.32564 -219.637706 
L 578.743113 -222.51489 
L 578.160586 -230.670654 
L 577.578059 -238.826418 
L 576.995533 -245.535353 
L 576.413006 -238.258268 
L 575.830479 -230.981183 
L 575.247952 -223.704098 
L 574.665425 -216.427013 
L 574.082898 -209.149928 
L 573.500371 -204.43955 
L 572.917845 -209.590954 
L 572.335318 -214.742359 
L 571.752791 -219.893763 
L 571.170264 -225.045167 
L 570.587737 -221.553928 
L 570.00521 -214.134214 
L 569.422684 -207.501838 
L 568.840157 -203.137521 
L 568.25763 -198.773204 
L 567.675103 -194.408888 
L 567.092576 -200.759129 
L 566.510049 -209.642743 
L 565.927522 -218.526356 
L 565.344996 -227.409969 
L 564.762469 -232.159827 
L 564.179942 -226.345642 
L 563.597415 -220.531458 
L 563.014888 -214.717273 
L 562.432361 -216.643384 
L 561.849835 -222.963761 
L 561.267308 -229.284139 
L 560.684781 -235.604516 
L 560.102254 -241.924894 
L 559.519727 -248.245271 
L 558.9372 -254.565649 
L 558.354673 -247.316408 
L 557.772147 -238.128651 
L 557.18962 -234.205794 
L 556.607093 -230.844689 
L 556.024566 -227.483584 
L 555.442039 -224.122479 
L 554.859512 -220.761374 
L 554.276986 -217.400269 
L 553.694459 -214.039164 
L 553.111932 -215.779972 
L 552.529405 -215.917101 
L 551.946878 -211.219765 
L 551.364351 -210.77228 
L 550.781824 -211.533721 
L 550.199298 -212.295162 
L 549.616771 -213.671635 
L 549.034244 -220.030735 
L 548.451717 -226.434729 
L 547.86919 -232.838722 
L 547.286663 -239.242715 
L 546.704137 -244.862978 
L 546.12161 -238.727303 
L 545.539083 -232.591627 
L 544.956556 -226.455951 
L 544.374029 -220.320275 
L 543.791502 -214.1846 
L 543.208976 -208.048924 
L 542.626449 -212.529811 
L 542.043922 -218.741366 
L 541.461395 -224.95292 
L 540.878868 -231.164474 
L 540.296341 -232.117344 
L 539.713814 -230.315665 
L 539.131288 -228.513985 
L 538.548761 -226.712305 
L 537.966234 -224.910626 
L 537.383707 -223.108946 
L 536.80118 -221.307267 
L 536.218653 -219.505587 
L 535.636127 -220.623962 
L 535.0536 -226.479112 
L 534.471073 -231.235679 
L 533.888546 -226.284639 
L 533.306019 -222.815 
L 532.723492 -222.443061 
L 532.140965 -222.071123 
L 531.558439 -221.699184 
L 530.975912 -221.327246 
L 530.393385 -220.955307 
L 529.810858 -220.583368 
L 529.228331 -226.320862 
L 528.645804 -233.745521 
L 528.063278 -231.384735 
L 527.480751 -227.21183 
L 526.898224 -223.038924 
L 526.315697 -218.866019 
L 525.73317 -214.693114 
L 525.150643 -210.520209 
L 524.568116 -213.851208 
L 523.98559 -219.850998 
L 523.403063 -225.850788 
L 522.820536 -231.850578 
L 522.238009 -231.52402 
L 521.655482 -223.063587 
L 521.072955 -218.250653 
L 520.490429 -221.676392 
L 519.907902 -225.102131 
L 519.325375 -228.52787 
L 518.742848 -231.953609 
L 518.160321 -235.379347 
L 517.577794 -238.805086 
L 516.995267 -242.230825 
L 516.412741 -245.292568 
L 515.830214 -237.07044 
L 515.247687 -228.848312 
L 514.66516 -220.626184 
L 514.082633 -212.404056 
L 513.500106 -216.566048 
L 512.91758 -223.276099 
L 512.335053 -229.98615 
L 511.752526 -236.696201 
L 511.169999 -243.406253 
L 510.587472 -250.116304 
L 510.004945 -247.468888 
L 509.422418 -239.206991 
L 508.839892 -230.945094 
L 508.257365 -222.683197 
L 507.674838 -214.943733 
L 507.092311 -213.341631 
L 506.509784 -211.739529 
L 505.927257 -210.137427 
L 505.344731 -214.253994 
L 504.762204 -222.900681 
L 504.179677 -228.175017 
L 503.59715 -221.40524 
L 503.014623 -214.635463 
L 502.432096 -207.865686 
L 501.84957 -205.815215 
L 501.267043 -206.57111 
L 500.684516 -209.516146 
L 500.101989 -212.461182 
L 499.519462 -215.406218 
L 498.936935 -218.351254 
L 498.354408 -221.29629 
L 497.771882 -217.542977 
L 497.189355 -212.24389 
L 496.606828 -206.944803 
L 496.024301 -201.645717 
L 495.441774 -198.765656 
L 494.859247 -198.573253 
L 494.276721 -200.971791 
L 493.694194 -203.485535 
L 493.111667 -210.865799 
L 492.52914 -218.246064 
L 491.946613 -219.439215 
L 491.364086 -211.589662 
L 490.781559 -203.740109 
L 490.199033 -196.719505 
L 489.616506 -202.030994 
L 489.033979 -207.342483 
L 488.451452 -212.653971 
L 487.868925 -217.96546 
L 487.286398 -223.276949 
L 486.703872 -228.588438 
L 486.121345 -233.899926 
L 485.538818 -227.932105 
L 484.956291 -221.964284 
L 484.373764 -215.996463 
L 483.791237 -210.028642 
L 483.20871 -204.060821 
L 482.626184 -198.093 
L 482.043657 -200.97106 
L 481.46113 -206.360925 
L 480.878603 -211.750791 
L 480.296076 -217.140657 
L 479.713549 -214.281516 
L 479.131023 -205.778318 
L 478.548496 -204.008439 
L 477.965969 -209.534743 
L 477.383442 -215.061047 
L 476.800915 -220.58735 
L 476.218388 -226.113654 
L 475.635861 -231.639958 
L 475.053335 -237.166261 
L 474.470808 -242.692565 
L 473.888281 -244.529516 
L 473.305754 -230.37927 
L 472.723227 -216.229025 
L 472.1407 -213.734017 
L 471.558174 -211.438925 
L 470.975647 -209.143832 
L 470.39312 -206.848739 
L 469.810593 -204.553647 
L 469.228066 -205.66065 
L 468.645539 -207.357196 
L 468.063013 -210.520676 
L 467.480486 -208.81816 
L 466.897959 -212.445286 
L 466.315432 -218.568398 
L 465.732905 -224.69151 
L 465.150378 -230.814622 
L 464.567851 -236.937734 
L 463.985325 -243.060846 
L 463.402798 -249.904925 
L 462.820271 -260.389265 
L 462.237744 -270.873604 
L 461.655217 -271.923296 
L 461.07269 -257.248574 
L 460.490164 -242.724011 
L 459.907637 -233.236382 
L 459.32511 -227.834346 
L 458.742583 -230.332729 
L 458.160056 -232.831111 
L 457.577529 -235.329494 
L 456.995002 -237.827876 
L 456.412476 -240.326259 
L 455.829949 -242.824641 
L 455.247422 -240.860605 
L 454.664895 -238.75262 
L 454.082368 -236.644634 
L 453.499841 -234.536649 
L 452.917315 -232.428663 
L 452.334788 -234.152973 
L 451.752261 -242.309561 
L 451.169734 -250.466148 
L 450.587207 -258.622736 
L 450.00468 -266.779323 
L 449.422153 -264.649553 
L 448.839627 -254.519283 
L 448.2571 -244.389013 
L 447.674573 -237.843879 
L 447.092046 -237.158913 
L 446.509519 -236.473948 
L 445.926992 -235.788982 
L 445.344466 -238.870859 
L 444.761939 -247.039161 
L 444.179412 -255.207463 
L 443.596885 -260.444808 
L 443.014358 -249.854985 
L 442.431831 -239.265162 
L 441.849304 -228.675339 
L 441.266778 -218.085516 
L 440.684251 -226.519027 
L 440.101724 -238.250984 
L 439.519197 -249.98294 
L 438.93667 -261.714897 
L 438.354143 -273.446854 
L 437.771617 -285.178811 
L 437.18909 -279.115346 
L 436.606563 -267.120075 
L 436.024036 -255.124803 
L 435.441509 -243.129532 
L 434.858982 -231.13426 
L 434.276455 -223.859871 
L 433.693929 -222.660768 
L 433.111402 -224.268549 
L 432.528875 -225.87633 
L 431.946348 -229.636913 
L 431.363821 -231.482243 
L 430.781294 -223.90328 
L 430.198768 -216.324317 
L 429.616241 -208.745353 
L 429.033714 -203.381055 
L 428.451187 -205.946778 
L 427.86866 -210.627983 
L 427.286133 -215.309188 
L 426.703607 -219.990393 
L 426.12108 -224.671597 
L 425.538553 -229.352802 
L 424.956026 -222.673328 
L 424.373499 -215.567041 
L 423.790972 -213.6749 
L 423.208445 -211.782759 
L 422.625919 -209.890618 
L 422.043392 -214.187799 
L 421.460865 -224.432343 
L 420.878338 -234.676886 
L 420.295811 -244.921429 
L 419.713284 -255.165972 
L 419.130758 -256.445212 
L 418.548231 -249.813892 
L 417.965704 -243.182571 
L 417.383177 -236.551251 
L 416.80065 -229.91993 
L 416.218123 -223.971168 
L 415.635596 -228.526374 
L 415.05307 -233.081579 
L 414.470543 -237.636784 
L 413.888016 -242.19199 
L 413.305489 -245.430175 
L 412.722962 -239.449223 
L 412.140435 -233.468271 
L 411.557909 -227.487318 
L 410.975382 -221.506366 
L 410.392855 -218.892699 
L 409.810328 -216.87542 
L 409.227801 -214.858142 
L 408.645274 -212.840864 
L 408.062747 -210.823586 
L 407.480221 -210.662842 
L 406.897694 -215.864742 
L 406.315167 -219.16619 
L 405.73264 -222.467639 
L 405.150113 -225.769087 
L 404.567586 -229.070536 
L 403.98506 -232.371984 
L 403.402533 -235.673432 
L 402.820006 -238.974881 
L 402.237479 -242.276329 
L 401.654952 -245.577778 
L 401.072425 -244.475371 
L 400.489898 -236.342838 
L 399.907372 -231.641207 
L 399.324845 -226.939576 
L 398.742318 -222.237945 
L 398.159791 -217.536315 
L 397.577264 -212.834684 
L 396.994737 -212.944617 
L 396.412211 -214.119047 
L 395.829684 -217.431032 
L 395.247157 -224.41199 
L 394.66463 -224.621022 
L 394.082103 -224.129509 
L 393.499576 -223.637997 
L 392.917049 -223.146484 
L 392.334523 -222.654972 
L 391.751996 -222.16346 
L 391.169469 -221.671947 
L 390.586942 -221.180435 
L 390.004415 -220.688923 
L 389.421888 -220.19741 
L 388.839362 -215.324241 
L 388.256835 -211.511027 
L 387.674308 -210.825253 
L 387.091781 -210.139479 
L 386.509254 -214.045877 
L 385.926727 -218.840303 
L 385.344201 -223.63473 
L 384.761674 -228.429157 
L 384.179147 -233.223584 
L 383.59662 -238.018011 
L 383.014093 -241.567676 
L 382.431566 -233.084648 
L 381.849039 -224.60162 
L 381.266513 -216.118592 
L 380.683986 -207.934573 
L 380.101459 -202.796005 
L 379.518932 -205.101804 
L 378.936405 -207.407604 
L 378.353878 -209.713404 
L 377.771352 -212.019203 
L 377.188825 -215.16407 
L 376.606298 -214.677864 
L 376.023771 -212.804444 
L 375.441244 -211.166833 
L 374.858717 -209.529222 
L 374.27619 -207.891611 
L 373.693664 -207.979253 
L 373.111137 -212.617495 
L 372.52861 -222.0171 
L 371.946083 -231.416705 
L 371.363556 -240.81631 
L 370.781029 -245.631729 
L 370.198503 -238.732008 
L 369.615976 -231.832286 
L 369.033449 -224.932565 
L 368.450922 -221.356306 
L 367.868395 -220.274944 
L 367.285868 -222.397817 
L 366.703341 -227.743719 
L 366.120815 -233.08962 
L 365.538288 -238.435521 
L 364.955761 -243.781423 
L 364.373234 -236.221037 
L 363.790707 -226.816896 
L 363.20818 -228.26181 
L 362.625654 -229.920752 
L 362.043127 -231.579693 
L 361.4606 -233.238634 
L 360.878073 -234.897576 
L 360.295546 -236.556517 
L 359.713019 -238.215459 
L 359.130492 -239.8744 
L 358.547966 -238.729832 
L 357.965439 -234.407952 
L 357.382912 -230.086072 
L 356.800385 -225.922816 
L 356.217858 -228.577642 
L 355.635331 -231.232469 
L 355.052805 -233.887296 
L 354.470278 -236.542123 
L 353.887751 -239.19695 
L 353.305224 -241.851777 
L 352.722697 -244.201332 
L 352.14017 -241.971816 
L 351.557643 -239.7423 
L 350.975117 -237.512784 
L 350.39259 -235.283267 
L 349.810063 -233.053751 
L 349.227536 -232.869792 
L 348.645009 -235.049422 
L 348.062482 -237.229053 
L 347.479956 -239.408683 
L 346.897429 -242.579613 
L 346.314902 -244.094057 
L 345.732375 -242.053399 
L 345.149848 -240.012741 
L 344.567321 -237.972082 
L 343.984795 -236.086994 
L 343.402268 -234.744591 
L 342.819741 -233.402187 
L 342.237214 -232.059784 
L 341.654687 -230.71738 
L 341.07216 -229.374977 
L 340.489633 -227.311653 
L 339.907107 -224.003333 
L 339.32458 -223.847889 
L 338.742053 -223.692444 
L 338.159526 -223.536999 
L 337.576999 -223.381555 
L 336.994472 -223.22611 
L 336.411946 -223.070666 
L 335.829419 -222.915221 
L 335.246892 -222.759776 
L 334.664365 -222.604332 
L 334.081838 -224.561777 
L 333.499311 -226.910499 
L 332.916784 -229.259221 
L 332.334258 -231.607943 
L 331.751731 -233.956665 
L 331.169204 -236.305386 
L 330.586677 -238.654108 
L 330.00415 -241.00283 
L 329.421623 -243.351552 
L 328.839097 -245.700274 
L 328.25657 -244.304766 
L 327.674043 -238.095251 
L 327.091516 -231.885735 
L 326.508989 -225.676219 
L 325.926462 -227.243032 
L 325.343935 -232.22521 
L 324.761409 -237.207388 
L 324.178882 -242.189566 
L 323.596355 -247.171744 
L 323.013828 -252.153922 
L 322.431301 -257.579038 
L 321.848774 -250.924788 
L 321.266248 -244.270539 
L 320.683721 -237.616289 
L 320.101194 -230.96204 
L 319.518667 -231.293572 
L 318.93614 -246.049389 
L 318.353613 -260.805205 
L 317.771086 -275.561022 
L 317.18856 -290.316838 
L 316.606033 -305.072654 
L 316.023506 -302.726665 
L 315.440979 -290.119593 
L 314.858452 -277.512521 
L 314.275925 -264.905448 
L 313.693399 -252.298376 
L 313.110872 -239.691303 
L 312.528345 -227.084231 
L 311.945818 -221.914504 
L 311.363291 -226.429483 
L 310.780764 -230.944463 
L 310.198237 -232.351891 
L 309.615711 -235.335009 
L 309.033184 -239.808327 
L 308.450657 -244.281646 
L 307.86813 -248.754964 
L 307.285603 -253.228283 
L 306.703076 -257.701602 
L 306.12055 -262.17492 
L 305.538023 -266.648239 
L 304.955496 -271.121558 
L 304.372969 -275.594876 
L 303.790442 -271.137696 
L 303.207915 -264.61963 
L 302.625389 -258.101565 
L 302.042862 -251.583499 
L 301.460335 -245.065434 
L 300.877808 -238.547368 
L 300.295281 -235.39383 
L 299.712754 -247.27186 
L 299.130227 -259.14989 
L 298.547701 -271.02792 
L 297.965174 -275.019937 
L 297.382647 -267.486242 
L 296.80012 -273.815639 
L 296.217593 -288.337093 
L 295.635066 -302.858547 
L 295.05254 -317.380002 
L 294.470013 -331.901456 
L 293.887486 -346.42291 
L 293.304959 -360.944364 
L 292.722432 -375.465818 
L 292.139905 -389.987273 
L 291.557378 -362.493965 
L 290.974852 -335.000656 
L 290.392325 -307.507348 
L 289.809798 -280.01404 
L 289.227271 -252.520732 
L 288.644744 -225.027424 
L 288.062217 -217.720073 
L 287.479691 -215.235713 
L 286.897164 -216.360561 
L 286.314637 -222.748828 
L 285.73211 -221.756599 
L 285.149583 -215.714559 
L 284.567056 -209.672519 
L 283.984529 -206.001714 
L 283.402003 -212.567202 
L 282.819476 -222.942287 
L 282.236949 -233.317371 
L 281.654422 -243.692455 
L 281.071895 -254.067539 
L 280.489368 -264.442623 
L 279.906842 -270.691113 
L 279.324315 -259.057691 
L 278.741788 -247.42427 
L 278.159261 -235.790849 
L 277.576734 -224.157428 
L 276.994207 -219.158726 
L 276.41168 -214.247683 
L 275.829154 -222.687385 
L 275.246627 -235.135228 
L 274.6641 -247.58307 
L 274.081573 -260.030912 
L 273.499046 -256.118811 
L 272.916519 -247.625925 
L 272.333993 -239.133039 
L 271.751466 -230.640153 
L 271.168939 -222.147267 
L 270.586412 -213.654381 
L 270.003885 -212.719248 
L 269.421358 -218.568565 
L 268.838832 -224.417882 
L 268.256305 -230.267198 
L 267.673778 -233.765668 
L 267.091251 -233.346059 
L 266.508724 -232.92645 
L 265.926197 -232.506841 
L 265.34367 -232.087232 
L 264.761144 -231.667623 
L 264.178617 -231.248014 
L 263.59609 -231.714605 
L 263.013563 -235.25138 
L 262.431036 -238.788155 
L 261.848509 -242.32493 
L 261.265983 -236.819678 
L 260.683456 -231.022747 
L 260.100929 -225.225817 
L 259.518402 -220.372851 
L 258.935875 -221.372768 
L 258.353348 -222.372685 
L 257.770821 -223.372603 
L 257.188295 -224.37252 
L 256.605768 -225.372437 
L 256.023241 -226.372355 
L 255.440714 -223.527421 
L 254.858187 -218.812505 
L 254.27566 -218.603199 
L 253.693134 -223.749822 
L 253.110607 -228.896446 
L 252.52808 -234.043069 
L 251.945553 -239.189692 
L 251.363026 -244.336316 
L 250.780499 -255.662653 
L 250.197972 -269.877916 
L 249.615446 -279.991969 
L 249.032919 -267.95949 
L 248.450392 -255.927011 
L 247.867865 -246.166319 
L 247.285338 -242.109065 
L 246.702811 -248.685462 
L 246.120285 -261.063585 
L 245.537758 -273.441708 
L 244.955231 -285.819832 
L 244.372704 -298.197955 
L 243.790177 -310.576078 
L 243.20765 -303.611801 
L 242.625123 -290.200057 
L 242.042597 -276.788313 
L 241.46007 -263.376569 
L 240.877543 -249.964825 
L 240.295016 -236.553082 
L 239.712489 -223.141338 
L 239.129962 -221.386562 
L 238.547436 -227.453593 
L 237.964909 -233.520623 
L 237.382382 -234.816903 
L 236.799855 -227.005385 
L 236.217328 -219.193868 
L 235.634801 -211.38235 
L 235.052274 -203.570833 
L 234.469748 -210.211076 
L 233.887221 -219.277877 
L 233.304694 -228.344678 
L 232.722167 -237.411479 
L 232.13964 -246.47828 
L 231.557113 -255.545081 
L 230.974587 -250.296378 
L 230.39206 -244.093308 
L 229.809533 -237.890238 
L 229.227006 -231.687168 
L 228.644479 -225.484098 
L 228.061952 -226.740282 
L 227.479426 -228.3918 
L 226.896899 -230.043318 
L 226.314372 -233.375283 
L 225.731845 -241.06966 
L 225.149318 -242.146349 
L 224.566791 -237.383902 
L 223.984264 -232.621455 
L 223.401738 -229.751353 
L 222.819211 -228.514072 
L 222.236684 -227.27679 
L 221.654157 -229.99073 
L 221.07163 -233.704562 
L 220.489103 -237.418394 
L 219.906577 -241.132226 
L 219.32405 -243.493137 
L 218.741523 -236.383602 
L 218.158996 -229.274067 
L 217.576469 -222.164532 
L 216.993942 -215.054997 
L 216.411415 -216.18843 
L 215.828889 -230.451168 
L 215.246362 -244.713905 
L 214.663835 -258.976643 
L 214.081308 -273.239381 
L 213.498781 -287.502118 
L 212.916254 -279.329823 
L 212.333728 -262.3786 
L 211.751201 -245.427378 
L 211.168674 -238.672673 
L 210.586147 -247.893512 
L 210.00362 -257.114351 
L 209.421093 -266.33519 
L 208.838566 -275.55603 
L 208.25604 -284.776869 
L 207.673513 -293.997708 
L 207.090986 -296.888363 
L 206.508459 -285.852612 
L 205.925932 -274.816861 
L 205.343405 -263.78111 
L 204.760879 -252.745359 
L 204.178352 -241.709608 
L 203.595825 -232.929635 
L 203.013298 -238.653628 
L 202.430771 -244.37762 
L 201.848244 -250.101612 
L 201.265717 -255.825605 
L 200.683191 -252.830957 
L 200.100664 -249.296999 
L 199.518137 -247.480643 
L 198.93561 -245.664288 
L 198.353083 -243.847933 
L 197.770556 -242.031577 
L 197.18803 -240.215222 
L 196.605503 -238.398866 
L 196.022976 -236.582511 
L 195.440449 -234.766156 
L 194.857922 -233.340964 
L 194.275395 -232.306936 
L 193.692868 -231.272907 
L 193.110342 -230.238879 
L 192.527815 -231.974937 
L 191.945288 -235.233047 
L 191.362761 -238.491158 
L 190.780234 -241.749268 
L 190.197707 -245.007379 
L 189.615181 -248.265489 
L 189.032654 -250.186459 
L 188.450127 -239.181736 
L 187.8676 -229.037039 
L 187.285073 -229.989908 
L 186.702546 -230.942777 
L 186.12002 -231.895646 
L 185.537493 -232.848516 
L 184.954966 -233.801385 
L 184.372439 -245.871217 
L 183.789912 -258.530657 
L 183.207385 -271.190098 
L 182.624858 -269.814811 
L 182.042332 -262.060103 
L 181.459805 -254.305394 
L 180.877278 -246.550686 
L 180.294751 -238.795978 
L 179.712224 -231.041269 
L 179.129697 -231.54613 
L 178.547171 -236.254529 
L 177.964644 -240.962928 
L 177.382117 -245.671327 
L 176.79959 -249.114094 
L 176.217063 -243.038448 
L 175.634536 -236.962803 
L 175.052009 -230.887157 
L 174.469483 -224.821498 
L 173.886956 -228.094452 
L 173.304429 -232.097379 
L 172.721902 -236.100307 
L 172.139375 -240.103235 
L 171.556848 -244.106162 
L 170.974322 -248.10909 
L 170.391795 -247.341291 
L 169.809268 -245.891959 
L 169.226741 -244.442627 
L 168.644214 -242.993296 
L 168.061687 -241.543964 
L 167.47916 -244.526557 
L 166.896634 -254.55503 
L 166.314107 -264.583503 
L 165.73158 -274.611976 
L 165.149053 -284.64045 
L 164.566526 -284.030745 
L 163.983999 -271.364438 
L 163.401473 -258.698131 
L 162.818946 -246.031824 
L 162.236419 -233.365517 
L 161.653892 -220.69921 
L 161.071365 -223.331654 
L 160.488838 -227.402376 
L 159.906311 -238.800041 
L 159.323785 -253.103698 
L 158.741258 -266.346233 
L 158.158731 -263.671927 
L 157.576204 -260.997621 
L 156.993677 -258.323316 
L 156.41115 -255.64901 
L 155.828624 -252.974704 
L 155.246097 -250.300398 
L 154.66357 -247.626093 
L 154.081043 -244.951787 
L 153.498516 -242.277481 
L 152.915989 -239.603175 
L 152.333462 -232.441671 
L 151.750936 -222.929728 
L 151.168409 -213.417786 
L 150.585882 -209.523419 
L 150.003355 -208.68054 
L 149.420828 -207.837662 
L 148.838301 -211.49162 
L 148.255775 -216.175135 
L 147.673248 -222.803277 
L 147.090721 -231.496824 
L 146.508194 -236.807871 
L 145.925667 -231.971414 
L 145.34314 -234.24182 
L 144.760614 -236.547162 
L 144.178087 -238.852504 
L 143.59556 -241.157846 
L 143.013033 -243.463187 
L 142.430506 -245.768529 
L 141.847979 -248.073871 
L 141.265452 -250.379213 
L 140.682926 -252.684555 
L 140.100399 -245.095868 
L 139.517872 -235.674954 
L 138.935345 -226.25404 
L 138.352818 -216.833126 
L 137.770291 -207.412212 
L 137.187765 -204.690276 
L 136.605238 -208.575633 
L 136.022711 -212.46099 
L 135.440184 -216.346346 
L 134.857657 -220.231703 
L 134.27513 -221.739127 
L 133.692603 -220.18921 
L 133.110077 -218.639293 
L 132.52755 -217.089376 
L 131.945023 -215.539459 
L 131.362496 -213.989542 
L 130.779969 -212.439625 
L 130.197442 -210.889708 
L 129.614916 -215.044994 
L 129.032389 -225.531237 
L 128.449862 -235.483844 
L 127.867335 -228.893743 
L 127.284808 -222.303642 
L 126.702281 -215.713541 
L 126.119754 -213.253069 
L 125.537228 -214.980741 
L 124.954701 -216.708413 
L 124.372174 -218.436085 
L 123.789647 -220.163757 
L 123.20712 -221.891429 
L 122.624593 -223.619101 
L 122.042067 -221.815372 
L 121.45954 -217.892803 
L 120.877013 -213.970233 
L 120.294486 -210.047664 
L 119.711959 -206.125094 
L 119.129432 -202.202525 
L 118.546905 -198.279955 
L 117.964379 -205.375332 
L 117.381852 -213.451603 
L 116.799325 -221.527875 
L 116.216798 -226.403237 
L 115.634271 -219.84678 
L 115.051744 -213.290322 
L 114.469218 -206.733864 
L 113.886691 -200.177406 
L 113.304164 -198.672999 
L 112.721637 -203.876086 
L 112.13911 -211.131864 
L 111.556583 -218.387642 
L 110.974056 -225.64342 
L 110.39153 -232.899198 
L 109.809003 -228.86655 
L 109.226476 -222.228879 
L 108.643949 -215.591209 
L 108.061422 -208.953539 
L 107.478895 -202.315868 
L 106.896369 -195.75705 
L 106.313842 -207.049279 
L 105.731315 -218.341508 
L 105.148788 -229.633737 
L 104.566261 -240.925967 
L 103.983734 -247.841812 
L 103.401208 -248.361404 
L 102.818681 -248.880997 
L 102.236154 -249.400589 
L 101.653627 -249.920181 
L 101.0711 -250.439774 
L 100.488573 -250.959366 
L 99.906046 -251.478958 
L 99.32352 -251.998551 
L 98.740993 -252.518143 
L 98.158466 -253.037735 
z
" style="stroke: #00008b; stroke-opacity: 0.3"/>
    </defs>
    <g clip-path="url(#pf461fa36e3)">
     <use xlink:href="#m487d851b8b" x="0" y="432" style="fill: #00008b; fill-opacity: 0.3; stroke: #00008b; stroke-opacity: 0.3"/>
    </g>
   </g>
   <g id="matplotlib.axis_1">
    <g id="xtick_1">
     <g id="line2d_1">
      <defs>
       <path id="m2a425d99fd" d="M 0 0 
L 0 3.5 
" style="stroke: #000000; stroke-width: 0.8"/>
      </defs>
      <g>
       <use xlink:href="#m2a425d99fd" x="92.096546" y="390.04" style="stroke: #000000; stroke-width: 0.8"/>
      </g>
     </g>
     <g id="text_1">
      <!-- 0 -->
      <g transform="translate(88.915296 404.638438) scale(0.1 -0.1)">
       <defs>
        <path id="DejaVuSans-30" d="M 2034 4250 
Q 1547 4250 1301 3770 
Q 1056 3291 1056 2328 
Q 1056 1369 1301 889 
Q 1547 409 2034 409 
Q 2525 409 2770 889 
Q 3016 1369 3016 2328 
Q 3016 3291 2770 3770 
Q 2525 4250 2034 4250 
z
M 2034 4750 
Q 2819 4750 3233 4129 
Q 3647 3509 3647 2328 
Q 3647 1150 3233 529 
Q 2819 -91 2034 -91 
Q 1250 -91 836 529 
Q 422 1150 422 2328 
Q 422 3509 836 4129 
Q 1250 4750 2034 4750 
z
" transform="scale(0.015625)"/>
       </defs>
       <use xlink:href="#DejaVuSans-30"/>
      </g>
     </g>
    </g>
    <g id="xtick_2">
     <g id="line2d_2">
      <g>
       <use xlink:href="#m2a425d99fd" x="210.493421" y="390.04" style="stroke: #000000; stroke-width: 0.8"/>
      </g>
     </g>
     <g id="text_2">
      <!-- 20000 -->
      <g transform="translate(194.587171 404.638438) scale(0.1 -0.1)">
       <defs>
        <path id="DejaVuSans-32" d="M 1228 531 
L 3431 531 
L 3431 0 
L 469 0 
L 469 531 
Q 828 903 1448 1529 
Q 2069 2156 2228 2338 
Q 2531 2678 2651 2914 
Q 2772 3150 2772 3378 
Q 2772 3750 2511 3984 
Q 2250 4219 1831 4219 
Q 1534 4219 1204 4116 
Q 875 4013 500 3803 
L 500 4441 
Q 881 4594 1212 4672 
Q 1544 4750 1819 4750 
Q 2544 4750 2975 4387 
Q 3406 4025 3406 3419 
Q 3406 3131 3298 2873 
Q 3191 2616 2906 2266 
Q 2828 2175 2409 1742 
Q 1991 1309 1228 531 
z
" transform="scale(0.015625)"/>
       </defs>
       <use xlink:href="#DejaVuSans-32"/>
       <use xlink:href="#DejaVuSans-30" transform="translate(63.623047 0)"/>
       <use xlink:href="#DejaVuSans-30" transform="translate(127.246094 0)"/>
       <use xlink:href="#DejaVuSans-30" transform="translate(190.869141 0)"/>
       <use xlink:href="#DejaVuSans-30" transform="translate(254.492188 0)"/>
      </g>
     </g>
    </g>
    <g id="xtick_3">
     <g id="line2d_3">
      <g>
       <use xlink:href="#m2a425d99fd" x="328.890295" y="390.04" style="stroke: #000000; stroke-width: 0.8"/>
      </g>
     </g>
     <g id="text_3">
      <!-- 40000 -->
      <g transform="translate(312.984045 404.638438) scale(0.1 -0.1)">
       <defs>
        <path id="DejaVuSans-34" d="M 2419 4116 
L 825 1625 
L 2419 1625 
L 2419 4116 
z
M 2253 4666 
L 3047 4666 
L 3047 1625 
L 3713 1625 
L 3713 1100 
L 3047 1100 
L 3047 0 
L 2419 0 
L 2419 1100 
L 313 1100 
L 313 1709 
L 2253 4666 
z
" transform="scale(0.015625)"/>
       </defs>
       <use xlink:href="#DejaVuSans-34"/>
       <use xlink:href="#DejaVuSans-30" transform="translate(63.623047 0)"/>
       <use xlink:href="#DejaVuSans-30" transform="translate(127.246094 0)"/>
       <use xlink:href="#DejaVuSans-30" transform="translate(190.869141 0)"/>
       <use xlink:href="#DejaVuSans-30" transform="translate(254.492188 0)"/>
      </g>
     </g>
    </g>
    <g id="xtick_4">
     <g id="line2d_4">
      <g>
       <use xlink:href="#m2a425d99fd" x="447.28717" y="390.04" style="stroke: #000000; stroke-width: 0.8"/>
      </g>
     </g>
     <g id="text_4">
      <!-- 60000 -->
      <g transform="translate(431.38092 404.638438) scale(0.1 -0.1)">
       <defs>
        <path id="DejaVuSans-36" d="M 2113 2584 
Q 1688 2584 1439 2293 
Q 1191 2003 1191 1497 
Q 1191 994 1439 701 
Q 1688 409 2113 409 
Q 2538 409 2786 701 
Q 3034 994 3034 1497 
Q 3034 2003 2786 2293 
Q 2538 2584 2113 2584 
z
M 3366 4563 
L 3366 3988 
Q 3128 4100 2886 4159 
Q 2644 4219 2406 4219 
Q 1781 4219 1451 3797 
Q 1122 3375 1075 2522 
Q 1259 2794 1537 2939 
Q 1816 3084 2150 3084 
Q 2853 3084 3261 2657 
Q 3669 2231 3669 1497 
Q 3669 778 3244 343 
Q 2819 -91 2113 -91 
Q 1303 -91 875 529 
Q 447 1150 447 2328 
Q 447 3434 972 4092 
Q 1497 4750 2381 4750 
Q 2619 4750 2861 4703 
Q 3103 4656 3366 4563 
z
" transform="scale(0.015625)"/>
       </defs>
       <use xlink:href="#DejaVuSans-36"/>
       <use xlink:href="#DejaVuSans-30" transform="translate(63.623047 0)"/>
       <use xlink:href="#DejaVuSans-30" transform="translate(127.246094 0)"/>
       <use xlink:href="#DejaVuSans-30" transform="translate(190.869141 0)"/>
       <use xlink:href="#DejaVuSans-30" transform="translate(254.492188 0)"/>
      </g>
     </g>
    </g>
    <g id="xtick_5">
     <g id="line2d_5">
      <g>
       <use xlink:href="#m2a425d99fd" x="565.684044" y="390.04" style="stroke: #000000; stroke-width: 0.8"/>
      </g>
     </g>
     <g id="text_5">
      <!-- 80000 -->
      <g transform="translate(549.777794 404.638438) scale(0.1 -0.1)">
       <defs>
        <path id="DejaVuSans-38" d="M 2034 2216 
Q 1584 2216 1326 1975 
Q 1069 1734 1069 1313 
Q 1069 891 1326 650 
Q 1584 409 2034 409 
Q 2484 409 2743 651 
Q 3003 894 3003 1313 
Q 3003 1734 2745 1975 
Q 2488 2216 2034 2216 
z
M 1403 2484 
Q 997 2584 770 2862 
Q 544 3141 544 3541 
Q 544 4100 942 4425 
Q 1341 4750 2034 4750 
Q 2731 4750 3128 4425 
Q 3525 4100 3525 3541 
Q 3525 3141 3298 2862 
Q 3072 2584 2669 2484 
Q 3125 2378 3379 2068 
Q 3634 1759 3634 1313 
Q 3634 634 3220 271 
Q 2806 -91 2034 -91 
Q 1263 -91 848 271 
Q 434 634 434 1313 
Q 434 1759 690 2068 
Q 947 2378 1403 2484 
z
M 1172 3481 
Q 1172 3119 1398 2916 
Q 1625 2713 2034 2713 
Q 2441 2713 2670 2916 
Q 2900 3119 2900 3481 
Q 2900 3844 2670 4047 
Q 2441 4250 2034 4250 
Q 1625 4250 1398 4047 
Q 1172 3844 1172 3481 
z
" transform="scale(0.015625)"/>
       </defs>
       <use xlink:href="#DejaVuSans-38"/>
       <use xlink:href="#DejaVuSans-30" transform="translate(63.623047 0)"/>
       <use xlink:href="#DejaVuSans-30" transform="translate(127.246094 0)"/>
       <use xlink:href="#DejaVuSans-30" transform="translate(190.869141 0)"/>
       <use xlink:href="#DejaVuSans-30" transform="translate(254.492188 0)"/>
      </g>
     </g>
    </g>
    <g id="xtick_6">
     <g id="line2d_6">
      <g>
       <use xlink:href="#m2a425d99fd" x="684.080919" y="390.04" style="stroke: #000000; stroke-width: 0.8"/>
      </g>
     </g>
     <g id="text_6">
      <!-- 100000 -->
      <g transform="translate(664.993419 404.638438) scale(0.1 -0.1)">
       <defs>
        <path id="DejaVuSans-31" d="M 794 531 
L 1825 531 
L 1825 4091 
L 703 3866 
L 703 4441 
L 1819 4666 
L 2450 4666 
L 2450 531 
L 3481 531 
L 3481 0 
L 794 0 
L 794 531 
z
" transform="scale(0.015625)"/>
       </defs>
       <use xlink:href="#DejaVuSans-31"/>
       <use xlink:href="#DejaVuSans-30" transform="translate(63.623047 0)"/>
       <use xlink:href="#DejaVuSans-30" transform="translate(127.246094 0)"/>
       <use xlink:href="#DejaVuSans-30" transform="translate(190.869141 0)"/>
       <use xlink:href="#DejaVuSans-30" transform="translate(254.492188 0)"/>
       <use xlink:href="#DejaVuSans-30" transform="translate(318.115234 0)"/>
      </g>
     </g>
    </g>
    <g id="text_7">
     <!-- Step -->
     <g transform="translate(377.745469 418.316562) scale(0.1 -0.1)">
      <defs>
       <path id="DejaVuSans-53" d="M 3425 4513 
L 3425 3897 
Q 3066 4069 2747 4153 
Q 2428 4238 2131 4238 
Q 1616 4238 1336 4038 
Q 1056 3838 1056 3469 
Q 1056 3159 1242 3001 
Q 1428 2844 1947 2747 
L 2328 2669 
Q 3034 2534 3370 2195 
Q 3706 1856 3706 1288 
Q 3706 609 3251 259 
Q 2797 -91 1919 -91 
Q 1588 -91 1214 -16 
Q 841 59 441 206 
L 441 856 
Q 825 641 1194 531 
Q 1563 422 1919 422 
Q 2459 422 2753 634 
Q 3047 847 3047 1241 
Q 3047 1584 2836 1778 
Q 2625 1972 2144 2069 
L 1759 2144 
Q 1053 2284 737 2584 
Q 422 2884 422 3419 
Q 422 4038 858 4394 
Q 1294 4750 2059 4750 
Q 2388 4750 2728 4690 
Q 3069 4631 3425 4513 
z
" transform="scale(0.015625)"/>
       <path id="DejaVuSans-74" d="M 1172 4494 
L 1172 3500 
L 2356 3500 
L 2356 3053 
L 1172 3053 
L 1172 1153 
Q 1172 725 1289 603 
Q 1406 481 1766 481 
L 2356 481 
L 2356 0 
L 1766 0 
Q 1100 0 847 248 
Q 594 497 594 1153 
L 594 3053 
L 172 3053 
L 172 3500 
L 594 3500 
L 594 4494 
L 1172 4494 
z
" transform="scale(0.015625)"/>
       <path id="DejaVuSans-65" d="M 3597 1894 
L 3597 1613 
L 953 1613 
Q 991 1019 1311 708 
Q 1631 397 2203 397 
Q 2534 397 2845 478 
Q 3156 559 3463 722 
L 3463 178 
Q 3153 47 2828 -22 
Q 2503 -91 2169 -91 
Q 1331 -91 842 396 
Q 353 884 353 1716 
Q 353 2575 817 3079 
Q 1281 3584 2069 3584 
Q 2775 3584 3186 3129 
Q 3597 2675 3597 1894 
z
M 3022 2063 
Q 3016 2534 2758 2815 
Q 2500 3097 2075 3097 
Q 1594 3097 1305 2825 
Q 1016 2553 972 2059 
L 3022 2063 
z
" transform="scale(0.015625)"/>
       <path id="DejaVuSans-70" d="M 1159 525 
L 1159 -1331 
L 581 -1331 
L 581 3500 
L 1159 3500 
L 1159 2969 
Q 1341 3281 1617 3432 
Q 1894 3584 2278 3584 
Q 2916 3584 3314 3078 
Q 3713 2572 3713 1747 
Q 3713 922 3314 415 
Q 2916 -91 2278 -91 
Q 1894 -91 1617 61 
Q 1341 213 1159 525 
z
M 3116 1747 
Q 3116 2381 2855 2742 
Q 2594 3103 2138 3103 
Q 1681 3103 1420 2742 
Q 1159 2381 1159 1747 
Q 1159 1113 1420 752 
Q 1681 391 2138 391 
Q 2594 391 2855 752 
Q 3116 1113 3116 1747 
z
" transform="scale(0.015625)"/>
      </defs>
      <use xlink:href="#DejaVuSans-53"/>
      <use xlink:href="#DejaVuSans-74" transform="translate(63.476562 0)"/>
      <use xlink:href="#DejaVuSans-65" transform="translate(102.685547 0)"/>
      <use xlink:href="#DejaVuSans-70" transform="translate(164.208984 0)"/>
     </g>
    </g>
   </g>
   <g id="matplotlib.axis_2">
    <g id="ytick_1">
     <g id="line2d_7">
      <defs>
       <path id="m802866f614" d="M 0 0 
L -3.5 0 
" style="stroke: #000000; stroke-width: 0.8"/>
      </defs>
      <g>
       <use xlink:href="#m802866f614" x="69.06125" y="358.099977" style="stroke: #000000; stroke-width: 0.8"/>
      </g>
     </g>
     <g id="text_8">
      <!-- 0.010 -->
      <g transform="translate(25.053438 361.899196) scale(0.1 -0.1)">
       <defs>
        <path id="DejaVuSans-2212" d="M 678 2272 
L 4684 2272 
L 4684 1741 
L 678 1741 
L 678 2272 
z
" transform="scale(0.015625)"/>
        <path id="DejaVuSans-2e" d="M 684 794 
L 1344 794 
L 1344 0 
L 684 0 
L 684 794 
z
" transform="scale(0.015625)"/>
       </defs>
       <use xlink:href="#DejaVuSans-2212"/>
       <use xlink:href="#DejaVuSans-30" transform="translate(83.789062 0)"/>
       <use xlink:href="#DejaVuSans-2e" transform="translate(147.412109 0)"/>
       <use xlink:href="#DejaVuSans-30" transform="translate(179.199219 0)"/>
       <use xlink:href="#DejaVuSans-31" transform="translate(242.822266 0)"/>
       <use xlink:href="#DejaVuSans-30" transform="translate(306.445312 0)"/>
      </g>
     </g>
    </g>
    <g id="ytick_2">
     <g id="line2d_8">
      <g>
       <use xlink:href="#m802866f614" x="69.06125" y="316.169235" style="stroke: #000000; stroke-width: 0.8"/>
      </g>
     </g>
     <g id="text_9">
      <!-- 0.005 -->
      <g transform="translate(25.053438 319.968454) scale(0.1 -0.1)">
       <defs>
        <path id="DejaVuSans-35" d="M 691 4666 
L 3169 4666 
L 3169 4134 
L 1269 4134 
L 1269 2991 
Q 1406 3038 1543 3061 
Q 1681 3084 1819 3084 
Q 2600 3084 3056 2656 
Q 3513 2228 3513 1497 
Q 3513 744 3044 326 
Q 2575 -91 1722 -91 
Q 1428 -91 1123 -41 
Q 819 9 494 109 
L 494 744 
Q 775 591 1075 516 
Q 1375 441 1709 441 
Q 2250 441 2565 725 
Q 2881 1009 2881 1497 
Q 2881 1984 2565 2268 
Q 2250 2553 1709 2553 
Q 1456 2553 1204 2497 
Q 953 2441 691 2322 
L 691 4666 
z
" transform="scale(0.015625)"/>
       </defs>
       <use xlink:href="#DejaVuSans-2212"/>
       <use xlink:href="#DejaVuSans-30" transform="translate(83.789062 0)"/>
       <use xlink:href="#DejaVuSans-2e" transform="translate(147.412109 0)"/>
       <use xlink:href="#DejaVuSans-30" transform="translate(179.199219 0)"/>
       <use xlink:href="#DejaVuSans-30" transform="translate(242.822266 0)"/>
       <use xlink:href="#DejaVuSans-35" transform="translate(306.445312 0)"/>
      </g>
     </g>
    </g>
    <g id="ytick_3">
     <g id="line2d_9">
      <g>
       <use xlink:href="#m802866f614" x="69.06125" y="274.238493" style="stroke: #000000; stroke-width: 0.8"/>
      </g>
     </g>
     <g id="text_10">
      <!-- 0.000 -->
      <g transform="translate(33.433125 278.037712) scale(0.1 -0.1)">
       <use xlink:href="#DejaVuSans-30"/>
       <use xlink:href="#DejaVuSans-2e" transform="translate(63.623047 0)"/>
       <use xlink:href="#DejaVuSans-30" transform="translate(95.410156 0)"/>
       <use xlink:href="#DejaVuSans-30" transform="translate(159.033203 0)"/>
       <use xlink:href="#DejaVuSans-30" transform="translate(222.65625 0)"/>
      </g>
     </g>
    </g>
    <g id="ytick_4">
     <g id="line2d_10">
      <g>
       <use xlink:href="#m802866f614" x="69.06125" y="232.307751" style="stroke: #000000; stroke-width: 0.8"/>
      </g>
     </g>
     <g id="text_11">
      <!-- 0.005 -->
      <g transform="translate(33.433125 236.10697) scale(0.1 -0.1)">
       <use xlink:href="#DejaVuSans-30"/>
       <use xlink:href="#DejaVuSans-2e" transform="translate(63.623047 0)"/>
       <use xlink:href="#DejaVuSans-30" transform="translate(95.410156 0)"/>
       <use xlink:href="#DejaVuSans-30" transform="translate(159.033203 0)"/>
       <use xlink:href="#DejaVuSans-35" transform="translate(222.65625 0)"/>
      </g>
     </g>
    </g>
    <g id="ytick_5">
     <g id="line2d_11">
      <g>
       <use xlink:href="#m802866f614" x="69.06125" y="190.377009" style="stroke: #000000; stroke-width: 0.8"/>
      </g>
     </g>
     <g id="text_12">
      <!-- 0.010 -->
      <g transform="translate(33.433125 194.176227) scale(0.1 -0.1)">
       <use xlink:href="#DejaVuSans-30"/>
       <use xlink:href="#DejaVuSans-2e" transform="translate(63.623047 0)"/>
       <use xlink:href="#DejaVuSans-30" transform="translate(95.410156 0)"/>
       <use xlink:href="#DejaVuSans-31" transform="translate(159.033203 0)"/>
       <use xlink:href="#DejaVuSans-30" transform="translate(222.65625 0)"/>
      </g>
     </g>
    </g>
    <g id="ytick_6">
     <g id="line2d_12">
      <g>
       <use xlink:href="#m802866f614" x="69.06125" y="148.446266" style="stroke: #000000; stroke-width: 0.8"/>
      </g>
     </g>
     <g id="text_13">
      <!-- 0.015 -->
      <g transform="translate(33.433125 152.245485) scale(0.1 -0.1)">
       <use xlink:href="#DejaVuSans-30"/>
       <use xlink:href="#DejaVuSans-2e" transform="translate(63.623047 0)"/>
       <use xlink:href="#DejaVuSans-30" transform="translate(95.410156 0)"/>
       <use xlink:href="#DejaVuSans-31" transform="translate(159.033203 0)"/>
       <use xlink:href="#DejaVuSans-35" transform="translate(222.65625 0)"/>
      </g>
     </g>
    </g>
    <g id="ytick_7">
     <g id="line2d_13">
      <g>
       <use xlink:href="#m802866f614" x="69.06125" y="106.515524" style="stroke: #000000; stroke-width: 0.8"/>
      </g>
     </g>
     <g id="text_14">
      <!-- 0.020 -->
      <g transform="translate(33.433125 110.314743) scale(0.1 -0.1)">
       <use xlink:href="#DejaVuSans-30"/>
       <use xlink:href="#DejaVuSans-2e" transform="translate(63.623047 0)"/>
       <use xlink:href="#DejaVuSans-30" transform="translate(95.410156 0)"/>
       <use xlink:href="#DejaVuSans-32" transform="translate(159.033203 0)"/>
       <use xlink:href="#DejaVuSans-30" transform="translate(222.65625 0)"/>
      </g>
     </g>
    </g>
    <g id="ytick_8">
     <g id="line2d_14">
      <g>
       <use xlink:href="#m802866f614" x="69.06125" y="64.584782" style="stroke: #000000; stroke-width: 0.8"/>
      </g>
     </g>
     <g id="text_15">
      <!-- 0.025 -->
      <g transform="translate(33.433125 68.384001) scale(0.1 -0.1)">
       <use xlink:href="#DejaVuSans-30"/>
       <use xlink:href="#DejaVuSans-2e" transform="translate(63.623047 0)"/>
       <use xlink:href="#DejaVuSans-30" transform="translate(95.410156 0)"/>
       <use xlink:href="#DejaVuSans-32" transform="translate(159.033203 0)"/>
       <use xlink:href="#DejaVuSans-35" transform="translate(222.65625 0)"/>
      </g>
     </g>
    </g>
    <g id="text_16">
     <!-- losses/old_approx_kl -->
     <g transform="translate(18.695625 258.888438) rotate(-90) scale(0.1 -0.1)">
      <defs>
       <path id="DejaVuSans-6c" d="M 603 4863 
L 1178 4863 
L 1178 0 
L 603 0 
L 603 4863 
z
" transform="scale(0.015625)"/>
       <path id="DejaVuSans-6f" d="M 1959 3097 
Q 1497 3097 1228 2736 
Q 959 2375 959 1747 
Q 959 1119 1226 758 
Q 1494 397 1959 397 
Q 2419 397 2687 759 
Q 2956 1122 2956 1747 
Q 2956 2369 2687 2733 
Q 2419 3097 1959 3097 
z
M 1959 3584 
Q 2709 3584 3137 3096 
Q 3566 2609 3566 1747 
Q 3566 888 3137 398 
Q 2709 -91 1959 -91 
Q 1206 -91 779 398 
Q 353 888 353 1747 
Q 353 2609 779 3096 
Q 1206 3584 1959 3584 
z
" transform="scale(0.015625)"/>
       <path id="DejaVuSans-73" d="M 2834 3397 
L 2834 2853 
Q 2591 2978 2328 3040 
Q 2066 3103 1784 3103 
Q 1356 3103 1142 2972 
Q 928 2841 928 2578 
Q 928 2378 1081 2264 
Q 1234 2150 1697 2047 
L 1894 2003 
Q 2506 1872 2764 1633 
Q 3022 1394 3022 966 
Q 3022 478 2636 193 
Q 2250 -91 1575 -91 
Q 1294 -91 989 -36 
Q 684 19 347 128 
L 347 722 
Q 666 556 975 473 
Q 1284 391 1588 391 
Q 1994 391 2212 530 
Q 2431 669 2431 922 
Q 2431 1156 2273 1281 
Q 2116 1406 1581 1522 
L 1381 1569 
Q 847 1681 609 1914 
Q 372 2147 372 2553 
Q 372 3047 722 3315 
Q 1072 3584 1716 3584 
Q 2034 3584 2315 3537 
Q 2597 3491 2834 3397 
z
" transform="scale(0.015625)"/>
       <path id="DejaVuSans-2f" d="M 1625 4666 
L 2156 4666 
L 531 -594 
L 0 -594 
L 1625 4666 
z
" transform="scale(0.015625)"/>
       <path id="DejaVuSans-64" d="M 2906 2969 
L 2906 4863 
L 3481 4863 
L 3481 0 
L 2906 0 
L 2906 525 
Q 2725 213 2448 61 
Q 2172 -91 1784 -91 
Q 1150 -91 751 415 
Q 353 922 353 1747 
Q 353 2572 751 3078 
Q 1150 3584 1784 3584 
Q 2172 3584 2448 3432 
Q 2725 3281 2906 2969 
z
M 947 1747 
Q 947 1113 1208 752 
Q 1469 391 1925 391 
Q 2381 391 2643 752 
Q 2906 1113 2906 1747 
Q 2906 2381 2643 2742 
Q 2381 3103 1925 3103 
Q 1469 3103 1208 2742 
Q 947 2381 947 1747 
z
" transform="scale(0.015625)"/>
       <path id="DejaVuSans-5f" d="M 3263 -1063 
L 3263 -1509 
L -63 -1509 
L -63 -1063 
L 3263 -1063 
z
" transform="scale(0.015625)"/>
       <path id="DejaVuSans-61" d="M 2194 1759 
Q 1497 1759 1228 1600 
Q 959 1441 959 1056 
Q 959 750 1161 570 
Q 1363 391 1709 391 
Q 2188 391 2477 730 
Q 2766 1069 2766 1631 
L 2766 1759 
L 2194 1759 
z
M 3341 1997 
L 3341 0 
L 2766 0 
L 2766 531 
Q 2569 213 2275 61 
Q 1981 -91 1556 -91 
Q 1019 -91 701 211 
Q 384 513 384 1019 
Q 384 1609 779 1909 
Q 1175 2209 1959 2209 
L 2766 2209 
L 2766 2266 
Q 2766 2663 2505 2880 
Q 2244 3097 1772 3097 
Q 1472 3097 1187 3025 
Q 903 2953 641 2809 
L 641 3341 
Q 956 3463 1253 3523 
Q 1550 3584 1831 3584 
Q 2591 3584 2966 3190 
Q 3341 2797 3341 1997 
z
" transform="scale(0.015625)"/>
       <path id="DejaVuSans-72" d="M 2631 2963 
Q 2534 3019 2420 3045 
Q 2306 3072 2169 3072 
Q 1681 3072 1420 2755 
Q 1159 2438 1159 1844 
L 1159 0 
L 581 0 
L 581 3500 
L 1159 3500 
L 1159 2956 
Q 1341 3275 1631 3429 
Q 1922 3584 2338 3584 
Q 2397 3584 2469 3576 
Q 2541 3569 2628 3553 
L 2631 2963 
z
" transform="scale(0.015625)"/>
       <path id="DejaVuSans-78" d="M 3513 3500 
L 2247 1797 
L 3578 0 
L 2900 0 
L 1881 1375 
L 863 0 
L 184 0 
L 1544 1831 
L 300 3500 
L 978 3500 
L 1906 2253 
L 2834 3500 
L 3513 3500 
z
" transform="scale(0.015625)"/>
       <path id="DejaVuSans-6b" d="M 581 4863 
L 1159 4863 
L 1159 1991 
L 2875 3500 
L 3609 3500 
L 1753 1863 
L 3688 0 
L 2938 0 
L 1159 1709 
L 1159 0 
L 581 0 
L 581 4863 
z
" transform="scale(0.015625)"/>
      </defs>
      <use xlink:href="#DejaVuSans-6c"/>
      <use xlink:href="#DejaVuSans-6f" transform="translate(27.783203 0)"/>
      <use xlink:href="#DejaVuSans-73" transform="translate(88.964844 0)"/>
      <use xlink:href="#DejaVuSans-73" transform="translate(141.064453 0)"/>
      <use xlink:href="#DejaVuSans-65" transform="translate(193.164062 0)"/>
      <use xlink:href="#DejaVuSans-73" transform="translate(254.6875 0)"/>
      <use xlink:href="#DejaVuSans-2f" transform="translate(306.787109 0)"/>
      <use xlink:href="#DejaVuSans-6f" transform="translate(340.478516 0)"/>
      <use xlink:href="#DejaVuSans-6c" transform="translate(401.660156 0)"/>
      <use xlink:href="#DejaVuSans-64" transform="translate(429.443359 0)"/>
      <use xlink:href="#DejaVuSans-5f" transform="translate(492.919922 0)"/>
      <use xlink:href="#DejaVuSans-61" transform="translate(542.919922 0)"/>
      <use xlink:href="#DejaVuSans-70" transform="translate(604.199219 0)"/>
      <use xlink:href="#DejaVuSans-70" transform="translate(667.675781 0)"/>
      <use xlink:href="#DejaVuSans-72" transform="translate(731.152344 0)"/>
      <use xlink:href="#DejaVuSans-6f" transform="translate(770.015625 0)"/>
      <use xlink:href="#DejaVuSans-78" transform="translate(828.072266 0)"/>
      <use xlink:href="#DejaVuSans-5f" transform="translate(887.251953 0)"/>
      <use xlink:href="#DejaVuSans-6b" transform="translate(937.251953 0)"/>
      <use xlink:href="#DejaVuSans-6c" transform="translate(995.162109 0)"/>
     </g>
    </g>
   </g>
   <g id="line2d_15">
    <path d="M 98.158466 264.43567 
L 103.983734 265.351825 
L 104.566261 265.272675 
L 110.39153 263.332732 
L 116.216798 262.437091 
L 117.381852 261.72125 
L 122.042067 258.594237 
L 122.624593 258.57596 
L 128.449862 264.603164 
L 132.52755 264.711088 
L 134.27513 264.74944 
L 134.857657 264.223828 
L 140.682926 254.988138 
L 146.508194 258.852925 
L 147.673248 260.650017 
L 152.333462 268.423602 
L 152.915989 268.582924 
L 158.741258 254.667147 
L 159.906311 254.30443 
L 164.566526 253.165877 
L 165.149053 252.467334 
L 170.391795 241.763375 
L 170.974322 240.887099 
L 176.79959 254.038101 
L 177.382117 254.169007 
L 182.624858 251.176741 
L 183.207385 251.116812 
L 189.032654 256.513516 
L 190.197707 255.052509 
L 194.857922 248.708738 
L 195.440449 248.571409 
L 201.265717 253.714937 
L 209.421093 254.964354 
L 212.916254 255.387599 
L 213.498781 255.592358 
L 219.32405 261.069995 
L 221.07163 261.473907 
L 225.149318 262.290634 
L 225.731845 262.931747 
L 231.557113 275.093885 
L 237.382382 256.630951 
L 237.964909 255.748631 
L 243.790177 252.059719 
L 249.615446 251.682309 
L 250.780499 253.302686 
L 255.440714 260.359059 
L 256.023241 260.681849 
L 261.848509 256.754157 
L 267.673778 263.941985 
L 268.256305 263.903686 
L 274.081573 258.939865 
L 279.906842 252.261014 
L 280.489368 253.600646 
L 285.73211 269.826789 
L 286.314637 270.434125 
L 292.139905 259.033773 
L 297.965174 250.525967 
L 298.547701 250.686767 
L 304.372969 259.098292 
L 316.023506 263.687381 
L 316.606033 263.4921 
L 322.431301 254.374352 
L 324.761409 255.782149 
L 328.25657 257.953549 
L 329.421623 258.279995 
L 334.081838 259.140744 
L 334.664365 259.121967 
L 340.489633 252.110164 
L 341.07216 252.326274 
L 346.314902 257.023135 
L 346.897429 257.06858 
L 352.722697 248.427583 
L 353.887751 250.101738 
L 358.547966 257.23737 
L 359.130492 257.869651 
L 364.955761 261.809183 
L 370.781029 258.478117 
L 371.363556 258.803144 
L 376.606298 264.04616 
L 377.188825 264.270052 
L 383.014093 258.618324 
L 384.179147 259.749662 
L 389.421888 265.232811 
L 395.247157 269.179612 
L 401.072425 262.784623 
L 401.654952 262.882062 
L 406.897694 266.773765 
L 407.480221 266.702813 
L 413.305489 253.129539 
L 413.888016 253.197323 
L 426.12108 258.77794 
L 431.363821 259.306909 
L 431.946348 258.402675 
L 437.18909 245.724673 
L 437.771617 245.086678 
L 443.596885 261.826904 
L 444.179412 261.861311 
L 449.422153 259.438278 
L 450.00468 259.461989 
L 455.829949 263.422885 
L 461.655217 253.813909 
L 462.237744 254.217817 
L 467.480486 265.222933 
L 468.063013 266.043062 
L 473.888281 259.863606 
L 474.470808 259.934011 
L 479.713549 261.997304 
L 480.296076 262.647747 
L 486.121345 275.307997 
L 491.946613 261.407175 
L 492.52914 260.903165 
L 498.354408 261.837883 
L 504.179677 258.178802 
L 504.762204 258.888491 
L 510.004945 267.98619 
L 510.587472 268.461947 
L 516.412741 264.301209 
L 522.238009 255.28055 
L 522.820536 255.325855 
L 528.063278 262.375862 
L 528.645804 262.96841 
L 534.471073 258.591415 
L 535.0536 258.772464 
L 540.296341 262.258155 
L 540.878868 262.42577 
L 546.704137 259.907931 
L 549.034244 260.940124 
L 552.529405 262.536968 
L 553.111932 262.234006 
L 558.354673 254.987995 
L 558.9372 254.441212 
L 564.762469 267.056398 
L 565.344996 267.180644 
L 571.170264 264.069149 
L 576.995533 263.941437 
L 581.07322 265.262911 
L 583.985855 266.12555 
L 589.228596 267.186569 
L 595.053865 258.555427 
L 595.636392 258.508831 
L 600.879133 261.429773 
L 601.46166 261.894631 
L 607.286928 270.128863 
L 607.869455 269.837535 
L 613.112197 265.782328 
L 613.694724 265.576843 
L 619.519992 266.350075 
L 625.345261 275.130304 
L 625.927788 275.19972 
L 631.753056 271.586472 
L 637.578324 265.170995 
L 638.160851 265.499952 
L 643.403593 270.07807 
L 643.98612 270.300022 
L 649.811388 268.853509 
L 655.636657 273.937622 
L 656.219183 273.994125 
L 662.044452 271.95839 
L 667.86972 274.871863 
L 669.034774 274.721408 
L 673.694989 273.816217 
L 674.277516 273.832396 
L 680.102784 275.884355 
L 680.102784 275.884355 
" clip-path="url(#pf461fa36e3)" style="fill: none; stroke: #00008b; stroke-width: 1.5; stroke-linecap: square"/>
   </g>
   <g id="patch_3">
    <path d="M 69.06125 390.04 
L 69.06125 25.44 
" style="fill: none; stroke: #000000; stroke-width: 0.8; stroke-linejoin: miter; stroke-linecap: square"/>
   </g>
   <g id="patch_4">
    <path d="M 709.2 390.04 
L 709.2 25.44 
" style="fill: none; stroke: #000000; stroke-width: 0.8; stroke-linejoin: miter; stroke-linecap: square"/>
   </g>
   <g id="patch_5">
    <path d="M 69.06125 390.04 
L 709.2 390.04 
" style="fill: none; stroke: #000000; stroke-width: 0.8; stroke-linejoin: miter; stroke-linecap: square"/>
   </g>
   <g id="patch_6">
    <path d="M 69.06125 25.44 
L 709.2 25.44 
" style="fill: none; stroke: #000000; stroke-width: 0.8; stroke-linejoin: miter; stroke-linecap: square"/>
   </g>
   <g id="text_17">
    <!-- losses/old_approx_kl for ppo_atari (aggregated via interpolation over runs) -->
    <g transform="translate(164.91625 19.44) scale(0.12 -0.12)">
     <defs>
      <path id="DejaVuSans-20" transform="scale(0.015625)"/>
      <path id="DejaVuSans-66" d="M 2375 4863 
L 2375 4384 
L 1825 4384 
Q 1516 4384 1395 4259 
Q 1275 4134 1275 3809 
L 1275 3500 
L 2222 3500 
L 2222 3053 
L 1275 3053 
L 1275 0 
L 697 0 
L 697 3053 
L 147 3053 
L 147 3500 
L 697 3500 
L 697 3744 
Q 697 4328 969 4595 
Q 1241 4863 1831 4863 
L 2375 4863 
z
" transform="scale(0.015625)"/>
      <path id="DejaVuSans-69" d="M 603 3500 
L 1178 3500 
L 1178 0 
L 603 0 
L 603 3500 
z
M 603 4863 
L 1178 4863 
L 1178 4134 
L 603 4134 
L 603 4863 
z
" transform="scale(0.015625)"/>
      <path id="DejaVuSans-28" d="M 1984 4856 
Q 1566 4138 1362 3434 
Q 1159 2731 1159 2009 
Q 1159 1288 1364 580 
Q 1569 -128 1984 -844 
L 1484 -844 
Q 1016 -109 783 600 
Q 550 1309 550 2009 
Q 550 2706 781 3412 
Q 1013 4119 1484 4856 
L 1984 4856 
z
" transform="scale(0.015625)"/>
      <path id="DejaVuSans-67" d="M 2906 1791 
Q 2906 2416 2648 2759 
Q 2391 3103 1925 3103 
Q 1463 3103 1205 2759 
Q 947 2416 947 1791 
Q 947 1169 1205 825 
Q 1463 481 1925 481 
Q 2391 481 2648 825 
Q 2906 1169 2906 1791 
z
M 3481 434 
Q 3481 -459 3084 -895 
Q 2688 -1331 1869 -1331 
Q 1566 -1331 1297 -1286 
Q 1028 -1241 775 -1147 
L 775 -588 
Q 1028 -725 1275 -790 
Q 1522 -856 1778 -856 
Q 2344 -856 2625 -561 
Q 2906 -266 2906 331 
L 2906 616 
Q 2728 306 2450 153 
Q 2172 0 1784 0 
Q 1141 0 747 490 
Q 353 981 353 1791 
Q 353 2603 747 3093 
Q 1141 3584 1784 3584 
Q 2172 3584 2450 3431 
Q 2728 3278 2906 2969 
L 2906 3500 
L 3481 3500 
L 3481 434 
z
" transform="scale(0.015625)"/>
      <path id="DejaVuSans-76" d="M 191 3500 
L 800 3500 
L 1894 563 
L 2988 3500 
L 3597 3500 
L 2284 0 
L 1503 0 
L 191 3500 
z
" transform="scale(0.015625)"/>
      <path id="DejaVuSans-6e" d="M 3513 2113 
L 3513 0 
L 2938 0 
L 2938 2094 
Q 2938 2591 2744 2837 
Q 2550 3084 2163 3084 
Q 1697 3084 1428 2787 
Q 1159 2491 1159 1978 
L 1159 0 
L 581 0 
L 581 3500 
L 1159 3500 
L 1159 2956 
Q 1366 3272 1645 3428 
Q 1925 3584 2291 3584 
Q 2894 3584 3203 3211 
Q 3513 2838 3513 2113 
z
" transform="scale(0.015625)"/>
      <path id="DejaVuSans-75" d="M 544 1381 
L 544 3500 
L 1119 3500 
L 1119 1403 
Q 1119 906 1312 657 
Q 1506 409 1894 409 
Q 2359 409 2629 706 
Q 2900 1003 2900 1516 
L 2900 3500 
L 3475 3500 
L 3475 0 
L 2900 0 
L 2900 538 
Q 2691 219 2414 64 
Q 2138 -91 1772 -91 
Q 1169 -91 856 284 
Q 544 659 544 1381 
z
M 1991 3584 
L 1991 3584 
z
" transform="scale(0.015625)"/>
      <path id="DejaVuSans-29" d="M 513 4856 
L 1013 4856 
Q 1481 4119 1714 3412 
Q 1947 2706 1947 2009 
Q 1947 1309 1714 600 
Q 1481 -109 1013 -844 
L 513 -844 
Q 928 -128 1133 580 
Q 1338 1288 1338 2009 
Q 1338 2731 1133 3434 
Q 928 4138 513 4856 
z
" transform="scale(0.015625)"/>
     </defs>
     <use xlink:href="#DejaVuSans-6c"/>
     <use xlink:href="#DejaVuSans-6f" transform="translate(27.783203 0)"/>
     <use xlink:href="#DejaVuSans-73" transform="translate(88.964844 0)"/>
     <use xlink:href="#DejaVuSans-73" transform="translate(141.064453 0)"/>
     <use xlink:href="#DejaVuSans-65" transform="translate(193.164062 0)"/>
     <use xlink:href="#DejaVuSans-73" transform="translate(254.6875 0)"/>
     <use xlink:href="#DejaVuSans-2f" transform="translate(306.787109 0)"/>
     <use xlink:href="#DejaVuSans-6f" transform="translate(340.478516 0)"/>
     <use xlink:href="#DejaVuSans-6c" transform="translate(401.660156 0)"/>
     <use xlink:href="#DejaVuSans-64" transform="translate(429.443359 0)"/>
     <use xlink:href="#DejaVuSans-5f" transform="translate(492.919922 0)"/>
     <use xlink:href="#DejaVuSans-61" transform="translate(542.919922 0)"/>
     <use xlink:href="#DejaVuSans-70" transform="translate(604.199219 0)"/>
     <use xlink:href="#DejaVuSans-70" transform="translate(667.675781 0)"/>
     <use xlink:href="#DejaVuSans-72" transform="translate(731.152344 0)"/>
     <use xlink:href="#DejaVuSans-6f" transform="translate(770.015625 0)"/>
     <use xlink:href="#DejaVuSans-78" transform="translate(828.072266 0)"/>
     <use xlink:href="#DejaVuSans-5f" transform="translate(887.251953 0)"/>
     <use xlink:href="#DejaVuSans-6b" transform="translate(937.251953 0)"/>
     <use xlink:href="#DejaVuSans-6c" transform="translate(995.162109 0)"/>
     <use xlink:href="#DejaVuSans-20" transform="translate(1022.945312 0)"/>
     <use xlink:href="#DejaVuSans-66" transform="translate(1054.732422 0)"/>
     <use xlink:href="#DejaVuSans-6f" transform="translate(1089.9375 0)"/>
     <use xlink:href="#DejaVuSans-72" transform="translate(1151.119141 0)"/>
     <use xlink:href="#DejaVuSans-20" transform="translate(1192.232422 0)"/>
     <use xlink:href="#DejaVuSans-70" transform="translate(1224.019531 0)"/>
     <use xlink:href="#DejaVuSans-70" transform="translate(1287.496094 0)"/>
     <use xlink:href="#DejaVuSans-6f" transform="translate(1350.972656 0)"/>
     <use xlink:href="#DejaVuSans-5f" transform="translate(1412.154297 0)"/>
     <use xlink:href="#DejaVuSans-61" transform="translate(1462.154297 0)"/>
     <use xlink:href="#DejaVuSans-74" transform="translate(1523.433594 0)"/>
     <use xlink:href="#DejaVuSans-61" transform="translate(1562.642578 0)"/>
     <use xlink:href="#DejaVuSans-72" transform="translate(1623.921875 0)"/>
     <use xlink:href="#DejaVuSans-69" transform="translate(1665.035156 0)"/>
     <use xlink:href="#DejaVuSans-20" transform="translate(1692.818359 0)"/>
     <use xlink:href="#DejaVuSans-28" transform="translate(1724.605469 0)"/>
     <use xlink:href="#DejaVuSans-61" transform="translate(1763.619141 0)"/>
     <use xlink:href="#DejaVuSans-67" transform="translate(1824.898438 0)"/>
     <use xlink:href="#DejaVuSans-67" transform="translate(1888.375 0)"/>
     <use xlink:href="#DejaVuSans-72" transform="translate(1951.851562 0)"/>
     <use xlink:href="#DejaVuSans-65" transform="translate(1990.714844 0)"/>
     <use xlink:href="#DejaVuSans-67" transform="translate(2052.238281 0)"/>
     <use xlink:href="#DejaVuSans-61" transform="translate(2115.714844 0)"/>
     <use xlink:href="#DejaVuSans-74" transform="translate(2176.994141 0)"/>
     <use xlink:href="#DejaVuSans-65" transform="translate(2216.203125 0)"/>
     <use xlink:href="#DejaVuSans-64" transform="translate(2277.726562 0)"/>
     <use xlink:href="#DejaVuSans-20" transform="translate(2341.203125 0)"/>
     <use xlink:href="#DejaVuSans-76" transform="translate(2372.990234 0)"/>
     <use xlink:href="#DejaVuSans-69" transform="translate(2432.169922 0)"/>
     <use xlink:href="#DejaVuSans-61" transform="translate(2459.953125 0)"/>
     <use xlink:href="#DejaVuSans-20" transform="translate(2521.232422 0)"/>
     <use xlink:href="#DejaVuSans-69" transform="translate(2553.019531 0)"/>
     <use xlink:href="#DejaVuSans-6e" transform="translate(2580.802734 0)"/>
     <use xlink:href="#DejaVuSans-74" transform="translate(2644.181641 0)"/>
     <use xlink:href="#DejaVuSans-65" transform="translate(2683.390625 0)"/>
     <use xlink:href="#DejaVuSans-72" transform="translate(2744.914062 0)"/>
     <use xlink:href="#DejaVuSans-70" transform="translate(2786.027344 0)"/>
     <use xlink:href="#DejaVuSans-6f" transform="translate(2849.503906 0)"/>
     <use xlink:href="#DejaVuSans-6c" transform="translate(2910.685547 0)"/>
     <use xlink:href="#DejaVuSans-61" transform="translate(2938.46875 0)"/>
     <use xlink:href="#DejaVuSans-74" transform="translate(2999.748047 0)"/>
     <use xlink:href="#DejaVuSans-69" transform="translate(3038.957031 0)"/>
     <use xlink:href="#DejaVuSans-6f" transform="translate(3066.740234 0)"/>
     <use xlink:href="#DejaVuSans-6e" transform="translate(3127.921875 0)"/>
     <use xlink:href="#DejaVuSans-20" transform="translate(3191.300781 0)"/>
     <use xlink:href="#DejaVuSans-6f" transform="translate(3223.087891 0)"/>
     <use xlink:href="#DejaVuSans-76" transform="translate(3284.269531 0)"/>
     <use xlink:href="#DejaVuSans-65" transform="translate(3343.449219 0)"/>
     <use xlink:href="#DejaVuSans-72" transform="translate(3404.972656 0)"/>
     <use xlink:href="#DejaVuSans-20" transform="translate(3446.085938 0)"/>
     <use xlink:href="#DejaVuSans-72" transform="translate(3477.873047 0)"/>
     <use xlink:href="#DejaVuSans-75" transform="translate(3518.986328 0)"/>
     <use xlink:href="#DejaVuSans-6e" transform="translate(3582.365234 0)"/>
     <use xlink:href="#DejaVuSans-73" transform="translate(3645.744141 0)"/>
     <use xlink:href="#DejaVuSans-29" transform="translate(3697.84375 0)"/>
    </g>
   </g>
   <g id="legend_1">
    <g id="patch_7">
     <path d="M 626.78125 62.79625 
L 702.2 62.79625 
Q 704.2 62.79625 704.2 60.79625 
L 704.2 32.44 
Q 704.2 30.44 702.2 30.44 
L 626.78125 30.44 
Q 624.78125 30.44 624.78125 32.44 
L 624.78125 60.79625 
Q 624.78125 62.79625 626.78125 62.79625 
z
" style="fill: #ffffff; opacity: 0.8; stroke: #cccccc; stroke-linejoin: miter"/>
    </g>
    <g id="line2d_16">
     <path d="M 628.78125 38.538437 
L 638.78125 38.538437 
L 648.78125 38.538437 
" style="fill: none; stroke: #00008b; stroke-width: 1.5; stroke-linecap: square"/>
    </g>
    <g id="text_18">
     <!-- Mean -->
     <g transform="translate(656.78125 42.038437) scale(0.1 -0.1)">
      <defs>
       <path id="DejaVuSans-4d" d="M 628 4666 
L 1569 4666 
L 2759 1491 
L 3956 4666 
L 4897 4666 
L 4897 0 
L 4281 0 
L 4281 4097 
L 3078 897 
L 2444 897 
L 1241 4097 
L 1241 0 
L 628 0 
L 628 4666 
z
" transform="scale(0.015625)"/>
      </defs>
      <use xlink:href="#DejaVuSans-4d"/>
      <use xlink:href="#DejaVuSans-65" transform="translate(86.279297 0)"/>
      <use xlink:href="#DejaVuSans-61" transform="translate(147.802734 0)"/>
      <use xlink:href="#DejaVuSans-6e" transform="translate(209.082031 0)"/>
     </g>
    </g>
    <g id="patch_8">
     <path d="M 628.78125 56.716563 
L 648.78125 56.716563 
L 648.78125 49.716563 
L 628.78125 49.716563 
z
" style="fill: #00008b; fill-opacity: 0.3; stroke: #00008b; stroke-opacity: 0.3; stroke-linejoin: miter"/>
    </g>
    <g id="text_19">
     <!-- MinMax -->
     <g transform="translate(656.78125 56.716563) scale(0.1 -0.1)">
      <defs>
       <path id="DejaVuSans-2013" d="M 313 1978 
L 2888 1978 
L 2888 1528 
L 313 1528 
L 313 1978 
z
" transform="scale(0.015625)"/>
      </defs>
      <use xlink:href="#DejaVuSans-4d"/>
      <use xlink:href="#DejaVuSans-69" transform="translate(86.279297 0)"/>
      <use xlink:href="#DejaVuSans-6e" transform="translate(114.0625 0)"/>
      <use xlink:href="#DejaVuSans-2013" transform="translate(177.441406 0)"/>
      <use xlink:href="#DejaVuSans-4d" transform="translate(227.441406 0)"/>
      <use xlink:href="#DejaVuSans-61" transform="translate(313.720703 0)"/>
      <use xlink:href="#DejaVuSans-78" transform="translate(375 0)"/>
     </g>
    </g>
   </g>
  </g>
 </g>
 <defs>
  <clipPath id="pf461fa36e3">
   <rect x="69.06125" y="25.44" width="640.13875" height="364.6"/>
  </clipPath>
 </defs>
</svg>
