<?xml version="1.0" encoding="utf-8" standalone="no"?>
<!DOCTYPE svg PUBLIC "-//W3C//DTD SVG 1.1//EN"
  "http://www.w3.org/Graphics/SVG/1.1/DTD/svg11.dtd">
<svg xmlns:xlink="http://www.w3.org/1999/xlink" width="720pt" height="432pt" viewBox="0 0 720 432" xmlns="http://www.w3.org/2000/svg" version="1.1">
 <metadata>
  <rdf:RDF xmlns:dc="http://purl.org/dc/elements/1.1/" xmlns:cc="http://creativecommons.org/ns#" xmlns:rdf="http://www.w3.org/1999/02/22-rdf-syntax-ns#">
   <cc:Work>
    <dc:type rdf:resource="http://purl.org/dc/dcmitype/StillImage"/>
    <dc:date>2025-02-05T20:32:13.309973</dc:date>
    <dc:format>image/svg+xml</dc:format>
    <dc:creator>
     <cc:Agent>
      <dc:title>Matplotlib v3.10.0, https://matplotlib.org/</dc:title>
     </cc:Agent>
    </dc:creator>
   </cc:Work>
  </rdf:RDF>
 </metadata>
 <defs>
  <style type="text/css">*{stroke-linejoin: round; stroke-linecap: butt}</style>
 </defs>
 <g id="figure_1">
  <g id="patch_1">
   <path d="M 0 432 
L 720 432 
L 720 0 
L 0 0 
z
" style="fill: #ffffff"/>
  </g>
  <g id="axes_1">
   <g id="patch_2">
    <path d="M 47.81 390.04 
L 709.2 390.04 
L 709.2 25.44 
L 47.81 25.44 
z
" style="fill: #ffffff"/>
   </g>
   <g id="FillBetweenPolyCollection_1">
    <defs>
     <path id="m66e05168bf" d="M 77.873182 -389.987273 
L 77.873182 -173.743698 
L 78.475047 -173.759956 
L 79.076913 -173.718198 
L 79.678778 -173.642498 
L 80.280644 -173.566798 
L 80.882509 -173.491099 
L 81.484375 -173.415399 
L 82.08624 -173.339699 
L 82.688106 -173.264 
L 83.289971 -173.1883 
L 83.891837 -173.1126 
L 84.493702 -173.032561 
L 85.095568 -172.949552 
L 85.697433 -172.866543 
L 86.299299 -172.783535 
L 86.901164 -172.700526 
L 87.50303 -172.617517 
L 88.104895 -172.534509 
L 88.706761 -172.4515 
L 89.308626 -172.368491 
L 89.910492 -172.285483 
L 90.512357 -172.238643 
L 91.114223 -172.348533 
L 91.716088 -172.458424 
L 92.317954 -172.568315 
L 92.919819 -172.678206 
L 93.521685 -172.788097 
L 94.12355 -172.897988 
L 94.725416 -173.007878 
L 95.327281 -173.117769 
L 95.929147 -173.22766 
L 96.531012 -173.337551 
L 97.132878 -173.310658 
L 97.734743 -173.245464 
L 98.336609 -173.180271 
L 98.938474 -173.115078 
L 99.54034 -173.049885 
L 100.142205 -172.984692 
L 100.744071 -172.919499 
L 101.345936 -172.854306 
L 101.947802 -172.789113 
L 102.549667 -172.72392 
L 103.151533 -172.652281 
L 103.753398 -172.569901 
L 104.355264 -172.48752 
L 104.957129 -172.40514 
L 105.558995 -172.322759 
L 106.16086 -172.240379 
L 106.762726 -172.157998 
L 107.364591 -172.075618 
L 107.966457 -171.993237 
L 108.568322 -171.910857 
L 109.170188 -171.828476 
L 109.772053 -171.904144 
L 110.373919 -171.984911 
L 110.975784 -172.065677 
L 111.57765 -172.06153 
L 112.179515 -172.011452 
L 112.781381 -171.961374 
L 113.383246 -171.911296 
L 113.985112 -171.861218 
L 114.586977 -171.81114 
L 115.188843 -171.761062 
L 115.790708 -171.686326 
L 116.392574 -171.592412 
L 116.994439 -171.498498 
L 117.596305 -171.404583 
L 118.19817 -171.310669 
L 118.800036 -171.216755 
L 119.401901 -171.122841 
L 120.003767 -171.028926 
L 120.605632 -170.935012 
L 121.207498 -170.841098 
L 121.809363 -170.71399 
L 122.411229 -170.407636 
L 123.013094 -170.101282 
L 123.61496 -169.794929 
L 124.216825 -169.488575 
L 124.818691 -169.182221 
L 125.420556 -168.875867 
L 126.022422 -168.569513 
L 126.624287 -168.26316 
L 127.226153 -167.956806 
L 127.828018 -167.650452 
L 128.429884 -167.745396 
L 129.031749 -167.974107 
L 129.633615 -168.202817 
L 130.23548 -168.431527 
L 130.837346 -168.660237 
L 131.439211 -168.888947 
L 132.041077 -169.117657 
L 132.642942 -169.346368 
L 133.244808 -169.575078 
L 133.846673 -169.803788 
L 134.448539 -169.937127 
L 135.050404 -169.888392 
L 135.65227 -169.839657 
L 136.254135 -169.790923 
L 136.856001 -169.742188 
L 137.457867 -169.693453 
L 138.059732 -169.644719 
L 138.661598 -169.595984 
L 139.263463 -169.547249 
L 139.865329 -169.498514 
L 140.467194 -169.44978 
L 141.06906 -169.492729 
L 141.670925 -169.541791 
L 142.272791 -169.590853 
L 142.874656 -169.639915 
L 143.476522 -169.688977 
L 144.078387 -169.738039 
L 144.680253 -169.787101 
L 145.282118 -169.836163 
L 145.883984 -169.885224 
L 146.485849 -169.934286 
L 147.087715 -169.907276 
L 147.68958 -169.813144 
L 148.291446 -169.719012 
L 148.893311 -169.624879 
L 149.495177 -169.530747 
L 150.097042 -169.436614 
L 150.698908 -169.342482 
L 151.300773 -169.24835 
L 151.902639 -169.154217 
L 152.504504 -169.060085 
L 153.10637 -168.965715 
L 153.708235 -168.869683 
L 154.310101 -168.773651 
L 154.911966 -168.677619 
L 155.513832 -168.581586 
L 156.115697 -168.485554 
L 156.717563 -168.389522 
L 157.319428 -168.29349 
L 157.921294 -168.197458 
L 158.523159 -168.101426 
L 159.125025 -168.005394 
L 159.72689 -167.979708 
L 160.328756 -167.98155 
L 160.930621 -167.983392 
L 161.532487 -167.985234 
L 162.134352 -167.987075 
L 162.736218 -167.988917 
L 163.338083 -167.990759 
L 163.939949 -167.992601 
L 164.541814 -167.994442 
L 165.14368 -167.996284 
L 165.745545 -167.951248 
L 166.347411 -167.803079 
L 166.949276 -167.65491 
L 167.551142 -167.506742 
L 168.153007 -167.358573 
L 168.754873 -167.210404 
L 169.356738 -167.062236 
L 169.958604 -166.914067 
L 170.560469 -166.765898 
L 171.162335 -166.61773 
L 171.7642 -166.469561 
L 172.366066 -166.594489 
L 172.967931 -166.747667 
L 173.569797 -166.900846 
L 174.171662 -167.054025 
L 174.773528 -167.207204 
L 175.375393 -167.360383 
L 175.977259 -167.513562 
L 176.579124 -167.666741 
L 177.18099 -167.81992 
L 177.782855 -167.973099 
L 178.384721 -167.977269 
L 178.986586 -167.832431 
L 179.588452 -167.687592 
L 180.190317 -167.542754 
L 180.792183 -167.397915 
L 181.394048 -167.253076 
L 181.995914 -167.108238 
L 182.597779 -166.963399 
L 183.199645 -166.818561 
L 183.80151 -166.673722 
L 184.403376 -166.515481 
L 185.005241 -166.227681 
L 185.607107 -165.939882 
L 186.208972 -165.652082 
L 186.810838 -165.364282 
L 187.412703 -165.076483 
L 188.014569 -164.788683 
L 188.616434 -164.500884 
L 189.2183 -164.213084 
L 189.820165 -163.925285 
L 190.422031 -163.637485 
L 191.023896 -163.653276 
L 191.625762 -163.807062 
L 192.227627 -163.960849 
L 192.829493 -164.114635 
L 193.431358 -164.268422 
L 194.033224 -164.422208 
L 194.635089 -164.575995 
L 195.236955 -164.729781 
L 195.83882 -164.883567 
L 196.440686 -165.037354 
L 197.042551 -165.147352 
L 197.644417 -165.145447 
L 198.246282 -165.143541 
L 198.848148 -165.141636 
L 199.450013 -165.139731 
L 200.051879 -165.137826 
L 200.653744 -165.13592 
L 201.25561 -165.134015 
L 201.857475 -165.13211 
L 202.459341 -165.130205 
L 203.061206 -165.128299 
L 203.663072 -164.989557 
L 204.264937 -164.831267 
L 204.866803 -164.672977 
L 205.468668 -164.514687 
L 206.070534 -164.356397 
L 206.672399 -164.198107 
L 207.274265 -164.039817 
L 207.87613 -163.881527 
L 208.477996 -163.723237 
L 209.079861 -163.564947 
L 209.681727 -163.325886 
L 210.283592 -162.995284 
L 210.885458 -162.664683 
L 211.487323 -162.334081 
L 212.089189 -162.003479 
L 212.691054 -161.672878 
L 213.29292 -161.342276 
L 213.894785 -161.011674 
L 214.496651 -160.681072 
L 215.098516 -160.350471 
L 215.700382 -160.028277 
L 216.302247 -159.832201 
L 216.904113 -159.636124 
L 217.505978 -159.440048 
L 218.107844 -159.243971 
L 218.709709 -159.047895 
L 219.311575 -158.851819 
L 219.91344 -158.655742 
L 220.515306 -158.459666 
L 221.117171 -158.26359 
L 221.719037 -158.067513 
L 222.320902 -157.590615 
L 222.922768 -156.966619 
L 223.524633 -156.342624 
L 224.126499 -155.718628 
L 224.728364 -155.094633 
L 225.33023 -154.470637 
L 225.932095 -153.846642 
L 226.533961 -153.222646 
L 227.135826 -152.598651 
L 227.737692 -151.974655 
L 228.339557 -151.514512 
L 228.941423 -151.545925 
L 229.543288 -151.577338 
L 230.145154 -151.608752 
L 230.747019 -151.640165 
L 231.348885 -151.671579 
L 231.95075 -151.702992 
L 232.552616 -151.734405 
L 233.154481 -151.765819 
L 233.756347 -151.797232 
L 234.358212 -151.828645 
L 234.960078 -151.333879 
L 235.561943 -150.741673 
L 236.163809 -150.149466 
L 236.765674 -149.557259 
L 237.36754 -148.965053 
L 237.969405 -148.372846 
L 238.571271 -147.780639 
L 239.173136 -147.188433 
L 239.775002 -146.596226 
L 240.376867 -146.004019 
L 240.978733 -145.514082 
L 241.580598 -145.155633 
L 242.182464 -144.797184 
L 242.784329 -144.438735 
L 243.386195 -144.080286 
L 243.98806 -143.721837 
L 244.589926 -143.363388 
L 245.191791 -143.004939 
L 245.793657 -142.646491 
L 246.395522 -142.288042 
L 246.997388 -141.940004 
L 247.599253 -141.914712 
L 248.201119 -141.889421 
L 248.802984 -141.864129 
L 249.40485 -141.838837 
L 250.006715 -141.813546 
L 250.608581 -141.788254 
L 251.210446 -141.762962 
L 251.812312 -141.737671 
L 252.414177 -141.712379 
L 253.016043 -141.687087 
L 253.617908 -141.441311 
L 254.219774 -141.063245 
L 254.821639 -140.685179 
L 255.423505 -140.307113 
L 256.02537 -139.929047 
L 256.627236 -139.55098 
L 257.229101 -139.172914 
L 257.830967 -138.794848 
L 258.432832 -138.416782 
L 259.034698 -138.038716 
L 259.636563 -137.704749 
L 260.238429 -137.528281 
L 260.840294 -137.351813 
L 261.44216 -137.175345 
L 262.044025 -136.998877 
L 262.645891 -136.822409 
L 263.247756 -136.645941 
L 263.849622 -136.469473 
L 264.451487 -136.293005 
L 265.053353 -136.116537 
L 265.655218 -135.940069 
L 266.257084 -135.197098 
L 266.858949 -134.323396 
L 267.460815 -133.449693 
L 268.06268 -132.575991 
L 268.664546 -131.702289 
L 269.266411 -130.828587 
L 269.868277 -129.954884 
L 270.470142 -129.081182 
L 271.072008 -128.20748 
L 271.673873 -127.333777 
L 272.275739 -126.989403 
L 272.877604 -127.418663 
L 273.47947 -127.847923 
L 274.081335 -128.277183 
L 274.683201 -128.706443 
L 275.285066 -129.135702 
L 275.886932 -129.564962 
L 276.488797 -129.994222 
L 277.090663 -130.423482 
L 277.692528 -130.852741 
L 278.294394 -131.282001 
L 278.896259 -131.151872 
L 279.498125 -131.021742 
L 280.09999 -130.891613 
L 280.701856 -130.761483 
L 281.303721 -130.631354 
L 281.905587 -130.501225 
L 282.507452 -130.371095 
L 283.109318 -130.240966 
L 283.711183 -130.110836 
L 284.313049 -129.980707 
L 284.914914 -129.570883 
L 285.51678 -128.96969 
L 286.118645 -128.368497 
L 286.720511 -127.767304 
L 287.322376 -127.166111 
L 287.924242 -126.564918 
L 288.526107 -125.963725 
L 289.127973 -125.362531 
L 289.729838 -124.761338 
L 290.331704 -124.160145 
L 290.933569 -123.667725 
L 291.535435 -123.646656 
L 292.1373 -123.625587 
L 292.739166 -123.604518 
L 293.341031 -123.583449 
L 293.942897 -123.56238 
L 294.544762 -123.541311 
L 295.146628 -123.520242 
L 295.748493 -123.499173 
L 296.350359 -123.478104 
L 296.952224 -123.457035 
L 297.55409 -123.120853 
L 298.155956 -122.696439 
L 298.757821 -122.272025 
L 299.359687 -121.847612 
L 299.961552 -121.423198 
L 300.563418 -120.998784 
L 301.165283 -120.57437 
L 301.767149 -120.149956 
L 302.369014 -119.725543 
L 302.97088 -119.301129 
L 303.572745 -118.891419 
L 304.174611 -118.506215 
L 304.776476 -118.121011 
L 305.378342 -117.735807 
L 305.980207 -117.350603 
L 306.582073 -116.965399 
L 307.183938 -116.580195 
L 307.785804 -116.19499 
L 308.387669 -115.809786 
L 308.989535 -115.424582 
L 309.5914 -115.039378 
L 310.193266 -114.775565 
L 310.795131 -114.515668 
L 311.396997 -114.255771 
L 311.998862 -113.995874 
L 312.600728 -113.735977 
L 313.202593 -113.47608 
L 313.804459 -113.216183 
L 314.406324 -112.956286 
L 315.00819 -112.696388 
L 315.610055 -112.436491 
L 316.211921 -112.437045 
L 316.813786 -112.64017 
L 317.415652 -112.843296 
L 318.017517 -113.046422 
L 318.619383 -113.249548 
L 319.221248 -113.452674 
L 319.823114 -113.6558 
L 320.424979 -113.858925 
L 321.026845 -114.062051 
L 321.62871 -114.265177 
L 322.230576 -114.471893 
L 322.832441 -114.697999 
L 323.434307 -114.924105 
L 324.036172 -115.15021 
L 324.638038 -115.376316 
L 325.239903 -115.602422 
L 325.841769 -115.828527 
L 326.443634 -116.054633 
L 327.0455 -116.280739 
L 327.647365 -116.506844 
L 328.249231 -116.73295 
L 328.851096 -116.286414 
L 329.452962 -115.615664 
L 330.054827 -114.944915 
L 330.656693 -114.274165 
L 331.258558 -113.603415 
L 331.860424 -112.932665 
L 332.462289 -112.261916 
L 333.064155 -111.591166 
L 333.66602 -110.920416 
L 334.267886 -110.249666 
L 334.869751 -109.857496 
L 335.471617 -109.997157 
L 336.073482 -110.136818 
L 336.675348 -110.276479 
L 337.277213 -110.416141 
L 337.879079 -110.555802 
L 338.480944 -110.695463 
L 339.08281 -110.835124 
L 339.684675 -110.974786 
L 340.286541 -111.114447 
L 340.888406 -111.254108 
L 341.490272 -111.269332 
L 342.092137 -111.27626 
L 342.694003 -111.283188 
L 343.295868 -111.290116 
L 343.897734 -111.297044 
L 344.499599 -111.303972 
L 345.101465 -111.3109 
L 345.70333 -111.317828 
L 346.305196 -111.324756 
L 346.907061 -111.331684 
L 347.508927 -111.465358 
L 348.110792 -111.710868 
L 348.712658 -111.956378 
L 349.314523 -112.201887 
L 349.916389 -112.447397 
L 350.518254 -112.692906 
L 351.12012 -112.938416 
L 351.721985 -113.183926 
L 352.323851 -113.429435 
L 352.925716 -113.674945 
L 353.527582 -113.886923 
L 354.129447 -113.864178 
L 354.731313 -113.841434 
L 355.333178 -113.81869 
L 355.935044 -113.795945 
L 356.536909 -113.773201 
L 357.138775 -113.750456 
L 357.74064 -113.727712 
L 358.342506 -113.704968 
L 358.944371 -113.682223 
L 359.546237 -113.659479 
L 360.148102 -113.273326 
L 360.749968 -112.744971 
L 361.351833 -112.216615 
L 361.953699 -111.68826 
L 362.555564 -111.159904 
L 363.15743 -110.631549 
L 363.759295 -110.103193 
L 364.361161 -109.574838 
L 364.963026 -109.046482 
L 365.564892 -108.518127 
L 366.166757 -108.122778 
L 366.768623 -108.020046 
L 367.370488 -107.917314 
L 367.972354 -107.814581 
L 368.574219 -107.711849 
L 369.176085 -107.609117 
L 369.77795 -107.506385 
L 370.379816 -107.403652 
L 370.981681 -107.30092 
L 371.583547 -107.198188 
L 372.185412 -107.095455 
L 372.787278 -106.861675 
L 373.389143 -106.614337 
L 373.991009 -106.366999 
L 374.592874 -106.119662 
L 375.19474 -105.872324 
L 375.796605 -105.624987 
L 376.398471 -105.377649 
L 377.000336 -105.130311 
L 377.602202 -104.882974 
L 378.204067 -104.635636 
L 378.805933 -104.463732 
L 379.407798 -104.367262 
L 380.009664 -104.270791 
L 380.611529 -104.174321 
L 381.213395 -104.07785 
L 381.81526 -103.98138 
L 382.417126 -103.884909 
L 383.018991 -103.788439 
L 383.620857 -103.691968 
L 384.222722 -103.595498 
L 384.824588 -103.494553 
L 385.426453 -103.350351 
L 386.028319 -103.20615 
L 386.630184 -103.061948 
L 387.23205 -102.917747 
L 387.833915 -102.773545 
L 388.435781 -102.629344 
L 389.037646 -102.485143 
L 389.639512 -102.340941 
L 390.241377 -102.19674 
L 390.843243 -102.052538 
L 391.445108 -101.934518 
L 392.046974 -101.828399 
L 392.648839 -101.722281 
L 393.250705 -101.616162 
L 393.85257 -101.510043 
L 394.454436 -101.403924 
L 395.056301 -101.297805 
L 395.658167 -101.191686 
L 396.260032 -101.085567 
L 396.861898 -100.979448 
L 397.463763 -101.032809 
L 398.065629 -101.49373 
L 398.667494 -101.954651 
L 399.26936 -102.415572 
L 399.871225 -102.876493 
L 400.473091 -103.337413 
L 401.074956 -103.798334 
L 401.676822 -104.259255 
L 402.278687 -104.720176 
L 402.880553 -105.181097 
L 403.482418 -105.642018 
L 404.084284 -105.721226 
L 404.686149 -105.745903 
L 405.288015 -105.770581 
L 405.88988 -105.795258 
L 406.491746 -105.819935 
L 407.093611 -105.844612 
L 407.695477 -105.86929 
L 408.297342 -105.893967 
L 408.899208 -105.918644 
L 409.501073 -105.943322 
L 410.102939 -106.176865 
L 410.704804 -106.647123 
L 411.30667 -107.117381 
L 411.908535 -107.587639 
L 412.510401 -108.057897 
L 413.112266 -108.528156 
L 413.714132 -108.998414 
L 414.315997 -109.468672 
L 414.917863 -109.93893 
L 415.519728 -110.409188 
L 416.121594 -110.823726 
L 416.723459 -110.402468 
L 417.325325 -109.98121 
L 417.92719 -109.559951 
L 418.529056 -109.138693 
L 419.130921 -108.717435 
L 419.732787 -108.296176 
L 420.334652 -107.874918 
L 420.936518 -107.453659 
L 421.538383 -107.032401 
L 422.140249 -106.611143 
L 422.742114 -106.349758 
L 423.34398 -106.172117 
L 423.945845 -105.994477 
L 424.547711 -105.816836 
L 425.149576 -105.639195 
L 425.751442 -105.461554 
L 426.353307 -105.283913 
L 426.955173 -105.106272 
L 427.557038 -104.928631 
L 428.158904 -104.75099 
L 428.760769 -104.735929 
L 429.362635 -105.208604 
L 429.9645 -105.68128 
L 430.566366 -106.153956 
L 431.168231 -106.626631 
L 431.770097 -107.099307 
L 432.371962 -107.571982 
L 432.973828 -108.044658 
L 433.575693 -108.517334 
L 434.177559 -108.990009 
L 434.779424 -109.462685 
L 435.38129 -109.279681 
L 435.983155 -108.975255 
L 436.585021 -108.67083 
L 437.186886 -108.366404 
L 437.788752 -108.061978 
L 438.390617 -107.757552 
L 438.992483 -107.453127 
L 439.594348 -107.148701 
L 440.196214 -106.844275 
L 440.798079 -106.539849 
L 441.399945 -106.284236 
L 442.00181 -106.091381 
L 442.603676 -105.898527 
L 443.205541 -105.705672 
L 443.807407 -105.512817 
L 444.409272 -105.319963 
L 445.011138 -105.127108 
L 445.613003 -104.934253 
L 446.214869 -104.741399 
L 446.816734 -104.548544 
L 447.4186 -104.342163 
L 448.020465 -103.716463 
L 448.622331 -103.090762 
L 449.224196 -102.465062 
L 449.826062 -101.839362 
L 450.427927 -101.213662 
L 451.029793 -100.587961 
L 451.631658 -99.962261 
L 452.233524 -99.336561 
L 452.835389 -98.71086 
L 453.437255 -98.08516 
L 454.03912 -97.594594 
L 454.640986 -97.185109 
L 455.242851 -96.775623 
L 455.844717 -96.366138 
L 456.446582 -95.956652 
L 457.048448 -95.547167 
L 457.650313 -95.137682 
L 458.252179 -94.728196 
L 458.854044 -94.318711 
L 459.45591 -93.909225 
L 460.057776 -93.517427 
L 460.659641 -93.188796 
L 461.261507 -92.860165 
L 461.863372 -92.531534 
L 462.465238 -92.202903 
L 463.067103 -91.874273 
L 463.668969 -91.545642 
L 464.270834 -91.217011 
L 464.8727 -90.88838 
L 465.474565 -90.559749 
L 466.076431 -90.231118 
L 466.678296 -89.892284 
L 467.280162 -89.551095 
L 467.882027 -89.209906 
L 468.483893 -88.868717 
L 469.085758 -88.527528 
L 469.687624 -88.186339 
L 470.289489 -87.84515 
L 470.891355 -87.503961 
L 471.49322 -87.162772 
L 472.095086 -86.821583 
L 472.696951 -86.54386 
L 473.298817 -86.358895 
L 473.900682 -86.17393 
L 474.502548 -85.988965 
L 475.104413 -85.803999 
L 475.706279 -85.619034 
L 476.308144 -85.434069 
L 476.91001 -85.249104 
L 477.511875 -85.064139 
L 478.113741 -84.879174 
L 478.715606 -84.694209 
L 479.317472 -84.478098 
L 479.919337 -84.261988 
L 480.521203 -84.045877 
L 481.123068 -83.829766 
L 481.724934 -83.613656 
L 482.326799 -83.397545 
L 482.928665 -83.181435 
L 483.53053 -82.965324 
L 484.132396 -82.749213 
L 484.734261 -82.533103 
L 485.336127 -82.471268 
L 485.937992 -82.514991 
L 486.539858 -82.558714 
L 487.141723 -82.602437 
L 487.743589 -82.64616 
L 488.345454 -82.689883 
L 488.94732 -82.733606 
L 489.549185 -82.77733 
L 490.151051 -82.821053 
L 490.752916 -82.864776 
L 491.354782 -82.804327 
L 491.956647 -82.292468 
L 492.558513 -81.780609 
L 493.160378 -81.26875 
L 493.762244 -80.75689 
L 494.364109 -80.245031 
L 494.965975 -79.733172 
L 495.56784 -79.221313 
L 496.169706 -78.709454 
L 496.771571 -78.197595 
L 497.373437 -77.685736 
L 497.975302 -77.570109 
L 498.577168 -77.565427 
L 499.179033 -77.560745 
L 499.780899 -77.556063 
L 500.382764 -77.551381 
L 500.98463 -77.546699 
L 501.586495 -77.542016 
L 502.188361 -77.537334 
L 502.790226 -77.532652 
L 503.392092 -77.52797 
L 503.993957 -77.45318 
L 504.595823 -77.261541 
L 505.197688 -77.069903 
L 505.799554 -76.878265 
L 506.401419 -76.686626 
L 507.003285 -76.494988 
L 507.60515 -76.30335 
L 508.207016 -76.111711 
L 508.808881 -75.920073 
L 509.410747 -75.728435 
L 510.012612 -75.536796 
L 510.614478 -75.44661 
L 511.216343 -75.359697 
L 511.818209 -75.272783 
L 512.420074 -75.18587 
L 513.02194 -75.098956 
L 513.623805 -75.012043 
L 514.225671 -74.925129 
L 514.827536 -74.838216 
L 515.429402 -74.751303 
L 516.031267 -74.664389 
L 516.633133 -74.619352 
L 517.234998 -74.606886 
L 517.836864 -74.59442 
L 518.438729 -74.581954 
L 519.040595 -74.569488 
L 519.64246 -74.557022 
L 520.244326 -74.544556 
L 520.846191 -74.53209 
L 521.448057 -74.519624 
L 522.049922 -74.507158 
L 522.651788 -74.510598 
L 523.253653 -74.599929 
L 523.855519 -74.689259 
L 524.457384 -74.77859 
L 525.05925 -74.86792 
L 525.661115 -74.957251 
L 526.262981 -75.046581 
L 526.864846 -75.135912 
L 527.466712 -75.225243 
L 528.068577 -75.314573 
L 528.670443 -75.403904 
L 529.272308 -75.425859 
L 529.874174 -75.425355 
L 530.476039 -75.424852 
L 531.077905 -75.424348 
L 531.67977 -75.423844 
L 532.281636 -75.423341 
L 532.883501 -75.422837 
L 533.485367 -75.422334 
L 534.087232 -75.42183 
L 534.689098 -75.421326 
L 535.290963 -75.36723 
L 535.892829 -75.210819 
L 536.494694 -75.054408 
L 537.09656 -74.897997 
L 537.698425 -74.741586 
L 538.300291 -74.585175 
L 538.902156 -74.428764 
L 539.504022 -74.272353 
L 540.105887 -74.115942 
L 540.707753 -73.959531 
L 541.309618 -73.80312 
L 541.911484 -73.78063 
L 542.513349 -73.767069 
L 543.115215 -73.753507 
L 543.71708 -73.739945 
L 544.318946 -73.726384 
L 544.920811 -73.712822 
L 545.522677 -73.699261 
L 546.124542 -73.685699 
L 546.726408 -73.672138 
L 547.328273 -73.658576 
L 547.930139 -73.692253 
L 548.532004 -73.767612 
L 549.13387 -73.84297 
L 549.735735 -73.918328 
L 550.337601 -73.993687 
L 550.939466 -74.069045 
L 551.541332 -74.144403 
L 552.143197 -74.219762 
L 552.745063 -74.29512 
L 553.346928 -74.370478 
L 553.948794 -74.428297 
L 554.550659 -74.363338 
L 555.152525 -74.298379 
L 555.75439 -74.23342 
L 556.356256 -74.16846 
L 556.958121 -74.103501 
L 557.559987 -74.038542 
L 558.161852 -73.973583 
L 558.763718 -73.908624 
L 559.365583 -73.843665 
L 559.967449 -73.778706 
L 560.569314 -73.758469 
L 561.17118 -73.755733 
L 561.773045 -73.752997 
L 562.374911 -73.75026 
L 562.976776 -73.747524 
L 563.578642 -73.744787 
L 564.180507 -73.742051 
L 564.782373 -73.739315 
L 565.384238 -73.736578 
L 565.986104 -73.733842 
L 566.587969 -73.651071 
L 567.189835 -73.392227 
L 567.7917 -73.133382 
L 568.393566 -72.874537 
L 568.995431 -72.615692 
L 569.597297 -72.356848 
L 570.199162 -72.098003 
L 570.801028 -71.839158 
L 571.402893 -71.580314 
L 572.004759 -71.321469 
L 572.606624 -71.062624 
L 573.20849 -71.060818 
L 573.810355 -71.085602 
L 574.412221 -71.110387 
L 575.014086 -71.135171 
L 575.615952 -71.159955 
L 576.217817 -71.18474 
L 576.819683 -71.209524 
L 577.421548 -71.234308 
L 578.023414 -71.259092 
L 578.625279 -71.283877 
L 579.227145 -71.222668 
L 579.82901 -71.075467 
L 580.430876 -70.928266 
L 581.032741 -70.781065 
L 581.634607 -70.633863 
L 582.236472 -70.486662 
L 582.838338 -70.339461 
L 583.440203 -70.19226 
L 584.042069 -70.045059 
L 584.643934 -69.897857 
L 585.2458 -69.756386 
L 585.847665 -69.670301 
L 586.449531 -69.584216 
L 587.051396 -69.498131 
L 587.653262 -69.412046 
L 588.255127 -69.325961 
L 588.856993 -69.239875 
L 589.458858 -69.15379 
L 590.060724 -69.067705 
L 590.662589 -68.98162 
L 591.264455 -68.895535 
L 591.86632 -69.00029 
L 592.468186 -69.191789 
L 593.070051 -69.383289 
L 593.671917 -69.574788 
L 594.273782 -69.766288 
L 594.875648 -69.957787 
L 595.477513 -70.149287 
L 596.079379 -70.340787 
L 596.681244 -70.532286 
L 597.28311 -70.723786 
L 597.884975 -70.799383 
L 598.486841 -70.578787 
L 599.088706 -70.358191 
L 599.690572 -70.137595 
L 600.292437 -69.916999 
L 600.894303 -69.696403 
L 601.496168 -69.475807 
L 602.098034 -69.255211 
L 602.699899 -69.034615 
L 603.301765 -68.814019 
L 603.90363 -68.593423 
L 604.505496 -68.353549 
L 605.107361 -68.110921 
L 605.709227 -67.868293 
L 606.311092 -67.625666 
L 606.912958 -67.383038 
L 607.514823 -67.14041 
L 608.116689 -66.897782 
L 608.718554 -66.655155 
L 609.32042 -66.412527 
L 609.922285 -66.169899 
L 610.524151 -65.975993 
L 611.126016 -65.837303 
L 611.727882 -65.698614 
L 612.329747 -65.559925 
L 612.931613 -65.421236 
L 613.533478 -65.282547 
L 614.135344 -65.143858 
L 614.737209 -65.005169 
L 615.339075 -64.866479 
L 615.94094 -64.72779 
L 616.542806 -64.587763 
L 617.144671 -64.427665 
L 617.746537 -64.267567 
L 618.348402 -64.107469 
L 618.950268 -63.947371 
L 619.552133 -63.787273 
L 620.153999 -63.627175 
L 620.755865 -63.467077 
L 621.35773 -63.306979 
L 621.959596 -63.146882 
L 622.561461 -62.986784 
L 623.163327 -63.02058 
L 623.765192 -63.155941 
L 624.367058 -63.291301 
L 624.968923 -63.426662 
L 625.570789 -63.562022 
L 626.172654 -63.697382 
L 626.77452 -63.832743 
L 627.376385 -63.968103 
L 627.978251 -64.103464 
L 628.580116 -64.238824 
L 629.181982 -64.380687 
L 629.783847 -64.542056 
L 630.385713 -64.703424 
L 630.987578 -64.864793 
L 631.589444 -65.026162 
L 632.191309 -65.187531 
L 632.793175 -65.3489 
L 633.39504 -65.510268 
L 633.996906 -65.671637 
L 634.598771 -65.833006 
L 635.200637 -65.994375 
L 635.802502 -66.019668 
L 636.404368 -66.019762 
L 637.006233 -66.019856 
L 637.608099 -66.01995 
L 638.209964 -66.020044 
L 638.81183 -66.020137 
L 639.413695 -66.020231 
L 640.015561 -66.020325 
L 640.617426 -66.020419 
L 641.219292 -66.020513 
L 641.821157 -65.946042 
L 642.423023 -65.775703 
L 643.024888 -65.605363 
L 643.626754 -65.435023 
L 644.228619 -65.264684 
L 644.830485 -65.094344 
L 645.43235 -64.924005 
L 646.034216 -64.753665 
L 646.636081 -64.583325 
L 647.237947 -64.412986 
L 647.839812 -64.242086 
L 648.441678 -64.053819 
L 649.043543 -63.865551 
L 649.645409 -63.677284 
L 650.247274 -63.489016 
L 650.84914 -63.300749 
L 651.451005 -63.112482 
L 652.052871 -62.924214 
L 652.654736 -62.735947 
L 653.256602 -62.54768 
L 653.858467 -62.359412 
L 654.460333 -62.18063 
L 655.062198 -62.007538 
L 655.664064 -61.834446 
L 656.265929 -61.661354 
L 656.867795 -61.488263 
L 657.46966 -61.315171 
L 658.071526 -61.142079 
L 658.673391 -60.968988 
L 659.275257 -60.795896 
L 659.877122 -60.622804 
L 660.478988 -60.465458 
L 661.080853 -60.364346 
L 661.682719 -60.263234 
L 662.284584 -60.162122 
L 662.88645 -60.06101 
L 663.488315 -59.959898 
L 664.090181 -59.858786 
L 664.692046 -59.757674 
L 665.293912 -59.656562 
L 665.895777 -59.55545 
L 666.497643 -59.454338 
L 667.099508 -59.384137 
L 667.701374 -59.321069 
L 668.303239 -59.258001 
L 668.905105 -59.194933 
L 669.50697 -59.131865 
L 670.108836 -59.068797 
L 670.710701 -59.005729 
L 671.312567 -58.942661 
L 671.914432 -58.879593 
L 672.516298 -58.816525 
L 673.118163 -58.769461 
L 673.720029 -58.745788 
L 674.321894 -58.722115 
L 674.92376 -58.698441 
L 675.525625 -58.674768 
L 676.127491 -58.651094 
L 676.729356 -58.627421 
L 677.331222 -58.603747 
L 677.933087 -58.580074 
L 678.534953 -58.556401 
L 679.136818 -58.532727 
L 679.136818 -389.579591 
L 679.136818 -389.579591 
L 678.534953 -389.580193 
L 677.933087 -389.580795 
L 677.331222 -389.581397 
L 676.729356 -389.581999 
L 676.127491 -389.582601 
L 675.525625 -389.583203 
L 674.92376 -389.583805 
L 674.321894 -389.584407 
L 673.720029 -389.585009 
L 673.118163 -389.585611 
L 672.516298 -389.582042 
L 671.914432 -389.575619 
L 671.312567 -389.569196 
L 670.710701 -389.562774 
L 670.108836 -389.556351 
L 669.50697 -389.549928 
L 668.905105 -389.543506 
L 668.303239 -389.537083 
L 667.701374 -389.53066 
L 667.099508 -389.524238 
L 666.497643 -389.519391 
L 665.895777 -389.521374 
L 665.293912 -389.523356 
L 664.692046 -389.525339 
L 664.090181 -389.527321 
L 663.488315 -389.529304 
L 662.88645 -389.531286 
L 662.284584 -389.533269 
L 661.682719 -389.535252 
L 661.080853 -389.537234 
L 660.478988 -389.539217 
L 659.877122 -389.544289 
L 659.275257 -389.550225 
L 658.673391 -389.556162 
L 658.071526 -389.562099 
L 657.46966 -389.568035 
L 656.867795 -389.573972 
L 656.265929 -389.579909 
L 655.664064 -389.585845 
L 655.062198 -389.591782 
L 654.460333 -389.597719 
L 653.858467 -389.598677 
L 653.256602 -389.591337 
L 652.654736 -389.583998 
L 652.052871 -389.576659 
L 651.451005 -389.569319 
L 650.84914 -389.56198 
L 650.247274 -389.55464 
L 649.645409 -389.547301 
L 649.043543 -389.539962 
L 648.441678 -389.532622 
L 647.839812 -389.525283 
L 647.237947 -389.50998 
L 646.636081 -389.49442 
L 646.034216 -389.478861 
L 645.43235 -389.463301 
L 644.830485 -389.447741 
L 644.228619 -389.432182 
L 643.626754 -389.416622 
L 643.024888 -389.401063 
L 642.423023 -389.385503 
L 641.821157 -389.369943 
L 641.219292 -389.361598 
L 640.617426 -389.358865 
L 640.015561 -389.356131 
L 639.413695 -389.353397 
L 638.81183 -389.350664 
L 638.209964 -389.34793 
L 637.608099 -389.345196 
L 637.006233 -389.342463 
L 636.404368 -389.339729 
L 635.802502 -389.336996 
L 635.200637 -389.335185 
L 634.598771 -389.338357 
L 633.996906 -389.34153 
L 633.39504 -389.344703 
L 632.793175 -389.347875 
L 632.191309 -389.351048 
L 631.589444 -389.354221 
L 630.987578 -389.357393 
L 630.385713 -389.360566 
L 629.783847 -389.363739 
L 629.181982 -389.366912 
L 628.580116 -389.370132 
L 627.978251 -389.373368 
L 627.376385 -389.376604 
L 626.77452 -389.37984 
L 626.172654 -389.383077 
L 625.570789 -389.386313 
L 624.968923 -389.389549 
L 624.367058 -389.392785 
L 623.765192 -389.396021 
L 623.163327 -389.399257 
L 622.561461 -389.406373 
L 621.959596 -389.420894 
L 621.35773 -389.435416 
L 620.755865 -389.449937 
L 620.153999 -389.464459 
L 619.552133 -389.47898 
L 618.950268 -389.493501 
L 618.348402 -389.508023 
L 617.746537 -389.522544 
L 617.144671 -389.537066 
L 616.542806 -389.551587 
L 615.94094 -389.551498 
L 615.339075 -389.550435 
L 614.737209 -389.549372 
L 614.135344 -389.548309 
L 613.533478 -389.547246 
L 612.931613 -389.546183 
L 612.329747 -389.54512 
L 611.727882 -389.544056 
L 611.126016 -389.542993 
L 610.524151 -389.54193 
L 609.922285 -389.540446 
L 609.32042 -389.538591 
L 608.718554 -389.536735 
L 608.116689 -389.53488 
L 607.514823 -389.533024 
L 606.912958 -389.531168 
L 606.311092 -389.529313 
L 605.709227 -389.527457 
L 605.107361 -389.525602 
L 604.505496 -389.523746 
L 603.90363 -389.519208 
L 603.301765 -389.495889 
L 602.699899 -389.47257 
L 602.098034 -389.449251 
L 601.496168 -389.425933 
L 600.894303 -389.402614 
L 600.292437 -389.379295 
L 599.690572 -389.355976 
L 599.088706 -389.332658 
L 598.486841 -389.309339 
L 597.884975 -389.28602 
L 597.28311 -389.266016 
L 596.681244 -389.247308 
L 596.079379 -389.228601 
L 595.477513 -389.209893 
L 594.875648 -389.191186 
L 594.273782 -389.172478 
L 593.671917 -389.153771 
L 593.070051 -389.135063 
L 592.468186 -389.116356 
L 591.86632 -389.097649 
L 591.264455 -389.086035 
L 590.662589 -389.090028 
L 590.060724 -389.09402 
L 589.458858 -389.098013 
L 588.856993 -389.102006 
L 588.255127 -389.105999 
L 587.653262 -389.109992 
L 587.051396 -389.113984 
L 586.449531 -389.117977 
L 585.847665 -389.12197 
L 585.2458 -389.125963 
L 584.643934 -389.120118 
L 584.042069 -389.113257 
L 583.440203 -389.106395 
L 582.838338 -389.099533 
L 582.236472 -389.092672 
L 581.634607 -389.08581 
L 581.032741 -389.078948 
L 580.430876 -389.072087 
L 579.82901 -389.065225 
L 579.227145 -389.058363 
L 578.625279 -389.067426 
L 578.023414 -389.092412 
L 577.421548 -389.117399 
L 576.819683 -389.142385 
L 576.217817 -389.167372 
L 575.615952 -389.192358 
L 575.014086 -389.217345 
L 574.412221 -389.242331 
L 573.810355 -389.267318 
L 573.20849 -389.292305 
L 572.606624 -389.315397 
L 572.004759 -389.320179 
L 571.402893 -389.324962 
L 570.801028 -389.329744 
L 570.199162 -389.334527 
L 569.597297 -389.339309 
L 568.995431 -389.344092 
L 568.393566 -389.348874 
L 567.7917 -389.353657 
L 567.189835 -389.358439 
L 566.587969 -389.363222 
L 565.986104 -389.351202 
L 565.384238 -389.331545 
L 564.782373 -389.311887 
L 564.180507 -389.29223 
L 563.578642 -389.272573 
L 562.976776 -389.252915 
L 562.374911 -389.233258 
L 561.773045 -389.213601 
L 561.17118 -389.193943 
L 560.569314 -389.174286 
L 559.967449 -389.161472 
L 559.365583 -389.166147 
L 558.763718 -389.170822 
L 558.161852 -389.175496 
L 557.559987 -389.180171 
L 556.958121 -389.184846 
L 556.356256 -389.189521 
L 555.75439 -389.194195 
L 555.152525 -389.19887 
L 554.550659 -389.203545 
L 553.948794 -389.20822 
L 553.346928 -389.223472 
L 552.745063 -389.240236 
L 552.143197 -389.256999 
L 551.541332 -389.273763 
L 550.939466 -389.290527 
L 550.337601 -389.30729 
L 549.735735 -389.324054 
L 549.13387 -389.340817 
L 548.532004 -389.357581 
L 547.930139 -389.374344 
L 547.328273 -389.384276 
L 546.726408 -389.386466 
L 546.124542 -389.388656 
L 545.522677 -389.390845 
L 544.920811 -389.393035 
L 544.318946 -389.395225 
L 543.71708 -389.397414 
L 543.115215 -389.399604 
L 542.513349 -389.401794 
L 541.911484 -389.403983 
L 541.309618 -389.40474 
L 540.707753 -389.384003 
L 540.105887 -389.363266 
L 539.504022 -389.342529 
L 538.902156 -389.321792 
L 538.300291 -389.301055 
L 537.698425 -389.280318 
L 537.09656 -389.259581 
L 536.494694 -389.238844 
L 535.892829 -389.218107 
L 535.290963 -389.19737 
L 534.689098 -389.214899 
L 534.087232 -389.252471 
L 533.485367 -389.290043 
L 532.883501 -389.327616 
L 532.281636 -389.365188 
L 531.67977 -389.40276 
L 531.077905 -389.440333 
L 530.476039 -389.477905 
L 529.874174 -389.515477 
L 529.272308 -389.55305 
L 528.670443 -389.583885 
L 528.068577 -389.594507 
L 527.466712 -389.60513 
L 526.864846 -389.615752 
L 526.262981 -389.626375 
L 525.661115 -389.636997 
L 525.05925 -389.64762 
L 524.457384 -389.658242 
L 523.855519 -389.668865 
L 523.253653 -389.679487 
L 522.651788 -389.69011 
L 522.049922 -389.691402 
L 521.448057 -389.690965 
L 520.846191 -389.690529 
L 520.244326 -389.690093 
L 519.64246 -389.689656 
L 519.040595 -389.68922 
L 518.438729 -389.688784 
L 517.836864 -389.688348 
L 517.234998 -389.687911 
L 516.633133 -389.687475 
L 516.031267 -389.682596 
L 515.429402 -389.672003 
L 514.827536 -389.661411 
L 514.225671 -389.650819 
L 513.623805 -389.640227 
L 513.02194 -389.629635 
L 512.420074 -389.619043 
L 511.818209 -389.60845 
L 511.216343 -389.597858 
L 510.614478 -389.587266 
L 510.012612 -389.574693 
L 509.410747 -389.500714 
L 508.808881 -389.426734 
L 508.207016 -389.352755 
L 507.60515 -389.278776 
L 507.003285 -389.204796 
L 506.401419 -389.130817 
L 505.799554 -389.056837 
L 505.197688 -388.982858 
L 504.595823 -388.908878 
L 503.993957 -388.834899 
L 503.392092 -388.763577 
L 502.790226 -388.69385 
L 502.188361 -388.624123 
L 501.586495 -388.554396 
L 500.98463 -388.484669 
L 500.382764 -388.414942 
L 499.780899 -388.345215 
L 499.179033 -388.275488 
L 498.577168 -388.205761 
L 497.975302 -388.136034 
L 497.373437 -388.093206 
L 496.771571 -388.146449 
L 496.169706 -388.199691 
L 495.56784 -388.252933 
L 494.965975 -388.306176 
L 494.364109 -388.359418 
L 493.762244 -388.412661 
L 493.160378 -388.465903 
L 492.558513 -388.519145 
L 491.956647 -388.572388 
L 491.354782 -388.62563 
L 490.752916 -388.583896 
L 490.151051 -388.520243 
L 489.549185 -388.456591 
L 488.94732 -388.392939 
L 488.345454 -388.329286 
L 487.743589 -388.265634 
L 487.141723 -388.201982 
L 486.539858 -388.138329 
L 485.937992 -388.074677 
L 485.336127 -388.011025 
L 484.734261 -387.985521 
L 484.132396 -388.015773 
L 483.53053 -388.046026 
L 482.928665 -388.076278 
L 482.326799 -388.10653 
L 481.724934 -388.136782 
L 481.123068 -388.167035 
L 480.521203 -388.197287 
L 479.919337 -388.227539 
L 479.317472 -388.257791 
L 478.715606 -388.288044 
L 478.113741 -388.172582 
L 477.511875 -388.05712 
L 476.91001 -387.941659 
L 476.308144 -387.826197 
L 475.706279 -387.710735 
L 475.104413 -387.595274 
L 474.502548 -387.479812 
L 473.900682 -387.36435 
L 473.298817 -387.248889 
L 472.696951 -387.133427 
L 472.095086 -387.1631 
L 471.49322 -387.292075 
L 470.891355 -387.42105 
L 470.289489 -387.550025 
L 469.687624 -387.679001 
L 469.085758 -387.807976 
L 468.483893 -387.936951 
L 467.882027 -388.065926 
L 467.280162 -388.194902 
L 466.678296 -388.323877 
L 466.076431 -388.40001 
L 465.474565 -388.247164 
L 464.8727 -388.094318 
L 464.270834 -387.941472 
L 463.668969 -387.788626 
L 463.067103 -387.635779 
L 462.465238 -387.482933 
L 461.863372 -387.330087 
L 461.261507 -387.177241 
L 460.659641 -387.024394 
L 460.057776 -386.871548 
L 459.45591 -386.961269 
L 458.854044 -387.118909 
L 458.252179 -387.276549 
L 457.650313 -387.434188 
L 457.048448 -387.591828 
L 456.446582 -387.749468 
L 455.844717 -387.907108 
L 455.242851 -388.064747 
L 454.640986 -388.222387 
L 454.03912 -388.380027 
L 453.437255 -388.429246 
L 452.835389 -388.297763 
L 452.233524 -388.166281 
L 451.631658 -388.034799 
L 451.029793 -387.903316 
L 450.427927 -387.771834 
L 449.826062 -387.640351 
L 449.224196 -387.508869 
L 448.622331 -387.377386 
L 448.020465 -387.245904 
L 447.4186 -387.114422 
L 446.816734 -387.128837 
L 446.214869 -387.147958 
L 445.613003 -387.16708 
L 445.011138 -387.186202 
L 444.409272 -387.205323 
L 443.807407 -387.224445 
L 443.205541 -387.243567 
L 442.603676 -387.262688 
L 442.00181 -387.28181 
L 441.399945 -387.300932 
L 440.798079 -387.30808 
L 440.196214 -387.305915 
L 439.594348 -387.30375 
L 438.992483 -387.301585 
L 438.390617 -387.29942 
L 437.788752 -387.297256 
L 437.186886 -387.295091 
L 436.585021 -387.292926 
L 435.983155 -387.290761 
L 435.38129 -387.288596 
L 434.779424 -387.298727 
L 434.177559 -387.375252 
L 433.575693 -387.451777 
L 432.973828 -387.528303 
L 432.371962 -387.604828 
L 431.770097 -387.681353 
L 431.168231 -387.757879 
L 430.566366 -387.834404 
L 429.9645 -387.910929 
L 429.362635 -387.987454 
L 428.760769 -388.06398 
L 428.158904 -388.136624 
L 427.557038 -388.207975 
L 426.955173 -388.279325 
L 426.353307 -388.350676 
L 425.751442 -388.422027 
L 425.149576 -388.493377 
L 424.547711 -388.564728 
L 423.945845 -388.636079 
L 423.34398 -388.70743 
L 422.742114 -388.77878 
L 422.140249 -388.839679 
L 421.538383 -388.880622 
L 420.936518 -388.921566 
L 420.334652 -388.96251 
L 419.732787 -389.003454 
L 419.130921 -389.044398 
L 418.529056 -389.085341 
L 417.92719 -389.126285 
L 417.325325 -389.167229 
L 416.723459 -389.208173 
L 416.121594 -389.249117 
L 415.519728 -389.213876 
L 414.917863 -389.173556 
L 414.315997 -389.133236 
L 413.714132 -389.092917 
L 413.112266 -389.052597 
L 412.510401 -389.012277 
L 411.908535 -388.971957 
L 411.30667 -388.931638 
L 410.704804 -388.891318 
L 410.102939 -388.850998 
L 409.501073 -388.789688 
L 408.899208 -388.709858 
L 408.297342 -388.630027 
L 407.695477 -388.550197 
L 407.093611 -388.470366 
L 406.491746 -388.390536 
L 405.88988 -388.310705 
L 405.288015 -388.230875 
L 404.686149 -388.151044 
L 404.084284 -388.071214 
L 403.482418 -388.012881 
L 402.880553 -388.105032 
L 402.278687 -388.197183 
L 401.676822 -388.289334 
L 401.074956 -388.381486 
L 400.473091 -388.473637 
L 399.871225 -388.565788 
L 399.26936 -388.657939 
L 398.667494 -388.75009 
L 398.065629 -388.842242 
L 397.463763 -388.934393 
L 396.861898 -388.958885 
L 396.260032 -388.956903 
L 395.658167 -388.95492 
L 395.056301 -388.952938 
L 394.454436 -388.950955 
L 393.85257 -388.948973 
L 393.250705 -388.94699 
L 392.648839 -388.945007 
L 392.046974 -388.943025 
L 391.445108 -388.941042 
L 390.843243 -388.960951 
L 390.241377 -389.029021 
L 389.639512 -389.097092 
L 389.037646 -389.165162 
L 388.435781 -389.233232 
L 387.833915 -389.301303 
L 387.23205 -389.369373 
L 386.630184 -389.437443 
L 386.028319 -389.505514 
L 385.426453 -389.573584 
L 384.824588 -389.641654 
L 384.222722 -389.596267 
L 383.620857 -389.539142 
L 383.018991 -389.482017 
L 382.417126 -389.424893 
L 381.81526 -389.367768 
L 381.213395 -389.310643 
L 380.611529 -389.253518 
L 380.009664 -389.196394 
L 379.407798 -389.139269 
L 378.805933 -389.082144 
L 378.204067 -389.078825 
L 377.602202 -389.129312 
L 377.000336 -389.179799 
L 376.398471 -389.230285 
L 375.796605 -389.280772 
L 375.19474 -389.331259 
L 374.592874 -389.381745 
L 373.991009 -389.432232 
L 373.389143 -389.482719 
L 372.787278 -389.533205 
L 372.185412 -389.580368 
L 371.583547 -389.595394 
L 370.981681 -389.610421 
L 370.379816 -389.625448 
L 369.77795 -389.640475 
L 369.176085 -389.655501 
L 368.574219 -389.670528 
L 367.972354 -389.685555 
L 367.370488 -389.700581 
L 366.768623 -389.715608 
L 366.166757 -389.730635 
L 365.564892 -389.732373 
L 364.963026 -389.728071 
L 364.361161 -389.723769 
L 363.759295 -389.719467 
L 363.15743 -389.715165 
L 362.555564 -389.710863 
L 361.953699 -389.706561 
L 361.351833 -389.702259 
L 360.749968 -389.697957 
L 360.148102 -389.693655 
L 359.546237 -389.691313 
L 358.944371 -389.69398 
L 358.342506 -389.696648 
L 357.74064 -389.699315 
L 357.138775 -389.701982 
L 356.536909 -389.70465 
L 355.935044 -389.707317 
L 355.333178 -389.709985 
L 354.731313 -389.712652 
L 354.129447 -389.715319 
L 353.527582 -389.717987 
L 352.925716 -389.719934 
L 352.323851 -389.721779 
L 351.721985 -389.723623 
L 351.12012 -389.725468 
L 350.518254 -389.727312 
L 349.916389 -389.729157 
L 349.314523 -389.731001 
L 348.712658 -389.732846 
L 348.110792 -389.73469 
L 347.508927 -389.736535 
L 346.907061 -389.727452 
L 346.305196 -389.705986 
L 345.70333 -389.68452 
L 345.101465 -389.663055 
L 344.499599 -389.641589 
L 343.897734 -389.620123 
L 343.295868 -389.598657 
L 342.694003 -389.577191 
L 342.092137 -389.555725 
L 341.490272 -389.534259 
L 340.888406 -389.512066 
L 340.286541 -389.478964 
L 339.684675 -389.445862 
L 339.08281 -389.41276 
L 338.480944 -389.379658 
L 337.879079 -389.346556 
L 337.277213 -389.313454 
L 336.675348 -389.280353 
L 336.073482 -389.247251 
L 335.471617 -389.214149 
L 334.869751 -389.181047 
L 334.267886 -389.101558 
L 333.66602 -388.997771 
L 333.064155 -388.893984 
L 332.462289 -388.790197 
L 331.860424 -388.686409 
L 331.258558 -388.582622 
L 330.656693 -388.478835 
L 330.054827 -388.375048 
L 329.452962 -388.271261 
L 328.851096 -388.167474 
L 328.249231 -388.108789 
L 327.647365 -388.185411 
L 327.0455 -388.262033 
L 326.443634 -388.338655 
L 325.841769 -388.415277 
L 325.239903 -388.491899 
L 324.638038 -388.568521 
L 324.036172 -388.645143 
L 323.434307 -388.721765 
L 322.832441 -388.798386 
L 322.230576 -388.875008 
L 321.62871 -388.919866 
L 321.026845 -388.958841 
L 320.424979 -388.997816 
L 319.823114 -389.036791 
L 319.221248 -389.075766 
L 318.619383 -389.114741 
L 318.017517 -389.153716 
L 317.415652 -389.192691 
L 316.813786 -389.231666 
L 316.211921 -389.270641 
L 315.610055 -389.289343 
L 315.00819 -389.281978 
L 314.406324 -389.274614 
L 313.804459 -389.26725 
L 313.202593 -389.259886 
L 312.600728 -389.252521 
L 311.998862 -389.245157 
L 311.396997 -389.237793 
L 310.795131 -389.230429 
L 310.193266 -389.223064 
L 309.5914 -389.213627 
L 308.989535 -389.139921 
L 308.387669 -389.066215 
L 307.785804 -388.992509 
L 307.183938 -388.918803 
L 306.582073 -388.845097 
L 305.980207 -388.771391 
L 305.378342 -388.697685 
L 304.776476 -388.623979 
L 304.174611 -388.550273 
L 303.572745 -388.476567 
L 302.97088 -388.469386 
L 302.369014 -388.502121 
L 301.767149 -388.534855 
L 301.165283 -388.56759 
L 300.563418 -388.600324 
L 299.961552 -388.633059 
L 299.359687 -388.665794 
L 298.757821 -388.698528 
L 298.155956 -388.731263 
L 297.55409 -388.763997 
L 296.952224 -388.770933 
L 296.350359 -388.685729 
L 295.748493 -388.600525 
L 295.146628 -388.515321 
L 294.544762 -388.430118 
L 293.942897 -388.344914 
L 293.341031 -388.25971 
L 292.739166 -388.174506 
L 292.1373 -388.089302 
L 291.535435 -388.004098 
L 290.933569 -387.918894 
L 290.331704 -387.872364 
L 289.729838 -387.834759 
L 289.127973 -387.797153 
L 288.526107 -387.759548 
L 287.924242 -387.721942 
L 287.322376 -387.684337 
L 286.720511 -387.646731 
L 286.118645 -387.609126 
L 285.51678 -387.57152 
L 284.914914 -387.533915 
L 284.313049 -387.47719 
L 283.711183 -387.392522 
L 283.109318 -387.307854 
L 282.507452 -387.223186 
L 281.905587 -387.138517 
L 281.303721 -387.053849 
L 280.701856 -386.969181 
L 280.09999 -386.884513 
L 279.498125 -386.799844 
L 278.896259 -386.715176 
L 278.294394 -386.630508 
L 277.692528 -386.771622 
L 277.090663 -386.912735 
L 276.488797 -387.053849 
L 275.886932 -387.194963 
L 275.285066 -387.336076 
L 274.683201 -387.47719 
L 274.081335 -387.618304 
L 273.47947 -387.759417 
L 272.877604 -387.900531 
L 272.275739 -388.041645 
L 271.673873 -388.094501 
L 271.072008 -388.086971 
L 270.470142 -388.079442 
L 269.868277 -388.071912 
L 269.266411 -388.064382 
L 268.664546 -388.056852 
L 268.06268 -388.049322 
L 267.460815 -388.041792 
L 266.858949 -388.034262 
L 266.257084 -388.026732 
L 265.655218 -388.009511 
L 265.053353 -387.950296 
L 264.451487 -387.891081 
L 263.849622 -387.831866 
L 263.247756 -387.772651 
L 262.645891 -387.713436 
L 262.044025 -387.654221 
L 261.44216 -387.595006 
L 260.840294 -387.535791 
L 260.238429 -387.476576 
L 259.636563 -387.417361 
L 259.034698 -387.338699 
L 258.432832 -387.254591 
L 257.830967 -387.170483 
L 257.229101 -387.086376 
L 256.627236 -387.002268 
L 256.02537 -386.91816 
L 255.423505 -386.834053 
L 254.821639 -386.749945 
L 254.219774 -386.665837 
L 253.617908 -386.58173 
L 253.016043 -386.506512 
L 252.414177 -386.446113 
L 251.812312 -386.385713 
L 251.210446 -386.325314 
L 250.608581 -386.264914 
L 250.006715 -386.204515 
L 249.40485 -386.144115 
L 248.802984 -386.083715 
L 248.201119 -386.023316 
L 247.599253 -385.962916 
L 246.997388 -385.902517 
L 246.395522 -385.789006 
L 245.793657 -385.673782 
L 245.191791 -385.558557 
L 244.589926 -385.443333 
L 243.98806 -385.328109 
L 243.386195 -385.212885 
L 242.784329 -385.097661 
L 242.182464 -384.982436 
L 241.580598 -384.867212 
L 240.978733 -384.751988 
L 240.376867 -384.684752 
L 239.775002 -384.654839 
L 239.173136 -384.624926 
L 238.571271 -384.595014 
L 237.969405 -384.565101 
L 237.36754 -384.535188 
L 236.765674 -384.505276 
L 236.163809 -384.475363 
L 235.561943 -384.645733 
L 234.960078 -384.832164 
L 234.358212 -384.968343 
L 233.756347 -384.833158 
L 233.154481 -384.697973 
L 232.552616 -384.562787 
L 231.95075 -384.427602 
L 231.348885 -384.292417 
L 230.747019 -384.20773 
L 230.145154 -384.178075 
L 229.543288 -384.148419 
L 228.941423 -384.118763 
L 228.339557 -384.089107 
L 227.737692 -383.944278 
L 227.135826 -383.780376 
L 226.533961 -383.914288 
L 225.932095 -384.0482 
L 225.33023 -384.182113 
L 224.728364 -384.316025 
L 224.126499 -384.449938 
L 223.524633 -384.58385 
L 222.922768 -384.717762 
L 222.320902 -384.851675 
L 221.719037 -384.905018 
L 221.117171 -384.804547 
L 220.515306 -384.704076 
L 219.91344 -384.603605 
L 219.311575 -384.503134 
L 218.709709 -384.402663 
L 218.107844 -384.302193 
L 217.505978 -384.201722 
L 216.904113 -384.101251 
L 216.302247 -384.00078 
L 215.700382 -383.900309 
L 215.098516 -384.045084 
L 214.496651 -384.206208 
L 213.894785 -384.367333 
L 213.29292 -384.528457 
L 212.691054 -384.689582 
L 212.089189 -384.850706 
L 211.487323 -385.011831 
L 210.885458 -385.172955 
L 210.283592 -385.33408 
L 209.681727 -385.495204 
L 209.079861 -385.480063 
L 208.477996 -385.309393 
L 207.87613 -385.138723 
L 207.274265 -384.968052 
L 206.672399 -384.797382 
L 206.070534 -384.658864 
L 205.468668 -384.666046 
L 204.866803 -384.673228 
L 204.264937 -384.68041 
L 203.663072 -384.687592 
L 203.061206 -384.702406 
L 202.459341 -384.770639 
L 201.857475 -384.838872 
L 201.25561 -384.907105 
L 200.653744 -384.975339 
L 200.051879 -385.043572 
L 199.450013 -385.111805 
L 198.848148 -385.180038 
L 198.246282 -385.248272 
L 197.644417 -385.316505 
L 197.042551 -385.384738 
L 196.440686 -385.328119 
L 195.83882 -385.222645 
L 195.236955 -385.117171 
L 194.635089 -385.011697 
L 194.033224 -384.906222 
L 193.431358 -384.810804 
L 192.829493 -384.850831 
L 192.227627 -384.890858 
L 191.625762 -384.930885 
L 191.023896 -384.970912 
L 190.422031 -384.984692 
L 189.820165 -384.940727 
L 189.2183 -384.896763 
L 188.616434 -384.852798 
L 188.014569 -384.808834 
L 187.412703 -384.888706 
L 186.810838 -385.15586 
L 186.208972 -385.423014 
L 185.607107 -385.690168 
L 185.005241 -385.957321 
L 184.403376 -386.224475 
L 183.80151 -386.341208 
L 183.199645 -386.44238 
L 182.597779 -386.543552 
L 181.995914 -386.644724 
L 181.394048 -386.745897 
L 180.792183 -386.847069 
L 180.190317 -386.948241 
L 179.588452 -387.049413 
L 178.986586 -387.150585 
L 178.384721 -387.251758 
L 177.782855 -387.280055 
L 177.18099 -387.235477 
L 176.579124 -387.1909 
L 175.977259 -387.146322 
L 175.375393 -387.101744 
L 174.773528 -387.057167 
L 174.171662 -387.012589 
L 173.569797 -386.968012 
L 172.967931 -386.923434 
L 172.366066 -386.878856 
L 171.7642 -386.84139 
L 171.162335 -386.87267 
L 170.560469 -386.903949 
L 169.958604 -386.935229 
L 169.356738 -386.966508 
L 168.754873 -386.997788 
L 168.153007 -387.029067 
L 167.551142 -387.060346 
L 166.949276 -387.091626 
L 166.347411 -387.122905 
L 165.745545 -387.154185 
L 165.14368 -387.222051 
L 164.541814 -387.306548 
L 163.939949 -387.391045 
L 163.338083 -387.480845 
L 162.736218 -387.581352 
L 162.134352 -387.681859 
L 161.532487 -387.782365 
L 160.930621 -387.882872 
L 160.328756 -387.983379 
L 159.72689 -388.083886 
L 159.125025 -388.163586 
L 158.523159 -388.190113 
L 157.921294 -388.21664 
L 157.319428 -388.243168 
L 156.717563 -388.269695 
L 156.115697 -388.296222 
L 155.513832 -388.322749 
L 154.911966 -388.349277 
L 154.310101 -388.375804 
L 153.708235 -388.402331 
L 153.10637 -388.428859 
L 152.504504 -388.483884 
L 151.902639 -388.54298 
L 151.300773 -388.602077 
L 150.698908 -388.661173 
L 150.097042 -388.720269 
L 149.495177 -388.779365 
L 148.893311 -388.838462 
L 148.291446 -388.897558 
L 147.68958 -388.956654 
L 147.087715 -389.01575 
L 146.485849 -389.072021 
L 145.883984 -389.12509 
L 145.282118 -389.178158 
L 144.680253 -389.231227 
L 144.078387 -389.284295 
L 143.476522 -389.337363 
L 142.874656 -389.390432 
L 142.272791 -389.4435 
L 141.670925 -389.496569 
L 141.06906 -389.549637 
L 140.467194 -389.599683 
L 139.865329 -389.604379 
L 139.263463 -389.609076 
L 138.661598 -389.613773 
L 138.059732 -389.61847 
L 137.457867 -389.623167 
L 136.856001 -389.627864 
L 136.254135 -389.632561 
L 135.65227 -389.637258 
L 135.050404 -389.641955 
L 134.448539 -389.646651 
L 133.846673 -389.65044 
L 133.244808 -389.653754 
L 132.642942 -389.657067 
L 132.041077 -389.660381 
L 131.439211 -389.663694 
L 130.837346 -389.667008 
L 130.23548 -389.670321 
L 129.633615 -389.673635 
L 129.031749 -389.676948 
L 128.429884 -389.680262 
L 127.828018 -389.672316 
L 127.226153 -389.630594 
L 126.624287 -389.588871 
L 126.022422 -389.547149 
L 125.420556 -389.505427 
L 124.818691 -389.463704 
L 124.216825 -389.421982 
L 123.61496 -389.380259 
L 123.013094 -389.338537 
L 122.411229 -389.296814 
L 121.809363 -389.255092 
L 121.207498 -389.290448 
L 120.605632 -389.340079 
L 120.003767 -389.38971 
L 119.401901 -389.43934 
L 118.800036 -389.488971 
L 118.19817 -389.538602 
L 117.596305 -389.588233 
L 116.994439 -389.637863 
L 116.392574 -389.687494 
L 115.790708 -389.737125 
L 115.188843 -389.750014 
L 114.586977 -389.715664 
L 113.985112 -389.681314 
L 113.383246 -389.646964 
L 112.781381 -389.612614 
L 112.179515 -389.578264 
L 111.57765 -389.543914 
L 110.975784 -389.509564 
L 110.373919 -389.475214 
L 109.772053 -389.446781 
L 109.170188 -389.515693 
L 108.568322 -389.532468 
L 107.966457 -389.549242 
L 107.364591 -389.566017 
L 106.762726 -389.591054 
L 106.16086 -389.636565 
L 105.558995 -389.682076 
L 104.957129 -389.727586 
L 104.355264 -389.773097 
L 103.753398 -389.818608 
L 103.151533 -389.864119 
L 102.549667 -389.868603 
L 101.947802 -389.848471 
L 101.345936 -389.828339 
L 100.744071 -389.808206 
L 100.142205 -389.788074 
L 99.54034 -389.767942 
L 98.938474 -389.74781 
L 98.336609 -389.73127 
L 97.734743 -389.736718 
L 97.132878 -389.742166 
L 96.531012 -389.747849 
L 95.929147 -389.754371 
L 95.327281 -389.760893 
L 94.725416 -389.767415 
L 94.12355 -389.773937 
L 93.521685 -389.780459 
L 92.919819 -389.786981 
L 92.317954 -389.793503 
L 91.716088 -389.800025 
L 91.114223 -389.806548 
L 90.512357 -389.81307 
L 89.910492 -389.824896 
L 89.308626 -389.836532 
L 88.706761 -389.848168 
L 88.104895 -389.859804 
L 87.50303 -389.873874 
L 86.901164 -389.894506 
L 86.299299 -389.915138 
L 85.697433 -389.93577 
L 85.095568 -389.956402 
L 84.493702 -389.977034 
L 83.891837 -389.98519 
L 83.289971 -389.975111 
L 82.688106 -389.965033 
L 82.08624 -389.954954 
L 81.484375 -389.958015 
L 80.882509 -389.962891 
L 80.280644 -389.967767 
L 79.678778 -389.972644 
L 79.076913 -389.97752 
L 78.475047 -389.982396 
L 77.873182 -389.987273 
z
" style="stroke: #00008b; stroke-opacity: 0.3"/>
    </defs>
    <g clip-path="url(#p1cbebb30d9)">
     <use xlink:href="#m66e05168bf" x="0" y="432" style="fill: #00008b; fill-opacity: 0.3; stroke: #00008b; stroke-opacity: 0.3"/>
    </g>
   </g>
   <g id="matplotlib.axis_1">
    <g id="xtick_1">
     <g id="line2d_1">
      <defs>
       <path id="mc52c73a002" d="M 0 0 
L 0 3.5 
" style="stroke: #000000; stroke-width: 0.8"/>
      </defs>
      <g>
       <use xlink:href="#mc52c73a002" x="71.610019" y="390.04" style="stroke: #000000; stroke-width: 0.8"/>
      </g>
     </g>
     <g id="text_1">
      <!-- 0 -->
      <g transform="translate(68.428769 404.638438) scale(0.1 -0.1)">
       <defs>
        <path id="DejaVuSans-30" d="M 2034 4250 
Q 1547 4250 1301 3770 
Q 1056 3291 1056 2328 
Q 1056 1369 1301 889 
Q 1547 409 2034 409 
Q 2525 409 2770 889 
Q 3016 1369 3016 2328 
Q 3016 3291 2770 3770 
Q 2525 4250 2034 4250 
z
M 2034 4750 
Q 2819 4750 3233 4129 
Q 3647 3509 3647 2328 
Q 3647 1150 3233 529 
Q 2819 -91 2034 -91 
Q 1250 -91 836 529 
Q 422 1150 422 2328 
Q 422 3509 836 4129 
Q 1250 4750 2034 4750 
z
" transform="scale(0.015625)"/>
       </defs>
       <use xlink:href="#DejaVuSans-30"/>
      </g>
     </g>
    </g>
    <g id="xtick_2">
     <g id="line2d_2">
      <g>
       <use xlink:href="#mc52c73a002" x="193.937419" y="390.04" style="stroke: #000000; stroke-width: 0.8"/>
      </g>
     </g>
     <g id="text_2">
      <!-- 20000 -->
      <g transform="translate(178.031169 404.638438) scale(0.1 -0.1)">
       <defs>
        <path id="DejaVuSans-32" d="M 1228 531 
L 3431 531 
L 3431 0 
L 469 0 
L 469 531 
Q 828 903 1448 1529 
Q 2069 2156 2228 2338 
Q 2531 2678 2651 2914 
Q 2772 3150 2772 3378 
Q 2772 3750 2511 3984 
Q 2250 4219 1831 4219 
Q 1534 4219 1204 4116 
Q 875 4013 500 3803 
L 500 4441 
Q 881 4594 1212 4672 
Q 1544 4750 1819 4750 
Q 2544 4750 2975 4387 
Q 3406 4025 3406 3419 
Q 3406 3131 3298 2873 
Q 3191 2616 2906 2266 
Q 2828 2175 2409 1742 
Q 1991 1309 1228 531 
z
" transform="scale(0.015625)"/>
       </defs>
       <use xlink:href="#DejaVuSans-32"/>
       <use xlink:href="#DejaVuSans-30" transform="translate(63.623047 0)"/>
       <use xlink:href="#DejaVuSans-30" transform="translate(127.246094 0)"/>
       <use xlink:href="#DejaVuSans-30" transform="translate(190.869141 0)"/>
       <use xlink:href="#DejaVuSans-30" transform="translate(254.492188 0)"/>
      </g>
     </g>
    </g>
    <g id="xtick_3">
     <g id="line2d_3">
      <g>
       <use xlink:href="#mc52c73a002" x="316.264819" y="390.04" style="stroke: #000000; stroke-width: 0.8"/>
      </g>
     </g>
     <g id="text_3">
      <!-- 40000 -->
      <g transform="translate(300.358569 404.638438) scale(0.1 -0.1)">
       <defs>
        <path id="DejaVuSans-34" d="M 2419 4116 
L 825 1625 
L 2419 1625 
L 2419 4116 
z
M 2253 4666 
L 3047 4666 
L 3047 1625 
L 3713 1625 
L 3713 1100 
L 3047 1100 
L 3047 0 
L 2419 0 
L 2419 1100 
L 313 1100 
L 313 1709 
L 2253 4666 
z
" transform="scale(0.015625)"/>
       </defs>
       <use xlink:href="#DejaVuSans-34"/>
       <use xlink:href="#DejaVuSans-30" transform="translate(63.623047 0)"/>
       <use xlink:href="#DejaVuSans-30" transform="translate(127.246094 0)"/>
       <use xlink:href="#DejaVuSans-30" transform="translate(190.869141 0)"/>
       <use xlink:href="#DejaVuSans-30" transform="translate(254.492188 0)"/>
      </g>
     </g>
    </g>
    <g id="xtick_4">
     <g id="line2d_4">
      <g>
       <use xlink:href="#mc52c73a002" x="438.592219" y="390.04" style="stroke: #000000; stroke-width: 0.8"/>
      </g>
     </g>
     <g id="text_4">
      <!-- 60000 -->
      <g transform="translate(422.685969 404.638438) scale(0.1 -0.1)">
       <defs>
        <path id="DejaVuSans-36" d="M 2113 2584 
Q 1688 2584 1439 2293 
Q 1191 2003 1191 1497 
Q 1191 994 1439 701 
Q 1688 409 2113 409 
Q 2538 409 2786 701 
Q 3034 994 3034 1497 
Q 3034 2003 2786 2293 
Q 2538 2584 2113 2584 
z
M 3366 4563 
L 3366 3988 
Q 3128 4100 2886 4159 
Q 2644 4219 2406 4219 
Q 1781 4219 1451 3797 
Q 1122 3375 1075 2522 
Q 1259 2794 1537 2939 
Q 1816 3084 2150 3084 
Q 2853 3084 3261 2657 
Q 3669 2231 3669 1497 
Q 3669 778 3244 343 
Q 2819 -91 2113 -91 
Q 1303 -91 875 529 
Q 447 1150 447 2328 
Q 447 3434 972 4092 
Q 1497 4750 2381 4750 
Q 2619 4750 2861 4703 
Q 3103 4656 3366 4563 
z
" transform="scale(0.015625)"/>
       </defs>
       <use xlink:href="#DejaVuSans-36"/>
       <use xlink:href="#DejaVuSans-30" transform="translate(63.623047 0)"/>
       <use xlink:href="#DejaVuSans-30" transform="translate(127.246094 0)"/>
       <use xlink:href="#DejaVuSans-30" transform="translate(190.869141 0)"/>
       <use xlink:href="#DejaVuSans-30" transform="translate(254.492188 0)"/>
      </g>
     </g>
    </g>
    <g id="xtick_5">
     <g id="line2d_5">
      <g>
       <use xlink:href="#mc52c73a002" x="560.919619" y="390.04" style="stroke: #000000; stroke-width: 0.8"/>
      </g>
     </g>
     <g id="text_5">
      <!-- 80000 -->
      <g transform="translate(545.013369 404.638438) scale(0.1 -0.1)">
       <defs>
        <path id="DejaVuSans-38" d="M 2034 2216 
Q 1584 2216 1326 1975 
Q 1069 1734 1069 1313 
Q 1069 891 1326 650 
Q 1584 409 2034 409 
Q 2484 409 2743 651 
Q 3003 894 3003 1313 
Q 3003 1734 2745 1975 
Q 2488 2216 2034 2216 
z
M 1403 2484 
Q 997 2584 770 2862 
Q 544 3141 544 3541 
Q 544 4100 942 4425 
Q 1341 4750 2034 4750 
Q 2731 4750 3128 4425 
Q 3525 4100 3525 3541 
Q 3525 3141 3298 2862 
Q 3072 2584 2669 2484 
Q 3125 2378 3379 2068 
Q 3634 1759 3634 1313 
Q 3634 634 3220 271 
Q 2806 -91 2034 -91 
Q 1263 -91 848 271 
Q 434 634 434 1313 
Q 434 1759 690 2068 
Q 947 2378 1403 2484 
z
M 1172 3481 
Q 1172 3119 1398 2916 
Q 1625 2713 2034 2713 
Q 2441 2713 2670 2916 
Q 2900 3119 2900 3481 
Q 2900 3844 2670 4047 
Q 2441 4250 2034 4250 
Q 1625 4250 1398 4047 
Q 1172 3844 1172 3481 
z
" transform="scale(0.015625)"/>
       </defs>
       <use xlink:href="#DejaVuSans-38"/>
       <use xlink:href="#DejaVuSans-30" transform="translate(63.623047 0)"/>
       <use xlink:href="#DejaVuSans-30" transform="translate(127.246094 0)"/>
       <use xlink:href="#DejaVuSans-30" transform="translate(190.869141 0)"/>
       <use xlink:href="#DejaVuSans-30" transform="translate(254.492188 0)"/>
      </g>
     </g>
    </g>
    <g id="xtick_6">
     <g id="line2d_6">
      <g>
       <use xlink:href="#mc52c73a002" x="683.247019" y="390.04" style="stroke: #000000; stroke-width: 0.8"/>
      </g>
     </g>
     <g id="text_6">
      <!-- 100000 -->
      <g transform="translate(664.159519 404.638438) scale(0.1 -0.1)">
       <defs>
        <path id="DejaVuSans-31" d="M 794 531 
L 1825 531 
L 1825 4091 
L 703 3866 
L 703 4441 
L 1819 4666 
L 2450 4666 
L 2450 531 
L 3481 531 
L 3481 0 
L 794 0 
L 794 531 
z
" transform="scale(0.015625)"/>
       </defs>
       <use xlink:href="#DejaVuSans-31"/>
       <use xlink:href="#DejaVuSans-30" transform="translate(63.623047 0)"/>
       <use xlink:href="#DejaVuSans-30" transform="translate(127.246094 0)"/>
       <use xlink:href="#DejaVuSans-30" transform="translate(190.869141 0)"/>
       <use xlink:href="#DejaVuSans-30" transform="translate(254.492188 0)"/>
       <use xlink:href="#DejaVuSans-30" transform="translate(318.115234 0)"/>
      </g>
     </g>
    </g>
    <g id="text_7">
     <!-- Step -->
     <g transform="translate(367.119844 418.316562) scale(0.1 -0.1)">
      <defs>
       <path id="DejaVuSans-53" d="M 3425 4513 
L 3425 3897 
Q 3066 4069 2747 4153 
Q 2428 4238 2131 4238 
Q 1616 4238 1336 4038 
Q 1056 3838 1056 3469 
Q 1056 3159 1242 3001 
Q 1428 2844 1947 2747 
L 2328 2669 
Q 3034 2534 3370 2195 
Q 3706 1856 3706 1288 
Q 3706 609 3251 259 
Q 2797 -91 1919 -91 
Q 1588 -91 1214 -16 
Q 841 59 441 206 
L 441 856 
Q 825 641 1194 531 
Q 1563 422 1919 422 
Q 2459 422 2753 634 
Q 3047 847 3047 1241 
Q 3047 1584 2836 1778 
Q 2625 1972 2144 2069 
L 1759 2144 
Q 1053 2284 737 2584 
Q 422 2884 422 3419 
Q 422 4038 858 4394 
Q 1294 4750 2059 4750 
Q 2388 4750 2728 4690 
Q 3069 4631 3425 4513 
z
" transform="scale(0.015625)"/>
       <path id="DejaVuSans-74" d="M 1172 4494 
L 1172 3500 
L 2356 3500 
L 2356 3053 
L 1172 3053 
L 1172 1153 
Q 1172 725 1289 603 
Q 1406 481 1766 481 
L 2356 481 
L 2356 0 
L 1766 0 
Q 1100 0 847 248 
Q 594 497 594 1153 
L 594 3053 
L 172 3053 
L 172 3500 
L 594 3500 
L 594 4494 
L 1172 4494 
z
" transform="scale(0.015625)"/>
       <path id="DejaVuSans-65" d="M 3597 1894 
L 3597 1613 
L 953 1613 
Q 991 1019 1311 708 
Q 1631 397 2203 397 
Q 2534 397 2845 478 
Q 3156 559 3463 722 
L 3463 178 
Q 3153 47 2828 -22 
Q 2503 -91 2169 -91 
Q 1331 -91 842 396 
Q 353 884 353 1716 
Q 353 2575 817 3079 
Q 1281 3584 2069 3584 
Q 2775 3584 3186 3129 
Q 3597 2675 3597 1894 
z
M 3022 2063 
Q 3016 2534 2758 2815 
Q 2500 3097 2075 3097 
Q 1594 3097 1305 2825 
Q 1016 2553 972 2059 
L 3022 2063 
z
" transform="scale(0.015625)"/>
       <path id="DejaVuSans-70" d="M 1159 525 
L 1159 -1331 
L 581 -1331 
L 581 3500 
L 1159 3500 
L 1159 2969 
Q 1341 3281 1617 3432 
Q 1894 3584 2278 3584 
Q 2916 3584 3314 3078 
Q 3713 2572 3713 1747 
Q 3713 922 3314 415 
Q 2916 -91 2278 -91 
Q 1894 -91 1617 61 
Q 1341 213 1159 525 
z
M 3116 1747 
Q 3116 2381 2855 2742 
Q 2594 3103 2138 3103 
Q 1681 3103 1420 2742 
Q 1159 2381 1159 1747 
Q 1159 1113 1420 752 
Q 1681 391 2138 391 
Q 2594 391 2855 752 
Q 3116 1113 3116 1747 
z
" transform="scale(0.015625)"/>
      </defs>
      <use xlink:href="#DejaVuSans-53"/>
      <use xlink:href="#DejaVuSans-74" transform="translate(63.476562 0)"/>
      <use xlink:href="#DejaVuSans-65" transform="translate(102.685547 0)"/>
      <use xlink:href="#DejaVuSans-70" transform="translate(164.208984 0)"/>
     </g>
    </g>
   </g>
   <g id="matplotlib.axis_2">
    <g id="ytick_1">
     <g id="line2d_7">
      <defs>
       <path id="m04950f0038" d="M 0 0 
L -3.5 0 
" style="stroke: #000000; stroke-width: 0.8"/>
      </defs>
      <g>
       <use xlink:href="#m04950f0038" x="47.81" y="330.062105" style="stroke: #000000; stroke-width: 0.8"/>
      </g>
     </g>
     <g id="text_8">
      <!-- 0.5 -->
      <g transform="translate(24.906875 333.861323) scale(0.1 -0.1)">
       <defs>
        <path id="DejaVuSans-2e" d="M 684 794 
L 1344 794 
L 1344 0 
L 684 0 
L 684 794 
z
" transform="scale(0.015625)"/>
        <path id="DejaVuSans-35" d="M 691 4666 
L 3169 4666 
L 3169 4134 
L 1269 4134 
L 1269 2991 
Q 1406 3038 1543 3061 
Q 1681 3084 1819 3084 
Q 2600 3084 3056 2656 
Q 3513 2228 3513 1497 
Q 3513 744 3044 326 
Q 2575 -91 1722 -91 
Q 1428 -91 1123 -41 
Q 819 9 494 109 
L 494 744 
Q 775 591 1075 516 
Q 1375 441 1709 441 
Q 2250 441 2565 725 
Q 2881 1009 2881 1497 
Q 2881 1984 2565 2268 
Q 2250 2553 1709 2553 
Q 1456 2553 1204 2497 
Q 953 2441 691 2322 
L 691 4666 
z
" transform="scale(0.015625)"/>
       </defs>
       <use xlink:href="#DejaVuSans-30"/>
       <use xlink:href="#DejaVuSans-2e" transform="translate(63.623047 0)"/>
       <use xlink:href="#DejaVuSans-35" transform="translate(95.410156 0)"/>
      </g>
     </g>
    </g>
    <g id="ytick_2">
     <g id="line2d_8">
      <g>
       <use xlink:href="#m04950f0038" x="47.81" y="269.802" style="stroke: #000000; stroke-width: 0.8"/>
      </g>
     </g>
     <g id="text_9">
      <!-- 1.0 -->
      <g transform="translate(24.906875 273.601218) scale(0.1 -0.1)">
       <use xlink:href="#DejaVuSans-31"/>
       <use xlink:href="#DejaVuSans-2e" transform="translate(63.623047 0)"/>
       <use xlink:href="#DejaVuSans-30" transform="translate(95.410156 0)"/>
      </g>
     </g>
    </g>
    <g id="ytick_3">
     <g id="line2d_9">
      <g>
       <use xlink:href="#m04950f0038" x="47.81" y="209.541895" style="stroke: #000000; stroke-width: 0.8"/>
      </g>
     </g>
     <g id="text_10">
      <!-- 1.5 -->
      <g transform="translate(24.906875 213.341113) scale(0.1 -0.1)">
       <use xlink:href="#DejaVuSans-31"/>
       <use xlink:href="#DejaVuSans-2e" transform="translate(63.623047 0)"/>
       <use xlink:href="#DejaVuSans-35" transform="translate(95.410156 0)"/>
      </g>
     </g>
    </g>
    <g id="ytick_4">
     <g id="line2d_10">
      <g>
       <use xlink:href="#m04950f0038" x="47.81" y="149.28179" style="stroke: #000000; stroke-width: 0.8"/>
      </g>
     </g>
     <g id="text_11">
      <!-- 2.0 -->
      <g transform="translate(24.906875 153.081008) scale(0.1 -0.1)">
       <use xlink:href="#DejaVuSans-32"/>
       <use xlink:href="#DejaVuSans-2e" transform="translate(63.623047 0)"/>
       <use xlink:href="#DejaVuSans-30" transform="translate(95.410156 0)"/>
      </g>
     </g>
    </g>
    <g id="ytick_5">
     <g id="line2d_11">
      <g>
       <use xlink:href="#m04950f0038" x="47.81" y="89.021685" style="stroke: #000000; stroke-width: 0.8"/>
      </g>
     </g>
     <g id="text_12">
      <!-- 2.5 -->
      <g transform="translate(24.906875 92.820903) scale(0.1 -0.1)">
       <use xlink:href="#DejaVuSans-32"/>
       <use xlink:href="#DejaVuSans-2e" transform="translate(63.623047 0)"/>
       <use xlink:href="#DejaVuSans-35" transform="translate(95.410156 0)"/>
      </g>
     </g>
    </g>
    <g id="ytick_6">
     <g id="line2d_12">
      <g>
       <use xlink:href="#m04950f0038" x="47.81" y="28.76158" style="stroke: #000000; stroke-width: 0.8"/>
      </g>
     </g>
     <g id="text_13">
      <!-- 3.0 -->
      <g transform="translate(24.906875 32.560798) scale(0.1 -0.1)">
       <defs>
        <path id="DejaVuSans-33" d="M 2597 2516 
Q 3050 2419 3304 2112 
Q 3559 1806 3559 1356 
Q 3559 666 3084 287 
Q 2609 -91 1734 -91 
Q 1441 -91 1130 -33 
Q 819 25 488 141 
L 488 750 
Q 750 597 1062 519 
Q 1375 441 1716 441 
Q 2309 441 2620 675 
Q 2931 909 2931 1356 
Q 2931 1769 2642 2001 
Q 2353 2234 1838 2234 
L 1294 2234 
L 1294 2753 
L 1863 2753 
Q 2328 2753 2575 2939 
Q 2822 3125 2822 3475 
Q 2822 3834 2567 4026 
Q 2313 4219 1838 4219 
Q 1578 4219 1281 4162 
Q 984 4106 628 3988 
L 628 4550 
Q 988 4650 1302 4700 
Q 1616 4750 1894 4750 
Q 2613 4750 3031 4423 
Q 3450 4097 3450 3541 
Q 3450 3153 3228 2886 
Q 3006 2619 2597 2516 
z
" transform="scale(0.015625)"/>
       </defs>
       <use xlink:href="#DejaVuSans-33"/>
       <use xlink:href="#DejaVuSans-2e" transform="translate(63.623047 0)"/>
       <use xlink:href="#DejaVuSans-30" transform="translate(95.410156 0)"/>
      </g>
     </g>
    </g>
    <g id="text_14">
     <!-- losses/entropy -->
     <g transform="translate(18.827187 244.104844) rotate(-90) scale(0.1 -0.1)">
      <defs>
       <path id="DejaVuSans-6c" d="M 603 4863 
L 1178 4863 
L 1178 0 
L 603 0 
L 603 4863 
z
" transform="scale(0.015625)"/>
       <path id="DejaVuSans-6f" d="M 1959 3097 
Q 1497 3097 1228 2736 
Q 959 2375 959 1747 
Q 959 1119 1226 758 
Q 1494 397 1959 397 
Q 2419 397 2687 759 
Q 2956 1122 2956 1747 
Q 2956 2369 2687 2733 
Q 2419 3097 1959 3097 
z
M 1959 3584 
Q 2709 3584 3137 3096 
Q 3566 2609 3566 1747 
Q 3566 888 3137 398 
Q 2709 -91 1959 -91 
Q 1206 -91 779 398 
Q 353 888 353 1747 
Q 353 2609 779 3096 
Q 1206 3584 1959 3584 
z
" transform="scale(0.015625)"/>
       <path id="DejaVuSans-73" d="M 2834 3397 
L 2834 2853 
Q 2591 2978 2328 3040 
Q 2066 3103 1784 3103 
Q 1356 3103 1142 2972 
Q 928 2841 928 2578 
Q 928 2378 1081 2264 
Q 1234 2150 1697 2047 
L 1894 2003 
Q 2506 1872 2764 1633 
Q 3022 1394 3022 966 
Q 3022 478 2636 193 
Q 2250 -91 1575 -91 
Q 1294 -91 989 -36 
Q 684 19 347 128 
L 347 722 
Q 666 556 975 473 
Q 1284 391 1588 391 
Q 1994 391 2212 530 
Q 2431 669 2431 922 
Q 2431 1156 2273 1281 
Q 2116 1406 1581 1522 
L 1381 1569 
Q 847 1681 609 1914 
Q 372 2147 372 2553 
Q 372 3047 722 3315 
Q 1072 3584 1716 3584 
Q 2034 3584 2315 3537 
Q 2597 3491 2834 3397 
z
" transform="scale(0.015625)"/>
       <path id="DejaVuSans-2f" d="M 1625 4666 
L 2156 4666 
L 531 -594 
L 0 -594 
L 1625 4666 
z
" transform="scale(0.015625)"/>
       <path id="DejaVuSans-6e" d="M 3513 2113 
L 3513 0 
L 2938 0 
L 2938 2094 
Q 2938 2591 2744 2837 
Q 2550 3084 2163 3084 
Q 1697 3084 1428 2787 
Q 1159 2491 1159 1978 
L 1159 0 
L 581 0 
L 581 3500 
L 1159 3500 
L 1159 2956 
Q 1366 3272 1645 3428 
Q 1925 3584 2291 3584 
Q 2894 3584 3203 3211 
Q 3513 2838 3513 2113 
z
" transform="scale(0.015625)"/>
       <path id="DejaVuSans-72" d="M 2631 2963 
Q 2534 3019 2420 3045 
Q 2306 3072 2169 3072 
Q 1681 3072 1420 2755 
Q 1159 2438 1159 1844 
L 1159 0 
L 581 0 
L 581 3500 
L 1159 3500 
L 1159 2956 
Q 1341 3275 1631 3429 
Q 1922 3584 2338 3584 
Q 2397 3584 2469 3576 
Q 2541 3569 2628 3553 
L 2631 2963 
z
" transform="scale(0.015625)"/>
       <path id="DejaVuSans-79" d="M 2059 -325 
Q 1816 -950 1584 -1140 
Q 1353 -1331 966 -1331 
L 506 -1331 
L 506 -850 
L 844 -850 
Q 1081 -850 1212 -737 
Q 1344 -625 1503 -206 
L 1606 56 
L 191 3500 
L 800 3500 
L 1894 763 
L 2988 3500 
L 3597 3500 
L 2059 -325 
z
" transform="scale(0.015625)"/>
      </defs>
      <use xlink:href="#DejaVuSans-6c"/>
      <use xlink:href="#DejaVuSans-6f" transform="translate(27.783203 0)"/>
      <use xlink:href="#DejaVuSans-73" transform="translate(88.964844 0)"/>
      <use xlink:href="#DejaVuSans-73" transform="translate(141.064453 0)"/>
      <use xlink:href="#DejaVuSans-65" transform="translate(193.164062 0)"/>
      <use xlink:href="#DejaVuSans-73" transform="translate(254.6875 0)"/>
      <use xlink:href="#DejaVuSans-2f" transform="translate(306.787109 0)"/>
      <use xlink:href="#DejaVuSans-65" transform="translate(340.478516 0)"/>
      <use xlink:href="#DejaVuSans-6e" transform="translate(402.001953 0)"/>
      <use xlink:href="#DejaVuSans-74" transform="translate(465.380859 0)"/>
      <use xlink:href="#DejaVuSans-72" transform="translate(504.589844 0)"/>
      <use xlink:href="#DejaVuSans-6f" transform="translate(543.453125 0)"/>
      <use xlink:href="#DejaVuSans-70" transform="translate(604.634766 0)"/>
      <use xlink:href="#DejaVuSans-79" transform="translate(668.111328 0)"/>
     </g>
    </g>
   </g>
   <g id="line2d_13">
    <path d="M 77.873182 141.883616 
L 87.50303 142.242604 
L 107.364591 143.464635 
L 113.985112 143.994424 
L 123.61496 144.621795 
L 130.23548 144.847472 
L 137.457867 145.389345 
L 148.893311 146.540782 
L 164.541814 148.457804 
L 175.375393 149.563298 
L 179.588452 149.945457 
L 185.607107 150.652753 
L 192.227627 151.083855 
L 201.857475 152.204344 
L 207.87613 152.863373 
L 210.283592 153.046886 
L 216.302247 153.275012 
L 224.126499 154.226921 
L 243.98806 156.166577 
L 248.201119 156.620572 
L 259.636563 157.24482 
L 272.275739 158.825414 
L 278.896259 158.053695 
L 284.914914 158.129231 
L 290.933569 159.618645 
L 296.952224 158.91366 
L 299.359687 159.178707 
L 303.572745 159.66129 
L 311.998862 159.223879 
L 316.211921 158.963043 
L 325.841769 160.736398 
L 333.66602 162.145957 
L 334.869751 162.324988 
L 343.897734 161.900363 
L 348.712658 161.652008 
L 356.536909 161.695197 
L 360.749968 161.889579 
L 366.166757 162.506355 
L 372.787278 164.4253 
L 378.805933 165.255479 
L 384.824588 165.22479 
L 390.843243 167.486027 
L 392.046974 167.45618 
L 398.065629 166.953813 
L 405.88988 167.032308 
L 410.704804 166.870007 
L 416.121594 166.319935 
L 425.751442 167.854944 
L 428.760769 168.344963 
L 435.38129 167.483447 
L 442.00181 167.589095 
L 447.4186 167.23378 
L 453.437255 169.452812 
L 454.640986 169.50052 
L 460.057776 169.329785 
L 466.678296 170.287527 
L 472.696951 170.019515 
L 485.937992 172.464962 
L 491.956647 172.888905 
L 497.373437 173.852477 
L 499.179033 173.693172 
L 503.993957 173.22886 
L 510.012612 174.206037 
L 523.253653 173.434256 
L 528.670443 172.531192 
L 530.476039 172.77874 
L 535.290963 173.542013 
L 543.71708 173.614894 
L 548.532004 173.601434 
L 559.365583 174.321134 
L 560.569314 174.452306 
L 567.189835 175.720529 
L 573.20849 176.303662 
L 579.82901 176.079826 
L 585.847665 176.352234 
L 594.875648 175.835037 
L 598.486841 175.776523 
L 605.709227 176.367076 
L 617.746537 177.894055 
L 622.561461 178.872038 
L 623.765192 178.780345 
L 629.181982 178.077461 
L 636.404368 178.34701 
L 641.219292 178.893221 
L 641.821157 178.824961 
L 647.839812 176.399617 
L 654.460333 178.109365 
L 661.080853 178.453027 
L 666.497643 179.395387 
L 669.50697 179.207687 
L 679.136818 178.535153 
L 679.136818 178.535153 
" clip-path="url(#p1cbebb30d9)" style="fill: none; stroke: #00008b; stroke-width: 1.5; stroke-linecap: square"/>
   </g>
   <g id="patch_3">
    <path d="M 47.81 390.04 
L 47.81 25.44 
" style="fill: none; stroke: #000000; stroke-width: 0.8; stroke-linejoin: miter; stroke-linecap: square"/>
   </g>
   <g id="patch_4">
    <path d="M 709.2 390.04 
L 709.2 25.44 
" style="fill: none; stroke: #000000; stroke-width: 0.8; stroke-linejoin: miter; stroke-linecap: square"/>
   </g>
   <g id="patch_5">
    <path d="M 47.81 390.04 
L 709.2 390.04 
" style="fill: none; stroke: #000000; stroke-width: 0.8; stroke-linejoin: miter; stroke-linecap: square"/>
   </g>
   <g id="patch_6">
    <path d="M 47.81 25.44 
L 709.2 25.44 
" style="fill: none; stroke: #000000; stroke-width: 0.8; stroke-linejoin: miter; stroke-linecap: square"/>
   </g>
   <g id="text_15">
    <!-- losses/entropy for ppo_atari (aggregated via interpolation over runs) -->
    <g transform="translate(172.030938 19.44) scale(0.12 -0.12)">
     <defs>
      <path id="DejaVuSans-20" transform="scale(0.015625)"/>
      <path id="DejaVuSans-66" d="M 2375 4863 
L 2375 4384 
L 1825 4384 
Q 1516 4384 1395 4259 
Q 1275 4134 1275 3809 
L 1275 3500 
L 2222 3500 
L 2222 3053 
L 1275 3053 
L 1275 0 
L 697 0 
L 697 3053 
L 147 3053 
L 147 3500 
L 697 3500 
L 697 3744 
Q 697 4328 969 4595 
Q 1241 4863 1831 4863 
L 2375 4863 
z
" transform="scale(0.015625)"/>
      <path id="DejaVuSans-5f" d="M 3263 -1063 
L 3263 -1509 
L -63 -1509 
L -63 -1063 
L 3263 -1063 
z
" transform="scale(0.015625)"/>
      <path id="DejaVuSans-61" d="M 2194 1759 
Q 1497 1759 1228 1600 
Q 959 1441 959 1056 
Q 959 750 1161 570 
Q 1363 391 1709 391 
Q 2188 391 2477 730 
Q 2766 1069 2766 1631 
L 2766 1759 
L 2194 1759 
z
M 3341 1997 
L 3341 0 
L 2766 0 
L 2766 531 
Q 2569 213 2275 61 
Q 1981 -91 1556 -91 
Q 1019 -91 701 211 
Q 384 513 384 1019 
Q 384 1609 779 1909 
Q 1175 2209 1959 2209 
L 2766 2209 
L 2766 2266 
Q 2766 2663 2505 2880 
Q 2244 3097 1772 3097 
Q 1472 3097 1187 3025 
Q 903 2953 641 2809 
L 641 3341 
Q 956 3463 1253 3523 
Q 1550 3584 1831 3584 
Q 2591 3584 2966 3190 
Q 3341 2797 3341 1997 
z
" transform="scale(0.015625)"/>
      <path id="DejaVuSans-69" d="M 603 3500 
L 1178 3500 
L 1178 0 
L 603 0 
L 603 3500 
z
M 603 4863 
L 1178 4863 
L 1178 4134 
L 603 4134 
L 603 4863 
z
" transform="scale(0.015625)"/>
      <path id="DejaVuSans-28" d="M 1984 4856 
Q 1566 4138 1362 3434 
Q 1159 2731 1159 2009 
Q 1159 1288 1364 580 
Q 1569 -128 1984 -844 
L 1484 -844 
Q 1016 -109 783 600 
Q 550 1309 550 2009 
Q 550 2706 781 3412 
Q 1013 4119 1484 4856 
L 1984 4856 
z
" transform="scale(0.015625)"/>
      <path id="DejaVuSans-67" d="M 2906 1791 
Q 2906 2416 2648 2759 
Q 2391 3103 1925 3103 
Q 1463 3103 1205 2759 
Q 947 2416 947 1791 
Q 947 1169 1205 825 
Q 1463 481 1925 481 
Q 2391 481 2648 825 
Q 2906 1169 2906 1791 
z
M 3481 434 
Q 3481 -459 3084 -895 
Q 2688 -1331 1869 -1331 
Q 1566 -1331 1297 -1286 
Q 1028 -1241 775 -1147 
L 775 -588 
Q 1028 -725 1275 -790 
Q 1522 -856 1778 -856 
Q 2344 -856 2625 -561 
Q 2906 -266 2906 331 
L 2906 616 
Q 2728 306 2450 153 
Q 2172 0 1784 0 
Q 1141 0 747 490 
Q 353 981 353 1791 
Q 353 2603 747 3093 
Q 1141 3584 1784 3584 
Q 2172 3584 2450 3431 
Q 2728 3278 2906 2969 
L 2906 3500 
L 3481 3500 
L 3481 434 
z
" transform="scale(0.015625)"/>
      <path id="DejaVuSans-64" d="M 2906 2969 
L 2906 4863 
L 3481 4863 
L 3481 0 
L 2906 0 
L 2906 525 
Q 2725 213 2448 61 
Q 2172 -91 1784 -91 
Q 1150 -91 751 415 
Q 353 922 353 1747 
Q 353 2572 751 3078 
Q 1150 3584 1784 3584 
Q 2172 3584 2448 3432 
Q 2725 3281 2906 2969 
z
M 947 1747 
Q 947 1113 1208 752 
Q 1469 391 1925 391 
Q 2381 391 2643 752 
Q 2906 1113 2906 1747 
Q 2906 2381 2643 2742 
Q 2381 3103 1925 3103 
Q 1469 3103 1208 2742 
Q 947 2381 947 1747 
z
" transform="scale(0.015625)"/>
      <path id="DejaVuSans-76" d="M 191 3500 
L 800 3500 
L 1894 563 
L 2988 3500 
L 3597 3500 
L 2284 0 
L 1503 0 
L 191 3500 
z
" transform="scale(0.015625)"/>
      <path id="DejaVuSans-75" d="M 544 1381 
L 544 3500 
L 1119 3500 
L 1119 1403 
Q 1119 906 1312 657 
Q 1506 409 1894 409 
Q 2359 409 2629 706 
Q 2900 1003 2900 1516 
L 2900 3500 
L 3475 3500 
L 3475 0 
L 2900 0 
L 2900 538 
Q 2691 219 2414 64 
Q 2138 -91 1772 -91 
Q 1169 -91 856 284 
Q 544 659 544 1381 
z
M 1991 3584 
L 1991 3584 
z
" transform="scale(0.015625)"/>
      <path id="DejaVuSans-29" d="M 513 4856 
L 1013 4856 
Q 1481 4119 1714 3412 
Q 1947 2706 1947 2009 
Q 1947 1309 1714 600 
Q 1481 -109 1013 -844 
L 513 -844 
Q 928 -128 1133 580 
Q 1338 1288 1338 2009 
Q 1338 2731 1133 3434 
Q 928 4138 513 4856 
z
" transform="scale(0.015625)"/>
     </defs>
     <use xlink:href="#DejaVuSans-6c"/>
     <use xlink:href="#DejaVuSans-6f" transform="translate(27.783203 0)"/>
     <use xlink:href="#DejaVuSans-73" transform="translate(88.964844 0)"/>
     <use xlink:href="#DejaVuSans-73" transform="translate(141.064453 0)"/>
     <use xlink:href="#DejaVuSans-65" transform="translate(193.164062 0)"/>
     <use xlink:href="#DejaVuSans-73" transform="translate(254.6875 0)"/>
     <use xlink:href="#DejaVuSans-2f" transform="translate(306.787109 0)"/>
     <use xlink:href="#DejaVuSans-65" transform="translate(340.478516 0)"/>
     <use xlink:href="#DejaVuSans-6e" transform="translate(402.001953 0)"/>
     <use xlink:href="#DejaVuSans-74" transform="translate(465.380859 0)"/>
     <use xlink:href="#DejaVuSans-72" transform="translate(504.589844 0)"/>
     <use xlink:href="#DejaVuSans-6f" transform="translate(543.453125 0)"/>
     <use xlink:href="#DejaVuSans-70" transform="translate(604.634766 0)"/>
     <use xlink:href="#DejaVuSans-79" transform="translate(668.111328 0)"/>
     <use xlink:href="#DejaVuSans-20" transform="translate(727.291016 0)"/>
     <use xlink:href="#DejaVuSans-66" transform="translate(759.078125 0)"/>
     <use xlink:href="#DejaVuSans-6f" transform="translate(794.283203 0)"/>
     <use xlink:href="#DejaVuSans-72" transform="translate(855.464844 0)"/>
     <use xlink:href="#DejaVuSans-20" transform="translate(896.578125 0)"/>
     <use xlink:href="#DejaVuSans-70" transform="translate(928.365234 0)"/>
     <use xlink:href="#DejaVuSans-70" transform="translate(991.841797 0)"/>
     <use xlink:href="#DejaVuSans-6f" transform="translate(1055.318359 0)"/>
     <use xlink:href="#DejaVuSans-5f" transform="translate(1116.5 0)"/>
     <use xlink:href="#DejaVuSans-61" transform="translate(1166.5 0)"/>
     <use xlink:href="#DejaVuSans-74" transform="translate(1227.779297 0)"/>
     <use xlink:href="#DejaVuSans-61" transform="translate(1266.988281 0)"/>
     <use xlink:href="#DejaVuSans-72" transform="translate(1328.267578 0)"/>
     <use xlink:href="#DejaVuSans-69" transform="translate(1369.380859 0)"/>
     <use xlink:href="#DejaVuSans-20" transform="translate(1397.164062 0)"/>
     <use xlink:href="#DejaVuSans-28" transform="translate(1428.951172 0)"/>
     <use xlink:href="#DejaVuSans-61" transform="translate(1467.964844 0)"/>
     <use xlink:href="#DejaVuSans-67" transform="translate(1529.244141 0)"/>
     <use xlink:href="#DejaVuSans-67" transform="translate(1592.720703 0)"/>
     <use xlink:href="#DejaVuSans-72" transform="translate(1656.197266 0)"/>
     <use xlink:href="#DejaVuSans-65" transform="translate(1695.060547 0)"/>
     <use xlink:href="#DejaVuSans-67" transform="translate(1756.583984 0)"/>
     <use xlink:href="#DejaVuSans-61" transform="translate(1820.060547 0)"/>
     <use xlink:href="#DejaVuSans-74" transform="translate(1881.339844 0)"/>
     <use xlink:href="#DejaVuSans-65" transform="translate(1920.548828 0)"/>
     <use xlink:href="#DejaVuSans-64" transform="translate(1982.072266 0)"/>
     <use xlink:href="#DejaVuSans-20" transform="translate(2045.548828 0)"/>
     <use xlink:href="#DejaVuSans-76" transform="translate(2077.335938 0)"/>
     <use xlink:href="#DejaVuSans-69" transform="translate(2136.515625 0)"/>
     <use xlink:href="#DejaVuSans-61" transform="translate(2164.298828 0)"/>
     <use xlink:href="#DejaVuSans-20" transform="translate(2225.578125 0)"/>
     <use xlink:href="#DejaVuSans-69" transform="translate(2257.365234 0)"/>
     <use xlink:href="#DejaVuSans-6e" transform="translate(2285.148438 0)"/>
     <use xlink:href="#DejaVuSans-74" transform="translate(2348.527344 0)"/>
     <use xlink:href="#DejaVuSans-65" transform="translate(2387.736328 0)"/>
     <use xlink:href="#DejaVuSans-72" transform="translate(2449.259766 0)"/>
     <use xlink:href="#DejaVuSans-70" transform="translate(2490.373047 0)"/>
     <use xlink:href="#DejaVuSans-6f" transform="translate(2553.849609 0)"/>
     <use xlink:href="#DejaVuSans-6c" transform="translate(2615.03125 0)"/>
     <use xlink:href="#DejaVuSans-61" transform="translate(2642.814453 0)"/>
     <use xlink:href="#DejaVuSans-74" transform="translate(2704.09375 0)"/>
     <use xlink:href="#DejaVuSans-69" transform="translate(2743.302734 0)"/>
     <use xlink:href="#DejaVuSans-6f" transform="translate(2771.085938 0)"/>
     <use xlink:href="#DejaVuSans-6e" transform="translate(2832.267578 0)"/>
     <use xlink:href="#DejaVuSans-20" transform="translate(2895.646484 0)"/>
     <use xlink:href="#DejaVuSans-6f" transform="translate(2927.433594 0)"/>
     <use xlink:href="#DejaVuSans-76" transform="translate(2988.615234 0)"/>
     <use xlink:href="#DejaVuSans-65" transform="translate(3047.794922 0)"/>
     <use xlink:href="#DejaVuSans-72" transform="translate(3109.318359 0)"/>
     <use xlink:href="#DejaVuSans-20" transform="translate(3150.431641 0)"/>
     <use xlink:href="#DejaVuSans-72" transform="translate(3182.21875 0)"/>
     <use xlink:href="#DejaVuSans-75" transform="translate(3223.332031 0)"/>
     <use xlink:href="#DejaVuSans-6e" transform="translate(3286.710938 0)"/>
     <use xlink:href="#DejaVuSans-73" transform="translate(3350.089844 0)"/>
     <use xlink:href="#DejaVuSans-29" transform="translate(3402.189453 0)"/>
    </g>
   </g>
   <g id="legend_1">
    <g id="patch_7">
     <path d="M 54.81 385.04 
L 130.22875 385.04 
Q 132.22875 385.04 132.22875 383.04 
L 132.22875 354.68375 
Q 132.22875 352.68375 130.22875 352.68375 
L 54.81 352.68375 
Q 52.81 352.68375 52.81 354.68375 
L 52.81 383.04 
Q 52.81 385.04 54.81 385.04 
z
" style="fill: #ffffff; opacity: 0.8; stroke: #cccccc; stroke-linejoin: miter"/>
    </g>
    <g id="line2d_14">
     <path d="M 56.81 360.782187 
L 66.81 360.782187 
L 76.81 360.782187 
" style="fill: none; stroke: #00008b; stroke-width: 1.5; stroke-linecap: square"/>
    </g>
    <g id="text_16">
     <!-- Mean -->
     <g transform="translate(84.81 364.282187) scale(0.1 -0.1)">
      <defs>
       <path id="DejaVuSans-4d" d="M 628 4666 
L 1569 4666 
L 2759 1491 
L 3956 4666 
L 4897 4666 
L 4897 0 
L 4281 0 
L 4281 4097 
L 3078 897 
L 2444 897 
L 1241 4097 
L 1241 0 
L 628 0 
L 628 4666 
z
" transform="scale(0.015625)"/>
      </defs>
      <use xlink:href="#DejaVuSans-4d"/>
      <use xlink:href="#DejaVuSans-65" transform="translate(86.279297 0)"/>
      <use xlink:href="#DejaVuSans-61" transform="translate(147.802734 0)"/>
      <use xlink:href="#DejaVuSans-6e" transform="translate(209.082031 0)"/>
     </g>
    </g>
    <g id="patch_8">
     <path d="M 56.81 378.960312 
L 76.81 378.960312 
L 76.81 371.960312 
L 56.81 371.960312 
z
" style="fill: #00008b; fill-opacity: 0.3; stroke: #00008b; stroke-opacity: 0.3; stroke-linejoin: miter"/>
    </g>
    <g id="text_17">
     <!-- MinMax -->
     <g transform="translate(84.81 378.960312) scale(0.1 -0.1)">
      <defs>
       <path id="DejaVuSans-2013" d="M 313 1978 
L 2888 1978 
L 2888 1528 
L 313 1528 
L 313 1978 
z
" transform="scale(0.015625)"/>
       <path id="DejaVuSans-78" d="M 3513 3500 
L 2247 1797 
L 3578 0 
L 2900 0 
L 1881 1375 
L 863 0 
L 184 0 
L 1544 1831 
L 300 3500 
L 978 3500 
L 1906 2253 
L 2834 3500 
L 3513 3500 
z
" transform="scale(0.015625)"/>
      </defs>
      <use xlink:href="#DejaVuSans-4d"/>
      <use xlink:href="#DejaVuSans-69" transform="translate(86.279297 0)"/>
      <use xlink:href="#DejaVuSans-6e" transform="translate(114.0625 0)"/>
      <use xlink:href="#DejaVuSans-2013" transform="translate(177.441406 0)"/>
      <use xlink:href="#DejaVuSans-4d" transform="translate(227.441406 0)"/>
      <use xlink:href="#DejaVuSans-61" transform="translate(313.720703 0)"/>
      <use xlink:href="#DejaVuSans-78" transform="translate(375 0)"/>
     </g>
    </g>
   </g>
  </g>
 </g>
 <defs>
  <clipPath id="p1cbebb30d9">
   <rect x="47.81" y="25.44" width="661.39" height="364.6"/>
  </clipPath>
 </defs>
</svg>
