<?xml version="1.0" encoding="utf-8" standalone="no"?>
<!DOCTYPE svg PUBLIC "-//W3C//DTD SVG 1.1//EN"
  "http://www.w3.org/Graphics/SVG/1.1/DTD/svg11.dtd">
<svg xmlns:xlink="http://www.w3.org/1999/xlink" width="720pt" height="432pt" viewBox="0 0 720 432" xmlns="http://www.w3.org/2000/svg" version="1.1">
 <metadata>
  <rdf:RDF xmlns:dc="http://purl.org/dc/elements/1.1/" xmlns:cc="http://creativecommons.org/ns#" xmlns:rdf="http://www.w3.org/1999/02/22-rdf-syntax-ns#">
   <cc:Work>
    <dc:type rdf:resource="http://purl.org/dc/dcmitype/StillImage"/>
    <dc:date>2025-02-05T20:31:46.846638</dc:date>
    <dc:format>image/svg+xml</dc:format>
    <dc:creator>
     <cc:Agent>
      <dc:title>Matplotlib v3.10.0, https://matplotlib.org/</dc:title>
     </cc:Agent>
    </dc:creator>
   </cc:Work>
  </rdf:RDF>
 </metadata>
 <defs>
  <style type="text/css">*{stroke-linejoin: round; stroke-linecap: butt}</style>
 </defs>
 <g id="figure_1">
  <g id="patch_1">
   <path d="M 0 432 
L 720 432 
L 720 0 
L 0 0 
z
" style="fill: #ffffff"/>
  </g>
  <g id="axes_1">
   <g id="patch_2">
    <path d="M 46.74125 390.04 
L 709.2 390.04 
L 709.2 25.44 
L 46.74125 25.44 
z
" style="fill: #ffffff"/>
   </g>
   <g id="FillBetweenPolyCollection_1">
    <defs>
     <path id="mf662a781f3" d="M 76.853011 -311.662843 
L 76.853011 -269.133014 
L 77.455849 -268.482357 
L 78.058687 -268.362124 
L 78.661526 -268.362124 
L 79.264364 -268.723743 
L 79.867202 -268.653163 
L 80.47004 -268.483256 
L 81.072878 -268.747437 
L 81.675716 -268.362124 
L 82.278554 -268.408158 
L 82.881392 -269.016884 
L 83.48423 -268.590268 
L 84.087068 -268.362124 
L 84.689906 -268.791018 
L 85.292744 -268.748014 
L 85.895582 -268.362124 
L 86.49842 -268.362124 
L 87.101258 -268.838521 
L 87.704097 -268.76977 
L 88.306935 -268.457246 
L 88.909773 -268.377087 
L 89.512611 -268.362124 
L 90.115449 -268.471448 
L 90.718287 -268.99375 
L 91.321125 -269.208668 
L 91.923963 -268.440429 
L 92.526801 -268.362124 
L 93.129639 -268.239847 
L 93.732477 -264.15181 
L 94.335315 -260.063773 
L 94.938153 -255.975736 
L 95.540991 -251.887699 
L 96.143829 -247.799661 
L 96.746668 -243.711624 
L 97.349506 -239.623587 
L 97.952344 -240.521399 
L 98.555182 -242.56427 
L 99.15802 -244.60714 
L 99.760858 -246.650011 
L 100.363696 -248.692882 
L 100.966534 -250.735753 
L 101.569372 -252.778624 
L 102.17221 -254.821495 
L 102.775048 -256.864366 
L 103.377886 -255.917708 
L 103.980724 -254.555029 
L 104.583562 -253.19235 
L 105.1864 -251.829671 
L 105.789238 -250.466992 
L 106.392077 -249.104313 
L 106.994915 -247.741634 
L 107.597753 -246.378955 
L 108.200591 -245.016276 
L 108.803429 -246.198912 
L 109.406267 -247.560062 
L 110.009105 -248.921211 
L 110.611943 -250.282361 
L 111.214781 -251.643511 
L 111.817619 -253.00466 
L 112.420457 -254.36581 
L 113.023295 -255.72696 
L 113.626133 -257.088109 
L 114.228971 -258.449259 
L 114.831809 -259.810409 
L 115.434648 -258.943846 
L 116.037486 -257.578867 
L 116.640324 -256.213887 
L 117.243162 -254.848907 
L 117.846 -253.483928 
L 118.448838 -252.118948 
L 119.051676 -251.173891 
L 119.654514 -252.198202 
L 120.257352 -253.222513 
L 120.86019 -254.087432 
L 121.463028 -249.315374 
L 122.065866 -244.543317 
L 122.668704 -239.771259 
L 123.271542 -234.999201 
L 123.87438 -230.227144 
L 124.477219 -225.455086 
L 125.080057 -220.683028 
L 125.682895 -215.910971 
L 126.285733 -211.138913 
L 126.888571 -206.366855 
L 127.491409 -201.594798 
L 128.094247 -196.82274 
L 128.697085 -192.050682 
L 129.299923 -187.278625 
L 129.902761 -184.494422 
L 130.505599 -185.175762 
L 131.108437 -185.857101 
L 131.711275 -186.538441 
L 132.314113 -187.21978 
L 132.916951 -187.90112 
L 133.51979 -188.582459 
L 134.122628 -189.263799 
L 134.725466 -183.370296 
L 135.328304 -173.161673 
L 135.931142 -162.953051 
L 136.53398 -152.744428 
L 137.136818 -142.535805 
L 137.739656 -132.327183 
L 138.342494 -122.11856 
L 138.945332 -111.909937 
L 139.54817 -101.701315 
L 140.151008 -91.492692 
L 140.753846 -89.950378 
L 141.356684 -94.727806 
L 141.959522 -99.505235 
L 142.56236 -104.282663 
L 143.165199 -109.060092 
L 143.768037 -113.837521 
L 144.370875 -118.614949 
L 144.973713 -123.392378 
L 145.576551 -128.169806 
L 146.179389 -132.947235 
L 146.782227 -137.724664 
L 147.385065 -142.502092 
L 147.987903 -147.279521 
L 148.590741 -152.056949 
L 149.193579 -156.834378 
L 149.796417 -161.611807 
L 150.399255 -166.389235 
L 151.002093 -171.166664 
L 151.604931 -173.493452 
L 152.20777 -175.53862 
L 152.810608 -175.404614 
L 153.413446 -174.383751 
L 154.016284 -173.362889 
L 154.619122 -172.342027 
L 155.22196 -171.321165 
L 155.824798 -170.300302 
L 156.427636 -169.27944 
L 157.030474 -168.258578 
L 157.633312 -167.237715 
L 158.23615 -166.216853 
L 158.838988 -165.195991 
L 159.441826 -164.175129 
L 160.044664 -163.154266 
L 160.647502 -162.133404 
L 161.250341 -161.112542 
L 161.853179 -160.09168 
L 162.456017 -165.504816 
L 163.058855 -171.626554 
L 163.661693 -177.748293 
L 164.264531 -183.870031 
L 164.867369 -189.991769 
L 165.470207 -193.73413 
L 166.073045 -185.217385 
L 166.675883 -176.700641 
L 167.278721 -168.183897 
L 167.881559 -159.667153 
L 168.484397 -151.150409 
L 169.087235 -142.633664 
L 169.690073 -134.11692 
L 170.292911 -125.600176 
L 170.89575 -117.083432 
L 171.498588 -108.566688 
L 172.101426 -100.049944 
L 172.704264 -94.632365 
L 173.307102 -101.449591 
L 173.90994 -108.266816 
L 174.512778 -115.084041 
L 175.115616 -121.901266 
L 175.718454 -128.718492 
L 176.321292 -135.535717 
L 176.92413 -142.352942 
L 177.526968 -149.170168 
L 178.129806 -155.987393 
L 178.732644 -162.804618 
L 179.335482 -169.621843 
L 179.938321 -176.439069 
L 180.541159 -183.256294 
L 181.143997 -190.073519 
L 181.746835 -196.890744 
L 182.349673 -203.70797 
L 182.952511 -210.525195 
L 183.555349 -215.142778 
L 184.158187 -216.50699 
L 184.761025 -217.871202 
L 185.363863 -219.235414 
L 185.966701 -220.599625 
L 186.569539 -221.963837 
L 187.172377 -223.328049 
L 187.775215 -224.692261 
L 188.378053 -226.056473 
L 188.980892 -227.420685 
L 189.58373 -228.784897 
L 190.186568 -230.149109 
L 190.789406 -231.513321 
L 191.392244 -232.793174 
L 191.995082 -232.793174 
L 192.59792 -232.793174 
L 193.200758 -232.793174 
L 193.803596 -232.793174 
L 194.406434 -231.982965 
L 195.009272 -222.330279 
L 195.61211 -212.092932 
L 196.214948 -201.855585 
L 196.817786 -191.618238 
L 197.420624 -181.380891 
L 198.023462 -171.143544 
L 198.626301 -160.906197 
L 199.229139 -150.66885 
L 199.831977 -140.431503 
L 200.434815 -130.194156 
L 201.037653 -119.956809 
L 201.640491 -109.719462 
L 202.243329 -99.482115 
L 202.846167 -89.244768 
L 203.449005 -79.007421 
L 204.051843 -68.770074 
L 204.654681 -58.532727 
L 205.257519 -67.389927 
L 205.860357 -79.994709 
L 206.463195 -92.59949 
L 207.066033 -105.204272 
L 207.668872 -117.809053 
L 208.27171 -130.413834 
L 208.874548 -143.018616 
L 209.477386 -155.623397 
L 210.080224 -168.228179 
L 210.683062 -180.83296 
L 211.2859 -176.233173 
L 211.888738 -166.342637 
L 212.491576 -156.452101 
L 213.094414 -146.561565 
L 213.697252 -136.671028 
L 214.30009 -126.780492 
L 214.902928 -116.889956 
L 215.505766 -106.99942 
L 216.108604 -113.096768 
L 216.711443 -122.305198 
L 217.314281 -131.513628 
L 217.917119 -140.722058 
L 218.519957 -149.930489 
L 219.122795 -159.138919 
L 219.725633 -168.347349 
L 220.328471 -177.55578 
L 220.931309 -186.76421 
L 221.534147 -193.655426 
L 222.136985 -184.788049 
L 222.739823 -175.920672 
L 223.342661 -167.053294 
L 223.945499 -158.185917 
L 224.548337 -149.31854 
L 225.151175 -140.451162 
L 225.754014 -131.583785 
L 226.356852 -124.358775 
L 226.95969 -132.180996 
L 227.562528 -140.003217 
L 228.165366 -147.825438 
L 228.768204 -155.647659 
L 229.371042 -163.46988 
L 229.97388 -171.292102 
L 230.576718 -179.114323 
L 231.179556 -186.936544 
L 231.782394 -194.758765 
L 232.385232 -193.842267 
L 232.98807 -186.343319 
L 233.590908 -178.844371 
L 234.193746 -171.345423 
L 234.796584 -163.846476 
L 235.399423 -156.347528 
L 236.002261 -148.84858 
L 236.605099 -141.349632 
L 237.207937 -136.997829 
L 237.810775 -142.105006 
L 238.413613 -147.212183 
L 239.016451 -152.31936 
L 239.619289 -157.426538 
L 240.222127 -162.533715 
L 240.824965 -167.640892 
L 241.427803 -172.74807 
L 242.030641 -177.855247 
L 242.633479 -182.962424 
L 243.236317 -188.069602 
L 243.839155 -183.600961 
L 244.441994 -176.118836 
L 245.044832 -168.636711 
L 245.64767 -161.154587 
L 246.250508 -153.672462 
L 246.853346 -146.190338 
L 247.456184 -138.708213 
L 248.059022 -139.606345 
L 248.66186 -146.06818 
L 249.264698 -152.530015 
L 249.867536 -158.99185 
L 250.470374 -165.453685 
L 251.073212 -171.915519 
L 251.67605 -178.377354 
L 252.278888 -184.839189 
L 252.881726 -191.301024 
L 253.484565 -197.762859 
L 254.087403 -204.224694 
L 254.690241 -210.686529 
L 255.293079 -217.148363 
L 255.895917 -223.516251 
L 256.498755 -222.835676 
L 257.101593 -222.155101 
L 257.704431 -221.474526 
L 258.307269 -220.793952 
L 258.910107 -214.929577 
L 259.512945 -207.787549 
L 260.115783 -200.645521 
L 260.718621 -193.503493 
L 261.321459 -186.361465 
L 261.924297 -179.219437 
L 262.527135 -172.077409 
L 263.129974 -164.935381 
L 263.732812 -157.793353 
L 264.33565 -150.651325 
L 264.938488 -143.509297 
L 265.541326 -136.367269 
L 266.144164 -129.225241 
L 266.747002 -122.083213 
L 267.34984 -114.941185 
L 267.952678 -107.799157 
L 268.555516 -100.657129 
L 269.158354 -93.515101 
L 269.761192 -102.126995 
L 270.36403 -111.335425 
L 270.966868 -120.543855 
L 271.569706 -129.752286 
L 272.172545 -138.960716 
L 272.775383 -148.169146 
L 273.378221 -157.377577 
L 273.981059 -166.586007 
L 274.583897 -169.050704 
L 275.186735 -168.027545 
L 275.789573 -167.004386 
L 276.392411 -165.981227 
L 276.995249 -164.958068 
L 277.598087 -163.934909 
L 278.200925 -162.91175 
L 278.803763 -161.888591 
L 279.406601 -160.865432 
L 280.009439 -160.876681 
L 280.612277 -166.998419 
L 281.215116 -173.120158 
L 281.817954 -179.241896 
L 282.420792 -185.363634 
L 283.02363 -191.485373 
L 283.626468 -197.607111 
L 284.229306 -203.728849 
L 284.832144 -209.850587 
L 285.434982 -215.972326 
L 286.03782 -222.094064 
L 286.640658 -228.215802 
L 287.243496 -234.337541 
L 287.846334 -240.459279 
L 288.449172 -246.581017 
L 289.05201 -252.702755 
L 289.654848 -258.824494 
L 290.257686 -264.946232 
L 290.860525 -268.359591 
L 291.463363 -265.631167 
L 292.066201 -262.902743 
L 292.669039 -260.174319 
L 293.271877 -257.445896 
L 293.874715 -254.717472 
L 294.477553 -251.147119 
L 295.080391 -245.362232 
L 295.683229 -239.577346 
L 296.286067 -233.79246 
L 296.888905 -228.007574 
L 297.491743 -222.222688 
L 298.094581 -216.437802 
L 298.697419 -210.652915 
L 299.300257 -204.868029 
L 299.903096 -199.083143 
L 300.505934 -193.298257 
L 301.108772 -187.513371 
L 301.71161 -186.04956 
L 302.314448 -190.146804 
L 302.917286 -194.244049 
L 303.520124 -198.341293 
L 304.122962 -202.438538 
L 304.7258 -206.535782 
L 305.328638 -210.633027 
L 305.931476 -214.730271 
L 306.534314 -218.827516 
L 307.137152 -222.92476 
L 307.73999 -227.022005 
L 308.342828 -231.119249 
L 308.945667 -235.216494 
L 309.548505 -239.313738 
L 310.151343 -243.410983 
L 310.754181 -247.508227 
L 311.357019 -251.605472 
L 311.959857 -255.702717 
L 312.562695 -257.288134 
L 313.165533 -257.628231 
L 313.768371 -257.968327 
L 314.371209 -258.240424 
L 314.974047 -256.87851 
L 315.576885 -255.516596 
L 316.179723 -254.154682 
L 316.782561 -252.792768 
L 317.385399 -251.430854 
L 317.988237 -248.886307 
L 318.591076 -246.164008 
L 319.193914 -243.441708 
L 319.796752 -240.719409 
L 320.39959 -237.99711 
L 321.002428 -235.27481 
L 321.605266 -232.552511 
L 322.208104 -229.830211 
L 322.810942 -227.107912 
L 323.41378 -224.384298 
L 324.016618 -221.660471 
L 324.619456 -218.936643 
L 325.222294 -216.212815 
L 325.825132 -213.488987 
L 326.42797 -210.765159 
L 327.030808 -208.041331 
L 327.633647 -205.317503 
L 328.236485 -202.593675 
L 328.839323 -199.869847 
L 329.442161 -197.146019 
L 330.044999 -194.422191 
L 330.647837 -191.698364 
L 331.250675 -188.974536 
L 331.853513 -186.250708 
L 332.456351 -183.52688 
L 333.059189 -180.803052 
L 333.662027 -178.345004 
L 334.264865 -182.092371 
L 334.867703 -185.839739 
L 335.470541 -189.587106 
L 336.073379 -193.334474 
L 336.676218 -197.081841 
L 337.279056 -200.829208 
L 337.881894 -204.576576 
L 338.484732 -208.323943 
L 339.08757 -210.834863 
L 339.690408 -204.35121 
L 340.293246 -197.867557 
L 340.896084 -191.383904 
L 341.498922 -184.900251 
L 342.10176 -178.416598 
L 342.704598 -171.932945 
L 343.307436 -165.449292 
L 343.910274 -158.965639 
L 344.513112 -155.511401 
L 345.11595 -162.653429 
L 345.718789 -169.795457 
L 346.321627 -176.937485 
L 346.924465 -184.079513 
L 347.527303 -191.221541 
L 348.130141 -198.363569 
L 348.732979 -205.505597 
L 349.335817 -212.647625 
L 349.938655 -219.789653 
L 350.541493 -226.931681 
L 351.144331 -234.073709 
L 351.747169 -236.578524 
L 352.350007 -235.896034 
L 352.952845 -235.213545 
L 353.555683 -234.531055 
L 354.158521 -233.848565 
L 354.761359 -233.166075 
L 355.364198 -231.096168 
L 355.967036 -227.355106 
L 356.569874 -223.614044 
L 357.172712 -219.872981 
L 357.77555 -216.131919 
L 358.378388 -212.390857 
L 358.981226 -208.649795 
L 359.584064 -204.908732 
L 360.186902 -201.16767 
L 360.78974 -197.426608 
L 361.392578 -193.685545 
L 361.995416 -189.944483 
L 362.598254 -186.203421 
L 363.201092 -182.462359 
L 363.80393 -178.721296 
L 364.406769 -174.980234 
L 365.009607 -171.239172 
L 365.612445 -167.498109 
L 366.215283 -169.408761 
L 366.818121 -174.859477 
L 367.420959 -180.310193 
L 368.023797 -185.760909 
L 368.626635 -191.211626 
L 369.229473 -196.662342 
L 369.832311 -202.113058 
L 370.435149 -207.563775 
L 371.037987 -213.014491 
L 371.640825 -218.465207 
L 372.243663 -223.915923 
L 372.846501 -229.36664 
L 373.44934 -234.817356 
L 374.052178 -240.268072 
L 374.655016 -245.718789 
L 375.257854 -251.169505 
L 375.860692 -256.620221 
L 376.46353 -262.070937 
L 377.066368 -264.77912 
L 377.669206 -266.827742 
L 378.272044 -268.876364 
L 378.874882 -268.886837 
L 379.47772 -266.799187 
L 380.080558 -263.731436 
L 380.683396 -260.663684 
L 381.286234 -257.595933 
L 381.889072 -254.528182 
L 382.49191 -251.46043 
L 383.094749 -248.392679 
L 383.697587 -245.324928 
L 384.300425 -242.257176 
L 384.903263 -239.189425 
L 385.506101 -236.121673 
L 386.108939 -233.053922 
L 386.711777 -229.986171 
L 387.314615 -226.918419 
L 387.917453 -229.598655 
L 388.520291 -232.662961 
L 389.123129 -235.727267 
L 389.725967 -238.791574 
L 390.328805 -241.85588 
L 390.931643 -244.920187 
L 391.534481 -247.984493 
L 392.13732 -251.048799 
L 392.740158 -254.113106 
L 393.342996 -257.177412 
L 393.945834 -260.241719 
L 394.548672 -256.224349 
L 395.15151 -252.143191 
L 395.754348 -248.062032 
L 396.357186 -243.980873 
L 396.960024 -239.899714 
L 397.562862 -235.818555 
L 398.1657 -232.529081 
L 398.768538 -231.508219 
L 399.371376 -230.487357 
L 399.974214 -229.466494 
L 400.577052 -228.445632 
L 401.179891 -227.42477 
L 401.782729 -226.403908 
L 402.385567 -225.383045 
L 402.988405 -224.362183 
L 403.591243 -223.341321 
L 404.194081 -222.320458 
L 404.796919 -221.299596 
L 405.399757 -220.278734 
L 406.002595 -219.257872 
L 406.605433 -218.237009 
L 407.208271 -217.216147 
L 407.811109 -216.195285 
L 408.413947 -215.174423 
L 409.016785 -213.420711 
L 409.619623 -210.695353 
L 410.222461 -207.969995 
L 410.8253 -205.244637 
L 411.428138 -202.519279 
L 412.030976 -199.793921 
L 412.633814 -197.068562 
L 413.236652 -194.343204 
L 413.83949 -191.617846 
L 414.442328 -188.892488 
L 415.045166 -186.16713 
L 415.648004 -183.441772 
L 416.250842 -180.716414 
L 416.85368 -177.991055 
L 417.456518 -175.265697 
L 418.059356 -172.540339 
L 418.662194 -169.814981 
L 419.265032 -167.089623 
L 419.867871 -168.385223 
L 420.470709 -172.13259 
L 421.073547 -175.879958 
L 421.676385 -179.627325 
L 422.279223 -183.374693 
L 422.882061 -187.12206 
L 423.484899 -190.869428 
L 424.087737 -194.616795 
L 424.690575 -198.364162 
L 425.293413 -202.11153 
L 425.896251 -205.858897 
L 426.499089 -209.606265 
L 427.101927 -213.353632 
L 427.704765 -217.101 
L 428.307603 -220.848367 
L 428.910442 -224.595735 
L 429.51328 -228.343102 
L 430.116118 -232.090469 
L 430.718956 -230.023742 
L 431.321794 -226.615129 
L 431.924632 -223.206517 
L 432.52747 -219.797904 
L 433.130308 -216.389291 
L 433.733146 -212.980679 
L 434.335984 -209.572066 
L 434.938822 -206.163454 
L 435.54166 -202.754841 
L 436.144498 -199.346228 
L 436.747336 -195.937616 
L 437.350174 -192.529003 
L 437.953013 -189.12039 
L 438.555851 -185.711778 
L 439.158689 -182.303165 
L 439.761527 -178.894552 
L 440.364365 -175.48594 
L 440.967203 -172.203876 
L 441.570041 -177.998518 
L 442.172879 -183.793159 
L 442.775717 -189.587801 
L 443.378555 -195.382442 
L 443.981393 -201.177084 
L 444.584231 -206.971725 
L 445.187069 -212.766367 
L 445.789907 -218.561008 
L 446.392745 -224.35565 
L 446.995583 -230.150291 
L 447.598422 -235.944933 
L 448.20126 -241.739574 
L 448.804098 -247.534216 
L 449.406936 -253.328857 
L 450.009774 -259.123499 
L 450.612612 -260.750196 
L 451.21545 -258.706177 
L 451.818288 -257.193483 
L 452.421126 -257.874058 
L 453.023964 -258.187874 
L 453.626802 -255.807198 
L 454.22964 -253.426522 
L 454.832478 -251.045846 
L 455.435316 -248.66517 
L 456.038154 -246.284494 
L 456.640993 -243.903818 
L 457.243831 -241.523142 
L 457.846669 -239.142466 
L 458.449507 -236.76179 
L 459.052345 -234.381114 
L 459.655183 -232.000438 
L 460.258021 -229.619762 
L 460.860859 -227.239086 
L 461.463697 -224.85841 
L 462.066535 -222.477734 
L 462.669373 -220.820402 
L 463.272211 -221.502125 
L 463.875049 -222.183848 
L 464.477887 -222.86557 
L 465.080725 -223.547293 
L 465.683564 -224.229015 
L 466.286402 -224.910738 
L 466.88924 -225.59246 
L 467.492078 -226.274183 
L 468.094916 -226.955905 
L 468.697754 -227.637628 
L 469.300592 -228.31935 
L 469.90343 -229.001073 
L 470.506268 -229.682795 
L 471.109106 -230.364518 
L 471.711944 -231.04624 
L 472.314782 -231.727963 
L 472.91762 -232.409685 
L 473.520458 -232.494435 
L 474.123296 -231.811561 
L 474.726134 -231.128687 
L 475.328973 -230.445813 
L 475.931811 -229.762939 
L 476.534649 -229.080065 
L 477.137487 -228.397191 
L 477.740325 -227.714317 
L 478.343163 -227.031443 
L 478.946001 -226.348569 
L 479.548839 -225.665695 
L 480.151677 -224.98282 
L 480.754515 -224.299946 
L 481.357353 -223.617072 
L 481.960191 -222.934198 
L 482.563029 -222.251324 
L 483.165867 -221.56845 
L 483.768705 -220.885576 
L 484.371544 -221.115541 
L 484.974382 -221.797647 
L 485.57722 -222.479753 
L 486.180058 -223.161859 
L 486.782896 -223.843965 
L 487.385734 -224.526071 
L 487.988572 -223.506514 
L 488.59141 -222.1446 
L 489.194248 -220.782686 
L 489.797086 -219.420772 
L 490.399924 -218.058858 
L 491.002762 -216.696944 
L 491.6056 -215.33503 
L 492.208438 -213.973116 
L 492.811276 -212.611202 
L 493.414115 -211.249288 
L 494.016953 -209.887374 
L 494.619791 -208.525767 
L 495.222629 -210.568638 
L 495.825467 -212.611509 
L 496.428305 -214.65438 
L 497.031143 -216.697251 
L 497.633981 -214.237241 
L 498.236819 -210.496179 
L 498.839657 -206.755116 
L 499.442495 -203.014054 
L 500.045333 -199.272992 
L 500.648171 -195.531929 
L 501.251009 -191.790867 
L 501.853847 -188.049805 
L 502.456685 -184.308743 
L 503.059524 -180.56768 
L 503.662362 -176.826618 
L 504.2652 -173.085556 
L 504.868038 -169.344493 
L 505.470876 -166.470371 
L 506.073714 -169.875156 
L 506.676552 -173.279941 
L 507.27939 -176.684725 
L 507.882228 -180.08951 
L 508.485066 -183.494295 
L 509.087904 -186.89908 
L 509.690742 -190.303865 
L 510.29358 -193.70865 
L 510.896418 -197.113435 
L 511.499256 -200.51822 
L 512.102095 -203.923004 
L 512.704933 -207.327789 
L 513.307771 -210.732574 
L 513.910609 -214.137359 
L 514.513447 -217.542144 
L 515.116285 -220.946929 
L 515.719123 -224.351714 
L 516.321961 -227.242256 
L 516.924799 -228.947521 
L 517.527637 -230.652786 
L 518.130475 -232.358051 
L 518.733313 -234.063316 
L 519.336151 -235.768581 
L 519.938989 -237.473846 
L 520.541827 -239.17911 
L 521.144666 -240.884375 
L 521.747504 -242.58964 
L 522.350342 -244.294905 
L 522.95318 -246.00017 
L 523.556018 -247.705435 
L 524.158856 -249.4107 
L 524.761694 -251.115965 
L 525.364532 -252.821229 
L 525.96737 -254.526494 
L 526.570208 -256.231759 
L 527.173046 -253.729102 
L 527.775884 -247.245449 
L 528.378722 -240.761796 
L 528.98156 -234.278143 
L 529.584398 -227.79449 
L 530.187236 -221.310837 
L 530.790075 -214.827184 
L 531.392913 -208.343531 
L 531.995751 -201.859878 
L 532.598589 -195.376224 
L 533.201427 -188.892571 
L 533.804265 -182.408918 
L 534.407103 -175.925265 
L 535.009941 -169.441612 
L 535.612779 -162.957959 
L 536.215617 -156.474306 
L 536.818455 -149.990653 
L 537.421293 -143.507 
L 538.024131 -146.054349 
L 538.626969 -151.855513 
L 539.229807 -157.656676 
L 539.832646 -163.457839 
L 540.435484 -169.259003 
L 541.038322 -175.060166 
L 541.64116 -180.861329 
L 542.243998 -186.662492 
L 542.846836 -192.463656 
L 543.449674 -198.264819 
L 544.052512 -204.065982 
L 544.65535 -209.867146 
L 545.258188 -215.668309 
L 545.861026 -221.469472 
L 546.463864 -227.270636 
L 547.066702 -233.071799 
L 547.66954 -238.872962 
L 548.272378 -239.105005 
L 548.875217 -242.654797 
L 549.478055 -247.085993 
L 550.080893 -249.965606 
L 550.683731 -249.02158 
L 551.286569 -246.97411 
L 551.889407 -244.926641 
L 552.492245 -242.879171 
L 553.095083 -240.831702 
L 553.697921 -238.784233 
L 554.300759 -236.736763 
L 554.903597 -234.689294 
L 555.506435 -232.641824 
L 556.109273 -230.594355 
L 556.712111 -228.546886 
L 557.314949 -226.499416 
L 557.917788 -224.451947 
L 558.520626 -222.404477 
L 559.123464 -221.163045 
L 559.726302 -224.573575 
L 560.32914 -227.984105 
L 560.931978 -231.394635 
L 561.534816 -234.805164 
L 562.137654 -238.215694 
L 562.740492 -241.626224 
L 563.34333 -245.036754 
L 563.946168 -248.447283 
L 564.549006 -251.857813 
L 565.151844 -255.268343 
L 565.754682 -258.678873 
L 566.35752 -262.089402 
L 566.960358 -265.499932 
L 567.563197 -268.910462 
L 568.166035 -269.510382 
L 568.768873 -268.522018 
L 569.371711 -269.03795 
L 569.974549 -269.546439 
L 570.577387 -269.546439 
L 571.180225 -266.176156 
L 571.783063 -259.347415 
L 572.385901 -252.518674 
L 572.988739 -245.689934 
L 573.591577 -238.861193 
L 574.194415 -232.032452 
L 574.797253 -225.203711 
L 575.400091 -218.37497 
L 576.002929 -211.546229 
L 576.605768 -204.717489 
L 577.208606 -197.888748 
L 577.811444 -191.060007 
L 578.414282 -184.231266 
L 579.01712 -177.402525 
L 579.619958 -170.573784 
L 580.222796 -163.745044 
L 580.825634 -162.593128 
L 581.428472 -168.37477 
L 582.03131 -174.156412 
L 582.634148 -179.938053 
L 583.236986 -185.719695 
L 583.839824 -191.501337 
L 584.442662 -197.282978 
L 585.0455 -203.06462 
L 585.648339 -208.846262 
L 586.251177 -207.219148 
L 586.854015 -200.750056 
L 587.456853 -194.280965 
L 588.059691 -187.811874 
L 588.662529 -181.342783 
L 589.265367 -174.873691 
L 589.868205 -168.4046 
L 590.471043 -161.935509 
L 591.073881 -155.466417 
L 591.676719 -158.863551 
L 592.279557 -165.350855 
L 592.882395 -171.838159 
L 593.485233 -178.325463 
L 594.088071 -184.812767 
L 594.690909 -191.30007 
L 595.293748 -197.787374 
L 595.896586 -204.274678 
L 596.499424 -210.761982 
L 597.102262 -217.249286 
L 597.7051 -223.736589 
L 598.307938 -230.223893 
L 598.910776 -236.711197 
L 599.513614 -243.198501 
L 600.116452 -249.685805 
L 600.71929 -256.173108 
L 601.322128 -257.475004 
L 601.924966 -257.134717 
L 602.527804 -257.060764 
L 603.130642 -256.967857 
L 603.73348 -250.832354 
L 604.336319 -244.696851 
L 604.939157 -238.561349 
L 605.541995 -232.425846 
L 606.144833 -226.290343 
L 606.747671 -220.15484 
L 607.350509 -214.019338 
L 607.953347 -207.883835 
L 608.556185 -201.748332 
L 609.159023 -195.612829 
L 609.761861 -189.477327 
L 610.364699 -183.341824 
L 610.967537 -177.206321 
L 611.570375 -171.070819 
L 612.173213 -164.935316 
L 612.776051 -159.197567 
L 613.37889 -155.111826 
L 613.981728 -151.026084 
L 614.584566 -146.940342 
L 615.187404 -142.8546 
L 615.790242 -138.768858 
L 616.39308 -134.683116 
L 616.995918 -130.597374 
L 617.598756 -126.511633 
L 618.201594 -122.425891 
L 618.804432 -118.340149 
L 619.40727 -114.254407 
L 620.010108 -110.168665 
L 620.612946 -106.082923 
L 621.215784 -101.997181 
L 621.818622 -97.91144 
L 622.42146 -93.825698 
L 623.024299 -89.739956 
L 623.627137 -88.209335 
L 624.229975 -90.931634 
L 624.832813 -93.653933 
L 625.435651 -96.376233 
L 626.038489 -99.098532 
L 626.641327 -101.820832 
L 627.244165 -104.543131 
L 627.847003 -107.26543 
L 628.449841 -109.98773 
L 629.052679 -112.710029 
L 629.655517 -115.432328 
L 630.258355 -118.154628 
L 630.861193 -120.876927 
L 631.464031 -123.599227 
L 632.06687 -126.321526 
L 632.669708 -129.043825 
L 633.272546 -131.766125 
L 633.875384 -134.488424 
L 634.478222 -140.930503 
L 635.08106 -150.458551 
L 635.683898 -159.986599 
L 636.286736 -169.514647 
L 636.889574 -179.042694 
L 637.492412 -188.570742 
L 638.09525 -198.09879 
L 638.698088 -207.626838 
L 639.300926 -217.154886 
L 639.903764 -217.544585 
L 640.506602 -208.697112 
L 641.109441 -199.849639 
L 641.712279 -191.002166 
L 642.315117 -182.154693 
L 642.917955 -173.30722 
L 643.520793 -164.459747 
L 644.123631 -155.612274 
L 644.726469 -146.764801 
L 645.329307 -144.023775 
L 645.932145 -149.128086 
L 646.534983 -154.232398 
L 647.137821 -159.336709 
L 647.740659 -164.441021 
L 648.343497 -169.545332 
L 648.946335 -174.649643 
L 649.549173 -179.753955 
L 650.152012 -184.858266 
L 650.75485 -189.962577 
L 651.357688 -195.066889 
L 651.960526 -200.1712 
L 652.563364 -205.275511 
L 653.166202 -210.379823 
L 653.76904 -215.294723 
L 654.371878 -209.15922 
L 654.974716 -203.023717 
L 655.577554 -196.888215 
L 656.180392 -197.017648 
L 656.78323 -197.698605 
L 657.386068 -198.379562 
L 657.988906 -199.060519 
L 658.591744 -199.741476 
L 659.194582 -200.422433 
L 659.797421 -201.10339 
L 660.400259 -201.784347 
L 661.003097 -202.465304 
L 661.605935 -203.146261 
L 662.208773 -203.827218 
L 662.811611 -204.508175 
L 663.414449 -205.189132 
L 664.017287 -205.870089 
L 664.620125 -206.551046 
L 665.222963 -207.232003 
L 665.825801 -207.91296 
L 666.428639 -209.038374 
L 667.031477 -214.14842 
L 667.634315 -219.258467 
L 668.237153 -224.368513 
L 668.839992 -229.47856 
L 669.44283 -234.588606 
L 670.045668 -239.698653 
L 670.648506 -243.869286 
L 671.251344 -241.145459 
L 671.854182 -238.421631 
L 672.45702 -235.697803 
L 673.059858 -232.973975 
L 673.662696 -230.250147 
L 674.265534 -227.526319 
L 674.868372 -224.802491 
L 675.47121 -222.078663 
L 676.074048 -219.354835 
L 676.676886 -216.631007 
L 677.279724 -214.592481 
L 677.882563 -214.592481 
L 678.485401 -214.592481 
L 679.088239 -214.592481 
L 679.088239 -299.529047 
L 679.088239 -299.529047 
L 678.485401 -299.529047 
L 677.882563 -299.529047 
L 677.279724 -299.529047 
L 676.676886 -295.909165 
L 676.074048 -290.799118 
L 675.47121 -285.689072 
L 674.868372 -286.972272 
L 674.265534 -286.138648 
L 673.662696 -285.305024 
L 673.059858 -284.471399 
L 672.45702 -284.43559 
L 671.854182 -290.046514 
L 671.251344 -295.844414 
L 670.648506 -301.642315 
L 670.045668 -307.440215 
L 669.44283 -313.238116 
L 668.839992 -319.036016 
L 668.237153 -324.833917 
L 667.634315 -330.631818 
L 667.031477 -336.429718 
L 666.428639 -341.821228 
L 665.825801 -337.38754 
L 665.222963 -332.953851 
L 664.620125 -328.520162 
L 664.017287 -324.086474 
L 663.414449 -319.652785 
L 662.811611 -315.219096 
L 662.208773 -310.785408 
L 661.605935 -306.351719 
L 661.003097 -301.91803 
L 660.400259 -297.484342 
L 659.797421 -293.050653 
L 659.194582 -289.326195 
L 658.591744 -293.234666 
L 657.988906 -297.553168 
L 657.386068 -295.887561 
L 656.78323 -294.221953 
L 656.180392 -292.556346 
L 655.577554 -293.369233 
L 654.974716 -292.347224 
L 654.371878 -291.325215 
L 653.76904 -291.322339 
L 653.166202 -291.322339 
L 652.563364 -291.322339 
L 651.960526 -291.322339 
L 651.357688 -291.322339 
L 650.75485 -291.322339 
L 650.152012 -291.322339 
L 649.549173 -291.322339 
L 648.946335 -291.322339 
L 648.343497 -291.322339 
L 647.740659 -291.322339 
L 647.137821 -291.322339 
L 646.534983 -292.572446 
L 645.932145 -295.056258 
L 645.329307 -301.191761 
L 644.726469 -302.907316 
L 644.123631 -293.379268 
L 643.520793 -291.322339 
L 642.917955 -291.214637 
L 642.315117 -291.046586 
L 641.712279 -290.878535 
L 641.109441 -290.710484 
L 640.506602 -290.542433 
L 639.903764 -290.374382 
L 639.300926 -290.206331 
L 638.698088 -290.03828 
L 638.09525 -289.870229 
L 637.492412 -289.702178 
L 636.889574 -289.534127 
L 636.286736 -289.366076 
L 635.683898 -289.198025 
L 635.08106 -289.029974 
L 634.478222 -297.171842 
L 633.875384 -299.279141 
L 633.272546 -298.938471 
L 632.669708 -298.597802 
L 632.06687 -298.257132 
L 631.464031 -297.916462 
L 630.861193 -297.575792 
L 630.258355 -297.235123 
L 629.655517 -296.894453 
L 629.052679 -296.553783 
L 628.449841 -296.213113 
L 627.847003 -295.872444 
L 627.244165 -295.531774 
L 626.641327 -295.191104 
L 626.038489 -298.519221 
L 625.435651 -302.950417 
L 624.832813 -307.381613 
L 624.229975 -311.81281 
L 623.627137 -316.244006 
L 623.024299 -315.688279 
L 622.42146 -312.617075 
L 621.818622 -309.545871 
L 621.215784 -306.474667 
L 620.612946 -303.403463 
L 620.010108 -300.332258 
L 619.40727 -297.261054 
L 618.804432 -294.18985 
L 618.201594 -291.118646 
L 617.598756 -288.047442 
L 616.995918 -284.976238 
L 616.39308 -285.061028 
L 615.790242 -285.229572 
L 615.187404 -286.818058 
L 614.584566 -286.016403 
L 613.981728 -285.735207 
L 613.37889 -285.903752 
L 612.776051 -286.072297 
L 612.173213 -286.240841 
L 611.570375 -286.409386 
L 610.967537 -286.577931 
L 610.364699 -286.746476 
L 609.761861 -286.915021 
L 609.159023 -287.083566 
L 608.556185 -287.25211 
L 607.953347 -287.420655 
L 607.350509 -287.5892 
L 606.747671 -287.820759 
L 606.144833 -289.551084 
L 605.541995 -291.281408 
L 604.939157 -293.011732 
L 604.336319 -294.454546 
L 603.73348 -295.558091 
L 603.130642 -299.313898 
L 602.527804 -303.069706 
L 601.924966 -304.035434 
L 601.322128 -299.268735 
L 600.71929 -294.502036 
L 600.116452 -289.735337 
L 599.513614 -288.353133 
L 598.910776 -288.395166 
L 598.307938 -288.437199 
L 597.7051 -288.479233 
L 597.102262 -288.521266 
L 596.499424 -288.563299 
L 595.896586 -288.605333 
L 595.293748 -288.647366 
L 594.690909 -288.689399 
L 594.088071 -288.731432 
L 593.485233 -288.773548 
L 592.882395 -288.815684 
L 592.279557 -288.857821 
L 591.676719 -288.899957 
L 591.073881 -288.942093 
L 590.471043 -288.984229 
L 589.868205 -289.026365 
L 589.265367 -289.068502 
L 588.662529 -289.110638 
L 588.059691 -289.152774 
L 587.456853 -289.19491 
L 586.854015 -289.237046 
L 586.251177 -289.279183 
L 585.648339 -289.321319 
L 585.0455 -289.363455 
L 584.442662 -289.405591 
L 583.839824 -289.447727 
L 583.236986 -289.489864 
L 582.634148 -289.532 
L 582.03131 -289.574136 
L 581.428472 -289.569486 
L 580.825634 -289.485419 
L 580.222796 -289.401353 
L 579.619958 -289.317286 
L 579.01712 -289.23322 
L 578.414282 -289.149153 
L 577.811444 -289.065087 
L 577.208606 -288.98102 
L 576.605768 -288.896953 
L 576.002929 -288.812887 
L 575.400091 -288.72882 
L 574.797253 -288.644754 
L 574.194415 -290.525187 
L 573.591577 -292.570355 
L 572.988739 -294.615523 
L 572.385901 -296.66069 
L 571.783063 -298.705858 
L 571.180225 -300.751025 
L 570.577387 -302.796193 
L 569.974549 -304.84136 
L 569.371711 -304.519854 
L 568.768873 -302.814589 
L 568.166035 -301.109325 
L 567.563197 -299.40406 
L 566.960358 -297.698795 
L 566.35752 -295.99353 
L 565.754682 -295.165756 
L 565.151844 -297.206335 
L 564.549006 -299.246915 
L 563.946168 -301.287494 
L 563.34333 -303.328074 
L 562.740492 -305.368653 
L 562.137654 -307.409233 
L 561.534816 -309.449812 
L 560.931978 -311.490391 
L 560.32914 -313.530971 
L 559.726302 -315.57155 
L 559.123464 -317.61213 
L 558.520626 -313.55394 
L 557.917788 -309.122743 
L 557.314949 -304.691547 
L 556.712111 -300.26035 
L 556.109273 -295.829154 
L 555.506435 -291.397958 
L 554.903597 -288.18938 
L 554.300759 -288.065985 
L 553.697921 -288.1081 
L 553.095083 -288.150216 
L 552.492245 -288.192331 
L 551.889407 -288.234447 
L 551.286569 -288.276563 
L 550.683731 -288.318678 
L 550.080893 -288.360794 
L 549.478055 -288.402909 
L 548.875217 -288.445025 
L 548.272378 -288.48714 
L 547.66954 -288.529256 
L 547.066702 -288.571372 
L 546.463864 -288.613487 
L 545.861026 -288.655603 
L 545.258188 -288.697718 
L 544.65535 -288.739755 
L 544.052512 -288.655442 
L 543.449674 -288.571128 
L 542.846836 -288.486814 
L 542.243998 -288.402501 
L 541.64116 -288.318187 
L 541.038322 -288.233873 
L 540.435484 -288.14956 
L 539.832646 -288.065246 
L 539.229807 -287.980932 
L 538.626969 -287.896618 
L 538.024131 -287.812305 
L 537.421293 -287.727991 
L 536.818455 -287.643677 
L 536.215617 -287.624127 
L 535.612779 -287.792671 
L 535.009941 -287.961216 
L 534.407103 -288.129761 
L 533.804265 -288.298306 
L 533.201427 -288.466851 
L 532.598589 -288.635395 
L 531.995751 -288.643797 
L 531.392913 -288.391474 
L 530.790075 -288.139151 
L 530.187236 -287.886828 
L 529.584398 -287.634505 
L 528.98156 -288.733739 
L 528.378722 -290.094889 
L 527.775884 -295.888897 
L 527.173046 -302.017509 
L 526.570208 -304.460621 
L 525.96737 -301.732197 
L 525.364532 -299.003773 
L 524.761694 -296.275349 
L 524.158856 -293.546925 
L 523.556018 -290.818502 
L 522.95318 -288.090078 
L 522.350342 -287.716081 
L 521.747504 -287.758176 
L 521.144666 -287.800271 
L 520.541827 -287.842366 
L 519.938989 -287.889936 
L 519.336151 -287.973961 
L 518.733313 -288.057987 
L 518.130475 -288.142012 
L 517.527637 -288.226038 
L 516.924799 -288.310063 
L 516.321961 -288.394089 
L 515.719123 -288.478115 
L 515.116285 -288.56214 
L 514.513447 -288.646166 
L 513.910609 -288.730191 
L 513.307771 -288.814217 
L 512.704933 -288.898242 
L 512.102095 -288.982268 
L 511.499256 -289.066293 
L 510.896418 -289.150319 
L 510.29358 -289.234344 
L 509.690742 -289.31837 
L 509.087904 -289.402395 
L 508.485066 -289.486421 
L 507.882228 -289.570446 
L 507.27939 -289.546831 
L 506.676552 -289.462806 
L 506.073714 -289.37878 
L 505.470876 -289.294754 
L 504.868038 -289.210729 
L 504.2652 -289.126703 
L 503.662362 -289.042678 
L 503.059524 -288.958652 
L 502.456685 -288.874627 
L 501.853847 -288.790601 
L 501.251009 -288.706576 
L 500.648171 -288.62255 
L 500.045333 -288.538525 
L 499.442495 -288.454499 
L 498.839657 -288.370474 
L 498.236819 -288.286448 
L 497.633981 -288.202423 
L 497.031143 -288.118397 
L 496.428305 -288.034372 
L 495.825467 -287.950346 
L 495.222629 -287.885292 
L 494.619791 -287.927346 
L 494.016953 -287.9694 
L 493.414115 -288.011454 
L 492.811276 -288.053508 
L 492.208438 -288.095561 
L 491.6056 -288.137615 
L 491.002762 -288.179669 
L 490.399924 -288.221723 
L 489.797086 -288.263777 
L 489.194248 -288.305831 
L 488.59141 -288.347884 
L 487.988572 -288.389938 
L 487.385734 -288.431992 
L 486.782896 -288.474046 
L 486.180058 -288.5161 
L 485.57722 -288.558154 
L 484.974382 -288.600207 
L 484.371544 -288.642261 
L 483.768705 -288.684315 
L 483.165867 -288.726369 
L 482.563029 -288.79701 
L 481.960191 -288.881076 
L 481.357353 -288.965143 
L 480.754515 -289.049209 
L 480.151677 -289.133276 
L 479.548839 -289.217342 
L 478.946001 -289.301409 
L 478.343163 -289.385476 
L 477.740325 -289.469542 
L 477.137487 -290.241744 
L 476.534649 -291.827529 
L 475.931811 -289.721742 
L 475.328973 -289.805808 
L 474.726134 -289.889875 
L 474.123296 -289.973942 
L 473.520458 -290.058008 
L 472.91762 -290.142075 
L 472.314782 -290.226141 
L 471.711944 -290.310208 
L 471.109106 -290.394274 
L 470.506268 -290.453068 
L 469.90343 -290.411014 
L 469.300592 -290.36896 
L 468.697754 -290.326906 
L 468.094916 -290.284853 
L 467.492078 -290.242799 
L 466.88924 -290.200745 
L 466.286402 -290.158691 
L 465.683564 -290.116637 
L 465.080725 -290.074583 
L 464.477887 -290.03253 
L 463.875049 -289.990476 
L 463.272211 -289.948422 
L 462.669373 -289.906368 
L 462.066535 -289.864314 
L 461.463697 -289.82226 
L 460.860859 -289.780207 
L 460.258021 -289.738153 
L 459.655183 -289.696099 
L 459.052345 -289.654045 
L 458.449507 -289.611991 
L 457.846669 -289.539254 
L 457.243831 -289.455187 
L 456.640993 -289.37112 
L 456.038154 -289.287054 
L 455.435316 -289.202987 
L 454.832478 -289.118921 
L 454.22964 -289.034854 
L 453.626802 -288.950788 
L 453.023964 -288.866721 
L 452.421126 -288.782654 
L 451.818288 -288.698588 
L 451.21545 -288.614521 
L 450.612612 -288.530455 
L 450.009774 -288.446388 
L 449.406936 -288.362322 
L 448.804098 -288.278255 
L 448.20126 -288.194188 
L 447.598422 -288.110122 
L 446.995583 -288.026055 
L 446.392745 -287.941989 
L 445.789907 -287.910543 
L 445.187069 -288.036704 
L 444.584231 -288.162866 
L 443.981393 -288.289027 
L 443.378555 -288.415189 
L 442.775717 -288.54135 
L 442.172879 -289.366457 
L 441.570041 -291.410475 
L 440.967203 -293.454494 
L 440.364365 -292.782599 
L 439.761527 -292.100493 
L 439.158689 -293.514884 
L 438.555851 -290.83885 
L 437.953013 -290.054175 
L 437.350174 -289.676804 
L 436.747336 -289.802965 
L 436.144498 -289.929127 
L 435.54166 -291.215246 
L 434.938822 -294.276115 
L 434.335984 -297.336984 
L 433.733146 -300.397853 
L 433.130308 -303.458723 
L 432.52747 -306.519592 
L 431.924632 -309.580461 
L 431.321794 -312.64133 
L 430.718956 -315.702199 
L 430.116118 -318.189513 
L 429.51328 -319.551427 
L 428.910442 -320.913341 
L 428.307603 -322.275255 
L 427.704765 -323.637169 
L 427.101927 -324.999083 
L 426.499089 -326.360997 
L 425.896251 -327.722911 
L 425.293413 -329.084825 
L 424.690575 -330.446738 
L 424.087737 -331.808652 
L 423.484899 -333.170566 
L 422.882061 -334.53248 
L 422.279223 -335.894394 
L 421.676385 -337.256308 
L 421.073547 -338.618222 
L 420.470709 -339.980136 
L 419.867871 -341.34205 
L 419.265032 -338.817481 
L 418.662194 -332.688868 
L 418.059356 -326.560256 
L 417.456518 -320.431643 
L 416.85368 -314.30303 
L 416.250842 -308.174417 
L 415.648004 -302.045804 
L 415.045166 -295.917192 
L 414.442328 -289.788579 
L 413.83949 -289.779908 
L 413.236652 -289.864056 
L 412.633814 -289.948205 
L 412.030976 -290.032354 
L 411.428138 -290.116503 
L 410.8253 -290.200652 
L 410.222461 -290.2848 
L 409.619623 -290.368949 
L 409.016785 -290.453098 
L 408.413947 -290.385854 
L 407.811109 -290.301829 
L 407.208271 -290.217803 
L 406.605433 -290.133778 
L 406.002595 -290.049752 
L 405.399757 -289.965727 
L 404.796919 -289.881701 
L 404.194081 -295.959678 
L 403.591243 -303.462843 
L 402.988405 -310.966009 
L 402.385567 -318.469174 
L 401.782729 -325.972339 
L 401.179891 -333.475505 
L 400.577052 -340.97867 
L 399.974214 -348.481836 
L 399.371376 -355.985001 
L 398.768538 -363.488166 
L 398.1657 -370.991332 
L 397.562862 -366.445952 
L 396.960024 -359.279809 
L 396.357186 -352.113666 
L 395.754348 -344.947523 
L 395.15151 -337.78138 
L 394.548672 -330.615237 
L 393.945834 -323.449094 
L 393.342996 -316.282952 
L 392.740158 -309.116809 
L 392.13732 -301.950666 
L 391.534481 -294.784523 
L 390.931643 -288.343105 
L 390.328805 -288.300948 
L 389.725967 -288.87362 
L 389.123129 -292.954779 
L 388.520291 -297.035938 
L 387.917453 -301.117097 
L 387.314615 -305.198256 
L 386.711777 -304.365361 
L 386.108939 -303.001916 
L 385.506101 -301.638471 
L 384.903263 -300.275026 
L 384.300425 -298.911581 
L 383.697587 -297.548136 
L 383.094749 -296.184691 
L 382.49191 -294.821246 
L 381.889072 -293.457801 
L 381.286234 -292.094356 
L 380.683396 -290.730911 
L 380.080558 -289.367466 
L 379.47772 -288.887506 
L 378.874882 -289.013729 
L 378.272044 -289.139952 
L 377.669206 -289.266175 
L 377.066368 -289.392399 
L 376.46353 -289.518622 
L 375.860692 -289.644845 
L 375.257854 -289.771068 
L 374.655016 -289.897291 
L 374.052178 -290.023514 
L 373.44934 -290.149738 
L 372.846501 -290.275961 
L 372.243663 -290.402184 
L 371.640825 -290.416887 
L 371.037987 -290.332738 
L 370.435149 -290.248589 
L 369.832311 -290.164441 
L 369.229473 -290.080292 
L 368.626635 -289.996143 
L 368.023797 -289.911994 
L 367.420959 -289.827845 
L 366.818121 -289.743697 
L 366.215283 -289.659548 
L 365.612445 -289.575399 
L 365.009607 -289.49125 
L 364.406769 -289.407101 
L 363.80393 -289.322953 
L 363.201092 -289.238804 
L 362.598254 -289.154655 
L 361.995416 -289.070506 
L 361.392578 -288.986358 
L 360.78974 -288.902209 
L 360.186902 -288.81806 
L 359.584064 -288.728026 
L 358.981226 -288.559893 
L 358.378388 -288.39176 
L 357.77555 -288.223627 
L 357.172712 -288.055493 
L 356.569874 -287.88736 
L 355.967036 -287.719227 
L 355.364198 -287.551094 
L 354.761359 -287.382961 
L 354.158521 -287.214828 
L 353.555683 -287.046695 
L 352.952845 -286.878561 
L 352.350007 -286.710428 
L 351.747169 -286.542295 
L 351.144331 -286.374162 
L 350.541493 -286.206029 
L 349.938655 -286.037896 
L 349.335817 -285.869763 
L 348.732979 -285.701629 
L 348.130141 -285.533496 
L 347.527303 -285.365363 
L 346.924465 -285.445311 
L 346.321627 -285.697634 
L 345.718789 -285.949957 
L 345.11595 -286.20228 
L 344.513112 -286.454603 
L 343.910274 -286.706926 
L 343.307436 -286.959249 
L 342.704598 -287.211572 
L 342.10176 -287.463895 
L 341.498922 -288.378855 
L 340.896084 -291.107279 
L 340.293246 -293.835702 
L 339.690408 -296.564126 
L 339.08757 -299.29255 
L 338.484732 -302.020974 
L 337.881894 -304.749398 
L 337.279056 -307.477821 
L 336.676218 -310.206245 
L 336.073379 -312.934669 
L 335.470541 -315.663093 
L 334.867703 -318.391516 
L 334.264865 -321.11994 
L 333.662027 -323.706117 
L 333.059189 -318.931376 
L 332.456351 -314.156634 
L 331.853513 -309.381892 
L 331.250675 -304.607151 
L 330.647837 -299.832409 
L 330.044999 -295.057667 
L 329.442161 -301.100354 
L 328.839323 -309.290232 
L 328.236485 -317.480109 
L 327.633647 -325.669987 
L 327.030808 -333.859865 
L 326.42797 -342.049742 
L 325.825132 -350.23962 
L 325.222294 -358.429497 
L 324.619456 -366.619375 
L 324.016618 -374.809253 
L 323.41378 -382.99913 
L 322.810942 -389.987273 
L 322.208104 -383.185341 
L 321.605266 -376.38341 
L 321.002428 -369.581478 
L 320.39959 -362.779547 
L 319.796752 -355.977616 
L 319.193914 -349.175684 
L 318.591076 -342.373753 
L 317.988237 -335.571821 
L 317.385399 -328.76989 
L 316.782561 -321.967958 
L 316.179723 -315.166027 
L 315.576885 -308.364096 
L 314.974047 -301.562164 
L 314.371209 -294.760233 
L 313.768371 -289.973902 
L 313.165533 -290.057969 
L 312.562695 -290.142035 
L 311.959857 -290.226102 
L 311.357019 -290.310168 
L 310.754181 -290.394235 
L 310.151343 -290.453075 
L 309.548505 -290.41096 
L 308.945667 -290.368844 
L 308.342828 -290.326729 
L 307.73999 -290.284613 
L 307.137152 -290.242497 
L 306.534314 -290.200382 
L 305.931476 -290.158266 
L 305.328638 -290.116151 
L 304.7258 -290.074035 
L 304.122962 -290.03192 
L 303.520124 -289.989804 
L 302.917286 -289.947688 
L 302.314448 -289.905573 
L 301.71161 -289.863457 
L 301.108772 -289.821342 
L 300.505934 -289.779226 
L 299.903096 -289.73711 
L 299.300257 -289.694995 
L 298.697419 -289.652879 
L 298.094581 -289.610764 
L 297.491743 -289.568711 
L 296.888905 -289.526677 
L 296.286067 -291.419623 
L 295.683229 -289.442611 
L 295.080391 -289.400578 
L 294.477553 -289.358544 
L 293.874715 -289.316511 
L 293.271877 -289.274478 
L 292.669039 -289.232444 
L 292.066201 -289.190411 
L 291.463363 -289.328169 
L 290.860525 -292.399373 
L 290.257686 -292.126955 
L 289.654848 -290.085231 
L 289.05201 -288.980245 
L 288.449172 -288.938211 
L 287.846334 -288.896178 
L 287.243496 -288.854145 
L 286.640658 -288.812112 
L 286.03782 -288.770078 
L 285.434982 -288.516313 
L 284.832144 -287.717681 
L 284.229306 -286.919048 
L 283.626468 -286.120416 
L 283.02363 -285.321783 
L 282.420792 -284.523151 
L 281.817954 -283.724518 
L 281.215116 -282.925886 
L 280.612277 -282.127254 
L 280.009439 -281.328621 
L 279.406601 -280.529989 
L 278.803763 -279.731356 
L 278.200925 -278.932724 
L 277.598087 -278.134092 
L 276.995249 -277.335459 
L 276.392411 -276.536827 
L 275.789573 -275.738194 
L 275.186735 -274.939562 
L 274.583897 -274.140929 
L 273.981059 -273.342297 
L 273.378221 -273.243811 
L 272.775383 -273.680473 
L 272.172545 -274.117134 
L 271.569706 -276.832721 
L 270.966868 -279.559611 
L 270.36403 -282.286501 
L 269.761192 -285.013391 
L 269.158354 -287.352196 
L 268.555516 -287.011909 
L 267.952678 -286.671621 
L 267.34984 -286.331334 
L 266.747002 -285.991046 
L 266.144164 -285.650759 
L 265.541326 -285.310472 
L 264.938488 -284.970184 
L 264.33565 -284.629897 
L 263.732812 -284.289609 
L 263.129974 -283.949322 
L 262.527135 -283.609034 
L 261.924297 -283.268747 
L 261.321459 -282.92846 
L 260.718621 -282.588172 
L 260.115783 -282.247885 
L 259.512945 -281.907597 
L 258.910107 -281.56731 
L 258.307269 -281.023331 
L 257.704431 -279.99902 
L 257.101593 -278.974709 
L 256.498755 -277.950398 
L 255.895917 -276.926087 
L 255.293079 -275.901776 
L 254.690241 -274.877465 
L 254.087403 -273.853153 
L 253.484565 -273.096123 
L 252.881726 -272.643356 
L 252.278888 -274.645729 
L 251.67605 -277.308645 
L 251.073212 -275.860503 
L 250.470374 -274.412361 
L 249.867536 -273.063325 
L 249.264698 -273.445964 
L 248.66186 -274.137663 
L 248.059022 -274.12225 
L 247.456184 -273.851988 
L 246.853346 -273.709151 
L 246.250508 -274.745726 
L 245.64767 -273.423476 
L 245.044832 -273.280639 
L 244.441994 -273.137801 
L 243.839155 -272.994964 
L 243.236317 -272.914345 
L 242.633479 -273.221155 
L 242.030641 -272.914345 
L 241.427803 -272.914345 
L 240.824965 -272.914345 
L 240.222127 -272.914345 
L 239.619289 -272.914345 
L 239.016451 -272.914345 
L 238.413613 -273.239234 
L 237.810775 -273.291459 
L 237.207937 -273.237758 
L 236.605099 -273.184057 
L 236.002261 -273.130356 
L 235.399423 -273.076655 
L 234.796584 -273.022954 
L 234.193746 -272.969253 
L 233.590908 -273.14088 
L 232.98807 -273.898219 
L 232.385232 -274.655558 
L 231.782394 -275.412897 
L 231.179556 -276.170236 
L 230.576718 -276.927575 
L 229.97388 -277.684914 
L 229.371042 -278.442254 
L 228.768204 -279.199593 
L 228.165366 -279.956932 
L 227.562528 -280.714271 
L 226.95969 -281.47161 
L 226.356852 -282.228949 
L 225.754014 -282.986288 
L 225.151175 -283.743627 
L 224.548337 -284.500966 
L 223.945499 -285.258305 
L 223.342661 -285.456493 
L 222.739823 -285.625038 
L 222.136985 -285.793583 
L 221.534147 -285.962127 
L 220.931309 -286.130672 
L 220.328471 -288.315203 
L 219.725633 -292.746399 
L 219.122795 -297.177596 
L 218.519957 -301.608792 
L 217.917119 -306.039989 
L 217.314281 -310.471185 
L 216.711443 -314.902382 
L 216.108604 -319.333578 
L 215.505766 -323.764774 
L 214.902928 -319.731145 
L 214.30009 -315.636206 
L 213.697252 -311.541267 
L 213.094414 -307.446328 
L 212.491576 -303.351389 
L 211.888738 -299.256451 
L 211.2859 -295.161512 
L 210.683062 -291.066573 
L 210.080224 -287.14807 
L 209.477386 -286.516336 
L 208.874548 -285.884602 
L 208.27171 -285.252869 
L 207.668872 -284.621135 
L 207.066033 -283.989401 
L 206.463195 -283.357667 
L 205.860357 -282.725934 
L 205.257519 -282.0942 
L 204.654681 -281.462466 
L 204.051843 -280.830733 
L 203.449005 -280.198999 
L 202.846167 -279.567265 
L 202.243329 -278.935531 
L 201.640491 -278.303798 
L 201.037653 -278.454612 
L 200.434815 -278.749133 
L 199.831977 -279.043654 
L 199.229139 -279.193181 
L 198.626301 -278.856421 
L 198.023462 -281.573455 
L 197.420624 -284.300345 
L 196.817786 -287.027235 
L 196.214948 -289.754125 
L 195.61211 -292.481015 
L 195.009272 -295.207905 
L 194.406434 -297.934795 
L 193.803596 -300.378049 
L 193.200758 -302.422067 
L 192.59792 -304.466086 
L 191.995082 -306.510105 
L 191.392244 -308.554123 
L 190.789406 -310.598142 
L 190.186568 -312.64216 
L 189.58373 -314.686179 
L 188.980892 -316.730198 
L 188.378053 -318.774216 
L 187.775215 -320.818235 
L 187.172377 -322.862253 
L 186.569539 -324.906272 
L 185.966701 -326.950291 
L 185.363863 -328.994309 
L 184.761025 -331.038328 
L 184.158187 -333.082346 
L 183.555349 -335.126365 
L 182.952511 -331.58328 
L 182.349673 -324.417137 
L 181.746835 -317.250994 
L 181.143997 -310.084851 
L 180.541159 -302.918708 
L 179.938321 -295.752565 
L 179.335482 -288.586422 
L 178.732644 -281.42028 
L 178.129806 -276.738824 
L 177.526968 -277.033488 
L 176.92413 -277.328153 
L 176.321292 -277.622818 
L 175.718454 -277.917483 
L 175.115616 -278.212148 
L 174.512778 -278.562314 
L 173.90994 -279.025359 
L 173.307102 -279.488404 
L 172.704264 -279.951448 
L 172.101426 -280.414493 
L 171.498588 -280.877538 
L 170.89575 -281.340583 
L 170.292911 -281.803627 
L 169.690073 -282.266672 
L 169.087235 -282.729717 
L 168.484397 -283.192762 
L 167.881559 -283.655807 
L 167.278721 -284.118851 
L 166.675883 -284.581896 
L 166.073045 -285.044941 
L 165.470207 -285.507986 
L 164.867369 -285.97103 
L 164.264531 -286.434075 
L 163.661693 -286.89712 
L 163.058855 -287.360165 
L 162.456017 -287.823209 
L 161.853179 -287.139523 
L 161.250341 -286.298857 
L 160.647502 -285.458191 
L 160.044664 -284.617526 
L 159.441826 -283.77686 
L 158.838988 -282.936194 
L 158.23615 -282.095528 
L 157.633312 -281.254863 
L 157.030474 -280.414197 
L 156.427636 -279.573531 
L 155.824798 -278.732866 
L 155.22196 -277.8922 
L 154.619122 -277.051534 
L 154.016284 -276.210868 
L 153.413446 -275.370203 
L 152.810608 -274.529537 
L 152.20777 -273.688871 
L 151.604931 -272.848206 
L 151.002093 -272.012022 
L 150.399255 -273.252765 
L 149.796417 -273.008436 
L 149.193579 -272.553837 
L 148.590741 -271.713334 
L 147.987903 -271.634399 
L 147.385065 -272.02116 
L 146.782227 -271.851278 
L 146.179389 -271.650466 
L 145.576551 -271.449655 
L 144.973713 -271.248844 
L 144.370875 -271.082471 
L 143.768037 -271.594446 
L 143.165199 -272.439618 
L 142.56236 -272.372133 
L 141.959522 -272.907189 
L 141.356684 -276.040232 
L 140.753846 -274.035188 
L 140.151008 -273.03928 
L 139.54817 -273.790282 
L 138.945332 -274.541284 
L 138.342494 -274.768417 
L 137.739656 -275.116702 
L 137.136818 -274.283277 
L 136.53398 -272.595941 
L 135.931142 -272.256762 
L 135.328304 -271.917584 
L 134.725466 -271.578406 
L 134.122628 -271.273455 
L 133.51979 -271.599377 
L 132.916951 -271.358892 
L 132.314113 -271.46473 
L 131.711275 -273.1025 
L 131.108437 -272.222748 
L 130.505599 -272.560631 
L 129.902761 -272.61178 
L 129.299923 -272.70337 
L 128.697085 -273.355562 
L 128.094247 -273.02594 
L 127.491409 -275.354735 
L 126.888571 -275.082668 
L 126.285733 -273.853851 
L 125.682895 -273.252913 
L 125.080057 -275.853422 
L 124.477219 -274.243939 
L 123.87438 -273.141512 
L 123.271542 -273.050022 
L 122.668704 -272.958531 
L 122.065866 -272.867041 
L 121.463028 -272.77555 
L 120.86019 -272.684059 
L 120.257352 -273.248169 
L 119.654514 -272.533584 
L 119.051676 -274.313828 
L 118.448838 -275.538534 
L 117.846 -275.878821 
L 117.243162 -276.219108 
L 116.640324 -276.559396 
L 116.037486 -276.899683 
L 115.434648 -277.239971 
L 114.831809 -277.580258 
L 114.228971 -277.920546 
L 113.626133 -278.260833 
L 113.023295 -278.60112 
L 112.420457 -278.941408 
L 111.817619 -279.281695 
L 111.214781 -279.621983 
L 110.611943 -279.96227 
L 110.009105 -280.302558 
L 109.406267 -280.642845 
L 108.803429 -280.983132 
L 108.200591 -281.32342 
L 107.597753 -279.982412 
L 106.994915 -278.616664 
L 106.392077 -277.33533 
L 105.789238 -278.016287 
L 105.1864 -278.697244 
L 104.583562 -279.378201 
L 103.980724 -280.059158 
L 103.377886 -280.740115 
L 102.775048 -281.421072 
L 102.17221 -282.102029 
L 101.569372 -282.782986 
L 100.966534 -283.463943 
L 100.363696 -284.1449 
L 99.760858 -284.825857 
L 99.15802 -285.506814 
L 98.555182 -286.187771 
L 97.952344 -286.868728 
L 97.349506 -287.549598 
L 96.746668 -288.230173 
L 96.143829 -288.910748 
L 95.540991 -289.591323 
L 94.938153 -290.271898 
L 94.335315 -290.952473 
L 93.732477 -291.633047 
L 93.129639 -292.313622 
L 92.526801 -292.994197 
L 91.923963 -293.674772 
L 91.321125 -294.355347 
L 90.718287 -295.035922 
L 90.115449 -295.716496 
L 89.512611 -296.397071 
L 88.909773 -297.077646 
L 88.306935 -300.944145 
L 87.704097 -305.032182 
L 87.101258 -309.120219 
L 86.49842 -311.662843 
L 85.895582 -311.662843 
L 85.292744 -311.662843 
L 84.689906 -311.662843 
L 84.087068 -311.662843 
L 83.48423 -311.662843 
L 82.881392 -311.662843 
L 82.278554 -311.662843 
L 81.675716 -311.662843 
L 81.072878 -311.662843 
L 80.47004 -311.662843 
L 79.867202 -311.662843 
L 79.264364 -311.662843 
L 78.661526 -311.662843 
L 78.058687 -311.662843 
L 77.455849 -311.662843 
L 76.853011 -311.662843 
z
" style="stroke: #008000; stroke-opacity: 0.3"/>
    </defs>
    <g clip-path="url(#pcd292182a9)">
     <use xlink:href="#mf662a781f3" x="0" y="432" style="fill: #008000; fill-opacity: 0.3; stroke: #008000; stroke-opacity: 0.3"/>
    </g>
   </g>
   <g id="matplotlib.axis_1">
    <g id="xtick_1">
     <g id="line2d_1">
      <defs>
       <path id="m09ed1d7ebe" d="M 0 0 
L 0 3.5 
" style="stroke: #000000; stroke-width: 0.8"/>
      </defs>
      <g>
       <use xlink:href="#m09ed1d7ebe" x="76.014655" y="390.04" style="stroke: #000000; stroke-width: 0.8"/>
      </g>
     </g>
     <g id="text_1">
      <!-- 0 -->
      <g transform="translate(72.833405 404.638438) scale(0.1 -0.1)">
       <defs>
        <path id="DejaVuSans-30" d="M 2034 4250 
Q 1547 4250 1301 3770 
Q 1056 3291 1056 2328 
Q 1056 1369 1301 889 
Q 1547 409 2034 409 
Q 2525 409 2770 889 
Q 3016 1369 3016 2328 
Q 3016 3291 2770 3770 
Q 2525 4250 2034 4250 
z
M 2034 4750 
Q 2819 4750 3233 4129 
Q 3647 3509 3647 2328 
Q 3647 1150 3233 529 
Q 2819 -91 2034 -91 
Q 1250 -91 836 529 
Q 422 1150 422 2328 
Q 422 3509 836 4129 
Q 1250 4750 2034 4750 
z
" transform="scale(0.015625)"/>
       </defs>
       <use xlink:href="#DejaVuSans-30"/>
      </g>
     </g>
    </g>
    <g id="xtick_2">
     <g id="line2d_2">
      <g>
       <use xlink:href="#m09ed1d7ebe" x="196.641435" y="390.04" style="stroke: #000000; stroke-width: 0.8"/>
      </g>
     </g>
     <g id="text_2">
      <!-- 20000 -->
      <g transform="translate(180.735185 404.638438) scale(0.1 -0.1)">
       <defs>
        <path id="DejaVuSans-32" d="M 1228 531 
L 3431 531 
L 3431 0 
L 469 0 
L 469 531 
Q 828 903 1448 1529 
Q 2069 2156 2228 2338 
Q 2531 2678 2651 2914 
Q 2772 3150 2772 3378 
Q 2772 3750 2511 3984 
Q 2250 4219 1831 4219 
Q 1534 4219 1204 4116 
Q 875 4013 500 3803 
L 500 4441 
Q 881 4594 1212 4672 
Q 1544 4750 1819 4750 
Q 2544 4750 2975 4387 
Q 3406 4025 3406 3419 
Q 3406 3131 3298 2873 
Q 3191 2616 2906 2266 
Q 2828 2175 2409 1742 
Q 1991 1309 1228 531 
z
" transform="scale(0.015625)"/>
       </defs>
       <use xlink:href="#DejaVuSans-32"/>
       <use xlink:href="#DejaVuSans-30" transform="translate(63.623047 0)"/>
       <use xlink:href="#DejaVuSans-30" transform="translate(127.246094 0)"/>
       <use xlink:href="#DejaVuSans-30" transform="translate(190.869141 0)"/>
       <use xlink:href="#DejaVuSans-30" transform="translate(254.492188 0)"/>
      </g>
     </g>
    </g>
    <g id="xtick_3">
     <g id="line2d_3">
      <g>
       <use xlink:href="#m09ed1d7ebe" x="317.268214" y="390.04" style="stroke: #000000; stroke-width: 0.8"/>
      </g>
     </g>
     <g id="text_3">
      <!-- 40000 -->
      <g transform="translate(301.361964 404.638438) scale(0.1 -0.1)">
       <defs>
        <path id="DejaVuSans-34" d="M 2419 4116 
L 825 1625 
L 2419 1625 
L 2419 4116 
z
M 2253 4666 
L 3047 4666 
L 3047 1625 
L 3713 1625 
L 3713 1100 
L 3047 1100 
L 3047 0 
L 2419 0 
L 2419 1100 
L 313 1100 
L 313 1709 
L 2253 4666 
z
" transform="scale(0.015625)"/>
       </defs>
       <use xlink:href="#DejaVuSans-34"/>
       <use xlink:href="#DejaVuSans-30" transform="translate(63.623047 0)"/>
       <use xlink:href="#DejaVuSans-30" transform="translate(127.246094 0)"/>
       <use xlink:href="#DejaVuSans-30" transform="translate(190.869141 0)"/>
       <use xlink:href="#DejaVuSans-30" transform="translate(254.492188 0)"/>
      </g>
     </g>
    </g>
    <g id="xtick_4">
     <g id="line2d_4">
      <g>
       <use xlink:href="#m09ed1d7ebe" x="437.894993" y="390.04" style="stroke: #000000; stroke-width: 0.8"/>
      </g>
     </g>
     <g id="text_4">
      <!-- 60000 -->
      <g transform="translate(421.988743 404.638438) scale(0.1 -0.1)">
       <defs>
        <path id="DejaVuSans-36" d="M 2113 2584 
Q 1688 2584 1439 2293 
Q 1191 2003 1191 1497 
Q 1191 994 1439 701 
Q 1688 409 2113 409 
Q 2538 409 2786 701 
Q 3034 994 3034 1497 
Q 3034 2003 2786 2293 
Q 2538 2584 2113 2584 
z
M 3366 4563 
L 3366 3988 
Q 3128 4100 2886 4159 
Q 2644 4219 2406 4219 
Q 1781 4219 1451 3797 
Q 1122 3375 1075 2522 
Q 1259 2794 1537 2939 
Q 1816 3084 2150 3084 
Q 2853 3084 3261 2657 
Q 3669 2231 3669 1497 
Q 3669 778 3244 343 
Q 2819 -91 2113 -91 
Q 1303 -91 875 529 
Q 447 1150 447 2328 
Q 447 3434 972 4092 
Q 1497 4750 2381 4750 
Q 2619 4750 2861 4703 
Q 3103 4656 3366 4563 
z
" transform="scale(0.015625)"/>
       </defs>
       <use xlink:href="#DejaVuSans-36"/>
       <use xlink:href="#DejaVuSans-30" transform="translate(63.623047 0)"/>
       <use xlink:href="#DejaVuSans-30" transform="translate(127.246094 0)"/>
       <use xlink:href="#DejaVuSans-30" transform="translate(190.869141 0)"/>
       <use xlink:href="#DejaVuSans-30" transform="translate(254.492188 0)"/>
      </g>
     </g>
    </g>
    <g id="xtick_5">
     <g id="line2d_5">
      <g>
       <use xlink:href="#m09ed1d7ebe" x="558.521773" y="390.04" style="stroke: #000000; stroke-width: 0.8"/>
      </g>
     </g>
     <g id="text_5">
      <!-- 80000 -->
      <g transform="translate(542.615523 404.638438) scale(0.1 -0.1)">
       <defs>
        <path id="DejaVuSans-38" d="M 2034 2216 
Q 1584 2216 1326 1975 
Q 1069 1734 1069 1313 
Q 1069 891 1326 650 
Q 1584 409 2034 409 
Q 2484 409 2743 651 
Q 3003 894 3003 1313 
Q 3003 1734 2745 1975 
Q 2488 2216 2034 2216 
z
M 1403 2484 
Q 997 2584 770 2862 
Q 544 3141 544 3541 
Q 544 4100 942 4425 
Q 1341 4750 2034 4750 
Q 2731 4750 3128 4425 
Q 3525 4100 3525 3541 
Q 3525 3141 3298 2862 
Q 3072 2584 2669 2484 
Q 3125 2378 3379 2068 
Q 3634 1759 3634 1313 
Q 3634 634 3220 271 
Q 2806 -91 2034 -91 
Q 1263 -91 848 271 
Q 434 634 434 1313 
Q 434 1759 690 2068 
Q 947 2378 1403 2484 
z
M 1172 3481 
Q 1172 3119 1398 2916 
Q 1625 2713 2034 2713 
Q 2441 2713 2670 2916 
Q 2900 3119 2900 3481 
Q 2900 3844 2670 4047 
Q 2441 4250 2034 4250 
Q 1625 4250 1398 4047 
Q 1172 3844 1172 3481 
z
" transform="scale(0.015625)"/>
       </defs>
       <use xlink:href="#DejaVuSans-38"/>
       <use xlink:href="#DejaVuSans-30" transform="translate(63.623047 0)"/>
       <use xlink:href="#DejaVuSans-30" transform="translate(127.246094 0)"/>
       <use xlink:href="#DejaVuSans-30" transform="translate(190.869141 0)"/>
       <use xlink:href="#DejaVuSans-30" transform="translate(254.492188 0)"/>
      </g>
     </g>
    </g>
    <g id="xtick_6">
     <g id="line2d_6">
      <g>
       <use xlink:href="#m09ed1d7ebe" x="679.148552" y="390.04" style="stroke: #000000; stroke-width: 0.8"/>
      </g>
     </g>
     <g id="text_6">
      <!-- 100000 -->
      <g transform="translate(660.061052 404.638438) scale(0.1 -0.1)">
       <defs>
        <path id="DejaVuSans-31" d="M 794 531 
L 1825 531 
L 1825 4091 
L 703 3866 
L 703 4441 
L 1819 4666 
L 2450 4666 
L 2450 531 
L 3481 531 
L 3481 0 
L 794 0 
L 794 531 
z
" transform="scale(0.015625)"/>
       </defs>
       <use xlink:href="#DejaVuSans-31"/>
       <use xlink:href="#DejaVuSans-30" transform="translate(63.623047 0)"/>
       <use xlink:href="#DejaVuSans-30" transform="translate(127.246094 0)"/>
       <use xlink:href="#DejaVuSans-30" transform="translate(190.869141 0)"/>
       <use xlink:href="#DejaVuSans-30" transform="translate(254.492188 0)"/>
       <use xlink:href="#DejaVuSans-30" transform="translate(318.115234 0)"/>
      </g>
     </g>
    </g>
    <g id="text_7">
     <!-- Step -->
     <g transform="translate(366.585469 418.316562) scale(0.1 -0.1)">
      <defs>
       <path id="DejaVuSans-53" d="M 3425 4513 
L 3425 3897 
Q 3066 4069 2747 4153 
Q 2428 4238 2131 4238 
Q 1616 4238 1336 4038 
Q 1056 3838 1056 3469 
Q 1056 3159 1242 3001 
Q 1428 2844 1947 2747 
L 2328 2669 
Q 3034 2534 3370 2195 
Q 3706 1856 3706 1288 
Q 3706 609 3251 259 
Q 2797 -91 1919 -91 
Q 1588 -91 1214 -16 
Q 841 59 441 206 
L 441 856 
Q 825 641 1194 531 
Q 1563 422 1919 422 
Q 2459 422 2753 634 
Q 3047 847 3047 1241 
Q 3047 1584 2836 1778 
Q 2625 1972 2144 2069 
L 1759 2144 
Q 1053 2284 737 2584 
Q 422 2884 422 3419 
Q 422 4038 858 4394 
Q 1294 4750 2059 4750 
Q 2388 4750 2728 4690 
Q 3069 4631 3425 4513 
z
" transform="scale(0.015625)"/>
       <path id="DejaVuSans-74" d="M 1172 4494 
L 1172 3500 
L 2356 3500 
L 2356 3053 
L 1172 3053 
L 1172 1153 
Q 1172 725 1289 603 
Q 1406 481 1766 481 
L 2356 481 
L 2356 0 
L 1766 0 
Q 1100 0 847 248 
Q 594 497 594 1153 
L 594 3053 
L 172 3053 
L 172 3500 
L 594 3500 
L 594 4494 
L 1172 4494 
z
" transform="scale(0.015625)"/>
       <path id="DejaVuSans-65" d="M 3597 1894 
L 3597 1613 
L 953 1613 
Q 991 1019 1311 708 
Q 1631 397 2203 397 
Q 2534 397 2845 478 
Q 3156 559 3463 722 
L 3463 178 
Q 3153 47 2828 -22 
Q 2503 -91 2169 -91 
Q 1331 -91 842 396 
Q 353 884 353 1716 
Q 353 2575 817 3079 
Q 1281 3584 2069 3584 
Q 2775 3584 3186 3129 
Q 3597 2675 3597 1894 
z
M 3022 2063 
Q 3016 2534 2758 2815 
Q 2500 3097 2075 3097 
Q 1594 3097 1305 2825 
Q 1016 2553 972 2059 
L 3022 2063 
z
" transform="scale(0.015625)"/>
       <path id="DejaVuSans-70" d="M 1159 525 
L 1159 -1331 
L 581 -1331 
L 581 3500 
L 1159 3500 
L 1159 2969 
Q 1341 3281 1617 3432 
Q 1894 3584 2278 3584 
Q 2916 3584 3314 3078 
Q 3713 2572 3713 1747 
Q 3713 922 3314 415 
Q 2916 -91 2278 -91 
Q 1894 -91 1617 61 
Q 1341 213 1159 525 
z
M 3116 1747 
Q 3116 2381 2855 2742 
Q 2594 3103 2138 3103 
Q 1681 3103 1420 2742 
Q 1159 2381 1159 1747 
Q 1159 1113 1420 752 
Q 1681 391 2138 391 
Q 2594 391 2855 752 
Q 3116 1113 3116 1747 
z
" transform="scale(0.015625)"/>
      </defs>
      <use xlink:href="#DejaVuSans-53"/>
      <use xlink:href="#DejaVuSans-74" transform="translate(63.476562 0)"/>
      <use xlink:href="#DejaVuSans-65" transform="translate(102.685547 0)"/>
      <use xlink:href="#DejaVuSans-70" transform="translate(164.208984 0)"/>
     </g>
    </g>
   </g>
   <g id="matplotlib.axis_2">
    <g id="ytick_1">
     <g id="line2d_7">
      <defs>
       <path id="md3ecf98d88" d="M 0 0 
L -3.5 0 
" style="stroke: #000000; stroke-width: 0.8"/>
      </defs>
      <g>
       <use xlink:href="#md3ecf98d88" x="46.74125" y="366.046511" style="stroke: #000000; stroke-width: 0.8"/>
      </g>
     </g>
     <g id="text_8">
      <!-- 8 -->
      <g transform="translate(24.999063 369.84573) scale(0.1 -0.1)">
       <defs>
        <path id="DejaVuSans-2212" d="M 678 2272 
L 4684 2272 
L 4684 1741 
L 678 1741 
L 678 2272 
z
" transform="scale(0.015625)"/>
       </defs>
       <use xlink:href="#DejaVuSans-2212"/>
       <use xlink:href="#DejaVuSans-38" transform="translate(83.789062 0)"/>
      </g>
     </g>
    </g>
    <g id="ytick_2">
     <g id="line2d_8">
      <g>
       <use xlink:href="#md3ecf98d88" x="46.74125" y="315.084571" style="stroke: #000000; stroke-width: 0.8"/>
      </g>
     </g>
     <g id="text_9">
      <!-- 6 -->
      <g transform="translate(24.999063 318.88379) scale(0.1 -0.1)">
       <use xlink:href="#DejaVuSans-2212"/>
       <use xlink:href="#DejaVuSans-36" transform="translate(83.789062 0)"/>
      </g>
     </g>
    </g>
    <g id="ytick_3">
     <g id="line2d_9">
      <g>
       <use xlink:href="#md3ecf98d88" x="46.74125" y="264.122631" style="stroke: #000000; stroke-width: 0.8"/>
      </g>
     </g>
     <g id="text_10">
      <!-- 4 -->
      <g transform="translate(24.999063 267.92185) scale(0.1 -0.1)">
       <use xlink:href="#DejaVuSans-2212"/>
       <use xlink:href="#DejaVuSans-34" transform="translate(83.789062 0)"/>
      </g>
     </g>
    </g>
    <g id="ytick_4">
     <g id="line2d_10">
      <g>
       <use xlink:href="#md3ecf98d88" x="46.74125" y="213.160691" style="stroke: #000000; stroke-width: 0.8"/>
      </g>
     </g>
     <g id="text_11">
      <!-- 2 -->
      <g transform="translate(24.999063 216.95991) scale(0.1 -0.1)">
       <use xlink:href="#DejaVuSans-2212"/>
       <use xlink:href="#DejaVuSans-32" transform="translate(83.789062 0)"/>
      </g>
     </g>
    </g>
    <g id="ytick_5">
     <g id="line2d_11">
      <g>
       <use xlink:href="#md3ecf98d88" x="46.74125" y="162.198751" style="stroke: #000000; stroke-width: 0.8"/>
      </g>
     </g>
     <g id="text_12">
      <!-- 0 -->
      <g transform="translate(33.37875 165.99797) scale(0.1 -0.1)">
       <use xlink:href="#DejaVuSans-30"/>
      </g>
     </g>
    </g>
    <g id="ytick_6">
     <g id="line2d_12">
      <g>
       <use xlink:href="#md3ecf98d88" x="46.74125" y="111.236811" style="stroke: #000000; stroke-width: 0.8"/>
      </g>
     </g>
     <g id="text_13">
      <!-- 2 -->
      <g transform="translate(33.37875 115.03603) scale(0.1 -0.1)">
       <use xlink:href="#DejaVuSans-32"/>
      </g>
     </g>
    </g>
    <g id="ytick_7">
     <g id="line2d_13">
      <g>
       <use xlink:href="#md3ecf98d88" x="46.74125" y="60.274871" style="stroke: #000000; stroke-width: 0.8"/>
      </g>
     </g>
     <g id="text_14">
      <!-- 4 -->
      <g transform="translate(33.37875 64.07409) scale(0.1 -0.1)">
       <use xlink:href="#DejaVuSans-34"/>
      </g>
     </g>
    </g>
    <g id="text_15">
     <!-- charts/episodic_return -->
     <g transform="translate(18.64125 263.428281) rotate(-90) scale(0.1 -0.1)">
      <defs>
       <path id="DejaVuSans-63" d="M 3122 3366 
L 3122 2828 
Q 2878 2963 2633 3030 
Q 2388 3097 2138 3097 
Q 1578 3097 1268 2742 
Q 959 2388 959 1747 
Q 959 1106 1268 751 
Q 1578 397 2138 397 
Q 2388 397 2633 464 
Q 2878 531 3122 666 
L 3122 134 
Q 2881 22 2623 -34 
Q 2366 -91 2075 -91 
Q 1284 -91 818 406 
Q 353 903 353 1747 
Q 353 2603 823 3093 
Q 1294 3584 2113 3584 
Q 2378 3584 2631 3529 
Q 2884 3475 3122 3366 
z
" transform="scale(0.015625)"/>
       <path id="DejaVuSans-68" d="M 3513 2113 
L 3513 0 
L 2938 0 
L 2938 2094 
Q 2938 2591 2744 2837 
Q 2550 3084 2163 3084 
Q 1697 3084 1428 2787 
Q 1159 2491 1159 1978 
L 1159 0 
L 581 0 
L 581 4863 
L 1159 4863 
L 1159 2956 
Q 1366 3272 1645 3428 
Q 1925 3584 2291 3584 
Q 2894 3584 3203 3211 
Q 3513 2838 3513 2113 
z
" transform="scale(0.015625)"/>
       <path id="DejaVuSans-61" d="M 2194 1759 
Q 1497 1759 1228 1600 
Q 959 1441 959 1056 
Q 959 750 1161 570 
Q 1363 391 1709 391 
Q 2188 391 2477 730 
Q 2766 1069 2766 1631 
L 2766 1759 
L 2194 1759 
z
M 3341 1997 
L 3341 0 
L 2766 0 
L 2766 531 
Q 2569 213 2275 61 
Q 1981 -91 1556 -91 
Q 1019 -91 701 211 
Q 384 513 384 1019 
Q 384 1609 779 1909 
Q 1175 2209 1959 2209 
L 2766 2209 
L 2766 2266 
Q 2766 2663 2505 2880 
Q 2244 3097 1772 3097 
Q 1472 3097 1187 3025 
Q 903 2953 641 2809 
L 641 3341 
Q 956 3463 1253 3523 
Q 1550 3584 1831 3584 
Q 2591 3584 2966 3190 
Q 3341 2797 3341 1997 
z
" transform="scale(0.015625)"/>
       <path id="DejaVuSans-72" d="M 2631 2963 
Q 2534 3019 2420 3045 
Q 2306 3072 2169 3072 
Q 1681 3072 1420 2755 
Q 1159 2438 1159 1844 
L 1159 0 
L 581 0 
L 581 3500 
L 1159 3500 
L 1159 2956 
Q 1341 3275 1631 3429 
Q 1922 3584 2338 3584 
Q 2397 3584 2469 3576 
Q 2541 3569 2628 3553 
L 2631 2963 
z
" transform="scale(0.015625)"/>
       <path id="DejaVuSans-73" d="M 2834 3397 
L 2834 2853 
Q 2591 2978 2328 3040 
Q 2066 3103 1784 3103 
Q 1356 3103 1142 2972 
Q 928 2841 928 2578 
Q 928 2378 1081 2264 
Q 1234 2150 1697 2047 
L 1894 2003 
Q 2506 1872 2764 1633 
Q 3022 1394 3022 966 
Q 3022 478 2636 193 
Q 2250 -91 1575 -91 
Q 1294 -91 989 -36 
Q 684 19 347 128 
L 347 722 
Q 666 556 975 473 
Q 1284 391 1588 391 
Q 1994 391 2212 530 
Q 2431 669 2431 922 
Q 2431 1156 2273 1281 
Q 2116 1406 1581 1522 
L 1381 1569 
Q 847 1681 609 1914 
Q 372 2147 372 2553 
Q 372 3047 722 3315 
Q 1072 3584 1716 3584 
Q 2034 3584 2315 3537 
Q 2597 3491 2834 3397 
z
" transform="scale(0.015625)"/>
       <path id="DejaVuSans-2f" d="M 1625 4666 
L 2156 4666 
L 531 -594 
L 0 -594 
L 1625 4666 
z
" transform="scale(0.015625)"/>
       <path id="DejaVuSans-69" d="M 603 3500 
L 1178 3500 
L 1178 0 
L 603 0 
L 603 3500 
z
M 603 4863 
L 1178 4863 
L 1178 4134 
L 603 4134 
L 603 4863 
z
" transform="scale(0.015625)"/>
       <path id="DejaVuSans-6f" d="M 1959 3097 
Q 1497 3097 1228 2736 
Q 959 2375 959 1747 
Q 959 1119 1226 758 
Q 1494 397 1959 397 
Q 2419 397 2687 759 
Q 2956 1122 2956 1747 
Q 2956 2369 2687 2733 
Q 2419 3097 1959 3097 
z
M 1959 3584 
Q 2709 3584 3137 3096 
Q 3566 2609 3566 1747 
Q 3566 888 3137 398 
Q 2709 -91 1959 -91 
Q 1206 -91 779 398 
Q 353 888 353 1747 
Q 353 2609 779 3096 
Q 1206 3584 1959 3584 
z
" transform="scale(0.015625)"/>
       <path id="DejaVuSans-64" d="M 2906 2969 
L 2906 4863 
L 3481 4863 
L 3481 0 
L 2906 0 
L 2906 525 
Q 2725 213 2448 61 
Q 2172 -91 1784 -91 
Q 1150 -91 751 415 
Q 353 922 353 1747 
Q 353 2572 751 3078 
Q 1150 3584 1784 3584 
Q 2172 3584 2448 3432 
Q 2725 3281 2906 2969 
z
M 947 1747 
Q 947 1113 1208 752 
Q 1469 391 1925 391 
Q 2381 391 2643 752 
Q 2906 1113 2906 1747 
Q 2906 2381 2643 2742 
Q 2381 3103 1925 3103 
Q 1469 3103 1208 2742 
Q 947 2381 947 1747 
z
" transform="scale(0.015625)"/>
       <path id="DejaVuSans-5f" d="M 3263 -1063 
L 3263 -1509 
L -63 -1509 
L -63 -1063 
L 3263 -1063 
z
" transform="scale(0.015625)"/>
       <path id="DejaVuSans-75" d="M 544 1381 
L 544 3500 
L 1119 3500 
L 1119 1403 
Q 1119 906 1312 657 
Q 1506 409 1894 409 
Q 2359 409 2629 706 
Q 2900 1003 2900 1516 
L 2900 3500 
L 3475 3500 
L 3475 0 
L 2900 0 
L 2900 538 
Q 2691 219 2414 64 
Q 2138 -91 1772 -91 
Q 1169 -91 856 284 
Q 544 659 544 1381 
z
M 1991 3584 
L 1991 3584 
z
" transform="scale(0.015625)"/>
       <path id="DejaVuSans-6e" d="M 3513 2113 
L 3513 0 
L 2938 0 
L 2938 2094 
Q 2938 2591 2744 2837 
Q 2550 3084 2163 3084 
Q 1697 3084 1428 2787 
Q 1159 2491 1159 1978 
L 1159 0 
L 581 0 
L 581 3500 
L 1159 3500 
L 1159 2956 
Q 1366 3272 1645 3428 
Q 1925 3584 2291 3584 
Q 2894 3584 3203 3211 
Q 3513 2838 3513 2113 
z
" transform="scale(0.015625)"/>
      </defs>
      <use xlink:href="#DejaVuSans-63"/>
      <use xlink:href="#DejaVuSans-68" transform="translate(54.980469 0)"/>
      <use xlink:href="#DejaVuSans-61" transform="translate(118.359375 0)"/>
      <use xlink:href="#DejaVuSans-72" transform="translate(179.638672 0)"/>
      <use xlink:href="#DejaVuSans-74" transform="translate(220.751953 0)"/>
      <use xlink:href="#DejaVuSans-73" transform="translate(259.960938 0)"/>
      <use xlink:href="#DejaVuSans-2f" transform="translate(312.060547 0)"/>
      <use xlink:href="#DejaVuSans-65" transform="translate(345.751953 0)"/>
      <use xlink:href="#DejaVuSans-70" transform="translate(407.275391 0)"/>
      <use xlink:href="#DejaVuSans-69" transform="translate(470.751953 0)"/>
      <use xlink:href="#DejaVuSans-73" transform="translate(498.535156 0)"/>
      <use xlink:href="#DejaVuSans-6f" transform="translate(550.634766 0)"/>
      <use xlink:href="#DejaVuSans-64" transform="translate(611.816406 0)"/>
      <use xlink:href="#DejaVuSans-69" transform="translate(675.292969 0)"/>
      <use xlink:href="#DejaVuSans-63" transform="translate(703.076172 0)"/>
      <use xlink:href="#DejaVuSans-5f" transform="translate(758.056641 0)"/>
      <use xlink:href="#DejaVuSans-72" transform="translate(808.056641 0)"/>
      <use xlink:href="#DejaVuSans-65" transform="translate(846.919922 0)"/>
      <use xlink:href="#DejaVuSans-74" transform="translate(908.443359 0)"/>
      <use xlink:href="#DejaVuSans-75" transform="translate(947.652344 0)"/>
      <use xlink:href="#DejaVuSans-72" transform="translate(1011.03125 0)"/>
      <use xlink:href="#DejaVuSans-6e" transform="translate(1050.394531 0)"/>
     </g>
    </g>
   </g>
   <g id="line2d_14">
    <path d="M 76.853011 158.523055 
L 78.058687 158.625876 
L 81.072878 158.477109 
L 84.689906 158.399745 
L 86.49842 158.363459 
L 87.101258 158.511162 
L 88.306935 159.067832 
L 90.115449 159.790255 
L 93.129639 161.005287 
L 94.335315 161.670332 
L 95.540991 162.254256 
L 97.349506 162.957987 
L 98.555182 162.821943 
L 100.363696 162.719684 
L 100.966534 162.743212 
L 102.17221 162.657524 
L 103.377886 162.674091 
L 108.803429 162.245521 
L 110.611943 162.229912 
L 111.817619 162.218768 
L 113.023295 162.117237 
L 116.640324 162.377914 
L 118.448838 162.364258 
L 119.051676 162.470268 
L 120.257352 163.004029 
L 121.463028 163.868882 
L 123.87438 165.098252 
L 125.080057 165.566146 
L 125.682895 166.073934 
L 126.888571 166.728886 
L 128.697085 167.550298 
L 129.902761 168.457743 
L 130.505599 168.616404 
L 134.122628 170.213978 
L 137.136818 171.214563 
L 137.739656 171.36494 
L 138.342494 171.824455 
L 139.54817 172.29389 
L 140.151008 172.468989 
L 140.753846 172.493235 
L 141.959522 172.340152 
L 142.56236 172.342077 
L 143.165199 172.180016 
L 146.179389 171.946562 
L 148.590741 171.521432 
L 149.193579 171.341115 
L 151.002093 171.225343 
L 152.20777 170.931777 
L 152.810608 170.732872 
L 154.016284 170.620076 
L 155.22196 170.259463 
L 156.427636 170.02446 
L 157.633312 169.763582 
L 163.058855 169.071252 
L 164.867369 168.927952 
L 165.470207 168.887859 
L 167.278721 169.190748 
L 168.484397 169.22222 
L 169.087235 169.224298 
L 171.498588 169.611298 
L 172.704264 169.446244 
L 173.90994 168.870681 
L 176.321292 167.485667 
L 179.335482 165.875154 
L 180.541159 165.209827 
L 183.555349 163.87022 
L 184.761025 163.971078 
L 187.775215 163.758222 
L 188.378053 163.779629 
L 190.186568 163.428482 
L 190.789406 163.528402 
L 193.803596 163.165963 
L 194.406434 163.311801 
L 196.817786 164.754949 
L 197.420624 165.023128 
L 198.023462 165.485334 
L 198.626301 166.093102 
L 201.037653 167.723501 
L 202.846167 169.203195 
L 204.654681 170.476844 
L 205.257519 170.221346 
L 207.066033 168.967287 
L 209.477386 167.28955 
L 210.080224 166.935928 
L 211.2859 166.056485 
L 213.094414 165.072622 
L 214.30009 164.181508 
L 215.505766 163.737104 
L 216.108604 164.164577 
L 217.917119 164.310387 
L 219.725633 165.137873 
L 225.151175 166.15507 
L 225.754014 166.397686 
L 226.95969 166.42514 
L 227.562528 166.381312 
L 228.768204 166.62436 
L 233.590908 167.155664 
L 234.796584 167.261135 
L 236.605099 167.367629 
L 237.810775 167.50341 
L 238.413613 167.547817 
L 239.016451 167.736311 
L 242.633479 168.052432 
L 243.839155 168.322996 
L 245.044832 168.437605 
L 246.250508 168.273482 
L 247.456184 168.455317 
L 249.264698 167.732988 
L 249.867536 167.571226 
L 251.67605 166.617334 
L 252.881726 166.406011 
L 255.293079 165.244612 
L 258.307269 163.718761 
L 258.910107 163.84264 
L 259.512945 164.345418 
L 263.129974 166.082401 
L 265.541326 166.882577 
L 267.34984 168.193367 
L 269.158354 168.934985 
L 269.761192 168.765341 
L 270.966868 168.646156 
L 272.172545 168.518831 
L 272.775383 168.517274 
L 274.583897 167.919934 
L 275.186735 167.704748 
L 275.789573 167.632977 
L 276.995249 167.150898 
L 278.200925 166.947192 
L 278.803763 166.747155 
L 279.406601 166.797015 
L 280.009439 166.700233 
L 282.420792 164.566424 
L 284.229306 163.294901 
L 285.434982 162.431936 
L 286.03782 162.181167 
L 287.846334 160.856424 
L 289.05201 160.059025 
L 289.654848 159.908448 
L 290.257686 159.331495 
L 290.860525 159.154 
L 292.066201 159.755013 
L 293.271877 160.741799 
L 294.477553 161.360259 
L 296.286067 162.190821 
L 297.491743 163.574565 
L 298.697419 164.165382 
L 301.108772 165.207593 
L 301.71161 165.359987 
L 302.314448 165.332201 
L 307.137152 163.376641 
L 308.342828 162.98096 
L 308.945667 162.690495 
L 310.151343 162.348528 
L 311.357019 161.801487 
L 312.562695 161.221263 
L 313.165533 161.082861 
L 313.768371 161.263696 
L 316.179723 160.693304 
L 317.988237 160.186465 
L 319.193914 160.064806 
L 319.796752 159.87902 
L 321.002428 159.747398 
L 321.605266 159.844244 
L 322.810942 159.575978 
L 323.41378 159.77674 
L 325.222294 159.912361 
L 325.825132 159.924723 
L 326.42797 160.063206 
L 327.633647 160.536263 
L 332.456351 162.092747 
L 333.662027 162.607519 
L 336.073379 163.135501 
L 338.484732 163.520926 
L 340.896084 164.164998 
L 342.10176 164.576416 
L 342.704598 164.727153 
L 343.910274 164.847782 
L 344.513112 165.087588 
L 345.718789 164.26197 
L 346.321627 164.092769 
L 347.527303 164.024706 
L 348.130141 163.951725 
L 351.747169 162.193845 
L 353.555683 161.719222 
L 355.364198 161.161305 
L 356.569874 162.006726 
L 360.78974 165.680329 
L 361.995416 166.342936 
L 363.201092 167.031404 
L 365.612445 168.795848 
L 366.215283 168.704452 
L 368.023797 167.005855 
L 369.832311 165.312363 
L 371.037987 164.651714 
L 372.243663 163.587614 
L 374.655016 161.256034 
L 375.860692 160.625182 
L 376.46353 159.999509 
L 377.066368 159.863534 
L 378.272044 159.941386 
L 382.49191 159.91108 
L 383.697587 160.097546 
L 386.711777 160.286826 
L 387.314615 160.514143 
L 388.520291 160.525286 
L 390.931643 160.006929 
L 392.13732 159.515216 
L 393.342996 158.921231 
L 393.945834 158.89462 
L 394.548672 159.087955 
L 396.960024 158.708207 
L 398.1657 158.510456 
L 399.974214 159.580823 
L 401.179891 160.233119 
L 402.988405 161.10441 
L 403.591243 161.590919 
L 404.796919 162.160468 
L 406.002595 162.691792 
L 407.208271 163.397929 
L 408.413947 163.968203 
L 409.016785 164.285865 
L 409.619623 164.473925 
L 412.633814 164.602429 
L 416.85368 164.122179 
L 419.265032 163.493699 
L 420.470709 162.783185 
L 421.073547 162.372579 
L 422.279223 161.984787 
L 422.882061 161.883913 
L 426.499089 160.288716 
L 428.307603 159.196534 
L 429.51328 158.861109 
L 430.116118 158.697765 
L 433.130308 159.705835 
L 434.938822 160.765744 
L 437.953013 161.278364 
L 439.158689 161.501291 
L 440.364365 162.520461 
L 440.967203 162.876893 
L 442.172879 162.414315 
L 443.378555 162.226895 
L 446.392745 161.339185 
L 446.995583 161.450249 
L 447.598422 161.392922 
L 449.406936 160.799002 
L 451.21545 160.583446 
L 454.832478 161.276795 
L 456.038154 161.46224 
L 457.243831 161.742145 
L 458.449507 161.882808 
L 460.258021 162.356719 
L 464.477887 162.411824 
L 466.286402 162.223719 
L 466.88924 162.259953 
L 468.697754 162.638675 
L 469.90343 162.502389 
L 470.506268 162.349464 
L 472.314782 162.181315 
L 473.520458 161.831804 
L 475.931811 161.665444 
L 476.534649 161.696474 
L 477.137487 161.858549 
L 478.946001 162.661203 
L 480.151677 162.732044 
L 481.960191 162.767634 
L 483.165867 162.997992 
L 485.57722 163.091029 
L 489.194248 163.956219 
L 491.6056 164.902349 
L 492.811276 165.021736 
L 494.016953 165.038338 
L 494.619791 165.235105 
L 495.222629 165.162773 
L 496.428305 164.843776 
L 497.633981 165.027687 
L 500.045333 164.536594 
L 500.648171 164.339081 
L 501.853847 164.248165 
L 503.059524 163.815299 
L 504.2652 163.761478 
L 505.470876 163.652197 
L 507.27939 163.231201 
L 511.499256 162.766218 
L 513.307771 162.37069 
L 515.116285 161.955414 
L 516.924799 161.629906 
L 518.130475 161.210042 
L 518.733313 161.222935 
L 519.938989 160.55294 
L 522.350342 159.038583 
L 523.556018 158.576671 
L 524.761694 158.594752 
L 525.96737 158.50894 
L 526.570208 158.323934 
L 527.173046 158.509551 
L 528.378722 159.447543 
L 530.790075 161.165744 
L 533.201427 162.877127 
L 535.009941 164.051878 
L 537.421293 166.149682 
L 538.024131 166.069504 
L 541.038322 164.566111 
L 543.449674 163.696079 
L 545.258188 162.910838 
L 547.66954 161.258913 
L 548.272378 160.912921 
L 553.095083 159.995047 
L 554.300759 159.955429 
L 555.506435 159.651619 
L 559.726302 157.986621 
L 561.534816 157.662607 
L 562.740492 157.840662 
L 563.34333 158.019675 
L 563.946168 157.986292 
L 567.563197 156.988715 
L 569.974549 157.176552 
L 571.783063 158.26651 
L 573.591577 159.281591 
L 574.797253 160.047591 
L 575.400091 160.541459 
L 579.01712 162.435646 
L 580.222796 163.179658 
L 580.825634 163.49199 
L 586.854015 164.341776 
L 588.059691 164.461547 
L 589.868205 164.418812 
L 591.073881 164.352192 
L 592.279557 163.830849 
L 593.485233 163.198115 
L 594.690909 162.500435 
L 596.499424 161.682665 
L 597.7051 161.214697 
L 600.116452 159.692813 
L 601.924966 158.283561 
L 603.130642 158.579089 
L 604.336319 159.016346 
L 605.541995 159.677148 
L 609.761861 162.544678 
L 612.173213 163.628181 
L 612.776051 163.8584 
L 615.790242 163.383586 
L 617.598756 163.368901 
L 618.804432 163.232408 
L 621.215784 162.765861 
L 622.42146 162.564118 
L 623.024299 162.348596 
L 623.627137 162.270979 
L 624.832813 162.702039 
L 625.435651 162.891374 
L 626.641327 162.869324 
L 630.258355 162.637811 
L 632.06687 162.82064 
L 633.875384 163.032569 
L 635.683898 162.790788 
L 638.698088 162.578698 
L 642.917955 162.068315 
L 644.123631 161.595569 
L 644.726469 161.450618 
L 645.932145 161.612128 
L 647.137821 161.751374 
L 652.563364 161.79097 
L 654.974716 161.517461 
L 655.577554 161.598776 
L 657.386068 161.166999 
L 657.988906 160.932891 
L 660.400259 160.698156 
L 662.208773 159.72851 
L 663.414449 159.285982 
L 666.428639 158.493322 
L 668.237153 158.750571 
L 669.44283 158.684485 
L 670.648506 158.910041 
L 671.854182 159.305547 
L 673.059858 159.677371 
L 676.676886 160.594253 
L 677.279724 160.828247 
L 679.088239 160.908397 
L 679.088239 160.908397 
" clip-path="url(#pcd292182a9)" style="fill: none; stroke: #008000; stroke-width: 1.5; stroke-linecap: square"/>
   </g>
   <g id="patch_3">
    <path d="M 46.74125 390.04 
L 46.74125 25.44 
" style="fill: none; stroke: #000000; stroke-width: 0.8; stroke-linejoin: miter; stroke-linecap: square"/>
   </g>
   <g id="patch_4">
    <path d="M 709.2 390.04 
L 709.2 25.44 
" style="fill: none; stroke: #000000; stroke-width: 0.8; stroke-linejoin: miter; stroke-linecap: square"/>
   </g>
   <g id="patch_5">
    <path d="M 46.74125 390.04 
L 709.2 390.04 
" style="fill: none; stroke: #000000; stroke-width: 0.8; stroke-linejoin: miter; stroke-linecap: square"/>
   </g>
   <g id="patch_6">
    <path d="M 46.74125 25.44 
L 709.2 25.44 
" style="fill: none; stroke: #000000; stroke-width: 0.8; stroke-linejoin: miter; stroke-linecap: square"/>
   </g>
   <g id="text_16">
    <!-- charts/episodic_return for per_atari (aggregated via interpolation over runs) -->
    <g transform="translate(149.630313 19.44) scale(0.12 -0.12)">
     <defs>
      <path id="DejaVuSans-20" transform="scale(0.015625)"/>
      <path id="DejaVuSans-66" d="M 2375 4863 
L 2375 4384 
L 1825 4384 
Q 1516 4384 1395 4259 
Q 1275 4134 1275 3809 
L 1275 3500 
L 2222 3500 
L 2222 3053 
L 1275 3053 
L 1275 0 
L 697 0 
L 697 3053 
L 147 3053 
L 147 3500 
L 697 3500 
L 697 3744 
Q 697 4328 969 4595 
Q 1241 4863 1831 4863 
L 2375 4863 
z
" transform="scale(0.015625)"/>
      <path id="DejaVuSans-28" d="M 1984 4856 
Q 1566 4138 1362 3434 
Q 1159 2731 1159 2009 
Q 1159 1288 1364 580 
Q 1569 -128 1984 -844 
L 1484 -844 
Q 1016 -109 783 600 
Q 550 1309 550 2009 
Q 550 2706 781 3412 
Q 1013 4119 1484 4856 
L 1984 4856 
z
" transform="scale(0.015625)"/>
      <path id="DejaVuSans-67" d="M 2906 1791 
Q 2906 2416 2648 2759 
Q 2391 3103 1925 3103 
Q 1463 3103 1205 2759 
Q 947 2416 947 1791 
Q 947 1169 1205 825 
Q 1463 481 1925 481 
Q 2391 481 2648 825 
Q 2906 1169 2906 1791 
z
M 3481 434 
Q 3481 -459 3084 -895 
Q 2688 -1331 1869 -1331 
Q 1566 -1331 1297 -1286 
Q 1028 -1241 775 -1147 
L 775 -588 
Q 1028 -725 1275 -790 
Q 1522 -856 1778 -856 
Q 2344 -856 2625 -561 
Q 2906 -266 2906 331 
L 2906 616 
Q 2728 306 2450 153 
Q 2172 0 1784 0 
Q 1141 0 747 490 
Q 353 981 353 1791 
Q 353 2603 747 3093 
Q 1141 3584 1784 3584 
Q 2172 3584 2450 3431 
Q 2728 3278 2906 2969 
L 2906 3500 
L 3481 3500 
L 3481 434 
z
" transform="scale(0.015625)"/>
      <path id="DejaVuSans-76" d="M 191 3500 
L 800 3500 
L 1894 563 
L 2988 3500 
L 3597 3500 
L 2284 0 
L 1503 0 
L 191 3500 
z
" transform="scale(0.015625)"/>
      <path id="DejaVuSans-6c" d="M 603 4863 
L 1178 4863 
L 1178 0 
L 603 0 
L 603 4863 
z
" transform="scale(0.015625)"/>
      <path id="DejaVuSans-29" d="M 513 4856 
L 1013 4856 
Q 1481 4119 1714 3412 
Q 1947 2706 1947 2009 
Q 1947 1309 1714 600 
Q 1481 -109 1013 -844 
L 513 -844 
Q 928 -128 1133 580 
Q 1338 1288 1338 2009 
Q 1338 2731 1133 3434 
Q 928 4138 513 4856 
z
" transform="scale(0.015625)"/>
     </defs>
     <use xlink:href="#DejaVuSans-63"/>
     <use xlink:href="#DejaVuSans-68" transform="translate(54.980469 0)"/>
     <use xlink:href="#DejaVuSans-61" transform="translate(118.359375 0)"/>
     <use xlink:href="#DejaVuSans-72" transform="translate(179.638672 0)"/>
     <use xlink:href="#DejaVuSans-74" transform="translate(220.751953 0)"/>
     <use xlink:href="#DejaVuSans-73" transform="translate(259.960938 0)"/>
     <use xlink:href="#DejaVuSans-2f" transform="translate(312.060547 0)"/>
     <use xlink:href="#DejaVuSans-65" transform="translate(345.751953 0)"/>
     <use xlink:href="#DejaVuSans-70" transform="translate(407.275391 0)"/>
     <use xlink:href="#DejaVuSans-69" transform="translate(470.751953 0)"/>
     <use xlink:href="#DejaVuSans-73" transform="translate(498.535156 0)"/>
     <use xlink:href="#DejaVuSans-6f" transform="translate(550.634766 0)"/>
     <use xlink:href="#DejaVuSans-64" transform="translate(611.816406 0)"/>
     <use xlink:href="#DejaVuSans-69" transform="translate(675.292969 0)"/>
     <use xlink:href="#DejaVuSans-63" transform="translate(703.076172 0)"/>
     <use xlink:href="#DejaVuSans-5f" transform="translate(758.056641 0)"/>
     <use xlink:href="#DejaVuSans-72" transform="translate(808.056641 0)"/>
     <use xlink:href="#DejaVuSans-65" transform="translate(846.919922 0)"/>
     <use xlink:href="#DejaVuSans-74" transform="translate(908.443359 0)"/>
     <use xlink:href="#DejaVuSans-75" transform="translate(947.652344 0)"/>
     <use xlink:href="#DejaVuSans-72" transform="translate(1011.03125 0)"/>
     <use xlink:href="#DejaVuSans-6e" transform="translate(1050.394531 0)"/>
     <use xlink:href="#DejaVuSans-20" transform="translate(1113.773438 0)"/>
     <use xlink:href="#DejaVuSans-66" transform="translate(1145.560547 0)"/>
     <use xlink:href="#DejaVuSans-6f" transform="translate(1180.765625 0)"/>
     <use xlink:href="#DejaVuSans-72" transform="translate(1241.947266 0)"/>
     <use xlink:href="#DejaVuSans-20" transform="translate(1283.060547 0)"/>
     <use xlink:href="#DejaVuSans-70" transform="translate(1314.847656 0)"/>
     <use xlink:href="#DejaVuSans-65" transform="translate(1378.324219 0)"/>
     <use xlink:href="#DejaVuSans-72" transform="translate(1439.847656 0)"/>
     <use xlink:href="#DejaVuSans-5f" transform="translate(1480.960938 0)"/>
     <use xlink:href="#DejaVuSans-61" transform="translate(1530.960938 0)"/>
     <use xlink:href="#DejaVuSans-74" transform="translate(1592.240234 0)"/>
     <use xlink:href="#DejaVuSans-61" transform="translate(1631.449219 0)"/>
     <use xlink:href="#DejaVuSans-72" transform="translate(1692.728516 0)"/>
     <use xlink:href="#DejaVuSans-69" transform="translate(1733.841797 0)"/>
     <use xlink:href="#DejaVuSans-20" transform="translate(1761.625 0)"/>
     <use xlink:href="#DejaVuSans-28" transform="translate(1793.412109 0)"/>
     <use xlink:href="#DejaVuSans-61" transform="translate(1832.425781 0)"/>
     <use xlink:href="#DejaVuSans-67" transform="translate(1893.705078 0)"/>
     <use xlink:href="#DejaVuSans-67" transform="translate(1957.181641 0)"/>
     <use xlink:href="#DejaVuSans-72" transform="translate(2020.658203 0)"/>
     <use xlink:href="#DejaVuSans-65" transform="translate(2059.521484 0)"/>
     <use xlink:href="#DejaVuSans-67" transform="translate(2121.044922 0)"/>
     <use xlink:href="#DejaVuSans-61" transform="translate(2184.521484 0)"/>
     <use xlink:href="#DejaVuSans-74" transform="translate(2245.800781 0)"/>
     <use xlink:href="#DejaVuSans-65" transform="translate(2285.009766 0)"/>
     <use xlink:href="#DejaVuSans-64" transform="translate(2346.533203 0)"/>
     <use xlink:href="#DejaVuSans-20" transform="translate(2410.009766 0)"/>
     <use xlink:href="#DejaVuSans-76" transform="translate(2441.796875 0)"/>
     <use xlink:href="#DejaVuSans-69" transform="translate(2500.976562 0)"/>
     <use xlink:href="#DejaVuSans-61" transform="translate(2528.759766 0)"/>
     <use xlink:href="#DejaVuSans-20" transform="translate(2590.039062 0)"/>
     <use xlink:href="#DejaVuSans-69" transform="translate(2621.826172 0)"/>
     <use xlink:href="#DejaVuSans-6e" transform="translate(2649.609375 0)"/>
     <use xlink:href="#DejaVuSans-74" transform="translate(2712.988281 0)"/>
     <use xlink:href="#DejaVuSans-65" transform="translate(2752.197266 0)"/>
     <use xlink:href="#DejaVuSans-72" transform="translate(2813.720703 0)"/>
     <use xlink:href="#DejaVuSans-70" transform="translate(2854.833984 0)"/>
     <use xlink:href="#DejaVuSans-6f" transform="translate(2918.310547 0)"/>
     <use xlink:href="#DejaVuSans-6c" transform="translate(2979.492188 0)"/>
     <use xlink:href="#DejaVuSans-61" transform="translate(3007.275391 0)"/>
     <use xlink:href="#DejaVuSans-74" transform="translate(3068.554688 0)"/>
     <use xlink:href="#DejaVuSans-69" transform="translate(3107.763672 0)"/>
     <use xlink:href="#DejaVuSans-6f" transform="translate(3135.546875 0)"/>
     <use xlink:href="#DejaVuSans-6e" transform="translate(3196.728516 0)"/>
     <use xlink:href="#DejaVuSans-20" transform="translate(3260.107422 0)"/>
     <use xlink:href="#DejaVuSans-6f" transform="translate(3291.894531 0)"/>
     <use xlink:href="#DejaVuSans-76" transform="translate(3353.076172 0)"/>
     <use xlink:href="#DejaVuSans-65" transform="translate(3412.255859 0)"/>
     <use xlink:href="#DejaVuSans-72" transform="translate(3473.779297 0)"/>
     <use xlink:href="#DejaVuSans-20" transform="translate(3514.892578 0)"/>
     <use xlink:href="#DejaVuSans-72" transform="translate(3546.679688 0)"/>
     <use xlink:href="#DejaVuSans-75" transform="translate(3587.792969 0)"/>
     <use xlink:href="#DejaVuSans-6e" transform="translate(3651.171875 0)"/>
     <use xlink:href="#DejaVuSans-73" transform="translate(3714.550781 0)"/>
     <use xlink:href="#DejaVuSans-29" transform="translate(3766.650391 0)"/>
    </g>
   </g>
   <g id="legend_1">
    <g id="patch_7">
     <path d="M 626.78125 62.79625 
L 702.2 62.79625 
Q 704.2 62.79625 704.2 60.79625 
L 704.2 32.44 
Q 704.2 30.44 702.2 30.44 
L 626.78125 30.44 
Q 624.78125 30.44 624.78125 32.44 
L 624.78125 60.79625 
Q 624.78125 62.79625 626.78125 62.79625 
z
" style="fill: #ffffff; opacity: 0.8; stroke: #cccccc; stroke-linejoin: miter"/>
    </g>
    <g id="line2d_15">
     <path d="M 628.78125 38.538437 
L 638.78125 38.538437 
L 648.78125 38.538437 
" style="fill: none; stroke: #008000; stroke-width: 1.5; stroke-linecap: square"/>
    </g>
    <g id="text_17">
     <!-- Mean -->
     <g transform="translate(656.78125 42.038437) scale(0.1 -0.1)">
      <defs>
       <path id="DejaVuSans-4d" d="M 628 4666 
L 1569 4666 
L 2759 1491 
L 3956 4666 
L 4897 4666 
L 4897 0 
L 4281 0 
L 4281 4097 
L 3078 897 
L 2444 897 
L 1241 4097 
L 1241 0 
L 628 0 
L 628 4666 
z
" transform="scale(0.015625)"/>
      </defs>
      <use xlink:href="#DejaVuSans-4d"/>
      <use xlink:href="#DejaVuSans-65" transform="translate(86.279297 0)"/>
      <use xlink:href="#DejaVuSans-61" transform="translate(147.802734 0)"/>
      <use xlink:href="#DejaVuSans-6e" transform="translate(209.082031 0)"/>
     </g>
    </g>
    <g id="patch_8">
     <path d="M 628.78125 56.716563 
L 648.78125 56.716563 
L 648.78125 49.716563 
L 628.78125 49.716563 
z
" style="fill: #008000; fill-opacity: 0.3; stroke: #008000; stroke-opacity: 0.3; stroke-linejoin: miter"/>
    </g>
    <g id="text_18">
     <!-- MinMax -->
     <g transform="translate(656.78125 56.716563) scale(0.1 -0.1)">
      <defs>
       <path id="DejaVuSans-2013" d="M 313 1978 
L 2888 1978 
L 2888 1528 
L 313 1528 
L 313 1978 
z
" transform="scale(0.015625)"/>
       <path id="DejaVuSans-78" d="M 3513 3500 
L 2247 1797 
L 3578 0 
L 2900 0 
L 1881 1375 
L 863 0 
L 184 0 
L 1544 1831 
L 300 3500 
L 978 3500 
L 1906 2253 
L 2834 3500 
L 3513 3500 
z
" transform="scale(0.015625)"/>
      </defs>
      <use xlink:href="#DejaVuSans-4d"/>
      <use xlink:href="#DejaVuSans-69" transform="translate(86.279297 0)"/>
      <use xlink:href="#DejaVuSans-6e" transform="translate(114.0625 0)"/>
      <use xlink:href="#DejaVuSans-2013" transform="translate(177.441406 0)"/>
      <use xlink:href="#DejaVuSans-4d" transform="translate(227.441406 0)"/>
      <use xlink:href="#DejaVuSans-61" transform="translate(313.720703 0)"/>
      <use xlink:href="#DejaVuSans-78" transform="translate(375 0)"/>
     </g>
    </g>
   </g>
  </g>
 </g>
 <defs>
  <clipPath id="pcd292182a9">
   <rect x="46.74125" y="25.44" width="662.45875" height="364.6"/>
  </clipPath>
 </defs>
</svg>
