<?xml version="1.0" encoding="utf-8" standalone="no"?>
<!DOCTYPE svg PUBLIC "-//W3C//DTD SVG 1.1//EN"
  "http://www.w3.org/Graphics/SVG/1.1/DTD/svg11.dtd">
<svg xmlns:xlink="http://www.w3.org/1999/xlink" width="720pt" height="432pt" viewBox="0 0 720 432" xmlns="http://www.w3.org/2000/svg" version="1.1">
 <metadata>
  <rdf:RDF xmlns:dc="http://purl.org/dc/elements/1.1/" xmlns:cc="http://creativecommons.org/ns#" xmlns:rdf="http://www.w3.org/1999/02/22-rdf-syntax-ns#">
   <cc:Work>
    <dc:type rdf:resource="http://purl.org/dc/dcmitype/StillImage"/>
    <dc:date>2025-02-05T20:31:26.709941</dc:date>
    <dc:format>image/svg+xml</dc:format>
    <dc:creator>
     <cc:Agent>
      <dc:title>Matplotlib v3.10.0, https://matplotlib.org/</dc:title>
     </cc:Agent>
    </dc:creator>
   </cc:Work>
  </rdf:RDF>
 </metadata>
 <defs>
  <style type="text/css">*{stroke-linejoin: round; stroke-linecap: butt}</style>
 </defs>
 <g id="figure_1">
  <g id="patch_1">
   <path d="M 0 432 
L 720 432 
L 720 0 
L 0 0 
z
" style="fill: #ffffff"/>
  </g>
  <g id="axes_1">
   <g id="patch_2">
    <path d="M 51.05 390.04 
L 709.2 390.04 
L 709.2 25.44 
L 51.05 25.44 
z
" style="fill: #ffffff"/>
   </g>
   <g id="FillBetweenPolyCollection_1">
    <defs>
     <path id="m6613624267" d="M 80.965909 -92.158551 
L 80.965909 -58.532727 
L 81.564826 -77.53591 
L 82.163743 -96.539092 
L 82.76266 -115.542274 
L 83.361577 -129.953342 
L 83.960495 -144.205728 
L 84.559412 -158.458115 
L 85.158329 -172.710502 
L 85.757246 -182.582347 
L 86.356163 -192.083939 
L 86.95508 -201.58553 
L 87.553997 -206.86526 
L 88.152914 -215.785023 
L 88.751831 -225.286614 
L 89.350748 -230.725025 
L 89.949666 -235.475821 
L 90.548583 -244.18401 
L 91.1475 -249.781101 
L 91.746417 -250.68029 
L 92.345334 -243.082864 
L 92.944251 -244.818731 
L 93.543168 -245.876601 
L 94.142085 -249.516633 
L 94.741002 -254.267429 
L 95.339919 -259.018225 
L 95.938837 -260.287668 
L 96.537754 -263.716127 
L 97.136671 -268.466922 
L 97.735588 -269.895046 
L 98.334505 -273.164824 
L 98.933422 -277.91562 
L 99.532339 -279.502424 
L 100.131256 -282.613522 
L 100.730173 -284.306113 
L 101.32909 -284.306113 
L 101.928008 -287.258531 
L 102.526925 -289.109802 
L 103.125842 -289.109802 
L 103.724759 -289.109802 
L 104.323676 -291.850646 
L 104.922593 -293.913491 
L 105.52151 -293.913491 
L 106.120427 -296.495655 
L 106.719344 -298.717181 
L 107.318261 -298.717181 
L 107.917179 -298.717181 
L 108.516096 -298.717181 
L 109.115013 -301.034876 
L 109.71393 -303.52087 
L 110.312847 -303.52087 
L 110.911764 -303.52087 
L 111.510681 -303.52087 
L 112.109598 -303.52087 
L 112.708515 -303.52087 
L 113.307432 -303.52087 
L 113.90635 -305.415418 
L 114.505267 -308.324559 
L 115.104184 -308.324559 
L 115.703101 -308.324559 
L 116.302018 -308.324559 
L 116.900935 -308.324559 
L 117.499852 -308.324559 
L 118.098769 -308.324559 
L 118.697686 -308.324559 
L 119.296603 -308.324559 
L 119.895521 -308.324559 
L 120.494438 -308.324559 
L 121.093355 -308.324559 
L 121.692272 -309.531492 
L 122.291189 -313.128248 
L 122.890106 -313.128248 
L 123.489023 -313.128248 
L 124.08794 -313.128248 
L 124.686857 -313.128248 
L 125.285774 -313.128248 
L 125.884692 -313.128248 
L 126.483609 -313.128248 
L 127.082526 -313.128248 
L 127.681443 -313.128248 
L 128.28036 -312.503143 
L 128.879277 -308.324559 
L 129.478194 -308.324559 
L 130.077111 -308.324559 
L 130.676028 -308.324559 
L 131.274945 -308.324559 
L 131.873862 -308.324559 
L 132.47278 -308.324559 
L 133.071697 -308.122602 
L 133.670614 -303.52087 
L 134.269531 -303.52087 
L 134.868448 -303.52087 
L 135.467365 -303.52087 
L 136.066282 -303.52087 
L 136.665199 -303.52087 
L 137.264116 -303.52087 
L 137.863033 -303.52087 
L 138.461951 -298.991265 
L 139.060868 -298.717181 
L 139.659785 -298.717181 
L 140.258702 -298.717181 
L 140.857619 -298.717181 
L 141.456536 -298.717181 
L 142.055453 -298.717181 
L 142.65437 -298.717181 
L 143.253287 -298.717181 
L 143.852204 -298.717181 
L 144.451122 -294.716511 
L 145.050039 -293.913491 
L 145.648956 -293.913491 
L 146.247873 -293.913491 
L 146.84679 -293.913491 
L 147.445707 -293.913491 
L 148.044624 -293.913491 
L 148.643541 -293.913491 
L 149.242458 -293.913491 
L 149.841375 -293.913491 
L 150.440293 -293.913491 
L 151.03921 -290.49465 
L 151.638127 -289.109802 
L 152.237044 -289.109802 
L 152.835961 -289.109802 
L 153.434878 -289.109802 
L 154.033795 -289.109802 
L 154.632712 -289.109802 
L 155.231629 -289.109802 
L 155.830546 -289.109802 
L 156.429464 -289.109802 
L 157.028381 -289.109802 
L 157.627298 -289.109802 
L 158.226215 -289.109802 
L 158.825132 -289.109802 
L 159.424049 -289.109802 
L 160.022966 -289.109802 
L 160.621883 -286.537256 
L 161.2208 -284.306113 
L 161.819717 -284.306113 
L 162.418635 -284.306113 
L 163.017552 -284.306113 
L 163.616469 -284.306113 
L 164.215386 -284.306113 
L 164.814303 -284.306113 
L 165.41322 -284.306113 
L 166.012137 -284.306113 
L 166.611054 -284.306113 
L 167.209971 -284.306113 
L 167.808888 -284.306113 
L 168.407806 -284.306113 
L 169.006723 -284.306113 
L 169.60564 -284.306113 
L 170.204557 -284.306113 
L 170.803474 -284.306113 
L 171.402391 -284.306113 
L 172.001308 -284.306113 
L 172.600225 -284.306113 
L 173.199142 -282.84433 
L 173.798059 -279.502424 
L 174.396977 -279.502424 
L 174.995894 -279.502424 
L 175.594811 -279.502424 
L 176.193728 -279.502424 
L 176.792645 -279.502424 
L 177.391562 -279.502424 
L 177.990479 -279.502424 
L 178.589396 -279.502424 
L 179.188313 -279.502424 
L 179.78723 -279.502424 
L 180.386148 -279.502424 
L 180.985065 -279.502424 
L 181.583982 -279.502424 
L 182.182899 -279.502424 
L 182.781816 -279.502424 
L 183.380733 -279.502424 
L 183.97965 -279.502424 
L 184.578567 -279.502424 
L 185.177484 -279.502424 
L 185.776401 -279.502424 
L 186.375319 -279.502424 
L 186.974236 -279.502424 
L 187.573153 -279.502424 
L 188.17207 -279.502424 
L 188.770987 -279.415871 
L 189.369904 -274.698735 
L 189.968821 -274.698735 
L 190.567738 -274.698735 
L 191.166655 -274.698735 
L 191.765572 -274.698735 
L 192.364489 -274.698735 
L 192.963407 -274.698735 
L 193.562324 -274.698735 
L 194.161241 -274.698735 
L 194.760158 -274.698735 
L 195.359075 -274.698735 
L 195.957992 -274.698735 
L 196.556909 -274.698735 
L 197.155826 -274.698735 
L 197.754743 -274.698735 
L 198.35366 -274.698735 
L 198.952578 -274.698735 
L 199.551495 -274.698735 
L 200.150412 -274.698735 
L 200.749329 -274.698735 
L 201.348246 -274.698735 
L 201.947163 -274.698735 
L 202.54608 -274.698735 
L 203.144997 -274.698735 
L 203.743914 -274.698735 
L 204.342831 -274.698735 
L 204.941749 -274.698735 
L 205.540666 -274.698735 
L 206.139583 -274.698735 
L 206.7385 -274.698735 
L 207.337417 -274.698735 
L 207.936334 -274.698735 
L 208.535251 -274.698735 
L 209.134168 -274.698735 
L 209.733085 -274.698735 
L 210.332002 -274.698735 
L 210.93092 -274.698735 
L 211.529837 -271.818445 
L 212.128754 -269.895046 
L 212.727671 -269.895046 
L 213.326588 -269.895046 
L 213.925505 -269.895046 
L 214.524422 -269.895046 
L 215.123339 -269.895046 
L 215.722256 -269.895046 
L 216.321173 -269.895046 
L 216.920091 -269.895046 
L 217.519008 -269.895046 
L 218.117925 -269.895046 
L 218.716842 -269.895046 
L 219.315759 -269.895046 
L 219.914676 -269.895046 
L 220.513593 -269.895046 
L 221.11251 -269.895046 
L 221.711427 -269.895046 
L 222.310344 -269.895046 
L 222.909262 -269.895046 
L 223.508179 -269.895046 
L 224.107096 -269.895046 
L 224.706013 -269.895046 
L 225.30493 -269.895046 
L 225.903847 -269.895046 
L 226.502764 -269.895046 
L 227.101681 -269.895046 
L 227.700598 -269.895046 
L 228.299515 -269.895046 
L 228.898433 -269.895046 
L 229.49735 -269.895046 
L 230.096267 -269.895046 
L 230.695184 -269.895046 
L 231.294101 -269.895046 
L 231.893018 -269.895046 
L 232.491935 -269.895046 
L 233.090852 -269.895046 
L 233.689769 -269.895046 
L 234.288686 -269.895046 
L 234.887604 -269.895046 
L 235.486521 -269.895046 
L 236.085438 -269.895046 
L 236.684355 -269.895046 
L 237.283272 -269.895046 
L 237.882189 -269.895046 
L 238.481106 -269.895046 
L 239.080023 -269.895046 
L 239.67894 -269.895046 
L 240.277857 -269.895046 
L 240.876775 -269.606536 
L 241.475692 -265.091357 
L 242.074609 -265.091357 
L 242.673526 -265.091357 
L 243.272443 -265.091357 
L 243.87136 -265.091357 
L 244.470277 -265.091357 
L 245.069194 -265.091357 
L 245.668111 -265.091357 
L 246.267028 -265.091357 
L 246.865945 -265.091357 
L 247.464863 -265.091357 
L 248.06378 -265.091357 
L 248.662697 -265.091357 
L 249.261614 -265.091357 
L 249.860531 -265.091357 
L 250.459448 -265.091357 
L 251.058365 -265.091357 
L 251.657282 -265.091357 
L 252.256199 -265.091357 
L 252.855116 -265.091357 
L 253.454034 -265.091357 
L 254.052951 -265.091357 
L 254.651868 -265.091357 
L 255.250785 -265.091357 
L 255.849702 -265.091357 
L 256.448619 -265.091357 
L 257.047536 -265.091357 
L 257.646453 -265.091357 
L 258.24537 -265.091357 
L 258.844287 -265.091357 
L 259.443205 -265.091357 
L 260.042122 -265.091357 
L 260.641039 -265.091357 
L 261.239956 -265.091357 
L 261.838873 -265.091357 
L 262.43779 -265.091357 
L 263.036707 -265.091357 
L 263.635624 -265.091357 
L 264.234541 -265.091357 
L 264.833458 -265.091357 
L 265.432376 -265.091357 
L 266.031293 -265.091357 
L 266.63021 -265.091357 
L 267.229127 -265.091357 
L 267.828044 -265.091357 
L 268.426961 -265.091357 
L 269.025878 -265.091357 
L 269.624795 -265.091357 
L 270.223712 -265.091357 
L 270.822629 -265.091357 
L 271.421547 -265.091357 
L 272.020464 -265.091357 
L 272.619381 -265.091357 
L 273.218298 -265.091357 
L 273.817215 -265.091357 
L 274.416132 -265.091357 
L 275.015049 -265.091357 
L 275.613966 -265.091357 
L 276.212883 -265.091357 
L 276.8118 -265.091357 
L 277.410718 -265.091357 
L 278.009635 -265.091357 
L 278.608552 -265.091357 
L 279.207469 -265.091357 
L 279.806386 -265.091357 
L 280.405303 -265.091357 
L 281.00422 -265.091357 
L 281.603137 -265.091357 
L 282.202054 -265.091357 
L 282.800971 -265.091357 
L 283.399889 -265.091357 
L 283.998806 -265.091357 
L 284.597723 -265.091357 
L 285.19664 -265.091357 
L 285.795557 -265.091357 
L 286.394474 -265.091357 
L 286.993391 -265.091357 
L 287.592308 -265.091357 
L 288.191225 -265.091357 
L 288.790142 -265.091357 
L 289.38906 -265.091357 
L 289.987977 -265.091357 
L 290.586894 -265.091357 
L 291.185811 -265.091357 
L 291.784728 -265.091357 
L 292.383645 -265.091357 
L 292.982562 -265.091357 
L 293.581479 -265.091357 
L 294.180396 -265.091357 
L 294.779313 -265.091357 
L 295.378231 -265.091357 
L 295.977148 -265.091357 
L 296.576065 -265.091357 
L 297.174982 -265.091357 
L 297.773899 -265.091357 
L 298.372816 -265.091357 
L 298.971733 -265.091357 
L 299.57065 -265.091357 
L 300.169567 -265.091357 
L 300.768484 -265.091357 
L 301.367401 -265.091357 
L 301.966319 -265.091357 
L 302.565236 -265.091357 
L 303.164153 -265.091357 
L 303.76307 -265.091357 
L 304.361987 -265.091357 
L 304.960904 -265.091357 
L 305.559821 -260.907964 
L 306.158738 -260.287668 
L 306.757655 -260.287668 
L 307.356572 -260.287668 
L 307.95549 -260.287668 
L 308.554407 -260.287668 
L 309.153324 -260.287668 
L 309.752241 -260.287668 
L 310.351158 -260.287668 
L 310.950075 -260.287668 
L 311.548992 -260.287668 
L 312.147909 -260.287668 
L 312.746826 -260.287668 
L 313.345743 -260.287668 
L 313.944661 -260.287668 
L 314.543578 -260.287668 
L 315.142495 -260.287668 
L 315.741412 -260.287668 
L 316.340329 -260.287668 
L 316.939246 -260.287668 
L 317.538163 -260.287668 
L 318.13708 -260.287668 
L 318.735997 -260.287668 
L 319.334914 -260.287668 
L 319.933832 -260.287668 
L 320.532749 -260.287668 
L 321.131666 -260.287668 
L 321.730583 -260.287668 
L 322.3295 -260.287668 
L 322.928417 -260.287668 
L 323.527334 -260.287668 
L 324.126251 -260.287668 
L 324.725168 -260.287668 
L 325.324085 -260.287668 
L 325.923003 -260.287668 
L 326.52192 -260.287668 
L 327.120837 -260.287668 
L 327.719754 -260.287668 
L 328.318671 -260.287668 
L 328.917588 -260.287668 
L 329.516505 -260.287668 
L 330.115422 -260.287668 
L 330.714339 -260.287668 
L 331.313256 -260.287668 
L 331.912174 -260.287668 
L 332.511091 -260.287668 
L 333.110008 -260.287668 
L 333.708925 -260.287668 
L 334.307842 -260.287668 
L 334.906759 -260.287668 
L 335.505676 -260.287668 
L 336.104593 -260.287668 
L 336.70351 -260.287668 
L 337.302427 -260.287668 
L 337.901345 -260.287668 
L 338.500262 -260.287668 
L 339.099179 -260.287668 
L 339.698096 -260.287668 
L 340.297013 -260.287668 
L 340.89593 -260.287668 
L 341.494847 -260.287668 
L 342.093764 -260.287668 
L 342.692681 -260.287668 
L 343.291598 -260.287668 
L 343.890516 -260.287668 
L 344.489433 -260.287668 
L 345.08835 -260.287668 
L 345.687267 -260.287668 
L 346.286184 -260.287668 
L 346.885101 -260.287668 
L 347.484018 -260.287668 
L 348.082935 -260.287668 
L 348.681852 -260.287668 
L 349.280769 -260.287668 
L 349.879687 -260.287668 
L 350.478604 -260.287668 
L 351.077521 -260.287668 
L 351.676438 -260.287668 
L 352.275355 -260.287668 
L 352.874272 -260.287668 
L 353.473189 -260.287668 
L 354.072106 -260.287668 
L 354.671023 -260.287668 
L 355.26994 -260.287668 
L 355.868857 -260.287668 
L 356.467775 -260.287668 
L 357.066692 -260.287668 
L 357.665609 -260.287668 
L 358.264526 -260.287668 
L 358.863443 -260.287668 
L 359.46236 -260.287668 
L 360.061277 -260.287668 
L 360.660194 -260.287668 
L 361.259111 -260.287668 
L 361.858028 -260.287668 
L 362.456946 -260.287668 
L 363.055863 -260.287668 
L 363.65478 -260.287668 
L 364.253697 -260.287668 
L 364.852614 -260.287668 
L 365.451531 -260.287668 
L 366.050448 -260.287668 
L 366.649365 -260.287668 
L 367.248282 -260.287668 
L 367.847199 -260.287668 
L 368.446117 -260.287668 
L 369.045034 -260.287668 
L 369.643951 -260.287668 
L 370.242868 -260.287668 
L 370.841785 -260.287668 
L 371.440702 -260.287668 
L 372.039619 -260.287668 
L 372.638536 -260.287668 
L 373.237453 -260.287668 
L 373.83637 -260.287668 
L 374.435288 -260.287668 
L 375.034205 -260.287668 
L 375.633122 -260.287668 
L 376.232039 -260.287668 
L 376.830956 -260.287668 
L 377.429873 -260.287668 
L 378.02879 -260.287668 
L 378.627707 -260.287668 
L 379.226624 -260.287668 
L 379.825541 -260.287668 
L 380.424459 -260.287668 
L 381.023376 -260.287668 
L 381.622293 -260.287668 
L 382.22121 -260.287668 
L 382.820127 -260.287668 
L 383.419044 -260.287668 
L 384.017961 -260.287668 
L 384.616878 -260.287668 
L 385.215795 -260.287668 
L 385.814712 -260.287668 
L 386.41363 -260.287668 
L 387.012547 -260.287668 
L 387.611464 -260.287668 
L 388.210381 -260.287668 
L 388.809298 -260.287668 
L 389.408215 -260.287668 
L 390.007132 -260.287668 
L 390.606049 -260.287668 
L 391.204966 -260.287668 
L 391.803883 -260.287668 
L 392.402801 -260.287668 
L 393.001718 -260.287668 
L 393.600635 -260.287668 
L 394.199552 -260.287668 
L 394.798469 -260.287668 
L 395.397386 -260.287668 
L 395.996303 -260.287668 
L 396.59522 -260.287668 
L 397.194137 -260.287668 
L 397.793054 -260.287668 
L 398.391972 -260.287668 
L 398.990889 -260.287668 
L 399.589806 -260.287668 
L 400.188723 -260.287668 
L 400.78764 -260.287668 
L 401.386557 -260.287668 
L 401.985474 -260.287668 
L 402.584391 -260.287668 
L 403.183308 -260.287668 
L 403.782225 -260.287668 
L 404.381143 -260.287668 
L 404.98006 -260.287668 
L 405.578977 -260.287668 
L 406.177894 -260.287668 
L 406.776811 -260.287668 
L 407.375728 -260.287668 
L 407.974645 -260.287668 
L 408.573562 -260.287668 
L 409.172479 -260.287668 
L 409.771396 -260.287668 
L 410.370313 -260.287668 
L 410.969231 -260.287668 
L 411.568148 -260.287668 
L 412.167065 -260.287668 
L 412.765982 -260.287668 
L 413.364899 -260.287668 
L 413.963816 -260.287668 
L 414.562733 -260.287668 
L 415.16165 -260.287668 
L 415.760567 -260.287668 
L 416.359484 -260.287668 
L 416.958402 -260.287668 
L 417.557319 -260.287668 
L 418.156236 -260.287668 
L 418.755153 -260.287668 
L 419.35407 -260.287668 
L 419.952987 -260.287668 
L 420.551904 -260.287668 
L 421.150821 -260.287668 
L 421.749738 -260.287668 
L 422.348655 -260.287668 
L 422.947573 -260.287668 
L 423.54649 -260.287668 
L 424.145407 -260.287668 
L 424.744324 -260.287668 
L 425.343241 -260.287668 
L 425.942158 -260.287668 
L 426.541075 -260.287668 
L 427.139992 -260.287668 
L 427.738909 -260.287668 
L 428.337826 -260.287668 
L 428.936744 -260.287668 
L 429.535661 -260.287668 
L 430.134578 -260.287668 
L 430.733495 -260.287668 
L 431.332412 -260.287668 
L 431.931329 -260.287668 
L 432.530246 -260.287668 
L 433.129163 -260.287668 
L 433.72808 -260.287668 
L 434.326997 -260.287668 
L 434.925915 -260.287668 
L 435.524832 -260.287668 
L 436.123749 -260.287668 
L 436.722666 -260.287668 
L 437.321583 -260.287668 
L 437.9205 -260.287668 
L 438.519417 -260.287668 
L 439.118334 -260.287668 
L 439.717251 -258.345035 
L 440.316168 -255.483979 
L 440.915086 -255.483979 
L 441.514003 -255.483979 
L 442.11292 -255.483979 
L 442.711837 -255.483979 
L 443.310754 -255.483979 
L 443.909671 -255.483979 
L 444.508588 -255.483979 
L 445.107505 -255.483979 
L 445.706422 -255.483979 
L 446.305339 -255.483979 
L 446.904257 -255.483979 
L 447.503174 -255.483979 
L 448.102091 -255.483979 
L 448.701008 -255.483979 
L 449.299925 -255.483979 
L 449.898842 -255.483979 
L 450.497759 -255.483979 
L 451.096676 -255.483979 
L 451.695593 -255.483979 
L 452.29451 -255.483979 
L 452.893428 -255.483979 
L 453.492345 -255.483979 
L 454.091262 -255.483979 
L 454.690179 -255.483979 
L 455.289096 -255.483979 
L 455.888013 -255.483979 
L 456.48693 -255.483979 
L 457.085847 -255.483979 
L 457.684764 -255.483979 
L 458.283681 -255.483979 
L 458.882599 -255.483979 
L 459.481516 -255.483979 
L 460.080433 -255.483979 
L 460.67935 -255.483979 
L 461.278267 -255.483979 
L 461.877184 -255.483979 
L 462.476101 -255.483979 
L 463.075018 -255.483979 
L 463.673935 -255.483979 
L 464.272852 -255.483979 
L 464.871769 -255.483979 
L 465.470687 -255.483979 
L 466.069604 -255.483979 
L 466.668521 -255.483979 
L 467.267438 -255.483979 
L 467.866355 -255.483979 
L 468.465272 -255.483979 
L 469.064189 -255.483979 
L 469.663106 -255.483979 
L 470.262023 -255.483979 
L 470.86094 -255.483979 
L 471.459858 -255.483979 
L 472.058775 -255.483979 
L 472.657692 -255.483979 
L 473.256609 -255.483979 
L 473.855526 -255.483979 
L 474.454443 -255.483979 
L 475.05336 -255.483979 
L 475.652277 -255.483979 
L 476.251194 -255.483979 
L 476.850111 -255.483979 
L 477.449029 -255.483979 
L 478.047946 -255.483979 
L 478.646863 -255.483979 
L 479.24578 -255.483979 
L 479.844697 -255.483979 
L 480.443614 -255.483979 
L 481.042531 -255.483979 
L 481.641448 -255.483979 
L 482.240365 -255.483979 
L 482.839282 -255.483979 
L 483.4382 -255.483979 
L 484.037117 -255.483979 
L 484.636034 -255.483979 
L 485.234951 -255.483979 
L 485.833868 -255.483979 
L 486.432785 -255.483979 
L 487.031702 -255.483979 
L 487.630619 -255.483979 
L 488.229536 -255.483979 
L 488.828453 -255.483979 
L 489.427371 -255.483979 
L 490.026288 -255.483979 
L 490.625205 -255.483979 
L 491.224122 -255.483979 
L 491.823039 -255.483979 
L 492.421956 -255.483979 
L 493.020873 -255.483979 
L 493.61979 -255.483979 
L 494.218707 -255.483979 
L 494.817624 -255.483979 
L 495.416542 -255.483979 
L 496.015459 -255.483979 
L 496.614376 -255.483979 
L 497.213293 -255.483979 
L 497.81221 -255.483979 
L 498.411127 -255.483979 
L 499.010044 -255.483979 
L 499.608961 -255.483979 
L 500.207878 -255.483979 
L 500.806795 -255.483979 
L 501.405713 -255.483979 
L 502.00463 -255.483979 
L 502.603547 -255.483979 
L 503.202464 -255.483979 
L 503.801381 -255.483979 
L 504.400298 -255.483979 
L 504.999215 -255.483979 
L 505.598132 -255.483979 
L 506.197049 -255.483979 
L 506.795966 -255.483979 
L 507.394884 -255.483979 
L 507.993801 -255.483979 
L 508.592718 -255.483979 
L 509.191635 -255.483979 
L 509.790552 -255.483979 
L 510.389469 -255.483979 
L 510.988386 -255.483979 
L 511.587303 -255.483979 
L 512.18622 -255.483979 
L 512.785137 -255.483979 
L 513.384055 -255.483979 
L 513.982972 -255.483979 
L 514.581889 -255.483979 
L 515.180806 -255.483979 
L 515.779723 -255.483979 
L 516.37864 -255.483979 
L 516.977557 -255.483979 
L 517.576474 -255.483979 
L 518.175391 -255.483979 
L 518.774308 -255.483979 
L 519.373225 -255.483979 
L 519.972143 -255.483979 
L 520.57106 -255.483979 
L 521.169977 -255.483979 
L 521.768894 -255.483979 
L 522.367811 -255.483979 
L 522.966728 -255.483979 
L 523.565645 -255.483979 
L 524.164562 -255.483979 
L 524.763479 -255.483979 
L 525.362396 -255.483979 
L 525.961314 -255.483979 
L 526.560231 -255.483979 
L 527.159148 -255.483979 
L 527.758065 -255.483979 
L 528.356982 -255.483979 
L 528.955899 -255.483979 
L 529.554816 -255.483979 
L 530.153733 -255.483979 
L 530.75265 -255.483979 
L 531.351567 -255.483979 
L 531.950485 -255.483979 
L 532.549402 -255.483979 
L 533.148319 -255.483979 
L 533.747236 -255.483979 
L 534.346153 -255.483979 
L 534.94507 -255.483979 
L 535.543987 -255.483979 
L 536.142904 -255.483979 
L 536.741821 -255.483979 
L 537.340738 -255.483979 
L 537.939656 -255.483979 
L 538.538573 -255.483979 
L 539.13749 -255.483979 
L 539.736407 -255.483979 
L 540.335324 -255.483979 
L 540.934241 -255.483979 
L 541.533158 -255.483979 
L 542.132075 -255.483979 
L 542.730992 -255.483979 
L 543.329909 -255.483979 
L 543.928827 -255.483979 
L 544.527744 -255.483979 
L 545.126661 -255.483979 
L 545.725578 -255.483979 
L 546.324495 -255.483979 
L 546.923412 -255.483979 
L 547.522329 -255.483979 
L 548.121246 -255.483979 
L 548.720163 -255.483979 
L 549.31908 -255.483979 
L 549.917998 -255.483979 
L 550.516915 -255.483979 
L 551.115832 -255.483979 
L 551.714749 -255.483979 
L 552.313666 -255.483979 
L 552.912583 -255.483979 
L 553.5115 -255.483979 
L 554.110417 -255.483979 
L 554.709334 -255.483979 
L 555.308251 -255.483979 
L 555.907169 -255.483979 
L 556.506086 -255.483979 
L 557.105003 -255.483979 
L 557.70392 -255.483979 
L 558.302837 -255.483979 
L 558.901754 -255.483979 
L 559.500671 -255.483979 
L 560.099588 -255.483979 
L 560.698505 -255.483979 
L 561.297422 -255.483979 
L 561.89634 -255.483979 
L 562.495257 -255.483979 
L 563.094174 -255.483979 
L 563.693091 -255.483979 
L 564.292008 -255.483979 
L 564.890925 -255.483979 
L 565.489842 -255.483979 
L 566.088759 -255.483979 
L 566.687676 -255.483979 
L 567.286593 -255.483979 
L 567.885511 -255.483979 
L 568.484428 -255.483979 
L 569.083345 -255.483979 
L 569.682262 -255.483979 
L 570.281179 -255.483979 
L 570.880096 -255.483979 
L 571.479013 -255.483979 
L 572.07793 -255.483979 
L 572.676847 -255.483979 
L 573.275764 -255.483979 
L 573.874681 -255.483979 
L 574.473599 -255.483979 
L 575.072516 -255.483979 
L 575.671433 -255.483979 
L 576.27035 -255.483979 
L 576.869267 -255.483979 
L 577.468184 -255.483979 
L 578.067101 -255.483979 
L 578.666018 -255.483979 
L 579.264935 -255.483979 
L 579.863852 -255.483979 
L 580.46277 -255.483979 
L 581.061687 -255.483979 
L 581.660604 -255.483979 
L 582.259521 -255.483979 
L 582.858438 -255.483979 
L 583.457355 -255.483979 
L 584.056272 -255.483979 
L 584.655189 -255.483979 
L 585.254106 -255.483979 
L 585.853023 -255.483979 
L 586.451941 -255.483979 
L 587.050858 -255.483979 
L 587.649775 -255.483979 
L 588.248692 -255.483979 
L 588.847609 -255.483979 
L 589.446526 -252.353647 
L 590.045443 -250.68029 
L 590.64436 -250.68029 
L 591.243277 -250.68029 
L 591.842194 -250.68029 
L 592.441112 -250.68029 
L 593.040029 -250.68029 
L 593.638946 -250.68029 
L 594.237863 -250.68029 
L 594.83678 -250.68029 
L 595.435697 -250.68029 
L 596.034614 -250.68029 
L 596.633531 -250.68029 
L 597.232448 -250.68029 
L 597.831365 -250.68029 
L 598.430283 -250.68029 
L 599.0292 -250.68029 
L 599.628117 -250.68029 
L 600.227034 -250.68029 
L 600.825951 -250.68029 
L 601.424868 -250.68029 
L 602.023785 -250.68029 
L 602.622702 -250.68029 
L 603.221619 -250.68029 
L 603.820536 -250.68029 
L 604.419454 -250.68029 
L 605.018371 -250.68029 
L 605.617288 -250.68029 
L 606.216205 -250.68029 
L 606.815122 -250.68029 
L 607.414039 -250.68029 
L 608.012956 -250.68029 
L 608.611873 -250.68029 
L 609.21079 -250.68029 
L 609.809707 -250.68029 
L 610.408625 -250.68029 
L 611.007542 -250.68029 
L 611.606459 -250.68029 
L 612.205376 -250.68029 
L 612.804293 -250.68029 
L 613.40321 -250.68029 
L 614.002127 -250.68029 
L 614.601044 -250.68029 
L 615.199961 -250.68029 
L 615.798878 -250.68029 
L 616.397796 -250.68029 
L 616.996713 -250.68029 
L 617.59563 -250.68029 
L 618.194547 -250.68029 
L 618.793464 -250.68029 
L 619.392381 -250.68029 
L 619.991298 -250.68029 
L 620.590215 -250.300419 
L 621.189132 -245.876601 
L 621.788049 -245.876601 
L 622.386967 -245.876601 
L 622.985884 -245.876601 
L 623.584801 -245.876601 
L 624.183718 -245.876601 
L 624.782635 -245.876601 
L 625.381552 -245.876601 
L 625.980469 -245.876601 
L 626.579386 -245.876601 
L 627.178303 -245.876601 
L 627.77722 -245.876601 
L 628.376138 -245.876601 
L 628.975055 -245.876601 
L 629.573972 -245.876601 
L 630.172889 -245.876601 
L 630.771806 -245.876601 
L 631.370723 -245.876601 
L 631.96964 -245.876601 
L 632.568557 -245.876601 
L 633.167474 -245.876601 
L 633.766391 -245.876601 
L 634.365308 -245.876601 
L 634.964226 -245.876601 
L 635.563143 -245.876601 
L 636.16206 -245.876601 
L 636.760977 -245.876601 
L 637.359894 -245.876601 
L 637.958811 -245.876601 
L 638.557728 -245.876601 
L 639.156645 -245.876601 
L 639.755562 -245.876601 
L 640.354479 -245.876601 
L 640.953397 -245.876601 
L 641.552314 -245.876601 
L 642.151231 -245.876601 
L 642.750148 -245.876601 
L 643.349065 -245.876601 
L 643.947982 -245.876601 
L 644.546899 -245.876601 
L 645.145816 -245.876601 
L 645.744733 -245.876601 
L 646.34365 -245.876601 
L 646.942568 -245.876601 
L 647.541485 -245.876601 
L 648.140402 -245.876601 
L 648.739319 -245.876601 
L 649.338236 -245.876601 
L 649.937153 -245.876601 
L 650.53607 -245.876601 
L 651.134987 -245.876601 
L 651.733904 -245.876601 
L 652.332821 -245.876601 
L 652.931739 -245.876601 
L 653.530656 -245.876601 
L 654.129573 -245.876601 
L 654.72849 -245.876601 
L 655.327407 -245.876601 
L 655.926324 -245.876601 
L 656.525241 -245.876601 
L 657.124158 -245.876601 
L 657.723075 -245.876601 
L 658.321992 -245.876601 
L 658.92091 -245.876601 
L 659.519827 -245.876601 
L 660.118744 -245.876601 
L 660.717661 -245.876601 
L 661.316578 -245.876601 
L 661.915495 -245.876601 
L 662.514412 -245.876601 
L 663.113329 -245.876601 
L 663.712246 -245.876601 
L 664.311163 -245.876601 
L 664.910081 -245.876601 
L 665.508998 -245.876601 
L 666.107915 -245.876601 
L 666.706832 -245.876601 
L 667.305749 -245.876601 
L 667.904666 -245.876601 
L 668.503583 -245.876601 
L 669.1025 -245.876601 
L 669.701417 -245.876601 
L 670.300334 -245.876601 
L 670.899252 -245.876601 
L 671.498169 -245.876601 
L 672.097086 -245.876601 
L 672.696003 -245.876601 
L 673.29492 -245.876601 
L 673.893837 -245.876601 
L 674.492754 -245.876601 
L 675.091671 -245.876601 
L 675.690588 -245.876601 
L 676.289505 -245.876601 
L 676.888423 -245.876601 
L 677.48734 -245.876601 
L 678.086257 -245.876601 
L 678.685174 -245.876601 
L 679.284091 -245.876601 
L 679.284091 -313.128248 
L 679.284091 -313.128248 
L 678.685174 -313.128248 
L 678.086257 -313.128248 
L 677.48734 -313.128248 
L 676.888423 -313.128248 
L 676.289505 -313.128248 
L 675.690588 -313.128248 
L 675.091671 -313.128248 
L 674.492754 -313.128248 
L 673.893837 -313.128248 
L 673.29492 -313.128248 
L 672.696003 -313.128248 
L 672.097086 -313.128248 
L 671.498169 -313.128248 
L 670.899252 -313.128248 
L 670.300334 -313.128248 
L 669.701417 -313.128248 
L 669.1025 -313.128248 
L 668.503583 -313.128248 
L 667.904666 -313.128248 
L 667.305749 -313.128248 
L 666.706832 -313.128248 
L 666.107915 -313.128248 
L 665.508998 -313.128248 
L 664.910081 -313.128248 
L 664.311163 -313.128248 
L 663.712246 -313.128248 
L 663.113329 -313.128248 
L 662.514412 -313.128248 
L 661.915495 -313.128248 
L 661.316578 -313.128248 
L 660.717661 -313.128248 
L 660.118744 -313.128248 
L 659.519827 -313.128248 
L 658.92091 -313.128248 
L 658.321992 -313.128248 
L 657.723075 -313.128248 
L 657.124158 -313.128248 
L 656.525241 -313.128248 
L 655.926324 -313.128248 
L 655.327407 -313.128248 
L 654.72849 -313.128248 
L 654.129573 -313.128248 
L 653.530656 -313.128248 
L 652.931739 -313.128248 
L 652.332821 -313.128248 
L 651.733904 -313.128248 
L 651.134987 -313.128248 
L 650.53607 -313.128248 
L 649.937153 -313.128248 
L 649.338236 -313.128248 
L 648.739319 -313.128248 
L 648.140402 -313.128248 
L 647.541485 -313.128248 
L 646.942568 -313.128248 
L 646.34365 -313.128248 
L 645.744733 -313.128248 
L 645.145816 -313.128248 
L 644.546899 -313.128248 
L 643.947982 -313.128248 
L 643.349065 -313.128248 
L 642.750148 -313.128248 
L 642.151231 -313.128248 
L 641.552314 -313.128248 
L 640.953397 -313.128248 
L 640.354479 -313.128248 
L 639.755562 -313.128248 
L 639.156645 -313.128248 
L 638.557728 -313.128248 
L 637.958811 -313.128248 
L 637.359894 -313.128248 
L 636.760977 -313.128248 
L 636.16206 -313.128248 
L 635.563143 -313.128248 
L 634.964226 -313.128248 
L 634.365308 -313.128248 
L 633.766391 -313.128248 
L 633.167474 -313.128248 
L 632.568557 -313.128248 
L 631.96964 -313.128248 
L 631.370723 -313.128248 
L 630.771806 -313.128248 
L 630.172889 -313.128248 
L 629.573972 -313.128248 
L 628.975055 -313.128248 
L 628.376138 -313.128248 
L 627.77722 -313.128248 
L 627.178303 -313.128248 
L 626.579386 -313.128248 
L 625.980469 -313.128248 
L 625.381552 -313.128248 
L 624.782635 -313.128248 
L 624.183718 -313.128248 
L 623.584801 -313.128248 
L 622.985884 -313.128248 
L 622.386967 -313.128248 
L 621.788049 -313.128248 
L 621.189132 -313.128248 
L 620.590215 -313.128248 
L 619.991298 -313.128248 
L 619.392381 -313.128248 
L 618.793464 -313.128248 
L 618.194547 -313.128248 
L 617.59563 -313.128248 
L 616.996713 -313.128248 
L 616.397796 -313.128248 
L 615.798878 -313.128248 
L 615.199961 -313.128248 
L 614.601044 -313.128248 
L 614.002127 -313.128248 
L 613.40321 -313.128248 
L 612.804293 -313.128248 
L 612.205376 -313.128248 
L 611.606459 -313.128248 
L 611.007542 -313.128248 
L 610.408625 -313.128248 
L 609.809707 -313.128248 
L 609.21079 -313.128248 
L 608.611873 -313.128248 
L 608.012956 -313.128248 
L 607.414039 -313.128248 
L 606.815122 -313.128248 
L 606.216205 -313.128248 
L 605.617288 -313.128248 
L 605.018371 -313.128248 
L 604.419454 -313.128248 
L 603.820536 -313.128248 
L 603.221619 -313.128248 
L 602.622702 -313.128248 
L 602.023785 -313.128248 
L 601.424868 -313.128248 
L 600.825951 -313.128248 
L 600.227034 -313.128248 
L 599.628117 -313.128248 
L 599.0292 -313.128248 
L 598.430283 -313.128248 
L 597.831365 -313.128248 
L 597.232448 -313.128248 
L 596.633531 -313.128248 
L 596.034614 -313.128248 
L 595.435697 -313.128248 
L 594.83678 -313.128248 
L 594.237863 -313.128248 
L 593.638946 -313.128248 
L 593.040029 -313.128248 
L 592.441112 -313.128248 
L 591.842194 -313.128248 
L 591.243277 -313.128248 
L 590.64436 -313.128248 
L 590.045443 -313.128248 
L 589.446526 -313.128248 
L 588.847609 -313.128248 
L 588.248692 -313.128248 
L 587.649775 -313.128248 
L 587.050858 -313.128248 
L 586.451941 -313.128248 
L 585.853023 -313.128248 
L 585.254106 -313.128248 
L 584.655189 -313.128248 
L 584.056272 -313.128248 
L 583.457355 -313.128248 
L 582.858438 -313.128248 
L 582.259521 -313.128248 
L 581.660604 -313.128248 
L 581.061687 -313.128248 
L 580.46277 -313.128248 
L 579.863852 -313.128248 
L 579.264935 -313.128248 
L 578.666018 -313.128248 
L 578.067101 -313.128248 
L 577.468184 -313.128248 
L 576.869267 -313.128248 
L 576.27035 -313.128248 
L 575.671433 -313.128248 
L 575.072516 -313.128248 
L 574.473599 -313.128248 
L 573.874681 -313.128248 
L 573.275764 -313.128248 
L 572.676847 -313.128248 
L 572.07793 -313.128248 
L 571.479013 -313.128248 
L 570.880096 -313.128248 
L 570.281179 -313.128248 
L 569.682262 -313.128248 
L 569.083345 -313.128248 
L 568.484428 -313.128248 
L 567.885511 -313.128248 
L 567.286593 -313.128248 
L 566.687676 -313.128248 
L 566.088759 -313.128248 
L 565.489842 -313.128248 
L 564.890925 -313.128248 
L 564.292008 -313.128248 
L 563.693091 -313.128248 
L 563.094174 -313.128248 
L 562.495257 -313.128248 
L 561.89634 -313.128248 
L 561.297422 -313.128248 
L 560.698505 -313.128248 
L 560.099588 -313.128248 
L 559.500671 -313.128248 
L 558.901754 -313.128248 
L 558.302837 -313.128248 
L 557.70392 -313.128248 
L 557.105003 -313.128248 
L 556.506086 -313.128248 
L 555.907169 -313.128248 
L 555.308251 -313.128248 
L 554.709334 -313.128248 
L 554.110417 -313.128248 
L 553.5115 -313.128248 
L 552.912583 -313.128248 
L 552.313666 -313.128248 
L 551.714749 -313.128248 
L 551.115832 -313.128248 
L 550.516915 -313.128248 
L 549.917998 -313.128248 
L 549.31908 -313.128248 
L 548.720163 -313.128248 
L 548.121246 -313.128248 
L 547.522329 -313.128248 
L 546.923412 -313.128248 
L 546.324495 -313.128248 
L 545.725578 -313.128248 
L 545.126661 -313.128248 
L 544.527744 -313.128248 
L 543.928827 -313.128248 
L 543.329909 -313.128248 
L 542.730992 -313.128248 
L 542.132075 -313.128248 
L 541.533158 -313.128248 
L 540.934241 -313.128248 
L 540.335324 -313.128248 
L 539.736407 -313.128248 
L 539.13749 -313.128248 
L 538.538573 -313.128248 
L 537.939656 -313.128248 
L 537.340738 -313.128248 
L 536.741821 -313.128248 
L 536.142904 -313.128248 
L 535.543987 -313.128248 
L 534.94507 -313.128248 
L 534.346153 -313.128248 
L 533.747236 -313.128248 
L 533.148319 -313.128248 
L 532.549402 -313.128248 
L 531.950485 -313.128248 
L 531.351567 -313.128248 
L 530.75265 -313.128248 
L 530.153733 -313.128248 
L 529.554816 -313.128248 
L 528.955899 -313.128248 
L 528.356982 -313.128248 
L 527.758065 -313.128248 
L 527.159148 -313.128248 
L 526.560231 -313.128248 
L 525.961314 -313.128248 
L 525.362396 -313.128248 
L 524.763479 -313.128248 
L 524.164562 -313.128248 
L 523.565645 -313.128248 
L 522.966728 -313.128248 
L 522.367811 -313.128248 
L 521.768894 -313.128248 
L 521.169977 -313.128248 
L 520.57106 -313.128248 
L 519.972143 -313.128248 
L 519.373225 -313.128248 
L 518.774308 -313.128248 
L 518.175391 -313.128248 
L 517.576474 -313.128248 
L 516.977557 -313.128248 
L 516.37864 -313.128248 
L 515.779723 -313.128248 
L 515.180806 -313.128248 
L 514.581889 -313.128248 
L 513.982972 -313.128248 
L 513.384055 -313.128248 
L 512.785137 -313.128248 
L 512.18622 -313.128248 
L 511.587303 -313.128248 
L 510.988386 -313.128248 
L 510.389469 -313.128248 
L 509.790552 -313.128248 
L 509.191635 -313.128248 
L 508.592718 -313.128248 
L 507.993801 -313.128248 
L 507.394884 -313.128248 
L 506.795966 -313.128248 
L 506.197049 -313.128248 
L 505.598132 -313.128248 
L 504.999215 -316.951003 
L 504.400298 -317.931937 
L 503.801381 -317.931937 
L 503.202464 -317.931937 
L 502.603547 -317.931937 
L 502.00463 -317.931937 
L 501.405713 -317.931937 
L 500.806795 -317.931937 
L 500.207878 -317.931937 
L 499.608961 -317.931937 
L 499.010044 -317.931937 
L 498.411127 -317.931937 
L 497.81221 -317.931937 
L 497.213293 -317.931937 
L 496.614376 -317.931937 
L 496.015459 -317.931937 
L 495.416542 -317.931937 
L 494.817624 -317.931937 
L 494.218707 -317.931937 
L 493.61979 -317.931937 
L 493.020873 -317.931937 
L 492.421956 -317.931937 
L 491.823039 -317.931937 
L 491.224122 -317.931937 
L 490.625205 -317.931937 
L 490.026288 -317.931937 
L 489.427371 -317.931937 
L 488.828453 -317.931937 
L 488.229536 -317.931937 
L 487.630619 -317.931937 
L 487.031702 -317.931937 
L 486.432785 -317.931937 
L 485.833868 -317.931937 
L 485.234951 -317.931937 
L 484.636034 -317.931937 
L 484.037117 -317.931937 
L 483.4382 -317.931937 
L 482.839282 -317.931937 
L 482.240365 -317.931937 
L 481.641448 -317.931937 
L 481.042531 -317.931937 
L 480.443614 -317.931937 
L 479.844697 -317.931937 
L 479.24578 -317.931937 
L 478.646863 -317.931937 
L 478.047946 -317.931937 
L 477.449029 -317.931937 
L 476.850111 -317.931937 
L 476.251194 -317.931937 
L 475.652277 -317.931937 
L 475.05336 -317.931937 
L 474.454443 -317.931937 
L 473.855526 -317.931937 
L 473.256609 -317.931937 
L 472.657692 -317.931937 
L 472.058775 -317.931937 
L 471.459858 -317.931937 
L 470.86094 -317.931937 
L 470.262023 -317.931937 
L 469.663106 -317.931937 
L 469.064189 -317.931937 
L 468.465272 -317.931937 
L 467.866355 -317.931937 
L 467.267438 -317.931937 
L 466.668521 -317.931937 
L 466.069604 -317.931937 
L 465.470687 -317.931937 
L 464.871769 -317.931937 
L 464.272852 -317.931937 
L 463.673935 -317.931937 
L 463.075018 -317.931937 
L 462.476101 -317.931937 
L 461.877184 -317.931937 
L 461.278267 -317.931937 
L 460.67935 -317.931937 
L 460.080433 -317.931937 
L 459.481516 -317.931937 
L 458.882599 -317.931937 
L 458.283681 -317.931937 
L 457.684764 -317.931937 
L 457.085847 -317.931937 
L 456.48693 -317.931937 
L 455.888013 -317.931937 
L 455.289096 -317.931937 
L 454.690179 -317.931937 
L 454.091262 -317.931937 
L 453.492345 -317.931937 
L 452.893428 -317.931937 
L 452.29451 -317.931937 
L 451.695593 -317.931937 
L 451.096676 -317.931937 
L 450.497759 -317.931937 
L 449.898842 -317.931937 
L 449.299925 -317.931937 
L 448.701008 -317.931937 
L 448.102091 -317.931937 
L 447.503174 -317.931937 
L 446.904257 -317.931937 
L 446.305339 -317.931937 
L 445.706422 -317.931937 
L 445.107505 -317.931937 
L 444.508588 -317.931937 
L 443.909671 -317.931937 
L 443.310754 -317.931937 
L 442.711837 -317.931937 
L 442.11292 -317.931937 
L 441.514003 -317.931937 
L 440.915086 -317.931937 
L 440.316168 -317.931937 
L 439.717251 -317.931937 
L 439.118334 -317.931937 
L 438.519417 -317.931937 
L 437.9205 -317.931937 
L 437.321583 -317.931937 
L 436.722666 -317.931937 
L 436.123749 -317.931937 
L 435.524832 -317.931937 
L 434.925915 -317.931937 
L 434.326997 -317.931937 
L 433.72808 -317.931937 
L 433.129163 -317.931937 
L 432.530246 -317.931937 
L 431.931329 -317.931937 
L 431.332412 -317.931937 
L 430.733495 -317.931937 
L 430.134578 -317.931937 
L 429.535661 -317.931937 
L 428.936744 -317.931937 
L 428.337826 -317.931937 
L 427.738909 -317.931937 
L 427.139992 -317.931937 
L 426.541075 -317.931937 
L 425.942158 -317.931937 
L 425.343241 -317.931937 
L 424.744324 -317.931937 
L 424.145407 -317.931937 
L 423.54649 -317.931937 
L 422.947573 -317.931937 
L 422.348655 -317.931937 
L 421.749738 -317.931937 
L 421.150821 -317.931937 
L 420.551904 -317.931937 
L 419.952987 -317.931937 
L 419.35407 -317.931937 
L 418.755153 -317.931937 
L 418.156236 -317.931937 
L 417.557319 -317.931937 
L 416.958402 -317.931937 
L 416.359484 -317.931937 
L 415.760567 -317.931937 
L 415.16165 -317.931937 
L 414.562733 -317.931937 
L 413.963816 -317.931937 
L 413.364899 -317.931937 
L 412.765982 -317.931937 
L 412.167065 -317.931937 
L 411.568148 -317.931937 
L 410.969231 -317.931937 
L 410.370313 -317.931937 
L 409.771396 -317.931937 
L 409.172479 -317.931937 
L 408.573562 -317.931937 
L 407.974645 -317.931937 
L 407.375728 -317.931937 
L 406.776811 -317.931937 
L 406.177894 -317.931937 
L 405.578977 -317.931937 
L 404.98006 -317.931937 
L 404.381143 -317.931937 
L 403.782225 -317.931937 
L 403.183308 -317.931937 
L 402.584391 -317.931937 
L 401.985474 -317.931937 
L 401.386557 -317.931937 
L 400.78764 -317.931937 
L 400.188723 -317.931937 
L 399.589806 -317.931937 
L 398.990889 -317.931937 
L 398.391972 -317.931937 
L 397.793054 -317.931937 
L 397.194137 -317.931937 
L 396.59522 -317.931937 
L 395.996303 -317.931937 
L 395.397386 -317.931937 
L 394.798469 -317.931937 
L 394.199552 -317.931937 
L 393.600635 -317.931937 
L 393.001718 -317.931937 
L 392.402801 -317.931937 
L 391.803883 -317.931937 
L 391.204966 -317.931937 
L 390.606049 -317.931937 
L 390.007132 -317.931937 
L 389.408215 -317.931937 
L 388.809298 -317.931937 
L 388.210381 -317.931937 
L 387.611464 -317.931937 
L 387.012547 -317.931937 
L 386.41363 -317.931937 
L 385.814712 -317.931937 
L 385.215795 -317.931937 
L 384.616878 -317.931937 
L 384.017961 -317.931937 
L 383.419044 -317.931937 
L 382.820127 -317.931937 
L 382.22121 -317.931937 
L 381.622293 -317.931937 
L 381.023376 -317.931937 
L 380.424459 -317.931937 
L 379.825541 -317.931937 
L 379.226624 -317.931937 
L 378.627707 -317.931937 
L 378.02879 -317.931937 
L 377.429873 -317.931937 
L 376.830956 -317.931937 
L 376.232039 -317.931937 
L 375.633122 -317.931937 
L 375.034205 -317.931937 
L 374.435288 -317.931937 
L 373.83637 -317.931937 
L 373.237453 -317.931937 
L 372.638536 -317.931937 
L 372.039619 -317.931937 
L 371.440702 -317.931937 
L 370.841785 -317.931937 
L 370.242868 -317.931937 
L 369.643951 -317.931937 
L 369.045034 -317.931937 
L 368.446117 -317.931937 
L 367.847199 -317.931937 
L 367.248282 -317.931937 
L 366.649365 -317.931937 
L 366.050448 -317.931937 
L 365.451531 -317.931937 
L 364.852614 -317.931937 
L 364.253697 -317.931937 
L 363.65478 -317.931937 
L 363.055863 -317.931937 
L 362.456946 -317.931937 
L 361.858028 -317.931937 
L 361.259111 -317.931937 
L 360.660194 -317.931937 
L 360.061277 -317.931937 
L 359.46236 -317.931937 
L 358.863443 -317.931937 
L 358.264526 -317.931937 
L 357.665609 -317.931937 
L 357.066692 -317.931937 
L 356.467775 -317.931937 
L 355.868857 -317.931937 
L 355.26994 -318.138702 
L 354.671023 -322.735626 
L 354.072106 -322.735626 
L 353.473189 -322.735626 
L 352.874272 -322.735626 
L 352.275355 -322.735626 
L 351.676438 -322.735626 
L 351.077521 -322.735626 
L 350.478604 -322.735626 
L 349.879687 -322.735626 
L 349.280769 -322.735626 
L 348.681852 -322.735626 
L 348.082935 -322.735626 
L 347.484018 -322.735626 
L 346.885101 -322.735626 
L 346.286184 -322.735626 
L 345.687267 -322.735626 
L 345.08835 -322.735626 
L 344.489433 -322.735626 
L 343.890516 -322.735626 
L 343.291598 -322.735626 
L 342.692681 -322.735626 
L 342.093764 -322.735626 
L 341.494847 -322.735626 
L 340.89593 -322.735626 
L 340.297013 -322.735626 
L 339.698096 -322.735626 
L 339.099179 -322.735626 
L 338.500262 -322.735626 
L 337.901345 -322.735626 
L 337.302427 -322.735626 
L 336.70351 -322.735626 
L 336.104593 -322.735626 
L 335.505676 -322.735626 
L 334.906759 -322.735626 
L 334.307842 -322.735626 
L 333.708925 -322.735626 
L 333.110008 -322.735626 
L 332.511091 -322.735626 
L 331.912174 -322.735626 
L 331.313256 -322.735626 
L 330.714339 -322.735626 
L 330.115422 -322.735626 
L 329.516505 -322.735626 
L 328.917588 -322.735626 
L 328.318671 -322.735626 
L 327.719754 -322.735626 
L 327.120837 -322.735626 
L 326.52192 -322.735626 
L 325.923003 -322.735626 
L 325.324085 -322.735626 
L 324.725168 -322.735626 
L 324.126251 -322.735626 
L 323.527334 -322.735626 
L 322.928417 -322.735626 
L 322.3295 -322.735626 
L 321.730583 -322.735626 
L 321.131666 -322.735626 
L 320.532749 -322.735626 
L 319.933832 -322.735626 
L 319.334914 -322.735626 
L 318.735997 -322.735626 
L 318.13708 -322.735626 
L 317.538163 -322.735626 
L 316.939246 -322.735626 
L 316.340329 -322.735626 
L 315.741412 -322.735626 
L 315.142495 -322.735626 
L 314.543578 -322.735626 
L 313.944661 -322.735626 
L 313.345743 -322.735626 
L 312.746826 -322.735626 
L 312.147909 -322.735626 
L 311.548992 -322.735626 
L 310.950075 -322.735626 
L 310.351158 -322.735626 
L 309.752241 -322.735626 
L 309.153324 -322.735626 
L 308.554407 -322.735626 
L 307.95549 -322.735626 
L 307.356572 -322.735626 
L 306.757655 -322.735626 
L 306.158738 -322.735626 
L 305.559821 -322.735626 
L 304.960904 -322.735626 
L 304.361987 -322.735626 
L 303.76307 -322.735626 
L 303.164153 -322.735626 
L 302.565236 -322.735626 
L 301.966319 -322.735626 
L 301.367401 -322.735626 
L 300.768484 -322.735626 
L 300.169567 -322.735626 
L 299.57065 -322.735626 
L 298.971733 -322.735626 
L 298.372816 -322.735626 
L 297.773899 -322.735626 
L 297.174982 -322.735626 
L 296.576065 -322.735626 
L 295.977148 -322.735626 
L 295.378231 -322.735626 
L 294.779313 -322.735626 
L 294.180396 -322.735626 
L 293.581479 -322.735626 
L 292.982562 -322.735626 
L 292.383645 -322.735626 
L 291.784728 -322.735626 
L 291.185811 -322.735626 
L 290.586894 -322.735626 
L 289.987977 -322.735626 
L 289.38906 -322.735626 
L 288.790142 -322.735626 
L 288.191225 -322.735626 
L 287.592308 -322.735626 
L 286.993391 -322.735626 
L 286.394474 -322.735626 
L 285.795557 -322.735626 
L 285.19664 -322.735626 
L 284.597723 -322.735626 
L 283.998806 -322.735626 
L 283.399889 -322.735626 
L 282.800971 -322.735626 
L 282.202054 -322.735626 
L 281.603137 -326.043872 
L 281.00422 -327.539315 
L 280.405303 -327.539315 
L 279.806386 -327.539315 
L 279.207469 -327.539315 
L 278.608552 -327.539315 
L 278.009635 -327.539315 
L 277.410718 -327.539315 
L 276.8118 -327.539315 
L 276.212883 -327.539315 
L 275.613966 -327.539315 
L 275.015049 -327.539315 
L 274.416132 -327.539315 
L 273.817215 -327.539315 
L 273.218298 -327.539315 
L 272.619381 -327.539315 
L 272.020464 -327.539315 
L 271.421547 -327.539315 
L 270.822629 -327.539315 
L 270.223712 -327.539315 
L 269.624795 -327.539315 
L 269.025878 -327.539315 
L 268.426961 -327.539315 
L 267.828044 -327.539315 
L 267.229127 -327.539315 
L 266.63021 -327.539315 
L 266.031293 -327.539315 
L 265.432376 -327.539315 
L 264.833458 -327.539315 
L 264.234541 -327.539315 
L 263.635624 -327.539315 
L 263.036707 -327.539315 
L 262.43779 -327.539315 
L 261.838873 -327.539315 
L 261.239956 -327.539315 
L 260.641039 -327.539315 
L 260.042122 -327.539315 
L 259.443205 -327.539315 
L 258.844287 -327.539315 
L 258.24537 -327.539315 
L 257.646453 -327.539315 
L 257.047536 -327.539315 
L 256.448619 -327.539315 
L 255.849702 -327.539315 
L 255.250785 -327.539315 
L 254.651868 -327.539315 
L 254.052951 -327.539315 
L 253.454034 -327.539315 
L 252.855116 -327.539315 
L 252.256199 -327.539315 
L 251.657282 -327.539315 
L 251.058365 -327.539315 
L 250.459448 -327.539315 
L 249.860531 -327.539315 
L 249.261614 -327.539315 
L 248.662697 -327.539315 
L 248.06378 -327.539315 
L 247.464863 -327.539315 
L 246.865945 -327.539315 
L 246.267028 -327.539315 
L 245.668111 -327.539315 
L 245.069194 -327.539315 
L 244.470277 -327.539315 
L 243.87136 -327.539315 
L 243.272443 -327.539315 
L 242.673526 -327.539315 
L 242.074609 -332.160281 
L 241.475692 -332.343004 
L 240.876775 -332.343004 
L 240.277857 -332.343004 
L 239.67894 -332.343004 
L 239.080023 -332.343004 
L 238.481106 -332.343004 
L 237.882189 -332.343004 
L 237.283272 -332.343004 
L 236.684355 -332.343004 
L 236.085438 -332.343004 
L 235.486521 -332.343004 
L 234.887604 -332.343004 
L 234.288686 -332.343004 
L 233.689769 -332.343004 
L 233.090852 -332.343004 
L 232.491935 -332.343004 
L 231.893018 -332.343004 
L 231.294101 -332.343004 
L 230.695184 -332.343004 
L 230.096267 -332.343004 
L 229.49735 -332.343004 
L 228.898433 -332.343004 
L 228.299515 -332.343004 
L 227.700598 -332.343004 
L 227.101681 -332.343004 
L 226.502764 -332.343004 
L 225.903847 -332.343004 
L 225.30493 -332.343004 
L 224.706013 -332.343004 
L 224.107096 -332.343004 
L 223.508179 -332.343004 
L 222.909262 -332.343004 
L 222.310344 -332.343004 
L 221.711427 -332.343004 
L 221.11251 -332.343004 
L 220.513593 -332.343004 
L 219.914676 -332.343004 
L 219.315759 -332.343004 
L 218.716842 -332.343004 
L 218.117925 -332.343004 
L 217.519008 -332.343004 
L 216.920091 -332.343004 
L 216.321173 -332.343004 
L 215.722256 -332.343004 
L 215.123339 -332.343004 
L 214.524422 -332.343004 
L 213.925505 -332.343004 
L 213.326588 -334.425083 
L 212.727671 -337.146693 
L 212.128754 -337.146693 
L 211.529837 -337.146693 
L 210.93092 -337.146693 
L 210.332002 -337.146693 
L 209.733085 -337.146693 
L 209.134168 -337.146693 
L 208.535251 -337.146693 
L 207.936334 -337.146693 
L 207.337417 -337.146693 
L 206.7385 -337.146693 
L 206.139583 -337.146693 
L 205.540666 -337.146693 
L 204.941749 -337.146693 
L 204.342831 -337.146693 
L 203.743914 -337.146693 
L 203.144997 -337.146693 
L 202.54608 -337.146693 
L 201.947163 -337.146693 
L 201.348246 -337.146693 
L 200.749329 -337.146693 
L 200.150412 -337.146693 
L 199.551495 -337.146693 
L 198.952578 -337.146693 
L 198.35366 -337.146693 
L 197.754743 -337.146693 
L 197.155826 -337.146693 
L 196.556909 -337.146693 
L 195.957992 -337.146693 
L 195.359075 -337.146693 
L 194.760158 -337.146693 
L 194.161241 -337.536181 
L 193.562324 -341.950382 
L 192.963407 -341.950382 
L 192.364489 -341.950382 
L 191.765572 -341.950382 
L 191.166655 -341.950382 
L 190.567738 -341.950382 
L 189.968821 -341.950382 
L 189.369904 -341.950382 
L 188.770987 -341.950382 
L 188.17207 -341.950382 
L 187.573153 -341.950382 
L 186.974236 -341.950382 
L 186.375319 -341.950382 
L 185.776401 -341.950382 
L 185.177484 -341.950382 
L 184.578567 -341.950382 
L 183.97965 -341.950382 
L 183.380733 -341.950382 
L 182.781816 -341.950382 
L 182.182899 -341.950382 
L 181.583982 -341.950382 
L 180.985065 -341.950382 
L 180.386148 -341.950382 
L 179.78723 -341.950382 
L 179.188313 -341.950382 
L 178.589396 -341.950382 
L 177.990479 -341.950382 
L 177.391562 -341.950382 
L 176.792645 -345.609649 
L 176.193728 -346.754071 
L 175.594811 -346.754071 
L 174.995894 -346.754071 
L 174.396977 -346.754071 
L 173.798059 -346.754071 
L 173.199142 -346.754071 
L 172.600225 -346.754071 
L 172.001308 -346.754071 
L 171.402391 -346.754071 
L 170.803474 -346.754071 
L 170.204557 -346.754071 
L 169.60564 -346.754071 
L 169.006723 -346.754071 
L 168.407806 -346.754071 
L 167.808888 -346.754071 
L 167.209971 -346.754071 
L 166.611054 -346.754071 
L 166.012137 -346.754071 
L 165.41322 -349.408362 
L 164.814303 -351.55776 
L 164.215386 -351.55776 
L 163.616469 -351.55776 
L 163.017552 -351.55776 
L 162.418635 -351.55776 
L 161.819717 -351.55776 
L 161.2208 -351.55776 
L 160.621883 -351.55776 
L 160.022966 -351.55776 
L 159.424049 -351.55776 
L 158.825132 -351.55776 
L 158.226215 -351.55776 
L 157.627298 -353.524436 
L 157.028381 -356.361449 
L 156.429464 -356.361449 
L 155.830546 -356.361449 
L 155.231629 -356.361449 
L 154.632712 -356.361449 
L 154.033795 -356.361449 
L 153.434878 -356.361449 
L 152.835961 -356.361449 
L 152.237044 -356.361449 
L 151.638127 -356.361449 
L 151.03921 -356.361449 
L 150.440293 -356.361449 
L 149.841375 -357.64051 
L 149.242458 -361.165138 
L 148.643541 -361.165138 
L 148.044624 -361.165138 
L 147.445707 -361.165138 
L 146.84679 -361.165138 
L 146.247873 -361.165138 
L 145.648956 -361.165138 
L 145.050039 -361.165138 
L 144.451122 -361.165138 
L 143.852204 -361.165138 
L 143.253287 -361.165138 
L 142.65437 -361.809477 
L 142.055453 -365.968827 
L 141.456536 -365.968827 
L 140.857619 -365.968827 
L 140.258702 -365.968827 
L 139.659785 -365.968827 
L 139.060868 -365.968827 
L 138.461951 -365.968827 
L 137.863033 -366.190018 
L 137.264116 -370.772516 
L 136.665199 -370.772516 
L 136.066282 -370.772516 
L 135.467365 -370.772516 
L 134.868448 -370.772516 
L 134.269531 -370.772516 
L 133.670614 -370.772516 
L 133.071697 -370.772516 
L 132.47278 -375.321355 
L 131.873862 -375.576206 
L 131.274945 -375.576206 
L 130.676028 -375.576206 
L 130.077111 -375.576206 
L 129.478194 -375.576206 
L 128.879277 -375.576206 
L 128.28036 -375.576206 
L 127.681443 -379.701896 
L 127.082526 -380.379895 
L 126.483609 -380.379895 
L 125.884692 -380.379895 
L 125.285774 -380.379895 
L 124.686857 -380.379895 
L 124.08794 -380.379895 
L 123.489023 -380.379895 
L 122.890106 -384.082438 
L 122.291189 -385.183584 
L 121.692272 -385.183584 
L 121.093355 -385.183584 
L 120.494438 -385.183584 
L 119.895521 -385.183584 
L 119.296603 -385.183584 
L 118.697686 -385.183584 
L 118.098769 -385.183584 
L 117.499852 -385.183584 
L 116.900935 -385.183584 
L 116.302018 -385.183584 
L 115.703101 -385.183584 
L 115.104184 -385.183584 
L 114.505267 -388.145618 
L 113.90635 -389.987273 
L 113.307432 -389.987273 
L 112.708515 -387.183919 
L 112.109598 -385.183584 
L 111.510681 -385.183584 
L 110.911764 -385.183584 
L 110.312847 -382.591803 
L 109.71393 -380.379895 
L 109.115013 -380.379895 
L 108.516096 -380.379895 
L 107.917179 -380.379895 
L 107.318261 -380.379895 
L 106.719344 -378.105475 
L 106.120427 -375.576206 
L 105.52151 -375.576206 
L 104.922593 -375.576206 
L 104.323676 -375.576206 
L 103.724759 -373.566254 
L 103.125842 -370.772516 
L 102.526925 -370.772516 
L 101.928008 -368.921245 
L 101.32909 -365.968827 
L 100.730173 -364.223343 
L 100.131256 -361.165138 
L 99.532339 -361.165138 
L 98.933422 -361.165138 
L 98.334505 -359.631228 
L 97.735588 -356.361449 
L 97.136671 -354.933325 
L 96.537754 -350.18253 
L 95.938837 -345.431734 
L 95.339919 -340.680939 
L 94.741002 -335.930143 
L 94.142085 -331.179348 
L 93.543168 -326.428552 
L 92.944251 -321.677756 
L 92.345334 -316.926961 
L 91.746417 -312.176165 
L 91.1475 -307.42537 
L 90.548583 -302.674574 
L 89.949666 -297.130376 
L 89.350748 -288.369294 
L 88.751831 -282.930883 
L 88.152914 -274.064013 
L 87.553997 -268.73139 
L 86.95508 -259.229799 
L 86.356163 -249.728207 
L 85.757246 -239.803468 
L 85.158329 -225.551082 
L 84.559412 -210.981334 
L 83.960495 -192.242619 
L 83.361577 -177.778658 
L 82.76266 -158.775476 
L 82.163743 -139.666507 
L 81.564826 -115.912529 
L 80.965909 -92.158551 
z
" style="stroke: #008000; stroke-opacity: 0.3"/>
    </defs>
    <g clip-path="url(#p0689fef1d9)">
     <use xlink:href="#m6613624267" x="0" y="432" style="fill: #008000; fill-opacity: 0.3; stroke: #008000; stroke-opacity: 0.3"/>
    </g>
   </g>
   <g id="matplotlib.axis_1">
    <g id="xtick_1">
     <g id="line2d_1">
      <defs>
       <path id="mdec4d497a8" d="M 0 0 
L 0 3.5 
" style="stroke: #000000; stroke-width: 0.8"/>
      </defs>
      <g>
       <use xlink:href="#mdec4d497a8" x="74.304472" y="390.04" style="stroke: #000000; stroke-width: 0.8"/>
      </g>
     </g>
     <g id="text_1">
      <!-- 0 -->
      <g transform="translate(71.123222 404.638438) scale(0.1 -0.1)">
       <defs>
        <path id="DejaVuSans-30" d="M 2034 4250 
Q 1547 4250 1301 3770 
Q 1056 3291 1056 2328 
Q 1056 1369 1301 889 
Q 1547 409 2034 409 
Q 2525 409 2770 889 
Q 3016 1369 3016 2328 
Q 3016 3291 2770 3770 
Q 2525 4250 2034 4250 
z
M 2034 4750 
Q 2819 4750 3233 4129 
Q 3647 3509 3647 2328 
Q 3647 1150 3233 529 
Q 2819 -91 2034 -91 
Q 1250 -91 836 529 
Q 422 1150 422 2328 
Q 422 3509 836 4129 
Q 1250 4750 2034 4750 
z
" transform="scale(0.015625)"/>
       </defs>
       <use xlink:href="#DejaVuSans-30"/>
      </g>
     </g>
    </g>
    <g id="xtick_2">
     <g id="line2d_2">
      <g>
       <use xlink:href="#mdec4d497a8" x="195.421513" y="390.04" style="stroke: #000000; stroke-width: 0.8"/>
      </g>
     </g>
     <g id="text_2">
      <!-- 20000 -->
      <g transform="translate(179.515263 404.638438) scale(0.1 -0.1)">
       <defs>
        <path id="DejaVuSans-32" d="M 1228 531 
L 3431 531 
L 3431 0 
L 469 0 
L 469 531 
Q 828 903 1448 1529 
Q 2069 2156 2228 2338 
Q 2531 2678 2651 2914 
Q 2772 3150 2772 3378 
Q 2772 3750 2511 3984 
Q 2250 4219 1831 4219 
Q 1534 4219 1204 4116 
Q 875 4013 500 3803 
L 500 4441 
Q 881 4594 1212 4672 
Q 1544 4750 1819 4750 
Q 2544 4750 2975 4387 
Q 3406 4025 3406 3419 
Q 3406 3131 3298 2873 
Q 3191 2616 2906 2266 
Q 2828 2175 2409 1742 
Q 1991 1309 1228 531 
z
" transform="scale(0.015625)"/>
       </defs>
       <use xlink:href="#DejaVuSans-32"/>
       <use xlink:href="#DejaVuSans-30" transform="translate(63.623047 0)"/>
       <use xlink:href="#DejaVuSans-30" transform="translate(127.246094 0)"/>
       <use xlink:href="#DejaVuSans-30" transform="translate(190.869141 0)"/>
       <use xlink:href="#DejaVuSans-30" transform="translate(254.492188 0)"/>
      </g>
     </g>
    </g>
    <g id="xtick_3">
     <g id="line2d_3">
      <g>
       <use xlink:href="#mdec4d497a8" x="316.538554" y="390.04" style="stroke: #000000; stroke-width: 0.8"/>
      </g>
     </g>
     <g id="text_3">
      <!-- 40000 -->
      <g transform="translate(300.632304 404.638438) scale(0.1 -0.1)">
       <defs>
        <path id="DejaVuSans-34" d="M 2419 4116 
L 825 1625 
L 2419 1625 
L 2419 4116 
z
M 2253 4666 
L 3047 4666 
L 3047 1625 
L 3713 1625 
L 3713 1100 
L 3047 1100 
L 3047 0 
L 2419 0 
L 2419 1100 
L 313 1100 
L 313 1709 
L 2253 4666 
z
" transform="scale(0.015625)"/>
       </defs>
       <use xlink:href="#DejaVuSans-34"/>
       <use xlink:href="#DejaVuSans-30" transform="translate(63.623047 0)"/>
       <use xlink:href="#DejaVuSans-30" transform="translate(127.246094 0)"/>
       <use xlink:href="#DejaVuSans-30" transform="translate(190.869141 0)"/>
       <use xlink:href="#DejaVuSans-30" transform="translate(254.492188 0)"/>
      </g>
     </g>
    </g>
    <g id="xtick_4">
     <g id="line2d_4">
      <g>
       <use xlink:href="#mdec4d497a8" x="437.655594" y="390.04" style="stroke: #000000; stroke-width: 0.8"/>
      </g>
     </g>
     <g id="text_4">
      <!-- 60000 -->
      <g transform="translate(421.749344 404.638438) scale(0.1 -0.1)">
       <defs>
        <path id="DejaVuSans-36" d="M 2113 2584 
Q 1688 2584 1439 2293 
Q 1191 2003 1191 1497 
Q 1191 994 1439 701 
Q 1688 409 2113 409 
Q 2538 409 2786 701 
Q 3034 994 3034 1497 
Q 3034 2003 2786 2293 
Q 2538 2584 2113 2584 
z
M 3366 4563 
L 3366 3988 
Q 3128 4100 2886 4159 
Q 2644 4219 2406 4219 
Q 1781 4219 1451 3797 
Q 1122 3375 1075 2522 
Q 1259 2794 1537 2939 
Q 1816 3084 2150 3084 
Q 2853 3084 3261 2657 
Q 3669 2231 3669 1497 
Q 3669 778 3244 343 
Q 2819 -91 2113 -91 
Q 1303 -91 875 529 
Q 447 1150 447 2328 
Q 447 3434 972 4092 
Q 1497 4750 2381 4750 
Q 2619 4750 2861 4703 
Q 3103 4656 3366 4563 
z
" transform="scale(0.015625)"/>
       </defs>
       <use xlink:href="#DejaVuSans-36"/>
       <use xlink:href="#DejaVuSans-30" transform="translate(63.623047 0)"/>
       <use xlink:href="#DejaVuSans-30" transform="translate(127.246094 0)"/>
       <use xlink:href="#DejaVuSans-30" transform="translate(190.869141 0)"/>
       <use xlink:href="#DejaVuSans-30" transform="translate(254.492188 0)"/>
      </g>
     </g>
    </g>
    <g id="xtick_5">
     <g id="line2d_5">
      <g>
       <use xlink:href="#mdec4d497a8" x="558.772635" y="390.04" style="stroke: #000000; stroke-width: 0.8"/>
      </g>
     </g>
     <g id="text_5">
      <!-- 80000 -->
      <g transform="translate(542.866385 404.638438) scale(0.1 -0.1)">
       <defs>
        <path id="DejaVuSans-38" d="M 2034 2216 
Q 1584 2216 1326 1975 
Q 1069 1734 1069 1313 
Q 1069 891 1326 650 
Q 1584 409 2034 409 
Q 2484 409 2743 651 
Q 3003 894 3003 1313 
Q 3003 1734 2745 1975 
Q 2488 2216 2034 2216 
z
M 1403 2484 
Q 997 2584 770 2862 
Q 544 3141 544 3541 
Q 544 4100 942 4425 
Q 1341 4750 2034 4750 
Q 2731 4750 3128 4425 
Q 3525 4100 3525 3541 
Q 3525 3141 3298 2862 
Q 3072 2584 2669 2484 
Q 3125 2378 3379 2068 
Q 3634 1759 3634 1313 
Q 3634 634 3220 271 
Q 2806 -91 2034 -91 
Q 1263 -91 848 271 
Q 434 634 434 1313 
Q 434 1759 690 2068 
Q 947 2378 1403 2484 
z
M 1172 3481 
Q 1172 3119 1398 2916 
Q 1625 2713 2034 2713 
Q 2441 2713 2670 2916 
Q 2900 3119 2900 3481 
Q 2900 3844 2670 4047 
Q 2441 4250 2034 4250 
Q 1625 4250 1398 4047 
Q 1172 3844 1172 3481 
z
" transform="scale(0.015625)"/>
       </defs>
       <use xlink:href="#DejaVuSans-38"/>
       <use xlink:href="#DejaVuSans-30" transform="translate(63.623047 0)"/>
       <use xlink:href="#DejaVuSans-30" transform="translate(127.246094 0)"/>
       <use xlink:href="#DejaVuSans-30" transform="translate(190.869141 0)"/>
       <use xlink:href="#DejaVuSans-30" transform="translate(254.492188 0)"/>
      </g>
     </g>
    </g>
    <g id="xtick_6">
     <g id="line2d_6">
      <g>
       <use xlink:href="#mdec4d497a8" x="679.889676" y="390.04" style="stroke: #000000; stroke-width: 0.8"/>
      </g>
     </g>
     <g id="text_6">
      <!-- 100000 -->
      <g transform="translate(660.802176 404.638438) scale(0.1 -0.1)">
       <defs>
        <path id="DejaVuSans-31" d="M 794 531 
L 1825 531 
L 1825 4091 
L 703 3866 
L 703 4441 
L 1819 4666 
L 2450 4666 
L 2450 531 
L 3481 531 
L 3481 0 
L 794 0 
L 794 531 
z
" transform="scale(0.015625)"/>
       </defs>
       <use xlink:href="#DejaVuSans-31"/>
       <use xlink:href="#DejaVuSans-30" transform="translate(63.623047 0)"/>
       <use xlink:href="#DejaVuSans-30" transform="translate(127.246094 0)"/>
       <use xlink:href="#DejaVuSans-30" transform="translate(190.869141 0)"/>
       <use xlink:href="#DejaVuSans-30" transform="translate(254.492188 0)"/>
       <use xlink:href="#DejaVuSans-30" transform="translate(318.115234 0)"/>
      </g>
     </g>
    </g>
    <g id="text_7">
     <!-- Step -->
     <g transform="translate(368.739844 418.316562) scale(0.1 -0.1)">
      <defs>
       <path id="DejaVuSans-53" d="M 3425 4513 
L 3425 3897 
Q 3066 4069 2747 4153 
Q 2428 4238 2131 4238 
Q 1616 4238 1336 4038 
Q 1056 3838 1056 3469 
Q 1056 3159 1242 3001 
Q 1428 2844 1947 2747 
L 2328 2669 
Q 3034 2534 3370 2195 
Q 3706 1856 3706 1288 
Q 3706 609 3251 259 
Q 2797 -91 1919 -91 
Q 1588 -91 1214 -16 
Q 841 59 441 206 
L 441 856 
Q 825 641 1194 531 
Q 1563 422 1919 422 
Q 2459 422 2753 634 
Q 3047 847 3047 1241 
Q 3047 1584 2836 1778 
Q 2625 1972 2144 2069 
L 1759 2144 
Q 1053 2284 737 2584 
Q 422 2884 422 3419 
Q 422 4038 858 4394 
Q 1294 4750 2059 4750 
Q 2388 4750 2728 4690 
Q 3069 4631 3425 4513 
z
" transform="scale(0.015625)"/>
       <path id="DejaVuSans-74" d="M 1172 4494 
L 1172 3500 
L 2356 3500 
L 2356 3053 
L 1172 3053 
L 1172 1153 
Q 1172 725 1289 603 
Q 1406 481 1766 481 
L 2356 481 
L 2356 0 
L 1766 0 
Q 1100 0 847 248 
Q 594 497 594 1153 
L 594 3053 
L 172 3053 
L 172 3500 
L 594 3500 
L 594 4494 
L 1172 4494 
z
" transform="scale(0.015625)"/>
       <path id="DejaVuSans-65" d="M 3597 1894 
L 3597 1613 
L 953 1613 
Q 991 1019 1311 708 
Q 1631 397 2203 397 
Q 2534 397 2845 478 
Q 3156 559 3463 722 
L 3463 178 
Q 3153 47 2828 -22 
Q 2503 -91 2169 -91 
Q 1331 -91 842 396 
Q 353 884 353 1716 
Q 353 2575 817 3079 
Q 1281 3584 2069 3584 
Q 2775 3584 3186 3129 
Q 3597 2675 3597 1894 
z
M 3022 2063 
Q 3016 2534 2758 2815 
Q 2500 3097 2075 3097 
Q 1594 3097 1305 2825 
Q 1016 2553 972 2059 
L 3022 2063 
z
" transform="scale(0.015625)"/>
       <path id="DejaVuSans-70" d="M 1159 525 
L 1159 -1331 
L 581 -1331 
L 581 3500 
L 1159 3500 
L 1159 2969 
Q 1341 3281 1617 3432 
Q 1894 3584 2278 3584 
Q 2916 3584 3314 3078 
Q 3713 2572 3713 1747 
Q 3713 922 3314 415 
Q 2916 -91 2278 -91 
Q 1894 -91 1617 61 
Q 1341 213 1159 525 
z
M 3116 1747 
Q 3116 2381 2855 2742 
Q 2594 3103 2138 3103 
Q 1681 3103 1420 2742 
Q 1159 2381 1159 1747 
Q 1159 1113 1420 752 
Q 1681 391 2138 391 
Q 2594 391 2855 752 
Q 3116 1113 3116 1747 
z
" transform="scale(0.015625)"/>
      </defs>
      <use xlink:href="#DejaVuSans-53"/>
      <use xlink:href="#DejaVuSans-74" transform="translate(63.476562 0)"/>
      <use xlink:href="#DejaVuSans-65" transform="translate(102.685547 0)"/>
      <use xlink:href="#DejaVuSans-70" transform="translate(164.208984 0)"/>
     </g>
    </g>
   </g>
   <g id="matplotlib.axis_2">
    <g id="ytick_1">
     <g id="line2d_7">
      <defs>
       <path id="m4c7b3971ae" d="M 0 0 
L -3.5 0 
" style="stroke: #000000; stroke-width: 0.8"/>
      </defs>
      <g>
       <use xlink:href="#m4c7b3971ae" x="51.05" y="359.056206" style="stroke: #000000; stroke-width: 0.8"/>
      </g>
     </g>
     <g id="text_8">
      <!-- 110 -->
      <g transform="translate(24.9625 362.855424) scale(0.1 -0.1)">
       <use xlink:href="#DejaVuSans-31"/>
       <use xlink:href="#DejaVuSans-31" transform="translate(63.623047 0)"/>
       <use xlink:href="#DejaVuSans-30" transform="translate(127.246094 0)"/>
      </g>
     </g>
    </g>
    <g id="ytick_2">
     <g id="line2d_8">
      <g>
       <use xlink:href="#m4c7b3971ae" x="51.05" y="311.019315" style="stroke: #000000; stroke-width: 0.8"/>
      </g>
     </g>
     <g id="text_9">
      <!-- 120 -->
      <g transform="translate(24.9625 314.818534) scale(0.1 -0.1)">
       <use xlink:href="#DejaVuSans-31"/>
       <use xlink:href="#DejaVuSans-32" transform="translate(63.623047 0)"/>
       <use xlink:href="#DejaVuSans-30" transform="translate(127.246094 0)"/>
      </g>
     </g>
    </g>
    <g id="ytick_3">
     <g id="line2d_9">
      <g>
       <use xlink:href="#m4c7b3971ae" x="51.05" y="262.982424" style="stroke: #000000; stroke-width: 0.8"/>
      </g>
     </g>
     <g id="text_10">
      <!-- 130 -->
      <g transform="translate(24.9625 266.781643) scale(0.1 -0.1)">
       <defs>
        <path id="DejaVuSans-33" d="M 2597 2516 
Q 3050 2419 3304 2112 
Q 3559 1806 3559 1356 
Q 3559 666 3084 287 
Q 2609 -91 1734 -91 
Q 1441 -91 1130 -33 
Q 819 25 488 141 
L 488 750 
Q 750 597 1062 519 
Q 1375 441 1716 441 
Q 2309 441 2620 675 
Q 2931 909 2931 1356 
Q 2931 1769 2642 2001 
Q 2353 2234 1838 2234 
L 1294 2234 
L 1294 2753 
L 1863 2753 
Q 2328 2753 2575 2939 
Q 2822 3125 2822 3475 
Q 2822 3834 2567 4026 
Q 2313 4219 1838 4219 
Q 1578 4219 1281 4162 
Q 984 4106 628 3988 
L 628 4550 
Q 988 4650 1302 4700 
Q 1616 4750 1894 4750 
Q 2613 4750 3031 4423 
Q 3450 4097 3450 3541 
Q 3450 3153 3228 2886 
Q 3006 2619 2597 2516 
z
" transform="scale(0.015625)"/>
       </defs>
       <use xlink:href="#DejaVuSans-31"/>
       <use xlink:href="#DejaVuSans-33" transform="translate(63.623047 0)"/>
       <use xlink:href="#DejaVuSans-30" transform="translate(127.246094 0)"/>
      </g>
     </g>
    </g>
    <g id="ytick_4">
     <g id="line2d_10">
      <g>
       <use xlink:href="#m4c7b3971ae" x="51.05" y="214.945534" style="stroke: #000000; stroke-width: 0.8"/>
      </g>
     </g>
     <g id="text_11">
      <!-- 140 -->
      <g transform="translate(24.9625 218.744752) scale(0.1 -0.1)">
       <use xlink:href="#DejaVuSans-31"/>
       <use xlink:href="#DejaVuSans-34" transform="translate(63.623047 0)"/>
       <use xlink:href="#DejaVuSans-30" transform="translate(127.246094 0)"/>
      </g>
     </g>
    </g>
    <g id="ytick_5">
     <g id="line2d_11">
      <g>
       <use xlink:href="#m4c7b3971ae" x="51.05" y="166.908643" style="stroke: #000000; stroke-width: 0.8"/>
      </g>
     </g>
     <g id="text_12">
      <!-- 150 -->
      <g transform="translate(24.9625 170.707862) scale(0.1 -0.1)">
       <defs>
        <path id="DejaVuSans-35" d="M 691 4666 
L 3169 4666 
L 3169 4134 
L 1269 4134 
L 1269 2991 
Q 1406 3038 1543 3061 
Q 1681 3084 1819 3084 
Q 2600 3084 3056 2656 
Q 3513 2228 3513 1497 
Q 3513 744 3044 326 
Q 2575 -91 1722 -91 
Q 1428 -91 1123 -41 
Q 819 9 494 109 
L 494 744 
Q 775 591 1075 516 
Q 1375 441 1709 441 
Q 2250 441 2565 725 
Q 2881 1009 2881 1497 
Q 2881 1984 2565 2268 
Q 2250 2553 1709 2553 
Q 1456 2553 1204 2497 
Q 953 2441 691 2322 
L 691 4666 
z
" transform="scale(0.015625)"/>
       </defs>
       <use xlink:href="#DejaVuSans-31"/>
       <use xlink:href="#DejaVuSans-35" transform="translate(63.623047 0)"/>
       <use xlink:href="#DejaVuSans-30" transform="translate(127.246094 0)"/>
      </g>
     </g>
    </g>
    <g id="ytick_6">
     <g id="line2d_12">
      <g>
       <use xlink:href="#m4c7b3971ae" x="51.05" y="118.871752" style="stroke: #000000; stroke-width: 0.8"/>
      </g>
     </g>
     <g id="text_13">
      <!-- 160 -->
      <g transform="translate(24.9625 122.670971) scale(0.1 -0.1)">
       <use xlink:href="#DejaVuSans-31"/>
       <use xlink:href="#DejaVuSans-36" transform="translate(63.623047 0)"/>
       <use xlink:href="#DejaVuSans-30" transform="translate(127.246094 0)"/>
      </g>
     </g>
    </g>
    <g id="ytick_7">
     <g id="line2d_13">
      <g>
       <use xlink:href="#m4c7b3971ae" x="51.05" y="70.834862" style="stroke: #000000; stroke-width: 0.8"/>
      </g>
     </g>
     <g id="text_14">
      <!-- 170 -->
      <g transform="translate(24.9625 74.63408) scale(0.1 -0.1)">
       <defs>
        <path id="DejaVuSans-37" d="M 525 4666 
L 3525 4666 
L 3525 4397 
L 1831 0 
L 1172 0 
L 2766 4134 
L 525 4134 
L 525 4666 
z
" transform="scale(0.015625)"/>
       </defs>
       <use xlink:href="#DejaVuSans-31"/>
       <use xlink:href="#DejaVuSans-37" transform="translate(63.623047 0)"/>
       <use xlink:href="#DejaVuSans-30" transform="translate(127.246094 0)"/>
      </g>
     </g>
    </g>
    <g id="text_15">
     <!-- charts/SPS -->
     <g transform="translate(18.882812 234.39) rotate(-90) scale(0.1 -0.1)">
      <defs>
       <path id="DejaVuSans-63" d="M 3122 3366 
L 3122 2828 
Q 2878 2963 2633 3030 
Q 2388 3097 2138 3097 
Q 1578 3097 1268 2742 
Q 959 2388 959 1747 
Q 959 1106 1268 751 
Q 1578 397 2138 397 
Q 2388 397 2633 464 
Q 2878 531 3122 666 
L 3122 134 
Q 2881 22 2623 -34 
Q 2366 -91 2075 -91 
Q 1284 -91 818 406 
Q 353 903 353 1747 
Q 353 2603 823 3093 
Q 1294 3584 2113 3584 
Q 2378 3584 2631 3529 
Q 2884 3475 3122 3366 
z
" transform="scale(0.015625)"/>
       <path id="DejaVuSans-68" d="M 3513 2113 
L 3513 0 
L 2938 0 
L 2938 2094 
Q 2938 2591 2744 2837 
Q 2550 3084 2163 3084 
Q 1697 3084 1428 2787 
Q 1159 2491 1159 1978 
L 1159 0 
L 581 0 
L 581 4863 
L 1159 4863 
L 1159 2956 
Q 1366 3272 1645 3428 
Q 1925 3584 2291 3584 
Q 2894 3584 3203 3211 
Q 3513 2838 3513 2113 
z
" transform="scale(0.015625)"/>
       <path id="DejaVuSans-61" d="M 2194 1759 
Q 1497 1759 1228 1600 
Q 959 1441 959 1056 
Q 959 750 1161 570 
Q 1363 391 1709 391 
Q 2188 391 2477 730 
Q 2766 1069 2766 1631 
L 2766 1759 
L 2194 1759 
z
M 3341 1997 
L 3341 0 
L 2766 0 
L 2766 531 
Q 2569 213 2275 61 
Q 1981 -91 1556 -91 
Q 1019 -91 701 211 
Q 384 513 384 1019 
Q 384 1609 779 1909 
Q 1175 2209 1959 2209 
L 2766 2209 
L 2766 2266 
Q 2766 2663 2505 2880 
Q 2244 3097 1772 3097 
Q 1472 3097 1187 3025 
Q 903 2953 641 2809 
L 641 3341 
Q 956 3463 1253 3523 
Q 1550 3584 1831 3584 
Q 2591 3584 2966 3190 
Q 3341 2797 3341 1997 
z
" transform="scale(0.015625)"/>
       <path id="DejaVuSans-72" d="M 2631 2963 
Q 2534 3019 2420 3045 
Q 2306 3072 2169 3072 
Q 1681 3072 1420 2755 
Q 1159 2438 1159 1844 
L 1159 0 
L 581 0 
L 581 3500 
L 1159 3500 
L 1159 2956 
Q 1341 3275 1631 3429 
Q 1922 3584 2338 3584 
Q 2397 3584 2469 3576 
Q 2541 3569 2628 3553 
L 2631 2963 
z
" transform="scale(0.015625)"/>
       <path id="DejaVuSans-73" d="M 2834 3397 
L 2834 2853 
Q 2591 2978 2328 3040 
Q 2066 3103 1784 3103 
Q 1356 3103 1142 2972 
Q 928 2841 928 2578 
Q 928 2378 1081 2264 
Q 1234 2150 1697 2047 
L 1894 2003 
Q 2506 1872 2764 1633 
Q 3022 1394 3022 966 
Q 3022 478 2636 193 
Q 2250 -91 1575 -91 
Q 1294 -91 989 -36 
Q 684 19 347 128 
L 347 722 
Q 666 556 975 473 
Q 1284 391 1588 391 
Q 1994 391 2212 530 
Q 2431 669 2431 922 
Q 2431 1156 2273 1281 
Q 2116 1406 1581 1522 
L 1381 1569 
Q 847 1681 609 1914 
Q 372 2147 372 2553 
Q 372 3047 722 3315 
Q 1072 3584 1716 3584 
Q 2034 3584 2315 3537 
Q 2597 3491 2834 3397 
z
" transform="scale(0.015625)"/>
       <path id="DejaVuSans-2f" d="M 1625 4666 
L 2156 4666 
L 531 -594 
L 0 -594 
L 1625 4666 
z
" transform="scale(0.015625)"/>
       <path id="DejaVuSans-50" d="M 1259 4147 
L 1259 2394 
L 2053 2394 
Q 2494 2394 2734 2622 
Q 2975 2850 2975 3272 
Q 2975 3691 2734 3919 
Q 2494 4147 2053 4147 
L 1259 4147 
z
M 628 4666 
L 2053 4666 
Q 2838 4666 3239 4311 
Q 3641 3956 3641 3272 
Q 3641 2581 3239 2228 
Q 2838 1875 2053 1875 
L 1259 1875 
L 1259 0 
L 628 0 
L 628 4666 
z
" transform="scale(0.015625)"/>
      </defs>
      <use xlink:href="#DejaVuSans-63"/>
      <use xlink:href="#DejaVuSans-68" transform="translate(54.980469 0)"/>
      <use xlink:href="#DejaVuSans-61" transform="translate(118.359375 0)"/>
      <use xlink:href="#DejaVuSans-72" transform="translate(179.638672 0)"/>
      <use xlink:href="#DejaVuSans-74" transform="translate(220.751953 0)"/>
      <use xlink:href="#DejaVuSans-73" transform="translate(259.960938 0)"/>
      <use xlink:href="#DejaVuSans-2f" transform="translate(312.060547 0)"/>
      <use xlink:href="#DejaVuSans-53" transform="translate(345.751953 0)"/>
      <use xlink:href="#DejaVuSans-50" transform="translate(409.228516 0)"/>
      <use xlink:href="#DejaVuSans-53" transform="translate(469.53125 0)"/>
     </g>
    </g>
   </g>
   <g id="line2d_14">
    <path d="M 80.965909 354.852978 
L 82.163743 312.676443 
L 83.361577 277.983885 
L 84.559412 249.61405 
L 85.757246 226.816362 
L 86.95508 207.280187 
L 88.152914 190.907704 
L 89.949666 170.125979 
L 91.1475 159.757806 
L 92.944251 146.785081 
L 94.741002 134.795693 
L 95.938837 128.213461 
L 97.735588 119.254479 
L 98.933422 114.211417 
L 100.131256 110.102105 
L 103.125842 101.675213 
L 104.922593 97.868085 
L 107.318261 94.393645 
L 109.115013 92.461981 
L 110.312847 91.643635 
L 110.911764 91.333186 
L 112.109598 91.186377 
L 112.708515 90.787873 
L 113.307432 90.045561 
L 113.90635 89.599272 
L 114.505267 89.656824 
L 116.302018 90.199733 
L 117.499852 90.24902 
L 119.296603 90.455635 
L 119.895521 90.52055 
L 120.494438 90.909287 
L 121.093355 90.878933 
L 121.692272 91.062708 
L 122.291189 90.986373 
L 122.890106 91.238068 
L 123.489023 91.79916 
L 124.08794 92.182337 
L 124.686857 92.389703 
L 125.884692 93.261093 
L 126.483609 94.301832 
L 127.082526 94.621598 
L 127.681443 95.109359 
L 128.28036 95.773533 
L 129.478194 96.086687 
L 130.676028 96.830651 
L 131.274945 97.183926 
L 131.873862 98.242396 
L 132.47278 99.538737 
L 133.670614 100.857918 
L 134.269531 100.86994 
L 134.868448 101.459732 
L 135.467365 101.608194 
L 137.264116 104.429129 
L 138.461951 105.477232 
L 139.060868 105.651389 
L 139.659785 106.214585 
L 140.857619 106.967114 
L 141.456536 107.679073 
L 142.65437 108.733486 
L 143.253287 109.583989 
L 143.852204 109.841394 
L 144.451122 110.239898 
L 145.050039 110.438549 
L 146.84679 111.871331 
L 147.445707 112.199962 
L 148.044624 112.26668 
L 148.643541 112.720482 
L 149.242458 112.978939 
L 151.03921 114.625248 
L 151.638127 115.089268 
L 152.237044 115.372518 
L 152.835961 115.826621 
L 154.033795 116.4654 
L 155.231629 117.260906 
L 157.627298 118.086915 
L 158.226215 118.445299 
L 158.825132 118.656873 
L 159.424049 119.056429 
L 160.621883 120.394243 
L 161.2208 120.673136 
L 162.418635 120.748569 
L 163.017552 120.970812 
L 164.215386 121.874058 
L 164.814303 121.94288 
L 166.611054 122.579855 
L 167.209971 122.924865 
L 169.006723 123.225096 
L 169.60564 123.280694 
L 171.402391 123.926836 
L 172.600225 124.473351 
L 173.798059 124.964419 
L 174.995894 125.598991 
L 176.193728 126.827862 
L 176.792645 126.863626 
L 177.990479 127.128093 
L 178.589396 127.189702 
L 179.188313 127.428323 
L 179.78723 127.455822 
L 180.985065 127.77694 
L 181.583982 128.028785 
L 182.781816 128.1789 
L 183.380733 128.214062 
L 183.97965 128.495059 
L 184.578567 128.629246 
L 185.177484 128.641868 
L 185.776401 128.779361 
L 186.375319 128.788677 
L 186.974236 128.929476 
L 187.573153 128.941498 
L 188.17207 129.229707 
L 188.770987 129.237821 
L 189.369904 129.685312 
L 189.968821 130.427624 
L 191.166655 130.430629 
L 192.963407 131.313589 
L 193.562324 131.331321 
L 194.760158 131.767842 
L 195.957992 132.064767 
L 196.556909 132.344561 
L 198.952578 132.532243 
L 200.749329 132.832474 
L 201.348246 132.832474 
L 202.54608 132.982589 
L 205.540666 133.089127 
L 206.139583 133.44736 
L 207.337417 133.68463 
L 209.733085 133.828133 
L 210.93092 134.425288 
L 213.925505 135.534549 
L 215.722256 135.612987 
L 216.920091 135.834779 
L 217.519008 135.834779 
L 218.716842 136.285125 
L 219.315759 136.285125 
L 222.909262 137.035702 
L 230.096267 137.636163 
L 234.288686 137.663361 
L 236.684355 138.25721 
L 237.283272 138.386739 
L 239.67894 138.411383 
L 240.277857 138.68697 
L 240.876775 138.695986 
L 241.475692 138.837085 
L 242.074609 138.842795 
L 243.272443 139.137316 
L 243.87136 139.138067 
L 244.470277 139.286529 
L 245.069194 139.287431 
L 245.668111 139.433339 
L 246.267028 139.726056 
L 246.865945 139.737777 
L 248.06378 140.027188 
L 248.662697 140.038007 
L 249.261614 140.173998 
L 249.860531 140.188123 
L 250.459448 140.320807 
L 251.058365 140.600301 
L 252.256199 140.766194 
L 252.855116 140.914656 
L 253.454034 140.938699 
L 254.052951 141.184233 
L 257.047536 141.389045 
L 257.646453 141.389045 
L 258.844287 141.53916 
L 260.641039 141.53916 
L 261.239956 141.847956 
L 261.838873 141.989506 
L 267.828044 142.074256 
L 269.025878 142.302509 
L 269.624795 142.439852 
L 272.619381 142.439852 
L 275.015049 142.890198 
L 276.212883 142.951807 
L 277.410718 143.040313 
L 279.207469 143.093657 
L 280.405303 143.190428 
L 281.603137 143.237161 
L 282.800971 143.340543 
L 284.597723 143.379011 
L 285.795557 143.640774 
L 286.394474 143.674283 
L 287.592308 143.941005 
L 289.38906 143.991494 
L 289.987977 144.241235 
L 291.185811 144.261521 
L 292.383645 144.541466 
L 293.581479 144.55514 
L 294.180396 144.691581 
L 294.779313 144.681213 
L 295.378231 144.558897 
L 295.977148 144.841696 
L 296.576065 144.847106 
L 297.773899 145.141927 
L 298.971733 145.141927 
L 299.57065 145.289187 
L 300.169567 145.292042 
L 300.768484 145.435997 
L 304.960904 145.442157 
L 305.559821 145.703619 
L 307.356572 145.742388 
L 308.554407 145.742388 
L 309.752241 145.892503 
L 313.345743 146.001746 
L 315.142495 146.042619 
L 316.340329 146.143597 
L 318.13708 146.192734 
L 319.933832 146.283795 
L 321.131666 146.342849 
L 327.120837 146.414075 
L 327.719754 146.562537 
L 339.099179 146.831362 
L 340.297013 146.94331 
L 348.681852 146.955031 
L 349.280769 147.093426 
L 350.478604 147.100188 
L 351.077521 147.243541 
L 354.671023 147.243541 
L 355.26994 147.387195 
L 357.066692 147.393656 
L 357.665609 147.530698 
L 367.847199 147.844002 
L 369.045034 147.994117 
L 370.841785 148.094795 
L 372.638536 148.144233 
L 382.22121 148.213505 
L 384.616878 148.444463 
L 394.199552 149.345155 
L 401.985474 149.359881 
L 402.584391 149.49527 
L 412.167065 149.49527 
L 413.963816 149.795501 
L 433.72808 149.872737 
L 434.326997 149.945616 
L 436.123749 149.795501 
L 439.717251 149.856208 
L 440.915086 149.945616 
L 442.11292 149.999712 
L 443.909671 150.245847 
L 448.102091 150.283413 
L 449.299925 150.395962 
L 455.289096 150.413693 
L 455.888013 150.546077 
L 457.684764 150.557197 
L 458.283681 150.696192 
L 459.481516 150.690031 
L 460.080433 150.546077 
L 460.67935 150.548932 
L 461.278267 150.696192 
L 473.855526 150.696192 
L 474.454443 150.811146 
L 475.05336 150.733007 
L 476.850111 150.846308 
L 482.839282 150.93812 
L 484.037117 150.996423 
L 491.823039 150.929404 
L 492.421956 150.846308 
L 494.218707 151.146538 
L 496.614376 151.200333 
L 497.81221 151.296653 
L 499.010044 151.343837 
L 500.207878 151.596884 
L 504.999215 151.627538 
L 506.197049 151.869766 
L 506.795966 151.746999 
L 512.18622 151.757818 
L 512.785137 151.887948 
L 513.384055 151.746999 
L 514.581889 151.751207 
L 515.180806 151.897115 
L 521.169977 151.897115 
L 521.768894 151.762627 
L 522.966728 151.897115 
L 523.565645 151.767586 
L 524.164562 151.874875 
L 524.763479 151.770892 
L 525.362396 151.871569 
L 525.961314 151.774197 
L 527.159148 151.897115 
L 528.356982 151.746999 
L 528.955899 151.746999 
L 530.75265 152.307039 
L 531.351567 152.34746 
L 531.950485 152.134684 
L 532.549402 152.151965 
L 533.747236 152.34746 
L 534.94507 152.197345 
L 545.725578 152.265716 
L 548.121246 152.497576 
L 549.31908 152.556029 
L 550.516915 152.647691 
L 555.907169 152.60742 
L 557.105003 152.497576 
L 558.302837 152.531235 
L 558.901754 152.647691 
L 563.693091 152.497576 
L 570.880096 152.497576 
L 571.479013 152.644986 
L 573.874681 152.647691 
L 575.072516 152.935299 
L 580.46277 152.947922 
L 584.655189 153.058968 
L 585.254106 153.098037 
L 586.451941 153.504355 
L 587.050858 153.548383 
L 587.649775 153.753946 
L 588.248692 154.151999 
L 590.64436 154.693707 
L 592.441112 154.749305 
L 597.831365 154.823987 
L 602.023785 155.412878 
L 603.221619 155.649997 
L 604.419454 155.856612 
L 605.617288 155.950227 
L 606.815122 156.000115 
L 608.611873 156.250458 
L 610.408625 156.290428 
L 611.606459 156.400573 
L 614.002127 156.430626 
L 614.601044 156.550688 
L 616.397796 156.57413 
L 618.793464 157.15115 
L 619.392381 157.181503 
L 619.991298 157.464904 
L 621.189132 157.751611 
L 621.788049 157.768741 
L 622.386967 158.051841 
L 623.584801 158.055448 
L 624.782635 158.352072 
L 625.381552 158.352072 
L 626.579386 158.647644 
L 628.376138 158.652302 
L 628.975055 158.791148 
L 631.96964 158.932998 
L 632.568557 159.081461 
L 636.16206 159.102648 
L 679.284091 159.102648 
L 679.284091 159.102648 
" clip-path="url(#p0689fef1d9)" style="fill: none; stroke: #008000; stroke-width: 1.5; stroke-linecap: square"/>
   </g>
   <g id="patch_3">
    <path d="M 51.05 390.04 
L 51.05 25.44 
" style="fill: none; stroke: #000000; stroke-width: 0.8; stroke-linejoin: miter; stroke-linecap: square"/>
   </g>
   <g id="patch_4">
    <path d="M 709.2 390.04 
L 709.2 25.44 
" style="fill: none; stroke: #000000; stroke-width: 0.8; stroke-linejoin: miter; stroke-linecap: square"/>
   </g>
   <g id="patch_5">
    <path d="M 51.05 390.04 
L 709.2 390.04 
" style="fill: none; stroke: #000000; stroke-width: 0.8; stroke-linejoin: miter; stroke-linecap: square"/>
   </g>
   <g id="patch_6">
    <path d="M 51.05 25.44 
L 709.2 25.44 
" style="fill: none; stroke: #000000; stroke-width: 0.8; stroke-linejoin: miter; stroke-linecap: square"/>
   </g>
   <g id="text_16">
    <!-- charts/SPS for per_atari (aggregated via interpolation over runs) -->
    <g transform="translate(186.630625 19.44) scale(0.12 -0.12)">
     <defs>
      <path id="DejaVuSans-20" transform="scale(0.015625)"/>
      <path id="DejaVuSans-66" d="M 2375 4863 
L 2375 4384 
L 1825 4384 
Q 1516 4384 1395 4259 
Q 1275 4134 1275 3809 
L 1275 3500 
L 2222 3500 
L 2222 3053 
L 1275 3053 
L 1275 0 
L 697 0 
L 697 3053 
L 147 3053 
L 147 3500 
L 697 3500 
L 697 3744 
Q 697 4328 969 4595 
Q 1241 4863 1831 4863 
L 2375 4863 
z
" transform="scale(0.015625)"/>
      <path id="DejaVuSans-6f" d="M 1959 3097 
Q 1497 3097 1228 2736 
Q 959 2375 959 1747 
Q 959 1119 1226 758 
Q 1494 397 1959 397 
Q 2419 397 2687 759 
Q 2956 1122 2956 1747 
Q 2956 2369 2687 2733 
Q 2419 3097 1959 3097 
z
M 1959 3584 
Q 2709 3584 3137 3096 
Q 3566 2609 3566 1747 
Q 3566 888 3137 398 
Q 2709 -91 1959 -91 
Q 1206 -91 779 398 
Q 353 888 353 1747 
Q 353 2609 779 3096 
Q 1206 3584 1959 3584 
z
" transform="scale(0.015625)"/>
      <path id="DejaVuSans-5f" d="M 3263 -1063 
L 3263 -1509 
L -63 -1509 
L -63 -1063 
L 3263 -1063 
z
" transform="scale(0.015625)"/>
      <path id="DejaVuSans-69" d="M 603 3500 
L 1178 3500 
L 1178 0 
L 603 0 
L 603 3500 
z
M 603 4863 
L 1178 4863 
L 1178 4134 
L 603 4134 
L 603 4863 
z
" transform="scale(0.015625)"/>
      <path id="DejaVuSans-28" d="M 1984 4856 
Q 1566 4138 1362 3434 
Q 1159 2731 1159 2009 
Q 1159 1288 1364 580 
Q 1569 -128 1984 -844 
L 1484 -844 
Q 1016 -109 783 600 
Q 550 1309 550 2009 
Q 550 2706 781 3412 
Q 1013 4119 1484 4856 
L 1984 4856 
z
" transform="scale(0.015625)"/>
      <path id="DejaVuSans-67" d="M 2906 1791 
Q 2906 2416 2648 2759 
Q 2391 3103 1925 3103 
Q 1463 3103 1205 2759 
Q 947 2416 947 1791 
Q 947 1169 1205 825 
Q 1463 481 1925 481 
Q 2391 481 2648 825 
Q 2906 1169 2906 1791 
z
M 3481 434 
Q 3481 -459 3084 -895 
Q 2688 -1331 1869 -1331 
Q 1566 -1331 1297 -1286 
Q 1028 -1241 775 -1147 
L 775 -588 
Q 1028 -725 1275 -790 
Q 1522 -856 1778 -856 
Q 2344 -856 2625 -561 
Q 2906 -266 2906 331 
L 2906 616 
Q 2728 306 2450 153 
Q 2172 0 1784 0 
Q 1141 0 747 490 
Q 353 981 353 1791 
Q 353 2603 747 3093 
Q 1141 3584 1784 3584 
Q 2172 3584 2450 3431 
Q 2728 3278 2906 2969 
L 2906 3500 
L 3481 3500 
L 3481 434 
z
" transform="scale(0.015625)"/>
      <path id="DejaVuSans-64" d="M 2906 2969 
L 2906 4863 
L 3481 4863 
L 3481 0 
L 2906 0 
L 2906 525 
Q 2725 213 2448 61 
Q 2172 -91 1784 -91 
Q 1150 -91 751 415 
Q 353 922 353 1747 
Q 353 2572 751 3078 
Q 1150 3584 1784 3584 
Q 2172 3584 2448 3432 
Q 2725 3281 2906 2969 
z
M 947 1747 
Q 947 1113 1208 752 
Q 1469 391 1925 391 
Q 2381 391 2643 752 
Q 2906 1113 2906 1747 
Q 2906 2381 2643 2742 
Q 2381 3103 1925 3103 
Q 1469 3103 1208 2742 
Q 947 2381 947 1747 
z
" transform="scale(0.015625)"/>
      <path id="DejaVuSans-76" d="M 191 3500 
L 800 3500 
L 1894 563 
L 2988 3500 
L 3597 3500 
L 2284 0 
L 1503 0 
L 191 3500 
z
" transform="scale(0.015625)"/>
      <path id="DejaVuSans-6e" d="M 3513 2113 
L 3513 0 
L 2938 0 
L 2938 2094 
Q 2938 2591 2744 2837 
Q 2550 3084 2163 3084 
Q 1697 3084 1428 2787 
Q 1159 2491 1159 1978 
L 1159 0 
L 581 0 
L 581 3500 
L 1159 3500 
L 1159 2956 
Q 1366 3272 1645 3428 
Q 1925 3584 2291 3584 
Q 2894 3584 3203 3211 
Q 3513 2838 3513 2113 
z
" transform="scale(0.015625)"/>
      <path id="DejaVuSans-6c" d="M 603 4863 
L 1178 4863 
L 1178 0 
L 603 0 
L 603 4863 
z
" transform="scale(0.015625)"/>
      <path id="DejaVuSans-75" d="M 544 1381 
L 544 3500 
L 1119 3500 
L 1119 1403 
Q 1119 906 1312 657 
Q 1506 409 1894 409 
Q 2359 409 2629 706 
Q 2900 1003 2900 1516 
L 2900 3500 
L 3475 3500 
L 3475 0 
L 2900 0 
L 2900 538 
Q 2691 219 2414 64 
Q 2138 -91 1772 -91 
Q 1169 -91 856 284 
Q 544 659 544 1381 
z
M 1991 3584 
L 1991 3584 
z
" transform="scale(0.015625)"/>
      <path id="DejaVuSans-29" d="M 513 4856 
L 1013 4856 
Q 1481 4119 1714 3412 
Q 1947 2706 1947 2009 
Q 1947 1309 1714 600 
Q 1481 -109 1013 -844 
L 513 -844 
Q 928 -128 1133 580 
Q 1338 1288 1338 2009 
Q 1338 2731 1133 3434 
Q 928 4138 513 4856 
z
" transform="scale(0.015625)"/>
     </defs>
     <use xlink:href="#DejaVuSans-63"/>
     <use xlink:href="#DejaVuSans-68" transform="translate(54.980469 0)"/>
     <use xlink:href="#DejaVuSans-61" transform="translate(118.359375 0)"/>
     <use xlink:href="#DejaVuSans-72" transform="translate(179.638672 0)"/>
     <use xlink:href="#DejaVuSans-74" transform="translate(220.751953 0)"/>
     <use xlink:href="#DejaVuSans-73" transform="translate(259.960938 0)"/>
     <use xlink:href="#DejaVuSans-2f" transform="translate(312.060547 0)"/>
     <use xlink:href="#DejaVuSans-53" transform="translate(345.751953 0)"/>
     <use xlink:href="#DejaVuSans-50" transform="translate(409.228516 0)"/>
     <use xlink:href="#DejaVuSans-53" transform="translate(469.53125 0)"/>
     <use xlink:href="#DejaVuSans-20" transform="translate(533.007812 0)"/>
     <use xlink:href="#DejaVuSans-66" transform="translate(564.794922 0)"/>
     <use xlink:href="#DejaVuSans-6f" transform="translate(600 0)"/>
     <use xlink:href="#DejaVuSans-72" transform="translate(661.181641 0)"/>
     <use xlink:href="#DejaVuSans-20" transform="translate(702.294922 0)"/>
     <use xlink:href="#DejaVuSans-70" transform="translate(734.082031 0)"/>
     <use xlink:href="#DejaVuSans-65" transform="translate(797.558594 0)"/>
     <use xlink:href="#DejaVuSans-72" transform="translate(859.082031 0)"/>
     <use xlink:href="#DejaVuSans-5f" transform="translate(900.195312 0)"/>
     <use xlink:href="#DejaVuSans-61" transform="translate(950.195312 0)"/>
     <use xlink:href="#DejaVuSans-74" transform="translate(1011.474609 0)"/>
     <use xlink:href="#DejaVuSans-61" transform="translate(1050.683594 0)"/>
     <use xlink:href="#DejaVuSans-72" transform="translate(1111.962891 0)"/>
     <use xlink:href="#DejaVuSans-69" transform="translate(1153.076172 0)"/>
     <use xlink:href="#DejaVuSans-20" transform="translate(1180.859375 0)"/>
     <use xlink:href="#DejaVuSans-28" transform="translate(1212.646484 0)"/>
     <use xlink:href="#DejaVuSans-61" transform="translate(1251.660156 0)"/>
     <use xlink:href="#DejaVuSans-67" transform="translate(1312.939453 0)"/>
     <use xlink:href="#DejaVuSans-67" transform="translate(1376.416016 0)"/>
     <use xlink:href="#DejaVuSans-72" transform="translate(1439.892578 0)"/>
     <use xlink:href="#DejaVuSans-65" transform="translate(1478.755859 0)"/>
     <use xlink:href="#DejaVuSans-67" transform="translate(1540.279297 0)"/>
     <use xlink:href="#DejaVuSans-61" transform="translate(1603.755859 0)"/>
     <use xlink:href="#DejaVuSans-74" transform="translate(1665.035156 0)"/>
     <use xlink:href="#DejaVuSans-65" transform="translate(1704.244141 0)"/>
     <use xlink:href="#DejaVuSans-64" transform="translate(1765.767578 0)"/>
     <use xlink:href="#DejaVuSans-20" transform="translate(1829.244141 0)"/>
     <use xlink:href="#DejaVuSans-76" transform="translate(1861.03125 0)"/>
     <use xlink:href="#DejaVuSans-69" transform="translate(1920.210938 0)"/>
     <use xlink:href="#DejaVuSans-61" transform="translate(1947.994141 0)"/>
     <use xlink:href="#DejaVuSans-20" transform="translate(2009.273438 0)"/>
     <use xlink:href="#DejaVuSans-69" transform="translate(2041.060547 0)"/>
     <use xlink:href="#DejaVuSans-6e" transform="translate(2068.84375 0)"/>
     <use xlink:href="#DejaVuSans-74" transform="translate(2132.222656 0)"/>
     <use xlink:href="#DejaVuSans-65" transform="translate(2171.431641 0)"/>
     <use xlink:href="#DejaVuSans-72" transform="translate(2232.955078 0)"/>
     <use xlink:href="#DejaVuSans-70" transform="translate(2274.068359 0)"/>
     <use xlink:href="#DejaVuSans-6f" transform="translate(2337.544922 0)"/>
     <use xlink:href="#DejaVuSans-6c" transform="translate(2398.726562 0)"/>
     <use xlink:href="#DejaVuSans-61" transform="translate(2426.509766 0)"/>
     <use xlink:href="#DejaVuSans-74" transform="translate(2487.789062 0)"/>
     <use xlink:href="#DejaVuSans-69" transform="translate(2526.998047 0)"/>
     <use xlink:href="#DejaVuSans-6f" transform="translate(2554.78125 0)"/>
     <use xlink:href="#DejaVuSans-6e" transform="translate(2615.962891 0)"/>
     <use xlink:href="#DejaVuSans-20" transform="translate(2679.341797 0)"/>
     <use xlink:href="#DejaVuSans-6f" transform="translate(2711.128906 0)"/>
     <use xlink:href="#DejaVuSans-76" transform="translate(2772.310547 0)"/>
     <use xlink:href="#DejaVuSans-65" transform="translate(2831.490234 0)"/>
     <use xlink:href="#DejaVuSans-72" transform="translate(2893.013672 0)"/>
     <use xlink:href="#DejaVuSans-20" transform="translate(2934.126953 0)"/>
     <use xlink:href="#DejaVuSans-72" transform="translate(2965.914062 0)"/>
     <use xlink:href="#DejaVuSans-75" transform="translate(3007.027344 0)"/>
     <use xlink:href="#DejaVuSans-6e" transform="translate(3070.40625 0)"/>
     <use xlink:href="#DejaVuSans-73" transform="translate(3133.785156 0)"/>
     <use xlink:href="#DejaVuSans-29" transform="translate(3185.884766 0)"/>
    </g>
   </g>
   <g id="legend_1">
    <g id="patch_7">
     <path d="M 626.78125 62.79625 
L 702.2 62.79625 
Q 704.2 62.79625 704.2 60.79625 
L 704.2 32.44 
Q 704.2 30.44 702.2 30.44 
L 626.78125 30.44 
Q 624.78125 30.44 624.78125 32.44 
L 624.78125 60.79625 
Q 624.78125 62.79625 626.78125 62.79625 
z
" style="fill: #ffffff; opacity: 0.8; stroke: #cccccc; stroke-linejoin: miter"/>
    </g>
    <g id="line2d_15">
     <path d="M 628.78125 38.538437 
L 638.78125 38.538437 
L 648.78125 38.538437 
" style="fill: none; stroke: #008000; stroke-width: 1.5; stroke-linecap: square"/>
    </g>
    <g id="text_17">
     <!-- Mean -->
     <g transform="translate(656.78125 42.038437) scale(0.1 -0.1)">
      <defs>
       <path id="DejaVuSans-4d" d="M 628 4666 
L 1569 4666 
L 2759 1491 
L 3956 4666 
L 4897 4666 
L 4897 0 
L 4281 0 
L 4281 4097 
L 3078 897 
L 2444 897 
L 1241 4097 
L 1241 0 
L 628 0 
L 628 4666 
z
" transform="scale(0.015625)"/>
      </defs>
      <use xlink:href="#DejaVuSans-4d"/>
      <use xlink:href="#DejaVuSans-65" transform="translate(86.279297 0)"/>
      <use xlink:href="#DejaVuSans-61" transform="translate(147.802734 0)"/>
      <use xlink:href="#DejaVuSans-6e" transform="translate(209.082031 0)"/>
     </g>
    </g>
    <g id="patch_8">
     <path d="M 628.78125 56.716563 
L 648.78125 56.716563 
L 648.78125 49.716563 
L 628.78125 49.716563 
z
" style="fill: #008000; fill-opacity: 0.3; stroke: #008000; stroke-opacity: 0.3; stroke-linejoin: miter"/>
    </g>
    <g id="text_18">
     <!-- MinMax -->
     <g transform="translate(656.78125 56.716563) scale(0.1 -0.1)">
      <defs>
       <path id="DejaVuSans-2013" d="M 313 1978 
L 2888 1978 
L 2888 1528 
L 313 1528 
L 313 1978 
z
" transform="scale(0.015625)"/>
       <path id="DejaVuSans-78" d="M 3513 3500 
L 2247 1797 
L 3578 0 
L 2900 0 
L 1881 1375 
L 863 0 
L 184 0 
L 1544 1831 
L 300 3500 
L 978 3500 
L 1906 2253 
L 2834 3500 
L 3513 3500 
z
" transform="scale(0.015625)"/>
      </defs>
      <use xlink:href="#DejaVuSans-4d"/>
      <use xlink:href="#DejaVuSans-69" transform="translate(86.279297 0)"/>
      <use xlink:href="#DejaVuSans-6e" transform="translate(114.0625 0)"/>
      <use xlink:href="#DejaVuSans-2013" transform="translate(177.441406 0)"/>
      <use xlink:href="#DejaVuSans-4d" transform="translate(227.441406 0)"/>
      <use xlink:href="#DejaVuSans-61" transform="translate(313.720703 0)"/>
      <use xlink:href="#DejaVuSans-78" transform="translate(375 0)"/>
     </g>
    </g>
   </g>
  </g>
 </g>
 <defs>
  <clipPath id="p0689fef1d9">
   <rect x="51.05" y="25.44" width="658.15" height="364.6"/>
  </clipPath>
 </defs>
</svg>
