<?xml version="1.0" encoding="utf-8" standalone="no"?>
<!DOCTYPE svg PUBLIC "-//W3C//DTD SVG 1.1//EN"
  "http://www.w3.org/Graphics/SVG/1.1/DTD/svg11.dtd">
<svg xmlns:xlink="http://www.w3.org/1999/xlink" width="720pt" height="432pt" viewBox="0 0 720 432" xmlns="http://www.w3.org/2000/svg" version="1.1">
 <metadata>
  <rdf:RDF xmlns:dc="http://purl.org/dc/elements/1.1/" xmlns:cc="http://creativecommons.org/ns#" xmlns:rdf="http://www.w3.org/1999/02/22-rdf-syntax-ns#">
   <cc:Work>
    <dc:type rdf:resource="http://purl.org/dc/dcmitype/StillImage"/>
    <dc:date>2025-02-05T21:31:56.353076</dc:date>
    <dc:format>image/svg+xml</dc:format>
    <dc:creator>
     <cc:Agent>
      <dc:title>Matplotlib v3.10.0, https://matplotlib.org/</dc:title>
     </cc:Agent>
    </dc:creator>
   </cc:Work>
  </rdf:RDF>
 </metadata>
 <defs>
  <style type="text/css">*{stroke-linejoin: round; stroke-linecap: butt}</style>
 </defs>
 <g id="figure_1">
  <g id="patch_1">
   <path d="M 0 432 
L 720 432 
L 720 0 
L 0 0 
z
" style="fill: #ffffff"/>
  </g>
  <g id="axes_1">
   <g id="patch_2">
    <path d="M 46.64 390.04 
L 709.2 390.04 
L 709.2 25.44 
L 46.64 25.44 
z
" style="fill: #ffffff"/>
   </g>
   <g id="matplotlib.axis_1">
    <g id="xtick_1">
     <g id="line2d_1">
      <defs>
       <path id="me67f2c90c3" d="M 0 0 
L 0 3.5 
" style="stroke: #000000; stroke-width: 0.8"/>
      </defs>
      <g>
       <use xlink:href="#me67f2c90c3" x="75.917728" y="390.04" style="stroke: #000000; stroke-width: 0.8"/>
      </g>
     </g>
     <g id="text_1">
      <!-- 0 -->
      <g transform="translate(72.736478 404.638438) scale(0.1 -0.1)">
       <defs>
        <path id="DejaVuSans-30" d="M 2034 4250 
Q 1547 4250 1301 3770 
Q 1056 3291 1056 2328 
Q 1056 1369 1301 889 
Q 1547 409 2034 409 
Q 2525 409 2770 889 
Q 3016 1369 3016 2328 
Q 3016 3291 2770 3770 
Q 2525 4250 2034 4250 
z
M 2034 4750 
Q 2819 4750 3233 4129 
Q 3647 3509 3647 2328 
Q 3647 1150 3233 529 
Q 2819 -91 2034 -91 
Q 1250 -91 836 529 
Q 422 1150 422 2328 
Q 422 3509 836 4129 
Q 1250 4750 2034 4750 
z
" transform="scale(0.015625)"/>
       </defs>
       <use xlink:href="#DejaVuSans-30"/>
      </g>
     </g>
    </g>
    <g id="xtick_2">
     <g id="line2d_2">
      <g>
       <use xlink:href="#me67f2c90c3" x="196.584697" y="390.04" style="stroke: #000000; stroke-width: 0.8"/>
      </g>
     </g>
     <g id="text_2">
      <!-- 20000 -->
      <g transform="translate(180.678447 404.638438) scale(0.1 -0.1)">
       <defs>
        <path id="DejaVuSans-32" d="M 1228 531 
L 3431 531 
L 3431 0 
L 469 0 
L 469 531 
Q 828 903 1448 1529 
Q 2069 2156 2228 2338 
Q 2531 2678 2651 2914 
Q 2772 3150 2772 3378 
Q 2772 3750 2511 3984 
Q 2250 4219 1831 4219 
Q 1534 4219 1204 4116 
Q 875 4013 500 3803 
L 500 4441 
Q 881 4594 1212 4672 
Q 1544 4750 1819 4750 
Q 2544 4750 2975 4387 
Q 3406 4025 3406 3419 
Q 3406 3131 3298 2873 
Q 3191 2616 2906 2266 
Q 2828 2175 2409 1742 
Q 1991 1309 1228 531 
z
" transform="scale(0.015625)"/>
       </defs>
       <use xlink:href="#DejaVuSans-32"/>
       <use xlink:href="#DejaVuSans-30" transform="translate(63.623047 0)"/>
       <use xlink:href="#DejaVuSans-30" transform="translate(127.246094 0)"/>
       <use xlink:href="#DejaVuSans-30" transform="translate(190.869141 0)"/>
       <use xlink:href="#DejaVuSans-30" transform="translate(254.492188 0)"/>
      </g>
     </g>
    </g>
    <g id="xtick_3">
     <g id="line2d_3">
      <g>
       <use xlink:href="#me67f2c90c3" x="317.251665" y="390.04" style="stroke: #000000; stroke-width: 0.8"/>
      </g>
     </g>
     <g id="text_3">
      <!-- 40000 -->
      <g transform="translate(301.345415 404.638438) scale(0.1 -0.1)">
       <defs>
        <path id="DejaVuSans-34" d="M 2419 4116 
L 825 1625 
L 2419 1625 
L 2419 4116 
z
M 2253 4666 
L 3047 4666 
L 3047 1625 
L 3713 1625 
L 3713 1100 
L 3047 1100 
L 3047 0 
L 2419 0 
L 2419 1100 
L 313 1100 
L 313 1709 
L 2253 4666 
z
" transform="scale(0.015625)"/>
       </defs>
       <use xlink:href="#DejaVuSans-34"/>
       <use xlink:href="#DejaVuSans-30" transform="translate(63.623047 0)"/>
       <use xlink:href="#DejaVuSans-30" transform="translate(127.246094 0)"/>
       <use xlink:href="#DejaVuSans-30" transform="translate(190.869141 0)"/>
       <use xlink:href="#DejaVuSans-30" transform="translate(254.492188 0)"/>
      </g>
     </g>
    </g>
    <g id="xtick_4">
     <g id="line2d_4">
      <g>
       <use xlink:href="#me67f2c90c3" x="437.918633" y="390.04" style="stroke: #000000; stroke-width: 0.8"/>
      </g>
     </g>
     <g id="text_4">
      <!-- 60000 -->
      <g transform="translate(422.012383 404.638438) scale(0.1 -0.1)">
       <defs>
        <path id="DejaVuSans-36" d="M 2113 2584 
Q 1688 2584 1439 2293 
Q 1191 2003 1191 1497 
Q 1191 994 1439 701 
Q 1688 409 2113 409 
Q 2538 409 2786 701 
Q 3034 994 3034 1497 
Q 3034 2003 2786 2293 
Q 2538 2584 2113 2584 
z
M 3366 4563 
L 3366 3988 
Q 3128 4100 2886 4159 
Q 2644 4219 2406 4219 
Q 1781 4219 1451 3797 
Q 1122 3375 1075 2522 
Q 1259 2794 1537 2939 
Q 1816 3084 2150 3084 
Q 2853 3084 3261 2657 
Q 3669 2231 3669 1497 
Q 3669 778 3244 343 
Q 2819 -91 2113 -91 
Q 1303 -91 875 529 
Q 447 1150 447 2328 
Q 447 3434 972 4092 
Q 1497 4750 2381 4750 
Q 2619 4750 2861 4703 
Q 3103 4656 3366 4563 
z
" transform="scale(0.015625)"/>
       </defs>
       <use xlink:href="#DejaVuSans-36"/>
       <use xlink:href="#DejaVuSans-30" transform="translate(63.623047 0)"/>
       <use xlink:href="#DejaVuSans-30" transform="translate(127.246094 0)"/>
       <use xlink:href="#DejaVuSans-30" transform="translate(190.869141 0)"/>
       <use xlink:href="#DejaVuSans-30" transform="translate(254.492188 0)"/>
      </g>
     </g>
    </g>
    <g id="xtick_5">
     <g id="line2d_5">
      <g>
       <use xlink:href="#me67f2c90c3" x="558.585602" y="390.04" style="stroke: #000000; stroke-width: 0.8"/>
      </g>
     </g>
     <g id="text_5">
      <!-- 80000 -->
      <g transform="translate(542.679352 404.638438) scale(0.1 -0.1)">
       <defs>
        <path id="DejaVuSans-38" d="M 2034 2216 
Q 1584 2216 1326 1975 
Q 1069 1734 1069 1313 
Q 1069 891 1326 650 
Q 1584 409 2034 409 
Q 2484 409 2743 651 
Q 3003 894 3003 1313 
Q 3003 1734 2745 1975 
Q 2488 2216 2034 2216 
z
M 1403 2484 
Q 997 2584 770 2862 
Q 544 3141 544 3541 
Q 544 4100 942 4425 
Q 1341 4750 2034 4750 
Q 2731 4750 3128 4425 
Q 3525 4100 3525 3541 
Q 3525 3141 3298 2862 
Q 3072 2584 2669 2484 
Q 3125 2378 3379 2068 
Q 3634 1759 3634 1313 
Q 3634 634 3220 271 
Q 2806 -91 2034 -91 
Q 1263 -91 848 271 
Q 434 634 434 1313 
Q 434 1759 690 2068 
Q 947 2378 1403 2484 
z
M 1172 3481 
Q 1172 3119 1398 2916 
Q 1625 2713 2034 2713 
Q 2441 2713 2670 2916 
Q 2900 3119 2900 3481 
Q 2900 3844 2670 4047 
Q 2441 4250 2034 4250 
Q 1625 4250 1398 4047 
Q 1172 3844 1172 3481 
z
" transform="scale(0.015625)"/>
       </defs>
       <use xlink:href="#DejaVuSans-38"/>
       <use xlink:href="#DejaVuSans-30" transform="translate(63.623047 0)"/>
       <use xlink:href="#DejaVuSans-30" transform="translate(127.246094 0)"/>
       <use xlink:href="#DejaVuSans-30" transform="translate(190.869141 0)"/>
       <use xlink:href="#DejaVuSans-30" transform="translate(254.492188 0)"/>
      </g>
     </g>
    </g>
    <g id="xtick_6">
     <g id="line2d_6">
      <g>
       <use xlink:href="#me67f2c90c3" x="679.25257" y="390.04" style="stroke: #000000; stroke-width: 0.8"/>
      </g>
     </g>
     <g id="text_6">
      <!-- 100000 -->
      <g transform="translate(660.16507 404.638438) scale(0.1 -0.1)">
       <defs>
        <path id="DejaVuSans-31" d="M 794 531 
L 1825 531 
L 1825 4091 
L 703 3866 
L 703 4441 
L 1819 4666 
L 2450 4666 
L 2450 531 
L 3481 531 
L 3481 0 
L 794 0 
L 794 531 
z
" transform="scale(0.015625)"/>
       </defs>
       <use xlink:href="#DejaVuSans-31"/>
       <use xlink:href="#DejaVuSans-30" transform="translate(63.623047 0)"/>
       <use xlink:href="#DejaVuSans-30" transform="translate(127.246094 0)"/>
       <use xlink:href="#DejaVuSans-30" transform="translate(190.869141 0)"/>
       <use xlink:href="#DejaVuSans-30" transform="translate(254.492188 0)"/>
       <use xlink:href="#DejaVuSans-30" transform="translate(318.115234 0)"/>
      </g>
     </g>
    </g>
    <g id="text_7">
     <!-- Step -->
     <g transform="translate(366.534844 418.316562) scale(0.1 -0.1)">
      <defs>
       <path id="DejaVuSans-53" d="M 3425 4513 
L 3425 3897 
Q 3066 4069 2747 4153 
Q 2428 4238 2131 4238 
Q 1616 4238 1336 4038 
Q 1056 3838 1056 3469 
Q 1056 3159 1242 3001 
Q 1428 2844 1947 2747 
L 2328 2669 
Q 3034 2534 3370 2195 
Q 3706 1856 3706 1288 
Q 3706 609 3251 259 
Q 2797 -91 1919 -91 
Q 1588 -91 1214 -16 
Q 841 59 441 206 
L 441 856 
Q 825 641 1194 531 
Q 1563 422 1919 422 
Q 2459 422 2753 634 
Q 3047 847 3047 1241 
Q 3047 1584 2836 1778 
Q 2625 1972 2144 2069 
L 1759 2144 
Q 1053 2284 737 2584 
Q 422 2884 422 3419 
Q 422 4038 858 4394 
Q 1294 4750 2059 4750 
Q 2388 4750 2728 4690 
Q 3069 4631 3425 4513 
z
" transform="scale(0.015625)"/>
       <path id="DejaVuSans-74" d="M 1172 4494 
L 1172 3500 
L 2356 3500 
L 2356 3053 
L 1172 3053 
L 1172 1153 
Q 1172 725 1289 603 
Q 1406 481 1766 481 
L 2356 481 
L 2356 0 
L 1766 0 
Q 1100 0 847 248 
Q 594 497 594 1153 
L 594 3053 
L 172 3053 
L 172 3500 
L 594 3500 
L 594 4494 
L 1172 4494 
z
" transform="scale(0.015625)"/>
       <path id="DejaVuSans-65" d="M 3597 1894 
L 3597 1613 
L 953 1613 
Q 991 1019 1311 708 
Q 1631 397 2203 397 
Q 2534 397 2845 478 
Q 3156 559 3463 722 
L 3463 178 
Q 3153 47 2828 -22 
Q 2503 -91 2169 -91 
Q 1331 -91 842 396 
Q 353 884 353 1716 
Q 353 2575 817 3079 
Q 1281 3584 2069 3584 
Q 2775 3584 3186 3129 
Q 3597 2675 3597 1894 
z
M 3022 2063 
Q 3016 2534 2758 2815 
Q 2500 3097 2075 3097 
Q 1594 3097 1305 2825 
Q 1016 2553 972 2059 
L 3022 2063 
z
" transform="scale(0.015625)"/>
       <path id="DejaVuSans-70" d="M 1159 525 
L 1159 -1331 
L 581 -1331 
L 581 3500 
L 1159 3500 
L 1159 2969 
Q 1341 3281 1617 3432 
Q 1894 3584 2278 3584 
Q 2916 3584 3314 3078 
Q 3713 2572 3713 1747 
Q 3713 922 3314 415 
Q 2916 -91 2278 -91 
Q 1894 -91 1617 61 
Q 1341 213 1159 525 
z
M 3116 1747 
Q 3116 2381 2855 2742 
Q 2594 3103 2138 3103 
Q 1681 3103 1420 2742 
Q 1159 2381 1159 1747 
Q 1159 1113 1420 752 
Q 1681 391 2138 391 
Q 2594 391 2855 752 
Q 3116 1113 3116 1747 
z
" transform="scale(0.015625)"/>
      </defs>
      <use xlink:href="#DejaVuSans-53"/>
      <use xlink:href="#DejaVuSans-74" transform="translate(63.476562 0)"/>
      <use xlink:href="#DejaVuSans-65" transform="translate(102.685547 0)"/>
      <use xlink:href="#DejaVuSans-70" transform="translate(164.208984 0)"/>
     </g>
    </g>
   </g>
   <g id="matplotlib.axis_2">
    <g id="ytick_1">
     <g id="line2d_7">
      <defs>
       <path id="m5a53bc4632" d="M 0 0 
L -3.5 0 
" style="stroke: #000000; stroke-width: 0.8"/>
      </defs>
      <g>
       <use xlink:href="#m5a53bc4632" x="46.64" y="335.188969" style="stroke: #000000; stroke-width: 0.8"/>
      </g>
     </g>
     <g id="text_8">
      <!-- −8 -->
      <g transform="translate(24.897813 338.988188) scale(0.1 -0.1)">
       <defs>
        <path id="DejaVuSans-2212" d="M 678 2272 
L 4684 2272 
L 4684 1741 
L 678 1741 
L 678 2272 
z
" transform="scale(0.015625)"/>
       </defs>
       <use xlink:href="#DejaVuSans-2212"/>
       <use xlink:href="#DejaVuSans-38" transform="translate(83.789062 0)"/>
      </g>
     </g>
    </g>
    <g id="ytick_2">
     <g id="line2d_8">
      <g>
       <use xlink:href="#m5a53bc4632" x="46.64" y="266.781179" style="stroke: #000000; stroke-width: 0.8"/>
      </g>
     </g>
     <g id="text_9">
      <!-- −6 -->
      <g transform="translate(24.897813 270.580398) scale(0.1 -0.1)">
       <use xlink:href="#DejaVuSans-2212"/>
       <use xlink:href="#DejaVuSans-36" transform="translate(83.789062 0)"/>
      </g>
     </g>
    </g>
    <g id="ytick_3">
     <g id="line2d_9">
      <g>
       <use xlink:href="#m5a53bc4632" x="46.64" y="198.37339" style="stroke: #000000; stroke-width: 0.8"/>
      </g>
     </g>
     <g id="text_10">
      <!-- −4 -->
      <g transform="translate(24.897813 202.172608) scale(0.1 -0.1)">
       <use xlink:href="#DejaVuSans-2212"/>
       <use xlink:href="#DejaVuSans-34" transform="translate(83.789062 0)"/>
      </g>
     </g>
    </g>
    <g id="ytick_4">
     <g id="line2d_10">
      <g>
       <use xlink:href="#m5a53bc4632" x="46.64" y="129.9656" style="stroke: #000000; stroke-width: 0.8"/>
      </g>
     </g>
     <g id="text_11">
      <!-- −2 -->
      <g transform="translate(24.897813 133.764819) scale(0.1 -0.1)">
       <use xlink:href="#DejaVuSans-2212"/>
       <use xlink:href="#DejaVuSans-32" transform="translate(83.789062 0)"/>
      </g>
     </g>
    </g>
    <g id="ytick_5">
     <g id="line2d_11">
      <g>
       <use xlink:href="#m5a53bc4632" x="46.64" y="61.55781" style="stroke: #000000; stroke-width: 0.8"/>
      </g>
     </g>
     <g id="text_12">
      <!-- 0 -->
      <g transform="translate(33.2775 65.357029) scale(0.1 -0.1)">
       <use xlink:href="#DejaVuSans-30"/>
      </g>
     </g>
    </g>
    <g id="text_13">
     <!-- Normalized (human) Episodic Return -->
     <g transform="translate(18.818125 299.495469) rotate(-90) scale(0.1 -0.1)">
      <defs>
       <path id="DejaVuSans-4e" d="M 628 4666 
L 1478 4666 
L 3547 763 
L 3547 4666 
L 4159 4666 
L 4159 0 
L 3309 0 
L 1241 3903 
L 1241 0 
L 628 0 
L 628 4666 
z
" transform="scale(0.015625)"/>
       <path id="DejaVuSans-6f" d="M 1959 3097 
Q 1497 3097 1228 2736 
Q 959 2375 959 1747 
Q 959 1119 1226 758 
Q 1494 397 1959 397 
Q 2419 397 2687 759 
Q 2956 1122 2956 1747 
Q 2956 2369 2687 2733 
Q 2419 3097 1959 3097 
z
M 1959 3584 
Q 2709 3584 3137 3096 
Q 3566 2609 3566 1747 
Q 3566 888 3137 398 
Q 2709 -91 1959 -91 
Q 1206 -91 779 398 
Q 353 888 353 1747 
Q 353 2609 779 3096 
Q 1206 3584 1959 3584 
z
" transform="scale(0.015625)"/>
       <path id="DejaVuSans-72" d="M 2631 2963 
Q 2534 3019 2420 3045 
Q 2306 3072 2169 3072 
Q 1681 3072 1420 2755 
Q 1159 2438 1159 1844 
L 1159 0 
L 581 0 
L 581 3500 
L 1159 3500 
L 1159 2956 
Q 1341 3275 1631 3429 
Q 1922 3584 2338 3584 
Q 2397 3584 2469 3576 
Q 2541 3569 2628 3553 
L 2631 2963 
z
" transform="scale(0.015625)"/>
       <path id="DejaVuSans-6d" d="M 3328 2828 
Q 3544 3216 3844 3400 
Q 4144 3584 4550 3584 
Q 5097 3584 5394 3201 
Q 5691 2819 5691 2113 
L 5691 0 
L 5113 0 
L 5113 2094 
Q 5113 2597 4934 2840 
Q 4756 3084 4391 3084 
Q 3944 3084 3684 2787 
Q 3425 2491 3425 1978 
L 3425 0 
L 2847 0 
L 2847 2094 
Q 2847 2600 2669 2842 
Q 2491 3084 2119 3084 
Q 1678 3084 1418 2786 
Q 1159 2488 1159 1978 
L 1159 0 
L 581 0 
L 581 3500 
L 1159 3500 
L 1159 2956 
Q 1356 3278 1631 3431 
Q 1906 3584 2284 3584 
Q 2666 3584 2933 3390 
Q 3200 3197 3328 2828 
z
" transform="scale(0.015625)"/>
       <path id="DejaVuSans-61" d="M 2194 1759 
Q 1497 1759 1228 1600 
Q 959 1441 959 1056 
Q 959 750 1161 570 
Q 1363 391 1709 391 
Q 2188 391 2477 730 
Q 2766 1069 2766 1631 
L 2766 1759 
L 2194 1759 
z
M 3341 1997 
L 3341 0 
L 2766 0 
L 2766 531 
Q 2569 213 2275 61 
Q 1981 -91 1556 -91 
Q 1019 -91 701 211 
Q 384 513 384 1019 
Q 384 1609 779 1909 
Q 1175 2209 1959 2209 
L 2766 2209 
L 2766 2266 
Q 2766 2663 2505 2880 
Q 2244 3097 1772 3097 
Q 1472 3097 1187 3025 
Q 903 2953 641 2809 
L 641 3341 
Q 956 3463 1253 3523 
Q 1550 3584 1831 3584 
Q 2591 3584 2966 3190 
Q 3341 2797 3341 1997 
z
" transform="scale(0.015625)"/>
       <path id="DejaVuSans-6c" d="M 603 4863 
L 1178 4863 
L 1178 0 
L 603 0 
L 603 4863 
z
" transform="scale(0.015625)"/>
       <path id="DejaVuSans-69" d="M 603 3500 
L 1178 3500 
L 1178 0 
L 603 0 
L 603 3500 
z
M 603 4863 
L 1178 4863 
L 1178 4134 
L 603 4134 
L 603 4863 
z
" transform="scale(0.015625)"/>
       <path id="DejaVuSans-7a" d="M 353 3500 
L 3084 3500 
L 3084 2975 
L 922 459 
L 3084 459 
L 3084 0 
L 275 0 
L 275 525 
L 2438 3041 
L 353 3041 
L 353 3500 
z
" transform="scale(0.015625)"/>
       <path id="DejaVuSans-64" d="M 2906 2969 
L 2906 4863 
L 3481 4863 
L 3481 0 
L 2906 0 
L 2906 525 
Q 2725 213 2448 61 
Q 2172 -91 1784 -91 
Q 1150 -91 751 415 
Q 353 922 353 1747 
Q 353 2572 751 3078 
Q 1150 3584 1784 3584 
Q 2172 3584 2448 3432 
Q 2725 3281 2906 2969 
z
M 947 1747 
Q 947 1113 1208 752 
Q 1469 391 1925 391 
Q 2381 391 2643 752 
Q 2906 1113 2906 1747 
Q 2906 2381 2643 2742 
Q 2381 3103 1925 3103 
Q 1469 3103 1208 2742 
Q 947 2381 947 1747 
z
" transform="scale(0.015625)"/>
       <path id="DejaVuSans-20" transform="scale(0.015625)"/>
       <path id="DejaVuSans-28" d="M 1984 4856 
Q 1566 4138 1362 3434 
Q 1159 2731 1159 2009 
Q 1159 1288 1364 580 
Q 1569 -128 1984 -844 
L 1484 -844 
Q 1016 -109 783 600 
Q 550 1309 550 2009 
Q 550 2706 781 3412 
Q 1013 4119 1484 4856 
L 1984 4856 
z
" transform="scale(0.015625)"/>
       <path id="DejaVuSans-68" d="M 3513 2113 
L 3513 0 
L 2938 0 
L 2938 2094 
Q 2938 2591 2744 2837 
Q 2550 3084 2163 3084 
Q 1697 3084 1428 2787 
Q 1159 2491 1159 1978 
L 1159 0 
L 581 0 
L 581 4863 
L 1159 4863 
L 1159 2956 
Q 1366 3272 1645 3428 
Q 1925 3584 2291 3584 
Q 2894 3584 3203 3211 
Q 3513 2838 3513 2113 
z
" transform="scale(0.015625)"/>
       <path id="DejaVuSans-75" d="M 544 1381 
L 544 3500 
L 1119 3500 
L 1119 1403 
Q 1119 906 1312 657 
Q 1506 409 1894 409 
Q 2359 409 2629 706 
Q 2900 1003 2900 1516 
L 2900 3500 
L 3475 3500 
L 3475 0 
L 2900 0 
L 2900 538 
Q 2691 219 2414 64 
Q 2138 -91 1772 -91 
Q 1169 -91 856 284 
Q 544 659 544 1381 
z
M 1991 3584 
L 1991 3584 
z
" transform="scale(0.015625)"/>
       <path id="DejaVuSans-6e" d="M 3513 2113 
L 3513 0 
L 2938 0 
L 2938 2094 
Q 2938 2591 2744 2837 
Q 2550 3084 2163 3084 
Q 1697 3084 1428 2787 
Q 1159 2491 1159 1978 
L 1159 0 
L 581 0 
L 581 3500 
L 1159 3500 
L 1159 2956 
Q 1366 3272 1645 3428 
Q 1925 3584 2291 3584 
Q 2894 3584 3203 3211 
Q 3513 2838 3513 2113 
z
" transform="scale(0.015625)"/>
       <path id="DejaVuSans-29" d="M 513 4856 
L 1013 4856 
Q 1481 4119 1714 3412 
Q 1947 2706 1947 2009 
Q 1947 1309 1714 600 
Q 1481 -109 1013 -844 
L 513 -844 
Q 928 -128 1133 580 
Q 1338 1288 1338 2009 
Q 1338 2731 1133 3434 
Q 928 4138 513 4856 
z
" transform="scale(0.015625)"/>
       <path id="DejaVuSans-45" d="M 628 4666 
L 3578 4666 
L 3578 4134 
L 1259 4134 
L 1259 2753 
L 3481 2753 
L 3481 2222 
L 1259 2222 
L 1259 531 
L 3634 531 
L 3634 0 
L 628 0 
L 628 4666 
z
" transform="scale(0.015625)"/>
       <path id="DejaVuSans-73" d="M 2834 3397 
L 2834 2853 
Q 2591 2978 2328 3040 
Q 2066 3103 1784 3103 
Q 1356 3103 1142 2972 
Q 928 2841 928 2578 
Q 928 2378 1081 2264 
Q 1234 2150 1697 2047 
L 1894 2003 
Q 2506 1872 2764 1633 
Q 3022 1394 3022 966 
Q 3022 478 2636 193 
Q 2250 -91 1575 -91 
Q 1294 -91 989 -36 
Q 684 19 347 128 
L 347 722 
Q 666 556 975 473 
Q 1284 391 1588 391 
Q 1994 391 2212 530 
Q 2431 669 2431 922 
Q 2431 1156 2273 1281 
Q 2116 1406 1581 1522 
L 1381 1569 
Q 847 1681 609 1914 
Q 372 2147 372 2553 
Q 372 3047 722 3315 
Q 1072 3584 1716 3584 
Q 2034 3584 2315 3537 
Q 2597 3491 2834 3397 
z
" transform="scale(0.015625)"/>
       <path id="DejaVuSans-63" d="M 3122 3366 
L 3122 2828 
Q 2878 2963 2633 3030 
Q 2388 3097 2138 3097 
Q 1578 3097 1268 2742 
Q 959 2388 959 1747 
Q 959 1106 1268 751 
Q 1578 397 2138 397 
Q 2388 397 2633 464 
Q 2878 531 3122 666 
L 3122 134 
Q 2881 22 2623 -34 
Q 2366 -91 2075 -91 
Q 1284 -91 818 406 
Q 353 903 353 1747 
Q 353 2603 823 3093 
Q 1294 3584 2113 3584 
Q 2378 3584 2631 3529 
Q 2884 3475 3122 3366 
z
" transform="scale(0.015625)"/>
       <path id="DejaVuSans-52" d="M 2841 2188 
Q 3044 2119 3236 1894 
Q 3428 1669 3622 1275 
L 4263 0 
L 3584 0 
L 2988 1197 
Q 2756 1666 2539 1819 
Q 2322 1972 1947 1972 
L 1259 1972 
L 1259 0 
L 628 0 
L 628 4666 
L 2053 4666 
Q 2853 4666 3247 4331 
Q 3641 3997 3641 3322 
Q 3641 2881 3436 2590 
Q 3231 2300 2841 2188 
z
M 1259 4147 
L 1259 2491 
L 2053 2491 
Q 2509 2491 2742 2702 
Q 2975 2913 2975 3322 
Q 2975 3731 2742 3939 
Q 2509 4147 2053 4147 
L 1259 4147 
z
" transform="scale(0.015625)"/>
      </defs>
      <use xlink:href="#DejaVuSans-4e"/>
      <use xlink:href="#DejaVuSans-6f" transform="translate(74.804688 0)"/>
      <use xlink:href="#DejaVuSans-72" transform="translate(135.986328 0)"/>
      <use xlink:href="#DejaVuSans-6d" transform="translate(175.349609 0)"/>
      <use xlink:href="#DejaVuSans-61" transform="translate(272.761719 0)"/>
      <use xlink:href="#DejaVuSans-6c" transform="translate(334.041016 0)"/>
      <use xlink:href="#DejaVuSans-69" transform="translate(361.824219 0)"/>
      <use xlink:href="#DejaVuSans-7a" transform="translate(389.607422 0)"/>
      <use xlink:href="#DejaVuSans-65" transform="translate(442.097656 0)"/>
      <use xlink:href="#DejaVuSans-64" transform="translate(503.621094 0)"/>
      <use xlink:href="#DejaVuSans-20" transform="translate(567.097656 0)"/>
      <use xlink:href="#DejaVuSans-28" transform="translate(598.884766 0)"/>
      <use xlink:href="#DejaVuSans-68" transform="translate(637.898438 0)"/>
      <use xlink:href="#DejaVuSans-75" transform="translate(701.277344 0)"/>
      <use xlink:href="#DejaVuSans-6d" transform="translate(764.65625 0)"/>
      <use xlink:href="#DejaVuSans-61" transform="translate(862.068359 0)"/>
      <use xlink:href="#DejaVuSans-6e" transform="translate(923.347656 0)"/>
      <use xlink:href="#DejaVuSans-29" transform="translate(986.726562 0)"/>
      <use xlink:href="#DejaVuSans-20" transform="translate(1025.740234 0)"/>
      <use xlink:href="#DejaVuSans-45" transform="translate(1057.527344 0)"/>
      <use xlink:href="#DejaVuSans-70" transform="translate(1120.710938 0)"/>
      <use xlink:href="#DejaVuSans-69" transform="translate(1184.1875 0)"/>
      <use xlink:href="#DejaVuSans-73" transform="translate(1211.970703 0)"/>
      <use xlink:href="#DejaVuSans-6f" transform="translate(1264.070312 0)"/>
      <use xlink:href="#DejaVuSans-64" transform="translate(1325.251953 0)"/>
      <use xlink:href="#DejaVuSans-69" transform="translate(1388.728516 0)"/>
      <use xlink:href="#DejaVuSans-63" transform="translate(1416.511719 0)"/>
      <use xlink:href="#DejaVuSans-20" transform="translate(1471.492188 0)"/>
      <use xlink:href="#DejaVuSans-52" transform="translate(1503.279297 0)"/>
      <use xlink:href="#DejaVuSans-65" transform="translate(1568.261719 0)"/>
      <use xlink:href="#DejaVuSans-74" transform="translate(1629.785156 0)"/>
      <use xlink:href="#DejaVuSans-75" transform="translate(1668.994141 0)"/>
      <use xlink:href="#DejaVuSans-72" transform="translate(1732.373047 0)"/>
      <use xlink:href="#DejaVuSans-6e" transform="translate(1771.736328 0)"/>
     </g>
    </g>
   </g>
   <g id="line2d_12">
    <path d="M 79.34467 61.855226 
L 83.547003 61.645964 
L 87.149003 61.389428 
L 89.550336 61.470797 
L 91.351335 61.574829 
L 93.152335 61.525709 
L 94.953335 61.310718 
L 99.155668 61.1564 
L 101.557001 61.153638 
L 107.560334 61.193771 
L 108.761 61.171427 
L 111.762666 60.834921 
L 117.765999 60.959616 
L 120.167332 60.538041 
L 121.367999 60.291483 
L 123.168999 60.493843 
L 126.770998 60.863013 
L 129.172331 60.738811 
L 131.573664 60.862174 
L 133.374664 60.995183 
L 137.576997 61.099137 
L 141.77933 61.240222 
L 145.981663 61.132654 
L 147.782662 61.129608 
L 150.183996 60.844364 
L 153.185662 60.175379 
L 153.785995 60.111805 
L 156.787661 61.278893 
L 157.387995 61.348105 
L 160.989994 61.021181 
L 162.190661 60.740914 
L 164.591994 60.295061 
L 166.993327 61.271068 
L 168.794327 61.118637 
L 171.795993 60.789206 
L 177.198992 60.953821 
L 178.399659 60.904542 
L 180.200659 60.862666 
L 181.401325 60.735452 
L 182.601992 60.540804 
L 185.003325 60.625936 
L 185.603658 60.553142 
L 188.004991 59.543317 
L 191.006658 59.738631 
L 191.606991 59.689703 
L 192.807657 60.022379 
L 194.608657 60.707643 
L 196.409657 60.373193 
L 197.00999 60.363205 
L 198.210657 60.660931 
L 199.411323 60.990037 
L 200.61199 61.077218 
L 201.812656 60.978007 
L 206.014989 60.511835 
L 207.215656 60.625827 
L 209.016656 60.929225 
L 213.218988 61.02674 
L 214.419655 61.097101 
L 215.620322 61.024688 
L 218.021655 61.019113 
L 220.422988 60.672704 
L 222.223987 60.97111 
L 223.424654 61.169251 
L 224.625321 61.106174 
L 229.427987 60.642175 
L 231.82932 61.137477 
L 232.429653 61.262756 
L 234.830986 60.870711 
L 236.031653 60.709712 
L 247.437985 61.029423 
L 251.039984 61.081108 
L 252.840984 60.904736 
L 255.84265 60.45577 
L 257.64365 60.482692 
L 259.44465 60.245659 
L 262.446316 59.794022 
L 263.04665 59.793119 
L 264.847649 60.181613 
L 269.650315 60.962392 
L 272.051649 60.61445 
L 273.252315 60.535222 
L 281.656981 60.965127 
L 284.658647 60.742441 
L 287.05998 60.501166 
L 288.260647 60.363155 
L 294.864313 60.859066 
L 297.265646 60.849223 
L 302.668645 60.103428 
L 307.471311 59.111627 
L 308.671978 59.395278 
L 311.073311 60.676394 
L 312.273977 61.033555 
L 314.67531 60.664789 
L 318.27731 60.075309 
L 321.278976 59.36172 
L 324.280643 59.605692 
L 325.481309 59.390691 
L 327.882642 60.339526 
L 328.482976 60.651302 
L 329.683642 60.862851 
L 331.484642 60.97966 
L 332.084975 60.997113 
L 333.885975 60.323649 
L 336.287308 59.158836 
L 336.887641 59.07098 
L 341.089974 60.432184 
L 343.491307 60.302926 
L 347.093307 60.887006 
L 350.695306 60.770101 
L 353.696973 60.592422 
L 354.897639 60.520972 
L 359.700305 59.745689 
L 360.900972 59.462097 
L 362.101638 59.613602 
L 364.502972 60.106422 
L 366.303971 59.902663 
L 371.106637 60.866836 
L 371.706971 60.823344 
L 373.507971 60.213405 
L 374.708637 59.776961 
L 378.310637 59.250232 
L 380.111636 59.742762 
L 381.312303 60.240154 
L 382.51297 60.420054 
L 387.315636 60.762976 
L 390.317302 60.821139 
L 392.718635 60.944274 
L 394.519635 60.60868 
L 396.320635 60.220295 
L 399.922634 60.798179 
L 402.924301 60.56088 
L 405.925967 59.962999 
L 409.527967 60.33806 
L 411.328966 59.766386 
L 411.9293 59.557252 
L 413.129966 59.591668 
L 413.730299 59.753257 
L 415.531299 60.767692 
L 416.131632 60.808346 
L 419.133299 60.32251 
L 419.733632 60.193481 
L 422.735298 60.634969 
L 423.935965 60.785993 
L 425.136631 60.787808 
L 426.937631 60.887024 
L 428.738631 60.54855 
L 430.539631 60.245759 
L 431.139964 60.286304 
L 433.541297 61.211592 
L 434.741964 61.198634 
L 440.144963 60.764332 
L 441.34563 60.839104 
L 443.746963 61.068047 
L 445.547962 60.973875 
L 448.549629 60.715653 
L 450.950962 60.822555 
L 455.753628 60.889285 
L 459.355628 60.631607 
L 463.55796 59.862622 
L 464.758627 60.2179 
L 466.559627 60.839193 
L 468.96096 60.828719 
L 471.362293 60.905792 
L 475.564626 60.070996 
L 478.566292 60.850991 
L 479.766959 60.889634 
L 483.969292 60.626727 
L 490.572957 60.675409 
L 494.77529 60.075151 
L 498.37729 60.262876 
L 499.577956 60.4206 
L 501.378956 60.878411 
L 503.179956 60.804571 
L 506.781956 60.179931 
L 507.382289 60.139535 
L 510.984288 60.91249 
L 512.184955 60.832013 
L 513.985955 60.419347 
L 515.786955 59.938802 
L 518.788621 59.932549 
L 519.989287 60.170793 
L 522.390621 60.729091 
L 525.392287 60.889198 
L 527.79362 61.289765 
L 528.994286 61.164503 
L 531.39562 60.781179 
L 534.997619 60.958954 
L 539.800285 60.828589 
L 541.601285 60.99413 
L 544.002618 61.161086 
L 545.203285 61.127997 
L 549.405618 60.312326 
L 550.005951 60.136026 
L 551.806951 60.125449 
L 552.407284 60.180367 
L 554.808617 60.951019 
L 556.609617 60.982502 
L 558.410617 60.741829 
L 562.612949 61.121667 
L 566.815282 60.990183 
L 568.616282 60.991855 
L 571.017615 60.630135 
L 571.617948 60.548069 
L 579.422281 60.993557 
L 581.223281 60.88288 
L 583.624614 60.465855 
L 584.82528 60.484878 
L 587.826947 60.820865 
L 589.027613 60.756941 
L 592.629613 60.817825 
L 596.831946 59.97775 
L 598.032612 60.295366 
L 599.833612 60.386616 
L 602.234945 59.99362 
L 604.035945 60.418292 
L 605.836945 60.897643 
L 609.438944 60.810461 
L 610.639611 60.79013 
L 614.24161 60.908833 
L 616.04261 60.751976 
L 617.84361 60.627761 
L 619.64461 60.472734 
L 623.846943 59.824965 
L 625.047609 59.88745 
L 628.049275 60.465158 
L 629.249942 60.594084 
L 631.050942 60.787956 
L 634.052608 60.973536 
L 635.853608 60.766029 
L 638.855274 60.459039 
L 641.856941 60.115934 
L 644.258274 60.636584 
L 645.45894 60.829618 
L 648.460606 60.717004 
L 650.86194 61.030994 
L 652.662939 60.888853 
L 654.463939 60.793224 
L 656.865272 60.924055 
L 658.666272 60.968947 
L 662.868605 60.709148 
L 665.870271 61.031634 
L 669.472271 60.884066 
L 671.273271 60.932062 
L 675.475603 60.516725 
L 677.876936 60.701693 
L 679.077603 60.800376 
L 679.077603 60.800376 
" clip-path="url(#p815c7c4bed)" style="fill: none; stroke: #ff0000; stroke-width: 1.5; stroke-linecap: square"/>
   </g>
   <g id="line2d_13">
    <path d="M 79.139536 61.64075 
L 92.934561 61.541343 
L 102.5311 61.097331 
L 104.330451 60.925573 
L 106.129802 60.940859 
L 107.329369 60.937778 
L 110.328288 60.873614 
L 122.323961 60.569953 
L 126.522447 60.705732 
L 131.9205 60.976004 
L 134.319635 61.081383 
L 136.71877 60.924297 
L 138.518121 60.86491 
L 140.317472 60.827738 
L 142.716607 60.701061 
L 154.71228 60.9894 
L 157.711199 60.821631 
L 161.309901 60.549136 
L 162.509468 60.55265 
L 165.508386 60.802752 
L 166.707954 61.000456 
L 168.507305 61.136977 
L 173.905358 60.903998 
L 176.304493 61.096632 
L 178.703627 60.803429 
L 180.502979 60.543377 
L 184.101681 60.324583 
L 194.897787 60.708219 
L 197.296922 60.743878 
L 200.895624 61.053288 
L 204.494326 60.681548 
L 209.892379 60.721905 
L 215.290432 60.605074 
L 218.28935 60.930052 
L 223.687404 60.813877 
L 226.086538 60.867171 
L 227.885889 60.679094 
L 231.484591 60.719392 
L 235.083294 60.765813 
L 238.082212 60.285806 
L 239.281779 60.157223 
L 243.480265 60.364897 
L 245.8794 60.888472 
L 247.678751 60.69899 
L 250.077886 60.440397 
L 256.075722 60.253049 
L 258.474857 60.687198 
L 260.873992 60.696335 
L 263.273127 60.979341 
L 267.471612 60.687802 
L 270.470531 60.782091 
L 275.2688 60.716251 
L 277.667935 60.711709 
L 282.466204 60.625553 
L 289.663609 60.602618 
L 293.262311 60.424338 
L 302.85885 60.993099 
L 304.658201 60.713258 
L 307.057335 60.293914 
L 308.256903 60.341701 
L 310.056254 60.466614 
L 314.25474 60.690083 
L 323.251495 60.757719 
L 324.451062 60.678207 
L 326.250413 60.403292 
L 337.646303 60.854745 
L 341.245005 60.76192 
L 347.842626 60.882063 
L 350.841544 60.707034 
L 359.238516 60.806983 
L 372.433757 60.943155 
L 377.232026 60.596019 
L 380.830728 60.538484 
L 383.229863 60.951122 
L 385.628998 60.595509 
L 388.028132 60.176804 
L 390.427267 60.279148 
L 392.226618 60.515349 
L 394.025969 60.812455 
L 397.024888 60.801973 
L 400.023806 60.936099 
L 401.823157 60.730143 
L 405.421859 60.109337 
L 408.420778 60.323462 
L 410.819912 60.712149 
L 412.01948 60.683776 
L 416.217965 60.464782 
L 418.6171 60.669466 
L 421.616019 60.540604 
L 424.015153 60.414547 
L 433.611692 60.399321 
L 438.409962 60.595066 
L 443.208231 60.56182 
L 446.20715 60.838473 
L 450.405635 60.625586 
L 454.604121 60.224117 
L 460.601958 60.37338 
L 463.001093 60.374597 
L 466.599795 60.906436 
L 472.597632 60.907828 
L 474.996766 60.507881 
L 476.796117 60.208008 
L 479.195252 60.253767 
L 482.793954 60.62978 
L 485.193089 60.912351 
L 486.99244 60.840833 
L 489.991358 60.527665 
L 492.390493 60.448904 
L 496.588979 59.852179 
L 499.587897 59.764517 
L 501.987032 60.038872 
L 504.98595 60.423548 
L 510.384004 60.664052 
L 515.182273 60.753017 
L 518.181191 60.777722 
L 524.179028 60.543455 
L 529.577081 60.139789 
L 535.574918 60.358455 
L 539.17362 60.442071 
L 540.972971 60.345734 
L 543.372106 60.295272 
L 548.170375 60.525114 
L 552.368861 60.631832 
L 555.36778 60.469808 
L 558.966482 60.252844 
L 560.166049 60.453718 
L 562.565184 60.907416 
L 567.963237 60.558853 
L 572.761506 60.387254 
L 576.959992 60.139853 
L 580.558694 60.520038 
L 585.356964 60.4857 
L 587.756098 60.43916 
L 593.154152 60.739259 
L 597.952421 60.429455 
L 602.750691 59.402758 
L 605.149825 59.594952 
L 606.349393 59.922938 
L 609.348311 60.595242 
L 615.346148 60.452822 
L 617.745283 60.497367 
L 623.743119 60.341259 
L 626.142254 60.631651 
L 629.141173 60.745128 
L 633.339658 60.646041 
L 638.137928 59.994294 
L 639.937279 59.961784 
L 644.735548 60.357551 
L 658.530573 60.276808 
L 665.727977 60.617188 
L 670.526247 60.570104 
L 672.925381 60.188921 
L 674.724732 59.982435 
L 678.323434 60.10995 
L 678.323434 60.10995 
" clip-path="url(#p815c7c4bed)" style="fill: none; stroke: #0000ff; stroke-width: 1.5; stroke-linecap: square"/>
   </g>
   <g id="line2d_14">
    <path d="M 77.776 62.595797 
L 78.975349 62.369222 
L 84.972099 59.558872 
L 87.970474 59.212767 
L 90.369174 60.028625 
L 91.568524 61.0672 
L 92.767874 61.408515 
L 93.367549 61.460817 
L 96.365924 60.251316 
L 96.965599 60.4129 
L 99.364299 62.359469 
L 99.963974 62.374225 
L 102.362673 61.719972 
L 104.161698 60.745364 
L 106.560398 60.448856 
L 108.959098 61.741361 
L 110.758123 61.898701 
L 113.756498 61.238388 
L 116.155198 61.543813 
L 120.352923 61.352536 
L 123.950972 60.961062 
L 125.749997 61.016183 
L 128.148697 61.099598 
L 129.947722 61.220284 
L 134.145447 60.797217 
L 137.743497 60.227939 
L 143.140572 58.788196 
L 143.740247 58.758665 
L 148.537646 59.841351 
L 149.736996 59.738556 
L 150.936346 59.41547 
L 153.335046 58.739609 
L 155.733746 58.313181 
L 158.132446 59.644992 
L 162.330171 59.493838 
L 162.929846 59.379569 
L 163.529521 59.460206 
L 164.728871 60.759713 
L 165.328546 61.026279 
L 167.727245 61.46939 
L 168.926595 61.959599 
L 170.125945 61.600666 
L 171.325295 61.459467 
L 172.524645 61.306571 
L 173.12432 61.572052 
L 174.923345 61.167124 
L 177.92172 58.939399 
L 178.521395 58.731846 
L 179.720745 58.783505 
L 182.119445 58.847579 
L 183.318795 59.953841 
L 183.91847 60.187356 
L 185.717495 60.172804 
L 189.315544 58.106384 
L 191.114569 59.312896 
L 191.714244 59.797555 
L 192.313919 60.000802 
L 193.513269 60.959924 
L 194.112944 61.073036 
L 195.911969 59.458878 
L 198.910344 57.554279 
L 200.109694 57.735536 
L 200.709369 57.859157 
L 201.309044 57.858141 
L 203.108069 58.932824 
L 203.707744 58.728917 
L 204.907094 58.013424 
L 205.506769 57.860305 
L 206.106444 58.167113 
L 207.905469 58.368551 
L 208.505144 58.001389 
L 210.304169 56.561108 
L 210.903844 56.22443 
L 212.103193 56.613456 
L 213.302543 58.993875 
L 213.902218 59.062812 
L 214.501893 58.897509 
L 215.701243 57.482664 
L 216.900593 56.692232 
L 217.500268 56.426318 
L 218.099943 56.351814 
L 219.299293 56.528309 
L 219.898968 56.494233 
L 221.098318 56.915475 
L 222.897343 57.542904 
L 223.497018 57.207299 
L 225.895718 56.910166 
L 228.294418 56.721051 
L 229.493768 56.81474 
L 230.693118 57.588261 
L 232.492143 59.419037 
L 233.091818 59.401723 
L 236.689867 57.117752 
L 237.889217 57.31453 
L 239.688242 57.060295 
L 240.287917 56.857674 
L 240.887592 57.041215 
L 242.086942 58.726666 
L 242.686617 58.769155 
L 244.485642 58.148276 
L 246.284667 57.582023 
L 246.884342 57.819811 
L 248.083692 58.675122 
L 248.683367 59.087119 
L 250.482392 59.240244 
L 251.681742 58.316032 
L 253.480767 56.511838 
L 254.080442 56.83489 
L 254.680117 57.323343 
L 255.279791 57.399927 
L 255.879466 57.276587 
L 258.877841 57.541527 
L 259.477516 57.450972 
L 260.676866 56.95225 
L 261.876216 57.820192 
L 262.475891 57.95903 
L 267.273291 57.750274 
L 269.072316 58.007892 
L 270.271666 58.469706 
L 271.471016 59.179709 
L 272.070691 59.304826 
L 273.270041 59.051513 
L 275.069066 58.906475 
L 278.667115 57.103394 
L 279.26679 57.137445 
L 281.065815 58.40855 
L 281.66549 58.364359 
L 284.06419 57.506311 
L 286.46289 58.874551 
L 288.86159 58.584831 
L 290.06094 59.035097 
L 291.26029 59.41576 
L 291.859965 59.477527 
L 293.059315 59.087656 
L 294.258665 59.09329 
L 294.85834 58.989008 
L 295.458015 58.678929 
L 296.657365 58.84204 
L 298.45639 58.704541 
L 299.655739 57.828249 
L 300.255414 57.331224 
L 301.454764 57.906557 
L 302.054439 58.371248 
L 302.654114 59.036882 
L 303.253789 59.461098 
L 304.453139 59.264721 
L 306.851839 57.451182 
L 308.650864 56.629493 
L 309.850214 57.226521 
L 311.049564 57.247338 
L 314.047939 55.80514 
L 315.247289 56.272216 
L 316.446639 56.986427 
L 318.245664 57.86162 
L 320.644364 57.046774 
L 322.443388 56.389775 
L 324.842088 56.009778 
L 325.441763 56.048266 
L 327.840463 57.19122 
L 329.639488 57.8848 
L 330.838838 58.228751 
L 331.438513 58.005973 
L 332.637863 57.965182 
L 333.837213 58.374611 
L 335.636238 58.230733 
L 336.835588 58.331495 
L 337.435263 58.322481 
L 339.833963 57.726627 
L 341.033313 57.716114 
L 341.632988 58.117342 
L 342.232663 58.818509 
L 344.031687 60.136652 
L 344.631362 59.991239 
L 345.830712 59.40145 
L 348.829087 57.327835 
L 350.028437 56.784407 
L 351.227787 56.785079 
L 352.427137 56.865962 
L 353.626487 57.246649 
L 354.226162 57.080283 
L 354.825837 57.16637 
L 356.025187 57.829273 
L 357.824212 58.304459 
L 358.423887 58.513056 
L 361.422262 58.145644 
L 362.021937 58.113995 
L 362.621612 58.288503 
L 364.420637 59.835826 
L 365.619987 60.768099 
L 366.219661 60.686821 
L 368.618361 58.00805 
L 369.218036 57.803961 
L 369.817711 57.904486 
L 373.415761 59.528593 
L 374.615111 60.36859 
L 375.814461 60.677261 
L 378.213161 58.833973 
L 378.812836 58.617166 
L 380.611861 58.636523 
L 381.211536 58.824491 
L 381.811211 59.207761 
L 382.410886 59.22095 
L 384.809586 58.551452 
L 386.608611 58.109341 
L 388.407635 57.810582 
L 391.40601 58.053985 
L 392.60536 58.072995 
L 393.80471 58.109141 
L 395.00406 58.198726 
L 398.002435 58.185009 
L 399.201785 57.744934 
L 399.80146 57.522565 
L 401.00081 57.398632 
L 401.600485 57.375735 
L 402.20016 57.781588 
L 402.799835 58.028408 
L 403.999185 58.18337 
L 405.79821 57.88407 
L 406.99756 57.727457 
L 409.995935 55.670332 
L 411.195284 54.674742 
L 412.994309 54.020869 
L 413.593984 53.81698 
L 414.193659 53.998168 
L 419.590734 57.490669 
L 420.790084 57.514036 
L 422.589109 57.841639 
L 423.188784 57.829995 
L 423.788459 57.668776 
L 424.987809 57.704336 
L 425.587484 57.586153 
L 427.986184 56.582149 
L 428.585859 56.609556 
L 430.984559 57.524951 
L 433.982933 56.586953 
L 435.182283 56.033256 
L 437.580983 56.204351 
L 438.780333 56.119127 
L 439.380008 56.321981 
L 441.179033 58.374137 
L 441.778708 59.496212 
L 442.378383 59.912183 
L 443.577733 60.028753 
L 444.177408 60.046944 
L 444.777083 59.868246 
L 445.976433 58.919109 
L 446.576108 58.572002 
L 448.375133 58.444342 
L 449.574483 58.230227 
L 450.174158 58.164837 
L 450.773833 57.949279 
L 451.973183 57.129299 
L 453.772208 56.341893 
L 455.571232 56.048859 
L 456.170907 56.035068 
L 459.768957 56.810928 
L 460.968307 56.808433 
L 463.367007 56.406203 
L 465.765707 57.145703 
L 466.965057 57.500218 
L 467.564732 57.494582 
L 468.764082 56.951329 
L 471.162782 55.437995 
L 472.362132 56.493458 
L 472.961807 56.991975 
L 475.360507 59.595179 
L 475.960182 59.615519 
L 476.559856 59.188874 
L 477.759206 57.559058 
L 478.358881 56.951097 
L 478.958556 56.630402 
L 480.157906 56.348353 
L 481.956931 56.381422 
L 483.156281 56.338314 
L 484.355631 56.309539 
L 484.955306 56.66658 
L 486.754331 57.317029 
L 487.354006 57.805775 
L 487.953681 58.075434 
L 489.153031 58.18955 
L 489.752706 57.992439 
L 491.551731 57.069936 
L 492.751081 57.215433 
L 493.950431 57.618429 
L 494.550106 57.632765 
L 496.948806 56.588223 
L 497.548481 56.217859 
L 498.148156 56.110414 
L 499.347505 56.69926 
L 499.94718 57.039293 
L 500.546855 57.228862 
L 501.14653 57.01197 
L 504.74458 54.978454 
L 505.344255 54.84612 
L 506.543605 55.029699 
L 508.34263 55.813519 
L 509.54198 56.478634 
L 511.341005 56.628067 
L 512.540355 55.980089 
L 514.33938 54.84912 
L 515.53873 54.828764 
L 516.138405 54.864447 
L 519.13678 56.333851 
L 519.736455 56.690812 
L 522.734829 57.169765 
L 523.334504 57.675432 
L 524.533854 58.93045 
L 525.733204 58.686648 
L 526.332879 58.426073 
L 528.131904 56.936328 
L 530.530604 55.506819 
L 531.729954 54.657763 
L 534.128654 54.551222 
L 534.728329 54.503845 
L 535.328004 54.295513 
L 536.527354 53.615248 
L 537.726704 53.221237 
L 538.326379 52.821809 
L 539.525729 52.368972 
L 540.125404 52.274146 
L 541.924429 53.041943 
L 543.123778 53.963146 
L 543.723453 54.048862 
L 547.321503 53.891905 
L 549.120528 54.354413 
L 552.118903 55.080257 
L 552.718578 54.996974 
L 553.917928 55.175767 
L 555.716953 54.616856 
L 558.715328 53.3573 
L 559.315003 53.506141 
L 561.114028 54.755653 
L 562.913053 56.660832 
L 564.712078 57.227291 
L 567.710452 55.62786 
L 570.109152 54.450438 
L 573.107527 55.106431 
L 573.707202 55.243204 
L 576.105902 56.468526 
L 576.705577 56.696715 
L 577.904927 55.814257 
L 580.303627 53.728977 
L 580.903302 53.183904 
L 581.502977 53.169235 
L 585.700702 56.260041 
L 586.300377 56.27917 
L 586.900052 56.06007 
L 588.699076 54.734253 
L 590.498101 53.476309 
L 591.097776 53.574609 
L 594.096151 54.663494 
L 595.295501 54.269917 
L 595.895176 54.215652 
L 597.094526 54.949754 
L 600.692576 57.62708 
L 601.292251 57.732496 
L 603.690951 57.145133 
L 604.890301 57.151668 
L 606.689326 58.02157 
L 607.289001 58.164046 
L 607.888676 58.112101 
L 608.488351 57.904899 
L 612.0864 55.871002 
L 613.885425 55.211016 
L 617.483475 54.082733 
L 621.6812 54.942358 
L 622.280875 54.775224 
L 624.0799 53.718884 
L 625.27925 53.544297 
L 625.878925 53.571362 
L 626.4786 53.856627 
L 628.277625 55.47083 
L 628.8773 56.233369 
L 629.476975 56.781026 
L 630.676325 56.513987 
L 631.875674 56.278551 
L 633.674699 56.035513 
L 636.673074 54.713987 
L 639.071774 54.520267 
L 643.269499 54.1407 
L 646.267874 53.475398 
L 648.666574 53.696161 
L 651.664949 54.855197 
L 652.264624 54.988283 
L 652.864299 54.938739 
L 654.663323 54.064471 
L 657.062023 53.184868 
L 658.861048 52.484881 
L 662.459098 52.323617 
L 669.055523 52.440487 
L 672.053898 52.155467 
L 673.852923 51.9835 
L 676.851297 52.021218 
L 676.851297 52.021218 
" clip-path="url(#p815c7c4bed)" style="fill: none; stroke: #008000; stroke-width: 1.5; stroke-linecap: square"/>
   </g>
   <g id="line2d_15">
    <path d="M 86.632955 42.012727 
L 90.180854 45.351282 
L 97.276651 52.081125 
L 97.867968 54.477651 
L 107.920348 104.001447 
L 108.511664 106.218658 
L 118.564044 134.772222 
L 119.15536 138.1826 
L 129.799057 227.426176 
L 140.442753 353.28812 
L 151.086449 313.036905 
L 152.860399 320.590127 
L 161.730145 359.280008 
L 162.321462 359.040413 
L 172.373842 349.51614 
L 173.556475 347.634905 
L 183.017538 331.471206 
L 183.608854 331.455117 
L 193.661234 344.895904 
L 194.252551 343.857799 
L 204.896247 249.742952 
L 215.539943 286.166318 
L 220.861791 283.157363 
L 226.18364 280.083261 
L 226.774956 280.051663 
L 236.827336 281.948745 
L 237.418652 280.608433 
L 247.471032 236.808173 
L 248.062349 237.58678 
L 258.114728 298.608198 
L 258.706045 300.558757 
L 268.758425 298.685163 
L 269.349741 298.780108 
L 279.402121 325.438616 
L 279.993437 326.501568 
L 290.637134 239.784289 
L 291.819767 247.767221 
L 301.28083 315.892252 
L 301.872147 317.60271 
L 311.924526 334.690939 
L 312.515843 332.225385 
L 322.568223 248.455429 
L 323.159539 247.580136 
L 333.211919 319.952236 
L 333.803235 322.906807 
L 343.855615 299.907552 
L 344.446932 299.050457 
L 355.090628 373.467273 
L 356.864577 351.089575 
L 365.734324 236.894112 
L 366.325641 239.405658 
L 376.37802 323.264387 
L 376.969337 323.903518 
L 387.613033 301.69969 
L 397.665413 263.514725 
L 398.25673 263.834142 
L 408.309109 357.204402 
L 408.900426 361.466333 
L 419.544122 349.311169 
L 427.231236 318.725983 
L 430.187818 306.948164 
L 430.779135 308.988444 
L 440.831515 354.734051 
L 441.422831 351.695799 
L 451.475211 243.113032 
L 452.066527 242.61763 
L 462.118907 362.711914 
L 462.710224 366.455358 
L 473.35392 288.591948 
L 483.997616 329.260673 
L 485.180249 334.254798 
L 494.641313 371.950841 
L 497.006578 365.114494 
L 505.285009 341.57252 
L 505.876325 341.463867 
L 515.928705 345.290273 
L 516.520022 344.142361 
L 529.528984 294.358877 
L 537.216098 263.730814 
L 537.807414 262.885834 
L 548.45111 344.983272 
L 559.094807 272.294422 
L 560.868756 288.312912 
L 569.738503 370.700382 
L 570.329819 371.450049 
L 581.564832 360.666107 
L 591.025896 349.881337 
L 597.530377 337.473176 
L 601.669592 329.591263 
L 602.260908 328.023814 
L 612.313288 246.014871 
L 612.904605 242.115437 
L 619.409086 287.608496 
L 623.548301 316.478257 
L 624.730934 320.928015 
L 634.191997 353.263351 
L 634.783314 354.082082 
L 644.835693 359.801368 
L 645.42701 357.691452 
L 656.070706 304.776806 
L 666.123086 243.820787 
L 666.714402 243.031312 
L 677.358099 320.937346 
L 677.358099 320.937346 
" clip-path="url(#p815c7c4bed)" style="fill: none; stroke: #ffa500; stroke-width: 1.5; stroke-linecap: square"/>
   </g>
   <g id="line2d_16">
    <path d="M 76.756364 61.785078 
L 77.962224 62.552316 
L 78.565154 62.731325 
L 79.168084 62.065801 
L 80.373945 61.531253 
L 80.976875 60.920371 
L 82.182735 60.484998 
L 82.785666 60.717996 
L 83.388596 61.134954 
L 83.991526 61.951542 
L 85.197386 60.124457 
L 85.800317 59.596168 
L 86.403247 61.117575 
L 87.609107 63.186193 
L 88.212037 62.644744 
L 88.814968 62.398796 
L 89.417898 62.30324 
L 90.020828 62.010248 
L 90.623758 61.923591 
L 91.226689 62.250337 
L 91.829619 62.705793 
L 93.035479 62.887169 
L 93.638409 62.726064 
L 94.24134 62.418105 
L 95.4472 62.011996 
L 96.05013 60.88982 
L 97.255991 60.065272 
L 98.461851 60.41144 
L 99.064781 60.768805 
L 99.667711 61.385966 
L 100.270642 61.543388 
L 100.873572 62.204969 
L 101.476502 62.25752 
L 102.079432 62.134803 
L 103.888223 61.311854 
L 104.491153 61.96552 
L 105.094083 61.600319 
L 105.697013 61.078282 
L 106.299944 61.769611 
L 106.902874 61.354902 
L 108.108734 62.315929 
L 108.711664 61.853964 
L 109.917525 61.377173 
L 110.520455 61.748085 
L 111.123385 62.47256 
L 111.726315 62.42984 
L 112.329246 62.038425 
L 112.932176 62.570871 
L 113.535106 62.752269 
L 114.138036 62.083442 
L 114.740966 61.830977 
L 115.343897 62.176425 
L 115.946827 61.878418 
L 116.549757 61.225934 
L 117.152687 61.563329 
L 117.755617 62.699771 
L 118.358548 62.92142 
L 119.564408 61.41454 
L 120.167338 60.504051 
L 120.770268 60.617134 
L 121.373199 61.251646 
L 121.976129 61.401474 
L 122.579059 62.030792 
L 123.784919 61.671056 
L 124.38785 62.59257 
L 125.59371 60.888066 
L 126.19664 61.029837 
L 126.79957 61.634571 
L 127.402501 61.477691 
L 128.005431 61.596093 
L 128.608361 62.919975 
L 129.211291 62.944635 
L 129.814221 62.245698 
L 130.417152 62.130314 
L 131.020082 62.428919 
L 131.623012 61.920168 
L 132.225942 61.925915 
L 132.828873 61.442413 
L 134.034733 62.628235 
L 134.637663 62.193678 
L 135.240593 62.424562 
L 137.049384 62.426617 
L 137.652314 62.569485 
L 138.255244 62.36333 
L 138.858175 61.180247 
L 139.461105 60.454835 
L 140.064035 61.002865 
L 140.666965 62.155582 
L 141.269895 62.1255 
L 141.872826 61.407196 
L 142.475756 60.967244 
L 143.078686 61.582312 
L 143.681616 61.438114 
L 144.284546 62.172126 
L 144.887477 62.586041 
L 145.490407 62.424686 
L 146.093337 62.476732 
L 146.696267 62.003524 
L 147.299197 60.920233 
L 147.902128 60.891046 
L 148.505058 61.462508 
L 149.107988 60.543979 
L 149.710918 60.024951 
L 150.916779 59.552563 
L 151.519709 61.816748 
L 152.122639 62.378481 
L 152.725569 61.628018 
L 153.328499 61.364508 
L 154.53436 60.460099 
L 155.13729 61.322872 
L 155.74022 61.055499 
L 156.946081 61.92667 
L 157.549011 62.92142 
L 158.151941 62.534586 
L 158.754871 61.663154 
L 159.357801 61.448453 
L 160.563662 62.054166 
L 161.166592 62.718685 
L 161.769522 62.957617 
L 162.372452 62.111407 
L 162.975383 61.48844 
L 163.578313 61.942457 
L 164.181243 61.275769 
L 165.387103 60.964664 
L 165.990034 60.45007 
L 166.592964 60.381234 
L 167.195894 60.766726 
L 167.798824 61.375017 
L 168.401754 61.792142 
L 169.004685 61.567815 
L 169.607615 60.937082 
L 170.210545 62.614814 
L 170.813475 62.813824 
L 171.416405 63.42417 
L 172.622266 62.942171 
L 173.828126 60.549003 
L 174.431057 60.141402 
L 175.033987 61.224622 
L 175.636917 61.683197 
L 176.239847 62.335106 
L 176.842777 62.01501 
L 177.445708 62.285444 
L 178.048638 62.271237 
L 178.651568 61.595086 
L 179.254498 61.310704 
L 179.857428 61.52661 
L 180.460359 62.037182 
L 181.063289 62.076797 
L 181.666219 62.590496 
L 182.872079 60.288555 
L 183.47501 61.798657 
L 184.07794 62.782849 
L 184.68087 62.489578 
L 185.88673 61.46141 
L 186.489661 62.029471 
L 187.092591 63.188307 
L 188.298451 63.212504 
L 189.504312 61.868855 
L 190.107242 61.011045 
L 190.710172 60.996341 
L 191.313102 61.876206 
L 191.916032 62.164924 
L 193.121893 60.747275 
L 193.724823 60.439465 
L 194.327753 61.818269 
L 194.930683 61.348766 
L 195.533614 61.131623 
L 196.136544 61.754258 
L 196.739474 60.840633 
L 197.342404 60.377545 
L 197.945334 61.180854 
L 198.548265 61.295919 
L 199.151195 62.023874 
L 199.754125 62.057439 
L 200.357055 62.521604 
L 200.959985 62.13634 
L 201.562916 61.338349 
L 202.768776 60.597496 
L 203.371706 59.122089 
L 204.577567 60.699728 
L 205.783427 61.980796 
L 206.386357 62.970873 
L 206.989287 62.818066 
L 207.592218 62.468361 
L 208.195148 62.876945 
L 208.798078 62.602219 
L 209.401008 61.894098 
L 210.003938 61.625012 
L 210.606869 60.878499 
L 211.209799 59.254464 
L 211.812729 60.129596 
L 212.415659 62.647869 
L 213.018589 62.340503 
L 213.62152 62.278662 
L 214.22445 61.692726 
L 214.82738 61.499406 
L 215.43031 61.983196 
L 216.033241 61.596367 
L 216.636171 61.497444 
L 217.239101 61.539355 
L 217.842031 61.916652 
L 218.444961 62.507252 
L 219.047892 62.356546 
L 219.650822 62.373595 
L 220.253752 62.579614 
L 220.856682 62.308872 
L 221.459612 61.769905 
L 222.665473 62.453699 
L 223.871333 60.567205 
L 224.474263 60.763073 
L 225.077194 61.969548 
L 225.680124 62.68969 
L 226.283054 61.524511 
L 226.885984 60.014541 
L 228.091845 61.495202 
L 228.694775 61.662974 
L 229.297705 62.542894 
L 229.900635 63.075874 
L 230.503565 63.134472 
L 231.106496 62.753448 
L 231.709426 62.982011 
L 232.312356 62.972236 
L 232.915286 62.698407 
L 233.518216 63.186603 
L 234.724077 60.074075 
L 235.327007 59.296556 
L 235.929937 61.019137 
L 236.532867 61.60811 
L 237.135798 60.762895 
L 237.738728 60.229824 
L 238.341658 60.213905 
L 238.944588 60.762944 
L 239.547518 61.005117 
L 240.150449 60.87589 
L 240.753379 61.314586 
L 241.356309 61.28777 
L 241.959239 62.002636 
L 242.562169 61.479353 
L 243.1651 61.548879 
L 243.76803 61.992047 
L 244.37096 61.771012 
L 244.97389 61.897603 
L 246.179751 61.807061 
L 246.782681 62.022471 
L 247.385611 62.383641 
L 247.988541 62.10484 
L 248.591471 62.102082 
L 249.797332 60.639959 
L 250.400262 60.789737 
L 251.003192 61.242103 
L 251.606122 60.767186 
L 252.209053 60.732133 
L 252.811983 60.89135 
L 253.414913 61.185802 
L 254.017843 60.793063 
L 254.620774 59.724188 
L 255.223704 62.087358 
L 255.826634 62.619623 
L 256.429564 61.633161 
L 257.032494 62.295975 
L 257.635425 63.223383 
L 258.238355 62.25778 
L 258.841285 61.502445 
L 259.444215 61.067302 
L 260.047145 61.431311 
L 260.650076 62.494433 
L 261.253006 62.950882 
L 261.855936 62.356946 
L 263.061796 60.130465 
L 263.664727 60.046413 
L 264.267657 60.459697 
L 264.870587 60.188178 
L 266.076447 62.156485 
L 266.679378 62.104716 
L 267.282308 61.396431 
L 267.885238 61.032584 
L 269.091098 62.82241 
L 269.694029 62.504353 
L 270.899889 60.542665 
L 271.502819 60.916256 
L 272.105749 62.319231 
L 272.70868 63.048955 
L 273.31161 63.388386 
L 275.1204 62.550702 
L 276.326261 61.548425 
L 276.929191 61.955843 
L 277.532121 61.742749 
L 278.135051 61.130845 
L 278.737982 61.938594 
L 279.340912 61.680169 
L 279.943842 62.193021 
L 280.546772 61.98654 
L 281.149702 61.360558 
L 281.752633 61.016358 
L 282.355563 61.465536 
L 282.958493 62.463314 
L 283.561423 62.138161 
L 284.164353 61.540988 
L 284.767284 61.343125 
L 285.370214 60.991406 
L 285.973144 62.199108 
L 286.576074 62.271224 
L 287.179004 61.638649 
L 287.781935 61.555778 
L 288.384865 61.70718 
L 288.987795 62.712538 
L 289.590725 62.317268 
L 290.193655 62.068906 
L 290.796586 62.406645 
L 291.399516 62.013056 
L 292.002446 62.998701 
L 292.605376 63.320179 
L 293.208306 62.901401 
L 293.811237 62.634209 
L 294.414167 62.078314 
L 295.620027 61.81345 
L 296.222958 61.99409 
L 296.825888 62.563637 
L 297.428818 62.350001 
L 298.031748 61.425779 
L 299.237609 60.720547 
L 299.840539 60.588088 
L 300.443469 60.631806 
L 301.046399 61.013885 
L 302.25226 62.224865 
L 302.85519 62.559878 
L 303.45812 62.195399 
L 304.66398 62.428297 
L 305.266911 62.883231 
L 305.869841 62.255582 
L 306.472771 61.915745 
L 307.075701 62.576397 
L 307.678631 62.870724 
L 308.281562 61.972078 
L 308.884492 60.849241 
L 310.090352 59.41127 
L 310.693282 60.211161 
L 311.296213 62.336331 
L 311.899143 63.320067 
L 312.502073 63.37606 
L 313.707933 62.01207 
L 314.310864 61.953548 
L 315.516724 61.224955 
L 316.119654 60.531 
L 316.722584 60.896154 
L 317.928445 62.139351 
L 318.531375 61.910213 
L 319.737235 62.063575 
L 320.340166 61.289278 
L 320.943096 59.994342 
L 321.546026 58.235601 
L 322.148956 60.271943 
L 322.751886 61.757625 
L 323.354817 62.804653 
L 323.957747 62.603817 
L 324.560677 62.532052 
L 325.163607 63.053051 
L 326.369468 62.235568 
L 326.972398 61.453508 
L 327.575328 61.703878 
L 328.178258 62.120479 
L 328.781188 61.909256 
L 329.384119 61.575729 
L 330.589979 62.320441 
L 331.192909 61.555281 
L 331.795839 61.029267 
L 333.0017 61.522261 
L 333.60463 62.064145 
L 334.81049 62.665011 
L 335.413421 62.380634 
L 336.016351 61.9727 
L 336.619281 62.495271 
L 337.222211 62.136972 
L 338.428072 59.961008 
L 339.031002 59.518864 
L 340.236862 60.190884 
L 341.442723 60.957901 
L 342.045653 63.065248 
L 342.648583 62.668936 
L 343.251513 61.371754 
L 343.854444 60.578182 
L 344.457374 61.795181 
L 345.060304 61.773912 
L 346.266164 60.388373 
L 346.869095 61.516421 
L 347.472025 61.417803 
L 349.883746 62.809502 
L 351.089606 61.414333 
L 351.692536 60.226182 
L 352.295466 59.322192 
L 352.898397 60.211941 
L 353.501327 60.689161 
L 355.310117 61.303008 
L 355.913048 62.041178 
L 356.515978 62.600283 
L 357.118908 62.191878 
L 357.721838 61.258192 
L 358.324768 60.747591 
L 358.927699 60.963731 
L 360.133559 60.549953 
L 360.736489 61.293658 
L 361.339419 62.701059 
L 361.94235 62.014578 
L 362.54528 60.876884 
L 363.14821 60.749451 
L 363.75114 61.735635 
L 364.35407 61.36167 
L 364.957001 60.728199 
L 366.162861 60.673569 
L 366.765791 60.887164 
L 367.368721 62.039474 
L 367.971652 62.163384 
L 368.574582 62.530412 
L 369.177512 62.676536 
L 369.780442 62.127848 
L 370.383372 61.413071 
L 370.986303 62.068292 
L 371.589233 61.82831 
L 372.795093 60.394126 
L 373.398023 60.350008 
L 374.000954 61.165161 
L 374.603884 61.600302 
L 375.206814 62.574881 
L 375.809744 61.867874 
L 376.412674 60.925348 
L 377.015605 60.588621 
L 377.618535 60.999985 
L 378.221465 61.03462 
L 379.427326 60.701552 
L 380.030256 60.593101 
L 380.633186 59.663847 
L 381.236116 61.521106 
L 381.839046 62.718653 
L 382.441977 62.255717 
L 383.044907 61.608486 
L 383.647837 61.470341 
L 384.250767 62.062984 
L 384.853697 62.333936 
L 385.456628 62.26547 
L 386.662488 61.540329 
L 387.868348 59.991549 
L 388.471279 61.145003 
L 389.074209 61.590124 
L 389.677139 60.291666 
L 390.280069 59.993532 
L 390.882999 61.220272 
L 391.48593 60.793129 
L 392.08886 60.951516 
L 392.69179 60.65969 
L 393.29472 59.936073 
L 393.89765 60.99394 
L 394.500581 60.921132 
L 395.706441 62.040041 
L 396.309371 61.35176 
L 398.118162 59.945058 
L 398.721092 61.747865 
L 399.324022 62.272817 
L 399.926952 61.605948 
L 400.529883 60.700619 
L 401.132813 60.895129 
L 401.735743 61.582775 
L 402.338673 61.516929 
L 403.544534 61.659233 
L 404.147464 62.460207 
L 404.750394 62.080121 
L 405.956254 62.566233 
L 406.559185 62.419187 
L 407.765045 61.301708 
L 408.367975 60.579419 
L 408.970905 60.750424 
L 409.573836 60.263888 
L 410.176766 60.837558 
L 410.779696 63.262731 
L 411.382626 62.96191 
L 411.985556 62.099184 
L 412.588487 61.798696 
L 413.191417 61.147237 
L 413.794347 61.327431 
L 414.397277 62.281321 
L 415.603138 61.090653 
L 416.206068 60.734489 
L 416.808998 61.708526 
L 417.411928 61.422764 
L 418.014858 60.869332 
L 418.617789 61.21794 
L 419.220719 62.602273 
L 419.823649 61.656245 
L 421.02951 58.571249 
L 421.63244 60.114906 
L 422.23537 60.694424 
L 423.44123 60.640479 
L 424.044161 60.819607 
L 424.647091 61.219244 
L 425.250021 61.069858 
L 425.852951 61.17122 
L 427.058812 60.408853 
L 427.661742 60.623824 
L 428.264672 61.781348 
L 428.867602 62.564574 
L 429.470532 62.423744 
L 430.073463 61.443807 
L 431.279323 61.067556 
L 431.882253 60.740337 
L 432.485183 61.434028 
L 433.088114 61.682971 
L 434.293974 61.827502 
L 434.896904 61.460516 
L 435.499834 61.498058 
L 436.102765 61.420939 
L 436.705695 61.477768 
L 437.911555 59.943668 
L 438.514485 59.539099 
L 439.117416 59.888287 
L 439.720346 61.053443 
L 440.323276 61.306295 
L 441.529136 61.3703 
L 442.132067 61.922754 
L 442.734997 62.089869 
L 443.337927 61.481542 
L 444.543787 59.239754 
L 445.146718 59.03832 
L 445.749648 61.732459 
L 446.352578 61.319313 
L 446.955508 60.609622 
L 447.558438 60.340888 
L 448.161369 61.545191 
L 448.764299 61.951542 
L 449.367229 62.576506 
L 449.970159 62.377636 
L 450.573089 61.969359 
L 451.77895 61.7174 
L 452.38188 61.831894 
L 452.98481 60.769946 
L 453.58774 59.099488 
L 454.190671 59.788001 
L 454.793601 61.667134 
L 455.396531 62.192507 
L 455.999461 60.88421 
L 456.602391 60.521532 
L 457.205322 60.295629 
L 457.808252 61.210304 
L 458.411182 61.548793 
L 459.014112 60.742229 
L 459.617042 60.303546 
L 460.219973 60.914543 
L 460.822903 60.152355 
L 461.425833 60.141893 
L 462.631694 59.812287 
L 463.837554 62.578115 
L 464.440484 62.179648 
L 465.646345 59.822826 
L 466.249275 59.307081 
L 467.455135 61.867051 
L 468.058065 61.695499 
L 468.660996 60.922204 
L 469.263926 61.295214 
L 469.866856 61.115704 
L 470.469786 61.286479 
L 471.072716 60.617572 
L 471.675647 61.111185 
L 472.278577 61.055896 
L 472.881507 60.400664 
L 474.087367 59.597279 
L 474.690298 59.621302 
L 475.293228 59.406317 
L 475.896158 59.020298 
L 476.499088 62.053782 
L 477.102018 61.889847 
L 478.307879 59.998947 
L 478.910809 59.736657 
L 479.513739 60.006639 
L 480.116669 61.296795 
L 480.7196 60.722914 
L 481.32253 59.533943 
L 483.13132 57.854903 
L 483.734251 60.537148 
L 484.337181 61.648735 
L 484.940111 62.299663 
L 486.145971 60.881589 
L 486.748902 60.712945 
L 487.351832 61.923593 
L 487.954762 61.904155 
L 488.557692 60.917515 
L 489.160622 59.432922 
L 489.763553 58.600286 
L 490.366483 60.979999 
L 490.969413 61.978758 
L 491.572343 61.450314 
L 492.175273 60.080593 
L 493.984064 59.487539 
L 494.586994 58.310468 
L 495.189924 57.962428 
L 495.792855 61.486583 
L 496.395785 61.193252 
L 496.998715 61.68959 
L 498.204575 61.243859 
L 498.807506 61.854292 
L 499.410436 62.011938 
L 500.013366 61.947691 
L 500.616296 62.442219 
L 501.219226 62.419632 
L 501.822157 62.065133 
L 502.425087 61.036263 
L 503.028017 60.760037 
L 503.630947 60.854423 
L 504.836808 60.201884 
L 506.645598 57.662083 
L 507.248529 58.539311 
L 507.851459 60.074766 
L 508.454389 60.094493 
L 509.057319 59.844042 
L 509.660249 60.244035 
L 510.26318 60.192851 
L 510.86611 59.226363 
L 511.46904 59.26643 
L 512.07197 61.139109 
L 512.6749 60.901218 
L 513.277831 60.192722 
L 513.880761 60.1678 
L 514.483691 59.002632 
L 515.086621 59.051916 
L 515.689551 61.576744 
L 516.895412 60.565153 
L 517.498342 62.111129 
L 518.101272 61.273125 
L 518.704202 59.925651 
L 519.307133 58.099673 
L 519.910063 58.052519 
L 520.512993 58.341826 
L 521.115923 58.438682 
L 521.718853 60.871941 
L 522.321784 60.427676 
L 522.924714 60.619188 
L 523.527644 60.2544 
L 524.130574 60.556161 
L 524.733504 60.379184 
L 525.336435 60.481098 
L 525.939365 62.678948 
L 526.542295 62.771362 
L 527.145225 61.545084 
L 527.748155 61.249211 
L 528.351086 60.677328 
L 528.954016 60.962699 
L 529.556946 61.378495 
L 530.159876 60.702993 
L 530.762806 60.424324 
L 531.365737 62.519772 
L 533.174527 59.875846 
L 533.777457 59.734986 
L 534.380388 60.329226 
L 534.983318 62.6113 
L 535.586248 62.144777 
L 536.189178 61.480702 
L 536.792108 61.646121 
L 537.997969 59.801294 
L 538.600899 59.617735 
L 539.806759 58.477595 
L 540.40969 59.251341 
L 541.01262 61.556984 
L 542.21848 60.460318 
L 542.821411 60.233195 
L 543.424341 61.364001 
L 544.027271 61.538188 
L 544.630201 61.373968 
L 545.233131 60.958736 
L 546.438992 59.403057 
L 547.041922 58.422171 
L 547.644852 59.819895 
L 548.247782 60.11813 
L 550.056573 59.156991 
L 550.659503 59.67121 
L 551.262433 60.401838 
L 551.865364 61.56358 
L 552.468294 62.458486 
L 553.071224 62.566476 
L 553.674154 61.652008 
L 554.277084 61.113157 
L 554.880015 61.06722 
L 555.482945 60.802058 
L 556.085875 59.751318 
L 556.688805 57.947829 
L 557.291735 57.485377 
L 557.894666 57.887563 
L 558.497596 58.611877 
L 559.100526 60.119905 
L 559.703456 61.148671 
L 560.306386 59.738901 
L 560.909317 59.990649 
L 561.512247 59.45531 
L 562.115177 60.624439 
L 562.718107 62.279542 
L 563.321037 61.668047 
L 563.923968 62.196707 
L 564.526898 61.103 
L 565.129828 61.583998 
L 565.732758 61.785812 
L 566.335688 62.127598 
L 566.938619 61.419768 
L 567.541549 61.095392 
L 568.144479 60.397584 
L 569.350339 62.741039 
L 569.95327 62.726716 
L 571.15913 59.340553 
L 571.76206 60.831097 
L 572.36499 61.21106 
L 572.967921 61.042685 
L 573.570851 60.575818 
L 574.173781 60.681953 
L 574.776711 61.263081 
L 575.379641 61.14232 
L 576.585502 60.466687 
L 577.188432 59.816353 
L 578.394292 59.969115 
L 579.600153 59.323325 
L 580.203083 59.767076 
L 580.806013 58.314951 
L 581.408943 58.501042 
L 582.011874 61.299667 
L 582.614804 62.238305 
L 583.217734 62.732417 
L 584.423595 60.965808 
L 585.026525 60.870568 
L 585.629455 60.923812 
L 586.232385 61.333405 
L 586.835315 61.309729 
L 588.041176 59.088535 
L 588.644106 59.710576 
L 589.247036 59.955244 
L 589.849966 60.764536 
L 590.452897 60.107655 
L 591.055827 59.770629 
L 592.864617 60.085929 
L 593.467548 59.472845 
L 594.070478 58.596725 
L 595.276338 57.448074 
L 595.879268 57.098678 
L 596.482199 56.486888 
L 597.085129 58.113708 
L 597.688059 58.359832 
L 598.893919 59.722557 
L 599.49685 59.720707 
L 600.70271 58.741743 
L 601.30564 58.01273 
L 601.90857 57.661179 
L 602.511501 59.059614 
L 603.114431 58.59711 
L 603.717361 58.834492 
L 604.923221 60.68425 
L 606.129082 60.436104 
L 607.937872 57.828465 
L 608.540803 60.501826 
L 609.143733 61.20022 
L 609.746663 60.104354 
L 610.952523 58.925474 
L 611.555454 59.671343 
L 612.158384 61.823832 
L 612.761314 62.387947 
L 613.364244 62.32469 
L 613.967174 61.895045 
L 614.570105 61.109806 
L 615.173035 60.038248 
L 615.775965 59.317231 
L 616.378895 59.940168 
L 616.981825 59.720235 
L 617.584756 59.626466 
L 618.187686 59.215638 
L 618.790616 58.631318 
L 619.393546 60.171291 
L 619.996476 59.915517 
L 620.599407 59.194843 
L 621.202337 58.695996 
L 621.805267 58.501329 
L 622.408197 61.485579 
L 623.011127 61.324124 
L 623.614058 59.817489 
L 624.216988 59.251198 
L 624.819918 59.798951 
L 626.025779 58.925458 
L 626.628709 58.983693 
L 627.231639 58.786272 
L 627.834569 57.880584 
L 628.437499 56.474667 
L 629.04043 56.252517 
L 629.64336 56.650884 
L 630.24629 56.890186 
L 630.84922 58.287125 
L 631.45215 58.496295 
L 632.055081 57.937634 
L 632.658011 57.607723 
L 633.260941 57.916715 
L 634.466801 61.38746 
L 635.069732 60.616864 
L 635.672662 59.551087 
L 636.275592 57.685317 
L 637.481452 55.283813 
L 638.084383 54.455788 
L 638.687313 55.154672 
L 639.290243 55.446811 
L 639.893173 56.338286 
L 640.496103 58.20762 
L 641.099034 57.93208 
L 641.701964 57.893777 
L 642.304894 57.418682 
L 642.907824 57.141704 
L 643.510754 57.67662 
L 644.113685 58.432259 
L 644.716615 60.525083 
L 645.319545 61.277104 
L 646.525405 59.257165 
L 647.128336 59.774827 
L 647.731266 60.887713 
L 648.334196 61.58454 
L 649.540056 59.145009 
L 650.745917 56.178039 
L 651.348847 56.245854 
L 651.951777 56.86789 
L 652.554707 59.169487 
L 653.157638 60.539376 
L 653.760568 60.66464 
L 654.363498 60.118228 
L 654.966428 58.61836 
L 656.775219 56.370822 
L 657.981079 58.95917 
L 658.584009 60.765658 
L 659.18694 60.510487 
L 661.59866 56.962489 
L 662.201591 56.274827 
L 662.804521 56.165867 
L 663.407451 55.678934 
L 664.010381 55.871826 
L 664.613311 56.3017 
L 665.216242 56.188361 
L 665.819172 56.806568 
L 666.422102 57.714243 
L 667.025032 58.067404 
L 667.627963 58.216948 
L 668.230893 58.158061 
L 668.833823 58.410311 
L 669.436753 59.329472 
L 670.642614 56.668144 
L 671.245544 55.764759 
L 671.848474 57.156622 
L 672.451404 58.936108 
L 673.054334 58.508696 
L 673.657265 57.550251 
L 674.260195 59.012962 
L 674.863125 58.028779 
L 675.466055 57.631279 
L 676.068985 59.096806 
L 676.671916 60.194198 
L 677.274846 60.308478 
L 677.877776 60.200942 
L 679.083636 59.79648 
L 679.083636 59.79648 
" clip-path="url(#p815c7c4bed)" style="fill: none; stroke: #800080; stroke-width: 1.5; stroke-linecap: square"/>
   </g>
   <g id="line2d_17">
    <path d="M 88.231792 61.55781 
L 105.645522 61.268926 
L 113.191471 61.231761 
L 126.541997 59.263251 
L 142.214353 56.068935 
L 150.921218 54.534311 
L 162.53037 53.407689 
L 175.300438 50.498181 
L 188.070507 48.928801 
L 199.679659 46.853422 
L 211.86927 47.622695 
L 224.05888 44.222839 
L 236.828948 43.696153 
L 248.438101 44.511863 
L 254.823135 43.622776 
L 261.208169 42.823392 
L 274.558695 43.98301 
L 289.070136 44.768309 
L 298.357458 45.340313 
L 314.610272 43.913724 
L 322.736679 43.379831 
L 336.667663 44.257855 
L 363.949172 45.00191 
L 372.656036 45.315114 
L 384.265189 44.229307 
L 392.391596 46.314994 
L 396.4548 47.361948 
L 397.615715 47.220448 
L 409.224868 45.133394 
L 421.414478 47.691185 
L 434.765004 46.327815 
L 445.793699 44.264549 
L 446.954614 44.492752 
L 458.563767 47.671669 
L 484.103903 45.359032 
L 495.713056 45.130692 
L 507.902667 46.821029 
L 524.155481 45.956249 
L 532.281888 45.384933 
L 536.925549 46.24087 
L 544.471498 47.656036 
L 545.632413 47.486563 
L 557.241566 45.108258 
L 570.592092 45.93133 
L 582.201245 45.760745 
L 594.390855 47.948409 
L 606.580466 46.842862 
L 618.770076 48.561876 
L 630.959687 46.849014 
L 632.701059 47.177266 
L 644.310212 49.531036 
L 656.499823 50.853392 
L 668.108976 50.580209 
L 668.108976 50.580209 
" clip-path="url(#p815c7c4bed)" style="fill: none; stroke: #a52a2a; stroke-width: 1.5; stroke-linecap: square"/>
   </g>
   <g id="line2d_18">
    <path d="M 78.512068 61.674078 
L 88.121652 61.653644 
L 91.124647 61.50217 
L 94.127642 61.290981 
L 97.731236 61.537046 
L 102.536028 61.25485 
L 104.938424 61.012214 
L 106.740221 60.963529 
L 109.142617 61.058502 
L 118.151602 60.760936 
L 120.553998 61.167547 
L 125.35879 60.996933 
L 126.559988 60.842402 
L 128.361785 60.622488 
L 133.166577 60.390043 
L 134.968374 60.320235 
L 136.169572 60.646635 
L 137.971369 61.142647 
L 139.773166 61.344863 
L 142.175562 61.120074 
L 147.580953 61.233082 
L 151.184547 61.070923 
L 153.586943 61.344009 
L 154.788141 61.367715 
L 155.989339 61.510966 
L 157.190537 61.338869 
L 158.992334 60.828291 
L 160.794131 60.211161 
L 161.39473 60.168939 
L 162.595928 60.483899 
L 164.397725 60.976895 
L 168.001319 61.353579 
L 169.803116 61.137001 
L 172.205512 60.867121 
L 177.610903 61.257432 
L 181.214497 61.32094 
L 183.616893 61.357441 
L 190.223482 60.834857 
L 192.625878 60.956141 
L 194.427675 61.261252 
L 205.839056 61.212024 
L 210.043249 60.942069 
L 211.244447 60.847644 
L 215.44864 60.770939 
L 216.649838 60.94105 
L 217.851036 60.873681 
L 220.253432 61.167884 
L 224.457625 60.788748 
L 225.658823 60.978584 
L 226.860021 61.283092 
L 228.061219 61.284282 
L 242.475595 61.407955 
L 246.079189 60.909653 
L 247.880986 60.868401 
L 253.286377 61.060817 
L 256.889971 60.906885 
L 259.292367 60.701274 
L 260.493565 60.847863 
L 261.694763 61.008823 
L 264.097159 60.888747 
L 265.898956 60.884561 
L 267.700753 61.126743 
L 268.901951 61.335379 
L 270.703748 61.193273 
L 272.505545 61.019933 
L 278.511535 61.031082 
L 282.115129 60.928228 
L 287.52052 60.835061 
L 289.322317 60.877611 
L 291.724713 60.744443 
L 293.52651 60.847468 
L 294.727708 60.698371 
L 296.529505 60.475513 
L 297.130104 60.533968 
L 298.931901 61.033999 
L 300.733698 61.307116 
L 305.53849 60.917699 
L 307.940886 61.069458 
L 312.745678 61.048202 
L 313.946876 61.047322 
L 316.949871 60.755681 
L 319.352267 61.119104 
L 321.754663 61.047059 
L 322.955861 61.16785 
L 324.157059 61.233578 
L 325.958856 61.163273 
L 328.361252 60.958088 
L 330.763648 61.113616 
L 334.367242 61.149103 
L 336.769638 61.002123 
L 339.172034 61.071553 
L 341.57443 60.992307 
L 349.982816 60.874109 
L 351.184014 60.960376 
L 352.385212 61.209905 
L 353.58641 61.407057 
L 357.790603 61.073865 
L 361.394197 60.916074 
L 364.997791 61.099456 
L 372.204979 60.953188 
L 376.409172 60.720184 
L 378.811568 60.891871 
L 383.015761 61.282978 
L 384.817558 60.847791 
L 387.820553 60.021362 
L 389.62235 60.386014 
L 390.823548 60.796691 
L 392.024746 60.912353 
L 393.225944 60.856331 
L 399.231934 61.024399 
L 413.045711 60.832722 
L 415.448107 60.754398 
L 417.249904 61.116469 
L 419.051701 61.021616 
L 420.252899 60.775295 
L 424.457092 60.117578 
L 427.460087 60.371218 
L 428.661285 60.388667 
L 431.66428 60.549797 
L 432.865478 60.619207 
L 434.667275 60.889021 
L 435.267874 61.052533 
L 436.469072 61.073977 
L 438.871468 60.84612 
L 442.475062 60.872628 
L 446.078656 61.011282 
L 450.282849 60.812643 
L 453.285844 61.041476 
L 454.487042 61.12741 
L 456.288839 61.095646 
L 458.090636 60.73106 
L 459.291834 60.396522 
L 461.69423 60.034435 
L 464.096626 60.390982 
L 468.300819 60.886702 
L 472.505012 60.830798 
L 474.907408 60.990936 
L 477.910403 60.891376 
L 480.312799 61.32866 
L 482.114596 61.244075 
L 483.916393 61.195286 
L 486.318789 61.253667 
L 489.922383 61.05695 
L 491.72418 60.749942 
L 493.525976 60.429349 
L 494.727174 60.525056 
L 499.531966 61.111507 
L 503.13556 60.814778 
L 505.537956 61.005334 
L 509.742149 61.055535 
L 516.348738 61.149078 
L 519.952332 60.991714 
L 522.354728 61.054547 
L 523.555926 60.961302 
L 530.162515 59.431844 
L 530.763114 59.492033 
L 532.564911 60.961741 
L 533.16551 61.171552 
L 534.366708 61.179985 
L 536.168505 61.375668 
L 537.970302 61.320678 
L 540.372698 61.077674 
L 543.375693 61.421473 
L 545.17749 61.165544 
L 546.378688 60.942902 
L 550.582881 60.905985 
L 552.384678 61.184229 
L 552.985277 61.287817 
L 554.787074 61.134466 
L 558.390668 60.634773 
L 562.594861 60.873293 
L 571.003247 60.932848 
L 572.204445 60.891581 
L 575.808039 60.876896 
L 579.411633 60.397776 
L 583.015227 60.94777 
L 584.817024 60.899744 
L 586.018222 60.91006 
L 587.820019 61.211573 
L 592.624811 61.26605 
L 595.027207 60.461181 
L 596.829004 59.915531 
L 599.831999 61.41331 
L 602.234395 61.022014 
L 607.639786 60.621796 
L 609.441583 60.713118 
L 612.444578 60.96115 
L 614.846974 61.000198 
L 617.849969 60.698213 
L 619.051167 60.802416 
L 620.852964 61.005194 
L 622.654761 60.90239 
L 625.057157 60.596889 
L 628.660751 60.671333 
L 632.864944 59.523278 
L 634.666741 60.667159 
L 635.26734 61.009776 
L 635.867939 61.11442 
L 638.270335 60.687235 
L 640.072132 60.369211 
L 641.27333 60.354727 
L 643.675726 60.683019 
L 644.876924 60.646971 
L 646.078122 60.476884 
L 649.081117 60.520043 
L 650.282315 60.527795 
L 653.28531 60.841326 
L 654.486508 60.86012 
L 658.090102 60.717738 
L 661.693696 60.690925 
L 663.495493 60.826828 
L 666.498488 61.112427 
L 670.102082 61.042152 
L 674.306275 61.065711 
L 675.507473 60.75613 
L 677.909869 59.861066 
L 678.510468 59.790004 
L 678.510468 59.790004 
" clip-path="url(#p815c7c4bed)" style="fill: none; stroke: #ff00ff; stroke-width: 1.5; stroke-linecap: square"/>
   </g>
   <g id="line2d_19">
    <path d="M 80.509106 61.614817 
L 84.702857 61.594108 
L 93.090359 61.57245 
L 97.28411 61.311467 
L 99.081432 61.156833 
L 102.676075 61.300889 
L 104.473397 61.457513 
L 107.468934 61.546777 
L 110.46447 61.282446 
L 114.059113 60.967345 
L 124.243937 61.155655 
L 129.036795 61.899849 
L 135.626975 61.801037 
L 139.820726 61.657489 
L 144.014477 61.862188 
L 149.406442 61.658652 
L 154.798408 61.899849 
L 160.190373 61.803414 
L 164.384124 61.651991 
L 166.181446 61.708343 
L 170.375197 61.389783 
L 170.974304 61.336282 
L 176.36627 61.899849 
L 196.13681 61.795532 
L 200.33056 61.665822 
L 215.907349 61.667656 
L 218.902886 61.614817 
L 223.096637 61.689162 
L 227.889495 61.899849 
L 231.484139 61.799706 
L 236.276997 61.614817 
L 246.46182 61.694579 
L 251.853786 61.899849 
L 256.646644 61.810659 
L 260.840395 61.64257 
L 266.831467 61.899849 
L 271.025218 61.812877 
L 275.818077 61.643393 
L 286.0029 61.664833 
L 288.998436 61.36575 
L 290.795758 61.551621 
L 294.390402 61.899849 
L 296.786831 61.796526 
L 299.18326 61.513449 
L 300.980582 61.328302 
L 303.377011 61.239471 
L 308.169869 61.607874 
L 314.760049 61.59774 
L 318.9538 61.434687 
L 320.152015 61.51801 
L 323.746658 61.869006 
L 326.143087 61.899849 
L 349.508271 61.814173 
L 353.702022 61.657113 
L 359.093987 61.899849 
L 366.882382 61.814439 
L 371.67524 61.661058 
L 377.067205 61.899849 
L 386.652922 61.838653 
L 392.044887 61.373328 
L 396.837745 61.874176 
L 402.229711 61.665652 
L 407.621676 61.899849 
L 412.414534 61.801038 
L 417.207392 61.614817 
L 422.000251 61.6901 
L 426.793109 61.899849 
L 447.761863 61.797584 
L 451.955614 61.660153 
L 457.347579 61.899849 
L 460.343116 61.859814 
L 466.334189 61.068251 
L 471.127047 61.899849 
L 477.118119 61.79842 
L 480.712763 61.636601 
L 486.703836 61.899849 
L 491.496694 61.815577 
L 495.690445 61.638538 
L 499.884196 61.837031 
L 507.073483 61.631174 
L 517.857414 61.614817 
L 525.046701 61.342039 
L 530.438666 61.459139 
L 534.632417 61.899849 
L 547.812777 61.800043 
L 553.204743 61.630982 
L 558.596708 61.703986 
L 562.790459 61.855046 
L 567.583317 61.646259 
L 572.376175 61.829397 
L 577.169034 61.660677 
L 582.560999 61.899849 
L 592.146715 61.796554 
L 595.741359 61.637836 
L 601.133324 61.899849 
L 604.727968 61.728498 
L 607.723504 61.481656 
L 613.11547 61.412707 
L 615.511899 61.383673 
L 620.903864 61.87139 
L 626.29583 61.662695 
L 630.489581 61.81688 
L 635.282439 61.122297 
L 637.079761 61.390686 
L 640.075297 61.849696 
L 641.872619 61.899849 
L 652.057442 61.799429 
L 661.643159 61.343313 
L 664.039588 61.456688 
L 671.228875 61.899849 
L 679.01727 61.899849 
L 679.01727 61.899849 
" clip-path="url(#p815c7c4bed)" style="fill: none; stroke: #00ffff; stroke-width: 1.5; stroke-linecap: square"/>
   </g>
   <g id="patch_3">
    <path d="M 46.64 390.04 
L 46.64 25.44 
" style="fill: none; stroke: #000000; stroke-width: 0.8; stroke-linejoin: miter; stroke-linecap: square"/>
   </g>
   <g id="patch_4">
    <path d="M 709.2 390.04 
L 709.2 25.44 
" style="fill: none; stroke: #000000; stroke-width: 0.8; stroke-linejoin: miter; stroke-linecap: square"/>
   </g>
   <g id="patch_5">
    <path d="M 46.64 390.04 
L 709.2 390.04 
" style="fill: none; stroke: #000000; stroke-width: 0.8; stroke-linejoin: miter; stroke-linecap: square"/>
   </g>
   <g id="patch_6">
    <path d="M 46.64 25.44 
L 709.2 25.44 
" style="fill: none; stroke: #000000; stroke-width: 0.8; stroke-linejoin: miter; stroke-linecap: square"/>
   </g>
   <g id="text_14">
    <!-- charts/episodic_return for c51_atari (per game) -->
    <g transform="translate(235.771562 19.44) scale(0.12 -0.12)">
     <defs>
      <path id="DejaVuSans-2f" d="M 1625 4666 
L 2156 4666 
L 531 -594 
L 0 -594 
L 1625 4666 
z
" transform="scale(0.015625)"/>
      <path id="DejaVuSans-5f" d="M 3263 -1063 
L 3263 -1509 
L -63 -1509 
L -63 -1063 
L 3263 -1063 
z
" transform="scale(0.015625)"/>
      <path id="DejaVuSans-66" d="M 2375 4863 
L 2375 4384 
L 1825 4384 
Q 1516 4384 1395 4259 
Q 1275 4134 1275 3809 
L 1275 3500 
L 2222 3500 
L 2222 3053 
L 1275 3053 
L 1275 0 
L 697 0 
L 697 3053 
L 147 3053 
L 147 3500 
L 697 3500 
L 697 3744 
Q 697 4328 969 4595 
Q 1241 4863 1831 4863 
L 2375 4863 
z
" transform="scale(0.015625)"/>
      <path id="DejaVuSans-35" d="M 691 4666 
L 3169 4666 
L 3169 4134 
L 1269 4134 
L 1269 2991 
Q 1406 3038 1543 3061 
Q 1681 3084 1819 3084 
Q 2600 3084 3056 2656 
Q 3513 2228 3513 1497 
Q 3513 744 3044 326 
Q 2575 -91 1722 -91 
Q 1428 -91 1123 -41 
Q 819 9 494 109 
L 494 744 
Q 775 591 1075 516 
Q 1375 441 1709 441 
Q 2250 441 2565 725 
Q 2881 1009 2881 1497 
Q 2881 1984 2565 2268 
Q 2250 2553 1709 2553 
Q 1456 2553 1204 2497 
Q 953 2441 691 2322 
L 691 4666 
z
" transform="scale(0.015625)"/>
      <path id="DejaVuSans-67" d="M 2906 1791 
Q 2906 2416 2648 2759 
Q 2391 3103 1925 3103 
Q 1463 3103 1205 2759 
Q 947 2416 947 1791 
Q 947 1169 1205 825 
Q 1463 481 1925 481 
Q 2391 481 2648 825 
Q 2906 1169 2906 1791 
z
M 3481 434 
Q 3481 -459 3084 -895 
Q 2688 -1331 1869 -1331 
Q 1566 -1331 1297 -1286 
Q 1028 -1241 775 -1147 
L 775 -588 
Q 1028 -725 1275 -790 
Q 1522 -856 1778 -856 
Q 2344 -856 2625 -561 
Q 2906 -266 2906 331 
L 2906 616 
Q 2728 306 2450 153 
Q 2172 0 1784 0 
Q 1141 0 747 490 
Q 353 981 353 1791 
Q 353 2603 747 3093 
Q 1141 3584 1784 3584 
Q 2172 3584 2450 3431 
Q 2728 3278 2906 2969 
L 2906 3500 
L 3481 3500 
L 3481 434 
z
" transform="scale(0.015625)"/>
     </defs>
     <use xlink:href="#DejaVuSans-63"/>
     <use xlink:href="#DejaVuSans-68" transform="translate(54.980469 0)"/>
     <use xlink:href="#DejaVuSans-61" transform="translate(118.359375 0)"/>
     <use xlink:href="#DejaVuSans-72" transform="translate(179.638672 0)"/>
     <use xlink:href="#DejaVuSans-74" transform="translate(220.751953 0)"/>
     <use xlink:href="#DejaVuSans-73" transform="translate(259.960938 0)"/>
     <use xlink:href="#DejaVuSans-2f" transform="translate(312.060547 0)"/>
     <use xlink:href="#DejaVuSans-65" transform="translate(345.751953 0)"/>
     <use xlink:href="#DejaVuSans-70" transform="translate(407.275391 0)"/>
     <use xlink:href="#DejaVuSans-69" transform="translate(470.751953 0)"/>
     <use xlink:href="#DejaVuSans-73" transform="translate(498.535156 0)"/>
     <use xlink:href="#DejaVuSans-6f" transform="translate(550.634766 0)"/>
     <use xlink:href="#DejaVuSans-64" transform="translate(611.816406 0)"/>
     <use xlink:href="#DejaVuSans-69" transform="translate(675.292969 0)"/>
     <use xlink:href="#DejaVuSans-63" transform="translate(703.076172 0)"/>
     <use xlink:href="#DejaVuSans-5f" transform="translate(758.056641 0)"/>
     <use xlink:href="#DejaVuSans-72" transform="translate(808.056641 0)"/>
     <use xlink:href="#DejaVuSans-65" transform="translate(846.919922 0)"/>
     <use xlink:href="#DejaVuSans-74" transform="translate(908.443359 0)"/>
     <use xlink:href="#DejaVuSans-75" transform="translate(947.652344 0)"/>
     <use xlink:href="#DejaVuSans-72" transform="translate(1011.03125 0)"/>
     <use xlink:href="#DejaVuSans-6e" transform="translate(1050.394531 0)"/>
     <use xlink:href="#DejaVuSans-20" transform="translate(1113.773438 0)"/>
     <use xlink:href="#DejaVuSans-66" transform="translate(1145.560547 0)"/>
     <use xlink:href="#DejaVuSans-6f" transform="translate(1180.765625 0)"/>
     <use xlink:href="#DejaVuSans-72" transform="translate(1241.947266 0)"/>
     <use xlink:href="#DejaVuSans-20" transform="translate(1283.060547 0)"/>
     <use xlink:href="#DejaVuSans-63" transform="translate(1314.847656 0)"/>
     <use xlink:href="#DejaVuSans-35" transform="translate(1369.828125 0)"/>
     <use xlink:href="#DejaVuSans-31" transform="translate(1433.451172 0)"/>
     <use xlink:href="#DejaVuSans-5f" transform="translate(1497.074219 0)"/>
     <use xlink:href="#DejaVuSans-61" transform="translate(1547.074219 0)"/>
     <use xlink:href="#DejaVuSans-74" transform="translate(1608.353516 0)"/>
     <use xlink:href="#DejaVuSans-61" transform="translate(1647.5625 0)"/>
     <use xlink:href="#DejaVuSans-72" transform="translate(1708.841797 0)"/>
     <use xlink:href="#DejaVuSans-69" transform="translate(1749.955078 0)"/>
     <use xlink:href="#DejaVuSans-20" transform="translate(1777.738281 0)"/>
     <use xlink:href="#DejaVuSans-28" transform="translate(1809.525391 0)"/>
     <use xlink:href="#DejaVuSans-70" transform="translate(1848.539062 0)"/>
     <use xlink:href="#DejaVuSans-65" transform="translate(1912.015625 0)"/>
     <use xlink:href="#DejaVuSans-72" transform="translate(1973.539062 0)"/>
     <use xlink:href="#DejaVuSans-20" transform="translate(2014.652344 0)"/>
     <use xlink:href="#DejaVuSans-67" transform="translate(2046.439453 0)"/>
     <use xlink:href="#DejaVuSans-61" transform="translate(2109.916016 0)"/>
     <use xlink:href="#DejaVuSans-6d" transform="translate(2171.195312 0)"/>
     <use xlink:href="#DejaVuSans-65" transform="translate(2268.607422 0)"/>
     <use xlink:href="#DejaVuSans-29" transform="translate(2330.130859 0)"/>
    </g>
   </g>
   <g id="legend_1">
    <g id="patch_7">
     <path d="M 53.64 385.04 
L 138.89 385.04 
Q 140.89 385.04 140.89 383.04 
L 140.89 251.936875 
Q 140.89 249.936875 138.89 249.936875 
L 53.64 249.936875 
Q 51.64 249.936875 51.64 251.936875 
L 51.64 383.04 
Q 51.64 385.04 53.64 385.04 
z
" style="fill: #ffffff; opacity: 0.8; stroke: #cccccc; stroke-linejoin: miter"/>
    </g>
    <g id="text_15">
     <!-- Game -->
     <g transform="translate(81.379844 261.535313) scale(0.1 -0.1)">
      <defs>
       <path id="DejaVuSans-47" d="M 3809 666 
L 3809 1919 
L 2778 1919 
L 2778 2438 
L 4434 2438 
L 4434 434 
Q 4069 175 3628 42 
Q 3188 -91 2688 -91 
Q 1594 -91 976 548 
Q 359 1188 359 2328 
Q 359 3472 976 4111 
Q 1594 4750 2688 4750 
Q 3144 4750 3555 4637 
Q 3966 4525 4313 4306 
L 4313 3634 
Q 3963 3931 3569 4081 
Q 3175 4231 2741 4231 
Q 1884 4231 1454 3753 
Q 1025 3275 1025 2328 
Q 1025 1384 1454 906 
Q 1884 428 2741 428 
Q 3075 428 3337 486 
Q 3600 544 3809 666 
z
" transform="scale(0.015625)"/>
      </defs>
      <use xlink:href="#DejaVuSans-47"/>
      <use xlink:href="#DejaVuSans-61" transform="translate(77.490234 0)"/>
      <use xlink:href="#DejaVuSans-6d" transform="translate(138.769531 0)"/>
      <use xlink:href="#DejaVuSans-65" transform="translate(236.181641 0)"/>
     </g>
    </g>
    <g id="line2d_20">
     <path d="M 55.64 272.713437 
L 65.64 272.713437 
L 75.64 272.713437 
" style="fill: none; stroke: #ff0000; stroke-width: 1.5; stroke-linecap: square"/>
    </g>
    <g id="text_16">
     <!-- Alien -->
     <g transform="translate(83.64 276.213437) scale(0.1 -0.1)">
      <defs>
       <path id="DejaVuSans-41" d="M 2188 4044 
L 1331 1722 
L 3047 1722 
L 2188 4044 
z
M 1831 4666 
L 2547 4666 
L 4325 0 
L 3669 0 
L 3244 1197 
L 1141 1197 
L 716 0 
L 50 0 
L 1831 4666 
z
" transform="scale(0.015625)"/>
      </defs>
      <use xlink:href="#DejaVuSans-41"/>
      <use xlink:href="#DejaVuSans-6c" transform="translate(68.408203 0)"/>
      <use xlink:href="#DejaVuSans-69" transform="translate(96.191406 0)"/>
      <use xlink:href="#DejaVuSans-65" transform="translate(123.974609 0)"/>
      <use xlink:href="#DejaVuSans-6e" transform="translate(185.498047 0)"/>
     </g>
    </g>
    <g id="line2d_21">
     <path d="M 55.64 287.391563 
L 65.64 287.391563 
L 75.64 287.391563 
" style="fill: none; stroke: #0000ff; stroke-width: 1.5; stroke-linecap: square"/>
    </g>
    <g id="text_17">
     <!-- Amidar -->
     <g transform="translate(83.64 290.891563) scale(0.1 -0.1)">
      <use xlink:href="#DejaVuSans-41"/>
      <use xlink:href="#DejaVuSans-6d" transform="translate(68.408203 0)"/>
      <use xlink:href="#DejaVuSans-69" transform="translate(165.820312 0)"/>
      <use xlink:href="#DejaVuSans-64" transform="translate(193.603516 0)"/>
      <use xlink:href="#DejaVuSans-61" transform="translate(257.080078 0)"/>
      <use xlink:href="#DejaVuSans-72" transform="translate(318.359375 0)"/>
     </g>
    </g>
    <g id="line2d_22">
     <path d="M 55.64 302.069687 
L 65.64 302.069687 
L 75.64 302.069687 
" style="fill: none; stroke: #008000; stroke-width: 1.5; stroke-linecap: square"/>
    </g>
    <g id="text_18">
     <!-- Assault -->
     <g transform="translate(83.64 305.569687) scale(0.1 -0.1)">
      <use xlink:href="#DejaVuSans-41"/>
      <use xlink:href="#DejaVuSans-73" transform="translate(68.408203 0)"/>
      <use xlink:href="#DejaVuSans-73" transform="translate(120.507812 0)"/>
      <use xlink:href="#DejaVuSans-61" transform="translate(172.607422 0)"/>
      <use xlink:href="#DejaVuSans-75" transform="translate(233.886719 0)"/>
      <use xlink:href="#DejaVuSans-6c" transform="translate(297.265625 0)"/>
      <use xlink:href="#DejaVuSans-74" transform="translate(325.048828 0)"/>
     </g>
    </g>
    <g id="line2d_23">
     <path d="M 55.64 316.747813 
L 65.64 316.747813 
L 75.64 316.747813 
" style="fill: none; stroke: #ffa500; stroke-width: 1.5; stroke-linecap: square"/>
    </g>
    <g id="text_19">
     <!-- Boxing -->
     <g transform="translate(83.64 320.247813) scale(0.1 -0.1)">
      <defs>
       <path id="DejaVuSans-42" d="M 1259 2228 
L 1259 519 
L 2272 519 
Q 2781 519 3026 730 
Q 3272 941 3272 1375 
Q 3272 1813 3026 2020 
Q 2781 2228 2272 2228 
L 1259 2228 
z
M 1259 4147 
L 1259 2741 
L 2194 2741 
Q 2656 2741 2882 2914 
Q 3109 3088 3109 3444 
Q 3109 3797 2882 3972 
Q 2656 4147 2194 4147 
L 1259 4147 
z
M 628 4666 
L 2241 4666 
Q 2963 4666 3353 4366 
Q 3744 4066 3744 3513 
Q 3744 3084 3544 2831 
Q 3344 2578 2956 2516 
Q 3422 2416 3680 2098 
Q 3938 1781 3938 1306 
Q 3938 681 3513 340 
Q 3088 0 2303 0 
L 628 0 
L 628 4666 
z
" transform="scale(0.015625)"/>
       <path id="DejaVuSans-78" d="M 3513 3500 
L 2247 1797 
L 3578 0 
L 2900 0 
L 1881 1375 
L 863 0 
L 184 0 
L 1544 1831 
L 300 3500 
L 978 3500 
L 1906 2253 
L 2834 3500 
L 3513 3500 
z
" transform="scale(0.015625)"/>
      </defs>
      <use xlink:href="#DejaVuSans-42"/>
      <use xlink:href="#DejaVuSans-6f" transform="translate(68.603516 0)"/>
      <use xlink:href="#DejaVuSans-78" transform="translate(126.660156 0)"/>
      <use xlink:href="#DejaVuSans-69" transform="translate(185.839844 0)"/>
      <use xlink:href="#DejaVuSans-6e" transform="translate(213.623047 0)"/>
      <use xlink:href="#DejaVuSans-67" transform="translate(277.001953 0)"/>
     </g>
    </g>
    <g id="line2d_24">
     <path d="M 55.64 331.425938 
L 65.64 331.425938 
L 75.64 331.425938 
" style="fill: none; stroke: #800080; stroke-width: 1.5; stroke-linecap: square"/>
    </g>
    <g id="text_20">
     <!-- Breakout -->
     <g transform="translate(83.64 334.925938) scale(0.1 -0.1)">
      <defs>
       <path id="DejaVuSans-6b" d="M 581 4863 
L 1159 4863 
L 1159 1991 
L 2875 3500 
L 3609 3500 
L 1753 1863 
L 3688 0 
L 2938 0 
L 1159 1709 
L 1159 0 
L 581 0 
L 581 4863 
z
" transform="scale(0.015625)"/>
      </defs>
      <use xlink:href="#DejaVuSans-42"/>
      <use xlink:href="#DejaVuSans-72" transform="translate(68.603516 0)"/>
      <use xlink:href="#DejaVuSans-65" transform="translate(107.466797 0)"/>
      <use xlink:href="#DejaVuSans-61" transform="translate(168.990234 0)"/>
      <use xlink:href="#DejaVuSans-6b" transform="translate(230.269531 0)"/>
      <use xlink:href="#DejaVuSans-6f" transform="translate(284.554688 0)"/>
      <use xlink:href="#DejaVuSans-75" transform="translate(345.736328 0)"/>
      <use xlink:href="#DejaVuSans-74" transform="translate(409.115234 0)"/>
     </g>
    </g>
    <g id="line2d_25">
     <path d="M 55.64 346.104062 
L 65.64 346.104062 
L 75.64 346.104062 
" style="fill: none; stroke: #a52a2a; stroke-width: 1.5; stroke-linecap: square"/>
    </g>
    <g id="text_21">
     <!-- Freeway -->
     <g transform="translate(83.64 349.604062) scale(0.1 -0.1)">
      <defs>
       <path id="DejaVuSans-46" d="M 628 4666 
L 3309 4666 
L 3309 4134 
L 1259 4134 
L 1259 2759 
L 3109 2759 
L 3109 2228 
L 1259 2228 
L 1259 0 
L 628 0 
L 628 4666 
z
" transform="scale(0.015625)"/>
       <path id="DejaVuSans-77" d="M 269 3500 
L 844 3500 
L 1563 769 
L 2278 3500 
L 2956 3500 
L 3675 769 
L 4391 3500 
L 4966 3500 
L 4050 0 
L 3372 0 
L 2619 2869 
L 1863 0 
L 1184 0 
L 269 3500 
z
" transform="scale(0.015625)"/>
       <path id="DejaVuSans-79" d="M 2059 -325 
Q 1816 -950 1584 -1140 
Q 1353 -1331 966 -1331 
L 506 -1331 
L 506 -850 
L 844 -850 
Q 1081 -850 1212 -737 
Q 1344 -625 1503 -206 
L 1606 56 
L 191 3500 
L 800 3500 
L 1894 763 
L 2988 3500 
L 3597 3500 
L 2059 -325 
z
" transform="scale(0.015625)"/>
      </defs>
      <use xlink:href="#DejaVuSans-46"/>
      <use xlink:href="#DejaVuSans-72" transform="translate(50.269531 0)"/>
      <use xlink:href="#DejaVuSans-65" transform="translate(89.132812 0)"/>
      <use xlink:href="#DejaVuSans-65" transform="translate(150.65625 0)"/>
      <use xlink:href="#DejaVuSans-77" transform="translate(212.179688 0)"/>
      <use xlink:href="#DejaVuSans-61" transform="translate(293.966797 0)"/>
      <use xlink:href="#DejaVuSans-79" transform="translate(355.246094 0)"/>
     </g>
    </g>
    <g id="line2d_26">
     <path d="M 55.64 360.782187 
L 65.64 360.782187 
L 75.64 360.782187 
" style="fill: none; stroke: #ff00ff; stroke-width: 1.5; stroke-linecap: square"/>
    </g>
    <g id="text_22">
     <!-- MsPacman -->
     <g transform="translate(83.64 364.282187) scale(0.1 -0.1)">
      <defs>
       <path id="DejaVuSans-4d" d="M 628 4666 
L 1569 4666 
L 2759 1491 
L 3956 4666 
L 4897 4666 
L 4897 0 
L 4281 0 
L 4281 4097 
L 3078 897 
L 2444 897 
L 1241 4097 
L 1241 0 
L 628 0 
L 628 4666 
z
" transform="scale(0.015625)"/>
       <path id="DejaVuSans-50" d="M 1259 4147 
L 1259 2394 
L 2053 2394 
Q 2494 2394 2734 2622 
Q 2975 2850 2975 3272 
Q 2975 3691 2734 3919 
Q 2494 4147 2053 4147 
L 1259 4147 
z
M 628 4666 
L 2053 4666 
Q 2838 4666 3239 4311 
Q 3641 3956 3641 3272 
Q 3641 2581 3239 2228 
Q 2838 1875 2053 1875 
L 1259 1875 
L 1259 0 
L 628 0 
L 628 4666 
z
" transform="scale(0.015625)"/>
      </defs>
      <use xlink:href="#DejaVuSans-4d"/>
      <use xlink:href="#DejaVuSans-73" transform="translate(86.279297 0)"/>
      <use xlink:href="#DejaVuSans-50" transform="translate(138.378906 0)"/>
      <use xlink:href="#DejaVuSans-61" transform="translate(194.181641 0)"/>
      <use xlink:href="#DejaVuSans-63" transform="translate(255.460938 0)"/>
      <use xlink:href="#DejaVuSans-6d" transform="translate(310.441406 0)"/>
      <use xlink:href="#DejaVuSans-61" transform="translate(407.853516 0)"/>
      <use xlink:href="#DejaVuSans-6e" transform="translate(469.132812 0)"/>
     </g>
    </g>
    <g id="line2d_27">
     <path d="M 55.64 375.460312 
L 65.64 375.460312 
L 75.64 375.460312 
" style="fill: none; stroke: #00ffff; stroke-width: 1.5; stroke-linecap: square"/>
    </g>
    <g id="text_23">
     <!-- Pong -->
     <g transform="translate(83.64 378.960312) scale(0.1 -0.1)">
      <use xlink:href="#DejaVuSans-50"/>
      <use xlink:href="#DejaVuSans-6f" transform="translate(56.677734 0)"/>
      <use xlink:href="#DejaVuSans-6e" transform="translate(117.859375 0)"/>
      <use xlink:href="#DejaVuSans-67" transform="translate(181.238281 0)"/>
     </g>
    </g>
   </g>
  </g>
 </g>
 <defs>
  <clipPath id="p815c7c4bed">
   <rect x="46.64" y="25.44" width="662.56" height="364.6"/>
  </clipPath>
 </defs>
</svg>
