<?xml version="1.0" encoding="utf-8" standalone="no"?>
<!DOCTYPE svg PUBLIC "-//W3C//DTD SVG 1.1//EN"
  "http://www.w3.org/Graphics/SVG/1.1/DTD/svg11.dtd">
<svg xmlns:xlink="http://www.w3.org/1999/xlink" width="720pt" height="432pt" viewBox="0 0 720 432" xmlns="http://www.w3.org/2000/svg" version="1.1">
 <metadata>
  <rdf:RDF xmlns:dc="http://purl.org/dc/elements/1.1/" xmlns:cc="http://creativecommons.org/ns#" xmlns:rdf="http://www.w3.org/1999/02/22-rdf-syntax-ns#">
   <cc:Work>
    <dc:type rdf:resource="http://purl.org/dc/dcmitype/StillImage"/>
    <dc:date>2025-02-05T20:31:21.624841</dc:date>
    <dc:format>image/svg+xml</dc:format>
    <dc:creator>
     <cc:Agent>
      <dc:title>Matplotlib v3.10.0, https://matplotlib.org/</dc:title>
     </cc:Agent>
    </dc:creator>
   </cc:Work>
  </rdf:RDF>
 </metadata>
 <defs>
  <style type="text/css">*{stroke-linejoin: round; stroke-linecap: butt}</style>
 </defs>
 <g id="figure_1">
  <g id="patch_1">
   <path d="M 0 432 
L 720 432 
L 720 0 
L 0 0 
z
" style="fill: #ffffff"/>
  </g>
  <g id="axes_1">
   <g id="patch_2">
    <path d="M 51.05 390.04 
L 709.2 390.04 
L 709.2 25.44 
L 51.05 25.44 
z
" style="fill: #ffffff"/>
   </g>
   <g id="FillBetweenPolyCollection_1">
    <defs>
     <path id="m6afbf4c0ca" d="M 80.965909 -191.114545 
L 80.965909 -58.532727 
L 81.564826 -76.015655 
L 82.163743 -93.498583 
L 82.76266 -110.981511 
L 83.361577 -124.239692 
L 83.960495 -137.351888 
L 84.559412 -150.464084 
L 85.158329 -159.49752 
L 85.757246 -168.238984 
L 86.356163 -176.980448 
L 86.95508 -185.721912 
L 87.553997 -194.463375 
L 88.152914 -203.204839 
L 88.751831 -208.159515 
L 89.350748 -216.268373 
L 89.949666 -221.320373 
L 90.548583 -229.331907 
L 91.1475 -234.481231 
L 91.746417 -238.851963 
L 92.345334 -243.222695 
L 92.944251 -247.593427 
L 93.543168 -251.964159 
L 94.142085 -256.334891 
L 94.741002 -260.705623 
L 95.339919 -261.824848 
L 95.938837 -265.027693 
L 96.537754 -269.398424 
L 97.136671 -270.663636 
L 97.735588 -273.720494 
L 98.334505 -275.08303 
L 98.933422 -278.042564 
L 99.532339 -279.502424 
L 100.131256 -282.364634 
L 100.730173 -283.921818 
L 101.32909 -286.686704 
L 101.928008 -288.341212 
L 102.526925 -291.008774 
L 103.125842 -292.760606 
L 103.724759 -292.760606 
L 104.323676 -292.760606 
L 104.922593 -292.760606 
L 105.52151 -295.184858 
L 106.120427 -297.18 
L 106.719344 -297.18 
L 107.318261 -297.18 
L 107.917179 -299.409604 
L 108.516096 -301.599394 
L 109.115013 -301.599394 
L 109.71393 -301.599394 
L 110.312847 -301.599394 
L 110.911764 -303.585688 
L 111.510681 -306.018788 
L 112.109598 -306.018788 
L 112.708515 -306.018788 
L 113.307432 -306.018788 
L 113.90635 -306.018788 
L 114.505267 -306.018788 
L 115.104184 -306.018788 
L 115.703101 -306.018788 
L 116.302018 -306.018788 
L 116.900935 -307.518462 
L 117.499852 -310.438182 
L 118.098769 -310.438182 
L 118.697686 -310.438182 
L 119.296603 -310.438182 
L 119.895521 -310.438182 
L 120.494438 -310.438182 
L 121.093355 -310.438182 
L 121.692272 -310.438182 
L 122.291189 -310.438182 
L 122.890106 -310.438182 
L 123.489023 -310.438182 
L 124.08794 -310.438182 
L 124.686857 -310.438182 
L 125.285774 -310.438182 
L 125.884692 -310.438182 
L 126.483609 -310.438182 
L 127.082526 -310.438182 
L 127.681443 -310.438182 
L 128.28036 -310.438182 
L 128.879277 -310.438182 
L 129.478194 -310.438182 
L 130.077111 -310.438182 
L 130.676028 -310.438182 
L 131.274945 -310.438182 
L 131.873862 -310.438182 
L 132.47278 -310.438182 
L 133.071697 -310.438182 
L 133.670614 -310.438182 
L 134.269531 -310.438182 
L 134.868448 -310.438182 
L 135.467365 -310.438182 
L 136.066282 -310.438182 
L 136.665199 -310.438182 
L 137.264116 -310.438182 
L 137.863033 -310.438182 
L 138.461951 -310.438182 
L 139.060868 -310.438182 
L 139.659785 -310.438182 
L 140.258702 -310.438182 
L 140.857619 -310.438182 
L 141.456536 -310.438182 
L 142.055453 -310.438182 
L 142.65437 -310.438182 
L 143.253287 -306.660241 
L 143.852204 -306.018788 
L 144.451122 -306.018788 
L 145.050039 -306.018788 
L 145.648956 -306.018788 
L 146.247873 -306.018788 
L 146.84679 -306.018788 
L 147.445707 -306.018788 
L 148.044624 -306.018788 
L 148.643541 -306.018788 
L 149.242458 -306.018788 
L 149.841375 -306.018788 
L 150.440293 -306.018788 
L 151.03921 -306.018788 
L 151.638127 -306.018788 
L 152.237044 -306.018788 
L 152.835961 -306.018788 
L 153.434878 -306.018788 
L 154.033795 -306.018788 
L 154.632712 -306.018788 
L 155.231629 -306.018788 
L 155.830546 -306.018788 
L 156.429464 -306.018788 
L 157.028381 -306.018788 
L 157.627298 -306.018788 
L 158.226215 -306.018788 
L 158.825132 -306.018788 
L 159.424049 -306.018788 
L 160.022966 -306.018788 
L 160.621883 -306.018788 
L 161.2208 -306.018788 
L 161.819717 -306.018788 
L 162.418635 -306.018788 
L 163.017552 -306.018788 
L 163.616469 -306.018788 
L 164.215386 -306.018788 
L 164.814303 -306.018788 
L 165.41322 -306.018788 
L 166.012137 -306.018788 
L 166.611054 -306.018788 
L 167.209971 -306.018788 
L 167.808888 -306.018788 
L 168.407806 -306.018788 
L 169.006723 -306.018788 
L 169.60564 -306.018788 
L 170.204557 -306.018788 
L 170.803474 -306.018788 
L 171.402391 -304.527961 
L 172.001308 -301.599394 
L 172.600225 -302.992897 
L 173.199142 -304.673947 
L 173.798059 -301.599394 
L 174.396977 -301.599394 
L 174.995894 -301.599394 
L 175.594811 -301.599394 
L 176.193728 -301.599394 
L 176.792645 -301.599394 
L 177.391562 -301.599394 
L 177.990479 -301.599394 
L 178.589396 -301.599394 
L 179.188313 -301.599394 
L 179.78723 -301.599394 
L 180.386148 -301.599394 
L 180.985065 -301.599394 
L 181.583982 -301.599394 
L 182.182899 -301.599394 
L 182.781816 -301.599394 
L 183.380733 -301.599394 
L 183.97965 -301.599394 
L 184.578567 -301.599394 
L 185.177484 -301.599394 
L 185.776401 -301.599394 
L 186.375319 -301.325117 
L 186.974236 -297.18 
L 187.573153 -297.18 
L 188.17207 -297.051709 
L 188.770987 -292.760606 
L 189.369904 -292.760606 
L 189.968821 -292.760606 
L 190.567738 -292.760606 
L 191.166655 -292.760606 
L 191.765572 -292.760606 
L 192.364489 -292.760606 
L 192.963407 -292.760606 
L 193.562324 -292.760606 
L 194.161241 -292.760606 
L 194.760158 -292.760606 
L 195.359075 -292.760606 
L 195.957992 -292.760606 
L 196.556909 -292.760606 
L 197.155826 -292.760606 
L 197.754743 -292.760606 
L 198.35366 -292.760606 
L 198.952578 -292.760606 
L 199.551495 -292.760606 
L 200.150412 -292.760606 
L 200.749329 -292.760606 
L 201.348246 -292.760606 
L 201.947163 -292.760606 
L 202.54608 -292.760606 
L 203.144997 -292.760606 
L 203.743914 -292.760606 
L 204.342831 -292.760606 
L 204.941749 -292.760606 
L 205.540666 -292.760606 
L 206.139583 -292.760606 
L 206.7385 -292.760606 
L 207.337417 -292.760606 
L 207.936334 -292.760606 
L 208.535251 -292.760606 
L 209.134168 -292.760606 
L 209.733085 -292.760606 
L 210.332002 -292.760606 
L 210.93092 -292.760606 
L 211.529837 -292.760606 
L 212.128754 -292.760606 
L 212.727671 -292.760606 
L 213.326588 -292.760606 
L 213.925505 -292.760606 
L 214.524422 -292.760606 
L 215.123339 -292.760606 
L 215.722256 -292.760606 
L 216.321173 -292.760606 
L 216.920091 -292.760606 
L 217.519008 -292.760606 
L 218.117925 -292.760606 
L 218.716842 -292.760606 
L 219.315759 -292.760606 
L 219.914676 -292.760606 
L 220.513593 -292.760606 
L 221.11251 -292.760606 
L 221.711427 -292.760606 
L 222.310344 -292.760606 
L 222.909262 -292.760606 
L 223.508179 -292.760606 
L 224.107096 -292.760606 
L 224.706013 -292.760606 
L 225.30493 -292.760606 
L 225.903847 -292.760606 
L 226.502764 -292.760606 
L 227.101681 -292.760606 
L 227.700598 -292.760606 
L 228.299515 -292.760606 
L 228.898433 -292.760606 
L 229.49735 -292.760606 
L 230.096267 -292.760606 
L 230.695184 -292.760606 
L 231.294101 -292.760606 
L 231.893018 -292.760606 
L 232.491935 -292.760606 
L 233.090852 -292.760606 
L 233.689769 -292.760606 
L 234.288686 -291.959895 
L 234.887604 -288.341212 
L 235.486521 -288.341212 
L 236.085438 -288.341212 
L 236.684355 -288.341212 
L 237.283272 -288.341212 
L 237.882189 -288.341212 
L 238.481106 -288.341212 
L 239.080023 -288.341212 
L 239.67894 -288.341212 
L 240.277857 -288.341212 
L 240.876775 -288.341212 
L 241.475692 -288.341212 
L 242.074609 -288.341212 
L 242.673526 -288.341212 
L 243.272443 -288.341212 
L 243.87136 -288.341212 
L 244.470277 -288.341212 
L 245.069194 -288.341212 
L 245.668111 -288.341212 
L 246.267028 -288.341212 
L 246.865945 -288.341212 
L 247.464863 -288.341212 
L 248.06378 -288.341212 
L 248.662697 -288.341212 
L 249.261614 -288.341212 
L 249.860531 -288.341212 
L 250.459448 -288.341212 
L 251.058365 -288.341212 
L 251.657282 -288.341212 
L 252.256199 -288.341212 
L 252.855116 -288.341212 
L 253.454034 -288.341212 
L 254.052951 -288.341212 
L 254.651868 -288.341212 
L 255.250785 -288.341212 
L 255.849702 -288.341212 
L 256.448619 -288.341212 
L 257.047536 -288.341212 
L 257.646453 -288.341212 
L 258.24537 -288.341212 
L 258.844287 -288.341212 
L 259.443205 -288.341212 
L 260.042122 -288.341212 
L 260.641039 -288.341212 
L 261.239956 -288.341212 
L 261.838873 -288.341212 
L 262.43779 -288.341212 
L 263.036707 -288.341212 
L 263.635624 -288.341212 
L 264.234541 -288.341212 
L 264.833458 -288.341212 
L 265.432376 -288.341212 
L 266.031293 -288.341212 
L 266.63021 -288.341212 
L 267.229127 -288.341212 
L 267.828044 -288.341212 
L 268.426961 -288.341212 
L 269.025878 -288.341212 
L 269.624795 -288.341212 
L 270.223712 -288.341212 
L 270.822629 -288.341212 
L 271.421547 -288.341212 
L 272.020464 -288.341212 
L 272.619381 -288.341212 
L 273.218298 -288.341212 
L 273.817215 -288.341212 
L 274.416132 -288.341212 
L 275.015049 -288.341212 
L 275.613966 -288.341212 
L 276.212883 -288.341212 
L 276.8118 -288.341212 
L 277.410718 -288.341212 
L 278.009635 -290.008991 
L 278.608552 -291.141489 
L 279.207469 -288.341212 
L 279.806386 -288.341212 
L 280.405303 -289.814343 
L 281.00422 -292.760606 
L 281.603137 -292.760606 
L 282.202054 -291.433461 
L 282.800971 -288.341212 
L 283.399889 -288.341212 
L 283.998806 -288.341212 
L 284.597723 -288.341212 
L 285.19664 -288.341212 
L 285.795557 -288.341212 
L 286.394474 -288.341212 
L 286.993391 -288.341212 
L 287.592308 -288.341212 
L 288.191225 -289.181737 
L 288.790142 -291.968743 
L 289.38906 -288.341212 
L 289.987977 -288.341212 
L 290.586894 -288.341212 
L 291.185811 -288.341212 
L 291.784728 -288.341212 
L 292.383645 -288.341212 
L 292.982562 -288.341212 
L 293.581479 -288.341212 
L 294.180396 -288.341212 
L 294.779313 -288.341212 
L 295.378231 -288.341212 
L 295.977148 -288.341212 
L 296.576065 -288.50047 
L 297.174982 -292.760606 
L 297.773899 -292.760606 
L 298.372816 -292.760606 
L 298.971733 -292.760606 
L 299.57065 -292.760606 
L 300.169567 -292.760606 
L 300.768484 -292.760606 
L 301.367401 -288.571251 
L 301.966319 -288.341212 
L 302.565236 -288.341212 
L 303.164153 -288.341212 
L 303.76307 -288.341212 
L 304.361987 -288.341212 
L 304.960904 -288.341212 
L 305.559821 -288.341212 
L 306.158738 -288.341212 
L 306.757655 -288.341212 
L 307.356572 -288.341212 
L 307.95549 -288.341212 
L 308.554407 -288.341212 
L 309.153324 -288.341212 
L 309.752241 -288.341212 
L 310.351158 -288.341212 
L 310.950075 -288.341212 
L 311.548992 -288.341212 
L 312.147909 -288.341212 
L 312.746826 -288.341212 
L 313.345743 -288.341212 
L 313.944661 -288.341212 
L 314.543578 -288.341212 
L 315.142495 -288.341212 
L 315.741412 -288.341212 
L 316.340329 -288.341212 
L 316.939246 -288.341212 
L 317.538163 -288.341212 
L 318.13708 -288.341212 
L 318.735997 -288.341212 
L 319.334914 -288.341212 
L 319.933832 -288.341212 
L 320.532749 -288.341212 
L 321.131666 -288.341212 
L 321.730583 -288.341212 
L 322.3295 -288.341212 
L 322.928417 -288.341212 
L 323.527334 -290.730074 
L 324.126251 -290.420406 
L 324.725168 -290.63275 
L 325.324085 -292.760606 
L 325.923003 -292.760606 
L 326.52192 -292.760606 
L 327.120837 -292.760606 
L 327.719754 -292.760606 
L 328.318671 -292.760606 
L 328.917588 -290.809702 
L 329.516505 -288.341212 
L 330.115422 -288.341212 
L 330.714339 -288.341212 
L 331.313256 -288.341212 
L 331.912174 -288.341212 
L 332.511091 -288.341212 
L 333.110008 -289.951482 
L 333.708925 -292.760606 
L 334.307842 -292.760606 
L 334.906759 -292.760606 
L 335.505676 -292.760606 
L 336.104593 -292.760606 
L 336.70351 -292.760606 
L 337.302427 -292.760606 
L 337.901345 -292.760606 
L 338.500262 -292.760606 
L 339.099179 -292.760606 
L 339.698096 -292.760606 
L 340.297013 -292.760606 
L 340.89593 -292.760606 
L 341.494847 -292.760606 
L 342.093764 -292.760606 
L 342.692681 -292.760606 
L 343.291598 -292.760606 
L 343.890516 -292.760606 
L 344.489433 -292.760606 
L 345.08835 -292.123576 
L 345.687267 -288.341212 
L 346.286184 -288.341212 
L 346.885101 -288.341212 
L 347.484018 -288.341212 
L 348.082935 -288.341212 
L 348.681852 -288.341212 
L 349.280769 -288.341212 
L 349.879687 -288.341212 
L 350.478604 -288.341212 
L 351.077521 -288.341212 
L 351.676438 -288.341212 
L 352.275355 -288.341212 
L 352.874272 -288.341212 
L 353.473189 -288.341212 
L 354.072106 -288.341212 
L 354.671023 -288.341212 
L 355.26994 -288.341212 
L 355.868857 -288.341212 
L 356.467775 -288.341212 
L 357.066692 -288.341212 
L 357.665609 -288.341212 
L 358.264526 -288.341212 
L 358.863443 -288.341212 
L 359.46236 -288.341212 
L 360.061277 -288.341212 
L 360.660194 -288.341212 
L 361.259111 -288.341212 
L 361.858028 -288.341212 
L 362.456946 -288.341212 
L 363.055863 -288.341212 
L 363.65478 -288.341212 
L 364.253697 -288.341212 
L 364.852614 -288.341212 
L 365.451531 -288.341212 
L 366.050448 -288.341212 
L 366.649365 -288.341212 
L 367.248282 -288.341212 
L 367.847199 -288.341212 
L 368.446117 -288.341212 
L 369.045034 -288.341212 
L 369.643951 -288.341212 
L 370.242868 -288.341212 
L 370.841785 -288.341212 
L 371.440702 -288.341212 
L 372.039619 -288.341212 
L 372.638536 -288.341212 
L 373.237453 -288.341212 
L 373.83637 -288.341212 
L 374.435288 -288.341212 
L 375.034205 -288.341212 
L 375.633122 -288.341212 
L 376.232039 -290.867212 
L 376.830956 -292.760606 
L 377.429873 -292.760606 
L 378.02879 -292.760606 
L 378.627707 -292.760606 
L 379.226624 -292.760606 
L 379.825541 -292.760606 
L 380.424459 -292.760606 
L 381.023376 -292.760606 
L 381.622293 -292.760606 
L 382.22121 -292.760606 
L 382.820127 -292.760606 
L 383.419044 -292.760606 
L 384.017961 -292.760606 
L 384.616878 -292.760606 
L 385.215795 -292.760606 
L 385.814712 -292.760606 
L 386.41363 -292.760606 
L 387.012547 -292.760606 
L 387.611464 -292.760606 
L 388.210381 -292.760606 
L 388.809298 -292.760606 
L 389.408215 -292.760606 
L 390.007132 -292.760606 
L 390.606049 -292.760606 
L 391.204966 -292.760606 
L 391.803883 -292.760606 
L 392.402801 -292.760606 
L 393.001718 -292.760606 
L 393.600635 -292.760606 
L 394.199552 -292.760606 
L 394.798469 -292.760606 
L 395.397386 -292.760606 
L 395.996303 -292.760606 
L 396.59522 -292.760606 
L 397.194137 -292.760606 
L 397.793054 -292.760606 
L 398.391972 -292.760606 
L 398.990889 -292.760606 
L 399.589806 -292.760606 
L 400.188723 -292.760606 
L 400.78764 -292.760606 
L 401.386557 -292.760606 
L 401.985474 -292.760606 
L 402.584391 -292.760606 
L 403.183308 -292.760606 
L 403.782225 -292.760606 
L 404.381143 -292.760606 
L 404.98006 -292.760606 
L 405.578977 -292.760606 
L 406.177894 -292.760606 
L 406.776811 -292.760606 
L 407.375728 -292.760606 
L 407.974645 -292.760606 
L 408.573562 -292.760606 
L 409.172479 -292.760606 
L 409.771396 -292.760606 
L 410.370313 -292.760606 
L 410.969231 -292.760606 
L 411.568148 -292.760606 
L 412.167065 -292.760606 
L 412.765982 -292.760606 
L 413.364899 -292.760606 
L 413.963816 -292.760606 
L 414.562733 -292.760606 
L 415.16165 -292.760606 
L 415.760567 -292.760606 
L 416.359484 -292.760606 
L 416.958402 -292.760606 
L 417.557319 -292.760606 
L 418.156236 -292.760606 
L 418.755153 -292.760606 
L 419.35407 -292.760606 
L 419.952987 -292.760606 
L 420.551904 -292.760606 
L 421.150821 -292.760606 
L 421.749738 -292.760606 
L 422.348655 -292.760606 
L 422.947573 -292.760606 
L 423.54649 -292.760606 
L 424.145407 -292.760606 
L 424.744324 -289.756834 
L 425.343241 -288.341212 
L 425.942158 -288.341212 
L 426.541075 -288.341212 
L 427.139992 -288.341212 
L 427.738909 -288.341212 
L 428.337826 -288.341212 
L 428.936744 -288.341212 
L 429.535661 -288.341212 
L 430.134578 -288.341212 
L 430.733495 -288.341212 
L 431.332412 -288.341212 
L 431.931329 -288.341212 
L 432.530246 -288.341212 
L 433.129163 -288.341212 
L 433.72808 -288.341212 
L 434.326997 -288.341212 
L 434.925915 -288.341212 
L 435.524832 -288.341212 
L 436.123749 -288.341212 
L 436.722666 -288.341212 
L 437.321583 -288.341212 
L 437.9205 -288.341212 
L 438.519417 -288.341212 
L 439.118334 -288.341212 
L 439.717251 -288.341212 
L 440.316168 -288.341212 
L 440.915086 -288.341212 
L 441.514003 -288.341212 
L 442.11292 -288.341212 
L 442.711837 -288.341212 
L 443.310754 -288.341212 
L 443.909671 -288.341212 
L 444.508588 -288.341212 
L 445.107505 -288.341212 
L 445.706422 -288.341212 
L 446.305339 -288.341212 
L 446.904257 -288.341212 
L 447.503174 -288.341212 
L 448.102091 -288.341212 
L 448.701008 -288.341212 
L 449.299925 -288.341212 
L 449.898842 -288.341212 
L 450.497759 -288.341212 
L 451.096676 -288.341212 
L 451.695593 -288.341212 
L 452.29451 -288.341212 
L 452.893428 -288.341212 
L 453.492345 -288.341212 
L 454.091262 -288.341212 
L 454.690179 -288.341212 
L 455.289096 -288.341212 
L 455.888013 -288.341212 
L 456.48693 -288.341212 
L 457.085847 -288.341212 
L 457.684764 -288.341212 
L 458.283681 -288.341212 
L 458.882599 -288.341212 
L 459.481516 -288.341212 
L 460.080433 -288.341212 
L 460.67935 -288.341212 
L 461.278267 -288.341212 
L 461.877184 -288.341212 
L 462.476101 -288.341212 
L 463.075018 -288.341212 
L 463.673935 -288.341212 
L 464.272852 -288.341212 
L 464.871769 -288.341212 
L 465.470687 -288.341212 
L 466.069604 -288.341212 
L 466.668521 -288.341212 
L 467.267438 -288.341212 
L 467.866355 -288.341212 
L 468.465272 -288.341212 
L 469.064189 -288.341212 
L 469.663106 -288.341212 
L 470.262023 -288.341212 
L 470.86094 -288.341212 
L 471.459858 -288.341212 
L 472.058775 -288.341212 
L 472.657692 -288.341212 
L 473.256609 -288.341212 
L 473.855526 -288.341212 
L 474.454443 -288.341212 
L 475.05336 -288.341212 
L 475.652277 -288.341212 
L 476.251194 -288.341212 
L 476.850111 -288.341212 
L 477.449029 -288.341212 
L 478.047946 -288.341212 
L 478.646863 -288.341212 
L 479.24578 -288.341212 
L 479.844697 -288.341212 
L 480.443614 -288.341212 
L 481.042531 -288.341212 
L 481.641448 -288.341212 
L 482.240365 -288.341212 
L 482.839282 -288.341212 
L 483.4382 -288.341212 
L 484.037117 -288.341212 
L 484.636034 -288.341212 
L 485.234951 -288.341212 
L 485.833868 -288.341212 
L 486.432785 -288.341212 
L 487.031702 -288.341212 
L 487.630619 -288.341212 
L 488.229536 -288.341212 
L 488.828453 -288.341212 
L 489.427371 -288.341212 
L 490.026288 -288.341212 
L 490.625205 -288.341212 
L 491.224122 -288.341212 
L 491.823039 -288.341212 
L 492.421956 -288.341212 
L 493.020873 -288.341212 
L 493.61979 -288.341212 
L 494.218707 -288.341212 
L 494.817624 -288.341212 
L 495.416542 -288.341212 
L 496.015459 -288.341212 
L 496.614376 -288.341212 
L 497.213293 -288.341212 
L 497.81221 -288.341212 
L 498.411127 -288.341212 
L 499.010044 -288.341212 
L 499.608961 -288.341212 
L 500.207878 -288.341212 
L 500.806795 -288.341212 
L 501.405713 -288.341212 
L 502.00463 -288.341212 
L 502.603547 -288.341212 
L 503.202464 -288.341212 
L 503.801381 -288.341212 
L 504.400298 -288.341212 
L 504.999215 -288.341212 
L 505.598132 -288.341212 
L 506.197049 -288.341212 
L 506.795966 -288.341212 
L 507.394884 -288.341212 
L 507.993801 -288.341212 
L 508.592718 -288.341212 
L 509.191635 -288.341212 
L 509.790552 -288.341212 
L 510.389469 -288.341212 
L 510.988386 -288.341212 
L 511.587303 -288.341212 
L 512.18622 -288.341212 
L 512.785137 -288.341212 
L 513.384055 -288.341212 
L 513.982972 -288.341212 
L 514.581889 -288.341212 
L 515.180806 -288.341212 
L 515.779723 -288.341212 
L 516.37864 -288.341212 
L 516.977557 -288.341212 
L 517.576474 -288.341212 
L 518.175391 -288.341212 
L 518.774308 -288.341212 
L 519.373225 -288.341212 
L 519.972143 -288.341212 
L 520.57106 -288.341212 
L 521.169977 -288.341212 
L 521.768894 -288.341212 
L 522.367811 -288.341212 
L 522.966728 -288.341212 
L 523.565645 -288.341212 
L 524.164562 -288.341212 
L 524.763479 -288.341212 
L 525.362396 -288.341212 
L 525.961314 -288.341212 
L 526.560231 -288.341212 
L 527.159148 -288.341212 
L 527.758065 -288.341212 
L 528.356982 -288.341212 
L 528.955899 -288.341212 
L 529.554816 -288.341212 
L 530.153733 -288.341212 
L 530.75265 -288.341212 
L 531.351567 -288.341212 
L 531.950485 -288.341212 
L 532.549402 -288.341212 
L 533.148319 -288.341212 
L 533.747236 -288.341212 
L 534.346153 -288.341212 
L 534.94507 -288.341212 
L 535.543987 -288.341212 
L 536.142904 -288.341212 
L 536.741821 -288.341212 
L 537.340738 -288.341212 
L 537.939656 -288.341212 
L 538.538573 -288.341212 
L 539.13749 -288.341212 
L 539.736407 -288.341212 
L 540.335324 -288.341212 
L 540.934241 -288.341212 
L 541.533158 -288.341212 
L 542.132075 -288.341212 
L 542.730992 -288.341212 
L 543.329909 -288.341212 
L 543.928827 -288.341212 
L 544.527744 -288.341212 
L 545.126661 -288.341212 
L 545.725578 -288.341212 
L 546.324495 -288.341212 
L 546.923412 -288.341212 
L 547.522329 -288.341212 
L 548.121246 -288.341212 
L 548.720163 -288.341212 
L 549.31908 -288.341212 
L 549.917998 -288.341212 
L 550.516915 -288.341212 
L 551.115832 -288.341212 
L 551.714749 -288.341212 
L 552.313666 -288.341212 
L 552.912583 -288.341212 
L 553.5115 -288.341212 
L 554.110417 -288.341212 
L 554.709334 -288.341212 
L 555.308251 -288.341212 
L 555.907169 -288.341212 
L 556.506086 -288.341212 
L 557.105003 -288.341212 
L 557.70392 -288.341212 
L 558.302837 -288.341212 
L 558.901754 -288.341212 
L 559.500671 -288.341212 
L 560.099588 -288.341212 
L 560.698505 -288.341212 
L 561.297422 -288.341212 
L 561.89634 -288.341212 
L 562.495257 -288.341212 
L 563.094174 -288.341212 
L 563.693091 -288.341212 
L 564.292008 -288.341212 
L 564.890925 -288.341212 
L 565.489842 -288.341212 
L 566.088759 -288.341212 
L 566.687676 -288.341212 
L 567.286593 -288.341212 
L 567.885511 -288.341212 
L 568.484428 -288.341212 
L 569.083345 -288.341212 
L 569.682262 -288.341212 
L 570.281179 -288.341212 
L 570.880096 -288.341212 
L 571.479013 -288.341212 
L 572.07793 -288.341212 
L 572.676847 -288.341212 
L 573.275764 -288.341212 
L 573.874681 -288.341212 
L 574.473599 -288.341212 
L 575.072516 -288.341212 
L 575.671433 -288.341212 
L 576.27035 -288.341212 
L 576.869267 -288.341212 
L 577.468184 -288.341212 
L 578.067101 -288.341212 
L 578.666018 -288.341212 
L 579.264935 -288.341212 
L 579.863852 -288.341212 
L 580.46277 -288.341212 
L 581.061687 -288.341212 
L 581.660604 -288.341212 
L 582.259521 -288.341212 
L 582.858438 -288.341212 
L 583.457355 -288.341212 
L 584.056272 -288.341212 
L 584.655189 -288.341212 
L 585.254106 -288.341212 
L 585.853023 -288.341212 
L 586.451941 -288.341212 
L 587.050858 -288.341212 
L 587.649775 -288.341212 
L 588.248692 -288.341212 
L 588.847609 -288.341212 
L 589.446526 -288.341212 
L 590.045443 -288.341212 
L 590.64436 -288.341212 
L 591.243277 -288.341212 
L 591.842194 -288.341212 
L 592.441112 -288.341212 
L 593.040029 -288.341212 
L 593.638946 -288.341212 
L 594.237863 -288.341212 
L 594.83678 -288.341212 
L 595.435697 -288.341212 
L 596.034614 -288.341212 
L 596.633531 -288.341212 
L 597.232448 -288.341212 
L 597.831365 -288.341212 
L 598.430283 -288.341212 
L 599.0292 -288.341212 
L 599.628117 -288.341212 
L 600.227034 -288.341212 
L 600.825951 -288.341212 
L 601.424868 -288.341212 
L 602.023785 -288.341212 
L 602.622702 -288.341212 
L 603.221619 -288.341212 
L 603.820536 -288.341212 
L 604.419454 -288.341212 
L 605.018371 -288.341212 
L 605.617288 -288.341212 
L 606.216205 -288.341212 
L 606.815122 -288.341212 
L 607.414039 -288.341212 
L 608.012956 -288.341212 
L 608.611873 -288.341212 
L 609.21079 -288.341212 
L 609.809707 -288.341212 
L 610.408625 -288.341212 
L 611.007542 -288.341212 
L 611.606459 -288.341212 
L 612.205376 -288.341212 
L 612.804293 -288.341212 
L 613.40321 -288.341212 
L 614.002127 -288.341212 
L 614.601044 -288.341212 
L 615.199961 -288.341212 
L 615.798878 -288.341212 
L 616.397796 -288.341212 
L 616.996713 -288.341212 
L 617.59563 -288.341212 
L 618.194547 -288.341212 
L 618.793464 -288.341212 
L 619.392381 -288.341212 
L 619.991298 -288.341212 
L 620.590215 -288.341212 
L 621.189132 -288.341212 
L 621.788049 -288.341212 
L 622.386967 -288.341212 
L 622.985884 -288.341212 
L 623.584801 -288.341212 
L 624.183718 -288.341212 
L 624.782635 -288.341212 
L 625.381552 -288.341212 
L 625.980469 -288.341212 
L 626.579386 -288.341212 
L 627.178303 -288.341212 
L 627.77722 -288.341212 
L 628.376138 -288.341212 
L 628.975055 -288.341212 
L 629.573972 -288.341212 
L 630.172889 -288.341212 
L 630.771806 -288.341212 
L 631.370723 -288.341212 
L 631.96964 -288.341212 
L 632.568557 -288.341212 
L 633.167474 -288.341212 
L 633.766391 -288.341212 
L 634.365308 -288.341212 
L 634.964226 -288.341212 
L 635.563143 -288.341212 
L 636.16206 -288.341212 
L 636.760977 -288.341212 
L 637.359894 -288.341212 
L 637.958811 -288.341212 
L 638.557728 -288.341212 
L 639.156645 -288.341212 
L 639.755562 -288.341212 
L 640.354479 -288.341212 
L 640.953397 -288.341212 
L 641.552314 -288.341212 
L 642.151231 -288.341212 
L 642.750148 -288.341212 
L 643.349065 -288.341212 
L 643.947982 -288.341212 
L 644.546899 -288.341212 
L 645.145816 -288.341212 
L 645.744733 -288.341212 
L 646.34365 -288.341212 
L 646.942568 -288.341212 
L 647.541485 -288.341212 
L 648.140402 -288.341212 
L 648.739319 -288.341212 
L 649.338236 -288.341212 
L 649.937153 -288.341212 
L 650.53607 -288.341212 
L 651.134987 -288.341212 
L 651.733904 -288.341212 
L 652.332821 -288.341212 
L 652.931739 -288.341212 
L 653.530656 -288.341212 
L 654.129573 -288.341212 
L 654.72849 -288.341212 
L 655.327407 -288.341212 
L 655.926324 -288.341212 
L 656.525241 -288.341212 
L 657.124158 -288.341212 
L 657.723075 -288.341212 
L 658.321992 -288.341212 
L 658.92091 -288.341212 
L 659.519827 -288.341212 
L 660.118744 -288.341212 
L 660.717661 -288.341212 
L 661.316578 -288.341212 
L 661.915495 -288.341212 
L 662.514412 -288.341212 
L 663.113329 -288.341212 
L 663.712246 -288.341212 
L 664.311163 -288.341212 
L 664.910081 -288.341212 
L 665.508998 -288.341212 
L 666.107915 -288.341212 
L 666.706832 -288.341212 
L 667.305749 -288.341212 
L 667.904666 -288.341212 
L 668.503583 -288.341212 
L 669.1025 -288.341212 
L 669.701417 -288.341212 
L 670.300334 -288.341212 
L 670.899252 -288.341212 
L 671.498169 -288.341212 
L 672.097086 -288.341212 
L 672.696003 -288.341212 
L 673.29492 -288.341212 
L 673.893837 -288.341212 
L 674.492754 -288.341212 
L 675.091671 -288.341212 
L 675.690588 -288.341212 
L 676.289505 -288.341212 
L 676.888423 -288.341212 
L 677.48734 -288.341212 
L 678.086257 -288.341212 
L 678.685174 -288.341212 
L 679.284091 -288.341212 
L 679.284091 -336.954545 
L 679.284091 -336.954545 
L 678.685174 -336.954545 
L 678.086257 -336.954545 
L 677.48734 -336.954545 
L 676.888423 -336.954545 
L 676.289505 -336.954545 
L 675.690588 -336.954545 
L 675.091671 -336.954545 
L 674.492754 -336.954545 
L 673.893837 -336.954545 
L 673.29492 -336.954545 
L 672.696003 -336.954545 
L 672.097086 -336.954545 
L 671.498169 -336.954545 
L 670.899252 -336.954545 
L 670.300334 -336.954545 
L 669.701417 -336.954545 
L 669.1025 -336.954545 
L 668.503583 -336.954545 
L 667.904666 -336.954545 
L 667.305749 -336.954545 
L 666.706832 -336.954545 
L 666.107915 -336.954545 
L 665.508998 -336.954545 
L 664.910081 -336.954545 
L 664.311163 -336.954545 
L 663.712246 -336.954545 
L 663.113329 -336.954545 
L 662.514412 -336.954545 
L 661.915495 -336.954545 
L 661.316578 -336.954545 
L 660.717661 -336.954545 
L 660.118744 -336.954545 
L 659.519827 -336.954545 
L 658.92091 -336.954545 
L 658.321992 -336.954545 
L 657.723075 -336.954545 
L 657.124158 -336.954545 
L 656.525241 -336.954545 
L 655.926324 -336.954545 
L 655.327407 -336.954545 
L 654.72849 -336.954545 
L 654.129573 -336.954545 
L 653.530656 -336.954545 
L 652.931739 -336.954545 
L 652.332821 -336.954545 
L 651.733904 -336.954545 
L 651.134987 -336.954545 
L 650.53607 -336.954545 
L 649.937153 -336.954545 
L 649.338236 -336.954545 
L 648.739319 -336.954545 
L 648.140402 -336.954545 
L 647.541485 -336.954545 
L 646.942568 -336.954545 
L 646.34365 -336.954545 
L 645.744733 -336.954545 
L 645.145816 -336.954545 
L 644.546899 -336.954545 
L 643.947982 -336.954545 
L 643.349065 -336.954545 
L 642.750148 -336.954545 
L 642.151231 -336.954545 
L 641.552314 -336.954545 
L 640.953397 -336.954545 
L 640.354479 -336.954545 
L 639.755562 -336.954545 
L 639.156645 -336.954545 
L 638.557728 -336.954545 
L 637.958811 -336.954545 
L 637.359894 -336.954545 
L 636.760977 -336.954545 
L 636.16206 -336.954545 
L 635.563143 -336.954545 
L 634.964226 -336.954545 
L 634.365308 -336.954545 
L 633.766391 -336.954545 
L 633.167474 -336.954545 
L 632.568557 -336.954545 
L 631.96964 -336.954545 
L 631.370723 -336.954545 
L 630.771806 -336.954545 
L 630.172889 -336.954545 
L 629.573972 -336.954545 
L 628.975055 -336.954545 
L 628.376138 -336.954545 
L 627.77722 -336.954545 
L 627.178303 -336.954545 
L 626.579386 -336.954545 
L 625.980469 -336.954545 
L 625.381552 -336.954545 
L 624.782635 -336.954545 
L 624.183718 -336.954545 
L 623.584801 -336.954545 
L 622.985884 -336.954545 
L 622.386967 -336.954545 
L 621.788049 -336.954545 
L 621.189132 -336.954545 
L 620.590215 -336.954545 
L 619.991298 -336.954545 
L 619.392381 -336.954545 
L 618.793464 -336.954545 
L 618.194547 -336.954545 
L 617.59563 -336.954545 
L 616.996713 -336.954545 
L 616.397796 -336.954545 
L 615.798878 -336.954545 
L 615.199961 -336.954545 
L 614.601044 -336.954545 
L 614.002127 -336.954545 
L 613.40321 -336.954545 
L 612.804293 -336.954545 
L 612.205376 -336.954545 
L 611.606459 -336.954545 
L 611.007542 -336.954545 
L 610.408625 -336.954545 
L 609.809707 -336.954545 
L 609.21079 -336.954545 
L 608.611873 -336.954545 
L 608.012956 -336.954545 
L 607.414039 -336.954545 
L 606.815122 -336.954545 
L 606.216205 -336.954545 
L 605.617288 -336.954545 
L 605.018371 -336.954545 
L 604.419454 -336.954545 
L 603.820536 -336.954545 
L 603.221619 -336.954545 
L 602.622702 -336.954545 
L 602.023785 -336.954545 
L 601.424868 -336.954545 
L 600.825951 -336.954545 
L 600.227034 -336.954545 
L 599.628117 -336.954545 
L 599.0292 -336.954545 
L 598.430283 -336.954545 
L 597.831365 -336.954545 
L 597.232448 -336.954545 
L 596.633531 -336.954545 
L 596.034614 -336.954545 
L 595.435697 -336.954545 
L 594.83678 -336.954545 
L 594.237863 -336.954545 
L 593.638946 -336.954545 
L 593.040029 -336.954545 
L 592.441112 -336.954545 
L 591.842194 -336.954545 
L 591.243277 -336.954545 
L 590.64436 -336.954545 
L 590.045443 -336.954545 
L 589.446526 -336.954545 
L 588.847609 -336.954545 
L 588.248692 -336.954545 
L 587.649775 -336.954545 
L 587.050858 -336.954545 
L 586.451941 -336.954545 
L 585.853023 -336.954545 
L 585.254106 -336.954545 
L 584.655189 -336.954545 
L 584.056272 -336.954545 
L 583.457355 -336.954545 
L 582.858438 -336.954545 
L 582.259521 -336.954545 
L 581.660604 -336.954545 
L 581.061687 -336.954545 
L 580.46277 -336.954545 
L 579.863852 -336.954545 
L 579.264935 -336.954545 
L 578.666018 -336.954545 
L 578.067101 -336.954545 
L 577.468184 -336.954545 
L 576.869267 -336.954545 
L 576.27035 -336.954545 
L 575.671433 -336.954545 
L 575.072516 -336.954545 
L 574.473599 -336.954545 
L 573.874681 -336.954545 
L 573.275764 -336.954545 
L 572.676847 -336.954545 
L 572.07793 -336.954545 
L 571.479013 -336.954545 
L 570.880096 -336.954545 
L 570.281179 -336.954545 
L 569.682262 -336.954545 
L 569.083345 -336.954545 
L 568.484428 -336.954545 
L 567.885511 -336.954545 
L 567.286593 -336.954545 
L 566.687676 -336.954545 
L 566.088759 -336.954545 
L 565.489842 -336.954545 
L 564.890925 -336.954545 
L 564.292008 -336.954545 
L 563.693091 -336.954545 
L 563.094174 -336.954545 
L 562.495257 -336.954545 
L 561.89634 -336.954545 
L 561.297422 -336.954545 
L 560.698505 -336.954545 
L 560.099588 -336.954545 
L 559.500671 -336.954545 
L 558.901754 -336.954545 
L 558.302837 -336.954545 
L 557.70392 -336.954545 
L 557.105003 -336.954545 
L 556.506086 -336.954545 
L 555.907169 -336.954545 
L 555.308251 -336.954545 
L 554.709334 -336.954545 
L 554.110417 -336.954545 
L 553.5115 -336.954545 
L 552.912583 -336.954545 
L 552.313666 -336.954545 
L 551.714749 -336.954545 
L 551.115832 -336.954545 
L 550.516915 -336.954545 
L 549.917998 -336.954545 
L 549.31908 -336.954545 
L 548.720163 -336.954545 
L 548.121246 -336.954545 
L 547.522329 -336.954545 
L 546.923412 -336.954545 
L 546.324495 -336.954545 
L 545.725578 -336.954545 
L 545.126661 -336.954545 
L 544.527744 -336.954545 
L 543.928827 -336.954545 
L 543.329909 -336.954545 
L 542.730992 -336.954545 
L 542.132075 -336.954545 
L 541.533158 -336.954545 
L 540.934241 -336.954545 
L 540.335324 -336.954545 
L 539.736407 -336.954545 
L 539.13749 -336.954545 
L 538.538573 -336.954545 
L 537.939656 -336.954545 
L 537.340738 -336.954545 
L 536.741821 -336.954545 
L 536.142904 -336.954545 
L 535.543987 -336.954545 
L 534.94507 -336.954545 
L 534.346153 -336.954545 
L 533.747236 -336.954545 
L 533.148319 -336.954545 
L 532.549402 -336.954545 
L 531.950485 -336.954545 
L 531.351567 -336.954545 
L 530.75265 -336.954545 
L 530.153733 -336.954545 
L 529.554816 -336.954545 
L 528.955899 -336.954545 
L 528.356982 -336.954545 
L 527.758065 -336.954545 
L 527.159148 -336.954545 
L 526.560231 -336.954545 
L 525.961314 -336.954545 
L 525.362396 -336.954545 
L 524.763479 -336.954545 
L 524.164562 -336.954545 
L 523.565645 -336.954545 
L 522.966728 -336.954545 
L 522.367811 -336.954545 
L 521.768894 -336.954545 
L 521.169977 -336.954545 
L 520.57106 -336.954545 
L 519.972143 -336.954545 
L 519.373225 -336.954545 
L 518.774308 -336.954545 
L 518.175391 -336.954545 
L 517.576474 -336.954545 
L 516.977557 -336.954545 
L 516.37864 -336.954545 
L 515.779723 -336.954545 
L 515.180806 -336.954545 
L 514.581889 -336.954545 
L 513.982972 -336.954545 
L 513.384055 -336.954545 
L 512.785137 -336.954545 
L 512.18622 -336.954545 
L 511.587303 -336.954545 
L 510.988386 -336.954545 
L 510.389469 -336.954545 
L 509.790552 -336.954545 
L 509.191635 -336.954545 
L 508.592718 -336.954545 
L 507.993801 -336.954545 
L 507.394884 -336.954545 
L 506.795966 -336.954545 
L 506.197049 -336.954545 
L 505.598132 -336.954545 
L 504.999215 -336.954545 
L 504.400298 -336.954545 
L 503.801381 -336.954545 
L 503.202464 -336.954545 
L 502.603547 -336.954545 
L 502.00463 -336.954545 
L 501.405713 -336.954545 
L 500.806795 -336.954545 
L 500.207878 -336.954545 
L 499.608961 -336.954545 
L 499.010044 -336.954545 
L 498.411127 -336.954545 
L 497.81221 -336.954545 
L 497.213293 -336.954545 
L 496.614376 -336.954545 
L 496.015459 -336.954545 
L 495.416542 -336.954545 
L 494.817624 -336.954545 
L 494.218707 -336.954545 
L 493.61979 -336.954545 
L 493.020873 -336.954545 
L 492.421956 -336.954545 
L 491.823039 -336.954545 
L 491.224122 -336.954545 
L 490.625205 -336.954545 
L 490.026288 -336.954545 
L 489.427371 -336.954545 
L 488.828453 -336.954545 
L 488.229536 -336.954545 
L 487.630619 -336.954545 
L 487.031702 -336.954545 
L 486.432785 -336.954545 
L 485.833868 -336.954545 
L 485.234951 -336.954545 
L 484.636034 -336.954545 
L 484.037117 -336.954545 
L 483.4382 -336.954545 
L 482.839282 -336.954545 
L 482.240365 -336.954545 
L 481.641448 -336.954545 
L 481.042531 -336.954545 
L 480.443614 -336.954545 
L 479.844697 -336.954545 
L 479.24578 -336.954545 
L 478.646863 -336.954545 
L 478.047946 -336.954545 
L 477.449029 -336.954545 
L 476.850111 -336.954545 
L 476.251194 -336.954545 
L 475.652277 -336.954545 
L 475.05336 -336.954545 
L 474.454443 -336.954545 
L 473.855526 -336.954545 
L 473.256609 -336.954545 
L 472.657692 -336.954545 
L 472.058775 -336.954545 
L 471.459858 -336.954545 
L 470.86094 -336.954545 
L 470.262023 -336.954545 
L 469.663106 -336.954545 
L 469.064189 -336.954545 
L 468.465272 -336.954545 
L 467.866355 -336.954545 
L 467.267438 -336.954545 
L 466.668521 -336.954545 
L 466.069604 -336.954545 
L 465.470687 -336.954545 
L 464.871769 -336.954545 
L 464.272852 -336.954545 
L 463.673935 -336.954545 
L 463.075018 -336.954545 
L 462.476101 -336.954545 
L 461.877184 -336.954545 
L 461.278267 -336.954545 
L 460.67935 -336.954545 
L 460.080433 -336.954545 
L 459.481516 -336.954545 
L 458.882599 -336.954545 
L 458.283681 -336.954545 
L 457.684764 -336.954545 
L 457.085847 -336.954545 
L 456.48693 -336.954545 
L 455.888013 -336.954545 
L 455.289096 -336.954545 
L 454.690179 -336.954545 
L 454.091262 -336.954545 
L 453.492345 -336.954545 
L 452.893428 -336.954545 
L 452.29451 -336.954545 
L 451.695593 -336.954545 
L 451.096676 -336.954545 
L 450.497759 -336.954545 
L 449.898842 -336.954545 
L 449.299925 -336.954545 
L 448.701008 -336.954545 
L 448.102091 -336.954545 
L 447.503174 -336.954545 
L 446.904257 -336.954545 
L 446.305339 -336.954545 
L 445.706422 -336.954545 
L 445.107505 -336.954545 
L 444.508588 -336.954545 
L 443.909671 -336.954545 
L 443.310754 -336.954545 
L 442.711837 -336.954545 
L 442.11292 -336.954545 
L 441.514003 -336.954545 
L 440.915086 -336.954545 
L 440.316168 -336.954545 
L 439.717251 -336.954545 
L 439.118334 -336.954545 
L 438.519417 -336.954545 
L 437.9205 -336.954545 
L 437.321583 -336.954545 
L 436.722666 -336.954545 
L 436.123749 -336.954545 
L 435.524832 -336.954545 
L 434.925915 -336.954545 
L 434.326997 -336.954545 
L 433.72808 -336.954545 
L 433.129163 -336.954545 
L 432.530246 -336.954545 
L 431.931329 -336.954545 
L 431.332412 -336.954545 
L 430.733495 -336.954545 
L 430.134578 -336.954545 
L 429.535661 -336.954545 
L 428.936744 -336.954545 
L 428.337826 -336.954545 
L 427.738909 -336.954545 
L 427.139992 -336.954545 
L 426.541075 -336.954545 
L 425.942158 -336.954545 
L 425.343241 -338.418829 
L 424.744324 -341.373939 
L 424.145407 -341.373939 
L 423.54649 -341.373939 
L 422.947573 -341.373939 
L 422.348655 -341.373939 
L 421.749738 -341.373939 
L 421.150821 -341.373939 
L 420.551904 -341.373939 
L 419.952987 -341.373939 
L 419.35407 -341.373939 
L 418.755153 -341.373939 
L 418.156236 -341.373939 
L 417.557319 -341.373939 
L 416.958402 -341.373939 
L 416.359484 -341.373939 
L 415.760567 -341.373939 
L 415.16165 -341.373939 
L 414.562733 -341.373939 
L 413.963816 -341.373939 
L 413.364899 -341.373939 
L 412.765982 -341.373939 
L 412.167065 -341.373939 
L 411.568148 -341.373939 
L 410.969231 -341.373939 
L 410.370313 -341.373939 
L 409.771396 -341.373939 
L 409.172479 -341.373939 
L 408.573562 -341.373939 
L 407.974645 -341.373939 
L 407.375728 -341.373939 
L 406.776811 -341.373939 
L 406.177894 -341.373939 
L 405.578977 -341.373939 
L 404.98006 -341.373939 
L 404.381143 -341.373939 
L 403.782225 -341.373939 
L 403.183308 -341.373939 
L 402.584391 -341.373939 
L 401.985474 -341.373939 
L 401.386557 -341.373939 
L 400.78764 -341.373939 
L 400.188723 -341.373939 
L 399.589806 -341.373939 
L 398.990889 -341.373939 
L 398.391972 -341.373939 
L 397.793054 -341.373939 
L 397.194137 -341.373939 
L 396.59522 -341.373939 
L 395.996303 -341.373939 
L 395.397386 -341.373939 
L 394.798469 -341.373939 
L 394.199552 -341.373939 
L 393.600635 -341.373939 
L 393.001718 -341.373939 
L 392.402801 -341.373939 
L 391.803883 -341.373939 
L 391.204966 -341.373939 
L 390.606049 -341.373939 
L 390.007132 -341.373939 
L 389.408215 -341.373939 
L 388.809298 -341.373939 
L 388.210381 -341.373939 
L 387.611464 -341.373939 
L 387.012547 -341.373939 
L 386.41363 -341.373939 
L 385.814712 -341.373939 
L 385.215795 -341.373939 
L 384.616878 -341.373939 
L 384.017961 -341.373939 
L 383.419044 -341.373939 
L 382.820127 -341.373939 
L 382.22121 -341.373939 
L 381.622293 -341.373939 
L 381.023376 -341.373939 
L 380.424459 -341.373939 
L 379.825541 -341.373939 
L 379.226624 -341.373939 
L 378.627707 -341.373939 
L 378.02879 -341.373939 
L 377.429873 -341.373939 
L 376.830956 -341.373939 
L 376.232039 -341.373939 
L 375.633122 -341.373939 
L 375.034205 -341.373939 
L 374.435288 -341.373939 
L 373.83637 -341.373939 
L 373.237453 -341.373939 
L 372.638536 -341.373939 
L 372.039619 -341.373939 
L 371.440702 -341.373939 
L 370.841785 -341.373939 
L 370.242868 -341.373939 
L 369.643951 -341.373939 
L 369.045034 -341.373939 
L 368.446117 -341.373939 
L 367.847199 -341.373939 
L 367.248282 -341.373939 
L 366.649365 -341.373939 
L 366.050448 -341.373939 
L 365.451531 -341.373939 
L 364.852614 -341.373939 
L 364.253697 -341.373939 
L 363.65478 -341.373939 
L 363.055863 -341.373939 
L 362.456946 -341.373939 
L 361.858028 -341.373939 
L 361.259111 -341.373939 
L 360.660194 -341.373939 
L 360.061277 -341.373939 
L 359.46236 -341.373939 
L 358.863443 -341.373939 
L 358.264526 -341.373939 
L 357.665609 -341.373939 
L 357.066692 -341.373939 
L 356.467775 -341.373939 
L 355.868857 -341.373939 
L 355.26994 -341.373939 
L 354.671023 -341.373939 
L 354.072106 -341.373939 
L 353.473189 -341.373939 
L 352.874272 -341.373939 
L 352.275355 -341.373939 
L 351.676438 -341.373939 
L 351.077521 -341.373939 
L 350.478604 -341.373939 
L 349.879687 -341.373939 
L 349.280769 -341.373939 
L 348.681852 -341.373939 
L 348.082935 -341.373939 
L 347.484018 -341.373939 
L 346.885101 -341.373939 
L 346.286184 -341.373939 
L 345.687267 -341.373939 
L 345.08835 -341.373939 
L 344.489433 -341.373939 
L 343.890516 -341.373939 
L 343.291598 -341.373939 
L 342.692681 -341.373939 
L 342.093764 -341.373939 
L 341.494847 -341.373939 
L 340.89593 -341.373939 
L 340.297013 -341.373939 
L 339.698096 -341.373939 
L 339.099179 -341.373939 
L 338.500262 -341.373939 
L 337.901345 -341.373939 
L 337.302427 -341.373939 
L 336.70351 -341.373939 
L 336.104593 -341.373939 
L 335.505676 -341.373939 
L 334.906759 -341.373939 
L 334.307842 -341.373939 
L 333.708925 -341.373939 
L 333.110008 -341.373939 
L 332.511091 -341.373939 
L 331.912174 -341.373939 
L 331.313256 -341.373939 
L 330.714339 -341.373939 
L 330.115422 -341.373939 
L 329.516505 -341.373939 
L 328.917588 -341.373939 
L 328.318671 -341.373939 
L 327.719754 -341.373939 
L 327.120837 -341.373939 
L 326.52192 -341.373939 
L 325.923003 -341.373939 
L 325.324085 -341.373939 
L 324.725168 -341.373939 
L 324.126251 -341.373939 
L 323.527334 -341.373939 
L 322.928417 -341.373939 
L 322.3295 -341.373939 
L 321.730583 -341.373939 
L 321.131666 -341.373939 
L 320.532749 -341.373939 
L 319.933832 -341.373939 
L 319.334914 -341.373939 
L 318.735997 -341.373939 
L 318.13708 -341.373939 
L 317.538163 -341.373939 
L 316.939246 -341.373939 
L 316.340329 -341.373939 
L 315.741412 -341.373939 
L 315.142495 -341.373939 
L 314.543578 -341.373939 
L 313.944661 -341.373939 
L 313.345743 -341.373939 
L 312.746826 -341.373939 
L 312.147909 -341.373939 
L 311.548992 -341.373939 
L 310.950075 -341.373939 
L 310.351158 -341.373939 
L 309.752241 -341.373939 
L 309.153324 -341.373939 
L 308.554407 -341.373939 
L 307.95549 -341.373939 
L 307.356572 -341.373939 
L 306.757655 -341.373939 
L 306.158738 -341.373939 
L 305.559821 -341.373939 
L 304.960904 -341.373939 
L 304.361987 -341.373939 
L 303.76307 -341.373939 
L 303.164153 -341.373939 
L 302.565236 -341.373939 
L 301.966319 -341.373939 
L 301.367401 -341.373939 
L 300.768484 -341.373939 
L 300.169567 -341.373939 
L 299.57065 -341.373939 
L 298.971733 -341.373939 
L 298.372816 -341.373939 
L 297.773899 -341.373939 
L 297.174982 -341.373939 
L 296.576065 -345.634076 
L 295.977148 -345.793333 
L 295.378231 -345.793333 
L 294.779313 -345.793333 
L 294.180396 -345.793333 
L 293.581479 -345.793333 
L 292.982562 -345.793333 
L 292.383645 -345.793333 
L 291.784728 -345.793333 
L 291.185811 -345.793333 
L 290.586894 -345.793333 
L 289.987977 -345.793333 
L 289.38906 -345.793333 
L 288.790142 -345.793333 
L 288.191225 -345.793333 
L 287.592308 -345.793333 
L 286.993391 -345.793333 
L 286.394474 -345.793333 
L 285.795557 -345.793333 
L 285.19664 -345.793333 
L 284.597723 -345.793333 
L 283.998806 -345.793333 
L 283.399889 -345.793333 
L 282.800971 -345.793333 
L 282.202054 -345.793333 
L 281.603137 -345.793333 
L 281.00422 -345.793333 
L 280.405303 -345.793333 
L 279.806386 -345.793333 
L 279.207469 -345.793333 
L 278.608552 -345.793333 
L 278.009635 -345.793333 
L 277.410718 -345.793333 
L 276.8118 -345.793333 
L 276.212883 -345.793333 
L 275.613966 -345.793333 
L 275.015049 -345.793333 
L 274.416132 -345.793333 
L 273.817215 -345.793333 
L 273.218298 -345.793333 
L 272.619381 -345.793333 
L 272.020464 -345.793333 
L 271.421547 -345.793333 
L 270.822629 -345.793333 
L 270.223712 -345.793333 
L 269.624795 -345.793333 
L 269.025878 -345.793333 
L 268.426961 -345.793333 
L 267.828044 -345.793333 
L 267.229127 -345.793333 
L 266.63021 -345.793333 
L 266.031293 -345.793333 
L 265.432376 -345.793333 
L 264.833458 -345.793333 
L 264.234541 -345.793333 
L 263.635624 -345.793333 
L 263.036707 -345.793333 
L 262.43779 -345.793333 
L 261.838873 -345.793333 
L 261.239956 -345.793333 
L 260.641039 -345.793333 
L 260.042122 -345.793333 
L 259.443205 -345.793333 
L 258.844287 -345.793333 
L 258.24537 -345.793333 
L 257.646453 -345.793333 
L 257.047536 -345.793333 
L 256.448619 -345.793333 
L 255.849702 -345.793333 
L 255.250785 -345.793333 
L 254.651868 -345.793333 
L 254.052951 -345.793333 
L 253.454034 -345.793333 
L 252.855116 -345.793333 
L 252.256199 -345.793333 
L 251.657282 -345.793333 
L 251.058365 -345.793333 
L 250.459448 -345.793333 
L 249.860531 -345.793333 
L 249.261614 -345.793333 
L 248.662697 -345.793333 
L 248.06378 -345.793333 
L 247.464863 -346.063186 
L 246.865945 -350.212727 
L 246.267028 -350.212727 
L 245.668111 -350.212727 
L 245.069194 -350.212727 
L 244.470277 -350.212727 
L 243.87136 -350.212727 
L 243.272443 -350.212727 
L 242.673526 -350.212727 
L 242.074609 -350.212727 
L 241.475692 -350.212727 
L 240.876775 -350.212727 
L 240.277857 -350.212727 
L 239.67894 -350.212727 
L 239.080023 -350.212727 
L 238.481106 -350.212727 
L 237.882189 -350.212727 
L 237.283272 -350.212727 
L 236.684355 -350.212727 
L 236.085438 -350.212727 
L 235.486521 -350.212727 
L 234.887604 -350.212727 
L 234.288686 -350.212727 
L 233.689769 -350.212727 
L 233.090852 -350.212727 
L 232.491935 -350.212727 
L 231.893018 -350.212727 
L 231.294101 -350.212727 
L 230.695184 -350.212727 
L 230.096267 -350.212727 
L 229.49735 -350.212727 
L 228.898433 -350.212727 
L 228.299515 -350.212727 
L 227.700598 -350.212727 
L 227.101681 -350.212727 
L 226.502764 -350.212727 
L 225.903847 -350.212727 
L 225.30493 -350.212727 
L 224.706013 -350.212727 
L 224.107096 -350.212727 
L 223.508179 -350.212727 
L 222.909262 -350.212727 
L 222.310344 -350.212727 
L 221.711427 -350.212727 
L 221.11251 -350.212727 
L 220.513593 -350.212727 
L 219.914676 -350.212727 
L 219.315759 -350.212727 
L 218.716842 -350.212727 
L 218.117925 -350.212727 
L 217.519008 -350.212727 
L 216.920091 -352.420212 
L 216.321173 -354.632121 
L 215.722256 -354.632121 
L 215.123339 -354.632121 
L 214.524422 -354.632121 
L 213.925505 -354.632121 
L 213.326588 -354.632121 
L 212.727671 -354.632121 
L 212.128754 -354.632121 
L 211.529837 -354.632121 
L 210.93092 -354.632121 
L 210.332002 -354.632121 
L 209.733085 -354.632121 
L 209.134168 -354.632121 
L 208.535251 -354.632121 
L 207.936334 -354.632121 
L 207.337417 -354.632121 
L 206.7385 -354.632121 
L 206.139583 -354.632121 
L 205.540666 -354.632121 
L 204.941749 -354.632121 
L 204.342831 -354.632121 
L 203.743914 -354.632121 
L 203.144997 -354.632121 
L 202.54608 -354.632121 
L 201.947163 -354.632121 
L 201.348246 -354.632121 
L 200.749329 -354.632121 
L 200.150412 -354.632121 
L 199.551495 -354.632121 
L 198.952578 -354.632121 
L 198.35366 -354.632121 
L 197.754743 -354.632121 
L 197.155826 -354.632121 
L 196.556909 -354.632121 
L 195.957992 -354.632121 
L 195.359075 -354.632121 
L 194.760158 -354.632121 
L 194.161241 -354.632121 
L 193.562324 -354.632121 
L 192.963407 -354.632121 
L 192.364489 -354.632121 
L 191.765572 -354.632121 
L 191.166655 -354.74714 
L 190.567738 -359.051515 
L 189.968821 -359.051515 
L 189.369904 -359.051515 
L 188.770987 -359.051515 
L 188.17207 -359.051515 
L 187.573153 -359.051515 
L 186.974236 -359.051515 
L 186.375319 -359.051515 
L 185.776401 -359.051515 
L 185.177484 -359.051515 
L 184.578567 -359.051515 
L 183.97965 -359.051515 
L 183.380733 -359.051515 
L 182.781816 -359.051515 
L 182.182899 -359.051515 
L 181.583982 -359.051515 
L 180.985065 -359.051515 
L 180.386148 -359.051515 
L 179.78723 -359.051515 
L 179.188313 -359.051515 
L 178.589396 -359.051515 
L 177.990479 -359.051515 
L 177.391562 -359.051515 
L 176.792645 -359.051515 
L 176.193728 -359.051515 
L 175.594811 -359.051515 
L 174.995894 -359.051515 
L 174.396977 -362.223392 
L 173.798059 -363.470909 
L 173.199142 -363.470909 
L 172.600225 -363.470909 
L 172.001308 -363.470909 
L 171.402391 -363.470909 
L 170.803474 -363.470909 
L 170.204557 -363.470909 
L 169.60564 -363.470909 
L 169.006723 -363.470909 
L 168.407806 -363.470909 
L 167.808888 -363.470909 
L 167.209971 -363.470909 
L 166.611054 -363.470909 
L 166.012137 -363.470909 
L 165.41322 -363.470909 
L 164.814303 -363.470909 
L 164.215386 -363.470909 
L 163.616469 -363.470909 
L 163.017552 -363.470909 
L 162.418635 -363.470909 
L 161.819717 -363.470909 
L 161.2208 -363.470909 
L 160.621883 -365.523561 
L 160.022966 -367.890303 
L 159.424049 -367.890303 
L 158.825132 -367.890303 
L 158.226215 -367.890303 
L 157.627298 -367.890303 
L 157.028381 -367.890303 
L 156.429464 -367.890303 
L 155.830546 -367.890303 
L 155.231629 -367.890303 
L 154.632712 -367.890303 
L 154.033795 -367.890303 
L 153.434878 -367.890303 
L 152.835961 -367.890303 
L 152.237044 -367.890303 
L 151.638127 -367.890303 
L 151.03921 -369.164363 
L 150.440293 -372.309697 
L 149.841375 -372.309697 
L 149.242458 -372.309697 
L 148.643541 -372.309697 
L 148.044624 -372.309697 
L 147.445707 -372.309697 
L 146.84679 -372.309697 
L 146.247873 -372.309697 
L 145.648956 -372.309697 
L 145.050039 -372.309697 
L 144.451122 -372.309697 
L 143.852204 -372.309697 
L 143.253287 -372.951151 
L 142.65437 -376.729091 
L 142.055453 -376.729091 
L 141.456536 -376.729091 
L 140.857619 -376.729091 
L 140.258702 -376.729091 
L 139.659785 -376.729091 
L 139.060868 -376.729091 
L 138.461951 -376.729091 
L 137.863033 -376.729091 
L 137.264116 -376.883925 
L 136.665199 -381.148485 
L 136.066282 -381.148485 
L 135.467365 -381.148485 
L 134.868448 -381.148485 
L 134.269531 -381.148485 
L 133.670614 -381.148485 
L 133.071697 -381.148485 
L 132.47278 -381.148485 
L 131.873862 -381.148485 
L 131.274945 -385.236092 
L 130.676028 -385.567879 
L 130.077111 -385.567879 
L 129.478194 -385.567879 
L 128.879277 -385.567879 
L 128.28036 -385.567879 
L 127.681443 -385.567879 
L 127.082526 -385.567879 
L 126.483609 -385.567879 
L 125.884692 -385.567879 
L 125.285774 -385.567879 
L 124.686857 -389.120204 
L 124.08794 -389.987273 
L 123.489023 -389.987273 
L 122.890106 -389.987273 
L 122.291189 -389.987273 
L 121.692272 -389.987273 
L 121.093355 -389.987273 
L 120.494438 -389.987273 
L 119.895521 -389.987273 
L 119.296603 -389.987273 
L 118.697686 -389.987273 
L 118.098769 -389.987273 
L 117.499852 -389.987273 
L 116.900935 -389.987273 
L 116.302018 -389.987273 
L 115.703101 -389.987273 
L 115.104184 -389.987273 
L 114.505267 -389.987273 
L 113.90635 -389.987273 
L 113.307432 -389.987273 
L 112.708515 -389.987273 
L 112.109598 -389.987273 
L 111.510681 -389.987273 
L 110.911764 -389.987273 
L 110.312847 -389.987273 
L 109.71393 -387.651497 
L 109.115013 -385.567879 
L 108.516096 -387.806331 
L 107.917179 -389.987273 
L 107.318261 -389.987273 
L 106.719344 -389.987273 
L 106.120427 -387.943469 
L 105.52151 -385.567879 
L 104.922593 -385.567879 
L 104.323676 -385.567879 
L 103.724759 -383.718723 
L 103.125842 -381.148485 
L 102.526925 -381.148485 
L 101.928008 -379.445315 
L 101.32909 -376.729091 
L 100.730173 -376.729091 
L 100.131256 -375.171907 
L 99.532339 -372.309697 
L 98.933422 -372.309697 
L 98.334505 -370.898499 
L 97.735588 -367.890303 
L 97.136671 -367.890303 
L 96.537754 -366.625091 
L 95.938837 -363.470909 
L 95.339919 -363.470909 
L 94.741002 -362.351683 
L 94.142085 -357.980951 
L 93.543168 -354.632121 
L 92.944251 -353.658881 
L 92.345334 -350.212727 
L 91.746417 -349.336811 
L 91.1475 -344.966079 
L 90.548583 -340.595347 
L 89.949666 -336.224616 
L 89.350748 -331.853884 
L 88.751831 -327.483152 
L 88.152914 -322.528476 
L 87.553997 -314.322294 
L 86.95508 -309.464942 
L 86.356163 -301.161436 
L 85.757246 -296.401408 
L 85.158329 -287.659944 
L 84.559412 -278.91848 
L 83.960495 -269.933706 
L 83.361577 -256.821511 
L 82.76266 -243.709315 
L 82.163743 -230.402471 
L 81.564826 -208.597473 
L 80.965909 -191.114545 
z
" style="stroke: #ff00ff; stroke-opacity: 0.3"/>
    </defs>
    <g clip-path="url(#p5063df7847)">
     <use xlink:href="#m6afbf4c0ca" x="0" y="432" style="fill: #ff00ff; fill-opacity: 0.3; stroke: #ff00ff; stroke-opacity: 0.3"/>
    </g>
   </g>
   <g id="matplotlib.axis_1">
    <g id="xtick_1">
     <g id="line2d_1">
      <defs>
       <path id="md1e4788cfd" d="M 0 0 
L 0 3.5 
" style="stroke: #000000; stroke-width: 0.8"/>
      </defs>
      <g>
       <use xlink:href="#md1e4788cfd" x="74.304472" y="390.04" style="stroke: #000000; stroke-width: 0.8"/>
      </g>
     </g>
     <g id="text_1">
      <!-- 0 -->
      <g transform="translate(71.123222 404.638438) scale(0.1 -0.1)">
       <defs>
        <path id="DejaVuSans-30" d="M 2034 4250 
Q 1547 4250 1301 3770 
Q 1056 3291 1056 2328 
Q 1056 1369 1301 889 
Q 1547 409 2034 409 
Q 2525 409 2770 889 
Q 3016 1369 3016 2328 
Q 3016 3291 2770 3770 
Q 2525 4250 2034 4250 
z
M 2034 4750 
Q 2819 4750 3233 4129 
Q 3647 3509 3647 2328 
Q 3647 1150 3233 529 
Q 2819 -91 2034 -91 
Q 1250 -91 836 529 
Q 422 1150 422 2328 
Q 422 3509 836 4129 
Q 1250 4750 2034 4750 
z
" transform="scale(0.015625)"/>
       </defs>
       <use xlink:href="#DejaVuSans-30"/>
      </g>
     </g>
    </g>
    <g id="xtick_2">
     <g id="line2d_2">
      <g>
       <use xlink:href="#md1e4788cfd" x="195.421513" y="390.04" style="stroke: #000000; stroke-width: 0.8"/>
      </g>
     </g>
     <g id="text_2">
      <!-- 20000 -->
      <g transform="translate(179.515263 404.638438) scale(0.1 -0.1)">
       <defs>
        <path id="DejaVuSans-32" d="M 1228 531 
L 3431 531 
L 3431 0 
L 469 0 
L 469 531 
Q 828 903 1448 1529 
Q 2069 2156 2228 2338 
Q 2531 2678 2651 2914 
Q 2772 3150 2772 3378 
Q 2772 3750 2511 3984 
Q 2250 4219 1831 4219 
Q 1534 4219 1204 4116 
Q 875 4013 500 3803 
L 500 4441 
Q 881 4594 1212 4672 
Q 1544 4750 1819 4750 
Q 2544 4750 2975 4387 
Q 3406 4025 3406 3419 
Q 3406 3131 3298 2873 
Q 3191 2616 2906 2266 
Q 2828 2175 2409 1742 
Q 1991 1309 1228 531 
z
" transform="scale(0.015625)"/>
       </defs>
       <use xlink:href="#DejaVuSans-32"/>
       <use xlink:href="#DejaVuSans-30" transform="translate(63.623047 0)"/>
       <use xlink:href="#DejaVuSans-30" transform="translate(127.246094 0)"/>
       <use xlink:href="#DejaVuSans-30" transform="translate(190.869141 0)"/>
       <use xlink:href="#DejaVuSans-30" transform="translate(254.492188 0)"/>
      </g>
     </g>
    </g>
    <g id="xtick_3">
     <g id="line2d_3">
      <g>
       <use xlink:href="#md1e4788cfd" x="316.538554" y="390.04" style="stroke: #000000; stroke-width: 0.8"/>
      </g>
     </g>
     <g id="text_3">
      <!-- 40000 -->
      <g transform="translate(300.632304 404.638438) scale(0.1 -0.1)">
       <defs>
        <path id="DejaVuSans-34" d="M 2419 4116 
L 825 1625 
L 2419 1625 
L 2419 4116 
z
M 2253 4666 
L 3047 4666 
L 3047 1625 
L 3713 1625 
L 3713 1100 
L 3047 1100 
L 3047 0 
L 2419 0 
L 2419 1100 
L 313 1100 
L 313 1709 
L 2253 4666 
z
" transform="scale(0.015625)"/>
       </defs>
       <use xlink:href="#DejaVuSans-34"/>
       <use xlink:href="#DejaVuSans-30" transform="translate(63.623047 0)"/>
       <use xlink:href="#DejaVuSans-30" transform="translate(127.246094 0)"/>
       <use xlink:href="#DejaVuSans-30" transform="translate(190.869141 0)"/>
       <use xlink:href="#DejaVuSans-30" transform="translate(254.492188 0)"/>
      </g>
     </g>
    </g>
    <g id="xtick_4">
     <g id="line2d_4">
      <g>
       <use xlink:href="#md1e4788cfd" x="437.655594" y="390.04" style="stroke: #000000; stroke-width: 0.8"/>
      </g>
     </g>
     <g id="text_4">
      <!-- 60000 -->
      <g transform="translate(421.749344 404.638438) scale(0.1 -0.1)">
       <defs>
        <path id="DejaVuSans-36" d="M 2113 2584 
Q 1688 2584 1439 2293 
Q 1191 2003 1191 1497 
Q 1191 994 1439 701 
Q 1688 409 2113 409 
Q 2538 409 2786 701 
Q 3034 994 3034 1497 
Q 3034 2003 2786 2293 
Q 2538 2584 2113 2584 
z
M 3366 4563 
L 3366 3988 
Q 3128 4100 2886 4159 
Q 2644 4219 2406 4219 
Q 1781 4219 1451 3797 
Q 1122 3375 1075 2522 
Q 1259 2794 1537 2939 
Q 1816 3084 2150 3084 
Q 2853 3084 3261 2657 
Q 3669 2231 3669 1497 
Q 3669 778 3244 343 
Q 2819 -91 2113 -91 
Q 1303 -91 875 529 
Q 447 1150 447 2328 
Q 447 3434 972 4092 
Q 1497 4750 2381 4750 
Q 2619 4750 2861 4703 
Q 3103 4656 3366 4563 
z
" transform="scale(0.015625)"/>
       </defs>
       <use xlink:href="#DejaVuSans-36"/>
       <use xlink:href="#DejaVuSans-30" transform="translate(63.623047 0)"/>
       <use xlink:href="#DejaVuSans-30" transform="translate(127.246094 0)"/>
       <use xlink:href="#DejaVuSans-30" transform="translate(190.869141 0)"/>
       <use xlink:href="#DejaVuSans-30" transform="translate(254.492188 0)"/>
      </g>
     </g>
    </g>
    <g id="xtick_5">
     <g id="line2d_5">
      <g>
       <use xlink:href="#md1e4788cfd" x="558.772635" y="390.04" style="stroke: #000000; stroke-width: 0.8"/>
      </g>
     </g>
     <g id="text_5">
      <!-- 80000 -->
      <g transform="translate(542.866385 404.638438) scale(0.1 -0.1)">
       <defs>
        <path id="DejaVuSans-38" d="M 2034 2216 
Q 1584 2216 1326 1975 
Q 1069 1734 1069 1313 
Q 1069 891 1326 650 
Q 1584 409 2034 409 
Q 2484 409 2743 651 
Q 3003 894 3003 1313 
Q 3003 1734 2745 1975 
Q 2488 2216 2034 2216 
z
M 1403 2484 
Q 997 2584 770 2862 
Q 544 3141 544 3541 
Q 544 4100 942 4425 
Q 1341 4750 2034 4750 
Q 2731 4750 3128 4425 
Q 3525 4100 3525 3541 
Q 3525 3141 3298 2862 
Q 3072 2584 2669 2484 
Q 3125 2378 3379 2068 
Q 3634 1759 3634 1313 
Q 3634 634 3220 271 
Q 2806 -91 2034 -91 
Q 1263 -91 848 271 
Q 434 634 434 1313 
Q 434 1759 690 2068 
Q 947 2378 1403 2484 
z
M 1172 3481 
Q 1172 3119 1398 2916 
Q 1625 2713 2034 2713 
Q 2441 2713 2670 2916 
Q 2900 3119 2900 3481 
Q 2900 3844 2670 4047 
Q 2441 4250 2034 4250 
Q 1625 4250 1398 4047 
Q 1172 3844 1172 3481 
z
" transform="scale(0.015625)"/>
       </defs>
       <use xlink:href="#DejaVuSans-38"/>
       <use xlink:href="#DejaVuSans-30" transform="translate(63.623047 0)"/>
       <use xlink:href="#DejaVuSans-30" transform="translate(127.246094 0)"/>
       <use xlink:href="#DejaVuSans-30" transform="translate(190.869141 0)"/>
       <use xlink:href="#DejaVuSans-30" transform="translate(254.492188 0)"/>
      </g>
     </g>
    </g>
    <g id="xtick_6">
     <g id="line2d_6">
      <g>
       <use xlink:href="#md1e4788cfd" x="679.889676" y="390.04" style="stroke: #000000; stroke-width: 0.8"/>
      </g>
     </g>
     <g id="text_6">
      <!-- 100000 -->
      <g transform="translate(660.802176 404.638438) scale(0.1 -0.1)">
       <defs>
        <path id="DejaVuSans-31" d="M 794 531 
L 1825 531 
L 1825 4091 
L 703 3866 
L 703 4441 
L 1819 4666 
L 2450 4666 
L 2450 531 
L 3481 531 
L 3481 0 
L 794 0 
L 794 531 
z
" transform="scale(0.015625)"/>
       </defs>
       <use xlink:href="#DejaVuSans-31"/>
       <use xlink:href="#DejaVuSans-30" transform="translate(63.623047 0)"/>
       <use xlink:href="#DejaVuSans-30" transform="translate(127.246094 0)"/>
       <use xlink:href="#DejaVuSans-30" transform="translate(190.869141 0)"/>
       <use xlink:href="#DejaVuSans-30" transform="translate(254.492188 0)"/>
       <use xlink:href="#DejaVuSans-30" transform="translate(318.115234 0)"/>
      </g>
     </g>
    </g>
    <g id="text_7">
     <!-- Step -->
     <g transform="translate(368.739844 418.316562) scale(0.1 -0.1)">
      <defs>
       <path id="DejaVuSans-53" d="M 3425 4513 
L 3425 3897 
Q 3066 4069 2747 4153 
Q 2428 4238 2131 4238 
Q 1616 4238 1336 4038 
Q 1056 3838 1056 3469 
Q 1056 3159 1242 3001 
Q 1428 2844 1947 2747 
L 2328 2669 
Q 3034 2534 3370 2195 
Q 3706 1856 3706 1288 
Q 3706 609 3251 259 
Q 2797 -91 1919 -91 
Q 1588 -91 1214 -16 
Q 841 59 441 206 
L 441 856 
Q 825 641 1194 531 
Q 1563 422 1919 422 
Q 2459 422 2753 634 
Q 3047 847 3047 1241 
Q 3047 1584 2836 1778 
Q 2625 1972 2144 2069 
L 1759 2144 
Q 1053 2284 737 2584 
Q 422 2884 422 3419 
Q 422 4038 858 4394 
Q 1294 4750 2059 4750 
Q 2388 4750 2728 4690 
Q 3069 4631 3425 4513 
z
" transform="scale(0.015625)"/>
       <path id="DejaVuSans-74" d="M 1172 4494 
L 1172 3500 
L 2356 3500 
L 2356 3053 
L 1172 3053 
L 1172 1153 
Q 1172 725 1289 603 
Q 1406 481 1766 481 
L 2356 481 
L 2356 0 
L 1766 0 
Q 1100 0 847 248 
Q 594 497 594 1153 
L 594 3053 
L 172 3053 
L 172 3500 
L 594 3500 
L 594 4494 
L 1172 4494 
z
" transform="scale(0.015625)"/>
       <path id="DejaVuSans-65" d="M 3597 1894 
L 3597 1613 
L 953 1613 
Q 991 1019 1311 708 
Q 1631 397 2203 397 
Q 2534 397 2845 478 
Q 3156 559 3463 722 
L 3463 178 
Q 3153 47 2828 -22 
Q 2503 -91 2169 -91 
Q 1331 -91 842 396 
Q 353 884 353 1716 
Q 353 2575 817 3079 
Q 1281 3584 2069 3584 
Q 2775 3584 3186 3129 
Q 3597 2675 3597 1894 
z
M 3022 2063 
Q 3016 2534 2758 2815 
Q 2500 3097 2075 3097 
Q 1594 3097 1305 2825 
Q 1016 2553 972 2059 
L 3022 2063 
z
" transform="scale(0.015625)"/>
       <path id="DejaVuSans-70" d="M 1159 525 
L 1159 -1331 
L 581 -1331 
L 581 3500 
L 1159 3500 
L 1159 2969 
Q 1341 3281 1617 3432 
Q 1894 3584 2278 3584 
Q 2916 3584 3314 3078 
Q 3713 2572 3713 1747 
Q 3713 922 3314 415 
Q 2916 -91 2278 -91 
Q 1894 -91 1617 61 
Q 1341 213 1159 525 
z
M 3116 1747 
Q 3116 2381 2855 2742 
Q 2594 3103 2138 3103 
Q 1681 3103 1420 2742 
Q 1159 2381 1159 1747 
Q 1159 1113 1420 752 
Q 1681 391 2138 391 
Q 2594 391 2855 752 
Q 3116 1113 3116 1747 
z
" transform="scale(0.015625)"/>
      </defs>
      <use xlink:href="#DejaVuSans-53"/>
      <use xlink:href="#DejaVuSans-74" transform="translate(63.476562 0)"/>
      <use xlink:href="#DejaVuSans-65" transform="translate(102.685547 0)"/>
      <use xlink:href="#DejaVuSans-70" transform="translate(164.208984 0)"/>
     </g>
    </g>
   </g>
   <g id="matplotlib.axis_2">
    <g id="ytick_1">
     <g id="line2d_7">
      <defs>
       <path id="m4d8caf0f73" d="M 0 0 
L -3.5 0 
" style="stroke: #000000; stroke-width: 0.8"/>
      </defs>
      <g>
       <use xlink:href="#m4d8caf0f73" x="51.05" y="351.370303" style="stroke: #000000; stroke-width: 0.8"/>
      </g>
     </g>
     <g id="text_8">
      <!-- 90 -->
      <g transform="translate(31.325 355.169522) scale(0.1 -0.1)">
       <defs>
        <path id="DejaVuSans-39" d="M 703 97 
L 703 672 
Q 941 559 1184 500 
Q 1428 441 1663 441 
Q 2288 441 2617 861 
Q 2947 1281 2994 2138 
Q 2813 1869 2534 1725 
Q 2256 1581 1919 1581 
Q 1219 1581 811 2004 
Q 403 2428 403 3163 
Q 403 3881 828 4315 
Q 1253 4750 1959 4750 
Q 2769 4750 3195 4129 
Q 3622 3509 3622 2328 
Q 3622 1225 3098 567 
Q 2575 -91 1691 -91 
Q 1453 -91 1209 -44 
Q 966 3 703 97 
z
M 1959 2075 
Q 2384 2075 2632 2365 
Q 2881 2656 2881 3163 
Q 2881 3666 2632 3958 
Q 2384 4250 1959 4250 
Q 1534 4250 1286 3958 
Q 1038 3666 1038 3163 
Q 1038 2656 1286 2365 
Q 1534 2075 1959 2075 
z
" transform="scale(0.015625)"/>
       </defs>
       <use xlink:href="#DejaVuSans-39"/>
       <use xlink:href="#DejaVuSans-30" transform="translate(63.623047 0)"/>
      </g>
     </g>
    </g>
    <g id="ytick_2">
     <g id="line2d_8">
      <g>
       <use xlink:href="#m4d8caf0f73" x="51.05" y="307.176364" style="stroke: #000000; stroke-width: 0.8"/>
      </g>
     </g>
     <g id="text_9">
      <!-- 100 -->
      <g transform="translate(24.9625 310.975582) scale(0.1 -0.1)">
       <use xlink:href="#DejaVuSans-31"/>
       <use xlink:href="#DejaVuSans-30" transform="translate(63.623047 0)"/>
       <use xlink:href="#DejaVuSans-30" transform="translate(127.246094 0)"/>
      </g>
     </g>
    </g>
    <g id="ytick_3">
     <g id="line2d_9">
      <g>
       <use xlink:href="#m4d8caf0f73" x="51.05" y="262.982424" style="stroke: #000000; stroke-width: 0.8"/>
      </g>
     </g>
     <g id="text_10">
      <!-- 110 -->
      <g transform="translate(24.9625 266.781643) scale(0.1 -0.1)">
       <use xlink:href="#DejaVuSans-31"/>
       <use xlink:href="#DejaVuSans-31" transform="translate(63.623047 0)"/>
       <use xlink:href="#DejaVuSans-30" transform="translate(127.246094 0)"/>
      </g>
     </g>
    </g>
    <g id="ytick_4">
     <g id="line2d_10">
      <g>
       <use xlink:href="#m4d8caf0f73" x="51.05" y="218.788485" style="stroke: #000000; stroke-width: 0.8"/>
      </g>
     </g>
     <g id="text_11">
      <!-- 120 -->
      <g transform="translate(24.9625 222.587704) scale(0.1 -0.1)">
       <use xlink:href="#DejaVuSans-31"/>
       <use xlink:href="#DejaVuSans-32" transform="translate(63.623047 0)"/>
       <use xlink:href="#DejaVuSans-30" transform="translate(127.246094 0)"/>
      </g>
     </g>
    </g>
    <g id="ytick_5">
     <g id="line2d_11">
      <g>
       <use xlink:href="#m4d8caf0f73" x="51.05" y="174.594545" style="stroke: #000000; stroke-width: 0.8"/>
      </g>
     </g>
     <g id="text_12">
      <!-- 130 -->
      <g transform="translate(24.9625 178.393764) scale(0.1 -0.1)">
       <defs>
        <path id="DejaVuSans-33" d="M 2597 2516 
Q 3050 2419 3304 2112 
Q 3559 1806 3559 1356 
Q 3559 666 3084 287 
Q 2609 -91 1734 -91 
Q 1441 -91 1130 -33 
Q 819 25 488 141 
L 488 750 
Q 750 597 1062 519 
Q 1375 441 1716 441 
Q 2309 441 2620 675 
Q 2931 909 2931 1356 
Q 2931 1769 2642 2001 
Q 2353 2234 1838 2234 
L 1294 2234 
L 1294 2753 
L 1863 2753 
Q 2328 2753 2575 2939 
Q 2822 3125 2822 3475 
Q 2822 3834 2567 4026 
Q 2313 4219 1838 4219 
Q 1578 4219 1281 4162 
Q 984 4106 628 3988 
L 628 4550 
Q 988 4650 1302 4700 
Q 1616 4750 1894 4750 
Q 2613 4750 3031 4423 
Q 3450 4097 3450 3541 
Q 3450 3153 3228 2886 
Q 3006 2619 2597 2516 
z
" transform="scale(0.015625)"/>
       </defs>
       <use xlink:href="#DejaVuSans-31"/>
       <use xlink:href="#DejaVuSans-33" transform="translate(63.623047 0)"/>
       <use xlink:href="#DejaVuSans-30" transform="translate(127.246094 0)"/>
      </g>
     </g>
    </g>
    <g id="ytick_6">
     <g id="line2d_12">
      <g>
       <use xlink:href="#m4d8caf0f73" x="51.05" y="130.400606" style="stroke: #000000; stroke-width: 0.8"/>
      </g>
     </g>
     <g id="text_13">
      <!-- 140 -->
      <g transform="translate(24.9625 134.199825) scale(0.1 -0.1)">
       <use xlink:href="#DejaVuSans-31"/>
       <use xlink:href="#DejaVuSans-34" transform="translate(63.623047 0)"/>
       <use xlink:href="#DejaVuSans-30" transform="translate(127.246094 0)"/>
      </g>
     </g>
    </g>
    <g id="ytick_7">
     <g id="line2d_13">
      <g>
       <use xlink:href="#m4d8caf0f73" x="51.05" y="86.206667" style="stroke: #000000; stroke-width: 0.8"/>
      </g>
     </g>
     <g id="text_14">
      <!-- 150 -->
      <g transform="translate(24.9625 90.005885) scale(0.1 -0.1)">
       <defs>
        <path id="DejaVuSans-35" d="M 691 4666 
L 3169 4666 
L 3169 4134 
L 1269 4134 
L 1269 2991 
Q 1406 3038 1543 3061 
Q 1681 3084 1819 3084 
Q 2600 3084 3056 2656 
Q 3513 2228 3513 1497 
Q 3513 744 3044 326 
Q 2575 -91 1722 -91 
Q 1428 -91 1123 -41 
Q 819 9 494 109 
L 494 744 
Q 775 591 1075 516 
Q 1375 441 1709 441 
Q 2250 441 2565 725 
Q 2881 1009 2881 1497 
Q 2881 1984 2565 2268 
Q 2250 2553 1709 2553 
Q 1456 2553 1204 2497 
Q 953 2441 691 2322 
L 691 4666 
z
" transform="scale(0.015625)"/>
       </defs>
       <use xlink:href="#DejaVuSans-31"/>
       <use xlink:href="#DejaVuSans-35" transform="translate(63.623047 0)"/>
       <use xlink:href="#DejaVuSans-30" transform="translate(127.246094 0)"/>
      </g>
     </g>
    </g>
    <g id="ytick_8">
     <g id="line2d_14">
      <g>
       <use xlink:href="#m4d8caf0f73" x="51.05" y="42.012727" style="stroke: #000000; stroke-width: 0.8"/>
      </g>
     </g>
     <g id="text_15">
      <!-- 160 -->
      <g transform="translate(24.9625 45.811946) scale(0.1 -0.1)">
       <use xlink:href="#DejaVuSans-31"/>
       <use xlink:href="#DejaVuSans-36" transform="translate(63.623047 0)"/>
       <use xlink:href="#DejaVuSans-30" transform="translate(127.246094 0)"/>
      </g>
     </g>
    </g>
    <g id="text_16">
     <!-- charts/SPS -->
     <g transform="translate(18.882812 234.39) rotate(-90) scale(0.1 -0.1)">
      <defs>
       <path id="DejaVuSans-63" d="M 3122 3366 
L 3122 2828 
Q 2878 2963 2633 3030 
Q 2388 3097 2138 3097 
Q 1578 3097 1268 2742 
Q 959 2388 959 1747 
Q 959 1106 1268 751 
Q 1578 397 2138 397 
Q 2388 397 2633 464 
Q 2878 531 3122 666 
L 3122 134 
Q 2881 22 2623 -34 
Q 2366 -91 2075 -91 
Q 1284 -91 818 406 
Q 353 903 353 1747 
Q 353 2603 823 3093 
Q 1294 3584 2113 3584 
Q 2378 3584 2631 3529 
Q 2884 3475 3122 3366 
z
" transform="scale(0.015625)"/>
       <path id="DejaVuSans-68" d="M 3513 2113 
L 3513 0 
L 2938 0 
L 2938 2094 
Q 2938 2591 2744 2837 
Q 2550 3084 2163 3084 
Q 1697 3084 1428 2787 
Q 1159 2491 1159 1978 
L 1159 0 
L 581 0 
L 581 4863 
L 1159 4863 
L 1159 2956 
Q 1366 3272 1645 3428 
Q 1925 3584 2291 3584 
Q 2894 3584 3203 3211 
Q 3513 2838 3513 2113 
z
" transform="scale(0.015625)"/>
       <path id="DejaVuSans-61" d="M 2194 1759 
Q 1497 1759 1228 1600 
Q 959 1441 959 1056 
Q 959 750 1161 570 
Q 1363 391 1709 391 
Q 2188 391 2477 730 
Q 2766 1069 2766 1631 
L 2766 1759 
L 2194 1759 
z
M 3341 1997 
L 3341 0 
L 2766 0 
L 2766 531 
Q 2569 213 2275 61 
Q 1981 -91 1556 -91 
Q 1019 -91 701 211 
Q 384 513 384 1019 
Q 384 1609 779 1909 
Q 1175 2209 1959 2209 
L 2766 2209 
L 2766 2266 
Q 2766 2663 2505 2880 
Q 2244 3097 1772 3097 
Q 1472 3097 1187 3025 
Q 903 2953 641 2809 
L 641 3341 
Q 956 3463 1253 3523 
Q 1550 3584 1831 3584 
Q 2591 3584 2966 3190 
Q 3341 2797 3341 1997 
z
" transform="scale(0.015625)"/>
       <path id="DejaVuSans-72" d="M 2631 2963 
Q 2534 3019 2420 3045 
Q 2306 3072 2169 3072 
Q 1681 3072 1420 2755 
Q 1159 2438 1159 1844 
L 1159 0 
L 581 0 
L 581 3500 
L 1159 3500 
L 1159 2956 
Q 1341 3275 1631 3429 
Q 1922 3584 2338 3584 
Q 2397 3584 2469 3576 
Q 2541 3569 2628 3553 
L 2631 2963 
z
" transform="scale(0.015625)"/>
       <path id="DejaVuSans-73" d="M 2834 3397 
L 2834 2853 
Q 2591 2978 2328 3040 
Q 2066 3103 1784 3103 
Q 1356 3103 1142 2972 
Q 928 2841 928 2578 
Q 928 2378 1081 2264 
Q 1234 2150 1697 2047 
L 1894 2003 
Q 2506 1872 2764 1633 
Q 3022 1394 3022 966 
Q 3022 478 2636 193 
Q 2250 -91 1575 -91 
Q 1294 -91 989 -36 
Q 684 19 347 128 
L 347 722 
Q 666 556 975 473 
Q 1284 391 1588 391 
Q 1994 391 2212 530 
Q 2431 669 2431 922 
Q 2431 1156 2273 1281 
Q 2116 1406 1581 1522 
L 1381 1569 
Q 847 1681 609 1914 
Q 372 2147 372 2553 
Q 372 3047 722 3315 
Q 1072 3584 1716 3584 
Q 2034 3584 2315 3537 
Q 2597 3491 2834 3397 
z
" transform="scale(0.015625)"/>
       <path id="DejaVuSans-2f" d="M 1625 4666 
L 2156 4666 
L 531 -594 
L 0 -594 
L 1625 4666 
z
" transform="scale(0.015625)"/>
       <path id="DejaVuSans-50" d="M 1259 4147 
L 1259 2394 
L 2053 2394 
Q 2494 2394 2734 2622 
Q 2975 2850 2975 3272 
Q 2975 3691 2734 3919 
Q 2494 4147 2053 4147 
L 1259 4147 
z
M 628 4666 
L 2053 4666 
Q 2838 4666 3239 4311 
Q 3641 3956 3641 3272 
Q 3641 2581 3239 2228 
Q 2838 1875 2053 1875 
L 1259 1875 
L 1259 0 
L 628 0 
L 628 4666 
z
" transform="scale(0.015625)"/>
      </defs>
      <use xlink:href="#DejaVuSans-63"/>
      <use xlink:href="#DejaVuSans-68" transform="translate(54.980469 0)"/>
      <use xlink:href="#DejaVuSans-61" transform="translate(118.359375 0)"/>
      <use xlink:href="#DejaVuSans-72" transform="translate(179.638672 0)"/>
      <use xlink:href="#DejaVuSans-74" transform="translate(220.751953 0)"/>
      <use xlink:href="#DejaVuSans-73" transform="translate(259.960938 0)"/>
      <use xlink:href="#DejaVuSans-2f" transform="translate(312.060547 0)"/>
      <use xlink:href="#DejaVuSans-53" transform="translate(345.751953 0)"/>
      <use xlink:href="#DejaVuSans-50" transform="translate(409.228516 0)"/>
      <use xlink:href="#DejaVuSans-53" transform="translate(469.53125 0)"/>
     </g>
    </g>
   </g>
   <g id="line2d_15">
    <path d="M 80.965909 259.253561 
L 82.163743 227.403317 
L 83.361577 200.817555 
L 84.559412 180.315786 
L 85.757246 163.158977 
L 87.553997 142.666332 
L 88.751831 131.605682 
L 91.1475 114.076857 
L 94.142085 101.029498 
L 95.339919 96.421538 
L 95.938837 94.072491 
L 98.933422 84.95998 
L 99.532339 84.003605 
L 100.131256 82.379097 
L 100.730173 81.121626 
L 101.32909 80.129309 
L 102.526925 77.667731 
L 103.125842 76.738729 
L 103.724759 76.160177 
L 104.323676 75.75042 
L 104.922593 74.954271 
L 105.52151 73.937346 
L 106.120427 73.20396 
L 106.719344 72.803052 
L 107.318261 72.672273 
L 108.516096 72.810379 
L 110.312847 72.406982 
L 113.307432 71.153106 
L 114.505267 71.323423 
L 115.104184 71.153106 
L 115.703101 71.302825 
L 116.302018 71.61581 
L 117.499852 71.70553 
L 118.697686 71.556226 
L 119.296603 71.884418 
L 119.895521 71.942481 
L 120.494438 71.881377 
L 121.692272 72.258646 
L 122.291189 72.672273 
L 123.489023 72.70241 
L 124.08794 72.896229 
L 125.285774 73.66459 
L 125.884692 73.873339 
L 126.483609 74.352079 
L 127.082526 74.635757 
L 127.681443 75.630977 
L 128.879277 76.345286 
L 130.077111 77.519395 
L 131.274945 77.82367 
L 132.47278 78.77092 
L 133.071697 79.198095 
L 133.670614 79.991894 
L 134.269531 80.000189 
L 135.467365 80.819701 
L 136.066282 80.956839 
L 136.665199 81.902154 
L 138.461951 83.152573 
L 139.060868 83.811861 
L 141.456536 84.411288 
L 142.055453 84.53239 
L 142.65437 85.027719 
L 143.253287 85.337939 
L 143.852204 85.84419 
L 144.451122 86.505551 
L 145.050039 86.847982 
L 145.648956 87.345109 
L 147.445707 88.247567 
L 148.643541 88.625113 
L 149.242458 89.001137 
L 149.841375 89.208227 
L 151.03921 89.75761 
L 152.835961 90.216719 
L 154.033795 90.945543 
L 155.231629 91.717638 
L 155.830546 91.869015 
L 156.429464 91.869015 
L 157.028381 92.035185 
L 158.226215 92.777695 
L 160.022966 93.325557 
L 161.2208 94.151152 
L 163.017552 94.422802 
L 163.616469 94.559388 
L 164.814303 95.045455 
L 165.41322 95.10725 
L 166.611054 95.459773 
L 167.808888 95.459773 
L 168.407806 95.67654 
L 169.006723 96.064868 
L 169.60564 96.150303 
L 170.204557 96.398452 
L 170.803474 96.840833 
L 171.402391 96.93401 
L 172.600225 97.393258 
L 173.199142 97.47731 
L 174.396977 97.846561 
L 177.391562 98.391381 
L 177.990479 98.587688 
L 178.589396 98.940764 
L 179.78723 99.05053 
L 180.985065 99.095045 
L 182.781816 99.879167 
L 183.97965 99.893821 
L 184.578567 100.017273 
L 185.776401 100.027365 
L 186.375319 100.172521 
L 187.573153 100.707803 
L 188.17207 100.71983 
L 189.369904 101.400269 
L 189.968821 101.67344 
L 190.567738 101.674545 
L 191.166655 101.943569 
L 191.765572 102.083749 
L 193.562324 102.088864 
L 194.760158 102.352357 
L 195.359075 102.61281 
L 197.155826 102.779394 
L 200.150412 103.305414 
L 201.348246 103.440478 
L 202.54608 103.60803 
L 203.743914 103.710608 
L 204.941749 103.884242 
L 205.540666 103.982258 
L 206.139583 104.215338 
L 207.337417 104.253908 
L 212.128754 104.574773 
L 213.925505 105.203923 
L 215.123339 105.403409 
L 215.722256 105.475573 
L 216.920091 105.886849 
L 218.117925 105.955833 
L 221.11251 105.955833 
L 223.508179 106.836864 
L 224.706013 106.922576 
L 228.299515 107.003034 
L 228.898433 107.198788 
L 230.695184 107.232934 
L 231.893018 107.336894 
L 233.090852 107.364958 
L 235.486521 107.751212 
L 236.684355 107.789091 
L 237.283272 108.027424 
L 242.074609 108.032678 
L 242.673526 108.172995 
L 243.272443 108.443954 
L 243.87136 108.579848 
L 245.668111 108.579848 
L 246.267028 108.712563 
L 246.865945 108.717955 
L 247.464863 108.847628 
L 248.06378 108.856061 
L 249.860531 109.132273 
L 252.855116 109.132273 
L 255.250785 109.546591 
L 257.646453 109.650412 
L 258.844287 109.684697 
L 260.042122 110.058648 
L 261.239956 110.055606 
L 262.43779 110.237121 
L 264.234541 110.324215 
L 264.833458 110.375227 
L 266.031293 110.651439 
L 269.624795 110.716138 
L 272.619381 111.065758 
L 275.613966 111.123958 
L 276.8118 111.203864 
L 279.806386 111.298976 
L 280.405303 111.43404 
L 281.603137 111.34197 
L 284.597723 111.550857 
L 285.19664 111.756288 
L 286.993391 111.785596 
L 287.592308 111.894394 
L 289.987977 111.894394 
L 297.773899 111.896329 
L 298.372816 112.0325 
L 300.768484 112.0325 
L 301.367401 112.163417 
L 304.960904 112.308712 
L 306.158738 112.446818 
L 309.153324 112.446818 
L 309.752241 112.666074 
L 310.351158 112.614923 
L 312.147909 112.757591 
L 313.345743 112.72303 
L 314.543578 112.861136 
L 321.131666 112.941871 
L 323.527334 113.062697 
L 325.923003 112.999242 
L 328.917588 113.060208 
L 330.115422 113.275455 
L 332.511091 113.327296 
L 334.307842 113.689773 
L 336.104593 113.73249 
L 337.302427 113.965985 
L 339.698096 113.999578 
L 341.494847 114.242197 
L 343.291598 114.266666 
L 345.687267 114.794621 
L 349.280769 114.803884 
L 349.879687 114.932727 
L 350.478604 114.926506 
L 351.077521 114.794621 
L 351.676438 114.797801 
L 352.275355 114.932727 
L 353.473189 114.932727 
L 354.671023 115.204516 
L 355.26994 115.076778 
L 355.868857 115.070833 
L 357.665609 115.347045 
L 376.232039 115.268108 
L 377.429873 115.208939 
L 380.424459 115.277232 
L 381.622293 115.347045 
L 384.616878 115.404693 
L 387.012547 115.623258 
L 391.204966 115.664178 
L 392.402801 115.761364 
L 403.782225 115.77035 
L 404.381143 115.89947 
L 405.578977 115.895046 
L 406.177894 115.761364 
L 407.375728 115.761364 
L 407.974645 115.897811 
L 424.145407 116.037576 
L 426.541075 116.313788 
L 436.123749 116.378763 
L 437.321583 116.451894 
L 445.107505 116.494058 
L 446.305339 116.688983 
L 446.904257 116.59 
L 447.503174 116.662164 
L 448.102091 116.866212 
L 466.668521 116.866212 
L 467.866355 117.004318 
L 468.465272 117.004318 
L 469.663106 116.866212 
L 470.86094 116.866212 
L 471.459858 116.979572 
L 472.058775 116.892479 
L 473.256609 117.004318 
L 480.443614 117.094868 
L 482.240365 117.142424 
L 483.4382 117.225371 
L 485.234951 117.28053 
L 491.823039 117.342187 
L 493.020873 117.418636 
L 494.817624 117.28053 
L 496.015459 117.367624 
L 497.213293 117.28053 
L 505.598132 117.333893 
L 506.197049 117.556742 
L 507.993801 117.577341 
L 508.592718 117.694848 
L 522.367811 117.694848 
L 523.565645 117.832955 
L 528.955899 117.938435 
L 530.75265 117.971061 
L 531.351567 117.871663 
L 532.549402 118.109167 
L 546.923412 118.187413 
L 551.714749 118.385379 
L 559.500671 118.413304 
L 560.698505 118.523485 
L 563.094174 118.542286 
L 563.693091 118.64431 
L 564.292008 118.555005 
L 564.890925 118.799697 
L 569.682262 118.799697 
L 571.479013 118.799697 
L 572.07793 118.933794 
L 572.676847 118.937803 
L 573.275764 118.806747 
L 573.874681 118.799697 
L 574.473599 118.927711 
L 576.27035 118.937803 
L 577.468184 118.799697 
L 578.666018 118.937803 
L 580.46277 118.937803 
L 581.660604 119.075909 
L 595.435697 119.150699 
L 596.633531 119.214015 
L 612.804293 119.244705 
L 614.002127 119.352121 
L 649.937153 119.426635 
L 651.134987 119.490227 
L 679.284091 119.490227 
L 679.284091 119.490227 
" clip-path="url(#p5063df7847)" style="fill: none; stroke: #ff00ff; stroke-width: 1.5; stroke-linecap: square"/>
   </g>
   <g id="patch_3">
    <path d="M 51.05 390.04 
L 51.05 25.44 
" style="fill: none; stroke: #000000; stroke-width: 0.8; stroke-linejoin: miter; stroke-linecap: square"/>
   </g>
   <g id="patch_4">
    <path d="M 709.2 390.04 
L 709.2 25.44 
" style="fill: none; stroke: #000000; stroke-width: 0.8; stroke-linejoin: miter; stroke-linecap: square"/>
   </g>
   <g id="patch_5">
    <path d="M 51.05 390.04 
L 709.2 390.04 
" style="fill: none; stroke: #000000; stroke-width: 0.8; stroke-linejoin: miter; stroke-linecap: square"/>
   </g>
   <g id="patch_6">
    <path d="M 51.05 25.44 
L 709.2 25.44 
" style="fill: none; stroke: #000000; stroke-width: 0.8; stroke-linejoin: miter; stroke-linecap: square"/>
   </g>
   <g id="text_17">
    <!-- charts/SPS for c51_atari (aggregated via interpolation over runs) -->
    <g transform="translate(185.664063 19.44) scale(0.12 -0.12)">
     <defs>
      <path id="DejaVuSans-20" transform="scale(0.015625)"/>
      <path id="DejaVuSans-66" d="M 2375 4863 
L 2375 4384 
L 1825 4384 
Q 1516 4384 1395 4259 
Q 1275 4134 1275 3809 
L 1275 3500 
L 2222 3500 
L 2222 3053 
L 1275 3053 
L 1275 0 
L 697 0 
L 697 3053 
L 147 3053 
L 147 3500 
L 697 3500 
L 697 3744 
Q 697 4328 969 4595 
Q 1241 4863 1831 4863 
L 2375 4863 
z
" transform="scale(0.015625)"/>
      <path id="DejaVuSans-6f" d="M 1959 3097 
Q 1497 3097 1228 2736 
Q 959 2375 959 1747 
Q 959 1119 1226 758 
Q 1494 397 1959 397 
Q 2419 397 2687 759 
Q 2956 1122 2956 1747 
Q 2956 2369 2687 2733 
Q 2419 3097 1959 3097 
z
M 1959 3584 
Q 2709 3584 3137 3096 
Q 3566 2609 3566 1747 
Q 3566 888 3137 398 
Q 2709 -91 1959 -91 
Q 1206 -91 779 398 
Q 353 888 353 1747 
Q 353 2609 779 3096 
Q 1206 3584 1959 3584 
z
" transform="scale(0.015625)"/>
      <path id="DejaVuSans-5f" d="M 3263 -1063 
L 3263 -1509 
L -63 -1509 
L -63 -1063 
L 3263 -1063 
z
" transform="scale(0.015625)"/>
      <path id="DejaVuSans-69" d="M 603 3500 
L 1178 3500 
L 1178 0 
L 603 0 
L 603 3500 
z
M 603 4863 
L 1178 4863 
L 1178 4134 
L 603 4134 
L 603 4863 
z
" transform="scale(0.015625)"/>
      <path id="DejaVuSans-28" d="M 1984 4856 
Q 1566 4138 1362 3434 
Q 1159 2731 1159 2009 
Q 1159 1288 1364 580 
Q 1569 -128 1984 -844 
L 1484 -844 
Q 1016 -109 783 600 
Q 550 1309 550 2009 
Q 550 2706 781 3412 
Q 1013 4119 1484 4856 
L 1984 4856 
z
" transform="scale(0.015625)"/>
      <path id="DejaVuSans-67" d="M 2906 1791 
Q 2906 2416 2648 2759 
Q 2391 3103 1925 3103 
Q 1463 3103 1205 2759 
Q 947 2416 947 1791 
Q 947 1169 1205 825 
Q 1463 481 1925 481 
Q 2391 481 2648 825 
Q 2906 1169 2906 1791 
z
M 3481 434 
Q 3481 -459 3084 -895 
Q 2688 -1331 1869 -1331 
Q 1566 -1331 1297 -1286 
Q 1028 -1241 775 -1147 
L 775 -588 
Q 1028 -725 1275 -790 
Q 1522 -856 1778 -856 
Q 2344 -856 2625 -561 
Q 2906 -266 2906 331 
L 2906 616 
Q 2728 306 2450 153 
Q 2172 0 1784 0 
Q 1141 0 747 490 
Q 353 981 353 1791 
Q 353 2603 747 3093 
Q 1141 3584 1784 3584 
Q 2172 3584 2450 3431 
Q 2728 3278 2906 2969 
L 2906 3500 
L 3481 3500 
L 3481 434 
z
" transform="scale(0.015625)"/>
      <path id="DejaVuSans-64" d="M 2906 2969 
L 2906 4863 
L 3481 4863 
L 3481 0 
L 2906 0 
L 2906 525 
Q 2725 213 2448 61 
Q 2172 -91 1784 -91 
Q 1150 -91 751 415 
Q 353 922 353 1747 
Q 353 2572 751 3078 
Q 1150 3584 1784 3584 
Q 2172 3584 2448 3432 
Q 2725 3281 2906 2969 
z
M 947 1747 
Q 947 1113 1208 752 
Q 1469 391 1925 391 
Q 2381 391 2643 752 
Q 2906 1113 2906 1747 
Q 2906 2381 2643 2742 
Q 2381 3103 1925 3103 
Q 1469 3103 1208 2742 
Q 947 2381 947 1747 
z
" transform="scale(0.015625)"/>
      <path id="DejaVuSans-76" d="M 191 3500 
L 800 3500 
L 1894 563 
L 2988 3500 
L 3597 3500 
L 2284 0 
L 1503 0 
L 191 3500 
z
" transform="scale(0.015625)"/>
      <path id="DejaVuSans-6e" d="M 3513 2113 
L 3513 0 
L 2938 0 
L 2938 2094 
Q 2938 2591 2744 2837 
Q 2550 3084 2163 3084 
Q 1697 3084 1428 2787 
Q 1159 2491 1159 1978 
L 1159 0 
L 581 0 
L 581 3500 
L 1159 3500 
L 1159 2956 
Q 1366 3272 1645 3428 
Q 1925 3584 2291 3584 
Q 2894 3584 3203 3211 
Q 3513 2838 3513 2113 
z
" transform="scale(0.015625)"/>
      <path id="DejaVuSans-6c" d="M 603 4863 
L 1178 4863 
L 1178 0 
L 603 0 
L 603 4863 
z
" transform="scale(0.015625)"/>
      <path id="DejaVuSans-75" d="M 544 1381 
L 544 3500 
L 1119 3500 
L 1119 1403 
Q 1119 906 1312 657 
Q 1506 409 1894 409 
Q 2359 409 2629 706 
Q 2900 1003 2900 1516 
L 2900 3500 
L 3475 3500 
L 3475 0 
L 2900 0 
L 2900 538 
Q 2691 219 2414 64 
Q 2138 -91 1772 -91 
Q 1169 -91 856 284 
Q 544 659 544 1381 
z
M 1991 3584 
L 1991 3584 
z
" transform="scale(0.015625)"/>
      <path id="DejaVuSans-29" d="M 513 4856 
L 1013 4856 
Q 1481 4119 1714 3412 
Q 1947 2706 1947 2009 
Q 1947 1309 1714 600 
Q 1481 -109 1013 -844 
L 513 -844 
Q 928 -128 1133 580 
Q 1338 1288 1338 2009 
Q 1338 2731 1133 3434 
Q 928 4138 513 4856 
z
" transform="scale(0.015625)"/>
     </defs>
     <use xlink:href="#DejaVuSans-63"/>
     <use xlink:href="#DejaVuSans-68" transform="translate(54.980469 0)"/>
     <use xlink:href="#DejaVuSans-61" transform="translate(118.359375 0)"/>
     <use xlink:href="#DejaVuSans-72" transform="translate(179.638672 0)"/>
     <use xlink:href="#DejaVuSans-74" transform="translate(220.751953 0)"/>
     <use xlink:href="#DejaVuSans-73" transform="translate(259.960938 0)"/>
     <use xlink:href="#DejaVuSans-2f" transform="translate(312.060547 0)"/>
     <use xlink:href="#DejaVuSans-53" transform="translate(345.751953 0)"/>
     <use xlink:href="#DejaVuSans-50" transform="translate(409.228516 0)"/>
     <use xlink:href="#DejaVuSans-53" transform="translate(469.53125 0)"/>
     <use xlink:href="#DejaVuSans-20" transform="translate(533.007812 0)"/>
     <use xlink:href="#DejaVuSans-66" transform="translate(564.794922 0)"/>
     <use xlink:href="#DejaVuSans-6f" transform="translate(600 0)"/>
     <use xlink:href="#DejaVuSans-72" transform="translate(661.181641 0)"/>
     <use xlink:href="#DejaVuSans-20" transform="translate(702.294922 0)"/>
     <use xlink:href="#DejaVuSans-63" transform="translate(734.082031 0)"/>
     <use xlink:href="#DejaVuSans-35" transform="translate(789.0625 0)"/>
     <use xlink:href="#DejaVuSans-31" transform="translate(852.685547 0)"/>
     <use xlink:href="#DejaVuSans-5f" transform="translate(916.308594 0)"/>
     <use xlink:href="#DejaVuSans-61" transform="translate(966.308594 0)"/>
     <use xlink:href="#DejaVuSans-74" transform="translate(1027.587891 0)"/>
     <use xlink:href="#DejaVuSans-61" transform="translate(1066.796875 0)"/>
     <use xlink:href="#DejaVuSans-72" transform="translate(1128.076172 0)"/>
     <use xlink:href="#DejaVuSans-69" transform="translate(1169.189453 0)"/>
     <use xlink:href="#DejaVuSans-20" transform="translate(1196.972656 0)"/>
     <use xlink:href="#DejaVuSans-28" transform="translate(1228.759766 0)"/>
     <use xlink:href="#DejaVuSans-61" transform="translate(1267.773438 0)"/>
     <use xlink:href="#DejaVuSans-67" transform="translate(1329.052734 0)"/>
     <use xlink:href="#DejaVuSans-67" transform="translate(1392.529297 0)"/>
     <use xlink:href="#DejaVuSans-72" transform="translate(1456.005859 0)"/>
     <use xlink:href="#DejaVuSans-65" transform="translate(1494.869141 0)"/>
     <use xlink:href="#DejaVuSans-67" transform="translate(1556.392578 0)"/>
     <use xlink:href="#DejaVuSans-61" transform="translate(1619.869141 0)"/>
     <use xlink:href="#DejaVuSans-74" transform="translate(1681.148438 0)"/>
     <use xlink:href="#DejaVuSans-65" transform="translate(1720.357422 0)"/>
     <use xlink:href="#DejaVuSans-64" transform="translate(1781.880859 0)"/>
     <use xlink:href="#DejaVuSans-20" transform="translate(1845.357422 0)"/>
     <use xlink:href="#DejaVuSans-76" transform="translate(1877.144531 0)"/>
     <use xlink:href="#DejaVuSans-69" transform="translate(1936.324219 0)"/>
     <use xlink:href="#DejaVuSans-61" transform="translate(1964.107422 0)"/>
     <use xlink:href="#DejaVuSans-20" transform="translate(2025.386719 0)"/>
     <use xlink:href="#DejaVuSans-69" transform="translate(2057.173828 0)"/>
     <use xlink:href="#DejaVuSans-6e" transform="translate(2084.957031 0)"/>
     <use xlink:href="#DejaVuSans-74" transform="translate(2148.335938 0)"/>
     <use xlink:href="#DejaVuSans-65" transform="translate(2187.544922 0)"/>
     <use xlink:href="#DejaVuSans-72" transform="translate(2249.068359 0)"/>
     <use xlink:href="#DejaVuSans-70" transform="translate(2290.181641 0)"/>
     <use xlink:href="#DejaVuSans-6f" transform="translate(2353.658203 0)"/>
     <use xlink:href="#DejaVuSans-6c" transform="translate(2414.839844 0)"/>
     <use xlink:href="#DejaVuSans-61" transform="translate(2442.623047 0)"/>
     <use xlink:href="#DejaVuSans-74" transform="translate(2503.902344 0)"/>
     <use xlink:href="#DejaVuSans-69" transform="translate(2543.111328 0)"/>
     <use xlink:href="#DejaVuSans-6f" transform="translate(2570.894531 0)"/>
     <use xlink:href="#DejaVuSans-6e" transform="translate(2632.076172 0)"/>
     <use xlink:href="#DejaVuSans-20" transform="translate(2695.455078 0)"/>
     <use xlink:href="#DejaVuSans-6f" transform="translate(2727.242188 0)"/>
     <use xlink:href="#DejaVuSans-76" transform="translate(2788.423828 0)"/>
     <use xlink:href="#DejaVuSans-65" transform="translate(2847.603516 0)"/>
     <use xlink:href="#DejaVuSans-72" transform="translate(2909.126953 0)"/>
     <use xlink:href="#DejaVuSans-20" transform="translate(2950.240234 0)"/>
     <use xlink:href="#DejaVuSans-72" transform="translate(2982.027344 0)"/>
     <use xlink:href="#DejaVuSans-75" transform="translate(3023.140625 0)"/>
     <use xlink:href="#DejaVuSans-6e" transform="translate(3086.519531 0)"/>
     <use xlink:href="#DejaVuSans-73" transform="translate(3149.898438 0)"/>
     <use xlink:href="#DejaVuSans-29" transform="translate(3201.998047 0)"/>
    </g>
   </g>
   <g id="legend_1">
    <g id="patch_7">
     <path d="M 626.78125 62.79625 
L 702.2 62.79625 
Q 704.2 62.79625 704.2 60.79625 
L 704.2 32.44 
Q 704.2 30.44 702.2 30.44 
L 626.78125 30.44 
Q 624.78125 30.44 624.78125 32.44 
L 624.78125 60.79625 
Q 624.78125 62.79625 626.78125 62.79625 
z
" style="fill: #ffffff; opacity: 0.8; stroke: #cccccc; stroke-linejoin: miter"/>
    </g>
    <g id="line2d_16">
     <path d="M 628.78125 38.538437 
L 638.78125 38.538437 
L 648.78125 38.538437 
" style="fill: none; stroke: #ff00ff; stroke-width: 1.5; stroke-linecap: square"/>
    </g>
    <g id="text_18">
     <!-- Mean -->
     <g transform="translate(656.78125 42.038437) scale(0.1 -0.1)">
      <defs>
       <path id="DejaVuSans-4d" d="M 628 4666 
L 1569 4666 
L 2759 1491 
L 3956 4666 
L 4897 4666 
L 4897 0 
L 4281 0 
L 4281 4097 
L 3078 897 
L 2444 897 
L 1241 4097 
L 1241 0 
L 628 0 
L 628 4666 
z
" transform="scale(0.015625)"/>
      </defs>
      <use xlink:href="#DejaVuSans-4d"/>
      <use xlink:href="#DejaVuSans-65" transform="translate(86.279297 0)"/>
      <use xlink:href="#DejaVuSans-61" transform="translate(147.802734 0)"/>
      <use xlink:href="#DejaVuSans-6e" transform="translate(209.082031 0)"/>
     </g>
    </g>
    <g id="patch_8">
     <path d="M 628.78125 56.716563 
L 648.78125 56.716563 
L 648.78125 49.716563 
L 628.78125 49.716563 
z
" style="fill: #ff00ff; fill-opacity: 0.3; stroke: #ff00ff; stroke-opacity: 0.3; stroke-linejoin: miter"/>
    </g>
    <g id="text_19">
     <!-- MinMax -->
     <g transform="translate(656.78125 56.716563) scale(0.1 -0.1)">
      <defs>
       <path id="DejaVuSans-2013" d="M 313 1978 
L 2888 1978 
L 2888 1528 
L 313 1528 
L 313 1978 
z
" transform="scale(0.015625)"/>
       <path id="DejaVuSans-78" d="M 3513 3500 
L 2247 1797 
L 3578 0 
L 2900 0 
L 1881 1375 
L 863 0 
L 184 0 
L 1544 1831 
L 300 3500 
L 978 3500 
L 1906 2253 
L 2834 3500 
L 3513 3500 
z
" transform="scale(0.015625)"/>
      </defs>
      <use xlink:href="#DejaVuSans-4d"/>
      <use xlink:href="#DejaVuSans-69" transform="translate(86.279297 0)"/>
      <use xlink:href="#DejaVuSans-6e" transform="translate(114.0625 0)"/>
      <use xlink:href="#DejaVuSans-2013" transform="translate(177.441406 0)"/>
      <use xlink:href="#DejaVuSans-4d" transform="translate(227.441406 0)"/>
      <use xlink:href="#DejaVuSans-61" transform="translate(313.720703 0)"/>
      <use xlink:href="#DejaVuSans-78" transform="translate(375 0)"/>
     </g>
    </g>
   </g>
  </g>
 </g>
 <defs>
  <clipPath id="p5063df7847">
   <rect x="51.05" y="25.44" width="658.15" height="364.6"/>
  </clipPath>
 </defs>
</svg>
