<?xml version="1.0" encoding="utf-8" standalone="no"?>
<!DOCTYPE svg PUBLIC "-//W3C//DTD SVG 1.1//EN"
  "http://www.w3.org/Graphics/SVG/1.1/DTD/svg11.dtd">
<svg xmlns:xlink="http://www.w3.org/1999/xlink" width="720pt" height="432pt" viewBox="0 0 720 432" xmlns="http://www.w3.org/2000/svg" version="1.1">
 <metadata>
  <rdf:RDF xmlns:dc="http://purl.org/dc/elements/1.1/" xmlns:cc="http://creativecommons.org/ns#" xmlns:rdf="http://www.w3.org/1999/02/22-rdf-syntax-ns#">
   <cc:Work>
    <dc:type rdf:resource="http://purl.org/dc/dcmitype/StillImage"/>
    <dc:date>2025-02-05T20:31:41.672004</dc:date>
    <dc:format>image/svg+xml</dc:format>
    <dc:creator>
     <cc:Agent>
      <dc:title>Matplotlib v3.10.0, https://matplotlib.org/</dc:title>
     </cc:Agent>
    </dc:creator>
   </cc:Work>
  </rdf:RDF>
 </metadata>
 <defs>
  <style type="text/css">*{stroke-linejoin: round; stroke-linecap: butt}</style>
 </defs>
 <g id="figure_1">
  <g id="patch_1">
   <path d="M 0 432 
L 720 432 
L 720 0 
L 0 0 
z
" style="fill: #ffffff"/>
  </g>
  <g id="axes_1">
   <g id="patch_2">
    <path d="M 53.13125 390.04 
L 709.2 390.04 
L 709.2 25.44 
L 53.13125 25.44 
z
" style="fill: #ffffff"/>
   </g>
   <g id="FillBetweenPolyCollection_1">
    <defs>
     <path id="m9ba8d5afb8" d="M 82.952557 -389.987273 
L 82.952557 -346.506146 
L 83.54958 -346.506146 
L 84.146603 -346.506146 
L 84.743626 -346.506146 
L 85.340649 -346.506146 
L 85.937673 -346.506146 
L 86.534696 -346.506146 
L 87.131719 -346.506146 
L 87.728742 -346.506146 
L 88.325765 -346.506146 
L 88.922788 -346.506146 
L 89.519812 -346.506146 
L 90.116835 -346.506146 
L 90.713858 -346.506146 
L 91.310881 -346.506146 
L 91.907904 -346.506146 
L 92.504927 -346.506146 
L 93.101951 -347.699433 
L 93.698974 -349.834215 
L 94.295997 -351.49939 
L 94.89302 -351.493756 
L 95.490043 -351.195535 
L 96.087066 -351.195535 
L 96.684089 -351.195535 
L 97.281113 -351.23473 
L 97.878136 -350.122716 
L 98.475159 -347.373365 
L 99.072182 -344.624014 
L 99.669205 -341.874663 
L 100.266228 -339.125312 
L 100.863252 -336.375961 
L 101.460275 -333.62661 
L 102.057298 -330.877259 
L 102.654321 -328.127908 
L 103.251344 -325.378557 
L 103.848367 -325.716153 
L 104.445391 -326.939463 
L 105.042414 -328.162773 
L 105.639437 -329.386082 
L 106.23646 -330.609392 
L 106.833483 -331.832702 
L 107.430506 -333.056012 
L 108.02753 -330.251981 
L 108.624553 -323.233757 
L 109.221576 -316.215532 
L 109.818599 -309.197307 
L 110.415622 -302.179083 
L 111.012645 -295.160858 
L 111.609668 -288.142633 
L 112.206692 -281.124409 
L 112.803715 -274.106184 
L 113.400738 -267.087959 
L 113.997761 -260.069734 
L 114.594784 -258.41605 
L 115.191807 -257.196859 
L 115.788831 -255.977668 
L 116.385854 -254.758477 
L 116.982877 -253.539286 
L 117.5799 -252.320096 
L 118.176923 -251.100905 
L 118.773946 -249.881714 
L 119.37097 -248.662523 
L 119.967993 -247.443332 
L 120.565016 -246.224141 
L 121.162039 -245.00495 
L 121.759062 -243.785759 
L 122.356085 -242.566568 
L 122.953109 -241.347377 
L 123.550132 -240.128186 
L 124.147155 -238.908995 
L 124.744178 -238.002335 
L 125.341201 -240.139517 
L 125.938224 -242.276699 
L 126.535247 -244.413881 
L 127.132271 -246.551063 
L 127.729294 -248.688245 
L 128.326317 -250.825427 
L 128.92334 -252.962609 
L 129.520363 -255.099791 
L 130.117386 -256.287355 
L 130.71441 -254.150173 
L 131.311433 -252.012991 
L 131.908456 -246.382764 
L 132.505479 -238.15784 
L 133.102502 -229.932917 
L 133.699525 -221.707994 
L 134.296549 -213.483071 
L 134.893572 -205.258147 
L 135.490595 -199.150964 
L 136.087618 -197.320123 
L 136.684641 -195.489281 
L 137.281664 -193.65844 
L 137.878687 -191.827599 
L 138.475711 -189.996758 
L 139.072734 -188.165916 
L 139.669757 -186.335075 
L 140.26678 -184.504234 
L 140.863803 -182.673393 
L 141.460826 -175.361264 
L 142.05785 -165.596777 
L 142.654873 -155.832291 
L 143.251896 -146.067804 
L 143.848919 -136.303318 
L 144.445942 -126.538831 
L 145.042965 -116.774345 
L 145.639989 -107.009858 
L 146.237012 -104.846176 
L 146.834035 -110.94213 
L 147.431058 -117.038085 
L 148.028081 -123.13404 
L 148.625104 -129.229994 
L 149.222128 -135.325949 
L 149.819151 -141.421904 
L 150.416174 -147.517859 
L 151.013197 -153.613813 
L 151.61022 -159.709768 
L 152.207243 -165.805723 
L 152.804266 -170.952609 
L 153.40129 -170.340954 
L 153.998313 -169.729299 
L 154.595336 -169.117644 
L 155.192359 -168.505989 
L 155.789382 -167.894334 
L 156.386405 -167.282679 
L 156.983429 -162.397098 
L 157.580452 -156.287429 
L 158.177475 -150.17776 
L 158.774498 -144.068091 
L 159.371521 -137.958423 
L 159.968544 -131.848754 
L 160.565568 -125.739085 
L 161.162591 -119.629416 
L 161.759614 -113.519747 
L 162.356637 -107.410078 
L 162.95366 -101.300409 
L 163.550683 -95.190741 
L 164.147707 -89.081072 
L 164.74473 -82.971403 
L 165.341753 -76.861734 
L 165.938776 -70.752065 
L 166.535799 -64.642396 
L 167.132822 -58.532727 
L 167.729845 -63.555464 
L 168.326869 -68.742847 
L 168.923892 -73.930231 
L 169.520915 -79.117614 
L 170.117938 -84.304998 
L 170.714961 -89.492381 
L 171.311984 -94.679764 
L 171.909008 -99.867148 
L 172.506031 -105.054531 
L 173.103054 -110.241915 
L 173.700077 -115.429298 
L 174.2971 -120.616682 
L 174.894123 -125.804065 
L 175.491147 -130.991449 
L 176.08817 -136.178832 
L 176.685193 -141.366216 
L 177.282216 -144.522566 
L 177.879239 -145.456844 
L 178.476262 -146.981688 
L 179.073286 -148.506533 
L 179.670309 -150.031377 
L 180.267332 -151.556221 
L 180.864355 -153.081066 
L 181.461378 -154.60591 
L 182.058401 -156.130755 
L 182.655424 -157.655599 
L 183.252448 -155.841384 
L 183.849471 -152.788267 
L 184.446494 -149.735149 
L 185.043517 -146.682032 
L 185.64054 -143.628915 
L 186.237563 -140.575798 
L 186.834587 -137.52268 
L 187.43161 -134.469563 
L 188.028633 -131.416446 
L 188.625656 -130.131414 
L 189.222679 -134.400978 
L 189.819702 -138.670542 
L 190.416726 -142.940106 
L 191.013749 -147.20967 
L 191.610772 -142.299453 
L 192.207795 -136.488731 
L 192.804818 -130.678009 
L 193.401841 -124.867288 
L 193.998864 -119.056566 
L 194.595888 -113.245844 
L 195.192911 -107.435123 
L 195.789934 -101.624401 
L 196.386957 -95.813679 
L 196.98398 -90.002958 
L 197.581003 -84.192236 
L 198.178027 -78.381514 
L 198.77505 -72.570793 
L 199.372073 -74.421751 
L 199.969096 -86.043195 
L 200.566119 -97.664638 
L 201.163142 -109.286081 
L 201.760166 -120.907525 
L 202.357189 -132.528968 
L 202.954212 -140.187478 
L 203.551235 -137.742236 
L 204.148258 -135.296993 
L 204.745281 -132.85175 
L 205.342305 -130.406507 
L 205.939328 -127.961264 
L 206.536351 -125.516022 
L 207.133374 -123.070779 
L 207.730397 -120.625536 
L 208.32742 -118.180293 
L 208.924443 -115.73505 
L 209.521467 -113.289807 
L 210.11849 -115.959355 
L 210.715513 -119.926177 
L 211.312536 -123.893 
L 211.909559 -127.859823 
L 212.506582 -131.826645 
L 213.103606 -135.793468 
L 213.700629 -139.76029 
L 214.297652 -143.727113 
L 214.894675 -147.693936 
L 215.491698 -151.660758 
L 216.088721 -155.627581 
L 216.685745 -159.594404 
L 217.282768 -163.561226 
L 217.879791 -167.528049 
L 218.476814 -171.494872 
L 219.073837 -175.461694 
L 219.67086 -179.270461 
L 220.267884 -173.476052 
L 220.864907 -173.614959 
L 221.46193 -174.836893 
L 222.058953 -176.058826 
L 222.655976 -177.28076 
L 223.252999 -178.502694 
L 223.850022 -177.966292 
L 224.447046 -177.049841 
L 225.044069 -176.133391 
L 225.641092 -175.216941 
L 226.238115 -174.30049 
L 226.835138 -173.38404 
L 227.432161 -172.46759 
L 228.029185 -171.551139 
L 228.626208 -170.634689 
L 229.223231 -169.718239 
L 229.820254 -168.801788 
L 230.417277 -167.885338 
L 231.0143 -167.857345 
L 231.611324 -171.525209 
L 232.208347 -174.275734 
L 232.80537 -169.696058 
L 233.402393 -165.116383 
L 233.999416 -160.536707 
L 234.596439 -155.957031 
L 235.193462 -151.377355 
L 235.790486 -146.797679 
L 236.387509 -142.218003 
L 236.984532 -137.638327 
L 237.581555 -133.058651 
L 238.178578 -128.478975 
L 238.775601 -123.899299 
L 239.372625 -119.319623 
L 239.969648 -114.739948 
L 240.566671 -110.160272 
L 241.163694 -105.580596 
L 241.760717 -103.955084 
L 242.35774 -114.019057 
L 242.954764 -124.08303 
L 243.551787 -134.147003 
L 244.14881 -144.210975 
L 244.745833 -154.274948 
L 245.342856 -164.338921 
L 245.939879 -174.402894 
L 246.536903 -184.466867 
L 247.133926 -194.530839 
L 247.730949 -195.030033 
L 248.327972 -193.502616 
L 248.924995 -191.975198 
L 249.522018 -190.447781 
L 250.119041 -188.920364 
L 250.716065 -187.392947 
L 251.313088 -185.865529 
L 251.910111 -184.338112 
L 252.507134 -182.681583 
L 253.104157 -180.846618 
L 253.70118 -179.011654 
L 254.298204 -177.176689 
L 254.895227 -175.341724 
L 255.49225 -173.506759 
L 256.089273 -171.671795 
L 256.686296 -169.83683 
L 257.283319 -168.001865 
L 257.880343 -166.1669 
L 258.477366 -164.331936 
L 259.074389 -162.496971 
L 259.671412 -160.662006 
L 260.268435 -158.827042 
L 260.865458 -156.992077 
L 261.462482 -155.157112 
L 262.059505 -153.322147 
L 262.656528 -151.487183 
L 263.253551 -154.395645 
L 263.850574 -159.882004 
L 264.447597 -161.711358 
L 265.04462 -161.711358 
L 265.641644 -161.711358 
L 266.238667 -161.711358 
L 266.83569 -161.711358 
L 267.432713 -161.711358 
L 268.029736 -161.711358 
L 268.626759 -161.711358 
L 269.223783 -161.711358 
L 269.820806 -161.711358 
L 270.417829 -161.711358 
L 271.014852 -161.711358 
L 271.611875 -161.711358 
L 272.208898 -161.711358 
L 272.805922 -161.711358 
L 273.402945 -161.711358 
L 273.999968 -163.095188 
L 274.596991 -164.622605 
L 275.194014 -166.150022 
L 275.791037 -166.781452 
L 276.388061 -165.257463 
L 276.985084 -163.733475 
L 277.582107 -162.209486 
L 278.17913 -160.685497 
L 278.776153 -159.161509 
L 279.373176 -157.63752 
L 279.970199 -156.113531 
L 280.567223 -147.662413 
L 281.164246 -139.113685 
L 281.761269 -130.564957 
L 282.358292 -122.016228 
L 282.955315 -113.4675 
L 283.552338 -104.918771 
L 284.149362 -96.592147 
L 284.746385 -103.915512 
L 285.343408 -111.238877 
L 285.940431 -118.562242 
L 286.537454 -125.885607 
L 287.134477 -133.208972 
L 287.731501 -140.532336 
L 288.328524 -147.855701 
L 288.925547 -155.179066 
L 289.52257 -162.502431 
L 290.119593 -166.710143 
L 290.716616 -168.846125 
L 291.313639 -170.982106 
L 291.910663 -173.118087 
L 292.507686 -175.254069 
L 293.104709 -177.39005 
L 293.701732 -179.526032 
L 294.298755 -181.662013 
L 294.895778 -182.909008 
L 295.492802 -179.558113 
L 296.089825 -176.207218 
L 296.686848 -172.856324 
L 297.283871 -169.505429 
L 297.880894 -166.154534 
L 298.477917 -162.80364 
L 299.074941 -159.452745 
L 299.671964 -156.10185 
L 300.268987 -152.750956 
L 300.86601 -149.400061 
L 301.463033 -146.049166 
L 302.060056 -142.698272 
L 302.65708 -139.347377 
L 303.254103 -135.996482 
L 303.851126 -132.645588 
L 304.448149 -129.294693 
L 305.045172 -125.943798 
L 305.642195 -123.176791 
L 306.239218 -121.650232 
L 306.836242 -120.123673 
L 307.433265 -118.597115 
L 308.030288 -117.070556 
L 308.627311 -115.543998 
L 309.224334 -114.017439 
L 309.821357 -112.49088 
L 310.418381 -110.964322 
L 311.015404 -109.437763 
L 311.612427 -107.911204 
L 312.20945 -106.384646 
L 312.806473 -104.858087 
L 313.403496 -103.331528 
L 314.00052 -101.80497 
L 314.597543 -100.278411 
L 315.194566 -98.751853 
L 315.791589 -97.225294 
L 316.388612 -99.649849 
L 316.985635 -105.749227 
L 317.582659 -111.848604 
L 318.179682 -117.947981 
L 318.776705 -124.047359 
L 319.373728 -130.146736 
L 319.970751 -136.246114 
L 320.567774 -142.345491 
L 321.164797 -148.444869 
L 321.761821 -154.544246 
L 322.358844 -160.643624 
L 322.955867 -166.743001 
L 323.55289 -172.842379 
L 324.149913 -178.941756 
L 324.746936 -185.041134 
L 325.34396 -191.140511 
L 325.940983 -197.239888 
L 326.538006 -203.339266 
L 327.135029 -205.405151 
L 327.732052 -205.710635 
L 328.329075 -205.930939 
L 328.926099 -198.310995 
L 329.523122 -190.691052 
L 330.120145 -183.071108 
L 330.717168 -175.451165 
L 331.314191 -167.831222 
L 331.911214 -160.211278 
L 332.508237 -152.591335 
L 333.105261 -144.971392 
L 333.702284 -137.351448 
L 334.299307 -129.731505 
L 334.89633 -122.111562 
L 335.493353 -114.491618 
L 336.090376 -106.871675 
L 336.6874 -99.251731 
L 337.284423 -91.631788 
L 337.881446 -98.399527 
L 338.478469 -106.346566 
L 339.075492 -114.293605 
L 339.672515 -122.240645 
L 340.269539 -130.187684 
L 340.866562 -138.134723 
L 341.463585 -146.081762 
L 342.060608 -154.028801 
L 342.657631 -161.97584 
L 343.254654 -169.92288 
L 343.851678 -165.476992 
L 344.448701 -160.905026 
L 345.045724 -156.33306 
L 345.642747 -151.761094 
L 346.23977 -147.189128 
L 346.836793 -142.617162 
L 347.433816 -138.045196 
L 348.03084 -134.322931 
L 348.627863 -133.40751 
L 349.224886 -132.492089 
L 349.821909 -131.576669 
L 350.418932 -130.661248 
L 351.015955 -129.745828 
L 351.612979 -128.830407 
L 352.210002 -127.914986 
L 352.807025 -126.999566 
L 353.404048 -126.084145 
L 354.001071 -125.168725 
L 354.598094 -124.253304 
L 355.195118 -123.337883 
L 355.792141 -122.422463 
L 356.389164 -121.507042 
L 356.986187 -120.591621 
L 357.58321 -119.676201 
L 358.180233 -118.76078 
L 358.777257 -120.026302 
L 359.37428 -124.298265 
L 359.971303 -128.570228 
L 360.568326 -132.842191 
L 361.165349 -137.114154 
L 361.762372 -141.386117 
L 362.359395 -145.658079 
L 362.956419 -149.930042 
L 363.553442 -154.202005 
L 364.150465 -158.473968 
L 364.747488 -162.745931 
L 365.344511 -167.017894 
L 365.941534 -171.289857 
L 366.538558 -175.561819 
L 367.135581 -179.833782 
L 367.732604 -181.117427 
L 368.329627 -182.032333 
L 368.92665 -182.94724 
L 369.523673 -182.63055 
L 370.120697 -180.798679 
L 370.71772 -178.966809 
L 371.314743 -177.134939 
L 371.911766 -175.303068 
L 372.508789 -173.471198 
L 373.105812 -171.639328 
L 373.702836 -169.807457 
L 374.299859 -167.975587 
L 374.896882 -166.143717 
L 375.493905 -164.311846 
L 376.090928 -162.479976 
L 376.687951 -160.648105 
L 377.284974 -158.816235 
L 377.881998 -156.984365 
L 378.479021 -150.14346 
L 379.076044 -138.548132 
L 379.673067 -126.952804 
L 380.27009 -128.266919 
L 380.867113 -134.689296 
L 381.464137 -141.111672 
L 382.06116 -147.534049 
L 382.658183 -149.422464 
L 383.255206 -149.117153 
L 383.852229 -148.811841 
L 384.449252 -148.506529 
L 385.046276 -148.201217 
L 385.643299 -147.895906 
L 386.240322 -147.590594 
L 386.837345 -147.285282 
L 387.434368 -146.97997 
L 388.031391 -146.674659 
L 388.628414 -146.369347 
L 389.225438 -142.807692 
L 389.822461 -136.38893 
L 390.419484 -129.970168 
L 391.016507 -134.649622 
L 391.61353 -141.068384 
L 392.210553 -147.487147 
L 392.807577 -153.613106 
L 393.4046 -155.747889 
L 394.001623 -157.882671 
L 394.598646 -160.017453 
L 395.195669 -162.152235 
L 395.792692 -164.287017 
L 396.389716 -166.421799 
L 396.986739 -168.556581 
L 397.583762 -170.691363 
L 398.180785 -172.826145 
L 398.777808 -174.960928 
L 399.374831 -177.09571 
L 399.971855 -179.230492 
L 400.568878 -181.365274 
L 401.165901 -183.445045 
L 401.762924 -183.140076 
L 402.359947 -182.835108 
L 402.95697 -182.530139 
L 403.553993 -182.22517 
L 404.151017 -181.920201 
L 404.74804 -181.615232 
L 405.345063 -180.218733 
L 405.942086 -177.475553 
L 406.539109 -174.732373 
L 407.136132 -171.989194 
L 407.733156 -168.756434 
L 408.330179 -162.035798 
L 408.927202 -155.315162 
L 409.524225 -148.594527 
L 410.121248 -141.873891 
L 410.718271 -135.153255 
L 411.315295 -128.432619 
L 411.912318 -124.019936 
L 412.509341 -125.239812 
L 413.106364 -126.459687 
L 413.703387 -127.679563 
L 414.30041 -128.899438 
L 414.897434 -130.119314 
L 415.494457 -131.339189 
L 416.09148 -132.559065 
L 416.688503 -133.77894 
L 417.285526 -134.998816 
L 417.882549 -136.218691 
L 418.479572 -137.438566 
L 419.076596 -138.658442 
L 419.673619 -139.878317 
L 420.270642 -141.098193 
L 420.867665 -142.318068 
L 421.464688 -143.537944 
L 422.061711 -144.757819 
L 422.658735 -145.174988 
L 423.255758 -144.56505 
L 423.852781 -143.955112 
L 424.449804 -143.345174 
L 425.046827 -142.735237 
L 425.64385 -142.125299 
L 426.240874 -141.515361 
L 426.837897 -140.905423 
L 427.43492 -140.295486 
L 428.031943 -139.685548 
L 428.628966 -139.07561 
L 429.225989 -138.465673 
L 429.823013 -137.855735 
L 430.420036 -137.245797 
L 431.017059 -136.635859 
L 431.614082 -136.025922 
L 432.211105 -135.415984 
L 432.808128 -134.806046 
L 433.405151 -135.044402 
L 434.002175 -135.958282 
L 434.599198 -136.872163 
L 435.196221 -137.786043 
L 435.793244 -138.699924 
L 436.390267 -139.613804 
L 436.98729 -140.527684 
L 437.584314 -141.441565 
L 438.181337 -142.355445 
L 438.77836 -143.269325 
L 439.375383 -144.183206 
L 439.972406 -143.02466 
L 440.569429 -138.145158 
L 441.166453 -133.265656 
L 441.763476 -128.386154 
L 442.360499 -123.506652 
L 442.957522 -118.62715 
L 443.554545 -113.747648 
L 444.151568 -118.188584 
L 444.748591 -124.890373 
L 445.345615 -131.592162 
L 445.942638 -138.293952 
L 446.539661 -144.995741 
L 447.136684 -151.69753 
L 447.733707 -158.39932 
L 448.33073 -165.101109 
L 448.927754 -171.802898 
L 449.524777 -178.504688 
L 450.1218 -178.898926 
L 450.718823 -177.982991 
L 451.315846 -177.067055 
L 451.912869 -176.15112 
L 452.509893 -175.235185 
L 453.106916 -174.31925 
L 453.703939 -173.403315 
L 454.300962 -172.58164 
L 454.897985 -172.58164 
L 455.495008 -172.58164 
L 456.092032 -172.58164 
L 456.689055 -172.58164 
L 457.286078 -172.58164 
L 457.883101 -172.58164 
L 458.480124 -172.58164 
L 459.077147 -172.58164 
L 459.67417 -172.58164 
L 460.271194 -172.58164 
L 460.868217 -172.58164 
L 461.46524 -170.416878 
L 462.062263 -165.238222 
L 462.659286 -159.622065 
L 463.256309 -148.924128 
L 463.853333 -138.22619 
L 464.450356 -127.528253 
L 465.047379 -118.947766 
L 465.644402 -124.431048 
L 466.241425 -129.914331 
L 466.838448 -135.397613 
L 467.435472 -140.880895 
L 468.032495 -146.364177 
L 468.629518 -151.847459 
L 469.226541 -157.330741 
L 469.823564 -162.814024 
L 470.420587 -168.297306 
L 471.017611 -173.780588 
L 471.614634 -177.319386 
L 472.211657 -180.677815 
L 472.80868 -184.036244 
L 473.405703 -185.67485 
L 474.002726 -186.589756 
L 474.599749 -187.504663 
L 475.196773 -188.41957 
L 475.793796 -189.036452 
L 476.390819 -189.341935 
L 476.987842 -189.647419 
L 477.584865 -189.952902 
L 478.181888 -190.258386 
L 478.778912 -185.38231 
L 479.375935 -179.581387 
L 479.972958 -173.780464 
L 480.569981 -167.979541 
L 481.167004 -162.178618 
L 481.764027 -156.377696 
L 482.361051 -150.576773 
L 482.958074 -144.77585 
L 483.555097 -138.974927 
L 484.15212 -133.174004 
L 484.749143 -127.373082 
L 485.346166 -121.572159 
L 485.943189 -115.771236 
L 486.540213 -115.318269 
L 487.137236 -120.499831 
L 487.734259 -125.681392 
L 488.331282 -130.862954 
L 488.928305 -136.044515 
L 489.525328 -141.226076 
L 490.122352 -146.407638 
L 490.719375 -151.589199 
L 491.316398 -151.448004 
L 491.913421 -147.005213 
L 492.510444 -142.125711 
L 493.107467 -137.246209 
L 493.704491 -132.366707 
L 494.301514 -127.487205 
L 494.898537 -122.607704 
L 495.49556 -117.728202 
L 496.092583 -112.8487 
L 496.689606 -107.969198 
L 497.28663 -114.032223 
L 497.883653 -121.656445 
L 498.480676 -121.327647 
L 499.077699 -118.586006 
L 499.674722 -115.844365 
L 500.271745 -113.102723 
L 500.868768 -110.361082 
L 501.465792 -107.619441 
L 502.062815 -104.8778 
L 502.659838 -102.136159 
L 503.256861 -99.394518 
L 503.853884 -96.652877 
L 504.450907 -93.911236 
L 505.047931 -91.169595 
L 505.644954 -88.427954 
L 506.241977 -85.686313 
L 506.839 -82.944671 
L 507.436023 -80.20303 
L 508.033046 -87.453352 
L 508.63007 -94.772605 
L 509.227093 -102.091858 
L 509.824116 -109.411111 
L 510.421139 -116.730363 
L 511.018162 -124.049616 
L 511.615185 -131.368869 
L 512.212209 -138.688122 
L 512.809232 -146.007375 
L 513.406255 -153.326628 
L 514.003278 -160.645881 
L 514.600301 -158.14699 
L 515.197324 -154.184619 
L 515.794347 -150.222249 
L 516.391371 -146.259878 
L 516.988394 -140.370531 
L 517.585417 -133.962587 
L 518.18244 -130.205949 
L 518.779463 -134.788201 
L 519.376486 -139.370452 
L 519.97351 -143.815299 
L 520.570533 -146.866701 
L 521.167556 -149.918104 
L 521.764579 -152.969506 
L 522.361602 -156.020908 
L 522.958625 -159.07231 
L 523.555649 -162.123712 
L 524.152672 -165.175114 
L 524.749695 -168.226516 
L 525.346718 -171.277918 
L 525.943741 -174.32932 
L 526.540764 -177.380722 
L 527.137788 -178.016781 
L 527.734811 -178.016781 
L 528.331834 -178.016781 
L 528.928857 -178.120179 
L 529.52588 -178.424977 
L 530.122903 -178.729775 
L 530.719926 -179.034573 
L 531.31695 -179.33937 
L 531.913973 -179.644168 
L 532.510996 -179.948966 
L 533.108019 -180.253764 
L 533.705042 -180.558561 
L 534.302065 -180.863359 
L 534.899089 -181.168157 
L 535.496112 -181.472954 
L 536.093135 -181.777752 
L 536.690158 -182.08255 
L 537.287181 -182.387348 
L 537.884204 -182.692145 
L 538.481228 -182.996943 
L 539.078251 -183.301741 
L 539.675274 -182.677098 
L 540.272297 -181.149681 
L 540.86932 -179.622263 
L 541.466343 -178.094846 
L 542.063366 -176.567429 
L 542.66039 -175.040012 
L 543.257413 -173.512595 
L 543.854436 -171.985177 
L 544.451459 -170.45776 
L 545.048482 -168.930343 
L 545.645505 -167.402926 
L 546.242529 -165.875508 
L 546.839552 -164.348091 
L 547.436575 -160.512917 
L 548.033598 -155.638888 
L 548.630621 -150.76486 
L 549.227644 -145.890831 
L 549.824668 -141.016803 
L 550.421691 -141.771444 
L 551.018714 -144.51925 
L 551.615737 -147.267055 
L 552.21276 -150.014861 
L 552.809783 -152.762666 
L 553.406807 -155.510472 
L 554.00383 -158.258277 
L 554.600853 -161.006083 
L 555.197876 -163.753888 
L 555.794899 -166.501694 
L 556.391922 -169.2495 
L 556.988945 -170.583546 
L 557.585969 -171.804793 
L 558.182992 -173.02604 
L 558.780015 -174.247287 
L 559.377038 -175.468534 
L 559.974061 -176.689781 
L 560.571084 -177.911027 
L 561.168108 -172.173578 
L 561.765131 -165.776416 
L 562.362154 -159.379253 
L 562.959177 -152.98209 
L 563.5562 -146.584928 
L 564.153223 -140.187765 
L 564.750247 -133.790603 
L 565.34727 -127.39344 
L 565.944293 -120.996278 
L 566.541316 -114.599115 
L 567.138339 -108.201953 
L 567.735362 -101.80479 
L 568.332386 -95.407628 
L 568.929409 -89.010465 
L 569.526432 -82.613303 
L 570.123455 -76.21614 
L 570.720478 -69.818977 
L 571.317501 -64.206545 
L 571.914524 -68.793957 
L 572.511548 -73.381369 
L 573.108571 -77.968781 
L 573.705594 -82.556193 
L 574.302617 -87.143604 
L 574.89964 -91.731016 
L 575.496663 -96.318428 
L 576.093687 -93.546583 
L 576.69071 -89.878719 
L 577.287733 -86.210855 
L 577.884756 -82.542991 
L 578.481779 -78.875127 
L 579.078802 -75.207262 
L 579.675826 -71.539398 
L 580.272849 -67.871534 
L 580.869872 -64.20367 
L 581.466895 -60.535805 
L 582.063918 -61.326055 
L 582.660941 -68.03537 
L 583.257964 -74.744685 
L 583.854988 -81.454 
L 584.452011 -88.163315 
L 585.049034 -94.872631 
L 585.646057 -101.581946 
L 586.24308 -108.291261 
L 586.840103 -115.000576 
L 587.437127 -121.709891 
L 588.03415 -128.419207 
L 588.631173 -133.875974 
L 589.228196 -123.82329 
L 589.825219 -113.770606 
L 590.422242 -103.717922 
L 591.019266 -93.665238 
L 591.616289 -83.612554 
L 592.213312 -73.55987 
L 592.810335 -71.079536 
L 593.407358 -74.136089 
L 594.004381 -77.192643 
L 594.601405 -80.249196 
L 595.198428 -83.30575 
L 595.795451 -86.362303 
L 596.392474 -89.418857 
L 596.989497 -92.47541 
L 597.58652 -95.531964 
L 598.183543 -98.588518 
L 598.780567 -101.645071 
L 599.37759 -104.701625 
L 599.974613 -107.758178 
L 600.571636 -110.814732 
L 601.168659 -113.871285 
L 601.765682 -116.927839 
L 602.362706 -119.984392 
L 602.959729 -123.040946 
L 603.556752 -124.877344 
L 604.153775 -126.400478 
L 604.750798 -127.923612 
L 605.347821 -129.446746 
L 605.944845 -130.96988 
L 606.541868 -132.493014 
L 607.138891 -134.016147 
L 607.735914 -135.539281 
L 608.332937 -137.062415 
L 608.92996 -138.585549 
L 609.526984 -140.108683 
L 610.124007 -141.631817 
L 610.72103 -143.154951 
L 611.318053 -144.678085 
L 611.915076 -146.201219 
L 612.512099 -147.724353 
L 613.109122 -149.247487 
L 613.706146 -150.770621 
L 614.303169 -157.545958 
L 614.900192 -164.576031 
L 615.497215 -171.606104 
L 616.094238 -178.636177 
L 616.691261 -185.666251 
L 617.288285 -192.696324 
L 617.885308 -196.336187 
L 618.482331 -186.577183 
L 619.079354 -176.818179 
L 619.676377 -167.059175 
L 620.2734 -157.300171 
L 620.870424 -147.541167 
L 621.467447 -137.782163 
L 622.06447 -128.023159 
L 622.661493 -118.264155 
L 623.258516 -108.505151 
L 623.855539 -98.746147 
L 624.452563 -91.635653 
L 625.049586 -94.378833 
L 625.646609 -97.122013 
L 626.243632 -99.865192 
L 626.840655 -102.608372 
L 627.437678 -105.351551 
L 628.034701 -108.094731 
L 628.631725 -110.837911 
L 629.228748 -113.58109 
L 629.825771 -116.32427 
L 630.422794 -119.067449 
L 631.019817 -121.810629 
L 631.61684 -124.553809 
L 632.213864 -127.296988 
L 632.810887 -130.040168 
L 633.40791 -132.783347 
L 634.004933 -135.526527 
L 634.601956 -138.269707 
L 635.198979 -134.986859 
L 635.796003 -134.082596 
L 636.393026 -129.815428 
L 636.990049 -125.54826 
L 637.587072 -121.281091 
L 638.184095 -117.013923 
L 638.781118 -112.746755 
L 639.378141 -108.479586 
L 639.975165 -104.212418 
L 640.572188 -99.94525 
L 641.169211 -95.678082 
L 641.766234 -91.410913 
L 642.363257 -87.143745 
L 642.96028 -82.876577 
L 643.557304 -78.609409 
L 644.154327 -74.34224 
L 644.75135 -70.075072 
L 645.348373 -65.807904 
L 645.945396 -67.726446 
L 646.542419 -74.748616 
L 647.139443 -81.770786 
L 647.736466 -88.792955 
L 648.333489 -95.815125 
L 648.930512 -102.837295 
L 649.527535 -109.859465 
L 650.124558 -116.881634 
L 650.721582 -123.903804 
L 651.318605 -130.925974 
L 651.915628 -137.948144 
L 652.512651 -144.970313 
L 653.109674 -149.423367 
L 653.706697 -146.678647 
L 654.30372 -143.933927 
L 654.900744 -141.189207 
L 655.497767 -138.444488 
L 656.09479 -135.699768 
L 656.691813 -137.526282 
L 657.288836 -142.7195 
L 657.885859 -147.912719 
L 658.482883 -153.105938 
L 659.079906 -158.299156 
L 659.676929 -163.492375 
L 660.273952 -168.685593 
L 660.870975 -173.878812 
L 661.467998 -179.07203 
L 662.065022 -184.265249 
L 662.662045 -189.458467 
L 663.259068 -194.651686 
L 663.856091 -199.844904 
L 664.453114 -205.038123 
L 665.050137 -210.143905 
L 665.647161 -213.799427 
L 666.244184 -217.454948 
L 666.841207 -221.11047 
L 667.43823 -218.771446 
L 668.035253 -214.943843 
L 668.632276 -208.223207 
L 669.229299 -201.502571 
L 669.826323 -194.781936 
L 670.423346 -188.0613 
L 671.020369 -181.340664 
L 671.617392 -174.620028 
L 672.214415 -167.899392 
L 672.811438 -161.178757 
L 673.408462 -154.458121 
L 674.005485 -147.737485 
L 674.602508 -141.016849 
L 675.199531 -134.296214 
L 675.796554 -127.575578 
L 676.393577 -120.854942 
L 676.990601 -114.134306 
L 677.587624 -107.413671 
L 678.184647 -107.35995 
L 678.78167 -107.35995 
L 679.378693 -107.35995 
L 679.378693 -363.281635 
L 679.378693 -363.281635 
L 678.78167 -363.281635 
L 678.184647 -363.281635 
L 677.587624 -363.281635 
L 676.990601 -363.281635 
L 676.393577 -363.281635 
L 675.796554 -363.281635 
L 675.199531 -363.281635 
L 674.602508 -363.281635 
L 674.005485 -363.281635 
L 673.408462 -363.281635 
L 672.811438 -363.281635 
L 672.214415 -363.281635 
L 671.617392 -363.281635 
L 671.020369 -363.281635 
L 670.423346 -363.281635 
L 669.826323 -363.281635 
L 669.229299 -363.281635 
L 668.632276 -363.281635 
L 668.035253 -363.241887 
L 667.43823 -363.166551 
L 666.841207 -363.091215 
L 666.244184 -363.015879 
L 665.647161 -362.940544 
L 665.050137 -362.865208 
L 664.453114 -362.789872 
L 663.856091 -362.714536 
L 663.259068 -362.639201 
L 662.662045 -362.563865 
L 662.065022 -362.488529 
L 661.467998 -362.413193 
L 660.870975 -362.337857 
L 660.273952 -362.262522 
L 659.676929 -362.187186 
L 659.079906 -362.11185 
L 658.482883 -362.036514 
L 657.885859 -361.961178 
L 657.288836 -361.885843 
L 656.691813 -361.810507 
L 656.09479 -361.745331 
L 655.497767 -361.858556 
L 654.900744 -361.971781 
L 654.30372 -362.085006 
L 653.706697 -362.198231 
L 653.109674 -362.311456 
L 652.512651 -362.424681 
L 651.915628 -362.537906 
L 651.318605 -362.651131 
L 650.721582 -362.764356 
L 650.124558 -362.877581 
L 649.527535 -362.990806 
L 648.930512 -363.104031 
L 648.333489 -363.217256 
L 647.736466 -363.330481 
L 647.139443 -363.443706 
L 646.542419 -363.556931 
L 645.945396 -363.670157 
L 645.348373 -363.783382 
L 644.75135 -363.896607 
L 644.154327 -364.009832 
L 643.557304 -364.006047 
L 642.96028 -363.930601 
L 642.363257 -363.855154 
L 641.766234 -363.779708 
L 641.169211 -363.704262 
L 640.572188 -363.719898 
L 639.975165 -363.795197 
L 639.378141 -363.870496 
L 638.781118 -363.945795 
L 638.184095 -364.021094 
L 637.587072 -364.096393 
L 636.990049 -364.171692 
L 636.393026 -364.246991 
L 635.796003 -364.32229 
L 635.198979 -364.397589 
L 634.601956 -364.472888 
L 634.004933 -364.548187 
L 633.40791 -364.623486 
L 632.810887 -364.698785 
L 632.213864 -364.774084 
L 631.61684 -364.764332 
L 631.019817 -364.575716 
L 630.422794 -364.3871 
L 629.825771 -364.198484 
L 629.228748 -364.009867 
L 628.631725 -363.821251 
L 628.034701 -363.632635 
L 627.437678 -363.594371 
L 626.840655 -363.745411 
L 626.243632 -363.896452 
L 625.646609 -364.047493 
L 625.049586 -364.198534 
L 624.452563 -364.349574 
L 623.855539 -364.500615 
L 623.258516 -364.651656 
L 622.661493 -364.802696 
L 622.06447 -364.953737 
L 621.467447 -365.104778 
L 620.870424 -365.255818 
L 620.2734 -365.406859 
L 619.676377 -365.5579 
L 619.079354 -365.481932 
L 618.482331 -365.331408 
L 617.885308 -365.180883 
L 617.288285 -365.030359 
L 616.691261 -364.879834 
L 616.094238 -364.72931 
L 615.497215 -364.578786 
L 614.900192 -364.428261 
L 614.303169 -364.277737 
L 613.706146 -364.127212 
L 613.109122 -363.976688 
L 612.512099 -363.826163 
L 611.915076 -363.675639 
L 611.318053 -363.525114 
L 610.72103 -363.37459 
L 610.124007 -363.224065 
L 609.526984 -363.25062 
L 608.92996 -363.477181 
L 608.332937 -363.703742 
L 607.735914 -363.930303 
L 607.138891 -364.018196 
L 606.541868 -363.942749 
L 605.944845 -363.867303 
L 605.347821 -363.791856 
L 604.750798 -363.71641 
L 604.153775 -363.640963 
L 603.556752 -363.565517 
L 602.959729 -363.490071 
L 602.362706 -363.414624 
L 601.765682 -363.339178 
L 601.168659 -363.263731 
L 600.571636 -363.188285 
L 599.974613 -363.112838 
L 599.37759 -363.037392 
L 598.780567 -362.961946 
L 598.183543 -362.886499 
L 597.58652 -362.811053 
L 596.989497 -362.735606 
L 596.392474 -362.66016 
L 595.795451 -362.584714 
L 595.198428 -362.511597 
L 594.601405 -362.586969 
L 594.004381 -362.662342 
L 593.407358 -362.737715 
L 592.810335 -362.813087 
L 592.213312 -362.88846 
L 591.616289 -363.087832 
L 591.019266 -363.314282 
L 590.422242 -363.540732 
L 589.825219 -363.767183 
L 589.228196 -363.993633 
L 588.631173 -364.220083 
L 588.03415 -364.446533 
L 587.437127 -364.672983 
L 586.840103 -364.899433 
L 586.24308 -365.125883 
L 585.646057 -365.352333 
L 585.049034 -365.578783 
L 584.452011 -365.805234 
L 583.854988 -366.031684 
L 583.257964 -366.258134 
L 582.660941 -366.268236 
L 582.063918 -366.079988 
L 581.466895 -365.891741 
L 580.869872 -365.703493 
L 580.272849 -365.515246 
L 579.675826 -365.326998 
L 579.078802 -365.138751 
L 578.481779 -364.950503 
L 577.884756 -365.019213 
L 577.287733 -365.132217 
L 576.69071 -365.245221 
L 576.093687 -365.358224 
L 575.496663 -365.471228 
L 574.89964 -365.584232 
L 574.302617 -365.697236 
L 573.705594 -365.810239 
L 573.108571 -365.923243 
L 572.511548 -366.036247 
L 571.914524 -366.14925 
L 571.317501 -366.262254 
L 570.720478 -366.357614 
L 570.123455 -366.244389 
L 569.526432 -366.131164 
L 568.929409 -366.017939 
L 568.332386 -365.904714 
L 567.735362 -365.791489 
L 567.138339 -365.678264 
L 566.541316 -365.565039 
L 565.944293 -365.451814 
L 565.34727 -365.338589 
L 564.750247 -365.225364 
L 564.153223 -365.112139 
L 563.5562 -364.998913 
L 562.959177 -364.885688 
L 562.362154 -364.772463 
L 561.765131 -364.659238 
L 561.168108 -364.546013 
L 560.571084 -364.437669 
L 559.974061 -364.550783 
L 559.377038 -364.663898 
L 558.780015 -364.777012 
L 558.182992 -364.77996 
L 557.585969 -364.704514 
L 556.988945 -364.629068 
L 556.391922 -364.553621 
L 555.794899 -364.478175 
L 555.197876 -364.402728 
L 554.600853 -364.327282 
L 554.00383 -364.251836 
L 553.406807 -364.176389 
L 552.809783 -364.100943 
L 552.21276 -364.025496 
L 551.615737 -363.95005 
L 551.018714 -363.874603 
L 550.421691 -363.799157 
L 549.824668 -363.723711 
L 549.227644 -363.648264 
L 548.630621 -363.572818 
L 548.033598 -363.497371 
L 547.436575 -363.421925 
L 546.839552 -363.346478 
L 546.242529 -363.292248 
L 545.645505 -363.367768 
L 545.048482 -363.443289 
L 544.451459 -363.518809 
L 543.854436 -363.59433 
L 543.257413 -363.66985 
L 542.66039 -363.74537 
L 542.063366 -363.820891 
L 541.466343 -363.896411 
L 540.86932 -363.971931 
L 540.272297 -364.047452 
L 539.675274 -364.122972 
L 539.078251 -364.198492 
L 538.481228 -364.274013 
L 537.884204 -364.349533 
L 537.287181 -364.425053 
L 536.690158 -364.500574 
L 536.093135 -364.576094 
L 535.496112 -364.651614 
L 534.899089 -364.727135 
L 534.302065 -364.802655 
L 533.705042 -364.851068 
L 533.108019 -364.888773 
L 532.510996 -364.926477 
L 531.913973 -364.964182 
L 531.31695 -365.001887 
L 530.719926 -365.039592 
L 530.122903 -365.077296 
L 529.52588 -365.115001 
L 528.928857 -365.152706 
L 528.331834 -365.190411 
L 527.734811 -365.228115 
L 527.137788 -365.26582 
L 526.540764 -365.303525 
L 525.943741 -365.34123 
L 525.346718 -365.378934 
L 524.749695 -365.416639 
L 524.152672 -365.454344 
L 523.555649 -365.492049 
L 522.958625 -365.529753 
L 522.361602 -365.567458 
L 521.764579 -365.575439 
L 521.167556 -365.500177 
L 520.570533 -365.424915 
L 519.97351 -365.349652 
L 519.376486 -365.27439 
L 518.779463 -365.199128 
L 518.18244 -365.123866 
L 517.585417 -365.089723 
L 516.988394 -365.127446 
L 516.391371 -365.16517 
L 515.794347 -365.202893 
L 515.197324 -365.240616 
L 514.600301 -365.278339 
L 514.003278 -365.316062 
L 513.406255 -365.353786 
L 512.809232 -365.391509 
L 512.212209 -365.429232 
L 511.615185 -365.466955 
L 511.018162 -365.504679 
L 510.421139 -365.542402 
L 509.824116 -365.580125 
L 509.227093 -365.482267 
L 508.63007 -365.293743 
L 508.033046 -365.10522 
L 507.436023 -364.916696 
L 506.839 -364.728172 
L 506.241977 -364.539648 
L 505.644954 -364.351125 
L 505.047931 -364.162601 
L 504.450907 -363.974077 
L 503.853884 -363.923898 
L 503.256861 -364.225536 
L 502.659838 -364.527174 
L 502.062815 -364.828812 
L 501.465792 -365.13045 
L 500.868768 -365.432088 
L 500.271745 -365.733726 
L 499.674722 -366.035364 
L 499.077699 -366.337002 
L 498.480676 -366.63864 
L 497.883653 -366.940278 
L 497.28663 -367.072574 
L 496.689606 -366.884327 
L 496.092583 -366.696079 
L 495.49556 -366.507832 
L 494.898537 -366.319584 
L 494.301514 -366.131337 
L 493.704491 -365.943089 
L 493.107467 -365.754842 
L 492.510444 -365.566594 
L 491.913421 -365.378347 
L 491.316398 -365.190099 
L 490.719375 -365.001852 
L 490.122352 -365.131224 
L 489.525328 -365.281895 
L 488.928305 -365.432567 
L 488.331282 -365.583238 
L 487.734259 -365.73391 
L 487.137236 -365.884582 
L 486.540213 -366.035253 
L 485.943189 -366.185925 
L 485.346166 -366.336596 
L 484.749143 -366.275871 
L 484.15212 -366.162923 
L 483.555097 -366.049974 
L 482.958074 -365.937026 
L 482.361051 -365.824077 
L 481.764027 -365.711129 
L 481.167004 -365.59818 
L 480.569981 -365.485232 
L 479.972958 -365.372283 
L 479.375935 -365.259335 
L 478.778912 -365.146386 
L 478.181888 -365.033438 
L 477.584865 -364.920489 
L 476.987842 -364.807541 
L 476.390819 -364.694592 
L 475.793796 -364.581644 
L 475.196773 -364.468695 
L 474.599749 -364.355747 
L 474.002726 -364.242798 
L 473.405703 -364.12985 
L 472.80868 -364.064822 
L 472.211657 -364.10249 
L 471.614634 -364.140158 
L 471.017611 -364.177825 
L 470.420587 -364.215493 
L 469.823564 -364.253161 
L 469.226541 -364.290829 
L 468.629518 -364.328497 
L 468.032495 -364.366165 
L 467.435472 -364.403833 
L 466.838448 -364.441501 
L 466.241425 -364.479169 
L 465.644402 -364.516837 
L 465.047379 -364.554504 
L 464.450356 -364.592172 
L 463.853333 -364.62984 
L 463.256309 -364.667508 
L 462.659286 -364.705176 
L 462.062263 -364.742844 
L 461.46524 -364.780512 
L 460.868217 -364.81818 
L 460.271194 -364.792247 
L 459.67417 -364.754598 
L 459.077147 -364.716948 
L 458.480124 -364.679299 
L 457.883101 -364.641649 
L 457.286078 -364.604 
L 456.689055 -364.56635 
L 456.092032 -364.528701 
L 455.495008 -364.491051 
L 454.897985 -364.453402 
L 454.300962 -364.415752 
L 453.703939 -364.566164 
L 453.106916 -364.867654 
L 452.509893 -365.169145 
L 451.912869 -365.470635 
L 451.315846 -365.772126 
L 450.718823 -366.073616 
L 450.1218 -366.375107 
L 449.524777 -366.676597 
L 448.927754 -366.978088 
L 448.33073 -366.995715 
L 447.733707 -366.694225 
L 447.136684 -366.392734 
L 446.539661 -366.091244 
L 445.942638 -365.789753 
L 445.345615 -365.488263 
L 444.748591 -365.186772 
L 444.151568 -364.885282 
L 443.554545 -364.997626 
L 442.957522 -365.11063 
L 442.360499 -365.223634 
L 441.763476 -365.336637 
L 441.166453 -365.449641 
L 440.569429 -365.562645 
L 439.972406 -365.675649 
L 439.375383 -365.788652 
L 438.77836 -365.901656 
L 438.181337 -366.01466 
L 437.584314 -366.127663 
L 436.98729 -366.240667 
L 436.390267 -366.353671 
L 435.793244 -366.132002 
L 435.196221 -365.867681 
L 434.599198 -365.603359 
L 434.002175 -365.339038 
L 433.405151 -365.074717 
L 432.808128 -364.810396 
L 432.211105 -364.546074 
L 431.614082 -364.281753 
L 431.017059 -364.017432 
L 430.420036 -363.753111 
L 429.823013 -363.48879 
L 429.225989 -363.224468 
L 428.628966 -363.382434 
L 428.031943 -363.570958 
L 427.43492 -363.759482 
L 426.837897 -363.948006 
L 426.240874 -364.136529 
L 425.64385 -364.325053 
L 425.046827 -364.513577 
L 424.449804 -364.702101 
L 423.852781 -364.797393 
L 423.255758 -364.721946 
L 422.658735 -364.6465 
L 422.061711 -364.571054 
L 421.464688 -364.495607 
L 420.867665 -364.420161 
L 420.270642 -364.344714 
L 419.673619 -364.269268 
L 419.076596 -364.193821 
L 418.479572 -364.118375 
L 417.882549 -364.102074 
L 417.285526 -364.252893 
L 416.688503 -364.403712 
L 416.09148 -364.554532 
L 415.494457 -364.705351 
L 414.897434 -364.85617 
L 414.30041 -365.006989 
L 413.703387 -365.157808 
L 413.106364 -365.308627 
L 412.509341 -365.459446 
L 411.912318 -365.583986 
L 411.315295 -365.470983 
L 410.718271 -365.357979 
L 410.121248 -365.244975 
L 409.524225 -365.131971 
L 408.927202 -365.018968 
L 408.330179 -364.905964 
L 407.733156 -364.79296 
L 407.136132 -364.679957 
L 406.539109 -364.566953 
L 405.942086 -364.453949 
L 405.345063 -364.340946 
L 404.74804 -364.227942 
L 404.151017 -364.114938 
L 403.553993 -364.001935 
L 402.95697 -363.888931 
L 402.359947 -363.775927 
L 401.762924 -363.662923 
L 401.165901 -363.54992 
L 400.568878 -363.436916 
L 399.971855 -363.323912 
L 399.374831 -363.258071 
L 398.777808 -363.220421 
L 398.180785 -363.182772 
L 397.583762 -363.145122 
L 396.986739 -363.180937 
L 396.389716 -363.331756 
L 395.792692 -363.482575 
L 395.195669 -363.633394 
L 394.598646 -363.784213 
L 394.001623 -363.935032 
L 393.4046 -364.085851 
L 392.807577 -364.23667 
L 392.210553 -364.387489 
L 391.61353 -364.538308 
L 391.016507 -364.689127 
L 390.419484 -364.839946 
L 389.822461 -364.990765 
L 389.225438 -365.141584 
L 388.628414 -365.292403 
L 388.031391 -365.443222 
L 387.434368 -365.594041 
L 386.837345 -365.557892 
L 386.240322 -365.520243 
L 385.643299 -365.482593 
L 385.046276 -365.444944 
L 384.449252 -365.407294 
L 383.852229 -365.369645 
L 383.255206 -365.331995 
L 382.658183 -365.294346 
L 382.06116 -365.256696 
L 381.464137 -365.219047 
L 380.867113 -365.181397 
L 380.27009 -365.143748 
L 379.673067 -365.106098 
L 379.076044 -365.068449 
L 378.479021 -365.030799 
L 377.881998 -364.99315 
L 377.284974 -364.9555 
L 376.687951 -364.917851 
L 376.090928 -364.880201 
L 375.493905 -364.842552 
L 374.896882 -364.82404 
L 374.299859 -364.82404 
L 373.702836 -364.82404 
L 373.105812 -364.82404 
L 372.508789 -364.82404 
L 371.911766 -364.82404 
L 371.314743 -364.82404 
L 370.71772 -364.82404 
L 370.120697 -364.82404 
L 369.523673 -364.82404 
L 368.92665 -364.82404 
L 368.329627 -364.82404 
L 367.732604 -364.82404 
L 367.135581 -364.82404 
L 366.538558 -364.82404 
L 365.941534 -364.82404 
L 365.344511 -364.82404 
L 364.747488 -364.82404 
L 364.150465 -364.82404 
L 363.553442 -364.82404 
L 362.956419 -364.821233 
L 362.359395 -364.783602 
L 361.762372 -364.74597 
L 361.165349 -364.708339 
L 360.568326 -364.670708 
L 359.971303 -364.633077 
L 359.37428 -364.595446 
L 358.777257 -364.557815 
L 358.180233 -364.520184 
L 357.58321 -364.482553 
L 356.986187 -364.444921 
L 356.389164 -364.474105 
L 355.792141 -364.511736 
L 355.195118 -364.549368 
L 354.598094 -364.586999 
L 354.001071 -364.62463 
L 353.404048 -364.662261 
L 352.807025 -364.699892 
L 352.210002 -364.737523 
L 351.612979 -364.775154 
L 351.015955 -364.812785 
L 350.418932 -364.929909 
L 349.821909 -365.080949 
L 349.224886 -365.23199 
L 348.627863 -365.383031 
L 348.03084 -365.534072 
L 347.433816 -365.685112 
L 346.836793 -365.836153 
L 346.23977 -365.987194 
L 345.642747 -366.138234 
L 345.045724 -366.289275 
L 344.448701 -366.440316 
L 343.851678 -366.591356 
L 343.254654 -366.742397 
L 342.657631 -366.893438 
L 342.060608 -367.044479 
L 341.463585 -367.195519 
L 340.866562 -367.34656 
L 340.269539 -367.497601 
L 339.672515 -367.648641 
L 339.075492 -367.799682 
L 338.478469 -367.867099 
L 337.881446 -367.716501 
L 337.284423 -367.565903 
L 336.6874 -367.415305 
L 336.090376 -367.264707 
L 335.493353 -367.114109 
L 334.89633 -366.963511 
L 334.299307 -366.812913 
L 333.702284 -366.662315 
L 333.105261 -366.511717 
L 332.508237 -366.361119 
L 331.911214 -366.210521 
L 331.314191 -366.059923 
L 330.717168 -365.909325 
L 330.120145 -365.758727 
L 329.523122 -365.608129 
L 328.926099 -365.457531 
L 328.329075 -365.631627 
L 327.732052 -365.857966 
L 327.135029 -366.084305 
L 326.538006 -366.310645 
L 325.940983 -366.338077 
L 325.34396 -366.300427 
L 324.746936 -366.262778 
L 324.149913 -366.225128 
L 323.55289 -366.187479 
L 322.955867 -366.149829 
L 322.358844 -366.11218 
L 321.761821 -366.07453 
L 321.164797 -366.036881 
L 320.567774 -365.999231 
L 319.970751 -365.961582 
L 319.373728 -365.923932 
L 318.776705 -365.886283 
L 318.179682 -365.8642 
L 317.582659 -365.93961 
L 316.985635 -366.015019 
L 316.388612 -366.090429 
L 315.791589 -366.165838 
L 315.194566 -366.241248 
L 314.597543 -366.316657 
L 314.00052 -366.3152 
L 313.403496 -366.164381 
L 312.806473 -366.013562 
L 312.20945 -365.862743 
L 311.612427 -365.711924 
L 311.015404 -365.561105 
L 310.418381 -365.410286 
L 309.821357 -365.259466 
L 309.224334 -365.108647 
L 308.627311 -364.957828 
L 308.030288 -364.807009 
L 307.433265 -364.65619 
L 306.836242 -364.505371 
L 306.239218 -364.354552 
L 305.642195 -364.203733 
L 305.045172 -364.052914 
L 304.448149 -363.902095 
L 303.851126 -363.751276 
L 303.254103 -363.815201 
L 302.65708 -363.92815 
L 302.060056 -364.041098 
L 301.463033 -363.883825 
L 300.86601 -363.695209 
L 300.268987 -363.506593 
L 299.671964 -363.574251 
L 299.074941 -363.64955 
L 298.477917 -363.724849 
L 297.880894 -363.800148 
L 297.283871 -363.972358 
L 296.686848 -364.160606 
L 296.089825 -364.348853 
L 295.492802 -364.537101 
L 294.895778 -364.725348 
L 294.298755 -364.913596 
L 293.701732 -365.101843 
L 293.104709 -365.290091 
L 292.507686 -365.478338 
L 291.910663 -365.666586 
L 291.313639 -365.854833 
L 290.716616 -366.043081 
L 290.119593 -366.231328 
L 289.52257 -366.302656 
L 288.925547 -366.076649 
L 288.328524 -365.850641 
L 287.731501 -365.624634 
L 287.134477 -365.398626 
L 286.537454 -365.172619 
L 285.940431 -365.065793 
L 285.343408 -365.103553 
L 284.746385 -365.141313 
L 284.149362 -365.179073 
L 283.552338 -365.220982 
L 282.955315 -365.333931 
L 282.358292 -365.446879 
L 281.761269 -365.559828 
L 281.164246 -365.672776 
L 280.567223 -365.785725 
L 279.970199 -365.898673 
L 279.373176 -366.011622 
L 278.776153 -366.12457 
L 278.17913 -366.237519 
L 277.582107 -366.350467 
L 276.985084 -366.398752 
L 276.388061 -366.436384 
L 275.791037 -366.474015 
L 275.194014 -366.511646 
L 274.596991 -366.549277 
L 273.999968 -366.586908 
L 273.402945 -366.624539 
L 272.805922 -366.66217 
L 272.208898 -366.699801 
L 271.611875 -366.737433 
L 271.014852 -366.775064 
L 270.417829 -366.812695 
L 269.820806 -366.850326 
L 269.223783 -366.887957 
L 268.626759 -366.925588 
L 268.029736 -366.963219 
L 267.432713 -367.00085 
L 266.83569 -367.038481 
L 266.238667 -367.076113 
L 265.641644 -367.113744 
L 265.04462 -367.054998 
L 264.447597 -366.828437 
L 263.850574 -366.601876 
L 263.253551 -366.375314 
L 262.656528 -366.148753 
L 262.059505 -365.922192 
L 261.462482 -365.841535 
L 260.865458 -365.879166 
L 260.268435 -365.916797 
L 259.671412 -365.954428 
L 259.074389 -365.992059 
L 258.477366 -366.02969 
L 257.880343 -366.067321 
L 257.283319 -366.104953 
L 256.686296 -366.142584 
L 256.089273 -366.180215 
L 255.49225 -366.217846 
L 254.895227 -366.255477 
L 254.298204 -366.293108 
L 253.70118 -366.330739 
L 253.104157 -366.370306 
L 252.507134 -366.445752 
L 251.910111 -366.521198 
L 251.313088 -366.596645 
L 250.716065 -366.672091 
L 250.119041 -366.747538 
L 249.522018 -366.822984 
L 248.924995 -366.89843 
L 248.327972 -366.973877 
L 247.730949 -367.049323 
L 247.133926 -367.12477 
L 246.536903 -367.200216 
L 245.939879 -367.275663 
L 245.342856 -367.351109 
L 244.745833 -367.426555 
L 244.14881 -367.502002 
L 243.551787 -367.577448 
L 242.954764 -367.652895 
L 242.35774 -367.728341 
L 241.760717 -367.803788 
L 241.163694 -367.879234 
L 240.566671 -367.954636 
L 239.969648 -368.030008 
L 239.372625 -368.105381 
L 238.775601 -368.180753 
L 238.178578 -368.256126 
L 237.581555 -368.331499 
L 236.984532 -368.406871 
L 236.387509 -368.482244 
L 235.790486 -368.557617 
L 235.193462 -368.632989 
L 234.596439 -368.708362 
L 233.999416 -368.783735 
L 233.402393 -368.859107 
L 232.80537 -368.93448 
L 232.208347 -369.009852 
L 231.611324 -369.085225 
L 231.0143 -369.160598 
L 230.417277 -369.23597 
L 229.820254 -369.311343 
L 229.223231 -369.386716 
L 228.626208 -369.396978 
L 228.029185 -369.019376 
L 227.432161 -368.641774 
L 226.835138 -368.264172 
L 226.238115 -367.886571 
L 225.641092 -367.508969 
L 225.044069 -367.131367 
L 224.447046 -366.753765 
L 223.850022 -366.376164 
L 223.252999 -365.998562 
L 222.655976 -365.62096 
L 222.058953 -365.243358 
L 221.46193 -365.142582 
L 220.864907 -365.10484 
L 220.267884 -365.067099 
L 219.67086 -365.029357 
L 219.073837 -364.991615 
L 218.476814 -364.953874 
L 217.879791 -364.916132 
L 217.282768 -364.87839 
L 216.685745 -364.840648 
L 216.088721 -364.845162 
L 215.491698 -364.882885 
L 214.894675 -364.920609 
L 214.297652 -364.958332 
L 213.700629 -364.996055 
L 213.103606 -365.033778 
L 212.506582 -365.071502 
L 211.909559 -365.109225 
L 211.312536 -365.146948 
L 210.715513 -365.184671 
L 210.11849 -365.222394 
L 209.521467 -365.260118 
L 208.924443 -365.297841 
L 208.32742 -365.335564 
L 207.730397 -365.373287 
L 207.133374 -365.41101 
L 206.536351 -365.448734 
L 205.939328 -365.486457 
L 205.342305 -365.52418 
L 204.745281 -365.561903 
L 204.148258 -365.582089 
L 203.551235 -365.468919 
L 202.954212 -365.35575 
L 202.357189 -365.24258 
L 201.760166 -365.129411 
L 201.163142 -365.016241 
L 200.566119 -364.903071 
L 199.969096 -364.789902 
L 199.372073 -364.676732 
L 198.77505 -364.563562 
L 198.178027 -364.450393 
L 197.581003 -364.337223 
L 196.98398 -364.224053 
L 196.386957 -364.274713 
L 195.789934 -364.350196 
L 195.192911 -364.42568 
L 194.595888 -364.501163 
L 193.998864 -364.576646 
L 193.401841 -364.65213 
L 192.804818 -364.727613 
L 192.207795 -364.803097 
L 191.610772 -364.660739 
L 191.013749 -364.434731 
L 190.416726 -364.208724 
L 189.819702 -363.982717 
L 189.222679 -363.756709 
L 188.625656 -363.530702 
L 188.028633 -363.533097 
L 187.43161 -363.570784 
L 186.834587 -363.60847 
L 186.237563 -363.646156 
L 185.64054 -363.683843 
L 185.043517 -363.721529 
L 184.446494 -363.759215 
L 183.849471 -363.796902 
L 183.252448 -363.834588 
L 182.655424 -363.872274 
L 182.058401 -363.90996 
L 181.461378 -363.947647 
L 180.864355 -363.985333 
L 180.267332 -364.023019 
L 179.670309 -364.044961 
L 179.073286 -364.007238 
L 178.476262 -363.969515 
L 177.879239 -363.931791 
L 177.282216 -363.894068 
L 176.685193 -363.856345 
L 176.08817 -363.818622 
L 175.491147 -363.780899 
L 174.894123 -363.743175 
L 174.2971 -363.705452 
L 173.700077 -363.667729 
L 173.103054 -363.630006 
L 172.506031 -363.592283 
L 171.909008 -363.554559 
L 171.311984 -363.516836 
L 170.714961 -363.479113 
L 170.117938 -363.44139 
L 169.520915 -363.403667 
L 168.923892 -363.365943 
L 168.326869 -363.32822 
L 167.729845 -363.290497 
L 167.132822 -363.25276 
L 166.535799 -363.215018 
L 165.938776 -363.177276 
L 165.341753 -363.139535 
L 164.74473 -363.101793 
L 164.147707 -363.064051 
L 163.550683 -363.026309 
L 162.95366 -362.988568 
L 162.356637 -362.950826 
L 161.759614 -362.913084 
L 161.162591 -362.875343 
L 160.565568 -362.837601 
L 159.968544 -362.799859 
L 159.371521 -362.762118 
L 158.774498 -362.724376 
L 158.177475 -362.686634 
L 157.580452 -362.648893 
L 156.983429 -362.611151 
L 156.386405 -362.573409 
L 155.789382 -362.535668 
L 155.192359 -362.497956 
L 154.595336 -362.460307 
L 153.998313 -362.422657 
L 153.40129 -362.385008 
L 152.804266 -362.347358 
L 152.207243 -362.309709 
L 151.61022 -362.272059 
L 151.013197 -362.23441 
L 150.416174 -362.19676 
L 149.819151 -362.159111 
L 149.222128 -362.121461 
L 148.625104 -362.083812 
L 148.028081 -362.046162 
L 147.431058 -362.008513 
L 146.834035 -361.970863 
L 146.237012 -361.933214 
L 145.639989 -361.895564 
L 145.042965 -361.857915 
L 144.445942 -361.820265 
L 143.848919 -361.782616 
L 143.251896 -361.744966 
L 142.654873 -361.547189 
L 142.05785 -361.320628 
L 141.460826 -361.094067 
L 140.863803 -360.867506 
L 140.26678 -360.640945 
L 139.669757 -360.414384 
L 139.072734 -360.187823 
L 138.475711 -359.961261 
L 137.878687 -359.7347 
L 137.281664 -359.508139 
L 136.684641 -359.281578 
L 136.087618 -359.055017 
L 135.490595 -358.828456 
L 134.893572 -358.601895 
L 134.296549 -358.375334 
L 133.699525 -358.148773 
L 133.102502 -357.922212 
L 132.505479 -357.695651 
L 131.908456 -357.46909 
L 131.311433 -357.242529 
L 130.71441 -357.031976 
L 130.117386 -356.843175 
L 129.520363 -356.654374 
L 128.92334 -356.465573 
L 128.326317 -356.276772 
L 127.729294 -356.087971 
L 127.132271 -355.89917 
L 126.535247 -355.71037 
L 125.938224 -355.521569 
L 125.341201 -355.332768 
L 124.744178 -355.143967 
L 124.147155 -354.955166 
L 123.550132 -354.766365 
L 122.953109 -354.577564 
L 122.356085 -354.388763 
L 121.759062 -354.199963 
L 121.162039 -354.011162 
L 120.565016 -353.861675 
L 119.967993 -353.768035 
L 119.37097 -353.674396 
L 118.773946 -353.580757 
L 118.176923 -353.487118 
L 117.5799 -353.393478 
L 116.982877 -353.299839 
L 116.385854 -353.262886 
L 115.788831 -354.176914 
L 115.191807 -353.636382 
L 114.594784 -354.092315 
L 113.997761 -354.548248 
L 113.400738 -355.004181 
L 112.803715 -355.460114 
L 112.206692 -355.379273 
L 111.609668 -354.914896 
L 111.012645 -354.45052 
L 110.415622 -354.402255 
L 109.818599 -357.02908 
L 109.221576 -360.078769 
L 108.624553 -363.128457 
L 108.02753 -366.178146 
L 107.430506 -369.227835 
L 106.833483 -372.277523 
L 106.23646 -375.327212 
L 105.639437 -378.376901 
L 105.042414 -381.42659 
L 104.445391 -384.476278 
L 103.848367 -387.525967 
L 103.251344 -389.575173 
L 102.654321 -387.439192 
L 102.057298 -385.30321 
L 101.460275 -383.167229 
L 100.863252 -381.031247 
L 100.266228 -378.895266 
L 99.669205 -376.759285 
L 99.072182 -374.623303 
L 98.475159 -372.487322 
L 97.878136 -370.35134 
L 97.281113 -368.215359 
L 96.684089 -369.873669 
L 96.087066 -372.921647 
L 95.490043 -375.969624 
L 94.89302 -379.017601 
L 94.295997 -382.065579 
L 93.698974 -385.113556 
L 93.101951 -388.161533 
L 92.504927 -389.987273 
L 91.907904 -389.987273 
L 91.310881 -389.987273 
L 90.713858 -389.987273 
L 90.116835 -389.987273 
L 89.519812 -389.987273 
L 88.922788 -389.987273 
L 88.325765 -389.987273 
L 87.728742 -389.987273 
L 87.131719 -389.987273 
L 86.534696 -389.987273 
L 85.937673 -389.987273 
L 85.340649 -389.987273 
L 84.743626 -389.987273 
L 84.146603 -389.987273 
L 83.54958 -389.987273 
L 82.952557 -389.987273 
z
" style="stroke: #ff00ff; stroke-opacity: 0.3"/>
    </defs>
    <g clip-path="url(#p075cf6d372)">
     <use xlink:href="#m9ba8d5afb8" x="0" y="432" style="fill: #ff00ff; fill-opacity: 0.3; stroke: #ff00ff; stroke-opacity: 0.3"/>
    </g>
   </g>
   <g id="matplotlib.axis_1">
    <g id="xtick_1">
     <g id="line2d_1">
      <defs>
       <path id="mc0d197c69d" d="M 0 0 
L 0 3.5 
" style="stroke: #000000; stroke-width: 0.8"/>
      </defs>
      <g>
       <use xlink:href="#mc0d197c69d" x="82.122138" y="390.04" style="stroke: #000000; stroke-width: 0.8"/>
      </g>
     </g>
     <g id="text_1">
      <!-- 0 -->
      <g transform="translate(78.940888 404.638438) scale(0.1 -0.1)">
       <defs>
        <path id="DejaVuSans-30" d="M 2034 4250 
Q 1547 4250 1301 3770 
Q 1056 3291 1056 2328 
Q 1056 1369 1301 889 
Q 1547 409 2034 409 
Q 2525 409 2770 889 
Q 3016 1369 3016 2328 
Q 3016 3291 2770 3770 
Q 2525 4250 2034 4250 
z
M 2034 4750 
Q 2819 4750 3233 4129 
Q 3647 3509 3647 2328 
Q 3647 1150 3233 529 
Q 2819 -91 2034 -91 
Q 1250 -91 836 529 
Q 422 1150 422 2328 
Q 422 3509 836 4129 
Q 1250 4750 2034 4750 
z
" transform="scale(0.015625)"/>
       </defs>
       <use xlink:href="#DejaVuSans-30"/>
      </g>
     </g>
    </g>
    <g id="xtick_2">
     <g id="line2d_2">
      <g>
       <use xlink:href="#mc0d197c69d" x="201.606905" y="390.04" style="stroke: #000000; stroke-width: 0.8"/>
      </g>
     </g>
     <g id="text_2">
      <!-- 20000 -->
      <g transform="translate(185.700655 404.638438) scale(0.1 -0.1)">
       <defs>
        <path id="DejaVuSans-32" d="M 1228 531 
L 3431 531 
L 3431 0 
L 469 0 
L 469 531 
Q 828 903 1448 1529 
Q 2069 2156 2228 2338 
Q 2531 2678 2651 2914 
Q 2772 3150 2772 3378 
Q 2772 3750 2511 3984 
Q 2250 4219 1831 4219 
Q 1534 4219 1204 4116 
Q 875 4013 500 3803 
L 500 4441 
Q 881 4594 1212 4672 
Q 1544 4750 1819 4750 
Q 2544 4750 2975 4387 
Q 3406 4025 3406 3419 
Q 3406 3131 3298 2873 
Q 3191 2616 2906 2266 
Q 2828 2175 2409 1742 
Q 1991 1309 1228 531 
z
" transform="scale(0.015625)"/>
       </defs>
       <use xlink:href="#DejaVuSans-32"/>
       <use xlink:href="#DejaVuSans-30" transform="translate(63.623047 0)"/>
       <use xlink:href="#DejaVuSans-30" transform="translate(127.246094 0)"/>
       <use xlink:href="#DejaVuSans-30" transform="translate(190.869141 0)"/>
       <use xlink:href="#DejaVuSans-30" transform="translate(254.492188 0)"/>
      </g>
     </g>
    </g>
    <g id="xtick_3">
     <g id="line2d_3">
      <g>
       <use xlink:href="#mc0d197c69d" x="321.091671" y="390.04" style="stroke: #000000; stroke-width: 0.8"/>
      </g>
     </g>
     <g id="text_3">
      <!-- 40000 -->
      <g transform="translate(305.185421 404.638438) scale(0.1 -0.1)">
       <defs>
        <path id="DejaVuSans-34" d="M 2419 4116 
L 825 1625 
L 2419 1625 
L 2419 4116 
z
M 2253 4666 
L 3047 4666 
L 3047 1625 
L 3713 1625 
L 3713 1100 
L 3047 1100 
L 3047 0 
L 2419 0 
L 2419 1100 
L 313 1100 
L 313 1709 
L 2253 4666 
z
" transform="scale(0.015625)"/>
       </defs>
       <use xlink:href="#DejaVuSans-34"/>
       <use xlink:href="#DejaVuSans-30" transform="translate(63.623047 0)"/>
       <use xlink:href="#DejaVuSans-30" transform="translate(127.246094 0)"/>
       <use xlink:href="#DejaVuSans-30" transform="translate(190.869141 0)"/>
       <use xlink:href="#DejaVuSans-30" transform="translate(254.492188 0)"/>
      </g>
     </g>
    </g>
    <g id="xtick_4">
     <g id="line2d_4">
      <g>
       <use xlink:href="#mc0d197c69d" x="440.576438" y="390.04" style="stroke: #000000; stroke-width: 0.8"/>
      </g>
     </g>
     <g id="text_4">
      <!-- 60000 -->
      <g transform="translate(424.670188 404.638438) scale(0.1 -0.1)">
       <defs>
        <path id="DejaVuSans-36" d="M 2113 2584 
Q 1688 2584 1439 2293 
Q 1191 2003 1191 1497 
Q 1191 994 1439 701 
Q 1688 409 2113 409 
Q 2538 409 2786 701 
Q 3034 994 3034 1497 
Q 3034 2003 2786 2293 
Q 2538 2584 2113 2584 
z
M 3366 4563 
L 3366 3988 
Q 3128 4100 2886 4159 
Q 2644 4219 2406 4219 
Q 1781 4219 1451 3797 
Q 1122 3375 1075 2522 
Q 1259 2794 1537 2939 
Q 1816 3084 2150 3084 
Q 2853 3084 3261 2657 
Q 3669 2231 3669 1497 
Q 3669 778 3244 343 
Q 2819 -91 2113 -91 
Q 1303 -91 875 529 
Q 447 1150 447 2328 
Q 447 3434 972 4092 
Q 1497 4750 2381 4750 
Q 2619 4750 2861 4703 
Q 3103 4656 3366 4563 
z
" transform="scale(0.015625)"/>
       </defs>
       <use xlink:href="#DejaVuSans-36"/>
       <use xlink:href="#DejaVuSans-30" transform="translate(63.623047 0)"/>
       <use xlink:href="#DejaVuSans-30" transform="translate(127.246094 0)"/>
       <use xlink:href="#DejaVuSans-30" transform="translate(190.869141 0)"/>
       <use xlink:href="#DejaVuSans-30" transform="translate(254.492188 0)"/>
      </g>
     </g>
    </g>
    <g id="xtick_5">
     <g id="line2d_5">
      <g>
       <use xlink:href="#mc0d197c69d" x="560.061205" y="390.04" style="stroke: #000000; stroke-width: 0.8"/>
      </g>
     </g>
     <g id="text_5">
      <!-- 80000 -->
      <g transform="translate(544.154955 404.638438) scale(0.1 -0.1)">
       <defs>
        <path id="DejaVuSans-38" d="M 2034 2216 
Q 1584 2216 1326 1975 
Q 1069 1734 1069 1313 
Q 1069 891 1326 650 
Q 1584 409 2034 409 
Q 2484 409 2743 651 
Q 3003 894 3003 1313 
Q 3003 1734 2745 1975 
Q 2488 2216 2034 2216 
z
M 1403 2484 
Q 997 2584 770 2862 
Q 544 3141 544 3541 
Q 544 4100 942 4425 
Q 1341 4750 2034 4750 
Q 2731 4750 3128 4425 
Q 3525 4100 3525 3541 
Q 3525 3141 3298 2862 
Q 3072 2584 2669 2484 
Q 3125 2378 3379 2068 
Q 3634 1759 3634 1313 
Q 3634 634 3220 271 
Q 2806 -91 2034 -91 
Q 1263 -91 848 271 
Q 434 634 434 1313 
Q 434 1759 690 2068 
Q 947 2378 1403 2484 
z
M 1172 3481 
Q 1172 3119 1398 2916 
Q 1625 2713 2034 2713 
Q 2441 2713 2670 2916 
Q 2900 3119 2900 3481 
Q 2900 3844 2670 4047 
Q 2441 4250 2034 4250 
Q 1625 4250 1398 4047 
Q 1172 3844 1172 3481 
z
" transform="scale(0.015625)"/>
       </defs>
       <use xlink:href="#DejaVuSans-38"/>
       <use xlink:href="#DejaVuSans-30" transform="translate(63.623047 0)"/>
       <use xlink:href="#DejaVuSans-30" transform="translate(127.246094 0)"/>
       <use xlink:href="#DejaVuSans-30" transform="translate(190.869141 0)"/>
       <use xlink:href="#DejaVuSans-30" transform="translate(254.492188 0)"/>
      </g>
     </g>
    </g>
    <g id="xtick_6">
     <g id="line2d_6">
      <g>
       <use xlink:href="#mc0d197c69d" x="679.545972" y="390.04" style="stroke: #000000; stroke-width: 0.8"/>
      </g>
     </g>
     <g id="text_6">
      <!-- 100000 -->
      <g transform="translate(660.458472 404.638438) scale(0.1 -0.1)">
       <defs>
        <path id="DejaVuSans-31" d="M 794 531 
L 1825 531 
L 1825 4091 
L 703 3866 
L 703 4441 
L 1819 4666 
L 2450 4666 
L 2450 531 
L 3481 531 
L 3481 0 
L 794 0 
L 794 531 
z
" transform="scale(0.015625)"/>
       </defs>
       <use xlink:href="#DejaVuSans-31"/>
       <use xlink:href="#DejaVuSans-30" transform="translate(63.623047 0)"/>
       <use xlink:href="#DejaVuSans-30" transform="translate(127.246094 0)"/>
       <use xlink:href="#DejaVuSans-30" transform="translate(190.869141 0)"/>
       <use xlink:href="#DejaVuSans-30" transform="translate(254.492188 0)"/>
       <use xlink:href="#DejaVuSans-30" transform="translate(318.115234 0)"/>
      </g>
     </g>
    </g>
    <g id="text_7">
     <!-- Step -->
     <g transform="translate(369.780469 418.316562) scale(0.1 -0.1)">
      <defs>
       <path id="DejaVuSans-53" d="M 3425 4513 
L 3425 3897 
Q 3066 4069 2747 4153 
Q 2428 4238 2131 4238 
Q 1616 4238 1336 4038 
Q 1056 3838 1056 3469 
Q 1056 3159 1242 3001 
Q 1428 2844 1947 2747 
L 2328 2669 
Q 3034 2534 3370 2195 
Q 3706 1856 3706 1288 
Q 3706 609 3251 259 
Q 2797 -91 1919 -91 
Q 1588 -91 1214 -16 
Q 841 59 441 206 
L 441 856 
Q 825 641 1194 531 
Q 1563 422 1919 422 
Q 2459 422 2753 634 
Q 3047 847 3047 1241 
Q 3047 1584 2836 1778 
Q 2625 1972 2144 2069 
L 1759 2144 
Q 1053 2284 737 2584 
Q 422 2884 422 3419 
Q 422 4038 858 4394 
Q 1294 4750 2059 4750 
Q 2388 4750 2728 4690 
Q 3069 4631 3425 4513 
z
" transform="scale(0.015625)"/>
       <path id="DejaVuSans-74" d="M 1172 4494 
L 1172 3500 
L 2356 3500 
L 2356 3053 
L 1172 3053 
L 1172 1153 
Q 1172 725 1289 603 
Q 1406 481 1766 481 
L 2356 481 
L 2356 0 
L 1766 0 
Q 1100 0 847 248 
Q 594 497 594 1153 
L 594 3053 
L 172 3053 
L 172 3500 
L 594 3500 
L 594 4494 
L 1172 4494 
z
" transform="scale(0.015625)"/>
       <path id="DejaVuSans-65" d="M 3597 1894 
L 3597 1613 
L 953 1613 
Q 991 1019 1311 708 
Q 1631 397 2203 397 
Q 2534 397 2845 478 
Q 3156 559 3463 722 
L 3463 178 
Q 3153 47 2828 -22 
Q 2503 -91 2169 -91 
Q 1331 -91 842 396 
Q 353 884 353 1716 
Q 353 2575 817 3079 
Q 1281 3584 2069 3584 
Q 2775 3584 3186 3129 
Q 3597 2675 3597 1894 
z
M 3022 2063 
Q 3016 2534 2758 2815 
Q 2500 3097 2075 3097 
Q 1594 3097 1305 2825 
Q 1016 2553 972 2059 
L 3022 2063 
z
" transform="scale(0.015625)"/>
       <path id="DejaVuSans-70" d="M 1159 525 
L 1159 -1331 
L 581 -1331 
L 581 3500 
L 1159 3500 
L 1159 2969 
Q 1341 3281 1617 3432 
Q 1894 3584 2278 3584 
Q 2916 3584 3314 3078 
Q 3713 2572 3713 1747 
Q 3713 922 3314 415 
Q 2916 -91 2278 -91 
Q 1894 -91 1617 61 
Q 1341 213 1159 525 
z
M 3116 1747 
Q 3116 2381 2855 2742 
Q 2594 3103 2138 3103 
Q 1681 3103 1420 2742 
Q 1159 2381 1159 1747 
Q 1159 1113 1420 752 
Q 1681 391 2138 391 
Q 2594 391 2855 752 
Q 3116 1113 3116 1747 
z
" transform="scale(0.015625)"/>
      </defs>
      <use xlink:href="#DejaVuSans-53"/>
      <use xlink:href="#DejaVuSans-74" transform="translate(63.476562 0)"/>
      <use xlink:href="#DejaVuSans-65" transform="translate(102.685547 0)"/>
      <use xlink:href="#DejaVuSans-70" transform="translate(164.208984 0)"/>
     </g>
    </g>
   </g>
   <g id="matplotlib.axis_2">
    <g id="ytick_1">
     <g id="line2d_7">
      <defs>
       <path id="md0d3c94cd2" d="M 0 0 
L -3.5 0 
" style="stroke: #000000; stroke-width: 0.8"/>
      </defs>
      <g>
       <use xlink:href="#md0d3c94cd2" x="53.13125" y="353.446296" style="stroke: #000000; stroke-width: 0.8"/>
      </g>
     </g>
     <g id="text_8">
      <!-- 12 -->
      <g transform="translate(25.026563 357.245515) scale(0.1 -0.1)">
       <defs>
        <path id="DejaVuSans-2212" d="M 678 2272 
L 4684 2272 
L 4684 1741 
L 678 1741 
L 678 2272 
z
" transform="scale(0.015625)"/>
       </defs>
       <use xlink:href="#DejaVuSans-2212"/>
       <use xlink:href="#DejaVuSans-31" transform="translate(83.789062 0)"/>
       <use xlink:href="#DejaVuSans-32" transform="translate(147.412109 0)"/>
      </g>
     </g>
    </g>
    <g id="ytick_2">
     <g id="line2d_8">
      <g>
       <use xlink:href="#md0d3c94cd2" x="53.13125" y="307.791113" style="stroke: #000000; stroke-width: 0.8"/>
      </g>
     </g>
     <g id="text_9">
      <!-- 10 -->
      <g transform="translate(25.026563 311.590332) scale(0.1 -0.1)">
       <use xlink:href="#DejaVuSans-2212"/>
       <use xlink:href="#DejaVuSans-31" transform="translate(83.789062 0)"/>
       <use xlink:href="#DejaVuSans-30" transform="translate(147.412109 0)"/>
      </g>
     </g>
    </g>
    <g id="ytick_3">
     <g id="line2d_9">
      <g>
       <use xlink:href="#md0d3c94cd2" x="53.13125" y="262.13593" style="stroke: #000000; stroke-width: 0.8"/>
      </g>
     </g>
     <g id="text_10">
      <!-- 8 -->
      <g transform="translate(31.389063 265.935149) scale(0.1 -0.1)">
       <use xlink:href="#DejaVuSans-2212"/>
       <use xlink:href="#DejaVuSans-38" transform="translate(83.789062 0)"/>
      </g>
     </g>
    </g>
    <g id="ytick_4">
     <g id="line2d_10">
      <g>
       <use xlink:href="#md0d3c94cd2" x="53.13125" y="216.480748" style="stroke: #000000; stroke-width: 0.8"/>
      </g>
     </g>
     <g id="text_11">
      <!-- 6 -->
      <g transform="translate(31.389063 220.279966) scale(0.1 -0.1)">
       <use xlink:href="#DejaVuSans-2212"/>
       <use xlink:href="#DejaVuSans-36" transform="translate(83.789062 0)"/>
      </g>
     </g>
    </g>
    <g id="ytick_5">
     <g id="line2d_11">
      <g>
       <use xlink:href="#md0d3c94cd2" x="53.13125" y="170.825565" style="stroke: #000000; stroke-width: 0.8"/>
      </g>
     </g>
     <g id="text_12">
      <!-- 4 -->
      <g transform="translate(31.389063 174.624783) scale(0.1 -0.1)">
       <use xlink:href="#DejaVuSans-2212"/>
       <use xlink:href="#DejaVuSans-34" transform="translate(83.789062 0)"/>
      </g>
     </g>
    </g>
    <g id="ytick_6">
     <g id="line2d_12">
      <g>
       <use xlink:href="#md0d3c94cd2" x="53.13125" y="125.170382" style="stroke: #000000; stroke-width: 0.8"/>
      </g>
     </g>
     <g id="text_13">
      <!-- 2 -->
      <g transform="translate(31.389063 128.969601) scale(0.1 -0.1)">
       <use xlink:href="#DejaVuSans-2212"/>
       <use xlink:href="#DejaVuSans-32" transform="translate(83.789062 0)"/>
      </g>
     </g>
    </g>
    <g id="ytick_7">
     <g id="line2d_13">
      <g>
       <use xlink:href="#md0d3c94cd2" x="53.13125" y="79.515199" style="stroke: #000000; stroke-width: 0.8"/>
      </g>
     </g>
     <g id="text_14">
      <!-- 0 -->
      <g transform="translate(39.76875 83.314418) scale(0.1 -0.1)">
       <use xlink:href="#DejaVuSans-30"/>
      </g>
     </g>
    </g>
    <g id="ytick_8">
     <g id="line2d_14">
      <g>
       <use xlink:href="#md0d3c94cd2" x="53.13125" y="33.860016" style="stroke: #000000; stroke-width: 0.8"/>
      </g>
     </g>
     <g id="text_15">
      <!-- 2 -->
      <g transform="translate(39.76875 37.659235) scale(0.1 -0.1)">
       <use xlink:href="#DejaVuSans-32"/>
      </g>
     </g>
    </g>
    <g id="text_16">
     <!-- charts/episodic_return -->
     <g transform="translate(18.66875 263.428281) rotate(-90) scale(0.1 -0.1)">
      <defs>
       <path id="DejaVuSans-63" d="M 3122 3366 
L 3122 2828 
Q 2878 2963 2633 3030 
Q 2388 3097 2138 3097 
Q 1578 3097 1268 2742 
Q 959 2388 959 1747 
Q 959 1106 1268 751 
Q 1578 397 2138 397 
Q 2388 397 2633 464 
Q 2878 531 3122 666 
L 3122 134 
Q 2881 22 2623 -34 
Q 2366 -91 2075 -91 
Q 1284 -91 818 406 
Q 353 903 353 1747 
Q 353 2603 823 3093 
Q 1294 3584 2113 3584 
Q 2378 3584 2631 3529 
Q 2884 3475 3122 3366 
z
" transform="scale(0.015625)"/>
       <path id="DejaVuSans-68" d="M 3513 2113 
L 3513 0 
L 2938 0 
L 2938 2094 
Q 2938 2591 2744 2837 
Q 2550 3084 2163 3084 
Q 1697 3084 1428 2787 
Q 1159 2491 1159 1978 
L 1159 0 
L 581 0 
L 581 4863 
L 1159 4863 
L 1159 2956 
Q 1366 3272 1645 3428 
Q 1925 3584 2291 3584 
Q 2894 3584 3203 3211 
Q 3513 2838 3513 2113 
z
" transform="scale(0.015625)"/>
       <path id="DejaVuSans-61" d="M 2194 1759 
Q 1497 1759 1228 1600 
Q 959 1441 959 1056 
Q 959 750 1161 570 
Q 1363 391 1709 391 
Q 2188 391 2477 730 
Q 2766 1069 2766 1631 
L 2766 1759 
L 2194 1759 
z
M 3341 1997 
L 3341 0 
L 2766 0 
L 2766 531 
Q 2569 213 2275 61 
Q 1981 -91 1556 -91 
Q 1019 -91 701 211 
Q 384 513 384 1019 
Q 384 1609 779 1909 
Q 1175 2209 1959 2209 
L 2766 2209 
L 2766 2266 
Q 2766 2663 2505 2880 
Q 2244 3097 1772 3097 
Q 1472 3097 1187 3025 
Q 903 2953 641 2809 
L 641 3341 
Q 956 3463 1253 3523 
Q 1550 3584 1831 3584 
Q 2591 3584 2966 3190 
Q 3341 2797 3341 1997 
z
" transform="scale(0.015625)"/>
       <path id="DejaVuSans-72" d="M 2631 2963 
Q 2534 3019 2420 3045 
Q 2306 3072 2169 3072 
Q 1681 3072 1420 2755 
Q 1159 2438 1159 1844 
L 1159 0 
L 581 0 
L 581 3500 
L 1159 3500 
L 1159 2956 
Q 1341 3275 1631 3429 
Q 1922 3584 2338 3584 
Q 2397 3584 2469 3576 
Q 2541 3569 2628 3553 
L 2631 2963 
z
" transform="scale(0.015625)"/>
       <path id="DejaVuSans-73" d="M 2834 3397 
L 2834 2853 
Q 2591 2978 2328 3040 
Q 2066 3103 1784 3103 
Q 1356 3103 1142 2972 
Q 928 2841 928 2578 
Q 928 2378 1081 2264 
Q 1234 2150 1697 2047 
L 1894 2003 
Q 2506 1872 2764 1633 
Q 3022 1394 3022 966 
Q 3022 478 2636 193 
Q 2250 -91 1575 -91 
Q 1294 -91 989 -36 
Q 684 19 347 128 
L 347 722 
Q 666 556 975 473 
Q 1284 391 1588 391 
Q 1994 391 2212 530 
Q 2431 669 2431 922 
Q 2431 1156 2273 1281 
Q 2116 1406 1581 1522 
L 1381 1569 
Q 847 1681 609 1914 
Q 372 2147 372 2553 
Q 372 3047 722 3315 
Q 1072 3584 1716 3584 
Q 2034 3584 2315 3537 
Q 2597 3491 2834 3397 
z
" transform="scale(0.015625)"/>
       <path id="DejaVuSans-2f" d="M 1625 4666 
L 2156 4666 
L 531 -594 
L 0 -594 
L 1625 4666 
z
" transform="scale(0.015625)"/>
       <path id="DejaVuSans-69" d="M 603 3500 
L 1178 3500 
L 1178 0 
L 603 0 
L 603 3500 
z
M 603 4863 
L 1178 4863 
L 1178 4134 
L 603 4134 
L 603 4863 
z
" transform="scale(0.015625)"/>
       <path id="DejaVuSans-6f" d="M 1959 3097 
Q 1497 3097 1228 2736 
Q 959 2375 959 1747 
Q 959 1119 1226 758 
Q 1494 397 1959 397 
Q 2419 397 2687 759 
Q 2956 1122 2956 1747 
Q 2956 2369 2687 2733 
Q 2419 3097 1959 3097 
z
M 1959 3584 
Q 2709 3584 3137 3096 
Q 3566 2609 3566 1747 
Q 3566 888 3137 398 
Q 2709 -91 1959 -91 
Q 1206 -91 779 398 
Q 353 888 353 1747 
Q 353 2609 779 3096 
Q 1206 3584 1959 3584 
z
" transform="scale(0.015625)"/>
       <path id="DejaVuSans-64" d="M 2906 2969 
L 2906 4863 
L 3481 4863 
L 3481 0 
L 2906 0 
L 2906 525 
Q 2725 213 2448 61 
Q 2172 -91 1784 -91 
Q 1150 -91 751 415 
Q 353 922 353 1747 
Q 353 2572 751 3078 
Q 1150 3584 1784 3584 
Q 2172 3584 2448 3432 
Q 2725 3281 2906 2969 
z
M 947 1747 
Q 947 1113 1208 752 
Q 1469 391 1925 391 
Q 2381 391 2643 752 
Q 2906 1113 2906 1747 
Q 2906 2381 2643 2742 
Q 2381 3103 1925 3103 
Q 1469 3103 1208 2742 
Q 947 2381 947 1747 
z
" transform="scale(0.015625)"/>
       <path id="DejaVuSans-5f" d="M 3263 -1063 
L 3263 -1509 
L -63 -1509 
L -63 -1063 
L 3263 -1063 
z
" transform="scale(0.015625)"/>
       <path id="DejaVuSans-75" d="M 544 1381 
L 544 3500 
L 1119 3500 
L 1119 1403 
Q 1119 906 1312 657 
Q 1506 409 1894 409 
Q 2359 409 2629 706 
Q 2900 1003 2900 1516 
L 2900 3500 
L 3475 3500 
L 3475 0 
L 2900 0 
L 2900 538 
Q 2691 219 2414 64 
Q 2138 -91 1772 -91 
Q 1169 -91 856 284 
Q 544 659 544 1381 
z
M 1991 3584 
L 1991 3584 
z
" transform="scale(0.015625)"/>
       <path id="DejaVuSans-6e" d="M 3513 2113 
L 3513 0 
L 2938 0 
L 2938 2094 
Q 2938 2591 2744 2837 
Q 2550 3084 2163 3084 
Q 1697 3084 1428 2787 
Q 1159 2491 1159 1978 
L 1159 0 
L 581 0 
L 581 3500 
L 1159 3500 
L 1159 2956 
Q 1366 3272 1645 3428 
Q 1925 3584 2291 3584 
Q 2894 3584 3203 3211 
Q 3513 2838 3513 2113 
z
" transform="scale(0.015625)"/>
      </defs>
      <use xlink:href="#DejaVuSans-63"/>
      <use xlink:href="#DejaVuSans-68" transform="translate(54.980469 0)"/>
      <use xlink:href="#DejaVuSans-61" transform="translate(118.359375 0)"/>
      <use xlink:href="#DejaVuSans-72" transform="translate(179.638672 0)"/>
      <use xlink:href="#DejaVuSans-74" transform="translate(220.751953 0)"/>
      <use xlink:href="#DejaVuSans-73" transform="translate(259.960938 0)"/>
      <use xlink:href="#DejaVuSans-2f" transform="translate(312.060547 0)"/>
      <use xlink:href="#DejaVuSans-65" transform="translate(345.751953 0)"/>
      <use xlink:href="#DejaVuSans-70" transform="translate(407.275391 0)"/>
      <use xlink:href="#DejaVuSans-69" transform="translate(470.751953 0)"/>
      <use xlink:href="#DejaVuSans-73" transform="translate(498.535156 0)"/>
      <use xlink:href="#DejaVuSans-6f" transform="translate(550.634766 0)"/>
      <use xlink:href="#DejaVuSans-64" transform="translate(611.816406 0)"/>
      <use xlink:href="#DejaVuSans-69" transform="translate(675.292969 0)"/>
      <use xlink:href="#DejaVuSans-63" transform="translate(703.076172 0)"/>
      <use xlink:href="#DejaVuSans-5f" transform="translate(758.056641 0)"/>
      <use xlink:href="#DejaVuSans-72" transform="translate(808.056641 0)"/>
      <use xlink:href="#DejaVuSans-65" transform="translate(846.919922 0)"/>
      <use xlink:href="#DejaVuSans-74" transform="translate(908.443359 0)"/>
      <use xlink:href="#DejaVuSans-75" transform="translate(947.652344 0)"/>
      <use xlink:href="#DejaVuSans-72" transform="translate(1011.03125 0)"/>
      <use xlink:href="#DejaVuSans-6e" transform="translate(1050.394531 0)"/>
     </g>
    </g>
   </g>
   <g id="line2d_15">
    <path d="M 82.952557 78.036397 
L 84.743626 78.105984 
L 88.325765 77.771015 
L 90.713858 77.707274 
L 91.907904 77.554944 
L 94.295997 77.910742 
L 97.281113 78.234143 
L 99.072182 78.464811 
L 102.057298 78.39978 
L 103.251344 78.435595 
L 104.445391 78.971919 
L 106.833483 80.14254 
L 109.221576 80.97686 
L 110.415622 81.444621 
L 112.206692 82.152657 
L 113.400738 82.707086 
L 113.997761 83.025219 
L 121.759062 84.723367 
L 122.953109 84.961303 
L 124.147155 85.338616 
L 124.744178 85.475117 
L 126.535247 86.563478 
L 130.71441 89.562427 
L 131.908456 90.3448 
L 136.087618 93.544957 
L 137.878687 95.306955 
L 139.072734 96.493853 
L 142.05785 99.436674 
L 144.445942 101.696409 
L 145.639989 102.846642 
L 146.237012 103.121844 
L 149.819151 101.867673 
L 151.61022 101.32451 
L 156.386405 99.470447 
L 157.580452 99.969852 
L 159.371521 100.453014 
L 159.968544 100.638656 
L 162.95366 102.04653 
L 167.132822 103.397886 
L 168.923892 103.167286 
L 171.909008 103.009406 
L 174.2971 102.928033 
L 174.894123 102.778903 
L 176.08817 102.754962 
L 177.879239 102.56256 
L 179.670309 102.090069 
L 180.864355 102.011373 
L 182.058401 101.773521 
L 188.028633 100.61289 
L 189.819702 100.926735 
L 191.610772 100.989653 
L 192.804818 101.097836 
L 195.789934 101.214815 
L 196.98398 101.506203 
L 199.372073 101.676317 
L 202.357189 99.038756 
L 205.939328 96.50273 
L 208.924443 94.087778 
L 209.521467 93.667874 
L 210.11849 93.594193 
L 211.909559 94.277551 
L 214.894675 94.939899 
L 216.088721 95.053796 
L 216.685745 95.313097 
L 217.282768 95.735313 
L 218.476814 96.173628 
L 220.267884 96.512123 
L 223.252999 96.301073 
L 226.835138 96.068715 
L 227.432161 96.08395 
L 229.223231 95.801051 
L 230.417277 95.902468 
L 231.611324 95.647019 
L 236.387509 96.112843 
L 237.581555 96.180414 
L 238.178578 96.19316 
L 239.969648 95.748508 
L 241.163694 95.871543 
L 241.760717 95.79412 
L 243.551787 95.131716 
L 245.939879 94.36265 
L 246.536903 94.288996 
L 250.716065 92.702178 
L 251.910111 92.363584 
L 252.507134 92.381034 
L 253.70118 92.973846 
L 254.895227 93.532106 
L 256.089273 94.05399 
L 259.074389 95.305215 
L 259.671412 95.802322 
L 262.656528 97.318669 
L 263.850574 97.263722 
L 265.04462 97.300463 
L 266.238667 97.362633 
L 268.029736 97.182997 
L 271.611875 97.307834 
L 272.805922 97.393648 
L 275.791037 97.886764 
L 276.985084 98.312097 
L 278.776153 98.683332 
L 281.761269 99.183512 
L 282.358292 99.242453 
L 284.149362 99.762414 
L 287.731501 97.304172 
L 288.925547 96.445254 
L 294.298755 92.887358 
L 294.895778 92.686564 
L 303.851126 97.915075 
L 305.642195 98.977872 
L 306.836242 99.279514 
L 314.00052 99.81027 
L 315.791589 100.419125 
L 316.388612 100.213755 
L 318.776705 98.306157 
L 321.164797 96.67809 
L 322.358844 95.893868 
L 324.149913 94.495434 
L 325.34396 93.346154 
L 326.538006 92.788766 
L 327.732052 93.408968 
L 330.717168 95.186162 
L 334.299307 97.667058 
L 336.090376 98.664344 
L 337.284423 99.475371 
L 338.478469 99.289473 
L 340.269539 98.855475 
L 341.463585 98.522481 
L 342.657631 98.168886 
L 345.045724 97.891361 
L 345.642747 98.008307 
L 346.836793 97.720134 
L 347.433816 97.583549 
L 348.03084 97.640343 
L 349.224886 98.26887 
L 349.821909 98.537703 
L 351.015955 99.243935 
L 355.195118 101.472729 
L 355.792141 101.758795 
L 357.58321 102.990192 
L 358.180233 103.354618 
L 358.777257 103.420181 
L 360.568326 101.574533 
L 363.553442 98.152853 
L 365.941534 95.611885 
L 368.92665 92.615525 
L 369.523673 92.513445 
L 373.702836 95.360114 
L 374.896882 96.299824 
L 376.687951 97.432917 
L 378.479021 98.889688 
L 379.673067 99.529052 
L 380.867113 99.347155 
L 383.852229 98.711791 
L 385.046276 98.858245 
L 390.419484 97.595566 
L 391.016507 97.367623 
L 392.210553 97.156337 
L 393.4046 96.704969 
L 394.001623 96.649181 
L 396.389716 95.881236 
L 397.583762 95.617873 
L 399.374831 95.111565 
L 401.165901 94.50641 
L 402.359947 95.591871 
L 404.151017 96.801862 
L 407.136132 99.208426 
L 408.927202 100.535422 
L 410.718271 101.783776 
L 411.912318 102.439293 
L 413.106364 102.287405 
L 413.703387 102.386851 
L 416.688503 101.831174 
L 417.285526 101.906132 
L 419.076596 101.803334 
L 420.270642 101.849119 
L 421.464688 101.783541 
L 422.061711 101.871305 
L 422.658735 101.67478 
L 423.852781 101.035882 
L 425.046827 100.832628 
L 429.823013 99.109734 
L 431.017059 98.773572 
L 432.211105 98.435589 
L 432.808128 98.161151 
L 433.405151 98.248733 
L 439.972406 100.662983 
L 441.166453 100.976414 
L 442.360499 101.575602 
L 443.554545 102.150995 
L 444.151568 101.84699 
L 445.345615 100.894699 
L 450.1218 96.263768 
L 451.912869 94.81743 
L 454.300962 92.544752 
L 456.689055 94.714652 
L 457.883101 96.138839 
L 459.077147 97.226369 
L 464.450356 102.488886 
L 465.047379 102.89846 
L 466.838448 102.01996 
L 468.629518 100.764926 
L 469.823564 100.286084 
L 475.196773 96.760945 
L 475.793796 96.577669 
L 478.181888 97.347841 
L 478.778912 97.758549 
L 481.764027 98.348487 
L 482.361051 98.637706 
L 485.346166 99.29173 
L 486.540213 100.061757 
L 487.137236 100.358343 
L 488.928305 100.878587 
L 490.122352 101.429984 
L 491.913421 101.717183 
L 493.107467 102.311811 
L 495.49556 102.825685 
L 496.689606 103.09612 
L 497.28663 102.923295 
L 497.883653 103.061095 
L 500.271745 102.449593 
L 502.659838 102.138984 
L 503.853884 101.795272 
L 505.047931 101.360211 
L 506.839 100.826072 
L 507.436023 100.632807 
L 508.63007 100.541699 
L 511.615185 101.029236 
L 514.600301 101.126401 
L 516.988394 100.917529 
L 517.585417 101.134736 
L 518.18244 101.070544 
L 518.779463 100.863682 
L 519.376486 100.820118 
L 520.570533 100.295276 
L 521.167556 99.972092 
L 522.958625 99.491726 
L 523.555649 99.515635 
L 525.346718 98.943056 
L 526.540764 98.617589 
L 527.137788 98.417361 
L 527.734811 98.385836 
L 528.928857 97.820403 
L 532.510996 96.216781 
L 533.108019 96.194139 
L 535.496112 95.297688 
L 536.093135 95.162089 
L 536.690158 95.166742 
L 539.078251 94.160155 
L 539.675274 94.171995 
L 542.063366 95.657805 
L 542.66039 96.28172 
L 544.451459 97.489843 
L 545.645505 98.425539 
L 547.436575 99.438136 
L 548.630621 100.018246 
L 549.824668 100.919921 
L 550.421691 100.73936 
L 552.21276 99.675701 
L 554.600853 98.573857 
L 557.585969 96.516133 
L 558.780015 95.544408 
L 559.974061 94.903808 
L 560.571084 94.701399 
L 561.168108 95.27867 
L 561.765131 95.690651 
L 565.34727 98.994534 
L 566.541316 99.861968 
L 568.929409 101.586266 
L 569.526432 101.977 
L 570.720478 103.038883 
L 571.317501 103.40304 
L 572.511548 103.042035 
L 573.705594 103.110071 
L 579.675826 102.528804 
L 582.660941 102.014893 
L 583.257964 102.226576 
L 584.452011 102.318355 
L 586.24308 102.122813 
L 588.03415 102.071817 
L 589.228196 101.735064 
L 591.616289 101.498576 
L 594.601405 101.089956 
L 597.58652 100.208312 
L 599.37759 100.315329 
L 600.571636 100.293466 
L 602.362706 99.841945 
L 603.556752 99.492647 
L 604.750798 98.632436 
L 606.541868 97.59704 
L 607.735914 96.756428 
L 608.92996 95.823853 
L 609.526984 95.635877 
L 610.124007 95.274662 
L 611.915076 93.798409 
L 613.706146 92.820677 
L 614.900192 93.342551 
L 617.288285 94.529988 
L 619.676377 95.861563 
L 620.2734 96.350645 
L 624.452563 98.602025 
L 625.646609 98.910655 
L 627.437678 99.426581 
L 628.631725 99.780815 
L 629.825771 100.097446 
L 632.213864 100.893243 
L 633.40791 101.133963 
L 634.601956 101.67705 
L 635.198979 101.972433 
L 636.393026 101.871017 
L 637.587072 101.621059 
L 638.781118 101.510083 
L 642.96028 102.025928 
L 644.154327 102.144586 
L 644.75135 102.239656 
L 645.348373 102.448 
L 645.945396 102.377264 
L 647.139443 101.692261 
L 649.527535 100.853343 
L 651.915628 99.631155 
L 652.512651 99.449176 
L 653.706697 99.26359 
L 654.900744 98.682637 
L 657.288836 97.210614 
L 659.676929 96.24849 
L 663.259068 94.031938 
L 664.453114 93.438371 
L 666.841207 92.416355 
L 668.035253 93.106795 
L 671.020369 94.840496 
L 671.617392 95.123277 
L 673.408462 96.399497 
L 674.005485 96.674342 
L 674.602508 97.158156 
L 675.796554 97.761873 
L 676.990601 98.690648 
L 677.587624 99.044519 
L 679.378693 98.992605 
L 679.378693 98.992605 
" clip-path="url(#p075cf6d372)" style="fill: none; stroke: #ff00ff; stroke-width: 1.5; stroke-linecap: square"/>
   </g>
   <g id="patch_3">
    <path d="M 53.13125 390.04 
L 53.13125 25.44 
" style="fill: none; stroke: #000000; stroke-width: 0.8; stroke-linejoin: miter; stroke-linecap: square"/>
   </g>
   <g id="patch_4">
    <path d="M 709.2 390.04 
L 709.2 25.44 
" style="fill: none; stroke: #000000; stroke-width: 0.8; stroke-linejoin: miter; stroke-linecap: square"/>
   </g>
   <g id="patch_5">
    <path d="M 53.13125 390.04 
L 709.2 390.04 
" style="fill: none; stroke: #000000; stroke-width: 0.8; stroke-linejoin: miter; stroke-linecap: square"/>
   </g>
   <g id="patch_6">
    <path d="M 53.13125 25.44 
L 709.2 25.44 
" style="fill: none; stroke: #000000; stroke-width: 0.8; stroke-linejoin: miter; stroke-linecap: square"/>
   </g>
   <g id="text_17">
    <!-- charts/episodic_return for c51_atari (aggregated via interpolation over runs) -->
    <g transform="translate(151.85875 19.44) scale(0.12 -0.12)">
     <defs>
      <path id="DejaVuSans-20" transform="scale(0.015625)"/>
      <path id="DejaVuSans-66" d="M 2375 4863 
L 2375 4384 
L 1825 4384 
Q 1516 4384 1395 4259 
Q 1275 4134 1275 3809 
L 1275 3500 
L 2222 3500 
L 2222 3053 
L 1275 3053 
L 1275 0 
L 697 0 
L 697 3053 
L 147 3053 
L 147 3500 
L 697 3500 
L 697 3744 
Q 697 4328 969 4595 
Q 1241 4863 1831 4863 
L 2375 4863 
z
" transform="scale(0.015625)"/>
      <path id="DejaVuSans-35" d="M 691 4666 
L 3169 4666 
L 3169 4134 
L 1269 4134 
L 1269 2991 
Q 1406 3038 1543 3061 
Q 1681 3084 1819 3084 
Q 2600 3084 3056 2656 
Q 3513 2228 3513 1497 
Q 3513 744 3044 326 
Q 2575 -91 1722 -91 
Q 1428 -91 1123 -41 
Q 819 9 494 109 
L 494 744 
Q 775 591 1075 516 
Q 1375 441 1709 441 
Q 2250 441 2565 725 
Q 2881 1009 2881 1497 
Q 2881 1984 2565 2268 
Q 2250 2553 1709 2553 
Q 1456 2553 1204 2497 
Q 953 2441 691 2322 
L 691 4666 
z
" transform="scale(0.015625)"/>
      <path id="DejaVuSans-28" d="M 1984 4856 
Q 1566 4138 1362 3434 
Q 1159 2731 1159 2009 
Q 1159 1288 1364 580 
Q 1569 -128 1984 -844 
L 1484 -844 
Q 1016 -109 783 600 
Q 550 1309 550 2009 
Q 550 2706 781 3412 
Q 1013 4119 1484 4856 
L 1984 4856 
z
" transform="scale(0.015625)"/>
      <path id="DejaVuSans-67" d="M 2906 1791 
Q 2906 2416 2648 2759 
Q 2391 3103 1925 3103 
Q 1463 3103 1205 2759 
Q 947 2416 947 1791 
Q 947 1169 1205 825 
Q 1463 481 1925 481 
Q 2391 481 2648 825 
Q 2906 1169 2906 1791 
z
M 3481 434 
Q 3481 -459 3084 -895 
Q 2688 -1331 1869 -1331 
Q 1566 -1331 1297 -1286 
Q 1028 -1241 775 -1147 
L 775 -588 
Q 1028 -725 1275 -790 
Q 1522 -856 1778 -856 
Q 2344 -856 2625 -561 
Q 2906 -266 2906 331 
L 2906 616 
Q 2728 306 2450 153 
Q 2172 0 1784 0 
Q 1141 0 747 490 
Q 353 981 353 1791 
Q 353 2603 747 3093 
Q 1141 3584 1784 3584 
Q 2172 3584 2450 3431 
Q 2728 3278 2906 2969 
L 2906 3500 
L 3481 3500 
L 3481 434 
z
" transform="scale(0.015625)"/>
      <path id="DejaVuSans-76" d="M 191 3500 
L 800 3500 
L 1894 563 
L 2988 3500 
L 3597 3500 
L 2284 0 
L 1503 0 
L 191 3500 
z
" transform="scale(0.015625)"/>
      <path id="DejaVuSans-6c" d="M 603 4863 
L 1178 4863 
L 1178 0 
L 603 0 
L 603 4863 
z
" transform="scale(0.015625)"/>
      <path id="DejaVuSans-29" d="M 513 4856 
L 1013 4856 
Q 1481 4119 1714 3412 
Q 1947 2706 1947 2009 
Q 1947 1309 1714 600 
Q 1481 -109 1013 -844 
L 513 -844 
Q 928 -128 1133 580 
Q 1338 1288 1338 2009 
Q 1338 2731 1133 3434 
Q 928 4138 513 4856 
z
" transform="scale(0.015625)"/>
     </defs>
     <use xlink:href="#DejaVuSans-63"/>
     <use xlink:href="#DejaVuSans-68" transform="translate(54.980469 0)"/>
     <use xlink:href="#DejaVuSans-61" transform="translate(118.359375 0)"/>
     <use xlink:href="#DejaVuSans-72" transform="translate(179.638672 0)"/>
     <use xlink:href="#DejaVuSans-74" transform="translate(220.751953 0)"/>
     <use xlink:href="#DejaVuSans-73" transform="translate(259.960938 0)"/>
     <use xlink:href="#DejaVuSans-2f" transform="translate(312.060547 0)"/>
     <use xlink:href="#DejaVuSans-65" transform="translate(345.751953 0)"/>
     <use xlink:href="#DejaVuSans-70" transform="translate(407.275391 0)"/>
     <use xlink:href="#DejaVuSans-69" transform="translate(470.751953 0)"/>
     <use xlink:href="#DejaVuSans-73" transform="translate(498.535156 0)"/>
     <use xlink:href="#DejaVuSans-6f" transform="translate(550.634766 0)"/>
     <use xlink:href="#DejaVuSans-64" transform="translate(611.816406 0)"/>
     <use xlink:href="#DejaVuSans-69" transform="translate(675.292969 0)"/>
     <use xlink:href="#DejaVuSans-63" transform="translate(703.076172 0)"/>
     <use xlink:href="#DejaVuSans-5f" transform="translate(758.056641 0)"/>
     <use xlink:href="#DejaVuSans-72" transform="translate(808.056641 0)"/>
     <use xlink:href="#DejaVuSans-65" transform="translate(846.919922 0)"/>
     <use xlink:href="#DejaVuSans-74" transform="translate(908.443359 0)"/>
     <use xlink:href="#DejaVuSans-75" transform="translate(947.652344 0)"/>
     <use xlink:href="#DejaVuSans-72" transform="translate(1011.03125 0)"/>
     <use xlink:href="#DejaVuSans-6e" transform="translate(1050.394531 0)"/>
     <use xlink:href="#DejaVuSans-20" transform="translate(1113.773438 0)"/>
     <use xlink:href="#DejaVuSans-66" transform="translate(1145.560547 0)"/>
     <use xlink:href="#DejaVuSans-6f" transform="translate(1180.765625 0)"/>
     <use xlink:href="#DejaVuSans-72" transform="translate(1241.947266 0)"/>
     <use xlink:href="#DejaVuSans-20" transform="translate(1283.060547 0)"/>
     <use xlink:href="#DejaVuSans-63" transform="translate(1314.847656 0)"/>
     <use xlink:href="#DejaVuSans-35" transform="translate(1369.828125 0)"/>
     <use xlink:href="#DejaVuSans-31" transform="translate(1433.451172 0)"/>
     <use xlink:href="#DejaVuSans-5f" transform="translate(1497.074219 0)"/>
     <use xlink:href="#DejaVuSans-61" transform="translate(1547.074219 0)"/>
     <use xlink:href="#DejaVuSans-74" transform="translate(1608.353516 0)"/>
     <use xlink:href="#DejaVuSans-61" transform="translate(1647.5625 0)"/>
     <use xlink:href="#DejaVuSans-72" transform="translate(1708.841797 0)"/>
     <use xlink:href="#DejaVuSans-69" transform="translate(1749.955078 0)"/>
     <use xlink:href="#DejaVuSans-20" transform="translate(1777.738281 0)"/>
     <use xlink:href="#DejaVuSans-28" transform="translate(1809.525391 0)"/>
     <use xlink:href="#DejaVuSans-61" transform="translate(1848.539062 0)"/>
     <use xlink:href="#DejaVuSans-67" transform="translate(1909.818359 0)"/>
     <use xlink:href="#DejaVuSans-67" transform="translate(1973.294922 0)"/>
     <use xlink:href="#DejaVuSans-72" transform="translate(2036.771484 0)"/>
     <use xlink:href="#DejaVuSans-65" transform="translate(2075.634766 0)"/>
     <use xlink:href="#DejaVuSans-67" transform="translate(2137.158203 0)"/>
     <use xlink:href="#DejaVuSans-61" transform="translate(2200.634766 0)"/>
     <use xlink:href="#DejaVuSans-74" transform="translate(2261.914062 0)"/>
     <use xlink:href="#DejaVuSans-65" transform="translate(2301.123047 0)"/>
     <use xlink:href="#DejaVuSans-64" transform="translate(2362.646484 0)"/>
     <use xlink:href="#DejaVuSans-20" transform="translate(2426.123047 0)"/>
     <use xlink:href="#DejaVuSans-76" transform="translate(2457.910156 0)"/>
     <use xlink:href="#DejaVuSans-69" transform="translate(2517.089844 0)"/>
     <use xlink:href="#DejaVuSans-61" transform="translate(2544.873047 0)"/>
     <use xlink:href="#DejaVuSans-20" transform="translate(2606.152344 0)"/>
     <use xlink:href="#DejaVuSans-69" transform="translate(2637.939453 0)"/>
     <use xlink:href="#DejaVuSans-6e" transform="translate(2665.722656 0)"/>
     <use xlink:href="#DejaVuSans-74" transform="translate(2729.101562 0)"/>
     <use xlink:href="#DejaVuSans-65" transform="translate(2768.310547 0)"/>
     <use xlink:href="#DejaVuSans-72" transform="translate(2829.833984 0)"/>
     <use xlink:href="#DejaVuSans-70" transform="translate(2870.947266 0)"/>
     <use xlink:href="#DejaVuSans-6f" transform="translate(2934.423828 0)"/>
     <use xlink:href="#DejaVuSans-6c" transform="translate(2995.605469 0)"/>
     <use xlink:href="#DejaVuSans-61" transform="translate(3023.388672 0)"/>
     <use xlink:href="#DejaVuSans-74" transform="translate(3084.667969 0)"/>
     <use xlink:href="#DejaVuSans-69" transform="translate(3123.876953 0)"/>
     <use xlink:href="#DejaVuSans-6f" transform="translate(3151.660156 0)"/>
     <use xlink:href="#DejaVuSans-6e" transform="translate(3212.841797 0)"/>
     <use xlink:href="#DejaVuSans-20" transform="translate(3276.220703 0)"/>
     <use xlink:href="#DejaVuSans-6f" transform="translate(3308.007812 0)"/>
     <use xlink:href="#DejaVuSans-76" transform="translate(3369.189453 0)"/>
     <use xlink:href="#DejaVuSans-65" transform="translate(3428.369141 0)"/>
     <use xlink:href="#DejaVuSans-72" transform="translate(3489.892578 0)"/>
     <use xlink:href="#DejaVuSans-20" transform="translate(3531.005859 0)"/>
     <use xlink:href="#DejaVuSans-72" transform="translate(3562.792969 0)"/>
     <use xlink:href="#DejaVuSans-75" transform="translate(3603.90625 0)"/>
     <use xlink:href="#DejaVuSans-6e" transform="translate(3667.285156 0)"/>
     <use xlink:href="#DejaVuSans-73" transform="translate(3730.664062 0)"/>
     <use xlink:href="#DejaVuSans-29" transform="translate(3782.763672 0)"/>
    </g>
   </g>
   <g id="legend_1">
    <g id="patch_7">
     <path d="M 626.78125 62.79625 
L 702.2 62.79625 
Q 704.2 62.79625 704.2 60.79625 
L 704.2 32.44 
Q 704.2 30.44 702.2 30.44 
L 626.78125 30.44 
Q 624.78125 30.44 624.78125 32.44 
L 624.78125 60.79625 
Q 624.78125 62.79625 626.78125 62.79625 
z
" style="fill: #ffffff; opacity: 0.8; stroke: #cccccc; stroke-linejoin: miter"/>
    </g>
    <g id="line2d_16">
     <path d="M 628.78125 38.538437 
L 638.78125 38.538437 
L 648.78125 38.538437 
" style="fill: none; stroke: #ff00ff; stroke-width: 1.5; stroke-linecap: square"/>
    </g>
    <g id="text_18">
     <!-- Mean -->
     <g transform="translate(656.78125 42.038437) scale(0.1 -0.1)">
      <defs>
       <path id="DejaVuSans-4d" d="M 628 4666 
L 1569 4666 
L 2759 1491 
L 3956 4666 
L 4897 4666 
L 4897 0 
L 4281 0 
L 4281 4097 
L 3078 897 
L 2444 897 
L 1241 4097 
L 1241 0 
L 628 0 
L 628 4666 
z
" transform="scale(0.015625)"/>
      </defs>
      <use xlink:href="#DejaVuSans-4d"/>
      <use xlink:href="#DejaVuSans-65" transform="translate(86.279297 0)"/>
      <use xlink:href="#DejaVuSans-61" transform="translate(147.802734 0)"/>
      <use xlink:href="#DejaVuSans-6e" transform="translate(209.082031 0)"/>
     </g>
    </g>
    <g id="patch_8">
     <path d="M 628.78125 56.716563 
L 648.78125 56.716563 
L 648.78125 49.716563 
L 628.78125 49.716563 
z
" style="fill: #ff00ff; fill-opacity: 0.3; stroke: #ff00ff; stroke-opacity: 0.3; stroke-linejoin: miter"/>
    </g>
    <g id="text_19">
     <!-- MinMax -->
     <g transform="translate(656.78125 56.716563) scale(0.1 -0.1)">
      <defs>
       <path id="DejaVuSans-2013" d="M 313 1978 
L 2888 1978 
L 2888 1528 
L 313 1528 
L 313 1978 
z
" transform="scale(0.015625)"/>
       <path id="DejaVuSans-78" d="M 3513 3500 
L 2247 1797 
L 3578 0 
L 2900 0 
L 1881 1375 
L 863 0 
L 184 0 
L 1544 1831 
L 300 3500 
L 978 3500 
L 1906 2253 
L 2834 3500 
L 3513 3500 
z
" transform="scale(0.015625)"/>
      </defs>
      <use xlink:href="#DejaVuSans-4d"/>
      <use xlink:href="#DejaVuSans-69" transform="translate(86.279297 0)"/>
      <use xlink:href="#DejaVuSans-6e" transform="translate(114.0625 0)"/>
      <use xlink:href="#DejaVuSans-2013" transform="translate(177.441406 0)"/>
      <use xlink:href="#DejaVuSans-4d" transform="translate(227.441406 0)"/>
      <use xlink:href="#DejaVuSans-61" transform="translate(313.720703 0)"/>
      <use xlink:href="#DejaVuSans-78" transform="translate(375 0)"/>
     </g>
    </g>
   </g>
  </g>
 </g>
 <defs>
  <clipPath id="p075cf6d372">
   <rect x="53.13125" y="25.44" width="656.06875" height="364.6"/>
  </clipPath>
 </defs>
</svg>
