<?xml version="1.0" encoding="utf-8" standalone="no"?>
<!DOCTYPE svg PUBLIC "-//W3C//DTD SVG 1.1//EN"
  "http://www.w3.org/Graphics/SVG/1.1/DTD/svg11.dtd">
<svg xmlns:xlink="http://www.w3.org/1999/xlink" width="720pt" height="432pt" viewBox="0 0 720 432" xmlns="http://www.w3.org/2000/svg" version="1.1">
 <metadata>
  <rdf:RDF xmlns:dc="http://purl.org/dc/elements/1.1/" xmlns:cc="http://creativecommons.org/ns#" xmlns:rdf="http://www.w3.org/1999/02/22-rdf-syntax-ns#">
   <cc:Work>
    <dc:type rdf:resource="http://purl.org/dc/dcmitype/StillImage"/>
    <dc:date>2025-02-05T20:31:42.888640</dc:date>
    <dc:format>image/svg+xml</dc:format>
    <dc:creator>
     <cc:Agent>
      <dc:title>Matplotlib v3.10.0, https://matplotlib.org/</dc:title>
     </cc:Agent>
    </dc:creator>
   </cc:Work>
  </rdf:RDF>
 </metadata>
 <defs>
  <style type="text/css">*{stroke-linejoin: round; stroke-linecap: butt}</style>
 </defs>
 <g id="figure_1">
  <g id="patch_1">
   <path d="M 0 432 
L 720 432 
L 720 0 
L 0 0 
z
" style="fill: #ffffff"/>
  </g>
  <g id="axes_1">
   <g id="patch_2">
    <path d="M 62.67125 390.04 
L 709.2 390.04 
L 709.2 25.44 
L 62.67125 25.44 
z
" style="fill: #ffffff"/>
   </g>
   <g id="FillBetweenPolyCollection_1">
    <defs>
     <path id="md8174311ef" d="M 92.05892 -294.414237 
L 92.05892 -266.312595 
L 92.647262 -265.882945 
L 93.235604 -265.803229 
L 93.823946 -265.803229 
L 94.412287 -266.041288 
L 95.000629 -265.994052 
L 95.588971 -265.88826 
L 96.177313 -266.059699 
L 96.765654 -265.803229 
L 97.353996 -265.803229 
L 97.942338 -265.927287 
L 98.53068 -266.426129 
L 99.119021 -265.913363 
L 99.707363 -265.860706 
L 100.295705 -266.205628 
L 100.884047 -265.990301 
L 101.472388 -265.803229 
L 102.06073 -265.803229 
L 102.649072 -265.708449 
L 103.237414 -262.787069 
L 103.825755 -259.865689 
L 104.414097 -256.944309 
L 105.002439 -254.022929 
L 105.590781 -251.101549 
L 106.179122 -248.18017 
L 106.767464 -245.25879 
L 107.355806 -242.33741 
L 107.944148 -239.41603 
L 108.532489 -236.49465 
L 109.120831 -233.57327 
L 109.709173 -230.65189 
L 110.297515 -227.730511 
L 110.885856 -224.809131 
L 111.474198 -221.887751 
L 112.06254 -218.966371 
L 112.650882 -220.623321 
L 113.239223 -223.771189 
L 113.827565 -226.919057 
L 114.415907 -230.066925 
L 115.004249 -233.214793 
L 115.59259 -236.362661 
L 116.180932 -239.510529 
L 116.769274 -242.658396 
L 117.357616 -245.806264 
L 117.945957 -248.954132 
L 118.534299 -252.102 
L 119.122641 -255.249868 
L 119.710983 -254.902697 
L 120.299324 -254.002801 
L 120.887666 -253.102905 
L 121.476008 -252.203009 
L 122.06435 -251.303113 
L 122.652691 -250.403217 
L 123.241033 -249.707781 
L 123.829375 -249.033616 
L 124.417717 -248.359452 
L 125.006059 -247.685287 
L 125.5944 -247.011123 
L 126.182742 -246.336958 
L 126.771084 -245.662794 
L 127.359426 -244.988629 
L 127.947767 -244.314464 
L 128.536109 -243.6403 
L 129.124451 -242.966135 
L 129.712793 -242.291971 
L 130.301134 -241.617806 
L 130.889476 -240.943641 
L 131.477818 -240.269477 
L 132.06616 -239.595312 
L 132.654501 -238.921148 
L 133.242843 -237.959511 
L 133.831185 -233.0073 
L 134.419527 -228.05509 
L 135.007868 -223.102879 
L 135.59621 -218.150668 
L 136.184552 -213.198458 
L 136.772894 -208.246247 
L 137.361235 -203.294036 
L 137.949577 -198.341826 
L 138.537919 -193.389615 
L 139.126261 -188.437404 
L 139.714602 -183.485194 
L 140.302944 -178.532983 
L 140.891286 -173.580772 
L 141.479628 -168.628562 
L 142.067969 -163.676351 
L 142.656311 -158.72414 
L 143.244653 -153.77193 
L 143.832995 -151.380854 
L 144.421336 -156.330282 
L 145.009678 -161.279711 
L 145.59802 -166.229139 
L 146.186362 -171.178568 
L 146.774703 -176.127996 
L 147.363045 -181.077425 
L 147.951387 -186.026854 
L 148.539729 -190.976282 
L 149.12807 -195.925711 
L 149.716412 -200.875139 
L 150.304754 -205.824568 
L 150.893096 -210.773996 
L 151.481437 -215.723425 
L 152.069779 -220.362678 
L 152.658121 -216.310869 
L 153.246463 -212.259061 
L 153.834804 -208.207252 
L 154.423146 -205.302311 
L 155.011488 -203.498465 
L 155.59983 -201.694619 
L 156.188171 -199.890773 
L 156.776513 -198.086928 
L 157.364855 -196.283082 
L 157.953197 -194.479236 
L 158.541538 -192.67539 
L 159.12988 -190.871545 
L 159.718222 -189.067699 
L 160.306564 -187.263853 
L 160.894905 -185.460007 
L 161.483247 -183.656162 
L 162.071589 -181.852316 
L 162.659931 -180.04847 
L 163.248272 -178.244624 
L 163.836614 -176.440778 
L 164.424956 -174.636933 
L 165.013298 -177.445058 
L 165.601639 -181.944539 
L 166.189981 -186.444019 
L 166.778323 -190.943499 
L 167.366665 -181.506717 
L 167.955006 -172.047179 
L 168.543348 -162.587642 
L 169.13169 -153.128104 
L 169.720032 -143.668566 
L 170.308373 -134.209029 
L 170.896715 -124.749491 
L 171.485057 -115.289953 
L 172.073399 -105.830416 
L 172.66174 -96.370878 
L 173.250082 -86.91134 
L 173.838424 -77.451803 
L 174.426766 -67.992265 
L 175.015107 -58.532727 
L 175.603449 -64.618155 
L 176.191791 -71.817324 
L 176.780133 -79.016493 
L 177.368474 -86.215661 
L 177.956816 -93.41483 
L 178.545158 -100.613999 
L 179.1335 -107.813168 
L 179.721841 -115.012336 
L 180.310183 -122.211505 
L 180.898525 -129.410674 
L 181.486867 -136.609843 
L 182.075208 -143.809011 
L 182.66355 -151.00818 
L 183.251892 -158.207349 
L 183.840234 -165.406518 
L 184.428575 -172.605686 
L 185.016917 -179.804855 
L 185.605259 -186.617561 
L 186.193601 -190.444269 
L 186.781942 -194.270977 
L 187.370284 -198.097686 
L 187.958626 -201.924394 
L 188.546968 -203.352997 
L 189.135309 -200.423397 
L 189.723651 -197.493798 
L 190.311993 -194.564198 
L 190.900335 -191.634598 
L 191.488676 -188.704998 
L 192.077018 -185.775398 
L 192.66536 -182.845798 
L 193.253702 -179.916199 
L 193.842043 -176.986599 
L 194.430385 -174.056999 
L 195.018727 -171.127399 
L 195.607069 -168.197799 
L 196.19541 -167.06792 
L 196.783752 -170.217557 
L 197.372094 -173.367193 
L 197.960436 -176.516829 
L 198.548777 -179.666466 
L 199.137119 -182.816102 
L 199.725461 -185.965738 
L 200.313803 -189.115375 
L 200.902144 -192.265011 
L 201.490486 -195.414647 
L 202.078828 -198.564284 
L 202.66717 -198.68305 
L 203.255511 -198.006608 
L 203.843853 -197.330166 
L 204.432195 -196.653723 
L 205.020537 -195.977281 
L 205.608878 -195.300839 
L 206.19722 -194.624397 
L 206.785562 -195.770368 
L 207.373904 -200.054502 
L 207.962245 -204.338636 
L 208.550587 -208.62277 
L 209.138929 -212.906903 
L 209.727271 -217.191037 
L 210.315612 -212.495086 
L 210.903954 -201.483732 
L 211.492296 -190.472377 
L 212.080638 -179.461022 
L 212.668979 -168.449667 
L 213.257321 -157.438312 
L 213.845663 -146.426957 
L 214.434005 -135.415603 
L 215.022346 -124.404248 
L 215.610688 -113.392893 
L 216.19903 -102.381538 
L 216.787372 -91.370183 
L 217.375713 -89.742836 
L 217.964055 -97.17533 
L 218.552397 -104.607824 
L 219.140739 -112.040318 
L 219.72908 -119.472811 
L 220.317422 -126.905305 
L 220.905764 -134.337799 
L 221.494106 -141.770293 
L 222.082447 -149.202787 
L 222.670789 -156.635281 
L 223.259131 -164.067775 
L 223.847473 -171.500269 
L 224.435814 -178.932763 
L 225.024156 -186.365256 
L 225.612498 -193.79775 
L 226.20084 -201.230244 
L 226.789181 -208.662738 
L 227.377523 -211.039712 
L 227.965865 -210.402552 
L 228.554207 -203.996455 
L 229.142548 -195.663053 
L 229.73089 -187.329651 
L 230.319232 -178.996248 
L 230.907574 -170.662846 
L 231.495915 -162.329444 
L 232.084257 -153.996042 
L 232.672599 -145.662639 
L 233.260941 -137.329237 
L 233.849282 -128.995835 
L 234.437624 -120.662433 
L 235.025966 -112.329031 
L 235.614308 -103.995628 
L 236.202649 -95.662226 
L 236.790991 -87.328824 
L 237.379333 -78.995422 
L 237.967675 -70.662019 
L 238.556016 -74.85197 
L 239.144358 -80.254381 
L 239.7327 -85.656793 
L 240.321042 -91.059205 
L 240.909383 -96.461616 
L 241.497725 -101.864028 
L 242.086067 -107.266439 
L 242.674409 -112.668851 
L 243.26275 -118.071263 
L 243.851092 -123.473674 
L 244.439434 -128.876086 
L 245.027776 -134.278498 
L 245.616117 -139.680909 
L 246.204459 -145.083321 
L 246.792801 -150.485732 
L 247.381143 -155.888144 
L 247.969484 -161.290556 
L 248.557826 -166.669139 
L 249.146168 -171.840636 
L 249.73451 -177.012134 
L 250.322851 -182.183631 
L 250.911193 -187.355128 
L 251.499535 -192.526625 
L 252.087877 -197.698122 
L 252.676218 -202.86962 
L 253.26456 -208.041117 
L 253.852902 -213.212614 
L 254.441244 -218.384111 
L 255.029585 -223.555608 
L 255.617927 -228.727106 
L 256.206269 -233.898603 
L 256.794611 -239.0701 
L 257.382952 -244.241597 
L 257.971294 -249.413094 
L 258.559636 -250.781481 
L 259.147978 -249.608893 
L 259.736319 -247.354086 
L 260.324661 -245.099279 
L 260.913003 -242.844471 
L 261.501345 -240.589664 
L 262.089686 -238.334857 
L 262.678028 -236.08005 
L 263.26637 -233.825242 
L 263.854712 -231.570435 
L 264.443053 -229.315628 
L 265.031395 -227.060821 
L 265.619737 -224.806014 
L 266.208079 -222.551206 
L 266.79642 -220.296399 
L 267.384762 -218.041592 
L 267.973104 -215.786785 
L 268.561446 -213.531978 
L 269.149787 -211.27717 
L 269.738129 -213.725448 
L 270.326471 -220.242372 
L 270.914813 -226.759296 
L 271.503154 -233.276221 
L 272.091496 -235.193672 
L 272.679838 -234.519507 
L 273.26818 -233.845343 
L 273.856521 -233.171178 
L 274.444863 -232.497014 
L 275.033205 -231.822849 
L 275.621547 -231.148685 
L 276.209888 -230.47452 
L 276.79823 -229.800355 
L 277.386572 -229.126191 
L 277.974914 -228.452026 
L 278.563255 -227.777862 
L 279.151597 -227.103697 
L 279.739939 -226.429532 
L 280.328281 -228.143243 
L 280.916622 -230.620741 
L 281.504964 -233.098239 
L 282.093306 -235.575737 
L 282.681648 -238.053235 
L 283.269989 -240.530733 
L 283.858331 -243.00823 
L 284.446673 -245.485728 
L 285.035015 -247.963226 
L 285.623356 -250.114933 
L 286.211698 -252.141977 
L 286.80004 -254.169021 
L 287.388382 -256.196065 
L 287.976723 -258.223108 
L 288.565065 -257.006782 
L 289.153407 -252.279672 
L 289.741749 -247.552562 
L 290.33009 -242.825451 
L 290.918432 -242.100982 
L 291.506774 -241.876008 
L 292.095116 -241.651034 
L 292.683457 -241.42606 
L 293.271799 -241.201086 
L 293.860141 -240.976112 
L 294.448483 -240.751138 
L 295.036824 -240.526164 
L 295.625166 -238.072459 
L 296.213508 -234.926358 
L 296.80185 -231.780256 
L 297.390191 -228.634155 
L 297.978533 -225.488053 
L 298.566875 -222.341952 
L 299.155217 -219.195851 
L 299.743559 -216.049749 
L 300.3319 -212.903648 
L 300.920242 -210.129503 
L 301.508584 -209.453441 
L 302.096926 -208.77738 
L 302.685267 -208.101318 
L 303.273609 -207.425257 
L 303.861951 -206.749195 
L 304.450293 -206.073134 
L 305.038634 -205.397072 
L 305.626976 -204.721011 
L 306.215318 -204.044949 
L 306.80366 -203.368888 
L 307.392001 -202.692826 
L 307.980343 -202.016765 
L 308.568685 -201.340703 
L 309.157027 -200.664642 
L 309.745368 -199.98858 
L 310.33371 -199.312519 
L 310.922052 -198.636457 
L 311.510394 -199.101193 
L 312.098735 -201.575907 
L 312.687077 -204.050621 
L 313.275419 -206.525336 
L 313.863761 -209.00005 
L 314.452102 -211.474764 
L 315.040444 -213.949478 
L 315.628786 -216.424193 
L 316.217128 -218.898907 
L 316.805469 -221.373621 
L 317.393811 -223.848335 
L 317.982153 -226.32305 
L 318.570495 -228.797764 
L 319.158836 -231.272478 
L 319.747178 -233.747192 
L 320.33552 -231.444699 
L 320.923862 -227.837007 
L 321.512203 -224.229316 
L 322.100545 -222.766628 
L 322.688887 -223.889605 
L 323.277229 -225.012583 
L 323.86557 -226.13556 
L 324.453912 -227.258537 
L 325.042254 -228.381515 
L 325.630596 -229.504492 
L 326.218937 -230.62747 
L 326.807279 -231.750447 
L 327.395621 -232.873425 
L 327.983963 -233.996402 
L 328.572304 -235.11938 
L 329.160646 -236.242357 
L 329.748988 -237.365335 
L 330.33733 -238.488312 
L 330.925671 -239.61129 
L 331.514013 -240.734267 
L 332.102355 -241.857244 
L 332.690697 -242.980603 
L 333.279038 -244.104211 
L 333.86738 -245.227818 
L 334.455722 -246.351426 
L 335.044064 -247.475034 
L 335.632405 -248.598641 
L 336.220747 -249.722249 
L 336.809089 -250.845857 
L 337.397431 -251.969464 
L 337.985772 -253.093072 
L 338.574114 -254.216679 
L 339.162456 -255.340287 
L 339.750798 -256.463895 
L 340.339139 -257.587502 
L 340.927481 -258.71111 
L 341.515823 -259.834718 
L 342.104165 -260.958325 
L 342.692506 -259.421705 
L 343.280848 -257.831611 
L 343.86919 -257.155929 
L 344.457532 -256.480248 
L 345.045873 -255.554597 
L 345.634215 -253.751767 
L 346.222557 -251.948936 
L 346.810899 -250.146105 
L 347.39924 -248.343275 
L 347.987582 -246.540444 
L 348.575924 -244.737613 
L 349.164266 -242.934783 
L 349.752607 -241.131952 
L 350.340949 -239.329121 
L 350.929291 -237.526291 
L 351.517633 -235.72346 
L 352.105974 -233.920629 
L 352.694316 -232.117799 
L 353.282658 -230.314968 
L 353.871 -232.470856 
L 354.459341 -234.716811 
L 355.047683 -236.962766 
L 355.636025 -239.208721 
L 356.224367 -241.454676 
L 356.812708 -243.700631 
L 357.40105 -244.749279 
L 357.989392 -244.524684 
L 358.577734 -244.300088 
L 359.166075 -244.075493 
L 359.754417 -243.850897 
L 360.342759 -243.626302 
L 360.931101 -243.401706 
L 361.519442 -243.177111 
L 362.107784 -242.952515 
L 362.696126 -242.72792 
L 363.284468 -242.503324 
L 363.872809 -242.256412 
L 364.461151 -241.806717 
L 365.049493 -241.357021 
L 365.637835 -240.907326 
L 366.226176 -240.45763 
L 366.814518 -240.007935 
L 367.40286 -239.55824 
L 367.991202 -239.108544 
L 368.579543 -238.658849 
L 369.167885 -238.209153 
L 369.756227 -237.759458 
L 370.344569 -237.309763 
L 370.93291 -236.860067 
L 371.521252 -236.410372 
L 372.109594 -235.960676 
L 372.697936 -235.510981 
L 373.286277 -235.061285 
L 373.874619 -234.61159 
L 374.462961 -234.466299 
L 375.051303 -235.1416 
L 375.639644 -235.816901 
L 376.227986 -236.492203 
L 376.816328 -237.167504 
L 377.40467 -237.842806 
L 377.993011 -238.518107 
L 378.581353 -239.193409 
L 379.169695 -239.86871 
L 379.758037 -240.544012 
L 380.346378 -241.219313 
L 380.93472 -241.894615 
L 381.523062 -242.569916 
L 382.111404 -243.245217 
L 382.699745 -243.920519 
L 383.288087 -244.59582 
L 383.876429 -245.271122 
L 384.464771 -245.946423 
L 385.053112 -246.933743 
L 385.641454 -248.284346 
L 386.229796 -249.634949 
L 386.818138 -250.985551 
L 387.406479 -252.336154 
L 387.994821 -253.686757 
L 388.583163 -255.03736 
L 389.171505 -256.387963 
L 389.759846 -257.029895 
L 390.348188 -254.55379 
L 390.93653 -252.077684 
L 391.524872 -249.601579 
L 392.113213 -247.125474 
L 392.701555 -244.649368 
L 393.289897 -242.173263 
L 393.878239 -239.697158 
L 394.46658 -237.221052 
L 395.054922 -234.744947 
L 395.643264 -235.745547 
L 396.231606 -237.542311 
L 396.819947 -239.339075 
L 397.408289 -241.135839 
L 397.996631 -242.932603 
L 398.584973 -244.729367 
L 399.173314 -246.52613 
L 399.761656 -248.322894 
L 400.349998 -250.119658 
L 400.93834 -250.624286 
L 401.526681 -248.600656 
L 402.115023 -246.577027 
L 402.703365 -244.553398 
L 403.291707 -242.529768 
L 403.880048 -240.506139 
L 404.46839 -238.48251 
L 405.056732 -236.45888 
L 405.645074 -234.435251 
L 406.233415 -235.73872 
L 406.821757 -237.311771 
L 407.410099 -238.884822 
L 407.998441 -240.457872 
L 408.586782 -242.030923 
L 409.175124 -243.603974 
L 409.763466 -245.177024 
L 410.351808 -246.750075 
L 410.940149 -246.354668 
L 411.528491 -243.201489 
L 412.116833 -240.04831 
L 412.705175 -236.89513 
L 413.293516 -233.741951 
L 413.881858 -230.588772 
L 414.4702 -227.435593 
L 415.058542 -224.282414 
L 415.646883 -221.129234 
L 416.235225 -218.423727 
L 416.823567 -220.447356 
L 417.411909 -222.470986 
L 418.00025 -224.494615 
L 418.588592 -226.518244 
L 419.176934 -228.541874 
L 419.765276 -230.565503 
L 420.353617 -232.589132 
L 420.941959 -234.612762 
L 421.530301 -236.636391 
L 422.118643 -238.66002 
L 422.706984 -240.68365 
L 423.295326 -242.707279 
L 423.883668 -244.730908 
L 424.47201 -246.754538 
L 425.060351 -248.732256 
L 425.648693 -247.832359 
L 426.237035 -246.932463 
L 426.825377 -246.517561 
L 427.413718 -247.192483 
L 428.00206 -247.867405 
L 428.590402 -248.542327 
L 429.178744 -249.21725 
L 429.767085 -249.892172 
L 430.355427 -250.567094 
L 430.943769 -251.242016 
L 431.532111 -251.916938 
L 432.120452 -252.59186 
L 432.708794 -253.266782 
L 433.297136 -253.941704 
L 433.885478 -254.327128 
L 434.473819 -254.327128 
L 435.062161 -254.327128 
L 435.650503 -254.327128 
L 436.238845 -254.327128 
L 436.827186 -251.0638 
L 437.415528 -248.062232 
L 438.00387 -253.227928 
L 438.592212 -253.214778 
L 439.180553 -252.764324 
L 439.768895 -252.31387 
L 440.357237 -251.863415 
L 440.945579 -251.412961 
L 441.53392 -250.962507 
L 442.122262 -250.512053 
L 442.710604 -250.061599 
L 443.298946 -249.611145 
L 443.887287 -249.16069 
L 444.475629 -248.710236 
L 445.063971 -248.259782 
L 445.652313 -247.809328 
L 446.240654 -247.358874 
L 446.828996 -246.90842 
L 447.417338 -246.457965 
L 448.00568 -248.724555 
L 448.594021 -252.324139 
L 449.182363 -255.923723 
L 449.770705 -259.523308 
L 450.359047 -263.122892 
L 450.947388 -266.600775 
L 451.53573 -266.66198 
L 452.124072 -266.723184 
L 452.712414 -266.660607 
L 453.300755 -266.589279 
L 453.889097 -266.649601 
L 454.477439 -266.716743 
L 455.065781 -266.721771 
L 455.654122 -266.653234 
L 456.242464 -266.585766 
L 456.830806 -266.485264 
L 457.419148 -262.891737 
L 458.007489 -259.298209 
L 458.595831 -258.335839 
L 459.184173 -258.335839 
L 459.772515 -258.335839 
L 460.360856 -258.195627 
L 460.949198 -257.068857 
L 461.53754 -255.942088 
L 462.125882 -254.248801 
L 462.714223 -251.320849 
L 463.302565 -248.392897 
L 463.890907 -245.464945 
L 464.479249 -242.536993 
L 465.06759 -239.609041 
L 465.655932 -236.681088 
L 466.244274 -233.753136 
L 466.832616 -230.825184 
L 467.420957 -227.897232 
L 468.009299 -224.96928 
L 468.597641 -222.506384 
L 469.185983 -225.879099 
L 469.774324 -229.251815 
L 470.362666 -232.62453 
L 470.951008 -235.997246 
L 471.53935 -227.168541 
L 472.127691 -214.555824 
L 472.716033 -201.943108 
L 473.304375 -189.330391 
L 473.892717 -176.717674 
L 474.481059 -164.104957 
L 475.0694 -151.49224 
L 475.657742 -138.879523 
L 476.246084 -126.266806 
L 476.834426 -113.654089 
L 477.422767 -101.041372 
L 478.011109 -88.428655 
L 478.599451 -75.815938 
L 479.187793 -68.486796 
L 479.776134 -80.423832 
L 480.364476 -92.360867 
L 480.952818 -104.297903 
L 481.54116 -116.234938 
L 482.129501 -128.171974 
L 482.717843 -140.10901 
L 483.306185 -152.046045 
L 483.894527 -163.983081 
L 484.482868 -175.920117 
L 485.07121 -187.857152 
L 485.659552 -199.794188 
L 486.247894 -211.731224 
L 486.836235 -223.668259 
L 487.424577 -235.605295 
L 488.012919 -247.542331 
L 488.601261 -250.702509 
L 489.189602 -250.477029 
L 489.777944 -250.852773 
L 490.366286 -252.65459 
L 490.954628 -254.456407 
L 491.542969 -256.258223 
L 492.131311 -258.06004 
L 492.719653 -259.861857 
L 493.307995 -261.663674 
L 493.896336 -263.004505 
L 494.484678 -262.554809 
L 495.07302 -262.105114 
L 495.661362 -261.655418 
L 496.249703 -261.205723 
L 496.838045 -260.756028 
L 497.426387 -260.306332 
L 498.014729 -259.856637 
L 498.60307 -259.406941 
L 499.191412 -258.957246 
L 499.779754 -258.50755 
L 500.368096 -258.613823 
L 500.956437 -259.063519 
L 501.544779 -259.32828 
L 502.133121 -256.398681 
L 502.721463 -253.469081 
L 503.309804 -250.539481 
L 503.898146 -247.609881 
L 504.486488 -244.680281 
L 505.07483 -241.750681 
L 505.663171 -238.821082 
L 506.251513 -235.891482 
L 506.839855 -232.961882 
L 507.428197 -230.032282 
L 508.016538 -227.102682 
L 508.60488 -224.173082 
L 509.193222 -221.243483 
L 509.781564 -218.313883 
L 510.369905 -215.384283 
L 510.958247 -215.472554 
L 511.546589 -217.495048 
L 512.134931 -219.517542 
L 512.723272 -221.540036 
L 513.311614 -223.562529 
L 513.899956 -225.585023 
L 514.488298 -227.607517 
L 515.076639 -229.630011 
L 515.664981 -231.652504 
L 516.253323 -233.674998 
L 516.841665 -235.697492 
L 517.430006 -237.719986 
L 518.018348 -239.742479 
L 518.60669 -241.764973 
L 519.195032 -243.787467 
L 519.783373 -245.80996 
L 520.371715 -247.832454 
L 520.960057 -249.854948 
L 521.548399 -250.665257 
L 522.13674 -251.115205 
L 522.725082 -251.565153 
L 523.313424 -252.015101 
L 523.901766 -252.465049 
L 524.490107 -252.914997 
L 525.078449 -253.364945 
L 525.666791 -253.814893 
L 526.255133 -254.264841 
L 526.843474 -254.714789 
L 527.431816 -255.164737 
L 528.020158 -255.614685 
L 528.6085 -256.064633 
L 529.196841 -256.514581 
L 529.785183 -256.964529 
L 530.373525 -256.464028 
L 530.961867 -255.337892 
L 531.550208 -254.350216 
L 532.13855 -254.57557 
L 532.726892 -254.800923 
L 533.315234 -255.026277 
L 533.903575 -255.251631 
L 534.491917 -254.991549 
L 535.080259 -254.316247 
L 535.668601 -253.640946 
L 536.256942 -252.965644 
L 536.845284 -252.290343 
L 537.433626 -251.615042 
L 538.021968 -250.93974 
L 538.610309 -250.264439 
L 539.198651 -249.589137 
L 539.786993 -248.913836 
L 540.375335 -248.238534 
L 540.963676 -247.563233 
L 541.552018 -246.887931 
L 542.14036 -246.309707 
L 542.728702 -246.309707 
L 543.317043 -246.309707 
L 543.905385 -246.309707 
L 544.493727 -246.309707 
L 545.082069 -246.309707 
L 545.67041 -246.309707 
L 546.258752 -246.309707 
L 546.847094 -246.309707 
L 547.435436 -246.309707 
L 548.023777 -246.309707 
L 548.612119 -246.309707 
L 549.200461 -246.309707 
L 549.788803 -246.309707 
L 550.377144 -246.309707 
L 550.965486 -246.309707 
L 551.553828 -246.309707 
L 552.14217 -246.309707 
L 552.730511 -245.569755 
L 553.318853 -243.543851 
L 553.907195 -241.517946 
L 554.495537 -239.492042 
L 555.083878 -237.466138 
L 555.67222 -235.440233 
L 556.260562 -233.414329 
L 556.848904 -231.388425 
L 557.437245 -229.36252 
L 558.025587 -227.336616 
L 558.613929 -225.310711 
L 559.202271 -223.284807 
L 559.790612 -221.258903 
L 560.378954 -219.232998 
L 560.967296 -217.207094 
L 561.555638 -215.18119 
L 562.143979 -213.155285 
L 562.732321 -211.129381 
L 563.320663 -211.606679 
L 563.909005 -214.077229 
L 564.497346 -216.547779 
L 565.085688 -219.01833 
L 565.67403 -221.48888 
L 566.262372 -223.959431 
L 566.850713 -226.429981 
L 567.439055 -228.900531 
L 568.027397 -231.371082 
L 568.615739 -233.841632 
L 569.20408 -236.312183 
L 569.792422 -238.782733 
L 570.380764 -241.253283 
L 570.969106 -243.723834 
L 571.557447 -246.194384 
L 572.145789 -248.664935 
L 572.734131 -251.135485 
L 573.322473 -253.606035 
L 573.910814 -254.963295 
L 574.499156 -255.861677 
L 575.087498 -256.760059 
L 575.67584 -257.658441 
L 576.264181 -258.556823 
L 576.852523 -259.455205 
L 577.440865 -260.353587 
L 578.029207 -261.251969 
L 578.617548 -262.15035 
L 579.20589 -263.048732 
L 579.794232 -263.947114 
L 580.382574 -264.845496 
L 580.970915 -264.604012 
L 581.559257 -264.15305 
L 582.147599 -263.702089 
L 582.735941 -263.251127 
L 583.324282 -262.800166 
L 583.912624 -262.349205 
L 584.500966 -261.899995 
L 585.089308 -261.450804 
L 585.677649 -261.001613 
L 586.265991 -260.552422 
L 586.854333 -258.349487 
L 587.442675 -255.877551 
L 588.031016 -253.405614 
L 588.619358 -250.933677 
L 589.2077 -248.46174 
L 589.796042 -245.989803 
L 590.384383 -243.517867 
L 590.972725 -241.04593 
L 591.561067 -238.573993 
L 592.149409 -236.102056 
L 592.73775 -233.630119 
L 593.326092 -231.158183 
L 593.914434 -228.686246 
L 594.502776 -226.228427 
L 595.091117 -224.429645 
L 595.679459 -222.630864 
L 596.267801 -220.832082 
L 596.856143 -219.0333 
L 597.444484 -217.234519 
L 598.032826 -215.435737 
L 598.621168 -213.636956 
L 599.20951 -211.838174 
L 599.797851 -210.039392 
L 600.386193 -208.240611 
L 600.974535 -206.441829 
L 601.562877 -204.643047 
L 602.151218 -202.844266 
L 602.73956 -201.045484 
L 603.327902 -199.246702 
L 603.916244 -197.447921 
L 604.504585 -195.649139 
L 605.092927 -195.367869 
L 605.681269 -201.455849 
L 606.269611 -207.543828 
L 606.857952 -213.631808 
L 607.446294 -219.719787 
L 608.034636 -225.807767 
L 608.622978 -231.895746 
L 609.211319 -237.983726 
L 609.799661 -244.071705 
L 610.388003 -250.159685 
L 610.976345 -251.544994 
L 611.564686 -249.74823 
L 612.153028 -247.951467 
L 612.74137 -246.154703 
L 613.329712 -244.357939 
L 613.918053 -242.561175 
L 614.506395 -240.764411 
L 615.094737 -238.967647 
L 615.683079 -240.542662 
L 616.27142 -244.148323 
L 616.859762 -247.753985 
L 617.448104 -251.359646 
L 618.036446 -254.965307 
L 618.624787 -255.265109 
L 619.213129 -253.235783 
L 619.801471 -251.206456 
L 620.389813 -249.17713 
L 620.978154 -247.147803 
L 621.566496 -245.118477 
L 622.154838 -243.08915 
L 622.74318 -241.059824 
L 623.331521 -239.030497 
L 623.919863 -237.001171 
L 624.508205 -234.971844 
L 625.096547 -232.942518 
L 625.684888 -230.913191 
L 626.27323 -231.507143 
L 626.861572 -233.304915 
L 627.449914 -235.102688 
L 628.038255 -236.90046 
L 628.626597 -238.698232 
L 629.214939 -240.496004 
L 629.803281 -242.293777 
L 630.391622 -244.091549 
L 630.979964 -245.889321 
L 631.568306 -246.665757 
L 632.156648 -244.191043 
L 632.744989 -241.716329 
L 633.333331 -239.241614 
L 633.921673 -236.7669 
L 634.510015 -234.292186 
L 635.098356 -231.817471 
L 635.686698 -229.342757 
L 636.27504 -226.868043 
L 636.863382 -230.347727 
L 637.451723 -235.741044 
L 638.040065 -241.134361 
L 638.628407 -246.527677 
L 639.216749 -251.920994 
L 639.80509 -257.314311 
L 640.393432 -261.830133 
L 640.981774 -258.908754 
L 641.570116 -255.987374 
L 642.158457 -253.065994 
L 642.746799 -250.144614 
L 643.335141 -247.223234 
L 643.923483 -244.301854 
L 644.511824 -241.380474 
L 645.100166 -238.459095 
L 645.688508 -235.537715 
L 646.27685 -232.616335 
L 646.865191 -230.587648 
L 647.453533 -232.163352 
L 648.041875 -233.739055 
L 648.630217 -235.314758 
L 649.218559 -236.890462 
L 649.8069 -238.466165 
L 650.395242 -240.041869 
L 650.983584 -241.617572 
L 651.571926 -243.193275 
L 652.160267 -244.768979 
L 652.748609 -246.344682 
L 653.336951 -247.920386 
L 653.925293 -249.496089 
L 654.513634 -249.900198 
L 655.101976 -244.28216 
L 655.690318 -238.664122 
L 656.27866 -233.046084 
L 656.867001 -227.428045 
L 657.455343 -223.097261 
L 658.043685 -233.642125 
L 658.632027 -243.300909 
L 659.220368 -243.751363 
L 659.80871 -244.201817 
L 660.397052 -244.652271 
L 660.985394 -245.102725 
L 661.573735 -245.55318 
L 662.162077 -246.003634 
L 662.750419 -246.454088 
L 663.338761 -246.904542 
L 663.927102 -247.354996 
L 664.515444 -247.805451 
L 665.103786 -248.255905 
L 665.692128 -248.706359 
L 666.280469 -249.156813 
L 666.868811 -249.607267 
L 667.457153 -250.057721 
L 668.045495 -250.223539 
L 668.633836 -249.998311 
L 669.222178 -249.773084 
L 669.81052 -249.547857 
L 670.398862 -249.32263 
L 670.987203 -249.097403 
L 671.575545 -248.017026 
L 672.163887 -242.167701 
L 672.752229 -236.318377 
L 673.34057 -230.469052 
L 673.928912 -224.619727 
L 674.517254 -218.770403 
L 675.105596 -212.921078 
L 675.693937 -207.071754 
L 676.282279 -201.222429 
L 676.870621 -195.373104 
L 677.458963 -189.52378 
L 678.047304 -183.674455 
L 678.635646 -182.170333 
L 679.223988 -182.170333 
L 679.81233 -182.170333 
L 679.81233 -290.405526 
L 679.81233 -290.405526 
L 679.223988 -290.405526 
L 678.635646 -290.405526 
L 678.047304 -290.405526 
L 677.458963 -290.405526 
L 676.870621 -294.319567 
L 676.282279 -299.947079 
L 675.693937 -305.574591 
L 675.105596 -311.202103 
L 674.517254 -316.829615 
L 673.928912 -322.457127 
L 673.34057 -328.08464 
L 672.752229 -333.712152 
L 672.163887 -339.339664 
L 671.575545 -344.967176 
L 670.987203 -350.594688 
L 670.398862 -356.2222 
L 669.81052 -361.849712 
L 669.222178 -367.477224 
L 668.633836 -373.104736 
L 668.045495 -378.732249 
L 667.457153 -384.359761 
L 666.868811 -389.987273 
L 666.280469 -381.27022 
L 665.692128 -370.725356 
L 665.103786 -360.180492 
L 664.515444 -349.635628 
L 663.927102 -339.090764 
L 663.338761 -328.5459 
L 662.750419 -318.001036 
L 662.162077 -307.456172 
L 661.573735 -296.911308 
L 660.985394 -286.366444 
L 660.397052 -280.028481 
L 659.80871 -279.14762 
L 659.220368 -279.175378 
L 658.632027 -279.203136 
L 658.043685 -279.230895 
L 657.455343 -279.258653 
L 656.867001 -279.286402 
L 656.27866 -279.314147 
L 655.690318 -279.341892 
L 655.101976 -279.369636 
L 654.513634 -279.397381 
L 653.925293 -279.425126 
L 653.336951 -279.45287 
L 652.748609 -279.480615 
L 652.160267 -279.50836 
L 651.571926 -279.536104 
L 650.983584 -283.608427 
L 650.395242 -289.226465 
L 649.8069 -294.844504 
L 649.218559 -300.462542 
L 648.630217 -306.08058 
L 648.041875 -311.698618 
L 647.453533 -317.316656 
L 646.865191 -322.034111 
L 646.27685 -316.640794 
L 645.688508 -311.247477 
L 645.100166 -305.854161 
L 644.511824 -300.460844 
L 643.923483 -299.661787 
L 643.335141 -303.25935 
L 642.746799 -306.856913 
L 642.158457 -310.454476 
L 641.570116 -314.05204 
L 640.981774 -317.649603 
L 640.393432 -321.247166 
L 639.80509 -324.84473 
L 639.216749 -328.442293 
L 638.628407 -332.039856 
L 638.040065 -335.637419 
L 637.451723 -339.234983 
L 636.863382 -342.832546 
L 636.27504 -346.430109 
L 635.686698 -344.118389 
L 635.098356 -341.642284 
L 634.510015 -339.166178 
L 633.921673 -336.690073 
L 633.333331 -334.213968 
L 632.744989 -331.737862 
L 632.156648 -329.261757 
L 631.568306 -326.785652 
L 630.979964 -324.309546 
L 630.391622 -321.833441 
L 629.803281 -319.357336 
L 629.214939 -316.88123 
L 628.626597 -314.405125 
L 628.038255 -311.92902 
L 627.449914 -309.452914 
L 626.861572 -306.976809 
L 626.27323 -305.25971 
L 625.684888 -306.160763 
L 625.096547 -303.912286 
L 624.508205 -301.663809 
L 623.919863 -299.415332 
L 623.331521 -297.166855 
L 622.74318 -294.918378 
L 622.154838 -292.669901 
L 621.566496 -290.421424 
L 620.978154 -288.172947 
L 620.389813 -287.305375 
L 619.801471 -289.103147 
L 619.213129 -290.90092 
L 618.624787 -292.698692 
L 618.036446 -294.496464 
L 617.448104 -296.294236 
L 616.859762 -298.092008 
L 616.27142 -299.889781 
L 615.683079 -301.687553 
L 615.094737 -298.86352 
L 614.506395 -292.775541 
L 613.918053 -286.687561 
L 613.329712 -280.599582 
L 612.74137 -279.482196 
L 612.153028 -279.537875 
L 611.564686 -279.593555 
L 610.976345 -279.649235 
L 610.388003 -279.704915 
L 609.799661 -279.760594 
L 609.211319 -279.816274 
L 608.622978 -279.818944 
L 608.034636 -279.791104 
L 607.446294 -280.330034 
L 606.857952 -282.229861 
L 606.269611 -284.129688 
L 605.681269 -286.029516 
L 605.092927 -285.73424 
L 604.504585 -282.844036 
L 603.916244 -279.953833 
L 603.327902 -279.568386 
L 602.73956 -279.567765 
L 602.151218 -279.595578 
L 601.562877 -279.62339 
L 600.974535 -279.651203 
L 600.386193 -279.679016 
L 599.797851 -279.706828 
L 599.20951 -279.734641 
L 598.621168 -279.762453 
L 598.032826 -279.790266 
L 597.444484 -279.818079 
L 596.856143 -279.836614 
L 596.267801 -279.836614 
L 595.679459 -279.836614 
L 595.091117 -279.836614 
L 594.502776 -279.836614 
L 593.914434 -279.836614 
L 593.326092 -279.836614 
L 592.73775 -279.836614 
L 592.149409 -279.836614 
L 591.561067 -279.836614 
L 590.972725 -279.839556 
L 590.384383 -279.895208 
L 589.796042 -279.950861 
L 589.2077 -280.006513 
L 588.619358 -280.062166 
L 588.031016 -280.117818 
L 587.442675 -280.17347 
L 586.854333 -280.600095 
L 586.265991 -283.298267 
L 585.677649 -285.99644 
L 585.089308 -288.694612 
L 584.500966 -291.392784 
L 583.912624 -294.090957 
L 583.324282 -294.414237 
L 582.735941 -294.414237 
L 582.147599 -294.414237 
L 581.559257 -294.414237 
L 580.970915 -294.414237 
L 580.382574 -294.414237 
L 579.794232 -294.414237 
L 579.20589 -294.414237 
L 578.617548 -294.414237 
L 578.029207 -294.414237 
L 577.440865 -294.414237 
L 576.852523 -294.414237 
L 576.264181 -294.414237 
L 575.67584 -294.414237 
L 575.087498 -294.414237 
L 574.499156 -294.414237 
L 573.910814 -294.414237 
L 573.322473 -294.352299 
L 572.734131 -293.676618 
L 572.145789 -293.000937 
L 571.557447 -292.325255 
L 570.969106 -291.649574 
L 570.380764 -290.973893 
L 569.792422 -290.298212 
L 569.20408 -289.62253 
L 568.615739 -288.946849 
L 568.027397 -288.271168 
L 567.439055 -287.595487 
L 566.850713 -286.919805 
L 566.262372 -286.244124 
L 565.67403 -287.799273 
L 565.085688 -290.051544 
L 564.497346 -292.303815 
L 563.909005 -294.556086 
L 563.320663 -296.808357 
L 562.732321 -298.996537 
L 562.143979 -301.022442 
L 561.555638 -303.048346 
L 560.967296 -305.07425 
L 560.378954 -307.100155 
L 559.790612 -309.126059 
L 559.202271 -311.151963 
L 558.613929 -313.177868 
L 558.025587 -315.203772 
L 557.437245 -317.229676 
L 556.848904 -319.255581 
L 556.260562 -321.281485 
L 555.67222 -323.307389 
L 555.083878 -325.333294 
L 554.495537 -327.359198 
L 553.907195 -329.385103 
L 553.318853 -331.411007 
L 552.730511 -333.436911 
L 552.14217 -332.46929 
L 551.553828 -328.187568 
L 550.965486 -323.905845 
L 550.377144 -319.624122 
L 549.788803 -315.342399 
L 549.200461 -311.060676 
L 548.612119 -306.778953 
L 548.023777 -302.497231 
L 547.435436 -298.215508 
L 546.847094 -293.933785 
L 546.258752 -289.652062 
L 545.67041 -285.370339 
L 545.082069 -281.088616 
L 544.493727 -280.000013 
L 543.905385 -279.944388 
L 543.317043 -279.888763 
L 542.728702 -279.833137 
L 542.14036 -279.777512 
L 541.552018 -279.721887 
L 540.963676 -279.666262 
L 540.375335 -279.669492 
L 539.786993 -279.697332 
L 539.198651 -279.725172 
L 538.610309 -279.753012 
L 538.021968 -279.780852 
L 537.433626 -279.808691 
L 536.845284 -279.836531 
L 536.256942 -279.808898 
L 535.668601 -279.781099 
L 535.080259 -279.7533 
L 534.491917 -279.725501 
L 533.903575 -279.697702 
L 533.315234 -279.669903 
L 532.726892 -279.642104 
L 532.13855 -279.614305 
L 531.550208 -279.586506 
L 530.961867 -279.558707 
L 530.373525 -279.569212 
L 529.785183 -279.703389 
L 529.196841 -280.154097 
L 528.6085 -280.604804 
L 528.020158 -281.055512 
L 527.431816 -281.50622 
L 526.843474 -281.956927 
L 526.255133 -282.407635 
L 525.666791 -282.858343 
L 525.078449 -283.30905 
L 524.490107 -283.759758 
L 523.901766 -284.210466 
L 523.313424 -284.661173 
L 522.725082 -285.111881 
L 522.13674 -285.562589 
L 521.548399 -286.013296 
L 520.960057 -286.195814 
L 520.371715 -284.847485 
L 519.783373 -283.499156 
L 519.195032 -282.150827 
L 518.60669 -280.802498 
L 518.018348 -279.587866 
L 517.430006 -279.615688 
L 516.841665 -279.643528 
L 516.253323 -279.671368 
L 515.664981 -279.699208 
L 515.076639 -279.727048 
L 514.488298 -279.754888 
L 513.899956 -279.782728 
L 513.311614 -279.810567 
L 512.723272 -279.836614 
L 512.134931 -279.836614 
L 511.546589 -279.836614 
L 510.958247 -279.836614 
L 510.369905 -279.836614 
L 509.781564 -279.836614 
L 509.193222 -279.919886 
L 508.60488 -280.031082 
L 508.016538 -280.142278 
L 507.428197 -280.253474 
L 506.839855 -280.36467 
L 506.251513 -280.475866 
L 505.663171 -280.587062 
L 505.07483 -280.698258 
L 504.486488 -280.809454 
L 503.898146 -280.92065 
L 503.309804 -281.031846 
L 502.721463 -281.143042 
L 502.133121 -281.254238 
L 501.544779 -281.365434 
L 500.956437 -281.47663 
L 500.368096 -281.827564 
L 499.779754 -282.293299 
L 499.191412 -282.068577 
L 498.60307 -281.843856 
L 498.014729 -281.619134 
L 497.426387 -281.394413 
L 496.838045 -281.169691 
L 496.249703 -281.189529 
L 495.661362 -283.436745 
L 495.07302 -285.68396 
L 494.484678 -287.931175 
L 493.896336 -290.178391 
L 493.307995 -292.425606 
L 492.719653 -294.672821 
L 492.131311 -296.920036 
L 491.542969 -299.167252 
L 490.954628 -301.414467 
L 490.366286 -303.661682 
L 489.777944 -305.908898 
L 489.189602 -303.862414 
L 488.601261 -300.485907 
L 488.012919 -297.1094 
L 487.424577 -293.732893 
L 486.836235 -290.356385 
L 486.247894 -286.979878 
L 485.659552 -283.603371 
L 485.07121 -280.226864 
L 484.482868 -279.090494 
L 483.894527 -279.14601 
L 483.306185 -279.201527 
L 482.717843 -279.257043 
L 482.129501 -279.31256 
L 481.54116 -279.368076 
L 480.952818 -279.464431 
L 480.364476 -280.36534 
L 479.776134 -281.266248 
L 479.187793 -282.167156 
L 478.599451 -279.842548 
L 478.011109 -279.701175 
L 477.422767 -279.756692 
L 476.834426 -279.812208 
L 476.246084 -279.925592 
L 475.657742 -280.064519 
L 475.0694 -280.203446 
L 474.481059 -280.342373 
L 473.892717 -280.4813 
L 473.304375 -280.620227 
L 472.716033 -280.759154 
L 472.127691 -280.898081 
L 471.53935 -281.037008 
L 470.951008 -281.175935 
L 470.362666 -281.314862 
L 469.774324 -281.453789 
L 469.185983 -281.592716 
L 468.597641 -290.232126 
L 468.009299 -291.513686 
L 467.420957 -292.637294 
L 466.832616 -293.760902 
L 466.244274 -294.884509 
L 465.655932 -296.008117 
L 465.06759 -297.131724 
L 464.479249 -298.255332 
L 463.890907 -299.37894 
L 463.302565 -300.502547 
L 462.714223 -301.626155 
L 462.125882 -302.749763 
L 461.53754 -303.87337 
L 460.949198 -304.996978 
L 460.360856 -306.120586 
L 459.772515 -307.244193 
L 459.184173 -308.367801 
L 458.595831 -309.491408 
L 458.007489 -309.917489 
L 457.419148 -306.317905 
L 456.830806 -302.71832 
L 456.242464 -299.118736 
L 455.654122 -295.519152 
L 455.065781 -291.919567 
L 454.477439 -289.365457 
L 453.889097 -293.642366 
L 453.300755 -297.919275 
L 452.712414 -302.196185 
L 452.124072 -306.473094 
L 451.53573 -310.750003 
L 450.947388 -315.026912 
L 450.359047 -319.303821 
L 449.770705 -323.580731 
L 449.182363 -327.85764 
L 448.594021 -332.134549 
L 448.00568 -336.411458 
L 447.417338 -335.879069 
L 446.828996 -330.713373 
L 446.240654 -325.547676 
L 445.652313 -320.38198 
L 445.063971 -315.216284 
L 444.475629 -310.050587 
L 443.887287 -304.884891 
L 443.298946 -299.719195 
L 442.710604 -294.553498 
L 442.122262 -289.387802 
L 441.53392 -284.991391 
L 440.945579 -281.393828 
L 440.357237 -280.39912 
L 439.768895 -280.371321 
L 439.180553 -280.343522 
L 438.592212 -280.315723 
L 438.00387 -281.381678 
L 437.415528 -280.260125 
L 436.827186 -280.232326 
L 436.238845 -280.204527 
L 435.650503 -280.176728 
L 435.062161 -280.148929 
L 434.473819 -280.12113 
L 433.885478 -287.039432 
L 433.297136 -294.234559 
L 432.708794 -301.429685 
L 432.120452 -308.624812 
L 431.532111 -315.819938 
L 430.943769 -323.015065 
L 430.355427 -330.210192 
L 429.767085 -337.405318 
L 429.178744 -344.600445 
L 428.590402 -351.795571 
L 428.00206 -358.990698 
L 427.413718 -366.185824 
L 426.825377 -373.380951 
L 426.237035 -370.659076 
L 425.648693 -365.937274 
L 425.060351 -361.215472 
L 424.47201 -356.493671 
L 423.883668 -351.771869 
L 423.295326 -347.050067 
L 422.706984 -342.328265 
L 422.118643 -337.606463 
L 421.530301 -332.884662 
L 420.941959 -328.16286 
L 420.353617 -323.441058 
L 419.765276 -318.719256 
L 419.176934 -313.997454 
L 418.588592 -309.275653 
L 418.00025 -304.553851 
L 417.411909 -299.832049 
L 416.823567 -295.110247 
L 416.235225 -290.402273 
L 415.646883 -289.502882 
L 415.058542 -288.603491 
L 414.4702 -287.7041 
L 413.881858 -286.804709 
L 413.293516 -285.905319 
L 412.705175 -285.005928 
L 412.116833 -284.106537 
L 411.528491 -283.207146 
L 410.940149 -282.307755 
L 410.351808 -281.408364 
L 409.763466 -280.856106 
L 409.175124 -280.745018 
L 408.586782 -280.633931 
L 407.998441 -280.522844 
L 407.410099 -280.411756 
L 406.821757 -280.300669 
L 406.233415 -280.189582 
L 405.645074 -280.078495 
L 405.056732 -279.967407 
L 404.46839 -279.85632 
L 403.880048 -279.768112 
L 403.291707 -279.684837 
L 402.703365 -279.601562 
L 402.115023 -279.687595 
L 401.526681 -279.798574 
L 400.93834 -279.909553 
L 400.349998 -280.020532 
L 399.761656 -280.13151 
L 399.173314 -280.242489 
L 398.584973 -280.353468 
L 397.996631 -280.464447 
L 397.408289 -280.575426 
L 396.819947 -280.686404 
L 396.231606 -280.797383 
L 395.643264 -280.908362 
L 395.054922 -281.019341 
L 394.46658 -281.130319 
L 393.878239 -281.241298 
L 393.289897 -281.352277 
L 392.701555 -281.463256 
L 392.113213 -283.374536 
L 391.524872 -285.854824 
L 390.93653 -288.335112 
L 390.348188 -290.8154 
L 389.759846 -293.295688 
L 389.171505 -295.775976 
L 388.583163 -298.256264 
L 387.994821 -300.736552 
L 387.406479 -303.21684 
L 386.818138 -305.697128 
L 386.229796 -308.177416 
L 385.641454 -310.657704 
L 385.053112 -313.137991 
L 384.464771 -312.984125 
L 383.876429 -309.834489 
L 383.288087 -306.684853 
L 382.699745 -303.535216 
L 382.111404 -300.38558 
L 381.523062 -297.235944 
L 380.93472 -294.086307 
L 380.346378 -290.936671 
L 379.758037 -287.787035 
L 379.169695 -284.637398 
L 378.581353 -281.487762 
L 377.993011 -280.405418 
L 377.40467 -280.405418 
L 376.816328 -280.405418 
L 376.227986 -280.405418 
L 375.639644 -280.405418 
L 375.051303 -280.405418 
L 374.462961 -280.405418 
L 373.874619 -280.405418 
L 373.286277 -280.405418 
L 372.697936 -280.405418 
L 372.109594 -280.405418 
L 371.521252 -280.405418 
L 370.93291 -280.405418 
L 370.344569 -280.405418 
L 369.756227 -280.405418 
L 369.167885 -280.405418 
L 368.579543 -280.405418 
L 367.991202 -280.378054 
L 367.40286 -280.29478 
L 366.814518 -280.211505 
L 366.226176 -280.12823 
L 365.637835 -280.044955 
L 365.049493 -279.985565 
L 364.461151 -280.01331 
L 363.872809 -281.715076 
L 363.284468 -281.881439 
L 362.696126 -281.206517 
L 362.107784 -280.531595 
L 361.519442 -280.152033 
L 360.931101 -280.179778 
L 360.342759 -280.207523 
L 359.754417 -280.235267 
L 359.166075 -280.263012 
L 358.577734 -280.290757 
L 357.989392 -280.318502 
L 357.40105 -280.346246 
L 356.812708 -280.373991 
L 356.224367 -280.401736 
L 355.636025 -280.381272 
L 355.047683 -281.683685 
L 354.459341 -283.261162 
L 353.871 -284.838639 
L 353.282658 -286.385805 
L 352.694316 -285.485909 
L 352.105974 -284.586013 
L 351.517633 -283.686117 
L 350.929291 -282.786221 
L 350.340949 -281.886325 
L 349.752607 -280.986428 
L 349.164266 -280.086532 
L 348.575924 -280.047194 
L 347.987582 -280.019354 
L 347.39924 -279.991514 
L 346.810899 -279.963675 
L 346.222557 -279.935835 
L 345.634215 -279.907995 
L 345.045873 -279.880155 
L 344.457532 -280.4287 
L 343.86919 -281.102864 
L 343.280848 -281.777029 
L 342.692506 -282.367016 
L 342.104165 -282.141662 
L 341.515823 -281.916308 
L 340.927481 -281.690954 
L 340.339139 -281.677257 
L 339.750798 -284.37543 
L 339.162456 -287.073602 
L 338.574114 -289.771775 
L 337.985772 -293.656223 
L 337.397431 -297.935537 
L 336.809089 -302.214852 
L 336.220747 -306.494167 
L 335.632405 -310.773481 
L 335.044064 -315.052796 
L 334.455722 -319.332111 
L 333.86738 -323.611425 
L 333.279038 -327.89074 
L 332.690697 -332.170055 
L 332.102355 -332.454248 
L 331.514013 -327.957294 
L 330.925671 -323.46034 
L 330.33733 -318.963386 
L 329.748988 -314.466432 
L 329.160646 -309.969478 
L 328.572304 -307.023457 
L 327.983963 -305.225685 
L 327.395621 -303.427913 
L 326.807279 -301.630141 
L 326.218937 -299.832369 
L 325.630596 -298.034596 
L 325.042254 -296.236824 
L 324.453912 -294.439052 
L 323.86557 -292.64128 
L 323.277229 -290.843507 
L 322.688887 -289.045735 
L 322.100545 -287.247963 
L 321.512203 -286.041831 
L 320.923862 -285.367666 
L 320.33552 -284.693502 
L 319.747178 -284.019337 
L 319.158836 -283.345173 
L 318.570495 -282.671008 
L 317.982153 -281.996844 
L 317.393811 -281.322679 
L 316.805469 -280.648514 
L 316.217128 -280.720116 
L 315.628786 -280.859179 
L 315.040444 -280.998242 
L 314.452102 -281.137305 
L 313.863761 -281.276368 
L 313.275419 -281.415431 
L 312.687077 -281.554494 
L 312.098735 -281.95238 
L 311.510394 -285.560072 
L 310.922052 -284.325601 
L 310.33371 -282.110746 
L 309.745368 -282.249809 
L 309.157027 -282.388872 
L 308.568685 -282.527935 
L 307.980343 -282.666998 
L 307.392001 -282.580485 
L 306.80366 -282.469452 
L 306.215318 -282.358419 
L 305.626976 -282.247386 
L 305.038634 -282.136353 
L 304.450293 -282.02532 
L 303.861951 -281.914287 
L 303.273609 -281.803254 
L 302.685267 -281.692221 
L 302.096926 -281.581188 
L 301.508584 -281.470154 
L 300.920242 -281.359121 
L 300.3319 -281.248088 
L 299.743559 -281.137055 
L 299.155217 -281.026022 
L 298.566875 -280.914989 
L 297.978533 -280.803956 
L 297.390191 -280.705085 
L 296.80185 -280.816335 
L 296.213508 -280.927586 
L 295.625166 -280.990391 
L 295.036824 -281.018231 
L 294.448483 -281.04607 
L 293.860141 -281.07391 
L 293.271799 -281.10175 
L 292.683457 -281.12959 
L 292.095116 -282.073128 
L 291.506774 -284.99779 
L 290.918432 -287.922453 
L 290.33009 -289.998363 
L 289.741749 -287.301705 
L 289.153407 -284.605046 
L 288.565065 -281.908388 
L 287.976723 -281.352309 
L 287.388382 -281.380149 
L 286.80004 -281.407989 
L 286.211698 -281.435828 
L 285.623356 -281.463668 
L 285.035015 -285.369443 
L 284.446673 -290.096553 
L 283.858331 -294.823663 
L 283.269989 -299.550773 
L 282.681648 -304.277884 
L 282.093306 -309.004994 
L 281.504964 -313.732104 
L 280.916622 -318.459214 
L 280.328281 -323.186324 
L 279.739939 -324.513161 
L 279.151597 -317.996236 
L 278.563255 -311.479312 
L 277.974914 -304.962388 
L 277.386572 -298.445464 
L 276.79823 -291.928539 
L 276.209888 -285.411615 
L 275.621547 -280.307747 
L 275.033205 -280.502531 
L 274.444863 -280.697314 
L 273.856521 -280.892098 
L 273.26818 -281.086881 
L 272.679838 -282.388642 
L 272.091496 -286.655957 
L 271.503154 -290.923271 
L 270.914813 -295.190585 
L 270.326471 -299.4579 
L 269.738129 -303.725214 
L 269.149787 -305.622985 
L 268.561446 -303.37577 
L 267.973104 -301.128555 
L 267.384762 -298.88134 
L 266.79642 -296.634124 
L 266.208079 -294.386909 
L 265.619737 -292.139694 
L 265.031395 -289.892478 
L 264.443053 -287.645263 
L 263.854712 -285.398048 
L 263.26637 -283.150833 
L 262.678028 -280.903617 
L 262.089686 -279.614269 
L 261.501345 -279.669948 
L 260.913003 -280.347579 
L 260.324661 -283.267321 
L 259.736319 -286.187062 
L 259.147978 -289.106803 
L 258.559636 -288.909201 
L 257.971294 -286.214055 
L 257.382952 -283.518909 
L 256.794611 -280.823763 
L 256.206269 -279.836614 
L 255.617927 -279.836614 
L 255.029585 -279.836614 
L 254.441244 -279.836614 
L 253.852902 -279.836614 
L 253.26456 -279.836614 
L 252.676218 -279.836614 
L 252.087877 -279.836614 
L 251.499535 -279.836614 
L 250.911193 -279.836614 
L 250.322851 -279.836614 
L 249.73451 -279.836614 
L 249.146168 -279.836614 
L 248.557826 -279.836614 
L 247.969484 -279.836614 
L 247.381143 -279.820315 
L 246.792801 -279.792476 
L 246.204459 -279.764636 
L 245.616117 -279.736796 
L 245.027776 -279.708956 
L 244.439434 -279.681116 
L 243.851092 -279.653276 
L 243.26275 -279.625436 
L 242.674409 -279.673073 
L 242.086067 -279.784324 
L 241.497725 -279.895574 
L 240.909383 -280.006825 
L 240.321042 -280.118075 
L 239.7327 -280.229325 
L 239.144358 -280.340576 
L 238.556016 -280.451826 
L 237.967675 -280.563077 
L 237.379333 -280.674327 
L 236.790991 -280.785577 
L 236.202649 -280.896828 
L 235.614308 -280.957326 
L 235.025966 -280.901809 
L 234.437624 -280.846293 
L 233.849282 -280.790776 
L 233.260941 -280.73526 
L 232.672599 -280.679743 
L 232.084257 -280.624227 
L 231.495915 -280.56871 
L 230.907574 -280.513194 
L 230.319232 -280.457677 
L 229.73089 -280.402161 
L 229.142548 -280.346644 
L 228.554207 -280.291128 
L 227.965865 -280.235611 
L 227.377523 -280.180095 
L 226.789181 -280.124578 
L 226.20084 -280.069062 
L 225.612498 -280.013545 
L 225.024156 -279.958029 
L 224.435814 -279.902512 
L 223.847473 -279.846996 
L 223.259131 -279.881793 
L 222.670789 -279.937364 
L 222.082447 -279.992935 
L 221.494106 -280.048505 
L 220.905764 -280.104076 
L 220.317422 -280.159647 
L 219.72908 -280.215218 
L 219.140739 -280.270789 
L 218.552397 -280.326359 
L 217.964055 -280.38193 
L 217.375713 -280.437501 
L 216.787372 -280.493072 
L 216.19903 -280.548643 
L 215.610688 -280.604213 
L 215.022346 -280.659784 
L 214.434005 -280.715355 
L 213.845663 -280.770926 
L 213.257321 -280.826497 
L 212.668979 -280.882067 
L 212.080638 -280.937638 
L 211.492296 -280.964723 
L 210.903954 -280.936924 
L 210.315612 -280.909125 
L 209.727271 -280.881326 
L 209.138929 -280.853527 
L 208.550587 -280.825728 
L 207.962245 -280.797929 
L 207.373904 -280.77013 
L 206.785562 -280.742331 
L 206.19722 -280.714532 
L 205.608878 -280.686733 
L 205.020537 -280.658934 
L 204.432195 -280.631135 
L 203.843853 -280.603336 
L 203.255511 -280.575537 
L 202.66717 -280.547738 
L 202.078828 -280.519939 
L 201.490486 -280.49214 
L 200.902144 -280.464341 
L 200.313803 -280.436542 
L 199.725461 -280.408743 
L 199.137119 -280.331996 
L 198.548777 -280.248599 
L 197.960436 -280.165202 
L 197.372094 -280.081805 
L 196.783752 -279.998408 
L 196.19541 -279.915011 
L 195.607069 -279.831614 
L 195.018727 -279.748217 
L 194.430385 -279.66482 
L 193.842043 -279.581423 
L 193.253702 -279.605459 
L 192.66536 -279.688693 
L 192.077018 -279.771927 
L 191.488676 -279.855162 
L 190.900335 -279.938396 
L 190.311993 -280.02163 
L 189.723651 -280.104864 
L 189.135309 -280.188098 
L 188.546968 -280.271332 
L 187.958626 -280.354566 
L 187.370284 -280.405418 
L 186.781942 -280.405418 
L 186.193601 -280.405418 
L 185.605259 -280.405418 
L 185.016917 -280.405418 
L 184.428575 -280.405418 
L 183.840234 -280.405418 
L 183.251892 -280.405418 
L 182.66355 -280.405418 
L 182.075208 -280.405418 
L 181.486867 -280.405418 
L 180.898525 -280.405418 
L 180.310183 -280.405418 
L 179.721841 -280.405418 
L 179.1335 -280.405418 
L 178.545158 -280.405418 
L 177.956816 -280.405418 
L 177.368474 -280.405418 
L 176.780133 -280.405418 
L 176.191791 -280.405418 
L 175.603449 -280.405418 
L 175.015107 -280.380196 
L 174.426766 -280.352411 
L 173.838424 -280.324625 
L 173.250082 -280.29684 
L 172.66174 -280.269054 
L 172.073399 -280.241269 
L 171.485057 -280.213484 
L 170.896715 -280.185698 
L 170.308373 -280.157913 
L 169.720032 -280.130127 
L 169.13169 -280.102342 
L 168.543348 -280.074557 
L 167.955006 -280.046771 
L 167.366665 -280.018986 
L 166.778323 -279.9912 
L 166.189981 -279.963415 
L 165.601639 -279.93563 
L 165.013298 -279.907844 
L 164.424956 -279.880059 
L 163.836614 -279.852273 
L 163.248272 -279.824488 
L 162.659931 -279.796703 
L 162.071589 -279.768917 
L 161.483247 -279.741132 
L 160.894905 -279.713346 
L 160.306564 -279.685561 
L 159.718222 -279.657776 
L 159.12988 -279.62999 
L 158.541538 -279.602205 
L 157.953197 -279.574419 
L 157.364855 -279.546634 
L 156.776513 -279.518849 
L 156.188171 -279.491063 
L 155.59983 -279.463278 
L 155.011488 -279.435492 
L 154.423146 -279.407707 
L 153.834804 -279.379922 
L 153.246463 -279.352136 
L 152.658121 -279.324351 
L 152.069779 -279.296565 
L 151.481437 -279.26878 
L 150.893096 -279.160704 
L 150.304754 -279.049725 
L 149.716412 -278.938746 
L 149.12807 -278.827768 
L 148.539729 -278.716789 
L 147.951387 -278.60581 
L 147.363045 -278.494831 
L 146.774703 -278.383852 
L 146.186362 -278.272874 
L 145.59802 -278.161895 
L 145.009678 -278.050916 
L 144.421336 -277.939937 
L 143.832995 -277.828958 
L 143.244653 -278.226037 
L 142.656311 -278.000937 
L 142.067969 -277.775836 
L 141.479628 -277.550736 
L 140.891286 -277.325635 
L 140.302944 -277.163086 
L 139.714602 -277.052107 
L 139.126261 -276.863863 
L 138.537919 -276.58628 
L 137.949577 -276.308698 
L 137.361235 -279.813737 
L 136.772894 -286.352678 
L 136.184552 -292.891618 
L 135.59621 -299.430559 
L 135.007868 -305.9695 
L 134.419527 -312.508441 
L 133.831185 -319.047382 
L 133.242843 -325.586323 
L 132.654501 -323.95647 
L 132.06616 -321.02687 
L 131.477818 -318.09727 
L 130.889476 -315.167671 
L 130.301134 -312.238071 
L 129.712793 -309.308471 
L 129.124451 -306.378871 
L 128.536109 -303.449271 
L 127.947767 -300.519671 
L 127.359426 -297.590072 
L 126.771084 -294.660472 
L 126.182742 -291.730872 
L 125.5944 -288.801272 
L 125.006059 -285.871672 
L 124.417717 -286.379616 
L 123.829375 -287.727945 
L 123.241033 -289.076274 
L 122.652691 -290.389575 
L 122.06435 -289.262171 
L 121.476008 -288.134767 
L 120.887666 -287.079041 
L 120.299324 -287.303889 
L 119.710983 -287.528737 
L 119.122641 -287.753584 
L 118.534299 -287.978432 
L 117.945957 -288.20328 
L 117.357616 -288.428128 
L 116.769274 -288.652975 
L 116.180932 -288.877823 
L 115.59259 -289.102671 
L 115.004249 -289.327518 
L 114.415907 -289.552366 
L 113.827565 -289.777214 
L 113.239223 -290.002061 
L 112.650882 -290.226909 
L 112.06254 -290.266756 
L 111.474198 -289.591834 
L 110.885856 -288.916912 
L 110.297515 -288.241989 
L 109.709173 -287.567067 
L 109.120831 -286.892145 
L 108.532489 -286.217223 
L 107.944148 -285.542301 
L 107.355806 -284.867379 
L 106.767464 -284.192457 
L 106.179122 -283.517535 
L 105.590781 -284.10044 
L 105.002439 -285.674374 
L 104.414097 -287.248308 
L 103.825755 -288.822242 
L 103.237414 -290.396176 
L 102.649072 -291.97011 
L 102.06073 -293.544044 
L 101.472388 -294.414237 
L 100.884047 -294.414237 
L 100.295705 -294.414237 
L 99.707363 -294.414237 
L 99.119021 -294.414237 
L 98.53068 -294.414237 
L 97.942338 -294.414237 
L 97.353996 -294.414237 
L 96.765654 -294.414237 
L 96.177313 -294.414237 
L 95.588971 -294.414237 
L 95.000629 -294.414237 
L 94.412287 -294.414237 
L 93.823946 -294.414237 
L 93.235604 -294.414237 
L 92.647262 -294.414237 
L 92.05892 -294.414237 
z
" style="stroke: #ff0000; stroke-opacity: 0.3"/>
    </defs>
    <g clip-path="url(#pf1bb3f3918)">
     <use xlink:href="#md8174311ef" x="0" y="432" style="fill: #ff0000; fill-opacity: 0.3; stroke: #ff0000; stroke-opacity: 0.3"/>
    </g>
   </g>
   <g id="matplotlib.axis_1">
    <g id="xtick_1">
     <g id="line2d_1">
      <defs>
       <path id="m28d4378fe8" d="M 0 0 
L 0 3.5 
" style="stroke: #000000; stroke-width: 0.8"/>
      </defs>
      <g>
       <use xlink:href="#m28d4378fe8" x="91.240273" y="390.04" style="stroke: #000000; stroke-width: 0.8"/>
      </g>
     </g>
     <g id="text_1">
      <!-- 0 -->
      <g transform="translate(88.059023 404.638438) scale(0.1 -0.1)">
       <defs>
        <path id="DejaVuSans-30" d="M 2034 4250 
Q 1547 4250 1301 3770 
Q 1056 3291 1056 2328 
Q 1056 1369 1301 889 
Q 1547 409 2034 409 
Q 2525 409 2770 889 
Q 3016 1369 3016 2328 
Q 3016 3291 2770 3770 
Q 2525 4250 2034 4250 
z
M 2034 4750 
Q 2819 4750 3233 4129 
Q 3647 3509 3647 2328 
Q 3647 1150 3233 529 
Q 2819 -91 2034 -91 
Q 1250 -91 836 529 
Q 422 1150 422 2328 
Q 422 3509 836 4129 
Q 1250 4750 2034 4750 
z
" transform="scale(0.015625)"/>
       </defs>
       <use xlink:href="#DejaVuSans-30"/>
      </g>
     </g>
    </g>
    <g id="xtick_2">
     <g id="line2d_2">
      <g>
       <use xlink:href="#m28d4378fe8" x="209.031249" y="390.04" style="stroke: #000000; stroke-width: 0.8"/>
      </g>
     </g>
     <g id="text_2">
      <!-- 20000 -->
      <g transform="translate(193.124999 404.638438) scale(0.1 -0.1)">
       <defs>
        <path id="DejaVuSans-32" d="M 1228 531 
L 3431 531 
L 3431 0 
L 469 0 
L 469 531 
Q 828 903 1448 1529 
Q 2069 2156 2228 2338 
Q 2531 2678 2651 2914 
Q 2772 3150 2772 3378 
Q 2772 3750 2511 3984 
Q 2250 4219 1831 4219 
Q 1534 4219 1204 4116 
Q 875 4013 500 3803 
L 500 4441 
Q 881 4594 1212 4672 
Q 1544 4750 1819 4750 
Q 2544 4750 2975 4387 
Q 3406 4025 3406 3419 
Q 3406 3131 3298 2873 
Q 3191 2616 2906 2266 
Q 2828 2175 2409 1742 
Q 1991 1309 1228 531 
z
" transform="scale(0.015625)"/>
       </defs>
       <use xlink:href="#DejaVuSans-32"/>
       <use xlink:href="#DejaVuSans-30" transform="translate(63.623047 0)"/>
       <use xlink:href="#DejaVuSans-30" transform="translate(127.246094 0)"/>
       <use xlink:href="#DejaVuSans-30" transform="translate(190.869141 0)"/>
       <use xlink:href="#DejaVuSans-30" transform="translate(254.492188 0)"/>
      </g>
     </g>
    </g>
    <g id="xtick_3">
     <g id="line2d_3">
      <g>
       <use xlink:href="#m28d4378fe8" x="326.822224" y="390.04" style="stroke: #000000; stroke-width: 0.8"/>
      </g>
     </g>
     <g id="text_3">
      <!-- 40000 -->
      <g transform="translate(310.915974 404.638438) scale(0.1 -0.1)">
       <defs>
        <path id="DejaVuSans-34" d="M 2419 4116 
L 825 1625 
L 2419 1625 
L 2419 4116 
z
M 2253 4666 
L 3047 4666 
L 3047 1625 
L 3713 1625 
L 3713 1100 
L 3047 1100 
L 3047 0 
L 2419 0 
L 2419 1100 
L 313 1100 
L 313 1709 
L 2253 4666 
z
" transform="scale(0.015625)"/>
       </defs>
       <use xlink:href="#DejaVuSans-34"/>
       <use xlink:href="#DejaVuSans-30" transform="translate(63.623047 0)"/>
       <use xlink:href="#DejaVuSans-30" transform="translate(127.246094 0)"/>
       <use xlink:href="#DejaVuSans-30" transform="translate(190.869141 0)"/>
       <use xlink:href="#DejaVuSans-30" transform="translate(254.492188 0)"/>
      </g>
     </g>
    </g>
    <g id="xtick_4">
     <g id="line2d_4">
      <g>
       <use xlink:href="#m28d4378fe8" x="444.613199" y="390.04" style="stroke: #000000; stroke-width: 0.8"/>
      </g>
     </g>
     <g id="text_4">
      <!-- 60000 -->
      <g transform="translate(428.706949 404.638438) scale(0.1 -0.1)">
       <defs>
        <path id="DejaVuSans-36" d="M 2113 2584 
Q 1688 2584 1439 2293 
Q 1191 2003 1191 1497 
Q 1191 994 1439 701 
Q 1688 409 2113 409 
Q 2538 409 2786 701 
Q 3034 994 3034 1497 
Q 3034 2003 2786 2293 
Q 2538 2584 2113 2584 
z
M 3366 4563 
L 3366 3988 
Q 3128 4100 2886 4159 
Q 2644 4219 2406 4219 
Q 1781 4219 1451 3797 
Q 1122 3375 1075 2522 
Q 1259 2794 1537 2939 
Q 1816 3084 2150 3084 
Q 2853 3084 3261 2657 
Q 3669 2231 3669 1497 
Q 3669 778 3244 343 
Q 2819 -91 2113 -91 
Q 1303 -91 875 529 
Q 447 1150 447 2328 
Q 447 3434 972 4092 
Q 1497 4750 2381 4750 
Q 2619 4750 2861 4703 
Q 3103 4656 3366 4563 
z
" transform="scale(0.015625)"/>
       </defs>
       <use xlink:href="#DejaVuSans-36"/>
       <use xlink:href="#DejaVuSans-30" transform="translate(63.623047 0)"/>
       <use xlink:href="#DejaVuSans-30" transform="translate(127.246094 0)"/>
       <use xlink:href="#DejaVuSans-30" transform="translate(190.869141 0)"/>
       <use xlink:href="#DejaVuSans-30" transform="translate(254.492188 0)"/>
      </g>
     </g>
    </g>
    <g id="xtick_5">
     <g id="line2d_5">
      <g>
       <use xlink:href="#m28d4378fe8" x="562.404175" y="390.04" style="stroke: #000000; stroke-width: 0.8"/>
      </g>
     </g>
     <g id="text_5">
      <!-- 80000 -->
      <g transform="translate(546.497925 404.638438) scale(0.1 -0.1)">
       <defs>
        <path id="DejaVuSans-38" d="M 2034 2216 
Q 1584 2216 1326 1975 
Q 1069 1734 1069 1313 
Q 1069 891 1326 650 
Q 1584 409 2034 409 
Q 2484 409 2743 651 
Q 3003 894 3003 1313 
Q 3003 1734 2745 1975 
Q 2488 2216 2034 2216 
z
M 1403 2484 
Q 997 2584 770 2862 
Q 544 3141 544 3541 
Q 544 4100 942 4425 
Q 1341 4750 2034 4750 
Q 2731 4750 3128 4425 
Q 3525 4100 3525 3541 
Q 3525 3141 3298 2862 
Q 3072 2584 2669 2484 
Q 3125 2378 3379 2068 
Q 3634 1759 3634 1313 
Q 3634 634 3220 271 
Q 2806 -91 2034 -91 
Q 1263 -91 848 271 
Q 434 634 434 1313 
Q 434 1759 690 2068 
Q 947 2378 1403 2484 
z
M 1172 3481 
Q 1172 3119 1398 2916 
Q 1625 2713 2034 2713 
Q 2441 2713 2670 2916 
Q 2900 3119 2900 3481 
Q 2900 3844 2670 4047 
Q 2441 4250 2034 4250 
Q 1625 4250 1398 4047 
Q 1172 3844 1172 3481 
z
" transform="scale(0.015625)"/>
       </defs>
       <use xlink:href="#DejaVuSans-38"/>
       <use xlink:href="#DejaVuSans-30" transform="translate(63.623047 0)"/>
       <use xlink:href="#DejaVuSans-30" transform="translate(127.246094 0)"/>
       <use xlink:href="#DejaVuSans-30" transform="translate(190.869141 0)"/>
       <use xlink:href="#DejaVuSans-30" transform="translate(254.492188 0)"/>
      </g>
     </g>
    </g>
    <g id="xtick_6">
     <g id="line2d_6">
      <g>
       <use xlink:href="#m28d4378fe8" x="680.19515" y="390.04" style="stroke: #000000; stroke-width: 0.8"/>
      </g>
     </g>
     <g id="text_6">
      <!-- 100000 -->
      <g transform="translate(661.10765 404.638438) scale(0.1 -0.1)">
       <defs>
        <path id="DejaVuSans-31" d="M 794 531 
L 1825 531 
L 1825 4091 
L 703 3866 
L 703 4441 
L 1819 4666 
L 2450 4666 
L 2450 531 
L 3481 531 
L 3481 0 
L 794 0 
L 794 531 
z
" transform="scale(0.015625)"/>
       </defs>
       <use xlink:href="#DejaVuSans-31"/>
       <use xlink:href="#DejaVuSans-30" transform="translate(63.623047 0)"/>
       <use xlink:href="#DejaVuSans-30" transform="translate(127.246094 0)"/>
       <use xlink:href="#DejaVuSans-30" transform="translate(190.869141 0)"/>
       <use xlink:href="#DejaVuSans-30" transform="translate(254.492188 0)"/>
       <use xlink:href="#DejaVuSans-30" transform="translate(318.115234 0)"/>
      </g>
     </g>
    </g>
    <g id="text_7">
     <!-- Step -->
     <g transform="translate(374.550469 418.316562) scale(0.1 -0.1)">
      <defs>
       <path id="DejaVuSans-53" d="M 3425 4513 
L 3425 3897 
Q 3066 4069 2747 4153 
Q 2428 4238 2131 4238 
Q 1616 4238 1336 4038 
Q 1056 3838 1056 3469 
Q 1056 3159 1242 3001 
Q 1428 2844 1947 2747 
L 2328 2669 
Q 3034 2534 3370 2195 
Q 3706 1856 3706 1288 
Q 3706 609 3251 259 
Q 2797 -91 1919 -91 
Q 1588 -91 1214 -16 
Q 841 59 441 206 
L 441 856 
Q 825 641 1194 531 
Q 1563 422 1919 422 
Q 2459 422 2753 634 
Q 3047 847 3047 1241 
Q 3047 1584 2836 1778 
Q 2625 1972 2144 2069 
L 1759 2144 
Q 1053 2284 737 2584 
Q 422 2884 422 3419 
Q 422 4038 858 4394 
Q 1294 4750 2059 4750 
Q 2388 4750 2728 4690 
Q 3069 4631 3425 4513 
z
" transform="scale(0.015625)"/>
       <path id="DejaVuSans-74" d="M 1172 4494 
L 1172 3500 
L 2356 3500 
L 2356 3053 
L 1172 3053 
L 1172 1153 
Q 1172 725 1289 603 
Q 1406 481 1766 481 
L 2356 481 
L 2356 0 
L 1766 0 
Q 1100 0 847 248 
Q 594 497 594 1153 
L 594 3053 
L 172 3053 
L 172 3500 
L 594 3500 
L 594 4494 
L 1172 4494 
z
" transform="scale(0.015625)"/>
       <path id="DejaVuSans-65" d="M 3597 1894 
L 3597 1613 
L 953 1613 
Q 991 1019 1311 708 
Q 1631 397 2203 397 
Q 2534 397 2845 478 
Q 3156 559 3463 722 
L 3463 178 
Q 3153 47 2828 -22 
Q 2503 -91 2169 -91 
Q 1331 -91 842 396 
Q 353 884 353 1716 
Q 353 2575 817 3079 
Q 1281 3584 2069 3584 
Q 2775 3584 3186 3129 
Q 3597 2675 3597 1894 
z
M 3022 2063 
Q 3016 2534 2758 2815 
Q 2500 3097 2075 3097 
Q 1594 3097 1305 2825 
Q 1016 2553 972 2059 
L 3022 2063 
z
" transform="scale(0.015625)"/>
       <path id="DejaVuSans-70" d="M 1159 525 
L 1159 -1331 
L 581 -1331 
L 581 3500 
L 1159 3500 
L 1159 2969 
Q 1341 3281 1617 3432 
Q 1894 3584 2278 3584 
Q 2916 3584 3314 3078 
Q 3713 2572 3713 1747 
Q 3713 922 3314 415 
Q 2916 -91 2278 -91 
Q 1894 -91 1617 61 
Q 1341 213 1159 525 
z
M 3116 1747 
Q 3116 2381 2855 2742 
Q 2594 3103 2138 3103 
Q 1681 3103 1420 2742 
Q 1159 2381 1159 1747 
Q 1159 1113 1420 752 
Q 1681 391 2138 391 
Q 2594 391 2855 752 
Q 3116 1113 3116 1747 
z
" transform="scale(0.015625)"/>
      </defs>
      <use xlink:href="#DejaVuSans-53"/>
      <use xlink:href="#DejaVuSans-74" transform="translate(63.476562 0)"/>
      <use xlink:href="#DejaVuSans-65" transform="translate(102.685547 0)"/>
      <use xlink:href="#DejaVuSans-70" transform="translate(164.208984 0)"/>
     </g>
    </g>
   </g>
   <g id="matplotlib.axis_2">
    <g id="ytick_1">
     <g id="line2d_7">
      <defs>
       <path id="m6727ec539d" d="M 0 0 
L -3.5 0 
" style="stroke: #000000; stroke-width: 0.8"/>
      </defs>
      <g>
       <use xlink:href="#m6727ec539d" x="62.67125" y="375.703188" style="stroke: #000000; stroke-width: 0.8"/>
      </g>
     </g>
     <g id="text_8">
      <!-- 12.5 -->
      <g transform="translate(25.025938 379.502406) scale(0.1 -0.1)">
       <defs>
        <path id="DejaVuSans-2212" d="M 678 2272 
L 4684 2272 
L 4684 1741 
L 678 1741 
L 678 2272 
z
" transform="scale(0.015625)"/>
        <path id="DejaVuSans-2e" d="M 684 794 
L 1344 794 
L 1344 0 
L 684 0 
L 684 794 
z
" transform="scale(0.015625)"/>
        <path id="DejaVuSans-35" d="M 691 4666 
L 3169 4666 
L 3169 4134 
L 1269 4134 
L 1269 2991 
Q 1406 3038 1543 3061 
Q 1681 3084 1819 3084 
Q 2600 3084 3056 2656 
Q 3513 2228 3513 1497 
Q 3513 744 3044 326 
Q 2575 -91 1722 -91 
Q 1428 -91 1123 -41 
Q 819 9 494 109 
L 494 744 
Q 775 591 1075 516 
Q 1375 441 1709 441 
Q 2250 441 2565 725 
Q 2881 1009 2881 1497 
Q 2881 1984 2565 2268 
Q 2250 2553 1709 2553 
Q 1456 2553 1204 2497 
Q 953 2441 691 2322 
L 691 4666 
z
" transform="scale(0.015625)"/>
       </defs>
       <use xlink:href="#DejaVuSans-2212"/>
       <use xlink:href="#DejaVuSans-31" transform="translate(83.789062 0)"/>
       <use xlink:href="#DejaVuSans-32" transform="translate(147.412109 0)"/>
       <use xlink:href="#DejaVuSans-2e" transform="translate(211.035156 0)"/>
       <use xlink:href="#DejaVuSans-35" transform="translate(242.822266 0)"/>
      </g>
     </g>
    </g>
    <g id="ytick_2">
     <g id="line2d_8">
      <g>
       <use xlink:href="#m6727ec539d" x="62.67125" y="333.611724" style="stroke: #000000; stroke-width: 0.8"/>
      </g>
     </g>
     <g id="text_9">
      <!-- 10.0 -->
      <g transform="translate(25.025938 337.410942) scale(0.1 -0.1)">
       <use xlink:href="#DejaVuSans-2212"/>
       <use xlink:href="#DejaVuSans-31" transform="translate(83.789062 0)"/>
       <use xlink:href="#DejaVuSans-30" transform="translate(147.412109 0)"/>
       <use xlink:href="#DejaVuSans-2e" transform="translate(211.035156 0)"/>
       <use xlink:href="#DejaVuSans-30" transform="translate(242.822266 0)"/>
      </g>
     </g>
    </g>
    <g id="ytick_3">
     <g id="line2d_9">
      <g>
       <use xlink:href="#m6727ec539d" x="62.67125" y="291.52026" style="stroke: #000000; stroke-width: 0.8"/>
      </g>
     </g>
     <g id="text_10">
      <!-- 7.5 -->
      <g transform="translate(31.388438 295.319478) scale(0.1 -0.1)">
       <defs>
        <path id="DejaVuSans-37" d="M 525 4666 
L 3525 4666 
L 3525 4397 
L 1831 0 
L 1172 0 
L 2766 4134 
L 525 4134 
L 525 4666 
z
" transform="scale(0.015625)"/>
       </defs>
       <use xlink:href="#DejaVuSans-2212"/>
       <use xlink:href="#DejaVuSans-37" transform="translate(83.789062 0)"/>
       <use xlink:href="#DejaVuSans-2e" transform="translate(147.412109 0)"/>
       <use xlink:href="#DejaVuSans-35" transform="translate(179.199219 0)"/>
      </g>
     </g>
    </g>
    <g id="ytick_4">
     <g id="line2d_10">
      <g>
       <use xlink:href="#m6727ec539d" x="62.67125" y="249.428796" style="stroke: #000000; stroke-width: 0.8"/>
      </g>
     </g>
     <g id="text_11">
      <!-- 5.0 -->
      <g transform="translate(31.388438 253.228015) scale(0.1 -0.1)">
       <use xlink:href="#DejaVuSans-2212"/>
       <use xlink:href="#DejaVuSans-35" transform="translate(83.789062 0)"/>
       <use xlink:href="#DejaVuSans-2e" transform="translate(147.412109 0)"/>
       <use xlink:href="#DejaVuSans-30" transform="translate(179.199219 0)"/>
      </g>
     </g>
    </g>
    <g id="ytick_5">
     <g id="line2d_11">
      <g>
       <use xlink:href="#m6727ec539d" x="62.67125" y="207.337332" style="stroke: #000000; stroke-width: 0.8"/>
      </g>
     </g>
     <g id="text_12">
      <!-- 2.5 -->
      <g transform="translate(31.388438 211.136551) scale(0.1 -0.1)">
       <use xlink:href="#DejaVuSans-2212"/>
       <use xlink:href="#DejaVuSans-32" transform="translate(83.789062 0)"/>
       <use xlink:href="#DejaVuSans-2e" transform="translate(147.412109 0)"/>
       <use xlink:href="#DejaVuSans-35" transform="translate(179.199219 0)"/>
      </g>
     </g>
    </g>
    <g id="ytick_6">
     <g id="line2d_12">
      <g>
       <use xlink:href="#m6727ec539d" x="62.67125" y="165.245868" style="stroke: #000000; stroke-width: 0.8"/>
      </g>
     </g>
     <g id="text_13">
      <!-- 0.0 -->
      <g transform="translate(39.768125 169.045087) scale(0.1 -0.1)">
       <use xlink:href="#DejaVuSans-30"/>
       <use xlink:href="#DejaVuSans-2e" transform="translate(63.623047 0)"/>
       <use xlink:href="#DejaVuSans-30" transform="translate(95.410156 0)"/>
      </g>
     </g>
    </g>
    <g id="ytick_7">
     <g id="line2d_13">
      <g>
       <use xlink:href="#m6727ec539d" x="62.67125" y="123.154404" style="stroke: #000000; stroke-width: 0.8"/>
      </g>
     </g>
     <g id="text_14">
      <!-- 2.5 -->
      <g transform="translate(39.768125 126.953623) scale(0.1 -0.1)">
       <use xlink:href="#DejaVuSans-32"/>
       <use xlink:href="#DejaVuSans-2e" transform="translate(63.623047 0)"/>
       <use xlink:href="#DejaVuSans-35" transform="translate(95.410156 0)"/>
      </g>
     </g>
    </g>
    <g id="ytick_8">
     <g id="line2d_14">
      <g>
       <use xlink:href="#m6727ec539d" x="62.67125" y="81.06294" style="stroke: #000000; stroke-width: 0.8"/>
      </g>
     </g>
     <g id="text_15">
      <!-- 5.0 -->
      <g transform="translate(39.768125 84.862159) scale(0.1 -0.1)">
       <use xlink:href="#DejaVuSans-35"/>
       <use xlink:href="#DejaVuSans-2e" transform="translate(63.623047 0)"/>
       <use xlink:href="#DejaVuSans-30" transform="translate(95.410156 0)"/>
      </g>
     </g>
    </g>
    <g id="ytick_9">
     <g id="line2d_15">
      <g>
       <use xlink:href="#m6727ec539d" x="62.67125" y="38.971476" style="stroke: #000000; stroke-width: 0.8"/>
      </g>
     </g>
     <g id="text_16">
      <!-- 7.5 -->
      <g transform="translate(39.768125 42.770695) scale(0.1 -0.1)">
       <use xlink:href="#DejaVuSans-37"/>
       <use xlink:href="#DejaVuSans-2e" transform="translate(63.623047 0)"/>
       <use xlink:href="#DejaVuSans-35" transform="translate(95.410156 0)"/>
      </g>
     </g>
    </g>
    <g id="text_17">
     <!-- charts/episodic_return -->
     <g transform="translate(18.668125 263.428281) rotate(-90) scale(0.1 -0.1)">
      <defs>
       <path id="DejaVuSans-63" d="M 3122 3366 
L 3122 2828 
Q 2878 2963 2633 3030 
Q 2388 3097 2138 3097 
Q 1578 3097 1268 2742 
Q 959 2388 959 1747 
Q 959 1106 1268 751 
Q 1578 397 2138 397 
Q 2388 397 2633 464 
Q 2878 531 3122 666 
L 3122 134 
Q 2881 22 2623 -34 
Q 2366 -91 2075 -91 
Q 1284 -91 818 406 
Q 353 903 353 1747 
Q 353 2603 823 3093 
Q 1294 3584 2113 3584 
Q 2378 3584 2631 3529 
Q 2884 3475 3122 3366 
z
" transform="scale(0.015625)"/>
       <path id="DejaVuSans-68" d="M 3513 2113 
L 3513 0 
L 2938 0 
L 2938 2094 
Q 2938 2591 2744 2837 
Q 2550 3084 2163 3084 
Q 1697 3084 1428 2787 
Q 1159 2491 1159 1978 
L 1159 0 
L 581 0 
L 581 4863 
L 1159 4863 
L 1159 2956 
Q 1366 3272 1645 3428 
Q 1925 3584 2291 3584 
Q 2894 3584 3203 3211 
Q 3513 2838 3513 2113 
z
" transform="scale(0.015625)"/>
       <path id="DejaVuSans-61" d="M 2194 1759 
Q 1497 1759 1228 1600 
Q 959 1441 959 1056 
Q 959 750 1161 570 
Q 1363 391 1709 391 
Q 2188 391 2477 730 
Q 2766 1069 2766 1631 
L 2766 1759 
L 2194 1759 
z
M 3341 1997 
L 3341 0 
L 2766 0 
L 2766 531 
Q 2569 213 2275 61 
Q 1981 -91 1556 -91 
Q 1019 -91 701 211 
Q 384 513 384 1019 
Q 384 1609 779 1909 
Q 1175 2209 1959 2209 
L 2766 2209 
L 2766 2266 
Q 2766 2663 2505 2880 
Q 2244 3097 1772 3097 
Q 1472 3097 1187 3025 
Q 903 2953 641 2809 
L 641 3341 
Q 956 3463 1253 3523 
Q 1550 3584 1831 3584 
Q 2591 3584 2966 3190 
Q 3341 2797 3341 1997 
z
" transform="scale(0.015625)"/>
       <path id="DejaVuSans-72" d="M 2631 2963 
Q 2534 3019 2420 3045 
Q 2306 3072 2169 3072 
Q 1681 3072 1420 2755 
Q 1159 2438 1159 1844 
L 1159 0 
L 581 0 
L 581 3500 
L 1159 3500 
L 1159 2956 
Q 1341 3275 1631 3429 
Q 1922 3584 2338 3584 
Q 2397 3584 2469 3576 
Q 2541 3569 2628 3553 
L 2631 2963 
z
" transform="scale(0.015625)"/>
       <path id="DejaVuSans-73" d="M 2834 3397 
L 2834 2853 
Q 2591 2978 2328 3040 
Q 2066 3103 1784 3103 
Q 1356 3103 1142 2972 
Q 928 2841 928 2578 
Q 928 2378 1081 2264 
Q 1234 2150 1697 2047 
L 1894 2003 
Q 2506 1872 2764 1633 
Q 3022 1394 3022 966 
Q 3022 478 2636 193 
Q 2250 -91 1575 -91 
Q 1294 -91 989 -36 
Q 684 19 347 128 
L 347 722 
Q 666 556 975 473 
Q 1284 391 1588 391 
Q 1994 391 2212 530 
Q 2431 669 2431 922 
Q 2431 1156 2273 1281 
Q 2116 1406 1581 1522 
L 1381 1569 
Q 847 1681 609 1914 
Q 372 2147 372 2553 
Q 372 3047 722 3315 
Q 1072 3584 1716 3584 
Q 2034 3584 2315 3537 
Q 2597 3491 2834 3397 
z
" transform="scale(0.015625)"/>
       <path id="DejaVuSans-2f" d="M 1625 4666 
L 2156 4666 
L 531 -594 
L 0 -594 
L 1625 4666 
z
" transform="scale(0.015625)"/>
       <path id="DejaVuSans-69" d="M 603 3500 
L 1178 3500 
L 1178 0 
L 603 0 
L 603 3500 
z
M 603 4863 
L 1178 4863 
L 1178 4134 
L 603 4134 
L 603 4863 
z
" transform="scale(0.015625)"/>
       <path id="DejaVuSans-6f" d="M 1959 3097 
Q 1497 3097 1228 2736 
Q 959 2375 959 1747 
Q 959 1119 1226 758 
Q 1494 397 1959 397 
Q 2419 397 2687 759 
Q 2956 1122 2956 1747 
Q 2956 2369 2687 2733 
Q 2419 3097 1959 3097 
z
M 1959 3584 
Q 2709 3584 3137 3096 
Q 3566 2609 3566 1747 
Q 3566 888 3137 398 
Q 2709 -91 1959 -91 
Q 1206 -91 779 398 
Q 353 888 353 1747 
Q 353 2609 779 3096 
Q 1206 3584 1959 3584 
z
" transform="scale(0.015625)"/>
       <path id="DejaVuSans-64" d="M 2906 2969 
L 2906 4863 
L 3481 4863 
L 3481 0 
L 2906 0 
L 2906 525 
Q 2725 213 2448 61 
Q 2172 -91 1784 -91 
Q 1150 -91 751 415 
Q 353 922 353 1747 
Q 353 2572 751 3078 
Q 1150 3584 1784 3584 
Q 2172 3584 2448 3432 
Q 2725 3281 2906 2969 
z
M 947 1747 
Q 947 1113 1208 752 
Q 1469 391 1925 391 
Q 2381 391 2643 752 
Q 2906 1113 2906 1747 
Q 2906 2381 2643 2742 
Q 2381 3103 1925 3103 
Q 1469 3103 1208 2742 
Q 947 2381 947 1747 
z
" transform="scale(0.015625)"/>
       <path id="DejaVuSans-5f" d="M 3263 -1063 
L 3263 -1509 
L -63 -1509 
L -63 -1063 
L 3263 -1063 
z
" transform="scale(0.015625)"/>
       <path id="DejaVuSans-75" d="M 544 1381 
L 544 3500 
L 1119 3500 
L 1119 1403 
Q 1119 906 1312 657 
Q 1506 409 1894 409 
Q 2359 409 2629 706 
Q 2900 1003 2900 1516 
L 2900 3500 
L 3475 3500 
L 3475 0 
L 2900 0 
L 2900 538 
Q 2691 219 2414 64 
Q 2138 -91 1772 -91 
Q 1169 -91 856 284 
Q 544 659 544 1381 
z
M 1991 3584 
L 1991 3584 
z
" transform="scale(0.015625)"/>
       <path id="DejaVuSans-6e" d="M 3513 2113 
L 3513 0 
L 2938 0 
L 2938 2094 
Q 2938 2591 2744 2837 
Q 2550 3084 2163 3084 
Q 1697 3084 1428 2787 
Q 1159 2491 1159 1978 
L 1159 0 
L 581 0 
L 581 3500 
L 1159 3500 
L 1159 2956 
Q 1366 3272 1645 3428 
Q 1925 3584 2291 3584 
Q 2894 3584 3203 3211 
Q 3513 2838 3513 2113 
z
" transform="scale(0.015625)"/>
      </defs>
      <use xlink:href="#DejaVuSans-63"/>
      <use xlink:href="#DejaVuSans-68" transform="translate(54.980469 0)"/>
      <use xlink:href="#DejaVuSans-61" transform="translate(118.359375 0)"/>
      <use xlink:href="#DejaVuSans-72" transform="translate(179.638672 0)"/>
      <use xlink:href="#DejaVuSans-74" transform="translate(220.751953 0)"/>
      <use xlink:href="#DejaVuSans-73" transform="translate(259.960938 0)"/>
      <use xlink:href="#DejaVuSans-2f" transform="translate(312.060547 0)"/>
      <use xlink:href="#DejaVuSans-65" transform="translate(345.751953 0)"/>
      <use xlink:href="#DejaVuSans-70" transform="translate(407.275391 0)"/>
      <use xlink:href="#DejaVuSans-69" transform="translate(470.751953 0)"/>
      <use xlink:href="#DejaVuSans-73" transform="translate(498.535156 0)"/>
      <use xlink:href="#DejaVuSans-6f" transform="translate(550.634766 0)"/>
      <use xlink:href="#DejaVuSans-64" transform="translate(611.816406 0)"/>
      <use xlink:href="#DejaVuSans-69" transform="translate(675.292969 0)"/>
      <use xlink:href="#DejaVuSans-63" transform="translate(703.076172 0)"/>
      <use xlink:href="#DejaVuSans-5f" transform="translate(758.056641 0)"/>
      <use xlink:href="#DejaVuSans-72" transform="translate(808.056641 0)"/>
      <use xlink:href="#DejaVuSans-65" transform="translate(846.919922 0)"/>
      <use xlink:href="#DejaVuSans-74" transform="translate(908.443359 0)"/>
      <use xlink:href="#DejaVuSans-75" transform="translate(947.652344 0)"/>
      <use xlink:href="#DejaVuSans-72" transform="translate(1011.03125 0)"/>
      <use xlink:href="#DejaVuSans-6e" transform="translate(1050.394531 0)"/>
     </g>
    </g>
   </g>
   <g id="line2d_16">
    <path d="M 92.05892 163.819324 
L 93.823946 163.854375 
L 95.588971 163.788046 
L 102.06073 163.72142 
L 106.767464 164.658399 
L 112.650882 165.857333 
L 114.415907 165.568726 
L 117.357616 165.013563 
L 119.122641 164.520495 
L 119.710983 164.537801 
L 123.241033 163.977792 
L 132.654501 163.62766 
L 133.242843 163.602765 
L 135.007868 164.648031 
L 135.59621 165.035156 
L 136.772894 165.97201 
L 137.949577 166.745889 
L 139.714602 167.710532 
L 141.479628 168.997158 
L 143.244653 170.221427 
L 143.832995 170.41839 
L 145.009678 170.122941 
L 146.186362 170.027557 
L 150.304754 169.008167 
L 153.246463 168.457058 
L 153.834804 168.299862 
L 154.423146 168.275316 
L 157.364855 169.322296 
L 158.541538 169.713563 
L 159.718222 170.021505 
L 160.306564 170.142151 
L 161.483247 170.61957 
L 166.189981 171.908038 
L 168.543348 172.363536 
L 169.13169 172.732166 
L 173.838424 173.930473 
L 175.015107 174.17064 
L 178.545158 172.556661 
L 182.66355 170.174096 
L 184.428575 169.413124 
L 185.605259 168.81735 
L 187.958626 169.168076 
L 190.311993 169.770093 
L 196.19541 171.038104 
L 206.19722 168.367467 
L 206.785562 168.351688 
L 208.550587 168.616675 
L 214.434005 169.391959 
L 215.610688 169.669532 
L 216.787372 169.922269 
L 217.375713 170.037614 
L 222.082447 169.470495 
L 223.259131 169.277397 
L 224.435814 169.037329 
L 226.20084 168.71582 
L 227.965865 168.640731 
L 230.907574 169.641667 
L 233.260941 170.352199 
L 233.849282 170.486737 
L 236.202649 171.415802 
L 237.379333 171.755337 
L 237.967675 172.021186 
L 239.144358 171.587856 
L 240.321042 170.970897 
L 240.909383 170.8414 
L 242.086067 170.299734 
L 244.439434 169.004647 
L 245.616117 168.656466 
L 249.73451 166.959134 
L 250.911193 166.45916 
L 252.087877 165.83111 
L 253.26456 165.549199 
L 254.441244 165.124153 
L 255.617927 164.526184 
L 257.971294 163.727012 
L 259.147978 163.389263 
L 261.501345 163.853352 
L 264.443053 164.437708 
L 265.619737 164.70305 
L 270.326471 165.261434 
L 273.856521 164.99569 
L 274.444863 164.850618 
L 275.621547 164.893957 
L 278.563255 164.599516 
L 279.739939 164.648548 
L 290.33009 163.249903 
L 292.095116 163.939071 
L 293.860141 164.537203 
L 295.625166 164.820348 
L 296.213508 164.996391 
L 296.80185 165.325895 
L 298.566875 165.784193 
L 300.3319 166.095108 
L 300.920242 166.465394 
L 302.096926 166.391041 
L 303.273609 166.342204 
L 305.038634 166.496142 
L 306.80366 166.541351 
L 307.392001 166.623561 
L 308.568685 166.480874 
L 309.745368 166.301986 
L 311.510394 166.434813 
L 312.687077 166.244919 
L 316.217128 165.663757 
L 316.805469 165.710199 
L 318.570495 165.497213 
L 319.747178 165.469568 
L 321.512203 165.314623 
L 322.100545 165.126724 
L 325.042254 163.437866 
L 325.630596 163.335626 
L 326.807279 162.601346 
L 327.983963 161.766552 
L 329.160646 161.500521 
L 332.102355 160.020404 
L 332.690697 159.955582 
L 335.044064 160.781824 
L 336.809089 161.224301 
L 339.750798 162.182925 
L 342.692506 163.106632 
L 343.86919 163.276589 
L 345.634215 163.272293 
L 346.810899 163.27514 
L 348.575924 163.604314 
L 349.164266 163.647589 
L 350.340949 163.952383 
L 352.105974 164.065054 
L 355.636025 164.093686 
L 356.812708 163.938894 
L 357.989392 163.783805 
L 360.342759 163.741602 
L 361.519442 163.820307 
L 364.461151 163.552217 
L 366.814518 164.142973 
L 367.40286 164.209901 
L 368.579543 164.552038 
L 369.756227 164.863717 
L 371.521252 165.367503 
L 372.697936 165.640025 
L 373.874619 166.114166 
L 374.462961 166.155443 
L 378.581353 164.473081 
L 380.346378 163.81168 
L 381.523062 163.353754 
L 385.053112 162.215924 
L 386.818138 162.390214 
L 387.994821 162.687888 
L 389.171505 162.930118 
L 390.93653 163.481352 
L 395.054922 164.217121 
L 402.703365 163.644723 
L 403.880048 163.655071 
L 405.056732 163.484868 
L 409.175124 163.626965 
L 410.351808 163.471224 
L 410.940149 163.433211 
L 411.528491 163.69738 
L 412.705175 163.64516 
L 413.881858 163.917873 
L 415.646883 164.021557 
L 416.235225 163.95777 
L 417.411909 163.473509 
L 418.588592 163.002493 
L 419.765276 162.440237 
L 422.118643 161.936895 
L 424.47201 161.067201 
L 425.648693 160.683053 
L 426.237035 160.443359 
L 426.825377 160.43304 
L 428.00206 160.900343 
L 432.708794 162.712497 
L 436.827186 163.905323 
L 437.415528 163.848335 
L 438.592212 163.165569 
L 440.357237 162.487562 
L 440.945579 162.377281 
L 442.122262 161.833802 
L 444.475629 160.565998 
L 445.652313 159.995908 
L 448.00568 158.756998 
L 448.594021 158.743372 
L 449.770705 159.172365 
L 450.947388 159.715902 
L 452.712414 160.20363 
L 453.889097 160.691333 
L 456.242464 161.172326 
L 457.419148 161.474857 
L 458.007489 161.720982 
L 461.53754 162.321749 
L 463.302565 162.956261 
L 463.890907 163.279209 
L 465.655932 163.682924 
L 469.774324 164.657155 
L 470.951008 165.169413 
L 472.127691 166.170312 
L 476.246084 168.008984 
L 476.834426 168.555904 
L 478.599451 169.644249 
L 479.187793 169.764689 
L 480.952818 168.154982 
L 482.129501 167.074581 
L 484.482868 165.877719 
L 486.836235 163.666074 
L 489.777944 161.748811 
L 490.366286 161.709157 
L 490.954628 161.840728 
L 493.896336 161.591491 
L 494.484678 161.64664 
L 496.249703 162.157511 
L 500.368096 161.839169 
L 501.544779 162.219791 
L 502.721463 163.037263 
L 503.309804 163.277128 
L 508.016538 164.177936 
L 510.369905 165.04436 
L 510.958247 165.06655 
L 512.723272 164.509553 
L 514.488298 163.921493 
L 516.841665 162.780109 
L 518.018348 162.555635 
L 519.195032 162.398815 
L 521.548399 161.834996 
L 523.313424 161.833773 
L 528.020158 162.384161 
L 529.196841 162.470421 
L 530.961867 162.537212 
L 532.13855 162.676925 
L 533.903575 163.047541 
L 536.256942 163.174355 
L 538.021968 163.442078 
L 542.14036 163.657024 
L 543.905385 162.976495 
L 545.082069 162.841549 
L 547.435436 161.503235 
L 549.200461 160.984023 
L 552.14217 159.563723 
L 552.730511 159.618376 
L 555.083878 161.010897 
L 556.848904 161.598535 
L 558.025587 162.138705 
L 559.790612 162.747482 
L 562.143979 164.318091 
L 562.732321 164.526342 
L 563.320663 164.471733 
L 564.497346 164.15046 
L 566.262372 163.826946 
L 567.439055 163.729988 
L 568.027397 163.572696 
L 569.792422 162.798712 
L 573.910814 161.952043 
L 575.67584 161.961575 
L 579.20589 161.727005 
L 580.382574 161.585924 
L 582.147599 161.339117 
L 583.324282 161.455104 
L 583.912624 161.39146 
L 587.442675 162.232351 
L 588.619358 162.937452 
L 591.561067 163.79334 
L 592.149409 163.982585 
L 593.326092 164.571593 
L 594.502776 164.956344 
L 603.916244 163.683799 
L 605.092927 163.394426 
L 606.269611 163.265222 
L 608.622978 163.187782 
L 609.799661 163.209565 
L 610.976345 163.015349 
L 612.153028 162.645005 
L 613.918053 161.976182 
L 616.27142 161.663228 
L 618.036446 161.571303 
L 619.213129 161.379212 
L 620.389813 161.381115 
L 621.566496 161.376201 
L 625.684888 161.213038 
L 626.861572 161.199705 
L 632.744989 160.73722 
L 634.510015 160.658039 
L 636.27504 160.378736 
L 636.863382 160.579864 
L 638.628407 160.70919 
L 639.80509 160.858601 
L 640.981774 161.014897 
L 642.158457 161.018743 
L 645.100166 160.867139 
L 646.865191 160.657589 
L 648.041875 161.05088 
L 649.218559 161.704804 
L 650.395242 162.044993 
L 652.748609 163.016396 
L 657.455343 164.59207 
L 660.397052 162.355823 
L 663.338761 159.770848 
L 665.692128 158.359151 
L 666.868811 157.506819 
L 667.457153 157.497703 
L 668.045495 157.690644 
L 669.81052 158.822841 
L 671.575545 160.125805 
L 674.517254 162.395016 
L 678.635646 164.521727 
L 679.81233 164.59523 
L 679.81233 164.59523 
" clip-path="url(#pf1bb3f3918)" style="fill: none; stroke: #ff0000; stroke-width: 1.5; stroke-linecap: square"/>
   </g>
   <g id="patch_3">
    <path d="M 62.67125 390.04 
L 62.67125 25.44 
" style="fill: none; stroke: #000000; stroke-width: 0.8; stroke-linejoin: miter; stroke-linecap: square"/>
   </g>
   <g id="patch_4">
    <path d="M 709.2 390.04 
L 709.2 25.44 
" style="fill: none; stroke: #000000; stroke-width: 0.8; stroke-linejoin: miter; stroke-linecap: square"/>
   </g>
   <g id="patch_5">
    <path d="M 62.67125 390.04 
L 709.2 390.04 
" style="fill: none; stroke: #000000; stroke-width: 0.8; stroke-linejoin: miter; stroke-linecap: square"/>
   </g>
   <g id="patch_6">
    <path d="M 62.67125 25.44 
L 709.2 25.44 
" style="fill: none; stroke: #000000; stroke-width: 0.8; stroke-linejoin: miter; stroke-linecap: square"/>
   </g>
   <g id="text_18">
    <!-- charts/episodic_return for ddqn_atari (aggregated via interpolation over runs) -->
    <g transform="translate(152.333125 19.44) scale(0.12 -0.12)">
     <defs>
      <path id="DejaVuSans-20" transform="scale(0.015625)"/>
      <path id="DejaVuSans-66" d="M 2375 4863 
L 2375 4384 
L 1825 4384 
Q 1516 4384 1395 4259 
Q 1275 4134 1275 3809 
L 1275 3500 
L 2222 3500 
L 2222 3053 
L 1275 3053 
L 1275 0 
L 697 0 
L 697 3053 
L 147 3053 
L 147 3500 
L 697 3500 
L 697 3744 
Q 697 4328 969 4595 
Q 1241 4863 1831 4863 
L 2375 4863 
z
" transform="scale(0.015625)"/>
      <path id="DejaVuSans-71" d="M 947 1747 
Q 947 1113 1208 752 
Q 1469 391 1925 391 
Q 2381 391 2643 752 
Q 2906 1113 2906 1747 
Q 2906 2381 2643 2742 
Q 2381 3103 1925 3103 
Q 1469 3103 1208 2742 
Q 947 2381 947 1747 
z
M 2906 525 
Q 2725 213 2448 61 
Q 2172 -91 1784 -91 
Q 1150 -91 751 415 
Q 353 922 353 1747 
Q 353 2572 751 3078 
Q 1150 3584 1784 3584 
Q 2172 3584 2448 3432 
Q 2725 3281 2906 2969 
L 2906 3500 
L 3481 3500 
L 3481 -1331 
L 2906 -1331 
L 2906 525 
z
" transform="scale(0.015625)"/>
      <path id="DejaVuSans-28" d="M 1984 4856 
Q 1566 4138 1362 3434 
Q 1159 2731 1159 2009 
Q 1159 1288 1364 580 
Q 1569 -128 1984 -844 
L 1484 -844 
Q 1016 -109 783 600 
Q 550 1309 550 2009 
Q 550 2706 781 3412 
Q 1013 4119 1484 4856 
L 1984 4856 
z
" transform="scale(0.015625)"/>
      <path id="DejaVuSans-67" d="M 2906 1791 
Q 2906 2416 2648 2759 
Q 2391 3103 1925 3103 
Q 1463 3103 1205 2759 
Q 947 2416 947 1791 
Q 947 1169 1205 825 
Q 1463 481 1925 481 
Q 2391 481 2648 825 
Q 2906 1169 2906 1791 
z
M 3481 434 
Q 3481 -459 3084 -895 
Q 2688 -1331 1869 -1331 
Q 1566 -1331 1297 -1286 
Q 1028 -1241 775 -1147 
L 775 -588 
Q 1028 -725 1275 -790 
Q 1522 -856 1778 -856 
Q 2344 -856 2625 -561 
Q 2906 -266 2906 331 
L 2906 616 
Q 2728 306 2450 153 
Q 2172 0 1784 0 
Q 1141 0 747 490 
Q 353 981 353 1791 
Q 353 2603 747 3093 
Q 1141 3584 1784 3584 
Q 2172 3584 2450 3431 
Q 2728 3278 2906 2969 
L 2906 3500 
L 3481 3500 
L 3481 434 
z
" transform="scale(0.015625)"/>
      <path id="DejaVuSans-76" d="M 191 3500 
L 800 3500 
L 1894 563 
L 2988 3500 
L 3597 3500 
L 2284 0 
L 1503 0 
L 191 3500 
z
" transform="scale(0.015625)"/>
      <path id="DejaVuSans-6c" d="M 603 4863 
L 1178 4863 
L 1178 0 
L 603 0 
L 603 4863 
z
" transform="scale(0.015625)"/>
      <path id="DejaVuSans-29" d="M 513 4856 
L 1013 4856 
Q 1481 4119 1714 3412 
Q 1947 2706 1947 2009 
Q 1947 1309 1714 600 
Q 1481 -109 1013 -844 
L 513 -844 
Q 928 -128 1133 580 
Q 1338 1288 1338 2009 
Q 1338 2731 1133 3434 
Q 928 4138 513 4856 
z
" transform="scale(0.015625)"/>
     </defs>
     <use xlink:href="#DejaVuSans-63"/>
     <use xlink:href="#DejaVuSans-68" transform="translate(54.980469 0)"/>
     <use xlink:href="#DejaVuSans-61" transform="translate(118.359375 0)"/>
     <use xlink:href="#DejaVuSans-72" transform="translate(179.638672 0)"/>
     <use xlink:href="#DejaVuSans-74" transform="translate(220.751953 0)"/>
     <use xlink:href="#DejaVuSans-73" transform="translate(259.960938 0)"/>
     <use xlink:href="#DejaVuSans-2f" transform="translate(312.060547 0)"/>
     <use xlink:href="#DejaVuSans-65" transform="translate(345.751953 0)"/>
     <use xlink:href="#DejaVuSans-70" transform="translate(407.275391 0)"/>
     <use xlink:href="#DejaVuSans-69" transform="translate(470.751953 0)"/>
     <use xlink:href="#DejaVuSans-73" transform="translate(498.535156 0)"/>
     <use xlink:href="#DejaVuSans-6f" transform="translate(550.634766 0)"/>
     <use xlink:href="#DejaVuSans-64" transform="translate(611.816406 0)"/>
     <use xlink:href="#DejaVuSans-69" transform="translate(675.292969 0)"/>
     <use xlink:href="#DejaVuSans-63" transform="translate(703.076172 0)"/>
     <use xlink:href="#DejaVuSans-5f" transform="translate(758.056641 0)"/>
     <use xlink:href="#DejaVuSans-72" transform="translate(808.056641 0)"/>
     <use xlink:href="#DejaVuSans-65" transform="translate(846.919922 0)"/>
     <use xlink:href="#DejaVuSans-74" transform="translate(908.443359 0)"/>
     <use xlink:href="#DejaVuSans-75" transform="translate(947.652344 0)"/>
     <use xlink:href="#DejaVuSans-72" transform="translate(1011.03125 0)"/>
     <use xlink:href="#DejaVuSans-6e" transform="translate(1050.394531 0)"/>
     <use xlink:href="#DejaVuSans-20" transform="translate(1113.773438 0)"/>
     <use xlink:href="#DejaVuSans-66" transform="translate(1145.560547 0)"/>
     <use xlink:href="#DejaVuSans-6f" transform="translate(1180.765625 0)"/>
     <use xlink:href="#DejaVuSans-72" transform="translate(1241.947266 0)"/>
     <use xlink:href="#DejaVuSans-20" transform="translate(1283.060547 0)"/>
     <use xlink:href="#DejaVuSans-64" transform="translate(1314.847656 0)"/>
     <use xlink:href="#DejaVuSans-64" transform="translate(1378.324219 0)"/>
     <use xlink:href="#DejaVuSans-71" transform="translate(1441.800781 0)"/>
     <use xlink:href="#DejaVuSans-6e" transform="translate(1505.277344 0)"/>
     <use xlink:href="#DejaVuSans-5f" transform="translate(1568.65625 0)"/>
     <use xlink:href="#DejaVuSans-61" transform="translate(1618.65625 0)"/>
     <use xlink:href="#DejaVuSans-74" transform="translate(1679.935547 0)"/>
     <use xlink:href="#DejaVuSans-61" transform="translate(1719.144531 0)"/>
     <use xlink:href="#DejaVuSans-72" transform="translate(1780.423828 0)"/>
     <use xlink:href="#DejaVuSans-69" transform="translate(1821.537109 0)"/>
     <use xlink:href="#DejaVuSans-20" transform="translate(1849.320312 0)"/>
     <use xlink:href="#DejaVuSans-28" transform="translate(1881.107422 0)"/>
     <use xlink:href="#DejaVuSans-61" transform="translate(1920.121094 0)"/>
     <use xlink:href="#DejaVuSans-67" transform="translate(1981.400391 0)"/>
     <use xlink:href="#DejaVuSans-67" transform="translate(2044.876953 0)"/>
     <use xlink:href="#DejaVuSans-72" transform="translate(2108.353516 0)"/>
     <use xlink:href="#DejaVuSans-65" transform="translate(2147.216797 0)"/>
     <use xlink:href="#DejaVuSans-67" transform="translate(2208.740234 0)"/>
     <use xlink:href="#DejaVuSans-61" transform="translate(2272.216797 0)"/>
     <use xlink:href="#DejaVuSans-74" transform="translate(2333.496094 0)"/>
     <use xlink:href="#DejaVuSans-65" transform="translate(2372.705078 0)"/>
     <use xlink:href="#DejaVuSans-64" transform="translate(2434.228516 0)"/>
     <use xlink:href="#DejaVuSans-20" transform="translate(2497.705078 0)"/>
     <use xlink:href="#DejaVuSans-76" transform="translate(2529.492188 0)"/>
     <use xlink:href="#DejaVuSans-69" transform="translate(2588.671875 0)"/>
     <use xlink:href="#DejaVuSans-61" transform="translate(2616.455078 0)"/>
     <use xlink:href="#DejaVuSans-20" transform="translate(2677.734375 0)"/>
     <use xlink:href="#DejaVuSans-69" transform="translate(2709.521484 0)"/>
     <use xlink:href="#DejaVuSans-6e" transform="translate(2737.304688 0)"/>
     <use xlink:href="#DejaVuSans-74" transform="translate(2800.683594 0)"/>
     <use xlink:href="#DejaVuSans-65" transform="translate(2839.892578 0)"/>
     <use xlink:href="#DejaVuSans-72" transform="translate(2901.416016 0)"/>
     <use xlink:href="#DejaVuSans-70" transform="translate(2942.529297 0)"/>
     <use xlink:href="#DejaVuSans-6f" transform="translate(3006.005859 0)"/>
     <use xlink:href="#DejaVuSans-6c" transform="translate(3067.1875 0)"/>
     <use xlink:href="#DejaVuSans-61" transform="translate(3094.970703 0)"/>
     <use xlink:href="#DejaVuSans-74" transform="translate(3156.25 0)"/>
     <use xlink:href="#DejaVuSans-69" transform="translate(3195.458984 0)"/>
     <use xlink:href="#DejaVuSans-6f" transform="translate(3223.242188 0)"/>
     <use xlink:href="#DejaVuSans-6e" transform="translate(3284.423828 0)"/>
     <use xlink:href="#DejaVuSans-20" transform="translate(3347.802734 0)"/>
     <use xlink:href="#DejaVuSans-6f" transform="translate(3379.589844 0)"/>
     <use xlink:href="#DejaVuSans-76" transform="translate(3440.771484 0)"/>
     <use xlink:href="#DejaVuSans-65" transform="translate(3499.951172 0)"/>
     <use xlink:href="#DejaVuSans-72" transform="translate(3561.474609 0)"/>
     <use xlink:href="#DejaVuSans-20" transform="translate(3602.587891 0)"/>
     <use xlink:href="#DejaVuSans-72" transform="translate(3634.375 0)"/>
     <use xlink:href="#DejaVuSans-75" transform="translate(3675.488281 0)"/>
     <use xlink:href="#DejaVuSans-6e" transform="translate(3738.867188 0)"/>
     <use xlink:href="#DejaVuSans-73" transform="translate(3802.246094 0)"/>
     <use xlink:href="#DejaVuSans-29" transform="translate(3854.345703 0)"/>
    </g>
   </g>
   <g id="legend_1">
    <g id="patch_7">
     <path d="M 69.67125 62.79625 
L 145.09 62.79625 
Q 147.09 62.79625 147.09 60.79625 
L 147.09 32.44 
Q 147.09 30.44 145.09 30.44 
L 69.67125 30.44 
Q 67.67125 30.44 67.67125 32.44 
L 67.67125 60.79625 
Q 67.67125 62.79625 69.67125 62.79625 
z
" style="fill: #ffffff; opacity: 0.8; stroke: #cccccc; stroke-linejoin: miter"/>
    </g>
    <g id="line2d_17">
     <path d="M 71.67125 38.538437 
L 81.67125 38.538437 
L 91.67125 38.538437 
" style="fill: none; stroke: #ff0000; stroke-width: 1.5; stroke-linecap: square"/>
    </g>
    <g id="text_19">
     <!-- Mean -->
     <g transform="translate(99.67125 42.038437) scale(0.1 -0.1)">
      <defs>
       <path id="DejaVuSans-4d" d="M 628 4666 
L 1569 4666 
L 2759 1491 
L 3956 4666 
L 4897 4666 
L 4897 0 
L 4281 0 
L 4281 4097 
L 3078 897 
L 2444 897 
L 1241 4097 
L 1241 0 
L 628 0 
L 628 4666 
z
" transform="scale(0.015625)"/>
      </defs>
      <use xlink:href="#DejaVuSans-4d"/>
      <use xlink:href="#DejaVuSans-65" transform="translate(86.279297 0)"/>
      <use xlink:href="#DejaVuSans-61" transform="translate(147.802734 0)"/>
      <use xlink:href="#DejaVuSans-6e" transform="translate(209.082031 0)"/>
     </g>
    </g>
    <g id="patch_8">
     <path d="M 71.67125 56.716563 
L 91.67125 56.716563 
L 91.67125 49.716563 
L 71.67125 49.716563 
z
" style="fill: #ff0000; fill-opacity: 0.3; stroke: #ff0000; stroke-opacity: 0.3; stroke-linejoin: miter"/>
    </g>
    <g id="text_20">
     <!-- MinMax -->
     <g transform="translate(99.67125 56.716563) scale(0.1 -0.1)">
      <defs>
       <path id="DejaVuSans-2013" d="M 313 1978 
L 2888 1978 
L 2888 1528 
L 313 1528 
L 313 1978 
z
" transform="scale(0.015625)"/>
       <path id="DejaVuSans-78" d="M 3513 3500 
L 2247 1797 
L 3578 0 
L 2900 0 
L 1881 1375 
L 863 0 
L 184 0 
L 1544 1831 
L 300 3500 
L 978 3500 
L 1906 2253 
L 2834 3500 
L 3513 3500 
z
" transform="scale(0.015625)"/>
      </defs>
      <use xlink:href="#DejaVuSans-4d"/>
      <use xlink:href="#DejaVuSans-69" transform="translate(86.279297 0)"/>
      <use xlink:href="#DejaVuSans-6e" transform="translate(114.0625 0)"/>
      <use xlink:href="#DejaVuSans-2013" transform="translate(177.441406 0)"/>
      <use xlink:href="#DejaVuSans-4d" transform="translate(227.441406 0)"/>
      <use xlink:href="#DejaVuSans-61" transform="translate(313.720703 0)"/>
      <use xlink:href="#DejaVuSans-78" transform="translate(375 0)"/>
     </g>
    </g>
   </g>
  </g>
 </g>
 <defs>
  <clipPath id="pf1bb3f3918">
   <rect x="62.67125" y="25.44" width="646.52875" height="364.6"/>
  </clipPath>
 </defs>
</svg>
