<?xml version="1.0" encoding="utf-8" standalone="no"?>
<!DOCTYPE svg PUBLIC "-//W3C//DTD SVG 1.1//EN"
  "http://www.w3.org/Graphics/SVG/1.1/DTD/svg11.dtd">
<svg xmlns:xlink="http://www.w3.org/1999/xlink" width="720pt" height="432pt" viewBox="0 0 720 432" xmlns="http://www.w3.org/2000/svg" version="1.1">
 <metadata>
  <rdf:RDF xmlns:dc="http://purl.org/dc/elements/1.1/" xmlns:cc="http://creativecommons.org/ns#" xmlns:rdf="http://www.w3.org/1999/02/22-rdf-syntax-ns#">
   <cc:Work>
    <dc:type rdf:resource="http://purl.org/dc/dcmitype/StillImage"/>
    <dc:date>2025-02-05T20:31:22.880447</dc:date>
    <dc:format>image/svg+xml</dc:format>
    <dc:creator>
     <cc:Agent>
      <dc:title>Matplotlib v3.10.0, https://matplotlib.org/</dc:title>
     </cc:Agent>
    </dc:creator>
   </cc:Work>
  </rdf:RDF>
 </metadata>
 <defs>
  <style type="text/css">*{stroke-linejoin: round; stroke-linecap: butt}</style>
 </defs>
 <g id="figure_1">
  <g id="patch_1">
   <path d="M 0 432 
L 720 432 
L 720 0 
L 0 0 
z
" style="fill: #ffffff"/>
  </g>
  <g id="axes_1">
   <g id="patch_2">
    <path d="M 51.05 390.04 
L 709.2 390.04 
L 709.2 25.44 
L 51.05 25.44 
z
" style="fill: #ffffff"/>
   </g>
   <g id="FillBetweenPolyCollection_1">
    <defs>
     <path id="m2216295a5f" d="M 80.965909 -105.276317 
L 80.965909 -58.532727 
L 81.564826 -79.545862 
L 82.163743 -96.403159 
L 82.76266 -113.213667 
L 83.361577 -130.024174 
L 83.960495 -142.819217 
L 84.559412 -155.427097 
L 85.158329 -168.034978 
L 85.757246 -180.642858 
L 86.356163 -189.422435 
L 86.95508 -201.609202 
L 87.553997 -210.48236 
L 88.152914 -218.887614 
L 88.751831 -227.292867 
L 89.350748 -232.103769 
L 89.949666 -239.853958 
L 90.548583 -244.75844 
L 91.1475 -252.415048 
L 91.746417 -257.413111 
L 92.345334 -261.615738 
L 92.944251 -265.818365 
L 93.543168 -273.287811 
L 94.142085 -275.253007 
L 94.741002 -278.426245 
L 95.339919 -282.628872 
L 95.938837 -286.831499 
L 96.537754 -291.034126 
L 97.136671 -295.236753 
L 97.735588 -296.500093 
L 98.334505 -299.392589 
L 98.933422 -300.74951 
L 99.532339 -303.548426 
L 100.131256 -307.751053 
L 100.730173 -309.248345 
L 101.32909 -311.906889 
L 101.928008 -313.497762 
L 102.526925 -316.062726 
L 103.125842 -317.747179 
L 103.724759 -320.218562 
L 104.323676 -321.996597 
L 104.922593 -324.374399 
L 105.52151 -326.246014 
L 106.120427 -326.246014 
L 106.719344 -328.483445 
L 107.318261 -330.495431 
L 107.917179 -330.495431 
L 108.516096 -332.592491 
L 109.115013 -334.744848 
L 109.71393 -334.744848 
L 110.312847 -334.744848 
L 110.911764 -334.744848 
L 111.510681 -334.744848 
L 112.109598 -334.744848 
L 112.708515 -336.514376 
L 113.307432 -338.994266 
L 113.90635 -338.994266 
L 114.505267 -338.994266 
L 115.104184 -338.994266 
L 115.703101 -338.994266 
L 116.302018 -338.994266 
L 116.900935 -338.994266 
L 117.499852 -338.994266 
L 118.098769 -338.994266 
L 118.697686 -338.994266 
L 119.296603 -338.994266 
L 119.895521 -338.994266 
L 120.494438 -338.994266 
L 121.093355 -338.994266 
L 121.692272 -338.994266 
L 122.291189 -338.994266 
L 122.890106 -338.994266 
L 123.489023 -338.994266 
L 124.08794 -338.994266 
L 124.686857 -338.994266 
L 125.285774 -338.994266 
L 125.884692 -338.994266 
L 126.483609 -338.994266 
L 127.082526 -338.994266 
L 127.681443 -338.994266 
L 128.28036 -338.994266 
L 128.879277 -338.994266 
L 129.478194 -338.994266 
L 130.077111 -338.994266 
L 130.676028 -338.994266 
L 131.274945 -338.994266 
L 131.873862 -338.994266 
L 132.47278 -338.994266 
L 133.071697 -338.994266 
L 133.670614 -338.862402 
L 134.269531 -334.744848 
L 134.868448 -334.744848 
L 135.467365 -334.744848 
L 136.066282 -334.744848 
L 136.665199 -334.744848 
L 137.264116 -334.744848 
L 137.863033 -334.744848 
L 138.461951 -334.744848 
L 139.060868 -334.744848 
L 139.659785 -334.744848 
L 140.258702 -334.744848 
L 140.857619 -330.925052 
L 141.456536 -330.495431 
L 142.055453 -330.495431 
L 142.65437 -330.495431 
L 143.253287 -330.495431 
L 143.852204 -330.495431 
L 144.451122 -330.495431 
L 145.050039 -330.495431 
L 145.648956 -330.495431 
L 146.247873 -330.495431 
L 146.84679 -330.495431 
L 147.445707 -330.495431 
L 148.044624 -327.237119 
L 148.643541 -326.246014 
L 149.242458 -326.246014 
L 149.841375 -326.246014 
L 150.440293 -326.246014 
L 151.03921 -326.246014 
L 151.638127 -326.246014 
L 152.237044 -326.246014 
L 152.835961 -326.246014 
L 153.434878 -326.246014 
L 154.033795 -326.246014 
L 154.632712 -326.246014 
L 155.231629 -326.246014 
L 155.830546 -326.246014 
L 156.429464 -326.246014 
L 157.028381 -326.246014 
L 157.627298 -323.736348 
L 158.226215 -321.996597 
L 158.825132 -321.996597 
L 159.424049 -321.996597 
L 160.022966 -321.996597 
L 160.621883 -321.996597 
L 161.2208 -321.996597 
L 161.819717 -321.996597 
L 162.418635 -321.996597 
L 163.017552 -321.996597 
L 163.616469 -321.996597 
L 164.215386 -321.996597 
L 164.814303 -321.996597 
L 165.41322 -321.996597 
L 166.012137 -321.996597 
L 166.611054 -321.996597 
L 167.209971 -321.996597 
L 167.808888 -321.996597 
L 168.407806 -321.996597 
L 169.006723 -321.996597 
L 169.60564 -321.996597 
L 170.204557 -321.996597 
L 170.803474 -321.996597 
L 171.402391 -320.56311 
L 172.001308 -317.747179 
L 172.600225 -317.747179 
L 173.199142 -317.747179 
L 173.798059 -317.747179 
L 174.396977 -317.747179 
L 174.995894 -317.747179 
L 175.594811 -317.747179 
L 176.193728 -317.747179 
L 176.792645 -317.747179 
L 177.391562 -317.747179 
L 177.990479 -317.747179 
L 178.589396 -317.747179 
L 179.188313 -317.747179 
L 179.78723 -317.747179 
L 180.386148 -317.747179 
L 180.985065 -317.747179 
L 181.583982 -317.747179 
L 182.182899 -317.747179 
L 182.781816 -317.747179 
L 183.380733 -317.747179 
L 183.97965 -317.747179 
L 184.578567 -317.747179 
L 185.177484 -317.747179 
L 185.776401 -317.747179 
L 186.375319 -317.747179 
L 186.974236 -317.747179 
L 187.573153 -317.747179 
L 188.17207 -317.747179 
L 188.770987 -317.747179 
L 189.369904 -317.747179 
L 189.968821 -317.747179 
L 190.567738 -317.747179 
L 191.166655 -317.747179 
L 191.765572 -317.747179 
L 192.364489 -317.747179 
L 192.963407 -317.747179 
L 193.562324 -317.747179 
L 194.161241 -317.747179 
L 194.760158 -317.747179 
L 195.359075 -317.747179 
L 195.957992 -317.747179 
L 196.556909 -314.029471 
L 197.155826 -313.497762 
L 197.754743 -313.497762 
L 198.35366 -313.497762 
L 198.952578 -313.497762 
L 199.551495 -313.497762 
L 200.150412 -313.497762 
L 200.749329 -313.497762 
L 201.348246 -313.497762 
L 201.947163 -313.497762 
L 202.54608 -313.497762 
L 203.144997 -313.497762 
L 203.743914 -313.497762 
L 204.342831 -313.497762 
L 204.941749 -313.497762 
L 205.540666 -313.497762 
L 206.139583 -313.497762 
L 206.7385 -313.497762 
L 207.337417 -313.497762 
L 207.936334 -313.497762 
L 208.535251 -313.497762 
L 209.134168 -313.497762 
L 209.733085 -313.497762 
L 210.332002 -313.497762 
L 210.93092 -313.497762 
L 211.529837 -313.497762 
L 212.128754 -313.497762 
L 212.727671 -313.497762 
L 213.326588 -313.497762 
L 213.925505 -313.497762 
L 214.524422 -313.497762 
L 215.123339 -313.497762 
L 215.722256 -313.497762 
L 216.321173 -313.497762 
L 216.920091 -313.497762 
L 217.519008 -313.497762 
L 218.117925 -313.497762 
L 218.716842 -313.497762 
L 219.315759 -313.497762 
L 219.914676 -313.497762 
L 220.513593 -313.497762 
L 221.11251 -313.497762 
L 221.711427 -313.497762 
L 222.310344 -313.497762 
L 222.909262 -313.497762 
L 223.508179 -313.497762 
L 224.107096 -313.497762 
L 224.706013 -313.497762 
L 225.30493 -313.497762 
L 225.903847 -313.497762 
L 226.502764 -313.497762 
L 227.101681 -313.497762 
L 227.700598 -313.497762 
L 228.299515 -313.497762 
L 228.898433 -313.497762 
L 229.49735 -313.497762 
L 230.096267 -313.497762 
L 230.695184 -313.497762 
L 231.294101 -313.497762 
L 231.893018 -313.497762 
L 232.491935 -313.497762 
L 233.090852 -313.497762 
L 233.689769 -313.497762 
L 234.288686 -313.497762 
L 234.887604 -313.497762 
L 235.486521 -313.497762 
L 236.085438 -313.497762 
L 236.684355 -313.497762 
L 237.283272 -313.497762 
L 237.882189 -313.497762 
L 238.481106 -313.497762 
L 239.080023 -313.497762 
L 239.67894 -313.497762 
L 240.277857 -313.497762 
L 240.876775 -313.497762 
L 241.475692 -313.497762 
L 242.074609 -313.497762 
L 242.673526 -313.497762 
L 243.272443 -313.497762 
L 243.87136 -313.497762 
L 244.470277 -313.497762 
L 245.069194 -313.497762 
L 245.668111 -313.497762 
L 246.267028 -313.497762 
L 246.865945 -309.461029 
L 247.464863 -309.248345 
L 248.06378 -309.248345 
L 248.662697 -309.248345 
L 249.261614 -309.248345 
L 249.860531 -309.248345 
L 250.459448 -309.248345 
L 251.058365 -309.248345 
L 251.657282 -309.248345 
L 252.256199 -309.248345 
L 252.855116 -309.248345 
L 253.454034 -309.248345 
L 254.052951 -309.248345 
L 254.651868 -309.248345 
L 255.250785 -309.248345 
L 255.849702 -309.248345 
L 256.448619 -309.248345 
L 257.047536 -309.248345 
L 257.646453 -309.248345 
L 258.24537 -309.248345 
L 258.844287 -309.248345 
L 259.443205 -309.248345 
L 260.042122 -309.248345 
L 260.641039 -309.248345 
L 261.239956 -309.248345 
L 261.838873 -309.248345 
L 262.43779 -309.248345 
L 263.036707 -309.248345 
L 263.635624 -309.248345 
L 264.234541 -309.248345 
L 264.833458 -309.248345 
L 265.432376 -309.248345 
L 266.031293 -309.248345 
L 266.63021 -309.248345 
L 267.229127 -309.248345 
L 267.828044 -309.248345 
L 268.426961 -309.248345 
L 269.025878 -309.248345 
L 269.624795 -309.248345 
L 270.223712 -309.248345 
L 270.822629 -309.248345 
L 271.421547 -309.248345 
L 272.020464 -309.248345 
L 272.619381 -309.248345 
L 273.218298 -309.248345 
L 273.817215 -309.248345 
L 274.416132 -309.248345 
L 275.015049 -309.248345 
L 275.613966 -309.248345 
L 276.212883 -309.248345 
L 276.8118 -309.248345 
L 277.410718 -309.248345 
L 278.009635 -309.248345 
L 278.608552 -309.248345 
L 279.207469 -309.248345 
L 279.806386 -309.248345 
L 280.405303 -309.248345 
L 281.00422 -309.248345 
L 281.603137 -309.248345 
L 282.202054 -309.248345 
L 282.800971 -309.248345 
L 283.399889 -309.248345 
L 283.998806 -309.248345 
L 284.597723 -309.248345 
L 285.19664 -309.248345 
L 285.795557 -309.248345 
L 286.394474 -309.248345 
L 286.993391 -309.248345 
L 287.592308 -309.248345 
L 288.191225 -309.248345 
L 288.790142 -309.248345 
L 289.38906 -309.248345 
L 289.987977 -309.248345 
L 290.586894 -309.248345 
L 291.185811 -309.248345 
L 291.784728 -309.248345 
L 292.383645 -309.248345 
L 292.982562 -309.248345 
L 293.581479 -309.248345 
L 294.180396 -309.248345 
L 294.779313 -309.248345 
L 295.378231 -309.248345 
L 295.977148 -309.248345 
L 296.576065 -309.248345 
L 297.174982 -309.248345 
L 297.773899 -309.248345 
L 298.372816 -309.248345 
L 298.971733 -309.248345 
L 299.57065 -309.248345 
L 300.169567 -309.248345 
L 300.768484 -309.248345 
L 301.367401 -309.248345 
L 301.966319 -309.248345 
L 302.565236 -309.248345 
L 303.164153 -309.248345 
L 303.76307 -309.248345 
L 304.361987 -309.248345 
L 304.960904 -309.248345 
L 305.559821 -309.248345 
L 306.158738 -309.248345 
L 306.757655 -309.248345 
L 307.356572 -309.248345 
L 307.95549 -309.248345 
L 308.554407 -309.248345 
L 309.153324 -309.248345 
L 309.752241 -309.248345 
L 310.351158 -309.248345 
L 310.950075 -309.248345 
L 311.548992 -309.248345 
L 312.147909 -309.248345 
L 312.746826 -309.248345 
L 313.345743 -309.248345 
L 313.944661 -309.248345 
L 314.543578 -309.248345 
L 315.142495 -309.248345 
L 315.741412 -309.248345 
L 316.340329 -306.389878 
L 316.939246 -304.998928 
L 317.538163 -304.998928 
L 318.13708 -304.998928 
L 318.735997 -304.998928 
L 319.334914 -304.998928 
L 319.933832 -304.998928 
L 320.532749 -304.998928 
L 321.131666 -304.998928 
L 321.730583 -304.998928 
L 322.3295 -304.998928 
L 322.928417 -304.998928 
L 323.527334 -304.998928 
L 324.126251 -304.998928 
L 324.725168 -304.998928 
L 325.324085 -304.998928 
L 325.923003 -304.998928 
L 326.52192 -304.998928 
L 327.120837 -304.998928 
L 327.719754 -304.998928 
L 328.318671 -304.998928 
L 328.917588 -304.998928 
L 329.516505 -304.998928 
L 330.115422 -304.998928 
L 330.714339 -304.998928 
L 331.313256 -304.998928 
L 331.912174 -304.998928 
L 332.511091 -304.998928 
L 333.110008 -304.998928 
L 333.708925 -304.998928 
L 334.307842 -304.998928 
L 334.906759 -304.998928 
L 335.505676 -304.998928 
L 336.104593 -304.998928 
L 336.70351 -304.998928 
L 337.302427 -304.998928 
L 337.901345 -304.998928 
L 338.500262 -304.998928 
L 339.099179 -304.998928 
L 339.698096 -304.998928 
L 340.297013 -304.998928 
L 340.89593 -304.998928 
L 341.494847 -304.998928 
L 342.093764 -304.998928 
L 342.692681 -304.998928 
L 343.291598 -304.998928 
L 343.890516 -304.292818 
L 344.489433 -301.408829 
L 345.08835 -304.998928 
L 345.687267 -304.43319 
L 346.286184 -300.74951 
L 346.885101 -300.74951 
L 347.484018 -300.74951 
L 348.082935 -300.74951 
L 348.681852 -300.74951 
L 349.280769 -300.74951 
L 349.879687 -300.74951 
L 350.478604 -300.74951 
L 351.077521 -300.74951 
L 351.676438 -300.74951 
L 352.275355 -300.74951 
L 352.874272 -300.74951 
L 353.473189 -300.74951 
L 354.072106 -300.74951 
L 354.671023 -300.74951 
L 355.26994 -300.74951 
L 355.868857 -300.74951 
L 356.467775 -300.74951 
L 357.066692 -300.74951 
L 357.665609 -300.74951 
L 358.264526 -300.74951 
L 358.863443 -300.74951 
L 359.46236 -300.74951 
L 360.061277 -300.74951 
L 360.660194 -300.74951 
L 361.259111 -300.74951 
L 361.858028 -300.74951 
L 362.456946 -300.74951 
L 363.055863 -300.74951 
L 363.65478 -300.74951 
L 364.253697 -300.74951 
L 364.852614 -300.74951 
L 365.451531 -300.74951 
L 366.050448 -300.74951 
L 366.649365 -300.74951 
L 367.248282 -300.74951 
L 367.847199 -300.74951 
L 368.446117 -300.74951 
L 369.045034 -300.74951 
L 369.643951 -300.74951 
L 370.242868 -300.74951 
L 370.841785 -300.74951 
L 371.440702 -300.74951 
L 372.039619 -300.74951 
L 372.638536 -300.74951 
L 373.237453 -300.74951 
L 373.83637 -300.74951 
L 374.435288 -300.74951 
L 375.034205 -300.74951 
L 375.633122 -300.74951 
L 376.232039 -300.74951 
L 376.830956 -300.74951 
L 377.429873 -300.74951 
L 378.02879 -300.74951 
L 378.627707 -300.74951 
L 379.226624 -300.74951 
L 379.825541 -300.74951 
L 380.424459 -300.74951 
L 381.023376 -300.74951 
L 381.622293 -300.74951 
L 382.22121 -300.74951 
L 382.820127 -300.74951 
L 383.419044 -300.74951 
L 384.017961 -300.74951 
L 384.616878 -300.74951 
L 385.215795 -300.74951 
L 385.814712 -300.74951 
L 386.41363 -300.74951 
L 387.012547 -300.74951 
L 387.611464 -300.74951 
L 388.210381 -300.74951 
L 388.809298 -300.74951 
L 389.408215 -300.74951 
L 390.007132 -300.74951 
L 390.606049 -300.74951 
L 391.204966 -300.74951 
L 391.803883 -300.74951 
L 392.402801 -300.74951 
L 393.001718 -300.74951 
L 393.600635 -300.74951 
L 394.199552 -300.74951 
L 394.798469 -300.74951 
L 395.397386 -300.74951 
L 395.996303 -300.74951 
L 396.59522 -300.74951 
L 397.194137 -300.74951 
L 397.793054 -300.74951 
L 398.391972 -300.74951 
L 398.990889 -300.74951 
L 399.589806 -300.74951 
L 400.188723 -300.74951 
L 400.78764 -300.74951 
L 401.386557 -300.74951 
L 401.985474 -300.74951 
L 402.584391 -300.74951 
L 403.183308 -300.74951 
L 403.782225 -300.74951 
L 404.381143 -300.74951 
L 404.98006 -300.74951 
L 405.578977 -300.74951 
L 406.177894 -300.74951 
L 406.776811 -300.74951 
L 407.375728 -300.74951 
L 407.974645 -300.74951 
L 408.573562 -300.74951 
L 409.172479 -300.74951 
L 409.771396 -300.74951 
L 410.370313 -300.74951 
L 410.969231 -300.74951 
L 411.568148 -300.74951 
L 412.167065 -300.74951 
L 412.765982 -300.74951 
L 413.364899 -300.74951 
L 413.963816 -300.74951 
L 414.562733 -300.74951 
L 415.16165 -300.74951 
L 415.760567 -300.74951 
L 416.359484 -300.74951 
L 416.958402 -300.74951 
L 417.557319 -300.74951 
L 418.156236 -300.74951 
L 418.755153 -300.74951 
L 419.35407 -300.74951 
L 419.952987 -300.74951 
L 420.551904 -300.74951 
L 421.150821 -300.74951 
L 421.749738 -300.74951 
L 422.348655 -300.74951 
L 422.947573 -300.74951 
L 423.54649 -300.74951 
L 424.145407 -300.74951 
L 424.744324 -300.74951 
L 425.343241 -300.74951 
L 425.942158 -300.74951 
L 426.541075 -300.74951 
L 427.139992 -300.74951 
L 427.738909 -300.74951 
L 428.337826 -300.74951 
L 428.936744 -300.74951 
L 429.535661 -300.74951 
L 430.134578 -300.74951 
L 430.733495 -300.74951 
L 431.332412 -300.74951 
L 431.931329 -300.74951 
L 432.530246 -300.74951 
L 433.129163 -300.74951 
L 433.72808 -300.74951 
L 434.326997 -300.74951 
L 434.925915 -300.74951 
L 435.524832 -300.74951 
L 436.123749 -300.74951 
L 436.722666 -300.74951 
L 437.321583 -300.74951 
L 437.9205 -300.74951 
L 438.519417 -300.74951 
L 439.118334 -300.74951 
L 439.717251 -300.74951 
L 440.316168 -300.74951 
L 440.915086 -300.74951 
L 441.514003 -300.74951 
L 442.11292 -300.74951 
L 442.711837 -300.74951 
L 443.310754 -300.74951 
L 443.909671 -300.74951 
L 444.508588 -300.74951 
L 445.107505 -300.74951 
L 445.706422 -300.74951 
L 446.305339 -300.74951 
L 446.904257 -300.74951 
L 447.503174 -300.74951 
L 448.102091 -300.74951 
L 448.701008 -300.74951 
L 449.299925 -300.74951 
L 449.898842 -300.74951 
L 450.497759 -300.74951 
L 451.096676 -300.74951 
L 451.695593 -300.74951 
L 452.29451 -300.74951 
L 452.893428 -300.74951 
L 453.492345 -300.74951 
L 454.091262 -300.74951 
L 454.690179 -300.74951 
L 455.289096 -300.74951 
L 455.888013 -300.74951 
L 456.48693 -300.74951 
L 457.085847 -300.74951 
L 457.684764 -300.74951 
L 458.283681 -300.74951 
L 458.882599 -300.74951 
L 459.481516 -300.74951 
L 460.080433 -300.74951 
L 460.67935 -300.74951 
L 461.278267 -300.74951 
L 461.877184 -300.74951 
L 462.476101 -300.74951 
L 463.075018 -300.74951 
L 463.673935 -300.74951 
L 464.272852 -300.74951 
L 464.871769 -300.74951 
L 465.470687 -300.74951 
L 466.069604 -300.74951 
L 466.668521 -300.74951 
L 467.267438 -300.74951 
L 467.866355 -300.74951 
L 468.465272 -300.74951 
L 469.064189 -300.74951 
L 469.663106 -300.74951 
L 470.262023 -300.74951 
L 470.86094 -300.74951 
L 471.459858 -300.74951 
L 472.058775 -300.74951 
L 472.657692 -300.74951 
L 473.256609 -300.74951 
L 473.855526 -300.74951 
L 474.454443 -300.74951 
L 475.05336 -300.74951 
L 475.652277 -300.74951 
L 476.251194 -300.74951 
L 476.850111 -300.74951 
L 477.449029 -300.74951 
L 478.047946 -300.74951 
L 478.646863 -300.74951 
L 479.24578 -300.74951 
L 479.844697 -300.74951 
L 480.443614 -300.74951 
L 481.042531 -300.74951 
L 481.641448 -300.74951 
L 482.240365 -300.74951 
L 482.839282 -300.74951 
L 483.4382 -300.74951 
L 484.037117 -300.74951 
L 484.636034 -300.74951 
L 485.234951 -300.74951 
L 485.833868 -300.74951 
L 486.432785 -300.74951 
L 487.031702 -300.74951 
L 487.630619 -300.74951 
L 488.229536 -300.74951 
L 488.828453 -300.74951 
L 489.427371 -300.74951 
L 490.026288 -300.74951 
L 490.625205 -300.74951 
L 491.224122 -300.74951 
L 491.823039 -300.74951 
L 492.421956 -300.74951 
L 493.020873 -300.74951 
L 493.61979 -300.74951 
L 494.218707 -300.74951 
L 494.817624 -300.74951 
L 495.416542 -300.74951 
L 496.015459 -300.74951 
L 496.614376 -300.74951 
L 497.213293 -300.74951 
L 497.81221 -300.74951 
L 498.411127 -300.74951 
L 499.010044 -300.74951 
L 499.608961 -300.74951 
L 500.207878 -300.74951 
L 500.806795 -300.74951 
L 501.405713 -300.74951 
L 502.00463 -300.74951 
L 502.603547 -300.74951 
L 503.202464 -300.74951 
L 503.801381 -300.74951 
L 504.400298 -300.74951 
L 504.999215 -300.74951 
L 505.598132 -300.74951 
L 506.197049 -300.74951 
L 506.795966 -300.74951 
L 507.394884 -300.74951 
L 507.993801 -300.74951 
L 508.592718 -300.74951 
L 509.191635 -300.74951 
L 509.790552 -300.74951 
L 510.389469 -300.74951 
L 510.988386 -300.74951 
L 511.587303 -300.74951 
L 512.18622 -300.74951 
L 512.785137 -300.74951 
L 513.384055 -300.74951 
L 513.982972 -300.74951 
L 514.581889 -300.74951 
L 515.180806 -300.74951 
L 515.779723 -300.74951 
L 516.37864 -300.74951 
L 516.977557 -300.74951 
L 517.576474 -300.74951 
L 518.175391 -300.74951 
L 518.774308 -300.74951 
L 519.373225 -300.74951 
L 519.972143 -300.74951 
L 520.57106 -300.74951 
L 521.169977 -300.74951 
L 521.768894 -300.74951 
L 522.367811 -300.74951 
L 522.966728 -300.74951 
L 523.565645 -300.74951 
L 524.164562 -300.74951 
L 524.763479 -300.74951 
L 525.362396 -300.74951 
L 525.961314 -300.74951 
L 526.560231 -300.74951 
L 527.159148 -300.74951 
L 527.758065 -300.74951 
L 528.356982 -300.74951 
L 528.955899 -300.74951 
L 529.554816 -300.74951 
L 530.153733 -300.74951 
L 530.75265 -300.74951 
L 531.351567 -300.74951 
L 531.950485 -300.74951 
L 532.549402 -300.74951 
L 533.148319 -300.74951 
L 533.747236 -300.74951 
L 534.346153 -300.74951 
L 534.94507 -300.74951 
L 535.543987 -300.74951 
L 536.142904 -300.74951 
L 536.741821 -300.74951 
L 537.340738 -300.74951 
L 537.939656 -300.74951 
L 538.538573 -300.74951 
L 539.13749 -300.74951 
L 539.736407 -300.74951 
L 540.335324 -300.74951 
L 540.934241 -300.74951 
L 541.533158 -300.74951 
L 542.132075 -300.74951 
L 542.730992 -300.74951 
L 543.329909 -300.74951 
L 543.928827 -300.74951 
L 544.527744 -300.74951 
L 545.126661 -300.74951 
L 545.725578 -300.74951 
L 546.324495 -300.74951 
L 546.923412 -300.74951 
L 547.522329 -300.74951 
L 548.121246 -300.74951 
L 548.720163 -300.74951 
L 549.31908 -300.74951 
L 549.917998 -300.74951 
L 550.516915 -300.74951 
L 551.115832 -300.74951 
L 551.714749 -300.74951 
L 552.313666 -300.74951 
L 552.912583 -300.74951 
L 553.5115 -300.74951 
L 554.110417 -300.74951 
L 554.709334 -300.74951 
L 555.308251 -300.74951 
L 555.907169 -300.74951 
L 556.506086 -300.74951 
L 557.105003 -300.74951 
L 557.70392 -300.74951 
L 558.302837 -300.74951 
L 558.901754 -300.74951 
L 559.500671 -300.74951 
L 560.099588 -300.74951 
L 560.698505 -300.74951 
L 561.297422 -300.74951 
L 561.89634 -300.74951 
L 562.495257 -300.74951 
L 563.094174 -300.74951 
L 563.693091 -300.74951 
L 564.292008 -300.74951 
L 564.890925 -300.74951 
L 565.489842 -300.74951 
L 566.088759 -300.74951 
L 566.687676 -300.74951 
L 567.286593 -300.74951 
L 567.885511 -300.74951 
L 568.484428 -300.74951 
L 569.083345 -300.74951 
L 569.682262 -300.74951 
L 570.281179 -300.74951 
L 570.880096 -300.74951 
L 571.479013 -300.74951 
L 572.07793 -300.74951 
L 572.676847 -300.74951 
L 573.275764 -300.74951 
L 573.874681 -300.74951 
L 574.473599 -300.74951 
L 575.072516 -300.74951 
L 575.671433 -300.74951 
L 576.27035 -300.74951 
L 576.869267 -300.74951 
L 577.468184 -300.74951 
L 578.067101 -300.74951 
L 578.666018 -300.74951 
L 579.264935 -300.74951 
L 579.863852 -300.74951 
L 580.46277 -300.74951 
L 581.061687 -300.74951 
L 581.660604 -300.74951 
L 582.259521 -300.74951 
L 582.858438 -300.74951 
L 583.457355 -300.74951 
L 584.056272 -300.74951 
L 584.655189 -300.74951 
L 585.254106 -300.74951 
L 585.853023 -300.74951 
L 586.451941 -300.74951 
L 587.050858 -300.74951 
L 587.649775 -300.74951 
L 588.248692 -300.74951 
L 588.847609 -300.74951 
L 589.446526 -300.74951 
L 590.045443 -300.74951 
L 590.64436 -300.74951 
L 591.243277 -300.74951 
L 591.842194 -300.74951 
L 592.441112 -300.74951 
L 593.040029 -300.74951 
L 593.638946 -300.74951 
L 594.237863 -300.74951 
L 594.83678 -300.74951 
L 595.435697 -300.74951 
L 596.034614 -300.74951 
L 596.633531 -300.74951 
L 597.232448 -300.74951 
L 597.831365 -300.74951 
L 598.430283 -300.74951 
L 599.0292 -300.74951 
L 599.628117 -300.74951 
L 600.227034 -300.74951 
L 600.825951 -300.74951 
L 601.424868 -300.74951 
L 602.023785 -300.74951 
L 602.622702 -300.74951 
L 603.221619 -300.74951 
L 603.820536 -300.74951 
L 604.419454 -300.74951 
L 605.018371 -300.74951 
L 605.617288 -300.74951 
L 606.216205 -300.74951 
L 606.815122 -300.74951 
L 607.414039 -300.74951 
L 608.012956 -300.74951 
L 608.611873 -300.74951 
L 609.21079 -300.74951 
L 609.809707 -300.74951 
L 610.408625 -300.74951 
L 611.007542 -300.74951 
L 611.606459 -300.74951 
L 612.205376 -300.74951 
L 612.804293 -300.74951 
L 613.40321 -300.74951 
L 614.002127 -300.74951 
L 614.601044 -300.74951 
L 615.199961 -300.74951 
L 615.798878 -300.74951 
L 616.397796 -300.74951 
L 616.996713 -300.74951 
L 617.59563 -300.74951 
L 618.194547 -300.74951 
L 618.793464 -300.74951 
L 619.392381 -300.74951 
L 619.991298 -300.74951 
L 620.590215 -300.74951 
L 621.189132 -300.74951 
L 621.788049 -300.74951 
L 622.386967 -300.74951 
L 622.985884 -300.74951 
L 623.584801 -300.74951 
L 624.183718 -300.74951 
L 624.782635 -300.74951 
L 625.381552 -300.74951 
L 625.980469 -300.74951 
L 626.579386 -300.74951 
L 627.178303 -300.74951 
L 627.77722 -300.74951 
L 628.376138 -300.74951 
L 628.975055 -300.74951 
L 629.573972 -300.74951 
L 630.172889 -300.74951 
L 630.771806 -300.74951 
L 631.370723 -300.74951 
L 631.96964 -300.74951 
L 632.568557 -300.74951 
L 633.167474 -300.74951 
L 633.766391 -300.74951 
L 634.365308 -300.74951 
L 634.964226 -300.74951 
L 635.563143 -300.74951 
L 636.16206 -300.74951 
L 636.760977 -300.74951 
L 637.359894 -300.74951 
L 637.958811 -300.74951 
L 638.557728 -300.74951 
L 639.156645 -300.74951 
L 639.755562 -300.74951 
L 640.354479 -300.74951 
L 640.953397 -300.74951 
L 641.552314 -300.74951 
L 642.151231 -300.74951 
L 642.750148 -300.74951 
L 643.349065 -300.74951 
L 643.947982 -300.74951 
L 644.546899 -300.74951 
L 645.145816 -300.74951 
L 645.744733 -300.74951 
L 646.34365 -300.74951 
L 646.942568 -300.74951 
L 647.541485 -300.74951 
L 648.140402 -300.74951 
L 648.739319 -300.74951 
L 649.338236 -300.74951 
L 649.937153 -300.74951 
L 650.53607 -300.74951 
L 651.134987 -300.74951 
L 651.733904 -300.74951 
L 652.332821 -300.74951 
L 652.931739 -300.74951 
L 653.530656 -300.74951 
L 654.129573 -300.74951 
L 654.72849 -300.74951 
L 655.327407 -300.74951 
L 655.926324 -300.74951 
L 656.525241 -300.74951 
L 657.124158 -300.74951 
L 657.723075 -300.74951 
L 658.321992 -300.74951 
L 658.92091 -300.74951 
L 659.519827 -300.74951 
L 660.118744 -300.74951 
L 660.717661 -300.74951 
L 661.316578 -300.74951 
L 661.915495 -300.74951 
L 662.514412 -300.74951 
L 663.113329 -300.74951 
L 663.712246 -300.74951 
L 664.311163 -300.74951 
L 664.910081 -300.74951 
L 665.508998 -300.74951 
L 666.107915 -300.74951 
L 666.706832 -300.74951 
L 667.305749 -300.74951 
L 667.904666 -300.74951 
L 668.503583 -300.74951 
L 669.1025 -300.74951 
L 669.701417 -300.74951 
L 670.300334 -300.74951 
L 670.899252 -300.74951 
L 671.498169 -300.74951 
L 672.097086 -300.74951 
L 672.696003 -300.74951 
L 673.29492 -300.74951 
L 673.893837 -300.74951 
L 674.492754 -300.74951 
L 675.091671 -300.74951 
L 675.690588 -300.74951 
L 676.289505 -300.74951 
L 676.888423 -300.74951 
L 677.48734 -300.74951 
L 678.086257 -300.74951 
L 678.685174 -300.74951 
L 679.284091 -300.74951 
L 679.284091 -343.243683 
L 679.284091 -343.243683 
L 678.685174 -343.243683 
L 678.086257 -343.243683 
L 677.48734 -343.243683 
L 676.888423 -343.243683 
L 676.289505 -343.243683 
L 675.690588 -343.243683 
L 675.091671 -343.243683 
L 674.492754 -343.243683 
L 673.893837 -343.243683 
L 673.29492 -343.243683 
L 672.696003 -343.243683 
L 672.097086 -343.243683 
L 671.498169 -343.243683 
L 670.899252 -343.243683 
L 670.300334 -343.243683 
L 669.701417 -343.243683 
L 669.1025 -343.243683 
L 668.503583 -343.243683 
L 667.904666 -343.243683 
L 667.305749 -343.243683 
L 666.706832 -343.243683 
L 666.107915 -343.243683 
L 665.508998 -343.243683 
L 664.910081 -343.243683 
L 664.311163 -343.243683 
L 663.712246 -343.243683 
L 663.113329 -343.243683 
L 662.514412 -343.243683 
L 661.915495 -343.243683 
L 661.316578 -343.243683 
L 660.717661 -343.243683 
L 660.118744 -343.243683 
L 659.519827 -343.243683 
L 658.92091 -343.243683 
L 658.321992 -343.243683 
L 657.723075 -343.243683 
L 657.124158 -343.243683 
L 656.525241 -343.243683 
L 655.926324 -343.243683 
L 655.327407 -343.243683 
L 654.72849 -343.243683 
L 654.129573 -343.243683 
L 653.530656 -343.243683 
L 652.931739 -343.243683 
L 652.332821 -343.243683 
L 651.733904 -343.243683 
L 651.134987 -343.243683 
L 650.53607 -343.243683 
L 649.937153 -343.243683 
L 649.338236 -343.243683 
L 648.739319 -343.243683 
L 648.140402 -343.243683 
L 647.541485 -343.243683 
L 646.942568 -343.243683 
L 646.34365 -343.243683 
L 645.744733 -343.243683 
L 645.145816 -343.243683 
L 644.546899 -343.243683 
L 643.947982 -343.243683 
L 643.349065 -343.243683 
L 642.750148 -343.243683 
L 642.151231 -343.243683 
L 641.552314 -343.243683 
L 640.953397 -343.243683 
L 640.354479 -343.243683 
L 639.755562 -343.243683 
L 639.156645 -343.243683 
L 638.557728 -343.243683 
L 637.958811 -343.243683 
L 637.359894 -343.243683 
L 636.760977 -343.243683 
L 636.16206 -343.243683 
L 635.563143 -343.243683 
L 634.964226 -343.243683 
L 634.365308 -343.243683 
L 633.766391 -343.243683 
L 633.167474 -343.243683 
L 632.568557 -343.243683 
L 631.96964 -343.243683 
L 631.370723 -343.243683 
L 630.771806 -343.243683 
L 630.172889 -343.243683 
L 629.573972 -343.243683 
L 628.975055 -343.243683 
L 628.376138 -343.243683 
L 627.77722 -343.243683 
L 627.178303 -343.243683 
L 626.579386 -343.243683 
L 625.980469 -343.243683 
L 625.381552 -343.243683 
L 624.782635 -343.243683 
L 624.183718 -343.243683 
L 623.584801 -343.243683 
L 622.985884 -343.243683 
L 622.386967 -343.243683 
L 621.788049 -343.243683 
L 621.189132 -343.243683 
L 620.590215 -343.243683 
L 619.991298 -343.243683 
L 619.392381 -343.243683 
L 618.793464 -343.243683 
L 618.194547 -343.243683 
L 617.59563 -343.243683 
L 616.996713 -343.243683 
L 616.397796 -343.243683 
L 615.798878 -343.243683 
L 615.199961 -343.243683 
L 614.601044 -343.243683 
L 614.002127 -343.243683 
L 613.40321 -343.243683 
L 612.804293 -343.243683 
L 612.205376 -343.243683 
L 611.606459 -343.243683 
L 611.007542 -343.243683 
L 610.408625 -343.243683 
L 609.809707 -343.243683 
L 609.21079 -343.243683 
L 608.611873 -343.243683 
L 608.012956 -343.243683 
L 607.414039 -343.243683 
L 606.815122 -343.243683 
L 606.216205 -343.243683 
L 605.617288 -343.243683 
L 605.018371 -343.243683 
L 604.419454 -343.243683 
L 603.820536 -343.243683 
L 603.221619 -343.243683 
L 602.622702 -343.243683 
L 602.023785 -343.243683 
L 601.424868 -343.243683 
L 600.825951 -343.243683 
L 600.227034 -343.243683 
L 599.628117 -343.243683 
L 599.0292 -343.243683 
L 598.430283 -343.243683 
L 597.831365 -343.243683 
L 597.232448 -343.243683 
L 596.633531 -343.243683 
L 596.034614 -343.243683 
L 595.435697 -343.243683 
L 594.83678 -343.243683 
L 594.237863 -343.243683 
L 593.638946 -343.243683 
L 593.040029 -343.243683 
L 592.441112 -343.243683 
L 591.842194 -343.243683 
L 591.243277 -343.243683 
L 590.64436 -343.243683 
L 590.045443 -343.243683 
L 589.446526 -343.243683 
L 588.847609 -343.243683 
L 588.248692 -343.243683 
L 587.649775 -343.243683 
L 587.050858 -343.243683 
L 586.451941 -343.243683 
L 585.853023 -343.243683 
L 585.254106 -343.243683 
L 584.655189 -343.243683 
L 584.056272 -343.243683 
L 583.457355 -343.243683 
L 582.858438 -343.243683 
L 582.259521 -343.243683 
L 581.660604 -343.243683 
L 581.061687 -343.243683 
L 580.46277 -343.243683 
L 579.863852 -343.243683 
L 579.264935 -343.243683 
L 578.666018 -343.243683 
L 578.067101 -343.243683 
L 577.468184 -343.243683 
L 576.869267 -343.243683 
L 576.27035 -343.243683 
L 575.671433 -343.243683 
L 575.072516 -343.243683 
L 574.473599 -343.243683 
L 573.874681 -343.243683 
L 573.275764 -343.243683 
L 572.676847 -343.243683 
L 572.07793 -343.243683 
L 571.479013 -343.243683 
L 570.880096 -343.243683 
L 570.281179 -343.243683 
L 569.682262 -343.243683 
L 569.083345 -343.243683 
L 568.484428 -343.243683 
L 567.885511 -343.243683 
L 567.286593 -343.243683 
L 566.687676 -343.243683 
L 566.088759 -343.243683 
L 565.489842 -343.243683 
L 564.890925 -343.243683 
L 564.292008 -343.243683 
L 563.693091 -343.243683 
L 563.094174 -343.243683 
L 562.495257 -343.243683 
L 561.89634 -343.243683 
L 561.297422 -343.243683 
L 560.698505 -343.243683 
L 560.099588 -343.243683 
L 559.500671 -343.243683 
L 558.901754 -343.243683 
L 558.302837 -343.243683 
L 557.70392 -343.243683 
L 557.105003 -343.243683 
L 556.506086 -343.243683 
L 555.907169 -343.243683 
L 555.308251 -343.243683 
L 554.709334 -343.243683 
L 554.110417 -343.243683 
L 553.5115 -343.243683 
L 552.912583 -343.243683 
L 552.313666 -343.243683 
L 551.714749 -343.243683 
L 551.115832 -343.243683 
L 550.516915 -343.243683 
L 549.917998 -343.243683 
L 549.31908 -343.243683 
L 548.720163 -343.243683 
L 548.121246 -343.243683 
L 547.522329 -343.243683 
L 546.923412 -343.243683 
L 546.324495 -343.243683 
L 545.725578 -343.243683 
L 545.126661 -343.243683 
L 544.527744 -343.243683 
L 543.928827 -343.243683 
L 543.329909 -343.243683 
L 542.730992 -343.243683 
L 542.132075 -343.243683 
L 541.533158 -343.243683 
L 540.934241 -343.243683 
L 540.335324 -343.243683 
L 539.736407 -343.243683 
L 539.13749 -343.243683 
L 538.538573 -343.243683 
L 537.939656 -343.243683 
L 537.340738 -343.243683 
L 536.741821 -343.243683 
L 536.142904 -343.243683 
L 535.543987 -343.243683 
L 534.94507 -343.243683 
L 534.346153 -343.243683 
L 533.747236 -343.243683 
L 533.148319 -343.243683 
L 532.549402 -343.243683 
L 531.950485 -343.243683 
L 531.351567 -343.243683 
L 530.75265 -343.243683 
L 530.153733 -343.243683 
L 529.554816 -343.243683 
L 528.955899 -343.243683 
L 528.356982 -343.243683 
L 527.758065 -343.243683 
L 527.159148 -343.243683 
L 526.560231 -343.243683 
L 525.961314 -343.243683 
L 525.362396 -343.243683 
L 524.763479 -343.243683 
L 524.164562 -343.243683 
L 523.565645 -343.243683 
L 522.966728 -343.243683 
L 522.367811 -343.243683 
L 521.768894 -343.243683 
L 521.169977 -343.243683 
L 520.57106 -343.243683 
L 519.972143 -343.243683 
L 519.373225 -343.243683 
L 518.774308 -343.243683 
L 518.175391 -343.243683 
L 517.576474 -343.243683 
L 516.977557 -343.243683 
L 516.37864 -343.243683 
L 515.779723 -343.243683 
L 515.180806 -343.243683 
L 514.581889 -343.243683 
L 513.982972 -343.243683 
L 513.384055 -343.243683 
L 512.785137 -343.243683 
L 512.18622 -343.243683 
L 511.587303 -343.243683 
L 510.988386 -343.243683 
L 510.389469 -343.243683 
L 509.790552 -343.243683 
L 509.191635 -343.243683 
L 508.592718 -343.243683 
L 507.993801 -343.243683 
L 507.394884 -343.243683 
L 506.795966 -343.243683 
L 506.197049 -343.243683 
L 505.598132 -343.243683 
L 504.999215 -343.243683 
L 504.400298 -343.243683 
L 503.801381 -343.243683 
L 503.202464 -343.243683 
L 502.603547 -343.243683 
L 502.00463 -343.243683 
L 501.405713 -343.243683 
L 500.806795 -343.243683 
L 500.207878 -343.243683 
L 499.608961 -343.243683 
L 499.010044 -343.243683 
L 498.411127 -343.243683 
L 497.81221 -343.243683 
L 497.213293 -343.243683 
L 496.614376 -343.243683 
L 496.015459 -343.243683 
L 495.416542 -343.243683 
L 494.817624 -343.243683 
L 494.218707 -343.243683 
L 493.61979 -343.243683 
L 493.020873 -343.243683 
L 492.421956 -343.243683 
L 491.823039 -343.243683 
L 491.224122 -343.243683 
L 490.625205 -343.243683 
L 490.026288 -343.243683 
L 489.427371 -343.243683 
L 488.828453 -343.243683 
L 488.229536 -343.243683 
L 487.630619 -343.243683 
L 487.031702 -343.243683 
L 486.432785 -343.243683 
L 485.833868 -343.243683 
L 485.234951 -343.243683 
L 484.636034 -343.243683 
L 484.037117 -343.243683 
L 483.4382 -343.243683 
L 482.839282 -343.243683 
L 482.240365 -343.243683 
L 481.641448 -343.243683 
L 481.042531 -343.243683 
L 480.443614 -343.243683 
L 479.844697 -343.243683 
L 479.24578 -343.243683 
L 478.646863 -343.243683 
L 478.047946 -343.243683 
L 477.449029 -343.243683 
L 476.850111 -343.243683 
L 476.251194 -343.243683 
L 475.652277 -343.243683 
L 475.05336 -343.243683 
L 474.454443 -343.243683 
L 473.855526 -343.243683 
L 473.256609 -343.243683 
L 472.657692 -343.243683 
L 472.058775 -343.243683 
L 471.459858 -343.243683 
L 470.86094 -343.243683 
L 470.262023 -343.243683 
L 469.663106 -343.243683 
L 469.064189 -343.243683 
L 468.465272 -343.243683 
L 467.866355 -343.243683 
L 467.267438 -343.243683 
L 466.668521 -343.243683 
L 466.069604 -343.243683 
L 465.470687 -343.243683 
L 464.871769 -343.243683 
L 464.272852 -343.243683 
L 463.673935 -343.243683 
L 463.075018 -343.243683 
L 462.476101 -343.243683 
L 461.877184 -343.243683 
L 461.278267 -343.243683 
L 460.67935 -343.243683 
L 460.080433 -343.243683 
L 459.481516 -343.243683 
L 458.882599 -343.243683 
L 458.283681 -343.243683 
L 457.684764 -343.243683 
L 457.085847 -343.243683 
L 456.48693 -343.243683 
L 455.888013 -347.037957 
L 455.289096 -347.4931 
L 454.690179 -347.4931 
L 454.091262 -347.4931 
L 453.492345 -347.4931 
L 452.893428 -347.4931 
L 452.29451 -347.4931 
L 451.695593 -347.4931 
L 451.096676 -347.4931 
L 450.497759 -347.4931 
L 449.898842 -347.4931 
L 449.299925 -347.4931 
L 448.701008 -347.4931 
L 448.102091 -347.4931 
L 447.503174 -347.4931 
L 446.904257 -347.4931 
L 446.305339 -347.4931 
L 445.706422 -347.4931 
L 445.107505 -347.4931 
L 444.508588 -347.4931 
L 443.909671 -347.4931 
L 443.310754 -347.4931 
L 442.711837 -347.4931 
L 442.11292 -347.4931 
L 441.514003 -347.4931 
L 440.915086 -347.4931 
L 440.316168 -347.4931 
L 439.717251 -347.4931 
L 439.118334 -347.4931 
L 438.519417 -347.4931 
L 437.9205 -347.4931 
L 437.321583 -347.4931 
L 436.722666 -347.4931 
L 436.123749 -347.4931 
L 435.524832 -347.4931 
L 434.925915 -347.4931 
L 434.326997 -347.4931 
L 433.72808 -347.4931 
L 433.129163 -347.4931 
L 432.530246 -347.4931 
L 431.931329 -347.4931 
L 431.332412 -347.4931 
L 430.733495 -347.4931 
L 430.134578 -347.4931 
L 429.535661 -347.4931 
L 428.936744 -347.4931 
L 428.337826 -347.4931 
L 427.738909 -347.4931 
L 427.139992 -347.4931 
L 426.541075 -347.4931 
L 425.942158 -347.4931 
L 425.343241 -347.4931 
L 424.744324 -347.4931 
L 424.145407 -347.4931 
L 423.54649 -347.4931 
L 422.947573 -347.4931 
L 422.348655 -347.4931 
L 421.749738 -347.4931 
L 421.150821 -347.4931 
L 420.551904 -347.4931 
L 419.952987 -347.4931 
L 419.35407 -347.4931 
L 418.755153 -347.4931 
L 418.156236 -347.4931 
L 417.557319 -347.4931 
L 416.958402 -347.4931 
L 416.359484 -347.4931 
L 415.760567 -347.4931 
L 415.16165 -347.4931 
L 414.562733 -347.4931 
L 413.963816 -347.4931 
L 413.364899 -347.4931 
L 412.765982 -347.4931 
L 412.167065 -347.4931 
L 411.568148 -347.4931 
L 410.969231 -347.4931 
L 410.370313 -347.4931 
L 409.771396 -347.4931 
L 409.172479 -347.4931 
L 408.573562 -347.4931 
L 407.974645 -347.4931 
L 407.375728 -347.4931 
L 406.776811 -347.4931 
L 406.177894 -347.4931 
L 405.578977 -347.4931 
L 404.98006 -347.4931 
L 404.381143 -347.4931 
L 403.782225 -347.4931 
L 403.183308 -347.4931 
L 402.584391 -347.4931 
L 401.985474 -347.4931 
L 401.386557 -347.4931 
L 400.78764 -347.4931 
L 400.188723 -347.4931 
L 399.589806 -347.4931 
L 398.990889 -347.4931 
L 398.391972 -347.4931 
L 397.793054 -347.4931 
L 397.194137 -347.4931 
L 396.59522 -347.4931 
L 395.996303 -347.4931 
L 395.397386 -347.4931 
L 394.798469 -347.4931 
L 394.199552 -347.4931 
L 393.600635 -347.4931 
L 393.001718 -347.4931 
L 392.402801 -347.4931 
L 391.803883 -347.4931 
L 391.204966 -347.4931 
L 390.606049 -347.4931 
L 390.007132 -347.4931 
L 389.408215 -347.4931 
L 388.809298 -347.4931 
L 388.210381 -347.4931 
L 387.611464 -347.4931 
L 387.012547 -347.4931 
L 386.41363 -347.4931 
L 385.814712 -347.4931 
L 385.215795 -347.4931 
L 384.616878 -347.4931 
L 384.017961 -347.4931 
L 383.419044 -347.4931 
L 382.820127 -347.4931 
L 382.22121 -347.4931 
L 381.622293 -347.4931 
L 381.023376 -347.4931 
L 380.424459 -347.4931 
L 379.825541 -347.4931 
L 379.226624 -347.4931 
L 378.627707 -347.4931 
L 378.02879 -347.4931 
L 377.429873 -347.4931 
L 376.830956 -347.4931 
L 376.232039 -347.4931 
L 375.633122 -347.4931 
L 375.034205 -347.4931 
L 374.435288 -347.4931 
L 373.83637 -347.4931 
L 373.237453 -347.4931 
L 372.638536 -347.4931 
L 372.039619 -347.4931 
L 371.440702 -347.4931 
L 370.841785 -347.4931 
L 370.242868 -347.4931 
L 369.643951 -347.4931 
L 369.045034 -347.4931 
L 368.446117 -347.4931 
L 367.847199 -347.4931 
L 367.248282 -347.4931 
L 366.649365 -347.4931 
L 366.050448 -347.4931 
L 365.451531 -347.4931 
L 364.852614 -347.4931 
L 364.253697 -347.4931 
L 363.65478 -347.4931 
L 363.055863 -347.4931 
L 362.456946 -347.4931 
L 361.858028 -347.4931 
L 361.259111 -347.4931 
L 360.660194 -347.4931 
L 360.061277 -347.4931 
L 359.46236 -347.4931 
L 358.863443 -347.4931 
L 358.264526 -347.4931 
L 357.665609 -347.4931 
L 357.066692 -347.4931 
L 356.467775 -347.4931 
L 355.868857 -347.4931 
L 355.26994 -347.4931 
L 354.671023 -347.4931 
L 354.072106 -347.4931 
L 353.473189 -347.4931 
L 352.874272 -347.4931 
L 352.275355 -347.4931 
L 351.676438 -347.4931 
L 351.077521 -347.4931 
L 350.478604 -347.4931 
L 349.879687 -347.4931 
L 349.280769 -347.4931 
L 348.681852 -347.4931 
L 348.082935 -347.4931 
L 347.484018 -347.4931 
L 346.885101 -347.4931 
L 346.286184 -347.4931 
L 345.687267 -347.4931 
L 345.08835 -347.4931 
L 344.489433 -347.4931 
L 343.890516 -347.4931 
L 343.291598 -347.4931 
L 342.692681 -347.4931 
L 342.093764 -347.4931 
L 341.494847 -347.4931 
L 340.89593 -347.4931 
L 340.297013 -347.4931 
L 339.698096 -347.4931 
L 339.099179 -347.4931 
L 338.500262 -347.4931 
L 337.901345 -347.4931 
L 337.302427 -350.521714 
L 336.70351 -351.742517 
L 336.104593 -351.742517 
L 335.505676 -351.742517 
L 334.906759 -351.742517 
L 334.307842 -351.742517 
L 333.708925 -351.742517 
L 333.110008 -351.742517 
L 332.511091 -351.742517 
L 331.912174 -351.742517 
L 331.313256 -351.742517 
L 330.714339 -351.742517 
L 330.115422 -351.742517 
L 329.516505 -351.742517 
L 328.917588 -351.742517 
L 328.318671 -351.742517 
L 327.719754 -351.742517 
L 327.120837 -351.742517 
L 326.52192 -351.742517 
L 325.923003 -351.742517 
L 325.324085 -351.742517 
L 324.725168 -351.742517 
L 324.126251 -351.742517 
L 323.527334 -351.742517 
L 322.928417 -351.742517 
L 322.3295 -351.742517 
L 321.730583 -351.742517 
L 321.131666 -351.742517 
L 320.532749 -351.742517 
L 319.933832 -351.742517 
L 319.334914 -351.742517 
L 318.735997 -351.742517 
L 318.13708 -351.742517 
L 317.538163 -351.742517 
L 316.939246 -351.742517 
L 316.340329 -351.742517 
L 315.741412 -351.742517 
L 315.142495 -351.742517 
L 314.543578 -351.742517 
L 313.944661 -351.742517 
L 313.345743 -351.742517 
L 312.746826 -351.742517 
L 312.147909 -351.742517 
L 311.548992 -351.742517 
L 310.950075 -351.742517 
L 310.351158 -351.742517 
L 309.752241 -351.742517 
L 309.153324 -351.742517 
L 308.554407 -351.742517 
L 307.95549 -351.742517 
L 307.356572 -351.742517 
L 306.757655 -351.742517 
L 306.158738 -351.742517 
L 305.559821 -351.742517 
L 304.960904 -351.742517 
L 304.361987 -351.742517 
L 303.76307 -351.742517 
L 303.164153 -351.742517 
L 302.565236 -351.742517 
L 301.966319 -351.742517 
L 301.367401 -351.742517 
L 300.768484 -351.742517 
L 300.169567 -351.742517 
L 299.57065 -351.742517 
L 298.971733 -351.742517 
L 298.372816 -351.742517 
L 297.773899 -351.742517 
L 297.174982 -351.742517 
L 296.576065 -351.742517 
L 295.977148 -351.742517 
L 295.378231 -351.742517 
L 294.779313 -351.742517 
L 294.180396 -351.742517 
L 293.581479 -351.742517 
L 292.982562 -351.742517 
L 292.383645 -351.742517 
L 291.784728 -351.742517 
L 291.185811 -351.742517 
L 290.586894 -351.742517 
L 289.987977 -351.742517 
L 289.38906 -351.742517 
L 288.790142 -351.742517 
L 288.191225 -351.742517 
L 287.592308 -351.742517 
L 286.993391 -351.742517 
L 286.394474 -351.742517 
L 285.795557 -351.742517 
L 285.19664 -351.742517 
L 284.597723 -351.742517 
L 283.998806 -351.742517 
L 283.399889 -351.742517 
L 282.800971 -351.742517 
L 282.202054 -351.742517 
L 281.603137 -351.742517 
L 281.00422 -351.742517 
L 280.405303 -351.742517 
L 279.806386 -351.742517 
L 279.207469 -351.742517 
L 278.608552 -351.742517 
L 278.009635 -351.742517 
L 277.410718 -351.742517 
L 276.8118 -351.742517 
L 276.212883 -351.742517 
L 275.613966 -351.742517 
L 275.015049 -351.742517 
L 274.416132 -351.742517 
L 273.817215 -351.742517 
L 273.218298 -351.742517 
L 272.619381 -351.742517 
L 272.020464 -353.920397 
L 271.421547 -355.991935 
L 270.822629 -355.991935 
L 270.223712 -355.991935 
L 269.624795 -355.991935 
L 269.025878 -355.991935 
L 268.426961 -355.991935 
L 267.828044 -355.991935 
L 267.229127 -355.991935 
L 266.63021 -355.991935 
L 266.031293 -355.991935 
L 265.432376 -355.991935 
L 264.833458 -355.991935 
L 264.234541 -355.991935 
L 263.635624 -355.991935 
L 263.036707 -355.991935 
L 262.43779 -355.991935 
L 261.838873 -355.991935 
L 261.239956 -355.991935 
L 260.641039 -355.991935 
L 260.042122 -355.991935 
L 259.443205 -355.991935 
L 258.844287 -355.991935 
L 258.24537 -355.991935 
L 257.646453 -355.991935 
L 257.047536 -355.991935 
L 256.448619 -355.991935 
L 255.849702 -355.991935 
L 255.250785 -355.991935 
L 254.651868 -355.991935 
L 254.052951 -355.991935 
L 253.454034 -355.991935 
L 252.855116 -355.991935 
L 252.256199 -355.991935 
L 251.657282 -355.991935 
L 251.058365 -355.991935 
L 250.459448 -355.991935 
L 249.860531 -355.991935 
L 249.261614 -355.991935 
L 248.662697 -355.991935 
L 248.06378 -355.991935 
L 247.464863 -355.991935 
L 246.865945 -355.991935 
L 246.267028 -355.991935 
L 245.668111 -355.991935 
L 245.069194 -355.991935 
L 244.470277 -355.991935 
L 243.87136 -355.991935 
L 243.272443 -355.991935 
L 242.673526 -355.991935 
L 242.074609 -355.991935 
L 241.475692 -355.991935 
L 240.876775 -355.991935 
L 240.277857 -355.991935 
L 239.67894 -355.991935 
L 239.080023 -355.991935 
L 238.481106 -355.991935 
L 237.882189 -355.991935 
L 237.283272 -355.991935 
L 236.684355 -355.991935 
L 236.085438 -355.991935 
L 235.486521 -355.991935 
L 234.887604 -355.991935 
L 234.288686 -355.991935 
L 233.689769 -355.991935 
L 233.090852 -355.991935 
L 232.491935 -355.991935 
L 231.893018 -355.991935 
L 231.294101 -355.991935 
L 230.695184 -355.991935 
L 230.096267 -355.991935 
L 229.49735 -355.991935 
L 228.898433 -355.991935 
L 228.299515 -355.991935 
L 227.700598 -355.991935 
L 227.101681 -355.991935 
L 226.502764 -355.991935 
L 225.903847 -355.991935 
L 225.30493 -358.769582 
L 224.706013 -360.241352 
L 224.107096 -360.241352 
L 223.508179 -360.241352 
L 222.909262 -360.241352 
L 222.310344 -360.241352 
L 221.711427 -360.241352 
L 221.11251 -360.241352 
L 220.513593 -360.241352 
L 219.914676 -360.241352 
L 219.315759 -360.241352 
L 218.716842 -360.241352 
L 218.117925 -360.241352 
L 217.519008 -360.241352 
L 216.920091 -360.241352 
L 216.321173 -360.241352 
L 215.722256 -360.241352 
L 215.123339 -360.241352 
L 214.524422 -360.241352 
L 213.925505 -360.241352 
L 213.326588 -360.241352 
L 212.727671 -360.241352 
L 212.128754 -360.241352 
L 211.529837 -360.241352 
L 210.93092 -360.241352 
L 210.332002 -360.241352 
L 209.733085 -360.241352 
L 209.134168 -360.241352 
L 208.535251 -360.241352 
L 207.936334 -360.241352 
L 207.337417 -360.241352 
L 206.7385 -360.241352 
L 206.139583 -360.241352 
L 205.540666 -360.241352 
L 204.941749 -360.241352 
L 204.342831 -360.241352 
L 203.743914 -360.241352 
L 203.144997 -360.241352 
L 202.54608 -360.241352 
L 201.947163 -360.241352 
L 201.348246 -360.241352 
L 200.749329 -360.241352 
L 200.150412 -360.241352 
L 199.551495 -360.241352 
L 198.952578 -360.241352 
L 198.35366 -360.241352 
L 197.754743 -360.866642 
L 197.155826 -364.490769 
L 196.556909 -364.490769 
L 195.957992 -364.490769 
L 195.359075 -364.490769 
L 194.760158 -364.490769 
L 194.161241 -364.490769 
L 193.562324 -364.490769 
L 192.963407 -364.490769 
L 192.364489 -364.490769 
L 191.765572 -364.490769 
L 191.166655 -364.490769 
L 190.567738 -364.490769 
L 189.968821 -364.490769 
L 189.369904 -364.490769 
L 188.770987 -364.490769 
L 188.17207 -364.490769 
L 187.573153 -364.490769 
L 186.974236 -364.490769 
L 186.375319 -364.490769 
L 185.776401 -364.490769 
L 185.177484 -364.490769 
L 184.578567 -364.490769 
L 183.97965 -364.490769 
L 183.380733 -364.490769 
L 182.781816 -364.490769 
L 182.182899 -364.490769 
L 181.583982 -364.490769 
L 180.985065 -364.490769 
L 180.386148 -364.490769 
L 179.78723 -364.490769 
L 179.188313 -364.490769 
L 178.589396 -364.490769 
L 177.990479 -364.490769 
L 177.391562 -364.490769 
L 176.792645 -364.490769 
L 176.193728 -364.490769 
L 175.594811 -364.490769 
L 174.995894 -367.587442 
L 174.396977 -368.740186 
L 173.798059 -368.740186 
L 173.199142 -368.740186 
L 172.600225 -368.740186 
L 172.001308 -368.740186 
L 171.402391 -368.740186 
L 170.803474 -368.740186 
L 170.204557 -368.740186 
L 169.60564 -368.740186 
L 169.006723 -368.740186 
L 168.407806 -368.740186 
L 167.808888 -368.740186 
L 167.209971 -368.740186 
L 166.611054 -368.740186 
L 166.012137 -368.740186 
L 165.41322 -368.740186 
L 164.814303 -368.740186 
L 164.215386 -368.740186 
L 163.616469 -368.740186 
L 163.017552 -368.740186 
L 162.418635 -368.740186 
L 161.819717 -368.740186 
L 161.2208 -368.740186 
L 160.621883 -370.71389 
L 160.022966 -372.989604 
L 159.424049 -372.989604 
L 158.825132 -372.989604 
L 158.226215 -372.989604 
L 157.627298 -372.989604 
L 157.028381 -372.989604 
L 156.429464 -372.989604 
L 155.830546 -372.989604 
L 155.231629 -372.989604 
L 154.632712 -372.989604 
L 154.033795 -372.989604 
L 153.434878 -372.989604 
L 152.835961 -372.989604 
L 152.237044 -372.989604 
L 151.638127 -372.989604 
L 151.03921 -374.214661 
L 150.440293 -377.239021 
L 149.841375 -377.239021 
L 149.242458 -377.239021 
L 148.643541 -377.239021 
L 148.044624 -377.239021 
L 147.445707 -377.239021 
L 146.84679 -377.239021 
L 146.247873 -377.239021 
L 145.648956 -377.239021 
L 145.050039 -377.239021 
L 144.451122 -377.239021 
L 143.852204 -377.239021 
L 143.253287 -377.855803 
L 142.65437 -381.488438 
L 142.055453 -381.488438 
L 141.456536 -381.488438 
L 140.857619 -381.488438 
L 140.258702 -381.488438 
L 139.659785 -381.488438 
L 139.060868 -381.488438 
L 138.461951 -381.488438 
L 137.863033 -381.488438 
L 137.264116 -381.488438 
L 136.665199 -381.590526 
L 136.066282 -385.737855 
L 135.467365 -385.737855 
L 134.868448 -385.737855 
L 134.269531 -385.737855 
L 133.670614 -385.737855 
L 133.071697 -385.737855 
L 132.47278 -385.737855 
L 131.873862 -385.737855 
L 131.274945 -385.737855 
L 130.676028 -385.737855 
L 130.077111 -385.737855 
L 129.478194 -389.527876 
L 128.879277 -389.987273 
L 128.28036 -389.987273 
L 127.681443 -389.987273 
L 127.082526 -389.987273 
L 126.483609 -389.987273 
L 125.884692 -389.987273 
L 125.285774 -389.987273 
L 124.686857 -389.987273 
L 124.08794 -389.987273 
L 123.489023 -389.987273 
L 122.890106 -389.987273 
L 122.291189 -389.987273 
L 121.692272 -389.987273 
L 121.093355 -389.987273 
L 120.494438 -389.987273 
L 119.895521 -389.987273 
L 119.296603 -389.987273 
L 118.697686 -389.987273 
L 118.098769 -389.987273 
L 117.499852 -389.987273 
L 116.900935 -389.987273 
L 116.302018 -389.987273 
L 115.703101 -387.273431 
L 115.104184 -385.737855 
L 114.505267 -385.737855 
L 113.90635 -385.737855 
L 113.307432 -385.737855 
L 112.708515 -385.737855 
L 112.109598 -385.737855 
L 111.510681 -385.737855 
L 110.911764 -385.737855 
L 110.312847 -385.737855 
L 109.71393 -385.737855 
L 109.115013 -385.737855 
L 108.516096 -383.585498 
L 107.917179 -381.488438 
L 107.318261 -381.488438 
L 106.719344 -381.488438 
L 106.120427 -381.488438 
L 105.52151 -379.570033 
L 104.922593 -377.239021 
L 104.323676 -377.239021 
L 103.724759 -375.460987 
L 103.125842 -372.989604 
L 102.526925 -371.30515 
L 101.928008 -368.740186 
L 101.32909 -367.149314 
L 100.730173 -362.946687 
L 100.131256 -360.241352 
L 99.532339 -358.79085 
L 98.933422 -354.588223 
L 98.334505 -351.742517 
L 97.735588 -350.432387 
L 97.136671 -346.22976 
L 96.537754 -342.027133 
L 95.938837 -338.994266 
L 95.339919 -337.871297 
L 94.741002 -333.66867 
L 94.142085 -329.466043 
L 93.543168 -326.246014 
L 92.944251 -324.374399 
L 92.345334 -316.858162 
L 91.746417 -312.655535 
L 91.1475 -308.452909 
L 90.548583 -303.501636 
L 89.949666 -295.096382 
L 89.350748 -287.346193 
L 88.751831 -282.535292 
L 88.152914 -273.568553 
L 87.553997 -265.21009 
L 86.95508 -253.070113 
L 86.356163 -244.664859 
L 85.757246 -235.885283 
L 85.158329 -223.277402 
L 84.559412 -210.669521 
L 83.960495 -197.827689 
L 83.361577 -181.017181 
L 82.76266 -164.206674 
L 82.163743 -147.302586 
L 81.564826 -126.289451 
L 80.965909 -105.276317 
z
" style="stroke: #ff0000; stroke-opacity: 0.3"/>
    </defs>
    <g clip-path="url(#p191555067c)">
     <use xlink:href="#m2216295a5f" x="0" y="432" style="fill: #ff0000; fill-opacity: 0.3; stroke: #ff0000; stroke-opacity: 0.3"/>
    </g>
   </g>
   <g id="matplotlib.axis_1">
    <g id="xtick_1">
     <g id="line2d_1">
      <defs>
       <path id="m53d40d8099" d="M 0 0 
L 0 3.5 
" style="stroke: #000000; stroke-width: 0.8"/>
      </defs>
      <g>
       <use xlink:href="#m53d40d8099" x="74.304472" y="390.04" style="stroke: #000000; stroke-width: 0.8"/>
      </g>
     </g>
     <g id="text_1">
      <!-- 0 -->
      <g transform="translate(71.123222 404.638438) scale(0.1 -0.1)">
       <defs>
        <path id="DejaVuSans-30" d="M 2034 4250 
Q 1547 4250 1301 3770 
Q 1056 3291 1056 2328 
Q 1056 1369 1301 889 
Q 1547 409 2034 409 
Q 2525 409 2770 889 
Q 3016 1369 3016 2328 
Q 3016 3291 2770 3770 
Q 2525 4250 2034 4250 
z
M 2034 4750 
Q 2819 4750 3233 4129 
Q 3647 3509 3647 2328 
Q 3647 1150 3233 529 
Q 2819 -91 2034 -91 
Q 1250 -91 836 529 
Q 422 1150 422 2328 
Q 422 3509 836 4129 
Q 1250 4750 2034 4750 
z
" transform="scale(0.015625)"/>
       </defs>
       <use xlink:href="#DejaVuSans-30"/>
      </g>
     </g>
    </g>
    <g id="xtick_2">
     <g id="line2d_2">
      <g>
       <use xlink:href="#m53d40d8099" x="195.421513" y="390.04" style="stroke: #000000; stroke-width: 0.8"/>
      </g>
     </g>
     <g id="text_2">
      <!-- 20000 -->
      <g transform="translate(179.515263 404.638438) scale(0.1 -0.1)">
       <defs>
        <path id="DejaVuSans-32" d="M 1228 531 
L 3431 531 
L 3431 0 
L 469 0 
L 469 531 
Q 828 903 1448 1529 
Q 2069 2156 2228 2338 
Q 2531 2678 2651 2914 
Q 2772 3150 2772 3378 
Q 2772 3750 2511 3984 
Q 2250 4219 1831 4219 
Q 1534 4219 1204 4116 
Q 875 4013 500 3803 
L 500 4441 
Q 881 4594 1212 4672 
Q 1544 4750 1819 4750 
Q 2544 4750 2975 4387 
Q 3406 4025 3406 3419 
Q 3406 3131 3298 2873 
Q 3191 2616 2906 2266 
Q 2828 2175 2409 1742 
Q 1991 1309 1228 531 
z
" transform="scale(0.015625)"/>
       </defs>
       <use xlink:href="#DejaVuSans-32"/>
       <use xlink:href="#DejaVuSans-30" transform="translate(63.623047 0)"/>
       <use xlink:href="#DejaVuSans-30" transform="translate(127.246094 0)"/>
       <use xlink:href="#DejaVuSans-30" transform="translate(190.869141 0)"/>
       <use xlink:href="#DejaVuSans-30" transform="translate(254.492188 0)"/>
      </g>
     </g>
    </g>
    <g id="xtick_3">
     <g id="line2d_3">
      <g>
       <use xlink:href="#m53d40d8099" x="316.538554" y="390.04" style="stroke: #000000; stroke-width: 0.8"/>
      </g>
     </g>
     <g id="text_3">
      <!-- 40000 -->
      <g transform="translate(300.632304 404.638438) scale(0.1 -0.1)">
       <defs>
        <path id="DejaVuSans-34" d="M 2419 4116 
L 825 1625 
L 2419 1625 
L 2419 4116 
z
M 2253 4666 
L 3047 4666 
L 3047 1625 
L 3713 1625 
L 3713 1100 
L 3047 1100 
L 3047 0 
L 2419 0 
L 2419 1100 
L 313 1100 
L 313 1709 
L 2253 4666 
z
" transform="scale(0.015625)"/>
       </defs>
       <use xlink:href="#DejaVuSans-34"/>
       <use xlink:href="#DejaVuSans-30" transform="translate(63.623047 0)"/>
       <use xlink:href="#DejaVuSans-30" transform="translate(127.246094 0)"/>
       <use xlink:href="#DejaVuSans-30" transform="translate(190.869141 0)"/>
       <use xlink:href="#DejaVuSans-30" transform="translate(254.492188 0)"/>
      </g>
     </g>
    </g>
    <g id="xtick_4">
     <g id="line2d_4">
      <g>
       <use xlink:href="#m53d40d8099" x="437.655594" y="390.04" style="stroke: #000000; stroke-width: 0.8"/>
      </g>
     </g>
     <g id="text_4">
      <!-- 60000 -->
      <g transform="translate(421.749344 404.638438) scale(0.1 -0.1)">
       <defs>
        <path id="DejaVuSans-36" d="M 2113 2584 
Q 1688 2584 1439 2293 
Q 1191 2003 1191 1497 
Q 1191 994 1439 701 
Q 1688 409 2113 409 
Q 2538 409 2786 701 
Q 3034 994 3034 1497 
Q 3034 2003 2786 2293 
Q 2538 2584 2113 2584 
z
M 3366 4563 
L 3366 3988 
Q 3128 4100 2886 4159 
Q 2644 4219 2406 4219 
Q 1781 4219 1451 3797 
Q 1122 3375 1075 2522 
Q 1259 2794 1537 2939 
Q 1816 3084 2150 3084 
Q 2853 3084 3261 2657 
Q 3669 2231 3669 1497 
Q 3669 778 3244 343 
Q 2819 -91 2113 -91 
Q 1303 -91 875 529 
Q 447 1150 447 2328 
Q 447 3434 972 4092 
Q 1497 4750 2381 4750 
Q 2619 4750 2861 4703 
Q 3103 4656 3366 4563 
z
" transform="scale(0.015625)"/>
       </defs>
       <use xlink:href="#DejaVuSans-36"/>
       <use xlink:href="#DejaVuSans-30" transform="translate(63.623047 0)"/>
       <use xlink:href="#DejaVuSans-30" transform="translate(127.246094 0)"/>
       <use xlink:href="#DejaVuSans-30" transform="translate(190.869141 0)"/>
       <use xlink:href="#DejaVuSans-30" transform="translate(254.492188 0)"/>
      </g>
     </g>
    </g>
    <g id="xtick_5">
     <g id="line2d_5">
      <g>
       <use xlink:href="#m53d40d8099" x="558.772635" y="390.04" style="stroke: #000000; stroke-width: 0.8"/>
      </g>
     </g>
     <g id="text_5">
      <!-- 80000 -->
      <g transform="translate(542.866385 404.638438) scale(0.1 -0.1)">
       <defs>
        <path id="DejaVuSans-38" d="M 2034 2216 
Q 1584 2216 1326 1975 
Q 1069 1734 1069 1313 
Q 1069 891 1326 650 
Q 1584 409 2034 409 
Q 2484 409 2743 651 
Q 3003 894 3003 1313 
Q 3003 1734 2745 1975 
Q 2488 2216 2034 2216 
z
M 1403 2484 
Q 997 2584 770 2862 
Q 544 3141 544 3541 
Q 544 4100 942 4425 
Q 1341 4750 2034 4750 
Q 2731 4750 3128 4425 
Q 3525 4100 3525 3541 
Q 3525 3141 3298 2862 
Q 3072 2584 2669 2484 
Q 3125 2378 3379 2068 
Q 3634 1759 3634 1313 
Q 3634 634 3220 271 
Q 2806 -91 2034 -91 
Q 1263 -91 848 271 
Q 434 634 434 1313 
Q 434 1759 690 2068 
Q 947 2378 1403 2484 
z
M 1172 3481 
Q 1172 3119 1398 2916 
Q 1625 2713 2034 2713 
Q 2441 2713 2670 2916 
Q 2900 3119 2900 3481 
Q 2900 3844 2670 4047 
Q 2441 4250 2034 4250 
Q 1625 4250 1398 4047 
Q 1172 3844 1172 3481 
z
" transform="scale(0.015625)"/>
       </defs>
       <use xlink:href="#DejaVuSans-38"/>
       <use xlink:href="#DejaVuSans-30" transform="translate(63.623047 0)"/>
       <use xlink:href="#DejaVuSans-30" transform="translate(127.246094 0)"/>
       <use xlink:href="#DejaVuSans-30" transform="translate(190.869141 0)"/>
       <use xlink:href="#DejaVuSans-30" transform="translate(254.492188 0)"/>
      </g>
     </g>
    </g>
    <g id="xtick_6">
     <g id="line2d_6">
      <g>
       <use xlink:href="#m53d40d8099" x="679.889676" y="390.04" style="stroke: #000000; stroke-width: 0.8"/>
      </g>
     </g>
     <g id="text_6">
      <!-- 100000 -->
      <g transform="translate(660.802176 404.638438) scale(0.1 -0.1)">
       <defs>
        <path id="DejaVuSans-31" d="M 794 531 
L 1825 531 
L 1825 4091 
L 703 3866 
L 703 4441 
L 1819 4666 
L 2450 4666 
L 2450 531 
L 3481 531 
L 3481 0 
L 794 0 
L 794 531 
z
" transform="scale(0.015625)"/>
       </defs>
       <use xlink:href="#DejaVuSans-31"/>
       <use xlink:href="#DejaVuSans-30" transform="translate(63.623047 0)"/>
       <use xlink:href="#DejaVuSans-30" transform="translate(127.246094 0)"/>
       <use xlink:href="#DejaVuSans-30" transform="translate(190.869141 0)"/>
       <use xlink:href="#DejaVuSans-30" transform="translate(254.492188 0)"/>
       <use xlink:href="#DejaVuSans-30" transform="translate(318.115234 0)"/>
      </g>
     </g>
    </g>
    <g id="text_7">
     <!-- Step -->
     <g transform="translate(368.739844 418.316562) scale(0.1 -0.1)">
      <defs>
       <path id="DejaVuSans-53" d="M 3425 4513 
L 3425 3897 
Q 3066 4069 2747 4153 
Q 2428 4238 2131 4238 
Q 1616 4238 1336 4038 
Q 1056 3838 1056 3469 
Q 1056 3159 1242 3001 
Q 1428 2844 1947 2747 
L 2328 2669 
Q 3034 2534 3370 2195 
Q 3706 1856 3706 1288 
Q 3706 609 3251 259 
Q 2797 -91 1919 -91 
Q 1588 -91 1214 -16 
Q 841 59 441 206 
L 441 856 
Q 825 641 1194 531 
Q 1563 422 1919 422 
Q 2459 422 2753 634 
Q 3047 847 3047 1241 
Q 3047 1584 2836 1778 
Q 2625 1972 2144 2069 
L 1759 2144 
Q 1053 2284 737 2584 
Q 422 2884 422 3419 
Q 422 4038 858 4394 
Q 1294 4750 2059 4750 
Q 2388 4750 2728 4690 
Q 3069 4631 3425 4513 
z
" transform="scale(0.015625)"/>
       <path id="DejaVuSans-74" d="M 1172 4494 
L 1172 3500 
L 2356 3500 
L 2356 3053 
L 1172 3053 
L 1172 1153 
Q 1172 725 1289 603 
Q 1406 481 1766 481 
L 2356 481 
L 2356 0 
L 1766 0 
Q 1100 0 847 248 
Q 594 497 594 1153 
L 594 3053 
L 172 3053 
L 172 3500 
L 594 3500 
L 594 4494 
L 1172 4494 
z
" transform="scale(0.015625)"/>
       <path id="DejaVuSans-65" d="M 3597 1894 
L 3597 1613 
L 953 1613 
Q 991 1019 1311 708 
Q 1631 397 2203 397 
Q 2534 397 2845 478 
Q 3156 559 3463 722 
L 3463 178 
Q 3153 47 2828 -22 
Q 2503 -91 2169 -91 
Q 1331 -91 842 396 
Q 353 884 353 1716 
Q 353 2575 817 3079 
Q 1281 3584 2069 3584 
Q 2775 3584 3186 3129 
Q 3597 2675 3597 1894 
z
M 3022 2063 
Q 3016 2534 2758 2815 
Q 2500 3097 2075 3097 
Q 1594 3097 1305 2825 
Q 1016 2553 972 2059 
L 3022 2063 
z
" transform="scale(0.015625)"/>
       <path id="DejaVuSans-70" d="M 1159 525 
L 1159 -1331 
L 581 -1331 
L 581 3500 
L 1159 3500 
L 1159 2969 
Q 1341 3281 1617 3432 
Q 1894 3584 2278 3584 
Q 2916 3584 3314 3078 
Q 3713 2572 3713 1747 
Q 3713 922 3314 415 
Q 2916 -91 2278 -91 
Q 1894 -91 1617 61 
Q 1341 213 1159 525 
z
M 3116 1747 
Q 3116 2381 2855 2742 
Q 2594 3103 2138 3103 
Q 1681 3103 1420 2742 
Q 1159 2381 1159 1747 
Q 1159 1113 1420 752 
Q 1681 391 2138 391 
Q 2594 391 2855 752 
Q 3116 1113 3116 1747 
z
" transform="scale(0.015625)"/>
      </defs>
      <use xlink:href="#DejaVuSans-53"/>
      <use xlink:href="#DejaVuSans-74" transform="translate(63.476562 0)"/>
      <use xlink:href="#DejaVuSans-65" transform="translate(102.685547 0)"/>
      <use xlink:href="#DejaVuSans-70" transform="translate(164.208984 0)"/>
     </g>
    </g>
   </g>
   <g id="matplotlib.axis_2">
    <g id="ytick_1">
     <g id="line2d_7">
      <defs>
       <path id="m0318601ddb" d="M 0 0 
L -3.5 0 
" style="stroke: #000000; stroke-width: 0.8"/>
      </defs>
      <g>
       <use xlink:href="#m0318601ddb" x="51.05" y="347.970769" style="stroke: #000000; stroke-width: 0.8"/>
      </g>
     </g>
     <g id="text_8">
      <!-- 110 -->
      <g transform="translate(24.9625 351.769988) scale(0.1 -0.1)">
       <use xlink:href="#DejaVuSans-31"/>
       <use xlink:href="#DejaVuSans-31" transform="translate(63.623047 0)"/>
       <use xlink:href="#DejaVuSans-30" transform="translate(127.246094 0)"/>
      </g>
     </g>
    </g>
    <g id="ytick_2">
     <g id="line2d_8">
      <g>
       <use xlink:href="#m0318601ddb" x="51.05" y="305.476597" style="stroke: #000000; stroke-width: 0.8"/>
      </g>
     </g>
     <g id="text_9">
      <!-- 120 -->
      <g transform="translate(24.9625 309.275815) scale(0.1 -0.1)">
       <use xlink:href="#DejaVuSans-31"/>
       <use xlink:href="#DejaVuSans-32" transform="translate(63.623047 0)"/>
       <use xlink:href="#DejaVuSans-30" transform="translate(127.246094 0)"/>
      </g>
     </g>
    </g>
    <g id="ytick_3">
     <g id="line2d_9">
      <g>
       <use xlink:href="#m0318601ddb" x="51.05" y="262.982424" style="stroke: #000000; stroke-width: 0.8"/>
      </g>
     </g>
     <g id="text_10">
      <!-- 130 -->
      <g transform="translate(24.9625 266.781643) scale(0.1 -0.1)">
       <defs>
        <path id="DejaVuSans-33" d="M 2597 2516 
Q 3050 2419 3304 2112 
Q 3559 1806 3559 1356 
Q 3559 666 3084 287 
Q 2609 -91 1734 -91 
Q 1441 -91 1130 -33 
Q 819 25 488 141 
L 488 750 
Q 750 597 1062 519 
Q 1375 441 1716 441 
Q 2309 441 2620 675 
Q 2931 909 2931 1356 
Q 2931 1769 2642 2001 
Q 2353 2234 1838 2234 
L 1294 2234 
L 1294 2753 
L 1863 2753 
Q 2328 2753 2575 2939 
Q 2822 3125 2822 3475 
Q 2822 3834 2567 4026 
Q 2313 4219 1838 4219 
Q 1578 4219 1281 4162 
Q 984 4106 628 3988 
L 628 4550 
Q 988 4650 1302 4700 
Q 1616 4750 1894 4750 
Q 2613 4750 3031 4423 
Q 3450 4097 3450 3541 
Q 3450 3153 3228 2886 
Q 3006 2619 2597 2516 
z
" transform="scale(0.015625)"/>
       </defs>
       <use xlink:href="#DejaVuSans-31"/>
       <use xlink:href="#DejaVuSans-33" transform="translate(63.623047 0)"/>
       <use xlink:href="#DejaVuSans-30" transform="translate(127.246094 0)"/>
      </g>
     </g>
    </g>
    <g id="ytick_4">
     <g id="line2d_10">
      <g>
       <use xlink:href="#m0318601ddb" x="51.05" y="220.488252" style="stroke: #000000; stroke-width: 0.8"/>
      </g>
     </g>
     <g id="text_11">
      <!-- 140 -->
      <g transform="translate(24.9625 224.28747) scale(0.1 -0.1)">
       <use xlink:href="#DejaVuSans-31"/>
       <use xlink:href="#DejaVuSans-34" transform="translate(63.623047 0)"/>
       <use xlink:href="#DejaVuSans-30" transform="translate(127.246094 0)"/>
      </g>
     </g>
    </g>
    <g id="ytick_5">
     <g id="line2d_11">
      <g>
       <use xlink:href="#m0318601ddb" x="51.05" y="177.994079" style="stroke: #000000; stroke-width: 0.8"/>
      </g>
     </g>
     <g id="text_12">
      <!-- 150 -->
      <g transform="translate(24.9625 181.793298) scale(0.1 -0.1)">
       <defs>
        <path id="DejaVuSans-35" d="M 691 4666 
L 3169 4666 
L 3169 4134 
L 1269 4134 
L 1269 2991 
Q 1406 3038 1543 3061 
Q 1681 3084 1819 3084 
Q 2600 3084 3056 2656 
Q 3513 2228 3513 1497 
Q 3513 744 3044 326 
Q 2575 -91 1722 -91 
Q 1428 -91 1123 -41 
Q 819 9 494 109 
L 494 744 
Q 775 591 1075 516 
Q 1375 441 1709 441 
Q 2250 441 2565 725 
Q 2881 1009 2881 1497 
Q 2881 1984 2565 2268 
Q 2250 2553 1709 2553 
Q 1456 2553 1204 2497 
Q 953 2441 691 2322 
L 691 4666 
z
" transform="scale(0.015625)"/>
       </defs>
       <use xlink:href="#DejaVuSans-31"/>
       <use xlink:href="#DejaVuSans-35" transform="translate(63.623047 0)"/>
       <use xlink:href="#DejaVuSans-30" transform="translate(127.246094 0)"/>
      </g>
     </g>
    </g>
    <g id="ytick_6">
     <g id="line2d_12">
      <g>
       <use xlink:href="#m0318601ddb" x="51.05" y="135.499907" style="stroke: #000000; stroke-width: 0.8"/>
      </g>
     </g>
     <g id="text_13">
      <!-- 160 -->
      <g transform="translate(24.9625 139.299126) scale(0.1 -0.1)">
       <use xlink:href="#DejaVuSans-31"/>
       <use xlink:href="#DejaVuSans-36" transform="translate(63.623047 0)"/>
       <use xlink:href="#DejaVuSans-30" transform="translate(127.246094 0)"/>
      </g>
     </g>
    </g>
    <g id="ytick_7">
     <g id="line2d_13">
      <g>
       <use xlink:href="#m0318601ddb" x="51.05" y="93.005734" style="stroke: #000000; stroke-width: 0.8"/>
      </g>
     </g>
     <g id="text_14">
      <!-- 170 -->
      <g transform="translate(24.9625 96.804953) scale(0.1 -0.1)">
       <defs>
        <path id="DejaVuSans-37" d="M 525 4666 
L 3525 4666 
L 3525 4397 
L 1831 0 
L 1172 0 
L 2766 4134 
L 525 4134 
L 525 4666 
z
" transform="scale(0.015625)"/>
       </defs>
       <use xlink:href="#DejaVuSans-31"/>
       <use xlink:href="#DejaVuSans-37" transform="translate(63.623047 0)"/>
       <use xlink:href="#DejaVuSans-30" transform="translate(127.246094 0)"/>
      </g>
     </g>
    </g>
    <g id="ytick_8">
     <g id="line2d_14">
      <g>
       <use xlink:href="#m0318601ddb" x="51.05" y="50.511562" style="stroke: #000000; stroke-width: 0.8"/>
      </g>
     </g>
     <g id="text_15">
      <!-- 180 -->
      <g transform="translate(24.9625 54.310781) scale(0.1 -0.1)">
       <use xlink:href="#DejaVuSans-31"/>
       <use xlink:href="#DejaVuSans-38" transform="translate(63.623047 0)"/>
       <use xlink:href="#DejaVuSans-30" transform="translate(127.246094 0)"/>
      </g>
     </g>
    </g>
    <g id="text_16">
     <!-- charts/SPS -->
     <g transform="translate(18.882812 234.39) rotate(-90) scale(0.1 -0.1)">
      <defs>
       <path id="DejaVuSans-63" d="M 3122 3366 
L 3122 2828 
Q 2878 2963 2633 3030 
Q 2388 3097 2138 3097 
Q 1578 3097 1268 2742 
Q 959 2388 959 1747 
Q 959 1106 1268 751 
Q 1578 397 2138 397 
Q 2388 397 2633 464 
Q 2878 531 3122 666 
L 3122 134 
Q 2881 22 2623 -34 
Q 2366 -91 2075 -91 
Q 1284 -91 818 406 
Q 353 903 353 1747 
Q 353 2603 823 3093 
Q 1294 3584 2113 3584 
Q 2378 3584 2631 3529 
Q 2884 3475 3122 3366 
z
" transform="scale(0.015625)"/>
       <path id="DejaVuSans-68" d="M 3513 2113 
L 3513 0 
L 2938 0 
L 2938 2094 
Q 2938 2591 2744 2837 
Q 2550 3084 2163 3084 
Q 1697 3084 1428 2787 
Q 1159 2491 1159 1978 
L 1159 0 
L 581 0 
L 581 4863 
L 1159 4863 
L 1159 2956 
Q 1366 3272 1645 3428 
Q 1925 3584 2291 3584 
Q 2894 3584 3203 3211 
Q 3513 2838 3513 2113 
z
" transform="scale(0.015625)"/>
       <path id="DejaVuSans-61" d="M 2194 1759 
Q 1497 1759 1228 1600 
Q 959 1441 959 1056 
Q 959 750 1161 570 
Q 1363 391 1709 391 
Q 2188 391 2477 730 
Q 2766 1069 2766 1631 
L 2766 1759 
L 2194 1759 
z
M 3341 1997 
L 3341 0 
L 2766 0 
L 2766 531 
Q 2569 213 2275 61 
Q 1981 -91 1556 -91 
Q 1019 -91 701 211 
Q 384 513 384 1019 
Q 384 1609 779 1909 
Q 1175 2209 1959 2209 
L 2766 2209 
L 2766 2266 
Q 2766 2663 2505 2880 
Q 2244 3097 1772 3097 
Q 1472 3097 1187 3025 
Q 903 2953 641 2809 
L 641 3341 
Q 956 3463 1253 3523 
Q 1550 3584 1831 3584 
Q 2591 3584 2966 3190 
Q 3341 2797 3341 1997 
z
" transform="scale(0.015625)"/>
       <path id="DejaVuSans-72" d="M 2631 2963 
Q 2534 3019 2420 3045 
Q 2306 3072 2169 3072 
Q 1681 3072 1420 2755 
Q 1159 2438 1159 1844 
L 1159 0 
L 581 0 
L 581 3500 
L 1159 3500 
L 1159 2956 
Q 1341 3275 1631 3429 
Q 1922 3584 2338 3584 
Q 2397 3584 2469 3576 
Q 2541 3569 2628 3553 
L 2631 2963 
z
" transform="scale(0.015625)"/>
       <path id="DejaVuSans-73" d="M 2834 3397 
L 2834 2853 
Q 2591 2978 2328 3040 
Q 2066 3103 1784 3103 
Q 1356 3103 1142 2972 
Q 928 2841 928 2578 
Q 928 2378 1081 2264 
Q 1234 2150 1697 2047 
L 1894 2003 
Q 2506 1872 2764 1633 
Q 3022 1394 3022 966 
Q 3022 478 2636 193 
Q 2250 -91 1575 -91 
Q 1294 -91 989 -36 
Q 684 19 347 128 
L 347 722 
Q 666 556 975 473 
Q 1284 391 1588 391 
Q 1994 391 2212 530 
Q 2431 669 2431 922 
Q 2431 1156 2273 1281 
Q 2116 1406 1581 1522 
L 1381 1569 
Q 847 1681 609 1914 
Q 372 2147 372 2553 
Q 372 3047 722 3315 
Q 1072 3584 1716 3584 
Q 2034 3584 2315 3537 
Q 2597 3491 2834 3397 
z
" transform="scale(0.015625)"/>
       <path id="DejaVuSans-2f" d="M 1625 4666 
L 2156 4666 
L 531 -594 
L 0 -594 
L 1625 4666 
z
" transform="scale(0.015625)"/>
       <path id="DejaVuSans-50" d="M 1259 4147 
L 1259 2394 
L 2053 2394 
Q 2494 2394 2734 2622 
Q 2975 2850 2975 3272 
Q 2975 3691 2734 3919 
Q 2494 4147 2053 4147 
L 1259 4147 
z
M 628 4666 
L 2053 4666 
Q 2838 4666 3239 4311 
Q 3641 3956 3641 3272 
Q 3641 2581 3239 2228 
Q 2838 1875 2053 1875 
L 1259 1875 
L 1259 0 
L 628 0 
L 628 4666 
z
" transform="scale(0.015625)"/>
      </defs>
      <use xlink:href="#DejaVuSans-63"/>
      <use xlink:href="#DejaVuSans-68" transform="translate(54.980469 0)"/>
      <use xlink:href="#DejaVuSans-61" transform="translate(118.359375 0)"/>
      <use xlink:href="#DejaVuSans-72" transform="translate(179.638672 0)"/>
      <use xlink:href="#DejaVuSans-74" transform="translate(220.751953 0)"/>
      <use xlink:href="#DejaVuSans-73" transform="translate(259.960938 0)"/>
      <use xlink:href="#DejaVuSans-2f" transform="translate(312.060547 0)"/>
      <use xlink:href="#DejaVuSans-53" transform="translate(345.751953 0)"/>
      <use xlink:href="#DejaVuSans-50" transform="translate(409.228516 0)"/>
      <use xlink:href="#DejaVuSans-53" transform="translate(469.53125 0)"/>
     </g>
    </g>
   </g>
   <g id="line2d_15">
    <path d="M 80.965909 338.807963 
L 82.163743 299.771626 
L 83.361577 267.119385 
L 84.559412 240.470403 
L 85.757246 217.608118 
L 88.152914 181.685202 
L 89.949666 160.919844 
L 91.746417 143.670943 
L 92.944251 134.34025 
L 93.543168 130.108379 
L 96.537754 113.609719 
L 97.735588 107.676114 
L 98.334505 104.91814 
L 98.933422 103.049449 
L 100.131256 97.738209 
L 102.526925 89.307832 
L 104.323676 85.627077 
L 105.52151 82.330615 
L 107.917179 78.923558 
L 108.516096 77.67577 
L 109.115013 76.814136 
L 111.510681 75.285872 
L 112.109598 75.09778 
L 112.708515 74.779818 
L 113.90635 73.963778 
L 115.703101 73.521795 
L 116.900935 73.129261 
L 117.499852 72.735796 
L 118.098769 72.121273 
L 118.697686 71.799324 
L 119.895521 71.891442 
L 121.093355 71.821788 
L 122.291189 71.126579 
L 122.890106 71.197031 
L 123.489023 71.152633 
L 124.08794 71.305233 
L 124.686857 71.146784 
L 125.285774 71.360265 
L 127.082526 71.441085 
L 127.681443 71.891442 
L 128.28036 71.943284 
L 130.077111 73.099485 
L 133.071697 73.772894 
L 134.269531 74.818234 
L 134.868448 75.083291 
L 137.264116 77.056462 
L 138.461951 77.719237 
L 139.060868 77.858146 
L 140.258702 78.374436 
L 141.456536 79.283259 
L 143.852204 80.481598 
L 145.648956 81.800767 
L 146.84679 81.955761 
L 149.242458 82.481089 
L 151.03921 83.367979 
L 152.237044 83.668927 
L 153.434878 83.798796 
L 154.033795 84.104529 
L 154.632712 84.670001 
L 155.231629 85.073834 
L 157.028381 85.649143 
L 158.825132 86.459734 
L 159.424049 86.631608 
L 160.621883 86.702724 
L 161.819717 86.897197 
L 163.017552 87.095259 
L 164.814303 87.74381 
L 165.41322 88.078388 
L 167.808888 88.809887 
L 170.204557 89.202421 
L 171.402391 89.642676 
L 172.600225 90.217054 
L 173.798059 90.349848 
L 174.396977 90.462305 
L 174.995894 90.784255 
L 177.990479 91.544997 
L 180.386148 91.567861 
L 181.583982 91.810586 
L 182.182899 91.829063 
L 183.380733 92.076174 
L 183.97965 92.104355 
L 184.578567 92.329135 
L 185.177484 92.208969 
L 185.776401 92.228376 
L 186.375319 92.474557 
L 186.974236 92.481336 
L 187.573153 92.607351 
L 188.17207 92.615061 
L 188.770987 92.875333 
L 189.369904 93.007595 
L 190.567738 93.532924 
L 191.166655 93.536911 
L 191.765572 93.664787 
L 192.963407 94.185197 
L 195.359075 94.200883 
L 196.556909 94.698828 
L 197.155826 94.73206 
L 198.35366 95.10944 
L 200.150412 95.237848 
L 200.749329 95.475123 
L 201.947163 95.631844 
L 206.139583 96.458386 
L 210.93092 96.539471 
L 212.128754 96.723974 
L 214.524422 96.989563 
L 218.117925 97.053102 
L 219.315759 97.122357 
L 221.711427 97.231889 
L 222.909262 97.572582 
L 224.706013 97.795899 
L 225.30493 98.051917 
L 226.502764 98.138054 
L 227.101681 98.317506 
L 229.49735 98.389021 
L 230.096267 98.583094 
L 231.893018 98.642912 
L 232.491935 98.848683 
L 233.689769 98.925249 
L 234.288686 99.271126 
L 235.486521 99.37986 
L 236.684355 99.416282 
L 237.283272 99.662198 
L 237.882189 99.778243 
L 239.080023 99.790605 
L 239.67894 99.911037 
L 241.475692 99.917551 
L 242.673526 100.176626 
L 243.272443 100.178753 
L 243.87136 100.30942 
L 246.267028 100.30942 
L 246.865945 100.561716 
L 252.256199 100.575009 
L 253.454034 100.685072 
L 254.651868 100.840597 
L 259.443205 100.936039 
L 261.239956 101.23898 
L 264.833458 101.321262 
L 266.63021 101.371774 
L 272.020464 101.43651 
L 273.218298 101.504569 
L 276.212883 101.559069 
L 277.410718 101.637363 
L 280.405303 101.681628 
L 281.603137 101.902952 
L 282.800971 101.864536 
L 283.998806 101.770157 
L 287.592308 101.850312 
L 288.191225 102.193796 
L 289.987977 102.434129 
L 293.581479 102.446225 
L 295.977148 102.965306 
L 297.174982 102.968629 
L 298.372816 103.230895 
L 299.57065 103.230895 
L 300.169567 103.359701 
L 309.153324 103.496483 
L 309.752241 103.601894 
L 310.351158 103.837176 
L 311.548992 103.894866 
L 312.746826 103.992966 
L 313.944661 104.02766 
L 314.543578 103.933947 
L 318.735997 104.243933 
L 319.933832 104.241008 
L 322.928417 104.426043 
L 324.725168 104.357187 
L 325.324085 104.293249 
L 325.923003 104.359181 
L 326.52192 104.554983 
L 328.318671 104.691632 
L 331.912174 104.742942 
L 333.110008 104.95722 
L 335.505676 105.047478 
L 336.104593 104.998295 
L 337.901345 105.355603 
L 340.297013 105.253648 
L 341.494847 105.355603 
L 343.890516 105.377669 
L 344.489433 105.467794 
L 345.08835 105.355603 
L 346.885101 105.503152 
L 347.484018 105.621192 
L 349.879687 105.613748 
L 350.478604 105.494379 
L 351.077521 105.621192 
L 352.275355 105.619597 
L 352.874272 105.488397 
L 353.473189 105.488397 
L 354.072106 105.6184 
L 355.26994 105.621192 
L 355.868857 105.746808 
L 357.066692 105.621192 
L 357.665609 105.621192 
L 358.863443 105.753986 
L 360.061277 105.753986 
L 360.660194 105.640067 
L 361.259111 105.733648 
L 361.858028 105.642992 
L 363.055863 105.753986 
L 365.451531 105.856207 
L 367.847199 105.88678 
L 377.429873 105.959757 
L 378.627707 106.019575 
L 381.023376 106.083778 
L 382.22121 106.152369 
L 391.803883 106.190253 
L 393.001718 106.285163 
L 403.782225 106.293803 
L 404.381143 106.417957 
L 410.969231 106.417957 
L 412.167065 106.550752 
L 413.364899 106.550752 
L 414.562733 106.683546 
L 424.744324 106.773804 
L 426.541075 106.81634 
L 430.134578 106.739243 
L 431.332412 106.683546 
L 432.530246 106.745091 
L 433.72808 106.683546 
L 434.925915 106.949135 
L 443.310754 106.994064 
L 444.508588 107.081929 
L 449.299925 107.112236 
L 450.497759 107.214723 
L 452.29451 107.191727 
L 453.492345 107.081929 
L 455.888013 107.096152 
L 457.085847 107.347517 
L 458.882599 107.35443 
L 459.481516 107.480312 
L 463.075018 107.480312 
L 463.673935 107.608321 
L 478.646863 107.796014 
L 479.24578 108.058678 
L 480.443614 108.144283 
L 482.240365 108.17685 
L 483.4382 108.277078 
L 488.229536 108.209019 
L 489.427371 108.144283 
L 491.224122 108.277078 
L 515.180806 108.279337 
L 515.779723 108.409872 
L 534.346153 108.498135 
L 536.142904 108.542666 
L 539.736407 108.61777 
L 540.934241 108.67546 
L 545.725578 108.735942 
L 548.121246 108.941049 
L 552.912583 108.983984 
L 553.5115 109.073843 
L 554.709334 108.979598 
L 555.907169 109.073843 
L 570.880096 109.073843 
L 571.479013 109.204245 
L 575.671433 109.326804 
L 579.863852 109.472226 
L 581.061687 109.60502 
L 585.853023 109.509712 
L 587.649775 109.472226 
L 589.446526 109.558762 
L 591.243277 109.60502 
L 593.638946 109.52872 
L 594.237863 109.472226 
L 596.034614 109.60502 
L 610.408625 109.640379 
L 611.606459 109.737815 
L 661.316578 109.781681 
L 662.514412 109.870609 
L 669.1025 109.895466 
L 669.701417 110.003403 
L 672.696003 110.003403 
L 673.893837 109.990243 
L 674.492754 109.882307 
L 675.091671 109.993168 
L 675.690588 109.870609 
L 679.284091 109.870609 
L 679.284091 109.870609 
" clip-path="url(#p191555067c)" style="fill: none; stroke: #ff0000; stroke-width: 1.5; stroke-linecap: square"/>
   </g>
   <g id="patch_3">
    <path d="M 51.05 390.04 
L 51.05 25.44 
" style="fill: none; stroke: #000000; stroke-width: 0.8; stroke-linejoin: miter; stroke-linecap: square"/>
   </g>
   <g id="patch_4">
    <path d="M 709.2 390.04 
L 709.2 25.44 
" style="fill: none; stroke: #000000; stroke-width: 0.8; stroke-linejoin: miter; stroke-linecap: square"/>
   </g>
   <g id="patch_5">
    <path d="M 51.05 390.04 
L 709.2 390.04 
" style="fill: none; stroke: #000000; stroke-width: 0.8; stroke-linejoin: miter; stroke-linecap: square"/>
   </g>
   <g id="patch_6">
    <path d="M 51.05 25.44 
L 709.2 25.44 
" style="fill: none; stroke: #000000; stroke-width: 0.8; stroke-linejoin: miter; stroke-linecap: square"/>
   </g>
   <g id="text_17">
    <!-- charts/SPS for ddqn_atari (aggregated via interpolation over runs) -->
    <g transform="translate(181.368438 19.44) scale(0.12 -0.12)">
     <defs>
      <path id="DejaVuSans-20" transform="scale(0.015625)"/>
      <path id="DejaVuSans-66" d="M 2375 4863 
L 2375 4384 
L 1825 4384 
Q 1516 4384 1395 4259 
Q 1275 4134 1275 3809 
L 1275 3500 
L 2222 3500 
L 2222 3053 
L 1275 3053 
L 1275 0 
L 697 0 
L 697 3053 
L 147 3053 
L 147 3500 
L 697 3500 
L 697 3744 
Q 697 4328 969 4595 
Q 1241 4863 1831 4863 
L 2375 4863 
z
" transform="scale(0.015625)"/>
      <path id="DejaVuSans-6f" d="M 1959 3097 
Q 1497 3097 1228 2736 
Q 959 2375 959 1747 
Q 959 1119 1226 758 
Q 1494 397 1959 397 
Q 2419 397 2687 759 
Q 2956 1122 2956 1747 
Q 2956 2369 2687 2733 
Q 2419 3097 1959 3097 
z
M 1959 3584 
Q 2709 3584 3137 3096 
Q 3566 2609 3566 1747 
Q 3566 888 3137 398 
Q 2709 -91 1959 -91 
Q 1206 -91 779 398 
Q 353 888 353 1747 
Q 353 2609 779 3096 
Q 1206 3584 1959 3584 
z
" transform="scale(0.015625)"/>
      <path id="DejaVuSans-64" d="M 2906 2969 
L 2906 4863 
L 3481 4863 
L 3481 0 
L 2906 0 
L 2906 525 
Q 2725 213 2448 61 
Q 2172 -91 1784 -91 
Q 1150 -91 751 415 
Q 353 922 353 1747 
Q 353 2572 751 3078 
Q 1150 3584 1784 3584 
Q 2172 3584 2448 3432 
Q 2725 3281 2906 2969 
z
M 947 1747 
Q 947 1113 1208 752 
Q 1469 391 1925 391 
Q 2381 391 2643 752 
Q 2906 1113 2906 1747 
Q 2906 2381 2643 2742 
Q 2381 3103 1925 3103 
Q 1469 3103 1208 2742 
Q 947 2381 947 1747 
z
" transform="scale(0.015625)"/>
      <path id="DejaVuSans-71" d="M 947 1747 
Q 947 1113 1208 752 
Q 1469 391 1925 391 
Q 2381 391 2643 752 
Q 2906 1113 2906 1747 
Q 2906 2381 2643 2742 
Q 2381 3103 1925 3103 
Q 1469 3103 1208 2742 
Q 947 2381 947 1747 
z
M 2906 525 
Q 2725 213 2448 61 
Q 2172 -91 1784 -91 
Q 1150 -91 751 415 
Q 353 922 353 1747 
Q 353 2572 751 3078 
Q 1150 3584 1784 3584 
Q 2172 3584 2448 3432 
Q 2725 3281 2906 2969 
L 2906 3500 
L 3481 3500 
L 3481 -1331 
L 2906 -1331 
L 2906 525 
z
" transform="scale(0.015625)"/>
      <path id="DejaVuSans-6e" d="M 3513 2113 
L 3513 0 
L 2938 0 
L 2938 2094 
Q 2938 2591 2744 2837 
Q 2550 3084 2163 3084 
Q 1697 3084 1428 2787 
Q 1159 2491 1159 1978 
L 1159 0 
L 581 0 
L 581 3500 
L 1159 3500 
L 1159 2956 
Q 1366 3272 1645 3428 
Q 1925 3584 2291 3584 
Q 2894 3584 3203 3211 
Q 3513 2838 3513 2113 
z
" transform="scale(0.015625)"/>
      <path id="DejaVuSans-5f" d="M 3263 -1063 
L 3263 -1509 
L -63 -1509 
L -63 -1063 
L 3263 -1063 
z
" transform="scale(0.015625)"/>
      <path id="DejaVuSans-69" d="M 603 3500 
L 1178 3500 
L 1178 0 
L 603 0 
L 603 3500 
z
M 603 4863 
L 1178 4863 
L 1178 4134 
L 603 4134 
L 603 4863 
z
" transform="scale(0.015625)"/>
      <path id="DejaVuSans-28" d="M 1984 4856 
Q 1566 4138 1362 3434 
Q 1159 2731 1159 2009 
Q 1159 1288 1364 580 
Q 1569 -128 1984 -844 
L 1484 -844 
Q 1016 -109 783 600 
Q 550 1309 550 2009 
Q 550 2706 781 3412 
Q 1013 4119 1484 4856 
L 1984 4856 
z
" transform="scale(0.015625)"/>
      <path id="DejaVuSans-67" d="M 2906 1791 
Q 2906 2416 2648 2759 
Q 2391 3103 1925 3103 
Q 1463 3103 1205 2759 
Q 947 2416 947 1791 
Q 947 1169 1205 825 
Q 1463 481 1925 481 
Q 2391 481 2648 825 
Q 2906 1169 2906 1791 
z
M 3481 434 
Q 3481 -459 3084 -895 
Q 2688 -1331 1869 -1331 
Q 1566 -1331 1297 -1286 
Q 1028 -1241 775 -1147 
L 775 -588 
Q 1028 -725 1275 -790 
Q 1522 -856 1778 -856 
Q 2344 -856 2625 -561 
Q 2906 -266 2906 331 
L 2906 616 
Q 2728 306 2450 153 
Q 2172 0 1784 0 
Q 1141 0 747 490 
Q 353 981 353 1791 
Q 353 2603 747 3093 
Q 1141 3584 1784 3584 
Q 2172 3584 2450 3431 
Q 2728 3278 2906 2969 
L 2906 3500 
L 3481 3500 
L 3481 434 
z
" transform="scale(0.015625)"/>
      <path id="DejaVuSans-76" d="M 191 3500 
L 800 3500 
L 1894 563 
L 2988 3500 
L 3597 3500 
L 2284 0 
L 1503 0 
L 191 3500 
z
" transform="scale(0.015625)"/>
      <path id="DejaVuSans-6c" d="M 603 4863 
L 1178 4863 
L 1178 0 
L 603 0 
L 603 4863 
z
" transform="scale(0.015625)"/>
      <path id="DejaVuSans-75" d="M 544 1381 
L 544 3500 
L 1119 3500 
L 1119 1403 
Q 1119 906 1312 657 
Q 1506 409 1894 409 
Q 2359 409 2629 706 
Q 2900 1003 2900 1516 
L 2900 3500 
L 3475 3500 
L 3475 0 
L 2900 0 
L 2900 538 
Q 2691 219 2414 64 
Q 2138 -91 1772 -91 
Q 1169 -91 856 284 
Q 544 659 544 1381 
z
M 1991 3584 
L 1991 3584 
z
" transform="scale(0.015625)"/>
      <path id="DejaVuSans-29" d="M 513 4856 
L 1013 4856 
Q 1481 4119 1714 3412 
Q 1947 2706 1947 2009 
Q 1947 1309 1714 600 
Q 1481 -109 1013 -844 
L 513 -844 
Q 928 -128 1133 580 
Q 1338 1288 1338 2009 
Q 1338 2731 1133 3434 
Q 928 4138 513 4856 
z
" transform="scale(0.015625)"/>
     </defs>
     <use xlink:href="#DejaVuSans-63"/>
     <use xlink:href="#DejaVuSans-68" transform="translate(54.980469 0)"/>
     <use xlink:href="#DejaVuSans-61" transform="translate(118.359375 0)"/>
     <use xlink:href="#DejaVuSans-72" transform="translate(179.638672 0)"/>
     <use xlink:href="#DejaVuSans-74" transform="translate(220.751953 0)"/>
     <use xlink:href="#DejaVuSans-73" transform="translate(259.960938 0)"/>
     <use xlink:href="#DejaVuSans-2f" transform="translate(312.060547 0)"/>
     <use xlink:href="#DejaVuSans-53" transform="translate(345.751953 0)"/>
     <use xlink:href="#DejaVuSans-50" transform="translate(409.228516 0)"/>
     <use xlink:href="#DejaVuSans-53" transform="translate(469.53125 0)"/>
     <use xlink:href="#DejaVuSans-20" transform="translate(533.007812 0)"/>
     <use xlink:href="#DejaVuSans-66" transform="translate(564.794922 0)"/>
     <use xlink:href="#DejaVuSans-6f" transform="translate(600 0)"/>
     <use xlink:href="#DejaVuSans-72" transform="translate(661.181641 0)"/>
     <use xlink:href="#DejaVuSans-20" transform="translate(702.294922 0)"/>
     <use xlink:href="#DejaVuSans-64" transform="translate(734.082031 0)"/>
     <use xlink:href="#DejaVuSans-64" transform="translate(797.558594 0)"/>
     <use xlink:href="#DejaVuSans-71" transform="translate(861.035156 0)"/>
     <use xlink:href="#DejaVuSans-6e" transform="translate(924.511719 0)"/>
     <use xlink:href="#DejaVuSans-5f" transform="translate(987.890625 0)"/>
     <use xlink:href="#DejaVuSans-61" transform="translate(1037.890625 0)"/>
     <use xlink:href="#DejaVuSans-74" transform="translate(1099.169922 0)"/>
     <use xlink:href="#DejaVuSans-61" transform="translate(1138.378906 0)"/>
     <use xlink:href="#DejaVuSans-72" transform="translate(1199.658203 0)"/>
     <use xlink:href="#DejaVuSans-69" transform="translate(1240.771484 0)"/>
     <use xlink:href="#DejaVuSans-20" transform="translate(1268.554688 0)"/>
     <use xlink:href="#DejaVuSans-28" transform="translate(1300.341797 0)"/>
     <use xlink:href="#DejaVuSans-61" transform="translate(1339.355469 0)"/>
     <use xlink:href="#DejaVuSans-67" transform="translate(1400.634766 0)"/>
     <use xlink:href="#DejaVuSans-67" transform="translate(1464.111328 0)"/>
     <use xlink:href="#DejaVuSans-72" transform="translate(1527.587891 0)"/>
     <use xlink:href="#DejaVuSans-65" transform="translate(1566.451172 0)"/>
     <use xlink:href="#DejaVuSans-67" transform="translate(1627.974609 0)"/>
     <use xlink:href="#DejaVuSans-61" transform="translate(1691.451172 0)"/>
     <use xlink:href="#DejaVuSans-74" transform="translate(1752.730469 0)"/>
     <use xlink:href="#DejaVuSans-65" transform="translate(1791.939453 0)"/>
     <use xlink:href="#DejaVuSans-64" transform="translate(1853.462891 0)"/>
     <use xlink:href="#DejaVuSans-20" transform="translate(1916.939453 0)"/>
     <use xlink:href="#DejaVuSans-76" transform="translate(1948.726562 0)"/>
     <use xlink:href="#DejaVuSans-69" transform="translate(2007.90625 0)"/>
     <use xlink:href="#DejaVuSans-61" transform="translate(2035.689453 0)"/>
     <use xlink:href="#DejaVuSans-20" transform="translate(2096.96875 0)"/>
     <use xlink:href="#DejaVuSans-69" transform="translate(2128.755859 0)"/>
     <use xlink:href="#DejaVuSans-6e" transform="translate(2156.539062 0)"/>
     <use xlink:href="#DejaVuSans-74" transform="translate(2219.917969 0)"/>
     <use xlink:href="#DejaVuSans-65" transform="translate(2259.126953 0)"/>
     <use xlink:href="#DejaVuSans-72" transform="translate(2320.650391 0)"/>
     <use xlink:href="#DejaVuSans-70" transform="translate(2361.763672 0)"/>
     <use xlink:href="#DejaVuSans-6f" transform="translate(2425.240234 0)"/>
     <use xlink:href="#DejaVuSans-6c" transform="translate(2486.421875 0)"/>
     <use xlink:href="#DejaVuSans-61" transform="translate(2514.205078 0)"/>
     <use xlink:href="#DejaVuSans-74" transform="translate(2575.484375 0)"/>
     <use xlink:href="#DejaVuSans-69" transform="translate(2614.693359 0)"/>
     <use xlink:href="#DejaVuSans-6f" transform="translate(2642.476562 0)"/>
     <use xlink:href="#DejaVuSans-6e" transform="translate(2703.658203 0)"/>
     <use xlink:href="#DejaVuSans-20" transform="translate(2767.037109 0)"/>
     <use xlink:href="#DejaVuSans-6f" transform="translate(2798.824219 0)"/>
     <use xlink:href="#DejaVuSans-76" transform="translate(2860.005859 0)"/>
     <use xlink:href="#DejaVuSans-65" transform="translate(2919.185547 0)"/>
     <use xlink:href="#DejaVuSans-72" transform="translate(2980.708984 0)"/>
     <use xlink:href="#DejaVuSans-20" transform="translate(3021.822266 0)"/>
     <use xlink:href="#DejaVuSans-72" transform="translate(3053.609375 0)"/>
     <use xlink:href="#DejaVuSans-75" transform="translate(3094.722656 0)"/>
     <use xlink:href="#DejaVuSans-6e" transform="translate(3158.101562 0)"/>
     <use xlink:href="#DejaVuSans-73" transform="translate(3221.480469 0)"/>
     <use xlink:href="#DejaVuSans-29" transform="translate(3273.580078 0)"/>
    </g>
   </g>
   <g id="legend_1">
    <g id="patch_7">
     <path d="M 626.78125 62.79625 
L 702.2 62.79625 
Q 704.2 62.79625 704.2 60.79625 
L 704.2 32.44 
Q 704.2 30.44 702.2 30.44 
L 626.78125 30.44 
Q 624.78125 30.44 624.78125 32.44 
L 624.78125 60.79625 
Q 624.78125 62.79625 626.78125 62.79625 
z
" style="fill: #ffffff; opacity: 0.8; stroke: #cccccc; stroke-linejoin: miter"/>
    </g>
    <g id="line2d_16">
     <path d="M 628.78125 38.538437 
L 638.78125 38.538437 
L 648.78125 38.538437 
" style="fill: none; stroke: #ff0000; stroke-width: 1.5; stroke-linecap: square"/>
    </g>
    <g id="text_18">
     <!-- Mean -->
     <g transform="translate(656.78125 42.038437) scale(0.1 -0.1)">
      <defs>
       <path id="DejaVuSans-4d" d="M 628 4666 
L 1569 4666 
L 2759 1491 
L 3956 4666 
L 4897 4666 
L 4897 0 
L 4281 0 
L 4281 4097 
L 3078 897 
L 2444 897 
L 1241 4097 
L 1241 0 
L 628 0 
L 628 4666 
z
" transform="scale(0.015625)"/>
      </defs>
      <use xlink:href="#DejaVuSans-4d"/>
      <use xlink:href="#DejaVuSans-65" transform="translate(86.279297 0)"/>
      <use xlink:href="#DejaVuSans-61" transform="translate(147.802734 0)"/>
      <use xlink:href="#DejaVuSans-6e" transform="translate(209.082031 0)"/>
     </g>
    </g>
    <g id="patch_8">
     <path d="M 628.78125 56.716563 
L 648.78125 56.716563 
L 648.78125 49.716563 
L 628.78125 49.716563 
z
" style="fill: #ff0000; fill-opacity: 0.3; stroke: #ff0000; stroke-opacity: 0.3; stroke-linejoin: miter"/>
    </g>
    <g id="text_19">
     <!-- MinMax -->
     <g transform="translate(656.78125 56.716563) scale(0.1 -0.1)">
      <defs>
       <path id="DejaVuSans-2013" d="M 313 1978 
L 2888 1978 
L 2888 1528 
L 313 1528 
L 313 1978 
z
" transform="scale(0.015625)"/>
       <path id="DejaVuSans-78" d="M 3513 3500 
L 2247 1797 
L 3578 0 
L 2900 0 
L 1881 1375 
L 863 0 
L 184 0 
L 1544 1831 
L 300 3500 
L 978 3500 
L 1906 2253 
L 2834 3500 
L 3513 3500 
z
" transform="scale(0.015625)"/>
      </defs>
      <use xlink:href="#DejaVuSans-4d"/>
      <use xlink:href="#DejaVuSans-69" transform="translate(86.279297 0)"/>
      <use xlink:href="#DejaVuSans-6e" transform="translate(114.0625 0)"/>
      <use xlink:href="#DejaVuSans-2013" transform="translate(177.441406 0)"/>
      <use xlink:href="#DejaVuSans-4d" transform="translate(227.441406 0)"/>
      <use xlink:href="#DejaVuSans-61" transform="translate(313.720703 0)"/>
      <use xlink:href="#DejaVuSans-78" transform="translate(375 0)"/>
     </g>
    </g>
   </g>
  </g>
 </g>
 <defs>
  <clipPath id="p191555067c">
   <rect x="51.05" y="25.44" width="658.15" height="364.6"/>
  </clipPath>
 </defs>
</svg>
