<?xml version="1.0" encoding="utf-8" standalone="no"?>
<!DOCTYPE svg PUBLIC "-//W3C//DTD SVG 1.1//EN"
  "http://www.w3.org/Graphics/SVG/1.1/DTD/svg11.dtd">
<svg xmlns:xlink="http://www.w3.org/1999/xlink" width="720pt" height="432pt" viewBox="0 0 720 432" xmlns="http://www.w3.org/2000/svg" version="1.1">
 <metadata>
  <rdf:RDF xmlns:dc="http://purl.org/dc/elements/1.1/" xmlns:cc="http://creativecommons.org/ns#" xmlns:rdf="http://www.w3.org/1999/02/22-rdf-syntax-ns#">
   <cc:Work>
    <dc:type rdf:resource="http://purl.org/dc/dcmitype/StillImage"/>
    <dc:date>2025-02-05T21:32:09.162054</dc:date>
    <dc:format>image/svg+xml</dc:format>
    <dc:creator>
     <cc:Agent>
      <dc:title>Matplotlib v3.10.0, https://matplotlib.org/</dc:title>
     </cc:Agent>
    </dc:creator>
   </cc:Work>
  </rdf:RDF>
 </metadata>
 <defs>
  <style type="text/css">*{stroke-linejoin: round; stroke-linecap: butt}</style>
 </defs>
 <g id="figure_1">
  <g id="patch_1">
   <path d="M 0 432 
L 720 432 
L 720 0 
L 0 0 
z
" style="fill: #ffffff"/>
  </g>
  <g id="axes_1">
   <g id="patch_2">
    <path d="M 46.64 390.04 
L 709.2 390.04 
L 709.2 25.44 
L 46.64 25.44 
z
" style="fill: #ffffff"/>
   </g>
   <g id="matplotlib.axis_1">
    <g id="xtick_1">
     <g id="line2d_1">
      <defs>
       <path id="md70b444d94" d="M 0 0 
L 0 3.5 
" style="stroke: #000000; stroke-width: 0.8"/>
      </defs>
      <g>
       <use xlink:href="#md70b444d94" x="75.917518" y="390.04" style="stroke: #000000; stroke-width: 0.8"/>
      </g>
     </g>
     <g id="text_1">
      <!-- 0 -->
      <g transform="translate(72.736268 404.638438) scale(0.1 -0.1)">
       <defs>
        <path id="DejaVuSans-30" d="M 2034 4250 
Q 1547 4250 1301 3770 
Q 1056 3291 1056 2328 
Q 1056 1369 1301 889 
Q 1547 409 2034 409 
Q 2525 409 2770 889 
Q 3016 1369 3016 2328 
Q 3016 3291 2770 3770 
Q 2525 4250 2034 4250 
z
M 2034 4750 
Q 2819 4750 3233 4129 
Q 3647 3509 3647 2328 
Q 3647 1150 3233 529 
Q 2819 -91 2034 -91 
Q 1250 -91 836 529 
Q 422 1150 422 2328 
Q 422 3509 836 4129 
Q 1250 4750 2034 4750 
z
" transform="scale(0.015625)"/>
       </defs>
       <use xlink:href="#DejaVuSans-30"/>
      </g>
     </g>
    </g>
    <g id="xtick_2">
     <g id="line2d_2">
      <g>
       <use xlink:href="#md70b444d94" x="196.614711" y="390.04" style="stroke: #000000; stroke-width: 0.8"/>
      </g>
     </g>
     <g id="text_2">
      <!-- 20000 -->
      <g transform="translate(180.708461 404.638438) scale(0.1 -0.1)">
       <defs>
        <path id="DejaVuSans-32" d="M 1228 531 
L 3431 531 
L 3431 0 
L 469 0 
L 469 531 
Q 828 903 1448 1529 
Q 2069 2156 2228 2338 
Q 2531 2678 2651 2914 
Q 2772 3150 2772 3378 
Q 2772 3750 2511 3984 
Q 2250 4219 1831 4219 
Q 1534 4219 1204 4116 
Q 875 4013 500 3803 
L 500 4441 
Q 881 4594 1212 4672 
Q 1544 4750 1819 4750 
Q 2544 4750 2975 4387 
Q 3406 4025 3406 3419 
Q 3406 3131 3298 2873 
Q 3191 2616 2906 2266 
Q 2828 2175 2409 1742 
Q 1991 1309 1228 531 
z
" transform="scale(0.015625)"/>
       </defs>
       <use xlink:href="#DejaVuSans-32"/>
       <use xlink:href="#DejaVuSans-30" transform="translate(63.623047 0)"/>
       <use xlink:href="#DejaVuSans-30" transform="translate(127.246094 0)"/>
       <use xlink:href="#DejaVuSans-30" transform="translate(190.869141 0)"/>
       <use xlink:href="#DejaVuSans-30" transform="translate(254.492188 0)"/>
      </g>
     </g>
    </g>
    <g id="xtick_3">
     <g id="line2d_3">
      <g>
       <use xlink:href="#md70b444d94" x="317.311904" y="390.04" style="stroke: #000000; stroke-width: 0.8"/>
      </g>
     </g>
     <g id="text_3">
      <!-- 40000 -->
      <g transform="translate(301.405654 404.638438) scale(0.1 -0.1)">
       <defs>
        <path id="DejaVuSans-34" d="M 2419 4116 
L 825 1625 
L 2419 1625 
L 2419 4116 
z
M 2253 4666 
L 3047 4666 
L 3047 1625 
L 3713 1625 
L 3713 1100 
L 3047 1100 
L 3047 0 
L 2419 0 
L 2419 1100 
L 313 1100 
L 313 1709 
L 2253 4666 
z
" transform="scale(0.015625)"/>
       </defs>
       <use xlink:href="#DejaVuSans-34"/>
       <use xlink:href="#DejaVuSans-30" transform="translate(63.623047 0)"/>
       <use xlink:href="#DejaVuSans-30" transform="translate(127.246094 0)"/>
       <use xlink:href="#DejaVuSans-30" transform="translate(190.869141 0)"/>
       <use xlink:href="#DejaVuSans-30" transform="translate(254.492188 0)"/>
      </g>
     </g>
    </g>
    <g id="xtick_4">
     <g id="line2d_4">
      <g>
       <use xlink:href="#md70b444d94" x="438.009098" y="390.04" style="stroke: #000000; stroke-width: 0.8"/>
      </g>
     </g>
     <g id="text_4">
      <!-- 60000 -->
      <g transform="translate(422.102848 404.638438) scale(0.1 -0.1)">
       <defs>
        <path id="DejaVuSans-36" d="M 2113 2584 
Q 1688 2584 1439 2293 
Q 1191 2003 1191 1497 
Q 1191 994 1439 701 
Q 1688 409 2113 409 
Q 2538 409 2786 701 
Q 3034 994 3034 1497 
Q 3034 2003 2786 2293 
Q 2538 2584 2113 2584 
z
M 3366 4563 
L 3366 3988 
Q 3128 4100 2886 4159 
Q 2644 4219 2406 4219 
Q 1781 4219 1451 3797 
Q 1122 3375 1075 2522 
Q 1259 2794 1537 2939 
Q 1816 3084 2150 3084 
Q 2853 3084 3261 2657 
Q 3669 2231 3669 1497 
Q 3669 778 3244 343 
Q 2819 -91 2113 -91 
Q 1303 -91 875 529 
Q 447 1150 447 2328 
Q 447 3434 972 4092 
Q 1497 4750 2381 4750 
Q 2619 4750 2861 4703 
Q 3103 4656 3366 4563 
z
" transform="scale(0.015625)"/>
       </defs>
       <use xlink:href="#DejaVuSans-36"/>
       <use xlink:href="#DejaVuSans-30" transform="translate(63.623047 0)"/>
       <use xlink:href="#DejaVuSans-30" transform="translate(127.246094 0)"/>
       <use xlink:href="#DejaVuSans-30" transform="translate(190.869141 0)"/>
       <use xlink:href="#DejaVuSans-30" transform="translate(254.492188 0)"/>
      </g>
     </g>
    </g>
    <g id="xtick_5">
     <g id="line2d_5">
      <g>
       <use xlink:href="#md70b444d94" x="558.706291" y="390.04" style="stroke: #000000; stroke-width: 0.8"/>
      </g>
     </g>
     <g id="text_5">
      <!-- 80000 -->
      <g transform="translate(542.800041 404.638438) scale(0.1 -0.1)">
       <defs>
        <path id="DejaVuSans-38" d="M 2034 2216 
Q 1584 2216 1326 1975 
Q 1069 1734 1069 1313 
Q 1069 891 1326 650 
Q 1584 409 2034 409 
Q 2484 409 2743 651 
Q 3003 894 3003 1313 
Q 3003 1734 2745 1975 
Q 2488 2216 2034 2216 
z
M 1403 2484 
Q 997 2584 770 2862 
Q 544 3141 544 3541 
Q 544 4100 942 4425 
Q 1341 4750 2034 4750 
Q 2731 4750 3128 4425 
Q 3525 4100 3525 3541 
Q 3525 3141 3298 2862 
Q 3072 2584 2669 2484 
Q 3125 2378 3379 2068 
Q 3634 1759 3634 1313 
Q 3634 634 3220 271 
Q 2806 -91 2034 -91 
Q 1263 -91 848 271 
Q 434 634 434 1313 
Q 434 1759 690 2068 
Q 947 2378 1403 2484 
z
M 1172 3481 
Q 1172 3119 1398 2916 
Q 1625 2713 2034 2713 
Q 2441 2713 2670 2916 
Q 2900 3119 2900 3481 
Q 2900 3844 2670 4047 
Q 2441 4250 2034 4250 
Q 1625 4250 1398 4047 
Q 1172 3844 1172 3481 
z
" transform="scale(0.015625)"/>
       </defs>
       <use xlink:href="#DejaVuSans-38"/>
       <use xlink:href="#DejaVuSans-30" transform="translate(63.623047 0)"/>
       <use xlink:href="#DejaVuSans-30" transform="translate(127.246094 0)"/>
       <use xlink:href="#DejaVuSans-30" transform="translate(190.869141 0)"/>
       <use xlink:href="#DejaVuSans-30" transform="translate(254.492188 0)"/>
      </g>
     </g>
    </g>
    <g id="xtick_6">
     <g id="line2d_6">
      <g>
       <use xlink:href="#md70b444d94" x="679.403484" y="390.04" style="stroke: #000000; stroke-width: 0.8"/>
      </g>
     </g>
     <g id="text_6">
      <!-- 100000 -->
      <g transform="translate(660.315984 404.638438) scale(0.1 -0.1)">
       <defs>
        <path id="DejaVuSans-31" d="M 794 531 
L 1825 531 
L 1825 4091 
L 703 3866 
L 703 4441 
L 1819 4666 
L 2450 4666 
L 2450 531 
L 3481 531 
L 3481 0 
L 794 0 
L 794 531 
z
" transform="scale(0.015625)"/>
       </defs>
       <use xlink:href="#DejaVuSans-31"/>
       <use xlink:href="#DejaVuSans-30" transform="translate(63.623047 0)"/>
       <use xlink:href="#DejaVuSans-30" transform="translate(127.246094 0)"/>
       <use xlink:href="#DejaVuSans-30" transform="translate(190.869141 0)"/>
       <use xlink:href="#DejaVuSans-30" transform="translate(254.492188 0)"/>
       <use xlink:href="#DejaVuSans-30" transform="translate(318.115234 0)"/>
      </g>
     </g>
    </g>
    <g id="text_7">
     <!-- Step -->
     <g transform="translate(366.534844 418.316562) scale(0.1 -0.1)">
      <defs>
       <path id="DejaVuSans-53" d="M 3425 4513 
L 3425 3897 
Q 3066 4069 2747 4153 
Q 2428 4238 2131 4238 
Q 1616 4238 1336 4038 
Q 1056 3838 1056 3469 
Q 1056 3159 1242 3001 
Q 1428 2844 1947 2747 
L 2328 2669 
Q 3034 2534 3370 2195 
Q 3706 1856 3706 1288 
Q 3706 609 3251 259 
Q 2797 -91 1919 -91 
Q 1588 -91 1214 -16 
Q 841 59 441 206 
L 441 856 
Q 825 641 1194 531 
Q 1563 422 1919 422 
Q 2459 422 2753 634 
Q 3047 847 3047 1241 
Q 3047 1584 2836 1778 
Q 2625 1972 2144 2069 
L 1759 2144 
Q 1053 2284 737 2584 
Q 422 2884 422 3419 
Q 422 4038 858 4394 
Q 1294 4750 2059 4750 
Q 2388 4750 2728 4690 
Q 3069 4631 3425 4513 
z
" transform="scale(0.015625)"/>
       <path id="DejaVuSans-74" d="M 1172 4494 
L 1172 3500 
L 2356 3500 
L 2356 3053 
L 1172 3053 
L 1172 1153 
Q 1172 725 1289 603 
Q 1406 481 1766 481 
L 2356 481 
L 2356 0 
L 1766 0 
Q 1100 0 847 248 
Q 594 497 594 1153 
L 594 3053 
L 172 3053 
L 172 3500 
L 594 3500 
L 594 4494 
L 1172 4494 
z
" transform="scale(0.015625)"/>
       <path id="DejaVuSans-65" d="M 3597 1894 
L 3597 1613 
L 953 1613 
Q 991 1019 1311 708 
Q 1631 397 2203 397 
Q 2534 397 2845 478 
Q 3156 559 3463 722 
L 3463 178 
Q 3153 47 2828 -22 
Q 2503 -91 2169 -91 
Q 1331 -91 842 396 
Q 353 884 353 1716 
Q 353 2575 817 3079 
Q 1281 3584 2069 3584 
Q 2775 3584 3186 3129 
Q 3597 2675 3597 1894 
z
M 3022 2063 
Q 3016 2534 2758 2815 
Q 2500 3097 2075 3097 
Q 1594 3097 1305 2825 
Q 1016 2553 972 2059 
L 3022 2063 
z
" transform="scale(0.015625)"/>
       <path id="DejaVuSans-70" d="M 1159 525 
L 1159 -1331 
L 581 -1331 
L 581 3500 
L 1159 3500 
L 1159 2969 
Q 1341 3281 1617 3432 
Q 1894 3584 2278 3584 
Q 2916 3584 3314 3078 
Q 3713 2572 3713 1747 
Q 3713 922 3314 415 
Q 2916 -91 2278 -91 
Q 1894 -91 1617 61 
Q 1341 213 1159 525 
z
M 3116 1747 
Q 3116 2381 2855 2742 
Q 2594 3103 2138 3103 
Q 1681 3103 1420 2742 
Q 1159 2381 1159 1747 
Q 1159 1113 1420 752 
Q 1681 391 2138 391 
Q 2594 391 2855 752 
Q 3116 1113 3116 1747 
z
" transform="scale(0.015625)"/>
      </defs>
      <use xlink:href="#DejaVuSans-53"/>
      <use xlink:href="#DejaVuSans-74" transform="translate(63.476562 0)"/>
      <use xlink:href="#DejaVuSans-65" transform="translate(102.685547 0)"/>
      <use xlink:href="#DejaVuSans-70" transform="translate(164.208984 0)"/>
     </g>
    </g>
   </g>
   <g id="matplotlib.axis_2">
    <g id="ytick_1">
     <g id="line2d_7">
      <defs>
       <path id="m4bdf3f6767" d="M 0 0 
L -3.5 0 
" style="stroke: #000000; stroke-width: 0.8"/>
      </defs>
      <g>
       <use xlink:href="#m4bdf3f6767" x="46.64" y="350.905413" style="stroke: #000000; stroke-width: 0.8"/>
      </g>
     </g>
     <g id="text_8">
      <!-- −5 -->
      <g transform="translate(24.897813 354.704632) scale(0.1 -0.1)">
       <defs>
        <path id="DejaVuSans-2212" d="M 678 2272 
L 4684 2272 
L 4684 1741 
L 678 1741 
L 678 2272 
z
" transform="scale(0.015625)"/>
        <path id="DejaVuSans-35" d="M 691 4666 
L 3169 4666 
L 3169 4134 
L 1269 4134 
L 1269 2991 
Q 1406 3038 1543 3061 
Q 1681 3084 1819 3084 
Q 2600 3084 3056 2656 
Q 3513 2228 3513 1497 
Q 3513 744 3044 326 
Q 2575 -91 1722 -91 
Q 1428 -91 1123 -41 
Q 819 9 494 109 
L 494 744 
Q 775 591 1075 516 
Q 1375 441 1709 441 
Q 2250 441 2565 725 
Q 2881 1009 2881 1497 
Q 2881 1984 2565 2268 
Q 2250 2553 1709 2553 
Q 1456 2553 1204 2497 
Q 953 2441 691 2322 
L 691 4666 
z
" transform="scale(0.015625)"/>
       </defs>
       <use xlink:href="#DejaVuSans-2212"/>
       <use xlink:href="#DejaVuSans-35" transform="translate(83.789062 0)"/>
      </g>
     </g>
    </g>
    <g id="ytick_2">
     <g id="line2d_8">
      <g>
       <use xlink:href="#m4bdf3f6767" x="46.64" y="299.259913" style="stroke: #000000; stroke-width: 0.8"/>
      </g>
     </g>
     <g id="text_9">
      <!-- −4 -->
      <g transform="translate(24.897813 303.059132) scale(0.1 -0.1)">
       <use xlink:href="#DejaVuSans-2212"/>
       <use xlink:href="#DejaVuSans-34" transform="translate(83.789062 0)"/>
      </g>
     </g>
    </g>
    <g id="ytick_3">
     <g id="line2d_9">
      <g>
       <use xlink:href="#m4bdf3f6767" x="46.64" y="247.614413" style="stroke: #000000; stroke-width: 0.8"/>
      </g>
     </g>
     <g id="text_10">
      <!-- −3 -->
      <g transform="translate(24.897813 251.413632) scale(0.1 -0.1)">
       <defs>
        <path id="DejaVuSans-33" d="M 2597 2516 
Q 3050 2419 3304 2112 
Q 3559 1806 3559 1356 
Q 3559 666 3084 287 
Q 2609 -91 1734 -91 
Q 1441 -91 1130 -33 
Q 819 25 488 141 
L 488 750 
Q 750 597 1062 519 
Q 1375 441 1716 441 
Q 2309 441 2620 675 
Q 2931 909 2931 1356 
Q 2931 1769 2642 2001 
Q 2353 2234 1838 2234 
L 1294 2234 
L 1294 2753 
L 1863 2753 
Q 2328 2753 2575 2939 
Q 2822 3125 2822 3475 
Q 2822 3834 2567 4026 
Q 2313 4219 1838 4219 
Q 1578 4219 1281 4162 
Q 984 4106 628 3988 
L 628 4550 
Q 988 4650 1302 4700 
Q 1616 4750 1894 4750 
Q 2613 4750 3031 4423 
Q 3450 4097 3450 3541 
Q 3450 3153 3228 2886 
Q 3006 2619 2597 2516 
z
" transform="scale(0.015625)"/>
       </defs>
       <use xlink:href="#DejaVuSans-2212"/>
       <use xlink:href="#DejaVuSans-33" transform="translate(83.789062 0)"/>
      </g>
     </g>
    </g>
    <g id="ytick_4">
     <g id="line2d_10">
      <g>
       <use xlink:href="#m4bdf3f6767" x="46.64" y="195.968913" style="stroke: #000000; stroke-width: 0.8"/>
      </g>
     </g>
     <g id="text_11">
      <!-- −2 -->
      <g transform="translate(24.897813 199.768132) scale(0.1 -0.1)">
       <use xlink:href="#DejaVuSans-2212"/>
       <use xlink:href="#DejaVuSans-32" transform="translate(83.789062 0)"/>
      </g>
     </g>
    </g>
    <g id="ytick_5">
     <g id="line2d_11">
      <g>
       <use xlink:href="#m4bdf3f6767" x="46.64" y="144.323413" style="stroke: #000000; stroke-width: 0.8"/>
      </g>
     </g>
     <g id="text_12">
      <!-- −1 -->
      <g transform="translate(24.897813 148.122632) scale(0.1 -0.1)">
       <use xlink:href="#DejaVuSans-2212"/>
       <use xlink:href="#DejaVuSans-31" transform="translate(83.789062 0)"/>
      </g>
     </g>
    </g>
    <g id="ytick_6">
     <g id="line2d_12">
      <g>
       <use xlink:href="#m4bdf3f6767" x="46.64" y="92.677914" style="stroke: #000000; stroke-width: 0.8"/>
      </g>
     </g>
     <g id="text_13">
      <!-- 0 -->
      <g transform="translate(33.2775 96.477132) scale(0.1 -0.1)">
       <use xlink:href="#DejaVuSans-30"/>
      </g>
     </g>
    </g>
    <g id="ytick_7">
     <g id="line2d_13">
      <g>
       <use xlink:href="#m4bdf3f6767" x="46.64" y="41.032414" style="stroke: #000000; stroke-width: 0.8"/>
      </g>
     </g>
     <g id="text_14">
      <!-- 1 -->
      <g transform="translate(33.2775 44.831632) scale(0.1 -0.1)">
       <use xlink:href="#DejaVuSans-31"/>
      </g>
     </g>
    </g>
    <g id="text_15">
     <!-- Normalized (human) Episodic Return -->
     <g transform="translate(18.818125 299.495469) rotate(-90) scale(0.1 -0.1)">
      <defs>
       <path id="DejaVuSans-4e" d="M 628 4666 
L 1478 4666 
L 3547 763 
L 3547 4666 
L 4159 4666 
L 4159 0 
L 3309 0 
L 1241 3903 
L 1241 0 
L 628 0 
L 628 4666 
z
" transform="scale(0.015625)"/>
       <path id="DejaVuSans-6f" d="M 1959 3097 
Q 1497 3097 1228 2736 
Q 959 2375 959 1747 
Q 959 1119 1226 758 
Q 1494 397 1959 397 
Q 2419 397 2687 759 
Q 2956 1122 2956 1747 
Q 2956 2369 2687 2733 
Q 2419 3097 1959 3097 
z
M 1959 3584 
Q 2709 3584 3137 3096 
Q 3566 2609 3566 1747 
Q 3566 888 3137 398 
Q 2709 -91 1959 -91 
Q 1206 -91 779 398 
Q 353 888 353 1747 
Q 353 2609 779 3096 
Q 1206 3584 1959 3584 
z
" transform="scale(0.015625)"/>
       <path id="DejaVuSans-72" d="M 2631 2963 
Q 2534 3019 2420 3045 
Q 2306 3072 2169 3072 
Q 1681 3072 1420 2755 
Q 1159 2438 1159 1844 
L 1159 0 
L 581 0 
L 581 3500 
L 1159 3500 
L 1159 2956 
Q 1341 3275 1631 3429 
Q 1922 3584 2338 3584 
Q 2397 3584 2469 3576 
Q 2541 3569 2628 3553 
L 2631 2963 
z
" transform="scale(0.015625)"/>
       <path id="DejaVuSans-6d" d="M 3328 2828 
Q 3544 3216 3844 3400 
Q 4144 3584 4550 3584 
Q 5097 3584 5394 3201 
Q 5691 2819 5691 2113 
L 5691 0 
L 5113 0 
L 5113 2094 
Q 5113 2597 4934 2840 
Q 4756 3084 4391 3084 
Q 3944 3084 3684 2787 
Q 3425 2491 3425 1978 
L 3425 0 
L 2847 0 
L 2847 2094 
Q 2847 2600 2669 2842 
Q 2491 3084 2119 3084 
Q 1678 3084 1418 2786 
Q 1159 2488 1159 1978 
L 1159 0 
L 581 0 
L 581 3500 
L 1159 3500 
L 1159 2956 
Q 1356 3278 1631 3431 
Q 1906 3584 2284 3584 
Q 2666 3584 2933 3390 
Q 3200 3197 3328 2828 
z
" transform="scale(0.015625)"/>
       <path id="DejaVuSans-61" d="M 2194 1759 
Q 1497 1759 1228 1600 
Q 959 1441 959 1056 
Q 959 750 1161 570 
Q 1363 391 1709 391 
Q 2188 391 2477 730 
Q 2766 1069 2766 1631 
L 2766 1759 
L 2194 1759 
z
M 3341 1997 
L 3341 0 
L 2766 0 
L 2766 531 
Q 2569 213 2275 61 
Q 1981 -91 1556 -91 
Q 1019 -91 701 211 
Q 384 513 384 1019 
Q 384 1609 779 1909 
Q 1175 2209 1959 2209 
L 2766 2209 
L 2766 2266 
Q 2766 2663 2505 2880 
Q 2244 3097 1772 3097 
Q 1472 3097 1187 3025 
Q 903 2953 641 2809 
L 641 3341 
Q 956 3463 1253 3523 
Q 1550 3584 1831 3584 
Q 2591 3584 2966 3190 
Q 3341 2797 3341 1997 
z
" transform="scale(0.015625)"/>
       <path id="DejaVuSans-6c" d="M 603 4863 
L 1178 4863 
L 1178 0 
L 603 0 
L 603 4863 
z
" transform="scale(0.015625)"/>
       <path id="DejaVuSans-69" d="M 603 3500 
L 1178 3500 
L 1178 0 
L 603 0 
L 603 3500 
z
M 603 4863 
L 1178 4863 
L 1178 4134 
L 603 4134 
L 603 4863 
z
" transform="scale(0.015625)"/>
       <path id="DejaVuSans-7a" d="M 353 3500 
L 3084 3500 
L 3084 2975 
L 922 459 
L 3084 459 
L 3084 0 
L 275 0 
L 275 525 
L 2438 3041 
L 353 3041 
L 353 3500 
z
" transform="scale(0.015625)"/>
       <path id="DejaVuSans-64" d="M 2906 2969 
L 2906 4863 
L 3481 4863 
L 3481 0 
L 2906 0 
L 2906 525 
Q 2725 213 2448 61 
Q 2172 -91 1784 -91 
Q 1150 -91 751 415 
Q 353 922 353 1747 
Q 353 2572 751 3078 
Q 1150 3584 1784 3584 
Q 2172 3584 2448 3432 
Q 2725 3281 2906 2969 
z
M 947 1747 
Q 947 1113 1208 752 
Q 1469 391 1925 391 
Q 2381 391 2643 752 
Q 2906 1113 2906 1747 
Q 2906 2381 2643 2742 
Q 2381 3103 1925 3103 
Q 1469 3103 1208 2742 
Q 947 2381 947 1747 
z
" transform="scale(0.015625)"/>
       <path id="DejaVuSans-20" transform="scale(0.015625)"/>
       <path id="DejaVuSans-28" d="M 1984 4856 
Q 1566 4138 1362 3434 
Q 1159 2731 1159 2009 
Q 1159 1288 1364 580 
Q 1569 -128 1984 -844 
L 1484 -844 
Q 1016 -109 783 600 
Q 550 1309 550 2009 
Q 550 2706 781 3412 
Q 1013 4119 1484 4856 
L 1984 4856 
z
" transform="scale(0.015625)"/>
       <path id="DejaVuSans-68" d="M 3513 2113 
L 3513 0 
L 2938 0 
L 2938 2094 
Q 2938 2591 2744 2837 
Q 2550 3084 2163 3084 
Q 1697 3084 1428 2787 
Q 1159 2491 1159 1978 
L 1159 0 
L 581 0 
L 581 4863 
L 1159 4863 
L 1159 2956 
Q 1366 3272 1645 3428 
Q 1925 3584 2291 3584 
Q 2894 3584 3203 3211 
Q 3513 2838 3513 2113 
z
" transform="scale(0.015625)"/>
       <path id="DejaVuSans-75" d="M 544 1381 
L 544 3500 
L 1119 3500 
L 1119 1403 
Q 1119 906 1312 657 
Q 1506 409 1894 409 
Q 2359 409 2629 706 
Q 2900 1003 2900 1516 
L 2900 3500 
L 3475 3500 
L 3475 0 
L 2900 0 
L 2900 538 
Q 2691 219 2414 64 
Q 2138 -91 1772 -91 
Q 1169 -91 856 284 
Q 544 659 544 1381 
z
M 1991 3584 
L 1991 3584 
z
" transform="scale(0.015625)"/>
       <path id="DejaVuSans-6e" d="M 3513 2113 
L 3513 0 
L 2938 0 
L 2938 2094 
Q 2938 2591 2744 2837 
Q 2550 3084 2163 3084 
Q 1697 3084 1428 2787 
Q 1159 2491 1159 1978 
L 1159 0 
L 581 0 
L 581 3500 
L 1159 3500 
L 1159 2956 
Q 1366 3272 1645 3428 
Q 1925 3584 2291 3584 
Q 2894 3584 3203 3211 
Q 3513 2838 3513 2113 
z
" transform="scale(0.015625)"/>
       <path id="DejaVuSans-29" d="M 513 4856 
L 1013 4856 
Q 1481 4119 1714 3412 
Q 1947 2706 1947 2009 
Q 1947 1309 1714 600 
Q 1481 -109 1013 -844 
L 513 -844 
Q 928 -128 1133 580 
Q 1338 1288 1338 2009 
Q 1338 2731 1133 3434 
Q 928 4138 513 4856 
z
" transform="scale(0.015625)"/>
       <path id="DejaVuSans-45" d="M 628 4666 
L 3578 4666 
L 3578 4134 
L 1259 4134 
L 1259 2753 
L 3481 2753 
L 3481 2222 
L 1259 2222 
L 1259 531 
L 3634 531 
L 3634 0 
L 628 0 
L 628 4666 
z
" transform="scale(0.015625)"/>
       <path id="DejaVuSans-73" d="M 2834 3397 
L 2834 2853 
Q 2591 2978 2328 3040 
Q 2066 3103 1784 3103 
Q 1356 3103 1142 2972 
Q 928 2841 928 2578 
Q 928 2378 1081 2264 
Q 1234 2150 1697 2047 
L 1894 2003 
Q 2506 1872 2764 1633 
Q 3022 1394 3022 966 
Q 3022 478 2636 193 
Q 2250 -91 1575 -91 
Q 1294 -91 989 -36 
Q 684 19 347 128 
L 347 722 
Q 666 556 975 473 
Q 1284 391 1588 391 
Q 1994 391 2212 530 
Q 2431 669 2431 922 
Q 2431 1156 2273 1281 
Q 2116 1406 1581 1522 
L 1381 1569 
Q 847 1681 609 1914 
Q 372 2147 372 2553 
Q 372 3047 722 3315 
Q 1072 3584 1716 3584 
Q 2034 3584 2315 3537 
Q 2597 3491 2834 3397 
z
" transform="scale(0.015625)"/>
       <path id="DejaVuSans-63" d="M 3122 3366 
L 3122 2828 
Q 2878 2963 2633 3030 
Q 2388 3097 2138 3097 
Q 1578 3097 1268 2742 
Q 959 2388 959 1747 
Q 959 1106 1268 751 
Q 1578 397 2138 397 
Q 2388 397 2633 464 
Q 2878 531 3122 666 
L 3122 134 
Q 2881 22 2623 -34 
Q 2366 -91 2075 -91 
Q 1284 -91 818 406 
Q 353 903 353 1747 
Q 353 2603 823 3093 
Q 1294 3584 2113 3584 
Q 2378 3584 2631 3529 
Q 2884 3475 3122 3366 
z
" transform="scale(0.015625)"/>
       <path id="DejaVuSans-52" d="M 2841 2188 
Q 3044 2119 3236 1894 
Q 3428 1669 3622 1275 
L 4263 0 
L 3584 0 
L 2988 1197 
Q 2756 1666 2539 1819 
Q 2322 1972 1947 1972 
L 1259 1972 
L 1259 0 
L 628 0 
L 628 4666 
L 2053 4666 
Q 2853 4666 3247 4331 
Q 3641 3997 3641 3322 
Q 3641 2881 3436 2590 
Q 3231 2300 2841 2188 
z
M 1259 4147 
L 1259 2491 
L 2053 2491 
Q 2509 2491 2742 2702 
Q 2975 2913 2975 3322 
Q 2975 3731 2742 3939 
Q 2509 4147 2053 4147 
L 1259 4147 
z
" transform="scale(0.015625)"/>
      </defs>
      <use xlink:href="#DejaVuSans-4e"/>
      <use xlink:href="#DejaVuSans-6f" transform="translate(74.804688 0)"/>
      <use xlink:href="#DejaVuSans-72" transform="translate(135.986328 0)"/>
      <use xlink:href="#DejaVuSans-6d" transform="translate(175.349609 0)"/>
      <use xlink:href="#DejaVuSans-61" transform="translate(272.761719 0)"/>
      <use xlink:href="#DejaVuSans-6c" transform="translate(334.041016 0)"/>
      <use xlink:href="#DejaVuSans-69" transform="translate(361.824219 0)"/>
      <use xlink:href="#DejaVuSans-7a" transform="translate(389.607422 0)"/>
      <use xlink:href="#DejaVuSans-65" transform="translate(442.097656 0)"/>
      <use xlink:href="#DejaVuSans-64" transform="translate(503.621094 0)"/>
      <use xlink:href="#DejaVuSans-20" transform="translate(567.097656 0)"/>
      <use xlink:href="#DejaVuSans-28" transform="translate(598.884766 0)"/>
      <use xlink:href="#DejaVuSans-68" transform="translate(637.898438 0)"/>
      <use xlink:href="#DejaVuSans-75" transform="translate(701.277344 0)"/>
      <use xlink:href="#DejaVuSans-6d" transform="translate(764.65625 0)"/>
      <use xlink:href="#DejaVuSans-61" transform="translate(862.068359 0)"/>
      <use xlink:href="#DejaVuSans-6e" transform="translate(923.347656 0)"/>
      <use xlink:href="#DejaVuSans-29" transform="translate(986.726562 0)"/>
      <use xlink:href="#DejaVuSans-20" transform="translate(1025.740234 0)"/>
      <use xlink:href="#DejaVuSans-45" transform="translate(1057.527344 0)"/>
      <use xlink:href="#DejaVuSans-70" transform="translate(1120.710938 0)"/>
      <use xlink:href="#DejaVuSans-69" transform="translate(1184.1875 0)"/>
      <use xlink:href="#DejaVuSans-73" transform="translate(1211.970703 0)"/>
      <use xlink:href="#DejaVuSans-6f" transform="translate(1264.070312 0)"/>
      <use xlink:href="#DejaVuSans-64" transform="translate(1325.251953 0)"/>
      <use xlink:href="#DejaVuSans-69" transform="translate(1388.728516 0)"/>
      <use xlink:href="#DejaVuSans-63" transform="translate(1416.511719 0)"/>
      <use xlink:href="#DejaVuSans-20" transform="translate(1471.492188 0)"/>
      <use xlink:href="#DejaVuSans-52" transform="translate(1503.279297 0)"/>
      <use xlink:href="#DejaVuSans-65" transform="translate(1568.261719 0)"/>
      <use xlink:href="#DejaVuSans-74" transform="translate(1629.785156 0)"/>
      <use xlink:href="#DejaVuSans-75" transform="translate(1668.994141 0)"/>
      <use xlink:href="#DejaVuSans-72" transform="translate(1732.373047 0)"/>
      <use xlink:href="#DejaVuSans-6e" transform="translate(1771.736328 0)"/>
     </g>
    </g>
   </g>
   <g id="line2d_14">
    <path d="M 79.960874 92.991025 
L 88.948647 93.004259 
L 93.142941 92.54619 
L 100.333159 92.015697 
L 103.329083 91.683277 
L 106.325007 91.916144 
L 110.519301 91.484014 
L 111.717671 91.737686 
L 113.515225 92.206464 
L 114.713595 92.151722 
L 118.907889 91.282877 
L 120.106259 91.103357 
L 121.903813 90.669381 
L 123.102183 90.451453 
L 123.701368 90.261047 
L 124.300553 90.232559 
L 127.895662 91.121097 
L 128.494847 91.123126 
L 132.089956 91.912001 
L 133.288325 91.89769 
L 137.482619 91.490247 
L 138.680989 91.598047 
L 140.478543 90.118433 
L 142.276098 88.051545 
L 142.875283 88.213694 
L 144.672837 89.218175 
L 145.272022 89.836412 
L 145.871207 90.635252 
L 147.668762 91.880529 
L 149.466316 91.680096 
L 151.263871 91.610835 
L 154.259795 90.978235 
L 156.656534 90.881767 
L 165.045122 91.530016 
L 170.437786 91.678568 
L 171.03697 91.730411 
L 172.834525 91.412699 
L 174.63208 90.94076 
L 175.830449 91.191564 
L 177.028819 91.572658 
L 178.227189 91.484306 
L 181.223113 91.088254 
L 187.814146 91.5749 
L 189.012516 91.438134 
L 190.81007 91.065394 
L 191.409255 91.05988 
L 193.20681 90.595414 
L 194.405179 90.072 
L 195.004364 89.7786 
L 195.603549 89.833265 
L 198.599473 90.881039 
L 204.591322 90.798338 
L 205.789691 90.623922 
L 207.587246 90.175953 
L 208.186431 90.06435 
L 209.384801 90.046196 
L 209.983985 89.949801 
L 210.58317 90.165958 
L 211.78154 90.384514 
L 212.97991 91.024991 
L 214.178279 91.249003 
L 215.376649 91.20446 
L 218.372573 91.497033 
L 219.570943 91.603475 
L 224.364422 91.352787 
L 226.161976 91.629166 
L 230.955455 91.391886 
L 234.550564 91.143781 
L 236.947303 91.272408 
L 238.145673 90.977885 
L 241.141597 90.144633 
L 241.740782 90.092011 
L 246.534261 91.208625 
L 248.931 91.211387 
L 250.12937 91.249481 
L 250.728555 91.425582 
L 253.125294 91.579784 
L 254.922849 91.275103 
L 257.319588 90.795827 
L 258.517958 90.796519 
L 259.117143 90.898678 
L 260.315512 91.307052 
L 261.513882 91.471678 
L 262.712252 91.196508 
L 263.910621 90.879351 
L 264.509806 90.837018 
L 266.307361 91.461374 
L 270.501655 88.769354 
L 271.10084 88.708022 
L 274.695949 90.294846 
L 275.894318 90.437472 
L 277.092688 90.569213 
L 278.291058 90.696626 
L 280.088612 90.577582 
L 281.886167 89.404082 
L 284.282906 89.242438 
L 286.080461 90.120304 
L 287.878015 90.523415 
L 288.4772 90.706654 
L 291.473124 90.922117 
L 295.068233 89.948001 
L 296.266603 90.426358 
L 298.663342 91.48352 
L 301.659267 92.032433 
L 303.456821 91.584187 
L 307.651115 90.811328 
L 309.44867 90.385847 
L 313.642964 90.2822 
L 314.841333 90.452554 
L 317.238073 90.933979 
L 317.837257 90.777786 
L 320.833182 89.184432 
L 322.031551 88.511991 
L 322.630736 88.213209 
L 323.229921 88.099189 
L 323.829106 88.315261 
L 325.027476 89.108504 
L 327.424215 90.818685 
L 328.622585 90.386115 
L 331.618509 88.716342 
L 334.614433 90.472573 
L 335.213618 90.832219 
L 335.812803 90.960119 
L 337.610357 91.037577 
L 340.007097 91.138464 
L 343.003021 91.211992 
L 343.602206 91.249977 
L 345.39976 90.900467 
L 345.998945 90.73518 
L 348.994869 89.25906 
L 349.594054 89.069985 
L 350.193239 89.074429 
L 352.589978 90.306683 
L 353.788348 90.657381 
L 354.387533 90.824551 
L 356.784272 90.774096 
L 357.982642 90.734669 
L 360.978566 90.94005 
L 361.577751 91.021656 
L 365.17286 90.222183 
L 365.772045 90.178021 
L 369.966339 91.268127 
L 371.763893 91.369489 
L 372.962263 91.302002 
L 374.160633 91.21542 
L 374.759818 91.272218 
L 377.755742 90.425435 
L 378.354927 90.191682 
L 378.954112 90.106549 
L 382.549221 91.183684 
L 383.74759 91.205704 
L 384.94596 91.251435 
L 386.743515 90.878466 
L 389.140254 89.971314 
L 390.338624 89.142942 
L 392.136178 87.985941 
L 392.735363 87.596477 
L 393.334548 87.506415 
L 394.532918 88.603507 
L 396.330472 90.012916 
L 396.929657 90.003257 
L 398.128027 89.124055 
L 401.123951 86.757471 
L 401.723136 86.602489 
L 404.71906 89.81425 
L 405.318245 89.982698 
L 405.91743 89.924684 
L 409.512539 91.042068 
L 410.710908 91.071562 
L 412.508463 91.45718 
L 413.107648 91.454105 
L 413.706833 91.08593 
L 414.905202 89.84164 
L 416.702757 87.442199 
L 417.301942 87.432031 
L 420.897051 90.23911 
L 422.09542 90.392627 
L 423.892975 90.41952 
L 425.690529 89.547598 
L 429.285639 90.146921 
L 431.682378 91.058863 
L 432.880748 91.456184 
L 435.876672 91.21618 
L 437.075041 90.945535 
L 439.471781 90.711402 
L 446.661999 91.176349 
L 449.058738 90.959934 
L 453.253032 90.802898 
L 455.050587 90.304029 
L 458.046511 89.336142 
L 458.645696 89.296066 
L 461.042435 89.758439 
L 463.439175 90.695544 
L 464.637544 91.097082 
L 465.835914 91.216883 
L 468.232653 91.166944 
L 470.030208 90.660283 
L 471.228578 90.287908 
L 471.827762 89.976259 
L 473.026132 89.025281 
L 474.823687 88.629557 
L 476.621241 88.341126 
L 477.220426 88.052529 
L 477.819611 87.931195 
L 479.017981 89.143496 
L 481.41472 91.093214 
L 483.212275 91.296758 
L 484.410644 91.56914 
L 486.208199 91.578484 
L 491.001677 90.52376 
L 492.200047 90.587472 
L 495.195971 91.108155 
L 496.394341 91.551508 
L 498.79108 91.224497 
L 499.98945 90.836425 
L 501.787005 89.379939 
L 502.985374 88.312721 
L 504.782929 87.491844 
L 505.382114 87.742165 
L 508.378038 90.544228 
L 508.977223 90.939261 
L 512.572332 90.562057 
L 515.568256 88.987315 
L 517.365811 88.141727 
L 520.361735 88.05037 
L 521.560105 88.130746 
L 526.353583 89.259736 
L 526.952768 89.227336 
L 528.750323 88.198187 
L 529.948692 88.190944 
L 530.547877 88.535948 
L 532.944617 90.716879 
L 533.543801 90.992931 
L 535.940541 90.564857 
L 537.138911 90.017941 
L 539.53565 90.018189 
L 541.333204 89.392882 
L 543.130759 89.812187 
L 544.928314 90.298934 
L 545.527498 90.168796 
L 547.325053 89.347727 
L 547.924238 89.371978 
L 548.523423 89.663134 
L 549.122607 89.817564 
L 550.920162 89.316828 
L 553.316901 87.70306 
L 553.916086 87.669139 
L 556.91201 90.842019 
L 557.511195 91.179069 
L 562.304674 90.272992 
L 562.903859 89.999786 
L 565.899783 88.007135 
L 566.498968 88.497497 
L 568.296522 90.578257 
L 568.895707 91.103295 
L 570.094077 91.017408 
L 572.490816 90.146477 
L 573.689186 89.939896 
L 575.486741 90.839704 
L 576.085925 90.927537 
L 577.284295 90.829481 
L 579.08185 90.745643 
L 580.879404 90.500946 
L 582.077774 90.21033 
L 585.073698 90.31553 
L 586.871253 90.623755 
L 589.867177 90.726864 
L 591.065547 90.97353 
L 591.664731 91.159169 
L 592.863101 90.856591 
L 595.25984 90.112549 
L 595.859025 90.075582 
L 598.255765 90.612639 
L 600.652504 90.821992 
L 602.450059 90.42282 
L 604.247613 90.488228 
L 605.445983 90.481833 
L 607.842722 89.781468 
L 608.441907 89.661383 
L 611.437831 91.023764 
L 612.037016 91.152488 
L 613.834571 90.930307 
L 615.03294 91.02102 
L 615.632125 91.119901 
L 618.028865 90.905144 
L 619.826419 91.000629 
L 622.223158 91.424134 
L 623.421528 91.557531 
L 628.215007 91.35578 
L 629.413377 91.438984 
L 633.008486 90.907719 
L 636.00441 89.908581 
L 637.801964 90.301335 
L 639.599519 90.97596 
L 640.797889 90.664878 
L 642.595443 90.04143 
L 643.194628 90.077276 
L 644.992183 90.62985 
L 646.190552 91.036753 
L 647.988107 91.08787 
L 650.984031 90.565775 
L 651.583216 90.44094 
L 653.38077 90.985803 
L 654.57914 91.310021 
L 655.77751 91.140052 
L 656.376695 91.096824 
L 659.971804 91.518961 
L 660.570989 91.491363 
L 661.769358 90.947694 
L 663.566913 89.360769 
L 664.166098 88.708614 
L 664.765282 88.264282 
L 665.963652 88.12836 
L 667.162022 89.632678 
L 668.360391 91.274842 
L 668.959576 91.884316 
L 669.558761 91.874305 
L 672.554685 91.070199 
L 673.753055 91.030984 
L 675.55061 90.95533 
L 678.546534 90.776714 
L 678.546534 90.776714 
" clip-path="url(#p41b8bdf9d4)" style="fill: none; stroke: #ff0000; stroke-width: 1.5; stroke-linecap: square"/>
   </g>
   <g id="line2d_15">
    <path d="M 79.152203 92.795416 
L 85.744765 92.670382 
L 91.738002 92.62365 
L 97.73124 92.642748 
L 101.926507 92.531186 
L 115.11163 92.299033 
L 116.909601 92.091891 
L 117.508925 91.97368 
L 119.90622 92.068376 
L 121.104868 92.214698 
L 123.502163 92.255678 
L 128.296753 92.368321 
L 130.694048 92.517396 
L 134.889315 92.235798 
L 137.28661 92.015771 
L 140.283229 92.212582 
L 144.478496 91.694585 
L 145.077819 91.735043 
L 147.475114 92.323 
L 148.074438 92.380376 
L 150.471733 91.849203 
L 152.869029 91.311697 
L 154.067676 91.315191 
L 157.064295 91.614175 
L 161.259562 91.604291 
L 164.855504 91.110149 
L 168.451447 91.347315 
L 174.444685 91.730721 
L 175.643332 91.462561 
L 176.84198 91.14259 
L 178.639951 91.221644 
L 179.838599 91.401605 
L 184.033865 91.504074 
L 185.831837 91.661894 
L 190.027103 91.435915 
L 191.225751 91.579314 
L 194.821693 91.470655 
L 197.218989 91.672536 
L 199.616284 91.62318 
L 202.013579 91.570434 
L 204.410874 91.769543 
L 206.208845 91.904064 
L 208.006817 91.815718 
L 210.404112 91.721278 
L 211.602759 91.518305 
L 214.000055 91.079112 
L 216.39735 90.867874 
L 218.195321 90.756338 
L 219.993292 91.055954 
L 222.390588 91.698383 
L 225.98653 91.990385 
L 227.185178 91.779451 
L 230.181797 91.173766 
L 230.781121 91.234992 
L 231.979768 91.569375 
L 234.377063 91.956284 
L 236.774358 91.776358 
L 239.770977 91.931489 
L 244.565568 91.730266 
L 246.962863 91.982418 
L 248.16151 92.014319 
L 252.956101 91.360191 
L 255.353396 91.164871 
L 256.552043 91.048716 
L 257.750691 90.923073 
L 260.74731 91.016631 
L 261.346634 90.900284 
L 262.545281 90.959452 
L 269.137843 91.488973 
L 271.535138 91.452807 
L 273.932433 91.261536 
L 279.326347 91.522265 
L 281.124319 91.602569 
L 284.720261 91.154932 
L 285.319585 91.215155 
L 287.71688 91.020007 
L 291.312823 91.645059 
L 294.309442 91.917106 
L 296.706737 92.026155 
L 298.504708 91.830393 
L 300.30268 91.574516 
L 302.699975 91.75141 
L 303.898622 91.789315 
L 308.093889 91.401658 
L 309.89186 91.158633 
L 311.689832 91.349625 
L 314.087127 91.599054 
L 315.885098 91.423542 
L 317.083746 91.30718 
L 327.27225 91.26144 
L 331.467517 90.951463 
L 333.265488 90.734444 
L 335.063459 90.800633 
L 337.460754 91.365959 
L 338.659402 91.42685 
L 342.255345 91.209467 
L 343.453992 91.45867 
L 345.251964 91.530315 
L 350.046554 90.813464 
L 351.245201 90.80007 
L 354.841144 91.839108 
L 358.437087 92.00637 
L 364.430325 91.125309 
L 367.426944 91.255912 
L 368.625591 91.123055 
L 369.824239 90.976697 
L 373.420182 90.80134 
L 375.218153 91.092307 
L 376.4168 91.415601 
L 379.413419 91.877656 
L 383.009362 91.411011 
L 384.807333 91.517216 
L 389.601924 91.818592 
L 394.396514 91.951764 
L 397.992457 91.757635 
L 400.389752 91.902939 
L 401.588399 91.55809 
L 404.585018 90.295258 
L 406.38299 90.180286 
L 407.581637 90.667287 
L 409.379609 91.495258 
L 411.17758 91.648867 
L 413.574875 91.528292 
L 417.770142 91.130767 
L 421.366084 91.019345 
L 425.561351 91.330046 
L 426.759998 91.423379 
L 429.157294 91.705796 
L 432.753236 91.248794 
L 435.150531 90.890764 
L 436.349179 90.865242 
L 437.547827 91.11648 
L 439.945122 91.770255 
L 442.342417 91.881447 
L 447.137007 91.524693 
L 451.931597 91.649281 
L 454.928216 91.5391 
L 457.924835 91.269405 
L 459.722807 91.248552 
L 461.520778 91.510769 
L 464.517397 91.920048 
L 466.315368 91.782977 
L 468.712663 91.515393 
L 476.503873 91.462528 
L 479.500491 91.672667 
L 483.096434 91.766854 
L 485.493729 91.64518 
L 487.291701 91.542208 
L 490.887643 91.662049 
L 493.884262 91.936227 
L 495.682234 91.963645 
L 500.476824 91.794192 
L 503.473443 91.41122 
L 506.470062 91.199056 
L 509.466681 91.631724 
L 510.665328 91.288361 
L 514.860595 90.536343 
L 519.655185 90.922745 
L 524.449775 91.725095 
L 526.247747 91.737359 
L 530.443013 90.948294 
L 531.641661 90.978526 
L 532.240985 91.041731 
L 534.63828 91.729574 
L 535.836927 91.831011 
L 538.234222 91.759881 
L 541.830165 91.418556 
L 547.224079 90.850106 
L 549.022051 90.893215 
L 552.01867 91.768688 
L 553.217317 91.782426 
L 554.415965 91.463237 
L 556.213936 90.834467 
L 557.412584 90.624172 
L 558.011907 90.67645 
L 561.60785 91.646718 
L 562.207174 91.733816 
L 562.806498 91.685825 
L 565.203793 91.143658 
L 567.001764 90.814868 
L 570.597707 91.272118 
L 571.197031 91.312199 
L 572.395678 90.901431 
L 573.594326 90.409748 
L 574.792973 90.261675 
L 575.991621 90.703371 
L 577.190269 91.089736 
L 579.587564 91.554371 
L 581.385535 91.842941 
L 583.183506 91.811451 
L 586.180125 91.878162 
L 589.776068 91.161543 
L 591.574039 91.383402 
L 593.971334 91.652277 
L 597.567277 91.826981 
L 600.563896 91.200231 
L 601.762544 90.955604 
L 604.159839 90.632021 
L 605.358486 90.854966 
L 606.557134 91.245444 
L 607.755782 91.644117 
L 608.954429 91.753285 
L 621.540229 90.921219 
L 624.536848 91.246259 
L 628.13279 91.459699 
L 629.930762 91.65759 
L 631.728733 91.374708 
L 634.725352 90.522405 
L 635.923999 90.756186 
L 638.321295 91.395056 
L 640.71859 91.362032 
L 642.516561 91.617423 
L 643.715209 91.75125 
L 644.913856 91.671878 
L 647.910475 91.232789 
L 649.109123 91.02919 
L 650.30777 91.208974 
L 652.105742 91.648141 
L 653.304389 91.940242 
L 655.701684 91.902057 
L 660.496275 91.422184 
L 664.691541 91.569017 
L 667.088836 91.105798 
L 668.886808 90.664116 
L 677.876664 90.484016 
L 677.876664 90.484016 
" clip-path="url(#p41b8bdf9d4)" style="fill: none; stroke: #0000ff; stroke-width: 1.5; stroke-linecap: square"/>
   </g>
   <g id="line2d_16">
    <path d="M 78.385776 92.329177 
L 80.187154 91.71062 
L 82.588992 90.643075 
L 83.189452 91.177007 
L 84.99083 92.032448 
L 86.191749 91.621153 
L 87.993127 90.430364 
L 89.194046 90.317679 
L 89.794506 90.638183 
L 91.595884 93.070664 
L 92.196344 93.155019 
L 93.997722 92.581602 
L 94.598182 92.241983 
L 95.198641 91.71369 
L 96.39956 90.342792 
L 97.000019 90.575341 
L 100.002317 92.612537 
L 101.203236 93.105431 
L 101.803695 93.030718 
L 102.404155 92.72967 
L 105.406452 90.266422 
L 106.006912 90.489726 
L 107.207831 92.066101 
L 107.80829 92.478735 
L 110.210128 93.036927 
L 112.011506 93.476299 
L 113.812885 93.306218 
L 115.013804 93.102451 
L 116.214723 92.873425 
L 117.415642 92.559316 
L 118.016101 92.264046 
L 119.21702 91.212046 
L 122.219317 88.316756 
L 122.819777 88.367014 
L 125.221615 90.575972 
L 125.822074 90.972081 
L 127.022993 91.303668 
L 129.424831 90.383545 
L 130.62575 89.646004 
L 131.826669 88.839134 
L 132.427128 88.654382 
L 134.228507 88.618679 
L 135.429426 88.67953 
L 137.230804 89.182465 
L 139.032183 89.022515 
L 139.632642 88.951312 
L 140.233102 89.040864 
L 142.03448 90.975105 
L 145.036777 90.907223 
L 145.637237 91.346781 
L 146.838156 92.595099 
L 148.039075 92.423002 
L 149.239994 92.188184 
L 149.840453 91.462537 
L 151.641832 88.491254 
L 152.242291 88.088842 
L 153.44321 87.985752 
L 154.04367 88.113929 
L 154.644129 88.050576 
L 157.646426 89.113717 
L 158.246886 89.87844 
L 160.648724 90.888333 
L 163.050562 92.390449 
L 163.651021 92.631508 
L 167.253778 90.888199 
L 167.854237 90.302449 
L 169.655616 89.274697 
L 170.856535 88.447563 
L 172.657913 87.637674 
L 175.059751 86.455298 
L 176.26067 86.041161 
L 176.86113 86.102895 
L 179.262967 85.846057 
L 181.064346 86.688558 
L 181.664805 86.650917 
L 182.265265 86.106623 
L 182.865724 85.738434 
L 184.667103 85.39588 
L 185.267562 85.118195 
L 186.468481 86.304748 
L 187.068941 86.835599 
L 188.870319 85.829315 
L 189.470779 85.867462 
L 191.872616 87.04128 
L 193.073535 87.94476 
L 193.673995 88.177875 
L 194.274454 88.045916 
L 197.877211 86.40303 
L 200.279049 86.352328 
L 200.879509 86.059078 
L 202.080428 85.109438 
L 202.680887 84.779626 
L 203.881806 84.52228 
L 204.482265 84.774086 
L 205.683184 86.014937 
L 206.884103 87.964789 
L 208.085022 89.884902 
L 208.685482 90.693068 
L 209.285941 91.209319 
L 209.886401 91.532377 
L 210.48686 91.500519 
L 212.288239 91.02868 
L 213.489158 90.492202 
L 215.290536 89.211361 
L 216.491455 88.39203 
L 217.692374 87.912151 
L 218.292833 88.04573 
L 219.493752 88.891061 
L 220.094212 89.357459 
L 220.694671 89.577826 
L 221.295131 89.61032 
L 223.096509 89.160395 
L 223.696969 89.255318 
L 224.897888 90.869125 
L 226.699266 91.409202 
L 229.101104 88.995561 
L 229.701563 88.666672 
L 230.302023 87.924295 
L 230.902482 87.631853 
L 233.30432 87.763291 
L 235.105699 85.000707 
L 236.306618 84.726087 
L 236.907077 84.352758 
L 237.507537 84.814881 
L 238.107996 86.305438 
L 239.308915 87.955795 
L 239.909374 88.466593 
L 240.509834 89.565156 
L 241.110293 89.777853 
L 242.911672 89.321025 
L 245.31351 87.477786 
L 245.913969 87.72759 
L 247.114888 88.908406 
L 248.315807 90.651882 
L 248.916267 90.720814 
L 250.117185 90.246554 
L 252.519023 88.008159 
L 253.119483 87.805949 
L 254.320402 88.074242 
L 255.521321 88.942923 
L 256.12178 89.421301 
L 256.72224 89.524089 
L 257.923159 88.978103 
L 259.724537 87.740767 
L 260.324997 87.436004 
L 264.528213 83.717841 
L 265.128672 83.70358 
L 265.729132 84.394526 
L 266.930051 86.715932 
L 267.53051 87.462592 
L 268.13097 87.741961 
L 268.731429 87.505633 
L 270.532808 86.196437 
L 271.133267 85.958749 
L 271.733727 85.99044 
L 272.334186 86.207754 
L 273.535105 87.364284 
L 274.135564 87.653356 
L 275.336483 87.349896 
L 276.537402 86.57976 
L 278.338781 88.522296 
L 278.93924 89.804615 
L 279.5397 90.807486 
L 280.140159 91.371389 
L 281.341078 90.439237 
L 284.343376 86.767022 
L 284.943835 86.339843 
L 286.144754 85.918637 
L 287.946132 85.481837 
L 289.147051 85.255779 
L 292.749808 84.160951 
L 293.350268 84.258918 
L 293.950727 84.639417 
L 296.352565 87.135387 
L 297.553484 87.50535 
L 300.555781 86.037128 
L 301.156241 86.479147 
L 302.957619 86.914484 
L 303.558079 86.210872 
L 304.758998 84.454726 
L 306.560376 83.943894 
L 307.160836 83.80314 
L 307.761295 84.061252 
L 309.562673 85.329954 
L 310.763592 87.444956 
L 311.964511 89.01204 
L 313.16543 89.754542 
L 314.366349 89.474475 
L 314.966809 89.286781 
L 316.167728 89.431962 
L 318.569566 88.696457 
L 320.971403 87.562931 
L 322.772782 87.450283 
L 323.973701 87.166458 
L 326.975998 83.932781 
L 328.777377 84.322275 
L 331.779674 85.330934 
L 332.980593 86.306279 
L 334.181512 87.023387 
L 335.98289 86.980726 
L 337.784269 88.473785 
L 338.384728 88.60821 
L 338.985188 88.319899 
L 340.186107 87.557283 
L 342.587945 86.495877 
L 345.590242 87.05425 
L 347.39162 87.362908 
L 348.592539 87.823774 
L 349.192999 87.864949 
L 350.393918 87.313617 
L 351.594837 87.271183 
L 353.396215 88.326865 
L 355.197594 88.37647 
L 356.398512 90.243332 
L 356.998972 90.860763 
L 357.599431 90.612864 
L 358.80035 88.754971 
L 360.601729 86.75805 
L 361.202188 86.488759 
L 363.003567 87.928562 
L 363.604026 88.701982 
L 364.204486 89.151233 
L 364.804945 89.295731 
L 366.005864 88.839864 
L 367.206783 87.50351 
L 369.008161 85.388915 
L 369.608621 84.908483 
L 370.20908 85.124139 
L 372.610918 86.9295 
L 373.211378 88.183713 
L 373.811837 89.062362 
L 374.412297 89.092004 
L 376.814135 86.680576 
L 378.015054 84.138598 
L 379.215973 82.15202 
L 379.816432 81.461704 
L 380.416891 81.516572 
L 381.017351 81.738897 
L 382.21827 83.758405 
L 383.419189 84.322108 
L 384.019648 85.347775 
L 384.620108 86.123287 
L 385.821027 87.004163 
L 387.021946 85.65906 
L 388.222865 84.47934 
L 388.823324 84.429333 
L 389.423784 84.695841 
L 390.024243 85.119695 
L 390.624703 85.850397 
L 391.225162 85.81692 
L 393.02654 86.193381 
L 394.227459 85.666339 
L 395.428378 84.146578 
L 396.028838 83.991174 
L 396.629297 84.146265 
L 399.631595 86.358167 
L 400.232054 86.642344 
L 400.832514 86.653142 
L 402.033433 86.36479 
L 402.633892 86.296816 
L 403.834811 85.036392 
L 404.43527 84.364249 
L 405.03573 84.130803 
L 406.837108 84.484019 
L 407.437568 84.615949 
L 408.038027 84.244397 
L 408.638487 84.575255 
L 409.238946 85.105893 
L 411.040325 88.287282 
L 411.640784 88.758676 
L 412.241244 88.472064 
L 413.442163 87.347856 
L 414.643082 86.599037 
L 416.44446 86.514166 
L 418.245838 86.707972 
L 419.446757 85.879374 
L 420.047217 85.732919 
L 421.848595 86.08899 
L 422.449055 85.691968 
L 423.049514 85.092542 
L 425.451352 83.687796 
L 426.051812 83.791197 
L 426.652271 84.030797 
L 427.25273 84.589707 
L 427.85319 85.50556 
L 429.054109 86.304053 
L 430.255028 86.269755 
L 430.855487 86.221393 
L 431.455947 85.904638 
L 432.656866 85.059916 
L 434.458244 84.10527 
L 435.058704 83.540891 
L 435.659163 83.662666 
L 438.061001 84.681533 
L 439.862379 84.974327 
L 440.462839 85.388897 
L 441.663758 86.960837 
L 442.264217 87.590383 
L 442.864677 88.054658 
L 443.465136 88.316669 
L 444.666055 87.95229 
L 446.467434 85.793018 
L 448.268812 83.634295 
L 449.469731 82.681591 
L 450.070191 82.534846 
L 450.67065 82.674502 
L 451.271109 83.08802 
L 453.072488 85.144432 
L 453.672947 85.536605 
L 456.074785 84.74066 
L 458.476623 82.867874 
L 459.077083 82.88579 
L 460.878461 83.307521 
L 461.478921 83.329899 
L 463.280299 82.787179 
L 463.880758 82.891655 
L 466.282596 84.60392 
L 467.483515 84.368441 
L 468.083975 84.644651 
L 469.284894 85.536876 
L 470.485813 85.899142 
L 471.086272 85.933748 
L 472.887651 85.077067 
L 476.490407 84.018906 
L 478.291786 85.08071 
L 478.892245 85.890156 
L 479.492705 85.923589 
L 481.294083 85.492115 
L 482.495002 85.569517 
L 483.695921 84.912424 
L 485.4973 83.827959 
L 486.097759 83.293903 
L 487.298678 81.86088 
L 491.501894 78.608545 
L 493.303273 77.217147 
L 496.30557 77.269068 
L 498.707408 78.511124 
L 504.712003 77.940367 
L 505.912922 78.953891 
L 507.113841 81.345901 
L 508.31476 83.842856 
L 508.915219 83.638898 
L 513.118435 80.379459 
L 514.319354 79.739621 
L 516.721192 78.704181 
L 517.321652 78.618013 
L 519.72349 78.898973 
L 520.323949 79.1247 
L 520.924409 79.513455 
L 522.125327 79.617368 
L 525.127625 79.337141 
L 526.929003 78.358788 
L 527.529463 78.072543 
L 528.129922 78.008127 
L 528.730382 78.881821 
L 531.732679 84.525605 
L 533.534057 85.40744 
L 534.134517 85.681391 
L 535.335436 85.536661 
L 536.536355 85.174046 
L 537.136814 84.938772 
L 538.337733 84.062903 
L 541.340031 81.129692 
L 542.54095 79.895108 
L 546.744166 76.982131 
L 547.945085 76.609439 
L 549.146004 76.334609 
L 549.746463 76.351037 
L 554.550139 77.483155 
L 558.753355 77.365606 
L 559.353815 77.654854 
L 559.954274 78.155933 
L 562.956572 79.435237 
L 565.35841 77.285653 
L 566.559329 76.76973 
L 568.961166 75.64237 
L 571.363004 75.652713 
L 571.963464 75.486087 
L 574.365302 74.382883 
L 574.965761 74.264219 
L 576.16668 74.671979 
L 578.568518 75.695504 
L 579.168978 76.205728 
L 580.970356 76.975685 
L 582.171275 77.018406 
L 584.573113 76.74915 
L 586.374491 76.653986 
L 586.974951 76.390151 
L 588.776329 74.646019 
L 589.977248 74.066198 
L 594.180464 72.314999 
L 594.780924 72.394928 
L 596.582302 73.094747 
L 598.98414 73.728018 
L 601.385978 74.325212 
L 603.187357 75.438295 
L 606.189654 76.324951 
L 607.991032 75.550845 
L 609.792411 75.1123 
L 610.39287 75.172987 
L 612.194249 75.911597 
L 613.995627 77.143271 
L 614.596087 77.165664 
L 615.196546 77.390192 
L 618.198843 79.562751 
L 618.799303 79.805638 
L 625.404357 74.070847 
L 626.004817 74.601494 
L 628.406654 78.885999 
L 631.408952 77.947648 
L 632.009411 77.583209 
L 634.411249 75.574038 
L 636.813087 74.29174 
L 639.214925 73.104523 
L 639.815384 73.135508 
L 642.217222 74.12422 
L 643.418141 75.236264 
L 645.21952 76.865478 
L 646.420439 77.49444 
L 647.020898 77.7304 
L 647.621358 77.708494 
L 650.623655 75.492505 
L 651.224115 75.630566 
L 652.425033 78.101766 
L 653.025493 77.45017 
L 654.226412 75.725592 
L 654.826871 74.987282 
L 655.427331 74.55618 
L 656.02779 74.436499 
L 658.429628 74.45184 
L 659.030088 74.782778 
L 660.831466 76.281353 
L 661.431926 76.156232 
L 664.434223 74.206877 
L 665.635142 73.456131 
L 666.235601 73.208679 
L 669.838358 72.734485 
L 672.840656 72.915861 
L 678.244791 73.49333 
L 678.244791 73.49333 
" clip-path="url(#p41b8bdf9d4)" style="fill: none; stroke: #008000; stroke-width: 1.5; stroke-linecap: square"/>
   </g>
   <g id="line2d_17">
    <path d="M 86.635429 75.462747 
L 89.001287 68.106055 
L 97.281791 42.012727 
L 97.873256 48.017403 
L 107.928154 180.654132 
L 108.519618 178.796593 
L 118.574516 72.448989 
L 119.16598 73.544046 
L 129.220878 220.215562 
L 129.812343 225.930543 
L 139.867241 225.972553 
L 140.458705 226.540554 
L 151.105067 275.537471 
L 161.75143 370.030201 
L 162.342894 370.491266 
L 172.397792 373.467273 
L 172.989257 366.360089 
L 183.044154 173.485698 
L 183.635619 170.100852 
L 193.690517 247.877301 
L 194.873446 254.370487 
L 204.336879 303.048669 
L 204.928344 304.364122 
L 215.574706 134.733986 
L 219.123493 179.226394 
L 226.221068 268.58896 
L 227.403997 253.064681 
L 236.867431 120.25627 
L 237.458895 118.381017 
L 247.513793 129.976559 
L 248.696722 136.9437 
L 258.75162 200.263908 
L 268.806518 249.024582 
L 269.397982 249.563286 
L 279.45288 200.621626 
L 280.044344 198.599515 
L 290.690707 229.068781 
L 294.239494 236.115768 
L 301.337069 250.296359 
L 301.928534 249.466462 
L 311.983431 223.439449 
L 312.574896 221.365313 
L 322.629794 172.452887 
L 323.221258 171.388614 
L 333.276156 188.782998 
L 333.867621 190.119007 
L 343.922518 227.461706 
L 344.513983 227.859726 
L 355.160345 124.783714 
L 359.892062 146.356799 
L 365.806708 173.413421 
L 368.764031 183.685917 
L 376.45307 210.133165 
L 377.044535 209.873054 
L 387.099432 181.101442 
L 387.690897 182.081798 
L 397.745795 262.583651 
L 398.337259 264.278507 
L 408.983622 173.366205 
L 419.629984 100.216604 
L 422.587307 120.401251 
L 430.276346 173.334219 
L 430.867811 173.332901 
L 440.922709 167.492209 
L 441.514173 168.974617 
L 451.569071 203.596552 
L 452.160535 206.159138 
L 462.215433 266.605975 
L 462.806898 268.796583 
L 473.45326 232.423304 
L 484.099622 263.164004 
L 489.422804 196.301119 
L 494.745985 129.281869 
L 495.337449 127.096237 
L 505.392347 127.274074 
L 505.983812 130.989754 
L 516.038709 211.494842 
L 516.630174 214.763273 
L 526.685072 255.043257 
L 527.276536 254.52423 
L 537.331434 133.622699 
L 537.922899 128.968845 
L 547.977796 221.076249 
L 548.569261 225.461186 
L 559.215623 97.40622 
L 559.807088 99.618743 
L 569.861986 151.302164 
L 571.044915 160.630905 
L 580.508348 239.055476 
L 581.099812 238.405376 
L 591.746175 129.794994 
L 601.801073 92.369771 
L 602.392537 90.813549 
L 612.447435 84.896921 
L 613.038899 84.743766 
L 617.179151 97.698232 
L 623.685262 118.385207 
L 624.276726 121.210811 
L 634.331624 158.635978 
L 634.923089 157.769394 
L 644.977986 149.128884 
L 645.569451 149.495113 
L 655.624349 140.888454 
L 656.215813 141.772974 
L 666.270711 196.401793 
L 666.862176 197.338308 
L 676.917073 160.024764 
L 677.508538 158.464443 
L 677.508538 158.464443 
" clip-path="url(#p41b8bdf9d4)" style="fill: none; stroke: #ffa500; stroke-width: 1.5; stroke-linecap: square"/>
   </g>
   <g id="line2d_18">
    <path d="M 76.756364 92.849493 
L 77.961922 94.769742 
L 78.564701 93.928105 
L 79.16748 92.732974 
L 79.77026 91.951748 
L 80.373039 93.4156 
L 80.975818 92.818295 
L 81.578597 92.44499 
L 82.181376 91.338619 
L 82.784155 90.492954 
L 83.386935 90.698946 
L 83.989714 91.368507 
L 84.592493 91.664843 
L 85.195272 93.389298 
L 85.798051 94.614791 
L 86.400831 93.58382 
L 87.00361 92.288306 
L 87.606389 91.775478 
L 88.209168 90.800588 
L 88.811947 90.687128 
L 89.414726 91.398404 
L 90.017506 91.721489 
L 90.620285 93.710824 
L 91.223064 93.829238 
L 91.825843 93.488846 
L 92.428622 93.803439 
L 93.031402 94.555746 
L 93.634181 93.754072 
L 94.23696 92.348956 
L 94.839739 90.322023 
L 95.442518 90.073883 
L 96.045297 92.349739 
L 96.648077 92.807449 
L 97.250856 92.217507 
L 97.853635 91.429038 
L 98.456414 91.537358 
L 99.059193 93.051406 
L 99.661972 93.434826 
L 100.264752 93.420557 
L 100.867531 94.001266 
L 101.47031 93.433711 
L 102.073089 93.031942 
L 102.675868 93.63226 
L 103.278648 93.263578 
L 104.484206 93.319073 
L 105.086985 92.853624 
L 106.292543 94.183591 
L 106.895323 94.376177 
L 108.100881 92.444208 
L 109.306439 89.402609 
L 109.909219 89.281374 
L 110.511998 92.93031 
L 111.114777 94.407522 
L 111.717556 94.625458 
L 112.320335 93.396126 
L 112.923114 93.463401 
L 113.525894 94.488352 
L 114.128673 94.259612 
L 115.334231 92.937437 
L 115.93701 92.2087 
L 116.53979 92.591346 
L 117.142569 92.526437 
L 117.745348 93.238243 
L 118.348127 94.476696 
L 118.950906 94.971858 
L 119.553685 93.967784 
L 120.156465 93.596111 
L 120.759244 93.496687 
L 121.964802 90.64965 
L 122.567581 91.163486 
L 123.170361 91.84422 
L 123.77314 91.881496 
L 124.375919 91.772591 
L 124.978698 92.062603 
L 125.581477 91.329834 
L 126.184256 89.927422 
L 126.787036 90.098626 
L 127.389815 93.823688 
L 127.992594 93.428992 
L 129.198152 91.595844 
L 129.800932 91.562731 
L 130.403711 92.882947 
L 131.00649 92.340329 
L 131.609269 91.224893 
L 132.212048 91.324519 
L 132.814827 92.435113 
L 133.417607 92.029317 
L 134.020386 91.397127 
L 134.623165 91.954313 
L 135.225944 92.141116 
L 135.828723 91.655712 
L 137.034282 93.092166 
L 137.637061 93.220504 
L 138.23984 92.678422 
L 138.842619 91.78919 
L 139.445398 92.80374 
L 140.650957 92.927502 
L 141.856515 92.348873 
L 143.062073 92.632585 
L 143.664853 91.763293 
L 144.870411 91.084208 
L 145.47319 91.027489 
L 146.075969 90.548749 
L 146.678749 90.629298 
L 147.281528 91.831517 
L 149.089865 91.826108 
L 149.692644 92.099815 
L 150.295424 90.936039 
L 150.898203 91.914847 
L 151.500982 91.308784 
L 152.103761 91.045428 
L 152.70654 90.953779 
L 153.30932 90.737292 
L 153.912099 92.67306 
L 154.514878 92.562694 
L 155.117657 91.183324 
L 156.323215 89.009526 
L 156.925995 88.826813 
L 157.528774 90.949201 
L 158.131553 92.274903 
L 158.734332 92.653324 
L 159.337111 92.269726 
L 159.939891 92.412082 
L 161.145449 91.998868 
L 161.748228 91.398658 
L 163.556566 90.487 
L 164.159345 90.635795 
L 164.762124 92.265001 
L 165.364903 92.663603 
L 165.967682 92.922011 
L 166.570462 92.995084 
L 167.173241 92.459143 
L 168.378799 90.670555 
L 168.981578 92.018467 
L 169.584357 93.002694 
L 170.187137 92.608778 
L 170.789916 92.645037 
L 171.392695 93.190808 
L 172.598253 93.233693 
L 173.201033 92.881967 
L 173.803812 93.070197 
L 174.406591 93.098973 
L 175.612149 91.318785 
L 176.214928 91.621469 
L 177.420487 91.087838 
L 178.023266 90.736958 
L 178.626045 89.521187 
L 179.228824 88.970571 
L 179.831603 89.098775 
L 180.434383 89.930795 
L 181.037162 92.350637 
L 181.639941 92.265395 
L 182.24272 91.375604 
L 182.845499 91.389409 
L 183.448279 92.672467 
L 184.051058 92.329444 
L 184.653837 92.128715 
L 185.256616 91.417819 
L 185.859395 91.233488 
L 186.462174 92.134517 
L 187.064954 92.655955 
L 187.667733 92.472987 
L 188.873291 91.6829 
L 189.47607 91.158155 
L 190.07885 91.731617 
L 190.681629 91.794672 
L 191.284408 91.399671 
L 191.887187 90.740445 
L 193.092745 92.408978 
L 194.298304 90.750673 
L 194.901083 90.951924 
L 195.503862 90.296043 
L 196.106641 90.201162 
L 196.709421 91.251396 
L 197.3122 90.46453 
L 197.914979 90.559853 
L 198.517758 92.411141 
L 199.120537 93.235691 
L 200.928875 93.380821 
L 201.531654 93.004618 
L 202.134433 93.009922 
L 202.737212 92.052293 
L 203.339992 92.393794 
L 203.942771 92.276042 
L 204.54555 91.176165 
L 205.148329 91.07844 
L 205.751108 92.433609 
L 206.353887 92.67842 
L 206.956667 91.938484 
L 207.559446 91.022346 
L 208.162225 92.142121 
L 208.765004 92.291186 
L 209.367783 91.38982 
L 209.970563 91.135576 
L 210.573342 92.792311 
L 211.176121 92.847367 
L 212.381679 91.200379 
L 212.984458 90.765564 
L 213.587238 90.482018 
L 214.190017 90.809217 
L 214.792796 90.514498 
L 215.395575 90.861258 
L 215.998354 90.587786 
L 216.601133 89.642505 
L 217.203913 89.793503 
L 218.409471 90.734161 
L 219.01225 89.972484 
L 219.615029 90.268225 
L 220.217809 92.265968 
L 220.820588 91.823786 
L 221.423367 91.68687 
L 222.628925 89.93727 
L 223.231704 89.565683 
L 223.834484 88.953238 
L 224.437263 89.990626 
L 225.040042 90.786854 
L 225.642821 90.961416 
L 226.2456 92.4231 
L 226.84838 92.366759 
L 228.053938 91.324745 
L 228.656717 91.218677 
L 229.259496 91.807462 
L 229.862275 91.389112 
L 230.465055 90.170842 
L 231.067834 89.215251 
L 232.876171 92.155011 
L 233.478951 91.983803 
L 234.08173 91.042782 
L 234.684509 91.349498 
L 235.287288 90.543927 
L 235.890067 90.964886 
L 237.095626 91.152303 
L 238.301184 88.635865 
L 238.903963 90.54788 
L 239.506742 92.991039 
L 240.109522 92.313055 
L 240.712301 90.891411 
L 241.31508 88.575901 
L 241.917859 88.394794 
L 242.520638 89.222533 
L 243.123417 90.24181 
L 243.726197 90.586046 
L 244.328976 89.560334 
L 244.931755 89.185231 
L 245.534534 87.170897 
L 246.137313 87.956094 
L 246.740093 90.864852 
L 247.342872 90.715989 
L 247.945651 89.761738 
L 249.151209 85.155622 
L 249.753988 85.824205 
L 250.356768 86.299009 
L 250.959547 87.926017 
L 251.562326 87.939144 
L 252.165105 85.657513 
L 252.767884 84.930443 
L 253.370663 89.66947 
L 253.973443 90.644465 
L 254.576222 90.185754 
L 255.179001 89.921994 
L 255.78178 91.19992 
L 256.384559 91.16562 
L 256.987339 90.089105 
L 257.590118 90.645491 
L 258.192897 90.631167 
L 260.001234 86.779341 
L 261.206793 92.608243 
L 261.809572 92.003718 
L 262.412351 91.061867 
L 263.01513 90.89289 
L 263.61791 89.824357 
L 264.220689 89.733187 
L 264.823468 88.02268 
L 265.426247 87.528536 
L 266.029026 88.171913 
L 266.631805 88.512378 
L 267.234585 90.230322 
L 267.837364 90.996446 
L 268.440143 92.23198 
L 269.042922 91.756991 
L 270.85126 86.183706 
L 271.454039 89.617338 
L 272.659597 91.775167 
L 273.262376 91.113988 
L 273.865156 89.436581 
L 274.467935 88.465111 
L 275.673493 89.516509 
L 276.276272 89.328796 
L 276.879052 88.61853 
L 277.481831 88.390839 
L 278.08461 88.54135 
L 278.687389 88.880294 
L 279.290168 89.462526 
L 279.892947 89.563182 
L 280.495727 88.748123 
L 281.098506 87.162847 
L 281.701285 89.761071 
L 282.304064 90.622875 
L 284.112402 90.579607 
L 284.715181 90.546591 
L 285.31796 91.430787 
L 285.920739 91.997467 
L 286.523518 92.792508 
L 287.126298 92.365537 
L 287.729077 91.1197 
L 288.331856 89.376851 
L 288.934635 86.527139 
L 289.537414 84.828008 
L 290.140194 86.306894 
L 290.742973 91.613041 
L 291.345752 92.383002 
L 291.948531 92.275942 
L 292.55131 91.864839 
L 293.154089 91.188539 
L 294.359648 88.169193 
L 294.962427 88.119093 
L 296.167985 90.089882 
L 296.770764 90.252774 
L 297.373544 89.630789 
L 297.976323 88.248045 
L 298.579102 87.95137 
L 299.78466 85.871953 
L 300.38744 85.966564 
L 300.990219 87.09112 
L 301.592998 90.051314 
L 302.195777 91.824972 
L 302.798556 92.325547 
L 303.401335 92.653782 
L 304.004115 91.732358 
L 304.606894 91.543888 
L 305.209673 90.768354 
L 306.415231 92.109412 
L 307.018011 91.875006 
L 308.223569 89.890891 
L 308.826348 89.325984 
L 309.429127 88.597038 
L 310.031906 88.991586 
L 310.634686 93.376953 
L 311.237465 92.063946 
L 311.840244 91.351006 
L 312.443023 91.721181 
L 313.045802 91.52602 
L 313.648582 89.472639 
L 314.251361 88.253758 
L 314.85414 90.562673 
L 315.456919 92.084192 
L 316.059698 91.970406 
L 316.662477 91.246365 
L 317.868036 89.429779 
L 318.470815 89.701486 
L 319.676373 86.75098 
L 320.279153 86.567476 
L 320.881932 90.012978 
L 321.484711 92.701898 
L 322.08749 91.104563 
L 322.690269 88.773731 
L 323.293048 88.819416 
L 323.895828 88.384262 
L 324.498607 88.141965 
L 325.101386 89.125112 
L 325.704165 89.567771 
L 326.306944 89.700583 
L 326.909724 88.317164 
L 328.115282 93.575269 
L 328.718061 92.597174 
L 329.32084 90.424614 
L 329.923619 88.851881 
L 331.129178 91.61991 
L 331.731957 89.426673 
L 332.334736 88.930309 
L 333.540294 91.607809 
L 335.951411 90.291726 
L 336.55419 90.96368 
L 337.15697 91.354225 
L 338.362528 91.286662 
L 338.965307 90.579491 
L 340.773645 85.730323 
L 341.376424 87.957169 
L 341.979203 88.820276 
L 342.581982 88.579567 
L 343.184761 89.525563 
L 343.787541 89.346081 
L 344.39032 87.748093 
L 344.993099 83.881096 
L 345.595878 82.587923 
L 346.198657 85.878553 
L 346.801436 87.192714 
L 347.404216 87.069691 
L 348.609774 84.764142 
L 349.212553 85.560085 
L 349.815332 89.906444 
L 350.418112 90.17929 
L 351.62367 88.533659 
L 352.226449 89.161227 
L 352.829228 88.146641 
L 353.432007 88.133135 
L 354.034787 91.723737 
L 354.637566 91.629837 
L 355.240345 90.809336 
L 355.843124 89.164689 
L 356.445903 86.892917 
L 357.048683 86.724514 
L 357.651462 88.895582 
L 358.254241 89.239733 
L 358.85702 88.205529 
L 359.459799 87.582314 
L 360.062578 88.314155 
L 360.665358 89.722363 
L 361.268137 92.203136 
L 361.870916 91.031517 
L 362.473695 88.008193 
L 363.076474 87.903442 
L 363.679254 88.687405 
L 364.884812 91.969985 
L 365.487591 90.747924 
L 366.09037 89.228218 
L 366.693149 87.317743 
L 367.898708 84.538535 
L 368.501487 84.533779 
L 369.104266 87.168723 
L 369.707045 88.91885 
L 370.309824 90.1163 
L 370.912604 91.576318 
L 371.515383 90.455335 
L 372.720941 85.10157 
L 373.32372 86.596183 
L 373.9265 90.1402 
L 374.529279 89.306931 
L 375.132058 87.034835 
L 375.734837 85.602354 
L 376.337616 88.731367 
L 376.940395 90.932188 
L 377.543175 91.019642 
L 378.748733 87.785526 
L 379.351512 85.456754 
L 379.954291 84.206179 
L 380.557071 84.054203 
L 381.762629 87.301573 
L 382.365408 87.817882 
L 382.968187 87.194266 
L 384.173746 89.927594 
L 384.776525 89.935177 
L 386.584862 89.228647 
L 387.187642 91.003473 
L 388.3932 89.572195 
L 388.995979 88.077294 
L 389.598758 85.648819 
L 390.201537 86.636095 
L 390.804317 88.219296 
L 392.612654 87.716127 
L 393.818213 89.09379 
L 394.420992 89.016273 
L 395.023771 88.065805 
L 395.62655 86.893325 
L 396.229329 86.200512 
L 396.832108 86.83678 
L 397.434888 88.608069 
L 398.037667 89.132091 
L 398.640446 89.015532 
L 399.243225 87.818937 
L 400.448784 84.260401 
L 401.051563 83.391491 
L 401.654342 84.638645 
L 402.8599 85.869697 
L 403.462679 85.911479 
L 405.271017 88.103366 
L 405.873796 87.986492 
L 406.476575 88.151723 
L 407.079355 88.444575 
L 407.682134 87.597084 
L 408.284913 87.305255 
L 408.887692 86.584295 
L 409.490471 85.617273 
L 410.09325 85.256547 
L 410.69603 85.496532 
L 411.298809 85.196755 
L 411.901588 83.930809 
L 412.504367 82.963227 
L 413.107146 83.907367 
L 413.709925 85.838 
L 414.312705 86.363211 
L 414.915484 86.559988 
L 415.518263 86.440386 
L 416.121042 85.944959 
L 416.723821 85.189751 
L 417.92938 82.984868 
L 419.134938 86.796074 
L 419.737717 88.815706 
L 420.943276 86.818403 
L 421.546055 86.986373 
L 422.751613 83.519633 
L 423.354392 83.295807 
L 423.957172 83.463846 
L 424.559951 83.981999 
L 425.16273 83.599024 
L 425.765509 82.723451 
L 426.368288 84.289705 
L 426.971067 84.834305 
L 427.573847 86.673494 
L 428.176626 87.271272 
L 428.779405 86.87863 
L 429.382184 84.366583 
L 429.984963 83.00117 
L 430.587743 82.054719 
L 431.190522 84.497107 
L 432.39608 85.085058 
L 432.998859 85.780441 
L 433.601638 87.920815 
L 434.204418 89.571737 
L 435.409976 86.005943 
L 436.012755 84.810705 
L 436.615534 85.703359 
L 437.218314 87.970159 
L 437.821093 89.264102 
L 438.423872 87.771498 
L 439.026651 85.172726 
L 439.62943 84.153311 
L 440.834989 83.053134 
L 441.437768 86.654815 
L 442.040547 89.029233 
L 442.643326 89.430148 
L 444.451664 82.794752 
L 445.054443 83.706058 
L 445.657222 84.187003 
L 446.260001 84.212308 
L 446.86278 86.258156 
L 447.46556 87.521186 
L 448.671118 85.14288 
L 449.273897 85.907219 
L 449.876676 86.067204 
L 450.479455 86.378607 
L 451.082235 86.395327 
L 451.685014 87.959864 
L 452.287793 88.111132 
L 453.493351 84.964999 
L 454.096131 86.621767 
L 454.69891 86.355464 
L 455.301689 84.625606 
L 455.904468 83.377194 
L 456.507247 85.692065 
L 457.110026 87.107404 
L 457.712806 86.592449 
L 459.521143 81.067363 
L 460.123922 85.002095 
L 461.329481 85.080159 
L 461.93226 84.964801 
L 463.137818 84.584267 
L 463.740597 83.870893 
L 465.548935 81.075342 
L 466.151714 82.259023 
L 467.357273 88.138553 
L 467.960052 88.658713 
L 469.16561 86.661935 
L 469.768389 85.510111 
L 470.371168 85.778972 
L 470.973948 84.961505 
L 471.576727 83.370521 
L 472.179506 82.177392 
L 472.782285 84.038168 
L 473.385064 85.090363 
L 473.987844 84.957214 
L 475.193402 84.072322 
L 475.796181 83.401291 
L 476.39896 82.326848 
L 477.001739 82.059307 
L 477.604519 82.29706 
L 478.207298 82.746952 
L 478.810077 83.619174 
L 479.412856 84.182158 
L 480.015635 83.751084 
L 480.618415 83.04665 
L 481.221194 84.91567 
L 481.823973 85.57949 
L 483.029531 82.416572 
L 483.63231 82.272614 
L 484.23509 82.716711 
L 484.837869 82.941389 
L 486.043427 82.500959 
L 486.646206 84.993943 
L 487.248985 86.026839 
L 487.851765 85.311968 
L 489.057323 82.765636 
L 489.660102 81.961539 
L 490.262881 81.791023 
L 490.865661 82.726107 
L 492.071219 83.238907 
L 493.879556 82.482379 
L 494.482336 82.083453 
L 495.687894 80.771385 
L 496.290673 79.660143 
L 496.893452 79.919679 
L 497.496232 81.387841 
L 498.099011 80.883906 
L 498.70179 82.669791 
L 499.907348 87.79874 
L 500.510127 88.135143 
L 501.715686 86.586733 
L 502.318465 88.076379 
L 502.921244 88.066671 
L 503.524023 86.781885 
L 504.729582 83.22225 
L 506.537919 80.126999 
L 507.140698 82.017485 
L 507.743478 84.876877 
L 508.346257 86.163615 
L 508.949036 84.259485 
L 509.551815 83.016372 
L 510.154594 82.854049 
L 510.757374 82.555731 
L 511.360153 80.684087 
L 512.565711 76.101626 
L 513.16849 74.759397 
L 514.976828 83.505011 
L 515.579607 84.781069 
L 516.182386 84.38404 
L 517.387945 82.211252 
L 518.593503 81.886006 
L 519.196282 81.746784 
L 519.799061 82.516174 
L 520.40184 84.922016 
L 521.00462 85.391678 
L 521.607399 84.74468 
L 522.812957 82.754358 
L 523.415736 82.242982 
L 524.621295 80.861801 
L 525.826853 87.904995 
L 526.429632 87.266748 
L 529.443528 81.93648 
L 530.649086 79.333852 
L 532.457424 77.574436 
L 533.060203 77.899002 
L 533.662982 78.688254 
L 534.265762 79.994528 
L 534.868541 81.70694 
L 535.47132 84.572276 
L 536.074099 85.291652 
L 537.882437 81.383868 
L 538.485216 80.024124 
L 539.087995 82.827622 
L 539.690774 82.674915 
L 540.896333 81.577654 
L 541.499112 80.682189 
L 542.101891 80.982027 
L 542.70467 89.284998 
L 543.307449 88.599273 
L 543.910228 87.210676 
L 544.513008 86.249155 
L 545.115787 86.862406 
L 545.718566 85.781818 
L 546.924124 82.099093 
L 547.526904 81.107 
L 548.129683 82.836956 
L 548.732462 84.063027 
L 549.335241 83.723462 
L 549.93802 82.156198 
L 550.540799 82.268547 
L 551.746358 84.073879 
L 552.349137 84.188623 
L 552.951916 84.499165 
L 554.157475 87.040814 
L 554.760254 86.189976 
L 555.363033 84.887288 
L 555.965812 84.33642 
L 557.17137 85.646863 
L 557.77415 85.194413 
L 558.376929 85.06355 
L 558.979708 85.139534 
L 559.582487 85.417847 
L 560.185266 86.344894 
L 560.788046 86.39578 
L 561.390825 86.2228 
L 561.993604 84.997262 
L 562.596383 82.298229 
L 563.199162 80.171978 
L 563.801941 80.352324 
L 564.404721 82.191478 
L 565.610279 83.25625 
L 566.213058 84.22977 
L 566.815837 85.452461 
L 567.418616 83.299068 
L 568.021396 82.216215 
L 568.624175 83.242388 
L 569.226954 83.214076 
L 570.432512 81.528742 
L 571.035292 82.101198 
L 571.638071 85.484253 
L 572.24085 88.174945 
L 572.843629 87.897576 
L 573.446408 86.99386 
L 574.651967 85.70901 
L 575.254746 85.168839 
L 575.857525 84.179037 
L 576.460304 83.453571 
L 577.063083 82.001031 
L 577.665863 81.040198 
L 578.268642 80.770971 
L 579.4742 80.98908 
L 580.679758 81.290324 
L 581.282538 80.820377 
L 581.885317 80.712039 
L 582.488096 80.723143 
L 583.090875 80.864105 
L 584.296434 79.872941 
L 584.899213 78.995934 
L 585.501992 77.31977 
L 586.104771 76.335736 
L 587.913109 75.121834 
L 589.118667 77.052124 
L 589.721446 78.555404 
L 590.324225 80.608912 
L 590.927005 83.176263 
L 591.529784 83.496193 
L 592.132563 83.075087 
L 592.735342 82.490183 
L 593.338121 81.589475 
L 594.54368 78.04184 
L 595.146459 77.734709 
L 595.749238 77.719322 
L 596.352017 77.899591 
L 596.954796 77.44604 
L 597.557576 76.304128 
L 598.160355 75.862701 
L 598.763134 76.84558 
L 599.968692 83.401946 
L 600.571471 85.026215 
L 601.174251 84.457748 
L 601.77703 83.492348 
L 602.982588 80.85293 
L 603.585367 80.444153 
L 604.188147 80.614961 
L 604.790926 80.971195 
L 605.996484 82.059498 
L 606.599263 82.455253 
L 607.202042 81.909006 
L 607.804822 81.127404 
L 608.407601 80.691635 
L 609.01038 80.688503 
L 609.613159 81.43388 
L 611.421497 82.827161 
L 612.024276 83.092343 
L 612.627055 82.69789 
L 615.038172 78.344652 
L 616.24373 79.146708 
L 617.449288 79.684524 
L 618.052068 79.500742 
L 619.257626 80.861693 
L 619.860405 81.019946 
L 621.065964 79.023564 
L 621.668743 78.118366 
L 622.271522 79.077454 
L 622.874301 81.189827 
L 623.47708 81.863943 
L 624.079859 81.596583 
L 624.682639 81.608864 
L 625.285418 81.459333 
L 625.888197 83.146801 
L 626.490976 84.418321 
L 629.504872 79.045221 
L 630.107651 77.70549 
L 630.71043 76.637356 
L 631.915989 75.180295 
L 632.518768 74.946583 
L 633.724326 76.698791 
L 634.327106 77.653393 
L 635.532664 81.884815 
L 636.135443 81.106464 
L 636.738222 80.055358 
L 637.943781 77.2094 
L 638.54656 76.952887 
L 640.957677 78.080143 
L 642.163235 79.119829 
L 643.368793 78.233395 
L 644.574352 77.786109 
L 646.985468 74.213857 
L 647.588247 72.821432 
L 649.396585 71.264096 
L 650.602143 71.552426 
L 651.807702 73.935761 
L 652.410481 74.386948 
L 653.01326 73.892305 
L 654.218818 72.097778 
L 654.821598 72.096078 
L 656.027156 75.52739 
L 657.835494 81.449079 
L 658.438273 81.75559 
L 659.041052 82.662278 
L 659.643831 82.040682 
L 660.24661 80.759834 
L 660.849389 79.196372 
L 661.452169 78.570114 
L 662.054948 78.259753 
L 662.657727 78.74179 
L 663.260506 78.470368 
L 663.863285 78.713431 
L 664.466065 79.239195 
L 665.068844 79.096459 
L 666.274402 78.198256 
L 667.47996 76.716807 
L 668.08274 77.408389 
L 669.288298 80.733258 
L 670.493856 79.965525 
L 672.302194 79.065987 
L 673.507752 77.532302 
L 674.110531 78.377923 
L 674.713311 79.620081 
L 675.31609 79.665474 
L 675.918869 80.148675 
L 676.521648 80.080096 
L 677.124427 79.746421 
L 677.727207 79.681259 
L 678.329986 79.759857 
L 678.932765 79.466274 
L 678.932765 79.466274 
" clip-path="url(#p41b8bdf9d4)" style="fill: none; stroke: #800080; stroke-width: 1.5; stroke-linecap: square"/>
   </g>
   <g id="line2d_19">
    <path d="M 88.234667 92.677914 
L 128.296276 92.570336 
L 150.939794 91.667744 
L 161.971252 90.108144 
L 162.551855 89.905295 
L 175.905725 81.534082 
L 186.937183 75.684103 
L 193.904419 69.783959 
L 199.129846 65.349242 
L 199.710449 65.21351 
L 211.903113 65.990666 
L 224.095777 61.734196 
L 236.28844 65.611333 
L 240.933265 65.625277 
L 249.061707 65.571427 
L 261.254371 63.462343 
L 273.447035 63.856068 
L 286.220301 61.257521 
L 297.832362 61.260732 
L 301.31598 62.101587 
L 310.605629 64.361103 
L 322.798293 65.610461 
L 334.990956 63.886273 
L 343.700002 64.496611 
L 347.18362 64.743829 
L 348.344826 64.526583 
L 359.956887 61.740427 
L 372.730154 63.479284 
L 384.342214 63.88631 
L 387.245229 61.656938 
L 396.534878 54.425479 
L 397.115481 54.303819 
L 409.888748 54.198907 
L 422.081412 52.984406 
L 434.274075 53.051755 
L 445.886136 54.695849 
L 447.047342 54.428179 
L 458.659403 50.848848 
L 471.432669 53.630213 
L 483.04473 57.324406 
L 484.786539 56.567808 
L 495.237394 51.765698 
L 495.817997 51.752138 
L 508.591264 53.911816 
L 520.203324 54.7075 
L 532.395988 52.553086 
L 545.169255 53.078768 
L 557.361919 55.982666 
L 569.554582 53.439979 
L 582.327849 55.604819 
L 595.101116 55.52366 
L 607.29378 54.733657 
L 619.486443 54.633775 
L 631.098504 52.992122 
L 642.129962 55.329082 
L 643.871771 55.589011 
L 656.645037 55.953149 
L 668.257098 54.72894 
L 668.257098 54.72894 
" clip-path="url(#p41b8bdf9d4)" style="fill: none; stroke: #a52a2a; stroke-width: 1.5; stroke-linecap: square"/>
   </g>
   <g id="line2d_20">
    <path d="M 78.928913 92.819903 
L 82.533446 92.771878 
L 84.936468 92.771554 
L 87.33949 92.933173 
L 95.750067 92.774442 
L 96.951577 92.542597 
L 99.955355 91.776613 
L 101.156866 91.851006 
L 102.959132 92.045465 
L 105.362154 92.150812 
L 110.168198 92.044391 
L 111.369709 91.659763 
L 114.373486 90.441424 
L 115.574997 90.099111 
L 116.175753 90.394214 
L 117.377264 91.231145 
L 118.578775 91.902026 
L 119.17953 91.996707 
L 120.381041 91.663294 
L 123.384819 91.226607 
L 124.586329 91.22933 
L 126.989351 91.586994 
L 128.791618 91.495412 
L 130.593884 91.265838 
L 131.19464 91.424365 
L 132.996906 92.21874 
L 134.198417 92.266548 
L 136.601439 92.164232 
L 139.605216 92.11263 
L 143.810505 92.175897 
L 145.612771 92.167502 
L 148.616549 92.256038 
L 151.019571 92.282963 
L 153.422592 92.304799 
L 155.224859 92.022587 
L 157.627881 91.666863 
L 162.433925 91.23982 
L 163.635436 91.550328 
L 165.437702 92.052613 
L 166.639213 92.241886 
L 171.445257 92.26979 
L 174.449034 91.720045 
L 177.452812 92.169286 
L 182.859611 91.926446 
L 184.061122 92.089438 
L 187.064899 92.214468 
L 188.867166 92.036206 
L 190.068677 91.726675 
L 191.870943 91.833743 
L 194.273965 92.003214 
L 195.475476 92.055448 
L 198.479253 91.887694 
L 200.28152 92.322475 
L 200.882275 92.353583 
L 205.087564 91.788082 
L 206.289075 91.747933 
L 211.095118 91.73453 
L 214.699651 91.192482 
L 217.102673 91.991524 
L 217.703429 92.037979 
L 219.505695 91.500419 
L 222.509473 90.527919 
L 223.710983 90.699057 
L 226.114005 91.077711 
L 227.315516 91.039778 
L 227.916272 91.071129 
L 229.117783 91.416005 
L 232.722316 91.803501 
L 234.524582 91.644026 
L 236.326849 91.311445 
L 238.129115 91.334133 
L 238.72987 91.304454 
L 239.931381 91.555562 
L 241.132892 91.968775 
L 241.733648 91.934144 
L 244.13667 91.38676 
L 245.338181 91.279306 
L 247.140447 91.000899 
L 248.341958 90.971222 
L 248.942714 91.110629 
L 251.345736 92.290228 
L 252.547246 92.246204 
L 260.357068 91.336843 
L 262.159334 91.05208 
L 262.76009 91.039714 
L 263.961601 91.387444 
L 264.562356 91.621153 
L 265.763867 91.587372 
L 266.965378 91.578948 
L 269.969155 91.576505 
L 274.775199 90.983448 
L 275.97671 90.879978 
L 278.379732 90.541151 
L 280.782754 90.457422 
L 281.383509 90.305892 
L 283.786531 91.465797 
L 284.387287 91.644136 
L 287.391064 91.864852 
L 289.794086 91.666467 
L 290.995597 91.610148 
L 294.60013 90.666458 
L 296.402396 91.170394 
L 297.603907 91.400482 
L 304.212218 91.75271 
L 307.816751 91.562703 
L 309.018261 91.54795 
L 311.421283 91.944376 
L 313.22355 91.900394 
L 318.630349 90.860426 
L 319.83186 90.582141 
L 321.033371 90.783649 
L 323.436393 91.400825 
L 326.44017 91.022298 
L 328.242437 90.749822 
L 330.645459 91.706737 
L 332.447725 91.861602 
L 334.850747 91.54275 
L 336.653013 91.479585 
L 337.253769 91.365501 
L 339.656791 91.756079 
L 340.858302 92.004094 
L 342.059813 91.957428 
L 345.664346 91.593132 
L 348.668123 91.995345 
L 351.071145 91.688268 
L 352.272656 91.545052 
L 357.0787 91.500199 
L 359.481722 90.96821 
L 361.283988 91.29973 
L 361.884744 91.26801 
L 365.489276 91.837404 
L 369.694565 91.712251 
L 370.896076 91.718405 
L 372.698342 91.41779 
L 375.101364 91.579783 
L 376.302875 91.32612 
L 377.504386 90.930993 
L 379.907408 91.172072 
L 381.108919 91.102304 
L 382.31043 91.342667 
L 383.511941 91.687966 
L 385.314207 91.670055 
L 388.317985 91.676872 
L 391.321762 91.883186 
L 393.124028 92.082662 
L 394.325539 92.167145 
L 396.127806 92.17383 
L 399.732339 91.410779 
L 401.534605 91.641105 
L 402.736116 91.921502 
L 404.538383 91.983226 
L 408.142915 91.990388 
L 409.344426 91.814237 
L 410.545937 91.91722 
L 412.348204 92.102081 
L 415.952737 91.367865 
L 417.755003 91.370076 
L 418.956514 91.233352 
L 421.960291 90.742635 
L 423.762558 90.477229 
L 425.564824 90.126636 
L 430.370868 91.120819 
L 433.374646 91.353596 
L 436.378423 91.213606 
L 437.579934 91.159195 
L 439.3822 91.334692 
L 444.188244 90.751111 
L 445.389755 91.02422 
L 447.192022 91.724666 
L 447.792777 91.780943 
L 448.994288 91.57472 
L 451.998065 91.018993 
L 458.00562 91.562079 
L 459.807887 91.51681 
L 461.610153 91.697587 
L 463.412419 91.687772 
L 464.61393 91.577724 
L 465.815441 91.527758 
L 467.617708 91.809921 
L 468.218463 91.794024 
L 471.822996 91.057911 
L 473.625263 91.18652 
L 474.826774 90.784879 
L 477.830551 90.522161 
L 479.632817 90.773337 
L 483.23735 91.20303 
L 484.438861 91.62199 
L 486.241128 92.117971 
L 489.845661 91.634314 
L 492.248682 92.304725 
L 493.450193 92.187458 
L 495.853215 91.298304 
L 496.453971 91.243441 
L 498.256237 91.783313 
L 500.659259 91.808476 
L 504.263792 91.253512 
L 505.465303 91.272996 
L 509.670591 90.688358 
L 514.476635 91.601349 
L 516.278902 91.646017 
L 518.681924 92.101865 
L 519.883435 92.038573 
L 524.088723 91.534243 
L 526.491745 91.757151 
L 533.100055 91.332505 
L 534.902321 91.151123 
L 536.103832 91.34723 
L 537.906099 91.868792 
L 538.506854 91.915758 
L 541.510632 91.578813 
L 543.913654 91.714075 
L 545.71592 91.602093 
L 547.518187 91.012353 
L 548.719697 90.755013 
L 549.921208 90.600268 
L 552.924986 91.549895 
L 553.525741 91.688998 
L 556.529519 91.41392 
L 557.130274 91.298311 
L 558.331785 91.382004 
L 558.932541 91.635789 
L 560.734807 91.660489 
L 561.335563 91.590361 
L 563.738584 90.673637 
L 566.141606 90.129083 
L 566.742362 90.570106 
L 567.943873 91.12773 
L 568.544628 91.270575 
L 570.346895 90.811865 
L 570.94765 90.671861 
L 571.548406 90.666027 
L 573.951428 91.874012 
L 574.552183 92.044457 
L 575.753694 91.841387 
L 580.559738 90.440802 
L 581.160493 90.157623 
L 581.761249 90.012237 
L 582.96276 90.152386 
L 584.765026 90.691239 
L 585.365782 91.152046 
L 586.567293 91.557987 
L 587.768804 91.781448 
L 594.977869 91.691849 
L 597.380891 91.813959 
L 602.186935 90.975631 
L 603.989202 91.403511 
L 604.589957 91.497255 
L 607.593734 90.651163 
L 608.795245 90.721611 
L 610.597512 91.60516 
L 611.799023 91.718042 
L 614.8028 91.423237 
L 618.407333 91.511508 
L 620.209599 91.835038 
L 621.41111 91.992112 
L 622.612621 91.991608 
L 624.414888 91.98248 
L 625.616399 91.854199 
L 627.418665 91.46782 
L 630.422443 90.980438 
L 632.825465 91.305497 
L 634.627731 91.65877 
L 636.429997 91.399468 
L 640.03453 90.994088 
L 640.635286 91.017178 
L 643.038308 91.992821 
L 643.639063 92.038836 
L 647.243596 91.272084 
L 650.848129 91.227028 
L 653.851906 90.077223 
L 656.254928 88.865586 
L 659.859461 88.062636 
L 661.661727 88.162867 
L 664.665505 91.37603 
L 665.26626 91.508092 
L 668.870793 91.294745 
L 669.471549 91.21346 
L 673.676837 91.52583 
L 677.28137 90.920066 
L 679.083636 91.980723 
L 679.083636 91.980723 
" clip-path="url(#p41b8bdf9d4)" style="fill: none; stroke: #ff00ff; stroke-width: 1.5; stroke-linecap: square"/>
   </g>
   <g id="line2d_21">
    <path d="M 80.473837 92.763989 
L 87.644555 92.682831 
L 92.425034 92.283821 
L 94.815273 92.5132 
L 96.607953 92.584464 
L 99.595752 92.10378 
L 102.583551 91.503564 
L 104.376231 91.600938 
L 109.15671 92.022519 
L 113.339629 92.72743 
L 116.924988 92.949552 
L 118.717667 92.781137 
L 122.303026 92.037293 
L 124.095706 92.170966 
L 127.083505 92.71632 
L 134.851783 92.901985 
L 139.034702 93.194369 
L 180.266331 93.103304 
L 185.04681 92.357727 
L 186.839489 92.464932 
L 191.022408 92.763851 
L 196.998006 92.888221 
L 201.180925 93.194369 
L 206.558964 93.097626 
L 211.339443 92.805475 
L 216.717481 93.194369 
L 230.461358 93.091969 
L 234.644277 92.78054 
L 240.619875 93.194369 
L 250.180832 93.107119 
L 254.961311 92.793627 
L 256.753991 92.872145 
L 260.33935 92.585924 
L 262.132029 92.346497 
L 266.912508 92.941466 
L 268.107628 92.979802 
L 272.888106 92.358161 
L 274.680786 92.463331 
L 280.058825 92.849448 
L 284.839303 92.833699 
L 290.217342 93.194369 
L 295.59538 93.085364 
L 298.58318 92.818466 
L 300.973419 92.557805 
L 303.363658 92.612006 
L 305.156338 92.845902 
L 308.144137 92.859928 
L 309.339257 92.770548 
L 314.717295 93.194369 
L 316.509975 93.10772 
L 320.692894 92.775664 
L 325.473373 93.097219 
L 328.461172 92.60857 
L 332.046531 91.924241 
L 333.24165 91.955343 
L 335.63189 92.11477 
L 338.619689 91.867714 
L 341.607488 91.65907 
L 346.387967 93.085479 
L 348.180647 92.995337 
L 352.363565 92.598755 
L 356.546484 91.796568 
L 364.314762 91.556477 
L 367.302562 91.91384 
L 369.095241 92.092211 
L 372.08304 92.501125 
L 375.070839 92.87007 
L 380.448878 93.095098 
L 381.643998 92.868256 
L 386.424476 91.801257 
L 388.814716 91.417519 
L 391.802515 91.669162 
L 393.595195 91.982426 
L 395.985434 92.536738 
L 397.778113 92.69404 
L 400.765913 92.865528 
L 402.558592 92.510287 
L 403.753712 92.286288 
L 408.534191 91.762559 
L 409.72931 91.690209 
L 415.704909 91.056239 
L 420.485387 91.301122 
L 422.875627 92.176996 
L 425.265866 92.829194 
L 427.058546 93.096625 
L 430.046345 93.194369 
L 446.778021 93.094821 
L 451.558499 92.746441 
L 455.741418 92.270579 
L 457.534098 92.257081 
L 460.521897 92.398661 
L 463.509696 92.695767 
L 467.692615 93.191926 
L 469.485295 93.174164 
L 476.058453 91.932942 
L 477.253572 92.148838 
L 481.436491 93.138795 
L 482.631611 93.119358 
L 487.41209 92.782706 
L 490.997449 92.984238 
L 493.387688 92.909859 
L 499.960847 91.990432 
L 502.948646 92.378155 
L 505.338885 92.625879 
L 509.521804 92.831022 
L 510.716924 92.782893 
L 516.094962 93.160349 
L 519.680321 92.897526 
L 524.4608 92.175959 
L 526.851039 92.135927 
L 529.241279 92.371333 
L 531.631518 92.420005 
L 535.216877 92.452058 
L 539.997356 92.753721 
L 545.375395 92.814262 
L 550.753433 93.194369 
L 553.143672 93.112049 
L 555.533912 92.877247 
L 562.70463 91.302745 
L 563.30219 91.31456 
L 564.497309 91.510235 
L 568.680228 91.521735 
L 573.460707 90.656998 
L 574.058267 90.705746 
L 575.850946 91.425249 
L 580.033865 93.161388 
L 583.021665 92.950685 
L 586.009464 92.820996 
L 590.192383 93.18932 
L 591.985062 92.954091 
L 595.570421 92.314621 
L 601.54602 92.145589 
L 605.131379 91.3521 
L 606.326498 91.127293 
L 606.924058 91.057039 
L 608.119178 91.370029 
L 611.704537 92.613423 
L 612.899657 92.554488 
L 617.680135 91.971076 
L 618.875255 92.113913 
L 623.058174 92.773494 
L 625.448413 92.921565 
L 629.631332 93.19023 
L 636.80205 92.78645 
L 650.545927 93.194369 
L 654.131286 93.10194 
L 661.302004 92.4675 
L 666.082483 92.158305 
L 669.070282 91.562089 
L 671.460521 91.071079 
L 672.655641 91.401344 
L 676.83856 92.7476 
L 677.43612 92.763989 
L 677.43612 92.763989 
" clip-path="url(#p41b8bdf9d4)" style="fill: none; stroke: #00ffff; stroke-width: 1.5; stroke-linecap: square"/>
   </g>
   <g id="patch_3">
    <path d="M 46.64 390.04 
L 46.64 25.44 
" style="fill: none; stroke: #000000; stroke-width: 0.8; stroke-linejoin: miter; stroke-linecap: square"/>
   </g>
   <g id="patch_4">
    <path d="M 709.2 390.04 
L 709.2 25.44 
" style="fill: none; stroke: #000000; stroke-width: 0.8; stroke-linejoin: miter; stroke-linecap: square"/>
   </g>
   <g id="patch_5">
    <path d="M 46.64 390.04 
L 709.2 390.04 
" style="fill: none; stroke: #000000; stroke-width: 0.8; stroke-linejoin: miter; stroke-linecap: square"/>
   </g>
   <g id="patch_6">
    <path d="M 46.64 25.44 
L 709.2 25.44 
" style="fill: none; stroke: #000000; stroke-width: 0.8; stroke-linejoin: miter; stroke-linecap: square"/>
   </g>
   <g id="text_16">
    <!-- charts/episodic_return for dqn_atari (per game) -->
    <g transform="translate(235.285 19.44) scale(0.12 -0.12)">
     <defs>
      <path id="DejaVuSans-2f" d="M 1625 4666 
L 2156 4666 
L 531 -594 
L 0 -594 
L 1625 4666 
z
" transform="scale(0.015625)"/>
      <path id="DejaVuSans-5f" d="M 3263 -1063 
L 3263 -1509 
L -63 -1509 
L -63 -1063 
L 3263 -1063 
z
" transform="scale(0.015625)"/>
      <path id="DejaVuSans-66" d="M 2375 4863 
L 2375 4384 
L 1825 4384 
Q 1516 4384 1395 4259 
Q 1275 4134 1275 3809 
L 1275 3500 
L 2222 3500 
L 2222 3053 
L 1275 3053 
L 1275 0 
L 697 0 
L 697 3053 
L 147 3053 
L 147 3500 
L 697 3500 
L 697 3744 
Q 697 4328 969 4595 
Q 1241 4863 1831 4863 
L 2375 4863 
z
" transform="scale(0.015625)"/>
      <path id="DejaVuSans-71" d="M 947 1747 
Q 947 1113 1208 752 
Q 1469 391 1925 391 
Q 2381 391 2643 752 
Q 2906 1113 2906 1747 
Q 2906 2381 2643 2742 
Q 2381 3103 1925 3103 
Q 1469 3103 1208 2742 
Q 947 2381 947 1747 
z
M 2906 525 
Q 2725 213 2448 61 
Q 2172 -91 1784 -91 
Q 1150 -91 751 415 
Q 353 922 353 1747 
Q 353 2572 751 3078 
Q 1150 3584 1784 3584 
Q 2172 3584 2448 3432 
Q 2725 3281 2906 2969 
L 2906 3500 
L 3481 3500 
L 3481 -1331 
L 2906 -1331 
L 2906 525 
z
" transform="scale(0.015625)"/>
      <path id="DejaVuSans-67" d="M 2906 1791 
Q 2906 2416 2648 2759 
Q 2391 3103 1925 3103 
Q 1463 3103 1205 2759 
Q 947 2416 947 1791 
Q 947 1169 1205 825 
Q 1463 481 1925 481 
Q 2391 481 2648 825 
Q 2906 1169 2906 1791 
z
M 3481 434 
Q 3481 -459 3084 -895 
Q 2688 -1331 1869 -1331 
Q 1566 -1331 1297 -1286 
Q 1028 -1241 775 -1147 
L 775 -588 
Q 1028 -725 1275 -790 
Q 1522 -856 1778 -856 
Q 2344 -856 2625 -561 
Q 2906 -266 2906 331 
L 2906 616 
Q 2728 306 2450 153 
Q 2172 0 1784 0 
Q 1141 0 747 490 
Q 353 981 353 1791 
Q 353 2603 747 3093 
Q 1141 3584 1784 3584 
Q 2172 3584 2450 3431 
Q 2728 3278 2906 2969 
L 2906 3500 
L 3481 3500 
L 3481 434 
z
" transform="scale(0.015625)"/>
     </defs>
     <use xlink:href="#DejaVuSans-63"/>
     <use xlink:href="#DejaVuSans-68" transform="translate(54.980469 0)"/>
     <use xlink:href="#DejaVuSans-61" transform="translate(118.359375 0)"/>
     <use xlink:href="#DejaVuSans-72" transform="translate(179.638672 0)"/>
     <use xlink:href="#DejaVuSans-74" transform="translate(220.751953 0)"/>
     <use xlink:href="#DejaVuSans-73" transform="translate(259.960938 0)"/>
     <use xlink:href="#DejaVuSans-2f" transform="translate(312.060547 0)"/>
     <use xlink:href="#DejaVuSans-65" transform="translate(345.751953 0)"/>
     <use xlink:href="#DejaVuSans-70" transform="translate(407.275391 0)"/>
     <use xlink:href="#DejaVuSans-69" transform="translate(470.751953 0)"/>
     <use xlink:href="#DejaVuSans-73" transform="translate(498.535156 0)"/>
     <use xlink:href="#DejaVuSans-6f" transform="translate(550.634766 0)"/>
     <use xlink:href="#DejaVuSans-64" transform="translate(611.816406 0)"/>
     <use xlink:href="#DejaVuSans-69" transform="translate(675.292969 0)"/>
     <use xlink:href="#DejaVuSans-63" transform="translate(703.076172 0)"/>
     <use xlink:href="#DejaVuSans-5f" transform="translate(758.056641 0)"/>
     <use xlink:href="#DejaVuSans-72" transform="translate(808.056641 0)"/>
     <use xlink:href="#DejaVuSans-65" transform="translate(846.919922 0)"/>
     <use xlink:href="#DejaVuSans-74" transform="translate(908.443359 0)"/>
     <use xlink:href="#DejaVuSans-75" transform="translate(947.652344 0)"/>
     <use xlink:href="#DejaVuSans-72" transform="translate(1011.03125 0)"/>
     <use xlink:href="#DejaVuSans-6e" transform="translate(1050.394531 0)"/>
     <use xlink:href="#DejaVuSans-20" transform="translate(1113.773438 0)"/>
     <use xlink:href="#DejaVuSans-66" transform="translate(1145.560547 0)"/>
     <use xlink:href="#DejaVuSans-6f" transform="translate(1180.765625 0)"/>
     <use xlink:href="#DejaVuSans-72" transform="translate(1241.947266 0)"/>
     <use xlink:href="#DejaVuSans-20" transform="translate(1283.060547 0)"/>
     <use xlink:href="#DejaVuSans-64" transform="translate(1314.847656 0)"/>
     <use xlink:href="#DejaVuSans-71" transform="translate(1378.324219 0)"/>
     <use xlink:href="#DejaVuSans-6e" transform="translate(1441.800781 0)"/>
     <use xlink:href="#DejaVuSans-5f" transform="translate(1505.179688 0)"/>
     <use xlink:href="#DejaVuSans-61" transform="translate(1555.179688 0)"/>
     <use xlink:href="#DejaVuSans-74" transform="translate(1616.458984 0)"/>
     <use xlink:href="#DejaVuSans-61" transform="translate(1655.667969 0)"/>
     <use xlink:href="#DejaVuSans-72" transform="translate(1716.947266 0)"/>
     <use xlink:href="#DejaVuSans-69" transform="translate(1758.060547 0)"/>
     <use xlink:href="#DejaVuSans-20" transform="translate(1785.84375 0)"/>
     <use xlink:href="#DejaVuSans-28" transform="translate(1817.630859 0)"/>
     <use xlink:href="#DejaVuSans-70" transform="translate(1856.644531 0)"/>
     <use xlink:href="#DejaVuSans-65" transform="translate(1920.121094 0)"/>
     <use xlink:href="#DejaVuSans-72" transform="translate(1981.644531 0)"/>
     <use xlink:href="#DejaVuSans-20" transform="translate(2022.757812 0)"/>
     <use xlink:href="#DejaVuSans-67" transform="translate(2054.544922 0)"/>
     <use xlink:href="#DejaVuSans-61" transform="translate(2118.021484 0)"/>
     <use xlink:href="#DejaVuSans-6d" transform="translate(2179.300781 0)"/>
     <use xlink:href="#DejaVuSans-65" transform="translate(2276.712891 0)"/>
     <use xlink:href="#DejaVuSans-29" transform="translate(2338.236328 0)"/>
    </g>
   </g>
   <g id="legend_1">
    <g id="patch_7">
     <path d="M 53.64 385.04 
L 138.89 385.04 
Q 140.89 385.04 140.89 383.04 
L 140.89 251.936875 
Q 140.89 249.936875 138.89 249.936875 
L 53.64 249.936875 
Q 51.64 249.936875 51.64 251.936875 
L 51.64 383.04 
Q 51.64 385.04 53.64 385.04 
z
" style="fill: #ffffff; opacity: 0.8; stroke: #cccccc; stroke-linejoin: miter"/>
    </g>
    <g id="text_17">
     <!-- Game -->
     <g transform="translate(81.379844 261.535313) scale(0.1 -0.1)">
      <defs>
       <path id="DejaVuSans-47" d="M 3809 666 
L 3809 1919 
L 2778 1919 
L 2778 2438 
L 4434 2438 
L 4434 434 
Q 4069 175 3628 42 
Q 3188 -91 2688 -91 
Q 1594 -91 976 548 
Q 359 1188 359 2328 
Q 359 3472 976 4111 
Q 1594 4750 2688 4750 
Q 3144 4750 3555 4637 
Q 3966 4525 4313 4306 
L 4313 3634 
Q 3963 3931 3569 4081 
Q 3175 4231 2741 4231 
Q 1884 4231 1454 3753 
Q 1025 3275 1025 2328 
Q 1025 1384 1454 906 
Q 1884 428 2741 428 
Q 3075 428 3337 486 
Q 3600 544 3809 666 
z
" transform="scale(0.015625)"/>
      </defs>
      <use xlink:href="#DejaVuSans-47"/>
      <use xlink:href="#DejaVuSans-61" transform="translate(77.490234 0)"/>
      <use xlink:href="#DejaVuSans-6d" transform="translate(138.769531 0)"/>
      <use xlink:href="#DejaVuSans-65" transform="translate(236.181641 0)"/>
     </g>
    </g>
    <g id="line2d_22">
     <path d="M 55.64 272.713437 
L 65.64 272.713437 
L 75.64 272.713437 
" style="fill: none; stroke: #ff0000; stroke-width: 1.5; stroke-linecap: square"/>
    </g>
    <g id="text_18">
     <!-- Alien -->
     <g transform="translate(83.64 276.213437) scale(0.1 -0.1)">
      <defs>
       <path id="DejaVuSans-41" d="M 2188 4044 
L 1331 1722 
L 3047 1722 
L 2188 4044 
z
M 1831 4666 
L 2547 4666 
L 4325 0 
L 3669 0 
L 3244 1197 
L 1141 1197 
L 716 0 
L 50 0 
L 1831 4666 
z
" transform="scale(0.015625)"/>
      </defs>
      <use xlink:href="#DejaVuSans-41"/>
      <use xlink:href="#DejaVuSans-6c" transform="translate(68.408203 0)"/>
      <use xlink:href="#DejaVuSans-69" transform="translate(96.191406 0)"/>
      <use xlink:href="#DejaVuSans-65" transform="translate(123.974609 0)"/>
      <use xlink:href="#DejaVuSans-6e" transform="translate(185.498047 0)"/>
     </g>
    </g>
    <g id="line2d_23">
     <path d="M 55.64 287.391563 
L 65.64 287.391563 
L 75.64 287.391563 
" style="fill: none; stroke: #0000ff; stroke-width: 1.5; stroke-linecap: square"/>
    </g>
    <g id="text_19">
     <!-- Amidar -->
     <g transform="translate(83.64 290.891563) scale(0.1 -0.1)">
      <use xlink:href="#DejaVuSans-41"/>
      <use xlink:href="#DejaVuSans-6d" transform="translate(68.408203 0)"/>
      <use xlink:href="#DejaVuSans-69" transform="translate(165.820312 0)"/>
      <use xlink:href="#DejaVuSans-64" transform="translate(193.603516 0)"/>
      <use xlink:href="#DejaVuSans-61" transform="translate(257.080078 0)"/>
      <use xlink:href="#DejaVuSans-72" transform="translate(318.359375 0)"/>
     </g>
    </g>
    <g id="line2d_24">
     <path d="M 55.64 302.069687 
L 65.64 302.069687 
L 75.64 302.069687 
" style="fill: none; stroke: #008000; stroke-width: 1.5; stroke-linecap: square"/>
    </g>
    <g id="text_20">
     <!-- Assault -->
     <g transform="translate(83.64 305.569687) scale(0.1 -0.1)">
      <use xlink:href="#DejaVuSans-41"/>
      <use xlink:href="#DejaVuSans-73" transform="translate(68.408203 0)"/>
      <use xlink:href="#DejaVuSans-73" transform="translate(120.507812 0)"/>
      <use xlink:href="#DejaVuSans-61" transform="translate(172.607422 0)"/>
      <use xlink:href="#DejaVuSans-75" transform="translate(233.886719 0)"/>
      <use xlink:href="#DejaVuSans-6c" transform="translate(297.265625 0)"/>
      <use xlink:href="#DejaVuSans-74" transform="translate(325.048828 0)"/>
     </g>
    </g>
    <g id="line2d_25">
     <path d="M 55.64 316.747813 
L 65.64 316.747813 
L 75.64 316.747813 
" style="fill: none; stroke: #ffa500; stroke-width: 1.5; stroke-linecap: square"/>
    </g>
    <g id="text_21">
     <!-- Boxing -->
     <g transform="translate(83.64 320.247813) scale(0.1 -0.1)">
      <defs>
       <path id="DejaVuSans-42" d="M 1259 2228 
L 1259 519 
L 2272 519 
Q 2781 519 3026 730 
Q 3272 941 3272 1375 
Q 3272 1813 3026 2020 
Q 2781 2228 2272 2228 
L 1259 2228 
z
M 1259 4147 
L 1259 2741 
L 2194 2741 
Q 2656 2741 2882 2914 
Q 3109 3088 3109 3444 
Q 3109 3797 2882 3972 
Q 2656 4147 2194 4147 
L 1259 4147 
z
M 628 4666 
L 2241 4666 
Q 2963 4666 3353 4366 
Q 3744 4066 3744 3513 
Q 3744 3084 3544 2831 
Q 3344 2578 2956 2516 
Q 3422 2416 3680 2098 
Q 3938 1781 3938 1306 
Q 3938 681 3513 340 
Q 3088 0 2303 0 
L 628 0 
L 628 4666 
z
" transform="scale(0.015625)"/>
       <path id="DejaVuSans-78" d="M 3513 3500 
L 2247 1797 
L 3578 0 
L 2900 0 
L 1881 1375 
L 863 0 
L 184 0 
L 1544 1831 
L 300 3500 
L 978 3500 
L 1906 2253 
L 2834 3500 
L 3513 3500 
z
" transform="scale(0.015625)"/>
      </defs>
      <use xlink:href="#DejaVuSans-42"/>
      <use xlink:href="#DejaVuSans-6f" transform="translate(68.603516 0)"/>
      <use xlink:href="#DejaVuSans-78" transform="translate(126.660156 0)"/>
      <use xlink:href="#DejaVuSans-69" transform="translate(185.839844 0)"/>
      <use xlink:href="#DejaVuSans-6e" transform="translate(213.623047 0)"/>
      <use xlink:href="#DejaVuSans-67" transform="translate(277.001953 0)"/>
     </g>
    </g>
    <g id="line2d_26">
     <path d="M 55.64 331.425938 
L 65.64 331.425938 
L 75.64 331.425938 
" style="fill: none; stroke: #800080; stroke-width: 1.5; stroke-linecap: square"/>
    </g>
    <g id="text_22">
     <!-- Breakout -->
     <g transform="translate(83.64 334.925938) scale(0.1 -0.1)">
      <defs>
       <path id="DejaVuSans-6b" d="M 581 4863 
L 1159 4863 
L 1159 1991 
L 2875 3500 
L 3609 3500 
L 1753 1863 
L 3688 0 
L 2938 0 
L 1159 1709 
L 1159 0 
L 581 0 
L 581 4863 
z
" transform="scale(0.015625)"/>
      </defs>
      <use xlink:href="#DejaVuSans-42"/>
      <use xlink:href="#DejaVuSans-72" transform="translate(68.603516 0)"/>
      <use xlink:href="#DejaVuSans-65" transform="translate(107.466797 0)"/>
      <use xlink:href="#DejaVuSans-61" transform="translate(168.990234 0)"/>
      <use xlink:href="#DejaVuSans-6b" transform="translate(230.269531 0)"/>
      <use xlink:href="#DejaVuSans-6f" transform="translate(284.554688 0)"/>
      <use xlink:href="#DejaVuSans-75" transform="translate(345.736328 0)"/>
      <use xlink:href="#DejaVuSans-74" transform="translate(409.115234 0)"/>
     </g>
    </g>
    <g id="line2d_27">
     <path d="M 55.64 346.104062 
L 65.64 346.104062 
L 75.64 346.104062 
" style="fill: none; stroke: #a52a2a; stroke-width: 1.5; stroke-linecap: square"/>
    </g>
    <g id="text_23">
     <!-- Freeway -->
     <g transform="translate(83.64 349.604062) scale(0.1 -0.1)">
      <defs>
       <path id="DejaVuSans-46" d="M 628 4666 
L 3309 4666 
L 3309 4134 
L 1259 4134 
L 1259 2759 
L 3109 2759 
L 3109 2228 
L 1259 2228 
L 1259 0 
L 628 0 
L 628 4666 
z
" transform="scale(0.015625)"/>
       <path id="DejaVuSans-77" d="M 269 3500 
L 844 3500 
L 1563 769 
L 2278 3500 
L 2956 3500 
L 3675 769 
L 4391 3500 
L 4966 3500 
L 4050 0 
L 3372 0 
L 2619 2869 
L 1863 0 
L 1184 0 
L 269 3500 
z
" transform="scale(0.015625)"/>
       <path id="DejaVuSans-79" d="M 2059 -325 
Q 1816 -950 1584 -1140 
Q 1353 -1331 966 -1331 
L 506 -1331 
L 506 -850 
L 844 -850 
Q 1081 -850 1212 -737 
Q 1344 -625 1503 -206 
L 1606 56 
L 191 3500 
L 800 3500 
L 1894 763 
L 2988 3500 
L 3597 3500 
L 2059 -325 
z
" transform="scale(0.015625)"/>
      </defs>
      <use xlink:href="#DejaVuSans-46"/>
      <use xlink:href="#DejaVuSans-72" transform="translate(50.269531 0)"/>
      <use xlink:href="#DejaVuSans-65" transform="translate(89.132812 0)"/>
      <use xlink:href="#DejaVuSans-65" transform="translate(150.65625 0)"/>
      <use xlink:href="#DejaVuSans-77" transform="translate(212.179688 0)"/>
      <use xlink:href="#DejaVuSans-61" transform="translate(293.966797 0)"/>
      <use xlink:href="#DejaVuSans-79" transform="translate(355.246094 0)"/>
     </g>
    </g>
    <g id="line2d_28">
     <path d="M 55.64 360.782187 
L 65.64 360.782187 
L 75.64 360.782187 
" style="fill: none; stroke: #ff00ff; stroke-width: 1.5; stroke-linecap: square"/>
    </g>
    <g id="text_24">
     <!-- MsPacman -->
     <g transform="translate(83.64 364.282187) scale(0.1 -0.1)">
      <defs>
       <path id="DejaVuSans-4d" d="M 628 4666 
L 1569 4666 
L 2759 1491 
L 3956 4666 
L 4897 4666 
L 4897 0 
L 4281 0 
L 4281 4097 
L 3078 897 
L 2444 897 
L 1241 4097 
L 1241 0 
L 628 0 
L 628 4666 
z
" transform="scale(0.015625)"/>
       <path id="DejaVuSans-50" d="M 1259 4147 
L 1259 2394 
L 2053 2394 
Q 2494 2394 2734 2622 
Q 2975 2850 2975 3272 
Q 2975 3691 2734 3919 
Q 2494 4147 2053 4147 
L 1259 4147 
z
M 628 4666 
L 2053 4666 
Q 2838 4666 3239 4311 
Q 3641 3956 3641 3272 
Q 3641 2581 3239 2228 
Q 2838 1875 2053 1875 
L 1259 1875 
L 1259 0 
L 628 0 
L 628 4666 
z
" transform="scale(0.015625)"/>
      </defs>
      <use xlink:href="#DejaVuSans-4d"/>
      <use xlink:href="#DejaVuSans-73" transform="translate(86.279297 0)"/>
      <use xlink:href="#DejaVuSans-50" transform="translate(138.378906 0)"/>
      <use xlink:href="#DejaVuSans-61" transform="translate(194.181641 0)"/>
      <use xlink:href="#DejaVuSans-63" transform="translate(255.460938 0)"/>
      <use xlink:href="#DejaVuSans-6d" transform="translate(310.441406 0)"/>
      <use xlink:href="#DejaVuSans-61" transform="translate(407.853516 0)"/>
      <use xlink:href="#DejaVuSans-6e" transform="translate(469.132812 0)"/>
     </g>
    </g>
    <g id="line2d_29">
     <path d="M 55.64 375.460312 
L 65.64 375.460312 
L 75.64 375.460312 
" style="fill: none; stroke: #00ffff; stroke-width: 1.5; stroke-linecap: square"/>
    </g>
    <g id="text_25">
     <!-- Pong -->
     <g transform="translate(83.64 378.960312) scale(0.1 -0.1)">
      <use xlink:href="#DejaVuSans-50"/>
      <use xlink:href="#DejaVuSans-6f" transform="translate(56.677734 0)"/>
      <use xlink:href="#DejaVuSans-6e" transform="translate(117.859375 0)"/>
      <use xlink:href="#DejaVuSans-67" transform="translate(181.238281 0)"/>
     </g>
    </g>
   </g>
  </g>
 </g>
 <defs>
  <clipPath id="p41b8bdf9d4">
   <rect x="46.64" y="25.44" width="662.56" height="364.6"/>
  </clipPath>
 </defs>
</svg>
