<?xml version="1.0" encoding="utf-8" standalone="no"?>
<!DOCTYPE svg PUBLIC "-//W3C//DTD SVG 1.1//EN"
  "http://www.w3.org/Graphics/SVG/1.1/DTD/svg11.dtd">
<svg xmlns:xlink="http://www.w3.org/1999/xlink" width="720pt" height="432pt" viewBox="0 0 720 432" xmlns="http://www.w3.org/2000/svg" version="1.1">
 <metadata>
  <rdf:RDF xmlns:dc="http://purl.org/dc/elements/1.1/" xmlns:cc="http://creativecommons.org/ns#" xmlns:rdf="http://www.w3.org/1999/02/22-rdf-syntax-ns#">
   <cc:Work>
    <dc:type rdf:resource="http://purl.org/dc/dcmitype/StillImage"/>
    <dc:date>2025-02-05T20:31:44.178593</dc:date>
    <dc:format>image/svg+xml</dc:format>
    <dc:creator>
     <cc:Agent>
      <dc:title>Matplotlib v3.10.0, https://matplotlib.org/</dc:title>
     </cc:Agent>
    </dc:creator>
   </cc:Work>
  </rdf:RDF>
 </metadata>
 <defs>
  <style type="text/css">*{stroke-linejoin: round; stroke-linecap: butt}</style>
 </defs>
 <g id="figure_1">
  <g id="patch_1">
   <path d="M 0 432 
L 720 432 
L 720 0 
L 0 0 
z
" style="fill: #ffffff"/>
  </g>
  <g id="axes_1">
   <g id="patch_2">
    <path d="M 53.13125 390.04 
L 709.2 390.04 
L 709.2 25.44 
L 53.13125 25.44 
z
" style="fill: #ffffff"/>
   </g>
   <g id="FillBetweenPolyCollection_1">
    <defs>
     <path id="m6036169754" d="M 82.952557 -331.701712 
L 82.952557 -261.910823 
L 83.54958 -261.910823 
L 84.146603 -261.910823 
L 84.743626 -261.910823 
L 85.340649 -261.910823 
L 85.937673 -261.910823 
L 86.534696 -261.910823 
L 87.131719 -261.910823 
L 87.728742 -261.910823 
L 88.325765 -261.910823 
L 88.922788 -261.910823 
L 89.519812 -261.910823 
L 90.116835 -261.910823 
L 90.713858 -261.910823 
L 91.310881 -261.910823 
L 91.907904 -261.910823 
L 92.504927 -261.910823 
L 93.101951 -261.910823 
L 93.698974 -261.910823 
L 94.295997 -261.910823 
L 94.89302 -261.910823 
L 95.490043 -261.910823 
L 96.087066 -261.910823 
L 96.684089 -261.910823 
L 97.281113 -261.910823 
L 97.878136 -261.910823 
L 98.475159 -261.910823 
L 99.072182 -261.910823 
L 99.669205 -261.910823 
L 100.266228 -261.910823 
L 100.863252 -261.910823 
L 101.460275 -261.910823 
L 102.057298 -261.910823 
L 102.654321 -261.910823 
L 103.251344 -261.910823 
L 103.848367 -263.227804 
L 104.445391 -265.035754 
L 105.042414 -266.843705 
L 105.639437 -265.784234 
L 106.23646 -263.977299 
L 106.833483 -262.170364 
L 107.430506 -260.363428 
L 108.02753 -258.556493 
L 108.624553 -256.749558 
L 109.221576 -254.942623 
L 109.818599 -247.66228 
L 110.415622 -234.374117 
L 111.012645 -221.085953 
L 111.609668 -207.79779 
L 112.206692 -194.509627 
L 112.803715 -181.221463 
L 113.400738 -167.9333 
L 113.997761 -154.645137 
L 114.594784 -162.602709 
L 115.191807 -170.729354 
L 115.788831 -178.855999 
L 116.385854 -186.982645 
L 116.982877 -195.10929 
L 117.5799 -203.235935 
L 118.176923 -211.362581 
L 118.773946 -219.489226 
L 119.37097 -227.615872 
L 119.967993 -235.742517 
L 120.565016 -243.869162 
L 121.162039 -251.995808 
L 121.759062 -260.122453 
L 122.356085 -267.279353 
L 122.953109 -267.279353 
L 123.550132 -267.279353 
L 124.147155 -267.279353 
L 124.744178 -266.883418 
L 125.341201 -264.165385 
L 125.938224 -261.447351 
L 126.535247 -258.729318 
L 127.132271 -256.011284 
L 127.729294 -249.861051 
L 128.326317 -240.234873 
L 128.92334 -230.608695 
L 129.520363 -220.982517 
L 130.117386 -211.35634 
L 130.71441 -201.730162 
L 131.311433 -192.103984 
L 131.908456 -182.477806 
L 132.505479 -172.851628 
L 133.102502 -163.225451 
L 133.699525 -153.599273 
L 134.296549 -143.973095 
L 134.893572 -134.346917 
L 135.490595 -129.46805 
L 136.087618 -135.193226 
L 136.684641 -140.918402 
L 137.281664 -146.643578 
L 137.878687 -152.368754 
L 138.475711 -158.09393 
L 139.072734 -163.819106 
L 139.669757 -169.544282 
L 140.26678 -175.269458 
L 140.863803 -180.994634 
L 141.460826 -186.71981 
L 142.05785 -192.444986 
L 142.654873 -193.692963 
L 143.251896 -188.570437 
L 143.848919 -183.447911 
L 144.445942 -178.325385 
L 145.042965 -173.20286 
L 145.639989 -168.080334 
L 146.237012 -165.822431 
L 146.834035 -167.026378 
L 147.431058 -168.230326 
L 148.028081 -169.434273 
L 148.625104 -170.638221 
L 149.222128 -171.842168 
L 149.819151 -173.046116 
L 150.416174 -174.250063 
L 151.013197 -175.454011 
L 151.61022 -175.351485 
L 152.207243 -169.626309 
L 152.804266 -163.901133 
L 153.40129 -158.175957 
L 153.998313 -152.450781 
L 154.595336 -146.725605 
L 155.192359 -141.000429 
L 155.789382 -135.275253 
L 156.386405 -129.550077 
L 156.983429 -125.050825 
L 157.580452 -121.137995 
L 158.177475 -117.225166 
L 158.774498 -113.312337 
L 159.371521 -109.399508 
L 159.968544 -105.486678 
L 160.565568 -101.573849 
L 161.162591 -97.66102 
L 161.759614 -93.748191 
L 162.356637 -89.835361 
L 162.95366 -85.922532 
L 163.550683 -82.009703 
L 164.147707 -78.096874 
L 164.74473 -74.184044 
L 165.341753 -70.271215 
L 165.938776 -66.358386 
L 166.535799 -62.445557 
L 167.132822 -58.532727 
L 167.729845 -61.444318 
L 168.326869 -65.655771 
L 168.923892 -69.867223 
L 169.520915 -74.078676 
L 170.117938 -78.290129 
L 170.714961 -82.501582 
L 171.311984 -86.713034 
L 171.909008 -90.924487 
L 172.506031 -95.13594 
L 173.103054 -99.347393 
L 173.700077 -103.558846 
L 174.2971 -107.770298 
L 174.894123 -111.981751 
L 175.491147 -116.193204 
L 176.08817 -120.404657 
L 176.685193 -118.863575 
L 177.282216 -112.532192 
L 177.879239 -106.25365 
L 178.476262 -114.695494 
L 179.073286 -123.137339 
L 179.670309 -131.579183 
L 180.267332 -140.021027 
L 180.864355 -148.462871 
L 181.461378 -156.904715 
L 182.058401 -165.346559 
L 182.655424 -173.788403 
L 183.252448 -182.230247 
L 183.849471 -189.064681 
L 184.446494 -188.763186 
L 185.043517 -188.461692 
L 185.64054 -188.160198 
L 186.237563 -187.858703 
L 186.834587 -187.557209 
L 187.43161 -187.255714 
L 188.028633 -186.95422 
L 188.625656 -186.553936 
L 189.222679 -185.950608 
L 189.819702 -185.34728 
L 190.416726 -184.743952 
L 191.013749 -184.140624 
L 191.610772 -183.537296 
L 192.207795 -182.933968 
L 192.804818 -182.33064 
L 193.401841 -181.727312 
L 193.998864 -181.123984 
L 194.595888 -180.520656 
L 195.192911 -179.917328 
L 195.789934 -179.314 
L 196.386957 -178.710672 
L 196.98398 -178.107344 
L 197.581003 -177.504016 
L 198.178027 -176.900688 
L 198.77505 -176.29736 
L 199.372073 -176.815576 
L 199.969096 -178.324745 
L 200.566119 -179.833914 
L 201.163142 -181.343082 
L 201.760166 -182.852251 
L 202.357189 -184.36142 
L 202.954212 -185.870589 
L 203.551235 -184.096205 
L 204.148258 -182.284183 
L 204.745281 -180.472161 
L 205.342305 -178.660138 
L 205.939328 -174.403494 
L 206.536351 -167.179809 
L 207.133374 -159.956124 
L 207.730397 -152.73244 
L 208.32742 -145.508755 
L 208.924443 -138.28507 
L 209.521467 -131.061385 
L 210.11849 -133.661602 
L 210.715513 -144.82317 
L 211.312536 -155.984738 
L 211.909559 -167.146306 
L 212.506582 -178.307874 
L 213.103606 -183.876221 
L 213.700629 -187.188935 
L 214.297652 -190.50165 
L 214.894675 -193.814364 
L 215.491698 -197.127079 
L 216.088721 -200.439793 
L 216.685745 -203.752508 
L 217.282768 -203.657373 
L 217.879791 -200.337201 
L 218.476814 -197.01703 
L 219.073837 -193.696859 
L 219.67086 -190.376687 
L 220.267884 -187.056516 
L 220.864907 -182.097005 
L 221.46193 -176.9716 
L 222.058953 -171.846194 
L 222.655976 -166.720789 
L 223.252999 -161.595384 
L 223.850022 -156.469978 
L 224.447046 -151.344573 
L 225.044069 -146.219168 
L 225.641092 -141.093762 
L 226.238115 -135.968357 
L 226.835138 -130.842952 
L 227.432161 -125.717546 
L 228.029185 -120.592141 
L 228.626208 -115.466736 
L 229.223231 -110.34133 
L 229.820254 -105.215925 
L 230.417277 -100.09052 
L 231.0143 -96.039272 
L 231.611324 -101.475339 
L 232.208347 -106.911405 
L 232.80537 -112.347472 
L 233.402393 -117.783539 
L 233.999416 -123.219606 
L 234.596439 -128.655673 
L 235.193462 -134.09174 
L 235.790486 -139.527806 
L 236.387509 -144.963873 
L 236.984532 -150.39994 
L 237.581555 -155.836007 
L 238.178578 -161.272074 
L 238.775601 -166.708141 
L 239.372625 -172.144207 
L 239.969648 -177.580274 
L 240.566671 -183.016341 
L 241.163694 -188.452408 
L 241.760717 -193.587932 
L 242.35774 -198.100203 
L 242.954764 -202.612474 
L 243.551787 -207.124744 
L 244.14881 -211.637015 
L 244.745833 -216.149286 
L 245.342856 -220.661557 
L 245.939879 -225.173828 
L 246.536903 -229.686099 
L 247.133926 -228.763857 
L 247.730949 -224.547675 
L 248.327972 -220.331493 
L 248.924995 -216.115311 
L 249.522018 -211.899129 
L 250.119041 -207.682947 
L 250.716065 -203.466764 
L 251.313088 -199.250582 
L 251.910111 -195.0344 
L 252.507134 -192.026745 
L 253.104157 -191.724911 
L 253.70118 -191.423077 
L 254.298204 -191.121244 
L 254.895227 -190.81941 
L 255.49225 -190.517576 
L 256.089273 -190.215742 
L 256.686296 -189.913909 
L 257.283319 -189.612075 
L 257.880343 -189.310241 
L 258.477366 -189.008407 
L 259.074389 -188.706574 
L 259.671412 -188.40474 
L 260.268435 -188.102906 
L 260.865458 -187.801072 
L 261.462482 -187.499239 
L 262.059505 -187.197405 
L 262.656528 -186.895571 
L 263.253551 -188.327185 
L 263.850574 -185.916737 
L 264.447597 -178.997922 
L 265.04462 -172.079106 
L 265.641644 -165.160291 
L 266.238667 -158.241476 
L 266.83569 -151.32266 
L 267.432713 -144.403845 
L 268.029736 -137.48503 
L 268.626759 -130.566215 
L 269.223783 -123.647399 
L 269.820806 -116.728584 
L 270.417829 -109.809769 
L 271.014852 -102.890953 
L 271.611875 -95.972138 
L 272.208898 -89.053323 
L 272.805922 -82.134508 
L 273.402945 -75.215692 
L 273.999968 -83.232468 
L 274.596991 -94.394036 
L 275.194014 -105.555604 
L 275.791037 -116.717172 
L 276.388061 -127.87874 
L 276.985084 -139.040308 
L 277.582107 -150.201876 
L 278.17913 -161.363444 
L 278.776153 -172.525012 
L 279.373176 -183.68658 
L 279.970199 -194.848148 
L 280.567223 -197.797161 
L 281.164246 -193.272201 
L 281.761269 -188.747241 
L 282.358292 -184.222281 
L 282.955315 -179.697321 
L 283.552338 -175.172361 
L 284.149362 -170.647401 
L 284.746385 -171.547952 
L 285.343408 -172.450406 
L 285.940431 -173.35286 
L 286.537454 -174.255314 
L 287.134477 -175.157769 
L 287.731501 -176.060223 
L 288.328524 -176.962677 
L 288.925547 -177.865131 
L 289.52257 -178.767585 
L 290.119593 -179.670039 
L 290.716616 -180.572494 
L 291.313639 -181.474948 
L 291.910663 -182.377402 
L 292.507686 -181.870329 
L 293.104709 -180.363704 
L 293.701732 -178.857079 
L 294.298755 -177.350454 
L 294.895778 -176.048409 
L 295.492802 -176.349396 
L 296.089825 -176.650383 
L 296.686848 -176.95137 
L 297.283871 -177.252356 
L 297.880894 -177.553343 
L 298.477917 -177.85433 
L 299.074941 -178.155317 
L 299.671964 -178.456304 
L 300.268987 -178.757291 
L 300.86601 -179.058278 
L 301.463033 -179.359265 
L 302.060056 -179.660251 
L 302.65708 -179.961238 
L 303.254103 -180.262225 
L 303.851126 -180.563212 
L 304.448149 -180.864199 
L 305.045172 -181.165186 
L 305.642195 -183.138053 
L 306.239218 -189.480131 
L 306.836242 -195.822209 
L 307.433265 -193.128657 
L 308.030288 -190.113713 
L 308.627311 -187.098768 
L 309.224334 -184.083824 
L 309.821357 -181.06888 
L 310.418381 -178.053935 
L 311.015404 -175.038991 
L 311.612427 -172.024047 
L 312.20945 -169.009103 
L 312.806473 -165.994158 
L 313.403496 -162.979214 
L 314.00052 -159.96427 
L 314.597543 -156.949325 
L 315.194566 -153.934381 
L 315.791589 -150.919437 
L 316.388612 -151.956409 
L 316.985635 -158.581838 
L 317.582659 -165.207267 
L 318.179682 -171.832696 
L 318.776705 -178.458125 
L 319.373728 -185.083554 
L 319.970751 -191.708983 
L 320.567774 -198.334412 
L 321.164797 -204.959841 
L 321.761821 -211.58527 
L 322.358844 -218.210699 
L 322.955867 -222.095479 
L 323.55289 -223.299427 
L 324.149913 -224.503374 
L 324.746936 -219.968405 
L 325.34396 -214.854498 
L 325.940983 -209.740591 
L 326.538006 -204.626684 
L 327.135029 -204.037968 
L 327.732052 -205.843889 
L 328.329075 -207.64981 
L 328.926099 -209.455732 
L 329.523122 -211.261653 
L 330.120145 -213.067574 
L 330.717168 -214.873495 
L 331.314191 -216.679416 
L 331.911214 -218.485338 
L 332.508237 -220.291259 
L 333.105261 -222.09718 
L 333.702284 -217.75576 
L 334.299307 -212.624586 
L 334.89633 -207.493412 
L 335.493353 -202.362238 
L 336.090376 -197.231064 
L 336.6874 -192.09989 
L 337.284423 -186.968716 
L 337.881446 -183.292528 
L 338.478469 -179.680685 
L 339.075492 -176.068843 
L 339.672515 -172.457001 
L 340.269539 -168.845158 
L 340.866562 -165.233316 
L 341.463585 -161.621474 
L 342.060608 -158.009631 
L 342.657631 -154.397789 
L 343.254654 -150.785946 
L 343.851678 -147.174104 
L 344.448701 -143.562262 
L 345.045724 -139.950419 
L 345.642747 -136.338577 
L 346.23977 -132.726734 
L 346.836793 -129.114892 
L 347.433816 -125.50305 
L 348.03084 -123.717088 
L 348.627863 -135.16744 
L 349.224886 -146.617792 
L 349.821909 -158.068144 
L 350.418932 -169.518496 
L 351.015955 -180.968848 
L 351.612979 -192.4192 
L 352.210002 -203.869552 
L 352.807025 -215.319904 
L 353.404048 -218.605311 
L 354.001071 -216.190641 
L 354.598094 -213.775971 
L 355.195118 -211.361301 
L 355.792141 -208.946631 
L 356.389164 -206.531961 
L 356.986187 -204.117291 
L 357.58321 -201.702621 
L 358.180233 -199.28795 
L 358.777257 -197.258546 
L 359.37428 -196.356092 
L 359.971303 -195.453638 
L 360.568326 -194.551184 
L 361.165349 -193.64873 
L 361.762372 -192.746276 
L 362.359395 -191.843821 
L 362.956419 -190.941367 
L 363.553442 -190.038913 
L 364.150465 -189.136459 
L 364.747488 -188.234005 
L 365.344511 -187.331551 
L 365.941534 -186.429096 
L 366.538558 -185.526642 
L 367.135581 -184.624188 
L 367.732604 -183.721734 
L 368.329627 -182.81928 
L 368.92665 -181.916826 
L 369.523673 -183.228493 
L 370.120697 -187.748369 
L 370.71772 -192.268245 
L 371.314743 -196.78812 
L 371.911766 -201.307996 
L 372.508789 -205.827872 
L 373.105812 -210.347748 
L 373.702836 -214.867624 
L 374.299859 -219.387499 
L 374.896882 -222.024349 
L 375.493905 -216.59745 
L 376.090928 -211.17055 
L 376.687951 -205.74365 
L 377.284974 -200.31675 
L 377.881998 -194.889851 
L 378.479021 -189.462951 
L 379.076044 -184.036051 
L 379.673067 -178.609151 
L 380.27009 -178.689098 
L 380.867113 -183.814504 
L 381.464137 -188.939909 
L 382.06116 -188.789618 
L 382.658183 -187.885135 
L 383.255206 -186.980651 
L 383.852229 -186.076168 
L 384.449252 -185.171685 
L 385.046276 -184.267201 
L 385.643299 -183.362718 
L 386.240322 -182.458235 
L 386.837345 -181.553752 
L 387.434368 -180.649268 
L 388.031391 -179.744785 
L 388.628414 -178.840302 
L 389.225438 -177.935818 
L 389.822461 -177.031335 
L 390.419484 -176.126852 
L 391.016507 -174.697346 
L 391.61353 -173.193256 
L 392.210553 -171.689165 
L 392.807577 -170.185075 
L 393.4046 -168.680985 
L 394.001623 -167.176894 
L 394.598646 -165.672804 
L 395.195669 -164.168714 
L 395.792692 -162.664624 
L 396.389716 -161.160533 
L 396.986739 -159.656443 
L 397.583762 -158.152353 
L 398.180785 -156.648262 
L 398.777808 -151.625568 
L 399.374831 -143.193204 
L 399.971855 -134.76084 
L 400.568878 -126.328475 
L 401.165901 -117.896111 
L 401.762924 -120.708899 
L 402.359947 -124.925081 
L 402.95697 -129.141263 
L 403.553993 -133.357445 
L 404.151017 -137.573627 
L 404.74804 -141.789809 
L 405.345063 -146.005991 
L 405.942086 -150.222173 
L 406.539109 -154.438356 
L 407.136132 -158.654538 
L 407.733156 -162.87072 
L 408.330179 -167.086902 
L 408.927202 -171.303084 
L 409.524225 -175.519266 
L 410.121248 -179.735448 
L 410.718271 -183.95163 
L 411.315295 -188.167812 
L 411.912318 -192.365133 
L 412.509341 -196.280159 
L 413.106364 -200.195185 
L 413.703387 -204.110212 
L 414.30041 -208.025238 
L 414.897434 -211.940264 
L 415.494457 -215.85529 
L 416.09148 -219.770317 
L 416.688503 -223.685343 
L 417.285526 -227.600369 
L 417.882549 -231.515395 
L 418.479572 -235.430422 
L 419.076596 -236.192956 
L 419.673619 -234.08368 
L 420.270642 -231.974405 
L 420.867665 -229.86513 
L 421.464688 -227.755854 
L 422.061711 -225.646579 
L 422.658735 -225.011522 
L 423.255758 -226.819473 
L 423.852781 -228.627423 
L 424.449804 -230.435373 
L 425.046827 -232.243323 
L 425.64385 -234.051274 
L 426.240874 -235.859224 
L 426.837897 -237.667174 
L 427.43492 -239.475125 
L 428.031943 -241.283075 
L 428.628966 -242.700375 
L 429.225989 -233.041695 
L 429.823013 -223.383014 
L 430.420036 -213.724334 
L 431.017059 -204.065653 
L 431.614082 -194.406973 
L 432.211105 -184.748293 
L 432.808128 -175.089612 
L 433.405151 -173.088915 
L 434.002175 -177.613875 
L 434.599198 -182.138835 
L 435.196221 -186.663795 
L 435.793244 -191.188755 
L 436.390267 -195.713715 
L 436.98729 -200.238676 
L 437.584314 -204.763636 
L 438.181337 -209.288596 
L 438.77836 -213.813556 
L 439.375383 -218.338516 
L 439.972406 -222.700772 
L 440.569429 -217.882278 
L 441.166453 -213.063784 
L 441.763476 -208.24529 
L 442.360499 -203.426797 
L 442.957522 -198.608303 
L 443.554545 -193.789809 
L 444.151568 -194.478749 
L 444.748591 -198.088566 
L 445.345615 -201.698383 
L 445.942638 -205.308199 
L 446.539661 -208.918016 
L 447.136684 -212.527833 
L 447.733707 -216.137649 
L 448.33073 -219.747466 
L 448.927754 -223.357283 
L 449.524777 -224.427919 
L 450.1218 -220.508492 
L 450.718823 -216.589064 
L 451.315846 -212.669636 
L 451.912869 -208.750209 
L 452.509893 -204.830781 
L 453.106916 -200.911354 
L 453.703939 -196.991926 
L 454.300962 -193.072498 
L 454.897985 -190.520594 
L 455.495008 -188.407758 
L 456.092032 -186.294922 
L 456.689055 -184.182085 
L 457.286078 -182.069249 
L 457.883101 -179.956413 
L 458.480124 -177.843576 
L 459.077147 -175.73074 
L 459.67417 -173.617904 
L 460.271194 -171.505067 
L 460.868217 -169.392231 
L 461.46524 -167.279395 
L 462.062263 -165.166558 
L 462.659286 -163.053722 
L 463.256309 -160.940886 
L 463.853333 -158.828049 
L 464.450356 -156.715213 
L 465.047379 -154.602377 
L 465.644402 -152.78841 
L 466.241425 -150.983502 
L 466.838448 -149.178593 
L 467.435472 -147.373685 
L 468.032495 -145.568777 
L 468.629518 -143.763868 
L 469.226541 -141.95896 
L 469.823564 -140.154052 
L 470.420587 -138.349143 
L 471.017611 -136.544235 
L 471.614634 -134.739327 
L 472.211657 -132.934418 
L 472.80868 -131.12951 
L 473.405703 -129.324602 
L 474.002726 -127.519693 
L 474.599749 -125.714785 
L 475.196773 -123.909877 
L 475.793796 -123.115076 
L 476.390819 -129.446459 
L 476.987842 -135.777842 
L 477.584865 -142.109225 
L 478.181888 -148.440608 
L 478.778912 -154.771991 
L 479.375935 -161.103374 
L 479.972958 -167.434757 
L 480.569981 -173.76614 
L 481.167004 -180.097523 
L 481.764027 -186.428906 
L 482.361051 -192.760289 
L 482.958074 -199.091672 
L 483.555097 -198.028892 
L 484.15212 -187.458762 
L 484.749143 -176.888632 
L 485.346166 -166.318502 
L 485.943189 -155.748372 
L 486.540213 -151.56507 
L 487.137236 -157.900014 
L 487.734259 -164.234958 
L 488.331282 -170.569903 
L 488.928305 -176.904847 
L 489.525328 -183.239791 
L 490.122352 -189.574735 
L 490.719375 -195.909679 
L 491.316398 -202.244623 
L 491.913421 -208.579567 
L 492.510444 -207.50578 
L 493.107467 -205.397689 
L 493.704491 -203.289598 
L 494.301514 -201.181507 
L 494.898537 -199.073415 
L 495.49556 -196.965324 
L 496.092583 -194.857233 
L 496.689606 -192.749142 
L 497.28663 -193.176279 
L 497.883653 -194.682058 
L 498.480676 -196.187837 
L 499.077699 -197.693617 
L 499.674722 -199.199396 
L 500.271745 -200.705175 
L 500.868768 -202.210955 
L 501.465792 -203.716734 
L 502.062815 -205.222513 
L 502.659838 -206.728293 
L 503.256861 -208.234072 
L 503.853884 -209.739851 
L 504.450907 -211.245631 
L 505.047931 -212.75141 
L 505.644954 -214.257189 
L 506.241977 -215.762968 
L 506.839 -217.268748 
L 507.436023 -218.774527 
L 508.033046 -219.226276 
L 508.63007 -219.527601 
L 509.227093 -219.828926 
L 509.824116 -220.130251 
L 510.421139 -220.431576 
L 511.018162 -220.732901 
L 511.615185 -221.034227 
L 512.212209 -221.335552 
L 512.809232 -221.636877 
L 513.406255 -221.938202 
L 514.003278 -222.239527 
L 514.600301 -222.540852 
L 515.197324 -220.605671 
L 515.794347 -218.197776 
L 516.391371 -215.789881 
L 516.988394 -213.381987 
L 517.585417 -210.974092 
L 518.18244 -208.566197 
L 518.779463 -204.60382 
L 519.376486 -200.38527 
L 519.97351 -196.166719 
L 520.570533 -191.948168 
L 521.167556 -187.729618 
L 521.764579 -183.511067 
L 522.361602 -179.292516 
L 522.958625 -175.073965 
L 523.555649 -170.855415 
L 524.152672 -166.636864 
L 524.749695 -162.418313 
L 525.346718 -158.199762 
L 525.943741 -153.981212 
L 526.540764 -149.762661 
L 527.137788 -145.54411 
L 527.734811 -141.325559 
L 528.331834 -137.107009 
L 528.928857 -133.383509 
L 529.52588 -140.92087 
L 530.122903 -148.458231 
L 530.719926 -155.995592 
L 531.31695 -163.532953 
L 531.913973 -171.070313 
L 532.510996 -178.607674 
L 533.108019 -186.145035 
L 533.705042 -193.682396 
L 534.302065 -201.219757 
L 534.899089 -208.757117 
L 535.496112 -215.767324 
L 536.093135 -217.880161 
L 536.690158 -219.992997 
L 537.287181 -222.105833 
L 537.884204 -224.21867 
L 538.481228 -226.331506 
L 539.078251 -228.444342 
L 539.675274 -229.454633 
L 540.272297 -228.850966 
L 540.86932 -228.247298 
L 541.466343 -227.643631 
L 542.063366 -227.039963 
L 542.66039 -226.436296 
L 543.257413 -225.832628 
L 543.854436 -225.228961 
L 544.451459 -224.625293 
L 545.048482 -224.021626 
L 545.645505 -223.417958 
L 546.242529 -222.814291 
L 546.839552 -222.210623 
L 547.436575 -220.104998 
L 548.033598 -216.194363 
L 548.630621 -212.283728 
L 549.227644 -208.373094 
L 549.824668 -204.462459 
L 550.421691 -205.347866 
L 551.018714 -209.573539 
L 551.615737 -213.799212 
L 552.21276 -218.024884 
L 552.809783 -222.250557 
L 553.406807 -226.47623 
L 554.00383 -230.701902 
L 554.600853 -234.927575 
L 555.197876 -239.153248 
L 555.794899 -243.37892 
L 556.391922 -247.604593 
L 556.988945 -251.830266 
L 557.585969 -256.055938 
L 558.182992 -260.024586 
L 558.780015 -263.03953 
L 559.377038 -266.054474 
L 559.974061 -269.069419 
L 560.571084 -272.042178 
L 561.168108 -269.216156 
L 561.765131 -264.403067 
L 562.362154 -259.589978 
L 562.959177 -254.776889 
L 563.5562 -249.9638 
L 564.153223 -245.150711 
L 564.750247 -240.337622 
L 565.34727 -235.524533 
L 565.944293 -230.711444 
L 566.541316 -225.898355 
L 567.138339 -221.085267 
L 567.735362 -216.272178 
L 568.332386 -211.459089 
L 568.929409 -206.646 
L 569.526432 -201.832911 
L 570.123455 -197.019822 
L 570.720478 -192.206733 
L 571.317501 -187.393644 
L 571.914524 -187.274815 
L 572.511548 -187.878822 
L 573.108571 -188.48283 
L 573.705594 -189.086837 
L 574.302617 -189.690845 
L 574.89964 -190.294852 
L 575.496663 -190.89886 
L 576.093687 -191.502867 
L 576.69071 -192.106874 
L 577.287733 -185.742897 
L 577.884756 -178.523264 
L 578.481779 -171.303631 
L 579.078802 -164.083997 
L 579.675826 -156.864364 
L 580.272849 -149.644731 
L 580.869872 -142.425097 
L 581.466895 -135.205464 
L 582.063918 -127.985831 
L 582.660941 -134.054903 
L 583.257964 -140.676614 
L 583.854988 -147.298325 
L 584.452011 -153.920036 
L 585.049034 -160.541747 
L 585.646057 -167.163458 
L 586.24308 -173.785169 
L 586.840103 -180.40688 
L 587.437127 -187.028591 
L 588.03415 -193.650302 
L 588.631173 -200.272013 
L 589.228196 -206.893724 
L 589.825219 -213.515435 
L 590.422242 -220.137146 
L 591.019266 -226.758858 
L 591.616289 -233.380569 
L 592.213312 -240.00228 
L 592.810335 -245.84247 
L 593.407358 -246.143626 
L 594.004381 -246.444782 
L 594.601405 -246.745938 
L 595.198428 -247.047094 
L 595.795451 -247.34825 
L 596.392474 -247.649406 
L 596.989497 -247.950561 
L 597.58652 -248.251717 
L 598.183543 -248.552873 
L 598.780567 -248.854029 
L 599.37759 -249.155185 
L 599.974613 -249.456341 
L 600.571636 -249.757497 
L 601.168659 -250.058653 
L 601.765682 -250.359808 
L 602.362706 -250.660964 
L 602.959729 -250.96212 
L 603.556752 -251.891881 
L 604.153775 -254.307911 
L 604.750798 -256.723941 
L 605.347821 -259.13997 
L 605.944845 -261.556 
L 606.541868 -263.97203 
L 607.138891 -266.38806 
L 607.735914 -267.578296 
L 608.332937 -263.366844 
L 608.92996 -259.155391 
L 609.526984 -254.943938 
L 610.124007 -250.732485 
L 610.72103 -246.521032 
L 611.318053 -242.30958 
L 611.915076 -238.098127 
L 612.512099 -233.886674 
L 613.109122 -229.675221 
L 613.706146 -225.463769 
L 614.303169 -225.434397 
L 614.900192 -226.943566 
L 615.497215 -228.452734 
L 616.094238 -229.961903 
L 616.691261 -231.471072 
L 617.288285 -232.980241 
L 617.885308 -234.48941 
L 618.482331 -235.998579 
L 619.079354 -237.507747 
L 619.676377 -239.016916 
L 620.2734 -240.526085 
L 620.870424 -242.035254 
L 621.467447 -243.544423 
L 622.06447 -245.053591 
L 622.661493 -246.56276 
L 623.258516 -247.406253 
L 623.855539 -244.396384 
L 624.452563 -241.386515 
L 625.049586 -241.880363 
L 625.646609 -241.206522 
L 626.243632 -236.081117 
L 626.840655 -230.955711 
L 627.437678 -225.830306 
L 628.034701 -220.7049 
L 628.631725 -215.579495 
L 629.228748 -210.45409 
L 629.825771 -205.328684 
L 630.422794 -200.203279 
L 631.019817 -195.077874 
L 631.61684 -189.952468 
L 632.213864 -184.827063 
L 632.810887 -179.701658 
L 633.40791 -174.576252 
L 634.004933 -169.450847 
L 634.601956 -164.325442 
L 635.198979 -160.699961 
L 635.796003 -166.421923 
L 636.393026 -172.143884 
L 636.990049 -177.865846 
L 637.587072 -183.587807 
L 638.184095 -189.309768 
L 638.781118 -195.03173 
L 639.378141 -200.753691 
L 639.975165 -206.475653 
L 640.572188 -212.197614 
L 641.169211 -217.919576 
L 641.766234 -223.641537 
L 642.363257 -229.363498 
L 642.96028 -235.08546 
L 643.557304 -240.807421 
L 644.154327 -246.529383 
L 644.75135 -245.517787 
L 645.348373 -242.507918 
L 645.945396 -241.37694 
L 646.542419 -244.391884 
L 647.139443 -247.406829 
L 647.736466 -241.951903 
L 648.333489 -235.925402 
L 648.930512 -229.898901 
L 649.527535 -223.8724 
L 650.124558 -217.845898 
L 650.721582 -211.819397 
L 651.318605 -205.792896 
L 651.915628 -199.766395 
L 652.512651 -193.739894 
L 653.109674 -187.713393 
L 653.706697 -181.686892 
L 654.30372 -175.660391 
L 654.900744 -169.63389 
L 655.497767 -163.607389 
L 656.09479 -157.580888 
L 656.691813 -153.347899 
L 657.288836 -150.941354 
L 657.885859 -148.53481 
L 658.482883 -146.128266 
L 659.079906 -143.721721 
L 659.676929 -141.315177 
L 660.273952 -138.908632 
L 660.870975 -136.502088 
L 661.467998 -134.095543 
L 662.065022 -131.688999 
L 662.662045 -129.282454 
L 663.259068 -126.87591 
L 663.856091 -124.469365 
L 664.453114 -122.062821 
L 665.050137 -119.656277 
L 665.647161 -117.249732 
L 666.244184 -114.843188 
L 666.841207 -112.436643 
L 667.43823 -115.69654 
L 668.035253 -122.020813 
L 668.632276 -128.345086 
L 669.229299 -134.66936 
L 669.826323 -140.993633 
L 670.423346 -147.317906 
L 671.020369 -153.642179 
L 671.617392 -159.966452 
L 672.214415 -166.290725 
L 672.811438 -172.614998 
L 673.408462 -178.939272 
L 674.005485 -185.263545 
L 674.602508 -191.587818 
L 675.199531 -197.912091 
L 675.796554 -204.236364 
L 676.393577 -210.560637 
L 676.990601 -216.88491 
L 677.587624 -220.593669 
L 678.184647 -218.962584 
L 678.78167 -218.962584 
L 679.378693 -218.962584 
L 679.378693 -299.490533 
L 679.378693 -299.490533 
L 678.78167 -299.490533 
L 678.184647 -299.490533 
L 677.587624 -298.906245 
L 676.990601 -297.398773 
L 676.393577 -296.073536 
L 675.796554 -296.073536 
L 675.199531 -296.073536 
L 674.602508 -296.073536 
L 674.005485 -296.073536 
L 673.408462 -296.073536 
L 672.811438 -296.073536 
L 672.214415 -296.073536 
L 671.617392 -296.073536 
L 671.020369 -296.073536 
L 670.423346 -296.612998 
L 669.826323 -302.947942 
L 669.229299 -309.282886 
L 668.632276 -315.61783 
L 668.035253 -321.952774 
L 667.43823 -328.287718 
L 666.841207 -329.754413 
L 666.244184 -325.531117 
L 665.647161 -321.307821 
L 665.050137 -317.084525 
L 664.453114 -312.861229 
L 663.856091 -308.637932 
L 663.259068 -304.414636 
L 662.662045 -300.19134 
L 662.065022 -298.563413 
L 661.467998 -301.58345 
L 660.870975 -304.603487 
L 660.273952 -307.623525 
L 659.676929 -310.643562 
L 659.079906 -313.663599 
L 658.482883 -316.683636 
L 657.885859 -319.703673 
L 657.288836 -322.72371 
L 656.691813 -325.743747 
L 656.09479 -323.184038 
L 655.497767 -319.271209 
L 654.900744 -315.35838 
L 654.30372 -311.445551 
L 653.706697 -307.532721 
L 653.109674 -303.619892 
L 652.512651 -299.707063 
L 651.915628 -295.794234 
L 651.318605 -295.629679 
L 650.721582 -295.66684 
L 650.124558 -296.240717 
L 649.527535 -295.741161 
L 648.930512 -295.817437 
L 648.333489 -296.041165 
L 647.736466 -296.264893 
L 647.139443 -296.488622 
L 646.542419 -296.71235 
L 645.945396 -296.936079 
L 645.348373 -297.159807 
L 644.75135 -297.383535 
L 644.154327 -297.590243 
L 643.557304 -297.441601 
L 642.96028 -297.292959 
L 642.363257 -297.144316 
L 641.766234 -296.995674 
L 641.169211 -296.847031 
L 640.572188 -296.748968 
L 639.975165 -296.860504 
L 639.378141 -296.972041 
L 638.781118 -297.083577 
L 638.184095 -297.195113 
L 637.587072 -297.30665 
L 636.990049 -297.418186 
L 636.393026 -297.529722 
L 635.796003 -297.641259 
L 635.198979 -297.752795 
L 634.601956 -297.864331 
L 634.004933 -297.975867 
L 633.40791 -298.087404 
L 632.810887 -298.759266 
L 632.213864 -299.963213 
L 631.61684 -301.16716 
L 631.019817 -302.371108 
L 630.422794 -303.575055 
L 629.825771 -304.779003 
L 629.228748 -305.98295 
L 628.631725 -307.186898 
L 628.034701 -308.390845 
L 627.437678 -309.594793 
L 626.840655 -310.79874 
L 626.243632 -312.002688 
L 625.646609 -313.206635 
L 625.049586 -314.410583 
L 624.452563 -315.61454 
L 623.855539 -316.819164 
L 623.258516 -318.023787 
L 622.661493 -319.228411 
L 622.06447 -320.433034 
L 621.467447 -321.637658 
L 620.870424 -322.842281 
L 620.2734 -324.046905 
L 619.676377 -325.251528 
L 619.079354 -326.456151 
L 618.482331 -327.660775 
L 617.885308 -328.865398 
L 617.288285 -330.070022 
L 616.691261 -331.274645 
L 616.094238 -332.479269 
L 615.497215 -333.683892 
L 614.900192 -334.888516 
L 614.303169 -336.093139 
L 613.706146 -336.273025 
L 613.109122 -332.052103 
L 612.512099 -327.831181 
L 611.915076 -323.610259 
L 611.318053 -319.389337 
L 610.72103 -315.168415 
L 610.124007 -310.947493 
L 609.526984 -306.726571 
L 608.92996 -302.505649 
L 608.332937 -298.284727 
L 607.735914 -296.034815 
L 607.138891 -296.020083 
L 606.541868 -295.908492 
L 605.944845 -296.899768 
L 605.347821 -298.705689 
L 604.750798 -300.511611 
L 604.153775 -302.317532 
L 603.556752 -304.123453 
L 602.959729 -303.967136 
L 602.362706 -302.462202 
L 601.765682 -300.957268 
L 601.168659 -299.452333 
L 600.571636 -297.947399 
L 599.974613 -296.442465 
L 599.37759 -295.821356 
L 598.780567 -295.858608 
L 598.183543 -295.895859 
L 597.58652 -295.933111 
L 596.989497 -295.970363 
L 596.392474 -296.007614 
L 595.795451 -296.044866 
L 595.198428 -296.047817 
L 594.601405 -295.936172 
L 594.004381 -295.824526 
L 593.407358 -295.712881 
L 592.810335 -295.622638 
L 592.213312 -295.697178 
L 591.616289 -295.771717 
L 591.019266 -295.846257 
L 590.422242 -295.920796 
L 589.825219 -296.153532 
L 589.228196 -299.685342 
L 588.631173 -297.487705 
L 588.03415 -296.218955 
L 587.437127 -296.293494 
L 586.840103 -296.368034 
L 586.24308 -296.442574 
L 585.646057 -296.517113 
L 585.049034 -296.591653 
L 584.452011 -296.666192 
L 583.854988 -296.740732 
L 583.257964 -296.815272 
L 582.660941 -296.808091 
L 582.063918 -296.770912 
L 581.466895 -296.733734 
L 580.869872 -296.696555 
L 580.272849 -296.659376 
L 579.675826 -296.622197 
L 579.078802 -296.585018 
L 578.481779 -296.54784 
L 577.884756 -296.510661 
L 577.287733 -296.473482 
L 576.69071 -296.436303 
L 576.093687 -296.399125 
L 575.496663 -296.361946 
L 574.89964 -296.324767 
L 574.302617 -296.287588 
L 573.705594 -296.297705 
L 573.108571 -296.409296 
L 572.511548 -296.520886 
L 571.914524 -296.632477 
L 571.317501 -296.744068 
L 570.720478 -296.814935 
L 570.123455 -296.703453 
L 569.526432 -296.591971 
L 568.929409 -296.480489 
L 568.332386 -296.369007 
L 567.735362 -296.257525 
L 567.138339 -296.146044 
L 566.541316 -296.073536 
L 565.944293 -296.073536 
L 565.34727 -296.073536 
L 564.750247 -296.073536 
L 564.153223 -296.073536 
L 563.5562 -296.073536 
L 562.959177 -296.073536 
L 562.362154 -296.073536 
L 561.765131 -296.073536 
L 561.168108 -296.073536 
L 560.571084 -296.073536 
L 559.974061 -296.073536 
L 559.377038 -296.073536 
L 558.780015 -296.073536 
L 558.182992 -296.044339 
L 557.585969 -296.007087 
L 556.988945 -295.969836 
L 556.391922 -295.932584 
L 555.794899 -295.895333 
L 555.197876 -295.858081 
L 554.600853 -295.82083 
L 554.00383 -295.783578 
L 553.406807 -295.746327 
L 552.809783 -295.709075 
L 552.21276 -295.741653 
L 551.615737 -295.853189 
L 551.018714 -295.964725 
L 550.421691 -296.076261 
L 549.824668 -296.187798 
L 549.227644 -296.299334 
L 548.630621 -296.41087 
L 548.033598 -296.522407 
L 547.436575 -296.633943 
L 546.839552 -296.745479 
L 546.242529 -296.835287 
L 545.645505 -296.835287 
L 545.048482 -296.835287 
L 544.451459 -296.835287 
L 543.854436 -296.835287 
L 543.257413 -296.835287 
L 542.66039 -296.835287 
L 542.063366 -296.835287 
L 541.466343 -296.835287 
L 540.86932 -296.835287 
L 540.272297 -296.835287 
L 539.675274 -296.835287 
L 539.078251 -296.835287 
L 538.481228 -296.835287 
L 537.884204 -296.835287 
L 537.287181 -296.835287 
L 536.690158 -296.835287 
L 536.093135 -296.835287 
L 535.496112 -296.835287 
L 534.899089 -296.835287 
L 534.302065 -296.835287 
L 533.705042 -296.807498 
L 533.108019 -296.770246 
L 532.510996 -296.732995 
L 531.913973 -296.695743 
L 531.31695 -296.658491 
L 530.719926 -296.62124 
L 530.122903 -296.583988 
L 529.52588 -296.546737 
L 528.928857 -296.509485 
L 528.331834 -296.472234 
L 527.734811 -296.434982 
L 527.137788 -296.397731 
L 526.540764 -296.360479 
L 525.943741 -296.323227 
L 525.346718 -296.285976 
L 524.749695 -296.248724 
L 524.152672 -296.211473 
L 523.555649 -296.174221 
L 522.958625 -296.13697 
L 522.361602 -296.099718 
L 521.764579 -296.05144 
L 521.167556 -295.977083 
L 520.570533 -295.902725 
L 519.97351 -295.828368 
L 519.376486 -295.75401 
L 518.779463 -295.679653 
L 518.18244 -295.605295 
L 517.585417 -295.588531 
L 516.988394 -295.625691 
L 516.391371 -295.662852 
L 515.794347 -295.700013 
L 515.197324 -295.737173 
L 514.600301 -295.774427 
L 514.003278 -295.811715 
L 513.406255 -295.849003 
L 512.809232 -295.886292 
L 512.212209 -295.92358 
L 511.615185 -300.127155 
L 511.018162 -305.54796 
L 510.421139 -310.968766 
L 509.824116 -316.389571 
L 509.227093 -321.810377 
L 508.63007 -327.231182 
L 508.033046 -332.651988 
L 507.436023 -336.180085 
L 506.839 -331.366996 
L 506.241977 -326.553907 
L 505.644954 -321.740818 
L 505.047931 -316.927729 
L 504.450907 -312.11464 
L 503.853884 -307.301552 
L 503.256861 -302.488463 
L 502.659838 -297.675374 
L 502.062815 -301.728203 
L 501.465792 -307.16121 
L 500.868768 -312.594218 
L 500.271745 -318.027226 
L 499.674722 -323.460233 
L 499.077699 -328.893241 
L 498.480676 -334.326249 
L 497.883653 -339.759257 
L 497.28663 -345.192264 
L 496.689606 -344.528895 
L 496.092583 -338.208171 
L 495.49556 -331.887447 
L 494.898537 -325.566722 
L 494.301514 -319.245998 
L 493.704491 -312.925274 
L 493.107467 -306.60455 
L 492.510444 -300.283826 
L 491.913421 -296.623824 
L 491.316398 -296.437658 
L 490.719375 -296.251491 
L 490.122352 -296.065324 
L 489.525328 -295.879158 
L 488.928305 -295.692991 
L 488.331282 -295.506824 
L 487.734259 -295.320658 
L 487.137236 -295.134491 
L 486.540213 -294.948324 
L 485.943189 -294.762158 
L 485.346166 -294.575991 
L 484.749143 -294.622211 
L 484.15212 -294.696569 
L 483.555097 -294.770926 
L 482.958074 -294.845284 
L 482.361051 -294.919641 
L 481.764027 -294.993999 
L 481.167004 -295.068356 
L 480.569981 -295.142714 
L 479.972958 -295.217071 
L 479.375935 -295.291429 
L 478.778912 -295.365786 
L 478.181888 -295.440144 
L 477.584865 -303.730192 
L 476.987842 -314.300322 
L 476.390819 -324.870452 
L 475.793796 -335.440582 
L 475.196773 -329.929928 
L 474.599749 -321.488084 
L 474.002726 -313.04624 
L 473.405703 -304.604396 
L 472.80868 -296.178088 
L 472.211657 -296.364163 
L 471.614634 -296.550239 
L 471.017611 -296.736315 
L 470.420587 -296.92239 
L 469.823564 -297.108466 
L 469.226541 -297.294542 
L 468.629518 -297.480617 
L 468.032495 -297.666693 
L 467.435472 -297.852769 
L 466.838448 -298.038844 
L 466.241425 -298.22492 
L 465.644402 -298.410995 
L 465.047379 -298.597071 
L 464.450356 -298.783147 
L 463.853333 -298.969222 
L 463.256309 -299.155298 
L 462.659286 -299.341374 
L 462.062263 -299.527449 
L 461.46524 -299.713525 
L 460.868217 -299.861518 
L 460.271194 -299.638227 
L 459.67417 -299.414936 
L 459.077147 -299.191645 
L 458.480124 -298.968355 
L 457.883101 -298.745064 
L 457.286078 -298.521773 
L 456.689055 -298.298482 
L 456.092032 -298.075192 
L 455.495008 -297.851901 
L 454.897985 -297.62861 
L 454.300962 -297.405319 
L 453.703939 -297.182029 
L 453.106916 -296.958738 
L 452.509893 -296.735447 
L 451.912869 -296.512156 
L 451.315846 -296.288866 
L 450.718823 -296.205435 
L 450.1218 -296.168238 
L 449.524777 -296.131042 
L 448.927754 -296.093845 
L 448.33073 -296.039792 
L 447.733707 -295.965471 
L 447.136684 -295.89115 
L 446.539661 -295.816829 
L 445.942638 -295.742508 
L 445.345615 -295.730394 
L 444.748591 -295.804824 
L 444.151568 -295.879255 
L 443.554545 -295.953685 
L 442.957522 -296.028115 
L 442.360499 -296.102545 
L 441.763476 -296.176976 
L 441.166453 -296.251406 
L 440.569429 -296.325836 
L 439.972406 -296.400266 
L 439.375383 -296.474697 
L 438.77836 -296.549127 
L 438.181337 -296.623557 
L 437.584314 -296.697987 
L 436.98729 -296.772418 
L 436.390267 -296.829503 
L 435.793244 -296.79227 
L 435.196221 -296.755037 
L 434.599198 -296.717803 
L 434.002175 -296.68057 
L 433.405151 -296.643337 
L 432.808128 -296.606103 
L 432.211105 -296.56887 
L 431.614082 -296.531637 
L 431.017059 -296.494403 
L 430.420036 -296.45717 
L 429.823013 -296.488004 
L 429.225989 -296.525292 
L 428.628966 -296.56258 
L 428.031943 -296.599868 
L 427.43492 -296.637156 
L 426.837897 -296.674444 
L 426.240874 -296.711732 
L 425.64385 -296.74902 
L 425.046827 -300.652457 
L 424.449804 -310.311137 
L 423.852781 -319.969818 
L 423.255758 -329.628498 
L 422.658735 -339.287179 
L 422.061711 -338.583867 
L 421.464688 -332.861905 
L 420.867665 -327.139944 
L 420.270642 -321.417982 
L 419.673619 -315.696021 
L 419.076596 -309.974059 
L 418.479572 -304.252098 
L 417.882549 -298.530137 
L 417.285526 -297.815533 
L 416.688503 -297.964466 
L 416.09148 -298.113399 
L 415.494457 -298.262333 
L 414.897434 -298.411266 
L 414.30041 -298.560199 
L 413.703387 -298.709133 
L 413.106364 -298.858066 
L 412.509341 -299.006999 
L 411.912318 -299.08518 
L 411.315295 -298.936393 
L 410.718271 -298.787605 
L 410.121248 -298.638817 
L 409.524225 -298.490029 
L 408.927202 -298.341242 
L 408.330179 -298.192454 
L 407.733156 -298.043666 
L 407.136132 -297.894878 
L 406.539109 -297.746091 
L 405.942086 -297.597303 
L 405.345063 -297.448515 
L 404.74804 -297.299727 
L 404.151017 -297.15094 
L 403.553993 -297.002152 
L 402.95697 -296.853364 
L 402.359947 -296.704576 
L 401.762924 -296.555789 
L 401.165901 -296.407001 
L 400.568878 -296.258213 
L 399.971855 -296.109425 
L 399.374831 -295.988904 
L 398.777808 -295.877367 
L 398.180785 -295.765831 
L 397.583762 -295.654295 
L 396.986739 -295.542758 
L 396.389716 -295.431222 
L 395.792692 -295.319686 
L 395.195669 -295.208149 
L 394.598646 -295.096613 
L 394.001623 -294.985077 
L 393.4046 -294.873541 
L 392.807577 -294.762004 
L 392.210553 -294.650468 
L 391.61353 -294.538932 
L 391.016507 -294.427395 
L 390.419484 -294.315859 
L 389.822461 -294.204323 
L 389.225438 -294.092786 
L 388.628414 -293.98125 
L 388.031391 -293.869714 
L 387.434368 -293.818448 
L 386.837345 -293.930203 
L 386.240322 -294.041957 
L 385.643299 -294.153712 
L 385.046276 -294.265467 
L 384.449252 -294.377221 
L 383.852229 -294.488976 
L 383.255206 -294.600731 
L 382.658183 -294.712485 
L 382.06116 -294.82424 
L 381.464137 -294.935995 
L 380.867113 -295.047749 
L 380.27009 -295.159504 
L 379.673067 -295.271259 
L 379.076044 -295.383013 
L 378.479021 -295.494768 
L 377.881998 -295.606523 
L 377.284974 -295.718277 
L 376.687951 -295.830032 
L 376.090928 -295.941787 
L 375.493905 -296.053541 
L 374.896882 -296.104123 
L 374.299859 -296.141374 
L 373.702836 -296.178626 
L 373.105812 -296.215877 
L 372.508789 -296.253129 
L 371.911766 -296.29038 
L 371.314743 -296.327632 
L 370.71772 -296.364884 
L 370.120697 -296.402135 
L 369.523673 -296.439387 
L 368.92665 -296.476638 
L 368.329627 -296.51389 
L 367.732604 -296.551141 
L 367.135581 -296.588393 
L 366.538558 -296.625644 
L 365.941534 -296.662896 
L 365.344511 -296.700148 
L 364.747488 -298.387291 
L 364.150465 -301.099217 
L 363.553442 -303.811142 
L 362.956419 -306.523068 
L 362.359395 -309.234993 
L 361.762372 -311.946919 
L 361.165349 -314.658844 
L 360.568326 -317.37077 
L 359.971303 -320.082695 
L 359.37428 -322.794621 
L 358.777257 -325.506546 
L 358.180233 -318.373072 
L 357.58321 -306.92272 
L 356.986187 -296.45228 
L 356.389164 -296.489441 
L 355.792141 -296.526601 
L 355.195118 -296.563762 
L 354.598094 -296.600923 
L 354.001071 -296.638083 
L 353.404048 -296.675244 
L 352.807025 -296.712404 
L 352.210002 -296.749565 
L 351.612979 -296.786726 
L 351.015955 -296.823886 
L 350.418932 -296.783691 
L 349.821909 -296.709261 
L 349.224886 -296.63483 
L 348.627863 -296.5604 
L 348.03084 -296.48597 
L 347.433816 -296.41154 
L 346.836793 -296.337109 
L 346.23977 -296.262679 
L 345.642747 -296.188249 
L 345.045724 -296.113819 
L 344.448701 -296.039388 
L 343.851678 -295.964958 
L 343.254654 -295.890528 
L 342.657631 -295.848571 
L 342.060608 -295.997723 
L 341.463585 -296.146876 
L 340.866562 -296.296028 
L 340.269539 -296.44518 
L 339.672515 -296.594332 
L 339.075492 -296.743485 
L 338.478469 -296.763809 
L 337.881446 -296.577915 
L 337.284423 -296.392021 
L 336.6874 -296.206128 
L 336.090376 -296.020234 
L 335.493353 -295.83434 
L 334.89633 -295.648446 
L 334.299307 -295.462552 
L 333.702284 -295.276658 
L 333.105261 -295.090765 
L 332.508237 -294.952115 
L 331.911214 -295.063651 
L 331.314191 -295.175187 
L 330.717168 -295.286724 
L 330.120145 -295.39826 
L 329.523122 -295.509796 
L 328.926099 -295.621333 
L 328.329075 -295.732869 
L 327.732052 -295.844405 
L 327.135029 -295.955942 
L 326.538006 -296.067478 
L 325.940983 -296.038342 
L 325.34396 -296.001127 
L 324.746936 -295.963912 
L 324.149913 -295.926697 
L 323.55289 -295.889482 
L 322.955867 -295.852266 
L 322.358844 -295.815051 
L 321.761821 -295.777836 
L 321.164797 -295.740621 
L 320.567774 -295.703406 
L 319.970751 -295.666191 
L 319.373728 -295.628976 
L 318.776705 -295.591761 
L 318.179682 -295.554545 
L 317.582659 -295.51733 
L 316.985635 -295.549804 
L 316.388612 -295.661395 
L 315.791589 -295.772986 
L 315.194566 -295.884577 
L 314.597543 -295.996168 
L 314.00052 -296.130657 
L 313.403496 -296.316915 
L 312.806473 -296.503173 
L 312.20945 -296.689431 
L 311.612427 -296.875688 
L 311.015404 -297.061946 
L 310.418381 -297.248204 
L 309.821357 -297.434462 
L 309.224334 -297.62072 
L 308.627311 -297.806977 
L 308.030288 -297.993235 
L 307.433265 -298.179493 
L 306.836242 -298.365751 
L 306.239218 -298.552009 
L 305.642195 -298.738266 
L 305.045172 -298.924524 
L 304.448149 -299.110782 
L 303.851126 -299.29704 
L 303.254103 -299.483298 
L 302.65708 -299.669555 
L 302.060056 -299.855813 
L 301.463033 -299.754715 
L 300.86601 -299.606 
L 300.268987 -299.457285 
L 299.671964 -299.30857 
L 299.074941 -299.159855 
L 298.477917 -299.01114 
L 297.880894 -298.862425 
L 297.283871 -298.71371 
L 296.686848 -298.564995 
L 296.089825 -298.41628 
L 295.492802 -298.267565 
L 294.895778 -298.11885 
L 294.298755 -297.970135 
L 293.701732 -297.82142 
L 293.104709 -297.672704 
L 292.507686 -297.523989 
L 291.910663 -297.375274 
L 291.313639 -297.230353 
L 290.716616 -297.37936 
L 290.119593 -297.528366 
L 289.52257 -297.617141 
L 288.925547 -297.654429 
L 288.328524 -297.691717 
L 287.731501 -297.729005 
L 287.134477 -297.766293 
L 286.537454 -297.803581 
L 285.940431 -297.840869 
L 285.343408 -297.878157 
L 284.746385 -297.915445 
L 284.149362 -297.952733 
L 283.552338 -297.990022 
L 282.955315 -298.02731 
L 282.358292 -298.064598 
L 281.761269 -298.101886 
L 281.164246 -298.139174 
L 280.567223 -298.176462 
L 279.970199 -298.21375 
L 279.373176 -298.251038 
L 278.776153 -298.288326 
L 278.17913 -298.325614 
L 277.582107 -298.334167 
L 276.985084 -298.110985 
L 276.388061 -297.887803 
L 275.791037 -297.664622 
L 275.194014 -297.44144 
L 274.596991 -297.218259 
L 273.999968 -296.995077 
L 273.402945 -296.771895 
L 272.805922 -296.548714 
L 272.208898 -296.325532 
L 271.611875 -296.10235 
L 271.014852 -295.912032 
L 270.417829 -296.172921 
L 269.820806 -296.43381 
L 269.223783 -296.694698 
L 268.626759 -296.955587 
L 268.029736 -297.216475 
L 267.432713 -297.477364 
L 266.83569 -297.738253 
L 266.238667 -297.999141 
L 265.641644 -298.26003 
L 265.04462 -298.220227 
L 264.447597 -301.511883 
L 263.850574 -304.822739 
L 263.253551 -308.133594 
L 262.656528 -309.453663 
L 262.059505 -307.347937 
L 261.462482 -305.24221 
L 260.865458 -303.136484 
L 260.268435 -301.030757 
L 259.671412 -298.925031 
L 259.074389 -296.819305 
L 258.477366 -295.767627 
L 257.880343 -295.544663 
L 257.283319 -295.549447 
L 256.686296 -295.624024 
L 256.089273 -295.6986 
L 255.49225 -295.773176 
L 254.895227 -295.847752 
L 254.298204 -295.922328 
L 253.70118 -295.996904 
L 253.104157 -296.07148 
L 252.507134 -296.580105 
L 251.910111 -299.047113 
L 251.313088 -298.144153 
L 250.716065 -297.241192 
L 250.119041 -296.338231 
L 249.522018 -295.628571 
L 248.924995 -297.023101 
L 248.327972 -299.436413 
L 247.730949 -301.849725 
L 247.133926 -304.263037 
L 246.536903 -306.676349 
L 245.939879 -309.089661 
L 245.342856 -311.502973 
L 244.745833 -313.916285 
L 244.14881 -316.329597 
L 243.551787 -318.742909 
L 242.954764 -321.156221 
L 242.35774 -323.569533 
L 241.760717 -325.982845 
L 241.163694 -323.247398 
L 240.566671 -319.637581 
L 239.969648 -316.027765 
L 239.372625 -312.417948 
L 238.775601 -308.808131 
L 238.178578 -305.198315 
L 237.581555 -301.588498 
L 236.984532 -297.978681 
L 236.387509 -295.700927 
L 235.790486 -295.849933 
L 235.193462 -295.998939 
L 234.596439 -296.147946 
L 233.999416 -296.296952 
L 233.402393 -296.445958 
L 232.80537 -296.594964 
L 232.208347 -296.743971 
L 231.611324 -296.892977 
L 231.0143 -297.041983 
L 230.417277 -297.190989 
L 229.820254 -297.339996 
L 229.223231 -297.489002 
L 228.626208 -297.576592 
L 228.029185 -297.502235 
L 227.432161 -297.427877 
L 226.835138 -297.35352 
L 226.238115 -297.279162 
L 225.641092 -297.204805 
L 225.044069 -297.130447 
L 224.447046 -297.05609 
L 223.850022 -296.981732 
L 223.252999 -296.907375 
L 222.655976 -300.39829 
L 222.058953 -307.336562 
L 221.46193 -314.274834 
L 220.864907 -321.213106 
L 220.267884 -323.408258 
L 219.67086 -312.24669 
L 219.073837 -301.085122 
L 218.476814 -296.312514 
L 217.879791 -296.238157 
L 217.282768 -296.163799 
L 216.685745 -296.089442 
L 216.088721 -296.015027 
L 215.491698 -295.940597 
L 214.894675 -295.866167 
L 214.297652 -295.791736 
L 213.700629 -295.717306 
L 213.103606 -295.642876 
L 212.506582 -295.568446 
L 211.909559 -295.494015 
L 211.312536 -295.419585 
L 210.715513 -295.345155 
L 210.11849 -295.270724 
L 209.521467 -295.196294 
L 208.924443 -295.121864 
L 208.32742 -295.047434 
L 207.730397 -294.973003 
L 207.133374 -295.032587 
L 206.536351 -295.256316 
L 205.939328 -295.480044 
L 205.342305 -295.703773 
L 204.745281 -295.927501 
L 204.148258 -296.00895 
L 203.551235 -295.822965 
L 202.954212 -295.63698 
L 202.357189 -295.450995 
L 201.760166 -295.265011 
L 201.163142 -295.079026 
L 200.566119 -294.893041 
L 199.969096 -294.707057 
L 199.372073 -294.521072 
L 198.77505 -294.335087 
L 198.178027 -294.149103 
L 197.581003 -293.963118 
L 196.98398 -293.777133 
L 196.386957 -293.591149 
L 195.789934 -293.405164 
L 195.192911 -293.219179 
L 194.595888 -293.033194 
L 193.998864 -292.84721 
L 193.401841 -292.661225 
L 192.804818 -292.47524 
L 192.207795 -292.289256 
L 191.610772 -292.16797 
L 191.013749 -292.056488 
L 190.416726 -291.945006 
L 189.819702 -291.833524 
L 189.222679 -291.722043 
L 188.625656 -291.610561 
L 188.028633 -291.499079 
L 187.43161 -291.387597 
L 186.834587 -291.276115 
L 186.237563 -291.164633 
L 185.64054 -291.053151 
L 185.043517 -290.94167 
L 184.446494 -290.830188 
L 183.849471 -290.718706 
L 183.252448 -290.607224 
L 182.655424 -290.495742 
L 182.058401 -290.38426 
L 181.461378 -290.272779 
L 180.864355 -290.161297 
L 180.267332 -290.049815 
L 179.670309 -289.855821 
L 179.073286 -289.521048 
L 178.476262 -289.186276 
L 177.879239 -288.851503 
L 177.282216 -288.516731 
L 176.685193 -288.181958 
L 176.08817 -287.847186 
L 175.491147 -287.512414 
L 174.894123 -287.177641 
L 174.2971 -286.842869 
L 173.700077 -286.508096 
L 173.103054 -286.173324 
L 172.506031 -285.838551 
L 171.909008 -285.503779 
L 171.311984 -285.169006 
L 170.714961 -284.834234 
L 170.117938 -284.499462 
L 169.520915 -284.164689 
L 168.923892 -283.829917 
L 168.326869 -283.495144 
L 167.729845 -283.160372 
L 167.132822 -282.991185 
L 166.535799 -282.842325 
L 165.938776 -282.693464 
L 165.341753 -282.662377 
L 164.74473 -282.46932 
L 164.147707 -282.276263 
L 163.550683 -282.098022 
L 162.95366 -281.949162 
L 162.356637 -282.034634 
L 161.759614 -283.151312 
L 161.162591 -282.256045 
L 160.565568 -283.197894 
L 159.968544 -284.139743 
L 159.371521 -283.866867 
L 158.774498 -283.37737 
L 158.177475 -282.887873 
L 157.580452 -282.398376 
L 156.983429 -281.908879 
L 156.386405 -281.419382 
L 155.789382 -281.674028 
L 155.192359 -281.025287 
L 154.595336 -281.025287 
L 153.998313 -281.025287 
L 153.40129 -281.025287 
L 152.804266 -281.025287 
L 152.207243 -281.025287 
L 151.61022 -281.429594 
L 151.013197 -282.394378 
L 150.416174 -282.644351 
L 149.819151 -282.386405 
L 149.222128 -282.128459 
L 148.625104 -282.871707 
L 148.028081 -283.919904 
L 147.431058 -283.282316 
L 146.834035 -282.393409 
L 146.237012 -281.504503 
L 145.639989 -281.681798 
L 145.042965 -281.711826 
L 144.445942 -281.741854 
L 143.848919 -281.771881 
L 143.251896 -281.801909 
L 142.654873 -281.831937 
L 142.05785 -281.861964 
L 141.460826 -281.891992 
L 140.863803 -281.922019 
L 140.26678 -281.952047 
L 139.669757 -281.982075 
L 139.072734 -282.012102 
L 138.475711 -282.04213 
L 137.878687 -281.914121 
L 137.281664 -281.713559 
L 136.684641 -281.512996 
L 136.087618 -281.312434 
L 135.490595 -281.111871 
L 134.893572 -280.911309 
L 134.296549 -280.710746 
L 133.699525 -280.510184 
L 133.102502 -281.336534 
L 132.505479 -284.729064 
L 131.908456 -283.831693 
L 131.311433 -284.049984 
L 130.71441 -284.954467 
L 130.117386 -285.85895 
L 129.520363 -286.763434 
L 128.92334 -287.667917 
L 128.326317 -288.5724 
L 127.729294 -289.476884 
L 127.132271 -290.381367 
L 126.535247 -291.28585 
L 125.938224 -292.190333 
L 125.341201 -293.094817 
L 124.744178 -297.99194 
L 124.147155 -294.122003 
L 123.550132 -294.122003 
L 122.953109 -294.122003 
L 122.356085 -294.122003 
L 121.759062 -294.122003 
L 121.162039 -294.122003 
L 120.565016 -294.122003 
L 119.967993 -294.122003 
L 119.37097 -294.122003 
L 118.773946 -294.122003 
L 118.176923 -294.122003 
L 117.5799 -294.122003 
L 116.982877 -294.122003 
L 116.385854 -294.122003 
L 115.788831 -294.122003 
L 115.191807 -294.122003 
L 114.594784 -294.122003 
L 113.997761 -293.962959 
L 113.400738 -292.155009 
L 112.803715 -290.347059 
L 112.206692 -288.539108 
L 111.609668 -286.731158 
L 111.012645 -284.923208 
L 110.415622 -283.115257 
L 109.818599 -281.307307 
L 109.221576 -280.507701 
L 108.624553 -280.5636 
L 108.02753 -287.52677 
L 107.430506 -300.814934 
L 106.833483 -314.103097 
L 106.23646 -327.39126 
L 105.639437 -340.679424 
L 105.042414 -353.967587 
L 104.445391 -367.25575 
L 103.848367 -380.543914 
L 103.251344 -389.987273 
L 102.654321 -386.668969 
L 102.057298 -383.350665 
L 101.460275 -380.032361 
L 100.863252 -376.714057 
L 100.266228 -373.395753 
L 99.669205 -370.077449 
L 99.072182 -366.759145 
L 98.475159 -363.440841 
L 97.878136 -360.122537 
L 97.281113 -356.804233 
L 96.684089 -353.485929 
L 96.087066 -350.167625 
L 95.490043 -346.849321 
L 94.89302 -343.531017 
L 94.295997 -340.212713 
L 93.698974 -336.894409 
L 93.101951 -333.576104 
L 92.504927 -331.701712 
L 91.907904 -331.701712 
L 91.310881 -331.701712 
L 90.713858 -331.701712 
L 90.116835 -331.701712 
L 89.519812 -331.701712 
L 88.922788 -331.701712 
L 88.325765 -331.701712 
L 87.728742 -331.701712 
L 87.131719 -331.701712 
L 86.534696 -331.701712 
L 85.937673 -331.701712 
L 85.340649 -331.701712 
L 84.743626 -331.701712 
L 84.146603 -331.701712 
L 83.54958 -331.701712 
L 82.952557 -331.701712 
z
" style="stroke: #daa520; stroke-opacity: 0.3"/>
    </defs>
    <g clip-path="url(#p2100bb5efb)">
     <use xlink:href="#m6036169754" x="0" y="432" style="fill: #daa520; fill-opacity: 0.3; stroke: #daa520; stroke-opacity: 0.3"/>
    </g>
   </g>
   <g id="matplotlib.axis_1">
    <g id="xtick_1">
     <g id="line2d_1">
      <defs>
       <path id="m77696a0752" d="M 0 0 
L 0 3.5 
" style="stroke: #000000; stroke-width: 0.8"/>
      </defs>
      <g>
       <use xlink:href="#m77696a0752" x="82.12193" y="390.04" style="stroke: #000000; stroke-width: 0.8"/>
      </g>
     </g>
     <g id="text_1">
      <!-- 0 -->
      <g transform="translate(78.94068 404.638438) scale(0.1 -0.1)">
       <defs>
        <path id="DejaVuSans-30" d="M 2034 4250 
Q 1547 4250 1301 3770 
Q 1056 3291 1056 2328 
Q 1056 1369 1301 889 
Q 1547 409 2034 409 
Q 2525 409 2770 889 
Q 3016 1369 3016 2328 
Q 3016 3291 2770 3770 
Q 2525 4250 2034 4250 
z
M 2034 4750 
Q 2819 4750 3233 4129 
Q 3647 3509 3647 2328 
Q 3647 1150 3233 529 
Q 2819 -91 2034 -91 
Q 1250 -91 836 529 
Q 422 1150 422 2328 
Q 422 3509 836 4129 
Q 1250 4750 2034 4750 
z
" transform="scale(0.015625)"/>
       </defs>
       <use xlink:href="#DejaVuSans-30"/>
      </g>
     </g>
    </g>
    <g id="xtick_2">
     <g id="line2d_2">
      <g>
       <use xlink:href="#m77696a0752" x="201.636625" y="390.04" style="stroke: #000000; stroke-width: 0.8"/>
      </g>
     </g>
     <g id="text_2">
      <!-- 20000 -->
      <g transform="translate(185.730375 404.638438) scale(0.1 -0.1)">
       <defs>
        <path id="DejaVuSans-32" d="M 1228 531 
L 3431 531 
L 3431 0 
L 469 0 
L 469 531 
Q 828 903 1448 1529 
Q 2069 2156 2228 2338 
Q 2531 2678 2651 2914 
Q 2772 3150 2772 3378 
Q 2772 3750 2511 3984 
Q 2250 4219 1831 4219 
Q 1534 4219 1204 4116 
Q 875 4013 500 3803 
L 500 4441 
Q 881 4594 1212 4672 
Q 1544 4750 1819 4750 
Q 2544 4750 2975 4387 
Q 3406 4025 3406 3419 
Q 3406 3131 3298 2873 
Q 3191 2616 2906 2266 
Q 2828 2175 2409 1742 
Q 1991 1309 1228 531 
z
" transform="scale(0.015625)"/>
       </defs>
       <use xlink:href="#DejaVuSans-32"/>
       <use xlink:href="#DejaVuSans-30" transform="translate(63.623047 0)"/>
       <use xlink:href="#DejaVuSans-30" transform="translate(127.246094 0)"/>
       <use xlink:href="#DejaVuSans-30" transform="translate(190.869141 0)"/>
       <use xlink:href="#DejaVuSans-30" transform="translate(254.492188 0)"/>
      </g>
     </g>
    </g>
    <g id="xtick_3">
     <g id="line2d_3">
      <g>
       <use xlink:href="#m77696a0752" x="321.151321" y="390.04" style="stroke: #000000; stroke-width: 0.8"/>
      </g>
     </g>
     <g id="text_3">
      <!-- 40000 -->
      <g transform="translate(305.245071 404.638438) scale(0.1 -0.1)">
       <defs>
        <path id="DejaVuSans-34" d="M 2419 4116 
L 825 1625 
L 2419 1625 
L 2419 4116 
z
M 2253 4666 
L 3047 4666 
L 3047 1625 
L 3713 1625 
L 3713 1100 
L 3047 1100 
L 3047 0 
L 2419 0 
L 2419 1100 
L 313 1100 
L 313 1709 
L 2253 4666 
z
" transform="scale(0.015625)"/>
       </defs>
       <use xlink:href="#DejaVuSans-34"/>
       <use xlink:href="#DejaVuSans-30" transform="translate(63.623047 0)"/>
       <use xlink:href="#DejaVuSans-30" transform="translate(127.246094 0)"/>
       <use xlink:href="#DejaVuSans-30" transform="translate(190.869141 0)"/>
       <use xlink:href="#DejaVuSans-30" transform="translate(254.492188 0)"/>
      </g>
     </g>
    </g>
    <g id="xtick_4">
     <g id="line2d_4">
      <g>
       <use xlink:href="#m77696a0752" x="440.666016" y="390.04" style="stroke: #000000; stroke-width: 0.8"/>
      </g>
     </g>
     <g id="text_4">
      <!-- 60000 -->
      <g transform="translate(424.759766 404.638438) scale(0.1 -0.1)">
       <defs>
        <path id="DejaVuSans-36" d="M 2113 2584 
Q 1688 2584 1439 2293 
Q 1191 2003 1191 1497 
Q 1191 994 1439 701 
Q 1688 409 2113 409 
Q 2538 409 2786 701 
Q 3034 994 3034 1497 
Q 3034 2003 2786 2293 
Q 2538 2584 2113 2584 
z
M 3366 4563 
L 3366 3988 
Q 3128 4100 2886 4159 
Q 2644 4219 2406 4219 
Q 1781 4219 1451 3797 
Q 1122 3375 1075 2522 
Q 1259 2794 1537 2939 
Q 1816 3084 2150 3084 
Q 2853 3084 3261 2657 
Q 3669 2231 3669 1497 
Q 3669 778 3244 343 
Q 2819 -91 2113 -91 
Q 1303 -91 875 529 
Q 447 1150 447 2328 
Q 447 3434 972 4092 
Q 1497 4750 2381 4750 
Q 2619 4750 2861 4703 
Q 3103 4656 3366 4563 
z
" transform="scale(0.015625)"/>
       </defs>
       <use xlink:href="#DejaVuSans-36"/>
       <use xlink:href="#DejaVuSans-30" transform="translate(63.623047 0)"/>
       <use xlink:href="#DejaVuSans-30" transform="translate(127.246094 0)"/>
       <use xlink:href="#DejaVuSans-30" transform="translate(190.869141 0)"/>
       <use xlink:href="#DejaVuSans-30" transform="translate(254.492188 0)"/>
      </g>
     </g>
    </g>
    <g id="xtick_5">
     <g id="line2d_5">
      <g>
       <use xlink:href="#m77696a0752" x="560.180712" y="390.04" style="stroke: #000000; stroke-width: 0.8"/>
      </g>
     </g>
     <g id="text_5">
      <!-- 80000 -->
      <g transform="translate(544.274462 404.638438) scale(0.1 -0.1)">
       <defs>
        <path id="DejaVuSans-38" d="M 2034 2216 
Q 1584 2216 1326 1975 
Q 1069 1734 1069 1313 
Q 1069 891 1326 650 
Q 1584 409 2034 409 
Q 2484 409 2743 651 
Q 3003 894 3003 1313 
Q 3003 1734 2745 1975 
Q 2488 2216 2034 2216 
z
M 1403 2484 
Q 997 2584 770 2862 
Q 544 3141 544 3541 
Q 544 4100 942 4425 
Q 1341 4750 2034 4750 
Q 2731 4750 3128 4425 
Q 3525 4100 3525 3541 
Q 3525 3141 3298 2862 
Q 3072 2584 2669 2484 
Q 3125 2378 3379 2068 
Q 3634 1759 3634 1313 
Q 3634 634 3220 271 
Q 2806 -91 2034 -91 
Q 1263 -91 848 271 
Q 434 634 434 1313 
Q 434 1759 690 2068 
Q 947 2378 1403 2484 
z
M 1172 3481 
Q 1172 3119 1398 2916 
Q 1625 2713 2034 2713 
Q 2441 2713 2670 2916 
Q 2900 3119 2900 3481 
Q 2900 3844 2670 4047 
Q 2441 4250 2034 4250 
Q 1625 4250 1398 4047 
Q 1172 3844 1172 3481 
z
" transform="scale(0.015625)"/>
       </defs>
       <use xlink:href="#DejaVuSans-38"/>
       <use xlink:href="#DejaVuSans-30" transform="translate(63.623047 0)"/>
       <use xlink:href="#DejaVuSans-30" transform="translate(127.246094 0)"/>
       <use xlink:href="#DejaVuSans-30" transform="translate(190.869141 0)"/>
       <use xlink:href="#DejaVuSans-30" transform="translate(254.492188 0)"/>
      </g>
     </g>
    </g>
    <g id="xtick_6">
     <g id="line2d_6">
      <g>
       <use xlink:href="#m77696a0752" x="679.695407" y="390.04" style="stroke: #000000; stroke-width: 0.8"/>
      </g>
     </g>
     <g id="text_6">
      <!-- 100000 -->
      <g transform="translate(660.607907 404.638438) scale(0.1 -0.1)">
       <defs>
        <path id="DejaVuSans-31" d="M 794 531 
L 1825 531 
L 1825 4091 
L 703 3866 
L 703 4441 
L 1819 4666 
L 2450 4666 
L 2450 531 
L 3481 531 
L 3481 0 
L 794 0 
L 794 531 
z
" transform="scale(0.015625)"/>
       </defs>
       <use xlink:href="#DejaVuSans-31"/>
       <use xlink:href="#DejaVuSans-30" transform="translate(63.623047 0)"/>
       <use xlink:href="#DejaVuSans-30" transform="translate(127.246094 0)"/>
       <use xlink:href="#DejaVuSans-30" transform="translate(190.869141 0)"/>
       <use xlink:href="#DejaVuSans-30" transform="translate(254.492188 0)"/>
       <use xlink:href="#DejaVuSans-30" transform="translate(318.115234 0)"/>
      </g>
     </g>
    </g>
    <g id="text_7">
     <!-- Step -->
     <g transform="translate(369.780469 418.316562) scale(0.1 -0.1)">
      <defs>
       <path id="DejaVuSans-53" d="M 3425 4513 
L 3425 3897 
Q 3066 4069 2747 4153 
Q 2428 4238 2131 4238 
Q 1616 4238 1336 4038 
Q 1056 3838 1056 3469 
Q 1056 3159 1242 3001 
Q 1428 2844 1947 2747 
L 2328 2669 
Q 3034 2534 3370 2195 
Q 3706 1856 3706 1288 
Q 3706 609 3251 259 
Q 2797 -91 1919 -91 
Q 1588 -91 1214 -16 
Q 841 59 441 206 
L 441 856 
Q 825 641 1194 531 
Q 1563 422 1919 422 
Q 2459 422 2753 634 
Q 3047 847 3047 1241 
Q 3047 1584 2836 1778 
Q 2625 1972 2144 2069 
L 1759 2144 
Q 1053 2284 737 2584 
Q 422 2884 422 3419 
Q 422 4038 858 4394 
Q 1294 4750 2059 4750 
Q 2388 4750 2728 4690 
Q 3069 4631 3425 4513 
z
" transform="scale(0.015625)"/>
       <path id="DejaVuSans-74" d="M 1172 4494 
L 1172 3500 
L 2356 3500 
L 2356 3053 
L 1172 3053 
L 1172 1153 
Q 1172 725 1289 603 
Q 1406 481 1766 481 
L 2356 481 
L 2356 0 
L 1766 0 
Q 1100 0 847 248 
Q 594 497 594 1153 
L 594 3053 
L 172 3053 
L 172 3500 
L 594 3500 
L 594 4494 
L 1172 4494 
z
" transform="scale(0.015625)"/>
       <path id="DejaVuSans-65" d="M 3597 1894 
L 3597 1613 
L 953 1613 
Q 991 1019 1311 708 
Q 1631 397 2203 397 
Q 2534 397 2845 478 
Q 3156 559 3463 722 
L 3463 178 
Q 3153 47 2828 -22 
Q 2503 -91 2169 -91 
Q 1331 -91 842 396 
Q 353 884 353 1716 
Q 353 2575 817 3079 
Q 1281 3584 2069 3584 
Q 2775 3584 3186 3129 
Q 3597 2675 3597 1894 
z
M 3022 2063 
Q 3016 2534 2758 2815 
Q 2500 3097 2075 3097 
Q 1594 3097 1305 2825 
Q 1016 2553 972 2059 
L 3022 2063 
z
" transform="scale(0.015625)"/>
       <path id="DejaVuSans-70" d="M 1159 525 
L 1159 -1331 
L 581 -1331 
L 581 3500 
L 1159 3500 
L 1159 2969 
Q 1341 3281 1617 3432 
Q 1894 3584 2278 3584 
Q 2916 3584 3314 3078 
Q 3713 2572 3713 1747 
Q 3713 922 3314 415 
Q 2916 -91 2278 -91 
Q 1894 -91 1617 61 
Q 1341 213 1159 525 
z
M 3116 1747 
Q 3116 2381 2855 2742 
Q 2594 3103 2138 3103 
Q 1681 3103 1420 2742 
Q 1159 2381 1159 1747 
Q 1159 1113 1420 752 
Q 1681 391 2138 391 
Q 2594 391 2855 752 
Q 3116 1113 3116 1747 
z
" transform="scale(0.015625)"/>
      </defs>
      <use xlink:href="#DejaVuSans-53"/>
      <use xlink:href="#DejaVuSans-74" transform="translate(63.476562 0)"/>
      <use xlink:href="#DejaVuSans-65" transform="translate(102.685547 0)"/>
      <use xlink:href="#DejaVuSans-70" transform="translate(164.208984 0)"/>
     </g>
    </g>
   </g>
   <g id="matplotlib.axis_2">
    <g id="ytick_1">
     <g id="line2d_7">
      <defs>
       <path id="me081539852" d="M 0 0 
L -3.5 0 
" style="stroke: #000000; stroke-width: 0.8"/>
      </defs>
      <g>
       <use xlink:href="#me081539852" x="53.13125" y="378.924991" style="stroke: #000000; stroke-width: 0.8"/>
      </g>
     </g>
     <g id="text_8">
      <!-- 10 -->
      <g transform="translate(25.026563 382.72421) scale(0.1 -0.1)">
       <defs>
        <path id="DejaVuSans-2212" d="M 678 2272 
L 4684 2272 
L 4684 1741 
L 678 1741 
L 678 2272 
z
" transform="scale(0.015625)"/>
       </defs>
       <use xlink:href="#DejaVuSans-2212"/>
       <use xlink:href="#DejaVuSans-31" transform="translate(83.789062 0)"/>
       <use xlink:href="#DejaVuSans-30" transform="translate(147.412109 0)"/>
      </g>
     </g>
    </g>
    <g id="ytick_2">
     <g id="line2d_8">
      <g>
       <use xlink:href="#me081539852" x="53.13125" y="333.82934" style="stroke: #000000; stroke-width: 0.8"/>
      </g>
     </g>
     <g id="text_9">
      <!-- 8 -->
      <g transform="translate(31.389063 337.628559) scale(0.1 -0.1)">
       <use xlink:href="#DejaVuSans-2212"/>
       <use xlink:href="#DejaVuSans-38" transform="translate(83.789062 0)"/>
      </g>
     </g>
    </g>
    <g id="ytick_3">
     <g id="line2d_9">
      <g>
       <use xlink:href="#me081539852" x="53.13125" y="288.733688" style="stroke: #000000; stroke-width: 0.8"/>
      </g>
     </g>
     <g id="text_10">
      <!-- 6 -->
      <g transform="translate(31.389063 292.532907) scale(0.1 -0.1)">
       <use xlink:href="#DejaVuSans-2212"/>
       <use xlink:href="#DejaVuSans-36" transform="translate(83.789062 0)"/>
      </g>
     </g>
    </g>
    <g id="ytick_4">
     <g id="line2d_10">
      <g>
       <use xlink:href="#me081539852" x="53.13125" y="243.638037" style="stroke: #000000; stroke-width: 0.8"/>
      </g>
     </g>
     <g id="text_11">
      <!-- 4 -->
      <g transform="translate(31.389063 247.437256) scale(0.1 -0.1)">
       <use xlink:href="#DejaVuSans-2212"/>
       <use xlink:href="#DejaVuSans-34" transform="translate(83.789062 0)"/>
      </g>
     </g>
    </g>
    <g id="ytick_5">
     <g id="line2d_11">
      <g>
       <use xlink:href="#me081539852" x="53.13125" y="198.542386" style="stroke: #000000; stroke-width: 0.8"/>
      </g>
     </g>
     <g id="text_12">
      <!-- 2 -->
      <g transform="translate(31.389063 202.341604) scale(0.1 -0.1)">
       <use xlink:href="#DejaVuSans-2212"/>
       <use xlink:href="#DejaVuSans-32" transform="translate(83.789062 0)"/>
      </g>
     </g>
    </g>
    <g id="ytick_6">
     <g id="line2d_12">
      <g>
       <use xlink:href="#me081539852" x="53.13125" y="153.446734" style="stroke: #000000; stroke-width: 0.8"/>
      </g>
     </g>
     <g id="text_13">
      <!-- 0 -->
      <g transform="translate(39.76875 157.245953) scale(0.1 -0.1)">
       <use xlink:href="#DejaVuSans-30"/>
      </g>
     </g>
    </g>
    <g id="ytick_7">
     <g id="line2d_13">
      <g>
       <use xlink:href="#me081539852" x="53.13125" y="108.351083" style="stroke: #000000; stroke-width: 0.8"/>
      </g>
     </g>
     <g id="text_14">
      <!-- 2 -->
      <g transform="translate(39.76875 112.150301) scale(0.1 -0.1)">
       <use xlink:href="#DejaVuSans-32"/>
      </g>
     </g>
    </g>
    <g id="ytick_8">
     <g id="line2d_14">
      <g>
       <use xlink:href="#me081539852" x="53.13125" y="63.255431" style="stroke: #000000; stroke-width: 0.8"/>
      </g>
     </g>
     <g id="text_15">
      <!-- 4 -->
      <g transform="translate(39.76875 67.05465) scale(0.1 -0.1)">
       <use xlink:href="#DejaVuSans-34"/>
      </g>
     </g>
    </g>
    <g id="text_16">
     <!-- charts/episodic_return -->
     <g transform="translate(18.66875 263.428281) rotate(-90) scale(0.1 -0.1)">
      <defs>
       <path id="DejaVuSans-63" d="M 3122 3366 
L 3122 2828 
Q 2878 2963 2633 3030 
Q 2388 3097 2138 3097 
Q 1578 3097 1268 2742 
Q 959 2388 959 1747 
Q 959 1106 1268 751 
Q 1578 397 2138 397 
Q 2388 397 2633 464 
Q 2878 531 3122 666 
L 3122 134 
Q 2881 22 2623 -34 
Q 2366 -91 2075 -91 
Q 1284 -91 818 406 
Q 353 903 353 1747 
Q 353 2603 823 3093 
Q 1294 3584 2113 3584 
Q 2378 3584 2631 3529 
Q 2884 3475 3122 3366 
z
" transform="scale(0.015625)"/>
       <path id="DejaVuSans-68" d="M 3513 2113 
L 3513 0 
L 2938 0 
L 2938 2094 
Q 2938 2591 2744 2837 
Q 2550 3084 2163 3084 
Q 1697 3084 1428 2787 
Q 1159 2491 1159 1978 
L 1159 0 
L 581 0 
L 581 4863 
L 1159 4863 
L 1159 2956 
Q 1366 3272 1645 3428 
Q 1925 3584 2291 3584 
Q 2894 3584 3203 3211 
Q 3513 2838 3513 2113 
z
" transform="scale(0.015625)"/>
       <path id="DejaVuSans-61" d="M 2194 1759 
Q 1497 1759 1228 1600 
Q 959 1441 959 1056 
Q 959 750 1161 570 
Q 1363 391 1709 391 
Q 2188 391 2477 730 
Q 2766 1069 2766 1631 
L 2766 1759 
L 2194 1759 
z
M 3341 1997 
L 3341 0 
L 2766 0 
L 2766 531 
Q 2569 213 2275 61 
Q 1981 -91 1556 -91 
Q 1019 -91 701 211 
Q 384 513 384 1019 
Q 384 1609 779 1909 
Q 1175 2209 1959 2209 
L 2766 2209 
L 2766 2266 
Q 2766 2663 2505 2880 
Q 2244 3097 1772 3097 
Q 1472 3097 1187 3025 
Q 903 2953 641 2809 
L 641 3341 
Q 956 3463 1253 3523 
Q 1550 3584 1831 3584 
Q 2591 3584 2966 3190 
Q 3341 2797 3341 1997 
z
" transform="scale(0.015625)"/>
       <path id="DejaVuSans-72" d="M 2631 2963 
Q 2534 3019 2420 3045 
Q 2306 3072 2169 3072 
Q 1681 3072 1420 2755 
Q 1159 2438 1159 1844 
L 1159 0 
L 581 0 
L 581 3500 
L 1159 3500 
L 1159 2956 
Q 1341 3275 1631 3429 
Q 1922 3584 2338 3584 
Q 2397 3584 2469 3576 
Q 2541 3569 2628 3553 
L 2631 2963 
z
" transform="scale(0.015625)"/>
       <path id="DejaVuSans-73" d="M 2834 3397 
L 2834 2853 
Q 2591 2978 2328 3040 
Q 2066 3103 1784 3103 
Q 1356 3103 1142 2972 
Q 928 2841 928 2578 
Q 928 2378 1081 2264 
Q 1234 2150 1697 2047 
L 1894 2003 
Q 2506 1872 2764 1633 
Q 3022 1394 3022 966 
Q 3022 478 2636 193 
Q 2250 -91 1575 -91 
Q 1294 -91 989 -36 
Q 684 19 347 128 
L 347 722 
Q 666 556 975 473 
Q 1284 391 1588 391 
Q 1994 391 2212 530 
Q 2431 669 2431 922 
Q 2431 1156 2273 1281 
Q 2116 1406 1581 1522 
L 1381 1569 
Q 847 1681 609 1914 
Q 372 2147 372 2553 
Q 372 3047 722 3315 
Q 1072 3584 1716 3584 
Q 2034 3584 2315 3537 
Q 2597 3491 2834 3397 
z
" transform="scale(0.015625)"/>
       <path id="DejaVuSans-2f" d="M 1625 4666 
L 2156 4666 
L 531 -594 
L 0 -594 
L 1625 4666 
z
" transform="scale(0.015625)"/>
       <path id="DejaVuSans-69" d="M 603 3500 
L 1178 3500 
L 1178 0 
L 603 0 
L 603 3500 
z
M 603 4863 
L 1178 4863 
L 1178 4134 
L 603 4134 
L 603 4863 
z
" transform="scale(0.015625)"/>
       <path id="DejaVuSans-6f" d="M 1959 3097 
Q 1497 3097 1228 2736 
Q 959 2375 959 1747 
Q 959 1119 1226 758 
Q 1494 397 1959 397 
Q 2419 397 2687 759 
Q 2956 1122 2956 1747 
Q 2956 2369 2687 2733 
Q 2419 3097 1959 3097 
z
M 1959 3584 
Q 2709 3584 3137 3096 
Q 3566 2609 3566 1747 
Q 3566 888 3137 398 
Q 2709 -91 1959 -91 
Q 1206 -91 779 398 
Q 353 888 353 1747 
Q 353 2609 779 3096 
Q 1206 3584 1959 3584 
z
" transform="scale(0.015625)"/>
       <path id="DejaVuSans-64" d="M 2906 2969 
L 2906 4863 
L 3481 4863 
L 3481 0 
L 2906 0 
L 2906 525 
Q 2725 213 2448 61 
Q 2172 -91 1784 -91 
Q 1150 -91 751 415 
Q 353 922 353 1747 
Q 353 2572 751 3078 
Q 1150 3584 1784 3584 
Q 2172 3584 2448 3432 
Q 2725 3281 2906 2969 
z
M 947 1747 
Q 947 1113 1208 752 
Q 1469 391 1925 391 
Q 2381 391 2643 752 
Q 2906 1113 2906 1747 
Q 2906 2381 2643 2742 
Q 2381 3103 1925 3103 
Q 1469 3103 1208 2742 
Q 947 2381 947 1747 
z
" transform="scale(0.015625)"/>
       <path id="DejaVuSans-5f" d="M 3263 -1063 
L 3263 -1509 
L -63 -1509 
L -63 -1063 
L 3263 -1063 
z
" transform="scale(0.015625)"/>
       <path id="DejaVuSans-75" d="M 544 1381 
L 544 3500 
L 1119 3500 
L 1119 1403 
Q 1119 906 1312 657 
Q 1506 409 1894 409 
Q 2359 409 2629 706 
Q 2900 1003 2900 1516 
L 2900 3500 
L 3475 3500 
L 3475 0 
L 2900 0 
L 2900 538 
Q 2691 219 2414 64 
Q 2138 -91 1772 -91 
Q 1169 -91 856 284 
Q 544 659 544 1381 
z
M 1991 3584 
L 1991 3584 
z
" transform="scale(0.015625)"/>
       <path id="DejaVuSans-6e" d="M 3513 2113 
L 3513 0 
L 2938 0 
L 2938 2094 
Q 2938 2591 2744 2837 
Q 2550 3084 2163 3084 
Q 1697 3084 1428 2787 
Q 1159 2491 1159 1978 
L 1159 0 
L 581 0 
L 581 3500 
L 1159 3500 
L 1159 2956 
Q 1366 3272 1645 3428 
Q 1925 3584 2291 3584 
Q 2894 3584 3203 3211 
Q 3513 2838 3513 2113 
z
" transform="scale(0.015625)"/>
      </defs>
      <use xlink:href="#DejaVuSans-63"/>
      <use xlink:href="#DejaVuSans-68" transform="translate(54.980469 0)"/>
      <use xlink:href="#DejaVuSans-61" transform="translate(118.359375 0)"/>
      <use xlink:href="#DejaVuSans-72" transform="translate(179.638672 0)"/>
      <use xlink:href="#DejaVuSans-74" transform="translate(220.751953 0)"/>
      <use xlink:href="#DejaVuSans-73" transform="translate(259.960938 0)"/>
      <use xlink:href="#DejaVuSans-2f" transform="translate(312.060547 0)"/>
      <use xlink:href="#DejaVuSans-65" transform="translate(345.751953 0)"/>
      <use xlink:href="#DejaVuSans-70" transform="translate(407.275391 0)"/>
      <use xlink:href="#DejaVuSans-69" transform="translate(470.751953 0)"/>
      <use xlink:href="#DejaVuSans-73" transform="translate(498.535156 0)"/>
      <use xlink:href="#DejaVuSans-6f" transform="translate(550.634766 0)"/>
      <use xlink:href="#DejaVuSans-64" transform="translate(611.816406 0)"/>
      <use xlink:href="#DejaVuSans-69" transform="translate(675.292969 0)"/>
      <use xlink:href="#DejaVuSans-63" transform="translate(703.076172 0)"/>
      <use xlink:href="#DejaVuSans-5f" transform="translate(758.056641 0)"/>
      <use xlink:href="#DejaVuSans-72" transform="translate(808.056641 0)"/>
      <use xlink:href="#DejaVuSans-65" transform="translate(846.919922 0)"/>
      <use xlink:href="#DejaVuSans-74" transform="translate(908.443359 0)"/>
      <use xlink:href="#DejaVuSans-75" transform="translate(947.652344 0)"/>
      <use xlink:href="#DejaVuSans-72" transform="translate(1011.03125 0)"/>
      <use xlink:href="#DejaVuSans-6e" transform="translate(1050.394531 0)"/>
     </g>
    </g>
   </g>
   <g id="line2d_15">
    <path d="M 82.952557 152.563463 
L 84.146603 152.69047 
L 86.534696 152.563884 
L 89.519812 152.360674 
L 92.504927 152.572159 
L 94.89302 151.941987 
L 96.087066 151.827504 
L 96.684089 151.899335 
L 99.072182 151.593021 
L 100.266228 151.226039 
L 101.460275 150.824775 
L 102.654321 150.736233 
L 103.251344 150.598898 
L 103.848367 150.856509 
L 110.415622 155.517487 
L 111.609668 156.349603 
L 113.400738 157.703842 
L 113.997761 158.071094 
L 115.788831 156.879857 
L 116.385854 156.793097 
L 117.5799 156.240744 
L 118.773946 155.488992 
L 119.967993 154.845259 
L 122.356085 153.343796 
L 124.147155 152.441078 
L 124.744178 152.221799 
L 127.729294 154.019763 
L 130.117386 156.001573 
L 131.311433 156.998813 
L 132.505479 157.907125 
L 133.102502 158.626943 
L 134.893572 159.8475 
L 135.490595 160.150351 
L 136.087618 160.219568 
L 137.878687 160.102243 
L 139.072734 160.149978 
L 140.26678 160.137979 
L 146.237012 160.226945 
L 150.416174 161.138656 
L 153.998313 162.292169 
L 155.192359 162.550237 
L 155.789382 162.555097 
L 157.580452 163.064558 
L 158.774498 163.57883 
L 159.371521 163.982853 
L 161.162591 164.654469 
L 162.356637 165.141954 
L 163.550683 165.98033 
L 165.938776 167.133563 
L 167.132822 167.676455 
L 172.506031 167.686966 
L 173.700077 167.500156 
L 174.894123 167.607112 
L 176.685193 167.537882 
L 177.879239 167.462513 
L 182.058401 162.829217 
L 185.64054 158.958961 
L 186.237563 158.484068 
L 188.028633 156.479419 
L 188.625656 156.124656 
L 191.013749 156.975158 
L 192.207795 157.589233 
L 196.98398 159.193791 
L 198.178027 159.77521 
L 199.969096 160.142802 
L 201.163142 160.364854 
L 201.760166 160.563306 
L 202.954212 160.797841 
L 204.148258 161.26469 
L 207.133374 162.007673 
L 208.32742 162.27492 
L 209.521467 162.529241 
L 210.11849 162.352767 
L 211.312536 161.500614 
L 213.103606 160.068753 
L 216.088721 157.615825 
L 219.67086 154.253599 
L 220.267884 153.744063 
L 220.864907 153.929932 
L 222.058953 154.64677 
L 226.238115 157.558554 
L 228.626208 158.946802 
L 230.417277 160.446624 
L 231.0143 160.905253 
L 232.208347 159.955644 
L 235.790486 156.998726 
L 237.581555 155.896577 
L 239.372625 154.405754 
L 240.566671 153.454526 
L 241.760717 152.630261 
L 242.954764 152.67419 
L 244.14881 153.091092 
L 245.342856 153.112191 
L 245.939879 152.982205 
L 249.522018 153.155083 
L 250.119041 153.038192 
L 253.104157 153.702438 
L 253.70118 153.731902 
L 255.49225 154.505906 
L 256.089273 154.648951 
L 256.686296 154.658807 
L 257.283319 154.789427 
L 257.880343 155.292021 
L 260.865458 156.386458 
L 262.059505 156.703237 
L 263.253551 156.938666 
L 264.447597 157.039401 
L 265.641644 157.659883 
L 269.223783 158.15889 
L 270.417829 158.601674 
L 273.402945 159.633052 
L 275.194014 158.713321 
L 275.791037 158.796114 
L 277.582107 158.490635 
L 278.776153 158.041388 
L 280.567223 157.566072 
L 282.358292 157.141187 
L 285.343408 156.806537 
L 285.940431 157.031349 
L 288.328524 157.272259 
L 289.52257 157.507715 
L 291.313639 157.836188 
L 292.507686 157.822453 
L 293.701732 157.711588 
L 294.298755 157.932806 
L 294.895778 158.373182 
L 296.686848 158.486784 
L 299.074941 158.544208 
L 300.86601 159.009196 
L 303.254103 159.053003 
L 304.448149 159.112278 
L 306.239218 159.579851 
L 307.433265 159.455845 
L 309.224334 158.977437 
L 311.015404 158.764758 
L 313.403496 158.28238 
L 314.00052 158.324251 
L 314.597543 158.565809 
L 315.791589 158.386492 
L 316.388612 158.347333 
L 316.985635 158.189662 
L 318.179682 157.661639 
L 319.373728 157.603286 
L 320.567774 157.226646 
L 324.149913 155.827627 
L 325.34396 155.868657 
L 326.538006 155.278086 
L 329.523122 155.492797 
L 330.120145 155.534856 
L 330.717168 155.462503 
L 331.911214 155.910198 
L 333.702284 155.737102 
L 334.89633 155.989842 
L 335.493353 155.895783 
L 336.6874 156.15177 
L 338.478469 156.554232 
L 340.269539 156.977586 
L 342.060608 157.427114 
L 343.254654 157.473567 
L 344.448701 157.474977 
L 345.045724 157.74928 
L 347.433816 158.329814 
L 348.03084 158.273824 
L 348.627863 157.716971 
L 349.224886 157.357037 
L 349.821909 157.286618 
L 351.015955 156.70055 
L 352.210002 155.886038 
L 352.807025 155.640716 
L 353.404048 155.56601 
L 356.986187 153.669559 
L 357.58321 153.569434 
L 358.777257 153.001131 
L 360.568326 153.292532 
L 361.165349 153.521622 
L 362.359395 153.625244 
L 362.956419 153.687299 
L 364.150465 154.073914 
L 364.747488 154.390105 
L 366.538558 154.606391 
L 368.92665 155.423809 
L 371.911766 155.514962 
L 374.299859 156.444894 
L 375.493905 156.424744 
L 376.090928 156.401784 
L 377.284974 157.102845 
L 379.076044 157.081484 
L 379.673067 157.368278 
L 380.27009 157.427376 
L 381.464137 156.977816 
L 383.255206 156.282202 
L 383.852229 156.198194 
L 385.643299 156.301459 
L 386.240322 156.186967 
L 387.434368 156.272644 
L 389.225438 155.910476 
L 390.419484 155.687895 
L 391.61353 155.856733 
L 392.807577 156.053 
L 394.001623 156.748468 
L 395.792692 157.374121 
L 397.583762 158.176034 
L 399.374831 158.696621 
L 401.165901 159.66266 
L 402.359947 159.031209 
L 404.151017 157.871101 
L 405.942086 157.216817 
L 407.136132 156.682848 
L 410.121248 155.460872 
L 411.912318 154.603146 
L 413.703387 154.056951 
L 414.897434 153.547851 
L 416.09148 153.056426 
L 417.285526 152.625691 
L 421.464688 150.842203 
L 422.658735 150.76105 
L 425.046827 151.459506 
L 426.240874 151.76426 
L 428.031943 152.350922 
L 428.628966 152.498035 
L 429.225989 152.901373 
L 429.823013 153.158595 
L 430.420036 153.614308 
L 431.614082 154.10827 
L 433.405151 154.382426 
L 434.002175 154.522715 
L 435.793244 154.508017 
L 436.98729 154.645566 
L 438.77836 154.255658 
L 441.166453 154.42465 
L 442.360499 154.210185 
L 443.554545 154.170068 
L 444.151568 154.594026 
L 445.345615 154.994113 
L 447.136684 154.917885 
L 450.1218 155.600415 
L 451.315846 155.563715 
L 456.092032 156.622636 
L 456.689055 156.939638 
L 458.480124 157.186681 
L 459.67417 157.700497 
L 462.062263 158.056312 
L 462.659286 158.50789 
L 465.047379 159.347696 
L 466.838448 158.985862 
L 468.032495 158.719502 
L 470.420587 158.85197 
L 475.196773 157.601607 
L 475.793796 157.544308 
L 479.972958 157.972043 
L 482.361051 158.695848 
L 482.958074 158.781877 
L 483.555097 159.069254 
L 484.15212 159.191906 
L 486.540213 159.184545 
L 490.719375 156.101308 
L 492.510444 154.6528 
L 494.301514 153.446372 
L 496.689606 151.636206 
L 497.28663 151.353533 
L 498.480676 151.230136 
L 501.465792 151.713395 
L 502.062815 151.853263 
L 505.047931 151.708399 
L 507.436023 151.333379 
L 508.63007 151.850553 
L 510.421139 153.291141 
L 511.615185 153.582832 
L 512.809232 153.99294 
L 515.197324 154.430125 
L 516.988394 155.687382 
L 518.18244 156.173622 
L 519.376486 156.26417 
L 521.764579 156.864062 
L 522.361602 157.160591 
L 523.555649 157.368127 
L 525.346718 157.575122 
L 526.540764 157.791469 
L 527.137788 158.203522 
L 527.734811 158.451481 
L 528.928857 158.49031 
L 530.719926 157.101027 
L 533.705042 155.203598 
L 534.899089 154.520182 
L 536.690158 153.671378 
L 537.287181 153.485655 
L 538.481228 152.609204 
L 539.078251 152.132487 
L 539.675274 151.847894 
L 540.272297 152.084638 
L 540.86932 152.505816 
L 543.854436 153.748547 
L 544.451459 154.483906 
L 546.242529 155.081988 
L 547.436575 155.565443 
L 548.630621 155.826386 
L 549.227644 156.063238 
L 549.824668 156.500016 
L 550.421691 156.489339 
L 552.21276 155.27642 
L 553.406807 154.652149 
L 555.197876 153.634447 
L 556.391922 152.922887 
L 557.585969 152.086695 
L 558.780015 151.419173 
L 560.571084 150.238632 
L 561.168108 150.302594 
L 562.362154 150.691718 
L 563.5562 150.876677 
L 564.750247 150.823725 
L 567.735362 151.658632 
L 568.332386 151.91384 
L 568.929409 151.937794 
L 571.914524 152.753566 
L 572.511548 153.087722 
L 573.705594 153.950385 
L 576.69071 155.113963 
L 580.272849 156.629765 
L 582.063918 157.482988 
L 589.825219 152.839855 
L 591.019266 152.328334 
L 592.213312 151.958505 
L 592.810335 151.645699 
L 594.601405 151.06758 
L 595.795451 150.560725 
L 599.974613 149.740554 
L 601.168659 149.950673 
L 601.765682 149.886849 
L 603.556752 149.364111 
L 604.750798 149.25619 
L 608.332937 149.173591 
L 609.526984 149.060299 
L 616.094238 149.376162 
L 620.2734 150.318439 
L 622.06447 150.430109 
L 622.661493 150.454842 
L 624.452563 150.934885 
L 626.840655 151.504257 
L 628.034701 151.808182 
L 629.825771 152.058866 
L 632.810887 152.218363 
L 634.004933 152.444525 
L 635.796003 152.800727 
L 636.393026 152.837346 
L 639.975165 152.391533 
L 647.139443 152.295319 
L 650.721582 151.77607 
L 651.915628 151.813504 
L 653.109674 151.972698 
L 655.497767 151.537994 
L 656.691813 151.705475 
L 658.482883 152.537983 
L 660.273952 153.093328 
L 663.856091 153.869948 
L 665.647161 154.347228 
L 666.841207 154.60335 
L 670.423346 154.170026 
L 674.005485 153.294147 
L 676.393577 153.021257 
L 677.587624 152.748835 
L 679.378693 152.781649 
L 679.378693 152.781649 
" clip-path="url(#p2100bb5efb)" style="fill: none; stroke: #daa520; stroke-width: 1.5; stroke-linecap: square"/>
   </g>
   <g id="patch_3">
    <path d="M 53.13125 390.04 
L 53.13125 25.44 
" style="fill: none; stroke: #000000; stroke-width: 0.8; stroke-linejoin: miter; stroke-linecap: square"/>
   </g>
   <g id="patch_4">
    <path d="M 709.2 390.04 
L 709.2 25.44 
" style="fill: none; stroke: #000000; stroke-width: 0.8; stroke-linejoin: miter; stroke-linecap: square"/>
   </g>
   <g id="patch_5">
    <path d="M 53.13125 390.04 
L 709.2 390.04 
" style="fill: none; stroke: #000000; stroke-width: 0.8; stroke-linejoin: miter; stroke-linecap: square"/>
   </g>
   <g id="patch_6">
    <path d="M 53.13125 25.44 
L 709.2 25.44 
" style="fill: none; stroke: #000000; stroke-width: 0.8; stroke-linejoin: miter; stroke-linecap: square"/>
   </g>
   <g id="text_17">
    <!-- charts/episodic_return for dqn_atari (aggregated via interpolation over runs) -->
    <g transform="translate(151.372188 19.44) scale(0.12 -0.12)">
     <defs>
      <path id="DejaVuSans-20" transform="scale(0.015625)"/>
      <path id="DejaVuSans-66" d="M 2375 4863 
L 2375 4384 
L 1825 4384 
Q 1516 4384 1395 4259 
Q 1275 4134 1275 3809 
L 1275 3500 
L 2222 3500 
L 2222 3053 
L 1275 3053 
L 1275 0 
L 697 0 
L 697 3053 
L 147 3053 
L 147 3500 
L 697 3500 
L 697 3744 
Q 697 4328 969 4595 
Q 1241 4863 1831 4863 
L 2375 4863 
z
" transform="scale(0.015625)"/>
      <path id="DejaVuSans-71" d="M 947 1747 
Q 947 1113 1208 752 
Q 1469 391 1925 391 
Q 2381 391 2643 752 
Q 2906 1113 2906 1747 
Q 2906 2381 2643 2742 
Q 2381 3103 1925 3103 
Q 1469 3103 1208 2742 
Q 947 2381 947 1747 
z
M 2906 525 
Q 2725 213 2448 61 
Q 2172 -91 1784 -91 
Q 1150 -91 751 415 
Q 353 922 353 1747 
Q 353 2572 751 3078 
Q 1150 3584 1784 3584 
Q 2172 3584 2448 3432 
Q 2725 3281 2906 2969 
L 2906 3500 
L 3481 3500 
L 3481 -1331 
L 2906 -1331 
L 2906 525 
z
" transform="scale(0.015625)"/>
      <path id="DejaVuSans-28" d="M 1984 4856 
Q 1566 4138 1362 3434 
Q 1159 2731 1159 2009 
Q 1159 1288 1364 580 
Q 1569 -128 1984 -844 
L 1484 -844 
Q 1016 -109 783 600 
Q 550 1309 550 2009 
Q 550 2706 781 3412 
Q 1013 4119 1484 4856 
L 1984 4856 
z
" transform="scale(0.015625)"/>
      <path id="DejaVuSans-67" d="M 2906 1791 
Q 2906 2416 2648 2759 
Q 2391 3103 1925 3103 
Q 1463 3103 1205 2759 
Q 947 2416 947 1791 
Q 947 1169 1205 825 
Q 1463 481 1925 481 
Q 2391 481 2648 825 
Q 2906 1169 2906 1791 
z
M 3481 434 
Q 3481 -459 3084 -895 
Q 2688 -1331 1869 -1331 
Q 1566 -1331 1297 -1286 
Q 1028 -1241 775 -1147 
L 775 -588 
Q 1028 -725 1275 -790 
Q 1522 -856 1778 -856 
Q 2344 -856 2625 -561 
Q 2906 -266 2906 331 
L 2906 616 
Q 2728 306 2450 153 
Q 2172 0 1784 0 
Q 1141 0 747 490 
Q 353 981 353 1791 
Q 353 2603 747 3093 
Q 1141 3584 1784 3584 
Q 2172 3584 2450 3431 
Q 2728 3278 2906 2969 
L 2906 3500 
L 3481 3500 
L 3481 434 
z
" transform="scale(0.015625)"/>
      <path id="DejaVuSans-76" d="M 191 3500 
L 800 3500 
L 1894 563 
L 2988 3500 
L 3597 3500 
L 2284 0 
L 1503 0 
L 191 3500 
z
" transform="scale(0.015625)"/>
      <path id="DejaVuSans-6c" d="M 603 4863 
L 1178 4863 
L 1178 0 
L 603 0 
L 603 4863 
z
" transform="scale(0.015625)"/>
      <path id="DejaVuSans-29" d="M 513 4856 
L 1013 4856 
Q 1481 4119 1714 3412 
Q 1947 2706 1947 2009 
Q 1947 1309 1714 600 
Q 1481 -109 1013 -844 
L 513 -844 
Q 928 -128 1133 580 
Q 1338 1288 1338 2009 
Q 1338 2731 1133 3434 
Q 928 4138 513 4856 
z
" transform="scale(0.015625)"/>
     </defs>
     <use xlink:href="#DejaVuSans-63"/>
     <use xlink:href="#DejaVuSans-68" transform="translate(54.980469 0)"/>
     <use xlink:href="#DejaVuSans-61" transform="translate(118.359375 0)"/>
     <use xlink:href="#DejaVuSans-72" transform="translate(179.638672 0)"/>
     <use xlink:href="#DejaVuSans-74" transform="translate(220.751953 0)"/>
     <use xlink:href="#DejaVuSans-73" transform="translate(259.960938 0)"/>
     <use xlink:href="#DejaVuSans-2f" transform="translate(312.060547 0)"/>
     <use xlink:href="#DejaVuSans-65" transform="translate(345.751953 0)"/>
     <use xlink:href="#DejaVuSans-70" transform="translate(407.275391 0)"/>
     <use xlink:href="#DejaVuSans-69" transform="translate(470.751953 0)"/>
     <use xlink:href="#DejaVuSans-73" transform="translate(498.535156 0)"/>
     <use xlink:href="#DejaVuSans-6f" transform="translate(550.634766 0)"/>
     <use xlink:href="#DejaVuSans-64" transform="translate(611.816406 0)"/>
     <use xlink:href="#DejaVuSans-69" transform="translate(675.292969 0)"/>
     <use xlink:href="#DejaVuSans-63" transform="translate(703.076172 0)"/>
     <use xlink:href="#DejaVuSans-5f" transform="translate(758.056641 0)"/>
     <use xlink:href="#DejaVuSans-72" transform="translate(808.056641 0)"/>
     <use xlink:href="#DejaVuSans-65" transform="translate(846.919922 0)"/>
     <use xlink:href="#DejaVuSans-74" transform="translate(908.443359 0)"/>
     <use xlink:href="#DejaVuSans-75" transform="translate(947.652344 0)"/>
     <use xlink:href="#DejaVuSans-72" transform="translate(1011.03125 0)"/>
     <use xlink:href="#DejaVuSans-6e" transform="translate(1050.394531 0)"/>
     <use xlink:href="#DejaVuSans-20" transform="translate(1113.773438 0)"/>
     <use xlink:href="#DejaVuSans-66" transform="translate(1145.560547 0)"/>
     <use xlink:href="#DejaVuSans-6f" transform="translate(1180.765625 0)"/>
     <use xlink:href="#DejaVuSans-72" transform="translate(1241.947266 0)"/>
     <use xlink:href="#DejaVuSans-20" transform="translate(1283.060547 0)"/>
     <use xlink:href="#DejaVuSans-64" transform="translate(1314.847656 0)"/>
     <use xlink:href="#DejaVuSans-71" transform="translate(1378.324219 0)"/>
     <use xlink:href="#DejaVuSans-6e" transform="translate(1441.800781 0)"/>
     <use xlink:href="#DejaVuSans-5f" transform="translate(1505.179688 0)"/>
     <use xlink:href="#DejaVuSans-61" transform="translate(1555.179688 0)"/>
     <use xlink:href="#DejaVuSans-74" transform="translate(1616.458984 0)"/>
     <use xlink:href="#DejaVuSans-61" transform="translate(1655.667969 0)"/>
     <use xlink:href="#DejaVuSans-72" transform="translate(1716.947266 0)"/>
     <use xlink:href="#DejaVuSans-69" transform="translate(1758.060547 0)"/>
     <use xlink:href="#DejaVuSans-20" transform="translate(1785.84375 0)"/>
     <use xlink:href="#DejaVuSans-28" transform="translate(1817.630859 0)"/>
     <use xlink:href="#DejaVuSans-61" transform="translate(1856.644531 0)"/>
     <use xlink:href="#DejaVuSans-67" transform="translate(1917.923828 0)"/>
     <use xlink:href="#DejaVuSans-67" transform="translate(1981.400391 0)"/>
     <use xlink:href="#DejaVuSans-72" transform="translate(2044.876953 0)"/>
     <use xlink:href="#DejaVuSans-65" transform="translate(2083.740234 0)"/>
     <use xlink:href="#DejaVuSans-67" transform="translate(2145.263672 0)"/>
     <use xlink:href="#DejaVuSans-61" transform="translate(2208.740234 0)"/>
     <use xlink:href="#DejaVuSans-74" transform="translate(2270.019531 0)"/>
     <use xlink:href="#DejaVuSans-65" transform="translate(2309.228516 0)"/>
     <use xlink:href="#DejaVuSans-64" transform="translate(2370.751953 0)"/>
     <use xlink:href="#DejaVuSans-20" transform="translate(2434.228516 0)"/>
     <use xlink:href="#DejaVuSans-76" transform="translate(2466.015625 0)"/>
     <use xlink:href="#DejaVuSans-69" transform="translate(2525.195312 0)"/>
     <use xlink:href="#DejaVuSans-61" transform="translate(2552.978516 0)"/>
     <use xlink:href="#DejaVuSans-20" transform="translate(2614.257812 0)"/>
     <use xlink:href="#DejaVuSans-69" transform="translate(2646.044922 0)"/>
     <use xlink:href="#DejaVuSans-6e" transform="translate(2673.828125 0)"/>
     <use xlink:href="#DejaVuSans-74" transform="translate(2737.207031 0)"/>
     <use xlink:href="#DejaVuSans-65" transform="translate(2776.416016 0)"/>
     <use xlink:href="#DejaVuSans-72" transform="translate(2837.939453 0)"/>
     <use xlink:href="#DejaVuSans-70" transform="translate(2879.052734 0)"/>
     <use xlink:href="#DejaVuSans-6f" transform="translate(2942.529297 0)"/>
     <use xlink:href="#DejaVuSans-6c" transform="translate(3003.710938 0)"/>
     <use xlink:href="#DejaVuSans-61" transform="translate(3031.494141 0)"/>
     <use xlink:href="#DejaVuSans-74" transform="translate(3092.773438 0)"/>
     <use xlink:href="#DejaVuSans-69" transform="translate(3131.982422 0)"/>
     <use xlink:href="#DejaVuSans-6f" transform="translate(3159.765625 0)"/>
     <use xlink:href="#DejaVuSans-6e" transform="translate(3220.947266 0)"/>
     <use xlink:href="#DejaVuSans-20" transform="translate(3284.326172 0)"/>
     <use xlink:href="#DejaVuSans-6f" transform="translate(3316.113281 0)"/>
     <use xlink:href="#DejaVuSans-76" transform="translate(3377.294922 0)"/>
     <use xlink:href="#DejaVuSans-65" transform="translate(3436.474609 0)"/>
     <use xlink:href="#DejaVuSans-72" transform="translate(3497.998047 0)"/>
     <use xlink:href="#DejaVuSans-20" transform="translate(3539.111328 0)"/>
     <use xlink:href="#DejaVuSans-72" transform="translate(3570.898438 0)"/>
     <use xlink:href="#DejaVuSans-75" transform="translate(3612.011719 0)"/>
     <use xlink:href="#DejaVuSans-6e" transform="translate(3675.390625 0)"/>
     <use xlink:href="#DejaVuSans-73" transform="translate(3738.769531 0)"/>
     <use xlink:href="#DejaVuSans-29" transform="translate(3790.869141 0)"/>
    </g>
   </g>
   <g id="legend_1">
    <g id="patch_7">
     <path d="M 626.78125 62.79625 
L 702.2 62.79625 
Q 704.2 62.79625 704.2 60.79625 
L 704.2 32.44 
Q 704.2 30.44 702.2 30.44 
L 626.78125 30.44 
Q 624.78125 30.44 624.78125 32.44 
L 624.78125 60.79625 
Q 624.78125 62.79625 626.78125 62.79625 
z
" style="fill: #ffffff; opacity: 0.8; stroke: #cccccc; stroke-linejoin: miter"/>
    </g>
    <g id="line2d_16">
     <path d="M 628.78125 38.538437 
L 638.78125 38.538437 
L 648.78125 38.538437 
" style="fill: none; stroke: #daa520; stroke-width: 1.5; stroke-linecap: square"/>
    </g>
    <g id="text_18">
     <!-- Mean -->
     <g transform="translate(656.78125 42.038437) scale(0.1 -0.1)">
      <defs>
       <path id="DejaVuSans-4d" d="M 628 4666 
L 1569 4666 
L 2759 1491 
L 3956 4666 
L 4897 4666 
L 4897 0 
L 4281 0 
L 4281 4097 
L 3078 897 
L 2444 897 
L 1241 4097 
L 1241 0 
L 628 0 
L 628 4666 
z
" transform="scale(0.015625)"/>
      </defs>
      <use xlink:href="#DejaVuSans-4d"/>
      <use xlink:href="#DejaVuSans-65" transform="translate(86.279297 0)"/>
      <use xlink:href="#DejaVuSans-61" transform="translate(147.802734 0)"/>
      <use xlink:href="#DejaVuSans-6e" transform="translate(209.082031 0)"/>
     </g>
    </g>
    <g id="patch_8">
     <path d="M 628.78125 56.716563 
L 648.78125 56.716563 
L 648.78125 49.716563 
L 628.78125 49.716563 
z
" style="fill: #daa520; fill-opacity: 0.3; stroke: #daa520; stroke-opacity: 0.3; stroke-linejoin: miter"/>
    </g>
    <g id="text_19">
     <!-- MinMax -->
     <g transform="translate(656.78125 56.716563) scale(0.1 -0.1)">
      <defs>
       <path id="DejaVuSans-2013" d="M 313 1978 
L 2888 1978 
L 2888 1528 
L 313 1528 
L 313 1978 
z
" transform="scale(0.015625)"/>
       <path id="DejaVuSans-78" d="M 3513 3500 
L 2247 1797 
L 3578 0 
L 2900 0 
L 1881 1375 
L 863 0 
L 184 0 
L 1544 1831 
L 300 3500 
L 978 3500 
L 1906 2253 
L 2834 3500 
L 3513 3500 
z
" transform="scale(0.015625)"/>
      </defs>
      <use xlink:href="#DejaVuSans-4d"/>
      <use xlink:href="#DejaVuSans-69" transform="translate(86.279297 0)"/>
      <use xlink:href="#DejaVuSans-6e" transform="translate(114.0625 0)"/>
      <use xlink:href="#DejaVuSans-2013" transform="translate(177.441406 0)"/>
      <use xlink:href="#DejaVuSans-4d" transform="translate(227.441406 0)"/>
      <use xlink:href="#DejaVuSans-61" transform="translate(313.720703 0)"/>
      <use xlink:href="#DejaVuSans-78" transform="translate(375 0)"/>
     </g>
    </g>
   </g>
  </g>
 </g>
 <defs>
  <clipPath id="p2100bb5efb">
   <rect x="53.13125" y="25.44" width="656.06875" height="364.6"/>
  </clipPath>
 </defs>
</svg>
