<?xml version="1.0" encoding="utf-8" standalone="no"?>
<!DOCTYPE svg PUBLIC "-//W3C//DTD SVG 1.1//EN"
  "http://www.w3.org/Graphics/SVG/1.1/DTD/svg11.dtd">
<svg xmlns:xlink="http://www.w3.org/1999/xlink" width="720pt" height="432pt" viewBox="0 0 720 432" xmlns="http://www.w3.org/2000/svg" version="1.1">
 <metadata>
  <rdf:RDF xmlns:dc="http://purl.org/dc/elements/1.1/" xmlns:cc="http://creativecommons.org/ns#" xmlns:rdf="http://www.w3.org/1999/02/22-rdf-syntax-ns#">
   <cc:Work>
    <dc:type rdf:resource="http://purl.org/dc/dcmitype/StillImage"/>
    <dc:date>2025-02-05T20:31:24.172668</dc:date>
    <dc:format>image/svg+xml</dc:format>
    <dc:creator>
     <cc:Agent>
      <dc:title>Matplotlib v3.10.0, https://matplotlib.org/</dc:title>
     </cc:Agent>
    </dc:creator>
   </cc:Work>
  </rdf:RDF>
 </metadata>
 <defs>
  <style type="text/css">*{stroke-linejoin: round; stroke-linecap: butt}</style>
 </defs>
 <g id="figure_1">
  <g id="patch_1">
   <path d="M 0 432 
L 720 432 
L 720 0 
L 0 0 
z
" style="fill: #ffffff"/>
  </g>
  <g id="axes_1">
   <g id="patch_2">
    <path d="M 51.05 390.04 
L 709.2 390.04 
L 709.2 25.44 
L 51.05 25.44 
z
" style="fill: #ffffff"/>
   </g>
   <g id="FillBetweenPolyCollection_1">
    <defs>
     <path id="me6fa92538a" d="M 80.965909 -258.516475 
L 80.965909 -75.19804 
L 81.564826 -88.133999 
L 82.163743 -99.225672 
L 82.76266 -110.313638 
L 83.361577 -119.56473 
L 83.960495 -128.804702 
L 84.559412 -136.215214 
L 85.158329 -141.78144 
L 85.757246 -147.325422 
L 86.356163 -152.869405 
L 86.95508 -158.413388 
L 87.553997 -162.146448 
L 88.152914 -165.842436 
L 88.751831 -169.538425 
L 89.350748 -173.234413 
L 89.949666 -176.930402 
L 90.548583 -178.834003 
L 91.1475 -182.470677 
L 91.746417 -184.381693 
L 92.345334 -188.010953 
L 92.944251 -189.929382 
L 93.543168 -191.777377 
L 94.142085 -193.625371 
L 94.741002 -195.473365 
L 95.339919 -197.321359 
L 95.938837 -199.169354 
L 96.537754 -201.017348 
L 97.136671 -202.865342 
L 97.735588 -204.713337 
L 98.334505 -204.817136 
L 98.933422 -206.557624 
L 99.532339 -208.405618 
L 100.131256 -208.520538 
L 100.730173 -210.249905 
L 101.32909 -212.097899 
L 101.928008 -212.223941 
L 102.526925 -213.942187 
L 103.125842 -214.075642 
L 103.724759 -215.786474 
L 104.323676 -215.927344 
L 104.922593 -217.630761 
L 105.52151 -217.779045 
L 106.120427 -219.475048 
L 106.719344 -219.630747 
L 107.318261 -221.319335 
L 107.917179 -221.482448 
L 108.516096 -221.482448 
L 109.115013 -223.159915 
L 109.71393 -223.334149 
L 110.312847 -223.334149 
L 110.911764 -225.000495 
L 111.510681 -225.185851 
L 112.109598 -225.185851 
L 112.708515 -226.841075 
L 113.307432 -227.037552 
L 113.90635 -227.037552 
L 114.505267 -227.037552 
L 115.104184 -228.677948 
L 115.703101 -228.889253 
L 116.302018 -228.889253 
L 116.900935 -228.889253 
L 117.499852 -230.514821 
L 118.098769 -230.740955 
L 118.697686 -230.740955 
L 119.296603 -230.740955 
L 119.895521 -230.740955 
L 120.494438 -81.286968 
L 121.093355 -58.532727 
L 121.692272 -58.532727 
L 122.291189 -58.532727 
L 122.890106 -58.532727 
L 123.489023 -58.532727 
L 124.08794 -58.532727 
L 124.686857 -58.532727 
L 125.285774 -58.532727 
L 125.884692 -60.106395 
L 126.483609 -60.384429 
L 127.082526 -60.384429 
L 127.681443 -60.384429 
L 128.28036 -60.384429 
L 128.879277 -60.384429 
L 129.478194 -60.384429 
L 130.077111 -60.384429 
L 130.676028 -60.384429 
L 131.274945 -61.924733 
L 131.873862 -62.23613 
L 132.47278 -62.23613 
L 133.071697 -62.23613 
L 133.670614 -62.23613 
L 134.269531 -62.23613 
L 134.868448 -62.23613 
L 135.467365 -62.23613 
L 136.066282 -62.23613 
L 136.665199 -62.23613 
L 137.264116 -62.23613 
L 137.863033 -62.23613 
L 138.461951 -62.23613 
L 139.060868 -62.23613 
L 139.659785 -62.23613 
L 140.258702 -62.23613 
L 140.857619 -62.23613 
L 141.456536 -62.23613 
L 142.055453 -62.23613 
L 142.65437 -62.23613 
L 143.253287 -62.23613 
L 143.852204 -62.23613 
L 144.451122 -62.23613 
L 145.050039 -62.23613 
L 145.648956 -62.23613 
L 146.247873 -62.23613 
L 146.84679 -62.23613 
L 147.445707 -62.23613 
L 148.044624 -62.23613 
L 148.643541 -62.23613 
L 149.242458 -62.23613 
L 149.841375 -62.23613 
L 150.440293 -62.23613 
L 151.03921 -62.23613 
L 151.638127 -62.23613 
L 152.237044 -62.23613 
L 152.835961 -62.23613 
L 153.434878 -62.23613 
L 154.033795 -62.23613 
L 154.632712 -62.23613 
L 155.231629 -62.23613 
L 155.830546 -62.23613 
L 156.429464 -62.23613 
L 157.028381 -62.23613 
L 157.627298 -62.23613 
L 158.226215 -62.23613 
L 158.825132 -62.23613 
L 159.424049 -62.23613 
L 160.022966 -62.23613 
L 160.621883 -62.23613 
L 161.2208 -62.23613 
L 161.819717 -62.23613 
L 162.418635 -62.23613 
L 163.017552 -62.23613 
L 163.616469 -62.23613 
L 164.215386 -62.23613 
L 164.814303 -62.23613 
L 165.41322 -62.23613 
L 166.012137 -62.23613 
L 166.611054 -62.23613 
L 167.209971 -62.23613 
L 167.808888 -62.23613 
L 168.407806 -62.23613 
L 169.006723 -62.23613 
L 169.60564 -62.23613 
L 170.204557 -62.23613 
L 170.803474 -62.23613 
L 171.402391 -62.23613 
L 172.001308 -62.23613 
L 172.600225 -62.23613 
L 173.199142 -62.23613 
L 173.798059 -62.23613 
L 174.396977 -62.23613 
L 174.995894 -62.23613 
L 175.594811 -62.23613 
L 176.193728 -62.23613 
L 176.792645 -62.23613 
L 177.391562 -62.23613 
L 177.990479 -62.23613 
L 178.589396 -62.23613 
L 179.188313 -62.23613 
L 179.78723 -62.23613 
L 180.386148 -62.23613 
L 180.985065 -62.23613 
L 181.583982 -62.23613 
L 182.182899 -62.23613 
L 182.781816 -62.23613 
L 183.380733 -62.23613 
L 183.97965 -62.23613 
L 184.578567 -62.23613 
L 185.177484 -62.23613 
L 185.776401 -62.23613 
L 186.375319 -62.23613 
L 186.974236 -62.23613 
L 187.573153 -62.23613 
L 188.17207 -62.23613 
L 188.770987 -62.23613 
L 189.369904 -62.23613 
L 189.968821 -62.23613 
L 190.567738 -62.23613 
L 191.166655 -62.23613 
L 191.765572 -62.23613 
L 192.364489 -62.23613 
L 192.963407 -62.23613 
L 193.562324 -62.23613 
L 194.161241 -62.23613 
L 194.760158 -62.23613 
L 195.359075 -62.23613 
L 195.957992 -62.23613 
L 196.556909 -62.23613 
L 197.155826 -62.23613 
L 197.754743 -62.23613 
L 198.35366 -62.23613 
L 198.952578 -62.23613 
L 199.551495 -62.23613 
L 200.150412 -62.23613 
L 200.749329 -62.23613 
L 201.348246 -62.23613 
L 201.947163 -62.23613 
L 202.54608 -62.23613 
L 203.144997 -62.23613 
L 203.743914 -62.23613 
L 204.342831 -62.23613 
L 204.941749 -62.23613 
L 205.540666 -62.23613 
L 206.139583 -62.23613 
L 206.7385 -62.23613 
L 207.337417 -62.23613 
L 207.936334 -62.23613 
L 208.535251 -62.23613 
L 209.134168 -62.23613 
L 209.733085 -62.23613 
L 210.332002 -62.23613 
L 210.93092 -62.23613 
L 211.529837 -62.23613 
L 212.128754 -62.23613 
L 212.727671 -62.23613 
L 213.326588 -62.23613 
L 213.925505 -62.23613 
L 214.524422 -62.23613 
L 215.123339 -62.23613 
L 215.722256 -62.23613 
L 216.321173 -62.23613 
L 216.920091 -62.23613 
L 217.519008 -62.23613 
L 218.117925 -62.23613 
L 218.716842 -62.23613 
L 219.315759 -62.23613 
L 219.914676 -62.23613 
L 220.513593 -62.23613 
L 221.11251 -62.23613 
L 221.711427 -62.23613 
L 222.310344 -62.23613 
L 222.909262 -62.23613 
L 223.508179 -62.23613 
L 224.107096 -62.23613 
L 224.706013 -62.23613 
L 225.30493 -62.23613 
L 225.903847 -62.23613 
L 226.502764 -62.23613 
L 227.101681 -62.23613 
L 227.700598 -62.23613 
L 228.299515 -62.23613 
L 228.898433 -62.23613 
L 229.49735 -62.23613 
L 230.096267 -62.23613 
L 230.695184 -62.23613 
L 231.294101 -62.23613 
L 231.893018 -62.23613 
L 232.491935 -62.23613 
L 233.090852 -62.23613 
L 233.689769 -62.23613 
L 234.288686 -62.23613 
L 234.887604 -62.23613 
L 235.486521 -62.23613 
L 236.085438 -62.23613 
L 236.684355 -62.23613 
L 237.283272 -62.23613 
L 237.882189 -62.23613 
L 238.481106 -62.23613 
L 239.080023 -62.23613 
L 239.67894 -62.23613 
L 240.277857 -62.23613 
L 240.876775 -62.23613 
L 241.475692 -62.23613 
L 242.074609 -62.23613 
L 242.673526 -62.23613 
L 243.272443 -62.23613 
L 243.87136 -62.23613 
L 244.470277 -62.23613 
L 245.069194 -62.23613 
L 245.668111 -62.23613 
L 246.267028 -62.23613 
L 246.865945 -62.23613 
L 247.464863 -62.23613 
L 248.06378 -62.23613 
L 248.662697 -62.23613 
L 249.261614 -62.23613 
L 249.860531 -62.23613 
L 250.459448 -62.23613 
L 251.058365 -62.23613 
L 251.657282 -62.23613 
L 252.256199 -62.23613 
L 252.855116 -62.23613 
L 253.454034 -62.23613 
L 254.052951 -62.23613 
L 254.651868 -62.23613 
L 255.250785 -62.23613 
L 255.849702 -62.23613 
L 256.448619 -62.23613 
L 257.047536 -62.23613 
L 257.646453 -62.23613 
L 258.24537 -62.23613 
L 258.844287 -62.23613 
L 259.443205 -62.23613 
L 260.042122 -62.23613 
L 260.641039 -62.23613 
L 261.239956 -62.23613 
L 261.838873 -62.23613 
L 262.43779 -62.23613 
L 263.036707 -62.23613 
L 263.635624 -62.23613 
L 264.234541 -62.23613 
L 264.833458 -62.23613 
L 265.432376 -62.23613 
L 266.031293 -62.23613 
L 266.63021 -62.23613 
L 267.229127 -62.23613 
L 267.828044 -62.23613 
L 268.426961 -62.23613 
L 269.025878 -62.23613 
L 269.624795 -62.23613 
L 270.223712 -62.23613 
L 270.822629 -62.23613 
L 271.421547 -62.23613 
L 272.020464 -62.23613 
L 272.619381 -62.23613 
L 273.218298 -62.23613 
L 273.817215 -62.23613 
L 274.416132 -62.23613 
L 275.015049 -62.23613 
L 275.613966 -62.23613 
L 276.212883 -62.23613 
L 276.8118 -62.23613 
L 277.410718 -62.23613 
L 278.009635 -62.23613 
L 278.608552 -62.23613 
L 279.207469 -62.23613 
L 279.806386 -62.23613 
L 280.405303 -62.23613 
L 281.00422 -62.23613 
L 281.603137 -62.23613 
L 282.202054 -62.23613 
L 282.800971 -62.23613 
L 283.399889 -62.23613 
L 283.998806 -62.23613 
L 284.597723 -62.23613 
L 285.19664 -62.23613 
L 285.795557 -62.23613 
L 286.394474 -62.23613 
L 286.993391 -62.23613 
L 287.592308 -62.23613 
L 288.191225 -62.23613 
L 288.790142 -62.23613 
L 289.38906 -62.23613 
L 289.987977 -62.23613 
L 290.586894 -62.23613 
L 291.185811 -62.23613 
L 291.784728 -62.23613 
L 292.383645 -62.23613 
L 292.982562 -62.23613 
L 293.581479 -62.23613 
L 294.180396 -62.23613 
L 294.779313 -62.23613 
L 295.378231 -62.23613 
L 295.977148 -62.23613 
L 296.576065 -62.23613 
L 297.174982 -62.23613 
L 297.773899 -62.23613 
L 298.372816 -62.23613 
L 298.971733 -62.23613 
L 299.57065 -62.23613 
L 300.169567 -62.23613 
L 300.768484 -62.23613 
L 301.367401 -62.23613 
L 301.966319 -62.23613 
L 302.565236 -62.23613 
L 303.164153 -62.23613 
L 303.76307 -62.23613 
L 304.361987 -62.23613 
L 304.960904 -62.23613 
L 305.559821 -62.23613 
L 306.158738 -62.23613 
L 306.757655 -62.23613 
L 307.356572 -62.23613 
L 307.95549 -62.23613 
L 308.554407 -62.23613 
L 309.153324 -62.23613 
L 309.752241 -62.23613 
L 310.351158 -62.23613 
L 310.950075 -62.23613 
L 311.548992 -62.23613 
L 312.147909 -62.23613 
L 312.746826 -62.23613 
L 313.345743 -62.23613 
L 313.944661 -62.23613 
L 314.543578 -62.23613 
L 315.142495 -62.23613 
L 315.741412 -62.23613 
L 316.340329 -62.23613 
L 316.939246 -62.23613 
L 317.538163 -62.23613 
L 318.13708 -62.23613 
L 318.735997 -62.23613 
L 319.334914 -62.23613 
L 319.933832 -62.23613 
L 320.532749 -62.23613 
L 321.131666 -62.23613 
L 321.730583 -62.23613 
L 322.3295 -62.23613 
L 322.928417 -62.23613 
L 323.527334 -62.23613 
L 324.126251 -62.23613 
L 324.725168 -62.23613 
L 325.324085 -62.23613 
L 325.923003 -62.23613 
L 326.52192 -62.23613 
L 327.120837 -62.23613 
L 327.719754 -62.23613 
L 328.318671 -62.23613 
L 328.917588 -62.23613 
L 329.516505 -62.23613 
L 330.115422 -62.23613 
L 330.714339 -62.23613 
L 331.313256 -62.23613 
L 331.912174 -62.23613 
L 332.511091 -62.23613 
L 333.110008 -62.23613 
L 333.708925 -62.23613 
L 334.307842 -62.23613 
L 334.906759 -62.23613 
L 335.505676 -62.23613 
L 336.104593 -62.23613 
L 336.70351 -62.23613 
L 337.302427 -62.23613 
L 337.901345 -62.23613 
L 338.500262 -62.23613 
L 339.099179 -62.23613 
L 339.698096 -62.23613 
L 340.297013 -62.23613 
L 340.89593 -62.23613 
L 341.494847 -62.23613 
L 342.093764 -62.23613 
L 342.692681 -62.23613 
L 343.291598 -62.23613 
L 343.890516 -62.23613 
L 344.489433 -62.23613 
L 345.08835 -62.23613 
L 345.687267 -62.23613 
L 346.286184 -62.23613 
L 346.885101 -62.23613 
L 347.484018 -62.23613 
L 348.082935 -62.23613 
L 348.681852 -62.23613 
L 349.280769 -62.23613 
L 349.879687 -62.23613 
L 350.478604 -62.23613 
L 351.077521 -62.23613 
L 351.676438 -62.23613 
L 352.275355 -62.23613 
L 352.874272 -62.23613 
L 353.473189 -62.23613 
L 354.072106 -62.23613 
L 354.671023 -62.23613 
L 355.26994 -62.23613 
L 355.868857 -62.23613 
L 356.467775 -62.23613 
L 357.066692 -62.23613 
L 357.665609 -62.23613 
L 358.264526 -62.23613 
L 358.863443 -62.23613 
L 359.46236 -62.23613 
L 360.061277 -62.23613 
L 360.660194 -62.23613 
L 361.259111 -62.23613 
L 361.858028 -62.23613 
L 362.456946 -62.23613 
L 363.055863 -62.23613 
L 363.65478 -62.23613 
L 364.253697 -62.23613 
L 364.852614 -62.23613 
L 365.451531 -62.23613 
L 366.050448 -62.23613 
L 366.649365 -62.23613 
L 367.248282 -62.23613 
L 367.847199 -62.23613 
L 368.446117 -62.23613 
L 369.045034 -62.23613 
L 369.643951 -62.23613 
L 370.242868 -62.23613 
L 370.841785 -62.23613 
L 371.440702 -62.23613 
L 372.039619 -62.23613 
L 372.638536 -62.23613 
L 373.237453 -62.23613 
L 373.83637 -62.23613 
L 374.435288 -62.23613 
L 375.034205 -62.23613 
L 375.633122 -62.23613 
L 376.232039 -62.23613 
L 376.830956 -62.23613 
L 377.429873 -62.23613 
L 378.02879 -62.23613 
L 378.627707 -62.23613 
L 379.226624 -62.23613 
L 379.825541 -62.23613 
L 380.424459 -62.23613 
L 381.023376 -62.23613 
L 381.622293 -62.23613 
L 382.22121 -62.23613 
L 382.820127 -62.23613 
L 383.419044 -62.23613 
L 384.017961 -62.23613 
L 384.616878 -62.23613 
L 385.215795 -62.23613 
L 385.814712 -62.23613 
L 386.41363 -62.23613 
L 387.012547 -62.23613 
L 387.611464 -62.23613 
L 388.210381 -62.23613 
L 388.809298 -62.23613 
L 389.408215 -62.23613 
L 390.007132 -62.23613 
L 390.606049 -62.23613 
L 391.204966 -62.23613 
L 391.803883 -62.23613 
L 392.402801 -62.23613 
L 393.001718 -62.23613 
L 393.600635 -62.23613 
L 394.199552 -62.23613 
L 394.798469 -62.23613 
L 395.397386 -62.23613 
L 395.996303 -62.23613 
L 396.59522 -62.23613 
L 397.194137 -62.23613 
L 397.793054 -62.23613 
L 398.391972 -62.23613 
L 398.990889 -62.23613 
L 399.589806 -62.23613 
L 400.188723 -62.23613 
L 400.78764 -62.23613 
L 401.386557 -62.23613 
L 401.985474 -62.23613 
L 402.584391 -62.23613 
L 403.183308 -62.23613 
L 403.782225 -62.23613 
L 404.381143 -62.23613 
L 404.98006 -62.23613 
L 405.578977 -62.23613 
L 406.177894 -62.23613 
L 406.776811 -62.23613 
L 407.375728 -62.23613 
L 407.974645 -62.23613 
L 408.573562 -62.23613 
L 409.172479 -62.23613 
L 409.771396 -62.23613 
L 410.370313 -62.23613 
L 410.969231 -62.23613 
L 411.568148 -62.23613 
L 412.167065 -62.23613 
L 412.765982 -62.23613 
L 413.364899 -62.23613 
L 413.963816 -62.23613 
L 414.562733 -62.23613 
L 415.16165 -62.23613 
L 415.760567 -62.23613 
L 416.359484 -62.23613 
L 416.958402 -62.23613 
L 417.557319 -62.23613 
L 418.156236 -62.23613 
L 418.755153 -62.23613 
L 419.35407 -62.23613 
L 419.952987 -62.23613 
L 420.551904 -62.23613 
L 421.150821 -62.23613 
L 421.749738 -62.23613 
L 422.348655 -62.23613 
L 422.947573 -62.23613 
L 423.54649 -62.23613 
L 424.145407 -62.23613 
L 424.744324 -62.23613 
L 425.343241 -62.23613 
L 425.942158 -62.23613 
L 426.541075 -62.23613 
L 427.139992 -62.23613 
L 427.738909 -62.23613 
L 428.337826 -62.23613 
L 428.936744 -62.23613 
L 429.535661 -62.23613 
L 430.134578 -62.23613 
L 430.733495 -62.23613 
L 431.332412 -62.23613 
L 431.931329 -62.23613 
L 432.530246 -62.23613 
L 433.129163 -62.23613 
L 433.72808 -62.23613 
L 434.326997 -62.23613 
L 434.925915 -62.23613 
L 435.524832 -62.23613 
L 436.123749 -62.23613 
L 436.722666 -62.23613 
L 437.321583 -62.23613 
L 437.9205 -62.23613 
L 438.519417 -62.23613 
L 439.118334 -62.23613 
L 439.717251 -62.23613 
L 440.316168 -62.23613 
L 440.915086 -62.23613 
L 441.514003 -62.23613 
L 442.11292 -62.23613 
L 442.711837 -62.23613 
L 443.310754 -62.23613 
L 443.909671 -62.23613 
L 444.508588 -62.23613 
L 445.107505 -62.23613 
L 445.706422 -62.23613 
L 446.305339 -62.23613 
L 446.904257 -62.23613 
L 447.503174 -62.23613 
L 448.102091 -62.23613 
L 448.701008 -62.23613 
L 449.299925 -62.23613 
L 449.898842 -62.23613 
L 450.497759 -62.23613 
L 451.096676 -62.23613 
L 451.695593 -62.23613 
L 452.29451 -62.23613 
L 452.893428 -62.23613 
L 453.492345 -62.23613 
L 454.091262 -62.23613 
L 454.690179 -62.23613 
L 455.289096 -62.23613 
L 455.888013 -62.23613 
L 456.48693 -62.23613 
L 457.085847 -62.23613 
L 457.684764 -62.23613 
L 458.283681 -62.23613 
L 458.882599 -62.23613 
L 459.481516 -62.23613 
L 460.080433 -62.23613 
L 460.67935 -62.23613 
L 461.278267 -62.23613 
L 461.877184 -62.23613 
L 462.476101 -62.23613 
L 463.075018 -62.23613 
L 463.673935 -62.23613 
L 464.272852 -62.23613 
L 464.871769 -62.23613 
L 465.470687 -62.23613 
L 466.069604 -62.23613 
L 466.668521 -62.23613 
L 467.267438 -62.23613 
L 467.866355 -62.23613 
L 468.465272 -62.23613 
L 469.064189 -62.23613 
L 469.663106 -62.23613 
L 470.262023 -62.23613 
L 470.86094 -62.23613 
L 471.459858 -62.23613 
L 472.058775 -62.23613 
L 472.657692 -62.23613 
L 473.256609 -62.23613 
L 473.855526 -62.23613 
L 474.454443 -62.23613 
L 475.05336 -62.23613 
L 475.652277 -62.23613 
L 476.251194 -62.23613 
L 476.850111 -62.23613 
L 477.449029 -62.23613 
L 478.047946 -62.23613 
L 478.646863 -62.23613 
L 479.24578 -62.23613 
L 479.844697 -62.23613 
L 480.443614 -62.23613 
L 481.042531 -62.23613 
L 481.641448 -62.23613 
L 482.240365 -62.23613 
L 482.839282 -62.23613 
L 483.4382 -62.23613 
L 484.037117 -62.23613 
L 484.636034 -62.23613 
L 485.234951 -62.23613 
L 485.833868 -62.23613 
L 486.432785 -62.23613 
L 487.031702 -62.23613 
L 487.630619 -62.23613 
L 488.229536 -62.23613 
L 488.828453 -62.23613 
L 489.427371 -62.23613 
L 490.026288 -62.23613 
L 490.625205 -62.23613 
L 491.224122 -62.23613 
L 491.823039 -62.23613 
L 492.421956 -62.23613 
L 493.020873 -62.23613 
L 493.61979 -62.23613 
L 494.218707 -62.23613 
L 494.817624 -62.23613 
L 495.416542 -62.23613 
L 496.015459 -62.23613 
L 496.614376 -62.23613 
L 497.213293 -62.23613 
L 497.81221 -62.23613 
L 498.411127 -62.23613 
L 499.010044 -62.23613 
L 499.608961 -62.23613 
L 500.207878 -62.23613 
L 500.806795 -62.23613 
L 501.405713 -62.23613 
L 502.00463 -62.23613 
L 502.603547 -62.23613 
L 503.202464 -62.23613 
L 503.801381 -62.23613 
L 504.400298 -62.23613 
L 504.999215 -62.23613 
L 505.598132 -62.23613 
L 506.197049 -62.23613 
L 506.795966 -62.23613 
L 507.394884 -62.23613 
L 507.993801 -62.23613 
L 508.592718 -62.23613 
L 509.191635 -62.23613 
L 509.790552 -62.23613 
L 510.389469 -62.23613 
L 510.988386 -62.23613 
L 511.587303 -62.23613 
L 512.18622 -62.23613 
L 512.785137 -62.23613 
L 513.384055 -62.23613 
L 513.982972 -62.23613 
L 514.581889 -62.23613 
L 515.180806 -62.23613 
L 515.779723 -62.23613 
L 516.37864 -62.23613 
L 516.977557 -62.23613 
L 517.576474 -62.23613 
L 518.175391 -62.23613 
L 518.774308 -62.23613 
L 519.373225 -62.23613 
L 519.972143 -62.23613 
L 520.57106 -62.23613 
L 521.169977 -62.23613 
L 521.768894 -62.23613 
L 522.367811 -62.23613 
L 522.966728 -62.23613 
L 523.565645 -62.23613 
L 524.164562 -62.23613 
L 524.763479 -62.23613 
L 525.362396 -62.23613 
L 525.961314 -62.23613 
L 526.560231 -62.23613 
L 527.159148 -62.23613 
L 527.758065 -62.23613 
L 528.356982 -62.23613 
L 528.955899 -62.23613 
L 529.554816 -62.23613 
L 530.153733 -62.23613 
L 530.75265 -62.23613 
L 531.351567 -62.23613 
L 531.950485 -62.23613 
L 532.549402 -62.23613 
L 533.148319 -62.23613 
L 533.747236 -62.23613 
L 534.346153 -62.23613 
L 534.94507 -62.23613 
L 535.543987 -62.23613 
L 536.142904 -62.23613 
L 536.741821 -62.23613 
L 537.340738 -62.23613 
L 537.939656 -62.23613 
L 538.538573 -62.23613 
L 539.13749 -62.23613 
L 539.736407 -62.23613 
L 540.335324 -62.23613 
L 540.934241 -62.23613 
L 541.533158 -62.23613 
L 542.132075 -62.23613 
L 542.730992 -62.23613 
L 543.329909 -62.23613 
L 543.928827 -62.23613 
L 544.527744 -62.23613 
L 545.126661 -62.23613 
L 545.725578 -62.23613 
L 546.324495 -62.23613 
L 546.923412 -62.23613 
L 547.522329 -62.23613 
L 548.121246 -62.23613 
L 548.720163 -62.23613 
L 549.31908 -62.23613 
L 549.917998 -62.23613 
L 550.516915 -62.23613 
L 551.115832 -62.23613 
L 551.714749 -62.23613 
L 552.313666 -62.23613 
L 552.912583 -62.23613 
L 553.5115 -62.23613 
L 554.110417 -62.23613 
L 554.709334 -62.23613 
L 555.308251 -62.23613 
L 555.907169 -62.23613 
L 556.506086 -62.23613 
L 557.105003 -62.23613 
L 557.70392 -62.23613 
L 558.302837 -62.23613 
L 558.901754 -62.23613 
L 559.500671 -62.23613 
L 560.099588 -62.23613 
L 560.698505 -62.23613 
L 561.297422 -62.23613 
L 561.89634 -62.23613 
L 562.495257 -62.23613 
L 563.094174 -62.23613 
L 563.693091 -62.23613 
L 564.292008 -62.23613 
L 564.890925 -62.23613 
L 565.489842 -62.23613 
L 566.088759 -62.23613 
L 566.687676 -62.23613 
L 567.286593 -62.23613 
L 567.885511 -62.23613 
L 568.484428 -62.23613 
L 569.083345 -62.23613 
L 569.682262 -62.23613 
L 570.281179 -62.23613 
L 570.880096 -62.23613 
L 571.479013 -62.23613 
L 572.07793 -62.23613 
L 572.676847 -62.23613 
L 573.275764 -62.23613 
L 573.874681 -62.23613 
L 574.473599 -62.23613 
L 575.072516 -62.23613 
L 575.671433 -62.23613 
L 576.27035 -62.23613 
L 576.869267 -62.23613 
L 577.468184 -62.23613 
L 578.067101 -62.23613 
L 578.666018 -62.23613 
L 579.264935 -62.23613 
L 579.863852 -62.23613 
L 580.46277 -62.23613 
L 581.061687 -62.23613 
L 581.660604 -62.23613 
L 582.259521 -62.23613 
L 582.858438 -62.23613 
L 583.457355 -62.23613 
L 584.056272 -62.23613 
L 584.655189 -62.23613 
L 585.254106 -62.23613 
L 585.853023 -62.23613 
L 586.451941 -62.23613 
L 587.050858 -62.23613 
L 587.649775 -62.23613 
L 588.248692 -62.23613 
L 588.847609 -62.23613 
L 589.446526 -62.23613 
L 590.045443 -62.23613 
L 590.64436 -62.23613 
L 591.243277 -62.23613 
L 591.842194 -62.23613 
L 592.441112 -62.23613 
L 593.040029 -62.23613 
L 593.638946 -62.23613 
L 594.237863 -62.23613 
L 594.83678 -62.23613 
L 595.435697 -62.23613 
L 596.034614 -62.23613 
L 596.633531 -62.23613 
L 597.232448 -62.23613 
L 597.831365 -62.23613 
L 598.430283 -62.23613 
L 599.0292 -62.23613 
L 599.628117 -62.23613 
L 600.227034 -62.23613 
L 600.825951 -62.23613 
L 601.424868 -62.23613 
L 602.023785 -62.23613 
L 602.622702 -62.23613 
L 603.221619 -62.23613 
L 603.820536 -62.23613 
L 604.419454 -62.23613 
L 605.018371 -62.23613 
L 605.617288 -62.23613 
L 606.216205 -62.23613 
L 606.815122 -62.23613 
L 607.414039 -62.23613 
L 608.012956 -62.23613 
L 608.611873 -62.23613 
L 609.21079 -62.23613 
L 609.809707 -62.23613 
L 610.408625 -62.23613 
L 611.007542 -62.23613 
L 611.606459 -62.23613 
L 612.205376 -62.23613 
L 612.804293 -62.23613 
L 613.40321 -62.23613 
L 614.002127 -62.23613 
L 614.601044 -62.23613 
L 615.199961 -62.23613 
L 615.798878 -62.23613 
L 616.397796 -62.23613 
L 616.996713 -62.23613 
L 617.59563 -62.23613 
L 618.194547 -62.23613 
L 618.793464 -62.23613 
L 619.392381 -62.23613 
L 619.991298 -62.23613 
L 620.590215 -62.23613 
L 621.189132 -62.23613 
L 621.788049 -62.23613 
L 622.386967 -62.23613 
L 622.985884 -62.23613 
L 623.584801 -62.23613 
L 624.183718 -62.23613 
L 624.782635 -62.23613 
L 625.381552 -62.23613 
L 625.980469 -62.23613 
L 626.579386 -62.23613 
L 627.178303 -62.23613 
L 627.77722 -62.23613 
L 628.376138 -62.23613 
L 628.975055 -62.23613 
L 629.573972 -62.23613 
L 630.172889 -62.23613 
L 630.771806 -62.23613 
L 631.370723 -62.23613 
L 631.96964 -62.23613 
L 632.568557 -62.23613 
L 633.167474 -62.23613 
L 633.766391 -62.23613 
L 634.365308 -62.23613 
L 634.964226 -62.23613 
L 635.563143 -62.23613 
L 636.16206 -62.23613 
L 636.760977 -62.23613 
L 637.359894 -62.23613 
L 637.958811 -62.23613 
L 638.557728 -62.23613 
L 639.156645 -62.23613 
L 639.755562 -62.23613 
L 640.354479 -62.23613 
L 640.953397 -62.23613 
L 641.552314 -62.23613 
L 642.151231 -62.23613 
L 642.750148 -62.23613 
L 643.349065 -62.23613 
L 643.947982 -62.23613 
L 644.546899 -62.23613 
L 645.145816 -62.23613 
L 645.744733 -62.23613 
L 646.34365 -62.23613 
L 646.942568 -62.23613 
L 647.541485 -62.23613 
L 648.140402 -62.23613 
L 648.739319 -62.23613 
L 649.338236 -62.23613 
L 649.937153 -62.23613 
L 650.53607 -62.23613 
L 651.134987 -62.23613 
L 651.733904 -62.23613 
L 652.332821 -62.23613 
L 652.931739 -62.23613 
L 653.530656 -62.23613 
L 654.129573 -62.23613 
L 654.72849 -62.23613 
L 655.327407 -62.23613 
L 655.926324 -62.23613 
L 656.525241 -62.23613 
L 657.124158 -62.23613 
L 657.723075 -62.23613 
L 658.321992 -62.23613 
L 658.92091 -62.23613 
L 659.519827 -62.23613 
L 660.118744 -62.23613 
L 660.717661 -62.23613 
L 661.316578 -62.23613 
L 661.915495 -62.23613 
L 662.514412 -62.23613 
L 663.113329 -62.23613 
L 663.712246 -62.23613 
L 664.311163 -62.23613 
L 664.910081 -62.23613 
L 665.508998 -62.23613 
L 666.107915 -62.23613 
L 666.706832 -62.23613 
L 667.305749 -62.23613 
L 667.904666 -62.23613 
L 668.503583 -62.23613 
L 669.1025 -62.23613 
L 669.701417 -62.23613 
L 670.300334 -62.23613 
L 670.899252 -62.23613 
L 671.498169 -62.23613 
L 672.097086 -62.23613 
L 672.696003 -62.23613 
L 673.29492 -62.23613 
L 673.893837 -62.23613 
L 674.492754 -62.23613 
L 675.091671 -62.23613 
L 675.690588 -62.23613 
L 676.289505 -62.23613 
L 676.888423 -62.23613 
L 677.48734 -62.23613 
L 678.086257 -62.23613 
L 678.685174 -62.23613 
L 679.284091 -62.23613 
L 679.284091 -373.32196 
L 679.284091 -373.32196 
L 678.685174 -373.32196 
L 678.086257 -373.32196 
L 677.48734 -373.32196 
L 676.888423 -373.32196 
L 676.289505 -373.32196 
L 675.690588 -373.32196 
L 675.091671 -373.32196 
L 674.492754 -373.32196 
L 673.893837 -373.32196 
L 673.29492 -373.32196 
L 672.696003 -373.32196 
L 672.097086 -373.32196 
L 671.498169 -373.32196 
L 670.899252 -373.32196 
L 670.300334 -373.32196 
L 669.701417 -373.32196 
L 669.1025 -373.32196 
L 668.503583 -373.32196 
L 667.904666 -373.32196 
L 667.305749 -373.32196 
L 666.706832 -373.32196 
L 666.107915 -373.32196 
L 665.508998 -373.32196 
L 664.910081 -373.32196 
L 664.311163 -373.32196 
L 663.712246 -373.32196 
L 663.113329 -373.32196 
L 662.514412 -373.32196 
L 661.915495 -373.32196 
L 661.316578 -373.32196 
L 660.717661 -373.32196 
L 660.118744 -373.32196 
L 659.519827 -373.32196 
L 658.92091 -373.32196 
L 658.321992 -373.32196 
L 657.723075 -373.32196 
L 657.124158 -373.32196 
L 656.525241 -373.32196 
L 655.926324 -373.32196 
L 655.327407 -373.32196 
L 654.72849 -373.32196 
L 654.129573 -373.32196 
L 653.530656 -373.32196 
L 652.931739 -373.32196 
L 652.332821 -373.32196 
L 651.733904 -373.32196 
L 651.134987 -373.32196 
L 650.53607 -373.32196 
L 649.937153 -373.32196 
L 649.338236 -373.32196 
L 648.739319 -373.32196 
L 648.140402 -373.32196 
L 647.541485 -373.32196 
L 646.942568 -373.32196 
L 646.34365 -373.32196 
L 645.744733 -373.32196 
L 645.145816 -373.32196 
L 644.546899 -373.32196 
L 643.947982 -373.32196 
L 643.349065 -373.32196 
L 642.750148 -373.32196 
L 642.151231 -373.32196 
L 641.552314 -373.32196 
L 640.953397 -373.32196 
L 640.354479 -373.32196 
L 639.755562 -373.32196 
L 639.156645 -373.32196 
L 638.557728 -373.32196 
L 637.958811 -373.32196 
L 637.359894 -373.32196 
L 636.760977 -373.32196 
L 636.16206 -373.32196 
L 635.563143 -373.32196 
L 634.964226 -373.32196 
L 634.365308 -373.32196 
L 633.766391 -373.32196 
L 633.167474 -373.32196 
L 632.568557 -373.32196 
L 631.96964 -373.32196 
L 631.370723 -373.32196 
L 630.771806 -373.32196 
L 630.172889 -373.32196 
L 629.573972 -373.32196 
L 628.975055 -373.32196 
L 628.376138 -373.32196 
L 627.77722 -373.32196 
L 627.178303 -373.32196 
L 626.579386 -373.32196 
L 625.980469 -373.32196 
L 625.381552 -373.32196 
L 624.782635 -373.32196 
L 624.183718 -373.32196 
L 623.584801 -373.32196 
L 622.985884 -373.32196 
L 622.386967 -373.32196 
L 621.788049 -373.32196 
L 621.189132 -373.32196 
L 620.590215 -373.32196 
L 619.991298 -373.32196 
L 619.392381 -373.32196 
L 618.793464 -373.32196 
L 618.194547 -373.32196 
L 617.59563 -373.32196 
L 616.996713 -373.32196 
L 616.397796 -373.32196 
L 615.798878 -373.32196 
L 615.199961 -373.32196 
L 614.601044 -373.32196 
L 614.002127 -373.32196 
L 613.40321 -373.32196 
L 612.804293 -373.32196 
L 612.205376 -373.32196 
L 611.606459 -373.32196 
L 611.007542 -373.32196 
L 610.408625 -373.32196 
L 609.809707 -373.32196 
L 609.21079 -373.32196 
L 608.611873 -373.32196 
L 608.012956 -373.32196 
L 607.414039 -373.32196 
L 606.815122 -373.32196 
L 606.216205 -373.32196 
L 605.617288 -373.32196 
L 605.018371 -373.32196 
L 604.419454 -373.32196 
L 603.820536 -373.32196 
L 603.221619 -373.32196 
L 602.622702 -373.32196 
L 602.023785 -373.32196 
L 601.424868 -373.32196 
L 600.825951 -373.32196 
L 600.227034 -373.32196 
L 599.628117 -373.32196 
L 599.0292 -373.32196 
L 598.430283 -373.32196 
L 597.831365 -373.32196 
L 597.232448 -373.32196 
L 596.633531 -373.32196 
L 596.034614 -373.32196 
L 595.435697 -373.32196 
L 594.83678 -373.32196 
L 594.237863 -373.32196 
L 593.638946 -373.32196 
L 593.040029 -373.32196 
L 592.441112 -373.32196 
L 591.842194 -373.32196 
L 591.243277 -373.32196 
L 590.64436 -373.32196 
L 590.045443 -373.32196 
L 589.446526 -373.32196 
L 588.847609 -373.32196 
L 588.248692 -373.32196 
L 587.649775 -373.32196 
L 587.050858 -373.32196 
L 586.451941 -373.32196 
L 585.853023 -373.32196 
L 585.254106 -373.32196 
L 584.655189 -373.32196 
L 584.056272 -373.32196 
L 583.457355 -373.32196 
L 582.858438 -373.32196 
L 582.259521 -373.32196 
L 581.660604 -373.32196 
L 581.061687 -373.32196 
L 580.46277 -373.32196 
L 579.863852 -373.32196 
L 579.264935 -373.32196 
L 578.666018 -373.32196 
L 578.067101 -373.32196 
L 577.468184 -373.32196 
L 576.869267 -373.32196 
L 576.27035 -373.32196 
L 575.671433 -373.32196 
L 575.072516 -373.32196 
L 574.473599 -373.32196 
L 573.874681 -373.32196 
L 573.275764 -373.32196 
L 572.676847 -373.32196 
L 572.07793 -373.32196 
L 571.479013 -373.32196 
L 570.880096 -373.32196 
L 570.281179 -373.32196 
L 569.682262 -373.32196 
L 569.083345 -373.32196 
L 568.484428 -373.32196 
L 567.885511 -373.32196 
L 567.286593 -373.32196 
L 566.687676 -373.32196 
L 566.088759 -373.32196 
L 565.489842 -373.32196 
L 564.890925 -373.32196 
L 564.292008 -373.32196 
L 563.693091 -373.32196 
L 563.094174 -373.32196 
L 562.495257 -373.32196 
L 561.89634 -373.32196 
L 561.297422 -373.32196 
L 560.698505 -373.32196 
L 560.099588 -373.32196 
L 559.500671 -373.32196 
L 558.901754 -373.32196 
L 558.302837 -373.32196 
L 557.70392 -373.32196 
L 557.105003 -373.32196 
L 556.506086 -373.32196 
L 555.907169 -373.32196 
L 555.308251 -373.32196 
L 554.709334 -373.32196 
L 554.110417 -373.32196 
L 553.5115 -373.32196 
L 552.912583 -373.32196 
L 552.313666 -373.32196 
L 551.714749 -373.32196 
L 551.115832 -373.32196 
L 550.516915 -373.32196 
L 549.917998 -373.32196 
L 549.31908 -373.32196 
L 548.720163 -373.32196 
L 548.121246 -373.32196 
L 547.522329 -373.32196 
L 546.923412 -373.32196 
L 546.324495 -373.32196 
L 545.725578 -373.32196 
L 545.126661 -373.32196 
L 544.527744 -373.32196 
L 543.928827 -373.32196 
L 543.329909 -373.32196 
L 542.730992 -373.32196 
L 542.132075 -373.32196 
L 541.533158 -373.32196 
L 540.934241 -373.32196 
L 540.335324 -373.32196 
L 539.736407 -373.32196 
L 539.13749 -373.32196 
L 538.538573 -373.32196 
L 537.939656 -373.32196 
L 537.340738 -373.32196 
L 536.741821 -373.32196 
L 536.142904 -373.32196 
L 535.543987 -373.32196 
L 534.94507 -373.32196 
L 534.346153 -373.32196 
L 533.747236 -373.32196 
L 533.148319 -373.32196 
L 532.549402 -373.32196 
L 531.950485 -373.32196 
L 531.351567 -373.32196 
L 530.75265 -373.32196 
L 530.153733 -373.32196 
L 529.554816 -373.32196 
L 528.955899 -373.32196 
L 528.356982 -373.32196 
L 527.758065 -373.32196 
L 527.159148 -373.32196 
L 526.560231 -373.32196 
L 525.961314 -373.32196 
L 525.362396 -373.32196 
L 524.763479 -373.32196 
L 524.164562 -373.32196 
L 523.565645 -373.32196 
L 522.966728 -373.32196 
L 522.367811 -373.32196 
L 521.768894 -373.32196 
L 521.169977 -373.32196 
L 520.57106 -373.32196 
L 519.972143 -373.32196 
L 519.373225 -373.32196 
L 518.774308 -373.32196 
L 518.175391 -373.32196 
L 517.576474 -373.32196 
L 516.977557 -373.32196 
L 516.37864 -373.32196 
L 515.779723 -373.32196 
L 515.180806 -373.32196 
L 514.581889 -373.32196 
L 513.982972 -373.32196 
L 513.384055 -373.32196 
L 512.785137 -373.32196 
L 512.18622 -373.32196 
L 511.587303 -373.32196 
L 510.988386 -373.32196 
L 510.389469 -373.32196 
L 509.790552 -373.32196 
L 509.191635 -373.32196 
L 508.592718 -373.32196 
L 507.993801 -373.32196 
L 507.394884 -373.32196 
L 506.795966 -373.32196 
L 506.197049 -373.32196 
L 505.598132 -373.32196 
L 504.999215 -373.32196 
L 504.400298 -373.32196 
L 503.801381 -373.32196 
L 503.202464 -373.32196 
L 502.603547 -373.32196 
L 502.00463 -373.32196 
L 501.405713 -373.32196 
L 500.806795 -373.32196 
L 500.207878 -373.32196 
L 499.608961 -373.32196 
L 499.010044 -373.32196 
L 498.411127 -373.32196 
L 497.81221 -373.32196 
L 497.213293 -373.32196 
L 496.614376 -373.32196 
L 496.015459 -373.32196 
L 495.416542 -373.32196 
L 494.817624 -373.32196 
L 494.218707 -373.32196 
L 493.61979 -373.32196 
L 493.020873 -373.32196 
L 492.421956 -373.32196 
L 491.823039 -373.32196 
L 491.224122 -373.32196 
L 490.625205 -373.32196 
L 490.026288 -373.32196 
L 489.427371 -373.32196 
L 488.828453 -373.32196 
L 488.229536 -373.32196 
L 487.630619 -373.32196 
L 487.031702 -373.32196 
L 486.432785 -373.32196 
L 485.833868 -373.32196 
L 485.234951 -373.32196 
L 484.636034 -373.32196 
L 484.037117 -373.32196 
L 483.4382 -373.32196 
L 482.839282 -373.32196 
L 482.240365 -373.32196 
L 481.641448 -373.32196 
L 481.042531 -373.32196 
L 480.443614 -373.32196 
L 479.844697 -373.32196 
L 479.24578 -373.32196 
L 478.646863 -373.32196 
L 478.047946 -373.32196 
L 477.449029 -373.32196 
L 476.850111 -373.32196 
L 476.251194 -373.32196 
L 475.652277 -373.32196 
L 475.05336 -373.32196 
L 474.454443 -373.32196 
L 473.855526 -373.32196 
L 473.256609 -373.32196 
L 472.657692 -373.32196 
L 472.058775 -373.32196 
L 471.459858 -373.32196 
L 470.86094 -373.32196 
L 470.262023 -373.32196 
L 469.663106 -373.32196 
L 469.064189 -373.32196 
L 468.465272 -373.32196 
L 467.866355 -373.32196 
L 467.267438 -373.32196 
L 466.668521 -373.32196 
L 466.069604 -373.32196 
L 465.470687 -373.32196 
L 464.871769 -373.32196 
L 464.272852 -373.32196 
L 463.673935 -373.32196 
L 463.075018 -373.32196 
L 462.476101 -373.32196 
L 461.877184 -373.32196 
L 461.278267 -373.32196 
L 460.67935 -373.32196 
L 460.080433 -373.32196 
L 459.481516 -373.32196 
L 458.882599 -373.32196 
L 458.283681 -373.32196 
L 457.684764 -373.32196 
L 457.085847 -373.32196 
L 456.48693 -373.32196 
L 455.888013 -373.32196 
L 455.289096 -373.32196 
L 454.690179 -373.32196 
L 454.091262 -373.32196 
L 453.492345 -373.32196 
L 452.893428 -373.32196 
L 452.29451 -373.32196 
L 451.695593 -373.32196 
L 451.096676 -373.32196 
L 450.497759 -373.32196 
L 449.898842 -373.32196 
L 449.299925 -373.32196 
L 448.701008 -373.32196 
L 448.102091 -373.32196 
L 447.503174 -373.32196 
L 446.904257 -373.32196 
L 446.305339 -373.32196 
L 445.706422 -373.32196 
L 445.107505 -373.32196 
L 444.508588 -373.32196 
L 443.909671 -373.32196 
L 443.310754 -373.32196 
L 442.711837 -373.32196 
L 442.11292 -373.32196 
L 441.514003 -373.32196 
L 440.915086 -373.32196 
L 440.316168 -373.32196 
L 439.717251 -373.32196 
L 439.118334 -373.32196 
L 438.519417 -373.32196 
L 437.9205 -373.32196 
L 437.321583 -373.32196 
L 436.722666 -373.32196 
L 436.123749 -373.32196 
L 435.524832 -373.32196 
L 434.925915 -373.32196 
L 434.326997 -373.32196 
L 433.72808 -373.32196 
L 433.129163 -373.32196 
L 432.530246 -373.32196 
L 431.931329 -373.32196 
L 431.332412 -373.32196 
L 430.733495 -373.32196 
L 430.134578 -373.32196 
L 429.535661 -373.32196 
L 428.936744 -373.32196 
L 428.337826 -373.32196 
L 427.738909 -373.32196 
L 427.139992 -373.32196 
L 426.541075 -373.32196 
L 425.942158 -373.32196 
L 425.343241 -373.32196 
L 424.744324 -373.32196 
L 424.145407 -373.32196 
L 423.54649 -373.32196 
L 422.947573 -373.32196 
L 422.348655 -373.32196 
L 421.749738 -373.32196 
L 421.150821 -373.32196 
L 420.551904 -373.32196 
L 419.952987 -373.32196 
L 419.35407 -373.32196 
L 418.755153 -373.32196 
L 418.156236 -373.32196 
L 417.557319 -373.32196 
L 416.958402 -373.32196 
L 416.359484 -373.32196 
L 415.760567 -373.32196 
L 415.16165 -373.32196 
L 414.562733 -373.32196 
L 413.963816 -373.32196 
L 413.364899 -373.32196 
L 412.765982 -373.32196 
L 412.167065 -373.32196 
L 411.568148 -373.32196 
L 410.969231 -373.32196 
L 410.370313 -373.32196 
L 409.771396 -373.32196 
L 409.172479 -373.32196 
L 408.573562 -373.32196 
L 407.974645 -373.32196 
L 407.375728 -373.32196 
L 406.776811 -373.32196 
L 406.177894 -373.32196 
L 405.578977 -373.32196 
L 404.98006 -373.32196 
L 404.381143 -373.32196 
L 403.782225 -373.32196 
L 403.183308 -373.32196 
L 402.584391 -373.32196 
L 401.985474 -373.32196 
L 401.386557 -373.32196 
L 400.78764 -373.32196 
L 400.188723 -373.32196 
L 399.589806 -373.32196 
L 398.990889 -373.32196 
L 398.391972 -373.32196 
L 397.793054 -373.32196 
L 397.194137 -373.32196 
L 396.59522 -373.32196 
L 395.996303 -373.32196 
L 395.397386 -373.32196 
L 394.798469 -373.32196 
L 394.199552 -373.32196 
L 393.600635 -373.32196 
L 393.001718 -373.32196 
L 392.402801 -373.32196 
L 391.803883 -373.32196 
L 391.204966 -373.32196 
L 390.606049 -373.32196 
L 390.007132 -373.32196 
L 389.408215 -373.32196 
L 388.809298 -373.32196 
L 388.210381 -373.32196 
L 387.611464 -373.32196 
L 387.012547 -373.32196 
L 386.41363 -373.32196 
L 385.814712 -373.32196 
L 385.215795 -373.32196 
L 384.616878 -373.32196 
L 384.017961 -373.32196 
L 383.419044 -373.32196 
L 382.820127 -373.32196 
L 382.22121 -373.32196 
L 381.622293 -373.32196 
L 381.023376 -373.32196 
L 380.424459 -373.32196 
L 379.825541 -373.32196 
L 379.226624 -373.32196 
L 378.627707 -373.32196 
L 378.02879 -373.32196 
L 377.429873 -373.32196 
L 376.830956 -373.32196 
L 376.232039 -373.32196 
L 375.633122 -373.32196 
L 375.034205 -375.142151 
L 374.435288 -375.173662 
L 373.83637 -375.173662 
L 373.237453 -375.173662 
L 372.638536 -375.173662 
L 372.039619 -375.173662 
L 371.440702 -375.173662 
L 370.841785 -375.173662 
L 370.242868 -375.173662 
L 369.643951 -375.173662 
L 369.045034 -375.173662 
L 368.446117 -375.173662 
L 367.847199 -375.173662 
L 367.248282 -375.173662 
L 366.649365 -375.173662 
L 366.050448 -375.173662 
L 365.451531 -375.173662 
L 364.852614 -375.173662 
L 364.253697 -375.173662 
L 363.65478 -375.173662 
L 363.055863 -375.173662 
L 362.456946 -375.173662 
L 361.858028 -375.173662 
L 361.259111 -375.173662 
L 360.660194 -375.173662 
L 360.061277 -375.173662 
L 359.46236 -375.173662 
L 358.863443 -375.173662 
L 358.264526 -375.173662 
L 357.665609 -375.173662 
L 357.066692 -375.173662 
L 356.467775 -375.173662 
L 355.868857 -375.173662 
L 355.26994 -375.173662 
L 354.671023 -375.173662 
L 354.072106 -375.173662 
L 353.473189 -375.173662 
L 352.874272 -375.173662 
L 352.275355 -375.173662 
L 351.676438 -375.173662 
L 351.077521 -375.173662 
L 350.478604 -375.173662 
L 349.879687 -375.173662 
L 349.280769 -375.173662 
L 348.681852 -375.173662 
L 348.082935 -375.173662 
L 347.484018 -375.173662 
L 346.885101 -375.173662 
L 346.286184 -375.173662 
L 345.687267 -375.173662 
L 345.08835 -375.173662 
L 344.489433 -375.173662 
L 343.890516 -375.173662 
L 343.291598 -375.173662 
L 342.692681 -375.173662 
L 342.093764 -375.173662 
L 341.494847 -375.173662 
L 340.89593 -375.173662 
L 340.297013 -375.173662 
L 339.698096 -375.173662 
L 339.099179 -375.173662 
L 338.500262 -375.173662 
L 337.901345 -375.173662 
L 337.302427 -375.173662 
L 336.70351 -375.173662 
L 336.104593 -375.173662 
L 335.505676 -375.173662 
L 334.906759 -375.173662 
L 334.307842 -375.173662 
L 333.708925 -375.173662 
L 333.110008 -375.173662 
L 332.511091 -375.173662 
L 331.912174 -375.173662 
L 331.313256 -375.173662 
L 330.714339 -375.173662 
L 330.115422 -375.173662 
L 329.516505 -375.173662 
L 328.917588 -375.173662 
L 328.318671 -375.173662 
L 327.719754 -375.173662 
L 327.120837 -375.173662 
L 326.52192 -375.173662 
L 325.923003 -375.173662 
L 325.324085 -375.173662 
L 324.725168 -375.173662 
L 324.126251 -375.173662 
L 323.527334 -375.173662 
L 322.928417 -375.173662 
L 322.3295 -375.173662 
L 321.730583 -375.173662 
L 321.131666 -375.173662 
L 320.532749 -375.173662 
L 319.933832 -375.173662 
L 319.334914 -375.173662 
L 318.735997 -375.173662 
L 318.13708 -375.173662 
L 317.538163 -375.173662 
L 316.939246 -375.173662 
L 316.340329 -375.173662 
L 315.741412 -375.173662 
L 315.142495 -375.173662 
L 314.543578 -375.173662 
L 313.944661 -375.173662 
L 313.345743 -375.173662 
L 312.746826 -375.173662 
L 312.147909 -375.173662 
L 311.548992 -375.173662 
L 310.950075 -375.173662 
L 310.351158 -375.173662 
L 309.752241 -375.173662 
L 309.153324 -375.173662 
L 308.554407 -375.173662 
L 307.95549 -375.173662 
L 307.356572 -375.173662 
L 306.757655 -375.173662 
L 306.158738 -375.173662 
L 305.559821 -375.173662 
L 304.960904 -375.173662 
L 304.361987 -375.173662 
L 303.76307 -375.173662 
L 303.164153 -375.173662 
L 302.565236 -375.173662 
L 301.966319 -375.173662 
L 301.367401 -375.173662 
L 300.768484 -375.173662 
L 300.169567 -375.173662 
L 299.57065 -375.173662 
L 298.971733 -375.173662 
L 298.372816 -375.173662 
L 297.773899 -375.173662 
L 297.174982 -375.173662 
L 296.576065 -375.173662 
L 295.977148 -375.173662 
L 295.378231 -375.173662 
L 294.779313 -375.173662 
L 294.180396 -375.173662 
L 293.581479 -375.173662 
L 292.982562 -375.173662 
L 292.383645 -375.173662 
L 291.784728 -375.173662 
L 291.185811 -375.173662 
L 290.586894 -375.173662 
L 289.987977 -375.173662 
L 289.38906 -375.173662 
L 288.790142 -375.173662 
L 288.191225 -375.173662 
L 287.592308 -375.173662 
L 286.993391 -375.173662 
L 286.394474 -375.173662 
L 285.795557 -375.173662 
L 285.19664 -375.173662 
L 284.597723 -375.173662 
L 283.998806 -375.173662 
L 283.399889 -376.426665 
L 282.800971 -377.025363 
L 282.202054 -377.025363 
L 281.603137 -377.025363 
L 281.00422 -377.025363 
L 280.405303 -377.025363 
L 279.806386 -377.025363 
L 279.207469 -377.025363 
L 278.608552 -377.025363 
L 278.009635 -377.025363 
L 277.410718 -377.025363 
L 276.8118 -377.025363 
L 276.212883 -377.025363 
L 275.613966 -377.025363 
L 275.015049 -377.025363 
L 274.416132 -377.025363 
L 273.817215 -377.025363 
L 273.218298 -377.025363 
L 272.619381 -377.025363 
L 272.020464 -377.025363 
L 271.421547 -377.025363 
L 270.822629 -377.025363 
L 270.223712 -377.025363 
L 269.624795 -377.025363 
L 269.025878 -377.025363 
L 268.426961 -377.025363 
L 267.828044 -377.025363 
L 267.229127 -377.025363 
L 266.63021 -377.025363 
L 266.031293 -377.025363 
L 265.432376 -377.025363 
L 264.833458 -377.025363 
L 264.234541 -377.025363 
L 263.635624 -377.025363 
L 263.036707 -377.025363 
L 262.43779 -377.025363 
L 261.838873 -377.025363 
L 261.239956 -377.025363 
L 260.641039 -377.025363 
L 260.042122 -377.025363 
L 259.443205 -377.025363 
L 258.844287 -377.025363 
L 258.24537 -377.025363 
L 257.646453 -377.025363 
L 257.047536 -377.025363 
L 256.448619 -377.025363 
L 255.849702 -377.025363 
L 255.250785 -377.025363 
L 254.651868 -377.025363 
L 254.052951 -377.025363 
L 253.454034 -377.025363 
L 252.855116 -377.025363 
L 252.256199 -377.025363 
L 251.657282 -377.025363 
L 251.058365 -377.025363 
L 250.459448 -377.025363 
L 249.860531 -377.025363 
L 249.261614 -377.025363 
L 248.662697 -377.025363 
L 248.06378 -377.025363 
L 247.464863 -377.025363 
L 246.865945 -377.025363 
L 246.267028 -377.025363 
L 245.668111 -377.025363 
L 245.069194 -377.025363 
L 244.470277 -377.025363 
L 243.87136 -377.025363 
L 243.272443 -377.025363 
L 242.673526 -377.025363 
L 242.074609 -377.025363 
L 241.475692 -377.025363 
L 240.876775 -377.025363 
L 240.277857 -377.025363 
L 239.67894 -377.025363 
L 239.080023 -377.025363 
L 238.481106 -377.025363 
L 237.882189 -377.025363 
L 237.283272 -377.025363 
L 236.684355 -377.025363 
L 236.085438 -377.025363 
L 235.486521 -377.025363 
L 234.887604 -377.025363 
L 234.288686 -377.025363 
L 233.689769 -377.025363 
L 233.090852 -377.025363 
L 232.491935 -377.025363 
L 231.893018 -377.959555 
L 231.294101 -378.877064 
L 230.695184 -378.877064 
L 230.096267 -378.877064 
L 229.49735 -378.877064 
L 228.898433 -378.877064 
L 228.299515 -378.877064 
L 227.700598 -378.877064 
L 227.101681 -378.877064 
L 226.502764 -378.877064 
L 225.903847 -378.877064 
L 225.30493 -378.877064 
L 224.706013 -378.877064 
L 224.107096 -378.877064 
L 223.508179 -378.877064 
L 222.909262 -378.877064 
L 222.310344 -378.877064 
L 221.711427 -378.877064 
L 221.11251 -378.877064 
L 220.513593 -378.877064 
L 219.914676 -378.877064 
L 219.315759 -378.877064 
L 218.716842 -378.877064 
L 218.117925 -378.877064 
L 217.519008 -378.877064 
L 216.920091 -378.877064 
L 216.321173 -378.877064 
L 215.722256 -378.877064 
L 215.123339 -378.877064 
L 214.524422 -378.877064 
L 213.925505 -378.877064 
L 213.326588 -378.877064 
L 212.727671 -378.877064 
L 212.128754 -378.877064 
L 211.529837 -378.877064 
L 210.93092 -378.877064 
L 210.332002 -378.877064 
L 209.733085 -378.877064 
L 209.134168 -378.877064 
L 208.535251 -378.877064 
L 207.936334 -378.877064 
L 207.337417 -378.877064 
L 206.7385 -378.877064 
L 206.139583 -378.877064 
L 205.540666 -378.877064 
L 204.941749 -378.877064 
L 204.342831 -378.877064 
L 203.743914 -378.877064 
L 203.144997 -378.877064 
L 202.54608 -378.877064 
L 201.947163 -378.877064 
L 201.348246 -378.877064 
L 200.749329 -379.618486 
L 200.150412 -380.728766 
L 199.551495 -380.728766 
L 198.952578 -380.728766 
L 198.35366 -380.728766 
L 197.754743 -380.728766 
L 197.155826 -380.728766 
L 196.556909 -380.728766 
L 195.957992 -380.728766 
L 195.359075 -380.728766 
L 194.760158 -380.728766 
L 194.161241 -380.728766 
L 193.562324 -380.728766 
L 192.963407 -380.728766 
L 192.364489 -380.728766 
L 191.765572 -380.728766 
L 191.166655 -380.728766 
L 190.567738 -380.728766 
L 189.968821 -380.728766 
L 189.369904 -380.728766 
L 188.770987 -380.728766 
L 188.17207 -380.728766 
L 187.573153 -380.728766 
L 186.974236 -380.728766 
L 186.375319 -380.728766 
L 185.776401 -381.37751 
L 185.177484 -382.580467 
L 184.578567 -382.580467 
L 183.97965 -382.580467 
L 183.380733 -382.580467 
L 182.781816 -382.580467 
L 182.182899 -382.580467 
L 181.583982 -382.580467 
L 180.985065 -382.580467 
L 180.386148 -382.580467 
L 179.78723 -382.580467 
L 179.188313 -382.580467 
L 178.589396 -382.580467 
L 177.990479 -382.580467 
L 177.391562 -382.580467 
L 176.792645 -382.580467 
L 176.193728 -382.580467 
L 175.594811 -382.580467 
L 174.995894 -382.580467 
L 174.396977 -382.580467 
L 173.798059 -382.580467 
L 173.199142 -382.580467 
L 172.600225 -382.580467 
L 172.001308 -382.580467 
L 171.402391 -382.580467 
L 170.803474 -383.136534 
L 170.204557 -384.432169 
L 169.60564 -384.432169 
L 169.006723 -384.432169 
L 168.407806 -384.432169 
L 167.808888 -384.432169 
L 167.209971 -384.432169 
L 166.611054 -384.432169 
L 166.012137 -384.432169 
L 165.41322 -384.432169 
L 164.814303 -384.432169 
L 164.215386 -384.432169 
L 163.616469 -384.432169 
L 163.017552 -384.432169 
L 162.418635 -384.432169 
L 161.819717 -384.432169 
L 161.2208 -384.432169 
L 160.621883 -384.432169 
L 160.022966 -384.432169 
L 159.424049 -384.432169 
L 158.825132 -384.432169 
L 158.226215 -384.432169 
L 157.627298 -384.906679 
L 157.028381 -386.28387 
L 156.429464 -386.28387 
L 155.830546 -386.28387 
L 155.231629 -386.28387 
L 154.632712 -386.28387 
L 154.033795 -386.28387 
L 153.434878 -386.28387 
L 152.835961 -386.28387 
L 152.237044 -386.28387 
L 151.638127 -386.28387 
L 151.03921 -386.28387 
L 150.440293 -386.28387 
L 149.841375 -386.28387 
L 149.242458 -386.28387 
L 148.643541 -386.28387 
L 148.044624 -386.699066 
L 147.445707 -388.135571 
L 146.84679 -388.135571 
L 146.247873 -388.135571 
L 145.648956 -388.135571 
L 145.050039 -388.135571 
L 144.451122 -388.135571 
L 143.852204 -388.135571 
L 143.253287 -388.135571 
L 142.65437 -388.135571 
L 142.055453 -388.135571 
L 141.456536 -388.135571 
L 140.857619 -388.506282 
L 140.258702 -389.987273 
L 139.659785 -389.987273 
L 139.060868 -389.987273 
L 138.461951 -389.987273 
L 137.863033 -389.987273 
L 137.264116 -389.987273 
L 136.665199 -389.987273 
L 136.066282 -389.987273 
L 135.467365 -389.987273 
L 134.868448 -389.987273 
L 134.269531 -389.987273 
L 133.670614 -389.987273 
L 133.071697 -389.987273 
L 132.47278 -389.987273 
L 131.873862 -389.987273 
L 131.274945 -389.987273 
L 130.676028 -389.987273 
L 130.077111 -389.987273 
L 129.478194 -389.987273 
L 128.879277 -389.987273 
L 128.28036 -389.987273 
L 127.681443 -389.987273 
L 127.082526 -389.987273 
L 126.483609 -389.987273 
L 125.884692 -389.987273 
L 125.285774 -389.987273 
L 124.686857 -389.987273 
L 124.08794 -389.987273 
L 123.489023 -389.987273 
L 122.890106 -389.727775 
L 122.291189 -388.135571 
L 121.692272 -388.135571 
L 121.093355 -388.135571 
L 120.494438 -388.135571 
L 119.895521 -388.135571 
L 119.296603 -388.135571 
L 118.697686 -388.135571 
L 118.098769 -388.135571 
L 117.499852 -387.909438 
L 116.900935 -386.28387 
L 116.302018 -386.28387 
L 115.703101 -386.28387 
L 115.104184 -386.28387 
L 114.505267 -386.28387 
L 113.90635 -386.079979 
L 113.307432 -384.432169 
L 112.708515 -384.432169 
L 112.109598 -384.432169 
L 111.510681 -384.243106 
L 110.911764 -382.580467 
L 110.312847 -382.580467 
L 109.71393 -382.402526 
L 109.115013 -380.728766 
L 108.516096 -380.728766 
L 107.917179 -380.561946 
L 107.318261 -378.877064 
L 106.719344 -378.717659 
L 106.120427 -376.869665 
L 105.52151 -375.173662 
L 104.922593 -375.025377 
L 104.323676 -373.177383 
L 103.724759 -371.470259 
L 103.125842 -371.333096 
L 102.526925 -369.485102 
L 101.928008 -367.766856 
L 101.32909 -367.514773 
L 100.730173 -364.063454 
L 100.131256 -363.826198 
L 99.532339 -360.24513 
L 98.933422 -358.397136 
L 98.334505 -356.656648 
L 97.735588 -356.44905 
L 97.136671 -352.853153 
L 96.537754 -350.908774 
L 95.938837 -347.305463 
L 95.339919 -345.368499 
L 94.741002 -341.67251 
L 94.142085 -338.058078 
L 93.543168 -336.054385 
L 92.944251 -330.584544 
L 92.345334 -326.888556 
L 91.746417 -323.125839 
L 91.1475 -317.581857 
L 90.548583 -312.037874 
L 89.949666 -306.438284 
L 89.350748 -299.098207 
L 88.751831 -293.506032 
L 88.152914 -286.069569 
L 87.553997 -276.870376 
L 86.95508 -269.404257 
L 86.356163 -258.516475 
L 85.757246 -258.516475 
L 85.158329 -258.516475 
L 84.559412 -258.516475 
L 83.960495 -258.516475 
L 83.361577 -258.516475 
L 82.76266 -258.516475 
L 82.163743 -258.516475 
L 81.564826 -258.516475 
L 80.965909 -258.516475 
z
" style="stroke: #daa520; stroke-opacity: 0.3"/>
    </defs>
    <g clip-path="url(#pdcc4974d75)">
     <use xlink:href="#me6fa92538a" x="0" y="432" style="fill: #daa520; fill-opacity: 0.3; stroke: #daa520; stroke-opacity: 0.3"/>
    </g>
   </g>
   <g id="matplotlib.axis_1">
    <g id="xtick_1">
     <g id="line2d_1">
      <defs>
       <path id="me419268eae" d="M 0 0 
L 0 3.5 
" style="stroke: #000000; stroke-width: 0.8"/>
      </defs>
      <g>
       <use xlink:href="#me419268eae" x="79.765672" y="390.04" style="stroke: #000000; stroke-width: 0.8"/>
      </g>
     </g>
     <g id="text_1">
      <!-- 0 -->
      <g transform="translate(76.584422 404.638438) scale(0.1 -0.1)">
       <defs>
        <path id="DejaVuSans-30" d="M 2034 4250 
Q 1547 4250 1301 3770 
Q 1056 3291 1056 2328 
Q 1056 1369 1301 889 
Q 1547 409 2034 409 
Q 2525 409 2770 889 
Q 3016 1369 3016 2328 
Q 3016 3291 2770 3770 
Q 2525 4250 2034 4250 
z
M 2034 4750 
Q 2819 4750 3233 4129 
Q 3647 3509 3647 2328 
Q 3647 1150 3233 529 
Q 2819 -91 2034 -91 
Q 1250 -91 836 529 
Q 422 1150 422 2328 
Q 422 3509 836 4129 
Q 1250 4750 2034 4750 
z
" transform="scale(0.015625)"/>
       </defs>
       <use xlink:href="#DejaVuSans-30"/>
      </g>
     </g>
    </g>
    <g id="xtick_2">
     <g id="line2d_2">
      <g>
       <use xlink:href="#me419268eae" x="199.78938" y="390.04" style="stroke: #000000; stroke-width: 0.8"/>
      </g>
     </g>
     <g id="text_2">
      <!-- 20000 -->
      <g transform="translate(183.88313 404.638438) scale(0.1 -0.1)">
       <defs>
        <path id="DejaVuSans-32" d="M 1228 531 
L 3431 531 
L 3431 0 
L 469 0 
L 469 531 
Q 828 903 1448 1529 
Q 2069 2156 2228 2338 
Q 2531 2678 2651 2914 
Q 2772 3150 2772 3378 
Q 2772 3750 2511 3984 
Q 2250 4219 1831 4219 
Q 1534 4219 1204 4116 
Q 875 4013 500 3803 
L 500 4441 
Q 881 4594 1212 4672 
Q 1544 4750 1819 4750 
Q 2544 4750 2975 4387 
Q 3406 4025 3406 3419 
Q 3406 3131 3298 2873 
Q 3191 2616 2906 2266 
Q 2828 2175 2409 1742 
Q 1991 1309 1228 531 
z
" transform="scale(0.015625)"/>
       </defs>
       <use xlink:href="#DejaVuSans-32"/>
       <use xlink:href="#DejaVuSans-30" transform="translate(63.623047 0)"/>
       <use xlink:href="#DejaVuSans-30" transform="translate(127.246094 0)"/>
       <use xlink:href="#DejaVuSans-30" transform="translate(190.869141 0)"/>
       <use xlink:href="#DejaVuSans-30" transform="translate(254.492188 0)"/>
      </g>
     </g>
    </g>
    <g id="xtick_3">
     <g id="line2d_3">
      <g>
       <use xlink:href="#me419268eae" x="319.813087" y="390.04" style="stroke: #000000; stroke-width: 0.8"/>
      </g>
     </g>
     <g id="text_3">
      <!-- 40000 -->
      <g transform="translate(303.906837 404.638438) scale(0.1 -0.1)">
       <defs>
        <path id="DejaVuSans-34" d="M 2419 4116 
L 825 1625 
L 2419 1625 
L 2419 4116 
z
M 2253 4666 
L 3047 4666 
L 3047 1625 
L 3713 1625 
L 3713 1100 
L 3047 1100 
L 3047 0 
L 2419 0 
L 2419 1100 
L 313 1100 
L 313 1709 
L 2253 4666 
z
" transform="scale(0.015625)"/>
       </defs>
       <use xlink:href="#DejaVuSans-34"/>
       <use xlink:href="#DejaVuSans-30" transform="translate(63.623047 0)"/>
       <use xlink:href="#DejaVuSans-30" transform="translate(127.246094 0)"/>
       <use xlink:href="#DejaVuSans-30" transform="translate(190.869141 0)"/>
       <use xlink:href="#DejaVuSans-30" transform="translate(254.492188 0)"/>
      </g>
     </g>
    </g>
    <g id="xtick_4">
     <g id="line2d_4">
      <g>
       <use xlink:href="#me419268eae" x="439.836794" y="390.04" style="stroke: #000000; stroke-width: 0.8"/>
      </g>
     </g>
     <g id="text_4">
      <!-- 60000 -->
      <g transform="translate(423.930544 404.638438) scale(0.1 -0.1)">
       <defs>
        <path id="DejaVuSans-36" d="M 2113 2584 
Q 1688 2584 1439 2293 
Q 1191 2003 1191 1497 
Q 1191 994 1439 701 
Q 1688 409 2113 409 
Q 2538 409 2786 701 
Q 3034 994 3034 1497 
Q 3034 2003 2786 2293 
Q 2538 2584 2113 2584 
z
M 3366 4563 
L 3366 3988 
Q 3128 4100 2886 4159 
Q 2644 4219 2406 4219 
Q 1781 4219 1451 3797 
Q 1122 3375 1075 2522 
Q 1259 2794 1537 2939 
Q 1816 3084 2150 3084 
Q 2853 3084 3261 2657 
Q 3669 2231 3669 1497 
Q 3669 778 3244 343 
Q 2819 -91 2113 -91 
Q 1303 -91 875 529 
Q 447 1150 447 2328 
Q 447 3434 972 4092 
Q 1497 4750 2381 4750 
Q 2619 4750 2861 4703 
Q 3103 4656 3366 4563 
z
" transform="scale(0.015625)"/>
       </defs>
       <use xlink:href="#DejaVuSans-36"/>
       <use xlink:href="#DejaVuSans-30" transform="translate(63.623047 0)"/>
       <use xlink:href="#DejaVuSans-30" transform="translate(127.246094 0)"/>
       <use xlink:href="#DejaVuSans-30" transform="translate(190.869141 0)"/>
       <use xlink:href="#DejaVuSans-30" transform="translate(254.492188 0)"/>
      </g>
     </g>
    </g>
    <g id="xtick_5">
     <g id="line2d_5">
      <g>
       <use xlink:href="#me419268eae" x="559.860502" y="390.04" style="stroke: #000000; stroke-width: 0.8"/>
      </g>
     </g>
     <g id="text_5">
      <!-- 80000 -->
      <g transform="translate(543.954252 404.638438) scale(0.1 -0.1)">
       <defs>
        <path id="DejaVuSans-38" d="M 2034 2216 
Q 1584 2216 1326 1975 
Q 1069 1734 1069 1313 
Q 1069 891 1326 650 
Q 1584 409 2034 409 
Q 2484 409 2743 651 
Q 3003 894 3003 1313 
Q 3003 1734 2745 1975 
Q 2488 2216 2034 2216 
z
M 1403 2484 
Q 997 2584 770 2862 
Q 544 3141 544 3541 
Q 544 4100 942 4425 
Q 1341 4750 2034 4750 
Q 2731 4750 3128 4425 
Q 3525 4100 3525 3541 
Q 3525 3141 3298 2862 
Q 3072 2584 2669 2484 
Q 3125 2378 3379 2068 
Q 3634 1759 3634 1313 
Q 3634 634 3220 271 
Q 2806 -91 2034 -91 
Q 1263 -91 848 271 
Q 434 634 434 1313 
Q 434 1759 690 2068 
Q 947 2378 1403 2484 
z
M 1172 3481 
Q 1172 3119 1398 2916 
Q 1625 2713 2034 2713 
Q 2441 2713 2670 2916 
Q 2900 3119 2900 3481 
Q 2900 3844 2670 4047 
Q 2441 4250 2034 4250 
Q 1625 4250 1398 4047 
Q 1172 3844 1172 3481 
z
" transform="scale(0.015625)"/>
       </defs>
       <use xlink:href="#DejaVuSans-38"/>
       <use xlink:href="#DejaVuSans-30" transform="translate(63.623047 0)"/>
       <use xlink:href="#DejaVuSans-30" transform="translate(127.246094 0)"/>
       <use xlink:href="#DejaVuSans-30" transform="translate(190.869141 0)"/>
       <use xlink:href="#DejaVuSans-30" transform="translate(254.492188 0)"/>
      </g>
     </g>
    </g>
    <g id="xtick_6">
     <g id="line2d_6">
      <g>
       <use xlink:href="#me419268eae" x="679.884209" y="390.04" style="stroke: #000000; stroke-width: 0.8"/>
      </g>
     </g>
     <g id="text_6">
      <!-- 100000 -->
      <g transform="translate(660.796709 404.638438) scale(0.1 -0.1)">
       <defs>
        <path id="DejaVuSans-31" d="M 794 531 
L 1825 531 
L 1825 4091 
L 703 3866 
L 703 4441 
L 1819 4666 
L 2450 4666 
L 2450 531 
L 3481 531 
L 3481 0 
L 794 0 
L 794 531 
z
" transform="scale(0.015625)"/>
       </defs>
       <use xlink:href="#DejaVuSans-31"/>
       <use xlink:href="#DejaVuSans-30" transform="translate(63.623047 0)"/>
       <use xlink:href="#DejaVuSans-30" transform="translate(127.246094 0)"/>
       <use xlink:href="#DejaVuSans-30" transform="translate(190.869141 0)"/>
       <use xlink:href="#DejaVuSans-30" transform="translate(254.492188 0)"/>
       <use xlink:href="#DejaVuSans-30" transform="translate(318.115234 0)"/>
      </g>
     </g>
    </g>
    <g id="text_7">
     <!-- Step -->
     <g transform="translate(368.739844 418.316562) scale(0.1 -0.1)">
      <defs>
       <path id="DejaVuSans-53" d="M 3425 4513 
L 3425 3897 
Q 3066 4069 2747 4153 
Q 2428 4238 2131 4238 
Q 1616 4238 1336 4038 
Q 1056 3838 1056 3469 
Q 1056 3159 1242 3001 
Q 1428 2844 1947 2747 
L 2328 2669 
Q 3034 2534 3370 2195 
Q 3706 1856 3706 1288 
Q 3706 609 3251 259 
Q 2797 -91 1919 -91 
Q 1588 -91 1214 -16 
Q 841 59 441 206 
L 441 856 
Q 825 641 1194 531 
Q 1563 422 1919 422 
Q 2459 422 2753 634 
Q 3047 847 3047 1241 
Q 3047 1584 2836 1778 
Q 2625 1972 2144 2069 
L 1759 2144 
Q 1053 2284 737 2584 
Q 422 2884 422 3419 
Q 422 4038 858 4394 
Q 1294 4750 2059 4750 
Q 2388 4750 2728 4690 
Q 3069 4631 3425 4513 
z
" transform="scale(0.015625)"/>
       <path id="DejaVuSans-74" d="M 1172 4494 
L 1172 3500 
L 2356 3500 
L 2356 3053 
L 1172 3053 
L 1172 1153 
Q 1172 725 1289 603 
Q 1406 481 1766 481 
L 2356 481 
L 2356 0 
L 1766 0 
Q 1100 0 847 248 
Q 594 497 594 1153 
L 594 3053 
L 172 3053 
L 172 3500 
L 594 3500 
L 594 4494 
L 1172 4494 
z
" transform="scale(0.015625)"/>
       <path id="DejaVuSans-65" d="M 3597 1894 
L 3597 1613 
L 953 1613 
Q 991 1019 1311 708 
Q 1631 397 2203 397 
Q 2534 397 2845 478 
Q 3156 559 3463 722 
L 3463 178 
Q 3153 47 2828 -22 
Q 2503 -91 2169 -91 
Q 1331 -91 842 396 
Q 353 884 353 1716 
Q 353 2575 817 3079 
Q 1281 3584 2069 3584 
Q 2775 3584 3186 3129 
Q 3597 2675 3597 1894 
z
M 3022 2063 
Q 3016 2534 2758 2815 
Q 2500 3097 2075 3097 
Q 1594 3097 1305 2825 
Q 1016 2553 972 2059 
L 3022 2063 
z
" transform="scale(0.015625)"/>
       <path id="DejaVuSans-70" d="M 1159 525 
L 1159 -1331 
L 581 -1331 
L 581 3500 
L 1159 3500 
L 1159 2969 
Q 1341 3281 1617 3432 
Q 1894 3584 2278 3584 
Q 2916 3584 3314 3078 
Q 3713 2572 3713 1747 
Q 3713 922 3314 415 
Q 2916 -91 2278 -91 
Q 1894 -91 1617 61 
Q 1341 213 1159 525 
z
M 3116 1747 
Q 3116 2381 2855 2742 
Q 2594 3103 2138 3103 
Q 1681 3103 1420 2742 
Q 1159 2381 1159 1747 
Q 1159 1113 1420 752 
Q 1681 391 2138 391 
Q 2594 391 2855 752 
Q 3116 1113 3116 1747 
z
" transform="scale(0.015625)"/>
      </defs>
      <use xlink:href="#DejaVuSans-53"/>
      <use xlink:href="#DejaVuSans-74" transform="translate(63.476562 0)"/>
      <use xlink:href="#DejaVuSans-65" transform="translate(102.685547 0)"/>
      <use xlink:href="#DejaVuSans-70" transform="translate(164.208984 0)"/>
     </g>
    </g>
   </g>
   <g id="matplotlib.axis_2">
    <g id="ytick_1">
     <g id="line2d_7">
      <defs>
       <path id="m68560b0348" d="M 0 0 
L -3.5 0 
" style="stroke: #000000; stroke-width: 0.8"/>
      </defs>
      <g>
       <use xlink:href="#m68560b0348" x="51.05" y="388.280884" style="stroke: #000000; stroke-width: 0.8"/>
      </g>
     </g>
     <g id="text_8">
      <!-- 0 -->
      <g transform="translate(37.6875 392.080102) scale(0.1 -0.1)">
       <use xlink:href="#DejaVuSans-30"/>
      </g>
     </g>
    </g>
    <g id="ytick_2">
     <g id="line2d_8">
      <g>
       <use xlink:href="#m68560b0348" x="51.05" y="341.988349" style="stroke: #000000; stroke-width: 0.8"/>
      </g>
     </g>
     <g id="text_9">
      <!-- 25 -->
      <g transform="translate(31.325 345.787568) scale(0.1 -0.1)">
       <defs>
        <path id="DejaVuSans-35" d="M 691 4666 
L 3169 4666 
L 3169 4134 
L 1269 4134 
L 1269 2991 
Q 1406 3038 1543 3061 
Q 1681 3084 1819 3084 
Q 2600 3084 3056 2656 
Q 3513 2228 3513 1497 
Q 3513 744 3044 326 
Q 2575 -91 1722 -91 
Q 1428 -91 1123 -41 
Q 819 9 494 109 
L 494 744 
Q 775 591 1075 516 
Q 1375 441 1709 441 
Q 2250 441 2565 725 
Q 2881 1009 2881 1497 
Q 2881 1984 2565 2268 
Q 2250 2553 1709 2553 
Q 1456 2553 1204 2497 
Q 953 2441 691 2322 
L 691 4666 
z
" transform="scale(0.015625)"/>
       </defs>
       <use xlink:href="#DejaVuSans-32"/>
       <use xlink:href="#DejaVuSans-35" transform="translate(63.623047 0)"/>
      </g>
     </g>
    </g>
    <g id="ytick_3">
     <g id="line2d_9">
      <g>
       <use xlink:href="#m68560b0348" x="51.05" y="295.695815" style="stroke: #000000; stroke-width: 0.8"/>
      </g>
     </g>
     <g id="text_10">
      <!-- 50 -->
      <g transform="translate(31.325 299.495034) scale(0.1 -0.1)">
       <use xlink:href="#DejaVuSans-35"/>
       <use xlink:href="#DejaVuSans-30" transform="translate(63.623047 0)"/>
      </g>
     </g>
    </g>
    <g id="ytick_4">
     <g id="line2d_10">
      <g>
       <use xlink:href="#m68560b0348" x="51.05" y="249.403281" style="stroke: #000000; stroke-width: 0.8"/>
      </g>
     </g>
     <g id="text_11">
      <!-- 75 -->
      <g transform="translate(31.325 253.2025) scale(0.1 -0.1)">
       <defs>
        <path id="DejaVuSans-37" d="M 525 4666 
L 3525 4666 
L 3525 4397 
L 1831 0 
L 1172 0 
L 2766 4134 
L 525 4134 
L 525 4666 
z
" transform="scale(0.015625)"/>
       </defs>
       <use xlink:href="#DejaVuSans-37"/>
       <use xlink:href="#DejaVuSans-35" transform="translate(63.623047 0)"/>
      </g>
     </g>
    </g>
    <g id="ytick_5">
     <g id="line2d_11">
      <g>
       <use xlink:href="#m68560b0348" x="51.05" y="203.110747" style="stroke: #000000; stroke-width: 0.8"/>
      </g>
     </g>
     <g id="text_12">
      <!-- 100 -->
      <g transform="translate(24.9625 206.909965) scale(0.1 -0.1)">
       <use xlink:href="#DejaVuSans-31"/>
       <use xlink:href="#DejaVuSans-30" transform="translate(63.623047 0)"/>
       <use xlink:href="#DejaVuSans-30" transform="translate(127.246094 0)"/>
      </g>
     </g>
    </g>
    <g id="ytick_6">
     <g id="line2d_12">
      <g>
       <use xlink:href="#m68560b0348" x="51.05" y="156.818212" style="stroke: #000000; stroke-width: 0.8"/>
      </g>
     </g>
     <g id="text_13">
      <!-- 125 -->
      <g transform="translate(24.9625 160.617431) scale(0.1 -0.1)">
       <use xlink:href="#DejaVuSans-31"/>
       <use xlink:href="#DejaVuSans-32" transform="translate(63.623047 0)"/>
       <use xlink:href="#DejaVuSans-35" transform="translate(127.246094 0)"/>
      </g>
     </g>
    </g>
    <g id="ytick_7">
     <g id="line2d_13">
      <g>
       <use xlink:href="#m68560b0348" x="51.05" y="110.525678" style="stroke: #000000; stroke-width: 0.8"/>
      </g>
     </g>
     <g id="text_14">
      <!-- 150 -->
      <g transform="translate(24.9625 114.324897) scale(0.1 -0.1)">
       <use xlink:href="#DejaVuSans-31"/>
       <use xlink:href="#DejaVuSans-35" transform="translate(63.623047 0)"/>
       <use xlink:href="#DejaVuSans-30" transform="translate(127.246094 0)"/>
      </g>
     </g>
    </g>
    <g id="ytick_8">
     <g id="line2d_14">
      <g>
       <use xlink:href="#m68560b0348" x="51.05" y="64.233144" style="stroke: #000000; stroke-width: 0.8"/>
      </g>
     </g>
     <g id="text_15">
      <!-- 175 -->
      <g transform="translate(24.9625 68.032362) scale(0.1 -0.1)">
       <use xlink:href="#DejaVuSans-31"/>
       <use xlink:href="#DejaVuSans-37" transform="translate(63.623047 0)"/>
       <use xlink:href="#DejaVuSans-35" transform="translate(127.246094 0)"/>
      </g>
     </g>
    </g>
    <g id="text_16">
     <!-- charts/SPS -->
     <g transform="translate(18.882812 234.39) rotate(-90) scale(0.1 -0.1)">
      <defs>
       <path id="DejaVuSans-63" d="M 3122 3366 
L 3122 2828 
Q 2878 2963 2633 3030 
Q 2388 3097 2138 3097 
Q 1578 3097 1268 2742 
Q 959 2388 959 1747 
Q 959 1106 1268 751 
Q 1578 397 2138 397 
Q 2388 397 2633 464 
Q 2878 531 3122 666 
L 3122 134 
Q 2881 22 2623 -34 
Q 2366 -91 2075 -91 
Q 1284 -91 818 406 
Q 353 903 353 1747 
Q 353 2603 823 3093 
Q 1294 3584 2113 3584 
Q 2378 3584 2631 3529 
Q 2884 3475 3122 3366 
z
" transform="scale(0.015625)"/>
       <path id="DejaVuSans-68" d="M 3513 2113 
L 3513 0 
L 2938 0 
L 2938 2094 
Q 2938 2591 2744 2837 
Q 2550 3084 2163 3084 
Q 1697 3084 1428 2787 
Q 1159 2491 1159 1978 
L 1159 0 
L 581 0 
L 581 4863 
L 1159 4863 
L 1159 2956 
Q 1366 3272 1645 3428 
Q 1925 3584 2291 3584 
Q 2894 3584 3203 3211 
Q 3513 2838 3513 2113 
z
" transform="scale(0.015625)"/>
       <path id="DejaVuSans-61" d="M 2194 1759 
Q 1497 1759 1228 1600 
Q 959 1441 959 1056 
Q 959 750 1161 570 
Q 1363 391 1709 391 
Q 2188 391 2477 730 
Q 2766 1069 2766 1631 
L 2766 1759 
L 2194 1759 
z
M 3341 1997 
L 3341 0 
L 2766 0 
L 2766 531 
Q 2569 213 2275 61 
Q 1981 -91 1556 -91 
Q 1019 -91 701 211 
Q 384 513 384 1019 
Q 384 1609 779 1909 
Q 1175 2209 1959 2209 
L 2766 2209 
L 2766 2266 
Q 2766 2663 2505 2880 
Q 2244 3097 1772 3097 
Q 1472 3097 1187 3025 
Q 903 2953 641 2809 
L 641 3341 
Q 956 3463 1253 3523 
Q 1550 3584 1831 3584 
Q 2591 3584 2966 3190 
Q 3341 2797 3341 1997 
z
" transform="scale(0.015625)"/>
       <path id="DejaVuSans-72" d="M 2631 2963 
Q 2534 3019 2420 3045 
Q 2306 3072 2169 3072 
Q 1681 3072 1420 2755 
Q 1159 2438 1159 1844 
L 1159 0 
L 581 0 
L 581 3500 
L 1159 3500 
L 1159 2956 
Q 1341 3275 1631 3429 
Q 1922 3584 2338 3584 
Q 2397 3584 2469 3576 
Q 2541 3569 2628 3553 
L 2631 2963 
z
" transform="scale(0.015625)"/>
       <path id="DejaVuSans-73" d="M 2834 3397 
L 2834 2853 
Q 2591 2978 2328 3040 
Q 2066 3103 1784 3103 
Q 1356 3103 1142 2972 
Q 928 2841 928 2578 
Q 928 2378 1081 2264 
Q 1234 2150 1697 2047 
L 1894 2003 
Q 2506 1872 2764 1633 
Q 3022 1394 3022 966 
Q 3022 478 2636 193 
Q 2250 -91 1575 -91 
Q 1294 -91 989 -36 
Q 684 19 347 128 
L 347 722 
Q 666 556 975 473 
Q 1284 391 1588 391 
Q 1994 391 2212 530 
Q 2431 669 2431 922 
Q 2431 1156 2273 1281 
Q 2116 1406 1581 1522 
L 1381 1569 
Q 847 1681 609 1914 
Q 372 2147 372 2553 
Q 372 3047 722 3315 
Q 1072 3584 1716 3584 
Q 2034 3584 2315 3537 
Q 2597 3491 2834 3397 
z
" transform="scale(0.015625)"/>
       <path id="DejaVuSans-2f" d="M 1625 4666 
L 2156 4666 
L 531 -594 
L 0 -594 
L 1625 4666 
z
" transform="scale(0.015625)"/>
       <path id="DejaVuSans-50" d="M 1259 4147 
L 1259 2394 
L 2053 2394 
Q 2494 2394 2734 2622 
Q 2975 2850 2975 3272 
Q 2975 3691 2734 3919 
Q 2494 4147 2053 4147 
L 1259 4147 
z
M 628 4666 
L 2053 4666 
Q 2838 4666 3239 4311 
Q 3641 3956 3641 3272 
Q 3641 2581 3239 2228 
Q 2838 1875 2053 1875 
L 1259 1875 
L 1259 0 
L 628 0 
L 628 4666 
z
" transform="scale(0.015625)"/>
      </defs>
      <use xlink:href="#DejaVuSans-63"/>
      <use xlink:href="#DejaVuSans-68" transform="translate(54.980469 0)"/>
      <use xlink:href="#DejaVuSans-61" transform="translate(118.359375 0)"/>
      <use xlink:href="#DejaVuSans-72" transform="translate(179.638672 0)"/>
      <use xlink:href="#DejaVuSans-74" transform="translate(220.751953 0)"/>
      <use xlink:href="#DejaVuSans-73" transform="translate(259.960938 0)"/>
      <use xlink:href="#DejaVuSans-2f" transform="translate(312.060547 0)"/>
      <use xlink:href="#DejaVuSans-53" transform="translate(345.751953 0)"/>
      <use xlink:href="#DejaVuSans-50" transform="translate(409.228516 0)"/>
      <use xlink:href="#DejaVuSans-53" transform="translate(469.53125 0)"/>
     </g>
    </g>
   </g>
   <g id="line2d_15">
    <path d="M 80.965909 186.277098 
L 82.76266 185.212989 
L 84.559412 184.428092 
L 86.356163 183.92342 
L 88.152914 158.578078 
L 89.350748 144.933387 
L 91.1475 127.987738 
L 92.944251 115.290887 
L 94.741002 105.015958 
L 95.938837 99.109802 
L 97.735588 91.919469 
L 100.131256 84.264399 
L 101.928008 79.646127 
L 102.526925 78.406267 
L 103.125842 76.758625 
L 104.922593 73.258327 
L 107.318261 69.255042 
L 108.516096 67.774108 
L 109.71393 66.379392 
L 110.312847 65.550179 
L 110.911764 65.215135 
L 111.510681 64.582455 
L 113.307432 63.383879 
L 113.90635 62.836013 
L 116.302018 61.698379 
L 117.499852 61.174385 
L 118.098769 60.999533 
L 119.895521 60.881018 
L 120.494438 65.151833 
L 121.093355 65.804284 
L 122.291189 65.699811 
L 122.890106 65.499066 
L 125.285774 65.355387 
L 125.884692 65.212326 
L 132.47278 65.018714 
L 134.269531 65.381505 
L 137.863033 66.063501 
L 138.461951 66.039517 
L 140.857619 66.713256 
L 142.055453 67.273479 
L 145.050039 67.868414 
L 146.84679 68.192393 
L 148.643541 68.740147 
L 150.440293 69.201064 
L 152.835961 69.718655 
L 158.226215 70.293257 
L 160.621883 70.686042 
L 161.819717 70.798267 
L 162.418635 70.798267 
L 163.616469 71.047823 
L 164.215386 71.281314 
L 169.60564 71.903884 
L 171.402391 72.054921 
L 172.600225 72.35222 
L 176.792645 72.557908 
L 177.990479 72.70608 
L 182.182899 73.079881 
L 184.578567 73.39667 
L 186.375319 73.659987 
L 202.54608 74.726118 
L 204.941749 74.894455 
L 207.337417 74.926864 
L 209.134168 75.094863 
L 217.519008 75.486076 
L 219.315759 75.680025 
L 249.261614 77.082829 
L 253.454034 77.18646 
L 254.651868 77.251165 
L 265.432376 77.32879 
L 269.624795 77.643951 
L 270.822629 77.684954 
L 272.619381 77.792123 
L 274.416132 77.776002 
L 278.009635 77.887553 
L 282.202054 77.906144 
L 283.399889 77.942654 
L 286.993391 78.07538 
L 291.185811 78.14896 
L 294.779313 78.261184 
L 299.57065 78.332406 
L 301.966319 78.470973 
L 303.164153 78.514504 
L 304.361987 78.597857 
L 311.548992 78.666832 
L 312.746826 78.697444 
L 313.944661 78.710082 
L 317.538163 78.766194 
L 322.928417 78.833034 
L 324.725168 78.878418 
L 331.912174 78.943573 
L 333.110008 79.037936 
L 334.307842 79.046755 
L 353.473189 79.215091 
L 355.26994 79.224415 
L 356.467775 79.327316 
L 363.65478 79.386517 
L 365.451531 79.436788 
L 367.248282 79.385843 
L 369.045034 79.43954 
L 370.242868 79.443247 
L 371.440702 79.550135 
L 373.237453 79.495652 
L 375.034205 79.497562 
L 376.232039 79.663988 
L 385.215795 79.720101 
L 386.41363 79.72128 
L 391.803883 79.776213 
L 393.600635 79.832325 
L 395.996303 79.941572 
L 426.541075 80.168998 
L 427.738909 80.177929 
L 431.332412 80.22511 
L 433.129163 80.281222 
L 454.091262 80.379573 
L 459.481516 80.393447 
L 474.454443 80.487978 
L 480.443614 80.561783 
L 518.774308 80.648001 
L 521.768894 80.674007 
L 536.142904 80.756968 
L 537.939656 80.842344 
L 572.07793 80.918564 
L 574.473599 80.954568 
L 592.441112 80.987146 
L 593.638946 81.066793 
L 645.145816 81.129308 
L 646.942568 81.179017 
L 669.701417 81.236926 
L 671.498169 81.291241 
L 679.284091 81.347353 
L 679.284091 81.347353 
" clip-path="url(#pdcc4974d75)" style="fill: none; stroke: #daa520; stroke-width: 1.5; stroke-linecap: square"/>
   </g>
   <g id="patch_3">
    <path d="M 51.05 390.04 
L 51.05 25.44 
" style="fill: none; stroke: #000000; stroke-width: 0.8; stroke-linejoin: miter; stroke-linecap: square"/>
   </g>
   <g id="patch_4">
    <path d="M 709.2 390.04 
L 709.2 25.44 
" style="fill: none; stroke: #000000; stroke-width: 0.8; stroke-linejoin: miter; stroke-linecap: square"/>
   </g>
   <g id="patch_5">
    <path d="M 51.05 390.04 
L 709.2 390.04 
" style="fill: none; stroke: #000000; stroke-width: 0.8; stroke-linejoin: miter; stroke-linecap: square"/>
   </g>
   <g id="patch_6">
    <path d="M 51.05 25.44 
L 709.2 25.44 
" style="fill: none; stroke: #000000; stroke-width: 0.8; stroke-linejoin: miter; stroke-linecap: square"/>
   </g>
   <g id="text_17">
    <!-- charts/SPS for dqn_atari (aggregated via interpolation over runs) -->
    <g transform="translate(185.1775 19.44) scale(0.12 -0.12)">
     <defs>
      <path id="DejaVuSans-20" transform="scale(0.015625)"/>
      <path id="DejaVuSans-66" d="M 2375 4863 
L 2375 4384 
L 1825 4384 
Q 1516 4384 1395 4259 
Q 1275 4134 1275 3809 
L 1275 3500 
L 2222 3500 
L 2222 3053 
L 1275 3053 
L 1275 0 
L 697 0 
L 697 3053 
L 147 3053 
L 147 3500 
L 697 3500 
L 697 3744 
Q 697 4328 969 4595 
Q 1241 4863 1831 4863 
L 2375 4863 
z
" transform="scale(0.015625)"/>
      <path id="DejaVuSans-6f" d="M 1959 3097 
Q 1497 3097 1228 2736 
Q 959 2375 959 1747 
Q 959 1119 1226 758 
Q 1494 397 1959 397 
Q 2419 397 2687 759 
Q 2956 1122 2956 1747 
Q 2956 2369 2687 2733 
Q 2419 3097 1959 3097 
z
M 1959 3584 
Q 2709 3584 3137 3096 
Q 3566 2609 3566 1747 
Q 3566 888 3137 398 
Q 2709 -91 1959 -91 
Q 1206 -91 779 398 
Q 353 888 353 1747 
Q 353 2609 779 3096 
Q 1206 3584 1959 3584 
z
" transform="scale(0.015625)"/>
      <path id="DejaVuSans-64" d="M 2906 2969 
L 2906 4863 
L 3481 4863 
L 3481 0 
L 2906 0 
L 2906 525 
Q 2725 213 2448 61 
Q 2172 -91 1784 -91 
Q 1150 -91 751 415 
Q 353 922 353 1747 
Q 353 2572 751 3078 
Q 1150 3584 1784 3584 
Q 2172 3584 2448 3432 
Q 2725 3281 2906 2969 
z
M 947 1747 
Q 947 1113 1208 752 
Q 1469 391 1925 391 
Q 2381 391 2643 752 
Q 2906 1113 2906 1747 
Q 2906 2381 2643 2742 
Q 2381 3103 1925 3103 
Q 1469 3103 1208 2742 
Q 947 2381 947 1747 
z
" transform="scale(0.015625)"/>
      <path id="DejaVuSans-71" d="M 947 1747 
Q 947 1113 1208 752 
Q 1469 391 1925 391 
Q 2381 391 2643 752 
Q 2906 1113 2906 1747 
Q 2906 2381 2643 2742 
Q 2381 3103 1925 3103 
Q 1469 3103 1208 2742 
Q 947 2381 947 1747 
z
M 2906 525 
Q 2725 213 2448 61 
Q 2172 -91 1784 -91 
Q 1150 -91 751 415 
Q 353 922 353 1747 
Q 353 2572 751 3078 
Q 1150 3584 1784 3584 
Q 2172 3584 2448 3432 
Q 2725 3281 2906 2969 
L 2906 3500 
L 3481 3500 
L 3481 -1331 
L 2906 -1331 
L 2906 525 
z
" transform="scale(0.015625)"/>
      <path id="DejaVuSans-6e" d="M 3513 2113 
L 3513 0 
L 2938 0 
L 2938 2094 
Q 2938 2591 2744 2837 
Q 2550 3084 2163 3084 
Q 1697 3084 1428 2787 
Q 1159 2491 1159 1978 
L 1159 0 
L 581 0 
L 581 3500 
L 1159 3500 
L 1159 2956 
Q 1366 3272 1645 3428 
Q 1925 3584 2291 3584 
Q 2894 3584 3203 3211 
Q 3513 2838 3513 2113 
z
" transform="scale(0.015625)"/>
      <path id="DejaVuSans-5f" d="M 3263 -1063 
L 3263 -1509 
L -63 -1509 
L -63 -1063 
L 3263 -1063 
z
" transform="scale(0.015625)"/>
      <path id="DejaVuSans-69" d="M 603 3500 
L 1178 3500 
L 1178 0 
L 603 0 
L 603 3500 
z
M 603 4863 
L 1178 4863 
L 1178 4134 
L 603 4134 
L 603 4863 
z
" transform="scale(0.015625)"/>
      <path id="DejaVuSans-28" d="M 1984 4856 
Q 1566 4138 1362 3434 
Q 1159 2731 1159 2009 
Q 1159 1288 1364 580 
Q 1569 -128 1984 -844 
L 1484 -844 
Q 1016 -109 783 600 
Q 550 1309 550 2009 
Q 550 2706 781 3412 
Q 1013 4119 1484 4856 
L 1984 4856 
z
" transform="scale(0.015625)"/>
      <path id="DejaVuSans-67" d="M 2906 1791 
Q 2906 2416 2648 2759 
Q 2391 3103 1925 3103 
Q 1463 3103 1205 2759 
Q 947 2416 947 1791 
Q 947 1169 1205 825 
Q 1463 481 1925 481 
Q 2391 481 2648 825 
Q 2906 1169 2906 1791 
z
M 3481 434 
Q 3481 -459 3084 -895 
Q 2688 -1331 1869 -1331 
Q 1566 -1331 1297 -1286 
Q 1028 -1241 775 -1147 
L 775 -588 
Q 1028 -725 1275 -790 
Q 1522 -856 1778 -856 
Q 2344 -856 2625 -561 
Q 2906 -266 2906 331 
L 2906 616 
Q 2728 306 2450 153 
Q 2172 0 1784 0 
Q 1141 0 747 490 
Q 353 981 353 1791 
Q 353 2603 747 3093 
Q 1141 3584 1784 3584 
Q 2172 3584 2450 3431 
Q 2728 3278 2906 2969 
L 2906 3500 
L 3481 3500 
L 3481 434 
z
" transform="scale(0.015625)"/>
      <path id="DejaVuSans-76" d="M 191 3500 
L 800 3500 
L 1894 563 
L 2988 3500 
L 3597 3500 
L 2284 0 
L 1503 0 
L 191 3500 
z
" transform="scale(0.015625)"/>
      <path id="DejaVuSans-6c" d="M 603 4863 
L 1178 4863 
L 1178 0 
L 603 0 
L 603 4863 
z
" transform="scale(0.015625)"/>
      <path id="DejaVuSans-75" d="M 544 1381 
L 544 3500 
L 1119 3500 
L 1119 1403 
Q 1119 906 1312 657 
Q 1506 409 1894 409 
Q 2359 409 2629 706 
Q 2900 1003 2900 1516 
L 2900 3500 
L 3475 3500 
L 3475 0 
L 2900 0 
L 2900 538 
Q 2691 219 2414 64 
Q 2138 -91 1772 -91 
Q 1169 -91 856 284 
Q 544 659 544 1381 
z
M 1991 3584 
L 1991 3584 
z
" transform="scale(0.015625)"/>
      <path id="DejaVuSans-29" d="M 513 4856 
L 1013 4856 
Q 1481 4119 1714 3412 
Q 1947 2706 1947 2009 
Q 1947 1309 1714 600 
Q 1481 -109 1013 -844 
L 513 -844 
Q 928 -128 1133 580 
Q 1338 1288 1338 2009 
Q 1338 2731 1133 3434 
Q 928 4138 513 4856 
z
" transform="scale(0.015625)"/>
     </defs>
     <use xlink:href="#DejaVuSans-63"/>
     <use xlink:href="#DejaVuSans-68" transform="translate(54.980469 0)"/>
     <use xlink:href="#DejaVuSans-61" transform="translate(118.359375 0)"/>
     <use xlink:href="#DejaVuSans-72" transform="translate(179.638672 0)"/>
     <use xlink:href="#DejaVuSans-74" transform="translate(220.751953 0)"/>
     <use xlink:href="#DejaVuSans-73" transform="translate(259.960938 0)"/>
     <use xlink:href="#DejaVuSans-2f" transform="translate(312.060547 0)"/>
     <use xlink:href="#DejaVuSans-53" transform="translate(345.751953 0)"/>
     <use xlink:href="#DejaVuSans-50" transform="translate(409.228516 0)"/>
     <use xlink:href="#DejaVuSans-53" transform="translate(469.53125 0)"/>
     <use xlink:href="#DejaVuSans-20" transform="translate(533.007812 0)"/>
     <use xlink:href="#DejaVuSans-66" transform="translate(564.794922 0)"/>
     <use xlink:href="#DejaVuSans-6f" transform="translate(600 0)"/>
     <use xlink:href="#DejaVuSans-72" transform="translate(661.181641 0)"/>
     <use xlink:href="#DejaVuSans-20" transform="translate(702.294922 0)"/>
     <use xlink:href="#DejaVuSans-64" transform="translate(734.082031 0)"/>
     <use xlink:href="#DejaVuSans-71" transform="translate(797.558594 0)"/>
     <use xlink:href="#DejaVuSans-6e" transform="translate(861.035156 0)"/>
     <use xlink:href="#DejaVuSans-5f" transform="translate(924.414062 0)"/>
     <use xlink:href="#DejaVuSans-61" transform="translate(974.414062 0)"/>
     <use xlink:href="#DejaVuSans-74" transform="translate(1035.693359 0)"/>
     <use xlink:href="#DejaVuSans-61" transform="translate(1074.902344 0)"/>
     <use xlink:href="#DejaVuSans-72" transform="translate(1136.181641 0)"/>
     <use xlink:href="#DejaVuSans-69" transform="translate(1177.294922 0)"/>
     <use xlink:href="#DejaVuSans-20" transform="translate(1205.078125 0)"/>
     <use xlink:href="#DejaVuSans-28" transform="translate(1236.865234 0)"/>
     <use xlink:href="#DejaVuSans-61" transform="translate(1275.878906 0)"/>
     <use xlink:href="#DejaVuSans-67" transform="translate(1337.158203 0)"/>
     <use xlink:href="#DejaVuSans-67" transform="translate(1400.634766 0)"/>
     <use xlink:href="#DejaVuSans-72" transform="translate(1464.111328 0)"/>
     <use xlink:href="#DejaVuSans-65" transform="translate(1502.974609 0)"/>
     <use xlink:href="#DejaVuSans-67" transform="translate(1564.498047 0)"/>
     <use xlink:href="#DejaVuSans-61" transform="translate(1627.974609 0)"/>
     <use xlink:href="#DejaVuSans-74" transform="translate(1689.253906 0)"/>
     <use xlink:href="#DejaVuSans-65" transform="translate(1728.462891 0)"/>
     <use xlink:href="#DejaVuSans-64" transform="translate(1789.986328 0)"/>
     <use xlink:href="#DejaVuSans-20" transform="translate(1853.462891 0)"/>
     <use xlink:href="#DejaVuSans-76" transform="translate(1885.25 0)"/>
     <use xlink:href="#DejaVuSans-69" transform="translate(1944.429688 0)"/>
     <use xlink:href="#DejaVuSans-61" transform="translate(1972.212891 0)"/>
     <use xlink:href="#DejaVuSans-20" transform="translate(2033.492188 0)"/>
     <use xlink:href="#DejaVuSans-69" transform="translate(2065.279297 0)"/>
     <use xlink:href="#DejaVuSans-6e" transform="translate(2093.0625 0)"/>
     <use xlink:href="#DejaVuSans-74" transform="translate(2156.441406 0)"/>
     <use xlink:href="#DejaVuSans-65" transform="translate(2195.650391 0)"/>
     <use xlink:href="#DejaVuSans-72" transform="translate(2257.173828 0)"/>
     <use xlink:href="#DejaVuSans-70" transform="translate(2298.287109 0)"/>
     <use xlink:href="#DejaVuSans-6f" transform="translate(2361.763672 0)"/>
     <use xlink:href="#DejaVuSans-6c" transform="translate(2422.945312 0)"/>
     <use xlink:href="#DejaVuSans-61" transform="translate(2450.728516 0)"/>
     <use xlink:href="#DejaVuSans-74" transform="translate(2512.007812 0)"/>
     <use xlink:href="#DejaVuSans-69" transform="translate(2551.216797 0)"/>
     <use xlink:href="#DejaVuSans-6f" transform="translate(2579 0)"/>
     <use xlink:href="#DejaVuSans-6e" transform="translate(2640.181641 0)"/>
     <use xlink:href="#DejaVuSans-20" transform="translate(2703.560547 0)"/>
     <use xlink:href="#DejaVuSans-6f" transform="translate(2735.347656 0)"/>
     <use xlink:href="#DejaVuSans-76" transform="translate(2796.529297 0)"/>
     <use xlink:href="#DejaVuSans-65" transform="translate(2855.708984 0)"/>
     <use xlink:href="#DejaVuSans-72" transform="translate(2917.232422 0)"/>
     <use xlink:href="#DejaVuSans-20" transform="translate(2958.345703 0)"/>
     <use xlink:href="#DejaVuSans-72" transform="translate(2990.132812 0)"/>
     <use xlink:href="#DejaVuSans-75" transform="translate(3031.246094 0)"/>
     <use xlink:href="#DejaVuSans-6e" transform="translate(3094.625 0)"/>
     <use xlink:href="#DejaVuSans-73" transform="translate(3158.003906 0)"/>
     <use xlink:href="#DejaVuSans-29" transform="translate(3210.103516 0)"/>
    </g>
   </g>
   <g id="legend_1">
    <g id="patch_7">
     <path d="M 342.415625 223.918125 
L 417.834375 223.918125 
Q 419.834375 223.918125 419.834375 221.918125 
L 419.834375 193.561875 
Q 419.834375 191.561875 417.834375 191.561875 
L 342.415625 191.561875 
Q 340.415625 191.561875 340.415625 193.561875 
L 340.415625 221.918125 
Q 340.415625 223.918125 342.415625 223.918125 
z
" style="fill: #ffffff; opacity: 0.8; stroke: #cccccc; stroke-linejoin: miter"/>
    </g>
    <g id="line2d_16">
     <path d="M 344.415625 199.660312 
L 354.415625 199.660312 
L 364.415625 199.660312 
" style="fill: none; stroke: #daa520; stroke-width: 1.5; stroke-linecap: square"/>
    </g>
    <g id="text_18">
     <!-- Mean -->
     <g transform="translate(372.415625 203.160312) scale(0.1 -0.1)">
      <defs>
       <path id="DejaVuSans-4d" d="M 628 4666 
L 1569 4666 
L 2759 1491 
L 3956 4666 
L 4897 4666 
L 4897 0 
L 4281 0 
L 4281 4097 
L 3078 897 
L 2444 897 
L 1241 4097 
L 1241 0 
L 628 0 
L 628 4666 
z
" transform="scale(0.015625)"/>
      </defs>
      <use xlink:href="#DejaVuSans-4d"/>
      <use xlink:href="#DejaVuSans-65" transform="translate(86.279297 0)"/>
      <use xlink:href="#DejaVuSans-61" transform="translate(147.802734 0)"/>
      <use xlink:href="#DejaVuSans-6e" transform="translate(209.082031 0)"/>
     </g>
    </g>
    <g id="patch_8">
     <path d="M 344.415625 217.838437 
L 364.415625 217.838437 
L 364.415625 210.838437 
L 344.415625 210.838437 
z
" style="fill: #daa520; fill-opacity: 0.3; stroke: #daa520; stroke-opacity: 0.3; stroke-linejoin: miter"/>
    </g>
    <g id="text_19">
     <!-- MinMax -->
     <g transform="translate(372.415625 217.838437) scale(0.1 -0.1)">
      <defs>
       <path id="DejaVuSans-2013" d="M 313 1978 
L 2888 1978 
L 2888 1528 
L 313 1528 
L 313 1978 
z
" transform="scale(0.015625)"/>
       <path id="DejaVuSans-78" d="M 3513 3500 
L 2247 1797 
L 3578 0 
L 2900 0 
L 1881 1375 
L 863 0 
L 184 0 
L 1544 1831 
L 300 3500 
L 978 3500 
L 1906 2253 
L 2834 3500 
L 3513 3500 
z
" transform="scale(0.015625)"/>
      </defs>
      <use xlink:href="#DejaVuSans-4d"/>
      <use xlink:href="#DejaVuSans-69" transform="translate(86.279297 0)"/>
      <use xlink:href="#DejaVuSans-6e" transform="translate(114.0625 0)"/>
      <use xlink:href="#DejaVuSans-2013" transform="translate(177.441406 0)"/>
      <use xlink:href="#DejaVuSans-4d" transform="translate(227.441406 0)"/>
      <use xlink:href="#DejaVuSans-61" transform="translate(313.720703 0)"/>
      <use xlink:href="#DejaVuSans-78" transform="translate(375 0)"/>
     </g>
    </g>
   </g>
  </g>
 </g>
 <defs>
  <clipPath id="pdcc4974d75">
   <rect x="51.05" y="25.44" width="658.15" height="364.6"/>
  </clipPath>
 </defs>
</svg>
