<?xml version="1.0" encoding="utf-8" standalone="no"?>
<!DOCTYPE svg PUBLIC "-//W3C//DTD SVG 1.1//EN"
  "http://www.w3.org/Graphics/SVG/1.1/DTD/svg11.dtd">
<svg xmlns:xlink="http://www.w3.org/1999/xlink" width="720pt" height="432pt" viewBox="0 0 720 432" xmlns="http://www.w3.org/2000/svg" version="1.1">
 <metadata>
  <rdf:RDF xmlns:dc="http://purl.org/dc/elements/1.1/" xmlns:cc="http://creativecommons.org/ns#" xmlns:rdf="http://www.w3.org/1999/02/22-rdf-syntax-ns#">
   <cc:Work>
    <dc:type rdf:resource="http://purl.org/dc/dcmitype/StillImage"/>
    <dc:date>2025-02-05T20:31:29.161899</dc:date>
    <dc:format>image/svg+xml</dc:format>
    <dc:creator>
     <cc:Agent>
      <dc:title>Matplotlib v3.10.0, https://matplotlib.org/</dc:title>
     </cc:Agent>
    </dc:creator>
   </cc:Work>
  </rdf:RDF>
 </metadata>
 <defs>
  <style type="text/css">*{stroke-linejoin: round; stroke-linecap: butt}</style>
 </defs>
 <g id="figure_1">
  <g id="patch_1">
   <path d="M 0 432 
L 720 432 
L 720 0 
L 0 0 
z
" style="fill: #ffffff"/>
  </g>
  <g id="axes_1">
   <g id="patch_2">
    <path d="M 51.05 390.04 
L 709.2 390.04 
L 709.2 25.44 
L 51.05 25.44 
z
" style="fill: #ffffff"/>
   </g>
   <g id="FillBetweenPolyCollection_1">
    <defs>
     <path id="m04e08e3db4" d="M 80.965909 -283.705652 
L 80.965909 -58.532727 
L 81.564826 -93.948096 
L 82.163743 -103.567312 
L 82.76266 -108.347487 
L 83.361577 -122.361708 
L 83.960495 -136.375929 
L 84.559412 -147.030572 
L 85.158329 -157.107482 
L 85.757246 -166.016043 
L 86.356163 -174.924604 
L 86.95508 -183.617524 
L 87.553997 -190.614558 
L 88.152914 -197.41693 
L 88.751831 -203.787364 
L 89.350748 -210.113264 
L 89.949666 -216.349257 
L 90.548583 -221.550326 
L 91.1475 -226.055805 
L 91.746417 -230.319265 
L 92.345334 -234.420665 
L 92.944251 -238.489381 
L 93.543168 -242.509655 
L 94.142085 -246.162869 
L 94.741002 -249.581981 
L 95.339919 -252.718849 
L 95.938837 -255.577012 
L 96.537754 -258.102845 
L 97.136671 -260.287668 
L 97.735588 -260.44484 
L 98.334505 -263.133501 
L 98.933422 -265.400754 
L 99.532339 -265.691818 
L 100.131256 -267.368075 
L 100.730173 -267.493202 
L 101.32909 -267.493202 
L 101.928008 -269.294585 
L 102.526925 -269.294585 
L 103.125842 -270.900448 
L 103.724759 -271.635084 
L 104.323676 -272.897352 
L 104.922593 -272.897352 
L 105.52151 -272.897352 
L 106.120427 -272.932514 
L 106.719344 -274.698735 
L 107.318261 -275.599527 
L 107.917179 -276.500119 
L 108.516096 -276.500119 
L 109.115013 -276.500119 
L 109.71393 -276.500119 
L 110.312847 -277.999759 
L 110.911764 -278.301502 
L 111.510681 -278.301502 
L 112.109598 -278.301502 
L 112.708515 -278.301502 
L 113.307432 -278.301502 
L 113.90635 -278.301502 
L 114.505267 -278.930481 
L 115.104184 -280.102885 
L 115.703101 -280.102885 
L 116.302018 -280.102885 
L 116.900935 -281.904269 
L 117.499852 -281.904269 
L 118.098769 -282.549593 
L 118.697686 -283.705652 
L 119.296603 -283.705652 
L 119.895521 -282.808352 
L 120.494438 -281.939802 
L 121.093355 -283.114207 
L 121.692272 -283.705652 
L 122.291189 -283.705652 
L 122.890106 -283.705652 
L 123.489023 -283.705652 
L 124.08794 -283.705652 
L 124.686857 -283.705652 
L 125.285774 -283.705652 
L 125.884692 -283.705652 
L 126.483609 -285.507036 
L 127.082526 -285.507036 
L 127.681443 -286.41996 
L 128.28036 -287.308419 
L 128.879277 -287.308419 
L 129.478194 -287.308419 
L 130.077111 -287.308419 
L 130.676028 -287.308419 
L 131.274945 -285.507036 
L 131.873862 -287.030937 
L 132.47278 -287.308419 
L 133.071697 -287.308419 
L 133.670614 -287.308419 
L 134.269531 -287.822653 
L 134.868448 -289.109802 
L 135.467365 -289.109802 
L 136.066282 -289.109802 
L 136.665199 -287.308419 
L 137.264116 -287.308419 
L 137.863033 -289.109802 
L 138.461951 -287.337584 
L 139.060868 -287.308419 
L 139.659785 -287.308419 
L 140.258702 -287.308419 
L 140.857619 -287.308419 
L 141.456536 -287.308419 
L 142.055453 -289.074444 
L 142.65437 -287.918522 
L 143.253287 -289.109802 
L 143.852204 -289.109802 
L 144.451122 -289.109802 
L 145.050039 -289.109802 
L 145.648956 -289.109802 
L 146.247873 -289.109802 
L 146.84679 -290.31691 
L 147.445707 -290.911186 
L 148.044624 -290.911186 
L 148.643541 -290.911186 
L 149.242458 -290.911186 
L 149.841375 -290.911186 
L 150.440293 -290.911186 
L 151.03921 -290.911186 
L 151.638127 -290.911186 
L 152.237044 -291.364104 
L 152.835961 -292.712569 
L 153.434878 -292.712569 
L 154.033795 -292.712569 
L 154.632712 -292.712569 
L 155.231629 -292.712569 
L 155.830546 -292.712569 
L 156.429464 -292.712569 
L 157.028381 -292.712569 
L 157.627298 -292.712569 
L 158.226215 -292.712569 
L 158.825132 -292.712569 
L 159.424049 -292.712569 
L 160.022966 -292.712569 
L 160.621883 -292.712569 
L 161.2208 -292.712569 
L 161.819717 -292.712569 
L 162.418635 -292.712569 
L 163.017552 -292.712569 
L 163.616469 -292.712569 
L 164.215386 -292.712569 
L 164.814303 -292.712569 
L 165.41322 -292.712569 
L 166.012137 -292.712569 
L 166.611054 -292.712569 
L 167.209971 -293.753946 
L 167.808888 -294.513953 
L 168.407806 -294.513953 
L 169.006723 -294.513953 
L 169.60564 -294.513953 
L 170.204557 -294.513953 
L 170.803474 -294.513953 
L 171.402391 -294.513953 
L 172.001308 -294.513953 
L 172.600225 -294.513953 
L 173.199142 -294.513953 
L 173.798059 -292.712569 
L 174.396977 -293.198566 
L 174.995894 -294.513953 
L 175.594811 -294.513953 
L 176.193728 -294.513953 
L 176.792645 -294.513953 
L 177.391562 -294.513953 
L 177.990479 -294.513953 
L 178.589396 -294.513953 
L 179.188313 -294.513953 
L 179.78723 -294.513953 
L 180.386148 -294.513953 
L 180.985065 -294.513953 
L 181.583982 -294.513953 
L 182.182899 -294.513953 
L 182.781816 -294.513953 
L 183.380733 -294.513953 
L 183.97965 -294.513953 
L 184.578567 -294.513953 
L 185.177484 -294.513953 
L 185.776401 -294.513953 
L 186.375319 -294.513953 
L 186.974236 -294.513953 
L 187.573153 -294.513953 
L 188.17207 -294.513953 
L 188.770987 -294.513953 
L 189.369904 -294.513953 
L 189.968821 -294.513953 
L 190.567738 -294.513953 
L 191.166655 -294.513953 
L 191.765572 -294.513953 
L 192.364489 -294.513953 
L 192.963407 -294.513953 
L 193.562324 -294.513953 
L 194.161241 -294.513953 
L 194.760158 -294.513953 
L 195.359075 -294.513953 
L 195.957992 -294.513953 
L 196.556909 -294.513953 
L 197.155826 -294.513953 
L 197.754743 -294.513953 
L 198.35366 -294.513953 
L 198.952578 -294.513953 
L 199.551495 -294.513953 
L 200.150412 -294.513953 
L 200.749329 -294.513953 
L 201.348246 -295.132574 
L 201.947163 -296.315336 
L 202.54608 -296.315336 
L 203.144997 -296.315336 
L 203.743914 -296.315336 
L 204.342831 -296.315336 
L 204.941749 -296.315336 
L 205.540666 -296.315336 
L 206.139583 -296.315336 
L 206.7385 -296.315336 
L 207.337417 -296.315336 
L 207.936334 -296.315336 
L 208.535251 -296.315336 
L 209.134168 -296.315336 
L 209.733085 -296.315336 
L 210.332002 -296.315336 
L 210.93092 -296.11695 
L 211.529837 -296.315336 
L 212.128754 -296.315336 
L 212.727671 -296.315336 
L 213.326588 -296.315336 
L 213.925505 -296.315336 
L 214.524422 -296.315336 
L 215.123339 -296.315336 
L 215.722256 -296.315336 
L 216.321173 -296.315336 
L 216.920091 -296.315336 
L 217.519008 -296.315336 
L 218.117925 -296.315336 
L 218.716842 -296.315336 
L 219.315759 -296.315336 
L 219.914676 -296.315336 
L 220.513593 -296.315336 
L 221.11251 -296.315336 
L 221.711427 -296.315336 
L 222.310344 -296.315336 
L 222.909262 -296.315336 
L 223.508179 -296.315336 
L 224.107096 -296.315336 
L 224.706013 -296.315336 
L 225.30493 -296.315336 
L 225.903847 -296.315336 
L 226.502764 -296.315336 
L 227.101681 -296.315336 
L 227.700598 -296.315336 
L 228.299515 -296.315336 
L 228.898433 -296.315336 
L 229.49735 -296.315336 
L 230.096267 -296.315336 
L 230.695184 -296.315336 
L 231.294101 -296.315336 
L 231.893018 -296.315336 
L 232.491935 -296.315336 
L 233.090852 -296.315336 
L 233.689769 -296.315336 
L 234.288686 -296.315336 
L 234.887604 -296.315336 
L 235.486521 -296.315336 
L 236.085438 -296.315336 
L 236.684355 -296.315336 
L 237.283272 -296.315336 
L 237.882189 -296.315336 
L 238.481106 -296.315336 
L 239.080023 -296.315336 
L 239.67894 -296.315336 
L 240.277857 -296.315336 
L 240.876775 -296.315336 
L 241.475692 -296.315336 
L 242.074609 -296.315336 
L 242.673526 -296.315336 
L 243.272443 -296.315336 
L 243.87136 -296.315336 
L 244.470277 -296.315336 
L 245.069194 -296.315336 
L 245.668111 -296.315336 
L 246.267028 -296.315336 
L 246.865945 -296.315336 
L 247.464863 -296.315336 
L 248.06378 -296.315336 
L 248.662697 -296.315336 
L 249.261614 -296.315336 
L 249.860531 -296.315336 
L 250.459448 -296.315336 
L 251.058365 -298.116719 
L 251.657282 -298.116719 
L 252.256199 -298.116719 
L 252.855116 -298.116719 
L 253.454034 -298.116719 
L 254.052951 -298.116719 
L 254.651868 -298.116719 
L 255.250785 -298.116719 
L 255.849702 -298.116719 
L 256.448619 -298.116719 
L 257.047536 -298.116719 
L 257.646453 -298.116719 
L 258.24537 -298.116719 
L 258.844287 -298.116719 
L 259.443205 -298.116719 
L 260.042122 -298.116719 
L 260.641039 -298.116719 
L 261.239956 -298.116719 
L 261.838873 -298.116719 
L 262.43779 -298.116719 
L 263.036707 -298.116719 
L 263.635624 -298.116719 
L 264.234541 -298.116719 
L 264.833458 -298.116719 
L 265.432376 -298.116719 
L 266.031293 -298.116719 
L 266.63021 -298.116719 
L 267.229127 -298.116719 
L 267.828044 -298.116719 
L 268.426961 -298.116719 
L 269.025878 -298.116719 
L 269.624795 -298.116719 
L 270.223712 -298.116719 
L 270.822629 -298.116719 
L 271.421547 -298.116719 
L 272.020464 -298.116719 
L 272.619381 -298.116719 
L 273.218298 -298.116719 
L 273.817215 -298.116719 
L 274.416132 -298.116719 
L 275.015049 -298.116719 
L 275.613966 -298.116719 
L 276.212883 -298.116719 
L 276.8118 -298.116719 
L 277.410718 -298.116719 
L 278.009635 -298.116719 
L 278.608552 -298.116719 
L 279.207469 -298.116719 
L 279.806386 -298.116719 
L 280.405303 -298.116719 
L 281.00422 -298.116719 
L 281.603137 -298.116719 
L 282.202054 -298.116719 
L 282.800971 -298.116719 
L 283.399889 -298.116719 
L 283.998806 -298.116719 
L 284.597723 -298.116719 
L 285.19664 -298.116719 
L 285.795557 -298.116719 
L 286.394474 -298.116719 
L 286.993391 -298.116719 
L 287.592308 -298.116719 
L 288.191225 -298.116719 
L 288.790142 -298.116719 
L 289.38906 -298.116719 
L 289.987977 -298.116719 
L 290.586894 -298.116719 
L 291.185811 -298.116719 
L 291.784728 -298.116719 
L 292.383645 -298.116719 
L 292.982562 -298.116719 
L 293.581479 -298.116719 
L 294.180396 -298.116719 
L 294.779313 -298.116719 
L 295.378231 -298.116719 
L 295.977148 -298.116719 
L 296.576065 -298.116719 
L 297.174982 -298.116719 
L 297.773899 -298.116719 
L 298.372816 -298.116719 
L 298.971733 -298.116719 
L 299.57065 -298.116719 
L 300.169567 -298.116719 
L 300.768484 -298.116719 
L 301.367401 -298.116719 
L 301.966319 -298.116719 
L 302.565236 -298.116719 
L 303.164153 -298.116719 
L 303.76307 -298.116719 
L 304.361987 -298.116719 
L 304.960904 -298.116719 
L 305.559821 -298.116719 
L 306.158738 -298.116719 
L 306.757655 -298.116719 
L 307.356572 -298.116719 
L 307.95549 -298.116719 
L 308.554407 -298.116719 
L 309.153324 -298.116719 
L 309.752241 -298.116719 
L 310.351158 -298.116719 
L 310.950075 -298.116719 
L 311.548992 -298.116719 
L 312.147909 -298.116719 
L 312.746826 -298.116719 
L 313.345743 -298.116719 
L 313.944661 -298.116719 
L 314.543578 -298.116719 
L 315.142495 -298.116719 
L 315.741412 -298.116719 
L 316.340329 -298.116719 
L 316.939246 -298.116719 
L 317.538163 -298.116719 
L 318.13708 -298.116719 
L 318.735997 -298.116719 
L 319.334914 -298.116719 
L 319.933832 -298.116719 
L 320.532749 -298.116719 
L 321.131666 -298.116719 
L 321.730583 -298.116719 
L 322.3295 -298.116719 
L 322.928417 -298.116719 
L 323.527334 -298.116719 
L 324.126251 -298.116719 
L 324.725168 -298.116719 
L 325.324085 -298.116719 
L 325.923003 -298.116719 
L 326.52192 -298.116719 
L 327.120837 -298.116719 
L 327.719754 -298.116719 
L 328.318671 -298.116719 
L 328.917588 -298.116719 
L 329.516505 -298.116719 
L 330.115422 -298.116719 
L 330.714339 -298.116719 
L 331.313256 -298.116719 
L 331.912174 -298.116719 
L 332.511091 -298.116719 
L 333.110008 -298.116719 
L 333.708925 -298.116719 
L 334.307842 -298.116719 
L 334.906759 -298.116719 
L 335.505676 -298.116719 
L 336.104593 -298.116719 
L 336.70351 -298.116719 
L 337.302427 -298.116719 
L 337.901345 -299.487177 
L 338.500262 -299.918103 
L 339.099179 -299.918103 
L 339.698096 -299.918103 
L 340.297013 -299.918103 
L 340.89593 -299.918103 
L 341.494847 -298.116719 
L 342.093764 -298.896219 
L 342.692681 -298.116719 
L 343.291598 -298.187855 
L 343.890516 -299.918103 
L 344.489433 -299.918103 
L 345.08835 -299.918103 
L 345.687267 -299.918103 
L 346.286184 -299.918103 
L 346.885101 -299.918103 
L 347.484018 -299.918103 
L 348.082935 -299.918103 
L 348.681852 -299.918103 
L 349.280769 -299.918103 
L 349.879687 -299.918103 
L 350.478604 -299.918103 
L 351.077521 -299.918103 
L 351.676438 -299.918103 
L 352.275355 -299.918103 
L 352.874272 -299.918103 
L 353.473189 -299.641614 
L 354.072106 -298.479675 
L 354.671023 -298.116719 
L 355.26994 -299.918103 
L 355.868857 -299.918103 
L 356.467775 -299.918103 
L 357.066692 -299.918103 
L 357.665609 -299.918103 
L 358.264526 -299.918103 
L 358.863443 -299.918103 
L 359.46236 -299.918103 
L 360.061277 -299.918103 
L 360.660194 -299.918103 
L 361.259111 -299.918103 
L 361.858028 -299.918103 
L 362.456946 -299.918103 
L 363.055863 -299.918103 
L 363.65478 -299.918103 
L 364.253697 -299.109664 
L 364.852614 -299.918103 
L 365.451531 -299.918103 
L 366.050448 -299.918103 
L 366.649365 -299.918103 
L 367.248282 -299.918103 
L 367.847199 -298.125224 
L 368.446117 -299.918103 
L 369.045034 -299.918103 
L 369.643951 -299.918103 
L 370.242868 -299.918103 
L 370.841785 -299.918103 
L 371.440702 -299.918103 
L 372.039619 -299.918103 
L 372.638536 -299.046522 
L 373.237453 -299.918103 
L 373.83637 -299.918103 
L 374.435288 -299.918103 
L 375.034205 -299.918103 
L 375.633122 -299.918103 
L 376.232039 -299.918103 
L 376.830956 -299.918103 
L 377.429873 -299.918103 
L 378.02879 -299.918103 
L 378.627707 -299.918103 
L 379.226624 -299.918103 
L 379.825541 -299.918103 
L 380.424459 -299.918103 
L 381.023376 -299.918103 
L 381.622293 -298.116719 
L 382.22121 -298.116719 
L 382.820127 -298.116719 
L 383.419044 -298.116719 
L 384.017961 -298.886924 
L 384.616878 -298.143245 
L 385.215795 -299.182577 
L 385.814712 -299.918103 
L 386.41363 -299.918103 
L 387.012547 -299.918103 
L 387.611464 -299.918103 
L 388.210381 -299.918103 
L 388.809298 -299.918103 
L 389.408215 -299.918103 
L 390.007132 -299.918103 
L 390.606049 -299.918103 
L 391.204966 -299.918103 
L 391.803883 -299.918103 
L 392.402801 -299.918103 
L 393.001718 -299.918103 
L 393.600635 -299.918103 
L 394.199552 -299.918103 
L 394.798469 -299.918103 
L 395.397386 -299.918103 
L 395.996303 -299.918103 
L 396.59522 -299.918103 
L 397.194137 -299.918103 
L 397.793054 -299.918103 
L 398.391972 -299.918103 
L 398.990889 -299.918103 
L 399.589806 -299.918103 
L 400.188723 -299.918103 
L 400.78764 -299.918103 
L 401.386557 -299.918103 
L 401.985474 -299.918103 
L 402.584391 -299.918103 
L 403.183308 -299.918103 
L 403.782225 -299.918103 
L 404.381143 -299.918103 
L 404.98006 -299.918103 
L 405.578977 -299.918103 
L 406.177894 -299.918103 
L 406.776811 -299.918103 
L 407.375728 -299.918103 
L 407.974645 -299.918103 
L 408.573562 -299.918103 
L 409.172479 -299.918103 
L 409.771396 -299.918103 
L 410.370313 -299.918103 
L 410.969231 -299.918103 
L 411.568148 -299.918103 
L 412.167065 -299.918103 
L 412.765982 -299.918103 
L 413.364899 -299.918103 
L 413.963816 -299.918103 
L 414.562733 -299.918103 
L 415.16165 -299.918103 
L 415.760567 -299.918103 
L 416.359484 -299.918103 
L 416.958402 -299.918103 
L 417.557319 -299.918103 
L 418.156236 -299.918103 
L 418.755153 -299.918103 
L 419.35407 -299.918103 
L 419.952987 -299.918103 
L 420.551904 -299.918103 
L 421.150821 -299.918103 
L 421.749738 -299.918103 
L 422.348655 -299.918103 
L 422.947573 -299.918103 
L 423.54649 -299.918103 
L 424.145407 -299.918103 
L 424.744324 -299.918103 
L 425.343241 -299.918103 
L 425.942158 -299.918103 
L 426.541075 -299.918103 
L 427.139992 -299.918103 
L 427.738909 -299.918103 
L 428.337826 -299.918103 
L 428.936744 -299.918103 
L 429.535661 -299.918103 
L 430.134578 -299.918103 
L 430.733495 -299.918103 
L 431.332412 -299.918103 
L 431.931329 -299.918103 
L 432.530246 -299.918103 
L 433.129163 -299.918103 
L 433.72808 -299.918103 
L 434.326997 -299.918103 
L 434.925915 -299.918103 
L 435.524832 -299.918103 
L 436.123749 -299.918103 
L 436.722666 -299.918103 
L 437.321583 -299.918103 
L 437.9205 -299.918103 
L 438.519417 -299.918103 
L 439.118334 -299.918103 
L 439.717251 -299.918103 
L 440.316168 -299.918103 
L 440.915086 -299.918103 
L 441.514003 -299.918103 
L 442.11292 -299.918103 
L 442.711837 -299.918103 
L 443.310754 -299.918103 
L 443.909671 -299.918103 
L 444.508588 -299.918103 
L 445.107505 -299.918103 
L 445.706422 -299.918103 
L 446.305339 -299.918103 
L 446.904257 -299.918103 
L 447.503174 -299.918103 
L 448.102091 -299.918103 
L 448.701008 -299.918103 
L 449.299925 -299.918103 
L 449.898842 -299.918103 
L 450.497759 -299.918103 
L 451.096676 -299.918103 
L 451.695593 -299.918103 
L 452.29451 -299.918103 
L 452.893428 -299.918103 
L 453.492345 -299.918103 
L 454.091262 -299.918103 
L 454.690179 -299.918103 
L 455.289096 -299.918103 
L 455.888013 -299.918103 
L 456.48693 -299.918103 
L 457.085847 -299.918103 
L 457.684764 -299.918103 
L 458.283681 -299.918103 
L 458.882599 -299.918103 
L 459.481516 -299.918103 
L 460.080433 -299.918103 
L 460.67935 -299.918103 
L 461.278267 -299.918103 
L 461.877184 -299.918103 
L 462.476101 -299.918103 
L 463.075018 -299.918103 
L 463.673935 -299.918103 
L 464.272852 -299.918103 
L 464.871769 -299.918103 
L 465.470687 -299.918103 
L 466.069604 -299.918103 
L 466.668521 -299.918103 
L 467.267438 -299.918103 
L 467.866355 -299.918103 
L 468.465272 -299.918103 
L 469.064189 -299.918103 
L 469.663106 -299.918103 
L 470.262023 -299.918103 
L 470.86094 -299.918103 
L 471.459858 -299.918103 
L 472.058775 -299.918103 
L 472.657692 -299.918103 
L 473.256609 -299.918103 
L 473.855526 -299.918103 
L 474.454443 -299.918103 
L 475.05336 -299.918103 
L 475.652277 -299.918103 
L 476.251194 -299.918103 
L 476.850111 -299.918103 
L 477.449029 -299.918103 
L 478.047946 -299.918103 
L 478.646863 -299.918103 
L 479.24578 -299.918103 
L 479.844697 -299.918103 
L 480.443614 -299.918103 
L 481.042531 -299.918103 
L 481.641448 -299.918103 
L 482.240365 -299.918103 
L 482.839282 -299.918103 
L 483.4382 -299.918103 
L 484.037117 -299.918103 
L 484.636034 -299.918103 
L 485.234951 -299.918103 
L 485.833868 -299.918103 
L 486.432785 -299.918103 
L 487.031702 -299.918103 
L 487.630619 -299.918103 
L 488.229536 -299.918103 
L 488.828453 -299.918103 
L 489.427371 -299.918103 
L 490.026288 -299.918103 
L 490.625205 -299.918103 
L 491.224122 -299.918103 
L 491.823039 -299.918103 
L 492.421956 -299.918103 
L 493.020873 -299.918103 
L 493.61979 -299.918103 
L 494.218707 -299.918103 
L 494.817624 -299.918103 
L 495.416542 -299.918103 
L 496.015459 -299.918103 
L 496.614376 -299.918103 
L 497.213293 -299.918103 
L 497.81221 -299.918103 
L 498.411127 -299.918103 
L 499.010044 -299.918103 
L 499.608961 -299.918103 
L 500.207878 -299.918103 
L 500.806795 -299.918103 
L 501.405713 -299.918103 
L 502.00463 -299.918103 
L 502.603547 -299.918103 
L 503.202464 -299.918103 
L 503.801381 -299.918103 
L 504.400298 -299.918103 
L 504.999215 -299.918103 
L 505.598132 -299.918103 
L 506.197049 -299.918103 
L 506.795966 -299.918103 
L 507.394884 -299.918103 
L 507.993801 -299.918103 
L 508.592718 -299.918103 
L 509.191635 -299.918103 
L 509.790552 -299.918103 
L 510.389469 -299.918103 
L 510.988386 -299.918103 
L 511.587303 -299.918103 
L 512.18622 -299.918103 
L 512.785137 -299.918103 
L 513.384055 -299.918103 
L 513.982972 -299.918103 
L 514.581889 -299.918103 
L 515.180806 -299.918103 
L 515.779723 -299.918103 
L 516.37864 -299.918103 
L 516.977557 -299.918103 
L 517.576474 -299.918103 
L 518.175391 -299.918103 
L 518.774308 -299.918103 
L 519.373225 -299.918103 
L 519.972143 -299.918103 
L 520.57106 -299.918103 
L 521.169977 -299.918103 
L 521.768894 -299.918103 
L 522.367811 -299.918103 
L 522.966728 -299.918103 
L 523.565645 -299.918103 
L 524.164562 -299.918103 
L 524.763479 -299.918103 
L 525.362396 -299.918103 
L 525.961314 -299.918103 
L 526.560231 -299.918103 
L 527.159148 -299.918103 
L 527.758065 -299.918103 
L 528.356982 -299.918103 
L 528.955899 -299.918103 
L 529.554816 -299.918103 
L 530.153733 -299.918103 
L 530.75265 -299.918103 
L 531.351567 -299.918103 
L 531.950485 -299.918103 
L 532.549402 -299.918103 
L 533.148319 -299.918103 
L 533.747236 -299.918103 
L 534.346153 -299.918103 
L 534.94507 -299.918103 
L 535.543987 -299.918103 
L 536.142904 -299.918103 
L 536.741821 -299.918103 
L 537.340738 -299.918103 
L 537.939656 -299.918103 
L 538.538573 -299.918103 
L 539.13749 -299.918103 
L 539.736407 -299.918103 
L 540.335324 -299.918103 
L 540.934241 -299.918103 
L 541.533158 -299.918103 
L 542.132075 -299.918103 
L 542.730992 -299.918103 
L 543.329909 -299.918103 
L 543.928827 -299.918103 
L 544.527744 -299.918103 
L 545.126661 -299.918103 
L 545.725578 -299.918103 
L 546.324495 -299.918103 
L 546.923412 -299.918103 
L 547.522329 -299.918103 
L 548.121246 -299.918103 
L 548.720163 -299.918103 
L 549.31908 -299.918103 
L 549.917998 -299.918103 
L 550.516915 -299.918103 
L 551.115832 -299.918103 
L 551.714749 -299.918103 
L 552.313666 -299.918103 
L 552.912583 -299.918103 
L 553.5115 -299.918103 
L 554.110417 -299.918103 
L 554.709334 -299.918103 
L 555.308251 -299.918103 
L 555.907169 -299.918103 
L 556.506086 -299.918103 
L 557.105003 -299.918103 
L 557.70392 -299.918103 
L 558.302837 -299.918103 
L 558.901754 -299.918103 
L 559.500671 -299.918103 
L 560.099588 -299.918103 
L 560.698505 -299.918103 
L 561.297422 -299.918103 
L 561.89634 -299.918103 
L 562.495257 -299.918103 
L 563.094174 -299.918103 
L 563.693091 -299.918103 
L 564.292008 -299.918103 
L 564.890925 -299.918103 
L 565.489842 -299.918103 
L 566.088759 -299.918103 
L 566.687676 -299.918103 
L 567.286593 -299.918103 
L 567.885511 -299.918103 
L 568.484428 -299.918103 
L 569.083345 -299.918103 
L 569.682262 -299.918103 
L 570.281179 -299.918103 
L 570.880096 -299.918103 
L 571.479013 -299.918103 
L 572.07793 -299.918103 
L 572.676847 -299.918103 
L 573.275764 -299.918103 
L 573.874681 -299.918103 
L 574.473599 -299.918103 
L 575.072516 -299.918103 
L 575.671433 -299.918103 
L 576.27035 -299.918103 
L 576.869267 -299.918103 
L 577.468184 -299.918103 
L 578.067101 -299.918103 
L 578.666018 -299.918103 
L 579.264935 -299.918103 
L 579.863852 -299.918103 
L 580.46277 -299.918103 
L 581.061687 -299.918103 
L 581.660604 -299.918103 
L 582.259521 -299.918103 
L 582.858438 -299.918103 
L 583.457355 -299.918103 
L 584.056272 -299.918103 
L 584.655189 -299.918103 
L 585.254106 -299.918103 
L 585.853023 -299.918103 
L 586.451941 -299.918103 
L 587.050858 -299.918103 
L 587.649775 -299.918103 
L 588.248692 -299.918103 
L 588.847609 -299.918103 
L 589.446526 -299.918103 
L 590.045443 -299.918103 
L 590.64436 -299.918103 
L 591.243277 -299.918103 
L 591.842194 -299.918103 
L 592.441112 -299.918103 
L 593.040029 -299.918103 
L 593.638946 -299.918103 
L 594.237863 -299.918103 
L 594.83678 -299.918103 
L 595.435697 -299.918103 
L 596.034614 -299.918103 
L 596.633531 -299.918103 
L 597.232448 -299.918103 
L 597.831365 -299.918103 
L 598.430283 -299.918103 
L 599.0292 -299.918103 
L 599.628117 -299.918103 
L 600.227034 -299.918103 
L 600.825951 -299.918103 
L 601.424868 -299.918103 
L 602.023785 -299.918103 
L 602.622702 -299.918103 
L 603.221619 -299.918103 
L 603.820536 -299.918103 
L 604.419454 -299.918103 
L 605.018371 -299.918103 
L 605.617288 -299.918103 
L 606.216205 -299.918103 
L 606.815122 -299.918103 
L 607.414039 -299.918103 
L 608.012956 -299.918103 
L 608.611873 -299.918103 
L 609.21079 -299.918103 
L 609.809707 -299.918103 
L 610.408625 -299.918103 
L 611.007542 -299.918103 
L 611.606459 -299.918103 
L 612.205376 -299.918103 
L 612.804293 -299.918103 
L 613.40321 -299.918103 
L 614.002127 -299.918103 
L 614.601044 -299.918103 
L 615.199961 -299.918103 
L 615.798878 -299.918103 
L 616.397796 -299.918103 
L 616.996713 -299.918103 
L 617.59563 -299.918103 
L 618.194547 -299.918103 
L 618.793464 -299.918103 
L 619.392381 -299.918103 
L 619.991298 -299.918103 
L 620.590215 -299.918103 
L 621.189132 -299.918103 
L 621.788049 -299.918103 
L 622.386967 -299.918103 
L 622.985884 -299.918103 
L 623.584801 -299.918103 
L 624.183718 -299.918103 
L 624.782635 -299.918103 
L 625.381552 -299.918103 
L 625.980469 -299.918103 
L 626.579386 -299.918103 
L 627.178303 -299.918103 
L 627.77722 -299.918103 
L 628.376138 -299.918103 
L 628.975055 -299.918103 
L 629.573972 -299.918103 
L 630.172889 -299.918103 
L 630.771806 -299.918103 
L 631.370723 -299.918103 
L 631.96964 -299.918103 
L 632.568557 -299.918103 
L 633.167474 -299.918103 
L 633.766391 -299.918103 
L 634.365308 -299.918103 
L 634.964226 -299.918103 
L 635.563143 -299.918103 
L 636.16206 -299.918103 
L 636.760977 -299.918103 
L 637.359894 -299.918103 
L 637.958811 -299.918103 
L 638.557728 -299.918103 
L 639.156645 -299.918103 
L 639.755562 -299.918103 
L 640.354479 -299.918103 
L 640.953397 -299.918103 
L 641.552314 -299.918103 
L 642.151231 -299.918103 
L 642.750148 -299.918103 
L 643.349065 -299.918103 
L 643.947982 -299.918103 
L 644.546899 -299.918103 
L 645.145816 -299.918103 
L 645.744733 -299.918103 
L 646.34365 -299.918103 
L 646.942568 -299.918103 
L 647.541485 -299.918103 
L 648.140402 -299.918103 
L 648.739319 -299.918103 
L 649.338236 -299.918103 
L 649.937153 -299.918103 
L 650.53607 -299.918103 
L 651.134987 -299.918103 
L 651.733904 -299.918103 
L 652.332821 -299.918103 
L 652.931739 -299.918103 
L 653.530656 -299.918103 
L 654.129573 -299.918103 
L 654.72849 -299.918103 
L 655.327407 -299.918103 
L 655.926324 -299.918103 
L 656.525241 -299.918103 
L 657.124158 -299.918103 
L 657.723075 -299.918103 
L 658.321992 -299.918103 
L 658.92091 -299.918103 
L 659.519827 -299.918103 
L 660.118744 -299.918103 
L 660.717661 -299.918103 
L 661.316578 -299.918103 
L 661.915495 -299.918103 
L 662.514412 -299.918103 
L 663.113329 -299.918103 
L 663.712246 -299.918103 
L 664.311163 -299.918103 
L 664.910081 -299.918103 
L 665.508998 -299.918103 
L 666.107915 -299.918103 
L 666.706832 -299.918103 
L 667.305749 -299.918103 
L 667.904666 -299.918103 
L 668.503583 -299.918103 
L 669.1025 -299.918103 
L 669.701417 -299.918103 
L 670.300334 -299.918103 
L 670.899252 -299.918103 
L 671.498169 -299.918103 
L 672.097086 -299.918103 
L 672.696003 -299.918103 
L 673.29492 -299.918103 
L 673.893837 -299.918103 
L 674.492754 -299.918103 
L 675.091671 -299.918103 
L 675.690588 -299.918103 
L 676.289505 -299.918103 
L 676.888423 -299.918103 
L 677.48734 -299.918103 
L 678.086257 -299.918103 
L 678.685174 -299.918103 
L 679.284091 -299.918103 
L 679.284091 -389.987273 
L 679.284091 -389.987273 
L 678.685174 -389.987273 
L 678.086257 -389.987273 
L 677.48734 -389.987273 
L 676.888423 -389.987273 
L 676.289505 -389.987273 
L 675.690588 -389.987273 
L 675.091671 -389.987273 
L 674.492754 -389.987273 
L 673.893837 -389.987273 
L 673.29492 -389.987273 
L 672.696003 -389.987273 
L 672.097086 -389.987273 
L 671.498169 -389.987273 
L 670.899252 -389.987273 
L 670.300334 -389.987273 
L 669.701417 -389.987273 
L 669.1025 -389.987273 
L 668.503583 -389.987273 
L 667.904666 -389.987273 
L 667.305749 -389.987273 
L 666.706832 -389.987273 
L 666.107915 -389.987273 
L 665.508998 -389.987273 
L 664.910081 -389.987273 
L 664.311163 -389.987273 
L 663.712246 -389.987273 
L 663.113329 -389.987273 
L 662.514412 -389.987273 
L 661.915495 -389.987273 
L 661.316578 -389.987273 
L 660.717661 -389.987273 
L 660.118744 -389.987273 
L 659.519827 -389.987273 
L 658.92091 -389.987273 
L 658.321992 -389.987273 
L 657.723075 -389.987273 
L 657.124158 -389.987273 
L 656.525241 -389.987273 
L 655.926324 -389.987273 
L 655.327407 -389.987273 
L 654.72849 -389.987273 
L 654.129573 -389.987273 
L 653.530656 -389.987273 
L 652.931739 -389.987273 
L 652.332821 -389.987273 
L 651.733904 -389.987273 
L 651.134987 -389.987273 
L 650.53607 -389.987273 
L 649.937153 -389.987273 
L 649.338236 -389.987273 
L 648.739319 -389.987273 
L 648.140402 -389.987273 
L 647.541485 -389.987273 
L 646.942568 -389.987273 
L 646.34365 -389.987273 
L 645.744733 -389.987273 
L 645.145816 -389.987273 
L 644.546899 -389.987273 
L 643.947982 -389.987273 
L 643.349065 -389.987273 
L 642.750148 -389.987273 
L 642.151231 -389.987273 
L 641.552314 -389.987273 
L 640.953397 -389.987273 
L 640.354479 -389.987273 
L 639.755562 -389.987273 
L 639.156645 -389.987273 
L 638.557728 -389.987273 
L 637.958811 -389.987273 
L 637.359894 -389.987273 
L 636.760977 -389.987273 
L 636.16206 -389.987273 
L 635.563143 -389.987273 
L 634.964226 -389.987273 
L 634.365308 -389.987273 
L 633.766391 -389.987273 
L 633.167474 -389.987273 
L 632.568557 -389.987273 
L 631.96964 -389.987273 
L 631.370723 -389.987273 
L 630.771806 -389.987273 
L 630.172889 -389.987273 
L 629.573972 -389.987273 
L 628.975055 -389.987273 
L 628.376138 -389.987273 
L 627.77722 -389.987273 
L 627.178303 -389.987273 
L 626.579386 -389.987273 
L 625.980469 -389.987273 
L 625.381552 -389.987273 
L 624.782635 -389.987273 
L 624.183718 -389.987273 
L 623.584801 -389.987273 
L 622.985884 -389.987273 
L 622.386967 -389.987273 
L 621.788049 -389.987273 
L 621.189132 -389.987273 
L 620.590215 -389.987273 
L 619.991298 -389.987273 
L 619.392381 -389.987273 
L 618.793464 -389.987273 
L 618.194547 -389.987273 
L 617.59563 -389.987273 
L 616.996713 -389.987273 
L 616.397796 -389.987273 
L 615.798878 -389.987273 
L 615.199961 -389.987273 
L 614.601044 -389.987273 
L 614.002127 -389.987273 
L 613.40321 -389.987273 
L 612.804293 -389.987273 
L 612.205376 -389.987273 
L 611.606459 -389.987273 
L 611.007542 -389.987273 
L 610.408625 -389.987273 
L 609.809707 -389.987273 
L 609.21079 -389.987273 
L 608.611873 -389.987273 
L 608.012956 -389.987273 
L 607.414039 -389.987273 
L 606.815122 -389.987273 
L 606.216205 -389.987273 
L 605.617288 -389.987273 
L 605.018371 -389.987273 
L 604.419454 -389.987273 
L 603.820536 -389.987273 
L 603.221619 -389.987273 
L 602.622702 -389.987273 
L 602.023785 -389.987273 
L 601.424868 -389.987273 
L 600.825951 -389.987273 
L 600.227034 -389.987273 
L 599.628117 -389.987273 
L 599.0292 -389.987273 
L 598.430283 -389.987273 
L 597.831365 -389.987273 
L 597.232448 -389.987273 
L 596.633531 -389.987273 
L 596.034614 -389.987273 
L 595.435697 -389.987273 
L 594.83678 -389.987273 
L 594.237863 -389.987273 
L 593.638946 -389.987273 
L 593.040029 -389.987273 
L 592.441112 -389.987273 
L 591.842194 -389.987273 
L 591.243277 -389.987273 
L 590.64436 -389.987273 
L 590.045443 -389.987273 
L 589.446526 -389.987273 
L 588.847609 -389.987273 
L 588.248692 -389.987273 
L 587.649775 -389.987273 
L 587.050858 -389.987273 
L 586.451941 -389.987273 
L 585.853023 -389.987273 
L 585.254106 -389.987273 
L 584.655189 -389.987273 
L 584.056272 -389.987273 
L 583.457355 -389.987273 
L 582.858438 -389.987273 
L 582.259521 -389.987273 
L 581.660604 -389.987273 
L 581.061687 -389.987273 
L 580.46277 -389.987273 
L 579.863852 -389.987273 
L 579.264935 -389.987273 
L 578.666018 -389.987273 
L 578.067101 -389.987273 
L 577.468184 -389.987273 
L 576.869267 -389.987273 
L 576.27035 -389.987273 
L 575.671433 -389.987273 
L 575.072516 -389.987273 
L 574.473599 -389.987273 
L 573.874681 -389.987273 
L 573.275764 -389.987273 
L 572.676847 -389.987273 
L 572.07793 -389.987273 
L 571.479013 -389.987273 
L 570.880096 -389.987273 
L 570.281179 -389.987273 
L 569.682262 -389.987273 
L 569.083345 -389.987273 
L 568.484428 -389.987273 
L 567.885511 -389.987273 
L 567.286593 -389.987273 
L 566.687676 -389.987273 
L 566.088759 -389.987273 
L 565.489842 -389.987273 
L 564.890925 -389.987273 
L 564.292008 -389.987273 
L 563.693091 -389.987273 
L 563.094174 -389.987273 
L 562.495257 -389.987273 
L 561.89634 -389.987273 
L 561.297422 -389.987273 
L 560.698505 -389.987273 
L 560.099588 -389.987273 
L 559.500671 -389.987273 
L 558.901754 -389.987273 
L 558.302837 -389.987273 
L 557.70392 -389.987273 
L 557.105003 -389.987273 
L 556.506086 -389.987273 
L 555.907169 -389.987273 
L 555.308251 -389.987273 
L 554.709334 -389.987273 
L 554.110417 -389.987273 
L 553.5115 -389.987273 
L 552.912583 -389.987273 
L 552.313666 -389.987273 
L 551.714749 -389.987273 
L 551.115832 -389.987273 
L 550.516915 -389.987273 
L 549.917998 -389.987273 
L 549.31908 -389.987273 
L 548.720163 -389.987273 
L 548.121246 -389.987273 
L 547.522329 -389.987273 
L 546.923412 -389.987273 
L 546.324495 -389.987273 
L 545.725578 -389.987273 
L 545.126661 -389.987273 
L 544.527744 -389.987273 
L 543.928827 -389.987273 
L 543.329909 -389.987273 
L 542.730992 -389.987273 
L 542.132075 -389.987273 
L 541.533158 -389.987273 
L 540.934241 -389.987273 
L 540.335324 -389.987273 
L 539.736407 -389.987273 
L 539.13749 -389.987273 
L 538.538573 -389.987273 
L 537.939656 -389.987273 
L 537.340738 -389.987273 
L 536.741821 -389.987273 
L 536.142904 -389.987273 
L 535.543987 -389.987273 
L 534.94507 -389.987273 
L 534.346153 -389.987273 
L 533.747236 -389.987273 
L 533.148319 -389.987273 
L 532.549402 -389.987273 
L 531.950485 -389.987273 
L 531.351567 -389.987273 
L 530.75265 -389.987273 
L 530.153733 -389.987273 
L 529.554816 -389.987273 
L 528.955899 -389.987273 
L 528.356982 -389.987273 
L 527.758065 -389.987273 
L 527.159148 -389.987273 
L 526.560231 -389.987273 
L 525.961314 -389.987273 
L 525.362396 -389.987273 
L 524.763479 -389.987273 
L 524.164562 -389.987273 
L 523.565645 -389.987273 
L 522.966728 -389.987273 
L 522.367811 -389.987273 
L 521.768894 -389.987273 
L 521.169977 -389.987273 
L 520.57106 -389.987273 
L 519.972143 -389.987273 
L 519.373225 -389.987273 
L 518.774308 -389.987273 
L 518.175391 -389.987273 
L 517.576474 -389.987273 
L 516.977557 -389.987273 
L 516.37864 -389.987273 
L 515.779723 -389.987273 
L 515.180806 -389.987273 
L 514.581889 -389.987273 
L 513.982972 -389.987273 
L 513.384055 -389.987273 
L 512.785137 -389.987273 
L 512.18622 -389.987273 
L 511.587303 -389.987273 
L 510.988386 -389.987273 
L 510.389469 -389.987273 
L 509.790552 -389.987273 
L 509.191635 -389.987273 
L 508.592718 -389.987273 
L 507.993801 -389.987273 
L 507.394884 -389.987273 
L 506.795966 -389.987273 
L 506.197049 -389.987273 
L 505.598132 -389.987273 
L 504.999215 -389.987273 
L 504.400298 -389.987273 
L 503.801381 -389.987273 
L 503.202464 -389.987273 
L 502.603547 -389.987273 
L 502.00463 -389.987273 
L 501.405713 -389.987273 
L 500.806795 -389.987273 
L 500.207878 -389.987273 
L 499.608961 -389.987273 
L 499.010044 -389.987273 
L 498.411127 -389.987273 
L 497.81221 -389.987273 
L 497.213293 -389.987273 
L 496.614376 -389.987273 
L 496.015459 -389.987273 
L 495.416542 -389.987273 
L 494.817624 -389.987273 
L 494.218707 -389.987273 
L 493.61979 -389.987273 
L 493.020873 -389.987273 
L 492.421956 -389.987273 
L 491.823039 -389.987273 
L 491.224122 -389.987273 
L 490.625205 -389.987273 
L 490.026288 -389.987273 
L 489.427371 -389.987273 
L 488.828453 -389.987273 
L 488.229536 -389.987273 
L 487.630619 -389.987273 
L 487.031702 -389.987273 
L 486.432785 -389.987273 
L 485.833868 -389.987273 
L 485.234951 -389.987273 
L 484.636034 -389.987273 
L 484.037117 -389.987273 
L 483.4382 -389.987273 
L 482.839282 -389.987273 
L 482.240365 -389.987273 
L 481.641448 -389.987273 
L 481.042531 -389.987273 
L 480.443614 -389.987273 
L 479.844697 -389.987273 
L 479.24578 -389.987273 
L 478.646863 -389.987273 
L 478.047946 -389.987273 
L 477.449029 -389.987273 
L 476.850111 -389.987273 
L 476.251194 -389.987273 
L 475.652277 -389.987273 
L 475.05336 -389.987273 
L 474.454443 -389.987273 
L 473.855526 -389.987273 
L 473.256609 -389.987273 
L 472.657692 -389.987273 
L 472.058775 -389.987273 
L 471.459858 -389.987273 
L 470.86094 -389.987273 
L 470.262023 -389.987273 
L 469.663106 -389.987273 
L 469.064189 -389.987273 
L 468.465272 -389.987273 
L 467.866355 -389.987273 
L 467.267438 -389.987273 
L 466.668521 -389.987273 
L 466.069604 -389.987273 
L 465.470687 -389.987273 
L 464.871769 -389.987273 
L 464.272852 -389.987273 
L 463.673935 -389.987273 
L 463.075018 -389.987273 
L 462.476101 -389.987273 
L 461.877184 -389.987273 
L 461.278267 -389.987273 
L 460.67935 -389.987273 
L 460.080433 -389.987273 
L 459.481516 -389.987273 
L 458.882599 -389.987273 
L 458.283681 -389.987273 
L 457.684764 -389.987273 
L 457.085847 -389.987273 
L 456.48693 -389.987273 
L 455.888013 -389.987273 
L 455.289096 -389.987273 
L 454.690179 -389.987273 
L 454.091262 -389.987273 
L 453.492345 -389.987273 
L 452.893428 -389.987273 
L 452.29451 -389.987273 
L 451.695593 -389.987273 
L 451.096676 -389.987273 
L 450.497759 -389.987273 
L 449.898842 -389.987273 
L 449.299925 -389.987273 
L 448.701008 -389.987273 
L 448.102091 -389.987273 
L 447.503174 -389.987273 
L 446.904257 -389.987273 
L 446.305339 -389.987273 
L 445.706422 -389.987273 
L 445.107505 -389.987273 
L 444.508588 -389.987273 
L 443.909671 -389.987273 
L 443.310754 -389.987273 
L 442.711837 -389.84552 
L 442.11292 -389.603559 
L 441.514003 -389.361598 
L 440.915086 -389.119637 
L 440.316168 -388.877676 
L 439.717251 -388.635715 
L 439.118334 -388.393754 
L 438.519417 -388.185889 
L 437.9205 -388.185889 
L 437.321583 -388.185889 
L 436.722666 -388.185889 
L 436.123749 -388.185889 
L 435.524832 -388.185889 
L 434.925915 -388.185889 
L 434.326997 -388.185889 
L 433.72808 -388.185889 
L 433.129163 -388.185889 
L 432.530246 -388.185889 
L 431.931329 -388.185889 
L 431.332412 -388.185889 
L 430.733495 -388.185889 
L 430.134578 -388.185889 
L 429.535661 -388.185889 
L 428.936744 -388.185889 
L 428.337826 -388.185889 
L 427.738909 -388.185889 
L 427.139992 -388.185889 
L 426.541075 -388.185889 
L 425.942158 -388.185889 
L 425.343241 -388.185889 
L 424.744324 -388.185889 
L 424.145407 -388.185889 
L 423.54649 -388.185889 
L 422.947573 -388.185889 
L 422.348655 -388.185889 
L 421.749738 -388.185889 
L 421.150821 -388.185889 
L 420.551904 -388.185889 
L 419.952987 -388.185889 
L 419.35407 -388.185889 
L 418.755153 -388.185889 
L 418.156236 -388.185889 
L 417.557319 -388.185889 
L 416.958402 -388.185889 
L 416.359484 -388.185889 
L 415.760567 -388.185889 
L 415.16165 -388.185889 
L 414.562733 -388.185889 
L 413.963816 -388.185889 
L 413.364899 -388.185889 
L 412.765982 -388.185889 
L 412.167065 -388.185889 
L 411.568148 -388.185889 
L 410.969231 -388.185889 
L 410.370313 -388.185889 
L 409.771396 -388.185889 
L 409.172479 -388.185889 
L 408.573562 -388.185889 
L 407.974645 -388.185889 
L 407.375728 -388.185889 
L 406.776811 -388.185889 
L 406.177894 -388.185889 
L 405.578977 -388.185889 
L 404.98006 -388.185889 
L 404.381143 -388.185889 
L 403.782225 -388.185889 
L 403.183308 -388.185889 
L 402.584391 -388.185889 
L 401.985474 -388.185889 
L 401.386557 -388.185889 
L 400.78764 -388.185889 
L 400.188723 -388.185889 
L 399.589806 -388.185889 
L 398.990889 -388.185889 
L 398.391972 -388.185889 
L 397.793054 -388.185889 
L 397.194137 -388.185889 
L 396.59522 -388.185889 
L 395.996303 -388.185889 
L 395.397386 -388.185889 
L 394.798469 -388.185889 
L 394.199552 -388.185889 
L 393.600635 -388.185889 
L 393.001718 -388.185889 
L 392.402801 -388.185889 
L 391.803883 -388.185889 
L 391.204966 -388.185889 
L 390.606049 -388.185889 
L 390.007132 -388.185889 
L 389.408215 -388.185889 
L 388.809298 -388.185889 
L 388.210381 -388.185889 
L 387.611464 -388.185889 
L 387.012547 -388.185889 
L 386.41363 -388.185889 
L 385.814712 -388.185889 
L 385.215795 -388.185889 
L 384.616878 -388.185889 
L 384.017961 -388.185889 
L 383.419044 -388.185889 
L 382.820127 -388.185889 
L 382.22121 -388.185889 
L 381.622293 -388.185889 
L 381.023376 -388.185889 
L 380.424459 -388.185889 
L 379.825541 -388.185889 
L 379.226624 -388.185889 
L 378.627707 -388.185889 
L 378.02879 -388.185889 
L 377.429873 -388.185889 
L 376.830956 -388.185889 
L 376.232039 -388.185889 
L 375.633122 -388.185889 
L 375.034205 -388.185889 
L 374.435288 -388.185889 
L 373.83637 -388.185889 
L 373.237453 -388.185889 
L 372.638536 -388.185889 
L 372.039619 -388.185889 
L 371.440702 -388.185889 
L 370.841785 -388.185889 
L 370.242868 -388.185889 
L 369.643951 -388.185889 
L 369.045034 -388.185889 
L 368.446117 -388.185889 
L 367.847199 -388.185889 
L 367.248282 -388.185889 
L 366.649365 -388.185889 
L 366.050448 -388.185889 
L 365.451531 -388.185889 
L 364.852614 -388.185889 
L 364.253697 -388.185889 
L 363.65478 -388.185889 
L 363.055863 -388.185889 
L 362.456946 -388.185889 
L 361.858028 -388.185889 
L 361.259111 -388.185889 
L 360.660194 -388.185889 
L 360.061277 -388.185889 
L 359.46236 -388.185889 
L 358.863443 -388.185889 
L 358.264526 -388.185889 
L 357.665609 -388.185889 
L 357.066692 -388.185889 
L 356.467775 -388.185889 
L 355.868857 -388.185889 
L 355.26994 -388.185889 
L 354.671023 -388.185889 
L 354.072106 -388.185889 
L 353.473189 -388.185889 
L 352.874272 -388.185889 
L 352.275355 -388.185889 
L 351.676438 -388.185889 
L 351.077521 -388.185889 
L 350.478604 -388.185889 
L 349.879687 -388.185889 
L 349.280769 -388.185889 
L 348.681852 -388.185889 
L 348.082935 -388.185889 
L 347.484018 -388.185889 
L 346.885101 -388.185889 
L 346.286184 -388.185889 
L 345.687267 -388.185889 
L 345.08835 -388.185889 
L 344.489433 -388.185889 
L 343.890516 -388.185889 
L 343.291598 -388.185889 
L 342.692681 -388.185889 
L 342.093764 -388.185889 
L 341.494847 -388.185889 
L 340.89593 -388.185889 
L 340.297013 -388.185889 
L 339.698096 -388.185889 
L 339.099179 -388.185889 
L 338.500262 -388.185889 
L 337.901345 -388.185889 
L 337.302427 -388.185889 
L 336.70351 -388.114113 
L 336.104593 -387.922571 
L 335.505676 -387.731029 
L 334.906759 -387.539488 
L 334.307842 -387.347946 
L 333.708925 -387.156404 
L 333.110008 -386.964862 
L 332.511091 -386.77332 
L 331.912174 -386.581778 
L 331.313256 -386.390236 
L 330.714339 -386.384506 
L 330.115422 -386.384506 
L 329.516505 -386.384506 
L 328.917588 -386.384506 
L 328.318671 -386.384506 
L 327.719754 -386.384506 
L 327.120837 -386.384506 
L 326.52192 -386.384506 
L 325.923003 -386.384506 
L 325.324085 -386.384506 
L 324.725168 -386.384506 
L 324.126251 -386.384506 
L 323.527334 -386.384506 
L 322.928417 -386.384506 
L 322.3295 -386.384506 
L 321.730583 -386.384506 
L 321.131666 -386.384506 
L 320.532749 -386.384506 
L 319.933832 -386.384506 
L 319.334914 -386.384506 
L 318.735997 -386.384506 
L 318.13708 -386.384506 
L 317.538163 -386.384506 
L 316.939246 -386.384506 
L 316.340329 -386.384506 
L 315.741412 -386.384506 
L 315.142495 -386.384506 
L 314.543578 -386.384506 
L 313.944661 -386.384506 
L 313.345743 -386.384506 
L 312.746826 -386.384506 
L 312.147909 -386.384506 
L 311.548992 -386.384506 
L 310.950075 -386.384506 
L 310.351158 -386.384506 
L 309.752241 -386.384506 
L 309.153324 -386.384506 
L 308.554407 -386.384506 
L 307.95549 -386.384506 
L 307.356572 -386.384506 
L 306.757655 -386.384506 
L 306.158738 -386.384506 
L 305.559821 -386.384506 
L 304.960904 -386.384506 
L 304.361987 -386.384506 
L 303.76307 -386.384506 
L 303.164153 -386.384506 
L 302.565236 -386.384506 
L 301.966319 -386.384506 
L 301.367401 -386.384506 
L 300.768484 -386.384506 
L 300.169567 -386.384506 
L 299.57065 -386.384506 
L 298.971733 -386.384506 
L 298.372816 -386.384506 
L 297.773899 -386.384506 
L 297.174982 -386.384506 
L 296.576065 -386.384506 
L 295.977148 -386.384506 
L 295.378231 -386.384506 
L 294.779313 -386.384506 
L 294.180396 -386.384506 
L 293.581479 -386.384506 
L 292.982562 -386.384506 
L 292.383645 -386.384506 
L 291.784728 -386.384506 
L 291.185811 -386.384506 
L 290.586894 -386.384506 
L 289.987977 -386.384506 
L 289.38906 -386.384506 
L 288.790142 -386.384506 
L 288.191225 -386.384506 
L 287.592308 -386.384506 
L 286.993391 -386.384506 
L 286.394474 -386.384506 
L 285.795557 -386.384506 
L 285.19664 -386.384506 
L 284.597723 -386.384506 
L 283.998806 -386.384506 
L 283.399889 -386.384506 
L 282.800971 -386.384506 
L 282.202054 -386.384506 
L 281.603137 -386.384506 
L 281.00422 -386.384506 
L 280.405303 -386.384506 
L 279.806386 -386.384506 
L 279.207469 -386.384506 
L 278.608552 -386.384506 
L 278.009635 -386.24287 
L 277.410718 -386.047231 
L 276.8118 -385.851592 
L 276.212883 -385.655953 
L 275.613966 -385.460314 
L 275.015049 -385.264675 
L 274.416132 -385.069036 
L 273.817215 -384.873397 
L 273.218298 -384.677758 
L 272.619381 -384.583123 
L 272.020464 -384.583123 
L 271.421547 -384.583123 
L 270.822629 -384.583123 
L 270.223712 -384.583123 
L 269.624795 -384.583123 
L 269.025878 -384.583123 
L 268.426961 -384.583123 
L 267.828044 -384.583123 
L 267.229127 -384.583123 
L 266.63021 -384.583123 
L 266.031293 -384.583123 
L 265.432376 -384.583123 
L 264.833458 -384.583123 
L 264.234541 -384.583123 
L 263.635624 -384.583123 
L 263.036707 -384.583123 
L 262.43779 -384.583123 
L 261.838873 -384.583123 
L 261.239956 -384.583123 
L 260.641039 -384.583123 
L 260.042122 -384.583123 
L 259.443205 -384.583123 
L 258.844287 -384.583123 
L 258.24537 -384.583123 
L 257.646453 -384.583123 
L 257.047536 -384.583123 
L 256.448619 -384.583123 
L 255.849702 -384.583123 
L 255.250785 -384.583123 
L 254.651868 -384.583123 
L 254.052951 -384.583123 
L 253.454034 -384.583123 
L 252.855116 -384.583123 
L 252.256199 -384.583123 
L 251.657282 -384.583123 
L 251.058365 -384.583123 
L 250.459448 -384.583123 
L 249.860531 -384.583123 
L 249.261614 -384.583123 
L 248.662697 -384.583123 
L 248.06378 -384.583123 
L 247.464863 -384.583123 
L 246.865945 -384.583123 
L 246.267028 -384.583123 
L 245.668111 -384.583123 
L 245.069194 -384.583123 
L 244.470277 -384.583123 
L 243.87136 -384.583123 
L 243.272443 -384.583123 
L 242.673526 -384.583123 
L 242.074609 -384.583123 
L 241.475692 -384.583123 
L 240.876775 -384.583123 
L 240.277857 -384.583123 
L 239.67894 -384.583123 
L 239.080023 -384.583123 
L 238.481106 -384.583123 
L 237.882189 -384.583123 
L 237.283272 -384.583123 
L 236.684355 -384.583123 
L 236.085438 -384.583123 
L 235.486521 -384.583123 
L 234.887604 -384.421313 
L 234.288686 -384.227539 
L 233.689769 -384.033766 
L 233.090852 -383.839992 
L 232.491935 -383.646218 
L 231.893018 -383.452444 
L 231.294101 -383.258671 
L 230.695184 -383.064897 
L 230.096267 -382.871123 
L 229.49735 -382.781739 
L 228.898433 -382.781739 
L 228.299515 -382.781739 
L 227.700598 -382.781739 
L 227.101681 -382.781739 
L 226.502764 -382.781739 
L 225.903847 -382.781739 
L 225.30493 -382.781739 
L 224.706013 -382.781739 
L 224.107096 -382.781739 
L 223.508179 -382.781739 
L 222.909262 -382.781739 
L 222.310344 -382.781739 
L 221.711427 -382.781739 
L 221.11251 -382.781739 
L 220.513593 -382.781739 
L 219.914676 -382.781739 
L 219.315759 -382.781739 
L 218.716842 -382.781739 
L 218.117925 -382.781739 
L 217.519008 -382.781739 
L 216.920091 -382.781739 
L 216.321173 -382.781739 
L 215.722256 -382.781739 
L 215.123339 -382.781739 
L 214.524422 -382.781739 
L 213.925505 -382.781739 
L 213.326588 -382.781739 
L 212.727671 -382.781739 
L 212.128754 -382.781739 
L 211.529837 -382.781739 
L 210.93092 -382.781739 
L 210.332002 -382.781739 
L 209.733085 -382.781739 
L 209.134168 -382.781739 
L 208.535251 -382.781739 
L 207.936334 -382.781739 
L 207.337417 -382.774324 
L 206.7385 -382.580755 
L 206.139583 -382.387187 
L 205.540666 -382.193618 
L 204.941749 -382.000049 
L 204.342831 -381.80648 
L 203.743914 -381.612912 
L 203.144997 -381.419343 
L 202.54608 -381.225774 
L 201.947163 -381.032205 
L 201.348246 -380.980356 
L 200.749329 -380.980356 
L 200.150412 -380.980356 
L 199.551495 -380.980356 
L 198.952578 -380.980356 
L 198.35366 -380.980356 
L 197.754743 -380.980356 
L 197.155826 -380.980356 
L 196.556909 -380.980356 
L 195.957992 -380.980356 
L 195.359075 -380.980356 
L 194.760158 -380.980356 
L 194.161241 -380.980356 
L 193.562324 -380.980356 
L 192.963407 -380.980356 
L 192.364489 -380.980356 
L 191.765572 -380.980356 
L 191.166655 -380.980356 
L 190.567738 -380.980356 
L 189.968821 -380.980356 
L 189.369904 -380.980356 
L 188.770987 -380.980356 
L 188.17207 -380.980356 
L 187.573153 -380.980356 
L 186.974236 -380.980356 
L 186.375319 -380.980356 
L 185.776401 -380.980356 
L 185.177484 -380.860955 
L 184.578567 -380.644735 
L 183.97965 -380.428515 
L 183.380733 -380.212294 
L 182.781816 -379.996074 
L 182.182899 -379.779853 
L 181.583982 -379.563633 
L 180.985065 -379.347413 
L 180.386148 -379.178972 
L 179.78723 -379.178972 
L 179.188313 -379.178972 
L 178.589396 -379.178972 
L 177.990479 -379.178972 
L 177.391562 -379.178972 
L 176.792645 -379.178972 
L 176.193728 -379.178972 
L 175.594811 -379.178972 
L 174.995894 -379.178972 
L 174.396977 -379.178972 
L 173.798059 -379.019681 
L 173.199142 -378.848405 
L 172.600225 -378.677129 
L 172.001308 -378.505854 
L 171.402391 -378.334578 
L 170.803474 -378.163302 
L 170.204557 -377.992026 
L 169.60564 -377.820751 
L 169.006723 -377.649475 
L 168.407806 -377.478199 
L 167.808888 -377.377589 
L 167.209971 -377.377589 
L 166.611054 -377.377589 
L 166.012137 -377.377589 
L 165.41322 -377.377589 
L 164.814303 -377.377589 
L 164.215386 -377.377589 
L 163.616469 -377.324153 
L 163.017552 -377.135183 
L 162.418635 -376.946214 
L 161.819717 -376.757244 
L 161.2208 -376.568275 
L 160.621883 -376.379305 
L 160.022966 -376.190336 
L 159.424049 -376.001366 
L 158.825132 -375.812397 
L 158.226215 -375.623427 
L 157.627298 -375.507446 
L 157.028381 -375.324524 
L 156.429464 -375.141602 
L 155.830546 -374.958679 
L 155.231629 -374.775757 
L 154.632712 -374.592834 
L 154.033795 -374.409912 
L 153.434878 -374.226989 
L 152.835961 -374.044067 
L 152.237044 -373.861144 
L 151.638127 -373.774822 
L 151.03921 -373.774822 
L 150.440293 -373.687305 
L 149.841375 -373.492914 
L 149.242458 -373.298522 
L 148.643541 -373.104131 
L 148.044624 -372.909739 
L 147.445707 -372.715347 
L 146.84679 -372.520956 
L 146.247873 -372.326564 
L 145.648956 -372.132173 
L 145.050039 -371.973439 
L 144.451122 -371.973439 
L 143.852204 -371.973439 
L 143.253287 -371.973439 
L 142.65437 -371.973439 
L 142.055453 -371.973439 
L 141.456536 -371.62732 
L 140.857619 -371.24899 
L 140.258702 -370.870661 
L 139.659785 -370.533974 
L 139.060868 -370.377228 
L 138.461951 -370.220482 
L 137.863033 -369.907047 
L 137.264116 -369.523562 
L 136.665199 -369.140077 
L 136.066282 -368.756592 
L 135.467365 -368.373106 
L 134.868448 -367.989621 
L 134.269531 -367.628471 
L 133.670614 -367.409664 
L 133.071697 -367.190857 
L 132.47278 -366.972051 
L 131.873862 -366.753244 
L 131.274945 -366.513042 
L 130.676028 -366.159909 
L 130.077111 -365.806777 
L 129.478194 -365.453645 
L 128.879277 -365.194914 
L 128.28036 -364.976629 
L 127.681443 -364.74846 
L 127.082526 -364.304473 
L 126.483609 -363.860487 
L 125.884692 -363.4165 
L 125.285774 -362.98172 
L 124.686857 -362.567775 
L 124.08794 -362.151095 
L 123.489023 -361.734415 
L 122.890106 -361.317736 
L 122.291189 -360.901056 
L 121.692272 -360.484376 
L 121.093355 -360.067696 
L 120.494438 -359.651016 
L 119.895521 -359.147729 
L 119.296603 -358.452206 
L 118.697686 -357.956256 
L 118.098769 -357.465542 
L 117.499852 -356.817647 
L 116.900935 -356.169752 
L 116.302018 -355.521856 
L 115.703101 -354.873961 
L 115.104184 -354.226065 
L 114.505267 -353.57817 
L 113.90635 -352.930275 
L 113.307432 -352.282379 
L 112.708515 -351.483793 
L 112.109598 -350.676078 
L 111.510681 -350.083457 
L 110.911764 -349.490835 
L 110.312847 -348.898214 
L 109.71393 -348.119725 
L 109.115013 -347.086265 
L 108.516096 -346.052805 
L 107.917179 -345.019345 
L 107.318261 -343.985884 
L 106.719344 -342.952424 
L 106.120427 -341.918964 
L 105.52151 -340.885504 
L 104.922593 -339.852043 
L 104.323676 -338.818583 
L 103.724759 -337.785123 
L 103.125842 -336.751663 
L 102.526925 -335.598533 
L 101.928008 -334.021615 
L 101.32909 -332.444697 
L 100.730173 -330.86778 
L 100.131256 -329.290862 
L 99.532339 -327.713944 
L 98.933422 -326.137026 
L 98.334505 -324.560109 
L 97.735588 -322.983191 
L 97.136671 -321.293859 
L 96.537754 -318.336683 
L 95.938837 -315.379507 
L 95.339919 -312.422331 
L 94.741002 -309.465155 
L 94.142085 -306.507979 
L 93.543168 -303.550803 
L 92.944251 -300.593627 
L 92.345334 -297.636451 
L 91.746417 -292.90622 
L 91.1475 -289.173815 
L 90.548583 -283.705652 
L 89.949666 -283.705652 
L 89.350748 -283.705652 
L 88.751831 -283.705652 
L 88.152914 -283.705652 
L 87.553997 -283.705652 
L 86.95508 -283.705652 
L 86.356163 -283.705652 
L 85.757246 -283.705652 
L 85.158329 -283.705652 
L 84.559412 -283.705652 
L 83.960495 -283.705652 
L 83.361577 -283.705652 
L 82.76266 -283.705652 
L 82.163743 -283.705652 
L 81.564826 -283.705652 
L 80.965909 -283.705652 
z
" style="stroke: #ff8c00; stroke-opacity: 0.3"/>
    </defs>
    <g clip-path="url(#p18bb328efd)">
     <use xlink:href="#m04e08e3db4" x="0" y="432" style="fill: #ff8c00; fill-opacity: 0.3; stroke: #ff8c00; stroke-opacity: 0.3"/>
    </g>
   </g>
   <g id="matplotlib.axis_1">
    <g id="xtick_1">
     <g id="line2d_1">
      <defs>
       <path id="m1d71db7e9e" d="M 0 0 
L 0 3.5 
" style="stroke: #000000; stroke-width: 0.8"/>
      </defs>
      <g>
       <use xlink:href="#m1d71db7e9e" x="80.830255" y="390.04" style="stroke: #000000; stroke-width: 0.8"/>
      </g>
     </g>
     <g id="text_1">
      <!-- 0 -->
      <g transform="translate(77.649005 404.638438) scale(0.1 -0.1)">
       <defs>
        <path id="DejaVuSans-30" d="M 2034 4250 
Q 1547 4250 1301 3770 
Q 1056 3291 1056 2328 
Q 1056 1369 1301 889 
Q 1547 409 2034 409 
Q 2525 409 2770 889 
Q 3016 1369 3016 2328 
Q 3016 3291 2770 3770 
Q 2525 4250 2034 4250 
z
M 2034 4750 
Q 2819 4750 3233 4129 
Q 3647 3509 3647 2328 
Q 3647 1150 3233 529 
Q 2819 -91 2034 -91 
Q 1250 -91 836 529 
Q 422 1150 422 2328 
Q 422 3509 836 4129 
Q 1250 4750 2034 4750 
z
" transform="scale(0.015625)"/>
       </defs>
       <use xlink:href="#DejaVuSans-30"/>
      </g>
     </g>
    </g>
    <g id="xtick_2">
     <g id="line2d_2">
      <g>
       <use xlink:href="#m1d71db7e9e" x="198.790545" y="390.04" style="stroke: #000000; stroke-width: 0.8"/>
      </g>
     </g>
     <g id="text_2">
      <!-- 20000 -->
      <g transform="translate(182.884295 404.638438) scale(0.1 -0.1)">
       <defs>
        <path id="DejaVuSans-32" d="M 1228 531 
L 3431 531 
L 3431 0 
L 469 0 
L 469 531 
Q 828 903 1448 1529 
Q 2069 2156 2228 2338 
Q 2531 2678 2651 2914 
Q 2772 3150 2772 3378 
Q 2772 3750 2511 3984 
Q 2250 4219 1831 4219 
Q 1534 4219 1204 4116 
Q 875 4013 500 3803 
L 500 4441 
Q 881 4594 1212 4672 
Q 1544 4750 1819 4750 
Q 2544 4750 2975 4387 
Q 3406 4025 3406 3419 
Q 3406 3131 3298 2873 
Q 3191 2616 2906 2266 
Q 2828 2175 2409 1742 
Q 1991 1309 1228 531 
z
" transform="scale(0.015625)"/>
       </defs>
       <use xlink:href="#DejaVuSans-32"/>
       <use xlink:href="#DejaVuSans-30" transform="translate(63.623047 0)"/>
       <use xlink:href="#DejaVuSans-30" transform="translate(127.246094 0)"/>
       <use xlink:href="#DejaVuSans-30" transform="translate(190.869141 0)"/>
       <use xlink:href="#DejaVuSans-30" transform="translate(254.492188 0)"/>
      </g>
     </g>
    </g>
    <g id="xtick_3">
     <g id="line2d_3">
      <g>
       <use xlink:href="#m1d71db7e9e" x="316.750834" y="390.04" style="stroke: #000000; stroke-width: 0.8"/>
      </g>
     </g>
     <g id="text_3">
      <!-- 40000 -->
      <g transform="translate(300.844584 404.638438) scale(0.1 -0.1)">
       <defs>
        <path id="DejaVuSans-34" d="M 2419 4116 
L 825 1625 
L 2419 1625 
L 2419 4116 
z
M 2253 4666 
L 3047 4666 
L 3047 1625 
L 3713 1625 
L 3713 1100 
L 3047 1100 
L 3047 0 
L 2419 0 
L 2419 1100 
L 313 1100 
L 313 1709 
L 2253 4666 
z
" transform="scale(0.015625)"/>
       </defs>
       <use xlink:href="#DejaVuSans-34"/>
       <use xlink:href="#DejaVuSans-30" transform="translate(63.623047 0)"/>
       <use xlink:href="#DejaVuSans-30" transform="translate(127.246094 0)"/>
       <use xlink:href="#DejaVuSans-30" transform="translate(190.869141 0)"/>
       <use xlink:href="#DejaVuSans-30" transform="translate(254.492188 0)"/>
      </g>
     </g>
    </g>
    <g id="xtick_4">
     <g id="line2d_4">
      <g>
       <use xlink:href="#m1d71db7e9e" x="434.711124" y="390.04" style="stroke: #000000; stroke-width: 0.8"/>
      </g>
     </g>
     <g id="text_4">
      <!-- 60000 -->
      <g transform="translate(418.804874 404.638438) scale(0.1 -0.1)">
       <defs>
        <path id="DejaVuSans-36" d="M 2113 2584 
Q 1688 2584 1439 2293 
Q 1191 2003 1191 1497 
Q 1191 994 1439 701 
Q 1688 409 2113 409 
Q 2538 409 2786 701 
Q 3034 994 3034 1497 
Q 3034 2003 2786 2293 
Q 2538 2584 2113 2584 
z
M 3366 4563 
L 3366 3988 
Q 3128 4100 2886 4159 
Q 2644 4219 2406 4219 
Q 1781 4219 1451 3797 
Q 1122 3375 1075 2522 
Q 1259 2794 1537 2939 
Q 1816 3084 2150 3084 
Q 2853 3084 3261 2657 
Q 3669 2231 3669 1497 
Q 3669 778 3244 343 
Q 2819 -91 2113 -91 
Q 1303 -91 875 529 
Q 447 1150 447 2328 
Q 447 3434 972 4092 
Q 1497 4750 2381 4750 
Q 2619 4750 2861 4703 
Q 3103 4656 3366 4563 
z
" transform="scale(0.015625)"/>
       </defs>
       <use xlink:href="#DejaVuSans-36"/>
       <use xlink:href="#DejaVuSans-30" transform="translate(63.623047 0)"/>
       <use xlink:href="#DejaVuSans-30" transform="translate(127.246094 0)"/>
       <use xlink:href="#DejaVuSans-30" transform="translate(190.869141 0)"/>
       <use xlink:href="#DejaVuSans-30" transform="translate(254.492188 0)"/>
      </g>
     </g>
    </g>
    <g id="xtick_5">
     <g id="line2d_5">
      <g>
       <use xlink:href="#m1d71db7e9e" x="552.671414" y="390.04" style="stroke: #000000; stroke-width: 0.8"/>
      </g>
     </g>
     <g id="text_5">
      <!-- 80000 -->
      <g transform="translate(536.765164 404.638438) scale(0.1 -0.1)">
       <defs>
        <path id="DejaVuSans-38" d="M 2034 2216 
Q 1584 2216 1326 1975 
Q 1069 1734 1069 1313 
Q 1069 891 1326 650 
Q 1584 409 2034 409 
Q 2484 409 2743 651 
Q 3003 894 3003 1313 
Q 3003 1734 2745 1975 
Q 2488 2216 2034 2216 
z
M 1403 2484 
Q 997 2584 770 2862 
Q 544 3141 544 3541 
Q 544 4100 942 4425 
Q 1341 4750 2034 4750 
Q 2731 4750 3128 4425 
Q 3525 4100 3525 3541 
Q 3525 3141 3298 2862 
Q 3072 2584 2669 2484 
Q 3125 2378 3379 2068 
Q 3634 1759 3634 1313 
Q 3634 634 3220 271 
Q 2806 -91 2034 -91 
Q 1263 -91 848 271 
Q 434 634 434 1313 
Q 434 1759 690 2068 
Q 947 2378 1403 2484 
z
M 1172 3481 
Q 1172 3119 1398 2916 
Q 1625 2713 2034 2713 
Q 2441 2713 2670 2916 
Q 2900 3119 2900 3481 
Q 2900 3844 2670 4047 
Q 2441 4250 2034 4250 
Q 1625 4250 1398 4047 
Q 1172 3844 1172 3481 
z
" transform="scale(0.015625)"/>
       </defs>
       <use xlink:href="#DejaVuSans-38"/>
       <use xlink:href="#DejaVuSans-30" transform="translate(63.623047 0)"/>
       <use xlink:href="#DejaVuSans-30" transform="translate(127.246094 0)"/>
       <use xlink:href="#DejaVuSans-30" transform="translate(190.869141 0)"/>
       <use xlink:href="#DejaVuSans-30" transform="translate(254.492188 0)"/>
      </g>
     </g>
    </g>
    <g id="xtick_6">
     <g id="line2d_6">
      <g>
       <use xlink:href="#m1d71db7e9e" x="670.631704" y="390.04" style="stroke: #000000; stroke-width: 0.8"/>
      </g>
     </g>
     <g id="text_6">
      <!-- 100000 -->
      <g transform="translate(651.544204 404.638438) scale(0.1 -0.1)">
       <defs>
        <path id="DejaVuSans-31" d="M 794 531 
L 1825 531 
L 1825 4091 
L 703 3866 
L 703 4441 
L 1819 4666 
L 2450 4666 
L 2450 531 
L 3481 531 
L 3481 0 
L 794 0 
L 794 531 
z
" transform="scale(0.015625)"/>
       </defs>
       <use xlink:href="#DejaVuSans-31"/>
       <use xlink:href="#DejaVuSans-30" transform="translate(63.623047 0)"/>
       <use xlink:href="#DejaVuSans-30" transform="translate(127.246094 0)"/>
       <use xlink:href="#DejaVuSans-30" transform="translate(190.869141 0)"/>
       <use xlink:href="#DejaVuSans-30" transform="translate(254.492188 0)"/>
       <use xlink:href="#DejaVuSans-30" transform="translate(318.115234 0)"/>
      </g>
     </g>
    </g>
    <g id="text_7">
     <!-- Step -->
     <g transform="translate(368.739844 418.316562) scale(0.1 -0.1)">
      <defs>
       <path id="DejaVuSans-53" d="M 3425 4513 
L 3425 3897 
Q 3066 4069 2747 4153 
Q 2428 4238 2131 4238 
Q 1616 4238 1336 4038 
Q 1056 3838 1056 3469 
Q 1056 3159 1242 3001 
Q 1428 2844 1947 2747 
L 2328 2669 
Q 3034 2534 3370 2195 
Q 3706 1856 3706 1288 
Q 3706 609 3251 259 
Q 2797 -91 1919 -91 
Q 1588 -91 1214 -16 
Q 841 59 441 206 
L 441 856 
Q 825 641 1194 531 
Q 1563 422 1919 422 
Q 2459 422 2753 634 
Q 3047 847 3047 1241 
Q 3047 1584 2836 1778 
Q 2625 1972 2144 2069 
L 1759 2144 
Q 1053 2284 737 2584 
Q 422 2884 422 3419 
Q 422 4038 858 4394 
Q 1294 4750 2059 4750 
Q 2388 4750 2728 4690 
Q 3069 4631 3425 4513 
z
" transform="scale(0.015625)"/>
       <path id="DejaVuSans-74" d="M 1172 4494 
L 1172 3500 
L 2356 3500 
L 2356 3053 
L 1172 3053 
L 1172 1153 
Q 1172 725 1289 603 
Q 1406 481 1766 481 
L 2356 481 
L 2356 0 
L 1766 0 
Q 1100 0 847 248 
Q 594 497 594 1153 
L 594 3053 
L 172 3053 
L 172 3500 
L 594 3500 
L 594 4494 
L 1172 4494 
z
" transform="scale(0.015625)"/>
       <path id="DejaVuSans-65" d="M 3597 1894 
L 3597 1613 
L 953 1613 
Q 991 1019 1311 708 
Q 1631 397 2203 397 
Q 2534 397 2845 478 
Q 3156 559 3463 722 
L 3463 178 
Q 3153 47 2828 -22 
Q 2503 -91 2169 -91 
Q 1331 -91 842 396 
Q 353 884 353 1716 
Q 353 2575 817 3079 
Q 1281 3584 2069 3584 
Q 2775 3584 3186 3129 
Q 3597 2675 3597 1894 
z
M 3022 2063 
Q 3016 2534 2758 2815 
Q 2500 3097 2075 3097 
Q 1594 3097 1305 2825 
Q 1016 2553 972 2059 
L 3022 2063 
z
" transform="scale(0.015625)"/>
       <path id="DejaVuSans-70" d="M 1159 525 
L 1159 -1331 
L 581 -1331 
L 581 3500 
L 1159 3500 
L 1159 2969 
Q 1341 3281 1617 3432 
Q 1894 3584 2278 3584 
Q 2916 3584 3314 3078 
Q 3713 2572 3713 1747 
Q 3713 922 3314 415 
Q 2916 -91 2278 -91 
Q 1894 -91 1617 61 
Q 1341 213 1159 525 
z
M 3116 1747 
Q 3116 2381 2855 2742 
Q 2594 3103 2138 3103 
Q 1681 3103 1420 2742 
Q 1159 2381 1159 1747 
Q 1159 1113 1420 752 
Q 1681 391 2138 391 
Q 2594 391 2855 752 
Q 3116 1113 3116 1747 
z
" transform="scale(0.015625)"/>
      </defs>
      <use xlink:href="#DejaVuSans-53"/>
      <use xlink:href="#DejaVuSans-74" transform="translate(63.476562 0)"/>
      <use xlink:href="#DejaVuSans-65" transform="translate(102.685547 0)"/>
      <use xlink:href="#DejaVuSans-70" transform="translate(164.208984 0)"/>
     </g>
    </g>
   </g>
   <g id="matplotlib.axis_2">
    <g id="ytick_1">
     <g id="line2d_7">
      <defs>
       <path id="m1298cb6d85" d="M 0 0 
L -3.5 0 
" style="stroke: #000000; stroke-width: 0.8"/>
      </defs>
      <g>
       <use xlink:href="#m1298cb6d85" x="51.05" y="382.47419" style="stroke: #000000; stroke-width: 0.8"/>
      </g>
     </g>
     <g id="text_8">
      <!-- 0 -->
      <g transform="translate(37.6875 386.273408) scale(0.1 -0.1)">
       <use xlink:href="#DejaVuSans-30"/>
      </g>
     </g>
    </g>
    <g id="ytick_2">
     <g id="line2d_8">
      <g>
       <use xlink:href="#m1298cb6d85" x="51.05" y="337.439605" style="stroke: #000000; stroke-width: 0.8"/>
      </g>
     </g>
     <g id="text_9">
      <!-- 25 -->
      <g transform="translate(31.325 341.238823) scale(0.1 -0.1)">
       <defs>
        <path id="DejaVuSans-35" d="M 691 4666 
L 3169 4666 
L 3169 4134 
L 1269 4134 
L 1269 2991 
Q 1406 3038 1543 3061 
Q 1681 3084 1819 3084 
Q 2600 3084 3056 2656 
Q 3513 2228 3513 1497 
Q 3513 744 3044 326 
Q 2575 -91 1722 -91 
Q 1428 -91 1123 -41 
Q 819 9 494 109 
L 494 744 
Q 775 591 1075 516 
Q 1375 441 1709 441 
Q 2250 441 2565 725 
Q 2881 1009 2881 1497 
Q 2881 1984 2565 2268 
Q 2250 2553 1709 2553 
Q 1456 2553 1204 2497 
Q 953 2441 691 2322 
L 691 4666 
z
" transform="scale(0.015625)"/>
       </defs>
       <use xlink:href="#DejaVuSans-32"/>
       <use xlink:href="#DejaVuSans-35" transform="translate(63.623047 0)"/>
      </g>
     </g>
    </g>
    <g id="ytick_3">
     <g id="line2d_9">
      <g>
       <use xlink:href="#m1298cb6d85" x="51.05" y="292.40502" style="stroke: #000000; stroke-width: 0.8"/>
      </g>
     </g>
     <g id="text_10">
      <!-- 50 -->
      <g transform="translate(31.325 296.204239) scale(0.1 -0.1)">
       <use xlink:href="#DejaVuSans-35"/>
       <use xlink:href="#DejaVuSans-30" transform="translate(63.623047 0)"/>
      </g>
     </g>
    </g>
    <g id="ytick_4">
     <g id="line2d_10">
      <g>
       <use xlink:href="#m1298cb6d85" x="51.05" y="247.370435" style="stroke: #000000; stroke-width: 0.8"/>
      </g>
     </g>
     <g id="text_11">
      <!-- 75 -->
      <g transform="translate(31.325 251.169654) scale(0.1 -0.1)">
       <defs>
        <path id="DejaVuSans-37" d="M 525 4666 
L 3525 4666 
L 3525 4397 
L 1831 0 
L 1172 0 
L 2766 4134 
L 525 4134 
L 525 4666 
z
" transform="scale(0.015625)"/>
       </defs>
       <use xlink:href="#DejaVuSans-37"/>
       <use xlink:href="#DejaVuSans-35" transform="translate(63.623047 0)"/>
      </g>
     </g>
    </g>
    <g id="ytick_5">
     <g id="line2d_11">
      <g>
       <use xlink:href="#m1298cb6d85" x="51.05" y="202.33585" style="stroke: #000000; stroke-width: 0.8"/>
      </g>
     </g>
     <g id="text_12">
      <!-- 100 -->
      <g transform="translate(24.9625 206.135069) scale(0.1 -0.1)">
       <use xlink:href="#DejaVuSans-31"/>
       <use xlink:href="#DejaVuSans-30" transform="translate(63.623047 0)"/>
       <use xlink:href="#DejaVuSans-30" transform="translate(127.246094 0)"/>
      </g>
     </g>
    </g>
    <g id="ytick_6">
     <g id="line2d_12">
      <g>
       <use xlink:href="#m1298cb6d85" x="51.05" y="157.301265" style="stroke: #000000; stroke-width: 0.8"/>
      </g>
     </g>
     <g id="text_13">
      <!-- 125 -->
      <g transform="translate(24.9625 161.100484) scale(0.1 -0.1)">
       <use xlink:href="#DejaVuSans-31"/>
       <use xlink:href="#DejaVuSans-32" transform="translate(63.623047 0)"/>
       <use xlink:href="#DejaVuSans-35" transform="translate(127.246094 0)"/>
      </g>
     </g>
    </g>
    <g id="ytick_7">
     <g id="line2d_13">
      <g>
       <use xlink:href="#m1298cb6d85" x="51.05" y="112.26668" style="stroke: #000000; stroke-width: 0.8"/>
      </g>
     </g>
     <g id="text_14">
      <!-- 150 -->
      <g transform="translate(24.9625 116.065899) scale(0.1 -0.1)">
       <use xlink:href="#DejaVuSans-31"/>
       <use xlink:href="#DejaVuSans-35" transform="translate(63.623047 0)"/>
       <use xlink:href="#DejaVuSans-30" transform="translate(127.246094 0)"/>
      </g>
     </g>
    </g>
    <g id="ytick_8">
     <g id="line2d_14">
      <g>
       <use xlink:href="#m1298cb6d85" x="51.05" y="67.232095" style="stroke: #000000; stroke-width: 0.8"/>
      </g>
     </g>
     <g id="text_15">
      <!-- 175 -->
      <g transform="translate(24.9625 71.031314) scale(0.1 -0.1)">
       <use xlink:href="#DejaVuSans-31"/>
       <use xlink:href="#DejaVuSans-37" transform="translate(63.623047 0)"/>
       <use xlink:href="#DejaVuSans-35" transform="translate(127.246094 0)"/>
      </g>
     </g>
    </g>
    <g id="text_16">
     <!-- charts/SPS -->
     <g transform="translate(18.882812 234.39) rotate(-90) scale(0.1 -0.1)">
      <defs>
       <path id="DejaVuSans-63" d="M 3122 3366 
L 3122 2828 
Q 2878 2963 2633 3030 
Q 2388 3097 2138 3097 
Q 1578 3097 1268 2742 
Q 959 2388 959 1747 
Q 959 1106 1268 751 
Q 1578 397 2138 397 
Q 2388 397 2633 464 
Q 2878 531 3122 666 
L 3122 134 
Q 2881 22 2623 -34 
Q 2366 -91 2075 -91 
Q 1284 -91 818 406 
Q 353 903 353 1747 
Q 353 2603 823 3093 
Q 1294 3584 2113 3584 
Q 2378 3584 2631 3529 
Q 2884 3475 3122 3366 
z
" transform="scale(0.015625)"/>
       <path id="DejaVuSans-68" d="M 3513 2113 
L 3513 0 
L 2938 0 
L 2938 2094 
Q 2938 2591 2744 2837 
Q 2550 3084 2163 3084 
Q 1697 3084 1428 2787 
Q 1159 2491 1159 1978 
L 1159 0 
L 581 0 
L 581 4863 
L 1159 4863 
L 1159 2956 
Q 1366 3272 1645 3428 
Q 1925 3584 2291 3584 
Q 2894 3584 3203 3211 
Q 3513 2838 3513 2113 
z
" transform="scale(0.015625)"/>
       <path id="DejaVuSans-61" d="M 2194 1759 
Q 1497 1759 1228 1600 
Q 959 1441 959 1056 
Q 959 750 1161 570 
Q 1363 391 1709 391 
Q 2188 391 2477 730 
Q 2766 1069 2766 1631 
L 2766 1759 
L 2194 1759 
z
M 3341 1997 
L 3341 0 
L 2766 0 
L 2766 531 
Q 2569 213 2275 61 
Q 1981 -91 1556 -91 
Q 1019 -91 701 211 
Q 384 513 384 1019 
Q 384 1609 779 1909 
Q 1175 2209 1959 2209 
L 2766 2209 
L 2766 2266 
Q 2766 2663 2505 2880 
Q 2244 3097 1772 3097 
Q 1472 3097 1187 3025 
Q 903 2953 641 2809 
L 641 3341 
Q 956 3463 1253 3523 
Q 1550 3584 1831 3584 
Q 2591 3584 2966 3190 
Q 3341 2797 3341 1997 
z
" transform="scale(0.015625)"/>
       <path id="DejaVuSans-72" d="M 2631 2963 
Q 2534 3019 2420 3045 
Q 2306 3072 2169 3072 
Q 1681 3072 1420 2755 
Q 1159 2438 1159 1844 
L 1159 0 
L 581 0 
L 581 3500 
L 1159 3500 
L 1159 2956 
Q 1341 3275 1631 3429 
Q 1922 3584 2338 3584 
Q 2397 3584 2469 3576 
Q 2541 3569 2628 3553 
L 2631 2963 
z
" transform="scale(0.015625)"/>
       <path id="DejaVuSans-73" d="M 2834 3397 
L 2834 2853 
Q 2591 2978 2328 3040 
Q 2066 3103 1784 3103 
Q 1356 3103 1142 2972 
Q 928 2841 928 2578 
Q 928 2378 1081 2264 
Q 1234 2150 1697 2047 
L 1894 2003 
Q 2506 1872 2764 1633 
Q 3022 1394 3022 966 
Q 3022 478 2636 193 
Q 2250 -91 1575 -91 
Q 1294 -91 989 -36 
Q 684 19 347 128 
L 347 722 
Q 666 556 975 473 
Q 1284 391 1588 391 
Q 1994 391 2212 530 
Q 2431 669 2431 922 
Q 2431 1156 2273 1281 
Q 2116 1406 1581 1522 
L 1381 1569 
Q 847 1681 609 1914 
Q 372 2147 372 2553 
Q 372 3047 722 3315 
Q 1072 3584 1716 3584 
Q 2034 3584 2315 3537 
Q 2597 3491 2834 3397 
z
" transform="scale(0.015625)"/>
       <path id="DejaVuSans-2f" d="M 1625 4666 
L 2156 4666 
L 531 -594 
L 0 -594 
L 1625 4666 
z
" transform="scale(0.015625)"/>
       <path id="DejaVuSans-50" d="M 1259 4147 
L 1259 2394 
L 2053 2394 
Q 2494 2394 2734 2622 
Q 2975 2850 2975 3272 
Q 2975 3691 2734 3919 
Q 2494 4147 2053 4147 
L 1259 4147 
z
M 628 4666 
L 2053 4666 
Q 2838 4666 3239 4311 
Q 3641 3956 3641 3272 
Q 3641 2581 3239 2228 
Q 2838 1875 2053 1875 
L 1259 1875 
L 1259 0 
L 628 0 
L 628 4666 
z
" transform="scale(0.015625)"/>
      </defs>
      <use xlink:href="#DejaVuSans-63"/>
      <use xlink:href="#DejaVuSans-68" transform="translate(54.980469 0)"/>
      <use xlink:href="#DejaVuSans-61" transform="translate(118.359375 0)"/>
      <use xlink:href="#DejaVuSans-72" transform="translate(179.638672 0)"/>
      <use xlink:href="#DejaVuSans-74" transform="translate(220.751953 0)"/>
      <use xlink:href="#DejaVuSans-73" transform="translate(259.960938 0)"/>
      <use xlink:href="#DejaVuSans-2f" transform="translate(312.060547 0)"/>
      <use xlink:href="#DejaVuSans-53" transform="translate(345.751953 0)"/>
      <use xlink:href="#DejaVuSans-50" transform="translate(409.228516 0)"/>
      <use xlink:href="#DejaVuSans-53" transform="translate(469.53125 0)"/>
     </g>
    </g>
   </g>
   <g id="line2d_15">
    <path d="M 80.965909 270.45066 
L 81.564826 265.236908 
L 82.163743 254.748711 
L 83.361577 228.656553 
L 84.559412 210.154628 
L 85.757246 196.342486 
L 87.553997 179.580102 
L 88.751831 170.507571 
L 90.548583 159.254731 
L 92.345334 150.426886 
L 95.938837 135.705855 
L 96.537754 133.504652 
L 100.131256 123.149341 
L 101.32909 120.294839 
L 101.928008 118.755307 
L 104.323676 114.323723 
L 105.52151 112.29168 
L 109.71393 106.635816 
L 114.505267 101.808583 
L 119.296603 97.732919 
L 121.093355 96.66673 
L 122.291189 95.836544 
L 124.08794 94.774452 
L 124.686857 94.378939 
L 125.884692 93.803163 
L 126.483609 93.389135 
L 127.681443 92.742893 
L 128.28036 92.314982 
L 130.077111 91.556069 
L 130.676028 91.089486 
L 131.274945 90.915208 
L 131.873862 90.560226 
L 133.670614 89.959984 
L 134.269531 89.803598 
L 136.066282 88.969557 
L 137.863033 88.318123 
L 139.659785 88.018185 
L 140.258702 87.881115 
L 141.456536 87.413946 
L 143.253287 86.818177 
L 144.451122 86.529558 
L 147.445707 85.853113 
L 149.841375 85.233114 
L 155.231629 84.097362 
L 158.226215 83.546151 
L 160.621883 83.352611 
L 162.418635 82.986465 
L 164.814303 82.688654 
L 166.611054 82.263472 
L 167.808888 82.075377 
L 172.001308 81.647286 
L 173.199142 81.53281 
L 176.792645 80.96676 
L 182.781816 80.399608 
L 184.578567 80.262904 
L 185.776401 80.104564 
L 186.974236 80.115697 
L 189.968821 79.84094 
L 198.952578 79.201247 
L 201.947163 78.90631 
L 207.936334 78.697993 
L 209.733085 78.56012 
L 211.529837 78.352992 
L 212.727671 78.20493 
L 216.321173 78.071936 
L 226.502764 77.702636 
L 228.898433 77.636645 
L 231.294101 77.499709 
L 237.283272 77.323573 
L 239.080023 77.257029 
L 243.272443 77.211208 
L 245.069194 77.176521 
L 248.662697 77.111373 
L 251.058365 76.977643 
L 254.651868 76.938144 
L 258.24537 76.846776 
L 259.443205 76.845956 
L 262.43779 76.730136 
L 264.234541 76.55037 
L 265.432376 76.510411 
L 267.229127 76.464185 
L 272.619381 76.407892 
L 274.416132 76.336414 
L 285.795557 76.115983 
L 288.191225 76.070132 
L 294.779313 75.967684 
L 297.174982 75.888678 
L 298.971733 75.896045 
L 303.164153 75.827301 
L 304.960904 75.733224 
L 306.158738 75.797035 
L 308.554407 75.764786 
L 310.351158 75.788783 
L 322.928417 75.601 
L 325.324085 75.563493 
L 336.70351 75.459055 
L 339.099179 75.33832 
L 365.451531 75.233215 
L 381.023376 75.084574 
L 382.22121 75.152886 
L 386.41363 75.080504 
L 390.606049 75.08565 
L 403.183308 75.056854 
L 405.578977 75.026246 
L 406.776811 75.039859 
L 408.573562 74.950208 
L 410.370313 74.904586 
L 415.16165 74.760295 
L 416.359484 74.775388 
L 424.145407 74.882401 
L 433.72808 74.914426 
L 437.321583 74.885278 
L 463.075018 74.871176 
L 466.069604 74.941452 
L 518.774308 75.114395 
L 520.57106 75.076126 
L 531.351567 75.07623 
L 533.148319 75.074885 
L 534.346153 75.149558 
L 539.13749 75.125278 
L 540.335324 75.112237 
L 541.533158 75.186134 
L 570.880096 75.056854 
L 655.926324 75.134481 
L 657.723075 75.207525 
L 660.717661 75.174175 
L 679.284091 75.282027 
L 679.284091 75.282027 
" clip-path="url(#p18bb328efd)" style="fill: none; stroke: #ff8c00; stroke-width: 1.5; stroke-linecap: square"/>
   </g>
   <g id="patch_3">
    <path d="M 51.05 390.04 
L 51.05 25.44 
" style="fill: none; stroke: #000000; stroke-width: 0.8; stroke-linejoin: miter; stroke-linecap: square"/>
   </g>
   <g id="patch_4">
    <path d="M 709.2 390.04 
L 709.2 25.44 
" style="fill: none; stroke: #000000; stroke-width: 0.8; stroke-linejoin: miter; stroke-linecap: square"/>
   </g>
   <g id="patch_5">
    <path d="M 51.05 390.04 
L 709.2 390.04 
" style="fill: none; stroke: #000000; stroke-width: 0.8; stroke-linejoin: miter; stroke-linecap: square"/>
   </g>
   <g id="patch_6">
    <path d="M 51.05 25.44 
L 709.2 25.44 
" style="fill: none; stroke: #000000; stroke-width: 0.8; stroke-linejoin: miter; stroke-linecap: square"/>
   </g>
   <g id="text_17">
    <!-- charts/SPS for reinforce_atari (aggregated via interpolation over runs) -->
    <g transform="translate(169.999375 19.44) scale(0.12 -0.12)">
     <defs>
      <path id="DejaVuSans-20" transform="scale(0.015625)"/>
      <path id="DejaVuSans-66" d="M 2375 4863 
L 2375 4384 
L 1825 4384 
Q 1516 4384 1395 4259 
Q 1275 4134 1275 3809 
L 1275 3500 
L 2222 3500 
L 2222 3053 
L 1275 3053 
L 1275 0 
L 697 0 
L 697 3053 
L 147 3053 
L 147 3500 
L 697 3500 
L 697 3744 
Q 697 4328 969 4595 
Q 1241 4863 1831 4863 
L 2375 4863 
z
" transform="scale(0.015625)"/>
      <path id="DejaVuSans-6f" d="M 1959 3097 
Q 1497 3097 1228 2736 
Q 959 2375 959 1747 
Q 959 1119 1226 758 
Q 1494 397 1959 397 
Q 2419 397 2687 759 
Q 2956 1122 2956 1747 
Q 2956 2369 2687 2733 
Q 2419 3097 1959 3097 
z
M 1959 3584 
Q 2709 3584 3137 3096 
Q 3566 2609 3566 1747 
Q 3566 888 3137 398 
Q 2709 -91 1959 -91 
Q 1206 -91 779 398 
Q 353 888 353 1747 
Q 353 2609 779 3096 
Q 1206 3584 1959 3584 
z
" transform="scale(0.015625)"/>
      <path id="DejaVuSans-69" d="M 603 3500 
L 1178 3500 
L 1178 0 
L 603 0 
L 603 3500 
z
M 603 4863 
L 1178 4863 
L 1178 4134 
L 603 4134 
L 603 4863 
z
" transform="scale(0.015625)"/>
      <path id="DejaVuSans-6e" d="M 3513 2113 
L 3513 0 
L 2938 0 
L 2938 2094 
Q 2938 2591 2744 2837 
Q 2550 3084 2163 3084 
Q 1697 3084 1428 2787 
Q 1159 2491 1159 1978 
L 1159 0 
L 581 0 
L 581 3500 
L 1159 3500 
L 1159 2956 
Q 1366 3272 1645 3428 
Q 1925 3584 2291 3584 
Q 2894 3584 3203 3211 
Q 3513 2838 3513 2113 
z
" transform="scale(0.015625)"/>
      <path id="DejaVuSans-5f" d="M 3263 -1063 
L 3263 -1509 
L -63 -1509 
L -63 -1063 
L 3263 -1063 
z
" transform="scale(0.015625)"/>
      <path id="DejaVuSans-28" d="M 1984 4856 
Q 1566 4138 1362 3434 
Q 1159 2731 1159 2009 
Q 1159 1288 1364 580 
Q 1569 -128 1984 -844 
L 1484 -844 
Q 1016 -109 783 600 
Q 550 1309 550 2009 
Q 550 2706 781 3412 
Q 1013 4119 1484 4856 
L 1984 4856 
z
" transform="scale(0.015625)"/>
      <path id="DejaVuSans-67" d="M 2906 1791 
Q 2906 2416 2648 2759 
Q 2391 3103 1925 3103 
Q 1463 3103 1205 2759 
Q 947 2416 947 1791 
Q 947 1169 1205 825 
Q 1463 481 1925 481 
Q 2391 481 2648 825 
Q 2906 1169 2906 1791 
z
M 3481 434 
Q 3481 -459 3084 -895 
Q 2688 -1331 1869 -1331 
Q 1566 -1331 1297 -1286 
Q 1028 -1241 775 -1147 
L 775 -588 
Q 1028 -725 1275 -790 
Q 1522 -856 1778 -856 
Q 2344 -856 2625 -561 
Q 2906 -266 2906 331 
L 2906 616 
Q 2728 306 2450 153 
Q 2172 0 1784 0 
Q 1141 0 747 490 
Q 353 981 353 1791 
Q 353 2603 747 3093 
Q 1141 3584 1784 3584 
Q 2172 3584 2450 3431 
Q 2728 3278 2906 2969 
L 2906 3500 
L 3481 3500 
L 3481 434 
z
" transform="scale(0.015625)"/>
      <path id="DejaVuSans-64" d="M 2906 2969 
L 2906 4863 
L 3481 4863 
L 3481 0 
L 2906 0 
L 2906 525 
Q 2725 213 2448 61 
Q 2172 -91 1784 -91 
Q 1150 -91 751 415 
Q 353 922 353 1747 
Q 353 2572 751 3078 
Q 1150 3584 1784 3584 
Q 2172 3584 2448 3432 
Q 2725 3281 2906 2969 
z
M 947 1747 
Q 947 1113 1208 752 
Q 1469 391 1925 391 
Q 2381 391 2643 752 
Q 2906 1113 2906 1747 
Q 2906 2381 2643 2742 
Q 2381 3103 1925 3103 
Q 1469 3103 1208 2742 
Q 947 2381 947 1747 
z
" transform="scale(0.015625)"/>
      <path id="DejaVuSans-76" d="M 191 3500 
L 800 3500 
L 1894 563 
L 2988 3500 
L 3597 3500 
L 2284 0 
L 1503 0 
L 191 3500 
z
" transform="scale(0.015625)"/>
      <path id="DejaVuSans-6c" d="M 603 4863 
L 1178 4863 
L 1178 0 
L 603 0 
L 603 4863 
z
" transform="scale(0.015625)"/>
      <path id="DejaVuSans-75" d="M 544 1381 
L 544 3500 
L 1119 3500 
L 1119 1403 
Q 1119 906 1312 657 
Q 1506 409 1894 409 
Q 2359 409 2629 706 
Q 2900 1003 2900 1516 
L 2900 3500 
L 3475 3500 
L 3475 0 
L 2900 0 
L 2900 538 
Q 2691 219 2414 64 
Q 2138 -91 1772 -91 
Q 1169 -91 856 284 
Q 544 659 544 1381 
z
M 1991 3584 
L 1991 3584 
z
" transform="scale(0.015625)"/>
      <path id="DejaVuSans-29" d="M 513 4856 
L 1013 4856 
Q 1481 4119 1714 3412 
Q 1947 2706 1947 2009 
Q 1947 1309 1714 600 
Q 1481 -109 1013 -844 
L 513 -844 
Q 928 -128 1133 580 
Q 1338 1288 1338 2009 
Q 1338 2731 1133 3434 
Q 928 4138 513 4856 
z
" transform="scale(0.015625)"/>
     </defs>
     <use xlink:href="#DejaVuSans-63"/>
     <use xlink:href="#DejaVuSans-68" transform="translate(54.980469 0)"/>
     <use xlink:href="#DejaVuSans-61" transform="translate(118.359375 0)"/>
     <use xlink:href="#DejaVuSans-72" transform="translate(179.638672 0)"/>
     <use xlink:href="#DejaVuSans-74" transform="translate(220.751953 0)"/>
     <use xlink:href="#DejaVuSans-73" transform="translate(259.960938 0)"/>
     <use xlink:href="#DejaVuSans-2f" transform="translate(312.060547 0)"/>
     <use xlink:href="#DejaVuSans-53" transform="translate(345.751953 0)"/>
     <use xlink:href="#DejaVuSans-50" transform="translate(409.228516 0)"/>
     <use xlink:href="#DejaVuSans-53" transform="translate(469.53125 0)"/>
     <use xlink:href="#DejaVuSans-20" transform="translate(533.007812 0)"/>
     <use xlink:href="#DejaVuSans-66" transform="translate(564.794922 0)"/>
     <use xlink:href="#DejaVuSans-6f" transform="translate(600 0)"/>
     <use xlink:href="#DejaVuSans-72" transform="translate(661.181641 0)"/>
     <use xlink:href="#DejaVuSans-20" transform="translate(702.294922 0)"/>
     <use xlink:href="#DejaVuSans-72" transform="translate(734.082031 0)"/>
     <use xlink:href="#DejaVuSans-65" transform="translate(772.945312 0)"/>
     <use xlink:href="#DejaVuSans-69" transform="translate(834.46875 0)"/>
     <use xlink:href="#DejaVuSans-6e" transform="translate(862.251953 0)"/>
     <use xlink:href="#DejaVuSans-66" transform="translate(925.630859 0)"/>
     <use xlink:href="#DejaVuSans-6f" transform="translate(960.835938 0)"/>
     <use xlink:href="#DejaVuSans-72" transform="translate(1022.017578 0)"/>
     <use xlink:href="#DejaVuSans-63" transform="translate(1060.880859 0)"/>
     <use xlink:href="#DejaVuSans-65" transform="translate(1115.861328 0)"/>
     <use xlink:href="#DejaVuSans-5f" transform="translate(1177.384766 0)"/>
     <use xlink:href="#DejaVuSans-61" transform="translate(1227.384766 0)"/>
     <use xlink:href="#DejaVuSans-74" transform="translate(1288.664062 0)"/>
     <use xlink:href="#DejaVuSans-61" transform="translate(1327.873047 0)"/>
     <use xlink:href="#DejaVuSans-72" transform="translate(1389.152344 0)"/>
     <use xlink:href="#DejaVuSans-69" transform="translate(1430.265625 0)"/>
     <use xlink:href="#DejaVuSans-20" transform="translate(1458.048828 0)"/>
     <use xlink:href="#DejaVuSans-28" transform="translate(1489.835938 0)"/>
     <use xlink:href="#DejaVuSans-61" transform="translate(1528.849609 0)"/>
     <use xlink:href="#DejaVuSans-67" transform="translate(1590.128906 0)"/>
     <use xlink:href="#DejaVuSans-67" transform="translate(1653.605469 0)"/>
     <use xlink:href="#DejaVuSans-72" transform="translate(1717.082031 0)"/>
     <use xlink:href="#DejaVuSans-65" transform="translate(1755.945312 0)"/>
     <use xlink:href="#DejaVuSans-67" transform="translate(1817.46875 0)"/>
     <use xlink:href="#DejaVuSans-61" transform="translate(1880.945312 0)"/>
     <use xlink:href="#DejaVuSans-74" transform="translate(1942.224609 0)"/>
     <use xlink:href="#DejaVuSans-65" transform="translate(1981.433594 0)"/>
     <use xlink:href="#DejaVuSans-64" transform="translate(2042.957031 0)"/>
     <use xlink:href="#DejaVuSans-20" transform="translate(2106.433594 0)"/>
     <use xlink:href="#DejaVuSans-76" transform="translate(2138.220703 0)"/>
     <use xlink:href="#DejaVuSans-69" transform="translate(2197.400391 0)"/>
     <use xlink:href="#DejaVuSans-61" transform="translate(2225.183594 0)"/>
     <use xlink:href="#DejaVuSans-20" transform="translate(2286.462891 0)"/>
     <use xlink:href="#DejaVuSans-69" transform="translate(2318.25 0)"/>
     <use xlink:href="#DejaVuSans-6e" transform="translate(2346.033203 0)"/>
     <use xlink:href="#DejaVuSans-74" transform="translate(2409.412109 0)"/>
     <use xlink:href="#DejaVuSans-65" transform="translate(2448.621094 0)"/>
     <use xlink:href="#DejaVuSans-72" transform="translate(2510.144531 0)"/>
     <use xlink:href="#DejaVuSans-70" transform="translate(2551.257812 0)"/>
     <use xlink:href="#DejaVuSans-6f" transform="translate(2614.734375 0)"/>
     <use xlink:href="#DejaVuSans-6c" transform="translate(2675.916016 0)"/>
     <use xlink:href="#DejaVuSans-61" transform="translate(2703.699219 0)"/>
     <use xlink:href="#DejaVuSans-74" transform="translate(2764.978516 0)"/>
     <use xlink:href="#DejaVuSans-69" transform="translate(2804.1875 0)"/>
     <use xlink:href="#DejaVuSans-6f" transform="translate(2831.970703 0)"/>
     <use xlink:href="#DejaVuSans-6e" transform="translate(2893.152344 0)"/>
     <use xlink:href="#DejaVuSans-20" transform="translate(2956.53125 0)"/>
     <use xlink:href="#DejaVuSans-6f" transform="translate(2988.318359 0)"/>
     <use xlink:href="#DejaVuSans-76" transform="translate(3049.5 0)"/>
     <use xlink:href="#DejaVuSans-65" transform="translate(3108.679688 0)"/>
     <use xlink:href="#DejaVuSans-72" transform="translate(3170.203125 0)"/>
     <use xlink:href="#DejaVuSans-20" transform="translate(3211.316406 0)"/>
     <use xlink:href="#DejaVuSans-72" transform="translate(3243.103516 0)"/>
     <use xlink:href="#DejaVuSans-75" transform="translate(3284.216797 0)"/>
     <use xlink:href="#DejaVuSans-6e" transform="translate(3347.595703 0)"/>
     <use xlink:href="#DejaVuSans-73" transform="translate(3410.974609 0)"/>
     <use xlink:href="#DejaVuSans-29" transform="translate(3463.074219 0)"/>
    </g>
   </g>
   <g id="legend_1">
    <g id="patch_7">
     <path d="M 58.05 62.79625 
L 133.46875 62.79625 
Q 135.46875 62.79625 135.46875 60.79625 
L 135.46875 32.44 
Q 135.46875 30.44 133.46875 30.44 
L 58.05 30.44 
Q 56.05 30.44 56.05 32.44 
L 56.05 60.79625 
Q 56.05 62.79625 58.05 62.79625 
z
" style="fill: #ffffff; opacity: 0.8; stroke: #cccccc; stroke-linejoin: miter"/>
    </g>
    <g id="line2d_16">
     <path d="M 60.05 38.538437 
L 70.05 38.538437 
L 80.05 38.538437 
" style="fill: none; stroke: #ff8c00; stroke-width: 1.5; stroke-linecap: square"/>
    </g>
    <g id="text_18">
     <!-- Mean -->
     <g transform="translate(88.05 42.038437) scale(0.1 -0.1)">
      <defs>
       <path id="DejaVuSans-4d" d="M 628 4666 
L 1569 4666 
L 2759 1491 
L 3956 4666 
L 4897 4666 
L 4897 0 
L 4281 0 
L 4281 4097 
L 3078 897 
L 2444 897 
L 1241 4097 
L 1241 0 
L 628 0 
L 628 4666 
z
" transform="scale(0.015625)"/>
      </defs>
      <use xlink:href="#DejaVuSans-4d"/>
      <use xlink:href="#DejaVuSans-65" transform="translate(86.279297 0)"/>
      <use xlink:href="#DejaVuSans-61" transform="translate(147.802734 0)"/>
      <use xlink:href="#DejaVuSans-6e" transform="translate(209.082031 0)"/>
     </g>
    </g>
    <g id="patch_8">
     <path d="M 60.05 56.716563 
L 80.05 56.716563 
L 80.05 49.716563 
L 60.05 49.716563 
z
" style="fill: #ff8c00; fill-opacity: 0.3; stroke: #ff8c00; stroke-opacity: 0.3; stroke-linejoin: miter"/>
    </g>
    <g id="text_19">
     <!-- MinMax -->
     <g transform="translate(88.05 56.716563) scale(0.1 -0.1)">
      <defs>
       <path id="DejaVuSans-2013" d="M 313 1978 
L 2888 1978 
L 2888 1528 
L 313 1528 
L 313 1978 
z
" transform="scale(0.015625)"/>
       <path id="DejaVuSans-78" d="M 3513 3500 
L 2247 1797 
L 3578 0 
L 2900 0 
L 1881 1375 
L 863 0 
L 184 0 
L 1544 1831 
L 300 3500 
L 978 3500 
L 1906 2253 
L 2834 3500 
L 3513 3500 
z
" transform="scale(0.015625)"/>
      </defs>
      <use xlink:href="#DejaVuSans-4d"/>
      <use xlink:href="#DejaVuSans-69" transform="translate(86.279297 0)"/>
      <use xlink:href="#DejaVuSans-6e" transform="translate(114.0625 0)"/>
      <use xlink:href="#DejaVuSans-2013" transform="translate(177.441406 0)"/>
      <use xlink:href="#DejaVuSans-4d" transform="translate(227.441406 0)"/>
      <use xlink:href="#DejaVuSans-61" transform="translate(313.720703 0)"/>
      <use xlink:href="#DejaVuSans-78" transform="translate(375 0)"/>
     </g>
    </g>
   </g>
  </g>
 </g>
 <defs>
  <clipPath id="p18bb328efd">
   <rect x="51.05" y="25.44" width="658.15" height="364.6"/>
  </clipPath>
 </defs>
</svg>
