<?xml version="1.0" encoding="utf-8" standalone="no"?>
<!DOCTYPE svg PUBLIC "-//W3C//DTD SVG 1.1//EN"
  "http://www.w3.org/Graphics/SVG/1.1/DTD/svg11.dtd">
<svg xmlns:xlink="http://www.w3.org/1999/xlink" width="720pt" height="432pt" viewBox="0 0 720 432" xmlns="http://www.w3.org/2000/svg" version="1.1">
 <metadata>
  <rdf:RDF xmlns:dc="http://purl.org/dc/elements/1.1/" xmlns:cc="http://creativecommons.org/ns#" xmlns:rdf="http://www.w3.org/1999/02/22-rdf-syntax-ns#">
   <cc:Work>
    <dc:type rdf:resource="http://purl.org/dc/dcmitype/StillImage"/>
    <dc:date>2025-02-05T20:31:49.824176</dc:date>
    <dc:format>image/svg+xml</dc:format>
    <dc:creator>
     <cc:Agent>
      <dc:title>Matplotlib v3.10.0, https://matplotlib.org/</dc:title>
     </cc:Agent>
    </dc:creator>
   </cc:Work>
  </rdf:RDF>
 </metadata>
 <defs>
  <style type="text/css">*{stroke-linejoin: round; stroke-linecap: butt}</style>
 </defs>
 <g id="figure_1">
  <g id="patch_1">
   <path d="M 0 432 
L 720 432 
L 720 0 
L 0 0 
z
" style="fill: #ffffff"/>
  </g>
  <g id="axes_1">
   <g id="patch_2">
    <path d="M 46.74125 390.04 
L 709.2 390.04 
L 709.2 25.44 
L 46.74125 25.44 
z
" style="fill: #ffffff"/>
   </g>
   <g id="FillBetweenPolyCollection_1">
    <defs>
     <path id="m19bb42b00c" d="M 76.853011 -213.759655 
L 76.853011 -174.365182 
L 77.455849 -174.365182 
L 78.058687 -174.365182 
L 78.661526 -174.365182 
L 79.264364 -174.365182 
L 79.867202 -174.365182 
L 80.47004 -174.365182 
L 81.072878 -174.365182 
L 81.675716 -174.365182 
L 82.278554 -174.365182 
L 82.881392 -174.365182 
L 83.48423 -174.365182 
L 84.087068 -174.365182 
L 84.689906 -174.365182 
L 85.292744 -174.365182 
L 85.895582 -174.365182 
L 86.49842 -174.365182 
L 87.101258 -177.61726 
L 87.704097 -182.508023 
L 88.306935 -181.385939 
L 88.909773 -180.263855 
L 89.512611 -179.141771 
L 90.115449 -178.019687 
L 90.718287 -176.897603 
L 91.321125 -175.775519 
L 91.923963 -174.653436 
L 92.526801 -173.531352 
L 93.129639 -172.409268 
L 93.732477 -171.287184 
L 94.335315 -170.1651 
L 94.938153 -169.043016 
L 95.540991 -167.920932 
L 96.143829 -166.798848 
L 96.746668 -165.676764 
L 97.349506 -164.55468 
L 97.952344 -166.685716 
L 98.555182 -168.931145 
L 99.15802 -171.176574 
L 99.760858 -173.422002 
L 100.363696 -175.667431 
L 100.966534 -173.879719 
L 101.569372 -170.513468 
L 102.17221 -167.147216 
L 102.775048 -163.780964 
L 103.377886 -160.414712 
L 103.980724 -157.04846 
L 104.583562 -153.682208 
L 105.1864 -150.315956 
L 105.789238 -146.949704 
L 106.392077 -143.583453 
L 106.994915 -140.217201 
L 107.597753 -136.850949 
L 108.200591 -137.45297 
L 108.803429 -143.076019 
L 109.406267 -148.699067 
L 110.009105 -154.322116 
L 110.611943 -159.945165 
L 111.214781 -165.568214 
L 111.817619 -171.191263 
L 112.420457 -175.80224 
L 113.023295 -174.680786 
L 113.626133 -173.559331 
L 114.228971 -172.437877 
L 114.831809 -171.316423 
L 115.434648 -170.194969 
L 116.037486 -169.073514 
L 116.640324 -167.95206 
L 117.243162 -166.830606 
L 117.846 -165.709151 
L 118.448838 -164.587697 
L 119.051676 -170.814952 
L 119.654514 -177.539904 
L 120.257352 -183.136408 
L 120.86019 -182.862478 
L 121.463028 -184.222648 
L 122.065866 -184.544792 
L 122.668704 -184.330342 
L 123.271542 -184.406256 
L 123.87438 -184.676019 
L 124.477219 -182.91246 
L 125.080057 -182.862478 
L 125.682895 -182.862478 
L 126.285733 -182.862478 
L 126.888571 -182.862478 
L 127.491409 -183.574569 
L 128.094247 -180.957571 
L 128.697085 -177.025862 
L 129.299923 -175.635496 
L 129.902761 -179.564996 
L 130.505599 -182.862478 
L 131.108437 -182.922624 
L 131.711275 -183.688989 
L 132.314113 -183.773528 
L 132.916951 -182.090211 
L 133.51979 -172.55785 
L 134.122628 -163.025488 
L 134.725466 -153.493127 
L 135.328304 -143.960765 
L 135.931142 -134.428404 
L 136.53398 -124.896043 
L 137.136818 -115.363681 
L 137.739656 -105.83132 
L 138.342494 -96.298958 
L 138.945332 -86.766597 
L 139.54817 -77.234235 
L 140.151008 -89.385101 
L 140.753846 -105.129638 
L 141.356684 -120.874174 
L 141.959522 -136.618711 
L 142.56236 -152.363247 
L 143.165199 -168.107784 
L 143.768037 -183.165976 
L 144.370875 -183.632341 
L 144.973713 -183.269795 
L 145.576551 -182.988793 
L 146.179389 -176.820794 
L 146.782227 -170.652796 
L 147.385065 -164.484797 
L 147.987903 -158.316799 
L 148.590741 -152.1488 
L 149.193579 -145.980802 
L 149.796417 -139.812803 
L 150.399255 -136.057369 
L 151.002093 -141.112423 
L 151.604931 -146.167478 
L 152.20777 -151.222532 
L 152.810608 -156.277587 
L 153.413446 -161.332641 
L 154.016284 -166.387696 
L 154.619122 -171.44275 
L 155.22196 -176.497805 
L 155.824798 -181.552859 
L 156.427636 -182.862478 
L 157.030474 -182.862478 
L 157.633312 -182.862478 
L 158.23615 -182.862478 
L 158.838988 -181.553252 
L 159.441826 -179.307823 
L 160.044664 -177.062394 
L 160.647502 -174.816966 
L 161.250341 -172.572544 
L 161.853179 -170.328376 
L 162.456017 -168.084208 
L 163.058855 -165.84004 
L 163.661693 -163.595872 
L 164.264531 -161.351705 
L 164.867369 -159.107537 
L 165.470207 -156.863369 
L 166.073045 -154.619201 
L 166.675883 -152.375033 
L 167.278721 -150.130865 
L 167.881559 -147.886697 
L 168.484397 -145.642529 
L 169.087235 -143.398361 
L 169.690073 -141.154193 
L 170.292911 -138.910025 
L 170.89575 -136.665857 
L 171.498588 -136.48391 
L 172.101426 -142.669264 
L 172.704264 -148.854617 
L 173.307102 -155.039971 
L 173.90994 -161.225325 
L 174.512778 -167.410678 
L 175.115616 -173.596032 
L 175.718454 -179.781385 
L 176.321292 -184.113891 
L 176.92413 -183.42486 
L 177.526968 -182.862478 
L 178.129806 -183.168502 
L 178.732644 -182.92411 
L 179.335482 -182.862478 
L 179.938321 -182.862478 
L 180.541159 -180.712733 
L 181.143997 -177.904369 
L 181.746835 -175.096006 
L 182.349673 -173.533698 
L 182.952511 -172.409721 
L 183.555349 -171.285744 
L 184.158187 -170.161767 
L 184.761025 -169.037789 
L 185.363863 -167.913812 
L 185.966701 -166.789835 
L 186.569539 -165.665858 
L 187.172377 -164.541881 
L 187.775215 -163.417903 
L 188.378053 -162.293926 
L 188.980892 -161.169949 
L 189.58373 -160.045972 
L 190.186568 -158.921994 
L 190.789406 -157.798017 
L 191.392244 -156.67404 
L 191.995082 -155.550063 
L 192.59792 -154.909941 
L 193.200758 -156.034551 
L 193.803596 -157.159161 
L 194.406434 -158.28377 
L 195.009272 -159.40838 
L 195.61211 -160.53299 
L 196.214948 -161.6576 
L 196.817786 -162.782209 
L 197.420624 -163.906819 
L 198.023462 -165.031429 
L 198.626301 -166.156039 
L 199.229139 -167.280648 
L 199.831977 -162.759663 
L 200.434815 -157.713119 
L 201.037653 -152.666575 
L 201.640491 -147.620031 
L 202.243329 -142.573486 
L 202.846167 -137.526942 
L 203.449005 -138.298593 
L 204.051843 -145.042457 
L 204.654681 -151.78632 
L 205.257519 -155.084681 
L 205.860357 -157.896205 
L 206.463195 -160.70773 
L 207.066033 -163.519254 
L 207.668872 -166.330778 
L 208.27171 -169.142303 
L 208.874548 -168.919763 
L 209.477386 -168.358406 
L 210.080224 -167.797049 
L 210.683062 -167.235692 
L 211.2859 -166.674335 
L 211.888738 -166.112978 
L 212.491576 -165.55162 
L 213.094414 -164.990263 
L 213.697252 -164.253295 
L 214.30009 -162.56733 
L 214.902928 -160.881364 
L 215.505766 -159.195398 
L 216.108604 -157.509432 
L 216.711443 -155.823466 
L 217.314281 -154.1375 
L 217.917119 -152.451534 
L 218.519957 -150.765569 
L 219.122795 -149.079603 
L 219.725633 -147.393637 
L 220.328471 -145.707671 
L 220.931309 -144.021705 
L 221.534147 -142.335739 
L 222.136985 -138.916079 
L 222.739823 -134.982158 
L 223.342661 -131.048238 
L 223.945499 -127.114318 
L 224.548337 -125.951911 
L 225.151175 -127.633149 
L 225.754014 -129.314387 
L 226.356852 -130.995625 
L 226.95969 -132.676863 
L 227.562528 -134.358101 
L 228.165366 -136.039339 
L 228.768204 -137.720577 
L 229.371042 -139.401815 
L 229.97388 -141.083053 
L 230.576718 -142.764291 
L 231.179556 -141.956794 
L 231.782394 -135.767957 
L 232.385232 -129.579121 
L 232.98807 -123.390285 
L 233.590908 -117.201448 
L 234.193746 -111.012612 
L 234.796584 -105.805857 
L 235.399423 -109.728745 
L 236.002261 -113.651634 
L 236.605099 -117.574522 
L 237.207937 -121.497411 
L 237.810775 -125.4203 
L 238.413613 -129.343188 
L 239.016451 -133.266077 
L 239.619289 -137.188965 
L 240.222127 -141.111854 
L 240.824965 -145.034743 
L 241.427803 -148.957631 
L 242.030641 -152.88052 
L 242.633479 -156.803408 
L 243.236317 -160.726297 
L 243.839155 -164.649186 
L 244.441994 -162.970654 
L 245.044832 -157.921276 
L 245.64767 -155.067965 
L 246.250508 -156.192575 
L 246.853346 -157.317185 
L 247.456184 -158.441794 
L 248.059022 -159.566404 
L 248.66186 -160.691014 
L 249.264698 -161.815624 
L 249.867536 -162.940233 
L 250.470374 -164.064843 
L 251.073212 -165.189453 
L 251.67605 -166.314063 
L 252.278888 -167.438672 
L 252.881726 -168.563282 
L 253.484565 -169.687892 
L 254.087403 -170.812502 
L 254.690241 -171.937112 
L 255.293079 -173.061721 
L 255.895917 -174.186331 
L 256.498755 -178.14609 
L 257.101593 -182.641999 
L 257.704431 -183.431849 
L 258.307269 -182.946584 
L 258.910107 -183.060787 
L 259.512945 -183.431849 
L 260.115783 -183.431849 
L 260.718621 -183.431849 
L 261.321459 -183.431849 
L 261.924297 -183.431849 
L 262.527135 -183.431849 
L 263.129974 -184.132138 
L 263.732812 -184.918481 
L 264.33565 -184.816793 
L 264.938488 -183.252781 
L 265.541326 -182.862478 
L 266.144164 -182.862478 
L 266.747002 -183.088051 
L 267.34984 -183.468889 
L 267.952678 -182.907216 
L 268.555516 -182.345544 
L 269.158354 -181.783871 
L 269.761192 -181.222198 
L 270.36403 -180.660526 
L 270.966868 -180.098853 
L 271.569706 -179.53718 
L 272.172545 -178.975507 
L 272.775383 -178.413835 
L 273.378221 -177.852162 
L 273.981059 -177.290489 
L 274.583897 -176.728817 
L 275.186735 -176.167144 
L 275.789573 -175.605471 
L 276.392411 -175.043798 
L 276.995249 -174.482126 
L 277.598087 -177.032055 
L 278.200925 -180.400198 
L 278.803763 -181.849956 
L 279.406601 -182.550343 
L 280.009439 -182.885219 
L 280.612277 -182.862478 
L 281.215116 -183.757779 
L 281.817954 -181.234723 
L 282.420792 -174.498437 
L 283.02363 -167.762151 
L 283.626468 -161.025865 
L 284.229306 -154.289579 
L 284.832144 -147.553293 
L 285.434982 -140.817007 
L 286.03782 -134.080721 
L 286.640658 -127.344435 
L 287.243496 -120.608149 
L 287.846334 -116.089702 
L 288.449172 -120.012591 
L 289.05201 -123.935479 
L 289.654848 -127.858368 
L 290.257686 -131.781256 
L 290.860525 -135.704145 
L 291.463363 -139.627034 
L 292.066201 -143.549922 
L 292.669039 -147.472811 
L 293.271877 -151.395699 
L 293.874715 -155.318588 
L 294.477553 -159.241477 
L 295.080391 -163.164365 
L 295.683229 -167.087254 
L 296.286067 -171.010142 
L 296.888905 -174.933031 
L 297.491743 -178.85592 
L 298.094581 -182.778808 
L 298.697419 -182.862478 
L 299.300257 -182.862478 
L 299.903096 -183.589002 
L 300.505934 -181.224355 
L 301.108772 -177.856212 
L 301.71161 -174.488069 
L 302.314448 -171.119926 
L 302.917286 -167.751783 
L 303.520124 -164.38364 
L 304.122962 -161.015497 
L 304.7258 -157.647354 
L 305.328638 -154.279211 
L 305.931476 -150.911068 
L 306.534314 -147.542925 
L 307.137152 -144.174782 
L 307.73999 -140.806639 
L 308.342828 -137.438496 
L 308.945667 -135.86955 
L 309.548505 -139.232026 
L 310.151343 -142.594501 
L 310.754181 -145.956977 
L 311.357019 -149.319453 
L 311.959857 -152.681929 
L 312.562695 -156.044405 
L 313.165533 -151.923449 
L 313.768371 -147.437632 
L 314.371209 -142.951815 
L 314.974047 -138.465998 
L 315.576885 -133.980181 
L 316.179723 -129.494364 
L 316.782561 -125.008546 
L 317.385399 -120.522729 
L 317.988237 -116.036912 
L 318.591076 -111.551095 
L 319.193914 -107.065278 
L 319.796752 -110.407088 
L 320.39959 -118.261676 
L 321.002428 -126.116263 
L 321.605266 -133.970851 
L 322.208104 -141.825439 
L 322.810942 -149.643773 
L 323.41378 -143.475775 
L 324.016618 -137.307776 
L 324.619456 -131.139778 
L 325.222294 -124.971779 
L 325.825132 -118.803781 
L 326.42797 -112.635782 
L 327.030808 -106.467783 
L 327.633647 -100.299785 
L 328.236485 -94.131786 
L 328.839323 -87.963788 
L 329.442161 -81.795789 
L 330.044999 -75.970605 
L 330.647837 -78.219824 
L 331.250675 -80.469044 
L 331.853513 -82.718263 
L 332.456351 -84.967483 
L 333.059189 -87.216702 
L 333.662027 -89.465922 
L 334.264865 -91.715141 
L 334.867703 -93.964361 
L 335.470541 -96.21358 
L 336.073379 -98.4628 
L 336.676218 -100.712019 
L 337.279056 -102.961239 
L 337.881894 -105.210458 
L 338.484732 -107.459678 
L 339.08757 -109.708897 
L 339.690408 -111.958117 
L 340.293246 -114.207336 
L 340.896084 -116.452575 
L 341.498922 -118.694225 
L 342.10176 -120.935876 
L 342.704598 -123.177527 
L 343.307436 -125.419177 
L 343.910274 -127.660828 
L 344.513112 -129.902479 
L 345.11595 -132.144129 
L 345.718789 -134.38578 
L 346.321627 -136.62743 
L 346.924465 -138.869081 
L 347.527303 -141.110732 
L 348.130141 -143.352382 
L 348.732979 -145.594033 
L 349.335817 -147.835684 
L 349.938655 -150.077334 
L 350.541493 -152.318985 
L 351.144331 -154.560635 
L 351.747169 -156.268701 
L 352.350007 -157.949939 
L 352.952845 -159.631177 
L 353.555683 -161.312415 
L 354.158521 -162.993653 
L 354.761359 -164.674891 
L 355.364198 -166.356129 
L 355.967036 -168.037367 
L 356.569874 -169.718605 
L 357.172712 -171.399843 
L 357.77555 -173.08108 
L 358.378388 -174.762318 
L 358.981226 -176.443556 
L 359.584064 -178.124794 
L 360.186902 -177.557393 
L 360.78974 -168.59079 
L 361.392578 -159.624188 
L 361.995416 -153.161526 
L 362.598254 -149.793383 
L 363.201092 -146.42524 
L 363.80393 -143.057097 
L 364.406769 -139.688953 
L 365.009607 -136.32081 
L 365.612445 -132.952667 
L 366.215283 -129.584524 
L 366.818121 -126.216381 
L 367.420959 -122.848238 
L 368.023797 -119.480095 
L 368.626635 -116.111952 
L 369.229473 -112.743809 
L 369.832311 -109.375666 
L 370.435149 -106.007523 
L 371.037987 -102.63938 
L 371.640825 -99.271237 
L 372.243663 -95.903094 
L 372.846501 -100.148437 
L 373.44934 -105.212031 
L 374.052178 -110.275624 
L 374.655016 -115.339218 
L 375.257854 -120.402811 
L 375.860692 -125.466404 
L 376.46353 -130.529998 
L 377.066368 -135.593591 
L 377.669206 -140.657185 
L 378.272044 -145.720778 
L 378.874882 -150.784371 
L 379.47772 -155.847965 
L 380.080558 -160.911558 
L 380.683396 -165.975152 
L 381.286234 -171.038745 
L 381.889072 -176.102338 
L 382.49191 -181.165932 
L 383.094749 -182.203733 
L 383.697587 -177.154356 
L 384.300425 -172.104978 
L 384.903263 -167.0556 
L 385.506101 -162.006222 
L 386.108939 -156.956844 
L 386.711777 -151.907467 
L 387.314615 -146.858089 
L 387.917453 -141.808711 
L 388.520291 -136.759333 
L 389.123129 -131.709955 
L 389.725967 -126.660577 
L 390.328805 -121.6112 
L 390.931643 -116.561822 
L 391.534481 -111.512444 
L 392.13732 -106.463066 
L 392.740158 -101.413688 
L 393.342996 -96.36431 
L 393.945834 -96.995873 
L 394.548672 -98.678054 
L 395.15151 -100.360236 
L 395.754348 -102.042417 
L 396.357186 -103.724599 
L 396.960024 -105.40678 
L 397.562862 -107.088961 
L 398.1657 -108.771143 
L 398.768538 -110.453324 
L 399.371376 -112.135506 
L 399.974214 -113.817687 
L 400.577052 -115.499869 
L 401.179891 -117.18205 
L 401.782729 -118.864231 
L 402.385567 -120.546413 
L 402.988405 -122.228594 
L 403.591243 -123.910776 
L 404.194081 -127.005557 
L 404.796919 -133.734283 
L 405.399757 -140.463009 
L 406.002595 -147.191734 
L 406.605433 -153.92046 
L 407.208271 -160.649186 
L 407.811109 -167.377912 
L 408.413947 -174.106637 
L 409.016785 -180.835363 
L 409.619623 -182.498236 
L 410.222461 -182.975465 
L 410.8253 -182.862478 
L 411.428138 -183.293706 
L 412.030976 -182.162401 
L 412.633814 -181.72047 
L 413.236652 -182.788344 
L 413.83949 -182.862478 
L 414.442328 -182.862478 
L 415.045166 -182.98909 
L 415.648004 -184.78502 
L 416.250842 -183.027454 
L 416.85368 -183.518968 
L 417.456518 -183.39468 
L 418.059356 -182.862478 
L 418.662194 -182.862478 
L 419.265032 -183.286589 
L 419.867871 -183.552105 
L 420.470709 -180.946605 
L 421.073547 -177.572776 
L 421.676385 -174.198947 
L 422.279223 -170.825117 
L 422.882061 -167.451288 
L 423.484899 -164.077459 
L 424.087737 -160.70363 
L 424.690575 -157.3298 
L 425.293413 -154.430754 
L 425.896251 -153.306777 
L 426.499089 -152.182799 
L 427.101927 -151.058822 
L 427.704765 -149.934845 
L 428.307603 -148.810868 
L 428.910442 -147.686891 
L 429.51328 -146.562913 
L 430.116118 -145.438936 
L 430.718956 -144.314959 
L 431.321794 -143.190982 
L 431.924632 -142.067004 
L 432.52747 -140.943027 
L 433.130308 -139.81905 
L 433.733146 -138.695073 
L 434.335984 -137.571095 
L 434.938822 -136.447118 
L 435.54166 -135.323141 
L 436.144498 -136.512065 
L 436.747336 -138.757494 
L 437.350174 -141.002922 
L 437.953013 -143.248351 
L 438.555851 -145.49378 
L 439.158689 -147.739208 
L 439.761527 -149.984637 
L 440.364365 -152.230066 
L 440.967203 -154.475494 
L 441.570041 -156.720923 
L 442.172879 -158.966352 
L 442.775717 -161.21178 
L 443.378555 -163.457209 
L 443.981393 -165.702638 
L 444.584231 -167.948067 
L 445.187069 -170.193495 
L 445.789907 -172.438924 
L 446.392745 -174.365182 
L 446.995583 -174.365182 
L 447.598422 -174.365182 
L 448.20126 -174.365182 
L 448.804098 -174.365182 
L 449.406936 -174.365182 
L 450.009774 -174.365182 
L 450.612612 -174.365182 
L 451.21545 -174.365182 
L 451.818288 -174.365182 
L 452.421126 -174.365182 
L 453.023964 -174.365182 
L 453.626802 -174.365182 
L 454.22964 -174.365182 
L 454.832478 -174.365182 
L 455.435316 -174.365182 
L 456.038154 -174.365182 
L 456.640993 -174.365182 
L 457.243831 -173.292578 
L 457.846669 -171.609452 
L 458.449507 -169.926326 
L 459.052345 -168.2432 
L 459.655183 -166.560075 
L 460.258021 -164.876949 
L 460.860859 -163.193823 
L 461.463697 -161.510697 
L 462.066535 -159.827571 
L 462.669373 -156.907776 
L 463.272211 -152.976067 
L 463.875049 -149.044357 
L 464.477887 -145.112648 
L 465.080725 -141.180939 
L 465.683564 -137.24923 
L 466.286402 -133.317521 
L 466.88924 -129.385812 
L 467.492078 -125.454103 
L 468.094916 -129.242978 
L 468.697754 -133.74395 
L 469.300592 -138.244922 
L 469.90343 -142.745894 
L 470.506268 -147.246866 
L 471.109106 -151.747838 
L 471.711944 -156.24881 
L 472.314782 -158.447179 
L 472.91762 -160.133145 
L 473.520458 -161.819111 
L 474.123296 -163.505077 
L 474.726134 -165.191043 
L 475.328973 -166.877009 
L 475.931811 -168.562975 
L 476.534649 -170.24894 
L 477.137487 -171.934906 
L 477.740325 -173.620872 
L 478.343163 -174.051825 
L 478.946001 -173.490783 
L 479.548839 -172.929741 
L 480.151677 -172.368699 
L 480.754515 -171.807657 
L 481.357353 -171.246615 
L 481.960191 -170.685573 
L 482.563029 -170.124531 
L 483.165867 -169.563489 
L 483.768705 -169.002447 
L 484.371544 -168.441405 
L 484.974382 -167.880363 
L 485.57722 -164.58237 
L 486.180058 -160.65728 
L 486.782896 -156.73219 
L 487.385734 -152.8071 
L 487.988572 -148.88201 
L 488.59141 -144.95692 
L 489.194248 -143.737792 
L 489.797086 -142.616966 
L 490.399924 -141.496141 
L 491.002762 -140.375316 
L 491.6056 -139.25449 
L 492.208438 -138.133665 
L 492.811276 -137.01284 
L 493.414115 -135.892015 
L 494.016953 -134.771189 
L 494.619791 -133.650364 
L 495.222629 -132.529539 
L 495.825467 -131.408713 
L 496.428305 -130.287888 
L 497.031143 -129.167063 
L 497.633981 -128.046237 
L 498.236819 -126.925412 
L 498.839657 -125.804587 
L 499.442495 -127.096786 
L 500.045333 -132.146164 
L 500.648171 -137.195542 
L 501.251009 -142.244919 
L 501.853847 -147.294297 
L 502.456685 -152.343675 
L 503.059524 -157.393053 
L 503.662362 -162.442431 
L 504.2652 -167.491808 
L 504.868038 -172.541186 
L 505.470876 -177.590564 
L 506.073714 -182.639942 
L 506.676552 -184.487968 
L 507.27939 -184.632734 
L 507.882228 -184.7775 
L 508.485066 -184.78502 
L 509.087904 -183.018194 
L 509.690742 -182.862478 
L 510.29358 -182.862478 
L 510.896418 -183.539819 
L 511.499256 -182.960146 
L 512.102095 -182.862478 
L 512.704933 -182.885493 
L 513.307771 -183.917715 
L 513.910609 -183.404321 
L 514.513447 -182.862478 
L 515.116285 -183.23275 
L 515.719123 -182.852048 
L 516.321961 -183.308522 
L 516.924799 -180.498579 
L 517.527637 -177.688636 
L 518.130475 -174.878693 
L 518.733313 -172.06875 
L 519.336151 -169.258807 
L 519.938989 -166.448864 
L 520.541827 -166.448464 
L 521.144666 -172.633818 
L 521.747504 -178.819172 
L 522.350342 -183.442082 
L 522.95318 -184.236704 
L 523.556018 -184.236704 
L 524.158856 -182.862478 
L 524.761694 -183.5768 
L 525.364532 -183.077145 
L 525.96737 -174.059497 
L 526.570208 -163.405681 
L 527.173046 -152.751866 
L 527.775884 -142.09805 
L 528.378722 -131.444234 
L 528.98156 -120.790418 
L 529.584398 -110.136603 
L 530.187236 -99.482787 
L 530.790075 -88.828971 
L 531.392913 -91.703501 
L 531.995751 -100.13333 
L 532.598589 -108.56316 
L 533.201427 -116.992989 
L 533.804265 -125.422818 
L 534.407103 -133.852648 
L 535.009941 -142.282477 
L 535.612779 -150.712306 
L 536.215617 -159.142136 
L 536.818455 -166.972062 
L 537.421293 -164.158955 
L 538.024131 -161.345847 
L 538.626969 -158.53274 
L 539.229807 -155.719633 
L 539.832646 -152.906525 
L 540.435484 -150.093418 
L 541.038322 -147.28031 
L 541.64116 -145.170857 
L 542.243998 -147.979221 
L 542.846836 -150.787584 
L 543.449674 -153.595948 
L 544.052512 -156.404312 
L 544.65535 -159.212675 
L 545.258188 -162.021039 
L 545.861026 -164.829402 
L 546.463864 -167.637766 
L 547.066702 -170.44613 
L 547.66954 -171.000484 
L 548.272378 -168.751265 
L 548.875217 -166.502045 
L 549.478055 -164.252826 
L 550.080893 -162.003606 
L 550.683731 -159.754387 
L 551.286569 -157.505167 
L 551.889407 -155.255948 
L 552.492245 -155.913157 
L 553.095083 -157.599123 
L 553.697921 -159.285089 
L 554.300759 -160.971055 
L 554.903597 -162.657021 
L 555.506435 -161.44297 
L 556.109273 -159.195015 
L 556.712111 -156.947061 
L 557.314949 -154.699106 
L 557.917788 -152.451152 
L 558.520626 -150.203197 
L 559.123464 -147.955243 
L 559.726302 -145.707288 
L 560.32914 -143.459334 
L 560.931978 -141.211379 
L 561.534816 -138.963425 
L 562.137654 -136.715471 
L 562.740492 -135.976528 
L 563.34333 -140.46991 
L 563.946168 -144.963292 
L 564.549006 -142.833134 
L 565.151844 -138.910246 
L 565.754682 -134.987357 
L 566.35752 -131.064468 
L 566.960358 -127.14158 
L 567.563197 -123.218691 
L 568.166035 -119.295803 
L 568.768873 -115.372914 
L 569.371711 -111.450025 
L 569.974549 -107.527137 
L 570.577387 -103.604248 
L 571.180225 -99.68136 
L 571.783063 -95.758471 
L 572.385901 -91.835582 
L 572.988739 -87.912694 
L 573.591577 -87.714803 
L 574.194415 -92.20062 
L 574.797253 -96.686437 
L 575.400091 -101.172255 
L 576.002929 -105.658072 
L 576.605768 -110.143889 
L 577.208606 -114.629706 
L 577.811444 -119.115523 
L 578.414282 -123.60134 
L 579.01712 -128.087157 
L 579.619958 -132.572974 
L 580.222796 -137.058792 
L 580.825634 -141.544609 
L 581.428472 -146.030426 
L 582.03131 -150.516243 
L 582.634148 -152.675864 
L 583.236986 -148.752975 
L 583.839824 -144.830087 
L 584.442662 -147.056084 
L 585.0455 -149.298992 
L 585.648339 -151.541901 
L 586.251177 -153.784809 
L 586.854015 -156.027718 
L 587.456853 -158.270626 
L 588.059691 -160.513535 
L 588.662529 -162.756444 
L 589.265367 -164.999352 
L 589.868205 -167.242261 
L 590.471043 -169.485169 
L 591.073881 -171.728078 
L 591.676719 -173.970986 
L 592.279557 -176.213895 
L 592.882395 -178.456804 
L 593.485233 -180.699712 
L 594.088071 -182.942621 
L 594.690909 -183.700016 
L 595.293748 -182.862478 
L 595.896586 -182.862478 
L 596.499424 -182.862478 
L 597.102262 -182.862478 
L 597.7051 -181.507374 
L 598.307938 -179.265724 
L 598.910776 -177.024073 
L 599.513614 -174.782422 
L 600.116452 -172.540772 
L 600.71929 -170.299121 
L 601.322128 -168.057471 
L 601.924966 -165.81582 
L 602.527804 -163.574169 
L 603.130642 -161.332519 
L 603.73348 -159.090868 
L 604.336319 -156.849217 
L 604.939157 -154.743673 
L 605.541995 -157.555197 
L 606.144833 -160.366722 
L 606.747671 -163.178246 
L 607.350509 -165.98977 
L 607.953347 -168.801295 
L 608.556185 -171.612819 
L 609.159023 -174.424344 
L 609.761861 -177.235868 
L 610.364699 -180.047392 
L 610.967537 -182.858917 
L 611.570375 -183.215786 
L 612.173213 -184.113891 
L 612.776051 -184.113891 
L 613.37889 -182.968387 
L 613.981728 -183.02319 
L 614.584566 -183.106788 
L 615.187404 -183.094516 
L 615.790242 -182.862478 
L 616.39308 -183.584297 
L 616.995918 -184.236704 
L 617.598756 -184.15226 
L 618.201594 -183.843046 
L 618.804432 -182.862478 
L 619.40727 -182.947385 
L 620.010108 -176.285427 
L 620.612946 -164.510157 
L 621.215784 -152.734887 
L 621.818622 -140.959617 
L 622.42146 -129.184347 
L 623.024299 -117.409077 
L 623.627137 -105.633807 
L 624.229975 -93.858537 
L 624.832813 -82.083267 
L 625.435651 -70.307997 
L 626.038489 -58.532727 
L 626.641327 -62.478768 
L 627.244165 -70.346608 
L 627.847003 -78.214449 
L 628.449841 -86.08229 
L 629.052679 -93.95013 
L 629.655517 -101.817971 
L 630.258355 -109.685812 
L 630.861193 -117.553652 
L 631.464031 -125.421493 
L 632.06687 -133.289334 
L 632.669708 -141.157175 
L 633.272546 -149.025015 
L 633.875384 -156.892856 
L 634.478222 -164.760697 
L 635.08106 -172.628537 
L 635.683898 -180.496378 
L 636.286736 -183.054703 
L 636.889574 -183.073232 
L 637.492412 -183.067167 
L 638.09525 -184.2138 
L 638.698088 -184.2138 
L 639.300926 -182.862478 
L 639.903764 -182.873345 
L 640.506602 -183.744754 
L 641.109441 -183.699416 
L 641.712279 -183.437497 
L 642.315117 -183.239106 
L 642.917955 -184.186395 
L 643.520793 -183.292311 
L 644.123631 -182.862478 
L 644.726469 -182.888412 
L 645.329307 -182.862478 
L 645.932145 -182.862478 
L 646.534983 -183.216242 
L 647.137821 -182.862478 
L 647.740659 -183.042316 
L 648.343497 -183.935139 
L 648.946335 -184.236704 
L 649.549173 -184.433119 
L 650.152012 -183.015526 
L 650.75485 -183.876177 
L 651.357688 -182.862478 
L 651.960526 -183.280124 
L 652.563364 -182.862478 
L 653.166202 -182.862478 
L 653.76904 -182.862478 
L 654.371878 -182.862478 
L 654.974716 -182.0404 
L 655.577554 -172.475835 
L 656.180392 -162.911269 
L 656.78323 -153.346704 
L 657.386068 -143.782139 
L 657.988906 -135.501437 
L 658.591744 -142.24151 
L 659.194582 -148.981582 
L 659.797421 -155.721655 
L 660.400259 -162.461728 
L 661.003097 -162.239006 
L 661.605935 -154.384418 
L 662.208773 -146.529831 
L 662.811611 -138.675243 
L 663.414449 -130.820655 
L 664.017287 -122.966068 
L 664.620125 -115.11148 
L 665.222963 -107.256892 
L 665.825801 -99.402304 
L 666.428639 -91.547717 
L 667.031477 -83.693129 
L 667.634315 -75.838541 
L 668.237153 -67.983954 
L 668.839992 -71.516055 
L 669.44283 -78.817801 
L 670.045668 -86.119546 
L 670.648506 -93.421291 
L 671.251344 -100.723037 
L 671.854182 -108.024782 
L 672.45702 -115.326527 
L 673.059858 -122.628273 
L 673.662696 -129.930018 
L 674.265534 -137.231763 
L 674.868372 -144.533509 
L 675.47121 -151.835254 
L 676.074048 -159.136999 
L 676.676886 -166.438745 
L 677.279724 -173.74049 
L 677.882563 -181.042235 
L 678.485401 -182.862478 
L 679.088239 -182.862478 
L 679.088239 -253.154128 
L 679.088239 -253.154128 
L 678.485401 -249.346823 
L 677.882563 -244.294608 
L 677.279724 -239.242394 
L 676.676886 -237.947748 
L 676.074048 -239.070463 
L 675.47121 -240.193177 
L 674.868372 -241.315892 
L 674.265534 -242.438606 
L 673.662696 -243.56132 
L 673.059858 -244.684035 
L 672.45702 -245.806749 
L 671.854182 -246.929463 
L 671.251344 -248.052178 
L 670.648506 -249.174892 
L 670.045668 -250.297606 
L 669.44283 -251.420321 
L 668.839992 -252.543035 
L 668.237153 -250.082672 
L 667.634315 -243.342599 
L 667.031477 -236.602527 
L 666.428639 -229.862454 
L 665.825801 -223.122381 
L 665.222963 -216.382309 
L 664.620125 -220.286653 
L 664.017287 -229.268368 
L 663.414449 -238.250082 
L 662.811611 -247.231797 
L 662.208773 -256.213512 
L 661.605935 -265.195227 
L 661.003097 -274.176942 
L 660.400259 -283.158656 
L 659.797421 -292.140371 
L 659.194582 -301.122086 
L 658.591744 -310.103801 
L 657.988906 -319.085515 
L 657.386068 -316.871212 
L 656.78323 -309.016624 
L 656.180392 -301.162036 
L 655.577554 -293.307449 
L 654.974716 -285.452861 
L 654.371878 -277.598273 
L 653.76904 -269.743685 
L 653.166202 -261.889098 
L 652.563364 -254.03451 
L 651.960526 -246.179922 
L 651.357688 -239.427792 
L 650.75485 -248.992357 
L 650.152012 -258.556923 
L 649.549173 -268.121488 
L 648.946335 -277.686053 
L 648.343497 -287.250619 
L 647.740659 -296.815184 
L 647.137821 -301.463308 
L 646.534983 -299.220399 
L 645.932145 -296.977491 
L 645.329307 -294.734582 
L 644.726469 -292.491674 
L 644.123631 -290.248765 
L 643.520793 -288.005857 
L 642.917955 -285.762948 
L 642.315117 -283.520039 
L 641.712279 -281.277131 
L 641.109441 -279.034222 
L 640.506602 -276.791314 
L 639.903764 -274.548405 
L 639.300926 -272.305497 
L 638.698088 -270.062588 
L 638.09525 -267.819679 
L 637.492412 -265.576771 
L 636.889574 -263.333862 
L 636.286736 -261.568902 
L 635.683898 -259.88672 
L 635.08106 -258.204539 
L 634.478222 -256.522357 
L 633.875384 -254.840176 
L 633.272546 -253.157995 
L 632.669708 -251.475813 
L 632.06687 -249.793632 
L 631.464031 -248.11145 
L 630.861193 -246.429269 
L 630.258355 -244.747088 
L 629.655517 -243.064906 
L 629.052679 -241.382725 
L 628.449841 -239.700543 
L 627.847003 -238.018362 
L 627.244165 -236.647866 
L 626.641327 -240.014118 
L 626.038489 -243.255546 
L 625.435651 -241.008856 
L 624.832813 -238.762165 
L 624.229975 -236.515474 
L 623.627137 -235.864193 
L 623.024299 -236.42555 
L 622.42146 -236.986907 
L 621.818622 -237.548264 
L 621.215784 -238.109621 
L 620.612946 -238.670979 
L 620.010108 -239.232336 
L 619.40727 -239.793693 
L 618.804432 -240.35505 
L 618.201594 -240.916407 
L 617.598756 -241.477764 
L 616.995918 -242.039122 
L 616.39308 -246.937047 
L 615.790242 -258.712317 
L 615.187404 -260.141745 
L 614.584566 -255.640773 
L 613.981728 -251.139801 
L 613.37889 -246.638829 
L 612.776051 -242.137857 
L 612.173213 -237.636885 
L 611.570375 -235.742354 
L 610.967537 -234.620899 
L 610.364699 -233.499445 
L 609.761861 -232.377991 
L 609.159023 -231.256537 
L 608.556185 -230.135082 
L 607.953347 -229.013628 
L 607.350509 -227.892174 
L 606.747671 -226.77072 
L 606.144833 -225.649265 
L 605.541995 -224.527811 
L 604.939157 -223.506974 
L 604.336319 -222.944352 
L 603.73348 -222.381731 
L 603.130642 -221.819109 
L 602.527804 -221.256488 
L 601.924966 -220.693866 
L 601.322128 -220.131245 
L 600.71929 -219.568623 
L 600.116452 -219.006002 
L 599.513614 -218.44338 
L 598.910776 -217.880759 
L 598.307938 -217.318137 
L 597.7051 -216.755516 
L 597.102262 -217.819153 
L 596.499424 -221.189189 
L 595.896586 -224.559225 
L 595.293748 -227.929261 
L 594.690909 -231.299298 
L 594.088071 -233.659306 
L 593.485233 -234.221928 
L 592.882395 -234.784549 
L 592.279557 -235.347171 
L 591.676719 -235.909792 
L 591.073881 -236.472414 
L 590.471043 -237.035035 
L 589.868205 -237.597657 
L 589.265367 -238.160278 
L 588.662529 -238.7229 
L 588.059691 -239.285521 
L 587.456853 -239.848143 
L 586.854015 -240.410764 
L 586.251177 -240.973386 
L 585.648339 -241.536007 
L 585.0455 -242.098629 
L 584.442662 -242.66125 
L 583.839824 -243.223872 
L 583.236986 -240.907342 
L 582.634148 -238.102132 
L 582.03131 -235.296922 
L 581.428472 -232.491712 
L 580.825634 -229.686503 
L 580.222796 -226.881293 
L 579.619958 -224.076083 
L 579.01712 -221.270873 
L 578.414282 -218.465663 
L 577.811444 -215.660453 
L 577.208606 -212.855243 
L 576.605768 -210.571242 
L 576.002929 -211.131655 
L 575.400091 -211.692067 
L 574.797253 -212.25248 
L 574.194415 -212.812893 
L 573.591577 -213.373305 
L 572.988739 -212.553185 
L 572.385901 -209.740077 
L 571.783063 -206.92697 
L 571.180225 -204.113862 
L 570.577387 -201.300755 
L 569.974549 -198.487647 
L 569.371711 -195.67454 
L 568.768873 -192.861433 
L 568.166035 -190.048325 
L 567.563197 -189.521016 
L 566.960358 -189.22768 
L 566.35752 -189.389596 
L 565.754682 -189.797244 
L 565.151844 -190.204891 
L 564.549006 -190.612539 
L 563.946168 -190.684284 
L 563.34333 -189.497508 
L 562.740492 -188.310731 
L 562.137654 -187.123955 
L 561.534816 -186.39298 
L 560.931978 -187.202316 
L 560.32914 -187.651578 
L 559.726302 -187.863193 
L 559.123464 -191.075642 
L 558.520626 -195.558944 
L 557.917788 -200.042245 
L 557.314949 -204.525546 
L 556.712111 -209.008848 
L 556.109273 -213.492149 
L 555.506435 -217.97545 
L 554.903597 -222.458751 
L 554.300759 -226.942053 
L 553.697921 -231.425354 
L 553.095083 -235.908655 
L 552.492245 -240.391956 
L 551.889407 -243.10885 
L 551.286569 -242.547177 
L 550.683731 -241.985504 
L 550.080893 -241.423831 
L 549.478055 -240.862159 
L 548.875217 -240.300486 
L 548.272378 -239.738813 
L 547.66954 -239.177141 
L 547.066702 -238.615468 
L 546.463864 -238.053795 
L 545.861026 -237.492122 
L 545.258188 -236.93045 
L 544.65535 -236.368777 
L 544.052512 -235.807104 
L 543.449674 -235.245432 
L 542.846836 -234.683759 
L 542.243998 -238.261621 
L 541.64116 -242.19333 
L 541.038322 -244.515239 
L 540.435484 -246.202154 
L 539.832646 -247.889069 
L 539.229807 -249.575983 
L 538.626969 -251.262898 
L 538.024131 -252.949812 
L 537.421293 -254.636727 
L 536.818455 -256.323642 
L 536.215617 -258.010556 
L 535.612779 -259.697471 
L 535.009941 -261.384386 
L 534.407103 -263.0713 
L 533.804265 -264.758215 
L 533.201427 -266.44513 
L 532.598589 -268.132044 
L 531.995751 -269.818959 
L 531.392913 -271.505873 
L 530.790075 -271.599476 
L 530.187236 -265.414123 
L 529.584398 -259.228769 
L 528.98156 -253.043415 
L 528.378722 -246.858062 
L 527.775884 -240.672708 
L 527.173046 -234.487354 
L 526.570208 -228.302001 
L 525.96737 -222.116647 
L 525.364532 -215.931293 
L 524.761694 -211.535978 
L 524.158856 -213.220996 
L 523.556018 -216.67476 
L 522.95318 -227.328575 
L 522.350342 -237.982391 
L 521.747504 -248.636207 
L 521.144666 -259.290022 
L 520.541827 -269.943838 
L 519.938989 -269.989438 
L 519.336151 -266.053304 
L 518.733313 -262.117169 
L 518.130475 -258.181035 
L 517.527637 -254.244901 
L 516.924799 -250.308767 
L 516.321961 -258.606154 
L 515.719123 -269.845926 
L 515.116285 -281.085698 
L 514.513447 -292.325471 
L 513.910609 -303.565243 
L 513.307771 -314.805016 
L 512.704933 -326.044788 
L 512.102095 -337.28456 
L 511.499256 -348.524333 
L 510.896418 -359.764105 
L 510.29358 -371.003878 
L 509.690742 -380.182683 
L 509.087904 -369.516896 
L 508.485066 -358.85111 
L 507.882228 -348.185324 
L 507.27939 -337.519538 
L 506.676552 -326.853751 
L 506.073714 -316.187965 
L 505.470876 -305.522179 
L 504.868038 -294.856392 
L 504.2652 -284.190606 
L 503.662362 -273.52482 
L 503.059524 -262.859034 
L 502.456685 -252.193247 
L 501.853847 -243.570626 
L 501.251009 -245.813535 
L 500.648171 -248.056443 
L 500.045333 -250.299352 
L 499.442495 -252.54226 
L 498.839657 -250.700682 
L 498.236819 -247.326852 
L 497.633981 -243.953023 
L 497.031143 -240.579194 
L 496.428305 -237.205365 
L 495.825467 -233.831535 
L 495.222629 -230.457706 
L 494.619791 -227.083877 
L 494.016953 -223.710048 
L 493.414115 -220.336218 
L 492.811276 -216.962389 
L 492.208438 -213.58856 
L 491.6056 -210.214731 
L 491.002762 -206.840901 
L 490.399924 -203.467072 
L 489.797086 -200.093243 
L 489.194248 -196.719414 
L 488.59141 -193.824144 
L 487.988572 -192.70269 
L 487.385734 -191.581235 
L 486.782896 -190.459781 
L 486.180058 -189.338327 
L 485.57722 -189.961713 
L 484.974382 -191.08569 
L 484.371544 -192.209668 
L 483.768705 -193.333645 
L 483.165867 -194.457622 
L 482.563029 -195.581599 
L 481.960191 -196.705577 
L 481.357353 -197.829554 
L 480.754515 -198.953531 
L 480.151677 -200.077508 
L 479.548839 -203.833269 
L 478.946001 -207.758359 
L 478.343163 -211.683449 
L 477.740325 -214.818537 
L 477.137487 -217.066492 
L 476.534649 -219.314446 
L 475.931811 -221.562401 
L 475.328973 -223.810355 
L 474.726134 -226.058309 
L 474.123296 -228.306264 
L 473.520458 -230.554218 
L 472.91762 -232.802173 
L 472.314782 -235.050127 
L 471.711944 -237.298082 
L 471.109106 -239.546036 
L 470.506268 -241.793991 
L 469.90343 -244.041945 
L 469.300592 -246.2899 
L 468.697754 -248.537854 
L 468.094916 -250.785809 
L 467.492078 -253.033763 
L 466.88924 -248.898947 
L 466.286402 -244.403038 
L 465.683564 -239.907129 
L 465.080725 -235.41122 
L 464.477887 -230.915311 
L 463.875049 -226.419403 
L 463.272211 -221.923494 
L 462.669373 -217.427585 
L 462.066535 -212.931676 
L 461.463697 -209.579058 
L 460.860859 -210.13947 
L 460.258021 -210.699883 
L 459.655183 -211.260296 
L 459.052345 -211.820708 
L 458.449507 -212.381121 
L 457.846669 -212.941534 
L 457.243831 -213.501946 
L 456.640993 -214.063381 
L 456.038154 -214.625686 
L 455.435316 -215.187991 
L 454.832478 -215.750296 
L 454.22964 -216.312601 
L 453.626802 -216.874906 
L 453.023964 -217.43721 
L 452.421126 -217.999515 
L 451.818288 -218.56182 
L 451.21545 -219.124125 
L 450.612612 -219.68643 
L 450.009774 -220.248735 
L 449.406936 -220.81104 
L 448.804098 -221.373345 
L 448.20126 -222.795331 
L 447.598422 -226.167263 
L 446.995583 -229.539195 
L 446.392745 -232.911126 
L 445.789907 -233.927654 
L 445.187069 -234.489327 
L 444.584231 -235.051 
L 443.981393 -235.612672 
L 443.378555 -236.174345 
L 442.775717 -236.736018 
L 442.172879 -237.29769 
L 441.570041 -237.859363 
L 440.967203 -238.421036 
L 440.364365 -238.982709 
L 439.761527 -239.544381 
L 439.158689 -240.106054 
L 438.555851 -240.667727 
L 437.953013 -241.229399 
L 437.350174 -241.791072 
L 436.747336 -242.352745 
L 436.144498 -242.914418 
L 435.54166 -242.793766 
L 434.938822 -241.108748 
L 434.335984 -239.42373 
L 433.733146 -237.738712 
L 433.130308 -236.053694 
L 432.52747 -234.368676 
L 431.924632 -232.683657 
L 431.321794 -230.998639 
L 430.718956 -229.313621 
L 430.116118 -227.628603 
L 429.51328 -225.943585 
L 428.910442 -224.258567 
L 428.307603 -222.573548 
L 427.704765 -220.88853 
L 427.101927 -219.203512 
L 426.499089 -217.518494 
L 425.896251 -215.833476 
L 425.293413 -214.148458 
L 424.690575 -212.464168 
L 424.087737 -210.780096 
L 423.484899 -210.299086 
L 422.882061 -212.541994 
L 422.279223 -214.784903 
L 421.676385 -217.027812 
L 421.073547 -219.27072 
L 420.470709 -221.513629 
L 419.867871 -223.756537 
L 419.265032 -225.999446 
L 418.662194 -228.242354 
L 418.059356 -230.485263 
L 417.456518 -232.728172 
L 416.85368 -234.97108 
L 416.250842 -237.213989 
L 415.648004 -239.456897 
L 415.045166 -241.699806 
L 414.442328 -241.676475 
L 413.83949 -237.188139 
L 413.236652 -232.699803 
L 412.633814 -228.211467 
L 412.030976 -223.723132 
L 411.428138 -219.234796 
L 410.8253 -214.74646 
L 410.222461 -213.759655 
L 409.619623 -213.759655 
L 409.016785 -213.759655 
L 408.413947 -213.759655 
L 407.811109 -213.759655 
L 407.208271 -213.759655 
L 406.605433 -213.909503 
L 406.002595 -216.154932 
L 405.399757 -218.400361 
L 404.796919 -220.64579 
L 404.194081 -222.891218 
L 403.591243 -220.554955 
L 402.988405 -216.069138 
L 402.385567 -211.583321 
L 401.782729 -207.097504 
L 401.179891 -203.149117 
L 400.577052 -200.901162 
L 399.974214 -198.653208 
L 399.371376 -196.405254 
L 398.768538 -194.169179 
L 398.1657 -197.535431 
L 397.562862 -200.901682 
L 396.960024 -204.267934 
L 396.357186 -207.634186 
L 395.754348 -211.000438 
L 395.15151 -214.36669 
L 394.548672 -217.732942 
L 393.945834 -221.099194 
L 393.342996 -223.036824 
L 392.740158 -220.792656 
L 392.13732 -218.548489 
L 391.534481 -216.304321 
L 390.931643 -214.060153 
L 390.328805 -211.815985 
L 389.725967 -209.571817 
L 389.123129 -207.327649 
L 388.520291 -205.083481 
L 387.917453 -202.839313 
L 387.314615 -200.595145 
L 386.711777 -198.350977 
L 386.108939 -196.106809 
L 385.506101 -193.862641 
L 384.903263 -191.618474 
L 384.300425 -189.374306 
L 383.697587 -189.979195 
L 383.094749 -192.781258 
L 382.49191 -194.062418 
L 381.889072 -194.062418 
L 381.286234 -194.062418 
L 380.683396 -194.062418 
L 380.080558 -194.741876 
L 379.47772 -196.991096 
L 378.874882 -199.240315 
L 378.272044 -201.489535 
L 377.669206 -203.738754 
L 377.066368 -205.987974 
L 376.46353 -208.237193 
L 375.860692 -210.486413 
L 375.257854 -212.735632 
L 374.655016 -214.984852 
L 374.052178 -217.234071 
L 373.44934 -219.483291 
L 372.846501 -221.73251 
L 372.243663 -223.235445 
L 371.640825 -220.990017 
L 371.037987 -218.744588 
L 370.435149 -216.499159 
L 369.832311 -214.25373 
L 369.229473 -212.008302 
L 368.626635 -210.296359 
L 368.023797 -209.734686 
L 367.420959 -209.173014 
L 366.818121 -208.611341 
L 366.215283 -208.049668 
L 365.612445 -207.487995 
L 365.009607 -206.926323 
L 364.406769 -206.36465 
L 363.80393 -205.802977 
L 363.201092 -205.241305 
L 362.598254 -204.679632 
L 361.995416 -204.117959 
L 361.392578 -203.556685 
L 360.78974 -202.995643 
L 360.186902 -202.434601 
L 359.584064 -201.873559 
L 358.981226 -201.312517 
L 358.378388 -204.4572 
L 357.77555 -213.423803 
L 357.172712 -222.390405 
L 356.569874 -231.357008 
L 355.967036 -240.32361 
L 355.364198 -249.290213 
L 354.761359 -258.256815 
L 354.158521 -267.223418 
L 353.555683 -276.19002 
L 352.952845 -285.156623 
L 352.350007 -294.123225 
L 351.747169 -303.089828 
L 351.144331 -312.05643 
L 350.541493 -305.090286 
L 349.938655 -297.780323 
L 349.335817 -290.470359 
L 348.732979 -283.160396 
L 348.130141 -275.850433 
L 347.527303 -268.540469 
L 346.924465 -261.230506 
L 346.321627 -253.920542 
L 345.718789 -246.610579 
L 345.11595 -239.300616 
L 344.513112 -231.990652 
L 343.910274 -224.680689 
L 343.307436 -217.370725 
L 342.704598 -210.060762 
L 342.10176 -202.750799 
L 341.498922 -195.440835 
L 340.896084 -191.53982 
L 340.293246 -188.660828 
L 339.690408 -189.145254 
L 339.08757 -192.513397 
L 338.484732 -195.88154 
L 337.881894 -199.249683 
L 337.279056 -202.617826 
L 336.676218 -205.985969 
L 336.073379 -209.354112 
L 335.470541 -212.722255 
L 334.867703 -216.090398 
L 334.264865 -219.458541 
L 333.662027 -222.826684 
L 333.059189 -226.194827 
L 332.456351 -229.56297 
L 331.853513 -232.931113 
L 331.250675 -236.299256 
L 330.647837 -239.667399 
L 330.044999 -243.035542 
L 329.442161 -236.080491 
L 328.839323 -228.225904 
L 328.236485 -220.371316 
L 327.633647 -212.516728 
L 327.030808 -206.819476 
L 326.42797 -203.447544 
L 325.825132 -200.075612 
L 325.222294 -196.70368 
L 324.619456 -193.331749 
L 324.016618 -189.959817 
L 323.41378 -188.254266 
L 322.810942 -188.724746 
L 322.208104 -190.21288 
L 321.605266 -190.625186 
L 321.002428 -190.025202 
L 320.39959 -191.205718 
L 319.796752 -192.892632 
L 319.193914 -193.031641 
L 318.591076 -189.669165 
L 317.988237 -189.42331 
L 317.385399 -189.715515 
L 316.782561 -189.834592 
L 316.179723 -190.040233 
L 315.576885 -190.245874 
L 314.974047 -189.964095 
L 314.371209 -192.976198 
L 313.768371 -196.34245 
L 313.165533 -199.708702 
L 312.562695 -203.074953 
L 311.959857 -206.441205 
L 311.357019 -209.807457 
L 310.754181 -213.173709 
L 310.151343 -216.539961 
L 309.548505 -219.906213 
L 308.945667 -223.272465 
L 308.342828 -221.585706 
L 307.73999 -219.339015 
L 307.137152 -217.092324 
L 306.534314 -218.321076 
L 305.931476 -227.29271 
L 305.328638 -236.264344 
L 304.7258 -245.235978 
L 304.122962 -254.207613 
L 303.520124 -263.179247 
L 302.917286 -272.150881 
L 302.314448 -281.122515 
L 301.71161 -290.09415 
L 301.108772 -299.065784 
L 300.505934 -308.037418 
L 299.903096 -317.009052 
L 299.300257 -325.980687 
L 298.697419 -334.952321 
L 298.094581 -339.788198 
L 297.491743 -331.358368 
L 296.888905 -322.928539 
L 296.286067 -314.49871 
L 295.683229 -306.06888 
L 295.080391 -297.639051 
L 294.477553 -289.209222 
L 293.874715 -280.779392 
L 293.271877 -272.349563 
L 292.669039 -263.919734 
L 292.066201 -255.489905 
L 291.463363 -250.972588 
L 290.860525 -248.891127 
L 290.257686 -253.389566 
L 289.654848 -257.888005 
L 289.05201 -262.386444 
L 288.449172 -266.884883 
L 287.846334 -271.383322 
L 287.243496 -277.384205 
L 286.640658 -284.112931 
L 286.03782 -290.841657 
L 285.434982 -297.570382 
L 284.832144 -304.299108 
L 284.229306 -311.027834 
L 283.626468 -317.75656 
L 283.02363 -324.485285 
L 282.420792 -331.214011 
L 281.817954 -337.942737 
L 281.215116 -344.671462 
L 280.612277 -351.400188 
L 280.009439 -358.128914 
L 279.406601 -364.857639 
L 278.803763 -371.586365 
L 278.200925 -378.315091 
L 277.598087 -385.043817 
L 276.995249 -389.987273 
L 276.392411 -380.433466 
L 275.789573 -370.87966 
L 275.186735 -361.325853 
L 274.583897 -351.772047 
L 273.981059 -342.21824 
L 273.378221 -332.664433 
L 272.775383 -323.110627 
L 272.172545 -313.55682 
L 271.569706 -304.003014 
L 270.966868 -294.449207 
L 270.36403 -284.895401 
L 269.761192 -275.341594 
L 269.158354 -265.787788 
L 268.555516 -256.233981 
L 267.952678 -250.556413 
L 267.34984 -251.677868 
L 266.747002 -252.799322 
L 266.144164 -250.080634 
L 265.541326 -245.584725 
L 264.938488 -241.088816 
L 264.33565 -239.681162 
L 263.732812 -244.164463 
L 263.129974 -248.647764 
L 262.527135 -253.131066 
L 261.924297 -257.614367 
L 261.321459 -262.097668 
L 260.718621 -266.580969 
L 260.115783 -271.064271 
L 259.512945 -275.547572 
L 258.910107 -280.030873 
L 258.307269 -284.514174 
L 257.704431 -288.997476 
L 257.101593 -293.480777 
L 256.498755 -297.964078 
L 255.895917 -302.365851 
L 255.293079 -299.562215 
L 254.690241 -296.75858 
L 254.087403 -293.954944 
L 253.484565 -291.151308 
L 252.881726 -288.347672 
L 252.278888 -285.544037 
L 251.67605 -282.740401 
L 251.073212 -279.936765 
L 250.470374 -277.13313 
L 249.867536 -274.329494 
L 249.264698 -271.525858 
L 248.66186 -268.722222 
L 248.059022 -265.918587 
L 247.456184 -263.114951 
L 246.853346 -260.311315 
L 246.250508 -257.50768 
L 245.64767 -254.704044 
L 245.044832 -251.39892 
L 244.441994 -247.47383 
L 243.839155 -243.54874 
L 243.236317 -239.62365 
L 242.633479 -235.69856 
L 242.030641 -231.77347 
L 241.427803 -227.84838 
L 240.824965 -223.92329 
L 240.222127 -219.9982 
L 239.619289 -216.07311 
L 239.016451 -212.14802 
L 238.413613 -213.464432 
L 237.810775 -218.51381 
L 237.207937 -223.563187 
L 236.605099 -228.612565 
L 236.002261 -233.661943 
L 235.399423 -238.711321 
L 234.796584 -243.305509 
L 234.193746 -243.305509 
L 233.590908 -243.305509 
L 232.98807 -243.305509 
L 232.385232 -243.305509 
L 231.782394 -243.305509 
L 231.179556 -243.305509 
L 230.576718 -243.305509 
L 229.97388 -243.305509 
L 229.371042 -243.305509 
L 228.768204 -243.305509 
L 228.165366 -243.305509 
L 227.562528 -243.305509 
L 226.95969 -243.305509 
L 226.356852 -243.305509 
L 225.754014 -243.305509 
L 225.151175 -243.305509 
L 224.548337 -243.305509 
L 223.945499 -243.617809 
L 223.342661 -244.179798 
L 222.739823 -244.741786 
L 222.136985 -245.303775 
L 221.534147 -245.865764 
L 220.931309 -246.427752 
L 220.328471 -246.989741 
L 219.725633 -247.551729 
L 219.122795 -248.113718 
L 218.519957 -248.675707 
L 217.917119 -249.237695 
L 217.314281 -249.799684 
L 216.711443 -250.361672 
L 216.108604 -250.923661 
L 215.505766 -251.48565 
L 214.902928 -252.047638 
L 214.30009 -252.609627 
L 213.697252 -252.944272 
L 213.094414 -246.200408 
L 212.491576 -239.456545 
L 211.888738 -232.712681 
L 211.2859 -225.968818 
L 210.683062 -219.224955 
L 210.080224 -212.481091 
L 209.477386 -205.737228 
L 208.874548 -203.018709 
L 208.27171 -204.140793 
L 207.668872 -205.262877 
L 207.066033 -206.38496 
L 206.463195 -207.507044 
L 205.860357 -208.629128 
L 205.257519 -209.751212 
L 204.654681 -210.873296 
L 204.051843 -211.99538 
L 203.449005 -213.117464 
L 202.846167 -212.315921 
L 202.243329 -208.940192 
L 201.640491 -205.564463 
L 201.037653 -202.188734 
L 200.434815 -198.813005 
L 199.831977 -195.437276 
L 199.229139 -192.061547 
L 198.626301 -194.350974 
L 198.023462 -201.091047 
L 197.420624 -207.831119 
L 196.817786 -214.571192 
L 196.214948 -221.311264 
L 195.61211 -228.051337 
L 195.009272 -234.79141 
L 194.406434 -241.531482 
L 193.803596 -248.271555 
L 193.200758 -255.011628 
L 192.59792 -261.7517 
L 191.995082 -262.088422 
L 191.392244 -260.965708 
L 190.789406 -259.842993 
L 190.186568 -258.720279 
L 189.58373 -257.597565 
L 188.980892 -256.948302 
L 188.378053 -262.558721 
L 187.775215 -268.169141 
L 187.172377 -273.779561 
L 186.569539 -279.389981 
L 185.966701 -285.000401 
L 185.363863 -290.61082 
L 184.761025 -296.22124 
L 184.158187 -301.83166 
L 183.555349 -307.44208 
L 182.952511 -313.0525 
L 182.349673 -318.662919 
L 181.746835 -320.567522 
L 181.143997 -316.635813 
L 180.541159 -312.704104 
L 179.938321 -308.772395 
L 179.335482 -304.840686 
L 178.732644 -300.908977 
L 178.129806 -296.977268 
L 177.526968 -293.045559 
L 176.92413 -289.11385 
L 176.321292 -292.298397 
L 175.718454 -299.591942 
L 175.115616 -306.885488 
L 174.512778 -314.179034 
L 173.90994 -321.47258 
L 173.307102 -328.766125 
L 172.704264 -336.059671 
L 172.101426 -343.353217 
L 171.498588 -350.646763 
L 170.89575 -345.83145 
L 170.292911 -339.106498 
L 169.690073 -332.381546 
L 169.087235 -325.656594 
L 168.484397 -318.931643 
L 167.881559 -312.206691 
L 167.278721 -305.481739 
L 166.675883 -298.756787 
L 166.073045 -292.031835 
L 165.470207 -285.306883 
L 164.867369 -278.581931 
L 164.264531 -271.856979 
L 163.661693 -265.132028 
L 163.058855 -258.407076 
L 162.456017 -251.682124 
L 161.853179 -244.957172 
L 161.250341 -238.23222 
L 160.647502 -233.456891 
L 160.044664 -233.456891 
L 159.441826 -233.456891 
L 158.838988 -233.456891 
L 158.23615 -239.160275 
L 157.633312 -247.590104 
L 157.030474 -256.019934 
L 156.427636 -264.449763 
L 155.824798 -272.879592 
L 155.22196 -281.309421 
L 154.619122 -289.739251 
L 154.016284 -298.16908 
L 153.413446 -306.598909 
L 152.810608 -315.028739 
L 152.20777 -323.458568 
L 151.604931 -331.888397 
L 151.002093 -340.318227 
L 150.399255 -348.748056 
L 149.796417 -341.297686 
L 149.193579 -325.55315 
L 148.590741 -309.808613 
L 147.987903 -294.064076 
L 147.385065 -278.31954 
L 146.782227 -262.575003 
L 146.179389 -248.559413 
L 145.576551 -250.804842 
L 144.973713 -253.05027 
L 144.370875 -255.295699 
L 143.768037 -257.541128 
L 143.165199 -259.786556 
L 142.56236 -262.031985 
L 141.959522 -264.277414 
L 141.356684 -266.522842 
L 140.753846 -268.768271 
L 140.151008 -271.0137 
L 139.54817 -272.953305 
L 138.945332 -273.514662 
L 138.342494 -274.07602 
L 137.739656 -274.637377 
L 137.136818 -275.198734 
L 136.53398 -275.760091 
L 135.931142 -276.321448 
L 135.328304 -276.882805 
L 134.725466 -277.444163 
L 134.122628 -278.00552 
L 133.51979 -278.566877 
L 132.916951 -279.128234 
L 132.314113 -279.689591 
L 131.711275 -280.250948 
L 131.108437 -280.812306 
L 130.505599 -281.373663 
L 129.902761 -281.93502 
L 129.299923 -282.496377 
L 128.697085 -278.414182 
L 128.094247 -271.68923 
L 127.491409 -264.964279 
L 126.888571 -258.239327 
L 126.285733 -251.514375 
L 125.682895 -244.789423 
L 125.080057 -239.604495 
L 124.477219 -239.041874 
L 123.87438 -238.479252 
L 123.271542 -237.916631 
L 122.668704 -237.354009 
L 122.065866 -236.791388 
L 121.463028 -236.228766 
L 120.86019 -235.666145 
L 120.257352 -235.103523 
L 119.654514 -236.001498 
L 119.051676 -239.933207 
L 118.448838 -242.986387 
L 117.846 -240.743478 
L 117.243162 -238.50057 
L 116.640324 -236.257661 
L 116.037486 -234.014753 
L 115.434648 -231.771844 
L 114.831809 -229.528935 
L 114.228971 -227.286027 
L 113.626133 -225.043118 
L 113.023295 -222.80021 
L 112.420457 -220.557301 
L 111.817619 -218.314393 
L 111.214781 -216.071484 
L 110.611943 -213.828575 
L 110.009105 -211.585667 
L 109.406267 -209.342758 
L 108.803429 -207.09985 
L 108.200591 -204.856941 
L 107.597753 -205.949815 
L 106.994915 -209.877109 
L 106.392077 -213.804402 
L 105.789238 -217.731696 
L 105.1864 -221.65899 
L 104.583562 -225.586284 
L 103.980724 -229.513578 
L 103.377886 -233.440872 
L 102.775048 -237.368166 
L 102.17221 -241.295459 
L 101.569372 -245.222753 
L 100.966534 -249.150047 
L 100.363696 -253.077341 
L 99.760858 -257.004635 
L 99.15802 -260.931929 
L 98.555182 -264.859223 
L 97.952344 -268.786517 
L 97.349506 -272.71381 
L 96.746668 -267.434408 
L 96.143829 -261.820836 
L 95.540991 -256.207265 
L 94.938153 -250.593693 
L 94.335315 -244.980121 
L 93.732477 -239.366549 
L 93.129639 -233.752978 
L 92.526801 -228.139406 
L 91.923963 -222.525834 
L 91.321125 -216.912263 
L 90.718287 -213.759655 
L 90.115449 -213.759655 
L 89.512611 -213.759655 
L 88.909773 -213.759655 
L 88.306935 -213.759655 
L 87.704097 -213.759655 
L 87.101258 -213.759655 
L 86.49842 -213.759655 
L 85.895582 -213.759655 
L 85.292744 -213.759655 
L 84.689906 -213.759655 
L 84.087068 -213.759655 
L 83.48423 -213.759655 
L 82.881392 -213.759655 
L 82.278554 -213.759655 
L 81.675716 -213.759655 
L 81.072878 -213.759655 
L 80.47004 -213.759655 
L 79.867202 -213.759655 
L 79.264364 -213.759655 
L 78.661526 -213.759655 
L 78.058687 -213.759655 
L 77.455849 -213.759655 
L 76.853011 -213.759655 
z
" style="stroke: #ff8c00; stroke-opacity: 0.3"/>
    </defs>
    <g clip-path="url(#pf4d9ae8d3a)">
     <use xlink:href="#m19bb42b00c" x="0" y="432" style="fill: #ff8c00; fill-opacity: 0.3; stroke: #ff8c00; stroke-opacity: 0.3"/>
    </g>
   </g>
   <g id="matplotlib.axis_1">
    <g id="xtick_1">
     <g id="line2d_1">
      <defs>
       <path id="m6096a86660" d="M 0 0 
L 0 3.5 
" style="stroke: #000000; stroke-width: 0.8"/>
      </defs>
      <g>
       <use xlink:href="#m6096a86660" x="76.193474" y="390.04" style="stroke: #000000; stroke-width: 0.8"/>
      </g>
     </g>
     <g id="text_1">
      <!-- 0 -->
      <g transform="translate(73.012224 404.638438) scale(0.1 -0.1)">
       <defs>
        <path id="DejaVuSans-30" d="M 2034 4250 
Q 1547 4250 1301 3770 
Q 1056 3291 1056 2328 
Q 1056 1369 1301 889 
Q 1547 409 2034 409 
Q 2525 409 2770 889 
Q 3016 1369 3016 2328 
Q 3016 3291 2770 3770 
Q 2525 4250 2034 4250 
z
M 2034 4750 
Q 2819 4750 3233 4129 
Q 3647 3509 3647 2328 
Q 3647 1150 3233 529 
Q 2819 -91 2034 -91 
Q 1250 -91 836 529 
Q 422 1150 422 2328 
Q 422 3509 836 4129 
Q 1250 4750 2034 4750 
z
" transform="scale(0.015625)"/>
       </defs>
       <use xlink:href="#DejaVuSans-30"/>
      </g>
     </g>
    </g>
    <g id="xtick_2">
     <g id="line2d_2">
      <g>
       <use xlink:href="#m6096a86660" x="195.029108" y="390.04" style="stroke: #000000; stroke-width: 0.8"/>
      </g>
     </g>
     <g id="text_2">
      <!-- 20000 -->
      <g transform="translate(179.122858 404.638438) scale(0.1 -0.1)">
       <defs>
        <path id="DejaVuSans-32" d="M 1228 531 
L 3431 531 
L 3431 0 
L 469 0 
L 469 531 
Q 828 903 1448 1529 
Q 2069 2156 2228 2338 
Q 2531 2678 2651 2914 
Q 2772 3150 2772 3378 
Q 2772 3750 2511 3984 
Q 2250 4219 1831 4219 
Q 1534 4219 1204 4116 
Q 875 4013 500 3803 
L 500 4441 
Q 881 4594 1212 4672 
Q 1544 4750 1819 4750 
Q 2544 4750 2975 4387 
Q 3406 4025 3406 3419 
Q 3406 3131 3298 2873 
Q 3191 2616 2906 2266 
Q 2828 2175 2409 1742 
Q 1991 1309 1228 531 
z
" transform="scale(0.015625)"/>
       </defs>
       <use xlink:href="#DejaVuSans-32"/>
       <use xlink:href="#DejaVuSans-30" transform="translate(63.623047 0)"/>
       <use xlink:href="#DejaVuSans-30" transform="translate(127.246094 0)"/>
       <use xlink:href="#DejaVuSans-30" transform="translate(190.869141 0)"/>
       <use xlink:href="#DejaVuSans-30" transform="translate(254.492188 0)"/>
      </g>
     </g>
    </g>
    <g id="xtick_3">
     <g id="line2d_3">
      <g>
       <use xlink:href="#m6096a86660" x="313.864742" y="390.04" style="stroke: #000000; stroke-width: 0.8"/>
      </g>
     </g>
     <g id="text_3">
      <!-- 40000 -->
      <g transform="translate(297.958492 404.638438) scale(0.1 -0.1)">
       <defs>
        <path id="DejaVuSans-34" d="M 2419 4116 
L 825 1625 
L 2419 1625 
L 2419 4116 
z
M 2253 4666 
L 3047 4666 
L 3047 1625 
L 3713 1625 
L 3713 1100 
L 3047 1100 
L 3047 0 
L 2419 0 
L 2419 1100 
L 313 1100 
L 313 1709 
L 2253 4666 
z
" transform="scale(0.015625)"/>
       </defs>
       <use xlink:href="#DejaVuSans-34"/>
       <use xlink:href="#DejaVuSans-30" transform="translate(63.623047 0)"/>
       <use xlink:href="#DejaVuSans-30" transform="translate(127.246094 0)"/>
       <use xlink:href="#DejaVuSans-30" transform="translate(190.869141 0)"/>
       <use xlink:href="#DejaVuSans-30" transform="translate(254.492188 0)"/>
      </g>
     </g>
    </g>
    <g id="xtick_4">
     <g id="line2d_4">
      <g>
       <use xlink:href="#m6096a86660" x="432.700376" y="390.04" style="stroke: #000000; stroke-width: 0.8"/>
      </g>
     </g>
     <g id="text_4">
      <!-- 60000 -->
      <g transform="translate(416.794126 404.638438) scale(0.1 -0.1)">
       <defs>
        <path id="DejaVuSans-36" d="M 2113 2584 
Q 1688 2584 1439 2293 
Q 1191 2003 1191 1497 
Q 1191 994 1439 701 
Q 1688 409 2113 409 
Q 2538 409 2786 701 
Q 3034 994 3034 1497 
Q 3034 2003 2786 2293 
Q 2538 2584 2113 2584 
z
M 3366 4563 
L 3366 3988 
Q 3128 4100 2886 4159 
Q 2644 4219 2406 4219 
Q 1781 4219 1451 3797 
Q 1122 3375 1075 2522 
Q 1259 2794 1537 2939 
Q 1816 3084 2150 3084 
Q 2853 3084 3261 2657 
Q 3669 2231 3669 1497 
Q 3669 778 3244 343 
Q 2819 -91 2113 -91 
Q 1303 -91 875 529 
Q 447 1150 447 2328 
Q 447 3434 972 4092 
Q 1497 4750 2381 4750 
Q 2619 4750 2861 4703 
Q 3103 4656 3366 4563 
z
" transform="scale(0.015625)"/>
       </defs>
       <use xlink:href="#DejaVuSans-36"/>
       <use xlink:href="#DejaVuSans-30" transform="translate(63.623047 0)"/>
       <use xlink:href="#DejaVuSans-30" transform="translate(127.246094 0)"/>
       <use xlink:href="#DejaVuSans-30" transform="translate(190.869141 0)"/>
       <use xlink:href="#DejaVuSans-30" transform="translate(254.492188 0)"/>
      </g>
     </g>
    </g>
    <g id="xtick_5">
     <g id="line2d_5">
      <g>
       <use xlink:href="#m6096a86660" x="551.536011" y="390.04" style="stroke: #000000; stroke-width: 0.8"/>
      </g>
     </g>
     <g id="text_5">
      <!-- 80000 -->
      <g transform="translate(535.629761 404.638438) scale(0.1 -0.1)">
       <defs>
        <path id="DejaVuSans-38" d="M 2034 2216 
Q 1584 2216 1326 1975 
Q 1069 1734 1069 1313 
Q 1069 891 1326 650 
Q 1584 409 2034 409 
Q 2484 409 2743 651 
Q 3003 894 3003 1313 
Q 3003 1734 2745 1975 
Q 2488 2216 2034 2216 
z
M 1403 2484 
Q 997 2584 770 2862 
Q 544 3141 544 3541 
Q 544 4100 942 4425 
Q 1341 4750 2034 4750 
Q 2731 4750 3128 4425 
Q 3525 4100 3525 3541 
Q 3525 3141 3298 2862 
Q 3072 2584 2669 2484 
Q 3125 2378 3379 2068 
Q 3634 1759 3634 1313 
Q 3634 634 3220 271 
Q 2806 -91 2034 -91 
Q 1263 -91 848 271 
Q 434 634 434 1313 
Q 434 1759 690 2068 
Q 947 2378 1403 2484 
z
M 1172 3481 
Q 1172 3119 1398 2916 
Q 1625 2713 2034 2713 
Q 2441 2713 2670 2916 
Q 2900 3119 2900 3481 
Q 2900 3844 2670 4047 
Q 2441 4250 2034 4250 
Q 1625 4250 1398 4047 
Q 1172 3844 1172 3481 
z
" transform="scale(0.015625)"/>
       </defs>
       <use xlink:href="#DejaVuSans-38"/>
       <use xlink:href="#DejaVuSans-30" transform="translate(63.623047 0)"/>
       <use xlink:href="#DejaVuSans-30" transform="translate(127.246094 0)"/>
       <use xlink:href="#DejaVuSans-30" transform="translate(190.869141 0)"/>
       <use xlink:href="#DejaVuSans-30" transform="translate(254.492188 0)"/>
      </g>
     </g>
    </g>
    <g id="xtick_6">
     <g id="line2d_6">
      <g>
       <use xlink:href="#m6096a86660" x="670.371645" y="390.04" style="stroke: #000000; stroke-width: 0.8"/>
      </g>
     </g>
     <g id="text_6">
      <!-- 100000 -->
      <g transform="translate(651.284145 404.638438) scale(0.1 -0.1)">
       <defs>
        <path id="DejaVuSans-31" d="M 794 531 
L 1825 531 
L 1825 4091 
L 703 3866 
L 703 4441 
L 1819 4666 
L 2450 4666 
L 2450 531 
L 3481 531 
L 3481 0 
L 794 0 
L 794 531 
z
" transform="scale(0.015625)"/>
       </defs>
       <use xlink:href="#DejaVuSans-31"/>
       <use xlink:href="#DejaVuSans-30" transform="translate(63.623047 0)"/>
       <use xlink:href="#DejaVuSans-30" transform="translate(127.246094 0)"/>
       <use xlink:href="#DejaVuSans-30" transform="translate(190.869141 0)"/>
       <use xlink:href="#DejaVuSans-30" transform="translate(254.492188 0)"/>
       <use xlink:href="#DejaVuSans-30" transform="translate(318.115234 0)"/>
      </g>
     </g>
    </g>
    <g id="text_7">
     <!-- Step -->
     <g transform="translate(366.585469 418.316562) scale(0.1 -0.1)">
      <defs>
       <path id="DejaVuSans-53" d="M 3425 4513 
L 3425 3897 
Q 3066 4069 2747 4153 
Q 2428 4238 2131 4238 
Q 1616 4238 1336 4038 
Q 1056 3838 1056 3469 
Q 1056 3159 1242 3001 
Q 1428 2844 1947 2747 
L 2328 2669 
Q 3034 2534 3370 2195 
Q 3706 1856 3706 1288 
Q 3706 609 3251 259 
Q 2797 -91 1919 -91 
Q 1588 -91 1214 -16 
Q 841 59 441 206 
L 441 856 
Q 825 641 1194 531 
Q 1563 422 1919 422 
Q 2459 422 2753 634 
Q 3047 847 3047 1241 
Q 3047 1584 2836 1778 
Q 2625 1972 2144 2069 
L 1759 2144 
Q 1053 2284 737 2584 
Q 422 2884 422 3419 
Q 422 4038 858 4394 
Q 1294 4750 2059 4750 
Q 2388 4750 2728 4690 
Q 3069 4631 3425 4513 
z
" transform="scale(0.015625)"/>
       <path id="DejaVuSans-74" d="M 1172 4494 
L 1172 3500 
L 2356 3500 
L 2356 3053 
L 1172 3053 
L 1172 1153 
Q 1172 725 1289 603 
Q 1406 481 1766 481 
L 2356 481 
L 2356 0 
L 1766 0 
Q 1100 0 847 248 
Q 594 497 594 1153 
L 594 3053 
L 172 3053 
L 172 3500 
L 594 3500 
L 594 4494 
L 1172 4494 
z
" transform="scale(0.015625)"/>
       <path id="DejaVuSans-65" d="M 3597 1894 
L 3597 1613 
L 953 1613 
Q 991 1019 1311 708 
Q 1631 397 2203 397 
Q 2534 397 2845 478 
Q 3156 559 3463 722 
L 3463 178 
Q 3153 47 2828 -22 
Q 2503 -91 2169 -91 
Q 1331 -91 842 396 
Q 353 884 353 1716 
Q 353 2575 817 3079 
Q 1281 3584 2069 3584 
Q 2775 3584 3186 3129 
Q 3597 2675 3597 1894 
z
M 3022 2063 
Q 3016 2534 2758 2815 
Q 2500 3097 2075 3097 
Q 1594 3097 1305 2825 
Q 1016 2553 972 2059 
L 3022 2063 
z
" transform="scale(0.015625)"/>
       <path id="DejaVuSans-70" d="M 1159 525 
L 1159 -1331 
L 581 -1331 
L 581 3500 
L 1159 3500 
L 1159 2969 
Q 1341 3281 1617 3432 
Q 1894 3584 2278 3584 
Q 2916 3584 3314 3078 
Q 3713 2572 3713 1747 
Q 3713 922 3314 415 
Q 2916 -91 2278 -91 
Q 1894 -91 1617 61 
Q 1341 213 1159 525 
z
M 3116 1747 
Q 3116 2381 2855 2742 
Q 2594 3103 2138 3103 
Q 1681 3103 1420 2742 
Q 1159 2381 1159 1747 
Q 1159 1113 1420 752 
Q 1681 391 2138 391 
Q 2594 391 2855 752 
Q 3116 1113 3116 1747 
z
" transform="scale(0.015625)"/>
      </defs>
      <use xlink:href="#DejaVuSans-53"/>
      <use xlink:href="#DejaVuSans-74" transform="translate(63.476562 0)"/>
      <use xlink:href="#DejaVuSans-65" transform="translate(102.685547 0)"/>
      <use xlink:href="#DejaVuSans-70" transform="translate(164.208984 0)"/>
     </g>
    </g>
   </g>
   <g id="matplotlib.axis_2">
    <g id="ytick_1">
     <g id="line2d_7">
      <defs>
       <path id="m05008ad68b" d="M 0 0 
L -3.5 0 
" style="stroke: #000000; stroke-width: 0.8"/>
      </defs>
      <g>
       <use xlink:href="#m05008ad68b" x="46.74125" y="370.893928" style="stroke: #000000; stroke-width: 0.8"/>
      </g>
     </g>
     <g id="text_8">
      <!-- 3 -->
      <g transform="translate(24.999063 374.693147) scale(0.1 -0.1)">
       <defs>
        <path id="DejaVuSans-2212" d="M 678 2272 
L 4684 2272 
L 4684 1741 
L 678 1741 
L 678 2272 
z
" transform="scale(0.015625)"/>
        <path id="DejaVuSans-33" d="M 2597 2516 
Q 3050 2419 3304 2112 
Q 3559 1806 3559 1356 
Q 3559 666 3084 287 
Q 2609 -91 1734 -91 
Q 1441 -91 1130 -33 
Q 819 25 488 141 
L 488 750 
Q 750 597 1062 519 
Q 1375 441 1716 441 
Q 2309 441 2620 675 
Q 2931 909 2931 1356 
Q 2931 1769 2642 2001 
Q 2353 2234 1838 2234 
L 1294 2234 
L 1294 2753 
L 1863 2753 
Q 2328 2753 2575 2939 
Q 2822 3125 2822 3475 
Q 2822 3834 2567 4026 
Q 2313 4219 1838 4219 
Q 1578 4219 1281 4162 
Q 984 4106 628 3988 
L 628 4550 
Q 988 4650 1302 4700 
Q 1616 4750 1894 4750 
Q 2613 4750 3031 4423 
Q 3450 4097 3450 3541 
Q 3450 3153 3228 2886 
Q 3006 2619 2597 2516 
z
" transform="scale(0.015625)"/>
       </defs>
       <use xlink:href="#DejaVuSans-2212"/>
       <use xlink:href="#DejaVuSans-33" transform="translate(83.789062 0)"/>
      </g>
     </g>
    </g>
    <g id="ytick_2">
     <g id="line2d_8">
      <g>
       <use xlink:href="#m05008ad68b" x="46.74125" y="329.529732" style="stroke: #000000; stroke-width: 0.8"/>
      </g>
     </g>
     <g id="text_9">
      <!-- 2 -->
      <g transform="translate(24.999063 333.32895) scale(0.1 -0.1)">
       <use xlink:href="#DejaVuSans-2212"/>
       <use xlink:href="#DejaVuSans-32" transform="translate(83.789062 0)"/>
      </g>
     </g>
    </g>
    <g id="ytick_3">
     <g id="line2d_9">
      <g>
       <use xlink:href="#m05008ad68b" x="46.74125" y="288.165535" style="stroke: #000000; stroke-width: 0.8"/>
      </g>
     </g>
     <g id="text_10">
      <!-- 1 -->
      <g transform="translate(24.999063 291.964754) scale(0.1 -0.1)">
       <use xlink:href="#DejaVuSans-2212"/>
       <use xlink:href="#DejaVuSans-31" transform="translate(83.789062 0)"/>
      </g>
     </g>
    </g>
    <g id="ytick_4">
     <g id="line2d_10">
      <g>
       <use xlink:href="#m05008ad68b" x="46.74125" y="246.801338" style="stroke: #000000; stroke-width: 0.8"/>
      </g>
     </g>
     <g id="text_11">
      <!-- 0 -->
      <g transform="translate(33.37875 250.600557) scale(0.1 -0.1)">
       <use xlink:href="#DejaVuSans-30"/>
      </g>
     </g>
    </g>
    <g id="ytick_5">
     <g id="line2d_11">
      <g>
       <use xlink:href="#m05008ad68b" x="46.74125" y="205.437142" style="stroke: #000000; stroke-width: 0.8"/>
      </g>
     </g>
     <g id="text_12">
      <!-- 1 -->
      <g transform="translate(33.37875 209.23636) scale(0.1 -0.1)">
       <use xlink:href="#DejaVuSans-31"/>
      </g>
     </g>
    </g>
    <g id="ytick_6">
     <g id="line2d_12">
      <g>
       <use xlink:href="#m05008ad68b" x="46.74125" y="164.072945" style="stroke: #000000; stroke-width: 0.8"/>
      </g>
     </g>
     <g id="text_13">
      <!-- 2 -->
      <g transform="translate(33.37875 167.872164) scale(0.1 -0.1)">
       <use xlink:href="#DejaVuSans-32"/>
      </g>
     </g>
    </g>
    <g id="ytick_7">
     <g id="line2d_13">
      <g>
       <use xlink:href="#m05008ad68b" x="46.74125" y="122.708748" style="stroke: #000000; stroke-width: 0.8"/>
      </g>
     </g>
     <g id="text_14">
      <!-- 3 -->
      <g transform="translate(33.37875 126.507967) scale(0.1 -0.1)">
       <use xlink:href="#DejaVuSans-33"/>
      </g>
     </g>
    </g>
    <g id="ytick_8">
     <g id="line2d_14">
      <g>
       <use xlink:href="#m05008ad68b" x="46.74125" y="81.344552" style="stroke: #000000; stroke-width: 0.8"/>
      </g>
     </g>
     <g id="text_15">
      <!-- 4 -->
      <g transform="translate(33.37875 85.143771) scale(0.1 -0.1)">
       <use xlink:href="#DejaVuSans-34"/>
      </g>
     </g>
    </g>
    <g id="ytick_9">
     <g id="line2d_15">
      <g>
       <use xlink:href="#m05008ad68b" x="46.74125" y="39.980355" style="stroke: #000000; stroke-width: 0.8"/>
      </g>
     </g>
     <g id="text_16">
      <!-- 5 -->
      <g transform="translate(33.37875 43.779574) scale(0.1 -0.1)">
       <defs>
        <path id="DejaVuSans-35" d="M 691 4666 
L 3169 4666 
L 3169 4134 
L 1269 4134 
L 1269 2991 
Q 1406 3038 1543 3061 
Q 1681 3084 1819 3084 
Q 2600 3084 3056 2656 
Q 3513 2228 3513 1497 
Q 3513 744 3044 326 
Q 2575 -91 1722 -91 
Q 1428 -91 1123 -41 
Q 819 9 494 109 
L 494 744 
Q 775 591 1075 516 
Q 1375 441 1709 441 
Q 2250 441 2565 725 
Q 2881 1009 2881 1497 
Q 2881 1984 2565 2268 
Q 2250 2553 1709 2553 
Q 1456 2553 1204 2497 
Q 953 2441 691 2322 
L 691 4666 
z
" transform="scale(0.015625)"/>
       </defs>
       <use xlink:href="#DejaVuSans-35"/>
      </g>
     </g>
    </g>
    <g id="text_17">
     <!-- charts/episodic_return -->
     <g transform="translate(18.64125 263.428281) rotate(-90) scale(0.1 -0.1)">
      <defs>
       <path id="DejaVuSans-63" d="M 3122 3366 
L 3122 2828 
Q 2878 2963 2633 3030 
Q 2388 3097 2138 3097 
Q 1578 3097 1268 2742 
Q 959 2388 959 1747 
Q 959 1106 1268 751 
Q 1578 397 2138 397 
Q 2388 397 2633 464 
Q 2878 531 3122 666 
L 3122 134 
Q 2881 22 2623 -34 
Q 2366 -91 2075 -91 
Q 1284 -91 818 406 
Q 353 903 353 1747 
Q 353 2603 823 3093 
Q 1294 3584 2113 3584 
Q 2378 3584 2631 3529 
Q 2884 3475 3122 3366 
z
" transform="scale(0.015625)"/>
       <path id="DejaVuSans-68" d="M 3513 2113 
L 3513 0 
L 2938 0 
L 2938 2094 
Q 2938 2591 2744 2837 
Q 2550 3084 2163 3084 
Q 1697 3084 1428 2787 
Q 1159 2491 1159 1978 
L 1159 0 
L 581 0 
L 581 4863 
L 1159 4863 
L 1159 2956 
Q 1366 3272 1645 3428 
Q 1925 3584 2291 3584 
Q 2894 3584 3203 3211 
Q 3513 2838 3513 2113 
z
" transform="scale(0.015625)"/>
       <path id="DejaVuSans-61" d="M 2194 1759 
Q 1497 1759 1228 1600 
Q 959 1441 959 1056 
Q 959 750 1161 570 
Q 1363 391 1709 391 
Q 2188 391 2477 730 
Q 2766 1069 2766 1631 
L 2766 1759 
L 2194 1759 
z
M 3341 1997 
L 3341 0 
L 2766 0 
L 2766 531 
Q 2569 213 2275 61 
Q 1981 -91 1556 -91 
Q 1019 -91 701 211 
Q 384 513 384 1019 
Q 384 1609 779 1909 
Q 1175 2209 1959 2209 
L 2766 2209 
L 2766 2266 
Q 2766 2663 2505 2880 
Q 2244 3097 1772 3097 
Q 1472 3097 1187 3025 
Q 903 2953 641 2809 
L 641 3341 
Q 956 3463 1253 3523 
Q 1550 3584 1831 3584 
Q 2591 3584 2966 3190 
Q 3341 2797 3341 1997 
z
" transform="scale(0.015625)"/>
       <path id="DejaVuSans-72" d="M 2631 2963 
Q 2534 3019 2420 3045 
Q 2306 3072 2169 3072 
Q 1681 3072 1420 2755 
Q 1159 2438 1159 1844 
L 1159 0 
L 581 0 
L 581 3500 
L 1159 3500 
L 1159 2956 
Q 1341 3275 1631 3429 
Q 1922 3584 2338 3584 
Q 2397 3584 2469 3576 
Q 2541 3569 2628 3553 
L 2631 2963 
z
" transform="scale(0.015625)"/>
       <path id="DejaVuSans-73" d="M 2834 3397 
L 2834 2853 
Q 2591 2978 2328 3040 
Q 2066 3103 1784 3103 
Q 1356 3103 1142 2972 
Q 928 2841 928 2578 
Q 928 2378 1081 2264 
Q 1234 2150 1697 2047 
L 1894 2003 
Q 2506 1872 2764 1633 
Q 3022 1394 3022 966 
Q 3022 478 2636 193 
Q 2250 -91 1575 -91 
Q 1294 -91 989 -36 
Q 684 19 347 128 
L 347 722 
Q 666 556 975 473 
Q 1284 391 1588 391 
Q 1994 391 2212 530 
Q 2431 669 2431 922 
Q 2431 1156 2273 1281 
Q 2116 1406 1581 1522 
L 1381 1569 
Q 847 1681 609 1914 
Q 372 2147 372 2553 
Q 372 3047 722 3315 
Q 1072 3584 1716 3584 
Q 2034 3584 2315 3537 
Q 2597 3491 2834 3397 
z
" transform="scale(0.015625)"/>
       <path id="DejaVuSans-2f" d="M 1625 4666 
L 2156 4666 
L 531 -594 
L 0 -594 
L 1625 4666 
z
" transform="scale(0.015625)"/>
       <path id="DejaVuSans-69" d="M 603 3500 
L 1178 3500 
L 1178 0 
L 603 0 
L 603 3500 
z
M 603 4863 
L 1178 4863 
L 1178 4134 
L 603 4134 
L 603 4863 
z
" transform="scale(0.015625)"/>
       <path id="DejaVuSans-6f" d="M 1959 3097 
Q 1497 3097 1228 2736 
Q 959 2375 959 1747 
Q 959 1119 1226 758 
Q 1494 397 1959 397 
Q 2419 397 2687 759 
Q 2956 1122 2956 1747 
Q 2956 2369 2687 2733 
Q 2419 3097 1959 3097 
z
M 1959 3584 
Q 2709 3584 3137 3096 
Q 3566 2609 3566 1747 
Q 3566 888 3137 398 
Q 2709 -91 1959 -91 
Q 1206 -91 779 398 
Q 353 888 353 1747 
Q 353 2609 779 3096 
Q 1206 3584 1959 3584 
z
" transform="scale(0.015625)"/>
       <path id="DejaVuSans-64" d="M 2906 2969 
L 2906 4863 
L 3481 4863 
L 3481 0 
L 2906 0 
L 2906 525 
Q 2725 213 2448 61 
Q 2172 -91 1784 -91 
Q 1150 -91 751 415 
Q 353 922 353 1747 
Q 353 2572 751 3078 
Q 1150 3584 1784 3584 
Q 2172 3584 2448 3432 
Q 2725 3281 2906 2969 
z
M 947 1747 
Q 947 1113 1208 752 
Q 1469 391 1925 391 
Q 2381 391 2643 752 
Q 2906 1113 2906 1747 
Q 2906 2381 2643 2742 
Q 2381 3103 1925 3103 
Q 1469 3103 1208 2742 
Q 947 2381 947 1747 
z
" transform="scale(0.015625)"/>
       <path id="DejaVuSans-5f" d="M 3263 -1063 
L 3263 -1509 
L -63 -1509 
L -63 -1063 
L 3263 -1063 
z
" transform="scale(0.015625)"/>
       <path id="DejaVuSans-75" d="M 544 1381 
L 544 3500 
L 1119 3500 
L 1119 1403 
Q 1119 906 1312 657 
Q 1506 409 1894 409 
Q 2359 409 2629 706 
Q 2900 1003 2900 1516 
L 2900 3500 
L 3475 3500 
L 3475 0 
L 2900 0 
L 2900 538 
Q 2691 219 2414 64 
Q 2138 -91 1772 -91 
Q 1169 -91 856 284 
Q 544 659 544 1381 
z
M 1991 3584 
L 1991 3584 
z
" transform="scale(0.015625)"/>
       <path id="DejaVuSans-6e" d="M 3513 2113 
L 3513 0 
L 2938 0 
L 2938 2094 
Q 2938 2591 2744 2837 
Q 2550 3084 2163 3084 
Q 1697 3084 1428 2787 
Q 1159 2491 1159 1978 
L 1159 0 
L 581 0 
L 581 3500 
L 1159 3500 
L 1159 2956 
Q 1366 3272 1645 3428 
Q 1925 3584 2291 3584 
Q 2894 3584 3203 3211 
Q 3513 2838 3513 2113 
z
" transform="scale(0.015625)"/>
      </defs>
      <use xlink:href="#DejaVuSans-63"/>
      <use xlink:href="#DejaVuSans-68" transform="translate(54.980469 0)"/>
      <use xlink:href="#DejaVuSans-61" transform="translate(118.359375 0)"/>
      <use xlink:href="#DejaVuSans-72" transform="translate(179.638672 0)"/>
      <use xlink:href="#DejaVuSans-74" transform="translate(220.751953 0)"/>
      <use xlink:href="#DejaVuSans-73" transform="translate(259.960938 0)"/>
      <use xlink:href="#DejaVuSans-2f" transform="translate(312.060547 0)"/>
      <use xlink:href="#DejaVuSans-65" transform="translate(345.751953 0)"/>
      <use xlink:href="#DejaVuSans-70" transform="translate(407.275391 0)"/>
      <use xlink:href="#DejaVuSans-69" transform="translate(470.751953 0)"/>
      <use xlink:href="#DejaVuSans-73" transform="translate(498.535156 0)"/>
      <use xlink:href="#DejaVuSans-6f" transform="translate(550.634766 0)"/>
      <use xlink:href="#DejaVuSans-64" transform="translate(611.816406 0)"/>
      <use xlink:href="#DejaVuSans-69" transform="translate(675.292969 0)"/>
      <use xlink:href="#DejaVuSans-63" transform="translate(703.076172 0)"/>
      <use xlink:href="#DejaVuSans-5f" transform="translate(758.056641 0)"/>
      <use xlink:href="#DejaVuSans-72" transform="translate(808.056641 0)"/>
      <use xlink:href="#DejaVuSans-65" transform="translate(846.919922 0)"/>
      <use xlink:href="#DejaVuSans-74" transform="translate(908.443359 0)"/>
      <use xlink:href="#DejaVuSans-75" transform="translate(947.652344 0)"/>
      <use xlink:href="#DejaVuSans-72" transform="translate(1011.03125 0)"/>
      <use xlink:href="#DejaVuSans-6e" transform="translate(1050.394531 0)"/>
     </g>
    </g>
   </g>
   <g id="line2d_16">
    <path d="M 76.853011 246.119864 
L 77.455849 246.092861 
L 78.661526 246.190067 
L 79.264364 246.089627 
L 81.072878 246.263784 
L 82.278554 246.221436 
L 83.48423 246.266087 
L 85.895582 245.670209 
L 86.49842 245.730577 
L 87.704097 245.588856 
L 90.115449 244.936698 
L 91.321125 244.878617 
L 92.526801 244.476265 
L 93.129639 244.401493 
L 94.335315 243.990591 
L 94.938153 243.694335 
L 96.143829 244.008405 
L 97.349506 243.69643 
L 98.555182 243.999382 
L 99.15802 244.25297 
L 100.363696 244.50044 
L 102.17221 245.151199 
L 103.377886 245.392634 
L 103.980724 245.792932 
L 104.583562 246.037496 
L 105.789238 246.221013 
L 106.392077 246.480048 
L 106.994915 246.927666 
L 107.597753 247.120852 
L 108.200591 247.123674 
L 109.406267 246.527991 
L 114.228971 243.951055 
L 115.434648 243.706991 
L 116.640324 243.294337 
L 117.243162 243.216956 
L 119.654514 242.385339 
L 120.257352 242.41668 
L 120.86019 242.328493 
L 122.065866 241.834253 
L 124.477219 241.720379 
L 125.682895 241.630036 
L 128.697085 241.326264 
L 129.299923 241.484023 
L 129.902761 241.864412 
L 131.711275 242.42716 
L 132.916951 242.70998 
L 134.122628 242.785513 
L 135.328304 243.285816 
L 135.931142 243.546494 
L 137.739656 243.796969 
L 139.54817 244.182879 
L 140.151008 244.013827 
L 141.959522 243.233398 
L 144.973713 242.379705 
L 147.385065 241.312877 
L 147.987903 241.401968 
L 149.193579 240.889349 
L 149.796417 240.670521 
L 150.399255 240.623843 
L 153.413446 241.552614 
L 154.619122 242.018453 
L 155.22196 242.198273 
L 155.824798 242.584305 
L 157.030474 243.042849 
L 160.044664 243.694065 
L 160.647502 243.715875 
L 163.661693 242.596798 
L 164.867369 242.29773 
L 165.470207 242.005219 
L 166.073045 241.873275 
L 167.278721 241.261879 
L 167.881559 240.981543 
L 168.484397 240.964045 
L 169.690073 240.435596 
L 170.292911 240.161708 
L 171.498588 239.367102 
L 172.101426 239.244026 
L 172.704264 239.545359 
L 175.115616 239.948951 
L 179.938321 240.03994 
L 181.746835 239.793806 
L 182.349673 240.006035 
L 183.555349 240.708298 
L 185.363863 241.344503 
L 191.392244 244.532948 
L 191.995082 244.701303 
L 192.59792 245.069796 
L 195.009272 245.875781 
L 198.023462 246.696213 
L 198.626301 247.088599 
L 199.229139 247.622967 
L 201.037653 248.223814 
L 202.846167 248.624637 
L 203.449005 248.629669 
L 204.654681 248.265528 
L 205.860357 247.80305 
L 206.463195 247.676163 
L 209.477386 246.387297 
L 213.094414 244.778296 
L 213.697252 244.739978 
L 214.30009 244.972713 
L 216.108604 245.287613 
L 217.917119 245.772025 
L 220.328471 246.258827 
L 220.931309 246.557959 
L 222.136985 246.921 
L 223.342661 246.823638 
L 223.945499 247.345515 
L 224.548337 247.575513 
L 227.562528 247.408949 
L 229.371042 247.999269 
L 230.576718 248.049262 
L 232.98807 248.43731 
L 234.796584 248.446154 
L 236.605099 247.737018 
L 237.207937 247.417514 
L 238.413613 247.290158 
L 239.619289 246.700491 
L 240.824965 246.646315 
L 241.427803 246.447972 
L 242.633479 245.806208 
L 243.839155 245.568448 
L 245.044832 245.123308 
L 246.250508 244.761825 
L 248.059022 243.863967 
L 250.470374 242.844137 
L 251.073212 242.808335 
L 252.278888 242.227964 
L 253.484565 241.54902 
L 255.895917 240.805606 
L 256.498755 240.882581 
L 257.704431 240.534004 
L 258.307269 240.606315 
L 258.910107 240.874941 
L 260.115783 241.00257 
L 261.321459 241.003926 
L 262.527135 241.396986 
L 263.732812 241.324648 
L 264.33565 241.429478 
L 265.541326 241.920453 
L 266.144164 242.110308 
L 266.747002 242.034952 
L 270.36403 240.003725 
L 270.966868 239.729438 
L 272.172545 238.965628 
L 272.775383 238.685691 
L 273.981059 237.915639 
L 275.186735 237.228786 
L 276.995249 236.094553 
L 277.598087 236.41858 
L 278.200925 236.990178 
L 279.406601 237.775146 
L 280.009439 238.631688 
L 280.612277 239.098946 
L 283.626468 240.575921 
L 284.832144 241.905831 
L 286.640658 243.359437 
L 287.243496 244.039238 
L 287.846334 244.354575 
L 289.05201 243.640091 
L 291.463363 242.393118 
L 293.271877 241.023685 
L 294.477553 240.467863 
L 295.080391 240.298501 
L 298.094581 238.59324 
L 298.697419 238.830497 
L 299.903096 239.797084 
L 301.108772 241.054301 
L 302.314448 241.715853 
L 302.917286 242.352846 
L 307.137152 245.798868 
L 308.342828 246.840835 
L 308.945667 247.217705 
L 309.548505 247.275374 
L 310.754181 247.578573 
L 311.959857 247.625675 
L 313.768371 247.855111 
L 314.974047 248.230176 
L 318.591076 249.071254 
L 319.193914 249.321774 
L 320.39959 249.170535 
L 321.605266 249.088584 
L 324.619456 249.10784 
L 325.222294 248.78045 
L 327.633647 248.114768 
L 329.442161 247.890521 
L 330.044999 247.714589 
L 331.250675 247.906073 
L 332.456351 248.317866 
L 333.662027 248.479528 
L 336.073379 249.068954 
L 337.881894 249.782959 
L 339.08757 250.186364 
L 339.690408 250.481043 
L 340.293246 250.490785 
L 342.704598 248.961526 
L 343.307436 248.388008 
L 343.910274 248.273249 
L 344.513112 247.967758 
L 347.527303 245.699923 
L 351.144331 242.731232 
L 352.350007 243.281009 
L 354.761359 244.022679 
L 357.172712 245.373511 
L 357.77555 245.556108 
L 359.584064 246.410512 
L 361.995416 247.068937 
L 364.406769 246.911254 
L 366.215283 247.114781 
L 367.420959 246.826683 
L 368.023797 246.852128 
L 368.626635 247.036239 
L 369.229473 247.083405 
L 372.846501 246.726673 
L 373.44934 246.757141 
L 374.655016 247.077529 
L 378.874882 246.589547 
L 379.47772 246.703534 
L 381.889072 246.368857 
L 383.094749 246.565357 
L 385.506101 247.805298 
L 386.711777 247.890576 
L 387.314615 247.914801 
L 389.123129 248.859401 
L 390.931643 249.371299 
L 393.342996 249.668606 
L 394.548672 249.492477 
L 396.357186 248.671633 
L 398.1657 248.632876 
L 399.974214 248.084419 
L 401.179891 247.98254 
L 402.988405 247.178368 
L 404.194081 247.057187 
L 405.399757 246.634416 
L 406.605433 245.916285 
L 409.016785 244.99044 
L 410.222461 244.249444 
L 410.8253 244.213161 
L 411.428138 243.912909 
L 412.633814 243.084235 
L 413.83949 242.647358 
L 414.442328 242.27175 
L 415.045166 242.153989 
L 415.648004 242.287009 
L 416.85368 243.076621 
L 418.662194 243.776715 
L 419.265032 244.142586 
L 421.073547 244.623149 
L 422.279223 245.309728 
L 425.293413 246.396982 
L 427.704765 245.932521 
L 428.910442 245.462324 
L 430.718956 245.422682 
L 431.924632 245.045822 
L 436.747336 244.758297 
L 437.953013 244.336356 
L 438.555851 244.370161 
L 439.761527 244.728783 
L 442.172879 244.617291 
L 442.775717 244.404028 
L 446.392745 244.371255 
L 447.598422 244.482176 
L 453.023964 245.654502 
L 453.626802 245.666962 
L 454.832478 246.010191 
L 456.038154 246.198623 
L 456.640993 246.377749 
L 457.243831 246.419517 
L 458.449507 246.093082 
L 459.655183 246.340698 
L 461.463697 246.230279 
L 462.066535 246.335455 
L 462.669373 246.573941 
L 463.875049 246.717633 
L 464.477887 246.67562 
L 466.88924 246.998355 
L 467.492078 246.957555 
L 468.697754 247.128817 
L 474.726134 246.37439 
L 475.931811 246.014451 
L 478.946001 245.91714 
L 479.548839 246.141299 
L 480.151677 246.488094 
L 482.563029 247.161073 
L 487.385734 248.191041 
L 489.797086 248.299981 
L 491.002762 248.011851 
L 492.208438 247.764564 
L 493.414115 247.727843 
L 494.016953 247.511371 
L 496.428305 247.469964 
L 497.633981 247.411572 
L 499.442495 247.051768 
L 501.853847 244.828098 
L 502.456685 244.159796 
L 504.868038 242.551018 
L 506.073714 241.323014 
L 507.882228 239.250179 
L 508.485066 238.655809 
L 509.087904 238.506507 
L 509.690742 238.208569 
L 510.896418 238.734651 
L 512.102095 239.503467 
L 517.527637 241.996122 
L 518.130475 242.488195 
L 519.938989 243.191952 
L 520.541827 243.288558 
L 521.144666 243.250859 
L 521.747504 243.476358 
L 523.556018 243.568587 
L 524.761694 244.087024 
L 525.96737 244.436338 
L 526.570208 244.612579 
L 529.584398 244.66978 
L 530.790075 244.893939 
L 531.995751 245.198395 
L 533.201427 245.056526 
L 534.407103 244.898228 
L 535.009941 244.916 
L 535.612779 244.656773 
L 536.818455 244.487957 
L 538.626969 244.474892 
L 539.832646 244.697734 
L 540.435484 244.621154 
L 541.038322 244.765817 
L 542.846836 244.778783 
L 547.066702 245.155232 
L 547.66954 245.221116 
L 548.272378 245.472287 
L 549.478055 245.460468 
L 550.080893 245.505631 
L 550.683731 245.734619 
L 551.889407 245.639086 
L 553.095083 246.174082 
L 554.903597 246.840884 
L 556.712111 247.399889 
L 557.314949 247.933013 
L 560.32914 249.241734 
L 561.534816 249.666317 
L 562.740492 250.112974 
L 563.946168 249.610049 
L 564.549006 249.62733 
L 565.754682 249.340282 
L 567.563197 248.68069 
L 568.768873 248.562589 
L 571.180225 247.87246 
L 571.783063 247.804039 
L 572.988739 247.837787 
L 575.400091 247.719558 
L 576.002929 247.50128 
L 577.208606 247.40534 
L 577.811444 247.213217 
L 579.01712 247.107815 
L 583.839824 246.181216 
L 586.251177 245.784932 
L 587.456853 245.33689 
L 589.265367 244.739366 
L 589.868205 244.675924 
L 591.073881 244.356339 
L 594.088071 243.826817 
L 596.499424 244.523645 
L 597.102262 244.894881 
L 599.513614 245.414095 
L 600.71929 245.359918 
L 601.924966 245.71831 
L 603.73348 246.610174 
L 604.939157 246.905335 
L 606.144833 246.315345 
L 607.350509 245.352248 
L 610.364699 243.84839 
L 612.173213 242.881891 
L 615.187404 241.665571 
L 615.790242 241.601289 
L 617.598756 242.576206 
L 619.40727 243.865483 
L 620.612946 244.824035 
L 621.818622 245.782871 
L 622.42146 245.995046 
L 623.024299 246.469937 
L 623.627137 246.753897 
L 624.832813 247.534674 
L 626.038489 248.235499 
L 627.244165 248.167087 
L 629.052679 247.472418 
L 630.258355 246.64297 
L 630.861193 246.351961 
L 631.464031 246.289559 
L 634.478222 245.28456 
L 635.683898 244.546477 
L 637.492412 243.794178 
L 638.698088 243.065561 
L 639.903764 243.237886 
L 640.506602 242.92141 
L 641.712279 242.644699 
L 644.726469 241.830416 
L 645.932145 241.242407 
L 647.137821 241.04481 
L 649.549173 241.343768 
L 650.75485 241.835305 
L 651.960526 242.228759 
L 653.166202 242.321236 
L 653.76904 242.764942 
L 659.194582 244.343346 
L 660.400259 244.963023 
L 662.811611 246.324528 
L 664.017287 246.690274 
L 667.031477 248.039526 
L 668.237153 248.434026 
L 668.839992 248.353603 
L 669.44283 248.081171 
L 670.045668 247.942544 
L 677.279724 243.944226 
L 679.088239 243.030346 
L 679.088239 243.030346 
" clip-path="url(#pf4d9ae8d3a)" style="fill: none; stroke: #ff8c00; stroke-width: 1.5; stroke-linecap: square"/>
   </g>
   <g id="patch_3">
    <path d="M 46.74125 390.04 
L 46.74125 25.44 
" style="fill: none; stroke: #000000; stroke-width: 0.8; stroke-linejoin: miter; stroke-linecap: square"/>
   </g>
   <g id="patch_4">
    <path d="M 709.2 390.04 
L 709.2 25.44 
" style="fill: none; stroke: #000000; stroke-width: 0.8; stroke-linejoin: miter; stroke-linecap: square"/>
   </g>
   <g id="patch_5">
    <path d="M 46.74125 390.04 
L 709.2 390.04 
" style="fill: none; stroke: #000000; stroke-width: 0.8; stroke-linejoin: miter; stroke-linecap: square"/>
   </g>
   <g id="patch_6">
    <path d="M 46.74125 25.44 
L 709.2 25.44 
" style="fill: none; stroke: #000000; stroke-width: 0.8; stroke-linejoin: miter; stroke-linecap: square"/>
   </g>
   <g id="text_18">
    <!-- charts/episodic_return for reinforce_atari (aggregated via interpolation over runs) -->
    <g transform="translate(132.999063 19.44) scale(0.12 -0.12)">
     <defs>
      <path id="DejaVuSans-20" transform="scale(0.015625)"/>
      <path id="DejaVuSans-66" d="M 2375 4863 
L 2375 4384 
L 1825 4384 
Q 1516 4384 1395 4259 
Q 1275 4134 1275 3809 
L 1275 3500 
L 2222 3500 
L 2222 3053 
L 1275 3053 
L 1275 0 
L 697 0 
L 697 3053 
L 147 3053 
L 147 3500 
L 697 3500 
L 697 3744 
Q 697 4328 969 4595 
Q 1241 4863 1831 4863 
L 2375 4863 
z
" transform="scale(0.015625)"/>
      <path id="DejaVuSans-28" d="M 1984 4856 
Q 1566 4138 1362 3434 
Q 1159 2731 1159 2009 
Q 1159 1288 1364 580 
Q 1569 -128 1984 -844 
L 1484 -844 
Q 1016 -109 783 600 
Q 550 1309 550 2009 
Q 550 2706 781 3412 
Q 1013 4119 1484 4856 
L 1984 4856 
z
" transform="scale(0.015625)"/>
      <path id="DejaVuSans-67" d="M 2906 1791 
Q 2906 2416 2648 2759 
Q 2391 3103 1925 3103 
Q 1463 3103 1205 2759 
Q 947 2416 947 1791 
Q 947 1169 1205 825 
Q 1463 481 1925 481 
Q 2391 481 2648 825 
Q 2906 1169 2906 1791 
z
M 3481 434 
Q 3481 -459 3084 -895 
Q 2688 -1331 1869 -1331 
Q 1566 -1331 1297 -1286 
Q 1028 -1241 775 -1147 
L 775 -588 
Q 1028 -725 1275 -790 
Q 1522 -856 1778 -856 
Q 2344 -856 2625 -561 
Q 2906 -266 2906 331 
L 2906 616 
Q 2728 306 2450 153 
Q 2172 0 1784 0 
Q 1141 0 747 490 
Q 353 981 353 1791 
Q 353 2603 747 3093 
Q 1141 3584 1784 3584 
Q 2172 3584 2450 3431 
Q 2728 3278 2906 2969 
L 2906 3500 
L 3481 3500 
L 3481 434 
z
" transform="scale(0.015625)"/>
      <path id="DejaVuSans-76" d="M 191 3500 
L 800 3500 
L 1894 563 
L 2988 3500 
L 3597 3500 
L 2284 0 
L 1503 0 
L 191 3500 
z
" transform="scale(0.015625)"/>
      <path id="DejaVuSans-6c" d="M 603 4863 
L 1178 4863 
L 1178 0 
L 603 0 
L 603 4863 
z
" transform="scale(0.015625)"/>
      <path id="DejaVuSans-29" d="M 513 4856 
L 1013 4856 
Q 1481 4119 1714 3412 
Q 1947 2706 1947 2009 
Q 1947 1309 1714 600 
Q 1481 -109 1013 -844 
L 513 -844 
Q 928 -128 1133 580 
Q 1338 1288 1338 2009 
Q 1338 2731 1133 3434 
Q 928 4138 513 4856 
z
" transform="scale(0.015625)"/>
     </defs>
     <use xlink:href="#DejaVuSans-63"/>
     <use xlink:href="#DejaVuSans-68" transform="translate(54.980469 0)"/>
     <use xlink:href="#DejaVuSans-61" transform="translate(118.359375 0)"/>
     <use xlink:href="#DejaVuSans-72" transform="translate(179.638672 0)"/>
     <use xlink:href="#DejaVuSans-74" transform="translate(220.751953 0)"/>
     <use xlink:href="#DejaVuSans-73" transform="translate(259.960938 0)"/>
     <use xlink:href="#DejaVuSans-2f" transform="translate(312.060547 0)"/>
     <use xlink:href="#DejaVuSans-65" transform="translate(345.751953 0)"/>
     <use xlink:href="#DejaVuSans-70" transform="translate(407.275391 0)"/>
     <use xlink:href="#DejaVuSans-69" transform="translate(470.751953 0)"/>
     <use xlink:href="#DejaVuSans-73" transform="translate(498.535156 0)"/>
     <use xlink:href="#DejaVuSans-6f" transform="translate(550.634766 0)"/>
     <use xlink:href="#DejaVuSans-64" transform="translate(611.816406 0)"/>
     <use xlink:href="#DejaVuSans-69" transform="translate(675.292969 0)"/>
     <use xlink:href="#DejaVuSans-63" transform="translate(703.076172 0)"/>
     <use xlink:href="#DejaVuSans-5f" transform="translate(758.056641 0)"/>
     <use xlink:href="#DejaVuSans-72" transform="translate(808.056641 0)"/>
     <use xlink:href="#DejaVuSans-65" transform="translate(846.919922 0)"/>
     <use xlink:href="#DejaVuSans-74" transform="translate(908.443359 0)"/>
     <use xlink:href="#DejaVuSans-75" transform="translate(947.652344 0)"/>
     <use xlink:href="#DejaVuSans-72" transform="translate(1011.03125 0)"/>
     <use xlink:href="#DejaVuSans-6e" transform="translate(1050.394531 0)"/>
     <use xlink:href="#DejaVuSans-20" transform="translate(1113.773438 0)"/>
     <use xlink:href="#DejaVuSans-66" transform="translate(1145.560547 0)"/>
     <use xlink:href="#DejaVuSans-6f" transform="translate(1180.765625 0)"/>
     <use xlink:href="#DejaVuSans-72" transform="translate(1241.947266 0)"/>
     <use xlink:href="#DejaVuSans-20" transform="translate(1283.060547 0)"/>
     <use xlink:href="#DejaVuSans-72" transform="translate(1314.847656 0)"/>
     <use xlink:href="#DejaVuSans-65" transform="translate(1353.710938 0)"/>
     <use xlink:href="#DejaVuSans-69" transform="translate(1415.234375 0)"/>
     <use xlink:href="#DejaVuSans-6e" transform="translate(1443.017578 0)"/>
     <use xlink:href="#DejaVuSans-66" transform="translate(1506.396484 0)"/>
     <use xlink:href="#DejaVuSans-6f" transform="translate(1541.601562 0)"/>
     <use xlink:href="#DejaVuSans-72" transform="translate(1602.783203 0)"/>
     <use xlink:href="#DejaVuSans-63" transform="translate(1641.646484 0)"/>
     <use xlink:href="#DejaVuSans-65" transform="translate(1696.626953 0)"/>
     <use xlink:href="#DejaVuSans-5f" transform="translate(1758.150391 0)"/>
     <use xlink:href="#DejaVuSans-61" transform="translate(1808.150391 0)"/>
     <use xlink:href="#DejaVuSans-74" transform="translate(1869.429688 0)"/>
     <use xlink:href="#DejaVuSans-61" transform="translate(1908.638672 0)"/>
     <use xlink:href="#DejaVuSans-72" transform="translate(1969.917969 0)"/>
     <use xlink:href="#DejaVuSans-69" transform="translate(2011.03125 0)"/>
     <use xlink:href="#DejaVuSans-20" transform="translate(2038.814453 0)"/>
     <use xlink:href="#DejaVuSans-28" transform="translate(2070.601562 0)"/>
     <use xlink:href="#DejaVuSans-61" transform="translate(2109.615234 0)"/>
     <use xlink:href="#DejaVuSans-67" transform="translate(2170.894531 0)"/>
     <use xlink:href="#DejaVuSans-67" transform="translate(2234.371094 0)"/>
     <use xlink:href="#DejaVuSans-72" transform="translate(2297.847656 0)"/>
     <use xlink:href="#DejaVuSans-65" transform="translate(2336.710938 0)"/>
     <use xlink:href="#DejaVuSans-67" transform="translate(2398.234375 0)"/>
     <use xlink:href="#DejaVuSans-61" transform="translate(2461.710938 0)"/>
     <use xlink:href="#DejaVuSans-74" transform="translate(2522.990234 0)"/>
     <use xlink:href="#DejaVuSans-65" transform="translate(2562.199219 0)"/>
     <use xlink:href="#DejaVuSans-64" transform="translate(2623.722656 0)"/>
     <use xlink:href="#DejaVuSans-20" transform="translate(2687.199219 0)"/>
     <use xlink:href="#DejaVuSans-76" transform="translate(2718.986328 0)"/>
     <use xlink:href="#DejaVuSans-69" transform="translate(2778.166016 0)"/>
     <use xlink:href="#DejaVuSans-61" transform="translate(2805.949219 0)"/>
     <use xlink:href="#DejaVuSans-20" transform="translate(2867.228516 0)"/>
     <use xlink:href="#DejaVuSans-69" transform="translate(2899.015625 0)"/>
     <use xlink:href="#DejaVuSans-6e" transform="translate(2926.798828 0)"/>
     <use xlink:href="#DejaVuSans-74" transform="translate(2990.177734 0)"/>
     <use xlink:href="#DejaVuSans-65" transform="translate(3029.386719 0)"/>
     <use xlink:href="#DejaVuSans-72" transform="translate(3090.910156 0)"/>
     <use xlink:href="#DejaVuSans-70" transform="translate(3132.023438 0)"/>
     <use xlink:href="#DejaVuSans-6f" transform="translate(3195.5 0)"/>
     <use xlink:href="#DejaVuSans-6c" transform="translate(3256.681641 0)"/>
     <use xlink:href="#DejaVuSans-61" transform="translate(3284.464844 0)"/>
     <use xlink:href="#DejaVuSans-74" transform="translate(3345.744141 0)"/>
     <use xlink:href="#DejaVuSans-69" transform="translate(3384.953125 0)"/>
     <use xlink:href="#DejaVuSans-6f" transform="translate(3412.736328 0)"/>
     <use xlink:href="#DejaVuSans-6e" transform="translate(3473.917969 0)"/>
     <use xlink:href="#DejaVuSans-20" transform="translate(3537.296875 0)"/>
     <use xlink:href="#DejaVuSans-6f" transform="translate(3569.083984 0)"/>
     <use xlink:href="#DejaVuSans-76" transform="translate(3630.265625 0)"/>
     <use xlink:href="#DejaVuSans-65" transform="translate(3689.445312 0)"/>
     <use xlink:href="#DejaVuSans-72" transform="translate(3750.96875 0)"/>
     <use xlink:href="#DejaVuSans-20" transform="translate(3792.082031 0)"/>
     <use xlink:href="#DejaVuSans-72" transform="translate(3823.869141 0)"/>
     <use xlink:href="#DejaVuSans-75" transform="translate(3864.982422 0)"/>
     <use xlink:href="#DejaVuSans-6e" transform="translate(3928.361328 0)"/>
     <use xlink:href="#DejaVuSans-73" transform="translate(3991.740234 0)"/>
     <use xlink:href="#DejaVuSans-29" transform="translate(4043.839844 0)"/>
    </g>
   </g>
   <g id="legend_1">
    <g id="patch_7">
     <path d="M 626.78125 62.79625 
L 702.2 62.79625 
Q 704.2 62.79625 704.2 60.79625 
L 704.2 32.44 
Q 704.2 30.44 702.2 30.44 
L 626.78125 30.44 
Q 624.78125 30.44 624.78125 32.44 
L 624.78125 60.79625 
Q 624.78125 62.79625 626.78125 62.79625 
z
" style="fill: #ffffff; opacity: 0.8; stroke: #cccccc; stroke-linejoin: miter"/>
    </g>
    <g id="line2d_17">
     <path d="M 628.78125 38.538437 
L 638.78125 38.538437 
L 648.78125 38.538437 
" style="fill: none; stroke: #ff8c00; stroke-width: 1.5; stroke-linecap: square"/>
    </g>
    <g id="text_19">
     <!-- Mean -->
     <g transform="translate(656.78125 42.038437) scale(0.1 -0.1)">
      <defs>
       <path id="DejaVuSans-4d" d="M 628 4666 
L 1569 4666 
L 2759 1491 
L 3956 4666 
L 4897 4666 
L 4897 0 
L 4281 0 
L 4281 4097 
L 3078 897 
L 2444 897 
L 1241 4097 
L 1241 0 
L 628 0 
L 628 4666 
z
" transform="scale(0.015625)"/>
      </defs>
      <use xlink:href="#DejaVuSans-4d"/>
      <use xlink:href="#DejaVuSans-65" transform="translate(86.279297 0)"/>
      <use xlink:href="#DejaVuSans-61" transform="translate(147.802734 0)"/>
      <use xlink:href="#DejaVuSans-6e" transform="translate(209.082031 0)"/>
     </g>
    </g>
    <g id="patch_8">
     <path d="M 628.78125 56.716563 
L 648.78125 56.716563 
L 648.78125 49.716563 
L 628.78125 49.716563 
z
" style="fill: #ff8c00; fill-opacity: 0.3; stroke: #ff8c00; stroke-opacity: 0.3; stroke-linejoin: miter"/>
    </g>
    <g id="text_20">
     <!-- MinMax -->
     <g transform="translate(656.78125 56.716563) scale(0.1 -0.1)">
      <defs>
       <path id="DejaVuSans-2013" d="M 313 1978 
L 2888 1978 
L 2888 1528 
L 313 1528 
L 313 1978 
z
" transform="scale(0.015625)"/>
       <path id="DejaVuSans-78" d="M 3513 3500 
L 2247 1797 
L 3578 0 
L 2900 0 
L 1881 1375 
L 863 0 
L 184 0 
L 1544 1831 
L 300 3500 
L 978 3500 
L 1906 2253 
L 2834 3500 
L 3513 3500 
z
" transform="scale(0.015625)"/>
      </defs>
      <use xlink:href="#DejaVuSans-4d"/>
      <use xlink:href="#DejaVuSans-69" transform="translate(86.279297 0)"/>
      <use xlink:href="#DejaVuSans-6e" transform="translate(114.0625 0)"/>
      <use xlink:href="#DejaVuSans-2013" transform="translate(177.441406 0)"/>
      <use xlink:href="#DejaVuSans-4d" transform="translate(227.441406 0)"/>
      <use xlink:href="#DejaVuSans-61" transform="translate(313.720703 0)"/>
      <use xlink:href="#DejaVuSans-78" transform="translate(375 0)"/>
     </g>
    </g>
   </g>
  </g>
 </g>
 <defs>
  <clipPath id="pf4d9ae8d3a">
   <rect x="46.74125" y="25.44" width="662.45875" height="364.6"/>
  </clipPath>
 </defs>
</svg>
