<?xml version="1.0" encoding="utf-8" standalone="no"?>
<!DOCTYPE svg PUBLIC "-//W3C//DTD SVG 1.1//EN"
  "http://www.w3.org/Graphics/SVG/1.1/DTD/svg11.dtd">
<svg xmlns:xlink="http://www.w3.org/1999/xlink" width="720pt" height="432pt" viewBox="0 0 720 432" xmlns="http://www.w3.org/2000/svg" version="1.1">
 <metadata>
  <rdf:RDF xmlns:dc="http://purl.org/dc/elements/1.1/" xmlns:cc="http://creativecommons.org/ns#" xmlns:rdf="http://www.w3.org/1999/02/22-rdf-syntax-ns#">
   <cc:Work>
    <dc:type rdf:resource="http://purl.org/dc/dcmitype/StillImage"/>
    <dc:date>2025-02-05T20:32:09.305353</dc:date>
    <dc:format>image/svg+xml</dc:format>
    <dc:creator>
     <cc:Agent>
      <dc:title>Matplotlib v3.10.0, https://matplotlib.org/</dc:title>
     </cc:Agent>
    </dc:creator>
   </cc:Work>
  </rdf:RDF>
 </metadata>
 <defs>
  <style type="text/css">*{stroke-linejoin: round; stroke-linecap: butt}</style>
 </defs>
 <g id="figure_1">
  <g id="patch_1">
   <path d="M 0 432 
L 720 432 
L 720 0 
L 0 0 
z
" style="fill: #ffffff"/>
  </g>
  <g id="axes_1">
   <g id="patch_2">
    <path d="M 79.86125 390.04 
L 709.2 390.04 
L 709.2 25.44 
L 79.86125 25.44 
z
" style="fill: #ffffff"/>
   </g>
   <g id="FillBetweenPolyCollection_1">
    <defs>
     <path id="mfdf7d5d6ae" d="M 108.467557 -389.987273 
L 108.467557 -389.987273 
L 109.040256 -389.493497 
L 109.612954 -389.224281 
L 110.185653 -388.735037 
L 110.758352 -388.397044 
L 111.331051 -387.923233 
L 111.90375 -387.429457 
L 112.476449 -387.115125 
L 113.049147 -386.695786 
L 113.621846 -386.457949 
L 114.194545 -386.287315 
L 114.767244 -385.880032 
L 115.339943 -385.38824 
L 115.912642 -385.176469 
L 116.485341 -384.99753 
L 117.058039 -384.755606 
L 117.630738 -384.521166 
L 118.203437 -384.350195 
L 118.776136 -384.081883 
L 119.348835 -383.602489 
L 119.921534 -383.127427 
L 120.494232 -382.958168 
L 121.066931 -382.775354 
L 121.63963 -382.367812 
L 122.212329 -382.014386 
L 122.785028 -381.534498 
L 123.357727 -381.177792 
L 123.930425 -380.770574 
L 124.503124 -380.305028 
L 125.075823 -380.069389 
L 125.648522 -379.709199 
L 126.221221 -379.235388 
L 126.79392 -378.760326 
L 127.366618 -378.286515 
L 127.939317 -377.811453 
L 128.512016 -377.382003 
L 129.084715 -377.073103 
L 129.657414 -376.579328 
L 130.230113 -376.198369 
L 130.802811 -375.957591 
L 131.37551 -375.478196 
L 131.948209 -374.995028 
L 132.520908 -374.508102 
L 133.093607 -374.394328 
L 133.666306 -374.241193 
L 134.239004 -373.881988 
L 134.811703 -373.406925 
L 135.384402 -372.933114 
L 135.957101 -372.580051 
L 136.5298 -372.486303 
L 137.102499 -372.063043 
L 137.675197 -371.576801 
L 138.247896 -371.101739 
L 138.820595 -370.616382 
L 139.393294 -370.115439 
L 139.965993 -369.632271 
L 140.538692 -369.314025 
L 141.11139 -369.135189 
L 141.684089 -369.021757 
L 142.256788 -368.869216 
L 142.829487 -368.512 
L 143.402186 -368.322723 
L 143.974885 -368.067134 
L 144.547583 -367.593322 
L 145.120282 -367.11826 
L 145.692981 -366.611718 
L 146.26568 -366.125187 
L 146.838379 -365.769177 
L 147.411078 -365.345997 
L 147.983776 -365.021472 
L 148.556475 -364.594109 
L 149.129174 -364.293314 
L 149.701873 -364.017346 
L 150.274572 -363.529695 
L 150.847271 -363.186669 
L 151.419969 -362.816699 
L 151.992668 -362.55455 
L 152.565367 -362.400232 
L 153.138066 -362.311738 
L 153.710765 -362.141251 
L 154.283464 -361.661001 
L 154.856162 -361.420228 
L 155.428861 -361.15056 
L 156.00156 -360.976064 
L 156.574259 -360.506365 
L 157.146958 -360.242772 
L 157.719657 -359.942344 
L 158.292355 -359.625114 
L 158.865054 -359.141946 
L 159.437753 -358.657527 
L 160.010452 -358.173114 
L 160.583151 -357.729378 
L 161.15585 -357.439438 
L 161.728548 -357.189498 
L 162.301247 -357.117137 
L 162.873946 -356.907621 
L 163.446645 -356.667914 
L 164.019344 -356.183495 
L 164.592043 -355.700327 
L 165.164742 -355.397343 
L 165.73744 -354.957221 
L 166.310139 -354.468381 
L 166.882838 -354.199441 
L 167.455537 -353.839333 
L 168.028236 -353.605665 
L 168.600935 -353.121246 
L 169.173633 -352.638078 
L 169.746332 -352.301411 
L 170.319031 -351.8938 
L 170.89173 -351.635191 
L 171.464429 -351.147203 
L 172.037128 -350.728955 
L 172.609826 -350.499423 
L 173.182525 -350.302807 
L 173.755224 -350.238154 
L 174.327923 -349.862082 
L 174.900622 -349.519263 
L 175.473321 -349.036973 
L 176.046019 -348.765913 
L 176.618718 -348.578337 
L 177.191417 -348.223768 
L 177.764116 -347.739349 
L 178.336815 -347.405888 
L 178.909514 -347.080977 
L 179.482212 -346.827596 
L 180.054911 -346.668414 
L 180.62761 -346.175889 
L 181.200309 -345.69147 
L 181.773008 -345.347827 
L 182.345707 -344.928169 
L 182.918405 -344.704811 
L 183.491104 -344.400654 
L 184.063803 -343.926842 
L 184.636502 -343.45178 
L 185.209201 -343.060425 
L 185.7819 -342.793762 
L 186.354598 -342.556785 
L 186.927297 -342.234858 
L 187.499996 -341.911712 
L 188.072695 -341.632611 
L 188.645394 -341.39667 
L 189.218093 -340.922859 
L 189.790791 -340.501087 
L 190.36349 -340.085014 
L 190.936189 -339.948741 
L 191.508888 -339.703508 
L 192.081587 -339.193449 
L 192.654286 -338.715917 
L 193.226984 -338.417823 
L 193.799683 -337.980995 
L 194.372382 -337.583807 
L 194.945081 -337.163115 
L 195.51778 -336.893662 
L 196.090479 -336.701032 
L 196.663177 -336.295899 
L 197.235876 -335.942473 
L 197.808575 -335.735101 
L 198.381274 -335.555468 
L 198.953973 -335.440136 
L 199.526672 -335.170949 
L 200.09937 -334.687199 
L 200.672069 -334.194006 
L 201.244768 -333.692933 
L 201.817467 -333.304154 
L 202.390166 -332.957203 
L 202.962865 -332.744025 
L 203.535563 -332.439154 
L 204.108262 -332.197722 
L 204.680961 -331.816093 
L 205.25366 -331.499267 
L 205.826359 -331.138562 
L 206.399058 -330.633073 
L 206.971756 -330.348121 
L 207.544455 -330.112283 
L 208.117154 -329.67772 
L 208.689853 -329.495891 
L 209.262552 -329.020508 
L 209.835251 -328.538512 
L 210.407949 -328.052921 
L 210.980648 -327.577859 
L 211.553347 -327.107785 
L 212.126046 -326.825475 
L 212.698745 -326.481405 
L 213.271444 -326.007594 
L 213.844142 -325.523175 
L 214.416841 -325.412423 
L 214.98954 -325.232586 
L 215.562239 -325.040306 
L 216.134938 -324.709547 
L 216.707637 -324.216169 
L 217.280336 -323.909075 
L 217.853034 -323.605466 
L 218.425733 -323.302535 
L 218.998432 -322.944663 
L 219.571131 -322.48825 
L 220.14383 -322.399417 
L 220.716529 -322.083328 
L 221.289227 -321.841235 
L 221.861926 -321.356816 
L 222.434625 -320.872482 
L 223.007324 -320.606663 
L 223.580023 -320.414486 
L 224.152722 -320.349833 
L 224.72542 -319.918419 
L 225.298119 -319.659811 
L 225.870818 -319.176801 
L 226.443517 -318.700677 
L 227.016216 -318.217162 
L 227.588915 -317.89952 
L 228.161613 -317.464778 
L 228.734312 -316.980359 
L 229.307011 -316.669395 
L 229.87971 -316.620397 
L 230.452409 -316.49188 
L 231.025108 -316.014464 
L 231.597806 -315.734119 
L 232.170505 -315.359836 
L 232.743204 -315.204986 
L 233.315903 -314.979715 
L 233.888602 -314.527166 
L 234.461301 -314.053355 
L 235.033999 -313.568936 
L 235.606698 -313.085768 
L 236.179397 -312.603817 
L 236.752096 -312.510429 
L 237.324795 -312.082881 
L 237.897494 -311.598462 
L 238.470192 -311.116514 
L 239.042891 -310.630875 
L 239.61559 -310.286806 
L 240.188289 -309.956825 
L 240.760988 -309.562492 
L 241.333687 -309.302632 
L 241.906385 -309.129906 
L 242.479084 -308.807555 
L 243.051783 -308.447801 
L 243.624482 -308.308944 
L 244.197181 -308.080765 
L 244.76988 -307.931062 
L 245.342578 -307.570326 
L 245.915277 -307.315145 
L 246.487976 -307.030049 
L 247.060675 -306.654836 
L 247.633374 -306.457029 
L 248.206073 -306.393503 
L 248.778771 -306.108289 
L 249.35147 -305.833251 
L 249.924169 -305.385831 
L 250.496868 -305.084385 
L 251.069567 -304.711281 
L 251.642266 -304.35277 
L 252.214964 -303.875652 
L 252.787663 -303.383128 
L 253.360362 -302.905827 
L 253.933061 -302.548307 
L 254.50576 -302.165038 
L 255.078459 -301.680619 
L 255.651157 -301.196023 
L 256.223856 -300.923557 
L 256.796555 -300.438475 
L 257.369254 -299.937257 
L 257.941953 -299.624855 
L 258.514652 -299.184873 
L 259.08735 -298.835021 
L 259.660049 -298.465456 
L 260.232748 -298.163489 
L 260.805447 -298.03323 
L 261.378146 -297.702963 
L 261.950845 -297.444511 
L 262.523543 -296.96591 
L 263.096242 -296.716177 
L 263.668941 -296.601747 
L 264.24164 -296.306606 
L 264.814339 -295.904443 
L 265.387038 -295.42938 
L 265.959736 -294.955569 
L 266.532435 -294.6663 
L 267.105134 -294.211291 
L 267.677833 -293.824856 
L 268.250532 -293.374697 
L 268.823231 -292.925569 
L 269.39593 -292.655061 
L 269.968628 -292.179623 
L 270.541327 -291.804087 
L 271.114026 -291.427615 
L 271.686725 -290.943196 
L 272.259424 -290.630593 
L 272.832123 -290.426074 
L 273.404821 -290.179754 
L 273.97752 -289.735094 
L 274.550219 -289.588628 
L 275.122918 -289.521595 
L 275.695617 -289.343623 
L 276.268316 -289.067988 
L 276.841014 -288.712966 
L 277.413713 -288.231394 
L 277.986412 -287.756576 
L 278.559111 -287.282521 
L 279.13181 -286.92708 
L 279.704509 -286.455284 
L 280.277207 -286.248479 
L 280.849906 -286.09575 
L 281.422605 -285.940546 
L 281.995304 -285.667227 
L 282.568003 -285.445356 
L 283.140702 -285.146001 
L 283.7134 -284.838685 
L 284.286099 -284.468594 
L 284.858798 -284.232975 
L 285.431497 -284.076673 
L 286.004196 -283.919544 
L 286.576895 -283.70682 
L 287.149593 -283.588915 
L 287.722292 -283.340295 
L 288.294991 -283.09447 
L 288.86769 -282.726622 
L 289.440389 -282.253198 
L 290.013088 -282.002695 
L 290.585786 -281.649269 
L 291.158485 -281.166101 
L 291.731184 -280.906242 
L 292.303883 -280.59932 
L 292.876582 -280.223654 
L 293.449281 -280.089094 
L 294.021979 -279.769809 
L 294.594678 -279.42574 
L 295.167377 -278.958007 
L 295.740076 -278.696747 
L 296.312775 -278.427531 
L 296.885474 -277.935007 
L 297.458172 -277.439435 
L 298.030871 -276.9508 
L 298.60357 -276.464288 
L 299.176269 -275.979869 
L 299.748968 -275.632372 
L 300.321667 -275.147953 
L 300.894365 -274.795523 
L 301.467064 -274.318556 
L 302.039763 -273.826941 
L 302.612462 -273.568332 
L 303.185161 -273.09327 
L 303.75786 -272.901509 
L 304.330558 -272.830249 
L 304.903257 -272.461988 
L 305.475956 -272.255728 
L 306.048655 -272.04958 
L 306.621354 -271.822255 
L 307.194053 -271.599558 
L 307.766751 -271.124496 
L 308.33945 -271.026785 
L 308.912149 -270.615 
L 309.484848 -270.130965 
L 310.057547 -269.867224 
L 310.630246 -269.652033 
L 311.202944 -269.250774 
L 311.775643 -268.811055 
L 312.348342 -268.403764 
L 312.921041 -268.262767 
L 313.49374 -268.073521 
L 314.066439 -267.899602 
L 314.639137 -267.620899 
L 315.211836 -267.296885 
L 315.784535 -267.03299 
L 316.357234 -266.553457 
L 316.929933 -266.13106 
L 317.502632 -265.7999 
L 318.075331 -265.485139 
L 318.648029 -265.329942 
L 319.220728 -264.868153 
L 319.793427 -264.687775 
L 320.366126 -264.502216 
L 320.938825 -264.252315 
L 321.511524 -263.792117 
L 322.084222 -263.425078 
L 322.656921 -263.277424 
L 323.22962 -262.808365 
L 323.802319 -262.325672 
L 324.375018 -262.235284 
L 324.947717 -261.97954 
L 325.520415 -261.830995 
L 326.093114 -261.559619 
L 326.665813 -261.223804 
L 327.238512 -260.963148 
L 327.811211 -260.488717 
L 328.38391 -260.288362 
L 328.956608 -259.921988 
L 329.529307 -259.616823 
L 330.102006 -259.141761 
L 330.674705 -258.798489 
L 331.247404 -258.40839 
L 331.820103 -258.208693 
L 332.392801 -258.055627 
L 332.9655 -257.934136 
L 333.538199 -257.65787 
L 334.110898 -257.437525 
L 334.683597 -256.962462 
L 335.256296 -256.845348 
L 335.828994 -256.73913 
L 336.401693 -256.517817 
L 336.974392 -256.366648 
L 337.547091 -256.071084 
L 338.11979 -255.933205 
L 338.692489 -255.44188 
L 339.265187 -255.156018 
L 339.837886 -254.84143 
L 340.410585 -254.358262 
L 340.983284 -254.185618 
L 341.555983 -253.763896 
L 342.128682 -253.2852 
L 342.70138 -252.796269 
L 343.274079 -252.47471 
L 343.846778 -252.342902 
L 344.419477 -252.114491 
L 344.992176 -251.810345 
L 345.564875 -251.580832 
L 346.137573 -251.349795 
L 346.710272 -251.121549 
L 347.282971 -250.846043 
L 347.85567 -250.371037 
L 348.428369 -249.878456 
L 349.001068 -249.394037 
L 349.573766 -249.130301 
L 350.146465 -248.992828 
L 350.719164 -248.774772 
L 351.291863 -248.296452 
L 351.864562 -247.816542 
L 352.437261 -247.332123 
L 353.009959 -246.848955 
L 353.582658 -246.371445 
L 354.155357 -246.195555 
L 354.728056 -245.920389 
L 355.300755 -245.788381 
L 355.873454 -245.608306 
L 356.446152 -245.118743 
L 357.018851 -244.634783 
L 357.59155 -244.29263 
L 358.164249 -243.919778 
L 358.736948 -243.765017 
L 359.309647 -243.655219 
L 359.882345 -243.452762 
L 360.455044 -243.17512 
L 361.027743 -242.701309 
L 361.600442 -242.429383 
L 362.173141 -242.057086 
L 362.74584 -241.707356 
L 363.318538 -241.22336 
L 363.891237 -240.933289 
L 364.463936 -240.71001 
L 365.036635 -240.363984 
L 365.609334 -240.075137 
L 366.182033 -239.627151 
L 366.754731 -239.152089 
L 367.32743 -238.677027 
L 367.900129 -238.193859 
L 368.472828 -237.9174 
L 369.045527 -237.73242 
L 369.618226 -237.286424 
L 370.190925 -237.017187 
L 370.763623 -236.817913 
L 371.336322 -236.575134 
L 371.909021 -236.2261 
L 372.48172 -235.963099 
L 373.054419 -235.578042 
L 373.627118 -235.187824 
L 374.199816 -234.801149 
L 374.772515 -234.326505 
L 375.345214 -233.983269 
L 375.917913 -233.508207 
L 376.490612 -233.156032 
L 377.063311 -232.671613 
L 377.636009 -232.411753 
L 378.208708 -231.928585 
L 378.781407 -231.43236 
L 379.354106 -231.186015 
L 379.926805 -230.919737 
L 380.499504 -230.690927 
L 381.072202 -230.415336 
L 381.644901 -230.071266 
L 382.2176 -229.578742 
L 382.790299 -229.095295 
L 383.362998 -228.826358 
L 383.935697 -228.472932 
L 384.508395 -228.29339 
L 385.081094 -227.995317 
L 385.653793 -227.521506 
L 386.226492 -227.035488 
L 386.799191 -226.544563 
L 387.37189 -226.246383 
L 387.944588 -226.114437 
L 388.517287 -225.787605 
L 389.089986 -225.342634 
L 389.662685 -225.122006 
L 390.235384 -224.769043 
L 390.808083 -224.270484 
L 391.380781 -223.775796 
L 391.95348 -223.439357 
L 392.526179 -223.032769 
L 393.098878 -222.5495 
L 393.671577 -222.196175 
L 394.244276 -221.842749 
L 394.816974 -221.580282 
L 395.389673 -221.100694 
L 395.962372 -220.611131 
L 396.535071 -220.136813 
L 397.10777 -219.652394 
L 397.680469 -219.390026 
L 398.253167 -219.055387 
L 398.825866 -218.777005 
L 399.398565 -218.714923 
L 399.971264 -218.6247 
L 400.543963 -218.32126 
L 401.116662 -218.16511 
L 401.68936 -217.783328 
L 402.262059 -217.608384 
L 402.834758 -217.232716 
L 403.407457 -217.078965 
L 403.980156 -216.705348 
L 404.552855 -216.372631 
L 405.125553 -215.893049 
L 405.698252 -215.40863 
L 406.270951 -215.065251 
L 406.84365 -214.581393 
L 407.416349 -214.318796 
L 407.989048 -214.062867 
L 408.561746 -213.77714 
L 409.134445 -213.496603 
L 409.707144 -213.343572 
L 410.279843 -212.95818 
L 410.852542 -212.596608 
L 411.425241 -212.404694 
L 411.997939 -212.331362 
L 412.570638 -212.179245 
L 413.143337 -211.824566 
L 413.716036 -211.505167 
L 414.288735 -211.23504 
L 414.861434 -210.794755 
L 415.434132 -210.543201 
L 416.006831 -210.316554 
L 416.57953 -210.015969 
L 417.152229 -209.862101 
L 417.724928 -209.388329 
L 418.297627 -209.111841 
L 418.870325 -208.63979 
L 419.443024 -208.146847 
L 420.015723 -207.66296 
L 420.588422 -207.188617 
L 421.161121 -206.710941 
L 421.73382 -206.230387 
L 422.306519 -205.970528 
L 422.879217 -205.792672 
L 423.451916 -205.381885 
L 424.024615 -205.086453 
L 424.597314 -204.877697 
L 425.170013 -204.397476 
L 425.742712 -203.922649 
L 426.31541 -203.493676 
L 426.888109 -203.17814 
L 427.460808 -202.695202 
L 428.033507 -202.33784 
L 428.606206 -201.867965 
L 429.178905 -201.725447 
L 429.751603 -201.541993 
L 430.324302 -201.271911 
L 430.897001 -200.960299 
L 431.4697 -200.582016 
L 432.042399 -200.24924 
L 432.615098 -199.775429 
L 433.187796 -199.300367 
L 433.760495 -198.957548 
L 434.333194 -198.54784 
L 434.905893 -198.405827 
L 435.478592 -198.238787 
L 436.051291 -197.941391 
L 436.623989 -197.491082 
L 437.196688 -197.016019 
L 437.769387 -196.532852 
L 438.342086 -196.057789 
L 438.914785 -195.711165 
L 439.487484 -195.314762 
L 440.060182 -195.147147 
L 440.632881 -194.778618 
L 441.20558 -194.438189 
L 441.778279 -193.963127 
L 442.350978 -193.470603 
L 442.923677 -193.061123 
L 443.496375 -192.749716 
L 444.069074 -192.329983 
L 444.641773 -192.272777 
L 445.214472 -192.093024 
L 445.787171 -191.61166 
L 446.35987 -191.345318 
L 446.932568 -190.870256 
L 447.505267 -190.377731 
L 448.077966 -190.094507 
L 448.650665 -189.762016 
L 449.223364 -189.281278 
L 449.796063 -188.806216 
L 450.368761 -188.607769 
L 450.94146 -188.236323 
L 451.514159 -188.116756 
L 452.086858 -188.041401 
L 452.659557 -187.779511 
L 453.232256 -187.305505 
L 453.804954 -186.845956 
L 454.377653 -186.524702 
L 454.950352 -186.435141 
L 455.523051 -185.991491 
L 456.09575 -185.539706 
L 456.668449 -185.284639 
L 457.241147 -185.016674 
L 457.813846 -184.535916 
L 458.386545 -184.047604 
L 458.959244 -183.751408 
L 459.531943 -183.283681 
L 460.104642 -182.795369 
L 460.67734 -182.669771 
L 461.250039 -182.432915 
L 461.822738 -182.117446 
L 462.395437 -181.95607 
L 462.968136 -181.550362 
L 463.540835 -181.193559 
L 464.113533 -180.893783 
L 464.686232 -180.586203 
L 465.258931 -180.101784 
L 465.83163 -179.842274 
L 466.404329 -179.690673 
L 466.977028 -179.356204 
L 467.549726 -178.871786 
L 468.122425 -178.380329 
L 468.695124 -178.133542 
L 469.267823 -177.765975 
L 469.840522 -177.285291 
L 470.413221 -177.076488 
L 470.985919 -176.893552 
L 471.558618 -176.611258 
L 472.131317 -176.127662 
L 472.704016 -175.774236 
L 473.276715 -175.515057 
L 473.849414 -175.260446 
L 474.422113 -174.94686 
L 474.994811 -174.498705 
L 475.56751 -174.023643 
L 476.140209 -173.825042 
L 476.712908 -173.526877 
L 477.285607 -173.273385 
L 477.858306 -172.788966 
L 478.431004 -172.51975 
L 479.003703 -172.176932 
L 479.576402 -171.996839 
L 480.149101 -171.688598 
L 480.7218 -171.206793 
L 481.294499 -171.023315 
L 481.867197 -170.692556 
L 482.439896 -170.346875 
L 483.012595 -169.953403 
L 483.585294 -169.735492 
L 484.157993 -169.340117 
L 484.730692 -169.011081 
L 485.30339 -168.87311 
L 485.876089 -168.538397 
L 486.448788 -168.184971 
L 487.021487 -167.842153 
L 487.594186 -167.645013 
L 488.166885 -167.547428 
L 488.739583 -167.204152 
L 489.312282 -166.719756 
L 489.884981 -166.409933 
L 490.45768 -166.272213 
L 491.030379 -166.150989 
L 491.603078 -165.922933 
L 492.175776 -165.491883 
L 492.748475 -165.004318 
L 493.321174 -164.496227 
L 493.893873 -164.196755 
L 494.466572 -163.898378 
L 495.039271 -163.671874 
L 495.611969 -163.445736 
L 496.184668 -163.144642 
L 496.757367 -162.765063 
L 497.330066 -162.459641 
L 497.902765 -162.204649 
L 498.475464 -161.729587 
L 499.048162 -161.447839 
L 499.620861 -161.040646 
L 500.19356 -160.680394 
L 500.766259 -160.280958 
L 501.338958 -159.84622 
L 501.911657 -159.534356 
L 502.484355 -159.412826 
L 503.057054 -159.283314 
L 503.629753 -158.959519 
L 504.202452 -158.482502 
L 504.775151 -158.246075 
L 505.34785 -157.872423 
L 505.920548 -157.389255 
L 506.493247 -157.151878 
L 507.065946 -157.02392 
L 507.638645 -156.546399 
L 508.211344 -156.365684 
L 508.784043 -156.033638 
L 509.356741 -155.579631 
L 509.92944 -155.495582 
L 510.502139 -155.11639 
L 511.074838 -154.641328 
L 511.647537 -154.148804 
L 512.220236 -153.673741 
L 512.792934 -153.211299 
L 513.365633 -153.094282 
L 513.938332 -152.917144 
L 514.511031 -152.609953 
L 515.08373 -152.328911 
L 515.656429 -151.8551 
L 516.229127 -151.590562 
L 516.801826 -151.242939 
L 517.374525 -150.967609 
L 517.947224 -150.899435 
L 518.519923 -150.702922 
L 519.092622 -150.22234 
L 519.66532 -149.739172 
L 520.238019 -149.254753 
L 520.810718 -148.909992 
L 521.383417 -148.427516 
L 521.956116 -148.02276 
L 522.528815 -147.891915 
L 523.101514 -147.666952 
L 523.674212 -147.286884 
L 524.246911 -147.164745 
L 524.81961 -146.92013 
L 525.392309 -146.563704 
L 525.965008 -146.220148 
L 526.537707 -145.735729 
L 527.110405 -145.261918 
L 527.683104 -144.786855 
L 528.255803 -144.379847 
L 528.828502 -144.160786 
L 529.401201 -143.742923 
L 529.9739 -143.635503 
L 530.546598 -143.544952 
L 531.119297 -143.066854 
L 531.691996 -142.82649 
L 532.264695 -142.611311 
L 532.837394 -142.194564 
L 533.410093 -141.859851 
L 533.982791 -141.39334 
L 534.55549 -141.237252 
L 535.128189 -140.870999 
L 535.700888 -140.409858 
L 536.273587 -140.092177 
L 536.846286 -139.911969 
L 537.418984 -139.523741 
L 537.991683 -139.171868 
L 538.564382 -138.84871 
L 539.137081 -138.436946 
L 539.70978 -138.168355 
L 540.282479 -137.689311 
L 540.855177 -137.266341 
L 541.427876 -136.947224 
L 542.000575 -136.722128 
L 542.573274 -136.360997 
L 543.145973 -135.909165 
L 543.718672 -135.836322 
L 544.29137 -135.512494 
L 544.864069 -135.019344 
L 545.436768 -134.768841 
L 546.009467 -134.440358 
L 546.582166 -134.237654 
L 547.154865 -133.901625 
L 547.727563 -133.415411 
L 548.300262 -132.924682 
L 548.872961 -132.440889 
L 549.44566 -132.181029 
L 550.018359 -131.953293 
L 550.591058 -131.73211 
L 551.163756 -131.472876 
L 551.736455 -130.98898 
L 552.309154 -130.739895 
L 552.881853 -130.486349 
L 553.454552 -130.116563 
L 554.027251 -129.632769 
L 554.599949 -129.378104 
L 555.172648 -129.248587 
L 555.745347 -129.031592 
L 556.318046 -128.552425 
L 556.890745 -128.073362 
L 557.463444 -127.630293 
L 558.036142 -127.484093 
L 558.608841 -127.000835 
L 559.18154 -126.516507 
L 559.754239 -126.24729 
L 560.326938 -125.997413 
L 560.899637 -125.522976 
L 561.472335 -125.048539 
L 562.045034 -124.779323 
L 562.617733 -124.29553 
L 563.190432 -123.970484 
L 563.763131 -123.790538 
L 564.33583 -123.572716 
L 564.908528 -123.088923 
L 565.481227 -122.721325 
L 566.053926 -122.261685 
L 566.626625 -121.820031 
L 567.199324 -121.532067 
L 567.772023 -121.144827 
L 568.344721 -120.895561 
L 568.91742 -120.444971 
L 569.490119 -119.951821 
L 570.062818 -119.671441 
L 570.635517 -119.579622 
L 571.208216 -119.280695 
L 571.780914 -118.83878 
L 572.353613 -118.364343 
L 572.926312 -117.93071 
L 573.499011 -117.682321 
L 574.07171 -117.383159 
L 574.644409 -117.036726 
L 575.217108 -116.562289 
L 575.789806 -116.08753 
L 576.362505 -115.793803 
L 576.935204 -115.498563 
L 577.507903 -115.422795 
L 578.080602 -115.142605 
L 578.653301 -114.661087 
L 579.225999 -114.3949 
L 579.798698 -114.038305 
L 580.371397 -113.885146 
L 580.944096 -113.620624 
L 581.516795 -113.127474 
L 582.089494 -112.826816 
L 582.662192 -112.3885 
L 583.234891 -112.129266 
L 583.80759 -111.697987 
L 584.380289 -111.301412 
L 584.952988 -110.817609 
L 585.525687 -110.514007 
L 586.098385 -110.364012 
L 586.671084 -110.011212 
L 587.243783 -109.536775 
L 587.816482 -109.196517 
L 588.389181 -108.811835 
L 588.96188 -108.331289 
L 589.534578 -107.989175 
L 590.107277 -107.50507 
L 590.679976 -107.230782 
L 591.252675 -107.047817 
L 591.825374 -106.761532 
L 592.398073 -106.338782 
L 592.970771 -106.137261 
L 593.54347 -105.647641 
L 594.116169 -105.169674 
L 594.688868 -104.870251 
L 595.261567 -104.640331 
L 595.834266 -104.415196 
L 596.406964 -104.180979 
L 596.979663 -103.793276 
L 597.552362 -103.412214 
L 598.125061 -103.067781 
L 598.69776 -102.593304 
L 599.270459 -102.314772 
L 599.843157 -101.843148 
L 600.415856 -101.492213 
L 600.988555 -101.017776 
L 601.561254 -100.54334 
L 602.133953 -100.050006 
L 602.706652 -99.556599 
L 603.27935 -99.123976 
L 603.852049 -98.729177 
L 604.424748 -98.236027 
L 604.997447 -97.752234 
L 605.570146 -97.483017 
L 606.142845 -97.139573 
L 606.715543 -97.010461 
L 607.288242 -96.852066 
L 607.860941 -96.542464 
L 608.43364 -96.32711 
L 609.006339 -96.081077 
L 609.579038 -95.671691 
L 610.151736 -95.423919 
L 610.724435 -94.983667 
L 611.297134 -94.48116 
L 611.869833 -94.245699 
L 612.442532 -94.097738 
L 613.015231 -93.711611 
L 613.587929 -93.279231 
L 614.160628 -92.880695 
L 614.733327 -92.540617 
L 615.306026 -92.056513 
L 615.878725 -91.57267 
L 616.451424 -91.240372 
L 617.024122 -90.938357 
L 617.596821 -90.569783 
L 618.16952 -90.123786 
L 618.742219 -90.031967 
L 619.314918 -89.782079 
L 619.887617 -89.470777 
L 620.460315 -88.977627 
L 621.033014 -88.581984 
L 621.605713 -88.360597 
L 622.178412 -88.136383 
L 622.751111 -87.870512 
L 623.32381 -87.63475 
L 623.896508 -87.361431 
L 624.469207 -87.118768 
L 625.041906 -86.625614 
L 625.614605 -86.39789 
L 626.187304 -86.179232 
L 626.760003 -85.954519 
L 627.332702 -85.50346 
L 627.9054 -85.019389 
L 628.478099 -84.757796 
L 629.050798 -84.360168 
L 629.623497 -84.164133 
L 630.196196 -83.784989 
L 630.768895 -83.285362 
L 631.341593 -82.890108 
L 631.914292 -82.585613 
L 632.486991 -82.111176 
L 633.05969 -81.758376 
L 633.632389 -81.494215 
L 634.205088 -81.245877 
L 634.777786 -81.081897 
L 635.350485 -80.781004 
L 635.923184 -80.302016 
L 636.495883 -79.822151 
L 637.068582 -79.338357 
L 637.641281 -78.854564 
L 638.213979 -78.361414 
L 638.786678 -77.965601 
L 639.359377 -77.874197 
L 639.932076 -77.64422 
L 640.504775 -77.346618 
L 641.077474 -76.872181 
L 641.650172 -76.549908 
L 642.222871 -76.367251 
L 642.79557 -76.213286 
L 643.368269 -75.848029 
L 643.940968 -75.559573 
L 644.513667 -75.37104 
L 645.086365 -74.896445 
L 645.659064 -74.762068 
L 646.231763 -74.288621 
L 646.804462 -74.019405 
L 647.377161 -73.638636 
L 647.94986 -73.290219 
L 648.522558 -72.804143 
L 649.095257 -72.3222 
L 649.667956 -71.903216 
L 650.240655 -71.466893 
L 650.813354 -70.9831 
L 651.386053 -70.66845 
L 651.958751 -70.515368 
L 652.53145 -70.248647 
L 653.104149 -69.797744 
L 653.676848 -69.498528 
L 654.249547 -69.014423 
L 654.822246 -68.53969 
L 655.394944 -68.201196 
L 655.967643 -68.062906 
L 656.540342 -67.787796 
L 657.113041 -67.508606 
L 657.68574 -67.195485 
L 658.258439 -66.712706 
L 658.831137 -66.218541 
L 659.403836 -65.734831 
L 659.976535 -65.260311 
L 660.549234 -64.916242 
L 661.121933 -64.511829 
L 661.694632 -64.167869 
L 662.26733 -63.903998 
L 662.840029 -63.546519 
L 663.412728 -63.28666 
L 663.985427 -63.081926 
L 664.558126 -62.595094 
L 665.130825 -62.111117 
L 665.703523 -61.624879 
L 666.276222 -61.482793 
L 666.848921 -61.266224 
L 667.42162 -60.951855 
L 667.994319 -60.81865 
L 668.567018 -60.398279 
L 669.139716 -60.299449 
L 669.712415 -60.21139 
L 670.285114 -59.987377 
L 670.857813 -59.608894 
L 671.430512 -59.134336 
L 672.003211 -58.790049 
L 672.575909 -58.532727 
L 673.148608 -58.532727 
L 673.721307 -58.532727 
L 674.294006 -58.532727 
L 674.866705 -58.532727 
L 675.439404 -58.532727 
L 676.012103 -58.532727 
L 676.584801 -58.532727 
L 677.1575 -58.532727 
L 677.730199 -58.532727 
L 678.302898 -58.532727 
L 678.875597 -58.532727 
L 679.448296 -58.532727 
L 680.020994 -58.532727 
L 680.593693 -58.532727 
L 680.593693 -384.828666 
L 680.593693 -384.828666 
L 680.020994 -384.828666 
L 679.448296 -384.828666 
L 678.875597 -384.828666 
L 678.302898 -384.828666 
L 677.730199 -384.828666 
L 677.1575 -384.828666 
L 676.584801 -384.828666 
L 676.012103 -384.828666 
L 675.439404 -384.828666 
L 674.866705 -384.828666 
L 674.294006 -384.828666 
L 673.721307 -384.828666 
L 673.148608 -384.831375 
L 672.575909 -384.836656 
L 672.003211 -384.841937 
L 671.430512 -384.847218 
L 670.857813 -384.852499 
L 670.285114 -384.85778 
L 669.712415 -384.86306 
L 669.139716 -384.868341 
L 668.567018 -384.873622 
L 667.994319 -384.878903 
L 667.42162 -384.884184 
L 666.848921 -384.889465 
L 666.276222 -384.894746 
L 665.703523 -384.900027 
L 665.130825 -384.905307 
L 664.558126 -384.910588 
L 663.985427 -384.915869 
L 663.412728 -384.92115 
L 662.840029 -384.926431 
L 662.26733 -384.931712 
L 661.694632 -384.937014 
L 661.121933 -384.942352 
L 660.549234 -384.94769 
L 659.976535 -384.953027 
L 659.403836 -384.958365 
L 658.831137 -384.963703 
L 658.258439 -384.969041 
L 657.68574 -384.974378 
L 657.113041 -384.979716 
L 656.540342 -384.985054 
L 655.967643 -384.990392 
L 655.394944 -384.99573 
L 654.822246 -385.001067 
L 654.249547 -385.006405 
L 653.676848 -385.011743 
L 653.104149 -385.017081 
L 652.53145 -385.022418 
L 651.958751 -385.027756 
L 651.386053 -385.033094 
L 650.813354 -385.038432 
L 650.240655 -385.043769 
L 649.667956 -385.049104 
L 649.095257 -385.054439 
L 648.522558 -385.059774 
L 647.94986 -385.06511 
L 647.377161 -385.070445 
L 646.804462 -385.07578 
L 646.231763 -385.081115 
L 645.659064 -385.08645 
L 645.086365 -385.091786 
L 644.513667 -385.097121 
L 643.940968 -385.102456 
L 643.368269 -385.107791 
L 642.79557 -385.113126 
L 642.222871 -385.118461 
L 641.650172 -385.123797 
L 641.077474 -385.129132 
L 640.504775 -385.134467 
L 639.932076 -385.139802 
L 639.359377 -385.145137 
L 638.786678 -385.150473 
L 638.213979 -385.15581 
L 637.641281 -385.161148 
L 637.068582 -385.166486 
L 636.495883 -385.171824 
L 635.923184 -385.177161 
L 635.350485 -385.182499 
L 634.777786 -385.187837 
L 634.205088 -385.193175 
L 633.632389 -385.198513 
L 633.05969 -385.20385 
L 632.486991 -385.209188 
L 631.914292 -385.214526 
L 631.341593 -385.219864 
L 630.768895 -385.225201 
L 630.196196 -385.230539 
L 629.623497 -385.235877 
L 629.050798 -385.241215 
L 628.478099 -385.246553 
L 627.9054 -385.25189 
L 627.332702 -385.257228 
L 626.760003 -385.262573 
L 626.187304 -385.267918 
L 625.614605 -385.273264 
L 625.041906 -385.27861 
L 624.469207 -385.283955 
L 623.896508 -385.289301 
L 623.32381 -385.294647 
L 622.751111 -385.299992 
L 622.178412 -385.305338 
L 621.605713 -385.310683 
L 621.033014 -385.316029 
L 620.460315 -385.321375 
L 619.887617 -385.32672 
L 619.314918 -385.332066 
L 618.742219 -385.337411 
L 618.16952 -385.342757 
L 617.596821 -385.348103 
L 617.024122 -385.353448 
L 616.451424 -385.358794 
L 615.878725 -385.364139 
L 615.306026 -385.369491 
L 614.733327 -385.374845 
L 614.160628 -385.380198 
L 613.587929 -385.385551 
L 613.015231 -385.390905 
L 612.442532 -385.396258 
L 611.869833 -385.401612 
L 611.297134 -385.406965 
L 610.724435 -385.412319 
L 610.151736 -385.417672 
L 609.579038 -385.423026 
L 609.006339 -385.428379 
L 608.43364 -385.433733 
L 607.860941 -385.439086 
L 607.288242 -385.44444 
L 606.715543 -385.449793 
L 606.142845 -385.455147 
L 605.570146 -385.4605 
L 604.997447 -385.465854 
L 604.424748 -385.471207 
L 603.852049 -385.476557 
L 603.27935 -385.481905 
L 602.706652 -385.487253 
L 602.133953 -385.492602 
L 601.561254 -385.49795 
L 600.988555 -385.503298 
L 600.415856 -385.508646 
L 599.843157 -385.513995 
L 599.270459 -385.519343 
L 598.69776 -385.524691 
L 598.125061 -385.530039 
L 597.552362 -385.535388 
L 596.979663 -385.540736 
L 596.406964 -385.546084 
L 595.834266 -385.551432 
L 595.261567 -385.55678 
L 594.688868 -385.562129 
L 594.116169 -385.567477 
L 593.54347 -385.572825 
L 592.970771 -385.578173 
L 592.398073 -385.583519 
L 591.825374 -385.588862 
L 591.252675 -385.594205 
L 590.679976 -385.599548 
L 590.107277 -385.604891 
L 589.534578 -385.610234 
L 588.96188 -385.615577 
L 588.389181 -385.62092 
L 587.816482 -385.626263 
L 587.243783 -385.631606 
L 586.671084 -385.636949 
L 586.098385 -385.642292 
L 585.525687 -385.647635 
L 584.952988 -385.652978 
L 584.380289 -385.658321 
L 583.80759 -385.663664 
L 583.234891 -385.669007 
L 582.662192 -385.67435 
L 582.089494 -385.679693 
L 581.516795 -385.685036 
L 580.944096 -385.690378 
L 580.371397 -385.695718 
L 579.798698 -385.701058 
L 579.225999 -385.706399 
L 578.653301 -385.711739 
L 578.080602 -385.71708 
L 577.507903 -385.72242 
L 576.935204 -385.72776 
L 576.362505 -385.733101 
L 575.789806 -385.738441 
L 575.217108 -385.743782 
L 574.644409 -385.749122 
L 574.07171 -385.754462 
L 573.499011 -385.759803 
L 572.926312 -385.765143 
L 572.353613 -385.770484 
L 571.780914 -385.775824 
L 571.208216 -385.781164 
L 570.635517 -385.786505 
L 570.062818 -385.791845 
L 569.490119 -385.797188 
L 568.91742 -385.802539 
L 568.344721 -385.80789 
L 567.772023 -385.813241 
L 567.199324 -385.818592 
L 566.626625 -385.823942 
L 566.053926 -385.829293 
L 565.481227 -385.834644 
L 564.908528 -385.839995 
L 564.33583 -385.845346 
L 563.763131 -385.850697 
L 563.190432 -385.856047 
L 562.617733 -385.861398 
L 562.045034 -385.866749 
L 561.472335 -385.8721 
L 560.899637 -385.877451 
L 560.326938 -385.882802 
L 559.754239 -385.888153 
L 559.18154 -385.893503 
L 558.608841 -385.898854 
L 558.036142 -385.904194 
L 557.463444 -385.90947 
L 556.890745 -385.914746 
L 556.318046 -385.920021 
L 555.745347 -385.925297 
L 555.172648 -385.930573 
L 554.599949 -385.935848 
L 554.027251 -385.941124 
L 553.454552 -385.9464 
L 552.881853 -385.951676 
L 552.309154 -385.956951 
L 551.736455 -385.962227 
L 551.163756 -385.967503 
L 550.591058 -385.972778 
L 550.018359 -385.978054 
L 549.44566 -385.98333 
L 548.872961 -385.988606 
L 548.300262 -385.993881 
L 547.727563 -385.999157 
L 547.154865 -386.004433 
L 546.582166 -386.009708 
L 546.009467 -386.015053 
L 545.436768 -386.020399 
L 544.864069 -386.025744 
L 544.29137 -386.03109 
L 543.718672 -386.036436 
L 543.145973 -386.041781 
L 542.573274 -386.047127 
L 542.000575 -386.052472 
L 541.427876 -386.057818 
L 540.855177 -386.063164 
L 540.282479 -386.068509 
L 539.70978 -386.073855 
L 539.137081 -386.0792 
L 538.564382 -386.084551 
L 537.991683 -386.089904 
L 537.418984 -386.095257 
L 536.846286 -386.100611 
L 536.273587 -386.105964 
L 535.700888 -386.111318 
L 535.128189 -386.116671 
L 534.55549 -386.122018 
L 533.982791 -386.127364 
L 533.410093 -386.132709 
L 532.837394 -386.138055 
L 532.264695 -386.1434 
L 531.691996 -386.148746 
L 531.119297 -386.154092 
L 530.546598 -386.159437 
L 529.9739 -386.164783 
L 529.401201 -386.170129 
L 528.828502 -386.175474 
L 528.255803 -386.18082 
L 527.683104 -386.186165 
L 527.110405 -386.191511 
L 526.537707 -386.196857 
L 525.965008 -386.202202 
L 525.392309 -386.207548 
L 524.81961 -386.212893 
L 524.246911 -386.218239 
L 523.674212 -386.223585 
L 523.101514 -386.228923 
L 522.528815 -386.234258 
L 521.956116 -386.239593 
L 521.383417 -386.244928 
L 520.810718 -386.250263 
L 520.238019 -386.255598 
L 519.66532 -386.260934 
L 519.092622 -386.266269 
L 518.519923 -386.271604 
L 517.947224 -386.276939 
L 517.374525 -386.282274 
L 516.801826 -386.287613 
L 516.229127 -386.292967 
L 515.656429 -386.29832 
L 515.08373 -386.303674 
L 514.511031 -386.309027 
L 513.938332 -386.314381 
L 513.365633 -386.319734 
L 512.792934 -386.325088 
L 512.220236 -386.330441 
L 511.647537 -386.33579 
L 511.074838 -386.341135 
L 510.502139 -386.346481 
L 509.92944 -386.351827 
L 509.356741 -386.357172 
L 508.784043 -386.362518 
L 508.211344 -386.367864 
L 507.638645 -386.373209 
L 507.065946 -386.378555 
L 506.493247 -386.3839 
L 505.920548 -386.389246 
L 505.34785 -386.394592 
L 504.775151 -386.399937 
L 504.202452 -386.405283 
L 503.629753 -386.410628 
L 503.057054 -386.415974 
L 502.484355 -386.42132 
L 501.911657 -386.426665 
L 501.338958 -386.432011 
L 500.766259 -386.437357 
L 500.19356 -386.442698 
L 499.620861 -386.448036 
L 499.048162 -386.453374 
L 498.475464 -386.458712 
L 497.902765 -386.46405 
L 497.330066 -386.469387 
L 496.757367 -386.474725 
L 496.184668 -386.480063 
L 495.611969 -386.485401 
L 495.039271 -386.490738 
L 494.466572 -386.496076 
L 493.893873 -386.501414 
L 493.321174 -386.506752 
L 492.748475 -386.51209 
L 492.175776 -386.517427 
L 491.603078 -386.522765 
L 491.030379 -386.528103 
L 490.45768 -386.533441 
L 489.884981 -386.538778 
L 489.312282 -386.544116 
L 488.739583 -386.549456 
L 488.166885 -386.554799 
L 487.594186 -386.560142 
L 487.021487 -386.565485 
L 486.448788 -386.570828 
L 485.876089 -386.576171 
L 485.30339 -386.581514 
L 484.730692 -386.586857 
L 484.157993 -386.5922 
L 483.585294 -386.597543 
L 483.012595 -386.602886 
L 482.439896 -386.608229 
L 481.867197 -386.613572 
L 481.294499 -386.618915 
L 480.7218 -386.624258 
L 480.149101 -386.629601 
L 479.576402 -386.634944 
L 479.003703 -386.640287 
L 478.431004 -386.64563 
L 477.858306 -386.650973 
L 477.285607 -386.656316 
L 476.712908 -386.661659 
L 476.140209 -386.667002 
L 475.56751 -386.672345 
L 474.994811 -386.677688 
L 474.422113 -386.683031 
L 473.849414 -386.688374 
L 473.276715 -386.693717 
L 472.704016 -386.69906 
L 472.131317 -386.704403 
L 471.558618 -386.709746 
L 470.985919 -386.715089 
L 470.413221 -386.720432 
L 469.840522 -386.725775 
L 469.267823 -386.731118 
L 468.695124 -386.736461 
L 468.122425 -386.741804 
L 467.549726 -386.747147 
L 466.977028 -386.75249 
L 466.404329 -386.757833 
L 465.83163 -386.763176 
L 465.258931 -386.768519 
L 464.686232 -386.773862 
L 464.113533 -386.779205 
L 463.540835 -386.784548 
L 462.968136 -386.789891 
L 462.395437 -386.795234 
L 461.822738 -386.800577 
L 461.250039 -386.80592 
L 460.67734 -386.811263 
L 460.104642 -386.816606 
L 459.531943 -386.821949 
L 458.959244 -386.827292 
L 458.386545 -386.832635 
L 457.813846 -386.837978 
L 457.241147 -386.843321 
L 456.668449 -386.848664 
L 456.09575 -386.854007 
L 455.523051 -386.85935 
L 454.950352 -386.864693 
L 454.377653 -386.870036 
L 453.804954 -386.875379 
L 453.232256 -386.880722 
L 452.659557 -386.886065 
L 452.086858 -386.891408 
L 451.514159 -386.896751 
L 450.94146 -386.902094 
L 450.368761 -386.907437 
L 449.796063 -386.91278 
L 449.223364 -386.918123 
L 448.650665 -386.923466 
L 448.077966 -386.928809 
L 447.505267 -386.934152 
L 446.932568 -386.939495 
L 446.35987 -386.944838 
L 445.787171 -386.950181 
L 445.214472 -386.955524 
L 444.641773 -386.960867 
L 444.069074 -386.96621 
L 443.496375 -386.971553 
L 442.923677 -386.976896 
L 442.350978 -386.982193 
L 441.778279 -386.987477 
L 441.20558 -386.99276 
L 440.632881 -386.998044 
L 440.060182 -387.003327 
L 439.487484 -387.008611 
L 438.914785 -387.013894 
L 438.342086 -387.019178 
L 437.769387 -387.024461 
L 437.196688 -387.029745 
L 436.623989 -387.035028 
L 436.051291 -387.040311 
L 435.478592 -387.045595 
L 434.905893 -387.050878 
L 434.333194 -387.056162 
L 433.760495 -387.061445 
L 433.187796 -387.066729 
L 432.615098 -387.072012 
L 432.042399 -387.077296 
L 431.4697 -387.082579 
L 430.897001 -387.087902 
L 430.324302 -387.093247 
L 429.751603 -387.098593 
L 429.178905 -387.103938 
L 428.606206 -387.109284 
L 428.033507 -387.11463 
L 427.460808 -387.119975 
L 426.888109 -387.125321 
L 426.31541 -387.130667 
L 425.742712 -387.136012 
L 425.170013 -387.141358 
L 424.597314 -387.146703 
L 424.024615 -387.152049 
L 423.451916 -387.157395 
L 422.879217 -387.16274 
L 422.306519 -387.168086 
L 421.73382 -387.173431 
L 421.161121 -387.178777 
L 420.588422 -387.184123 
L 420.015723 -387.189468 
L 419.443024 -387.194811 
L 418.870325 -387.200152 
L 418.297627 -387.205492 
L 417.724928 -387.210832 
L 417.152229 -387.216173 
L 416.57953 -387.221513 
L 416.006831 -387.226854 
L 415.434132 -387.232194 
L 414.861434 -387.237534 
L 414.288735 -387.242875 
L 413.716036 -387.248215 
L 413.143337 -387.253556 
L 412.570638 -387.258896 
L 411.997939 -387.264236 
L 411.425241 -387.269577 
L 410.852542 -387.274917 
L 410.279843 -387.280257 
L 409.707144 -387.285598 
L 409.134445 -387.290938 
L 408.561746 -387.296279 
L 407.989048 -387.301618 
L 407.416349 -387.306956 
L 406.84365 -387.312294 
L 406.270951 -387.317631 
L 405.698252 -387.322969 
L 405.125553 -387.328307 
L 404.552855 -387.333645 
L 403.980156 -387.338983 
L 403.407457 -387.34432 
L 402.834758 -387.349658 
L 402.262059 -387.354996 
L 401.68936 -387.360334 
L 401.116662 -387.365671 
L 400.543963 -387.371009 
L 399.971264 -387.376347 
L 399.398565 -387.381685 
L 398.825866 -387.387023 
L 398.253167 -387.39236 
L 397.680469 -387.397698 
L 397.10777 -387.403036 
L 396.535071 -387.408376 
L 395.962372 -387.413724 
L 395.389673 -387.419072 
L 394.816974 -387.42442 
L 394.244276 -387.429769 
L 393.671577 -387.435117 
L 393.098878 -387.440465 
L 392.526179 -387.445813 
L 391.95348 -387.451162 
L 391.380781 -387.45651 
L 390.808083 -387.461858 
L 390.235384 -387.467206 
L 389.662685 -387.472554 
L 389.089986 -387.477903 
L 388.517287 -387.483251 
L 387.944588 -387.488599 
L 387.37189 -387.493947 
L 386.799191 -387.499296 
L 386.226492 -387.504644 
L 385.653793 -387.509992 
L 385.081094 -387.51534 
L 384.508395 -387.520688 
L 383.935697 -387.526037 
L 383.362998 -387.531385 
L 382.790299 -387.536733 
L 382.2176 -387.542081 
L 381.644901 -387.54743 
L 381.072202 -387.552778 
L 380.499504 -387.558126 
L 379.926805 -387.563474 
L 379.354106 -387.568823 
L 378.781407 -387.574171 
L 378.208708 -387.579519 
L 377.636009 -387.584867 
L 377.063311 -387.590215 
L 376.490612 -387.595564 
L 375.917913 -387.600912 
L 375.345214 -387.60626 
L 374.772515 -387.611608 
L 374.199816 -387.616957 
L 373.627118 -387.622305 
L 373.054419 -387.627646 
L 372.48172 -387.632986 
L 371.909021 -387.638326 
L 371.336322 -387.643667 
L 370.763623 -387.649007 
L 370.190925 -387.654348 
L 369.618226 -387.659688 
L 369.045527 -387.665028 
L 368.472828 -387.670369 
L 367.900129 -387.675709 
L 367.32743 -387.681049 
L 366.754731 -387.68639 
L 366.182033 -387.69173 
L 365.609334 -387.697071 
L 365.036635 -387.702411 
L 364.463936 -387.707751 
L 363.891237 -387.713092 
L 363.318538 -387.718432 
L 362.74584 -387.723773 
L 362.173141 -387.729113 
L 361.600442 -387.734458 
L 361.027743 -387.739803 
L 360.455044 -387.745149 
L 359.882345 -387.750494 
L 359.309647 -387.75584 
L 358.736948 -387.761186 
L 358.164249 -387.766531 
L 357.59155 -387.771877 
L 357.018851 -387.777222 
L 356.446152 -387.782568 
L 355.873454 -387.787914 
L 355.300755 -387.793259 
L 354.728056 -387.798605 
L 354.155357 -387.803951 
L 353.582658 -387.809296 
L 353.009959 -387.814642 
L 352.437261 -387.819987 
L 351.864562 -387.825333 
L 351.291863 -387.830679 
L 350.719164 -387.836024 
L 350.146465 -387.841365 
L 349.573766 -387.846702 
L 349.001068 -387.85204 
L 348.428369 -387.857378 
L 347.85567 -387.862716 
L 347.282971 -387.868053 
L 346.710272 -387.873391 
L 346.137573 -387.878729 
L 345.564875 -387.884067 
L 344.992176 -387.889405 
L 344.419477 -387.894742 
L 343.846778 -387.90008 
L 343.274079 -387.905418 
L 342.70138 -387.910756 
L 342.128682 -387.916093 
L 341.555983 -387.921431 
L 340.983284 -387.926769 
L 340.410585 -387.932107 
L 339.837886 -387.937445 
L 339.265187 -387.942782 
L 338.692489 -387.948123 
L 338.11979 -387.953466 
L 337.547091 -387.958809 
L 336.974392 -387.964152 
L 336.401693 -387.969495 
L 335.828994 -387.974838 
L 335.256296 -387.980181 
L 334.683597 -387.985524 
L 334.110898 -387.990867 
L 333.538199 -387.99621 
L 332.9655 -388.001553 
L 332.392801 -388.006896 
L 331.820103 -388.012239 
L 331.247404 -388.017582 
L 330.674705 -388.022925 
L 330.102006 -388.028268 
L 329.529307 -388.033611 
L 328.956608 -388.038954 
L 328.38391 -388.044297 
L 327.811211 -388.04964 
L 327.238512 -388.054957 
L 326.665813 -388.060233 
L 326.093114 -388.065509 
L 325.520415 -388.070784 
L 324.947717 -388.07606 
L 324.375018 -388.081336 
L 323.802319 -388.086611 
L 323.22962 -388.091887 
L 322.656921 -388.097163 
L 322.084222 -388.102439 
L 321.511524 -388.107714 
L 320.938825 -388.11299 
L 320.366126 -388.118266 
L 319.793427 -388.123541 
L 319.220728 -388.128817 
L 318.648029 -388.134093 
L 318.075331 -388.139369 
L 317.502632 -388.144644 
L 316.929933 -388.14992 
L 316.357234 -388.155196 
L 315.784535 -388.160487 
L 315.211836 -388.165836 
L 314.639137 -388.171184 
L 314.066439 -388.176532 
L 313.49374 -388.18188 
L 312.921041 -388.187229 
L 312.348342 -388.192577 
L 311.775643 -388.197925 
L 311.202944 -388.203273 
L 310.630246 -388.208622 
L 310.057547 -388.21397 
L 309.484848 -388.219318 
L 308.912149 -388.224666 
L 308.33945 -388.230014 
L 307.766751 -388.235363 
L 307.194053 -388.240711 
L 306.621354 -388.246059 
L 306.048655 -388.251407 
L 305.475956 -388.256756 
L 304.903257 -388.262104 
L 304.330558 -388.267453 
L 303.75786 -388.272806 
L 303.185161 -388.27816 
L 302.612462 -388.283513 
L 302.039763 -388.288866 
L 301.467064 -388.29422 
L 300.894365 -388.299573 
L 300.321667 -388.304927 
L 299.748968 -388.31028 
L 299.176269 -388.315634 
L 298.60357 -388.320987 
L 298.030871 -388.326341 
L 297.458172 -388.331694 
L 296.885474 -388.337048 
L 296.312775 -388.342401 
L 295.740076 -388.347755 
L 295.167377 -388.353108 
L 294.594678 -388.358462 
L 294.021979 -388.363815 
L 293.449281 -388.369169 
L 292.876582 -388.374522 
L 292.303883 -388.379862 
L 291.731184 -388.385203 
L 291.158485 -388.390543 
L 290.585786 -388.395884 
L 290.013088 -388.401224 
L 289.440389 -388.406564 
L 288.86769 -388.411905 
L 288.294991 -388.417245 
L 287.722292 -388.422585 
L 287.149593 -388.427926 
L 286.576895 -388.433266 
L 286.004196 -388.438607 
L 285.431497 -388.443947 
L 284.858798 -388.449287 
L 284.286099 -388.454628 
L 283.7134 -388.459968 
L 283.140702 -388.465309 
L 282.568003 -388.470649 
L 281.995304 -388.475989 
L 281.422605 -388.48133 
L 280.849906 -388.486675 
L 280.277207 -388.49202 
L 279.704509 -388.497366 
L 279.13181 -388.502711 
L 278.559111 -388.508057 
L 277.986412 -388.513403 
L 277.413713 -388.518748 
L 276.841014 -388.524094 
L 276.268316 -388.529439 
L 275.695617 -388.534785 
L 275.122918 -388.540131 
L 274.550219 -388.545476 
L 273.97752 -388.550822 
L 273.404821 -388.556168 
L 272.832123 -388.561513 
L 272.259424 -388.566859 
L 271.686725 -388.572204 
L 271.114026 -388.57755 
L 270.541327 -388.582896 
L 269.968628 -388.588241 
L 269.39593 -388.593589 
L 268.823231 -388.598937 
L 268.250532 -388.604285 
L 267.677833 -388.609633 
L 267.105134 -388.614982 
L 266.532435 -388.62033 
L 265.959736 -388.625678 
L 265.387038 -388.631026 
L 264.814339 -388.636375 
L 264.24164 -388.641723 
L 263.668941 -388.647071 
L 263.096242 -388.652419 
L 262.523543 -388.657767 
L 261.950845 -388.663116 
L 261.378146 -388.668464 
L 260.805447 -388.673812 
L 260.232748 -388.67916 
L 259.660049 -388.684509 
L 259.08735 -388.689857 
L 258.514652 -388.695205 
L 257.941953 -388.700553 
L 257.369254 -388.705902 
L 256.796555 -388.71125 
L 256.223856 -388.716598 
L 255.651157 -388.721946 
L 255.078459 -388.727294 
L 254.50576 -388.732643 
L 253.933061 -388.737991 
L 253.360362 -388.743339 
L 252.787663 -388.748687 
L 252.214964 -388.754036 
L 251.642266 -388.759384 
L 251.069567 -388.764732 
L 250.496868 -388.77008 
L 249.924169 -388.775429 
L 249.35147 -388.780777 
L 248.778771 -388.786125 
L 248.206073 -388.791473 
L 247.633374 -388.796821 
L 247.060675 -388.80217 
L 246.487976 -388.807513 
L 245.915277 -388.812851 
L 245.342578 -388.818188 
L 244.76988 -388.823526 
L 244.197181 -388.828864 
L 243.624482 -388.834202 
L 243.051783 -388.839539 
L 242.479084 -388.844877 
L 241.906385 -388.850215 
L 241.333687 -388.855553 
L 240.760988 -388.860891 
L 240.188289 -388.866228 
L 239.61559 -388.871566 
L 239.042891 -388.876904 
L 238.470192 -388.882242 
L 237.897494 -388.887579 
L 237.324795 -388.892917 
L 236.752096 -388.898255 
L 236.179397 -388.903593 
L 235.606698 -388.908931 
L 235.033999 -388.91427 
L 234.461301 -388.919613 
L 233.888602 -388.924956 
L 233.315903 -388.930299 
L 232.743204 -388.935642 
L 232.170505 -388.940988 
L 231.597806 -388.946342 
L 231.025108 -388.951695 
L 230.452409 -388.957049 
L 229.87971 -388.962402 
L 229.307011 -388.967756 
L 228.734312 -388.973109 
L 228.161613 -388.978462 
L 227.588915 -388.983816 
L 227.016216 -388.989169 
L 226.443517 -388.994523 
L 225.870818 -388.999876 
L 225.298119 -389.00523 
L 224.72542 -389.010583 
L 224.152722 -389.015937 
L 223.580023 -389.021274 
L 223.007324 -389.026552 
L 222.434625 -389.03183 
L 221.861926 -389.037109 
L 221.289227 -389.042387 
L 220.716529 -389.047665 
L 220.14383 -389.052943 
L 219.571131 -389.058222 
L 218.998432 -389.0635 
L 218.425733 -389.068778 
L 217.853034 -389.074057 
L 217.280336 -389.079335 
L 216.707637 -389.084613 
L 216.134938 -389.089891 
L 215.562239 -389.09517 
L 214.98954 -389.100448 
L 214.416841 -389.105726 
L 213.844142 -389.111005 
L 213.271444 -389.116283 
L 212.698745 -389.121561 
L 212.126046 -389.126844 
L 211.553347 -389.132179 
L 210.980648 -389.137514 
L 210.407949 -389.142849 
L 209.835251 -389.148184 
L 209.262552 -389.15352 
L 208.689853 -389.158865 
L 208.117154 -389.164211 
L 207.544455 -389.169557 
L 206.971756 -389.174902 
L 206.399058 -389.180248 
L 205.826359 -389.185593 
L 205.25366 -389.190939 
L 204.680961 -389.196285 
L 204.108262 -389.20163 
L 203.535563 -389.206976 
L 202.962865 -389.212321 
L 202.390166 -389.217667 
L 201.817467 -389.223013 
L 201.244768 -389.228358 
L 200.672069 -389.233704 
L 200.09937 -389.23905 
L 199.526672 -389.244395 
L 198.953973 -389.249741 
L 198.381274 -389.255086 
L 197.808575 -389.260432 
L 197.235876 -389.265778 
L 196.663177 -389.271123 
L 196.090479 -389.276469 
L 195.51778 -389.281814 
L 194.945081 -389.28716 
L 194.372382 -389.292506 
L 193.799683 -389.297851 
L 193.226984 -389.303197 
L 192.654286 -389.308543 
L 192.081587 -389.313888 
L 191.508888 -389.319234 
L 190.936189 -389.324579 
L 190.36349 -389.329925 
L 189.790791 -389.335271 
L 189.218093 -389.340616 
L 188.645394 -389.345956 
L 188.072695 -389.351293 
L 187.499996 -389.356631 
L 186.927297 -389.361969 
L 186.354598 -389.367307 
L 185.7819 -389.372644 
L 185.209201 -389.377982 
L 184.636502 -389.38332 
L 184.063803 -389.388658 
L 183.491104 -389.393996 
L 182.918405 -389.399333 
L 182.345707 -389.404671 
L 181.773008 -389.410009 
L 181.200309 -389.415347 
L 180.62761 -389.420684 
L 180.054911 -389.426022 
L 179.482212 -389.43136 
L 178.909514 -389.436698 
L 178.336815 -389.442036 
L 177.764116 -389.447373 
L 177.191417 -389.452714 
L 176.618718 -389.458057 
L 176.046019 -389.4634 
L 175.473321 -389.468743 
L 174.900622 -389.474086 
L 174.327923 -389.479429 
L 173.755224 -389.484772 
L 173.182525 -389.490115 
L 172.609826 -389.495458 
L 172.037128 -389.500801 
L 171.464429 -389.506144 
L 170.89173 -389.511487 
L 170.319031 -389.51683 
L 169.746332 -389.522173 
L 169.173633 -389.527516 
L 168.600935 -389.532859 
L 168.028236 -389.538202 
L 167.455537 -389.543545 
L 166.882838 -389.548888 
L 166.310139 -389.554231 
L 165.73744 -389.559576 
L 165.164742 -389.564921 
L 164.592043 -389.570267 
L 164.019344 -389.575613 
L 163.446645 -389.580958 
L 162.873946 -389.586304 
L 162.301247 -389.591649 
L 161.728548 -389.596995 
L 161.15585 -389.602341 
L 160.583151 -389.607686 
L 160.010452 -389.613032 
L 159.437753 -389.618377 
L 158.865054 -389.623723 
L 158.292355 -389.629069 
L 157.719657 -389.634414 
L 157.146958 -389.63976 
L 156.574259 -389.645106 
L 156.00156 -389.650451 
L 155.428861 -389.655797 
L 154.856162 -389.661142 
L 154.283464 -389.666486 
L 153.710765 -389.671826 
L 153.138066 -389.677167 
L 152.565367 -389.682507 
L 151.992668 -389.687848 
L 151.419969 -389.693188 
L 150.847271 -389.698528 
L 150.274572 -389.703869 
L 149.701873 -389.709209 
L 149.129174 -389.71455 
L 148.556475 -389.71989 
L 147.983776 -389.72523 
L 147.411078 -389.730571 
L 146.838379 -389.735911 
L 146.26568 -389.741251 
L 145.692981 -389.746592 
L 145.120282 -389.751932 
L 144.547583 -389.757273 
L 143.974885 -389.762613 
L 143.402186 -389.767953 
L 142.829487 -389.773294 
L 142.256788 -389.778637 
L 141.684089 -389.78398 
L 141.11139 -389.789323 
L 140.538692 -389.794666 
L 139.965993 -389.800009 
L 139.393294 -389.805352 
L 138.820595 -389.810695 
L 138.247896 -389.816038 
L 137.675197 -389.821381 
L 137.102499 -389.826724 
L 136.5298 -389.832067 
L 135.957101 -389.83741 
L 135.384402 -389.842753 
L 134.811703 -389.848096 
L 134.239004 -389.853439 
L 133.666306 -389.858782 
L 133.093607 -389.864125 
L 132.520908 -389.869468 
L 131.948209 -389.874811 
L 131.37551 -389.880154 
L 130.802811 -389.885495 
L 130.230113 -389.890835 
L 129.657414 -389.896175 
L 129.084715 -389.901516 
L 128.512016 -389.906856 
L 127.939317 -389.912196 
L 127.366618 -389.917537 
L 126.79392 -389.922877 
L 126.221221 -389.928218 
L 125.648522 -389.933558 
L 125.075823 -389.938898 
L 124.503124 -389.944239 
L 123.930425 -389.949579 
L 123.357727 -389.95492 
L 122.785028 -389.96026 
L 122.212329 -389.9656 
L 121.63963 -389.970941 
L 121.066931 -389.976281 
L 120.494232 -389.981621 
L 119.921534 -389.986962 
L 119.348835 -389.987273 
L 118.776136 -389.987273 
L 118.203437 -389.987273 
L 117.630738 -389.987273 
L 117.058039 -389.987273 
L 116.485341 -389.987273 
L 115.912642 -389.987273 
L 115.339943 -389.987273 
L 114.767244 -389.987273 
L 114.194545 -389.987273 
L 113.621846 -389.987273 
L 113.049147 -389.987273 
L 112.476449 -389.987273 
L 111.90375 -389.987273 
L 111.331051 -389.987273 
L 110.758352 -389.987273 
L 110.185653 -389.987273 
L 109.612954 -389.987273 
L 109.040256 -389.987273 
L 108.467557 -389.987273 
z
" style="stroke: #ff8c00; stroke-opacity: 0.3"/>
    </defs>
    <g clip-path="url(#p15c2639fd4)">
     <use xlink:href="#mfdf7d5d6ae" x="0" y="432" style="fill: #ff8c00; fill-opacity: 0.3; stroke: #ff8c00; stroke-opacity: 0.3"/>
    </g>
   </g>
   <g id="matplotlib.axis_1">
    <g id="xtick_1">
     <g id="line2d_1">
      <defs>
       <path id="mc716d3e847" d="M 0 0 
L 0 3.5 
" style="stroke: #000000; stroke-width: 0.8"/>
      </defs>
      <g>
       <use xlink:href="#mc716d3e847" x="108.337841" y="390.04" style="stroke: #000000; stroke-width: 0.8"/>
      </g>
     </g>
     <g id="text_1">
      <!-- 0 -->
      <g transform="translate(105.156591 404.638438) scale(0.1 -0.1)">
       <defs>
        <path id="DejaVuSans-30" d="M 2034 4250 
Q 1547 4250 1301 3770 
Q 1056 3291 1056 2328 
Q 1056 1369 1301 889 
Q 1547 409 2034 409 
Q 2525 409 2770 889 
Q 3016 1369 3016 2328 
Q 3016 3291 2770 3770 
Q 2525 4250 2034 4250 
z
M 2034 4750 
Q 2819 4750 3233 4129 
Q 3647 3509 3647 2328 
Q 3647 1150 3233 529 
Q 2819 -91 2034 -91 
Q 1250 -91 836 529 
Q 422 1150 422 2328 
Q 422 3509 836 4129 
Q 1250 4750 2034 4750 
z
" transform="scale(0.015625)"/>
       </defs>
       <use xlink:href="#DejaVuSans-30"/>
      </g>
     </g>
    </g>
    <g id="xtick_2">
     <g id="line2d_2">
      <g>
       <use xlink:href="#mc716d3e847" x="221.134287" y="390.04" style="stroke: #000000; stroke-width: 0.8"/>
      </g>
     </g>
     <g id="text_2">
      <!-- 20000 -->
      <g transform="translate(205.228037 404.638438) scale(0.1 -0.1)">
       <defs>
        <path id="DejaVuSans-32" d="M 1228 531 
L 3431 531 
L 3431 0 
L 469 0 
L 469 531 
Q 828 903 1448 1529 
Q 2069 2156 2228 2338 
Q 2531 2678 2651 2914 
Q 2772 3150 2772 3378 
Q 2772 3750 2511 3984 
Q 2250 4219 1831 4219 
Q 1534 4219 1204 4116 
Q 875 4013 500 3803 
L 500 4441 
Q 881 4594 1212 4672 
Q 1544 4750 1819 4750 
Q 2544 4750 2975 4387 
Q 3406 4025 3406 3419 
Q 3406 3131 3298 2873 
Q 3191 2616 2906 2266 
Q 2828 2175 2409 1742 
Q 1991 1309 1228 531 
z
" transform="scale(0.015625)"/>
       </defs>
       <use xlink:href="#DejaVuSans-32"/>
       <use xlink:href="#DejaVuSans-30" transform="translate(63.623047 0)"/>
       <use xlink:href="#DejaVuSans-30" transform="translate(127.246094 0)"/>
       <use xlink:href="#DejaVuSans-30" transform="translate(190.869141 0)"/>
       <use xlink:href="#DejaVuSans-30" transform="translate(254.492188 0)"/>
      </g>
     </g>
    </g>
    <g id="xtick_3">
     <g id="line2d_3">
      <g>
       <use xlink:href="#mc716d3e847" x="333.930734" y="390.04" style="stroke: #000000; stroke-width: 0.8"/>
      </g>
     </g>
     <g id="text_3">
      <!-- 40000 -->
      <g transform="translate(318.024484 404.638438) scale(0.1 -0.1)">
       <defs>
        <path id="DejaVuSans-34" d="M 2419 4116 
L 825 1625 
L 2419 1625 
L 2419 4116 
z
M 2253 4666 
L 3047 4666 
L 3047 1625 
L 3713 1625 
L 3713 1100 
L 3047 1100 
L 3047 0 
L 2419 0 
L 2419 1100 
L 313 1100 
L 313 1709 
L 2253 4666 
z
" transform="scale(0.015625)"/>
       </defs>
       <use xlink:href="#DejaVuSans-34"/>
       <use xlink:href="#DejaVuSans-30" transform="translate(63.623047 0)"/>
       <use xlink:href="#DejaVuSans-30" transform="translate(127.246094 0)"/>
       <use xlink:href="#DejaVuSans-30" transform="translate(190.869141 0)"/>
       <use xlink:href="#DejaVuSans-30" transform="translate(254.492188 0)"/>
      </g>
     </g>
    </g>
    <g id="xtick_4">
     <g id="line2d_4">
      <g>
       <use xlink:href="#mc716d3e847" x="446.727181" y="390.04" style="stroke: #000000; stroke-width: 0.8"/>
      </g>
     </g>
     <g id="text_4">
      <!-- 60000 -->
      <g transform="translate(430.820931 404.638438) scale(0.1 -0.1)">
       <defs>
        <path id="DejaVuSans-36" d="M 2113 2584 
Q 1688 2584 1439 2293 
Q 1191 2003 1191 1497 
Q 1191 994 1439 701 
Q 1688 409 2113 409 
Q 2538 409 2786 701 
Q 3034 994 3034 1497 
Q 3034 2003 2786 2293 
Q 2538 2584 2113 2584 
z
M 3366 4563 
L 3366 3988 
Q 3128 4100 2886 4159 
Q 2644 4219 2406 4219 
Q 1781 4219 1451 3797 
Q 1122 3375 1075 2522 
Q 1259 2794 1537 2939 
Q 1816 3084 2150 3084 
Q 2853 3084 3261 2657 
Q 3669 2231 3669 1497 
Q 3669 778 3244 343 
Q 2819 -91 2113 -91 
Q 1303 -91 875 529 
Q 447 1150 447 2328 
Q 447 3434 972 4092 
Q 1497 4750 2381 4750 
Q 2619 4750 2861 4703 
Q 3103 4656 3366 4563 
z
" transform="scale(0.015625)"/>
       </defs>
       <use xlink:href="#DejaVuSans-36"/>
       <use xlink:href="#DejaVuSans-30" transform="translate(63.623047 0)"/>
       <use xlink:href="#DejaVuSans-30" transform="translate(127.246094 0)"/>
       <use xlink:href="#DejaVuSans-30" transform="translate(190.869141 0)"/>
       <use xlink:href="#DejaVuSans-30" transform="translate(254.492188 0)"/>
      </g>
     </g>
    </g>
    <g id="xtick_5">
     <g id="line2d_5">
      <g>
       <use xlink:href="#mc716d3e847" x="559.523627" y="390.04" style="stroke: #000000; stroke-width: 0.8"/>
      </g>
     </g>
     <g id="text_5">
      <!-- 80000 -->
      <g transform="translate(543.617377 404.638438) scale(0.1 -0.1)">
       <defs>
        <path id="DejaVuSans-38" d="M 2034 2216 
Q 1584 2216 1326 1975 
Q 1069 1734 1069 1313 
Q 1069 891 1326 650 
Q 1584 409 2034 409 
Q 2484 409 2743 651 
Q 3003 894 3003 1313 
Q 3003 1734 2745 1975 
Q 2488 2216 2034 2216 
z
M 1403 2484 
Q 997 2584 770 2862 
Q 544 3141 544 3541 
Q 544 4100 942 4425 
Q 1341 4750 2034 4750 
Q 2731 4750 3128 4425 
Q 3525 4100 3525 3541 
Q 3525 3141 3298 2862 
Q 3072 2584 2669 2484 
Q 3125 2378 3379 2068 
Q 3634 1759 3634 1313 
Q 3634 634 3220 271 
Q 2806 -91 2034 -91 
Q 1263 -91 848 271 
Q 434 634 434 1313 
Q 434 1759 690 2068 
Q 947 2378 1403 2484 
z
M 1172 3481 
Q 1172 3119 1398 2916 
Q 1625 2713 2034 2713 
Q 2441 2713 2670 2916 
Q 2900 3119 2900 3481 
Q 2900 3844 2670 4047 
Q 2441 4250 2034 4250 
Q 1625 4250 1398 4047 
Q 1172 3844 1172 3481 
z
" transform="scale(0.015625)"/>
       </defs>
       <use xlink:href="#DejaVuSans-38"/>
       <use xlink:href="#DejaVuSans-30" transform="translate(63.623047 0)"/>
       <use xlink:href="#DejaVuSans-30" transform="translate(127.246094 0)"/>
       <use xlink:href="#DejaVuSans-30" transform="translate(190.869141 0)"/>
       <use xlink:href="#DejaVuSans-30" transform="translate(254.492188 0)"/>
      </g>
     </g>
    </g>
    <g id="xtick_6">
     <g id="line2d_6">
      <g>
       <use xlink:href="#mc716d3e847" x="672.320074" y="390.04" style="stroke: #000000; stroke-width: 0.8"/>
      </g>
     </g>
     <g id="text_6">
      <!-- 100000 -->
      <g transform="translate(653.232574 404.638438) scale(0.1 -0.1)">
       <defs>
        <path id="DejaVuSans-31" d="M 794 531 
L 1825 531 
L 1825 4091 
L 703 3866 
L 703 4441 
L 1819 4666 
L 2450 4666 
L 2450 531 
L 3481 531 
L 3481 0 
L 794 0 
L 794 531 
z
" transform="scale(0.015625)"/>
       </defs>
       <use xlink:href="#DejaVuSans-31"/>
       <use xlink:href="#DejaVuSans-30" transform="translate(63.623047 0)"/>
       <use xlink:href="#DejaVuSans-30" transform="translate(127.246094 0)"/>
       <use xlink:href="#DejaVuSans-30" transform="translate(190.869141 0)"/>
       <use xlink:href="#DejaVuSans-30" transform="translate(254.492188 0)"/>
       <use xlink:href="#DejaVuSans-30" transform="translate(318.115234 0)"/>
      </g>
     </g>
    </g>
    <g id="text_7">
     <!-- Step -->
     <g transform="translate(383.145469 418.316562) scale(0.1 -0.1)">
      <defs>
       <path id="DejaVuSans-53" d="M 3425 4513 
L 3425 3897 
Q 3066 4069 2747 4153 
Q 2428 4238 2131 4238 
Q 1616 4238 1336 4038 
Q 1056 3838 1056 3469 
Q 1056 3159 1242 3001 
Q 1428 2844 1947 2747 
L 2328 2669 
Q 3034 2534 3370 2195 
Q 3706 1856 3706 1288 
Q 3706 609 3251 259 
Q 2797 -91 1919 -91 
Q 1588 -91 1214 -16 
Q 841 59 441 206 
L 441 856 
Q 825 641 1194 531 
Q 1563 422 1919 422 
Q 2459 422 2753 634 
Q 3047 847 3047 1241 
Q 3047 1584 2836 1778 
Q 2625 1972 2144 2069 
L 1759 2144 
Q 1053 2284 737 2584 
Q 422 2884 422 3419 
Q 422 4038 858 4394 
Q 1294 4750 2059 4750 
Q 2388 4750 2728 4690 
Q 3069 4631 3425 4513 
z
" transform="scale(0.015625)"/>
       <path id="DejaVuSans-74" d="M 1172 4494 
L 1172 3500 
L 2356 3500 
L 2356 3053 
L 1172 3053 
L 1172 1153 
Q 1172 725 1289 603 
Q 1406 481 1766 481 
L 2356 481 
L 2356 0 
L 1766 0 
Q 1100 0 847 248 
Q 594 497 594 1153 
L 594 3053 
L 172 3053 
L 172 3500 
L 594 3500 
L 594 4494 
L 1172 4494 
z
" transform="scale(0.015625)"/>
       <path id="DejaVuSans-65" d="M 3597 1894 
L 3597 1613 
L 953 1613 
Q 991 1019 1311 708 
Q 1631 397 2203 397 
Q 2534 397 2845 478 
Q 3156 559 3463 722 
L 3463 178 
Q 3153 47 2828 -22 
Q 2503 -91 2169 -91 
Q 1331 -91 842 396 
Q 353 884 353 1716 
Q 353 2575 817 3079 
Q 1281 3584 2069 3584 
Q 2775 3584 3186 3129 
Q 3597 2675 3597 1894 
z
M 3022 2063 
Q 3016 2534 2758 2815 
Q 2500 3097 2075 3097 
Q 1594 3097 1305 2825 
Q 1016 2553 972 2059 
L 3022 2063 
z
" transform="scale(0.015625)"/>
       <path id="DejaVuSans-70" d="M 1159 525 
L 1159 -1331 
L 581 -1331 
L 581 3500 
L 1159 3500 
L 1159 2969 
Q 1341 3281 1617 3432 
Q 1894 3584 2278 3584 
Q 2916 3584 3314 3078 
Q 3713 2572 3713 1747 
Q 3713 922 3314 415 
Q 2916 -91 2278 -91 
Q 1894 -91 1617 61 
Q 1341 213 1159 525 
z
M 3116 1747 
Q 3116 2381 2855 2742 
Q 2594 3103 2138 3103 
Q 1681 3103 1420 2742 
Q 1159 2381 1159 1747 
Q 1159 1113 1420 752 
Q 1681 391 2138 391 
Q 2594 391 2855 752 
Q 3116 1113 3116 1747 
z
" transform="scale(0.015625)"/>
      </defs>
      <use xlink:href="#DejaVuSans-53"/>
      <use xlink:href="#DejaVuSans-74" transform="translate(63.476562 0)"/>
      <use xlink:href="#DejaVuSans-65" transform="translate(102.685547 0)"/>
      <use xlink:href="#DejaVuSans-70" transform="translate(164.208984 0)"/>
     </g>
    </g>
   </g>
   <g id="matplotlib.axis_2">
    <g id="ytick_1">
     <g id="line2d_7">
      <defs>
       <path id="m0645d675f2" d="M 0 0 
L -3.5 0 
" style="stroke: #000000; stroke-width: 0.8"/>
      </defs>
      <g>
       <use xlink:href="#m0645d675f2" x="79.86125" y="385.826802" style="stroke: #000000; stroke-width: 0.8"/>
      </g>
     </g>
     <g id="text_8">
      <!-- 0.000242 -->
      <g transform="translate(25.145625 389.626021) scale(0.1 -0.1)">
       <defs>
        <path id="DejaVuSans-2e" d="M 684 794 
L 1344 794 
L 1344 0 
L 684 0 
L 684 794 
z
" transform="scale(0.015625)"/>
       </defs>
       <use xlink:href="#DejaVuSans-30"/>
       <use xlink:href="#DejaVuSans-2e" transform="translate(63.623047 0)"/>
       <use xlink:href="#DejaVuSans-30" transform="translate(95.410156 0)"/>
       <use xlink:href="#DejaVuSans-30" transform="translate(159.033203 0)"/>
       <use xlink:href="#DejaVuSans-30" transform="translate(222.65625 0)"/>
       <use xlink:href="#DejaVuSans-32" transform="translate(286.279297 0)"/>
       <use xlink:href="#DejaVuSans-34" transform="translate(349.902344 0)"/>
       <use xlink:href="#DejaVuSans-32" transform="translate(413.525391 0)"/>
      </g>
     </g>
    </g>
    <g id="ytick_2">
     <g id="line2d_8">
      <g>
       <use xlink:href="#m0645d675f2" x="79.86125" y="342.836656" style="stroke: #000000; stroke-width: 0.8"/>
      </g>
     </g>
     <g id="text_9">
      <!-- 0.000243 -->
      <g transform="translate(25.145625 346.635875) scale(0.1 -0.1)">
       <defs>
        <path id="DejaVuSans-33" d="M 2597 2516 
Q 3050 2419 3304 2112 
Q 3559 1806 3559 1356 
Q 3559 666 3084 287 
Q 2609 -91 1734 -91 
Q 1441 -91 1130 -33 
Q 819 25 488 141 
L 488 750 
Q 750 597 1062 519 
Q 1375 441 1716 441 
Q 2309 441 2620 675 
Q 2931 909 2931 1356 
Q 2931 1769 2642 2001 
Q 2353 2234 1838 2234 
L 1294 2234 
L 1294 2753 
L 1863 2753 
Q 2328 2753 2575 2939 
Q 2822 3125 2822 3475 
Q 2822 3834 2567 4026 
Q 2313 4219 1838 4219 
Q 1578 4219 1281 4162 
Q 984 4106 628 3988 
L 628 4550 
Q 988 4650 1302 4700 
Q 1616 4750 1894 4750 
Q 2613 4750 3031 4423 
Q 3450 4097 3450 3541 
Q 3450 3153 3228 2886 
Q 3006 2619 2597 2516 
z
" transform="scale(0.015625)"/>
       </defs>
       <use xlink:href="#DejaVuSans-30"/>
       <use xlink:href="#DejaVuSans-2e" transform="translate(63.623047 0)"/>
       <use xlink:href="#DejaVuSans-30" transform="translate(95.410156 0)"/>
       <use xlink:href="#DejaVuSans-30" transform="translate(159.033203 0)"/>
       <use xlink:href="#DejaVuSans-30" transform="translate(222.65625 0)"/>
       <use xlink:href="#DejaVuSans-32" transform="translate(286.279297 0)"/>
       <use xlink:href="#DejaVuSans-34" transform="translate(349.902344 0)"/>
       <use xlink:href="#DejaVuSans-33" transform="translate(413.525391 0)"/>
      </g>
     </g>
    </g>
    <g id="ytick_3">
     <g id="line2d_9">
      <g>
       <use xlink:href="#m0645d675f2" x="79.86125" y="299.846511" style="stroke: #000000; stroke-width: 0.8"/>
      </g>
     </g>
     <g id="text_10">
      <!-- 0.000244 -->
      <g transform="translate(25.145625 303.64573) scale(0.1 -0.1)">
       <use xlink:href="#DejaVuSans-30"/>
       <use xlink:href="#DejaVuSans-2e" transform="translate(63.623047 0)"/>
       <use xlink:href="#DejaVuSans-30" transform="translate(95.410156 0)"/>
       <use xlink:href="#DejaVuSans-30" transform="translate(159.033203 0)"/>
       <use xlink:href="#DejaVuSans-30" transform="translate(222.65625 0)"/>
       <use xlink:href="#DejaVuSans-32" transform="translate(286.279297 0)"/>
       <use xlink:href="#DejaVuSans-34" transform="translate(349.902344 0)"/>
       <use xlink:href="#DejaVuSans-34" transform="translate(413.525391 0)"/>
      </g>
     </g>
    </g>
    <g id="ytick_4">
     <g id="line2d_10">
      <g>
       <use xlink:href="#m0645d675f2" x="79.86125" y="256.856365" style="stroke: #000000; stroke-width: 0.8"/>
      </g>
     </g>
     <g id="text_11">
      <!-- 0.000245 -->
      <g transform="translate(25.145625 260.655584) scale(0.1 -0.1)">
       <defs>
        <path id="DejaVuSans-35" d="M 691 4666 
L 3169 4666 
L 3169 4134 
L 1269 4134 
L 1269 2991 
Q 1406 3038 1543 3061 
Q 1681 3084 1819 3084 
Q 2600 3084 3056 2656 
Q 3513 2228 3513 1497 
Q 3513 744 3044 326 
Q 2575 -91 1722 -91 
Q 1428 -91 1123 -41 
Q 819 9 494 109 
L 494 744 
Q 775 591 1075 516 
Q 1375 441 1709 441 
Q 2250 441 2565 725 
Q 2881 1009 2881 1497 
Q 2881 1984 2565 2268 
Q 2250 2553 1709 2553 
Q 1456 2553 1204 2497 
Q 953 2441 691 2322 
L 691 4666 
z
" transform="scale(0.015625)"/>
       </defs>
       <use xlink:href="#DejaVuSans-30"/>
       <use xlink:href="#DejaVuSans-2e" transform="translate(63.623047 0)"/>
       <use xlink:href="#DejaVuSans-30" transform="translate(95.410156 0)"/>
       <use xlink:href="#DejaVuSans-30" transform="translate(159.033203 0)"/>
       <use xlink:href="#DejaVuSans-30" transform="translate(222.65625 0)"/>
       <use xlink:href="#DejaVuSans-32" transform="translate(286.279297 0)"/>
       <use xlink:href="#DejaVuSans-34" transform="translate(349.902344 0)"/>
       <use xlink:href="#DejaVuSans-35" transform="translate(413.525391 0)"/>
      </g>
     </g>
    </g>
    <g id="ytick_5">
     <g id="line2d_11">
      <g>
       <use xlink:href="#m0645d675f2" x="79.86125" y="213.866219" style="stroke: #000000; stroke-width: 0.8"/>
      </g>
     </g>
     <g id="text_12">
      <!-- 0.000246 -->
      <g transform="translate(25.145625 217.665438) scale(0.1 -0.1)">
       <use xlink:href="#DejaVuSans-30"/>
       <use xlink:href="#DejaVuSans-2e" transform="translate(63.623047 0)"/>
       <use xlink:href="#DejaVuSans-30" transform="translate(95.410156 0)"/>
       <use xlink:href="#DejaVuSans-30" transform="translate(159.033203 0)"/>
       <use xlink:href="#DejaVuSans-30" transform="translate(222.65625 0)"/>
       <use xlink:href="#DejaVuSans-32" transform="translate(286.279297 0)"/>
       <use xlink:href="#DejaVuSans-34" transform="translate(349.902344 0)"/>
       <use xlink:href="#DejaVuSans-36" transform="translate(413.525391 0)"/>
      </g>
     </g>
    </g>
    <g id="ytick_6">
     <g id="line2d_12">
      <g>
       <use xlink:href="#m0645d675f2" x="79.86125" y="170.876074" style="stroke: #000000; stroke-width: 0.8"/>
      </g>
     </g>
     <g id="text_13">
      <!-- 0.000247 -->
      <g transform="translate(25.145625 174.675292) scale(0.1 -0.1)">
       <defs>
        <path id="DejaVuSans-37" d="M 525 4666 
L 3525 4666 
L 3525 4397 
L 1831 0 
L 1172 0 
L 2766 4134 
L 525 4134 
L 525 4666 
z
" transform="scale(0.015625)"/>
       </defs>
       <use xlink:href="#DejaVuSans-30"/>
       <use xlink:href="#DejaVuSans-2e" transform="translate(63.623047 0)"/>
       <use xlink:href="#DejaVuSans-30" transform="translate(95.410156 0)"/>
       <use xlink:href="#DejaVuSans-30" transform="translate(159.033203 0)"/>
       <use xlink:href="#DejaVuSans-30" transform="translate(222.65625 0)"/>
       <use xlink:href="#DejaVuSans-32" transform="translate(286.279297 0)"/>
       <use xlink:href="#DejaVuSans-34" transform="translate(349.902344 0)"/>
       <use xlink:href="#DejaVuSans-37" transform="translate(413.525391 0)"/>
      </g>
     </g>
    </g>
    <g id="ytick_7">
     <g id="line2d_13">
      <g>
       <use xlink:href="#m0645d675f2" x="79.86125" y="127.885928" style="stroke: #000000; stroke-width: 0.8"/>
      </g>
     </g>
     <g id="text_14">
      <!-- 0.000248 -->
      <g transform="translate(25.145625 131.685147) scale(0.1 -0.1)">
       <use xlink:href="#DejaVuSans-30"/>
       <use xlink:href="#DejaVuSans-2e" transform="translate(63.623047 0)"/>
       <use xlink:href="#DejaVuSans-30" transform="translate(95.410156 0)"/>
       <use xlink:href="#DejaVuSans-30" transform="translate(159.033203 0)"/>
       <use xlink:href="#DejaVuSans-30" transform="translate(222.65625 0)"/>
       <use xlink:href="#DejaVuSans-32" transform="translate(286.279297 0)"/>
       <use xlink:href="#DejaVuSans-34" transform="translate(349.902344 0)"/>
       <use xlink:href="#DejaVuSans-38" transform="translate(413.525391 0)"/>
      </g>
     </g>
    </g>
    <g id="ytick_8">
     <g id="line2d_14">
      <g>
       <use xlink:href="#m0645d675f2" x="79.86125" y="84.895782" style="stroke: #000000; stroke-width: 0.8"/>
      </g>
     </g>
     <g id="text_15">
      <!-- 0.000249 -->
      <g transform="translate(25.145625 88.695001) scale(0.1 -0.1)">
       <defs>
        <path id="DejaVuSans-39" d="M 703 97 
L 703 672 
Q 941 559 1184 500 
Q 1428 441 1663 441 
Q 2288 441 2617 861 
Q 2947 1281 2994 2138 
Q 2813 1869 2534 1725 
Q 2256 1581 1919 1581 
Q 1219 1581 811 2004 
Q 403 2428 403 3163 
Q 403 3881 828 4315 
Q 1253 4750 1959 4750 
Q 2769 4750 3195 4129 
Q 3622 3509 3622 2328 
Q 3622 1225 3098 567 
Q 2575 -91 1691 -91 
Q 1453 -91 1209 -44 
Q 966 3 703 97 
z
M 1959 2075 
Q 2384 2075 2632 2365 
Q 2881 2656 2881 3163 
Q 2881 3666 2632 3958 
Q 2384 4250 1959 4250 
Q 1534 4250 1286 3958 
Q 1038 3666 1038 3163 
Q 1038 2656 1286 2365 
Q 1534 2075 1959 2075 
z
" transform="scale(0.015625)"/>
       </defs>
       <use xlink:href="#DejaVuSans-30"/>
       <use xlink:href="#DejaVuSans-2e" transform="translate(63.623047 0)"/>
       <use xlink:href="#DejaVuSans-30" transform="translate(95.410156 0)"/>
       <use xlink:href="#DejaVuSans-30" transform="translate(159.033203 0)"/>
       <use xlink:href="#DejaVuSans-30" transform="translate(222.65625 0)"/>
       <use xlink:href="#DejaVuSans-32" transform="translate(286.279297 0)"/>
       <use xlink:href="#DejaVuSans-34" transform="translate(349.902344 0)"/>
       <use xlink:href="#DejaVuSans-39" transform="translate(413.525391 0)"/>
      </g>
     </g>
    </g>
    <g id="ytick_9">
     <g id="line2d_15">
      <g>
       <use xlink:href="#m0645d675f2" x="79.86125" y="41.905636" style="stroke: #000000; stroke-width: 0.8"/>
      </g>
     </g>
     <g id="text_16">
      <!-- 0.000250 -->
      <g transform="translate(25.145625 45.704855) scale(0.1 -0.1)">
       <use xlink:href="#DejaVuSans-30"/>
       <use xlink:href="#DejaVuSans-2e" transform="translate(63.623047 0)"/>
       <use xlink:href="#DejaVuSans-30" transform="translate(95.410156 0)"/>
       <use xlink:href="#DejaVuSans-30" transform="translate(159.033203 0)"/>
       <use xlink:href="#DejaVuSans-30" transform="translate(222.65625 0)"/>
       <use xlink:href="#DejaVuSans-32" transform="translate(286.279297 0)"/>
       <use xlink:href="#DejaVuSans-35" transform="translate(349.902344 0)"/>
       <use xlink:href="#DejaVuSans-30" transform="translate(413.525391 0)"/>
      </g>
     </g>
    </g>
    <g id="text_17">
     <!-- charts/learning_rate -->
     <g transform="translate(18.787813 258.081406) rotate(-90) scale(0.1 -0.1)">
      <defs>
       <path id="DejaVuSans-63" d="M 3122 3366 
L 3122 2828 
Q 2878 2963 2633 3030 
Q 2388 3097 2138 3097 
Q 1578 3097 1268 2742 
Q 959 2388 959 1747 
Q 959 1106 1268 751 
Q 1578 397 2138 397 
Q 2388 397 2633 464 
Q 2878 531 3122 666 
L 3122 134 
Q 2881 22 2623 -34 
Q 2366 -91 2075 -91 
Q 1284 -91 818 406 
Q 353 903 353 1747 
Q 353 2603 823 3093 
Q 1294 3584 2113 3584 
Q 2378 3584 2631 3529 
Q 2884 3475 3122 3366 
z
" transform="scale(0.015625)"/>
       <path id="DejaVuSans-68" d="M 3513 2113 
L 3513 0 
L 2938 0 
L 2938 2094 
Q 2938 2591 2744 2837 
Q 2550 3084 2163 3084 
Q 1697 3084 1428 2787 
Q 1159 2491 1159 1978 
L 1159 0 
L 581 0 
L 581 4863 
L 1159 4863 
L 1159 2956 
Q 1366 3272 1645 3428 
Q 1925 3584 2291 3584 
Q 2894 3584 3203 3211 
Q 3513 2838 3513 2113 
z
" transform="scale(0.015625)"/>
       <path id="DejaVuSans-61" d="M 2194 1759 
Q 1497 1759 1228 1600 
Q 959 1441 959 1056 
Q 959 750 1161 570 
Q 1363 391 1709 391 
Q 2188 391 2477 730 
Q 2766 1069 2766 1631 
L 2766 1759 
L 2194 1759 
z
M 3341 1997 
L 3341 0 
L 2766 0 
L 2766 531 
Q 2569 213 2275 61 
Q 1981 -91 1556 -91 
Q 1019 -91 701 211 
Q 384 513 384 1019 
Q 384 1609 779 1909 
Q 1175 2209 1959 2209 
L 2766 2209 
L 2766 2266 
Q 2766 2663 2505 2880 
Q 2244 3097 1772 3097 
Q 1472 3097 1187 3025 
Q 903 2953 641 2809 
L 641 3341 
Q 956 3463 1253 3523 
Q 1550 3584 1831 3584 
Q 2591 3584 2966 3190 
Q 3341 2797 3341 1997 
z
" transform="scale(0.015625)"/>
       <path id="DejaVuSans-72" d="M 2631 2963 
Q 2534 3019 2420 3045 
Q 2306 3072 2169 3072 
Q 1681 3072 1420 2755 
Q 1159 2438 1159 1844 
L 1159 0 
L 581 0 
L 581 3500 
L 1159 3500 
L 1159 2956 
Q 1341 3275 1631 3429 
Q 1922 3584 2338 3584 
Q 2397 3584 2469 3576 
Q 2541 3569 2628 3553 
L 2631 2963 
z
" transform="scale(0.015625)"/>
       <path id="DejaVuSans-73" d="M 2834 3397 
L 2834 2853 
Q 2591 2978 2328 3040 
Q 2066 3103 1784 3103 
Q 1356 3103 1142 2972 
Q 928 2841 928 2578 
Q 928 2378 1081 2264 
Q 1234 2150 1697 2047 
L 1894 2003 
Q 2506 1872 2764 1633 
Q 3022 1394 3022 966 
Q 3022 478 2636 193 
Q 2250 -91 1575 -91 
Q 1294 -91 989 -36 
Q 684 19 347 128 
L 347 722 
Q 666 556 975 473 
Q 1284 391 1588 391 
Q 1994 391 2212 530 
Q 2431 669 2431 922 
Q 2431 1156 2273 1281 
Q 2116 1406 1581 1522 
L 1381 1569 
Q 847 1681 609 1914 
Q 372 2147 372 2553 
Q 372 3047 722 3315 
Q 1072 3584 1716 3584 
Q 2034 3584 2315 3537 
Q 2597 3491 2834 3397 
z
" transform="scale(0.015625)"/>
       <path id="DejaVuSans-2f" d="M 1625 4666 
L 2156 4666 
L 531 -594 
L 0 -594 
L 1625 4666 
z
" transform="scale(0.015625)"/>
       <path id="DejaVuSans-6c" d="M 603 4863 
L 1178 4863 
L 1178 0 
L 603 0 
L 603 4863 
z
" transform="scale(0.015625)"/>
       <path id="DejaVuSans-6e" d="M 3513 2113 
L 3513 0 
L 2938 0 
L 2938 2094 
Q 2938 2591 2744 2837 
Q 2550 3084 2163 3084 
Q 1697 3084 1428 2787 
Q 1159 2491 1159 1978 
L 1159 0 
L 581 0 
L 581 3500 
L 1159 3500 
L 1159 2956 
Q 1366 3272 1645 3428 
Q 1925 3584 2291 3584 
Q 2894 3584 3203 3211 
Q 3513 2838 3513 2113 
z
" transform="scale(0.015625)"/>
       <path id="DejaVuSans-69" d="M 603 3500 
L 1178 3500 
L 1178 0 
L 603 0 
L 603 3500 
z
M 603 4863 
L 1178 4863 
L 1178 4134 
L 603 4134 
L 603 4863 
z
" transform="scale(0.015625)"/>
       <path id="DejaVuSans-67" d="M 2906 1791 
Q 2906 2416 2648 2759 
Q 2391 3103 1925 3103 
Q 1463 3103 1205 2759 
Q 947 2416 947 1791 
Q 947 1169 1205 825 
Q 1463 481 1925 481 
Q 2391 481 2648 825 
Q 2906 1169 2906 1791 
z
M 3481 434 
Q 3481 -459 3084 -895 
Q 2688 -1331 1869 -1331 
Q 1566 -1331 1297 -1286 
Q 1028 -1241 775 -1147 
L 775 -588 
Q 1028 -725 1275 -790 
Q 1522 -856 1778 -856 
Q 2344 -856 2625 -561 
Q 2906 -266 2906 331 
L 2906 616 
Q 2728 306 2450 153 
Q 2172 0 1784 0 
Q 1141 0 747 490 
Q 353 981 353 1791 
Q 353 2603 747 3093 
Q 1141 3584 1784 3584 
Q 2172 3584 2450 3431 
Q 2728 3278 2906 2969 
L 2906 3500 
L 3481 3500 
L 3481 434 
z
" transform="scale(0.015625)"/>
       <path id="DejaVuSans-5f" d="M 3263 -1063 
L 3263 -1509 
L -63 -1509 
L -63 -1063 
L 3263 -1063 
z
" transform="scale(0.015625)"/>
      </defs>
      <use xlink:href="#DejaVuSans-63"/>
      <use xlink:href="#DejaVuSans-68" transform="translate(54.980469 0)"/>
      <use xlink:href="#DejaVuSans-61" transform="translate(118.359375 0)"/>
      <use xlink:href="#DejaVuSans-72" transform="translate(179.638672 0)"/>
      <use xlink:href="#DejaVuSans-74" transform="translate(220.751953 0)"/>
      <use xlink:href="#DejaVuSans-73" transform="translate(259.960938 0)"/>
      <use xlink:href="#DejaVuSans-2f" transform="translate(312.060547 0)"/>
      <use xlink:href="#DejaVuSans-6c" transform="translate(345.751953 0)"/>
      <use xlink:href="#DejaVuSans-65" transform="translate(373.535156 0)"/>
      <use xlink:href="#DejaVuSans-61" transform="translate(435.058594 0)"/>
      <use xlink:href="#DejaVuSans-72" transform="translate(496.337891 0)"/>
      <use xlink:href="#DejaVuSans-6e" transform="translate(535.701172 0)"/>
      <use xlink:href="#DejaVuSans-69" transform="translate(599.080078 0)"/>
      <use xlink:href="#DejaVuSans-6e" transform="translate(626.863281 0)"/>
      <use xlink:href="#DejaVuSans-67" transform="translate(690.242188 0)"/>
      <use xlink:href="#DejaVuSans-5f" transform="translate(753.71875 0)"/>
      <use xlink:href="#DejaVuSans-72" transform="translate(803.71875 0)"/>
      <use xlink:href="#DejaVuSans-61" transform="translate(844.832031 0)"/>
      <use xlink:href="#DejaVuSans-74" transform="translate(906.111328 0)"/>
      <use xlink:href="#DejaVuSans-65" transform="translate(945.320312 0)"/>
     </g>
    </g>
   </g>
   <g id="line2d_16">
    <path d="M 108.467557 42.012727 
L 110.758352 42.266422 
L 134.239004 45.494889 
L 144.547583 46.95868 
L 194.372382 53.767643 
L 198.953973 54.387592 
L 210.407949 56.018775 
L 232.743204 59.115661 
L 239.042891 59.959097 
L 257.369254 62.496516 
L 272.259424 64.492417 
L 277.413713 65.157038 
L 284.858798 66.114071 
L 292.303883 67.099013 
L 298.60357 67.979648 
L 312.348342 69.8513 
L 326.665813 71.80772 
L 340.983284 73.774729 
L 354.155357 75.535028 
L 359.882345 76.267551 
L 367.900129 77.382144 
L 381.072202 79.136205 
L 385.081094 79.680287 
L 411.997939 83.383086 
L 418.297627 84.186726 
L 434.905893 86.530857 
L 440.060182 87.296886 
L 445.787171 88.052025 
L 452.659557 88.943149 
L 458.959244 89.822258 
L 464.113533 90.493665 
L 472.131317 91.581403 
L 500.19356 95.534047 
L 509.356741 96.721072 
L 514.511031 97.440649 
L 530.546598 99.553802 
L 542.000575 101.13362 
L 606.715543 109.975744 
L 615.878725 111.184442 
L 657.68574 116.869779 
L 667.42162 118.211094 
L 674.294006 118.894527 
L 680.593693 118.905019 
L 680.593693 118.905019 
" clip-path="url(#p15c2639fd4)" style="fill: none; stroke: #ff8c00; stroke-width: 1.5; stroke-linecap: square"/>
   </g>
   <g id="patch_3">
    <path d="M 79.86125 390.04 
L 79.86125 25.44 
" style="fill: none; stroke: #000000; stroke-width: 0.8; stroke-linejoin: miter; stroke-linecap: square"/>
   </g>
   <g id="patch_4">
    <path d="M 709.2 390.04 
L 709.2 25.44 
" style="fill: none; stroke: #000000; stroke-width: 0.8; stroke-linejoin: miter; stroke-linecap: square"/>
   </g>
   <g id="patch_5">
    <path d="M 79.86125 390.04 
L 709.2 390.04 
" style="fill: none; stroke: #000000; stroke-width: 0.8; stroke-linejoin: miter; stroke-linecap: square"/>
   </g>
   <g id="patch_6">
    <path d="M 79.86125 25.44 
L 709.2 25.44 
" style="fill: none; stroke: #000000; stroke-width: 0.8; stroke-linejoin: miter; stroke-linecap: square"/>
   </g>
   <g id="text_18">
    <!-- charts/learning_rate for reinforce_atari (aggregated via interpolation over runs) -->
    <g transform="translate(155.975313 19.44) scale(0.12 -0.12)">
     <defs>
      <path id="DejaVuSans-20" transform="scale(0.015625)"/>
      <path id="DejaVuSans-66" d="M 2375 4863 
L 2375 4384 
L 1825 4384 
Q 1516 4384 1395 4259 
Q 1275 4134 1275 3809 
L 1275 3500 
L 2222 3500 
L 2222 3053 
L 1275 3053 
L 1275 0 
L 697 0 
L 697 3053 
L 147 3053 
L 147 3500 
L 697 3500 
L 697 3744 
Q 697 4328 969 4595 
Q 1241 4863 1831 4863 
L 2375 4863 
z
" transform="scale(0.015625)"/>
      <path id="DejaVuSans-6f" d="M 1959 3097 
Q 1497 3097 1228 2736 
Q 959 2375 959 1747 
Q 959 1119 1226 758 
Q 1494 397 1959 397 
Q 2419 397 2687 759 
Q 2956 1122 2956 1747 
Q 2956 2369 2687 2733 
Q 2419 3097 1959 3097 
z
M 1959 3584 
Q 2709 3584 3137 3096 
Q 3566 2609 3566 1747 
Q 3566 888 3137 398 
Q 2709 -91 1959 -91 
Q 1206 -91 779 398 
Q 353 888 353 1747 
Q 353 2609 779 3096 
Q 1206 3584 1959 3584 
z
" transform="scale(0.015625)"/>
      <path id="DejaVuSans-28" d="M 1984 4856 
Q 1566 4138 1362 3434 
Q 1159 2731 1159 2009 
Q 1159 1288 1364 580 
Q 1569 -128 1984 -844 
L 1484 -844 
Q 1016 -109 783 600 
Q 550 1309 550 2009 
Q 550 2706 781 3412 
Q 1013 4119 1484 4856 
L 1984 4856 
z
" transform="scale(0.015625)"/>
      <path id="DejaVuSans-64" d="M 2906 2969 
L 2906 4863 
L 3481 4863 
L 3481 0 
L 2906 0 
L 2906 525 
Q 2725 213 2448 61 
Q 2172 -91 1784 -91 
Q 1150 -91 751 415 
Q 353 922 353 1747 
Q 353 2572 751 3078 
Q 1150 3584 1784 3584 
Q 2172 3584 2448 3432 
Q 2725 3281 2906 2969 
z
M 947 1747 
Q 947 1113 1208 752 
Q 1469 391 1925 391 
Q 2381 391 2643 752 
Q 2906 1113 2906 1747 
Q 2906 2381 2643 2742 
Q 2381 3103 1925 3103 
Q 1469 3103 1208 2742 
Q 947 2381 947 1747 
z
" transform="scale(0.015625)"/>
      <path id="DejaVuSans-76" d="M 191 3500 
L 800 3500 
L 1894 563 
L 2988 3500 
L 3597 3500 
L 2284 0 
L 1503 0 
L 191 3500 
z
" transform="scale(0.015625)"/>
      <path id="DejaVuSans-75" d="M 544 1381 
L 544 3500 
L 1119 3500 
L 1119 1403 
Q 1119 906 1312 657 
Q 1506 409 1894 409 
Q 2359 409 2629 706 
Q 2900 1003 2900 1516 
L 2900 3500 
L 3475 3500 
L 3475 0 
L 2900 0 
L 2900 538 
Q 2691 219 2414 64 
Q 2138 -91 1772 -91 
Q 1169 -91 856 284 
Q 544 659 544 1381 
z
M 1991 3584 
L 1991 3584 
z
" transform="scale(0.015625)"/>
      <path id="DejaVuSans-29" d="M 513 4856 
L 1013 4856 
Q 1481 4119 1714 3412 
Q 1947 2706 1947 2009 
Q 1947 1309 1714 600 
Q 1481 -109 1013 -844 
L 513 -844 
Q 928 -128 1133 580 
Q 1338 1288 1338 2009 
Q 1338 2731 1133 3434 
Q 928 4138 513 4856 
z
" transform="scale(0.015625)"/>
     </defs>
     <use xlink:href="#DejaVuSans-63"/>
     <use xlink:href="#DejaVuSans-68" transform="translate(54.980469 0)"/>
     <use xlink:href="#DejaVuSans-61" transform="translate(118.359375 0)"/>
     <use xlink:href="#DejaVuSans-72" transform="translate(179.638672 0)"/>
     <use xlink:href="#DejaVuSans-74" transform="translate(220.751953 0)"/>
     <use xlink:href="#DejaVuSans-73" transform="translate(259.960938 0)"/>
     <use xlink:href="#DejaVuSans-2f" transform="translate(312.060547 0)"/>
     <use xlink:href="#DejaVuSans-6c" transform="translate(345.751953 0)"/>
     <use xlink:href="#DejaVuSans-65" transform="translate(373.535156 0)"/>
     <use xlink:href="#DejaVuSans-61" transform="translate(435.058594 0)"/>
     <use xlink:href="#DejaVuSans-72" transform="translate(496.337891 0)"/>
     <use xlink:href="#DejaVuSans-6e" transform="translate(535.701172 0)"/>
     <use xlink:href="#DejaVuSans-69" transform="translate(599.080078 0)"/>
     <use xlink:href="#DejaVuSans-6e" transform="translate(626.863281 0)"/>
     <use xlink:href="#DejaVuSans-67" transform="translate(690.242188 0)"/>
     <use xlink:href="#DejaVuSans-5f" transform="translate(753.71875 0)"/>
     <use xlink:href="#DejaVuSans-72" transform="translate(803.71875 0)"/>
     <use xlink:href="#DejaVuSans-61" transform="translate(844.832031 0)"/>
     <use xlink:href="#DejaVuSans-74" transform="translate(906.111328 0)"/>
     <use xlink:href="#DejaVuSans-65" transform="translate(945.320312 0)"/>
     <use xlink:href="#DejaVuSans-20" transform="translate(1006.84375 0)"/>
     <use xlink:href="#DejaVuSans-66" transform="translate(1038.630859 0)"/>
     <use xlink:href="#DejaVuSans-6f" transform="translate(1073.835938 0)"/>
     <use xlink:href="#DejaVuSans-72" transform="translate(1135.017578 0)"/>
     <use xlink:href="#DejaVuSans-20" transform="translate(1176.130859 0)"/>
     <use xlink:href="#DejaVuSans-72" transform="translate(1207.917969 0)"/>
     <use xlink:href="#DejaVuSans-65" transform="translate(1246.78125 0)"/>
     <use xlink:href="#DejaVuSans-69" transform="translate(1308.304688 0)"/>
     <use xlink:href="#DejaVuSans-6e" transform="translate(1336.087891 0)"/>
     <use xlink:href="#DejaVuSans-66" transform="translate(1399.466797 0)"/>
     <use xlink:href="#DejaVuSans-6f" transform="translate(1434.671875 0)"/>
     <use xlink:href="#DejaVuSans-72" transform="translate(1495.853516 0)"/>
     <use xlink:href="#DejaVuSans-63" transform="translate(1534.716797 0)"/>
     <use xlink:href="#DejaVuSans-65" transform="translate(1589.697266 0)"/>
     <use xlink:href="#DejaVuSans-5f" transform="translate(1651.220703 0)"/>
     <use xlink:href="#DejaVuSans-61" transform="translate(1701.220703 0)"/>
     <use xlink:href="#DejaVuSans-74" transform="translate(1762.5 0)"/>
     <use xlink:href="#DejaVuSans-61" transform="translate(1801.708984 0)"/>
     <use xlink:href="#DejaVuSans-72" transform="translate(1862.988281 0)"/>
     <use xlink:href="#DejaVuSans-69" transform="translate(1904.101562 0)"/>
     <use xlink:href="#DejaVuSans-20" transform="translate(1931.884766 0)"/>
     <use xlink:href="#DejaVuSans-28" transform="translate(1963.671875 0)"/>
     <use xlink:href="#DejaVuSans-61" transform="translate(2002.685547 0)"/>
     <use xlink:href="#DejaVuSans-67" transform="translate(2063.964844 0)"/>
     <use xlink:href="#DejaVuSans-67" transform="translate(2127.441406 0)"/>
     <use xlink:href="#DejaVuSans-72" transform="translate(2190.917969 0)"/>
     <use xlink:href="#DejaVuSans-65" transform="translate(2229.78125 0)"/>
     <use xlink:href="#DejaVuSans-67" transform="translate(2291.304688 0)"/>
     <use xlink:href="#DejaVuSans-61" transform="translate(2354.78125 0)"/>
     <use xlink:href="#DejaVuSans-74" transform="translate(2416.060547 0)"/>
     <use xlink:href="#DejaVuSans-65" transform="translate(2455.269531 0)"/>
     <use xlink:href="#DejaVuSans-64" transform="translate(2516.792969 0)"/>
     <use xlink:href="#DejaVuSans-20" transform="translate(2580.269531 0)"/>
     <use xlink:href="#DejaVuSans-76" transform="translate(2612.056641 0)"/>
     <use xlink:href="#DejaVuSans-69" transform="translate(2671.236328 0)"/>
     <use xlink:href="#DejaVuSans-61" transform="translate(2699.019531 0)"/>
     <use xlink:href="#DejaVuSans-20" transform="translate(2760.298828 0)"/>
     <use xlink:href="#DejaVuSans-69" transform="translate(2792.085938 0)"/>
     <use xlink:href="#DejaVuSans-6e" transform="translate(2819.869141 0)"/>
     <use xlink:href="#DejaVuSans-74" transform="translate(2883.248047 0)"/>
     <use xlink:href="#DejaVuSans-65" transform="translate(2922.457031 0)"/>
     <use xlink:href="#DejaVuSans-72" transform="translate(2983.980469 0)"/>
     <use xlink:href="#DejaVuSans-70" transform="translate(3025.09375 0)"/>
     <use xlink:href="#DejaVuSans-6f" transform="translate(3088.570312 0)"/>
     <use xlink:href="#DejaVuSans-6c" transform="translate(3149.751953 0)"/>
     <use xlink:href="#DejaVuSans-61" transform="translate(3177.535156 0)"/>
     <use xlink:href="#DejaVuSans-74" transform="translate(3238.814453 0)"/>
     <use xlink:href="#DejaVuSans-69" transform="translate(3278.023438 0)"/>
     <use xlink:href="#DejaVuSans-6f" transform="translate(3305.806641 0)"/>
     <use xlink:href="#DejaVuSans-6e" transform="translate(3366.988281 0)"/>
     <use xlink:href="#DejaVuSans-20" transform="translate(3430.367188 0)"/>
     <use xlink:href="#DejaVuSans-6f" transform="translate(3462.154297 0)"/>
     <use xlink:href="#DejaVuSans-76" transform="translate(3523.335938 0)"/>
     <use xlink:href="#DejaVuSans-65" transform="translate(3582.515625 0)"/>
     <use xlink:href="#DejaVuSans-72" transform="translate(3644.039062 0)"/>
     <use xlink:href="#DejaVuSans-20" transform="translate(3685.152344 0)"/>
     <use xlink:href="#DejaVuSans-72" transform="translate(3716.939453 0)"/>
     <use xlink:href="#DejaVuSans-75" transform="translate(3758.052734 0)"/>
     <use xlink:href="#DejaVuSans-6e" transform="translate(3821.431641 0)"/>
     <use xlink:href="#DejaVuSans-73" transform="translate(3884.810547 0)"/>
     <use xlink:href="#DejaVuSans-29" transform="translate(3936.910156 0)"/>
    </g>
   </g>
   <g id="legend_1">
    <g id="patch_7">
     <path d="M 86.86125 385.04 
L 162.28 385.04 
Q 164.28 385.04 164.28 383.04 
L 164.28 354.68375 
Q 164.28 352.68375 162.28 352.68375 
L 86.86125 352.68375 
Q 84.86125 352.68375 84.86125 354.68375 
L 84.86125 383.04 
Q 84.86125 385.04 86.86125 385.04 
z
" style="fill: #ffffff; opacity: 0.8; stroke: #cccccc; stroke-linejoin: miter"/>
    </g>
    <g id="line2d_17">
     <path d="M 88.86125 360.782187 
L 98.86125 360.782187 
L 108.86125 360.782187 
" style="fill: none; stroke: #ff8c00; stroke-width: 1.5; stroke-linecap: square"/>
    </g>
    <g id="text_19">
     <!-- Mean -->
     <g transform="translate(116.86125 364.282187) scale(0.1 -0.1)">
      <defs>
       <path id="DejaVuSans-4d" d="M 628 4666 
L 1569 4666 
L 2759 1491 
L 3956 4666 
L 4897 4666 
L 4897 0 
L 4281 0 
L 4281 4097 
L 3078 897 
L 2444 897 
L 1241 4097 
L 1241 0 
L 628 0 
L 628 4666 
z
" transform="scale(0.015625)"/>
      </defs>
      <use xlink:href="#DejaVuSans-4d"/>
      <use xlink:href="#DejaVuSans-65" transform="translate(86.279297 0)"/>
      <use xlink:href="#DejaVuSans-61" transform="translate(147.802734 0)"/>
      <use xlink:href="#DejaVuSans-6e" transform="translate(209.082031 0)"/>
     </g>
    </g>
    <g id="patch_8">
     <path d="M 88.86125 378.960312 
L 108.86125 378.960312 
L 108.86125 371.960312 
L 88.86125 371.960312 
z
" style="fill: #ff8c00; fill-opacity: 0.3; stroke: #ff8c00; stroke-opacity: 0.3; stroke-linejoin: miter"/>
    </g>
    <g id="text_20">
     <!-- MinMax -->
     <g transform="translate(116.86125 378.960312) scale(0.1 -0.1)">
      <defs>
       <path id="DejaVuSans-2013" d="M 313 1978 
L 2888 1978 
L 2888 1528 
L 313 1528 
L 313 1978 
z
" transform="scale(0.015625)"/>
       <path id="DejaVuSans-78" d="M 3513 3500 
L 2247 1797 
L 3578 0 
L 2900 0 
L 1881 1375 
L 863 0 
L 184 0 
L 1544 1831 
L 300 3500 
L 978 3500 
L 1906 2253 
L 2834 3500 
L 3513 3500 
z
" transform="scale(0.015625)"/>
      </defs>
      <use xlink:href="#DejaVuSans-4d"/>
      <use xlink:href="#DejaVuSans-69" transform="translate(86.279297 0)"/>
      <use xlink:href="#DejaVuSans-6e" transform="translate(114.0625 0)"/>
      <use xlink:href="#DejaVuSans-2013" transform="translate(177.441406 0)"/>
      <use xlink:href="#DejaVuSans-4d" transform="translate(227.441406 0)"/>
      <use xlink:href="#DejaVuSans-61" transform="translate(313.720703 0)"/>
      <use xlink:href="#DejaVuSans-78" transform="translate(375 0)"/>
     </g>
    </g>
   </g>
  </g>
 </g>
 <defs>
  <clipPath id="p15c2639fd4">
   <rect x="79.86125" y="25.44" width="629.33875" height="364.6"/>
  </clipPath>
 </defs>
</svg>
