<?xml version="1.0" encoding="utf-8" standalone="no"?>
<!DOCTYPE svg PUBLIC "-//W3C//DTD SVG 1.1//EN"
  "http://www.w3.org/Graphics/SVG/1.1/DTD/svg11.dtd">
<svg xmlns:xlink="http://www.w3.org/1999/xlink" width="720pt" height="432pt" viewBox="0 0 720 432" xmlns="http://www.w3.org/2000/svg" version="1.1">
 <metadata>
  <rdf:RDF xmlns:dc="http://purl.org/dc/elements/1.1/" xmlns:cc="http://creativecommons.org/ns#" xmlns:rdf="http://www.w3.org/1999/02/22-rdf-syntax-ns#">
   <cc:Work>
    <dc:type rdf:resource="http://purl.org/dc/dcmitype/StillImage"/>
    <dc:date>2025-02-05T20:31:54.072829</dc:date>
    <dc:format>image/svg+xml</dc:format>
    <dc:creator>
     <cc:Agent>
      <dc:title>Matplotlib v3.10.0, https://matplotlib.org/</dc:title>
     </cc:Agent>
    </dc:creator>
   </cc:Work>
  </rdf:RDF>
 </metadata>
 <defs>
  <style type="text/css">*{stroke-linejoin: round; stroke-linecap: butt}</style>
 </defs>
 <g id="figure_1">
  <g id="patch_1">
   <path d="M 0 432 
L 720 432 
L 720 0 
L 0 0 
z
" style="fill: #ffffff"/>
  </g>
  <g id="axes_1">
   <g id="patch_2">
    <path d="M 56.18 390.04 
L 709.2 390.04 
L 709.2 25.44 
L 56.18 25.44 
z
" style="fill: #ffffff"/>
   </g>
   <g id="FillBetweenPolyCollection_1">
    <defs>
     <path id="m03eac25fb7" d="M 85.862727 -333.397905 
L 85.862727 -147.397749 
L 86.456976 -147.397749 
L 87.051225 -147.397749 
L 87.645474 -147.397749 
L 88.239722 -147.397749 
L 88.833971 -147.397749 
L 89.42822 -147.397749 
L 90.022469 -147.397749 
L 90.616718 -147.397749 
L 91.210966 -149.934336 
L 91.805215 -159.163284 
L 92.399464 -168.392231 
L 92.993713 -177.621179 
L 93.587962 -186.850127 
L 94.18221 -190.35511 
L 94.776459 -190.35511 
L 95.370708 -190.35511 
L 95.964957 -190.35511 
L 96.559206 -191.435274 
L 97.153454 -192.921132 
L 97.747703 -194.40699 
L 98.341952 -187.996269 
L 98.936201 -179.288201 
L 99.53045 -170.580132 
L 100.124698 -161.872063 
L 100.718947 -153.163995 
L 101.313196 -144.455926 
L 101.907445 -140.982358 
L 102.501694 -141.48168 
L 103.095942 -141.981001 
L 103.690191 -142.480323 
L 104.28444 -142.979645 
L 104.878689 -143.478967 
L 105.472937 -143.978289 
L 106.067186 -144.477611 
L 106.661435 -145.141536 
L 107.255684 -147.997015 
L 107.849933 -150.852494 
L 108.444181 -153.707973 
L 109.03843 -156.563451 
L 109.632679 -159.41893 
L 110.226928 -162.274409 
L 110.821177 -165.129888 
L 111.415425 -167.985366 
L 112.009674 -169.219103 
L 112.603923 -164.815354 
L 113.198172 -158.407422 
L 113.792421 -151.99949 
L 114.386669 -145.591559 
L 114.980918 -143.814206 
L 115.575167 -145.412419 
L 116.169416 -147.010632 
L 116.763665 -145.195023 
L 117.357913 -136.461069 
L 117.952162 -138.666637 
L 118.546411 -141.44902 
L 119.14066 -144.231403 
L 119.734909 -147.013786 
L 120.329157 -149.79617 
L 120.923406 -152.578553 
L 121.517655 -155.360936 
L 122.111904 -158.143319 
L 122.706153 -160.925702 
L 123.300401 -164.463202 
L 123.89465 -169.19326 
L 124.488899 -173.923318 
L 125.083148 -178.653376 
L 125.677396 -182.71626 
L 126.271645 -180.780946 
L 126.865894 -178.845631 
L 127.460143 -177.322613 
L 128.054392 -179.129358 
L 128.64864 -159.050712 
L 129.242889 -139.684613 
L 129.837138 -132.759404 
L 130.431387 -125.834196 
L 131.025636 -118.032855 
L 131.619884 -102.82173 
L 132.214133 -87.610604 
L 132.808382 -93.414637 
L 133.402631 -91.208153 
L 133.99688 -84.282944 
L 134.591128 -79.990869 
L 135.185377 -89.043381 
L 135.779626 -98.095894 
L 136.373875 -107.148406 
L 136.968124 -116.200919 
L 137.562372 -125.253432 
L 138.156621 -134.305944 
L 138.75087 -131.954285 
L 139.345119 -127.94829 
L 139.939368 -123.942295 
L 140.533616 -119.9363 
L 141.127865 -115.930305 
L 141.722114 -111.92431 
L 142.316363 -107.918315 
L 142.910612 -107.632034 
L 143.50486 -115.665946 
L 144.099109 -123.699857 
L 144.693358 -131.733768 
L 145.287607 -139.767679 
L 145.881855 -147.80159 
L 146.476104 -155.835501 
L 147.070353 -163.869413 
L 147.664602 -171.903324 
L 148.258851 -167.537678 
L 148.853099 -156.794435 
L 149.447348 -146.051192 
L 150.041597 -144.766 
L 150.635846 -149.287212 
L 151.230095 -153.808423 
L 151.824343 -155.715365 
L 152.418592 -157.187485 
L 153.012841 -158.659605 
L 153.60709 -160.131725 
L 154.201339 -161.603845 
L 154.795587 -163.075965 
L 155.389836 -164.548085 
L 155.984085 -166.020205 
L 156.578334 -167.492325 
L 157.172583 -169.636946 
L 157.766831 -173.68939 
L 158.36108 -177.460648 
L 158.955329 -178.457403 
L 159.549578 -179.454159 
L 160.143827 -180.450914 
L 160.738075 -181.447669 
L 161.332324 -182.444424 
L 161.926573 -183.44118 
L 162.520822 -181.422576 
L 163.115071 -173.990211 
L 163.709319 -164.854464 
L 164.303568 -155.718717 
L 164.897817 -146.582969 
L 165.492066 -137.447222 
L 166.086314 -128.311474 
L 166.680563 -121.989362 
L 167.274812 -140.880555 
L 167.869061 -159.771748 
L 168.46331 -176.471616 
L 169.057558 -186.888015 
L 169.651807 -187.625768 
L 170.246056 -188.36352 
L 170.840305 -188.524538 
L 171.434554 -186.871089 
L 172.028802 -185.21764 
L 172.623051 -186.958573 
L 173.2173 -189.107504 
L 173.811549 -188.203565 
L 174.405798 -185.144407 
L 175.000046 -182.08525 
L 175.594295 -179.026092 
L 176.188544 -175.966935 
L 176.782793 -172.907777 
L 177.377042 -157.165373 
L 177.97129 -138.578288 
L 178.565539 -119.991203 
L 179.159788 -101.404117 
L 179.754037 -105.625916 
L 180.348286 -119.570632 
L 180.942534 -133.515349 
L 181.536783 -146.517499 
L 182.131032 -138.144645 
L 182.725281 -129.77179 
L 183.31953 -130.125468 
L 183.913778 -146.050759 
L 184.508027 -161.97605 
L 185.102276 -177.901342 
L 185.696525 -193.826633 
L 186.290774 -200.798553 
L 186.885022 -200.429263 
L 187.479271 -200.059972 
L 188.07352 -199.690681 
L 188.667769 -199.32139 
L 189.262017 -198.952099 
L 189.856266 -198.598192 
L 190.450515 -198.861211 
L 191.044764 -199.124231 
L 191.639013 -198.205121 
L 192.233261 -192.407308 
L 192.82751 -192.122149 
L 193.421759 -186.869407 
L 194.016008 -181.616666 
L 194.610257 -177.462692 
L 195.204505 -184.838926 
L 195.798754 -192.215161 
L 196.393003 -199.591395 
L 196.987252 -201.754424 
L 197.581501 -202.017444 
L 198.175749 -201.623118 
L 198.769998 -199.831779 
L 199.364247 -202.806502 
L 199.958496 -203.069521 
L 200.552745 -202.65094 
L 201.146993 -201.59032 
L 201.741242 -200.5297 
L 202.335491 -199.469079 
L 202.92974 -198.408459 
L 203.523989 -197.347839 
L 204.118237 -196.287219 
L 204.712486 -195.226598 
L 205.306735 -194.165978 
L 205.900984 -192.129333 
L 206.495233 -188.286646 
L 207.089481 -184.443958 
L 207.68373 -180.601271 
L 208.277979 -176.758583 
L 208.872228 -172.915896 
L 209.466476 -169.073208 
L 210.060725 -165.230521 
L 210.654974 -161.387833 
L 211.249223 -157.545146 
L 211.843472 -162.027075 
L 212.43772 -157.86293 
L 213.031969 -153.698784 
L 213.626218 -149.534638 
L 214.220467 -138.600317 
L 214.814716 -124.534068 
L 215.408964 -110.467818 
L 216.003213 -96.401569 
L 216.597462 -82.33532 
L 217.191711 -68.269071 
L 217.78596 -80.225167 
L 218.380208 -92.820443 
L 218.974457 -105.415718 
L 219.568706 -118.010994 
L 220.162955 -130.606269 
L 220.757204 -143.201545 
L 221.351452 -155.79682 
L 221.945701 -168.392096 
L 222.53995 -180.987371 
L 223.134199 -190.044617 
L 223.728448 -174.826345 
L 224.322696 -159.608073 
L 224.916945 -144.389801 
L 225.511194 -129.171529 
L 226.105443 -114.735457 
L 226.699692 -116.243453 
L 227.29394 -117.751448 
L 227.888189 -119.259444 
L 228.482438 -120.76744 
L 229.076687 -122.275436 
L 229.670935 -123.783432 
L 230.265184 -125.291428 
L 230.859433 -126.799423 
L 231.453682 -129.459705 
L 232.047931 -132.203821 
L 232.642179 -134.947937 
L 233.236428 -137.692054 
L 233.830677 -140.43617 
L 234.424926 -143.180286 
L 235.019175 -145.924402 
L 235.613423 -148.668518 
L 236.207672 -151.412634 
L 236.801921 -158.066048 
L 237.39617 -165.098572 
L 237.990419 -172.131096 
L 238.584667 -179.16362 
L 239.178916 -184.633244 
L 239.773165 -185.504638 
L 240.367414 -186.376033 
L 240.961663 -187.247427 
L 241.555911 -185.745519 
L 242.15016 -182.418316 
L 242.744409 -179.091113 
L 243.338658 -175.763909 
L 243.932907 -168.189246 
L 244.527155 -157.440382 
L 245.121404 -146.691518 
L 245.715653 -135.942655 
L 246.309902 -125.193791 
L 246.904151 -114.444927 
L 247.498399 -103.696063 
L 248.092648 -92.947199 
L 248.686897 -95.768077 
L 249.281146 -114.665562 
L 249.875394 -133.563046 
L 250.469643 -152.460531 
L 251.063892 -171.358015 
L 251.658141 -190.2555 
L 252.25239 -203.826318 
L 252.846638 -203.727357 
L 253.440887 -203.636232 
L 254.035136 -203.545107 
L 254.629385 -203.453981 
L 255.223634 -203.362856 
L 255.817882 -203.271731 
L 256.412131 -192.912281 
L 257.00638 -181.559628 
L 257.600629 -170.206975 
L 258.194878 -158.854321 
L 258.789126 -147.501668 
L 259.383375 -152.318886 
L 259.977624 -163.367243 
L 260.571873 -174.415601 
L 261.166122 -185.463958 
L 261.76037 -192.204023 
L 262.354619 -191.047994 
L 262.948868 -188.446366 
L 263.543117 -193.079322 
L 264.137366 -196.927801 
L 264.731614 -194.198064 
L 265.325863 -191.468327 
L 265.920112 -188.73859 
L 266.514361 -186.008853 
L 267.10861 -183.279115 
L 267.702858 -180.549378 
L 268.297107 -177.819641 
L 268.891356 -175.089904 
L 269.485605 -172.360167 
L 270.079853 -169.63043 
L 270.674102 -166.900693 
L 271.268351 -164.170955 
L 271.8626 -161.441218 
L 272.456849 -158.711481 
L 273.051097 -155.981744 
L 273.645346 -157.502849 
L 274.239595 -160.575508 
L 274.833844 -163.648166 
L 275.428093 -166.720824 
L 276.022341 -169.793483 
L 276.61659 -172.866141 
L 277.210839 -172.492345 
L 277.805088 -170.522483 
L 278.399337 -168.552622 
L 278.993585 -166.444907 
L 279.587834 -160.236069 
L 280.182083 -154.027231 
L 280.776332 -147.818393 
L 281.370581 -141.609555 
L 281.964829 -135.400718 
L 282.559078 -129.19188 
L 283.153327 -122.983042 
L 283.747576 -116.774204 
L 284.341825 -110.565366 
L 284.936073 -124.620509 
L 285.530322 -135.311519 
L 286.124571 -132.03987 
L 286.71882 -128.768222 
L 287.313069 -132.901865 
L 287.907317 -141.969814 
L 288.501566 -151.037764 
L 289.095815 -160.105714 
L 289.690064 -169.173664 
L 290.284312 -178.241614 
L 290.878561 -177.08877 
L 291.47281 -164.763942 
L 292.067059 -152.439113 
L 292.661308 -150.845752 
L 293.255556 -160.381223 
L 293.849805 -169.916694 
L 294.444054 -163.801086 
L 295.038303 -145.984864 
L 295.632552 -128.168642 
L 296.2268 -119.846678 
L 296.821049 -132.043091 
L 297.415298 -144.239504 
L 298.009547 -156.435918 
L 298.603796 -168.632331 
L 299.198044 -180.828744 
L 299.792293 -193.025157 
L 300.386542 -201.160582 
L 300.980791 -198.704167 
L 301.57504 -196.247751 
L 302.169288 -183.206218 
L 302.763537 -170.153499 
L 303.357786 -162.849713 
L 303.952035 -169.472931 
L 304.546284 -176.096149 
L 305.140532 -182.719367 
L 305.734781 -186.805385 
L 306.32903 -188.064945 
L 306.923279 -188.111697 
L 307.517528 -185.232843 
L 308.111776 -182.356936 
L 308.706025 -188.269764 
L 309.300274 -189.738904 
L 309.894523 -187.719661 
L 310.488771 -185.700418 
L 311.08302 -174.572772 
L 311.677269 -161.916842 
L 312.271518 -149.260911 
L 312.865767 -136.60498 
L 313.460015 -123.949049 
L 314.054264 -111.293119 
L 314.648513 -103.548035 
L 315.242762 -120.165574 
L 315.837011 -136.783113 
L 316.431259 -153.400652 
L 317.025508 -170.018192 
L 317.619757 -180.208516 
L 318.214006 -174.080556 
L 318.808255 -167.952596 
L 319.402503 -168.642596 
L 319.996752 -177.121011 
L 320.591001 -185.599427 
L 321.18525 -188.035779 
L 321.779499 -181.21437 
L 322.373747 -174.392961 
L 322.967996 -167.571552 
L 323.562245 -160.750143 
L 324.156494 -156.177852 
L 324.750743 -158.755467 
L 325.344991 -140.733896 
L 325.93924 -122.712324 
L 326.533489 -104.690753 
L 327.127738 -87.35795 
L 327.721987 -97.408456 
L 328.316235 -107.458962 
L 328.910484 -117.509468 
L 329.504733 -127.559974 
L 330.098982 -137.61048 
L 330.693231 -147.660986 
L 331.287479 -157.711492 
L 331.881728 -167.761997 
L 332.475977 -174.845918 
L 333.070226 -175.372113 
L 333.664474 -159.742403 
L 334.258723 -144.752876 
L 334.852972 -150.52109 
L 335.447221 -156.289304 
L 336.04147 -162.057518 
L 336.635718 -167.825732 
L 337.229967 -173.593946 
L 337.824216 -179.362161 
L 338.418465 -185.130375 
L 339.012714 -190.898589 
L 339.606962 -192.321513 
L 340.201211 -191.990132 
L 340.79546 -191.65875 
L 341.389709 -191.327369 
L 341.983958 -190.995988 
L 342.578206 -190.664607 
L 343.172455 -190.333225 
L 343.766704 -190.001844 
L 344.360953 -189.670463 
L 344.955202 -189.165839 
L 345.54945 -187.669966 
L 346.143699 -186.207862 
L 346.737948 -188.32553 
L 347.332197 -180.006052 
L 347.926446 -166.967568 
L 348.520694 -176.476366 
L 349.114943 -185.985165 
L 349.709192 -181.919288 
L 350.303441 -176.661461 
L 350.89769 -171.403634 
L 351.491938 -166.145806 
L 352.086187 -160.887979 
L 352.680436 -155.630152 
L 353.274685 -150.372325 
L 353.868933 -151.925112 
L 354.463182 -157.637719 
L 355.057431 -163.350326 
L 355.65168 -169.062933 
L 356.245929 -158.680586 
L 356.840177 -143.977147 
L 357.434426 -129.273708 
L 358.028675 -123.634014 
L 358.622924 -125.707558 
L 359.217173 -127.781101 
L 359.811421 -129.854644 
L 360.40567 -131.928188 
L 360.999919 -134.001731 
L 361.594168 -136.075275 
L 362.188417 -138.148818 
L 362.782665 -133.54241 
L 363.376914 -120.57244 
L 363.971163 -123.640914 
L 364.565412 -126.709388 
L 365.159661 -129.777863 
L 365.753909 -132.846337 
L 366.348158 -135.914812 
L 366.942407 -138.983286 
L 367.536656 -142.051761 
L 368.130905 -145.348595 
L 368.725153 -155.815883 
L 369.319402 -166.283171 
L 369.913651 -176.750459 
L 370.5079 -187.217746 
L 371.102149 -195.999297 
L 371.696397 -194.841392 
L 372.290646 -193.683487 
L 372.884895 -188.311211 
L 373.479144 -173.033631 
L 374.073392 -157.756052 
L 374.667641 -142.478473 
L 375.26189 -127.200894 
L 375.856139 -111.923315 
L 376.450388 -99.427855 
L 377.044636 -110.377328 
L 377.638885 -121.326801 
L 378.233134 -132.276274 
L 378.827383 -143.225746 
L 379.421632 -154.175219 
L 380.01588 -165.124692 
L 380.610129 -176.074164 
L 381.204378 -186.793887 
L 381.798627 -186.821698 
L 382.392876 -186.84951 
L 382.987124 -186.877322 
L 383.581373 -186.905133 
L 384.175622 -186.932945 
L 384.769871 -185.620654 
L 385.36412 -183.768954 
L 385.958368 -182.382923 
L 386.552617 -183.420956 
L 387.146866 -172.329761 
L 387.741115 -161.238566 
L 388.335364 -160.397723 
L 388.929612 -169.843671 
L 389.523861 -179.28962 
L 390.11811 -186.32049 
L 390.712359 -186.339031 
L 391.306608 -186.357572 
L 391.900856 -186.376113 
L 392.495105 -186.394654 
L 393.089354 -186.413195 
L 393.683603 -182.653291 
L 394.277851 -178.474282 
L 394.8721 -174.295272 
L 395.466349 -170.116263 
L 396.060598 -165.937254 
L 396.654847 -161.758244 
L 397.249095 -157.579235 
L 397.843344 -153.400225 
L 398.437593 -150.932767 
L 399.031842 -139.874131 
L 399.626091 -152.811258 
L 400.220339 -153.750504 
L 400.814588 -154.529913 
L 401.408837 -147.059863 
L 402.003086 -139.589813 
L 402.597335 -147.64624 
L 403.191583 -145.859907 
L 403.785832 -140.51819 
L 404.380081 -135.176474 
L 404.97433 -139.667764 
L 405.568579 -149.937834 
L 406.162827 -160.207904 
L 406.757076 -164.082209 
L 407.351325 -165.021455 
L 407.945574 -165.9607 
L 408.539823 -166.899946 
L 409.134071 -168.614103 
L 409.72832 -170.527499 
L 410.322569 -172.440895 
L 410.916818 -174.354291 
L 411.511067 -176.267687 
L 412.105315 -178.181083 
L 412.699564 -180.094479 
L 413.293813 -182.007876 
L 413.888062 -180.3231 
L 414.48231 -178.226047 
L 415.076559 -176.128993 
L 415.670808 -174.03194 
L 416.265057 -171.934887 
L 416.859306 -169.10797 
L 417.453554 -163.299886 
L 418.047803 -157.491803 
L 418.642052 -151.683719 
L 419.236301 -145.875635 
L 419.83055 -140.067551 
L 420.424798 -135.038665 
L 421.019047 -130.44522 
L 421.613296 -125.851774 
L 422.207545 -121.258328 
L 422.801794 -116.664882 
L 423.396042 -112.071436 
L 423.990291 -107.477991 
L 424.58454 -102.884545 
L 425.178789 -114.23482 
L 425.773038 -135.964018 
L 426.367286 -152.676095 
L 426.961535 -151.907836 
L 427.555784 -151.139577 
L 428.150033 -150.371319 
L 428.744282 -149.60306 
L 429.33853 -148.834801 
L 429.932779 -151.770639 
L 430.527028 -155.711664 
L 431.121277 -159.652689 
L 431.715526 -163.593714 
L 432.309774 -167.534739 
L 432.904023 -171.475764 
L 433.498272 -175.416788 
L 434.092521 -179.357813 
L 434.686769 -180.532161 
L 435.281018 -164.476909 
L 435.875267 -147.383106 
L 436.469516 -147.21395 
L 437.063765 -147.68007 
L 437.658013 -148.14619 
L 438.252262 -148.61231 
L 438.846511 -149.078429 
L 439.44076 -149.544549 
L 440.035009 -150.010669 
L 440.629257 -150.476789 
L 441.223506 -150.942909 
L 441.817755 -155.353471 
L 442.412004 -167.013572 
L 443.006253 -178.673673 
L 443.600501 -190.333773 
L 444.19475 -201.993874 
L 444.788999 -204.372842 
L 445.383248 -192.198532 
L 445.977497 -180.024222 
L 446.571745 -167.849912 
L 447.165994 -155.675603 
L 447.760243 -143.501293 
L 448.354492 -144.206196 
L 448.948741 -150.77328 
L 449.542989 -157.340365 
L 450.137238 -163.907449 
L 450.731487 -170.474533 
L 451.325736 -177.041618 
L 451.919985 -177.852232 
L 452.514233 -188.847028 
L 453.108482 -199.299485 
L 453.702731 -208.009523 
L 454.29698 -207.515596 
L 454.891229 -203.214298 
L 455.485477 -198.912999 
L 456.079726 -194.611701 
L 456.673975 -194.075891 
L 457.268224 -203.067746 
L 457.862472 -199.991679 
L 458.456721 -196.915613 
L 459.05097 -193.839547 
L 459.645219 -186.263245 
L 460.239468 -167.113281 
L 460.833716 -147.963316 
L 461.427965 -128.813352 
L 462.022214 -129.183249 
L 462.616463 -147.200784 
L 463.210712 -165.218318 
L 463.80496 -183.235852 
L 464.399209 -187.626827 
L 464.993458 -188.053299 
L 465.587707 -182.305635 
L 466.181956 -173.155676 
L 466.776204 -164.005717 
L 467.370453 -162.771165 
L 467.964702 -170.13324 
L 468.558951 -166.280897 
L 469.1532 -166.464736 
L 469.747448 -166.648575 
L 470.341697 -166.832414 
L 470.935946 -167.016252 
L 471.530195 -167.200091 
L 472.124444 -167.38393 
L 472.718692 -167.567769 
L 473.312941 -170.364928 
L 473.90719 -177.588591 
L 474.501439 -184.812253 
L 475.095688 -192.035916 
L 475.689936 -199.259579 
L 476.284185 -197.247804 
L 476.878434 -193.451473 
L 477.472683 -189.655142 
L 478.066931 -185.858812 
L 478.66118 -187.653536 
L 479.255429 -181.312505 
L 479.849678 -163.523031 
L 480.443927 -145.733558 
L 481.038175 -127.944084 
L 481.632424 -110.154611 
L 482.226673 -92.365138 
L 482.820922 -74.575664 
L 483.415171 -58.532727 
L 484.009419 -76.428179 
L 484.603668 -94.323631 
L 485.197917 -112.219082 
L 485.792166 -130.114534 
L 486.386415 -148.009985 
L 486.980663 -165.905437 
L 487.574912 -183.800889 
L 488.169161 -178.330691 
L 488.76341 -171.264902 
L 489.357659 -164.199113 
L 489.951907 -157.133324 
L 490.546156 -154.495149 
L 491.140405 -164.384995 
L 491.734654 -174.274841 
L 492.328903 -184.164688 
L 492.923151 -194.054534 
L 493.5174 -199.666278 
L 494.111649 -200.625129 
L 494.705898 -201.583981 
L 495.300147 -200.560837 
L 495.894395 -197.607837 
L 496.488644 -183.111017 
L 497.082893 -168.614197 
L 497.677142 -154.117377 
L 498.27139 -139.620557 
L 498.865639 -141.29622 
L 499.459888 -148.084626 
L 500.054137 -154.873033 
L 500.648386 -161.661439 
L 501.242634 -168.449845 
L 501.836883 -175.238252 
L 502.431132 -179.726841 
L 503.025381 -182.125505 
L 503.61963 -184.524168 
L 504.213878 -186.922832 
L 504.808127 -189.507651 
L 505.402376 -193.534557 
L 505.996625 -197.561463 
L 506.590874 -201.588369 
L 507.185122 -204.540608 
L 507.779371 -198.96864 
L 508.37362 -193.396672 
L 508.967869 -187.824704 
L 509.562118 -171.432874 
L 510.156366 -147.787831 
L 510.750615 -124.142787 
L 511.344864 -117.616132 
L 511.939113 -122.650821 
L 512.533362 -127.68551 
L 513.12761 -132.720199 
L 513.721859 -137.754888 
L 514.316108 -142.789577 
L 514.910357 -147.824266 
L 515.504606 -152.858955 
L 516.098854 -157.893644 
L 516.693103 -157.869362 
L 517.287352 -155.514637 
L 517.881601 -153.159911 
L 518.475849 -150.805186 
L 519.070098 -148.450461 
L 519.664347 -146.095735 
L 520.258596 -143.74101 
L 520.852845 -141.386285 
L 521.447093 -144.790218 
L 522.041342 -148.941215 
L 522.635591 -153.092213 
L 523.22984 -157.24321 
L 523.824089 -161.394207 
L 524.418337 -165.545205 
L 525.012586 -169.696202 
L 525.606835 -173.847199 
L 526.201084 -177.998197 
L 526.795333 -181.803515 
L 527.389581 -173.394686 
L 527.98383 -164.985856 
L 528.578079 -156.577026 
L 529.172328 -148.168197 
L 529.766577 -139.759367 
L 530.360825 -131.350538 
L 530.955074 -122.941708 
L 531.549323 -114.532879 
L 532.143572 -106.124049 
L 532.737821 -98.734077 
L 533.332069 -98.133437 
L 533.926318 -97.532797 
L 534.520567 -96.932158 
L 535.114816 -96.331518 
L 535.709065 -95.730878 
L 536.303313 -95.130238 
L 536.897562 -94.529598 
L 537.491811 -93.928958 
L 538.08606 -93.328318 
L 538.680308 -103.796674 
L 539.274557 -118.445968 
L 539.868806 -133.095263 
L 540.463055 -147.744558 
L 541.057304 -162.393852 
L 541.651552 -177.043147 
L 542.245801 -186.777412 
L 542.84005 -184.599919 
L 543.434299 -182.422425 
L 544.028548 -180.408263 
L 544.622796 -181.184249 
L 545.217045 -181.960235 
L 545.811294 -182.736221 
L 546.405543 -183.512207 
L 546.999792 -184.288193 
L 547.59404 -185.064179 
L 548.188289 -185.840165 
L 548.782538 -186.616151 
L 549.376787 -187.392137 
L 549.971036 -188.168123 
L 550.565284 -188.944109 
L 551.159533 -189.720095 
L 551.753782 -190.496081 
L 552.348031 -190.117804 
L 552.94228 -189.463405 
L 553.536528 -183.140546 
L 554.130777 -173.398978 
L 554.725026 -171.81916 
L 555.319275 -163.943463 
L 555.913524 -155.042547 
L 556.507772 -149.036644 
L 557.102021 -143.030741 
L 557.69627 -137.024838 
L 558.290519 -131.018935 
L 558.884767 -125.013032 
L 559.479016 -119.007129 
L 560.073265 -113.001227 
L 560.667514 -123.790145 
L 561.261763 -137.874022 
L 561.856011 -151.957899 
L 562.45026 -166.041776 
L 563.044509 -180.125653 
L 563.638758 -190.229669 
L 564.233007 -185.300334 
L 564.827255 -180.370999 
L 565.421504 -178.594649 
L 566.015753 -180.587159 
L 566.610002 -182.579668 
L 567.204251 -184.572178 
L 567.798499 -180.359503 
L 568.392748 -174.829336 
L 568.986997 -169.299169 
L 569.581246 -163.769002 
L 570.175495 -158.238835 
L 570.769743 -152.708668 
L 571.363992 -147.178501 
L 571.958241 -143.772863 
L 572.55249 -161.549797 
L 573.146739 -179.326731 
L 573.740987 -176.918466 
L 574.335236 -173.844595 
L 574.929485 -170.770724 
L 575.523734 -170.51684 
L 576.117983 -174.176107 
L 576.712231 -177.835374 
L 577.30648 -181.494641 
L 577.900729 -183.247606 
L 578.494978 -178.608819 
L 579.089226 -173.970032 
L 579.683475 -169.331245 
L 580.277724 -165.144444 
L 580.871973 -161.102547 
L 581.466222 -157.060649 
L 582.06047 -153.018752 
L 582.654719 -145.697662 
L 583.248968 -137.455552 
L 583.843217 -129.213442 
L 584.437466 -132.983294 
L 585.031714 -132.809264 
L 585.625963 -142.764691 
L 586.220212 -147.726024 
L 586.814461 -152.640268 
L 587.40871 -157.554512 
L 588.002958 -162.468755 
L 588.597207 -167.382999 
L 589.191456 -172.562844 
L 589.785705 -181.288074 
L 590.379954 -190.013305 
L 590.974202 -189.721935 
L 591.568451 -187.592738 
L 592.1627 -185.463541 
L 592.756949 -183.334345 
L 593.351198 -181.205148 
L 593.945446 -179.075951 
L 594.539695 -176.946755 
L 595.133944 -174.817558 
L 595.728193 -172.276411 
L 596.322442 -170.893004 
L 596.91669 -173.386171 
L 597.510939 -174.521442 
L 598.105188 -175.656714 
L 598.699437 -176.791985 
L 599.293686 -177.927256 
L 599.887934 -174.424073 
L 600.482183 -166.798891 
L 601.076432 -169.930534 
L 601.670681 -173.062178 
L 602.264929 -176.193822 
L 602.859178 -179.325466 
L 603.453427 -180.452929 
L 604.047676 -176.013043 
L 604.641925 -171.573157 
L 605.236173 -167.133271 
L 605.830422 -162.693385 
L 606.424671 -158.253499 
L 607.01892 -159.704735 
L 607.613169 -159.274569 
L 608.207417 -142.13923 
L 608.801666 -125.003891 
L 609.395915 -107.868551 
L 609.990164 -90.733212 
L 610.584413 -73.597873 
L 611.178661 -79.076113 
L 611.77291 -109.520563 
L 612.367159 -139.965012 
L 612.961408 -170.409462 
L 613.555657 -195.836244 
L 614.149905 -199.120927 
L 614.744154 -202.40561 
L 615.338403 -204.913594 
L 615.932652 -205.80445 
L 616.526901 -206.695306 
L 617.121149 -207.313093 
L 617.715398 -207.610406 
L 618.309647 -207.90772 
L 618.903896 -208.205034 
L 619.498145 -202.180332 
L 620.092393 -187.419473 
L 620.686642 -172.658613 
L 621.280891 -166.85109 
L 621.87514 -178.415146 
L 622.469388 -189.979202 
L 623.063637 -196.712954 
L 623.657886 -194.967127 
L 624.252135 -193.221301 
L 624.846384 -191.475474 
L 625.440632 -189.729647 
L 626.034881 -187.983821 
L 626.62913 -186.237994 
L 627.223379 -184.492167 
L 627.817628 -185.46883 
L 628.411876 -187.482398 
L 629.006125 -189.495967 
L 629.600374 -191.509535 
L 630.194623 -188.805094 
L 630.788872 -176.977964 
L 631.38312 -171.573737 
L 631.977369 -176.996095 
L 632.571618 -182.418454 
L 633.165867 -187.840813 
L 633.760116 -193.263171 
L 634.354364 -198.68553 
L 634.948613 -204.107889 
L 635.542862 -208.06419 
L 636.137111 -205.797866 
L 636.73136 -204.780387 
L 637.325608 -197.846803 
L 637.919857 -190.913219 
L 638.514106 -183.979635 
L 639.108355 -184.673153 
L 639.702604 -190.888298 
L 640.296852 -197.103443 
L 640.891101 -203.318588 
L 641.48535 -204.480256 
L 642.079599 -201.228039 
L 642.673847 -197.975823 
L 643.268096 -194.723606 
L 643.862345 -191.47139 
L 644.456594 -188.219173 
L 645.050843 -184.966956 
L 645.645091 -181.71474 
L 646.23934 -178.462523 
L 646.833589 -175.210307 
L 647.427838 -171.95809 
L 648.022087 -168.705874 
L 648.616335 -168.939274 
L 649.210584 -172.165884 
L 649.804833 -175.392494 
L 650.399082 -178.619104 
L 650.993331 -181.845714 
L 651.587579 -183.013067 
L 652.181828 -182.467163 
L 652.776077 -181.921259 
L 653.370326 -181.375354 
L 653.964575 -180.82945 
L 654.558823 -180.283546 
L 655.153072 -179.737642 
L 655.747321 -179.191737 
L 656.34157 -165.254962 
L 656.935819 -150.104507 
L 657.530067 -134.954052 
L 658.124316 -128.062003 
L 658.718565 -139.652454 
L 659.312814 -151.242904 
L 659.907063 -162.833354 
L 660.501311 -174.423804 
L 661.09556 -178.989832 
L 661.689809 -179.574673 
L 662.284058 -180.159513 
L 662.878306 -180.744354 
L 663.472555 -181.329195 
L 664.066804 -181.914035 
L 664.661053 -182.498876 
L 665.255302 -183.083717 
L 665.84955 -183.668557 
L 666.443799 -184.253398 
L 667.038048 -184.838239 
L 667.632297 -185.423079 
L 668.226546 -186.00792 
L 668.820794 -186.592761 
L 669.415043 -181.225843 
L 670.009292 -171.842164 
L 670.603541 -162.458486 
L 671.19779 -153.074807 
L 671.792038 -147.933412 
L 672.386287 -147.933412 
L 672.980536 -147.933412 
L 673.574785 -147.933412 
L 674.169034 -147.933412 
L 674.763282 -147.933412 
L 675.357531 -147.933412 
L 675.95178 -147.933412 
L 676.546029 -147.933412 
L 677.140278 -147.933412 
L 677.734526 -147.933412 
L 678.328775 -147.933412 
L 678.923024 -147.933412 
L 679.517273 -147.933412 
L 679.517273 -237.493423 
L 679.517273 -237.493423 
L 678.923024 -237.493423 
L 678.328775 -237.493423 
L 677.734526 -237.493423 
L 677.140278 -237.493423 
L 676.546029 -237.493423 
L 675.95178 -237.493423 
L 675.357531 -237.493423 
L 674.763282 -237.846513 
L 674.169034 -241.001533 
L 673.574785 -244.156553 
L 672.980536 -247.311573 
L 672.386287 -250.466593 
L 671.792038 -253.621614 
L 671.19779 -256.776634 
L 670.603541 -259.931654 
L 670.009292 -260.948756 
L 669.415043 -260.945038 
L 668.820794 -267.632616 
L 668.226546 -279.206559 
L 667.632297 -274.246694 
L 667.038048 -267.553661 
L 666.443799 -260.926448 
L 665.84955 -261.475797 
L 665.255302 -264.345154 
L 664.661053 -267.214511 
L 664.066804 -270.083868 
L 663.472555 -272.953224 
L 662.878306 -275.822581 
L 662.284058 -278.691938 
L 661.689809 -281.561295 
L 661.09556 -283.068514 
L 660.501311 -289.165929 
L 659.907063 -295.263345 
L 659.312814 -301.360761 
L 658.718565 -307.458176 
L 658.124316 -306.995941 
L 657.530067 -303.663761 
L 656.935819 -300.33158 
L 656.34157 -296.999399 
L 655.747321 -293.667218 
L 655.153072 -290.335037 
L 654.558823 -287.002856 
L 653.964575 -283.670675 
L 653.370326 -280.338494 
L 652.776077 -277.006313 
L 652.181828 -273.674132 
L 651.587579 -270.341951 
L 650.993331 -267.00977 
L 650.399082 -266.48998 
L 649.804833 -269.800373 
L 649.210584 -273.110766 
L 648.616335 -276.421159 
L 648.022087 -279.731552 
L 647.427838 -278.041557 
L 646.833589 -269.393081 
L 646.23934 -260.744605 
L 645.645091 -252.096129 
L 645.050843 -243.447652 
L 644.456594 -240.981617 
L 643.862345 -248.72616 
L 643.268096 -259.745903 
L 642.673847 -270.765645 
L 642.079599 -276.467513 
L 641.48535 -270.272801 
L 640.891101 -264.07809 
L 640.296852 -257.883378 
L 639.702604 -257.87228 
L 639.108355 -261.532807 
L 638.514106 -265.193335 
L 637.919857 -263.924197 
L 637.325608 -261.90839 
L 636.73136 -259.892584 
L 636.137111 -257.876777 
L 635.542862 -255.860971 
L 634.948613 -253.845164 
L 634.354364 -251.829358 
L 633.760116 -251.600519 
L 633.165867 -254.009775 
L 632.571618 -256.41903 
L 631.977369 -258.828286 
L 631.38312 -261.596185 
L 630.788872 -270.327954 
L 630.194623 -279.059724 
L 629.600374 -287.31012 
L 629.006125 -295.25126 
L 628.411876 -303.192401 
L 627.817628 -311.133541 
L 627.223379 -319.074681 
L 626.62913 -327.015822 
L 626.034881 -334.956962 
L 625.440632 -339.954251 
L 624.846384 -327.482815 
L 624.252135 -315.011379 
L 623.657886 -302.539943 
L 623.063637 -290.068507 
L 622.469388 -277.597071 
L 621.87514 -271.941924 
L 621.280891 -272.061213 
L 620.686642 -272.180183 
L 620.092393 -272.267321 
L 619.498145 -272.354458 
L 618.903896 -272.441595 
L 618.309647 -272.528732 
L 617.715398 -272.61587 
L 617.121149 -272.703007 
L 616.526901 -275.984629 
L 615.932652 -290.745488 
L 615.338403 -292.18726 
L 614.744154 -262.8632 
L 614.149905 -258.947534 
L 613.555657 -264.14278 
L 612.961408 -270.232006 
L 612.367159 -276.321232 
L 611.77291 -282.410458 
L 611.178661 -271.292244 
L 610.584413 -258.74075 
L 609.990164 -246.189257 
L 609.395915 -243.738952 
L 608.801666 -243.753844 
L 608.207417 -243.768735 
L 607.613169 -243.783627 
L 607.01892 -243.0488 
L 606.424671 -242.964721 
L 605.830422 -243.708441 
L 605.236173 -244.452161 
L 604.641925 -245.195881 
L 604.047676 -245.939601 
L 603.453427 -251.315145 
L 602.859178 -260.934863 
L 602.264929 -251.317444 
L 601.670681 -248.914482 
L 601.076432 -249.756668 
L 600.482183 -250.700315 
L 599.887934 -251.643963 
L 599.293686 -252.58761 
L 598.699437 -253.531257 
L 598.105188 -254.474905 
L 597.510939 -255.418552 
L 596.91669 -256.3622 
L 596.322442 -258.241418 
L 595.728193 -262.244451 
L 595.133944 -266.247484 
L 594.539695 -270.250517 
L 593.945446 -270.500826 
L 593.351198 -258.986966 
L 592.756949 -263.412621 
L 592.1627 -268.129421 
L 591.568451 -272.846221 
L 590.974202 -277.563022 
L 590.379954 -282.279822 
L 589.785705 -270.411352 
L 589.191456 -252.176115 
L 588.597207 -234.143804 
L 588.002958 -239.29942 
L 587.40871 -244.455036 
L 586.814461 -249.610652 
L 586.220212 -254.766268 
L 585.625963 -264.949629 
L 585.031714 -271.841436 
L 584.437466 -267.885124 
L 583.843217 -263.928812 
L 583.248968 -259.972499 
L 582.654719 -256.016187 
L 582.06047 -252.059875 
L 581.466222 -248.749382 
L 580.871973 -247.174106 
L 580.277724 -252.998473 
L 579.683475 -259.112671 
L 579.089226 -261.468234 
L 578.494978 -259.661901 
L 577.900729 -263.850148 
L 577.30648 -268.038395 
L 576.712231 -272.226641 
L 576.117983 -272.662562 
L 575.523734 -276.649598 
L 574.929485 -277.778016 
L 574.335236 -275.456816 
L 573.740987 -273.135616 
L 573.146739 -270.814416 
L 572.55249 -268.493216 
L 571.958241 -266.172016 
L 571.363992 -263.850816 
L 570.769743 -261.529616 
L 570.175495 -259.208416 
L 569.581246 -256.887216 
L 568.986997 -254.566016 
L 568.392748 -252.244816 
L 567.798499 -249.923616 
L 567.204251 -247.602416 
L 566.610002 -245.281216 
L 566.015753 -242.960016 
L 565.421504 -240.638816 
L 564.827255 -238.317616 
L 564.233007 -235.799126 
L 563.638758 -233.271041 
L 563.044509 -230.742956 
L 562.45026 -232.406658 
L 561.856011 -234.767987 
L 561.261763 -237.129315 
L 560.667514 -239.490644 
L 560.073265 -241.851972 
L 559.479016 -246.87037 
L 558.884767 -259.407124 
L 558.290519 -271.943877 
L 557.69627 -284.48063 
L 557.102021 -297.017384 
L 556.507772 -297.370058 
L 555.913524 -290.553157 
L 555.319275 -283.736257 
L 554.725026 -276.919356 
L 554.130777 -272.619311 
L 553.536528 -274.429915 
L 552.94228 -270.336711 
L 552.348031 -266.243507 
L 551.753782 -262.150303 
L 551.159533 -258.057099 
L 550.565284 -261.587388 
L 549.971036 -261.612485 
L 549.376787 -261.637581 
L 548.782538 -261.662678 
L 548.188289 -262.299214 
L 547.59404 -261.712871 
L 546.999792 -261.737967 
L 546.405543 -261.763063 
L 545.811294 -259.095668 
L 545.217045 -254.89806 
L 544.622796 -250.700452 
L 544.028548 -246.502844 
L 543.434299 -242.305237 
L 542.84005 -238.107629 
L 542.245801 -233.910021 
L 541.651552 -231.273168 
L 541.057304 -237.256846 
L 540.463055 -243.240524 
L 539.868806 -249.224202 
L 539.274557 -255.207881 
L 538.680308 -261.191559 
L 538.08606 -267.175237 
L 537.491811 -273.158915 
L 536.897562 -279.142593 
L 536.303313 -276.558074 
L 535.709065 -275.058509 
L 535.114816 -268.904733 
L 534.520567 -260.960797 
L 533.926318 -253.016861 
L 533.332069 -245.072925 
L 532.737821 -237.128988 
L 532.143572 -229.185052 
L 531.549323 -221.940507 
L 530.955074 -220.5356 
L 530.360825 -219.130693 
L 529.766577 -217.725786 
L 529.172328 -216.753502 
L 528.578079 -216.748836 
L 527.98383 -217.153816 
L 527.389581 -218.896234 
L 526.795333 -220.638651 
L 526.201084 -224.17871 
L 525.606835 -231.756602 
L 525.012586 -239.334494 
L 524.418337 -246.912386 
L 523.824089 -254.490278 
L 523.22984 -262.068169 
L 522.635591 -269.646061 
L 522.041342 -271.117393 
L 521.447093 -267.119797 
L 520.852845 -263.1222 
L 520.258596 -259.124603 
L 519.664347 -255.127007 
L 519.070098 -251.12941 
L 518.475849 -247.436626 
L 517.881601 -250.726978 
L 517.287352 -266.555084 
L 516.693103 -282.38319 
L 516.098854 -298.211295 
L 515.504606 -314.039401 
L 514.910357 -329.867506 
L 514.316108 -338.76277 
L 513.721859 -323.525226 
L 513.12761 -308.287682 
L 512.533362 -293.050139 
L 511.939113 -277.993155 
L 511.344864 -275.397676 
L 510.750615 -272.802197 
L 510.156366 -270.206718 
L 509.562118 -267.611239 
L 508.967869 -265.015761 
L 508.37362 -259.591017 
L 507.779371 -251.686695 
L 507.185122 -266.013049 
L 506.590874 -289.658092 
L 505.996625 -312.21515 
L 505.402376 -302.374256 
L 504.808127 -292.533361 
L 504.213878 -282.692467 
L 503.61963 -272.851573 
L 503.025381 -263.010679 
L 502.431132 -257.865326 
L 501.836883 -253.866031 
L 501.242634 -249.866736 
L 500.648386 -245.86744 
L 500.054137 -242.574226 
L 499.459888 -241.471321 
L 498.865639 -240.368416 
L 498.27139 -239.265511 
L 497.677142 -238.162607 
L 497.082893 -237.059702 
L 496.488644 -235.956797 
L 495.894395 -234.853892 
L 495.300147 -234.605211 
L 494.705898 -234.612697 
L 494.111649 -241.098297 
L 493.5174 -247.788686 
L 492.923151 -246.353513 
L 492.328903 -244.918341 
L 491.734654 -243.483168 
L 491.140405 -242.047996 
L 490.546156 -240.612823 
L 489.951907 -239.177651 
L 489.357659 -238.685714 
L 488.76341 -239.894577 
L 488.169161 -241.10344 
L 487.574912 -242.312303 
L 486.980663 -243.521166 
L 486.386415 -247.375398 
L 485.792166 -251.526416 
L 485.197917 -255.677434 
L 484.603668 -259.828452 
L 484.009419 -263.979469 
L 483.415171 -268.130487 
L 482.820922 -272.281505 
L 482.226673 -272.007192 
L 481.632424 -265.737037 
L 481.038175 -259.466881 
L 480.443927 -253.196726 
L 479.849678 -253.989246 
L 479.255429 -260.991118 
L 478.66118 -267.992989 
L 478.066931 -274.994861 
L 477.472683 -278.664749 
L 476.878434 -279.220113 
L 476.284185 -279.775478 
L 475.689936 -280.330842 
L 475.095688 -280.886207 
L 474.501439 -281.441571 
L 473.90719 -281.996936 
L 473.312941 -282.5523 
L 472.718692 -283.107665 
L 472.124444 -283.44477 
L 471.530195 -283.16047 
L 470.935946 -282.87617 
L 470.341697 -282.591871 
L 469.747448 -282.307571 
L 469.1532 -282.023272 
L 468.558951 -281.738972 
L 467.964702 -281.454672 
L 467.370453 -281.170373 
L 466.776204 -273.323524 
L 466.181956 -255.30599 
L 465.587707 -253.669273 
L 464.993458 -259.873 
L 464.399209 -266.076727 
L 463.80496 -272.280455 
L 463.210712 -278.484182 
L 462.616463 -283.041845 
L 462.022214 -282.017167 
L 461.427965 -280.992488 
L 460.833716 -279.96781 
L 460.239468 -278.943132 
L 459.645219 -277.918454 
L 459.05097 -279.400588 
L 458.456721 -287.609086 
L 457.862472 -295.817584 
L 457.268224 -304.026082 
L 456.673975 -307.016444 
L 456.079726 -297.89709 
L 455.485477 -288.777735 
L 454.891229 -279.65838 
L 454.29698 -270.539026 
L 453.702731 -261.419671 
L 453.108482 -252.300317 
L 452.514233 -248.692513 
L 451.919985 -245.931908 
L 451.325736 -243.171302 
L 450.731487 -240.888463 
L 450.137238 -241.064041 
L 449.542989 -238.230429 
L 448.948741 -240.174375 
L 448.354492 -245.294265 
L 447.760243 -250.414155 
L 447.165994 -255.534045 
L 446.571745 -260.653935 
L 445.977497 -265.773825 
L 445.383248 -270.893716 
L 444.788999 -270.737367 
L 444.19475 -266.851135 
L 443.600501 -262.964904 
L 443.006253 -259.078673 
L 442.412004 -255.192442 
L 441.817755 -251.306211 
L 441.223506 -251.324489 
L 440.629257 -254.551785 
L 440.035009 -257.779082 
L 439.44076 -257.712377 
L 438.846511 -256.388543 
L 438.252262 -260.30688 
L 437.658013 -264.225218 
L 437.063765 -268.143555 
L 436.469516 -272.061892 
L 435.875267 -265.622789 
L 435.281018 -253.999603 
L 434.686769 -243.828768 
L 434.092521 -242.093317 
L 433.498272 -240.357866 
L 432.904023 -238.622415 
L 432.309774 -249.945923 
L 431.715526 -267.039726 
L 431.121277 -284.133529 
L 430.527028 -301.227331 
L 429.932779 -288.068402 
L 429.33853 -266.339204 
L 428.744282 -244.610006 
L 428.150033 -230.750217 
L 427.555784 -237.80883 
L 426.961535 -243.368883 
L 426.367286 -250.930498 
L 425.773038 -258.663081 
L 425.178789 -266.395664 
L 424.58454 -274.128248 
L 423.990291 -281.860831 
L 423.396042 -276.629698 
L 422.801794 -278.158654 
L 422.207545 -271.436613 
L 421.613296 -258.744429 
L 421.019047 -246.052245 
L 420.424798 -233.360061 
L 419.83055 -221.931727 
L 419.236301 -214.932095 
L 418.642052 -215.101942 
L 418.047803 -216.199607 
L 417.453554 -216.96984 
L 416.859306 -215.620124 
L 416.265057 -214.698519 
L 415.670808 -224.290372 
L 415.076559 -233.882224 
L 414.48231 -243.474077 
L 413.888062 -253.06593 
L 413.293813 -256.368471 
L 412.699564 -256.623913 
L 412.105315 -256.879356 
L 411.511067 -257.134798 
L 410.916818 -257.39024 
L 410.322569 -257.645683 
L 409.72832 -257.901125 
L 409.134071 -258.156568 
L 408.539823 -258.41201 
L 407.945574 -256.084818 
L 407.351325 -249.274236 
L 406.757076 -252.095252 
L 406.162827 -254.916269 
L 405.568579 -257.737286 
L 404.97433 -263.827033 
L 404.380081 -273.950392 
L 403.785832 -272.970368 
L 403.191583 -267.547086 
L 402.597335 -268.881142 
L 402.003086 -270.215197 
L 401.408837 -271.549253 
L 400.814588 -272.883309 
L 400.220339 -274.217365 
L 399.626091 -275.551421 
L 399.031842 -276.885476 
L 398.437593 -265.360243 
L 397.843344 -253.238378 
L 397.249095 -241.116513 
L 396.654847 -228.994648 
L 396.060598 -246.132873 
L 395.466349 -268.419764 
L 394.8721 -290.706654 
L 394.277851 -312.993545 
L 393.683603 -335.280435 
L 393.089354 -357.567326 
L 392.495105 -356.505165 
L 391.900856 -347.798086 
L 391.306608 -339.091008 
L 390.712359 -330.383929 
L 390.11811 -321.67685 
L 389.523861 -312.969771 
L 388.929612 -304.262692 
L 388.335364 -295.555613 
L 387.741115 -287.45628 
L 387.146866 -279.493972 
L 386.552617 -271.531665 
L 385.958368 -263.569357 
L 385.36412 -255.607049 
L 384.769871 -247.644742 
L 384.175622 -239.682434 
L 383.581373 -238.876931 
L 382.987124 -242.346474 
L 382.392876 -240.145867 
L 381.798627 -237.945259 
L 381.204378 -235.744651 
L 380.610129 -233.544044 
L 380.01588 -231.628422 
L 379.421632 -232.21611 
L 378.827383 -232.803799 
L 378.233134 -233.391488 
L 377.638885 -233.979176 
L 377.044636 -233.644011 
L 376.450388 -232.712445 
L 375.856139 -231.780879 
L 375.26189 -230.849313 
L 374.667641 -229.917748 
L 374.073392 -228.986182 
L 373.479144 -229.328584 
L 372.884895 -229.086898 
L 372.290646 -226.191484 
L 371.696397 -226.410812 
L 371.102149 -233.812682 
L 370.5079 -241.214552 
L 369.913651 -248.616422 
L 369.319402 -256.018292 
L 368.725153 -263.420162 
L 368.130905 -270.822032 
L 367.536656 -278.223902 
L 366.942407 -277.76805 
L 366.348158 -258.534479 
L 365.753909 -246.900994 
L 365.159661 -241.582413 
L 364.565412 -236.263832 
L 363.971163 -230.945251 
L 363.376914 -225.62667 
L 362.782665 -220.308089 
L 362.188417 -220.417555 
L 361.594168 -220.730108 
L 360.999919 -221.042661 
L 360.40567 -221.355214 
L 359.811421 -221.667768 
L 359.217173 -221.980321 
L 358.622924 -236.283542 
L 358.028675 -238.065575 
L 357.434426 -238.531295 
L 356.840177 -238.997015 
L 356.245929 -239.462735 
L 355.65168 -239.928455 
L 355.057431 -240.394175 
L 354.463182 -240.859895 
L 353.868933 -241.325615 
L 353.274685 -241.791335 
L 352.680436 -246.901218 
L 352.086187 -258.273008 
L 351.491938 -252.590669 
L 350.89769 -246.908331 
L 350.303441 -241.225993 
L 349.709192 -235.543655 
L 349.114943 -229.861316 
L 348.520694 -224.992628 
L 347.926446 -226.6099 
L 347.332197 -228.227172 
L 346.737948 -229.844445 
L 346.143699 -231.461717 
L 345.54945 -239.137442 
L 344.955202 -248.208549 
L 344.360953 -257.279657 
L 343.766704 -269.158696 
L 343.172455 -284.01747 
L 342.578206 -284.027417 
L 341.983958 -280.570436 
L 341.389709 -277.113454 
L 340.79546 -273.656472 
L 340.201211 -270.19949 
L 339.606962 -266.742508 
L 339.012714 -263.285526 
L 338.418465 -259.828544 
L 337.824216 -256.371562 
L 337.229967 -252.914581 
L 336.635718 -249.457599 
L 336.04147 -246.000617 
L 335.447221 -242.543635 
L 334.852972 -238.771966 
L 334.258723 -234.758434 
L 333.664474 -230.744902 
L 333.070226 -226.73137 
L 332.475977 -232.417789 
L 331.881728 -242.498369 
L 331.287479 -252.578948 
L 330.693231 -262.659527 
L 330.098982 -272.740106 
L 329.504733 -274.411537 
L 328.910484 -271.007812 
L 328.316235 -267.604086 
L 327.721987 -266.834104 
L 327.127738 -266.447205 
L 326.533489 -266.060306 
L 325.93924 -265.673408 
L 325.344991 -265.286509 
L 324.750743 -264.89961 
L 324.156494 -261.83749 
L 323.562245 -258.68525 
L 322.967996 -255.533009 
L 322.373747 -252.380769 
L 321.779499 -249.228528 
L 321.18525 -266.884894 
L 320.591001 -269.723427 
L 319.996752 -253.105888 
L 319.402503 -236.488349 
L 318.808255 -234.949704 
L 318.214006 -234.736431 
L 317.619757 -234.523158 
L 317.025508 -234.309884 
L 316.431259 -234.096611 
L 315.837011 -233.883338 
L 315.242762 -233.670065 
L 314.648513 -234.390785 
L 314.054264 -236.969883 
L 313.460015 -239.548981 
L 312.865767 -242.128079 
L 312.271518 -244.707177 
L 311.677269 -247.286275 
L 311.08302 -249.865373 
L 310.488771 -266.604512 
L 309.894523 -275.699652 
L 309.300274 -263.522825 
L 308.706025 -260.181766 
L 308.111776 -262.760864 
L 307.517528 -265.339962 
L 306.923279 -267.91906 
L 306.32903 -270.498159 
L 305.734781 -273.077257 
L 305.140532 -275.656355 
L 304.546284 -278.235453 
L 303.952035 -275.139518 
L 303.357786 -277.797005 
L 302.763537 -281.434092 
L 302.169288 -279.926896 
L 301.57504 -276.544782 
L 300.980791 -277.740781 
L 300.386542 -269.780553 
L 299.792293 -266.398439 
L 299.198044 -263.016324 
L 298.603796 -261.522533 
L 298.009547 -274.575252 
L 297.415298 -287.627971 
L 296.821049 -279.875411 
L 296.2268 -270.531718 
L 295.632552 -261.188024 
L 295.038303 -263.239958 
L 294.444054 -266.85036 
L 293.849805 -267.978609 
L 293.255556 -261.112643 
L 292.661308 -254.246676 
L 292.067059 -247.380709 
L 291.47281 -252.882196 
L 290.878561 -270.698418 
L 290.284312 -266.265451 
L 289.690064 -250.527124 
L 289.095815 -234.788797 
L 288.501566 -231.386303 
L 287.907317 -238.712913 
L 287.313069 -251.037742 
L 286.71882 -251.006169 
L 286.124571 -244.205535 
L 285.530322 -244.354099 
L 284.936073 -247.447829 
L 284.341825 -250.54156 
L 283.747576 -253.635291 
L 283.153327 -256.729021 
L 282.559078 -259.822752 
L 281.964829 -262.264133 
L 281.370581 -262.989497 
L 280.776332 -263.714861 
L 280.182083 -264.440224 
L 279.587834 -265.165588 
L 278.993585 -265.890952 
L 278.399337 -266.616315 
L 277.805088 -267.341679 
L 277.210839 -270.865427 
L 276.61659 -276.555617 
L 276.022341 -282.245806 
L 275.428093 -287.935996 
L 274.833844 -293.626186 
L 274.239595 -299.316376 
L 273.645346 -305.006565 
L 273.051097 -307.235555 
L 272.456849 -300.44155 
L 271.8626 -293.647545 
L 271.268351 -286.85354 
L 270.674102 -280.059535 
L 270.079853 -273.26553 
L 269.485605 -266.471525 
L 268.891356 -259.67752 
L 268.297107 -259.856369 
L 267.702858 -269.633054 
L 267.10861 -279.40974 
L 266.514361 -289.186425 
L 265.920112 -298.963111 
L 265.325863 -308.739797 
L 264.731614 -318.516482 
L 264.137366 -319.698902 
L 263.543117 -304.059089 
L 262.948868 -288.419276 
L 262.354619 -272.779463 
L 261.76037 -257.13965 
L 261.166122 -241.499837 
L 260.571873 -226.740289 
L 259.977624 -237.552336 
L 259.383375 -248.364382 
L 258.789126 -259.176429 
L 258.194878 -269.988476 
L 257.600629 -280.388951 
L 257.00638 -273.320289 
L 256.412131 -266.251626 
L 255.817882 -259.182964 
L 255.223634 -252.114301 
L 254.629385 -245.045639 
L 254.035136 -246.79495 
L 253.440887 -249.156036 
L 252.846638 -245.638526 
L 252.25239 -241.762052 
L 251.658141 -237.885577 
L 251.063892 -236.317737 
L 250.469643 -237.227913 
L 249.875394 -238.138088 
L 249.281146 -235.960929 
L 248.686897 -233.462512 
L 248.092648 -233.044319 
L 247.498399 -234.748906 
L 246.904151 -236.453493 
L 246.309902 -238.215918 
L 245.715653 -240.92577 
L 245.121404 -243.635621 
L 244.527155 -246.345472 
L 243.932907 -249.094908 
L 243.338658 -256.848359 
L 242.744409 -264.60181 
L 242.15016 -272.355261 
L 241.555911 -280.108712 
L 240.961663 -280.166487 
L 240.367414 -274.116272 
L 239.773165 -268.066057 
L 239.178916 -262.015841 
L 238.584667 -255.965626 
L 237.990419 -249.915411 
L 237.39617 -243.865196 
L 236.801921 -237.210106 
L 236.207672 -224.843507 
L 235.613423 -222.437912 
L 235.019175 -227.111194 
L 234.424926 -231.784475 
L 233.830677 -236.457757 
L 233.236428 -238.222712 
L 232.642179 -237.497414 
L 232.047931 -236.772117 
L 231.453682 -236.04682 
L 230.859433 -235.321522 
L 230.265184 -234.596225 
L 229.670935 -233.870927 
L 229.076687 -233.14563 
L 228.482438 -232.420333 
L 227.888189 -228.94878 
L 227.29394 -224.274301 
L 226.699692 -221.714326 
L 226.105443 -220.53352 
L 225.511194 -220.570782 
L 224.916945 -225.284471 
L 224.322696 -229.99816 
L 223.728448 -234.711848 
L 223.134199 -239.425537 
L 222.53995 -244.139225 
L 221.945701 -248.852914 
L 221.351452 -253.566603 
L 220.757204 -253.7719 
L 220.162955 -264.323466 
L 219.568706 -279.204422 
L 218.974457 -294.085377 
L 218.380208 -308.966333 
L 217.78596 -323.847288 
L 217.191711 -338.728243 
L 216.597462 -353.609199 
L 216.003213 -333.013919 
L 215.408964 -310.956303 
L 214.814716 -288.898686 
L 214.220467 -266.84107 
L 213.626218 -244.783453 
L 213.031969 -237.531518 
L 212.43772 -239.176382 
L 211.843472 -240.821246 
L 211.249223 -242.466111 
L 210.654974 -243.661556 
L 210.060725 -242.958309 
L 209.466476 -242.255063 
L 208.872228 -241.551817 
L 208.277979 -240.848571 
L 207.68373 -240.145324 
L 207.089481 -239.442078 
L 206.495233 -238.738832 
L 205.900984 -238.035586 
L 205.306735 -237.332339 
L 204.712486 -236.629093 
L 204.118237 -235.925847 
L 203.523989 -235.222601 
L 202.92974 -234.519354 
L 202.335491 -235.653809 
L 201.741242 -237.286207 
L 201.146993 -238.918604 
L 200.552745 -240.551001 
L 199.958496 -243.8488 
L 199.364247 -244.815078 
L 198.769998 -247.063204 
L 198.175749 -249.311331 
L 197.581501 -251.559457 
L 196.987252 -253.807583 
L 196.393003 -256.055709 
L 195.798754 -258.303836 
L 195.204505 -260.551962 
L 194.610257 -262.800088 
L 194.016008 -265.048214 
L 193.421759 -267.296341 
L 192.82751 -269.544467 
L 192.233261 -271.792593 
L 191.639013 -274.040719 
L 191.044764 -276.647545 
L 190.450515 -285.240983 
L 189.856266 -293.834421 
L 189.262017 -292.974539 
L 188.667769 -284.449098 
L 188.07352 -275.923656 
L 187.479271 -268.435897 
L 186.885022 -265.520586 
L 186.290774 -262.605275 
L 185.696525 -259.689963 
L 185.102276 -256.774652 
L 184.508027 -253.859341 
L 183.913778 -253.347679 
L 183.31953 -255.457483 
L 182.725281 -257.567287 
L 182.131032 -253.621914 
L 181.536783 -247.706879 
L 180.942534 -241.791844 
L 180.348286 -235.876809 
L 179.754037 -235.430026 
L 179.159788 -236.497426 
L 178.565539 -237.564827 
L 177.97129 -245.051563 
L 177.377042 -253.02125 
L 176.782793 -260.990937 
L 176.188544 -268.960624 
L 175.594295 -276.930311 
L 175.000046 -284.899998 
L 174.405798 -292.869685 
L 173.811549 -300.839371 
L 173.2173 -308.809058 
L 172.623051 -316.778745 
L 172.028802 -313.728253 
L 171.434554 -294.987682 
L 170.840305 -276.247112 
L 170.246056 -257.506542 
L 169.651807 -250.774179 
L 169.057558 -252.25703 
L 168.46331 -258.929545 
L 167.869061 -265.60206 
L 167.274812 -272.274574 
L 166.680563 -278.947089 
L 166.086314 -285.619603 
L 165.492066 -292.292118 
L 164.897817 -298.964633 
L 164.303568 -305.637147 
L 163.709319 -312.309662 
L 163.115071 -318.982176 
L 162.520822 -325.654691 
L 161.926573 -332.327205 
L 161.332324 -338.99972 
L 160.738075 -345.672235 
L 160.143827 -352.344749 
L 159.549578 -359.017264 
L 158.955329 -365.689778 
L 158.36108 -363.845756 
L 157.766831 -353.027248 
L 157.172583 -342.208741 
L 156.578334 -331.390233 
L 155.984085 -320.571725 
L 155.389836 -309.753218 
L 154.795587 -298.93471 
L 154.201339 -288.116202 
L 153.60709 -277.297695 
L 153.012841 -266.479187 
L 152.418592 -265.414097 
L 151.824343 -265.898566 
L 151.230095 -277.415366 
L 150.635846 -276.882116 
L 150.041597 -274.964447 
L 149.447348 -273.046779 
L 148.853099 -271.12911 
L 148.258851 -269.211441 
L 147.664602 -267.293772 
L 147.070353 -265.376104 
L 146.476104 -270.782499 
L 145.881855 -268.3774 
L 145.287607 -264.392752 
L 144.693358 -260.408103 
L 144.099109 -256.423455 
L 143.50486 -252.438807 
L 142.910612 -248.454159 
L 142.316363 -244.469511 
L 141.722114 -242.401648 
L 141.127865 -243.02775 
L 140.533616 -243.653852 
L 139.939368 -246.353678 
L 139.345119 -251.739517 
L 138.75087 -257.125356 
L 138.156621 -262.511194 
L 137.562372 -263.986347 
L 136.968124 -261.01852 
L 136.373875 -258.050692 
L 135.779626 -255.082865 
L 135.185377 -252.985337 
L 134.591128 -264.796012 
L 133.99688 -276.606687 
L 133.402631 -288.417362 
L 132.808382 -300.228036 
L 132.214133 -312.038711 
L 131.619884 -323.849386 
L 131.025636 -335.660061 
L 130.431387 -347.470736 
L 129.837138 -359.281411 
L 129.242889 -341.388543 
L 128.64864 -322.159784 
L 128.054392 -302.931024 
L 127.460143 -283.702265 
L 126.865894 -264.473505 
L 126.271645 -247.110178 
L 125.677396 -269.125044 
L 125.083148 -291.139911 
L 124.488899 -313.154777 
L 123.89465 -335.169643 
L 123.300401 -323.621757 
L 122.706153 -307.612256 
L 122.111904 -291.602755 
L 121.517655 -275.593253 
L 120.923406 -259.583752 
L 120.329157 -243.574251 
L 119.734909 -227.56475 
L 119.14066 -224.531732 
L 118.546411 -226.360806 
L 117.952162 -228.189881 
L 117.357913 -230.018955 
L 116.763665 -231.368648 
L 116.169416 -231.705947 
L 115.575167 -232.043245 
L 114.980918 -232.963205 
L 114.386669 -235.60039 
L 113.792421 -238.237575 
L 113.198172 -240.87476 
L 112.603923 -245.645039 
L 112.009674 -260.694866 
L 111.415425 -275.744692 
L 110.821177 -290.794519 
L 110.226928 -305.844346 
L 109.632679 -320.894172 
L 109.03843 -335.943999 
L 108.444181 -350.993826 
L 107.849933 -366.043653 
L 107.255684 -381.093479 
L 106.661435 -389.987273 
L 106.067186 -370.125839 
L 105.472937 -350.264405 
L 104.878689 -330.40297 
L 104.28444 -310.541536 
L 103.690191 -290.680102 
L 103.095942 -270.818668 
L 102.501694 -250.957234 
L 101.907445 -232.909761 
L 101.313196 -232.918263 
L 100.718947 -232.926765 
L 100.124698 -232.935266 
L 99.53045 -232.943768 
L 98.936201 -232.95227 
L 98.341952 -232.960772 
L 97.747703 -232.969273 
L 97.153454 -232.977775 
L 96.559206 -232.953577 
L 95.964957 -238.489778 
L 95.370708 -245.616505 
L 94.776459 -252.743232 
L 94.18221 -260.228751 
L 93.587962 -272.723758 
L 92.993713 -285.218766 
L 92.399464 -297.713773 
L 91.805215 -310.20878 
L 91.210966 -322.703788 
L 90.616718 -333.397905 
L 90.022469 -333.397905 
L 89.42822 -333.397905 
L 88.833971 -333.397905 
L 88.239722 -333.397905 
L 87.645474 -333.397905 
L 87.051225 -333.397905 
L 86.456976 -333.397905 
L 85.862727 -333.397905 
z
" style="stroke: #ff8c00; stroke-opacity: 0.3"/>
    </defs>
    <g clip-path="url(#pf49db7672b)">
     <use xlink:href="#m03eac25fb7" x="0" y="432" style="fill: #ff8c00; fill-opacity: 0.3; stroke: #ff8c00; stroke-opacity: 0.3"/>
    </g>
   </g>
   <g id="matplotlib.axis_1">
    <g id="xtick_1">
     <g id="line2d_1">
      <defs>
       <path id="m88aa32278f" d="M 0 0 
L 0 3.5 
" style="stroke: #000000; stroke-width: 0.8"/>
      </defs>
      <g>
       <use xlink:href="#m88aa32278f" x="85.72813" y="390.04" style="stroke: #000000; stroke-width: 0.8"/>
      </g>
     </g>
     <g id="text_1">
      <!-- 0 -->
      <g transform="translate(82.54688 404.638438) scale(0.1 -0.1)">
       <defs>
        <path id="DejaVuSans-30" d="M 2034 4250 
Q 1547 4250 1301 3770 
Q 1056 3291 1056 2328 
Q 1056 1369 1301 889 
Q 1547 409 2034 409 
Q 2525 409 2770 889 
Q 3016 1369 3016 2328 
Q 3016 3291 2770 3770 
Q 2525 4250 2034 4250 
z
M 2034 4750 
Q 2819 4750 3233 4129 
Q 3647 3509 3647 2328 
Q 3647 1150 3233 529 
Q 2819 -91 2034 -91 
Q 1250 -91 836 529 
Q 422 1150 422 2328 
Q 422 3509 836 4129 
Q 1250 4750 2034 4750 
z
" transform="scale(0.015625)"/>
       </defs>
       <use xlink:href="#DejaVuSans-30"/>
      </g>
     </g>
    </g>
    <g id="xtick_2">
     <g id="line2d_2">
      <g>
       <use xlink:href="#m88aa32278f" x="202.76897" y="390.04" style="stroke: #000000; stroke-width: 0.8"/>
      </g>
     </g>
     <g id="text_2">
      <!-- 20000 -->
      <g transform="translate(186.86272 404.638438) scale(0.1 -0.1)">
       <defs>
        <path id="DejaVuSans-32" d="M 1228 531 
L 3431 531 
L 3431 0 
L 469 0 
L 469 531 
Q 828 903 1448 1529 
Q 2069 2156 2228 2338 
Q 2531 2678 2651 2914 
Q 2772 3150 2772 3378 
Q 2772 3750 2511 3984 
Q 2250 4219 1831 4219 
Q 1534 4219 1204 4116 
Q 875 4013 500 3803 
L 500 4441 
Q 881 4594 1212 4672 
Q 1544 4750 1819 4750 
Q 2544 4750 2975 4387 
Q 3406 4025 3406 3419 
Q 3406 3131 3298 2873 
Q 3191 2616 2906 2266 
Q 2828 2175 2409 1742 
Q 1991 1309 1228 531 
z
" transform="scale(0.015625)"/>
       </defs>
       <use xlink:href="#DejaVuSans-32"/>
       <use xlink:href="#DejaVuSans-30" transform="translate(63.623047 0)"/>
       <use xlink:href="#DejaVuSans-30" transform="translate(127.246094 0)"/>
       <use xlink:href="#DejaVuSans-30" transform="translate(190.869141 0)"/>
       <use xlink:href="#DejaVuSans-30" transform="translate(254.492188 0)"/>
      </g>
     </g>
    </g>
    <g id="xtick_3">
     <g id="line2d_3">
      <g>
       <use xlink:href="#m88aa32278f" x="319.809809" y="390.04" style="stroke: #000000; stroke-width: 0.8"/>
      </g>
     </g>
     <g id="text_3">
      <!-- 40000 -->
      <g transform="translate(303.903559 404.638438) scale(0.1 -0.1)">
       <defs>
        <path id="DejaVuSans-34" d="M 2419 4116 
L 825 1625 
L 2419 1625 
L 2419 4116 
z
M 2253 4666 
L 3047 4666 
L 3047 1625 
L 3713 1625 
L 3713 1100 
L 3047 1100 
L 3047 0 
L 2419 0 
L 2419 1100 
L 313 1100 
L 313 1709 
L 2253 4666 
z
" transform="scale(0.015625)"/>
       </defs>
       <use xlink:href="#DejaVuSans-34"/>
       <use xlink:href="#DejaVuSans-30" transform="translate(63.623047 0)"/>
       <use xlink:href="#DejaVuSans-30" transform="translate(127.246094 0)"/>
       <use xlink:href="#DejaVuSans-30" transform="translate(190.869141 0)"/>
       <use xlink:href="#DejaVuSans-30" transform="translate(254.492188 0)"/>
      </g>
     </g>
    </g>
    <g id="xtick_4">
     <g id="line2d_4">
      <g>
       <use xlink:href="#m88aa32278f" x="436.850648" y="390.04" style="stroke: #000000; stroke-width: 0.8"/>
      </g>
     </g>
     <g id="text_4">
      <!-- 60000 -->
      <g transform="translate(420.944398 404.638438) scale(0.1 -0.1)">
       <defs>
        <path id="DejaVuSans-36" d="M 2113 2584 
Q 1688 2584 1439 2293 
Q 1191 2003 1191 1497 
Q 1191 994 1439 701 
Q 1688 409 2113 409 
Q 2538 409 2786 701 
Q 3034 994 3034 1497 
Q 3034 2003 2786 2293 
Q 2538 2584 2113 2584 
z
M 3366 4563 
L 3366 3988 
Q 3128 4100 2886 4159 
Q 2644 4219 2406 4219 
Q 1781 4219 1451 3797 
Q 1122 3375 1075 2522 
Q 1259 2794 1537 2939 
Q 1816 3084 2150 3084 
Q 2853 3084 3261 2657 
Q 3669 2231 3669 1497 
Q 3669 778 3244 343 
Q 2819 -91 2113 -91 
Q 1303 -91 875 529 
Q 447 1150 447 2328 
Q 447 3434 972 4092 
Q 1497 4750 2381 4750 
Q 2619 4750 2861 4703 
Q 3103 4656 3366 4563 
z
" transform="scale(0.015625)"/>
       </defs>
       <use xlink:href="#DejaVuSans-36"/>
       <use xlink:href="#DejaVuSans-30" transform="translate(63.623047 0)"/>
       <use xlink:href="#DejaVuSans-30" transform="translate(127.246094 0)"/>
       <use xlink:href="#DejaVuSans-30" transform="translate(190.869141 0)"/>
       <use xlink:href="#DejaVuSans-30" transform="translate(254.492188 0)"/>
      </g>
     </g>
    </g>
    <g id="xtick_5">
     <g id="line2d_5">
      <g>
       <use xlink:href="#m88aa32278f" x="553.891488" y="390.04" style="stroke: #000000; stroke-width: 0.8"/>
      </g>
     </g>
     <g id="text_5">
      <!-- 80000 -->
      <g transform="translate(537.985238 404.638438) scale(0.1 -0.1)">
       <defs>
        <path id="DejaVuSans-38" d="M 2034 2216 
Q 1584 2216 1326 1975 
Q 1069 1734 1069 1313 
Q 1069 891 1326 650 
Q 1584 409 2034 409 
Q 2484 409 2743 651 
Q 3003 894 3003 1313 
Q 3003 1734 2745 1975 
Q 2488 2216 2034 2216 
z
M 1403 2484 
Q 997 2584 770 2862 
Q 544 3141 544 3541 
Q 544 4100 942 4425 
Q 1341 4750 2034 4750 
Q 2731 4750 3128 4425 
Q 3525 4100 3525 3541 
Q 3525 3141 3298 2862 
Q 3072 2584 2669 2484 
Q 3125 2378 3379 2068 
Q 3634 1759 3634 1313 
Q 3634 634 3220 271 
Q 2806 -91 2034 -91 
Q 1263 -91 848 271 
Q 434 634 434 1313 
Q 434 1759 690 2068 
Q 947 2378 1403 2484 
z
M 1172 3481 
Q 1172 3119 1398 2916 
Q 1625 2713 2034 2713 
Q 2441 2713 2670 2916 
Q 2900 3119 2900 3481 
Q 2900 3844 2670 4047 
Q 2441 4250 2034 4250 
Q 1625 4250 1398 4047 
Q 1172 3844 1172 3481 
z
" transform="scale(0.015625)"/>
       </defs>
       <use xlink:href="#DejaVuSans-38"/>
       <use xlink:href="#DejaVuSans-30" transform="translate(63.623047 0)"/>
       <use xlink:href="#DejaVuSans-30" transform="translate(127.246094 0)"/>
       <use xlink:href="#DejaVuSans-30" transform="translate(190.869141 0)"/>
       <use xlink:href="#DejaVuSans-30" transform="translate(254.492188 0)"/>
      </g>
     </g>
    </g>
    <g id="xtick_6">
     <g id="line2d_6">
      <g>
       <use xlink:href="#m88aa32278f" x="670.932327" y="390.04" style="stroke: #000000; stroke-width: 0.8"/>
      </g>
     </g>
     <g id="text_6">
      <!-- 100000 -->
      <g transform="translate(651.844827 404.638438) scale(0.1 -0.1)">
       <defs>
        <path id="DejaVuSans-31" d="M 794 531 
L 1825 531 
L 1825 4091 
L 703 3866 
L 703 4441 
L 1819 4666 
L 2450 4666 
L 2450 531 
L 3481 531 
L 3481 0 
L 794 0 
L 794 531 
z
" transform="scale(0.015625)"/>
       </defs>
       <use xlink:href="#DejaVuSans-31"/>
       <use xlink:href="#DejaVuSans-30" transform="translate(63.623047 0)"/>
       <use xlink:href="#DejaVuSans-30" transform="translate(127.246094 0)"/>
       <use xlink:href="#DejaVuSans-30" transform="translate(190.869141 0)"/>
       <use xlink:href="#DejaVuSans-30" transform="translate(254.492188 0)"/>
       <use xlink:href="#DejaVuSans-30" transform="translate(318.115234 0)"/>
      </g>
     </g>
    </g>
    <g id="text_7">
     <!-- Step -->
     <g transform="translate(371.304844 418.316562) scale(0.1 -0.1)">
      <defs>
       <path id="DejaVuSans-53" d="M 3425 4513 
L 3425 3897 
Q 3066 4069 2747 4153 
Q 2428 4238 2131 4238 
Q 1616 4238 1336 4038 
Q 1056 3838 1056 3469 
Q 1056 3159 1242 3001 
Q 1428 2844 1947 2747 
L 2328 2669 
Q 3034 2534 3370 2195 
Q 3706 1856 3706 1288 
Q 3706 609 3251 259 
Q 2797 -91 1919 -91 
Q 1588 -91 1214 -16 
Q 841 59 441 206 
L 441 856 
Q 825 641 1194 531 
Q 1563 422 1919 422 
Q 2459 422 2753 634 
Q 3047 847 3047 1241 
Q 3047 1584 2836 1778 
Q 2625 1972 2144 2069 
L 1759 2144 
Q 1053 2284 737 2584 
Q 422 2884 422 3419 
Q 422 4038 858 4394 
Q 1294 4750 2059 4750 
Q 2388 4750 2728 4690 
Q 3069 4631 3425 4513 
z
" transform="scale(0.015625)"/>
       <path id="DejaVuSans-74" d="M 1172 4494 
L 1172 3500 
L 2356 3500 
L 2356 3053 
L 1172 3053 
L 1172 1153 
Q 1172 725 1289 603 
Q 1406 481 1766 481 
L 2356 481 
L 2356 0 
L 1766 0 
Q 1100 0 847 248 
Q 594 497 594 1153 
L 594 3053 
L 172 3053 
L 172 3500 
L 594 3500 
L 594 4494 
L 1172 4494 
z
" transform="scale(0.015625)"/>
       <path id="DejaVuSans-65" d="M 3597 1894 
L 3597 1613 
L 953 1613 
Q 991 1019 1311 708 
Q 1631 397 2203 397 
Q 2534 397 2845 478 
Q 3156 559 3463 722 
L 3463 178 
Q 3153 47 2828 -22 
Q 2503 -91 2169 -91 
Q 1331 -91 842 396 
Q 353 884 353 1716 
Q 353 2575 817 3079 
Q 1281 3584 2069 3584 
Q 2775 3584 3186 3129 
Q 3597 2675 3597 1894 
z
M 3022 2063 
Q 3016 2534 2758 2815 
Q 2500 3097 2075 3097 
Q 1594 3097 1305 2825 
Q 1016 2553 972 2059 
L 3022 2063 
z
" transform="scale(0.015625)"/>
       <path id="DejaVuSans-70" d="M 1159 525 
L 1159 -1331 
L 581 -1331 
L 581 3500 
L 1159 3500 
L 1159 2969 
Q 1341 3281 1617 3432 
Q 1894 3584 2278 3584 
Q 2916 3584 3314 3078 
Q 3713 2572 3713 1747 
Q 3713 922 3314 415 
Q 2916 -91 2278 -91 
Q 1894 -91 1617 61 
Q 1341 213 1159 525 
z
M 3116 1747 
Q 3116 2381 2855 2742 
Q 2594 3103 2138 3103 
Q 1681 3103 1420 2742 
Q 1159 2381 1159 1747 
Q 1159 1113 1420 752 
Q 1681 391 2138 391 
Q 2594 391 2855 752 
Q 3116 1113 3116 1747 
z
" transform="scale(0.015625)"/>
      </defs>
      <use xlink:href="#DejaVuSans-53"/>
      <use xlink:href="#DejaVuSans-74" transform="translate(63.476562 0)"/>
      <use xlink:href="#DejaVuSans-65" transform="translate(102.685547 0)"/>
      <use xlink:href="#DejaVuSans-70" transform="translate(164.208984 0)"/>
     </g>
    </g>
   </g>
   <g id="matplotlib.axis_2">
    <g id="ytick_1">
     <g id="line2d_7">
      <defs>
       <path id="m212758d98d" d="M 0 0 
L -3.5 0 
" style="stroke: #000000; stroke-width: 0.8"/>
      </defs>
      <g>
       <use xlink:href="#m212758d98d" x="56.18" y="356.936186" style="stroke: #000000; stroke-width: 0.8"/>
      </g>
     </g>
     <g id="text_8">
      <!-- 0.6 -->
      <g transform="translate(24.897188 360.735404) scale(0.1 -0.1)">
       <defs>
        <path id="DejaVuSans-2212" d="M 678 2272 
L 4684 2272 
L 4684 1741 
L 678 1741 
L 678 2272 
z
" transform="scale(0.015625)"/>
        <path id="DejaVuSans-2e" d="M 684 794 
L 1344 794 
L 1344 0 
L 684 0 
L 684 794 
z
" transform="scale(0.015625)"/>
       </defs>
       <use xlink:href="#DejaVuSans-2212"/>
       <use xlink:href="#DejaVuSans-30" transform="translate(83.789062 0)"/>
       <use xlink:href="#DejaVuSans-2e" transform="translate(147.412109 0)"/>
       <use xlink:href="#DejaVuSans-36" transform="translate(179.199219 0)"/>
      </g>
     </g>
    </g>
    <g id="ytick_2">
     <g id="line2d_8">
      <g>
       <use xlink:href="#m212758d98d" x="56.18" y="311.345034" style="stroke: #000000; stroke-width: 0.8"/>
      </g>
     </g>
     <g id="text_9">
      <!-- 0.4 -->
      <g transform="translate(24.897188 315.144253) scale(0.1 -0.1)">
       <use xlink:href="#DejaVuSans-2212"/>
       <use xlink:href="#DejaVuSans-30" transform="translate(83.789062 0)"/>
       <use xlink:href="#DejaVuSans-2e" transform="translate(147.412109 0)"/>
       <use xlink:href="#DejaVuSans-34" transform="translate(179.199219 0)"/>
      </g>
     </g>
    </g>
    <g id="ytick_3">
     <g id="line2d_9">
      <g>
       <use xlink:href="#m212758d98d" x="56.18" y="265.753883" style="stroke: #000000; stroke-width: 0.8"/>
      </g>
     </g>
     <g id="text_10">
      <!-- 0.2 -->
      <g transform="translate(24.897188 269.553101) scale(0.1 -0.1)">
       <use xlink:href="#DejaVuSans-2212"/>
       <use xlink:href="#DejaVuSans-30" transform="translate(83.789062 0)"/>
       <use xlink:href="#DejaVuSans-2e" transform="translate(147.412109 0)"/>
       <use xlink:href="#DejaVuSans-32" transform="translate(179.199219 0)"/>
      </g>
     </g>
    </g>
    <g id="ytick_4">
     <g id="line2d_10">
      <g>
       <use xlink:href="#m212758d98d" x="56.18" y="220.162731" style="stroke: #000000; stroke-width: 0.8"/>
      </g>
     </g>
     <g id="text_11">
      <!-- 0.0 -->
      <g transform="translate(33.276875 223.96195) scale(0.1 -0.1)">
       <use xlink:href="#DejaVuSans-30"/>
       <use xlink:href="#DejaVuSans-2e" transform="translate(63.623047 0)"/>
       <use xlink:href="#DejaVuSans-30" transform="translate(95.410156 0)"/>
      </g>
     </g>
    </g>
    <g id="ytick_5">
     <g id="line2d_11">
      <g>
       <use xlink:href="#m212758d98d" x="56.18" y="174.571579" style="stroke: #000000; stroke-width: 0.8"/>
      </g>
     </g>
     <g id="text_12">
      <!-- 0.2 -->
      <g transform="translate(33.276875 178.370798) scale(0.1 -0.1)">
       <use xlink:href="#DejaVuSans-30"/>
       <use xlink:href="#DejaVuSans-2e" transform="translate(63.623047 0)"/>
       <use xlink:href="#DejaVuSans-32" transform="translate(95.410156 0)"/>
      </g>
     </g>
    </g>
    <g id="ytick_6">
     <g id="line2d_12">
      <g>
       <use xlink:href="#m212758d98d" x="56.18" y="128.980428" style="stroke: #000000; stroke-width: 0.8"/>
      </g>
     </g>
     <g id="text_13">
      <!-- 0.4 -->
      <g transform="translate(33.276875 132.779646) scale(0.1 -0.1)">
       <use xlink:href="#DejaVuSans-30"/>
       <use xlink:href="#DejaVuSans-2e" transform="translate(63.623047 0)"/>
       <use xlink:href="#DejaVuSans-34" transform="translate(95.410156 0)"/>
      </g>
     </g>
    </g>
    <g id="ytick_7">
     <g id="line2d_13">
      <g>
       <use xlink:href="#m212758d98d" x="56.18" y="83.389276" style="stroke: #000000; stroke-width: 0.8"/>
      </g>
     </g>
     <g id="text_14">
      <!-- 0.6 -->
      <g transform="translate(33.276875 87.188495) scale(0.1 -0.1)">
       <use xlink:href="#DejaVuSans-30"/>
       <use xlink:href="#DejaVuSans-2e" transform="translate(63.623047 0)"/>
       <use xlink:href="#DejaVuSans-36" transform="translate(95.410156 0)"/>
      </g>
     </g>
    </g>
    <g id="ytick_8">
     <g id="line2d_14">
      <g>
       <use xlink:href="#m212758d98d" x="56.18" y="37.798125" style="stroke: #000000; stroke-width: 0.8"/>
      </g>
     </g>
     <g id="text_15">
      <!-- 0.8 -->
      <g transform="translate(33.276875 41.597343) scale(0.1 -0.1)">
       <use xlink:href="#DejaVuSans-30"/>
       <use xlink:href="#DejaVuSans-2e" transform="translate(63.623047 0)"/>
       <use xlink:href="#DejaVuSans-38" transform="translate(95.410156 0)"/>
      </g>
     </g>
    </g>
    <g id="text_16">
     <!-- losses/loss -->
     <g transform="translate(18.8175 234.42125) rotate(-90) scale(0.1 -0.1)">
      <defs>
       <path id="DejaVuSans-6c" d="M 603 4863 
L 1178 4863 
L 1178 0 
L 603 0 
L 603 4863 
z
" transform="scale(0.015625)"/>
       <path id="DejaVuSans-6f" d="M 1959 3097 
Q 1497 3097 1228 2736 
Q 959 2375 959 1747 
Q 959 1119 1226 758 
Q 1494 397 1959 397 
Q 2419 397 2687 759 
Q 2956 1122 2956 1747 
Q 2956 2369 2687 2733 
Q 2419 3097 1959 3097 
z
M 1959 3584 
Q 2709 3584 3137 3096 
Q 3566 2609 3566 1747 
Q 3566 888 3137 398 
Q 2709 -91 1959 -91 
Q 1206 -91 779 398 
Q 353 888 353 1747 
Q 353 2609 779 3096 
Q 1206 3584 1959 3584 
z
" transform="scale(0.015625)"/>
       <path id="DejaVuSans-73" d="M 2834 3397 
L 2834 2853 
Q 2591 2978 2328 3040 
Q 2066 3103 1784 3103 
Q 1356 3103 1142 2972 
Q 928 2841 928 2578 
Q 928 2378 1081 2264 
Q 1234 2150 1697 2047 
L 1894 2003 
Q 2506 1872 2764 1633 
Q 3022 1394 3022 966 
Q 3022 478 2636 193 
Q 2250 -91 1575 -91 
Q 1294 -91 989 -36 
Q 684 19 347 128 
L 347 722 
Q 666 556 975 473 
Q 1284 391 1588 391 
Q 1994 391 2212 530 
Q 2431 669 2431 922 
Q 2431 1156 2273 1281 
Q 2116 1406 1581 1522 
L 1381 1569 
Q 847 1681 609 1914 
Q 372 2147 372 2553 
Q 372 3047 722 3315 
Q 1072 3584 1716 3584 
Q 2034 3584 2315 3537 
Q 2597 3491 2834 3397 
z
" transform="scale(0.015625)"/>
       <path id="DejaVuSans-2f" d="M 1625 4666 
L 2156 4666 
L 531 -594 
L 0 -594 
L 1625 4666 
z
" transform="scale(0.015625)"/>
      </defs>
      <use xlink:href="#DejaVuSans-6c"/>
      <use xlink:href="#DejaVuSans-6f" transform="translate(27.783203 0)"/>
      <use xlink:href="#DejaVuSans-73" transform="translate(88.964844 0)"/>
      <use xlink:href="#DejaVuSans-73" transform="translate(141.064453 0)"/>
      <use xlink:href="#DejaVuSans-65" transform="translate(193.164062 0)"/>
      <use xlink:href="#DejaVuSans-73" transform="translate(254.6875 0)"/>
      <use xlink:href="#DejaVuSans-2f" transform="translate(306.787109 0)"/>
      <use xlink:href="#DejaVuSans-6c" transform="translate(340.478516 0)"/>
      <use xlink:href="#DejaVuSans-6f" transform="translate(368.261719 0)"/>
      <use xlink:href="#DejaVuSans-73" transform="translate(429.443359 0)"/>
      <use xlink:href="#DejaVuSans-73" transform="translate(481.542969 0)"/>
     </g>
    </g>
   </g>
   <g id="line2d_15">
    <path d="M 85.862727 216.330465 
L 88.833971 216.447747 
L 90.616718 216.570822 
L 91.210966 216.9463 
L 91.805215 217.139474 
L 92.399464 217.63802 
L 95.370708 219.005256 
L 96.559206 219.870607 
L 97.153454 220.204744 
L 99.53045 220.811078 
L 100.718947 221.415955 
L 101.313196 221.323582 
L 101.907445 221.106849 
L 102.501694 220.204826 
L 106.067186 213.516702 
L 106.661435 212.911072 
L 107.255684 213.195376 
L 108.444181 214.876655 
L 109.632679 216.320593 
L 110.821177 218.136843 
L 111.415425 218.855653 
L 112.603923 221.348593 
L 113.198172 221.618078 
L 113.792421 222.021935 
L 115.575167 223.711633 
L 116.763665 224.524024 
L 117.357913 225.000596 
L 117.952162 224.639284 
L 119.14066 223.517776 
L 119.734909 222.860681 
L 120.923406 222.184244 
L 122.706153 219.774805 
L 123.89465 218.840417 
L 124.488899 219.428071 
L 125.083148 219.808501 
L 125.677396 219.98295 
L 126.271645 220.338004 
L 127.460143 220.397004 
L 128.054392 220.72346 
L 128.64864 221.301124 
L 129.242889 221.715819 
L 129.837138 221.64278 
L 131.619884 224.534615 
L 132.214133 225.514279 
L 134.591128 226.01092 
L 135.185377 225.540923 
L 136.373875 224.041197 
L 136.968124 223.242175 
L 139.345119 221.363967 
L 141.127865 221.174653 
L 142.910612 219.973025 
L 144.099109 218.731358 
L 144.693358 218.282838 
L 145.287607 218.084896 
L 145.881855 218.026405 
L 146.476104 217.617415 
L 147.070353 217.893139 
L 148.258851 219.118002 
L 148.853099 219.177561 
L 149.447348 219.691861 
L 151.230095 220.030419 
L 151.824343 219.948891 
L 152.418592 219.700946 
L 153.012841 219.129721 
L 153.60709 218.821228 
L 154.795587 218.477549 
L 155.389836 218.168632 
L 155.984085 218.215374 
L 156.578334 218.060098 
L 157.172583 217.736029 
L 157.766831 216.992961 
L 158.36108 216.045359 
L 158.955329 215.615032 
L 160.143827 215.718977 
L 160.738075 216.026364 
L 161.926573 217.161234 
L 163.115071 218.90943 
L 164.897817 221.699542 
L 165.492066 222.483111 
L 166.680563 224.373583 
L 167.274812 224.104263 
L 167.869061 223.490135 
L 168.46331 222.610663 
L 169.651807 219.954543 
L 172.028802 214.145797 
L 172.623051 214.005804 
L 173.2173 214.414132 
L 173.811549 215.26531 
L 175.000046 217.675463 
L 176.188544 219.955587 
L 177.377042 221.841802 
L 179.159788 225.111628 
L 179.754037 225.028184 
L 183.31953 220.990492 
L 184.508027 218.638374 
L 185.696525 216.699304 
L 188.07352 212.393722 
L 189.262017 211.831 
L 189.856266 212.002703 
L 193.421759 216.694296 
L 194.016008 217.032567 
L 194.610257 217.772452 
L 195.204505 218.102104 
L 195.798754 218.139315 
L 196.987252 217.536846 
L 198.175749 217.558959 
L 198.769998 217.447606 
L 199.364247 217.128112 
L 199.958496 216.980542 
L 200.552745 217.317473 
L 201.741242 218.293707 
L 202.92974 218.792754 
L 204.712486 220.011004 
L 205.306735 219.999326 
L 205.900984 220.402237 
L 206.495233 220.533424 
L 207.68373 221.2257 
L 208.277979 221.760443 
L 208.872228 222.106318 
L 209.466476 222.213418 
L 210.060725 222.483771 
L 211.249223 223.568987 
L 211.843472 223.418804 
L 212.43772 223.487479 
L 213.031969 223.273136 
L 214.814716 223.251417 
L 215.408964 222.771703 
L 216.597462 222.079827 
L 217.191711 222.47572 
L 218.974457 221.204726 
L 219.568706 220.466913 
L 220.162955 220.130151 
L 220.757204 219.993102 
L 221.351452 220.0093 
L 221.945701 220.782015 
L 223.134199 221.227615 
L 226.105443 224.477422 
L 226.699692 224.601531 
L 227.888189 225.042128 
L 228.482438 225.222126 
L 229.670935 225.747716 
L 230.265184 225.923157 
L 231.453682 227.140679 
L 232.047931 227.418338 
L 232.642179 227.104373 
L 233.236428 226.232172 
L 234.424926 225.072554 
L 235.019175 224.551203 
L 236.207672 222.952298 
L 236.801921 222.735508 
L 240.367414 220.285831 
L 240.961663 219.563698 
L 242.15016 219.425719 
L 243.338658 219.729822 
L 245.121404 220.869614 
L 246.309902 221.616857 
L 247.498399 222.908966 
L 248.092648 223.153061 
L 248.686897 222.681153 
L 249.875394 221.027702 
L 251.063892 219.362723 
L 252.846638 217.534644 
L 253.440887 216.668801 
L 255.817882 218.0982 
L 257.00638 219.278952 
L 257.600629 219.608462 
L 258.194878 220.514941 
L 258.789126 221.676809 
L 259.383375 222.07165 
L 261.76037 220.460152 
L 262.354619 220.227177 
L 262.948868 219.582961 
L 264.137366 217.208609 
L 264.731614 216.56329 
L 265.325863 216.360755 
L 265.920112 216.309383 
L 267.702858 217.391725 
L 268.891356 218.341858 
L 270.079853 219.698788 
L 270.674102 219.901462 
L 272.456849 219.479811 
L 274.239595 219.690722 
L 275.428093 220.289743 
L 276.022341 220.526137 
L 277.210839 221.280612 
L 278.399337 222.110077 
L 280.182083 223.418212 
L 280.776332 223.640976 
L 281.964829 224.541819 
L 283.747576 225.877686 
L 284.341825 225.592026 
L 284.936073 224.738321 
L 286.124571 223.347755 
L 286.71882 222.545651 
L 287.313069 221.542434 
L 287.907317 220.763864 
L 289.095815 219.669033 
L 290.284312 218.247521 
L 290.878561 217.965001 
L 292.067059 219.1694 
L 292.661308 219.105225 
L 294.444054 217.751153 
L 295.632552 217.658152 
L 296.2268 217.352238 
L 297.415298 215.372616 
L 298.603796 214.821317 
L 299.198044 214.63575 
L 299.792293 214.582415 
L 300.980791 213.767614 
L 305.734781 218.445611 
L 306.923279 218.26347 
L 308.111776 217.688463 
L 308.706025 217.170513 
L 309.300274 217.122754 
L 309.894523 217.296181 
L 310.488771 218.347573 
L 312.271518 222.366498 
L 312.865767 223.196248 
L 313.460015 224.367201 
L 314.648513 227.238517 
L 315.242762 226.67712 
L 315.837011 225.720097 
L 316.431259 224.487193 
L 318.808255 220.679749 
L 319.402503 219.689955 
L 320.591001 218.402988 
L 321.18525 218.28972 
L 322.373747 218.456012 
L 325.344991 218.950304 
L 326.533489 219.962026 
L 327.127738 220.316605 
L 327.721987 219.856027 
L 328.316235 219.612263 
L 329.504733 218.758714 
L 330.098982 219.075179 
L 331.881728 220.520484 
L 332.475977 221.083112 
L 333.070226 221.950393 
L 333.664474 223.014714 
L 334.258723 223.850092 
L 334.852972 223.783559 
L 335.447221 224.0912 
L 336.04147 224.048332 
L 336.635718 223.230275 
L 337.824216 221.305438 
L 338.418465 220.650919 
L 339.606962 220.252649 
L 340.79546 219.210284 
L 341.389709 218.393212 
L 342.578206 217.628093 
L 343.172455 217.497534 
L 343.766704 218.244991 
L 344.360953 218.658348 
L 344.955202 219.255597 
L 346.737948 221.874418 
L 347.332197 222.525212 
L 347.926446 222.744371 
L 348.520694 222.677201 
L 349.709192 221.901523 
L 350.89769 220.645453 
L 351.491938 220.305017 
L 352.086187 220.149995 
L 353.274685 220.877873 
L 355.057431 222.160567 
L 355.65168 222.100778 
L 356.245929 222.494732 
L 357.434426 224.296488 
L 358.028675 224.436699 
L 358.622924 224.239008 
L 359.217173 224.575693 
L 359.811421 225.143633 
L 361.594168 226.114861 
L 362.188417 226.239652 
L 362.782665 226.190397 
L 363.376914 225.757067 
L 365.159661 223.245441 
L 366.348158 221.258968 
L 366.942407 220.506549 
L 367.536656 220.308353 
L 368.130905 220.250606 
L 368.725153 220.031251 
L 369.319402 220.006182 
L 369.913651 219.779576 
L 370.5079 219.71601 
L 371.102149 219.809921 
L 371.696397 219.762501 
L 372.884895 220.383369 
L 373.479144 220.852668 
L 374.073392 221.114368 
L 374.667641 221.562671 
L 375.26189 221.851147 
L 376.450388 222.709786 
L 377.638885 221.884213 
L 378.233134 221.663295 
L 378.827383 221.813762 
L 379.421632 221.711828 
L 380.610129 221.077178 
L 381.204378 220.88754 
L 381.798627 220.84324 
L 382.987124 220.01706 
L 383.581373 219.933836 
L 384.175622 220.565467 
L 384.769871 220.953009 
L 385.36412 221.161476 
L 385.958368 221.089704 
L 386.552617 220.845596 
L 388.335364 220.914746 
L 388.929612 220.260776 
L 389.523861 219.407392 
L 391.306608 217.666519 
L 392.495105 217.237488 
L 393.089354 217.351853 
L 394.8721 221.115236 
L 396.060598 222.266253 
L 396.654847 223.488984 
L 398.437593 226.107919 
L 399.031842 226.520199 
L 401.408837 225.210248 
L 402.003086 225.037384 
L 403.191583 223.714391 
L 403.785832 223.004745 
L 404.97433 222.411021 
L 406.162827 221.188316 
L 406.757076 220.759506 
L 407.945574 219.565917 
L 408.539823 219.55062 
L 409.134071 220.056005 
L 409.72832 220.057346 
L 410.322569 220.224698 
L 411.511067 220.279601 
L 412.699564 220.557419 
L 413.293813 220.955578 
L 413.888062 221.532554 
L 415.076559 223.374968 
L 416.265057 224.811182 
L 417.453554 226.556473 
L 418.642052 226.704482 
L 419.236301 226.090111 
L 420.424798 224.035977 
L 422.207545 221.872599 
L 422.801794 220.935992 
L 423.396042 220.513365 
L 423.990291 220.440849 
L 424.58454 221.365853 
L 425.178789 221.791501 
L 426.961535 221.616179 
L 427.555784 221.674093 
L 428.744282 222.307742 
L 429.33853 222.278771 
L 429.932779 221.400273 
L 430.527028 220.887333 
L 431.121277 221.36595 
L 431.715526 221.630138 
L 432.904023 221.751957 
L 433.498272 221.528944 
L 434.686769 221.511903 
L 435.281018 221.278544 
L 436.469516 221.278863 
L 438.846511 221.571128 
L 439.44076 221.333657 
L 440.035009 220.965518 
L 440.629257 220.836421 
L 441.817755 219.395538 
L 443.600501 216.79379 
L 445.383248 216.086721 
L 445.977497 216.096472 
L 447.165994 217.948846 
L 447.760243 218.654199 
L 448.948741 219.498998 
L 449.542989 219.750697 
L 450.731487 219.37393 
L 451.325736 219.344001 
L 451.919985 218.965086 
L 452.514233 217.872495 
L 454.29698 215.594095 
L 456.079726 213.789802 
L 456.673975 213.006866 
L 457.268224 212.633404 
L 457.862472 213.175603 
L 459.05097 214.851689 
L 459.645219 215.460324 
L 460.239468 216.303573 
L 461.427965 218.595362 
L 462.022214 218.791422 
L 462.616463 218.219407 
L 463.210712 218.187768 
L 463.80496 218.339283 
L 464.399209 218.372325 
L 464.993458 218.656893 
L 465.587707 219.307392 
L 466.181956 220.123404 
L 469.1532 222.131571 
L 470.341697 221.780069 
L 470.935946 221.835717 
L 472.124444 221.052528 
L 472.718692 221.051438 
L 473.312941 220.797202 
L 474.501439 219.866291 
L 475.095688 219.749297 
L 475.689936 219.431786 
L 476.878434 218.328045 
L 478.066931 217.101303 
L 478.66118 217.323645 
L 479.255429 217.842138 
L 480.443927 218.494675 
L 481.632424 219.516926 
L 483.415171 221.649118 
L 484.009419 221.139366 
L 485.197917 220.902599 
L 486.386415 220.609851 
L 487.574912 220.951226 
L 488.169161 220.904181 
L 489.357659 220.084398 
L 490.546156 220.780822 
L 491.140405 220.432601 
L 492.328903 219.494264 
L 492.923151 219.105606 
L 493.5174 218.55211 
L 494.111649 218.429888 
L 495.300147 218.975947 
L 496.488644 220.769057 
L 497.082893 220.997672 
L 497.677142 221.080244 
L 498.865639 221.708268 
L 499.459888 221.759628 
L 500.054137 221.504175 
L 500.648386 221.061691 
L 505.402376 215.504046 
L 505.996625 215.187214 
L 507.185122 216.141076 
L 508.37362 217.039611 
L 509.562118 218.261864 
L 510.156366 218.652153 
L 510.750615 218.728996 
L 511.344864 218.231957 
L 513.12761 215.85761 
L 513.721859 215.221794 
L 514.316108 214.777265 
L 514.910357 215.266277 
L 515.504606 215.932838 
L 517.287352 218.357814 
L 517.881601 218.638291 
L 518.475849 218.743002 
L 519.070098 219.620114 
L 519.664347 220.887715 
L 520.258596 221.377537 
L 520.852845 221.391082 
L 521.447093 220.997802 
L 522.041342 220.805853 
L 524.418337 221.560791 
L 525.012586 221.68795 
L 526.795333 222.589227 
L 527.389581 223.314256 
L 530.955074 224.818123 
L 531.549323 224.892288 
L 532.143572 224.698848 
L 532.737821 224.174877 
L 533.332069 224.033414 
L 533.926318 223.645457 
L 536.303313 221.224548 
L 536.897562 220.943642 
L 538.680308 221.05608 
L 539.868806 222.142784 
L 540.463055 222.097637 
L 541.057304 221.512827 
L 541.651552 221.384216 
L 542.245801 220.762232 
L 543.434299 219.127633 
L 545.217045 217.675488 
L 546.405543 216.285954 
L 548.188289 215.788187 
L 549.971036 216.025834 
L 550.565284 215.948237 
L 551.753782 216.488304 
L 554.130777 217.816629 
L 555.319275 218.047323 
L 556.507772 218.012754 
L 557.102021 218.358708 
L 558.290519 219.783173 
L 559.479016 220.698502 
L 560.073265 221.498767 
L 561.261763 222.465478 
L 561.856011 222.652805 
L 562.45026 222.483335 
L 564.827255 221.200904 
L 566.015753 221.217496 
L 566.610002 221.301486 
L 567.204251 221.255282 
L 567.798499 221.535378 
L 570.175495 221.93456 
L 571.363992 221.140716 
L 571.958241 220.666177 
L 573.146739 218.936084 
L 573.740987 218.313692 
L 574.929485 217.595683 
L 576.117983 216.097159 
L 576.712231 215.983371 
L 577.30648 216.047228 
L 578.494978 216.945338 
L 579.089226 216.993093 
L 579.683475 217.494514 
L 580.871973 218.808028 
L 581.466222 219.228946 
L 582.06047 219.786391 
L 583.843217 220.981902 
L 585.031714 220.305504 
L 585.625963 220.140004 
L 586.220212 220.158449 
L 586.814461 220.391766 
L 587.40871 220.432348 
L 588.597207 220.137803 
L 589.191456 219.925623 
L 589.785705 219.332066 
L 590.379954 218.282817 
L 590.974202 217.863936 
L 592.1627 217.636378 
L 593.945446 216.362078 
L 594.539695 216.641505 
L 595.133944 217.199566 
L 596.322442 218.518073 
L 597.510939 219.355228 
L 598.699437 220.594873 
L 599.293686 220.68201 
L 600.482183 220.487422 
L 601.670681 219.42281 
L 602.264929 219.299013 
L 602.859178 219.589151 
L 604.047676 220.43735 
L 605.236173 220.464519 
L 605.830422 220.704196 
L 606.424671 221.163722 
L 607.01892 222.026967 
L 607.613169 222.340466 
L 608.801666 222.606911 
L 609.395915 222.677747 
L 610.584413 223.107499 
L 611.178661 222.653549 
L 612.367159 220.201283 
L 612.961408 218.5671 
L 615.338403 214.668743 
L 615.932652 214.454557 
L 616.526901 214.439622 
L 617.121149 214.555802 
L 618.309647 215.517016 
L 618.903896 216.015246 
L 620.092393 217.430165 
L 620.686642 217.849414 
L 621.280891 217.777826 
L 622.469388 216.491699 
L 623.063637 215.734455 
L 624.252135 214.552691 
L 625.440632 212.813011 
L 626.034881 212.498353 
L 626.62913 212.495416 
L 627.817628 213.152045 
L 628.411876 213.669409 
L 629.600374 215.104649 
L 630.194623 215.578834 
L 630.788872 216.248214 
L 631.38312 216.713143 
L 631.977369 216.809351 
L 633.165867 217.454422 
L 633.760116 217.284772 
L 634.354364 217.466469 
L 634.948613 217.877108 
L 635.542862 217.815633 
L 636.137111 217.627481 
L 637.325608 217.796118 
L 637.919857 217.565061 
L 639.108355 217.502991 
L 639.702604 217.278248 
L 640.296852 217.185438 
L 642.079599 216.576091 
L 643.268096 217.152099 
L 644.456594 217.722697 
L 645.645091 217.821392 
L 646.23934 217.707243 
L 647.427838 218.135177 
L 648.616335 218.982109 
L 649.210584 219.294521 
L 650.993331 218.151771 
L 652.181828 217.020719 
L 652.776077 216.509543 
L 654.558823 216.493139 
L 655.747321 217.317979 
L 656.34157 217.788178 
L 656.935819 218.422205 
L 657.530067 218.438668 
L 658.124316 217.879309 
L 658.718565 217.082454 
L 659.907063 216.100149 
L 660.501311 215.343486 
L 661.09556 214.768108 
L 661.689809 214.418916 
L 662.284058 214.273507 
L 662.878306 214.378737 
L 664.066804 215.111092 
L 665.255302 214.747101 
L 665.84955 214.906342 
L 667.632297 216.407458 
L 668.226546 216.766439 
L 669.415043 218.773871 
L 670.009292 219.451676 
L 671.19779 220.577237 
L 671.792038 221.15983 
L 672.980536 221.924789 
L 674.763282 222.00057 
L 679.517273 221.187272 
L 679.517273 221.187272 
" clip-path="url(#pf49db7672b)" style="fill: none; stroke: #ff8c00; stroke-width: 1.5; stroke-linecap: square"/>
   </g>
   <g id="patch_3">
    <path d="M 56.18 390.04 
L 56.18 25.44 
" style="fill: none; stroke: #000000; stroke-width: 0.8; stroke-linejoin: miter; stroke-linecap: square"/>
   </g>
   <g id="patch_4">
    <path d="M 709.2 390.04 
L 709.2 25.44 
" style="fill: none; stroke: #000000; stroke-width: 0.8; stroke-linejoin: miter; stroke-linecap: square"/>
   </g>
   <g id="patch_5">
    <path d="M 56.18 390.04 
L 709.2 390.04 
" style="fill: none; stroke: #000000; stroke-width: 0.8; stroke-linejoin: miter; stroke-linecap: square"/>
   </g>
   <g id="patch_6">
    <path d="M 56.18 25.44 
L 709.2 25.44 
" style="fill: none; stroke: #000000; stroke-width: 0.8; stroke-linejoin: miter; stroke-linecap: square"/>
   </g>
   <g id="text_17">
    <!-- losses/loss for reinforce_atari (aggregated via interpolation over runs) -->
    <g transform="translate(172.526875 19.44) scale(0.12 -0.12)">
     <defs>
      <path id="DejaVuSans-20" transform="scale(0.015625)"/>
      <path id="DejaVuSans-66" d="M 2375 4863 
L 2375 4384 
L 1825 4384 
Q 1516 4384 1395 4259 
Q 1275 4134 1275 3809 
L 1275 3500 
L 2222 3500 
L 2222 3053 
L 1275 3053 
L 1275 0 
L 697 0 
L 697 3053 
L 147 3053 
L 147 3500 
L 697 3500 
L 697 3744 
Q 697 4328 969 4595 
Q 1241 4863 1831 4863 
L 2375 4863 
z
" transform="scale(0.015625)"/>
      <path id="DejaVuSans-72" d="M 2631 2963 
Q 2534 3019 2420 3045 
Q 2306 3072 2169 3072 
Q 1681 3072 1420 2755 
Q 1159 2438 1159 1844 
L 1159 0 
L 581 0 
L 581 3500 
L 1159 3500 
L 1159 2956 
Q 1341 3275 1631 3429 
Q 1922 3584 2338 3584 
Q 2397 3584 2469 3576 
Q 2541 3569 2628 3553 
L 2631 2963 
z
" transform="scale(0.015625)"/>
      <path id="DejaVuSans-69" d="M 603 3500 
L 1178 3500 
L 1178 0 
L 603 0 
L 603 3500 
z
M 603 4863 
L 1178 4863 
L 1178 4134 
L 603 4134 
L 603 4863 
z
" transform="scale(0.015625)"/>
      <path id="DejaVuSans-6e" d="M 3513 2113 
L 3513 0 
L 2938 0 
L 2938 2094 
Q 2938 2591 2744 2837 
Q 2550 3084 2163 3084 
Q 1697 3084 1428 2787 
Q 1159 2491 1159 1978 
L 1159 0 
L 581 0 
L 581 3500 
L 1159 3500 
L 1159 2956 
Q 1366 3272 1645 3428 
Q 1925 3584 2291 3584 
Q 2894 3584 3203 3211 
Q 3513 2838 3513 2113 
z
" transform="scale(0.015625)"/>
      <path id="DejaVuSans-63" d="M 3122 3366 
L 3122 2828 
Q 2878 2963 2633 3030 
Q 2388 3097 2138 3097 
Q 1578 3097 1268 2742 
Q 959 2388 959 1747 
Q 959 1106 1268 751 
Q 1578 397 2138 397 
Q 2388 397 2633 464 
Q 2878 531 3122 666 
L 3122 134 
Q 2881 22 2623 -34 
Q 2366 -91 2075 -91 
Q 1284 -91 818 406 
Q 353 903 353 1747 
Q 353 2603 823 3093 
Q 1294 3584 2113 3584 
Q 2378 3584 2631 3529 
Q 2884 3475 3122 3366 
z
" transform="scale(0.015625)"/>
      <path id="DejaVuSans-5f" d="M 3263 -1063 
L 3263 -1509 
L -63 -1509 
L -63 -1063 
L 3263 -1063 
z
" transform="scale(0.015625)"/>
      <path id="DejaVuSans-61" d="M 2194 1759 
Q 1497 1759 1228 1600 
Q 959 1441 959 1056 
Q 959 750 1161 570 
Q 1363 391 1709 391 
Q 2188 391 2477 730 
Q 2766 1069 2766 1631 
L 2766 1759 
L 2194 1759 
z
M 3341 1997 
L 3341 0 
L 2766 0 
L 2766 531 
Q 2569 213 2275 61 
Q 1981 -91 1556 -91 
Q 1019 -91 701 211 
Q 384 513 384 1019 
Q 384 1609 779 1909 
Q 1175 2209 1959 2209 
L 2766 2209 
L 2766 2266 
Q 2766 2663 2505 2880 
Q 2244 3097 1772 3097 
Q 1472 3097 1187 3025 
Q 903 2953 641 2809 
L 641 3341 
Q 956 3463 1253 3523 
Q 1550 3584 1831 3584 
Q 2591 3584 2966 3190 
Q 3341 2797 3341 1997 
z
" transform="scale(0.015625)"/>
      <path id="DejaVuSans-28" d="M 1984 4856 
Q 1566 4138 1362 3434 
Q 1159 2731 1159 2009 
Q 1159 1288 1364 580 
Q 1569 -128 1984 -844 
L 1484 -844 
Q 1016 -109 783 600 
Q 550 1309 550 2009 
Q 550 2706 781 3412 
Q 1013 4119 1484 4856 
L 1984 4856 
z
" transform="scale(0.015625)"/>
      <path id="DejaVuSans-67" d="M 2906 1791 
Q 2906 2416 2648 2759 
Q 2391 3103 1925 3103 
Q 1463 3103 1205 2759 
Q 947 2416 947 1791 
Q 947 1169 1205 825 
Q 1463 481 1925 481 
Q 2391 481 2648 825 
Q 2906 1169 2906 1791 
z
M 3481 434 
Q 3481 -459 3084 -895 
Q 2688 -1331 1869 -1331 
Q 1566 -1331 1297 -1286 
Q 1028 -1241 775 -1147 
L 775 -588 
Q 1028 -725 1275 -790 
Q 1522 -856 1778 -856 
Q 2344 -856 2625 -561 
Q 2906 -266 2906 331 
L 2906 616 
Q 2728 306 2450 153 
Q 2172 0 1784 0 
Q 1141 0 747 490 
Q 353 981 353 1791 
Q 353 2603 747 3093 
Q 1141 3584 1784 3584 
Q 2172 3584 2450 3431 
Q 2728 3278 2906 2969 
L 2906 3500 
L 3481 3500 
L 3481 434 
z
" transform="scale(0.015625)"/>
      <path id="DejaVuSans-64" d="M 2906 2969 
L 2906 4863 
L 3481 4863 
L 3481 0 
L 2906 0 
L 2906 525 
Q 2725 213 2448 61 
Q 2172 -91 1784 -91 
Q 1150 -91 751 415 
Q 353 922 353 1747 
Q 353 2572 751 3078 
Q 1150 3584 1784 3584 
Q 2172 3584 2448 3432 
Q 2725 3281 2906 2969 
z
M 947 1747 
Q 947 1113 1208 752 
Q 1469 391 1925 391 
Q 2381 391 2643 752 
Q 2906 1113 2906 1747 
Q 2906 2381 2643 2742 
Q 2381 3103 1925 3103 
Q 1469 3103 1208 2742 
Q 947 2381 947 1747 
z
" transform="scale(0.015625)"/>
      <path id="DejaVuSans-76" d="M 191 3500 
L 800 3500 
L 1894 563 
L 2988 3500 
L 3597 3500 
L 2284 0 
L 1503 0 
L 191 3500 
z
" transform="scale(0.015625)"/>
      <path id="DejaVuSans-75" d="M 544 1381 
L 544 3500 
L 1119 3500 
L 1119 1403 
Q 1119 906 1312 657 
Q 1506 409 1894 409 
Q 2359 409 2629 706 
Q 2900 1003 2900 1516 
L 2900 3500 
L 3475 3500 
L 3475 0 
L 2900 0 
L 2900 538 
Q 2691 219 2414 64 
Q 2138 -91 1772 -91 
Q 1169 -91 856 284 
Q 544 659 544 1381 
z
M 1991 3584 
L 1991 3584 
z
" transform="scale(0.015625)"/>
      <path id="DejaVuSans-29" d="M 513 4856 
L 1013 4856 
Q 1481 4119 1714 3412 
Q 1947 2706 1947 2009 
Q 1947 1309 1714 600 
Q 1481 -109 1013 -844 
L 513 -844 
Q 928 -128 1133 580 
Q 1338 1288 1338 2009 
Q 1338 2731 1133 3434 
Q 928 4138 513 4856 
z
" transform="scale(0.015625)"/>
     </defs>
     <use xlink:href="#DejaVuSans-6c"/>
     <use xlink:href="#DejaVuSans-6f" transform="translate(27.783203 0)"/>
     <use xlink:href="#DejaVuSans-73" transform="translate(88.964844 0)"/>
     <use xlink:href="#DejaVuSans-73" transform="translate(141.064453 0)"/>
     <use xlink:href="#DejaVuSans-65" transform="translate(193.164062 0)"/>
     <use xlink:href="#DejaVuSans-73" transform="translate(254.6875 0)"/>
     <use xlink:href="#DejaVuSans-2f" transform="translate(306.787109 0)"/>
     <use xlink:href="#DejaVuSans-6c" transform="translate(340.478516 0)"/>
     <use xlink:href="#DejaVuSans-6f" transform="translate(368.261719 0)"/>
     <use xlink:href="#DejaVuSans-73" transform="translate(429.443359 0)"/>
     <use xlink:href="#DejaVuSans-73" transform="translate(481.542969 0)"/>
     <use xlink:href="#DejaVuSans-20" transform="translate(533.642578 0)"/>
     <use xlink:href="#DejaVuSans-66" transform="translate(565.429688 0)"/>
     <use xlink:href="#DejaVuSans-6f" transform="translate(600.634766 0)"/>
     <use xlink:href="#DejaVuSans-72" transform="translate(661.816406 0)"/>
     <use xlink:href="#DejaVuSans-20" transform="translate(702.929688 0)"/>
     <use xlink:href="#DejaVuSans-72" transform="translate(734.716797 0)"/>
     <use xlink:href="#DejaVuSans-65" transform="translate(773.580078 0)"/>
     <use xlink:href="#DejaVuSans-69" transform="translate(835.103516 0)"/>
     <use xlink:href="#DejaVuSans-6e" transform="translate(862.886719 0)"/>
     <use xlink:href="#DejaVuSans-66" transform="translate(926.265625 0)"/>
     <use xlink:href="#DejaVuSans-6f" transform="translate(961.470703 0)"/>
     <use xlink:href="#DejaVuSans-72" transform="translate(1022.652344 0)"/>
     <use xlink:href="#DejaVuSans-63" transform="translate(1061.515625 0)"/>
     <use xlink:href="#DejaVuSans-65" transform="translate(1116.496094 0)"/>
     <use xlink:href="#DejaVuSans-5f" transform="translate(1178.019531 0)"/>
     <use xlink:href="#DejaVuSans-61" transform="translate(1228.019531 0)"/>
     <use xlink:href="#DejaVuSans-74" transform="translate(1289.298828 0)"/>
     <use xlink:href="#DejaVuSans-61" transform="translate(1328.507812 0)"/>
     <use xlink:href="#DejaVuSans-72" transform="translate(1389.787109 0)"/>
     <use xlink:href="#DejaVuSans-69" transform="translate(1430.900391 0)"/>
     <use xlink:href="#DejaVuSans-20" transform="translate(1458.683594 0)"/>
     <use xlink:href="#DejaVuSans-28" transform="translate(1490.470703 0)"/>
     <use xlink:href="#DejaVuSans-61" transform="translate(1529.484375 0)"/>
     <use xlink:href="#DejaVuSans-67" transform="translate(1590.763672 0)"/>
     <use xlink:href="#DejaVuSans-67" transform="translate(1654.240234 0)"/>
     <use xlink:href="#DejaVuSans-72" transform="translate(1717.716797 0)"/>
     <use xlink:href="#DejaVuSans-65" transform="translate(1756.580078 0)"/>
     <use xlink:href="#DejaVuSans-67" transform="translate(1818.103516 0)"/>
     <use xlink:href="#DejaVuSans-61" transform="translate(1881.580078 0)"/>
     <use xlink:href="#DejaVuSans-74" transform="translate(1942.859375 0)"/>
     <use xlink:href="#DejaVuSans-65" transform="translate(1982.068359 0)"/>
     <use xlink:href="#DejaVuSans-64" transform="translate(2043.591797 0)"/>
     <use xlink:href="#DejaVuSans-20" transform="translate(2107.068359 0)"/>
     <use xlink:href="#DejaVuSans-76" transform="translate(2138.855469 0)"/>
     <use xlink:href="#DejaVuSans-69" transform="translate(2198.035156 0)"/>
     <use xlink:href="#DejaVuSans-61" transform="translate(2225.818359 0)"/>
     <use xlink:href="#DejaVuSans-20" transform="translate(2287.097656 0)"/>
     <use xlink:href="#DejaVuSans-69" transform="translate(2318.884766 0)"/>
     <use xlink:href="#DejaVuSans-6e" transform="translate(2346.667969 0)"/>
     <use xlink:href="#DejaVuSans-74" transform="translate(2410.046875 0)"/>
     <use xlink:href="#DejaVuSans-65" transform="translate(2449.255859 0)"/>
     <use xlink:href="#DejaVuSans-72" transform="translate(2510.779297 0)"/>
     <use xlink:href="#DejaVuSans-70" transform="translate(2551.892578 0)"/>
     <use xlink:href="#DejaVuSans-6f" transform="translate(2615.369141 0)"/>
     <use xlink:href="#DejaVuSans-6c" transform="translate(2676.550781 0)"/>
     <use xlink:href="#DejaVuSans-61" transform="translate(2704.333984 0)"/>
     <use xlink:href="#DejaVuSans-74" transform="translate(2765.613281 0)"/>
     <use xlink:href="#DejaVuSans-69" transform="translate(2804.822266 0)"/>
     <use xlink:href="#DejaVuSans-6f" transform="translate(2832.605469 0)"/>
     <use xlink:href="#DejaVuSans-6e" transform="translate(2893.787109 0)"/>
     <use xlink:href="#DejaVuSans-20" transform="translate(2957.166016 0)"/>
     <use xlink:href="#DejaVuSans-6f" transform="translate(2988.953125 0)"/>
     <use xlink:href="#DejaVuSans-76" transform="translate(3050.134766 0)"/>
     <use xlink:href="#DejaVuSans-65" transform="translate(3109.314453 0)"/>
     <use xlink:href="#DejaVuSans-72" transform="translate(3170.837891 0)"/>
     <use xlink:href="#DejaVuSans-20" transform="translate(3211.951172 0)"/>
     <use xlink:href="#DejaVuSans-72" transform="translate(3243.738281 0)"/>
     <use xlink:href="#DejaVuSans-75" transform="translate(3284.851562 0)"/>
     <use xlink:href="#DejaVuSans-6e" transform="translate(3348.230469 0)"/>
     <use xlink:href="#DejaVuSans-73" transform="translate(3411.609375 0)"/>
     <use xlink:href="#DejaVuSans-29" transform="translate(3463.708984 0)"/>
    </g>
   </g>
   <g id="legend_1">
    <g id="patch_7">
     <path d="M 626.78125 62.79625 
L 702.2 62.79625 
Q 704.2 62.79625 704.2 60.79625 
L 704.2 32.44 
Q 704.2 30.44 702.2 30.44 
L 626.78125 30.44 
Q 624.78125 30.44 624.78125 32.44 
L 624.78125 60.79625 
Q 624.78125 62.79625 626.78125 62.79625 
z
" style="fill: #ffffff; opacity: 0.8; stroke: #cccccc; stroke-linejoin: miter"/>
    </g>
    <g id="line2d_16">
     <path d="M 628.78125 38.538437 
L 638.78125 38.538437 
L 648.78125 38.538437 
" style="fill: none; stroke: #ff8c00; stroke-width: 1.5; stroke-linecap: square"/>
    </g>
    <g id="text_18">
     <!-- Mean -->
     <g transform="translate(656.78125 42.038437) scale(0.1 -0.1)">
      <defs>
       <path id="DejaVuSans-4d" d="M 628 4666 
L 1569 4666 
L 2759 1491 
L 3956 4666 
L 4897 4666 
L 4897 0 
L 4281 0 
L 4281 4097 
L 3078 897 
L 2444 897 
L 1241 4097 
L 1241 0 
L 628 0 
L 628 4666 
z
" transform="scale(0.015625)"/>
      </defs>
      <use xlink:href="#DejaVuSans-4d"/>
      <use xlink:href="#DejaVuSans-65" transform="translate(86.279297 0)"/>
      <use xlink:href="#DejaVuSans-61" transform="translate(147.802734 0)"/>
      <use xlink:href="#DejaVuSans-6e" transform="translate(209.082031 0)"/>
     </g>
    </g>
    <g id="patch_8">
     <path d="M 628.78125 56.716563 
L 648.78125 56.716563 
L 648.78125 49.716563 
L 628.78125 49.716563 
z
" style="fill: #ff8c00; fill-opacity: 0.3; stroke: #ff8c00; stroke-opacity: 0.3; stroke-linejoin: miter"/>
    </g>
    <g id="text_19">
     <!-- MinMax -->
     <g transform="translate(656.78125 56.716563) scale(0.1 -0.1)">
      <defs>
       <path id="DejaVuSans-2013" d="M 313 1978 
L 2888 1978 
L 2888 1528 
L 313 1528 
L 313 1978 
z
" transform="scale(0.015625)"/>
       <path id="DejaVuSans-78" d="M 3513 3500 
L 2247 1797 
L 3578 0 
L 2900 0 
L 1881 1375 
L 863 0 
L 184 0 
L 1544 1831 
L 300 3500 
L 978 3500 
L 1906 2253 
L 2834 3500 
L 3513 3500 
z
" transform="scale(0.015625)"/>
      </defs>
      <use xlink:href="#DejaVuSans-4d"/>
      <use xlink:href="#DejaVuSans-69" transform="translate(86.279297 0)"/>
      <use xlink:href="#DejaVuSans-6e" transform="translate(114.0625 0)"/>
      <use xlink:href="#DejaVuSans-2013" transform="translate(177.441406 0)"/>
      <use xlink:href="#DejaVuSans-4d" transform="translate(227.441406 0)"/>
      <use xlink:href="#DejaVuSans-61" transform="translate(313.720703 0)"/>
      <use xlink:href="#DejaVuSans-78" transform="translate(375 0)"/>
     </g>
    </g>
   </g>
  </g>
 </g>
 <defs>
  <clipPath id="pf49db7672b">
   <rect x="56.18" y="25.44" width="653.02" height="364.6"/>
  </clipPath>
 </defs>
</svg>
