<svg viewBox="0 0 330 200" xmlns="http://www.w3.org/2000/svg"><g><g><g><g><g><line x1="72.34375" y1="177" x2="67.34375" y2="177" style="visibility: inherit;" fill="rgb(0, 0, 0)" stroke="rgb(204, 204, 204)" stroke-width="1px"></line><line x1="72.34375" y1="157.33333333333331" x2="67.34375" y2="157.33333333333331" style="visibility: inherit;" fill="rgb(0, 0, 0)" stroke="rgb(204, 204, 204)" stroke-width="1px"></line><line x1="72.34375" y1="137.66666666666666" x2="67.34375" y2="137.66666666666666" style="visibility: inherit;" fill="rgb(0, 0, 0)" stroke="rgb(204, 204, 204)" stroke-width="1px"></line><line x1="72.34375" y1="118.00000000000001" x2="67.34375" y2="118.00000000000001" style="visibility: inherit;" fill="rgb(0, 0, 0)" stroke="rgb(204, 204, 204)" stroke-width="1px"></line><line x1="72.34375" y1="98.33333333333331" x2="67.34375" y2="98.33333333333331" style="visibility: inherit;" fill="rgb(0, 0, 0)" stroke="rgb(204, 204, 204)" stroke-width="1px"></line><line x1="72.34375" y1="78.66666666666666" x2="67.34375" y2="78.66666666666666" style="visibility: inherit;" fill="rgb(0, 0, 0)" stroke="rgb(204, 204, 204)" stroke-width="1px"></line><line x1="72.34375" y1="58.999999999999986" x2="67.34375" y2="58.999999999999986" style="visibility: inherit;" fill="rgb(0, 0, 0)" stroke="rgb(204, 204, 204)" stroke-width="1px"></line><line x1="72.34375" y1="39.33333333333333" x2="67.34375" y2="39.33333333333333" style="visibility: inherit;" fill="rgb(0, 0, 0)" stroke="rgb(204, 204, 204)" stroke-width="1px"></line><line x1="72.34375" y1="19.666666666666675" x2="67.34375" y2="19.666666666666675" style="visibility: inherit;" fill="rgb(0, 0, 0)" stroke="rgb(204, 204, 204)" stroke-width="1px"></line></g><g transform="translate(62.34375, 0)"><text x="0" y="177" dx="0em" dy="0.3em" style="text-anchor: end; visibility: hidden; font-family: Roboto, sans-serif; font-size: 12px; font-weight: 200;" fill="rgb(33, 33, 33)" stroke="none" stroke-width="1px">8e-5</text><text x="0" y="157.33333333333331" dx="0em" dy="0.3em" style="text-anchor: end; visibility: inherit; font-family: Roboto, sans-serif; font-size: 12px; font-weight: 200;" fill="rgb(33, 33, 33)" stroke="none" stroke-width="1px">1e-4</text><text x="0" y="137.66666666666666" dx="0em" dy="0.3em" style="text-anchor: end; visibility: hidden; font-family: Roboto, sans-serif; font-size: 12px; font-weight: 200;" fill="rgb(33, 33, 33)" stroke="none" stroke-width="1px">1.2e-4</text><text x="0" y="118.00000000000001" dx="0em" dy="0.3em" style="text-anchor: end; visibility: inherit; font-family: Roboto, sans-serif; font-size: 12px; font-weight: 200;" fill="rgb(33, 33, 33)" stroke="none" stroke-width="1px">1.4e-4</text><text x="0" y="98.33333333333331" dx="0em" dy="0.3em" style="text-anchor: end; visibility: hidden; font-family: Roboto, sans-serif; font-size: 12px; font-weight: 200;" fill="rgb(33, 33, 33)" stroke="none" stroke-width="1px">1.6e-4</text><text x="0" y="78.66666666666666" dx="0em" dy="0.3em" style="text-anchor: end; visibility: inherit; font-family: Roboto, sans-serif; font-size: 12px; font-weight: 200;" fill="rgb(33, 33, 33)" stroke="none" stroke-width="1px">1.8e-4</text><text x="0" y="58.999999999999986" dx="0em" dy="0.3em" style="text-anchor: end; visibility: hidden; font-family: Roboto, sans-serif; font-size: 12px; font-weight: 200;" fill="rgb(33, 33, 33)" stroke="none" stroke-width="1px">2e-4</text><text x="0" y="39.33333333333333" dx="0em" dy="0.3em" style="text-anchor: end; visibility: inherit; font-family: Roboto, sans-serif; font-size: 12px; font-weight: 200;" fill="rgb(33, 33, 33)" stroke="none" stroke-width="1px">2.2e-4</text><text x="0" y="19.666666666666675" dx="0em" dy="0.3em" style="text-anchor: end; visibility: hidden; font-family: Roboto, sans-serif; font-size: 12px; font-weight: 200;" fill="rgb(33, 33, 33)" stroke="none" stroke-width="1px">2.4e-4</text></g><line x1="72.34375" y1="0" x2="72.34375" y2="177" fill="rgb(0, 0, 0)" stroke="rgb(204, 204, 204)" stroke-width="1px"></line></g></g><g transform="translate(72, 0)" clip-path="url(#clip_0)"><clipPath id="clip_0"><rect width="257" height="177"></rect></clipPath><g><g><g><line x1="0" y1="0" x2="0" y2="177" fill="rgb(0, 0, 0)" stroke="rgb(66, 66, 66)" stroke-width="1px" opacity="0.25"></line><line x1="21.471354166666664" y1="0" x2="21.471354166666664" y2="177" fill="rgb(0, 0, 0)" stroke="rgb(66, 66, 66)" stroke-width="1px" opacity="0.25"></line><line x1="42.94270833333333" y1="0" x2="42.94270833333333" y2="177" fill="rgb(0, 0, 0)" stroke="rgb(66, 66, 66)" stroke-width="1px" opacity="0.25"></line><line x1="64.4140625" y1="0" x2="64.4140625" y2="177" fill="rgb(0, 0, 0)" stroke="rgb(66, 66, 66)" stroke-width="1px" opacity="0.25"></line><line x1="85.88541666666666" y1="0" x2="85.88541666666666" y2="177" fill="rgb(0, 0, 0)" stroke="rgb(66, 66, 66)" stroke-width="1px" opacity="0.25"></line><line x1="107.35677083333334" y1="0" x2="107.35677083333334" y2="177" fill="rgb(0, 0, 0)" stroke="rgb(66, 66, 66)" stroke-width="1px" opacity="0.25"></line><line x1="128.828125" y1="0" x2="128.828125" y2="177" fill="rgb(0, 0, 0)" stroke="rgb(66, 66, 66)" stroke-width="1px" opacity="0.25"></line><line x1="150.29947916666669" y1="0" x2="150.29947916666669" y2="177" fill="rgb(0, 0, 0)" stroke="rgb(66, 66, 66)" stroke-width="1px" opacity="0.25"></line><line x1="171.77083333333331" y1="0" x2="171.77083333333331" y2="177" fill="rgb(0, 0, 0)" stroke="rgb(66, 66, 66)" stroke-width="1px" opacity="0.25"></line><line x1="193.2421875" y1="0" x2="193.2421875" y2="177" fill="rgb(0, 0, 0)" stroke="rgb(66, 66, 66)" stroke-width="1px" opacity="0.25"></line><line x1="214.71354166666669" y1="0" x2="214.71354166666669" y2="177" fill="rgb(0, 0, 0)" stroke="rgb(66, 66, 66)" stroke-width="1px" opacity="0.25"></line><line x1="236.18489583333331" y1="0" x2="236.18489583333331" y2="177" fill="rgb(0, 0, 0)" stroke="rgb(66, 66, 66)" stroke-width="1px" opacity="0.25"></line><line x1="257.65625" y1="0" x2="257.65625" y2="177" fill="rgb(0, 0, 0)" stroke="rgb(66, 66, 66)" stroke-width="1px" opacity="0.25"></line></g><g><line x1="0" y1="177" x2="257.65625" y2="177" fill="rgb(0, 0, 0)" stroke="rgb(66, 66, 66)" stroke-width="1px" opacity="0.25"></line><line x1="0" y1="157.33333333333331" x2="257.65625" y2="157.33333333333331" fill="rgb(0, 0, 0)" stroke="rgb(66, 66, 66)" stroke-width="1px" opacity="0.25"></line><line x1="0" y1="137.66666666666666" x2="257.65625" y2="137.66666666666666" fill="rgb(0, 0, 0)" stroke="rgb(66, 66, 66)" stroke-width="1px" opacity="0.25"></line><line x1="0" y1="118.00000000000001" x2="257.65625" y2="118.00000000000001" fill="rgb(0, 0, 0)" stroke="rgb(66, 66, 66)" stroke-width="1px" opacity="0.25"></line><line x1="0" y1="98.33333333333331" x2="257.65625" y2="98.33333333333331" fill="rgb(0, 0, 0)" stroke="rgb(66, 66, 66)" stroke-width="1px" opacity="0.25"></line><line x1="0" y1="78.66666666666666" x2="257.65625" y2="78.66666666666666" fill="rgb(0, 0, 0)" stroke="rgb(66, 66, 66)" stroke-width="1px" opacity="0.25"></line><line x1="0" y1="58.999999999999986" x2="257.65625" y2="58.999999999999986" fill="rgb(0, 0, 0)" stroke="rgb(66, 66, 66)" stroke-width="1px" opacity="0.25"></line><line x1="0" y1="39.33333333333333" x2="257.65625" y2="39.33333333333333" fill="rgb(0, 0, 0)" stroke="rgb(66, 66, 66)" stroke-width="1px" opacity="0.25"></line><line x1="0" y1="19.666666666666675" x2="257.65625" y2="19.666666666666675" fill="rgb(0, 0, 0)" stroke="rgb(66, 66, 66)" stroke-width="1px" opacity="0.25"></line></g></g></g><g><g><line x1="0" y1="255.6666666666667" x2="257.65625" y2="255.6666666666667" fill="rgb(0, 0, 0)" stroke="rgb(153, 153, 153)" stroke-width="1.5px"></line></g></g><g><g><line x1="21.471354166666664" y1="0" x2="21.471354166666664" y2="177" fill="rgb(0, 0, 0)" stroke="rgb(153, 153, 153)" stroke-width="1.5px"></line></g></g><g><g><g><g><g><path stroke="rgb(204, 51, 17)" stroke-width="2px" d="M22.027462239583333,157.33923128336514L22.315178385416665,157.34513390397964L22.463330729166668,157.34808163694106L22.512714843749997,157.3490689843893L22.6608671875,157.35201671735075L23.07955859375,157.35791933796523L24.36569270833333,157.3697174245026L24.56322916666667,157.3736525049123L24.657703124999998,157.3756200451171L24.810149739583334,157.3775804306303L25.02056901041667,157.37856777807852L25.327609374999998,157.38053531828336L25.6754453125,157.38643078420623L25.724829427083332,157.38741813165447L25.77421354166667,157.38839832441107L25.92880729166667,157.3893856718593L26.624479166666667,157.39823602543524L26.76833723958333,157.40118375839666L27.129055989583335,157.40413149135807L27.178440104166665,157.40511883880632L27.43394921875,157.40609903156292L27.483333333333334,157.40708637901116L27.73025390625,157.41200165217742L28.21980078125,157.4198646583051L28.269184895833334,157.42085200575337L28.7673203125,157.4267474716762L29.31483984375,157.43461763249556L29.666970052083336,157.43756536545698L29.716354166666665,157.43855271290522L30.06204296875,157.44543552627633L30.308963541666667,157.4503507994426L30.796363281250002,157.45821380557027L30.940221354166667,157.46116869322336L30.989605468750003,157.46214888597993L31.532830729166665,157.47099923955588L31.6273046875,157.4729667797607L31.676688802083333,157.4739469725173L31.726072916666666,157.47493431996554L32.06746744791667,157.48181713333665L32.47112890625,157.4867324065029L32.56989713541667,157.48869994670773L32.61928125,157.48968013946433L32.87264322916666,157.49361521987402L33.119563802083334,157.49853049304025L33.16894791666667,157.4995178404885L33.317100260416666,157.50246557344994L33.73364453125,157.50836819406445L33.78302864583333,157.50934838682102L33.98700651041666,157.51131592702586L34.130864583333334,157.51426365998728L34.294046875,157.51623120019212L34.34343098958333,157.51721854764037L34.44219921875,157.5191860878452L34.540967447916664,157.52114647335839L34.590351562500004,157.52213382080663L34.93174609375,157.52901663417774L35.659625,157.5368867949971L35.81207161458334,157.53786698775366L35.966665364583335,157.53884718051026L36.25652864583333,157.54278226091992L37.2184453125,157.5526199619441L37.26353515625,157.5536001547007L37.52333854166667,157.55556769490553L37.92914713541666,157.5595027753152L38.07729947916666,157.56245050827664L38.12668359375,157.5634307010332L38.176067708333335,157.56441804848146L38.31992578125,157.56736578144287L39.2668125,157.57916386798024L39.756359374999995,157.58506648859475L39.89592317708333,157.5880142215562L39.99469140625,157.589981761761L40.14284375,157.59096910920925L40.24161197916667,157.5929366494141L40.6452734375,157.59686457513212L41.042493489583336,157.60079965554178L41.23358854166667,157.60276719574662L41.789696614583335,157.60768246891288L42.87829427083333,157.62144809565507L43.12092057291667,157.62636336882133L43.1703046875,157.62735071626958L43.73929557291667,157.63128579667926L43.784385416666666,157.63226598943584L44.14510416666667,157.6362010698455L44.19448828125,157.6371812626021L44.29325651041667,157.63914880280694L44.43711458333333,157.64209653576836L44.77421484375,157.64701896362627L44.82359895833333,157.64799915638287L45.07910807291667,157.6489865038311L45.321734375,157.65390177699737L45.37111848958334,157.65488196975397L45.420502604166664,157.65586931720222L45.834899739583335,157.65881705016363L46.37383072916666,157.66766740373959L46.472598958333336,157.6696349439444L46.76890364583333,157.67553040986726L47.06520833333334,157.68143303048177L47.27133333333333,157.68241322323837L47.623463541666666,157.68831584385285L47.763027343750004,157.6912635768143L47.960563802083335,157.69519865722395L48.413609375,157.69913373763362L48.512377604166666,157.70110127783846L48.97401171875,157.70503635824812L49.02339583333333,157.70601655100472L49.07277994791667,157.70699674376132L49.231667968749996,157.70896428396614L49.6374765625,157.71388671182407L49.94022265625,157.71880198499034L50.05402083333333,157.7197821777469L51.320830729166666,157.73551534469394L51.66651953125,157.74239815806504L52.12171223958334,157.74830077867955L52.171096354166664,157.74928097143615L52.2655703125,157.751248511641L52.76155859375,157.75715113225547L53.476554687500006,157.76600148583142L53.57102864583333,157.76796902603624L53.62041276041667,157.76894921879284L53.76856510416667,157.77189695175426L54.064869791666666,157.77779957236876L54.442765625,157.78566973318812L54.49214973958333,157.78664992594472L54.6360078125,157.78959765890613L54.68539192708333,157.79058500635438L55.224322916666665,157.7994353599303L55.269412760416664,157.8004155526869L56.09820703125,157.81123344646767L56.246359375,157.81418117942908L56.29574348958333,157.81516852687733L56.394511718749996,157.81713606708217L56.488985677083335,157.81909645259535L57.227600260416665,157.8328692340292L57.564700520833334,157.83778450719547L57.75579557291666,157.8397520474003L57.959773437500004,157.84269978036173L58.054247395833336,157.84466732056657L58.296873697916666,157.84958259373283L58.54808854166667,157.85056994118108L58.94530859375,157.85646540710394L59.03548828125,157.85843294730876L59.080578125,157.85941314006536L59.175052083333334,157.86138068027017L59.22443619791667,157.86236802771842L59.53791796875,157.86531576067986L59.859988281250004,157.8672833008847L60.167028645833334,157.87219857405094L60.21641276041667,157.87318592149919L60.75104947916667,157.88203627507514L60.84981770833333,157.8839966605883L61.208389322916666,157.88793174099797L61.2577734375,157.88891908844624L61.30715755208333,157.88989928120282L61.504694010416664,157.89383436161248L61.69793619791667,157.89776944202217L61.7473203125,157.89874963477874L62.05221354166667,157.90169736774018L62.15098177083333,157.90366490794503L62.453727864583335,157.90563244814985L62.50311197916667,157.9066197955981L62.552496093749994,157.9075999883547L62.601880208333334,157.90858018111126L62.7006484375,157.9105477213161L62.75003255208333,157.91153506876435L63.04419010416667,157.9164503419306L63.09357421875,157.9174305346872L63.630358072916664,157.9243133480583L63.72912630208333,157.92628088826314L64.22726171875,157.93218350887764L64.48277083333333,157.9341510490825L64.93152213541667,157.93906632224875L65.17414843750001,157.943981595415L65.27291666666667,157.94594913561983L66.11244661458333,157.9577472221572L66.45384114583334,157.9646300355283L66.50322526041667,157.96561738297655L66.60199348958334,157.96758492318136L66.65137760416667,157.96856511593796L66.70076171875,157.9695524633862L66.75014583333333,157.9705326561428L66.8489140625,157.97250019634765L66.99277213541667,157.97544792930907L67.18601432291666,157.97938300971873L67.23539843750001,157.98036320247533L67.58967578125,157.984298282885L67.73782812500001,157.98725317053808L68.201609375,157.9911810962561L68.40988151041667,157.9941359839092L68.55803385416667,157.99511617666576L68.75771744791666,157.9970837168706L68.80710156250001,157.9980639096272L69.15923177083334,158.00003144983202L69.20861588541666,158.00101879728027L69.258,158.00199899003687L69.72392838541667,158.00494672299828L69.7733125,158.00593407044653L69.92575911458333,158.00691426320313L70.12329557291666,158.00888180340797L70.21776953125,158.0108493436128L70.26715364583333,158.01183669106103L70.60425390625001,158.01871950443214L70.90485286458333,158.02166723739356L71.30207291666666,158.02560231780322L71.44593098958333,158.02855005076466L71.54040494791667,158.0305175909695L71.63487890625001,158.03248513117433L71.937625,158.036420211584L72.39496484374999,158.040348137302L72.5431171875,158.0433030249551L72.59250130208333,158.0442832177117L72.64188541666667,158.0452634104683L72.69126953125,158.0462507579165L73.08204817708334,158.05215337853105L73.53509375,158.05804884445388L73.63386197916667,158.06001638465872L73.68324609375,158.0609965774153L74.31020963541667,158.06493165782499L74.45406770833333,158.06788654547805L74.50345182291667,158.06886673823465L74.64730989583333,158.07181447119606L74.69669401041666,158.0728018186443L74.74178385416667,158.0737820114009L74.8362578125,158.07574955160575L75.03379427083334,158.0777170918106L75.3258046875,158.08361971242508L75.46966276041667,158.08656744538652L75.519046875,158.0875476381431L75.66719921875,158.09050252579618L75.71658333333333,158.09148271855278L75.76596744791667,158.09247006600103L76.0214765625,158.0944304515142L76.07086067708333,158.09541779896244L76.36287109375,158.1013132648853L76.55181901041666,158.10524834529497L76.66132291666666,158.1062356927432L76.85885937500001,158.10820323294806L76.95333333333333,158.11016361846123L77.0521015625,158.11213115866607L77.10148567708333,158.11311850611432L77.15086979166666,158.11409869887092L77.20025390625,158.11508604631913L77.24963802083333,158.11606623907574L77.503,158.11901397203715L77.60176822916668,158.120981512242L77.69624218749999,158.12294905244684L77.84439453124999,158.12589678540826L77.94316276041667,158.1278643256131L77.98825260416668,158.12885167306135L78.03763671875001,158.12983186581792L78.32535286458334,158.13573448643245L78.37473697916666,158.13671467918903L78.47350520833334,158.13868221939387L78.62165755208333,158.1416299523553L78.81060546875,158.14556503276495L79.12838151041666,158.14851992041804L79.36671354166667,158.15146765337946L79.41609765625,158.15244784613606L79.50627734375,158.1544153863409L79.60075130208334,158.15638292654572L79.69522526041668,158.15835046675056L80.03876692708333,158.16326573991682L80.18691927083333,158.16621347287824L80.38445572916666,158.16818101308309L81.11662890625,158.18293398727354L81.31416536458333,158.1868690676832L81.41293359375,158.18883660788802L81.52243750000001,158.18981680064462L81.94112890625,158.1937518810543L82.36626171875,158.19571942125913L82.55950390625,158.19964734697714L82.65397786458333,158.201614887182L82.81286588541667,158.2035824273868L82.9524296875,158.20653016034825L83.04690364583332,158.2084977005531L83.25732291666667,158.2094850480013L83.56436328125,158.21145258820616L83.867109375,158.21538051392417L84.1634140625,158.21931559433386L84.50051432291667,158.22619840770494L84.54560416666666,158.2271857551532L84.59498828125,158.2281659479098L84.64437239583334,158.22915329535803L84.73884635416667,158.2311136808712L85.04803385416668,158.2340685685243L85.09741796875,158.23504876128086L85.24986458333332,158.2360361087291L85.52040364583334,158.23898384169055L85.56978776041667,158.23996403444713L85.61917187499999,158.2409513818954L85.77161848958333,158.24193157465197L86.32128515625,158.24980173547132L86.366375,158.2507819282279L86.6755625,158.25373681588098L87.45067838541667,158.2606196292521L87.59883072916668,158.2635673622135L88.14635026041667,158.27143036834119L88.29450260416667,158.27241771578943L88.39327083333333,158.27438525599428L88.44265494791667,158.27536544875088L88.4920390625,158.27635279619912L88.8012265625,158.27930052916054L88.84631640625,158.28028072191714L88.94508463541666,158.28224826212195L89.04385286458334,158.2842158023268L89.55487109375001,158.28913107549306L89.60425520833333,158.2901184229413L89.896265625,158.29405350335097L90.00576953125,158.29503369610757L90.05085937499999,158.29601388886417L90.26127864583333,158.2970012363124L90.50605208333333,158.29994896927383L90.55543619791666,158.30093631672207L90.60482031250001,158.30191650947867L91.01921744791667,158.3048642424401L91.06860156249999,158.30585158988833L91.56244270833334,158.31371459601604L91.75568489583334,158.3176496764257L91.85015885416666,158.31961721663052L91.94892708333333,158.32158475683536L91.99831119791666,158.32256494959196L92.30320442708334,158.32551983724503L92.45135677083333,158.32846757020647L92.50074088541666,158.32944776296304L92.55012500000001,158.3304351104113L92.59521484375,158.3314153031679L93.01175911458333,158.33437019082098L93.61295703125,158.34223319694865L93.71172526041667,158.3442007371535L94.10250390625,158.34813581756316L94.14759375,158.34911601031976L94.40095572916667,158.35206374328118L94.49972395833333,158.35403128348602L94.5984921875,158.35599882369084L95.10951041666667,158.36091409685713L95.44661067708333,158.3677969102282L95.55611458333334,158.36878425767645L95.86959635416666,158.3717319906379L95.96836458333334,158.3736995308427L96.52232552083333,158.37960215145722L96.74562760416667,158.38058234421382L96.84439583333334,158.38254988441867L96.93886979166666,158.38451742462348L97.13211197916667,158.38845250503314L97.42412239583334,158.39238043075116L97.522890625,158.394347970956L97.97808333333333,158.39926324412227L98.13267708333333,158.4002505915705L98.18206119791667,158.4012307843271L98.6179296875,158.40811359769822L98.66731380208334,158.40910094514643L98.96361848958334,158.41500356576097L99.15686067708334,158.418931491479L99.20624479166666,158.4199188389272L99.32004296875,158.4208990316838L99.91479947916666,158.42974938525975L100.01356770833333,158.43171692546457L100.16172005208333,158.434664658426L100.51385026041666,158.44056727904052L100.72426953125,158.4415474717971L100.91321744791667,158.44548255220676L101.05707552083334,158.4484302851682L101.10645963541667,158.44941763261644L101.31687890625,158.45039782537302L102.47418489583333,158.46416345211523L102.62233723958333,158.4671183397683L102.87355208333334,158.47006607272974L102.92293619791667,158.47105342017798L102.9723203125,158.47203361293455L103.11617838541666,158.474981345896L103.1655625,158.47596869334424L103.27077213541666,158.47694888610084L104.51396354166667,158.4946495932527L104.61273177083334,158.49661713345753L104.66211588541667,158.4975973262141L104.82100390625,158.49956486641895L104.87038802083335,158.5005522138672L105.11730859375,158.5034999468286L105.26546093750001,158.50644767979006L105.31055078125,158.5074350272383L105.40931901041667,158.50940256744315L105.60256119791667,158.51137010764796L105.70132942708334,158.51333049316116L105.79580338541668,158.51529803336598L105.99548697916667,158.51825292101907L106.0899609375,158.52021330653224L106.18872916666668,158.5221808467371L106.28749739583333,158.52414838694193L106.386265625,158.52611592714675L106.4764453125,158.5280834673516L107.68098828125,158.53791401368412L107.87423046875,158.54184909409378L108.26500911458334,158.54578417450347L108.31439322916667,158.54676436726004L108.36377734374999,158.54775171470828L108.45825130208333,158.54971925491313L108.602109375,158.55266698787455L108.74596744791666,158.55561472083596L108.84044140625,158.5575822610408L109.08736197916667,158.56052999400225L109.478140625,158.56643261461673L109.67352994791668,158.56840015482157L109.76800390625,158.57036769502642L109.81309375000001,158.57134788778302L109.96124609375,158.57430277543608L110.01063020833334,158.57528296819268L110.06001432291666,158.57626316094925L110.26828645833334,158.57921804860234L111.05843229166666,158.58708105473002L111.30105859375,158.59200348258796L111.45565234375,158.59396386810113L111.84428385416666,158.59986648871563L112.13629427083333,158.60380156912532L112.18567838541667,158.6047817618819L112.29518229166668,158.60576910933014L112.44977604166667,158.60674930208674L112.90067447916667,158.61265192270125L113.04882682291667,158.61559965566266L113.497578125,158.62248246903377L113.69296744791666,158.6244500092386L113.84111979166667,158.62739774220003L113.88620963541666,158.62838508964828L114.03436197916666,158.6313328226097L114.08374609375,158.63232017005794L114.42943489583332,158.6372354432242L114.47881901041667,158.6382156359808L114.528203125,158.63920298342904L114.67206119791666,158.64215071639046L114.81591927083333,158.64509844935188L114.86100911458333,158.64608579680012L114.91039322916667,158.64706598955672L114.95977734374999,158.64805333700497L115.00916145833334,158.64903352976157L115.30546614583334,158.65493615037607L115.59318229166666,158.6608316162989L115.98181380208334,158.6667342369134L116.28241276041666,158.6706693173231L116.38118098958333,158.67263685752795L116.98667317708333,158.67755213069418L117.285125,158.6814800564122L117.71669921875,158.68837002447495L117.81546744791666,158.69033040998815L118.16545052083333,158.6932852976412L118.39089973958333,158.69525283784606L118.44028385416667,158.69623303060266L118.74732421875,158.69918076356407L118.85682812499999,158.70016811101232L118.95559635416667,158.70213565121716L119.00498046874999,158.70311584397373L119.25404817708333,158.70606357693518L120.25461328125,158.72278409133045L120.50368098958333,158.72376428408705L120.55306510416666,158.72475163153527L120.79569140625,158.72966690470153L120.93525520833333,158.73261463766298L121.29382682291667,158.73654971807264L121.33891666666666,158.73752991082924L121.38830078125001,158.73851725827748L121.58583723958333,158.74245233868714L121.63522135416667,158.74343253144374L121.68031119791667,158.744419878892L121.77907942708333,158.74638026440516L121.87784765625,158.74834780461L121.97661588541666,158.75031534481482L122.07538411458333,158.75228288501967L122.46186848958334,158.76015304583902L122.80755729166667,158.76506831900528L122.85694140625,158.76604851176185L123.34434114583334,158.7748988653378L123.39372526041666,158.77588621278605L124.28478645833333,158.78669695187514L124.7700390625,158.7945671126945L124.81512890625,158.7955473054511L125.05775520833333,158.79850219310416L125.1565234375,158.800469733309L125.20590755208333,158.8014499260656L125.68901302083333,158.80932008688492L125.73410286458333,158.81030027964152L125.78348697916667,158.81128047239812L125.89084374999999,158.81226781984637L126.30094661458334,158.81521555280779L126.39542057291666,158.81718309301263L126.44051041666667,158.81816328576923L126.55001432291667,158.81915063321745L127.30365885416666,158.82701363934515L127.75670442708333,158.83193606720306L127.80608854166667,158.83291625995966L127.95424088541667,158.83586399292108L128.28704687500002,158.84274680629218L128.48673046874998,158.844714346497L129.19528515625,158.8545520475212L129.50661979166668,158.85946732068746L129.55600390625,158.86044751344403L129.71489192708333,158.86241505364887L129.76427604166668,158.86340240109712L130.06058072916667,158.86929786701998L130.10996484375,158.87028521446823L130.50074348958333,158.8761806803911L130.54583333333335,158.8771680278393L131.08905859375,158.88601838141525L131.38536328125,158.88995346182492L131.58934114583334,158.8919138473381L131.78687760416665,158.89584892774778L132.22704036458333,158.9046992813237L132.32580859375,158.90666682152855L132.63714322916667,158.90961455448996L132.79173697916667,158.9115820946948L132.84112109375,158.91256944214305L133.08804166666667,158.9174847153093L133.22760546875,158.92043244827073L133.73003515624998,158.925347721437L133.93401302083333,158.92731526164184L134.13154947916667,158.9312503420515L134.49441536458332,158.93321788225634L134.64900911458332,158.93419807501294L134.69839322916667,158.93518542246116L135.06770052083334,158.937152962666L135.16646874999998,158.93911334817918L135.52289322916667,158.9440357760371L135.76551953125,158.94698350899853L135.8642877604167,158.94895104920337L136.1069140625,158.9518987821648L136.25506640625,158.9548465151262L136.60934375,158.9587815955359L137.14398046875002,158.96566440890697L137.19336458333333,158.96665175635525L137.24274869791668,158.96763194911182L137.62923307291666,158.97451476248293L137.85468229166668,158.97648230268774L138.00712890625002,158.9784498428926L138.15098697916667,158.98139757585403L138.19607682291667,158.98238492330225L138.75862630208334,158.9882803892251L138.80801041666666,158.98926773667336L139.005546875,158.99320281708302L139.29326302083334,158.99713074280103L139.44141536458332,159.00008563045412L139.49079947916667,159.00106582321072L139.54018359375002,159.00205317065897L139.58956770833333,159.00303336341557L139.68404166666667,159.00500090362038L139.88801953125,159.0079486365818L140.44627473958332,159.0148314499529L140.49565885416666,159.01581879740115L140.89502604166665,159.0207340705674L141.09256249999999,159.02270161077226L141.14194661458333,159.02368180352883L141.19133072916668,159.0246691509771L141.63149348958333,159.03351950455303L141.82044140625,159.03744743027104L141.91920963541668,159.0394149704759L141.96859375000003,159.0404023179241L142.06736197916666,159.04236985812895L142.46672916666668,159.0472851312952L142.612734375,159.0482653240518L142.7072083333333,159.05023286425666L142.75229817708333,159.05122021170487L142.80168229166668,159.05220040446147L143.26975781250002,159.0551481374229L143.36852604166666,159.05711567762773L143.41791015625,159.05810302507598L143.46729427083332,159.05908321783258L144.33473697916668,159.0679335714085L144.48288932291666,159.07088130436992L145.14420703125,159.07973165794587L145.43621744791665,159.08563427856038L145.4856015625,159.08661447131698L145.9365,159.09251709193146L145.98588411458334,159.09349728468806L146.03526822916666,159.0944846321363L146.23065755208336,159.09645217234115L146.72449869791666,159.10234763826398L147.39011067708333,159.1082502588785L147.43949479166668,159.10923045163509L147.82168489583333,159.11710061245444L147.86677473958335,159.118080805211L148.07075260416667,159.1210356928641L148.21461067708333,159.12398342582551L148.40785286458333,159.1279185062352L148.50232682291667,159.12988604644005L148.7943372395833,159.13381397215807L149.25167708333333,159.13971659277254L149.78201953125,159.14365167318223L149.83140364583335,159.14463186593883L149.97526171875,159.1475867535919L150.17279817708334,159.14954713910507L150.41542447916666,159.15250202675816L150.82123307291667,159.15642995247617L151.02306380208333,159.15839749268102L151.12183203125,159.16036503288584L151.17121614583334,159.16135238033408L151.2206002604167,159.16233257309068L151.66076302083334,159.1692153864618L151.75523697916665,159.1711829266666L151.80462109375,159.1721631194232L152.1953997395833,159.1780657400377L152.24478385416666,159.17905308748595L152.35428776041667,159.18003328024255L152.6742109375,159.18200082044737L152.87174739583335,159.18396836065222L153.44288541666668,159.19576644718958L154.23732552083334,159.2046168007655L154.53363020833334,159.20855188117517L154.9415859375,159.21346715434146L154.99097005208333,159.21444734709803L155.33665885416667,159.21936977495594L155.38604296875002,159.22034996771254L155.4354270833333,159.22133016046914L155.624375,159.2252652408788L155.67375911458333,159.22625258832704L156.16330598958334,159.2321480542499L156.62708723958335,159.23608313465957L156.67647135416667,159.23706332741617L156.886890625,159.2380506748644L156.98136458333332,159.24001821506923L157.20466666666667,159.24099840782583L157.44729296875002,159.2459136809921L157.59115104166668,159.24886856864518L157.68991927083334,159.25083610885L157.93254557291667,159.25378384181144L158.17946614583335,159.25673157477286L158.32761848958333,159.25968646242595L158.42209244791664,159.26164684793912L158.91163932291667,159.26754946855363L159.06623307291667,159.26853681600187L159.31959505208334,159.27049720151504L159.41836328124998,159.2724647417199L160.1548307291667,159.2813150952958L160.19992057291665,159.28230244274408L160.2493046875,159.28328263550065L160.29868880208335,159.2842699829489L160.99006640624998,159.29803560969108L161.18330859374998,159.3019635354091L161.48176041666667,159.3058986158188L161.53114453125,159.30688596326704L161.77377083333334,159.30983369622845L161.8231549479167,159.31081388898505L161.97130729166668,159.3137687766381L162.07007552083334,159.31573631684296L162.16454947916665,159.31769670235613L162.41147005208333,159.32261913021406L162.55962239583334,159.32556686317548L162.65839062499998,159.32753440338033L162.70777473958333,159.3285145961369L162.80654296875,159.33048213634174L162.95469531249998,159.3334298693032L163.09855338541666,159.33638475695625L163.328296875,159.3383522971611L163.57951171874998,159.3413000301225L163.7276640625,159.34424776308396L163.77704817708334,159.34523511053217L163.92520052083333,159.34818284349362L164.07335286458334,159.35113057645503L164.52854557291667,159.35900073727439L164.73896484375,159.35998093003096L164.93650130208334,159.3619484702358L165.38095833333335,159.36686374340206L165.62787890625,159.37178617125997L165.7373828125,159.37276636401657L165.78676692708333,159.37374655677317L165.88553515625,159.375714096978L165.93491927083335,159.37670144442626L166.19042838541665,159.37866898463108L166.28919661458335,159.38063652483592L166.4330546875,159.38358425779734L166.48243880208332,159.38456445055394L166.67997526041665,159.3884995309636L167.28761458333332,159.39341480412986L167.3863828125,159.3953823443347L167.6783932291667,159.4012849649492L167.72777734375,159.4022651577058L167.77716145833332,159.40325250515403L167.82654557291667,159.40423269791063L167.87163541666666,159.40522004535887L168.172234375,159.4081677783203L168.27100260416668,159.41013531852514L168.47927473958333,159.41308305148658L168.52865885416668,159.41406324424315L168.83784635416666,159.41701813189624L168.93661458333332,159.41898567210106L169.03538281250002,159.4209532123059L169.0847669270833,159.4219334050625L169.13415104166666,159.42291359781908L169.33168750000002,159.42684867822877L169.52063541666666,159.43078375863843L169.77399739583333,159.43176395139503L169.82338151041665,159.43275129884327L170.17551171875002,159.43668637925293L170.22489583333333,159.43766657200953L170.3236640625,159.43963411221435L170.37304817708332,159.44061430497095L170.46752213541666,159.4425818451758L170.51690625,159.44356919262404L170.56199609375,159.4445493853806L170.6607643229167,159.44651692558546L170.70585416666665,159.44749711834206L171.07516145833335,159.4494646585469L171.53464843749998,159.45241954619996L171.94475130208335,159.45437993171313L171.98984114583334,159.45536727916138L172.38276692708334,159.46126989977589L172.43215104166666,159.46225009253249L172.48153515625,159.4632302852891L172.67477734374998,159.46716536569875L172.76925130208335,159.4691329059036L172.86801953124998,159.47110044610844L173.06555598958334,159.4750355265181L173.73116796875,159.4819183398892L174.01244270833334,159.48486607285062L174.11121093749998,159.48683361305544L174.20997916666667,159.48880115326028L174.25506901041666,159.48978134601688L174.45260546875,159.49371642642654L174.5513736979167,159.4956839666314L174.59646354166665,159.496664159388L174.64584765625,159.4976515068362L174.95074088541668,159.50059923979765L175.27925260416666,159.5045343202073L175.42525781249998,159.5055145129639L175.56911588541666,159.50846940061697L175.93842317708334,159.51141713357842L176.85095572916666,159.52124767991094L176.90033984375,159.5222350273592L177.14296614583333,159.5251827603206L177.29755989583333,159.52617010776885L177.396328125,159.52813049328202L177.54448046875,159.5310853809351L177.64324869791665,159.53305292113996L177.7914010416667,159.53403311389653L177.885875,159.53600065410137L177.93525911458335,159.53698084685797L177.98464322916666,159.53796819430622L178.03402734375,159.5389483870628L178.13279557291665,159.54091592726763L178.22726953125002,159.54288346747248L178.27665364583333,159.54386366022908L178.56651692708334,159.54779874063874L178.61160677083333,159.54878608808698L178.70608072916667,159.55074647360016L179.05821093749998,159.55370136125325L179.37169270833334,159.55566890145806L179.51984505208335,159.5586166344195L180.10816015625,159.57041472095685L180.36581640625,159.57434980136654L180.51396875,159.57729753432795L180.76088932291665,159.58221996218586L181.01639843750002,159.58418034769906L181.16025651041667,159.58713523535215L181.66698046875,159.59303070127498L181.81298567708333,159.59401804872323L181.90745963541667,159.59598558892807L182.11573177083332,159.5989333218895L182.26388411458333,159.60188105485094L182.31326822916668,159.60286840229915L182.36265234375,159.60384859505575L183.1313268229167,159.6126989486317L183.18071093749998,159.61368629607992L183.23009505208333,159.61466648883652L183.27947916666668,159.61564668159312L183.37395312499999,159.61761422179794L183.4641328125,159.61958176200278L183.72823046875,159.62253664965587L184.249984375,159.62745192282213L184.4432265625,159.62941946302695L184.49261067708335,159.63039965578355L184.54199479166667,159.63137984854015L184.59137890625,159.6323671959884L184.97356901041667,159.64023020211607L185.54470703125,159.64908055569202L185.85174739583334,159.65400298354993L186.337,159.6618659896776L186.48085807291665,159.66285333712585L186.6290104166667,159.66580107008727L186.826546875,159.66973615049696L186.97040494791665,159.67268388345838L187.36762499999998,159.67661896386804L187.83140625,159.67956669682948L187.97526432291667,159.6825144297909L188.0246484375,159.68350177723914L188.07403255208334,159.68448196999574L188.27156901041667,159.68644951020056L189.04024348958333,159.6943196710199L189.13901171875,159.6962800565331L189.3386953125,159.69824759673793L189.43746354166666,159.70021513694277L189.67579557291668,159.70513041010904L189.918421875,159.71005283796694L190.2920234375,159.71791584409465L190.44447005208335,159.71890319154286L190.49385416666667,159.71988338429946L191.06713932291666,159.72381846470913L191.206703125,159.72676619767057L191.61680598958333,159.729713930632L192.10635286458333,159.73758409145134L192.46921875,159.73955163165618L192.66675520833334,159.74348671206585L192.71613932291666,159.74446690482242L192.7655234375,159.74544709757902L192.81061328125,159.74643444502726L192.90938151041667,159.7484019852321L193.16918489583335,159.75036952543695L193.31304296875,159.75331725839837L193.81761979166666,159.75921987901287L194.01086197916666,159.76118026452605L194.35655078125,159.7680702325888L194.54979296875,159.77199815830681L194.64856119791668,159.77396569851166L194.83750911458336,159.77790077892132L195.04792838541664,159.77888097167792L195.14240234375,159.78084851188274L195.55465234374998,159.78380339953583L195.81445572916667,159.785763785049L195.96260807291668,159.7887186727021L196.16014453125,159.79068621290693L196.40706510416666,159.79363394586835L196.514421875,159.79461413862495L196.55951171875,159.7956014860732L197.28094921875,159.80543203240572L197.33033333333333,159.80641937985396L197.42480729166667,159.80837976536714L197.47419140625001,159.80936711281538L197.52357552083333,159.81034730557198L197.57295963541665,159.81133465302023L197.8155859375,159.81428238598164L197.86497005208332,159.8152697334299L198.06465364583335,159.81723011894306L198.53487630208335,159.82018500659615L198.63364453124998,159.822152546801L198.73241276041668,159.8241200870058L198.83118098958334,159.826080472519L199.33146354166666,159.83493082609493L199.38084765624998,159.83591817354318L199.52470572916667,159.8388659065046L199.62347395833334,159.84083344670944L199.78665625,159.84280098691428L199.8854244791667,159.84476852711913L200.19031770833334,159.84673606732395L200.23540755208333,159.84771626008055L200.48876953125,159.85066399304196L200.78077994791667,159.85656661365647L200.8301640625,159.85754680641307L201.18229427083335,159.86148188682273L201.32615234375,159.86443677447582L201.57092578125003,159.86738450743724L201.66539973958334,159.86935204764208L201.71478385416668,159.87033224039868L202.01108854166668,159.87426732080834L202.20003645833333,159.878202401218L202.34818880208334,159.88115013417945L202.39757291666666,159.88213032693602L202.44266276041668,159.88311767438427L202.48775260416667,159.88409786714087L202.63161067708333,159.88705275479393L202.82055859374998,159.89098068051194L202.91932682291667,159.8929482207168L203.11256901041668,159.89688330112645L203.15765885416667,159.89786349388305L203.30581119791665,159.90081838153614L203.60855729166667,159.9057336547024L203.75670963541666,159.90868138766382L203.80609375,159.90966873511206L203.99933593749998,159.9116362753169L204.09810416666667,159.91359666083008L204.29778776041667,159.91556420103493L204.34717187500002,159.91655154848317L204.49102994791667,159.9194992814446L204.5404140625,159.92048662889283L204.63918229166666,159.922447014406L204.78304036458334,159.9254019020591L204.8324244791667,159.9263820948157L204.92260416666667,159.92834963502054L205.58606901041668,159.93425225563502L205.72992708333334,159.93719998859646L205.87807942708332,159.94014772155788L205.92316927083334,159.94113506900612L206.2151796875,159.94507014941578L206.4986015625,159.95096561533865L207.45837109375,159.96375104932426L207.95865364583335,159.96768612973392L208.16263151041667,159.9696465152471L208.4653776041667,159.97456894310503L208.77456510416667,159.97751667606644L208.87333333333333,159.9794842162713L209.06657552083334,159.98341929668095L209.51747395833334,159.9883345698472L209.81377864583334,159.99226965025687L210.01131510416667,159.9961975759749L210.25394140625,159.99915246362798L211.05482291666667,160.00800281720393L211.82564453125,160.01389828312676L212.51916927083332,160.02373598415093L212.56855338541666,160.02471617690753L212.721,160.02570352435578L212.92497786458333,160.0286512573172L212.97436197916667,160.0296314500738L213.21698828125,160.03454672324006L213.31575651041666,160.0365142634449L213.60776692708333,160.04044934385456L213.65715104166668,160.0414366913028L213.70653515625,160.0424168840594L213.75591927083335,160.04339707681598L214.01572265624998,160.04438442426425L214.0608125,160.04536461702082L214.21540625,160.04635196446907L214.60189062499998,160.05421497059675L214.75004296875,160.05716985824984L215.20094140625,160.0630653241727L216.353953125,160.07683095091488L216.40333723958335,160.07781829836313L216.4484270833333,160.07879849111973L217.19992447916667,160.0856813044908L217.54561328124998,160.09059657765707L217.85480078125,160.09355146531016L217.9535690104167,160.095519005515L218.00295312499998,160.09649919827157L218.05233723958332,160.09748654571982L218.20263671875,160.09846673847642L218.5569140625,160.1024018188861L218.93480989583333,160.1102648250138L218.98419401041667,160.11125217246203L219.34920703125,160.11419990542345L219.43938671875,160.1161674456283L219.48877083333332,160.1171476383849L219.58753906249999,160.1191151785897L220.43565755208334,160.13091326512708L220.69116666666667,160.1328808053319L220.93808723958333,160.13583569298498L221.03256119791666,160.13780323318983L221.3653671875,160.1427185063561L221.61872916666667,160.1456662393175L221.76688151041665,160.14861397227892L222.2671640625,160.15746432585487L222.31225390625,160.15845167330312L222.55917447916667,160.16139940626454L222.91559895833333,160.16434713922598L223.0143671875,160.1663146794308L223.06375130208332,160.16730202687904L223.5812109375,160.1731974928019L223.78518880208333,160.17615238045497L223.83457291666667,160.17713257321157L224.14376041666668,160.18204784637783L224.24252864583332,160.18401538658267L224.444359375,160.18598292678752L224.86734505208332,160.18893065974893L224.91672916666667,160.18991800719718L224.96611328125002,160.19089819995375L225.4621015625,160.19778101332486L225.91944140625,160.20270344118276L226.01820963541667,160.20466382669596L226.06759375,160.2056511741442L226.17709765625,160.20663136690078L226.78044270833334,160.21056644731047L226.82982682291666,160.21154664006707L227.227046875,160.21744926068155L227.63070833333333,160.22138434109124L227.8840703125,160.22433207405265L227.93345442708332,160.2253194215009L228.03222265624998,160.22727980701407L228.64845052083334,160.23416977507682L228.69783463541665,160.23514996783342L229.00058072916667,160.24006524099968L229.91311328125002,160.25186332753705L230.26094921875,160.25678575539496L230.35971744791667,160.2587532955998L230.40910156249998,160.25973348835637L230.55295963541667,160.26268122131782L230.60234375000002,160.26366856876606L231.10262630208334,160.272518922342L231.45905078125,160.27841438826485L231.65658723958333,160.2823494686745L231.70597135416668,160.28333681612276L231.95933333333332,160.28726474184077L232.05810156249998,160.28923228204562L232.15257552083335,160.29119982225046L232.40379036458333,160.29316736245528L232.70653645833335,160.29513490266012L232.90622005208334,160.29808263562154L232.95560416666666,160.29906998306978L233.00498828125,160.30005017582639L233.15314062500002,160.3029979087878L233.2025247395833,160.30398525623605L233.24761458333333,160.30496544899265L233.29699869791668,160.3059527964409L233.60618619791666,160.3089005294023L233.6555703125,160.3098807221589L233.70495442708332,160.31086806960715L233.85310677083334,160.31381580256857L233.90249088541665,160.31480315001681L233.99696484375,160.31676353553001L234.04205468749998,160.31775088297823L234.33835937499998,160.32168596338792L234.647546875,160.32365350359277L234.69693098958334,160.32463369634934L234.74202083333333,160.32561388910594L234.93526302083336,160.3295489695156L235.02973697916667,160.33151650972044L235.29383463541666,160.33348404992526L235.4978125,160.3364317828867L236.09471614583333,160.34528213646263L236.193484375,160.34724967666747" style="fill: none;" fill="none"></path></g><g><path stroke="rgb(0, 119, 187)" stroke-width="2px" d="M22.027462239583333,9.848088940450285L22.072552083333335,9.850550154379228L22.51915625,9.862827605257415L22.663014322916666,9.870211247044281L22.712398437500003,9.872672460973243L22.959319010416667,9.880027483993505L23.058087239583333,9.88494991185141L23.255623697916665,9.89479476756724L24.037180989583334,9.924300715948121L24.45587239583333,9.934116952897345L24.657703124999998,9.939039380755249L24.816591145833332,9.943961808613174L25.027010416666666,9.946423022542136L25.224546875,9.95134545040004L25.73341796875,9.966084115207169L25.877276041666665,9.96854532913613L25.92666015625,9.971006543065094L25.976044270833334,9.973467756994056L26.025428385416667,9.975928970922999L26.51497526041667,9.99559006358805L26.6545390625,10.002945086608314L27.174145833333334,10.01032872839518L27.219235677083333,10.012789942324142L27.268619791666666,10.015251156253104L27.31800390625,10.017712370182046L27.719518229166667,10.029989821060234L28.213359375,10.04967953249189L28.262743489583336,10.052112127654228L28.659963541666666,10.066879411227982L29.31483984375,10.086540503893035L29.568201822916667,10.093924145679901L29.6175859375,10.096385359608863L29.963274739583333,10.113585238344955L30.111427083333332,10.120968880131821L30.210195312499998,10.125862689223121L30.86292447916667,10.145552400654779L31.011076822916667,10.15290742367504L31.0604609375,10.155368637604003L31.55644921875,10.177490944197999L31.655217447916666,10.182413372055922L31.704601562500002,10.184874585984865L31.74969140625,10.187335799913827L32.09538020833333,10.204535678649918L32.464687500000004,10.216841748294708L32.56345572916666,10.221764176152634L32.60854557291667,10.224196771314972L32.90055598958334,10.2340416270308L33.241950520833335,10.246319077908966L33.35145442708333,10.248780291837928L33.598375,10.256163933624796L33.95265234375,10.270902598431924L34.002036458333336,10.273363812360886L34.1008046875,10.278286240218812L34.24466276041667,10.285669882005678L34.34343098958333,10.290592309863602L34.39281510416667,10.293053523792544L34.54955598958333,10.297947332883844L34.648324218750005,10.302869760741768L34.69770833333333,10.305330974670731L35.21302083333333,10.322530853406821L35.76698177083333,10.34222056483848L35.81636588541667,10.344653160000817L35.861455729166664,10.347114373929779L36.058992187499996,10.356959229645607L36.85128515625,10.381542750168565L37.0123203125,10.384003964097527L37.2055625,10.388926391955453L37.398804687500004,10.398742628904657L37.546957031249995,10.406126270691523L37.596341145833335,10.408587484620485L37.64572526041667,10.411048698549447L37.8883515625,10.41840372156971L39.054246093749995,10.447909669950592L39.6146484375,10.462676953524324L39.86586328125,10.470031976544586L40.05910546875,10.474954404402512L40.207257812499996,10.477415618331454L40.42841276041667,10.482338046189378L40.72686458333333,10.492154283138582L40.9158125,10.501999138854432L41.01458072916667,10.506921566712336L41.25720703125,10.519199017590502L42.49180989583333,10.55362739382931L42.839645833333336,10.565904844707475L42.94485546875,10.568366058636437L43.40648958333333,10.578210914352265L43.45157942708333,10.580672128281229L43.70494140625,10.590488365230433L43.75432552083333,10.592949579159395L43.848799479166665,10.597872007017319L44.054924479166665,10.605255648804185L44.45643880208333,10.617533099682353L44.505822916666666,10.619994313611315L44.55520703125,10.622455527540277L44.95457421875,10.634761597185069L45.00395833333333,10.637194192347405L45.21008333333333,10.639655406276368L45.45700390625,10.647039048063235L45.99593489583333,10.66916135465725L46.094703125,10.674083782515154L46.648664062499996,10.688822447322282L47.041589843749996,10.703589730896036L47.25200911458334,10.706050944824998L47.64278776041667,10.720789609632128L47.790940104166665,10.728173251418994L47.9884765625,10.737989488368218L48.38784375,10.747834344084048L48.48661197916667,10.752756771941952L48.67985416666667,10.762573008891176L48.72923828125,10.765034222820137L48.77862239583333,10.76749543674908L48.87309635416667,10.772417864607004L49.44423437499999,10.784695315485171L49.691154947916665,10.797001385129962L49.83501302083333,10.799462599058923L49.88439713541666,10.801923812987887L50.777605468750004,10.838784784389011L51.114705729166666,10.856013281891727L51.505484375,10.870751946698855L51.554868489583335,10.873213160627817L51.64504817708333,10.878135588485721L52.01435546875,10.88302939757702L52.20759765625,10.89287425329285L52.808795572916665,10.914996559886866L53.00633203125,10.91991898774477L53.05571614583333,10.922380201673732L53.304783854166665,10.929763843460599L53.85445052083333,10.944502508267748L54.6102421875,10.96416360093278L54.65962630208333,10.966624814861742L54.80777864583333,10.97400845664861L54.85286848958334,10.976469670577572L55.35315104166666,10.998591977171587L55.402535156249996,11.00105319110053L56.45677864583333,11.028069306785845L56.70584635416667,11.035452948572711L56.750936197916666,11.037914162501673L56.84970442708334,11.042836590359578L57.049388020833334,11.047759018217501L57.89750651041667,11.082158775689685L58.135838541666665,11.094464845334475L58.230312500000004,11.099387273192379L58.37846484375,11.10674229621264L58.576001302083334,11.111664724070566L58.921690104166665,11.123970793715337L58.97107421875,11.126403388877694L59.42411979166666,11.141170672451429L59.522888020833335,11.146093100309352L59.73330729166667,11.148554314238314L59.83207552083333,11.153448123329614L60.038200520833335,11.155909337258556L60.24217838541667,11.163292979045444L60.34094661458333,11.168215406903348L60.5878671875,11.180492857781534L60.63295703125,11.182954071710476L61.131092447916664,11.205076378304492L61.22556640625,11.209998806162396L61.423102864583335,11.219843661878246L61.47248697916667,11.222304875807188L61.52187109374999,11.224737470969545L61.710819010416664,11.234582326685373L61.908355468749996,11.244427182401203L61.957739583333336,11.246888396330165L62.10159765625,11.254243419350408L62.200365885416666,11.259165847208331L62.29913411458333,11.264088275066236L62.44728645833334,11.266549488995198L62.49667057291666,11.26901070292416L62.546054687499996,11.271471916853123L62.64482291666667,11.276365725944423L62.69420703125,11.278826939873385L62.99265885416666,11.291133009518155L63.04204296875,11.293594223447117L63.68618359375,11.303410460396343L63.98678255208333,11.310794102183209L64.08555078125,11.315716530041133L64.54503776041666,11.330455194848263L64.63951171875,11.335377622706167L64.98520052083333,11.347655073584352L65.18273697916666,11.357499929300182L65.23212109375,11.359961143229144L65.32230078125001,11.364883571087049L66.03300260416665,11.394360900701306L66.37869140625,11.411589398204022L66.42378124999999,11.414050612132984L66.51825520833333,11.418944421224284L66.62775911458333,11.421405635153226L66.67714322916666,11.423866849082188L66.72223307291667,11.42632806301115L66.82100130208335,11.431250490869054L67.19675,11.438634132655942L67.3899921875,11.448450369605146L67.43937630208333,11.450911583534108L67.63691276041666,11.460756439249936L67.78506510416666,11.468111462270198L68.24240494791665,11.477956317986028L68.38196875000001,11.485339959772894L68.43135286458333,11.487801173701856L68.62888932291666,11.492694982793155L68.6782734375,11.495156196722117L68.77704166666668,11.500078624580043L68.98316666666666,11.502539838508985L69.02825651041667,11.505001052437947L69.17640885416667,11.512384694224814L69.386828125,11.514845908153776L69.43621223958334,11.517278503316113L69.696015625,11.522200931174037L69.89355208333333,11.527123359031963L69.93864192708334,11.529584572960905L70.53554557291666,11.546784451696995L70.88767578125,11.554168093483883L71.08521223958333,11.56401294919971L71.2290703125,11.571367972219953L71.31925,11.576290400077877L71.41801822916666,11.581212827935802L71.97842057291666,11.591029064885007L72.33484505208334,11.600873920600835L72.58820703125001,11.608257562387722L72.63759114583333,11.610718776316665L72.68697526041667,11.613179990245627L72.73635937499999,11.615612585407964L73.29890885416665,11.630379868981716L73.68968749999999,11.645118533788846L73.78845572916667,11.65004096164677L73.83783984375,11.652502175575712L74.45621484374999,11.662347031291562L74.76754947916668,11.669702054311804L74.81263932291667,11.672163268240766L75.12612109374999,11.679546910027632L75.17550520833333,11.682008123956594L75.38163020833332,11.684469337885556L75.57487239583334,11.689363146976856L75.77240885416666,11.694285574834781L76.39078385416666,11.709052858408514L76.63341015625,11.716407881428776L76.68279427083333,11.71886909535774L76.82665234375001,11.726252737144605L76.87603645833333,11.728713951073567L76.92542057291666,11.73117516500253L77.02418880208333,11.736097592860434L77.23031380208334,11.738530188022771L77.52661848958333,11.753297471596525L77.71986067708333,11.763113708545749L77.76924479166667,11.765574922474691L77.86801302083335,11.770497350332615L77.96248697916666,11.77541977819054L78.06125520833334,11.780342206048445L78.11063932291665,11.782803419977407L78.1600234375,11.785236015139745L78.20940755208333,11.787697229068707L78.25879166666667,11.790158442997669L78.40694401041667,11.797542084784535L78.50571223958335,11.80246451264246L78.60448046875,11.807386940500365L78.96305208333334,11.814741963520627L79.0618203125,11.81966439137853L79.11120442708334,11.822125605307493L79.16058854166667,11.824586819236455L79.50413020833334,11.839325484043584L79.54922005208334,11.841786697972546L79.70381380208333,11.84670912583045L79.85196614583333,11.854092767617338L80.04950260416666,11.863909004566542L80.3501015625,11.871292646353428L80.55837369791666,11.878676288140294L80.70437890625,11.881137502069258L80.80314713541667,11.886031311160558L80.90191536458333,11.890953739018462L81.00068359375,11.895876166876386L81.5610859375,11.908153617754552L81.70923828125,11.91553725954144L81.96474739583333,11.920459687399344L83.42265234374999,11.957320658800487L83.68030859375,11.967165514516317L83.77478255208334,11.972087942374221L83.82416666666666,11.974549156303183L84.01311458333333,11.984365393252407L84.26862369791667,11.989287821110311L84.3180078125,11.991749035039273L84.46616015625,11.999132676826141L84.56492838541666,12.004055104684065L84.65940234375,12.008948913775365L84.8075546875,12.016332555562231L84.90632291666667,12.021254983420157L84.95570703125,12.023716197349119L85.258453125,12.028638625207023L85.5547578125,12.038454862156247L85.85535677083334,12.048299717872077L86.32557942708334,12.065499596608166L86.37496354166666,12.067960810537109L86.42434765624999,12.07042202446607L86.47373177083334,12.072883238395033L86.5725,12.077805666252958L86.72065234375,12.0851606892732L86.93107161458333,12.087621903202162L86.98045572916666,12.090083117131124L87.29608463541666,12.09746675891799L87.34546875000001,12.099927972846952L87.39485286458333,12.102389186775916L87.44423697916666,12.104821781938252L88.57792447916667,12.12451149336991L88.73037109375,12.126944088532248L88.8785234375,12.134327730319136L89.47972135416667,12.151527609055226L89.62787369791667,12.158911250842092L90.32569270833334,12.178572343507145L90.37507682291667,12.181033557436088L90.57261328125,12.185955985294012L90.62199739583333,12.188417199222975L90.67138151041667,12.190878413151937L90.98056901041667,12.198262054938803L91.02565885416666,12.200694650101141L91.11583854166668,12.205617077959065L91.313375,12.21053950581697L91.76427343750001,12.222845575461761L91.9703984375,12.2252781706241L92.38908984375,12.235123026339927L92.61239192708334,12.23758424026889L92.65748177083333,12.240045454197851L92.80992838541667,12.242506668126815L93.1685,12.249861691147077L93.21788411458334,12.252322905076019L93.26726822916666,12.25478411900498L93.51418880208334,12.262167760791847L93.62369270833334,12.264628974720809L94.32580598958333,12.284290067385863L94.52334244791668,12.29413492310169L94.61781640625,12.29902873219299L94.71229036458332,12.303951160050916L94.86044270833332,12.306412373979859L95.00859505208334,12.313796015766744L95.15674739583334,12.32117965755361L95.20613151041667,12.323612252715948L95.25551562499999,12.32607346664491L95.30060546875,12.328534680573874L95.81591796875,12.33591832236074L96.27111067708333,12.355579415025794L96.36987890625,12.360501842883698L96.46864713541667,12.365424270741622L96.56741536458334,12.370346698599526L96.61679947916667,12.372779293761884L96.97107682291667,12.38016293554875L97.16431901041666,12.385085363406676L97.42412239583334,12.39000779126458L97.97808333333333,12.402285242142746L98.47407161458332,12.419513739645462L98.52345572916667,12.4219463348078L98.77467057291668,12.429329976594666L98.87343880208333,12.43425240445259L99.16974348958334,12.44899106925972L99.21912760416667,12.451452283188681L99.3136015625,12.456374711046585L99.41236979166666,12.46129713890451L99.66573177083333,12.471113375853735L100.12092447916666,12.480958231569563L100.32490234375001,12.485880659427467L100.6276484375,12.498158110305654L100.67703255208333,12.500619324234597L100.72641666666667,12.503080538163559L101.06781119791667,12.520280416899649L101.1171953125,12.522741630828612L101.4006171875,12.537508914402345L101.59815364583334,12.547325151351568L101.64753776041667,12.549786365280532L101.696921875,12.552247579209494L102.19720442708334,12.574369885803488L102.29597265625,12.579292313661414L102.43983072916667,12.58667595544828L102.83919791666666,12.601414620255408L102.99164453125,12.603875834184372L103.29439062499999,12.6137206899002L103.43824869791666,12.621075712920462L103.4876328125,12.623536926849404L103.53701692708333,12.625998140778366L104.43451953125,12.660426517017173L104.78664973958334,12.667781540037415L104.93480208333334,12.675165181824301L104.98418619791666,12.677626395753244L105.0335703125,12.680087609682205L105.18172265625,12.687471251469093L105.2268125,12.689903846631431L105.27190234375,12.692365060560393L106.56877213541667,12.736638292515007L106.66754036458333,12.741532101606307L106.71692447916666,12.74399331553527L106.97672786458334,12.748915743393175L107.02181770833333,12.751376957322137L107.3782421875,12.758760599109003L107.58222005208333,12.766115622129265L107.63160416666668,12.768576836058227L107.73037239583334,12.773499263916152L107.82484635416667,12.778421691774057L108.01808854166667,12.78334411963198L108.1125625,12.78823792872328L108.26071484375001,12.795621570510146L108.45825130208333,12.800543998368072L108.76314453124999,12.805466426225976L108.91773828125001,12.8103888540839L109.01650651041666,12.8152826631752L109.11098046875,12.820205091033104L109.86033072916666,12.844788611556062L110.05357291666667,12.854633467271912L110.251109375,12.864449704221116L110.30049348958333,12.866910918150078L110.34987760416666,12.86937213207904L110.5474140625,12.874294559936944L110.8566015625,12.881678201723831L110.99616536458333,12.889033224744074L111.09063932291666,12.893955652601997L111.34400130208333,12.901339294388864L111.900109375,12.916077959195993L111.99887760416667,12.921000387053917L112.1964140625,12.925922814911821L112.24579817708333,12.928384028840783L112.39395052083333,12.935739051861045L112.50345442708333,12.938200265790009L112.55283854166667,12.94066147971897L112.79546484375001,12.948045121505837L113.41598697916666,12.96770621417089L113.72732161458333,12.980012283815661L113.82608984375,12.98490609290696L114.38219791666667,12.999673376480715L114.67850260416667,13.009489613429938L114.88892187500001,13.01195082735888L115.04136848958333,13.014412041287843L115.19596223958334,13.016873255216804L115.59747656249999,13.031611920023934L115.73704036458334,13.0389955618108L116.177203125,13.056195440546892L116.27167708333333,13.061117868404816L116.47565494791667,13.068501510191682L116.5250390625,13.070962724120644L116.67319140625,13.078346365907512L116.72257552083333,13.08077896106987L116.96949609375001,13.09308503071464L117.01888020833333,13.095546244643602L117.06826432291666,13.098007458572564L117.31947916666667,13.105362481592827L117.46763151041668,13.112746123379694L117.517015625,13.115207337308656L117.697375,13.117668551237617L117.74246484375,13.12012976516656L117.79184895833333,13.122590979095522L118.38875260416667,13.137329643902651L118.77953125,13.152096927476403L119.07154166666668,13.166835592283533L119.269078125,13.176680447999361L119.36784635416666,13.181574257090661L119.76721354166666,13.193880326735453L120.0678125,13.203696563684677L120.63036197916666,13.220925061187373L120.8278984375,13.225847489045297L120.97605078125001,13.233202512065539L121.07481901041666,13.238124939923463L121.12420312500001,13.240586153852426L121.27235546875,13.247969795639293L121.42480208333333,13.25040239080163L121.58369010416666,13.255324818659554L121.69534114583334,13.257786032588516L121.83919921875,13.265169674375382L122.92350260416667,13.306953073634432L122.97288671875,13.309414287563394L123.0179765625,13.311875501492356L123.35937109375,13.324152952370522L123.50322916666667,13.33153659415739L123.85750651041667,13.341381449873218L123.906890625,13.34384266380218L124.15810546875,13.346303877731142L124.35564192708334,13.356120114680367L124.56606119791667,13.35858132860931L124.7185078125,13.361042542538272L124.87739583333334,13.365964970396195L124.97616406249999,13.3708873982541L125.13934635416668,13.3757812073454L125.2338203125,13.380703635203325L125.85434244791666,13.400364727868357L126.09696875,13.41267079751315L126.14635286458333,13.415132011442111L126.74755078125,13.437254318036127L126.79693489583333,13.439715531965069L127.70087890625,13.466760266416989L128.05300911458335,13.479037717295174L128.1968671875,13.48642135908204L128.24195703125,13.488882573011004L128.38581510416668,13.496237596031266L128.58764583333334,13.50116002388917L128.6370299479167,13.503621237818132L129.12872395833332,13.523282330483186L129.17810807291667,13.525743544412128L129.22749218750002,13.52820475834109L129.27687630208334,13.530665972270052L129.58606380208332,13.538049614056918L129.78360026041665,13.542972041914844L129.82869010416667,13.54540463707718L129.94248828125,13.547865851006144L130.55871614583333,13.5675555624378L131.01176171875,13.579833013315968L131.06114583333334,13.58229422724493L131.41327604166668,13.589677869031796L131.96294270833334,13.606877747767887L132.06171093749998,13.611800175625811L132.55125781249998,13.63638369614877L133.06442317708334,13.648661147026935L133.1138072916667,13.651122360955897L133.20828125,13.656044788813823L133.25766536458335,13.658506002742785L133.5453815104167,13.673244667549913L133.59047135416665,13.675705881478855L134.21099348958333,13.690444546286004L134.26037760416668,13.692905760214947L134.70054036458333,13.715028066808962L134.99255078125,13.72487292252479L135.09131901041667,13.729795350382695L135.38332942708334,13.739611587331918L135.8750234375,13.761762512692538L135.97379166666667,13.766656321783838L136.11764973958336,13.774039963570706L136.21641796875,13.77896239142863L136.26580208333334,13.781423605357592L136.67161067708335,13.793701056235758L137.18692317708334,13.801084698022626L137.48537499999998,13.813362148900811L137.58414322916667,13.818284576758716L137.77309114583332,13.828129432474546L138.07583723958334,13.83305186033247L138.12522135416668,13.835513074261431L138.27766796875,13.83794566942377L138.47520442708336,13.842868097281674L138.57397265625,13.847790525139597L138.82089322916664,13.86009659478439L138.96904557291668,13.867451617804651L139.22884895833334,13.872374045662555L139.57668489583332,13.879757687449443L139.81931119791668,13.887112710469685L140.22511979166666,13.896957566185513L140.37327213541667,13.9043412079724L140.75760937500002,13.914157444921605L140.80699348958333,13.916618658850567L140.85637760416665,13.919079872779529L141.3008346354167,13.93627975151562L141.39960286458333,13.941202179373525L141.49407682291667,13.946124607231448L141.64222916666665,13.953508249018315L141.69161328125,13.955969462947277L142.14465885416666,13.970708127754406L142.18974869791666,13.973169341683368L142.38728515625002,13.983014197399196L142.57623307291666,13.992830434348422L142.82315364583334,14.000214076135288L142.93265755208333,14.00267529006425L142.98204166666665,14.005136503993192L143.02713151041667,14.00756909915555L143.12589973958336,14.012491527013454L143.27405208333334,14.019875168800342L143.72495052083332,14.037075047536412L143.93536979166666,14.039536261465374L144.28750000000002,14.051842331110166L144.3776796875,14.056736140201465L144.52583203125,14.059197354130427L144.57521614583334,14.06165856805939L145.18500260416667,14.083780874653385L145.44265885416667,14.093625730369213L145.49204296875,14.096086944298175L145.54142708333333,14.098548158227139L145.59081119791668,14.101009372156101L145.68528515625,14.1059031812474L145.93220572916667,14.118209250892171L145.98158984375002,14.120670464821133L146.08035807291668,14.125592892679059L146.1297421875,14.12805410660802L146.27789453125,14.130486701770359L146.48616666666666,14.137870343557225L146.683703125,14.142792771415149L146.7330872395833,14.145253985344091L146.78247135416666,14.147715199273053L147.53826302083334,14.169837505867068L147.68212109375,14.177221147653935L148.23608203125,14.19934345424793L148.52809244791666,14.21408211905508L148.5774765625,14.216543332984022L149.07346484374997,14.23128199779115L149.12284895833332,14.233743211720112L149.33326822916666,14.236204425649074L149.43203645833333,14.241126853507L149.92373046875,14.255865518314128L150.42186588541668,14.270632801887862L150.47125,14.273094015816824L151.06171223958333,14.292755108481877L151.11109635416668,14.29521632241084L151.42243098958332,14.302571345431081L151.57058333333336,14.309954987217967L151.76382552083334,14.319799842933797L152.07086588541668,14.324722270791701L152.26840234375,14.334538507740925L152.66347526041665,14.349305791314679L153.09719661458334,14.359122028263883L153.14228645833333,14.361583242192845L153.29043880208334,14.368966883979711L153.38920703125,14.37386069307101L153.6361276041667,14.381244334857898L154.15144010416665,14.391089190573727L154.2459140625,14.396011618431631L154.34468229166666,14.40090542752293L154.45418619791667,14.403366641451893L154.49927604166666,14.405827855380856L154.95661588541665,14.423027734116946L155.11120963541669,14.42795016197485L155.16059374999998,14.430411375903812L155.55566666666667,14.445178659477566L155.60505078125001,14.447611254639904L155.65443489583333,14.450072468568866L155.856265625,14.45499489642677L156.15901171875,14.459917324284696L157.06080859374998,14.489423272665578L157.69206640625,14.511545579259572L157.9948125,14.521361816208797L158.33620703124998,14.533667885853568L158.49080078125002,14.53612909978253L158.73772135416667,14.548406550660717L158.78710546875,14.55086776458966L158.83648958333336,14.553328978518621L159.13708854166669,14.56317383423445L159.18647265624998,14.565635048163411L159.78981770833332,14.580373712970541L160.04747395833334,14.59021856868637L160.19562630208333,14.592679782615331L160.24501041666667,14.595112377777669L160.3437786458333,14.600034805635595L160.49837239583334,14.602496019564557L160.94282942708332,14.614802089209327L161.08668749999998,14.622157112229589L161.18545572916668,14.627079540087514L161.3336080729167,14.63446318187438L161.48176041666667,14.641846823661247L161.62561848958333,14.649201846681509L161.93910026041667,14.654124274539434L162.29552473958333,14.668862939346562L162.34490885416668,14.671324153275524L162.4436770833333,14.676246581133428L162.5424453125,14.681169008991354L163.30038411458332,14.703291315585348L163.34976822916667,14.70575252951431L163.39915234375002,14.708213743443274L163.44853645833334,14.710674957372236L164.31597916666666,14.745074714844398L164.61443098958333,14.754919570560226L164.81196744791666,14.76473580750945L164.8613515625,14.767197021438413L165.00950390625002,14.77458066322528L165.0588880208333,14.777041877154241L165.20274609375002,14.784425518941108L165.46684375,14.789319328032407L165.56561197916665,14.794241755890333L165.80823828125,14.806547825535123L165.95209635416666,14.813902848555365L166.05086458333332,14.818825276413289L166.10024869791667,14.821286490342253L166.19901692708333,14.826208918200157L166.342875,14.833592559987043L166.48243880208332,14.840947583007285L166.64132682291665,14.845870010865209L166.88824739583336,14.853253652652077L167.09651953125,14.860637294438963L167.14590364583336,14.8630698896013L167.29405598958334,14.870453531388167L167.44220833333335,14.877837173175054L167.83728125,14.897498265840087L167.88666536458334,14.899959479769048L167.98543359375,14.904881907626974L168.39338932291668,14.91715935850514L168.73478385416666,14.929465428149932L168.78416796874998,14.931926642078894L168.83355208333333,14.934387856007836L168.9323203125,14.939281665099136L168.98170442708334,14.941742879028098L169.07617838541665,14.946665306886022L169.17494661458335,14.951587734743926L169.37892447916667,14.958971376530814L169.42830859375002,14.961403971693152L169.62584505208335,14.97124882740898L170.08533203124998,14.983554897053772L170.28286848958334,14.988448706145071L170.73806119791666,15.003215989718804L170.7874453125,15.005677203647766L170.83682942708333,15.008138417576728L170.88621354166668,15.010571012739065L170.93559765625002,15.013032226668027L171.08375,15.020415868454895L171.18251822916667,15.02533829631282L171.6377109375,15.032721938099685L171.78586328125002,15.035154533262023L171.92972135416667,15.04253817504891L172.23676171875002,15.047460602906815L172.33552994791665,15.052383030764739L172.3849140625,15.054844244693701L172.43000390625,15.057305458622643L172.62754036458333,15.067121695571867L172.82078255208333,15.076966551287697L172.92599218750001,15.079427765216659L173.07414453125,15.08188897914562L173.37044921875,15.091705216094825L173.52504296875,15.094166430023787L173.62381119791667,15.099088857881712L173.73331510416668,15.101550071810655L173.8277890625,15.106472499668579L173.9823828125,15.108905094830916L174.03176692708334,15.111366308759878L174.24003906250002,15.116288736617783L174.28942317708334,15.118749950546745L174.38819140625,15.12367237840467L174.59216927083332,15.131027401424932L174.69093750000002,15.135949829282836L174.74032161458334,15.138411043211798L175.03233203124998,15.153178326785552L175.08171614583333,15.15561092194789L175.19122005208334,15.158072135876852L175.48752473958334,15.16791699159268L175.58629296875,15.172839419450584L175.68076692708334,15.17776184730851L175.97707161458334,15.187578084257714L176.53962109375,15.204777962993804L176.68347916666667,15.212161604780691L176.8423671875,15.217084032638596L177.41779947916666,15.22200646049652L177.46718359375,15.224467674425462L177.82360807291667,15.234283911374686L177.91808203125,15.239206339232611L177.96746614583333,15.241667553161554L178.01685026041667,15.244128767090515L178.16500260416666,15.251512408877382L178.52142708333332,15.261328645826605L178.56651692708334,15.263789859755569L178.81558463541666,15.271173501542435L178.96373697916667,15.278528524562697L179.15697916666667,15.288373380278525L179.65296744791667,15.303112045085655L179.7023515625,15.305573259014617L180.10171874999997,15.312956900801483L180.15110286458332,15.315418114730445L180.24987109375,15.32034054258837L180.65782682291666,15.325262970446275L180.8102734375,15.327695565608613L180.90904166666667,15.332617993466537L180.95842578124999,15.335079207395498L181.15166796875,15.340001635253403L181.40932421875002,15.342462849182365L181.45870833333333,15.344924063111328L181.50809244791665,15.34738527704029L181.60686067708335,15.35227908613159L181.70562890624998,15.357201513989494L181.75501302083333,15.359662727918456L182.23167708333335,15.369507583634284L182.28106119791667,15.371968797563248L182.37982942708334,15.376862606654548L182.8307278645833,15.384246248441414L182.98961588541667,15.389168676299338L183.13776822916665,15.396552318086204L183.98588671875,15.426029647700462L184.18342317708334,15.435874503416292L184.33157552083335,15.443258145203178L184.57420182291665,15.455535596081344L184.7781796875,15.46045802393927L184.92633203124998,15.467841665726136L185.383671875,15.482580330533263L185.53182421875002,15.485041544462227L185.69071223958332,15.489963972320131L186.00419401041668,15.497347614107017L186.14805208333334,15.50470263712726L186.19743619791666,15.507163851056221L186.2468203125,15.509625064985183L186.79219270833332,15.53174737157918L186.94678645833335,15.534208585508141L186.99617057291664,15.536669799437103L187.0455546875,15.539131013366067L187.14432291666668,15.544053441223971L187.24309114583335,15.54894725031527L187.38694921875,15.556330892102157L187.63386979166665,15.568636961746948L187.72834375,15.573530770838248L187.7777278645833,15.57599198476719L187.82711197916666,15.578453198696153L187.87649609375,15.580914412625114L188.2672747395833,15.60058981467346L189.03380208333334,15.622712121267476L189.4417578125,15.635003881528954L189.92701041666666,15.654664974194008L189.97639453125,15.65712618812295L190.330671875,15.664495520526524L190.69783203125002,15.674340376242352L190.84169010416667,15.681709708645927L191.18952604166665,15.691540254978444L191.5030078125,15.698909587381998L191.65116015625,15.706293229168885L191.70054427083332,15.708754443097847L191.74992838541667,15.711201347643497L191.84869661458333,15.716123775501401L192.54436848958335,15.735784868166455L192.84282031249998,15.74070729602436L192.94158854166668,15.745629723882283L193.0403567708333,15.750537842356895L193.49125520833334,15.762829602618375L193.73388151041667,15.775121362879853L194.11607161458335,15.794796764928199L194.26422395833333,15.797243669473849L194.31360807291668,15.79970488340281L194.8525390625,15.809535429735327L194.99639713541666,15.816919071522214L195.14454947916667,15.824288403925769L195.53103385416668,15.843963805974134L195.68562760416665,15.848871924448746L195.8831640625,15.858702470781262L195.93254817708333,15.861163684710224L195.98193229166668,15.863624898639166L196.02702213541667,15.866086112568128L196.12579036458334,15.87099423104274L196.22026432291668,15.875916658900666L196.36412239583333,15.88328599130422L196.50798046875,15.890669633091086L196.71625260416667,15.89803896549466L196.87943489583333,15.902961393352586L197.28524348958334,15.920161272088656L197.69319921875,15.930006127804505L197.79196744791668,15.934914246279098L197.8907356770833,15.939836674137021L198.08827213541667,15.944744792611633L198.13336197916666,15.947206006540576L198.44254947916667,15.9521284343985L198.81185677083332,15.959497766802075L198.910625,15.96442019465998L199.11889713541666,15.971789527063553L199.21337109375,15.976711954921457L199.45599739583332,15.984081287325033L199.50538151041667,15.986542501253995L199.65997526041667,15.989003715182937L200.37497135416666,16.013587235705913L200.42435546875,16.016048449634855L200.52312369791667,16.02095656810947L200.5725078125,16.02341778203843L200.62189192708334,16.025878995967393L200.6712760416667,16.028340209896335L200.81942838541667,16.03570954229991L200.8688125,16.038170756228872L201.07064322916665,16.043078874703482L201.37983072916666,16.05046251649035L201.47859895833335,16.055370634964962L201.5773671875,16.06029306282287L201.67184114583333,16.06520118129748L202.23224348958334,16.087337797274788L202.28162760416666,16.089784701820438L202.5306953125,16.097168343607322L202.62946354166667,16.102076462081914L202.72823177083336,16.106998889939838L202.827,16.111921317797744L202.92576822916666,16.116829436272358L202.97515234375,16.119290650201318L203.11901041666667,16.12665998260489L203.57205598958333,16.141412956795314L203.61714583333332,16.143874170724278L204.01436588541668,16.15370471705681L204.15822395833334,16.161088358843678L204.36220182291666,16.168457691247234L204.45667578125,16.173380119105158L204.50605989583332,16.175827023650807L204.80236458333334,16.185671879366637L204.99990104166665,16.195502425699154L205.14805338541666,16.202871758102727L205.1974375,16.20533297203169L205.24682161458335,16.20779418596065L205.29620572916664,16.210255399889594L205.44006380208333,16.217624732293167L205.63330598958333,16.227455278625687L205.73207421875,16.23237770648361L205.92531640624998,16.242208252816127L205.97470052083332,16.244669466745087L206.07346875,16.2495775852197L206.12285286458334,16.252038799148643L206.36977343750002,16.26433055941014L206.62313541666668,16.271714201197007L206.82926041666667,16.274161105742657L206.92802864583334,16.279083533600563L207.026796875,16.284005961458487L207.22433333333333,16.2889140799331L207.27371744791668,16.29137529386206L207.42186979166667,16.298744626265616L207.47125390624998,16.301205840194577L207.57002213541668,16.306128268052483L207.8126484375,16.313497600456056L207.9672421875,16.31595881438502L208.16907291666666,16.320881242242923L208.66506119791666,16.335619907050052L208.81321354166667,16.34300354883694L208.96136588541665,16.350372881240492L209.10951822916667,16.352834095169456L209.3070546875,16.362664641501972L209.65918489583333,16.377417615692412L210.45577213541668,16.409370468618945L211.12997265624998,16.419215324334775L211.39621744791665,16.424123442809385L211.63884375,16.436415203070865L211.94803124999999,16.44378453547444L212.04679947916665,16.448706963332345L212.40107682291665,16.45853750966488L212.7081171875,16.47082926992636L212.90565364583335,16.480659816258875L213.16330989583335,16.490504671974705L213.4295546875,16.49787400437828L214.02645833333332,16.519996310972275L214.91537239583332,16.534749285162714L215.57024869791664,16.559332805685674L215.6196328125,16.561794019614634L215.66901692708333,16.564255233543598L215.81716927083335,16.57162456594715L215.86655338541667,16.574085779876114L216.20794791666665,16.586377540137594L216.30671614583335,16.591285658612204L216.66528776041667,16.601130514328034L216.81129296875,16.603577418873684L216.86067708333334,16.606038632802644L217.00882942708333,16.608499846731608L217.16342317708333,16.61096106066055L217.21280729166665,16.613422274589514L217.26219140625,16.615869179135164L217.70879557291667,16.635544581183527L217.85694791666668,16.642913913587083L218.34864192708332,16.657666887777523L219.39644401041667,16.692080954633017L219.54459635416666,16.69454216856196L219.65839453125,16.697003382490923L220.15652994791665,16.714203261227013L220.50221875,16.726495021488493L220.74913932291665,16.733878663275377L220.9531171875,16.73878678174997L221.00250130208332,16.741247995678933L221.05188541666666,16.743709209607893L221.10126953125,16.746170423536856L221.29880598958334,16.756000969869373L222.41961067708334,16.775662062534426L222.46470052083336,16.77812327646337L222.61285286458335,16.785506918250256L222.71162109375,16.790415036724866L222.76100520833333,16.79287625065381L222.8597734375,16.797798678511732L223.20546223958334,16.810090438773212L223.6069765625,16.827290317509302L223.70574479166666,16.832212745367208L224.11799479166666,16.839582077770782L224.47871354166665,16.844504505628706L224.78575390625,16.856796265890186L224.92961197916668,16.86416559829374L225.07347005208334,16.871534930697315L225.61454817708332,16.89367154667462L225.66393229166667,16.89611845122027L225.80779036458333,16.903502093007138L226.11483072916667,16.91087142541071L226.31022005208334,16.915793853268617L226.35960416666668,16.91825506719758L226.65590885416668,16.932993732004707L226.79976692708334,16.940377373791595L227.01662760416667,16.942838587720537L227.1153958333333,16.94774670619515L227.32366796875002,16.955130347982035L227.42243619791665,16.960038466456627L227.58132421875,16.96496089431455L227.72518229166667,16.972330226718107L227.77456640625,16.97479144064707L227.82395052083334,16.97725265457603L228.22975911458332,16.99445253331212L228.74077734374998,17.0067442935736L228.83954557291668,17.011666721431524L228.99413932291665,17.014127935360467L229.03922916666667,17.01658914928943L229.29688541666667,17.026419695621946L229.51159895833334,17.02888090955091L230.07200130208332,17.041172669812386L230.12138541666667,17.043619574358036L230.318921875,17.053464430073866L230.77411458333336,17.06083376247744L230.82349869791665,17.063294976406404L230.91797265625002,17.068203094881014L231.51272916666665,17.0854172830004L231.56211328125,17.08787849692936L231.80903385416664,17.10017025719084L232.6764765625,17.12966189618841L233.02645963541667,17.14195365644989L233.18534765625,17.146876084307813L233.23473177083332,17.149337298236773L233.37858984375,17.15670663064033L233.42797395833335,17.15916784456929L234.0935859375,17.181290151163285L234.48436458333333,17.19604312535373L235.01900130208332,17.205873671686263L235.06838541666667,17.208334885615205L235.25733333333335,17.218165431947742L235.3561015625,17.22308785980565L235.45486979166668,17.22799597828026L235.8606783854167,17.232918406138182L235.95944661458333,17.237826524612775L236.09471614583333,17.245210166399662L236.14410026041668,17.247671380328605L236.193484375,17.250118284874254" style="fill: none;" fill="none"></path></g></g></g></g></g></g><g transform="translate(72, 177)" clip-path="url(#clip_1)"><clipPath id="clip_1"><rect width="257" height="23"></rect></clipPath><g><g><line x1="0" y1="0" x2="0" y2="5" style="visibility: inherit;" fill="rgb(0, 0, 0)" stroke="rgb(204, 204, 204)" stroke-width="1px"></line><line x1="21.471354166666664" y1="0" x2="21.471354166666664" y2="5" style="visibility: inherit;" fill="rgb(0, 0, 0)" stroke="rgb(204, 204, 204)" stroke-width="1px"></line><line x1="42.94270833333333" y1="0" x2="42.94270833333333" y2="5" style="visibility: inherit;" fill="rgb(0, 0, 0)" stroke="rgb(204, 204, 204)" stroke-width="1px"></line><line x1="64.4140625" y1="0" x2="64.4140625" y2="5" style="visibility: inherit;" fill="rgb(0, 0, 0)" stroke="rgb(204, 204, 204)" stroke-width="1px"></line><line x1="85.88541666666666" y1="0" x2="85.88541666666666" y2="5" style="visibility: inherit;" fill="rgb(0, 0, 0)" stroke="rgb(204, 204, 204)" stroke-width="1px"></line><line x1="107.35677083333334" y1="0" x2="107.35677083333334" y2="5" style="visibility: inherit;" fill="rgb(0, 0, 0)" stroke="rgb(204, 204, 204)" stroke-width="1px"></line><line x1="128.828125" y1="0" x2="128.828125" y2="5" style="visibility: inherit;" fill="rgb(0, 0, 0)" stroke="rgb(204, 204, 204)" stroke-width="1px"></line><line x1="150.29947916666669" y1="0" x2="150.29947916666669" y2="5" style="visibility: inherit;" fill="rgb(0, 0, 0)" stroke="rgb(204, 204, 204)" stroke-width="1px"></line><line x1="171.77083333333331" y1="0" x2="171.77083333333331" y2="5" style="visibility: inherit;" fill="rgb(0, 0, 0)" stroke="rgb(204, 204, 204)" stroke-width="1px"></line><line x1="193.2421875" y1="0" x2="193.2421875" y2="5" style="visibility: inherit;" fill="rgb(0, 0, 0)" stroke="rgb(204, 204, 204)" stroke-width="1px"></line><line x1="214.71354166666669" y1="0" x2="214.71354166666669" y2="5" style="visibility: inherit;" fill="rgb(0, 0, 0)" stroke="rgb(204, 204, 204)" stroke-width="1px"></line><line x1="236.18489583333331" y1="0" x2="236.18489583333331" y2="5" style="visibility: inherit;" fill="rgb(0, 0, 0)" stroke="rgb(204, 204, 204)" stroke-width="1px"></line><line x1="257.65625" y1="0" x2="257.65625" y2="5" style="visibility: inherit;" fill="rgb(0, 0, 0)" stroke="rgb(204, 204, 204)" stroke-width="1px"></line></g><g transform="translate(0, 8)"><text x="0" y="0" dx="0em" dy="0.95em" style="text-anchor: middle; visibility: hidden; font-family: Roboto, sans-serif; font-size: 12px; font-weight: 200;" fill="rgb(33, 33, 33)" stroke="none" stroke-width="1px">-10k</text><text x="21.471354166666664" y="0" dx="0em" dy="0.95em" style="text-anchor: middle; visibility: inherit; font-family: Roboto, sans-serif; font-size: 12px; font-weight: 200;" fill="rgb(33, 33, 33)" stroke="none" stroke-width="1px">0</text><text x="42.94270833333333" y="0" dx="0em" dy="0.95em" style="text-anchor: middle; visibility: hidden; font-family: Roboto, sans-serif; font-size: 12px; font-weight: 200;" fill="rgb(33, 33, 33)" stroke="none" stroke-width="1px">10k</text><text x="64.4140625" y="0" dx="0em" dy="0.95em" style="text-anchor: middle; visibility: inherit; font-family: Roboto, sans-serif; font-size: 12px; font-weight: 200;" fill="rgb(33, 33, 33)" stroke="none" stroke-width="1px">20k</text><text x="85.88541666666666" y="0" dx="0em" dy="0.95em" style="text-anchor: middle; visibility: hidden; font-family: Roboto, sans-serif; font-size: 12px; font-weight: 200;" fill="rgb(33, 33, 33)" stroke="none" stroke-width="1px">30k</text><text x="107.35677083333334" y="0" dx="0em" dy="0.95em" style="text-anchor: middle; visibility: inherit; font-family: Roboto, sans-serif; font-size: 12px; font-weight: 200;" fill="rgb(33, 33, 33)" stroke="none" stroke-width="1px">40k</text><text x="128.828125" y="0" dx="0em" dy="0.95em" style="text-anchor: middle; visibility: hidden; font-family: Roboto, sans-serif; font-size: 12px; font-weight: 200;" fill="rgb(33, 33, 33)" stroke="none" stroke-width="1px">50k</text><text x="150.29947916666669" y="0" dx="0em" dy="0.95em" style="text-anchor: middle; visibility: inherit; font-family: Roboto, sans-serif; font-size: 12px; font-weight: 200;" fill="rgb(33, 33, 33)" stroke="none" stroke-width="1px">60k</text><text x="171.77083333333331" y="0" dx="0em" dy="0.95em" style="text-anchor: middle; visibility: hidden; font-family: Roboto, sans-serif; font-size: 12px; font-weight: 200;" fill="rgb(33, 33, 33)" stroke="none" stroke-width="1px">70k</text><text x="193.2421875" y="0" dx="0em" dy="0.95em" style="text-anchor: middle; visibility: inherit; font-family: Roboto, sans-serif; font-size: 12px; font-weight: 200;" fill="rgb(33, 33, 33)" stroke="none" stroke-width="1px">80k</text><text x="214.71354166666669" y="0" dx="0em" dy="0.95em" style="text-anchor: middle; visibility: hidden; font-family: Roboto, sans-serif; font-size: 12px; font-weight: 200;" fill="rgb(33, 33, 33)" stroke="none" stroke-width="1px">90k</text><text x="236.18489583333331" y="0" dx="0em" dy="0.95em" style="text-anchor: middle; visibility: inherit; font-family: Roboto, sans-serif; font-size: 12px; font-weight: 200;" fill="rgb(33, 33, 33)" stroke="none" stroke-width="1px">100k</text><text x="257.65625" y="0" dx="0em" dy="0.95em" style="text-anchor: middle; visibility: hidden; font-family: Roboto, sans-serif; font-size: 12px; font-weight: 200;" fill="rgb(33, 33, 33)" stroke="none" stroke-width="1px">110k</text></g><line x1="0" y1="0" x2="257.65625" y2="0" fill="rgb(0, 0, 0)" stroke="rgb(204, 204, 204)" stroke-width="1px"></line></g></g></g></g></svg>