<svg viewBox="0 0 330 200" xmlns="http://www.w3.org/2000/svg"><g><g><g><g><g><line x1="30.78125" y1="177" x2="25.78125" y2="177" style="visibility: inherit;" fill="rgb(0, 0, 0)" stroke="rgb(204, 204, 204)" stroke-width="1px"></line><line x1="30.78125" y1="160.9090909090909" x2="25.78125" y2="160.9090909090909" style="visibility: inherit;" fill="rgb(0, 0, 0)" stroke="rgb(204, 204, 204)" stroke-width="1px"></line><line x1="30.78125" y1="144.8181818181818" x2="25.78125" y2="144.8181818181818" style="visibility: inherit;" fill="rgb(0, 0, 0)" stroke="rgb(204, 204, 204)" stroke-width="1px"></line><line x1="30.78125" y1="128.72727272727272" x2="25.78125" y2="128.72727272727272" style="visibility: inherit;" fill="rgb(0, 0, 0)" stroke="rgb(204, 204, 204)" stroke-width="1px"></line><line x1="30.78125" y1="112.63636363636364" x2="25.78125" y2="112.63636363636364" style="visibility: inherit;" fill="rgb(0, 0, 0)" stroke="rgb(204, 204, 204)" stroke-width="1px"></line><line x1="30.78125" y1="96.54545454545453" x2="25.78125" y2="96.54545454545453" style="visibility: inherit;" fill="rgb(0, 0, 0)" stroke="rgb(204, 204, 204)" stroke-width="1px"></line><line x1="30.78125" y1="80.45454545454547" x2="25.78125" y2="80.45454545454547" style="visibility: inherit;" fill="rgb(0, 0, 0)" stroke="rgb(204, 204, 204)" stroke-width="1px"></line><line x1="30.78125" y1="64.36363636363636" x2="25.78125" y2="64.36363636363636" style="visibility: inherit;" fill="rgb(0, 0, 0)" stroke="rgb(204, 204, 204)" stroke-width="1px"></line><line x1="30.78125" y1="48.272727272727266" x2="25.78125" y2="48.272727272727266" style="visibility: inherit;" fill="rgb(0, 0, 0)" stroke="rgb(204, 204, 204)" stroke-width="1px"></line><line x1="30.78125" y1="32.18181818181817" x2="25.78125" y2="32.18181818181817" style="visibility: inherit;" fill="rgb(0, 0, 0)" stroke="rgb(204, 204, 204)" stroke-width="1px"></line><line x1="30.78125" y1="16.090909090909097" x2="25.78125" y2="16.090909090909097" style="visibility: inherit;" fill="rgb(0, 0, 0)" stroke="rgb(204, 204, 204)" stroke-width="1px"></line><line x1="30.78125" y1="0" x2="25.78125" y2="0" style="visibility: inherit;" fill="rgb(0, 0, 0)" stroke="rgb(204, 204, 204)" stroke-width="1px"></line></g><g transform="translate(20.78125, 0)"><text x="0" y="177" dx="0em" dy="0.3em" style="text-anchor: end; visibility: hidden; font-family: Roboto, sans-serif; font-size: 12px; font-weight: 200;" fill="rgb(33, 33, 33)" stroke="none" stroke-width="1px">-1</text><text x="0" y="160.9090909090909" dx="0em" dy="0.3em" style="text-anchor: end; visibility: inherit; font-family: Roboto, sans-serif; font-size: 12px; font-weight: 200;" fill="rgb(33, 33, 33)" stroke="none" stroke-width="1px">0</text><text x="0" y="144.8181818181818" dx="0em" dy="0.3em" style="text-anchor: end; visibility: hidden; font-family: Roboto, sans-serif; font-size: 12px; font-weight: 200;" fill="rgb(33, 33, 33)" stroke="none" stroke-width="1px">1</text><text x="0" y="128.72727272727272" dx="0em" dy="0.3em" style="text-anchor: end; visibility: inherit; font-family: Roboto, sans-serif; font-size: 12px; font-weight: 200;" fill="rgb(33, 33, 33)" stroke="none" stroke-width="1px">2</text><text x="0" y="112.63636363636364" dx="0em" dy="0.3em" style="text-anchor: end; visibility: hidden; font-family: Roboto, sans-serif; font-size: 12px; font-weight: 200;" fill="rgb(33, 33, 33)" stroke="none" stroke-width="1px">3</text><text x="0" y="96.54545454545453" dx="0em" dy="0.3em" style="text-anchor: end; visibility: inherit; font-family: Roboto, sans-serif; font-size: 12px; font-weight: 200;" fill="rgb(33, 33, 33)" stroke="none" stroke-width="1px">4</text><text x="0" y="80.45454545454547" dx="0em" dy="0.3em" style="text-anchor: end; visibility: hidden; font-family: Roboto, sans-serif; font-size: 12px; font-weight: 200;" fill="rgb(33, 33, 33)" stroke="none" stroke-width="1px">5</text><text x="0" y="64.36363636363636" dx="0em" dy="0.3em" style="text-anchor: end; visibility: inherit; font-family: Roboto, sans-serif; font-size: 12px; font-weight: 200;" fill="rgb(33, 33, 33)" stroke="none" stroke-width="1px">6</text><text x="0" y="48.272727272727266" dx="0em" dy="0.3em" style="text-anchor: end; visibility: hidden; font-family: Roboto, sans-serif; font-size: 12px; font-weight: 200;" fill="rgb(33, 33, 33)" stroke="none" stroke-width="1px">7</text><text x="0" y="32.18181818181817" dx="0em" dy="0.3em" style="text-anchor: end; visibility: inherit; font-family: Roboto, sans-serif; font-size: 12px; font-weight: 200;" fill="rgb(33, 33, 33)" stroke="none" stroke-width="1px">8</text><text x="0" y="16.090909090909097" dx="0em" dy="0.3em" style="text-anchor: end; visibility: hidden; font-family: Roboto, sans-serif; font-size: 12px; font-weight: 200;" fill="rgb(33, 33, 33)" stroke="none" stroke-width="1px">9</text><text x="0" y="0" dx="0em" dy="0.3em" style="text-anchor: end; visibility: hidden; font-family: Roboto, sans-serif; font-size: 12px; font-weight: 200;" fill="rgb(33, 33, 33)" stroke="none" stroke-width="1px">10</text></g><line x1="30.78125" y1="0" x2="30.78125" y2="177" fill="rgb(0, 0, 0)" stroke="rgb(204, 204, 204)" stroke-width="1px"></line></g></g><g transform="translate(30, 0)" clip-path="url(#clip_0)"><clipPath id="clip_0"><rect width="299" height="177"></rect></clipPath><g><g><g><line x1="0" y1="0" x2="0" y2="177" fill="rgb(0, 0, 0)" stroke="rgb(66, 66, 66)" stroke-width="1px" opacity="0.25"></line><line x1="24.934895833333332" y1="0" x2="24.934895833333332" y2="177" fill="rgb(0, 0, 0)" stroke="rgb(66, 66, 66)" stroke-width="1px" opacity="0.25"></line><line x1="49.869791666666664" y1="0" x2="49.869791666666664" y2="177" fill="rgb(0, 0, 0)" stroke="rgb(66, 66, 66)" stroke-width="1px" opacity="0.25"></line><line x1="74.8046875" y1="0" x2="74.8046875" y2="177" fill="rgb(0, 0, 0)" stroke="rgb(66, 66, 66)" stroke-width="1px" opacity="0.25"></line><line x1="99.73958333333333" y1="0" x2="99.73958333333333" y2="177" fill="rgb(0, 0, 0)" stroke="rgb(66, 66, 66)" stroke-width="1px" opacity="0.25"></line><line x1="124.67447916666667" y1="0" x2="124.67447916666667" y2="177" fill="rgb(0, 0, 0)" stroke="rgb(66, 66, 66)" stroke-width="1px" opacity="0.25"></line><line x1="149.609375" y1="0" x2="149.609375" y2="177" fill="rgb(0, 0, 0)" stroke="rgb(66, 66, 66)" stroke-width="1px" opacity="0.25"></line><line x1="174.54427083333334" y1="0" x2="174.54427083333334" y2="177" fill="rgb(0, 0, 0)" stroke="rgb(66, 66, 66)" stroke-width="1px" opacity="0.25"></line><line x1="199.47916666666666" y1="0" x2="199.47916666666666" y2="177" fill="rgb(0, 0, 0)" stroke="rgb(66, 66, 66)" stroke-width="1px" opacity="0.25"></line><line x1="224.4140625" y1="0" x2="224.4140625" y2="177" fill="rgb(0, 0, 0)" stroke="rgb(66, 66, 66)" stroke-width="1px" opacity="0.25"></line><line x1="249.34895833333334" y1="0" x2="249.34895833333334" y2="177" fill="rgb(0, 0, 0)" stroke="rgb(66, 66, 66)" stroke-width="1px" opacity="0.25"></line><line x1="274.28385416666663" y1="0" x2="274.28385416666663" y2="177" fill="rgb(0, 0, 0)" stroke="rgb(66, 66, 66)" stroke-width="1px" opacity="0.25"></line><line x1="299.21875" y1="0" x2="299.21875" y2="177" fill="rgb(0, 0, 0)" stroke="rgb(66, 66, 66)" stroke-width="1px" opacity="0.25"></line></g><g><line x1="0" y1="177" x2="299.21875" y2="177" fill="rgb(0, 0, 0)" stroke="rgb(66, 66, 66)" stroke-width="1px" opacity="0.25"></line><line x1="0" y1="160.9090909090909" x2="299.21875" y2="160.9090909090909" fill="rgb(0, 0, 0)" stroke="rgb(66, 66, 66)" stroke-width="1px" opacity="0.25"></line><line x1="0" y1="144.8181818181818" x2="299.21875" y2="144.8181818181818" fill="rgb(0, 0, 0)" stroke="rgb(66, 66, 66)" stroke-width="1px" opacity="0.25"></line><line x1="0" y1="128.72727272727272" x2="299.21875" y2="128.72727272727272" fill="rgb(0, 0, 0)" stroke="rgb(66, 66, 66)" stroke-width="1px" opacity="0.25"></line><line x1="0" y1="112.63636363636364" x2="299.21875" y2="112.63636363636364" fill="rgb(0, 0, 0)" stroke="rgb(66, 66, 66)" stroke-width="1px" opacity="0.25"></line><line x1="0" y1="96.54545454545453" x2="299.21875" y2="96.54545454545453" fill="rgb(0, 0, 0)" stroke="rgb(66, 66, 66)" stroke-width="1px" opacity="0.25"></line><line x1="0" y1="80.45454545454547" x2="299.21875" y2="80.45454545454547" fill="rgb(0, 0, 0)" stroke="rgb(66, 66, 66)" stroke-width="1px" opacity="0.25"></line><line x1="0" y1="64.36363636363636" x2="299.21875" y2="64.36363636363636" fill="rgb(0, 0, 0)" stroke="rgb(66, 66, 66)" stroke-width="1px" opacity="0.25"></line><line x1="0" y1="48.272727272727266" x2="299.21875" y2="48.272727272727266" fill="rgb(0, 0, 0)" stroke="rgb(66, 66, 66)" stroke-width="1px" opacity="0.25"></line><line x1="0" y1="32.18181818181817" x2="299.21875" y2="32.18181818181817" fill="rgb(0, 0, 0)" stroke="rgb(66, 66, 66)" stroke-width="1px" opacity="0.25"></line><line x1="0" y1="16.090909090909097" x2="299.21875" y2="16.090909090909097" fill="rgb(0, 0, 0)" stroke="rgb(66, 66, 66)" stroke-width="1px" opacity="0.25"></line><line x1="0" y1="0" x2="299.21875" y2="0" fill="rgb(0, 0, 0)" stroke="rgb(66, 66, 66)" stroke-width="1px" opacity="0.25"></line></g></g></g><g><g><line x1="0" y1="160.9090909090909" x2="299.21875" y2="160.9090909090909" fill="rgb(0, 0, 0)" stroke="rgb(153, 153, 153)" stroke-width="1.5px"></line></g></g><g><g><line x1="24.934895833333332" y1="0" x2="24.934895833333332" y2="177" fill="rgb(0, 0, 0)" stroke="rgb(153, 153, 153)" stroke-width="1.5px"></line></g></g><g><g><g><g><g><path stroke="rgb(204, 51, 17)" stroke-width="2px" d="M25.523359375000002,112.63636363636364L25.80013671875,160.9090909090909L26.086888020833335,160.9090909090909L26.36865234375,160.9090909090909L26.80251953125,128.72727272727272L27.515657552083333,96.54545454545453L27.917109375,144.8181818181818L28.468170572916666,112.63636363636364L28.812272135416666,144.8181818181818L29.592734375,80.45454545454547L29.874498697916664,160.9090909090909L30.278444010416667,144.8181818181818L30.86192057291667,112.63636363636364L31.143684895833335,160.9090909090909L31.916666666666668,96.54545454545453L32.20341796875,160.9090909090909L32.48518229166667,160.9090909090909L33.12600911458333,112.63636363636364L33.4077734375,160.9090909090909L33.87654947916666,128.72727272727272L34.27800130208333,144.8181818181818L34.68194661458333,144.8181818181818L34.96869791666666,160.9090909090909L35.25544921875,160.9090909090909L35.64942057291667,144.8181818181818L35.93118489583333,160.9090909090909L36.21294921875,160.9090909090909L36.619388020833334,144.8181818181818L36.90115234375,160.9090909090909L37.182916666666664,160.9090909090909L37.65169270833333,128.72727272727272L37.93844401041667,160.9090909090909L38.29002604166667,144.8181818181818L38.57677734375,160.9090909090909L38.933346354166666,144.8181818181818L39.41209635416667,128.72727272727272L39.69386067708333,160.9090909090909L40.055416666666666,144.8181818181818L40.34216796875,160.9090909090909L40.62393229166667,160.9090909090909L41.30216145833334,80.45454545454547L41.825794270833335,128.72727272727272L42.219765625,144.8181818181818L42.7433984375,128.72727272727272L43.33186197916667,112.63636363636364L44.04749348958333,96.54545454545453L44.33424479166667,160.9090909090909L44.730709635416666,144.8181818181818L45.00748697916667,160.9090909090909L45.6009375,112.63636363636364L46.112102864583335,128.72727272727272L46.38888020833333,160.9090909090909L46.790332031249996,144.8181818181818L47.43365234375,112.63636363636364L47.94232421875,128.72727272727272L48.588138020833334,112.63636363636364L48.874889322916665,160.9090909090909L49.51072916666667,112.63636363636364L49.909687500000004,144.8181818181818L50.19145182291667,160.9090909090909L51.02427734375,80.45454545454547L51.380846354166664,144.8181818181818L51.65762369791667,160.9090909090909L52.054088541666665,144.8181818181818L52.57522786458333,128.72727272727272L53.171171875,112.63636363636364L53.567636718749995,144.8181818181818L53.85438802083333,160.9090909090909L54.141139322916665,160.9090909090909L54.427890625,160.9090909090909L54.89666666666667,128.72727272727272L55.24824869791667,144.8181818181818L55.52502604166666,160.9090909090909L56.043671875,128.72727272727272L56.63712239583333,112.63636363636364L56.988704427083334,144.8181818181818L57.52979166666667,112.63636363636364L57.81155598958333,160.9090909090909L58.242929687499995,128.72727272727272L58.58952473958333,144.8181818181818L59.36998697916666,80.45454545454547L59.65673828125,160.9090909090909L59.94348958333333,160.9090909090909L60.23024088541667,160.9090909090909L60.6965234375,128.72727272727272L61.09298828125,144.8181818181818L61.678958333333334,112.63636363636364L62.10285156250001,128.72727272727272L62.384615885416665,160.9090909090909L62.671367187499996,160.9090909090909L62.95313151041667,160.9090909090909L63.224921875,160.9090909090909L63.506686197916665,160.9090909090909L63.90813802083333,144.8181818181818L64.18491536458333,160.9090909090909L64.69358723958334,128.72727272727272L65.09005208333333,144.8181818181818L65.37680338541666,160.9090909090909L65.72838541666667,144.8181818181818L66.01014973958333,160.9090909090909L66.2919140625,160.9090909090909L66.68339192708333,144.8181818181818L67.07237630208333,144.8181818181818L67.41897135416667,144.8181818181818L67.70073567708333,160.9090909090909L68.221875,128.72727272727272L68.610859375,144.8181818181818L68.96244140625001,144.8181818181818L69.70550130208333,80.45454545454547L69.98227864583333,160.9090909090909L70.26404296875,160.9090909090909L70.66549479166666,144.8181818181818L71.13925781249999,128.72727272727272L71.42600911458334,160.9090909090909L71.7077734375,160.9090909090909L72.17654947916667,128.72727272727272L72.70018229166666,128.72727272727272L72.97695963541666,160.9090909090909L73.32355468749999,144.8181818181818L73.83721354166667,128.72727272727272L74.12396484375,160.9090909090909L74.6401171875,128.72727272727272L75.23356770833334,112.63636363636364L75.63003255208332,144.8181818181818L75.911796875,160.9090909090909L76.37558593749999,128.72727272727272L76.77703776041666,144.8181818181818L77.05880208333333,160.9090909090909L77.34555338541666,160.9090909090909L77.63230468750001,160.9090909090909L77.90908203125001,160.9090909090909L78.37785807291667,128.72727272727272L78.66460937500001,160.9090909090909L79.26055338541667,112.63636363636364L79.84901692708333,112.63636363636364L80.42999999999999,112.63636363636364L81.20547526041666,96.54545454545453L81.60194010416667,144.8181818181818L81.88370442708333,160.9090909090909L82.34250651041667,128.72727272727272L82.86115234374999,128.72727272727272L83.13294270833333,160.9090909090909L83.541875,144.8181818181818L84.13033854166667,112.63636363636364L84.41708984375,160.9090909090909L84.81355468749999,144.8181818181818L85.28233072916666,128.72727272727272L85.56908203124999,160.9090909090909L86.35453125000001,80.45454545454547L86.63130859374999,160.9090909090909L86.90808593749999,160.9090909090909L87.30953776041667,144.8181818181818L87.58631510416667,160.9090909090909L87.87306640625,160.9090909090909L88.34184244791668,128.72727272727272L88.62360677083333,160.9090909090909L88.90038411458333,160.9090909090909L89.36666666666667,128.72727272727272L89.65341796874999,160.9090909090909L90.06235026041666,144.8181818181818L90.34411458333334,160.9090909090909L90.62587890625001,160.9090909090909L90.90265625,160.9090909090909L91.18940755208334,160.9090909090909L91.46618489583332,160.9090909090909L92.05963541666667,112.63636363636364L92.33142578124999,160.9090909090909L92.60321614583333,160.9090909090909L93.00716145833334,144.8181818181818L93.40861328125,144.8181818181818L93.69037760416666,160.9090909090909L93.97712890625,160.9090909090909L94.25889322916667,160.9090909090909L94.54564453125,160.9090909090909L95.15904296875,96.54545454545453L95.81981770833333,96.54545454545453L96.17139973958334,144.8181818181818L96.44319010416666,160.9090909090909L97.28598958333333,80.45454545454547L97.68245442708334,144.8181818181818L97.96421875,160.9090909090909L98.24099609375,160.9090909090909L98.52276041666666,160.9090909090909L99.11122395833333,112.63636363636364L99.66477864583334,112.63636363636364L100.13106119791667,128.72727272727272L100.41282552083334,160.9090909090909L101.3902734375,16.090909090909097L101.67203776041666,160.9090909090909L102.14081380208333,128.72727272727272L102.53727864583334,144.8181818181818L102.82402994791667,160.9090909090909L103.29280598958333,128.72727272727272L103.88625651041667,112.63636363636364L104.28272135416665,144.8181818181818L104.82131510416667,112.63636363636364L105.22027343750001,144.8181818181818L105.81621744791667,112.63636363636364L106.21766927083333,144.8181818181818L106.49943359375,160.9090909090909L106.78119791666667,160.9090909090909L107.24997395833333,128.72727272727272L107.53173828125,160.9090909090909L108.13017578125,112.63636363636364L108.65630208333333,128.72727272727272L109.05276692708333,144.8181818181818L109.57141276041668,128.72727272727272L109.8581640625,160.9090909090909L110.45161458333332,112.63636363636364L110.72839192708334,160.9090909090909L111.159765625,128.72727272727272L111.68090494791667,128.72727272727272L112.35165364583334,96.54545454545453L112.62843098958334,160.9090909090909L112.91019531250001,160.9090909090909L113.43382812499999,128.72727272727272L113.96244791666668,128.72727272727272L114.35891276041666,144.8181818181818L114.64067708333333,160.9090909090909L114.92742838541666,160.9090909090909L115.20919270833333,160.9090909090909L115.75027994791665,112.63636363636364L116.03204427083332,160.9090909090909L116.31879557291666,160.9090909090909L116.67037760416667,144.8181818181818L117.13416666666667,128.72727272727272L117.41593098958334,160.9090909090909L117.87972005208334,128.72727272727272L118.58787109375,96.54545454545453L119.00428385416667,128.72727272727272L119.41072265625,144.8181818181818L119.69248697916667,160.9090909090909L120.04406901041666,144.8181818181818L120.57019531249999,128.72727272727272L120.85195963541666,160.9090909090909L121.31574869791666,128.72727272727272L121.60249999999999,160.9090909090909L122.07376953125,128.72727272727272L122.35553385416667,160.9090909090909L122.75199869791666,144.8181818181818L123.09360677083333,144.8181818181818L123.37537109375,160.9090909090909L123.6521484375,160.9090909090909L124.28549479166666,112.63636363636364L125.05099609375,96.54545454545453L125.44247395833334,144.8181818181818L125.84392578125,144.8181818181818L126.12070312499999,160.9090909090909L126.39748046875,160.9090909090909L126.79893229166667,144.8181818181818L127.30760416666666,128.72727272727272L127.58438151041666,160.9090909090909L127.94095052083333,144.8181818181818L128.45959635416668,128.72727272727272L128.97325520833334,112.63636363636364L129.25501953124999,160.9090909090909L129.71382161458334,128.72727272727272L129.9955859375,160.9090909090909L130.58903645833334,112.63636363636364L130.98550130208335,144.8181818181818L131.3420703125,144.8181818181818L131.74850911458333,144.8181818181818L132.14746744791665,144.8181818181818L132.42923177083333,160.9090909090909L132.71598307291666,160.9090909090909L133.11244791666667,144.8181818181818L133.38922526041665,160.9090909090909L133.67597656249998,160.9090909090909L133.96272786458334,160.9090909090909L134.23950520833333,160.9090909090909L134.51628255208334,160.9090909090909L135.03991536458332,128.72727272727272L135.50370442708333,128.72727272727272L136.14702473958334,112.63636363636364L136.42380208333333,160.9090909090909L136.82026692708334,144.8181818181818L137.48852213541667,96.54545454545453L138.029609375,112.63636363636364L138.31636067708334,160.9090909090909L138.84248697916667,128.72727272727272L139.12923828125,160.9090909090909L139.48082031250001,144.8181818181818L139.99946614583334,128.72727272727272L140.28123046875,160.9090909090909L140.74501953125,128.72727272727272L141.02678385416667,160.9090909090909L141.30854817708334,160.9090909090909L141.59529947916667,160.9090909090909L141.88205078125,160.9090909090909L142.158828125,160.9090909090909L142.56027994791665,144.8181818181818L142.906875,144.8181818181818L143.18365234375,160.9090909090909L143.58261067708332,144.8181818181818L144.04639973958334,128.72727272727272L144.55756510416668,128.72727272727272L144.83932942708333,160.9090909090909L145.23080729166668,144.8181818181818L145.51755859375,160.9090909090909L145.90654296875,144.8181818181818L146.25064453125,144.8181818181818L146.83661458333333,112.63636363636364L147.26300130208332,128.72727272727272L147.89634765625001,96.54545454545453L148.42247395833334,128.72727272727272L148.70922526041667,160.9090909090909L148.981015625,160.9090909090909L149.49467447916666,128.72727272727272L149.8512434895833,144.8181818181818L150.2826171875,128.72727272727272L150.63918619791667,144.8181818181818L150.92593749999997,160.9090909090909L151.21268880208333,160.9090909090909L151.60416666666669,144.8181818181818L151.89091796875,160.9090909090909L152.29236979166666,144.8181818181818L152.81600260416667,128.72727272727272L153.10275390625,160.9090909090909L153.38451822916667,160.9090909090909L153.67126953125,160.9090909090909L154.21235677083334,112.63636363636364L154.49910807291667,160.9090909090909L154.7708984375,160.9090909090909L155.48154296875,96.54545454545453L155.7682942708333,160.9090909090909L156.55374348958335,80.45454545454547L157.21202473958334,112.63636363636364L157.60848958333335,144.8181818181818L157.89025390625,160.9090909090909L158.3615234375,128.72727272727272L158.7604817708333,144.8181818181818L159.26666015625003,112.63636363636364L159.5434375,160.9090909090909L159.8875390625,144.8181818181818L160.37875651041665,112.63636363636364L160.96971354166666,112.63636363636364L161.25646484375,160.9090909090909L161.6529296875,144.8181818181818L161.93469401041665,160.9090909090909L162.21645833333335,160.9090909090909L162.56305338541665,144.8181818181818L163.10164713541667,112.63636363636364L163.37842447916668,160.9090909090909L163.96688802083335,112.63636363636364L164.24865234375,160.9090909090909L164.53041666666664,160.9090909090909L164.81218098958334,160.9090909090909L165.28095703124998,128.72727272727272L165.66994140625002,144.8181818181818L166.25341796875,112.63636363636364L166.60998697916665,144.8181818181818L167.39294270833332,80.45454545454547L167.67470703125,160.9090909090909L167.96145833333333,160.9090909090909L168.50005208333334,112.63636363636364L168.78181640625,160.9090909090909L169.06856770833335,160.9090909090909L169.53485026041668,128.72727272727272L170.0485091145833,128.72727272727272L170.57214192708332,128.72727272727272L171.16559244791668,112.63636363636364L171.44236979166666,160.9090909090909L171.71914713541668,160.9090909090909L172.06574218749998,144.8181818181818L172.34750651041668,160.9090909090909L172.738984375,144.8181818181818L173.14791666666667,144.8181818181818L173.81617187499998,96.54545454545453L174.16775390625,144.8181818181818L174.67891927083332,128.72727272727272L175.3272265625,112.63636363636364L175.61397786458335,160.9090909090909L176.01044270833336,144.8181818181818L176.29220703125,160.9090909090909L176.688671875,144.8181818181818L177.3020703125,96.54545454545453L177.69853515625002,144.8181818181818L177.9753125,160.9090909090909L178.25208984374999,160.9090909090909L178.603671875,144.8181818181818L179.35171875,96.54545454545453L179.63348307291668,160.9090909090909L180.22693359375,112.63636363636364L180.50869791666665,160.9090909090909L180.78547526041666,160.9090909090909L181.296640625,128.72727272727272L181.89258463541668,112.63636363636364L182.56333333333333,96.54545454545453L182.84509765625,160.9090909090909L183.12686197916668,160.9090909090909L183.52332682291666,144.8181818181818L183.91979166666667,144.8181818181818L184.32124348958334,144.8181818181818L185.01942057291666,96.54545454545453L185.41588541666667,144.8181818181818L185.93203776041668,128.72727272727272L186.21380208333332,160.9090909090909L186.50055338541668,160.9090909090909L186.78730468749998,160.9090909090909L187.06906901041668,160.9090909090909L187.35083333333333,160.9090909090909L187.86947916666668,128.72727272727272L188.15623046874998,160.9090909090909L188.43799479166668,160.9090909090909L188.72474609374999,160.9090909090909L189.01149739583335,160.9090909090909L189.29326171875,160.9090909090909L189.73211588541668,128.72727272727272L190.13855468749998,144.8181818181818L190.42530598958334,160.9090909090909L190.78187499999999,144.8181818181818L191.06862630208335,160.9090909090909L191.77428385416667,96.54545454545453L192.1732421875,144.8181818181818L192.52981119791667,144.8181818181818L192.99858723958332,128.72727272727272L193.28035156250002,160.9090909090909L193.56710286458332,160.9090909090909L194.27276041666667,96.54545454545453L194.55452473958334,160.9090909090909L194.84127604166667,160.9090909090909L195.30007812499997,128.72727272727272L195.65664713541665,144.8181818181818L196.13041015625,128.72727272727272L196.41716145833334,160.9090909090909L196.69892578125,160.9090909090909L197.21757161458333,128.72727272727272L197.68385416666666,128.72727272727272L197.96561848958333,160.9090909090909L198.24239583333332,160.9090909090909L199.2048828125,64.36363636363636L199.9703841145833,80.45454545454547L200.24716145833332,160.9090909090909L200.52892578125,160.9090909090909L200.81069010416667,160.9090909090909L201.21712890625003,144.8181818181818L201.75572265625,112.63636363636364L202.1970703125,128.72727272727272L202.47883463541666,160.9090909090909L202.76059895833333,160.9090909090909L203.229375,128.72727272727272L203.78043619791666,112.63636363636364L204.31902994791668,112.63636363636364L204.665625,144.8181818181818L205.37876302083333,96.54545454545453L205.89740885416668,128.72727272727272L206.18416015625,160.9090909090909L206.580625,144.8181818181818L206.86737630208333,160.9090909090909L207.26134765625002,144.8181818181818L207.53313802083332,160.9090909090909L208.30611979166667,48.272727272727266L208.58788411458335,160.9090909090909L208.87463541666665,160.9090909090909L209.16138671875,160.9090909090909L209.5179557291667,144.8181818181818L209.80470703125,160.9090909090909L210.2734830729167,128.72727272727272L210.80459635416668,112.63636363636364L211.19358072916665,144.8181818181818L211.55014973958333,144.8181818181818L211.83690104166666,160.9090909090909L212.25830078125,128.72727272727272L212.78692057291667,128.72727272727272L213.0587109375,160.9090909090909L213.62223958333334,96.54545454545453L214.1957421875,112.63636363636364L214.48249348958333,160.9090909090909L214.75428385416666,160.9090909090909L215.18815104166666,128.72727272727272L215.47490234375002,160.9090909090909L215.8314713541667,144.8181818181818L216.22793619791665,144.8181818181818L216.6194140625,144.8181818181818L216.90616536458336,160.9090909090909L217.18294270833334,160.9090909090909L218.07311848958332,64.36363636363636L218.3548828125,160.9090909090909L218.75633463541666,144.8181818181818L219.1129036458333,144.8181818181818L219.8808984375,96.54545454545453L220.16266276041665,160.9090909090909L220.43944010416666,160.9090909090909L220.71621744791665,160.9090909090909L220.9880078125,160.9090909090909L221.83080729166664,32.18181818181817L222.34695963541668,128.72727272727272L222.69854166666664,144.8181818181818L223.09500651041665,144.8181818181818L223.68845703125,112.63636363636364L223.97022135416668,160.9090909090909L224.43899739583333,128.72727272727272L224.9676171875,128.72727272727272L225.36408203125,144.8181818181818L225.65083333333334,160.9090909090909L225.93259765625,160.9090909090909L226.209375,160.9090909090909L226.79783854166666,112.63636363636364L227.45861328125002,96.54545454545453L227.86006510416667,144.8181818181818L228.32385416666668,128.72727272727272L228.87491536458333,112.63636363636364L229.16166666666666,160.9090909090909L229.44343098958333,160.9090909090909L229.95708984375,128.72727272727272L230.61786458333336,96.54545454545453L230.90461588541666,160.9090909090909L231.26118489583334,144.8181818181818L231.54294921874998,160.9090909090909L231.82471354166668,160.9090909090909L232.18626953125,144.8181818181818L232.82958984375,112.63636363636364L233.11135416666667,160.9090909090909L233.50781901041668,144.8181818181818L233.85441406249998,144.8181818181818L234.25337239583334,144.8181818181818L234.64983723958332,144.8181818181818L234.9316015625,160.9090909090909L235.20339192708332,160.9090909090909L235.48016927083336,160.9090909090909L235.76193359375,160.9090909090909L236.04369791666667,160.9090909090909L236.39527994791666,144.8181818181818L236.68203125000002,160.9090909090909L237.19569010416666,128.72727272727272L237.47745442708333,160.9090909090909L237.75921875,160.9090909090909L238.03599609375001,160.9090909090909L238.74913411458334,96.54545454545453L239.03089843749999,160.9090909090909L239.42237630208334,144.8181818181818L239.69915364583335,160.9090909090909L240.21530598958333,128.72727272727272L240.4920833333333,160.9090909090909L240.92345703125,128.72727272727272L241.68397135416666,96.54545454545453L242.03555338541668,144.8181818181818L242.50931640624998,128.72727272727272L242.79108072916668,160.9090909090909L243.3147135416667,128.72727272727272L243.7161653645833,144.8181818181818L244.11263020833331,144.8181818181818L244.39439453125001,160.9090909090909L245.10005208333334,96.54545454545453L245.93786458333332,80.45454545454547L246.22461588541668,160.9090909090909L246.74326171875,128.72727272727272L247.14471354166665,144.8181818181818L247.50128255208332,144.8181818181818L247.783046875,160.9090909090909L248.17951171874998,144.8181818181818L248.82781901041665,112.63636363636364L249.10459635416666,160.9090909090909L249.39134765625,160.9090909090909L249.85763020833332,128.72727272727272L250.13939453125002,160.9090909090909L250.535859375,144.8181818181818L251.253984375,96.54545454545453L251.53574869791666,160.9090909090909L252.41345703124998,80.45454545454547L252.69522135416668,160.9090909090909L253.16898437499998,128.72727272727272L253.75495442708333,112.63636363636364L254.03173177083332,160.9090909090909L254.30850911458336,160.9090909090909L254.83712890625,112.63636363636364L255.11889322916667,160.9090909090909L255.47047526041666,144.8181818181818L255.99410807291667,128.72727272727272L256.57758463541666,112.63636363636364L256.9640755208333,144.8181818181818L257.36802083333333,144.8181818181818L257.72458984375,144.8181818181818L258.00635416666665,160.9090909090909L258.2881184895833,160.9090909090909L258.93143880208333,112.63636363636364L259.21819010416664,160.9090909090909L259.75678385416666,112.63636363636364L260.1856640625,128.72727272727272L260.47241536458336,160.9090909090909L261.1980208333333,96.54545454545453L261.58949869791667,144.8181818181818L261.9460677083333,144.8181818181818L262.47718098958336,128.72727272727272L263.19031901041666,96.54545454545453L263.70896484375,128.72727272727272L263.99571614583334,160.9090909090909L264.6440234375,112.63636363636364L265.1826171875,112.63636363636364L265.5317057291667,144.8181818181818L265.81347005208335,160.9090909090909L266.23486979166665,128.72727272727272L266.52162109375,160.9090909090909L267.232265625,96.54545454545453L267.5190169270833,160.9090909090909L267.80078125,160.9090909090909L268.15236328125,144.8181818181818L268.4391145833333,160.9090909090909L268.79568359375,144.8181818181818L269.08243489583333,160.9090909090909L269.43401692708335,144.8181818181818L269.89281901041664,128.72727272727272L270.4762955729167,112.63636363636364L270.763046875,160.9090909090909L271.04481119791666,160.9090909090909L271.51857421875,128.72727272727272L271.7953515625,160.9090909090909L272.44116536458336,112.63636363636364L272.71794270833334,160.9090909090909L272.99970703125,160.9090909090909L273.54328776041666,112.63636363636364L273.8898828125,144.8181818181818L274.293828125,144.8181818181818" style="fill: none;" fill="none"></path></g><g><path stroke="rgb(0, 119, 187)" stroke-width="2px" d="M25.523359375000002,112.63636363636364L25.80013671875,160.9090909090909L26.318782552083334,128.72727272727272L26.720234375,144.8181818181818L27.006985677083332,160.9090909090909L27.39846354166667,144.8181818181818L27.79991536458333,144.8181818181818L28.156484375,144.8181818181818L28.819752604166666,96.54545454545453L29.403229166666666,112.63636363636364L30.051536458333334,96.54545454545453L30.33828776041667,160.9090909090909L30.734752604166665,144.8181818181818L31.011529947916667,160.9090909090909L31.724667968749998,96.54545454545453L32.19095052083333,128.72727272727272L32.477701822916664,160.9090909090909L33.00133463541667,128.72727272727272L33.28309895833333,160.9090909090909L33.56486328125,160.9090909090909L34.28049479166667,96.54545454545453L34.56724609375,160.9090909090909L34.85399739583333,160.9090909090909L35.26043619791667,144.8181818181818L35.72671875,128.72727272727272L36.013470052083335,160.9090909090909L36.295234375,160.9090909090909L36.646816406250004,144.8181818181818L36.92858072916666,160.9090909090909L37.21533203125,160.9090909090909L37.64421223958333,128.72727272727272L37.9259765625,160.9090909090909L38.32244140625,144.8181818181818L38.90841145833333,112.63636363636364L39.26248697916667,144.8181818181818L39.54425130208333,160.9090909090909L39.826015625,160.9090909090909L40.18009114583334,144.8181818181818L40.52668619791666,144.8181818181818L41.07026692708334,112.63636363636364L41.42184895833333,144.8181818181818L41.70361328125,160.9090909090909L41.99036458333333,160.9090909090909L42.26714192708334,160.9090909090909L43.03513671875,96.54545454545453L43.4316015625,144.8181818181818L43.71835286458334,160.9090909090909L44.256946614583335,112.63636363636364L44.53871093750001,160.9090909090909L45.354082031249995,64.36363636363636L45.94753255208333,112.63636363636364L46.348984375,144.8181818181818L47.12944661458334,80.45454545454547L47.406223958333335,160.9090909090909L47.68300130208333,160.9090909090909L47.964765625,160.9090909090909L48.31634765625,144.8181818181818L48.790110677083334,128.72727272727272L49.578053385416666,80.45454545454547L49.92963541666666,144.8181818181818L50.513111979166666,112.63636363636364L50.86469401041667,144.8181818181818L51.21378255208333,144.8181818181818L51.68505208333333,128.72727272727272L52.14884114583334,128.72727272727272L52.73231770833333,112.63636363636364L53.12878255208334,144.8181818181818L53.41553385416666,160.9090909090909L54.00150390625,112.63636363636364L54.28825520833333,160.9090909090909L54.87422526041667,112.63636363636364L55.15598958333333,160.9090909090909L55.55744140625,144.8181818181818L55.95889322916667,144.8181818181818L56.36533203125,144.8181818181818L56.64709635416666,160.9090909090909L57.23555989583333,112.63636363636364L57.592128906250004,144.8181818181818L57.98859375,144.8181818181818L58.265371093750005,160.9090909090909L58.66682291666667,144.8181818181818L59.02588541666667,144.8181818181818L59.302662760416666,160.9090909090909L59.58442708333333,160.9090909090909L59.97590494791666,144.8181818181818L60.571848958333334,112.63636363636364L61.040625,128.72727272727272L61.32737630208333,160.9090909090909L61.84602213541667,128.72727272727272L62.427005208333334,112.63636363636364L62.71375651041667,160.9090909090909L63.4194140625,96.54545454545453L63.70117838541667,160.9090909090909L64.05774739583333,144.8181818181818L64.33951171875,160.9090909090909L64.80828776041666,128.72727272727272L65.26708984375,128.72727272727272L65.90542317708334,112.63636363636364L66.30936848958333,144.8181818181818L66.59113281249999,160.9090909090909L67.06489583333332,128.72727272727272L67.34666015625,160.9090909090909L67.62343750000001,160.9090909090909L68.02488932291666,144.8181818181818L68.42634114583333,144.8181818181818L68.83028645833333,144.8181818181818L69.36888020833334,112.63636363636364L69.83266927083334,128.72727272727272L70.18923828125,144.8181818181818L70.47100260416667,160.9090909090909L70.82009114583333,144.8181818181818L71.10185546875,160.9090909090909L71.38860677083333,160.9090909090909L71.66538411458333,160.9090909090909L71.95213541666666,160.9090909090909L72.23389973958334,160.9090909090909L72.63535156249999,144.8181818181818L72.91711588541666,160.9090909090909L73.46069661458333,112.63636363636364L74.2511328125,64.36363636363636L74.53788411458333,160.9090909090909L75.00915364583332,128.72727272727272L75.41060546875,144.8181818181818L75.69735677083334,160.9090909090909L76.12125,128.72727272727272L76.40301432291668,160.9090909090909L76.68477864583332,160.9090909090909L76.97152994791666,160.9090909090909L77.24830729166666,160.9090909090909L77.59988932291668,144.8181818181818L78.14596354166666,112.63636363636364L78.43271484375,160.9090909090909L78.71946614583334,160.9090909090909L79.30294270833333,112.63636363636364L79.69940755208333,144.8181818181818L80.16319661458334,128.72727272727272L80.63695963541667,128.72727272727272L81.22043619791667,112.63636363636364L81.61690104166667,144.8181818181818L82.32255859375,96.54545454545453L82.60930989583333,160.9090909090909L82.88110026041667,160.9090909090909L83.58925130208333,96.54545454545453L84.18270182291667,112.63636363636364L84.469453125,160.9090909090909L85.06539713541666,112.63636363636364L85.46186197916667,144.8181818181818L85.74861328125,160.9090909090909L86.71858072916666,16.090909090909097L86.99535807291667,160.9090909090909L87.76584635416667,80.45454545454547L88.54132161458334,48.272727272727266L88.93778645833333,144.8181818181818L89.21955078125,160.9090909090909L89.68832682291668,128.72727272727272L89.97507812500001,160.9090909090909L90.25684244791665,160.9090909090909L90.53860677083333,160.9090909090909L90.82535807291666,160.9090909090909L91.112109375,160.9090909090909L91.64322265625,128.72727272727272L91.92997395833333,160.9090909090909L92.20176432291666,160.9090909090909L92.61817708333334,128.72727272727272L92.90492838541667,160.9090909090909L93.36871744791667,128.72727272727272L93.83749348958332,128.72727272727272L94.12424479166667,160.9090909090909L94.77504557291665,112.63636363636364L95.36350911458332,112.63636363636364L95.99934895833334,112.63636363636364L96.468125,128.72727272727272L96.93690104166667,128.72727272727272L97.28848307291666,144.8181818181818L97.56526041666667,160.9090909090909L98.03403645833333,128.72727272727272L98.31580078125,160.9090909090909L98.60255208333334,160.9090909090909L99.24587239583333,112.63636363636364L99.64732421875,144.8181818181818L100.07869791666667,128.72727272727272L100.36544921874999,160.9090909090909L100.65220052083333,160.9090909090909L101.32045572916667,96.54545454545453L101.72190755208332,144.8181818181818L102.56470703125,80.45454545454547L103.15815755208334,112.63636363636364L103.74662109375001,112.63636363636364L104.02838541666667,160.9090909090909L104.42983723958332,144.8181818181818L104.95347005208333,128.72727272727272L105.354921875,144.8181818181818L105.81372395833334,128.72727272727272L106.45205729166666,112.63636363636364L106.99065104166667,112.63636363636364L107.78108723958334,80.45454545454547L108.31220052083333,128.72727272727272L108.78347005208333,128.72727272727272L109.42679036458334,112.63636363636364L109.71354166666666,160.9090909090909L109.99031901041666,160.9090909090909L110.39177083333334,144.8181818181818L110.67353515625,160.9090909090909L111.38667317708334,80.45454545454547L111.67342447916666,160.9090909090909L112.02999348958333,144.8181818181818L112.55611979166666,128.72727272727272L113.13959635416667,112.63636363636364L113.78291666666667,112.63636363636364L114.24421223958335,128.72727272727272L114.65065104166666,144.8181818181818L114.93740234375,160.9090909090909L115.22415364583334,160.9090909090909L115.50093098958334,160.9090909090909L115.92731770833333,128.72727272727272L116.56565104166667,112.63636363636364L116.91723307291666,144.8181818181818L117.19899739583333,160.9090909090909L117.48076171875,160.9090909090909L117.7575390625,160.9090909090909L118.04429036458333,160.9090909090909L118.3260546875,160.9090909090909L118.68262369791667,144.8181818181818L118.96438802083334,160.9090909090909L119.25113932291667,160.9090909090909L119.89944661458334,112.63636363636364L120.1812109375,160.9090909090909L120.46297526041667,160.9090909090909L120.92427083333334,128.72727272727272L121.28083984375,144.8181818181818L121.80447265625001,128.72727272727272L122.09122395833334,160.9090909090909L122.36800130208333,160.9090909090909L122.89163411458334,128.72727272727272L123.17838541666667,160.9090909090909L123.70201822916667,128.72727272727272L123.98876953125,160.9090909090909L124.6994140625,96.54545454545453L125.05099609375,144.8181818181818L125.44247395833334,144.8181818181818L125.72423828125001,160.9090909090909L126.360078125,112.63636363636364L126.71166015624999,144.8181818181818L127.06324218750001,144.8181818181818L127.58188802083333,128.72727272727272L127.86365234375,160.9090909090909L128.15040364583334,160.9090909090909L128.7388671875,112.63636363636364L129.01065755208333,160.9090909090909L129.41958984375,144.8181818181818L130.00805338541667,112.63636363636364L130.40950520833334,144.8181818181818L130.76607421875,144.8181818181818L131.27973307291666,128.72727272727272L131.71110677083334,128.72727272727272L132.07266276041668,144.8181818181818L132.4791015625,144.8181818181818L133.062578125,112.63636363636364L133.77820963541666,96.54545454545453L134.18714192708333,144.8181818181818L134.46391927083334,160.9090909090909L134.86038411458333,144.8181818181818L135.20697916666668,144.8181818181818L135.49373046875,160.9090909090909L135.78048177083332,160.9090909090909L136.18692057291668,144.8181818181818L136.473671875,160.9090909090909L136.9075390625,128.72727272727272L137.54337890625,96.54545454545453L137.93984375,144.8181818181818L138.22160807291667,160.9090909090909L138.508359375,160.9090909090909L138.78513671875,160.9090909090909L139.37858723958334,112.63636363636364L139.73016927083333,144.8181818181818L140.3186328125,112.63636363636364L140.60538411458333,160.9090909090909L141.01182291666666,144.8181818181818L141.43571614583334,128.72727272727272L141.83467447916667,144.8181818181818L142.2336328125,144.8181818181818L142.58521484374998,144.8181818181818L142.8619921875,160.9090909090909L143.25845703125,144.8181818181818L143.72224609375,128.72727272727272L144.24338541666665,128.72727272727272L144.83683593749998,112.63636363636364L145.26820963541667,128.72727272727272L145.82176432291666,112.63636363636364L146.09854166666668,160.9090909090909L146.38030598958335,160.9090909090909L146.6620703125,160.9090909090909L147.13583333333335,128.72727272727272L147.48741536458334,144.8181818181818L148.01354166666667,128.72727272727272L148.53717447916668,128.72727272727272L148.81893880208332,160.9090909090909L149.09571614583334,160.9090909090909L149.61934895833332,128.72727272727272L149.90111328125,160.9090909090909L150.18786458333332,160.9090909090909L150.77134114583333,112.63636363636364L151.25009114583332,128.72727272727272L151.67647786458332,128.72727272727272L152.20260416666667,128.72727272727272L152.72623697916666,128.72727272727272L153.24986979166667,128.72727272727272L153.53662109375003,160.9090909090909L153.82337239583333,160.9090909090909L154.41432942708332,112.63636363636364L154.69609375000002,160.9090909090909L154.97287109375,160.9090909090909L155.36933593749998,144.8181818181818L155.91790364583335,112.63636363636364L156.19966796875,160.9090909090909L156.48143229166666,160.9090909090909L156.88288411458333,144.8181818181818L157.27436197916666,144.8181818181818L157.55113932291667,160.9090909090909L157.90770833333335,144.8181818181818L158.18947265625,160.9090909090909L158.6607421875,128.72727272727272L159.37388020833333,96.54545454545453L159.72047526041666,144.8181818181818L159.99725260416665,160.9090909090909L160.64057291666668,112.63636363636364L161.04202473958333,144.8181818181818L161.32877604166669,160.9090909090909L162.03443359375,96.54545454545453L162.67775390625002,112.63636363636364L162.95951822916666,160.9090909090909L163.463203125,112.63636363636364L163.7499544270833,160.9090909090909L164.15140624999998,144.8181818181818L164.43317057291668,160.9090909090909L164.71992187499998,160.9090909090909L165.18371093750002,128.72727272727272L165.46547526041667,160.9090909090909L165.86194010416668,144.8181818181818L166.2135221354167,144.8181818181818L166.62245442708334,144.8181818181818L166.90920572916664,160.9090909090909L167.50514973958335,112.63636363636364L167.89662760416667,144.8181818181818L168.25319661458332,144.8181818181818L168.66212890625002,144.8181818181818L169.01869791666667,144.8181818181818L169.30046223958334,160.9090909090909L169.58721354166667,160.9090909090909L169.98866536458334,144.8181818181818L170.45993489583333,128.72727272727272L170.92621744791666,128.72727272727272L171.39000651041667,128.72727272727272L171.74158854166666,144.8181818181818L172.09067708333336,144.8181818181818L172.37244140625,160.9090909090909L172.89607421875002,128.72727272727272L173.17783854166666,160.9090909090909L173.64661458333333,128.72727272727272L174.28494791666668,112.63636363636364L174.68639973958335,144.8181818181818L175.20504557291665,128.72727272727272L175.48680989583335,160.9090909090909L175.96306640625,128.72727272727272L176.24483072916667,160.9090909090909L176.77345052083334,128.72727272727272L177.0602018229167,160.9090909090909L177.58383463541665,128.72727272727272L178.01770182291668,128.72727272727272L178.41915364583335,144.8181818181818L179.06995442708333,96.54545454545453L179.42153645833335,144.8181818181818L179.84293619791669,128.72727272727272L180.18953125,144.8181818181818L180.59098307291666,144.8181818181818L180.997421875,144.8181818181818L181.76292317708334,96.54545454545453L182.16686848958332,144.8181818181818L182.45361979166668,160.9090909090909L182.84759114583332,144.8181818181818L183.36623697916667,128.72727272727272L183.64800130208332,160.9090909090909L184.17163411458333,128.72727272727272L184.4583854166667,160.9090909090909L184.86482421875,144.8181818181818L185.50814453125003,112.63636363636364L185.86471354166667,144.8181818181818L186.38834635416666,128.72727272727272L186.90449869791667,128.72727272727272L187.18626302083334,160.9090909090909L187.47301432291667,160.9090909090909L187.7547786458333,160.9090909090909L188.29087890625001,128.72727272727272L188.64744791666666,144.8181818181818L189.30323567708334,112.63636363636364L189.585,160.9090909090909L189.87175130208334,160.9090909090909L190.22333333333336,144.8181818181818L190.64972005208335,128.72727272727272L190.93647135416666,160.9090909090909L191.34041666666664,144.8181818181818L191.62716796875,160.9090909090909L191.97875,144.8181818181818L192.3826953125,144.8181818181818L192.66445963541665,160.9090909090909L192.9512109375,160.9090909090909L193.22798828125,160.9090909090909L193.57458333333335,144.8181818181818L194.05083984375,128.72727272727272L194.33759114583333,160.9090909090909L194.6243424479167,160.9090909090909L194.91109375,160.9090909090909L195.26766276041667,144.8181818181818L195.67160807291665,144.8181818181818L196.06807291666667,144.8181818181818L196.3498372395833,160.9090909090909L196.70141927083333,144.8181818181818L196.9881705729167,160.9090909090909L197.52177734375,112.63636363636364L197.99304687499998,128.72727272727272L198.39449869791665,144.8181818181818L198.68125,160.9090909090909L199.32457031250001,96.54545454545453L199.72103515625003,144.8181818181818L200.24466796874998,128.72727272727272L200.52643229166668,160.9090909090909L200.99271484375,128.72727272727272L201.51634765625002,128.72727272727272L201.86792968749998,144.8181818181818L202.40402994791668,128.72727272727272L202.75561197916667,144.8181818181818L203.04236328125,160.9090909090909L203.32412760416668,160.9090909090909L203.79539713541666,128.72727272727272L204.19186197916667,144.8181818181818L204.54843098958335,144.8181818181818L205.01720703125,128.72727272727272L205.3687890625,144.8181818181818L206.20909505208334,80.45454545454547L206.67537760416667,128.72727272727272L206.96212890625,160.9090909090909L207.54560546875,112.63636363636364L207.83235677083334,160.9090909090909L208.11412109375,160.9090909090909L208.63276692708334,128.72727272727272L209.21125651041666,112.63636363636364L209.97675781249998,96.54545454545453L210.37322265625,144.8181818181818L210.90184244791666,128.72727272727272L211.18859375,160.9090909090909L211.79949869791668,96.54545454545453L212.50764973958334,96.54545454545453L212.7894140625,160.9090909090909L213.07616536458335,160.9090909090909L213.66462890625002,112.63636363636364L213.95138020833332,160.9090909090909L214.23314453125002,160.9090909090909L214.64207682291666,144.8181818181818L215.11583984375002,128.72727272727272L215.587109375,128.72727272727272L216.06087239583331,128.72727272727272L216.34762369791667,160.9090909090909L216.634375,160.9090909090909L217.1605013020833,128.72727272727272L217.44725260416666,160.9090909090909L217.72901692708334,160.9090909090909L218.01078125,160.9090909090909L218.29753255208334,160.9090909090909L218.579296875,160.9090909090909L219.06054036458335,128.72727272727272L219.52682291666667,128.72727272727272L220.00058593749998,128.72727272727272L220.28235026041668,160.9090909090909L220.79600911458334,128.72727272727272L221.40192708333333,112.63636363636364L221.74852213541666,144.8181818181818L222.26716796875,128.72727272727272L222.62373697916667,144.8181818181818L222.90051432291665,160.9090909090909L223.546328125,112.63636363636364L224.06497395833333,128.72727272727272L224.59359375000003,128.72727272727272L224.87037109375,160.9090909090909L225.15213541666665,160.9090909090909L225.42891276041667,160.9090909090909L225.8951953125,128.72727272727272L226.50859375,96.54545454545453L226.79534505208332,160.9090909090909L227.07212239583333,160.9090909090909L227.42370442708332,144.8181818181818L227.70546875,160.9090909090909L227.98224609374998,160.9090909090909L228.26401041666668,160.9090909090909L228.69538411458333,128.72727272727272L229.05195312499998,144.8181818181818L229.58306640625003,128.72727272727272L229.86981770833333,160.9090909090909L230.50565755208333,112.63636363636364L231.05422526041667,112.63636363636364L231.40580729166666,144.8181818181818L231.924453125,128.72727272727272L232.283515625,144.8181818181818L232.75478515625,128.72727272727272L233.04153645833335,160.9090909090909L233.44797526041665,144.8181818181818L233.92173828125,128.72727272727272L234.20350260416666,160.9090909090909L234.62988932291665,128.72727272727272L234.91165364583333,160.9090909090909L235.31559895833334,144.8181818181818L235.60235026041667,160.9090909090909L235.88411458333334,160.9090909090909L236.16587890625,160.9090909090909L236.62966796875,128.72727272727272L237.14332682291666,128.72727272727272L237.49490885416665,144.8181818181818L237.89636067708332,144.8181818181818L238.18311197916668,160.9090909090909L238.46986328124999,160.9090909090909L238.74664062500003,160.9090909090909L239.02840494791667,160.9090909090909L239.31515624999997,160.9090909090909L239.60190755208333,160.9090909090909L240.19286458333332,112.63636363636364L240.47961588541668,160.9090909090909L240.88106770833335,144.8181818181818L241.16283203125,160.9090909090909L241.80116536458334,112.63636363636364L242.32479817708332,128.72727272727272L242.61154947916665,160.9090909090909L243.01300130208332,144.8181818181818L243.36458333333334,144.8181818181818L243.77102213541667,144.8181818181818L244.05278645833334,160.9090909090909L244.40436848958333,144.8181818181818L245.43916666666667,48.272727272727266L245.72093098958334,160.9090909090909L246.19469401041667,128.72727272727272L246.6634700520833,128.72727272727272L247.0200390625,144.8181818181818L247.37660807291667,144.8181818181818L247.80050130208332,128.72727272727272L248.14709635416668,144.8181818181818L248.55104166666666,144.8181818181818L249.26168619791667,96.54545454545453L249.92994140625,96.54545454545453L250.2865104166667,144.8181818181818L250.57326171875,160.9090909090909L250.9697265625,144.8181818181818L251.32629557291668,144.8181818181818L251.84244791666666,128.72727272727272L252.36608072916667,128.72727272727272L252.64285807291665,160.9090909090909L252.99942708333333,144.8181818181818L253.5130859375,128.72727272727272L253.79983723958333,160.9090909090909L254.27360026041666,128.72727272727272L254.78725911458332,128.72727272727272L255.25852864583334,128.72727272727272L255.8469921875,112.63636363636364L256.1287565104167,160.9090909090909L256.65238932291663,128.72727272727272L256.939140625,160.9090909090909L257.4527994791667,128.72727272727272L258.3504557291667,80.45454545454547L258.63720703125,160.9090909090909L258.9239583333333,160.9090909090909L259.32541015625,144.8181818181818L259.6769921875,144.8181818181818L260.27044270833335,112.63636363636364L260.9312174479167,96.54545454545453L261.2129817708333,160.9090909090909L261.49474609375,160.9090909090909L261.8937044270833,144.8181818181818L262.17546875,160.9090909090909L262.7589453125,112.63636363636364L263.04569661458333,160.9090909090909L263.3274609375,160.9090909090909L263.80870442708334,128.72727272727272L264.1652734375,144.8181818181818L264.51685546875,144.8181818181818L264.87342447916666,144.8181818181818L265.47186197916665,112.63636363636364L265.7536263020834,160.9090909090909L266.15757161458333,144.8181818181818L267.07018880208335,64.36363636363636L267.35694010416665,160.9090909090909L268.00026041666666,112.63636363636364L268.39173828125,144.8181818181818L268.85802083333334,128.72727272727272L269.1447721354167,160.9090909090909L269.5013411458333,144.8181818181818L269.78310546875,160.9090909090909L270.4438802083333,96.54545454545453L270.80044921875,144.8181818181818L271.0822135416667,160.9090909090909L271.43379557291667,144.8181818181818L271.90755859375,128.72727272727272L272.3090104166667,144.8181818181818L272.98723958333335,96.54545454545453L273.26401692708333,160.9090909090909L273.90733723958334,96.54545454545453L274.1791276041667,160.9090909090909" style="fill: none;" fill="none"></path></g></g></g></g></g></g><g transform="translate(30, 177)" clip-path="url(#clip_1)"><clipPath id="clip_1"><rect width="299" height="23"></rect></clipPath><g><g><line x1="0" y1="0" x2="0" y2="5" style="visibility: inherit;" fill="rgb(0, 0, 0)" stroke="rgb(204, 204, 204)" stroke-width="1px"></line><line x1="24.934895833333332" y1="0" x2="24.934895833333332" y2="5" style="visibility: inherit;" fill="rgb(0, 0, 0)" stroke="rgb(204, 204, 204)" stroke-width="1px"></line><line x1="49.869791666666664" y1="0" x2="49.869791666666664" y2="5" style="visibility: inherit;" fill="rgb(0, 0, 0)" stroke="rgb(204, 204, 204)" stroke-width="1px"></line><line x1="74.8046875" y1="0" x2="74.8046875" y2="5" style="visibility: inherit;" fill="rgb(0, 0, 0)" stroke="rgb(204, 204, 204)" stroke-width="1px"></line><line x1="99.73958333333333" y1="0" x2="99.73958333333333" y2="5" style="visibility: inherit;" fill="rgb(0, 0, 0)" stroke="rgb(204, 204, 204)" stroke-width="1px"></line><line x1="124.67447916666667" y1="0" x2="124.67447916666667" y2="5" style="visibility: inherit;" fill="rgb(0, 0, 0)" stroke="rgb(204, 204, 204)" stroke-width="1px"></line><line x1="149.609375" y1="0" x2="149.609375" y2="5" style="visibility: inherit;" fill="rgb(0, 0, 0)" stroke="rgb(204, 204, 204)" stroke-width="1px"></line><line x1="174.54427083333334" y1="0" x2="174.54427083333334" y2="5" style="visibility: inherit;" fill="rgb(0, 0, 0)" stroke="rgb(204, 204, 204)" stroke-width="1px"></line><line x1="199.47916666666666" y1="0" x2="199.47916666666666" y2="5" style="visibility: inherit;" fill="rgb(0, 0, 0)" stroke="rgb(204, 204, 204)" stroke-width="1px"></line><line x1="224.4140625" y1="0" x2="224.4140625" y2="5" style="visibility: inherit;" fill="rgb(0, 0, 0)" stroke="rgb(204, 204, 204)" stroke-width="1px"></line><line x1="249.34895833333334" y1="0" x2="249.34895833333334" y2="5" style="visibility: inherit;" fill="rgb(0, 0, 0)" stroke="rgb(204, 204, 204)" stroke-width="1px"></line><line x1="274.28385416666663" y1="0" x2="274.28385416666663" y2="5" style="visibility: inherit;" fill="rgb(0, 0, 0)" stroke="rgb(204, 204, 204)" stroke-width="1px"></line><line x1="299.21875" y1="0" x2="299.21875" y2="5" style="visibility: inherit;" fill="rgb(0, 0, 0)" stroke="rgb(204, 204, 204)" stroke-width="1px"></line></g><g transform="translate(0, 8)"><text x="0" y="0" dx="0em" dy="0.95em" style="text-anchor: middle; visibility: hidden; font-family: Roboto, sans-serif; font-size: 12px; font-weight: 200;" fill="rgb(33, 33, 33)" stroke="none" stroke-width="1px">-10k</text><text x="24.934895833333332" y="0" dx="0em" dy="0.95em" style="text-anchor: middle; visibility: inherit; font-family: Roboto, sans-serif; font-size: 12px; font-weight: 200;" fill="rgb(33, 33, 33)" stroke="none" stroke-width="1px">0</text><text x="49.869791666666664" y="0" dx="0em" dy="0.95em" style="text-anchor: middle; visibility: hidden; font-family: Roboto, sans-serif; font-size: 12px; font-weight: 200;" fill="rgb(33, 33, 33)" stroke="none" stroke-width="1px">10k</text><text x="74.8046875" y="0" dx="0em" dy="0.95em" style="text-anchor: middle; visibility: inherit; font-family: Roboto, sans-serif; font-size: 12px; font-weight: 200;" fill="rgb(33, 33, 33)" stroke="none" stroke-width="1px">20k</text><text x="99.73958333333333" y="0" dx="0em" dy="0.95em" style="text-anchor: middle; visibility: hidden; font-family: Roboto, sans-serif; font-size: 12px; font-weight: 200;" fill="rgb(33, 33, 33)" stroke="none" stroke-width="1px">30k</text><text x="124.67447916666667" y="0" dx="0em" dy="0.95em" style="text-anchor: middle; visibility: inherit; font-family: Roboto, sans-serif; font-size: 12px; font-weight: 200;" fill="rgb(33, 33, 33)" stroke="none" stroke-width="1px">40k</text><text x="149.609375" y="0" dx="0em" dy="0.95em" style="text-anchor: middle; visibility: hidden; font-family: Roboto, sans-serif; font-size: 12px; font-weight: 200;" fill="rgb(33, 33, 33)" stroke="none" stroke-width="1px">50k</text><text x="174.54427083333334" y="0" dx="0em" dy="0.95em" style="text-anchor: middle; visibility: inherit; font-family: Roboto, sans-serif; font-size: 12px; font-weight: 200;" fill="rgb(33, 33, 33)" stroke="none" stroke-width="1px">60k</text><text x="199.47916666666666" y="0" dx="0em" dy="0.95em" style="text-anchor: middle; visibility: hidden; font-family: Roboto, sans-serif; font-size: 12px; font-weight: 200;" fill="rgb(33, 33, 33)" stroke="none" stroke-width="1px">70k</text><text x="224.4140625" y="0" dx="0em" dy="0.95em" style="text-anchor: middle; visibility: inherit; font-family: Roboto, sans-serif; font-size: 12px; font-weight: 200;" fill="rgb(33, 33, 33)" stroke="none" stroke-width="1px">80k</text><text x="249.34895833333334" y="0" dx="0em" dy="0.95em" style="text-anchor: middle; visibility: hidden; font-family: Roboto, sans-serif; font-size: 12px; font-weight: 200;" fill="rgb(33, 33, 33)" stroke="none" stroke-width="1px">90k</text><text x="274.28385416666663" y="0" dx="0em" dy="0.95em" style="text-anchor: middle; visibility: inherit; font-family: Roboto, sans-serif; font-size: 12px; font-weight: 200;" fill="rgb(33, 33, 33)" stroke="none" stroke-width="1px">100k</text><text x="299.21875" y="0" dx="0em" dy="0.95em" style="text-anchor: middle; visibility: hidden; font-family: Roboto, sans-serif; font-size: 12px; font-weight: 200;" fill="rgb(33, 33, 33)" stroke="none" stroke-width="1px">110k</text></g><line x1="0" y1="0" x2="299.21875" y2="0" fill="rgb(0, 0, 0)" stroke="rgb(204, 204, 204)" stroke-width="1px"></line></g></g></g></g></svg>