<?xml version="1.0" encoding="utf-8" standalone="no"?>
<!DOCTYPE svg PUBLIC "-//W3C//DTD SVG 1.1//EN"
  "http://www.w3.org/Graphics/SVG/1.1/DTD/svg11.dtd">
<svg xmlns:xlink="http://www.w3.org/1999/xlink" width="720pt" height="432pt" viewBox="0 0 720 432" xmlns="http://www.w3.org/2000/svg" version="1.1">
 <metadata>
  <rdf:RDF xmlns:dc="http://purl.org/dc/elements/1.1/" xmlns:cc="http://creativecommons.org/ns#" xmlns:rdf="http://www.w3.org/1999/02/22-rdf-syntax-ns#">
   <cc:Work>
    <dc:type rdf:resource="http://purl.org/dc/dcmitype/StillImage"/>
    <dc:date>2025-02-09T22:58:10.893637</dc:date>
    <dc:format>image/svg+xml</dc:format>
    <dc:creator>
     <cc:Agent>
      <dc:title>Matplotlib v3.10.0, https://matplotlib.org/</dc:title>
     </cc:Agent>
    </dc:creator>
   </cc:Work>
  </rdf:RDF>
 </metadata>
 <defs>
  <style type="text/css">*{stroke-linejoin: round; stroke-linecap: butt}</style>
 </defs>
 <g id="figure_1">
  <g id="patch_1">
   <path d="M 0 432 
L 720 432 
L 720 0 
L 0 0 
z
" style="fill: #ffffff"/>
  </g>
  <g id="axes_1">
   <g id="patch_2">
    <path d="M 47.81 390.04 
L 705.645294 390.04 
L 705.645294 25.44 
L 47.81 25.44 
z
" style="fill: #ffffff"/>
   </g>
   <g id="matplotlib.axis_1">
    <g id="xtick_1">
     <g id="line2d_1">
      <defs>
       <path id="md24b7ccd2f" d="M 0 0 
L 0 3.5 
" style="stroke: #000000; stroke-width: 0.8"/>
      </defs>
      <g>
       <use xlink:href="#md24b7ccd2f" x="65.012009" y="390.04" style="stroke: #000000; stroke-width: 0.8"/>
      </g>
     </g>
     <g id="text_1">
      <!-- 0 -->
      <g transform="translate(61.830759 404.638438) scale(0.1 -0.1)">
       <defs>
        <path id="DejaVuSans-30" d="M 2034 4250 
Q 1547 4250 1301 3770 
Q 1056 3291 1056 2328 
Q 1056 1369 1301 889 
Q 1547 409 2034 409 
Q 2525 409 2770 889 
Q 3016 1369 3016 2328 
Q 3016 3291 2770 3770 
Q 2525 4250 2034 4250 
z
M 2034 4750 
Q 2819 4750 3233 4129 
Q 3647 3509 3647 2328 
Q 3647 1150 3233 529 
Q 2819 -91 2034 -91 
Q 1250 -91 836 529 
Q 422 1150 422 2328 
Q 422 3509 836 4129 
Q 1250 4750 2034 4750 
z
" transform="scale(0.015625)"/>
       </defs>
       <use xlink:href="#DejaVuSans-30"/>
      </g>
     </g>
    </g>
    <g id="xtick_2">
     <g id="line2d_2">
      <g>
       <use xlink:href="#md24b7ccd2f" x="189.456841" y="390.04" style="stroke: #000000; stroke-width: 0.8"/>
      </g>
     </g>
     <g id="text_2">
      <!-- 20000 -->
      <g transform="translate(173.550591 404.638438) scale(0.1 -0.1)">
       <defs>
        <path id="DejaVuSans-32" d="M 1228 531 
L 3431 531 
L 3431 0 
L 469 0 
L 469 531 
Q 828 903 1448 1529 
Q 2069 2156 2228 2338 
Q 2531 2678 2651 2914 
Q 2772 3150 2772 3378 
Q 2772 3750 2511 3984 
Q 2250 4219 1831 4219 
Q 1534 4219 1204 4116 
Q 875 4013 500 3803 
L 500 4441 
Q 881 4594 1212 4672 
Q 1544 4750 1819 4750 
Q 2544 4750 2975 4387 
Q 3406 4025 3406 3419 
Q 3406 3131 3298 2873 
Q 3191 2616 2906 2266 
Q 2828 2175 2409 1742 
Q 1991 1309 1228 531 
z
" transform="scale(0.015625)"/>
       </defs>
       <use xlink:href="#DejaVuSans-32"/>
       <use xlink:href="#DejaVuSans-30" transform="translate(63.623047 0)"/>
       <use xlink:href="#DejaVuSans-30" transform="translate(127.246094 0)"/>
       <use xlink:href="#DejaVuSans-30" transform="translate(190.869141 0)"/>
       <use xlink:href="#DejaVuSans-30" transform="translate(254.492188 0)"/>
      </g>
     </g>
    </g>
    <g id="xtick_3">
     <g id="line2d_3">
      <g>
       <use xlink:href="#md24b7ccd2f" x="313.901673" y="390.04" style="stroke: #000000; stroke-width: 0.8"/>
      </g>
     </g>
     <g id="text_3">
      <!-- 40000 -->
      <g transform="translate(297.995423 404.638438) scale(0.1 -0.1)">
       <defs>
        <path id="DejaVuSans-34" d="M 2419 4116 
L 825 1625 
L 2419 1625 
L 2419 4116 
z
M 2253 4666 
L 3047 4666 
L 3047 1625 
L 3713 1625 
L 3713 1100 
L 3047 1100 
L 3047 0 
L 2419 0 
L 2419 1100 
L 313 1100 
L 313 1709 
L 2253 4666 
z
" transform="scale(0.015625)"/>
       </defs>
       <use xlink:href="#DejaVuSans-34"/>
       <use xlink:href="#DejaVuSans-30" transform="translate(63.623047 0)"/>
       <use xlink:href="#DejaVuSans-30" transform="translate(127.246094 0)"/>
       <use xlink:href="#DejaVuSans-30" transform="translate(190.869141 0)"/>
       <use xlink:href="#DejaVuSans-30" transform="translate(254.492188 0)"/>
      </g>
     </g>
    </g>
    <g id="xtick_4">
     <g id="line2d_4">
      <g>
       <use xlink:href="#md24b7ccd2f" x="438.346505" y="390.04" style="stroke: #000000; stroke-width: 0.8"/>
      </g>
     </g>
     <g id="text_4">
      <!-- 60000 -->
      <g transform="translate(422.440255 404.638438) scale(0.1 -0.1)">
       <defs>
        <path id="DejaVuSans-36" d="M 2113 2584 
Q 1688 2584 1439 2293 
Q 1191 2003 1191 1497 
Q 1191 994 1439 701 
Q 1688 409 2113 409 
Q 2538 409 2786 701 
Q 3034 994 3034 1497 
Q 3034 2003 2786 2293 
Q 2538 2584 2113 2584 
z
M 3366 4563 
L 3366 3988 
Q 3128 4100 2886 4159 
Q 2644 4219 2406 4219 
Q 1781 4219 1451 3797 
Q 1122 3375 1075 2522 
Q 1259 2794 1537 2939 
Q 1816 3084 2150 3084 
Q 2853 3084 3261 2657 
Q 3669 2231 3669 1497 
Q 3669 778 3244 343 
Q 2819 -91 2113 -91 
Q 1303 -91 875 529 
Q 447 1150 447 2328 
Q 447 3434 972 4092 
Q 1497 4750 2381 4750 
Q 2619 4750 2861 4703 
Q 3103 4656 3366 4563 
z
" transform="scale(0.015625)"/>
       </defs>
       <use xlink:href="#DejaVuSans-36"/>
       <use xlink:href="#DejaVuSans-30" transform="translate(63.623047 0)"/>
       <use xlink:href="#DejaVuSans-30" transform="translate(127.246094 0)"/>
       <use xlink:href="#DejaVuSans-30" transform="translate(190.869141 0)"/>
       <use xlink:href="#DejaVuSans-30" transform="translate(254.492188 0)"/>
      </g>
     </g>
    </g>
    <g id="xtick_5">
     <g id="line2d_5">
      <g>
       <use xlink:href="#md24b7ccd2f" x="562.791337" y="390.04" style="stroke: #000000; stroke-width: 0.8"/>
      </g>
     </g>
     <g id="text_5">
      <!-- 80000 -->
      <g transform="translate(546.885087 404.638438) scale(0.1 -0.1)">
       <defs>
        <path id="DejaVuSans-38" d="M 2034 2216 
Q 1584 2216 1326 1975 
Q 1069 1734 1069 1313 
Q 1069 891 1326 650 
Q 1584 409 2034 409 
Q 2484 409 2743 651 
Q 3003 894 3003 1313 
Q 3003 1734 2745 1975 
Q 2488 2216 2034 2216 
z
M 1403 2484 
Q 997 2584 770 2862 
Q 544 3141 544 3541 
Q 544 4100 942 4425 
Q 1341 4750 2034 4750 
Q 2731 4750 3128 4425 
Q 3525 4100 3525 3541 
Q 3525 3141 3298 2862 
Q 3072 2584 2669 2484 
Q 3125 2378 3379 2068 
Q 3634 1759 3634 1313 
Q 3634 634 3220 271 
Q 2806 -91 2034 -91 
Q 1263 -91 848 271 
Q 434 634 434 1313 
Q 434 1759 690 2068 
Q 947 2378 1403 2484 
z
M 1172 3481 
Q 1172 3119 1398 2916 
Q 1625 2713 2034 2713 
Q 2441 2713 2670 2916 
Q 2900 3119 2900 3481 
Q 2900 3844 2670 4047 
Q 2441 4250 2034 4250 
Q 1625 4250 1398 4047 
Q 1172 3844 1172 3481 
z
" transform="scale(0.015625)"/>
       </defs>
       <use xlink:href="#DejaVuSans-38"/>
       <use xlink:href="#DejaVuSans-30" transform="translate(63.623047 0)"/>
       <use xlink:href="#DejaVuSans-30" transform="translate(127.246094 0)"/>
       <use xlink:href="#DejaVuSans-30" transform="translate(190.869141 0)"/>
       <use xlink:href="#DejaVuSans-30" transform="translate(254.492188 0)"/>
      </g>
     </g>
    </g>
    <g id="xtick_6">
     <g id="line2d_6">
      <g>
       <use xlink:href="#md24b7ccd2f" x="687.23617" y="390.04" style="stroke: #000000; stroke-width: 0.8"/>
      </g>
     </g>
     <g id="text_6">
      <!-- 100000 -->
      <g transform="translate(668.14867 404.638438) scale(0.1 -0.1)">
       <defs>
        <path id="DejaVuSans-31" d="M 794 531 
L 1825 531 
L 1825 4091 
L 703 3866 
L 703 4441 
L 1819 4666 
L 2450 4666 
L 2450 531 
L 3481 531 
L 3481 0 
L 794 0 
L 794 531 
z
" transform="scale(0.015625)"/>
       </defs>
       <use xlink:href="#DejaVuSans-31"/>
       <use xlink:href="#DejaVuSans-30" transform="translate(63.623047 0)"/>
       <use xlink:href="#DejaVuSans-30" transform="translate(127.246094 0)"/>
       <use xlink:href="#DejaVuSans-30" transform="translate(190.869141 0)"/>
       <use xlink:href="#DejaVuSans-30" transform="translate(254.492188 0)"/>
       <use xlink:href="#DejaVuSans-30" transform="translate(318.115234 0)"/>
      </g>
     </g>
    </g>
    <g id="text_7">
     <!-- Step -->
     <g transform="translate(365.342491 418.316562) scale(0.1 -0.1)">
      <defs>
       <path id="DejaVuSans-53" d="M 3425 4513 
L 3425 3897 
Q 3066 4069 2747 4153 
Q 2428 4238 2131 4238 
Q 1616 4238 1336 4038 
Q 1056 3838 1056 3469 
Q 1056 3159 1242 3001 
Q 1428 2844 1947 2747 
L 2328 2669 
Q 3034 2534 3370 2195 
Q 3706 1856 3706 1288 
Q 3706 609 3251 259 
Q 2797 -91 1919 -91 
Q 1588 -91 1214 -16 
Q 841 59 441 206 
L 441 856 
Q 825 641 1194 531 
Q 1563 422 1919 422 
Q 2459 422 2753 634 
Q 3047 847 3047 1241 
Q 3047 1584 2836 1778 
Q 2625 1972 2144 2069 
L 1759 2144 
Q 1053 2284 737 2584 
Q 422 2884 422 3419 
Q 422 4038 858 4394 
Q 1294 4750 2059 4750 
Q 2388 4750 2728 4690 
Q 3069 4631 3425 4513 
z
" transform="scale(0.015625)"/>
       <path id="DejaVuSans-74" d="M 1172 4494 
L 1172 3500 
L 2356 3500 
L 2356 3053 
L 1172 3053 
L 1172 1153 
Q 1172 725 1289 603 
Q 1406 481 1766 481 
L 2356 481 
L 2356 0 
L 1766 0 
Q 1100 0 847 248 
Q 594 497 594 1153 
L 594 3053 
L 172 3053 
L 172 3500 
L 594 3500 
L 594 4494 
L 1172 4494 
z
" transform="scale(0.015625)"/>
       <path id="DejaVuSans-65" d="M 3597 1894 
L 3597 1613 
L 953 1613 
Q 991 1019 1311 708 
Q 1631 397 2203 397 
Q 2534 397 2845 478 
Q 3156 559 3463 722 
L 3463 178 
Q 3153 47 2828 -22 
Q 2503 -91 2169 -91 
Q 1331 -91 842 396 
Q 353 884 353 1716 
Q 353 2575 817 3079 
Q 1281 3584 2069 3584 
Q 2775 3584 3186 3129 
Q 3597 2675 3597 1894 
z
M 3022 2063 
Q 3016 2534 2758 2815 
Q 2500 3097 2075 3097 
Q 1594 3097 1305 2825 
Q 1016 2553 972 2059 
L 3022 2063 
z
" transform="scale(0.015625)"/>
       <path id="DejaVuSans-70" d="M 1159 525 
L 1159 -1331 
L 581 -1331 
L 581 3500 
L 1159 3500 
L 1159 2969 
Q 1341 3281 1617 3432 
Q 1894 3584 2278 3584 
Q 2916 3584 3314 3078 
Q 3713 2572 3713 1747 
Q 3713 922 3314 415 
Q 2916 -91 2278 -91 
Q 1894 -91 1617 61 
Q 1341 213 1159 525 
z
M 3116 1747 
Q 3116 2381 2855 2742 
Q 2594 3103 2138 3103 
Q 1681 3103 1420 2742 
Q 1159 2381 1159 1747 
Q 1159 1113 1420 752 
Q 1681 391 2138 391 
Q 2594 391 2855 752 
Q 3116 1113 3116 1747 
z
" transform="scale(0.015625)"/>
      </defs>
      <use xlink:href="#DejaVuSans-53"/>
      <use xlink:href="#DejaVuSans-74" transform="translate(63.476562 0)"/>
      <use xlink:href="#DejaVuSans-65" transform="translate(102.685547 0)"/>
      <use xlink:href="#DejaVuSans-70" transform="translate(164.208984 0)"/>
     </g>
    </g>
   </g>
   <g id="matplotlib.axis_2">
    <g id="ytick_1">
     <g id="line2d_7">
      <defs>
       <path id="m43e5995736" d="M 0 0 
L -3.5 0 
" style="stroke: #000000; stroke-width: 0.8"/>
      </defs>
      <g>
       <use xlink:href="#m43e5995736" x="47.81" y="373.467273" style="stroke: #000000; stroke-width: 0.8"/>
      </g>
     </g>
     <g id="text_8">
      <!-- 0.0 -->
      <g transform="translate(24.906875 377.266491) scale(0.1 -0.1)">
       <defs>
        <path id="DejaVuSans-2e" d="M 684 794 
L 1344 794 
L 1344 0 
L 684 0 
L 684 794 
z
" transform="scale(0.015625)"/>
       </defs>
       <use xlink:href="#DejaVuSans-30"/>
       <use xlink:href="#DejaVuSans-2e" transform="translate(63.623047 0)"/>
       <use xlink:href="#DejaVuSans-30" transform="translate(95.410156 0)"/>
      </g>
     </g>
    </g>
    <g id="ytick_2">
     <g id="line2d_8">
      <g>
       <use xlink:href="#m43e5995736" x="47.81" y="296.043448" style="stroke: #000000; stroke-width: 0.8"/>
      </g>
     </g>
     <g id="text_9">
      <!-- 0.2 -->
      <g transform="translate(24.906875 299.842667) scale(0.1 -0.1)">
       <use xlink:href="#DejaVuSans-30"/>
       <use xlink:href="#DejaVuSans-2e" transform="translate(63.623047 0)"/>
       <use xlink:href="#DejaVuSans-32" transform="translate(95.410156 0)"/>
      </g>
     </g>
    </g>
    <g id="ytick_3">
     <g id="line2d_9">
      <g>
       <use xlink:href="#m43e5995736" x="47.81" y="218.619623" style="stroke: #000000; stroke-width: 0.8"/>
      </g>
     </g>
     <g id="text_10">
      <!-- 0.4 -->
      <g transform="translate(24.906875 222.418842) scale(0.1 -0.1)">
       <use xlink:href="#DejaVuSans-30"/>
       <use xlink:href="#DejaVuSans-2e" transform="translate(63.623047 0)"/>
       <use xlink:href="#DejaVuSans-34" transform="translate(95.410156 0)"/>
      </g>
     </g>
    </g>
    <g id="ytick_4">
     <g id="line2d_10">
      <g>
       <use xlink:href="#m43e5995736" x="47.81" y="141.195798" style="stroke: #000000; stroke-width: 0.8"/>
      </g>
     </g>
     <g id="text_11">
      <!-- 0.6 -->
      <g transform="translate(24.906875 144.995017) scale(0.1 -0.1)">
       <use xlink:href="#DejaVuSans-30"/>
       <use xlink:href="#DejaVuSans-2e" transform="translate(63.623047 0)"/>
       <use xlink:href="#DejaVuSans-36" transform="translate(95.410156 0)"/>
      </g>
     </g>
    </g>
    <g id="ytick_5">
     <g id="line2d_11">
      <g>
       <use xlink:href="#m43e5995736" x="47.81" y="63.771973" style="stroke: #000000; stroke-width: 0.8"/>
      </g>
     </g>
     <g id="text_12">
      <!-- 0.8 -->
      <g transform="translate(24.906875 67.571192) scale(0.1 -0.1)">
       <use xlink:href="#DejaVuSans-30"/>
       <use xlink:href="#DejaVuSans-2e" transform="translate(63.623047 0)"/>
       <use xlink:href="#DejaVuSans-38" transform="translate(95.410156 0)"/>
      </g>
     </g>
    </g>
    <g id="text_13">
     <!-- Normalized (minmax) Episodic Return -->
     <g transform="translate(18.827188 302.376719) rotate(-90) scale(0.1 -0.1)">
      <defs>
       <path id="DejaVuSans-4e" d="M 628 4666 
L 1478 4666 
L 3547 763 
L 3547 4666 
L 4159 4666 
L 4159 0 
L 3309 0 
L 1241 3903 
L 1241 0 
L 628 0 
L 628 4666 
z
" transform="scale(0.015625)"/>
       <path id="DejaVuSans-6f" d="M 1959 3097 
Q 1497 3097 1228 2736 
Q 959 2375 959 1747 
Q 959 1119 1226 758 
Q 1494 397 1959 397 
Q 2419 397 2687 759 
Q 2956 1122 2956 1747 
Q 2956 2369 2687 2733 
Q 2419 3097 1959 3097 
z
M 1959 3584 
Q 2709 3584 3137 3096 
Q 3566 2609 3566 1747 
Q 3566 888 3137 398 
Q 2709 -91 1959 -91 
Q 1206 -91 779 398 
Q 353 888 353 1747 
Q 353 2609 779 3096 
Q 1206 3584 1959 3584 
z
" transform="scale(0.015625)"/>
       <path id="DejaVuSans-72" d="M 2631 2963 
Q 2534 3019 2420 3045 
Q 2306 3072 2169 3072 
Q 1681 3072 1420 2755 
Q 1159 2438 1159 1844 
L 1159 0 
L 581 0 
L 581 3500 
L 1159 3500 
L 1159 2956 
Q 1341 3275 1631 3429 
Q 1922 3584 2338 3584 
Q 2397 3584 2469 3576 
Q 2541 3569 2628 3553 
L 2631 2963 
z
" transform="scale(0.015625)"/>
       <path id="DejaVuSans-6d" d="M 3328 2828 
Q 3544 3216 3844 3400 
Q 4144 3584 4550 3584 
Q 5097 3584 5394 3201 
Q 5691 2819 5691 2113 
L 5691 0 
L 5113 0 
L 5113 2094 
Q 5113 2597 4934 2840 
Q 4756 3084 4391 3084 
Q 3944 3084 3684 2787 
Q 3425 2491 3425 1978 
L 3425 0 
L 2847 0 
L 2847 2094 
Q 2847 2600 2669 2842 
Q 2491 3084 2119 3084 
Q 1678 3084 1418 2786 
Q 1159 2488 1159 1978 
L 1159 0 
L 581 0 
L 581 3500 
L 1159 3500 
L 1159 2956 
Q 1356 3278 1631 3431 
Q 1906 3584 2284 3584 
Q 2666 3584 2933 3390 
Q 3200 3197 3328 2828 
z
" transform="scale(0.015625)"/>
       <path id="DejaVuSans-61" d="M 2194 1759 
Q 1497 1759 1228 1600 
Q 959 1441 959 1056 
Q 959 750 1161 570 
Q 1363 391 1709 391 
Q 2188 391 2477 730 
Q 2766 1069 2766 1631 
L 2766 1759 
L 2194 1759 
z
M 3341 1997 
L 3341 0 
L 2766 0 
L 2766 531 
Q 2569 213 2275 61 
Q 1981 -91 1556 -91 
Q 1019 -91 701 211 
Q 384 513 384 1019 
Q 384 1609 779 1909 
Q 1175 2209 1959 2209 
L 2766 2209 
L 2766 2266 
Q 2766 2663 2505 2880 
Q 2244 3097 1772 3097 
Q 1472 3097 1187 3025 
Q 903 2953 641 2809 
L 641 3341 
Q 956 3463 1253 3523 
Q 1550 3584 1831 3584 
Q 2591 3584 2966 3190 
Q 3341 2797 3341 1997 
z
" transform="scale(0.015625)"/>
       <path id="DejaVuSans-6c" d="M 603 4863 
L 1178 4863 
L 1178 0 
L 603 0 
L 603 4863 
z
" transform="scale(0.015625)"/>
       <path id="DejaVuSans-69" d="M 603 3500 
L 1178 3500 
L 1178 0 
L 603 0 
L 603 3500 
z
M 603 4863 
L 1178 4863 
L 1178 4134 
L 603 4134 
L 603 4863 
z
" transform="scale(0.015625)"/>
       <path id="DejaVuSans-7a" d="M 353 3500 
L 3084 3500 
L 3084 2975 
L 922 459 
L 3084 459 
L 3084 0 
L 275 0 
L 275 525 
L 2438 3041 
L 353 3041 
L 353 3500 
z
" transform="scale(0.015625)"/>
       <path id="DejaVuSans-64" d="M 2906 2969 
L 2906 4863 
L 3481 4863 
L 3481 0 
L 2906 0 
L 2906 525 
Q 2725 213 2448 61 
Q 2172 -91 1784 -91 
Q 1150 -91 751 415 
Q 353 922 353 1747 
Q 353 2572 751 3078 
Q 1150 3584 1784 3584 
Q 2172 3584 2448 3432 
Q 2725 3281 2906 2969 
z
M 947 1747 
Q 947 1113 1208 752 
Q 1469 391 1925 391 
Q 2381 391 2643 752 
Q 2906 1113 2906 1747 
Q 2906 2381 2643 2742 
Q 2381 3103 1925 3103 
Q 1469 3103 1208 2742 
Q 947 2381 947 1747 
z
" transform="scale(0.015625)"/>
       <path id="DejaVuSans-20" transform="scale(0.015625)"/>
       <path id="DejaVuSans-28" d="M 1984 4856 
Q 1566 4138 1362 3434 
Q 1159 2731 1159 2009 
Q 1159 1288 1364 580 
Q 1569 -128 1984 -844 
L 1484 -844 
Q 1016 -109 783 600 
Q 550 1309 550 2009 
Q 550 2706 781 3412 
Q 1013 4119 1484 4856 
L 1984 4856 
z
" transform="scale(0.015625)"/>
       <path id="DejaVuSans-6e" d="M 3513 2113 
L 3513 0 
L 2938 0 
L 2938 2094 
Q 2938 2591 2744 2837 
Q 2550 3084 2163 3084 
Q 1697 3084 1428 2787 
Q 1159 2491 1159 1978 
L 1159 0 
L 581 0 
L 581 3500 
L 1159 3500 
L 1159 2956 
Q 1366 3272 1645 3428 
Q 1925 3584 2291 3584 
Q 2894 3584 3203 3211 
Q 3513 2838 3513 2113 
z
" transform="scale(0.015625)"/>
       <path id="DejaVuSans-78" d="M 3513 3500 
L 2247 1797 
L 3578 0 
L 2900 0 
L 1881 1375 
L 863 0 
L 184 0 
L 1544 1831 
L 300 3500 
L 978 3500 
L 1906 2253 
L 2834 3500 
L 3513 3500 
z
" transform="scale(0.015625)"/>
       <path id="DejaVuSans-29" d="M 513 4856 
L 1013 4856 
Q 1481 4119 1714 3412 
Q 1947 2706 1947 2009 
Q 1947 1309 1714 600 
Q 1481 -109 1013 -844 
L 513 -844 
Q 928 -128 1133 580 
Q 1338 1288 1338 2009 
Q 1338 2731 1133 3434 
Q 928 4138 513 4856 
z
" transform="scale(0.015625)"/>
       <path id="DejaVuSans-45" d="M 628 4666 
L 3578 4666 
L 3578 4134 
L 1259 4134 
L 1259 2753 
L 3481 2753 
L 3481 2222 
L 1259 2222 
L 1259 531 
L 3634 531 
L 3634 0 
L 628 0 
L 628 4666 
z
" transform="scale(0.015625)"/>
       <path id="DejaVuSans-73" d="M 2834 3397 
L 2834 2853 
Q 2591 2978 2328 3040 
Q 2066 3103 1784 3103 
Q 1356 3103 1142 2972 
Q 928 2841 928 2578 
Q 928 2378 1081 2264 
Q 1234 2150 1697 2047 
L 1894 2003 
Q 2506 1872 2764 1633 
Q 3022 1394 3022 966 
Q 3022 478 2636 193 
Q 2250 -91 1575 -91 
Q 1294 -91 989 -36 
Q 684 19 347 128 
L 347 722 
Q 666 556 975 473 
Q 1284 391 1588 391 
Q 1994 391 2212 530 
Q 2431 669 2431 922 
Q 2431 1156 2273 1281 
Q 2116 1406 1581 1522 
L 1381 1569 
Q 847 1681 609 1914 
Q 372 2147 372 2553 
Q 372 3047 722 3315 
Q 1072 3584 1716 3584 
Q 2034 3584 2315 3537 
Q 2597 3491 2834 3397 
z
" transform="scale(0.015625)"/>
       <path id="DejaVuSans-63" d="M 3122 3366 
L 3122 2828 
Q 2878 2963 2633 3030 
Q 2388 3097 2138 3097 
Q 1578 3097 1268 2742 
Q 959 2388 959 1747 
Q 959 1106 1268 751 
Q 1578 397 2138 397 
Q 2388 397 2633 464 
Q 2878 531 3122 666 
L 3122 134 
Q 2881 22 2623 -34 
Q 2366 -91 2075 -91 
Q 1284 -91 818 406 
Q 353 903 353 1747 
Q 353 2603 823 3093 
Q 1294 3584 2113 3584 
Q 2378 3584 2631 3529 
Q 2884 3475 3122 3366 
z
" transform="scale(0.015625)"/>
       <path id="DejaVuSans-52" d="M 2841 2188 
Q 3044 2119 3236 1894 
Q 3428 1669 3622 1275 
L 4263 0 
L 3584 0 
L 2988 1197 
Q 2756 1666 2539 1819 
Q 2322 1972 1947 1972 
L 1259 1972 
L 1259 0 
L 628 0 
L 628 4666 
L 2053 4666 
Q 2853 4666 3247 4331 
Q 3641 3997 3641 3322 
Q 3641 2881 3436 2590 
Q 3231 2300 2841 2188 
z
M 1259 4147 
L 1259 2491 
L 2053 2491 
Q 2509 2491 2742 2702 
Q 2975 2913 2975 3322 
Q 2975 3731 2742 3939 
Q 2509 4147 2053 4147 
L 1259 4147 
z
" transform="scale(0.015625)"/>
       <path id="DejaVuSans-75" d="M 544 1381 
L 544 3500 
L 1119 3500 
L 1119 1403 
Q 1119 906 1312 657 
Q 1506 409 1894 409 
Q 2359 409 2629 706 
Q 2900 1003 2900 1516 
L 2900 3500 
L 3475 3500 
L 3475 0 
L 2900 0 
L 2900 538 
Q 2691 219 2414 64 
Q 2138 -91 1772 -91 
Q 1169 -91 856 284 
Q 544 659 544 1381 
z
M 1991 3584 
L 1991 3584 
z
" transform="scale(0.015625)"/>
      </defs>
      <use xlink:href="#DejaVuSans-4e"/>
      <use xlink:href="#DejaVuSans-6f" transform="translate(74.804688 0)"/>
      <use xlink:href="#DejaVuSans-72" transform="translate(135.986328 0)"/>
      <use xlink:href="#DejaVuSans-6d" transform="translate(175.349609 0)"/>
      <use xlink:href="#DejaVuSans-61" transform="translate(272.761719 0)"/>
      <use xlink:href="#DejaVuSans-6c" transform="translate(334.041016 0)"/>
      <use xlink:href="#DejaVuSans-69" transform="translate(361.824219 0)"/>
      <use xlink:href="#DejaVuSans-7a" transform="translate(389.607422 0)"/>
      <use xlink:href="#DejaVuSans-65" transform="translate(442.097656 0)"/>
      <use xlink:href="#DejaVuSans-64" transform="translate(503.621094 0)"/>
      <use xlink:href="#DejaVuSans-20" transform="translate(567.097656 0)"/>
      <use xlink:href="#DejaVuSans-28" transform="translate(598.884766 0)"/>
      <use xlink:href="#DejaVuSans-6d" transform="translate(637.898438 0)"/>
      <use xlink:href="#DejaVuSans-69" transform="translate(735.310547 0)"/>
      <use xlink:href="#DejaVuSans-6e" transform="translate(763.09375 0)"/>
      <use xlink:href="#DejaVuSans-6d" transform="translate(826.472656 0)"/>
      <use xlink:href="#DejaVuSans-61" transform="translate(923.884766 0)"/>
      <use xlink:href="#DejaVuSans-78" transform="translate(985.164062 0)"/>
      <use xlink:href="#DejaVuSans-29" transform="translate(1044.34375 0)"/>
      <use xlink:href="#DejaVuSans-20" transform="translate(1083.357422 0)"/>
      <use xlink:href="#DejaVuSans-45" transform="translate(1115.144531 0)"/>
      <use xlink:href="#DejaVuSans-70" transform="translate(1178.328125 0)"/>
      <use xlink:href="#DejaVuSans-69" transform="translate(1241.804688 0)"/>
      <use xlink:href="#DejaVuSans-73" transform="translate(1269.587891 0)"/>
      <use xlink:href="#DejaVuSans-6f" transform="translate(1321.6875 0)"/>
      <use xlink:href="#DejaVuSans-64" transform="translate(1382.869141 0)"/>
      <use xlink:href="#DejaVuSans-69" transform="translate(1446.345703 0)"/>
      <use xlink:href="#DejaVuSans-63" transform="translate(1474.128906 0)"/>
      <use xlink:href="#DejaVuSans-20" transform="translate(1529.109375 0)"/>
      <use xlink:href="#DejaVuSans-52" transform="translate(1560.896484 0)"/>
      <use xlink:href="#DejaVuSans-65" transform="translate(1625.878906 0)"/>
      <use xlink:href="#DejaVuSans-74" transform="translate(1687.402344 0)"/>
      <use xlink:href="#DejaVuSans-75" transform="translate(1726.611328 0)"/>
      <use xlink:href="#DejaVuSans-72" transform="translate(1789.990234 0)"/>
      <use xlink:href="#DejaVuSans-6e" transform="translate(1829.353516 0)"/>
     </g>
    </g>
   </g>
   <g id="line2d_12">
    <path d="M 77.711604 373.467273 
L 90.88148 370.010852 
L 102.854094 370.010852 
L 103.452725 369.566179 
L 116.02397 348.944131 
L 129.193846 316.904415 
L 141.16646 290.875783 
L 142.363722 289.43303 
L 153.737705 277.091367 
L 154.336336 275.953313 
L 166.907581 241.955687 
L 179.478826 224.848825 
L 181.274718 221.064012 
L 192.050071 197.652564 
L 192.648702 197.533309 
L 204.621316 207.305799 
L 205.219947 206.737448 
L 217.192561 167.633152 
L 217.791192 166.059097 
L 230.362437 159.247653 
L 234.552852 162.685372 
L 242.933682 169.51719 
L 244.130943 167.686943 
L 255.504927 149.093483 
L 256.103558 149.315098 
L 268.076172 162.304783 
L 269.273433 162.862794 
L 280.647417 169.072228 
L 281.246048 169.537736 
L 282.443309 170.642456 
L 293.817293 179.871915 
L 294.415923 179.429369 
L 306.987168 165.770974 
L 318.959783 156.027133 
L 319.558413 155.972739 
L 332.129658 166.18761 
L 332.728289 166.150284 
L 357.870779 173.10449 
L 369.843394 179.607278 
L 370.442024 179.778783 
L 383.013269 166.136484 
L 385.407792 173.196151 
L 395.584514 203.617677 
L 396.183145 203.224349 
L 408.155759 177.230683 
L 408.75439 176.953637 
L 421.325635 207.556908 
L 433.89688 193.753298 
L 435.692772 189.945276 
L 446.468125 166.558153 
L 447.066756 167.33714 
L 459.03937 206.364973 
L 459.638001 207.323406 
L 484.780491 179.964612 
L 490.168167 178.518413 
L 497.351736 176.572819 
L 497.950367 176.921308 
L 509.922981 196.443962 
L 510.521612 197.145725 
L 523.092857 190.21646 
L 535.664102 179.963236 
L 536.861363 182.389487 
L 548.235347 207.136362 
L 548.833978 206.571358 
L 560.806592 177.317557 
L 561.405223 176.652895 
L 573.976468 186.824679 
L 586.547713 183.423227 
L 587.146343 184.459722 
L 599.118958 210.50588 
L 599.717588 210.634528 
L 611.690203 197.616219 
L 612.288833 197.406951 
L 624.860078 217.974484 
L 637.431323 197.480559 
L 638.029954 198.483422 
L 650.002568 227.729292 
L 651.19983 229.570226 
L 662.573814 244.989445 
L 663.172444 245.554778 
L 675.743689 242.123284 
L 675.743689 242.123284 
" clip-path="url(#p30ce4dab15)" style="fill: none; stroke: #ff00ff; stroke-width: 1.5; stroke-linecap: square"/>
   </g>
   <g id="line2d_13">
    <path d="M 77.711604 373.467273 
L 86.092434 371.196973 
L 90.282849 370.057593 
L 90.88148 369.197866 
L 102.854094 346.387946 
L 103.452725 344.72049 
L 116.02397 297.117238 
L 128.595215 269.7642 
L 138.771937 222.836224 
L 143.560983 200.247105 
L 154.934967 144.135082 
L 166.907581 79.679799 
L 179.478826 79.66216 
L 181.274718 75.849794 
L 192.050071 52.413981 
L 192.648702 52.764114 
L 204.621316 75.548539 
L 205.219947 75.776091 
L 217.192561 52.985274 
L 217.791192 52.185367 
L 230.362437 79.493342 
L 231.559698 79.603835 
L 243.532313 79.566662 
L 255.504927 73.12115 
L 256.103558 72.55019 
L 268.076172 66.103092 
L 268.674803 65.632563 
L 281.246048 48.527043 
L 282.443309 48.779249 
L 293.817293 51.88998 
L 295.014554 54.604071 
L 306.388538 82.438989 
L 306.987168 83.000643 
L 320.157044 75.972826 
L 332.129658 72.720666 
L 335.122812 71.118819 
L 344.700903 65.908951 
L 345.299534 65.338368 
L 357.272148 49.083799 
L 357.870779 48.820191 
L 371.040655 63.036266 
L 383.013269 72.727686 
L 384.809161 71.793064 
L 396.183145 65.580343 
L 408.155759 55.834906 
L 408.75439 55.505553 
L 421.325635 58.934699 
L 433.89688 58.93972 
L 435.094142 60.785976 
L 446.468125 79.332528 
L 447.066756 78.503542 
L 459.03937 42.732661 
L 459.638001 42.012727 
L 472.209246 62.588683 
L 484.780491 93.325205 
L 485.379122 91.55791 
L 497.351736 49.277866 
L 497.950367 49.170416 
L 509.922981 65.437711 
L 510.521612 65.957822 
L 522.494226 72.476526 
L 523.092857 72.65275 
L 535.664102 62.417403 
L 536.861363 62.989439 
L 548.235347 69.179188 
L 552.425762 72.611301 
L 560.806592 79.431991 
L 561.405223 79.064009 
L 573.377837 53.078281 
L 573.976468 52.226331 
L 586.547713 69.29697 
L 588.942235 69.912976 
L 599.118958 72.681396 
L 599.717588 72.358703 
L 611.690203 62.603723 
L 612.288833 62.650999 
L 624.860078 72.866238 
L 637.431323 79.704798 
L 646.410784 77.285318 
L 650.601199 76.149587 
L 663.172444 79.548071 
L 675.743689 72.758667 
L 675.743689 72.758667 
" clip-path="url(#p30ce4dab15)" style="fill: none; stroke: #ff0000; stroke-width: 1.5; stroke-linecap: square"/>
   </g>
   <g id="line2d_14">
    <path d="M 77.711604 373.467273 
L 116.02397 373.429465 
L 141.16646 366.616891 
L 141.765091 366.113103 
L 153.737705 353.104358 
L 154.336336 351.496972 
L 167.506212 287.60218 
L 179.478826 238.807897 
L 184.267872 207.673145 
L 192.050071 156.914202 
L 192.648702 155.838658 
L 204.621316 162.374905 
L 205.219947 161.996862 
L 217.192561 129.430365 
L 217.791192 128.268488 
L 230.362437 158.991019 
L 231.559698 159.101512 
L 242.933682 159.101512 
L 243.532313 158.6748 
L 255.504927 142.453609 
L 256.103558 141.962373 
L 268.076172 145.257542 
L 268.674803 145.082255 
L 281.246048 124.565276 
L 282.443309 124.492581 
L 293.817293 124.516754 
L 295.014554 126.621873 
L 306.388538 148.271588 
L 306.987168 149.084164 
L 318.959783 158.837545 
L 319.558413 158.984111 
L 332.129658 145.321605 
L 333.32692 145.913519 
L 344.700903 152.116893 
L 345.299534 151.532743 
L 357.272148 128.786502 
L 357.870779 128.317868 
L 370.442024 141.933998 
L 383.013269 145.321898 
L 384.809161 134.819081 
L 395.584514 70.354038 
L 396.183145 69.390001 
L 408.155759 69.386831 
L 408.75439 69.046345 
L 421.325635 58.934699 
L 433.89688 58.923235 
L 435.094142 60.120006 
L 446.468125 72.496456 
L 447.066756 71.838916 
L 459.03937 42.569228 
L 459.638001 42.012727 
L 472.209246 62.588683 
L 484.780491 93.325205 
L 485.379122 91.55791 
L 497.351736 49.277866 
L 497.950367 49.170416 
L 509.922981 65.437711 
L 510.521612 65.957822 
L 522.494226 72.476526 
L 523.092857 72.588775 
L 535.664102 55.517151 
L 542.84767 57.466386 
L 548.235347 58.935606 
L 548.833978 59.682662 
L 560.806592 82.42254 
L 561.405223 82.693224 
L 573.377837 63.192799 
L 573.976468 62.544913 
L 586.547713 79.615551 
L 587.744974 79.699875 
L 599.118958 79.713492 
L 609.29568 74.183737 
L 611.690203 72.884453 
L 612.887464 72.796042 
L 624.261448 72.776397 
L 624.860078 72.655177 
L 637.431323 58.996081 
L 640.424477 63.832763 
L 650.002568 79.468705 
L 651.19983 79.736902 
L 663.172444 82.94605 
L 675.743689 72.758667 
L 675.743689 72.758667 
" clip-path="url(#p30ce4dab15)" style="fill: none; stroke: #daa520; stroke-width: 1.5; stroke-linecap: square"/>
   </g>
   <g id="line2d_15">
    <path d="M 77.711604 373.467273 
L 141.16646 373.467273 
L 142.363722 372.910159 
L 153.737705 366.718895 
L 154.336336 365.990664 
L 166.907581 341.970545 
L 179.478826 307.839279 
L 184.866502 300.489152 
L 192.050071 290.71826 
L 192.648702 290.756479 
L 204.621316 297.260852 
L 205.219947 297.426016 
L 217.791192 297.384152 
L 230.362437 293.969595 
L 242.933682 293.969595 
L 244.130943 294.54837 
L 255.504927 300.739634 
L 256.103558 300.598669 
L 268.076172 290.856402 
L 268.674803 290.05306 
L 281.246048 262.667508 
L 293.817293 214.907079 
L 294.415923 214.975215 
L 306.388538 227.996695 
L 306.987168 228.163519 
L 318.959783 221.670266 
L 319.558413 221.208077 
L 332.129658 204.147471 
L 334.524181 193.866255 
L 344.700903 149.553906 
L 345.299534 148.238849 
L 357.272148 131.996978 
L 357.870779 131.661134 
L 371.040655 138.715395 
L 401.570821 147.008917 
L 408.155759 148.793256 
L 408.75439 147.783157 
L 421.325635 89.912948 
L 433.89688 59.136803 
L 434.495511 59.127387 
L 446.468125 65.660384 
L 447.066756 65.174289 
L 459.03937 42.405795 
L 459.638001 42.012727 
L 472.209246 62.588683 
L 484.780491 93.325205 
L 485.379122 91.55791 
L 497.351736 49.277866 
L 497.950367 49.170416 
L 509.922981 65.437711 
L 510.521612 65.957822 
L 522.494226 72.476526 
L 523.092857 72.588775 
L 535.664102 55.520933 
L 538.058625 63.232633 
L 548.235347 96.452315 
L 549.432608 99.316854 
L 560.806592 124.027426 
L 561.405223 124.759727 
L 573.976468 131.488047 
L 586.547713 128.073249 
L 590.738128 130.336048 
L 599.118958 134.899142 
L 600.91485 134.951821 
L 611.690203 134.94895 
L 612.288833 135.235835 
L 624.261448 144.990836 
L 624.860078 145.268091 
L 637.431323 138.437362 
L 639.227216 138.495212 
L 651.19983 138.59216 
L 663.172444 141.79162 
L 675.743689 138.430661 
L 675.743689 138.430661 
" clip-path="url(#p30ce4dab15)" style="fill: none; stroke: #0000ff; stroke-width: 1.5; stroke-linecap: square"/>
   </g>
   <g id="line2d_16">
    <path d="M 77.711604 373.467273 
L 128.595215 373.467273 
L 133.384261 372.182121 
L 141.16646 370.0682 
L 141.765091 367.907677 
L 153.737705 302.927502 
L 154.336336 301.545578 
L 166.907581 339.045382 
L 179.478826 362.932278 
L 180.676087 358.344849 
L 192.050071 311.96793 
L 192.648702 310.045039 
L 204.621316 283.979793 
L 205.219947 284.145662 
L 217.192561 306.920546 
L 217.791192 308.776772 
L 230.362437 373.397435 
L 235.151482 368.210679 
L 242.933682 359.746717 
L 243.532313 359.91483 
L 255.504927 366.43195 
L 256.103558 366.473443 
L 268.076172 363.229193 
L 268.674803 362.129833 
L 281.246048 293.953417 
L 293.817293 287.130498 
L 295.014554 287.360573 
L 318.959783 293.832724 
L 319.558413 293.74691 
L 332.129658 276.714536 
L 344.700903 304.015971 
L 345.299534 303.999048 
L 357.272148 294.250435 
L 357.870779 293.909821 
L 369.843394 290.662412 
L 374.033809 288.410318 
L 383.013269 283.587017 
L 385.407792 284.926897 
L 395.584514 290.454253 
L 396.183145 289.893504 
L 408.155759 273.642101 
L 408.75439 273.719592 
L 420.727004 293.245445 
L 421.325635 293.765644 
L 433.89688 276.673318 
L 436.890034 276.649352 
L 446.468125 276.656971 
L 447.066756 276.211445 
L 459.638001 262.711928 
L 472.209246 255.959411 
L 484.780491 259.367534 
L 488.970906 255.971349 
L 497.351736 249.13619 
L 500.34489 247.53746 
L 509.922981 242.341584 
L 510.521612 242.147614 
L 522.494226 245.387088 
L 523.092857 245.323716 
L 535.664102 228.266144 
L 536.861363 229.017359 
L 548.235347 235.202559 
L 549.432608 234.311172 
L 560.806592 225.045466 
L 561.405223 224.84118 
L 586.547713 224.89859 
L 588.343605 227.743439 
L 599.118958 245.331046 
L 600.91485 247.354835 
L 611.690203 259.055554 
L 618.873771 264.911463 
L 624.860078 269.892075 
L 637.431323 273.318965 
L 650.002568 252.843294 
L 650.601199 252.492546 
L 662.573814 252.492546 
L 663.172444 253.144814 
L 675.743689 287.056754 
L 675.743689 287.056754 
" clip-path="url(#p30ce4dab15)" style="fill: none; stroke: #008000; stroke-width: 1.5; stroke-linecap: square"/>
   </g>
   <g id="patch_3">
    <path d="M 47.81 390.04 
L 47.81 25.44 
" style="fill: none; stroke: #000000; stroke-width: 0.8; stroke-linejoin: miter; stroke-linecap: square"/>
   </g>
   <g id="patch_4">
    <path d="M 705.645294 390.04 
L 705.645294 25.44 
" style="fill: none; stroke: #000000; stroke-width: 0.8; stroke-linejoin: miter; stroke-linecap: square"/>
   </g>
   <g id="patch_5">
    <path d="M 47.81 390.04 
L 705.645294 390.04 
" style="fill: none; stroke: #000000; stroke-width: 0.8; stroke-linejoin: miter; stroke-linecap: square"/>
   </g>
   <g id="patch_6">
    <path d="M 47.81 25.44 
L 705.645294 25.44 
" style="fill: none; stroke: #000000; stroke-width: 0.8; stroke-linejoin: miter; stroke-linecap: square"/>
   </g>
   <g id="text_14">
    <!-- Dqn Algorithms Comparison on FreewayNoFrameskip-v4 -->
    <g transform="translate(207.787334 19.44) scale(0.12 -0.12)">
     <defs>
      <path id="DejaVuSans-44" d="M 1259 4147 
L 1259 519 
L 2022 519 
Q 2988 519 3436 956 
Q 3884 1394 3884 2338 
Q 3884 3275 3436 3711 
Q 2988 4147 2022 4147 
L 1259 4147 
z
M 628 4666 
L 1925 4666 
Q 3281 4666 3915 4102 
Q 4550 3538 4550 2338 
Q 4550 1131 3912 565 
Q 3275 0 1925 0 
L 628 0 
L 628 4666 
z
" transform="scale(0.015625)"/>
      <path id="DejaVuSans-71" d="M 947 1747 
Q 947 1113 1208 752 
Q 1469 391 1925 391 
Q 2381 391 2643 752 
Q 2906 1113 2906 1747 
Q 2906 2381 2643 2742 
Q 2381 3103 1925 3103 
Q 1469 3103 1208 2742 
Q 947 2381 947 1747 
z
M 2906 525 
Q 2725 213 2448 61 
Q 2172 -91 1784 -91 
Q 1150 -91 751 415 
Q 353 922 353 1747 
Q 353 2572 751 3078 
Q 1150 3584 1784 3584 
Q 2172 3584 2448 3432 
Q 2725 3281 2906 2969 
L 2906 3500 
L 3481 3500 
L 3481 -1331 
L 2906 -1331 
L 2906 525 
z
" transform="scale(0.015625)"/>
      <path id="DejaVuSans-41" d="M 2188 4044 
L 1331 1722 
L 3047 1722 
L 2188 4044 
z
M 1831 4666 
L 2547 4666 
L 4325 0 
L 3669 0 
L 3244 1197 
L 1141 1197 
L 716 0 
L 50 0 
L 1831 4666 
z
" transform="scale(0.015625)"/>
      <path id="DejaVuSans-67" d="M 2906 1791 
Q 2906 2416 2648 2759 
Q 2391 3103 1925 3103 
Q 1463 3103 1205 2759 
Q 947 2416 947 1791 
Q 947 1169 1205 825 
Q 1463 481 1925 481 
Q 2391 481 2648 825 
Q 2906 1169 2906 1791 
z
M 3481 434 
Q 3481 -459 3084 -895 
Q 2688 -1331 1869 -1331 
Q 1566 -1331 1297 -1286 
Q 1028 -1241 775 -1147 
L 775 -588 
Q 1028 -725 1275 -790 
Q 1522 -856 1778 -856 
Q 2344 -856 2625 -561 
Q 2906 -266 2906 331 
L 2906 616 
Q 2728 306 2450 153 
Q 2172 0 1784 0 
Q 1141 0 747 490 
Q 353 981 353 1791 
Q 353 2603 747 3093 
Q 1141 3584 1784 3584 
Q 2172 3584 2450 3431 
Q 2728 3278 2906 2969 
L 2906 3500 
L 3481 3500 
L 3481 434 
z
" transform="scale(0.015625)"/>
      <path id="DejaVuSans-68" d="M 3513 2113 
L 3513 0 
L 2938 0 
L 2938 2094 
Q 2938 2591 2744 2837 
Q 2550 3084 2163 3084 
Q 1697 3084 1428 2787 
Q 1159 2491 1159 1978 
L 1159 0 
L 581 0 
L 581 4863 
L 1159 4863 
L 1159 2956 
Q 1366 3272 1645 3428 
Q 1925 3584 2291 3584 
Q 2894 3584 3203 3211 
Q 3513 2838 3513 2113 
z
" transform="scale(0.015625)"/>
      <path id="DejaVuSans-43" d="M 4122 4306 
L 4122 3641 
Q 3803 3938 3442 4084 
Q 3081 4231 2675 4231 
Q 1875 4231 1450 3742 
Q 1025 3253 1025 2328 
Q 1025 1406 1450 917 
Q 1875 428 2675 428 
Q 3081 428 3442 575 
Q 3803 722 4122 1019 
L 4122 359 
Q 3791 134 3420 21 
Q 3050 -91 2638 -91 
Q 1578 -91 968 557 
Q 359 1206 359 2328 
Q 359 3453 968 4101 
Q 1578 4750 2638 4750 
Q 3056 4750 3426 4639 
Q 3797 4528 4122 4306 
z
" transform="scale(0.015625)"/>
      <path id="DejaVuSans-46" d="M 628 4666 
L 3309 4666 
L 3309 4134 
L 1259 4134 
L 1259 2759 
L 3109 2759 
L 3109 2228 
L 1259 2228 
L 1259 0 
L 628 0 
L 628 4666 
z
" transform="scale(0.015625)"/>
      <path id="DejaVuSans-77" d="M 269 3500 
L 844 3500 
L 1563 769 
L 2278 3500 
L 2956 3500 
L 3675 769 
L 4391 3500 
L 4966 3500 
L 4050 0 
L 3372 0 
L 2619 2869 
L 1863 0 
L 1184 0 
L 269 3500 
z
" transform="scale(0.015625)"/>
      <path id="DejaVuSans-79" d="M 2059 -325 
Q 1816 -950 1584 -1140 
Q 1353 -1331 966 -1331 
L 506 -1331 
L 506 -850 
L 844 -850 
Q 1081 -850 1212 -737 
Q 1344 -625 1503 -206 
L 1606 56 
L 191 3500 
L 800 3500 
L 1894 763 
L 2988 3500 
L 3597 3500 
L 2059 -325 
z
" transform="scale(0.015625)"/>
      <path id="DejaVuSans-6b" d="M 581 4863 
L 1159 4863 
L 1159 1991 
L 2875 3500 
L 3609 3500 
L 1753 1863 
L 3688 0 
L 2938 0 
L 1159 1709 
L 1159 0 
L 581 0 
L 581 4863 
z
" transform="scale(0.015625)"/>
      <path id="DejaVuSans-2d" d="M 313 2009 
L 1997 2009 
L 1997 1497 
L 313 1497 
L 313 2009 
z
" transform="scale(0.015625)"/>
      <path id="DejaVuSans-76" d="M 191 3500 
L 800 3500 
L 1894 563 
L 2988 3500 
L 3597 3500 
L 2284 0 
L 1503 0 
L 191 3500 
z
" transform="scale(0.015625)"/>
     </defs>
     <use xlink:href="#DejaVuSans-44"/>
     <use xlink:href="#DejaVuSans-71" transform="translate(77.001953 0)"/>
     <use xlink:href="#DejaVuSans-6e" transform="translate(140.478516 0)"/>
     <use xlink:href="#DejaVuSans-20" transform="translate(203.857422 0)"/>
     <use xlink:href="#DejaVuSans-41" transform="translate(235.644531 0)"/>
     <use xlink:href="#DejaVuSans-6c" transform="translate(304.052734 0)"/>
     <use xlink:href="#DejaVuSans-67" transform="translate(331.835938 0)"/>
     <use xlink:href="#DejaVuSans-6f" transform="translate(395.3125 0)"/>
     <use xlink:href="#DejaVuSans-72" transform="translate(456.494141 0)"/>
     <use xlink:href="#DejaVuSans-69" transform="translate(497.607422 0)"/>
     <use xlink:href="#DejaVuSans-74" transform="translate(525.390625 0)"/>
     <use xlink:href="#DejaVuSans-68" transform="translate(564.599609 0)"/>
     <use xlink:href="#DejaVuSans-6d" transform="translate(627.978516 0)"/>
     <use xlink:href="#DejaVuSans-73" transform="translate(725.390625 0)"/>
     <use xlink:href="#DejaVuSans-20" transform="translate(777.490234 0)"/>
     <use xlink:href="#DejaVuSans-43" transform="translate(809.277344 0)"/>
     <use xlink:href="#DejaVuSans-6f" transform="translate(879.101562 0)"/>
     <use xlink:href="#DejaVuSans-6d" transform="translate(940.283203 0)"/>
     <use xlink:href="#DejaVuSans-70" transform="translate(1037.695312 0)"/>
     <use xlink:href="#DejaVuSans-61" transform="translate(1101.171875 0)"/>
     <use xlink:href="#DejaVuSans-72" transform="translate(1162.451172 0)"/>
     <use xlink:href="#DejaVuSans-69" transform="translate(1203.564453 0)"/>
     <use xlink:href="#DejaVuSans-73" transform="translate(1231.347656 0)"/>
     <use xlink:href="#DejaVuSans-6f" transform="translate(1283.447266 0)"/>
     <use xlink:href="#DejaVuSans-6e" transform="translate(1344.628906 0)"/>
     <use xlink:href="#DejaVuSans-20" transform="translate(1408.007812 0)"/>
     <use xlink:href="#DejaVuSans-6f" transform="translate(1439.794922 0)"/>
     <use xlink:href="#DejaVuSans-6e" transform="translate(1500.976562 0)"/>
     <use xlink:href="#DejaVuSans-20" transform="translate(1564.355469 0)"/>
     <use xlink:href="#DejaVuSans-46" transform="translate(1596.142578 0)"/>
     <use xlink:href="#DejaVuSans-72" transform="translate(1646.412109 0)"/>
     <use xlink:href="#DejaVuSans-65" transform="translate(1685.275391 0)"/>
     <use xlink:href="#DejaVuSans-65" transform="translate(1746.798828 0)"/>
     <use xlink:href="#DejaVuSans-77" transform="translate(1808.322266 0)"/>
     <use xlink:href="#DejaVuSans-61" transform="translate(1890.109375 0)"/>
     <use xlink:href="#DejaVuSans-79" transform="translate(1951.388672 0)"/>
     <use xlink:href="#DejaVuSans-4e" transform="translate(2010.568359 0)"/>
     <use xlink:href="#DejaVuSans-6f" transform="translate(2085.373047 0)"/>
     <use xlink:href="#DejaVuSans-46" transform="translate(2146.554688 0)"/>
     <use xlink:href="#DejaVuSans-72" transform="translate(2196.824219 0)"/>
     <use xlink:href="#DejaVuSans-61" transform="translate(2237.9375 0)"/>
     <use xlink:href="#DejaVuSans-6d" transform="translate(2299.216797 0)"/>
     <use xlink:href="#DejaVuSans-65" transform="translate(2396.628906 0)"/>
     <use xlink:href="#DejaVuSans-73" transform="translate(2458.152344 0)"/>
     <use xlink:href="#DejaVuSans-6b" transform="translate(2510.251953 0)"/>
     <use xlink:href="#DejaVuSans-69" transform="translate(2568.162109 0)"/>
     <use xlink:href="#DejaVuSans-70" transform="translate(2595.945312 0)"/>
     <use xlink:href="#DejaVuSans-2d" transform="translate(2659.421875 0)"/>
     <use xlink:href="#DejaVuSans-76" transform="translate(2692.880859 0)"/>
     <use xlink:href="#DejaVuSans-34" transform="translate(2752.060547 0)"/>
    </g>
   </g>
   <g id="legend_1">
    <g id="patch_7">
     <path d="M 577.464044 385.04 
L 698.645294 385.04 
Q 700.645294 385.04 700.645294 383.04 
L 700.645294 294.580625 
Q 700.645294 292.580625 698.645294 292.580625 
L 577.464044 292.580625 
Q 575.464044 292.580625 575.464044 294.580625 
L 575.464044 383.04 
Q 575.464044 385.04 577.464044 385.04 
z
" style="fill: #ffffff; opacity: 0.8; stroke: #cccccc; stroke-linejoin: miter"/>
    </g>
    <g id="text_15">
     <!-- Algorithm -->
     <g transform="translate(613.56795 304.179062) scale(0.1 -0.1)">
      <use xlink:href="#DejaVuSans-41"/>
      <use xlink:href="#DejaVuSans-6c" transform="translate(68.408203 0)"/>
      <use xlink:href="#DejaVuSans-67" transform="translate(96.191406 0)"/>
      <use xlink:href="#DejaVuSans-6f" transform="translate(159.667969 0)"/>
      <use xlink:href="#DejaVuSans-72" transform="translate(220.849609 0)"/>
      <use xlink:href="#DejaVuSans-69" transform="translate(261.962891 0)"/>
      <use xlink:href="#DejaVuSans-74" transform="translate(289.746094 0)"/>
      <use xlink:href="#DejaVuSans-68" transform="translate(328.955078 0)"/>
      <use xlink:href="#DejaVuSans-6d" transform="translate(392.333984 0)"/>
     </g>
    </g>
    <g id="line2d_17">
     <path d="M 579.464044 315.357188 
L 589.464044 315.357188 
L 599.464044 315.357188 
" style="fill: none; stroke: #ff00ff; stroke-width: 1.5; stroke-linecap: square"/>
    </g>
    <g id="text_16">
     <!-- c51_atari -->
     <g transform="translate(607.464044 318.857188) scale(0.1 -0.1)">
      <defs>
       <path id="DejaVuSans-35" d="M 691 4666 
L 3169 4666 
L 3169 4134 
L 1269 4134 
L 1269 2991 
Q 1406 3038 1543 3061 
Q 1681 3084 1819 3084 
Q 2600 3084 3056 2656 
Q 3513 2228 3513 1497 
Q 3513 744 3044 326 
Q 2575 -91 1722 -91 
Q 1428 -91 1123 -41 
Q 819 9 494 109 
L 494 744 
Q 775 591 1075 516 
Q 1375 441 1709 441 
Q 2250 441 2565 725 
Q 2881 1009 2881 1497 
Q 2881 1984 2565 2268 
Q 2250 2553 1709 2553 
Q 1456 2553 1204 2497 
Q 953 2441 691 2322 
L 691 4666 
z
" transform="scale(0.015625)"/>
       <path id="DejaVuSans-5f" d="M 3263 -1063 
L 3263 -1509 
L -63 -1509 
L -63 -1063 
L 3263 -1063 
z
" transform="scale(0.015625)"/>
      </defs>
      <use xlink:href="#DejaVuSans-63"/>
      <use xlink:href="#DejaVuSans-35" transform="translate(54.980469 0)"/>
      <use xlink:href="#DejaVuSans-31" transform="translate(118.603516 0)"/>
      <use xlink:href="#DejaVuSans-5f" transform="translate(182.226562 0)"/>
      <use xlink:href="#DejaVuSans-61" transform="translate(232.226562 0)"/>
      <use xlink:href="#DejaVuSans-74" transform="translate(293.505859 0)"/>
      <use xlink:href="#DejaVuSans-61" transform="translate(332.714844 0)"/>
      <use xlink:href="#DejaVuSans-72" transform="translate(393.994141 0)"/>
      <use xlink:href="#DejaVuSans-69" transform="translate(435.107422 0)"/>
     </g>
    </g>
    <g id="line2d_18">
     <path d="M 579.464044 330.313437 
L 589.464044 330.313437 
L 599.464044 330.313437 
" style="fill: none; stroke: #ff0000; stroke-width: 1.5; stroke-linecap: square"/>
    </g>
    <g id="text_17">
     <!-- ddqn_atari -->
     <g transform="translate(607.464044 333.813437) scale(0.1 -0.1)">
      <use xlink:href="#DejaVuSans-64"/>
      <use xlink:href="#DejaVuSans-64" transform="translate(63.476562 0)"/>
      <use xlink:href="#DejaVuSans-71" transform="translate(126.953125 0)"/>
      <use xlink:href="#DejaVuSans-6e" transform="translate(190.429688 0)"/>
      <use xlink:href="#DejaVuSans-5f" transform="translate(253.808594 0)"/>
      <use xlink:href="#DejaVuSans-61" transform="translate(303.808594 0)"/>
      <use xlink:href="#DejaVuSans-74" transform="translate(365.087891 0)"/>
      <use xlink:href="#DejaVuSans-61" transform="translate(404.296875 0)"/>
      <use xlink:href="#DejaVuSans-72" transform="translate(465.576172 0)"/>
      <use xlink:href="#DejaVuSans-69" transform="translate(506.689453 0)"/>
     </g>
    </g>
    <g id="line2d_19">
     <path d="M 579.464044 345.269687 
L 589.464044 345.269687 
L 599.464044 345.269687 
" style="fill: none; stroke: #daa520; stroke-width: 1.5; stroke-linecap: square"/>
    </g>
    <g id="text_18">
     <!-- dqn_atari -->
     <g transform="translate(607.464044 348.769687) scale(0.1 -0.1)">
      <use xlink:href="#DejaVuSans-64"/>
      <use xlink:href="#DejaVuSans-71" transform="translate(63.476562 0)"/>
      <use xlink:href="#DejaVuSans-6e" transform="translate(126.953125 0)"/>
      <use xlink:href="#DejaVuSans-5f" transform="translate(190.332031 0)"/>
      <use xlink:href="#DejaVuSans-61" transform="translate(240.332031 0)"/>
      <use xlink:href="#DejaVuSans-74" transform="translate(301.611328 0)"/>
      <use xlink:href="#DejaVuSans-61" transform="translate(340.820312 0)"/>
      <use xlink:href="#DejaVuSans-72" transform="translate(402.099609 0)"/>
      <use xlink:href="#DejaVuSans-69" transform="translate(443.212891 0)"/>
     </g>
    </g>
    <g id="line2d_20">
     <path d="M 579.464044 360.225937 
L 589.464044 360.225937 
L 599.464044 360.225937 
" style="fill: none; stroke: #0000ff; stroke-width: 1.5; stroke-linecap: square"/>
    </g>
    <g id="text_19">
     <!-- dueling_dqn_atari -->
     <g transform="translate(607.464044 363.725937) scale(0.1 -0.1)">
      <use xlink:href="#DejaVuSans-64"/>
      <use xlink:href="#DejaVuSans-75" transform="translate(63.476562 0)"/>
      <use xlink:href="#DejaVuSans-65" transform="translate(126.855469 0)"/>
      <use xlink:href="#DejaVuSans-6c" transform="translate(188.378906 0)"/>
      <use xlink:href="#DejaVuSans-69" transform="translate(216.162109 0)"/>
      <use xlink:href="#DejaVuSans-6e" transform="translate(243.945312 0)"/>
      <use xlink:href="#DejaVuSans-67" transform="translate(307.324219 0)"/>
      <use xlink:href="#DejaVuSans-5f" transform="translate(370.800781 0)"/>
      <use xlink:href="#DejaVuSans-64" transform="translate(420.800781 0)"/>
      <use xlink:href="#DejaVuSans-71" transform="translate(484.277344 0)"/>
      <use xlink:href="#DejaVuSans-6e" transform="translate(547.753906 0)"/>
      <use xlink:href="#DejaVuSans-5f" transform="translate(611.132812 0)"/>
      <use xlink:href="#DejaVuSans-61" transform="translate(661.132812 0)"/>
      <use xlink:href="#DejaVuSans-74" transform="translate(722.412109 0)"/>
      <use xlink:href="#DejaVuSans-61" transform="translate(761.621094 0)"/>
      <use xlink:href="#DejaVuSans-72" transform="translate(822.900391 0)"/>
      <use xlink:href="#DejaVuSans-69" transform="translate(864.013672 0)"/>
     </g>
    </g>
    <g id="line2d_21">
     <path d="M 579.464044 375.182187 
L 589.464044 375.182187 
L 599.464044 375.182187 
" style="fill: none; stroke: #008000; stroke-width: 1.5; stroke-linecap: square"/>
    </g>
    <g id="text_20">
     <!-- per_atari -->
     <g transform="translate(607.464044 378.682187) scale(0.1 -0.1)">
      <use xlink:href="#DejaVuSans-70"/>
      <use xlink:href="#DejaVuSans-65" transform="translate(63.476562 0)"/>
      <use xlink:href="#DejaVuSans-72" transform="translate(125 0)"/>
      <use xlink:href="#DejaVuSans-5f" transform="translate(166.113281 0)"/>
      <use xlink:href="#DejaVuSans-61" transform="translate(216.113281 0)"/>
      <use xlink:href="#DejaVuSans-74" transform="translate(277.392578 0)"/>
      <use xlink:href="#DejaVuSans-61" transform="translate(316.601562 0)"/>
      <use xlink:href="#DejaVuSans-72" transform="translate(377.880859 0)"/>
      <use xlink:href="#DejaVuSans-69" transform="translate(418.994141 0)"/>
     </g>
    </g>
   </g>
  </g>
 </g>
 <defs>
  <clipPath id="p30ce4dab15">
   <rect x="47.81" y="25.44" width="657.835294" height="364.6"/>
  </clipPath>
 </defs>
</svg>
