<?xml version="1.0" encoding="utf-8" standalone="no"?>
<!DOCTYPE svg PUBLIC "-//W3C//DTD SVG 1.1//EN"
  "http://www.w3.org/Graphics/SVG/1.1/DTD/svg11.dtd">
<svg xmlns:xlink="http://www.w3.org/1999/xlink" width="720pt" height="432pt" viewBox="0 0 720 432" xmlns="http://www.w3.org/2000/svg" version="1.1">
 <metadata>
  <rdf:RDF xmlns:dc="http://purl.org/dc/elements/1.1/" xmlns:cc="http://creativecommons.org/ns#" xmlns:rdf="http://www.w3.org/1999/02/22-rdf-syntax-ns#">
   <cc:Work>
    <dc:type rdf:resource="http://purl.org/dc/dcmitype/StillImage"/>
    <dc:date>2025-02-09T22:58:08.690693</dc:date>
    <dc:format>image/svg+xml</dc:format>
    <dc:creator>
     <cc:Agent>
      <dc:title>Matplotlib v3.10.0, https://matplotlib.org/</dc:title>
     </cc:Agent>
    </dc:creator>
   </cc:Work>
  </rdf:RDF>
 </metadata>
 <defs>
  <style type="text/css">*{stroke-linejoin: round; stroke-linecap: butt}</style>
 </defs>
 <g id="figure_1">
  <g id="patch_1">
   <path d="M 0 432 
L 720 432 
L 720 0 
L 0 0 
z
" style="fill: #ffffff"/>
  </g>
  <g id="axes_1">
   <g id="patch_2">
    <path d="M 54.2 390.04 
L 709.2 390.04 
L 709.2 25.44 
L 54.2 25.44 
z
" style="fill: #ffffff"/>
   </g>
   <g id="matplotlib.axis_1">
    <g id="xtick_1">
     <g id="line2d_1">
      <defs>
       <path id="m4ceeacd865" d="M 0 0 
L 0 3.5 
" style="stroke: #000000; stroke-width: 0.8"/>
      </defs>
      <g>
       <use xlink:href="#m4ceeacd865" x="73.171713" y="390.04" style="stroke: #000000; stroke-width: 0.8"/>
      </g>
     </g>
     <g id="text_1">
      <!-- 0 -->
      <g transform="translate(69.990463 404.638438) scale(0.1 -0.1)">
       <defs>
        <path id="DejaVuSans-30" d="M 2034 4250 
Q 1547 4250 1301 3770 
Q 1056 3291 1056 2328 
Q 1056 1369 1301 889 
Q 1547 409 2034 409 
Q 2525 409 2770 889 
Q 3016 1369 3016 2328 
Q 3016 3291 2770 3770 
Q 2525 4250 2034 4250 
z
M 2034 4750 
Q 2819 4750 3233 4129 
Q 3647 3509 3647 2328 
Q 3647 1150 3233 529 
Q 2819 -91 2034 -91 
Q 1250 -91 836 529 
Q 422 1150 422 2328 
Q 422 3509 836 4129 
Q 1250 4750 2034 4750 
z
" transform="scale(0.015625)"/>
       </defs>
       <use xlink:href="#DejaVuSans-30"/>
      </g>
     </g>
    </g>
    <g id="xtick_2">
     <g id="line2d_2">
      <g>
       <use xlink:href="#m4ceeacd865" x="194.804753" y="390.04" style="stroke: #000000; stroke-width: 0.8"/>
      </g>
     </g>
     <g id="text_2">
      <!-- 20000 -->
      <g transform="translate(178.898503 404.638438) scale(0.1 -0.1)">
       <defs>
        <path id="DejaVuSans-32" d="M 1228 531 
L 3431 531 
L 3431 0 
L 469 0 
L 469 531 
Q 828 903 1448 1529 
Q 2069 2156 2228 2338 
Q 2531 2678 2651 2914 
Q 2772 3150 2772 3378 
Q 2772 3750 2511 3984 
Q 2250 4219 1831 4219 
Q 1534 4219 1204 4116 
Q 875 4013 500 3803 
L 500 4441 
Q 881 4594 1212 4672 
Q 1544 4750 1819 4750 
Q 2544 4750 2975 4387 
Q 3406 4025 3406 3419 
Q 3406 3131 3298 2873 
Q 3191 2616 2906 2266 
Q 2828 2175 2409 1742 
Q 1991 1309 1228 531 
z
" transform="scale(0.015625)"/>
       </defs>
       <use xlink:href="#DejaVuSans-32"/>
       <use xlink:href="#DejaVuSans-30" transform="translate(63.623047 0)"/>
       <use xlink:href="#DejaVuSans-30" transform="translate(127.246094 0)"/>
       <use xlink:href="#DejaVuSans-30" transform="translate(190.869141 0)"/>
       <use xlink:href="#DejaVuSans-30" transform="translate(254.492188 0)"/>
      </g>
     </g>
    </g>
    <g id="xtick_3">
     <g id="line2d_3">
      <g>
       <use xlink:href="#m4ceeacd865" x="316.437793" y="390.04" style="stroke: #000000; stroke-width: 0.8"/>
      </g>
     </g>
     <g id="text_3">
      <!-- 40000 -->
      <g transform="translate(300.531543 404.638438) scale(0.1 -0.1)">
       <defs>
        <path id="DejaVuSans-34" d="M 2419 4116 
L 825 1625 
L 2419 1625 
L 2419 4116 
z
M 2253 4666 
L 3047 4666 
L 3047 1625 
L 3713 1625 
L 3713 1100 
L 3047 1100 
L 3047 0 
L 2419 0 
L 2419 1100 
L 313 1100 
L 313 1709 
L 2253 4666 
z
" transform="scale(0.015625)"/>
       </defs>
       <use xlink:href="#DejaVuSans-34"/>
       <use xlink:href="#DejaVuSans-30" transform="translate(63.623047 0)"/>
       <use xlink:href="#DejaVuSans-30" transform="translate(127.246094 0)"/>
       <use xlink:href="#DejaVuSans-30" transform="translate(190.869141 0)"/>
       <use xlink:href="#DejaVuSans-30" transform="translate(254.492188 0)"/>
      </g>
     </g>
    </g>
    <g id="xtick_4">
     <g id="line2d_4">
      <g>
       <use xlink:href="#m4ceeacd865" x="438.070832" y="390.04" style="stroke: #000000; stroke-width: 0.8"/>
      </g>
     </g>
     <g id="text_4">
      <!-- 60000 -->
      <g transform="translate(422.164582 404.638438) scale(0.1 -0.1)">
       <defs>
        <path id="DejaVuSans-36" d="M 2113 2584 
Q 1688 2584 1439 2293 
Q 1191 2003 1191 1497 
Q 1191 994 1439 701 
Q 1688 409 2113 409 
Q 2538 409 2786 701 
Q 3034 994 3034 1497 
Q 3034 2003 2786 2293 
Q 2538 2584 2113 2584 
z
M 3366 4563 
L 3366 3988 
Q 3128 4100 2886 4159 
Q 2644 4219 2406 4219 
Q 1781 4219 1451 3797 
Q 1122 3375 1075 2522 
Q 1259 2794 1537 2939 
Q 1816 3084 2150 3084 
Q 2853 3084 3261 2657 
Q 3669 2231 3669 1497 
Q 3669 778 3244 343 
Q 2819 -91 2113 -91 
Q 1303 -91 875 529 
Q 447 1150 447 2328 
Q 447 3434 972 4092 
Q 1497 4750 2381 4750 
Q 2619 4750 2861 4703 
Q 3103 4656 3366 4563 
z
" transform="scale(0.015625)"/>
       </defs>
       <use xlink:href="#DejaVuSans-36"/>
       <use xlink:href="#DejaVuSans-30" transform="translate(63.623047 0)"/>
       <use xlink:href="#DejaVuSans-30" transform="translate(127.246094 0)"/>
       <use xlink:href="#DejaVuSans-30" transform="translate(190.869141 0)"/>
       <use xlink:href="#DejaVuSans-30" transform="translate(254.492188 0)"/>
      </g>
     </g>
    </g>
    <g id="xtick_5">
     <g id="line2d_5">
      <g>
       <use xlink:href="#m4ceeacd865" x="559.703872" y="390.04" style="stroke: #000000; stroke-width: 0.8"/>
      </g>
     </g>
     <g id="text_5">
      <!-- 80000 -->
      <g transform="translate(543.797622 404.638438) scale(0.1 -0.1)">
       <defs>
        <path id="DejaVuSans-38" d="M 2034 2216 
Q 1584 2216 1326 1975 
Q 1069 1734 1069 1313 
Q 1069 891 1326 650 
Q 1584 409 2034 409 
Q 2484 409 2743 651 
Q 3003 894 3003 1313 
Q 3003 1734 2745 1975 
Q 2488 2216 2034 2216 
z
M 1403 2484 
Q 997 2584 770 2862 
Q 544 3141 544 3541 
Q 544 4100 942 4425 
Q 1341 4750 2034 4750 
Q 2731 4750 3128 4425 
Q 3525 4100 3525 3541 
Q 3525 3141 3298 2862 
Q 3072 2584 2669 2484 
Q 3125 2378 3379 2068 
Q 3634 1759 3634 1313 
Q 3634 634 3220 271 
Q 2806 -91 2034 -91 
Q 1263 -91 848 271 
Q 434 634 434 1313 
Q 434 1759 690 2068 
Q 947 2378 1403 2484 
z
M 1172 3481 
Q 1172 3119 1398 2916 
Q 1625 2713 2034 2713 
Q 2441 2713 2670 2916 
Q 2900 3119 2900 3481 
Q 2900 3844 2670 4047 
Q 2441 4250 2034 4250 
Q 1625 4250 1398 4047 
Q 1172 3844 1172 3481 
z
" transform="scale(0.015625)"/>
       </defs>
       <use xlink:href="#DejaVuSans-38"/>
       <use xlink:href="#DejaVuSans-30" transform="translate(63.623047 0)"/>
       <use xlink:href="#DejaVuSans-30" transform="translate(127.246094 0)"/>
       <use xlink:href="#DejaVuSans-30" transform="translate(190.869141 0)"/>
       <use xlink:href="#DejaVuSans-30" transform="translate(254.492188 0)"/>
      </g>
     </g>
    </g>
    <g id="xtick_6">
     <g id="line2d_6">
      <g>
       <use xlink:href="#m4ceeacd865" x="681.336911" y="390.04" style="stroke: #000000; stroke-width: 0.8"/>
      </g>
     </g>
     <g id="text_6">
      <!-- 100000 -->
      <g transform="translate(662.249411 404.638438) scale(0.1 -0.1)">
       <defs>
        <path id="DejaVuSans-31" d="M 794 531 
L 1825 531 
L 1825 4091 
L 703 3866 
L 703 4441 
L 1819 4666 
L 2450 4666 
L 2450 531 
L 3481 531 
L 3481 0 
L 794 0 
L 794 531 
z
" transform="scale(0.015625)"/>
       </defs>
       <use xlink:href="#DejaVuSans-31"/>
       <use xlink:href="#DejaVuSans-30" transform="translate(63.623047 0)"/>
       <use xlink:href="#DejaVuSans-30" transform="translate(127.246094 0)"/>
       <use xlink:href="#DejaVuSans-30" transform="translate(190.869141 0)"/>
       <use xlink:href="#DejaVuSans-30" transform="translate(254.492188 0)"/>
       <use xlink:href="#DejaVuSans-30" transform="translate(318.115234 0)"/>
      </g>
     </g>
    </g>
    <g id="text_7">
     <!-- Step -->
     <g transform="translate(370.314844 418.316562) scale(0.1 -0.1)">
      <defs>
       <path id="DejaVuSans-53" d="M 3425 4513 
L 3425 3897 
Q 3066 4069 2747 4153 
Q 2428 4238 2131 4238 
Q 1616 4238 1336 4038 
Q 1056 3838 1056 3469 
Q 1056 3159 1242 3001 
Q 1428 2844 1947 2747 
L 2328 2669 
Q 3034 2534 3370 2195 
Q 3706 1856 3706 1288 
Q 3706 609 3251 259 
Q 2797 -91 1919 -91 
Q 1588 -91 1214 -16 
Q 841 59 441 206 
L 441 856 
Q 825 641 1194 531 
Q 1563 422 1919 422 
Q 2459 422 2753 634 
Q 3047 847 3047 1241 
Q 3047 1584 2836 1778 
Q 2625 1972 2144 2069 
L 1759 2144 
Q 1053 2284 737 2584 
Q 422 2884 422 3419 
Q 422 4038 858 4394 
Q 1294 4750 2059 4750 
Q 2388 4750 2728 4690 
Q 3069 4631 3425 4513 
z
" transform="scale(0.015625)"/>
       <path id="DejaVuSans-74" d="M 1172 4494 
L 1172 3500 
L 2356 3500 
L 2356 3053 
L 1172 3053 
L 1172 1153 
Q 1172 725 1289 603 
Q 1406 481 1766 481 
L 2356 481 
L 2356 0 
L 1766 0 
Q 1100 0 847 248 
Q 594 497 594 1153 
L 594 3053 
L 172 3053 
L 172 3500 
L 594 3500 
L 594 4494 
L 1172 4494 
z
" transform="scale(0.015625)"/>
       <path id="DejaVuSans-65" d="M 3597 1894 
L 3597 1613 
L 953 1613 
Q 991 1019 1311 708 
Q 1631 397 2203 397 
Q 2534 397 2845 478 
Q 3156 559 3463 722 
L 3463 178 
Q 3153 47 2828 -22 
Q 2503 -91 2169 -91 
Q 1331 -91 842 396 
Q 353 884 353 1716 
Q 353 2575 817 3079 
Q 1281 3584 2069 3584 
Q 2775 3584 3186 3129 
Q 3597 2675 3597 1894 
z
M 3022 2063 
Q 3016 2534 2758 2815 
Q 2500 3097 2075 3097 
Q 1594 3097 1305 2825 
Q 1016 2553 972 2059 
L 3022 2063 
z
" transform="scale(0.015625)"/>
       <path id="DejaVuSans-70" d="M 1159 525 
L 1159 -1331 
L 581 -1331 
L 581 3500 
L 1159 3500 
L 1159 2969 
Q 1341 3281 1617 3432 
Q 1894 3584 2278 3584 
Q 2916 3584 3314 3078 
Q 3713 2572 3713 1747 
Q 3713 922 3314 415 
Q 2916 -91 2278 -91 
Q 1894 -91 1617 61 
Q 1341 213 1159 525 
z
M 3116 1747 
Q 3116 2381 2855 2742 
Q 2594 3103 2138 3103 
Q 1681 3103 1420 2742 
Q 1159 2381 1159 1747 
Q 1159 1113 1420 752 
Q 1681 391 2138 391 
Q 2594 391 2855 752 
Q 3116 1113 3116 1747 
z
" transform="scale(0.015625)"/>
      </defs>
      <use xlink:href="#DejaVuSans-53"/>
      <use xlink:href="#DejaVuSans-74" transform="translate(63.476562 0)"/>
      <use xlink:href="#DejaVuSans-65" transform="translate(102.685547 0)"/>
      <use xlink:href="#DejaVuSans-70" transform="translate(164.208984 0)"/>
     </g>
    </g>
   </g>
   <g id="matplotlib.axis_2">
    <g id="ytick_1">
     <g id="line2d_7">
      <defs>
       <path id="mf3d3b50d0e" d="M 0 0 
L -3.5 0 
" style="stroke: #000000; stroke-width: 0.8"/>
      </defs>
      <g>
       <use xlink:href="#mf3d3b50d0e" x="54.2" y="385.555138" style="stroke: #000000; stroke-width: 0.8"/>
      </g>
     </g>
     <g id="text_8">
      <!-- 0.45 -->
      <g transform="translate(24.934375 389.354357) scale(0.1 -0.1)">
       <defs>
        <path id="DejaVuSans-2e" d="M 684 794 
L 1344 794 
L 1344 0 
L 684 0 
L 684 794 
z
" transform="scale(0.015625)"/>
        <path id="DejaVuSans-35" d="M 691 4666 
L 3169 4666 
L 3169 4134 
L 1269 4134 
L 1269 2991 
Q 1406 3038 1543 3061 
Q 1681 3084 1819 3084 
Q 2600 3084 3056 2656 
Q 3513 2228 3513 1497 
Q 3513 744 3044 326 
Q 2575 -91 1722 -91 
Q 1428 -91 1123 -41 
Q 819 9 494 109 
L 494 744 
Q 775 591 1075 516 
Q 1375 441 1709 441 
Q 2250 441 2565 725 
Q 2881 1009 2881 1497 
Q 2881 1984 2565 2268 
Q 2250 2553 1709 2553 
Q 1456 2553 1204 2497 
Q 953 2441 691 2322 
L 691 4666 
z
" transform="scale(0.015625)"/>
       </defs>
       <use xlink:href="#DejaVuSans-30"/>
       <use xlink:href="#DejaVuSans-2e" transform="translate(63.623047 0)"/>
       <use xlink:href="#DejaVuSans-34" transform="translate(95.410156 0)"/>
       <use xlink:href="#DejaVuSans-35" transform="translate(159.033203 0)"/>
      </g>
     </g>
    </g>
    <g id="ytick_2">
     <g id="line2d_8">
      <g>
       <use xlink:href="#mf3d3b50d0e" x="54.2" y="340.994852" style="stroke: #000000; stroke-width: 0.8"/>
      </g>
     </g>
     <g id="text_9">
      <!-- 0.50 -->
      <g transform="translate(24.934375 344.794071) scale(0.1 -0.1)">
       <use xlink:href="#DejaVuSans-30"/>
       <use xlink:href="#DejaVuSans-2e" transform="translate(63.623047 0)"/>
       <use xlink:href="#DejaVuSans-35" transform="translate(95.410156 0)"/>
       <use xlink:href="#DejaVuSans-30" transform="translate(159.033203 0)"/>
      </g>
     </g>
    </g>
    <g id="ytick_3">
     <g id="line2d_9">
      <g>
       <use xlink:href="#mf3d3b50d0e" x="54.2" y="296.434565" style="stroke: #000000; stroke-width: 0.8"/>
      </g>
     </g>
     <g id="text_10">
      <!-- 0.55 -->
      <g transform="translate(24.934375 300.233784) scale(0.1 -0.1)">
       <use xlink:href="#DejaVuSans-30"/>
       <use xlink:href="#DejaVuSans-2e" transform="translate(63.623047 0)"/>
       <use xlink:href="#DejaVuSans-35" transform="translate(95.410156 0)"/>
       <use xlink:href="#DejaVuSans-35" transform="translate(159.033203 0)"/>
      </g>
     </g>
    </g>
    <g id="ytick_4">
     <g id="line2d_10">
      <g>
       <use xlink:href="#mf3d3b50d0e" x="54.2" y="251.874279" style="stroke: #000000; stroke-width: 0.8"/>
      </g>
     </g>
     <g id="text_11">
      <!-- 0.60 -->
      <g transform="translate(24.934375 255.673498) scale(0.1 -0.1)">
       <use xlink:href="#DejaVuSans-30"/>
       <use xlink:href="#DejaVuSans-2e" transform="translate(63.623047 0)"/>
       <use xlink:href="#DejaVuSans-36" transform="translate(95.410156 0)"/>
       <use xlink:href="#DejaVuSans-30" transform="translate(159.033203 0)"/>
      </g>
     </g>
    </g>
    <g id="ytick_5">
     <g id="line2d_11">
      <g>
       <use xlink:href="#mf3d3b50d0e" x="54.2" y="207.313993" style="stroke: #000000; stroke-width: 0.8"/>
      </g>
     </g>
     <g id="text_12">
      <!-- 0.65 -->
      <g transform="translate(24.934375 211.113212) scale(0.1 -0.1)">
       <use xlink:href="#DejaVuSans-30"/>
       <use xlink:href="#DejaVuSans-2e" transform="translate(63.623047 0)"/>
       <use xlink:href="#DejaVuSans-36" transform="translate(95.410156 0)"/>
       <use xlink:href="#DejaVuSans-35" transform="translate(159.033203 0)"/>
      </g>
     </g>
    </g>
    <g id="ytick_6">
     <g id="line2d_12">
      <g>
       <use xlink:href="#mf3d3b50d0e" x="54.2" y="162.753706" style="stroke: #000000; stroke-width: 0.8"/>
      </g>
     </g>
     <g id="text_13">
      <!-- 0.70 -->
      <g transform="translate(24.934375 166.552925) scale(0.1 -0.1)">
       <defs>
        <path id="DejaVuSans-37" d="M 525 4666 
L 3525 4666 
L 3525 4397 
L 1831 0 
L 1172 0 
L 2766 4134 
L 525 4134 
L 525 4666 
z
" transform="scale(0.015625)"/>
       </defs>
       <use xlink:href="#DejaVuSans-30"/>
       <use xlink:href="#DejaVuSans-2e" transform="translate(63.623047 0)"/>
       <use xlink:href="#DejaVuSans-37" transform="translate(95.410156 0)"/>
       <use xlink:href="#DejaVuSans-30" transform="translate(159.033203 0)"/>
      </g>
     </g>
    </g>
    <g id="ytick_7">
     <g id="line2d_13">
      <g>
       <use xlink:href="#mf3d3b50d0e" x="54.2" y="118.19342" style="stroke: #000000; stroke-width: 0.8"/>
      </g>
     </g>
     <g id="text_14">
      <!-- 0.75 -->
      <g transform="translate(24.934375 121.992639) scale(0.1 -0.1)">
       <use xlink:href="#DejaVuSans-30"/>
       <use xlink:href="#DejaVuSans-2e" transform="translate(63.623047 0)"/>
       <use xlink:href="#DejaVuSans-37" transform="translate(95.410156 0)"/>
       <use xlink:href="#DejaVuSans-35" transform="translate(159.033203 0)"/>
      </g>
     </g>
    </g>
    <g id="ytick_8">
     <g id="line2d_14">
      <g>
       <use xlink:href="#mf3d3b50d0e" x="54.2" y="73.633134" style="stroke: #000000; stroke-width: 0.8"/>
      </g>
     </g>
     <g id="text_15">
      <!-- 0.80 -->
      <g transform="translate(24.934375 77.432352) scale(0.1 -0.1)">
       <use xlink:href="#DejaVuSans-30"/>
       <use xlink:href="#DejaVuSans-2e" transform="translate(63.623047 0)"/>
       <use xlink:href="#DejaVuSans-38" transform="translate(95.410156 0)"/>
       <use xlink:href="#DejaVuSans-30" transform="translate(159.033203 0)"/>
      </g>
     </g>
    </g>
    <g id="ytick_9">
     <g id="line2d_15">
      <g>
       <use xlink:href="#mf3d3b50d0e" x="54.2" y="29.072847" style="stroke: #000000; stroke-width: 0.8"/>
      </g>
     </g>
     <g id="text_16">
      <!-- 0.85 -->
      <g transform="translate(24.934375 32.872066) scale(0.1 -0.1)">
       <use xlink:href="#DejaVuSans-30"/>
       <use xlink:href="#DejaVuSans-2e" transform="translate(63.623047 0)"/>
       <use xlink:href="#DejaVuSans-38" transform="translate(95.410156 0)"/>
       <use xlink:href="#DejaVuSans-35" transform="translate(159.033203 0)"/>
      </g>
     </g>
    </g>
    <g id="text_17">
     <!-- Normalized (minmax) Episodic Return -->
     <g transform="translate(18.854688 302.376719) rotate(-90) scale(0.1 -0.1)">
      <defs>
       <path id="DejaVuSans-4e" d="M 628 4666 
L 1478 4666 
L 3547 763 
L 3547 4666 
L 4159 4666 
L 4159 0 
L 3309 0 
L 1241 3903 
L 1241 0 
L 628 0 
L 628 4666 
z
" transform="scale(0.015625)"/>
       <path id="DejaVuSans-6f" d="M 1959 3097 
Q 1497 3097 1228 2736 
Q 959 2375 959 1747 
Q 959 1119 1226 758 
Q 1494 397 1959 397 
Q 2419 397 2687 759 
Q 2956 1122 2956 1747 
Q 2956 2369 2687 2733 
Q 2419 3097 1959 3097 
z
M 1959 3584 
Q 2709 3584 3137 3096 
Q 3566 2609 3566 1747 
Q 3566 888 3137 398 
Q 2709 -91 1959 -91 
Q 1206 -91 779 398 
Q 353 888 353 1747 
Q 353 2609 779 3096 
Q 1206 3584 1959 3584 
z
" transform="scale(0.015625)"/>
       <path id="DejaVuSans-72" d="M 2631 2963 
Q 2534 3019 2420 3045 
Q 2306 3072 2169 3072 
Q 1681 3072 1420 2755 
Q 1159 2438 1159 1844 
L 1159 0 
L 581 0 
L 581 3500 
L 1159 3500 
L 1159 2956 
Q 1341 3275 1631 3429 
Q 1922 3584 2338 3584 
Q 2397 3584 2469 3576 
Q 2541 3569 2628 3553 
L 2631 2963 
z
" transform="scale(0.015625)"/>
       <path id="DejaVuSans-6d" d="M 3328 2828 
Q 3544 3216 3844 3400 
Q 4144 3584 4550 3584 
Q 5097 3584 5394 3201 
Q 5691 2819 5691 2113 
L 5691 0 
L 5113 0 
L 5113 2094 
Q 5113 2597 4934 2840 
Q 4756 3084 4391 3084 
Q 3944 3084 3684 2787 
Q 3425 2491 3425 1978 
L 3425 0 
L 2847 0 
L 2847 2094 
Q 2847 2600 2669 2842 
Q 2491 3084 2119 3084 
Q 1678 3084 1418 2786 
Q 1159 2488 1159 1978 
L 1159 0 
L 581 0 
L 581 3500 
L 1159 3500 
L 1159 2956 
Q 1356 3278 1631 3431 
Q 1906 3584 2284 3584 
Q 2666 3584 2933 3390 
Q 3200 3197 3328 2828 
z
" transform="scale(0.015625)"/>
       <path id="DejaVuSans-61" d="M 2194 1759 
Q 1497 1759 1228 1600 
Q 959 1441 959 1056 
Q 959 750 1161 570 
Q 1363 391 1709 391 
Q 2188 391 2477 730 
Q 2766 1069 2766 1631 
L 2766 1759 
L 2194 1759 
z
M 3341 1997 
L 3341 0 
L 2766 0 
L 2766 531 
Q 2569 213 2275 61 
Q 1981 -91 1556 -91 
Q 1019 -91 701 211 
Q 384 513 384 1019 
Q 384 1609 779 1909 
Q 1175 2209 1959 2209 
L 2766 2209 
L 2766 2266 
Q 2766 2663 2505 2880 
Q 2244 3097 1772 3097 
Q 1472 3097 1187 3025 
Q 903 2953 641 2809 
L 641 3341 
Q 956 3463 1253 3523 
Q 1550 3584 1831 3584 
Q 2591 3584 2966 3190 
Q 3341 2797 3341 1997 
z
" transform="scale(0.015625)"/>
       <path id="DejaVuSans-6c" d="M 603 4863 
L 1178 4863 
L 1178 0 
L 603 0 
L 603 4863 
z
" transform="scale(0.015625)"/>
       <path id="DejaVuSans-69" d="M 603 3500 
L 1178 3500 
L 1178 0 
L 603 0 
L 603 3500 
z
M 603 4863 
L 1178 4863 
L 1178 4134 
L 603 4134 
L 603 4863 
z
" transform="scale(0.015625)"/>
       <path id="DejaVuSans-7a" d="M 353 3500 
L 3084 3500 
L 3084 2975 
L 922 459 
L 3084 459 
L 3084 0 
L 275 0 
L 275 525 
L 2438 3041 
L 353 3041 
L 353 3500 
z
" transform="scale(0.015625)"/>
       <path id="DejaVuSans-64" d="M 2906 2969 
L 2906 4863 
L 3481 4863 
L 3481 0 
L 2906 0 
L 2906 525 
Q 2725 213 2448 61 
Q 2172 -91 1784 -91 
Q 1150 -91 751 415 
Q 353 922 353 1747 
Q 353 2572 751 3078 
Q 1150 3584 1784 3584 
Q 2172 3584 2448 3432 
Q 2725 3281 2906 2969 
z
M 947 1747 
Q 947 1113 1208 752 
Q 1469 391 1925 391 
Q 2381 391 2643 752 
Q 2906 1113 2906 1747 
Q 2906 2381 2643 2742 
Q 2381 3103 1925 3103 
Q 1469 3103 1208 2742 
Q 947 2381 947 1747 
z
" transform="scale(0.015625)"/>
       <path id="DejaVuSans-20" transform="scale(0.015625)"/>
       <path id="DejaVuSans-28" d="M 1984 4856 
Q 1566 4138 1362 3434 
Q 1159 2731 1159 2009 
Q 1159 1288 1364 580 
Q 1569 -128 1984 -844 
L 1484 -844 
Q 1016 -109 783 600 
Q 550 1309 550 2009 
Q 550 2706 781 3412 
Q 1013 4119 1484 4856 
L 1984 4856 
z
" transform="scale(0.015625)"/>
       <path id="DejaVuSans-6e" d="M 3513 2113 
L 3513 0 
L 2938 0 
L 2938 2094 
Q 2938 2591 2744 2837 
Q 2550 3084 2163 3084 
Q 1697 3084 1428 2787 
Q 1159 2491 1159 1978 
L 1159 0 
L 581 0 
L 581 3500 
L 1159 3500 
L 1159 2956 
Q 1366 3272 1645 3428 
Q 1925 3584 2291 3584 
Q 2894 3584 3203 3211 
Q 3513 2838 3513 2113 
z
" transform="scale(0.015625)"/>
       <path id="DejaVuSans-78" d="M 3513 3500 
L 2247 1797 
L 3578 0 
L 2900 0 
L 1881 1375 
L 863 0 
L 184 0 
L 1544 1831 
L 300 3500 
L 978 3500 
L 1906 2253 
L 2834 3500 
L 3513 3500 
z
" transform="scale(0.015625)"/>
       <path id="DejaVuSans-29" d="M 513 4856 
L 1013 4856 
Q 1481 4119 1714 3412 
Q 1947 2706 1947 2009 
Q 1947 1309 1714 600 
Q 1481 -109 1013 -844 
L 513 -844 
Q 928 -128 1133 580 
Q 1338 1288 1338 2009 
Q 1338 2731 1133 3434 
Q 928 4138 513 4856 
z
" transform="scale(0.015625)"/>
       <path id="DejaVuSans-45" d="M 628 4666 
L 3578 4666 
L 3578 4134 
L 1259 4134 
L 1259 2753 
L 3481 2753 
L 3481 2222 
L 1259 2222 
L 1259 531 
L 3634 531 
L 3634 0 
L 628 0 
L 628 4666 
z
" transform="scale(0.015625)"/>
       <path id="DejaVuSans-73" d="M 2834 3397 
L 2834 2853 
Q 2591 2978 2328 3040 
Q 2066 3103 1784 3103 
Q 1356 3103 1142 2972 
Q 928 2841 928 2578 
Q 928 2378 1081 2264 
Q 1234 2150 1697 2047 
L 1894 2003 
Q 2506 1872 2764 1633 
Q 3022 1394 3022 966 
Q 3022 478 2636 193 
Q 2250 -91 1575 -91 
Q 1294 -91 989 -36 
Q 684 19 347 128 
L 347 722 
Q 666 556 975 473 
Q 1284 391 1588 391 
Q 1994 391 2212 530 
Q 2431 669 2431 922 
Q 2431 1156 2273 1281 
Q 2116 1406 1581 1522 
L 1381 1569 
Q 847 1681 609 1914 
Q 372 2147 372 2553 
Q 372 3047 722 3315 
Q 1072 3584 1716 3584 
Q 2034 3584 2315 3537 
Q 2597 3491 2834 3397 
z
" transform="scale(0.015625)"/>
       <path id="DejaVuSans-63" d="M 3122 3366 
L 3122 2828 
Q 2878 2963 2633 3030 
Q 2388 3097 2138 3097 
Q 1578 3097 1268 2742 
Q 959 2388 959 1747 
Q 959 1106 1268 751 
Q 1578 397 2138 397 
Q 2388 397 2633 464 
Q 2878 531 3122 666 
L 3122 134 
Q 2881 22 2623 -34 
Q 2366 -91 2075 -91 
Q 1284 -91 818 406 
Q 353 903 353 1747 
Q 353 2603 823 3093 
Q 1294 3584 2113 3584 
Q 2378 3584 2631 3529 
Q 2884 3475 3122 3366 
z
" transform="scale(0.015625)"/>
       <path id="DejaVuSans-52" d="M 2841 2188 
Q 3044 2119 3236 1894 
Q 3428 1669 3622 1275 
L 4263 0 
L 3584 0 
L 2988 1197 
Q 2756 1666 2539 1819 
Q 2322 1972 1947 1972 
L 1259 1972 
L 1259 0 
L 628 0 
L 628 4666 
L 2053 4666 
Q 2853 4666 3247 4331 
Q 3641 3997 3641 3322 
Q 3641 2881 3436 2590 
Q 3231 2300 2841 2188 
z
M 1259 4147 
L 1259 2491 
L 2053 2491 
Q 2509 2491 2742 2702 
Q 2975 2913 2975 3322 
Q 2975 3731 2742 3939 
Q 2509 4147 2053 4147 
L 1259 4147 
z
" transform="scale(0.015625)"/>
       <path id="DejaVuSans-75" d="M 544 1381 
L 544 3500 
L 1119 3500 
L 1119 1403 
Q 1119 906 1312 657 
Q 1506 409 1894 409 
Q 2359 409 2629 706 
Q 2900 1003 2900 1516 
L 2900 3500 
L 3475 3500 
L 3475 0 
L 2900 0 
L 2900 538 
Q 2691 219 2414 64 
Q 2138 -91 1772 -91 
Q 1169 -91 856 284 
Q 544 659 544 1381 
z
M 1991 3584 
L 1991 3584 
z
" transform="scale(0.015625)"/>
      </defs>
      <use xlink:href="#DejaVuSans-4e"/>
      <use xlink:href="#DejaVuSans-6f" transform="translate(74.804688 0)"/>
      <use xlink:href="#DejaVuSans-72" transform="translate(135.986328 0)"/>
      <use xlink:href="#DejaVuSans-6d" transform="translate(175.349609 0)"/>
      <use xlink:href="#DejaVuSans-61" transform="translate(272.761719 0)"/>
      <use xlink:href="#DejaVuSans-6c" transform="translate(334.041016 0)"/>
      <use xlink:href="#DejaVuSans-69" transform="translate(361.824219 0)"/>
      <use xlink:href="#DejaVuSans-7a" transform="translate(389.607422 0)"/>
      <use xlink:href="#DejaVuSans-65" transform="translate(442.097656 0)"/>
      <use xlink:href="#DejaVuSans-64" transform="translate(503.621094 0)"/>
      <use xlink:href="#DejaVuSans-20" transform="translate(567.097656 0)"/>
      <use xlink:href="#DejaVuSans-28" transform="translate(598.884766 0)"/>
      <use xlink:href="#DejaVuSans-6d" transform="translate(637.898438 0)"/>
      <use xlink:href="#DejaVuSans-69" transform="translate(735.310547 0)"/>
      <use xlink:href="#DejaVuSans-6e" transform="translate(763.09375 0)"/>
      <use xlink:href="#DejaVuSans-6d" transform="translate(826.472656 0)"/>
      <use xlink:href="#DejaVuSans-61" transform="translate(923.884766 0)"/>
      <use xlink:href="#DejaVuSans-78" transform="translate(985.164062 0)"/>
      <use xlink:href="#DejaVuSans-29" transform="translate(1044.34375 0)"/>
      <use xlink:href="#DejaVuSans-20" transform="translate(1083.357422 0)"/>
      <use xlink:href="#DejaVuSans-45" transform="translate(1115.144531 0)"/>
      <use xlink:href="#DejaVuSans-70" transform="translate(1178.328125 0)"/>
      <use xlink:href="#DejaVuSans-69" transform="translate(1241.804688 0)"/>
      <use xlink:href="#DejaVuSans-73" transform="translate(1269.587891 0)"/>
      <use xlink:href="#DejaVuSans-6f" transform="translate(1321.6875 0)"/>
      <use xlink:href="#DejaVuSans-64" transform="translate(1382.869141 0)"/>
      <use xlink:href="#DejaVuSans-69" transform="translate(1446.345703 0)"/>
      <use xlink:href="#DejaVuSans-63" transform="translate(1474.128906 0)"/>
      <use xlink:href="#DejaVuSans-20" transform="translate(1529.109375 0)"/>
      <use xlink:href="#DejaVuSans-52" transform="translate(1560.896484 0)"/>
      <use xlink:href="#DejaVuSans-65" transform="translate(1625.878906 0)"/>
      <use xlink:href="#DejaVuSans-74" transform="translate(1687.402344 0)"/>
      <use xlink:href="#DejaVuSans-75" transform="translate(1726.611328 0)"/>
      <use xlink:href="#DejaVuSans-72" transform="translate(1789.990234 0)"/>
      <use xlink:href="#DejaVuSans-6e" transform="translate(1829.353516 0)"/>
     </g>
    </g>
   </g>
   <g id="line2d_16">
    <path d="M 83.972727 92.286277 
L 88.145081 95.594212 
L 94.701638 100.827545 
L 95.297689 102.860576 
L 105.430549 144.872823 
L 106.026599 146.753738 
L 116.159459 170.976425 
L 116.75551 173.869532 
L 127.484421 249.577039 
L 138.213332 356.348804 
L 148.942242 322.202714 
L 150.730394 328.610297 
L 159.671153 361.431869 
L 160.267204 361.228615 
L 170.400064 353.148941 
L 171.592165 351.553043 
L 181.128974 337.840983 
L 181.725025 337.827334 
L 191.857885 349.229482 
L 192.453936 348.348832 
L 203.182846 268.508906 
L 213.911757 299.407738 
L 219.872263 296.570089 
L 224.640668 294.247332 
L 225.236719 294.220527 
L 235.369579 295.829868 
L 235.965629 294.692849 
L 246.098489 257.536017 
L 246.69454 258.196528 
L 256.8274 309.962489 
L 257.423451 311.617196 
L 267.556311 310.027781 
L 268.152361 310.108325 
L 278.285222 332.723388 
L 278.881272 333.625117 
L 289.610183 260.060729 
L 290.802284 266.832845 
L 300.339094 324.624974 
L 300.935144 326.075998 
L 311.068004 340.572361 
L 311.664055 338.480771 
L 321.796915 267.416669 
L 322.392966 266.674136 
L 332.525826 328.069159 
L 333.121876 330.575594 
L 343.254737 311.064763 
L 343.850787 310.337668 
L 354.579698 373.467273 
L 356.36785 354.483725 
L 365.308609 257.608921 
L 365.904659 259.739527 
L 376.037519 330.878937 
L 376.63357 331.421127 
L 387.362481 312.585077 
L 397.495341 280.191838 
L 398.091391 280.462807 
L 408.224252 359.671081 
L 408.820302 363.286582 
L 419.549213 352.975059 
L 427.297871 327.028898 
L 430.278124 317.037487 
L 430.874174 318.768306 
L 441.007034 357.575423 
L 441.603085 354.997999 
L 451.735945 262.884583 
L 452.331996 262.464321 
L 462.464856 364.343239 
L 463.060906 367.518894 
L 473.789817 301.46546 
L 484.518728 335.965733 
L 485.710829 340.202372 
L 495.247639 372.180847 
L 497.631841 366.381406 
L 505.976549 346.410174 
L 506.5726 346.318001 
L 516.70546 349.564035 
L 517.301511 348.590233 
L 530.414624 306.357686 
L 538.163281 280.375152 
L 538.759332 279.658334 
L 549.488243 349.303599 
L 560.217154 287.639869 
L 562.005305 301.228746 
L 570.946064 371.120051 
L 571.542115 371.756012 
L 582.867076 362.607731 
L 592.403886 353.458746 
L 599.556493 341.977397 
L 603.132796 336.246181 
L 603.728847 334.916475 
L 613.861707 265.346283 
L 614.457758 262.038299 
L 620.418264 297.116778 
L 625.186668 325.122097 
L 626.37877 328.896936 
L 635.915579 356.327792 
L 636.51163 357.022342 
L 646.64449 361.874151 
L 647.240541 360.084258 
L 657.969451 315.19547 
L 668.102311 263.484989 
L 668.698362 262.815257 
L 679.427273 328.904852 
L 679.427273 328.904852 
" clip-path="url(#p1f807130e8)" style="fill: none; stroke: #ff00ff; stroke-width: 1.5; stroke-linecap: square"/>
   </g>
   <g id="line2d_17">
    <path d="M 83.972727 88.831991 
L 86.952585 96.839484 
L 94.700213 117.830383 
L 95.296185 117.122212 
L 105.4277 94.48557 
L 106.023671 93.993028 
L 116.155186 92.319336 
L 116.751157 94.739875 
L 126.882672 185.369167 
L 127.478644 188.609163 
L 137.610158 161.155015 
L 138.20613 160.053464 
L 149.529587 212.097332 
L 159.661102 250.97021 
L 160.257074 247.944403 
L 170.388588 183.291992 
L 170.98456 183.098462 
L 181.116075 213.842774 
L 181.712046 213.938837 
L 191.843561 178.427925 
L 192.439532 177.018888 
L 202.571047 199.461958 
L 203.167018 201.258837 
L 213.894505 182.153309 
L 215.086447 187.329033 
L 224.621991 231.492979 
L 225.217962 229.097582 
L 235.945448 162.631984 
L 246.076963 110.964693 
L 246.672935 110.341587 
L 256.804449 136.232094 
L 257.400421 137.164172 
L 267.531936 127.462811 
L 269.915821 123.342703 
L 278.259422 108.703303 
L 278.855393 108.06143 
L 289.582879 155.957394 
L 290.178851 156.009988 
L 300.310366 152.783477 
L 301.502309 151.015722 
L 311.037852 135.851801 
L 311.633823 133.201965 
L 321.765338 65.381994 
L 322.361309 63.762698 
L 333.088796 106.316202 
L 343.816282 123.31965 
L 354.543768 114.808141 
L 355.735711 118.792209 
L 365.271254 152.239954 
L 365.867226 150.285166 
L 375.99874 95.313296 
L 376.594712 95.094315 
L 386.726227 122.621209 
L 387.322198 123.192839 
L 397.453713 116.730638 
L 398.049684 116.565307 
L 408.181199 123.071061 
L 408.77717 123.28481 
L 419.504657 73.685015 
L 420.100628 75.907495 
L 430.232143 129.213898 
L 430.828114 127.399991 
L 440.959629 57.968094 
L 441.555601 56.849788 
L 451.687115 90.77071 
L 452.879058 95.487484 
L 463.010573 133.110606 
L 473.142088 199.50394 
L 473.738059 202.089423 
L 484.465545 94.249044 
L 485.061517 94.226098 
L 495.193032 99.042745 
L 495.789003 100.899675 
L 505.920518 141.328171 
L 506.516489 140.970226 
L 516.648004 100.592653 
L 517.243975 99.481688 
L 527.971462 109.781089 
L 538.102976 124.31821 
L 538.698948 124.53699 
L 549.426434 68.184765 
L 551.81032 83.208884 
L 560.15392 136.493929 
L 560.749892 135.892825 
L 570.881406 105.263801 
L 571.477378 103.927096 
L 581.608893 92.625594 
L 582.204864 93.718449 
L 592.336379 142.16193 
L 592.93235 143.571545 
L 603.063865 127.369761 
L 603.659836 127.171947 
L 607.235665 120.329223 
L 613.791351 107.699146 
L 614.983294 104.800279 
L 625.114809 90.235934 
L 625.71078 90.24143 
L 635.842295 87.002173 
L 636.438266 87.775093 
L 646.569781 86.153173 
L 647.165753 86.408389 
L 657.297267 138.072948 
L 657.893239 139.297553 
L 667.428782 42.149051 
L 668.024754 42.012727 
L 668.620725 44.129999 
L 678.156268 136.948394 
L 678.75224 141.050434 
L 679.348211 144.100563 
L 679.348211 144.100563 
" clip-path="url(#p1f807130e8)" style="fill: none; stroke: #ff0000; stroke-width: 1.5; stroke-linecap: square"/>
   </g>
   <g id="line2d_18">
    <path d="M 83.972727 99.194848 
L 86.35693 95.061637 
L 94.701638 80.401618 
L 95.297689 83.775226 
L 105.430549 158.294543 
L 106.026599 157.250922 
L 116.159459 97.501628 
L 116.75551 98.116864 
L 126.88837 180.521348 
L 127.484421 183.732197 
L 137.617281 183.7558 
L 138.213332 184.074919 
L 148.942242 211.602866 
L 159.671153 264.691733 
L 160.267204 264.950774 
L 170.400064 266.622784 
L 170.996114 262.629754 
L 181.128974 154.2671 
L 181.725025 152.365392 
L 191.857885 196.062548 
L 193.049986 199.710616 
L 202.586796 227.059488 
L 203.182846 227.798549 
L 213.911757 132.495219 
L 217.488061 157.492397 
L 224.640668 207.698983 
L 225.832769 198.976975 
L 235.369579 124.361202 
L 235.965629 123.307627 
L 246.098489 129.822353 
L 247.290591 133.736703 
L 257.423451 169.311907 
L 267.556311 196.707125 
L 268.152361 197.009785 
L 278.285222 169.512883 
L 278.881272 168.3768 
L 289.610183 185.495354 
L 293.782537 190.118487 
L 300.339094 197.421648 
L 300.935144 196.955387 
L 311.068004 182.332625 
L 311.664055 181.167313 
L 321.796915 153.686836 
L 322.392966 153.088896 
L 332.525826 162.861585 
L 333.121876 163.612195 
L 343.254737 184.592451 
L 343.850787 184.81607 
L 354.579698 126.904856 
L 359.348103 139.025266 
L 365.308609 154.226493 
L 368.288862 159.997891 
L 376.037519 174.856753 
L 376.63357 174.710615 
L 386.76643 158.545855 
L 387.362481 159.096649 
L 397.495341 204.325019 
L 398.091391 205.277241 
L 408.820302 154.199965 
L 419.549213 113.102312 
L 422.529466 124.442656 
L 430.278124 154.181995 
L 430.874174 154.181254 
L 441.007034 150.899777 
L 441.603085 151.732639 
L 451.735945 171.184287 
L 452.331996 172.624025 
L 462.464856 206.584882 
L 463.060906 207.815632 
L 473.789817 187.380026 
L 484.518728 204.651079 
L 489.883183 167.085493 
L 495.247639 129.432055 
L 495.843689 128.204101 
L 505.976549 128.304016 
L 506.5726 130.391596 
L 516.70546 175.621784 
L 517.301511 177.458088 
L 527.434371 200.088598 
L 528.030421 199.796993 
L 538.163281 131.870865 
L 538.759332 129.256189 
L 548.892192 181.004908 
L 549.488243 183.468498 
L 560.217154 111.523354 
L 560.813204 112.766416 
L 570.946064 141.803721 
L 572.138165 147.04489 
L 581.674975 191.10618 
L 582.271026 190.740935 
L 592.999936 129.720344 
L 603.132796 108.693725 
L 603.728847 107.819392 
L 614.457758 104.409205 
L 618.630112 111.687415 
L 625.186668 123.309982 
L 625.782719 124.897491 
L 635.915579 145.924079 
L 636.51163 145.437206 
L 646.64449 140.582707 
L 647.240541 140.788466 
L 657.373401 135.952985 
L 657.969451 136.449935 
L 668.102311 167.142054 
L 668.698362 167.668217 
L 678.831222 146.704341 
L 679.427273 145.827706 
L 679.427273 145.827706 
" clip-path="url(#p1f807130e8)" style="fill: none; stroke: #daa520; stroke-width: 1.5; stroke-linecap: square"/>
   </g>
   <g id="line2d_19">
    <path d="M 83.972727 94.01342 
L 94.701638 117.961686 
L 95.297689 116.891187 
L 105.430549 89.417949 
L 106.026599 90.197484 
L 116.159459 125.733179 
L 116.75551 129.556232 
L 126.88837 221.656225 
L 127.484421 224.959807 
L 137.617281 208.778678 
L 138.213332 208.76765 
L 148.942242 301.056162 
L 151.326445 283.07558 
L 159.671153 219.239494 
L 160.863254 214.001026 
L 173.380317 164.437101 
L 181.128974 134.715148 
L 181.725025 134.563937 
L 191.857885 160.475986 
L 192.453936 160.953647 
L 202.586796 154.394277 
L 203.182846 155.367151 
L 213.315707 200.665472 
L 213.911757 202.673216 
L 224.640668 161.601885 
L 225.236719 162.009453 
L 235.369579 174.958137 
L 237.15773 180.775714 
L 246.098489 210.740357 
L 246.69454 208.717155 
L 256.8274 137.577576 
L 257.423451 134.595866 
L 267.556311 103.900171 
L 268.152361 103.125165 
L 279.477323 144.373572 
L 289.610183 171.796858 
L 291.994385 159.420836 
L 300.339094 115.528998 
L 300.935144 119.169593 
L 311.068004 211.239402 
L 311.664055 209.570642 
L 321.796915 119.161025 
L 322.392966 116.983272 
L 333.121876 130.475223 
L 343.850787 133.783541 
L 353.983647 135.370216 
L 354.579698 135.577856 
L 356.9639 141.372463 
L 365.308609 161.36164 
L 369.480963 147.314763 
L 376.037519 125.333679 
L 376.63357 125.261696 
L 386.76643 120.388963 
L 387.362481 118.968434 
L 397.495341 101.291385 
L 399.879543 100.494582 
L 408.224252 97.816164 
L 408.820302 97.757607 
L 419.549213 130.222955 
L 421.337365 127.442001 
L 430.278124 113.20138 
L 431.470225 107.813642 
L 441.007034 62.190651 
L 441.603085 61.417903 
L 451.735945 71.121518 
L 453.524097 75.020239 
L 462.464856 94.99638 
L 463.060906 95.607973 
L 473.193766 92.357378 
L 473.789817 92.625414 
L 484.518728 114.765572 
L 495.247639 87.364675 
L 495.843689 87.282229 
L 505.976549 92.154905 
L 506.5726 93.752034 
L 517.301511 129.623728 
L 527.434371 173.271738 
L 528.030421 174.443919 
L 538.759332 137.069901 
L 550.084293 110.181245 
L 560.217154 93.993813 
L 563.197406 102.160197 
L 570.946064 123.203892 
L 572.138165 121.156809 
L 581.674975 105.819841 
L 582.271026 106.023534 
L 592.403886 96.329026 
L 592.999936 96.787291 
L 603.728847 149.827983 
L 613.861707 149.753358 
L 614.457758 149.292643 
L 622.802466 130.642344 
L 625.186668 125.332671 
L 626.37877 123.464065 
L 635.915579 109.775119 
L 638.299782 102.459026 
L 646.64449 77.185456 
L 647.240541 77.488791 
L 657.373401 96.88327 
L 657.969451 97.093003 
L 668.102311 82.543006 
L 668.698362 82.30729 
L 678.831222 100.102378 
L 679.427273 100.921991 
L 679.427273 100.921991 
" clip-path="url(#p1f807130e8)" style="fill: none; stroke: #0000ff; stroke-width: 1.5; stroke-linecap: square"/>
   </g>
   <g id="line2d_20">
    <path d="M 83.972727 75.014848 
L 88.741132 93.221268 
L 94.701638 116.048458 
L 95.297689 116.123631 
L 105.430549 109.646056 
L 106.026599 109.694639 
L 116.159459 112.942505 
L 116.75551 114.43501 
L 127.484421 167.376287 
L 137.617281 204.49686 
L 138.213332 206.069561 
L 150.730394 189.891125 
L 159.671153 177.024072 
L 160.267204 177.387801 
L 170.400064 180.66009 
L 171.592165 175.112868 
L 181.128974 127.871675 
L 181.725025 126.758506 
L 191.857885 123.521543 
L 192.453936 125.068827 
L 202.586796 188.233188 
L 203.182846 189.320763 
L 213.315707 136.002762 
L 213.911757 133.929657 
L 215.699909 137.477564 
L 224.640668 154.626432 
L 225.236719 154.680332 
L 235.369579 159.620138 
L 235.965629 160.503253 
L 246.098489 171.773647 
L 246.69454 170.232377 
L 256.8274 129.839355 
L 257.423451 130.033083 
L 267.556311 176.833692 
L 268.152361 178.112615 
L 278.881272 155.684789 
L 289.610183 92.438788 
L 291.398335 102.432755 
L 300.339094 153.787984 
L 300.935144 152.598445 
L 311.068004 113.773054 
L 311.664055 112.281611 
L 321.796915 97.770646 
L 322.392966 98.496059 
L 332.525826 126.013879 
L 333.717927 128.158384 
L 343.254737 146.486464 
L 343.850787 147.317777 
L 354.579698 113.250261 
L 356.36785 125.263982 
L 365.308609 186.545967 
L 365.904659 183.436048 
L 376.037519 104.198797 
L 376.63357 102.766996 
L 386.76643 109.22998 
L 387.362481 109.369935 
L 397.495341 93.114284 
L 398.091391 93.160767 
L 408.820302 144.255036 
L 419.549213 140.728437 
L 421.933415 129.907443 
L 430.278124 92.631356 
L 430.874174 94.06788 
L 441.007034 131.226587 
L 441.603085 131.287832 
L 451.735945 115.103061 
L 452.331996 115.229564 
L 462.464856 133.010147 
L 463.060906 133.716375 
L 473.789817 128.567595 
L 484.518728 140.716358 
L 487.498981 146.465441 
L 495.247639 161.281243 
L 495.843689 160.751489 
L 516.70546 130.640091 
L 517.301511 129.141488 
L 527.434371 95.143419 
L 528.030421 95.90178 
L 538.163281 171.918522 
L 538.759332 174.440502 
L 549.488243 125.038169 
L 560.217154 102.78002 
L 560.813204 101.898444 
L 570.946064 90.532784 
L 571.542115 92.874605 
L 581.674975 146.294525 
L 582.271026 148.013111 
L 592.403886 156.120869 
L 592.999936 154.967853 
L 603.132796 106.415218 
L 603.728847 105.216734 
L 614.457758 154.576548 
L 618.630112 147.275028 
L 625.186668 135.678894 
L 625.782719 136.038502 
L 635.915579 145.761164 
L 636.51163 144.495902 
L 646.64449 133.190174 
L 647.240541 134.202501 
L 657.373401 135.861828 
L 657.969451 134.879686 
L 668.102311 104.094946 
L 668.698362 102.82052 
L 679.427273 123.374849 
L 679.427273 123.374849 
" clip-path="url(#p1f807130e8)" style="fill: none; stroke: #008000; stroke-width: 1.5; stroke-linecap: square"/>
   </g>
   <g id="patch_3">
    <path d="M 54.2 390.04 
L 54.2 25.44 
" style="fill: none; stroke: #000000; stroke-width: 0.8; stroke-linejoin: miter; stroke-linecap: square"/>
   </g>
   <g id="patch_4">
    <path d="M 709.2 390.04 
L 709.2 25.44 
" style="fill: none; stroke: #000000; stroke-width: 0.8; stroke-linejoin: miter; stroke-linecap: square"/>
   </g>
   <g id="patch_5">
    <path d="M 54.2 390.04 
L 709.2 390.04 
" style="fill: none; stroke: #000000; stroke-width: 0.8; stroke-linejoin: miter; stroke-linecap: square"/>
   </g>
   <g id="patch_6">
    <path d="M 54.2 25.44 
L 709.2 25.44 
" style="fill: none; stroke: #000000; stroke-width: 0.8; stroke-linejoin: miter; stroke-linecap: square"/>
   </g>
   <g id="text_18">
    <!-- Dqn Algorithms Comparison on BoxingNoFrameskip-v4 -->
    <g transform="translate(217.195938 19.44) scale(0.12 -0.12)">
     <defs>
      <path id="DejaVuSans-44" d="M 1259 4147 
L 1259 519 
L 2022 519 
Q 2988 519 3436 956 
Q 3884 1394 3884 2338 
Q 3884 3275 3436 3711 
Q 2988 4147 2022 4147 
L 1259 4147 
z
M 628 4666 
L 1925 4666 
Q 3281 4666 3915 4102 
Q 4550 3538 4550 2338 
Q 4550 1131 3912 565 
Q 3275 0 1925 0 
L 628 0 
L 628 4666 
z
" transform="scale(0.015625)"/>
      <path id="DejaVuSans-71" d="M 947 1747 
Q 947 1113 1208 752 
Q 1469 391 1925 391 
Q 2381 391 2643 752 
Q 2906 1113 2906 1747 
Q 2906 2381 2643 2742 
Q 2381 3103 1925 3103 
Q 1469 3103 1208 2742 
Q 947 2381 947 1747 
z
M 2906 525 
Q 2725 213 2448 61 
Q 2172 -91 1784 -91 
Q 1150 -91 751 415 
Q 353 922 353 1747 
Q 353 2572 751 3078 
Q 1150 3584 1784 3584 
Q 2172 3584 2448 3432 
Q 2725 3281 2906 2969 
L 2906 3500 
L 3481 3500 
L 3481 -1331 
L 2906 -1331 
L 2906 525 
z
" transform="scale(0.015625)"/>
      <path id="DejaVuSans-41" d="M 2188 4044 
L 1331 1722 
L 3047 1722 
L 2188 4044 
z
M 1831 4666 
L 2547 4666 
L 4325 0 
L 3669 0 
L 3244 1197 
L 1141 1197 
L 716 0 
L 50 0 
L 1831 4666 
z
" transform="scale(0.015625)"/>
      <path id="DejaVuSans-67" d="M 2906 1791 
Q 2906 2416 2648 2759 
Q 2391 3103 1925 3103 
Q 1463 3103 1205 2759 
Q 947 2416 947 1791 
Q 947 1169 1205 825 
Q 1463 481 1925 481 
Q 2391 481 2648 825 
Q 2906 1169 2906 1791 
z
M 3481 434 
Q 3481 -459 3084 -895 
Q 2688 -1331 1869 -1331 
Q 1566 -1331 1297 -1286 
Q 1028 -1241 775 -1147 
L 775 -588 
Q 1028 -725 1275 -790 
Q 1522 -856 1778 -856 
Q 2344 -856 2625 -561 
Q 2906 -266 2906 331 
L 2906 616 
Q 2728 306 2450 153 
Q 2172 0 1784 0 
Q 1141 0 747 490 
Q 353 981 353 1791 
Q 353 2603 747 3093 
Q 1141 3584 1784 3584 
Q 2172 3584 2450 3431 
Q 2728 3278 2906 2969 
L 2906 3500 
L 3481 3500 
L 3481 434 
z
" transform="scale(0.015625)"/>
      <path id="DejaVuSans-68" d="M 3513 2113 
L 3513 0 
L 2938 0 
L 2938 2094 
Q 2938 2591 2744 2837 
Q 2550 3084 2163 3084 
Q 1697 3084 1428 2787 
Q 1159 2491 1159 1978 
L 1159 0 
L 581 0 
L 581 4863 
L 1159 4863 
L 1159 2956 
Q 1366 3272 1645 3428 
Q 1925 3584 2291 3584 
Q 2894 3584 3203 3211 
Q 3513 2838 3513 2113 
z
" transform="scale(0.015625)"/>
      <path id="DejaVuSans-43" d="M 4122 4306 
L 4122 3641 
Q 3803 3938 3442 4084 
Q 3081 4231 2675 4231 
Q 1875 4231 1450 3742 
Q 1025 3253 1025 2328 
Q 1025 1406 1450 917 
Q 1875 428 2675 428 
Q 3081 428 3442 575 
Q 3803 722 4122 1019 
L 4122 359 
Q 3791 134 3420 21 
Q 3050 -91 2638 -91 
Q 1578 -91 968 557 
Q 359 1206 359 2328 
Q 359 3453 968 4101 
Q 1578 4750 2638 4750 
Q 3056 4750 3426 4639 
Q 3797 4528 4122 4306 
z
" transform="scale(0.015625)"/>
      <path id="DejaVuSans-42" d="M 1259 2228 
L 1259 519 
L 2272 519 
Q 2781 519 3026 730 
Q 3272 941 3272 1375 
Q 3272 1813 3026 2020 
Q 2781 2228 2272 2228 
L 1259 2228 
z
M 1259 4147 
L 1259 2741 
L 2194 2741 
Q 2656 2741 2882 2914 
Q 3109 3088 3109 3444 
Q 3109 3797 2882 3972 
Q 2656 4147 2194 4147 
L 1259 4147 
z
M 628 4666 
L 2241 4666 
Q 2963 4666 3353 4366 
Q 3744 4066 3744 3513 
Q 3744 3084 3544 2831 
Q 3344 2578 2956 2516 
Q 3422 2416 3680 2098 
Q 3938 1781 3938 1306 
Q 3938 681 3513 340 
Q 3088 0 2303 0 
L 628 0 
L 628 4666 
z
" transform="scale(0.015625)"/>
      <path id="DejaVuSans-46" d="M 628 4666 
L 3309 4666 
L 3309 4134 
L 1259 4134 
L 1259 2759 
L 3109 2759 
L 3109 2228 
L 1259 2228 
L 1259 0 
L 628 0 
L 628 4666 
z
" transform="scale(0.015625)"/>
      <path id="DejaVuSans-6b" d="M 581 4863 
L 1159 4863 
L 1159 1991 
L 2875 3500 
L 3609 3500 
L 1753 1863 
L 3688 0 
L 2938 0 
L 1159 1709 
L 1159 0 
L 581 0 
L 581 4863 
z
" transform="scale(0.015625)"/>
      <path id="DejaVuSans-2d" d="M 313 2009 
L 1997 2009 
L 1997 1497 
L 313 1497 
L 313 2009 
z
" transform="scale(0.015625)"/>
      <path id="DejaVuSans-76" d="M 191 3500 
L 800 3500 
L 1894 563 
L 2988 3500 
L 3597 3500 
L 2284 0 
L 1503 0 
L 191 3500 
z
" transform="scale(0.015625)"/>
     </defs>
     <use xlink:href="#DejaVuSans-44"/>
     <use xlink:href="#DejaVuSans-71" transform="translate(77.001953 0)"/>
     <use xlink:href="#DejaVuSans-6e" transform="translate(140.478516 0)"/>
     <use xlink:href="#DejaVuSans-20" transform="translate(203.857422 0)"/>
     <use xlink:href="#DejaVuSans-41" transform="translate(235.644531 0)"/>
     <use xlink:href="#DejaVuSans-6c" transform="translate(304.052734 0)"/>
     <use xlink:href="#DejaVuSans-67" transform="translate(331.835938 0)"/>
     <use xlink:href="#DejaVuSans-6f" transform="translate(395.3125 0)"/>
     <use xlink:href="#DejaVuSans-72" transform="translate(456.494141 0)"/>
     <use xlink:href="#DejaVuSans-69" transform="translate(497.607422 0)"/>
     <use xlink:href="#DejaVuSans-74" transform="translate(525.390625 0)"/>
     <use xlink:href="#DejaVuSans-68" transform="translate(564.599609 0)"/>
     <use xlink:href="#DejaVuSans-6d" transform="translate(627.978516 0)"/>
     <use xlink:href="#DejaVuSans-73" transform="translate(725.390625 0)"/>
     <use xlink:href="#DejaVuSans-20" transform="translate(777.490234 0)"/>
     <use xlink:href="#DejaVuSans-43" transform="translate(809.277344 0)"/>
     <use xlink:href="#DejaVuSans-6f" transform="translate(879.101562 0)"/>
     <use xlink:href="#DejaVuSans-6d" transform="translate(940.283203 0)"/>
     <use xlink:href="#DejaVuSans-70" transform="translate(1037.695312 0)"/>
     <use xlink:href="#DejaVuSans-61" transform="translate(1101.171875 0)"/>
     <use xlink:href="#DejaVuSans-72" transform="translate(1162.451172 0)"/>
     <use xlink:href="#DejaVuSans-69" transform="translate(1203.564453 0)"/>
     <use xlink:href="#DejaVuSans-73" transform="translate(1231.347656 0)"/>
     <use xlink:href="#DejaVuSans-6f" transform="translate(1283.447266 0)"/>
     <use xlink:href="#DejaVuSans-6e" transform="translate(1344.628906 0)"/>
     <use xlink:href="#DejaVuSans-20" transform="translate(1408.007812 0)"/>
     <use xlink:href="#DejaVuSans-6f" transform="translate(1439.794922 0)"/>
     <use xlink:href="#DejaVuSans-6e" transform="translate(1500.976562 0)"/>
     <use xlink:href="#DejaVuSans-20" transform="translate(1564.355469 0)"/>
     <use xlink:href="#DejaVuSans-42" transform="translate(1596.142578 0)"/>
     <use xlink:href="#DejaVuSans-6f" transform="translate(1664.746094 0)"/>
     <use xlink:href="#DejaVuSans-78" transform="translate(1722.802734 0)"/>
     <use xlink:href="#DejaVuSans-69" transform="translate(1781.982422 0)"/>
     <use xlink:href="#DejaVuSans-6e" transform="translate(1809.765625 0)"/>
     <use xlink:href="#DejaVuSans-67" transform="translate(1873.144531 0)"/>
     <use xlink:href="#DejaVuSans-4e" transform="translate(1936.621094 0)"/>
     <use xlink:href="#DejaVuSans-6f" transform="translate(2011.425781 0)"/>
     <use xlink:href="#DejaVuSans-46" transform="translate(2072.607422 0)"/>
     <use xlink:href="#DejaVuSans-72" transform="translate(2122.876953 0)"/>
     <use xlink:href="#DejaVuSans-61" transform="translate(2163.990234 0)"/>
     <use xlink:href="#DejaVuSans-6d" transform="translate(2225.269531 0)"/>
     <use xlink:href="#DejaVuSans-65" transform="translate(2322.681641 0)"/>
     <use xlink:href="#DejaVuSans-73" transform="translate(2384.205078 0)"/>
     <use xlink:href="#DejaVuSans-6b" transform="translate(2436.304688 0)"/>
     <use xlink:href="#DejaVuSans-69" transform="translate(2494.214844 0)"/>
     <use xlink:href="#DejaVuSans-70" transform="translate(2521.998047 0)"/>
     <use xlink:href="#DejaVuSans-2d" transform="translate(2585.474609 0)"/>
     <use xlink:href="#DejaVuSans-76" transform="translate(2618.933594 0)"/>
     <use xlink:href="#DejaVuSans-34" transform="translate(2678.113281 0)"/>
    </g>
   </g>
   <g id="legend_1">
    <g id="patch_7">
     <path d="M 581.01875 253.969687 
L 702.2 253.969687 
Q 704.2 253.969687 704.2 251.969687 
L 704.2 163.510312 
Q 704.2 161.510312 702.2 161.510312 
L 581.01875 161.510312 
Q 579.01875 161.510312 579.01875 163.510312 
L 579.01875 251.969687 
Q 579.01875 253.969687 581.01875 253.969687 
z
" style="fill: #ffffff; opacity: 0.8; stroke: #cccccc; stroke-linejoin: miter"/>
    </g>
    <g id="text_19">
     <!-- Algorithm -->
     <g transform="translate(617.122656 173.10875) scale(0.1 -0.1)">
      <use xlink:href="#DejaVuSans-41"/>
      <use xlink:href="#DejaVuSans-6c" transform="translate(68.408203 0)"/>
      <use xlink:href="#DejaVuSans-67" transform="translate(96.191406 0)"/>
      <use xlink:href="#DejaVuSans-6f" transform="translate(159.667969 0)"/>
      <use xlink:href="#DejaVuSans-72" transform="translate(220.849609 0)"/>
      <use xlink:href="#DejaVuSans-69" transform="translate(261.962891 0)"/>
      <use xlink:href="#DejaVuSans-74" transform="translate(289.746094 0)"/>
      <use xlink:href="#DejaVuSans-68" transform="translate(328.955078 0)"/>
      <use xlink:href="#DejaVuSans-6d" transform="translate(392.333984 0)"/>
     </g>
    </g>
    <g id="line2d_21">
     <path d="M 583.01875 184.286875 
L 593.01875 184.286875 
L 603.01875 184.286875 
" style="fill: none; stroke: #ff00ff; stroke-width: 1.5; stroke-linecap: square"/>
    </g>
    <g id="text_20">
     <!-- c51_atari -->
     <g transform="translate(611.01875 187.786875) scale(0.1 -0.1)">
      <defs>
       <path id="DejaVuSans-5f" d="M 3263 -1063 
L 3263 -1509 
L -63 -1509 
L -63 -1063 
L 3263 -1063 
z
" transform="scale(0.015625)"/>
      </defs>
      <use xlink:href="#DejaVuSans-63"/>
      <use xlink:href="#DejaVuSans-35" transform="translate(54.980469 0)"/>
      <use xlink:href="#DejaVuSans-31" transform="translate(118.603516 0)"/>
      <use xlink:href="#DejaVuSans-5f" transform="translate(182.226562 0)"/>
      <use xlink:href="#DejaVuSans-61" transform="translate(232.226562 0)"/>
      <use xlink:href="#DejaVuSans-74" transform="translate(293.505859 0)"/>
      <use xlink:href="#DejaVuSans-61" transform="translate(332.714844 0)"/>
      <use xlink:href="#DejaVuSans-72" transform="translate(393.994141 0)"/>
      <use xlink:href="#DejaVuSans-69" transform="translate(435.107422 0)"/>
     </g>
    </g>
    <g id="line2d_22">
     <path d="M 583.01875 199.243125 
L 593.01875 199.243125 
L 603.01875 199.243125 
" style="fill: none; stroke: #ff0000; stroke-width: 1.5; stroke-linecap: square"/>
    </g>
    <g id="text_21">
     <!-- ddqn_atari -->
     <g transform="translate(611.01875 202.743125) scale(0.1 -0.1)">
      <use xlink:href="#DejaVuSans-64"/>
      <use xlink:href="#DejaVuSans-64" transform="translate(63.476562 0)"/>
      <use xlink:href="#DejaVuSans-71" transform="translate(126.953125 0)"/>
      <use xlink:href="#DejaVuSans-6e" transform="translate(190.429688 0)"/>
      <use xlink:href="#DejaVuSans-5f" transform="translate(253.808594 0)"/>
      <use xlink:href="#DejaVuSans-61" transform="translate(303.808594 0)"/>
      <use xlink:href="#DejaVuSans-74" transform="translate(365.087891 0)"/>
      <use xlink:href="#DejaVuSans-61" transform="translate(404.296875 0)"/>
      <use xlink:href="#DejaVuSans-72" transform="translate(465.576172 0)"/>
      <use xlink:href="#DejaVuSans-69" transform="translate(506.689453 0)"/>
     </g>
    </g>
    <g id="line2d_23">
     <path d="M 583.01875 214.199375 
L 593.01875 214.199375 
L 603.01875 214.199375 
" style="fill: none; stroke: #daa520; stroke-width: 1.5; stroke-linecap: square"/>
    </g>
    <g id="text_22">
     <!-- dqn_atari -->
     <g transform="translate(611.01875 217.699375) scale(0.1 -0.1)">
      <use xlink:href="#DejaVuSans-64"/>
      <use xlink:href="#DejaVuSans-71" transform="translate(63.476562 0)"/>
      <use xlink:href="#DejaVuSans-6e" transform="translate(126.953125 0)"/>
      <use xlink:href="#DejaVuSans-5f" transform="translate(190.332031 0)"/>
      <use xlink:href="#DejaVuSans-61" transform="translate(240.332031 0)"/>
      <use xlink:href="#DejaVuSans-74" transform="translate(301.611328 0)"/>
      <use xlink:href="#DejaVuSans-61" transform="translate(340.820312 0)"/>
      <use xlink:href="#DejaVuSans-72" transform="translate(402.099609 0)"/>
      <use xlink:href="#DejaVuSans-69" transform="translate(443.212891 0)"/>
     </g>
    </g>
    <g id="line2d_24">
     <path d="M 583.01875 229.155625 
L 593.01875 229.155625 
L 603.01875 229.155625 
" style="fill: none; stroke: #0000ff; stroke-width: 1.5; stroke-linecap: square"/>
    </g>
    <g id="text_23">
     <!-- dueling_dqn_atari -->
     <g transform="translate(611.01875 232.655625) scale(0.1 -0.1)">
      <use xlink:href="#DejaVuSans-64"/>
      <use xlink:href="#DejaVuSans-75" transform="translate(63.476562 0)"/>
      <use xlink:href="#DejaVuSans-65" transform="translate(126.855469 0)"/>
      <use xlink:href="#DejaVuSans-6c" transform="translate(188.378906 0)"/>
      <use xlink:href="#DejaVuSans-69" transform="translate(216.162109 0)"/>
      <use xlink:href="#DejaVuSans-6e" transform="translate(243.945312 0)"/>
      <use xlink:href="#DejaVuSans-67" transform="translate(307.324219 0)"/>
      <use xlink:href="#DejaVuSans-5f" transform="translate(370.800781 0)"/>
      <use xlink:href="#DejaVuSans-64" transform="translate(420.800781 0)"/>
      <use xlink:href="#DejaVuSans-71" transform="translate(484.277344 0)"/>
      <use xlink:href="#DejaVuSans-6e" transform="translate(547.753906 0)"/>
      <use xlink:href="#DejaVuSans-5f" transform="translate(611.132812 0)"/>
      <use xlink:href="#DejaVuSans-61" transform="translate(661.132812 0)"/>
      <use xlink:href="#DejaVuSans-74" transform="translate(722.412109 0)"/>
      <use xlink:href="#DejaVuSans-61" transform="translate(761.621094 0)"/>
      <use xlink:href="#DejaVuSans-72" transform="translate(822.900391 0)"/>
      <use xlink:href="#DejaVuSans-69" transform="translate(864.013672 0)"/>
     </g>
    </g>
    <g id="line2d_25">
     <path d="M 583.01875 244.111875 
L 593.01875 244.111875 
L 603.01875 244.111875 
" style="fill: none; stroke: #008000; stroke-width: 1.5; stroke-linecap: square"/>
    </g>
    <g id="text_24">
     <!-- per_atari -->
     <g transform="translate(611.01875 247.611875) scale(0.1 -0.1)">
      <use xlink:href="#DejaVuSans-70"/>
      <use xlink:href="#DejaVuSans-65" transform="translate(63.476562 0)"/>
      <use xlink:href="#DejaVuSans-72" transform="translate(125 0)"/>
      <use xlink:href="#DejaVuSans-5f" transform="translate(166.113281 0)"/>
      <use xlink:href="#DejaVuSans-61" transform="translate(216.113281 0)"/>
      <use xlink:href="#DejaVuSans-74" transform="translate(277.392578 0)"/>
      <use xlink:href="#DejaVuSans-61" transform="translate(316.601562 0)"/>
      <use xlink:href="#DejaVuSans-72" transform="translate(377.880859 0)"/>
      <use xlink:href="#DejaVuSans-69" transform="translate(418.994141 0)"/>
     </g>
    </g>
   </g>
  </g>
 </g>
 <defs>
  <clipPath id="p1f807130e8">
   <rect x="54.2" y="25.44" width="655" height="364.6"/>
  </clipPath>
 </defs>
</svg>
