<svg viewBox="0 0 330 200" xmlns="http://www.w3.org/2000/svg"><g><g><g><g><g><line x1="30" y1="177" x2="25" y2="177" style="visibility: inherit;" fill="rgb(0, 0, 0)" stroke="rgb(204, 204, 204)" stroke-width="1px"></line><line x1="30" y1="157.33333333333331" x2="25" y2="157.33333333333331" style="visibility: inherit;" fill="rgb(0, 0, 0)" stroke="rgb(204, 204, 204)" stroke-width="1px"></line><line x1="30" y1="137.66666666666666" x2="25" y2="137.66666666666666" style="visibility: inherit;" fill="rgb(0, 0, 0)" stroke="rgb(204, 204, 204)" stroke-width="1px"></line><line x1="30" y1="118.00000000000001" x2="25" y2="118.00000000000001" style="visibility: inherit;" fill="rgb(0, 0, 0)" stroke="rgb(204, 204, 204)" stroke-width="1px"></line><line x1="30" y1="98.33333333333334" x2="25" y2="98.33333333333334" style="visibility: inherit;" fill="rgb(0, 0, 0)" stroke="rgb(204, 204, 204)" stroke-width="1px"></line><line x1="30" y1="78.66666666666666" x2="25" y2="78.66666666666666" style="visibility: inherit;" fill="rgb(0, 0, 0)" stroke="rgb(204, 204, 204)" stroke-width="1px"></line><line x1="30" y1="59.00000000000001" x2="25" y2="59.00000000000001" style="visibility: inherit;" fill="rgb(0, 0, 0)" stroke="rgb(204, 204, 204)" stroke-width="1px"></line><line x1="30" y1="39.33333333333333" x2="25" y2="39.33333333333333" style="visibility: inherit;" fill="rgb(0, 0, 0)" stroke="rgb(204, 204, 204)" stroke-width="1px"></line><line x1="30" y1="19.666666666666675" x2="25" y2="19.666666666666675" style="visibility: inherit;" fill="rgb(0, 0, 0)" stroke="rgb(204, 204, 204)" stroke-width="1px"></line><line x1="30" y1="0" x2="25" y2="0" style="visibility: inherit;" fill="rgb(0, 0, 0)" stroke="rgb(204, 204, 204)" stroke-width="1px"></line></g><g transform="translate(20, 0)"><text x="0" y="177" dx="0em" dy="0.3em" style="text-anchor: end; visibility: hidden; font-family: Roboto, sans-serif; font-size: 12px; font-weight: 200;" fill="rgb(33, 33, 33)" stroke="none" stroke-width="1px">-1</text><text x="0" y="157.33333333333331" dx="0em" dy="0.3em" style="text-anchor: end; visibility: inherit; font-family: Roboto, sans-serif; font-size: 12px; font-weight: 200;" fill="rgb(33, 33, 33)" stroke="none" stroke-width="1px">0</text><text x="0" y="137.66666666666666" dx="0em" dy="0.3em" style="text-anchor: end; visibility: hidden; font-family: Roboto, sans-serif; font-size: 12px; font-weight: 200;" fill="rgb(33, 33, 33)" stroke="none" stroke-width="1px">1</text><text x="0" y="118.00000000000001" dx="0em" dy="0.3em" style="text-anchor: end; visibility: inherit; font-family: Roboto, sans-serif; font-size: 12px; font-weight: 200;" fill="rgb(33, 33, 33)" stroke="none" stroke-width="1px">2</text><text x="0" y="98.33333333333334" dx="0em" dy="0.3em" style="text-anchor: end; visibility: hidden; font-family: Roboto, sans-serif; font-size: 12px; font-weight: 200;" fill="rgb(33, 33, 33)" stroke="none" stroke-width="1px">3</text><text x="0" y="78.66666666666666" dx="0em" dy="0.3em" style="text-anchor: end; visibility: inherit; font-family: Roboto, sans-serif; font-size: 12px; font-weight: 200;" fill="rgb(33, 33, 33)" stroke="none" stroke-width="1px">4</text><text x="0" y="59.00000000000001" dx="0em" dy="0.3em" style="text-anchor: end; visibility: hidden; font-family: Roboto, sans-serif; font-size: 12px; font-weight: 200;" fill="rgb(33, 33, 33)" stroke="none" stroke-width="1px">5</text><text x="0" y="39.33333333333333" dx="0em" dy="0.3em" style="text-anchor: end; visibility: inherit; font-family: Roboto, sans-serif; font-size: 12px; font-weight: 200;" fill="rgb(33, 33, 33)" stroke="none" stroke-width="1px">6</text><text x="0" y="19.666666666666675" dx="0em" dy="0.3em" style="text-anchor: end; visibility: hidden; font-family: Roboto, sans-serif; font-size: 12px; font-weight: 200;" fill="rgb(33, 33, 33)" stroke="none" stroke-width="1px">7</text><text x="0" y="0" dx="0em" dy="0.3em" style="text-anchor: end; visibility: hidden; font-family: Roboto, sans-serif; font-size: 12px; font-weight: 200;" fill="rgb(33, 33, 33)" stroke="none" stroke-width="1px">8</text></g><line x1="30" y1="0" x2="30" y2="177" fill="rgb(0, 0, 0)" stroke="rgb(204, 204, 204)" stroke-width="1px"></line></g></g><g transform="translate(30, 0)" clip-path="url(#clip_0)"><clipPath id="clip_0"><rect width="300" height="177"></rect></clipPath><g><g><g><line x1="0" y1="0" x2="0" y2="177" fill="rgb(0, 0, 0)" stroke="rgb(66, 66, 66)" stroke-width="1px" opacity="0.25"></line><line x1="25" y1="0" x2="25" y2="177" fill="rgb(0, 0, 0)" stroke="rgb(66, 66, 66)" stroke-width="1px" opacity="0.25"></line><line x1="50" y1="0" x2="50" y2="177" fill="rgb(0, 0, 0)" stroke="rgb(66, 66, 66)" stroke-width="1px" opacity="0.25"></line><line x1="75" y1="0" x2="75" y2="177" fill="rgb(0, 0, 0)" stroke="rgb(66, 66, 66)" stroke-width="1px" opacity="0.25"></line><line x1="100" y1="0" x2="100" y2="177" fill="rgb(0, 0, 0)" stroke="rgb(66, 66, 66)" stroke-width="1px" opacity="0.25"></line><line x1="125" y1="0" x2="125" y2="177" fill="rgb(0, 0, 0)" stroke="rgb(66, 66, 66)" stroke-width="1px" opacity="0.25"></line><line x1="150" y1="0" x2="150" y2="177" fill="rgb(0, 0, 0)" stroke="rgb(66, 66, 66)" stroke-width="1px" opacity="0.25"></line><line x1="175" y1="0" x2="175" y2="177" fill="rgb(0, 0, 0)" stroke="rgb(66, 66, 66)" stroke-width="1px" opacity="0.25"></line><line x1="200" y1="0" x2="200" y2="177" fill="rgb(0, 0, 0)" stroke="rgb(66, 66, 66)" stroke-width="1px" opacity="0.25"></line><line x1="225" y1="0" x2="225" y2="177" fill="rgb(0, 0, 0)" stroke="rgb(66, 66, 66)" stroke-width="1px" opacity="0.25"></line><line x1="250" y1="0" x2="250" y2="177" fill="rgb(0, 0, 0)" stroke="rgb(66, 66, 66)" stroke-width="1px" opacity="0.25"></line><line x1="275" y1="0" x2="275" y2="177" fill="rgb(0, 0, 0)" stroke="rgb(66, 66, 66)" stroke-width="1px" opacity="0.25"></line><line x1="300" y1="0" x2="300" y2="177" fill="rgb(0, 0, 0)" stroke="rgb(66, 66, 66)" stroke-width="1px" opacity="0.25"></line></g><g><line x1="0" y1="177" x2="300" y2="177" fill="rgb(0, 0, 0)" stroke="rgb(66, 66, 66)" stroke-width="1px" opacity="0.25"></line><line x1="0" y1="157.33333333333331" x2="300" y2="157.33333333333331" fill="rgb(0, 0, 0)" stroke="rgb(66, 66, 66)" stroke-width="1px" opacity="0.25"></line><line x1="0" y1="137.66666666666666" x2="300" y2="137.66666666666666" fill="rgb(0, 0, 0)" stroke="rgb(66, 66, 66)" stroke-width="1px" opacity="0.25"></line><line x1="0" y1="118.00000000000001" x2="300" y2="118.00000000000001" fill="rgb(0, 0, 0)" stroke="rgb(66, 66, 66)" stroke-width="1px" opacity="0.25"></line><line x1="0" y1="98.33333333333334" x2="300" y2="98.33333333333334" fill="rgb(0, 0, 0)" stroke="rgb(66, 66, 66)" stroke-width="1px" opacity="0.25"></line><line x1="0" y1="78.66666666666666" x2="300" y2="78.66666666666666" fill="rgb(0, 0, 0)" stroke="rgb(66, 66, 66)" stroke-width="1px" opacity="0.25"></line><line x1="0" y1="59.00000000000001" x2="300" y2="59.00000000000001" fill="rgb(0, 0, 0)" stroke="rgb(66, 66, 66)" stroke-width="1px" opacity="0.25"></line><line x1="0" y1="39.33333333333333" x2="300" y2="39.33333333333333" fill="rgb(0, 0, 0)" stroke="rgb(66, 66, 66)" stroke-width="1px" opacity="0.25"></line><line x1="0" y1="19.666666666666675" x2="300" y2="19.666666666666675" fill="rgb(0, 0, 0)" stroke="rgb(66, 66, 66)" stroke-width="1px" opacity="0.25"></line><line x1="0" y1="0" x2="300" y2="0" fill="rgb(0, 0, 0)" stroke="rgb(66, 66, 66)" stroke-width="1px" opacity="0.25"></line></g></g></g><g><g><line x1="0" y1="157.33333333333331" x2="300" y2="157.33333333333331" fill="rgb(0, 0, 0)" stroke="rgb(153, 153, 153)" stroke-width="1.5px"></line></g></g><g><g><line x1="25" y1="0" x2="25" y2="177" fill="rgb(0, 0, 0)" stroke="rgb(153, 153, 153)" stroke-width="1.5px"></line></g></g><g><g><g><g><g><path stroke="rgb(0, 119, 187)" stroke-width="2px" d="M25.347500000000004,137.66666666666666L25.82,125.37499999999999L26.1075,141.68027210884352L26.5,139.8357843137255L26.7825,147.42493638676845L27.065,151.58225921947727L27.4175,145.85571562766117L27.775000000000002,142.52413833805477L28.294999999999998,132.61461786803017L29.07,87.16059428851808L29.545,99.54127331212129L29.8325,122.70852739005657L30.185,128.69960786759486L30.7,116.54357207805657L31.4125,101.38568290161197L31.815,115.90217166866208L32.1025,132.4774419740872L32.449999999999996,134.5533426795047L32.7325,143.66589422324012L33.085,141.26611546089697L33.6775,124.09262587587817L33.955,137.38908386910586L34.32,137.5001178649992L34.6725,137.56673770133636L35.14,129.74002036921902L35.4175,140.7773643825569L35.9525,123.79973458642688L36.502500000000005,113.61316782967769L36.9325,115.36790134434965L37.285,124.28740944514706L37.6825,129.63911304362816L38.3325,117.11680016290177L38.620000000000005,133.20341419924185L39.205000000000005,119.25538145325086L39.4875,134.48656246711863L39.775,143.62527090786503L40.165,141.2418291966354L40.5125,139.8117641793378L40.915,138.9537251723577L41.260000000000005,138.4389017693931L41.54750000000001,145.9966744010309L42.0075,134.7980046352294L42.47,128.07880277919756L42.8225,131.9139483348496L43.18,134.21503566781564L43.7725,119.86235473312756L44.24,119.11741283984867L44.88,110.80378103705588L45.1575,129.41560195581758L45.55,132.7160278401839L45.8275,142.56295003749142L46.105000000000004,148.47110335584537L46.63,136.28266201348595L47.3425,113.23626387473408L47.63,130.87509165818489L48.095,125.72505499490899L48.3775,138.3683663302816L49.2725,106.62101979816462L49.86750000000001,103.30594521223183L50.154999999999994,124.91690046067349L50.614999999999995,122.15014027640402L50.902499999999996,136.223417499176L51.19,144.66738383283902L51.535000000000004,141.86709696637004L51.8225,148.0535915131554L52.254999999999995,136.0321549078932L52.714999999999996,128.8192929447359L52.9975,140.2249091001749L53.285000000000004,147.06827879343828L53.572500000000005,151.17430060939628L53.93,145.77124703230444L54.2125,150.396081552716L54.6825,137.43764893162958L54.97,145.3959226923111L55.2425,150.17088694871998L55.525,153.03586550256531L55.9225,146.88818596820585L56.39,135.33291158092354L56.8575,128.3997469485541L57.145,139.9731815024658L57.432500000000005,146.91724223481282L57.72,151.08367867422103L58.0025,153.58354053786596L58.285000000000004,155.0834576560529L58.925,132.38340792696508L59.3275,134.49671142284572L59.615,143.63136018704074L59.8925,149.11214944555778L60.3525,136.66728966733467L60.739999999999995,137.06704046706747L61.027499999999996,145.17355761357382L61.31,150.0374679014776L61.705,145.08914740755324L61.9825,149.9868217778653L62.27,152.9254264000525L62.7325,138.9552558400315L63.375,114.83982017068556L63.6575,131.83722543574467L63.945,142.03566859478013L64.2325,148.1547344902014L64.52,151.8261740274542L65.1525,122.56237108313915L65.44,136.47075598321683L65.72749999999999,144.81578692326343L66.015,149.8228054872914L66.3675,144.9603499590415L66.655,149.90954330875826L67.19500000000001,129.27905931858828L67.8275,109.03410225781964L68.115,128.35379468802512L68.4025,139.9456101461484L68.685,146.90069942102238L68.9675,151.07375298594675L69.435,137.84425179156804L69.7225,145.63988440827416L70.0675,142.45059731163118L70.47,140.53702505364538L70.7525,147.25554836552055L71.04,151.28666235264566L71.3275,153.70533074492073L71.615,155.15653178028577L72.0475,140.29391906817148L72.5175,131.37635144090288L72.87,133.89247753120839L73.34,127.53548651872504L73.6925,131.5879585779017L73.975,141.88610848007434L74.2625,148.06499842137794L74.545,151.77233238616012L74.8325,153.9967327650294L75.4425,123.8647063256843L75.87,121.5188237954106L76.25999999999999,127.977960943913L76.54249999999999,139.72010989968115L77.08250000000001,123.16539927314203L77.515,121.0992395638852L77.9125,127.72621040499777L78.2,139.56905957633202L78.5575,138.80810241246587L79.0275,130.48486144747955L79.6725,109.75758353515438L80.21499999999999,105.18788345442596L80.6425,110.31273007265557L81.03,121.25430471026002L81.3825,127.81924949282266L81.96,116.02488302902694L82.30499999999999,124.68159648408282L82.5925,137.742291223783L82.875,145.57870806760315L83.1525,150.28055817389523L83.6625,129.50166823767046L83.95,140.6343342759356L84.34,139.44726723222803L84.62750000000001,146.60169367267017L85.0975,135.1610162036021L85.455,136.16327638882794L85.7375,144.6312991666301L86.08999999999999,141.8454461666447L86.5175,132.30726769998685L86.795,142.31769395332543L87.0825,148.3239497053286L87.37,151.9277031565305L87.6525,154.08995522725164L87.94000000000001,155.3873064696843L88.2975,148.29905054847725L88.9175,120.44609699575302L89.205,135.20099153078513L89.4925,144.05392825180442L89.78,149.365690284416L90.49749999999999,121.08608083731626L91.21249999999999,104.11831516905642L91.56500000000001,117.5376557681005L91.85249999999999,133.45592679419366L92.14,143.00688940984952L92.60749999999999,133.0041336459097L93.19749999999999,119.13581352087914L93.555,126.54815477919416L93.9525,130.99555953418314L94.6675,110.06400238717656L94.95,128.97173476563927L95.2375,140.3163741927169L96.1575,99.92315784896347L96.44,122.8872280427114L97.025,113.06567015896019L97.31250000000001,130.77273542870944L98.1575,102.06364125722565L98.6825,108.4381847543354L99.4475,88.66291085260123L99.73500000000001,116.13107984489407L100.1625,116.87864790693645L100.875,101.59385541082852L101.38499999999999,100.28964657983046L101.97999999999999,99.50712128123162L102.63250000000001,99.03760610207229L103.1575,106.62256366124338L103.8625,95.4402048634127L104.3725,96.59745625138096L104.66,120.89180708416191L105.13499999999999,119.73508425049715L105.90249999999999,103.30771721696496L106.185,124.91796366351232L106.4725,137.8841115314407L106.755,145.66380025219777L107.67,103.13161348465196L107.9575,124.81230142412451L108.4325,122.0873808544747L109.21249999999999,96.85242851268485L109.68499999999999,105.3114571076109L110.27,102.52020759789987L110.5525,124.44545789207325L111.0875,114.00060806857728L111.37,131.33369817447968L111.96,118.13355223802115L112.24749999999999,133.81346467614603L112.535,143.22141213902094L113.32749999999999,109.53284728341256L113.615,128.6530417033809L114.25750000000001,108.6584916886952L114.7175,112.39509501321713L115.075,122.50372367459696L115.6575,112.8355675380915L115.94500000000001,130.63467385618824L116.2325,141.3141376470463L116.52000000000001,147.7218159215611L116.9225,143.69975621960333L117.38749999999999,133.419853731762L117.7825,135.11857890572387L118.06,144.00448067676766L118.4575,141.46935507272727L118.74499999999999,147.8149463769697L119.0175,151.62230115951516L119.4825,138.17338069570908L119.84,137.9706950840921L120.12249999999999,145.71575038378862L120.41,150.36278356360648L120.69749999999999,153.15100347149723L121.1275,139.09060208289836L121.58749999999999,130.654361249739L121.87,141.32595008317674L122.30250000000001,131.99557004990604L122.59,142.13067536327696L122.8725,148.2117385512995L123.15499999999999,151.86037646411305L123.5425,146.18289254513448L123.825,150.64306886041402L124.25750000000001,137.58584131624843L124.545,145.4848381230824L125.13000000000001,126.62423620718275L125.41749999999999,138.907875057643L125.705,146.27805836791913L126.295,127.10016835408481L126.5825,139.19343434578423L126.865,146.44939394080387L127.70500000000001,111.46963636448234L128.17000000000002,114.0817818186894L128.4575,131.38240242454697L128.745,141.7627747880615L129.1025,140.12433153950357L129.6975,123.40793225703547L130.2075,113.37809268755461L130.48,130.9601889458661L130.76250000000002,141.50944670085298L131.05,147.83900135384513L131.4475,143.77006747897374L131.73499999999999,149.19537382071758L132.195,136.71722429243056L132.4825,144.96366790879165L132.82999999999998,142.04486741194165L133.11249999999998,148.16025378049835L133.515,143.96281893496567L133.8675,141.44435802764605L134.155,147.79994814992097L134.4375,151.6133022232859L134.9625,138.16798133397154L135.25,145.83412213371628L135.5375,150.4338066135631L135.89000000000001,145.32695063480452L136.1775,150.12950371421604L136.465,153.01103556186297L136.7525,154.7399546704511L137.04,155.777306135604L137.56,140.6663836813624L138.10999999999999,123.73316354215078L138.5425,121.43989812529047L139.1375,112.1972722085076L139.6875,106.65169665843791L140.3325,103.32435132839608L140.875,101.32794413037098L141.1625,123.73009981155593L141.695,121.43805988693354L142.135,120.06283593216013L142.4225,134.9710348926294L142.775,136.04928760224433L143.1325,136.69623922801324L143.53,137.08441020347462L143.8075,145.1839794554181L144.095,150.0437210065842L144.4475,145.09289927061718L144.8575,142.12240622903698L145.2525,140.34011040408885L145.96,115.67073290911996L146.6125,100.86910641213865L146.97,115.58813051394985L147.2575,132.28621164170326L147.6025,134.4383936516886L147.95499999999998,135.72970285767983L148.23749999999998,144.37115504794124L148.6475,141.68935969543142L149.04,140.08028248392552L149.58249999999998,123.38150282368865L149.9775,129.09556836087984L150.255,140.39067434986123L150.5325,147.16773794325007L151.0375,127.63397609928339L151.325,139.51371899290336L151.7225,138.77489806240868L152.3175,122.59827217077856L152.8425,120.75896330246712L153.125,135.3887113148136L153.51000000000002,136.29989345555484L153.7875,144.71326940666623L154.19,141.8946283106664L154.4775,148.07011031973317L154.88,143.90873285850657L155.2375,141.41190638177062L155.82750000000001,124.18047716239569L156.17999999999998,129.57495296410409L156.4675,140.67830511179577L156.8175,139.47364973374414L157.1,146.61752317357983L157.3875,150.90384723748122L157.8925,129.87564167582207L158.36249999999998,125.12538500549323L158.65,138.00856433662926L158.9375,145.7384719353109L159.29500000000002,142.5097498278532L159.64749999999998,140.5725165633786L160.32750000000001,115.81017660469382L160.615,132.41943929614962L160.8975,142.3849969110231L161.3075,140.49766481328052L161.58999999999997,147.23193222130166L162.515,80.47249266611433L162.99,95.48349559966859L163.27749999999997,120.22343069313449L163.565,135.06739174921404L163.8525,143.97376838286175L164.21,141.45092769638373L164.49249999999998,147.80388995116357L164.89,143.7490006373648L165.1775,149.18273371575222L165.82250000000002,128.84297356278466L166.3325,116.63911747100411L167.115,93.58347048260248L167.4025,119.08341562289483L167.76000000000002,126.51671604040357L168.16,130.9766962909088L168.4475,141.5193511078786L169.17499999999998,116.37827733139385L169.76999999999998,109.16029973216962L170.245,112.69617983930176L170.52749999999997,130.5510412369144L170.81,141.26395807548198L171.0975,147.69170817862252L171.38500000000002,151.54835824050684L171.78750000000002,145.99568161097076L172.4275,126.9307422999158L173.07250000000002,115.4917787132828L173.35,132.228400561303L174.0675,110.80370700344848L174.5925,113.68222420206908L174.95000000000002,123.27600118790812L175.2375,136.8989340460782L175.51999999999998,145.07269376098026L176.23749999999998,118.51028292325482L176.525,134.03950308728622L177.2425,111.8903685190384L177.53,130.06755444475638L178,125.24053266685381L178.2875,138.07765293344562L178.685,137.91325842673405L179.28,122.08128838937375L179.755,120.44877303362425L180.1125,127.3359304868412L180.4,139.33489162543805L181.23999999999998,107.20093497526284L181.5275,127.25389431849104L182.05249999999998,123.55233659109462L182.335,137.06473528799012L182.61249999999998,145.17217450612742L183.01999999999998,142.1699713703431L183.3025,148.2353161555392L183.66,144.00785635999017L184.2525,125.73804714932743L184.68,122.64282828959647L184.9625,136.5190303070912L185.25000000000003,144.84475151758807L185.7675,134.10685091055282L186.17000000000002,135.53077721299837L187.005,104.91846632779904L187.29250000000002,125.88441313001273L187.64499999999998,130.59731454467433L188.10750000000002,125.5583887268046L188.6975,114.6683665694161L188.98,131.734353274983L189.2625,141.97394529832312L189.54500000000002,148.11770051232722L190.01999999999998,136.07062030739633L190.3025,144.57570551777113L190.73000000000002,133.94542331066268L191.01749999999998,143.30058731973094L191.375,141.04701905850524L191.9675,123.96154476843647L192.245,137.3102601943952L192.75,121.71948944997047L193.29250000000002,112.36502700331562L193.80249999999998,106.75234953532271L194.38,95.51807638786029L194.6625,120.2441791660495L194.94500000000002,135.07984083296304L195.2275,143.98123783311115L195.58,141.45540936653336L196.17000000000002,124.20657895325333L196.45749999999998,137.45728070528534L196.74,145.40770175650454L197.265,134.44462105390272L197.5475,143.60010596567497L198.0725,133.360063579405L198.35,142.94937148097634L198.7475,140.83628955525245L199.145,139.56844039981814L199.62,130.9410642398909L199.9025,141.49797187726787L200.30499999999998,139.96544979302737L200.7025,139.0459365424831L200.99,146.3608952588232L201.70749999999998,119.28320382196057L201.99,134.50325562650968L202.3425,135.76862004257248L202.63,144.3945053588768L203.0625,133.8367032153261L203.35,143.235355262529L203.6225,148.87454649085072L203.975,144.3913945611771L204.5,133.83483673670628L204.8975,135.3675687086904L205.30749999999998,136.2872078918809L205.7675,128.97232473512855L206.35750000000002,116.71672817441046L206.75500000000002,125.09670357131293L207.1075,130.12468880945443L207.4525,133.14147995233932L207.735,142.81822130473694L208.2525,132.89093278284216L208.53500000000003,142.6678930030386L209.045,124.9340691351565L209.3325,137.89377481442722L209.86249999999998,129.93626488865632L210.29,125.1617589331938L210.76,122.2970553599163L211.04749999999999,136.31156654928313L211.32500000000002,144.7202732629032L211.72750000000002,141.8988306244086L212.01,148.0726317079785L212.595,96.71024569145374L212.945,113.09281408153892L213.23250000000002,130.7890217822567L213.65499999999997,125.67341306935403L214.0125,130.4707145082791L214.365,133.3490953716341L214.8325,127.20945722298048L215.4225,115.65900766712161L215.7,132.3287379336063L216.21,118.73057609349709L216.5625,126.30501232276492L216.845,138.71634072699229L217.2375,138.29647110286203L217.58999999999997,138.04454932838388L218.06,130.02672959703034L218.405,133.08270442488487L218.93,127.04962265493091L219.48000000000002,115.56310692629188L219.76749999999998,132.27119748910846L220.055,142.29605182679842L220.3375,148.31096442941237L220.8075,136.18657865764743L221.17,136.77861386125514L221.5225,137.13383498341975L222.185,113.74696765671851L222.64499999999998,115.4481805940311L222.9225,132.202241689752L223.6825,110.78801168051785L224.105,113.6728070083107L224.5725,115.40368420498642L224.9325,124.30887718965853L225.2825,129.65199298046178L225.79000000000002,124.99119578827707L226.6375,74.99471747296626L226.92,107.93016381711308L227.2075,127.6914316236012L227.8525,108.08152564082737L228.14,127.78224871782977L228.61,123.86934923069786L228.9625,129.3882762050854L229.4675,116.96629905638457L230.05249999999998,78.04644610049739L230.5875,86.16120099363177L230.9325,106.76338726284573L231.22000000000003,126.99136569104077L231.5075,139.1281527479578L231.795,146.41022498210802L232.0825,150.77946832259815L232.81,114.0676809935589L233.26999999999998,115.64060859613534L233.5475,132.3176984910145L234.01749999999998,126.59061909460871L234.5375,123.15437145676523L234.825,136.82595620739247L235.485,121.42890705776881L235.7725,135.7906775679946L236.055,144.4077398741301L236.445,141.71131059114475L237.23499999999999,108.62678635468686L237.96,33.70940514614541L238.5025,59.558976421020596L238.79000000000002,98.66871918594569L239.14000000000001,114.26789817823408L239.8675,100.02740557360711L240.22,115.08311001083092L240.5075,131.98319933983188L241.35250000000002,102.78991960389915L241.64,124.60728509567281L241.9925,129.83103772407034L242.3525,132.96528930110887L242.64,142.71250691399865L243.48499999999999,109.2275041483992L243.7675,128.46983582237283L244.305,116.41523482675703L244.58249999999998,132.78247422938756L244.86,142.60281787096588L245.1475,148.49502405591284L245.435,152.03034776688105L245.7175,154.15154199346196L246.185,139.69092519607716L246.9075,115.28122178431298L247.195,132.10206640392113L247.6025,134.32790650901933L247.96,135.66341057207828L248.45000000000002,120.7313796765803L248.80249999999998,127.50549447261484L249.09,139.43663001690226L249.605,130.86197801014134L249.995,133.58385347275146L250.58,88.01697875031755L250.8625,115.74352058352386L251.3925,108.77944568344763L251.91750000000002,112.46766741006859L252.635,98.9472671127078L252.9125,122.30169360095802L253.5025,112.71434949390814L253.78,130.56194302967822L254.55249999999998,101.93716581780694L254.835,124.09563282401749L255.48749999999998,105.92404636107716L255.77,126.48776114997963L256.2475,123.09265668998776L256.53499999999997,136.788927347326L257.1875,113.54002307506227L257.46999999999997,131.0573471783707L258.23,110.10107497368908L258.655,113.26064498421344L258.9425,130.8897203238614L259.3,133.6004988609835L259.5875,143.09363264992345L260.3725,109.45617958995408L261.16,89.27370775397245L261.4475,116.4975579857168L261.73499999999996,132.83186812476342L262.0125,142.63245420819138L262.3,148.51280585824816L262.5825,152.04101684828223L262.865,154.15794344230267L263.4,131.82809939871493L263.6875,142.03019297256228L264.04,140.28478245020403L264.94,99.90420280345575L265.55,91.40918834874012L266.56,62.71217967591074L266.9125,92.69397447221311L267.6875,79.21638468332786L268.27250000000004,55.396497476663384L268.6675,88.30456515266471L269.19,100.18273909159882L269.8975,91.57631012162597L270.185,117.8791194063089L270.5825,125.79413831045201L271.2025,106.94314965293786L271.49,127.09922312509605L272.2625,99.85953387505762L272.6725,114.98238699170126L273.1775,108.3227655283541L273.82,41.393659317012435L274.53749999999997,56.30286225687412" style="fill: none;" fill="none"></path></g><g><path stroke="rgb(255, 112, 67)" stroke-width="2px" d="M25.347500000000004,137.66666666666666L25.82,125.37499999999999L26.1075,141.68027210884352L26.5,139.8357843137255L26.7825,147.42493638676845L27.065,151.58225921947727L27.4175,145.85571562766117L27.775000000000002,142.52413833805477L28.294999999999998,132.61461786803017L29.07,87.16059428851808L29.49,99.54127331212129L29.7725,122.70852739005657L30.450000000000003,105.06874431978166L30.855,118.11813930783764L31.4525,110.20049416017429L32.002500000000005,105.45229030894517L32.29,126.20822080436999L32.760000000000005,122.92459899813362L33.0475,136.68893147521948L33.557500000000005,121.34613126138007L34.1975,104.27397091235581L34.485,125.49799523497117L34.7725,138.23223104042486L35.125,138.00600421897263L35.635,122.13689074837023L36.0325,128.34881171209094L36.31,139.94263222675153L36.6675,139.03224544365435L37.1275,130.61934416640418L37.5975,125.5716053839191L37.88,138.27629824889055L38.1625,145.89911288934164L38.44499999999999,150.47280128534095L38.732499999999995,153.21701418316283L39.015,154.863541871536L39.292500000000004,155.8514584664447L39.57,156.4442084168685L40.029999999999994,141.0665249930208L40.3825,139.7065816594493L40.665,146.75728233842793L41.0875,135.25436939383084L41.37,144.08595497388185L41.785000000000004,133.65157298131632L42.0575,143.12427712376422L42.34,148.80789960818265L42.6925,144.3514064312983L43.225,125.9441771914235L43.6925,122.76650631478276L43.975,136.59323712238924L44.57000000000001,121.28927560664317L45.405,96.37356536386508L45.692499999999995,120.75747255172334L46.08,127.52115019771247L46.3525,139.4460234519733L46.8125,130.8676140711786L47.277499999999996,125.7205684427052L47.565,138.36567439895933L47.847500000000004,145.95273797270994L48.2775,134.77164278362505L48.565,143.7963190035088L49.040000000000006,133.477791402105L49.3225,143.0200081745965L49.712500000000006,140.87867157142452L50,147.4605362761881L50.2875,151.4096550990462L50.645,145.91245972609437L50.932500000000005,150.48080916898996L51.22,153.22181883472732L51.5775,146.99975796750306L52.01,135.39985478050184L52.2975,144.1732462016344L52.58,149.437281054314L52.8575,152.59570196592173L53.145,154.49075451288635L53.432500000000005,155.62778604106515L53.775,148.44333829130576L54.0575,151.9993363081168L54.480000000000004,138.39960178487007L54.985,122.37309440425538L55.445,120.62385664255324L56.1575,103.8409806521986L56.5775,109.50458839131917L56.972500000000004,120.76941970145815L57.315,127.52831848754155L57.775,123.71699109252494L58.487500000000004,105.69686132218162L58.76,126.35145012664232L59.22,123.01087007598541L60.195,65.93985537892456L60.835,78.89724656068806L61.122499999999995,110.27168126974617L61.405,129.09634209518103L61.87,124.65780525710862L62.1475,137.72801648759852L62.6075,129.83680989255907L63.067499999999995,125.10208593553547L63.5325,122.26125156132127L63.885,128.42341760345943L64.1725,139.98738389540898L64.46000000000001,146.92576367057873L64.92,135.35545820234722L65.19749999999999,144.1466082547417L65.485,149.42129828617834L65.945,136.85277897170698L66.3075,137.17833404969087L66.73,129.50700042981452L67.0125,140.63753359122205L67.3,147.31585348806658L67.5875,151.32284542617327L67.975,145.86037392237063L68.2475,150.44955768675572L68.6375,145.33640127872007L68.925,150.13517410056537L69.39,137.28110446033924L69.85,129.56866267620353L70.47,109.20786427238879L70.7425,128.45805189676662L71.03,140.0081644713933L71.375,139.07156534950263L71.84,130.64293920970158L72.1275,141.31909685915429L72.5875,131.99145811549258L73.2325,110.6615415359622L73.52,129.33025825491066L73.8025,140.53148828627974L74.2,139.3855596384345L74.4875,146.56466911639404L74.89500000000001,143.00546813650308L75.36,133.00328088190184L75.755,134.8686351958078L76.2225,128.12118111748467L76.7375,124.07270867049078L77.02499999999999,137.3769585356278L77.30749999999999,145.35950845471L77.6525,142.28237173949267L78.1875,124.70275637702895L78.6525,122.02165382621735L78.94,136.14632562906377L79.445,121.02112871077159L79.8375,127.67934389312963L80.3125,123.80760633587778L80.8525,113.61789713485999L81.31750000000001,115.370738280916L81.85249999999999,108.55577630188293L82.2425,120.20013244779643L82.7025,119.32007946867786L83.09,126.65871434787337L83.55000000000001,123.19522860872402L83.8275,136.85047049856774L84.2875,129.31028229914065L84.75500000000001,124.7861693794844L85.1425,129.9383682943573L85.43,140.89635430994772L85.82000000000001,139.6044792526353L86.325,123.09602088491451L87.1,89.59094586428205L87.3725,116.68790085190255L87.8375,117.21274051114153L88.3075,117.52764430668493L88.58500000000001,133.4499199173443L89.2225,111.53661861707323L89.6225,121.9886378369106L89.9,136.12651603547968L90.36000000000001,128.87590962128783L90.63749999999999,140.25887910610604L91.2225,123.48866079699694L91.505,137.0265298115315L91.7875,145.14925122025224L92.2475,134.28955073215133L92.8275,119.90706377262413L93.2875,119.14423826357448L93.7475,118.6865429581447L94.17,118.41192577488683L94.44250000000001,133.9804887982654L94.9025,127.58829327895924L95.615,108.01964263404223L95.90249999999999,127.74511891375867L96.335,123.84707134825518L96.6125,137.24157614228645L96.9,145.2782790187052L97.36,134.36696741122313L97.6375,143.55351378006722L97.92500000000001,149.06544160137366L98.2125,152.37259829415754L98.56,146.49022564316118L98.96249999999999,142.96080205256337L99.25,148.70981456487138L99.5375,152.15922207225614L99.825,154.228866576687L100.41,100.40398661267886L100.8075,115.309058634274L101.3,108.51876851389774L101.765,112.31126110833866L102.225,114.58675666500316L102.835,100.21872066566858L103.23750000000001,115.19789906606782L103.7725,108.45207277297402L104.23249999999999,112.2712436637844L104.6925,114.56274619827064L105.4,100.20431438562906L105.86,107.32258863137741L106.405,103.7268865121598L106.82749999999999,109.43613190729587L107.36,104.99501247771086L107.71249999999999,118.06367415329318L108.2175,110.17153782530924L108.67750000000001,113.30292269518553L109.4225,91.58175361711133L109.955,94.28238550360012L110.24249999999999,119.50276463549342L110.95,71.70165878129605L111.23750000000001,105.95432860211096L111.625,118.63926382793323L112.0425,118.38355829675994L112.5025,118.23013497805596L112.775,133.8714143201669L113.1975,127.52284859210015L113.54,131.58037582192676L113.8925,134.01489215982272L114.23499999999999,135.4756019625603L114.65249999999999,128.4853611775362L115.075,124.29121670652171L115.535,121.77473002391304L115.995,120.26483801434782L116.38000000000001,127.22556947527536L116.72,131.40200835183185L117.18,126.04120501109914L117.7075,114.9580563399928L117.99499999999999,131.90816713732903L118.455,126.34490028239742L119.1475,107.27360683610512L119.6075,111.56416410166307L120.22749999999999,98.4051651276645L120.505,121.97643240993203L120.965,120.38585944595923L121.2375,135.16484900090887L121.6975,128.29890940054534L122.0375,132.04601230699384L122.54499999999999,126.42760738419634L123.075,115.18989776385112L123.71,108.447271991644L124.17,112.26836319498639L124.5725,122.4276845836585L124.86,136.38994408352843L125.3225,129.03396645011705L125.7825,124.62037987007025L126.2425,121.97222792204215L126.58749999999999,128.25000341989195L126.875,139.8833353852685L127.2975,131.13000123116112L127.68499999999999,133.74466740536334L128.07,135.31346710988467L128.53,128.3880802659308L128.8025,139.96618149289182L129.2625,131.17970889573508L129.7225,125.90782533744105L129.995,138.47802853579796L130.4575,130.28681712147878L131.0375,117.50542360622059L131.425,125.56992083039901L132.175,98.94195249823942L132.4475,122.29850483227698L132.79,128.44576956603285L133.1325,132.13412840628638L133.405,142.21381037710515L133.98499999999999,124.66161955959643L134.32999999999998,129.86363840242453L134.7525,125.11818304145471L135.175,122.27090982487283L135.51749999999998,128.42921256159036L135.935,124.25752753695421L136.335,129.6211831888392L136.8425,124.97270991330352L137.12,137.91695928131546L137.54250000000002,129.95017556878926L137.82,140.9034386746069L138.2425,131.74206320476412L138.59,134.11190458952515L139.0075,127.6671427537151L139.4675,123.80028565222905L139.92749999999998,121.48017139133742L140.58,104.35476950146911L141.04,109.81286170088148L141.5,113.08771702052887L142.105,99.31929687898398L142.615,106.79157812739041L143.125,111.27494687643423L143.5125,121.83163479252723L143.855,128.165647542183L144.1275,139.8327218586431L144.525,138.96629978185254L144.7975,146.31311320244487L145.215,134.98786792146691L145.7225,128.19272075288018L146.10999999999999,131.98229911839476L146.495,134.25604613770352L146.7675,143.48696101595544L147.2775,133.29217660957326L147.85750000000002,119.3086392990773L148.13,134.51851691277972L148.4025,143.64444348100116L148.67499999999998,149.11999942193404L149.06,144.5386663198271L149.5175,133.92319979189625L149.8675,135.42058654180443L150.255,136.3190185917493L150.5275,144.72474448838292L150.915,141.90151335969642L151.1875,148.07424134915118L151.60250000000002,136.0445448094907L151.875,144.56006021902778L152.1475,149.66936946475L152.495,144.86828834551667L152.8375,141.98763967397667L153.345,132.392583804386L153.61749999999998,142.36888361596493L153.9575,140.48799683624563L154.23,147.22613143508073L154.96499999999997,111.93567886104842L155.2375,130.09474064996238L155.6225,133.1235110566441L156.04749999999999,127.07410663398645L156.32,139.17779731372522L156.785,130.70667838823513L157.245,125.62400703294108L157.5925,130.4410708864313L158.0975,117.59797586519211L158.63500000000002,109.8921188524486L159.26000000000002,105.2686046448025L159.6075,118.22782945354817L160.1225,118.13669767212889L160.63250000000002,118.08201860327735L161.215,110.18254449529972L162.04500000000002,81.84286003051317L162.75,80.57238268497457L163.1375,103.41009627765142L163.6475,109.24605776659084L164.035,120.61430132662117L164.3075,135.30191412930606L164.6925,136.2478151442503L164.96499999999997,144.6820224198835L165.475,134.0092134519301L166.1725,111.87219473782471L166.445,130.05665017602817L166.84,133.10065677228357L167.23,134.9270607300368L167.6975,128.1562364380221L168.08749999999998,131.9604085294799L168.47250000000003,134.24291178435462L168.85750000000002,135.61241373727944L169.2825,128.56744824236767L169.91,116.47380227875392L170.54,109.2176147005857L170.8125,128.46390215368476L171.085,140.01167462554417L171.7175,123.34033810865984L171.99,136.93753619852924L172.2625,145.09585505245087L172.795,126.39084636480388L173.0675,138.76784115221565L173.495,130.4607046913294L174.22,101.87642281479765L174.61499999999998,116.19252035554524L175.1225,116.91551221332715L175.75,109.48264066132963L176.21,112.88958439679777L176.8425,107.06708397141199L177.23,119.30691704951386L177.625,126.65081689637499L177.9725,131.05715680449165L178.5875,110.10096074936165L179.0975,113.260576449617L179.5575,115.15634586977019L180.05999999999997,116.2938075218621L180.3325,132.7096178464506L180.7225,134.69243737453704L181.1875,128.01546242472222L181.69,124.00927745483334L182.2,121.60556647290001L182.4725,135.89667321707333L182.9375,128.738003930244L183.2775,132.30946902481304L183.86249999999998,118.71901474822117L184.3725,118.4314088489327L184.7575,126.12551197602629L185.21499999999997,122.87530718561577L185.60500000000002,128.79185097803614L186.065,124.47511058682169L186.525,121.885066352093L186.98499999999999,120.3310398112558L187.68,103.66529055342015L188.1875,109.3991743320521L188.64749999999998,112.83950459923125L189.035,122.77036942620543L189.54500000000002,120.86222165572326L190.0525,119.71733299343396L190.5125,119.03039979606035L191.145,110.75157321096955L191.53,121.51761059324839L191.995,120.11056635594903L192.45499999999998,119.26633981356942L192.8425,126.62647055480831L193.3025,123.175882332885L193.8125,121.105529399731L194.39749999999998,111.99665097317194L194.74,122.26465725056984L195.0825,128.42546101700856L195.59,124.25527661020514L195.86249999999998,137.4864992994564L196.3725,129.69189957967387L196.87750000000003,125.0151397478043L197.3875,122.20908384868258L197.8475,120.52545030920956L198.36,119.51527018552574L198.87,118.90916211131544L199.5,110.6788306001226L200.01,113.60729836007356L200.52,115.36437901604413L200.7925,132.1519607429598L201.1825,134.35784311244257L201.6875,127.81470586746555L201.96,139.62215685381267L202.47000000000003,130.97329411228762L203.065,117.91730980070588L203.57250000000002,117.95038588042353L203.845,133.70356486158744L204.3525,127.42213891695248L204.8125,123.65328335017148L205.4225,105.65863667676956L205.695,126.32851533939507L206.0375,130.8637758703037L206.6225,117.85159885551555L207.0125,125.77762597997598L207.285,138.39990892131894L207.5575,145.9732786861247L207.9475,142.6506338783415L208.22000000000003,148.52371366033822L208.5625,144.1808948628696L209.07,133.70853691772177L209.455,135.2917888172997L209.965,128.37507329037985L210.4725,124.22504397422789L210.745,137.46835971787007L211.275,121.81434916405537L211.5475,136.02194283176655L211.82,144.54649903239326L212.1625,141.79456608610263L212.43499999999997,148.0100729849949L213.01250000000002,128.13937712433028L213.4025,131.95029294126482L214.0325,118.50350909809222L214.305,134.03543879218867L214.64749999999998,135.48792994197987L215.035,136.35942463185458L215.30749999999998,144.74898811244609L215.8175,134.04939286746765L216.09,143.36296905381394L216.51,133.21778143228835L217.215,111.39733552603967L217.745,106.17173464895716L218.2525,110.90304078937429L218.7875,105.87515780695789L219.4125,102.85842801750806L219.68499999999997,124.64839014383817L220.145,121.98903408630291L220.4175,136.12675378511508L220.925,128.87605227106906L221.1975,140.25896469597475L221.6575,131.35537881758486L222.16500000000002,126.01322729055093L222.82,107.07460304099722L223.28,111.44476182459833L223.74,114.066857094759L224.35,99.90678092352206L224.86,107.14406855411325L225.32,111.48644113246795L225.66750000000002,121.95853134614745L226.1275,120.37511880768844L226.515,127.29173795127974L226.89999999999998,131.4417094374345L227.37,126.06502566246071L227.71249999999998,130.7056820641431L228.17,125.62340923848586L228.4425,138.30737887642485L228.83249999999998,138.05109399252157L229.2975,130.03065639551295L229.7575,125.21839383730777L230.1425,130.19770296905133L230.415,141.05195511476413L230.875,131.83117306885848L231.37750000000003,126.29870384131509L231.76250000000002,130.84588897145574L232.5425,78.50753338287342L233.0525,94.30452002972405L233.47,103.78271201783444L233.9725,109.46962721070065L234.245,128.61510965975373L234.5175,140.10239912918559L234.79,146.9947728108447L235.175,143.26353035317348L235.63750000000002,133.15811821190408L236.215,119.22820426047578L236.48749999999998,134.4702558896188L236.9475,127.88215353377129L237.335,131.79595878692945L237.8725,118.41090860549099L238.3325,118.24654516329458L238.605,133.8812604313101L238.8775,143.2620895921194L239.15,148.89058708860497L239.60999999999999,136.53435225316298L239.88250000000002,144.8539446852311L240.3475,134.11236681113868L240.62,143.40075342001654L241.03750000000002,133.2404520520099L241.315,142.87760456453927L241.655,140.79322940539024L242.07750000000001,131.67593764323414L242.4175,134.07222925260714L242.69,143.37667088489764L243.2225,125.3593358642719L243.61,130.28226818522978L244.14,117.50269424447121L244.6,117.70161654668273L244.9875,125.6876365946763L245.41,122.61258195680578L245.945,112.90088250741678L246.285,122.80719617111673L246.70749999999998,120.88431770267003L247.0925,127.59725728826871L247.555,123.75835437296122L248.0975,113.58834595711008L248.49,123.21967424093269L249.02499999999998,113.26513787789297L249.37,123.02574939340245L249.7575,128.8821163027081L250.10250000000002,132.39593644829154L250.75750000000002,110.90422853564161L251.03,129.4758704547183L251.30249999999998,140.61885560616432L251.6875,139.43798003036525L252.14749999999998,130.86278801821916L252.6175,125.7176728109315L253.17,114.76393701989221L253.51,123.92502887860199L253.7825,137.28835066049453L254.055,145.30634372963004L254.39499999999998,142.2504729044447L254.8575,132.5502837426668L255.36499999999998,126.73017024560009L255.825,123.23810214736005L256.09749999999997,136.87619462174936L256.565,129.32571677304963L257.1025,116.92876339716311L257.56,117.35725803829787L257.9475,125.48102148964537L258.2875,130.3552795604539L258.6725,133.279834402939L259.095,127.16790064176342L259.3675,139.2340737183914L259.785,130.74044423103481L260.125,133.51093320528756L260.5425,127.30655992317253L260.9575,123.58393595390353L261.4925,113.48369490567546L261.91,115.29021694340527L262.3725,116.37413016604317L262.8825,117.0244780996259L263.3,117.41468685977554L263.64,125.51547878253197L263.98,130.37595393618585L264.2525,141.15890569504487L264.59749999999997,139.76201008369358L265.015,131.05720605021614L265.35499999999996,133.70099029679633L265.695,135.28726084474448L266.1125,128.3723565068467L266.53,124.223413904108L266.9475,121.73404834246482L267.365,120.24042900547889L267.8275,119.34425740328734L268.29,118.8065544419724L268.6325,126.3505993318501L269.095,123.01035959911006L269.5125,121.00621575946604L269.8525,127.67039612234629L270.24,131.66890434007442L270.625,134.06800927071134L270.9675,135.50747222909345L271.31,136.37115000412274L271.65250000000003,136.8893566691403L272.115,129.33361400148416L272.5325,124.80016840089053L272.8725,129.94676770720096L273.34000000000003,125.16806062432056L273.7625,122.30083637459235L274.15500000000003,128.44716849142208L274.65250000000003,116.40163442818658L274.9925,124.9076473235786" style="fill: none;" fill="none"></path></g></g></g></g><g opacity="0.2"><g><g><g><path stroke="rgb(0, 119, 187)" stroke-width="2px" d="M25.347500000000004,137.66666666666666L25.82,118.00000000000001L26.1075,157.33333333333331L26.5,137.66666666666666L26.7825,157.33333333333331L27.065,157.33333333333331L27.4175,137.66666666666666L27.775000000000002,137.66666666666666L28.294999999999998,118.00000000000001L29.07,19.666666666666675L29.545,118.00000000000001L29.8325,157.33333333333331L30.185,137.66666666666666L30.7,98.33333333333334L31.4125,78.66666666666666L31.815,137.66666666666666L32.1025,157.33333333333331L32.449999999999996,137.66666666666666L32.7325,157.33333333333331L33.085,137.66666666666666L33.6775,98.33333333333334L33.955,157.33333333333331L34.32,137.66666666666666L34.6725,137.66666666666666L35.14,118.00000000000001L35.4175,157.33333333333331L35.9525,98.33333333333334L36.502500000000005,98.33333333333334L36.9325,118.00000000000001L37.285,137.66666666666666L37.6825,137.66666666666666L38.3325,98.33333333333334L38.620000000000005,157.33333333333331L39.205000000000005,98.33333333333334L39.4875,157.33333333333331L39.775,157.33333333333331L40.165,137.66666666666666L40.5125,137.66666666666666L40.915,137.66666666666666L41.260000000000005,137.66666666666666L41.54750000000001,157.33333333333331L42.0075,118.00000000000001L42.47,118.00000000000001L42.8225,137.66666666666666L43.18,137.66666666666666L43.7725,98.33333333333334L44.24,118.00000000000001L44.88,98.33333333333334L45.1575,157.33333333333331L45.55,137.66666666666666L45.8275,157.33333333333331L46.105000000000004,157.33333333333331L46.63,118.00000000000001L47.3425,78.66666666666666L47.63,157.33333333333331L48.095,118.00000000000001L48.3775,157.33333333333331L49.2725,59.00000000000001L49.86750000000001,98.33333333333334L50.154999999999994,157.33333333333331L50.614999999999995,118.00000000000001L50.902499999999996,157.33333333333331L51.19,157.33333333333331L51.535000000000004,137.66666666666666L51.8225,157.33333333333331L52.254999999999995,118.00000000000001L52.714999999999996,118.00000000000001L52.9975,157.33333333333331L53.285000000000004,157.33333333333331L53.572500000000005,157.33333333333331L53.93,137.66666666666666L54.2125,157.33333333333331L54.6825,118.00000000000001L54.97,157.33333333333331L55.2425,157.33333333333331L55.525,157.33333333333331L55.9225,137.66666666666666L56.39,118.00000000000001L56.8575,118.00000000000001L57.145,157.33333333333331L57.432500000000005,157.33333333333331L57.72,157.33333333333331L58.0025,157.33333333333331L58.285000000000004,157.33333333333331L58.925,98.33333333333334L59.3275,137.66666666666666L59.615,157.33333333333331L59.8925,157.33333333333331L60.3525,118.00000000000001L60.739999999999995,137.66666666666666L61.027499999999996,157.33333333333331L61.31,157.33333333333331L61.705,137.66666666666666L61.9825,157.33333333333331L62.27,157.33333333333331L62.7325,118.00000000000001L63.375,78.66666666666666L63.6575,157.33333333333331L63.945,157.33333333333331L64.2325,157.33333333333331L64.52,157.33333333333331L65.1525,78.66666666666666L65.44,157.33333333333331L65.72749999999999,157.33333333333331L66.015,157.33333333333331L66.3675,137.66666666666666L66.655,157.33333333333331L67.19500000000001,98.33333333333334L67.8275,78.66666666666666L68.115,157.33333333333331L68.4025,157.33333333333331L68.685,157.33333333333331L68.9675,157.33333333333331L69.435,118.00000000000001L69.7225,157.33333333333331L70.0675,137.66666666666666L70.47,137.66666666666666L70.7525,157.33333333333331L71.04,157.33333333333331L71.3275,157.33333333333331L71.615,157.33333333333331L72.0475,118.00000000000001L72.5175,118.00000000000001L72.87,137.66666666666666L73.34,118.00000000000001L73.6925,137.66666666666666L73.975,157.33333333333331L74.2625,157.33333333333331L74.545,157.33333333333331L74.8325,157.33333333333331L75.4425,78.66666666666666L75.87,118.00000000000001L76.25999999999999,137.66666666666666L76.54249999999999,157.33333333333331L77.08250000000001,98.33333333333334L77.515,118.00000000000001L77.9125,137.66666666666666L78.2,157.33333333333331L78.5575,137.66666666666666L79.0275,118.00000000000001L79.6725,78.66666666666666L80.21499999999999,98.33333333333334L80.6425,118.00000000000001L81.03,137.66666666666666L81.3825,137.66666666666666L81.96,98.33333333333334L82.30499999999999,137.66666666666666L82.5925,157.33333333333331L82.875,157.33333333333331L83.1525,157.33333333333331L83.6625,98.33333333333334L83.95,157.33333333333331L84.34,137.66666666666666L84.62750000000001,157.33333333333331L85.0975,118.00000000000001L85.455,137.66666666666666L85.7375,157.33333333333331L86.08999999999999,137.66666666666666L86.5175,118.00000000000001L86.795,157.33333333333331L87.0825,157.33333333333331L87.37,157.33333333333331L87.6525,157.33333333333331L87.94000000000001,157.33333333333331L88.2975,137.66666666666666L88.9175,78.66666666666666L89.205,157.33333333333331L89.4925,157.33333333333331L89.78,157.33333333333331L90.49749999999999,78.66666666666666L91.21249999999999,78.66666666666666L91.56500000000001,137.66666666666666L91.85249999999999,157.33333333333331L92.14,157.33333333333331L92.60749999999999,118.00000000000001L93.19749999999999,98.33333333333334L93.555,137.66666666666666L93.9525,137.66666666666666L94.6675,78.66666666666666L94.95,157.33333333333331L95.2375,157.33333333333331L96.1575,39.33333333333333L96.44,157.33333333333331L97.025,98.33333333333334L97.31250000000001,157.33333333333331L98.1575,59.00000000000001L98.6825,118.00000000000001L99.4475,59.00000000000001L99.73500000000001,157.33333333333331L100.1625,118.00000000000001L100.875,78.66666666666666L101.38499999999999,98.33333333333334L101.97999999999999,98.33333333333334L102.63250000000001,98.33333333333334L103.1575,118.00000000000001L103.8625,78.66666666666666L104.3725,98.33333333333334L104.66,157.33333333333331L105.13499999999999,118.00000000000001L105.90249999999999,78.66666666666666L106.185,157.33333333333331L106.4725,157.33333333333331L106.755,157.33333333333331L107.67,39.33333333333333L107.9575,157.33333333333331L108.4325,118.00000000000001L109.21249999999999,59.00000000000001L109.68499999999999,118.00000000000001L110.27,98.33333333333334L110.5525,157.33333333333331L111.0875,98.33333333333334L111.37,157.33333333333331L111.96,98.33333333333334L112.24749999999999,157.33333333333331L112.535,157.33333333333331L113.32749999999999,59.00000000000001L113.615,157.33333333333331L114.25750000000001,78.66666666666666L114.7175,118.00000000000001L115.075,137.66666666666666L115.6575,98.33333333333334L115.94500000000001,157.33333333333331L116.2325,157.33333333333331L116.52000000000001,157.33333333333331L116.9225,137.66666666666666L117.38749999999999,118.00000000000001L117.7825,137.66666666666666L118.06,157.33333333333331L118.4575,137.66666666666666L118.74499999999999,157.33333333333331L119.0175,157.33333333333331L119.4825,118.00000000000001L119.84,137.66666666666666L120.12249999999999,157.33333333333331L120.41,157.33333333333331L120.69749999999999,157.33333333333331L121.1275,118.00000000000001L121.58749999999999,118.00000000000001L121.87,157.33333333333331L122.30250000000001,118.00000000000001L122.59,157.33333333333331L122.8725,157.33333333333331L123.15499999999999,157.33333333333331L123.5425,137.66666666666666L123.825,157.33333333333331L124.25750000000001,118.00000000000001L124.545,157.33333333333331L125.13000000000001,98.33333333333334L125.41749999999999,157.33333333333331L125.705,157.33333333333331L126.295,98.33333333333334L126.5825,157.33333333333331L126.865,157.33333333333331L127.70500000000001,59.00000000000001L128.17000000000002,118.00000000000001L128.4575,157.33333333333331L128.745,157.33333333333331L129.1025,137.66666666666666L129.6975,98.33333333333334L130.2075,98.33333333333334L130.48,157.33333333333331L130.76250000000002,157.33333333333331L131.05,157.33333333333331L131.4475,137.66666666666666L131.73499999999999,157.33333333333331L132.195,118.00000000000001L132.4825,157.33333333333331L132.82999999999998,137.66666666666666L133.11249999999998,157.33333333333331L133.515,137.66666666666666L133.8675,137.66666666666666L134.155,157.33333333333331L134.4375,157.33333333333331L134.9625,118.00000000000001L135.25,157.33333333333331L135.5375,157.33333333333331L135.89000000000001,137.66666666666666L136.1775,157.33333333333331L136.465,157.33333333333331L136.7525,157.33333333333331L137.04,157.33333333333331L137.56,118.00000000000001L138.10999999999999,98.33333333333334L138.5425,118.00000000000001L139.1375,98.33333333333334L139.6875,98.33333333333334L140.3325,98.33333333333334L140.875,98.33333333333334L141.1625,157.33333333333331L141.695,118.00000000000001L142.135,118.00000000000001L142.4225,157.33333333333331L142.775,137.66666666666666L143.1325,137.66666666666666L143.53,137.66666666666666L143.8075,157.33333333333331L144.095,157.33333333333331L144.4475,137.66666666666666L144.8575,137.66666666666666L145.2525,137.66666666666666L145.96,78.66666666666666L146.6125,78.66666666666666L146.97,137.66666666666666L147.2575,157.33333333333331L147.6025,137.66666666666666L147.95499999999998,137.66666666666666L148.23749999999998,157.33333333333331L148.6475,137.66666666666666L149.04,137.66666666666666L149.58249999999998,98.33333333333334L149.9775,137.66666666666666L150.255,157.33333333333331L150.5325,157.33333333333331L151.0375,98.33333333333334L151.325,157.33333333333331L151.7225,137.66666666666666L152.3175,98.33333333333334L152.8425,118.00000000000001L153.125,157.33333333333331L153.51000000000002,137.66666666666666L153.7875,157.33333333333331L154.19,137.66666666666666L154.4775,157.33333333333331L154.88,137.66666666666666L155.2375,137.66666666666666L155.82750000000001,98.33333333333334L156.17999999999998,137.66666666666666L156.4675,157.33333333333331L156.8175,137.66666666666666L157.1,157.33333333333331L157.3875,157.33333333333331L157.8925,98.33333333333334L158.36249999999998,118.00000000000001L158.65,157.33333333333331L158.9375,157.33333333333331L159.29500000000002,137.66666666666666L159.64749999999998,137.66666666666666L160.32750000000001,78.66666666666666L160.615,157.33333333333331L160.8975,157.33333333333331L161.3075,137.66666666666666L161.58999999999997,157.33333333333331L162.515,-19.666666666666675L162.99,118.00000000000001L163.27749999999997,157.33333333333331L163.565,157.33333333333331L163.8525,157.33333333333331L164.21,137.66666666666666L164.49249999999998,157.33333333333331L164.89,137.66666666666666L165.1775,157.33333333333331L165.82250000000002,98.33333333333334L166.3325,98.33333333333334L167.115,59.00000000000001L167.4025,157.33333333333331L167.76000000000002,137.66666666666666L168.16,137.66666666666666L168.4475,157.33333333333331L169.17499999999998,78.66666666666666L169.76999999999998,98.33333333333334L170.245,118.00000000000001L170.52749999999997,157.33333333333331L170.81,157.33333333333331L171.0975,157.33333333333331L171.38500000000002,157.33333333333331L171.78750000000002,137.66666666666666L172.4275,98.33333333333334L173.07250000000002,98.33333333333334L173.35,157.33333333333331L174.0675,78.66666666666666L174.5925,118.00000000000001L174.95000000000002,137.66666666666666L175.2375,157.33333333333331L175.51999999999998,157.33333333333331L176.23749999999998,78.66666666666666L176.525,157.33333333333331L177.2425,78.66666666666666L177.53,157.33333333333331L178,118.00000000000001L178.2875,157.33333333333331L178.685,137.66666666666666L179.28,98.33333333333334L179.755,118.00000000000001L180.1125,137.66666666666666L180.4,157.33333333333331L181.23999999999998,59.00000000000001L181.5275,157.33333333333331L182.05249999999998,118.00000000000001L182.335,157.33333333333331L182.61249999999998,157.33333333333331L183.01999999999998,137.66666666666666L183.3025,157.33333333333331L183.66,137.66666666666666L184.2525,98.33333333333334L184.68,118.00000000000001L184.9625,157.33333333333331L185.25000000000003,157.33333333333331L185.7675,118.00000000000001L186.17000000000002,137.66666666666666L187.005,59.00000000000001L187.29250000000002,157.33333333333331L187.64499999999998,137.66666666666666L188.10750000000002,118.00000000000001L188.6975,98.33333333333334L188.98,157.33333333333331L189.2625,157.33333333333331L189.54500000000002,157.33333333333331L190.01999999999998,118.00000000000001L190.3025,157.33333333333331L190.73000000000002,118.00000000000001L191.01749999999998,157.33333333333331L191.375,137.66666666666666L191.9675,98.33333333333334L192.245,157.33333333333331L192.75,98.33333333333334L193.29250000000002,98.33333333333334L193.80249999999998,98.33333333333334L194.38,78.66666666666666L194.6625,157.33333333333331L194.94500000000002,157.33333333333331L195.2275,157.33333333333331L195.58,137.66666666666666L196.17000000000002,98.33333333333334L196.45749999999998,157.33333333333331L196.74,157.33333333333331L197.265,118.00000000000001L197.5475,157.33333333333331L198.0725,118.00000000000001L198.35,157.33333333333331L198.7475,137.66666666666666L199.145,137.66666666666666L199.62,118.00000000000001L199.9025,157.33333333333331L200.30499999999998,137.66666666666666L200.7025,137.66666666666666L200.99,157.33333333333331L201.70749999999998,78.66666666666666L201.99,157.33333333333331L202.3425,137.66666666666666L202.63,157.33333333333331L203.0625,118.00000000000001L203.35,157.33333333333331L203.6225,157.33333333333331L203.975,137.66666666666666L204.5,118.00000000000001L204.8975,137.66666666666666L205.30749999999998,137.66666666666666L205.7675,118.00000000000001L206.35750000000002,98.33333333333334L206.75500000000002,137.66666666666666L207.1075,137.66666666666666L207.4525,137.66666666666666L207.735,157.33333333333331L208.2525,118.00000000000001L208.53500000000003,157.33333333333331L209.045,98.33333333333334L209.3325,157.33333333333331L209.86249999999998,118.00000000000001L210.29,118.00000000000001L210.76,118.00000000000001L211.04749999999999,157.33333333333331L211.32500000000002,157.33333333333331L211.72750000000002,137.66666666666666L212.01,157.33333333333331L212.595,19.666666666666675L212.945,137.66666666666666L213.23250000000002,157.33333333333331L213.65499999999997,118.00000000000001L214.0125,137.66666666666666L214.365,137.66666666666666L214.8325,118.00000000000001L215.4225,98.33333333333334L215.7,157.33333333333331L216.21,98.33333333333334L216.5625,137.66666666666666L216.845,157.33333333333331L217.2375,137.66666666666666L217.58999999999997,137.66666666666666L218.06,118.00000000000001L218.405,137.66666666666666L218.93,118.00000000000001L219.48000000000002,98.33333333333334L219.76749999999998,157.33333333333331L220.055,157.33333333333331L220.3375,157.33333333333331L220.8075,118.00000000000001L221.17,137.66666666666666L221.5225,137.66666666666666L222.185,78.66666666666666L222.64499999999998,118.00000000000001L222.9225,157.33333333333331L223.6825,78.66666666666666L224.105,118.00000000000001L224.5725,118.00000000000001L224.9325,137.66666666666666L225.2825,137.66666666666666L225.79000000000002,118.00000000000001L226.6375,0L226.92,157.33333333333331L227.2075,157.33333333333331L227.8525,78.66666666666666L228.14,157.33333333333331L228.61,118.00000000000001L228.9625,137.66666666666666L229.4675,98.33333333333334L230.05249999999998,19.666666666666675L230.5875,98.33333333333334L230.9325,137.66666666666666L231.22000000000003,157.33333333333331L231.5075,157.33333333333331L231.795,157.33333333333331L232.0825,157.33333333333331L232.81,59.00000000000001L233.26999999999998,118.00000000000001L233.5475,157.33333333333331L234.01749999999998,118.00000000000001L234.5375,118.00000000000001L234.825,157.33333333333331L235.485,98.33333333333334L235.7725,157.33333333333331L236.055,157.33333333333331L236.445,137.66666666666666L237.23499999999999,59.00000000000001L237.96,-78.66666666666666L238.5025,98.33333333333334L238.79000000000002,157.33333333333331L239.14000000000001,137.66666666666666L239.8675,78.66666666666666L240.22,137.66666666666666L240.5075,157.33333333333331L241.35250000000002,59.00000000000001L241.64,157.33333333333331L241.9925,137.66666666666666L242.3525,137.66666666666666L242.64,157.33333333333331L243.48499999999999,59.00000000000001L243.7675,157.33333333333331L244.305,98.33333333333334L244.58249999999998,157.33333333333331L244.86,157.33333333333331L245.1475,157.33333333333331L245.435,157.33333333333331L245.7175,157.33333333333331L246.185,118.00000000000001L246.9075,78.66666666666666L247.195,157.33333333333331L247.6025,137.66666666666666L247.96,137.66666666666666L248.45000000000002,98.33333333333334L248.80249999999998,137.66666666666666L249.09,157.33333333333331L249.605,118.00000000000001L249.995,137.66666666666666L250.58,19.666666666666675L250.8625,157.33333333333331L251.3925,98.33333333333334L251.91750000000002,118.00000000000001L252.635,78.66666666666666L252.9125,157.33333333333331L253.5025,98.33333333333334L253.78,157.33333333333331L254.55249999999998,59.00000000000001L254.835,157.33333333333331L255.48749999999998,78.66666666666666L255.77,157.33333333333331L256.2475,118.00000000000001L256.53499999999997,157.33333333333331L257.1875,78.66666666666666L257.46999999999997,157.33333333333331L258.23,78.66666666666666L258.655,118.00000000000001L258.9425,157.33333333333331L259.3,137.66666666666666L259.5875,157.33333333333331L260.3725,59.00000000000001L261.16,59.00000000000001L261.4475,157.33333333333331L261.73499999999996,157.33333333333331L262.0125,157.33333333333331L262.3,157.33333333333331L262.5825,157.33333333333331L262.865,157.33333333333331L263.4,98.33333333333334L263.6875,157.33333333333331L264.04,137.66666666666666L264.94,39.33333333333333L265.55,78.66666666666666L266.56,19.666666666666675L266.9125,137.66666666666666L267.6875,59.00000000000001L268.27250000000004,19.666666666666675L268.6675,137.66666666666666L269.19,118.00000000000001L269.8975,78.66666666666666L270.185,157.33333333333331L270.5825,137.66666666666666L271.2025,78.66666666666666L271.49,157.33333333333331L272.2625,59.00000000000001L272.6725,137.66666666666666L273.1775,98.33333333333334L273.82,-58.999999999999986L274.53749999999997,78.66666666666666" style="fill: none;" fill="none"></path></g><g><path stroke="rgb(255, 112, 67)" stroke-width="2px" d="M25.347500000000004,137.66666666666666L25.82,118.00000000000001L26.1075,157.33333333333331L26.5,137.66666666666666L26.7825,157.33333333333331L27.065,157.33333333333331L27.4175,137.66666666666666L27.775000000000002,137.66666666666666L28.294999999999998,118.00000000000001L29.07,19.666666666666675L29.49,118.00000000000001L29.7725,157.33333333333331L30.450000000000003,78.66666666666666L30.855,137.66666666666666L31.4525,98.33333333333334L32.002500000000005,98.33333333333334L32.29,157.33333333333331L32.760000000000005,118.00000000000001L33.0475,157.33333333333331L33.557500000000005,98.33333333333334L34.1975,78.66666666666666L34.485,157.33333333333331L34.7725,157.33333333333331L35.125,137.66666666666666L35.635,98.33333333333334L36.0325,137.66666666666666L36.31,157.33333333333331L36.6675,137.66666666666666L37.1275,118.00000000000001L37.5975,118.00000000000001L37.88,157.33333333333331L38.1625,157.33333333333331L38.44499999999999,157.33333333333331L38.732499999999995,157.33333333333331L39.015,157.33333333333331L39.292500000000004,157.33333333333331L39.57,157.33333333333331L40.029999999999994,118.00000000000001L40.3825,137.66666666666666L40.665,157.33333333333331L41.0875,118.00000000000001L41.37,157.33333333333331L41.785000000000004,118.00000000000001L42.0575,157.33333333333331L42.34,157.33333333333331L42.6925,137.66666666666666L43.225,98.33333333333334L43.6925,118.00000000000001L43.975,157.33333333333331L44.57000000000001,98.33333333333334L45.405,59.00000000000001L45.692499999999995,157.33333333333331L46.08,137.66666666666666L46.3525,157.33333333333331L46.8125,118.00000000000001L47.277499999999996,118.00000000000001L47.565,157.33333333333331L47.847500000000004,157.33333333333331L48.2775,118.00000000000001L48.565,157.33333333333331L49.040000000000006,118.00000000000001L49.3225,157.33333333333331L49.712500000000006,137.66666666666666L50,157.33333333333331L50.2875,157.33333333333331L50.645,137.66666666666666L50.932500000000005,157.33333333333331L51.22,157.33333333333331L51.5775,137.66666666666666L52.01,118.00000000000001L52.2975,157.33333333333331L52.58,157.33333333333331L52.8575,157.33333333333331L53.145,157.33333333333331L53.432500000000005,157.33333333333331L53.775,137.66666666666666L54.0575,157.33333333333331L54.480000000000004,118.00000000000001L54.985,98.33333333333334L55.445,118.00000000000001L56.1575,78.66666666666666L56.5775,118.00000000000001L56.972500000000004,137.66666666666666L57.315,137.66666666666666L57.775,118.00000000000001L58.487500000000004,78.66666666666666L58.76,157.33333333333331L59.22,118.00000000000001L60.195,-19.666666666666675L60.835,98.33333333333334L61.122499999999995,157.33333333333331L61.405,157.33333333333331L61.87,118.00000000000001L62.1475,157.33333333333331L62.6075,118.00000000000001L63.067499999999995,118.00000000000001L63.5325,118.00000000000001L63.885,137.66666666666666L64.1725,157.33333333333331L64.46000000000001,157.33333333333331L64.92,118.00000000000001L65.19749999999999,157.33333333333331L65.485,157.33333333333331L65.945,118.00000000000001L66.3075,137.66666666666666L66.73,118.00000000000001L67.0125,157.33333333333331L67.3,157.33333333333331L67.5875,157.33333333333331L67.975,137.66666666666666L68.2475,157.33333333333331L68.6375,137.66666666666666L68.925,157.33333333333331L69.39,118.00000000000001L69.85,118.00000000000001L70.47,78.66666666666666L70.7425,157.33333333333331L71.03,157.33333333333331L71.375,137.66666666666666L71.84,118.00000000000001L72.1275,157.33333333333331L72.5875,118.00000000000001L73.2325,78.66666666666666L73.52,157.33333333333331L73.8025,157.33333333333331L74.2,137.66666666666666L74.4875,157.33333333333331L74.89500000000001,137.66666666666666L75.36,118.00000000000001L75.755,137.66666666666666L76.2225,118.00000000000001L76.7375,118.00000000000001L77.02499999999999,157.33333333333331L77.30749999999999,157.33333333333331L77.6525,137.66666666666666L78.1875,98.33333333333334L78.6525,118.00000000000001L78.94,157.33333333333331L79.445,98.33333333333334L79.8375,137.66666666666666L80.3125,118.00000000000001L80.8525,98.33333333333334L81.31750000000001,118.00000000000001L81.85249999999999,98.33333333333334L82.2425,137.66666666666666L82.7025,118.00000000000001L83.09,137.66666666666666L83.55000000000001,118.00000000000001L83.8275,157.33333333333331L84.2875,118.00000000000001L84.75500000000001,118.00000000000001L85.1425,137.66666666666666L85.43,157.33333333333331L85.82000000000001,137.66666666666666L86.325,98.33333333333334L87.1,39.33333333333333L87.3725,157.33333333333331L87.8375,118.00000000000001L88.3075,118.00000000000001L88.58500000000001,157.33333333333331L89.2225,78.66666666666666L89.6225,137.66666666666666L89.9,157.33333333333331L90.36000000000001,118.00000000000001L90.63749999999999,157.33333333333331L91.2225,98.33333333333334L91.505,157.33333333333331L91.7875,157.33333333333331L92.2475,118.00000000000001L92.8275,98.33333333333334L93.2875,118.00000000000001L93.7475,118.00000000000001L94.17,118.00000000000001L94.44250000000001,157.33333333333331L94.9025,118.00000000000001L95.615,78.66666666666666L95.90249999999999,157.33333333333331L96.335,118.00000000000001L96.6125,157.33333333333331L96.9,157.33333333333331L97.36,118.00000000000001L97.6375,157.33333333333331L97.92500000000001,157.33333333333331L98.2125,157.33333333333331L98.56,137.66666666666666L98.96249999999999,137.66666666666666L99.25,157.33333333333331L99.5375,157.33333333333331L99.825,157.33333333333331L100.41,19.666666666666675L100.8075,137.66666666666666L101.3,98.33333333333334L101.765,118.00000000000001L102.225,118.00000000000001L102.835,78.66666666666666L103.23750000000001,137.66666666666666L103.7725,98.33333333333334L104.23249999999999,118.00000000000001L104.6925,118.00000000000001L105.4,78.66666666666666L105.86,118.00000000000001L106.405,98.33333333333334L106.82749999999999,118.00000000000001L107.36,98.33333333333334L107.71249999999999,137.66666666666666L108.2175,98.33333333333334L108.67750000000001,118.00000000000001L109.4225,59.00000000000001L109.955,98.33333333333334L110.24249999999999,157.33333333333331L110.95,0L111.23750000000001,157.33333333333331L111.625,137.66666666666666L112.0425,118.00000000000001L112.5025,118.00000000000001L112.775,157.33333333333331L113.1975,118.00000000000001L113.54,137.66666666666666L113.8925,137.66666666666666L114.23499999999999,137.66666666666666L114.65249999999999,118.00000000000001L115.075,118.00000000000001L115.535,118.00000000000001L115.995,118.00000000000001L116.38000000000001,137.66666666666666L116.72,137.66666666666666L117.18,118.00000000000001L117.7075,98.33333333333334L117.99499999999999,157.33333333333331L118.455,118.00000000000001L119.1475,78.66666666666666L119.6075,118.00000000000001L120.22749999999999,78.66666666666666L120.505,157.33333333333331L120.965,118.00000000000001L121.2375,157.33333333333331L121.6975,118.00000000000001L122.0375,137.66666666666666L122.54499999999999,118.00000000000001L123.075,98.33333333333334L123.71,98.33333333333334L124.17,118.00000000000001L124.5725,137.66666666666666L124.86,157.33333333333331L125.3225,118.00000000000001L125.7825,118.00000000000001L126.2425,118.00000000000001L126.58749999999999,137.66666666666666L126.875,157.33333333333331L127.2975,118.00000000000001L127.68499999999999,137.66666666666666L128.07,137.66666666666666L128.53,118.00000000000001L128.8025,157.33333333333331L129.2625,118.00000000000001L129.7225,118.00000000000001L129.995,157.33333333333331L130.4575,118.00000000000001L131.0375,98.33333333333334L131.425,137.66666666666666L132.175,59.00000000000001L132.4475,157.33333333333331L132.79,137.66666666666666L133.1325,137.66666666666666L133.405,157.33333333333331L133.98499999999999,98.33333333333334L134.32999999999998,137.66666666666666L134.7525,118.00000000000001L135.175,118.00000000000001L135.51749999999998,137.66666666666666L135.935,118.00000000000001L136.335,137.66666666666666L136.8425,118.00000000000001L137.12,157.33333333333331L137.54250000000002,118.00000000000001L137.82,157.33333333333331L138.2425,118.00000000000001L138.59,137.66666666666666L139.0075,118.00000000000001L139.4675,118.00000000000001L139.92749999999998,118.00000000000001L140.58,78.66666666666666L141.04,118.00000000000001L141.5,118.00000000000001L142.105,78.66666666666666L142.615,118.00000000000001L143.125,118.00000000000001L143.5125,137.66666666666666L143.855,137.66666666666666L144.1275,157.33333333333331L144.525,137.66666666666666L144.7975,157.33333333333331L145.215,118.00000000000001L145.7225,118.00000000000001L146.10999999999999,137.66666666666666L146.495,137.66666666666666L146.7675,157.33333333333331L147.2775,118.00000000000001L147.85750000000002,98.33333333333334L148.13,157.33333333333331L148.4025,157.33333333333331L148.67499999999998,157.33333333333331L149.06,137.66666666666666L149.5175,118.00000000000001L149.8675,137.66666666666666L150.255,137.66666666666666L150.5275,157.33333333333331L150.915,137.66666666666666L151.1875,157.33333333333331L151.60250000000002,118.00000000000001L151.875,157.33333333333331L152.1475,157.33333333333331L152.495,137.66666666666666L152.8375,137.66666666666666L153.345,118.00000000000001L153.61749999999998,157.33333333333331L153.9575,137.66666666666666L154.23,157.33333333333331L154.96499999999997,59.00000000000001L155.2375,157.33333333333331L155.6225,137.66666666666666L156.04749999999999,118.00000000000001L156.32,157.33333333333331L156.785,118.00000000000001L157.245,118.00000000000001L157.5925,137.66666666666666L158.0975,98.33333333333334L158.63500000000002,98.33333333333334L159.26000000000002,98.33333333333334L159.6075,137.66666666666666L160.1225,118.00000000000001L160.63250000000002,118.00000000000001L161.215,98.33333333333334L162.04500000000002,39.33333333333333L162.75,78.66666666666666L163.1375,137.66666666666666L163.6475,118.00000000000001L164.035,137.66666666666666L164.3075,157.33333333333331L164.6925,137.66666666666666L164.96499999999997,157.33333333333331L165.475,118.00000000000001L166.1725,78.66666666666666L166.445,157.33333333333331L166.84,137.66666666666666L167.23,137.66666666666666L167.6975,118.00000000000001L168.08749999999998,137.66666666666666L168.47250000000003,137.66666666666666L168.85750000000002,137.66666666666666L169.2825,118.00000000000001L169.91,98.33333333333334L170.54,98.33333333333334L170.8125,157.33333333333331L171.085,157.33333333333331L171.7175,98.33333333333334L171.99,157.33333333333331L172.2625,157.33333333333331L172.795,98.33333333333334L173.0675,157.33333333333331L173.495,118.00000000000001L174.22,59.00000000000001L174.61499999999998,137.66666666666666L175.1225,118.00000000000001L175.75,98.33333333333334L176.21,118.00000000000001L176.8425,98.33333333333334L177.23,137.66666666666666L177.625,137.66666666666666L177.9725,137.66666666666666L178.5875,78.66666666666666L179.0975,118.00000000000001L179.5575,118.00000000000001L180.05999999999997,118.00000000000001L180.3325,157.33333333333331L180.7225,137.66666666666666L181.1875,118.00000000000001L181.69,118.00000000000001L182.2,118.00000000000001L182.4725,157.33333333333331L182.9375,118.00000000000001L183.2775,137.66666666666666L183.86249999999998,98.33333333333334L184.3725,118.00000000000001L184.7575,137.66666666666666L185.21499999999997,118.00000000000001L185.60500000000002,137.66666666666666L186.065,118.00000000000001L186.525,118.00000000000001L186.98499999999999,118.00000000000001L187.68,78.66666666666666L188.1875,118.00000000000001L188.64749999999998,118.00000000000001L189.035,137.66666666666666L189.54500000000002,118.00000000000001L190.0525,118.00000000000001L190.5125,118.00000000000001L191.145,98.33333333333334L191.53,137.66666666666666L191.995,118.00000000000001L192.45499999999998,118.00000000000001L192.8425,137.66666666666666L193.3025,118.00000000000001L193.8125,118.00000000000001L194.39749999999998,98.33333333333334L194.74,137.66666666666666L195.0825,137.66666666666666L195.59,118.00000000000001L195.86249999999998,157.33333333333331L196.3725,118.00000000000001L196.87750000000003,118.00000000000001L197.3875,118.00000000000001L197.8475,118.00000000000001L198.36,118.00000000000001L198.87,118.00000000000001L199.5,98.33333333333334L200.01,118.00000000000001L200.52,118.00000000000001L200.7925,157.33333333333331L201.1825,137.66666666666666L201.6875,118.00000000000001L201.96,157.33333333333331L202.47000000000003,118.00000000000001L203.065,98.33333333333334L203.57250000000002,118.00000000000001L203.845,157.33333333333331L204.3525,118.00000000000001L204.8125,118.00000000000001L205.4225,78.66666666666666L205.695,157.33333333333331L206.0375,137.66666666666666L206.6225,98.33333333333334L207.0125,137.66666666666666L207.285,157.33333333333331L207.5575,157.33333333333331L207.9475,137.66666666666666L208.22000000000003,157.33333333333331L208.5625,137.66666666666666L209.07,118.00000000000001L209.455,137.66666666666666L209.965,118.00000000000001L210.4725,118.00000000000001L210.745,157.33333333333331L211.275,98.33333333333334L211.5475,157.33333333333331L211.82,157.33333333333331L212.1625,137.66666666666666L212.43499999999997,157.33333333333331L213.01250000000002,98.33333333333334L213.4025,137.66666666666666L214.0325,98.33333333333334L214.305,157.33333333333331L214.64749999999998,137.66666666666666L215.035,137.66666666666666L215.30749999999998,157.33333333333331L215.8175,118.00000000000001L216.09,157.33333333333331L216.51,118.00000000000001L217.215,78.66666666666666L217.745,98.33333333333334L218.2525,118.00000000000001L218.7875,98.33333333333334L219.4125,98.33333333333334L219.68499999999997,157.33333333333331L220.145,118.00000000000001L220.4175,157.33333333333331L220.925,118.00000000000001L221.1975,157.33333333333331L221.6575,118.00000000000001L222.16500000000002,118.00000000000001L222.82,78.66666666666666L223.28,118.00000000000001L223.74,118.00000000000001L224.35,78.66666666666666L224.86,118.00000000000001L225.32,118.00000000000001L225.66750000000002,137.66666666666666L226.1275,118.00000000000001L226.515,137.66666666666666L226.89999999999998,137.66666666666666L227.37,118.00000000000001L227.71249999999998,137.66666666666666L228.17,118.00000000000001L228.4425,157.33333333333331L228.83249999999998,137.66666666666666L229.2975,118.00000000000001L229.7575,118.00000000000001L230.1425,137.66666666666666L230.415,157.33333333333331L230.875,118.00000000000001L231.37750000000003,118.00000000000001L231.76250000000002,137.66666666666666L232.5425,0L233.0525,118.00000000000001L233.47,118.00000000000001L233.9725,118.00000000000001L234.245,157.33333333333331L234.5175,157.33333333333331L234.79,157.33333333333331L235.175,137.66666666666666L235.63750000000002,118.00000000000001L236.215,98.33333333333334L236.48749999999998,157.33333333333331L236.9475,118.00000000000001L237.335,137.66666666666666L237.8725,98.33333333333334L238.3325,118.00000000000001L238.605,157.33333333333331L238.8775,157.33333333333331L239.15,157.33333333333331L239.60999999999999,118.00000000000001L239.88250000000002,157.33333333333331L240.3475,118.00000000000001L240.62,157.33333333333331L241.03750000000002,118.00000000000001L241.315,157.33333333333331L241.655,137.66666666666666L242.07750000000001,118.00000000000001L242.4175,137.66666666666666L242.69,157.33333333333331L243.2225,98.33333333333334L243.61,137.66666666666666L244.14,98.33333333333334L244.6,118.00000000000001L244.9875,137.66666666666666L245.41,118.00000000000001L245.945,98.33333333333334L246.285,137.66666666666666L246.70749999999998,118.00000000000001L247.0925,137.66666666666666L247.555,118.00000000000001L248.0975,98.33333333333334L248.49,137.66666666666666L249.02499999999998,98.33333333333334L249.37,137.66666666666666L249.7575,137.66666666666666L250.10250000000002,137.66666666666666L250.75750000000002,78.66666666666666L251.03,157.33333333333331L251.30249999999998,157.33333333333331L251.6875,137.66666666666666L252.14749999999998,118.00000000000001L252.6175,118.00000000000001L253.17,98.33333333333334L253.51,137.66666666666666L253.7825,157.33333333333331L254.055,157.33333333333331L254.39499999999998,137.66666666666666L254.8575,118.00000000000001L255.36499999999998,118.00000000000001L255.825,118.00000000000001L256.09749999999997,157.33333333333331L256.565,118.00000000000001L257.1025,98.33333333333334L257.56,118.00000000000001L257.9475,137.66666666666666L258.2875,137.66666666666666L258.6725,137.66666666666666L259.095,118.00000000000001L259.3675,157.33333333333331L259.785,118.00000000000001L260.125,137.66666666666666L260.5425,118.00000000000001L260.9575,118.00000000000001L261.4925,98.33333333333334L261.91,118.00000000000001L262.3725,118.00000000000001L262.8825,118.00000000000001L263.3,118.00000000000001L263.64,137.66666666666666L263.98,137.66666666666666L264.2525,157.33333333333331L264.59749999999997,137.66666666666666L265.015,118.00000000000001L265.35499999999996,137.66666666666666L265.695,137.66666666666666L266.1125,118.00000000000001L266.53,118.00000000000001L266.9475,118.00000000000001L267.365,118.00000000000001L267.8275,118.00000000000001L268.29,118.00000000000001L268.6325,137.66666666666666L269.095,118.00000000000001L269.5125,118.00000000000001L269.8525,137.66666666666666L270.24,137.66666666666666L270.625,137.66666666666666L270.9675,137.66666666666666L271.31,137.66666666666666L271.65250000000003,137.66666666666666L272.115,118.00000000000001L272.5325,118.00000000000001L272.8725,137.66666666666666L273.34000000000003,118.00000000000001L273.7625,118.00000000000001L274.15500000000003,137.66666666666666L274.65250000000003,98.33333333333334L274.9925,137.66666666666666" style="fill: none;" fill="none"></path></g></g></g></g></g></g><g transform="translate(30, 177)" clip-path="url(#clip_1)"><clipPath id="clip_1"><rect width="300" height="23"></rect></clipPath><g><g><line x1="0" y1="0" x2="0" y2="5" style="visibility: inherit;" fill="rgb(0, 0, 0)" stroke="rgb(204, 204, 204)" stroke-width="1px"></line><line x1="25" y1="0" x2="25" y2="5" style="visibility: inherit;" fill="rgb(0, 0, 0)" stroke="rgb(204, 204, 204)" stroke-width="1px"></line><line x1="50" y1="0" x2="50" y2="5" style="visibility: inherit;" fill="rgb(0, 0, 0)" stroke="rgb(204, 204, 204)" stroke-width="1px"></line><line x1="75" y1="0" x2="75" y2="5" style="visibility: inherit;" fill="rgb(0, 0, 0)" stroke="rgb(204, 204, 204)" stroke-width="1px"></line><line x1="100" y1="0" x2="100" y2="5" style="visibility: inherit;" fill="rgb(0, 0, 0)" stroke="rgb(204, 204, 204)" stroke-width="1px"></line><line x1="125" y1="0" x2="125" y2="5" style="visibility: inherit;" fill="rgb(0, 0, 0)" stroke="rgb(204, 204, 204)" stroke-width="1px"></line><line x1="150" y1="0" x2="150" y2="5" style="visibility: inherit;" fill="rgb(0, 0, 0)" stroke="rgb(204, 204, 204)" stroke-width="1px"></line><line x1="175" y1="0" x2="175" y2="5" style="visibility: inherit;" fill="rgb(0, 0, 0)" stroke="rgb(204, 204, 204)" stroke-width="1px"></line><line x1="200" y1="0" x2="200" y2="5" style="visibility: inherit;" fill="rgb(0, 0, 0)" stroke="rgb(204, 204, 204)" stroke-width="1px"></line><line x1="225" y1="0" x2="225" y2="5" style="visibility: inherit;" fill="rgb(0, 0, 0)" stroke="rgb(204, 204, 204)" stroke-width="1px"></line><line x1="250" y1="0" x2="250" y2="5" style="visibility: inherit;" fill="rgb(0, 0, 0)" stroke="rgb(204, 204, 204)" stroke-width="1px"></line><line x1="275" y1="0" x2="275" y2="5" style="visibility: inherit;" fill="rgb(0, 0, 0)" stroke="rgb(204, 204, 204)" stroke-width="1px"></line><line x1="300" y1="0" x2="300" y2="5" style="visibility: inherit;" fill="rgb(0, 0, 0)" stroke="rgb(204, 204, 204)" stroke-width="1px"></line></g><g transform="translate(0, 8)"><text x="0" y="0" dx="0em" dy="0.95em" style="text-anchor: middle; visibility: hidden; font-family: Roboto, sans-serif; font-size: 12px; font-weight: 200;" fill="rgb(33, 33, 33)" stroke="none" stroke-width="1px">-10k</text><text x="25" y="0" dx="0em" dy="0.95em" style="text-anchor: middle; visibility: inherit; font-family: Roboto, sans-serif; font-size: 12px; font-weight: 200;" fill="rgb(33, 33, 33)" stroke="none" stroke-width="1px">0</text><text x="50" y="0" dx="0em" dy="0.95em" style="text-anchor: middle; visibility: hidden; font-family: Roboto, sans-serif; font-size: 12px; font-weight: 200;" fill="rgb(33, 33, 33)" stroke="none" stroke-width="1px">10k</text><text x="75" y="0" dx="0em" dy="0.95em" style="text-anchor: middle; visibility: inherit; font-family: Roboto, sans-serif; font-size: 12px; font-weight: 200;" fill="rgb(33, 33, 33)" stroke="none" stroke-width="1px">20k</text><text x="100" y="0" dx="0em" dy="0.95em" style="text-anchor: middle; visibility: hidden; font-family: Roboto, sans-serif; font-size: 12px; font-weight: 200;" fill="rgb(33, 33, 33)" stroke="none" stroke-width="1px">30k</text><text x="125" y="0" dx="0em" dy="0.95em" style="text-anchor: middle; visibility: inherit; font-family: Roboto, sans-serif; font-size: 12px; font-weight: 200;" fill="rgb(33, 33, 33)" stroke="none" stroke-width="1px">40k</text><text x="150" y="0" dx="0em" dy="0.95em" style="text-anchor: middle; visibility: hidden; font-family: Roboto, sans-serif; font-size: 12px; font-weight: 200;" fill="rgb(33, 33, 33)" stroke="none" stroke-width="1px">50k</text><text x="175" y="0" dx="0em" dy="0.95em" style="text-anchor: middle; visibility: inherit; font-family: Roboto, sans-serif; font-size: 12px; font-weight: 200;" fill="rgb(33, 33, 33)" stroke="none" stroke-width="1px">60k</text><text x="200" y="0" dx="0em" dy="0.95em" style="text-anchor: middle; visibility: hidden; font-family: Roboto, sans-serif; font-size: 12px; font-weight: 200;" fill="rgb(33, 33, 33)" stroke="none" stroke-width="1px">70k</text><text x="225" y="0" dx="0em" dy="0.95em" style="text-anchor: middle; visibility: inherit; font-family: Roboto, sans-serif; font-size: 12px; font-weight: 200;" fill="rgb(33, 33, 33)" stroke="none" stroke-width="1px">80k</text><text x="250" y="0" dx="0em" dy="0.95em" style="text-anchor: middle; visibility: hidden; font-family: Roboto, sans-serif; font-size: 12px; font-weight: 200;" fill="rgb(33, 33, 33)" stroke="none" stroke-width="1px">90k</text><text x="275" y="0" dx="0em" dy="0.95em" style="text-anchor: middle; visibility: inherit; font-family: Roboto, sans-serif; font-size: 12px; font-weight: 200;" fill="rgb(33, 33, 33)" stroke="none" stroke-width="1px">100k</text><text x="300" y="0" dx="0em" dy="0.95em" style="text-anchor: middle; visibility: hidden; font-family: Roboto, sans-serif; font-size: 12px; font-weight: 200;" fill="rgb(33, 33, 33)" stroke="none" stroke-width="1px">110k</text></g><line x1="0" y1="0" x2="300" y2="0" fill="rgb(0, 0, 0)" stroke="rgb(204, 204, 204)" stroke-width="1px"></line></g></g></g></g></svg>