<?xml version="1.0" encoding="utf-8" standalone="no"?>
<!DOCTYPE svg PUBLIC "-//W3C//DTD SVG 1.1//EN"
  "http://www.w3.org/Graphics/SVG/1.1/DTD/svg11.dtd">
<svg xmlns:xlink="http://www.w3.org/1999/xlink" width="720pt" height="432pt" viewBox="0 0 720 432" xmlns="http://www.w3.org/2000/svg" version="1.1">
 <metadata>
  <rdf:RDF xmlns:dc="http://purl.org/dc/elements/1.1/" xmlns:cc="http://creativecommons.org/ns#" xmlns:rdf="http://www.w3.org/1999/02/22-rdf-syntax-ns#">
   <cc:Work>
    <dc:type rdf:resource="http://purl.org/dc/dcmitype/StillImage"/>
    <dc:date>2025-02-05T20:31:45.520074</dc:date>
    <dc:format>image/svg+xml</dc:format>
    <dc:creator>
     <cc:Agent>
      <dc:title>Matplotlib v3.10.0, https://matplotlib.org/</dc:title>
     </cc:Agent>
    </dc:creator>
   </cc:Work>
  </rdf:RDF>
 </metadata>
 <defs>
  <style type="text/css">*{stroke-linejoin: round; stroke-linecap: butt}</style>
 </defs>
 <g id="figure_1">
  <g id="patch_1">
   <path d="M 0 432 
L 720 432 
L 720 0 
L 0 0 
z
" style="fill: #ffffff"/>
  </g>
  <g id="axes_1">
   <g id="patch_2">
    <path d="M 62.67125 390.04 
L 709.2 390.04 
L 709.2 25.44 
L 62.67125 25.44 
z
" style="fill: #ffffff"/>
   </g>
   <g id="FillBetweenPolyCollection_1">
    <defs>
     <path id="me0ec775ba2" d="M 92.05892 -321.363358 
L 92.05892 -274.625544 
L 92.647262 -274.625544 
L 93.235604 -274.625544 
L 93.823946 -274.625544 
L 94.412287 -274.625544 
L 95.000629 -274.625544 
L 95.588971 -274.625544 
L 96.177313 -274.625544 
L 96.765654 -274.625544 
L 97.353996 -274.625544 
L 97.942338 -274.625544 
L 98.53068 -274.625544 
L 99.119021 -274.625544 
L 99.707363 -274.625544 
L 100.295705 -274.625544 
L 100.884047 -274.625544 
L 101.472388 -274.625544 
L 102.06073 -274.330131 
L 102.649072 -273.805503 
L 103.237414 -273.280874 
L 103.825755 -272.756246 
L 104.414097 -272.231617 
L 105.002439 -271.706989 
L 105.590781 -271.18236 
L 106.179122 -270.657732 
L 106.767464 -270.133103 
L 107.355806 -269.608475 
L 107.944148 -269.083846 
L 108.532489 -268.559218 
L 109.120831 -268.034589 
L 109.709173 -267.509961 
L 110.297515 -266.985333 
L 110.885856 -266.460704 
L 111.474198 -265.936076 
L 112.06254 -265.411447 
L 112.650882 -266.452127 
L 113.239223 -268.026897 
L 113.827565 -269.601666 
L 114.415907 -271.176436 
L 115.004249 -272.751206 
L 115.59259 -274.325975 
L 116.180932 -275.900745 
L 116.769274 -277.475514 
L 117.357616 -279.050284 
L 117.945957 -280.625054 
L 118.534299 -282.199823 
L 119.122641 -282.787324 
L 119.710983 -283.125044 
L 120.299324 -282.615386 
L 120.887666 -282.557509 
L 121.476008 -282.499631 
L 122.06435 -282.441754 
L 122.652691 -282.383876 
L 123.241033 -282.325999 
L 123.829375 -282.496322 
L 124.417717 -282.775232 
L 125.006059 -283.054141 
L 125.5944 -283.33182 
L 126.182742 -283.33182 
L 126.771084 -283.33182 
L 127.359426 -281.699753 
L 127.947767 -279.078083 
L 128.536109 -276.456413 
L 129.124451 -273.834742 
L 129.712793 -271.213072 
L 130.301134 -268.591402 
L 130.889476 -265.969731 
L 131.477818 -263.348061 
L 132.06616 -260.726391 
L 132.654501 -258.104721 
L 133.242843 -255.795981 
L 133.831185 -255.008154 
L 134.419527 -254.220327 
L 135.007868 -245.858754 
L 135.59621 -235.377954 
L 136.184552 -224.897155 
L 136.772894 -214.416355 
L 137.361235 -203.935555 
L 137.949577 -193.454756 
L 138.537919 -182.973956 
L 139.126261 -172.493156 
L 139.714602 -162.012356 
L 140.302944 -151.531557 
L 140.891286 -141.050757 
L 141.479628 -130.569957 
L 142.067969 -120.089158 
L 142.656311 -109.608358 
L 143.244653 -99.127558 
L 143.832995 -93.553021 
L 144.421336 -96.965022 
L 145.009678 -100.377023 
L 145.59802 -103.789024 
L 146.186362 -107.201025 
L 146.774703 -110.613025 
L 147.363045 -114.025026 
L 147.951387 -117.437027 
L 148.539729 -120.849028 
L 149.12807 -124.261029 
L 149.716412 -127.673029 
L 150.304754 -131.08503 
L 150.893096 -134.497031 
L 151.481437 -137.909032 
L 152.069779 -141.321032 
L 152.658121 -144.733033 
L 153.246463 -148.145034 
L 153.834804 -151.557035 
L 154.423146 -152.534363 
L 155.011488 -151.484516 
L 155.59983 -150.43467 
L 156.188171 -149.384823 
L 156.776513 -148.334977 
L 157.364855 -147.285131 
L 157.953197 -146.235284 
L 158.541538 -145.185438 
L 159.12988 -144.135591 
L 159.718222 -143.085745 
L 160.306564 -142.035899 
L 160.894905 -140.986052 
L 161.483247 -139.936206 
L 162.071589 -138.886359 
L 162.659931 -137.836513 
L 163.248272 -136.786667 
L 163.836614 -135.73682 
L 164.424956 -134.686974 
L 165.013298 -140.217881 
L 165.601639 -143.052167 
L 166.189981 -145.415649 
L 166.778323 -147.779132 
L 167.366665 -150.142614 
L 167.955006 -152.506096 
L 168.543348 -148.256732 
L 169.13169 -142.738839 
L 169.720032 -137.220945 
L 170.308373 -131.703052 
L 170.896715 -126.185158 
L 171.485057 -120.667265 
L 172.073399 -115.149371 
L 172.66174 -109.631478 
L 173.250082 -104.113584 
L 173.838424 -98.595691 
L 174.426766 -93.077797 
L 175.015107 -87.864711 
L 175.603449 -97.050867 
L 176.191791 -106.237023 
L 176.780133 -115.423179 
L 177.368474 -124.609335 
L 177.956816 -133.795491 
L 178.545158 -142.981647 
L 179.1335 -152.167803 
L 179.721841 -161.353959 
L 180.310183 -170.540115 
L 180.898525 -179.726271 
L 181.486867 -188.912426 
L 182.075208 -198.098582 
L 182.66355 -199.096501 
L 183.251892 -191.489388 
L 183.840234 -183.882275 
L 184.428575 -176.275162 
L 185.016917 -168.66805 
L 185.605259 -163.659092 
L 186.193601 -170.231709 
L 186.781942 -176.804326 
L 187.370284 -183.376944 
L 187.958626 -189.949561 
L 188.546968 -196.522179 
L 189.135309 -203.094796 
L 189.723651 -209.667414 
L 190.311993 -216.240031 
L 190.900335 -222.812648 
L 191.488676 -229.385266 
L 192.077018 -235.957883 
L 192.66536 -235.220091 
L 193.253702 -233.907046 
L 193.842043 -232.594 
L 194.430385 -231.280954 
L 195.018727 -229.967909 
L 195.607069 -228.654863 
L 196.19541 -226.139828 
L 196.783752 -221.935718 
L 197.372094 -217.731609 
L 197.960436 -213.5275 
L 198.548777 -209.32339 
L 199.137119 -205.119281 
L 199.725461 -200.915172 
L 200.313803 -196.711062 
L 200.902144 -192.506953 
L 201.490486 -188.302844 
L 202.078828 -184.098734 
L 202.66717 -179.894625 
L 203.255511 -175.690516 
L 203.843853 -171.486406 
L 204.432195 -167.282297 
L 205.020537 -163.078188 
L 205.608878 -158.874079 
L 206.19722 -154.669969 
L 206.785562 -157.236685 
L 207.373904 -163.809302 
L 207.962245 -170.38192 
L 208.550587 -176.954537 
L 209.138929 -183.527155 
L 209.727271 -190.099772 
L 210.315612 -196.67239 
L 210.903954 -203.245007 
L 211.492296 -209.817625 
L 212.080638 -216.390242 
L 212.668979 -222.962859 
L 213.257321 -229.526726 
L 213.845663 -225.594221 
L 214.434005 -221.661716 
L 215.022346 -217.72921 
L 215.610688 -213.796705 
L 216.19903 -209.864199 
L 216.787372 -205.931694 
L 217.375713 -204.687176 
L 217.964055 -204.949933 
L 218.552397 -205.21269 
L 219.140739 -205.475446 
L 219.72908 -205.738203 
L 220.317422 -206.00096 
L 220.905764 -206.263717 
L 221.494106 -206.526474 
L 222.082447 -206.789231 
L 222.670789 -207.051987 
L 223.259131 -207.297512 
L 223.847473 -201.523357 
L 224.435814 -195.749202 
L 225.024156 -189.975047 
L 225.612498 -184.200891 
L 226.20084 -178.426736 
L 226.789181 -172.652581 
L 227.377523 -167.151337 
L 227.965865 -167.676851 
L 228.554207 -168.202364 
L 229.142548 -168.727878 
L 229.73089 -169.253392 
L 230.319232 -169.778905 
L 230.907574 -170.304419 
L 231.495915 -170.829933 
L 232.084257 -171.355446 
L 232.672599 -171.88096 
L 233.260941 -172.406474 
L 233.849282 -172.931987 
L 234.437624 -173.457501 
L 235.025966 -173.983015 
L 235.614308 -174.508528 
L 236.202649 -175.034042 
L 236.790991 -175.559556 
L 237.379333 -176.085069 
L 237.967675 -176.005297 
L 238.556016 -174.164964 
L 239.144358 -172.324631 
L 239.7327 -170.484298 
L 240.321042 -168.643966 
L 240.909383 -166.803633 
L 241.497725 -164.9633 
L 242.086067 -163.122967 
L 242.674409 -161.282634 
L 243.26275 -159.442301 
L 243.851092 -157.601968 
L 244.439434 -155.761635 
L 245.027776 -153.921302 
L 245.616117 -152.08097 
L 246.204459 -150.240637 
L 246.792801 -148.400304 
L 247.381143 -146.559971 
L 247.969484 -144.719638 
L 248.557826 -143.383426 
L 249.146168 -142.596925 
L 249.73451 -141.810424 
L 250.322851 -141.023923 
L 250.911193 -140.237422 
L 251.499535 -139.450921 
L 252.087877 -138.664419 
L 252.676218 -137.877918 
L 253.26456 -137.091417 
L 253.852902 -136.304916 
L 254.441244 -135.518415 
L 255.029585 -134.731914 
L 255.617927 -133.945413 
L 256.206269 -133.158912 
L 256.794611 -132.372411 
L 257.382952 -131.58591 
L 257.971294 -130.799409 
L 258.559636 -130.012907 
L 259.147978 -134.857453 
L 259.736319 -142.722464 
L 260.324661 -150.587474 
L 260.913003 -158.452485 
L 261.501345 -166.317496 
L 262.089686 -174.182507 
L 262.678028 -182.047518 
L 263.26637 -189.912529 
L 263.854712 -197.77754 
L 264.443053 -205.642551 
L 265.031395 -213.507562 
L 265.619737 -221.372573 
L 266.208079 -229.237583 
L 266.79642 -237.102594 
L 267.384762 -244.967605 
L 267.973104 -252.418243 
L 268.561446 -251.894203 
L 269.149787 -251.370163 
L 269.738129 -254.747957 
L 270.326471 -257.689119 
L 270.914813 -258.740146 
L 271.503154 -259.791174 
L 272.091496 -260.842201 
L 272.679838 -261.893228 
L 273.26818 -262.944256 
L 273.856521 -263.995283 
L 274.444863 -265.04631 
L 275.033205 -266.097338 
L 275.621547 -267.148365 
L 276.209888 -268.199392 
L 276.79823 -269.25042 
L 277.386572 -270.301447 
L 277.974914 -271.352474 
L 278.563255 -272.403502 
L 279.151597 -273.454529 
L 279.739939 -274.505556 
L 280.328281 -265.800519 
L 280.916622 -255.838172 
L 281.504964 -245.875825 
L 282.093306 -235.913478 
L 282.681648 -225.951131 
L 283.269989 -215.988784 
L 283.858331 -206.026436 
L 284.446673 -196.064089 
L 285.035015 -186.101742 
L 285.623356 -176.139395 
L 286.211698 -166.177048 
L 286.80004 -156.214701 
L 287.388382 -146.252354 
L 287.976723 -136.290007 
L 288.565065 -126.327659 
L 289.153407 -116.365312 
L 289.741749 -106.402965 
L 290.33009 -97.404669 
L 290.918432 -103.966209 
L 291.506774 -110.527749 
L 292.095116 -117.089289 
L 292.683457 -123.650829 
L 293.271799 -130.212369 
L 293.860141 -136.773909 
L 294.448483 -143.335449 
L 295.036824 -149.896989 
L 295.625166 -156.458528 
L 296.213508 -163.020068 
L 296.80185 -169.581608 
L 297.390191 -176.143148 
L 297.978533 -182.704688 
L 298.566875 -189.266228 
L 299.155217 -195.827768 
L 299.743559 -202.389308 
L 300.3319 -208.950848 
L 300.920242 -210.031434 
L 301.508584 -212.915272 
L 302.096926 -215.799109 
L 302.685267 -218.682946 
L 303.273609 -221.566784 
L 303.861951 -224.450621 
L 304.450293 -227.334458 
L 305.038634 -230.218296 
L 305.626976 -233.102133 
L 306.215318 -235.98597 
L 306.80366 -238.869808 
L 307.392001 -241.753645 
L 307.980343 -244.637482 
L 308.568685 -247.52132 
L 309.157027 -250.405157 
L 309.745368 -253.288994 
L 310.33371 -256.172832 
L 310.922052 -259.056669 
L 311.510394 -260.6042 
L 312.098735 -259.877006 
L 312.687077 -247.292989 
L 313.275419 -234.708971 
L 313.863761 -222.124954 
L 314.452102 -209.540936 
L 315.040444 -196.956919 
L 315.628786 -184.372902 
L 316.217128 -171.788884 
L 316.805469 -159.204867 
L 317.393811 -146.620849 
L 317.982153 -134.036832 
L 318.570495 -121.452814 
L 319.158836 -108.868797 
L 319.747178 -96.28478 
L 320.33552 -83.700762 
L 320.923862 -71.116745 
L 321.512203 -58.532727 
L 322.100545 -64.717683 
L 322.688887 -78.350368 
L 323.277229 -91.983054 
L 323.86557 -105.615739 
L 324.453912 -119.248425 
L 325.042254 -132.881111 
L 325.630596 -146.513796 
L 326.218937 -160.146482 
L 326.807279 -173.779167 
L 327.395621 -187.411853 
L 327.983963 -201.044538 
L 328.572304 -214.677224 
L 329.160646 -222.837184 
L 329.748988 -220.214041 
L 330.33733 -217.590899 
L 330.925671 -214.967757 
L 331.514013 -212.344614 
L 332.102355 -209.721472 
L 332.690697 -213.807781 
L 333.279038 -219.588431 
L 333.86738 -225.369082 
L 334.455722 -231.149732 
L 335.044064 -236.930382 
L 335.632405 -242.711032 
L 336.220747 -248.491683 
L 336.809089 -254.272333 
L 337.397431 -253.811147 
L 337.985772 -249.878641 
L 338.574114 -245.946136 
L 339.162456 -242.01363 
L 339.750798 -238.081125 
L 340.339139 -234.148619 
L 340.927481 -230.216114 
L 341.515823 -226.283609 
L 342.104165 -222.351103 
L 342.692506 -218.670205 
L 343.280848 -222.87668 
L 343.86919 -227.083156 
L 344.457532 -231.289631 
L 345.045873 -235.496106 
L 345.634215 -239.702581 
L 346.222557 -243.608837 
L 346.810899 -244.658684 
L 347.39924 -245.70853 
L 347.987582 -246.758376 
L 348.575924 -247.808223 
L 349.164266 -248.858069 
L 349.752607 -249.907916 
L 350.340949 -250.957762 
L 350.929291 -252.007608 
L 351.517633 -253.057455 
L 352.105974 -254.107301 
L 352.694316 -253.494177 
L 353.282658 -250.896038 
L 353.871 -249.846191 
L 354.459341 -248.796345 
L 355.047683 -247.746499 
L 355.636025 -246.696652 
L 356.224367 -245.646806 
L 356.812708 -244.596959 
L 357.40105 -243.547113 
L 357.989392 -242.497267 
L 358.577734 -241.44742 
L 359.166075 -240.397574 
L 359.754417 -239.347727 
L 360.342759 -238.297881 
L 360.931101 -237.248035 
L 361.519442 -236.198188 
L 362.107784 -235.148342 
L 362.696126 -234.098495 
L 363.284468 -233.048649 
L 363.872809 -229.185261 
L 364.461151 -222.886183 
L 365.049493 -216.587104 
L 365.637835 -210.288026 
L 366.226176 -203.988947 
L 366.814518 -197.689869 
L 367.40286 -191.390791 
L 367.991202 -185.091712 
L 368.579543 -178.792634 
L 369.167885 -172.493556 
L 369.756227 -166.194477 
L 370.344569 -159.895399 
L 370.93291 -153.59632 
L 371.521252 -147.297242 
L 372.109594 -140.998164 
L 372.697936 -134.699085 
L 373.286277 -128.400007 
L 373.874619 -122.100928 
L 374.462961 -127.851922 
L 375.051303 -138.093678 
L 375.639644 -148.335434 
L 376.227986 -158.577191 
L 376.816328 -168.818947 
L 377.40467 -179.060703 
L 377.993011 -189.302459 
L 378.581353 -199.544215 
L 379.169695 -209.785971 
L 379.758037 -220.027728 
L 380.346378 -230.269484 
L 380.93472 -235.365471 
L 381.523062 -231.163724 
L 382.111404 -226.961978 
L 382.699745 -222.760232 
L 383.288087 -218.558486 
L 383.876429 -214.35674 
L 384.464771 -210.154994 
L 385.053112 -211.824581 
L 385.641454 -215.238499 
L 386.229796 -218.652418 
L 386.818138 -222.066337 
L 387.406479 -225.480256 
L 387.994821 -228.894174 
L 388.583163 -232.308093 
L 389.171505 -235.722012 
L 389.759846 -239.135931 
L 390.348188 -242.549849 
L 390.93653 -242.385922 
L 391.524872 -236.87113 
L 392.113213 -231.356338 
L 392.701555 -225.841546 
L 393.289897 -220.326755 
L 393.878239 -214.811963 
L 394.46658 -209.297171 
L 395.054922 -205.393574 
L 395.643264 -211.944074 
L 396.231606 -218.494573 
L 396.819947 -225.045073 
L 397.408289 -231.595573 
L 397.996631 -238.146073 
L 398.584973 -244.696573 
L 399.173314 -242.513147 
L 399.761656 -238.578433 
L 400.349998 -234.64372 
L 400.93834 -230.709006 
L 401.526681 -226.774293 
L 402.115023 -222.839579 
L 402.703365 -218.904866 
L 403.291707 -214.970152 
L 403.880048 -211.035439 
L 404.46839 -207.100726 
L 405.056732 -203.166012 
L 405.645074 -200.704281 
L 406.233415 -206.212879 
L 406.821757 -211.721478 
L 407.410099 -217.230077 
L 407.998441 -222.738676 
L 408.586782 -228.247275 
L 409.175124 -233.755874 
L 409.763466 -239.264473 
L 410.351808 -244.773071 
L 410.940149 -250.28167 
L 411.528491 -255.790269 
L 412.116833 -261.298868 
L 412.705175 -266.807467 
L 413.293516 -272.316066 
L 413.881858 -277.824665 
L 414.4702 -282.086553 
L 415.058542 -277.367547 
L 415.646883 -272.64854 
L 416.235225 -269.052994 
L 416.823567 -266.955658 
L 417.411909 -264.858322 
L 418.00025 -262.760985 
L 418.588592 -260.663649 
L 419.176934 -258.566313 
L 419.765276 -256.468977 
L 420.353617 -254.37164 
L 420.941959 -252.274304 
L 421.530301 -250.176968 
L 422.118643 -248.079632 
L 422.706984 -245.982295 
L 423.295326 -243.884959 
L 423.883668 -241.787623 
L 424.47201 -239.690287 
L 425.060351 -237.59295 
L 425.648693 -235.495614 
L 426.237035 -233.398278 
L 426.825377 -234.452365 
L 427.413718 -237.598369 
L 428.00206 -240.744374 
L 428.590402 -243.890378 
L 429.178744 -247.036382 
L 429.767085 -250.182387 
L 430.355427 -253.328391 
L 430.943769 -256.474395 
L 431.532111 -259.6204 
L 432.120452 -262.766404 
L 432.708794 -265.277981 
L 433.297136 -265.277981 
L 433.885478 -265.277981 
L 434.473819 -265.277981 
L 435.062161 -265.277981 
L 435.650503 -265.277981 
L 436.238845 -265.277981 
L 436.827186 -265.277981 
L 437.415528 -267.121315 
L 438.00387 -269.741515 
L 438.592212 -272.361715 
L 439.180553 -274.981915 
L 439.768895 -277.602115 
L 440.357237 -280.222315 
L 440.945579 -282.842515 
L 441.53392 -283.949267 
L 442.122262 -284.244186 
L 442.710604 -284.244186 
L 443.298946 -284.244186 
L 443.887287 -284.244186 
L 444.475629 -284.244186 
L 445.063971 -284.244186 
L 445.652313 -284.244186 
L 446.240654 -284.244186 
L 446.828996 -284.244186 
L 447.417338 -284.244186 
L 448.00568 -284.244186 
L 448.594021 -284.244186 
L 449.182363 -284.244186 
L 449.770705 -284.047752 
L 450.359047 -283.648169 
L 450.947388 -284.193073 
L 451.53573 -284.244186 
L 452.124072 -284.244186 
L 452.712414 -284.244186 
L 453.300755 -283.555361 
L 453.889097 -283.480661 
L 454.477439 -280.85457 
L 455.065781 -278.228479 
L 455.654122 -275.602387 
L 456.242464 -272.976296 
L 456.830806 -270.350205 
L 457.419148 -267.724113 
L 458.007489 -265.295997 
L 458.595831 -265.558902 
L 459.184173 -265.821807 
L 459.772515 -266.084711 
L 460.360856 -266.347616 
L 460.949198 -266.610521 
L 461.53754 -266.873425 
L 462.125882 -267.13633 
L 462.714223 -267.399235 
L 463.302565 -267.662139 
L 463.890907 -267.925044 
L 464.479249 -268.187949 
L 465.06759 -268.450854 
L 465.655932 -268.713758 
L 466.244274 -268.976663 
L 466.832616 -269.239568 
L 467.420957 -269.502472 
L 468.009299 -269.765377 
L 468.597641 -269.951762 
L 469.185983 -269.951762 
L 469.774324 -269.951762 
L 470.362666 -269.951762 
L 470.951008 -269.951762 
L 471.53935 -269.951762 
L 472.127691 -269.951762 
L 472.716033 -269.951762 
L 473.304375 -269.951762 
L 473.892717 -269.951762 
L 474.481059 -269.951762 
L 475.0694 -269.951762 
L 475.657742 -269.485261 
L 476.246084 -268.698319 
L 476.834426 -267.911376 
L 477.422767 -267.124433 
L 478.011109 -266.337491 
L 478.599451 -265.550548 
L 479.187793 -265.621477 
L 479.776134 -266.14699 
L 480.364476 -266.672504 
L 480.952818 -267.198018 
L 481.54116 -267.723531 
L 482.129501 -268.249045 
L 482.717843 -268.774559 
L 483.306185 -269.300072 
L 483.894527 -269.825586 
L 484.482868 -270.3511 
L 485.07121 -270.876613 
L 485.659552 -271.402127 
L 486.247894 -271.927641 
L 486.836235 -272.453154 
L 487.424577 -272.978668 
L 488.012919 -273.504182 
L 488.601261 -274.029695 
L 489.189602 -274.555209 
L 489.777944 -274.625544 
L 490.366286 -274.625544 
L 490.954628 -274.625544 
L 491.542969 -274.625544 
L 492.131311 -274.625544 
L 492.719653 -274.625544 
L 493.307995 -274.625544 
L 493.896336 -274.625544 
L 494.484678 -274.625544 
L 495.07302 -274.625544 
L 495.661362 -274.625544 
L 496.249703 -274.625544 
L 496.838045 -274.625544 
L 497.426387 -274.625544 
L 498.014729 -274.625544 
L 498.60307 -274.625544 
L 499.191412 -274.625544 
L 499.779754 -274.651077 
L 500.368096 -275.175706 
L 500.956437 -275.700334 
L 501.544779 -276.224962 
L 502.133121 -276.749591 
L 502.721463 -277.274219 
L 503.309804 -277.798848 
L 503.898146 -278.323476 
L 504.486488 -278.848105 
L 505.07483 -279.372733 
L 505.663171 -279.897362 
L 506.251513 -280.42199 
L 506.839855 -280.946619 
L 507.428197 -281.471247 
L 508.016538 -281.995876 
L 508.60488 -282.520504 
L 509.193222 -283.045132 
L 509.781564 -283.569761 
L 510.369905 -283.305677 
L 510.958247 -280.418599 
L 511.546589 -277.531522 
L 512.134931 -274.644444 
L 512.723272 -271.757367 
L 513.311614 -268.870289 
L 513.899956 -265.983212 
L 514.488298 -263.096134 
L 515.076639 -260.209056 
L 515.664981 -257.321979 
L 516.253323 -254.434901 
L 516.841665 -251.547824 
L 517.430006 -248.660746 
L 518.018348 -245.773668 
L 518.60669 -242.886591 
L 519.195032 -239.999513 
L 519.783373 -237.112436 
L 520.371715 -234.225358 
L 520.960057 -232.450183 
L 521.548399 -232.187426 
L 522.13674 -231.924669 
L 522.725082 -231.661913 
L 523.313424 -231.399156 
L 523.901766 -231.136399 
L 524.490107 -227.255262 
L 525.078449 -219.643876 
L 525.666791 -212.032489 
L 526.255133 -204.421103 
L 526.843474 -196.809717 
L 527.431816 -189.19833 
L 528.020158 -181.586944 
L 528.6085 -173.975558 
L 529.196841 -166.364171 
L 529.785183 -158.752785 
L 530.373525 -151.141398 
L 530.961867 -143.530012 
L 531.550208 -140.72504 
L 532.13855 -144.664177 
L 532.726892 -148.603314 
L 533.315234 -152.542451 
L 533.903575 -156.481588 
L 534.491917 -160.420725 
L 535.080259 -164.359862 
L 535.668601 -168.298999 
L 536.256942 -172.238136 
L 536.845284 -176.177273 
L 537.433626 -180.11641 
L 538.021968 -184.055547 
L 538.610309 -187.994684 
L 539.198651 -191.933821 
L 539.786993 -195.872958 
L 540.375335 -199.812095 
L 540.963676 -203.751232 
L 541.552018 -207.690369 
L 542.14036 -211.796356 
L 542.728702 -216.0052 
L 543.317043 -220.214044 
L 543.905385 -224.422887 
L 544.493727 -228.631731 
L 545.082069 -232.840575 
L 545.67041 -237.049418 
L 546.258752 -241.258262 
L 546.847094 -245.467106 
L 547.435436 -249.67595 
L 548.023777 -253.884793 
L 548.612119 -258.093637 
L 549.200461 -262.302481 
L 549.788803 -266.511324 
L 550.377144 -270.720168 
L 550.965486 -274.929012 
L 551.553828 -275.925297 
L 552.14217 -274.637347 
L 552.730511 -275.687783 
L 553.318853 -276.73822 
L 553.907195 -277.788656 
L 554.495537 -278.839093 
L 555.083878 -279.889529 
L 555.67222 -279.316106 
L 556.260562 -278.528279 
L 556.848904 -277.740451 
L 557.437245 -276.952624 
L 558.025587 -276.164797 
L 558.613929 -275.376969 
L 559.202271 -274.589142 
L 559.790612 -273.801314 
L 560.378954 -273.013487 
L 560.967296 -272.22566 
L 561.555638 -271.437832 
L 562.143979 -270.650005 
L 562.732321 -269.7432 
L 563.320663 -267.90906 
L 563.909005 -266.07492 
L 564.497346 -264.24078 
L 565.085688 -262.40664 
L 565.67403 -260.5725 
L 566.262372 -258.73836 
L 566.850713 -256.90422 
L 567.439055 -255.07008 
L 568.027397 -253.23594 
L 568.615739 -251.4018 
L 569.20408 -249.56766 
L 569.792422 -247.73352 
L 570.380764 -245.89938 
L 570.969106 -244.06524 
L 571.557447 -242.2311 
L 572.145789 -240.39696 
L 572.734131 -238.562821 
L 573.322473 -237.816559 
L 573.910814 -239.920981 
L 574.499156 -242.025403 
L 575.087498 -244.129825 
L 575.67584 -246.234247 
L 576.264181 -248.338669 
L 576.852523 -250.44309 
L 577.440865 -252.547512 
L 578.029207 -254.651934 
L 578.617548 -256.163076 
L 579.20589 -249.088537 
L 579.794232 -242.013997 
L 580.382574 -234.939457 
L 580.970915 -227.864917 
L 581.559257 -220.790377 
L 582.147599 -213.715838 
L 582.735941 -206.641298 
L 583.324282 -199.566758 
L 583.912624 -196.362613 
L 584.500966 -199.508617 
L 585.089308 -202.654622 
L 585.677649 -205.800626 
L 586.265991 -208.94663 
L 586.854333 -212.092635 
L 587.442675 -215.238639 
L 588.031016 -218.384643 
L 588.619358 -221.530648 
L 589.2077 -224.676652 
L 589.796042 -227.822656 
L 590.384383 -230.968661 
L 590.972725 -234.114665 
L 591.561067 -237.26067 
L 592.149409 -240.406674 
L 592.73775 -243.552678 
L 593.326092 -246.698683 
L 593.914434 -249.844687 
L 594.502776 -248.075752 
L 595.091117 -242.304838 
L 595.679459 -236.533925 
L 596.267801 -230.763012 
L 596.856143 -224.992099 
L 597.444484 -219.221186 
L 598.032826 -213.450273 
L 598.621168 -207.67936 
L 599.20951 -201.908447 
L 599.797851 -196.137534 
L 600.386193 -190.366621 
L 600.974535 -184.595707 
L 601.562877 -178.824794 
L 602.151218 -173.053881 
L 602.73956 -167.282968 
L 603.327902 -161.512055 
L 603.916244 -155.741142 
L 604.504585 -149.970229 
L 605.092927 -152.486493 
L 605.681269 -158.0106 
L 606.269611 -163.534708 
L 606.857952 -169.058815 
L 607.446294 -174.582922 
L 608.034636 -180.10703 
L 608.622978 -185.631137 
L 609.211319 -191.155244 
L 609.799661 -196.679352 
L 610.388003 -202.203459 
L 610.976345 -207.727566 
L 611.564686 -213.251674 
L 612.153028 -218.775781 
L 612.74137 -224.299888 
L 613.329712 -229.823996 
L 613.918053 -230.082409 
L 614.506395 -226.143272 
L 615.094737 -223.348439 
L 615.683079 -223.873067 
L 616.27142 -224.397696 
L 616.859762 -224.922324 
L 617.448104 -225.446953 
L 618.036446 -225.971581 
L 618.624787 -226.49621 
L 619.213129 -227.020838 
L 619.801471 -227.545466 
L 620.389813 -228.070095 
L 620.978154 -228.594723 
L 621.566496 -229.119352 
L 622.154838 -229.64398 
L 622.74318 -230.168609 
L 623.331521 -230.693237 
L 623.919863 -231.217866 
L 624.508205 -231.742494 
L 625.096547 -232.267123 
L 625.684888 -232.216345 
L 626.27323 -231.429844 
L 626.861572 -230.643342 
L 627.449914 -229.856841 
L 628.038255 -229.07034 
L 628.626597 -228.283839 
L 629.214939 -227.497338 
L 629.803281 -226.710837 
L 630.391622 -225.924336 
L 630.979964 -225.137835 
L 631.568306 -224.351334 
L 632.156648 -223.564833 
L 632.744989 -222.778332 
L 633.333331 -221.99183 
L 633.921673 -221.205329 
L 634.510015 -220.418828 
L 635.098356 -219.632327 
L 635.686698 -218.845826 
L 636.27504 -221.585498 
L 636.863382 -226.566671 
L 637.451723 -231.547845 
L 638.040065 -236.529018 
L 638.628407 -241.510192 
L 639.216749 -246.491365 
L 639.80509 -251.472539 
L 640.393432 -256.453713 
L 640.981774 -261.434886 
L 641.570116 -266.41606 
L 642.158457 -271.397233 
L 642.746799 -276.378407 
L 643.335141 -281.35958 
L 643.923483 -284.244186 
L 644.511824 -284.244186 
L 645.100166 -284.244186 
L 645.688508 -284.244186 
L 646.27685 -284.233305 
L 646.865191 -283.708971 
L 647.453533 -283.184637 
L 648.041875 -282.660303 
L 648.630217 -282.135968 
L 649.218559 -281.11339 
L 649.8069 -279.538621 
L 650.395242 -277.963851 
L 650.983584 -276.389081 
L 651.571926 -274.814312 
L 652.160267 -273.239542 
L 652.748609 -271.664773 
L 653.336951 -270.090003 
L 653.925293 -268.515233 
L 654.513634 -266.940464 
L 655.101976 -265.365694 
L 655.690318 -263.790925 
L 656.27866 -262.216155 
L 656.867001 -260.641385 
L 657.455343 -262.139196 
L 658.043685 -263.711316 
L 658.632027 -265.283436 
L 659.220368 -266.855556 
L 659.80871 -268.427676 
L 660.397052 -269.999796 
L 660.985394 -271.571916 
L 661.573735 -273.144036 
L 662.162077 -274.716156 
L 662.750419 -276.288276 
L 663.338761 -277.860396 
L 663.927102 -279.432516 
L 664.515444 -281.004636 
L 665.103786 -282.576756 
L 665.692128 -284.148876 
L 666.280469 -284.244186 
L 666.868811 -284.244186 
L 667.457153 -284.244186 
L 668.045495 -284.244186 
L 668.633836 -284.244186 
L 669.222178 -284.244186 
L 669.81052 -284.244186 
L 670.398862 -284.244186 
L 670.987203 -284.244186 
L 671.575545 -284.244186 
L 672.163887 -284.244186 
L 672.752229 -283.852368 
L 673.34057 -283.327739 
L 673.928912 -282.803111 
L 674.517254 -282.278482 
L 675.105596 -281.753854 
L 675.693937 -281.229225 
L 676.282279 -280.704597 
L 676.870621 -280.179969 
L 677.458963 -279.65534 
L 678.047304 -279.299325 
L 678.635646 -279.299325 
L 679.223988 -279.299325 
L 679.81233 -279.299325 
L 679.81233 -302.668232 
L 679.81233 -302.668232 
L 679.223988 -302.668232 
L 678.635646 -302.668232 
L 678.047304 -302.668232 
L 677.458963 -301.968097 
L 676.870621 -302.153297 
L 676.282279 -304.518108 
L 675.693937 -306.88292 
L 675.105596 -309.247731 
L 674.517254 -311.612543 
L 673.928912 -313.977354 
L 673.34057 -316.342166 
L 672.752229 -318.706977 
L 672.163887 -321.071788 
L 671.575545 -323.4366 
L 670.987203 -325.801411 
L 670.398862 -328.166223 
L 669.81052 -330.531034 
L 669.222178 -332.895846 
L 668.633836 -335.260657 
L 668.045495 -337.625469 
L 667.457153 -339.99028 
L 666.868811 -339.548126 
L 666.280469 -339.022613 
L 665.692128 -338.497099 
L 665.103786 -337.971585 
L 664.515444 -337.446072 
L 663.927102 -336.920558 
L 663.338761 -336.395044 
L 662.750419 -335.869531 
L 662.162077 -335.344017 
L 661.573735 -334.818503 
L 660.985394 -334.29299 
L 660.397052 -333.767476 
L 659.80871 -333.241962 
L 659.220368 -332.716449 
L 658.632027 -332.190935 
L 658.043685 -331.665422 
L 657.455343 -331.139908 
L 656.867001 -330.855467 
L 656.27866 -331.64241 
L 655.690318 -332.429353 
L 655.101976 -333.216295 
L 654.513634 -334.003238 
L 653.925293 -334.790181 
L 653.336951 -335.577123 
L 652.748609 -336.364066 
L 652.160267 -337.151009 
L 651.571926 -337.937952 
L 650.983584 -338.724894 
L 650.395242 -339.511837 
L 649.8069 -340.29878 
L 649.218559 -341.085722 
L 648.630217 -341.872665 
L 648.041875 -342.659608 
L 647.453533 -343.44655 
L 646.865191 -344.233493 
L 646.27685 -344.539827 
L 645.688508 -344.014314 
L 645.100166 -343.4888 
L 644.511824 -342.963286 
L 643.923483 -342.437773 
L 643.335141 -341.912259 
L 642.746799 -341.386745 
L 642.158457 -340.861232 
L 641.570116 -340.335718 
L 640.981774 -339.810204 
L 640.393432 -339.284691 
L 639.80509 -338.759177 
L 639.216749 -338.233663 
L 638.628407 -337.70815 
L 638.040065 -337.182636 
L 637.451723 -336.657122 
L 636.863382 -336.131609 
L 636.27504 -335.606095 
L 635.686698 -334.170949 
L 635.098356 -332.073613 
L 634.510015 -329.976277 
L 633.921673 -327.87894 
L 633.333331 -325.781604 
L 632.744989 -323.684268 
L 632.156648 -321.586932 
L 631.568306 -319.489596 
L 630.979964 -317.392259 
L 630.391622 -315.294923 
L 629.803281 -313.197587 
L 629.214939 -311.100251 
L 628.626597 -309.002914 
L 628.038255 -306.905578 
L 627.449914 -304.808242 
L 626.861572 -302.710906 
L 626.27323 -300.613569 
L 625.684888 -299.571356 
L 625.096547 -299.506493 
L 624.508205 -299.441631 
L 623.919863 -299.376769 
L 623.331521 -299.411002 
L 622.74318 -299.475896 
L 622.154838 -299.540791 
L 621.566496 -299.605685 
L 620.978154 -299.670579 
L 620.389813 -299.672404 
L 619.801471 -299.639941 
L 619.213129 -299.607478 
L 618.624787 -299.575015 
L 618.036446 -299.542552 
L 617.448104 -299.510089 
L 616.859762 -299.477626 
L 616.27142 -299.445163 
L 615.683079 -299.412701 
L 615.094737 -299.380238 
L 614.506395 -299.347775 
L 613.918053 -299.315312 
L 613.329712 -299.282849 
L 612.74137 -299.250386 
L 612.153028 -299.30948 
L 611.564686 -299.374437 
L 610.976345 -299.439395 
L 610.388003 -299.504353 
L 609.799661 -299.56931 
L 609.211319 -299.634268 
L 608.622978 -299.690538 
L 608.034636 -299.658059 
L 607.446294 -299.62558 
L 606.857952 -299.593101 
L 606.269611 -299.560622 
L 605.681269 -300.251383 
L 605.092927 -301.562218 
L 604.504585 -302.54534 
L 603.916244 -301.758839 
L 603.327902 -300.972338 
L 602.73956 -304.78426 
L 602.151218 -303.970617 
L 601.562877 -302.32557 
L 600.974535 -306.006236 
L 600.386193 -309.686902 
L 599.797851 -313.367567 
L 599.20951 -317.048233 
L 598.621168 -320.728899 
L 598.032826 -324.409565 
L 597.444484 -328.09023 
L 596.856143 -331.770896 
L 596.267801 -335.451562 
L 595.679459 -339.132228 
L 595.091117 -342.812893 
L 594.502776 -346.493559 
L 593.914434 -349.898214 
L 593.326092 -352.256394 
L 592.73775 -354.614574 
L 592.149409 -356.972754 
L 591.561067 -359.330934 
L 590.972725 -361.689113 
L 590.384383 -364.047293 
L 589.796042 -366.405473 
L 589.2077 -368.763653 
L 588.619358 -371.121833 
L 588.031016 -373.480013 
L 587.442675 -375.838193 
L 586.854333 -378.196373 
L 586.265991 -380.554553 
L 585.677649 -382.912733 
L 585.089308 -385.270913 
L 584.500966 -387.629093 
L 583.912624 -389.987273 
L 583.324282 -388.643091 
L 582.735941 -381.027426 
L 582.147599 -373.411761 
L 581.559257 -365.796096 
L 580.970915 -358.180431 
L 580.382574 -350.564766 
L 579.794232 -342.949101 
L 579.20589 -335.333437 
L 578.617548 -327.717772 
L 578.029207 -320.102107 
L 577.440865 -312.486442 
L 576.852523 -304.870777 
L 576.264181 -299.89313 
L 575.67584 -299.860747 
L 575.087498 -299.945786 
L 574.499156 -305.684855 
L 573.910814 -312.759395 
L 573.322473 -319.833935 
L 572.734131 -319.720361 
L 572.145789 -317.624201 
L 571.557447 -315.528041 
L 570.969106 -313.431881 
L 570.380764 -311.335721 
L 569.792422 -309.239561 
L 569.20408 -307.143401 
L 568.615739 -305.047241 
L 568.027397 -306.527441 
L 567.439055 -309.155009 
L 566.850713 -311.782577 
L 566.262372 -314.410146 
L 565.67403 -317.037714 
L 565.085688 -319.665282 
L 564.497346 -322.292851 
L 563.909005 -324.920419 
L 563.320663 -327.547987 
L 562.732321 -330.175556 
L 562.143979 -328.826879 
L 561.555638 -326.460736 
L 560.967296 -324.094594 
L 560.378954 -321.728452 
L 559.790612 -319.362309 
L 559.202271 -316.996167 
L 558.613929 -314.630025 
L 558.025587 -312.263883 
L 557.437245 -309.89774 
L 556.848904 -307.531598 
L 556.260562 -305.165456 
L 555.67222 -302.799314 
L 555.083878 -300.433171 
L 554.495537 -299.696379 
L 553.907195 -299.761146 
L 553.318853 -299.825913 
L 552.730511 -299.89068 
L 552.14217 -299.955448 
L 551.553828 -300.020215 
L 550.965486 -300.084982 
L 550.377144 -300.149749 
L 549.788803 -300.214517 
L 549.200461 -300.279284 
L 548.612119 -300.344051 
L 548.023777 -300.356605 
L 547.435436 -300.356605 
L 546.847094 -300.356605 
L 546.258752 -300.805825 
L 545.67041 -302.855766 
L 545.082069 -303.775444 
L 544.493727 -302.538478 
L 543.905385 -301.301511 
L 543.317043 -300.356605 
L 542.728702 -300.356605 
L 542.14036 -300.356605 
L 541.552018 -300.356605 
L 540.963676 -300.356605 
L 540.375335 -300.356605 
L 539.786993 -300.527241 
L 539.198651 -301.315955 
L 538.610309 -302.104669 
L 538.021968 -302.893383 
L 537.433626 -303.682097 
L 536.845284 -304.470811 
L 536.256942 -305.259525 
L 535.668601 -306.048239 
L 535.080259 -306.836953 
L 534.491917 -307.625668 
L 533.903575 -308.414382 
L 533.315234 -309.203096 
L 532.726892 -309.99181 
L 532.13855 -310.780524 
L 531.550208 -311.569238 
L 530.961867 -311.445855 
L 530.373525 -310.13207 
L 529.785183 -308.818286 
L 529.196841 -307.504502 
L 528.6085 -306.190718 
L 528.020158 -304.876934 
L 527.431816 -303.56315 
L 526.843474 -302.249366 
L 526.255133 -300.935581 
L 525.666791 -299.760632 
L 525.078449 -299.728185 
L 524.490107 -299.695738 
L 523.901766 -299.633266 
L 523.313424 -299.568499 
L 522.725082 -299.503732 
L 522.13674 -299.438964 
L 521.548399 -299.374197 
L 520.960057 -299.30943 
L 520.371715 -300.19711 
L 519.783373 -299.291763 
L 519.195032 -299.324131 
L 518.60669 -299.356499 
L 518.018348 -299.388866 
L 517.430006 -299.421275 
L 516.841665 -299.453754 
L 516.253323 -299.486233 
L 515.664981 -299.518712 
L 515.076639 -299.551191 
L 514.488298 -299.58367 
L 513.899956 -299.616148 
L 513.311614 -299.648627 
L 512.723272 -299.681106 
L 512.134931 -300.20559 
L 511.546589 -300.992091 
L 510.958247 -301.778593 
L 510.369905 -302.565094 
L 509.781564 -304.493605 
L 509.193222 -306.594478 
L 508.60488 -308.695351 
L 508.016538 -310.796224 
L 507.428197 -312.897097 
L 506.839855 -314.99797 
L 506.251513 -317.098843 
L 505.663171 -319.199716 
L 505.07483 -321.300589 
L 504.486488 -323.401462 
L 503.898146 -325.502336 
L 503.309804 -327.603209 
L 502.721463 -329.704082 
L 502.133121 -331.804955 
L 501.544779 -333.905828 
L 500.956437 -336.006701 
L 500.368096 -338.107574 
L 499.779754 -339.795901 
L 499.191412 -336.117305 
L 498.60307 -332.438709 
L 498.014729 -328.760114 
L 497.426387 -325.081518 
L 496.838045 -321.402922 
L 496.249703 -317.724327 
L 495.661362 -314.045731 
L 495.07302 -310.367135 
L 494.484678 -306.68854 
L 493.896336 -303.009944 
L 493.307995 -299.741659 
L 492.719653 -299.579503 
L 492.131311 -299.417347 
L 491.542969 -299.255191 
L 490.954628 -299.093035 
L 490.366286 -298.93088 
L 489.777944 -298.768724 
L 489.189602 -298.606568 
L 488.601261 -298.444412 
L 488.012919 -298.408102 
L 487.424577 -298.472869 
L 486.836235 -302.572479 
L 486.247894 -307.039345 
L 485.659552 -311.506212 
L 485.07121 -315.973078 
L 484.482868 -320.439944 
L 483.894527 -324.90681 
L 483.306185 -329.373676 
L 482.717843 -333.840542 
L 482.129501 -338.307408 
L 481.54116 -342.774275 
L 480.952818 -347.241141 
L 480.364476 -351.708007 
L 479.776134 -356.174873 
L 479.187793 -360.641739 
L 478.599451 -362.339546 
L 478.011109 -359.449221 
L 477.422767 -356.558896 
L 476.834426 -353.668571 
L 476.246084 -350.778246 
L 475.657742 -347.887921 
L 475.0694 -344.997595 
L 474.481059 -342.10727 
L 473.892717 -339.216945 
L 473.304375 -336.32662 
L 472.716033 -333.436295 
L 472.127691 -330.54597 
L 471.53935 -327.655645 
L 470.951008 -324.765319 
L 470.362666 -321.874994 
L 469.774324 -318.984669 
L 469.185983 -316.094344 
L 468.597641 -313.204019 
L 468.009299 -312.787741 
L 467.420957 -314.098576 
L 466.832616 -315.409411 
L 466.244274 -316.720247 
L 465.655932 -318.031082 
L 465.06759 -319.341917 
L 464.479249 -320.652752 
L 463.890907 -321.963587 
L 463.302565 -323.274422 
L 462.714223 -324.585257 
L 462.125882 -325.896093 
L 461.53754 -327.206928 
L 460.949198 -328.517763 
L 460.360856 -329.828598 
L 459.772515 -331.139433 
L 459.184173 -332.450268 
L 458.595831 -333.761104 
L 458.007489 -335.071939 
L 457.419148 -333.386317 
L 456.830806 -330.761701 
L 456.242464 -328.196884 
L 455.654122 -328.984711 
L 455.065781 -329.772539 
L 454.477439 -330.560366 
L 453.889097 -331.348193 
L 453.300755 -332.136021 
L 452.712414 -332.923848 
L 452.124072 -333.711676 
L 451.53573 -334.499503 
L 450.947388 -335.28733 
L 450.359047 -336.075158 
L 449.770705 -336.862985 
L 449.182363 -337.650813 
L 448.594021 -338.43864 
L 448.00568 -339.226467 
L 447.417338 -340.014295 
L 446.828996 -336.588171 
L 446.240654 -332.911643 
L 445.652313 -329.235115 
L 445.063971 -325.558588 
L 444.475629 -321.88206 
L 443.887287 -318.205532 
L 443.298946 -314.529004 
L 442.710604 -310.852476 
L 442.122262 -307.175948 
L 441.53392 -304.959766 
L 440.945579 -302.861252 
L 440.357237 -300.762739 
L 439.768895 -300.078077 
L 439.180553 -299.753765 
L 438.592212 -299.784985 
L 438.00387 -299.817464 
L 437.415528 -299.849943 
L 436.827186 -299.882422 
L 436.238845 -299.914901 
L 435.650503 -299.94738 
L 435.062161 -299.979858 
L 434.473819 -300.185202 
L 433.885478 -300.711012 
L 433.297136 -301.236821 
L 432.708794 -301.762631 
L 432.120452 -302.28844 
L 431.532111 -302.814249 
L 430.943769 -303.340059 
L 430.355427 -303.865868 
L 429.767085 -304.391678 
L 429.178744 -304.917487 
L 428.590402 -305.443296 
L 428.00206 -305.969106 
L 427.413718 -306.494915 
L 426.825377 -307.020724 
L 426.237035 -306.933892 
L 425.648693 -305.884635 
L 425.060351 -304.835379 
L 424.47201 -303.786122 
L 423.883668 -302.736865 
L 423.295326 -301.687608 
L 422.706984 -300.638351 
L 422.118643 -299.589094 
L 421.530301 -299.24798 
L 420.941959 -299.150734 
L 420.353617 -299.053488 
L 419.765276 -298.956242 
L 419.176934 -300.53353 
L 418.588592 -302.633223 
L 418.00025 -304.732916 
L 417.411909 -306.832608 
L 416.823567 -308.932301 
L 416.235225 -311.031994 
L 415.646883 -312.294455 
L 415.058542 -312.818789 
L 414.4702 -313.343123 
L 413.881858 -313.867457 
L 413.293516 -314.391791 
L 412.705175 -314.916125 
L 412.116833 -315.440459 
L 411.528491 -315.964793 
L 410.940149 -316.489128 
L 410.351808 -317.013462 
L 409.763466 -319.838605 
L 409.175124 -324.557612 
L 408.586782 -329.276619 
L 407.998441 -333.995625 
L 407.410099 -338.714632 
L 406.821757 -343.433638 
L 406.233415 -348.152645 
L 405.645074 -352.871651 
L 405.056732 -351.152494 
L 404.46839 -347.21778 
L 403.880048 -343.283067 
L 403.291707 -339.348353 
L 402.703365 -335.41364 
L 402.115023 -331.478927 
L 401.526681 -327.544213 
L 400.93834 -323.6095 
L 400.349998 -319.674786 
L 399.761656 -319.984716 
L 399.173314 -323.665382 
L 398.584973 -327.346047 
L 397.996631 -331.026713 
L 397.408289 -334.707379 
L 396.819947 -338.388045 
L 396.231606 -342.06871 
L 395.643264 -345.749376 
L 395.054922 -349.387193 
L 394.46658 -346.495242 
L 393.878239 -343.60329 
L 393.289897 -340.711338 
L 392.701555 -337.819387 
L 392.113213 -334.927435 
L 391.524872 -332.035483 
L 390.93653 -329.143532 
L 390.348188 -326.25158 
L 389.759846 -323.359628 
L 389.171505 -320.467677 
L 388.583163 -317.575725 
L 387.994821 -314.683773 
L 387.406479 -311.791822 
L 386.818138 -308.89987 
L 386.229796 -306.007918 
L 385.641454 -303.115967 
L 385.053112 -300.224015 
L 384.464771 -301.961777 
L 383.876429 -299.724098 
L 383.288087 -299.821344 
L 382.699745 -299.91859 
L 382.111404 -300.214375 
L 381.523062 -300.739298 
L 380.93472 -301.264221 
L 380.346378 -301.789145 
L 379.758037 -302.314068 
L 379.169695 -302.838991 
L 378.581353 -303.363914 
L 377.993011 -303.888837 
L 377.40467 -304.413761 
L 376.816328 -304.938684 
L 376.227986 -305.463607 
L 375.639644 -305.98853 
L 375.051303 -306.513453 
L 374.462961 -307.038377 
L 373.874619 -306.347903 
L 373.286277 -303.989723 
L 372.697936 -301.631543 
L 372.109594 -300.356605 
L 371.521252 -300.356605 
L 370.93291 -300.356605 
L 370.344569 -300.356605 
L 369.756227 -300.356605 
L 369.167885 -300.356605 
L 368.579543 -300.356605 
L 367.991202 -300.352992 
L 367.40286 -300.255841 
L 366.814518 -300.15869 
L 366.226176 -300.061539 
L 365.637835 -299.964389 
L 365.049493 -299.867238 
L 364.461151 -299.886254 
L 363.872809 -299.918622 
L 363.284468 -299.95099 
L 362.696126 -299.983357 
L 362.107784 -300.015725 
L 361.519442 -300.048093 
L 360.931101 -300.080461 
L 360.342759 -300.112829 
L 359.754417 -300.145196 
L 359.166075 -300.177564 
L 358.577734 -300.209932 
L 357.989392 -300.2423 
L 357.40105 -300.274668 
L 356.812708 -300.307036 
L 356.224367 -300.339403 
L 355.636025 -300.326229 
L 355.047683 -300.261399 
L 354.459341 -300.196568 
L 353.871 -300.131738 
L 353.282658 -300.066907 
L 352.694316 -300.002076 
L 352.105974 -299.937246 
L 351.517633 -299.872415 
L 350.929291 -299.807585 
L 350.340949 -299.742754 
L 349.752607 -299.677923 
L 349.164266 -299.613093 
L 348.575924 -299.548262 
L 347.987582 -299.483432 
L 347.39924 -299.418601 
L 346.810899 -299.35377 
L 346.222557 -299.28894 
L 345.634215 -300.165948 
L 345.045873 -302.53076 
L 344.457532 -304.895571 
L 343.86919 -307.260383 
L 343.280848 -309.625194 
L 342.692506 -311.990006 
L 342.104165 -312.451706 
L 341.515823 -312.977515 
L 340.927481 -313.503324 
L 340.339139 -314.029134 
L 339.750798 -314.554943 
L 339.162456 -315.080753 
L 338.574114 -315.606562 
L 337.985772 -316.132371 
L 337.397431 -316.658181 
L 336.809089 -317.18399 
L 336.220747 -317.7098 
L 335.632405 -318.235609 
L 335.044064 -318.761418 
L 334.455722 -319.287228 
L 333.86738 -319.813037 
L 333.279038 -320.338846 
L 332.690697 -320.864656 
L 332.102355 -321.255294 
L 331.514013 -319.159134 
L 330.925671 -317.062974 
L 330.33733 -314.966815 
L 329.748988 -312.870655 
L 329.160646 -310.774495 
L 328.572304 -308.678335 
L 327.983963 -306.582175 
L 327.395621 -304.486015 
L 326.807279 -302.389855 
L 326.218937 -300.293695 
L 325.630596 -298.732409 
L 325.042254 -298.829607 
L 324.453912 -298.926806 
L 323.86557 -299.024004 
L 323.277229 -299.121203 
L 322.688887 -299.218401 
L 322.100545 -299.315599 
L 321.512203 -299.412798 
L 320.923862 -299.509996 
L 320.33552 -299.607194 
L 319.747178 -299.70075 
L 319.158836 -299.765645 
L 318.570495 -299.830539 
L 317.982153 -299.895433 
L 317.393811 -299.960327 
L 316.805469 -300.025221 
L 316.217128 -300.090115 
L 315.628786 -300.155009 
L 315.040444 -300.219903 
L 314.452102 -300.284797 
L 313.863761 -300.349691 
L 313.275419 -300.414585 
L 312.687077 -300.479479 
L 312.098735 -300.544373 
L 311.510394 -300.609267 
L 310.922052 -300.674161 
L 310.33371 -300.739056 
L 309.745368 -300.80395 
L 309.157027 -300.868844 
L 308.568685 -300.933738 
L 307.980343 -300.998632 
L 307.392001 -300.692302 
L 306.80366 -300.206548 
L 306.215318 -299.720793 
L 305.626976 -299.235039 
L 305.038634 -298.749284 
L 304.450293 -298.552784 
L 303.861951 -298.585168 
L 303.273609 -298.617551 
L 302.685267 -298.649935 
L 302.096926 -298.682318 
L 301.508584 -298.714702 
L 300.920242 -298.747086 
L 300.3319 -298.779469 
L 299.743559 -298.811853 
L 299.155217 -298.844237 
L 298.566875 -298.87662 
L 297.978533 -298.909004 
L 297.390191 -301.580628 
L 296.80185 -305.510928 
L 296.213508 -309.441228 
L 295.625166 -313.371528 
L 295.036824 -317.301828 
L 294.448483 -321.232128 
L 293.860141 -325.162428 
L 293.271799 -329.092727 
L 292.683457 -333.023027 
L 292.095116 -336.953327 
L 291.506774 -340.883627 
L 290.918432 -344.813927 
L 290.33009 -348.744227 
L 289.741749 -348.532001 
L 289.153407 -347.480974 
L 288.565065 -346.429946 
L 287.976723 -345.378919 
L 287.388382 -344.327892 
L 286.80004 -343.276864 
L 286.211698 -342.225837 
L 285.623356 -341.17481 
L 285.035015 -340.123782 
L 284.446673 -339.072755 
L 283.858331 -338.021728 
L 283.269989 -336.9707 
L 282.681648 -335.919673 
L 282.093306 -334.868646 
L 281.504964 -333.817618 
L 280.916622 -332.766591 
L 280.328281 -331.715564 
L 279.739939 -330.514229 
L 279.151597 -326.057389 
L 278.563255 -321.60055 
L 277.974914 -317.14371 
L 277.386572 -312.686871 
L 276.79823 -308.230031 
L 276.209888 -303.773192 
L 275.621547 -299.316352 
L 275.033205 -298.25854 
L 274.444863 -298.161436 
L 273.856521 -298.064333 
L 273.26818 -297.967229 
L 272.679838 -297.870126 
L 272.091496 -297.773022 
L 271.503154 -297.732014 
L 270.914813 -297.829451 
L 270.326471 -297.926887 
L 269.738129 -298.024324 
L 269.149787 -298.12176 
L 268.561446 -298.219197 
L 267.973104 -298.316633 
L 267.384762 -298.41407 
L 266.79642 -298.511506 
L 266.208079 -298.608943 
L 265.619737 -298.706379 
L 265.031395 -298.803816 
L 264.443053 -298.901252 
L 263.854712 -298.998689 
L 263.26637 -299.096125 
L 262.678028 -299.193562 
L 262.089686 -299.290998 
L 261.501345 -299.388435 
L 260.913003 -299.485871 
L 260.324661 -299.583308 
L 259.736319 -299.680744 
L 259.147978 -299.693434 
L 258.559636 -299.693434 
L 257.971294 -299.693434 
L 257.382952 -299.693434 
L 256.794611 -299.693434 
L 256.206269 -299.693434 
L 255.617927 -299.693434 
L 255.029585 -299.693434 
L 254.441244 -299.693434 
L 253.852902 -299.693434 
L 253.26456 -299.693434 
L 252.676218 -299.693434 
L 252.087877 -299.693434 
L 251.499535 -299.693434 
L 250.911193 -299.693434 
L 250.322851 -299.693434 
L 249.73451 -299.693434 
L 249.146168 -301.632085 
L 248.557826 -306.098951 
L 247.969484 -306.585599 
L 247.381143 -305.537519 
L 246.792801 -304.489439 
L 246.204459 -303.441359 
L 245.616117 -302.393279 
L 245.027776 -301.345199 
L 244.439434 -300.297119 
L 243.851092 -299.484882 
L 243.26275 -299.452403 
L 242.674409 -299.419924 
L 242.086067 -299.387445 
L 241.497725 -299.354966 
L 240.909383 -299.322488 
L 240.321042 -299.290009 
L 239.7327 -299.25753 
L 239.144358 -299.225051 
L 238.556016 -299.192572 
L 237.967675 -299.160093 
L 237.379333 -299.127615 
L 236.790991 -299.095136 
L 236.202649 -299.062657 
L 235.614308 -299.030262 
L 235.025966 -299.030262 
L 234.437624 -299.030262 
L 233.849282 -299.030262 
L 233.260941 -299.030262 
L 232.672599 -299.030262 
L 232.084257 -299.030262 
L 231.495915 -299.030262 
L 230.907574 -299.030262 
L 230.319232 -299.030262 
L 229.73089 -299.030262 
L 229.142548 -299.030262 
L 228.554207 -299.030262 
L 227.965865 -299.030262 
L 227.377523 -299.030262 
L 226.789181 -299.030262 
L 226.20084 -299.030262 
L 225.612498 -299.030262 
L 225.024156 -299.030262 
L 224.435814 -299.030262 
L 223.847473 -299.030262 
L 223.259131 -299.066826 
L 222.670789 -299.131656 
L 222.082447 -299.196487 
L 221.494106 -299.261318 
L 220.905764 -299.326148 
L 220.317422 -299.390979 
L 219.72908 -299.455809 
L 219.140739 -299.52064 
L 218.552397 -299.585471 
L 217.964055 -299.650301 
L 217.375713 -299.715132 
L 216.787372 -299.779962 
L 216.19903 -299.844793 
L 215.610688 -299.909624 
L 215.022346 -299.974454 
L 214.434005 -300.039285 
L 213.845663 -300.104115 
L 213.257321 -300.168946 
L 212.668979 -300.233777 
L 212.080638 -300.298607 
L 211.492296 -300.339499 
L 210.903954 -300.177184 
L 210.315612 -300.01487 
L 209.727271 -301.724698 
L 209.138929 -303.562962 
L 208.550587 -305.401226 
L 207.962245 -307.23949 
L 207.373904 -309.077754 
L 206.785562 -310.916018 
L 206.19722 -311.277724 
L 205.608878 -309.440492 
L 205.020537 -307.603261 
L 204.432195 -305.76603 
L 203.843853 -303.928799 
L 203.255511 -302.091568 
L 202.66717 -300.254336 
L 202.078828 -298.417105 
L 201.490486 -297.580151 
L 200.902144 -297.417836 
L 200.313803 -297.255521 
L 199.725461 -297.093207 
L 199.137119 -296.821467 
L 198.548777 -296.497473 
L 197.960436 -296.173478 
L 197.372094 -295.849483 
L 196.783752 -295.525489 
L 196.19541 -295.201494 
L 195.607069 -294.8775 
L 195.018727 -294.553505 
L 194.430385 -294.229511 
L 193.842043 -293.905516 
L 193.253702 -293.581521 
L 192.66536 -293.257527 
L 192.077018 -292.933532 
L 191.488676 -292.609538 
L 190.900335 -292.285543 
L 190.311993 -291.961549 
L 189.723651 -291.637554 
L 189.135309 -291.313559 
L 188.546968 -290.989565 
L 187.958626 -290.66557 
L 187.370284 -290.361789 
L 186.781942 -290.134882 
L 186.193601 -289.907975 
L 185.605259 -289.681068 
L 185.016917 -289.454161 
L 184.428575 -289.227253 
L 183.840234 -289.000346 
L 183.251892 -288.773439 
L 182.66355 -288.878035 
L 182.075208 -288.319625 
L 181.486867 -288.092718 
L 180.898525 -288.311054 
L 180.310183 -288.733669 
L 179.721841 -289.08583 
L 179.1335 -288.93422 
L 178.545158 -288.78261 
L 177.956816 -288.631001 
L 177.368474 -288.479391 
L 176.780133 -288.327781 
L 176.191791 -288.176172 
L 175.603449 -290.381853 
L 175.015107 -297.988966 
L 174.426766 -290.12628 
L 173.838424 -287.569733 
L 173.250082 -287.938099 
L 172.66174 -287.675632 
L 172.073399 -287.046031 
L 171.485057 -286.866289 
L 170.896715 -286.990552 
L 170.308373 -286.506806 
L 169.720032 -286.327064 
L 169.13169 -286.182713 
L 168.543348 -286.147315 
L 167.955006 -287.845594 
L 167.366665 -289.30913 
L 166.778323 -287.679426 
L 166.189981 -286.049723 
L 165.601639 -285.970326 
L 165.013298 -285.934929 
L 164.424956 -285.899531 
L 163.836614 -285.877251 
L 163.248272 -285.971302 
L 162.659931 -286.065353 
L 162.071589 -286.384363 
L 161.483247 -286.253454 
L 160.894905 -286.347505 
L 160.306564 -286.441556 
L 159.718222 -286.45737 
L 159.12988 -286.19326 
L 158.541538 -286.000033 
L 157.953197 -285.938874 
L 157.364855 -285.877714 
L 156.776513 -285.752214 
L 156.188171 -285.614148 
L 155.59983 -285.476082 
L 155.011488 -285.338016 
L 154.423146 -285.551952 
L 153.834804 -285.749874 
L 153.246463 -285.622342 
L 152.658121 -285.494811 
L 152.069779 -285.367279 
L 151.481437 -285.239747 
L 150.893096 -285.313312 
L 150.304754 -285.476417 
L 149.716412 -286.072953 
L 149.12807 -287.136255 
L 148.539729 -286.848319 
L 147.951387 -286.560383 
L 147.363045 -286.272448 
L 146.774703 -290.198248 
L 146.186362 -288.796353 
L 145.59802 -288.489232 
L 145.009678 -287.319189 
L 144.421336 -286.157153 
L 143.832995 -285.976602 
L 143.244653 -285.796051 
L 142.656311 -285.906201 
L 142.067969 -285.434949 
L 141.479628 -285.363444 
L 140.891286 -285.295374 
L 140.302944 -285.172645 
L 139.714602 -285.542688 
L 139.126261 -286.063585 
L 138.537919 -286.496035 
L 137.949577 -286.353257 
L 137.361235 -286.210479 
L 136.772894 -286.356732 
L 136.184552 -286.783841 
L 135.59621 -286.753164 
L 135.007868 -286.654974 
L 134.419527 -286.556784 
L 133.831185 -286.458594 
L 133.242843 -286.360405 
L 132.654501 -286.262215 
L 132.06616 -286.191391 
L 131.477818 -286.191391 
L 130.889476 -286.191391 
L 130.301134 -286.507168 
L 129.712793 -287.032977 
L 129.124451 -288.22526 
L 128.536109 -289.536095 
L 127.947767 -290.84693 
L 127.359426 -292.157765 
L 126.771084 -293.4686 
L 126.182742 -294.779435 
L 125.5944 -296.090271 
L 125.006059 -297.401106 
L 124.417717 -298.711941 
L 123.829375 -300.022776 
L 123.241033 -301.333611 
L 122.652691 -302.664324 
L 122.06435 -302.668232 
L 121.476008 -302.668232 
L 120.887666 -302.668232 
L 120.299324 -302.668232 
L 119.710983 -302.668232 
L 119.122641 -302.668232 
L 118.534299 -302.668232 
L 117.945957 -302.668232 
L 117.357616 -302.668232 
L 116.769274 -302.668232 
L 116.180932 -302.668232 
L 115.59259 -302.668232 
L 115.004249 -302.668232 
L 114.415907 -302.668232 
L 113.827565 -302.668232 
L 113.239223 -302.668232 
L 112.650882 -302.668232 
L 112.06254 -302.499239 
L 111.474198 -301.710969 
L 110.885856 -300.922698 
L 110.297515 -300.134428 
L 109.709173 -299.346158 
L 109.120831 -298.557887 
L 108.532489 -297.769617 
L 107.944148 -296.981346 
L 107.355806 -296.193076 
L 106.767464 -295.404805 
L 106.179122 -297.354059 
L 105.590781 -300.503598 
L 105.002439 -303.653138 
L 104.414097 -306.802677 
L 103.825755 -309.952216 
L 103.237414 -313.101755 
L 102.649072 -316.251294 
L 102.06073 -319.400834 
L 101.472388 -321.363358 
L 100.884047 -321.363358 
L 100.295705 -321.363358 
L 99.707363 -321.363358 
L 99.119021 -321.363358 
L 98.53068 -321.363358 
L 97.942338 -321.363358 
L 97.353996 -321.363358 
L 96.765654 -321.363358 
L 96.177313 -321.363358 
L 95.588971 -321.363358 
L 95.000629 -321.363358 
L 94.412287 -321.363358 
L 93.823946 -321.363358 
L 93.235604 -321.363358 
L 92.647262 -321.363358 
L 92.05892 -321.363358 
z
" style="stroke: #0000ff; stroke-opacity: 0.3"/>
    </defs>
    <g clip-path="url(#pb743096985)">
     <use xlink:href="#me0ec775ba2" x="0" y="432" style="fill: #0000ff; fill-opacity: 0.3; stroke: #0000ff; stroke-opacity: 0.3"/>
    </g>
   </g>
   <g id="matplotlib.axis_1">
    <g id="xtick_1">
     <g id="line2d_1">
      <defs>
       <path id="m4546bc5d44" d="M 0 0 
L 0 3.5 
" style="stroke: #000000; stroke-width: 0.8"/>
      </defs>
      <g>
       <use xlink:href="#m4546bc5d44" x="91.240781" y="390.04" style="stroke: #000000; stroke-width: 0.8"/>
      </g>
     </g>
     <g id="text_1">
      <!-- 0 -->
      <g transform="translate(88.059531 404.638438) scale(0.1 -0.1)">
       <defs>
        <path id="DejaVuSans-30" d="M 2034 4250 
Q 1547 4250 1301 3770 
Q 1056 3291 1056 2328 
Q 1056 1369 1301 889 
Q 1547 409 2034 409 
Q 2525 409 2770 889 
Q 3016 1369 3016 2328 
Q 3016 3291 2770 3770 
Q 2525 4250 2034 4250 
z
M 2034 4750 
Q 2819 4750 3233 4129 
Q 3647 3509 3647 2328 
Q 3647 1150 3233 529 
Q 2819 -91 2034 -91 
Q 1250 -91 836 529 
Q 422 1150 422 2328 
Q 422 3509 836 4129 
Q 1250 4750 2034 4750 
z
" transform="scale(0.015625)"/>
       </defs>
       <use xlink:href="#DejaVuSans-30"/>
      </g>
     </g>
    </g>
    <g id="xtick_2">
     <g id="line2d_2">
      <g>
       <use xlink:href="#m4546bc5d44" x="208.958623" y="390.04" style="stroke: #000000; stroke-width: 0.8"/>
      </g>
     </g>
     <g id="text_2">
      <!-- 20000 -->
      <g transform="translate(193.052373 404.638438) scale(0.1 -0.1)">
       <defs>
        <path id="DejaVuSans-32" d="M 1228 531 
L 3431 531 
L 3431 0 
L 469 0 
L 469 531 
Q 828 903 1448 1529 
Q 2069 2156 2228 2338 
Q 2531 2678 2651 2914 
Q 2772 3150 2772 3378 
Q 2772 3750 2511 3984 
Q 2250 4219 1831 4219 
Q 1534 4219 1204 4116 
Q 875 4013 500 3803 
L 500 4441 
Q 881 4594 1212 4672 
Q 1544 4750 1819 4750 
Q 2544 4750 2975 4387 
Q 3406 4025 3406 3419 
Q 3406 3131 3298 2873 
Q 3191 2616 2906 2266 
Q 2828 2175 2409 1742 
Q 1991 1309 1228 531 
z
" transform="scale(0.015625)"/>
       </defs>
       <use xlink:href="#DejaVuSans-32"/>
       <use xlink:href="#DejaVuSans-30" transform="translate(63.623047 0)"/>
       <use xlink:href="#DejaVuSans-30" transform="translate(127.246094 0)"/>
       <use xlink:href="#DejaVuSans-30" transform="translate(190.869141 0)"/>
       <use xlink:href="#DejaVuSans-30" transform="translate(254.492188 0)"/>
      </g>
     </g>
    </g>
    <g id="xtick_3">
     <g id="line2d_3">
      <g>
       <use xlink:href="#m4546bc5d44" x="326.676464" y="390.04" style="stroke: #000000; stroke-width: 0.8"/>
      </g>
     </g>
     <g id="text_3">
      <!-- 40000 -->
      <g transform="translate(310.770214 404.638438) scale(0.1 -0.1)">
       <defs>
        <path id="DejaVuSans-34" d="M 2419 4116 
L 825 1625 
L 2419 1625 
L 2419 4116 
z
M 2253 4666 
L 3047 4666 
L 3047 1625 
L 3713 1625 
L 3713 1100 
L 3047 1100 
L 3047 0 
L 2419 0 
L 2419 1100 
L 313 1100 
L 313 1709 
L 2253 4666 
z
" transform="scale(0.015625)"/>
       </defs>
       <use xlink:href="#DejaVuSans-34"/>
       <use xlink:href="#DejaVuSans-30" transform="translate(63.623047 0)"/>
       <use xlink:href="#DejaVuSans-30" transform="translate(127.246094 0)"/>
       <use xlink:href="#DejaVuSans-30" transform="translate(190.869141 0)"/>
       <use xlink:href="#DejaVuSans-30" transform="translate(254.492188 0)"/>
      </g>
     </g>
    </g>
    <g id="xtick_4">
     <g id="line2d_4">
      <g>
       <use xlink:href="#m4546bc5d44" x="444.394305" y="390.04" style="stroke: #000000; stroke-width: 0.8"/>
      </g>
     </g>
     <g id="text_4">
      <!-- 60000 -->
      <g transform="translate(428.488055 404.638438) scale(0.1 -0.1)">
       <defs>
        <path id="DejaVuSans-36" d="M 2113 2584 
Q 1688 2584 1439 2293 
Q 1191 2003 1191 1497 
Q 1191 994 1439 701 
Q 1688 409 2113 409 
Q 2538 409 2786 701 
Q 3034 994 3034 1497 
Q 3034 2003 2786 2293 
Q 2538 2584 2113 2584 
z
M 3366 4563 
L 3366 3988 
Q 3128 4100 2886 4159 
Q 2644 4219 2406 4219 
Q 1781 4219 1451 3797 
Q 1122 3375 1075 2522 
Q 1259 2794 1537 2939 
Q 1816 3084 2150 3084 
Q 2853 3084 3261 2657 
Q 3669 2231 3669 1497 
Q 3669 778 3244 343 
Q 2819 -91 2113 -91 
Q 1303 -91 875 529 
Q 447 1150 447 2328 
Q 447 3434 972 4092 
Q 1497 4750 2381 4750 
Q 2619 4750 2861 4703 
Q 3103 4656 3366 4563 
z
" transform="scale(0.015625)"/>
       </defs>
       <use xlink:href="#DejaVuSans-36"/>
       <use xlink:href="#DejaVuSans-30" transform="translate(63.623047 0)"/>
       <use xlink:href="#DejaVuSans-30" transform="translate(127.246094 0)"/>
       <use xlink:href="#DejaVuSans-30" transform="translate(190.869141 0)"/>
       <use xlink:href="#DejaVuSans-30" transform="translate(254.492188 0)"/>
      </g>
     </g>
    </g>
    <g id="xtick_5">
     <g id="line2d_5">
      <g>
       <use xlink:href="#m4546bc5d44" x="562.112146" y="390.04" style="stroke: #000000; stroke-width: 0.8"/>
      </g>
     </g>
     <g id="text_5">
      <!-- 80000 -->
      <g transform="translate(546.205896 404.638438) scale(0.1 -0.1)">
       <defs>
        <path id="DejaVuSans-38" d="M 2034 2216 
Q 1584 2216 1326 1975 
Q 1069 1734 1069 1313 
Q 1069 891 1326 650 
Q 1584 409 2034 409 
Q 2484 409 2743 651 
Q 3003 894 3003 1313 
Q 3003 1734 2745 1975 
Q 2488 2216 2034 2216 
z
M 1403 2484 
Q 997 2584 770 2862 
Q 544 3141 544 3541 
Q 544 4100 942 4425 
Q 1341 4750 2034 4750 
Q 2731 4750 3128 4425 
Q 3525 4100 3525 3541 
Q 3525 3141 3298 2862 
Q 3072 2584 2669 2484 
Q 3125 2378 3379 2068 
Q 3634 1759 3634 1313 
Q 3634 634 3220 271 
Q 2806 -91 2034 -91 
Q 1263 -91 848 271 
Q 434 634 434 1313 
Q 434 1759 690 2068 
Q 947 2378 1403 2484 
z
M 1172 3481 
Q 1172 3119 1398 2916 
Q 1625 2713 2034 2713 
Q 2441 2713 2670 2916 
Q 2900 3119 2900 3481 
Q 2900 3844 2670 4047 
Q 2441 4250 2034 4250 
Q 1625 4250 1398 4047 
Q 1172 3844 1172 3481 
z
" transform="scale(0.015625)"/>
       </defs>
       <use xlink:href="#DejaVuSans-38"/>
       <use xlink:href="#DejaVuSans-30" transform="translate(63.623047 0)"/>
       <use xlink:href="#DejaVuSans-30" transform="translate(127.246094 0)"/>
       <use xlink:href="#DejaVuSans-30" transform="translate(190.869141 0)"/>
       <use xlink:href="#DejaVuSans-30" transform="translate(254.492188 0)"/>
      </g>
     </g>
    </g>
    <g id="xtick_6">
     <g id="line2d_6">
      <g>
       <use xlink:href="#m4546bc5d44" x="679.829987" y="390.04" style="stroke: #000000; stroke-width: 0.8"/>
      </g>
     </g>
     <g id="text_6">
      <!-- 100000 -->
      <g transform="translate(660.742487 404.638438) scale(0.1 -0.1)">
       <defs>
        <path id="DejaVuSans-31" d="M 794 531 
L 1825 531 
L 1825 4091 
L 703 3866 
L 703 4441 
L 1819 4666 
L 2450 4666 
L 2450 531 
L 3481 531 
L 3481 0 
L 794 0 
L 794 531 
z
" transform="scale(0.015625)"/>
       </defs>
       <use xlink:href="#DejaVuSans-31"/>
       <use xlink:href="#DejaVuSans-30" transform="translate(63.623047 0)"/>
       <use xlink:href="#DejaVuSans-30" transform="translate(127.246094 0)"/>
       <use xlink:href="#DejaVuSans-30" transform="translate(190.869141 0)"/>
       <use xlink:href="#DejaVuSans-30" transform="translate(254.492188 0)"/>
       <use xlink:href="#DejaVuSans-30" transform="translate(318.115234 0)"/>
      </g>
     </g>
    </g>
    <g id="text_7">
     <!-- Step -->
     <g transform="translate(374.550469 418.316562) scale(0.1 -0.1)">
      <defs>
       <path id="DejaVuSans-53" d="M 3425 4513 
L 3425 3897 
Q 3066 4069 2747 4153 
Q 2428 4238 2131 4238 
Q 1616 4238 1336 4038 
Q 1056 3838 1056 3469 
Q 1056 3159 1242 3001 
Q 1428 2844 1947 2747 
L 2328 2669 
Q 3034 2534 3370 2195 
Q 3706 1856 3706 1288 
Q 3706 609 3251 259 
Q 2797 -91 1919 -91 
Q 1588 -91 1214 -16 
Q 841 59 441 206 
L 441 856 
Q 825 641 1194 531 
Q 1563 422 1919 422 
Q 2459 422 2753 634 
Q 3047 847 3047 1241 
Q 3047 1584 2836 1778 
Q 2625 1972 2144 2069 
L 1759 2144 
Q 1053 2284 737 2584 
Q 422 2884 422 3419 
Q 422 4038 858 4394 
Q 1294 4750 2059 4750 
Q 2388 4750 2728 4690 
Q 3069 4631 3425 4513 
z
" transform="scale(0.015625)"/>
       <path id="DejaVuSans-74" d="M 1172 4494 
L 1172 3500 
L 2356 3500 
L 2356 3053 
L 1172 3053 
L 1172 1153 
Q 1172 725 1289 603 
Q 1406 481 1766 481 
L 2356 481 
L 2356 0 
L 1766 0 
Q 1100 0 847 248 
Q 594 497 594 1153 
L 594 3053 
L 172 3053 
L 172 3500 
L 594 3500 
L 594 4494 
L 1172 4494 
z
" transform="scale(0.015625)"/>
       <path id="DejaVuSans-65" d="M 3597 1894 
L 3597 1613 
L 953 1613 
Q 991 1019 1311 708 
Q 1631 397 2203 397 
Q 2534 397 2845 478 
Q 3156 559 3463 722 
L 3463 178 
Q 3153 47 2828 -22 
Q 2503 -91 2169 -91 
Q 1331 -91 842 396 
Q 353 884 353 1716 
Q 353 2575 817 3079 
Q 1281 3584 2069 3584 
Q 2775 3584 3186 3129 
Q 3597 2675 3597 1894 
z
M 3022 2063 
Q 3016 2534 2758 2815 
Q 2500 3097 2075 3097 
Q 1594 3097 1305 2825 
Q 1016 2553 972 2059 
L 3022 2063 
z
" transform="scale(0.015625)"/>
       <path id="DejaVuSans-70" d="M 1159 525 
L 1159 -1331 
L 581 -1331 
L 581 3500 
L 1159 3500 
L 1159 2969 
Q 1341 3281 1617 3432 
Q 1894 3584 2278 3584 
Q 2916 3584 3314 3078 
Q 3713 2572 3713 1747 
Q 3713 922 3314 415 
Q 2916 -91 2278 -91 
Q 1894 -91 1617 61 
Q 1341 213 1159 525 
z
M 3116 1747 
Q 3116 2381 2855 2742 
Q 2594 3103 2138 3103 
Q 1681 3103 1420 2742 
Q 1159 2381 1159 1747 
Q 1159 1113 1420 752 
Q 1681 391 2138 391 
Q 2594 391 2855 752 
Q 3116 1113 3116 1747 
z
" transform="scale(0.015625)"/>
      </defs>
      <use xlink:href="#DejaVuSans-53"/>
      <use xlink:href="#DejaVuSans-74" transform="translate(63.476562 0)"/>
      <use xlink:href="#DejaVuSans-65" transform="translate(102.685547 0)"/>
      <use xlink:href="#DejaVuSans-70" transform="translate(164.208984 0)"/>
     </g>
    </g>
   </g>
   <g id="matplotlib.axis_2">
    <g id="ytick_1">
     <g id="line2d_7">
      <defs>
       <path id="m8aad3f90e3" d="M 0 0 
L -3.5 0 
" style="stroke: #000000; stroke-width: 0.8"/>
      </defs>
      <g>
       <use xlink:href="#m8aad3f90e3" x="62.67125" y="343.858335" style="stroke: #000000; stroke-width: 0.8"/>
      </g>
     </g>
     <g id="text_8">
      <!-- 10.0 -->
      <g transform="translate(25.025938 347.657554) scale(0.1 -0.1)">
       <defs>
        <path id="DejaVuSans-2212" d="M 678 2272 
L 4684 2272 
L 4684 1741 
L 678 1741 
L 678 2272 
z
" transform="scale(0.015625)"/>
        <path id="DejaVuSans-2e" d="M 684 794 
L 1344 794 
L 1344 0 
L 684 0 
L 684 794 
z
" transform="scale(0.015625)"/>
       </defs>
       <use xlink:href="#DejaVuSans-2212"/>
       <use xlink:href="#DejaVuSans-31" transform="translate(83.789062 0)"/>
       <use xlink:href="#DejaVuSans-30" transform="translate(147.412109 0)"/>
       <use xlink:href="#DejaVuSans-2e" transform="translate(211.035156 0)"/>
       <use xlink:href="#DejaVuSans-30" transform="translate(242.822266 0)"/>
      </g>
     </g>
    </g>
    <g id="ytick_2">
     <g id="line2d_8">
      <g>
       <use xlink:href="#m8aad3f90e3" x="62.67125" y="294.78363" style="stroke: #000000; stroke-width: 0.8"/>
      </g>
     </g>
     <g id="text_9">
      <!-- 7.5 -->
      <g transform="translate(31.388438 298.582849) scale(0.1 -0.1)">
       <defs>
        <path id="DejaVuSans-37" d="M 525 4666 
L 3525 4666 
L 3525 4397 
L 1831 0 
L 1172 0 
L 2766 4134 
L 525 4134 
L 525 4666 
z
" transform="scale(0.015625)"/>
        <path id="DejaVuSans-35" d="M 691 4666 
L 3169 4666 
L 3169 4134 
L 1269 4134 
L 1269 2991 
Q 1406 3038 1543 3061 
Q 1681 3084 1819 3084 
Q 2600 3084 3056 2656 
Q 3513 2228 3513 1497 
Q 3513 744 3044 326 
Q 2575 -91 1722 -91 
Q 1428 -91 1123 -41 
Q 819 9 494 109 
L 494 744 
Q 775 591 1075 516 
Q 1375 441 1709 441 
Q 2250 441 2565 725 
Q 2881 1009 2881 1497 
Q 2881 1984 2565 2268 
Q 2250 2553 1709 2553 
Q 1456 2553 1204 2497 
Q 953 2441 691 2322 
L 691 4666 
z
" transform="scale(0.015625)"/>
       </defs>
       <use xlink:href="#DejaVuSans-2212"/>
       <use xlink:href="#DejaVuSans-37" transform="translate(83.789062 0)"/>
       <use xlink:href="#DejaVuSans-2e" transform="translate(147.412109 0)"/>
       <use xlink:href="#DejaVuSans-35" transform="translate(179.199219 0)"/>
      </g>
     </g>
    </g>
    <g id="ytick_3">
     <g id="line2d_9">
      <g>
       <use xlink:href="#m8aad3f90e3" x="62.67125" y="245.708925" style="stroke: #000000; stroke-width: 0.8"/>
      </g>
     </g>
     <g id="text_10">
      <!-- 5.0 -->
      <g transform="translate(31.388438 249.508144) scale(0.1 -0.1)">
       <use xlink:href="#DejaVuSans-2212"/>
       <use xlink:href="#DejaVuSans-35" transform="translate(83.789062 0)"/>
       <use xlink:href="#DejaVuSans-2e" transform="translate(147.412109 0)"/>
       <use xlink:href="#DejaVuSans-30" transform="translate(179.199219 0)"/>
      </g>
     </g>
    </g>
    <g id="ytick_4">
     <g id="line2d_10">
      <g>
       <use xlink:href="#m8aad3f90e3" x="62.67125" y="196.63422" style="stroke: #000000; stroke-width: 0.8"/>
      </g>
     </g>
     <g id="text_11">
      <!-- 2.5 -->
      <g transform="translate(31.388438 200.433439) scale(0.1 -0.1)">
       <use xlink:href="#DejaVuSans-2212"/>
       <use xlink:href="#DejaVuSans-32" transform="translate(83.789062 0)"/>
       <use xlink:href="#DejaVuSans-2e" transform="translate(147.412109 0)"/>
       <use xlink:href="#DejaVuSans-35" transform="translate(179.199219 0)"/>
      </g>
     </g>
    </g>
    <g id="ytick_5">
     <g id="line2d_11">
      <g>
       <use xlink:href="#m8aad3f90e3" x="62.67125" y="147.559515" style="stroke: #000000; stroke-width: 0.8"/>
      </g>
     </g>
     <g id="text_12">
      <!-- 0.0 -->
      <g transform="translate(39.768125 151.358734) scale(0.1 -0.1)">
       <use xlink:href="#DejaVuSans-30"/>
       <use xlink:href="#DejaVuSans-2e" transform="translate(63.623047 0)"/>
       <use xlink:href="#DejaVuSans-30" transform="translate(95.410156 0)"/>
      </g>
     </g>
    </g>
    <g id="ytick_6">
     <g id="line2d_12">
      <g>
       <use xlink:href="#m8aad3f90e3" x="62.67125" y="98.48481" style="stroke: #000000; stroke-width: 0.8"/>
      </g>
     </g>
     <g id="text_13">
      <!-- 2.5 -->
      <g transform="translate(39.768125 102.284029) scale(0.1 -0.1)">
       <use xlink:href="#DejaVuSans-32"/>
       <use xlink:href="#DejaVuSans-2e" transform="translate(63.623047 0)"/>
       <use xlink:href="#DejaVuSans-35" transform="translate(95.410156 0)"/>
      </g>
     </g>
    </g>
    <g id="ytick_7">
     <g id="line2d_13">
      <g>
       <use xlink:href="#m8aad3f90e3" x="62.67125" y="49.410105" style="stroke: #000000; stroke-width: 0.8"/>
      </g>
     </g>
     <g id="text_14">
      <!-- 5.0 -->
      <g transform="translate(39.768125 53.209324) scale(0.1 -0.1)">
       <use xlink:href="#DejaVuSans-35"/>
       <use xlink:href="#DejaVuSans-2e" transform="translate(63.623047 0)"/>
       <use xlink:href="#DejaVuSans-30" transform="translate(95.410156 0)"/>
      </g>
     </g>
    </g>
    <g id="text_15">
     <!-- charts/episodic_return -->
     <g transform="translate(18.668125 263.428281) rotate(-90) scale(0.1 -0.1)">
      <defs>
       <path id="DejaVuSans-63" d="M 3122 3366 
L 3122 2828 
Q 2878 2963 2633 3030 
Q 2388 3097 2138 3097 
Q 1578 3097 1268 2742 
Q 959 2388 959 1747 
Q 959 1106 1268 751 
Q 1578 397 2138 397 
Q 2388 397 2633 464 
Q 2878 531 3122 666 
L 3122 134 
Q 2881 22 2623 -34 
Q 2366 -91 2075 -91 
Q 1284 -91 818 406 
Q 353 903 353 1747 
Q 353 2603 823 3093 
Q 1294 3584 2113 3584 
Q 2378 3584 2631 3529 
Q 2884 3475 3122 3366 
z
" transform="scale(0.015625)"/>
       <path id="DejaVuSans-68" d="M 3513 2113 
L 3513 0 
L 2938 0 
L 2938 2094 
Q 2938 2591 2744 2837 
Q 2550 3084 2163 3084 
Q 1697 3084 1428 2787 
Q 1159 2491 1159 1978 
L 1159 0 
L 581 0 
L 581 4863 
L 1159 4863 
L 1159 2956 
Q 1366 3272 1645 3428 
Q 1925 3584 2291 3584 
Q 2894 3584 3203 3211 
Q 3513 2838 3513 2113 
z
" transform="scale(0.015625)"/>
       <path id="DejaVuSans-61" d="M 2194 1759 
Q 1497 1759 1228 1600 
Q 959 1441 959 1056 
Q 959 750 1161 570 
Q 1363 391 1709 391 
Q 2188 391 2477 730 
Q 2766 1069 2766 1631 
L 2766 1759 
L 2194 1759 
z
M 3341 1997 
L 3341 0 
L 2766 0 
L 2766 531 
Q 2569 213 2275 61 
Q 1981 -91 1556 -91 
Q 1019 -91 701 211 
Q 384 513 384 1019 
Q 384 1609 779 1909 
Q 1175 2209 1959 2209 
L 2766 2209 
L 2766 2266 
Q 2766 2663 2505 2880 
Q 2244 3097 1772 3097 
Q 1472 3097 1187 3025 
Q 903 2953 641 2809 
L 641 3341 
Q 956 3463 1253 3523 
Q 1550 3584 1831 3584 
Q 2591 3584 2966 3190 
Q 3341 2797 3341 1997 
z
" transform="scale(0.015625)"/>
       <path id="DejaVuSans-72" d="M 2631 2963 
Q 2534 3019 2420 3045 
Q 2306 3072 2169 3072 
Q 1681 3072 1420 2755 
Q 1159 2438 1159 1844 
L 1159 0 
L 581 0 
L 581 3500 
L 1159 3500 
L 1159 2956 
Q 1341 3275 1631 3429 
Q 1922 3584 2338 3584 
Q 2397 3584 2469 3576 
Q 2541 3569 2628 3553 
L 2631 2963 
z
" transform="scale(0.015625)"/>
       <path id="DejaVuSans-73" d="M 2834 3397 
L 2834 2853 
Q 2591 2978 2328 3040 
Q 2066 3103 1784 3103 
Q 1356 3103 1142 2972 
Q 928 2841 928 2578 
Q 928 2378 1081 2264 
Q 1234 2150 1697 2047 
L 1894 2003 
Q 2506 1872 2764 1633 
Q 3022 1394 3022 966 
Q 3022 478 2636 193 
Q 2250 -91 1575 -91 
Q 1294 -91 989 -36 
Q 684 19 347 128 
L 347 722 
Q 666 556 975 473 
Q 1284 391 1588 391 
Q 1994 391 2212 530 
Q 2431 669 2431 922 
Q 2431 1156 2273 1281 
Q 2116 1406 1581 1522 
L 1381 1569 
Q 847 1681 609 1914 
Q 372 2147 372 2553 
Q 372 3047 722 3315 
Q 1072 3584 1716 3584 
Q 2034 3584 2315 3537 
Q 2597 3491 2834 3397 
z
" transform="scale(0.015625)"/>
       <path id="DejaVuSans-2f" d="M 1625 4666 
L 2156 4666 
L 531 -594 
L 0 -594 
L 1625 4666 
z
" transform="scale(0.015625)"/>
       <path id="DejaVuSans-69" d="M 603 3500 
L 1178 3500 
L 1178 0 
L 603 0 
L 603 3500 
z
M 603 4863 
L 1178 4863 
L 1178 4134 
L 603 4134 
L 603 4863 
z
" transform="scale(0.015625)"/>
       <path id="DejaVuSans-6f" d="M 1959 3097 
Q 1497 3097 1228 2736 
Q 959 2375 959 1747 
Q 959 1119 1226 758 
Q 1494 397 1959 397 
Q 2419 397 2687 759 
Q 2956 1122 2956 1747 
Q 2956 2369 2687 2733 
Q 2419 3097 1959 3097 
z
M 1959 3584 
Q 2709 3584 3137 3096 
Q 3566 2609 3566 1747 
Q 3566 888 3137 398 
Q 2709 -91 1959 -91 
Q 1206 -91 779 398 
Q 353 888 353 1747 
Q 353 2609 779 3096 
Q 1206 3584 1959 3584 
z
" transform="scale(0.015625)"/>
       <path id="DejaVuSans-64" d="M 2906 2969 
L 2906 4863 
L 3481 4863 
L 3481 0 
L 2906 0 
L 2906 525 
Q 2725 213 2448 61 
Q 2172 -91 1784 -91 
Q 1150 -91 751 415 
Q 353 922 353 1747 
Q 353 2572 751 3078 
Q 1150 3584 1784 3584 
Q 2172 3584 2448 3432 
Q 2725 3281 2906 2969 
z
M 947 1747 
Q 947 1113 1208 752 
Q 1469 391 1925 391 
Q 2381 391 2643 752 
Q 2906 1113 2906 1747 
Q 2906 2381 2643 2742 
Q 2381 3103 1925 3103 
Q 1469 3103 1208 2742 
Q 947 2381 947 1747 
z
" transform="scale(0.015625)"/>
       <path id="DejaVuSans-5f" d="M 3263 -1063 
L 3263 -1509 
L -63 -1509 
L -63 -1063 
L 3263 -1063 
z
" transform="scale(0.015625)"/>
       <path id="DejaVuSans-75" d="M 544 1381 
L 544 3500 
L 1119 3500 
L 1119 1403 
Q 1119 906 1312 657 
Q 1506 409 1894 409 
Q 2359 409 2629 706 
Q 2900 1003 2900 1516 
L 2900 3500 
L 3475 3500 
L 3475 0 
L 2900 0 
L 2900 538 
Q 2691 219 2414 64 
Q 2138 -91 1772 -91 
Q 1169 -91 856 284 
Q 544 659 544 1381 
z
M 1991 3584 
L 1991 3584 
z
" transform="scale(0.015625)"/>
       <path id="DejaVuSans-6e" d="M 3513 2113 
L 3513 0 
L 2938 0 
L 2938 2094 
Q 2938 2591 2744 2837 
Q 2550 3084 2163 3084 
Q 1697 3084 1428 2787 
Q 1159 2491 1159 1978 
L 1159 0 
L 581 0 
L 581 3500 
L 1159 3500 
L 1159 2956 
Q 1366 3272 1645 3428 
Q 1925 3584 2291 3584 
Q 2894 3584 3203 3211 
Q 3513 2838 3513 2113 
z
" transform="scale(0.015625)"/>
      </defs>
      <use xlink:href="#DejaVuSans-63"/>
      <use xlink:href="#DejaVuSans-68" transform="translate(54.980469 0)"/>
      <use xlink:href="#DejaVuSans-61" transform="translate(118.359375 0)"/>
      <use xlink:href="#DejaVuSans-72" transform="translate(179.638672 0)"/>
      <use xlink:href="#DejaVuSans-74" transform="translate(220.751953 0)"/>
      <use xlink:href="#DejaVuSans-73" transform="translate(259.960938 0)"/>
      <use xlink:href="#DejaVuSans-2f" transform="translate(312.060547 0)"/>
      <use xlink:href="#DejaVuSans-65" transform="translate(345.751953 0)"/>
      <use xlink:href="#DejaVuSans-70" transform="translate(407.275391 0)"/>
      <use xlink:href="#DejaVuSans-69" transform="translate(470.751953 0)"/>
      <use xlink:href="#DejaVuSans-73" transform="translate(498.535156 0)"/>
      <use xlink:href="#DejaVuSans-6f" transform="translate(550.634766 0)"/>
      <use xlink:href="#DejaVuSans-64" transform="translate(611.816406 0)"/>
      <use xlink:href="#DejaVuSans-69" transform="translate(675.292969 0)"/>
      <use xlink:href="#DejaVuSans-63" transform="translate(703.076172 0)"/>
      <use xlink:href="#DejaVuSans-5f" transform="translate(758.056641 0)"/>
      <use xlink:href="#DejaVuSans-72" transform="translate(808.056641 0)"/>
      <use xlink:href="#DejaVuSans-65" transform="translate(846.919922 0)"/>
      <use xlink:href="#DejaVuSans-74" transform="translate(908.443359 0)"/>
      <use xlink:href="#DejaVuSans-75" transform="translate(947.652344 0)"/>
      <use xlink:href="#DejaVuSans-72" transform="translate(1011.03125 0)"/>
      <use xlink:href="#DejaVuSans-6e" transform="translate(1050.394531 0)"/>
     </g>
    </g>
   </g>
   <g id="line2d_14">
    <path d="M 92.05892 146.295546 
L 93.823946 146.300653 
L 97.353996 146.046077 
L 99.119021 146.182009 
L 100.295705 146.359535 
L 102.06073 146.295981 
L 105.002439 147.082829 
L 112.650882 148.169828 
L 122.652691 145.898475 
L 124.417717 146.25263 
L 125.5944 146.683633 
L 128.536109 147.493471 
L 129.712793 147.862339 
L 133.242843 148.949092 
L 136.772894 151.644981 
L 142.067969 156.089697 
L 143.832995 157.258981 
L 145.59802 156.730253 
L 146.774703 156.647722 
L 147.951387 156.66671 
L 153.834804 155.883197 
L 154.423146 156.10916 
L 155.59983 156.948928 
L 156.776513 157.90502 
L 158.541538 159.116795 
L 159.718222 160.051923 
L 164.424956 163.482956 
L 165.013298 163.299725 
L 166.189981 162.481603 
L 167.366665 161.461439 
L 169.720032 160.118666 
L 172.073399 158.382177 
L 175.015107 156.436135 
L 176.191791 155.959552 
L 177.368474 155.372284 
L 177.956816 155.38028 
L 182.075208 153.793212 
L 182.66355 153.496541 
L 183.840234 153.261238 
L 185.016917 153.022507 
L 188.546968 151.831775 
L 195.018727 149.173057 
L 195.607069 148.861018 
L 196.19541 148.832501 
L 197.960436 149.383768 
L 199.725461 149.526839 
L 200.902144 149.950554 
L 202.078828 150.093123 
L 205.020537 150.964509 
L 206.785562 151.152965 
L 207.962245 151.055144 
L 209.138929 150.842173 
L 210.315612 150.974272 
L 213.257321 150.707239 
L 214.434005 150.766475 
L 216.787372 150.534295 
L 219.140739 151.564326 
L 220.905764 151.979791 
L 222.082447 152.498662 
L 222.670789 152.644523 
L 223.847473 153.32561 
L 227.377523 154.621184 
L 228.554207 154.274344 
L 229.73089 153.862726 
L 231.495915 153.473226 
L 237.967675 151.019091 
L 239.144358 150.959927 
L 241.497725 151.409474 
L 242.674409 151.41431 
L 245.027776 151.694124 
L 246.204459 151.996876 
L 247.969484 152.006235 
L 248.557826 152.134418 
L 249.73451 152.609596 
L 252.676218 153.489893 
L 253.26456 153.732453 
L 254.441244 153.808826 
L 255.617927 154.21877 
L 256.206269 154.410212 
L 256.794611 154.744774 
L 258.559636 155.204623 
L 259.147978 155.061953 
L 259.736319 154.748004 
L 262.089686 153.047839 
L 262.678028 152.659732 
L 263.26637 152.45776 
L 267.384762 149.974337 
L 269.738129 148.436175 
L 272.091496 148.065075 
L 275.033205 147.064933 
L 276.209888 146.691605 
L 277.974914 146.521754 
L 279.151597 146.042406 
L 279.739939 145.767728 
L 280.328281 145.893393 
L 280.916622 146.275557 
L 282.093306 146.682167 
L 285.035015 147.539803 
L 286.211698 148.047377 
L 290.918432 148.930431 
L 292.683457 149.521479 
L 293.271799 149.669101 
L 295.036824 150.418531 
L 296.80185 150.728761 
L 299.743559 151.097732 
L 300.3319 151.48231 
L 300.920242 151.520267 
L 302.096926 150.961516 
L 303.861951 150.036157 
L 305.038634 149.420639 
L 306.215318 148.611872 
L 309.745368 147.148665 
L 310.33371 146.936681 
L 310.922052 146.574238 
L 311.510394 146.576684 
L 316.217128 150.647698 
L 317.393811 151.376213 
L 317.982153 151.858716 
L 318.570495 152.499192 
L 321.512203 154.492857 
L 322.100545 154.176863 
L 323.277229 152.991537 
L 325.042254 152.064135 
L 327.395621 150.308661 
L 332.102355 146.810555 
L 333.279038 146.664026 
L 333.86738 146.558564 
L 334.455722 146.689603 
L 336.220747 146.48722 
L 337.397431 146.882872 
L 338.574114 147.608124 
L 339.750798 147.761538 
L 341.515823 147.688669 
L 342.104165 147.624021 
L 343.280848 147.814013 
L 344.457532 147.827699 
L 345.634215 147.769169 
L 349.164266 147.621211 
L 350.929291 147.409027 
L 351.517633 147.597152 
L 354.459341 147.601296 
L 355.636025 147.648273 
L 359.166075 147.567629 
L 359.754417 147.739618 
L 360.342759 147.703154 
L 361.519442 147.405154 
L 362.107784 147.338127 
L 363.284468 147.432258 
L 363.872809 147.683833 
L 364.461151 148.076904 
L 366.226176 148.357067 
L 366.814518 148.403859 
L 367.991202 148.780532 
L 369.167885 148.938119 
L 369.756227 149.065717 
L 370.93291 149.161626 
L 372.697936 149.829083 
L 373.874619 149.809656 
L 375.051303 149.21574 
L 376.227986 149.347596 
L 377.993011 148.484978 
L 381.523062 147.866658 
L 383.288087 147.260221 
L 384.464771 146.933049 
L 385.053112 146.896839 
L 386.229796 146.675941 
L 386.818138 146.779992 
L 387.994821 146.59146 
L 388.583163 146.42079 
L 389.171505 146.493274 
L 389.759846 146.727148 
L 390.348188 146.78424 
L 392.113213 146.162107 
L 392.701555 146.146718 
L 394.46658 146.424798 
L 396.231606 146.223638 
L 396.819947 146.2813 
L 400.349998 145.480546 
L 401.526681 145.014647 
L 403.880048 144.52051 
L 404.46839 144.64861 
L 406.233415 144.454146 
L 406.821757 144.403266 
L 407.410099 144.554376 
L 408.586782 144.529651 
L 410.351808 144.260024 
L 411.528491 144.295979 
L 412.705175 144.340417 
L 415.646883 144.310806 
L 416.235225 144.37428 
L 417.411909 144.736335 
L 420.353617 145.239146 
L 421.530301 145.63807 
L 426.825377 146.424112 
L 428.00206 146.420572 
L 429.767085 146.037147 
L 430.355427 145.999195 
L 430.943769 146.132667 
L 432.120452 145.86301 
L 433.297136 145.663014 
L 433.885478 145.699085 
L 437.415528 144.760282 
L 438.592212 144.117804 
L 440.945579 143.652789 
L 442.122262 142.972203 
L 445.063971 141.16679 
L 446.828996 140.664356 
L 447.417338 140.39218 
L 448.00568 140.442248 
L 449.770705 141.144278 
L 456.242464 141.336528 
L 457.419148 141.499546 
L 458.595831 141.52126 
L 459.772515 141.771958 
L 460.949198 141.83857 
L 462.125882 142.202752 
L 463.302565 142.049008 
L 463.890907 142.07045 
L 466.832616 143.030432 
L 469.185983 143.288104 
L 473.304375 143.173078 
L 475.0694 143.036106 
L 476.834426 143.10108 
L 478.599451 142.899577 
L 482.129501 143.558729 
L 483.306185 143.742822 
L 483.894527 143.778441 
L 486.247894 144.62212 
L 488.012919 144.894387 
L 489.777944 145.288381 
L 490.366286 145.193951 
L 491.542969 144.735206 
L 493.307995 144.386071 
L 494.484678 143.940412 
L 495.661362 143.916702 
L 498.014729 143.250551 
L 499.779754 142.259376 
L 500.368096 142.179912 
L 502.133121 142.432093 
L 503.309804 142.380595 
L 504.486488 142.399646 
L 506.251513 142.917961 
L 509.781564 143.174908 
L 510.369905 143.00638 
L 511.546589 143.001486 
L 518.018348 145.353285 
L 520.371715 145.547371 
L 523.901766 147.157995 
L 525.078449 147.77559 
L 526.255133 148.061999 
L 527.431816 148.330827 
L 528.6085 148.742525 
L 530.961867 150.025622 
L 531.550208 150.003662 
L 532.13855 149.720977 
L 532.726892 149.69169 
L 534.491917 148.936023 
L 536.845284 147.924392 
L 538.610309 147.575894 
L 540.375335 147.015748 
L 541.552018 146.376468 
L 542.14036 146.1999 
L 543.317043 146.121126 
L 543.905385 146.014769 
L 545.67041 145.304851 
L 546.847094 145.277349 
L 548.612119 145.351901 
L 549.788803 145.221026 
L 554.495537 144.113727 
L 557.437245 143.93391 
L 558.613929 143.693477 
L 559.790612 143.595286 
L 560.967296 143.336421 
L 562.732321 142.663874 
L 563.320663 142.706453 
L 563.909005 142.867163 
L 565.085688 143.556197 
L 566.262372 143.912168 
L 568.027397 143.811638 
L 568.615739 143.966429 
L 570.380764 144.858908 
L 572.734131 145.27708 
L 573.910814 145.291456 
L 578.029207 144.872494 
L 580.970915 144.340534 
L 585.677649 144.336295 
L 586.265991 144.386098 
L 587.442675 144.185601 
L 591.561067 143.235305 
L 593.326092 143.147361 
L 593.914434 143.232464 
L 595.091117 143.704645 
L 598.032826 145.10594 
L 598.621168 145.460786 
L 599.797851 145.672603 
L 600.974535 145.871062 
L 602.73956 146.387057 
L 604.504585 147.541662 
L 605.681269 147.714277 
L 608.034636 147.774736 
L 615.683079 147.675236 
L 617.448104 147.133914 
L 618.624787 146.863837 
L 620.389813 146.839637 
L 622.154838 146.471344 
L 623.919863 146.01328 
L 625.684888 145.600765 
L 629.214939 145.150223 
L 630.391622 144.977883 
L 632.744989 144.570886 
L 635.098356 144.236169 
L 643.335141 142.249603 
L 646.27685 140.903508 
L 647.453533 140.954687 
L 648.630217 141.266173 
L 651.571926 142.503093 
L 652.748609 142.830364 
L 654.513634 142.804398 
L 655.690318 142.850495 
L 656.867001 143.426999 
L 657.455343 143.45927 
L 658.632027 143.24274 
L 660.985394 142.521072 
L 662.162077 142.385478 
L 665.692128 142.100035 
L 666.868811 142.240204 
L 668.045495 142.316803 
L 669.222178 142.301461 
L 671.575545 142.085008 
L 672.752229 142.301201 
L 674.517254 142.724893 
L 675.693937 142.810096 
L 678.635646 143.399539 
L 679.81233 143.491979 
L 679.81233 143.491979 
" clip-path="url(#pb743096985)" style="fill: none; stroke: #0000ff; stroke-width: 1.5; stroke-linecap: square"/>
   </g>
   <g id="patch_3">
    <path d="M 62.67125 390.04 
L 62.67125 25.44 
" style="fill: none; stroke: #000000; stroke-width: 0.8; stroke-linejoin: miter; stroke-linecap: square"/>
   </g>
   <g id="patch_4">
    <path d="M 709.2 390.04 
L 709.2 25.44 
" style="fill: none; stroke: #000000; stroke-width: 0.8; stroke-linejoin: miter; stroke-linecap: square"/>
   </g>
   <g id="patch_5">
    <path d="M 62.67125 390.04 
L 709.2 390.04 
" style="fill: none; stroke: #000000; stroke-width: 0.8; stroke-linejoin: miter; stroke-linecap: square"/>
   </g>
   <g id="patch_6">
    <path d="M 62.67125 25.44 
L 709.2 25.44 
" style="fill: none; stroke: #000000; stroke-width: 0.8; stroke-linejoin: miter; stroke-linecap: square"/>
   </g>
   <g id="text_16">
    <!-- charts/episodic_return for dueling_dqn_atari (aggregated via interpolation over runs) -->
    <g transform="translate(130.893438 19.44) scale(0.12 -0.12)">
     <defs>
      <path id="DejaVuSans-20" transform="scale(0.015625)"/>
      <path id="DejaVuSans-66" d="M 2375 4863 
L 2375 4384 
L 1825 4384 
Q 1516 4384 1395 4259 
Q 1275 4134 1275 3809 
L 1275 3500 
L 2222 3500 
L 2222 3053 
L 1275 3053 
L 1275 0 
L 697 0 
L 697 3053 
L 147 3053 
L 147 3500 
L 697 3500 
L 697 3744 
Q 697 4328 969 4595 
Q 1241 4863 1831 4863 
L 2375 4863 
z
" transform="scale(0.015625)"/>
      <path id="DejaVuSans-6c" d="M 603 4863 
L 1178 4863 
L 1178 0 
L 603 0 
L 603 4863 
z
" transform="scale(0.015625)"/>
      <path id="DejaVuSans-67" d="M 2906 1791 
Q 2906 2416 2648 2759 
Q 2391 3103 1925 3103 
Q 1463 3103 1205 2759 
Q 947 2416 947 1791 
Q 947 1169 1205 825 
Q 1463 481 1925 481 
Q 2391 481 2648 825 
Q 2906 1169 2906 1791 
z
M 3481 434 
Q 3481 -459 3084 -895 
Q 2688 -1331 1869 -1331 
Q 1566 -1331 1297 -1286 
Q 1028 -1241 775 -1147 
L 775 -588 
Q 1028 -725 1275 -790 
Q 1522 -856 1778 -856 
Q 2344 -856 2625 -561 
Q 2906 -266 2906 331 
L 2906 616 
Q 2728 306 2450 153 
Q 2172 0 1784 0 
Q 1141 0 747 490 
Q 353 981 353 1791 
Q 353 2603 747 3093 
Q 1141 3584 1784 3584 
Q 2172 3584 2450 3431 
Q 2728 3278 2906 2969 
L 2906 3500 
L 3481 3500 
L 3481 434 
z
" transform="scale(0.015625)"/>
      <path id="DejaVuSans-71" d="M 947 1747 
Q 947 1113 1208 752 
Q 1469 391 1925 391 
Q 2381 391 2643 752 
Q 2906 1113 2906 1747 
Q 2906 2381 2643 2742 
Q 2381 3103 1925 3103 
Q 1469 3103 1208 2742 
Q 947 2381 947 1747 
z
M 2906 525 
Q 2725 213 2448 61 
Q 2172 -91 1784 -91 
Q 1150 -91 751 415 
Q 353 922 353 1747 
Q 353 2572 751 3078 
Q 1150 3584 1784 3584 
Q 2172 3584 2448 3432 
Q 2725 3281 2906 2969 
L 2906 3500 
L 3481 3500 
L 3481 -1331 
L 2906 -1331 
L 2906 525 
z
" transform="scale(0.015625)"/>
      <path id="DejaVuSans-28" d="M 1984 4856 
Q 1566 4138 1362 3434 
Q 1159 2731 1159 2009 
Q 1159 1288 1364 580 
Q 1569 -128 1984 -844 
L 1484 -844 
Q 1016 -109 783 600 
Q 550 1309 550 2009 
Q 550 2706 781 3412 
Q 1013 4119 1484 4856 
L 1984 4856 
z
" transform="scale(0.015625)"/>
      <path id="DejaVuSans-76" d="M 191 3500 
L 800 3500 
L 1894 563 
L 2988 3500 
L 3597 3500 
L 2284 0 
L 1503 0 
L 191 3500 
z
" transform="scale(0.015625)"/>
      <path id="DejaVuSans-29" d="M 513 4856 
L 1013 4856 
Q 1481 4119 1714 3412 
Q 1947 2706 1947 2009 
Q 1947 1309 1714 600 
Q 1481 -109 1013 -844 
L 513 -844 
Q 928 -128 1133 580 
Q 1338 1288 1338 2009 
Q 1338 2731 1133 3434 
Q 928 4138 513 4856 
z
" transform="scale(0.015625)"/>
     </defs>
     <use xlink:href="#DejaVuSans-63"/>
     <use xlink:href="#DejaVuSans-68" transform="translate(54.980469 0)"/>
     <use xlink:href="#DejaVuSans-61" transform="translate(118.359375 0)"/>
     <use xlink:href="#DejaVuSans-72" transform="translate(179.638672 0)"/>
     <use xlink:href="#DejaVuSans-74" transform="translate(220.751953 0)"/>
     <use xlink:href="#DejaVuSans-73" transform="translate(259.960938 0)"/>
     <use xlink:href="#DejaVuSans-2f" transform="translate(312.060547 0)"/>
     <use xlink:href="#DejaVuSans-65" transform="translate(345.751953 0)"/>
     <use xlink:href="#DejaVuSans-70" transform="translate(407.275391 0)"/>
     <use xlink:href="#DejaVuSans-69" transform="translate(470.751953 0)"/>
     <use xlink:href="#DejaVuSans-73" transform="translate(498.535156 0)"/>
     <use xlink:href="#DejaVuSans-6f" transform="translate(550.634766 0)"/>
     <use xlink:href="#DejaVuSans-64" transform="translate(611.816406 0)"/>
     <use xlink:href="#DejaVuSans-69" transform="translate(675.292969 0)"/>
     <use xlink:href="#DejaVuSans-63" transform="translate(703.076172 0)"/>
     <use xlink:href="#DejaVuSans-5f" transform="translate(758.056641 0)"/>
     <use xlink:href="#DejaVuSans-72" transform="translate(808.056641 0)"/>
     <use xlink:href="#DejaVuSans-65" transform="translate(846.919922 0)"/>
     <use xlink:href="#DejaVuSans-74" transform="translate(908.443359 0)"/>
     <use xlink:href="#DejaVuSans-75" transform="translate(947.652344 0)"/>
     <use xlink:href="#DejaVuSans-72" transform="translate(1011.03125 0)"/>
     <use xlink:href="#DejaVuSans-6e" transform="translate(1050.394531 0)"/>
     <use xlink:href="#DejaVuSans-20" transform="translate(1113.773438 0)"/>
     <use xlink:href="#DejaVuSans-66" transform="translate(1145.560547 0)"/>
     <use xlink:href="#DejaVuSans-6f" transform="translate(1180.765625 0)"/>
     <use xlink:href="#DejaVuSans-72" transform="translate(1241.947266 0)"/>
     <use xlink:href="#DejaVuSans-20" transform="translate(1283.060547 0)"/>
     <use xlink:href="#DejaVuSans-64" transform="translate(1314.847656 0)"/>
     <use xlink:href="#DejaVuSans-75" transform="translate(1378.324219 0)"/>
     <use xlink:href="#DejaVuSans-65" transform="translate(1441.703125 0)"/>
     <use xlink:href="#DejaVuSans-6c" transform="translate(1503.226562 0)"/>
     <use xlink:href="#DejaVuSans-69" transform="translate(1531.009766 0)"/>
     <use xlink:href="#DejaVuSans-6e" transform="translate(1558.792969 0)"/>
     <use xlink:href="#DejaVuSans-67" transform="translate(1622.171875 0)"/>
     <use xlink:href="#DejaVuSans-5f" transform="translate(1685.648438 0)"/>
     <use xlink:href="#DejaVuSans-64" transform="translate(1735.648438 0)"/>
     <use xlink:href="#DejaVuSans-71" transform="translate(1799.125 0)"/>
     <use xlink:href="#DejaVuSans-6e" transform="translate(1862.601562 0)"/>
     <use xlink:href="#DejaVuSans-5f" transform="translate(1925.980469 0)"/>
     <use xlink:href="#DejaVuSans-61" transform="translate(1975.980469 0)"/>
     <use xlink:href="#DejaVuSans-74" transform="translate(2037.259766 0)"/>
     <use xlink:href="#DejaVuSans-61" transform="translate(2076.46875 0)"/>
     <use xlink:href="#DejaVuSans-72" transform="translate(2137.748047 0)"/>
     <use xlink:href="#DejaVuSans-69" transform="translate(2178.861328 0)"/>
     <use xlink:href="#DejaVuSans-20" transform="translate(2206.644531 0)"/>
     <use xlink:href="#DejaVuSans-28" transform="translate(2238.431641 0)"/>
     <use xlink:href="#DejaVuSans-61" transform="translate(2277.445312 0)"/>
     <use xlink:href="#DejaVuSans-67" transform="translate(2338.724609 0)"/>
     <use xlink:href="#DejaVuSans-67" transform="translate(2402.201172 0)"/>
     <use xlink:href="#DejaVuSans-72" transform="translate(2465.677734 0)"/>
     <use xlink:href="#DejaVuSans-65" transform="translate(2504.541016 0)"/>
     <use xlink:href="#DejaVuSans-67" transform="translate(2566.064453 0)"/>
     <use xlink:href="#DejaVuSans-61" transform="translate(2629.541016 0)"/>
     <use xlink:href="#DejaVuSans-74" transform="translate(2690.820312 0)"/>
     <use xlink:href="#DejaVuSans-65" transform="translate(2730.029297 0)"/>
     <use xlink:href="#DejaVuSans-64" transform="translate(2791.552734 0)"/>
     <use xlink:href="#DejaVuSans-20" transform="translate(2855.029297 0)"/>
     <use xlink:href="#DejaVuSans-76" transform="translate(2886.816406 0)"/>
     <use xlink:href="#DejaVuSans-69" transform="translate(2945.996094 0)"/>
     <use xlink:href="#DejaVuSans-61" transform="translate(2973.779297 0)"/>
     <use xlink:href="#DejaVuSans-20" transform="translate(3035.058594 0)"/>
     <use xlink:href="#DejaVuSans-69" transform="translate(3066.845703 0)"/>
     <use xlink:href="#DejaVuSans-6e" transform="translate(3094.628906 0)"/>
     <use xlink:href="#DejaVuSans-74" transform="translate(3158.007812 0)"/>
     <use xlink:href="#DejaVuSans-65" transform="translate(3197.216797 0)"/>
     <use xlink:href="#DejaVuSans-72" transform="translate(3258.740234 0)"/>
     <use xlink:href="#DejaVuSans-70" transform="translate(3299.853516 0)"/>
     <use xlink:href="#DejaVuSans-6f" transform="translate(3363.330078 0)"/>
     <use xlink:href="#DejaVuSans-6c" transform="translate(3424.511719 0)"/>
     <use xlink:href="#DejaVuSans-61" transform="translate(3452.294922 0)"/>
     <use xlink:href="#DejaVuSans-74" transform="translate(3513.574219 0)"/>
     <use xlink:href="#DejaVuSans-69" transform="translate(3552.783203 0)"/>
     <use xlink:href="#DejaVuSans-6f" transform="translate(3580.566406 0)"/>
     <use xlink:href="#DejaVuSans-6e" transform="translate(3641.748047 0)"/>
     <use xlink:href="#DejaVuSans-20" transform="translate(3705.126953 0)"/>
     <use xlink:href="#DejaVuSans-6f" transform="translate(3736.914062 0)"/>
     <use xlink:href="#DejaVuSans-76" transform="translate(3798.095703 0)"/>
     <use xlink:href="#DejaVuSans-65" transform="translate(3857.275391 0)"/>
     <use xlink:href="#DejaVuSans-72" transform="translate(3918.798828 0)"/>
     <use xlink:href="#DejaVuSans-20" transform="translate(3959.912109 0)"/>
     <use xlink:href="#DejaVuSans-72" transform="translate(3991.699219 0)"/>
     <use xlink:href="#DejaVuSans-75" transform="translate(4032.8125 0)"/>
     <use xlink:href="#DejaVuSans-6e" transform="translate(4096.191406 0)"/>
     <use xlink:href="#DejaVuSans-73" transform="translate(4159.570312 0)"/>
     <use xlink:href="#DejaVuSans-29" transform="translate(4211.669922 0)"/>
    </g>
   </g>
   <g id="legend_1">
    <g id="patch_7">
     <path d="M 626.78125 62.79625 
L 702.2 62.79625 
Q 704.2 62.79625 704.2 60.79625 
L 704.2 32.44 
Q 704.2 30.44 702.2 30.44 
L 626.78125 30.44 
Q 624.78125 30.44 624.78125 32.44 
L 624.78125 60.79625 
Q 624.78125 62.79625 626.78125 62.79625 
z
" style="fill: #ffffff; opacity: 0.8; stroke: #cccccc; stroke-linejoin: miter"/>
    </g>
    <g id="line2d_15">
     <path d="M 628.78125 38.538437 
L 638.78125 38.538437 
L 648.78125 38.538437 
" style="fill: none; stroke: #0000ff; stroke-width: 1.5; stroke-linecap: square"/>
    </g>
    <g id="text_17">
     <!-- Mean -->
     <g transform="translate(656.78125 42.038437) scale(0.1 -0.1)">
      <defs>
       <path id="DejaVuSans-4d" d="M 628 4666 
L 1569 4666 
L 2759 1491 
L 3956 4666 
L 4897 4666 
L 4897 0 
L 4281 0 
L 4281 4097 
L 3078 897 
L 2444 897 
L 1241 4097 
L 1241 0 
L 628 0 
L 628 4666 
z
" transform="scale(0.015625)"/>
      </defs>
      <use xlink:href="#DejaVuSans-4d"/>
      <use xlink:href="#DejaVuSans-65" transform="translate(86.279297 0)"/>
      <use xlink:href="#DejaVuSans-61" transform="translate(147.802734 0)"/>
      <use xlink:href="#DejaVuSans-6e" transform="translate(209.082031 0)"/>
     </g>
    </g>
    <g id="patch_8">
     <path d="M 628.78125 56.716563 
L 648.78125 56.716563 
L 648.78125 49.716563 
L 628.78125 49.716563 
z
" style="fill: #0000ff; fill-opacity: 0.3; stroke: #0000ff; stroke-opacity: 0.3; stroke-linejoin: miter"/>
    </g>
    <g id="text_18">
     <!-- MinMax -->
     <g transform="translate(656.78125 56.716563) scale(0.1 -0.1)">
      <defs>
       <path id="DejaVuSans-2013" d="M 313 1978 
L 2888 1978 
L 2888 1528 
L 313 1528 
L 313 1978 
z
" transform="scale(0.015625)"/>
       <path id="DejaVuSans-78" d="M 3513 3500 
L 2247 1797 
L 3578 0 
L 2900 0 
L 1881 1375 
L 863 0 
L 184 0 
L 1544 1831 
L 300 3500 
L 978 3500 
L 1906 2253 
L 2834 3500 
L 3513 3500 
z
" transform="scale(0.015625)"/>
      </defs>
      <use xlink:href="#DejaVuSans-4d"/>
      <use xlink:href="#DejaVuSans-69" transform="translate(86.279297 0)"/>
      <use xlink:href="#DejaVuSans-6e" transform="translate(114.0625 0)"/>
      <use xlink:href="#DejaVuSans-2013" transform="translate(177.441406 0)"/>
      <use xlink:href="#DejaVuSans-4d" transform="translate(227.441406 0)"/>
      <use xlink:href="#DejaVuSans-61" transform="translate(313.720703 0)"/>
      <use xlink:href="#DejaVuSans-78" transform="translate(375 0)"/>
     </g>
    </g>
   </g>
  </g>
 </g>
 <defs>
  <clipPath id="pb743096985">
   <rect x="62.67125" y="25.44" width="646.52875" height="364.6"/>
  </clipPath>
 </defs>
</svg>
