<?xml version="1.0" encoding="utf-8" standalone="no"?>
<!DOCTYPE svg PUBLIC "-//W3C//DTD SVG 1.1//EN"
  "http://www.w3.org/Graphics/SVG/1.1/DTD/svg11.dtd">
<svg xmlns:xlink="http://www.w3.org/1999/xlink" width="720pt" height="432pt" viewBox="0 0 720 432" xmlns="http://www.w3.org/2000/svg" version="1.1">
 <metadata>
  <rdf:RDF xmlns:dc="http://purl.org/dc/elements/1.1/" xmlns:cc="http://creativecommons.org/ns#" xmlns:rdf="http://www.w3.org/1999/02/22-rdf-syntax-ns#">
   <cc:Work>
    <dc:type rdf:resource="http://purl.org/dc/dcmitype/StillImage"/>
    <dc:date>2025-02-05T21:32:15.455122</dc:date>
    <dc:format>image/svg+xml</dc:format>
    <dc:creator>
     <cc:Agent>
      <dc:title>Matplotlib v3.10.0, https://matplotlib.org/</dc:title>
     </cc:Agent>
    </dc:creator>
   </cc:Work>
  </rdf:RDF>
 </metadata>
 <defs>
  <style type="text/css">*{stroke-linejoin: round; stroke-linecap: butt}</style>
 </defs>
 <g id="figure_1">
  <g id="patch_1">
   <path d="M 0 432 
L 720 432 
L 720 0 
L 0 0 
z
" style="fill: #ffffff"/>
  </g>
  <g id="axes_1">
   <g id="patch_2">
    <path d="M 46.64 390.04 
L 709.2 390.04 
L 709.2 25.44 
L 46.64 25.44 
z
" style="fill: #ffffff"/>
   </g>
   <g id="matplotlib.axis_1">
    <g id="xtick_1">
     <g id="line2d_1">
      <defs>
       <path id="mda7599e514" d="M 0 0 
L 0 3.5 
" style="stroke: #000000; stroke-width: 0.8"/>
      </defs>
      <g>
       <use xlink:href="#mda7599e514" x="75.917938" y="390.04" style="stroke: #000000; stroke-width: 0.8"/>
      </g>
     </g>
     <g id="text_1">
      <!-- 0 -->
      <g transform="translate(72.736688 404.638438) scale(0.1 -0.1)">
       <defs>
        <path id="DejaVuSans-30" d="M 2034 4250 
Q 1547 4250 1301 3770 
Q 1056 3291 1056 2328 
Q 1056 1369 1301 889 
Q 1547 409 2034 409 
Q 2525 409 2770 889 
Q 3016 1369 3016 2328 
Q 3016 3291 2770 3770 
Q 2525 4250 2034 4250 
z
M 2034 4750 
Q 2819 4750 3233 4129 
Q 3647 3509 3647 2328 
Q 3647 1150 3233 529 
Q 2819 -91 2034 -91 
Q 1250 -91 836 529 
Q 422 1150 422 2328 
Q 422 3509 836 4129 
Q 1250 4750 2034 4750 
z
" transform="scale(0.015625)"/>
       </defs>
       <use xlink:href="#DejaVuSans-30"/>
      </g>
     </g>
    </g>
    <g id="xtick_2">
     <g id="line2d_2">
      <g>
       <use xlink:href="#mda7599e514" x="196.554697" y="390.04" style="stroke: #000000; stroke-width: 0.8"/>
      </g>
     </g>
     <g id="text_2">
      <!-- 20000 -->
      <g transform="translate(180.648447 404.638438) scale(0.1 -0.1)">
       <defs>
        <path id="DejaVuSans-32" d="M 1228 531 
L 3431 531 
L 3431 0 
L 469 0 
L 469 531 
Q 828 903 1448 1529 
Q 2069 2156 2228 2338 
Q 2531 2678 2651 2914 
Q 2772 3150 2772 3378 
Q 2772 3750 2511 3984 
Q 2250 4219 1831 4219 
Q 1534 4219 1204 4116 
Q 875 4013 500 3803 
L 500 4441 
Q 881 4594 1212 4672 
Q 1544 4750 1819 4750 
Q 2544 4750 2975 4387 
Q 3406 4025 3406 3419 
Q 3406 3131 3298 2873 
Q 3191 2616 2906 2266 
Q 2828 2175 2409 1742 
Q 1991 1309 1228 531 
z
" transform="scale(0.015625)"/>
       </defs>
       <use xlink:href="#DejaVuSans-32"/>
       <use xlink:href="#DejaVuSans-30" transform="translate(63.623047 0)"/>
       <use xlink:href="#DejaVuSans-30" transform="translate(127.246094 0)"/>
       <use xlink:href="#DejaVuSans-30" transform="translate(190.869141 0)"/>
       <use xlink:href="#DejaVuSans-30" transform="translate(254.492188 0)"/>
      </g>
     </g>
    </g>
    <g id="xtick_3">
     <g id="line2d_3">
      <g>
       <use xlink:href="#mda7599e514" x="317.191456" y="390.04" style="stroke: #000000; stroke-width: 0.8"/>
      </g>
     </g>
     <g id="text_3">
      <!-- 40000 -->
      <g transform="translate(301.285206 404.638438) scale(0.1 -0.1)">
       <defs>
        <path id="DejaVuSans-34" d="M 2419 4116 
L 825 1625 
L 2419 1625 
L 2419 4116 
z
M 2253 4666 
L 3047 4666 
L 3047 1625 
L 3713 1625 
L 3713 1100 
L 3047 1100 
L 3047 0 
L 2419 0 
L 2419 1100 
L 313 1100 
L 313 1709 
L 2253 4666 
z
" transform="scale(0.015625)"/>
       </defs>
       <use xlink:href="#DejaVuSans-34"/>
       <use xlink:href="#DejaVuSans-30" transform="translate(63.623047 0)"/>
       <use xlink:href="#DejaVuSans-30" transform="translate(127.246094 0)"/>
       <use xlink:href="#DejaVuSans-30" transform="translate(190.869141 0)"/>
       <use xlink:href="#DejaVuSans-30" transform="translate(254.492188 0)"/>
      </g>
     </g>
    </g>
    <g id="xtick_4">
     <g id="line2d_4">
      <g>
       <use xlink:href="#mda7599e514" x="437.828214" y="390.04" style="stroke: #000000; stroke-width: 0.8"/>
      </g>
     </g>
     <g id="text_4">
      <!-- 60000 -->
      <g transform="translate(421.921964 404.638438) scale(0.1 -0.1)">
       <defs>
        <path id="DejaVuSans-36" d="M 2113 2584 
Q 1688 2584 1439 2293 
Q 1191 2003 1191 1497 
Q 1191 994 1439 701 
Q 1688 409 2113 409 
Q 2538 409 2786 701 
Q 3034 994 3034 1497 
Q 3034 2003 2786 2293 
Q 2538 2584 2113 2584 
z
M 3366 4563 
L 3366 3988 
Q 3128 4100 2886 4159 
Q 2644 4219 2406 4219 
Q 1781 4219 1451 3797 
Q 1122 3375 1075 2522 
Q 1259 2794 1537 2939 
Q 1816 3084 2150 3084 
Q 2853 3084 3261 2657 
Q 3669 2231 3669 1497 
Q 3669 778 3244 343 
Q 2819 -91 2113 -91 
Q 1303 -91 875 529 
Q 447 1150 447 2328 
Q 447 3434 972 4092 
Q 1497 4750 2381 4750 
Q 2619 4750 2861 4703 
Q 3103 4656 3366 4563 
z
" transform="scale(0.015625)"/>
       </defs>
       <use xlink:href="#DejaVuSans-36"/>
       <use xlink:href="#DejaVuSans-30" transform="translate(63.623047 0)"/>
       <use xlink:href="#DejaVuSans-30" transform="translate(127.246094 0)"/>
       <use xlink:href="#DejaVuSans-30" transform="translate(190.869141 0)"/>
       <use xlink:href="#DejaVuSans-30" transform="translate(254.492188 0)"/>
      </g>
     </g>
    </g>
    <g id="xtick_5">
     <g id="line2d_5">
      <g>
       <use xlink:href="#mda7599e514" x="558.464973" y="390.04" style="stroke: #000000; stroke-width: 0.8"/>
      </g>
     </g>
     <g id="text_5">
      <!-- 80000 -->
      <g transform="translate(542.558723 404.638438) scale(0.1 -0.1)">
       <defs>
        <path id="DejaVuSans-38" d="M 2034 2216 
Q 1584 2216 1326 1975 
Q 1069 1734 1069 1313 
Q 1069 891 1326 650 
Q 1584 409 2034 409 
Q 2484 409 2743 651 
Q 3003 894 3003 1313 
Q 3003 1734 2745 1975 
Q 2488 2216 2034 2216 
z
M 1403 2484 
Q 997 2584 770 2862 
Q 544 3141 544 3541 
Q 544 4100 942 4425 
Q 1341 4750 2034 4750 
Q 2731 4750 3128 4425 
Q 3525 4100 3525 3541 
Q 3525 3141 3298 2862 
Q 3072 2584 2669 2484 
Q 3125 2378 3379 2068 
Q 3634 1759 3634 1313 
Q 3634 634 3220 271 
Q 2806 -91 2034 -91 
Q 1263 -91 848 271 
Q 434 634 434 1313 
Q 434 1759 690 2068 
Q 947 2378 1403 2484 
z
M 1172 3481 
Q 1172 3119 1398 2916 
Q 1625 2713 2034 2713 
Q 2441 2713 2670 2916 
Q 2900 3119 2900 3481 
Q 2900 3844 2670 4047 
Q 2441 4250 2034 4250 
Q 1625 4250 1398 4047 
Q 1172 3844 1172 3481 
z
" transform="scale(0.015625)"/>
       </defs>
       <use xlink:href="#DejaVuSans-38"/>
       <use xlink:href="#DejaVuSans-30" transform="translate(63.623047 0)"/>
       <use xlink:href="#DejaVuSans-30" transform="translate(127.246094 0)"/>
       <use xlink:href="#DejaVuSans-30" transform="translate(190.869141 0)"/>
       <use xlink:href="#DejaVuSans-30" transform="translate(254.492188 0)"/>
      </g>
     </g>
    </g>
    <g id="xtick_6">
     <g id="line2d_6">
      <g>
       <use xlink:href="#mda7599e514" x="679.101732" y="390.04" style="stroke: #000000; stroke-width: 0.8"/>
      </g>
     </g>
     <g id="text_6">
      <!-- 100000 -->
      <g transform="translate(660.014232 404.638438) scale(0.1 -0.1)">
       <defs>
        <path id="DejaVuSans-31" d="M 794 531 
L 1825 531 
L 1825 4091 
L 703 3866 
L 703 4441 
L 1819 4666 
L 2450 4666 
L 2450 531 
L 3481 531 
L 3481 0 
L 794 0 
L 794 531 
z
" transform="scale(0.015625)"/>
       </defs>
       <use xlink:href="#DejaVuSans-31"/>
       <use xlink:href="#DejaVuSans-30" transform="translate(63.623047 0)"/>
       <use xlink:href="#DejaVuSans-30" transform="translate(127.246094 0)"/>
       <use xlink:href="#DejaVuSans-30" transform="translate(190.869141 0)"/>
       <use xlink:href="#DejaVuSans-30" transform="translate(254.492188 0)"/>
       <use xlink:href="#DejaVuSans-30" transform="translate(318.115234 0)"/>
      </g>
     </g>
    </g>
    <g id="text_7">
     <!-- Step -->
     <g transform="translate(366.534844 418.316562) scale(0.1 -0.1)">
      <defs>
       <path id="DejaVuSans-53" d="M 3425 4513 
L 3425 3897 
Q 3066 4069 2747 4153 
Q 2428 4238 2131 4238 
Q 1616 4238 1336 4038 
Q 1056 3838 1056 3469 
Q 1056 3159 1242 3001 
Q 1428 2844 1947 2747 
L 2328 2669 
Q 3034 2534 3370 2195 
Q 3706 1856 3706 1288 
Q 3706 609 3251 259 
Q 2797 -91 1919 -91 
Q 1588 -91 1214 -16 
Q 841 59 441 206 
L 441 856 
Q 825 641 1194 531 
Q 1563 422 1919 422 
Q 2459 422 2753 634 
Q 3047 847 3047 1241 
Q 3047 1584 2836 1778 
Q 2625 1972 2144 2069 
L 1759 2144 
Q 1053 2284 737 2584 
Q 422 2884 422 3419 
Q 422 4038 858 4394 
Q 1294 4750 2059 4750 
Q 2388 4750 2728 4690 
Q 3069 4631 3425 4513 
z
" transform="scale(0.015625)"/>
       <path id="DejaVuSans-74" d="M 1172 4494 
L 1172 3500 
L 2356 3500 
L 2356 3053 
L 1172 3053 
L 1172 1153 
Q 1172 725 1289 603 
Q 1406 481 1766 481 
L 2356 481 
L 2356 0 
L 1766 0 
Q 1100 0 847 248 
Q 594 497 594 1153 
L 594 3053 
L 172 3053 
L 172 3500 
L 594 3500 
L 594 4494 
L 1172 4494 
z
" transform="scale(0.015625)"/>
       <path id="DejaVuSans-65" d="M 3597 1894 
L 3597 1613 
L 953 1613 
Q 991 1019 1311 708 
Q 1631 397 2203 397 
Q 2534 397 2845 478 
Q 3156 559 3463 722 
L 3463 178 
Q 3153 47 2828 -22 
Q 2503 -91 2169 -91 
Q 1331 -91 842 396 
Q 353 884 353 1716 
Q 353 2575 817 3079 
Q 1281 3584 2069 3584 
Q 2775 3584 3186 3129 
Q 3597 2675 3597 1894 
z
M 3022 2063 
Q 3016 2534 2758 2815 
Q 2500 3097 2075 3097 
Q 1594 3097 1305 2825 
Q 1016 2553 972 2059 
L 3022 2063 
z
" transform="scale(0.015625)"/>
       <path id="DejaVuSans-70" d="M 1159 525 
L 1159 -1331 
L 581 -1331 
L 581 3500 
L 1159 3500 
L 1159 2969 
Q 1341 3281 1617 3432 
Q 1894 3584 2278 3584 
Q 2916 3584 3314 3078 
Q 3713 2572 3713 1747 
Q 3713 922 3314 415 
Q 2916 -91 2278 -91 
Q 1894 -91 1617 61 
Q 1341 213 1159 525 
z
M 3116 1747 
Q 3116 2381 2855 2742 
Q 2594 3103 2138 3103 
Q 1681 3103 1420 2742 
Q 1159 2381 1159 1747 
Q 1159 1113 1420 752 
Q 1681 391 2138 391 
Q 2594 391 2855 752 
Q 3116 1113 3116 1747 
z
" transform="scale(0.015625)"/>
      </defs>
      <use xlink:href="#DejaVuSans-53"/>
      <use xlink:href="#DejaVuSans-74" transform="translate(63.476562 0)"/>
      <use xlink:href="#DejaVuSans-65" transform="translate(102.685547 0)"/>
      <use xlink:href="#DejaVuSans-70" transform="translate(164.208984 0)"/>
     </g>
    </g>
   </g>
   <g id="matplotlib.axis_2">
    <g id="ytick_1">
     <g id="line2d_7">
      <defs>
       <path id="m487b3de397" d="M 0 0 
L -3.5 0 
" style="stroke: #000000; stroke-width: 0.8"/>
      </defs>
      <g>
       <use xlink:href="#m487b3de397" x="46.64" y="348.441594" style="stroke: #000000; stroke-width: 0.8"/>
      </g>
     </g>
     <g id="text_8">
      <!-- −6 -->
      <g transform="translate(24.897813 352.240813) scale(0.1 -0.1)">
       <defs>
        <path id="DejaVuSans-2212" d="M 678 2272 
L 4684 2272 
L 4684 1741 
L 678 1741 
L 678 2272 
z
" transform="scale(0.015625)"/>
       </defs>
       <use xlink:href="#DejaVuSans-2212"/>
       <use xlink:href="#DejaVuSans-36" transform="translate(83.789062 0)"/>
      </g>
     </g>
    </g>
    <g id="ytick_2">
     <g id="line2d_8">
      <g>
       <use xlink:href="#m487b3de397" x="46.64" y="268.174901" style="stroke: #000000; stroke-width: 0.8"/>
      </g>
     </g>
     <g id="text_9">
      <!-- −4 -->
      <g transform="translate(24.897813 271.97412) scale(0.1 -0.1)">
       <use xlink:href="#DejaVuSans-2212"/>
       <use xlink:href="#DejaVuSans-34" transform="translate(83.789062 0)"/>
      </g>
     </g>
    </g>
    <g id="ytick_3">
     <g id="line2d_9">
      <g>
       <use xlink:href="#m487b3de397" x="46.64" y="187.908209" style="stroke: #000000; stroke-width: 0.8"/>
      </g>
     </g>
     <g id="text_10">
      <!-- −2 -->
      <g transform="translate(24.897813 191.707427) scale(0.1 -0.1)">
       <use xlink:href="#DejaVuSans-2212"/>
       <use xlink:href="#DejaVuSans-32" transform="translate(83.789062 0)"/>
      </g>
     </g>
    </g>
    <g id="ytick_4">
     <g id="line2d_10">
      <g>
       <use xlink:href="#m487b3de397" x="46.64" y="107.641516" style="stroke: #000000; stroke-width: 0.8"/>
      </g>
     </g>
     <g id="text_11">
      <!-- 0 -->
      <g transform="translate(33.2775 111.440735) scale(0.1 -0.1)">
       <use xlink:href="#DejaVuSans-30"/>
      </g>
     </g>
    </g>
    <g id="ytick_5">
     <g id="line2d_11">
      <g>
       <use xlink:href="#m487b3de397" x="46.64" y="27.374823" style="stroke: #000000; stroke-width: 0.8"/>
      </g>
     </g>
     <g id="text_12">
      <!-- 2 -->
      <g transform="translate(33.2775 31.174042) scale(0.1 -0.1)">
       <use xlink:href="#DejaVuSans-32"/>
      </g>
     </g>
    </g>
    <g id="text_13">
     <!-- Normalized (human) Episodic Return -->
     <g transform="translate(18.818125 299.495469) rotate(-90) scale(0.1 -0.1)">
      <defs>
       <path id="DejaVuSans-4e" d="M 628 4666 
L 1478 4666 
L 3547 763 
L 3547 4666 
L 4159 4666 
L 4159 0 
L 3309 0 
L 1241 3903 
L 1241 0 
L 628 0 
L 628 4666 
z
" transform="scale(0.015625)"/>
       <path id="DejaVuSans-6f" d="M 1959 3097 
Q 1497 3097 1228 2736 
Q 959 2375 959 1747 
Q 959 1119 1226 758 
Q 1494 397 1959 397 
Q 2419 397 2687 759 
Q 2956 1122 2956 1747 
Q 2956 2369 2687 2733 
Q 2419 3097 1959 3097 
z
M 1959 3584 
Q 2709 3584 3137 3096 
Q 3566 2609 3566 1747 
Q 3566 888 3137 398 
Q 2709 -91 1959 -91 
Q 1206 -91 779 398 
Q 353 888 353 1747 
Q 353 2609 779 3096 
Q 1206 3584 1959 3584 
z
" transform="scale(0.015625)"/>
       <path id="DejaVuSans-72" d="M 2631 2963 
Q 2534 3019 2420 3045 
Q 2306 3072 2169 3072 
Q 1681 3072 1420 2755 
Q 1159 2438 1159 1844 
L 1159 0 
L 581 0 
L 581 3500 
L 1159 3500 
L 1159 2956 
Q 1341 3275 1631 3429 
Q 1922 3584 2338 3584 
Q 2397 3584 2469 3576 
Q 2541 3569 2628 3553 
L 2631 2963 
z
" transform="scale(0.015625)"/>
       <path id="DejaVuSans-6d" d="M 3328 2828 
Q 3544 3216 3844 3400 
Q 4144 3584 4550 3584 
Q 5097 3584 5394 3201 
Q 5691 2819 5691 2113 
L 5691 0 
L 5113 0 
L 5113 2094 
Q 5113 2597 4934 2840 
Q 4756 3084 4391 3084 
Q 3944 3084 3684 2787 
Q 3425 2491 3425 1978 
L 3425 0 
L 2847 0 
L 2847 2094 
Q 2847 2600 2669 2842 
Q 2491 3084 2119 3084 
Q 1678 3084 1418 2786 
Q 1159 2488 1159 1978 
L 1159 0 
L 581 0 
L 581 3500 
L 1159 3500 
L 1159 2956 
Q 1356 3278 1631 3431 
Q 1906 3584 2284 3584 
Q 2666 3584 2933 3390 
Q 3200 3197 3328 2828 
z
" transform="scale(0.015625)"/>
       <path id="DejaVuSans-61" d="M 2194 1759 
Q 1497 1759 1228 1600 
Q 959 1441 959 1056 
Q 959 750 1161 570 
Q 1363 391 1709 391 
Q 2188 391 2477 730 
Q 2766 1069 2766 1631 
L 2766 1759 
L 2194 1759 
z
M 3341 1997 
L 3341 0 
L 2766 0 
L 2766 531 
Q 2569 213 2275 61 
Q 1981 -91 1556 -91 
Q 1019 -91 701 211 
Q 384 513 384 1019 
Q 384 1609 779 1909 
Q 1175 2209 1959 2209 
L 2766 2209 
L 2766 2266 
Q 2766 2663 2505 2880 
Q 2244 3097 1772 3097 
Q 1472 3097 1187 3025 
Q 903 2953 641 2809 
L 641 3341 
Q 956 3463 1253 3523 
Q 1550 3584 1831 3584 
Q 2591 3584 2966 3190 
Q 3341 2797 3341 1997 
z
" transform="scale(0.015625)"/>
       <path id="DejaVuSans-6c" d="M 603 4863 
L 1178 4863 
L 1178 0 
L 603 0 
L 603 4863 
z
" transform="scale(0.015625)"/>
       <path id="DejaVuSans-69" d="M 603 3500 
L 1178 3500 
L 1178 0 
L 603 0 
L 603 3500 
z
M 603 4863 
L 1178 4863 
L 1178 4134 
L 603 4134 
L 603 4863 
z
" transform="scale(0.015625)"/>
       <path id="DejaVuSans-7a" d="M 353 3500 
L 3084 3500 
L 3084 2975 
L 922 459 
L 3084 459 
L 3084 0 
L 275 0 
L 275 525 
L 2438 3041 
L 353 3041 
L 353 3500 
z
" transform="scale(0.015625)"/>
       <path id="DejaVuSans-64" d="M 2906 2969 
L 2906 4863 
L 3481 4863 
L 3481 0 
L 2906 0 
L 2906 525 
Q 2725 213 2448 61 
Q 2172 -91 1784 -91 
Q 1150 -91 751 415 
Q 353 922 353 1747 
Q 353 2572 751 3078 
Q 1150 3584 1784 3584 
Q 2172 3584 2448 3432 
Q 2725 3281 2906 2969 
z
M 947 1747 
Q 947 1113 1208 752 
Q 1469 391 1925 391 
Q 2381 391 2643 752 
Q 2906 1113 2906 1747 
Q 2906 2381 2643 2742 
Q 2381 3103 1925 3103 
Q 1469 3103 1208 2742 
Q 947 2381 947 1747 
z
" transform="scale(0.015625)"/>
       <path id="DejaVuSans-20" transform="scale(0.015625)"/>
       <path id="DejaVuSans-28" d="M 1984 4856 
Q 1566 4138 1362 3434 
Q 1159 2731 1159 2009 
Q 1159 1288 1364 580 
Q 1569 -128 1984 -844 
L 1484 -844 
Q 1016 -109 783 600 
Q 550 1309 550 2009 
Q 550 2706 781 3412 
Q 1013 4119 1484 4856 
L 1984 4856 
z
" transform="scale(0.015625)"/>
       <path id="DejaVuSans-68" d="M 3513 2113 
L 3513 0 
L 2938 0 
L 2938 2094 
Q 2938 2591 2744 2837 
Q 2550 3084 2163 3084 
Q 1697 3084 1428 2787 
Q 1159 2491 1159 1978 
L 1159 0 
L 581 0 
L 581 4863 
L 1159 4863 
L 1159 2956 
Q 1366 3272 1645 3428 
Q 1925 3584 2291 3584 
Q 2894 3584 3203 3211 
Q 3513 2838 3513 2113 
z
" transform="scale(0.015625)"/>
       <path id="DejaVuSans-75" d="M 544 1381 
L 544 3500 
L 1119 3500 
L 1119 1403 
Q 1119 906 1312 657 
Q 1506 409 1894 409 
Q 2359 409 2629 706 
Q 2900 1003 2900 1516 
L 2900 3500 
L 3475 3500 
L 3475 0 
L 2900 0 
L 2900 538 
Q 2691 219 2414 64 
Q 2138 -91 1772 -91 
Q 1169 -91 856 284 
Q 544 659 544 1381 
z
M 1991 3584 
L 1991 3584 
z
" transform="scale(0.015625)"/>
       <path id="DejaVuSans-6e" d="M 3513 2113 
L 3513 0 
L 2938 0 
L 2938 2094 
Q 2938 2591 2744 2837 
Q 2550 3084 2163 3084 
Q 1697 3084 1428 2787 
Q 1159 2491 1159 1978 
L 1159 0 
L 581 0 
L 581 3500 
L 1159 3500 
L 1159 2956 
Q 1366 3272 1645 3428 
Q 1925 3584 2291 3584 
Q 2894 3584 3203 3211 
Q 3513 2838 3513 2113 
z
" transform="scale(0.015625)"/>
       <path id="DejaVuSans-29" d="M 513 4856 
L 1013 4856 
Q 1481 4119 1714 3412 
Q 1947 2706 1947 2009 
Q 1947 1309 1714 600 
Q 1481 -109 1013 -844 
L 513 -844 
Q 928 -128 1133 580 
Q 1338 1288 1338 2009 
Q 1338 2731 1133 3434 
Q 928 4138 513 4856 
z
" transform="scale(0.015625)"/>
       <path id="DejaVuSans-45" d="M 628 4666 
L 3578 4666 
L 3578 4134 
L 1259 4134 
L 1259 2753 
L 3481 2753 
L 3481 2222 
L 1259 2222 
L 1259 531 
L 3634 531 
L 3634 0 
L 628 0 
L 628 4666 
z
" transform="scale(0.015625)"/>
       <path id="DejaVuSans-73" d="M 2834 3397 
L 2834 2853 
Q 2591 2978 2328 3040 
Q 2066 3103 1784 3103 
Q 1356 3103 1142 2972 
Q 928 2841 928 2578 
Q 928 2378 1081 2264 
Q 1234 2150 1697 2047 
L 1894 2003 
Q 2506 1872 2764 1633 
Q 3022 1394 3022 966 
Q 3022 478 2636 193 
Q 2250 -91 1575 -91 
Q 1294 -91 989 -36 
Q 684 19 347 128 
L 347 722 
Q 666 556 975 473 
Q 1284 391 1588 391 
Q 1994 391 2212 530 
Q 2431 669 2431 922 
Q 2431 1156 2273 1281 
Q 2116 1406 1581 1522 
L 1381 1569 
Q 847 1681 609 1914 
Q 372 2147 372 2553 
Q 372 3047 722 3315 
Q 1072 3584 1716 3584 
Q 2034 3584 2315 3537 
Q 2597 3491 2834 3397 
z
" transform="scale(0.015625)"/>
       <path id="DejaVuSans-63" d="M 3122 3366 
L 3122 2828 
Q 2878 2963 2633 3030 
Q 2388 3097 2138 3097 
Q 1578 3097 1268 2742 
Q 959 2388 959 1747 
Q 959 1106 1268 751 
Q 1578 397 2138 397 
Q 2388 397 2633 464 
Q 2878 531 3122 666 
L 3122 134 
Q 2881 22 2623 -34 
Q 2366 -91 2075 -91 
Q 1284 -91 818 406 
Q 353 903 353 1747 
Q 353 2603 823 3093 
Q 1294 3584 2113 3584 
Q 2378 3584 2631 3529 
Q 2884 3475 3122 3366 
z
" transform="scale(0.015625)"/>
       <path id="DejaVuSans-52" d="M 2841 2188 
Q 3044 2119 3236 1894 
Q 3428 1669 3622 1275 
L 4263 0 
L 3584 0 
L 2988 1197 
Q 2756 1666 2539 1819 
Q 2322 1972 1947 1972 
L 1259 1972 
L 1259 0 
L 628 0 
L 628 4666 
L 2053 4666 
Q 2853 4666 3247 4331 
Q 3641 3997 3641 3322 
Q 3641 2881 3436 2590 
Q 3231 2300 2841 2188 
z
M 1259 4147 
L 1259 2491 
L 2053 2491 
Q 2509 2491 2742 2702 
Q 2975 2913 2975 3322 
Q 2975 3731 2742 3939 
Q 2509 4147 2053 4147 
L 1259 4147 
z
" transform="scale(0.015625)"/>
      </defs>
      <use xlink:href="#DejaVuSans-4e"/>
      <use xlink:href="#DejaVuSans-6f" transform="translate(74.804688 0)"/>
      <use xlink:href="#DejaVuSans-72" transform="translate(135.986328 0)"/>
      <use xlink:href="#DejaVuSans-6d" transform="translate(175.349609 0)"/>
      <use xlink:href="#DejaVuSans-61" transform="translate(272.761719 0)"/>
      <use xlink:href="#DejaVuSans-6c" transform="translate(334.041016 0)"/>
      <use xlink:href="#DejaVuSans-69" transform="translate(361.824219 0)"/>
      <use xlink:href="#DejaVuSans-7a" transform="translate(389.607422 0)"/>
      <use xlink:href="#DejaVuSans-65" transform="translate(442.097656 0)"/>
      <use xlink:href="#DejaVuSans-64" transform="translate(503.621094 0)"/>
      <use xlink:href="#DejaVuSans-20" transform="translate(567.097656 0)"/>
      <use xlink:href="#DejaVuSans-28" transform="translate(598.884766 0)"/>
      <use xlink:href="#DejaVuSans-68" transform="translate(637.898438 0)"/>
      <use xlink:href="#DejaVuSans-75" transform="translate(701.277344 0)"/>
      <use xlink:href="#DejaVuSans-6d" transform="translate(764.65625 0)"/>
      <use xlink:href="#DejaVuSans-61" transform="translate(862.068359 0)"/>
      <use xlink:href="#DejaVuSans-6e" transform="translate(923.347656 0)"/>
      <use xlink:href="#DejaVuSans-29" transform="translate(986.726562 0)"/>
      <use xlink:href="#DejaVuSans-20" transform="translate(1025.740234 0)"/>
      <use xlink:href="#DejaVuSans-45" transform="translate(1057.527344 0)"/>
      <use xlink:href="#DejaVuSans-70" transform="translate(1120.710938 0)"/>
      <use xlink:href="#DejaVuSans-69" transform="translate(1184.1875 0)"/>
      <use xlink:href="#DejaVuSans-73" transform="translate(1211.970703 0)"/>
      <use xlink:href="#DejaVuSans-6f" transform="translate(1264.070312 0)"/>
      <use xlink:href="#DejaVuSans-64" transform="translate(1325.251953 0)"/>
      <use xlink:href="#DejaVuSans-69" transform="translate(1388.728516 0)"/>
      <use xlink:href="#DejaVuSans-63" transform="translate(1416.511719 0)"/>
      <use xlink:href="#DejaVuSans-20" transform="translate(1471.492188 0)"/>
      <use xlink:href="#DejaVuSans-52" transform="translate(1503.279297 0)"/>
      <use xlink:href="#DejaVuSans-65" transform="translate(1568.261719 0)"/>
      <use xlink:href="#DejaVuSans-74" transform="translate(1629.785156 0)"/>
      <use xlink:href="#DejaVuSans-75" transform="translate(1668.994141 0)"/>
      <use xlink:href="#DejaVuSans-72" transform="translate(1732.373047 0)"/>
      <use xlink:href="#DejaVuSans-6e" transform="translate(1771.736328 0)"/>
     </g>
    </g>
   </g>
   <g id="line2d_12">
    <path d="M 79.736092 107.960303 
L 83.33353 107.667756 
L 85.13225 107.573408 
L 89.329262 107.895977 
L 93.526274 107.506106 
L 104.918164 107.424454 
L 109.115176 106.853906 
L 110.314322 106.79325 
L 112.712614 106.628714 
L 114.511334 106.38289 
L 115.71048 106.089877 
L 116.909627 106.230807 
L 121.706212 107.079667 
L 125.303651 106.981427 
L 126.502797 106.954526 
L 127.701943 106.749851 
L 130.699809 105.947131 
L 131.898955 105.646268 
L 132.498528 105.640204 
L 133.098101 105.786407 
L 134.896821 106.569112 
L 137.295113 106.860622 
L 140.292979 106.922764 
L 148.08743 106.957656 
L 150.485723 107.197831 
L 151.085296 107.096095 
L 154.083161 105.973845 
L 155.282308 106.301355 
L 157.081027 106.826286 
L 160.678466 106.047491 
L 163.676332 106.557377 
L 165.475051 106.653265 
L 169.672063 106.028528 
L 171.470783 106.355013 
L 175.068221 106.963635 
L 176.267368 106.82861 
L 179.265233 106.521424 
L 180.46438 106.52901 
L 182.263099 106.75984 
L 183.462245 106.751565 
L 187.659257 106.154126 
L 190.657123 106.099793 
L 191.85627 105.888356 
L 194.254562 106.344675 
L 195.453708 106.747817 
L 196.652855 106.841112 
L 200.250294 106.634594 
L 202.049013 106.646325 
L 203.847732 106.579745 
L 207.445171 106.469286 
L 209.843464 106.607197 
L 210.443037 106.607883 
L 212.241756 106.345515 
L 213.440903 106.287114 
L 215.839195 106.310706 
L 217.637915 106.22007 
L 221.834927 106.732572 
L 224.832792 106.56047 
L 228.430231 106.031761 
L 230.828524 105.451522 
L 233.82639 106.532208 
L 234.425963 106.458685 
L 236.824255 105.614991 
L 238.023402 105.453166 
L 241.62084 106.421659 
L 243.41956 106.657801 
L 250.014864 105.86574 
L 251.214011 105.55822 
L 254.211876 106.290406 
L 256.010596 106.173755 
L 259.008462 106.434789 
L 262.6059 105.461085 
L 266.802912 106.294884 
L 268.601632 106.328531 
L 271.599498 106.130743 
L 272.798644 106.362514 
L 273.99779 106.59885 
L 276.396083 106.771541 
L 276.995656 106.771442 
L 278.194802 106.168039 
L 281.792241 104.073543 
L 282.391814 104.194102 
L 283.590961 104.799344 
L 285.989253 106.342349 
L 286.588826 106.427242 
L 291.385411 105.761942 
L 292.584558 105.354971 
L 293.783704 105.652615 
L 294.98285 106.100058 
L 298.580289 105.793507 
L 299.179862 105.82262 
L 302.177728 106.724181 
L 303.976447 106.74633 
L 305.775167 106.557309 
L 308.173459 106.602234 
L 309.372606 106.759908 
L 309.972179 106.69057 
L 311.171325 105.883424 
L 312.970045 104.533991 
L 314.169191 104.049744 
L 314.768764 104.106471 
L 315.368337 104.278726 
L 317.167057 105.824066 
L 317.76663 106.081489 
L 318.366203 106.16124 
L 321.364069 105.562567 
L 321.963642 105.594386 
L 322.563215 105.745646 
L 323.762361 105.706981 
L 325.561081 105.301946 
L 327.3598 104.644315 
L 329.758093 105.949424 
L 330.357666 106.27761 
L 331.556812 106.455789 
L 332.755958 106.443004 
L 334.554678 105.736586 
L 335.154251 105.494605 
L 335.753824 105.447248 
L 336.95297 105.740107 
L 338.152117 106.190138 
L 339.351263 106.229234 
L 341.749555 105.896869 
L 344.747421 105.033046 
L 350.14358 106.077591 
L 351.342726 106.123626 
L 354.340592 106.146761 
L 359.137177 106.613374 
L 360.336323 106.53931 
L 364.533335 105.907945 
L 366.332054 105.884398 
L 369.32992 105.897524 
L 372.927359 106.277123 
L 377.723944 105.684508 
L 381.920956 105.108627 
L 384.918822 105.521744 
L 386.117968 105.562147 
L 387.916688 105.944474 
L 389.715407 106.388429 
L 391.514126 106.407361 
L 395.111565 106.207167 
L 397.509858 106.340823 
L 400.507724 106.039704 
L 408.302174 106.21079 
L 412.499186 105.841531 
L 414.897479 106.263672 
L 415.497052 106.261528 
L 416.696198 105.979747 
L 418.494918 105.171946 
L 419.694064 104.599 
L 420.293637 104.35401 
L 420.893211 104.272719 
L 422.69193 104.913853 
L 425.689796 105.963976 
L 427.488515 106.255332 
L 431.085954 106.102554 
L 432.884673 106.26882 
L 435.882539 105.494666 
L 436.482112 105.516005 
L 440.079551 106.36721 
L 443.67699 106.48189 
L 444.876136 106.620451 
L 447.274429 106.284277 
L 451.471441 106.158211 
L 453.27016 106.223055 
L 456.268026 105.791691 
L 457.467172 105.739834 
L 462.263757 106.196367 
L 468.859062 105.329408 
L 469.458635 105.118293 
L 471.257355 104.995512 
L 472.456501 104.816022 
L 473.655647 104.916124 
L 474.25522 104.919436 
L 475.454367 105.41849 
L 476.05394 105.707121 
L 478.452232 105.625127 
L 480.250952 105.25213 
L 482.649244 105.787414 
L 485.047537 106.405746 
L 486.846256 106.332822 
L 490.443695 106.093869 
L 494.640707 106.281895 
L 495.839853 106.517104 
L 497.638573 106.410104 
L 499.437292 106.276547 
L 500.036866 106.309965 
L 502.435158 105.639045 
L 504.233878 105.043933 
L 506.032597 105.23288 
L 507.831316 105.647827 
L 509.030463 105.599439 
L 512.028328 106.433681 
L 513.227475 106.638816 
L 515.026194 106.527299 
L 518.623633 106.166691 
L 519.822779 106.393221 
L 521.621499 106.781196 
L 522.820645 106.827491 
L 524.019791 106.747428 
L 527.017657 106.320097 
L 529.41595 105.90871 
L 531.814242 105.14595 
L 533.013388 104.642887 
L 533.612962 104.659049 
L 535.411681 105.529368 
L 536.610827 105.586453 
L 537.809974 105.563704 
L 539.00912 105.979866 
L 539.608693 106.243432 
L 540.807839 106.390227 
L 542.006986 106.360411 
L 544.405278 106.078818 
L 548.002717 105.985046 
L 549.801436 105.736455 
L 551.600156 105.94226 
L 552.199729 106.125331 
L 552.799302 106.122919 
L 556.396741 105.129404 
L 557.595887 105.37407 
L 559.99418 105.917791 
L 563.591619 106.005748 
L 564.790765 105.982887 
L 567.189058 106.498637 
L 569.58735 106.397518 
L 573.184789 106.113568 
L 574.983509 106.088258 
L 577.381801 105.997233 
L 578.580947 105.91777 
L 579.180521 105.821708 
L 581.578813 104.75976 
L 583.977106 104.562389 
L 586.375398 104.922873 
L 588.174118 105.089261 
L 591.171983 105.864594 
L 592.37113 105.621548 
L 594.169849 105.651882 
L 599.566007 106.294078 
L 603.763019 105.648973 
L 604.962166 105.701774 
L 606.161312 106.061842 
L 607.960031 106.245593 
L 612.157043 106.223884 
L 613.35619 106.216813 
L 617.553202 105.304613 
L 618.752348 105.407648 
L 620.551067 105.593033 
L 622.94936 105.676894 
L 626.546799 105.332913 
L 629.544665 105.467287 
L 635.540396 106.02197 
L 636.739542 106.251257 
L 637.938689 106.00495 
L 642.135701 104.487908 
L 645.133566 105.67946 
L 648.731005 105.698344 
L 653.52759 106.114479 
L 655.32631 106.310888 
L 658.324176 106.048371 
L 660.122895 105.707049 
L 661.921614 105.191452 
L 662.521188 105.199863 
L 664.319907 105.640212 
L 665.519053 105.823082 
L 668.516919 105.807192 
L 670.315638 105.31106 
L 672.114358 104.776547 
L 674.51265 104.20015 
L 675.711797 104.339091 
L 678.709662 105.258463 
L 678.709662 105.258463 
" clip-path="url(#p01c92dfb88)" style="fill: none; stroke: #ff0000; stroke-width: 1.5; stroke-linecap: square"/>
   </g>
   <g id="line2d_13">
    <path d="M 79.13894 107.738834 
L 89.304072 107.644281 
L 92.293817 107.642016 
L 94.685612 107.68644 
L 99.469204 107.397986 
L 106.644592 107.368594 
L 111.428183 107.264136 
L 116.211775 107.557529 
L 119.20152 107.557615 
L 122.191264 107.097038 
L 123.387162 107.158861 
L 126.376907 107.332802 
L 127.572805 107.308359 
L 131.160499 107.557411 
L 138.933835 107.085829 
L 145.511274 107.245288 
L 147.903069 107.266922 
L 152.686661 107.12174 
L 155.078457 107.066789 
L 159.862049 106.800931 
L 161.655895 106.544163 
L 163.449742 106.469597 
L 165.841538 106.541814 
L 171.223079 106.717498 
L 176.00667 106.814524 
L 182.584109 106.951701 
L 186.171803 106.797369 
L 191.553343 106.742386 
L 193.945139 106.794978 
L 196.934884 107.211679 
L 198.728731 106.98048 
L 201.120527 106.644564 
L 202.316424 106.68043 
L 204.110271 106.897081 
L 205.904118 107.164795 
L 207.697965 107.281738 
L 209.491812 107.099716 
L 213.079506 106.621839 
L 219.656944 106.817038 
L 222.04874 106.869563 
L 223.842587 106.960187 
L 225.636434 107.095006 
L 228.02823 107.179674 
L 232.213872 107.066677 
L 234.605668 107.126788 
L 236.997464 106.989557 
L 244.7708 107.221205 
L 246.564647 107.066526 
L 247.760545 106.948245 
L 254.337984 106.780954 
L 257.925677 106.995213 
L 263.307218 106.847468 
L 265.699014 106.548965 
L 269.286707 106.767826 
L 271.678503 106.362405 
L 274.070299 106.110737 
L 275.864146 106.356788 
L 277.657993 106.561148 
L 280.049789 106.402697 
L 281.245687 106.425137 
L 285.431329 106.896319 
L 287.823125 106.63484 
L 296.792359 106.555215 
L 299.782104 106.998185 
L 301.575951 106.636675 
L 303.369798 106.296654 
L 305.163645 106.44507 
L 306.359543 106.700372 
L 308.15339 106.695965 
L 309.947236 106.550671 
L 311.741083 106.957008 
L 313.53493 107.205941 
L 316.524675 107.15747 
L 318.916471 106.842778 
L 320.710318 106.564782 
L 322.504164 106.576711 
L 325.493909 106.792022 
L 329.679552 106.865845 
L 336.854939 106.321084 
L 338.050837 106.385951 
L 340.442633 106.988488 
L 341.638531 106.949133 
L 344.030327 106.325278 
L 345.226225 106.380293 
L 347.618021 106.953342 
L 348.813918 107.013014 
L 354.793408 105.917701 
L 359.577 106.822484 
L 366.752387 106.891408 
L 369.144183 106.902679 
L 371.535979 106.623675 
L 372.731877 106.698142 
L 375.721621 107.157739 
L 388.27855 106.83441 
L 392.464192 106.676991 
L 394.855988 106.541506 
L 396.051886 106.613183 
L 399.041631 106.836721 
L 401.433427 106.769544 
L 405.619069 106.673199 
L 409.206763 106.904661 
L 411.598559 106.948108 
L 416.980099 106.572354 
L 419.969844 106.40322 
L 427.145232 106.890742 
L 436.114466 106.841231 
L 442.093956 106.896187 
L 445.0837 106.892327 
L 455.248833 106.530771 
L 458.836526 106.5286 
L 466.609863 106.473424 
L 477.970893 106.220585 
L 479.76474 106.142638 
L 485.744229 106.663336 
L 488.733974 106.634982 
L 492.919617 106.480625 
L 497.105259 106.637982 
L 498.899106 106.652895 
L 501.290902 106.622338 
L 504.878596 106.023648 
L 506.672443 105.837917 
L 507.868341 105.991254 
L 510.858085 106.513465 
L 512.651932 106.638278 
L 519.229371 106.112965 
L 522.219116 106.361306 
L 524.610911 106.574223 
L 526.404758 106.547047 
L 531.18835 106.391139 
L 536.56989 106.559354 
L 541.353482 105.705394 
L 544.343227 105.922327 
L 547.930921 106.376502 
L 551.518614 106.522648 
L 553.91041 106.224037 
L 556.302206 105.917305 
L 558.694002 105.969165 
L 562.281696 106.304643 
L 563.477593 106.338271 
L 569.457083 105.821383 
L 571.25093 105.876031 
L 573.044777 106.056707 
L 575.436573 106.363983 
L 579.622215 106.337966 
L 580.818113 106.3464 
L 586.199654 105.878889 
L 587.993501 106.167688 
L 589.787348 106.39119 
L 591.581194 106.39232 
L 596.962735 106.092547 
L 598.158633 105.937434 
L 608.323765 106.159852 
L 611.911459 106.150434 
L 613.705306 106.167631 
L 617.292999 105.742912 
L 620.282744 105.419416 
L 625.066336 106.062822 
L 627.458132 106.29223 
L 628.65403 106.330061 
L 632.839672 106.033721 
L 634.633519 106.103382 
L 635.829417 106.170257 
L 639.417111 106.054752 
L 641.210958 106.271085 
L 643.004805 106.30834 
L 644.798651 106.23698 
L 645.994549 106.298541 
L 647.788396 106.173982 
L 649.582243 106.065064 
L 652.571988 105.85416 
L 661.541222 106.377875 
L 666.922763 106.442765 
L 671.706354 106.526079 
L 676.489946 106.783678 
L 676.489946 106.783678 
" clip-path="url(#p01c92dfb88)" style="fill: none; stroke: #0000ff; stroke-width: 1.5; stroke-linecap: square"/>
   </g>
   <g id="line2d_14">
    <path d="M 78.161782 107.205078 
L 79.963218 107.042171 
L 82.365134 107.247081 
L 82.965612 107.59513 
L 84.16657 107.80213 
L 85.367528 107.919855 
L 85.968007 107.653468 
L 86.568485 107.636931 
L 87.168964 107.800812 
L 88.970401 108.970951 
L 89.57088 109.096281 
L 90.171358 109.339851 
L 91.372316 109.202908 
L 93.173753 108.288069 
L 94.37471 107.607945 
L 95.575668 106.884162 
L 98.578062 106.454687 
L 100.979977 107.315853 
L 101.580456 107.249937 
L 102.180935 106.950123 
L 102.781414 107.457655 
L 103.381893 108.121433 
L 103.982371 108.368766 
L 105.183329 108.139273 
L 105.783808 108.211651 
L 106.984765 108.050276 
L 108.786202 107.974418 
L 111.788596 106.600738 
L 112.989554 106.077748 
L 115.991948 106.49689 
L 116.592427 106.530959 
L 120.795778 105.416131 
L 121.996736 105.413241 
L 124.398651 106.447039 
L 126.200088 107.72758 
L 127.401046 108.311165 
L 128.001524 108.406867 
L 131.003919 107.44335 
L 134.606791 106.516039 
L 135.20727 106.346466 
L 136.408228 107.428463 
L 137.609186 108.753113 
L 138.209664 108.832672 
L 140.011101 108.570191 
L 141.212059 108.07477 
L 146.616368 105.569566 
L 147.817326 105.694971 
L 150.219241 106.250175 
L 152.020677 106.06704 
L 154.422593 105.809295 
L 156.824508 106.157097 
L 157.424987 106.10364 
L 161.628339 104.9278 
L 162.228817 104.885683 
L 164.030254 105.322088 
L 165.231212 104.569093 
L 166.432169 104.309132 
L 167.032648 104.401423 
L 168.233606 104.825344 
L 170.035042 105.892766 
L 171.836479 106.705608 
L 173.037436 107.134004 
L 173.637915 107.04784 
L 174.238394 106.70743 
L 175.439352 106.363127 
L 177.841267 106.023298 
L 183.245576 103.619384 
L 184.446534 103.740285 
L 187.448928 103.298544 
L 188.049407 103.051342 
L 188.649886 102.970026 
L 189.850843 103.25407 
L 192.252759 103.858253 
L 195.255153 103.438589 
L 197.056589 103.507495 
L 197.657068 103.702754 
L 199.458505 105.496519 
L 200.058983 105.529131 
L 202.460899 105.157974 
L 203.661856 104.8518 
L 204.262335 104.880776 
L 206.063772 104.476726 
L 206.664251 104.238703 
L 208.465687 103.209301 
L 210.267123 102.653789 
L 210.867602 102.707428 
L 213.269518 103.986611 
L 213.869996 104.127201 
L 216.872391 102.928278 
L 217.472869 102.998256 
L 220.475263 106.498845 
L 221.075742 106.492747 
L 222.877179 105.91536 
L 223.477658 105.572496 
L 224.078136 105.389478 
L 224.678615 105.370276 
L 225.279094 105.198551 
L 227.080531 103.043187 
L 227.681009 102.718836 
L 228.281488 102.648622 
L 228.881967 103.034145 
L 230.683404 105.432453 
L 231.283882 105.446946 
L 233.085319 103.849214 
L 233.685798 103.342393 
L 234.286276 103.049592 
L 236.087713 102.975581 
L 236.688192 103.193918 
L 239.690586 103.593636 
L 240.891544 102.577317 
L 243.293459 101.265131 
L 243.893938 101.379589 
L 245.094895 102.022611 
L 245.695374 102.698843 
L 246.295853 103.65956 
L 247.496811 105.120157 
L 248.097289 105.16404 
L 249.298247 104.002337 
L 251.099684 103.793032 
L 254.102078 103.828843 
L 257.104472 101.042417 
L 257.704951 100.555881 
L 258.305429 100.236379 
L 258.905908 100.743661 
L 260.106866 102.327334 
L 260.707345 102.899367 
L 261.307824 102.839012 
L 261.908302 102.974794 
L 263.709739 102.665818 
L 264.910697 102.520199 
L 267.312612 102.502238 
L 268.51357 103.293624 
L 269.114048 103.935524 
L 269.714527 104.745666 
L 270.315006 105.051474 
L 270.915485 105.076161 
L 275.118837 103.692317 
L 275.719315 103.288684 
L 276.920273 101.496041 
L 277.520752 100.804216 
L 280.523146 101.990576 
L 281.724104 103.360011 
L 282.324582 103.862417 
L 283.52554 103.439189 
L 284.726498 102.671038 
L 285.326977 102.651525 
L 286.527934 102.883057 
L 287.728892 102.658833 
L 288.92985 102.022454 
L 289.530328 102.417777 
L 290.731286 103.610727 
L 291.331765 103.978073 
L 293.73368 104.235579 
L 294.934638 103.788044 
L 296.135595 103.261511 
L 297.336553 102.885668 
L 297.937032 102.58611 
L 298.537511 102.104015 
L 300.939426 101.645966 
L 302.740863 102.915122 
L 303.341341 103.608581 
L 303.94182 103.861517 
L 306.343736 102.502931 
L 307.544693 101.570609 
L 308.145172 101.834053 
L 308.745651 102.568094 
L 309.34613 103.095763 
L 310.547087 104.948171 
L 311.147566 105.49113 
L 312.348524 103.897824 
L 314.14996 102.327275 
L 315.350918 100.818058 
L 315.951397 100.685711 
L 317.152354 101.104331 
L 318.953791 101.607503 
L 319.55427 102.056406 
L 321.355706 102.586936 
L 321.956185 103.173392 
L 323.757621 103.335793 
L 324.3581 102.716557 
L 325.559058 102.284329 
L 326.159537 102.310128 
L 327.360494 102.767594 
L 327.960973 103.139895 
L 329.161931 104.099089 
L 330.362889 104.859771 
L 330.963367 104.862703 
L 331.563846 104.669001 
L 333.965761 103.102168 
L 335.767198 103.207206 
L 336.968156 103.110272 
L 337.568634 102.805555 
L 339.370071 102.369498 
L 339.97055 102.325885 
L 340.571029 102.079405 
L 341.171507 102.062982 
L 342.972944 102.950346 
L 344.173902 103.073506 
L 344.77438 102.846866 
L 345.975338 102.879344 
L 346.575817 102.74543 
L 348.377253 102.7743 
L 349.578211 102.977257 
L 353.781563 102.39988 
L 354.382042 102.42182 
L 356.783957 103.051325 
L 357.384436 103.35513 
L 358.585393 104.244562 
L 359.786351 104.786644 
L 360.38683 104.715641 
L 362.788745 103.585704 
L 364.590182 103.147655 
L 365.791139 102.891642 
L 366.992097 102.260042 
L 368.793533 101.216826 
L 369.394012 101.165319 
L 371.195449 101.378526 
L 371.795927 101.640613 
L 372.396406 102.21417 
L 374.197843 104.884307 
L 374.798322 105.794306 
L 375.3988 105.945672 
L 375.999279 105.932297 
L 376.599758 105.704713 
L 377.800716 104.476236 
L 379.001673 103.112531 
L 379.602152 103.197433 
L 381.403589 104.234746 
L 382.004068 104.392016 
L 383.805504 103.854551 
L 385.006462 103.53357 
L 388.008856 105.492453 
L 388.609335 105.523439 
L 389.810292 104.551865 
L 392.212208 103.319243 
L 394.013644 101.95258 
L 395.214602 101.378885 
L 395.81508 101.353553 
L 396.415559 101.581687 
L 398.216996 102.642296 
L 402.420348 101.974409 
L 403.621305 101.992266 
L 404.822263 101.691984 
L 405.422742 101.429511 
L 406.023221 100.93937 
L 407.224178 99.624812 
L 410.226572 99.428461 
L 411.42753 99.411994 
L 413.228966 101.724862 
L 413.829445 101.826098 
L 415.030403 101.434248 
L 415.630882 100.979237 
L 417.432318 100.319545 
L 418.633276 99.896194 
L 419.233755 100.217632 
L 421.63567 102.640486 
L 422.236149 102.765809 
L 423.437106 102.24057 
L 427.039979 99.670975 
L 427.640458 99.574919 
L 428.841416 99.86927 
L 429.441895 100.055454 
L 430.042374 100.097945 
L 433.645246 101.848479 
L 434.846204 101.395891 
L 436.647641 100.681115 
L 438.449077 100.78263 
L 439.650035 101.851557 
L 440.250514 102.144535 
L 440.850992 102.2822 
L 442.652429 103.045589 
L 443.252908 103.123987 
L 443.853387 103.085944 
L 444.453865 102.874447 
L 445.054344 102.249995 
L 446.255302 101.414017 
L 446.855781 101.663615 
L 448.657217 102.817503 
L 449.858175 103.063357 
L 451.659611 103.065957 
L 452.860569 102.728541 
L 453.461048 102.833766 
L 454.061527 102.812205 
L 456.463442 102.230464 
L 457.063921 101.677084 
L 458.865357 100.727353 
L 460.666794 99.821162 
L 461.267272 99.668764 
L 461.867751 99.945322 
L 462.46823 100.737352 
L 463.068709 101.251961 
L 464.870145 100.155554 
L 466.671582 98.680121 
L 468.473018 97.493985 
L 470.274455 98.256794 
L 470.874934 98.481722 
L 473.276849 98.642803 
L 475.078285 98.195564 
L 476.279243 98.076747 
L 478.08068 98.468606 
L 479.882116 101.103926 
L 480.482595 101.033624 
L 483.484989 99.967412 
L 484.685947 99.38696 
L 485.286425 98.910514 
L 487.688341 100.089118 
L 488.28882 99.946514 
L 488.889298 100.074346 
L 491.891693 101.474645 
L 493.09265 100.810704 
L 496.095044 98.418297 
L 497.296002 97.82535 
L 497.896481 97.565193 
L 498.49696 97.568457 
L 499.097438 98.442675 
L 500.298396 100.63593 
L 500.898875 101.341247 
L 502.099833 101.925768 
L 503.30079 102.092335 
L 503.901269 101.993886 
L 505.102227 101.07699 
L 506.903663 99.386135 
L 508.104621 97.986142 
L 508.7051 97.525785 
L 509.305578 97.623358 
L 510.506536 98.272269 
L 511.707494 99.924421 
L 513.50893 101.108637 
L 516.511324 98.749966 
L 517.712282 98.475599 
L 518.91324 98.30071 
L 521.915634 98.467991 
L 524.317549 99.128032 
L 526.719464 99.429584 
L 527.920422 99.085135 
L 529.12138 98.35879 
L 529.721859 97.963211 
L 532.123774 97.738119 
L 532.724253 97.721162 
L 533.92521 97.857689 
L 536.327126 96.807763 
L 538.128562 95.286066 
L 539.32952 94.895076 
L 540.530477 94.923795 
L 542.331914 95.246875 
L 542.932393 95.847272 
L 543.532872 96.279316 
L 544.733829 96.85302 
L 545.334308 96.996482 
L 548.937181 95.167282 
L 550.138139 94.848752 
L 550.738617 94.805087 
L 555.542448 95.746087 
L 557.343885 95.412092 
L 563.348673 93.559499 
L 564.54963 93.344673 
L 565.150109 93.338344 
L 567.552025 93.915008 
L 571.154897 95.640214 
L 572.355855 95.88166 
L 572.956334 95.799638 
L 576.559207 94.269332 
L 577.159686 94.332814 
L 577.760165 94.650782 
L 578.360643 95.145351 
L 579.561601 96.737242 
L 580.16208 97.826674 
L 580.762559 98.535966 
L 583.164474 100.046916 
L 584.365432 99.118595 
L 587.367826 95.899246 
L 589.769741 94.47653 
L 591.571178 94.02996 
L 595.174051 95.488407 
L 596.375008 94.914419 
L 598.176445 93.771621 
L 601.178839 92.730534 
L 601.779318 92.869781 
L 604.181233 94.24682 
L 605.982669 95.687979 
L 607.183627 96.006676 
L 608.985063 96.316434 
L 611.987458 94.511642 
L 615.590331 94.693166 
L 616.791288 94.615075 
L 618.592725 94.379645 
L 619.193204 94.421228 
L 620.99464 97.790211 
L 621.595119 97.720767 
L 624.597513 95.8848 
L 628.200386 95.17583 
L 629.401344 95.584544 
L 633.004216 96.173335 
L 636.006611 95.584677 
L 637.808047 95.222291 
L 639.009005 95.31437 
L 642.011399 95.456183 
L 644.413314 95.130991 
L 647.415708 96.400828 
L 651.61906 97.085089 
L 654.621454 96.941385 
L 655.221933 96.908189 
L 655.822412 97.048278 
L 657.02337 97.599912 
L 659.425285 98.061346 
L 663.028158 97.021407 
L 664.829594 95.979868 
L 667.831988 96.52568 
L 668.432467 96.340167 
L 669.633425 95.665049 
L 670.834382 94.763296 
L 674.437255 93.116203 
L 675.638213 92.805527 
L 678.040128 92.914506 
L 678.040128 92.914506 
" clip-path="url(#p01c92dfb88)" style="fill: none; stroke: #008000; stroke-width: 1.5; stroke-linecap: square"/>
   </g>
   <g id="line2d_15">
    <path d="M 86.630482 87.097065 
L 97.271514 120.220999 
L 97.862682 118.740343 
L 107.912545 80.740861 
L 108.503714 81.819071 
L 118.553577 130.970102 
L 119.144745 136.25794 
L 129.194609 263.645619 
L 129.785777 268.214953 
L 139.83564 245.834099 
L 140.426809 245.818846 
L 151.06784 373.467273 
L 153.432514 348.597514 
L 161.708872 260.302928 
L 162.891209 253.057366 
L 175.305745 184.503253 
L 182.990935 143.393472 
L 183.582103 143.184324 
L 193.631967 179.024455 
L 194.223135 179.68513 
L 204.272998 170.612568 
L 204.864167 171.958194 
L 214.91403 234.612356 
L 215.505198 237.389358 
L 226.14623 180.581737 
L 226.737398 181.145463 
L 236.787261 199.055375 
L 238.560766 207.10193 
L 247.428293 248.547387 
L 248.019461 245.749004 
L 258.069324 147.352625 
L 258.660493 143.228488 
L 268.710356 100.771879 
L 269.301524 99.699933 
L 280.533724 156.752476 
L 290.583588 194.682867 
L 292.948261 177.565029 
L 301.224619 116.856237 
L 301.815788 121.891709 
L 311.865651 249.237638 
L 312.456819 246.9295 
L 322.506682 121.879858 
L 323.097851 118.867709 
L 333.738882 137.529038 
L 344.379914 142.104924 
L 354.429777 144.299525 
L 355.020945 144.586721 
L 357.385619 152.601506 
L 365.661977 180.249443 
L 369.800156 160.82057 
L 376.303009 130.417536 
L 376.894177 130.317973 
L 386.94404 123.578275 
L 387.535209 121.613477 
L 397.585072 97.163549 
L 399.358577 96.326072 
L 408.226103 92.356812 
L 408.817272 92.27582 
L 419.458303 137.180115 
L 421.231809 133.333652 
L 430.099335 113.636803 
L 431.281672 106.184779 
L 440.740366 43.08155 
L 441.331535 42.012727 
L 451.381398 55.434237 
L 453.154903 60.826735 
L 462.02243 88.456642 
L 462.613598 89.302564 
L 472.663461 84.806519 
L 473.25463 85.177251 
L 483.895661 115.800308 
L 494.536693 77.900884 
L 495.127861 77.78685 
L 505.177724 84.526469 
L 505.768893 86.73553 
L 516.409924 136.351297 
L 526.459787 196.72284 
L 527.050956 198.344137 
L 537.691987 146.650438 
L 548.924187 109.459517 
L 558.974051 87.069946 
L 561.929893 98.365243 
L 569.615082 127.471731 
L 570.797419 124.640318 
L 580.256114 103.427062 
L 580.847282 103.708799 
L 590.897145 90.299884 
L 591.488314 90.933732 
L 602.129345 164.296719 
L 612.179208 164.193502 
L 612.770377 163.556266 
L 621.046735 137.760192 
L 623.411408 130.416143 
L 624.593745 127.831588 
L 634.05244 108.897787 
L 636.417114 98.778567 
L 644.693472 63.821545 
L 645.28464 64.241101 
L 655.334503 91.066485 
L 655.925672 91.356576 
L 665.975535 71.231815 
L 666.566703 70.905786 
L 676.616566 95.518979 
L 677.207735 96.652624 
L 677.207735 96.652624 
" clip-path="url(#p01c92dfb88)" style="fill: none; stroke: #ffa500; stroke-width: 1.5; stroke-linecap: square"/>
   </g>
   <g id="line2d_16">
    <path d="M 76.756364 108.241516 
L 77.359294 108.549911 
L 78.565154 108.373435 
L 79.168084 107.527547 
L 79.771015 106.451304 
L 80.373945 106.871172 
L 80.976875 105.828307 
L 82.182735 104.391232 
L 82.785666 104.445423 
L 83.388596 104.223147 
L 84.594456 108.633715 
L 85.197386 109.10542 
L 85.800317 108.34293 
L 86.403247 107.3506 
L 87.006177 106.934426 
L 87.609107 107.484802 
L 88.212037 108.79015 
L 88.814968 108.576185 
L 90.020828 108.809514 
L 90.623758 108.542232 
L 91.226689 108.623154 
L 91.829619 108.885483 
L 92.432549 109.00047 
L 93.035479 108.739377 
L 94.24134 108.999625 
L 94.84427 108.001997 
L 95.4472 107.257514 
L 96.05013 107.159499 
L 96.65306 107.992416 
L 97.255991 108.372726 
L 97.858921 108.541528 
L 98.461851 108.532283 
L 99.064781 109.087669 
L 99.667711 108.15945 
L 100.270642 106.655655 
L 100.873572 106.859321 
L 101.476502 107.656106 
L 102.079432 107.521623 
L 102.682362 107.148519 
L 103.285293 107.113774 
L 103.888223 106.527204 
L 104.491153 106.112854 
L 105.094083 107.069672 
L 106.299944 107.741165 
L 106.902874 108.718142 
L 107.505804 108.576878 
L 108.108734 109.723096 
L 108.711664 108.965203 
L 109.314595 107.518244 
L 109.917525 107.797849 
L 110.520455 108.833358 
L 111.123385 109.251386 
L 112.329246 108.41608 
L 112.932176 108.265869 
L 113.535106 108.69569 
L 114.138036 108.573395 
L 114.740966 109.366513 
L 115.343897 108.944688 
L 115.946827 108.895468 
L 116.549757 109.247075 
L 117.152687 108.001879 
L 117.755617 107.624179 
L 118.961478 108.72409 
L 119.564408 108.215216 
L 120.167338 107.3017 
L 120.770268 106.80815 
L 121.976129 106.333443 
L 122.579059 106.120328 
L 123.181989 106.509802 
L 123.784919 107.705152 
L 124.38785 108.452407 
L 124.99078 108.680815 
L 125.59371 108.760611 
L 126.19664 108.297382 
L 126.79957 107.307545 
L 127.402501 107.983588 
L 128.005431 107.59349 
L 128.608361 107.036795 
L 129.211291 108.574842 
L 129.814221 107.796977 
L 131.020082 104.614575 
L 131.623012 104.154333 
L 132.225942 104.524326 
L 132.828873 105.884483 
L 133.431803 107.909743 
L 134.034733 108.894567 
L 134.637663 108.9948 
L 135.240593 109.394581 
L 135.843524 109.101207 
L 136.446454 108.355359 
L 137.049384 108.287079 
L 137.652314 108.586256 
L 138.255244 108.539043 
L 138.858175 108.199606 
L 139.461105 107.152788 
L 140.666965 107.876142 
L 141.269895 107.200543 
L 141.872826 107.17263 
L 142.475756 108.165235 
L 143.078686 108.544316 
L 144.284546 107.459765 
L 144.887477 107.282501 
L 145.490407 108.603328 
L 146.696267 108.656358 
L 147.299197 107.644362 
L 147.902128 107.969243 
L 148.505058 107.680856 
L 149.107988 107.525127 
L 149.710918 107.237386 
L 150.313848 106.408812 
L 151.519709 107.145241 
L 152.122639 108.017604 
L 152.725569 107.467081 
L 153.93143 104.489141 
L 154.53436 105.695394 
L 155.13729 108.170988 
L 155.74022 108.978016 
L 156.946081 106.412507 
L 157.549011 105.919888 
L 158.151941 105.992229 
L 158.754871 105.527911 
L 159.357801 105.667362 
L 159.960732 106.058178 
L 160.563662 107.102915 
L 161.166592 107.680146 
L 161.769522 107.658033 
L 162.372452 107.953214 
L 162.975383 106.755531 
L 163.578313 104.178094 
L 164.181243 103.783219 
L 164.784173 107.626208 
L 165.387103 107.767626 
L 165.990034 107.7434 
L 167.195894 108.40996 
L 167.798824 108.27217 
L 169.004685 106.235656 
L 169.607615 104.52807 
L 170.210545 104.863077 
L 170.813475 106.646384 
L 171.416405 108.069712 
L 172.019336 108.641344 
L 173.225196 108.600657 
L 173.828126 107.985418 
L 175.033987 109.133621 
L 175.636917 109.044927 
L 176.239847 108.766166 
L 176.842777 109.134123 
L 177.445708 109.200297 
L 178.048638 108.549335 
L 178.651568 108.372936 
L 179.254498 108.022394 
L 180.460359 107.990916 
L 181.063289 107.668753 
L 181.666219 106.835967 
L 182.872079 103.975859 
L 183.47501 105.234695 
L 184.68087 108.742819 
L 185.2838 109.104573 
L 186.489661 106.417937 
L 187.092591 105.63387 
L 188.298451 108.448158 
L 189.504312 106.138221 
L 191.313102 109.123936 
L 191.916032 109.163082 
L 192.518963 109.617868 
L 193.724823 108.039066 
L 194.930683 108.973175 
L 196.739474 105.482795 
L 197.342404 107.246855 
L 197.945334 108.576228 
L 199.151195 106.874753 
L 200.357055 106.071634 
L 200.959985 106.518517 
L 201.562916 108.727556 
L 202.165846 109.167393 
L 202.768776 108.507675 
L 203.371706 107.229288 
L 203.974636 106.71291 
L 204.577567 107.551107 
L 205.180497 108.187108 
L 205.783427 107.9949 
L 206.386357 108.657095 
L 206.989287 108.826183 
L 208.195148 105.160647 
L 208.798078 105.340524 
L 209.401008 106.488006 
L 210.003938 106.973664 
L 210.606869 105.878292 
L 211.209799 108.412946 
L 211.812729 109.119043 
L 213.018589 107.912336 
L 214.22445 107.814783 
L 214.82738 107.531696 
L 215.43031 106.989823 
L 216.033241 107.954975 
L 216.636171 108.018474 
L 217.239101 107.700375 
L 217.842031 107.548324 
L 219.047892 108.679598 
L 219.650822 108.497098 
L 220.253752 107.543631 
L 220.856682 106.348805 
L 221.459612 106.4549 
L 222.062543 107.686942 
L 222.665473 108.275871 
L 223.268403 107.58494 
L 224.474263 107.515056 
L 225.680124 106.226839 
L 226.283054 105.942434 
L 227.488914 103.967406 
L 228.091845 105.387736 
L 228.694775 107.731643 
L 229.297705 108.121097 
L 230.503565 104.461949 
L 231.106496 103.420785 
L 231.709426 103.865025 
L 232.312356 105.897089 
L 232.915286 104.87526 
L 233.518216 105.059273 
L 234.121147 107.113643 
L 234.724077 108.247456 
L 235.929937 106.428071 
L 236.532867 105.502848 
L 237.135798 105.682656 
L 237.738728 107.608806 
L 238.341658 107.424042 
L 238.944588 106.925972 
L 239.547518 106.098715 
L 240.150449 104.786427 
L 240.753379 107.062246 
L 241.356309 107.736932 
L 241.959239 109.162607 
L 242.562169 107.53101 
L 243.1651 105.32398 
L 243.76803 106.759745 
L 244.37096 106.393747 
L 244.97389 106.644874 
L 245.57682 108.914604 
L 246.179751 108.177506 
L 246.782681 106.922607 
L 247.385611 107.097655 
L 247.988541 107.104793 
L 248.591471 108.646307 
L 249.194402 107.938859 
L 251.003192 104.794465 
L 251.606122 104.073302 
L 252.209053 106.383628 
L 252.811983 106.540299 
L 253.414913 106.229375 
L 254.017843 107.199894 
L 254.620774 108.606896 
L 255.223704 108.408835 
L 255.826634 108.017461 
L 256.429564 108.252848 
L 257.635425 107.915007 
L 258.238355 106.569232 
L 258.841285 104.529011 
L 259.444215 105.156734 
L 260.047145 107.287827 
L 260.650076 107.799513 
L 261.855936 105.705171 
L 262.458866 106.0025 
L 263.061796 105.199801 
L 263.664727 104.094799 
L 264.267657 103.530978 
L 265.473517 102.804103 
L 266.076447 104.699002 
L 266.679378 106.057011 
L 267.282308 108.204286 
L 267.885238 107.241781 
L 269.091098 102.497605 
L 269.694029 101.511575 
L 270.296959 104.564036 
L 270.899889 105.409165 
L 272.105749 104.831172 
L 273.31161 104.7922 
L 274.51747 104.162431 
L 275.1204 105.733508 
L 275.723331 106.697846 
L 276.326261 106.048686 
L 276.929191 104.960781 
L 278.135051 104.798286 
L 279.943842 99.503128 
L 280.546772 100.896261 
L 281.149702 101.960532 
L 281.752633 102.404796 
L 282.355563 102.620869 
L 282.958493 102.718227 
L 283.561423 104.692558 
L 284.164353 107.19407 
L 284.767284 108.189039 
L 285.370214 107.874857 
L 286.576074 106.280139 
L 287.179004 105.48117 
L 287.781935 106.209325 
L 288.987795 102.629544 
L 289.590725 103.312153 
L 290.193655 107.141133 
L 290.796586 107.411141 
L 291.399516 107.924623 
L 292.002446 107.705606 
L 293.208306 106.025774 
L 294.414167 106.94645 
L 295.017097 105.958477 
L 295.620027 103.641726 
L 296.222958 102.411317 
L 296.825888 102.714666 
L 297.428818 103.721259 
L 298.634678 104.221891 
L 299.237609 104.178319 
L 300.443469 106.005675 
L 301.046399 104.386457 
L 301.649329 102.342801 
L 302.25226 102.953919 
L 302.85519 104.350816 
L 303.45812 103.638371 
L 304.06105 103.649113 
L 304.66398 105.315851 
L 305.266911 105.682512 
L 305.869841 108.7181 
L 306.472771 107.659874 
L 307.075701 105.942753 
L 307.678631 105.305601 
L 308.281562 105.035603 
L 308.884492 107.163861 
L 309.487422 105.798665 
L 310.693282 102.046947 
L 311.296213 100.952825 
L 311.899143 101.157581 
L 312.502073 100.402029 
L 313.105003 98.755777 
L 313.707933 97.780626 
L 314.913794 105.17278 
L 315.516724 107.239335 
L 316.119654 106.72952 
L 316.722584 106.00408 
L 317.325515 104.859959 
L 317.928445 106.993148 
L 318.531375 107.368079 
L 319.134305 106.972842 
L 319.737235 107.569105 
L 320.340166 107.26197 
L 320.943096 108.222902 
L 321.546026 107.706185 
L 322.148956 107.50826 
L 322.751886 107.742038 
L 323.354817 106.66179 
L 323.957747 103.651644 
L 324.560677 101.386138 
L 325.163607 102.836256 
L 325.766537 101.382587 
L 326.972398 97.1955 
L 328.178258 100.701333 
L 328.781188 105.812166 
L 329.384119 109.128541 
L 329.987049 109.156014 
L 330.589979 108.360586 
L 331.192909 107.296909 
L 333.0017 102.953132 
L 333.60463 105.024919 
L 334.81049 106.800955 
L 335.413421 106.526391 
L 336.016351 105.643176 
L 337.222211 105.981776 
L 337.825142 106.917274 
L 338.428072 106.298015 
L 339.031002 105.03109 
L 339.633932 104.796116 
L 340.236862 104.427852 
L 341.442723 102.141511 
L 342.045653 101.410345 
L 342.648583 104.516506 
L 343.251513 105.148579 
L 343.854444 106.840216 
L 344.457374 105.739542 
L 345.060304 106.088729 
L 346.266164 104.273452 
L 346.869095 105.000914 
L 347.472025 104.525049 
L 348.074955 103.817173 
L 348.677885 105.464597 
L 349.280815 104.380997 
L 349.883746 102.691008 
L 350.486676 102.945274 
L 351.089606 105.847863 
L 351.692536 105.384513 
L 352.295466 102.89969 
L 352.898397 100.937753 
L 353.501327 100.026325 
L 354.707187 101.569582 
L 355.310117 104.171485 
L 355.913048 108.365651 
L 356.515978 108.183856 
L 357.118908 107.493449 
L 358.324768 103.810853 
L 359.530629 105.362235 
L 360.133559 104.130281 
L 360.736489 103.993573 
L 361.339419 104.384302 
L 361.94235 102.846635 
L 362.54528 102.409745 
L 363.75114 107.764955 
L 364.35407 107.959027 
L 364.957001 106.458963 
L 366.162861 101.924773 
L 366.765791 99.719821 
L 367.971652 108.324696 
L 369.177512 104.74742 
L 369.780442 103.680623 
L 370.383372 104.911245 
L 370.986303 107.661388 
L 371.589233 108.805021 
L 372.192163 107.636932 
L 372.795093 107.832309 
L 373.398023 107.752667 
L 374.603884 103.419046 
L 375.206814 103.715959 
L 375.809744 103.177588 
L 376.412674 103.870766 
L 377.015605 103.361819 
L 377.618535 101.828252 
L 378.221465 101.721023 
L 378.824395 104.461888 
L 379.427326 104.062949 
L 380.030256 102.317862 
L 380.633186 99.761181 
L 381.236116 101.120292 
L 381.839046 105.17292 
L 382.441977 106.701866 
L 383.647837 100.096718 
L 384.250767 98.117715 
L 384.853697 98.30312 
L 385.456628 100.156484 
L 386.059558 100.879982 
L 386.662488 102.788672 
L 387.265418 102.206162 
L 387.868348 101.95911 
L 388.471279 102.515257 
L 389.074209 105.176015 
L 389.677139 105.196959 
L 390.280069 104.635254 
L 390.882999 103.356748 
L 392.08886 104.750193 
L 392.69179 103.359681 
L 393.89765 99.685373 
L 394.500581 99.47911 
L 395.103511 98.8963 
L 395.706441 98.081014 
L 396.309371 97.808774 
L 396.912301 100.804488 
L 398.118162 99.436809 
L 399.324022 98.468521 
L 399.926952 101.32784 
L 400.529883 101.947335 
L 401.132813 101.512617 
L 401.735743 99.9785 
L 402.338673 98.786235 
L 402.941603 97.945891 
L 403.544534 97.785141 
L 404.750394 100.266395 
L 405.956254 101.149885 
L 406.559185 102.196246 
L 407.162115 104.038839 
L 408.367975 103.676735 
L 408.970905 104.492153 
L 409.573836 105.722984 
L 410.176766 106.193881 
L 410.779696 105.517646 
L 411.985556 101.6093 
L 412.588487 100.151664 
L 413.191417 100.663284 
L 414.397277 102.35731 
L 415.000207 101.92287 
L 416.206068 101.44899 
L 416.808998 101.931657 
L 417.411928 101.889389 
L 418.014858 101.661372 
L 418.617789 101.030596 
L 419.220719 99.844386 
L 419.823649 100.605675 
L 420.426579 102.159482 
L 421.02951 102.55113 
L 421.63244 100.803832 
L 422.8383 99.328686 
L 423.44123 100.23804 
L 424.044161 104.224436 
L 424.647091 104.20562 
L 425.250021 102.750673 
L 425.852951 101.735017 
L 426.455881 102.62778 
L 427.058812 104.805057 
L 427.661742 103.991357 
L 428.264672 103.744563 
L 428.867602 103.673638 
L 429.470532 102.655711 
L 430.073463 100.79764 
L 430.676393 100.014969 
L 431.279323 97.9029 
L 431.882253 96.82932 
L 432.485183 98.689714 
L 433.691044 103.584173 
L 434.293974 104.689791 
L 434.896904 104.302803 
L 436.102765 100.615382 
L 436.705695 97.573606 
L 437.308625 95.460569 
L 438.514485 93.176458 
L 439.117416 93.936154 
L 439.720346 95.296926 
L 440.323276 95.620791 
L 440.926206 95.084953 
L 441.529136 95.236662 
L 443.337927 103.832047 
L 443.940857 103.130376 
L 444.543787 102.040084 
L 445.146718 102.331735 
L 445.749648 100.809273 
L 446.352578 101.744824 
L 446.955508 102.274832 
L 448.161369 100.050293 
L 448.764299 98.823372 
L 449.367229 98.112762 
L 451.17602 100.733689 
L 451.77895 99.495484 
L 452.38188 98.753205 
L 452.98481 99.628129 
L 453.58774 99.819308 
L 454.190671 98.778945 
L 454.793601 98.196899 
L 455.396531 99.572293 
L 455.999461 101.357937 
L 457.205322 96.103498 
L 457.808252 94.475683 
L 458.411182 95.867022 
L 459.014112 98.365796 
L 459.617042 99.252571 
L 460.219973 98.342156 
L 460.822903 100.212644 
L 461.425833 99.786121 
L 462.028763 98.831349 
L 462.631694 98.434987 
L 463.234624 98.407957 
L 463.837554 98.971513 
L 464.440484 100.180591 
L 465.043414 100.089897 
L 466.852205 101.737786 
L 468.660996 99.938308 
L 469.263926 100.029694 
L 469.866856 100.491008 
L 470.469786 101.38967 
L 471.072716 100.992288 
L 472.881507 98.388675 
L 474.087367 99.378889 
L 474.690298 99.360548 
L 475.896158 98.490748 
L 477.102018 98.905034 
L 477.704949 97.852218 
L 478.307879 96.39702 
L 478.910809 97.678742 
L 479.513739 98.314549 
L 480.116669 99.725947 
L 480.7196 100.824625 
L 481.32253 99.988817 
L 481.92546 100.235062 
L 482.52839 99.377456 
L 483.13132 99.632292 
L 483.734251 100.773262 
L 484.337181 103.62028 
L 484.940111 104.603891 
L 485.543041 103.201474 
L 486.145971 101.504051 
L 486.748902 102.0234 
L 487.351832 103.753407 
L 488.557692 101.387162 
L 489.160622 100.057537 
L 489.763553 102.579009 
L 490.366483 104.023747 
L 490.969413 103.728819 
L 491.572343 103.244378 
L 492.175273 103.286254 
L 492.778204 103.209522 
L 493.381134 101.019055 
L 493.984064 98.186938 
L 494.586994 96.052882 
L 495.189924 95.427589 
L 495.792855 97.109756 
L 496.395785 98.256687 
L 496.998715 98.824229 
L 497.601645 98.462767 
L 498.204575 96.933884 
L 498.807506 95.071549 
L 499.410436 94.113264 
L 500.013366 95.532753 
L 500.616296 98.053391 
L 503.028017 99.225023 
L 503.630947 99.202988 
L 504.233878 100.80698 
L 504.836808 101.031173 
L 506.042668 95.13459 
L 506.645598 93.082955 
L 507.248529 94.301262 
L 507.851459 95.799153 
L 508.454389 96.138133 
L 509.057319 96.111216 
L 510.26318 97.487351 
L 510.86611 98.500185 
L 511.46904 98.788182 
L 512.07197 98.87902 
L 512.6749 98.781208 
L 513.277831 97.505824 
L 514.483691 93.223624 
L 515.086621 91.579865 
L 515.689551 91.205766 
L 516.292482 93.428943 
L 517.498342 95.88705 
L 518.101272 96.351667 
L 519.307133 98.056754 
L 519.910063 100.078481 
L 520.512993 100.651868 
L 521.115923 99.882014 
L 522.321784 95.684697 
L 523.527644 93.440044 
L 524.130574 93.591561 
L 525.336435 97.49514 
L 525.939365 100.462711 
L 526.542295 100.664031 
L 527.145225 100.005594 
L 527.748155 98.786518 
L 528.351086 101.775528 
L 528.954016 101.784384 
L 529.556946 101.241337 
L 530.159876 99.834855 
L 531.365737 97.893985 
L 531.968667 96.994056 
L 532.571597 96.685579 
L 533.174527 98.264853 
L 533.777457 99.166269 
L 534.380388 99.697253 
L 534.983318 99.620803 
L 535.586248 99.709246 
L 536.189178 99.042208 
L 536.792108 96.663134 
L 537.395039 95.190956 
L 537.997969 94.690025 
L 538.600899 96.321134 
L 539.203829 97.280107 
L 539.806759 97.412275 
L 541.01262 92.5446 
L 541.61555 91.483601 
L 542.21848 92.324947 
L 542.821411 94.023412 
L 544.027271 98.236311 
L 545.233131 100.280743 
L 545.836062 100.729208 
L 546.438992 100.258298 
L 547.041922 99.61332 
L 548.247782 98.877977 
L 548.850713 97.950975 
L 549.453643 96.616653 
L 550.056573 96.539176 
L 551.262433 97.587123 
L 551.865364 97.591726 
L 552.468294 98.541302 
L 553.071224 99.861862 
L 553.674154 99.31035 
L 554.277084 97.92721 
L 554.880015 97.773504 
L 555.482945 98.321098 
L 556.085875 98.592641 
L 556.688805 97.723202 
L 557.291735 96.643401 
L 557.894666 94.568363 
L 559.100526 89.546401 
L 559.703456 88.297489 
L 560.306386 88.995457 
L 560.909317 93.849246 
L 561.512247 96.692356 
L 562.115177 98.090475 
L 562.718107 98.343141 
L 564.526898 90.199257 
L 565.129828 90.35956 
L 565.732758 92.450917 
L 566.335688 95.509582 
L 566.938619 96.983823 
L 567.541549 96.212207 
L 568.747409 92.837523 
L 569.350339 93.00535 
L 569.95327 93.311648 
L 570.5562 93.962553 
L 571.15913 94.334357 
L 571.76206 94.532603 
L 572.36499 94.049034 
L 572.967921 94.884921 
L 573.570851 96.217165 
L 574.173781 96.509475 
L 574.776711 96.358014 
L 576.585502 94.926242 
L 577.791362 95.27334 
L 578.997223 96.725376 
L 579.600153 97.104796 
L 580.203083 97.32949 
L 580.806013 96.868546 
L 581.408943 97.104487 
L 582.011874 97.690528 
L 583.217734 100.992934 
L 583.820664 101.158596 
L 585.026525 99.563884 
L 586.835315 95.087259 
L 587.438246 94.418003 
L 588.644106 94.006965 
L 589.849966 94.627311 
L 590.452897 94.75566 
L 591.055827 96.695192 
L 591.658757 97.959179 
L 592.261687 97.961675 
L 592.864617 97.655582 
L 593.467548 96.455356 
L 594.070478 96.081595 
L 594.673408 96.812471 
L 595.276338 98.182245 
L 595.879268 100.055143 
L 596.482199 98.878244 
L 597.688059 93.391596 
L 598.893919 90.180803 
L 599.49685 89.083748 
L 600.09978 88.857646 
L 601.30564 94.661699 
L 601.90857 96.234035 
L 603.114431 97.838022 
L 604.320291 98.900926 
L 604.923221 98.227426 
L 606.129082 97.342466 
L 606.732012 96.045965 
L 607.937872 94.788206 
L 608.540803 94.272924 
L 610.952523 95.874148 
L 611.555454 96.423317 
L 612.158384 96.644861 
L 612.761314 96.421906 
L 613.364244 95.696666 
L 613.967174 94.188912 
L 614.570105 93.172337 
L 615.173035 92.415537 
L 616.378895 92.177421 
L 617.584756 97.427988 
L 618.790616 98.763029 
L 620.599407 95.788452 
L 621.805267 93.697284 
L 623.011127 93.26144 
L 623.614058 93.86093 
L 624.216988 93.923916 
L 624.819918 93.712266 
L 626.025779 93.782833 
L 626.628709 94.029319 
L 627.231639 95.241719 
L 627.834569 96.040349 
L 630.24629 92.59872 
L 632.658011 92.063233 
L 634.466801 89.476796 
L 635.069732 89.600981 
L 636.878522 92.206827 
L 637.481452 92.66147 
L 639.290243 92.32225 
L 639.893173 92.460941 
L 641.099034 93.861811 
L 641.701964 93.010283 
L 644.113685 84.834119 
L 644.716615 83.144077 
L 645.319545 81.791523 
L 645.922475 81.334726 
L 646.525405 81.557756 
L 647.128336 83.130248 
L 648.937126 91.089659 
L 649.540056 93.47983 
L 650.142987 95.110446 
L 651.348847 97.114546 
L 651.951777 95.896293 
L 653.760568 89.602772 
L 654.363498 89.23513 
L 655.569358 95.469783 
L 656.172289 96.641962 
L 656.775219 96.463441 
L 657.378149 95.397738 
L 658.584009 91.521092 
L 659.18694 89.93974 
L 659.78987 88.72873 
L 660.3928 88.564273 
L 660.99573 89.538061 
L 662.201591 90.79015 
L 663.407451 91.17087 
L 664.010381 92.225019 
L 664.613311 92.942638 
L 665.216242 95.386343 
L 665.819172 96.937865 
L 666.422102 97.374894 
L 667.025032 97.066677 
L 667.627963 95.709515 
L 670.039683 86.215539 
L 670.642614 85.535009 
L 671.245544 85.902392 
L 673.054334 89.797508 
L 673.657265 90.700102 
L 674.260195 89.999739 
L 674.863125 89.591997 
L 675.466055 90.220547 
L 677.274846 92.87237 
L 677.877776 92.972972 
L 679.083636 94.241512 
L 679.083636 94.241512 
" clip-path="url(#p01c92dfb88)" style="fill: none; stroke: #800080; stroke-width: 1.5; stroke-linecap: square"/>
   </g>
   <g id="line2d_17">
    <path d="M 88.228919 107.641516 
L 151.482962 107.554925 
L 162.508896 106.9083 
L 175.85608 104.233917 
L 187.462326 101.123509 
L 199.648885 99.530239 
L 212.996068 100.184306 
L 227.503876 100.084333 
L 239.690435 99.845342 
L 250.136057 99.934058 
L 261.161991 100.495442 
L 273.928862 99.333736 
L 286.115421 96.552574 
L 297.721667 92.091844 
L 298.882292 92.162375 
L 310.488538 93.391876 
L 323.835721 92.550427 
L 334.861655 91.036671 
L 340.084466 88.75029 
L 347.048214 85.682793 
L 348.789151 85.394547 
L 359.815085 83.928085 
L 376.06383 84.714251 
L 409.141632 85.509139 
L 421.328191 79.833927 
L 433.51475 76.815773 
L 435.835999 76.910952 
L 446.281621 77.407857 
L 458.46818 75.13645 
L 471.815363 77.441365 
L 482.841297 80.16856 
L 485.162546 79.373297 
L 495.027856 75.848928 
L 496.18848 75.918155 
L 508.375039 77.51666 
L 519.981286 78.134981 
L 532.167844 76.461172 
L 539.131592 78.750519 
L 545.515028 80.756148 
L 557.121274 83.251279 
L 570.468457 83.879217 
L 582.655016 83.638318 
L 595.421887 84.250796 
L 607.028134 84.326482 
L 619.214692 85.230598 
L 632.561876 84.598289 
L 647.649996 84.703572 
L 657.515305 84.873861 
L 667.960927 84.591959 
L 667.960927 84.591959 
" clip-path="url(#p01c92dfb88)" style="fill: none; stroke: #a52a2a; stroke-width: 1.5; stroke-linecap: square"/>
   </g>
   <g id="line2d_18">
    <path d="M 78.825284 107.869237 
L 89.022544 107.713629 
L 94.421093 107.368893 
L 97.420287 107.647132 
L 98.619965 107.716623 
L 100.419481 107.515918 
L 102.218998 107.29314 
L 104.018514 107.25846 
L 105.218192 107.29167 
L 107.017708 107.120017 
L 109.417063 106.73148 
L 110.016902 106.681332 
L 111.816419 107.188309 
L 112.416257 107.326753 
L 119.014484 106.30015 
L 119.614323 106.301607 
L 121.41384 107.145103 
L 123.213356 107.180522 
L 125.612711 107.026345 
L 128.012067 106.753354 
L 135.210132 107.285278 
L 136.40981 107.056232 
L 138.209326 106.672681 
L 140.008843 106.574853 
L 141.20852 106.937937 
L 142.408198 107.340816 
L 144.207714 107.445707 
L 146.60707 107.375556 
L 148.406586 107.233466 
L 150.206102 107.090111 
L 151.40578 106.702312 
L 153.805135 106.409833 
L 156.804329 106.262378 
L 159.203685 107.086742 
L 159.803523 107.30833 
L 161.003201 107.12963 
L 163.402556 106.642698 
L 164.602234 106.725759 
L 165.801912 106.83539 
L 167.601428 106.586659 
L 169.400944 106.107788 
L 170.000783 106.145426 
L 171.8003 106.657119 
L 172.999977 106.885191 
L 174.199655 107.209093 
L 180.797882 106.548479 
L 182.597398 106.777584 
L 184.396915 106.510741 
L 184.996754 106.391314 
L 186.196431 106.419173 
L 188.595786 107.023933 
L 189.795464 107.283782 
L 192.194819 107.150323 
L 196.99353 106.77378 
L 198.793046 106.857643 
L 200.592563 106.698262 
L 203.591757 105.850505 
L 204.191595 105.822683 
L 204.791434 105.9714 
L 205.991112 106.608628 
L 207.790628 106.900165 
L 210.189984 106.433372 
L 211.389661 106.416123 
L 214.388855 106.899206 
L 215.588533 107.147166 
L 216.78821 107.212225 
L 220.387243 106.954668 
L 221.586921 106.713949 
L 223.386437 106.019672 
L 225.185954 105.719822 
L 229.384825 106.420428 
L 233.583697 106.101764 
L 237.782569 106.920777 
L 238.382408 106.991282 
L 241.381602 106.791988 
L 245.580473 106.826187 
L 247.37999 106.164953 
L 249.179506 105.741381 
L 251.578861 106.317524 
L 252.778539 106.256017 
L 253.978217 106.153925 
L 255.777733 106.148728 
L 258.177088 106.317409 
L 259.376766 106.283107 
L 264.775315 106.645348 
L 268.374348 105.890661 
L 270.173865 105.907299 
L 273.772897 106.711095 
L 276.772092 106.783796 
L 279.771286 106.667475 
L 283.970157 106.906624 
L 285.169835 106.829512 
L 286.369512 106.633841 
L 287.56919 106.583914 
L 288.768868 106.446 
L 289.968545 106.201941 
L 295.367095 106.542519 
L 297.166611 107.170558 
L 300.165805 107.260175 
L 301.965322 107.12387 
L 304.364677 106.813933 
L 313.962098 106.368344 
L 315.161775 106.380269 
L 318.160969 105.897949 
L 321.760002 106.194551 
L 325.359035 106.777534 
L 327.75839 106.552766 
L 330.157746 106.197535 
L 331.957262 106.736925 
L 333.15694 107.079502 
L 334.356617 107.237309 
L 334.956456 107.226675 
L 336.755973 106.736742 
L 338.555489 106.205998 
L 339.755167 106.208664 
L 342.754361 106.292088 
L 343.954038 106.218898 
L 345.753555 106.527093 
L 346.953232 107.015549 
L 348.15291 107.045986 
L 350.552265 106.465482 
L 352.95162 106.166882 
L 356.550653 105.959869 
L 359.549847 106.333066 
L 361.349364 106.592265 
L 363.748719 106.879345 
L 364.948397 106.8602 
L 367.947591 106.425249 
L 370.346946 106.015024 
L 371.546624 106.0308 
L 375.745495 106.795903 
L 379.944367 106.839768 
L 384.143239 106.482652 
L 385.942755 106.543334 
L 387.142433 106.520079 
L 388.34211 106.632124 
L 391.341304 106.611219 
L 395.540176 106.905348 
L 397.339692 106.841174 
L 400.938725 106.729385 
L 402.738242 106.625976 
L 405.737436 106.574837 
L 408.136791 106.466442 
L 409.336469 106.139187 
L 411.735824 106.13239 
L 413.53534 106.616301 
L 414.135179 106.707011 
L 415.934696 106.672764 
L 417.134373 106.72818 
L 418.334051 106.494022 
L 420.133567 106.084098 
L 421.933084 106.212154 
L 424.332439 105.780535 
L 426.731794 106.876632 
L 428.531311 106.730913 
L 429.730988 106.61845 
L 431.530505 106.623803 
L 433.92986 107.356035 
L 436.929054 107.247937 
L 441.127926 106.611096 
L 447.126314 106.751081 
L 450.125508 107.047161 
L 450.725347 107.005352 
L 453.124702 106.321762 
L 456.723735 104.838869 
L 457.923412 105.647875 
L 459.722929 106.879516 
L 460.322768 107.046221 
L 465.121478 106.608523 
L 467.520833 106.36918 
L 468.720511 106.435395 
L 471.119866 106.879453 
L 471.719705 106.845627 
L 472.919383 106.544425 
L 475.318738 106.149226 
L 477.718093 106.193318 
L 480.717287 106.023587 
L 483.716481 106.41436 
L 485.515998 106.606341 
L 487.915353 106.678531 
L 490.314708 106.98606 
L 492.714063 106.801144 
L 496.912935 106.324057 
L 501.711645 106.970104 
L 505.310678 107.110456 
L 506.510356 106.886998 
L 508.909711 106.274233 
L 515.507938 106.804584 
L 516.707616 106.804269 
L 519.106971 106.767867 
L 521.506326 106.72779 
L 524.50552 107.040543 
L 528.104553 106.902726 
L 530.503908 107.138839 
L 532.903264 106.830482 
L 534.70278 106.30491 
L 536.502296 106.397383 
L 537.701974 106.784023 
L 538.901652 106.916263 
L 540.101329 106.868827 
L 543.700362 106.587599 
L 544.90004 106.646467 
L 550.298589 106.114013 
L 553.897622 106.345382 
L 555.0973 106.53898 
L 556.896816 106.992436 
L 557.496655 106.987073 
L 559.296171 106.49375 
L 561.695527 105.486763 
L 562.295365 105.410962 
L 567.094076 106.156377 
L 570.09327 106.676561 
L 572.492625 106.389477 
L 573.092464 106.446265 
L 574.89198 106.894534 
L 576.091658 106.855761 
L 577.291336 106.709468 
L 586.288918 106.333346 
L 588.088434 106.086585 
L 589.887951 106.102228 
L 591.687467 106.64491 
L 594.086822 106.762833 
L 595.886339 106.789132 
L 596.486178 106.747181 
L 598.885533 107.025619 
L 603.684243 105.6506 
L 606.083598 105.087812 
L 609.082793 105.26766 
L 612.081987 106.438488 
L 613.281664 106.646598 
L 614.481342 106.918496 
L 616.280858 106.980536 
L 618.680214 106.73503 
L 622.879085 105.911737 
L 624.678602 106.191644 
L 625.878279 106.129166 
L 627.077957 105.872839 
L 628.277634 105.569388 
L 631.876667 106.15791 
L 633.676184 106.09992 
L 635.4757 106.110919 
L 640.274411 106.825672 
L 643.873444 106.663676 
L 645.073121 106.455043 
L 646.872638 106.151143 
L 649.871832 105.925486 
L 652.871026 106.296662 
L 660.66893 106.517013 
L 662.468447 106.995698 
L 666.06748 106.955345 
L 668.466835 107.027096 
L 670.266351 106.834851 
L 672.065868 106.556837 
L 674.465223 106.73738 
L 676.864578 106.865697 
L 678.064256 106.786716 
L 678.064256 106.786716 
" clip-path="url(#p01c92dfb88)" style="fill: none; stroke: #ff00ff; stroke-width: 1.5; stroke-linecap: square"/>
   </g>
   <g id="line2d_19">
    <path d="M 80.713249 106.705071 
L 83.696654 106.643411 
L 89.663464 106.813856 
L 92.646869 107.072063 
L 97.420317 107.081066 
L 102.790446 107.322142 
L 106.370532 107.48449 
L 108.757256 107.383928 
L 115.320747 107.164617 
L 117.707471 107.062405 
L 125.464324 107.453096 
L 126.657686 107.510056 
L 129.04441 107.776591 
L 130.237772 107.786156 
L 132.027815 107.547861 
L 133.817858 107.306216 
L 136.801263 107.275602 
L 139.784668 107.615235 
L 146.348159 108.042849 
L 155.298375 107.96652 
L 160.071823 107.467917 
L 161.861866 107.542384 
L 165.441952 107.720413 
L 168.425357 107.87263 
L 170.812081 107.93637 
L 173.198805 107.807451 
L 174.988848 107.727107 
L 180.955658 107.991204 
L 185.729106 107.734212 
L 191.099235 108.042849 
L 195.872683 107.953984 
L 200.646131 107.535774 
L 203.032855 107.686379 
L 205.419579 107.942244 
L 207.806303 108.042849 
L 217.353199 107.955834 
L 222.126647 107.761005 
L 225.110052 107.866685 
L 226.900095 107.791104 
L 229.8835 107.430019 
L 233.463586 107.379186 
L 238.237034 107.397084 
L 239.430396 107.531629 
L 240.623758 107.735747 
L 242.413801 107.640396 
L 244.203844 107.365777 
L 247.78393 106.485206 
L 249.573973 106.735468 
L 252.557378 107.37396 
L 265.087679 107.856115 
L 267.474403 107.625018 
L 270.457808 107.379199 
L 281.198066 108.042849 
L 290.744962 107.954288 
L 293.131686 107.566345 
L 295.51841 107.177342 
L 296.711772 107.202154 
L 300.888539 107.990781 
L 303.275263 107.886201 
L 312.225478 107.246442 
L 317.595607 106.889202 
L 320.579012 107.361863 
L 321.772374 107.583564 
L 325.35246 107.749305 
L 327.142503 107.769442 
L 331.31927 108.008526 
L 337.28608 107.519496 
L 342.656209 106.700316 
L 346.236295 106.929956 
L 348.623019 107.269446 
L 352.799786 107.91997 
L 355.783191 107.841097 
L 365.926768 107.37396 
L 368.910173 107.320818 
L 374.280302 106.650387 
L 375.473664 106.530102 
L 377.263707 106.903062 
L 380.247112 107.515867 
L 380.843793 107.593208 
L 384.423879 107.402543 
L 386.810603 107.45651 
L 388.600646 107.308862 
L 393.374094 106.839839 
L 398.147542 107.032287 
L 404.114352 107.722951 
L 406.501076 107.613813 
L 408.8878 107.362694 
L 410.081162 107.183926 
L 419.031377 107.078157 
L 420.224739 107.15696 
L 423.208144 107.498399 
L 425.594868 107.534395 
L 429.174954 107.435236 
L 433.351721 107.822625 
L 435.141764 107.85954 
L 442.301936 107.416965 
L 444.68866 107.208872 
L 447.075384 107.30281 
L 450.65547 107.05277 
L 452.445513 106.806283 
L 453.638875 106.830469 
L 457.815642 107.206926 
L 461.992409 107.252687 
L 463.782452 107.488819 
L 466.169176 107.92349 
L 469.152581 107.85178 
L 481.086201 107.24699 
L 482.876244 107.293024 
L 486.45633 107.585787 
L 488.843054 107.184855 
L 493.616502 105.973298 
L 495.406545 105.452013 
L 496.003226 105.489047 
L 498.38995 106.554142 
L 500.179993 107.269801 
L 500.776674 107.401351 
L 502.566717 107.261994 
L 507.936846 107.518031 
L 513.903656 107.123562 
L 516.887061 107.183661 
L 519.870466 107.126954 
L 522.853871 106.979136 
L 524.643914 107.169317 
L 527.627319 107.017567 
L 531.207405 106.708484 
L 532.400767 106.581017 
L 536.577534 106.255811 
L 541.350982 105.76717 
L 542.544344 105.905117 
L 547.914473 106.694106 
L 557.461369 107.635742 
L 565.218223 106.380057 
L 568.798309 106.725226 
L 572.975076 107.064383 
L 584.908696 106.555381 
L 586.102058 106.40794 
L 590.875506 106.486038 
L 594.455592 107.021659 
L 596.245635 107.098833 
L 601.019083 106.45768 
L 606.389212 105.727605 
L 607.582574 105.906113 
L 614.146065 107.219435 
L 615.339427 107.30449 
L 620.112875 106.908635 
L 624.289642 106.528102 
L 630.853133 106.317718 
L 633.239857 106.394523 
L 636.223262 106.506713 
L 638.013305 106.610668 
L 643.980115 107.102837 
L 646.366839 107.125186 
L 649.946925 106.645705 
L 653.527011 106.163614 
L 657.703778 105.307423 
L 663.073907 104.726307 
L 666.057312 105.712293 
L 670.83076 107.239078 
L 676.79757 107.37396 
L 676.79757 107.37396 
" clip-path="url(#p01c92dfb88)" style="fill: none; stroke: #00ffff; stroke-width: 1.5; stroke-linecap: square"/>
   </g>
   <g id="patch_3">
    <path d="M 46.64 390.04 
L 46.64 25.44 
" style="fill: none; stroke: #000000; stroke-width: 0.8; stroke-linejoin: miter; stroke-linecap: square"/>
   </g>
   <g id="patch_4">
    <path d="M 709.2 390.04 
L 709.2 25.44 
" style="fill: none; stroke: #000000; stroke-width: 0.8; stroke-linejoin: miter; stroke-linecap: square"/>
   </g>
   <g id="patch_5">
    <path d="M 46.64 390.04 
L 709.2 390.04 
" style="fill: none; stroke: #000000; stroke-width: 0.8; stroke-linejoin: miter; stroke-linecap: square"/>
   </g>
   <g id="patch_6">
    <path d="M 46.64 25.44 
L 709.2 25.44 
" style="fill: none; stroke: #000000; stroke-width: 0.8; stroke-linejoin: miter; stroke-linecap: square"/>
   </g>
   <g id="text_14">
    <!-- charts/episodic_return for dueling_dqn_atari (per game) -->
    <g transform="translate(210.03625 19.44) scale(0.12 -0.12)">
     <defs>
      <path id="DejaVuSans-2f" d="M 1625 4666 
L 2156 4666 
L 531 -594 
L 0 -594 
L 1625 4666 
z
" transform="scale(0.015625)"/>
      <path id="DejaVuSans-5f" d="M 3263 -1063 
L 3263 -1509 
L -63 -1509 
L -63 -1063 
L 3263 -1063 
z
" transform="scale(0.015625)"/>
      <path id="DejaVuSans-66" d="M 2375 4863 
L 2375 4384 
L 1825 4384 
Q 1516 4384 1395 4259 
Q 1275 4134 1275 3809 
L 1275 3500 
L 2222 3500 
L 2222 3053 
L 1275 3053 
L 1275 0 
L 697 0 
L 697 3053 
L 147 3053 
L 147 3500 
L 697 3500 
L 697 3744 
Q 697 4328 969 4595 
Q 1241 4863 1831 4863 
L 2375 4863 
z
" transform="scale(0.015625)"/>
      <path id="DejaVuSans-67" d="M 2906 1791 
Q 2906 2416 2648 2759 
Q 2391 3103 1925 3103 
Q 1463 3103 1205 2759 
Q 947 2416 947 1791 
Q 947 1169 1205 825 
Q 1463 481 1925 481 
Q 2391 481 2648 825 
Q 2906 1169 2906 1791 
z
M 3481 434 
Q 3481 -459 3084 -895 
Q 2688 -1331 1869 -1331 
Q 1566 -1331 1297 -1286 
Q 1028 -1241 775 -1147 
L 775 -588 
Q 1028 -725 1275 -790 
Q 1522 -856 1778 -856 
Q 2344 -856 2625 -561 
Q 2906 -266 2906 331 
L 2906 616 
Q 2728 306 2450 153 
Q 2172 0 1784 0 
Q 1141 0 747 490 
Q 353 981 353 1791 
Q 353 2603 747 3093 
Q 1141 3584 1784 3584 
Q 2172 3584 2450 3431 
Q 2728 3278 2906 2969 
L 2906 3500 
L 3481 3500 
L 3481 434 
z
" transform="scale(0.015625)"/>
      <path id="DejaVuSans-71" d="M 947 1747 
Q 947 1113 1208 752 
Q 1469 391 1925 391 
Q 2381 391 2643 752 
Q 2906 1113 2906 1747 
Q 2906 2381 2643 2742 
Q 2381 3103 1925 3103 
Q 1469 3103 1208 2742 
Q 947 2381 947 1747 
z
M 2906 525 
Q 2725 213 2448 61 
Q 2172 -91 1784 -91 
Q 1150 -91 751 415 
Q 353 922 353 1747 
Q 353 2572 751 3078 
Q 1150 3584 1784 3584 
Q 2172 3584 2448 3432 
Q 2725 3281 2906 2969 
L 2906 3500 
L 3481 3500 
L 3481 -1331 
L 2906 -1331 
L 2906 525 
z
" transform="scale(0.015625)"/>
     </defs>
     <use xlink:href="#DejaVuSans-63"/>
     <use xlink:href="#DejaVuSans-68" transform="translate(54.980469 0)"/>
     <use xlink:href="#DejaVuSans-61" transform="translate(118.359375 0)"/>
     <use xlink:href="#DejaVuSans-72" transform="translate(179.638672 0)"/>
     <use xlink:href="#DejaVuSans-74" transform="translate(220.751953 0)"/>
     <use xlink:href="#DejaVuSans-73" transform="translate(259.960938 0)"/>
     <use xlink:href="#DejaVuSans-2f" transform="translate(312.060547 0)"/>
     <use xlink:href="#DejaVuSans-65" transform="translate(345.751953 0)"/>
     <use xlink:href="#DejaVuSans-70" transform="translate(407.275391 0)"/>
     <use xlink:href="#DejaVuSans-69" transform="translate(470.751953 0)"/>
     <use xlink:href="#DejaVuSans-73" transform="translate(498.535156 0)"/>
     <use xlink:href="#DejaVuSans-6f" transform="translate(550.634766 0)"/>
     <use xlink:href="#DejaVuSans-64" transform="translate(611.816406 0)"/>
     <use xlink:href="#DejaVuSans-69" transform="translate(675.292969 0)"/>
     <use xlink:href="#DejaVuSans-63" transform="translate(703.076172 0)"/>
     <use xlink:href="#DejaVuSans-5f" transform="translate(758.056641 0)"/>
     <use xlink:href="#DejaVuSans-72" transform="translate(808.056641 0)"/>
     <use xlink:href="#DejaVuSans-65" transform="translate(846.919922 0)"/>
     <use xlink:href="#DejaVuSans-74" transform="translate(908.443359 0)"/>
     <use xlink:href="#DejaVuSans-75" transform="translate(947.652344 0)"/>
     <use xlink:href="#DejaVuSans-72" transform="translate(1011.03125 0)"/>
     <use xlink:href="#DejaVuSans-6e" transform="translate(1050.394531 0)"/>
     <use xlink:href="#DejaVuSans-20" transform="translate(1113.773438 0)"/>
     <use xlink:href="#DejaVuSans-66" transform="translate(1145.560547 0)"/>
     <use xlink:href="#DejaVuSans-6f" transform="translate(1180.765625 0)"/>
     <use xlink:href="#DejaVuSans-72" transform="translate(1241.947266 0)"/>
     <use xlink:href="#DejaVuSans-20" transform="translate(1283.060547 0)"/>
     <use xlink:href="#DejaVuSans-64" transform="translate(1314.847656 0)"/>
     <use xlink:href="#DejaVuSans-75" transform="translate(1378.324219 0)"/>
     <use xlink:href="#DejaVuSans-65" transform="translate(1441.703125 0)"/>
     <use xlink:href="#DejaVuSans-6c" transform="translate(1503.226562 0)"/>
     <use xlink:href="#DejaVuSans-69" transform="translate(1531.009766 0)"/>
     <use xlink:href="#DejaVuSans-6e" transform="translate(1558.792969 0)"/>
     <use xlink:href="#DejaVuSans-67" transform="translate(1622.171875 0)"/>
     <use xlink:href="#DejaVuSans-5f" transform="translate(1685.648438 0)"/>
     <use xlink:href="#DejaVuSans-64" transform="translate(1735.648438 0)"/>
     <use xlink:href="#DejaVuSans-71" transform="translate(1799.125 0)"/>
     <use xlink:href="#DejaVuSans-6e" transform="translate(1862.601562 0)"/>
     <use xlink:href="#DejaVuSans-5f" transform="translate(1925.980469 0)"/>
     <use xlink:href="#DejaVuSans-61" transform="translate(1975.980469 0)"/>
     <use xlink:href="#DejaVuSans-74" transform="translate(2037.259766 0)"/>
     <use xlink:href="#DejaVuSans-61" transform="translate(2076.46875 0)"/>
     <use xlink:href="#DejaVuSans-72" transform="translate(2137.748047 0)"/>
     <use xlink:href="#DejaVuSans-69" transform="translate(2178.861328 0)"/>
     <use xlink:href="#DejaVuSans-20" transform="translate(2206.644531 0)"/>
     <use xlink:href="#DejaVuSans-28" transform="translate(2238.431641 0)"/>
     <use xlink:href="#DejaVuSans-70" transform="translate(2277.445312 0)"/>
     <use xlink:href="#DejaVuSans-65" transform="translate(2340.921875 0)"/>
     <use xlink:href="#DejaVuSans-72" transform="translate(2402.445312 0)"/>
     <use xlink:href="#DejaVuSans-20" transform="translate(2443.558594 0)"/>
     <use xlink:href="#DejaVuSans-67" transform="translate(2475.345703 0)"/>
     <use xlink:href="#DejaVuSans-61" transform="translate(2538.822266 0)"/>
     <use xlink:href="#DejaVuSans-6d" transform="translate(2600.101562 0)"/>
     <use xlink:href="#DejaVuSans-65" transform="translate(2697.513672 0)"/>
     <use xlink:href="#DejaVuSans-29" transform="translate(2759.037109 0)"/>
    </g>
   </g>
   <g id="legend_1">
    <g id="patch_7">
     <path d="M 616.95 385.04 
L 702.2 385.04 
Q 704.2 385.04 704.2 383.04 
L 704.2 251.936875 
Q 704.2 249.936875 702.2 249.936875 
L 616.95 249.936875 
Q 614.95 249.936875 614.95 251.936875 
L 614.95 383.04 
Q 614.95 385.04 616.95 385.04 
z
" style="fill: #ffffff; opacity: 0.8; stroke: #cccccc; stroke-linejoin: miter"/>
    </g>
    <g id="text_15">
     <!-- Game -->
     <g transform="translate(644.689844 261.535313) scale(0.1 -0.1)">
      <defs>
       <path id="DejaVuSans-47" d="M 3809 666 
L 3809 1919 
L 2778 1919 
L 2778 2438 
L 4434 2438 
L 4434 434 
Q 4069 175 3628 42 
Q 3188 -91 2688 -91 
Q 1594 -91 976 548 
Q 359 1188 359 2328 
Q 359 3472 976 4111 
Q 1594 4750 2688 4750 
Q 3144 4750 3555 4637 
Q 3966 4525 4313 4306 
L 4313 3634 
Q 3963 3931 3569 4081 
Q 3175 4231 2741 4231 
Q 1884 4231 1454 3753 
Q 1025 3275 1025 2328 
Q 1025 1384 1454 906 
Q 1884 428 2741 428 
Q 3075 428 3337 486 
Q 3600 544 3809 666 
z
" transform="scale(0.015625)"/>
      </defs>
      <use xlink:href="#DejaVuSans-47"/>
      <use xlink:href="#DejaVuSans-61" transform="translate(77.490234 0)"/>
      <use xlink:href="#DejaVuSans-6d" transform="translate(138.769531 0)"/>
      <use xlink:href="#DejaVuSans-65" transform="translate(236.181641 0)"/>
     </g>
    </g>
    <g id="line2d_20">
     <path d="M 618.95 272.713437 
L 628.95 272.713437 
L 638.95 272.713437 
" style="fill: none; stroke: #ff0000; stroke-width: 1.5; stroke-linecap: square"/>
    </g>
    <g id="text_16">
     <!-- Alien -->
     <g transform="translate(646.95 276.213437) scale(0.1 -0.1)">
      <defs>
       <path id="DejaVuSans-41" d="M 2188 4044 
L 1331 1722 
L 3047 1722 
L 2188 4044 
z
M 1831 4666 
L 2547 4666 
L 4325 0 
L 3669 0 
L 3244 1197 
L 1141 1197 
L 716 0 
L 50 0 
L 1831 4666 
z
" transform="scale(0.015625)"/>
      </defs>
      <use xlink:href="#DejaVuSans-41"/>
      <use xlink:href="#DejaVuSans-6c" transform="translate(68.408203 0)"/>
      <use xlink:href="#DejaVuSans-69" transform="translate(96.191406 0)"/>
      <use xlink:href="#DejaVuSans-65" transform="translate(123.974609 0)"/>
      <use xlink:href="#DejaVuSans-6e" transform="translate(185.498047 0)"/>
     </g>
    </g>
    <g id="line2d_21">
     <path d="M 618.95 287.391563 
L 628.95 287.391563 
L 638.95 287.391563 
" style="fill: none; stroke: #0000ff; stroke-width: 1.5; stroke-linecap: square"/>
    </g>
    <g id="text_17">
     <!-- Amidar -->
     <g transform="translate(646.95 290.891563) scale(0.1 -0.1)">
      <use xlink:href="#DejaVuSans-41"/>
      <use xlink:href="#DejaVuSans-6d" transform="translate(68.408203 0)"/>
      <use xlink:href="#DejaVuSans-69" transform="translate(165.820312 0)"/>
      <use xlink:href="#DejaVuSans-64" transform="translate(193.603516 0)"/>
      <use xlink:href="#DejaVuSans-61" transform="translate(257.080078 0)"/>
      <use xlink:href="#DejaVuSans-72" transform="translate(318.359375 0)"/>
     </g>
    </g>
    <g id="line2d_22">
     <path d="M 618.95 302.069687 
L 628.95 302.069687 
L 638.95 302.069687 
" style="fill: none; stroke: #008000; stroke-width: 1.5; stroke-linecap: square"/>
    </g>
    <g id="text_18">
     <!-- Assault -->
     <g transform="translate(646.95 305.569687) scale(0.1 -0.1)">
      <use xlink:href="#DejaVuSans-41"/>
      <use xlink:href="#DejaVuSans-73" transform="translate(68.408203 0)"/>
      <use xlink:href="#DejaVuSans-73" transform="translate(120.507812 0)"/>
      <use xlink:href="#DejaVuSans-61" transform="translate(172.607422 0)"/>
      <use xlink:href="#DejaVuSans-75" transform="translate(233.886719 0)"/>
      <use xlink:href="#DejaVuSans-6c" transform="translate(297.265625 0)"/>
      <use xlink:href="#DejaVuSans-74" transform="translate(325.048828 0)"/>
     </g>
    </g>
    <g id="line2d_23">
     <path d="M 618.95 316.747813 
L 628.95 316.747813 
L 638.95 316.747813 
" style="fill: none; stroke: #ffa500; stroke-width: 1.5; stroke-linecap: square"/>
    </g>
    <g id="text_19">
     <!-- Boxing -->
     <g transform="translate(646.95 320.247813) scale(0.1 -0.1)">
      <defs>
       <path id="DejaVuSans-42" d="M 1259 2228 
L 1259 519 
L 2272 519 
Q 2781 519 3026 730 
Q 3272 941 3272 1375 
Q 3272 1813 3026 2020 
Q 2781 2228 2272 2228 
L 1259 2228 
z
M 1259 4147 
L 1259 2741 
L 2194 2741 
Q 2656 2741 2882 2914 
Q 3109 3088 3109 3444 
Q 3109 3797 2882 3972 
Q 2656 4147 2194 4147 
L 1259 4147 
z
M 628 4666 
L 2241 4666 
Q 2963 4666 3353 4366 
Q 3744 4066 3744 3513 
Q 3744 3084 3544 2831 
Q 3344 2578 2956 2516 
Q 3422 2416 3680 2098 
Q 3938 1781 3938 1306 
Q 3938 681 3513 340 
Q 3088 0 2303 0 
L 628 0 
L 628 4666 
z
" transform="scale(0.015625)"/>
       <path id="DejaVuSans-78" d="M 3513 3500 
L 2247 1797 
L 3578 0 
L 2900 0 
L 1881 1375 
L 863 0 
L 184 0 
L 1544 1831 
L 300 3500 
L 978 3500 
L 1906 2253 
L 2834 3500 
L 3513 3500 
z
" transform="scale(0.015625)"/>
      </defs>
      <use xlink:href="#DejaVuSans-42"/>
      <use xlink:href="#DejaVuSans-6f" transform="translate(68.603516 0)"/>
      <use xlink:href="#DejaVuSans-78" transform="translate(126.660156 0)"/>
      <use xlink:href="#DejaVuSans-69" transform="translate(185.839844 0)"/>
      <use xlink:href="#DejaVuSans-6e" transform="translate(213.623047 0)"/>
      <use xlink:href="#DejaVuSans-67" transform="translate(277.001953 0)"/>
     </g>
    </g>
    <g id="line2d_24">
     <path d="M 618.95 331.425938 
L 628.95 331.425938 
L 638.95 331.425938 
" style="fill: none; stroke: #800080; stroke-width: 1.5; stroke-linecap: square"/>
    </g>
    <g id="text_20">
     <!-- Breakout -->
     <g transform="translate(646.95 334.925938) scale(0.1 -0.1)">
      <defs>
       <path id="DejaVuSans-6b" d="M 581 4863 
L 1159 4863 
L 1159 1991 
L 2875 3500 
L 3609 3500 
L 1753 1863 
L 3688 0 
L 2938 0 
L 1159 1709 
L 1159 0 
L 581 0 
L 581 4863 
z
" transform="scale(0.015625)"/>
      </defs>
      <use xlink:href="#DejaVuSans-42"/>
      <use xlink:href="#DejaVuSans-72" transform="translate(68.603516 0)"/>
      <use xlink:href="#DejaVuSans-65" transform="translate(107.466797 0)"/>
      <use xlink:href="#DejaVuSans-61" transform="translate(168.990234 0)"/>
      <use xlink:href="#DejaVuSans-6b" transform="translate(230.269531 0)"/>
      <use xlink:href="#DejaVuSans-6f" transform="translate(284.554688 0)"/>
      <use xlink:href="#DejaVuSans-75" transform="translate(345.736328 0)"/>
      <use xlink:href="#DejaVuSans-74" transform="translate(409.115234 0)"/>
     </g>
    </g>
    <g id="line2d_25">
     <path d="M 618.95 346.104062 
L 628.95 346.104062 
L 638.95 346.104062 
" style="fill: none; stroke: #a52a2a; stroke-width: 1.5; stroke-linecap: square"/>
    </g>
    <g id="text_21">
     <!-- Freeway -->
     <g transform="translate(646.95 349.604062) scale(0.1 -0.1)">
      <defs>
       <path id="DejaVuSans-46" d="M 628 4666 
L 3309 4666 
L 3309 4134 
L 1259 4134 
L 1259 2759 
L 3109 2759 
L 3109 2228 
L 1259 2228 
L 1259 0 
L 628 0 
L 628 4666 
z
" transform="scale(0.015625)"/>
       <path id="DejaVuSans-77" d="M 269 3500 
L 844 3500 
L 1563 769 
L 2278 3500 
L 2956 3500 
L 3675 769 
L 4391 3500 
L 4966 3500 
L 4050 0 
L 3372 0 
L 2619 2869 
L 1863 0 
L 1184 0 
L 269 3500 
z
" transform="scale(0.015625)"/>
       <path id="DejaVuSans-79" d="M 2059 -325 
Q 1816 -950 1584 -1140 
Q 1353 -1331 966 -1331 
L 506 -1331 
L 506 -850 
L 844 -850 
Q 1081 -850 1212 -737 
Q 1344 -625 1503 -206 
L 1606 56 
L 191 3500 
L 800 3500 
L 1894 763 
L 2988 3500 
L 3597 3500 
L 2059 -325 
z
" transform="scale(0.015625)"/>
      </defs>
      <use xlink:href="#DejaVuSans-46"/>
      <use xlink:href="#DejaVuSans-72" transform="translate(50.269531 0)"/>
      <use xlink:href="#DejaVuSans-65" transform="translate(89.132812 0)"/>
      <use xlink:href="#DejaVuSans-65" transform="translate(150.65625 0)"/>
      <use xlink:href="#DejaVuSans-77" transform="translate(212.179688 0)"/>
      <use xlink:href="#DejaVuSans-61" transform="translate(293.966797 0)"/>
      <use xlink:href="#DejaVuSans-79" transform="translate(355.246094 0)"/>
     </g>
    </g>
    <g id="line2d_26">
     <path d="M 618.95 360.782187 
L 628.95 360.782187 
L 638.95 360.782187 
" style="fill: none; stroke: #ff00ff; stroke-width: 1.5; stroke-linecap: square"/>
    </g>
    <g id="text_22">
     <!-- MsPacman -->
     <g transform="translate(646.95 364.282187) scale(0.1 -0.1)">
      <defs>
       <path id="DejaVuSans-4d" d="M 628 4666 
L 1569 4666 
L 2759 1491 
L 3956 4666 
L 4897 4666 
L 4897 0 
L 4281 0 
L 4281 4097 
L 3078 897 
L 2444 897 
L 1241 4097 
L 1241 0 
L 628 0 
L 628 4666 
z
" transform="scale(0.015625)"/>
       <path id="DejaVuSans-50" d="M 1259 4147 
L 1259 2394 
L 2053 2394 
Q 2494 2394 2734 2622 
Q 2975 2850 2975 3272 
Q 2975 3691 2734 3919 
Q 2494 4147 2053 4147 
L 1259 4147 
z
M 628 4666 
L 2053 4666 
Q 2838 4666 3239 4311 
Q 3641 3956 3641 3272 
Q 3641 2581 3239 2228 
Q 2838 1875 2053 1875 
L 1259 1875 
L 1259 0 
L 628 0 
L 628 4666 
z
" transform="scale(0.015625)"/>
      </defs>
      <use xlink:href="#DejaVuSans-4d"/>
      <use xlink:href="#DejaVuSans-73" transform="translate(86.279297 0)"/>
      <use xlink:href="#DejaVuSans-50" transform="translate(138.378906 0)"/>
      <use xlink:href="#DejaVuSans-61" transform="translate(194.181641 0)"/>
      <use xlink:href="#DejaVuSans-63" transform="translate(255.460938 0)"/>
      <use xlink:href="#DejaVuSans-6d" transform="translate(310.441406 0)"/>
      <use xlink:href="#DejaVuSans-61" transform="translate(407.853516 0)"/>
      <use xlink:href="#DejaVuSans-6e" transform="translate(469.132812 0)"/>
     </g>
    </g>
    <g id="line2d_27">
     <path d="M 618.95 375.460312 
L 628.95 375.460312 
L 638.95 375.460312 
" style="fill: none; stroke: #00ffff; stroke-width: 1.5; stroke-linecap: square"/>
    </g>
    <g id="text_23">
     <!-- Pong -->
     <g transform="translate(646.95 378.960312) scale(0.1 -0.1)">
      <use xlink:href="#DejaVuSans-50"/>
      <use xlink:href="#DejaVuSans-6f" transform="translate(56.677734 0)"/>
      <use xlink:href="#DejaVuSans-6e" transform="translate(117.859375 0)"/>
      <use xlink:href="#DejaVuSans-67" transform="translate(181.238281 0)"/>
     </g>
    </g>
   </g>
  </g>
 </g>
 <defs>
  <clipPath id="p01c92dfb88">
   <rect x="46.64" y="25.44" width="662.56" height="364.6"/>
  </clipPath>
 </defs>
</svg>
