<?xml version="1.0" encoding="utf-8" standalone="no"?>
<!DOCTYPE svg PUBLIC "-//W3C//DTD SVG 1.1//EN"
  "http://www.w3.org/Graphics/SVG/1.1/DTD/svg11.dtd">
<svg xmlns:xlink="http://www.w3.org/1999/xlink" width="720pt" height="432pt" viewBox="0 0 720 432" xmlns="http://www.w3.org/2000/svg" version="1.1">
 <metadata>
  <rdf:RDF xmlns:dc="http://purl.org/dc/elements/1.1/" xmlns:cc="http://creativecommons.org/ns#" xmlns:rdf="http://www.w3.org/1999/02/22-rdf-syntax-ns#">
   <cc:Work>
    <dc:type rdf:resource="http://purl.org/dc/dcmitype/StillImage"/>
    <dc:date>2025-02-05T20:31:25.445430</dc:date>
    <dc:format>image/svg+xml</dc:format>
    <dc:creator>
     <cc:Agent>
      <dc:title>Matplotlib v3.10.0, https://matplotlib.org/</dc:title>
     </cc:Agent>
    </dc:creator>
   </cc:Work>
  </rdf:RDF>
 </metadata>
 <defs>
  <style type="text/css">*{stroke-linejoin: round; stroke-linecap: butt}</style>
 </defs>
 <g id="figure_1">
  <g id="patch_1">
   <path d="M 0 432 
L 720 432 
L 720 0 
L 0 0 
z
" style="fill: #ffffff"/>
  </g>
  <g id="axes_1">
   <g id="patch_2">
    <path d="M 51.05 390.04 
L 709.2 390.04 
L 709.2 25.44 
L 51.05 25.44 
z
" style="fill: #ffffff"/>
   </g>
   <g id="FillBetweenPolyCollection_1">
    <defs>
     <path id="m7c5ea6b28e" d="M 80.965909 -96.413247 
L 80.965909 -58.532727 
L 81.564826 -77.264436 
L 82.163743 -95.996144 
L 82.76266 -114.727852 
L 83.361577 -124.406534 
L 83.960495 -142.721139 
L 84.559412 -157.03061 
L 85.158329 -166.709291 
L 85.757246 -180.393107 
L 86.356163 -190.176064 
L 86.95508 -195.328232 
L 87.553997 -208.334256 
L 88.152914 -214.164216 
L 88.751831 -222.904416 
L 89.350748 -228.265135 
L 89.949666 -236.901059 
L 90.548583 -242.366054 
L 91.1475 -250.897703 
L 91.746417 -256.466973 
L 92.345334 -261.1499 
L 92.944251 -262.140519 
L 93.543168 -265.78069 
L 94.142085 -270.463617 
L 94.741002 -275.146544 
L 95.339919 -279.829471 
L 95.938837 -284.512398 
L 96.537754 -285.815844 
L 97.136671 -289.143187 
L 97.735588 -293.826114 
L 98.334505 -295.285974 
L 98.933422 -295.285974 
L 99.532339 -298.404766 
L 100.131256 -303.087693 
L 100.730173 -304.756104 
L 101.32909 -307.718482 
L 101.928008 -309.491169 
L 102.526925 -312.349271 
L 103.125842 -314.226234 
L 103.724759 -314.226234 
L 104.323676 -314.226234 
L 104.922593 -316.875785 
L 105.52151 -318.961299 
L 106.120427 -318.961299 
L 106.719344 -318.961299 
L 107.318261 -318.961299 
L 107.917179 -321.35016 
L 108.516096 -323.696364 
L 109.115013 -323.696364 
L 109.71393 -323.696364 
L 110.312847 -323.696364 
L 110.911764 -323.696364 
L 111.510681 -323.696364 
L 112.109598 -323.696364 
L 112.708515 -323.696364 
L 113.307432 -325.615985 
L 113.90635 -328.431429 
L 114.505267 -328.431429 
L 115.104184 -328.431429 
L 115.703101 -328.431429 
L 116.302018 -328.431429 
L 116.900935 -328.431429 
L 117.499852 -328.431429 
L 118.098769 -328.431429 
L 118.697686 -328.431429 
L 119.296603 -328.431429 
L 119.895521 -328.431429 
L 120.494438 -328.431429 
L 121.093355 -328.431429 
L 121.692272 -328.431429 
L 122.291189 -328.431429 
L 122.890106 -328.431429 
L 123.489023 -328.431429 
L 124.08794 -328.431429 
L 124.686857 -328.431429 
L 125.285774 -328.431429 
L 125.884692 -328.431429 
L 126.483609 -328.431429 
L 127.082526 -328.431429 
L 127.681443 -328.431429 
L 128.28036 -328.431429 
L 128.879277 -328.431429 
L 129.478194 -328.431429 
L 130.077111 -327.971668 
L 130.676028 -323.696364 
L 131.274945 -323.696364 
L 131.873862 -323.696364 
L 132.47278 -323.696364 
L 133.071697 -323.696364 
L 133.670614 -323.696364 
L 134.269531 -323.696364 
L 134.868448 -323.696364 
L 135.467365 -323.696364 
L 136.066282 -323.696364 
L 136.665199 -323.696364 
L 137.264116 -323.696364 
L 137.863033 -319.17933 
L 138.461951 -318.961299 
L 139.060868 -318.961299 
L 139.659785 -318.961299 
L 140.258702 -318.961299 
L 140.857619 -318.961299 
L 141.456536 -318.961299 
L 142.055453 -318.961299 
L 142.65437 -318.961299 
L 143.253287 -318.961299 
L 143.852204 -318.961299 
L 144.451122 -318.961299 
L 145.050039 -318.961299 
L 145.648956 -315.122057 
L 146.247873 -314.226234 
L 146.84679 -314.226234 
L 147.445707 -314.226234 
L 148.044624 -314.226234 
L 148.643541 -314.226234 
L 149.242458 -314.226234 
L 149.841375 -314.226234 
L 150.440293 -314.226234 
L 151.03921 -314.226234 
L 151.638127 -314.226234 
L 152.237044 -314.226234 
L 152.835961 -314.226234 
L 153.434878 -311.064784 
L 154.033795 -309.491169 
L 154.632712 -309.491169 
L 155.231629 -309.491169 
L 155.830546 -309.491169 
L 156.429464 -309.491169 
L 157.028381 -309.491169 
L 157.627298 -309.491169 
L 158.226215 -309.491169 
L 158.825132 -309.491169 
L 159.424049 -309.491169 
L 160.022966 -309.491169 
L 160.621883 -309.491169 
L 161.2208 -309.491169 
L 161.819717 -309.491169 
L 162.418635 -309.491169 
L 163.017552 -309.491169 
L 163.616469 -309.491169 
L 164.215386 -309.491169 
L 164.814303 -307.320338 
L 165.41322 -304.756104 
L 166.012137 -304.756104 
L 166.611054 -304.756104 
L 167.209971 -304.756104 
L 167.808888 -304.756104 
L 168.407806 -304.756104 
L 169.006723 -304.756104 
L 169.60564 -304.756104 
L 170.204557 -304.756104 
L 170.803474 -304.756104 
L 171.402391 -304.756104 
L 172.001308 -303.210928 
L 172.600225 -300.021039 
L 173.199142 -300.021039 
L 173.798059 -300.021039 
L 174.396977 -300.021039 
L 174.995894 -300.021039 
L 175.594811 -300.021039 
L 176.193728 -300.021039 
L 176.792645 -300.021039 
L 177.391562 -300.021039 
L 177.990479 -300.021039 
L 178.589396 -300.021039 
L 179.188313 -300.021039 
L 179.78723 -300.021039 
L 180.386148 -300.021039 
L 180.985065 -300.021039 
L 181.583982 -300.021039 
L 182.182899 -300.021039 
L 182.781816 -300.021039 
L 183.380733 -300.021039 
L 183.97965 -300.021039 
L 184.578567 -300.021039 
L 185.177484 -300.021039 
L 185.776401 -300.021039 
L 186.375319 -300.021039 
L 186.974236 -300.021039 
L 187.573153 -300.021039 
L 188.17207 -300.021039 
L 188.770987 -300.021039 
L 189.369904 -300.021039 
L 189.968821 -300.021039 
L 190.567738 -300.021039 
L 191.166655 -300.021039 
L 191.765572 -300.021039 
L 192.364489 -300.021039 
L 192.963407 -295.565623 
L 193.562324 -295.285974 
L 194.161241 -295.285974 
L 194.760158 -295.285974 
L 195.359075 -295.285974 
L 195.957992 -295.285974 
L 196.556909 -295.285974 
L 197.155826 -295.285974 
L 197.754743 -295.285974 
L 198.35366 -295.285974 
L 198.952578 -295.285974 
L 199.551495 -291.404074 
L 200.150412 -290.550909 
L 200.749329 -290.550909 
L 201.348246 -290.550909 
L 201.947163 -290.550909 
L 202.54608 -290.550909 
L 203.144997 -290.550909 
L 203.743914 -290.550909 
L 204.342831 -290.550909 
L 204.941749 -290.550909 
L 205.540666 -290.550909 
L 206.139583 -290.550909 
L 206.7385 -290.550909 
L 207.337417 -290.550909 
L 207.936334 -290.550909 
L 208.535251 -290.550909 
L 209.134168 -290.550909 
L 209.733085 -290.550909 
L 210.332002 -290.550909 
L 210.93092 -290.550909 
L 211.529837 -290.550909 
L 212.128754 -290.550909 
L 212.727671 -290.550909 
L 213.326588 -290.550909 
L 213.925505 -290.550909 
L 214.524422 -290.550909 
L 215.123339 -290.550909 
L 215.722256 -290.550909 
L 216.321173 -290.550909 
L 216.920091 -290.550909 
L 217.519008 -290.550909 
L 218.117925 -290.550909 
L 218.716842 -290.550909 
L 219.315759 -290.550909 
L 219.914676 -290.550909 
L 220.513593 -290.550909 
L 221.11251 -290.550909 
L 221.711427 -290.550909 
L 222.310344 -290.550909 
L 222.909262 -290.550909 
L 223.508179 -290.550909 
L 224.107096 -290.550909 
L 224.706013 -290.550909 
L 225.30493 -290.550909 
L 225.903847 -290.550909 
L 226.502764 -290.550909 
L 227.101681 -290.550909 
L 227.700598 -290.550909 
L 228.299515 -290.550909 
L 228.898433 -290.550909 
L 229.49735 -290.550909 
L 230.096267 -290.550909 
L 230.695184 -290.550909 
L 231.294101 -290.550909 
L 231.893018 -290.550909 
L 232.491935 -290.550909 
L 233.090852 -290.550909 
L 233.689769 -290.550909 
L 234.288686 -290.550909 
L 234.887604 -290.550909 
L 235.486521 -290.550909 
L 236.085438 -290.550909 
L 236.684355 -290.550909 
L 237.283272 -290.550909 
L 237.882189 -290.550909 
L 238.481106 -290.550909 
L 239.080023 -290.550909 
L 239.67894 -290.550909 
L 240.277857 -290.550909 
L 240.876775 -290.550909 
L 241.475692 -290.550909 
L 242.074609 -290.550909 
L 242.673526 -290.550909 
L 243.272443 -290.550909 
L 243.87136 -290.550909 
L 244.470277 -290.550909 
L 245.069194 -290.550909 
L 245.668111 -290.550909 
L 246.267028 -290.550909 
L 246.865945 -290.550909 
L 247.464863 -290.550909 
L 248.06378 -290.550909 
L 248.662697 -290.550909 
L 249.261614 -286.261386 
L 249.860531 -285.815844 
L 250.459448 -285.815844 
L 251.058365 -285.815844 
L 251.657282 -285.815844 
L 252.256199 -285.815844 
L 252.855116 -285.815844 
L 253.454034 -285.815844 
L 254.052951 -285.815844 
L 254.651868 -285.815844 
L 255.250785 -285.815844 
L 255.849702 -285.815844 
L 256.448619 -285.815844 
L 257.047536 -285.815844 
L 257.646453 -285.815844 
L 258.24537 -285.815844 
L 258.844287 -285.815844 
L 259.443205 -285.815844 
L 260.042122 -285.815844 
L 260.641039 -285.815844 
L 261.239956 -285.815844 
L 261.838873 -285.815844 
L 262.43779 -285.815844 
L 263.036707 -285.815844 
L 263.635624 -285.815844 
L 264.234541 -285.815844 
L 264.833458 -285.815844 
L 265.432376 -285.815844 
L 266.031293 -285.815844 
L 266.63021 -285.815844 
L 267.229127 -285.815844 
L 267.828044 -285.815844 
L 268.426961 -285.815844 
L 269.025878 -285.815844 
L 269.624795 -285.815844 
L 270.223712 -285.815844 
L 270.822629 -285.815844 
L 271.421547 -285.815844 
L 272.020464 -285.815844 
L 272.619381 -285.815844 
L 273.218298 -285.815844 
L 273.817215 -285.815844 
L 274.416132 -285.815844 
L 275.015049 -285.815844 
L 275.613966 -285.815844 
L 276.212883 -285.815844 
L 276.8118 -285.815844 
L 277.410718 -285.815844 
L 278.009635 -285.815844 
L 278.608552 -285.815844 
L 279.207469 -285.815844 
L 279.806386 -285.815844 
L 280.405303 -285.815844 
L 281.00422 -285.815844 
L 281.603137 -285.815844 
L 282.202054 -285.815844 
L 282.800971 -285.815844 
L 283.399889 -285.815844 
L 283.998806 -285.815844 
L 284.597723 -285.815844 
L 285.19664 -285.815844 
L 285.795557 -285.815844 
L 286.394474 -285.815844 
L 286.993391 -285.815844 
L 287.592308 -285.815844 
L 288.191225 -285.815844 
L 288.790142 -285.815844 
L 289.38906 -285.815844 
L 289.987977 -285.815844 
L 290.586894 -285.815844 
L 291.185811 -285.815844 
L 291.784728 -285.815844 
L 292.383645 -285.815844 
L 292.982562 -285.815844 
L 293.581479 -285.815844 
L 294.180396 -285.815844 
L 294.779313 -285.815844 
L 295.378231 -285.815844 
L 295.977148 -285.815844 
L 296.576065 -285.815844 
L 297.174982 -285.815844 
L 297.773899 -285.815844 
L 298.372816 -285.815844 
L 298.971733 -285.815844 
L 299.57065 -285.815844 
L 300.169567 -285.815844 
L 300.768484 -285.815844 
L 301.367401 -285.815844 
L 301.966319 -285.815844 
L 302.565236 -285.815844 
L 303.164153 -285.815844 
L 303.76307 -285.815844 
L 304.361987 -285.815844 
L 304.960904 -285.815844 
L 305.559821 -285.815844 
L 306.158738 -285.815844 
L 306.757655 -285.815844 
L 307.356572 -285.815844 
L 307.95549 -285.815844 
L 308.554407 -285.815844 
L 309.153324 -285.815844 
L 309.752241 -285.815844 
L 310.351158 -285.815844 
L 310.950075 -285.815844 
L 311.548992 -285.815844 
L 312.147909 -285.815844 
L 312.746826 -285.815844 
L 313.345743 -285.815844 
L 313.944661 -285.815844 
L 314.543578 -285.815844 
L 315.142495 -285.815844 
L 315.741412 -285.815844 
L 316.340329 -285.815844 
L 316.939246 -285.815844 
L 317.538163 -285.815844 
L 318.13708 -285.815844 
L 318.735997 -285.815844 
L 319.334914 -285.815844 
L 319.933832 -285.815844 
L 320.532749 -285.815844 
L 321.131666 -285.815844 
L 321.730583 -285.815844 
L 322.3295 -285.815844 
L 322.928417 -285.815844 
L 323.527334 -285.815844 
L 324.126251 -285.815844 
L 324.725168 -285.815844 
L 325.324085 -285.815844 
L 325.923003 -285.815844 
L 326.52192 -285.815844 
L 327.120837 -285.815844 
L 327.719754 -285.815844 
L 328.318671 -285.815844 
L 328.917588 -285.815844 
L 329.516505 -285.815844 
L 330.115422 -285.815844 
L 330.714339 -285.815844 
L 331.313256 -285.815844 
L 331.912174 -285.815844 
L 332.511091 -285.815844 
L 333.110008 -285.815844 
L 333.708925 -285.815844 
L 334.307842 -285.815844 
L 334.906759 -285.815844 
L 335.505676 -285.815844 
L 336.104593 -285.815844 
L 336.70351 -285.815844 
L 337.302427 -285.815844 
L 337.901345 -285.815844 
L 338.500262 -285.815844 
L 339.099179 -285.815844 
L 339.698096 -285.815844 
L 340.297013 -285.815844 
L 340.89593 -285.815844 
L 341.494847 -285.815844 
L 342.093764 -285.815844 
L 342.692681 -285.815844 
L 343.291598 -285.815844 
L 343.890516 -285.815844 
L 344.489433 -285.815844 
L 345.08835 -285.815844 
L 345.687267 -285.815844 
L 346.286184 -285.815844 
L 346.885101 -285.815844 
L 347.484018 -285.815844 
L 348.082935 -285.815844 
L 348.681852 -285.815844 
L 349.280769 -285.815844 
L 349.879687 -285.815844 
L 350.478604 -285.815844 
L 351.077521 -285.815844 
L 351.676438 -285.815844 
L 352.275355 -285.815844 
L 352.874272 -285.815844 
L 353.473189 -285.815844 
L 354.072106 -285.815844 
L 354.671023 -285.815844 
L 355.26994 -285.815844 
L 355.868857 -285.815844 
L 356.467775 -285.815844 
L 357.066692 -285.815844 
L 357.665609 -285.815844 
L 358.264526 -285.815844 
L 358.863443 -285.815844 
L 359.46236 -285.815844 
L 360.061277 -285.815844 
L 360.660194 -285.815844 
L 361.259111 -285.815844 
L 361.858028 -285.815844 
L 362.456946 -285.815844 
L 363.055863 -285.815844 
L 363.65478 -285.815844 
L 364.253697 -285.815844 
L 364.852614 -285.815844 
L 365.451531 -285.815844 
L 366.050448 -285.815844 
L 366.649365 -285.815844 
L 367.248282 -285.815844 
L 367.847199 -285.815844 
L 368.446117 -285.815844 
L 369.045034 -285.815844 
L 369.643951 -285.815844 
L 370.242868 -285.815844 
L 370.841785 -285.815844 
L 371.440702 -285.815844 
L 372.039619 -285.815844 
L 372.638536 -285.815844 
L 373.237453 -285.815844 
L 373.83637 -285.815844 
L 374.435288 -285.815844 
L 375.034205 -285.815844 
L 375.633122 -285.815844 
L 376.232039 -285.815844 
L 376.830956 -285.815844 
L 377.429873 -285.815844 
L 378.02879 -285.815844 
L 378.627707 -285.815844 
L 379.226624 -285.815844 
L 379.825541 -285.815844 
L 380.424459 -285.815844 
L 381.023376 -285.815844 
L 381.622293 -285.815844 
L 382.22121 -285.815844 
L 382.820127 -285.815844 
L 383.419044 -285.815844 
L 384.017961 -285.815844 
L 384.616878 -285.815844 
L 385.215795 -285.815844 
L 385.814712 -285.815844 
L 386.41363 -285.815844 
L 387.012547 -285.815844 
L 387.611464 -285.815844 
L 388.210381 -285.815844 
L 388.809298 -285.815844 
L 389.408215 -285.815844 
L 390.007132 -285.815844 
L 390.606049 -285.815844 
L 391.204966 -285.815844 
L 391.803883 -285.815844 
L 392.402801 -285.815844 
L 393.001718 -284.569276 
L 393.600635 -281.080779 
L 394.199552 -281.080779 
L 394.798469 -281.080779 
L 395.397386 -281.080779 
L 395.996303 -281.080779 
L 396.59522 -281.080779 
L 397.194137 -281.080779 
L 397.793054 -281.080779 
L 398.391972 -281.080779 
L 398.990889 -281.080779 
L 399.589806 -281.080779 
L 400.188723 -281.080779 
L 400.78764 -281.080779 
L 401.386557 -281.080779 
L 401.985474 -281.080779 
L 402.584391 -281.080779 
L 403.183308 -281.080779 
L 403.782225 -281.080779 
L 404.381143 -281.080779 
L 404.98006 -281.080779 
L 405.578977 -281.080779 
L 406.177894 -281.080779 
L 406.776811 -281.080779 
L 407.375728 -281.080779 
L 407.974645 -281.080779 
L 408.573562 -281.080779 
L 409.172479 -281.080779 
L 409.771396 -281.080779 
L 410.370313 -281.080779 
L 410.969231 -281.080779 
L 411.568148 -281.080779 
L 412.167065 -281.080779 
L 412.765982 -281.080779 
L 413.364899 -281.080779 
L 413.963816 -281.080779 
L 414.562733 -281.080779 
L 415.16165 -281.080779 
L 415.760567 -281.080779 
L 416.359484 -281.080779 
L 416.958402 -281.080779 
L 417.557319 -281.080779 
L 418.156236 -281.080779 
L 418.755153 -281.080779 
L 419.35407 -281.080779 
L 419.952987 -281.080779 
L 420.551904 -281.080779 
L 421.150821 -281.080779 
L 421.749738 -281.080779 
L 422.348655 -281.080779 
L 422.947573 -281.080779 
L 423.54649 -281.080779 
L 424.145407 -281.080779 
L 424.744324 -281.080779 
L 425.343241 -281.080779 
L 425.942158 -281.080779 
L 426.541075 -281.080779 
L 427.139992 -281.080779 
L 427.738909 -281.080779 
L 428.337826 -281.080779 
L 428.936744 -281.080779 
L 429.535661 -281.080779 
L 430.134578 -281.080779 
L 430.733495 -281.080779 
L 431.332412 -281.080779 
L 431.931329 -281.080779 
L 432.530246 -281.080779 
L 433.129163 -281.080779 
L 433.72808 -281.080779 
L 434.326997 -281.080779 
L 434.925915 -281.080779 
L 435.524832 -281.080779 
L 436.123749 -281.080779 
L 436.722666 -281.080779 
L 437.321583 -281.080779 
L 437.9205 -281.080779 
L 438.519417 -281.080779 
L 439.118334 -281.080779 
L 439.717251 -281.080779 
L 440.316168 -281.080779 
L 440.915086 -281.080779 
L 441.514003 -281.080779 
L 442.11292 -281.080779 
L 442.711837 -281.080779 
L 443.310754 -281.080779 
L 443.909671 -281.080779 
L 444.508588 -281.080779 
L 445.107505 -281.080779 
L 445.706422 -281.080779 
L 446.305339 -281.080779 
L 446.904257 -281.080779 
L 447.503174 -281.080779 
L 448.102091 -281.080779 
L 448.701008 -281.080779 
L 449.299925 -281.080779 
L 449.898842 -281.080779 
L 450.497759 -281.080779 
L 451.096676 -281.080779 
L 451.695593 -281.080779 
L 452.29451 -281.080779 
L 452.893428 -281.080779 
L 453.492345 -281.080779 
L 454.091262 -281.080779 
L 454.690179 -281.080779 
L 455.289096 -281.080779 
L 455.888013 -281.080779 
L 456.48693 -281.080779 
L 457.085847 -281.080779 
L 457.684764 -281.080779 
L 458.283681 -281.080779 
L 458.882599 -281.080779 
L 459.481516 -281.080779 
L 460.080433 -281.080779 
L 460.67935 -281.080779 
L 461.278267 -281.080779 
L 461.877184 -281.080779 
L 462.476101 -281.080779 
L 463.075018 -281.080779 
L 463.673935 -281.080779 
L 464.272852 -281.080779 
L 464.871769 -281.080779 
L 465.470687 -281.080779 
L 466.069604 -281.080779 
L 466.668521 -281.080779 
L 467.267438 -281.080779 
L 467.866355 -281.080779 
L 468.465272 -281.080779 
L 469.064189 -281.080779 
L 469.663106 -281.080779 
L 470.262023 -281.080779 
L 470.86094 -281.080779 
L 471.459858 -281.080779 
L 472.058775 -281.080779 
L 472.657692 -281.080779 
L 473.256609 -281.080779 
L 473.855526 -281.080779 
L 474.454443 -281.080779 
L 475.05336 -281.080779 
L 475.652277 -281.080779 
L 476.251194 -281.080779 
L 476.850111 -281.080779 
L 477.449029 -281.080779 
L 478.047946 -281.080779 
L 478.646863 -281.080779 
L 479.24578 -281.080779 
L 479.844697 -281.080779 
L 480.443614 -281.080779 
L 481.042531 -281.080779 
L 481.641448 -281.080779 
L 482.240365 -281.080779 
L 482.839282 -281.080779 
L 483.4382 -281.080779 
L 484.037117 -281.080779 
L 484.636034 -281.080779 
L 485.234951 -281.080779 
L 485.833868 -281.080779 
L 486.432785 -281.080779 
L 487.031702 -281.080779 
L 487.630619 -281.080779 
L 488.229536 -281.080779 
L 488.828453 -281.080779 
L 489.427371 -281.080779 
L 490.026288 -281.080779 
L 490.625205 -281.080779 
L 491.224122 -281.080779 
L 491.823039 -281.080779 
L 492.421956 -281.080779 
L 493.020873 -281.080779 
L 493.61979 -281.080779 
L 494.218707 -281.080779 
L 494.817624 -281.080779 
L 495.416542 -281.080779 
L 496.015459 -281.080779 
L 496.614376 -281.080779 
L 497.213293 -281.080779 
L 497.81221 -281.080779 
L 498.411127 -281.080779 
L 499.010044 -281.080779 
L 499.608961 -281.080779 
L 500.207878 -281.080779 
L 500.806795 -281.080779 
L 501.405713 -281.080779 
L 502.00463 -281.080779 
L 502.603547 -281.080779 
L 503.202464 -281.080779 
L 503.801381 -281.080779 
L 504.400298 -281.080779 
L 504.999215 -281.080779 
L 505.598132 -281.080779 
L 506.197049 -281.080779 
L 506.795966 -281.080779 
L 507.394884 -281.080779 
L 507.993801 -281.080779 
L 508.592718 -281.080779 
L 509.191635 -281.080779 
L 509.790552 -281.080779 
L 510.389469 -281.080779 
L 510.988386 -281.080779 
L 511.587303 -281.080779 
L 512.18622 -281.080779 
L 512.785137 -281.080779 
L 513.384055 -281.080779 
L 513.982972 -281.080779 
L 514.581889 -281.080779 
L 515.180806 -281.080779 
L 515.779723 -281.080779 
L 516.37864 -281.080779 
L 516.977557 -281.080779 
L 517.576474 -281.080779 
L 518.175391 -281.080779 
L 518.774308 -281.080779 
L 519.373225 -281.080779 
L 519.972143 -281.080779 
L 520.57106 -281.080779 
L 521.169977 -281.080779 
L 521.768894 -281.080779 
L 522.367811 -281.080779 
L 522.966728 -281.080779 
L 523.565645 -281.080779 
L 524.164562 -281.080779 
L 524.763479 -281.080779 
L 525.362396 -281.080779 
L 525.961314 -281.080779 
L 526.560231 -281.080779 
L 527.159148 -281.080779 
L 527.758065 -281.080779 
L 528.356982 -281.080779 
L 528.955899 -281.080779 
L 529.554816 -281.080779 
L 530.153733 -281.080779 
L 530.75265 -281.080779 
L 531.351567 -281.080779 
L 531.950485 -281.080779 
L 532.549402 -281.080779 
L 533.148319 -281.080779 
L 533.747236 -281.080779 
L 534.346153 -281.080779 
L 534.94507 -281.080779 
L 535.543987 -281.080779 
L 536.142904 -281.080779 
L 536.741821 -281.080779 
L 537.340738 -281.080779 
L 537.939656 -281.080779 
L 538.538573 -281.080779 
L 539.13749 -281.080779 
L 539.736407 -281.080779 
L 540.335324 -281.080779 
L 540.934241 -281.080779 
L 541.533158 -281.080779 
L 542.132075 -281.080779 
L 542.730992 -281.080779 
L 543.329909 -281.080779 
L 543.928827 -281.080779 
L 544.527744 -281.080779 
L 545.126661 -281.080779 
L 545.725578 -281.080779 
L 546.324495 -281.080779 
L 546.923412 -281.080779 
L 547.522329 -281.080779 
L 548.121246 -281.080779 
L 548.720163 -281.080779 
L 549.31908 -281.080779 
L 549.917998 -281.080779 
L 550.516915 -281.080779 
L 551.115832 -281.080779 
L 551.714749 -281.080779 
L 552.313666 -281.080779 
L 552.912583 -281.080779 
L 553.5115 -281.080779 
L 554.110417 -281.080779 
L 554.709334 -281.080779 
L 555.308251 -281.080779 
L 555.907169 -281.080779 
L 556.506086 -281.080779 
L 557.105003 -281.080779 
L 557.70392 -281.080779 
L 558.302837 -281.080779 
L 558.901754 -281.080779 
L 559.500671 -281.080779 
L 560.099588 -281.080779 
L 560.698505 -281.080779 
L 561.297422 -281.080779 
L 561.89634 -281.080779 
L 562.495257 -281.080779 
L 563.094174 -281.080779 
L 563.693091 -281.080779 
L 564.292008 -281.080779 
L 564.890925 -281.080779 
L 565.489842 -281.080779 
L 566.088759 -281.080779 
L 566.687676 -281.080779 
L 567.286593 -281.080779 
L 567.885511 -281.080779 
L 568.484428 -281.080779 
L 569.083345 -281.080779 
L 569.682262 -281.080779 
L 570.281179 -281.080779 
L 570.880096 -281.080779 
L 571.479013 -281.080779 
L 572.07793 -281.080779 
L 572.676847 -281.080779 
L 573.275764 -281.080779 
L 573.874681 -281.080779 
L 574.473599 -281.080779 
L 575.072516 -281.080779 
L 575.671433 -281.080779 
L 576.27035 -281.080779 
L 576.869267 -281.080779 
L 577.468184 -281.080779 
L 578.067101 -281.080779 
L 578.666018 -281.080779 
L 579.264935 -281.080779 
L 579.863852 -281.080779 
L 580.46277 -281.080779 
L 581.061687 -281.080779 
L 581.660604 -281.080779 
L 582.259521 -281.080779 
L 582.858438 -281.080779 
L 583.457355 -281.080779 
L 584.056272 -281.080779 
L 584.655189 -281.080779 
L 585.254106 -281.080779 
L 585.853023 -281.080779 
L 586.451941 -281.080779 
L 587.050858 -281.080779 
L 587.649775 -281.080779 
L 588.248692 -281.080779 
L 588.847609 -281.080779 
L 589.446526 -281.080779 
L 590.045443 -281.080779 
L 590.64436 -281.080779 
L 591.243277 -281.080779 
L 591.842194 -281.080779 
L 592.441112 -281.080779 
L 593.040029 -281.080779 
L 593.638946 -281.080779 
L 594.237863 -281.080779 
L 594.83678 -281.080779 
L 595.435697 -281.080779 
L 596.034614 -281.080779 
L 596.633531 -281.080779 
L 597.232448 -281.080779 
L 597.831365 -281.080779 
L 598.430283 -281.080779 
L 599.0292 -281.080779 
L 599.628117 -281.080779 
L 600.227034 -281.080779 
L 600.825951 -281.080779 
L 601.424868 -281.080779 
L 602.023785 -281.080779 
L 602.622702 -281.080779 
L 603.221619 -281.080779 
L 603.820536 -281.080779 
L 604.419454 -281.080779 
L 605.018371 -281.080779 
L 605.617288 -281.080779 
L 606.216205 -281.080779 
L 606.815122 -281.080779 
L 607.414039 -281.080779 
L 608.012956 -281.080779 
L 608.611873 -281.080779 
L 609.21079 -281.080779 
L 609.809707 -281.080779 
L 610.408625 -281.080779 
L 611.007542 -281.080779 
L 611.606459 -281.080779 
L 612.205376 -281.080779 
L 612.804293 -281.080779 
L 613.40321 -281.080779 
L 614.002127 -281.080779 
L 614.601044 -281.080779 
L 615.199961 -281.080779 
L 615.798878 -281.080779 
L 616.397796 -281.080779 
L 616.996713 -281.080779 
L 617.59563 -281.080779 
L 618.194547 -281.080779 
L 618.793464 -281.080779 
L 619.392381 -281.080779 
L 619.991298 -281.080779 
L 620.590215 -281.080779 
L 621.189132 -281.080779 
L 621.788049 -281.080779 
L 622.386967 -281.080779 
L 622.985884 -281.080779 
L 623.584801 -281.080779 
L 624.183718 -281.080779 
L 624.782635 -281.080779 
L 625.381552 -281.080779 
L 625.980469 -281.080779 
L 626.579386 -281.080779 
L 627.178303 -281.080779 
L 627.77722 -281.080779 
L 628.376138 -281.080779 
L 628.975055 -281.080779 
L 629.573972 -281.080779 
L 630.172889 -281.080779 
L 630.771806 -281.080779 
L 631.370723 -281.080779 
L 631.96964 -281.080779 
L 632.568557 -281.080779 
L 633.167474 -281.080779 
L 633.766391 -281.080779 
L 634.365308 -281.080779 
L 634.964226 -281.080779 
L 635.563143 -281.080779 
L 636.16206 -281.080779 
L 636.760977 -281.080779 
L 637.359894 -281.080779 
L 637.958811 -281.080779 
L 638.557728 -281.080779 
L 639.156645 -281.080779 
L 639.755562 -281.080779 
L 640.354479 -281.080779 
L 640.953397 -281.080779 
L 641.552314 -281.080779 
L 642.151231 -281.080779 
L 642.750148 -281.080779 
L 643.349065 -281.080779 
L 643.947982 -281.080779 
L 644.546899 -281.080779 
L 645.145816 -281.080779 
L 645.744733 -281.080779 
L 646.34365 -281.080779 
L 646.942568 -281.080779 
L 647.541485 -281.080779 
L 648.140402 -281.080779 
L 648.739319 -281.080779 
L 649.338236 -281.080779 
L 649.937153 -281.080779 
L 650.53607 -281.080779 
L 651.134987 -281.080779 
L 651.733904 -281.080779 
L 652.332821 -281.080779 
L 652.931739 -281.080779 
L 653.530656 -281.080779 
L 654.129573 -281.080779 
L 654.72849 -281.080779 
L 655.327407 -281.080779 
L 655.926324 -281.080779 
L 656.525241 -281.080779 
L 657.124158 -281.080779 
L 657.723075 -281.080779 
L 658.321992 -281.080779 
L 658.92091 -281.080779 
L 659.519827 -281.080779 
L 660.118744 -281.080779 
L 660.717661 -281.080779 
L 661.316578 -281.080779 
L 661.915495 -281.080779 
L 662.514412 -281.080779 
L 663.113329 -281.080779 
L 663.712246 -281.080779 
L 664.311163 -281.080779 
L 664.910081 -281.080779 
L 665.508998 -281.080779 
L 666.107915 -281.080779 
L 666.706832 -281.080779 
L 667.305749 -281.080779 
L 667.904666 -281.080779 
L 668.503583 -281.080779 
L 669.1025 -281.080779 
L 669.701417 -281.080779 
L 670.300334 -281.080779 
L 670.899252 -281.080779 
L 671.498169 -281.080779 
L 672.097086 -281.080779 
L 672.696003 -281.080779 
L 673.29492 -281.080779 
L 673.893837 -281.080779 
L 674.492754 -281.080779 
L 675.091671 -281.080779 
L 675.690588 -281.080779 
L 676.289505 -281.080779 
L 676.888423 -281.080779 
L 677.48734 -281.080779 
L 678.086257 -281.080779 
L 678.685174 -281.080779 
L 679.284091 -281.080779 
L 679.284091 -328.431429 
L 679.284091 -328.431429 
L 678.685174 -328.431429 
L 678.086257 -328.431429 
L 677.48734 -328.431429 
L 676.888423 -328.431429 
L 676.289505 -328.431429 
L 675.690588 -328.431429 
L 675.091671 -328.431429 
L 674.492754 -328.431429 
L 673.893837 -328.431429 
L 673.29492 -328.431429 
L 672.696003 -328.431429 
L 672.097086 -328.431429 
L 671.498169 -328.431429 
L 670.899252 -328.431429 
L 670.300334 -328.431429 
L 669.701417 -328.431429 
L 669.1025 -328.431429 
L 668.503583 -328.431429 
L 667.904666 -328.431429 
L 667.305749 -328.431429 
L 666.706832 -328.431429 
L 666.107915 -328.431429 
L 665.508998 -328.431429 
L 664.910081 -328.431429 
L 664.311163 -328.431429 
L 663.712246 -328.431429 
L 663.113329 -328.431429 
L 662.514412 -328.431429 
L 661.915495 -328.431429 
L 661.316578 -328.431429 
L 660.717661 -328.431429 
L 660.118744 -328.431429 
L 659.519827 -328.431429 
L 658.92091 -328.431429 
L 658.321992 -328.431429 
L 657.723075 -328.431429 
L 657.124158 -328.431429 
L 656.525241 -328.431429 
L 655.926324 -328.431429 
L 655.327407 -328.431429 
L 654.72849 -328.431429 
L 654.129573 -328.431429 
L 653.530656 -328.431429 
L 652.931739 -328.431429 
L 652.332821 -328.431429 
L 651.733904 -328.431429 
L 651.134987 -328.431429 
L 650.53607 -328.431429 
L 649.937153 -328.431429 
L 649.338236 -328.431429 
L 648.739319 -328.431429 
L 648.140402 -328.431429 
L 647.541485 -328.431429 
L 646.942568 -328.431429 
L 646.34365 -328.431429 
L 645.744733 -328.431429 
L 645.145816 -328.431429 
L 644.546899 -328.431429 
L 643.947982 -328.431429 
L 643.349065 -328.431429 
L 642.750148 -328.431429 
L 642.151231 -328.431429 
L 641.552314 -328.431429 
L 640.953397 -328.431429 
L 640.354479 -328.431429 
L 639.755562 -328.431429 
L 639.156645 -328.431429 
L 638.557728 -328.431429 
L 637.958811 -328.431429 
L 637.359894 -328.431429 
L 636.760977 -328.431429 
L 636.16206 -328.431429 
L 635.563143 -328.431429 
L 634.964226 -328.431429 
L 634.365308 -328.431429 
L 633.766391 -328.431429 
L 633.167474 -328.431429 
L 632.568557 -328.431429 
L 631.96964 -328.431429 
L 631.370723 -328.431429 
L 630.771806 -328.431429 
L 630.172889 -328.431429 
L 629.573972 -328.431429 
L 628.975055 -328.431429 
L 628.376138 -328.431429 
L 627.77722 -328.431429 
L 627.178303 -328.431429 
L 626.579386 -328.431429 
L 625.980469 -328.431429 
L 625.381552 -328.431429 
L 624.782635 -328.431429 
L 624.183718 -328.431429 
L 623.584801 -328.431429 
L 622.985884 -328.431429 
L 622.386967 -328.431429 
L 621.788049 -328.431429 
L 621.189132 -328.431429 
L 620.590215 -328.431429 
L 619.991298 -328.431429 
L 619.392381 -328.431429 
L 618.793464 -328.431429 
L 618.194547 -328.431429 
L 617.59563 -328.431429 
L 616.996713 -328.431429 
L 616.397796 -328.431429 
L 615.798878 -328.431429 
L 615.199961 -328.431429 
L 614.601044 -328.431429 
L 614.002127 -328.431429 
L 613.40321 -328.431429 
L 612.804293 -328.431429 
L 612.205376 -328.431429 
L 611.606459 -328.431429 
L 611.007542 -328.431429 
L 610.408625 -328.431429 
L 609.809707 -328.431429 
L 609.21079 -328.431429 
L 608.611873 -328.431429 
L 608.012956 -328.431429 
L 607.414039 -328.431429 
L 606.815122 -328.431429 
L 606.216205 -328.431429 
L 605.617288 -328.431429 
L 605.018371 -328.431429 
L 604.419454 -328.431429 
L 603.820536 -328.431429 
L 603.221619 -328.431429 
L 602.622702 -328.431429 
L 602.023785 -328.431429 
L 601.424868 -328.431429 
L 600.825951 -328.431429 
L 600.227034 -328.431429 
L 599.628117 -328.431429 
L 599.0292 -328.431429 
L 598.430283 -328.431429 
L 597.831365 -328.431429 
L 597.232448 -328.431429 
L 596.633531 -328.431429 
L 596.034614 -328.431429 
L 595.435697 -328.431429 
L 594.83678 -328.431429 
L 594.237863 -328.431429 
L 593.638946 -328.431429 
L 593.040029 -328.431429 
L 592.441112 -328.431429 
L 591.842194 -328.431429 
L 591.243277 -328.431429 
L 590.64436 -328.431429 
L 590.045443 -328.431429 
L 589.446526 -328.431429 
L 588.847609 -328.431429 
L 588.248692 -328.431429 
L 587.649775 -328.431429 
L 587.050858 -328.431429 
L 586.451941 -328.431429 
L 585.853023 -328.431429 
L 585.254106 -328.431429 
L 584.655189 -328.431429 
L 584.056272 -328.431429 
L 583.457355 -328.431429 
L 582.858438 -328.431429 
L 582.259521 -328.431429 
L 581.660604 -328.431429 
L 581.061687 -328.431429 
L 580.46277 -328.431429 
L 579.863852 -328.431429 
L 579.264935 -328.431429 
L 578.666018 -328.431429 
L 578.067101 -328.431429 
L 577.468184 -328.431429 
L 576.869267 -328.431429 
L 576.27035 -328.431429 
L 575.671433 -328.431429 
L 575.072516 -328.431429 
L 574.473599 -328.431429 
L 573.874681 -328.431429 
L 573.275764 -328.431429 
L 572.676847 -328.431429 
L 572.07793 -328.431429 
L 571.479013 -328.431429 
L 570.880096 -328.431429 
L 570.281179 -328.431429 
L 569.682262 -328.431429 
L 569.083345 -328.431429 
L 568.484428 -328.431429 
L 567.885511 -328.431429 
L 567.286593 -328.431429 
L 566.687676 -328.431429 
L 566.088759 -328.431429 
L 565.489842 -328.431429 
L 564.890925 -328.431429 
L 564.292008 -328.431429 
L 563.693091 -328.431429 
L 563.094174 -328.431429 
L 562.495257 -328.431429 
L 561.89634 -328.431429 
L 561.297422 -328.431429 
L 560.698505 -328.431429 
L 560.099588 -328.431429 
L 559.500671 -328.431429 
L 558.901754 -328.431429 
L 558.302837 -328.431429 
L 557.70392 -328.431429 
L 557.105003 -328.431429 
L 556.506086 -328.431429 
L 555.907169 -328.431429 
L 555.308251 -328.431429 
L 554.709334 -328.431429 
L 554.110417 -328.431429 
L 553.5115 -328.431429 
L 552.912583 -328.431429 
L 552.313666 -328.431429 
L 551.714749 -328.431429 
L 551.115832 -328.431429 
L 550.516915 -328.431429 
L 549.917998 -328.431429 
L 549.31908 -328.431429 
L 548.720163 -328.431429 
L 548.121246 -328.431429 
L 547.522329 -328.431429 
L 546.923412 -328.431429 
L 546.324495 -328.431429 
L 545.725578 -328.431429 
L 545.126661 -328.431429 
L 544.527744 -328.431429 
L 543.928827 -328.431429 
L 543.329909 -328.431429 
L 542.730992 -328.431429 
L 542.132075 -328.431429 
L 541.533158 -328.431429 
L 540.934241 -328.431429 
L 540.335324 -328.431429 
L 539.736407 -328.431429 
L 539.13749 -328.431429 
L 538.538573 -328.431429 
L 537.939656 -328.431429 
L 537.340738 -328.431429 
L 536.741821 -328.431429 
L 536.142904 -328.431429 
L 535.543987 -328.431429 
L 534.94507 -328.431429 
L 534.346153 -328.431429 
L 533.747236 -328.431429 
L 533.148319 -328.431429 
L 532.549402 -328.431429 
L 531.950485 -328.431429 
L 531.351567 -328.431429 
L 530.75265 -328.431429 
L 530.153733 -328.431429 
L 529.554816 -328.431429 
L 528.955899 -328.431429 
L 528.356982 -328.431429 
L 527.758065 -328.431429 
L 527.159148 -328.431429 
L 526.560231 -328.431429 
L 525.961314 -328.431429 
L 525.362396 -328.431429 
L 524.763479 -328.431429 
L 524.164562 -328.431429 
L 523.565645 -328.431429 
L 522.966728 -328.431429 
L 522.367811 -328.431429 
L 521.768894 -328.431429 
L 521.169977 -328.431429 
L 520.57106 -328.431429 
L 519.972143 -328.431429 
L 519.373225 -328.431429 
L 518.774308 -328.431429 
L 518.175391 -328.431429 
L 517.576474 -328.431429 
L 516.977557 -328.431429 
L 516.37864 -328.431429 
L 515.779723 -328.431429 
L 515.180806 -328.431429 
L 514.581889 -328.431429 
L 513.982972 -328.431429 
L 513.384055 -328.431429 
L 512.785137 -328.431429 
L 512.18622 -328.431429 
L 511.587303 -328.431429 
L 510.988386 -328.431429 
L 510.389469 -328.431429 
L 509.790552 -328.431429 
L 509.191635 -328.431429 
L 508.592718 -328.431429 
L 507.993801 -328.431429 
L 507.394884 -328.431429 
L 506.795966 -328.431429 
L 506.197049 -328.431429 
L 505.598132 -332.251711 
L 504.999215 -329.398349 
L 504.400298 -332.147435 
L 503.801381 -329.502624 
L 503.202464 -332.04316 
L 502.603547 -333.166494 
L 502.00463 -333.166494 
L 501.405713 -333.166494 
L 500.806795 -333.166494 
L 500.207878 -333.166494 
L 499.608961 -333.166494 
L 499.010044 -333.166494 
L 498.411127 -333.166494 
L 497.81221 -333.166494 
L 497.213293 -333.166494 
L 496.614376 -333.166494 
L 496.015459 -333.166494 
L 495.416542 -333.166494 
L 494.817624 -333.166494 
L 494.218707 -333.166494 
L 493.61979 -333.166494 
L 493.020873 -333.166494 
L 492.421956 -333.166494 
L 491.823039 -333.166494 
L 491.224122 -330.597519 
L 490.625205 -330.948265 
L 490.026288 -330.701795 
L 489.427371 -330.843989 
L 488.828453 -333.166494 
L 488.229536 -333.166494 
L 487.630619 -333.166494 
L 487.031702 -333.166494 
L 486.432785 -333.166494 
L 485.833868 -333.166494 
L 485.234951 -333.166494 
L 484.636034 -333.166494 
L 484.037117 -333.166494 
L 483.4382 -333.166494 
L 482.839282 -333.166494 
L 482.240365 -333.166494 
L 481.641448 -333.166494 
L 481.042531 -333.166494 
L 480.443614 -333.166494 
L 479.844697 -333.166494 
L 479.24578 -333.166494 
L 478.646863 -333.166494 
L 478.047946 -333.166494 
L 477.449029 -333.166494 
L 476.850111 -333.166494 
L 476.251194 -333.166494 
L 475.652277 -333.166494 
L 475.05336 -333.166494 
L 474.454443 -333.166494 
L 473.855526 -333.166494 
L 473.256609 -333.166494 
L 472.657692 -333.166494 
L 472.058775 -333.166494 
L 471.459858 -333.166494 
L 470.86094 -333.166494 
L 470.262023 -333.166494 
L 469.663106 -333.166494 
L 469.064189 -333.166494 
L 468.465272 -333.166494 
L 467.866355 -333.166494 
L 467.267438 -333.166494 
L 466.668521 -333.166494 
L 466.069604 -333.166494 
L 465.470687 -333.166494 
L 464.871769 -333.166494 
L 464.272852 -333.166494 
L 463.673935 -333.166494 
L 463.075018 -333.166494 
L 462.476101 -333.166494 
L 461.877184 -333.166494 
L 461.278267 -333.166494 
L 460.67935 -333.166494 
L 460.080433 -333.166494 
L 459.481516 -333.166494 
L 458.882599 -333.166494 
L 458.283681 -333.166494 
L 457.684764 -333.166494 
L 457.085847 -333.166494 
L 456.48693 -333.166494 
L 455.888013 -333.166494 
L 455.289096 -333.166494 
L 454.690179 -333.166494 
L 454.091262 -333.166494 
L 453.492345 -333.166494 
L 452.893428 -333.166494 
L 452.29451 -333.166494 
L 451.695593 -333.166494 
L 451.096676 -333.166494 
L 450.497759 -333.166494 
L 449.898842 -333.166494 
L 449.299925 -333.166494 
L 448.701008 -333.166494 
L 448.102091 -333.166494 
L 447.503174 -333.166494 
L 446.904257 -333.166494 
L 446.305339 -333.166494 
L 445.706422 -333.166494 
L 445.107505 -333.166494 
L 444.508588 -333.166494 
L 443.909671 -333.166494 
L 443.310754 -333.166494 
L 442.711837 -333.166494 
L 442.11292 -333.166494 
L 441.514003 -333.166494 
L 440.915086 -333.166494 
L 440.316168 -333.166494 
L 439.717251 -333.166494 
L 439.118334 -333.166494 
L 438.519417 -333.166494 
L 437.9205 -333.166494 
L 437.321583 -333.166494 
L 436.722666 -333.166494 
L 436.123749 -333.166494 
L 435.524832 -333.166494 
L 434.925915 -333.166494 
L 434.326997 -333.166494 
L 433.72808 -333.166494 
L 433.129163 -333.166494 
L 432.530246 -333.166494 
L 431.931329 -333.166494 
L 431.332412 -333.166494 
L 430.733495 -333.166494 
L 430.134578 -333.166494 
L 429.535661 -333.166494 
L 428.936744 -333.166494 
L 428.337826 -333.166494 
L 427.738909 -333.166494 
L 427.139992 -333.166494 
L 426.541075 -333.166494 
L 425.942158 -333.166494 
L 425.343241 -333.166494 
L 424.744324 -333.166494 
L 424.145407 -333.166494 
L 423.54649 -333.166494 
L 422.947573 -333.166494 
L 422.348655 -333.166494 
L 421.749738 -333.166494 
L 421.150821 -333.166494 
L 420.551904 -333.166494 
L 419.952987 -333.166494 
L 419.35407 -333.166494 
L 418.755153 -333.166494 
L 418.156236 -333.166494 
L 417.557319 -333.166494 
L 416.958402 -333.166494 
L 416.359484 -333.166494 
L 415.760567 -333.166494 
L 415.16165 -333.166494 
L 414.562733 -333.166494 
L 413.963816 -333.166494 
L 413.364899 -333.166494 
L 412.765982 -333.166494 
L 412.167065 -333.166494 
L 411.568148 -333.166494 
L 410.969231 -333.166494 
L 410.370313 -333.166494 
L 409.771396 -333.166494 
L 409.172479 -333.166494 
L 408.573562 -333.166494 
L 407.974645 -333.166494 
L 407.375728 -333.166494 
L 406.776811 -333.166494 
L 406.177894 -333.166494 
L 405.578977 -333.166494 
L 404.98006 -333.166494 
L 404.381143 -333.166494 
L 403.782225 -333.166494 
L 403.183308 -333.166494 
L 402.584391 -333.166494 
L 401.985474 -333.166494 
L 401.386557 -333.166494 
L 400.78764 -333.166494 
L 400.188723 -333.166494 
L 399.589806 -333.166494 
L 398.990889 -333.166494 
L 398.391972 -333.166494 
L 397.793054 -333.166494 
L 397.194137 -333.166494 
L 396.59522 -333.166494 
L 395.996303 -333.166494 
L 395.397386 -333.166494 
L 394.798469 -333.166494 
L 394.199552 -333.166494 
L 393.600635 -333.166494 
L 393.001718 -333.166494 
L 392.402801 -333.166494 
L 391.803883 -333.166494 
L 391.204966 -333.166494 
L 390.606049 -333.166494 
L 390.007132 -333.166494 
L 389.408215 -333.166494 
L 388.809298 -333.166494 
L 388.210381 -333.166494 
L 387.611464 -333.166494 
L 387.012547 -333.166494 
L 386.41363 -333.166494 
L 385.814712 -333.166494 
L 385.215795 -333.166494 
L 384.616878 -333.166494 
L 384.017961 -333.166494 
L 383.419044 -333.166494 
L 382.820127 -333.166494 
L 382.22121 -333.166494 
L 381.622293 -333.166494 
L 381.023376 -333.166494 
L 380.424459 -333.166494 
L 379.825541 -333.166494 
L 379.226624 -333.166494 
L 378.627707 -333.166494 
L 378.02879 -333.166494 
L 377.429873 -333.166494 
L 376.830956 -333.166494 
L 376.232039 -333.166494 
L 375.633122 -333.166494 
L 375.034205 -333.166494 
L 374.435288 -333.166494 
L 373.83637 -333.166494 
L 373.237453 -333.166494 
L 372.638536 -333.166494 
L 372.039619 -333.166494 
L 371.440702 -333.166494 
L 370.841785 -333.166494 
L 370.242868 -333.166494 
L 369.643951 -333.166494 
L 369.045034 -333.166494 
L 368.446117 -333.166494 
L 367.847199 -333.166494 
L 367.248282 -333.166494 
L 366.649365 -333.166494 
L 366.050448 -333.166494 
L 365.451531 -333.166494 
L 364.852614 -333.166494 
L 364.253697 -333.166494 
L 363.65478 -333.166494 
L 363.055863 -333.166494 
L 362.456946 -333.166494 
L 361.858028 -333.166494 
L 361.259111 -333.166494 
L 360.660194 -333.166494 
L 360.061277 -333.166494 
L 359.46236 -333.166494 
L 358.863443 -333.166494 
L 358.264526 -333.166494 
L 357.665609 -333.166494 
L 357.066692 -333.166494 
L 356.467775 -333.166494 
L 355.868857 -333.166494 
L 355.26994 -333.166494 
L 354.671023 -333.166494 
L 354.072106 -333.166494 
L 353.473189 -333.166494 
L 352.874272 -333.166494 
L 352.275355 -333.166494 
L 351.676438 -333.166494 
L 351.077521 -333.166494 
L 350.478604 -333.166494 
L 349.879687 -333.166494 
L 349.280769 -333.166494 
L 348.681852 -333.166494 
L 348.082935 -333.166494 
L 347.484018 -333.166494 
L 346.885101 -337.37544 
L 346.286184 -337.901558 
L 345.687267 -337.901558 
L 345.08835 -337.901558 
L 344.489433 -337.901558 
L 343.890516 -337.901558 
L 343.291598 -337.901558 
L 342.692681 -337.901558 
L 342.093764 -337.901558 
L 341.494847 -337.901558 
L 340.89593 -337.901558 
L 340.297013 -337.901558 
L 339.698096 -337.901558 
L 339.099179 -337.901558 
L 338.500262 -337.901558 
L 337.901345 -337.901558 
L 337.302427 -337.901558 
L 336.70351 -337.901558 
L 336.104593 -337.901558 
L 335.505676 -337.901558 
L 334.906759 -337.901558 
L 334.307842 -337.901558 
L 333.708925 -337.901558 
L 333.110008 -337.901558 
L 332.511091 -337.901558 
L 331.912174 -337.901558 
L 331.313256 -337.901558 
L 330.714339 -337.901558 
L 330.115422 -337.901558 
L 329.516505 -337.901558 
L 328.917588 -337.901558 
L 328.318671 -337.901558 
L 327.719754 -337.901558 
L 327.120837 -337.901558 
L 326.52192 -337.901558 
L 325.923003 -337.901558 
L 325.324085 -337.901558 
L 324.725168 -337.901558 
L 324.126251 -337.901558 
L 323.527334 -337.901558 
L 322.928417 -337.901558 
L 322.3295 -337.901558 
L 321.730583 -337.901558 
L 321.131666 -337.901558 
L 320.532749 -337.901558 
L 319.933832 -337.901558 
L 319.334914 -337.901558 
L 318.735997 -337.901558 
L 318.13708 -337.901558 
L 317.538163 -337.901558 
L 316.939246 -337.901558 
L 316.340329 -337.901558 
L 315.741412 -337.901558 
L 315.142495 -337.901558 
L 314.543578 -337.901558 
L 313.944661 -337.901558 
L 313.345743 -337.901558 
L 312.746826 -337.901558 
L 312.147909 -337.901558 
L 311.548992 -337.901558 
L 310.950075 -337.901558 
L 310.351158 -337.901558 
L 309.752241 -337.901558 
L 309.153324 -337.901558 
L 308.554407 -337.901558 
L 307.95549 -337.901558 
L 307.356572 -337.901558 
L 306.757655 -337.901558 
L 306.158738 -337.901558 
L 305.559821 -337.901558 
L 304.960904 -337.901558 
L 304.361987 -337.901558 
L 303.76307 -337.901558 
L 303.164153 -337.901558 
L 302.565236 -337.901558 
L 301.966319 -337.901558 
L 301.367401 -337.901558 
L 300.768484 -337.901558 
L 300.169567 -337.901558 
L 299.57065 -337.901558 
L 298.971733 -337.901558 
L 298.372816 -337.901558 
L 297.773899 -337.901558 
L 297.174982 -337.901558 
L 296.576065 -337.901558 
L 295.977148 -337.901558 
L 295.378231 -337.901558 
L 294.779313 -337.901558 
L 294.180396 -337.901558 
L 293.581479 -337.901558 
L 292.982562 -337.901558 
L 292.383645 -337.901558 
L 291.784728 -337.901558 
L 291.185811 -337.901558 
L 290.586894 -337.901558 
L 289.987977 -337.901558 
L 289.38906 -337.901558 
L 288.790142 -337.901558 
L 288.191225 -337.901558 
L 287.592308 -337.901558 
L 286.993391 -337.901558 
L 286.394474 -337.901558 
L 285.795557 -337.901558 
L 285.19664 -337.901558 
L 284.597723 -337.901558 
L 283.998806 -337.901558 
L 283.399889 -337.901558 
L 282.800971 -337.901558 
L 282.202054 -337.901558 
L 281.603137 -337.901558 
L 281.00422 -337.901558 
L 280.405303 -337.901558 
L 279.806386 -337.901558 
L 279.207469 -340.953993 
L 278.608552 -342.636623 
L 278.009635 -342.636623 
L 277.410718 -342.636623 
L 276.8118 -342.636623 
L 276.212883 -342.636623 
L 275.613966 -342.636623 
L 275.015049 -342.636623 
L 274.416132 -342.636623 
L 273.817215 -342.636623 
L 273.218298 -342.636623 
L 272.619381 -342.636623 
L 272.020464 -342.636623 
L 271.421547 -342.636623 
L 270.822629 -342.636623 
L 270.223712 -342.636623 
L 269.624795 -342.636623 
L 269.025878 -342.636623 
L 268.426961 -342.636623 
L 267.828044 -342.636623 
L 267.229127 -342.636623 
L 266.63021 -342.636623 
L 266.031293 -342.636623 
L 265.432376 -342.636623 
L 264.833458 -342.636623 
L 264.234541 -342.636623 
L 263.635624 -342.636623 
L 263.036707 -342.636623 
L 262.43779 -342.636623 
L 261.838873 -342.636623 
L 261.239956 -342.636623 
L 260.641039 -342.636623 
L 260.042122 -342.636623 
L 259.443205 -342.636623 
L 258.844287 -342.636623 
L 258.24537 -342.636623 
L 257.646453 -342.636623 
L 257.047536 -342.636623 
L 256.448619 -342.636623 
L 255.849702 -342.636623 
L 255.250785 -342.636623 
L 254.651868 -342.636623 
L 254.052951 -342.636623 
L 253.454034 -342.636623 
L 252.855116 -342.636623 
L 252.256199 -342.636623 
L 251.657282 -342.636623 
L 251.058365 -342.636623 
L 250.459448 -342.636623 
L 249.860531 -342.636623 
L 249.261614 -342.636623 
L 248.662697 -342.636623 
L 248.06378 -342.636623 
L 247.464863 -342.636623 
L 246.865945 -342.636623 
L 246.267028 -342.636623 
L 245.668111 -342.636623 
L 245.069194 -342.636623 
L 244.470277 -342.636623 
L 243.87136 -342.636623 
L 243.272443 -342.636623 
L 242.673526 -342.636623 
L 242.074609 -342.636623 
L 241.475692 -342.636623 
L 240.876775 -342.636623 
L 240.277857 -342.636623 
L 239.67894 -342.636623 
L 239.080023 -342.636623 
L 238.481106 -342.636623 
L 237.882189 -342.636623 
L 237.283272 -342.636623 
L 236.684355 -342.636623 
L 236.085438 -342.636623 
L 235.486521 -342.636623 
L 234.887604 -342.636623 
L 234.288686 -342.636623 
L 233.689769 -342.636623 
L 233.090852 -342.636623 
L 232.491935 -342.636623 
L 231.893018 -342.636623 
L 231.294101 -342.636623 
L 230.695184 -342.636623 
L 230.096267 -342.636623 
L 229.49735 -342.636623 
L 228.898433 -342.636623 
L 228.299515 -345.992405 
L 227.700598 -347.371688 
L 227.101681 -347.371688 
L 226.502764 -347.371688 
L 225.903847 -347.371688 
L 225.30493 -347.371688 
L 224.706013 -347.371688 
L 224.107096 -347.371688 
L 223.508179 -347.371688 
L 222.909262 -347.371688 
L 222.310344 -347.371688 
L 221.711427 -347.371688 
L 221.11251 -347.371688 
L 220.513593 -347.371688 
L 219.914676 -347.371688 
L 219.315759 -347.371688 
L 218.716842 -347.371688 
L 218.117925 -347.371688 
L 217.519008 -347.371688 
L 216.920091 -347.371688 
L 216.321173 -347.371688 
L 215.722256 -347.371688 
L 215.123339 -347.371688 
L 214.524422 -347.371688 
L 213.925505 -347.371688 
L 213.326588 -347.371688 
L 212.727671 -347.371688 
L 212.128754 -347.371688 
L 211.529837 -347.371688 
L 210.93092 -347.371688 
L 210.332002 -347.371688 
L 209.733085 -347.371688 
L 209.134168 -347.371688 
L 208.535251 -347.371688 
L 207.936334 -347.371688 
L 207.337417 -347.371688 
L 206.7385 -347.371688 
L 206.139583 -347.371688 
L 205.540666 -347.371688 
L 204.941749 -347.371688 
L 204.342831 -347.371688 
L 203.743914 -347.371688 
L 203.144997 -348.53768 
L 202.54608 -352.106753 
L 201.947163 -352.106753 
L 201.348246 -352.106753 
L 200.749329 -352.106753 
L 200.150412 -352.106753 
L 199.551495 -352.106753 
L 198.952578 -352.106753 
L 198.35366 -352.106753 
L 197.754743 -352.106753 
L 197.155826 -352.106753 
L 196.556909 -352.106753 
L 195.957992 -352.106753 
L 195.359075 -352.106753 
L 194.760158 -352.106753 
L 194.161241 -352.106753 
L 193.562324 -352.106753 
L 192.963407 -352.106753 
L 192.364489 -352.106753 
L 191.765572 -352.106753 
L 191.166655 -352.106753 
L 190.567738 -352.106753 
L 189.968821 -352.106753 
L 189.369904 -352.106753 
L 188.770987 -352.106753 
L 188.17207 -352.106753 
L 187.573153 -352.106753 
L 186.974236 -352.106753 
L 186.375319 -352.106753 
L 185.776401 -352.106753 
L 185.177484 -352.106753 
L 184.578567 -352.106753 
L 183.97965 -352.106753 
L 183.380733 -356.287261 
L 182.781816 -356.841818 
L 182.182899 -356.841818 
L 181.583982 -356.841818 
L 180.985065 -356.841818 
L 180.386148 -356.841818 
L 179.78723 -356.841818 
L 179.188313 -356.841818 
L 178.589396 -356.841818 
L 177.990479 -356.841818 
L 177.391562 -356.841818 
L 176.792645 -356.841818 
L 176.193728 -356.841818 
L 175.594811 -356.841818 
L 174.995894 -356.841818 
L 174.396977 -356.841818 
L 173.798059 -356.841818 
L 173.199142 -356.841818 
L 172.600225 -356.841818 
L 172.001308 -356.841818 
L 171.402391 -356.841818 
L 170.803474 -356.841818 
L 170.204557 -356.841818 
L 169.60564 -359.823155 
L 169.006723 -361.576883 
L 168.407806 -361.576883 
L 167.808888 -361.576883 
L 167.209971 -361.576883 
L 166.611054 -361.576883 
L 166.012137 -361.576883 
L 165.41322 -361.576883 
L 164.814303 -361.576883 
L 164.215386 -361.576883 
L 163.616469 -361.576883 
L 163.017552 -361.576883 
L 162.418635 -361.576883 
L 161.819717 -361.576883 
L 161.2208 -361.576883 
L 160.621883 -361.576883 
L 160.022966 -361.576883 
L 159.424049 -361.576883 
L 158.825132 -363.619739 
L 158.226215 -366.311948 
L 157.627298 -366.311948 
L 157.028381 -366.311948 
L 156.429464 -366.311948 
L 155.830546 -366.311948 
L 155.231629 -366.311948 
L 154.632712 -366.311948 
L 154.033795 -366.311948 
L 153.434878 -366.311948 
L 152.835961 -366.311948 
L 152.237044 -366.311948 
L 151.638127 -366.311948 
L 151.03921 -366.311948 
L 150.440293 -366.311948 
L 149.841375 -366.311948 
L 149.242458 -366.311948 
L 148.643541 -367.46846 
L 148.044624 -371.047013 
L 147.445707 -371.047013 
L 146.84679 -371.047013 
L 146.247873 -371.047013 
L 145.648956 -371.047013 
L 145.050039 -371.047013 
L 144.451122 -371.047013 
L 143.852204 -371.047013 
L 143.253287 -371.047013 
L 142.65437 -371.682147 
L 142.055453 -375.782078 
L 141.456536 -375.782078 
L 140.857619 -375.782078 
L 140.258702 -375.782078 
L 139.659785 -375.782078 
L 139.060868 -376.104385 
L 138.461951 -380.517143 
L 137.863033 -380.517143 
L 137.264116 -380.517143 
L 136.665199 -380.517143 
L 136.066282 -380.517143 
L 135.467365 -380.517143 
L 134.868448 -380.517143 
L 134.269531 -380.517143 
L 133.670614 -385.105274 
L 133.071697 -385.252208 
L 132.47278 -385.252208 
L 131.873862 -385.252208 
L 131.274945 -385.252208 
L 130.676028 -385.252208 
L 130.077111 -385.252208 
L 129.478194 -385.252208 
L 128.879277 -385.252208 
L 128.28036 -385.252208 
L 127.681443 -385.252208 
L 127.082526 -389.266822 
L 126.483609 -389.987273 
L 125.884692 -389.987273 
L 125.285774 -389.987273 
L 124.686857 -389.987273 
L 124.08794 -389.987273 
L 123.489023 -389.987273 
L 122.890106 -389.987273 
L 122.291189 -389.987273 
L 121.692272 -389.987273 
L 121.093355 -389.987273 
L 120.494438 -389.987273 
L 119.895521 -389.987273 
L 119.296603 -389.987273 
L 118.697686 -389.987273 
L 118.098769 -389.987273 
L 117.499852 -389.987273 
L 116.900935 -389.987273 
L 116.302018 -386.911139 
L 115.703101 -385.252208 
L 115.104184 -385.252208 
L 114.505267 -385.252208 
L 113.90635 -385.252208 
L 113.307432 -385.252208 
L 112.708515 -385.252208 
L 112.109598 -385.252208 
L 111.510681 -385.252208 
L 110.911764 -385.252208 
L 110.312847 -385.252208 
L 109.71393 -385.252208 
L 109.115013 -385.252208 
L 108.516096 -382.853867 
L 107.917179 -380.517143 
L 107.318261 -380.517143 
L 106.719344 -380.517143 
L 106.120427 -380.517143 
L 105.52151 -380.517143 
L 104.922593 -378.431629 
L 104.323676 -375.782078 
L 103.724759 -375.782078 
L 103.125842 -373.852977 
L 102.526925 -371.047013 
L 101.928008 -371.047013 
L 101.32909 -369.274326 
L 100.730173 -366.311948 
L 100.131256 -364.643537 
L 99.532339 -361.576883 
L 98.933422 -360.012748 
L 98.334505 -355.32982 
L 97.735588 -352.106753 
L 97.136671 -350.699031 
L 96.537754 -346.016104 
L 95.938837 -342.636623 
L 95.339919 -341.385315 
L 94.741002 -336.702388 
L 94.142085 -332.019461 
L 93.543168 -327.336534 
L 92.944251 -322.653607 
L 92.345334 -317.97068 
L 91.746417 -313.287752 
L 91.1475 -308.604825 
L 90.548583 -303.087693 
L 89.949666 -294.503906 
L 89.350748 -289.091049 
L 88.751831 -279.725195 
L 88.152914 -270.359341 
L 87.553997 -260.993487 
L 86.95508 -251.627633 
L 86.356163 -242.261778 
L 85.757246 -232.478821 
L 85.158329 -218.795005 
L 84.559412 -209.116324 
L 83.960495 -194.806853 
L 83.361577 -176.283696 
L 82.76266 -162.078502 
L 82.163743 -143.242518 
L 81.564826 -119.827882 
L 80.965909 -96.413247 
z
" style="stroke: #0000ff; stroke-opacity: 0.3"/>
    </defs>
    <g clip-path="url(#pd1d9faf5aa)">
     <use xlink:href="#m7c5ea6b28e" x="0" y="432" style="fill: #0000ff; fill-opacity: 0.3; stroke: #0000ff; stroke-opacity: 0.3"/>
    </g>
   </g>
   <g id="matplotlib.axis_1">
    <g id="xtick_1">
     <g id="line2d_1">
      <defs>
       <path id="m541d1757b9" d="M 0 0 
L 0 3.5 
" style="stroke: #000000; stroke-width: 0.8"/>
      </defs>
      <g>
       <use xlink:href="#m541d1757b9" x="74.304472" y="390.04" style="stroke: #000000; stroke-width: 0.8"/>
      </g>
     </g>
     <g id="text_1">
      <!-- 0 -->
      <g transform="translate(71.123222 404.638438) scale(0.1 -0.1)">
       <defs>
        <path id="DejaVuSans-30" d="M 2034 4250 
Q 1547 4250 1301 3770 
Q 1056 3291 1056 2328 
Q 1056 1369 1301 889 
Q 1547 409 2034 409 
Q 2525 409 2770 889 
Q 3016 1369 3016 2328 
Q 3016 3291 2770 3770 
Q 2525 4250 2034 4250 
z
M 2034 4750 
Q 2819 4750 3233 4129 
Q 3647 3509 3647 2328 
Q 3647 1150 3233 529 
Q 2819 -91 2034 -91 
Q 1250 -91 836 529 
Q 422 1150 422 2328 
Q 422 3509 836 4129 
Q 1250 4750 2034 4750 
z
" transform="scale(0.015625)"/>
       </defs>
       <use xlink:href="#DejaVuSans-30"/>
      </g>
     </g>
    </g>
    <g id="xtick_2">
     <g id="line2d_2">
      <g>
       <use xlink:href="#m541d1757b9" x="195.421513" y="390.04" style="stroke: #000000; stroke-width: 0.8"/>
      </g>
     </g>
     <g id="text_2">
      <!-- 20000 -->
      <g transform="translate(179.515263 404.638438) scale(0.1 -0.1)">
       <defs>
        <path id="DejaVuSans-32" d="M 1228 531 
L 3431 531 
L 3431 0 
L 469 0 
L 469 531 
Q 828 903 1448 1529 
Q 2069 2156 2228 2338 
Q 2531 2678 2651 2914 
Q 2772 3150 2772 3378 
Q 2772 3750 2511 3984 
Q 2250 4219 1831 4219 
Q 1534 4219 1204 4116 
Q 875 4013 500 3803 
L 500 4441 
Q 881 4594 1212 4672 
Q 1544 4750 1819 4750 
Q 2544 4750 2975 4387 
Q 3406 4025 3406 3419 
Q 3406 3131 3298 2873 
Q 3191 2616 2906 2266 
Q 2828 2175 2409 1742 
Q 1991 1309 1228 531 
z
" transform="scale(0.015625)"/>
       </defs>
       <use xlink:href="#DejaVuSans-32"/>
       <use xlink:href="#DejaVuSans-30" transform="translate(63.623047 0)"/>
       <use xlink:href="#DejaVuSans-30" transform="translate(127.246094 0)"/>
       <use xlink:href="#DejaVuSans-30" transform="translate(190.869141 0)"/>
       <use xlink:href="#DejaVuSans-30" transform="translate(254.492188 0)"/>
      </g>
     </g>
    </g>
    <g id="xtick_3">
     <g id="line2d_3">
      <g>
       <use xlink:href="#m541d1757b9" x="316.538554" y="390.04" style="stroke: #000000; stroke-width: 0.8"/>
      </g>
     </g>
     <g id="text_3">
      <!-- 40000 -->
      <g transform="translate(300.632304 404.638438) scale(0.1 -0.1)">
       <defs>
        <path id="DejaVuSans-34" d="M 2419 4116 
L 825 1625 
L 2419 1625 
L 2419 4116 
z
M 2253 4666 
L 3047 4666 
L 3047 1625 
L 3713 1625 
L 3713 1100 
L 3047 1100 
L 3047 0 
L 2419 0 
L 2419 1100 
L 313 1100 
L 313 1709 
L 2253 4666 
z
" transform="scale(0.015625)"/>
       </defs>
       <use xlink:href="#DejaVuSans-34"/>
       <use xlink:href="#DejaVuSans-30" transform="translate(63.623047 0)"/>
       <use xlink:href="#DejaVuSans-30" transform="translate(127.246094 0)"/>
       <use xlink:href="#DejaVuSans-30" transform="translate(190.869141 0)"/>
       <use xlink:href="#DejaVuSans-30" transform="translate(254.492188 0)"/>
      </g>
     </g>
    </g>
    <g id="xtick_4">
     <g id="line2d_4">
      <g>
       <use xlink:href="#m541d1757b9" x="437.655594" y="390.04" style="stroke: #000000; stroke-width: 0.8"/>
      </g>
     </g>
     <g id="text_4">
      <!-- 60000 -->
      <g transform="translate(421.749344 404.638438) scale(0.1 -0.1)">
       <defs>
        <path id="DejaVuSans-36" d="M 2113 2584 
Q 1688 2584 1439 2293 
Q 1191 2003 1191 1497 
Q 1191 994 1439 701 
Q 1688 409 2113 409 
Q 2538 409 2786 701 
Q 3034 994 3034 1497 
Q 3034 2003 2786 2293 
Q 2538 2584 2113 2584 
z
M 3366 4563 
L 3366 3988 
Q 3128 4100 2886 4159 
Q 2644 4219 2406 4219 
Q 1781 4219 1451 3797 
Q 1122 3375 1075 2522 
Q 1259 2794 1537 2939 
Q 1816 3084 2150 3084 
Q 2853 3084 3261 2657 
Q 3669 2231 3669 1497 
Q 3669 778 3244 343 
Q 2819 -91 2113 -91 
Q 1303 -91 875 529 
Q 447 1150 447 2328 
Q 447 3434 972 4092 
Q 1497 4750 2381 4750 
Q 2619 4750 2861 4703 
Q 3103 4656 3366 4563 
z
" transform="scale(0.015625)"/>
       </defs>
       <use xlink:href="#DejaVuSans-36"/>
       <use xlink:href="#DejaVuSans-30" transform="translate(63.623047 0)"/>
       <use xlink:href="#DejaVuSans-30" transform="translate(127.246094 0)"/>
       <use xlink:href="#DejaVuSans-30" transform="translate(190.869141 0)"/>
       <use xlink:href="#DejaVuSans-30" transform="translate(254.492188 0)"/>
      </g>
     </g>
    </g>
    <g id="xtick_5">
     <g id="line2d_5">
      <g>
       <use xlink:href="#m541d1757b9" x="558.772635" y="390.04" style="stroke: #000000; stroke-width: 0.8"/>
      </g>
     </g>
     <g id="text_5">
      <!-- 80000 -->
      <g transform="translate(542.866385 404.638438) scale(0.1 -0.1)">
       <defs>
        <path id="DejaVuSans-38" d="M 2034 2216 
Q 1584 2216 1326 1975 
Q 1069 1734 1069 1313 
Q 1069 891 1326 650 
Q 1584 409 2034 409 
Q 2484 409 2743 651 
Q 3003 894 3003 1313 
Q 3003 1734 2745 1975 
Q 2488 2216 2034 2216 
z
M 1403 2484 
Q 997 2584 770 2862 
Q 544 3141 544 3541 
Q 544 4100 942 4425 
Q 1341 4750 2034 4750 
Q 2731 4750 3128 4425 
Q 3525 4100 3525 3541 
Q 3525 3141 3298 2862 
Q 3072 2584 2669 2484 
Q 3125 2378 3379 2068 
Q 3634 1759 3634 1313 
Q 3634 634 3220 271 
Q 2806 -91 2034 -91 
Q 1263 -91 848 271 
Q 434 634 434 1313 
Q 434 1759 690 2068 
Q 947 2378 1403 2484 
z
M 1172 3481 
Q 1172 3119 1398 2916 
Q 1625 2713 2034 2713 
Q 2441 2713 2670 2916 
Q 2900 3119 2900 3481 
Q 2900 3844 2670 4047 
Q 2441 4250 2034 4250 
Q 1625 4250 1398 4047 
Q 1172 3844 1172 3481 
z
" transform="scale(0.015625)"/>
       </defs>
       <use xlink:href="#DejaVuSans-38"/>
       <use xlink:href="#DejaVuSans-30" transform="translate(63.623047 0)"/>
       <use xlink:href="#DejaVuSans-30" transform="translate(127.246094 0)"/>
       <use xlink:href="#DejaVuSans-30" transform="translate(190.869141 0)"/>
       <use xlink:href="#DejaVuSans-30" transform="translate(254.492188 0)"/>
      </g>
     </g>
    </g>
    <g id="xtick_6">
     <g id="line2d_6">
      <g>
       <use xlink:href="#m541d1757b9" x="679.889676" y="390.04" style="stroke: #000000; stroke-width: 0.8"/>
      </g>
     </g>
     <g id="text_6">
      <!-- 100000 -->
      <g transform="translate(660.802176 404.638438) scale(0.1 -0.1)">
       <defs>
        <path id="DejaVuSans-31" d="M 794 531 
L 1825 531 
L 1825 4091 
L 703 3866 
L 703 4441 
L 1819 4666 
L 2450 4666 
L 2450 531 
L 3481 531 
L 3481 0 
L 794 0 
L 794 531 
z
" transform="scale(0.015625)"/>
       </defs>
       <use xlink:href="#DejaVuSans-31"/>
       <use xlink:href="#DejaVuSans-30" transform="translate(63.623047 0)"/>
       <use xlink:href="#DejaVuSans-30" transform="translate(127.246094 0)"/>
       <use xlink:href="#DejaVuSans-30" transform="translate(190.869141 0)"/>
       <use xlink:href="#DejaVuSans-30" transform="translate(254.492188 0)"/>
       <use xlink:href="#DejaVuSans-30" transform="translate(318.115234 0)"/>
      </g>
     </g>
    </g>
    <g id="text_7">
     <!-- Step -->
     <g transform="translate(368.739844 418.316562) scale(0.1 -0.1)">
      <defs>
       <path id="DejaVuSans-53" d="M 3425 4513 
L 3425 3897 
Q 3066 4069 2747 4153 
Q 2428 4238 2131 4238 
Q 1616 4238 1336 4038 
Q 1056 3838 1056 3469 
Q 1056 3159 1242 3001 
Q 1428 2844 1947 2747 
L 2328 2669 
Q 3034 2534 3370 2195 
Q 3706 1856 3706 1288 
Q 3706 609 3251 259 
Q 2797 -91 1919 -91 
Q 1588 -91 1214 -16 
Q 841 59 441 206 
L 441 856 
Q 825 641 1194 531 
Q 1563 422 1919 422 
Q 2459 422 2753 634 
Q 3047 847 3047 1241 
Q 3047 1584 2836 1778 
Q 2625 1972 2144 2069 
L 1759 2144 
Q 1053 2284 737 2584 
Q 422 2884 422 3419 
Q 422 4038 858 4394 
Q 1294 4750 2059 4750 
Q 2388 4750 2728 4690 
Q 3069 4631 3425 4513 
z
" transform="scale(0.015625)"/>
       <path id="DejaVuSans-74" d="M 1172 4494 
L 1172 3500 
L 2356 3500 
L 2356 3053 
L 1172 3053 
L 1172 1153 
Q 1172 725 1289 603 
Q 1406 481 1766 481 
L 2356 481 
L 2356 0 
L 1766 0 
Q 1100 0 847 248 
Q 594 497 594 1153 
L 594 3053 
L 172 3053 
L 172 3500 
L 594 3500 
L 594 4494 
L 1172 4494 
z
" transform="scale(0.015625)"/>
       <path id="DejaVuSans-65" d="M 3597 1894 
L 3597 1613 
L 953 1613 
Q 991 1019 1311 708 
Q 1631 397 2203 397 
Q 2534 397 2845 478 
Q 3156 559 3463 722 
L 3463 178 
Q 3153 47 2828 -22 
Q 2503 -91 2169 -91 
Q 1331 -91 842 396 
Q 353 884 353 1716 
Q 353 2575 817 3079 
Q 1281 3584 2069 3584 
Q 2775 3584 3186 3129 
Q 3597 2675 3597 1894 
z
M 3022 2063 
Q 3016 2534 2758 2815 
Q 2500 3097 2075 3097 
Q 1594 3097 1305 2825 
Q 1016 2553 972 2059 
L 3022 2063 
z
" transform="scale(0.015625)"/>
       <path id="DejaVuSans-70" d="M 1159 525 
L 1159 -1331 
L 581 -1331 
L 581 3500 
L 1159 3500 
L 1159 2969 
Q 1341 3281 1617 3432 
Q 1894 3584 2278 3584 
Q 2916 3584 3314 3078 
Q 3713 2572 3713 1747 
Q 3713 922 3314 415 
Q 2916 -91 2278 -91 
Q 1894 -91 1617 61 
Q 1341 213 1159 525 
z
M 3116 1747 
Q 3116 2381 2855 2742 
Q 2594 3103 2138 3103 
Q 1681 3103 1420 2742 
Q 1159 2381 1159 1747 
Q 1159 1113 1420 752 
Q 1681 391 2138 391 
Q 2594 391 2855 752 
Q 3116 1113 3116 1747 
z
" transform="scale(0.015625)"/>
      </defs>
      <use xlink:href="#DejaVuSans-53"/>
      <use xlink:href="#DejaVuSans-74" transform="translate(63.476562 0)"/>
      <use xlink:href="#DejaVuSans-65" transform="translate(102.685547 0)"/>
      <use xlink:href="#DejaVuSans-70" transform="translate(164.208984 0)"/>
     </g>
    </g>
   </g>
   <g id="matplotlib.axis_2">
    <g id="ytick_1">
     <g id="line2d_7">
      <defs>
       <path id="m2fb69df62c" d="M 0 0 
L -3.5 0 
" style="stroke: #000000; stroke-width: 0.8"/>
      </defs>
      <g>
       <use xlink:href="#m2fb69df62c" x="51.05" y="368.732208" style="stroke: #000000; stroke-width: 0.8"/>
      </g>
     </g>
     <g id="text_8">
      <!-- 110 -->
      <g transform="translate(24.9625 372.531427) scale(0.1 -0.1)">
       <use xlink:href="#DejaVuSans-31"/>
       <use xlink:href="#DejaVuSans-31" transform="translate(63.623047 0)"/>
       <use xlink:href="#DejaVuSans-30" transform="translate(127.246094 0)"/>
      </g>
     </g>
    </g>
    <g id="ytick_2">
     <g id="line2d_8">
      <g>
       <use xlink:href="#m2fb69df62c" x="51.05" y="321.381558" style="stroke: #000000; stroke-width: 0.8"/>
      </g>
     </g>
     <g id="text_9">
      <!-- 120 -->
      <g transform="translate(24.9625 325.180777) scale(0.1 -0.1)">
       <use xlink:href="#DejaVuSans-31"/>
       <use xlink:href="#DejaVuSans-32" transform="translate(63.623047 0)"/>
       <use xlink:href="#DejaVuSans-30" transform="translate(127.246094 0)"/>
      </g>
     </g>
    </g>
    <g id="ytick_3">
     <g id="line2d_9">
      <g>
       <use xlink:href="#m2fb69df62c" x="51.05" y="274.030909" style="stroke: #000000; stroke-width: 0.8"/>
      </g>
     </g>
     <g id="text_10">
      <!-- 130 -->
      <g transform="translate(24.9625 277.830128) scale(0.1 -0.1)">
       <defs>
        <path id="DejaVuSans-33" d="M 2597 2516 
Q 3050 2419 3304 2112 
Q 3559 1806 3559 1356 
Q 3559 666 3084 287 
Q 2609 -91 1734 -91 
Q 1441 -91 1130 -33 
Q 819 25 488 141 
L 488 750 
Q 750 597 1062 519 
Q 1375 441 1716 441 
Q 2309 441 2620 675 
Q 2931 909 2931 1356 
Q 2931 1769 2642 2001 
Q 2353 2234 1838 2234 
L 1294 2234 
L 1294 2753 
L 1863 2753 
Q 2328 2753 2575 2939 
Q 2822 3125 2822 3475 
Q 2822 3834 2567 4026 
Q 2313 4219 1838 4219 
Q 1578 4219 1281 4162 
Q 984 4106 628 3988 
L 628 4550 
Q 988 4650 1302 4700 
Q 1616 4750 1894 4750 
Q 2613 4750 3031 4423 
Q 3450 4097 3450 3541 
Q 3450 3153 3228 2886 
Q 3006 2619 2597 2516 
z
" transform="scale(0.015625)"/>
       </defs>
       <use xlink:href="#DejaVuSans-31"/>
       <use xlink:href="#DejaVuSans-33" transform="translate(63.623047 0)"/>
       <use xlink:href="#DejaVuSans-30" transform="translate(127.246094 0)"/>
      </g>
     </g>
    </g>
    <g id="ytick_4">
     <g id="line2d_10">
      <g>
       <use xlink:href="#m2fb69df62c" x="51.05" y="226.68026" style="stroke: #000000; stroke-width: 0.8"/>
      </g>
     </g>
     <g id="text_11">
      <!-- 140 -->
      <g transform="translate(24.9625 230.479478) scale(0.1 -0.1)">
       <use xlink:href="#DejaVuSans-31"/>
       <use xlink:href="#DejaVuSans-34" transform="translate(63.623047 0)"/>
       <use xlink:href="#DejaVuSans-30" transform="translate(127.246094 0)"/>
      </g>
     </g>
    </g>
    <g id="ytick_5">
     <g id="line2d_11">
      <g>
       <use xlink:href="#m2fb69df62c" x="51.05" y="179.32961" style="stroke: #000000; stroke-width: 0.8"/>
      </g>
     </g>
     <g id="text_12">
      <!-- 150 -->
      <g transform="translate(24.9625 183.128829) scale(0.1 -0.1)">
       <defs>
        <path id="DejaVuSans-35" d="M 691 4666 
L 3169 4666 
L 3169 4134 
L 1269 4134 
L 1269 2991 
Q 1406 3038 1543 3061 
Q 1681 3084 1819 3084 
Q 2600 3084 3056 2656 
Q 3513 2228 3513 1497 
Q 3513 744 3044 326 
Q 2575 -91 1722 -91 
Q 1428 -91 1123 -41 
Q 819 9 494 109 
L 494 744 
Q 775 591 1075 516 
Q 1375 441 1709 441 
Q 2250 441 2565 725 
Q 2881 1009 2881 1497 
Q 2881 1984 2565 2268 
Q 2250 2553 1709 2553 
Q 1456 2553 1204 2497 
Q 953 2441 691 2322 
L 691 4666 
z
" transform="scale(0.015625)"/>
       </defs>
       <use xlink:href="#DejaVuSans-31"/>
       <use xlink:href="#DejaVuSans-35" transform="translate(63.623047 0)"/>
       <use xlink:href="#DejaVuSans-30" transform="translate(127.246094 0)"/>
      </g>
     </g>
    </g>
    <g id="ytick_6">
     <g id="line2d_12">
      <g>
       <use xlink:href="#m2fb69df62c" x="51.05" y="131.978961" style="stroke: #000000; stroke-width: 0.8"/>
      </g>
     </g>
     <g id="text_13">
      <!-- 160 -->
      <g transform="translate(24.9625 135.77818) scale(0.1 -0.1)">
       <use xlink:href="#DejaVuSans-31"/>
       <use xlink:href="#DejaVuSans-36" transform="translate(63.623047 0)"/>
       <use xlink:href="#DejaVuSans-30" transform="translate(127.246094 0)"/>
      </g>
     </g>
    </g>
    <g id="ytick_7">
     <g id="line2d_13">
      <g>
       <use xlink:href="#m2fb69df62c" x="51.05" y="84.628312" style="stroke: #000000; stroke-width: 0.8"/>
      </g>
     </g>
     <g id="text_14">
      <!-- 170 -->
      <g transform="translate(24.9625 88.42753) scale(0.1 -0.1)">
       <defs>
        <path id="DejaVuSans-37" d="M 525 4666 
L 3525 4666 
L 3525 4397 
L 1831 0 
L 1172 0 
L 2766 4134 
L 525 4134 
L 525 4666 
z
" transform="scale(0.015625)"/>
       </defs>
       <use xlink:href="#DejaVuSans-31"/>
       <use xlink:href="#DejaVuSans-37" transform="translate(63.623047 0)"/>
       <use xlink:href="#DejaVuSans-30" transform="translate(127.246094 0)"/>
      </g>
     </g>
    </g>
    <g id="ytick_8">
     <g id="line2d_14">
      <g>
       <use xlink:href="#m2fb69df62c" x="51.05" y="37.277662" style="stroke: #000000; stroke-width: 0.8"/>
      </g>
     </g>
     <g id="text_15">
      <!-- 180 -->
      <g transform="translate(24.9625 41.076881) scale(0.1 -0.1)">
       <use xlink:href="#DejaVuSans-31"/>
       <use xlink:href="#DejaVuSans-38" transform="translate(63.623047 0)"/>
       <use xlink:href="#DejaVuSans-30" transform="translate(127.246094 0)"/>
      </g>
     </g>
    </g>
    <g id="text_16">
     <!-- charts/SPS -->
     <g transform="translate(18.882812 234.39) rotate(-90) scale(0.1 -0.1)">
      <defs>
       <path id="DejaVuSans-63" d="M 3122 3366 
L 3122 2828 
Q 2878 2963 2633 3030 
Q 2388 3097 2138 3097 
Q 1578 3097 1268 2742 
Q 959 2388 959 1747 
Q 959 1106 1268 751 
Q 1578 397 2138 397 
Q 2388 397 2633 464 
Q 2878 531 3122 666 
L 3122 134 
Q 2881 22 2623 -34 
Q 2366 -91 2075 -91 
Q 1284 -91 818 406 
Q 353 903 353 1747 
Q 353 2603 823 3093 
Q 1294 3584 2113 3584 
Q 2378 3584 2631 3529 
Q 2884 3475 3122 3366 
z
" transform="scale(0.015625)"/>
       <path id="DejaVuSans-68" d="M 3513 2113 
L 3513 0 
L 2938 0 
L 2938 2094 
Q 2938 2591 2744 2837 
Q 2550 3084 2163 3084 
Q 1697 3084 1428 2787 
Q 1159 2491 1159 1978 
L 1159 0 
L 581 0 
L 581 4863 
L 1159 4863 
L 1159 2956 
Q 1366 3272 1645 3428 
Q 1925 3584 2291 3584 
Q 2894 3584 3203 3211 
Q 3513 2838 3513 2113 
z
" transform="scale(0.015625)"/>
       <path id="DejaVuSans-61" d="M 2194 1759 
Q 1497 1759 1228 1600 
Q 959 1441 959 1056 
Q 959 750 1161 570 
Q 1363 391 1709 391 
Q 2188 391 2477 730 
Q 2766 1069 2766 1631 
L 2766 1759 
L 2194 1759 
z
M 3341 1997 
L 3341 0 
L 2766 0 
L 2766 531 
Q 2569 213 2275 61 
Q 1981 -91 1556 -91 
Q 1019 -91 701 211 
Q 384 513 384 1019 
Q 384 1609 779 1909 
Q 1175 2209 1959 2209 
L 2766 2209 
L 2766 2266 
Q 2766 2663 2505 2880 
Q 2244 3097 1772 3097 
Q 1472 3097 1187 3025 
Q 903 2953 641 2809 
L 641 3341 
Q 956 3463 1253 3523 
Q 1550 3584 1831 3584 
Q 2591 3584 2966 3190 
Q 3341 2797 3341 1997 
z
" transform="scale(0.015625)"/>
       <path id="DejaVuSans-72" d="M 2631 2963 
Q 2534 3019 2420 3045 
Q 2306 3072 2169 3072 
Q 1681 3072 1420 2755 
Q 1159 2438 1159 1844 
L 1159 0 
L 581 0 
L 581 3500 
L 1159 3500 
L 1159 2956 
Q 1341 3275 1631 3429 
Q 1922 3584 2338 3584 
Q 2397 3584 2469 3576 
Q 2541 3569 2628 3553 
L 2631 2963 
z
" transform="scale(0.015625)"/>
       <path id="DejaVuSans-73" d="M 2834 3397 
L 2834 2853 
Q 2591 2978 2328 3040 
Q 2066 3103 1784 3103 
Q 1356 3103 1142 2972 
Q 928 2841 928 2578 
Q 928 2378 1081 2264 
Q 1234 2150 1697 2047 
L 1894 2003 
Q 2506 1872 2764 1633 
Q 3022 1394 3022 966 
Q 3022 478 2636 193 
Q 2250 -91 1575 -91 
Q 1294 -91 989 -36 
Q 684 19 347 128 
L 347 722 
Q 666 556 975 473 
Q 1284 391 1588 391 
Q 1994 391 2212 530 
Q 2431 669 2431 922 
Q 2431 1156 2273 1281 
Q 2116 1406 1581 1522 
L 1381 1569 
Q 847 1681 609 1914 
Q 372 2147 372 2553 
Q 372 3047 722 3315 
Q 1072 3584 1716 3584 
Q 2034 3584 2315 3537 
Q 2597 3491 2834 3397 
z
" transform="scale(0.015625)"/>
       <path id="DejaVuSans-2f" d="M 1625 4666 
L 2156 4666 
L 531 -594 
L 0 -594 
L 1625 4666 
z
" transform="scale(0.015625)"/>
       <path id="DejaVuSans-50" d="M 1259 4147 
L 1259 2394 
L 2053 2394 
Q 2494 2394 2734 2622 
Q 2975 2850 2975 3272 
Q 2975 3691 2734 3919 
Q 2494 4147 2053 4147 
L 1259 4147 
z
M 628 4666 
L 2053 4666 
Q 2838 4666 3239 4311 
Q 3641 3956 3641 3272 
Q 3641 2581 3239 2228 
Q 2838 1875 2053 1875 
L 1259 1875 
L 1259 0 
L 628 0 
L 628 4666 
z
" transform="scale(0.015625)"/>
      </defs>
      <use xlink:href="#DejaVuSans-63"/>
      <use xlink:href="#DejaVuSans-68" transform="translate(54.980469 0)"/>
      <use xlink:href="#DejaVuSans-61" transform="translate(118.359375 0)"/>
      <use xlink:href="#DejaVuSans-72" transform="translate(179.638672 0)"/>
      <use xlink:href="#DejaVuSans-74" transform="translate(220.751953 0)"/>
      <use xlink:href="#DejaVuSans-73" transform="translate(259.960938 0)"/>
      <use xlink:href="#DejaVuSans-2f" transform="translate(312.060547 0)"/>
      <use xlink:href="#DejaVuSans-53" transform="translate(345.751953 0)"/>
      <use xlink:href="#DejaVuSans-50" transform="translate(409.228516 0)"/>
      <use xlink:href="#DejaVuSans-53" transform="translate(469.53125 0)"/>
     </g>
    </g>
   </g>
   <g id="line2d_15">
    <path d="M 80.965909 357.338458 
L 82.76266 295.835936 
L 83.960495 264.643726 
L 85.158329 238.56532 
L 86.356163 216.638243 
L 88.152914 189.637797 
L 90.548583 161.344718 
L 91.746417 150.199363 
L 93.543168 137.387226 
L 95.339919 125.705978 
L 98.334505 110.728343 
L 100.730173 100.95842 
L 101.928008 97.093258 
L 103.724759 92.732045 
L 104.323676 91.583827 
L 106.120427 87.554401 
L 106.719344 86.832173 
L 108.516096 83.748189 
L 109.115013 83.077211 
L 109.71393 82.930869 
L 110.911764 82.40875 
L 111.510681 82.278998 
L 112.708515 81.39769 
L 113.90635 80.2788 
L 114.505267 80.075729 
L 115.703101 79.502805 
L 116.302018 79.389939 
L 116.900935 79.005422 
L 118.697686 79.210715 
L 119.296603 79.005422 
L 122.291189 79.040971 
L 122.890106 79.119474 
L 124.08794 78.974761 
L 124.686857 78.944545 
L 126.483609 80.065361 
L 127.082526 80.279245 
L 128.28036 81.411465 
L 130.077111 82.318249 
L 130.676028 82.890877 
L 131.274945 83.307684 
L 131.873862 83.444545 
L 132.47278 83.460246 
L 133.071697 83.796476 
L 133.670614 85.095182 
L 135.467365 87.14263 
L 136.066282 87.143815 
L 136.665199 87.432647 
L 137.264116 88.296476 
L 137.863033 88.751053 
L 138.461951 89.05055 
L 139.659785 89.920156 
L 140.258702 91.03238 
L 142.055453 91.842443 
L 143.852204 93.118191 
L 144.451122 93.210617 
L 145.050039 93.818645 
L 146.247873 94.483106 
L 146.84679 95.125942 
L 147.445707 95.972738 
L 148.643541 96.689634 
L 150.440293 96.909886 
L 151.03921 97.120511 
L 152.237044 97.307882 
L 155.830546 99.406282 
L 156.429464 100.026604 
L 157.627298 100.575385 
L 161.819717 101.868907 
L 164.215386 102.967653 
L 165.41322 103.471257 
L 166.611054 103.990414 
L 167.808888 104.487501 
L 170.803474 105.987649 
L 172.600225 106.380016 
L 173.199142 106.425044 
L 173.798059 106.658184 
L 174.396977 107.013669 
L 176.193728 107.563782 
L 177.391562 107.631028 
L 177.990479 107.859724 
L 179.188313 107.888459 
L 180.386148 108.155666 
L 180.985065 108.179513 
L 181.583982 108.392508 
L 182.182899 108.936697 
L 182.781816 109.191461 
L 183.380733 109.208791 
L 183.97965 109.370833 
L 185.177484 109.943757 
L 185.776401 110.100911 
L 186.375319 110.375227 
L 186.974236 110.382781 
L 187.573153 110.523198 
L 188.17207 110.527493 
L 189.968821 110.966518 
L 190.567738 110.96711 
L 192.364489 111.403913 
L 192.963407 111.689486 
L 193.562324 111.706964 
L 194.161241 111.842937 
L 195.359075 112.283591 
L 196.556909 112.298847 
L 197.155826 112.554501 
L 198.952578 112.74276 
L 199.551495 113.106688 
L 200.150412 113.306352 
L 201.348246 113.451064 
L 202.54608 114.300822 
L 203.144997 114.593505 
L 207.936334 115.208791 
L 208.535251 115.452003 
L 209.733085 115.554205 
L 210.93092 115.644557 
L 212.128754 115.789269 
L 213.925505 116.146088 
L 214.524422 116.146088 
L 216.920091 116.664059 
L 218.117925 116.885942 
L 219.315759 116.953484 
L 221.11251 117.244537 
L 223.508179 117.773766 
L 225.903847 117.873006 
L 226.502764 118.069708 
L 229.49735 118.405493 
L 230.695184 118.51362 
L 231.294101 118.548576 
L 232.491935 118.809562 
L 234.887604 118.834742 
L 236.085438 119.149346 
L 236.684355 119.401445 
L 237.882189 119.418478 
L 239.080023 119.697386 
L 240.876775 119.706273 
L 241.475692 119.845357 
L 246.865945 119.845357 
L 248.06378 120.130634 
L 248.662697 120.141299 
L 249.860531 120.850048 
L 251.058365 120.733182 
L 252.256199 121.007054 
L 252.855116 120.904852 
L 253.454034 121.126437 
L 256.448619 121.473036 
L 257.047536 121.698769 
L 257.646453 121.65774 
L 259.443205 121.768977 
L 260.641039 121.872068 
L 261.838873 122.064919 
L 266.63021 122.151717 
L 268.426961 122.508831 
L 269.624795 122.587482 
L 270.822629 122.656802 
L 272.020464 122.728936 
L 273.817215 122.952744 
L 275.015049 122.86876 
L 276.212883 122.952744 
L 279.207469 123.057908 
L 279.806386 123.248685 
L 282.800971 123.396656 
L 287.592308 123.426428 
L 288.191225 123.544627 
L 290.586894 123.566252 
L 291.784728 123.840568 
L 292.383645 123.874043 
L 292.982562 124.13651 
L 294.180396 124.148359 
L 295.378231 124.432451 
L 301.966319 124.432451 
L 302.565236 124.569461 
L 306.158738 124.728393 
L 307.356572 124.876364 
L 310.950075 124.876364 
L 312.147909 125.024334 
L 312.746826 124.915023 
L 315.741412 125.172305 
L 322.3295 125.255548 
L 325.324085 125.468247 
L 326.52192 125.468247 
L 327.719754 125.764188 
L 331.313256 125.822992 
L 332.511091 125.912159 
L 337.302427 125.954669 
L 339.698096 126.504042 
L 344.489433 126.527001 
L 345.08835 126.652013 
L 346.286184 126.688154 
L 346.885101 126.947955 
L 347.484018 126.962766 
L 348.082935 127.095925 
L 349.280769 127.105849 
L 349.879687 127.235601 
L 351.077521 126.952991 
L 352.275355 127.243896 
L 355.26994 127.243896 
L 355.868857 127.383868 
L 357.665609 127.391867 
L 358.264526 127.258412 
L 359.46236 127.243896 
L 360.660194 127.391867 
L 361.259111 127.266558 
L 362.456946 127.391867 
L 363.055863 127.391867 
L 364.253697 127.539838 
L 365.451531 127.539838 
L 366.649365 127.391867 
L 376.830956 127.474813 
L 377.429873 127.702472 
L 378.627707 127.617896 
L 379.226624 127.764238 
L 386.41363 127.835779 
L 393.001718 127.874734 
L 393.600635 127.98375 
L 395.397386 127.868217 
L 395.996303 127.98375 
L 400.78764 128.001524 
L 401.386557 128.115576 
L 401.985474 127.98375 
L 402.584391 127.996636 
L 403.183308 128.131721 
L 411.568148 128.131721 
L 412.167065 127.996933 
L 412.765982 128.116909 
L 413.963816 127.98375 
L 414.562733 127.98375 
L 415.760567 128.256733 
L 416.958402 128.131721 
L 417.557319 128.131721 
L 418.755153 127.98375 
L 420.551904 128.243699 
L 421.150821 128.279692 
L 421.749738 128.49713 
L 422.947573 128.575633 
L 430.134578 128.661542 
L 431.332412 128.871575 
L 432.530246 128.792183 
L 433.72808 128.723604 
L 435.524832 128.794849 
L 436.722666 128.871575 
L 439.717251 128.931415 
L 440.915086 129.019545 
L 442.711837 128.967852 
L 443.909671 128.871575 
L 445.107505 128.826398 
L 445.706422 128.723604 
L 446.904257 128.911863 
L 448.102091 129.019545 
L 460.67935 129.02236 
L 461.278267 129.167516 
L 467.866355 129.167516 
L 469.064189 129.315487 
L 470.262023 129.463458 
L 484.037117 129.5507 
L 485.234951 129.611429 
L 490.026288 129.68845 
L 491.823039 129.841309 
L 493.020873 129.759399 
L 495.416542 129.90737 
L 497.81221 129.759399 
L 499.010044 129.805909 
L 500.207878 130.055341 
L 503.202464 130.090445 
L 503.801381 130.169837 
L 504.400298 130.087186 
L 504.999215 130.173095 
L 505.598132 130.055341 
L 510.988386 130.203312 
L 525.961314 130.203312 
L 526.560231 130.442376 
L 527.758065 130.499253 
L 543.928827 130.571535 
L 545.126661 130.647224 
L 546.923412 130.499253 
L 549.31908 130.647224 
L 555.308251 130.688549 
L 556.506086 130.795195 
L 557.70392 130.830003 
L 559.500671 131.091136 
L 561.89634 130.966568 
L 562.495257 131.069363 
L 563.094174 130.96331 
L 563.693091 131.072622 
L 564.292008 130.943166 
L 571.479013 130.943166 
L 572.07793 131.086841 
L 587.649775 131.091136 
L 645.744733 131.182378 
L 646.942568 131.239107 
L 649.338236 131.157642 
L 650.53607 131.091136 
L 664.311163 131.131869 
L 664.910081 131.239107 
L 667.305749 131.123723 
L 668.503583 131.535049 
L 669.1025 131.50735 
L 670.300334 131.239107 
L 676.888423 131.528531 
L 677.48734 131.391966 
L 678.086257 131.535049 
L 679.284091 131.535049 
L 679.284091 131.535049 
" clip-path="url(#pd1d9faf5aa)" style="fill: none; stroke: #0000ff; stroke-width: 1.5; stroke-linecap: square"/>
   </g>
   <g id="patch_3">
    <path d="M 51.05 390.04 
L 51.05 25.44 
" style="fill: none; stroke: #000000; stroke-width: 0.8; stroke-linejoin: miter; stroke-linecap: square"/>
   </g>
   <g id="patch_4">
    <path d="M 709.2 390.04 
L 709.2 25.44 
" style="fill: none; stroke: #000000; stroke-width: 0.8; stroke-linejoin: miter; stroke-linecap: square"/>
   </g>
   <g id="patch_5">
    <path d="M 51.05 390.04 
L 709.2 390.04 
" style="fill: none; stroke: #000000; stroke-width: 0.8; stroke-linejoin: miter; stroke-linecap: square"/>
   </g>
   <g id="patch_6">
    <path d="M 51.05 25.44 
L 709.2 25.44 
" style="fill: none; stroke: #000000; stroke-width: 0.8; stroke-linejoin: miter; stroke-linecap: square"/>
   </g>
   <g id="text_17">
    <!-- charts/SPS for dueling_dqn_atari (aggregated via interpolation over runs) -->
    <g transform="translate(159.92875 19.44) scale(0.12 -0.12)">
     <defs>
      <path id="DejaVuSans-20" transform="scale(0.015625)"/>
      <path id="DejaVuSans-66" d="M 2375 4863 
L 2375 4384 
L 1825 4384 
Q 1516 4384 1395 4259 
Q 1275 4134 1275 3809 
L 1275 3500 
L 2222 3500 
L 2222 3053 
L 1275 3053 
L 1275 0 
L 697 0 
L 697 3053 
L 147 3053 
L 147 3500 
L 697 3500 
L 697 3744 
Q 697 4328 969 4595 
Q 1241 4863 1831 4863 
L 2375 4863 
z
" transform="scale(0.015625)"/>
      <path id="DejaVuSans-6f" d="M 1959 3097 
Q 1497 3097 1228 2736 
Q 959 2375 959 1747 
Q 959 1119 1226 758 
Q 1494 397 1959 397 
Q 2419 397 2687 759 
Q 2956 1122 2956 1747 
Q 2956 2369 2687 2733 
Q 2419 3097 1959 3097 
z
M 1959 3584 
Q 2709 3584 3137 3096 
Q 3566 2609 3566 1747 
Q 3566 888 3137 398 
Q 2709 -91 1959 -91 
Q 1206 -91 779 398 
Q 353 888 353 1747 
Q 353 2609 779 3096 
Q 1206 3584 1959 3584 
z
" transform="scale(0.015625)"/>
      <path id="DejaVuSans-64" d="M 2906 2969 
L 2906 4863 
L 3481 4863 
L 3481 0 
L 2906 0 
L 2906 525 
Q 2725 213 2448 61 
Q 2172 -91 1784 -91 
Q 1150 -91 751 415 
Q 353 922 353 1747 
Q 353 2572 751 3078 
Q 1150 3584 1784 3584 
Q 2172 3584 2448 3432 
Q 2725 3281 2906 2969 
z
M 947 1747 
Q 947 1113 1208 752 
Q 1469 391 1925 391 
Q 2381 391 2643 752 
Q 2906 1113 2906 1747 
Q 2906 2381 2643 2742 
Q 2381 3103 1925 3103 
Q 1469 3103 1208 2742 
Q 947 2381 947 1747 
z
" transform="scale(0.015625)"/>
      <path id="DejaVuSans-75" d="M 544 1381 
L 544 3500 
L 1119 3500 
L 1119 1403 
Q 1119 906 1312 657 
Q 1506 409 1894 409 
Q 2359 409 2629 706 
Q 2900 1003 2900 1516 
L 2900 3500 
L 3475 3500 
L 3475 0 
L 2900 0 
L 2900 538 
Q 2691 219 2414 64 
Q 2138 -91 1772 -91 
Q 1169 -91 856 284 
Q 544 659 544 1381 
z
M 1991 3584 
L 1991 3584 
z
" transform="scale(0.015625)"/>
      <path id="DejaVuSans-6c" d="M 603 4863 
L 1178 4863 
L 1178 0 
L 603 0 
L 603 4863 
z
" transform="scale(0.015625)"/>
      <path id="DejaVuSans-69" d="M 603 3500 
L 1178 3500 
L 1178 0 
L 603 0 
L 603 3500 
z
M 603 4863 
L 1178 4863 
L 1178 4134 
L 603 4134 
L 603 4863 
z
" transform="scale(0.015625)"/>
      <path id="DejaVuSans-6e" d="M 3513 2113 
L 3513 0 
L 2938 0 
L 2938 2094 
Q 2938 2591 2744 2837 
Q 2550 3084 2163 3084 
Q 1697 3084 1428 2787 
Q 1159 2491 1159 1978 
L 1159 0 
L 581 0 
L 581 3500 
L 1159 3500 
L 1159 2956 
Q 1366 3272 1645 3428 
Q 1925 3584 2291 3584 
Q 2894 3584 3203 3211 
Q 3513 2838 3513 2113 
z
" transform="scale(0.015625)"/>
      <path id="DejaVuSans-67" d="M 2906 1791 
Q 2906 2416 2648 2759 
Q 2391 3103 1925 3103 
Q 1463 3103 1205 2759 
Q 947 2416 947 1791 
Q 947 1169 1205 825 
Q 1463 481 1925 481 
Q 2391 481 2648 825 
Q 2906 1169 2906 1791 
z
M 3481 434 
Q 3481 -459 3084 -895 
Q 2688 -1331 1869 -1331 
Q 1566 -1331 1297 -1286 
Q 1028 -1241 775 -1147 
L 775 -588 
Q 1028 -725 1275 -790 
Q 1522 -856 1778 -856 
Q 2344 -856 2625 -561 
Q 2906 -266 2906 331 
L 2906 616 
Q 2728 306 2450 153 
Q 2172 0 1784 0 
Q 1141 0 747 490 
Q 353 981 353 1791 
Q 353 2603 747 3093 
Q 1141 3584 1784 3584 
Q 2172 3584 2450 3431 
Q 2728 3278 2906 2969 
L 2906 3500 
L 3481 3500 
L 3481 434 
z
" transform="scale(0.015625)"/>
      <path id="DejaVuSans-5f" d="M 3263 -1063 
L 3263 -1509 
L -63 -1509 
L -63 -1063 
L 3263 -1063 
z
" transform="scale(0.015625)"/>
      <path id="DejaVuSans-71" d="M 947 1747 
Q 947 1113 1208 752 
Q 1469 391 1925 391 
Q 2381 391 2643 752 
Q 2906 1113 2906 1747 
Q 2906 2381 2643 2742 
Q 2381 3103 1925 3103 
Q 1469 3103 1208 2742 
Q 947 2381 947 1747 
z
M 2906 525 
Q 2725 213 2448 61 
Q 2172 -91 1784 -91 
Q 1150 -91 751 415 
Q 353 922 353 1747 
Q 353 2572 751 3078 
Q 1150 3584 1784 3584 
Q 2172 3584 2448 3432 
Q 2725 3281 2906 2969 
L 2906 3500 
L 3481 3500 
L 3481 -1331 
L 2906 -1331 
L 2906 525 
z
" transform="scale(0.015625)"/>
      <path id="DejaVuSans-28" d="M 1984 4856 
Q 1566 4138 1362 3434 
Q 1159 2731 1159 2009 
Q 1159 1288 1364 580 
Q 1569 -128 1984 -844 
L 1484 -844 
Q 1016 -109 783 600 
Q 550 1309 550 2009 
Q 550 2706 781 3412 
Q 1013 4119 1484 4856 
L 1984 4856 
z
" transform="scale(0.015625)"/>
      <path id="DejaVuSans-76" d="M 191 3500 
L 800 3500 
L 1894 563 
L 2988 3500 
L 3597 3500 
L 2284 0 
L 1503 0 
L 191 3500 
z
" transform="scale(0.015625)"/>
      <path id="DejaVuSans-29" d="M 513 4856 
L 1013 4856 
Q 1481 4119 1714 3412 
Q 1947 2706 1947 2009 
Q 1947 1309 1714 600 
Q 1481 -109 1013 -844 
L 513 -844 
Q 928 -128 1133 580 
Q 1338 1288 1338 2009 
Q 1338 2731 1133 3434 
Q 928 4138 513 4856 
z
" transform="scale(0.015625)"/>
     </defs>
     <use xlink:href="#DejaVuSans-63"/>
     <use xlink:href="#DejaVuSans-68" transform="translate(54.980469 0)"/>
     <use xlink:href="#DejaVuSans-61" transform="translate(118.359375 0)"/>
     <use xlink:href="#DejaVuSans-72" transform="translate(179.638672 0)"/>
     <use xlink:href="#DejaVuSans-74" transform="translate(220.751953 0)"/>
     <use xlink:href="#DejaVuSans-73" transform="translate(259.960938 0)"/>
     <use xlink:href="#DejaVuSans-2f" transform="translate(312.060547 0)"/>
     <use xlink:href="#DejaVuSans-53" transform="translate(345.751953 0)"/>
     <use xlink:href="#DejaVuSans-50" transform="translate(409.228516 0)"/>
     <use xlink:href="#DejaVuSans-53" transform="translate(469.53125 0)"/>
     <use xlink:href="#DejaVuSans-20" transform="translate(533.007812 0)"/>
     <use xlink:href="#DejaVuSans-66" transform="translate(564.794922 0)"/>
     <use xlink:href="#DejaVuSans-6f" transform="translate(600 0)"/>
     <use xlink:href="#DejaVuSans-72" transform="translate(661.181641 0)"/>
     <use xlink:href="#DejaVuSans-20" transform="translate(702.294922 0)"/>
     <use xlink:href="#DejaVuSans-64" transform="translate(734.082031 0)"/>
     <use xlink:href="#DejaVuSans-75" transform="translate(797.558594 0)"/>
     <use xlink:href="#DejaVuSans-65" transform="translate(860.9375 0)"/>
     <use xlink:href="#DejaVuSans-6c" transform="translate(922.460938 0)"/>
     <use xlink:href="#DejaVuSans-69" transform="translate(950.244141 0)"/>
     <use xlink:href="#DejaVuSans-6e" transform="translate(978.027344 0)"/>
     <use xlink:href="#DejaVuSans-67" transform="translate(1041.40625 0)"/>
     <use xlink:href="#DejaVuSans-5f" transform="translate(1104.882812 0)"/>
     <use xlink:href="#DejaVuSans-64" transform="translate(1154.882812 0)"/>
     <use xlink:href="#DejaVuSans-71" transform="translate(1218.359375 0)"/>
     <use xlink:href="#DejaVuSans-6e" transform="translate(1281.835938 0)"/>
     <use xlink:href="#DejaVuSans-5f" transform="translate(1345.214844 0)"/>
     <use xlink:href="#DejaVuSans-61" transform="translate(1395.214844 0)"/>
     <use xlink:href="#DejaVuSans-74" transform="translate(1456.494141 0)"/>
     <use xlink:href="#DejaVuSans-61" transform="translate(1495.703125 0)"/>
     <use xlink:href="#DejaVuSans-72" transform="translate(1556.982422 0)"/>
     <use xlink:href="#DejaVuSans-69" transform="translate(1598.095703 0)"/>
     <use xlink:href="#DejaVuSans-20" transform="translate(1625.878906 0)"/>
     <use xlink:href="#DejaVuSans-28" transform="translate(1657.666016 0)"/>
     <use xlink:href="#DejaVuSans-61" transform="translate(1696.679688 0)"/>
     <use xlink:href="#DejaVuSans-67" transform="translate(1757.958984 0)"/>
     <use xlink:href="#DejaVuSans-67" transform="translate(1821.435547 0)"/>
     <use xlink:href="#DejaVuSans-72" transform="translate(1884.912109 0)"/>
     <use xlink:href="#DejaVuSans-65" transform="translate(1923.775391 0)"/>
     <use xlink:href="#DejaVuSans-67" transform="translate(1985.298828 0)"/>
     <use xlink:href="#DejaVuSans-61" transform="translate(2048.775391 0)"/>
     <use xlink:href="#DejaVuSans-74" transform="translate(2110.054688 0)"/>
     <use xlink:href="#DejaVuSans-65" transform="translate(2149.263672 0)"/>
     <use xlink:href="#DejaVuSans-64" transform="translate(2210.787109 0)"/>
     <use xlink:href="#DejaVuSans-20" transform="translate(2274.263672 0)"/>
     <use xlink:href="#DejaVuSans-76" transform="translate(2306.050781 0)"/>
     <use xlink:href="#DejaVuSans-69" transform="translate(2365.230469 0)"/>
     <use xlink:href="#DejaVuSans-61" transform="translate(2393.013672 0)"/>
     <use xlink:href="#DejaVuSans-20" transform="translate(2454.292969 0)"/>
     <use xlink:href="#DejaVuSans-69" transform="translate(2486.080078 0)"/>
     <use xlink:href="#DejaVuSans-6e" transform="translate(2513.863281 0)"/>
     <use xlink:href="#DejaVuSans-74" transform="translate(2577.242188 0)"/>
     <use xlink:href="#DejaVuSans-65" transform="translate(2616.451172 0)"/>
     <use xlink:href="#DejaVuSans-72" transform="translate(2677.974609 0)"/>
     <use xlink:href="#DejaVuSans-70" transform="translate(2719.087891 0)"/>
     <use xlink:href="#DejaVuSans-6f" transform="translate(2782.564453 0)"/>
     <use xlink:href="#DejaVuSans-6c" transform="translate(2843.746094 0)"/>
     <use xlink:href="#DejaVuSans-61" transform="translate(2871.529297 0)"/>
     <use xlink:href="#DejaVuSans-74" transform="translate(2932.808594 0)"/>
     <use xlink:href="#DejaVuSans-69" transform="translate(2972.017578 0)"/>
     <use xlink:href="#DejaVuSans-6f" transform="translate(2999.800781 0)"/>
     <use xlink:href="#DejaVuSans-6e" transform="translate(3060.982422 0)"/>
     <use xlink:href="#DejaVuSans-20" transform="translate(3124.361328 0)"/>
     <use xlink:href="#DejaVuSans-6f" transform="translate(3156.148438 0)"/>
     <use xlink:href="#DejaVuSans-76" transform="translate(3217.330078 0)"/>
     <use xlink:href="#DejaVuSans-65" transform="translate(3276.509766 0)"/>
     <use xlink:href="#DejaVuSans-72" transform="translate(3338.033203 0)"/>
     <use xlink:href="#DejaVuSans-20" transform="translate(3379.146484 0)"/>
     <use xlink:href="#DejaVuSans-72" transform="translate(3410.933594 0)"/>
     <use xlink:href="#DejaVuSans-75" transform="translate(3452.046875 0)"/>
     <use xlink:href="#DejaVuSans-6e" transform="translate(3515.425781 0)"/>
     <use xlink:href="#DejaVuSans-73" transform="translate(3578.804688 0)"/>
     <use xlink:href="#DejaVuSans-29" transform="translate(3630.904297 0)"/>
    </g>
   </g>
   <g id="legend_1">
    <g id="patch_7">
     <path d="M 626.78125 62.79625 
L 702.2 62.79625 
Q 704.2 62.79625 704.2 60.79625 
L 704.2 32.44 
Q 704.2 30.44 702.2 30.44 
L 626.78125 30.44 
Q 624.78125 30.44 624.78125 32.44 
L 624.78125 60.79625 
Q 624.78125 62.79625 626.78125 62.79625 
z
" style="fill: #ffffff; opacity: 0.8; stroke: #cccccc; stroke-linejoin: miter"/>
    </g>
    <g id="line2d_16">
     <path d="M 628.78125 38.538437 
L 638.78125 38.538437 
L 648.78125 38.538437 
" style="fill: none; stroke: #0000ff; stroke-width: 1.5; stroke-linecap: square"/>
    </g>
    <g id="text_18">
     <!-- Mean -->
     <g transform="translate(656.78125 42.038437) scale(0.1 -0.1)">
      <defs>
       <path id="DejaVuSans-4d" d="M 628 4666 
L 1569 4666 
L 2759 1491 
L 3956 4666 
L 4897 4666 
L 4897 0 
L 4281 0 
L 4281 4097 
L 3078 897 
L 2444 897 
L 1241 4097 
L 1241 0 
L 628 0 
L 628 4666 
z
" transform="scale(0.015625)"/>
      </defs>
      <use xlink:href="#DejaVuSans-4d"/>
      <use xlink:href="#DejaVuSans-65" transform="translate(86.279297 0)"/>
      <use xlink:href="#DejaVuSans-61" transform="translate(147.802734 0)"/>
      <use xlink:href="#DejaVuSans-6e" transform="translate(209.082031 0)"/>
     </g>
    </g>
    <g id="patch_8">
     <path d="M 628.78125 56.716563 
L 648.78125 56.716563 
L 648.78125 49.716563 
L 628.78125 49.716563 
z
" style="fill: #0000ff; fill-opacity: 0.3; stroke: #0000ff; stroke-opacity: 0.3; stroke-linejoin: miter"/>
    </g>
    <g id="text_19">
     <!-- MinMax -->
     <g transform="translate(656.78125 56.716563) scale(0.1 -0.1)">
      <defs>
       <path id="DejaVuSans-2013" d="M 313 1978 
L 2888 1978 
L 2888 1528 
L 313 1528 
L 313 1978 
z
" transform="scale(0.015625)"/>
       <path id="DejaVuSans-78" d="M 3513 3500 
L 2247 1797 
L 3578 0 
L 2900 0 
L 1881 1375 
L 863 0 
L 184 0 
L 1544 1831 
L 300 3500 
L 978 3500 
L 1906 2253 
L 2834 3500 
L 3513 3500 
z
" transform="scale(0.015625)"/>
      </defs>
      <use xlink:href="#DejaVuSans-4d"/>
      <use xlink:href="#DejaVuSans-69" transform="translate(86.279297 0)"/>
      <use xlink:href="#DejaVuSans-6e" transform="translate(114.0625 0)"/>
      <use xlink:href="#DejaVuSans-2013" transform="translate(177.441406 0)"/>
      <use xlink:href="#DejaVuSans-4d" transform="translate(227.441406 0)"/>
      <use xlink:href="#DejaVuSans-61" transform="translate(313.720703 0)"/>
      <use xlink:href="#DejaVuSans-78" transform="translate(375 0)"/>
     </g>
    </g>
   </g>
  </g>
 </g>
 <defs>
  <clipPath id="pd1d9faf5aa">
   <rect x="51.05" y="25.44" width="658.15" height="364.6"/>
  </clipPath>
 </defs>
</svg>
