<?xml version="1.0" encoding="utf-8" standalone="no"?>
<!DOCTYPE svg PUBLIC "-//W3C//DTD SVG 1.1//EN"
  "http://www.w3.org/Graphics/SVG/1.1/DTD/svg11.dtd">
<svg xmlns:xlink="http://www.w3.org/1999/xlink" width="720pt" height="432pt" viewBox="0 0 720 432" xmlns="http://www.w3.org/2000/svg" version="1.1">
 <metadata>
  <rdf:RDF xmlns:dc="http://purl.org/dc/elements/1.1/" xmlns:cc="http://creativecommons.org/ns#" xmlns:rdf="http://www.w3.org/1999/02/22-rdf-syntax-ns#">
   <cc:Work>
    <dc:type rdf:resource="http://purl.org/dc/dcmitype/StillImage"/>
    <dc:date>2025-02-05T20:31:51.095987</dc:date>
    <dc:format>image/svg+xml</dc:format>
    <dc:creator>
     <cc:Agent>
      <dc:title>Matplotlib v3.10.0, https://matplotlib.org/</dc:title>
     </cc:Agent>
    </dc:creator>
   </cc:Work>
  </rdf:RDF>
 </metadata>
 <defs>
  <style type="text/css">*{stroke-linejoin: round; stroke-linecap: butt}</style>
 </defs>
 <g id="figure_1">
  <g id="patch_1">
   <path d="M 0 432 
L 720 432 
L 720 0 
L 0 0 
z
" style="fill: #ffffff"/>
  </g>
  <g id="axes_1">
   <g id="patch_2">
    <path d="M 46.74125 390.04 
L 709.2 390.04 
L 709.2 25.44 
L 46.74125 25.44 
z
" style="fill: #ffffff"/>
   </g>
   <g id="FillBetweenPolyCollection_1">
    <defs>
     <path id="m7039ff9c0c" d="M 76.853011 -284.293644 
L 76.853011 -250.337931 
L 77.455849 -250.337931 
L 78.058687 -250.413808 
L 78.661526 -250.471555 
L 79.264364 -250.921786 
L 79.867202 -251.175775 
L 80.47004 -251.26481 
L 81.072878 -249.425589 
L 81.675716 -247.268214 
L 82.278554 -248.681993 
L 82.881392 -250.095773 
L 83.48423 -250.431567 
L 84.087068 -250.431567 
L 84.689906 -251.007928 
L 85.292744 -251.554592 
L 85.895582 -251.554592 
L 86.49842 -251.554592 
L 87.101258 -251.529264 
L 87.704097 -250.431567 
L 88.306935 -250.431567 
L 88.909773 -250.431567 
L 89.512611 -250.431567 
L 90.115449 -250.431567 
L 90.718287 -250.490309 
L 91.321125 -250.344348 
L 91.923963 -250.496196 
L 92.526801 -250.648045 
L 93.129639 -250.431567 
L 93.732477 -250.431567 
L 94.335315 -250.431567 
L 94.938153 -251.395485 
L 95.540991 -250.431567 
L 96.143829 -248.522518 
L 96.746668 -246.227709 
L 97.349506 -243.9329 
L 97.952344 -244.755998 
L 98.555182 -246.592877 
L 99.15802 -248.429755 
L 99.760858 -250.266633 
L 100.363696 -250.431567 
L 100.966534 -250.431567 
L 101.569372 -250.431567 
L 102.17221 -250.431567 
L 102.775048 -251.139915 
L 103.377886 -250.52352 
L 103.980724 -250.741506 
L 104.583562 -251.116743 
L 105.1864 -250.577927 
L 105.789238 -250.81115 
L 106.392077 -249.046369 
L 106.994915 -247.208459 
L 107.597753 -245.370549 
L 108.200591 -243.532639 
L 108.803429 -243.788134 
L 109.406267 -244.247096 
L 110.009105 -244.706058 
L 110.611943 -245.16502 
L 111.214781 -245.623982 
L 111.817619 -246.082944 
L 112.420457 -244.206747 
L 113.023295 -239.604214 
L 113.626133 -235.001682 
L 114.228971 -230.399149 
L 114.831809 -225.796617 
L 115.434648 -221.194084 
L 116.037486 -216.591552 
L 116.640324 -211.98902 
L 117.243162 -207.386487 
L 117.846 -202.783955 
L 118.448838 -198.181422 
L 119.051676 -195.012273 
L 119.654514 -200.077909 
L 120.257352 -205.143546 
L 120.86019 -210.209182 
L 121.463028 -215.274818 
L 122.065866 -220.340455 
L 122.668704 -225.406091 
L 123.271542 -230.471727 
L 123.87438 -235.537364 
L 124.477219 -240.603 
L 125.080057 -245.668636 
L 125.682895 -250.734273 
L 126.285733 -251.318916 
L 126.888571 -250.564451 
L 127.491409 -250.431567 
L 128.094247 -250.474988 
L 128.697085 -250.400948 
L 129.299923 -250.004173 
L 129.902761 -249.607399 
L 130.505599 -249.210624 
L 131.108437 -249.844954 
L 131.711275 -250.495983 
L 132.314113 -250.431567 
L 132.916951 -250.431567 
L 133.51979 -250.561462 
L 134.122628 -247.867873 
L 134.725466 -245.111007 
L 135.328304 -242.354142 
L 135.931142 -238.894988 
L 136.53398 -232.918422 
L 137.136818 -226.941857 
L 137.739656 -220.965291 
L 138.342494 -214.988726 
L 138.945332 -209.01216 
L 139.54817 -203.035595 
L 140.151008 -197.059029 
L 140.753846 -196.220734 
L 141.356684 -199.904833 
L 141.959522 -203.588932 
L 142.56236 -207.273031 
L 143.165199 -210.957131 
L 143.768037 -214.64123 
L 144.370875 -215.84981 
L 144.973713 -215.390848 
L 145.576551 -214.931887 
L 146.179389 -214.472925 
L 146.782227 -214.013963 
L 147.385065 -213.555001 
L 147.987903 -213.096039 
L 148.590741 -212.637077 
L 149.193579 -212.178115 
L 149.796417 -211.719154 
L 150.399255 -211.260192 
L 151.002093 -210.80123 
L 151.604931 -211.20877 
L 152.20777 -212.128242 
L 152.810608 -213.047714 
L 153.413446 -213.967185 
L 154.016284 -214.886657 
L 154.619122 -215.806129 
L 155.22196 -216.7256 
L 155.824798 -217.645072 
L 156.427636 -218.564543 
L 157.030474 -219.484015 
L 157.633312 -220.403487 
L 158.23615 -221.322958 
L 158.838988 -217.419531 
L 159.441826 -212.819587 
L 160.044664 -208.219643 
L 160.647502 -203.6197 
L 161.250341 -199.019756 
L 161.853179 -194.419812 
L 162.456017 -198.697646 
L 163.058855 -203.292421 
L 163.661693 -207.887196 
L 164.264531 -211.172135 
L 164.867369 -207.034512 
L 165.470207 -202.89689 
L 166.073045 -198.759268 
L 166.675883 -194.621645 
L 167.278721 -190.484023 
L 167.881559 -186.346401 
L 168.484397 -182.208778 
L 169.087235 -178.071156 
L 169.690073 -173.933534 
L 170.292911 -169.795912 
L 170.89575 -165.658289 
L 171.498588 -161.520667 
L 172.101426 -157.383045 
L 172.704264 -153.460125 
L 173.307102 -158.976954 
L 173.90994 -164.493784 
L 174.512778 -170.010614 
L 175.115616 -175.527444 
L 175.718454 -181.044273 
L 176.321292 -186.561103 
L 176.92413 -192.077933 
L 177.526968 -197.594763 
L 178.129806 -203.111592 
L 178.732644 -208.628422 
L 179.335482 -214.145252 
L 179.938321 -219.662082 
L 180.541159 -225.178911 
L 181.143997 -230.695741 
L 181.746835 -236.212571 
L 182.349673 -238.242731 
L 182.952511 -236.401718 
L 183.555349 -233.938448 
L 184.158187 -230.262628 
L 184.761025 -226.586808 
L 185.363863 -222.910988 
L 185.966701 -219.235167 
L 186.569539 -215.559347 
L 187.172377 -211.883527 
L 187.775215 -208.207707 
L 188.378053 -204.531886 
L 188.980892 -200.856066 
L 189.58373 -197.180246 
L 190.186568 -193.504425 
L 190.789406 -189.828605 
L 191.392244 -186.152785 
L 191.995082 -182.476965 
L 192.59792 -178.801144 
L 193.200758 -175.125324 
L 193.803596 -171.449504 
L 194.406434 -169.465168 
L 195.009272 -169.005432 
L 195.61211 -168.545696 
L 196.214948 -167.765647 
L 196.817786 -159.963295 
L 197.420624 -152.160944 
L 198.023462 -144.358593 
L 198.626301 -136.556241 
L 199.229139 -128.75389 
L 199.831977 -120.951538 
L 200.434815 -113.149187 
L 201.037653 -105.346836 
L 201.640491 -97.544484 
L 202.243329 -89.742133 
L 202.846167 -81.939781 
L 203.449005 -74.13743 
L 204.051843 -66.335079 
L 204.654681 -58.532727 
L 205.257519 -61.590552 
L 205.860357 -73.090412 
L 206.463195 -84.590271 
L 207.066033 -96.090131 
L 207.668872 -107.589991 
L 208.27171 -119.08985 
L 208.874548 -130.58971 
L 209.477386 -142.089569 
L 210.080224 -153.589429 
L 210.683062 -165.089288 
L 211.2859 -176.589148 
L 211.888738 -188.089007 
L 212.491576 -199.588867 
L 213.094414 -211.088726 
L 213.697252 -222.507973 
L 214.30009 -226.650252 
L 214.902928 -230.792531 
L 215.505766 -234.93481 
L 216.108604 -236.480949 
L 216.711443 -237.860156 
L 217.314281 -239.239364 
L 217.917119 -240.618571 
L 218.519957 -241.997779 
L 219.122795 -243.376986 
L 219.725633 -244.756194 
L 220.328471 -246.135401 
L 220.931309 -247.514608 
L 221.534147 -246.257667 
L 222.136985 -244.877683 
L 222.739823 -243.4977 
L 223.342661 -242.117717 
L 223.945499 -240.737734 
L 224.548337 -239.357751 
L 225.151175 -237.977768 
L 225.754014 -236.597785 
L 226.356852 -235.217801 
L 226.95969 -236.531557 
L 227.562528 -237.910765 
L 228.165366 -239.289972 
L 228.768204 -240.66918 
L 229.371042 -237.951404 
L 229.97388 -231.988247 
L 230.576718 -226.025089 
L 231.179556 -220.061931 
L 231.782394 -214.098774 
L 232.385232 -208.135616 
L 232.98807 -202.172458 
L 233.590908 -196.209301 
L 234.193746 -190.246143 
L 234.796584 -184.282985 
L 235.399423 -178.319828 
L 236.002261 -172.35667 
L 236.605099 -166.393512 
L 237.207937 -162.701341 
L 237.810775 -169.141262 
L 238.413613 -175.581184 
L 239.016451 -182.021105 
L 239.619289 -188.461026 
L 240.222127 -194.900948 
L 240.824965 -201.340869 
L 241.427803 -207.78079 
L 242.030641 -208.843565 
L 242.633479 -204.715225 
L 243.236317 -200.586885 
L 243.839155 -196.458545 
L 244.441994 -192.330205 
L 245.044832 -188.201865 
L 245.64767 -184.073525 
L 246.250508 -179.945185 
L 246.853346 -175.816845 
L 247.456184 -171.688505 
L 248.059022 -172.092294 
L 248.66186 -176.679339 
L 249.264698 -181.266383 
L 249.867536 -185.853428 
L 250.470374 -190.440472 
L 251.073212 -195.027516 
L 251.67605 -199.614561 
L 252.278888 -204.201605 
L 252.881726 -208.788649 
L 253.484565 -213.375694 
L 254.087403 -217.962738 
L 254.690241 -222.549782 
L 255.293079 -227.136827 
L 255.895917 -231.723871 
L 256.498755 -236.310916 
L 257.101593 -240.89796 
L 257.704431 -245.485004 
L 258.307269 -250.072049 
L 258.910107 -250.622719 
L 259.512945 -249.245834 
L 260.115783 -247.868948 
L 260.718621 -246.492063 
L 261.321459 -245.115177 
L 261.924297 -243.738292 
L 262.527135 -242.361406 
L 263.129974 -240.984521 
L 263.732812 -239.607635 
L 264.33565 -238.23075 
L 264.938488 -236.853864 
L 265.541326 -235.476978 
L 266.144164 -234.100093 
L 266.747002 -232.723207 
L 267.34984 -231.346322 
L 267.952678 -229.969436 
L 268.555516 -228.592551 
L 269.158354 -227.215665 
L 269.761192 -227.388349 
L 270.36403 -227.848344 
L 270.966868 -228.308338 
L 271.569706 -228.768332 
L 272.172545 -226.13996 
L 272.775383 -217.40498 
L 273.378221 -208.669999 
L 273.981059 -199.935019 
L 274.583897 -191.200039 
L 275.186735 -182.465058 
L 275.789573 -173.730078 
L 276.392411 -164.995097 
L 276.995249 -156.260117 
L 277.598087 -147.525136 
L 278.200925 -138.790156 
L 278.803763 -130.055176 
L 279.406601 -121.320195 
L 280.009439 -112.585215 
L 280.612277 -118.269492 
L 281.215116 -124.2427 
L 281.817954 -130.215908 
L 282.420792 -136.189116 
L 283.02363 -142.162324 
L 283.626468 -148.135532 
L 284.229306 -154.10874 
L 284.832144 -160.081948 
L 285.434982 -166.055156 
L 286.03782 -172.028364 
L 286.640658 -178.001572 
L 287.243496 -183.97478 
L 287.846334 -189.947988 
L 288.449172 -195.921196 
L 289.05201 -201.894403 
L 289.654848 -207.867611 
L 290.257686 -213.840819 
L 290.860525 -219.429304 
L 291.463363 -223.100999 
L 292.066201 -226.772694 
L 292.669039 -230.444389 
L 293.271877 -234.116083 
L 293.874715 -237.787778 
L 294.477553 -241.459473 
L 295.080391 -245.131168 
L 295.683229 -243.132879 
L 296.286067 -237.149587 
L 296.888905 -231.166295 
L 297.491743 -225.183003 
L 298.094581 -219.199711 
L 298.697419 -213.216418 
L 299.300257 -207.233126 
L 299.903096 -201.249834 
L 300.505934 -195.266542 
L 301.108772 -189.28325 
L 301.71161 -186.289709 
L 302.314448 -186.749186 
L 302.917286 -187.208664 
L 303.520124 -187.668141 
L 304.122962 -188.127619 
L 304.7258 -188.587096 
L 305.328638 -189.046574 
L 305.931476 -189.506051 
L 306.534314 -189.965529 
L 307.137152 -190.425006 
L 307.73999 -190.884484 
L 308.342828 -191.343961 
L 308.945667 -191.803439 
L 309.548505 -192.262916 
L 310.151343 -192.722394 
L 310.754181 -193.181872 
L 311.357019 -193.641349 
L 311.959857 -194.100827 
L 312.562695 -196.052546 
L 313.165533 -198.804772 
L 313.768371 -201.556999 
L 314.371209 -204.309225 
L 314.974047 -207.061452 
L 315.576885 -209.813679 
L 316.179723 -212.565905 
L 316.782561 -215.318132 
L 317.385399 -218.070359 
L 317.988237 -220.822585 
L 318.591076 -220.746203 
L 319.193914 -219.368545 
L 319.796752 -217.990886 
L 320.39959 -216.613227 
L 321.002428 -215.235569 
L 321.605266 -213.85791 
L 322.208104 -212.480251 
L 322.810942 -211.102593 
L 323.41378 -211.840607 
L 324.016618 -213.680585 
L 324.619456 -215.520562 
L 325.222294 -217.36054 
L 325.825132 -219.200517 
L 326.42797 -221.040495 
L 327.030808 -222.880473 
L 327.633647 -224.72045 
L 328.236485 -226.560428 
L 328.839323 -228.400405 
L 329.442161 -230.240383 
L 330.044999 -232.08036 
L 330.647837 -233.920338 
L 331.250675 -235.760315 
L 331.853513 -237.010027 
L 332.456351 -233.797294 
L 333.059189 -230.584561 
L 333.662027 -227.371828 
L 334.264865 -227.407333 
L 334.867703 -227.867586 
L 335.470541 -223.214468 
L 336.073379 -216.322305 
L 336.676218 -209.430142 
L 337.279056 -202.537979 
L 337.881894 -195.645816 
L 338.484732 -188.753653 
L 339.08757 -181.86149 
L 339.690408 -174.969327 
L 340.293246 -168.077164 
L 340.896084 -161.185001 
L 341.498922 -154.292838 
L 342.10176 -147.400675 
L 342.704598 -140.508512 
L 343.307436 -133.616349 
L 343.910274 -126.724186 
L 344.513112 -121.212512 
L 345.11595 -126.735551 
L 345.718789 -132.25859 
L 346.321627 -137.781629 
L 346.924465 -143.304668 
L 347.527303 -148.827706 
L 348.130141 -154.350745 
L 348.732979 -159.873784 
L 349.335817 -165.396823 
L 349.938655 -170.919862 
L 350.541493 -176.442901 
L 351.144331 -181.96594 
L 351.747169 -187.488979 
L 352.350007 -193.012018 
L 352.952845 -198.535057 
L 353.555683 -204.058095 
L 354.158521 -209.581134 
L 354.761359 -215.104173 
L 355.364198 -220.320186 
L 355.967036 -224.907231 
L 356.569874 -229.494275 
L 357.172712 -234.08132 
L 357.77555 -238.668364 
L 358.378388 -243.255408 
L 358.981226 -247.842453 
L 359.584064 -251.695876 
L 360.186902 -251.813393 
L 360.78974 -251.793089 
L 361.392578 -251.763559 
L 361.995416 -251.73403 
L 362.598254 -251.7045 
L 363.201092 -251.674971 
L 363.80393 -246.953035 
L 364.406769 -236.850205 
L 365.009607 -226.747375 
L 365.612445 -216.644545 
L 366.215283 -211.933306 
L 366.818121 -215.151457 
L 367.420959 -218.369607 
L 368.023797 -221.587758 
L 368.626635 -224.805909 
L 369.229473 -228.024059 
L 369.832311 -231.24221 
L 370.435149 -234.460361 
L 371.037987 -237.678511 
L 371.640825 -240.896662 
L 372.243663 -244.114813 
L 372.846501 -246.30977 
L 373.44934 -245.850293 
L 374.052178 -245.390815 
L 374.655016 -244.931338 
L 375.257854 -244.47186 
L 375.860692 -244.012383 
L 376.46353 -243.552905 
L 377.066368 -244.477303 
L 377.669206 -246.318316 
L 378.272044 -248.159329 
L 378.874882 -249.017832 
L 379.47772 -248.681591 
L 380.080558 -246.495113 
L 380.683396 -244.196434 
L 381.286234 -241.897755 
L 381.889072 -239.599076 
L 382.49191 -237.300397 
L 383.094749 -235.001717 
L 383.697587 -232.703038 
L 384.300425 -230.404359 
L 384.903263 -228.10568 
L 385.506101 -225.807001 
L 386.108939 -223.508322 
L 386.711777 -221.209643 
L 387.314615 -218.910964 
L 387.917453 -221.013854 
L 388.520291 -223.307376 
L 389.123129 -225.600898 
L 389.725967 -227.89442 
L 390.328805 -230.187942 
L 390.931643 -232.481465 
L 391.534481 -234.774987 
L 392.13732 -237.068509 
L 392.740158 -239.362031 
L 393.342996 -241.655553 
L 393.945834 -243.949076 
L 394.548672 -246.242598 
L 395.15151 -248.53612 
L 395.754348 -250.829642 
L 396.357186 -251.360352 
L 396.960024 -251.650811 
L 397.562862 -251.887449 
L 398.1657 -251.589125 
L 398.768538 -251.850443 
L 399.371376 -249.060242 
L 399.974214 -244.011662 
L 400.577052 -238.963081 
L 401.179891 -233.914501 
L 401.782729 -228.865921 
L 402.385567 -223.81734 
L 402.988405 -218.76876 
L 403.591243 -213.72018 
L 404.194081 -208.671599 
L 404.796919 -203.623019 
L 405.399757 -198.574439 
L 406.002595 -193.525858 
L 406.605433 -188.477278 
L 407.208271 -183.428698 
L 407.811109 -178.380117 
L 408.413947 -173.331537 
L 409.016785 -171.13257 
L 409.619623 -176.186823 
L 410.222461 -181.241076 
L 410.8253 -186.295329 
L 411.428138 -191.349581 
L 412.030976 -196.403834 
L 412.633814 -201.458087 
L 413.236652 -206.51234 
L 413.83949 -211.566593 
L 414.442328 -216.620846 
L 415.045166 -221.675099 
L 415.648004 -226.729352 
L 416.250842 -231.783604 
L 416.85368 -236.837857 
L 417.456518 -241.89211 
L 418.059356 -246.946363 
L 418.662194 -251.019245 
L 419.265032 -250.924689 
L 419.867871 -251.223324 
L 420.470709 -251.110497 
L 421.073547 -250.997669 
L 421.676385 -250.979786 
L 422.279223 -250.897351 
L 422.882061 -250.364216 
L 423.484899 -250.715288 
L 424.087737 -251.066359 
L 424.690575 -251.417431 
L 425.293413 -251.658301 
L 425.896251 -251.602934 
L 426.499089 -251.574308 
L 427.101927 -251.675788 
L 427.704765 -251.777268 
L 428.307603 -251.878747 
L 428.910442 -251.980227 
L 429.51328 -250.56423 
L 430.116118 -251.74937 
L 430.718956 -251.950992 
L 431.321794 -250.909433 
L 431.924632 -252.029309 
L 432.52747 -252.029309 
L 433.130308 -252.029309 
L 433.733146 -252.029309 
L 434.335984 -251.670368 
L 434.938822 -251.533679 
L 435.54166 -251.630664 
L 436.144498 -251.72765 
L 436.747336 -251.754825 
L 437.350174 -249.610172 
L 437.953013 -245.932286 
L 438.555851 -242.254399 
L 439.158689 -238.576513 
L 439.761527 -234.898626 
L 440.364365 -231.22074 
L 440.967203 -227.542853 
L 441.570041 -227.392221 
L 442.172879 -227.851957 
L 442.775717 -228.311692 
L 443.378555 -228.771428 
L 443.981393 -229.231164 
L 444.584231 -229.6909 
L 445.187069 -230.150636 
L 445.789907 -230.610371 
L 446.392745 -231.070107 
L 446.995583 -231.529843 
L 447.598422 -231.989579 
L 448.20126 -232.449315 
L 448.804098 -232.90905 
L 449.406936 -233.368786 
L 450.009774 -233.828522 
L 450.612612 -234.288258 
L 451.21545 -234.747994 
L 451.818288 -235.253094 
L 452.421126 -236.633077 
L 453.023964 -238.01306 
L 453.626802 -239.198856 
L 454.22964 -237.821971 
L 454.832478 -236.445085 
L 455.435316 -235.0682 
L 456.038154 -233.691314 
L 456.640993 -232.314429 
L 457.243831 -230.937543 
L 457.846669 -229.560657 
L 458.449507 -228.183772 
L 459.052345 -226.806886 
L 459.655183 -225.430001 
L 460.258021 -224.053115 
L 460.860859 -222.67623 
L 461.463697 -221.299344 
L 462.066535 -219.922459 
L 462.669373 -218.995924 
L 463.272211 -219.915913 
L 463.875049 -220.835902 
L 464.477887 -221.75589 
L 465.080725 -222.675879 
L 465.683564 -223.595868 
L 466.286402 -224.515857 
L 466.88924 -225.435845 
L 467.492078 -226.355834 
L 468.094916 -227.275823 
L 468.697754 -228.195812 
L 469.300592 -229.1158 
L 469.90343 -230.035789 
L 470.506268 -230.955778 
L 471.109106 -231.875767 
L 471.711944 -232.795755 
L 472.314782 -233.715744 
L 472.91762 -234.635733 
L 473.520458 -233.33179 
L 474.123296 -228.731847 
L 474.726134 -224.131903 
L 475.328973 -219.531959 
L 475.931811 -214.932015 
L 476.534649 -210.332071 
L 477.137487 -205.732128 
L 477.740325 -201.132184 
L 478.343163 -196.53224 
L 478.946001 -191.932296 
L 479.548839 -187.332352 
L 480.151677 -182.732408 
L 480.754515 -178.132465 
L 481.357353 -173.532521 
L 481.960191 -168.932577 
L 482.563029 -164.332633 
L 483.165867 -159.732689 
L 483.768705 -155.132746 
L 484.371544 -158.654284 
L 484.974382 -167.374559 
L 485.57722 -176.094835 
L 486.180058 -184.81511 
L 486.782896 -193.535385 
L 487.385734 -202.25566 
L 487.988572 -210.975935 
L 488.59141 -219.69621 
L 489.194248 -228.416485 
L 489.797086 -237.13676 
L 490.399924 -245.857035 
L 491.002762 -251.80677 
L 491.6056 -251.781986 
L 492.208438 -251.836795 
L 492.811276 -251.844448 
L 493.414115 -251.580394 
L 494.016953 -251.31634 
L 494.619791 -251.052286 
L 495.222629 -250.788232 
L 495.825467 -250.524178 
L 496.428305 -250.382201 
L 497.031143 -250.532438 
L 497.633981 -250.682676 
L 498.236819 -250.832913 
L 498.839657 -250.983151 
L 499.442495 -251.133388 
L 500.045333 -251.283626 
L 500.648171 -251.433864 
L 501.251009 -251.527981 
L 501.853847 -251.6033 
L 502.456685 -251.678618 
L 503.059524 -250.341936 
L 503.662362 -250.587483 
L 504.2652 -250.83303 
L 504.868038 -244.470991 
L 505.470876 -236.646686 
L 506.073714 -233.318939 
L 506.676552 -231.02413 
L 507.27939 -228.729321 
L 507.882228 -226.434512 
L 508.485066 -224.139702 
L 509.087904 -221.844893 
L 509.690742 -219.550084 
L 510.29358 -217.255275 
L 510.896418 -214.960465 
L 511.499256 -212.665656 
L 512.102095 -210.370847 
L 512.704933 -208.076038 
L 513.307771 -205.781228 
L 513.910609 -203.486419 
L 514.513447 -201.19161 
L 515.116285 -198.896801 
L 515.719123 -196.601992 
L 516.321961 -194.307182 
L 516.924799 -191.559565 
L 517.527637 -188.8027 
L 518.130475 -186.045835 
L 518.733313 -183.288969 
L 519.336151 -180.532104 
L 519.938989 -177.775239 
L 520.541827 -175.018374 
L 521.144666 -172.261509 
L 521.747504 -169.504643 
L 522.350342 -166.747778 
L 522.95318 -163.990913 
L 523.556018 -161.234048 
L 524.158856 -158.477183 
L 524.761694 -155.720317 
L 525.364532 -152.963452 
L 525.96737 -150.206587 
L 526.570208 -147.449722 
L 527.173046 -146.072828 
L 527.775884 -151.589658 
L 528.378722 -157.106487 
L 528.98156 -162.623317 
L 529.584398 -168.140147 
L 530.187236 -173.656977 
L 530.790075 -179.173806 
L 531.392913 -184.690636 
L 531.995751 -190.207466 
L 532.598589 -195.724296 
L 533.201427 -201.241125 
L 533.804265 -206.757955 
L 534.407103 -212.274785 
L 535.009941 -217.791615 
L 535.612779 -223.308444 
L 536.215617 -227.896416 
L 536.818455 -224.21439 
L 537.421293 -220.532364 
L 538.024131 -219.552492 
L 538.626969 -220.933252 
L 539.229807 -222.314011 
L 539.832646 -223.694771 
L 540.435484 -225.075531 
L 541.038322 -226.45629 
L 541.64116 -227.83705 
L 542.243998 -229.21781 
L 542.846836 -230.59857 
L 543.449674 -231.979329 
L 544.052512 -233.360089 
L 544.65535 -234.740849 
L 545.258188 -236.121608 
L 545.861026 -237.502368 
L 546.463864 -238.883128 
L 547.066702 -240.263888 
L 547.66954 -241.644647 
L 548.272378 -243.025407 
L 548.875217 -245.440174 
L 549.478055 -248.198589 
L 550.080893 -250.955046 
L 550.683731 -251.036308 
L 551.286569 -251.11757 
L 551.889407 -251.198832 
L 552.492245 -251.280094 
L 553.095083 -251.361356 
L 553.697921 -251.442618 
L 554.300759 -251.540364 
L 554.903597 -251.027384 
L 555.506435 -251.554592 
L 556.109273 -251.554592 
L 556.712111 -246.863182 
L 557.314949 -239.959384 
L 557.917788 -233.055585 
L 558.520626 -226.151786 
L 559.123464 -219.247988 
L 559.726302 -216.228456 
L 560.32914 -213.46849 
L 560.931978 -210.708523 
L 561.534816 -207.948557 
L 562.137654 -205.188591 
L 562.740492 -202.428625 
L 563.34333 -199.668658 
L 563.946168 -196.908692 
L 564.549006 -194.148726 
L 565.151844 -191.388759 
L 565.754682 -188.628793 
L 566.35752 -185.868827 
L 566.960358 -183.10886 
L 567.563197 -180.348894 
L 568.166035 -177.588928 
L 568.768873 -174.828962 
L 569.371711 -172.068995 
L 569.974549 -169.972402 
L 570.577387 -171.813415 
L 571.180225 -173.654428 
L 571.783063 -175.495441 
L 572.385901 -177.336454 
L 572.988739 -179.177467 
L 573.591577 -181.01848 
L 574.194415 -182.859493 
L 574.797253 -184.700506 
L 575.400091 -186.541519 
L 576.002929 -188.382532 
L 576.605768 -190.223545 
L 577.208606 -192.064558 
L 577.811444 -193.905571 
L 578.414282 -195.746584 
L 579.01712 -197.587597 
L 579.619958 -199.42861 
L 580.222796 -201.269623 
L 580.825634 -203.274925 
L 581.428472 -205.571023 
L 582.03131 -207.86712 
L 582.634148 -210.163218 
L 583.236986 -212.459316 
L 583.839824 -214.755414 
L 584.442662 -217.051511 
L 585.0455 -219.347609 
L 585.648339 -221.643707 
L 586.251177 -223.939804 
L 586.854015 -226.235902 
L 587.456853 -228.532 
L 588.059691 -230.828098 
L 588.662529 -233.124195 
L 589.265367 -235.420293 
L 589.868205 -237.716391 
L 590.471043 -240.012489 
L 591.073881 -242.308586 
L 591.676719 -240.893167 
L 592.279557 -236.288043 
L 592.882395 -231.682919 
L 593.485233 -227.077795 
L 594.088071 -222.472671 
L 594.690909 -217.867547 
L 595.293748 -213.262424 
L 595.896586 -208.6573 
L 596.499424 -204.052176 
L 597.102262 -199.447052 
L 597.7051 -194.841928 
L 598.307938 -190.236804 
L 598.910776 -185.63168 
L 599.513614 -181.026556 
L 600.116452 -176.421432 
L 600.71929 -171.816308 
L 601.322128 -167.211184 
L 601.924966 -162.60606 
L 602.527804 -162.576798 
L 603.130642 -163.956006 
L 603.73348 -165.335213 
L 604.336319 -166.714421 
L 604.939157 -168.093628 
L 605.541995 -169.472836 
L 606.144833 -170.852043 
L 606.747671 -172.23125 
L 607.350509 -173.610458 
L 607.953347 -174.989665 
L 608.556185 -176.368873 
L 609.159023 -177.74808 
L 609.761861 -179.127288 
L 610.364699 -180.506495 
L 610.967537 -181.885702 
L 611.570375 -183.26491 
L 612.173213 -184.644117 
L 612.776051 -186.023325 
L 613.37889 -191.816223 
L 613.981728 -197.786077 
L 614.584566 -203.755931 
L 615.187404 -209.725785 
L 615.790242 -215.695639 
L 616.39308 -221.665493 
L 616.995918 -219.882755 
L 617.598756 -215.280223 
L 618.201594 -210.67769 
L 618.804432 -206.075158 
L 619.40727 -201.472625 
L 620.010108 -196.870093 
L 620.612946 -192.267561 
L 621.215784 -187.665028 
L 621.818622 -183.062496 
L 622.42146 -178.459963 
L 623.024299 -173.857431 
L 623.627137 -170.248831 
L 624.229975 -175.765661 
L 624.832813 -181.282491 
L 625.435651 -186.799321 
L 626.038489 -192.31615 
L 626.641327 -197.83298 
L 627.244165 -203.34981 
L 627.847003 -208.86664 
L 628.449841 -214.383469 
L 629.052679 -219.900299 
L 629.655517 -225.417129 
L 630.258355 -230.933959 
L 630.861193 -236.450788 
L 631.464031 -241.967618 
L 632.06687 -247.484448 
L 632.669708 -251.792258 
L 633.272546 -251.799067 
L 633.875384 -251.805875 
L 634.478222 -251.812684 
L 635.08106 -251.790548 
L 635.683898 -251.746976 
L 636.286736 -251.703404 
L 636.889574 -251.659832 
L 637.492412 -249.926622 
L 638.09525 -239.829461 
L 638.698088 -229.7323 
L 639.300926 -219.63514 
L 639.903764 -209.537979 
L 640.506602 -199.440819 
L 641.109441 -189.343658 
L 641.712279 -179.246497 
L 642.315117 -169.149337 
L 642.917955 -159.052176 
L 643.520793 -148.955015 
L 644.123631 -138.857855 
L 644.726469 -128.760694 
L 645.329307 -121.126073 
L 645.932145 -123.879844 
L 646.534983 -126.633615 
L 647.137821 -129.387386 
L 647.740659 -132.141157 
L 648.343497 -134.894929 
L 648.946335 -137.6487 
L 649.549173 -140.402471 
L 650.152012 -143.156242 
L 650.75485 -145.910013 
L 651.357688 -148.663784 
L 651.960526 -151.417555 
L 652.563364 -154.171326 
L 653.166202 -156.925097 
L 653.76904 -159.678868 
L 654.371878 -162.432639 
L 654.974716 -165.18641 
L 655.577554 -167.940181 
L 656.180392 -171.192449 
L 656.78323 -175.33706 
L 657.386068 -179.481672 
L 657.988906 -183.626283 
L 658.591744 -187.770895 
L 659.194582 -191.915506 
L 659.797421 -196.060118 
L 660.400259 -200.204729 
L 661.003097 -204.349341 
L 661.605935 -208.493953 
L 662.208773 -212.638564 
L 662.811611 -216.783176 
L 663.414449 -220.927787 
L 664.017287 -225.072399 
L 664.620125 -229.21701 
L 665.222963 -233.361622 
L 665.825801 -235.780604 
L 666.428639 -235.32061 
L 667.031477 -235.833969 
L 667.634315 -236.753958 
L 668.237153 -237.673946 
L 668.839992 -238.593935 
L 669.44283 -239.513924 
L 670.045668 -240.433913 
L 670.648506 -241.353901 
L 671.251344 -242.27389 
L 671.854182 -243.193879 
L 672.45702 -244.113868 
L 673.059858 -245.033857 
L 673.662696 -245.953845 
L 674.265534 -246.873834 
L 674.868372 -247.793823 
L 675.47121 -248.713812 
L 676.074048 -249.6338 
L 676.676886 -250.553789 
L 677.279724 -251.473778 
L 677.882563 -251.554592 
L 678.485401 -251.554592 
L 679.088239 -251.554592 
L 679.088239 -284.293644 
L 679.088239 -284.293644 
L 678.485401 -284.293644 
L 677.882563 -284.293644 
L 677.279724 -284.293644 
L 676.676886 -282.514999 
L 676.074048 -280.677089 
L 675.47121 -278.839179 
L 674.868372 -277.001269 
L 674.265534 -275.163359 
L 673.662696 -273.325448 
L 673.059858 -271.487538 
L 672.45702 -271.024349 
L 671.854182 -273.634193 
L 671.251344 -273.379577 
L 670.648506 -274.599195 
L 670.045668 -275.818813 
L 669.44283 -276.210917 
L 668.839992 -274.457656 
L 668.237153 -272.704394 
L 667.634315 -270.951132 
L 667.031477 -269.197871 
L 666.428639 -267.444609 
L 665.825801 -265.691347 
L 665.222963 -266.493047 
L 664.620125 -267.076521 
L 664.017287 -270.633139 
L 663.414449 -275.225334 
L 662.811611 -279.81753 
L 662.208773 -284.409725 
L 661.605935 -289.001921 
L 661.003097 -293.594116 
L 660.400259 -298.186312 
L 659.797421 -302.778507 
L 659.194582 -307.370703 
L 658.591744 -311.962898 
L 657.988906 -316.555093 
L 657.386068 -321.147289 
L 656.78323 -325.739484 
L 656.180392 -330.33168 
L 655.577554 -331.72652 
L 654.974716 -326.669426 
L 654.371878 -321.612332 
L 653.76904 -316.555238 
L 653.166202 -311.498144 
L 652.563364 -306.44105 
L 651.960526 -301.383956 
L 651.357688 -296.326862 
L 650.75485 -291.269768 
L 650.152012 -286.212674 
L 649.549173 -281.155581 
L 648.946335 -276.098487 
L 648.343497 -271.041393 
L 647.740659 -266.523201 
L 647.137821 -273.158166 
L 646.534983 -279.793131 
L 645.932145 -276.279055 
L 645.329307 -272.230402 
L 644.726469 -269.863137 
L 644.123631 -271.784115 
L 643.520793 -274.084087 
L 642.917955 -276.384059 
L 642.315117 -278.684031 
L 641.712279 -280.984003 
L 641.109441 -283.283975 
L 640.506602 -285.583947 
L 639.903764 -287.883919 
L 639.300926 -290.183891 
L 638.698088 -292.483863 
L 638.09525 -294.783834 
L 637.492412 -297.083806 
L 636.889574 -299.383778 
L 636.286736 -301.68375 
L 635.683898 -303.983722 
L 635.08106 -306.283694 
L 634.478222 -308.583666 
L 633.875384 -308.210013 
L 633.272546 -307.292089 
L 632.669708 -310.232326 
L 632.06687 -313.448668 
L 631.464031 -316.665011 
L 630.861193 -319.881354 
L 630.258355 -323.097697 
L 629.655517 -326.314039 
L 629.052679 -329.530382 
L 628.449841 -332.746725 
L 627.847003 -335.963068 
L 627.244165 -339.17941 
L 626.641327 -342.395753 
L 626.038489 -345.612096 
L 625.435651 -348.828439 
L 624.832813 -352.044781 
L 624.229975 -355.261124 
L 623.627137 -356.915765 
L 623.024299 -350.490299 
L 622.42146 -344.064834 
L 621.818622 -337.639368 
L 621.215784 -331.213902 
L 620.612946 -324.788436 
L 620.010108 -318.36297 
L 619.40727 -311.937504 
L 618.804432 -305.512039 
L 618.201594 -299.086573 
L 617.598756 -292.661107 
L 616.995918 -286.235641 
L 616.39308 -279.810175 
L 615.790242 -273.384709 
L 615.187404 -266.959243 
L 614.584566 -268.566028 
L 613.981728 -266.609661 
L 613.37889 -264.653295 
L 612.776051 -262.696928 
L 612.173213 -264.062355 
L 611.570375 -263.814265 
L 610.967537 -263.566175 
L 610.364699 -265.297764 
L 609.761861 -270.3634 
L 609.159023 -275.429036 
L 608.556185 -280.494673 
L 607.953347 -285.560309 
L 607.350509 -290.625945 
L 606.747671 -295.691582 
L 606.144833 -300.757218 
L 605.541995 -305.822854 
L 604.939157 -310.888491 
L 604.336319 -315.954127 
L 603.73348 -321.019763 
L 603.130642 -326.0854 
L 602.527804 -331.151036 
L 601.924966 -331.871376 
L 601.322128 -329.116059 
L 600.71929 -326.360741 
L 600.116452 -323.605424 
L 599.513614 -320.850107 
L 598.910776 -318.094789 
L 598.307938 -315.339472 
L 597.7051 -312.584155 
L 597.102262 -309.828838 
L 596.499424 -307.07352 
L 595.896586 -304.318203 
L 595.293748 -301.562886 
L 594.690909 -298.807569 
L 594.088071 -296.052251 
L 593.485233 -293.296934 
L 592.882395 -290.541617 
L 592.279557 -287.7863 
L 591.676719 -285.030982 
L 591.073881 -284.293644 
L 590.471043 -284.293644 
L 589.868205 -284.293644 
L 589.265367 -284.293644 
L 588.662529 -284.293644 
L 588.059691 -284.293644 
L 587.456853 -284.293644 
L 586.854015 -284.293644 
L 586.251177 -284.293644 
L 585.648339 -284.293644 
L 585.0455 -284.293644 
L 584.442662 -284.293644 
L 583.839824 -284.293644 
L 583.236986 -284.293644 
L 582.634148 -284.293644 
L 582.03131 -284.293644 
L 581.428472 -284.293644 
L 580.825634 -284.293644 
L 580.222796 -282.231344 
L 579.619958 -279.937822 
L 579.01712 -277.6443 
L 578.414282 -275.350777 
L 577.811444 -276.339227 
L 577.208606 -277.47719 
L 576.605768 -278.615152 
L 576.002929 -279.753115 
L 575.400091 -279.117066 
L 574.797253 -277.61941 
L 574.194415 -276.121754 
L 573.591577 -274.624098 
L 572.988739 -273.126441 
L 572.385901 -271.628785 
L 571.783063 -270.131129 
L 571.180225 -268.622956 
L 570.577387 -267.195879 
L 569.974549 -267.42852 
L 569.371711 -266.667711 
L 568.768873 -265.906902 
L 568.166035 -265.146092 
L 567.563197 -266.815562 
L 566.960358 -268.65554 
L 566.35752 -271.925256 
L 565.754682 -275.761269 
L 565.151844 -278.327859 
L 564.549006 -276.01545 
L 563.946168 -277.855427 
L 563.34333 -279.695405 
L 562.740492 -281.535382 
L 562.137654 -283.37536 
L 561.534816 -285.215338 
L 560.931978 -287.055315 
L 560.32914 -288.895293 
L 559.726302 -290.73527 
L 559.123464 -292.333227 
L 558.520626 -290.358646 
L 557.917788 -288.519703 
L 557.314949 -286.68076 
L 556.712111 -284.841817 
L 556.109273 -283.002873 
L 555.506435 -281.16393 
L 554.903597 -279.324987 
L 554.300759 -277.486044 
L 553.697921 -281.382175 
L 553.095083 -288.285974 
L 552.492245 -295.189773 
L 551.889407 -302.093571 
L 551.286569 -308.99737 
L 550.683731 -315.901168 
L 550.080893 -322.804967 
L 549.478055 -329.708766 
L 548.875217 -336.612564 
L 548.272378 -340.30506 
L 547.66954 -335.718015 
L 547.066702 -331.130971 
L 546.463864 -326.543927 
L 545.861026 -321.956882 
L 545.258188 -317.369838 
L 544.65535 -312.782794 
L 544.052512 -308.195749 
L 543.449674 -303.608705 
L 542.846836 -299.021661 
L 542.243998 -294.434616 
L 541.64116 -289.847572 
L 541.038322 -285.260527 
L 540.435484 -280.673483 
L 539.832646 -276.086439 
L 539.229807 -272.565074 
L 538.626969 -267.446173 
L 538.024131 -262.327271 
L 537.421293 -265.217666 
L 536.818455 -269.101379 
L 536.215617 -272.985091 
L 535.612779 -276.662513 
L 535.009941 -275.82951 
L 534.407103 -274.996507 
L 533.804265 -276.336658 
L 533.201427 -279.267545 
L 532.598589 -282.198431 
L 531.995751 -285.129318 
L 531.392913 -283.192946 
L 530.790075 -280.955028 
L 530.187236 -282.790875 
L 529.584398 -284.626723 
L 528.98156 -286.46257 
L 528.378722 -288.298418 
L 527.775884 -290.134265 
L 527.173046 -291.970112 
L 526.570208 -291.147118 
L 525.96737 -289.306105 
L 525.364532 -287.465092 
L 524.761694 -285.987848 
L 524.158856 -286.447843 
L 523.556018 -286.907837 
L 522.95318 -287.367832 
L 522.350342 -287.827826 
L 521.747504 -288.28782 
L 521.144666 -288.747815 
L 520.541827 -289.207809 
L 519.938989 -289.667804 
L 519.336151 -290.127798 
L 518.733313 -290.587792 
L 518.130475 -291.047787 
L 517.527637 -291.507781 
L 516.924799 -291.967775 
L 516.321961 -292.42777 
L 515.719123 -292.069739 
L 515.116285 -291.610519 
L 514.513447 -291.1513 
L 513.910609 -290.69208 
L 513.307771 -290.232861 
L 512.704933 -289.773641 
L 512.102095 -289.314421 
L 511.499256 -288.855202 
L 510.896418 -288.395982 
L 510.29358 -287.936763 
L 509.690742 -287.477543 
L 509.087904 -287.018324 
L 508.485066 -286.559104 
L 507.882228 -286.099885 
L 507.27939 -285.640665 
L 506.676552 -285.181446 
L 506.073714 -284.722226 
L 505.470876 -284.385453 
L 504.868038 -285.761566 
L 504.2652 -287.137679 
L 503.662362 -288.513793 
L 503.059524 -289.889906 
L 502.456685 -291.266019 
L 501.853847 -292.642133 
L 501.251009 -294.018246 
L 500.648171 -299.241127 
L 500.045333 -307.065432 
L 499.442495 -314.889737 
L 498.839657 -322.714042 
L 498.236819 -330.538347 
L 497.633981 -338.362652 
L 497.031143 -346.186958 
L 496.428305 -354.011263 
L 495.825467 -361.835568 
L 495.222629 -369.659873 
L 494.619791 -371.547258 
L 494.016953 -364.66283 
L 493.414115 -357.778403 
L 492.811276 -350.893975 
L 492.208438 -344.009547 
L 491.6056 -337.12512 
L 491.002762 -330.240692 
L 490.399924 -323.356264 
L 489.797086 -316.471837 
L 489.194248 -309.587409 
L 488.59141 -302.702981 
L 487.988572 -298.448786 
L 487.385734 -297.528797 
L 486.782896 -296.608808 
L 486.180058 -295.68882 
L 485.57722 -294.768831 
L 484.974382 -293.848842 
L 484.371544 -292.928853 
L 483.768705 -292.243371 
L 483.165867 -291.782859 
L 482.563029 -291.322346 
L 481.960191 -290.861834 
L 481.357353 -290.401322 
L 480.754515 -289.940809 
L 480.151677 -289.480297 
L 479.548839 -289.019785 
L 478.946001 -288.559272 
L 478.343163 -288.09876 
L 477.740325 -290.431407 
L 477.137487 -294.109293 
L 476.534649 -297.78718 
L 475.931811 -301.465066 
L 475.328973 -305.142953 
L 474.726134 -308.820839 
L 474.123296 -312.498726 
L 473.520458 -316.176612 
L 472.91762 -313.865289 
L 472.314782 -309.736949 
L 471.711944 -305.608609 
L 471.109106 -301.480269 
L 470.506268 -297.351929 
L 469.90343 -293.223589 
L 469.300592 -289.095249 
L 468.697754 -284.966909 
L 468.094916 -280.838569 
L 467.492078 -276.710229 
L 466.88924 -272.581889 
L 466.286402 -268.453549 
L 465.683564 -264.325209 
L 465.080725 -260.196869 
L 464.477887 -259.739355 
L 463.875049 -259.739355 
L 463.272211 -262.994226 
L 462.669373 -262.994226 
L 462.066535 -264.762976 
L 461.463697 -268.138228 
L 460.860859 -265.345047 
L 460.258021 -266.344122 
L 459.655183 -264.532465 
L 459.052345 -265.256601 
L 458.449507 -266.666319 
L 457.846669 -268.690645 
L 457.243831 -270.714971 
L 456.640993 -272.739298 
L 456.038154 -271.723509 
L 455.435316 -269.619889 
L 454.832478 -267.516269 
L 454.22964 -268.936226 
L 453.626802 -270.771044 
L 453.023964 -272.605862 
L 452.421126 -274.440679 
L 451.818288 -276.150535 
L 451.21545 -276.609239 
L 450.612612 -277.067944 
L 450.009774 -277.526648 
L 449.406936 -277.985353 
L 448.804098 -282.196703 
L 448.20126 -290.007821 
L 447.598422 -297.818939 
L 446.995583 -305.630057 
L 446.392745 -313.441175 
L 445.789907 -321.252293 
L 445.187069 -329.063411 
L 444.584231 -336.874529 
L 443.981393 -344.685647 
L 443.378555 -352.496765 
L 442.775717 -360.307884 
L 442.172879 -368.119002 
L 441.570041 -375.93012 
L 440.967203 -381.496356 
L 440.364365 -375.056434 
L 439.761527 -368.616513 
L 439.158689 -362.176592 
L 438.555851 -355.73667 
L 437.953013 -349.296749 
L 437.350174 -342.856828 
L 436.747336 -336.416906 
L 436.144498 -329.976985 
L 435.54166 -323.537064 
L 434.938822 -317.097142 
L 434.335984 -316.265071 
L 433.733146 -317.641184 
L 433.130308 -319.017298 
L 432.52747 -320.393411 
L 431.924632 -321.769524 
L 431.321794 -323.145638 
L 430.718956 -324.521751 
L 430.116118 -323.855118 
L 429.51328 -321.099801 
L 428.910442 -318.344484 
L 428.307603 -315.589166 
L 427.704765 -312.833849 
L 427.101927 -310.078532 
L 426.499089 -307.323215 
L 425.896251 -304.567897 
L 425.293413 -301.81258 
L 424.690575 -299.057263 
L 424.087737 -296.301946 
L 423.484899 -293.546628 
L 422.882061 -290.791311 
L 422.279223 -288.035994 
L 421.676385 -285.280676 
L 421.073547 -282.525359 
L 420.470709 -279.770042 
L 419.867871 -277.014725 
L 419.265032 -275.49239 
L 418.662194 -274.573951 
L 418.059356 -273.655512 
L 417.456518 -272.737072 
L 416.85368 -271.818633 
L 416.250842 -270.900194 
L 415.648004 -270.946321 
L 415.045166 -271.40554 
L 414.442328 -271.86476 
L 413.83949 -272.323979 
L 413.236652 -272.783199 
L 412.633814 -273.242418 
L 412.030976 -273.701638 
L 411.428138 -274.160857 
L 410.8253 -274.620077 
L 410.222461 -275.079296 
L 409.619623 -275.538516 
L 409.016785 -275.997736 
L 408.413947 -276.806204 
L 407.811109 -277.726193 
L 407.208271 -278.646181 
L 406.605433 -279.56617 
L 406.002595 -280.486159 
L 405.399757 -281.406148 
L 404.796919 -282.326136 
L 404.194081 -283.246125 
L 403.591243 -284.166114 
L 402.988405 -285.086103 
L 402.385567 -286.006091 
L 401.782729 -286.92608 
L 401.179891 -287.846069 
L 400.577052 -288.766058 
L 399.974214 -289.686046 
L 399.371376 -290.606035 
L 398.768538 -291.526024 
L 398.1657 -292.446013 
L 397.562862 -291.590312 
L 396.960024 -290.669806 
L 396.357186 -289.749299 
L 395.754348 -288.828793 
L 395.15151 -287.908286 
L 394.548672 -286.98778 
L 393.945834 -286.067274 
L 393.342996 -285.146767 
L 392.740158 -284.226261 
L 392.13732 -283.305754 
L 391.534481 -282.385248 
L 390.931643 -281.464741 
L 390.328805 -280.544235 
L 389.725967 -280.805073 
L 389.123129 -281.723512 
L 388.520291 -282.641951 
L 387.917453 -283.56039 
L 387.314615 -284.246876 
L 386.711777 -283.786363 
L 386.108939 -283.325851 
L 385.506101 -282.865339 
L 384.903263 -282.404826 
L 384.300425 -281.944314 
L 383.697587 -281.483801 
L 383.094749 -281.023289 
L 382.49191 -280.562777 
L 381.889072 -280.102264 
L 381.286234 -279.641752 
L 380.683396 -279.181239 
L 380.080558 -278.720727 
L 379.47772 -278.260215 
L 378.874882 -277.799702 
L 378.272044 -277.33919 
L 377.669206 -276.878677 
L 377.066368 -276.418165 
L 376.46353 -276.561546 
L 375.860692 -277.939979 
L 375.257854 -279.318412 
L 374.655016 -280.696844 
L 374.052178 -282.075277 
L 373.44934 -283.453709 
L 372.846501 -284.832142 
L 372.243663 -286.210575 
L 371.640825 -287.589007 
L 371.037987 -288.96744 
L 370.435149 -290.345872 
L 369.832311 -291.724305 
L 369.229473 -293.102738 
L 368.626635 -294.48117 
L 368.023797 -295.859603 
L 367.420959 -297.238035 
L 366.818121 -298.616468 
L 366.215283 -299.994901 
L 365.612445 -298.299941 
L 365.009607 -293.712896 
L 364.406769 -289.125852 
L 363.80393 -284.538808 
L 363.201092 -279.951763 
L 362.598254 -282.298331 
L 361.995416 -287.802784 
L 361.392578 -293.307237 
L 360.78974 -298.81169 
L 360.186902 -307.570015 
L 359.584064 -317.672845 
L 358.981226 -327.775675 
L 358.378388 -337.878505 
L 357.77555 -347.981335 
L 357.172712 -358.084165 
L 356.569874 -368.186995 
L 355.967036 -378.289825 
L 355.364198 -388.392655 
L 354.761359 -389.987273 
L 354.158521 -389.069864 
L 353.555683 -388.152455 
L 352.952845 -387.235046 
L 352.350007 -386.317637 
L 351.747169 -385.400228 
L 351.144331 -384.482819 
L 350.541493 -383.565411 
L 349.938655 -382.648002 
L 349.335817 -381.730593 
L 348.732979 -380.813184 
L 348.130141 -379.895775 
L 347.527303 -378.978366 
L 346.924465 -378.060957 
L 346.321627 -377.143549 
L 345.718789 -376.22614 
L 345.11595 -375.308731 
L 344.513112 -374.391322 
L 343.910274 -367.489885 
L 343.307436 -360.129975 
L 342.704598 -352.770065 
L 342.10176 -345.410155 
L 341.498922 -338.050244 
L 340.896084 -330.690334 
L 340.293246 -323.330424 
L 339.690408 -315.970514 
L 339.08757 -308.610604 
L 338.484732 -301.250694 
L 337.881894 -293.890784 
L 337.279056 -286.530874 
L 336.676218 -279.170964 
L 336.073379 -271.811054 
L 335.470541 -264.451143 
L 334.867703 -264.345552 
L 334.264865 -266.748108 
L 333.662027 -269.150664 
L 333.059189 -270.520631 
L 332.456351 -268.528983 
L 331.853513 -266.537336 
L 331.250675 -264.545688 
L 330.647837 -262.554041 
L 330.044999 -264.174496 
L 329.442161 -263.447002 
L 328.839323 -260.870898 
L 328.236485 -258.294794 
L 327.633647 -259.499157 
L 327.030808 -262.71189 
L 326.42797 -265.924623 
L 325.825132 -269.137356 
L 325.222294 -272.350089 
L 324.619456 -275.562822 
L 324.016618 -278.775555 
L 323.41378 -281.988288 
L 322.810942 -283.257223 
L 322.208104 -279.587588 
L 321.605266 -275.917952 
L 321.002428 -272.248317 
L 320.39959 -268.578681 
L 319.796752 -264.909046 
L 319.193914 -261.23941 
L 318.591076 -258.567669 
L 317.988237 -260.55371 
L 317.385399 -258.989552 
L 316.782561 -258.51005 
L 316.179723 -258.030548 
L 315.576885 -257.706532 
L 314.974047 -261.263587 
L 314.371209 -265.726005 
L 313.768371 -263.348476 
L 313.165533 -260.970947 
L 312.562695 -258.593418 
L 311.959857 -257.077443 
L 311.357019 -256.789206 
L 310.754181 -257.146953 
L 310.151343 -260.190144 
L 309.548505 -263.658861 
L 308.945667 -268.535959 
L 308.342828 -267.900775 
L 307.73999 -267.265591 
L 307.137152 -266.630407 
L 306.534314 -265.995223 
L 305.931476 -265.360039 
L 305.328638 -263.724536 
L 304.7258 -264.642839 
L 304.122962 -268.326938 
L 303.520124 -272.011038 
L 302.917286 -275.695137 
L 302.314448 -279.379236 
L 301.71161 -283.063335 
L 301.108772 -281.848115 
L 300.505934 -278.176421 
L 299.903096 -274.504726 
L 299.300257 -271.671451 
L 298.697419 -274.882382 
L 298.094581 -278.093313 
L 297.491743 -281.304244 
L 296.888905 -284.515175 
L 296.286067 -287.726106 
L 295.683229 -290.937037 
L 295.080391 -294.147968 
L 294.477553 -297.358899 
L 293.874715 -303.26253 
L 293.271877 -310.62244 
L 292.669039 -317.98235 
L 292.066201 -325.34226 
L 291.463363 -332.70217 
L 290.860525 -340.06208 
L 290.257686 -336.859336 
L 289.654848 -330.896178 
L 289.05201 -324.933021 
L 288.449172 -318.969863 
L 287.846334 -313.006705 
L 287.243496 -307.043548 
L 286.640658 -301.08039 
L 286.03782 -295.117232 
L 285.434982 -289.154075 
L 284.832144 -283.190917 
L 284.229306 -277.67306 
L 283.626468 -276.296174 
L 283.02363 -274.919289 
L 282.420792 -273.542403 
L 281.817954 -272.165517 
L 281.215116 -270.788632 
L 280.612277 -269.411746 
L 280.009439 -268.034861 
L 279.406601 -266.655127 
L 278.803763 -265.275144 
L 278.200925 -263.906801 
L 277.598087 -264.098964 
L 276.995249 -261.861289 
L 276.392411 -259.879537 
L 275.789573 -261.106034 
L 275.186735 -264.777729 
L 274.583897 -268.449424 
L 273.981059 -272.121118 
L 273.378221 -275.792813 
L 272.775383 -279.464508 
L 272.172545 -283.136203 
L 271.569706 -286.807897 
L 270.966868 -290.479592 
L 270.36403 -294.151287 
L 269.761192 -297.822982 
L 269.158354 -300.975686 
L 268.555516 -302.355669 
L 267.952678 -303.735652 
L 267.34984 -305.115636 
L 266.747002 -306.495619 
L 266.144164 -307.875602 
L 265.541326 -309.255585 
L 264.938488 -310.635568 
L 264.33565 -312.015551 
L 263.732812 -313.395534 
L 263.129974 -314.775518 
L 262.527135 -316.155501 
L 261.924297 -317.535484 
L 261.321459 -318.915467 
L 260.718621 -320.29545 
L 260.115783 -321.675433 
L 259.512945 -323.055416 
L 258.910107 -324.4354 
L 258.307269 -323.223255 
L 257.704431 -318.620723 
L 257.101593 -314.01819 
L 256.498755 -309.415658 
L 255.895917 -304.813125 
L 255.293079 -300.210593 
L 254.690241 -295.608061 
L 254.087403 -291.005528 
L 253.484565 -286.402996 
L 252.881726 -281.800463 
L 252.278888 -277.197931 
L 251.67605 -272.595398 
L 251.073212 -271.144632 
L 250.470374 -272.065657 
L 249.867536 -272.986682 
L 249.264698 -273.907707 
L 248.66186 -274.828732 
L 248.059022 -275.749756 
L 247.456184 -272.180004 
L 246.853346 -265.740082 
L 246.250508 -263.112674 
L 245.64767 -264.489559 
L 245.044832 -265.866445 
L 244.441994 -267.24333 
L 243.839155 -268.620216 
L 243.236317 -269.997101 
L 242.633479 -271.373987 
L 242.030641 -272.750872 
L 241.427803 -274.127758 
L 240.824965 -275.504644 
L 240.222127 -276.881529 
L 239.619289 -278.258415 
L 239.016451 -279.6353 
L 238.413613 -281.012186 
L 237.810775 -282.389071 
L 237.207937 -283.765957 
L 236.605099 -284.577506 
L 236.002261 -285.03776 
L 235.399423 -285.498013 
L 234.796584 -285.958266 
L 234.193746 -286.418519 
L 233.590908 -286.878773 
L 232.98807 -287.339026 
L 232.385232 -287.799279 
L 231.782394 -288.259532 
L 231.179556 -288.719786 
L 230.576718 -289.180039 
L 229.97388 -289.640292 
L 229.371042 -290.100545 
L 228.768204 -290.560799 
L 228.165366 -291.021052 
L 227.562528 -291.481305 
L 226.95969 -291.941558 
L 226.356852 -292.401812 
L 225.754014 -290.177753 
L 225.151175 -287.417787 
L 224.548337 -284.65782 
L 223.945499 -281.897854 
L 223.342661 -279.137888 
L 222.739823 -276.377921 
L 222.136985 -273.617955 
L 221.534147 -270.857989 
L 220.931309 -268.098023 
L 220.328471 -265.338056 
L 219.725633 -262.57809 
L 219.122795 -259.818124 
L 218.519957 -257.557891 
L 217.917119 -255.802177 
L 217.314281 -255.917549 
L 216.711443 -257.297532 
L 216.108604 -258.677515 
L 215.505766 -257.088164 
L 214.902928 -254.33622 
L 214.30009 -254.433552 
L 213.697252 -254.137214 
L 213.094414 -253.59406 
L 212.491576 -256.595965 
L 211.888738 -260.728941 
L 211.2859 -264.861917 
L 210.683062 -268.994893 
L 210.080224 -273.127869 
L 209.477386 -277.260845 
L 208.874548 -281.39382 
L 208.27171 -285.526796 
L 207.668872 -289.659772 
L 207.066033 -293.792748 
L 206.463195 -297.925724 
L 205.860357 -302.0587 
L 205.257519 -306.191676 
L 204.654681 -308.847932 
L 204.051843 -308.847932 
L 203.449005 -308.847932 
L 202.846167 -308.847932 
L 202.243329 -308.847932 
L 201.640491 -308.847932 
L 201.037653 -308.847932 
L 200.434815 -308.847932 
L 199.831977 -308.847932 
L 199.229139 -308.847932 
L 198.626301 -308.847932 
L 198.023462 -308.847932 
L 197.420624 -308.847932 
L 196.817786 -308.847932 
L 196.214948 -308.847932 
L 195.61211 -308.847932 
L 195.009272 -308.847932 
L 194.406434 -308.847932 
L 193.803596 -307.502922 
L 193.200758 -305.20036 
L 192.59792 -302.897798 
L 191.995082 -300.595236 
L 191.392244 -298.292674 
L 190.789406 -295.990112 
L 190.186568 -293.68755 
L 189.58373 -291.384988 
L 188.980892 -289.082427 
L 188.378053 -286.779865 
L 187.775215 -284.477303 
L 187.172377 -282.174741 
L 186.569539 -279.872179 
L 185.966701 -277.569617 
L 185.363863 -275.267055 
L 184.761025 -276.729481 
L 184.158187 -279.949442 
L 183.555349 -283.169403 
L 182.952511 -283.994424 
L 182.349673 -283.534688 
L 181.746835 -283.074952 
L 181.143997 -282.615216 
L 180.541159 -282.15548 
L 179.938321 -281.695745 
L 179.335482 -283.562773 
L 178.732644 -285.858871 
L 178.129806 -288.154969 
L 177.526968 -290.451066 
L 176.92413 -292.747164 
L 176.321292 -295.043262 
L 175.718454 -297.33936 
L 175.115616 -299.635457 
L 174.512778 -301.931555 
L 173.90994 -304.227653 
L 173.307102 -306.523751 
L 172.704264 -308.819848 
L 172.101426 -306.582463 
L 171.498588 -304.288941 
L 170.89575 -301.995419 
L 170.292911 -299.701896 
L 169.690073 -297.408374 
L 169.087235 -295.114852 
L 168.484397 -292.82133 
L 167.881559 -290.527808 
L 167.278721 -288.234286 
L 166.675883 -285.940763 
L 166.073045 -283.647241 
L 165.470207 -281.353719 
L 164.867369 -279.060197 
L 164.264531 -276.766675 
L 163.661693 -274.473152 
L 163.058855 -272.17963 
L 162.456017 -269.886108 
L 161.853179 -267.899084 
L 161.250341 -267.439606 
L 160.647502 -266.980128 
L 160.044664 -266.520651 
L 159.441826 -266.061173 
L 158.838988 -265.601696 
L 158.23615 -265.142218 
L 157.633312 -264.682741 
L 157.030474 -264.223263 
L 156.427636 -263.763786 
L 155.824798 -263.304308 
L 155.22196 -262.844831 
L 154.619122 -262.385353 
L 154.016284 -261.925876 
L 153.413446 -261.466398 
L 152.810608 -263.418969 
L 152.20777 -268.018913 
L 151.604931 -272.618857 
L 151.002093 -275.997827 
L 150.399255 -275.537573 
L 149.796417 -275.07732 
L 149.193579 -274.617067 
L 148.590741 -274.156814 
L 147.987903 -273.69656 
L 147.385065 -273.236307 
L 146.782227 -272.776054 
L 146.179389 -272.315801 
L 145.576551 -271.855547 
L 144.973713 -271.395294 
L 144.370875 -270.935041 
L 143.768037 -270.474788 
L 143.165199 -270.014534 
L 142.56236 -269.554281 
L 141.959522 -269.094028 
L 141.356684 -268.633775 
L 140.753846 -268.173521 
L 140.151008 -268.344635 
L 139.54817 -269.262558 
L 138.945332 -270.180482 
L 138.342494 -271.098406 
L 137.739656 -272.016329 
L 137.136818 -272.934253 
L 136.53398 -273.852177 
L 135.931142 -275.671202 
L 135.328304 -278.887545 
L 134.725466 -282.103888 
L 134.122628 -285.32023 
L 133.51979 -288.536573 
L 132.916951 -291.752916 
L 132.314113 -294.969259 
L 131.711275 -298.185601 
L 131.108437 -301.401944 
L 130.505599 -304.618287 
L 129.902761 -307.83463 
L 129.299923 -306.96279 
L 128.697085 -304.210563 
L 128.094247 -301.458337 
L 127.491409 -298.70611 
L 126.888571 -295.953883 
L 126.285733 -293.201657 
L 125.682895 -290.44943 
L 125.080057 -287.697204 
L 124.477219 -284.944977 
L 123.87438 -282.19275 
L 123.271542 -279.440524 
L 122.668704 -276.688297 
L 122.065866 -273.93607 
L 121.463028 -271.183844 
L 120.86019 -268.431617 
L 120.257352 -265.679391 
L 119.654514 -262.927164 
L 119.051676 -260.174937 
L 118.448838 -261.284651 
L 117.846 -263.120499 
L 117.243162 -264.956346 
L 116.640324 -266.792194 
L 116.037486 -268.628041 
L 115.434648 -270.463888 
L 114.831809 -272.299736 
L 114.228971 -274.135583 
L 113.626133 -275.971431 
L 113.023295 -277.807278 
L 112.420457 -279.643125 
L 111.817619 -281.478973 
L 111.214781 -283.31482 
L 110.611943 -285.150667 
L 110.009105 -286.986515 
L 109.406267 -288.822362 
L 108.803429 -290.65821 
L 108.200591 -292.501961 
L 107.597753 -295.265036 
L 106.994915 -298.02811 
L 106.392077 -300.791185 
L 105.789238 -303.554259 
L 105.1864 -306.317333 
L 104.583562 -309.080408 
L 103.980724 -311.843482 
L 103.377886 -314.606556 
L 102.775048 -317.369631 
L 102.17221 -320.132705 
L 101.569372 -322.895779 
L 100.966534 -325.658854 
L 100.363696 -328.421928 
L 99.760858 -331.185002 
L 99.15802 -333.948077 
L 98.555182 -336.711151 
L 97.952344 -339.474226 
L 97.349506 -340.396079 
L 96.746668 -335.336141 
L 96.143829 -330.276203 
L 95.540991 -325.216265 
L 94.938153 -320.156327 
L 94.335315 -315.096388 
L 93.732477 -310.03645 
L 93.129639 -304.976512 
L 92.526801 -299.916574 
L 91.923963 -294.856636 
L 91.321125 -289.796697 
L 90.718287 -284.736759 
L 90.115449 -279.676821 
L 89.512611 -280.05923 
L 88.909773 -280.978185 
L 88.306935 -281.89714 
L 87.704097 -282.816095 
L 87.101258 -283.73505 
L 86.49842 -284.293644 
L 85.895582 -284.293644 
L 85.292744 -284.293644 
L 84.689906 -284.293644 
L 84.087068 -284.293644 
L 83.48423 -284.293644 
L 82.881392 -284.293644 
L 82.278554 -284.293644 
L 81.675716 -284.293644 
L 81.072878 -284.293644 
L 80.47004 -284.293644 
L 79.867202 -284.293644 
L 79.264364 -284.293644 
L 78.661526 -284.293644 
L 78.058687 -284.293644 
L 77.455849 -284.293644 
L 76.853011 -284.293644 
z
" style="stroke: #8b0000; stroke-opacity: 0.3"/>
    </defs>
    <g clip-path="url(#p718e3bfe61)">
     <use xlink:href="#m7039ff9c0c" x="0" y="432" style="fill: #8b0000; fill-opacity: 0.3; stroke: #8b0000; stroke-opacity: 0.3"/>
    </g>
   </g>
   <g id="matplotlib.axis_1">
    <g id="xtick_1">
     <g id="line2d_1">
      <defs>
       <path id="m07d36da9f9" d="M 0 0 
L 0 3.5 
" style="stroke: #000000; stroke-width: 0.8"/>
      </defs>
      <g>
       <use xlink:href="#m07d36da9f9" x="76.020478" y="390.04" style="stroke: #000000; stroke-width: 0.8"/>
      </g>
     </g>
     <g id="text_1">
      <!-- 0 -->
      <g transform="translate(72.839228 404.638438) scale(0.1 -0.1)">
       <defs>
        <path id="DejaVuSans-30" d="M 2034 4250 
Q 1547 4250 1301 3770 
Q 1056 3291 1056 2328 
Q 1056 1369 1301 889 
Q 1547 409 2034 409 
Q 2525 409 2770 889 
Q 3016 1369 3016 2328 
Q 3016 3291 2770 3770 
Q 2525 4250 2034 4250 
z
M 2034 4750 
Q 2819 4750 3233 4129 
Q 3647 3509 3647 2328 
Q 3647 1150 3233 529 
Q 2819 -91 2034 -91 
Q 1250 -91 836 529 
Q 422 1150 422 2328 
Q 422 3509 836 4129 
Q 1250 4750 2034 4750 
z
" transform="scale(0.015625)"/>
       </defs>
       <use xlink:href="#DejaVuSans-30"/>
      </g>
     </g>
    </g>
    <g id="xtick_2">
     <g id="line2d_2">
      <g>
       <use xlink:href="#m07d36da9f9" x="196.677467" y="390.04" style="stroke: #000000; stroke-width: 0.8"/>
      </g>
     </g>
     <g id="text_2">
      <!-- 20000 -->
      <g transform="translate(180.771217 404.638438) scale(0.1 -0.1)">
       <defs>
        <path id="DejaVuSans-32" d="M 1228 531 
L 3431 531 
L 3431 0 
L 469 0 
L 469 531 
Q 828 903 1448 1529 
Q 2069 2156 2228 2338 
Q 2531 2678 2651 2914 
Q 2772 3150 2772 3378 
Q 2772 3750 2511 3984 
Q 2250 4219 1831 4219 
Q 1534 4219 1204 4116 
Q 875 4013 500 3803 
L 500 4441 
Q 881 4594 1212 4672 
Q 1544 4750 1819 4750 
Q 2544 4750 2975 4387 
Q 3406 4025 3406 3419 
Q 3406 3131 3298 2873 
Q 3191 2616 2906 2266 
Q 2828 2175 2409 1742 
Q 1991 1309 1228 531 
z
" transform="scale(0.015625)"/>
       </defs>
       <use xlink:href="#DejaVuSans-32"/>
       <use xlink:href="#DejaVuSans-30" transform="translate(63.623047 0)"/>
       <use xlink:href="#DejaVuSans-30" transform="translate(127.246094 0)"/>
       <use xlink:href="#DejaVuSans-30" transform="translate(190.869141 0)"/>
       <use xlink:href="#DejaVuSans-30" transform="translate(254.492188 0)"/>
      </g>
     </g>
    </g>
    <g id="xtick_3">
     <g id="line2d_3">
      <g>
       <use xlink:href="#m07d36da9f9" x="317.334455" y="390.04" style="stroke: #000000; stroke-width: 0.8"/>
      </g>
     </g>
     <g id="text_3">
      <!-- 40000 -->
      <g transform="translate(301.428205 404.638438) scale(0.1 -0.1)">
       <defs>
        <path id="DejaVuSans-34" d="M 2419 4116 
L 825 1625 
L 2419 1625 
L 2419 4116 
z
M 2253 4666 
L 3047 4666 
L 3047 1625 
L 3713 1625 
L 3713 1100 
L 3047 1100 
L 3047 0 
L 2419 0 
L 2419 1100 
L 313 1100 
L 313 1709 
L 2253 4666 
z
" transform="scale(0.015625)"/>
       </defs>
       <use xlink:href="#DejaVuSans-34"/>
       <use xlink:href="#DejaVuSans-30" transform="translate(63.623047 0)"/>
       <use xlink:href="#DejaVuSans-30" transform="translate(127.246094 0)"/>
       <use xlink:href="#DejaVuSans-30" transform="translate(190.869141 0)"/>
       <use xlink:href="#DejaVuSans-30" transform="translate(254.492188 0)"/>
      </g>
     </g>
    </g>
    <g id="xtick_4">
     <g id="line2d_4">
      <g>
       <use xlink:href="#m07d36da9f9" x="437.991444" y="390.04" style="stroke: #000000; stroke-width: 0.8"/>
      </g>
     </g>
     <g id="text_4">
      <!-- 60000 -->
      <g transform="translate(422.085194 404.638438) scale(0.1 -0.1)">
       <defs>
        <path id="DejaVuSans-36" d="M 2113 2584 
Q 1688 2584 1439 2293 
Q 1191 2003 1191 1497 
Q 1191 994 1439 701 
Q 1688 409 2113 409 
Q 2538 409 2786 701 
Q 3034 994 3034 1497 
Q 3034 2003 2786 2293 
Q 2538 2584 2113 2584 
z
M 3366 4563 
L 3366 3988 
Q 3128 4100 2886 4159 
Q 2644 4219 2406 4219 
Q 1781 4219 1451 3797 
Q 1122 3375 1075 2522 
Q 1259 2794 1537 2939 
Q 1816 3084 2150 3084 
Q 2853 3084 3261 2657 
Q 3669 2231 3669 1497 
Q 3669 778 3244 343 
Q 2819 -91 2113 -91 
Q 1303 -91 875 529 
Q 447 1150 447 2328 
Q 447 3434 972 4092 
Q 1497 4750 2381 4750 
Q 2619 4750 2861 4703 
Q 3103 4656 3366 4563 
z
" transform="scale(0.015625)"/>
       </defs>
       <use xlink:href="#DejaVuSans-36"/>
       <use xlink:href="#DejaVuSans-30" transform="translate(63.623047 0)"/>
       <use xlink:href="#DejaVuSans-30" transform="translate(127.246094 0)"/>
       <use xlink:href="#DejaVuSans-30" transform="translate(190.869141 0)"/>
       <use xlink:href="#DejaVuSans-30" transform="translate(254.492188 0)"/>
      </g>
     </g>
    </g>
    <g id="xtick_5">
     <g id="line2d_5">
      <g>
       <use xlink:href="#m07d36da9f9" x="558.648433" y="390.04" style="stroke: #000000; stroke-width: 0.8"/>
      </g>
     </g>
     <g id="text_5">
      <!-- 80000 -->
      <g transform="translate(542.742183 404.638438) scale(0.1 -0.1)">
       <defs>
        <path id="DejaVuSans-38" d="M 2034 2216 
Q 1584 2216 1326 1975 
Q 1069 1734 1069 1313 
Q 1069 891 1326 650 
Q 1584 409 2034 409 
Q 2484 409 2743 651 
Q 3003 894 3003 1313 
Q 3003 1734 2745 1975 
Q 2488 2216 2034 2216 
z
M 1403 2484 
Q 997 2584 770 2862 
Q 544 3141 544 3541 
Q 544 4100 942 4425 
Q 1341 4750 2034 4750 
Q 2731 4750 3128 4425 
Q 3525 4100 3525 3541 
Q 3525 3141 3298 2862 
Q 3072 2584 2669 2484 
Q 3125 2378 3379 2068 
Q 3634 1759 3634 1313 
Q 3634 634 3220 271 
Q 2806 -91 2034 -91 
Q 1263 -91 848 271 
Q 434 634 434 1313 
Q 434 1759 690 2068 
Q 947 2378 1403 2484 
z
M 1172 3481 
Q 1172 3119 1398 2916 
Q 1625 2713 2034 2713 
Q 2441 2713 2670 2916 
Q 2900 3119 2900 3481 
Q 2900 3844 2670 4047 
Q 2441 4250 2034 4250 
Q 1625 4250 1398 4047 
Q 1172 3844 1172 3481 
z
" transform="scale(0.015625)"/>
       </defs>
       <use xlink:href="#DejaVuSans-38"/>
       <use xlink:href="#DejaVuSans-30" transform="translate(63.623047 0)"/>
       <use xlink:href="#DejaVuSans-30" transform="translate(127.246094 0)"/>
       <use xlink:href="#DejaVuSans-30" transform="translate(190.869141 0)"/>
       <use xlink:href="#DejaVuSans-30" transform="translate(254.492188 0)"/>
      </g>
     </g>
    </g>
    <g id="xtick_6">
     <g id="line2d_6">
      <g>
       <use xlink:href="#m07d36da9f9" x="679.305421" y="390.04" style="stroke: #000000; stroke-width: 0.8"/>
      </g>
     </g>
     <g id="text_6">
      <!-- 100000 -->
      <g transform="translate(660.217921 404.638438) scale(0.1 -0.1)">
       <defs>
        <path id="DejaVuSans-31" d="M 794 531 
L 1825 531 
L 1825 4091 
L 703 3866 
L 703 4441 
L 1819 4666 
L 2450 4666 
L 2450 531 
L 3481 531 
L 3481 0 
L 794 0 
L 794 531 
z
" transform="scale(0.015625)"/>
       </defs>
       <use xlink:href="#DejaVuSans-31"/>
       <use xlink:href="#DejaVuSans-30" transform="translate(63.623047 0)"/>
       <use xlink:href="#DejaVuSans-30" transform="translate(127.246094 0)"/>
       <use xlink:href="#DejaVuSans-30" transform="translate(190.869141 0)"/>
       <use xlink:href="#DejaVuSans-30" transform="translate(254.492188 0)"/>
       <use xlink:href="#DejaVuSans-30" transform="translate(318.115234 0)"/>
      </g>
     </g>
    </g>
    <g id="text_7">
     <!-- Step -->
     <g transform="translate(366.585469 418.316562) scale(0.1 -0.1)">
      <defs>
       <path id="DejaVuSans-53" d="M 3425 4513 
L 3425 3897 
Q 3066 4069 2747 4153 
Q 2428 4238 2131 4238 
Q 1616 4238 1336 4038 
Q 1056 3838 1056 3469 
Q 1056 3159 1242 3001 
Q 1428 2844 1947 2747 
L 2328 2669 
Q 3034 2534 3370 2195 
Q 3706 1856 3706 1288 
Q 3706 609 3251 259 
Q 2797 -91 1919 -91 
Q 1588 -91 1214 -16 
Q 841 59 441 206 
L 441 856 
Q 825 641 1194 531 
Q 1563 422 1919 422 
Q 2459 422 2753 634 
Q 3047 847 3047 1241 
Q 3047 1584 2836 1778 
Q 2625 1972 2144 2069 
L 1759 2144 
Q 1053 2284 737 2584 
Q 422 2884 422 3419 
Q 422 4038 858 4394 
Q 1294 4750 2059 4750 
Q 2388 4750 2728 4690 
Q 3069 4631 3425 4513 
z
" transform="scale(0.015625)"/>
       <path id="DejaVuSans-74" d="M 1172 4494 
L 1172 3500 
L 2356 3500 
L 2356 3053 
L 1172 3053 
L 1172 1153 
Q 1172 725 1289 603 
Q 1406 481 1766 481 
L 2356 481 
L 2356 0 
L 1766 0 
Q 1100 0 847 248 
Q 594 497 594 1153 
L 594 3053 
L 172 3053 
L 172 3500 
L 594 3500 
L 594 4494 
L 1172 4494 
z
" transform="scale(0.015625)"/>
       <path id="DejaVuSans-65" d="M 3597 1894 
L 3597 1613 
L 953 1613 
Q 991 1019 1311 708 
Q 1631 397 2203 397 
Q 2534 397 2845 478 
Q 3156 559 3463 722 
L 3463 178 
Q 3153 47 2828 -22 
Q 2503 -91 2169 -91 
Q 1331 -91 842 396 
Q 353 884 353 1716 
Q 353 2575 817 3079 
Q 1281 3584 2069 3584 
Q 2775 3584 3186 3129 
Q 3597 2675 3597 1894 
z
M 3022 2063 
Q 3016 2534 2758 2815 
Q 2500 3097 2075 3097 
Q 1594 3097 1305 2825 
Q 1016 2553 972 2059 
L 3022 2063 
z
" transform="scale(0.015625)"/>
       <path id="DejaVuSans-70" d="M 1159 525 
L 1159 -1331 
L 581 -1331 
L 581 3500 
L 1159 3500 
L 1159 2969 
Q 1341 3281 1617 3432 
Q 1894 3584 2278 3584 
Q 2916 3584 3314 3078 
Q 3713 2572 3713 1747 
Q 3713 922 3314 415 
Q 2916 -91 2278 -91 
Q 1894 -91 1617 61 
Q 1341 213 1159 525 
z
M 3116 1747 
Q 3116 2381 2855 2742 
Q 2594 3103 2138 3103 
Q 1681 3103 1420 2742 
Q 1159 2381 1159 1747 
Q 1159 1113 1420 752 
Q 1681 391 2138 391 
Q 2594 391 2855 752 
Q 3116 1113 3116 1747 
z
" transform="scale(0.015625)"/>
      </defs>
      <use xlink:href="#DejaVuSans-53"/>
      <use xlink:href="#DejaVuSans-74" transform="translate(63.476562 0)"/>
      <use xlink:href="#DejaVuSans-65" transform="translate(102.685547 0)"/>
      <use xlink:href="#DejaVuSans-70" transform="translate(164.208984 0)"/>
     </g>
    </g>
   </g>
   <g id="matplotlib.axis_2">
    <g id="ytick_1">
     <g id="line2d_7">
      <defs>
       <path id="mf4d5cf6bfc" d="M 0 0 
L -3.5 0 
" style="stroke: #000000; stroke-width: 0.8"/>
      </defs>
      <g>
       <use xlink:href="#mf4d5cf6bfc" x="46.74125" y="385.882956" style="stroke: #000000; stroke-width: 0.8"/>
      </g>
     </g>
     <g id="text_8">
      <!-- 6 -->
      <g transform="translate(24.999063 389.682175) scale(0.1 -0.1)">
       <defs>
        <path id="DejaVuSans-2212" d="M 678 2272 
L 4684 2272 
L 4684 1741 
L 678 1741 
L 678 2272 
z
" transform="scale(0.015625)"/>
       </defs>
       <use xlink:href="#DejaVuSans-2212"/>
       <use xlink:href="#DejaVuSans-36" transform="translate(83.789062 0)"/>
      </g>
     </g>
    </g>
    <g id="ytick_2">
     <g id="line2d_8">
      <g>
       <use xlink:href="#mf4d5cf6bfc" x="46.74125" y="317.130948" style="stroke: #000000; stroke-width: 0.8"/>
      </g>
     </g>
     <g id="text_9">
      <!-- 4 -->
      <g transform="translate(24.999063 320.930167) scale(0.1 -0.1)">
       <use xlink:href="#DejaVuSans-2212"/>
       <use xlink:href="#DejaVuSans-34" transform="translate(83.789062 0)"/>
      </g>
     </g>
    </g>
    <g id="ytick_3">
     <g id="line2d_9">
      <g>
       <use xlink:href="#mf4d5cf6bfc" x="46.74125" y="248.37894" style="stroke: #000000; stroke-width: 0.8"/>
      </g>
     </g>
     <g id="text_10">
      <!-- 2 -->
      <g transform="translate(24.999063 252.178158) scale(0.1 -0.1)">
       <use xlink:href="#DejaVuSans-2212"/>
       <use xlink:href="#DejaVuSans-32" transform="translate(83.789062 0)"/>
      </g>
     </g>
    </g>
    <g id="ytick_4">
     <g id="line2d_10">
      <g>
       <use xlink:href="#mf4d5cf6bfc" x="46.74125" y="179.626931" style="stroke: #000000; stroke-width: 0.8"/>
      </g>
     </g>
     <g id="text_11">
      <!-- 0 -->
      <g transform="translate(33.37875 183.42615) scale(0.1 -0.1)">
       <use xlink:href="#DejaVuSans-30"/>
      </g>
     </g>
    </g>
    <g id="ytick_5">
     <g id="line2d_11">
      <g>
       <use xlink:href="#mf4d5cf6bfc" x="46.74125" y="110.874923" style="stroke: #000000; stroke-width: 0.8"/>
      </g>
     </g>
     <g id="text_12">
      <!-- 2 -->
      <g transform="translate(33.37875 114.674142) scale(0.1 -0.1)">
       <use xlink:href="#DejaVuSans-32"/>
      </g>
     </g>
    </g>
    <g id="ytick_6">
     <g id="line2d_12">
      <g>
       <use xlink:href="#mf4d5cf6bfc" x="46.74125" y="42.122915" style="stroke: #000000; stroke-width: 0.8"/>
      </g>
     </g>
     <g id="text_13">
      <!-- 4 -->
      <g transform="translate(33.37875 45.922134) scale(0.1 -0.1)">
       <use xlink:href="#DejaVuSans-34"/>
      </g>
     </g>
    </g>
    <g id="text_14">
     <!-- charts/episodic_return -->
     <g transform="translate(18.64125 263.428281) rotate(-90) scale(0.1 -0.1)">
      <defs>
       <path id="DejaVuSans-63" d="M 3122 3366 
L 3122 2828 
Q 2878 2963 2633 3030 
Q 2388 3097 2138 3097 
Q 1578 3097 1268 2742 
Q 959 2388 959 1747 
Q 959 1106 1268 751 
Q 1578 397 2138 397 
Q 2388 397 2633 464 
Q 2878 531 3122 666 
L 3122 134 
Q 2881 22 2623 -34 
Q 2366 -91 2075 -91 
Q 1284 -91 818 406 
Q 353 903 353 1747 
Q 353 2603 823 3093 
Q 1294 3584 2113 3584 
Q 2378 3584 2631 3529 
Q 2884 3475 3122 3366 
z
" transform="scale(0.015625)"/>
       <path id="DejaVuSans-68" d="M 3513 2113 
L 3513 0 
L 2938 0 
L 2938 2094 
Q 2938 2591 2744 2837 
Q 2550 3084 2163 3084 
Q 1697 3084 1428 2787 
Q 1159 2491 1159 1978 
L 1159 0 
L 581 0 
L 581 4863 
L 1159 4863 
L 1159 2956 
Q 1366 3272 1645 3428 
Q 1925 3584 2291 3584 
Q 2894 3584 3203 3211 
Q 3513 2838 3513 2113 
z
" transform="scale(0.015625)"/>
       <path id="DejaVuSans-61" d="M 2194 1759 
Q 1497 1759 1228 1600 
Q 959 1441 959 1056 
Q 959 750 1161 570 
Q 1363 391 1709 391 
Q 2188 391 2477 730 
Q 2766 1069 2766 1631 
L 2766 1759 
L 2194 1759 
z
M 3341 1997 
L 3341 0 
L 2766 0 
L 2766 531 
Q 2569 213 2275 61 
Q 1981 -91 1556 -91 
Q 1019 -91 701 211 
Q 384 513 384 1019 
Q 384 1609 779 1909 
Q 1175 2209 1959 2209 
L 2766 2209 
L 2766 2266 
Q 2766 2663 2505 2880 
Q 2244 3097 1772 3097 
Q 1472 3097 1187 3025 
Q 903 2953 641 2809 
L 641 3341 
Q 956 3463 1253 3523 
Q 1550 3584 1831 3584 
Q 2591 3584 2966 3190 
Q 3341 2797 3341 1997 
z
" transform="scale(0.015625)"/>
       <path id="DejaVuSans-72" d="M 2631 2963 
Q 2534 3019 2420 3045 
Q 2306 3072 2169 3072 
Q 1681 3072 1420 2755 
Q 1159 2438 1159 1844 
L 1159 0 
L 581 0 
L 581 3500 
L 1159 3500 
L 1159 2956 
Q 1341 3275 1631 3429 
Q 1922 3584 2338 3584 
Q 2397 3584 2469 3576 
Q 2541 3569 2628 3553 
L 2631 2963 
z
" transform="scale(0.015625)"/>
       <path id="DejaVuSans-73" d="M 2834 3397 
L 2834 2853 
Q 2591 2978 2328 3040 
Q 2066 3103 1784 3103 
Q 1356 3103 1142 2972 
Q 928 2841 928 2578 
Q 928 2378 1081 2264 
Q 1234 2150 1697 2047 
L 1894 2003 
Q 2506 1872 2764 1633 
Q 3022 1394 3022 966 
Q 3022 478 2636 193 
Q 2250 -91 1575 -91 
Q 1294 -91 989 -36 
Q 684 19 347 128 
L 347 722 
Q 666 556 975 473 
Q 1284 391 1588 391 
Q 1994 391 2212 530 
Q 2431 669 2431 922 
Q 2431 1156 2273 1281 
Q 2116 1406 1581 1522 
L 1381 1569 
Q 847 1681 609 1914 
Q 372 2147 372 2553 
Q 372 3047 722 3315 
Q 1072 3584 1716 3584 
Q 2034 3584 2315 3537 
Q 2597 3491 2834 3397 
z
" transform="scale(0.015625)"/>
       <path id="DejaVuSans-2f" d="M 1625 4666 
L 2156 4666 
L 531 -594 
L 0 -594 
L 1625 4666 
z
" transform="scale(0.015625)"/>
       <path id="DejaVuSans-69" d="M 603 3500 
L 1178 3500 
L 1178 0 
L 603 0 
L 603 3500 
z
M 603 4863 
L 1178 4863 
L 1178 4134 
L 603 4134 
L 603 4863 
z
" transform="scale(0.015625)"/>
       <path id="DejaVuSans-6f" d="M 1959 3097 
Q 1497 3097 1228 2736 
Q 959 2375 959 1747 
Q 959 1119 1226 758 
Q 1494 397 1959 397 
Q 2419 397 2687 759 
Q 2956 1122 2956 1747 
Q 2956 2369 2687 2733 
Q 2419 3097 1959 3097 
z
M 1959 3584 
Q 2709 3584 3137 3096 
Q 3566 2609 3566 1747 
Q 3566 888 3137 398 
Q 2709 -91 1959 -91 
Q 1206 -91 779 398 
Q 353 888 353 1747 
Q 353 2609 779 3096 
Q 1206 3584 1959 3584 
z
" transform="scale(0.015625)"/>
       <path id="DejaVuSans-64" d="M 2906 2969 
L 2906 4863 
L 3481 4863 
L 3481 0 
L 2906 0 
L 2906 525 
Q 2725 213 2448 61 
Q 2172 -91 1784 -91 
Q 1150 -91 751 415 
Q 353 922 353 1747 
Q 353 2572 751 3078 
Q 1150 3584 1784 3584 
Q 2172 3584 2448 3432 
Q 2725 3281 2906 2969 
z
M 947 1747 
Q 947 1113 1208 752 
Q 1469 391 1925 391 
Q 2381 391 2643 752 
Q 2906 1113 2906 1747 
Q 2906 2381 2643 2742 
Q 2381 3103 1925 3103 
Q 1469 3103 1208 2742 
Q 947 2381 947 1747 
z
" transform="scale(0.015625)"/>
       <path id="DejaVuSans-5f" d="M 3263 -1063 
L 3263 -1509 
L -63 -1509 
L -63 -1063 
L 3263 -1063 
z
" transform="scale(0.015625)"/>
       <path id="DejaVuSans-75" d="M 544 1381 
L 544 3500 
L 1119 3500 
L 1119 1403 
Q 1119 906 1312 657 
Q 1506 409 1894 409 
Q 2359 409 2629 706 
Q 2900 1003 2900 1516 
L 2900 3500 
L 3475 3500 
L 3475 0 
L 2900 0 
L 2900 538 
Q 2691 219 2414 64 
Q 2138 -91 1772 -91 
Q 1169 -91 856 284 
Q 544 659 544 1381 
z
M 1991 3584 
L 1991 3584 
z
" transform="scale(0.015625)"/>
       <path id="DejaVuSans-6e" d="M 3513 2113 
L 3513 0 
L 2938 0 
L 2938 2094 
Q 2938 2591 2744 2837 
Q 2550 3084 2163 3084 
Q 1697 3084 1428 2787 
Q 1159 2491 1159 1978 
L 1159 0 
L 581 0 
L 581 3500 
L 1159 3500 
L 1159 2956 
Q 1366 3272 1645 3428 
Q 1925 3584 2291 3584 
Q 2894 3584 3203 3211 
Q 3513 2838 3513 2113 
z
" transform="scale(0.015625)"/>
      </defs>
      <use xlink:href="#DejaVuSans-63"/>
      <use xlink:href="#DejaVuSans-68" transform="translate(54.980469 0)"/>
      <use xlink:href="#DejaVuSans-61" transform="translate(118.359375 0)"/>
      <use xlink:href="#DejaVuSans-72" transform="translate(179.638672 0)"/>
      <use xlink:href="#DejaVuSans-74" transform="translate(220.751953 0)"/>
      <use xlink:href="#DejaVuSans-73" transform="translate(259.960938 0)"/>
      <use xlink:href="#DejaVuSans-2f" transform="translate(312.060547 0)"/>
      <use xlink:href="#DejaVuSans-65" transform="translate(345.751953 0)"/>
      <use xlink:href="#DejaVuSans-70" transform="translate(407.275391 0)"/>
      <use xlink:href="#DejaVuSans-69" transform="translate(470.751953 0)"/>
      <use xlink:href="#DejaVuSans-73" transform="translate(498.535156 0)"/>
      <use xlink:href="#DejaVuSans-6f" transform="translate(550.634766 0)"/>
      <use xlink:href="#DejaVuSans-64" transform="translate(611.816406 0)"/>
      <use xlink:href="#DejaVuSans-69" transform="translate(675.292969 0)"/>
      <use xlink:href="#DejaVuSans-63" transform="translate(703.076172 0)"/>
      <use xlink:href="#DejaVuSans-5f" transform="translate(758.056641 0)"/>
      <use xlink:href="#DejaVuSans-72" transform="translate(808.056641 0)"/>
      <use xlink:href="#DejaVuSans-65" transform="translate(846.919922 0)"/>
      <use xlink:href="#DejaVuSans-74" transform="translate(908.443359 0)"/>
      <use xlink:href="#DejaVuSans-75" transform="translate(947.652344 0)"/>
      <use xlink:href="#DejaVuSans-72" transform="translate(1011.03125 0)"/>
      <use xlink:href="#DejaVuSans-6e" transform="translate(1050.394531 0)"/>
     </g>
    </g>
   </g>
   <g id="line2d_13">
    <path d="M 76.853011 177.690191 
L 78.661526 177.680387 
L 79.867202 177.38702 
L 82.278554 177.424706 
L 82.881392 177.609975 
L 84.689906 177.621848 
L 86.49842 177.493958 
L 88.909773 177.390707 
L 90.115449 177.158898 
L 91.923963 176.744656 
L 93.732477 176.447184 
L 94.938153 176.025529 
L 95.540991 176.001881 
L 96.143829 176.098718 
L 96.746668 176.053716 
L 97.349506 175.888047 
L 102.775048 176.159608 
L 103.980724 176.195974 
L 108.200591 176.482431 
L 111.817619 178.406815 
L 113.023295 178.959865 
L 114.831809 179.585535 
L 116.640324 180.28848 
L 119.051676 181.369155 
L 119.654514 181.056377 
L 121.463028 179.861227 
L 125.080057 177.768988 
L 126.285733 176.896868 
L 127.491409 176.279024 
L 129.299923 175.006095 
L 129.902761 174.808205 
L 131.108437 175.450137 
L 132.916951 176.739361 
L 134.122628 177.372237 
L 134.725466 177.914065 
L 135.328304 178.670384 
L 136.53398 179.473566 
L 137.739656 180.172469 
L 140.151008 181.777533 
L 140.753846 181.826245 
L 141.959522 181.417588 
L 142.56236 181.673016 
L 143.768037 181.551438 
L 144.370875 181.374389 
L 147.987903 181.595373 
L 151.002093 181.066642 
L 152.20777 181.094626 
L 153.413446 181.158715 
L 154.619122 181.313894 
L 157.633312 181.167848 
L 158.838988 180.959551 
L 159.441826 180.963929 
L 160.647502 181.247943 
L 161.250341 181.345236 
L 161.853179 181.249498 
L 163.058855 180.723463 
L 163.661693 180.524652 
L 165.470207 180.458221 
L 166.675883 180.192409 
L 167.278721 180.124786 
L 168.484397 180.163698 
L 170.89575 180.135508 
L 176.321292 179.369263 
L 176.92413 179.444997 
L 178.732644 178.951674 
L 180.541159 178.836353 
L 181.746835 178.905202 
L 182.952511 178.853099 
L 183.555349 178.953506 
L 186.569539 180.09077 
L 189.58373 180.767923 
L 193.200758 182.99087 
L 193.803596 183.182455 
L 195.61211 183.334995 
L 196.214948 183.502411 
L 196.817786 183.935984 
L 198.626301 184.609504 
L 199.229139 184.738129 
L 199.831977 185.090099 
L 200.434815 185.300141 
L 202.243329 185.627484 
L 205.257519 186.430962 
L 206.463195 185.649779 
L 207.066033 185.269321 
L 208.27171 184.758041 
L 210.080224 183.686248 
L 211.2859 183.1494 
L 211.888738 182.981139 
L 213.094414 182.286038 
L 214.902928 181.080884 
L 218.519957 179.70368 
L 219.122795 179.453707 
L 220.328471 179.38284 
L 221.534147 178.787556 
L 222.136985 178.69038 
L 222.739823 178.941074 
L 223.945499 178.575463 
L 224.548337 178.602001 
L 226.356852 178.055167 
L 226.95969 178.223684 
L 227.562528 178.575072 
L 228.768204 178.900781 
L 229.97388 178.957909 
L 230.576718 179.456014 
L 231.179556 179.738424 
L 234.796584 180.613202 
L 235.399423 180.637558 
L 237.207937 181.263905 
L 237.810775 181.393905 
L 238.413613 181.648838 
L 239.016451 181.713536 
L 240.222127 181.48084 
L 240.824965 181.293139 
L 242.633479 181.674095 
L 243.839155 181.629868 
L 245.044832 181.671753 
L 246.853346 181.386425 
L 247.456184 181.558125 
L 248.059022 181.314019 
L 249.264698 180.599404 
L 250.470374 180.133521 
L 253.484565 178.231982 
L 254.087403 177.74584 
L 254.690241 177.410656 
L 255.293079 177.450701 
L 255.895917 177.296544 
L 258.307269 176.032089 
L 258.910107 176.235362 
L 259.512945 176.231422 
L 261.321459 175.939452 
L 261.924297 176.398431 
L 263.129974 176.874918 
L 266.144164 177.433087 
L 268.555516 178.415581 
L 269.761192 178.771692 
L 270.36403 179.055015 
L 271.569706 179.802121 
L 272.775383 180.497744 
L 275.789573 181.600103 
L 276.392411 181.861333 
L 277.598087 182.624245 
L 278.803763 183.197897 
L 280.009439 184.022247 
L 281.215116 182.89268 
L 282.420792 181.977471 
L 283.02363 181.748438 
L 283.626468 181.22094 
L 286.03782 178.384097 
L 287.243496 177.528891 
L 287.846334 177.103145 
L 289.654848 175.072369 
L 290.257686 174.411088 
L 290.860525 173.996176 
L 292.669039 175.302357 
L 293.271877 175.72547 
L 293.874715 175.882918 
L 294.477553 176.290819 
L 295.080391 176.962254 
L 295.683229 177.304875 
L 296.888905 178.304649 
L 298.697419 179.203986 
L 301.108772 181.061334 
L 301.71161 181.312231 
L 302.917286 181.55283 
L 303.520124 181.808393 
L 304.122962 182.226219 
L 304.7258 182.42823 
L 306.534314 182.492216 
L 307.137152 182.458315 
L 307.73999 182.742748 
L 308.342828 182.65356 
L 308.945667 182.680566 
L 310.151343 183.218462 
L 310.754181 183.610656 
L 311.357019 183.780957 
L 311.959857 183.803681 
L 312.562695 183.573714 
L 313.768371 182.85073 
L 314.371209 182.53896 
L 314.974047 182.542272 
L 315.576885 182.757559 
L 316.782561 182.234295 
L 317.988237 181.559423 
L 323.41378 180.447264 
L 325.222294 180.346412 
L 327.633647 180.457264 
L 328.839323 180.324396 
L 331.853513 180.265392 
L 334.264865 180.082988 
L 334.867703 180.087456 
L 337.279056 179.673193 
L 339.690408 179.204458 
L 341.498922 178.442212 
L 342.10176 178.339938 
L 343.307436 178.427671 
L 344.513112 178.050501 
L 347.527303 175.435688 
L 348.732979 174.962466 
L 349.938655 174.185715 
L 352.952845 171.402242 
L 354.761359 169.785383 
L 355.364198 169.690322 
L 358.981226 173.08866 
L 360.186902 173.952798 
L 360.78974 174.494795 
L 361.995416 175.800293 
L 363.201092 176.56096 
L 364.406769 177.686844 
L 365.009607 178.008354 
L 366.215283 178.895587 
L 366.818121 178.894535 
L 369.229473 178.239264 
L 371.037987 178.056751 
L 371.640825 177.990176 
L 372.846501 177.594795 
L 374.052178 177.573628 
L 374.655016 177.409267 
L 376.46353 177.768957 
L 379.47772 177.410438 
L 381.286234 177.096994 
L 382.49191 177.013362 
L 383.697587 176.927592 
L 385.506101 176.491467 
L 386.108939 176.504653 
L 387.314615 176.859453 
L 388.520291 177.258749 
L 390.328805 177.20589 
L 391.534481 177.001207 
L 392.740158 177.214123 
L 393.945834 177.130104 
L 395.754348 176.673285 
L 396.357186 176.862143 
L 397.562862 176.791374 
L 398.1657 176.726656 
L 401.782729 177.847225 
L 406.002595 178.868308 
L 408.413947 179.945819 
L 409.016785 180.102622 
L 410.222461 179.698948 
L 412.633814 178.559185 
L 414.442328 178.450676 
L 415.648004 177.930351 
L 418.662194 176.884386 
L 419.867871 176.347397 
L 422.882061 176.374011 
L 427.101927 174.766479 
L 428.307603 174.540857 
L 428.910442 174.609484 
L 429.51328 174.808742 
L 430.116118 174.667061 
L 431.924632 174.526215 
L 434.938822 173.586971 
L 436.144498 173.613923 
L 436.747336 173.734335 
L 437.953013 173.61961 
L 440.967203 172.71852 
L 442.172879 173.47064 
L 443.378555 174.12171 
L 444.584231 174.534747 
L 446.392745 175.518544 
L 448.20126 176.690325 
L 451.21545 178.149883 
L 451.818288 178.404656 
L 453.023964 178.671768 
L 454.22964 178.947807 
L 455.435316 178.825762 
L 457.243831 179.02979 
L 457.846669 179.268347 
L 458.449507 179.383667 
L 460.860859 179.318285 
L 461.463697 179.378879 
L 462.669373 179.870716 
L 464.477887 179.514321 
L 465.683564 178.863874 
L 466.88924 178.165077 
L 471.711944 175.936573 
L 472.91762 175.775711 
L 473.520458 175.577168 
L 474.123296 175.559066 
L 475.931811 175.964843 
L 477.137487 176.395259 
L 478.946001 177.199843 
L 480.754515 178.831531 
L 481.357353 179.184348 
L 483.768705 179.718485 
L 484.371544 179.613981 
L 484.974382 179.211819 
L 488.59141 175.680035 
L 489.194248 175.151433 
L 489.797086 174.873997 
L 491.002762 173.908994 
L 494.016953 171.223421 
L 494.619791 170.918357 
L 495.222629 171.194717 
L 495.825467 171.700304 
L 500.648171 174.103868 
L 504.868038 176.648728 
L 505.470876 176.982352 
L 506.676552 177.203414 
L 508.485066 177.90545 
L 512.102095 177.677509 
L 514.513447 178.249336 
L 517.527637 178.436771 
L 519.336151 178.822551 
L 522.350342 178.72137 
L 522.95318 178.762741 
L 524.761694 178.538889 
L 525.364532 178.47371 
L 527.173046 179.254543 
L 528.378722 178.978988 
L 532.598589 178.040857 
L 535.009941 178.311238 
L 535.612779 178.414357 
L 536.818455 179.029197 
L 537.421293 179.117387 
L 538.626969 178.714192 
L 539.229807 178.482798 
L 541.038322 178.463287 
L 542.243998 178.06031 
L 544.052512 177.313119 
L 544.65535 177.162915 
L 545.861026 176.513157 
L 547.66954 175.514293 
L 548.272378 175.426202 
L 550.080893 175.975133 
L 552.492245 176.452529 
L 554.300759 176.126847 
L 554.903597 176.43282 
L 556.712111 176.339866 
L 559.123464 176.542204 
L 560.32914 177.046918 
L 562.137654 177.974361 
L 563.946168 178.301312 
L 565.151844 178.649775 
L 568.166035 180.502803 
L 569.974549 181.104295 
L 572.385901 180.421873 
L 573.591577 180.362824 
L 574.797253 180.320846 
L 576.605768 179.742406 
L 577.811444 179.495741 
L 579.619958 179.550055 
L 580.222796 179.690843 
L 580.825634 179.59819 
L 583.839824 178.674088 
L 587.456853 177.744537 
L 589.265367 177.610388 
L 590.471043 177.228325 
L 591.676719 176.844124 
L 593.485233 176.658968 
L 595.293748 177.057583 
L 597.102262 177.175785 
L 598.307938 176.883639 
L 600.116452 176.378395 
L 600.71929 176.356979 
L 602.527804 177.305598 
L 605.541995 178.246197 
L 607.953347 178.460343 
L 609.159023 178.746186 
L 612.173213 180.111098 
L 612.776051 180.364992 
L 613.981728 180.281862 
L 614.584566 180.048296 
L 615.790242 179.917861 
L 616.39308 179.592367 
L 616.995918 179.123437 
L 618.201594 178.508821 
L 620.010108 178.137168 
L 622.42146 178.015551 
L 623.627137 177.651137 
L 624.832813 177.228669 
L 626.038489 176.897349 
L 627.244165 176.222423 
L 630.258355 174.42213 
L 631.464031 174.122351 
L 632.669708 173.488312 
L 634.478222 172.234089 
L 635.683898 173.012683 
L 636.286736 173.508478 
L 639.300926 177.099367 
L 639.903764 177.68009 
L 641.712279 178.9551 
L 642.917955 179.752367 
L 645.329307 181.052386 
L 646.534983 180.433514 
L 648.343497 180.425847 
L 649.549173 180.428078 
L 650.75485 180.27081 
L 651.960526 180.123907 
L 652.563364 180.181499 
L 653.166202 180.112609 
L 654.974716 179.172692 
L 655.577554 178.831279 
L 656.180392 178.876621 
L 656.78323 179.079674 
L 659.194582 179.304621 
L 661.605935 178.927113 
L 662.208773 178.890124 
L 663.414449 179.180229 
L 666.428639 178.785862 
L 667.031477 178.468281 
L 667.634315 178.590523 
L 670.045668 177.000916 
L 670.648506 176.75449 
L 671.854182 176.568967 
L 674.265534 176.738063 
L 674.868372 176.516945 
L 677.279724 174.802463 
L 678.485401 174.533631 
L 679.088239 174.501378 
L 679.088239 174.501378 
" clip-path="url(#p718e3bfe61)" style="fill: none; stroke: #8b0000; stroke-width: 1.5; stroke-linecap: square"/>
   </g>
   <g id="patch_3">
    <path d="M 46.74125 390.04 
L 46.74125 25.44 
" style="fill: none; stroke: #000000; stroke-width: 0.8; stroke-linejoin: miter; stroke-linecap: square"/>
   </g>
   <g id="patch_4">
    <path d="M 709.2 390.04 
L 709.2 25.44 
" style="fill: none; stroke: #000000; stroke-width: 0.8; stroke-linejoin: miter; stroke-linecap: square"/>
   </g>
   <g id="patch_5">
    <path d="M 46.74125 390.04 
L 709.2 390.04 
" style="fill: none; stroke: #000000; stroke-width: 0.8; stroke-linejoin: miter; stroke-linecap: square"/>
   </g>
   <g id="patch_6">
    <path d="M 46.74125 25.44 
L 709.2 25.44 
" style="fill: none; stroke: #000000; stroke-width: 0.8; stroke-linejoin: miter; stroke-linecap: square"/>
   </g>
   <g id="text_15">
    <!-- charts/episodic_return for sac_atari (aggregated via interpolation over runs) -->
    <g transform="translate(149.49625 19.44) scale(0.12 -0.12)">
     <defs>
      <path id="DejaVuSans-20" transform="scale(0.015625)"/>
      <path id="DejaVuSans-66" d="M 2375 4863 
L 2375 4384 
L 1825 4384 
Q 1516 4384 1395 4259 
Q 1275 4134 1275 3809 
L 1275 3500 
L 2222 3500 
L 2222 3053 
L 1275 3053 
L 1275 0 
L 697 0 
L 697 3053 
L 147 3053 
L 147 3500 
L 697 3500 
L 697 3744 
Q 697 4328 969 4595 
Q 1241 4863 1831 4863 
L 2375 4863 
z
" transform="scale(0.015625)"/>
      <path id="DejaVuSans-28" d="M 1984 4856 
Q 1566 4138 1362 3434 
Q 1159 2731 1159 2009 
Q 1159 1288 1364 580 
Q 1569 -128 1984 -844 
L 1484 -844 
Q 1016 -109 783 600 
Q 550 1309 550 2009 
Q 550 2706 781 3412 
Q 1013 4119 1484 4856 
L 1984 4856 
z
" transform="scale(0.015625)"/>
      <path id="DejaVuSans-67" d="M 2906 1791 
Q 2906 2416 2648 2759 
Q 2391 3103 1925 3103 
Q 1463 3103 1205 2759 
Q 947 2416 947 1791 
Q 947 1169 1205 825 
Q 1463 481 1925 481 
Q 2391 481 2648 825 
Q 2906 1169 2906 1791 
z
M 3481 434 
Q 3481 -459 3084 -895 
Q 2688 -1331 1869 -1331 
Q 1566 -1331 1297 -1286 
Q 1028 -1241 775 -1147 
L 775 -588 
Q 1028 -725 1275 -790 
Q 1522 -856 1778 -856 
Q 2344 -856 2625 -561 
Q 2906 -266 2906 331 
L 2906 616 
Q 2728 306 2450 153 
Q 2172 0 1784 0 
Q 1141 0 747 490 
Q 353 981 353 1791 
Q 353 2603 747 3093 
Q 1141 3584 1784 3584 
Q 2172 3584 2450 3431 
Q 2728 3278 2906 2969 
L 2906 3500 
L 3481 3500 
L 3481 434 
z
" transform="scale(0.015625)"/>
      <path id="DejaVuSans-76" d="M 191 3500 
L 800 3500 
L 1894 563 
L 2988 3500 
L 3597 3500 
L 2284 0 
L 1503 0 
L 191 3500 
z
" transform="scale(0.015625)"/>
      <path id="DejaVuSans-6c" d="M 603 4863 
L 1178 4863 
L 1178 0 
L 603 0 
L 603 4863 
z
" transform="scale(0.015625)"/>
      <path id="DejaVuSans-29" d="M 513 4856 
L 1013 4856 
Q 1481 4119 1714 3412 
Q 1947 2706 1947 2009 
Q 1947 1309 1714 600 
Q 1481 -109 1013 -844 
L 513 -844 
Q 928 -128 1133 580 
Q 1338 1288 1338 2009 
Q 1338 2731 1133 3434 
Q 928 4138 513 4856 
z
" transform="scale(0.015625)"/>
     </defs>
     <use xlink:href="#DejaVuSans-63"/>
     <use xlink:href="#DejaVuSans-68" transform="translate(54.980469 0)"/>
     <use xlink:href="#DejaVuSans-61" transform="translate(118.359375 0)"/>
     <use xlink:href="#DejaVuSans-72" transform="translate(179.638672 0)"/>
     <use xlink:href="#DejaVuSans-74" transform="translate(220.751953 0)"/>
     <use xlink:href="#DejaVuSans-73" transform="translate(259.960938 0)"/>
     <use xlink:href="#DejaVuSans-2f" transform="translate(312.060547 0)"/>
     <use xlink:href="#DejaVuSans-65" transform="translate(345.751953 0)"/>
     <use xlink:href="#DejaVuSans-70" transform="translate(407.275391 0)"/>
     <use xlink:href="#DejaVuSans-69" transform="translate(470.751953 0)"/>
     <use xlink:href="#DejaVuSans-73" transform="translate(498.535156 0)"/>
     <use xlink:href="#DejaVuSans-6f" transform="translate(550.634766 0)"/>
     <use xlink:href="#DejaVuSans-64" transform="translate(611.816406 0)"/>
     <use xlink:href="#DejaVuSans-69" transform="translate(675.292969 0)"/>
     <use xlink:href="#DejaVuSans-63" transform="translate(703.076172 0)"/>
     <use xlink:href="#DejaVuSans-5f" transform="translate(758.056641 0)"/>
     <use xlink:href="#DejaVuSans-72" transform="translate(808.056641 0)"/>
     <use xlink:href="#DejaVuSans-65" transform="translate(846.919922 0)"/>
     <use xlink:href="#DejaVuSans-74" transform="translate(908.443359 0)"/>
     <use xlink:href="#DejaVuSans-75" transform="translate(947.652344 0)"/>
     <use xlink:href="#DejaVuSans-72" transform="translate(1011.03125 0)"/>
     <use xlink:href="#DejaVuSans-6e" transform="translate(1050.394531 0)"/>
     <use xlink:href="#DejaVuSans-20" transform="translate(1113.773438 0)"/>
     <use xlink:href="#DejaVuSans-66" transform="translate(1145.560547 0)"/>
     <use xlink:href="#DejaVuSans-6f" transform="translate(1180.765625 0)"/>
     <use xlink:href="#DejaVuSans-72" transform="translate(1241.947266 0)"/>
     <use xlink:href="#DejaVuSans-20" transform="translate(1283.060547 0)"/>
     <use xlink:href="#DejaVuSans-73" transform="translate(1314.847656 0)"/>
     <use xlink:href="#DejaVuSans-61" transform="translate(1366.947266 0)"/>
     <use xlink:href="#DejaVuSans-63" transform="translate(1428.226562 0)"/>
     <use xlink:href="#DejaVuSans-5f" transform="translate(1483.207031 0)"/>
     <use xlink:href="#DejaVuSans-61" transform="translate(1533.207031 0)"/>
     <use xlink:href="#DejaVuSans-74" transform="translate(1594.486328 0)"/>
     <use xlink:href="#DejaVuSans-61" transform="translate(1633.695312 0)"/>
     <use xlink:href="#DejaVuSans-72" transform="translate(1694.974609 0)"/>
     <use xlink:href="#DejaVuSans-69" transform="translate(1736.087891 0)"/>
     <use xlink:href="#DejaVuSans-20" transform="translate(1763.871094 0)"/>
     <use xlink:href="#DejaVuSans-28" transform="translate(1795.658203 0)"/>
     <use xlink:href="#DejaVuSans-61" transform="translate(1834.671875 0)"/>
     <use xlink:href="#DejaVuSans-67" transform="translate(1895.951172 0)"/>
     <use xlink:href="#DejaVuSans-67" transform="translate(1959.427734 0)"/>
     <use xlink:href="#DejaVuSans-72" transform="translate(2022.904297 0)"/>
     <use xlink:href="#DejaVuSans-65" transform="translate(2061.767578 0)"/>
     <use xlink:href="#DejaVuSans-67" transform="translate(2123.291016 0)"/>
     <use xlink:href="#DejaVuSans-61" transform="translate(2186.767578 0)"/>
     <use xlink:href="#DejaVuSans-74" transform="translate(2248.046875 0)"/>
     <use xlink:href="#DejaVuSans-65" transform="translate(2287.255859 0)"/>
     <use xlink:href="#DejaVuSans-64" transform="translate(2348.779297 0)"/>
     <use xlink:href="#DejaVuSans-20" transform="translate(2412.255859 0)"/>
     <use xlink:href="#DejaVuSans-76" transform="translate(2444.042969 0)"/>
     <use xlink:href="#DejaVuSans-69" transform="translate(2503.222656 0)"/>
     <use xlink:href="#DejaVuSans-61" transform="translate(2531.005859 0)"/>
     <use xlink:href="#DejaVuSans-20" transform="translate(2592.285156 0)"/>
     <use xlink:href="#DejaVuSans-69" transform="translate(2624.072266 0)"/>
     <use xlink:href="#DejaVuSans-6e" transform="translate(2651.855469 0)"/>
     <use xlink:href="#DejaVuSans-74" transform="translate(2715.234375 0)"/>
     <use xlink:href="#DejaVuSans-65" transform="translate(2754.443359 0)"/>
     <use xlink:href="#DejaVuSans-72" transform="translate(2815.966797 0)"/>
     <use xlink:href="#DejaVuSans-70" transform="translate(2857.080078 0)"/>
     <use xlink:href="#DejaVuSans-6f" transform="translate(2920.556641 0)"/>
     <use xlink:href="#DejaVuSans-6c" transform="translate(2981.738281 0)"/>
     <use xlink:href="#DejaVuSans-61" transform="translate(3009.521484 0)"/>
     <use xlink:href="#DejaVuSans-74" transform="translate(3070.800781 0)"/>
     <use xlink:href="#DejaVuSans-69" transform="translate(3110.009766 0)"/>
     <use xlink:href="#DejaVuSans-6f" transform="translate(3137.792969 0)"/>
     <use xlink:href="#DejaVuSans-6e" transform="translate(3198.974609 0)"/>
     <use xlink:href="#DejaVuSans-20" transform="translate(3262.353516 0)"/>
     <use xlink:href="#DejaVuSans-6f" transform="translate(3294.140625 0)"/>
     <use xlink:href="#DejaVuSans-76" transform="translate(3355.322266 0)"/>
     <use xlink:href="#DejaVuSans-65" transform="translate(3414.501953 0)"/>
     <use xlink:href="#DejaVuSans-72" transform="translate(3476.025391 0)"/>
     <use xlink:href="#DejaVuSans-20" transform="translate(3517.138672 0)"/>
     <use xlink:href="#DejaVuSans-72" transform="translate(3548.925781 0)"/>
     <use xlink:href="#DejaVuSans-75" transform="translate(3590.039062 0)"/>
     <use xlink:href="#DejaVuSans-6e" transform="translate(3653.417969 0)"/>
     <use xlink:href="#DejaVuSans-73" transform="translate(3716.796875 0)"/>
     <use xlink:href="#DejaVuSans-29" transform="translate(3768.896484 0)"/>
    </g>
   </g>
   <g id="legend_1">
    <g id="patch_7">
     <path d="M 626.78125 62.79625 
L 702.2 62.79625 
Q 704.2 62.79625 704.2 60.79625 
L 704.2 32.44 
Q 704.2 30.44 702.2 30.44 
L 626.78125 30.44 
Q 624.78125 30.44 624.78125 32.44 
L 624.78125 60.79625 
Q 624.78125 62.79625 626.78125 62.79625 
z
" style="fill: #ffffff; opacity: 0.8; stroke: #cccccc; stroke-linejoin: miter"/>
    </g>
    <g id="line2d_14">
     <path d="M 628.78125 38.538437 
L 638.78125 38.538437 
L 648.78125 38.538437 
" style="fill: none; stroke: #8b0000; stroke-width: 1.5; stroke-linecap: square"/>
    </g>
    <g id="text_16">
     <!-- Mean -->
     <g transform="translate(656.78125 42.038437) scale(0.1 -0.1)">
      <defs>
       <path id="DejaVuSans-4d" d="M 628 4666 
L 1569 4666 
L 2759 1491 
L 3956 4666 
L 4897 4666 
L 4897 0 
L 4281 0 
L 4281 4097 
L 3078 897 
L 2444 897 
L 1241 4097 
L 1241 0 
L 628 0 
L 628 4666 
z
" transform="scale(0.015625)"/>
      </defs>
      <use xlink:href="#DejaVuSans-4d"/>
      <use xlink:href="#DejaVuSans-65" transform="translate(86.279297 0)"/>
      <use xlink:href="#DejaVuSans-61" transform="translate(147.802734 0)"/>
      <use xlink:href="#DejaVuSans-6e" transform="translate(209.082031 0)"/>
     </g>
    </g>
    <g id="patch_8">
     <path d="M 628.78125 56.716563 
L 648.78125 56.716563 
L 648.78125 49.716563 
L 628.78125 49.716563 
z
" style="fill: #8b0000; fill-opacity: 0.3; stroke: #8b0000; stroke-opacity: 0.3; stroke-linejoin: miter"/>
    </g>
    <g id="text_17">
     <!-- MinMax -->
     <g transform="translate(656.78125 56.716563) scale(0.1 -0.1)">
      <defs>
       <path id="DejaVuSans-2013" d="M 313 1978 
L 2888 1978 
L 2888 1528 
L 313 1528 
L 313 1978 
z
" transform="scale(0.015625)"/>
       <path id="DejaVuSans-78" d="M 3513 3500 
L 2247 1797 
L 3578 0 
L 2900 0 
L 1881 1375 
L 863 0 
L 184 0 
L 1544 1831 
L 300 3500 
L 978 3500 
L 1906 2253 
L 2834 3500 
L 3513 3500 
z
" transform="scale(0.015625)"/>
      </defs>
      <use xlink:href="#DejaVuSans-4d"/>
      <use xlink:href="#DejaVuSans-69" transform="translate(86.279297 0)"/>
      <use xlink:href="#DejaVuSans-6e" transform="translate(114.0625 0)"/>
      <use xlink:href="#DejaVuSans-2013" transform="translate(177.441406 0)"/>
      <use xlink:href="#DejaVuSans-4d" transform="translate(227.441406 0)"/>
      <use xlink:href="#DejaVuSans-61" transform="translate(313.720703 0)"/>
      <use xlink:href="#DejaVuSans-78" transform="translate(375 0)"/>
     </g>
    </g>
   </g>
  </g>
 </g>
 <defs>
  <clipPath id="p718e3bfe61">
   <rect x="46.74125" y="25.44" width="662.45875" height="364.6"/>
  </clipPath>
 </defs>
</svg>
