<?xml version="1.0" encoding="utf-8" standalone="no"?>
<!DOCTYPE svg PUBLIC "-//W3C//DTD SVG 1.1//EN"
  "http://www.w3.org/Graphics/SVG/1.1/DTD/svg11.dtd">
<svg xmlns:xlink="http://www.w3.org/1999/xlink" width="720pt" height="432pt" viewBox="0 0 720 432" xmlns="http://www.w3.org/2000/svg" version="1.1">
 <metadata>
  <rdf:RDF xmlns:dc="http://purl.org/dc/elements/1.1/" xmlns:cc="http://creativecommons.org/ns#" xmlns:rdf="http://www.w3.org/1999/02/22-rdf-syntax-ns#">
   <cc:Work>
    <dc:type rdf:resource="http://purl.org/dc/dcmitype/StillImage"/>
    <dc:date>2025-02-05T20:31:30.425150</dc:date>
    <dc:format>image/svg+xml</dc:format>
    <dc:creator>
     <cc:Agent>
      <dc:title>Matplotlib v3.10.0, https://matplotlib.org/</dc:title>
     </cc:Agent>
    </dc:creator>
   </cc:Work>
  </rdf:RDF>
 </metadata>
 <defs>
  <style type="text/css">*{stroke-linejoin: round; stroke-linecap: butt}</style>
 </defs>
 <g id="figure_1">
  <g id="patch_1">
   <path d="M 0 432 
L 720 432 
L 720 0 
L 0 0 
z
" style="fill: #ffffff"/>
  </g>
  <g id="axes_1">
   <g id="patch_2">
    <path d="M 51.05 390.04 
L 709.2 390.04 
L 709.2 25.44 
L 51.05 25.44 
z
" style="fill: #ffffff"/>
   </g>
   <g id="FillBetweenPolyCollection_1">
    <defs>
     <path id="m6b1e7739ac" d="M 80.965909 -389.987273 
L 80.965909 -313.497762 
L 81.564826 -288.282001 
L 82.163743 -263.06624 
L 82.76266 -250.177617 
L 83.361577 -237.569736 
L 83.960495 -224.961856 
L 84.559412 -212.353975 
L 85.158329 -199.746094 
L 85.757246 -187.138214 
L 86.356163 -174.530333 
L 86.95508 -173.266993 
L 87.553997 -162.062824 
L 88.152914 -149.454943 
L 88.751831 -147.77049 
L 89.350748 -147.77049 
L 89.949666 -147.77049 
L 90.548583 -147.77049 
L 91.1475 -147.77049 
L 91.746417 -147.77049 
L 92.345334 -137.689289 
L 92.944251 -135.022238 
L 93.543168 -135.022238 
L 94.142085 -135.022238 
L 94.741002 -135.022238 
L 95.339919 -125.642893 
L 95.938837 -122.273986 
L 96.537754 -122.273986 
L 97.136671 -122.273986 
L 97.735588 -122.273986 
L 98.334505 -122.273986 
L 98.933422 -122.273986 
L 99.532339 -122.273986 
L 100.131256 -122.273986 
L 100.730173 -114.157982 
L 101.32909 -109.525734 
L 101.928008 -109.525734 
L 102.526925 -109.525734 
L 103.125842 -109.525734 
L 103.724759 -109.525734 
L 104.323676 -109.525734 
L 104.922593 -109.525734 
L 105.52151 -109.525734 
L 106.120427 -109.525734 
L 106.719344 -109.525734 
L 107.318261 -109.525734 
L 107.917179 -109.525734 
L 108.516096 -109.525734 
L 109.115013 -109.525734 
L 109.71393 -109.525734 
L 110.312847 -103.655668 
L 110.911764 -96.777483 
L 111.510681 -96.777483 
L 112.109598 -96.777483 
L 112.708515 -96.777483 
L 113.307432 -96.777483 
L 113.90635 -96.777483 
L 114.505267 -96.777483 
L 115.104184 -92.030386 
L 115.703101 -84.029231 
L 116.302018 -84.029231 
L 116.900935 -84.029231 
L 117.499852 -84.029231 
L 118.098769 -84.029231 
L 118.697686 -84.029231 
L 119.296603 -84.029231 
L 119.895521 -84.029231 
L 120.494438 -84.029231 
L 121.093355 -84.029231 
L 121.692272 -84.029231 
L 122.291189 -84.029231 
L 122.890106 -84.029231 
L 123.489023 -84.029231 
L 124.08794 -84.029231 
L 124.686857 -84.029231 
L 125.285774 -84.029231 
L 125.884692 -84.029231 
L 126.483609 -84.029231 
L 127.082526 -84.029231 
L 127.681443 -84.029231 
L 128.28036 -84.029231 
L 128.879277 -84.029231 
L 129.478194 -84.029231 
L 130.077111 -84.029231 
L 130.676028 -84.029231 
L 131.274945 -84.029231 
L 131.873862 -84.029231 
L 132.47278 -84.029231 
L 133.071697 -84.029231 
L 133.670614 -84.029231 
L 134.269531 -84.029231 
L 134.868448 -84.029231 
L 135.467365 -84.029231 
L 136.066282 -84.029231 
L 136.665199 -84.029231 
L 137.264116 -84.029231 
L 137.863033 -84.029231 
L 138.461951 -84.029231 
L 139.060868 -84.029231 
L 139.659785 -84.029231 
L 140.258702 -84.029231 
L 140.857619 -84.029231 
L 141.456536 -84.029231 
L 142.055453 -84.029231 
L 142.65437 -84.029231 
L 143.253287 -84.029231 
L 143.852204 -84.029231 
L 144.451122 -84.029231 
L 145.050039 -84.029231 
L 145.648956 -84.029231 
L 146.247873 -84.029231 
L 146.84679 -84.029231 
L 147.445707 -84.029231 
L 148.044624 -84.029231 
L 148.643541 -84.029231 
L 149.242458 -84.029231 
L 149.841375 -84.029231 
L 150.440293 -74.81578 
L 151.03921 -71.280979 
L 151.638127 -71.280979 
L 152.237044 -71.280979 
L 152.835961 -71.280979 
L 153.434878 -71.280979 
L 154.033795 -71.280979 
L 154.632712 -71.280979 
L 155.231629 -71.280979 
L 155.830546 -71.280979 
L 156.429464 -71.280979 
L 157.028381 -71.280979 
L 157.627298 -71.280979 
L 158.226215 -71.280979 
L 158.825132 -71.280979 
L 159.424049 -71.280979 
L 160.022966 -71.280979 
L 160.621883 -71.280979 
L 161.2208 -71.280979 
L 161.819717 -71.280979 
L 162.418635 -71.280979 
L 163.017552 -71.280979 
L 163.616469 -71.280979 
L 164.215386 -71.280979 
L 164.814303 -71.280979 
L 165.41322 -71.280979 
L 166.012137 -71.280979 
L 166.611054 -71.280979 
L 167.209971 -71.280979 
L 167.808888 -71.280979 
L 168.407806 -71.280979 
L 169.006723 -71.280979 
L 169.60564 -71.280979 
L 170.204557 -71.280979 
L 170.803474 -71.280979 
L 171.402391 -71.280979 
L 172.001308 -71.280979 
L 172.600225 -71.280979 
L 173.199142 -71.280979 
L 173.798059 -71.280979 
L 174.396977 -71.280979 
L 174.995894 -71.280979 
L 175.594811 -71.280979 
L 176.193728 -71.280979 
L 176.792645 -71.280979 
L 177.391562 -71.280979 
L 177.990479 -71.280979 
L 178.589396 -71.280979 
L 179.188313 -71.280979 
L 179.78723 -71.280979 
L 180.386148 -71.280979 
L 180.985065 -71.280979 
L 181.583982 -71.280979 
L 182.182899 -71.280979 
L 182.781816 -71.280979 
L 183.380733 -71.280979 
L 183.97965 -71.280979 
L 184.578567 -71.280979 
L 185.177484 -71.280979 
L 185.776401 -71.280979 
L 186.375319 -71.280979 
L 186.974236 -71.280979 
L 187.573153 -71.280979 
L 188.17207 -71.280979 
L 188.770987 -71.280979 
L 189.369904 -71.280979 
L 189.968821 -71.280979 
L 190.567738 -71.280979 
L 191.166655 -71.280979 
L 191.765572 -71.280979 
L 192.364489 -71.280979 
L 192.963407 -71.280979 
L 193.562324 -71.280979 
L 194.161241 -71.280979 
L 194.760158 -71.280979 
L 195.359075 -71.280979 
L 195.957992 -71.280979 
L 196.556909 -71.280979 
L 197.155826 -71.280979 
L 197.754743 -71.280979 
L 198.35366 -71.280979 
L 198.952578 -71.280979 
L 199.551495 -71.280979 
L 200.150412 -71.280979 
L 200.749329 -71.280979 
L 201.348246 -71.280979 
L 201.947163 -71.280979 
L 202.54608 -71.280979 
L 203.144997 -71.280979 
L 203.743914 -71.280979 
L 204.342831 -71.280979 
L 204.941749 -71.280979 
L 205.540666 -71.280979 
L 206.139583 -71.280979 
L 206.7385 -71.280979 
L 207.337417 -71.280979 
L 207.936334 -71.280979 
L 208.535251 -71.280979 
L 209.134168 -71.280979 
L 209.733085 -71.280979 
L 210.332002 -71.280979 
L 210.93092 -71.280979 
L 211.529837 -71.280979 
L 212.128754 -71.280979 
L 212.727671 -71.280979 
L 213.326588 -71.280979 
L 213.925505 -71.280979 
L 214.524422 -71.280979 
L 215.123339 -71.280979 
L 215.722256 -71.280979 
L 216.321173 -71.280979 
L 216.920091 -71.280979 
L 217.519008 -71.280979 
L 218.117925 -71.280979 
L 218.716842 -71.280979 
L 219.315759 -71.280979 
L 219.914676 -71.280979 
L 220.513593 -71.280979 
L 221.11251 -71.280979 
L 221.711427 -71.280979 
L 222.310344 -71.280979 
L 222.909262 -71.280979 
L 223.508179 -71.280979 
L 224.107096 -71.280979 
L 224.706013 -71.280979 
L 225.30493 -71.280979 
L 225.903847 -71.280979 
L 226.502764 -71.280979 
L 227.101681 -71.280979 
L 227.700598 -71.280979 
L 228.299515 -71.280979 
L 228.898433 -71.280979 
L 229.49735 -71.280979 
L 230.096267 -71.280979 
L 230.695184 -71.280979 
L 231.294101 -71.280979 
L 231.893018 -71.280979 
L 232.491935 -71.280979 
L 233.090852 -71.280979 
L 233.689769 -71.280979 
L 234.288686 -71.280979 
L 234.887604 -71.280979 
L 235.486521 -71.280979 
L 236.085438 -71.280979 
L 236.684355 -71.280979 
L 237.283272 -71.280979 
L 237.882189 -71.280979 
L 238.481106 -71.280979 
L 239.080023 -71.280979 
L 239.67894 -71.280979 
L 240.277857 -71.280979 
L 240.876775 -71.280979 
L 241.475692 -71.280979 
L 242.074609 -71.280979 
L 242.673526 -71.280979 
L 243.272443 -71.280979 
L 243.87136 -71.280979 
L 244.470277 -71.280979 
L 245.069194 -71.280979 
L 245.668111 -71.280979 
L 246.267028 -71.280979 
L 246.865945 -71.280979 
L 247.464863 -71.280979 
L 248.06378 -71.280979 
L 248.662697 -71.280979 
L 249.261614 -71.280979 
L 249.860531 -71.280979 
L 250.459448 -71.280979 
L 251.058365 -71.280979 
L 251.657282 -71.280979 
L 252.256199 -71.280979 
L 252.855116 -71.280979 
L 253.454034 -71.280979 
L 254.052951 -71.280979 
L 254.651868 -71.280979 
L 255.250785 -71.280979 
L 255.849702 -71.280979 
L 256.448619 -71.280979 
L 257.047536 -71.280979 
L 257.646453 -71.280979 
L 258.24537 -71.280979 
L 258.844287 -71.280979 
L 259.443205 -71.280979 
L 260.042122 -71.280979 
L 260.641039 -71.280979 
L 261.239956 -71.280979 
L 261.838873 -71.280979 
L 262.43779 -71.280979 
L 263.036707 -71.280979 
L 263.635624 -71.280979 
L 264.234541 -71.280979 
L 264.833458 -71.280979 
L 265.432376 -71.280979 
L 266.031293 -71.280979 
L 266.63021 -71.280979 
L 267.229127 -71.280979 
L 267.828044 -71.280979 
L 268.426961 -71.280979 
L 269.025878 -71.280979 
L 269.624795 -71.280979 
L 270.223712 -71.280979 
L 270.822629 -71.280979 
L 271.421547 -71.280979 
L 272.020464 -71.280979 
L 272.619381 -71.280979 
L 273.218298 -71.280979 
L 273.817215 -71.280979 
L 274.416132 -71.280979 
L 275.015049 -71.280979 
L 275.613966 -71.280979 
L 276.212883 -71.280979 
L 276.8118 -71.280979 
L 277.410718 -71.280979 
L 278.009635 -71.280979 
L 278.608552 -71.280979 
L 279.207469 -71.280979 
L 279.806386 -71.280979 
L 280.405303 -71.280979 
L 281.00422 -71.280979 
L 281.603137 -71.280979 
L 282.202054 -71.280979 
L 282.800971 -71.280979 
L 283.399889 -71.280979 
L 283.998806 -71.280979 
L 284.597723 -71.280979 
L 285.19664 -71.280979 
L 285.795557 -71.280979 
L 286.394474 -71.280979 
L 286.993391 -71.280979 
L 287.592308 -71.280979 
L 288.191225 -71.280979 
L 288.790142 -71.280979 
L 289.38906 -71.280979 
L 289.987977 -71.280979 
L 290.586894 -71.280979 
L 291.185811 -71.280979 
L 291.784728 -71.280979 
L 292.383645 -71.280979 
L 292.982562 -71.280979 
L 293.581479 -71.280979 
L 294.180396 -71.280979 
L 294.779313 -71.280979 
L 295.378231 -71.280979 
L 295.977148 -71.280979 
L 296.576065 -71.280979 
L 297.174982 -71.280979 
L 297.773899 -71.280979 
L 298.372816 -71.280979 
L 298.971733 -71.280979 
L 299.57065 -71.280979 
L 300.169567 -71.280979 
L 300.768484 -71.280979 
L 301.367401 -71.280979 
L 301.966319 -71.280979 
L 302.565236 -71.280979 
L 303.164153 -71.280979 
L 303.76307 -71.280979 
L 304.361987 -71.280979 
L 304.960904 -71.280979 
L 305.559821 -71.280979 
L 306.158738 -71.280979 
L 306.757655 -71.280979 
L 307.356572 -71.280979 
L 307.95549 -71.280979 
L 308.554407 -71.280979 
L 309.153324 -71.280979 
L 309.752241 -71.280979 
L 310.351158 -71.280979 
L 310.950075 -71.280979 
L 311.548992 -71.280979 
L 312.147909 -71.280979 
L 312.746826 -71.280979 
L 313.345743 -71.280979 
L 313.944661 -71.280979 
L 314.543578 -71.280979 
L 315.142495 -71.280979 
L 315.741412 -71.280979 
L 316.340329 -71.280979 
L 316.939246 -71.280979 
L 317.538163 -71.280979 
L 318.13708 -71.280979 
L 318.735997 -71.280979 
L 319.334914 -71.280979 
L 319.933832 -71.280979 
L 320.532749 -71.280979 
L 321.131666 -71.280979 
L 321.730583 -71.280979 
L 322.3295 -71.280979 
L 322.928417 -71.280979 
L 323.527334 -71.280979 
L 324.126251 -71.280979 
L 324.725168 -71.280979 
L 325.324085 -71.280979 
L 325.923003 -71.280979 
L 326.52192 -71.280979 
L 327.120837 -71.280979 
L 327.719754 -71.280979 
L 328.318671 -71.280979 
L 328.917588 -71.280979 
L 329.516505 -71.280979 
L 330.115422 -71.280979 
L 330.714339 -71.280979 
L 331.313256 -71.280979 
L 331.912174 -71.280979 
L 332.511091 -71.280979 
L 333.110008 -71.280979 
L 333.708925 -71.280979 
L 334.307842 -71.280979 
L 334.906759 -71.280979 
L 335.505676 -71.280979 
L 336.104593 -71.280979 
L 336.70351 -71.280979 
L 337.302427 -71.280979 
L 337.901345 -71.280979 
L 338.500262 -71.280979 
L 339.099179 -71.280979 
L 339.698096 -71.280979 
L 340.297013 -71.280979 
L 340.89593 -68.460795 
L 341.494847 -58.532727 
L 342.093764 -58.532727 
L 342.692681 -58.532727 
L 343.291598 -58.532727 
L 343.890516 -58.532727 
L 344.489433 -58.532727 
L 345.08835 -58.532727 
L 345.687267 -58.532727 
L 346.286184 -58.532727 
L 346.885101 -58.532727 
L 347.484018 -58.532727 
L 348.082935 -58.532727 
L 348.681852 -58.532727 
L 349.280769 -58.532727 
L 349.879687 -58.532727 
L 350.478604 -58.532727 
L 351.077521 -58.532727 
L 351.676438 -58.532727 
L 352.275355 -58.532727 
L 352.874272 -58.532727 
L 353.473189 -58.532727 
L 354.072106 -58.532727 
L 354.671023 -58.532727 
L 355.26994 -58.532727 
L 355.868857 -58.532727 
L 356.467775 -58.532727 
L 357.066692 -58.532727 
L 357.665609 -58.532727 
L 358.264526 -58.532727 
L 358.863443 -58.532727 
L 359.46236 -58.532727 
L 360.061277 -58.532727 
L 360.660194 -58.532727 
L 361.259111 -58.532727 
L 361.858028 -58.532727 
L 362.456946 -58.532727 
L 363.055863 -58.532727 
L 363.65478 -58.532727 
L 364.253697 -58.532727 
L 364.852614 -58.532727 
L 365.451531 -58.532727 
L 366.050448 -58.532727 
L 366.649365 -58.532727 
L 367.248282 -58.532727 
L 367.847199 -58.532727 
L 368.446117 -58.532727 
L 369.045034 -58.532727 
L 369.643951 -58.532727 
L 370.242868 -58.532727 
L 370.841785 -58.532727 
L 371.440702 -58.532727 
L 372.039619 -58.532727 
L 372.638536 -58.532727 
L 373.237453 -58.532727 
L 373.83637 -58.532727 
L 374.435288 -58.532727 
L 375.034205 -58.532727 
L 375.633122 -58.532727 
L 376.232039 -58.532727 
L 376.830956 -58.532727 
L 377.429873 -58.532727 
L 378.02879 -58.532727 
L 378.627707 -58.532727 
L 379.226624 -58.532727 
L 379.825541 -58.532727 
L 380.424459 -58.532727 
L 381.023376 -58.532727 
L 381.622293 -58.532727 
L 382.22121 -58.532727 
L 382.820127 -58.532727 
L 383.419044 -58.532727 
L 384.017961 -58.532727 
L 384.616878 -58.532727 
L 385.215795 -58.532727 
L 385.814712 -58.532727 
L 386.41363 -58.532727 
L 387.012547 -58.532727 
L 387.611464 -58.532727 
L 388.210381 -58.532727 
L 388.809298 -58.532727 
L 389.408215 -58.532727 
L 390.007132 -58.532727 
L 390.606049 -58.532727 
L 391.204966 -58.532727 
L 391.803883 -58.532727 
L 392.402801 -58.532727 
L 393.001718 -58.532727 
L 393.600635 -58.532727 
L 394.199552 -58.532727 
L 394.798469 -58.532727 
L 395.397386 -58.532727 
L 395.996303 -58.532727 
L 396.59522 -58.532727 
L 397.194137 -58.532727 
L 397.793054 -58.532727 
L 398.391972 -58.532727 
L 398.990889 -58.532727 
L 399.589806 -58.532727 
L 400.188723 -58.532727 
L 400.78764 -58.532727 
L 401.386557 -58.532727 
L 401.985474 -58.532727 
L 402.584391 -58.532727 
L 403.183308 -58.532727 
L 403.782225 -58.532727 
L 404.381143 -58.532727 
L 404.98006 -58.532727 
L 405.578977 -58.532727 
L 406.177894 -58.532727 
L 406.776811 -58.532727 
L 407.375728 -58.532727 
L 407.974645 -58.532727 
L 408.573562 -58.532727 
L 409.172479 -58.532727 
L 409.771396 -58.532727 
L 410.370313 -58.532727 
L 410.969231 -58.532727 
L 411.568148 -58.532727 
L 412.167065 -58.532727 
L 412.765982 -58.532727 
L 413.364899 -58.532727 
L 413.963816 -58.532727 
L 414.562733 -58.532727 
L 415.16165 -58.532727 
L 415.760567 -58.532727 
L 416.359484 -58.532727 
L 416.958402 -58.532727 
L 417.557319 -58.532727 
L 418.156236 -58.532727 
L 418.755153 -58.532727 
L 419.35407 -58.532727 
L 419.952987 -58.532727 
L 420.551904 -58.532727 
L 421.150821 -58.532727 
L 421.749738 -58.532727 
L 422.348655 -58.532727 
L 422.947573 -58.532727 
L 423.54649 -58.532727 
L 424.145407 -58.532727 
L 424.744324 -58.532727 
L 425.343241 -58.532727 
L 425.942158 -58.532727 
L 426.541075 -58.532727 
L 427.139992 -58.532727 
L 427.738909 -58.532727 
L 428.337826 -58.532727 
L 428.936744 -58.532727 
L 429.535661 -58.532727 
L 430.134578 -58.532727 
L 430.733495 -58.532727 
L 431.332412 -58.532727 
L 431.931329 -58.532727 
L 432.530246 -58.532727 
L 433.129163 -58.532727 
L 433.72808 -58.532727 
L 434.326997 -58.532727 
L 434.925915 -58.532727 
L 435.524832 -58.532727 
L 436.123749 -58.532727 
L 436.722666 -58.532727 
L 437.321583 -58.532727 
L 437.9205 -58.532727 
L 438.519417 -58.532727 
L 439.118334 -58.532727 
L 439.717251 -58.532727 
L 440.316168 -58.532727 
L 440.915086 -58.532727 
L 441.514003 -58.532727 
L 442.11292 -58.532727 
L 442.711837 -58.532727 
L 443.310754 -58.532727 
L 443.909671 -58.532727 
L 444.508588 -58.532727 
L 445.107505 -58.532727 
L 445.706422 -58.532727 
L 446.305339 -58.532727 
L 446.904257 -58.532727 
L 447.503174 -58.532727 
L 448.102091 -58.532727 
L 448.701008 -58.532727 
L 449.299925 -58.532727 
L 449.898842 -58.532727 
L 450.497759 -58.532727 
L 451.096676 -58.532727 
L 451.695593 -58.532727 
L 452.29451 -58.532727 
L 452.893428 -58.532727 
L 453.492345 -58.532727 
L 454.091262 -58.532727 
L 454.690179 -58.532727 
L 455.289096 -58.532727 
L 455.888013 -58.532727 
L 456.48693 -58.532727 
L 457.085847 -58.532727 
L 457.684764 -58.532727 
L 458.283681 -58.532727 
L 458.882599 -58.532727 
L 459.481516 -58.532727 
L 460.080433 -58.532727 
L 460.67935 -58.532727 
L 461.278267 -58.532727 
L 461.877184 -58.532727 
L 462.476101 -58.532727 
L 463.075018 -58.532727 
L 463.673935 -58.532727 
L 464.272852 -58.532727 
L 464.871769 -58.532727 
L 465.470687 -58.532727 
L 466.069604 -58.532727 
L 466.668521 -58.532727 
L 467.267438 -58.532727 
L 467.866355 -58.532727 
L 468.465272 -58.532727 
L 469.064189 -58.532727 
L 469.663106 -58.532727 
L 470.262023 -58.532727 
L 470.86094 -58.532727 
L 471.459858 -58.532727 
L 472.058775 -58.532727 
L 472.657692 -58.532727 
L 473.256609 -58.532727 
L 473.855526 -58.532727 
L 474.454443 -58.532727 
L 475.05336 -58.532727 
L 475.652277 -58.532727 
L 476.251194 -58.532727 
L 476.850111 -58.532727 
L 477.449029 -58.532727 
L 478.047946 -58.532727 
L 478.646863 -58.532727 
L 479.24578 -58.532727 
L 479.844697 -58.532727 
L 480.443614 -58.532727 
L 481.042531 -58.532727 
L 481.641448 -58.532727 
L 482.240365 -58.532727 
L 482.839282 -58.532727 
L 483.4382 -58.532727 
L 484.037117 -58.532727 
L 484.636034 -58.532727 
L 485.234951 -58.532727 
L 485.833868 -58.532727 
L 486.432785 -58.532727 
L 487.031702 -58.532727 
L 487.630619 -58.532727 
L 488.229536 -58.532727 
L 488.828453 -58.532727 
L 489.427371 -58.532727 
L 490.026288 -58.532727 
L 490.625205 -58.532727 
L 491.224122 -58.532727 
L 491.823039 -58.532727 
L 492.421956 -58.532727 
L 493.020873 -58.532727 
L 493.61979 -58.532727 
L 494.218707 -58.532727 
L 494.817624 -58.532727 
L 495.416542 -58.532727 
L 496.015459 -58.532727 
L 496.614376 -58.532727 
L 497.213293 -58.532727 
L 497.81221 -58.532727 
L 498.411127 -58.532727 
L 499.010044 -58.532727 
L 499.608961 -58.532727 
L 500.207878 -58.532727 
L 500.806795 -58.532727 
L 501.405713 -58.532727 
L 502.00463 -58.532727 
L 502.603547 -58.532727 
L 503.202464 -58.532727 
L 503.801381 -58.532727 
L 504.400298 -58.532727 
L 504.999215 -58.532727 
L 505.598132 -58.532727 
L 506.197049 -58.532727 
L 506.795966 -58.532727 
L 507.394884 -58.532727 
L 507.993801 -58.532727 
L 508.592718 -58.532727 
L 509.191635 -58.532727 
L 509.790552 -58.532727 
L 510.389469 -58.532727 
L 510.988386 -58.532727 
L 511.587303 -58.532727 
L 512.18622 -58.532727 
L 512.785137 -58.532727 
L 513.384055 -58.532727 
L 513.982972 -58.532727 
L 514.581889 -58.532727 
L 515.180806 -58.532727 
L 515.779723 -58.532727 
L 516.37864 -58.532727 
L 516.977557 -58.532727 
L 517.576474 -58.532727 
L 518.175391 -58.532727 
L 518.774308 -58.532727 
L 519.373225 -58.532727 
L 519.972143 -58.532727 
L 520.57106 -58.532727 
L 521.169977 -58.532727 
L 521.768894 -58.532727 
L 522.367811 -58.532727 
L 522.966728 -58.532727 
L 523.565645 -58.532727 
L 524.164562 -58.532727 
L 524.763479 -58.532727 
L 525.362396 -58.532727 
L 525.961314 -58.532727 
L 526.560231 -58.532727 
L 527.159148 -58.532727 
L 527.758065 -58.532727 
L 528.356982 -58.532727 
L 528.955899 -58.532727 
L 529.554816 -58.532727 
L 530.153733 -58.532727 
L 530.75265 -58.532727 
L 531.351567 -58.532727 
L 531.950485 -58.532727 
L 532.549402 -58.532727 
L 533.148319 -58.532727 
L 533.747236 -58.532727 
L 534.346153 -58.532727 
L 534.94507 -58.532727 
L 535.543987 -58.532727 
L 536.142904 -58.532727 
L 536.741821 -58.532727 
L 537.340738 -58.532727 
L 537.939656 -58.532727 
L 538.538573 -58.532727 
L 539.13749 -58.532727 
L 539.736407 -58.532727 
L 540.335324 -58.532727 
L 540.934241 -58.532727 
L 541.533158 -58.532727 
L 542.132075 -58.532727 
L 542.730992 -58.532727 
L 543.329909 -58.532727 
L 543.928827 -58.532727 
L 544.527744 -58.532727 
L 545.126661 -58.532727 
L 545.725578 -58.532727 
L 546.324495 -58.532727 
L 546.923412 -58.532727 
L 547.522329 -58.532727 
L 548.121246 -58.532727 
L 548.720163 -58.532727 
L 549.31908 -58.532727 
L 549.917998 -58.532727 
L 550.516915 -58.532727 
L 551.115832 -58.532727 
L 551.714749 -58.532727 
L 552.313666 -58.532727 
L 552.912583 -58.532727 
L 553.5115 -58.532727 
L 554.110417 -58.532727 
L 554.709334 -58.532727 
L 555.308251 -58.532727 
L 555.907169 -58.532727 
L 556.506086 -58.532727 
L 557.105003 -58.532727 
L 557.70392 -58.532727 
L 558.302837 -58.532727 
L 558.901754 -58.532727 
L 559.500671 -58.532727 
L 560.099588 -58.532727 
L 560.698505 -58.532727 
L 561.297422 -58.532727 
L 561.89634 -58.532727 
L 562.495257 -58.532727 
L 563.094174 -58.532727 
L 563.693091 -58.532727 
L 564.292008 -58.532727 
L 564.890925 -58.532727 
L 565.489842 -58.532727 
L 566.088759 -58.532727 
L 566.687676 -58.532727 
L 567.286593 -58.532727 
L 567.885511 -58.532727 
L 568.484428 -58.532727 
L 569.083345 -58.532727 
L 569.682262 -58.532727 
L 570.281179 -58.532727 
L 570.880096 -58.532727 
L 571.479013 -58.532727 
L 572.07793 -58.532727 
L 572.676847 -58.532727 
L 573.275764 -58.532727 
L 573.874681 -58.532727 
L 574.473599 -58.532727 
L 575.072516 -58.532727 
L 575.671433 -58.532727 
L 576.27035 -58.532727 
L 576.869267 -58.532727 
L 577.468184 -58.532727 
L 578.067101 -58.532727 
L 578.666018 -58.532727 
L 579.264935 -58.532727 
L 579.863852 -58.532727 
L 580.46277 -58.532727 
L 581.061687 -58.532727 
L 581.660604 -58.532727 
L 582.259521 -58.532727 
L 582.858438 -58.532727 
L 583.457355 -58.532727 
L 584.056272 -58.532727 
L 584.655189 -58.532727 
L 585.254106 -58.532727 
L 585.853023 -58.532727 
L 586.451941 -58.532727 
L 587.050858 -58.532727 
L 587.649775 -58.532727 
L 588.248692 -58.532727 
L 588.847609 -58.532727 
L 589.446526 -58.532727 
L 590.045443 -58.532727 
L 590.64436 -58.532727 
L 591.243277 -58.532727 
L 591.842194 -58.532727 
L 592.441112 -58.532727 
L 593.040029 -58.532727 
L 593.638946 -58.532727 
L 594.237863 -58.532727 
L 594.83678 -58.532727 
L 595.435697 -58.532727 
L 596.034614 -58.532727 
L 596.633531 -58.532727 
L 597.232448 -58.532727 
L 597.831365 -58.532727 
L 598.430283 -58.532727 
L 599.0292 -58.532727 
L 599.628117 -58.532727 
L 600.227034 -58.532727 
L 600.825951 -58.532727 
L 601.424868 -58.532727 
L 602.023785 -58.532727 
L 602.622702 -58.532727 
L 603.221619 -58.532727 
L 603.820536 -58.532727 
L 604.419454 -58.532727 
L 605.018371 -58.532727 
L 605.617288 -58.532727 
L 606.216205 -58.532727 
L 606.815122 -58.532727 
L 607.414039 -58.532727 
L 608.012956 -58.532727 
L 608.611873 -58.532727 
L 609.21079 -58.532727 
L 609.809707 -58.532727 
L 610.408625 -58.532727 
L 611.007542 -58.532727 
L 611.606459 -58.532727 
L 612.205376 -58.532727 
L 612.804293 -58.532727 
L 613.40321 -58.532727 
L 614.002127 -58.532727 
L 614.601044 -58.532727 
L 615.199961 -58.532727 
L 615.798878 -58.532727 
L 616.397796 -58.532727 
L 616.996713 -58.532727 
L 617.59563 -58.532727 
L 618.194547 -58.532727 
L 618.793464 -58.532727 
L 619.392381 -58.532727 
L 619.991298 -58.532727 
L 620.590215 -58.532727 
L 621.189132 -58.532727 
L 621.788049 -58.532727 
L 622.386967 -58.532727 
L 622.985884 -58.532727 
L 623.584801 -58.532727 
L 624.183718 -58.532727 
L 624.782635 -58.532727 
L 625.381552 -58.532727 
L 625.980469 -58.532727 
L 626.579386 -58.532727 
L 627.178303 -58.532727 
L 627.77722 -58.532727 
L 628.376138 -58.532727 
L 628.975055 -58.532727 
L 629.573972 -58.532727 
L 630.172889 -58.532727 
L 630.771806 -58.532727 
L 631.370723 -58.532727 
L 631.96964 -58.532727 
L 632.568557 -58.532727 
L 633.167474 -58.532727 
L 633.766391 -58.532727 
L 634.365308 -58.532727 
L 634.964226 -58.532727 
L 635.563143 -58.532727 
L 636.16206 -58.532727 
L 636.760977 -58.532727 
L 637.359894 -58.532727 
L 637.958811 -58.532727 
L 638.557728 -58.532727 
L 639.156645 -58.532727 
L 639.755562 -58.532727 
L 640.354479 -58.532727 
L 640.953397 -58.532727 
L 641.552314 -58.532727 
L 642.151231 -58.532727 
L 642.750148 -58.532727 
L 643.349065 -58.532727 
L 643.947982 -58.532727 
L 644.546899 -58.532727 
L 645.145816 -58.532727 
L 645.744733 -58.532727 
L 646.34365 -58.532727 
L 646.942568 -58.532727 
L 647.541485 -58.532727 
L 648.140402 -58.532727 
L 648.739319 -58.532727 
L 649.338236 -58.532727 
L 649.937153 -58.532727 
L 650.53607 -58.532727 
L 651.134987 -58.532727 
L 651.733904 -58.532727 
L 652.332821 -58.532727 
L 652.931739 -58.532727 
L 653.530656 -58.532727 
L 654.129573 -58.532727 
L 654.72849 -58.532727 
L 655.327407 -58.532727 
L 655.926324 -58.532727 
L 656.525241 -58.532727 
L 657.124158 -58.532727 
L 657.723075 -58.532727 
L 658.321992 -58.532727 
L 658.92091 -58.532727 
L 659.519827 -58.532727 
L 660.118744 -58.532727 
L 660.717661 -58.532727 
L 661.316578 -58.532727 
L 661.915495 -58.532727 
L 662.514412 -58.532727 
L 663.113329 -58.532727 
L 663.712246 -58.532727 
L 664.311163 -58.532727 
L 664.910081 -58.532727 
L 665.508998 -58.532727 
L 666.107915 -58.532727 
L 666.706832 -58.532727 
L 667.305749 -58.532727 
L 667.904666 -58.532727 
L 668.503583 -58.532727 
L 669.1025 -58.532727 
L 669.701417 -58.532727 
L 670.300334 -58.532727 
L 670.899252 -58.532727 
L 671.498169 -58.532727 
L 672.097086 -58.532727 
L 672.696003 -58.532727 
L 673.29492 -58.532727 
L 673.893837 -58.532727 
L 674.492754 -58.532727 
L 675.091671 -58.532727 
L 675.690588 -58.532727 
L 676.289505 -58.532727 
L 676.888423 -58.532727 
L 677.48734 -58.532727 
L 678.086257 -58.532727 
L 678.685174 -58.532727 
L 679.284091 -58.532727 
L 679.284091 -109.525734 
L 679.284091 -109.525734 
L 678.685174 -109.525734 
L 678.086257 -109.525734 
L 677.48734 -109.525734 
L 676.888423 -109.525734 
L 676.289505 -109.525734 
L 675.690588 -109.525734 
L 675.091671 -109.525734 
L 674.492754 -109.525734 
L 673.893837 -109.525734 
L 673.29492 -109.525734 
L 672.696003 -109.525734 
L 672.097086 -109.525734 
L 671.498169 -109.525734 
L 670.899252 -109.525734 
L 670.300334 -109.525734 
L 669.701417 -109.525734 
L 669.1025 -109.525734 
L 668.503583 -109.525734 
L 667.904666 -109.525734 
L 667.305749 -109.525734 
L 666.706832 -109.525734 
L 666.107915 -109.525734 
L 665.508998 -109.525734 
L 664.910081 -109.525734 
L 664.311163 -109.525734 
L 663.712246 -109.525734 
L 663.113329 -109.525734 
L 662.514412 -109.525734 
L 661.915495 -109.525734 
L 661.316578 -109.525734 
L 660.717661 -109.525734 
L 660.118744 -109.525734 
L 659.519827 -109.525734 
L 658.92091 -109.525734 
L 658.321992 -109.525734 
L 657.723075 -109.525734 
L 657.124158 -109.525734 
L 656.525241 -109.525734 
L 655.926324 -109.525734 
L 655.327407 -109.525734 
L 654.72849 -109.525734 
L 654.129573 -109.525734 
L 653.530656 -109.525734 
L 652.931739 -109.525734 
L 652.332821 -109.525734 
L 651.733904 -109.525734 
L 651.134987 -109.525734 
L 650.53607 -109.525734 
L 649.937153 -109.525734 
L 649.338236 -109.525734 
L 648.739319 -109.525734 
L 648.140402 -109.525734 
L 647.541485 -109.525734 
L 646.942568 -109.525734 
L 646.34365 -109.525734 
L 645.744733 -109.525734 
L 645.145816 -109.525734 
L 644.546899 -109.525734 
L 643.947982 -109.525734 
L 643.349065 -109.525734 
L 642.750148 -109.525734 
L 642.151231 -109.525734 
L 641.552314 -109.525734 
L 640.953397 -109.525734 
L 640.354479 -109.525734 
L 639.755562 -109.525734 
L 639.156645 -109.525734 
L 638.557728 -109.525734 
L 637.958811 -109.525734 
L 637.359894 -109.525734 
L 636.760977 -109.525734 
L 636.16206 -109.525734 
L 635.563143 -109.525734 
L 634.964226 -109.525734 
L 634.365308 -109.525734 
L 633.766391 -109.525734 
L 633.167474 -109.525734 
L 632.568557 -109.525734 
L 631.96964 -109.525734 
L 631.370723 -109.525734 
L 630.771806 -109.525734 
L 630.172889 -109.525734 
L 629.573972 -109.525734 
L 628.975055 -109.525734 
L 628.376138 -109.525734 
L 627.77722 -109.525734 
L 627.178303 -109.525734 
L 626.579386 -109.525734 
L 625.980469 -109.525734 
L 625.381552 -109.525734 
L 624.782635 -109.525734 
L 624.183718 -109.525734 
L 623.584801 -109.525734 
L 622.985884 -109.525734 
L 622.386967 -109.525734 
L 621.788049 -109.525734 
L 621.189132 -109.525734 
L 620.590215 -109.525734 
L 619.991298 -109.525734 
L 619.392381 -109.525734 
L 618.793464 -109.525734 
L 618.194547 -109.525734 
L 617.59563 -109.525734 
L 616.996713 -109.525734 
L 616.397796 -109.525734 
L 615.798878 -109.525734 
L 615.199961 -109.525734 
L 614.601044 -109.525734 
L 614.002127 -109.525734 
L 613.40321 -109.525734 
L 612.804293 -109.525734 
L 612.205376 -109.525734 
L 611.606459 -109.525734 
L 611.007542 -109.525734 
L 610.408625 -109.525734 
L 609.809707 -109.525734 
L 609.21079 -109.525734 
L 608.611873 -109.525734 
L 608.012956 -109.525734 
L 607.414039 -109.525734 
L 606.815122 -109.525734 
L 606.216205 -109.525734 
L 605.617288 -109.525734 
L 605.018371 -109.525734 
L 604.419454 -109.525734 
L 603.820536 -109.525734 
L 603.221619 -109.525734 
L 602.622702 -109.525734 
L 602.023785 -109.525734 
L 601.424868 -109.525734 
L 600.825951 -109.525734 
L 600.227034 -109.525734 
L 599.628117 -109.525734 
L 599.0292 -109.525734 
L 598.430283 -109.525734 
L 597.831365 -109.525734 
L 597.232448 -109.525734 
L 596.633531 -109.525734 
L 596.034614 -109.525734 
L 595.435697 -109.525734 
L 594.83678 -109.525734 
L 594.237863 -109.525734 
L 593.638946 -109.525734 
L 593.040029 -109.525734 
L 592.441112 -109.525734 
L 591.842194 -109.525734 
L 591.243277 -109.525734 
L 590.64436 -109.525734 
L 590.045443 -109.525734 
L 589.446526 -109.525734 
L 588.847609 -109.525734 
L 588.248692 -109.525734 
L 587.649775 -109.525734 
L 587.050858 -109.525734 
L 586.451941 -109.525734 
L 585.853023 -109.525734 
L 585.254106 -109.525734 
L 584.655189 -109.525734 
L 584.056272 -109.525734 
L 583.457355 -109.525734 
L 582.858438 -109.525734 
L 582.259521 -109.525734 
L 581.660604 -109.525734 
L 581.061687 -109.525734 
L 580.46277 -109.525734 
L 579.863852 -109.525734 
L 579.264935 -109.525734 
L 578.666018 -109.525734 
L 578.067101 -109.525734 
L 577.468184 -109.525734 
L 576.869267 -109.525734 
L 576.27035 -109.525734 
L 575.671433 -109.525734 
L 575.072516 -109.525734 
L 574.473599 -109.525734 
L 573.874681 -109.525734 
L 573.275764 -109.525734 
L 572.676847 -109.525734 
L 572.07793 -109.525734 
L 571.479013 -109.525734 
L 570.880096 -109.525734 
L 570.281179 -109.525734 
L 569.682262 -109.525734 
L 569.083345 -109.525734 
L 568.484428 -109.525734 
L 567.885511 -109.525734 
L 567.286593 -109.525734 
L 566.687676 -109.525734 
L 566.088759 -109.525734 
L 565.489842 -109.525734 
L 564.890925 -109.525734 
L 564.292008 -109.525734 
L 563.693091 -109.525734 
L 563.094174 -109.525734 
L 562.495257 -109.525734 
L 561.89634 -109.525734 
L 561.297422 -109.525734 
L 560.698505 -109.525734 
L 560.099588 -109.525734 
L 559.500671 -109.525734 
L 558.901754 -109.525734 
L 558.302837 -109.525734 
L 557.70392 -109.525734 
L 557.105003 -109.525734 
L 556.506086 -109.525734 
L 555.907169 -109.525734 
L 555.308251 -109.525734 
L 554.709334 -109.525734 
L 554.110417 -109.525734 
L 553.5115 -109.525734 
L 552.912583 -109.525734 
L 552.313666 -109.525734 
L 551.714749 -109.525734 
L 551.115832 -109.525734 
L 550.516915 -109.525734 
L 549.917998 -109.525734 
L 549.31908 -109.525734 
L 548.720163 -109.525734 
L 548.121246 -109.525734 
L 547.522329 -109.525734 
L 546.923412 -109.525734 
L 546.324495 -109.525734 
L 545.725578 -109.525734 
L 545.126661 -109.525734 
L 544.527744 -109.525734 
L 543.928827 -109.525734 
L 543.329909 -109.525734 
L 542.730992 -109.525734 
L 542.132075 -109.525734 
L 541.533158 -109.525734 
L 540.934241 -109.525734 
L 540.335324 -109.525734 
L 539.736407 -109.525734 
L 539.13749 -109.525734 
L 538.538573 -109.525734 
L 537.939656 -109.525734 
L 537.340738 -109.525734 
L 536.741821 -109.525734 
L 536.142904 -109.525734 
L 535.543987 -109.525734 
L 534.94507 -109.525734 
L 534.346153 -109.525734 
L 533.747236 -109.525734 
L 533.148319 -109.525734 
L 532.549402 -109.525734 
L 531.950485 -109.525734 
L 531.351567 -109.525734 
L 530.75265 -109.525734 
L 530.153733 -109.525734 
L 529.554816 -109.525734 
L 528.955899 -109.525734 
L 528.356982 -109.525734 
L 527.758065 -109.525734 
L 527.159148 -109.525734 
L 526.560231 -109.525734 
L 525.961314 -109.525734 
L 525.362396 -109.525734 
L 524.763479 -109.525734 
L 524.164562 -109.525734 
L 523.565645 -109.525734 
L 522.966728 -109.525734 
L 522.367811 -109.525734 
L 521.768894 -109.525734 
L 521.169977 -109.525734 
L 520.57106 -109.525734 
L 519.972143 -109.525734 
L 519.373225 -109.525734 
L 518.774308 -109.525734 
L 518.175391 -109.525734 
L 517.576474 -109.525734 
L 516.977557 -109.525734 
L 516.37864 -109.525734 
L 515.779723 -109.525734 
L 515.180806 -109.525734 
L 514.581889 -109.525734 
L 513.982972 -109.525734 
L 513.384055 -109.525734 
L 512.785137 -109.525734 
L 512.18622 -109.525734 
L 511.587303 -109.525734 
L 510.988386 -109.525734 
L 510.389469 -109.525734 
L 509.790552 -109.525734 
L 509.191635 -109.525734 
L 508.592718 -109.525734 
L 507.993801 -109.525734 
L 507.394884 -109.525734 
L 506.795966 -109.525734 
L 506.197049 -109.525734 
L 505.598132 -109.525734 
L 504.999215 -109.525734 
L 504.400298 -109.525734 
L 503.801381 -109.525734 
L 503.202464 -109.525734 
L 502.603547 -109.525734 
L 502.00463 -109.525734 
L 501.405713 -109.525734 
L 500.806795 -109.525734 
L 500.207878 -109.525734 
L 499.608961 -109.525734 
L 499.010044 -109.525734 
L 498.411127 -109.525734 
L 497.81221 -109.525734 
L 497.213293 -109.525734 
L 496.614376 -109.525734 
L 496.015459 -109.525734 
L 495.416542 -109.525734 
L 494.817624 -109.525734 
L 494.218707 -109.525734 
L 493.61979 -109.525734 
L 493.020873 -109.525734 
L 492.421956 -109.525734 
L 491.823039 -109.525734 
L 491.224122 -109.525734 
L 490.625205 -109.525734 
L 490.026288 -109.525734 
L 489.427371 -109.525734 
L 488.828453 -109.525734 
L 488.229536 -109.525734 
L 487.630619 -109.525734 
L 487.031702 -109.525734 
L 486.432785 -109.525734 
L 485.833868 -109.525734 
L 485.234951 -109.525734 
L 484.636034 -109.525734 
L 484.037117 -109.525734 
L 483.4382 -109.525734 
L 482.839282 -109.525734 
L 482.240365 -109.525734 
L 481.641448 -109.525734 
L 481.042531 -109.525734 
L 480.443614 -109.525734 
L 479.844697 -109.525734 
L 479.24578 -109.525734 
L 478.646863 -109.525734 
L 478.047946 -109.525734 
L 477.449029 -109.525734 
L 476.850111 -109.525734 
L 476.251194 -109.525734 
L 475.652277 -109.525734 
L 475.05336 -109.525734 
L 474.454443 -109.525734 
L 473.855526 -109.525734 
L 473.256609 -109.525734 
L 472.657692 -109.525734 
L 472.058775 -109.525734 
L 471.459858 -109.525734 
L 470.86094 -109.525734 
L 470.262023 -109.525734 
L 469.663106 -109.525734 
L 469.064189 -109.525734 
L 468.465272 -109.525734 
L 467.866355 -109.525734 
L 467.267438 -109.525734 
L 466.668521 -109.525734 
L 466.069604 -109.525734 
L 465.470687 -109.525734 
L 464.871769 -109.525734 
L 464.272852 -109.525734 
L 463.673935 -109.525734 
L 463.075018 -109.525734 
L 462.476101 -109.525734 
L 461.877184 -109.525734 
L 461.278267 -109.525734 
L 460.67935 -109.525734 
L 460.080433 -109.525734 
L 459.481516 -109.525734 
L 458.882599 -109.525734 
L 458.283681 -109.525734 
L 457.684764 -109.525734 
L 457.085847 -109.525734 
L 456.48693 -109.525734 
L 455.888013 -109.525734 
L 455.289096 -109.525734 
L 454.690179 -109.525734 
L 454.091262 -109.525734 
L 453.492345 -109.525734 
L 452.893428 -109.525734 
L 452.29451 -109.525734 
L 451.695593 -109.525734 
L 451.096676 -109.525734 
L 450.497759 -109.525734 
L 449.898842 -109.525734 
L 449.299925 -109.525734 
L 448.701008 -109.525734 
L 448.102091 -109.525734 
L 447.503174 -109.525734 
L 446.904257 -109.525734 
L 446.305339 -109.525734 
L 445.706422 -109.525734 
L 445.107505 -109.525734 
L 444.508588 -109.525734 
L 443.909671 -109.525734 
L 443.310754 -109.525734 
L 442.711837 -109.525734 
L 442.11292 -109.525734 
L 441.514003 -109.525734 
L 440.915086 -109.525734 
L 440.316168 -109.525734 
L 439.717251 -109.525734 
L 439.118334 -109.525734 
L 438.519417 -109.525734 
L 437.9205 -109.525734 
L 437.321583 -109.525734 
L 436.722666 -109.525734 
L 436.123749 -109.525734 
L 435.524832 -109.525734 
L 434.925915 -109.525734 
L 434.326997 -109.525734 
L 433.72808 -109.525734 
L 433.129163 -109.525734 
L 432.530246 -109.525734 
L 431.931329 -109.525734 
L 431.332412 -109.525734 
L 430.733495 -109.525734 
L 430.134578 -109.525734 
L 429.535661 -109.525734 
L 428.936744 -109.525734 
L 428.337826 -109.525734 
L 427.738909 -109.525734 
L 427.139992 -109.525734 
L 426.541075 -109.525734 
L 425.942158 -109.525734 
L 425.343241 -109.525734 
L 424.744324 -109.525734 
L 424.145407 -109.525734 
L 423.54649 -109.525734 
L 422.947573 -109.525734 
L 422.348655 -109.525734 
L 421.749738 -109.525734 
L 421.150821 -109.525734 
L 420.551904 -109.525734 
L 419.952987 -109.525734 
L 419.35407 -109.525734 
L 418.755153 -109.525734 
L 418.156236 -109.525734 
L 417.557319 -109.525734 
L 416.958402 -109.525734 
L 416.359484 -109.525734 
L 415.760567 -109.525734 
L 415.16165 -109.525734 
L 414.562733 -109.525734 
L 413.963816 -109.525734 
L 413.364899 -109.525734 
L 412.765982 -109.525734 
L 412.167065 -109.525734 
L 411.568148 -109.525734 
L 410.969231 -109.525734 
L 410.370313 -109.525734 
L 409.771396 -109.525734 
L 409.172479 -109.525734 
L 408.573562 -109.525734 
L 407.974645 -109.525734 
L 407.375728 -109.525734 
L 406.776811 -109.525734 
L 406.177894 -109.525734 
L 405.578977 -109.525734 
L 404.98006 -109.525734 
L 404.381143 -109.525734 
L 403.782225 -109.525734 
L 403.183308 -109.525734 
L 402.584391 -109.525734 
L 401.985474 -109.525734 
L 401.386557 -109.525734 
L 400.78764 -109.525734 
L 400.188723 -109.525734 
L 399.589806 -109.525734 
L 398.990889 -109.525734 
L 398.391972 -109.525734 
L 397.793054 -109.525734 
L 397.194137 -109.525734 
L 396.59522 -109.525734 
L 395.996303 -109.525734 
L 395.397386 -109.525734 
L 394.798469 -109.525734 
L 394.199552 -109.525734 
L 393.600635 -109.525734 
L 393.001718 -109.525734 
L 392.402801 -109.525734 
L 391.803883 -109.525734 
L 391.204966 -109.525734 
L 390.606049 -109.525734 
L 390.007132 -109.525734 
L 389.408215 -109.525734 
L 388.809298 -109.525734 
L 388.210381 -109.525734 
L 387.611464 -109.525734 
L 387.012547 -109.525734 
L 386.41363 -109.525734 
L 385.814712 -109.525734 
L 385.215795 -109.525734 
L 384.616878 -109.525734 
L 384.017961 -109.525734 
L 383.419044 -109.525734 
L 382.820127 -109.525734 
L 382.22121 -109.525734 
L 381.622293 -109.525734 
L 381.023376 -109.525734 
L 380.424459 -109.525734 
L 379.825541 -109.525734 
L 379.226624 -109.525734 
L 378.627707 -109.525734 
L 378.02879 -109.525734 
L 377.429873 -109.525734 
L 376.830956 -109.525734 
L 376.232039 -109.525734 
L 375.633122 -109.525734 
L 375.034205 -109.525734 
L 374.435288 -109.525734 
L 373.83637 -109.525734 
L 373.237453 -109.525734 
L 372.638536 -109.525734 
L 372.039619 -109.525734 
L 371.440702 -109.525734 
L 370.841785 -109.525734 
L 370.242868 -109.525734 
L 369.643951 -109.525734 
L 369.045034 -109.525734 
L 368.446117 -109.525734 
L 367.847199 -109.525734 
L 367.248282 -109.525734 
L 366.649365 -109.525734 
L 366.050448 -109.525734 
L 365.451531 -109.525734 
L 364.852614 -109.525734 
L 364.253697 -109.525734 
L 363.65478 -109.525734 
L 363.055863 -109.525734 
L 362.456946 -109.525734 
L 361.858028 -109.525734 
L 361.259111 -109.525734 
L 360.660194 -109.525734 
L 360.061277 -109.525734 
L 359.46236 -109.525734 
L 358.863443 -109.525734 
L 358.264526 -109.525734 
L 357.665609 -109.525734 
L 357.066692 -109.525734 
L 356.467775 -109.525734 
L 355.868857 -109.525734 
L 355.26994 -109.525734 
L 354.671023 -109.525734 
L 354.072106 -109.525734 
L 353.473189 -109.525734 
L 352.874272 -109.525734 
L 352.275355 -109.525734 
L 351.676438 -109.525734 
L 351.077521 -109.525734 
L 350.478604 -109.525734 
L 349.879687 -109.525734 
L 349.280769 -109.525734 
L 348.681852 -109.525734 
L 348.082935 -109.525734 
L 347.484018 -109.525734 
L 346.885101 -109.525734 
L 346.286184 -109.525734 
L 345.687267 -109.525734 
L 345.08835 -109.525734 
L 344.489433 -109.525734 
L 343.890516 -109.525734 
L 343.291598 -109.525734 
L 342.692681 -109.525734 
L 342.093764 -109.525734 
L 341.494847 -109.525734 
L 340.89593 -109.525734 
L 340.297013 -109.525734 
L 339.698096 -109.525734 
L 339.099179 -109.525734 
L 338.500262 -109.525734 
L 337.901345 -109.525734 
L 337.302427 -109.525734 
L 336.70351 -109.525734 
L 336.104593 -109.525734 
L 335.505676 -109.525734 
L 334.906759 -109.525734 
L 334.307842 -109.525734 
L 333.708925 -109.525734 
L 333.110008 -109.525734 
L 332.511091 -109.525734 
L 331.912174 -109.525734 
L 331.313256 -109.525734 
L 330.714339 -109.525734 
L 330.115422 -109.525734 
L 329.516505 -109.525734 
L 328.917588 -109.525734 
L 328.318671 -109.525734 
L 327.719754 -109.525734 
L 327.120837 -109.525734 
L 326.52192 -109.525734 
L 325.923003 -109.525734 
L 325.324085 -109.525734 
L 324.725168 -109.525734 
L 324.126251 -109.525734 
L 323.527334 -109.525734 
L 322.928417 -109.525734 
L 322.3295 -109.525734 
L 321.730583 -109.525734 
L 321.131666 -109.525734 
L 320.532749 -109.525734 
L 319.933832 -109.525734 
L 319.334914 -109.525734 
L 318.735997 -109.525734 
L 318.13708 -109.525734 
L 317.538163 -109.525734 
L 316.939246 -109.525734 
L 316.340329 -109.525734 
L 315.741412 -109.525734 
L 315.142495 -109.525734 
L 314.543578 -109.525734 
L 313.944661 -109.525734 
L 313.345743 -109.525734 
L 312.746826 -109.525734 
L 312.147909 -109.525734 
L 311.548992 -109.525734 
L 310.950075 -109.525734 
L 310.351158 -109.525734 
L 309.752241 -109.525734 
L 309.153324 -109.525734 
L 308.554407 -109.525734 
L 307.95549 -109.525734 
L 307.356572 -109.525734 
L 306.757655 -109.525734 
L 306.158738 -109.525734 
L 305.559821 -109.525734 
L 304.960904 -109.525734 
L 304.361987 -109.525734 
L 303.76307 -109.525734 
L 303.164153 -109.525734 
L 302.565236 -109.525734 
L 301.966319 -109.525734 
L 301.367401 -109.525734 
L 300.768484 -109.525734 
L 300.169567 -109.525734 
L 299.57065 -109.525734 
L 298.971733 -109.525734 
L 298.372816 -109.525734 
L 297.773899 -109.525734 
L 297.174982 -109.525734 
L 296.576065 -109.525734 
L 295.977148 -109.525734 
L 295.378231 -109.525734 
L 294.779313 -109.525734 
L 294.180396 -109.525734 
L 293.581479 -109.525734 
L 292.982562 -109.525734 
L 292.383645 -109.525734 
L 291.784728 -109.525734 
L 291.185811 -109.525734 
L 290.586894 -109.525734 
L 289.987977 -109.525734 
L 289.38906 -109.525734 
L 288.790142 -109.525734 
L 288.191225 -109.525734 
L 287.592308 -109.525734 
L 286.993391 -109.525734 
L 286.394474 -109.525734 
L 285.795557 -109.525734 
L 285.19664 -109.525734 
L 284.597723 -109.525734 
L 283.998806 -109.525734 
L 283.399889 -109.525734 
L 282.800971 -109.525734 
L 282.202054 -109.525734 
L 281.603137 -109.525734 
L 281.00422 -109.525734 
L 280.405303 -109.525734 
L 279.806386 -109.525734 
L 279.207469 -109.525734 
L 278.608552 -109.525734 
L 278.009635 -109.525734 
L 277.410718 -109.525734 
L 276.8118 -109.525734 
L 276.212883 -109.525734 
L 275.613966 -109.525734 
L 275.015049 -109.525734 
L 274.416132 -109.525734 
L 273.817215 -109.525734 
L 273.218298 -109.525734 
L 272.619381 -109.525734 
L 272.020464 -109.525734 
L 271.421547 -109.525734 
L 270.822629 -109.525734 
L 270.223712 -109.525734 
L 269.624795 -109.525734 
L 269.025878 -109.525734 
L 268.426961 -109.525734 
L 267.828044 -109.525734 
L 267.229127 -109.525734 
L 266.63021 -109.525734 
L 266.031293 -109.525734 
L 265.432376 -109.525734 
L 264.833458 -109.525734 
L 264.234541 -109.525734 
L 263.635624 -109.525734 
L 263.036707 -109.525734 
L 262.43779 -109.525734 
L 261.838873 -109.525734 
L 261.239956 -109.525734 
L 260.641039 -109.525734 
L 260.042122 -109.525734 
L 259.443205 -109.525734 
L 258.844287 -109.525734 
L 258.24537 -109.525734 
L 257.646453 -109.525734 
L 257.047536 -109.525734 
L 256.448619 -109.525734 
L 255.849702 -109.525734 
L 255.250785 -109.525734 
L 254.651868 -109.525734 
L 254.052951 -109.525734 
L 253.454034 -109.525734 
L 252.855116 -109.525734 
L 252.256199 -109.525734 
L 251.657282 -109.525734 
L 251.058365 -109.525734 
L 250.459448 -109.525734 
L 249.860531 -109.525734 
L 249.261614 -109.525734 
L 248.662697 -109.525734 
L 248.06378 -109.525734 
L 247.464863 -109.525734 
L 246.865945 -109.525734 
L 246.267028 -109.525734 
L 245.668111 -109.525734 
L 245.069194 -109.525734 
L 244.470277 -109.525734 
L 243.87136 -109.525734 
L 243.272443 -109.525734 
L 242.673526 -109.525734 
L 242.074609 -109.525734 
L 241.475692 -109.525734 
L 240.876775 -109.525734 
L 240.277857 -109.525734 
L 239.67894 -109.525734 
L 239.080023 -109.525734 
L 238.481106 -109.525734 
L 237.882189 -109.525734 
L 237.283272 -109.525734 
L 236.684355 -109.525734 
L 236.085438 -109.525734 
L 235.486521 -109.525734 
L 234.887604 -109.525734 
L 234.288686 -109.525734 
L 233.689769 -109.525734 
L 233.090852 -109.525734 
L 232.491935 -109.525734 
L 231.893018 -109.525734 
L 231.294101 -109.525734 
L 230.695184 -109.525734 
L 230.096267 -109.525734 
L 229.49735 -109.525734 
L 228.898433 -109.525734 
L 228.299515 -109.525734 
L 227.700598 -109.525734 
L 227.101681 -109.525734 
L 226.502764 -109.525734 
L 225.903847 -109.525734 
L 225.30493 -109.525734 
L 224.706013 -109.525734 
L 224.107096 -109.525734 
L 223.508179 -109.525734 
L 222.909262 -109.525734 
L 222.310344 -109.525734 
L 221.711427 -109.525734 
L 221.11251 -109.525734 
L 220.513593 -109.525734 
L 219.914676 -109.525734 
L 219.315759 -109.525734 
L 218.716842 -109.525734 
L 218.117925 -109.525734 
L 217.519008 -109.525734 
L 216.920091 -109.525734 
L 216.321173 -109.525734 
L 215.722256 -109.525734 
L 215.123339 -109.525734 
L 214.524422 -109.525734 
L 213.925505 -109.525734 
L 213.326588 -109.525734 
L 212.727671 -109.525734 
L 212.128754 -109.525734 
L 211.529837 -109.525734 
L 210.93092 -109.525734 
L 210.332002 -109.525734 
L 209.733085 -109.525734 
L 209.134168 -109.525734 
L 208.535251 -109.525734 
L 207.936334 -109.525734 
L 207.337417 -109.525734 
L 206.7385 -109.525734 
L 206.139583 -109.525734 
L 205.540666 -109.525734 
L 204.941749 -109.525734 
L 204.342831 -109.525734 
L 203.743914 -109.525734 
L 203.144997 -109.525734 
L 202.54608 -109.525734 
L 201.947163 -109.525734 
L 201.348246 -109.525734 
L 200.749329 -109.525734 
L 200.150412 -109.525734 
L 199.551495 -109.525734 
L 198.952578 -109.525734 
L 198.35366 -109.525734 
L 197.754743 -109.525734 
L 197.155826 -109.525734 
L 196.556909 -109.525734 
L 195.957992 -109.525734 
L 195.359075 -109.525734 
L 194.760158 -109.525734 
L 194.161241 -109.525734 
L 193.562324 -109.525734 
L 192.963407 -109.525734 
L 192.364489 -109.525734 
L 191.765572 -109.525734 
L 191.166655 -109.525734 
L 190.567738 -109.525734 
L 189.968821 -109.525734 
L 189.369904 -109.525734 
L 188.770987 -109.525734 
L 188.17207 -109.525734 
L 187.573153 -109.525734 
L 186.974236 -109.525734 
L 186.375319 -109.525734 
L 185.776401 -109.525734 
L 185.177484 -109.525734 
L 184.578567 -109.525734 
L 183.97965 -109.525734 
L 183.380733 -109.525734 
L 182.781816 -109.525734 
L 182.182899 -109.525734 
L 181.583982 -109.525734 
L 180.985065 -109.525734 
L 180.386148 -109.525734 
L 179.78723 -109.525734 
L 179.188313 -109.525734 
L 178.589396 -109.525734 
L 177.990479 -109.525734 
L 177.391562 -109.525734 
L 176.792645 -109.525734 
L 176.193728 -119.096494 
L 175.594811 -112.843598 
L 174.995894 -118.815752 
L 174.396977 -122.273986 
L 173.798059 -122.273986 
L 173.199142 -122.273986 
L 172.600225 -122.273986 
L 172.001308 -122.273986 
L 171.402391 -122.273986 
L 170.803474 -122.273986 
L 170.204557 -122.273986 
L 169.60564 -122.273986 
L 169.006723 -122.273986 
L 168.407806 -122.273986 
L 167.808888 -122.273986 
L 167.209971 -122.273986 
L 166.611054 -122.273986 
L 166.012137 -122.273986 
L 165.41322 -122.273986 
L 164.814303 -122.273986 
L 164.215386 -122.273986 
L 163.616469 -122.273986 
L 163.017552 -122.273986 
L 162.418635 -122.273986 
L 161.819717 -122.273986 
L 161.2208 -122.273986 
L 160.621883 -122.273986 
L 160.022966 -122.273986 
L 159.424049 -122.273986 
L 158.825132 -122.273986 
L 158.226215 -122.273986 
L 157.627298 -122.273986 
L 157.028381 -122.273986 
L 156.429464 -122.273986 
L 155.830546 -122.273986 
L 155.231629 -122.273986 
L 154.632712 -122.273986 
L 154.033795 -122.273986 
L 153.434878 -122.273986 
L 152.835961 -122.273986 
L 152.237044 -122.273986 
L 151.638127 -122.273986 
L 151.03921 -122.273986 
L 150.440293 -122.273986 
L 149.841375 -122.273986 
L 149.242458 -122.273986 
L 148.643541 -122.273986 
L 148.044624 -122.273986 
L 147.445707 -122.273986 
L 146.84679 -122.273986 
L 146.247873 -122.273986 
L 145.648956 -122.273986 
L 145.050039 -122.273986 
L 144.451122 -122.273986 
L 143.852204 -122.273986 
L 143.253287 -122.273986 
L 142.65437 -122.273986 
L 142.055453 -122.273986 
L 141.456536 -122.273986 
L 140.857619 -122.273986 
L 140.258702 -122.273986 
L 139.659785 -122.273986 
L 139.060868 -122.273986 
L 138.461951 -122.273986 
L 137.863033 -122.273986 
L 137.264116 -122.273986 
L 136.665199 -122.273986 
L 136.066282 -122.273986 
L 135.467365 -122.273986 
L 134.868448 -122.273986 
L 134.269531 -122.273986 
L 133.670614 -122.273986 
L 133.071697 -122.273986 
L 132.47278 -122.273986 
L 131.873862 -122.273986 
L 131.274945 -122.273986 
L 130.676028 -122.273986 
L 130.077111 -122.273986 
L 129.478194 -122.273986 
L 128.879277 -122.273986 
L 128.28036 -122.273986 
L 127.681443 -122.273986 
L 127.082526 -122.273986 
L 126.483609 -122.273986 
L 125.884692 -122.273986 
L 125.285774 -122.273986 
L 124.686857 -122.273986 
L 124.08794 -122.273986 
L 123.489023 -122.273986 
L 122.890106 -132.099966 
L 122.291189 -135.022238 
L 121.692272 -135.022238 
L 121.093355 -135.022238 
L 120.494438 -135.022238 
L 119.895521 -135.022238 
L 119.296603 -135.022238 
L 118.697686 -135.022238 
L 118.098769 -135.022238 
L 117.499852 -135.022238 
L 116.900935 -135.022238 
L 116.302018 -135.022238 
L 115.703101 -135.022238 
L 115.104184 -135.022238 
L 114.505267 -135.022238 
L 113.90635 -135.022238 
L 113.307432 -135.022238 
L 112.708515 -135.022238 
L 112.109598 -135.022238 
L 111.510681 -135.022238 
L 110.911764 -142.040795 
L 110.312847 -147.77049 
L 109.71393 -147.77049 
L 109.115013 -147.77049 
L 108.516096 -147.77049 
L 107.917179 -147.77049 
L 107.318261 -147.77049 
L 106.719344 -147.77049 
L 106.120427 -147.77049 
L 105.52151 -147.77049 
L 104.922593 -147.77049 
L 104.323676 -147.77049 
L 103.724759 -153.104593 
L 103.125842 -160.518741 
L 102.526925 -160.518741 
L 101.928008 -160.518741 
L 101.32909 -160.518741 
L 100.730173 -160.518741 
L 100.131256 -160.518741 
L 99.532339 -164.870247 
L 98.933422 -173.266993 
L 98.334505 -173.266993 
L 97.735588 -173.266993 
L 97.136671 -173.266993 
L 96.537754 -176.916643 
L 95.938837 -186.015245 
L 95.339919 -186.015245 
L 94.741002 -186.015245 
L 94.142085 -186.015245 
L 93.543168 -188.963039 
L 92.944251 -198.763497 
L 92.345334 -198.763497 
L 91.746417 -198.763497 
L 91.1475 -198.763497 
L 90.548583 -198.763497 
L 89.949666 -200.869064 
L 89.350748 -211.511748 
L 88.751831 -211.511748 
L 88.152914 -213.196202 
L 87.553997 -224.26 
L 86.95508 -225.663711 
L 86.356163 -238.271592 
L 85.757246 -249.756503 
L 85.158329 -250.739101 
L 84.559412 -264.189209 
L 83.960495 -288.703114 
L 83.361577 -301.310995 
L 82.76266 -314.339989 
L 82.163743 -339.55575 
L 81.564826 -364.771512 
L 80.965909 -389.987273 
z
" style="stroke: #8b0000; stroke-opacity: 0.3"/>
    </defs>
    <g clip-path="url(#p97b692139d)">
     <use xlink:href="#m6b1e7739ac" x="0" y="432" style="fill: #8b0000; fill-opacity: 0.3; stroke: #8b0000; stroke-opacity: 0.3"/>
    </g>
   </g>
   <g id="matplotlib.axis_1">
    <g id="xtick_1">
     <g id="line2d_1">
      <defs>
       <path id="m1778c05c68" d="M 0 0 
L 0 3.5 
" style="stroke: #000000; stroke-width: 0.8"/>
      </defs>
      <g>
       <use xlink:href="#m1778c05c68" x="74.304472" y="390.04" style="stroke: #000000; stroke-width: 0.8"/>
      </g>
     </g>
     <g id="text_1">
      <!-- 0 -->
      <g transform="translate(71.123222 404.638438) scale(0.1 -0.1)">
       <defs>
        <path id="DejaVuSans-30" d="M 2034 4250 
Q 1547 4250 1301 3770 
Q 1056 3291 1056 2328 
Q 1056 1369 1301 889 
Q 1547 409 2034 409 
Q 2525 409 2770 889 
Q 3016 1369 3016 2328 
Q 3016 3291 2770 3770 
Q 2525 4250 2034 4250 
z
M 2034 4750 
Q 2819 4750 3233 4129 
Q 3647 3509 3647 2328 
Q 3647 1150 3233 529 
Q 2819 -91 2034 -91 
Q 1250 -91 836 529 
Q 422 1150 422 2328 
Q 422 3509 836 4129 
Q 1250 4750 2034 4750 
z
" transform="scale(0.015625)"/>
       </defs>
       <use xlink:href="#DejaVuSans-30"/>
      </g>
     </g>
    </g>
    <g id="xtick_2">
     <g id="line2d_2">
      <g>
       <use xlink:href="#m1778c05c68" x="195.421513" y="390.04" style="stroke: #000000; stroke-width: 0.8"/>
      </g>
     </g>
     <g id="text_2">
      <!-- 20000 -->
      <g transform="translate(179.515263 404.638438) scale(0.1 -0.1)">
       <defs>
        <path id="DejaVuSans-32" d="M 1228 531 
L 3431 531 
L 3431 0 
L 469 0 
L 469 531 
Q 828 903 1448 1529 
Q 2069 2156 2228 2338 
Q 2531 2678 2651 2914 
Q 2772 3150 2772 3378 
Q 2772 3750 2511 3984 
Q 2250 4219 1831 4219 
Q 1534 4219 1204 4116 
Q 875 4013 500 3803 
L 500 4441 
Q 881 4594 1212 4672 
Q 1544 4750 1819 4750 
Q 2544 4750 2975 4387 
Q 3406 4025 3406 3419 
Q 3406 3131 3298 2873 
Q 3191 2616 2906 2266 
Q 2828 2175 2409 1742 
Q 1991 1309 1228 531 
z
" transform="scale(0.015625)"/>
       </defs>
       <use xlink:href="#DejaVuSans-32"/>
       <use xlink:href="#DejaVuSans-30" transform="translate(63.623047 0)"/>
       <use xlink:href="#DejaVuSans-30" transform="translate(127.246094 0)"/>
       <use xlink:href="#DejaVuSans-30" transform="translate(190.869141 0)"/>
       <use xlink:href="#DejaVuSans-30" transform="translate(254.492188 0)"/>
      </g>
     </g>
    </g>
    <g id="xtick_3">
     <g id="line2d_3">
      <g>
       <use xlink:href="#m1778c05c68" x="316.538554" y="390.04" style="stroke: #000000; stroke-width: 0.8"/>
      </g>
     </g>
     <g id="text_3">
      <!-- 40000 -->
      <g transform="translate(300.632304 404.638438) scale(0.1 -0.1)">
       <defs>
        <path id="DejaVuSans-34" d="M 2419 4116 
L 825 1625 
L 2419 1625 
L 2419 4116 
z
M 2253 4666 
L 3047 4666 
L 3047 1625 
L 3713 1625 
L 3713 1100 
L 3047 1100 
L 3047 0 
L 2419 0 
L 2419 1100 
L 313 1100 
L 313 1709 
L 2253 4666 
z
" transform="scale(0.015625)"/>
       </defs>
       <use xlink:href="#DejaVuSans-34"/>
       <use xlink:href="#DejaVuSans-30" transform="translate(63.623047 0)"/>
       <use xlink:href="#DejaVuSans-30" transform="translate(127.246094 0)"/>
       <use xlink:href="#DejaVuSans-30" transform="translate(190.869141 0)"/>
       <use xlink:href="#DejaVuSans-30" transform="translate(254.492188 0)"/>
      </g>
     </g>
    </g>
    <g id="xtick_4">
     <g id="line2d_4">
      <g>
       <use xlink:href="#m1778c05c68" x="437.655594" y="390.04" style="stroke: #000000; stroke-width: 0.8"/>
      </g>
     </g>
     <g id="text_4">
      <!-- 60000 -->
      <g transform="translate(421.749344 404.638438) scale(0.1 -0.1)">
       <defs>
        <path id="DejaVuSans-36" d="M 2113 2584 
Q 1688 2584 1439 2293 
Q 1191 2003 1191 1497 
Q 1191 994 1439 701 
Q 1688 409 2113 409 
Q 2538 409 2786 701 
Q 3034 994 3034 1497 
Q 3034 2003 2786 2293 
Q 2538 2584 2113 2584 
z
M 3366 4563 
L 3366 3988 
Q 3128 4100 2886 4159 
Q 2644 4219 2406 4219 
Q 1781 4219 1451 3797 
Q 1122 3375 1075 2522 
Q 1259 2794 1537 2939 
Q 1816 3084 2150 3084 
Q 2853 3084 3261 2657 
Q 3669 2231 3669 1497 
Q 3669 778 3244 343 
Q 2819 -91 2113 -91 
Q 1303 -91 875 529 
Q 447 1150 447 2328 
Q 447 3434 972 4092 
Q 1497 4750 2381 4750 
Q 2619 4750 2861 4703 
Q 3103 4656 3366 4563 
z
" transform="scale(0.015625)"/>
       </defs>
       <use xlink:href="#DejaVuSans-36"/>
       <use xlink:href="#DejaVuSans-30" transform="translate(63.623047 0)"/>
       <use xlink:href="#DejaVuSans-30" transform="translate(127.246094 0)"/>
       <use xlink:href="#DejaVuSans-30" transform="translate(190.869141 0)"/>
       <use xlink:href="#DejaVuSans-30" transform="translate(254.492188 0)"/>
      </g>
     </g>
    </g>
    <g id="xtick_5">
     <g id="line2d_5">
      <g>
       <use xlink:href="#m1778c05c68" x="558.772635" y="390.04" style="stroke: #000000; stroke-width: 0.8"/>
      </g>
     </g>
     <g id="text_5">
      <!-- 80000 -->
      <g transform="translate(542.866385 404.638438) scale(0.1 -0.1)">
       <defs>
        <path id="DejaVuSans-38" d="M 2034 2216 
Q 1584 2216 1326 1975 
Q 1069 1734 1069 1313 
Q 1069 891 1326 650 
Q 1584 409 2034 409 
Q 2484 409 2743 651 
Q 3003 894 3003 1313 
Q 3003 1734 2745 1975 
Q 2488 2216 2034 2216 
z
M 1403 2484 
Q 997 2584 770 2862 
Q 544 3141 544 3541 
Q 544 4100 942 4425 
Q 1341 4750 2034 4750 
Q 2731 4750 3128 4425 
Q 3525 4100 3525 3541 
Q 3525 3141 3298 2862 
Q 3072 2584 2669 2484 
Q 3125 2378 3379 2068 
Q 3634 1759 3634 1313 
Q 3634 634 3220 271 
Q 2806 -91 2034 -91 
Q 1263 -91 848 271 
Q 434 634 434 1313 
Q 434 1759 690 2068 
Q 947 2378 1403 2484 
z
M 1172 3481 
Q 1172 3119 1398 2916 
Q 1625 2713 2034 2713 
Q 2441 2713 2670 2916 
Q 2900 3119 2900 3481 
Q 2900 3844 2670 4047 
Q 2441 4250 2034 4250 
Q 1625 4250 1398 4047 
Q 1172 3844 1172 3481 
z
" transform="scale(0.015625)"/>
       </defs>
       <use xlink:href="#DejaVuSans-38"/>
       <use xlink:href="#DejaVuSans-30" transform="translate(63.623047 0)"/>
       <use xlink:href="#DejaVuSans-30" transform="translate(127.246094 0)"/>
       <use xlink:href="#DejaVuSans-30" transform="translate(190.869141 0)"/>
       <use xlink:href="#DejaVuSans-30" transform="translate(254.492188 0)"/>
      </g>
     </g>
    </g>
    <g id="xtick_6">
     <g id="line2d_6">
      <g>
       <use xlink:href="#m1778c05c68" x="679.889676" y="390.04" style="stroke: #000000; stroke-width: 0.8"/>
      </g>
     </g>
     <g id="text_6">
      <!-- 100000 -->
      <g transform="translate(660.802176 404.638438) scale(0.1 -0.1)">
       <defs>
        <path id="DejaVuSans-31" d="M 794 531 
L 1825 531 
L 1825 4091 
L 703 3866 
L 703 4441 
L 1819 4666 
L 2450 4666 
L 2450 531 
L 3481 531 
L 3481 0 
L 794 0 
L 794 531 
z
" transform="scale(0.015625)"/>
       </defs>
       <use xlink:href="#DejaVuSans-31"/>
       <use xlink:href="#DejaVuSans-30" transform="translate(63.623047 0)"/>
       <use xlink:href="#DejaVuSans-30" transform="translate(127.246094 0)"/>
       <use xlink:href="#DejaVuSans-30" transform="translate(190.869141 0)"/>
       <use xlink:href="#DejaVuSans-30" transform="translate(254.492188 0)"/>
       <use xlink:href="#DejaVuSans-30" transform="translate(318.115234 0)"/>
      </g>
     </g>
    </g>
    <g id="text_7">
     <!-- Step -->
     <g transform="translate(368.739844 418.316562) scale(0.1 -0.1)">
      <defs>
       <path id="DejaVuSans-53" d="M 3425 4513 
L 3425 3897 
Q 3066 4069 2747 4153 
Q 2428 4238 2131 4238 
Q 1616 4238 1336 4038 
Q 1056 3838 1056 3469 
Q 1056 3159 1242 3001 
Q 1428 2844 1947 2747 
L 2328 2669 
Q 3034 2534 3370 2195 
Q 3706 1856 3706 1288 
Q 3706 609 3251 259 
Q 2797 -91 1919 -91 
Q 1588 -91 1214 -16 
Q 841 59 441 206 
L 441 856 
Q 825 641 1194 531 
Q 1563 422 1919 422 
Q 2459 422 2753 634 
Q 3047 847 3047 1241 
Q 3047 1584 2836 1778 
Q 2625 1972 2144 2069 
L 1759 2144 
Q 1053 2284 737 2584 
Q 422 2884 422 3419 
Q 422 4038 858 4394 
Q 1294 4750 2059 4750 
Q 2388 4750 2728 4690 
Q 3069 4631 3425 4513 
z
" transform="scale(0.015625)"/>
       <path id="DejaVuSans-74" d="M 1172 4494 
L 1172 3500 
L 2356 3500 
L 2356 3053 
L 1172 3053 
L 1172 1153 
Q 1172 725 1289 603 
Q 1406 481 1766 481 
L 2356 481 
L 2356 0 
L 1766 0 
Q 1100 0 847 248 
Q 594 497 594 1153 
L 594 3053 
L 172 3053 
L 172 3500 
L 594 3500 
L 594 4494 
L 1172 4494 
z
" transform="scale(0.015625)"/>
       <path id="DejaVuSans-65" d="M 3597 1894 
L 3597 1613 
L 953 1613 
Q 991 1019 1311 708 
Q 1631 397 2203 397 
Q 2534 397 2845 478 
Q 3156 559 3463 722 
L 3463 178 
Q 3153 47 2828 -22 
Q 2503 -91 2169 -91 
Q 1331 -91 842 396 
Q 353 884 353 1716 
Q 353 2575 817 3079 
Q 1281 3584 2069 3584 
Q 2775 3584 3186 3129 
Q 3597 2675 3597 1894 
z
M 3022 2063 
Q 3016 2534 2758 2815 
Q 2500 3097 2075 3097 
Q 1594 3097 1305 2825 
Q 1016 2553 972 2059 
L 3022 2063 
z
" transform="scale(0.015625)"/>
       <path id="DejaVuSans-70" d="M 1159 525 
L 1159 -1331 
L 581 -1331 
L 581 3500 
L 1159 3500 
L 1159 2969 
Q 1341 3281 1617 3432 
Q 1894 3584 2278 3584 
Q 2916 3584 3314 3078 
Q 3713 2572 3713 1747 
Q 3713 922 3314 415 
Q 2916 -91 2278 -91 
Q 1894 -91 1617 61 
Q 1341 213 1159 525 
z
M 3116 1747 
Q 3116 2381 2855 2742 
Q 2594 3103 2138 3103 
Q 1681 3103 1420 2742 
Q 1159 2381 1159 1747 
Q 1159 1113 1420 752 
Q 1681 391 2138 391 
Q 2594 391 2855 752 
Q 3116 1113 3116 1747 
z
" transform="scale(0.015625)"/>
      </defs>
      <use xlink:href="#DejaVuSans-53"/>
      <use xlink:href="#DejaVuSans-74" transform="translate(63.476562 0)"/>
      <use xlink:href="#DejaVuSans-65" transform="translate(102.685547 0)"/>
      <use xlink:href="#DejaVuSans-70" transform="translate(164.208984 0)"/>
     </g>
    </g>
   </g>
   <g id="matplotlib.axis_2">
    <g id="ytick_1">
     <g id="line2d_7">
      <defs>
       <path id="m19d905abb7" d="M 0 0 
L -3.5 0 
" style="stroke: #000000; stroke-width: 0.8"/>
      </defs>
      <g>
       <use xlink:href="#m19d905abb7" x="51.05" y="373.467273" style="stroke: #000000; stroke-width: 0.8"/>
      </g>
     </g>
     <g id="text_8">
      <!-- 80 -->
      <g transform="translate(31.325 377.266491) scale(0.1 -0.1)">
       <use xlink:href="#DejaVuSans-38"/>
       <use xlink:href="#DejaVuSans-30" transform="translate(63.623047 0)"/>
      </g>
     </g>
    </g>
    <g id="ytick_2">
     <g id="line2d_8">
      <g>
       <use xlink:href="#m19d905abb7" x="51.05" y="309.726014" style="stroke: #000000; stroke-width: 0.8"/>
      </g>
     </g>
     <g id="text_9">
      <!-- 85 -->
      <g transform="translate(31.325 313.525233) scale(0.1 -0.1)">
       <defs>
        <path id="DejaVuSans-35" d="M 691 4666 
L 3169 4666 
L 3169 4134 
L 1269 4134 
L 1269 2991 
Q 1406 3038 1543 3061 
Q 1681 3084 1819 3084 
Q 2600 3084 3056 2656 
Q 3513 2228 3513 1497 
Q 3513 744 3044 326 
Q 2575 -91 1722 -91 
Q 1428 -91 1123 -41 
Q 819 9 494 109 
L 494 744 
Q 775 591 1075 516 
Q 1375 441 1709 441 
Q 2250 441 2565 725 
Q 2881 1009 2881 1497 
Q 2881 1984 2565 2268 
Q 2250 2553 1709 2553 
Q 1456 2553 1204 2497 
Q 953 2441 691 2322 
L 691 4666 
z
" transform="scale(0.015625)"/>
       </defs>
       <use xlink:href="#DejaVuSans-38"/>
       <use xlink:href="#DejaVuSans-35" transform="translate(63.623047 0)"/>
      </g>
     </g>
    </g>
    <g id="ytick_3">
     <g id="line2d_9">
      <g>
       <use xlink:href="#m19d905abb7" x="51.05" y="245.984755" style="stroke: #000000; stroke-width: 0.8"/>
      </g>
     </g>
     <g id="text_10">
      <!-- 90 -->
      <g transform="translate(31.325 249.783974) scale(0.1 -0.1)">
       <defs>
        <path id="DejaVuSans-39" d="M 703 97 
L 703 672 
Q 941 559 1184 500 
Q 1428 441 1663 441 
Q 2288 441 2617 861 
Q 2947 1281 2994 2138 
Q 2813 1869 2534 1725 
Q 2256 1581 1919 1581 
Q 1219 1581 811 2004 
Q 403 2428 403 3163 
Q 403 3881 828 4315 
Q 1253 4750 1959 4750 
Q 2769 4750 3195 4129 
Q 3622 3509 3622 2328 
Q 3622 1225 3098 567 
Q 2575 -91 1691 -91 
Q 1453 -91 1209 -44 
Q 966 3 703 97 
z
M 1959 2075 
Q 2384 2075 2632 2365 
Q 2881 2656 2881 3163 
Q 2881 3666 2632 3958 
Q 2384 4250 1959 4250 
Q 1534 4250 1286 3958 
Q 1038 3666 1038 3163 
Q 1038 2656 1286 2365 
Q 1534 2075 1959 2075 
z
" transform="scale(0.015625)"/>
       </defs>
       <use xlink:href="#DejaVuSans-39"/>
       <use xlink:href="#DejaVuSans-30" transform="translate(63.623047 0)"/>
      </g>
     </g>
    </g>
    <g id="ytick_4">
     <g id="line2d_10">
      <g>
       <use xlink:href="#m19d905abb7" x="51.05" y="182.243497" style="stroke: #000000; stroke-width: 0.8"/>
      </g>
     </g>
     <g id="text_11">
      <!-- 95 -->
      <g transform="translate(31.325 186.042715) scale(0.1 -0.1)">
       <use xlink:href="#DejaVuSans-39"/>
       <use xlink:href="#DejaVuSans-35" transform="translate(63.623047 0)"/>
      </g>
     </g>
    </g>
    <g id="ytick_5">
     <g id="line2d_11">
      <g>
       <use xlink:href="#m19d905abb7" x="51.05" y="118.502238" style="stroke: #000000; stroke-width: 0.8"/>
      </g>
     </g>
     <g id="text_12">
      <!-- 100 -->
      <g transform="translate(24.9625 122.301457) scale(0.1 -0.1)">
       <use xlink:href="#DejaVuSans-31"/>
       <use xlink:href="#DejaVuSans-30" transform="translate(63.623047 0)"/>
       <use xlink:href="#DejaVuSans-30" transform="translate(127.246094 0)"/>
      </g>
     </g>
    </g>
    <g id="ytick_6">
     <g id="line2d_12">
      <g>
       <use xlink:href="#m19d905abb7" x="51.05" y="54.760979" style="stroke: #000000; stroke-width: 0.8"/>
      </g>
     </g>
     <g id="text_13">
      <!-- 105 -->
      <g transform="translate(24.9625 58.560198) scale(0.1 -0.1)">
       <use xlink:href="#DejaVuSans-31"/>
       <use xlink:href="#DejaVuSans-30" transform="translate(63.623047 0)"/>
       <use xlink:href="#DejaVuSans-35" transform="translate(127.246094 0)"/>
      </g>
     </g>
    </g>
    <g id="text_14">
     <!-- charts/SPS -->
     <g transform="translate(18.882812 234.39) rotate(-90) scale(0.1 -0.1)">
      <defs>
       <path id="DejaVuSans-63" d="M 3122 3366 
L 3122 2828 
Q 2878 2963 2633 3030 
Q 2388 3097 2138 3097 
Q 1578 3097 1268 2742 
Q 959 2388 959 1747 
Q 959 1106 1268 751 
Q 1578 397 2138 397 
Q 2388 397 2633 464 
Q 2878 531 3122 666 
L 3122 134 
Q 2881 22 2623 -34 
Q 2366 -91 2075 -91 
Q 1284 -91 818 406 
Q 353 903 353 1747 
Q 353 2603 823 3093 
Q 1294 3584 2113 3584 
Q 2378 3584 2631 3529 
Q 2884 3475 3122 3366 
z
" transform="scale(0.015625)"/>
       <path id="DejaVuSans-68" d="M 3513 2113 
L 3513 0 
L 2938 0 
L 2938 2094 
Q 2938 2591 2744 2837 
Q 2550 3084 2163 3084 
Q 1697 3084 1428 2787 
Q 1159 2491 1159 1978 
L 1159 0 
L 581 0 
L 581 4863 
L 1159 4863 
L 1159 2956 
Q 1366 3272 1645 3428 
Q 1925 3584 2291 3584 
Q 2894 3584 3203 3211 
Q 3513 2838 3513 2113 
z
" transform="scale(0.015625)"/>
       <path id="DejaVuSans-61" d="M 2194 1759 
Q 1497 1759 1228 1600 
Q 959 1441 959 1056 
Q 959 750 1161 570 
Q 1363 391 1709 391 
Q 2188 391 2477 730 
Q 2766 1069 2766 1631 
L 2766 1759 
L 2194 1759 
z
M 3341 1997 
L 3341 0 
L 2766 0 
L 2766 531 
Q 2569 213 2275 61 
Q 1981 -91 1556 -91 
Q 1019 -91 701 211 
Q 384 513 384 1019 
Q 384 1609 779 1909 
Q 1175 2209 1959 2209 
L 2766 2209 
L 2766 2266 
Q 2766 2663 2505 2880 
Q 2244 3097 1772 3097 
Q 1472 3097 1187 3025 
Q 903 2953 641 2809 
L 641 3341 
Q 956 3463 1253 3523 
Q 1550 3584 1831 3584 
Q 2591 3584 2966 3190 
Q 3341 2797 3341 1997 
z
" transform="scale(0.015625)"/>
       <path id="DejaVuSans-72" d="M 2631 2963 
Q 2534 3019 2420 3045 
Q 2306 3072 2169 3072 
Q 1681 3072 1420 2755 
Q 1159 2438 1159 1844 
L 1159 0 
L 581 0 
L 581 3500 
L 1159 3500 
L 1159 2956 
Q 1341 3275 1631 3429 
Q 1922 3584 2338 3584 
Q 2397 3584 2469 3576 
Q 2541 3569 2628 3553 
L 2631 2963 
z
" transform="scale(0.015625)"/>
       <path id="DejaVuSans-73" d="M 2834 3397 
L 2834 2853 
Q 2591 2978 2328 3040 
Q 2066 3103 1784 3103 
Q 1356 3103 1142 2972 
Q 928 2841 928 2578 
Q 928 2378 1081 2264 
Q 1234 2150 1697 2047 
L 1894 2003 
Q 2506 1872 2764 1633 
Q 3022 1394 3022 966 
Q 3022 478 2636 193 
Q 2250 -91 1575 -91 
Q 1294 -91 989 -36 
Q 684 19 347 128 
L 347 722 
Q 666 556 975 473 
Q 1284 391 1588 391 
Q 1994 391 2212 530 
Q 2431 669 2431 922 
Q 2431 1156 2273 1281 
Q 2116 1406 1581 1522 
L 1381 1569 
Q 847 1681 609 1914 
Q 372 2147 372 2553 
Q 372 3047 722 3315 
Q 1072 3584 1716 3584 
Q 2034 3584 2315 3537 
Q 2597 3491 2834 3397 
z
" transform="scale(0.015625)"/>
       <path id="DejaVuSans-2f" d="M 1625 4666 
L 2156 4666 
L 531 -594 
L 0 -594 
L 1625 4666 
z
" transform="scale(0.015625)"/>
       <path id="DejaVuSans-50" d="M 1259 4147 
L 1259 2394 
L 2053 2394 
Q 2494 2394 2734 2622 
Q 2975 2850 2975 3272 
Q 2975 3691 2734 3919 
Q 2494 4147 2053 4147 
L 1259 4147 
z
M 628 4666 
L 2053 4666 
Q 2838 4666 3239 4311 
Q 3641 3956 3641 3272 
Q 3641 2581 3239 2228 
Q 2838 1875 2053 1875 
L 1259 1875 
L 1259 0 
L 628 0 
L 628 4666 
z
" transform="scale(0.015625)"/>
      </defs>
      <use xlink:href="#DejaVuSans-63"/>
      <use xlink:href="#DejaVuSans-68" transform="translate(54.980469 0)"/>
      <use xlink:href="#DejaVuSans-61" transform="translate(118.359375 0)"/>
      <use xlink:href="#DejaVuSans-72" transform="translate(179.638672 0)"/>
      <use xlink:href="#DejaVuSans-74" transform="translate(220.751953 0)"/>
      <use xlink:href="#DejaVuSans-73" transform="translate(259.960938 0)"/>
      <use xlink:href="#DejaVuSans-2f" transform="translate(312.060547 0)"/>
      <use xlink:href="#DejaVuSans-53" transform="translate(345.751953 0)"/>
      <use xlink:href="#DejaVuSans-50" transform="translate(409.228516 0)"/>
      <use xlink:href="#DejaVuSans-53" transform="translate(469.53125 0)"/>
     </g>
    </g>
   </g>
   <g id="line2d_13">
    <path d="M 80.965909 71.891442 
L 82.163743 122.730121 
L 82.76266 143.314432 
L 83.960495 176.541716 
L 84.559412 188.996864 
L 85.158329 198.637011 
L 85.757246 210.272662 
L 86.356163 219.580226 
L 86.95508 226.515039 
L 88.152914 237.971637 
L 89.350748 244.972249 
L 89.949666 250.242547 
L 90.548583 254.117508 
L 92.944251 265.600426 
L 93.543168 269.364925 
L 94.142085 272.399254 
L 94.741002 274.264755 
L 95.339919 275.547635 
L 95.938837 277.30706 
L 97.136671 283.002061 
L 97.735588 284.657802 
L 98.933422 288.882096 
L 100.131256 292.830832 
L 100.730173 294.660442 
L 101.928008 297.313935 
L 103.125842 299.441834 
L 104.323676 303.464345 
L 104.922593 304.817411 
L 105.52151 305.780867 
L 106.120427 306.140568 
L 107.318261 306.140568 
L 107.917179 306.944512 
L 108.516096 308.323898 
L 109.115013 309.313674 
L 109.71393 309.726014 
L 110.312847 310.276333 
L 110.911764 311.279269 
L 111.510681 311.892595 
L 112.109598 312.286591 
L 113.307432 313.31146 
L 113.90635 313.6257 
L 114.505267 314.260959 
L 115.104184 315.248342 
L 115.703101 317.218324 
L 116.302018 318.350863 
L 116.900935 318.362428 
L 117.499852 318.88882 
L 118.098769 318.88882 
L 118.697686 319.254901 
L 120.494438 322.402485 
L 121.093355 323.271031 
L 121.692272 323.47122 
L 122.291189 324.067797 
L 122.890106 324.159118 
L 124.08794 324.864563 
L 124.686857 325.020885 
L 125.285774 325.735103 
L 125.884692 326.059712 
L 126.483609 325.99471 
L 127.082526 325.721943 
L 127.681443 326.059712 
L 130.077111 326.098393 
L 130.676028 326.458094 
L 131.274945 326.488003 
L 131.873862 326.856477 
L 133.071697 326.873226 
L 134.269531 327.693121 
L 134.868448 329.652335 
L 135.467365 330.440328 
L 136.066282 330.441923 
L 136.665199 330.830735 
L 137.863033 330.840306 
L 139.060868 331.609955 
L 142.055453 331.637072 
L 143.852204 331.637072 
L 145.050039 332.362854 
L 146.247873 332.433837 
L 147.445707 332.433837 
L 148.044624 332.739304 
L 149.242458 332.83222 
L 149.841375 332.83222 
L 150.440293 333.120141 
L 152.237044 333.505364 
L 152.835961 333.89936 
L 153.434878 333.761382 
L 154.632712 334.027369 
L 156.429464 334.669806 
L 157.028381 334.824135 
L 157.627298 334.588853 
L 158.226215 334.656646 
L 158.825132 335.277151 
L 159.424049 335.6209 
L 160.022966 335.6209 
L 161.2208 336.417666 
L 164.215386 336.417666 
L 165.41322 336.816049 
L 168.407806 336.816049 
L 170.204557 337.214432 
L 172.600225 337.214432 
L 173.199142 337.335661 
L 173.798059 337.612815 
L 174.995894 337.720885 
L 175.594811 337.907514 
L 176.193728 337.910705 
L 176.792645 338.713053 
L 177.391562 338.40958 
L 177.990479 338.40958 
L 178.589396 338.573081 
L 179.188313 339.28371 
L 179.78723 339.677706 
L 180.386148 339.865931 
L 180.985065 339.27055 
L 181.583982 339.604729 
L 182.182899 339.66016 
L 182.781816 339.952068 
L 183.380733 339.651386 
L 183.97965 340.003112 
L 184.578567 340.040996 
L 185.177484 340.401495 
L 185.776401 340.430606 
L 186.974236 341.19826 
L 187.573153 341.182309 
L 188.17207 340.823007 
L 188.770987 341.596643 
L 189.369904 341.602226 
L 189.968821 342.390219 
L 191.166655 342.393409 
L 191.765572 343.160665 
L 192.364489 342.431692 
L 192.963407 342.393409 
L 193.562324 342.763877 
L 194.760158 342.791792 
L 195.359075 342.434484 
L 197.155826 342.393409 
L 197.754743 342.733171 
L 198.35366 343.462543 
L 198.952578 342.92658 
L 199.551495 343.444996 
L 200.749329 343.190175 
L 201.947163 343.190175 
L 202.54608 343.494844 
L 204.342831 343.880067 
L 205.540666 344.66806 
L 206.139583 344.783706 
L 210.332002 344.783706 
L 211.529837 345.182089 
L 218.716842 345.182089 
L 219.914676 345.580472 
L 235.486521 345.643878 
L 236.085438 345.919835 
L 236.684355 345.635105 
L 237.283272 345.978855 
L 252.855116 345.978855 
L 253.454034 346.309046 
L 254.651868 346.377238 
L 257.047536 346.377238 
L 257.646453 346.676723 
L 258.844287 346.775621 
L 264.833458 346.775621 
L 265.432376 346.533161 
L 266.031293 346.61531 
L 268.426961 346.377238 
L 269.624795 346.377238 
L 270.822629 346.775621 
L 276.8118 346.775621 
L 278.009635 346.527578 
L 278.608552 346.775621 
L 279.207469 346.634053 
L 279.806386 346.377238 
L 289.38906 346.444233 
L 289.987977 346.713012 
L 290.586894 346.493682 
L 291.185811 347.174003 
L 293.581479 347.210293 
L 294.180396 347.572386 
L 295.378231 347.549257 
L 295.977148 347.174003 
L 298.372816 347.172807 
L 298.971733 346.778811 
L 300.169567 346.775621 
L 301.367401 347.55165 
L 302.565236 346.80513 
L 303.164153 347.140107 
L 305.559821 347.174003 
L 306.158738 347.174003 
L 306.757655 347.51217 
L 307.95549 347.572386 
L 310.950075 347.572386 
L 311.548992 347.87546 
L 312.746826 347.572386 
L 313.944661 347.572386 
L 314.543578 347.853527 
L 315.142495 347.970769 
L 316.939246 347.970769 
L 318.13708 348.369152 
L 322.3295 348.369152 
L 323.527334 347.970769 
L 331.313256 347.970769 
L 333.110008 348.369152 
L 340.89593 348.457283 
L 341.494847 348.767535 
L 346.286184 348.816186 
L 346.885101 349.165918 
L 348.681852 349.134813 
L 349.280769 348.794253 
L 349.879687 349.143586 
L 350.478604 348.767535 
L 360.660194 348.767535 
L 361.259111 349.104904 
L 361.858028 348.832935 
L 363.055863 348.767535 
L 363.65478 348.767535 
L 364.253697 349.082971 
L 364.852614 348.854868 
L 366.050448 348.767535 
L 371.440702 348.767535 
L 372.638536 349.165918 
L 384.616878 349.165918 
L 386.41363 348.767535 
L 388.210381 348.767535 
L 389.408215 349.034719 
L 390.007132 348.767535 
L 390.606049 348.767535 
L 391.204966 348.885574 
L 391.803883 349.165918 
L 393.001718 349.061038 
L 393.600635 348.868028 
L 394.199552 349.165918 
L 394.798469 349.074198 
L 395.397386 348.767535 
L 397.793054 348.837322 
L 398.391972 349.100518 
L 398.990889 348.767535 
L 401.386557 348.811002 
L 401.985474 349.165918 
L 403.183308 349.13561 
L 403.782225 348.767535 
L 404.381143 348.789069 
L 404.98006 349.14877 
L 405.578977 348.780296 
L 406.177894 349.157543 
L 406.776811 348.771523 
L 407.974645 349.559515 
L 408.573562 349.564301 
L 409.172479 349.949125 
L 409.771396 349.582246 
L 410.370313 349.564301 
L 410.969231 349.935965 
L 411.568148 349.962684 
L 412.167065 349.599792 
L 412.765982 349.564301 
L 413.364899 349.918419 
L 413.963816 349.962684 
L 414.562733 349.617339 
L 415.16165 349.564301 
L 415.760567 349.900872 
L 416.958402 349.962684 
L 418.156236 349.962684 
L 418.755153 349.648045 
L 419.35407 349.564301 
L 419.952987 349.870166 
L 421.150821 349.962684 
L 449.898842 349.876148 
L 450.497759 349.64645 
L 451.096676 349.884921 
L 451.695593 349.564301 
L 452.893428 349.628903 
L 453.492345 349.962684 
L 461.877184 349.962684 
L 462.476101 350.355483 
L 464.272852 350.361066 
L 464.871769 349.985813 
L 466.668521 349.962684 
L 467.267438 350.320391 
L 467.866355 350.007746 
L 468.465272 349.962684 
L 469.064189 350.307231 
L 470.86094 350.361066 
L 481.641448 350.361066 
L 482.839282 350.759449 
L 485.234951 350.759449 
L 485.833868 350.537727 
L 487.031702 350.5465 
L 487.630619 350.361066 
L 491.823039 350.361066 
L 492.421956 350.534536 
L 493.020873 350.590366 
L 493.61979 350.525763 
L 494.218707 350.759449 
L 494.817624 350.759449 
L 496.614376 351.157832 
L 502.603547 351.058934 
L 503.202464 350.759449 
L 506.197049 350.686871 
L 506.795966 350.429258 
L 507.394884 350.695644 
L 507.993801 350.361066 
L 510.389469 350.402939 
L 510.988386 350.759449 
L 511.587303 350.792548 
L 512.18622 351.12912 
L 512.785137 350.759449 
L 519.373225 350.759449 
L 519.972143 351.129519 
L 522.367811 351.157832 
L 524.164562 351.157832 
L 524.763479 350.822856 
L 525.961314 350.759449 
L 531.351567 350.759449 
L 531.950485 351.041787 
L 532.549402 351.157832 
L 555.907169 351.264706 
L 556.506086 351.556215 
L 557.70392 351.462501 
L 558.302837 351.157832 
L 558.901754 351.242773 
L 559.500671 351.556215 
L 564.292008 351.510754 
L 564.890925 351.157832 
L 573.874681 351.157832 
L 574.473599 351.527104 
L 576.869267 351.556215 
L 584.056272 351.556215 
L 584.655189 351.850915 
L 587.050858 351.157832 
L 587.649775 351.157832 
L 588.248692 351.426212 
L 588.847609 351.556215 
L 590.045443 351.157832 
L 590.64436 351.157832 
L 591.243277 351.404279 
L 591.842194 351.798275 
L 594.237863 351.556215 
L 599.0292 351.556215 
L 600.227034 351.157832 
L 631.370723 351.157832 
L 631.96964 351.504373 
L 633.766391 351.556215 
L 634.365308 351.22722 
L 634.964226 351.48244 
L 635.563143 351.556215 
L 636.16206 351.87205 
L 636.760977 351.643149 
L 637.359894 351.863277 
L 637.958811 351.349247 
L 639.156645 351.556215 
L 640.953397 351.556215 
L 641.552314 351.279859 
L 642.151231 351.429801 
L 642.750148 351.288633 
L 643.947982 351.556215 
L 645.744733 351.556215 
L 646.942568 351.157832 
L 652.931739 351.157832 
L 654.129573 351.556215 
L 666.706832 351.648334 
L 667.305749 351.866866 
L 667.904666 351.63956 
L 668.503583 351.875639 
L 669.1025 351.556215 
L 679.284091 351.556215 
L 679.284091 351.556215 
" clip-path="url(#p97b692139d)" style="fill: none; stroke: #8b0000; stroke-width: 1.5; stroke-linecap: square"/>
   </g>
   <g id="patch_3">
    <path d="M 51.05 390.04 
L 51.05 25.44 
" style="fill: none; stroke: #000000; stroke-width: 0.8; stroke-linejoin: miter; stroke-linecap: square"/>
   </g>
   <g id="patch_4">
    <path d="M 709.2 390.04 
L 709.2 25.44 
" style="fill: none; stroke: #000000; stroke-width: 0.8; stroke-linejoin: miter; stroke-linecap: square"/>
   </g>
   <g id="patch_5">
    <path d="M 51.05 390.04 
L 709.2 390.04 
" style="fill: none; stroke: #000000; stroke-width: 0.8; stroke-linejoin: miter; stroke-linecap: square"/>
   </g>
   <g id="patch_6">
    <path d="M 51.05 25.44 
L 709.2 25.44 
" style="fill: none; stroke: #000000; stroke-width: 0.8; stroke-linejoin: miter; stroke-linecap: square"/>
   </g>
   <g id="text_15">
    <!-- charts/SPS for sac_atari (aggregated via interpolation over runs) -->
    <g transform="translate(186.496563 19.44) scale(0.12 -0.12)">
     <defs>
      <path id="DejaVuSans-20" transform="scale(0.015625)"/>
      <path id="DejaVuSans-66" d="M 2375 4863 
L 2375 4384 
L 1825 4384 
Q 1516 4384 1395 4259 
Q 1275 4134 1275 3809 
L 1275 3500 
L 2222 3500 
L 2222 3053 
L 1275 3053 
L 1275 0 
L 697 0 
L 697 3053 
L 147 3053 
L 147 3500 
L 697 3500 
L 697 3744 
Q 697 4328 969 4595 
Q 1241 4863 1831 4863 
L 2375 4863 
z
" transform="scale(0.015625)"/>
      <path id="DejaVuSans-6f" d="M 1959 3097 
Q 1497 3097 1228 2736 
Q 959 2375 959 1747 
Q 959 1119 1226 758 
Q 1494 397 1959 397 
Q 2419 397 2687 759 
Q 2956 1122 2956 1747 
Q 2956 2369 2687 2733 
Q 2419 3097 1959 3097 
z
M 1959 3584 
Q 2709 3584 3137 3096 
Q 3566 2609 3566 1747 
Q 3566 888 3137 398 
Q 2709 -91 1959 -91 
Q 1206 -91 779 398 
Q 353 888 353 1747 
Q 353 2609 779 3096 
Q 1206 3584 1959 3584 
z
" transform="scale(0.015625)"/>
      <path id="DejaVuSans-5f" d="M 3263 -1063 
L 3263 -1509 
L -63 -1509 
L -63 -1063 
L 3263 -1063 
z
" transform="scale(0.015625)"/>
      <path id="DejaVuSans-69" d="M 603 3500 
L 1178 3500 
L 1178 0 
L 603 0 
L 603 3500 
z
M 603 4863 
L 1178 4863 
L 1178 4134 
L 603 4134 
L 603 4863 
z
" transform="scale(0.015625)"/>
      <path id="DejaVuSans-28" d="M 1984 4856 
Q 1566 4138 1362 3434 
Q 1159 2731 1159 2009 
Q 1159 1288 1364 580 
Q 1569 -128 1984 -844 
L 1484 -844 
Q 1016 -109 783 600 
Q 550 1309 550 2009 
Q 550 2706 781 3412 
Q 1013 4119 1484 4856 
L 1984 4856 
z
" transform="scale(0.015625)"/>
      <path id="DejaVuSans-67" d="M 2906 1791 
Q 2906 2416 2648 2759 
Q 2391 3103 1925 3103 
Q 1463 3103 1205 2759 
Q 947 2416 947 1791 
Q 947 1169 1205 825 
Q 1463 481 1925 481 
Q 2391 481 2648 825 
Q 2906 1169 2906 1791 
z
M 3481 434 
Q 3481 -459 3084 -895 
Q 2688 -1331 1869 -1331 
Q 1566 -1331 1297 -1286 
Q 1028 -1241 775 -1147 
L 775 -588 
Q 1028 -725 1275 -790 
Q 1522 -856 1778 -856 
Q 2344 -856 2625 -561 
Q 2906 -266 2906 331 
L 2906 616 
Q 2728 306 2450 153 
Q 2172 0 1784 0 
Q 1141 0 747 490 
Q 353 981 353 1791 
Q 353 2603 747 3093 
Q 1141 3584 1784 3584 
Q 2172 3584 2450 3431 
Q 2728 3278 2906 2969 
L 2906 3500 
L 3481 3500 
L 3481 434 
z
" transform="scale(0.015625)"/>
      <path id="DejaVuSans-64" d="M 2906 2969 
L 2906 4863 
L 3481 4863 
L 3481 0 
L 2906 0 
L 2906 525 
Q 2725 213 2448 61 
Q 2172 -91 1784 -91 
Q 1150 -91 751 415 
Q 353 922 353 1747 
Q 353 2572 751 3078 
Q 1150 3584 1784 3584 
Q 2172 3584 2448 3432 
Q 2725 3281 2906 2969 
z
M 947 1747 
Q 947 1113 1208 752 
Q 1469 391 1925 391 
Q 2381 391 2643 752 
Q 2906 1113 2906 1747 
Q 2906 2381 2643 2742 
Q 2381 3103 1925 3103 
Q 1469 3103 1208 2742 
Q 947 2381 947 1747 
z
" transform="scale(0.015625)"/>
      <path id="DejaVuSans-76" d="M 191 3500 
L 800 3500 
L 1894 563 
L 2988 3500 
L 3597 3500 
L 2284 0 
L 1503 0 
L 191 3500 
z
" transform="scale(0.015625)"/>
      <path id="DejaVuSans-6e" d="M 3513 2113 
L 3513 0 
L 2938 0 
L 2938 2094 
Q 2938 2591 2744 2837 
Q 2550 3084 2163 3084 
Q 1697 3084 1428 2787 
Q 1159 2491 1159 1978 
L 1159 0 
L 581 0 
L 581 3500 
L 1159 3500 
L 1159 2956 
Q 1366 3272 1645 3428 
Q 1925 3584 2291 3584 
Q 2894 3584 3203 3211 
Q 3513 2838 3513 2113 
z
" transform="scale(0.015625)"/>
      <path id="DejaVuSans-6c" d="M 603 4863 
L 1178 4863 
L 1178 0 
L 603 0 
L 603 4863 
z
" transform="scale(0.015625)"/>
      <path id="DejaVuSans-75" d="M 544 1381 
L 544 3500 
L 1119 3500 
L 1119 1403 
Q 1119 906 1312 657 
Q 1506 409 1894 409 
Q 2359 409 2629 706 
Q 2900 1003 2900 1516 
L 2900 3500 
L 3475 3500 
L 3475 0 
L 2900 0 
L 2900 538 
Q 2691 219 2414 64 
Q 2138 -91 1772 -91 
Q 1169 -91 856 284 
Q 544 659 544 1381 
z
M 1991 3584 
L 1991 3584 
z
" transform="scale(0.015625)"/>
      <path id="DejaVuSans-29" d="M 513 4856 
L 1013 4856 
Q 1481 4119 1714 3412 
Q 1947 2706 1947 2009 
Q 1947 1309 1714 600 
Q 1481 -109 1013 -844 
L 513 -844 
Q 928 -128 1133 580 
Q 1338 1288 1338 2009 
Q 1338 2731 1133 3434 
Q 928 4138 513 4856 
z
" transform="scale(0.015625)"/>
     </defs>
     <use xlink:href="#DejaVuSans-63"/>
     <use xlink:href="#DejaVuSans-68" transform="translate(54.980469 0)"/>
     <use xlink:href="#DejaVuSans-61" transform="translate(118.359375 0)"/>
     <use xlink:href="#DejaVuSans-72" transform="translate(179.638672 0)"/>
     <use xlink:href="#DejaVuSans-74" transform="translate(220.751953 0)"/>
     <use xlink:href="#DejaVuSans-73" transform="translate(259.960938 0)"/>
     <use xlink:href="#DejaVuSans-2f" transform="translate(312.060547 0)"/>
     <use xlink:href="#DejaVuSans-53" transform="translate(345.751953 0)"/>
     <use xlink:href="#DejaVuSans-50" transform="translate(409.228516 0)"/>
     <use xlink:href="#DejaVuSans-53" transform="translate(469.53125 0)"/>
     <use xlink:href="#DejaVuSans-20" transform="translate(533.007812 0)"/>
     <use xlink:href="#DejaVuSans-66" transform="translate(564.794922 0)"/>
     <use xlink:href="#DejaVuSans-6f" transform="translate(600 0)"/>
     <use xlink:href="#DejaVuSans-72" transform="translate(661.181641 0)"/>
     <use xlink:href="#DejaVuSans-20" transform="translate(702.294922 0)"/>
     <use xlink:href="#DejaVuSans-73" transform="translate(734.082031 0)"/>
     <use xlink:href="#DejaVuSans-61" transform="translate(786.181641 0)"/>
     <use xlink:href="#DejaVuSans-63" transform="translate(847.460938 0)"/>
     <use xlink:href="#DejaVuSans-5f" transform="translate(902.441406 0)"/>
     <use xlink:href="#DejaVuSans-61" transform="translate(952.441406 0)"/>
     <use xlink:href="#DejaVuSans-74" transform="translate(1013.720703 0)"/>
     <use xlink:href="#DejaVuSans-61" transform="translate(1052.929688 0)"/>
     <use xlink:href="#DejaVuSans-72" transform="translate(1114.208984 0)"/>
     <use xlink:href="#DejaVuSans-69" transform="translate(1155.322266 0)"/>
     <use xlink:href="#DejaVuSans-20" transform="translate(1183.105469 0)"/>
     <use xlink:href="#DejaVuSans-28" transform="translate(1214.892578 0)"/>
     <use xlink:href="#DejaVuSans-61" transform="translate(1253.90625 0)"/>
     <use xlink:href="#DejaVuSans-67" transform="translate(1315.185547 0)"/>
     <use xlink:href="#DejaVuSans-67" transform="translate(1378.662109 0)"/>
     <use xlink:href="#DejaVuSans-72" transform="translate(1442.138672 0)"/>
     <use xlink:href="#DejaVuSans-65" transform="translate(1481.001953 0)"/>
     <use xlink:href="#DejaVuSans-67" transform="translate(1542.525391 0)"/>
     <use xlink:href="#DejaVuSans-61" transform="translate(1606.001953 0)"/>
     <use xlink:href="#DejaVuSans-74" transform="translate(1667.28125 0)"/>
     <use xlink:href="#DejaVuSans-65" transform="translate(1706.490234 0)"/>
     <use xlink:href="#DejaVuSans-64" transform="translate(1768.013672 0)"/>
     <use xlink:href="#DejaVuSans-20" transform="translate(1831.490234 0)"/>
     <use xlink:href="#DejaVuSans-76" transform="translate(1863.277344 0)"/>
     <use xlink:href="#DejaVuSans-69" transform="translate(1922.457031 0)"/>
     <use xlink:href="#DejaVuSans-61" transform="translate(1950.240234 0)"/>
     <use xlink:href="#DejaVuSans-20" transform="translate(2011.519531 0)"/>
     <use xlink:href="#DejaVuSans-69" transform="translate(2043.306641 0)"/>
     <use xlink:href="#DejaVuSans-6e" transform="translate(2071.089844 0)"/>
     <use xlink:href="#DejaVuSans-74" transform="translate(2134.46875 0)"/>
     <use xlink:href="#DejaVuSans-65" transform="translate(2173.677734 0)"/>
     <use xlink:href="#DejaVuSans-72" transform="translate(2235.201172 0)"/>
     <use xlink:href="#DejaVuSans-70" transform="translate(2276.314453 0)"/>
     <use xlink:href="#DejaVuSans-6f" transform="translate(2339.791016 0)"/>
     <use xlink:href="#DejaVuSans-6c" transform="translate(2400.972656 0)"/>
     <use xlink:href="#DejaVuSans-61" transform="translate(2428.755859 0)"/>
     <use xlink:href="#DejaVuSans-74" transform="translate(2490.035156 0)"/>
     <use xlink:href="#DejaVuSans-69" transform="translate(2529.244141 0)"/>
     <use xlink:href="#DejaVuSans-6f" transform="translate(2557.027344 0)"/>
     <use xlink:href="#DejaVuSans-6e" transform="translate(2618.208984 0)"/>
     <use xlink:href="#DejaVuSans-20" transform="translate(2681.587891 0)"/>
     <use xlink:href="#DejaVuSans-6f" transform="translate(2713.375 0)"/>
     <use xlink:href="#DejaVuSans-76" transform="translate(2774.556641 0)"/>
     <use xlink:href="#DejaVuSans-65" transform="translate(2833.736328 0)"/>
     <use xlink:href="#DejaVuSans-72" transform="translate(2895.259766 0)"/>
     <use xlink:href="#DejaVuSans-20" transform="translate(2936.373047 0)"/>
     <use xlink:href="#DejaVuSans-72" transform="translate(2968.160156 0)"/>
     <use xlink:href="#DejaVuSans-75" transform="translate(3009.273438 0)"/>
     <use xlink:href="#DejaVuSans-6e" transform="translate(3072.652344 0)"/>
     <use xlink:href="#DejaVuSans-73" transform="translate(3136.03125 0)"/>
     <use xlink:href="#DejaVuSans-29" transform="translate(3188.130859 0)"/>
    </g>
   </g>
   <g id="legend_1">
    <g id="patch_7">
     <path d="M 626.78125 62.79625 
L 702.2 62.79625 
Q 704.2 62.79625 704.2 60.79625 
L 704.2 32.44 
Q 704.2 30.44 702.2 30.44 
L 626.78125 30.44 
Q 624.78125 30.44 624.78125 32.44 
L 624.78125 60.79625 
Q 624.78125 62.79625 626.78125 62.79625 
z
" style="fill: #ffffff; opacity: 0.8; stroke: #cccccc; stroke-linejoin: miter"/>
    </g>
    <g id="line2d_14">
     <path d="M 628.78125 38.538437 
L 638.78125 38.538437 
L 648.78125 38.538437 
" style="fill: none; stroke: #8b0000; stroke-width: 1.5; stroke-linecap: square"/>
    </g>
    <g id="text_16">
     <!-- Mean -->
     <g transform="translate(656.78125 42.038437) scale(0.1 -0.1)">
      <defs>
       <path id="DejaVuSans-4d" d="M 628 4666 
L 1569 4666 
L 2759 1491 
L 3956 4666 
L 4897 4666 
L 4897 0 
L 4281 0 
L 4281 4097 
L 3078 897 
L 2444 897 
L 1241 4097 
L 1241 0 
L 628 0 
L 628 4666 
z
" transform="scale(0.015625)"/>
      </defs>
      <use xlink:href="#DejaVuSans-4d"/>
      <use xlink:href="#DejaVuSans-65" transform="translate(86.279297 0)"/>
      <use xlink:href="#DejaVuSans-61" transform="translate(147.802734 0)"/>
      <use xlink:href="#DejaVuSans-6e" transform="translate(209.082031 0)"/>
     </g>
    </g>
    <g id="patch_8">
     <path d="M 628.78125 56.716563 
L 648.78125 56.716563 
L 648.78125 49.716563 
L 628.78125 49.716563 
z
" style="fill: #8b0000; fill-opacity: 0.3; stroke: #8b0000; stroke-opacity: 0.3; stroke-linejoin: miter"/>
    </g>
    <g id="text_17">
     <!-- MinMax -->
     <g transform="translate(656.78125 56.716563) scale(0.1 -0.1)">
      <defs>
       <path id="DejaVuSans-2013" d="M 313 1978 
L 2888 1978 
L 2888 1528 
L 313 1528 
L 313 1978 
z
" transform="scale(0.015625)"/>
       <path id="DejaVuSans-78" d="M 3513 3500 
L 2247 1797 
L 3578 0 
L 2900 0 
L 1881 1375 
L 863 0 
L 184 0 
L 1544 1831 
L 300 3500 
L 978 3500 
L 1906 2253 
L 2834 3500 
L 3513 3500 
z
" transform="scale(0.015625)"/>
      </defs>
      <use xlink:href="#DejaVuSans-4d"/>
      <use xlink:href="#DejaVuSans-69" transform="translate(86.279297 0)"/>
      <use xlink:href="#DejaVuSans-6e" transform="translate(114.0625 0)"/>
      <use xlink:href="#DejaVuSans-2013" transform="translate(177.441406 0)"/>
      <use xlink:href="#DejaVuSans-4d" transform="translate(227.441406 0)"/>
      <use xlink:href="#DejaVuSans-61" transform="translate(313.720703 0)"/>
      <use xlink:href="#DejaVuSans-78" transform="translate(375 0)"/>
     </g>
    </g>
   </g>
  </g>
 </g>
 <defs>
  <clipPath id="p97b692139d">
   <rect x="51.05" y="25.44" width="658.15" height="364.6"/>
  </clipPath>
 </defs>
</svg>
