<?xml version="1.0" encoding="utf-8" standalone="no"?>
<!DOCTYPE svg PUBLIC "-//W3C//DTD SVG 1.1//EN"
  "http://www.w3.org/Graphics/SVG/1.1/DTD/svg11.dtd">
<svg xmlns:xlink="http://www.w3.org/1999/xlink" width="720pt" height="432pt" viewBox="0 0 720 432" xmlns="http://www.w3.org/2000/svg" version="1.1">
 <metadata>
  <rdf:RDF xmlns:dc="http://purl.org/dc/elements/1.1/" xmlns:cc="http://creativecommons.org/ns#" xmlns:rdf="http://www.w3.org/1999/02/22-rdf-syntax-ns#">
   <cc:Work>
    <dc:type rdf:resource="http://purl.org/dc/dcmitype/StillImage"/>
    <dc:date>2025-02-05T20:32:21.426456</dc:date>
    <dc:format>image/svg+xml</dc:format>
    <dc:creator>
     <cc:Agent>
      <dc:title>Matplotlib v3.10.0, https://matplotlib.org/</dc:title>
     </cc:Agent>
    </dc:creator>
   </cc:Work>
  </rdf:RDF>
 </metadata>
 <defs>
  <style type="text/css">*{stroke-linejoin: round; stroke-linecap: butt}</style>
 </defs>
 <g id="figure_1">
  <g id="patch_1">
   <path d="M 0 432 
L 720 432 
L 720 0 
L 0 0 
z
" style="fill: #ffffff"/>
  </g>
  <g id="axes_1">
   <g id="patch_2">
    <path d="M 47.81 390.04 
L 709.2 390.04 
L 709.2 25.44 
L 47.81 25.44 
z
" style="fill: #ffffff"/>
   </g>
   <g id="FillBetweenPolyCollection_1">
    <defs>
     <path id="m4a3f3a3b5d" d="M 77.873182 -308.346867 
L 77.873182 -305.0233 
L 78.475047 -303.05356 
L 79.076913 -301.130337 
L 79.678778 -299.261418 
L 80.280644 -297.418533 
L 80.882509 -295.590361 
L 81.484375 -293.797405 
L 82.08624 -292.034745 
L 82.688106 -290.299669 
L 83.289971 -288.589371 
L 83.891837 -286.903747 
L 84.493702 -285.246012 
L 85.095568 -283.607138 
L 85.697433 -281.985104 
L 86.299299 -280.383332 
L 86.901164 -278.800223 
L 87.50303 -277.23373 
L 88.104895 -275.682546 
L 88.706761 -274.147687 
L 89.308626 -272.629668 
L 89.910492 -271.127689 
L 90.512357 -269.642502 
L 91.114223 -268.173156 
L 91.716088 -266.719208 
L 92.317954 -265.278801 
L 92.919819 -263.852659 
L 93.521685 -262.447578 
L 94.12355 -261.058946 
L 94.725416 -259.678543 
L 95.327281 -258.308063 
L 95.929147 -256.950766 
L 96.531012 -255.611757 
L 97.132878 -254.286661 
L 97.734743 -252.969793 
L 98.336609 -251.663429 
L 98.938474 -250.37019 
L 99.54034 -249.089886 
L 100.142205 -247.822022 
L 100.744071 -246.566345 
L 101.345936 -245.32223 
L 101.947802 -244.090341 
L 102.549667 -242.873718 
L 103.151533 -241.673467 
L 103.753398 -240.484728 
L 104.355264 -239.298991 
L 104.957129 -238.122757 
L 105.558995 -236.959647 
L 106.16086 -235.808226 
L 106.762726 -234.668685 
L 107.364591 -233.536999 
L 107.966457 -232.41565 
L 108.568322 -231.30043 
L 109.170188 -230.195264 
L 109.772053 -229.099997 
L 110.373919 -228.012844 
L 110.975784 -226.93021 
L 111.57765 -225.85663 
L 112.179515 -224.791564 
L 112.781381 -223.735278 
L 113.383246 -222.688383 
L 113.985112 -221.650605 
L 114.586977 -220.620682 
L 115.188843 -219.598042 
L 115.790708 -218.584208 
L 116.392574 -217.579416 
L 116.994439 -216.583483 
L 117.596305 -215.59509 
L 118.19817 -214.613706 
L 118.800036 -213.639787 
L 119.401901 -212.673183 
L 120.003767 -211.713902 
L 120.605632 -210.762186 
L 121.207498 -209.818129 
L 121.809363 -208.881989 
L 122.411229 -207.953122 
L 123.013094 -207.03111 
L 123.61496 -206.116826 
L 124.216825 -205.212237 
L 124.818691 -204.316195 
L 125.420556 -203.424602 
L 126.022422 -202.539725 
L 126.624287 -201.661086 
L 127.226153 -200.788969 
L 127.828018 -199.925459 
L 128.429884 -199.072374 
L 129.031749 -198.224186 
L 129.633615 -197.384107 
L 130.23548 -196.541745 
L 130.837346 -195.705598 
L 131.439211 -194.875634 
L 132.041077 -194.05174 
L 132.642942 -193.234045 
L 133.244808 -192.422519 
L 133.846673 -191.616685 
L 134.448539 -190.816556 
L 135.050404 -190.02209 
L 135.65227 -189.233173 
L 136.254135 -188.449844 
L 136.856001 -187.672035 
L 137.457867 -186.899783 
L 138.059732 -186.132984 
L 138.661598 -185.371562 
L 139.263463 -184.615511 
L 139.865329 -183.864676 
L 140.467194 -183.119075 
L 141.06906 -182.378639 
L 141.670925 -181.643312 
L 142.272791 -180.913043 
L 142.874656 -180.187735 
L 143.476522 -179.467355 
L 144.078387 -178.751885 
L 144.680253 -178.041291 
L 145.282118 -177.335532 
L 145.883984 -176.634552 
L 146.485849 -175.938333 
L 147.087715 -175.246874 
L 147.68958 -174.560083 
L 148.291446 -173.877928 
L 148.893311 -173.200392 
L 149.495177 -172.52743 
L 150.097042 -171.858957 
L 150.698908 -171.194906 
L 151.300773 -170.535243 
L 151.902639 -169.879927 
L 152.504504 -169.228936 
L 153.10637 -168.582204 
L 153.708235 -167.939687 
L 154.310101 -167.301376 
L 154.911966 -166.667241 
L 155.513832 -166.037252 
L 156.115697 -165.411384 
L 156.717563 -164.789607 
L 157.319428 -164.171868 
L 157.921294 -163.558131 
L 158.523159 -162.948366 
L 159.125025 -162.342553 
L 159.72689 -161.740654 
L 160.328756 -161.142634 
L 160.930621 -160.548461 
L 161.532487 -159.958076 
L 162.134352 -159.371427 
L 162.736218 -158.788498 
L 163.338083 -158.209297 
L 163.939949 -157.633792 
L 164.541814 -157.06194 
L 165.14368 -156.4937 
L 165.745545 -155.929056 
L 166.347411 -155.367978 
L 166.949276 -154.810414 
L 167.551142 -154.256331 
L 168.153007 -153.705706 
L 168.754873 -153.158535 
L 169.356738 -152.614762 
L 169.958604 -152.074356 
L 170.560469 -151.537319 
L 171.162335 -151.003589 
L 171.7642 -150.473145 
L 172.366066 -149.946004 
L 172.967931 -149.422164 
L 173.569797 -148.901575 
L 174.171662 -148.384216 
L 174.773528 -147.870031 
L 175.375393 -147.358977 
L 175.977259 -146.850983 
L 176.579124 -146.346039 
L 177.18099 -145.844171 
L 177.782855 -145.345344 
L 178.384721 -144.849584 
L 178.986586 -144.356862 
L 179.588452 -143.867153 
L 180.190317 -143.380406 
L 180.792183 -142.896577 
L 181.394048 -142.41566 
L 181.995914 -141.937658 
L 182.597779 -141.462544 
L 183.199645 -140.990294 
L 183.80151 -140.520785 
L 184.403376 -140.054096 
L 185.005241 -139.590268 
L 185.607107 -139.129168 
L 186.208972 -138.67077 
L 186.810838 -138.215151 
L 187.412703 -137.762228 
L 188.014569 -137.312003 
L 188.616434 -136.864485 
L 189.2183 -136.419666 
L 189.820165 -135.977512 
L 190.422031 -135.537959 
L 191.023896 -135.101039 
L 191.625762 -134.66667 
L 192.227627 -134.23489 
L 192.829493 -133.805686 
L 193.431358 -133.379079 
L 194.033224 -132.954953 
L 194.635089 -132.533325 
L 195.236955 -132.11417 
L 195.83882 -131.69745 
L 196.440686 -131.283204 
L 197.042551 -130.871336 
L 197.644417 -130.461904 
L 198.246282 -130.054818 
L 198.848148 -129.650117 
L 199.450013 -129.247749 
L 200.051879 -128.847752 
L 200.653744 -128.450052 
L 201.25561 -128.054684 
L 201.857475 -127.66159 
L 202.459341 -127.270793 
L 203.061206 -126.882257 
L 203.663072 -126.495973 
L 204.264937 -126.11193 
L 204.866803 -125.730075 
L 205.468668 -125.350454 
L 206.070534 -124.972994 
L 206.672399 -124.59774 
L 207.274265 -124.224633 
L 207.87613 -123.853671 
L 208.477996 -123.484857 
L 209.079861 -123.118163 
L 209.681727 -122.7536 
L 210.283592 -122.391107 
L 210.885458 -122.030694 
L 211.487323 -121.672363 
L 212.089189 -121.316065 
L 212.691054 -120.96183 
L 213.29292 -120.609621 
L 213.894785 -120.259419 
L 214.496651 -119.911243 
L 215.098516 -119.56503 
L 215.700382 -119.220811 
L 216.302247 -118.878586 
L 216.904113 -118.538304 
L 217.505978 -118.199989 
L 218.107844 -117.863587 
L 218.709709 -117.529099 
L 219.311575 -117.196553 
L 219.91344 -116.865866 
L 220.515306 -116.537061 
L 221.117171 -116.210169 
L 221.719037 -115.8851 
L 222.320902 -115.561889 
L 222.922768 -115.240561 
L 223.524633 -114.921018 
L 224.126499 -114.603309 
L 224.728364 -114.287432 
L 225.33023 -113.9733 
L 225.932095 -113.660961 
L 226.533961 -113.35044 
L 227.135826 -113.04163 
L 227.737692 -112.734535 
L 228.339557 -112.429216 
L 228.941423 -112.125639 
L 229.543288 -111.823754 
L 230.145154 -111.523624 
L 230.747019 -111.225184 
L 231.348885 -110.928402 
L 231.95075 -110.633331 
L 232.552616 -110.339942 
L 233.154481 -110.048169 
L 233.756347 -109.758033 
L 234.358212 -109.469611 
L 234.960078 -109.182771 
L 235.561943 -108.89752 
L 236.163809 -108.613894 
L 236.765674 -108.331906 
L 237.36754 -108.051478 
L 237.969405 -107.772699 
L 238.571271 -107.495478 
L 239.173136 -107.219784 
L 239.775002 -106.945734 
L 240.376867 -106.673199 
L 240.978733 -106.402231 
L 241.580598 -106.132814 
L 242.182464 -105.86489 
L 242.784329 -105.59847 
L 243.386195 -105.333624 
L 243.98806 -105.070282 
L 244.589926 -104.808461 
L 245.191791 -104.548081 
L 245.793657 -104.289124 
L 246.395522 -104.031692 
L 246.997388 -103.775698 
L 247.599253 -103.521107 
L 248.201119 -103.267913 
L 248.802984 -103.016172 
L 249.40485 -102.765862 
L 250.006715 -102.516971 
L 250.608581 -102.26954 
L 251.210446 -102.023572 
L 251.812312 -101.778964 
L 252.414177 -101.535797 
L 253.016043 -101.293983 
L 253.617908 -101.053488 
L 254.219774 -100.814305 
L 254.821639 -100.576474 
L 255.423505 -100.340005 
L 256.02537 -100.104845 
L 256.627236 -99.871047 
L 257.229101 -99.638566 
L 257.830967 -99.407363 
L 258.432832 -99.177491 
L 259.034698 -98.948916 
L 259.636563 -98.721592 
L 260.238429 -98.495512 
L 260.840294 -98.270661 
L 261.44216 -98.047035 
L 262.044025 -97.824631 
L 262.645891 -97.603483 
L 263.247756 -97.383596 
L 263.849622 -97.164948 
L 264.451487 -96.947533 
L 265.053353 -96.73129 
L 265.655218 -96.516253 
L 266.257084 -96.302422 
L 266.858949 -96.089756 
L 267.460815 -95.878254 
L 268.06268 -95.667961 
L 268.664546 -95.458866 
L 269.266411 -95.250949 
L 269.868277 -95.044217 
L 270.470142 -94.838625 
L 271.072008 -94.634153 
L 271.673873 -94.430826 
L 272.275739 -94.228657 
L 272.877604 -94.027611 
L 273.47947 -93.827703 
L 274.081335 -93.628966 
L 274.683201 -93.431363 
L 275.285066 -93.234865 
L 275.886932 -93.039434 
L 276.488797 -92.845064 
L 277.090663 -92.651751 
L 277.692528 -92.459486 
L 278.294394 -92.268294 
L 278.896259 -92.078204 
L 279.498125 -91.889156 
L 280.09999 -91.701135 
L 280.701856 -91.514162 
L 281.303721 -91.32827 
L 281.905587 -91.143394 
L 282.507452 -90.959521 
L 283.109318 -90.77667 
L 283.711183 -90.594912 
L 284.313049 -90.414212 
L 284.914914 -90.234504 
L 285.51678 -90.055851 
L 286.118645 -89.87826 
L 286.720511 -89.701648 
L 287.322376 -89.526072 
L 287.924242 -89.351543 
L 288.526107 -89.17798 
L 289.127973 -89.00548 
L 289.729838 -88.833949 
L 290.331704 -88.663348 
L 290.933569 -88.493686 
L 291.535435 -88.325086 
L 292.1373 -88.157315 
L 292.739166 -87.990744 
L 293.341031 -87.825236 
L 293.942897 -87.660623 
L 294.544762 -87.496936 
L 295.146628 -87.334263 
L 295.748493 -87.172469 
L 296.350359 -87.011495 
L 296.952224 -86.851203 
L 297.55409 -86.691368 
L 298.155956 -86.531314 
L 298.757821 -86.372132 
L 299.359687 -86.213813 
L 299.961552 -86.056358 
L 300.563418 -85.899821 
L 301.165283 -85.74423 
L 301.767149 -85.58939 
L 302.369014 -85.435428 
L 302.97088 -85.282363 
L 303.572745 -85.130037 
L 304.174611 -84.978478 
L 304.776476 -84.827738 
L 305.378342 -84.677818 
L 305.980207 -84.528713 
L 306.582073 -84.380418 
L 307.183938 -84.232929 
L 307.785804 -84.086269 
L 308.387669 -83.940511 
L 308.989535 -83.79557 
L 309.5914 -83.651418 
L 310.193266 -83.508141 
L 310.795131 -83.365694 
L 311.396997 -83.224029 
L 311.998862 -83.083133 
L 312.600728 -82.943048 
L 313.202593 -82.803696 
L 313.804459 -82.665079 
L 314.406324 -82.527296 
L 315.00819 -82.390318 
L 315.610055 -82.254092 
L 316.211921 -82.118604 
L 316.813786 -81.983852 
L 317.415652 -81.849828 
L 318.017517 -81.716529 
L 318.619383 -81.583956 
L 319.221248 -81.452118 
L 319.823114 -81.32107 
L 320.424979 -81.19078 
L 321.026845 -81.061195 
L 321.62871 -80.932306 
L 322.230576 -80.804091 
L 322.832441 -80.676515 
L 323.434307 -80.549656 
L 324.036172 -80.423542 
L 324.638038 -80.298112 
L 325.239903 -80.173364 
L 325.841769 -80.049518 
L 326.443634 -79.931727 
L 327.0455 -79.8271 
L 327.647365 -79.705295 
L 328.249231 -79.584183 
L 328.851096 -79.463791 
L 329.452962 -79.344032 
L 330.054827 -79.22485 
L 330.656693 -79.106345 
L 331.258558 -78.988557 
L 331.860424 -78.871405 
L 332.462289 -78.754884 
L 333.064155 -78.63899 
L 333.66602 -78.523723 
L 334.267886 -78.409076 
L 334.869751 -78.295047 
L 335.471617 -78.181632 
L 336.073482 -78.068837 
L 336.675348 -77.956695 
L 337.277213 -77.845229 
L 337.879079 -77.734397 
L 338.480944 -77.624225 
L 339.08281 -77.5146 
L 339.684675 -77.405623 
L 340.286541 -77.297251 
L 340.888406 -77.189517 
L 341.490272 -77.082433 
L 342.092137 -76.976015 
L 342.694003 -76.870174 
L 343.295868 -76.764901 
L 343.897734 -76.660196 
L 344.499599 -76.556091 
L 345.101465 -76.452605 
L 345.70333 -76.349589 
L 346.305196 -76.247109 
L 346.907061 -76.145209 
L 347.508927 -76.043938 
L 348.110792 -75.943209 
L 348.712658 -75.843019 
L 349.314523 -75.743367 
L 349.916389 -75.644249 
L 350.518254 -75.545729 
L 351.12012 -75.447777 
L 351.721985 -75.350362 
L 352.323851 -75.253567 
L 352.925716 -75.157301 
L 353.527582 -75.061641 
L 354.129447 -74.966498 
L 354.731313 -74.871862 
L 355.333178 -74.777732 
L 355.935044 -74.684104 
L 356.536909 -74.590978 
L 357.138775 -74.498348 
L 357.74064 -74.406213 
L 358.342506 -74.314642 
L 358.944371 -74.223626 
L 359.546237 -74.133143 
L 360.148102 -74.043073 
L 360.749968 -73.95347 
L 361.351833 -73.864345 
L 361.953699 -73.775696 
L 362.555564 -73.687569 
L 363.15743 -73.599954 
L 363.759295 -73.512811 
L 364.361161 -73.426184 
L 364.963026 -73.340057 
L 365.564892 -73.254466 
L 366.166757 -73.169386 
L 366.768623 -73.084808 
L 367.370488 -73.000758 
L 367.972354 -72.91718 
L 368.574219 -72.834045 
L 369.176085 -72.751351 
L 369.77795 -72.669058 
L 370.379816 -72.587161 
L 370.981681 -72.50567 
L 371.583547 -72.424564 
L 372.185412 -72.343882 
L 372.787278 -72.263676 
L 373.389143 -72.183922 
L 373.991009 -72.104605 
L 374.592874 -72.025756 
L 375.19474 -71.947311 
L 375.796605 -71.869245 
L 376.398471 -71.791587 
L 377.000336 -71.714311 
L 377.602202 -71.63739 
L 378.204067 -71.560847 
L 378.805933 -71.484718 
L 379.407798 -71.408972 
L 380.009664 -71.333561 
L 380.611529 -71.258511 
L 381.213395 -71.183891 
L 381.81526 -71.109693 
L 382.417126 -71.035866 
L 383.018991 -70.962449 
L 383.620857 -70.88945 
L 384.222722 -70.816812 
L 384.824588 -70.744516 
L 385.426453 -70.672628 
L 386.028319 -70.601153 
L 386.630184 -70.530016 
L 387.23205 -70.459255 
L 387.833915 -70.388885 
L 388.435781 -70.31884 
L 389.037646 -70.249119 
L 389.639512 -70.179766 
L 390.241377 -70.110783 
L 390.843243 -70.042169 
L 391.445108 -69.97392 
L 392.046974 -69.906036 
L 392.648839 -69.838514 
L 393.250705 -69.771354 
L 393.85257 -69.70455 
L 394.454436 -69.63812 
L 395.056301 -69.572098 
L 395.658167 -69.50643 
L 396.260032 -69.441116 
L 396.861898 -69.376174 
L 397.463763 -69.311622 
L 398.065629 -69.247416 
L 398.667494 -69.18355 
L 399.26936 -69.120024 
L 399.871225 -69.056837 
L 400.473091 -68.993987 
L 401.074956 -68.931474 
L 401.676822 -68.869326 
L 402.278687 -68.807542 
L 402.880553 -68.746088 
L 403.482418 -68.684962 
L 404.084284 -68.624224 
L 404.686149 -68.563811 
L 405.288015 -68.503719 
L 405.88988 -68.443946 
L 406.491746 -68.384558 
L 407.093611 -68.325486 
L 407.695477 -68.266729 
L 408.297342 -68.208284 
L 408.899208 -68.150149 
L 409.501073 -68.092322 
L 410.102939 -68.034803 
L 410.704804 -67.977588 
L 411.30667 -67.920678 
L 411.908535 -67.86407 
L 412.510401 -67.807762 
L 413.112266 -67.751752 
L 413.714132 -67.69604 
L 414.315997 -67.640633 
L 414.917863 -67.585565 
L 415.519728 -67.530819 
L 416.121594 -67.476395 
L 416.723459 -67.422264 
L 417.325325 -67.368422 
L 417.92719 -67.314876 
L 418.529056 -67.261651 
L 419.130921 -67.208716 
L 419.732787 -67.156062 
L 420.334652 -67.103709 
L 420.936518 -67.051661 
L 421.538383 -66.999908 
L 422.140249 -66.948461 
L 422.742114 -66.897298 
L 423.34398 -66.846404 
L 423.945845 -66.795784 
L 424.547711 -66.745465 
L 425.149576 -66.695446 
L 425.751442 -66.645718 
L 426.353307 -66.596263 
L 426.955173 -66.547081 
L 427.557038 -66.498185 
L 428.158904 -66.449561 
L 428.760769 -66.401199 
L 429.362635 -66.353121 
L 429.9645 -66.305314 
L 430.566366 -66.257758 
L 431.168231 -66.210473 
L 431.770097 -66.163463 
L 432.371962 -66.116722 
L 432.973828 -66.070256 
L 433.575693 -66.024695 
L 434.177559 -65.979465 
L 434.779424 -65.933958 
L 435.38129 -65.888891 
L 435.983155 -65.849447 
L 436.585021 -65.812602 
L 437.186886 -65.772353 
L 437.788752 -65.732258 
L 438.390617 -65.689157 
L 438.992483 -65.645402 
L 439.594348 -65.601949 
L 440.196214 -65.558617 
L 440.798079 -65.515244 
L 441.399945 -65.472185 
L 442.00181 -65.429499 
L 442.603676 -65.387157 
L 443.205541 -65.345743 
L 443.807407 -65.305232 
L 444.409272 -65.263715 
L 445.011138 -65.222431 
L 445.613003 -65.181869 
L 446.214869 -65.142252 
L 446.816734 -65.102428 
L 447.4186 -65.062141 
L 448.020465 -65.021872 
L 448.622331 -64.981687 
L 449.224196 -64.941651 
L 449.826062 -64.901674 
L 450.427927 -64.861841 
L 451.029793 -64.822202 
L 451.631658 -64.782746 
L 452.233524 -64.743446 
L 452.835389 -64.704466 
L 453.437255 -64.665914 
L 454.03912 -64.627764 
L 454.640986 -64.590128 
L 455.242851 -64.553455 
L 455.844717 -64.517695 
L 456.446582 -64.48147 
L 457.048448 -64.445695 
L 457.650313 -64.410033 
L 458.252179 -64.374941 
L 458.854044 -64.340571 
L 459.45591 -64.306195 
L 460.057776 -64.272406 
L 460.659641 -64.238907 
L 461.261507 -64.206594 
L 461.863372 -64.173465 
L 462.465238 -64.139836 
L 463.067103 -64.106099 
L 463.668969 -64.07283 
L 464.270834 -64.039966 
L 464.8727 -64.007918 
L 465.474565 -63.975233 
L 466.076431 -63.940053 
L 466.678296 -63.905082 
L 467.280162 -63.870299 
L 467.882027 -63.835697 
L 468.483893 -63.801276 
L 469.085758 -63.767059 
L 469.687624 -63.733056 
L 470.289489 -63.699282 
L 470.891355 -63.66572 
L 471.49322 -63.632339 
L 472.095086 -63.599146 
L 472.696951 -63.566193 
L 473.298817 -63.533467 
L 473.900682 -63.500922 
L 474.502548 -63.46855 
L 475.104413 -63.436358 
L 475.706279 -63.404387 
L 476.308144 -63.372656 
L 476.91001 -63.341121 
L 477.511875 -63.309748 
L 478.113741 -63.27858 
L 478.715606 -63.2476 
L 479.317472 -63.216783 
L 479.919337 -63.186124 
L 480.521203 -63.155606 
L 481.123068 -63.12523 
L 481.724934 -63.095021 
L 482.326799 -63.065019 
L 482.928665 -63.035234 
L 483.53053 -63.00564 
L 484.132396 -62.976223 
L 484.734261 -62.94696 
L 485.336127 -62.9178 
L 485.937992 -62.88873 
L 486.539858 -62.85978 
L 487.141723 -62.830981 
L 487.743589 -62.802353 
L 488.345454 -62.773903 
L 488.94732 -62.745665 
L 489.549185 -62.717663 
L 490.151051 -62.689871 
L 490.752916 -62.662245 
L 491.354782 -62.634773 
L 491.956647 -62.607454 
L 492.558513 -62.580275 
L 493.160378 -62.553244 
L 493.762244 -62.526391 
L 494.364109 -62.499692 
L 494.965975 -62.473082 
L 495.56784 -62.446599 
L 496.169706 -62.42025 
L 496.771571 -62.393968 
L 497.373437 -62.367752 
L 497.975302 -62.341644 
L 498.577168 -62.315699 
L 499.179033 -62.289903 
L 499.780899 -62.264208 
L 500.382764 -62.238593 
L 500.98463 -62.213084 
L 501.586495 -62.187702 
L 502.188361 -62.162436 
L 502.790226 -62.137276 
L 503.392092 -62.112229 
L 503.993957 -62.087319 
L 504.595823 -62.062553 
L 505.197688 -62.03792 
L 505.799554 -62.013432 
L 506.401419 -61.989095 
L 507.003285 -61.96491 
L 507.60515 -61.940807 
L 508.207016 -61.916803 
L 508.808881 -61.892949 
L 509.410747 -61.869221 
L 510.012612 -61.845601 
L 510.614478 -61.82208 
L 511.216343 -61.798678 
L 511.818209 -61.775418 
L 512.420074 -61.752306 
L 513.02194 -61.729311 
L 513.623805 -61.706395 
L 514.225671 -61.683584 
L 514.827536 -61.660904 
L 515.429402 -61.638412 
L 516.031267 -61.616125 
L 516.633133 -61.59403 
L 517.234998 -61.572051 
L 517.836864 -61.550153 
L 518.438729 -61.528373 
L 519.040595 -61.506684 
L 519.64246 -61.485099 
L 520.244326 -61.463576 
L 520.846191 -61.442124 
L 521.448057 -61.420813 
L 522.049922 -61.399614 
L 522.651788 -61.378523 
L 523.253653 -61.357569 
L 523.855519 -61.336739 
L 524.457384 -61.316025 
L 525.05925 -61.295448 
L 525.661115 -61.275028 
L 526.262981 -61.254752 
L 526.864846 -61.234599 
L 527.466712 -61.21459 
L 528.068577 -61.194729 
L 528.670443 -61.175025 
L 529.272308 -61.155474 
L 529.874174 -61.136036 
L 530.476039 -61.11667 
L 531.077905 -61.097384 
L 531.67977 -61.078193 
L 532.281636 -61.059097 
L 532.883501 -61.040096 
L 533.485367 -61.021203 
L 534.087232 -61.002431 
L 534.689098 -60.983788 
L 535.290963 -60.965278 
L 535.892829 -60.946884 
L 536.494694 -60.928563 
L 537.09656 -60.910289 
L 537.698425 -60.892079 
L 538.300291 -60.873936 
L 538.902156 -60.855849 
L 539.504022 -60.837813 
L 540.105887 -60.81985 
L 540.707753 -60.801993 
L 541.309618 -60.784235 
L 541.911484 -60.766567 
L 542.513349 -60.748987 
L 543.115215 -60.731516 
L 543.71708 -60.71414 
L 544.318946 -60.696832 
L 544.920811 -60.679601 
L 545.522677 -60.662467 
L 546.124542 -60.645437 
L 546.726408 -60.628518 
L 547.328273 -60.611718 
L 547.930139 -60.595026 
L 548.532004 -60.578423 
L 549.13387 -60.561902 
L 549.735735 -60.545464 
L 550.337601 -60.529107 
L 550.939466 -60.51284 
L 551.541332 -60.496675 
L 552.143197 -60.480614 
L 552.745063 -60.464659 
L 553.346928 -60.448799 
L 553.948794 -60.433038 
L 554.550659 -60.417368 
L 555.152525 -60.401797 
L 555.75439 -60.386309 
L 556.356256 -60.370923 
L 556.958121 -60.355649 
L 557.559987 -60.340497 
L 558.161852 -60.325445 
L 558.763718 -60.310457 
L 559.365583 -60.295526 
L 559.967449 -60.280691 
L 560.569314 -60.265936 
L 561.17118 -60.251262 
L 561.773045 -60.236679 
L 562.374911 -60.222207 
L 562.976776 -60.207858 
L 563.578642 -60.1936 
L 564.180507 -60.179442 
L 564.782373 -60.165351 
L 565.384238 -60.151327 
L 565.986104 -60.137353 
L 566.587969 -60.123433 
L 567.189835 -60.109584 
L 567.7917 -60.095825 
L 568.393566 -60.082138 
L 568.995431 -60.068532 
L 569.597297 -60.055013 
L 570.199162 -60.04159 
L 570.801028 -60.028263 
L 571.402893 -60.015 
L 572.004759 -60.001806 
L 572.606624 -59.988701 
L 573.20849 -59.97568 
L 573.810355 -59.962736 
L 574.412221 -59.949869 
L 575.014086 -59.937057 
L 575.615952 -59.924266 
L 576.217817 -59.911532 
L 576.819683 -59.898872 
L 577.421548 -59.886305 
L 578.023414 -59.87386 
L 578.625279 -59.861504 
L 579.227145 -59.84922 
L 579.82901 -59.836997 
L 580.430876 -59.824831 
L 581.032741 -59.812722 
L 581.634607 -59.80067 
L 582.236472 -59.788694 
L 582.838338 -59.776778 
L 583.440203 -59.76494 
L 584.042069 -59.753206 
L 584.643934 -59.741528 
L 585.2458 -59.729943 
L 585.847665 -59.718474 
L 586.449531 -59.707092 
L 587.051396 -59.695754 
L 587.653262 -59.684476 
L 588.255127 -59.673302 
L 588.856993 -59.662214 
L 589.458858 -59.651182 
L 590.060724 -59.640219 
L 590.662589 -59.629336 
L 591.264455 -59.618531 
L 591.86632 -59.607801 
L 592.468186 -59.597129 
L 593.070051 -59.586514 
L 593.671917 -59.575945 
L 594.273782 -59.565438 
L 594.875648 -59.555011 
L 595.477513 -59.544653 
L 596.079379 -59.534316 
L 596.681244 -59.52399 
L 597.28311 -59.51373 
L 597.884975 -59.503572 
L 598.486841 -59.493504 
L 599.088706 -59.483503 
L 599.690572 -59.47359 
L 600.292437 -59.463774 
L 600.894303 -59.45401 
L 601.496168 -59.444263 
L 602.098034 -59.434524 
L 602.699899 -59.424815 
L 603.301765 -59.415138 
L 603.90363 -59.405494 
L 604.505496 -59.395901 
L 605.107361 -59.386364 
L 605.709227 -59.376885 
L 606.311092 -59.367465 
L 606.912958 -59.358101 
L 607.514823 -59.348793 
L 608.116689 -59.339508 
L 608.718554 -59.330223 
L 609.32042 -59.320976 
L 609.922285 -59.311793 
L 610.524151 -59.302667 
L 611.126016 -59.293572 
L 611.727882 -59.284485 
L 612.329747 -59.275386 
L 612.931613 -59.266242 
L 613.533478 -59.257073 
L 614.135344 -59.247876 
L 614.737209 -59.238718 
L 615.339075 -59.229642 
L 615.94094 -59.220619 
L 616.542806 -59.211652 
L 617.144671 -59.202773 
L 617.746537 -59.193961 
L 618.348402 -59.185193 
L 618.950268 -59.176482 
L 619.552133 -59.167851 
L 620.153999 -59.159304 
L 620.755865 -59.150821 
L 621.35773 -59.142367 
L 621.959596 -59.133905 
L 622.561461 -59.125494 
L 623.163327 -59.117126 
L 623.765192 -59.108791 
L 624.367058 -59.100494 
L 624.968923 -59.092236 
L 625.570789 -59.084035 
L 626.172654 -59.075888 
L 626.77452 -59.067812 
L 627.376385 -59.059819 
L 627.978251 -59.051905 
L 628.580116 -59.04398 
L 629.181982 -59.036044 
L 629.783847 -59.028136 
L 630.385713 -59.02028 
L 630.987578 -59.012456 
L 631.589444 -59.004656 
L 632.191309 -58.996938 
L 632.793175 -58.989277 
L 633.39504 -58.981665 
L 633.996906 -58.974111 
L 634.598771 -58.966604 
L 635.200637 -58.959134 
L 635.802502 -58.95168 
L 636.404368 -58.94426 
L 637.006233 -58.936878 
L 637.608099 -58.929539 
L 638.209964 -58.922267 
L 638.81183 -58.915061 
L 639.413695 -58.90791 
L 640.015561 -58.90081 
L 640.617426 -58.893743 
L 641.219292 -58.886726 
L 641.821157 -58.879726 
L 642.423023 -58.872749 
L 643.024888 -58.86583 
L 643.626754 -58.858959 
L 644.228619 -58.852116 
L 644.830485 -58.845281 
L 645.43235 -58.838477 
L 646.034216 -58.831732 
L 646.636081 -58.825042 
L 647.237947 -58.818381 
L 647.839812 -58.811734 
L 648.441678 -58.805141 
L 649.043543 -58.798631 
L 649.645409 -58.792197 
L 650.247274 -58.78583 
L 650.84914 -58.779487 
L 651.451005 -58.773118 
L 652.052871 -58.766744 
L 652.654736 -58.760408 
L 653.256602 -58.75411 
L 653.858467 -58.747842 
L 654.460333 -58.741607 
L 655.062198 -58.735401 
L 655.664064 -58.72922 
L 656.265929 -58.723099 
L 656.867795 -58.717049 
L 657.46966 -58.711022 
L 658.071526 -58.705016 
L 658.673391 -58.699081 
L 659.275257 -58.69324 
L 659.877122 -58.687481 
L 660.478988 -58.681747 
L 661.080853 -58.676009 
L 661.682719 -58.670272 
L 662.284584 -58.664567 
L 662.88645 -58.658912 
L 663.488315 -58.653323 
L 664.090181 -58.647843 
L 664.692046 -58.642467 
L 665.293912 -58.637174 
L 665.895777 -58.631948 
L 666.497643 -58.62679 
L 667.099508 -58.621781 
L 667.701374 -58.61697 
L 668.303239 -58.61234 
L 668.905105 -58.608024 
L 669.50697 -58.604542 
L 670.108836 -58.602102 
L 670.710701 -58.600423 
L 671.312567 -58.598678 
L 671.914432 -58.595191 
L 672.516298 -58.589818 
L 673.118163 -58.584481 
L 673.720029 -58.57917 
L 674.321894 -58.573884 
L 674.92376 -58.568627 
L 675.525625 -58.563399 
L 676.127491 -58.558206 
L 676.729356 -58.553047 
L 677.331222 -58.547917 
L 677.933087 -58.54282 
L 678.534953 -58.537759 
L 679.136818 -58.532727 
L 679.136818 -389.140213 
L 679.136818 -389.140213 
L 678.534953 -389.599288 
L 677.933087 -389.458909 
L 677.331222 -388.327011 
L 676.729356 -387.917301 
L 676.127491 -387.955947 
L 675.525625 -386.91305 
L 674.92376 -386.798554 
L 674.321894 -387.545571 
L 673.720029 -388.598508 
L 673.118163 -389.987273 
L 672.516298 -388.819277 
L 671.914432 -388.830907 
L 671.312567 -389.493708 
L 670.710701 -389.496415 
L 670.108836 -389.537043 
L 669.50697 -388.400766 
L 668.905105 -388.48736 
L 668.303239 -388.713575 
L 667.701374 -388.468439 
L 667.099508 -387.525895 
L 666.497643 -387.48934 
L 665.895777 -387.049978 
L 665.293912 -386.717942 
L 664.692046 -386.332509 
L 664.090181 -386.867801 
L 663.488315 -387.659038 
L 662.88645 -387.74307 
L 662.284584 -387.23641 
L 661.682719 -386.31307 
L 661.080853 -385.739066 
L 660.478988 -385.6675 
L 659.877122 -386.136393 
L 659.275257 -386.399538 
L 658.673391 -386.241413 
L 658.071526 -385.947834 
L 657.46966 -385.546792 
L 656.867795 -385.197963 
L 656.265929 -385.246901 
L 655.664064 -385.666518 
L 655.062198 -386.286783 
L 654.460333 -386.677835 
L 653.858467 -386.413729 
L 653.256602 -386.388369 
L 652.654736 -386.868726 
L 652.052871 -386.780245 
L 651.451005 -386.439412 
L 650.84914 -386.450703 
L 650.247274 -385.97195 
L 649.645409 -385.014296 
L 649.043543 -384.266596 
L 648.441678 -383.856156 
L 647.839812 -383.955713 
L 647.237947 -384.398951 
L 646.636081 -384.539355 
L 646.034216 -384.497095 
L 645.43235 -384.870197 
L 644.830485 -384.84685 
L 644.228619 -385.116873 
L 643.626754 -385.019434 
L 643.024888 -384.189706 
L 642.423023 -384.168979 
L 641.821157 -384.625659 
L 641.219292 -385.440468 
L 640.617426 -385.827999 
L 640.015561 -384.745924 
L 639.413695 -384.208271 
L 638.81183 -384.1784 
L 638.209964 -383.048806 
L 637.608099 -382.809089 
L 637.006233 -383.418457 
L 636.404368 -384.406179 
L 635.802502 -384.737392 
L 635.200637 -385.326685 
L 634.598771 -384.345913 
L 633.996906 -382.109796 
L 633.39504 -381.402149 
L 632.793175 -381.000166 
L 632.191309 -380.420586 
L 631.589444 -380.051143 
L 630.987578 -379.330231 
L 630.385713 -379.383909 
L 629.783847 -379.789861 
L 629.181982 -380.76651 
L 628.580116 -380.278494 
L 627.978251 -379.793737 
L 627.376385 -380.181247 
L 626.77452 -380.66071 
L 626.172654 -380.401271 
L 625.570789 -381.106129 
L 624.968923 -381.912893 
L 624.367058 -382.431961 
L 623.765192 -380.86054 
L 623.163327 -378.960447 
L 622.561461 -377.29069 
L 621.959596 -377.035653 
L 621.35773 -377.301831 
L 620.755865 -377.087112 
L 620.153999 -375.60738 
L 619.552133 -374.381554 
L 618.950268 -373.603834 
L 618.348402 -374.099037 
L 617.746537 -373.630421 
L 617.144671 -373.288202 
L 616.542806 -374.140518 
L 615.94094 -374.72744 
L 615.339075 -374.659686 
L 614.737209 -374.706951 
L 614.135344 -374.407788 
L 613.533478 -374.19494 
L 612.931613 -375.49591 
L 612.329747 -376.278082 
L 611.727882 -377.807719 
L 611.126016 -379.939731 
L 610.524151 -381.625209 
L 609.922285 -383.432345 
L 609.32042 -383.945068 
L 608.718554 -384.419113 
L 608.116689 -383.878701 
L 607.514823 -383.511177 
L 606.912958 -384.132177 
L 606.311092 -384.372565 
L 605.709227 -383.983874 
L 605.107361 -383.223243 
L 604.505496 -383.009574 
L 603.90363 -384.194423 
L 603.301765 -385.631683 
L 602.699899 -385.580071 
L 602.098034 -384.733004 
L 601.496168 -383.872258 
L 600.894303 -383.911633 
L 600.292437 -383.947025 
L 599.690572 -383.258785 
L 599.088706 -382.839517 
L 598.486841 -382.653167 
L 597.884975 -382.786608 
L 597.28311 -382.359241 
L 596.681244 -380.700168 
L 596.079379 -379.037806 
L 595.477513 -377.356805 
L 594.875648 -375.744906 
L 594.273782 -375.339404 
L 593.671917 -375.178641 
L 593.070051 -374.219673 
L 592.468186 -373.372666 
L 591.86632 -372.728863 
L 591.264455 -371.728398 
L 590.662589 -370.390721 
L 590.060724 -369.57046 
L 589.458858 -369.640044 
L 588.856993 -370.010174 
L 588.255127 -369.604431 
L 587.653262 -369.329343 
L 587.051396 -369.91326 
L 586.449531 -370.352673 
L 585.847665 -369.916177 
L 585.2458 -368.954514 
L 584.643934 -367.907682 
L 584.042069 -366.089526 
L 583.440203 -364.661637 
L 582.838338 -364.165381 
L 582.236472 -363.741778 
L 581.634607 -362.52888 
L 581.032741 -360.0968 
L 580.430876 -359.742518 
L 579.82901 -359.640897 
L 579.227145 -359.298792 
L 578.625279 -358.896147 
L 578.023414 -357.452245 
L 577.421548 -355.917121 
L 576.819683 -355.284138 
L 576.217817 -354.080081 
L 575.615952 -353.296542 
L 575.014086 -351.818303 
L 574.412221 -348.921439 
L 573.810355 -346.919471 
L 573.20849 -345.653691 
L 572.606624 -344.891028 
L 572.004759 -343.880755 
L 571.402893 -343.619098 
L 570.801028 -343.437622 
L 570.199162 -343.260077 
L 569.597297 -343.597046 
L 568.995431 -343.34601 
L 568.393566 -342.676804 
L 567.7917 -341.658784 
L 567.189835 -341.860055 
L 566.587969 -340.250176 
L 565.986104 -338.83858 
L 565.384238 -336.801474 
L 564.782373 -335.729243 
L 564.180507 -335.739384 
L 563.578642 -335.438961 
L 562.976776 -334.50624 
L 562.374911 -334.444262 
L 561.773045 -334.424149 
L 561.17118 -334.591364 
L 560.569314 -333.970901 
L 559.967449 -333.27926 
L 559.365583 -332.494401 
L 558.763718 -331.521018 
L 558.161852 -331.099979 
L 557.559987 -330.888547 
L 556.958121 -331.297915 
L 556.356256 -331.525445 
L 555.75439 -332.568401 
L 555.152525 -333.355483 
L 554.550659 -333.278937 
L 553.948794 -332.945698 
L 553.346928 -333.808579 
L 552.745063 -334.911538 
L 552.143197 -334.290467 
L 551.541332 -332.888125 
L 550.939466 -331.788352 
L 550.337601 -331.718178 
L 549.735735 -331.720066 
L 549.13387 -331.53841 
L 548.532004 -331.942957 
L 547.930139 -332.115226 
L 547.328273 -330.978632 
L 546.726408 -330.169542 
L 546.124542 -330.165569 
L 545.522677 -330.045876 
L 544.920811 -329.064759 
L 544.318946 -326.705709 
L 543.71708 -324.521693 
L 543.115215 -323.25111 
L 542.513349 -321.747974 
L 541.911484 -320.296652 
L 541.309618 -319.314555 
L 540.707753 -318.897074 
L 540.105887 -319.209427 
L 539.504022 -319.422169 
L 538.902156 -319.165061 
L 538.300291 -318.905962 
L 537.698425 -318.921007 
L 537.09656 -318.655071 
L 536.494694 -317.875728 
L 535.892829 -317.477481 
L 535.290963 -317.544506 
L 534.689098 -317.464672 
L 534.087232 -317.329843 
L 533.485367 -317.544402 
L 532.883501 -317.807489 
L 532.281636 -317.892989 
L 531.67977 -317.87108 
L 531.077905 -317.245801 
L 530.476039 -316.380297 
L 529.874174 -315.8472 
L 529.272308 -316.34882 
L 528.670443 -316.267043 
L 528.068577 -315.910867 
L 527.466712 -316.410009 
L 526.864846 -317.067181 
L 526.262981 -318.078783 
L 525.661115 -318.530529 
L 525.05925 -318.541033 
L 524.457384 -318.900718 
L 523.855519 -318.865999 
L 523.253653 -318.562843 
L 522.651788 -317.563564 
L 522.049922 -316.130949 
L 521.448057 -315.741038 
L 520.846191 -316.418258 
L 520.244326 -317.318281 
L 519.64246 -317.926567 
L 519.040595 -317.560235 
L 518.438729 -316.391975 
L 517.836864 -316.147733 
L 517.234998 -315.682067 
L 516.633133 -315.583982 
L 516.031267 -314.748606 
L 515.429402 -313.110312 
L 514.827536 -312.226633 
L 514.225671 -311.943428 
L 513.623805 -310.918864 
L 513.02194 -311.300284 
L 512.420074 -310.916285 
L 511.818209 -310.093721 
L 511.216343 -309.605318 
L 510.614478 -309.026163 
L 510.012612 -308.208056 
L 509.410747 -306.433419 
L 508.808881 -305.046218 
L 508.207016 -304.789779 
L 507.60515 -304.477751 
L 507.003285 -303.829472 
L 506.401419 -303.37963 
L 505.799554 -302.977371 
L 505.197688 -303.016032 
L 504.595823 -303.273346 
L 503.993957 -303.255691 
L 503.392092 -302.546076 
L 502.790226 -301.197694 
L 502.188361 -300.20198 
L 501.586495 -299.988827 
L 500.98463 -299.919374 
L 500.382764 -298.909773 
L 499.780899 -298.247006 
L 499.179033 -297.984039 
L 498.577168 -296.571062 
L 497.975302 -295.318502 
L 497.373437 -295.266698 
L 496.771571 -294.94089 
L 496.169706 -294.395994 
L 495.56784 -294.370461 
L 494.965975 -294.17387 
L 494.364109 -292.881335 
L 493.762244 -291.538441 
L 493.160378 -291.102319 
L 492.558513 -291.10601 
L 491.956647 -290.881536 
L 491.354782 -290.488613 
L 490.752916 -290.568503 
L 490.151051 -290.415948 
L 489.549185 -289.701376 
L 488.94732 -289.161162 
L 488.345454 -288.654633 
L 487.743589 -287.991469 
L 487.141723 -287.769789 
L 486.539858 -287.579573 
L 485.937992 -287.076685 
L 485.336127 -286.539554 
L 484.734261 -286.529155 
L 484.132396 -287.446895 
L 483.53053 -288.269138 
L 482.928665 -288.895551 
L 482.326799 -289.07255 
L 481.724934 -288.170817 
L 481.123068 -286.808187 
L 480.521203 -285.77055 
L 479.919337 -284.626698 
L 479.317472 -283.968125 
L 478.715606 -283.402104 
L 478.113741 -282.295511 
L 477.511875 -281.526239 
L 476.91001 -281.101569 
L 476.308144 -280.994586 
L 475.706279 -281.313685 
L 475.104413 -281.487789 
L 474.502548 -281.556647 
L 473.900682 -281.851121 
L 473.298817 -281.762077 
L 472.696951 -281.443882 
L 472.095086 -280.429835 
L 471.49322 -279.644614 
L 470.891355 -279.708852 
L 470.289489 -280.445434 
L 469.687624 -281.015238 
L 469.085758 -281.297165 
L 468.483893 -281.470872 
L 467.882027 -280.816347 
L 467.280162 -280.538757 
L 466.678296 -279.863378 
L 466.076431 -279.52202 
L 465.474565 -279.044341 
L 464.8727 -277.968567 
L 464.270834 -278.075992 
L 463.668969 -277.663568 
L 463.067103 -277.377873 
L 462.465238 -277.00213 
L 461.863372 -276.421778 
L 461.261507 -275.533994 
L 460.659641 -274.470146 
L 460.057776 -274.387928 
L 459.45591 -274.30057 
L 458.854044 -274.223983 
L 458.252179 -274.37019 
L 457.650313 -274.459712 
L 457.048448 -273.879022 
L 456.446582 -273.839657 
L 455.844717 -273.654151 
L 455.242851 -273.317217 
L 454.640986 -273.164963 
L 454.03912 -272.469647 
L 453.437255 -271.02219 
L 452.835389 -270.747243 
L 452.233524 -271.027333 
L 451.631658 -270.310777 
L 451.029793 -269.813314 
L 450.427927 -269.393522 
L 449.826062 -268.468926 
L 449.224196 -267.522617 
L 448.622331 -266.709774 
L 448.020465 -265.825047 
L 447.4186 -263.961993 
L 446.816734 -261.984362 
L 446.214869 -260.472192 
L 445.613003 -259.46563 
L 445.011138 -258.949691 
L 444.409272 -258.545079 
L 443.807407 -257.999372 
L 443.205541 -257.498474 
L 442.603676 -256.647905 
L 442.00181 -256.022039 
L 441.399945 -255.480555 
L 440.798079 -254.645211 
L 440.196214 -253.812593 
L 439.594348 -253.389098 
L 438.992483 -252.80226 
L 438.390617 -252.341638 
L 437.788752 -251.49439 
L 437.186886 -250.421219 
L 436.585021 -249.706414 
L 435.983155 -249.398871 
L 435.38129 -248.925168 
L 434.779424 -248.310301 
L 434.177559 -248.180045 
L 433.575693 -248.553457 
L 432.973828 -249.187649 
L 432.371962 -249.199067 
L 431.770097 -248.484411 
L 431.168231 -247.59582 
L 430.566366 -246.963554 
L 429.9645 -246.773814 
L 429.362635 -246.431642 
L 428.760769 -246.154347 
L 428.158904 -245.922597 
L 427.557038 -245.692938 
L 426.955173 -245.525089 
L 426.353307 -245.18518 
L 425.751442 -244.875773 
L 425.149576 -244.130559 
L 424.547711 -243.079951 
L 423.945845 -243.030285 
L 423.34398 -243.303561 
L 422.742114 -242.573175 
L 422.140249 -241.673095 
L 421.538383 -241.760094 
L 420.936518 -241.948805 
L 420.334652 -241.574032 
L 419.732787 -241.219007 
L 419.130921 -240.61044 
L 418.529056 -239.591978 
L 417.92719 -238.778943 
L 417.325325 -237.64394 
L 416.723459 -236.992757 
L 416.121594 -237.113353 
L 415.519728 -236.118374 
L 414.917863 -235.450338 
L 414.315997 -235.279573 
L 413.714132 -235.69952 
L 413.112266 -235.741432 
L 412.510401 -235.702864 
L 411.908535 -236.86471 
L 411.30667 -237.848945 
L 410.704804 -237.960744 
L 410.102939 -237.790506 
L 409.501073 -237.68899 
L 408.899208 -237.684424 
L 408.297342 -238.326361 
L 407.695477 -238.711845 
L 407.093611 -238.454877 
L 406.491746 -237.85741 
L 405.88988 -237.47505 
L 405.288015 -237.296807 
L 404.686149 -237.136659 
L 404.084284 -236.631231 
L 403.482418 -236.052431 
L 402.880553 -235.465064 
L 402.278687 -234.366185 
L 401.676822 -233.484017 
L 401.074956 -232.450381 
L 400.473091 -230.630288 
L 399.871225 -229.403826 
L 399.26936 -228.433105 
L 398.667494 -228.319706 
L 398.065629 -228.154114 
L 397.463763 -227.425666 
L 396.861898 -226.561018 
L 396.260032 -225.95046 
L 395.658167 -225.857649 
L 395.056301 -225.68869 
L 394.454436 -225.153973 
L 393.85257 -224.353523 
L 393.250705 -223.426319 
L 392.648839 -222.040856 
L 392.046974 -220.51704 
L 391.445108 -219.458476 
L 390.843243 -219.153831 
L 390.241377 -219.104252 
L 389.639512 -218.795909 
L 389.037646 -218.115682 
L 388.435781 -217.581923 
L 387.833915 -217.079926 
L 387.23205 -216.579851 
L 386.630184 -215.869803 
L 386.028319 -215.499309 
L 385.426453 -215.641017 
L 384.824588 -216.320051 
L 384.222722 -216.71328 
L 383.620857 -216.007676 
L 383.018991 -215.253597 
L 382.417126 -215.17977 
L 381.81526 -215.166048 
L 381.213395 -215.45968 
L 380.611529 -215.969239 
L 380.009664 -216.073253 
L 379.407798 -215.861133 
L 378.805933 -215.145658 
L 378.204067 -214.414546 
L 377.602202 -213.98469 
L 377.000336 -213.463131 
L 376.398471 -213.337199 
L 375.796605 -213.445391 
L 375.19474 -213.242457 
L 374.592874 -212.836662 
L 373.991009 -212.135351 
L 373.389143 -211.40271 
L 372.787278 -210.887919 
L 372.185412 -210.550517 
L 371.583547 -210.661361 
L 370.981681 -211.013671 
L 370.379816 -211.373566 
L 369.77795 -211.536985 
L 369.176085 -211.478419 
L 368.574219 -211.239186 
L 367.972354 -211.061628 
L 367.370488 -210.710493 
L 366.768623 -210.135121 
L 366.166757 -209.009266 
L 365.564892 -208.217705 
L 364.963026 -207.838176 
L 364.361161 -207.597903 
L 363.759295 -207.56581 
L 363.15743 -207.684407 
L 362.555564 -207.388255 
L 361.953699 -206.277129 
L 361.351833 -205.197532 
L 360.749968 -204.510429 
L 360.148102 -203.591074 
L 359.546237 -203.016325 
L 358.944371 -202.554326 
L 358.342506 -202.182609 
L 357.74064 -201.646897 
L 357.138775 -200.905193 
L 356.536909 -199.678605 
L 355.935044 -198.506377 
L 355.333178 -197.877195 
L 354.731313 -197.259746 
L 354.129447 -196.536291 
L 353.527582 -195.079109 
L 352.925716 -193.639474 
L 352.323851 -192.400517 
L 351.721985 -192.1481 
L 351.12012 -192.129657 
L 350.518254 -191.940519 
L 349.916389 -191.212766 
L 349.314523 -190.619551 
L 348.712658 -190.083366 
L 348.110792 -188.978424 
L 347.508927 -188.066109 
L 346.907061 -187.392118 
L 346.305196 -187.059632 
L 345.70333 -186.760412 
L 345.101465 -186.291589 
L 344.499599 -185.947701 
L 343.897734 -185.128336 
L 343.295868 -183.988798 
L 342.694003 -183.298061 
L 342.092137 -182.542527 
L 341.490272 -182.012133 
L 340.888406 -181.714407 
L 340.286541 -181.151312 
L 339.684675 -180.478287 
L 339.08281 -180.214929 
L 338.480944 -180.304679 
L 337.879079 -180.441812 
L 337.277213 -180.140486 
L 336.675348 -179.605241 
L 336.073482 -179.029238 
L 335.471617 -178.475618 
L 334.869751 -177.682377 
L 334.267886 -177.05527 
L 333.66602 -176.649808 
L 333.064155 -176.222857 
L 332.462289 -175.520467 
L 331.860424 -175.230359 
L 331.258558 -175.259607 
L 330.656693 -175.101425 
L 330.054827 -174.999593 
L 329.452962 -175.145717 
L 328.851096 -175.274938 
L 328.249231 -175.299132 
L 327.647365 -175.203711 
L 327.0455 -175.140482 
L 326.443634 -175.13127 
L 325.841769 -174.935431 
L 325.239903 -174.524742 
L 324.638038 -174.186859 
L 324.036172 -173.937031 
L 323.434307 -173.631934 
L 322.832441 -173.17083 
L 322.230576 -172.790431 
L 321.62871 -172.858146 
L 321.026845 -172.8751 
L 320.424979 -172.527112 
L 319.823114 -172.131326 
L 319.221248 -171.733281 
L 318.619383 -171.499648 
L 318.017517 -171.42816 
L 317.415652 -171.122404 
L 316.813786 -170.459425 
L 316.211921 -169.710828 
L 315.610055 -169.052888 
L 315.00819 -168.332867 
L 314.406324 -167.877996 
L 313.804459 -167.658019 
L 313.202593 -167.271394 
L 312.600728 -166.516079 
L 311.998862 -165.453656 
L 311.396997 -164.697575 
L 310.795131 -164.275088 
L 310.193266 -164.008653 
L 309.5914 -163.706324 
L 308.989535 -163.256644 
L 308.387669 -162.811359 
L 307.785804 -162.537509 
L 307.183938 -162.246261 
L 306.582073 -162.123704 
L 305.980207 -161.739826 
L 305.378342 -161.231248 
L 304.776476 -160.809694 
L 304.174611 -160.601587 
L 303.572745 -160.120411 
L 302.97088 -159.719045 
L 302.369014 -159.558928 
L 301.767149 -159.486151 
L 301.165283 -159.127576 
L 300.563418 -158.55379 
L 299.961552 -157.919145 
L 299.359687 -157.561615 
L 298.757821 -157.407328 
L 298.155956 -156.939675 
L 297.55409 -156.326842 
L 296.952224 -155.688666 
L 296.350359 -155.110326 
L 295.748493 -154.878973 
L 295.146628 -154.712457 
L 294.544762 -154.441872 
L 293.942897 -154.08865 
L 293.341031 -153.642948 
L 292.739166 -153.239939 
L 292.1373 -152.951321 
L 291.535435 -152.692652 
L 290.933569 -152.399257 
L 290.331704 -151.874356 
L 289.729838 -151.436285 
L 289.127973 -150.975384 
L 288.526107 -150.510637 
L 287.924242 -150.168738 
L 287.322376 -149.881661 
L 286.720511 -149.47132 
L 286.118645 -148.678994 
L 285.51678 -148.150611 
L 284.914914 -147.852765 
L 284.313049 -147.642821 
L 283.711183 -147.297651 
L 283.109318 -147.000078 
L 282.507452 -146.678601 
L 281.905587 -146.068842 
L 281.303721 -145.406228 
L 280.701856 -144.791851 
L 280.09999 -144.317158 
L 279.498125 -144.035259 
L 278.896259 -143.663648 
L 278.294394 -143.345961 
L 277.692528 -142.963342 
L 277.090663 -142.51148 
L 276.488797 -142.057364 
L 275.886932 -141.45368 
L 275.285066 -140.715164 
L 274.683201 -140.094913 
L 274.081335 -139.623352 
L 273.47947 -139.203204 
L 272.877604 -138.745371 
L 272.275739 -138.098032 
L 271.673873 -137.296443 
L 271.072008 -136.572503 
L 270.470142 -135.858701 
L 269.868277 -135.018699 
L 269.266411 -134.24904 
L 268.664546 -133.69128 
L 268.06268 -133.215721 
L 267.460815 -132.696722 
L 266.858949 -132.20833 
L 266.257084 -131.839988 
L 265.655218 -131.363692 
L 265.053353 -130.700525 
L 264.451487 -130.165423 
L 263.849622 -129.696722 
L 263.247756 -129.186205 
L 262.645891 -128.775566 
L 262.044025 -128.319442 
L 261.44216 -127.785303 
L 260.840294 -127.359474 
L 260.238429 -127.066988 
L 259.636563 -126.717341 
L 259.034698 -126.381838 
L 258.432832 -126.100899 
L 257.830967 -125.764284 
L 257.229101 -125.345611 
L 256.627236 -125.000243 
L 256.02537 -124.757894 
L 255.423505 -124.428565 
L 254.821639 -123.912701 
L 254.219774 -123.459224 
L 253.617908 -123.163905 
L 253.016043 -122.902119 
L 252.414177 -122.820815 
L 251.812312 -122.798032 
L 251.210446 -122.291568 
L 250.608581 -122.153585 
L 250.006715 -122.058607 
L 249.40485 -121.903088 
L 248.802984 -121.689429 
L 248.201119 -121.551094 
L 247.599253 -121.574519 
L 246.997388 -121.493374 
L 246.395522 -121.264805 
L 245.793657 -121.226817 
L 245.191791 -121.286492 
L 244.589926 -121.093034 
L 243.98806 -121.004817 
L 243.386195 -120.827572 
L 242.784329 -120.824359 
L 242.182464 -121.082679 
L 241.580598 -121.313239 
L 240.978733 -121.510902 
L 240.376867 -121.806066 
L 239.775002 -122.033146 
L 239.173136 -122.293317 
L 238.571271 -122.372184 
L 237.969405 -122.553061 
L 237.36754 -122.82699 
L 236.765674 -123.117964 
L 236.163809 -123.467338 
L 235.561943 -123.774774 
L 234.960078 -123.974629 
L 234.358212 -124.206175 
L 233.756347 -124.417768 
L 233.154481 -124.712366 
L 232.552616 -124.979344 
L 231.95075 -125.286175 
L 231.348885 -125.612938 
L 230.747019 -125.885383 
L 230.145154 -126.134201 
L 229.543288 -126.296534 
L 228.941423 -126.536101 
L 228.339557 -126.782037 
L 227.737692 -127.013166 
L 227.135826 -127.159852 
L 226.533961 -127.354679 
L 225.932095 -127.560052 
L 225.33023 -127.74919 
L 224.728364 -127.978408 
L 224.126499 -128.19981 
L 223.524633 -128.393262 
L 222.922768 -128.631002 
L 222.320902 -128.908941 
L 221.719037 -129.186823 
L 221.117171 -129.479469 
L 220.515306 -129.724167 
L 219.91344 -129.956617 
L 219.311575 -130.238855 
L 218.709709 -130.529764 
L 218.107844 -130.805416 
L 217.505978 -131.079546 
L 216.904113 -131.361685 
L 216.302247 -131.632082 
L 215.700382 -131.911206 
L 215.098516 -132.235445 
L 214.496651 -132.596528 
L 213.894785 -132.955974 
L 213.29292 -133.250334 
L 212.691054 -133.52526 
L 212.089189 -133.795851 
L 211.487323 -134.046035 
L 210.885458 -134.338464 
L 210.283592 -134.615295 
L 209.681727 -134.878501 
L 209.079861 -135.20345 
L 208.477996 -135.566108 
L 207.87613 -135.862384 
L 207.274265 -136.12542 
L 206.672399 -136.478368 
L 206.070534 -136.826923 
L 205.468668 -137.092992 
L 204.866803 -137.32633 
L 204.264937 -137.61819 
L 203.663072 -137.956188 
L 203.061206 -138.301753 
L 202.459341 -138.698999 
L 201.857475 -139.09256 
L 201.25561 -139.506886 
L 200.653744 -139.899816 
L 200.051879 -140.30608 
L 199.450013 -140.720453 
L 198.848148 -141.140569 
L 198.246282 -141.584829 
L 197.644417 -142.018909 
L 197.042551 -142.417899 
L 196.440686 -142.794164 
L 195.83882 -143.201408 
L 195.236955 -143.580132 
L 194.635089 -143.956762 
L 194.033224 -144.319873 
L 193.431358 -144.719622 
L 192.829493 -145.173084 
L 192.227627 -145.515037 
L 191.625762 -145.916735 
L 191.023896 -146.367632 
L 190.422031 -146.768 
L 189.820165 -147.195196 
L 189.2183 -147.593997 
L 188.616434 -148.032195 
L 188.014569 -148.459444 
L 187.412703 -148.88042 
L 186.810838 -149.352102 
L 186.208972 -149.79234 
L 185.607107 -150.198974 
L 185.005241 -150.620647 
L 184.403376 -150.958586 
L 183.80151 -151.319389 
L 183.199645 -151.670331 
L 182.597779 -152.103286 
L 181.995914 -152.548251 
L 181.394048 -152.954607 
L 180.792183 -153.36391 
L 180.190317 -153.79021 
L 179.588452 -154.188896 
L 178.986586 -154.574208 
L 178.384721 -154.896217 
L 177.782855 -155.372604 
L 177.18099 -155.926099 
L 176.579124 -156.482904 
L 175.977259 -157.04308 
L 175.375393 -157.60661 
L 174.773528 -158.173579 
L 174.171662 -158.743985 
L 173.569797 -159.317835 
L 172.967931 -159.895134 
L 172.366066 -160.475921 
L 171.7642 -161.060187 
L 171.162335 -161.647997 
L 170.560469 -162.239381 
L 169.958604 -162.834379 
L 169.356738 -163.432994 
L 168.754873 -164.035252 
L 168.153007 -164.6412 
L 167.551142 -165.250857 
L 166.949276 -165.864249 
L 166.347411 -166.481394 
L 165.745545 -167.10232 
L 165.14368 -167.727077 
L 164.541814 -168.355692 
L 163.939949 -168.988171 
L 163.338083 -169.62454 
L 162.736218 -170.264841 
L 162.134352 -170.909102 
L 161.532487 -171.557337 
L 160.930621 -172.209588 
L 160.328756 -172.865881 
L 159.72689 -173.526231 
L 159.125025 -174.190679 
L 158.523159 -174.859256 
L 157.921294 -175.531999 
L 157.319428 -176.208939 
L 156.717563 -176.890116 
L 156.115697 -177.575562 
L 155.513832 -178.265287 
L 154.911966 -178.959338 
L 154.310101 -179.657757 
L 153.708235 -180.360589 
L 153.10637 -181.067865 
L 152.504504 -181.779588 
L 151.902639 -182.495819 
L 151.300773 -183.216582 
L 150.698908 -183.94191 
L 150.097042 -184.671848 
L 149.495177 -185.406408 
L 148.893311 -186.145649 
L 148.291446 -186.889604 
L 147.68958 -187.638313 
L 147.087715 -188.391807 
L 146.485849 -189.150126 
L 145.883984 -189.913303 
L 145.282118 -190.681378 
L 144.680253 -191.454381 
L 144.078387 -192.232355 
L 143.476522 -193.015329 
L 142.874656 -193.803334 
L 142.272791 -194.596372 
L 141.670925 -195.394561 
L 141.06906 -196.197896 
L 140.467194 -197.006447 
L 139.865329 -197.820316 
L 139.263463 -198.639462 
L 138.661598 -199.46394 
L 138.059732 -200.293791 
L 137.457867 -201.129029 
L 136.856001 -201.969687 
L 136.254135 -202.815838 
L 135.65227 -203.667551 
L 135.050404 -204.524851 
L 134.448539 -205.387712 
L 133.846673 -206.256179 
L 133.244808 -207.130339 
L 132.642942 -208.010306 
L 132.041077 -208.896149 
L 131.439211 -209.787869 
L 130.837346 -210.685484 
L 130.23548 -211.58905 
L 129.633615 -212.498569 
L 129.031749 -213.414125 
L 128.429884 -214.335708 
L 127.828018 -215.263411 
L 127.226153 -216.197228 
L 126.624287 -217.137185 
L 126.022422 -218.083402 
L 125.420556 -219.035879 
L 124.818691 -219.99464 
L 124.216825 -220.959739 
L 123.61496 -221.93121 
L 123.013094 -222.909116 
L 122.411229 -223.893507 
L 121.809363 -224.884401 
L 121.207498 -225.881837 
L 120.605632 -226.885834 
L 120.003767 -227.896452 
L 119.401901 -228.913707 
L 118.800036 -229.937656 
L 118.19817 -230.968313 
L 117.596305 -232.005724 
L 116.994439 -233.049924 
L 116.392574 -234.100932 
L 115.790708 -235.158772 
L 115.188843 -236.223463 
L 114.586977 -237.295009 
L 113.985112 -238.37347 
L 113.383246 -239.458844 
L 112.781381 -240.551117 
L 112.179515 -241.650317 
L 111.57765 -242.756469 
L 110.975784 -243.869579 
L 110.373919 -244.989663 
L 109.772053 -246.116707 
L 109.170188 -247.250634 
L 108.568322 -248.391402 
L 107.966457 -249.539109 
L 107.364591 -250.693703 
L 106.762726 -251.854954 
L 106.16086 -253.02287 
L 105.558995 -254.197659 
L 104.957129 -255.379406 
L 104.355264 -256.567943 
L 103.753398 -257.763054 
L 103.151533 -258.964623 
L 102.549667 -260.172549 
L 101.947802 -261.386791 
L 101.345936 -262.607268 
L 100.744071 -263.833777 
L 100.142205 -265.066179 
L 99.54034 -266.304344 
L 98.938474 -267.548084 
L 98.336609 -268.797211 
L 97.734743 -270.051401 
L 97.132878 -271.31016 
L 96.531012 -272.57309 
L 95.929147 -273.840365 
L 95.327281 -275.112057 
L 94.725416 -276.387388 
L 94.12355 -277.665812 
L 93.521685 -278.946868 
L 92.919819 -280.230023 
L 92.317954 -281.514667 
L 91.716088 -282.800156 
L 91.114223 -284.085717 
L 90.512357 -285.370486 
L 89.910492 -286.653731 
L 89.308626 -287.934423 
L 88.706761 -289.211562 
L 88.104895 -290.483785 
L 87.50303 -291.749661 
L 86.901164 -293.007623 
L 86.299299 -294.255868 
L 85.697433 -295.492365 
L 85.095568 -296.714696 
L 84.493702 -297.920053 
L 83.891837 -299.104914 
L 83.289971 -300.26649 
L 82.688106 -301.401206 
L 82.08624 -302.503378 
L 81.484375 -303.567067 
L 80.882509 -304.584936 
L 80.280644 -305.547893 
L 79.678778 -306.44394 
L 79.076913 -307.253961 
L 78.475047 -307.938512 
L 77.873182 -308.346867 
z
" style="stroke: #8b0000; stroke-opacity: 0.3"/>
    </defs>
    <g clip-path="url(#p122f7b7348)">
     <use xlink:href="#m4a3f3a3b5d" x="0" y="432" style="fill: #8b0000; fill-opacity: 0.3; stroke: #8b0000; stroke-opacity: 0.3"/>
    </g>
   </g>
   <g id="matplotlib.axis_1">
    <g id="xtick_1">
     <g id="line2d_1">
      <defs>
       <path id="m6728ea22f5" d="M 0 0 
L 0 3.5 
" style="stroke: #000000; stroke-width: 0.8"/>
      </defs>
      <g>
       <use xlink:href="#m6728ea22f5" x="71.178951" y="390.04" style="stroke: #000000; stroke-width: 0.8"/>
      </g>
     </g>
     <g id="text_1">
      <!-- 0 -->
      <g transform="translate(67.997701 404.638438) scale(0.1 -0.1)">
       <defs>
        <path id="DejaVuSans-30" d="M 2034 4250 
Q 1547 4250 1301 3770 
Q 1056 3291 1056 2328 
Q 1056 1369 1301 889 
Q 1547 409 2034 409 
Q 2525 409 2770 889 
Q 3016 1369 3016 2328 
Q 3016 3291 2770 3770 
Q 2525 4250 2034 4250 
z
M 2034 4750 
Q 2819 4750 3233 4129 
Q 3647 3509 3647 2328 
Q 3647 1150 3233 529 
Q 2819 -91 2034 -91 
Q 1250 -91 836 529 
Q 422 1150 422 2328 
Q 422 3509 836 4129 
Q 1250 4750 2034 4750 
z
" transform="scale(0.015625)"/>
       </defs>
       <use xlink:href="#DejaVuSans-30"/>
      </g>
     </g>
    </g>
    <g id="xtick_2">
     <g id="line2d_2">
      <g>
       <use xlink:href="#m6728ea22f5" x="192.892238" y="390.04" style="stroke: #000000; stroke-width: 0.8"/>
      </g>
     </g>
     <g id="text_2">
      <!-- 20000 -->
      <g transform="translate(176.985988 404.638438) scale(0.1 -0.1)">
       <defs>
        <path id="DejaVuSans-32" d="M 1228 531 
L 3431 531 
L 3431 0 
L 469 0 
L 469 531 
Q 828 903 1448 1529 
Q 2069 2156 2228 2338 
Q 2531 2678 2651 2914 
Q 2772 3150 2772 3378 
Q 2772 3750 2511 3984 
Q 2250 4219 1831 4219 
Q 1534 4219 1204 4116 
Q 875 4013 500 3803 
L 500 4441 
Q 881 4594 1212 4672 
Q 1544 4750 1819 4750 
Q 2544 4750 2975 4387 
Q 3406 4025 3406 3419 
Q 3406 3131 3298 2873 
Q 3191 2616 2906 2266 
Q 2828 2175 2409 1742 
Q 1991 1309 1228 531 
z
" transform="scale(0.015625)"/>
       </defs>
       <use xlink:href="#DejaVuSans-32"/>
       <use xlink:href="#DejaVuSans-30" transform="translate(63.623047 0)"/>
       <use xlink:href="#DejaVuSans-30" transform="translate(127.246094 0)"/>
       <use xlink:href="#DejaVuSans-30" transform="translate(190.869141 0)"/>
       <use xlink:href="#DejaVuSans-30" transform="translate(254.492188 0)"/>
      </g>
     </g>
    </g>
    <g id="xtick_3">
     <g id="line2d_3">
      <g>
       <use xlink:href="#m6728ea22f5" x="314.605524" y="390.04" style="stroke: #000000; stroke-width: 0.8"/>
      </g>
     </g>
     <g id="text_3">
      <!-- 40000 -->
      <g transform="translate(298.699274 404.638438) scale(0.1 -0.1)">
       <defs>
        <path id="DejaVuSans-34" d="M 2419 4116 
L 825 1625 
L 2419 1625 
L 2419 4116 
z
M 2253 4666 
L 3047 4666 
L 3047 1625 
L 3713 1625 
L 3713 1100 
L 3047 1100 
L 3047 0 
L 2419 0 
L 2419 1100 
L 313 1100 
L 313 1709 
L 2253 4666 
z
" transform="scale(0.015625)"/>
       </defs>
       <use xlink:href="#DejaVuSans-34"/>
       <use xlink:href="#DejaVuSans-30" transform="translate(63.623047 0)"/>
       <use xlink:href="#DejaVuSans-30" transform="translate(127.246094 0)"/>
       <use xlink:href="#DejaVuSans-30" transform="translate(190.869141 0)"/>
       <use xlink:href="#DejaVuSans-30" transform="translate(254.492188 0)"/>
      </g>
     </g>
    </g>
    <g id="xtick_4">
     <g id="line2d_4">
      <g>
       <use xlink:href="#m6728ea22f5" x="436.318811" y="390.04" style="stroke: #000000; stroke-width: 0.8"/>
      </g>
     </g>
     <g id="text_4">
      <!-- 60000 -->
      <g transform="translate(420.412561 404.638438) scale(0.1 -0.1)">
       <defs>
        <path id="DejaVuSans-36" d="M 2113 2584 
Q 1688 2584 1439 2293 
Q 1191 2003 1191 1497 
Q 1191 994 1439 701 
Q 1688 409 2113 409 
Q 2538 409 2786 701 
Q 3034 994 3034 1497 
Q 3034 2003 2786 2293 
Q 2538 2584 2113 2584 
z
M 3366 4563 
L 3366 3988 
Q 3128 4100 2886 4159 
Q 2644 4219 2406 4219 
Q 1781 4219 1451 3797 
Q 1122 3375 1075 2522 
Q 1259 2794 1537 2939 
Q 1816 3084 2150 3084 
Q 2853 3084 3261 2657 
Q 3669 2231 3669 1497 
Q 3669 778 3244 343 
Q 2819 -91 2113 -91 
Q 1303 -91 875 529 
Q 447 1150 447 2328 
Q 447 3434 972 4092 
Q 1497 4750 2381 4750 
Q 2619 4750 2861 4703 
Q 3103 4656 3366 4563 
z
" transform="scale(0.015625)"/>
       </defs>
       <use xlink:href="#DejaVuSans-36"/>
       <use xlink:href="#DejaVuSans-30" transform="translate(63.623047 0)"/>
       <use xlink:href="#DejaVuSans-30" transform="translate(127.246094 0)"/>
       <use xlink:href="#DejaVuSans-30" transform="translate(190.869141 0)"/>
       <use xlink:href="#DejaVuSans-30" transform="translate(254.492188 0)"/>
      </g>
     </g>
    </g>
    <g id="xtick_5">
     <g id="line2d_5">
      <g>
       <use xlink:href="#m6728ea22f5" x="558.032098" y="390.04" style="stroke: #000000; stroke-width: 0.8"/>
      </g>
     </g>
     <g id="text_5">
      <!-- 80000 -->
      <g transform="translate(542.125848 404.638438) scale(0.1 -0.1)">
       <defs>
        <path id="DejaVuSans-38" d="M 2034 2216 
Q 1584 2216 1326 1975 
Q 1069 1734 1069 1313 
Q 1069 891 1326 650 
Q 1584 409 2034 409 
Q 2484 409 2743 651 
Q 3003 894 3003 1313 
Q 3003 1734 2745 1975 
Q 2488 2216 2034 2216 
z
M 1403 2484 
Q 997 2584 770 2862 
Q 544 3141 544 3541 
Q 544 4100 942 4425 
Q 1341 4750 2034 4750 
Q 2731 4750 3128 4425 
Q 3525 4100 3525 3541 
Q 3525 3141 3298 2862 
Q 3072 2584 2669 2484 
Q 3125 2378 3379 2068 
Q 3634 1759 3634 1313 
Q 3634 634 3220 271 
Q 2806 -91 2034 -91 
Q 1263 -91 848 271 
Q 434 634 434 1313 
Q 434 1759 690 2068 
Q 947 2378 1403 2484 
z
M 1172 3481 
Q 1172 3119 1398 2916 
Q 1625 2713 2034 2713 
Q 2441 2713 2670 2916 
Q 2900 3119 2900 3481 
Q 2900 3844 2670 4047 
Q 2441 4250 2034 4250 
Q 1625 4250 1398 4047 
Q 1172 3844 1172 3481 
z
" transform="scale(0.015625)"/>
       </defs>
       <use xlink:href="#DejaVuSans-38"/>
       <use xlink:href="#DejaVuSans-30" transform="translate(63.623047 0)"/>
       <use xlink:href="#DejaVuSans-30" transform="translate(127.246094 0)"/>
       <use xlink:href="#DejaVuSans-30" transform="translate(190.869141 0)"/>
       <use xlink:href="#DejaVuSans-30" transform="translate(254.492188 0)"/>
      </g>
     </g>
    </g>
    <g id="xtick_6">
     <g id="line2d_6">
      <g>
       <use xlink:href="#m6728ea22f5" x="679.745385" y="390.04" style="stroke: #000000; stroke-width: 0.8"/>
      </g>
     </g>
     <g id="text_6">
      <!-- 100000 -->
      <g transform="translate(660.657885 404.638438) scale(0.1 -0.1)">
       <defs>
        <path id="DejaVuSans-31" d="M 794 531 
L 1825 531 
L 1825 4091 
L 703 3866 
L 703 4441 
L 1819 4666 
L 2450 4666 
L 2450 531 
L 3481 531 
L 3481 0 
L 794 0 
L 794 531 
z
" transform="scale(0.015625)"/>
       </defs>
       <use xlink:href="#DejaVuSans-31"/>
       <use xlink:href="#DejaVuSans-30" transform="translate(63.623047 0)"/>
       <use xlink:href="#DejaVuSans-30" transform="translate(127.246094 0)"/>
       <use xlink:href="#DejaVuSans-30" transform="translate(190.869141 0)"/>
       <use xlink:href="#DejaVuSans-30" transform="translate(254.492188 0)"/>
       <use xlink:href="#DejaVuSans-30" transform="translate(318.115234 0)"/>
      </g>
     </g>
    </g>
    <g id="text_7">
     <!-- Step -->
     <g transform="translate(367.119844 418.316562) scale(0.1 -0.1)">
      <defs>
       <path id="DejaVuSans-53" d="M 3425 4513 
L 3425 3897 
Q 3066 4069 2747 4153 
Q 2428 4238 2131 4238 
Q 1616 4238 1336 4038 
Q 1056 3838 1056 3469 
Q 1056 3159 1242 3001 
Q 1428 2844 1947 2747 
L 2328 2669 
Q 3034 2534 3370 2195 
Q 3706 1856 3706 1288 
Q 3706 609 3251 259 
Q 2797 -91 1919 -91 
Q 1588 -91 1214 -16 
Q 841 59 441 206 
L 441 856 
Q 825 641 1194 531 
Q 1563 422 1919 422 
Q 2459 422 2753 634 
Q 3047 847 3047 1241 
Q 3047 1584 2836 1778 
Q 2625 1972 2144 2069 
L 1759 2144 
Q 1053 2284 737 2584 
Q 422 2884 422 3419 
Q 422 4038 858 4394 
Q 1294 4750 2059 4750 
Q 2388 4750 2728 4690 
Q 3069 4631 3425 4513 
z
" transform="scale(0.015625)"/>
       <path id="DejaVuSans-74" d="M 1172 4494 
L 1172 3500 
L 2356 3500 
L 2356 3053 
L 1172 3053 
L 1172 1153 
Q 1172 725 1289 603 
Q 1406 481 1766 481 
L 2356 481 
L 2356 0 
L 1766 0 
Q 1100 0 847 248 
Q 594 497 594 1153 
L 594 3053 
L 172 3053 
L 172 3500 
L 594 3500 
L 594 4494 
L 1172 4494 
z
" transform="scale(0.015625)"/>
       <path id="DejaVuSans-65" d="M 3597 1894 
L 3597 1613 
L 953 1613 
Q 991 1019 1311 708 
Q 1631 397 2203 397 
Q 2534 397 2845 478 
Q 3156 559 3463 722 
L 3463 178 
Q 3153 47 2828 -22 
Q 2503 -91 2169 -91 
Q 1331 -91 842 396 
Q 353 884 353 1716 
Q 353 2575 817 3079 
Q 1281 3584 2069 3584 
Q 2775 3584 3186 3129 
Q 3597 2675 3597 1894 
z
M 3022 2063 
Q 3016 2534 2758 2815 
Q 2500 3097 2075 3097 
Q 1594 3097 1305 2825 
Q 1016 2553 972 2059 
L 3022 2063 
z
" transform="scale(0.015625)"/>
       <path id="DejaVuSans-70" d="M 1159 525 
L 1159 -1331 
L 581 -1331 
L 581 3500 
L 1159 3500 
L 1159 2969 
Q 1341 3281 1617 3432 
Q 1894 3584 2278 3584 
Q 2916 3584 3314 3078 
Q 3713 2572 3713 1747 
Q 3713 922 3314 415 
Q 2916 -91 2278 -91 
Q 1894 -91 1617 61 
Q 1341 213 1159 525 
z
M 3116 1747 
Q 3116 2381 2855 2742 
Q 2594 3103 2138 3103 
Q 1681 3103 1420 2742 
Q 1159 2381 1159 1747 
Q 1159 1113 1420 752 
Q 1681 391 2138 391 
Q 2594 391 2855 752 
Q 3116 1113 3116 1747 
z
" transform="scale(0.015625)"/>
      </defs>
      <use xlink:href="#DejaVuSans-53"/>
      <use xlink:href="#DejaVuSans-74" transform="translate(63.476562 0)"/>
      <use xlink:href="#DejaVuSans-65" transform="translate(102.685547 0)"/>
      <use xlink:href="#DejaVuSans-70" transform="translate(164.208984 0)"/>
     </g>
    </g>
   </g>
   <g id="matplotlib.axis_2">
    <g id="ytick_1">
     <g id="line2d_7">
      <defs>
       <path id="m179225fdc1" d="M 0 0 
L -3.5 0 
" style="stroke: #000000; stroke-width: 0.8"/>
      </defs>
      <g>
       <use xlink:href="#m179225fdc1" x="47.81" y="374.742519" style="stroke: #000000; stroke-width: 0.8"/>
      </g>
     </g>
     <g id="text_8">
      <!-- 0.0 -->
      <g transform="translate(24.906875 378.541737) scale(0.1 -0.1)">
       <defs>
        <path id="DejaVuSans-2e" d="M 684 794 
L 1344 794 
L 1344 0 
L 684 0 
L 684 794 
z
" transform="scale(0.015625)"/>
       </defs>
       <use xlink:href="#DejaVuSans-30"/>
       <use xlink:href="#DejaVuSans-2e" transform="translate(63.623047 0)"/>
       <use xlink:href="#DejaVuSans-30" transform="translate(95.410156 0)"/>
      </g>
     </g>
    </g>
    <g id="ytick_2">
     <g id="line2d_8">
      <g>
       <use xlink:href="#m179225fdc1" x="47.81" y="324.805023" style="stroke: #000000; stroke-width: 0.8"/>
      </g>
     </g>
     <g id="text_9">
      <!-- 0.2 -->
      <g transform="translate(24.906875 328.604241) scale(0.1 -0.1)">
       <use xlink:href="#DejaVuSans-30"/>
       <use xlink:href="#DejaVuSans-2e" transform="translate(63.623047 0)"/>
       <use xlink:href="#DejaVuSans-32" transform="translate(95.410156 0)"/>
      </g>
     </g>
    </g>
    <g id="ytick_3">
     <g id="line2d_9">
      <g>
       <use xlink:href="#m179225fdc1" x="47.81" y="274.867526" style="stroke: #000000; stroke-width: 0.8"/>
      </g>
     </g>
     <g id="text_10">
      <!-- 0.4 -->
      <g transform="translate(24.906875 278.666745) scale(0.1 -0.1)">
       <use xlink:href="#DejaVuSans-30"/>
       <use xlink:href="#DejaVuSans-2e" transform="translate(63.623047 0)"/>
       <use xlink:href="#DejaVuSans-34" transform="translate(95.410156 0)"/>
      </g>
     </g>
    </g>
    <g id="ytick_4">
     <g id="line2d_10">
      <g>
       <use xlink:href="#m179225fdc1" x="47.81" y="224.93003" style="stroke: #000000; stroke-width: 0.8"/>
      </g>
     </g>
     <g id="text_11">
      <!-- 0.6 -->
      <g transform="translate(24.906875 228.729249) scale(0.1 -0.1)">
       <use xlink:href="#DejaVuSans-30"/>
       <use xlink:href="#DejaVuSans-2e" transform="translate(63.623047 0)"/>
       <use xlink:href="#DejaVuSans-36" transform="translate(95.410156 0)"/>
      </g>
     </g>
    </g>
    <g id="ytick_5">
     <g id="line2d_11">
      <g>
       <use xlink:href="#m179225fdc1" x="47.81" y="174.992534" style="stroke: #000000; stroke-width: 0.8"/>
      </g>
     </g>
     <g id="text_12">
      <!-- 0.8 -->
      <g transform="translate(24.906875 178.791753) scale(0.1 -0.1)">
       <use xlink:href="#DejaVuSans-30"/>
       <use xlink:href="#DejaVuSans-2e" transform="translate(63.623047 0)"/>
       <use xlink:href="#DejaVuSans-38" transform="translate(95.410156 0)"/>
      </g>
     </g>
    </g>
    <g id="ytick_6">
     <g id="line2d_12">
      <g>
       <use xlink:href="#m179225fdc1" x="47.81" y="125.055038" style="stroke: #000000; stroke-width: 0.8"/>
      </g>
     </g>
     <g id="text_13">
      <!-- 1.0 -->
      <g transform="translate(24.906875 128.854257) scale(0.1 -0.1)">
       <use xlink:href="#DejaVuSans-31"/>
       <use xlink:href="#DejaVuSans-2e" transform="translate(63.623047 0)"/>
       <use xlink:href="#DejaVuSans-30" transform="translate(95.410156 0)"/>
      </g>
     </g>
    </g>
    <g id="ytick_7">
     <g id="line2d_13">
      <g>
       <use xlink:href="#m179225fdc1" x="47.81" y="75.117542" style="stroke: #000000; stroke-width: 0.8"/>
      </g>
     </g>
     <g id="text_14">
      <!-- 1.2 -->
      <g transform="translate(24.906875 78.91676) scale(0.1 -0.1)">
       <use xlink:href="#DejaVuSans-31"/>
       <use xlink:href="#DejaVuSans-2e" transform="translate(63.623047 0)"/>
       <use xlink:href="#DejaVuSans-32" transform="translate(95.410156 0)"/>
      </g>
     </g>
    </g>
    <g id="text_15">
     <!-- losses/alpha -->
     <g transform="translate(18.827187 238.623594) rotate(-90) scale(0.1 -0.1)">
      <defs>
       <path id="DejaVuSans-6c" d="M 603 4863 
L 1178 4863 
L 1178 0 
L 603 0 
L 603 4863 
z
" transform="scale(0.015625)"/>
       <path id="DejaVuSans-6f" d="M 1959 3097 
Q 1497 3097 1228 2736 
Q 959 2375 959 1747 
Q 959 1119 1226 758 
Q 1494 397 1959 397 
Q 2419 397 2687 759 
Q 2956 1122 2956 1747 
Q 2956 2369 2687 2733 
Q 2419 3097 1959 3097 
z
M 1959 3584 
Q 2709 3584 3137 3096 
Q 3566 2609 3566 1747 
Q 3566 888 3137 398 
Q 2709 -91 1959 -91 
Q 1206 -91 779 398 
Q 353 888 353 1747 
Q 353 2609 779 3096 
Q 1206 3584 1959 3584 
z
" transform="scale(0.015625)"/>
       <path id="DejaVuSans-73" d="M 2834 3397 
L 2834 2853 
Q 2591 2978 2328 3040 
Q 2066 3103 1784 3103 
Q 1356 3103 1142 2972 
Q 928 2841 928 2578 
Q 928 2378 1081 2264 
Q 1234 2150 1697 2047 
L 1894 2003 
Q 2506 1872 2764 1633 
Q 3022 1394 3022 966 
Q 3022 478 2636 193 
Q 2250 -91 1575 -91 
Q 1294 -91 989 -36 
Q 684 19 347 128 
L 347 722 
Q 666 556 975 473 
Q 1284 391 1588 391 
Q 1994 391 2212 530 
Q 2431 669 2431 922 
Q 2431 1156 2273 1281 
Q 2116 1406 1581 1522 
L 1381 1569 
Q 847 1681 609 1914 
Q 372 2147 372 2553 
Q 372 3047 722 3315 
Q 1072 3584 1716 3584 
Q 2034 3584 2315 3537 
Q 2597 3491 2834 3397 
z
" transform="scale(0.015625)"/>
       <path id="DejaVuSans-2f" d="M 1625 4666 
L 2156 4666 
L 531 -594 
L 0 -594 
L 1625 4666 
z
" transform="scale(0.015625)"/>
       <path id="DejaVuSans-61" d="M 2194 1759 
Q 1497 1759 1228 1600 
Q 959 1441 959 1056 
Q 959 750 1161 570 
Q 1363 391 1709 391 
Q 2188 391 2477 730 
Q 2766 1069 2766 1631 
L 2766 1759 
L 2194 1759 
z
M 3341 1997 
L 3341 0 
L 2766 0 
L 2766 531 
Q 2569 213 2275 61 
Q 1981 -91 1556 -91 
Q 1019 -91 701 211 
Q 384 513 384 1019 
Q 384 1609 779 1909 
Q 1175 2209 1959 2209 
L 2766 2209 
L 2766 2266 
Q 2766 2663 2505 2880 
Q 2244 3097 1772 3097 
Q 1472 3097 1187 3025 
Q 903 2953 641 2809 
L 641 3341 
Q 956 3463 1253 3523 
Q 1550 3584 1831 3584 
Q 2591 3584 2966 3190 
Q 3341 2797 3341 1997 
z
" transform="scale(0.015625)"/>
       <path id="DejaVuSans-68" d="M 3513 2113 
L 3513 0 
L 2938 0 
L 2938 2094 
Q 2938 2591 2744 2837 
Q 2550 3084 2163 3084 
Q 1697 3084 1428 2787 
Q 1159 2491 1159 1978 
L 1159 0 
L 581 0 
L 581 4863 
L 1159 4863 
L 1159 2956 
Q 1366 3272 1645 3428 
Q 1925 3584 2291 3584 
Q 2894 3584 3203 3211 
Q 3513 2838 3513 2113 
z
" transform="scale(0.015625)"/>
      </defs>
      <use xlink:href="#DejaVuSans-6c"/>
      <use xlink:href="#DejaVuSans-6f" transform="translate(27.783203 0)"/>
      <use xlink:href="#DejaVuSans-73" transform="translate(88.964844 0)"/>
      <use xlink:href="#DejaVuSans-73" transform="translate(141.064453 0)"/>
      <use xlink:href="#DejaVuSans-65" transform="translate(193.164062 0)"/>
      <use xlink:href="#DejaVuSans-73" transform="translate(254.6875 0)"/>
      <use xlink:href="#DejaVuSans-2f" transform="translate(306.787109 0)"/>
      <use xlink:href="#DejaVuSans-61" transform="translate(340.478516 0)"/>
      <use xlink:href="#DejaVuSans-6c" transform="translate(401.757812 0)"/>
      <use xlink:href="#DejaVuSans-70" transform="translate(429.541016 0)"/>
      <use xlink:href="#DejaVuSans-68" transform="translate(493.017578 0)"/>
      <use xlink:href="#DejaVuSans-61" transform="translate(556.396484 0)"/>
     </g>
    </g>
   </g>
   <g id="line2d_14">
    <path d="M 77.873182 126.511974 
L 82.08624 138.736912 
L 85.697433 148.4937 
L 89.308626 157.709381 
L 93.521685 167.80737 
L 97.734743 177.265226 
L 101.947802 186.140308 
L 106.16086 194.474138 
L 110.373919 202.32083 
L 114.586977 209.720672 
L 118.800036 216.705562 
L 123.013094 223.305559 
L 127.828018 230.418714 
L 132.642942 237.115403 
L 137.457867 243.410744 
L 142.272791 249.338651 
L 147.68958 255.600638 
L 152.504504 260.837986 
L 157.319428 265.776631 
L 163.338083 271.581965 
L 168.153007 275.941992 
L 174.171662 281.073911 
L 180.190317 285.876844 
L 186.208972 290.417299 
L 192.227627 294.698628 
L 198.246282 298.750844 
L 205.468668 303.294881 
L 211.487323 306.825249 
L 217.505978 310.098009 
L 224.126499 313.425622 
L 230.747019 316.485256 
L 236.163809 318.793216 
L 245.793657 322.487406 
L 251.812312 324.530718 
L 255.423505 325.676421 
L 262.645891 327.65282 
L 269.266411 329.150479 
L 287.322376 332.250575 
L 296.952224 333.453089 
L 313.804459 334.671522 
L 322.230576 335.067448 
L 326.443634 335.291694 
L 330.656693 335.4815 
L 336.675348 335.665946 
L 345.101465 335.833451 
L 351.12012 335.826803 
L 352.323851 335.838587 
L 355.333178 335.582793 
L 365.564892 335.273605 
L 372.787278 335.416481 
L 380.009664 335.360683 
L 384.222722 335.503658 
L 386.630184 335.618183 
L 393.85257 335.377067 
L 398.667494 335.252991 
L 400.473091 335.159321 
L 401.676822 335.052409 
L 406.491746 334.900883 
L 408.297342 334.838622 
L 411.30667 334.831149 
L 431.770097 334.767959 
L 437.788752 334.10854 
L 439.594348 333.895039 
L 443.807407 333.526563 
L 447.4186 333.299607 
L 449.224196 333.216503 
L 450.427927 333.182319 
L 454.03912 332.830297 
L 455.844717 332.720026 
L 460.057776 332.470176 
L 466.678296 332.258031 
L 469.085758 332.16661 
L 470.891355 332.114607 
L 472.696951 331.997609 
L 479.919337 331.544427 
L 482.928665 331.184037 
L 485.336127 331.185706 
L 497.373437 330.396574 
L 498.577168 330.356414 
L 500.382764 330.120924 
L 502.188361 330.060683 
L 505.799554 329.916977 
L 511.818209 329.877231 
L 514.225671 329.730375 
L 516.031267 329.637672 
L 517.234998 329.574173 
L 526.864846 329.565208 
L 529.874174 329.632483 
L 544.318946 328.858456 
L 547.930139 328.309359 
L 555.152525 328.001416 
L 556.958121 328.127023 
L 565.384238 327.745354 
L 567.7917 327.344318 
L 568.995431 327.280038 
L 574.412221 326.642458 
L 576.217817 326.336843 
L 582.838338 325.825916 
L 586.449531 325.69981 
L 594.875648 325.48864 
L 597.28311 325.161739 
L 602.098034 324.908559 
L 603.90363 324.918667 
L 605.107361 324.966045 
L 609.32042 324.870952 
L 613.533478 324.899643 
L 617.144671 324.718042 
L 620.755865 324.530907 
L 623.765192 324.293468 
L 626.172654 324.165684 
L 627.978251 324.200166 
L 630.385713 324.072853 
L 632.191309 323.897672 
L 633.39504 323.809881 
L 634.598771 323.754423 
L 636.404368 323.629431 
L 638.209964 323.58356 
L 639.413695 323.493922 
L 643.626754 323.353078 
L 646.034216 323.135893 
L 650.247274 322.913705 
L 653.256602 322.644237 
L 657.46966 322.561567 
L 662.284584 321.953754 
L 664.090181 321.837108 
L 679.136818 321.186446 
L 679.136818 321.186446 
" clip-path="url(#p122f7b7348)" style="fill: none; stroke: #8b0000; stroke-width: 1.5; stroke-linecap: square"/>
   </g>
   <g id="patch_3">
    <path d="M 47.81 390.04 
L 47.81 25.44 
" style="fill: none; stroke: #000000; stroke-width: 0.8; stroke-linejoin: miter; stroke-linecap: square"/>
   </g>
   <g id="patch_4">
    <path d="M 709.2 390.04 
L 709.2 25.44 
" style="fill: none; stroke: #000000; stroke-width: 0.8; stroke-linejoin: miter; stroke-linecap: square"/>
   </g>
   <g id="patch_5">
    <path d="M 47.81 390.04 
L 709.2 390.04 
" style="fill: none; stroke: #000000; stroke-width: 0.8; stroke-linejoin: miter; stroke-linecap: square"/>
   </g>
   <g id="patch_6">
    <path d="M 47.81 25.44 
L 709.2 25.44 
" style="fill: none; stroke: #000000; stroke-width: 0.8; stroke-linejoin: miter; stroke-linecap: square"/>
   </g>
   <g id="text_16">
    <!-- losses/alpha for sac_atari (aggregated via interpolation over runs) -->
    <g transform="translate(179.79625 19.44) scale(0.12 -0.12)">
     <defs>
      <path id="DejaVuSans-20" transform="scale(0.015625)"/>
      <path id="DejaVuSans-66" d="M 2375 4863 
L 2375 4384 
L 1825 4384 
Q 1516 4384 1395 4259 
Q 1275 4134 1275 3809 
L 1275 3500 
L 2222 3500 
L 2222 3053 
L 1275 3053 
L 1275 0 
L 697 0 
L 697 3053 
L 147 3053 
L 147 3500 
L 697 3500 
L 697 3744 
Q 697 4328 969 4595 
Q 1241 4863 1831 4863 
L 2375 4863 
z
" transform="scale(0.015625)"/>
      <path id="DejaVuSans-72" d="M 2631 2963 
Q 2534 3019 2420 3045 
Q 2306 3072 2169 3072 
Q 1681 3072 1420 2755 
Q 1159 2438 1159 1844 
L 1159 0 
L 581 0 
L 581 3500 
L 1159 3500 
L 1159 2956 
Q 1341 3275 1631 3429 
Q 1922 3584 2338 3584 
Q 2397 3584 2469 3576 
Q 2541 3569 2628 3553 
L 2631 2963 
z
" transform="scale(0.015625)"/>
      <path id="DejaVuSans-63" d="M 3122 3366 
L 3122 2828 
Q 2878 2963 2633 3030 
Q 2388 3097 2138 3097 
Q 1578 3097 1268 2742 
Q 959 2388 959 1747 
Q 959 1106 1268 751 
Q 1578 397 2138 397 
Q 2388 397 2633 464 
Q 2878 531 3122 666 
L 3122 134 
Q 2881 22 2623 -34 
Q 2366 -91 2075 -91 
Q 1284 -91 818 406 
Q 353 903 353 1747 
Q 353 2603 823 3093 
Q 1294 3584 2113 3584 
Q 2378 3584 2631 3529 
Q 2884 3475 3122 3366 
z
" transform="scale(0.015625)"/>
      <path id="DejaVuSans-5f" d="M 3263 -1063 
L 3263 -1509 
L -63 -1509 
L -63 -1063 
L 3263 -1063 
z
" transform="scale(0.015625)"/>
      <path id="DejaVuSans-69" d="M 603 3500 
L 1178 3500 
L 1178 0 
L 603 0 
L 603 3500 
z
M 603 4863 
L 1178 4863 
L 1178 4134 
L 603 4134 
L 603 4863 
z
" transform="scale(0.015625)"/>
      <path id="DejaVuSans-28" d="M 1984 4856 
Q 1566 4138 1362 3434 
Q 1159 2731 1159 2009 
Q 1159 1288 1364 580 
Q 1569 -128 1984 -844 
L 1484 -844 
Q 1016 -109 783 600 
Q 550 1309 550 2009 
Q 550 2706 781 3412 
Q 1013 4119 1484 4856 
L 1984 4856 
z
" transform="scale(0.015625)"/>
      <path id="DejaVuSans-67" d="M 2906 1791 
Q 2906 2416 2648 2759 
Q 2391 3103 1925 3103 
Q 1463 3103 1205 2759 
Q 947 2416 947 1791 
Q 947 1169 1205 825 
Q 1463 481 1925 481 
Q 2391 481 2648 825 
Q 2906 1169 2906 1791 
z
M 3481 434 
Q 3481 -459 3084 -895 
Q 2688 -1331 1869 -1331 
Q 1566 -1331 1297 -1286 
Q 1028 -1241 775 -1147 
L 775 -588 
Q 1028 -725 1275 -790 
Q 1522 -856 1778 -856 
Q 2344 -856 2625 -561 
Q 2906 -266 2906 331 
L 2906 616 
Q 2728 306 2450 153 
Q 2172 0 1784 0 
Q 1141 0 747 490 
Q 353 981 353 1791 
Q 353 2603 747 3093 
Q 1141 3584 1784 3584 
Q 2172 3584 2450 3431 
Q 2728 3278 2906 2969 
L 2906 3500 
L 3481 3500 
L 3481 434 
z
" transform="scale(0.015625)"/>
      <path id="DejaVuSans-64" d="M 2906 2969 
L 2906 4863 
L 3481 4863 
L 3481 0 
L 2906 0 
L 2906 525 
Q 2725 213 2448 61 
Q 2172 -91 1784 -91 
Q 1150 -91 751 415 
Q 353 922 353 1747 
Q 353 2572 751 3078 
Q 1150 3584 1784 3584 
Q 2172 3584 2448 3432 
Q 2725 3281 2906 2969 
z
M 947 1747 
Q 947 1113 1208 752 
Q 1469 391 1925 391 
Q 2381 391 2643 752 
Q 2906 1113 2906 1747 
Q 2906 2381 2643 2742 
Q 2381 3103 1925 3103 
Q 1469 3103 1208 2742 
Q 947 2381 947 1747 
z
" transform="scale(0.015625)"/>
      <path id="DejaVuSans-76" d="M 191 3500 
L 800 3500 
L 1894 563 
L 2988 3500 
L 3597 3500 
L 2284 0 
L 1503 0 
L 191 3500 
z
" transform="scale(0.015625)"/>
      <path id="DejaVuSans-6e" d="M 3513 2113 
L 3513 0 
L 2938 0 
L 2938 2094 
Q 2938 2591 2744 2837 
Q 2550 3084 2163 3084 
Q 1697 3084 1428 2787 
Q 1159 2491 1159 1978 
L 1159 0 
L 581 0 
L 581 3500 
L 1159 3500 
L 1159 2956 
Q 1366 3272 1645 3428 
Q 1925 3584 2291 3584 
Q 2894 3584 3203 3211 
Q 3513 2838 3513 2113 
z
" transform="scale(0.015625)"/>
      <path id="DejaVuSans-75" d="M 544 1381 
L 544 3500 
L 1119 3500 
L 1119 1403 
Q 1119 906 1312 657 
Q 1506 409 1894 409 
Q 2359 409 2629 706 
Q 2900 1003 2900 1516 
L 2900 3500 
L 3475 3500 
L 3475 0 
L 2900 0 
L 2900 538 
Q 2691 219 2414 64 
Q 2138 -91 1772 -91 
Q 1169 -91 856 284 
Q 544 659 544 1381 
z
M 1991 3584 
L 1991 3584 
z
" transform="scale(0.015625)"/>
      <path id="DejaVuSans-29" d="M 513 4856 
L 1013 4856 
Q 1481 4119 1714 3412 
Q 1947 2706 1947 2009 
Q 1947 1309 1714 600 
Q 1481 -109 1013 -844 
L 513 -844 
Q 928 -128 1133 580 
Q 1338 1288 1338 2009 
Q 1338 2731 1133 3434 
Q 928 4138 513 4856 
z
" transform="scale(0.015625)"/>
     </defs>
     <use xlink:href="#DejaVuSans-6c"/>
     <use xlink:href="#DejaVuSans-6f" transform="translate(27.783203 0)"/>
     <use xlink:href="#DejaVuSans-73" transform="translate(88.964844 0)"/>
     <use xlink:href="#DejaVuSans-73" transform="translate(141.064453 0)"/>
     <use xlink:href="#DejaVuSans-65" transform="translate(193.164062 0)"/>
     <use xlink:href="#DejaVuSans-73" transform="translate(254.6875 0)"/>
     <use xlink:href="#DejaVuSans-2f" transform="translate(306.787109 0)"/>
     <use xlink:href="#DejaVuSans-61" transform="translate(340.478516 0)"/>
     <use xlink:href="#DejaVuSans-6c" transform="translate(401.757812 0)"/>
     <use xlink:href="#DejaVuSans-70" transform="translate(429.541016 0)"/>
     <use xlink:href="#DejaVuSans-68" transform="translate(493.017578 0)"/>
     <use xlink:href="#DejaVuSans-61" transform="translate(556.396484 0)"/>
     <use xlink:href="#DejaVuSans-20" transform="translate(617.675781 0)"/>
     <use xlink:href="#DejaVuSans-66" transform="translate(649.462891 0)"/>
     <use xlink:href="#DejaVuSans-6f" transform="translate(684.667969 0)"/>
     <use xlink:href="#DejaVuSans-72" transform="translate(745.849609 0)"/>
     <use xlink:href="#DejaVuSans-20" transform="translate(786.962891 0)"/>
     <use xlink:href="#DejaVuSans-73" transform="translate(818.75 0)"/>
     <use xlink:href="#DejaVuSans-61" transform="translate(870.849609 0)"/>
     <use xlink:href="#DejaVuSans-63" transform="translate(932.128906 0)"/>
     <use xlink:href="#DejaVuSans-5f" transform="translate(987.109375 0)"/>
     <use xlink:href="#DejaVuSans-61" transform="translate(1037.109375 0)"/>
     <use xlink:href="#DejaVuSans-74" transform="translate(1098.388672 0)"/>
     <use xlink:href="#DejaVuSans-61" transform="translate(1137.597656 0)"/>
     <use xlink:href="#DejaVuSans-72" transform="translate(1198.876953 0)"/>
     <use xlink:href="#DejaVuSans-69" transform="translate(1239.990234 0)"/>
     <use xlink:href="#DejaVuSans-20" transform="translate(1267.773438 0)"/>
     <use xlink:href="#DejaVuSans-28" transform="translate(1299.560547 0)"/>
     <use xlink:href="#DejaVuSans-61" transform="translate(1338.574219 0)"/>
     <use xlink:href="#DejaVuSans-67" transform="translate(1399.853516 0)"/>
     <use xlink:href="#DejaVuSans-67" transform="translate(1463.330078 0)"/>
     <use xlink:href="#DejaVuSans-72" transform="translate(1526.806641 0)"/>
     <use xlink:href="#DejaVuSans-65" transform="translate(1565.669922 0)"/>
     <use xlink:href="#DejaVuSans-67" transform="translate(1627.193359 0)"/>
     <use xlink:href="#DejaVuSans-61" transform="translate(1690.669922 0)"/>
     <use xlink:href="#DejaVuSans-74" transform="translate(1751.949219 0)"/>
     <use xlink:href="#DejaVuSans-65" transform="translate(1791.158203 0)"/>
     <use xlink:href="#DejaVuSans-64" transform="translate(1852.681641 0)"/>
     <use xlink:href="#DejaVuSans-20" transform="translate(1916.158203 0)"/>
     <use xlink:href="#DejaVuSans-76" transform="translate(1947.945312 0)"/>
     <use xlink:href="#DejaVuSans-69" transform="translate(2007.125 0)"/>
     <use xlink:href="#DejaVuSans-61" transform="translate(2034.908203 0)"/>
     <use xlink:href="#DejaVuSans-20" transform="translate(2096.1875 0)"/>
     <use xlink:href="#DejaVuSans-69" transform="translate(2127.974609 0)"/>
     <use xlink:href="#DejaVuSans-6e" transform="translate(2155.757812 0)"/>
     <use xlink:href="#DejaVuSans-74" transform="translate(2219.136719 0)"/>
     <use xlink:href="#DejaVuSans-65" transform="translate(2258.345703 0)"/>
     <use xlink:href="#DejaVuSans-72" transform="translate(2319.869141 0)"/>
     <use xlink:href="#DejaVuSans-70" transform="translate(2360.982422 0)"/>
     <use xlink:href="#DejaVuSans-6f" transform="translate(2424.458984 0)"/>
     <use xlink:href="#DejaVuSans-6c" transform="translate(2485.640625 0)"/>
     <use xlink:href="#DejaVuSans-61" transform="translate(2513.423828 0)"/>
     <use xlink:href="#DejaVuSans-74" transform="translate(2574.703125 0)"/>
     <use xlink:href="#DejaVuSans-69" transform="translate(2613.912109 0)"/>
     <use xlink:href="#DejaVuSans-6f" transform="translate(2641.695312 0)"/>
     <use xlink:href="#DejaVuSans-6e" transform="translate(2702.876953 0)"/>
     <use xlink:href="#DejaVuSans-20" transform="translate(2766.255859 0)"/>
     <use xlink:href="#DejaVuSans-6f" transform="translate(2798.042969 0)"/>
     <use xlink:href="#DejaVuSans-76" transform="translate(2859.224609 0)"/>
     <use xlink:href="#DejaVuSans-65" transform="translate(2918.404297 0)"/>
     <use xlink:href="#DejaVuSans-72" transform="translate(2979.927734 0)"/>
     <use xlink:href="#DejaVuSans-20" transform="translate(3021.041016 0)"/>
     <use xlink:href="#DejaVuSans-72" transform="translate(3052.828125 0)"/>
     <use xlink:href="#DejaVuSans-75" transform="translate(3093.941406 0)"/>
     <use xlink:href="#DejaVuSans-6e" transform="translate(3157.320312 0)"/>
     <use xlink:href="#DejaVuSans-73" transform="translate(3220.699219 0)"/>
     <use xlink:href="#DejaVuSans-29" transform="translate(3272.798828 0)"/>
    </g>
   </g>
   <g id="legend_1">
    <g id="patch_7">
     <path d="M 54.81 62.79625 
L 130.22875 62.79625 
Q 132.22875 62.79625 132.22875 60.79625 
L 132.22875 32.44 
Q 132.22875 30.44 130.22875 30.44 
L 54.81 30.44 
Q 52.81 30.44 52.81 32.44 
L 52.81 60.79625 
Q 52.81 62.79625 54.81 62.79625 
z
" style="fill: #ffffff; opacity: 0.8; stroke: #cccccc; stroke-linejoin: miter"/>
    </g>
    <g id="line2d_15">
     <path d="M 56.81 38.538437 
L 66.81 38.538437 
L 76.81 38.538437 
" style="fill: none; stroke: #8b0000; stroke-width: 1.5; stroke-linecap: square"/>
    </g>
    <g id="text_17">
     <!-- Mean -->
     <g transform="translate(84.81 42.038437) scale(0.1 -0.1)">
      <defs>
       <path id="DejaVuSans-4d" d="M 628 4666 
L 1569 4666 
L 2759 1491 
L 3956 4666 
L 4897 4666 
L 4897 0 
L 4281 0 
L 4281 4097 
L 3078 897 
L 2444 897 
L 1241 4097 
L 1241 0 
L 628 0 
L 628 4666 
z
" transform="scale(0.015625)"/>
      </defs>
      <use xlink:href="#DejaVuSans-4d"/>
      <use xlink:href="#DejaVuSans-65" transform="translate(86.279297 0)"/>
      <use xlink:href="#DejaVuSans-61" transform="translate(147.802734 0)"/>
      <use xlink:href="#DejaVuSans-6e" transform="translate(209.082031 0)"/>
     </g>
    </g>
    <g id="patch_8">
     <path d="M 56.81 56.716563 
L 76.81 56.716563 
L 76.81 49.716563 
L 56.81 49.716563 
z
" style="fill: #8b0000; fill-opacity: 0.3; stroke: #8b0000; stroke-opacity: 0.3; stroke-linejoin: miter"/>
    </g>
    <g id="text_18">
     <!-- MinMax -->
     <g transform="translate(84.81 56.716563) scale(0.1 -0.1)">
      <defs>
       <path id="DejaVuSans-2013" d="M 313 1978 
L 2888 1978 
L 2888 1528 
L 313 1528 
L 313 1978 
z
" transform="scale(0.015625)"/>
       <path id="DejaVuSans-78" d="M 3513 3500 
L 2247 1797 
L 3578 0 
L 2900 0 
L 1881 1375 
L 863 0 
L 184 0 
L 1544 1831 
L 300 3500 
L 978 3500 
L 1906 2253 
L 2834 3500 
L 3513 3500 
z
" transform="scale(0.015625)"/>
      </defs>
      <use xlink:href="#DejaVuSans-4d"/>
      <use xlink:href="#DejaVuSans-69" transform="translate(86.279297 0)"/>
      <use xlink:href="#DejaVuSans-6e" transform="translate(114.0625 0)"/>
      <use xlink:href="#DejaVuSans-2013" transform="translate(177.441406 0)"/>
      <use xlink:href="#DejaVuSans-4d" transform="translate(227.441406 0)"/>
      <use xlink:href="#DejaVuSans-61" transform="translate(313.720703 0)"/>
      <use xlink:href="#DejaVuSans-78" transform="translate(375 0)"/>
     </g>
    </g>
   </g>
  </g>
 </g>
 <defs>
  <clipPath id="p122f7b7348">
   <rect x="47.81" y="25.44" width="661.39" height="364.6"/>
  </clipPath>
 </defs>
</svg>
