<?xml version="1.0" encoding="utf-8" standalone="no"?>
<!DOCTYPE svg PUBLIC "-//W3C//DTD SVG 1.1//EN"
  "http://www.w3.org/Graphics/SVG/1.1/DTD/svg11.dtd">
<svg xmlns:xlink="http://www.w3.org/1999/xlink" width="720pt" height="432pt" viewBox="0 0 720 432" xmlns="http://www.w3.org/2000/svg" version="1.1">
 <metadata>
  <rdf:RDF xmlns:dc="http://purl.org/dc/elements/1.1/" xmlns:cc="http://creativecommons.org/ns#" xmlns:rdf="http://www.w3.org/1999/02/22-rdf-syntax-ns#">
   <cc:Work>
    <dc:type rdf:resource="http://purl.org/dc/dcmitype/StillImage"/>
    <dc:date>2025-02-09T22:57:32.787838</dc:date>
    <dc:format>image/svg+xml</dc:format>
    <dc:creator>
     <cc:Agent>
      <dc:title>Matplotlib v3.10.0, https://matplotlib.org/</dc:title>
     </cc:Agent>
    </dc:creator>
   </cc:Work>
  </rdf:RDF>
 </metadata>
 <defs>
  <style type="text/css">*{stroke-linejoin: round; stroke-linecap: butt}</style>
 </defs>
 <g id="figure_1">
  <g id="patch_1">
   <path d="M 0 432 
L 720 432 
L 720 0 
L 0 0 
z
" style="fill: #ffffff"/>
  </g>
  <g id="axes_1">
   <g id="patch_2">
    <path d="M 54.2 390.04 
L 709.2 390.04 
L 709.2 25.44 
L 54.2 25.44 
z
" style="fill: #ffffff"/>
   </g>
   <g id="matplotlib.axis_1">
    <g id="xtick_1">
     <g id="line2d_1">
      <defs>
       <path id="mff41d854f0" d="M 0 0 
L 0 3.5 
" style="stroke: #000000; stroke-width: 0.8"/>
      </defs>
      <g>
       <use xlink:href="#mff41d854f0" x="81.57921" y="390.04" style="stroke: #000000; stroke-width: 0.8"/>
      </g>
     </g>
     <g id="text_1">
      <!-- 0 -->
      <g transform="translate(78.39796 404.638438) scale(0.1 -0.1)">
       <defs>
        <path id="DejaVuSans-30" d="M 2034 4250 
Q 1547 4250 1301 3770 
Q 1056 3291 1056 2328 
Q 1056 1369 1301 889 
Q 1547 409 2034 409 
Q 2525 409 2770 889 
Q 3016 1369 3016 2328 
Q 3016 3291 2770 3770 
Q 2525 4250 2034 4250 
z
M 2034 4750 
Q 2819 4750 3233 4129 
Q 3647 3509 3647 2328 
Q 3647 1150 3233 529 
Q 2819 -91 2034 -91 
Q 1250 -91 836 529 
Q 422 1150 422 2328 
Q 422 3509 836 4129 
Q 1250 4750 2034 4750 
z
" transform="scale(0.015625)"/>
       </defs>
       <use xlink:href="#DejaVuSans-30"/>
      </g>
     </g>
    </g>
    <g id="xtick_2">
     <g id="line2d_2">
      <g>
       <use xlink:href="#mff41d854f0" x="200.956625" y="390.04" style="stroke: #000000; stroke-width: 0.8"/>
      </g>
     </g>
     <g id="text_2">
      <!-- 20000 -->
      <g transform="translate(185.050375 404.638438) scale(0.1 -0.1)">
       <defs>
        <path id="DejaVuSans-32" d="M 1228 531 
L 3431 531 
L 3431 0 
L 469 0 
L 469 531 
Q 828 903 1448 1529 
Q 2069 2156 2228 2338 
Q 2531 2678 2651 2914 
Q 2772 3150 2772 3378 
Q 2772 3750 2511 3984 
Q 2250 4219 1831 4219 
Q 1534 4219 1204 4116 
Q 875 4013 500 3803 
L 500 4441 
Q 881 4594 1212 4672 
Q 1544 4750 1819 4750 
Q 2544 4750 2975 4387 
Q 3406 4025 3406 3419 
Q 3406 3131 3298 2873 
Q 3191 2616 2906 2266 
Q 2828 2175 2409 1742 
Q 1991 1309 1228 531 
z
" transform="scale(0.015625)"/>
       </defs>
       <use xlink:href="#DejaVuSans-32"/>
       <use xlink:href="#DejaVuSans-30" transform="translate(63.623047 0)"/>
       <use xlink:href="#DejaVuSans-30" transform="translate(127.246094 0)"/>
       <use xlink:href="#DejaVuSans-30" transform="translate(190.869141 0)"/>
       <use xlink:href="#DejaVuSans-30" transform="translate(254.492188 0)"/>
      </g>
     </g>
    </g>
    <g id="xtick_3">
     <g id="line2d_3">
      <g>
       <use xlink:href="#mff41d854f0" x="320.33404" y="390.04" style="stroke: #000000; stroke-width: 0.8"/>
      </g>
     </g>
     <g id="text_3">
      <!-- 40000 -->
      <g transform="translate(304.42779 404.638438) scale(0.1 -0.1)">
       <defs>
        <path id="DejaVuSans-34" d="M 2419 4116 
L 825 1625 
L 2419 1625 
L 2419 4116 
z
M 2253 4666 
L 3047 4666 
L 3047 1625 
L 3713 1625 
L 3713 1100 
L 3047 1100 
L 3047 0 
L 2419 0 
L 2419 1100 
L 313 1100 
L 313 1709 
L 2253 4666 
z
" transform="scale(0.015625)"/>
       </defs>
       <use xlink:href="#DejaVuSans-34"/>
       <use xlink:href="#DejaVuSans-30" transform="translate(63.623047 0)"/>
       <use xlink:href="#DejaVuSans-30" transform="translate(127.246094 0)"/>
       <use xlink:href="#DejaVuSans-30" transform="translate(190.869141 0)"/>
       <use xlink:href="#DejaVuSans-30" transform="translate(254.492188 0)"/>
      </g>
     </g>
    </g>
    <g id="xtick_4">
     <g id="line2d_4">
      <g>
       <use xlink:href="#mff41d854f0" x="439.711455" y="390.04" style="stroke: #000000; stroke-width: 0.8"/>
      </g>
     </g>
     <g id="text_4">
      <!-- 60000 -->
      <g transform="translate(423.805205 404.638438) scale(0.1 -0.1)">
       <defs>
        <path id="DejaVuSans-36" d="M 2113 2584 
Q 1688 2584 1439 2293 
Q 1191 2003 1191 1497 
Q 1191 994 1439 701 
Q 1688 409 2113 409 
Q 2538 409 2786 701 
Q 3034 994 3034 1497 
Q 3034 2003 2786 2293 
Q 2538 2584 2113 2584 
z
M 3366 4563 
L 3366 3988 
Q 3128 4100 2886 4159 
Q 2644 4219 2406 4219 
Q 1781 4219 1451 3797 
Q 1122 3375 1075 2522 
Q 1259 2794 1537 2939 
Q 1816 3084 2150 3084 
Q 2853 3084 3261 2657 
Q 3669 2231 3669 1497 
Q 3669 778 3244 343 
Q 2819 -91 2113 -91 
Q 1303 -91 875 529 
Q 447 1150 447 2328 
Q 447 3434 972 4092 
Q 1497 4750 2381 4750 
Q 2619 4750 2861 4703 
Q 3103 4656 3366 4563 
z
" transform="scale(0.015625)"/>
       </defs>
       <use xlink:href="#DejaVuSans-36"/>
       <use xlink:href="#DejaVuSans-30" transform="translate(63.623047 0)"/>
       <use xlink:href="#DejaVuSans-30" transform="translate(127.246094 0)"/>
       <use xlink:href="#DejaVuSans-30" transform="translate(190.869141 0)"/>
       <use xlink:href="#DejaVuSans-30" transform="translate(254.492188 0)"/>
      </g>
     </g>
    </g>
    <g id="xtick_5">
     <g id="line2d_5">
      <g>
       <use xlink:href="#mff41d854f0" x="559.08887" y="390.04" style="stroke: #000000; stroke-width: 0.8"/>
      </g>
     </g>
     <g id="text_5">
      <!-- 80000 -->
      <g transform="translate(543.18262 404.638438) scale(0.1 -0.1)">
       <defs>
        <path id="DejaVuSans-38" d="M 2034 2216 
Q 1584 2216 1326 1975 
Q 1069 1734 1069 1313 
Q 1069 891 1326 650 
Q 1584 409 2034 409 
Q 2484 409 2743 651 
Q 3003 894 3003 1313 
Q 3003 1734 2745 1975 
Q 2488 2216 2034 2216 
z
M 1403 2484 
Q 997 2584 770 2862 
Q 544 3141 544 3541 
Q 544 4100 942 4425 
Q 1341 4750 2034 4750 
Q 2731 4750 3128 4425 
Q 3525 4100 3525 3541 
Q 3525 3141 3298 2862 
Q 3072 2584 2669 2484 
Q 3125 2378 3379 2068 
Q 3634 1759 3634 1313 
Q 3634 634 3220 271 
Q 2806 -91 2034 -91 
Q 1263 -91 848 271 
Q 434 634 434 1313 
Q 434 1759 690 2068 
Q 947 2378 1403 2484 
z
M 1172 3481 
Q 1172 3119 1398 2916 
Q 1625 2713 2034 2713 
Q 2441 2713 2670 2916 
Q 2900 3119 2900 3481 
Q 2900 3844 2670 4047 
Q 2441 4250 2034 4250 
Q 1625 4250 1398 4047 
Q 1172 3844 1172 3481 
z
" transform="scale(0.015625)"/>
       </defs>
       <use xlink:href="#DejaVuSans-38"/>
       <use xlink:href="#DejaVuSans-30" transform="translate(63.623047 0)"/>
       <use xlink:href="#DejaVuSans-30" transform="translate(127.246094 0)"/>
       <use xlink:href="#DejaVuSans-30" transform="translate(190.869141 0)"/>
       <use xlink:href="#DejaVuSans-30" transform="translate(254.492188 0)"/>
      </g>
     </g>
    </g>
    <g id="xtick_6">
     <g id="line2d_6">
      <g>
       <use xlink:href="#mff41d854f0" x="678.466285" y="390.04" style="stroke: #000000; stroke-width: 0.8"/>
      </g>
     </g>
     <g id="text_6">
      <!-- 100000 -->
      <g transform="translate(659.378785 404.638438) scale(0.1 -0.1)">
       <defs>
        <path id="DejaVuSans-31" d="M 794 531 
L 1825 531 
L 1825 4091 
L 703 3866 
L 703 4441 
L 1819 4666 
L 2450 4666 
L 2450 531 
L 3481 531 
L 3481 0 
L 794 0 
L 794 531 
z
" transform="scale(0.015625)"/>
       </defs>
       <use xlink:href="#DejaVuSans-31"/>
       <use xlink:href="#DejaVuSans-30" transform="translate(63.623047 0)"/>
       <use xlink:href="#DejaVuSans-30" transform="translate(127.246094 0)"/>
       <use xlink:href="#DejaVuSans-30" transform="translate(190.869141 0)"/>
       <use xlink:href="#DejaVuSans-30" transform="translate(254.492188 0)"/>
       <use xlink:href="#DejaVuSans-30" transform="translate(318.115234 0)"/>
      </g>
     </g>
    </g>
    <g id="text_7">
     <!-- Step -->
     <g transform="translate(370.314844 418.316562) scale(0.1 -0.1)">
      <defs>
       <path id="DejaVuSans-53" d="M 3425 4513 
L 3425 3897 
Q 3066 4069 2747 4153 
Q 2428 4238 2131 4238 
Q 1616 4238 1336 4038 
Q 1056 3838 1056 3469 
Q 1056 3159 1242 3001 
Q 1428 2844 1947 2747 
L 2328 2669 
Q 3034 2534 3370 2195 
Q 3706 1856 3706 1288 
Q 3706 609 3251 259 
Q 2797 -91 1919 -91 
Q 1588 -91 1214 -16 
Q 841 59 441 206 
L 441 856 
Q 825 641 1194 531 
Q 1563 422 1919 422 
Q 2459 422 2753 634 
Q 3047 847 3047 1241 
Q 3047 1584 2836 1778 
Q 2625 1972 2144 2069 
L 1759 2144 
Q 1053 2284 737 2584 
Q 422 2884 422 3419 
Q 422 4038 858 4394 
Q 1294 4750 2059 4750 
Q 2388 4750 2728 4690 
Q 3069 4631 3425 4513 
z
" transform="scale(0.015625)"/>
       <path id="DejaVuSans-74" d="M 1172 4494 
L 1172 3500 
L 2356 3500 
L 2356 3053 
L 1172 3053 
L 1172 1153 
Q 1172 725 1289 603 
Q 1406 481 1766 481 
L 2356 481 
L 2356 0 
L 1766 0 
Q 1100 0 847 248 
Q 594 497 594 1153 
L 594 3053 
L 172 3053 
L 172 3500 
L 594 3500 
L 594 4494 
L 1172 4494 
z
" transform="scale(0.015625)"/>
       <path id="DejaVuSans-65" d="M 3597 1894 
L 3597 1613 
L 953 1613 
Q 991 1019 1311 708 
Q 1631 397 2203 397 
Q 2534 397 2845 478 
Q 3156 559 3463 722 
L 3463 178 
Q 3153 47 2828 -22 
Q 2503 -91 2169 -91 
Q 1331 -91 842 396 
Q 353 884 353 1716 
Q 353 2575 817 3079 
Q 1281 3584 2069 3584 
Q 2775 3584 3186 3129 
Q 3597 2675 3597 1894 
z
M 3022 2063 
Q 3016 2534 2758 2815 
Q 2500 3097 2075 3097 
Q 1594 3097 1305 2825 
Q 1016 2553 972 2059 
L 3022 2063 
z
" transform="scale(0.015625)"/>
       <path id="DejaVuSans-70" d="M 1159 525 
L 1159 -1331 
L 581 -1331 
L 581 3500 
L 1159 3500 
L 1159 2969 
Q 1341 3281 1617 3432 
Q 1894 3584 2278 3584 
Q 2916 3584 3314 3078 
Q 3713 2572 3713 1747 
Q 3713 922 3314 415 
Q 2916 -91 2278 -91 
Q 1894 -91 1617 61 
Q 1341 213 1159 525 
z
M 3116 1747 
Q 3116 2381 2855 2742 
Q 2594 3103 2138 3103 
Q 1681 3103 1420 2742 
Q 1159 2381 1159 1747 
Q 1159 1113 1420 752 
Q 1681 391 2138 391 
Q 2594 391 2855 752 
Q 3116 1113 3116 1747 
z
" transform="scale(0.015625)"/>
      </defs>
      <use xlink:href="#DejaVuSans-53"/>
      <use xlink:href="#DejaVuSans-74" transform="translate(63.476562 0)"/>
      <use xlink:href="#DejaVuSans-65" transform="translate(102.685547 0)"/>
      <use xlink:href="#DejaVuSans-70" transform="translate(164.208984 0)"/>
     </g>
    </g>
   </g>
   <g id="matplotlib.axis_2">
    <g id="ytick_1">
     <g id="line2d_7">
      <defs>
       <path id="m84f1cdc180" d="M 0 0 
L -3.5 0 
" style="stroke: #000000; stroke-width: 0.8"/>
      </defs>
      <g>
       <use xlink:href="#m84f1cdc180" x="54.2" y="341.422373" style="stroke: #000000; stroke-width: 0.8"/>
      </g>
     </g>
     <g id="text_8">
      <!-- 0.00 -->
      <g transform="translate(24.934375 345.221592) scale(0.1 -0.1)">
       <defs>
        <path id="DejaVuSans-2e" d="M 684 794 
L 1344 794 
L 1344 0 
L 684 0 
L 684 794 
z
" transform="scale(0.015625)"/>
       </defs>
       <use xlink:href="#DejaVuSans-30"/>
       <use xlink:href="#DejaVuSans-2e" transform="translate(63.623047 0)"/>
       <use xlink:href="#DejaVuSans-30" transform="translate(95.410156 0)"/>
       <use xlink:href="#DejaVuSans-30" transform="translate(159.033203 0)"/>
      </g>
     </g>
    </g>
    <g id="ytick_2">
     <g id="line2d_8">
      <g>
       <use xlink:href="#m84f1cdc180" x="54.2" y="273.323864" style="stroke: #000000; stroke-width: 0.8"/>
      </g>
     </g>
     <g id="text_9">
      <!-- 0.02 -->
      <g transform="translate(24.934375 277.123083) scale(0.1 -0.1)">
       <use xlink:href="#DejaVuSans-30"/>
       <use xlink:href="#DejaVuSans-2e" transform="translate(63.623047 0)"/>
       <use xlink:href="#DejaVuSans-30" transform="translate(95.410156 0)"/>
       <use xlink:href="#DejaVuSans-32" transform="translate(159.033203 0)"/>
      </g>
     </g>
    </g>
    <g id="ytick_3">
     <g id="line2d_9">
      <g>
       <use xlink:href="#m84f1cdc180" x="54.2" y="205.225355" style="stroke: #000000; stroke-width: 0.8"/>
      </g>
     </g>
     <g id="text_10">
      <!-- 0.04 -->
      <g transform="translate(24.934375 209.024574) scale(0.1 -0.1)">
       <use xlink:href="#DejaVuSans-30"/>
       <use xlink:href="#DejaVuSans-2e" transform="translate(63.623047 0)"/>
       <use xlink:href="#DejaVuSans-30" transform="translate(95.410156 0)"/>
       <use xlink:href="#DejaVuSans-34" transform="translate(159.033203 0)"/>
      </g>
     </g>
    </g>
    <g id="ytick_4">
     <g id="line2d_10">
      <g>
       <use xlink:href="#m84f1cdc180" x="54.2" y="137.126846" style="stroke: #000000; stroke-width: 0.8"/>
      </g>
     </g>
     <g id="text_11">
      <!-- 0.06 -->
      <g transform="translate(24.934375 140.926065) scale(0.1 -0.1)">
       <use xlink:href="#DejaVuSans-30"/>
       <use xlink:href="#DejaVuSans-2e" transform="translate(63.623047 0)"/>
       <use xlink:href="#DejaVuSans-30" transform="translate(95.410156 0)"/>
       <use xlink:href="#DejaVuSans-36" transform="translate(159.033203 0)"/>
      </g>
     </g>
    </g>
    <g id="ytick_5">
     <g id="line2d_11">
      <g>
       <use xlink:href="#m84f1cdc180" x="54.2" y="69.028337" style="stroke: #000000; stroke-width: 0.8"/>
      </g>
     </g>
     <g id="text_12">
      <!-- 0.08 -->
      <g transform="translate(24.934375 72.827556) scale(0.1 -0.1)">
       <use xlink:href="#DejaVuSans-30"/>
       <use xlink:href="#DejaVuSans-2e" transform="translate(63.623047 0)"/>
       <use xlink:href="#DejaVuSans-30" transform="translate(95.410156 0)"/>
       <use xlink:href="#DejaVuSans-38" transform="translate(159.033203 0)"/>
      </g>
     </g>
    </g>
    <g id="text_13">
     <!-- Normalized (human) Episodic Return -->
     <g transform="translate(18.854688 299.495469) rotate(-90) scale(0.1 -0.1)">
      <defs>
       <path id="DejaVuSans-4e" d="M 628 4666 
L 1478 4666 
L 3547 763 
L 3547 4666 
L 4159 4666 
L 4159 0 
L 3309 0 
L 1241 3903 
L 1241 0 
L 628 0 
L 628 4666 
z
" transform="scale(0.015625)"/>
       <path id="DejaVuSans-6f" d="M 1959 3097 
Q 1497 3097 1228 2736 
Q 959 2375 959 1747 
Q 959 1119 1226 758 
Q 1494 397 1959 397 
Q 2419 397 2687 759 
Q 2956 1122 2956 1747 
Q 2956 2369 2687 2733 
Q 2419 3097 1959 3097 
z
M 1959 3584 
Q 2709 3584 3137 3096 
Q 3566 2609 3566 1747 
Q 3566 888 3137 398 
Q 2709 -91 1959 -91 
Q 1206 -91 779 398 
Q 353 888 353 1747 
Q 353 2609 779 3096 
Q 1206 3584 1959 3584 
z
" transform="scale(0.015625)"/>
       <path id="DejaVuSans-72" d="M 2631 2963 
Q 2534 3019 2420 3045 
Q 2306 3072 2169 3072 
Q 1681 3072 1420 2755 
Q 1159 2438 1159 1844 
L 1159 0 
L 581 0 
L 581 3500 
L 1159 3500 
L 1159 2956 
Q 1341 3275 1631 3429 
Q 1922 3584 2338 3584 
Q 2397 3584 2469 3576 
Q 2541 3569 2628 3553 
L 2631 2963 
z
" transform="scale(0.015625)"/>
       <path id="DejaVuSans-6d" d="M 3328 2828 
Q 3544 3216 3844 3400 
Q 4144 3584 4550 3584 
Q 5097 3584 5394 3201 
Q 5691 2819 5691 2113 
L 5691 0 
L 5113 0 
L 5113 2094 
Q 5113 2597 4934 2840 
Q 4756 3084 4391 3084 
Q 3944 3084 3684 2787 
Q 3425 2491 3425 1978 
L 3425 0 
L 2847 0 
L 2847 2094 
Q 2847 2600 2669 2842 
Q 2491 3084 2119 3084 
Q 1678 3084 1418 2786 
Q 1159 2488 1159 1978 
L 1159 0 
L 581 0 
L 581 3500 
L 1159 3500 
L 1159 2956 
Q 1356 3278 1631 3431 
Q 1906 3584 2284 3584 
Q 2666 3584 2933 3390 
Q 3200 3197 3328 2828 
z
" transform="scale(0.015625)"/>
       <path id="DejaVuSans-61" d="M 2194 1759 
Q 1497 1759 1228 1600 
Q 959 1441 959 1056 
Q 959 750 1161 570 
Q 1363 391 1709 391 
Q 2188 391 2477 730 
Q 2766 1069 2766 1631 
L 2766 1759 
L 2194 1759 
z
M 3341 1997 
L 3341 0 
L 2766 0 
L 2766 531 
Q 2569 213 2275 61 
Q 1981 -91 1556 -91 
Q 1019 -91 701 211 
Q 384 513 384 1019 
Q 384 1609 779 1909 
Q 1175 2209 1959 2209 
L 2766 2209 
L 2766 2266 
Q 2766 2663 2505 2880 
Q 2244 3097 1772 3097 
Q 1472 3097 1187 3025 
Q 903 2953 641 2809 
L 641 3341 
Q 956 3463 1253 3523 
Q 1550 3584 1831 3584 
Q 2591 3584 2966 3190 
Q 3341 2797 3341 1997 
z
" transform="scale(0.015625)"/>
       <path id="DejaVuSans-6c" d="M 603 4863 
L 1178 4863 
L 1178 0 
L 603 0 
L 603 4863 
z
" transform="scale(0.015625)"/>
       <path id="DejaVuSans-69" d="M 603 3500 
L 1178 3500 
L 1178 0 
L 603 0 
L 603 3500 
z
M 603 4863 
L 1178 4863 
L 1178 4134 
L 603 4134 
L 603 4863 
z
" transform="scale(0.015625)"/>
       <path id="DejaVuSans-7a" d="M 353 3500 
L 3084 3500 
L 3084 2975 
L 922 459 
L 3084 459 
L 3084 0 
L 275 0 
L 275 525 
L 2438 3041 
L 353 3041 
L 353 3500 
z
" transform="scale(0.015625)"/>
       <path id="DejaVuSans-64" d="M 2906 2969 
L 2906 4863 
L 3481 4863 
L 3481 0 
L 2906 0 
L 2906 525 
Q 2725 213 2448 61 
Q 2172 -91 1784 -91 
Q 1150 -91 751 415 
Q 353 922 353 1747 
Q 353 2572 751 3078 
Q 1150 3584 1784 3584 
Q 2172 3584 2448 3432 
Q 2725 3281 2906 2969 
z
M 947 1747 
Q 947 1113 1208 752 
Q 1469 391 1925 391 
Q 2381 391 2643 752 
Q 2906 1113 2906 1747 
Q 2906 2381 2643 2742 
Q 2381 3103 1925 3103 
Q 1469 3103 1208 2742 
Q 947 2381 947 1747 
z
" transform="scale(0.015625)"/>
       <path id="DejaVuSans-20" transform="scale(0.015625)"/>
       <path id="DejaVuSans-28" d="M 1984 4856 
Q 1566 4138 1362 3434 
Q 1159 2731 1159 2009 
Q 1159 1288 1364 580 
Q 1569 -128 1984 -844 
L 1484 -844 
Q 1016 -109 783 600 
Q 550 1309 550 2009 
Q 550 2706 781 3412 
Q 1013 4119 1484 4856 
L 1984 4856 
z
" transform="scale(0.015625)"/>
       <path id="DejaVuSans-68" d="M 3513 2113 
L 3513 0 
L 2938 0 
L 2938 2094 
Q 2938 2591 2744 2837 
Q 2550 3084 2163 3084 
Q 1697 3084 1428 2787 
Q 1159 2491 1159 1978 
L 1159 0 
L 581 0 
L 581 4863 
L 1159 4863 
L 1159 2956 
Q 1366 3272 1645 3428 
Q 1925 3584 2291 3584 
Q 2894 3584 3203 3211 
Q 3513 2838 3513 2113 
z
" transform="scale(0.015625)"/>
       <path id="DejaVuSans-75" d="M 544 1381 
L 544 3500 
L 1119 3500 
L 1119 1403 
Q 1119 906 1312 657 
Q 1506 409 1894 409 
Q 2359 409 2629 706 
Q 2900 1003 2900 1516 
L 2900 3500 
L 3475 3500 
L 3475 0 
L 2900 0 
L 2900 538 
Q 2691 219 2414 64 
Q 2138 -91 1772 -91 
Q 1169 -91 856 284 
Q 544 659 544 1381 
z
M 1991 3584 
L 1991 3584 
z
" transform="scale(0.015625)"/>
       <path id="DejaVuSans-6e" d="M 3513 2113 
L 3513 0 
L 2938 0 
L 2938 2094 
Q 2938 2591 2744 2837 
Q 2550 3084 2163 3084 
Q 1697 3084 1428 2787 
Q 1159 2491 1159 1978 
L 1159 0 
L 581 0 
L 581 3500 
L 1159 3500 
L 1159 2956 
Q 1366 3272 1645 3428 
Q 1925 3584 2291 3584 
Q 2894 3584 3203 3211 
Q 3513 2838 3513 2113 
z
" transform="scale(0.015625)"/>
       <path id="DejaVuSans-29" d="M 513 4856 
L 1013 4856 
Q 1481 4119 1714 3412 
Q 1947 2706 1947 2009 
Q 1947 1309 1714 600 
Q 1481 -109 1013 -844 
L 513 -844 
Q 928 -128 1133 580 
Q 1338 1288 1338 2009 
Q 1338 2731 1133 3434 
Q 928 4138 513 4856 
z
" transform="scale(0.015625)"/>
       <path id="DejaVuSans-45" d="M 628 4666 
L 3578 4666 
L 3578 4134 
L 1259 4134 
L 1259 2753 
L 3481 2753 
L 3481 2222 
L 1259 2222 
L 1259 531 
L 3634 531 
L 3634 0 
L 628 0 
L 628 4666 
z
" transform="scale(0.015625)"/>
       <path id="DejaVuSans-73" d="M 2834 3397 
L 2834 2853 
Q 2591 2978 2328 3040 
Q 2066 3103 1784 3103 
Q 1356 3103 1142 2972 
Q 928 2841 928 2578 
Q 928 2378 1081 2264 
Q 1234 2150 1697 2047 
L 1894 2003 
Q 2506 1872 2764 1633 
Q 3022 1394 3022 966 
Q 3022 478 2636 193 
Q 2250 -91 1575 -91 
Q 1294 -91 989 -36 
Q 684 19 347 128 
L 347 722 
Q 666 556 975 473 
Q 1284 391 1588 391 
Q 1994 391 2212 530 
Q 2431 669 2431 922 
Q 2431 1156 2273 1281 
Q 2116 1406 1581 1522 
L 1381 1569 
Q 847 1681 609 1914 
Q 372 2147 372 2553 
Q 372 3047 722 3315 
Q 1072 3584 1716 3584 
Q 2034 3584 2315 3537 
Q 2597 3491 2834 3397 
z
" transform="scale(0.015625)"/>
       <path id="DejaVuSans-63" d="M 3122 3366 
L 3122 2828 
Q 2878 2963 2633 3030 
Q 2388 3097 2138 3097 
Q 1578 3097 1268 2742 
Q 959 2388 959 1747 
Q 959 1106 1268 751 
Q 1578 397 2138 397 
Q 2388 397 2633 464 
Q 2878 531 3122 666 
L 3122 134 
Q 2881 22 2623 -34 
Q 2366 -91 2075 -91 
Q 1284 -91 818 406 
Q 353 903 353 1747 
Q 353 2603 823 3093 
Q 1294 3584 2113 3584 
Q 2378 3584 2631 3529 
Q 2884 3475 3122 3366 
z
" transform="scale(0.015625)"/>
       <path id="DejaVuSans-52" d="M 2841 2188 
Q 3044 2119 3236 1894 
Q 3428 1669 3622 1275 
L 4263 0 
L 3584 0 
L 2988 1197 
Q 2756 1666 2539 1819 
Q 2322 1972 1947 1972 
L 1259 1972 
L 1259 0 
L 628 0 
L 628 4666 
L 2053 4666 
Q 2853 4666 3247 4331 
Q 3641 3997 3641 3322 
Q 3641 2881 3436 2590 
Q 3231 2300 2841 2188 
z
M 1259 4147 
L 1259 2491 
L 2053 2491 
Q 2509 2491 2742 2702 
Q 2975 2913 2975 3322 
Q 2975 3731 2742 3939 
Q 2509 4147 2053 4147 
L 1259 4147 
z
" transform="scale(0.015625)"/>
      </defs>
      <use xlink:href="#DejaVuSans-4e"/>
      <use xlink:href="#DejaVuSans-6f" transform="translate(74.804688 0)"/>
      <use xlink:href="#DejaVuSans-72" transform="translate(135.986328 0)"/>
      <use xlink:href="#DejaVuSans-6d" transform="translate(175.349609 0)"/>
      <use xlink:href="#DejaVuSans-61" transform="translate(272.761719 0)"/>
      <use xlink:href="#DejaVuSans-6c" transform="translate(334.041016 0)"/>
      <use xlink:href="#DejaVuSans-69" transform="translate(361.824219 0)"/>
      <use xlink:href="#DejaVuSans-7a" transform="translate(389.607422 0)"/>
      <use xlink:href="#DejaVuSans-65" transform="translate(442.097656 0)"/>
      <use xlink:href="#DejaVuSans-64" transform="translate(503.621094 0)"/>
      <use xlink:href="#DejaVuSans-20" transform="translate(567.097656 0)"/>
      <use xlink:href="#DejaVuSans-28" transform="translate(598.884766 0)"/>
      <use xlink:href="#DejaVuSans-68" transform="translate(637.898438 0)"/>
      <use xlink:href="#DejaVuSans-75" transform="translate(701.277344 0)"/>
      <use xlink:href="#DejaVuSans-6d" transform="translate(764.65625 0)"/>
      <use xlink:href="#DejaVuSans-61" transform="translate(862.068359 0)"/>
      <use xlink:href="#DejaVuSans-6e" transform="translate(923.347656 0)"/>
      <use xlink:href="#DejaVuSans-29" transform="translate(986.726562 0)"/>
      <use xlink:href="#DejaVuSans-20" transform="translate(1025.740234 0)"/>
      <use xlink:href="#DejaVuSans-45" transform="translate(1057.527344 0)"/>
      <use xlink:href="#DejaVuSans-70" transform="translate(1120.710938 0)"/>
      <use xlink:href="#DejaVuSans-69" transform="translate(1184.1875 0)"/>
      <use xlink:href="#DejaVuSans-73" transform="translate(1211.970703 0)"/>
      <use xlink:href="#DejaVuSans-6f" transform="translate(1264.070312 0)"/>
      <use xlink:href="#DejaVuSans-64" transform="translate(1325.251953 0)"/>
      <use xlink:href="#DejaVuSans-69" transform="translate(1388.728516 0)"/>
      <use xlink:href="#DejaVuSans-63" transform="translate(1416.511719 0)"/>
      <use xlink:href="#DejaVuSans-20" transform="translate(1471.492188 0)"/>
      <use xlink:href="#DejaVuSans-52" transform="translate(1503.279297 0)"/>
      <use xlink:href="#DejaVuSans-65" transform="translate(1568.261719 0)"/>
      <use xlink:href="#DejaVuSans-74" transform="translate(1629.785156 0)"/>
      <use xlink:href="#DejaVuSans-75" transform="translate(1668.994141 0)"/>
      <use xlink:href="#DejaVuSans-72" transform="translate(1732.373047 0)"/>
      <use xlink:href="#DejaVuSans-6e" transform="translate(1771.736328 0)"/>
     </g>
    </g>
   </g>
   <g id="line2d_12">
    <path d="M 97.862289 373.467273 
L 98.43879 373.08339 
L 99.015291 372.25516 
L 99.591792 371.212728 
L 100.168293 373.055193 
L 100.744794 369.173413 
L 101.321295 368.671766 
L 101.897796 368.775277 
L 102.474297 366.988419 
L 103.050798 365.915104 
L 104.203799 356.992481 
L 104.7803 355.63792 
L 105.356801 354.714595 
L 106.509803 349.608746 
L 107.086304 349.286703 
L 107.662805 344.554797 
L 109.968808 336.163464 
L 111.12181 330.89631 
L 111.698311 322.555793 
L 112.274812 316.741055 
L 113.427814 320.609216 
L 114.580816 322.246074 
L 115.733817 323.614969 
L 116.886819 324.37066 
L 117.46332 322.531744 
L 120.345825 310.312072 
L 120.922326 314.599913 
L 121.498826 322.070571 
L 122.075327 320.842542 
L 122.651828 317.971991 
L 123.228329 371.486462 
L 123.80483 370.510162 
L 124.957832 365.849435 
L 125.534333 363.9979 
L 126.687335 358.870992 
L 127.263835 356.956915 
L 127.840336 357.178038 
L 128.416837 359.088431 
L 128.993338 360.403008 
L 129.569839 359.228486 
L 130.14634 357.052272 
L 130.722841 352.089512 
L 131.299342 349.349043 
L 131.875843 350.615659 
L 132.452344 346.671054 
L 133.028844 337.585111 
L 133.605345 331.96659 
L 134.181846 328.800492 
L 135.911349 330.955499 
L 138.217353 331.468775 
L 138.793853 330.516483 
L 139.370354 319.664818 
L 139.946855 315.558342 
L 140.523356 340.190928 
L 141.099857 342.234534 
L 141.676358 343.626764 
L 143.982362 342.94908 
L 144.558862 341.405851 
L 145.711864 337.368106 
L 146.288365 335.924218 
L 148.017868 334.289775 
L 148.594369 335.311167 
L 149.17087 329.551406 
L 150.900372 307.572528 
L 151.476873 331.081472 
L 152.053374 334.692771 
L 152.629875 335.686353 
L 153.206376 332.753003 
L 153.782877 324.904261 
L 154.359378 325.415672 
L 154.935879 320.689181 
L 156.088881 309.080101 
L 156.665381 322.994669 
L 157.241882 322.772373 
L 158.971385 295.203249 
L 159.547886 288.606915 
L 160.124387 291.99368 
L 161.85389 315.227416 
L 162.43039 322.547781 
L 163.006891 324.972979 
L 165.312895 328.717839 
L 165.889396 326.260362 
L 169.348401 289.01112 
L 170.501403 299.532774 
L 171.077904 288.189691 
L 171.654405 293.3947 
L 172.230906 295.149525 
L 172.807407 299.017065 
L 173.383908 299.108233 
L 173.960408 297.382441 
L 175.11341 311.315191 
L 176.842913 322.041657 
L 177.419414 326.964889 
L 177.995915 328.969298 
L 179.148917 330.175702 
L 179.725417 329.377582 
L 180.878419 326.975286 
L 181.45492 306.119162 
L 182.031421 258.692813 
L 182.607922 247.357742 
L 183.760924 303.244092 
L 184.337425 307.231794 
L 184.913926 309.858427 
L 186.643428 326.816765 
L 187.219929 330.258592 
L 188.372931 315.910409 
L 188.949432 315.354576 
L 189.525933 315.910853 
L 190.102434 317.620821 
L 190.678935 320.157479 
L 191.255436 314.462425 
L 191.831936 293.595342 
L 194.714441 290.461896 
L 195.290942 296.818263 
L 196.443944 313.59971 
L 197.020445 312.417742 
L 197.596945 304.035951 
L 198.173446 298.352465 
L 199.902949 299.314333 
L 201.055951 262.355798 
L 203.361954 304.261001 
L 203.938455 308.212867 
L 205.667958 311.661016 
L 206.244459 315.443579 
L 207.397461 325.474822 
L 208.550463 335.409303 
L 210.279965 313.551921 
L 210.856466 310.428846 
L 211.432967 303.238174 
L 212.009468 290.963114 
L 212.585969 295.370285 
L 213.16247 253.854238 
L 213.738971 226.829747 
L 215.468473 269.802187 
L 216.044974 271.230671 
L 218.350978 295.809252 
L 220.080481 321.502466 
L 220.656981 327.666714 
L 221.233482 332.618057 
L 221.809983 330.420013 
L 222.386484 328.779709 
L 222.962985 326.78638 
L 223.539486 328.541312 
L 224.115987 324.626404 
L 224.692488 306.629833 
L 225.268989 299.442703 
L 229.880996 253.011531 
L 230.457497 255.501063 
L 231.033998 259.696335 
L 231.610499 260.428827 
L 232.186999 259.634631 
L 232.7635 260.373258 
L 233.340001 262.613262 
L 233.916502 261.878287 
L 234.493003 258.06579 
L 235.069504 252.725424 
L 236.222506 311.278842 
L 237.375508 307.315358 
L 240.834513 299.532507 
L 241.411014 304.55835 
L 241.987515 305.994463 
L 242.564016 300.138513 
L 243.140517 299.892819 
L 243.717018 318.807904 
L 244.293518 315.782532 
L 245.44652 306.307724 
L 246.023021 302.515525 
L 247.176023 299.078918 
L 247.752524 293.845396 
L 248.329025 291.79606 
L 248.905526 290.246381 
L 250.058527 311.618929 
L 250.635028 316.434536 
L 251.211529 315.960504 
L 252.364531 312.323089 
L 253.517533 295.263089 
L 255.247036 282.125246 
L 255.823536 282.124964 
L 256.976538 258.0921 
L 257.553039 260.797103 
L 258.12954 267.854892 
L 262.165046 305.574602 
L 262.741547 311.794096 
L 263.318048 313.767826 
L 263.894549 304.2325 
L 264.47105 298.717607 
L 265.047551 302.253325 
L 265.624052 324.778585 
L 266.200553 330.571241 
L 266.777054 332.649596 
L 267.353554 333.232603 
L 267.930055 328.494283 
L 269.659558 308.726402 
L 270.236059 300.429764 
L 271.389061 276.019055 
L 271.965562 271.418637 
L 272.542063 278.086555 
L 273.118563 289.769261 
L 273.695064 298.84697 
L 275.424567 315.474861 
L 276.001068 316.80122 
L 279.460073 318.225869 
L 280.036574 315.646924 
L 280.613075 313.590448 
L 281.189576 310.847518 
L 281.766077 308.745544 
L 283.49558 312.61203 
L 284.072081 307.39413 
L 284.648582 299.215399 
L 286.378084 258.374676 
L 287.531086 266.769277 
L 288.107587 276.699648 
L 288.684088 297.760796 
L 289.260589 306.101054 
L 292.719594 329.362464 
L 293.296095 326.445696 
L 293.872596 319.753844 
L 295.025598 313.969207 
L 295.602099 298.958292 
L 297.908102 226.72347 
L 298.484603 217.803673 
L 299.061104 223.76663 
L 301.367108 283.756065 
L 301.943609 288.999675 
L 302.520109 291.941948 
L 304.826113 280.990226 
L 306.555616 275.574607 
L 307.132117 273.825247 
L 307.708618 273.47453 
L 308.285118 273.688969 
L 308.861619 274.583304 
L 313.473627 301.596585 
L 314.050127 303.612844 
L 315.203129 310.762582 
L 315.77963 310.569525 
L 316.356131 303.177381 
L 316.932632 299.10662 
L 317.509133 293.855401 
L 318.662135 288.815985 
L 319.815136 295.153519 
L 320.391637 298.565356 
L 320.968138 301.037709 
L 321.544639 301.101824 
L 322.12114 299.352348 
L 322.697641 299.936176 
L 323.274142 301.143522 
L 323.850643 314.308818 
L 324.427144 300.251065 
L 325.580146 317.006818 
L 326.156646 318.41079 
L 327.309648 307.859987 
L 327.886149 310.648106 
L 328.46265 314.234599 
L 329.615652 310.091429 
L 330.768654 306.895121 
L 331.921655 303.501048 
L 332.498156 298.224437 
L 333.074657 291.847696 
L 334.227659 268.806492 
L 334.80416 279.266134 
L 335.380661 280.769101 
L 335.957162 275.416951 
L 336.533663 266.72507 
L 337.110164 261.039384 
L 338.263165 260.437719 
L 338.839666 261.090474 
L 340.569169 269.932018 
L 341.14567 247.911487 
L 342.298672 263.092798 
L 344.028174 281.497401 
L 346.334178 297.842176 
L 347.48718 300.156004 
L 348.063681 300.290103 
L 349.216682 288.445151 
L 352.099187 255.355263 
L 352.675688 256.547591 
L 353.252189 260.538854 
L 353.82869 263.577414 
L 356.711194 243.718946 
L 357.287695 250.577254 
L 357.864196 260.072692 
L 358.440697 265.96444 
L 359.017198 264.420017 
L 360.7467 247.122905 
L 361.323201 245.817869 
L 361.899702 250.0718 
L 362.476203 257.463413 
L 363.052704 258.177963 
L 363.629205 234.726202 
L 364.205706 228.706166 
L 365.358708 236.045171 
L 365.935209 242.038671 
L 367.664711 279.937374 
L 368.817713 300.378658 
L 369.394214 308.429477 
L 370.547216 311.227768 
L 371.123717 314.329356 
L 371.700218 319.442369 
L 373.42972 328.527115 
L 374.006221 327.86881 
L 375.159223 322.918736 
L 375.735724 322.16252 
L 376.312225 321.187061 
L 379.194729 311.637486 
L 379.77123 308.741133 
L 380.347731 300.061787 
L 380.924232 296.266222 
L 381.500733 294.334968 
L 382.653735 292.980944 
L 383.230236 290.100418 
L 384.959738 279.888006 
L 385.536239 279.865796 
L 387.265742 288.160958 
L 387.842243 266.226841 
L 388.418744 270.156327 
L 388.995245 275.863032 
L 389.571746 279.916717 
L 390.724747 290.100688 
L 391.301248 289.986052 
L 391.877749 304.031469 
L 393.030751 290.207925 
L 393.607252 284.412563 
L 394.760254 300.275964 
L 395.336755 304.354115 
L 395.913255 302.781655 
L 399.372261 317.711915 
L 399.948762 318.464802 
L 401.101764 310.705481 
L 401.678264 310.949083 
L 402.254765 314.716766 
L 402.831266 311.549492 
L 403.984268 257.999408 
L 404.560769 243.791702 
L 405.13727 242.93966 
L 405.713771 246.440281 
L 406.290272 247.071275 
L 410.325778 249.715653 
L 412.055281 290.489383 
L 412.631782 297.369084 
L 413.208282 300.560555 
L 414.361284 295.330015 
L 414.937785 289.184147 
L 415.514286 281.373063 
L 416.090787 276.028496 
L 416.667288 275.770438 
L 417.243789 279.028888 
L 417.82029 259.318332 
L 418.396791 259.6615 
L 418.973292 264.829811 
L 419.549792 271.867567 
L 420.126293 276.062644 
L 421.279295 272.299681 
L 421.855796 293.024387 
L 422.432297 295.535007 
L 423.585299 263.215555 
L 424.1618 277.857103 
L 425.314801 278.522796 
L 425.891302 280.718371 
L 428.197306 295.723749 
L 428.773807 298.429004 
L 431.07981 300.625362 
L 431.656311 299.409805 
L 432.232812 297.103217 
L 433.385814 300.548845 
L 433.962315 311.566813 
L 434.538816 309.689393 
L 435.115317 301.63364 
L 435.691818 286.778709 
L 436.268319 279.260722 
L 437.997821 279.782995 
L 438.574322 281.441167 
L 439.150823 284.310212 
L 440.303825 282.460019 
L 440.880326 283.45775 
L 441.456827 283.192365 
L 442.609828 271.717798 
L 443.186329 273.249168 
L 444.339331 268.106189 
L 444.915832 266.06971 
L 445.492333 267.807888 
L 446.068834 281.318305 
L 446.645335 291.691369 
L 447.221836 295.097461 
L 447.798337 296.485524 
L 448.374837 297.431865 
L 448.951338 292.657295 
L 450.10434 275.45607 
L 450.680841 283.851971 
L 451.257342 301.150038 
L 451.833843 310.373841 
L 454.716347 313.416779 
L 455.292848 313.29361 
L 457.598852 305.28306 
L 458.175353 303.539288 
L 459.904855 294.79239 
L 460.481356 296.545773 
L 461.057857 297.3906 
L 462.210859 292.848263 
L 462.78736 293.77744 
L 463.363861 297.683159 
L 463.940362 296.995546 
L 464.516863 277.808239 
L 465.093364 284.997609 
L 466.246365 309.835695 
L 466.822866 317.124142 
L 467.975868 309.073515 
L 468.552369 300.51366 
L 469.12887 296.512226 
L 469.705371 294.488373 
L 470.281872 291.337765 
L 470.858373 286.465811 
L 473.740877 268.599161 
L 474.317378 311.854004 
L 474.893879 311.135959 
L 475.47038 296.238289 
L 476.046881 277.15557 
L 476.623382 250.347219 
L 477.199883 228.839294 
L 477.776383 247.57296 
L 478.929385 225.688167 
L 479.505886 219.960086 
L 480.082387 294.482156 
L 480.658888 297.015764 
L 481.81189 297.685912 
L 482.964892 299.342625 
L 483.541392 300.249985 
L 484.117893 299.124997 
L 486.423897 282.962638 
L 487.576899 271.182922 
L 488.1534 263.799139 
L 488.729901 263.118225 
L 489.306401 265.249826 
L 490.459403 278.635068 
L 492.188906 301.683844 
L 493.341908 309.852506 
L 493.918409 311.077816 
L 494.49491 308.862812 
L 498.530416 262.994833 
L 499.683418 304.369068 
L 500.259919 306.360829 
L 500.836419 307.943372 
L 501.41292 272.448939 
L 503.142423 290.929379 
L 503.718924 293.152094 
L 504.295425 290.100271 
L 504.871926 290.298095 
L 505.448427 225.581228 
L 506.024928 287.172567 
L 506.601429 289.998253 
L 507.75443 293.019442 
L 508.330931 289.59416 
L 509.483933 272.041682 
L 510.060434 265.702179 
L 512.942938 241.441998 
L 513.519439 241.052161 
L 514.09594 262.855242 
L 514.672441 268.402842 
L 516.401944 276.570435 
L 516.978445 277.183039 
L 517.554946 277.615655 
L 518.131447 281.203262 
L 519.860949 319.649596 
L 520.43745 315.38363 
L 521.013951 309.470607 
L 521.590452 310.08617 
L 522.743454 311.723624 
L 523.319955 313.350917 
L 525.049457 319.501082 
L 526.202459 289.617461 
L 526.77896 294.488361 
L 527.355461 294.017518 
L 529.084964 279.797193 
L 530.237965 296.064501 
L 530.814466 298.387651 
L 531.390967 288.780975 
L 532.543969 248.393548 
L 533.12047 232.893559 
L 535.426474 131.629866 
L 536.002974 125.296975 
L 538.885479 169.428308 
L 540.038481 193.345416 
L 541.767983 232.866628 
L 542.344484 215.230353 
L 542.920985 214.691468 
L 544.650488 271.601361 
L 545.226989 273.368653 
L 545.80349 258.566387 
L 548.109493 222.582553 
L 549.262495 194.913619 
L 551.568499 178.570925 
L 552.145 43.251557 
L 552.721501 42.012727 
L 553.874502 214.090417 
L 555.027504 238.562619 
L 555.604005 241.065508 
L 556.757007 248.324036 
L 557.333508 250.664091 
L 557.910009 249.273677 
L 560.792513 229.283965 
L 561.369014 223.311506 
L 561.945515 232.205734 
L 562.522016 247.79918 
L 563.098517 254.041917 
L 563.675018 262.238601 
L 564.251519 279.819806 
L 564.82802 290.047599 
L 565.40452 298.093891 
L 565.981021 300.083488 
L 567.134023 298.790341 
L 568.287025 305.270101 
L 569.440027 302.969323 
L 571.74603 298.649224 
L 572.899032 297.848766 
L 573.475533 297.42307 
L 575.781537 292.878159 
L 576.358038 292.334643 
L 578.08754 301.564702 
L 578.664041 299.673271 
L 579.240542 298.459176 
L 580.393544 299.9923 
L 580.970045 298.253249 
L 581.546546 304.152222 
L 582.123047 305.35004 
L 582.699547 285.524285 
L 583.276048 273.688809 
L 583.852549 267.586206 
L 584.42905 259.860726 
L 585.582052 232.999198 
L 586.158553 228.322102 
L 587.311555 225.228694 
L 587.888056 237.283756 
L 588.464556 228.915771 
L 589.041057 235.814023 
L 589.617558 245.396507 
L 590.77056 269.899516 
L 591.923562 281.924613 
L 592.500063 284.774138 
L 595.382567 284.365575 
L 595.959068 283.660334 
L 596.535569 282.523574 
L 597.11207 284.994071 
L 598.841573 299.361056 
L 600.571075 320.560899 
L 601.147576 323.162096 
L 601.724077 319.857862 
L 602.300578 315.427468 
L 602.877079 312.629084 
L 603.45358 311.467171 
L 604.030081 302.004513 
L 606.336084 238.596261 
L 606.912585 244.10817 
L 607.489086 255.261414 
L 608.065587 262.516269 
L 608.642088 258.998567 
L 609.218589 249.092864 
L 609.79509 248.464112 
L 610.371591 251.883483 
L 612.101093 272.399639 
L 612.677594 276.607251 
L 613.254095 278.505726 
L 613.830596 280.958493 
L 614.983598 296.463448 
L 615.560099 299.900675 
L 616.713101 262.610424 
L 617.866102 222.642287 
L 619.595605 297.582685 
L 621.325108 292.689464 
L 623.054611 284.868529 
L 624.784113 280.828725 
L 625.360614 272.417145 
L 625.937115 272.590653 
L 626.513616 276.35469 
L 627.090117 285.575963 
L 627.666618 273.900545 
L 628.243119 299.91772 
L 628.81962 304.24672 
L 629.39612 306.529449 
L 629.972621 309.654893 
L 631.125623 317.6011 
L 631.702124 324.532877 
L 632.855126 327.264064 
L 633.431627 329.909272 
L 634.008128 327.102971 
L 635.73763 317.019784 
L 636.890632 305.694631 
L 640.926139 263.923843 
L 641.502639 251.644142 
L 642.655641 250.317505 
L 643.232142 250.976943 
L 644.961645 256.651709 
L 646.114647 263.716457 
L 646.691148 262.205483 
L 647.267648 263.017093 
L 647.844149 252.757668 
L 648.42065 249.907737 
L 648.997151 249.548667 
L 650.150153 258.772567 
L 651.303155 267.200558 
L 651.879656 270.40425 
L 652.456157 268.266005 
L 653.609158 257.417851 
L 654.76216 252.230281 
L 655.338661 253.317171 
L 656.491663 259.617162 
L 657.068164 245.303995 
L 657.644665 253.222455 
L 658.221166 258.532756 
L 658.797666 265.23108 
L 659.374167 274.718753 
L 663.409674 254.179473 
L 663.986175 250.236308 
L 664.562675 249.64729 
L 666.292178 295.927557 
L 666.868679 298.71122 
L 667.44518 284.343458 
L 668.021681 273.770547 
L 669.751184 291.061068 
L 670.327684 284.859635 
L 671.480686 268.648994 
L 672.057187 278.989432 
L 672.633688 293.652947 
L 673.210189 301.055509 
L 673.78669 301.543293 
L 673.78669 301.543293 
" clip-path="url(#p99b97ecb9a)" style="fill: none; stroke: #00008b; stroke-width: 1.5; stroke-linecap: square"/>
   </g>
   <g id="line2d_13">
    <path d="M 83.972727 367.934659 
L 84.568778 367.390066 
L 87.549031 349.897841 
L 88.145081 351.620008 
L 89.933233 357.664607 
L 90.529284 358.943683 
L 91.721385 360.0512 
L 92.317436 359.322859 
L 94.105587 348.070167 
L 94.701638 349.173853 
L 95.297689 351.088846 
L 96.48979 358.160378 
L 98.873992 364.54128 
L 99.470043 363.217119 
L 101.258195 365.762099 
L 102.450296 368.542561 
L 103.046346 367.958568 
L 103.642397 366.607588 
L 104.238448 362.599412 
L 105.430549 352.946518 
L 106.62265 345.09737 
L 107.218701 339.625953 
L 108.410802 326.759496 
L 110.795004 332.65394 
L 111.391055 337.618717 
L 113.775257 351.465377 
L 114.371308 354.433062 
L 114.967358 356.83531 
L 116.159459 358.958083 
L 118.543662 365.809432 
L 119.735763 364.334107 
L 120.331814 364.006058 
L 121.523915 362.753993 
L 123.312067 357.474889 
L 124.504168 356.642808 
L 125.100218 357.878524 
L 125.696269 359.425867 
L 127.484421 359.244184 
L 128.080471 358.169136 
L 129.272573 349.969097 
L 131.060724 338.514255 
L 131.656775 337.170879 
L 132.252826 337.744146 
L 132.848876 343.209291 
L 134.637028 364.266302 
L 135.233079 361.46469 
L 137.617281 332.68039 
L 138.809382 319.171873 
L 139.405433 314.349518 
L 140.597534 323.269392 
L 142.981736 342.04251 
L 144.769888 349.055818 
L 145.365939 351.263901 
L 145.961989 352.532092 
L 146.55804 351.024616 
L 147.15409 350.492653 
L 148.346192 350.464085 
L 148.942242 351.166784 
L 149.538293 352.954826 
L 150.134343 354.035835 
L 151.326445 355.355101 
L 151.922495 353.239277 
L 152.518546 350.679695 
L 153.114596 349.382113 
L 154.306698 350.000766 
L 154.902748 353.111921 
L 156.094849 360.702424 
L 156.6909 361.717581 
L 157.286951 361.142236 
L 158.479052 358.260553 
L 159.671153 354.843793 
L 162.055355 359.71318 
L 162.651406 360.23916 
L 164.439558 355.792493 
L 165.035608 353.338208 
L 165.631659 350.090462 
L 166.22771 349.610951 
L 167.419811 349.842528 
L 168.015861 350.34896 
L 170.400064 361.608218 
L 170.996114 362.634842 
L 171.592165 363.088577 
L 172.784266 364.992337 
L 173.976367 360.384321 
L 175.764519 354.059641 
L 176.36057 353.268088 
L 176.95662 352.958987 
L 178.148721 355.18363 
L 178.744772 355.614994 
L 179.340823 356.260944 
L 179.936873 355.555852 
L 181.128974 350.934649 
L 181.725025 349.678248 
L 182.321076 346.676562 
L 183.513177 333.251777 
L 184.109227 328.510526 
L 184.705278 326.867336 
L 185.301329 324.537148 
L 185.897379 324.059922 
L 187.08948 324.821636 
L 187.685531 327.246563 
L 188.281582 333.049574 
L 189.473683 340.950208 
L 190.069733 343.672672 
L 190.665784 343.976078 
L 191.857885 346.270276 
L 192.453936 347.744032 
L 193.049986 350.490895 
L 193.646037 353.839505 
L 194.242088 355.011783 
L 195.434189 355.151679 
L 196.030239 355.902254 
L 197.818391 364.419137 
L 198.414442 365.916599 
L 199.606543 362.622429 
L 201.394695 357.942981 
L 203.182846 355.356487 
L 203.778897 354.964129 
L 204.374948 355.939183 
L 206.163099 360.488607 
L 208.547302 348.173954 
L 209.143352 345.138491 
L 209.739403 342.772777 
L 210.335454 345.843327 
L 212.123605 356.98798 
L 212.719656 359.267261 
L 214.507808 358.664474 
L 215.103858 358.162518 
L 215.699909 356.992513 
L 216.89201 356.641943 
L 217.488061 356.423171 
L 218.084111 356.368159 
L 218.680162 355.69351 
L 219.276213 354.456031 
L 219.872263 353.542453 
L 220.468314 355.52398 
L 221.064364 355.200357 
L 222.256466 355.156382 
L 222.852516 354.775833 
L 223.448567 353.502797 
L 224.044617 353.576338 
L 225.832769 358.067207 
L 226.42882 358.825942 
L 227.02487 358.376998 
L 229.409073 352.658941 
L 230.005123 351.77894 
L 230.601174 351.466392 
L 232.389326 353.795273 
L 235.369579 362.656839 
L 235.965629 361.794056 
L 237.753781 352.223592 
L 239.541933 342.648041 
L 240.734034 348.702442 
L 242.522186 362.555897 
L 243.118236 362.275124 
L 244.906388 354.328284 
L 245.502439 352.157334 
L 246.098489 352.883627 
L 248.482692 367.486078 
L 249.078742 366.545407 
L 250.270844 361.077899 
L 251.462945 355.026497 
L 252.058995 354.642846 
L 253.847147 359.153456 
L 254.443198 360.360243 
L 255.039248 360.185059 
L 256.8274 357.867217 
L 258.019501 359.330588 
L 259.211603 360.132746 
L 259.807653 360.778976 
L 260.403704 360.754728 
L 261.595805 359.207299 
L 263.383957 358.146436 
L 263.980007 358.002316 
L 265.172108 359.738663 
L 265.768159 360.447382 
L 266.96026 364.004991 
L 267.556311 365.423032 
L 268.152361 365.197027 
L 268.748412 362.966498 
L 269.940513 356.977566 
L 271.132614 353.012659 
L 271.728665 355.417883 
L 272.324716 359.092508 
L 273.516817 364.776825 
L 274.112867 365.934874 
L 275.901019 363.169655 
L 277.09312 361.253601 
L 277.689171 360.936767 
L 278.881272 363.329131 
L 279.477323 364.191034 
L 280.669424 358.20804 
L 281.861525 357.068367 
L 282.457576 356.672471 
L 283.053626 358.842962 
L 283.649677 360.477906 
L 284.841778 362.153773 
L 285.437829 361.166839 
L 286.033879 359.740852 
L 287.822031 359.469264 
L 288.418082 360.539638 
L 289.014132 360.430717 
L 289.610183 360.979656 
L 290.206234 360.951486 
L 291.398335 363.933162 
L 291.994385 364.224682 
L 292.590436 363.160655 
L 293.186486 361.316113 
L 294.378588 354.505002 
L 295.570689 347.606098 
L 296.166739 348.359963 
L 297.954891 356.184743 
L 298.550942 355.699238 
L 299.743043 345.020092 
L 302.723296 322.399042 
L 303.915397 317.32483 
L 304.511448 320.124331 
L 306.2996 337.224331 
L 306.89565 343.702654 
L 307.491701 347.157339 
L 308.683802 346.615523 
L 309.875903 345.639135 
L 310.471954 340.759595 
L 311.664055 327.002481 
L 312.260106 326.121353 
L 313.452207 326.671075 
L 314.048257 331.10411 
L 314.644308 344.076143 
L 315.240359 353.587749 
L 315.836409 359.744525 
L 316.43246 362.79349 
L 317.02851 361.483704 
L 318.220612 354.046998 
L 318.816662 354.923119 
L 319.412713 356.123745 
L 320.604814 360.136915 
L 321.200865 358.44876 
L 321.796915 358.444605 
L 322.392966 356.790256 
L 322.989016 354.787358 
L 323.585067 353.531412 
L 324.181117 353.030427 
L 324.777168 351.630718 
L 325.373219 353.554587 
L 325.969269 356.127624 
L 327.757421 360.923214 
L 328.949522 361.798193 
L 330.141623 362.60642 
L 330.737674 363.710464 
L 331.333725 363.856125 
L 332.525826 361.198807 
L 333.121876 358.858659 
L 333.717927 357.501818 
L 334.313978 355.567449 
L 335.506079 350.191711 
L 336.102129 345.31944 
L 337.294231 332.379033 
L 339.082382 308.082719 
L 339.678433 309.710528 
L 340.870534 329.223771 
L 341.466585 339.997784 
L 342.062635 347.080799 
L 342.658686 346.987651 
L 345.042888 344.949371 
L 346.23499 342.055795 
L 346.83104 340.972868 
L 349.215243 358.404368 
L 349.811293 361.144484 
L 351.003394 363.860022 
L 351.599445 365.600934 
L 352.195495 365.958681 
L 352.791546 361.908851 
L 355.771799 327.119846 
L 356.36785 320.349366 
L 356.9639 315.272498 
L 357.559951 316.953869 
L 359.348103 337.086748 
L 359.944153 340.609117 
L 361.136254 346.01904 
L 362.328356 353.012446 
L 363.520457 361.599231 
L 364.116507 363.094703 
L 365.904659 360.016317 
L 366.50071 360.476872 
L 367.09676 361.332469 
L 367.692811 362.451436 
L 370.673064 342.610048 
L 371.269115 340.454896 
L 371.865165 339.902064 
L 373.057266 346.262707 
L 373.653317 347.86916 
L 374.249368 350.365168 
L 374.845418 352.314363 
L 375.441469 352.512222 
L 376.037519 353.172416 
L 377.229621 359.0207 
L 377.825671 359.686268 
L 378.421722 359.344359 
L 379.613823 355.268048 
L 380.805924 350.114315 
L 381.401975 351.125469 
L 382.594076 354.502414 
L 383.190126 355.717468 
L 383.786177 355.109778 
L 384.978278 353.25502 
L 386.170379 351.664854 
L 386.76643 351.950374 
L 388.554582 351.28512 
L 389.150632 351.73332 
L 389.746683 354.1246 
L 390.342734 357.239232 
L 390.938784 359.151363 
L 391.534835 359.856065 
L 392.130885 359.739288 
L 393.322987 353.273737 
L 393.919037 349.855731 
L 394.515088 348.683449 
L 395.111138 349.073956 
L 396.89929 365.719186 
L 397.495341 364.784563 
L 398.687442 358.394218 
L 399.283493 354.971381 
L 399.879543 352.602404 
L 400.475594 351.297602 
L 401.071644 350.274464 
L 401.667695 350.647242 
L 402.263746 351.546857 
L 403.455847 358.36956 
L 404.051897 361.29156 
L 404.647948 362.206312 
L 406.4361 358.934611 
L 407.03215 358.677898 
L 407.628201 358.955872 
L 408.224252 359.543648 
L 409.416353 362.277015 
L 410.012403 362.028613 
L 410.608454 360.512617 
L 412.396606 351.757561 
L 412.992656 350.641388 
L 413.588707 351.05515 
L 414.780808 356.38416 
L 415.972909 361.138869 
L 416.56896 362.718041 
L 417.16501 362.84653 
L 417.761061 363.182418 
L 418.357112 363.145125 
L 418.953162 361.977933 
L 420.145263 360.104582 
L 420.741314 358.214044 
L 421.337365 357.30554 
L 421.933415 357.152796 
L 422.529466 354.480519 
L 423.125516 352.762688 
L 424.317618 348.106243 
L 424.913668 345.60207 
L 425.509719 342.371326 
L 426.70182 330.278282 
L 427.893921 334.76144 
L 429.086022 339.581293 
L 430.874174 357.665935 
L 431.470225 363.550329 
L 432.066275 364.818978 
L 432.662326 363.954876 
L 434.450478 353.367471 
L 435.046528 351.335955 
L 435.642579 353.293372 
L 437.430731 362.249573 
L 438.026781 362.112832 
L 439.218883 356.546851 
L 441.603085 334.813461 
L 442.795186 325.931246 
L 444.583338 313.642587 
L 445.179388 321.498874 
L 445.775439 327.615694 
L 446.37149 335.024686 
L 447.563591 353.177665 
L 448.159641 356.895442 
L 448.755692 356.776387 
L 449.351743 355.702788 
L 449.947793 354.999643 
L 450.543844 354.486944 
L 451.139894 354.408593 
L 452.928046 355.147317 
L 453.524097 355.739989 
L 454.120147 354.484214 
L 455.908299 353.185977 
L 456.50435 353.707838 
L 457.696451 357.764003 
L 458.292502 359.62318 
L 458.888552 360.635524 
L 459.484603 361.192103 
L 460.080653 361.170563 
L 460.676704 360.192827 
L 462.464856 352.646853 
L 463.656957 351.062005 
L 464.849058 353.421534 
L 465.445109 353.733898 
L 466.041159 353.149718 
L 466.63721 351.895148 
L 467.233261 350.219709 
L 467.829311 351.290185 
L 469.021412 354.642129 
L 469.617463 355.986087 
L 470.213514 356.16898 
L 470.809564 355.625807 
L 472.001665 355.417563 
L 472.597716 355.925268 
L 474.981918 359.892292 
L 475.577969 360.457474 
L 476.174019 359.289167 
L 477.962171 354.063717 
L 478.558222 353.257916 
L 479.154272 353.960194 
L 480.942424 361.222525 
L 481.538475 360.91419 
L 482.134525 362.005117 
L 483.326627 360.489766 
L 483.922677 358.868807 
L 484.518728 355.565941 
L 486.90293 339.994203 
L 487.498981 338.603968 
L 488.095031 339.480881 
L 489.883183 346.553054 
L 490.479234 346.306955 
L 491.075284 344.389123 
L 491.671335 344.46005 
L 492.267386 346.064063 
L 492.863436 348.25972 
L 494.055537 355.384799 
L 494.651588 355.160615 
L 495.247639 354.781148 
L 495.843689 354.787011 
L 496.43974 354.090394 
L 497.03579 352.352762 
L 497.631841 346.376427 
L 498.227892 338.850548 
L 501.208145 290.961834 
L 501.804195 299.745943 
L 504.188397 347.132392 
L 504.784448 350.924671 
L 506.5726 352.744896 
L 507.16865 353.117705 
L 507.764701 355.021376 
L 509.552853 359.111262 
L 510.148903 359.803466 
L 510.744954 359.852595 
L 511.937055 361.721723 
L 512.533106 361.206764 
L 513.129156 361.104775 
L 513.725207 361.21093 
L 514.917308 358.775484 
L 516.109409 358.115329 
L 516.70546 358.675803 
L 517.301511 359.905961 
L 517.897561 360.699711 
L 519.089662 359.535431 
L 519.685713 358.173646 
L 520.281764 356.312282 
L 520.877814 355.657105 
L 521.473865 356.365855 
L 522.665966 358.317099 
L 523.262017 359.19086 
L 523.858067 359.78148 
L 524.454118 360.152248 
L 525.050168 359.991294 
L 526.24227 361.083398 
L 528.030421 356.721022 
L 529.818573 348.665353 
L 531.606725 348.330358 
L 533.394877 340.522745 
L 535.183028 335.437515 
L 536.37513 327.235086 
L 537.567231 320.467732 
L 538.163281 317.992611 
L 540.547484 357.080324 
L 541.143534 361.49087 
L 542.335636 360.51419 
L 543.527737 359.233835 
L 544.123787 359.317409 
L 545.315889 362.445568 
L 545.911939 364.517623 
L 546.50799 361.314897 
L 548.296142 347.816484 
L 548.892192 341.144996 
L 551.276395 302.858005 
L 551.872445 308.241192 
L 553.064546 323.247792 
L 554.852698 348.353033 
L 555.448749 355.217092 
L 556.64085 363.742612 
L 557.236901 365.785978 
L 557.832951 365.188817 
L 559.025052 362.536385 
L 559.621103 361.064399 
L 560.217154 360.839727 
L 560.813204 360.232972 
L 561.409255 357.237363 
L 564.985558 316.253047 
L 565.581609 313.860755 
L 566.77371 317.987465 
L 567.965811 321.820675 
L 569.157912 326.453598 
L 569.753963 329.615261 
L 570.946064 339.983512 
L 572.138165 348.906552 
L 572.734216 352.446432 
L 573.330267 352.100524 
L 573.926317 350.513467 
L 576.90657 344.434753 
L 577.502621 345.884328 
L 578.694722 350.24296 
L 579.290773 351.687374 
L 579.886823 352.304113 
L 580.482874 352.603489 
L 581.674975 352.867427 
L 582.271026 351.739182 
L 582.867076 352.344179 
L 583.463127 354.978019 
L 584.059177 357.09865 
L 584.655228 358.548016 
L 585.251279 358.103521 
L 585.847329 358.519478 
L 587.635481 371.357365 
L 588.231532 369.212974 
L 589.423633 354.424401 
L 591.807835 323.543633 
L 592.403886 322.081897 
L 594.192037 321.377499 
L 594.788088 319.596712 
L 595.384139 314.60787 
L 595.980189 312.921895 
L 598.960442 360.09169 
L 600.152543 367.23933 
L 600.748594 368.145375 
L 601.940695 362.59707 
L 603.132796 354.623694 
L 603.728847 350.192839 
L 604.324898 349.110162 
L 606.113049 357.58584 
L 606.7091 357.572672 
L 607.305151 356.074411 
L 607.901201 353.261887 
L 609.093302 345.550491 
L 609.689353 340.39065 
L 610.285404 333.601572 
L 610.881454 328.84372 
L 611.477505 329.128744 
L 612.669606 332.907844 
L 613.265657 335.426684 
L 613.861707 336.741074 
L 615.649859 333.02813 
L 616.24591 333.682019 
L 616.84196 332.161639 
L 619.226163 335.234354 
L 619.822213 332.02834 
L 620.418264 337.094113 
L 622.206416 355.308271 
L 622.802466 359.403864 
L 623.398517 358.207654 
L 623.994567 356.686412 
L 625.186668 348.820802 
L 626.37877 347.070661 
L 626.97482 347.819197 
L 628.166921 356.030029 
L 629.359023 362.290082 
L 629.955073 363.558289 
L 630.551124 363.346448 
L 632.935326 351.132405 
L 634.127427 346.638301 
L 634.723478 345.163311 
L 635.319529 342.04918 
L 635.915579 342.996005 
L 636.51163 343.126557 
L 638.299782 341.310509 
L 638.895832 341.715025 
L 639.491883 344.813033 
L 640.087933 347.261838 
L 640.683984 348.894751 
L 641.280035 348.612221 
L 641.876085 347.623802 
L 642.472136 347.374999 
L 643.068186 347.820568 
L 643.664237 349.201596 
L 644.260288 353.200694 
L 645.452389 363.545965 
L 646.048439 366.222293 
L 647.836591 364.990468 
L 648.432642 362.517643 
L 649.028692 361.694081 
L 650.220794 364.151834 
L 650.816844 366.604921 
L 651.412895 367.001015 
L 652.008945 364.989578 
L 652.604996 362.165289 
L 653.201047 358.555942 
L 654.989198 346.053211 
L 656.77735 346.018177 
L 657.373401 345.108798 
L 657.969451 343.747182 
L 659.161552 349.919034 
L 659.757603 353.197781 
L 660.353654 358.160231 
L 660.949704 364.501645 
L 662.141805 369.980574 
L 662.737856 371.511283 
L 663.333907 369.90454 
L 665.718109 359.314319 
L 668.102311 354.469405 
L 668.698362 353.564795 
L 669.294413 353.439937 
L 671.678615 355.466574 
L 672.274666 357.56376 
L 673.466767 362.999382 
L 674.658868 366.866488 
L 675.254919 365.111347 
L 677.04307 357.577833 
L 678.235172 353.463105 
L 679.427273 349.677033 
L 679.427273 349.677033 
" clip-path="url(#p99b97ecb9a)" style="fill: none; stroke: #ff8c00; stroke-width: 1.5; stroke-linecap: square"/>
   </g>
   <g id="line2d_14">
    <path d="M 84.211482 353.549863 
L 84.805549 354.774484 
L 85.993683 360.855248 
L 86.58775 362.131947 
L 87.181817 361.44627 
L 87.775884 361.569683 
L 90.152152 358.978188 
L 90.746219 354.930569 
L 92.528419 338.121799 
L 94.31062 326.490933 
L 94.904687 323.762786 
L 95.498754 321.930945 
L 96.092821 322.289645 
L 97.875022 327.057975 
L 98.469089 328.261452 
L 99.657223 320.694295 
L 101.439424 316.815648 
L 102.033491 316.859401 
L 102.627557 320.436915 
L 104.409758 343.329669 
L 105.003825 347.602551 
L 106.191959 342.032237 
L 107.97416 334.477674 
L 108.568227 334.313986 
L 110.944495 357.508601 
L 111.538562 361.110224 
L 112.726696 360.183056 
L 113.320763 359.019193 
L 114.508896 352.246798 
L 115.102963 349.852478 
L 116.291097 349.619035 
L 116.885164 352.127596 
L 117.479231 355.410954 
L 119.261432 360.679881 
L 119.855499 360.058497 
L 120.449566 355.911128 
L 121.6377 357.337616 
L 122.231767 358.098892 
L 122.825834 358.35452 
L 123.419901 354.701478 
L 125.796168 330.75896 
L 126.390235 328.171616 
L 127.578369 328.427603 
L 128.172436 334.023777 
L 128.766503 341.261714 
L 129.954637 351.077083 
L 130.548704 355.497997 
L 131.142771 357.696182 
L 131.736838 357.342971 
L 132.924972 359.768193 
L 133.519039 361.061396 
L 134.113106 360.260897 
L 134.707173 358.090614 
L 136.489373 348.376488 
L 137.08344 347.317615 
L 137.677507 348.514038 
L 140.053775 357.763573 
L 140.647842 356.555322 
L 141.835976 352.210883 
L 142.430043 351.022097 
L 143.02411 349.067372 
L 143.618177 347.889146 
L 144.212244 346.25186 
L 145.400378 339.624774 
L 145.994445 340.438396 
L 146.588512 344.074424 
L 147.776645 354.323764 
L 148.370712 358.455043 
L 148.964779 360.643031 
L 150.152913 355.24341 
L 150.74698 353.97043 
L 151.341047 354.665566 
L 151.935114 355.098791 
L 152.529181 355.7243 
L 153.123248 355.543781 
L 154.905449 350.245026 
L 155.499516 351.982733 
L 156.093583 356.891138 
L 156.68765 363.106068 
L 157.281717 366.587029 
L 157.875784 365.822538 
L 160.252051 356.326233 
L 160.846118 355.664811 
L 161.440185 355.382556 
L 162.628319 355.969772 
L 163.816453 354.727362 
L 165.004587 357.329288 
L 166.192721 358.494138 
L 166.786788 359.118027 
L 167.380855 358.739463 
L 167.974922 359.043084 
L 169.757123 363.095611 
L 170.351189 363.452792 
L 170.945256 363.394809 
L 171.539323 362.410449 
L 172.727457 358.857943 
L 173.321524 356.544038 
L 175.697792 344.462335 
L 176.291859 341.387796 
L 176.885926 339.711915 
L 177.479993 341.788905 
L 178.07406 344.271413 
L 179.262194 355.702237 
L 179.856261 357.5051 
L 181.044395 359.454771 
L 181.638461 359.373571 
L 182.232528 359.113996 
L 183.420662 360.996402 
L 185.202863 356.274616 
L 186.390997 353.148357 
L 186.985064 352.041034 
L 187.579131 351.916149 
L 188.173198 352.486888 
L 189.955399 355.908081 
L 190.549466 357.97656 
L 191.143533 359.546102 
L 191.7376 358.181775 
L 192.925733 359.121335 
L 193.5198 357.577449 
L 194.113867 356.642333 
L 195.302001 355.935868 
L 195.896068 355.471979 
L 196.490135 356.960844 
L 197.084202 358.075439 
L 197.678269 359.776399 
L 198.272336 362.326801 
L 198.866403 362.809762 
L 200.054537 363.381319 
L 200.648604 362.722324 
L 201.242671 361.581697 
L 201.836738 361.242488 
L 202.430805 361.131721 
L 203.024872 361.339297 
L 203.618939 361.769817 
L 204.213005 361.398527 
L 205.401139 359.589924 
L 205.995206 358.474694 
L 206.589273 358.371411 
L 209.559608 326.619789 
L 211.341809 305.331584 
L 211.935876 309.423689 
L 213.718077 350.592457 
L 214.312144 356.396317 
L 216.094344 359.343402 
L 217.282478 363.055605 
L 218.470612 365.883396 
L 219.064679 366.144311 
L 219.658746 365.515873 
L 220.252813 361.335009 
L 221.440947 349.493271 
L 222.035014 344.853526 
L 222.629081 341.283519 
L 223.223148 339.084949 
L 224.411282 347.65405 
L 225.005349 351.356385 
L 225.599416 353.788699 
L 226.193483 353.967035 
L 226.787549 353.920011 
L 227.975683 351.526541 
L 228.56975 350.242279 
L 230.351951 343.484249 
L 230.946018 341.181788 
L 232.728219 350.049696 
L 233.322286 352.318253 
L 234.51042 343.325978 
L 235.104487 338.233921 
L 235.698554 334.851295 
L 236.292621 336.698014 
L 237.480755 341.817064 
L 238.074821 345.841244 
L 238.668888 344.430005 
L 240.451089 339.015148 
L 241.045156 339.948269 
L 243.421424 361.30511 
L 244.015491 363.067507 
L 246.391759 356.611192 
L 249.95616 337.735913 
L 252.332428 335.686932 
L 252.926495 333.77976 
L 254.114629 321.915334 
L 254.708696 322.325119 
L 255.302763 326.727194 
L 255.89683 333.101993 
L 257.084964 348.449651 
L 257.679031 352.553851 
L 258.273098 352.034338 
L 258.867165 348.427057 
L 259.461232 343.88226 
L 261.243432 327.607874 
L 261.837499 326.206164 
L 263.6197 331.060496 
L 264.213767 333.865856 
L 264.807834 333.289658 
L 266.590035 325.447504 
L 267.778169 315.020282 
L 268.372236 315.127196 
L 268.966303 317.609795 
L 269.56037 321.044074 
L 270.154437 321.660848 
L 270.748504 316.598186 
L 271.342571 313.764155 
L 272.530704 328.052244 
L 273.718838 347.219976 
L 274.312905 352.219096 
L 274.906972 354.050288 
L 276.095106 356.424273 
L 276.689173 356.817458 
L 277.28324 358.716119 
L 277.877307 362.695764 
L 279.065441 368.470754 
L 279.659508 368.027916 
L 282.035776 358.542075 
L 282.629843 358.268944 
L 283.817976 358.703831 
L 284.412043 355.267636 
L 285.00611 350.95399 
L 285.600177 348.008825 
L 286.194244 348.510168 
L 290.94678 362.86327 
L 291.540847 358.016689 
L 293.917115 321.688492 
L 294.511181 313.859364 
L 295.105248 309.812695 
L 296.887449 342.141005 
L 297.481516 350.163065 
L 298.075583 348.442155 
L 299.263717 339.784265 
L 299.857784 340.776041 
L 300.451851 341.308359 
L 302.234052 340.322966 
L 303.422186 333.740744 
L 304.61032 326.971244 
L 305.204387 329.688129 
L 306.39252 338.558882 
L 307.580654 355.591112 
L 308.768788 365.102171 
L 309.362855 363.878942 
L 309.956922 361.466422 
L 311.739123 343.172118 
L 312.33319 338.408367 
L 312.927257 335.029214 
L 313.521324 334.910626 
L 314.115391 340.248289 
L 315.897592 359.40988 
L 316.491659 364.054853 
L 317.085725 362.935976 
L 317.679792 359.412233 
L 318.273859 354.074286 
L 318.867926 350.802868 
L 320.05606 345.455617 
L 320.650127 344.968162 
L 321.244194 347.313641 
L 321.838261 348.683505 
L 322.432328 349.58012 
L 323.026395 352.192253 
L 323.620462 353.727447 
L 324.214529 353.557942 
L 324.808596 354.795462 
L 325.402663 353.922284 
L 326.590797 351.750389 
L 327.184864 349.202596 
L 328.967064 334.552322 
L 330.155198 333.122701 
L 330.749265 332.011142 
L 331.343332 332.706845 
L 331.937399 330.880542 
L 333.125533 315.475366 
L 333.7196 307.375261 
L 334.313667 304.078047 
L 334.907734 304.982048 
L 335.501801 307.361374 
L 337.284002 325.045894 
L 337.878069 328.206059 
L 339.066203 325.051404 
L 339.660269 323.109541 
L 340.254336 321.563703 
L 341.44247 312.319962 
L 342.630604 328.808508 
L 344.412805 349.885033 
L 345.006872 349.992362 
L 345.600939 346.345668 
L 347.38314 327.642113 
L 348.571274 311.893051 
L 349.165341 312.567356 
L 350.353474 329.777151 
L 351.541608 345.882451 
L 352.135675 347.654583 
L 352.729742 347.185401 
L 353.323809 345.29623 
L 354.511943 339.927383 
L 355.10601 338.582415 
L 355.700077 338.222727 
L 356.294144 337.091063 
L 356.888211 335.427366 
L 357.482278 332.908445 
L 359.264479 318.340106 
L 359.858546 320.419133 
L 361.04668 335.271038 
L 361.640746 343.945223 
L 362.234813 349.354119 
L 362.82888 352.132448 
L 363.422947 352.440396 
L 364.017014 352.374548 
L 365.799215 335.877343 
L 366.393282 332.729674 
L 367.581416 329.070928 
L 368.175483 327.349989 
L 368.76955 326.856194 
L 369.363617 329.699078 
L 371.145818 328.730676 
L 371.739885 325.751564 
L 372.928018 317.725992 
L 373.522085 322.911381 
L 375.304286 349.613342 
L 375.898353 352.243259 
L 377.680554 354.014577 
L 378.274621 355.612772 
L 378.868688 350.792202 
L 380.056822 329.027422 
L 382.43309 275.132374 
L 383.027157 275.103612 
L 383.621224 281.21595 
L 385.403424 333.948239 
L 385.997491 338.149301 
L 387.779692 319.948756 
L 388.373759 314.794173 
L 388.967826 315.457008 
L 389.561893 318.00068 
L 390.15596 326.218068 
L 390.750027 336.575794 
L 391.344094 344.872014 
L 391.938161 350.192471 
L 392.532228 353.130598 
L 393.126295 351.745061 
L 393.720362 349.142281 
L 395.502562 342.948414 
L 396.690696 330.798177 
L 397.284763 326.442484 
L 398.472897 334.755081 
L 399.066964 332.378837 
L 399.661031 326.527698 
L 402.631366 279.101907 
L 403.225433 276.205484 
L 406.195768 334.673165 
L 406.789834 334.881756 
L 407.383901 334.870771 
L 407.977968 338.391171 
L 408.572035 340.124385 
L 409.166102 338.707954 
L 409.760169 338.249237 
L 410.354236 336.026887 
L 412.730504 316.484117 
L 413.918638 310.201472 
L 414.512705 311.775124 
L 415.106772 313.834545 
L 416.888973 314.479852 
L 418.671173 306.253235 
L 419.859307 291.850295 
L 420.453374 293.594173 
L 421.047441 294.51711 
L 421.641508 294.337478 
L 423.423709 289.267053 
L 424.017776 286.723439 
L 424.611843 285.118706 
L 425.20591 286.531394 
L 426.394044 298.423457 
L 427.582178 310.739011 
L 428.176245 315.750696 
L 429.364378 321.957036 
L 430.552512 326.736279 
L 431.146579 328.744648 
L 431.740646 329.357138 
L 432.334713 328.458079 
L 432.92878 327.043506 
L 433.522847 326.149226 
L 434.116914 326.837171 
L 434.710981 324.985143 
L 435.899115 317.504605 
L 437.681316 300.030196 
L 438.275383 297.540277 
L 440.057584 299.547502 
L 440.65165 297.964597 
L 441.245717 295.713072 
L 441.839784 294.586915 
L 442.433851 299.097989 
L 444.216052 330.809033 
L 444.810119 337.791443 
L 445.998253 337.928817 
L 446.59232 336.763159 
L 447.186387 334.616848 
L 447.780454 334.703699 
L 448.968588 342.256929 
L 449.562655 340.260687 
L 450.156722 337.481757 
L 450.750789 334.117013 
L 452.532989 306.565335 
L 453.127056 299.197655 
L 453.721123 304.551868 
L 455.503324 329.231143 
L 456.097391 333.799115 
L 458.473659 345.67959 
L 459.661793 347.714852 
L 460.25586 347.25471 
L 461.443994 341.594253 
L 462.632128 331.915655 
L 464.414328 314.878569 
L 465.008395 314.802371 
L 466.196529 323.079653 
L 466.790596 328.364073 
L 467.384663 330.008574 
L 469.760931 301.011994 
L 470.354998 293.510171 
L 470.949065 288.63975 
L 471.543132 286.689752 
L 472.137199 287.585136 
L 473.325333 290.315604 
L 474.513466 284.989923 
L 476.295667 293.255001 
L 477.483801 304.907535 
L 478.077868 308.591882 
L 479.266002 311.284099 
L 479.860069 311.878729 
L 481.048203 302.85903 
L 481.64227 296.555447 
L 482.830404 279.003971 
L 484.018538 260.606464 
L 484.612605 261.134492 
L 485.206672 264.698646 
L 485.800738 275.422604 
L 487.582939 318.378632 
L 488.177006 319.257106 
L 489.959207 305.537695 
L 491.147341 293.654014 
L 491.741408 286.783296 
L 492.335475 284.08208 
L 494.117676 301.886421 
L 494.711743 306.669228 
L 495.30581 303.297164 
L 495.899877 301.776685 
L 496.493944 303.061004 
L 497.08801 307.824225 
L 497.682077 314.931031 
L 498.276144 318.571364 
L 498.870211 321.228815 
L 499.464278 324.608387 
L 500.058345 326.506902 
L 500.652412 324.480901 
L 501.246479 322.898596 
L 502.434613 322.24996 
L 503.02868 322.367122 
L 504.216814 322.992372 
L 504.810881 322.632054 
L 505.404948 321.544129 
L 505.999015 322.780185 
L 506.593082 322.608413 
L 508.375282 321.341777 
L 508.969349 318.141352 
L 511.345617 321.561239 
L 511.939684 319.597442 
L 512.533751 310.891657 
L 514.910019 285.841464 
L 515.504086 286.739018 
L 517.286287 324.443424 
L 517.880354 320.90926 
L 518.474421 319.572717 
L 519.662554 319.514328 
L 520.256621 319.285469 
L 520.850688 318.541301 
L 521.444755 316.509839 
L 522.632889 334.969321 
L 523.821023 350.510328 
L 524.41509 348.778725 
L 525.603224 328.402522 
L 527.979492 272.929775 
L 528.573559 264.252466 
L 529.167626 261.140837 
L 529.761693 260.516524 
L 530.35576 265.960905 
L 530.949826 274.036721 
L 532.13796 284.100601 
L 532.732027 286.402445 
L 533.326094 283.733294 
L 533.920161 279.079105 
L 534.514228 275.613603 
L 535.108295 274.429032 
L 536.890496 285.316812 
L 538.07863 295.415008 
L 538.672697 295.555402 
L 539.266764 305.706967 
L 539.860831 312.976663 
L 541.048965 318.423618 
L 541.643032 315.619942 
L 543.425232 316.331032 
L 544.019299 320.746744 
L 544.613366 321.588454 
L 545.207433 320.308645 
L 545.8015 316.326842 
L 546.395567 310.703867 
L 548.177768 287.898198 
L 548.771835 282.816187 
L 549.365902 284.071902 
L 550.554036 310.731728 
L 551.74217 332.045938 
L 552.336237 333.688365 
L 552.930304 330.332952 
L 553.52437 324.501727 
L 555.306571 298.427127 
L 556.494705 279.551421 
L 558.276906 263.188745 
L 558.870973 271.168701 
L 559.46504 284.540257 
L 561.247241 333.508954 
L 561.841308 345.354317 
L 562.435375 328.761384 
L 565.999776 202.739578 
L 566.593843 188.324633 
L 567.18791 180.155935 
L 568.970111 264.240061 
L 569.564178 289.401884 
L 570.752312 324.433978 
L 572.534513 314.855478 
L 573.12858 307.363012 
L 574.316714 279.506027 
L 574.910781 274.851553 
L 576.692981 264.628179 
L 577.287048 263.742064 
L 577.881115 275.8012 
L 578.475182 283.533291 
L 579.663316 292.035536 
L 582.039584 258.637776 
L 582.633651 249.947216 
L 585.009919 313.702113 
L 585.603986 320.462166 
L 586.198053 314.936686 
L 586.79212 312.687043 
L 587.386186 318.412629 
L 588.57432 335.325102 
L 589.168387 336.944374 
L 589.762454 337.031791 
L 590.356521 325.169425 
L 593.326856 237.767074 
L 593.920923 241.031326 
L 594.51499 249.969338 
L 595.109057 268.508112 
L 595.703124 292.638804 
L 596.297191 307.267174 
L 596.891258 317.51604 
L 597.485325 324.910496 
L 598.079392 324.453126 
L 598.673458 321.99435 
L 599.267525 318.279832 
L 600.455659 295.871203 
L 602.23786 259.062443 
L 602.831927 252.330661 
L 603.425994 249.822936 
L 605.208195 268.435548 
L 605.802262 278.125528 
L 606.990396 308.103151 
L 607.584463 321.564279 
L 608.17853 329.888603 
L 608.772597 330.156777 
L 609.366664 328.121 
L 611.148864 316.760418 
L 611.742931 310.707256 
L 613.525132 304.114725 
L 614.119199 305.141425 
L 614.713266 308.424234 
L 615.307333 308.297456 
L 615.9014 306.245413 
L 616.495467 303.338959 
L 617.089534 299.584472 
L 618.277668 302.515097 
L 618.871735 308.132674 
L 620.059869 323.2521 
L 621.248002 333.541824 
L 621.842069 330.973836 
L 623.030203 320.423705 
L 623.62427 313.211681 
L 624.812404 289.633584 
L 625.406471 281.792329 
L 626.594605 287.308269 
L 628.376806 298.000214 
L 628.970873 302.976968 
L 630.159007 323.254023 
L 630.753074 328.954284 
L 631.347141 332.43051 
L 633.129341 302.485686 
L 634.317475 279.023778 
L 634.911542 275.66163 
L 635.505609 274.749634 
L 636.693743 303.693836 
L 637.881877 334.067574 
L 638.475944 330.260797 
L 639.070011 325.614038 
L 640.258145 314.671333 
L 643.22848 281.519634 
L 643.822546 280.407082 
L 644.416613 283.822195 
L 645.604747 299.945951 
L 647.981015 309.324671 
L 648.575082 312.776829 
L 650.357283 338.013369 
L 650.95135 344.210911 
L 651.545417 346.840866 
L 652.139484 346.25179 
L 653.327618 333.234341 
L 654.515752 319.14953 
L 655.109818 318.882347 
L 656.892019 329.891491 
L 657.486086 333.667558 
L 658.080153 333.30847 
L 660.456421 299.749856 
L 661.050488 287.240543 
L 661.644555 269.200728 
L 662.238622 255.149205 
L 662.832689 251.343285 
L 663.426756 248.445776 
L 664.61489 254.389616 
L 665.208957 254.81652 
L 665.803024 254.146186 
L 666.39709 260.604823 
L 668.773358 304.733177 
L 669.367425 304.726548 
L 669.961492 308.345343 
L 670.555559 310.819243 
L 671.743693 308.401305 
L 672.33776 306.622179 
L 672.931827 306.469085 
L 673.525894 308.780033 
L 674.714028 311.187428 
L 676.496229 324.118141 
L 677.684362 328.653101 
L 677.684362 328.653101 
" clip-path="url(#p99b97ecb9a)" style="fill: none; stroke: #8b0000; stroke-width: 1.5; stroke-linecap: square"/>
   </g>
   <g id="patch_3">
    <path d="M 54.2 390.04 
L 54.2 25.44 
" style="fill: none; stroke: #000000; stroke-width: 0.8; stroke-linejoin: miter; stroke-linecap: square"/>
   </g>
   <g id="patch_4">
    <path d="M 709.2 390.04 
L 709.2 25.44 
" style="fill: none; stroke: #000000; stroke-width: 0.8; stroke-linejoin: miter; stroke-linecap: square"/>
   </g>
   <g id="patch_5">
    <path d="M 54.2 390.04 
L 709.2 390.04 
" style="fill: none; stroke: #000000; stroke-width: 0.8; stroke-linejoin: miter; stroke-linecap: square"/>
   </g>
   <g id="patch_6">
    <path d="M 54.2 25.44 
L 709.2 25.44 
" style="fill: none; stroke: #000000; stroke-width: 0.8; stroke-linejoin: miter; stroke-linecap: square"/>
   </g>
   <g id="text_14">
    <!-- Policy Algorithms Comparison on MsPacmanNoFrameskip-v4 -->
    <g transform="translate(200.651875 19.44) scale(0.12 -0.12)">
     <defs>
      <path id="DejaVuSans-50" d="M 1259 4147 
L 1259 2394 
L 2053 2394 
Q 2494 2394 2734 2622 
Q 2975 2850 2975 3272 
Q 2975 3691 2734 3919 
Q 2494 4147 2053 4147 
L 1259 4147 
z
M 628 4666 
L 2053 4666 
Q 2838 4666 3239 4311 
Q 3641 3956 3641 3272 
Q 3641 2581 3239 2228 
Q 2838 1875 2053 1875 
L 1259 1875 
L 1259 0 
L 628 0 
L 628 4666 
z
" transform="scale(0.015625)"/>
      <path id="DejaVuSans-79" d="M 2059 -325 
Q 1816 -950 1584 -1140 
Q 1353 -1331 966 -1331 
L 506 -1331 
L 506 -850 
L 844 -850 
Q 1081 -850 1212 -737 
Q 1344 -625 1503 -206 
L 1606 56 
L 191 3500 
L 800 3500 
L 1894 763 
L 2988 3500 
L 3597 3500 
L 2059 -325 
z
" transform="scale(0.015625)"/>
      <path id="DejaVuSans-41" d="M 2188 4044 
L 1331 1722 
L 3047 1722 
L 2188 4044 
z
M 1831 4666 
L 2547 4666 
L 4325 0 
L 3669 0 
L 3244 1197 
L 1141 1197 
L 716 0 
L 50 0 
L 1831 4666 
z
" transform="scale(0.015625)"/>
      <path id="DejaVuSans-67" d="M 2906 1791 
Q 2906 2416 2648 2759 
Q 2391 3103 1925 3103 
Q 1463 3103 1205 2759 
Q 947 2416 947 1791 
Q 947 1169 1205 825 
Q 1463 481 1925 481 
Q 2391 481 2648 825 
Q 2906 1169 2906 1791 
z
M 3481 434 
Q 3481 -459 3084 -895 
Q 2688 -1331 1869 -1331 
Q 1566 -1331 1297 -1286 
Q 1028 -1241 775 -1147 
L 775 -588 
Q 1028 -725 1275 -790 
Q 1522 -856 1778 -856 
Q 2344 -856 2625 -561 
Q 2906 -266 2906 331 
L 2906 616 
Q 2728 306 2450 153 
Q 2172 0 1784 0 
Q 1141 0 747 490 
Q 353 981 353 1791 
Q 353 2603 747 3093 
Q 1141 3584 1784 3584 
Q 2172 3584 2450 3431 
Q 2728 3278 2906 2969 
L 2906 3500 
L 3481 3500 
L 3481 434 
z
" transform="scale(0.015625)"/>
      <path id="DejaVuSans-43" d="M 4122 4306 
L 4122 3641 
Q 3803 3938 3442 4084 
Q 3081 4231 2675 4231 
Q 1875 4231 1450 3742 
Q 1025 3253 1025 2328 
Q 1025 1406 1450 917 
Q 1875 428 2675 428 
Q 3081 428 3442 575 
Q 3803 722 4122 1019 
L 4122 359 
Q 3791 134 3420 21 
Q 3050 -91 2638 -91 
Q 1578 -91 968 557 
Q 359 1206 359 2328 
Q 359 3453 968 4101 
Q 1578 4750 2638 4750 
Q 3056 4750 3426 4639 
Q 3797 4528 4122 4306 
z
" transform="scale(0.015625)"/>
      <path id="DejaVuSans-4d" d="M 628 4666 
L 1569 4666 
L 2759 1491 
L 3956 4666 
L 4897 4666 
L 4897 0 
L 4281 0 
L 4281 4097 
L 3078 897 
L 2444 897 
L 1241 4097 
L 1241 0 
L 628 0 
L 628 4666 
z
" transform="scale(0.015625)"/>
      <path id="DejaVuSans-46" d="M 628 4666 
L 3309 4666 
L 3309 4134 
L 1259 4134 
L 1259 2759 
L 3109 2759 
L 3109 2228 
L 1259 2228 
L 1259 0 
L 628 0 
L 628 4666 
z
" transform="scale(0.015625)"/>
      <path id="DejaVuSans-6b" d="M 581 4863 
L 1159 4863 
L 1159 1991 
L 2875 3500 
L 3609 3500 
L 1753 1863 
L 3688 0 
L 2938 0 
L 1159 1709 
L 1159 0 
L 581 0 
L 581 4863 
z
" transform="scale(0.015625)"/>
      <path id="DejaVuSans-2d" d="M 313 2009 
L 1997 2009 
L 1997 1497 
L 313 1497 
L 313 2009 
z
" transform="scale(0.015625)"/>
      <path id="DejaVuSans-76" d="M 191 3500 
L 800 3500 
L 1894 563 
L 2988 3500 
L 3597 3500 
L 2284 0 
L 1503 0 
L 191 3500 
z
" transform="scale(0.015625)"/>
     </defs>
     <use xlink:href="#DejaVuSans-50"/>
     <use xlink:href="#DejaVuSans-6f" transform="translate(56.677734 0)"/>
     <use xlink:href="#DejaVuSans-6c" transform="translate(117.859375 0)"/>
     <use xlink:href="#DejaVuSans-69" transform="translate(145.642578 0)"/>
     <use xlink:href="#DejaVuSans-63" transform="translate(173.425781 0)"/>
     <use xlink:href="#DejaVuSans-79" transform="translate(228.40625 0)"/>
     <use xlink:href="#DejaVuSans-20" transform="translate(287.585938 0)"/>
     <use xlink:href="#DejaVuSans-41" transform="translate(319.373047 0)"/>
     <use xlink:href="#DejaVuSans-6c" transform="translate(387.78125 0)"/>
     <use xlink:href="#DejaVuSans-67" transform="translate(415.564453 0)"/>
     <use xlink:href="#DejaVuSans-6f" transform="translate(479.041016 0)"/>
     <use xlink:href="#DejaVuSans-72" transform="translate(540.222656 0)"/>
     <use xlink:href="#DejaVuSans-69" transform="translate(581.335938 0)"/>
     <use xlink:href="#DejaVuSans-74" transform="translate(609.119141 0)"/>
     <use xlink:href="#DejaVuSans-68" transform="translate(648.328125 0)"/>
     <use xlink:href="#DejaVuSans-6d" transform="translate(711.707031 0)"/>
     <use xlink:href="#DejaVuSans-73" transform="translate(809.119141 0)"/>
     <use xlink:href="#DejaVuSans-20" transform="translate(861.21875 0)"/>
     <use xlink:href="#DejaVuSans-43" transform="translate(893.005859 0)"/>
     <use xlink:href="#DejaVuSans-6f" transform="translate(962.830078 0)"/>
     <use xlink:href="#DejaVuSans-6d" transform="translate(1024.011719 0)"/>
     <use xlink:href="#DejaVuSans-70" transform="translate(1121.423828 0)"/>
     <use xlink:href="#DejaVuSans-61" transform="translate(1184.900391 0)"/>
     <use xlink:href="#DejaVuSans-72" transform="translate(1246.179688 0)"/>
     <use xlink:href="#DejaVuSans-69" transform="translate(1287.292969 0)"/>
     <use xlink:href="#DejaVuSans-73" transform="translate(1315.076172 0)"/>
     <use xlink:href="#DejaVuSans-6f" transform="translate(1367.175781 0)"/>
     <use xlink:href="#DejaVuSans-6e" transform="translate(1428.357422 0)"/>
     <use xlink:href="#DejaVuSans-20" transform="translate(1491.736328 0)"/>
     <use xlink:href="#DejaVuSans-6f" transform="translate(1523.523438 0)"/>
     <use xlink:href="#DejaVuSans-6e" transform="translate(1584.705078 0)"/>
     <use xlink:href="#DejaVuSans-20" transform="translate(1648.083984 0)"/>
     <use xlink:href="#DejaVuSans-4d" transform="translate(1679.871094 0)"/>
     <use xlink:href="#DejaVuSans-73" transform="translate(1766.150391 0)"/>
     <use xlink:href="#DejaVuSans-50" transform="translate(1818.25 0)"/>
     <use xlink:href="#DejaVuSans-61" transform="translate(1874.052734 0)"/>
     <use xlink:href="#DejaVuSans-63" transform="translate(1935.332031 0)"/>
     <use xlink:href="#DejaVuSans-6d" transform="translate(1990.3125 0)"/>
     <use xlink:href="#DejaVuSans-61" transform="translate(2087.724609 0)"/>
     <use xlink:href="#DejaVuSans-6e" transform="translate(2149.003906 0)"/>
     <use xlink:href="#DejaVuSans-4e" transform="translate(2212.382812 0)"/>
     <use xlink:href="#DejaVuSans-6f" transform="translate(2287.1875 0)"/>
     <use xlink:href="#DejaVuSans-46" transform="translate(2348.369141 0)"/>
     <use xlink:href="#DejaVuSans-72" transform="translate(2398.638672 0)"/>
     <use xlink:href="#DejaVuSans-61" transform="translate(2439.751953 0)"/>
     <use xlink:href="#DejaVuSans-6d" transform="translate(2501.03125 0)"/>
     <use xlink:href="#DejaVuSans-65" transform="translate(2598.443359 0)"/>
     <use xlink:href="#DejaVuSans-73" transform="translate(2659.966797 0)"/>
     <use xlink:href="#DejaVuSans-6b" transform="translate(2712.066406 0)"/>
     <use xlink:href="#DejaVuSans-69" transform="translate(2769.976562 0)"/>
     <use xlink:href="#DejaVuSans-70" transform="translate(2797.759766 0)"/>
     <use xlink:href="#DejaVuSans-2d" transform="translate(2861.236328 0)"/>
     <use xlink:href="#DejaVuSans-76" transform="translate(2894.695312 0)"/>
     <use xlink:href="#DejaVuSans-34" transform="translate(2953.875 0)"/>
    </g>
   </g>
   <g id="legend_1">
    <g id="patch_7">
     <path d="M 597.803125 92.986875 
L 702.2 92.986875 
Q 704.2 92.986875 704.2 90.986875 
L 704.2 32.44 
Q 704.2 30.44 702.2 30.44 
L 597.803125 30.44 
Q 595.803125 30.44 595.803125 32.44 
L 595.803125 90.986875 
Q 595.803125 92.986875 597.803125 92.986875 
z
" style="fill: #ffffff; opacity: 0.8; stroke: #cccccc; stroke-linejoin: miter"/>
    </g>
    <g id="text_15">
     <!-- Algorithm -->
     <g transform="translate(625.514844 42.038437) scale(0.1 -0.1)">
      <use xlink:href="#DejaVuSans-41"/>
      <use xlink:href="#DejaVuSans-6c" transform="translate(68.408203 0)"/>
      <use xlink:href="#DejaVuSans-67" transform="translate(96.191406 0)"/>
      <use xlink:href="#DejaVuSans-6f" transform="translate(159.667969 0)"/>
      <use xlink:href="#DejaVuSans-72" transform="translate(220.849609 0)"/>
      <use xlink:href="#DejaVuSans-69" transform="translate(261.962891 0)"/>
      <use xlink:href="#DejaVuSans-74" transform="translate(289.746094 0)"/>
      <use xlink:href="#DejaVuSans-68" transform="translate(328.955078 0)"/>
      <use xlink:href="#DejaVuSans-6d" transform="translate(392.333984 0)"/>
     </g>
    </g>
    <g id="line2d_15">
     <path d="M 599.803125 53.216563 
L 609.803125 53.216563 
L 619.803125 53.216563 
" style="fill: none; stroke: #00008b; stroke-width: 1.5; stroke-linecap: square"/>
    </g>
    <g id="text_16">
     <!-- ppo_atari -->
     <g transform="translate(627.803125 56.716563) scale(0.1 -0.1)">
      <defs>
       <path id="DejaVuSans-5f" d="M 3263 -1063 
L 3263 -1509 
L -63 -1509 
L -63 -1063 
L 3263 -1063 
z
" transform="scale(0.015625)"/>
      </defs>
      <use xlink:href="#DejaVuSans-70"/>
      <use xlink:href="#DejaVuSans-70" transform="translate(63.476562 0)"/>
      <use xlink:href="#DejaVuSans-6f" transform="translate(126.953125 0)"/>
      <use xlink:href="#DejaVuSans-5f" transform="translate(188.134766 0)"/>
      <use xlink:href="#DejaVuSans-61" transform="translate(238.134766 0)"/>
      <use xlink:href="#DejaVuSans-74" transform="translate(299.414062 0)"/>
      <use xlink:href="#DejaVuSans-61" transform="translate(338.623047 0)"/>
      <use xlink:href="#DejaVuSans-72" transform="translate(399.902344 0)"/>
      <use xlink:href="#DejaVuSans-69" transform="translate(441.015625 0)"/>
     </g>
    </g>
    <g id="line2d_16">
     <path d="M 599.803125 68.172813 
L 609.803125 68.172813 
L 619.803125 68.172813 
" style="fill: none; stroke: #ff8c00; stroke-width: 1.5; stroke-linecap: square"/>
    </g>
    <g id="text_17">
     <!-- reinforce_atari -->
     <g transform="translate(627.803125 71.672813) scale(0.1 -0.1)">
      <defs>
       <path id="DejaVuSans-66" d="M 2375 4863 
L 2375 4384 
L 1825 4384 
Q 1516 4384 1395 4259 
Q 1275 4134 1275 3809 
L 1275 3500 
L 2222 3500 
L 2222 3053 
L 1275 3053 
L 1275 0 
L 697 0 
L 697 3053 
L 147 3053 
L 147 3500 
L 697 3500 
L 697 3744 
Q 697 4328 969 4595 
Q 1241 4863 1831 4863 
L 2375 4863 
z
" transform="scale(0.015625)"/>
      </defs>
      <use xlink:href="#DejaVuSans-72"/>
      <use xlink:href="#DejaVuSans-65" transform="translate(38.863281 0)"/>
      <use xlink:href="#DejaVuSans-69" transform="translate(100.386719 0)"/>
      <use xlink:href="#DejaVuSans-6e" transform="translate(128.169922 0)"/>
      <use xlink:href="#DejaVuSans-66" transform="translate(191.548828 0)"/>
      <use xlink:href="#DejaVuSans-6f" transform="translate(226.753906 0)"/>
      <use xlink:href="#DejaVuSans-72" transform="translate(287.935547 0)"/>
      <use xlink:href="#DejaVuSans-63" transform="translate(326.798828 0)"/>
      <use xlink:href="#DejaVuSans-65" transform="translate(381.779297 0)"/>
      <use xlink:href="#DejaVuSans-5f" transform="translate(443.302734 0)"/>
      <use xlink:href="#DejaVuSans-61" transform="translate(493.302734 0)"/>
      <use xlink:href="#DejaVuSans-74" transform="translate(554.582031 0)"/>
      <use xlink:href="#DejaVuSans-61" transform="translate(593.791016 0)"/>
      <use xlink:href="#DejaVuSans-72" transform="translate(655.070312 0)"/>
      <use xlink:href="#DejaVuSans-69" transform="translate(696.183594 0)"/>
     </g>
    </g>
    <g id="line2d_17">
     <path d="M 599.803125 83.129063 
L 609.803125 83.129063 
L 619.803125 83.129063 
" style="fill: none; stroke: #8b0000; stroke-width: 1.5; stroke-linecap: square"/>
    </g>
    <g id="text_18">
     <!-- sac_atari -->
     <g transform="translate(627.803125 86.629063) scale(0.1 -0.1)">
      <use xlink:href="#DejaVuSans-73"/>
      <use xlink:href="#DejaVuSans-61" transform="translate(52.099609 0)"/>
      <use xlink:href="#DejaVuSans-63" transform="translate(113.378906 0)"/>
      <use xlink:href="#DejaVuSans-5f" transform="translate(168.359375 0)"/>
      <use xlink:href="#DejaVuSans-61" transform="translate(218.359375 0)"/>
      <use xlink:href="#DejaVuSans-74" transform="translate(279.638672 0)"/>
      <use xlink:href="#DejaVuSans-61" transform="translate(318.847656 0)"/>
      <use xlink:href="#DejaVuSans-72" transform="translate(380.126953 0)"/>
      <use xlink:href="#DejaVuSans-69" transform="translate(421.240234 0)"/>
     </g>
    </g>
   </g>
  </g>
 </g>
 <defs>
  <clipPath id="p99b97ecb9a">
   <rect x="54.2" y="25.44" width="655" height="364.6"/>
  </clipPath>
 </defs>
</svg>
