<?xml version="1.0" encoding="utf-8" standalone="no"?>
<!DOCTYPE svg PUBLIC "-//W3C//DTD SVG 1.1//EN"
  "http://www.w3.org/Graphics/SVG/1.1/DTD/svg11.dtd">
<svg xmlns:xlink="http://www.w3.org/1999/xlink" width="720pt" height="432pt" viewBox="0 0 720 432" xmlns="http://www.w3.org/2000/svg" version="1.1">
 <metadata>
  <rdf:RDF xmlns:dc="http://purl.org/dc/elements/1.1/" xmlns:cc="http://creativecommons.org/ns#" xmlns:rdf="http://www.w3.org/1999/02/22-rdf-syntax-ns#">
   <cc:Work>
    <dc:type rdf:resource="http://purl.org/dc/dcmitype/StillImage"/>
    <dc:date>2025-02-09T22:58:05.737507</dc:date>
    <dc:format>image/svg+xml</dc:format>
    <dc:creator>
     <cc:Agent>
      <dc:title>Matplotlib v3.10.0, https://matplotlib.org/</dc:title>
     </cc:Agent>
    </dc:creator>
   </cc:Work>
  </rdf:RDF>
 </metadata>
 <defs>
  <style type="text/css">*{stroke-linejoin: round; stroke-linecap: butt}</style>
 </defs>
 <g id="figure_1">
  <g id="patch_1">
   <path d="M 0 432 
L 720 432 
L 720 0 
L 0 0 
z
" style="fill: #ffffff"/>
  </g>
  <g id="axes_1">
   <g id="patch_2">
    <path d="M 54.2 390.04 
L 709.2 390.04 
L 709.2 25.44 
L 54.2 25.44 
z
" style="fill: #ffffff"/>
   </g>
   <g id="matplotlib.axis_1">
    <g id="xtick_1">
     <g id="line2d_1">
      <defs>
       <path id="m9b2e8858c0" d="M 0 0 
L 0 3.5 
" style="stroke: #000000; stroke-width: 0.8"/>
      </defs>
      <g>
       <use xlink:href="#m9b2e8858c0" x="80.772195" y="390.04" style="stroke: #000000; stroke-width: 0.8"/>
      </g>
     </g>
     <g id="text_1">
      <!-- 0 -->
      <g transform="translate(77.590945 404.638438) scale(0.1 -0.1)">
       <defs>
        <path id="DejaVuSans-30" d="M 2034 4250 
Q 1547 4250 1301 3770 
Q 1056 3291 1056 2328 
Q 1056 1369 1301 889 
Q 1547 409 2034 409 
Q 2525 409 2770 889 
Q 3016 1369 3016 2328 
Q 3016 3291 2770 3770 
Q 2525 4250 2034 4250 
z
M 2034 4750 
Q 2819 4750 3233 4129 
Q 3647 3509 3647 2328 
Q 3647 1150 3233 529 
Q 2819 -91 2034 -91 
Q 1250 -91 836 529 
Q 422 1150 422 2328 
Q 422 3509 836 4129 
Q 1250 4750 2034 4750 
z
" transform="scale(0.015625)"/>
       </defs>
       <use xlink:href="#DejaVuSans-30"/>
      </g>
     </g>
    </g>
    <g id="xtick_2">
     <g id="line2d_2">
      <g>
       <use xlink:href="#m9b2e8858c0" x="200.418262" y="390.04" style="stroke: #000000; stroke-width: 0.8"/>
      </g>
     </g>
     <g id="text_2">
      <!-- 20000 -->
      <g transform="translate(184.512012 404.638438) scale(0.1 -0.1)">
       <defs>
        <path id="DejaVuSans-32" d="M 1228 531 
L 3431 531 
L 3431 0 
L 469 0 
L 469 531 
Q 828 903 1448 1529 
Q 2069 2156 2228 2338 
Q 2531 2678 2651 2914 
Q 2772 3150 2772 3378 
Q 2772 3750 2511 3984 
Q 2250 4219 1831 4219 
Q 1534 4219 1204 4116 
Q 875 4013 500 3803 
L 500 4441 
Q 881 4594 1212 4672 
Q 1544 4750 1819 4750 
Q 2544 4750 2975 4387 
Q 3406 4025 3406 3419 
Q 3406 3131 3298 2873 
Q 3191 2616 2906 2266 
Q 2828 2175 2409 1742 
Q 1991 1309 1228 531 
z
" transform="scale(0.015625)"/>
       </defs>
       <use xlink:href="#DejaVuSans-32"/>
       <use xlink:href="#DejaVuSans-30" transform="translate(63.623047 0)"/>
       <use xlink:href="#DejaVuSans-30" transform="translate(127.246094 0)"/>
       <use xlink:href="#DejaVuSans-30" transform="translate(190.869141 0)"/>
       <use xlink:href="#DejaVuSans-30" transform="translate(254.492188 0)"/>
      </g>
     </g>
    </g>
    <g id="xtick_3">
     <g id="line2d_3">
      <g>
       <use xlink:href="#m9b2e8858c0" x="320.064329" y="390.04" style="stroke: #000000; stroke-width: 0.8"/>
      </g>
     </g>
     <g id="text_3">
      <!-- 40000 -->
      <g transform="translate(304.158079 404.638438) scale(0.1 -0.1)">
       <defs>
        <path id="DejaVuSans-34" d="M 2419 4116 
L 825 1625 
L 2419 1625 
L 2419 4116 
z
M 2253 4666 
L 3047 4666 
L 3047 1625 
L 3713 1625 
L 3713 1100 
L 3047 1100 
L 3047 0 
L 2419 0 
L 2419 1100 
L 313 1100 
L 313 1709 
L 2253 4666 
z
" transform="scale(0.015625)"/>
       </defs>
       <use xlink:href="#DejaVuSans-34"/>
       <use xlink:href="#DejaVuSans-30" transform="translate(63.623047 0)"/>
       <use xlink:href="#DejaVuSans-30" transform="translate(127.246094 0)"/>
       <use xlink:href="#DejaVuSans-30" transform="translate(190.869141 0)"/>
       <use xlink:href="#DejaVuSans-30" transform="translate(254.492188 0)"/>
      </g>
     </g>
    </g>
    <g id="xtick_4">
     <g id="line2d_4">
      <g>
       <use xlink:href="#m9b2e8858c0" x="439.710396" y="390.04" style="stroke: #000000; stroke-width: 0.8"/>
      </g>
     </g>
     <g id="text_4">
      <!-- 60000 -->
      <g transform="translate(423.804146 404.638438) scale(0.1 -0.1)">
       <defs>
        <path id="DejaVuSans-36" d="M 2113 2584 
Q 1688 2584 1439 2293 
Q 1191 2003 1191 1497 
Q 1191 994 1439 701 
Q 1688 409 2113 409 
Q 2538 409 2786 701 
Q 3034 994 3034 1497 
Q 3034 2003 2786 2293 
Q 2538 2584 2113 2584 
z
M 3366 4563 
L 3366 3988 
Q 3128 4100 2886 4159 
Q 2644 4219 2406 4219 
Q 1781 4219 1451 3797 
Q 1122 3375 1075 2522 
Q 1259 2794 1537 2939 
Q 1816 3084 2150 3084 
Q 2853 3084 3261 2657 
Q 3669 2231 3669 1497 
Q 3669 778 3244 343 
Q 2819 -91 2113 -91 
Q 1303 -91 875 529 
Q 447 1150 447 2328 
Q 447 3434 972 4092 
Q 1497 4750 2381 4750 
Q 2619 4750 2861 4703 
Q 3103 4656 3366 4563 
z
" transform="scale(0.015625)"/>
       </defs>
       <use xlink:href="#DejaVuSans-36"/>
       <use xlink:href="#DejaVuSans-30" transform="translate(63.623047 0)"/>
       <use xlink:href="#DejaVuSans-30" transform="translate(127.246094 0)"/>
       <use xlink:href="#DejaVuSans-30" transform="translate(190.869141 0)"/>
       <use xlink:href="#DejaVuSans-30" transform="translate(254.492188 0)"/>
      </g>
     </g>
    </g>
    <g id="xtick_5">
     <g id="line2d_5">
      <g>
       <use xlink:href="#m9b2e8858c0" x="559.356462" y="390.04" style="stroke: #000000; stroke-width: 0.8"/>
      </g>
     </g>
     <g id="text_5">
      <!-- 80000 -->
      <g transform="translate(543.450212 404.638438) scale(0.1 -0.1)">
       <defs>
        <path id="DejaVuSans-38" d="M 2034 2216 
Q 1584 2216 1326 1975 
Q 1069 1734 1069 1313 
Q 1069 891 1326 650 
Q 1584 409 2034 409 
Q 2484 409 2743 651 
Q 3003 894 3003 1313 
Q 3003 1734 2745 1975 
Q 2488 2216 2034 2216 
z
M 1403 2484 
Q 997 2584 770 2862 
Q 544 3141 544 3541 
Q 544 4100 942 4425 
Q 1341 4750 2034 4750 
Q 2731 4750 3128 4425 
Q 3525 4100 3525 3541 
Q 3525 3141 3298 2862 
Q 3072 2584 2669 2484 
Q 3125 2378 3379 2068 
Q 3634 1759 3634 1313 
Q 3634 634 3220 271 
Q 2806 -91 2034 -91 
Q 1263 -91 848 271 
Q 434 634 434 1313 
Q 434 1759 690 2068 
Q 947 2378 1403 2484 
z
M 1172 3481 
Q 1172 3119 1398 2916 
Q 1625 2713 2034 2713 
Q 2441 2713 2670 2916 
Q 2900 3119 2900 3481 
Q 2900 3844 2670 4047 
Q 2441 4250 2034 4250 
Q 1625 4250 1398 4047 
Q 1172 3844 1172 3481 
z
" transform="scale(0.015625)"/>
       </defs>
       <use xlink:href="#DejaVuSans-38"/>
       <use xlink:href="#DejaVuSans-30" transform="translate(63.623047 0)"/>
       <use xlink:href="#DejaVuSans-30" transform="translate(127.246094 0)"/>
       <use xlink:href="#DejaVuSans-30" transform="translate(190.869141 0)"/>
       <use xlink:href="#DejaVuSans-30" transform="translate(254.492188 0)"/>
      </g>
     </g>
    </g>
    <g id="xtick_6">
     <g id="line2d_6">
      <g>
       <use xlink:href="#m9b2e8858c0" x="679.002529" y="390.04" style="stroke: #000000; stroke-width: 0.8"/>
      </g>
     </g>
     <g id="text_6">
      <!-- 100000 -->
      <g transform="translate(659.915029 404.638438) scale(0.1 -0.1)">
       <defs>
        <path id="DejaVuSans-31" d="M 794 531 
L 1825 531 
L 1825 4091 
L 703 3866 
L 703 4441 
L 1819 4666 
L 2450 4666 
L 2450 531 
L 3481 531 
L 3481 0 
L 794 0 
L 794 531 
z
" transform="scale(0.015625)"/>
       </defs>
       <use xlink:href="#DejaVuSans-31"/>
       <use xlink:href="#DejaVuSans-30" transform="translate(63.623047 0)"/>
       <use xlink:href="#DejaVuSans-30" transform="translate(127.246094 0)"/>
       <use xlink:href="#DejaVuSans-30" transform="translate(190.869141 0)"/>
       <use xlink:href="#DejaVuSans-30" transform="translate(254.492188 0)"/>
       <use xlink:href="#DejaVuSans-30" transform="translate(318.115234 0)"/>
      </g>
     </g>
    </g>
    <g id="text_7">
     <!-- Step -->
     <g transform="translate(370.314844 418.316562) scale(0.1 -0.1)">
      <defs>
       <path id="DejaVuSans-53" d="M 3425 4513 
L 3425 3897 
Q 3066 4069 2747 4153 
Q 2428 4238 2131 4238 
Q 1616 4238 1336 4038 
Q 1056 3838 1056 3469 
Q 1056 3159 1242 3001 
Q 1428 2844 1947 2747 
L 2328 2669 
Q 3034 2534 3370 2195 
Q 3706 1856 3706 1288 
Q 3706 609 3251 259 
Q 2797 -91 1919 -91 
Q 1588 -91 1214 -16 
Q 841 59 441 206 
L 441 856 
Q 825 641 1194 531 
Q 1563 422 1919 422 
Q 2459 422 2753 634 
Q 3047 847 3047 1241 
Q 3047 1584 2836 1778 
Q 2625 1972 2144 2069 
L 1759 2144 
Q 1053 2284 737 2584 
Q 422 2884 422 3419 
Q 422 4038 858 4394 
Q 1294 4750 2059 4750 
Q 2388 4750 2728 4690 
Q 3069 4631 3425 4513 
z
" transform="scale(0.015625)"/>
       <path id="DejaVuSans-74" d="M 1172 4494 
L 1172 3500 
L 2356 3500 
L 2356 3053 
L 1172 3053 
L 1172 1153 
Q 1172 725 1289 603 
Q 1406 481 1766 481 
L 2356 481 
L 2356 0 
L 1766 0 
Q 1100 0 847 248 
Q 594 497 594 1153 
L 594 3053 
L 172 3053 
L 172 3500 
L 594 3500 
L 594 4494 
L 1172 4494 
z
" transform="scale(0.015625)"/>
       <path id="DejaVuSans-65" d="M 3597 1894 
L 3597 1613 
L 953 1613 
Q 991 1019 1311 708 
Q 1631 397 2203 397 
Q 2534 397 2845 478 
Q 3156 559 3463 722 
L 3463 178 
Q 3153 47 2828 -22 
Q 2503 -91 2169 -91 
Q 1331 -91 842 396 
Q 353 884 353 1716 
Q 353 2575 817 3079 
Q 1281 3584 2069 3584 
Q 2775 3584 3186 3129 
Q 3597 2675 3597 1894 
z
M 3022 2063 
Q 3016 2534 2758 2815 
Q 2500 3097 2075 3097 
Q 1594 3097 1305 2825 
Q 1016 2553 972 2059 
L 3022 2063 
z
" transform="scale(0.015625)"/>
       <path id="DejaVuSans-70" d="M 1159 525 
L 1159 -1331 
L 581 -1331 
L 581 3500 
L 1159 3500 
L 1159 2969 
Q 1341 3281 1617 3432 
Q 1894 3584 2278 3584 
Q 2916 3584 3314 3078 
Q 3713 2572 3713 1747 
Q 3713 922 3314 415 
Q 2916 -91 2278 -91 
Q 1894 -91 1617 61 
Q 1341 213 1159 525 
z
M 3116 1747 
Q 3116 2381 2855 2742 
Q 2594 3103 2138 3103 
Q 1681 3103 1420 2742 
Q 1159 2381 1159 1747 
Q 1159 1113 1420 752 
Q 1681 391 2138 391 
Q 2594 391 2855 752 
Q 3116 1113 3116 1747 
z
" transform="scale(0.015625)"/>
      </defs>
      <use xlink:href="#DejaVuSans-53"/>
      <use xlink:href="#DejaVuSans-74" transform="translate(63.476562 0)"/>
      <use xlink:href="#DejaVuSans-65" transform="translate(102.685547 0)"/>
      <use xlink:href="#DejaVuSans-70" transform="translate(164.208984 0)"/>
     </g>
    </g>
   </g>
   <g id="matplotlib.axis_2">
    <g id="ytick_1">
     <g id="line2d_7">
      <defs>
       <path id="m106648455f" d="M 0 0 
L -3.5 0 
" style="stroke: #000000; stroke-width: 0.8"/>
      </defs>
      <g>
       <use xlink:href="#m106648455f" x="54.2" y="386.55675" style="stroke: #000000; stroke-width: 0.8"/>
      </g>
     </g>
     <g id="text_8">
      <!-- 0.02 -->
      <g transform="translate(24.934375 390.355969) scale(0.1 -0.1)">
       <defs>
        <path id="DejaVuSans-2e" d="M 684 794 
L 1344 794 
L 1344 0 
L 684 0 
L 684 794 
z
" transform="scale(0.015625)"/>
       </defs>
       <use xlink:href="#DejaVuSans-30"/>
       <use xlink:href="#DejaVuSans-2e" transform="translate(63.623047 0)"/>
       <use xlink:href="#DejaVuSans-30" transform="translate(95.410156 0)"/>
       <use xlink:href="#DejaVuSans-32" transform="translate(159.033203 0)"/>
      </g>
     </g>
    </g>
    <g id="ytick_2">
     <g id="line2d_8">
      <g>
       <use xlink:href="#m106648455f" x="54.2" y="327.685413" style="stroke: #000000; stroke-width: 0.8"/>
      </g>
     </g>
     <g id="text_9">
      <!-- 0.04 -->
      <g transform="translate(24.934375 331.484632) scale(0.1 -0.1)">
       <use xlink:href="#DejaVuSans-30"/>
       <use xlink:href="#DejaVuSans-2e" transform="translate(63.623047 0)"/>
       <use xlink:href="#DejaVuSans-30" transform="translate(95.410156 0)"/>
       <use xlink:href="#DejaVuSans-34" transform="translate(159.033203 0)"/>
      </g>
     </g>
    </g>
    <g id="ytick_3">
     <g id="line2d_9">
      <g>
       <use xlink:href="#m106648455f" x="54.2" y="268.814076" style="stroke: #000000; stroke-width: 0.8"/>
      </g>
     </g>
     <g id="text_10">
      <!-- 0.06 -->
      <g transform="translate(24.934375 272.613295) scale(0.1 -0.1)">
       <use xlink:href="#DejaVuSans-30"/>
       <use xlink:href="#DejaVuSans-2e" transform="translate(63.623047 0)"/>
       <use xlink:href="#DejaVuSans-30" transform="translate(95.410156 0)"/>
       <use xlink:href="#DejaVuSans-36" transform="translate(159.033203 0)"/>
      </g>
     </g>
    </g>
    <g id="ytick_4">
     <g id="line2d_10">
      <g>
       <use xlink:href="#m106648455f" x="54.2" y="209.942739" style="stroke: #000000; stroke-width: 0.8"/>
      </g>
     </g>
     <g id="text_11">
      <!-- 0.08 -->
      <g transform="translate(24.934375 213.741958) scale(0.1 -0.1)">
       <use xlink:href="#DejaVuSans-30"/>
       <use xlink:href="#DejaVuSans-2e" transform="translate(63.623047 0)"/>
       <use xlink:href="#DejaVuSans-30" transform="translate(95.410156 0)"/>
       <use xlink:href="#DejaVuSans-38" transform="translate(159.033203 0)"/>
      </g>
     </g>
    </g>
    <g id="ytick_5">
     <g id="line2d_11">
      <g>
       <use xlink:href="#m106648455f" x="54.2" y="151.071402" style="stroke: #000000; stroke-width: 0.8"/>
      </g>
     </g>
     <g id="text_12">
      <!-- 0.10 -->
      <g transform="translate(24.934375 154.870621) scale(0.1 -0.1)">
       <use xlink:href="#DejaVuSans-30"/>
       <use xlink:href="#DejaVuSans-2e" transform="translate(63.623047 0)"/>
       <use xlink:href="#DejaVuSans-31" transform="translate(95.410156 0)"/>
       <use xlink:href="#DejaVuSans-30" transform="translate(159.033203 0)"/>
      </g>
     </g>
    </g>
    <g id="ytick_6">
     <g id="line2d_12">
      <g>
       <use xlink:href="#m106648455f" x="54.2" y="92.200065" style="stroke: #000000; stroke-width: 0.8"/>
      </g>
     </g>
     <g id="text_13">
      <!-- 0.12 -->
      <g transform="translate(24.934375 95.999284) scale(0.1 -0.1)">
       <use xlink:href="#DejaVuSans-30"/>
       <use xlink:href="#DejaVuSans-2e" transform="translate(63.623047 0)"/>
       <use xlink:href="#DejaVuSans-31" transform="translate(95.410156 0)"/>
       <use xlink:href="#DejaVuSans-32" transform="translate(159.033203 0)"/>
      </g>
     </g>
    </g>
    <g id="ytick_7">
     <g id="line2d_13">
      <g>
       <use xlink:href="#m106648455f" x="54.2" y="33.328728" style="stroke: #000000; stroke-width: 0.8"/>
      </g>
     </g>
     <g id="text_14">
      <!-- 0.14 -->
      <g transform="translate(24.934375 37.127947) scale(0.1 -0.1)">
       <use xlink:href="#DejaVuSans-30"/>
       <use xlink:href="#DejaVuSans-2e" transform="translate(63.623047 0)"/>
       <use xlink:href="#DejaVuSans-31" transform="translate(95.410156 0)"/>
       <use xlink:href="#DejaVuSans-34" transform="translate(159.033203 0)"/>
      </g>
     </g>
    </g>
    <g id="text_15">
     <!-- Normalized (minmax) Episodic Return -->
     <g transform="translate(18.854688 302.376719) rotate(-90) scale(0.1 -0.1)">
      <defs>
       <path id="DejaVuSans-4e" d="M 628 4666 
L 1478 4666 
L 3547 763 
L 3547 4666 
L 4159 4666 
L 4159 0 
L 3309 0 
L 1241 3903 
L 1241 0 
L 628 0 
L 628 4666 
z
" transform="scale(0.015625)"/>
       <path id="DejaVuSans-6f" d="M 1959 3097 
Q 1497 3097 1228 2736 
Q 959 2375 959 1747 
Q 959 1119 1226 758 
Q 1494 397 1959 397 
Q 2419 397 2687 759 
Q 2956 1122 2956 1747 
Q 2956 2369 2687 2733 
Q 2419 3097 1959 3097 
z
M 1959 3584 
Q 2709 3584 3137 3096 
Q 3566 2609 3566 1747 
Q 3566 888 3137 398 
Q 2709 -91 1959 -91 
Q 1206 -91 779 398 
Q 353 888 353 1747 
Q 353 2609 779 3096 
Q 1206 3584 1959 3584 
z
" transform="scale(0.015625)"/>
       <path id="DejaVuSans-72" d="M 2631 2963 
Q 2534 3019 2420 3045 
Q 2306 3072 2169 3072 
Q 1681 3072 1420 2755 
Q 1159 2438 1159 1844 
L 1159 0 
L 581 0 
L 581 3500 
L 1159 3500 
L 1159 2956 
Q 1341 3275 1631 3429 
Q 1922 3584 2338 3584 
Q 2397 3584 2469 3576 
Q 2541 3569 2628 3553 
L 2631 2963 
z
" transform="scale(0.015625)"/>
       <path id="DejaVuSans-6d" d="M 3328 2828 
Q 3544 3216 3844 3400 
Q 4144 3584 4550 3584 
Q 5097 3584 5394 3201 
Q 5691 2819 5691 2113 
L 5691 0 
L 5113 0 
L 5113 2094 
Q 5113 2597 4934 2840 
Q 4756 3084 4391 3084 
Q 3944 3084 3684 2787 
Q 3425 2491 3425 1978 
L 3425 0 
L 2847 0 
L 2847 2094 
Q 2847 2600 2669 2842 
Q 2491 3084 2119 3084 
Q 1678 3084 1418 2786 
Q 1159 2488 1159 1978 
L 1159 0 
L 581 0 
L 581 3500 
L 1159 3500 
L 1159 2956 
Q 1356 3278 1631 3431 
Q 1906 3584 2284 3584 
Q 2666 3584 2933 3390 
Q 3200 3197 3328 2828 
z
" transform="scale(0.015625)"/>
       <path id="DejaVuSans-61" d="M 2194 1759 
Q 1497 1759 1228 1600 
Q 959 1441 959 1056 
Q 959 750 1161 570 
Q 1363 391 1709 391 
Q 2188 391 2477 730 
Q 2766 1069 2766 1631 
L 2766 1759 
L 2194 1759 
z
M 3341 1997 
L 3341 0 
L 2766 0 
L 2766 531 
Q 2569 213 2275 61 
Q 1981 -91 1556 -91 
Q 1019 -91 701 211 
Q 384 513 384 1019 
Q 384 1609 779 1909 
Q 1175 2209 1959 2209 
L 2766 2209 
L 2766 2266 
Q 2766 2663 2505 2880 
Q 2244 3097 1772 3097 
Q 1472 3097 1187 3025 
Q 903 2953 641 2809 
L 641 3341 
Q 956 3463 1253 3523 
Q 1550 3584 1831 3584 
Q 2591 3584 2966 3190 
Q 3341 2797 3341 1997 
z
" transform="scale(0.015625)"/>
       <path id="DejaVuSans-6c" d="M 603 4863 
L 1178 4863 
L 1178 0 
L 603 0 
L 603 4863 
z
" transform="scale(0.015625)"/>
       <path id="DejaVuSans-69" d="M 603 3500 
L 1178 3500 
L 1178 0 
L 603 0 
L 603 3500 
z
M 603 4863 
L 1178 4863 
L 1178 4134 
L 603 4134 
L 603 4863 
z
" transform="scale(0.015625)"/>
       <path id="DejaVuSans-7a" d="M 353 3500 
L 3084 3500 
L 3084 2975 
L 922 459 
L 3084 459 
L 3084 0 
L 275 0 
L 275 525 
L 2438 3041 
L 353 3041 
L 353 3500 
z
" transform="scale(0.015625)"/>
       <path id="DejaVuSans-64" d="M 2906 2969 
L 2906 4863 
L 3481 4863 
L 3481 0 
L 2906 0 
L 2906 525 
Q 2725 213 2448 61 
Q 2172 -91 1784 -91 
Q 1150 -91 751 415 
Q 353 922 353 1747 
Q 353 2572 751 3078 
Q 1150 3584 1784 3584 
Q 2172 3584 2448 3432 
Q 2725 3281 2906 2969 
z
M 947 1747 
Q 947 1113 1208 752 
Q 1469 391 1925 391 
Q 2381 391 2643 752 
Q 2906 1113 2906 1747 
Q 2906 2381 2643 2742 
Q 2381 3103 1925 3103 
Q 1469 3103 1208 2742 
Q 947 2381 947 1747 
z
" transform="scale(0.015625)"/>
       <path id="DejaVuSans-20" transform="scale(0.015625)"/>
       <path id="DejaVuSans-28" d="M 1984 4856 
Q 1566 4138 1362 3434 
Q 1159 2731 1159 2009 
Q 1159 1288 1364 580 
Q 1569 -128 1984 -844 
L 1484 -844 
Q 1016 -109 783 600 
Q 550 1309 550 2009 
Q 550 2706 781 3412 
Q 1013 4119 1484 4856 
L 1984 4856 
z
" transform="scale(0.015625)"/>
       <path id="DejaVuSans-6e" d="M 3513 2113 
L 3513 0 
L 2938 0 
L 2938 2094 
Q 2938 2591 2744 2837 
Q 2550 3084 2163 3084 
Q 1697 3084 1428 2787 
Q 1159 2491 1159 1978 
L 1159 0 
L 581 0 
L 581 3500 
L 1159 3500 
L 1159 2956 
Q 1366 3272 1645 3428 
Q 1925 3584 2291 3584 
Q 2894 3584 3203 3211 
Q 3513 2838 3513 2113 
z
" transform="scale(0.015625)"/>
       <path id="DejaVuSans-78" d="M 3513 3500 
L 2247 1797 
L 3578 0 
L 2900 0 
L 1881 1375 
L 863 0 
L 184 0 
L 1544 1831 
L 300 3500 
L 978 3500 
L 1906 2253 
L 2834 3500 
L 3513 3500 
z
" transform="scale(0.015625)"/>
       <path id="DejaVuSans-29" d="M 513 4856 
L 1013 4856 
Q 1481 4119 1714 3412 
Q 1947 2706 1947 2009 
Q 1947 1309 1714 600 
Q 1481 -109 1013 -844 
L 513 -844 
Q 928 -128 1133 580 
Q 1338 1288 1338 2009 
Q 1338 2731 1133 3434 
Q 928 4138 513 4856 
z
" transform="scale(0.015625)"/>
       <path id="DejaVuSans-45" d="M 628 4666 
L 3578 4666 
L 3578 4134 
L 1259 4134 
L 1259 2753 
L 3481 2753 
L 3481 2222 
L 1259 2222 
L 1259 531 
L 3634 531 
L 3634 0 
L 628 0 
L 628 4666 
z
" transform="scale(0.015625)"/>
       <path id="DejaVuSans-73" d="M 2834 3397 
L 2834 2853 
Q 2591 2978 2328 3040 
Q 2066 3103 1784 3103 
Q 1356 3103 1142 2972 
Q 928 2841 928 2578 
Q 928 2378 1081 2264 
Q 1234 2150 1697 2047 
L 1894 2003 
Q 2506 1872 2764 1633 
Q 3022 1394 3022 966 
Q 3022 478 2636 193 
Q 2250 -91 1575 -91 
Q 1294 -91 989 -36 
Q 684 19 347 128 
L 347 722 
Q 666 556 975 473 
Q 1284 391 1588 391 
Q 1994 391 2212 530 
Q 2431 669 2431 922 
Q 2431 1156 2273 1281 
Q 2116 1406 1581 1522 
L 1381 1569 
Q 847 1681 609 1914 
Q 372 2147 372 2553 
Q 372 3047 722 3315 
Q 1072 3584 1716 3584 
Q 2034 3584 2315 3537 
Q 2597 3491 2834 3397 
z
" transform="scale(0.015625)"/>
       <path id="DejaVuSans-63" d="M 3122 3366 
L 3122 2828 
Q 2878 2963 2633 3030 
Q 2388 3097 2138 3097 
Q 1578 3097 1268 2742 
Q 959 2388 959 1747 
Q 959 1106 1268 751 
Q 1578 397 2138 397 
Q 2388 397 2633 464 
Q 2878 531 3122 666 
L 3122 134 
Q 2881 22 2623 -34 
Q 2366 -91 2075 -91 
Q 1284 -91 818 406 
Q 353 903 353 1747 
Q 353 2603 823 3093 
Q 1294 3584 2113 3584 
Q 2378 3584 2631 3529 
Q 2884 3475 3122 3366 
z
" transform="scale(0.015625)"/>
       <path id="DejaVuSans-52" d="M 2841 2188 
Q 3044 2119 3236 1894 
Q 3428 1669 3622 1275 
L 4263 0 
L 3584 0 
L 2988 1197 
Q 2756 1666 2539 1819 
Q 2322 1972 1947 1972 
L 1259 1972 
L 1259 0 
L 628 0 
L 628 4666 
L 2053 4666 
Q 2853 4666 3247 4331 
Q 3641 3997 3641 3322 
Q 3641 2881 3436 2590 
Q 3231 2300 2841 2188 
z
M 1259 4147 
L 1259 2491 
L 2053 2491 
Q 2509 2491 2742 2702 
Q 2975 2913 2975 3322 
Q 2975 3731 2742 3939 
Q 2509 4147 2053 4147 
L 1259 4147 
z
" transform="scale(0.015625)"/>
       <path id="DejaVuSans-75" d="M 544 1381 
L 544 3500 
L 1119 3500 
L 1119 1403 
Q 1119 906 1312 657 
Q 1506 409 1894 409 
Q 2359 409 2629 706 
Q 2900 1003 2900 1516 
L 2900 3500 
L 3475 3500 
L 3475 0 
L 2900 0 
L 2900 538 
Q 2691 219 2414 64 
Q 2138 -91 1772 -91 
Q 1169 -91 856 284 
Q 544 659 544 1381 
z
M 1991 3584 
L 1991 3584 
z
" transform="scale(0.015625)"/>
      </defs>
      <use xlink:href="#DejaVuSans-4e"/>
      <use xlink:href="#DejaVuSans-6f" transform="translate(74.804688 0)"/>
      <use xlink:href="#DejaVuSans-72" transform="translate(135.986328 0)"/>
      <use xlink:href="#DejaVuSans-6d" transform="translate(175.349609 0)"/>
      <use xlink:href="#DejaVuSans-61" transform="translate(272.761719 0)"/>
      <use xlink:href="#DejaVuSans-6c" transform="translate(334.041016 0)"/>
      <use xlink:href="#DejaVuSans-69" transform="translate(361.824219 0)"/>
      <use xlink:href="#DejaVuSans-7a" transform="translate(389.607422 0)"/>
      <use xlink:href="#DejaVuSans-65" transform="translate(442.097656 0)"/>
      <use xlink:href="#DejaVuSans-64" transform="translate(503.621094 0)"/>
      <use xlink:href="#DejaVuSans-20" transform="translate(567.097656 0)"/>
      <use xlink:href="#DejaVuSans-28" transform="translate(598.884766 0)"/>
      <use xlink:href="#DejaVuSans-6d" transform="translate(637.898438 0)"/>
      <use xlink:href="#DejaVuSans-69" transform="translate(735.310547 0)"/>
      <use xlink:href="#DejaVuSans-6e" transform="translate(763.09375 0)"/>
      <use xlink:href="#DejaVuSans-6d" transform="translate(826.472656 0)"/>
      <use xlink:href="#DejaVuSans-61" transform="translate(923.884766 0)"/>
      <use xlink:href="#DejaVuSans-78" transform="translate(985.164062 0)"/>
      <use xlink:href="#DejaVuSans-29" transform="translate(1044.34375 0)"/>
      <use xlink:href="#DejaVuSans-20" transform="translate(1083.357422 0)"/>
      <use xlink:href="#DejaVuSans-45" transform="translate(1115.144531 0)"/>
      <use xlink:href="#DejaVuSans-70" transform="translate(1178.328125 0)"/>
      <use xlink:href="#DejaVuSans-69" transform="translate(1241.804688 0)"/>
      <use xlink:href="#DejaVuSans-73" transform="translate(1269.587891 0)"/>
      <use xlink:href="#DejaVuSans-6f" transform="translate(1321.6875 0)"/>
      <use xlink:href="#DejaVuSans-64" transform="translate(1382.869141 0)"/>
      <use xlink:href="#DejaVuSans-69" transform="translate(1446.345703 0)"/>
      <use xlink:href="#DejaVuSans-63" transform="translate(1474.128906 0)"/>
      <use xlink:href="#DejaVuSans-20" transform="translate(1529.109375 0)"/>
      <use xlink:href="#DejaVuSans-52" transform="translate(1560.896484 0)"/>
      <use xlink:href="#DejaVuSans-65" transform="translate(1625.878906 0)"/>
      <use xlink:href="#DejaVuSans-74" transform="translate(1687.402344 0)"/>
      <use xlink:href="#DejaVuSans-75" transform="translate(1726.611328 0)"/>
      <use xlink:href="#DejaVuSans-72" transform="translate(1789.990234 0)"/>
      <use xlink:href="#DejaVuSans-6e" transform="translate(1829.353516 0)"/>
     </g>
    </g>
   </g>
   <g id="line2d_14">
    <path d="M 103.648523 333.204601 
L 104.220381 341.848925 
L 104.792239 345.608866 
L 105.364097 347.70423 
L 105.935955 330.084564 
L 106.507812 317.92258 
L 107.07967 310.477824 
L 107.651528 304.602176 
L 108.223386 315.1262 
L 108.795244 321.073392 
L 109.367102 323.117352 
L 109.93896 326.874314 
L 110.510818 313.777246 
L 111.082676 309.850569 
L 111.654534 307.330935 
L 112.226391 303.712304 
L 113.370107 289.924833 
L 113.941965 280.406528 
L 115.657539 271.945518 
L 116.229397 264.029588 
L 116.801255 273.100204 
L 119.660544 235.841022 
L 121.947976 202.538779 
L 123.091691 190.047902 
L 123.663549 207.579071 
L 125.379123 292.616561 
L 125.950981 296.444478 
L 129.382128 306.852068 
L 129.953986 312.699753 
L 130.525844 322.178644 
L 131.097702 325.40879 
L 131.66956 326.661273 
L 132.241418 326.241347 
L 133.385134 312.41621 
L 133.956992 309.545458 
L 135.672565 309.468353 
L 136.244423 304.188291 
L 136.816281 301.160979 
L 137.959997 298.902135 
L 138.531855 306.843704 
L 139.103713 321.402436 
L 139.675571 320.828883 
L 140.247428 310.681474 
L 140.819286 307.10437 
L 141.391144 312.84204 
L 141.963002 321.396259 
L 142.53486 324.800733 
L 144.250434 286.436464 
L 144.822292 281.567776 
L 145.966007 265.848997 
L 146.537865 260.274887 
L 147.109723 258.962022 
L 147.681581 262.498472 
L 149.397155 277.267936 
L 152.828302 300.315382 
L 153.40016 299.017879 
L 153.972018 298.3692 
L 155.115734 299.403767 
L 155.687592 299.02567 
L 160.262455 267.499532 
L 160.834313 272.617898 
L 161.406171 273.16489 
L 162.549886 272.983571 
L 163.121744 273.230422 
L 164.837318 277.454931 
L 165.981034 317.324326 
L 166.552892 328.02476 
L 167.12475 327.35275 
L 167.696608 324.425178 
L 168.840323 310.719787 
L 169.412181 299.787071 
L 170.555897 273.32089 
L 171.127755 276.209834 
L 171.699613 276.239372 
L 172.271471 276.477761 
L 172.843329 276.249547 
L 175.702618 271.3945 
L 176.274476 271.636295 
L 177.418192 293.894702 
L 177.99005 305.650886 
L 178.561908 307.673248 
L 180.277481 305.445603 
L 180.849339 303.507145 
L 181.421197 304.900052 
L 183.136771 314.756073 
L 186.567918 308.972043 
L 187.139776 307.510413 
L 188.283492 302.966749 
L 188.85535 301.668952 
L 190.570923 300.314732 
L 191.142781 300.137412 
L 192.286497 300.798168 
L 192.858355 298.719016 
L 193.430213 294.95741 
L 195.145787 288.865372 
L 198.005076 278.587708 
L 198.576934 296.728674 
L 199.148792 290.838654 
L 199.72065 271.294539 
L 200.292508 258.429377 
L 200.864366 264.130648 
L 201.436223 254.915195 
L 202.008081 243.145377 
L 202.579939 238.361622 
L 203.151797 234.681063 
L 204.295513 229.401596 
L 204.867371 229.494242 
L 205.439229 230.48347 
L 206.582945 235.537401 
L 207.72666 240.977952 
L 208.298518 244.476577 
L 209.442234 254.755713 
L 211.157808 258.19296 
L 212.301524 258.856715 
L 212.873381 281.78502 
L 213.445239 272.839375 
L 214.017097 258.364883 
L 216.304529 167.038102 
L 216.876387 170.183652 
L 217.448245 218.761367 
L 218.020103 239.497855 
L 218.59196 240.144713 
L 220.307534 243.82394 
L 220.879392 245.536524 
L 222.594966 251.882786 
L 223.166824 254.428476 
L 223.738682 256.228787 
L 224.310539 257.404971 
L 225.454255 263.894918 
L 228.885403 287.980634 
L 231.172834 314.22489 
L 231.744692 320.78178 
L 232.31655 314.625505 
L 232.888408 299.94546 
L 234.032124 288.795975 
L 234.603982 289.11855 
L 236.319555 295.1028 
L 236.891413 295.115576 
L 237.463271 288.632869 
L 238.606987 281.753891 
L 239.178845 277.406935 
L 240.322561 260.517144 
L 240.894418 255.769939 
L 241.466276 253.811849 
L 243.753708 248.543631 
L 244.325566 258.0831 
L 247.184855 250.774554 
L 250.044145 268.895635 
L 250.616003 264.701179 
L 251.759719 253.097143 
L 252.331576 246.02093 
L 252.903434 213.433957 
L 254.04715 132.156567 
L 256.334582 165.965958 
L 256.90644 175.462678 
L 257.478297 206.669087 
L 258.050155 227.21227 
L 259.193871 257.450301 
L 259.765729 268.159744 
L 260.909445 192.341708 
L 261.481303 129.858435 
L 262.053161 42.012727 
L 262.625019 46.043875 
L 263.196876 83.303455 
L 264.340592 184.429081 
L 267.199882 248.898536 
L 267.77174 254.537853 
L 268.915455 260.964525 
L 269.487313 260.069526 
L 270.059171 266.779939 
L 270.631029 275.787142 
L 272.346603 271.174685 
L 272.918461 271.953896 
L 273.490319 288.191888 
L 278.63704 257.011759 
L 279.780756 249.160498 
L 280.352613 246.351008 
L 280.924471 246.834492 
L 284.355619 257.1263 
L 284.927477 257.170206 
L 286.071192 212.789823 
L 286.64305 198.704827 
L 288.358624 209.787903 
L 288.930482 205.154815 
L 289.50234 202.445416 
L 290.074198 227.613377 
L 290.646056 259.739539 
L 292.933487 232.892555 
L 293.505345 224.942956 
L 294.077203 237.149064 
L 294.649061 229.240668 
L 295.220919 224.805049 
L 296.364635 247.148104 
L 296.936492 246.713506 
L 299.795782 243.531541 
L 300.36764 241.877744 
L 301.511356 236.702852 
L 302.655071 233.505836 
L 303.226929 218.859174 
L 303.798787 233.230129 
L 304.370645 233.968983 
L 307.801792 245.669772 
L 308.37365 246.407749 
L 309.517366 244.357818 
L 310.089224 246.078595 
L 310.661082 249.804425 
L 311.23294 251.718522 
L 316.379661 255.241049 
L 318.667093 257.319802 
L 320.954524 262.252322 
L 321.526382 271.269304 
L 322.670098 256.848407 
L 323.241956 268.239566 
L 324.385672 274.754942 
L 327.244961 281.222452 
L 327.816819 279.046128 
L 329.532393 268.681669 
L 330.104251 263.480265 
L 330.676108 246.507918 
L 331.247966 242.927102 
L 332.391682 245.595609 
L 332.96354 215.545403 
L 333.535398 228.278161 
L 334.107256 235.916003 
L 335.822829 221.137518 
L 336.394687 211.345982 
L 336.966545 204.001511 
L 337.538403 207.677295 
L 338.110261 217.082511 
L 338.682119 216.163001 
L 340.397693 210.516274 
L 340.969551 210.757662 
L 341.541408 212.961129 
L 342.113266 213.160202 
L 343.82884 222.209173 
L 344.972556 230.733019 
L 346.68813 243.092225 
L 349.547419 246.690625 
L 350.119277 243.97083 
L 350.691135 234.766825 
L 351.834851 239.186034 
L 355.837856 248.551253 
L 357.55343 234.851446 
L 358.125288 234.550158 
L 358.697145 232.587444 
L 360.412719 223.653928 
L 362.128293 216.917805 
L 362.700151 211.943822 
L 364.987582 186.399187 
L 365.55944 182.331381 
L 366.131298 189.066731 
L 366.703156 210.994339 
L 367.275014 227.210212 
L 368.41873 215.289892 
L 368.990588 208.080518 
L 370.134303 211.586055 
L 370.706161 216.958316 
L 371.849877 247.844004 
L 372.421735 253.346972 
L 372.993593 237.325611 
L 373.565451 229.689496 
L 374.709167 260.503317 
L 375.281024 263.056125 
L 376.42474 265.39937 
L 376.996598 266.640218 
L 377.568456 266.780535 
L 378.140314 266.643901 
L 378.712172 267.158601 
L 379.28403 267.090071 
L 380.427746 262.135216 
L 380.999603 261.528817 
L 385.002609 259.541468 
L 386.146325 240.957763 
L 386.718182 268.753739 
L 388.433756 272.992494 
L 389.005614 273.341483 
L 389.577472 271.960057 
L 394.152335 307.004443 
L 394.724193 305.623449 
L 398.727198 281.472658 
L 399.299056 257.150913 
L 400.442772 246.610134 
L 402.730204 236.147116 
L 403.302061 242.798806 
L 403.873919 257.920187 
L 404.445777 257.826474 
L 406.161351 251.728597 
L 406.733209 261.797758 
L 407.305067 253.118745 
L 407.876925 215.981721 
L 410.164356 225.503849 
L 410.736214 225.715667 
L 413.023646 206.328867 
L 413.595504 204.202233 
L 414.167361 206.86118 
L 414.739219 211.612607 
L 415.311077 222.01665 
L 415.882935 227.688656 
L 417.026651 230.037161 
L 417.598509 233.986204 
L 418.170367 149.331453 
L 419.314083 147.632603 
L 419.88594 143.338538 
L 421.029656 129.745802 
L 423.317088 267.064733 
L 425.032662 271.657578 
L 426.748235 268.906283 
L 430.179383 264.876802 
L 430.751241 263.932326 
L 431.323098 269.727848 
L 432.466814 286.273112 
L 433.038672 259.823925 
L 433.61053 262.517146 
L 436.46982 258.270029 
L 437.041677 256.485418 
L 438.185393 252.073403 
L 438.757251 252.2585 
L 439.329109 253.197684 
L 439.900967 253.577639 
L 440.472825 250.504553 
L 445.047688 207.652153 
L 446.191404 236.50736 
L 447.33512 244.80214 
L 448.478835 253.76493 
L 449.050693 253.17277 
L 449.622551 251.874802 
L 450.194409 261.698467 
L 450.766267 244.989039 
L 451.338125 234.032673 
L 451.909983 227.916434 
L 453.053699 225.640699 
L 454.769272 203.967055 
L 456.484846 210.459634 
L 457.056704 229.897363 
L 457.628562 236.491043 
L 458.772278 221.204334 
L 459.344135 220.743323 
L 459.915993 224.073351 
L 460.487851 224.95948 
L 461.059709 221.242935 
L 462.203425 102.680912 
L 462.775283 100.999589 
L 464.490857 129.54582 
L 465.062714 136.907068 
L 467.350146 153.227648 
L 467.922004 156.442463 
L 468.493862 158.92708 
L 469.06572 177.181754 
L 469.637578 199.758928 
L 470.209435 216.233994 
L 470.781293 221.760403 
L 471.353151 223.17117 
L 471.925009 225.398517 
L 472.496867 226.2612 
L 473.640583 225.444019 
L 474.212441 243.342425 
L 475.928014 236.379725 
L 476.499872 236.415995 
L 481.074736 248.530544 
L 481.646593 252.619888 
L 482.790309 238.887313 
L 485.077741 246.872806 
L 485.649599 239.489929 
L 486.221457 234.772205 
L 486.793315 233.209713 
L 487.365172 235.083656 
L 488.508888 248.856476 
L 489.080746 249.013192 
L 489.652604 249.674814 
L 490.224462 237.388246 
L 490.79632 233.551914 
L 493.083751 232.287664 
L 494.227467 235.585333 
L 495.371183 247.853595 
L 497.658615 246.721154 
L 498.230472 245.696594 
L 499.374188 240.436296 
L 499.946046 256.207282 
L 501.089762 230.11454 
L 501.66162 224.933679 
L 502.233478 225.538816 
L 502.805336 225.165505 
L 503.377194 222.827259 
L 503.949051 219.452623 
L 504.520909 223.755439 
L 505.092767 212.363426 
L 505.664625 212.057453 
L 507.952057 237.328607 
L 508.523915 242.405842 
L 509.095773 243.76426 
L 514.242494 238.218686 
L 514.814352 235.831971 
L 515.386209 234.31283 
L 515.958067 252.429179 
L 517.673641 254.521307 
L 518.817357 249.868785 
L 520.53293 242.511558 
L 521.104788 231.47628 
L 521.676646 169.836284 
L 522.248504 140.30868 
L 527.967083 204.507791 
L 528.538941 205.322677 
L 529.110799 208.448462 
L 530.254515 217.682037 
L 530.826373 239.033173 
L 531.398231 247.508034 
L 532.541946 255.781491 
L 533.113804 257.159318 
L 533.685662 244.216121 
L 534.25752 239.056922 
L 535.401236 237.345905 
L 536.544952 236.649789 
L 537.11681 229.936001 
L 537.688667 227.765797 
L 538.260525 227.12328 
L 538.832383 232.347589 
L 539.404241 241.547847 
L 542.263531 240.17158 
L 542.835389 227.588873 
L 543.979104 212.509096 
L 544.550962 212.148801 
L 545.694678 211.775962 
L 546.266536 210.757971 
L 546.838394 210.307996 
L 554.844404 234.005868 
L 556.559978 230.653779 
L 557.131836 223.031388 
L 557.703694 207.849656 
L 558.275552 196.917143 
L 558.84741 195.352473 
L 559.991125 207.488751 
L 561.134841 218.332441 
L 562.278557 225.011107 
L 562.850415 222.037972 
L 563.422273 217.853844 
L 563.994131 220.357749 
L 564.565989 219.7009 
L 565.137847 215.07043 
L 565.709704 220.632528 
L 566.281562 230.694725 
L 566.85342 210.217873 
L 567.425278 211.892342 
L 567.997136 210.573255 
L 568.568994 206.193619 
L 569.71271 212.6449 
L 571.428283 221.478763 
L 572.571999 223.418848 
L 576.575004 229.755285 
L 577.146862 238.040622 
L 577.71872 243.577065 
L 579.434294 246.612173 
L 580.006152 249.15392 
L 581.149868 261.458233 
L 581.721726 264.882789 
L 582.293583 265.294439 
L 585.724731 251.392486 
L 586.296589 251.529126 
L 587.440305 253.473983 
L 588.012162 254.668777 
L 588.58402 253.813006 
L 589.155878 249.131312 
L 589.727736 247.192744 
L 590.299594 242.803356 
L 591.44331 230.105226 
L 592.015168 231.158181 
L 592.587026 233.31161 
L 593.158884 241.887233 
L 594.302599 246.982046 
L 594.874457 248.881536 
L 595.446315 250.284251 
L 596.018173 252.823052 
L 596.590031 249.374538 
L 597.161889 243.507299 
L 598.877463 231.508809 
L 599.44932 226.620902 
L 600.021178 223.817891 
L 601.736752 219.625358 
L 602.880468 201.742524 
L 603.452326 196.845095 
L 604.596041 202.722306 
L 606.311615 222.715678 
L 608.027189 228.783188 
L 609.742763 233.648407 
L 610.31462 237.319914 
L 612.030194 258.631644 
L 612.602052 257.230788 
L 613.17391 246.857189 
L 616.033199 225.0392 
L 616.605057 238.962816 
L 617.176915 248.816369 
L 619.464347 233.611364 
L 620.036205 231.598548 
L 620.608063 228.382799 
L 622.323636 213.45308 
L 623.467352 200.68763 
L 624.03921 202.999539 
L 625.182926 222.231251 
L 625.754784 226.880688 
L 626.898499 249.076256 
L 627.470357 254.153413 
L 628.042215 250.219077 
L 630.901505 219.767789 
L 631.473363 217.502935 
L 632.045221 216.031611 
L 632.617078 217.986535 
L 634.90451 236.357472 
L 635.476368 226.941972 
L 636.048226 226.405954 
L 636.620084 221.990661 
L 643.482379 116.363732 
L 644.054236 108.736716 
L 644.626094 119.086786 
L 645.76981 196.54475 
L 646.341668 208.633084 
L 648.057242 222.053372 
L 648.6291 230.373185 
L 651.488389 219.603448 
L 652.060247 221.807375 
L 652.632105 238.499652 
L 653.203963 242.971622 
L 654.347679 243.112927 
L 654.919536 241.683223 
L 656.63511 222.595872 
L 657.778826 218.52335 
L 658.350684 216.339372 
L 658.922542 188.575667 
L 659.4944 186.769957 
L 660.066258 186.49876 
L 660.638115 197.800299 
L 661.209973 202.299595 
L 663.497405 203.32831 
L 664.069263 205.869141 
L 664.641121 209.168385 
L 665.212979 202.186319 
L 666.356694 210.95044 
L 667.50041 220.611096 
L 668.072268 228.494617 
L 668.644126 208.057513 
L 669.215984 114.673806 
L 669.787842 117.814211 
L 670.3597 119.147182 
L 674.934563 105.07817 
L 674.934563 105.07817 
" clip-path="url(#pc9cc289be3)" style="fill: none; stroke: #00008b; stroke-width: 1.5; stroke-linecap: square"/>
   </g>
   <g id="line2d_15">
    <path d="M 84.511135 309.28812 
L 86.29767 328.569114 
L 87.488693 341.712446 
L 88.084204 340.803443 
L 88.679716 336.897799 
L 89.275228 330.606504 
L 91.061763 305.65801 
L 91.657274 300.25632 
L 92.252786 297.203716 
L 92.848298 296.450522 
L 94.039321 301.312472 
L 94.634833 301.666899 
L 95.230344 306.141232 
L 96.421368 316.636627 
L 97.016879 316.899235 
L 97.612391 316.713011 
L 98.207903 315.473619 
L 99.994437 304.8238 
L 101.185461 301.401653 
L 101.780972 296.072647 
L 104.758531 279.193782 
L 105.354042 274.680322 
L 105.949554 268.516654 
L 106.545066 272.128587 
L 108.331601 287.122085 
L 108.927112 290.511932 
L 109.522624 297.776843 
L 110.713647 303.711035 
L 111.309159 306.525091 
L 111.90467 309.883935 
L 113.095694 318.349885 
L 113.691205 317.075641 
L 114.286717 315.232796 
L 116.668764 293.40123 
L 117.264275 280.851931 
L 118.455299 261.319007 
L 120.241834 237.337749 
L 121.432857 219.117396 
L 122.028369 212.177917 
L 125.005927 323.50456 
L 125.601438 321.702325 
L 126.792462 310.564948 
L 127.387973 300.372474 
L 129.174508 279.250343 
L 129.77002 272.384765 
L 130.365532 268.834428 
L 130.961043 271.01042 
L 131.556555 273.807238 
L 134.534113 293.968383 
L 138.107183 271.1441 
L 138.702695 268.028017 
L 139.298206 268.014456 
L 139.893718 272.007098 
L 141.680253 311.730839 
L 142.275765 322.693552 
L 142.871276 324.720194 
L 143.466788 324.885589 
L 144.0623 321.669743 
L 145.848835 307.995656 
L 146.444346 298.658358 
L 148.230881 284.155243 
L 148.826393 283.90022 
L 150.017416 294.093212 
L 152.399463 333.961584 
L 152.994974 336.25019 
L 153.590486 336.259356 
L 154.185998 335.597466 
L 156.568044 319.730608 
L 157.163556 320.033796 
L 160.736626 284.552619 
L 161.332137 283.874569 
L 162.523161 288.463502 
L 164.309696 294.813801 
L 164.905207 293.056988 
L 165.500719 292.559256 
L 167.287254 291.893832 
L 167.882766 293.183902 
L 168.478277 296.207295 
L 169.073789 298.25815 
L 169.6693 301.381446 
L 170.860324 310.56322 
L 171.455835 313.950387 
L 172.646859 319.244875 
L 173.24237 316.638629 
L 175.028905 270.930247 
L 176.81544 235.498072 
L 177.410952 221.72075 
L 178.006464 229.664866 
L 179.197487 268.96888 
L 180.984022 316.758952 
L 181.579533 317.181569 
L 182.175045 316.076134 
L 182.770557 314.622275 
L 183.96158 309.996554 
L 186.343627 297.309233 
L 186.939138 294.800592 
L 187.53465 294.166241 
L 189.321185 297.504648 
L 189.916697 297.878865 
L 190.512208 297.977482 
L 191.703232 294.583433 
L 192.298743 292.419589 
L 192.894255 294.52572 
L 194.085278 303.596069 
L 194.68079 305.990118 
L 195.276301 311.114311 
L 195.871813 317.467015 
L 196.467325 321.211714 
L 197.658348 322.554351 
L 198.25386 323.447089 
L 198.849371 323.444347 
L 200.635906 317.633343 
L 201.82693 312.087342 
L 203.017953 303.170902 
L 204.208976 299.820415 
L 204.804488 297.75949 
L 205.995511 291.099301 
L 206.591023 288.690869 
L 207.782046 285.658493 
L 208.377558 287.165438 
L 208.973069 290.622777 
L 209.568581 295.569991 
L 210.164093 301.489086 
L 211.950628 328.880032 
L 212.546139 335.091262 
L 213.141651 338.508487 
L 214.332674 341.49718 
L 214.928186 341.236852 
L 216.119209 333.407743 
L 218.501256 311.24254 
L 220.287791 292.180162 
L 222.669837 256.597927 
L 225.051884 221.651682 
L 226.242907 203.9569 
L 226.838419 207.801592 
L 229.220465 284.428994 
L 229.815977 296.08772 
L 231.007 284.819562 
L 231.602512 281.026 
L 233.389047 273.774613 
L 233.984559 272.426695 
L 234.58007 273.441735 
L 235.175582 279.039696 
L 235.771094 285.864305 
L 237.557629 310.918486 
L 238.748652 323.353805 
L 239.344164 325.959678 
L 240.535187 329.115177 
L 241.130698 330.208659 
L 241.72621 330.50016 
L 242.321722 332.462485 
L 242.917233 333.994227 
L 243.512745 334.487927 
L 244.703768 334.253253 
L 245.29928 330.243488 
L 246.490303 316.033913 
L 248.276838 286.219665 
L 248.87235 287.5808 
L 250.658885 330.450653 
L 251.254397 346.328207 
L 251.849908 350.610821 
L 252.44542 347.88353 
L 254.231955 328.266406 
L 255.422978 313.444373 
L 256.01849 309.158335 
L 257.805025 308.367864 
L 259.59156 310.794261 
L 262.569118 329.003982 
L 263.16463 328.033383 
L 265.546676 312.304176 
L 266.142188 306.72121 
L 267.928723 287.860376 
L 269.119746 284.845657 
L 269.715258 285.732041 
L 270.906281 290.827139 
L 272.097304 296.236663 
L 272.692816 297.810149 
L 273.288328 298.88125 
L 275.074863 308.629662 
L 276.265886 314.440906 
L 276.861397 316.387881 
L 277.456909 313.825353 
L 280.434467 293.22206 
L 281.029979 288.736057 
L 281.625491 286.043198 
L 284.007537 280.239793 
L 284.603049 278.506321 
L 288.176119 292.017624 
L 288.77163 296.904768 
L 289.367142 295.662142 
L 290.558165 298.585869 
L 291.153677 302.859203 
L 291.749189 308.495653 
L 292.3447 316.461075 
L 294.131235 313.806773 
L 294.726747 310.469512 
L 295.322259 306.342531 
L 295.91777 305.526072 
L 297.704305 306.727233 
L 298.299817 306.112623 
L 298.895329 303.712041 
L 300.086352 293.139662 
L 300.681863 292.645894 
L 301.277375 293.105583 
L 301.872887 294.032706 
L 302.468398 298.33027 
L 303.06391 304.385222 
L 303.659422 314.499024 
L 305.445957 329.244992 
L 306.041468 332.905484 
L 306.63698 332.412426 
L 307.232492 331.343063 
L 309.614538 323.967973 
L 310.805561 319.406575 
L 311.401073 315.293529 
L 313.187608 298.255298 
L 313.78312 292.330798 
L 314.378631 290.887702 
L 315.569655 290.777202 
L 316.165166 294.025734 
L 317.35619 304.045062 
L 319.142725 313.293475 
L 320.333748 294.247883 
L 321.524771 275.413806 
L 324.502329 220.946036 
L 325.097841 217.774025 
L 328.075399 285.919835 
L 328.670911 291.119822 
L 329.266423 292.712058 
L 332.243981 330.699983 
L 332.839493 333.780552 
L 335.817051 310.865593 
L 337.603586 289.422477 
L 338.199097 282.113403 
L 338.794609 278.29517 
L 339.390121 275.421145 
L 340.581144 266.046012 
L 341.176656 265.94132 
L 342.367679 265.910356 
L 342.963191 263.267821 
L 344.154214 243.317279 
L 345.345237 232.986231 
L 346.53626 221.911779 
L 347.131772 214.182484 
L 347.727284 214.352409 
L 348.918307 255.068661 
L 350.704842 306.445131 
L 351.300354 312.340465 
L 351.895865 309.629166 
L 352.491377 308.576826 
L 353.6824 310.257796 
L 355.468935 314.476444 
L 356.659959 321.086964 
L 357.25547 323.270641 
L 358.446493 322.351714 
L 359.042005 322.386497 
L 359.637517 322.770537 
L 360.233028 322.884227 
L 360.82854 324.086179 
L 362.019563 322.928167 
L 362.615075 320.016179 
L 363.806098 310.616022 
L 365.592633 297.999448 
L 366.188145 297.582328 
L 366.783657 297.804295 
L 367.379168 302.534955 
L 368.570192 317.196884 
L 369.165703 322.616674 
L 369.761215 324.910706 
L 370.356726 324.892299 
L 370.952238 322.747753 
L 371.54775 321.788073 
L 372.143261 319.989587 
L 373.334285 309.990688 
L 375.12082 297.064615 
L 375.716331 294.229136 
L 376.311843 293.407284 
L 377.502866 302.221135 
L 379.289401 310.681599 
L 379.884913 311.154915 
L 380.480425 310.618046 
L 381.075936 312.17787 
L 383.457983 330.845363 
L 384.053494 333.783076 
L 385.244518 329.776045 
L 387.031053 320.369023 
L 388.222076 306.54131 
L 388.817588 305.594695 
L 390.604123 305.065825 
L 391.199634 305.029508 
L 391.795146 309.649263 
L 392.390658 312.871509 
L 393.581681 307.748158 
L 394.177192 304.329493 
L 394.772704 299.907269 
L 395.368216 296.6691 
L 397.154751 296.897914 
L 397.750262 296.667132 
L 398.345774 294.811866 
L 399.536797 289.516493 
L 401.323332 286.522466 
L 401.918844 284.052583 
L 404.300891 276.622524 
L 404.896402 280.414474 
L 405.491914 286.18789 
L 406.682937 287.854936 
L 407.278449 287.837749 
L 409.064984 279.679351 
L 410.256007 275.127793 
L 410.851519 274.098551 
L 411.44703 272.561505 
L 412.042542 275.964904 
L 412.638054 280.421751 
L 413.233565 283.688883 
L 413.829077 288.184762 
L 415.615612 306.218688 
L 416.211124 310.964451 
L 416.806635 308.309396 
L 417.997658 299.901487 
L 418.59317 293.864877 
L 420.379705 271.844275 
L 420.975217 269.702981 
L 421.570728 268.976745 
L 423.357263 274.946907 
L 423.952775 275.69881 
L 425.143798 269.803311 
L 425.73931 270.785268 
L 426.930333 287.299529 
L 429.31238 325.883842 
L 430.503403 337.883059 
L 431.098915 337.78569 
L 431.694426 336.90083 
L 432.88545 332.828038 
L 433.480961 328.053826 
L 434.671985 314.257971 
L 435.863008 307.360942 
L 437.054031 300.0994 
L 437.649543 297.757474 
L 438.840566 294.667672 
L 439.436078 295.168173 
L 441.222613 301.508858 
L 443.009148 304.288179 
L 445.391194 301.63314 
L 445.986706 304.124202 
L 447.177729 311.495916 
L 449.559776 329.407431 
L 450.155288 327.825924 
L 454.323869 230.016579 
L 454.919381 221.259316 
L 455.514892 210.097297 
L 456.110404 206.557766 
L 457.301427 252.789586 
L 459.683474 331.47387 
L 460.278986 329.441823 
L 460.874497 326.324523 
L 461.470009 325.46379 
L 462.065521 325.741145 
L 462.661032 325.317886 
L 464.447567 313.093648 
L 466.829614 285.780373 
L 469.21166 260.118492 
L 470.402684 252.503594 
L 470.998195 250.925572 
L 472.78473 268.421739 
L 474.571265 283.455128 
L 475.762288 290.727491 
L 476.953312 290.406369 
L 477.548823 289.544895 
L 478.739847 276.606715 
L 479.335358 272.122959 
L 481.717405 281.436488 
L 482.908428 288.542405 
L 483.50394 290.265093 
L 484.099452 288.126285 
L 486.481498 292.25436 
L 487.07701 296.705774 
L 487.672521 299.991471 
L 488.268033 298.33811 
L 488.863545 297.235773 
L 492.436615 310.390937 
L 493.032126 313.324422 
L 493.627638 314.557829 
L 494.22315 312.492497 
L 495.414173 306.923649 
L 496.009685 305.513817 
L 497.200708 296.190176 
L 497.79622 294.535053 
L 498.987243 292.552873 
L 499.582754 291.916259 
L 500.178266 293.402235 
L 500.773778 296.116514 
L 501.964801 306.74336 
L 502.560313 310.627288 
L 503.751336 315.042084 
L 504.346848 316.081351 
L 507.919918 293.870042 
L 508.515429 292.956655 
L 509.706453 289.931988 
L 511.492987 287.8951 
L 512.088499 286.109527 
L 513.279522 280.178639 
L 513.875034 279.813303 
L 515.066057 286.636883 
L 516.257081 293.2293 
L 516.852592 294.486475 
L 520.425662 270.724693 
L 521.021174 272.483127 
L 521.616686 276.573789 
L 523.998732 306.562822 
L 524.594244 312.810122 
L 525.189755 315.668444 
L 525.785267 317.372088 
L 527.571802 325.95222 
L 528.167314 327.143482 
L 528.762825 325.44707 
L 532.335895 281.723347 
L 532.931407 286.792646 
L 535.313453 315.023633 
L 535.908965 314.227884 
L 537.099988 301.87109 
L 538.886523 301.122426 
L 539.482035 300.583388 
L 540.673058 298.608906 
L 543.055105 255.324187 
L 544.246128 240.314793 
L 546.032663 227.460641 
L 546.628175 239.776486 
L 549.010221 316.057819 
L 549.605733 327.389398 
L 550.796756 313.93714 
L 551.98778 299.77267 
L 553.178803 293.606073 
L 554.369826 298.606717 
L 554.965338 303.234577 
L 555.56085 308.810653 
L 556.156361 310.72159 
L 556.751873 310.34505 
L 558.538408 303.886674 
L 559.133919 301.469403 
L 560.324943 296.090836 
L 560.920454 294.05944 
L 562.706989 289.372644 
L 563.898013 303.21012 
L 565.089036 317.329982 
L 565.684548 323.869193 
L 566.280059 325.934285 
L 566.875571 323.279252 
L 568.662106 313.844797 
L 569.257618 311.216377 
L 569.853129 306.014821 
L 571.639664 283.952382 
L 572.235176 271.825712 
L 572.830687 272.737615 
L 573.426199 274.415701 
L 574.021711 279.205665 
L 575.808246 303.064458 
L 576.403757 301.090548 
L 576.999269 303.752871 
L 579.381316 312.001426 
L 579.976827 309.241779 
L 581.167851 297.595257 
L 581.763362 293.421089 
L 582.358874 290.626651 
L 582.954385 293.695009 
L 583.549897 287.755359 
L 584.74092 267.540742 
L 585.931944 242.517558 
L 586.527455 228.854419 
L 588.31399 198.376946 
L 588.909502 201.831798 
L 589.505014 200.553815 
L 590.100525 198.383291 
L 591.291549 195.588287 
L 592.482572 192.255597 
L 593.078084 193.683766 
L 593.673595 195.73347 
L 594.269107 200.453756 
L 596.055642 239.477537 
L 598.437688 307.758855 
L 599.0332 313.274716 
L 599.628712 316.660036 
L 600.224223 317.684533 
L 601.415247 317.715888 
L 602.010758 317.118159 
L 602.60627 316.08248 
L 603.201782 315.436097 
L 603.797293 306.158481 
L 605.583828 263.211571 
L 606.774851 230.852883 
L 607.965875 203.094382 
L 608.561386 200.6389 
L 609.156898 212.07545 
L 611.538945 284.755807 
L 612.729968 320.556725 
L 613.32548 322.147026 
L 615.112015 316.950684 
L 615.707526 313.557581 
L 616.303038 308.897065 
L 617.494061 297.908586 
L 619.876108 292.722828 
L 621.067131 299.563709 
L 624.044689 300.758366 
L 624.640201 302.352404 
L 627.617759 312.821187 
L 628.213271 313.875423 
L 631.190829 310.487655 
L 631.786341 310.08729 
L 632.381852 313.374504 
L 633.572876 325.737712 
L 634.168387 330.218485 
L 635.359411 334.978831 
L 635.954922 334.996307 
L 637.145946 320.225111 
L 640.123504 287.119343 
L 640.719015 283.241211 
L 641.314527 287.643135 
L 641.910039 296.987072 
L 643.101062 318.74621 
L 643.696574 326.988704 
L 644.292085 329.718209 
L 646.07862 317.156625 
L 649.056179 292.974956 
L 649.65169 294.624672 
L 650.247202 296.820654 
L 652.629248 311.020343 
L 653.22476 309.713272 
L 653.820272 306.516389 
L 656.202318 318.263045 
L 656.79783 317.551337 
L 657.393342 314.168347 
L 658.584365 306.461041 
L 660.3709 295.932091 
L 660.966412 295.094271 
L 661.561923 300.649314 
L 663.94397 318.493837 
L 664.539481 321.808635 
L 668.112551 301.547655 
L 668.708063 301.464606 
L 671.09011 309.358236 
L 671.685621 310.905937 
L 672.281133 309.545255 
L 672.876645 303.688764 
L 673.472156 289.559363 
L 675.854203 246.688037 
L 679.427273 206.26328 
L 679.427273 206.26328 
" clip-path="url(#pc9cc289be3)" style="fill: none; stroke: #ff8c00; stroke-width: 1.5; stroke-linecap: square"/>
   </g>
   <g id="line2d_16">
    <path d="M 83.972727 325.845684 
L 84.567886 323.258353 
L 86.948519 301.2875 
L 87.543677 296.205177 
L 88.138836 294.322171 
L 88.733994 296.805521 
L 90.519469 319.262087 
L 91.114627 323.278447 
L 91.709786 326.025569 
L 92.304944 323.169979 
L 95.280736 280.65002 
L 95.875894 278.508084 
L 96.471052 277.862772 
L 97.066211 271.498979 
L 98.256527 249.541962 
L 99.446844 221.15491 
L 101.232319 175.522528 
L 101.827477 174.660663 
L 104.208111 312.59166 
L 104.803269 325.428545 
L 105.993586 321.00657 
L 106.588744 318.980059 
L 107.183903 317.48318 
L 107.779061 318.286386 
L 108.969378 311.363222 
L 109.564536 308.31204 
L 110.159694 306.856158 
L 111.350011 307.593978 
L 111.945169 309.300544 
L 112.540328 314.747533 
L 113.135486 316.35588 
L 113.730644 314.68915 
L 114.920961 309.336624 
L 115.516119 305.247712 
L 117.896753 283.578878 
L 118.491911 282.176896 
L 119.682228 282.19918 
L 120.277386 286.290713 
L 121.467703 303.470453 
L 122.062861 310.233815 
L 122.658019 311.067515 
L 123.253178 311.12117 
L 123.848336 309.444194 
L 126.228969 289.458469 
L 126.824128 288.361325 
L 129.204761 302.787648 
L 129.799919 306.105177 
L 130.395078 307.615413 
L 130.990236 309.794772 
L 132.180553 322.45369 
L 133.37087 336.035123 
L 133.966028 338.295289 
L 134.561186 337.148711 
L 135.156345 334.955918 
L 137.536978 314.155878 
L 138.132136 315.913146 
L 138.727295 316.862911 
L 141.107928 316.178452 
L 141.703086 315.067117 
L 142.298245 310.194967 
L 142.893403 307.607749 
L 145.274036 299.795839 
L 146.464353 289.476306 
L 147.059511 285.504829 
L 148.844986 288.600484 
L 149.440145 291.685453 
L 150.035303 300.72306 
L 150.630461 305.525177 
L 151.22562 308.570411 
L 152.415936 307.342652 
L 153.011095 302.902567 
L 154.79657 283.268988 
L 155.986886 273.258816 
L 156.582045 269.834843 
L 157.177203 273.832968 
L 158.962678 289.744038 
L 159.557837 296.523616 
L 160.152995 294.167072 
L 162.533628 272.222785 
L 163.128787 259.030028 
L 164.319103 222.342215 
L 164.914262 211.578613 
L 166.104578 234.199449 
L 166.699737 248.342038 
L 168.485212 305.28944 
L 169.08037 304.743845 
L 169.675528 304.041055 
L 170.865845 297.359003 
L 171.461003 298.418062 
L 172.056162 301.829787 
L 172.65132 308.597591 
L 173.841637 318.42741 
L 174.436795 319.66639 
L 175.031953 318.213522 
L 175.627112 315.780567 
L 176.817428 308.584087 
L 177.412587 306.061874 
L 178.007745 308.168647 
L 178.602903 307.776354 
L 180.388378 307.397013 
L 180.983537 305.067189 
L 182.173853 296.672556 
L 182.769012 297.404037 
L 183.36417 298.496351 
L 184.554487 303.918325 
L 187.530279 317.962433 
L 189.315754 324.652138 
L 189.910912 325.632207 
L 190.50607 325.153854 
L 193.481862 303.365005 
L 194.07702 303.553083 
L 196.457654 307.487647 
L 197.052812 306.014057 
L 198.243129 297.967547 
L 199.433445 292.998916 
L 200.028604 293.014227 
L 200.623762 294.804013 
L 202.409237 310.267363 
L 203.004395 318.304367 
L 204.194712 324.993079 
L 205.385029 325.487648 
L 205.980187 325.495163 
L 206.575345 325.035242 
L 207.170504 325.211642 
L 208.36082 327.545692 
L 209.551137 330.052752 
L 210.146295 330.702082 
L 210.741454 329.745823 
L 211.931771 323.512534 
L 213.717246 313.68726 
L 214.312404 313.569108 
L 214.907562 313.787203 
L 215.502721 314.653811 
L 217.288196 318.259747 
L 217.883354 317.69448 
L 219.668829 313.861408 
L 220.263987 312.205101 
L 220.859146 312.180891 
L 223.239779 331.530633 
L 223.834937 342.41111 
L 224.430096 345.356671 
L 226.215571 351.383813 
L 226.810729 351.107803 
L 227.405887 342.521485 
L 228.596204 305.435898 
L 230.976837 221.097713 
L 232.167154 184.289692 
L 232.762312 167.454355 
L 233.357471 185.500196 
L 235.738104 315.237802 
L 236.333262 330.792268 
L 236.928421 331.745123 
L 240.499371 318.877486 
L 241.094529 317.994822 
L 242.880004 314.574381 
L 243.475163 312.82238 
L 244.070321 309.226846 
L 245.855796 295.03913 
L 246.450954 290.191897 
L 247.046113 286.932656 
L 247.641271 284.833467 
L 250.617063 267.542922 
L 251.212221 263.08047 
L 252.402538 256.454151 
L 252.997696 256.120368 
L 253.592854 262.772844 
L 254.783171 272.649594 
L 256.568646 291.335944 
L 257.163804 294.504428 
L 257.758963 299.032678 
L 258.354121 302.630995 
L 258.949279 304.556141 
L 259.544438 307.561146 
L 260.139596 307.702371 
L 260.734754 306.721674 
L 261.329913 304.35391 
L 261.925071 300.453718 
L 263.710546 279.681122 
L 264.900863 252.136021 
L 265.496021 244.813299 
L 266.091179 239.670709 
L 267.876655 238.908994 
L 268.471813 237.8322 
L 269.066971 242.590008 
L 270.257288 269.428679 
L 270.852446 282.164853 
L 272.042763 299.718273 
L 272.637921 305.71465 
L 273.23308 302.32564 
L 274.423396 293.502012 
L 275.613713 290.235861 
L 276.208871 293.385739 
L 276.80403 295.436249 
L 278.589505 304.562099 
L 279.184663 306.60341 
L 279.779821 300.890573 
L 280.37498 287.52589 
L 282.755613 209.686843 
L 283.94593 186.033496 
L 284.541088 183.324863 
L 286.326563 235.113747 
L 286.921721 245.786404 
L 287.51688 252.337564 
L 288.707196 260.944651 
L 289.897513 252.948396 
L 290.492671 249.345906 
L 291.682988 263.878554 
L 294.063622 294.774256 
L 297.039413 314.645381 
L 297.634572 315.628092 
L 298.22973 316.227596 
L 300.015205 337.728337 
L 300.610363 339.093887 
L 301.205522 338.306796 
L 301.80068 335.040241 
L 303.586155 313.030319 
L 304.181313 312.092161 
L 304.776472 312.976505 
L 305.966788 315.804488 
L 306.561947 319.277755 
L 307.157105 321.484511 
L 308.347422 316.488503 
L 309.537738 313.771357 
L 310.132897 309.019883 
L 310.728055 307.245401 
L 313.108688 243.914767 
L 313.703847 227.007285 
L 314.894163 204.749538 
L 316.08448 184.310873 
L 316.679638 204.082736 
L 317.869955 250.465867 
L 319.65543 306.298822 
L 320.250588 304.743424 
L 320.845747 306.316332 
L 321.440905 311.382796 
L 323.22638 331.016829 
L 323.821539 332.91332 
L 324.416697 330.775704 
L 325.607014 318.216592 
L 326.202172 312.25793 
L 326.79733 310.356952 
L 327.392489 309.29266 
L 327.987647 310.154555 
L 329.177964 327.285565 
L 330.36828 345.685081 
L 331.558597 353.241445 
L 332.153755 350.241754 
L 332.748914 346.036217 
L 334.534389 318.088942 
L 335.724705 303.722115 
L 337.51018 281.161806 
L 338.105339 282.584905 
L 341.08113 336.220922 
L 341.676289 341.447551 
L 342.271447 345.351189 
L 343.461764 340.689125 
L 344.056922 338.207328 
L 344.65208 335.220732 
L 345.247239 330.247203 
L 347.627872 305.8171 
L 348.22303 303.707329 
L 348.818189 309.295261 
L 351.198822 336.109364 
L 351.793981 332.223443 
L 354.174614 290.441416 
L 354.769772 289.524463 
L 355.960089 302.18849 
L 357.745564 330.92758 
L 358.340722 330.130998 
L 358.935881 330.877718 
L 359.531039 330.24408 
L 361.316514 319.789289 
L 361.911672 312.952337 
L 362.506831 312.147931 
L 363.697147 319.73471 
L 364.292306 323.750822 
L 365.482622 334.069891 
L 366.077781 337.098411 
L 367.863256 342.642662 
L 368.458414 343.884918 
L 369.053572 340.457044 
L 369.648731 333.855035 
L 372.029364 329.481511 
L 372.624522 327.84648 
L 373.814839 341.688357 
L 375.600314 357.61189 
L 376.195473 359.242499 
L 377.385789 358.457771 
L 379.171264 361.777272 
L 379.766423 360.936709 
L 380.361581 359.467313 
L 380.956739 357.197711 
L 382.147056 351.058962 
L 382.742214 348.751441 
L 383.932531 318.631186 
L 386.313164 255.561713 
L 386.908323 235.305819 
L 387.503481 231.585542 
L 388.098639 237.141254 
L 389.288956 245.399591 
L 389.884114 255.871876 
L 392.264748 315.987622 
L 392.859906 321.073926 
L 395.835698 296.25878 
L 398.216331 228.728076 
L 398.811489 217.832959 
L 400.001806 200.330717 
L 400.596964 186.669515 
L 401.192123 187.522847 
L 403.572756 279.016166 
L 404.167915 292.473907 
L 405.95339 291.340684 
L 406.548548 296.621222 
L 407.738865 316.271023 
L 408.334023 322.603521 
L 409.52434 332.364175 
L 410.119498 333.154675 
L 410.714656 333.048367 
L 411.309815 332.560439 
L 411.904973 331.424457 
L 412.500131 334.011277 
L 413.09529 333.606121 
L 414.285606 329.114984 
L 414.880765 329.00854 
L 415.475923 328.539332 
L 418.451715 233.612736 
L 419.046873 218.013481 
L 419.642031 206.131437 
L 420.23719 198.409297 
L 420.832348 214.684379 
L 422.022665 268.466525 
L 423.212981 313.738476 
L 423.80814 334.478323 
L 424.998456 341.3765 
L 426.783931 356.481514 
L 427.974248 349.379994 
L 428.569406 342.474317 
L 429.759723 320.660162 
L 430.95004 305.645975 
L 431.545198 296.363346 
L 432.140357 280.866341 
L 432.735515 269.899527 
L 434.52099 220.539334 
L 435.116148 203.740584 
L 435.711307 190.486524 
L 436.306465 209.12507 
L 438.687098 326.798111 
L 439.282257 334.076444 
L 439.877415 336.243456 
L 440.472573 337.033114 
L 441.067732 336.466006 
L 441.66289 334.654488 
L 445.23384 314.247071 
L 445.828998 317.241989 
L 446.424157 321.571156 
L 447.019315 323.96677 
L 447.614473 327.18407 
L 448.209632 332.143001 
L 448.80479 329.859207 
L 449.995107 323.990834 
L 451.185423 321.183984 
L 451.780582 323.611777 
L 453.566057 335.314626 
L 454.756373 345.263578 
L 455.351532 347.359127 
L 457.137007 351.582982 
L 457.732165 351.54267 
L 458.327324 349.1744 
L 460.707957 325.869887 
L 461.898274 320.216346 
L 462.493432 321.105974 
L 463.683749 326.392605 
L 464.278907 330.84101 
L 465.469224 344.400049 
L 467.254699 348.552238 
L 467.849857 349.622569 
L 469.040174 345.922243 
L 469.635332 346.577107 
L 470.825649 352.998633 
L 471.420807 355.523853 
L 472.015965 357.012638 
L 472.611124 349.320735 
L 475.586915 271.462809 
L 476.777232 240.907592 
L 477.967549 214.460062 
L 480.94334 323.690952 
L 481.538499 335.630138 
L 482.133657 341.728758 
L 482.728815 346.508191 
L 483.919132 351.965771 
L 484.51429 353.766555 
L 486.894924 334.888021 
L 487.490082 331.156269 
L 488.680399 320.88941 
L 489.275557 320.006831 
L 490.465874 319.29995 
L 491.061032 317.953132 
L 492.846507 296.718788 
L 496.417457 232.228916 
L 497.012616 228.841069 
L 499.393249 252.582516 
L 499.988407 255.955629 
L 501.178724 256.67465 
L 501.773882 259.659046 
L 504.749674 348.078853 
L 505.344832 354.673948 
L 506.535149 347.231588 
L 507.130307 344.036034 
L 507.725466 341.730481 
L 508.915782 338.830857 
L 509.510941 336.66564 
L 510.106099 332.830497 
L 510.701257 315.909054 
L 511.891574 272.780903 
L 514.272208 182.205389 
L 514.867366 190.484549 
L 515.462524 210.429908 
L 517.843158 303.374955 
L 518.438316 320.713467 
L 519.628633 334.762541 
L 520.818949 349.678574 
L 521.414108 353.318091 
L 522.009266 355.119782 
L 522.604424 355.447307 
L 523.199583 355.292137 
L 524.389899 353.149548 
L 526.175374 351.098346 
L 526.770533 348.611532 
L 527.960849 346.380176 
L 528.556008 346.234239 
L 529.746324 347.010837 
L 530.341483 347.893418 
L 531.531799 345.621626 
L 533.317274 330.187446 
L 535.697908 309.368605 
L 536.293066 304.996909 
L 536.888224 303.421696 
L 539.268858 312.996298 
L 539.864016 315.826194 
L 540.459175 320.498519 
L 543.434966 362.811242 
L 545.220441 353.883076 
L 545.8156 349.927728 
L 546.410758 343.546348 
L 547.005916 339.871403 
L 548.791391 338.914461 
L 549.38655 340.380844 
L 549.981708 342.446988 
L 550.576866 349.428706 
L 551.172025 350.888749 
L 552.362341 354.203229 
L 552.9575 354.141214 
L 554.742975 341.833659 
L 555.338133 340.75129 
L 555.933291 339.329974 
L 556.52845 338.522058 
L 558.313925 333.604874 
L 558.909083 330.134093 
L 559.504241 325.478498 
L 560.694558 312.620209 
L 561.289716 307.883237 
L 561.884875 306.204309 
L 563.075191 310.159728 
L 563.67035 314.601293 
L 564.860666 328.389065 
L 565.455825 333.060487 
L 566.646141 337.698722 
L 567.2413 339.590138 
L 567.836458 339.095903 
L 568.431617 337.046021 
L 569.026775 333.099425 
L 569.621933 331.753773 
L 570.81225 330.001802 
L 571.407408 329.955637 
L 572.002567 330.871301 
L 573.192883 335.835068 
L 574.3832 340.169346 
L 574.978358 340.243207 
L 575.573517 339.850427 
L 576.168675 338.557336 
L 576.763833 336.570583 
L 577.358992 337.950835 
L 578.549308 341.90073 
L 579.144467 344.018209 
L 579.739625 344.536509 
L 580.929942 341.47477 
L 581.5251 340.805168 
L 583.905733 332.823979 
L 584.500892 333.868322 
L 585.09605 334.095165 
L 585.691208 334.883109 
L 586.881525 339.683014 
L 587.476683 339.41531 
L 588.071842 337.894257 
L 588.667 336.816502 
L 589.262158 336.40247 
L 591.047633 332.784855 
L 591.642792 337.969148 
L 592.833108 340.230475 
L 593.428267 339.796875 
L 594.023425 339.105408 
L 594.618584 337.044969 
L 595.8089 330.494011 
L 597.594375 337.574012 
L 598.784692 338.894201 
L 599.37985 340.396078 
L 599.975009 342.587707 
L 600.570167 342.612359 
L 602.355642 340.32563 
L 602.9508 338.746143 
L 604.736275 329.59428 
L 605.331434 325.0405 
L 605.926592 323.444647 
L 606.52175 320.804039 
L 607.116909 316.102025 
L 608.307225 313.269042 
L 609.497542 320.476812 
L 610.0927 324.068766 
L 610.687859 326.034403 
L 611.283017 330.314557 
L 611.878175 338.456836 
L 612.473334 344.445377 
L 613.66365 350.304311 
L 614.258809 350.15317 
L 614.853967 346.868993 
L 615.449125 342.468817 
L 616.044284 336.829103 
L 616.639442 332.48735 
L 617.829759 326.712749 
L 618.424917 322.152961 
L 619.020075 313.501218 
L 619.615234 314.991964 
L 620.210392 317.272572 
L 622.591026 321.837758 
L 623.186184 325.47537 
L 624.376501 318.541925 
L 626.757134 303.372762 
L 627.352292 298.382887 
L 627.947451 304.351087 
L 630.328084 345.713973 
L 630.923242 351.572561 
L 631.518401 344.309361 
L 634.494192 286.310662 
L 635.089351 281.833815 
L 635.684509 280.825767 
L 636.874826 305.64757 
L 638.065142 330.074093 
L 639.850617 358.942346 
L 641.636092 365.961894 
L 642.231251 366.42958 
L 642.826409 364.999665 
L 644.016726 359.274908 
L 645.802201 351.405611 
L 646.397359 351.086488 
L 646.992517 350.141649 
L 648.777992 350.663754 
L 649.373151 350.692 
L 649.968309 349.909442 
L 650.563468 350.094205 
L 652.348943 356.195382 
L 652.944101 356.981155 
L 653.539259 356.948434 
L 654.134418 355.361123 
L 654.729576 352.041131 
L 656.515051 338.321334 
L 657.110209 337.002806 
L 658.300526 335.000141 
L 658.895684 334.416887 
L 659.490843 334.483529 
L 660.086001 341.845813 
L 661.276318 354.02832 
L 663.061793 373.467273 
L 664.252109 366.330921 
L 666.037584 279.810286 
L 667.227901 222.593475 
L 668.418218 167.551698 
L 670.203693 79.276941 
L 670.798851 73.017715 
L 673.179484 224.49675 
L 674.964959 340.567061 
L 676.155276 344.089344 
L 677.940751 348.535845 
L 678.53591 349.762164 
L 678.53591 349.762164 
" clip-path="url(#pc9cc289be3)" style="fill: none; stroke: #8b0000; stroke-width: 1.5; stroke-linecap: square"/>
   </g>
   <g id="patch_3">
    <path d="M 54.2 390.04 
L 54.2 25.44 
" style="fill: none; stroke: #000000; stroke-width: 0.8; stroke-linejoin: miter; stroke-linecap: square"/>
   </g>
   <g id="patch_4">
    <path d="M 709.2 390.04 
L 709.2 25.44 
" style="fill: none; stroke: #000000; stroke-width: 0.8; stroke-linejoin: miter; stroke-linecap: square"/>
   </g>
   <g id="patch_5">
    <path d="M 54.2 390.04 
L 709.2 390.04 
" style="fill: none; stroke: #000000; stroke-width: 0.8; stroke-linejoin: miter; stroke-linecap: square"/>
   </g>
   <g id="patch_6">
    <path d="M 54.2 25.44 
L 709.2 25.44 
" style="fill: none; stroke: #000000; stroke-width: 0.8; stroke-linejoin: miter; stroke-linecap: square"/>
   </g>
   <g id="text_16">
    <!-- Policy Algorithms Comparison on AlienNoFrameskip-v4 -->
    <g transform="translate(217.669375 19.44) scale(0.12 -0.12)">
     <defs>
      <path id="DejaVuSans-50" d="M 1259 4147 
L 1259 2394 
L 2053 2394 
Q 2494 2394 2734 2622 
Q 2975 2850 2975 3272 
Q 2975 3691 2734 3919 
Q 2494 4147 2053 4147 
L 1259 4147 
z
M 628 4666 
L 2053 4666 
Q 2838 4666 3239 4311 
Q 3641 3956 3641 3272 
Q 3641 2581 3239 2228 
Q 2838 1875 2053 1875 
L 1259 1875 
L 1259 0 
L 628 0 
L 628 4666 
z
" transform="scale(0.015625)"/>
      <path id="DejaVuSans-79" d="M 2059 -325 
Q 1816 -950 1584 -1140 
Q 1353 -1331 966 -1331 
L 506 -1331 
L 506 -850 
L 844 -850 
Q 1081 -850 1212 -737 
Q 1344 -625 1503 -206 
L 1606 56 
L 191 3500 
L 800 3500 
L 1894 763 
L 2988 3500 
L 3597 3500 
L 2059 -325 
z
" transform="scale(0.015625)"/>
      <path id="DejaVuSans-41" d="M 2188 4044 
L 1331 1722 
L 3047 1722 
L 2188 4044 
z
M 1831 4666 
L 2547 4666 
L 4325 0 
L 3669 0 
L 3244 1197 
L 1141 1197 
L 716 0 
L 50 0 
L 1831 4666 
z
" transform="scale(0.015625)"/>
      <path id="DejaVuSans-67" d="M 2906 1791 
Q 2906 2416 2648 2759 
Q 2391 3103 1925 3103 
Q 1463 3103 1205 2759 
Q 947 2416 947 1791 
Q 947 1169 1205 825 
Q 1463 481 1925 481 
Q 2391 481 2648 825 
Q 2906 1169 2906 1791 
z
M 3481 434 
Q 3481 -459 3084 -895 
Q 2688 -1331 1869 -1331 
Q 1566 -1331 1297 -1286 
Q 1028 -1241 775 -1147 
L 775 -588 
Q 1028 -725 1275 -790 
Q 1522 -856 1778 -856 
Q 2344 -856 2625 -561 
Q 2906 -266 2906 331 
L 2906 616 
Q 2728 306 2450 153 
Q 2172 0 1784 0 
Q 1141 0 747 490 
Q 353 981 353 1791 
Q 353 2603 747 3093 
Q 1141 3584 1784 3584 
Q 2172 3584 2450 3431 
Q 2728 3278 2906 2969 
L 2906 3500 
L 3481 3500 
L 3481 434 
z
" transform="scale(0.015625)"/>
      <path id="DejaVuSans-68" d="M 3513 2113 
L 3513 0 
L 2938 0 
L 2938 2094 
Q 2938 2591 2744 2837 
Q 2550 3084 2163 3084 
Q 1697 3084 1428 2787 
Q 1159 2491 1159 1978 
L 1159 0 
L 581 0 
L 581 4863 
L 1159 4863 
L 1159 2956 
Q 1366 3272 1645 3428 
Q 1925 3584 2291 3584 
Q 2894 3584 3203 3211 
Q 3513 2838 3513 2113 
z
" transform="scale(0.015625)"/>
      <path id="DejaVuSans-43" d="M 4122 4306 
L 4122 3641 
Q 3803 3938 3442 4084 
Q 3081 4231 2675 4231 
Q 1875 4231 1450 3742 
Q 1025 3253 1025 2328 
Q 1025 1406 1450 917 
Q 1875 428 2675 428 
Q 3081 428 3442 575 
Q 3803 722 4122 1019 
L 4122 359 
Q 3791 134 3420 21 
Q 3050 -91 2638 -91 
Q 1578 -91 968 557 
Q 359 1206 359 2328 
Q 359 3453 968 4101 
Q 1578 4750 2638 4750 
Q 3056 4750 3426 4639 
Q 3797 4528 4122 4306 
z
" transform="scale(0.015625)"/>
      <path id="DejaVuSans-46" d="M 628 4666 
L 3309 4666 
L 3309 4134 
L 1259 4134 
L 1259 2759 
L 3109 2759 
L 3109 2228 
L 1259 2228 
L 1259 0 
L 628 0 
L 628 4666 
z
" transform="scale(0.015625)"/>
      <path id="DejaVuSans-6b" d="M 581 4863 
L 1159 4863 
L 1159 1991 
L 2875 3500 
L 3609 3500 
L 1753 1863 
L 3688 0 
L 2938 0 
L 1159 1709 
L 1159 0 
L 581 0 
L 581 4863 
z
" transform="scale(0.015625)"/>
      <path id="DejaVuSans-2d" d="M 313 2009 
L 1997 2009 
L 1997 1497 
L 313 1497 
L 313 2009 
z
" transform="scale(0.015625)"/>
      <path id="DejaVuSans-76" d="M 191 3500 
L 800 3500 
L 1894 563 
L 2988 3500 
L 3597 3500 
L 2284 0 
L 1503 0 
L 191 3500 
z
" transform="scale(0.015625)"/>
     </defs>
     <use xlink:href="#DejaVuSans-50"/>
     <use xlink:href="#DejaVuSans-6f" transform="translate(56.677734 0)"/>
     <use xlink:href="#DejaVuSans-6c" transform="translate(117.859375 0)"/>
     <use xlink:href="#DejaVuSans-69" transform="translate(145.642578 0)"/>
     <use xlink:href="#DejaVuSans-63" transform="translate(173.425781 0)"/>
     <use xlink:href="#DejaVuSans-79" transform="translate(228.40625 0)"/>
     <use xlink:href="#DejaVuSans-20" transform="translate(287.585938 0)"/>
     <use xlink:href="#DejaVuSans-41" transform="translate(319.373047 0)"/>
     <use xlink:href="#DejaVuSans-6c" transform="translate(387.78125 0)"/>
     <use xlink:href="#DejaVuSans-67" transform="translate(415.564453 0)"/>
     <use xlink:href="#DejaVuSans-6f" transform="translate(479.041016 0)"/>
     <use xlink:href="#DejaVuSans-72" transform="translate(540.222656 0)"/>
     <use xlink:href="#DejaVuSans-69" transform="translate(581.335938 0)"/>
     <use xlink:href="#DejaVuSans-74" transform="translate(609.119141 0)"/>
     <use xlink:href="#DejaVuSans-68" transform="translate(648.328125 0)"/>
     <use xlink:href="#DejaVuSans-6d" transform="translate(711.707031 0)"/>
     <use xlink:href="#DejaVuSans-73" transform="translate(809.119141 0)"/>
     <use xlink:href="#DejaVuSans-20" transform="translate(861.21875 0)"/>
     <use xlink:href="#DejaVuSans-43" transform="translate(893.005859 0)"/>
     <use xlink:href="#DejaVuSans-6f" transform="translate(962.830078 0)"/>
     <use xlink:href="#DejaVuSans-6d" transform="translate(1024.011719 0)"/>
     <use xlink:href="#DejaVuSans-70" transform="translate(1121.423828 0)"/>
     <use xlink:href="#DejaVuSans-61" transform="translate(1184.900391 0)"/>
     <use xlink:href="#DejaVuSans-72" transform="translate(1246.179688 0)"/>
     <use xlink:href="#DejaVuSans-69" transform="translate(1287.292969 0)"/>
     <use xlink:href="#DejaVuSans-73" transform="translate(1315.076172 0)"/>
     <use xlink:href="#DejaVuSans-6f" transform="translate(1367.175781 0)"/>
     <use xlink:href="#DejaVuSans-6e" transform="translate(1428.357422 0)"/>
     <use xlink:href="#DejaVuSans-20" transform="translate(1491.736328 0)"/>
     <use xlink:href="#DejaVuSans-6f" transform="translate(1523.523438 0)"/>
     <use xlink:href="#DejaVuSans-6e" transform="translate(1584.705078 0)"/>
     <use xlink:href="#DejaVuSans-20" transform="translate(1648.083984 0)"/>
     <use xlink:href="#DejaVuSans-41" transform="translate(1679.871094 0)"/>
     <use xlink:href="#DejaVuSans-6c" transform="translate(1748.279297 0)"/>
     <use xlink:href="#DejaVuSans-69" transform="translate(1776.0625 0)"/>
     <use xlink:href="#DejaVuSans-65" transform="translate(1803.845703 0)"/>
     <use xlink:href="#DejaVuSans-6e" transform="translate(1865.369141 0)"/>
     <use xlink:href="#DejaVuSans-4e" transform="translate(1928.748047 0)"/>
     <use xlink:href="#DejaVuSans-6f" transform="translate(2003.552734 0)"/>
     <use xlink:href="#DejaVuSans-46" transform="translate(2064.734375 0)"/>
     <use xlink:href="#DejaVuSans-72" transform="translate(2115.003906 0)"/>
     <use xlink:href="#DejaVuSans-61" transform="translate(2156.117188 0)"/>
     <use xlink:href="#DejaVuSans-6d" transform="translate(2217.396484 0)"/>
     <use xlink:href="#DejaVuSans-65" transform="translate(2314.808594 0)"/>
     <use xlink:href="#DejaVuSans-73" transform="translate(2376.332031 0)"/>
     <use xlink:href="#DejaVuSans-6b" transform="translate(2428.431641 0)"/>
     <use xlink:href="#DejaVuSans-69" transform="translate(2486.341797 0)"/>
     <use xlink:href="#DejaVuSans-70" transform="translate(2514.125 0)"/>
     <use xlink:href="#DejaVuSans-2d" transform="translate(2577.601562 0)"/>
     <use xlink:href="#DejaVuSans-76" transform="translate(2611.060547 0)"/>
     <use xlink:href="#DejaVuSans-34" transform="translate(2670.240234 0)"/>
    </g>
   </g>
   <g id="legend_1">
    <g id="patch_7">
     <path d="M 61.2 92.986875 
L 165.596875 92.986875 
Q 167.596875 92.986875 167.596875 90.986875 
L 167.596875 32.44 
Q 167.596875 30.44 165.596875 30.44 
L 61.2 30.44 
Q 59.2 30.44 59.2 32.44 
L 59.2 90.986875 
Q 59.2 92.986875 61.2 92.986875 
z
" style="fill: #ffffff; opacity: 0.8; stroke: #cccccc; stroke-linejoin: miter"/>
    </g>
    <g id="text_17">
     <!-- Algorithm -->
     <g transform="translate(88.911719 42.038437) scale(0.1 -0.1)">
      <use xlink:href="#DejaVuSans-41"/>
      <use xlink:href="#DejaVuSans-6c" transform="translate(68.408203 0)"/>
      <use xlink:href="#DejaVuSans-67" transform="translate(96.191406 0)"/>
      <use xlink:href="#DejaVuSans-6f" transform="translate(159.667969 0)"/>
      <use xlink:href="#DejaVuSans-72" transform="translate(220.849609 0)"/>
      <use xlink:href="#DejaVuSans-69" transform="translate(261.962891 0)"/>
      <use xlink:href="#DejaVuSans-74" transform="translate(289.746094 0)"/>
      <use xlink:href="#DejaVuSans-68" transform="translate(328.955078 0)"/>
      <use xlink:href="#DejaVuSans-6d" transform="translate(392.333984 0)"/>
     </g>
    </g>
    <g id="line2d_17">
     <path d="M 63.2 53.216563 
L 73.2 53.216563 
L 83.2 53.216563 
" style="fill: none; stroke: #00008b; stroke-width: 1.5; stroke-linecap: square"/>
    </g>
    <g id="text_18">
     <!-- ppo_atari -->
     <g transform="translate(91.2 56.716563) scale(0.1 -0.1)">
      <defs>
       <path id="DejaVuSans-5f" d="M 3263 -1063 
L 3263 -1509 
L -63 -1509 
L -63 -1063 
L 3263 -1063 
z
" transform="scale(0.015625)"/>
      </defs>
      <use xlink:href="#DejaVuSans-70"/>
      <use xlink:href="#DejaVuSans-70" transform="translate(63.476562 0)"/>
      <use xlink:href="#DejaVuSans-6f" transform="translate(126.953125 0)"/>
      <use xlink:href="#DejaVuSans-5f" transform="translate(188.134766 0)"/>
      <use xlink:href="#DejaVuSans-61" transform="translate(238.134766 0)"/>
      <use xlink:href="#DejaVuSans-74" transform="translate(299.414062 0)"/>
      <use xlink:href="#DejaVuSans-61" transform="translate(338.623047 0)"/>
      <use xlink:href="#DejaVuSans-72" transform="translate(399.902344 0)"/>
      <use xlink:href="#DejaVuSans-69" transform="translate(441.015625 0)"/>
     </g>
    </g>
    <g id="line2d_18">
     <path d="M 63.2 68.172813 
L 73.2 68.172813 
L 83.2 68.172813 
" style="fill: none; stroke: #ff8c00; stroke-width: 1.5; stroke-linecap: square"/>
    </g>
    <g id="text_19">
     <!-- reinforce_atari -->
     <g transform="translate(91.2 71.672813) scale(0.1 -0.1)">
      <defs>
       <path id="DejaVuSans-66" d="M 2375 4863 
L 2375 4384 
L 1825 4384 
Q 1516 4384 1395 4259 
Q 1275 4134 1275 3809 
L 1275 3500 
L 2222 3500 
L 2222 3053 
L 1275 3053 
L 1275 0 
L 697 0 
L 697 3053 
L 147 3053 
L 147 3500 
L 697 3500 
L 697 3744 
Q 697 4328 969 4595 
Q 1241 4863 1831 4863 
L 2375 4863 
z
" transform="scale(0.015625)"/>
      </defs>
      <use xlink:href="#DejaVuSans-72"/>
      <use xlink:href="#DejaVuSans-65" transform="translate(38.863281 0)"/>
      <use xlink:href="#DejaVuSans-69" transform="translate(100.386719 0)"/>
      <use xlink:href="#DejaVuSans-6e" transform="translate(128.169922 0)"/>
      <use xlink:href="#DejaVuSans-66" transform="translate(191.548828 0)"/>
      <use xlink:href="#DejaVuSans-6f" transform="translate(226.753906 0)"/>
      <use xlink:href="#DejaVuSans-72" transform="translate(287.935547 0)"/>
      <use xlink:href="#DejaVuSans-63" transform="translate(326.798828 0)"/>
      <use xlink:href="#DejaVuSans-65" transform="translate(381.779297 0)"/>
      <use xlink:href="#DejaVuSans-5f" transform="translate(443.302734 0)"/>
      <use xlink:href="#DejaVuSans-61" transform="translate(493.302734 0)"/>
      <use xlink:href="#DejaVuSans-74" transform="translate(554.582031 0)"/>
      <use xlink:href="#DejaVuSans-61" transform="translate(593.791016 0)"/>
      <use xlink:href="#DejaVuSans-72" transform="translate(655.070312 0)"/>
      <use xlink:href="#DejaVuSans-69" transform="translate(696.183594 0)"/>
     </g>
    </g>
    <g id="line2d_19">
     <path d="M 63.2 83.129063 
L 73.2 83.129063 
L 83.2 83.129063 
" style="fill: none; stroke: #8b0000; stroke-width: 1.5; stroke-linecap: square"/>
    </g>
    <g id="text_20">
     <!-- sac_atari -->
     <g transform="translate(91.2 86.629063) scale(0.1 -0.1)">
      <use xlink:href="#DejaVuSans-73"/>
      <use xlink:href="#DejaVuSans-61" transform="translate(52.099609 0)"/>
      <use xlink:href="#DejaVuSans-63" transform="translate(113.378906 0)"/>
      <use xlink:href="#DejaVuSans-5f" transform="translate(168.359375 0)"/>
      <use xlink:href="#DejaVuSans-61" transform="translate(218.359375 0)"/>
      <use xlink:href="#DejaVuSans-74" transform="translate(279.638672 0)"/>
      <use xlink:href="#DejaVuSans-61" transform="translate(318.847656 0)"/>
      <use xlink:href="#DejaVuSans-72" transform="translate(380.126953 0)"/>
      <use xlink:href="#DejaVuSans-69" transform="translate(421.240234 0)"/>
     </g>
    </g>
   </g>
  </g>
 </g>
 <defs>
  <clipPath id="pc9cc289be3">
   <rect x="54.2" y="25.44" width="655" height="364.6"/>
  </clipPath>
 </defs>
</svg>
