<?xml version="1.0" encoding="utf-8" standalone="no"?>
<!DOCTYPE svg PUBLIC "-//W3C//DTD SVG 1.1//EN"
  "http://www.w3.org/Graphics/SVG/1.1/DTD/svg11.dtd">
<svg xmlns:xlink="http://www.w3.org/1999/xlink" width="720pt" height="432pt" viewBox="0 0 720 432" xmlns="http://www.w3.org/2000/svg" version="1.1">
 <metadata>
  <rdf:RDF xmlns:dc="http://purl.org/dc/elements/1.1/" xmlns:cc="http://creativecommons.org/ns#" xmlns:rdf="http://www.w3.org/1999/02/22-rdf-syntax-ns#">
   <cc:Work>
    <dc:type rdf:resource="http://purl.org/dc/dcmitype/StillImage"/>
    <dc:date>2025-02-09T22:57:25.743272</dc:date>
    <dc:format>image/svg+xml</dc:format>
    <dc:creator>
     <cc:Agent>
      <dc:title>Matplotlib v3.10.0, https://matplotlib.org/</dc:title>
     </cc:Agent>
    </dc:creator>
   </cc:Work>
  </rdf:RDF>
 </metadata>
 <defs>
  <style type="text/css">*{stroke-linejoin: round; stroke-linecap: butt}</style>
 </defs>
 <g id="figure_1">
  <g id="patch_1">
   <path d="M 0 432 
L 720 432 
L 720 0 
L 0 0 
z
" style="fill: #ffffff"/>
  </g>
  <g id="axes_1">
   <g id="patch_2">
    <path d="M 62.57 390.04 
L 709.2 390.04 
L 709.2 25.44 
L 62.57 25.44 
z
" style="fill: #ffffff"/>
   </g>
   <g id="matplotlib.axis_1">
    <g id="xtick_1">
     <g id="line2d_1">
      <defs>
       <path id="mc29ddc36f3" d="M 0 0 
L 0 3.5 
" style="stroke: #000000; stroke-width: 0.8"/>
      </defs>
      <g>
       <use xlink:href="#mc29ddc36f3" x="88.802639" y="390.04" style="stroke: #000000; stroke-width: 0.8"/>
      </g>
     </g>
     <g id="text_1">
      <!-- 0 -->
      <g transform="translate(85.621389 404.638438) scale(0.1 -0.1)">
       <defs>
        <path id="DejaVuSans-30" d="M 2034 4250 
Q 1547 4250 1301 3770 
Q 1056 3291 1056 2328 
Q 1056 1369 1301 889 
Q 1547 409 2034 409 
Q 2525 409 2770 889 
Q 3016 1369 3016 2328 
Q 3016 3291 2770 3770 
Q 2525 4250 2034 4250 
z
M 2034 4750 
Q 2819 4750 3233 4129 
Q 3647 3509 3647 2328 
Q 3647 1150 3233 529 
Q 2819 -91 2034 -91 
Q 1250 -91 836 529 
Q 422 1150 422 2328 
Q 422 3509 836 4129 
Q 1250 4750 2034 4750 
z
" transform="scale(0.015625)"/>
       </defs>
       <use xlink:href="#DejaVuSans-30"/>
      </g>
     </g>
    </g>
    <g id="xtick_2">
     <g id="line2d_2">
      <g>
       <use xlink:href="#mc29ddc36f3" x="206.919793" y="390.04" style="stroke: #000000; stroke-width: 0.8"/>
      </g>
     </g>
     <g id="text_2">
      <!-- 20000 -->
      <g transform="translate(191.013543 404.638438) scale(0.1 -0.1)">
       <defs>
        <path id="DejaVuSans-32" d="M 1228 531 
L 3431 531 
L 3431 0 
L 469 0 
L 469 531 
Q 828 903 1448 1529 
Q 2069 2156 2228 2338 
Q 2531 2678 2651 2914 
Q 2772 3150 2772 3378 
Q 2772 3750 2511 3984 
Q 2250 4219 1831 4219 
Q 1534 4219 1204 4116 
Q 875 4013 500 3803 
L 500 4441 
Q 881 4594 1212 4672 
Q 1544 4750 1819 4750 
Q 2544 4750 2975 4387 
Q 3406 4025 3406 3419 
Q 3406 3131 3298 2873 
Q 3191 2616 2906 2266 
Q 2828 2175 2409 1742 
Q 1991 1309 1228 531 
z
" transform="scale(0.015625)"/>
       </defs>
       <use xlink:href="#DejaVuSans-32"/>
       <use xlink:href="#DejaVuSans-30" transform="translate(63.623047 0)"/>
       <use xlink:href="#DejaVuSans-30" transform="translate(127.246094 0)"/>
       <use xlink:href="#DejaVuSans-30" transform="translate(190.869141 0)"/>
       <use xlink:href="#DejaVuSans-30" transform="translate(254.492188 0)"/>
      </g>
     </g>
    </g>
    <g id="xtick_3">
     <g id="line2d_3">
      <g>
       <use xlink:href="#mc29ddc36f3" x="325.036948" y="390.04" style="stroke: #000000; stroke-width: 0.8"/>
      </g>
     </g>
     <g id="text_3">
      <!-- 40000 -->
      <g transform="translate(309.130698 404.638438) scale(0.1 -0.1)">
       <defs>
        <path id="DejaVuSans-34" d="M 2419 4116 
L 825 1625 
L 2419 1625 
L 2419 4116 
z
M 2253 4666 
L 3047 4666 
L 3047 1625 
L 3713 1625 
L 3713 1100 
L 3047 1100 
L 3047 0 
L 2419 0 
L 2419 1100 
L 313 1100 
L 313 1709 
L 2253 4666 
z
" transform="scale(0.015625)"/>
       </defs>
       <use xlink:href="#DejaVuSans-34"/>
       <use xlink:href="#DejaVuSans-30" transform="translate(63.623047 0)"/>
       <use xlink:href="#DejaVuSans-30" transform="translate(127.246094 0)"/>
       <use xlink:href="#DejaVuSans-30" transform="translate(190.869141 0)"/>
       <use xlink:href="#DejaVuSans-30" transform="translate(254.492188 0)"/>
      </g>
     </g>
    </g>
    <g id="xtick_4">
     <g id="line2d_4">
      <g>
       <use xlink:href="#mc29ddc36f3" x="443.154102" y="390.04" style="stroke: #000000; stroke-width: 0.8"/>
      </g>
     </g>
     <g id="text_4">
      <!-- 60000 -->
      <g transform="translate(427.247852 404.638438) scale(0.1 -0.1)">
       <defs>
        <path id="DejaVuSans-36" d="M 2113 2584 
Q 1688 2584 1439 2293 
Q 1191 2003 1191 1497 
Q 1191 994 1439 701 
Q 1688 409 2113 409 
Q 2538 409 2786 701 
Q 3034 994 3034 1497 
Q 3034 2003 2786 2293 
Q 2538 2584 2113 2584 
z
M 3366 4563 
L 3366 3988 
Q 3128 4100 2886 4159 
Q 2644 4219 2406 4219 
Q 1781 4219 1451 3797 
Q 1122 3375 1075 2522 
Q 1259 2794 1537 2939 
Q 1816 3084 2150 3084 
Q 2853 3084 3261 2657 
Q 3669 2231 3669 1497 
Q 3669 778 3244 343 
Q 2819 -91 2113 -91 
Q 1303 -91 875 529 
Q 447 1150 447 2328 
Q 447 3434 972 4092 
Q 1497 4750 2381 4750 
Q 2619 4750 2861 4703 
Q 3103 4656 3366 4563 
z
" transform="scale(0.015625)"/>
       </defs>
       <use xlink:href="#DejaVuSans-36"/>
       <use xlink:href="#DejaVuSans-30" transform="translate(63.623047 0)"/>
       <use xlink:href="#DejaVuSans-30" transform="translate(127.246094 0)"/>
       <use xlink:href="#DejaVuSans-30" transform="translate(190.869141 0)"/>
       <use xlink:href="#DejaVuSans-30" transform="translate(254.492188 0)"/>
      </g>
     </g>
    </g>
    <g id="xtick_5">
     <g id="line2d_5">
      <g>
       <use xlink:href="#mc29ddc36f3" x="561.271257" y="390.04" style="stroke: #000000; stroke-width: 0.8"/>
      </g>
     </g>
     <g id="text_5">
      <!-- 80000 -->
      <g transform="translate(545.365007 404.638438) scale(0.1 -0.1)">
       <defs>
        <path id="DejaVuSans-38" d="M 2034 2216 
Q 1584 2216 1326 1975 
Q 1069 1734 1069 1313 
Q 1069 891 1326 650 
Q 1584 409 2034 409 
Q 2484 409 2743 651 
Q 3003 894 3003 1313 
Q 3003 1734 2745 1975 
Q 2488 2216 2034 2216 
z
M 1403 2484 
Q 997 2584 770 2862 
Q 544 3141 544 3541 
Q 544 4100 942 4425 
Q 1341 4750 2034 4750 
Q 2731 4750 3128 4425 
Q 3525 4100 3525 3541 
Q 3525 3141 3298 2862 
Q 3072 2584 2669 2484 
Q 3125 2378 3379 2068 
Q 3634 1759 3634 1313 
Q 3634 634 3220 271 
Q 2806 -91 2034 -91 
Q 1263 -91 848 271 
Q 434 634 434 1313 
Q 434 1759 690 2068 
Q 947 2378 1403 2484 
z
M 1172 3481 
Q 1172 3119 1398 2916 
Q 1625 2713 2034 2713 
Q 2441 2713 2670 2916 
Q 2900 3119 2900 3481 
Q 2900 3844 2670 4047 
Q 2441 4250 2034 4250 
Q 1625 4250 1398 4047 
Q 1172 3844 1172 3481 
z
" transform="scale(0.015625)"/>
       </defs>
       <use xlink:href="#DejaVuSans-38"/>
       <use xlink:href="#DejaVuSans-30" transform="translate(63.623047 0)"/>
       <use xlink:href="#DejaVuSans-30" transform="translate(127.246094 0)"/>
       <use xlink:href="#DejaVuSans-30" transform="translate(190.869141 0)"/>
       <use xlink:href="#DejaVuSans-30" transform="translate(254.492188 0)"/>
      </g>
     </g>
    </g>
    <g id="xtick_6">
     <g id="line2d_6">
      <g>
       <use xlink:href="#mc29ddc36f3" x="679.388411" y="390.04" style="stroke: #000000; stroke-width: 0.8"/>
      </g>
     </g>
     <g id="text_6">
      <!-- 100000 -->
      <g transform="translate(660.300911 404.638438) scale(0.1 -0.1)">
       <defs>
        <path id="DejaVuSans-31" d="M 794 531 
L 1825 531 
L 1825 4091 
L 703 3866 
L 703 4441 
L 1819 4666 
L 2450 4666 
L 2450 531 
L 3481 531 
L 3481 0 
L 794 0 
L 794 531 
z
" transform="scale(0.015625)"/>
       </defs>
       <use xlink:href="#DejaVuSans-31"/>
       <use xlink:href="#DejaVuSans-30" transform="translate(63.623047 0)"/>
       <use xlink:href="#DejaVuSans-30" transform="translate(127.246094 0)"/>
       <use xlink:href="#DejaVuSans-30" transform="translate(190.869141 0)"/>
       <use xlink:href="#DejaVuSans-30" transform="translate(254.492188 0)"/>
       <use xlink:href="#DejaVuSans-30" transform="translate(318.115234 0)"/>
      </g>
     </g>
    </g>
    <g id="text_7">
     <!-- Step -->
     <g transform="translate(374.499844 418.316562) scale(0.1 -0.1)">
      <defs>
       <path id="DejaVuSans-53" d="M 3425 4513 
L 3425 3897 
Q 3066 4069 2747 4153 
Q 2428 4238 2131 4238 
Q 1616 4238 1336 4038 
Q 1056 3838 1056 3469 
Q 1056 3159 1242 3001 
Q 1428 2844 1947 2747 
L 2328 2669 
Q 3034 2534 3370 2195 
Q 3706 1856 3706 1288 
Q 3706 609 3251 259 
Q 2797 -91 1919 -91 
Q 1588 -91 1214 -16 
Q 841 59 441 206 
L 441 856 
Q 825 641 1194 531 
Q 1563 422 1919 422 
Q 2459 422 2753 634 
Q 3047 847 3047 1241 
Q 3047 1584 2836 1778 
Q 2625 1972 2144 2069 
L 1759 2144 
Q 1053 2284 737 2584 
Q 422 2884 422 3419 
Q 422 4038 858 4394 
Q 1294 4750 2059 4750 
Q 2388 4750 2728 4690 
Q 3069 4631 3425 4513 
z
" transform="scale(0.015625)"/>
       <path id="DejaVuSans-74" d="M 1172 4494 
L 1172 3500 
L 2356 3500 
L 2356 3053 
L 1172 3053 
L 1172 1153 
Q 1172 725 1289 603 
Q 1406 481 1766 481 
L 2356 481 
L 2356 0 
L 1766 0 
Q 1100 0 847 248 
Q 594 497 594 1153 
L 594 3053 
L 172 3053 
L 172 3500 
L 594 3500 
L 594 4494 
L 1172 4494 
z
" transform="scale(0.015625)"/>
       <path id="DejaVuSans-65" d="M 3597 1894 
L 3597 1613 
L 953 1613 
Q 991 1019 1311 708 
Q 1631 397 2203 397 
Q 2534 397 2845 478 
Q 3156 559 3463 722 
L 3463 178 
Q 3153 47 2828 -22 
Q 2503 -91 2169 -91 
Q 1331 -91 842 396 
Q 353 884 353 1716 
Q 353 2575 817 3079 
Q 1281 3584 2069 3584 
Q 2775 3584 3186 3129 
Q 3597 2675 3597 1894 
z
M 3022 2063 
Q 3016 2534 2758 2815 
Q 2500 3097 2075 3097 
Q 1594 3097 1305 2825 
Q 1016 2553 972 2059 
L 3022 2063 
z
" transform="scale(0.015625)"/>
       <path id="DejaVuSans-70" d="M 1159 525 
L 1159 -1331 
L 581 -1331 
L 581 3500 
L 1159 3500 
L 1159 2969 
Q 1341 3281 1617 3432 
Q 1894 3584 2278 3584 
Q 2916 3584 3314 3078 
Q 3713 2572 3713 1747 
Q 3713 922 3314 415 
Q 2916 -91 2278 -91 
Q 1894 -91 1617 61 
Q 1341 213 1159 525 
z
M 3116 1747 
Q 3116 2381 2855 2742 
Q 2594 3103 2138 3103 
Q 1681 3103 1420 2742 
Q 1159 2381 1159 1747 
Q 1159 1113 1420 752 
Q 1681 391 2138 391 
Q 2594 391 2855 752 
Q 3116 1113 3116 1747 
z
" transform="scale(0.015625)"/>
      </defs>
      <use xlink:href="#DejaVuSans-53"/>
      <use xlink:href="#DejaVuSans-74" transform="translate(63.476562 0)"/>
      <use xlink:href="#DejaVuSans-65" transform="translate(102.685547 0)"/>
      <use xlink:href="#DejaVuSans-70" transform="translate(164.208984 0)"/>
     </g>
    </g>
   </g>
   <g id="matplotlib.axis_2">
    <g id="ytick_1">
     <g id="line2d_7">
      <defs>
       <path id="m470f47d7ab" d="M 0 0 
L -3.5 0 
" style="stroke: #000000; stroke-width: 0.8"/>
      </defs>
      <g>
       <use xlink:href="#m470f47d7ab" x="62.57" y="375.624343" style="stroke: #000000; stroke-width: 0.8"/>
      </g>
     </g>
     <g id="text_8">
      <!-- −0.02 -->
      <g transform="translate(24.924688 379.423561) scale(0.1 -0.1)">
       <defs>
        <path id="DejaVuSans-2212" d="M 678 2272 
L 4684 2272 
L 4684 1741 
L 678 1741 
L 678 2272 
z
" transform="scale(0.015625)"/>
        <path id="DejaVuSans-2e" d="M 684 794 
L 1344 794 
L 1344 0 
L 684 0 
L 684 794 
z
" transform="scale(0.015625)"/>
       </defs>
       <use xlink:href="#DejaVuSans-2212"/>
       <use xlink:href="#DejaVuSans-30" transform="translate(83.789062 0)"/>
       <use xlink:href="#DejaVuSans-2e" transform="translate(147.412109 0)"/>
       <use xlink:href="#DejaVuSans-30" transform="translate(179.199219 0)"/>
       <use xlink:href="#DejaVuSans-32" transform="translate(242.822266 0)"/>
      </g>
     </g>
    </g>
    <g id="ytick_2">
     <g id="line2d_8">
      <g>
       <use xlink:href="#m470f47d7ab" x="62.57" y="326.708149" style="stroke: #000000; stroke-width: 0.8"/>
      </g>
     </g>
     <g id="text_9">
      <!-- −0.01 -->
      <g transform="translate(24.924688 330.507367) scale(0.1 -0.1)">
       <use xlink:href="#DejaVuSans-2212"/>
       <use xlink:href="#DejaVuSans-30" transform="translate(83.789062 0)"/>
       <use xlink:href="#DejaVuSans-2e" transform="translate(147.412109 0)"/>
       <use xlink:href="#DejaVuSans-30" transform="translate(179.199219 0)"/>
       <use xlink:href="#DejaVuSans-31" transform="translate(242.822266 0)"/>
      </g>
     </g>
    </g>
    <g id="ytick_3">
     <g id="line2d_9">
      <g>
       <use xlink:href="#m470f47d7ab" x="62.57" y="277.791955" style="stroke: #000000; stroke-width: 0.8"/>
      </g>
     </g>
     <g id="text_10">
      <!-- 0.00 -->
      <g transform="translate(33.304375 281.591173) scale(0.1 -0.1)">
       <use xlink:href="#DejaVuSans-30"/>
       <use xlink:href="#DejaVuSans-2e" transform="translate(63.623047 0)"/>
       <use xlink:href="#DejaVuSans-30" transform="translate(95.410156 0)"/>
       <use xlink:href="#DejaVuSans-30" transform="translate(159.033203 0)"/>
      </g>
     </g>
    </g>
    <g id="ytick_4">
     <g id="line2d_10">
      <g>
       <use xlink:href="#m470f47d7ab" x="62.57" y="228.875761" style="stroke: #000000; stroke-width: 0.8"/>
      </g>
     </g>
     <g id="text_11">
      <!-- 0.01 -->
      <g transform="translate(33.304375 232.67498) scale(0.1 -0.1)">
       <use xlink:href="#DejaVuSans-30"/>
       <use xlink:href="#DejaVuSans-2e" transform="translate(63.623047 0)"/>
       <use xlink:href="#DejaVuSans-30" transform="translate(95.410156 0)"/>
       <use xlink:href="#DejaVuSans-31" transform="translate(159.033203 0)"/>
      </g>
     </g>
    </g>
    <g id="ytick_5">
     <g id="line2d_11">
      <g>
       <use xlink:href="#m470f47d7ab" x="62.57" y="179.959567" style="stroke: #000000; stroke-width: 0.8"/>
      </g>
     </g>
     <g id="text_12">
      <!-- 0.02 -->
      <g transform="translate(33.304375 183.758786) scale(0.1 -0.1)">
       <use xlink:href="#DejaVuSans-30"/>
       <use xlink:href="#DejaVuSans-2e" transform="translate(63.623047 0)"/>
       <use xlink:href="#DejaVuSans-30" transform="translate(95.410156 0)"/>
       <use xlink:href="#DejaVuSans-32" transform="translate(159.033203 0)"/>
      </g>
     </g>
    </g>
    <g id="ytick_6">
     <g id="line2d_12">
      <g>
       <use xlink:href="#m470f47d7ab" x="62.57" y="131.043373" style="stroke: #000000; stroke-width: 0.8"/>
      </g>
     </g>
     <g id="text_13">
      <!-- 0.03 -->
      <g transform="translate(33.304375 134.842592) scale(0.1 -0.1)">
       <defs>
        <path id="DejaVuSans-33" d="M 2597 2516 
Q 3050 2419 3304 2112 
Q 3559 1806 3559 1356 
Q 3559 666 3084 287 
Q 2609 -91 1734 -91 
Q 1441 -91 1130 -33 
Q 819 25 488 141 
L 488 750 
Q 750 597 1062 519 
Q 1375 441 1716 441 
Q 2309 441 2620 675 
Q 2931 909 2931 1356 
Q 2931 1769 2642 2001 
Q 2353 2234 1838 2234 
L 1294 2234 
L 1294 2753 
L 1863 2753 
Q 2328 2753 2575 2939 
Q 2822 3125 2822 3475 
Q 2822 3834 2567 4026 
Q 2313 4219 1838 4219 
Q 1578 4219 1281 4162 
Q 984 4106 628 3988 
L 628 4550 
Q 988 4650 1302 4700 
Q 1616 4750 1894 4750 
Q 2613 4750 3031 4423 
Q 3450 4097 3450 3541 
Q 3450 3153 3228 2886 
Q 3006 2619 2597 2516 
z
" transform="scale(0.015625)"/>
       </defs>
       <use xlink:href="#DejaVuSans-30"/>
       <use xlink:href="#DejaVuSans-2e" transform="translate(63.623047 0)"/>
       <use xlink:href="#DejaVuSans-30" transform="translate(95.410156 0)"/>
       <use xlink:href="#DejaVuSans-33" transform="translate(159.033203 0)"/>
      </g>
     </g>
    </g>
    <g id="ytick_7">
     <g id="line2d_13">
      <g>
       <use xlink:href="#m470f47d7ab" x="62.57" y="82.127179" style="stroke: #000000; stroke-width: 0.8"/>
      </g>
     </g>
     <g id="text_14">
      <!-- 0.04 -->
      <g transform="translate(33.304375 85.926398) scale(0.1 -0.1)">
       <use xlink:href="#DejaVuSans-30"/>
       <use xlink:href="#DejaVuSans-2e" transform="translate(63.623047 0)"/>
       <use xlink:href="#DejaVuSans-30" transform="translate(95.410156 0)"/>
       <use xlink:href="#DejaVuSans-34" transform="translate(159.033203 0)"/>
      </g>
     </g>
    </g>
    <g id="ytick_8">
     <g id="line2d_14">
      <g>
       <use xlink:href="#m470f47d7ab" x="62.57" y="33.210985" style="stroke: #000000; stroke-width: 0.8"/>
      </g>
     </g>
     <g id="text_15">
      <!-- 0.05 -->
      <g transform="translate(33.304375 37.010204) scale(0.1 -0.1)">
       <defs>
        <path id="DejaVuSans-35" d="M 691 4666 
L 3169 4666 
L 3169 4134 
L 1269 4134 
L 1269 2991 
Q 1406 3038 1543 3061 
Q 1681 3084 1819 3084 
Q 2600 3084 3056 2656 
Q 3513 2228 3513 1497 
Q 3513 744 3044 326 
Q 2575 -91 1722 -91 
Q 1428 -91 1123 -41 
Q 819 9 494 109 
L 494 744 
Q 775 591 1075 516 
Q 1375 441 1709 441 
Q 2250 441 2565 725 
Q 2881 1009 2881 1497 
Q 2881 1984 2565 2268 
Q 2250 2553 1709 2553 
Q 1456 2553 1204 2497 
Q 953 2441 691 2322 
L 691 4666 
z
" transform="scale(0.015625)"/>
       </defs>
       <use xlink:href="#DejaVuSans-30"/>
       <use xlink:href="#DejaVuSans-2e" transform="translate(63.623047 0)"/>
       <use xlink:href="#DejaVuSans-30" transform="translate(95.410156 0)"/>
       <use xlink:href="#DejaVuSans-35" transform="translate(159.033203 0)"/>
      </g>
     </g>
    </g>
    <g id="text_16">
     <!-- Normalized (human) Episodic Return -->
     <g transform="translate(18.845 299.495469) rotate(-90) scale(0.1 -0.1)">
      <defs>
       <path id="DejaVuSans-4e" d="M 628 4666 
L 1478 4666 
L 3547 763 
L 3547 4666 
L 4159 4666 
L 4159 0 
L 3309 0 
L 1241 3903 
L 1241 0 
L 628 0 
L 628 4666 
z
" transform="scale(0.015625)"/>
       <path id="DejaVuSans-6f" d="M 1959 3097 
Q 1497 3097 1228 2736 
Q 959 2375 959 1747 
Q 959 1119 1226 758 
Q 1494 397 1959 397 
Q 2419 397 2687 759 
Q 2956 1122 2956 1747 
Q 2956 2369 2687 2733 
Q 2419 3097 1959 3097 
z
M 1959 3584 
Q 2709 3584 3137 3096 
Q 3566 2609 3566 1747 
Q 3566 888 3137 398 
Q 2709 -91 1959 -91 
Q 1206 -91 779 398 
Q 353 888 353 1747 
Q 353 2609 779 3096 
Q 1206 3584 1959 3584 
z
" transform="scale(0.015625)"/>
       <path id="DejaVuSans-72" d="M 2631 2963 
Q 2534 3019 2420 3045 
Q 2306 3072 2169 3072 
Q 1681 3072 1420 2755 
Q 1159 2438 1159 1844 
L 1159 0 
L 581 0 
L 581 3500 
L 1159 3500 
L 1159 2956 
Q 1341 3275 1631 3429 
Q 1922 3584 2338 3584 
Q 2397 3584 2469 3576 
Q 2541 3569 2628 3553 
L 2631 2963 
z
" transform="scale(0.015625)"/>
       <path id="DejaVuSans-6d" d="M 3328 2828 
Q 3544 3216 3844 3400 
Q 4144 3584 4550 3584 
Q 5097 3584 5394 3201 
Q 5691 2819 5691 2113 
L 5691 0 
L 5113 0 
L 5113 2094 
Q 5113 2597 4934 2840 
Q 4756 3084 4391 3084 
Q 3944 3084 3684 2787 
Q 3425 2491 3425 1978 
L 3425 0 
L 2847 0 
L 2847 2094 
Q 2847 2600 2669 2842 
Q 2491 3084 2119 3084 
Q 1678 3084 1418 2786 
Q 1159 2488 1159 1978 
L 1159 0 
L 581 0 
L 581 3500 
L 1159 3500 
L 1159 2956 
Q 1356 3278 1631 3431 
Q 1906 3584 2284 3584 
Q 2666 3584 2933 3390 
Q 3200 3197 3328 2828 
z
" transform="scale(0.015625)"/>
       <path id="DejaVuSans-61" d="M 2194 1759 
Q 1497 1759 1228 1600 
Q 959 1441 959 1056 
Q 959 750 1161 570 
Q 1363 391 1709 391 
Q 2188 391 2477 730 
Q 2766 1069 2766 1631 
L 2766 1759 
L 2194 1759 
z
M 3341 1997 
L 3341 0 
L 2766 0 
L 2766 531 
Q 2569 213 2275 61 
Q 1981 -91 1556 -91 
Q 1019 -91 701 211 
Q 384 513 384 1019 
Q 384 1609 779 1909 
Q 1175 2209 1959 2209 
L 2766 2209 
L 2766 2266 
Q 2766 2663 2505 2880 
Q 2244 3097 1772 3097 
Q 1472 3097 1187 3025 
Q 903 2953 641 2809 
L 641 3341 
Q 956 3463 1253 3523 
Q 1550 3584 1831 3584 
Q 2591 3584 2966 3190 
Q 3341 2797 3341 1997 
z
" transform="scale(0.015625)"/>
       <path id="DejaVuSans-6c" d="M 603 4863 
L 1178 4863 
L 1178 0 
L 603 0 
L 603 4863 
z
" transform="scale(0.015625)"/>
       <path id="DejaVuSans-69" d="M 603 3500 
L 1178 3500 
L 1178 0 
L 603 0 
L 603 3500 
z
M 603 4863 
L 1178 4863 
L 1178 4134 
L 603 4134 
L 603 4863 
z
" transform="scale(0.015625)"/>
       <path id="DejaVuSans-7a" d="M 353 3500 
L 3084 3500 
L 3084 2975 
L 922 459 
L 3084 459 
L 3084 0 
L 275 0 
L 275 525 
L 2438 3041 
L 353 3041 
L 353 3500 
z
" transform="scale(0.015625)"/>
       <path id="DejaVuSans-64" d="M 2906 2969 
L 2906 4863 
L 3481 4863 
L 3481 0 
L 2906 0 
L 2906 525 
Q 2725 213 2448 61 
Q 2172 -91 1784 -91 
Q 1150 -91 751 415 
Q 353 922 353 1747 
Q 353 2572 751 3078 
Q 1150 3584 1784 3584 
Q 2172 3584 2448 3432 
Q 2725 3281 2906 2969 
z
M 947 1747 
Q 947 1113 1208 752 
Q 1469 391 1925 391 
Q 2381 391 2643 752 
Q 2906 1113 2906 1747 
Q 2906 2381 2643 2742 
Q 2381 3103 1925 3103 
Q 1469 3103 1208 2742 
Q 947 2381 947 1747 
z
" transform="scale(0.015625)"/>
       <path id="DejaVuSans-20" transform="scale(0.015625)"/>
       <path id="DejaVuSans-28" d="M 1984 4856 
Q 1566 4138 1362 3434 
Q 1159 2731 1159 2009 
Q 1159 1288 1364 580 
Q 1569 -128 1984 -844 
L 1484 -844 
Q 1016 -109 783 600 
Q 550 1309 550 2009 
Q 550 2706 781 3412 
Q 1013 4119 1484 4856 
L 1984 4856 
z
" transform="scale(0.015625)"/>
       <path id="DejaVuSans-68" d="M 3513 2113 
L 3513 0 
L 2938 0 
L 2938 2094 
Q 2938 2591 2744 2837 
Q 2550 3084 2163 3084 
Q 1697 3084 1428 2787 
Q 1159 2491 1159 1978 
L 1159 0 
L 581 0 
L 581 4863 
L 1159 4863 
L 1159 2956 
Q 1366 3272 1645 3428 
Q 1925 3584 2291 3584 
Q 2894 3584 3203 3211 
Q 3513 2838 3513 2113 
z
" transform="scale(0.015625)"/>
       <path id="DejaVuSans-75" d="M 544 1381 
L 544 3500 
L 1119 3500 
L 1119 1403 
Q 1119 906 1312 657 
Q 1506 409 1894 409 
Q 2359 409 2629 706 
Q 2900 1003 2900 1516 
L 2900 3500 
L 3475 3500 
L 3475 0 
L 2900 0 
L 2900 538 
Q 2691 219 2414 64 
Q 2138 -91 1772 -91 
Q 1169 -91 856 284 
Q 544 659 544 1381 
z
M 1991 3584 
L 1991 3584 
z
" transform="scale(0.015625)"/>
       <path id="DejaVuSans-6e" d="M 3513 2113 
L 3513 0 
L 2938 0 
L 2938 2094 
Q 2938 2591 2744 2837 
Q 2550 3084 2163 3084 
Q 1697 3084 1428 2787 
Q 1159 2491 1159 1978 
L 1159 0 
L 581 0 
L 581 3500 
L 1159 3500 
L 1159 2956 
Q 1366 3272 1645 3428 
Q 1925 3584 2291 3584 
Q 2894 3584 3203 3211 
Q 3513 2838 3513 2113 
z
" transform="scale(0.015625)"/>
       <path id="DejaVuSans-29" d="M 513 4856 
L 1013 4856 
Q 1481 4119 1714 3412 
Q 1947 2706 1947 2009 
Q 1947 1309 1714 600 
Q 1481 -109 1013 -844 
L 513 -844 
Q 928 -128 1133 580 
Q 1338 1288 1338 2009 
Q 1338 2731 1133 3434 
Q 928 4138 513 4856 
z
" transform="scale(0.015625)"/>
       <path id="DejaVuSans-45" d="M 628 4666 
L 3578 4666 
L 3578 4134 
L 1259 4134 
L 1259 2753 
L 3481 2753 
L 3481 2222 
L 1259 2222 
L 1259 531 
L 3634 531 
L 3634 0 
L 628 0 
L 628 4666 
z
" transform="scale(0.015625)"/>
       <path id="DejaVuSans-73" d="M 2834 3397 
L 2834 2853 
Q 2591 2978 2328 3040 
Q 2066 3103 1784 3103 
Q 1356 3103 1142 2972 
Q 928 2841 928 2578 
Q 928 2378 1081 2264 
Q 1234 2150 1697 2047 
L 1894 2003 
Q 2506 1872 2764 1633 
Q 3022 1394 3022 966 
Q 3022 478 2636 193 
Q 2250 -91 1575 -91 
Q 1294 -91 989 -36 
Q 684 19 347 128 
L 347 722 
Q 666 556 975 473 
Q 1284 391 1588 391 
Q 1994 391 2212 530 
Q 2431 669 2431 922 
Q 2431 1156 2273 1281 
Q 2116 1406 1581 1522 
L 1381 1569 
Q 847 1681 609 1914 
Q 372 2147 372 2553 
Q 372 3047 722 3315 
Q 1072 3584 1716 3584 
Q 2034 3584 2315 3537 
Q 2597 3491 2834 3397 
z
" transform="scale(0.015625)"/>
       <path id="DejaVuSans-63" d="M 3122 3366 
L 3122 2828 
Q 2878 2963 2633 3030 
Q 2388 3097 2138 3097 
Q 1578 3097 1268 2742 
Q 959 2388 959 1747 
Q 959 1106 1268 751 
Q 1578 397 2138 397 
Q 2388 397 2633 464 
Q 2878 531 3122 666 
L 3122 134 
Q 2881 22 2623 -34 
Q 2366 -91 2075 -91 
Q 1284 -91 818 406 
Q 353 903 353 1747 
Q 353 2603 823 3093 
Q 1294 3584 2113 3584 
Q 2378 3584 2631 3529 
Q 2884 3475 3122 3366 
z
" transform="scale(0.015625)"/>
       <path id="DejaVuSans-52" d="M 2841 2188 
Q 3044 2119 3236 1894 
Q 3428 1669 3622 1275 
L 4263 0 
L 3584 0 
L 2988 1197 
Q 2756 1666 2539 1819 
Q 2322 1972 1947 1972 
L 1259 1972 
L 1259 0 
L 628 0 
L 628 4666 
L 2053 4666 
Q 2853 4666 3247 4331 
Q 3641 3997 3641 3322 
Q 3641 2881 3436 2590 
Q 3231 2300 2841 2188 
z
M 1259 4147 
L 1259 2491 
L 2053 2491 
Q 2509 2491 2742 2702 
Q 2975 2913 2975 3322 
Q 2975 3731 2742 3939 
Q 2509 4147 2053 4147 
L 1259 4147 
z
" transform="scale(0.015625)"/>
      </defs>
      <use xlink:href="#DejaVuSans-4e"/>
      <use xlink:href="#DejaVuSans-6f" transform="translate(74.804688 0)"/>
      <use xlink:href="#DejaVuSans-72" transform="translate(135.986328 0)"/>
      <use xlink:href="#DejaVuSans-6d" transform="translate(175.349609 0)"/>
      <use xlink:href="#DejaVuSans-61" transform="translate(272.761719 0)"/>
      <use xlink:href="#DejaVuSans-6c" transform="translate(334.041016 0)"/>
      <use xlink:href="#DejaVuSans-69" transform="translate(361.824219 0)"/>
      <use xlink:href="#DejaVuSans-7a" transform="translate(389.607422 0)"/>
      <use xlink:href="#DejaVuSans-65" transform="translate(442.097656 0)"/>
      <use xlink:href="#DejaVuSans-64" transform="translate(503.621094 0)"/>
      <use xlink:href="#DejaVuSans-20" transform="translate(567.097656 0)"/>
      <use xlink:href="#DejaVuSans-28" transform="translate(598.884766 0)"/>
      <use xlink:href="#DejaVuSans-68" transform="translate(637.898438 0)"/>
      <use xlink:href="#DejaVuSans-75" transform="translate(701.277344 0)"/>
      <use xlink:href="#DejaVuSans-6d" transform="translate(764.65625 0)"/>
      <use xlink:href="#DejaVuSans-61" transform="translate(862.068359 0)"/>
      <use xlink:href="#DejaVuSans-6e" transform="translate(923.347656 0)"/>
      <use xlink:href="#DejaVuSans-29" transform="translate(986.726562 0)"/>
      <use xlink:href="#DejaVuSans-20" transform="translate(1025.740234 0)"/>
      <use xlink:href="#DejaVuSans-45" transform="translate(1057.527344 0)"/>
      <use xlink:href="#DejaVuSans-70" transform="translate(1120.710938 0)"/>
      <use xlink:href="#DejaVuSans-69" transform="translate(1184.1875 0)"/>
      <use xlink:href="#DejaVuSans-73" transform="translate(1211.970703 0)"/>
      <use xlink:href="#DejaVuSans-6f" transform="translate(1264.070312 0)"/>
      <use xlink:href="#DejaVuSans-64" transform="translate(1325.251953 0)"/>
      <use xlink:href="#DejaVuSans-69" transform="translate(1388.728516 0)"/>
      <use xlink:href="#DejaVuSans-63" transform="translate(1416.511719 0)"/>
      <use xlink:href="#DejaVuSans-20" transform="translate(1471.492188 0)"/>
      <use xlink:href="#DejaVuSans-52" transform="translate(1503.279297 0)"/>
      <use xlink:href="#DejaVuSans-65" transform="translate(1568.261719 0)"/>
      <use xlink:href="#DejaVuSans-74" transform="translate(1629.785156 0)"/>
      <use xlink:href="#DejaVuSans-75" transform="translate(1668.994141 0)"/>
      <use xlink:href="#DejaVuSans-72" transform="translate(1732.373047 0)"/>
      <use xlink:href="#DejaVuSans-6e" transform="translate(1771.736328 0)"/>
     </g>
    </g>
   </g>
   <g id="line2d_15">
    <path d="M 111.386639 333.204601 
L 111.951189 341.848925 
L 112.515739 345.608866 
L 113.08029 347.70423 
L 113.64484 330.084564 
L 114.20939 317.92258 
L 114.773941 310.477824 
L 115.338491 304.602176 
L 115.903042 315.1262 
L 116.467592 321.073392 
L 117.032142 323.117352 
L 117.596693 326.874314 
L 118.161243 313.777246 
L 118.725793 309.850569 
L 119.290344 307.330935 
L 119.854894 303.712304 
L 120.983995 289.924833 
L 121.548545 280.406528 
L 123.242196 271.945518 
L 123.806746 264.029588 
L 124.371297 273.100204 
L 127.194048 235.841022 
L 129.45225 202.538779 
L 130.58135 190.047902 
L 131.145901 207.579071 
L 132.839552 292.616561 
L 133.404102 296.444478 
L 136.791404 306.852068 
L 137.355954 312.699753 
L 137.920505 322.178644 
L 138.485055 325.40879 
L 139.049605 326.661273 
L 139.614156 326.241347 
L 140.743256 312.41621 
L 141.307807 309.545458 
L 143.001458 309.468353 
L 143.566008 304.188291 
L 144.130558 301.160979 
L 145.259659 298.902135 
L 145.82421 306.843704 
L 146.38876 321.402436 
L 146.95331 320.828883 
L 147.517861 310.681474 
L 148.082411 307.10437 
L 148.646961 312.84204 
L 149.211512 321.396259 
L 149.776062 324.800733 
L 151.469713 286.436464 
L 152.034263 281.567776 
L 153.163364 265.848997 
L 153.727914 260.274887 
L 154.292465 258.962022 
L 154.857015 262.498472 
L 156.550666 277.267936 
L 159.937968 300.315382 
L 160.502518 299.017879 
L 161.067069 298.3692 
L 162.196169 299.403767 
L 162.76072 299.02567 
L 167.277122 267.499532 
L 167.841673 272.617898 
L 168.406223 273.16489 
L 169.535324 272.983571 
L 170.099874 273.230422 
L 171.793525 277.454931 
L 172.922626 317.324326 
L 173.487176 328.02476 
L 174.051726 327.35275 
L 174.616277 324.425178 
L 175.745378 310.719787 
L 176.309928 299.787071 
L 177.439029 273.32089 
L 178.003579 276.209834 
L 178.568129 276.239372 
L 179.13268 276.477761 
L 179.69723 276.249547 
L 182.519982 271.3945 
L 183.084532 271.636295 
L 184.213633 293.894702 
L 184.778183 305.650886 
L 185.342733 307.673248 
L 187.036384 305.445603 
L 187.600935 303.507145 
L 188.165485 304.900052 
L 189.859136 314.756073 
L 193.246438 308.972043 
L 193.810988 307.510413 
L 194.940089 302.966749 
L 195.504639 301.668952 
L 197.19829 300.314732 
L 197.762841 300.137412 
L 198.891941 300.798168 
L 199.456492 298.719016 
L 200.021042 294.95741 
L 201.714693 288.865372 
L 204.537445 278.587708 
L 205.101995 296.728674 
L 205.666546 290.838654 
L 206.231096 271.294539 
L 206.795646 258.429377 
L 207.360197 264.130648 
L 207.924747 254.915195 
L 208.489297 243.145377 
L 209.053848 238.361622 
L 209.618398 234.681063 
L 210.747499 229.401596 
L 211.312049 229.494242 
L 211.876599 230.48347 
L 213.0057 235.537401 
L 214.134801 240.977952 
L 214.699351 244.476577 
L 215.828452 254.755713 
L 217.522103 258.19296 
L 218.651203 258.856715 
L 219.215754 281.78502 
L 219.780304 272.839375 
L 220.344854 258.364883 
L 222.603056 167.038102 
L 223.167606 170.183652 
L 223.732156 218.761367 
L 224.296707 239.497855 
L 224.861257 240.144713 
L 226.554908 243.82394 
L 227.119458 245.536524 
L 229.94221 256.228787 
L 230.50676 257.404971 
L 231.635861 263.894918 
L 235.023163 287.980634 
L 237.281365 314.22489 
L 237.845915 320.78178 
L 238.410465 314.625505 
L 238.975016 299.94546 
L 240.104116 288.795975 
L 240.668667 289.11855 
L 242.362318 295.1028 
L 242.926868 295.115576 
L 243.491418 288.632869 
L 244.620519 281.753891 
L 245.185069 277.406935 
L 246.31417 260.517144 
L 246.87872 255.769939 
L 247.443271 253.811849 
L 249.701472 248.543631 
L 250.266022 258.0831 
L 253.088774 250.774554 
L 255.911526 268.895635 
L 256.476076 264.701179 
L 257.605177 253.097143 
L 258.169727 246.02093 
L 258.734277 213.433957 
L 259.863378 132.156567 
L 262.121579 165.965958 
L 262.68613 175.462678 
L 263.25068 206.669087 
L 263.81523 227.21227 
L 264.944331 257.450301 
L 265.508882 268.159744 
L 266.637982 192.341708 
L 267.202533 129.858435 
L 267.767083 42.012727 
L 268.331633 46.043875 
L 268.896184 83.303455 
L 270.025284 184.429081 
L 272.848036 248.898536 
L 273.412586 254.537853 
L 274.541687 260.964525 
L 275.106237 260.069526 
L 275.670788 266.779939 
L 276.235338 275.787142 
L 277.928989 271.174685 
L 278.493539 271.953896 
L 279.05809 288.191888 
L 284.139043 257.011759 
L 285.268143 249.160498 
L 285.832694 246.351008 
L 286.397244 246.834492 
L 289.784546 257.1263 
L 290.349096 257.170206 
L 291.478197 212.789823 
L 292.042747 198.704827 
L 293.736399 209.787903 
L 294.300949 205.154815 
L 294.865499 202.445416 
L 295.43005 227.613377 
L 295.9946 259.739539 
L 298.252801 232.892555 
L 298.817352 224.942956 
L 299.381902 237.149064 
L 299.946452 229.240668 
L 300.511003 224.805049 
L 301.640103 247.148104 
L 302.204654 246.713506 
L 305.027405 243.531541 
L 305.591956 241.877744 
L 306.721056 236.702852 
L 307.850157 233.505836 
L 308.414707 218.859174 
L 308.979258 233.230129 
L 309.543808 233.968983 
L 312.93111 245.669772 
L 313.49566 246.407749 
L 314.624761 244.357818 
L 315.189311 246.078595 
L 315.753862 249.804425 
L 316.318412 251.718522 
L 321.399365 255.241049 
L 323.657567 257.319802 
L 325.915768 262.252322 
L 326.480318 271.269304 
L 327.609419 256.848407 
L 328.173969 268.239566 
L 329.30307 274.754942 
L 332.125822 281.222452 
L 332.690372 279.046128 
L 334.384023 268.681669 
L 334.948573 263.480265 
L 335.513124 246.507918 
L 336.077674 242.927102 
L 337.206775 245.595609 
L 337.771325 215.545403 
L 338.335875 228.278161 
L 338.900426 235.916003 
L 340.594077 221.137518 
L 341.158627 211.345982 
L 341.723177 204.001511 
L 342.287728 207.677295 
L 342.852278 217.082511 
L 343.416828 216.163001 
L 345.110479 210.516274 
L 345.67503 210.757662 
L 346.23958 212.961129 
L 346.80413 213.160202 
L 348.497781 222.209173 
L 349.626882 230.733019 
L 351.320533 243.092225 
L 354.143285 246.690625 
L 354.707835 243.97083 
L 355.272386 234.766825 
L 356.401486 239.186034 
L 360.353339 248.551253 
L 362.04699 234.851446 
L 362.61154 234.550158 
L 363.17609 232.587444 
L 364.869741 223.653928 
L 366.563392 216.917805 
L 367.127943 211.943822 
L 369.386144 186.399187 
L 369.950694 182.331381 
L 370.515245 189.066731 
L 371.079795 210.994339 
L 371.644345 227.210212 
L 372.773446 215.289892 
L 373.337996 208.080518 
L 374.467097 211.586055 
L 375.031647 216.958316 
L 376.160748 247.844004 
L 376.725298 253.346972 
L 377.289849 237.325611 
L 377.854399 229.689496 
L 378.9835 260.503317 
L 379.54805 263.056125 
L 380.677151 265.39937 
L 381.241701 266.640218 
L 381.806251 266.780535 
L 382.370802 266.643901 
L 382.935352 267.158601 
L 383.499903 267.090071 
L 384.629003 262.135216 
L 385.193554 261.528817 
L 389.145406 259.541468 
L 390.274507 240.957763 
L 390.839057 268.753739 
L 392.532708 272.992494 
L 393.097258 273.341483 
L 393.661809 271.960057 
L 398.178211 307.004443 
L 398.742762 305.623449 
L 402.694614 281.472658 
L 403.259164 257.150913 
L 404.388265 246.610134 
L 406.646466 236.147116 
L 407.211017 242.798806 
L 407.775567 257.920187 
L 408.340117 257.826474 
L 410.033768 251.728597 
L 410.598319 261.797758 
L 411.162869 253.118745 
L 411.727419 215.981721 
L 413.985621 225.503849 
L 414.550171 225.715667 
L 416.808373 206.328867 
L 417.372923 204.202233 
L 417.937473 206.86118 
L 418.502024 211.612607 
L 419.066574 222.01665 
L 419.631124 227.688656 
L 420.760225 230.037161 
L 421.324775 233.986204 
L 421.889326 149.331453 
L 423.018426 147.632603 
L 423.582977 143.338538 
L 424.712077 129.745802 
L 426.970279 267.064733 
L 428.66393 271.657578 
L 430.357581 268.906283 
L 433.744883 264.876802 
L 434.309433 263.932326 
L 434.873983 269.727848 
L 436.003084 286.273112 
L 436.567634 259.823925 
L 437.132185 262.517146 
L 439.954936 258.270029 
L 440.519487 256.485418 
L 441.648587 252.073403 
L 442.213138 252.2585 
L 442.777688 253.197684 
L 443.342239 253.577639 
L 443.906789 250.504553 
L 448.423192 207.652153 
L 449.552292 236.50736 
L 450.681393 244.80214 
L 451.810494 253.76493 
L 452.375044 253.17277 
L 452.939594 251.874802 
L 453.504145 261.698467 
L 454.068695 244.989039 
L 454.633245 234.032673 
L 455.197796 227.916434 
L 456.326896 225.640699 
L 458.020547 203.967055 
L 459.714198 210.459634 
L 460.278749 229.897363 
L 460.843299 236.491043 
L 461.9724 221.204334 
L 462.53695 220.743323 
L 463.1015 224.073351 
L 463.666051 224.95948 
L 464.230601 221.242935 
L 465.359702 102.680912 
L 465.924252 100.999589 
L 467.617903 129.54582 
L 468.182453 136.907068 
L 470.440655 153.227648 
L 471.005205 156.442463 
L 471.569755 158.92708 
L 472.134306 177.181754 
L 472.698856 199.758928 
L 473.263407 216.233994 
L 473.827957 221.760403 
L 474.392507 223.17117 
L 474.957058 225.398517 
L 475.521608 226.2612 
L 476.650709 225.444019 
L 477.215259 243.342425 
L 478.90891 236.379725 
L 479.47346 236.415995 
L 483.989863 248.530544 
L 484.554413 252.619888 
L 485.683514 238.887313 
L 487.941715 246.872806 
L 488.506266 239.489929 
L 489.070816 234.772205 
L 489.635366 233.209713 
L 490.199917 235.083656 
L 491.329017 248.856476 
L 491.893568 249.013192 
L 492.458118 249.674814 
L 493.022668 237.388246 
L 493.587219 233.551914 
L 495.84542 232.287664 
L 496.974521 235.585333 
L 498.103621 247.853595 
L 500.361823 246.721154 
L 500.926373 245.696594 
L 502.055474 240.436296 
L 502.620024 256.207282 
L 503.749125 230.11454 
L 504.313675 224.933679 
L 504.878226 225.538816 
L 505.442776 225.165505 
L 506.007326 222.827259 
L 506.571877 219.452623 
L 507.136427 223.755439 
L 507.700977 212.363426 
L 508.265528 212.057453 
L 510.523729 237.328607 
L 511.088279 242.405842 
L 511.65283 243.76426 
L 516.733783 238.218686 
L 517.298333 235.831971 
L 517.862883 234.31283 
L 518.427434 252.429179 
L 520.121085 254.521307 
L 521.250185 249.868785 
L 522.943836 242.511558 
L 523.508387 231.47628 
L 524.072937 169.836284 
L 524.637487 140.30868 
L 530.282991 204.507791 
L 530.847541 205.322677 
L 531.412092 208.448462 
L 532.541192 217.682037 
L 533.105743 239.033173 
L 533.670293 247.508034 
L 534.799394 255.781491 
L 535.363944 257.159318 
L 535.928494 244.216121 
L 536.493045 239.056922 
L 537.622145 237.345905 
L 538.751246 236.649789 
L 539.315796 229.936001 
L 539.880347 227.765797 
L 540.444897 227.12328 
L 541.009447 232.347589 
L 541.573998 241.547847 
L 544.396749 240.17158 
L 544.9613 227.588873 
L 546.0904 212.509096 
L 546.654951 212.148801 
L 547.784051 211.775962 
L 548.348602 210.757971 
L 548.913152 210.307996 
L 556.816857 234.005868 
L 558.510508 230.653779 
L 559.075058 223.031388 
L 559.639608 207.849656 
L 560.204159 196.917143 
L 560.768709 195.352473 
L 561.89781 207.488751 
L 563.026911 218.332441 
L 564.156011 225.011107 
L 564.720562 222.037972 
L 565.285112 217.853844 
L 565.849662 220.357749 
L 566.414213 219.7009 
L 566.978763 215.07043 
L 567.543313 220.632528 
L 568.107864 230.694725 
L 568.672414 210.217873 
L 569.236964 211.892342 
L 569.801515 210.573255 
L 570.366065 206.193619 
L 571.495166 212.6449 
L 573.188817 221.478763 
L 574.317917 223.418848 
L 578.26977 229.755285 
L 578.83432 238.040622 
L 579.39887 243.577065 
L 581.092521 246.612173 
L 581.657072 249.15392 
L 582.786172 261.458233 
L 583.350723 264.882789 
L 583.915273 265.294439 
L 587.302575 251.392486 
L 587.867125 251.529126 
L 588.996226 253.473983 
L 589.560776 254.668777 
L 590.125327 253.813006 
L 590.689877 249.131312 
L 591.254428 247.192744 
L 591.818978 242.803356 
L 592.948079 230.105226 
L 593.512629 231.158181 
L 594.077179 233.31161 
L 594.64173 241.887233 
L 595.77083 246.982046 
L 596.335381 248.881536 
L 596.899931 250.284251 
L 597.464481 252.823052 
L 598.029032 249.374538 
L 598.593582 243.507299 
L 600.287233 231.508809 
L 600.851783 226.620902 
L 601.416334 223.817891 
L 603.109985 219.625358 
L 604.239085 201.742524 
L 604.803636 196.845095 
L 605.932736 202.722306 
L 607.626387 222.715678 
L 609.320038 228.783188 
L 611.013689 233.648407 
L 611.57824 237.319914 
L 613.271891 258.631644 
L 613.836441 257.230788 
L 614.400991 246.857189 
L 617.223743 225.0392 
L 617.788293 238.962816 
L 618.352844 248.816369 
L 620.611045 233.611364 
L 621.175596 231.598548 
L 621.740146 228.382799 
L 623.433797 213.45308 
L 624.562898 200.68763 
L 625.127448 202.999539 
L 626.256549 222.231251 
L 626.821099 226.880688 
L 627.9502 249.076256 
L 628.51475 254.153413 
L 629.0793 250.219077 
L 631.902052 219.767789 
L 632.466602 217.502935 
L 633.031153 216.031611 
L 633.595703 217.986535 
L 635.853904 236.357472 
L 636.418455 226.941972 
L 636.983005 226.405954 
L 637.547555 221.990661 
L 644.322159 116.363732 
L 644.88671 108.736716 
L 645.45126 119.086786 
L 646.580361 196.54475 
L 647.144911 208.633084 
L 648.838562 222.053372 
L 649.403112 230.373185 
L 652.225864 219.603448 
L 652.790415 221.807375 
L 653.354965 238.499652 
L 653.919515 242.971622 
L 655.048616 243.112927 
L 655.613166 241.683223 
L 657.306817 222.595872 
L 658.435918 218.52335 
L 659.000468 216.339372 
L 659.565019 188.575667 
L 660.129569 186.769957 
L 660.694119 186.49876 
L 661.25867 197.800299 
L 661.82322 202.299595 
L 664.081421 203.32831 
L 664.645972 205.869141 
L 665.210522 209.168385 
L 665.775072 202.186319 
L 666.904173 210.95044 
L 668.033274 220.611096 
L 668.597824 228.494617 
L 669.162374 208.057513 
L 669.726925 114.673806 
L 670.291475 117.814211 
L 670.856025 119.147182 
L 675.372428 105.07817 
L 675.372428 105.07817 
" clip-path="url(#p6b4cc4d2d4)" style="fill: none; stroke: #00008b; stroke-width: 1.5; stroke-linecap: square"/>
   </g>
   <g id="line2d_16">
    <path d="M 92.4938 309.28812 
L 94.257505 328.569114 
L 95.433309 341.712446 
L 96.021211 340.803443 
L 96.609113 336.897799 
L 97.197015 330.606504 
L 98.96072 305.65801 
L 99.548622 300.25632 
L 100.136524 297.203716 
L 100.724426 296.450522 
L 101.900229 301.312472 
L 102.488131 301.666899 
L 103.076033 306.141232 
L 104.251837 316.636627 
L 104.839738 316.899235 
L 105.42764 316.713011 
L 106.015542 315.473619 
L 107.779247 304.8238 
L 108.955051 301.401653 
L 109.542953 296.072647 
L 112.482462 279.193782 
L 113.070364 274.680322 
L 113.658266 268.516654 
L 114.246168 272.128587 
L 116.009873 287.122085 
L 116.597775 290.511932 
L 117.185677 297.776843 
L 118.36148 303.711035 
L 118.949382 306.525091 
L 119.537284 309.883935 
L 120.713088 318.349885 
L 121.30099 317.075641 
L 121.888891 315.232796 
L 124.240499 293.40123 
L 124.828401 280.851931 
L 126.004204 261.319007 
L 127.76791 237.337749 
L 128.943713 219.117396 
L 129.531615 212.177917 
L 132.471124 323.50456 
L 133.059026 321.702325 
L 134.23483 310.564948 
L 134.822732 300.372474 
L 136.586437 279.250343 
L 137.174339 272.384765 
L 137.762241 268.834428 
L 138.350143 271.01042 
L 138.938044 273.807238 
L 141.877554 293.968383 
L 145.404965 271.1441 
L 145.992866 268.028017 
L 146.580768 268.014456 
L 147.16867 272.007098 
L 148.932376 311.730839 
L 149.520277 322.693552 
L 150.108179 324.720194 
L 150.696081 324.885589 
L 151.283983 321.669743 
L 153.047688 307.995656 
L 153.63559 298.658358 
L 155.399296 284.155243 
L 155.987197 283.90022 
L 157.163001 294.093212 
L 159.514608 333.961584 
L 160.10251 336.25019 
L 160.690412 336.259356 
L 161.278314 335.597466 
L 163.629921 319.730608 
L 164.217823 320.033796 
L 167.745234 284.552619 
L 168.333136 283.874569 
L 169.50894 288.463502 
L 171.272645 294.813801 
L 171.860547 293.056988 
L 172.448449 292.559256 
L 174.212154 291.893832 
L 174.800056 293.183902 
L 175.387958 296.207295 
L 175.97586 298.25815 
L 176.563761 301.381446 
L 177.739565 310.56322 
L 178.327467 313.950387 
L 179.503271 319.244875 
L 180.091172 316.638629 
L 181.854878 270.930247 
L 183.618583 235.498072 
L 184.206485 221.72075 
L 184.794387 229.664866 
L 185.970191 268.96888 
L 187.733896 316.758952 
L 188.321798 317.181569 
L 188.9097 316.076134 
L 189.497602 314.622275 
L 190.673405 309.996554 
L 193.025013 297.309233 
L 193.612915 294.800592 
L 194.200816 294.166241 
L 195.964522 297.504648 
L 196.552424 297.878865 
L 197.140326 297.977482 
L 198.316129 294.583433 
L 198.904031 292.419589 
L 199.491933 294.52572 
L 200.667736 303.596069 
L 201.255638 305.990118 
L 201.84354 311.114311 
L 202.431442 317.467015 
L 203.019344 321.211714 
L 204.195147 322.554351 
L 204.783049 323.447089 
L 205.370951 323.444347 
L 207.134657 317.633343 
L 208.31046 312.087342 
L 209.486264 303.170902 
L 210.662068 299.820415 
L 211.249969 297.75949 
L 212.425773 291.099301 
L 213.013675 288.690869 
L 214.189479 285.658493 
L 214.77738 287.165438 
L 215.365282 290.622777 
L 215.953184 295.569991 
L 216.541086 301.489086 
L 218.304791 328.880032 
L 218.892693 335.091262 
L 219.480595 338.508487 
L 220.656399 341.49718 
L 221.244301 341.236852 
L 222.420104 333.407743 
L 224.771711 311.24254 
L 226.535417 292.180162 
L 228.887024 256.597927 
L 231.238632 221.651682 
L 232.414435 203.9569 
L 233.002337 207.801592 
L 235.353944 284.428994 
L 235.941846 296.08772 
L 237.11765 284.819562 
L 237.705552 281.026 
L 239.469257 273.774613 
L 240.057159 272.426695 
L 240.645061 273.441735 
L 241.232963 279.039696 
L 241.820865 285.864305 
L 243.58457 310.918486 
L 244.760374 323.353805 
L 245.348276 325.959678 
L 246.524079 329.115177 
L 247.111981 330.208659 
L 247.699883 330.50016 
L 248.287785 332.462485 
L 248.875686 333.994227 
L 249.463588 334.487927 
L 250.639392 334.253253 
L 251.227294 330.243488 
L 252.403097 316.033913 
L 254.166803 286.219665 
L 254.754705 287.5808 
L 256.51841 330.450653 
L 257.106312 346.328207 
L 257.694214 350.610821 
L 258.282116 347.88353 
L 260.045821 328.266406 
L 261.221625 313.444373 
L 261.809527 309.158335 
L 263.573232 308.367864 
L 265.336938 310.794261 
L 268.276447 329.003982 
L 268.864349 328.033383 
L 271.215956 312.304176 
L 271.803858 306.72121 
L 273.567563 287.860376 
L 274.743367 284.845657 
L 275.331269 285.732041 
L 276.507072 290.827139 
L 277.682876 296.236663 
L 278.270778 297.810149 
L 278.85868 298.88125 
L 280.622385 308.629662 
L 281.798189 314.440906 
L 282.386091 316.387881 
L 282.973993 313.825353 
L 285.913502 293.22206 
L 286.501404 288.736057 
L 287.089305 286.043198 
L 289.440913 280.239793 
L 290.028815 278.506321 
L 293.556226 292.017624 
L 294.144127 296.904768 
L 294.732029 295.662142 
L 295.907833 298.585869 
L 296.495735 302.859203 
L 297.083636 308.495653 
L 297.671538 316.461075 
L 299.435244 313.806773 
L 300.023146 310.469512 
L 300.611047 306.342531 
L 301.198949 305.526072 
L 302.962655 306.727233 
L 303.550557 306.112623 
L 304.138458 303.712041 
L 305.314262 293.139662 
L 305.902164 292.645894 
L 306.490066 293.105583 
L 307.077968 294.032706 
L 307.665869 298.33027 
L 308.253771 304.385222 
L 308.841673 314.499024 
L 310.605379 329.244992 
L 311.19328 332.905484 
L 311.781182 332.412426 
L 312.369084 331.343063 
L 314.720691 323.967973 
L 315.896495 319.406575 
L 316.484397 315.293529 
L 318.248102 298.255298 
L 318.836004 292.330798 
L 319.423906 290.887702 
L 320.59971 290.777202 
L 321.187611 294.025734 
L 322.363415 304.045062 
L 324.127121 313.293475 
L 325.302924 294.247883 
L 326.478728 275.413806 
L 329.418237 220.946036 
L 330.006139 217.774025 
L 332.945648 285.919835 
L 333.53355 291.119822 
L 334.121452 292.712058 
L 337.060961 330.699983 
L 337.648863 333.780552 
L 340.588372 310.865593 
L 342.352077 289.422477 
L 342.939979 282.113403 
L 343.527881 278.29517 
L 344.115783 275.421145 
L 345.291586 266.046012 
L 345.879488 265.94132 
L 347.055292 265.910356 
L 347.643194 263.267821 
L 348.818997 243.317279 
L 349.994801 232.986231 
L 351.170605 221.911779 
L 351.758507 214.182484 
L 352.346408 214.352409 
L 353.522212 255.068661 
L 355.285918 306.445131 
L 355.873819 312.340465 
L 356.461721 309.629166 
L 357.049623 308.576826 
L 358.225427 310.257796 
L 359.989132 314.476444 
L 361.164936 321.086964 
L 361.752838 323.270641 
L 362.928641 322.351714 
L 363.516543 322.386497 
L 364.104445 322.770537 
L 364.692347 322.884227 
L 365.280249 324.086179 
L 366.456052 322.928167 
L 367.043954 320.016179 
L 368.219758 310.616022 
L 369.983463 297.999448 
L 370.571365 297.582328 
L 371.159267 297.804295 
L 371.747169 302.534955 
L 372.922972 317.196884 
L 373.510874 322.616674 
L 374.098776 324.910706 
L 374.686678 324.892299 
L 375.27458 322.747753 
L 375.862482 321.788073 
L 376.450383 319.989587 
L 377.626187 309.990688 
L 379.389893 297.064615 
L 379.977794 294.229136 
L 380.565696 293.407284 
L 381.7415 302.221135 
L 383.505205 310.681599 
L 384.093107 311.154915 
L 384.681009 310.618046 
L 385.268911 312.17787 
L 387.620518 330.845363 
L 388.20842 333.783076 
L 389.384224 329.776045 
L 391.147929 320.369023 
L 392.323733 306.54131 
L 392.911635 305.594695 
L 394.67534 305.065825 
L 395.263242 305.029508 
L 395.851144 309.649263 
L 396.439046 312.871509 
L 397.614849 307.748158 
L 398.202751 304.329493 
L 398.790653 299.907269 
L 399.378555 296.6691 
L 401.14226 296.897914 
L 401.730162 296.667132 
L 402.318064 294.811866 
L 403.493868 289.516493 
L 405.257573 286.522466 
L 405.845475 284.052583 
L 408.197082 276.622524 
L 408.784984 280.414474 
L 409.372886 286.18789 
L 410.54869 287.854936 
L 411.136591 287.837749 
L 412.900297 279.679351 
L 414.0761 275.127793 
L 414.664002 274.098551 
L 415.251904 272.561505 
L 415.839806 275.964904 
L 416.427708 280.421751 
L 417.01561 283.688883 
L 417.603511 288.184762 
L 419.955119 310.964451 
L 420.543021 308.309396 
L 421.718824 299.901487 
L 422.306726 293.864877 
L 424.070432 271.844275 
L 424.658333 269.702981 
L 425.246235 268.976745 
L 427.009941 274.946907 
L 427.597843 275.69881 
L 428.773646 269.803311 
L 429.361548 270.785268 
L 430.537352 287.299529 
L 432.888959 325.883842 
L 434.064763 337.883059 
L 434.652665 337.78569 
L 435.240566 336.90083 
L 436.41637 332.828038 
L 437.004272 328.053826 
L 438.180075 314.257971 
L 439.355879 307.360942 
L 440.531683 300.0994 
L 441.119585 297.757474 
L 442.295388 294.667672 
L 442.88329 295.168173 
L 444.646996 301.508858 
L 446.410701 304.288179 
L 448.762308 301.63314 
L 449.35021 304.124202 
L 450.526014 311.495916 
L 452.877621 329.407431 
L 453.465523 327.825924 
L 457.580836 230.016579 
L 458.168738 221.259316 
L 458.75664 210.097297 
L 459.344541 206.557766 
L 461.108247 272.826001 
L 462.28405 309.504215 
L 462.871952 331.47387 
L 463.459854 329.441823 
L 464.047756 326.324523 
L 464.635658 325.46379 
L 465.22356 325.741145 
L 465.811461 325.317886 
L 467.575167 313.093648 
L 469.926774 285.780373 
L 472.278382 260.118492 
L 473.454185 252.503594 
L 474.042087 250.925572 
L 475.805793 268.421739 
L 477.569498 283.455128 
L 478.745302 290.727491 
L 479.921105 290.406369 
L 480.509007 289.544895 
L 481.684811 276.606715 
L 482.272713 272.122959 
L 484.62432 281.436488 
L 485.800124 288.542405 
L 486.388025 290.265093 
L 486.975927 288.126285 
L 489.327535 292.25436 
L 489.915436 296.705774 
L 490.503338 299.991471 
L 491.09124 298.33811 
L 491.679142 297.235773 
L 495.206553 310.390937 
L 495.794455 313.324422 
L 496.382357 314.557829 
L 496.970258 312.492497 
L 498.146062 306.923649 
L 498.733964 305.513817 
L 499.909768 296.190176 
L 500.497669 294.535053 
L 501.673473 292.552873 
L 502.261375 291.916259 
L 502.849277 293.402235 
L 503.437179 296.116514 
L 504.612982 306.74336 
L 505.200884 310.627288 
L 506.376688 315.042084 
L 506.964589 316.081351 
L 510.492 293.870042 
L 511.079902 292.956655 
L 512.255706 289.931988 
L 514.019411 287.8951 
L 514.607313 286.109527 
L 515.783117 280.178639 
L 516.371019 279.813303 
L 517.546822 286.636883 
L 518.722626 293.2293 
L 519.310528 294.486475 
L 522.837939 270.724693 
L 523.425841 272.483127 
L 524.013743 276.573789 
L 526.36535 306.562822 
L 526.953252 312.810122 
L 527.541154 315.668444 
L 528.129055 317.372088 
L 529.892761 325.95222 
L 530.480663 327.143482 
L 531.068564 325.44707 
L 534.595975 281.723347 
L 535.183877 286.792646 
L 537.535485 315.023633 
L 538.123386 314.227884 
L 539.29919 301.87109 
L 541.062896 301.122426 
L 541.650797 300.583388 
L 542.826601 298.608906 
L 545.178208 255.324187 
L 546.354012 240.314793 
L 548.117718 227.460641 
L 548.705619 239.776486 
L 551.057227 316.057819 
L 551.645129 327.389398 
L 552.820932 313.93714 
L 553.996736 299.77267 
L 555.172539 293.606073 
L 556.348343 298.606717 
L 556.936245 303.234577 
L 557.524147 308.810653 
L 558.112049 310.72159 
L 558.69995 310.34505 
L 560.463656 303.886674 
L 561.051558 301.469403 
L 562.227361 296.090836 
L 562.815263 294.05944 
L 564.578969 289.372644 
L 565.754772 303.21012 
L 566.930576 317.329982 
L 567.518478 323.869193 
L 568.10638 325.934285 
L 568.694282 323.279252 
L 570.457987 313.844797 
L 571.045889 311.216377 
L 571.633791 306.014821 
L 573.397496 283.952382 
L 573.985398 271.825712 
L 574.5733 272.737615 
L 575.161202 274.415701 
L 575.749104 279.205665 
L 577.512809 303.064458 
L 578.100711 301.090548 
L 578.688613 303.752871 
L 581.04022 312.001426 
L 581.628122 309.241779 
L 582.803925 297.595257 
L 583.391827 293.421089 
L 583.979729 290.626651 
L 584.567631 293.695009 
L 585.155533 287.755359 
L 586.331336 267.540742 
L 587.50714 242.517558 
L 588.095042 228.854419 
L 589.858747 198.376946 
L 590.446649 201.831798 
L 591.034551 200.553815 
L 591.622453 198.383291 
L 592.798257 195.588287 
L 593.97406 192.255597 
L 594.561962 193.683766 
L 595.149864 195.73347 
L 595.737766 200.453756 
L 597.501471 239.477537 
L 599.853079 307.758855 
L 600.44098 313.274716 
L 601.028882 316.660036 
L 601.616784 317.684533 
L 602.792588 317.715888 
L 603.380489 317.118159 
L 603.968391 316.08248 
L 604.556293 315.436097 
L 605.144195 306.158481 
L 606.9079 263.211571 
L 608.083704 230.852883 
L 609.259508 203.094382 
L 609.84741 200.6389 
L 610.435311 212.07545 
L 612.786919 284.755807 
L 613.962722 320.556725 
L 614.550624 322.147026 
L 616.31433 316.950684 
L 616.902232 313.557581 
L 617.490133 308.897065 
L 618.665937 297.908586 
L 621.017544 292.722828 
L 622.193348 299.563709 
L 625.132857 300.758366 
L 625.720759 302.352404 
L 628.660268 312.821187 
L 629.24817 313.875423 
L 632.187679 310.487655 
L 632.775581 310.08729 
L 633.363483 313.374504 
L 634.539286 325.737712 
L 635.127188 330.218485 
L 636.302992 334.978831 
L 636.890894 334.996307 
L 638.066697 320.225111 
L 641.006207 287.119343 
L 641.594108 283.241211 
L 642.18201 287.643135 
L 642.769912 296.987072 
L 643.945716 318.74621 
L 644.533618 326.988704 
L 645.121519 329.718209 
L 646.885225 317.156625 
L 649.824734 292.974956 
L 650.412636 294.624672 
L 651.000538 296.820654 
L 653.352145 311.020343 
L 653.940047 309.713272 
L 654.527949 306.516389 
L 656.879556 318.263045 
L 657.467458 317.551337 
L 658.05536 314.168347 
L 659.231163 306.461041 
L 660.994869 295.932091 
L 661.582771 295.094271 
L 662.170672 300.649314 
L 664.52228 318.493837 
L 665.110182 321.808635 
L 668.637593 301.547655 
L 669.225494 301.464606 
L 671.577102 309.358236 
L 672.165003 310.905937 
L 672.752905 309.545255 
L 673.340807 303.688764 
L 673.928709 289.559363 
L 676.280316 246.688037 
L 679.807727 206.26328 
L 679.807727 206.26328 
" clip-path="url(#p6b4cc4d2d4)" style="fill: none; stroke: #ff8c00; stroke-width: 1.5; stroke-linecap: square"/>
   </g>
   <g id="line2d_17">
    <path d="M 91.962273 325.845684 
L 92.549826 323.258353 
L 94.900038 301.2875 
L 95.487591 296.205177 
L 96.075144 294.322171 
L 96.662697 296.805521 
L 98.425356 319.262087 
L 99.012909 323.278447 
L 99.600462 326.025569 
L 100.188015 323.169979 
L 103.12578 280.65002 
L 103.713333 278.508084 
L 104.300886 277.862772 
L 104.888439 271.498979 
L 106.063546 249.541962 
L 107.238652 221.15491 
L 109.001311 175.522528 
L 109.588864 174.660663 
L 111.939076 312.59166 
L 112.526629 325.428545 
L 113.701735 321.00657 
L 114.289288 318.980059 
L 114.876841 317.48318 
L 115.464394 318.286386 
L 116.6395 311.363222 
L 117.227053 308.31204 
L 117.814606 306.856158 
L 118.989712 307.593978 
L 119.577265 309.300544 
L 120.164818 314.747533 
L 120.752371 316.35588 
L 121.339924 314.68915 
L 122.515031 309.336624 
L 123.102584 305.247712 
L 125.452796 283.578878 
L 126.040349 282.176896 
L 127.215455 282.19918 
L 127.803008 286.290713 
L 128.978114 303.470453 
L 129.565667 310.233815 
L 130.15322 311.067515 
L 130.740773 311.12117 
L 131.328326 309.444194 
L 133.678538 289.458469 
L 134.266091 288.361325 
L 136.616303 302.787648 
L 137.203856 306.105177 
L 137.791409 307.615413 
L 138.378962 309.794772 
L 139.554069 322.45369 
L 140.729175 336.035123 
L 141.316728 338.295289 
L 141.904281 337.148711 
L 142.491834 334.955918 
L 144.842046 314.155878 
L 145.429599 315.913146 
L 146.017152 316.862911 
L 148.367364 316.178452 
L 148.954917 315.067117 
L 149.54247 310.194967 
L 150.130023 307.607749 
L 152.480235 299.795839 
L 153.655341 289.476306 
L 154.242894 285.504829 
L 156.005554 288.600484 
L 156.593107 291.685453 
L 157.18066 300.72306 
L 157.768213 305.525177 
L 158.355766 308.570411 
L 159.530872 307.342652 
L 160.118425 302.902567 
L 161.881084 283.268988 
L 163.05619 273.258816 
L 163.643743 269.834843 
L 164.231296 273.832968 
L 165.993955 289.744038 
L 166.581508 296.523616 
L 167.169061 294.167072 
L 169.519273 272.222785 
L 170.106826 259.030028 
L 171.281932 222.342215 
L 171.869485 211.578613 
L 173.044592 234.199449 
L 173.632145 248.342038 
L 175.394804 305.28944 
L 175.982357 304.743845 
L 176.56991 304.041055 
L 177.745016 297.359003 
L 178.332569 298.418062 
L 178.920122 301.829787 
L 179.507675 308.597591 
L 180.682781 318.42741 
L 181.270334 319.66639 
L 181.857887 318.213522 
L 182.44544 315.780567 
L 183.620546 308.584087 
L 184.208099 306.061874 
L 184.795652 308.168647 
L 185.383205 307.776354 
L 187.145864 307.397013 
L 187.733417 305.067189 
L 188.908523 296.672556 
L 189.496077 297.404037 
L 190.08363 298.496351 
L 191.258736 303.918325 
L 194.196501 317.962433 
L 195.95916 324.652138 
L 196.546713 325.632207 
L 197.134266 325.153854 
L 200.072031 303.365005 
L 200.659584 303.553083 
L 203.009796 307.487647 
L 203.597349 306.014057 
L 204.772455 297.967547 
L 205.947561 292.998916 
L 206.535115 293.014227 
L 207.122668 294.804013 
L 208.885327 310.267363 
L 209.47288 318.304367 
L 210.647986 324.993079 
L 211.823092 325.487648 
L 212.410645 325.495163 
L 212.998198 325.035242 
L 213.585751 325.211642 
L 214.760857 327.545692 
L 215.935963 330.052752 
L 216.523516 330.702082 
L 217.111069 329.745823 
L 218.286175 323.512534 
L 220.048834 313.68726 
L 220.636387 313.569108 
L 221.22394 313.787203 
L 221.811493 314.653811 
L 223.574153 318.259747 
L 224.161706 317.69448 
L 225.924365 313.861408 
L 226.511918 312.205101 
L 227.099471 312.180891 
L 229.449683 331.530633 
L 230.037236 342.41111 
L 230.624789 345.356671 
L 232.387448 351.383813 
L 232.975001 351.107803 
L 233.562554 342.521485 
L 234.73766 305.435898 
L 237.087872 221.097713 
L 238.262978 184.289692 
L 238.850531 167.454355 
L 239.438084 185.500196 
L 241.788297 315.237802 
L 242.37585 330.792268 
L 242.963403 331.745123 
L 246.488721 318.877486 
L 247.076274 317.994822 
L 248.838933 314.574381 
L 249.426486 312.82238 
L 250.014039 309.226846 
L 251.776698 295.03913 
L 252.364251 290.191897 
L 252.951804 286.932656 
L 253.539357 284.833467 
L 256.477122 267.542922 
L 257.064676 263.08047 
L 258.239782 256.454151 
L 258.827335 256.120368 
L 259.414888 262.772844 
L 260.589994 272.649594 
L 262.352653 291.335944 
L 262.940206 294.504428 
L 263.527759 299.032678 
L 264.115312 302.630995 
L 264.702865 304.556141 
L 265.290418 307.561146 
L 265.877971 307.702371 
L 266.465524 306.721674 
L 267.053077 304.35391 
L 267.64063 300.453718 
L 269.403289 279.681122 
L 270.578395 252.136021 
L 271.165948 244.813299 
L 271.753501 239.670709 
L 273.51616 238.908994 
L 274.103714 237.8322 
L 274.691267 242.590008 
L 275.866373 269.428679 
L 276.453926 282.164853 
L 277.629032 299.718273 
L 278.216585 305.71465 
L 278.804138 302.32564 
L 279.979244 293.502012 
L 281.15435 290.235861 
L 281.741903 293.385739 
L 282.329456 295.436249 
L 284.092115 304.562099 
L 284.679668 306.60341 
L 285.267221 300.890573 
L 285.854774 287.52589 
L 288.204986 209.686843 
L 289.380092 186.033496 
L 289.967645 183.324863 
L 291.730305 235.113747 
L 292.317858 245.786404 
L 292.905411 252.337564 
L 294.080517 260.944651 
L 295.255623 252.948396 
L 295.843176 249.345906 
L 297.018282 263.878554 
L 299.368494 294.774256 
L 302.306259 314.645381 
L 302.893812 315.628092 
L 303.481365 316.227596 
L 305.244024 337.728337 
L 305.831577 339.093887 
L 306.41913 338.306796 
L 307.006683 335.040241 
L 308.769343 313.030319 
L 309.356896 312.092161 
L 309.944449 312.976505 
L 311.119555 315.804488 
L 311.707108 319.277755 
L 312.294661 321.484511 
L 313.469767 316.488503 
L 314.644873 313.771357 
L 315.232426 309.019883 
L 315.819979 307.245401 
L 318.170191 243.914767 
L 318.757744 227.007285 
L 319.93285 204.749538 
L 321.107956 184.310873 
L 321.695509 204.082736 
L 322.870615 250.465867 
L 324.633274 306.298822 
L 325.220828 304.743424 
L 325.808381 306.316332 
L 326.395934 311.382796 
L 328.158593 331.016829 
L 328.746146 332.91332 
L 329.333699 330.775704 
L 330.508805 318.216592 
L 331.096358 312.25793 
L 331.683911 310.356952 
L 332.271464 309.29266 
L 332.859017 310.154555 
L 334.034123 327.285565 
L 335.209229 345.685081 
L 336.384335 353.241445 
L 336.971888 350.241754 
L 337.559441 346.036217 
L 339.3221 318.088942 
L 340.497206 303.722115 
L 342.259866 281.161806 
L 342.847419 282.584905 
L 345.785184 336.220922 
L 346.372737 341.447551 
L 346.96029 345.351189 
L 348.135396 340.689125 
L 348.722949 338.207328 
L 349.310502 335.220732 
L 349.898055 330.247203 
L 352.248267 305.8171 
L 352.83582 303.707329 
L 353.423373 309.295261 
L 355.773585 336.109364 
L 356.361138 332.223443 
L 358.711351 290.441416 
L 359.298904 289.524463 
L 360.47401 302.18849 
L 362.236669 330.92758 
L 362.824222 330.130998 
L 363.411775 330.877718 
L 363.999328 330.24408 
L 365.761987 319.789289 
L 366.34954 312.952337 
L 366.937093 312.147931 
L 368.112199 319.73471 
L 369.287305 328.527972 
L 369.874858 334.069891 
L 370.462411 337.098411 
L 372.22507 342.642662 
L 372.812623 343.884918 
L 373.400176 340.457044 
L 373.987729 333.855035 
L 376.337942 329.481511 
L 376.925495 327.84648 
L 378.100601 341.688357 
L 379.86326 357.61189 
L 380.450813 359.242499 
L 381.625919 358.457771 
L 383.388578 361.777272 
L 383.976131 360.936709 
L 384.563684 359.467313 
L 385.151237 357.197711 
L 386.326343 351.058962 
L 386.913896 348.751441 
L 388.089002 318.631186 
L 390.439214 255.561713 
L 391.026767 235.305819 
L 391.61432 231.585542 
L 392.201873 237.141254 
L 393.37698 245.399591 
L 393.964533 255.871876 
L 396.314745 315.987622 
L 396.902298 321.073926 
L 399.840063 296.25878 
L 402.190275 228.728076 
L 402.777828 217.832959 
L 403.952934 200.330717 
L 404.540487 186.669515 
L 405.12804 187.522847 
L 407.478252 279.016166 
L 408.065805 292.473907 
L 409.828465 291.340684 
L 410.416018 296.621222 
L 411.591124 316.271023 
L 412.178677 322.603521 
L 413.353783 332.364175 
L 413.941336 333.154675 
L 414.528889 333.048367 
L 415.116442 332.560439 
L 415.703995 331.424457 
L 416.291548 334.011277 
L 416.879101 333.606121 
L 418.054207 329.114984 
L 418.64176 329.00854 
L 419.229313 328.539332 
L 422.167078 233.612736 
L 422.754631 218.013481 
L 423.342184 206.131437 
L 423.929737 198.409297 
L 424.51729 214.684379 
L 425.692396 268.466525 
L 426.867503 313.738476 
L 427.455056 334.478323 
L 428.630162 341.3765 
L 430.392821 356.481514 
L 431.567927 349.379994 
L 432.15548 342.474317 
L 433.330586 320.660162 
L 434.505692 305.645975 
L 435.093245 296.363346 
L 435.680798 280.866341 
L 436.268351 269.899527 
L 438.03101 220.539334 
L 438.618563 203.740584 
L 439.206116 190.486524 
L 439.793669 209.12507 
L 442.143881 326.798111 
L 442.731434 334.076444 
L 443.318988 336.243456 
L 443.906541 337.033114 
L 444.494094 336.466006 
L 445.081647 334.654488 
L 448.606965 314.247071 
L 449.194518 317.241989 
L 449.782071 321.571156 
L 450.369624 323.96677 
L 450.957177 327.18407 
L 451.54473 332.143001 
L 452.132283 329.859207 
L 453.307389 323.990834 
L 454.482495 321.183984 
L 455.070048 323.611777 
L 456.832707 335.314626 
L 458.007813 345.263578 
L 458.595366 347.359127 
L 460.358026 351.582982 
L 460.945579 351.54267 
L 461.533132 349.1744 
L 463.883344 325.869887 
L 465.05845 320.216346 
L 465.646003 321.105974 
L 466.821109 326.392605 
L 467.408662 330.84101 
L 468.583768 344.400049 
L 470.346427 348.552238 
L 470.93398 349.622569 
L 472.109086 345.922243 
L 472.696639 346.577107 
L 473.871745 352.998633 
L 474.459298 355.523853 
L 475.046851 357.012638 
L 475.634404 349.320735 
L 478.57217 271.462809 
L 479.747276 240.907592 
L 480.922382 214.460062 
L 483.860147 323.690952 
L 484.4477 335.630138 
L 485.035253 341.728758 
L 485.622806 346.508191 
L 486.797912 351.965771 
L 487.385465 353.766555 
L 489.735677 334.888021 
L 490.32323 331.156269 
L 491.498336 320.88941 
L 492.085889 320.006831 
L 493.260995 319.29995 
L 493.848549 317.953132 
L 495.611208 296.718788 
L 499.136526 232.228916 
L 499.724079 228.841069 
L 502.074291 252.582516 
L 502.661844 255.955629 
L 503.83695 256.67465 
L 504.424503 259.659046 
L 507.362268 348.078853 
L 507.949821 354.673948 
L 509.124927 347.231588 
L 509.71248 344.036034 
L 510.300033 341.730481 
L 511.47514 338.830857 
L 512.062693 336.66564 
L 512.650246 332.830497 
L 513.237799 315.909054 
L 514.412905 272.780903 
L 516.763117 182.205389 
L 517.35067 190.484549 
L 517.938223 210.429908 
L 520.288435 303.374955 
L 520.875988 320.713467 
L 522.051094 334.762541 
L 523.2262 349.678574 
L 523.813753 353.318091 
L 524.401306 355.119782 
L 524.988859 355.447307 
L 525.576412 355.292137 
L 526.751518 353.149548 
L 528.514178 351.098346 
L 529.101731 348.611532 
L 530.276837 346.380176 
L 530.86439 346.234239 
L 532.039496 347.010837 
L 532.627049 347.893418 
L 533.802155 345.621626 
L 535.564814 330.187446 
L 537.915026 309.368605 
L 538.502579 304.996909 
L 539.090132 303.421696 
L 541.440344 312.996298 
L 542.027897 315.826194 
L 542.61545 320.498519 
L 545.553216 362.811242 
L 547.315875 353.883076 
L 547.903428 349.927728 
L 548.490981 343.546348 
L 549.078534 339.871403 
L 550.841193 338.914461 
L 551.428746 340.380844 
L 552.016299 342.446988 
L 552.603852 349.428706 
L 553.191405 350.888749 
L 554.366511 354.203229 
L 554.954064 354.141214 
L 556.716723 341.833659 
L 557.304276 340.75129 
L 557.891829 339.329974 
L 558.479382 338.522058 
L 560.242041 333.604874 
L 560.829594 330.134093 
L 561.417148 325.478498 
L 562.592254 312.620209 
L 563.179807 307.883237 
L 563.76736 306.204309 
L 564.942466 310.159728 
L 565.530019 314.601293 
L 566.705125 328.389065 
L 567.292678 333.060487 
L 568.467784 337.698722 
L 569.055337 339.590138 
L 569.64289 339.095903 
L 570.230443 337.046021 
L 570.817996 333.099425 
L 571.405549 331.753773 
L 572.580655 330.001802 
L 573.168208 329.955637 
L 573.755761 330.871301 
L 574.930867 335.835068 
L 576.105973 340.169346 
L 576.693526 340.243207 
L 577.281079 339.850427 
L 577.868632 338.557336 
L 578.456186 336.570583 
L 579.043739 337.950835 
L 580.218845 341.90073 
L 580.806398 344.018209 
L 581.393951 344.536509 
L 582.569057 341.47477 
L 583.15661 340.805168 
L 585.506822 332.823979 
L 586.094375 333.868322 
L 586.681928 334.095165 
L 587.269481 334.883109 
L 588.444587 339.683014 
L 589.03214 339.41531 
L 589.619693 337.894257 
L 590.207246 336.816502 
L 590.794799 336.40247 
L 592.557458 332.784855 
L 593.145011 337.969148 
L 594.320117 340.230475 
L 594.90767 339.796875 
L 595.495224 339.105408 
L 596.082777 337.044969 
L 597.257883 330.494011 
L 599.020542 337.574012 
L 600.195648 338.894201 
L 600.783201 340.396078 
L 601.370754 342.587707 
L 601.958307 342.612359 
L 603.720966 340.32563 
L 604.308519 338.746143 
L 606.071178 329.59428 
L 606.658731 325.0405 
L 607.246284 323.444647 
L 607.833837 320.804039 
L 608.42139 316.102025 
L 609.596496 313.269042 
L 610.771602 320.476812 
L 611.359155 324.068766 
L 611.946709 326.034403 
L 612.534262 330.314557 
L 613.121815 338.456836 
L 613.709368 344.445377 
L 614.884474 350.304311 
L 615.472027 350.15317 
L 616.05958 346.868993 
L 616.647133 342.468817 
L 617.234686 336.829103 
L 617.822239 332.48735 
L 618.997345 326.712749 
L 619.584898 322.152961 
L 620.172451 313.501218 
L 620.760004 314.991964 
L 621.347557 317.272572 
L 623.697769 321.837758 
L 624.285322 325.47537 
L 625.460428 318.541925 
L 627.81064 303.372762 
L 628.398193 298.382887 
L 628.985747 304.351087 
L 631.335959 345.713973 
L 631.923512 351.572561 
L 632.511065 344.309361 
L 635.44883 286.310662 
L 636.036383 281.833815 
L 636.623936 280.825767 
L 637.799042 305.64757 
L 638.974148 330.074093 
L 640.736807 358.942346 
L 642.499466 365.961894 
L 643.087019 366.42958 
L 643.674572 364.999665 
L 644.849678 359.274908 
L 646.612338 351.405611 
L 647.199891 351.086488 
L 647.787444 350.141649 
L 649.550103 350.663754 
L 650.137656 350.692 
L 650.725209 349.909442 
L 651.312762 350.094205 
L 653.075421 356.195382 
L 653.662974 356.981155 
L 654.250527 356.948434 
L 654.83808 355.361123 
L 655.425633 352.041131 
L 657.188292 338.321334 
L 657.775845 337.002806 
L 658.950951 335.000141 
L 659.538504 334.416887 
L 660.126057 334.483529 
L 660.71361 341.845813 
L 662.476269 360.507971 
L 663.651376 373.467273 
L 664.826482 366.330921 
L 666.589141 279.810286 
L 667.764247 222.593475 
L 668.939353 167.551698 
L 670.702012 79.276941 
L 671.289565 73.017715 
L 673.639777 224.49675 
L 675.402436 340.567061 
L 676.577542 344.089344 
L 678.340201 348.535845 
L 678.927754 349.762164 
L 678.927754 349.762164 
" clip-path="url(#p6b4cc4d2d4)" style="fill: none; stroke: #8b0000; stroke-width: 1.5; stroke-linecap: square"/>
   </g>
   <g id="patch_3">
    <path d="M 62.57 390.04 
L 62.57 25.44 
" style="fill: none; stroke: #000000; stroke-width: 0.8; stroke-linejoin: miter; stroke-linecap: square"/>
   </g>
   <g id="patch_4">
    <path d="M 709.2 390.04 
L 709.2 25.44 
" style="fill: none; stroke: #000000; stroke-width: 0.8; stroke-linejoin: miter; stroke-linecap: square"/>
   </g>
   <g id="patch_5">
    <path d="M 62.57 390.04 
L 709.2 390.04 
" style="fill: none; stroke: #000000; stroke-width: 0.8; stroke-linejoin: miter; stroke-linecap: square"/>
   </g>
   <g id="patch_6">
    <path d="M 62.57 25.44 
L 709.2 25.44 
" style="fill: none; stroke: #000000; stroke-width: 0.8; stroke-linejoin: miter; stroke-linecap: square"/>
   </g>
   <g id="text_17">
    <!-- Policy Algorithms Comparison on AlienNoFrameskip-v4 -->
    <g transform="translate(221.854375 19.44) scale(0.12 -0.12)">
     <defs>
      <path id="DejaVuSans-50" d="M 1259 4147 
L 1259 2394 
L 2053 2394 
Q 2494 2394 2734 2622 
Q 2975 2850 2975 3272 
Q 2975 3691 2734 3919 
Q 2494 4147 2053 4147 
L 1259 4147 
z
M 628 4666 
L 2053 4666 
Q 2838 4666 3239 4311 
Q 3641 3956 3641 3272 
Q 3641 2581 3239 2228 
Q 2838 1875 2053 1875 
L 1259 1875 
L 1259 0 
L 628 0 
L 628 4666 
z
" transform="scale(0.015625)"/>
      <path id="DejaVuSans-79" d="M 2059 -325 
Q 1816 -950 1584 -1140 
Q 1353 -1331 966 -1331 
L 506 -1331 
L 506 -850 
L 844 -850 
Q 1081 -850 1212 -737 
Q 1344 -625 1503 -206 
L 1606 56 
L 191 3500 
L 800 3500 
L 1894 763 
L 2988 3500 
L 3597 3500 
L 2059 -325 
z
" transform="scale(0.015625)"/>
      <path id="DejaVuSans-41" d="M 2188 4044 
L 1331 1722 
L 3047 1722 
L 2188 4044 
z
M 1831 4666 
L 2547 4666 
L 4325 0 
L 3669 0 
L 3244 1197 
L 1141 1197 
L 716 0 
L 50 0 
L 1831 4666 
z
" transform="scale(0.015625)"/>
      <path id="DejaVuSans-67" d="M 2906 1791 
Q 2906 2416 2648 2759 
Q 2391 3103 1925 3103 
Q 1463 3103 1205 2759 
Q 947 2416 947 1791 
Q 947 1169 1205 825 
Q 1463 481 1925 481 
Q 2391 481 2648 825 
Q 2906 1169 2906 1791 
z
M 3481 434 
Q 3481 -459 3084 -895 
Q 2688 -1331 1869 -1331 
Q 1566 -1331 1297 -1286 
Q 1028 -1241 775 -1147 
L 775 -588 
Q 1028 -725 1275 -790 
Q 1522 -856 1778 -856 
Q 2344 -856 2625 -561 
Q 2906 -266 2906 331 
L 2906 616 
Q 2728 306 2450 153 
Q 2172 0 1784 0 
Q 1141 0 747 490 
Q 353 981 353 1791 
Q 353 2603 747 3093 
Q 1141 3584 1784 3584 
Q 2172 3584 2450 3431 
Q 2728 3278 2906 2969 
L 2906 3500 
L 3481 3500 
L 3481 434 
z
" transform="scale(0.015625)"/>
      <path id="DejaVuSans-43" d="M 4122 4306 
L 4122 3641 
Q 3803 3938 3442 4084 
Q 3081 4231 2675 4231 
Q 1875 4231 1450 3742 
Q 1025 3253 1025 2328 
Q 1025 1406 1450 917 
Q 1875 428 2675 428 
Q 3081 428 3442 575 
Q 3803 722 4122 1019 
L 4122 359 
Q 3791 134 3420 21 
Q 3050 -91 2638 -91 
Q 1578 -91 968 557 
Q 359 1206 359 2328 
Q 359 3453 968 4101 
Q 1578 4750 2638 4750 
Q 3056 4750 3426 4639 
Q 3797 4528 4122 4306 
z
" transform="scale(0.015625)"/>
      <path id="DejaVuSans-46" d="M 628 4666 
L 3309 4666 
L 3309 4134 
L 1259 4134 
L 1259 2759 
L 3109 2759 
L 3109 2228 
L 1259 2228 
L 1259 0 
L 628 0 
L 628 4666 
z
" transform="scale(0.015625)"/>
      <path id="DejaVuSans-6b" d="M 581 4863 
L 1159 4863 
L 1159 1991 
L 2875 3500 
L 3609 3500 
L 1753 1863 
L 3688 0 
L 2938 0 
L 1159 1709 
L 1159 0 
L 581 0 
L 581 4863 
z
" transform="scale(0.015625)"/>
      <path id="DejaVuSans-2d" d="M 313 2009 
L 1997 2009 
L 1997 1497 
L 313 1497 
L 313 2009 
z
" transform="scale(0.015625)"/>
      <path id="DejaVuSans-76" d="M 191 3500 
L 800 3500 
L 1894 563 
L 2988 3500 
L 3597 3500 
L 2284 0 
L 1503 0 
L 191 3500 
z
" transform="scale(0.015625)"/>
     </defs>
     <use xlink:href="#DejaVuSans-50"/>
     <use xlink:href="#DejaVuSans-6f" transform="translate(56.677734 0)"/>
     <use xlink:href="#DejaVuSans-6c" transform="translate(117.859375 0)"/>
     <use xlink:href="#DejaVuSans-69" transform="translate(145.642578 0)"/>
     <use xlink:href="#DejaVuSans-63" transform="translate(173.425781 0)"/>
     <use xlink:href="#DejaVuSans-79" transform="translate(228.40625 0)"/>
     <use xlink:href="#DejaVuSans-20" transform="translate(287.585938 0)"/>
     <use xlink:href="#DejaVuSans-41" transform="translate(319.373047 0)"/>
     <use xlink:href="#DejaVuSans-6c" transform="translate(387.78125 0)"/>
     <use xlink:href="#DejaVuSans-67" transform="translate(415.564453 0)"/>
     <use xlink:href="#DejaVuSans-6f" transform="translate(479.041016 0)"/>
     <use xlink:href="#DejaVuSans-72" transform="translate(540.222656 0)"/>
     <use xlink:href="#DejaVuSans-69" transform="translate(581.335938 0)"/>
     <use xlink:href="#DejaVuSans-74" transform="translate(609.119141 0)"/>
     <use xlink:href="#DejaVuSans-68" transform="translate(648.328125 0)"/>
     <use xlink:href="#DejaVuSans-6d" transform="translate(711.707031 0)"/>
     <use xlink:href="#DejaVuSans-73" transform="translate(809.119141 0)"/>
     <use xlink:href="#DejaVuSans-20" transform="translate(861.21875 0)"/>
     <use xlink:href="#DejaVuSans-43" transform="translate(893.005859 0)"/>
     <use xlink:href="#DejaVuSans-6f" transform="translate(962.830078 0)"/>
     <use xlink:href="#DejaVuSans-6d" transform="translate(1024.011719 0)"/>
     <use xlink:href="#DejaVuSans-70" transform="translate(1121.423828 0)"/>
     <use xlink:href="#DejaVuSans-61" transform="translate(1184.900391 0)"/>
     <use xlink:href="#DejaVuSans-72" transform="translate(1246.179688 0)"/>
     <use xlink:href="#DejaVuSans-69" transform="translate(1287.292969 0)"/>
     <use xlink:href="#DejaVuSans-73" transform="translate(1315.076172 0)"/>
     <use xlink:href="#DejaVuSans-6f" transform="translate(1367.175781 0)"/>
     <use xlink:href="#DejaVuSans-6e" transform="translate(1428.357422 0)"/>
     <use xlink:href="#DejaVuSans-20" transform="translate(1491.736328 0)"/>
     <use xlink:href="#DejaVuSans-6f" transform="translate(1523.523438 0)"/>
     <use xlink:href="#DejaVuSans-6e" transform="translate(1584.705078 0)"/>
     <use xlink:href="#DejaVuSans-20" transform="translate(1648.083984 0)"/>
     <use xlink:href="#DejaVuSans-41" transform="translate(1679.871094 0)"/>
     <use xlink:href="#DejaVuSans-6c" transform="translate(1748.279297 0)"/>
     <use xlink:href="#DejaVuSans-69" transform="translate(1776.0625 0)"/>
     <use xlink:href="#DejaVuSans-65" transform="translate(1803.845703 0)"/>
     <use xlink:href="#DejaVuSans-6e" transform="translate(1865.369141 0)"/>
     <use xlink:href="#DejaVuSans-4e" transform="translate(1928.748047 0)"/>
     <use xlink:href="#DejaVuSans-6f" transform="translate(2003.552734 0)"/>
     <use xlink:href="#DejaVuSans-46" transform="translate(2064.734375 0)"/>
     <use xlink:href="#DejaVuSans-72" transform="translate(2115.003906 0)"/>
     <use xlink:href="#DejaVuSans-61" transform="translate(2156.117188 0)"/>
     <use xlink:href="#DejaVuSans-6d" transform="translate(2217.396484 0)"/>
     <use xlink:href="#DejaVuSans-65" transform="translate(2314.808594 0)"/>
     <use xlink:href="#DejaVuSans-73" transform="translate(2376.332031 0)"/>
     <use xlink:href="#DejaVuSans-6b" transform="translate(2428.431641 0)"/>
     <use xlink:href="#DejaVuSans-69" transform="translate(2486.341797 0)"/>
     <use xlink:href="#DejaVuSans-70" transform="translate(2514.125 0)"/>
     <use xlink:href="#DejaVuSans-2d" transform="translate(2577.601562 0)"/>
     <use xlink:href="#DejaVuSans-76" transform="translate(2611.060547 0)"/>
     <use xlink:href="#DejaVuSans-34" transform="translate(2670.240234 0)"/>
    </g>
   </g>
   <g id="legend_1">
    <g id="patch_7">
     <path d="M 69.57 92.986875 
L 173.966875 92.986875 
Q 175.966875 92.986875 175.966875 90.986875 
L 175.966875 32.44 
Q 175.966875 30.44 173.966875 30.44 
L 69.57 30.44 
Q 67.57 30.44 67.57 32.44 
L 67.57 90.986875 
Q 67.57 92.986875 69.57 92.986875 
z
" style="fill: #ffffff; opacity: 0.8; stroke: #cccccc; stroke-linejoin: miter"/>
    </g>
    <g id="text_18">
     <!-- Algorithm -->
     <g transform="translate(97.281719 42.038437) scale(0.1 -0.1)">
      <use xlink:href="#DejaVuSans-41"/>
      <use xlink:href="#DejaVuSans-6c" transform="translate(68.408203 0)"/>
      <use xlink:href="#DejaVuSans-67" transform="translate(96.191406 0)"/>
      <use xlink:href="#DejaVuSans-6f" transform="translate(159.667969 0)"/>
      <use xlink:href="#DejaVuSans-72" transform="translate(220.849609 0)"/>
      <use xlink:href="#DejaVuSans-69" transform="translate(261.962891 0)"/>
      <use xlink:href="#DejaVuSans-74" transform="translate(289.746094 0)"/>
      <use xlink:href="#DejaVuSans-68" transform="translate(328.955078 0)"/>
      <use xlink:href="#DejaVuSans-6d" transform="translate(392.333984 0)"/>
     </g>
    </g>
    <g id="line2d_18">
     <path d="M 71.57 53.216563 
L 81.57 53.216563 
L 91.57 53.216563 
" style="fill: none; stroke: #00008b; stroke-width: 1.5; stroke-linecap: square"/>
    </g>
    <g id="text_19">
     <!-- ppo_atari -->
     <g transform="translate(99.57 56.716563) scale(0.1 -0.1)">
      <defs>
       <path id="DejaVuSans-5f" d="M 3263 -1063 
L 3263 -1509 
L -63 -1509 
L -63 -1063 
L 3263 -1063 
z
" transform="scale(0.015625)"/>
      </defs>
      <use xlink:href="#DejaVuSans-70"/>
      <use xlink:href="#DejaVuSans-70" transform="translate(63.476562 0)"/>
      <use xlink:href="#DejaVuSans-6f" transform="translate(126.953125 0)"/>
      <use xlink:href="#DejaVuSans-5f" transform="translate(188.134766 0)"/>
      <use xlink:href="#DejaVuSans-61" transform="translate(238.134766 0)"/>
      <use xlink:href="#DejaVuSans-74" transform="translate(299.414062 0)"/>
      <use xlink:href="#DejaVuSans-61" transform="translate(338.623047 0)"/>
      <use xlink:href="#DejaVuSans-72" transform="translate(399.902344 0)"/>
      <use xlink:href="#DejaVuSans-69" transform="translate(441.015625 0)"/>
     </g>
    </g>
    <g id="line2d_19">
     <path d="M 71.57 68.172813 
L 81.57 68.172813 
L 91.57 68.172813 
" style="fill: none; stroke: #ff8c00; stroke-width: 1.5; stroke-linecap: square"/>
    </g>
    <g id="text_20">
     <!-- reinforce_atari -->
     <g transform="translate(99.57 71.672813) scale(0.1 -0.1)">
      <defs>
       <path id="DejaVuSans-66" d="M 2375 4863 
L 2375 4384 
L 1825 4384 
Q 1516 4384 1395 4259 
Q 1275 4134 1275 3809 
L 1275 3500 
L 2222 3500 
L 2222 3053 
L 1275 3053 
L 1275 0 
L 697 0 
L 697 3053 
L 147 3053 
L 147 3500 
L 697 3500 
L 697 3744 
Q 697 4328 969 4595 
Q 1241 4863 1831 4863 
L 2375 4863 
z
" transform="scale(0.015625)"/>
      </defs>
      <use xlink:href="#DejaVuSans-72"/>
      <use xlink:href="#DejaVuSans-65" transform="translate(38.863281 0)"/>
      <use xlink:href="#DejaVuSans-69" transform="translate(100.386719 0)"/>
      <use xlink:href="#DejaVuSans-6e" transform="translate(128.169922 0)"/>
      <use xlink:href="#DejaVuSans-66" transform="translate(191.548828 0)"/>
      <use xlink:href="#DejaVuSans-6f" transform="translate(226.753906 0)"/>
      <use xlink:href="#DejaVuSans-72" transform="translate(287.935547 0)"/>
      <use xlink:href="#DejaVuSans-63" transform="translate(326.798828 0)"/>
      <use xlink:href="#DejaVuSans-65" transform="translate(381.779297 0)"/>
      <use xlink:href="#DejaVuSans-5f" transform="translate(443.302734 0)"/>
      <use xlink:href="#DejaVuSans-61" transform="translate(493.302734 0)"/>
      <use xlink:href="#DejaVuSans-74" transform="translate(554.582031 0)"/>
      <use xlink:href="#DejaVuSans-61" transform="translate(593.791016 0)"/>
      <use xlink:href="#DejaVuSans-72" transform="translate(655.070312 0)"/>
      <use xlink:href="#DejaVuSans-69" transform="translate(696.183594 0)"/>
     </g>
    </g>
    <g id="line2d_20">
     <path d="M 71.57 83.129063 
L 81.57 83.129063 
L 91.57 83.129063 
" style="fill: none; stroke: #8b0000; stroke-width: 1.5; stroke-linecap: square"/>
    </g>
    <g id="text_21">
     <!-- sac_atari -->
     <g transform="translate(99.57 86.629063) scale(0.1 -0.1)">
      <use xlink:href="#DejaVuSans-73"/>
      <use xlink:href="#DejaVuSans-61" transform="translate(52.099609 0)"/>
      <use xlink:href="#DejaVuSans-63" transform="translate(113.378906 0)"/>
      <use xlink:href="#DejaVuSans-5f" transform="translate(168.359375 0)"/>
      <use xlink:href="#DejaVuSans-61" transform="translate(218.359375 0)"/>
      <use xlink:href="#DejaVuSans-74" transform="translate(279.638672 0)"/>
      <use xlink:href="#DejaVuSans-61" transform="translate(318.847656 0)"/>
      <use xlink:href="#DejaVuSans-72" transform="translate(380.126953 0)"/>
      <use xlink:href="#DejaVuSans-69" transform="translate(421.240234 0)"/>
     </g>
    </g>
   </g>
  </g>
 </g>
 <defs>
  <clipPath id="p6b4cc4d2d4">
   <rect x="62.57" y="25.44" width="646.63" height="364.6"/>
  </clipPath>
 </defs>
</svg>
