<?xml version="1.0" encoding="utf-8" standalone="no"?>
<!DOCTYPE svg PUBLIC "-//W3C//DTD SVG 1.1//EN"
  "http://www.w3.org/Graphics/SVG/1.1/DTD/svg11.dtd">
<svg xmlns:xlink="http://www.w3.org/1999/xlink" width="720pt" height="432pt" viewBox="0 0 720 432" xmlns="http://www.w3.org/2000/svg" version="1.1">
 <metadata>
  <rdf:RDF xmlns:dc="http://purl.org/dc/elements/1.1/" xmlns:cc="http://creativecommons.org/ns#" xmlns:rdf="http://www.w3.org/1999/02/22-rdf-syntax-ns#">
   <cc:Work>
    <dc:type rdf:resource="http://purl.org/dc/dcmitype/StillImage"/>
    <dc:date>2025-02-09T22:57:28.171641</dc:date>
    <dc:format>image/svg+xml</dc:format>
    <dc:creator>
     <cc:Agent>
      <dc:title>Matplotlib v3.10.0, https://matplotlib.org/</dc:title>
     </cc:Agent>
    </dc:creator>
   </cc:Work>
  </rdf:RDF>
 </metadata>
 <defs>
  <style type="text/css">*{stroke-linejoin: round; stroke-linecap: butt}</style>
 </defs>
 <g id="figure_1">
  <g id="patch_1">
   <path d="M 0 432 
L 720 432 
L 720 0 
L 0 0 
z
" style="fill: #ffffff"/>
  </g>
  <g id="axes_1">
   <g id="patch_2">
    <path d="M 62.57 390.04 
L 709.2 390.04 
L 709.2 25.44 
L 62.57 25.44 
z
" style="fill: #ffffff"/>
   </g>
   <g id="matplotlib.axis_1">
    <g id="xtick_1">
     <g id="line2d_1">
      <defs>
       <path id="mb2eeab9846" d="M 0 0 
L 0 3.5 
" style="stroke: #000000; stroke-width: 0.8"/>
      </defs>
      <g>
       <use xlink:href="#mb2eeab9846" x="90.148244" y="390.04" style="stroke: #000000; stroke-width: 0.8"/>
      </g>
     </g>
     <g id="text_1">
      <!-- 0 -->
      <g transform="translate(86.966994 404.638438) scale(0.1 -0.1)">
       <defs>
        <path id="DejaVuSans-30" d="M 2034 4250 
Q 1547 4250 1301 3770 
Q 1056 3291 1056 2328 
Q 1056 1369 1301 889 
Q 1547 409 2034 409 
Q 2525 409 2770 889 
Q 3016 1369 3016 2328 
Q 3016 3291 2770 3770 
Q 2525 4250 2034 4250 
z
M 2034 4750 
Q 2819 4750 3233 4129 
Q 3647 3509 3647 2328 
Q 3647 1150 3233 529 
Q 2819 -91 2034 -91 
Q 1250 -91 836 529 
Q 422 1150 422 2328 
Q 422 3509 836 4129 
Q 1250 4750 2034 4750 
z
" transform="scale(0.015625)"/>
       </defs>
       <use xlink:href="#DejaVuSans-30"/>
      </g>
     </g>
    </g>
    <g id="xtick_2">
     <g id="line2d_2">
      <g>
       <use xlink:href="#mb2eeab9846" x="207.942322" y="390.04" style="stroke: #000000; stroke-width: 0.8"/>
      </g>
     </g>
     <g id="text_2">
      <!-- 20000 -->
      <g transform="translate(192.036072 404.638438) scale(0.1 -0.1)">
       <defs>
        <path id="DejaVuSans-32" d="M 1228 531 
L 3431 531 
L 3431 0 
L 469 0 
L 469 531 
Q 828 903 1448 1529 
Q 2069 2156 2228 2338 
Q 2531 2678 2651 2914 
Q 2772 3150 2772 3378 
Q 2772 3750 2511 3984 
Q 2250 4219 1831 4219 
Q 1534 4219 1204 4116 
Q 875 4013 500 3803 
L 500 4441 
Q 881 4594 1212 4672 
Q 1544 4750 1819 4750 
Q 2544 4750 2975 4387 
Q 3406 4025 3406 3419 
Q 3406 3131 3298 2873 
Q 3191 2616 2906 2266 
Q 2828 2175 2409 1742 
Q 1991 1309 1228 531 
z
" transform="scale(0.015625)"/>
       </defs>
       <use xlink:href="#DejaVuSans-32"/>
       <use xlink:href="#DejaVuSans-30" transform="translate(63.623047 0)"/>
       <use xlink:href="#DejaVuSans-30" transform="translate(127.246094 0)"/>
       <use xlink:href="#DejaVuSans-30" transform="translate(190.869141 0)"/>
       <use xlink:href="#DejaVuSans-30" transform="translate(254.492188 0)"/>
      </g>
     </g>
    </g>
    <g id="xtick_3">
     <g id="line2d_3">
      <g>
       <use xlink:href="#mb2eeab9846" x="325.736399" y="390.04" style="stroke: #000000; stroke-width: 0.8"/>
      </g>
     </g>
     <g id="text_3">
      <!-- 40000 -->
      <g transform="translate(309.830149 404.638438) scale(0.1 -0.1)">
       <defs>
        <path id="DejaVuSans-34" d="M 2419 4116 
L 825 1625 
L 2419 1625 
L 2419 4116 
z
M 2253 4666 
L 3047 4666 
L 3047 1625 
L 3713 1625 
L 3713 1100 
L 3047 1100 
L 3047 0 
L 2419 0 
L 2419 1100 
L 313 1100 
L 313 1709 
L 2253 4666 
z
" transform="scale(0.015625)"/>
       </defs>
       <use xlink:href="#DejaVuSans-34"/>
       <use xlink:href="#DejaVuSans-30" transform="translate(63.623047 0)"/>
       <use xlink:href="#DejaVuSans-30" transform="translate(127.246094 0)"/>
       <use xlink:href="#DejaVuSans-30" transform="translate(190.869141 0)"/>
       <use xlink:href="#DejaVuSans-30" transform="translate(254.492188 0)"/>
      </g>
     </g>
    </g>
    <g id="xtick_4">
     <g id="line2d_4">
      <g>
       <use xlink:href="#mb2eeab9846" x="443.530477" y="390.04" style="stroke: #000000; stroke-width: 0.8"/>
      </g>
     </g>
     <g id="text_4">
      <!-- 60000 -->
      <g transform="translate(427.624227 404.638438) scale(0.1 -0.1)">
       <defs>
        <path id="DejaVuSans-36" d="M 2113 2584 
Q 1688 2584 1439 2293 
Q 1191 2003 1191 1497 
Q 1191 994 1439 701 
Q 1688 409 2113 409 
Q 2538 409 2786 701 
Q 3034 994 3034 1497 
Q 3034 2003 2786 2293 
Q 2538 2584 2113 2584 
z
M 3366 4563 
L 3366 3988 
Q 3128 4100 2886 4159 
Q 2644 4219 2406 4219 
Q 1781 4219 1451 3797 
Q 1122 3375 1075 2522 
Q 1259 2794 1537 2939 
Q 1816 3084 2150 3084 
Q 2853 3084 3261 2657 
Q 3669 2231 3669 1497 
Q 3669 778 3244 343 
Q 2819 -91 2113 -91 
Q 1303 -91 875 529 
Q 447 1150 447 2328 
Q 447 3434 972 4092 
Q 1497 4750 2381 4750 
Q 2619 4750 2861 4703 
Q 3103 4656 3366 4563 
z
" transform="scale(0.015625)"/>
       </defs>
       <use xlink:href="#DejaVuSans-36"/>
       <use xlink:href="#DejaVuSans-30" transform="translate(63.623047 0)"/>
       <use xlink:href="#DejaVuSans-30" transform="translate(127.246094 0)"/>
       <use xlink:href="#DejaVuSans-30" transform="translate(190.869141 0)"/>
       <use xlink:href="#DejaVuSans-30" transform="translate(254.492188 0)"/>
      </g>
     </g>
    </g>
    <g id="xtick_5">
     <g id="line2d_5">
      <g>
       <use xlink:href="#mb2eeab9846" x="561.324554" y="390.04" style="stroke: #000000; stroke-width: 0.8"/>
      </g>
     </g>
     <g id="text_5">
      <!-- 80000 -->
      <g transform="translate(545.418304 404.638438) scale(0.1 -0.1)">
       <defs>
        <path id="DejaVuSans-38" d="M 2034 2216 
Q 1584 2216 1326 1975 
Q 1069 1734 1069 1313 
Q 1069 891 1326 650 
Q 1584 409 2034 409 
Q 2484 409 2743 651 
Q 3003 894 3003 1313 
Q 3003 1734 2745 1975 
Q 2488 2216 2034 2216 
z
M 1403 2484 
Q 997 2584 770 2862 
Q 544 3141 544 3541 
Q 544 4100 942 4425 
Q 1341 4750 2034 4750 
Q 2731 4750 3128 4425 
Q 3525 4100 3525 3541 
Q 3525 3141 3298 2862 
Q 3072 2584 2669 2484 
Q 3125 2378 3379 2068 
Q 3634 1759 3634 1313 
Q 3634 634 3220 271 
Q 2806 -91 2034 -91 
Q 1263 -91 848 271 
Q 434 634 434 1313 
Q 434 1759 690 2068 
Q 947 2378 1403 2484 
z
M 1172 3481 
Q 1172 3119 1398 2916 
Q 1625 2713 2034 2713 
Q 2441 2713 2670 2916 
Q 2900 3119 2900 3481 
Q 2900 3844 2670 4047 
Q 2441 4250 2034 4250 
Q 1625 4250 1398 4047 
Q 1172 3844 1172 3481 
z
" transform="scale(0.015625)"/>
       </defs>
       <use xlink:href="#DejaVuSans-38"/>
       <use xlink:href="#DejaVuSans-30" transform="translate(63.623047 0)"/>
       <use xlink:href="#DejaVuSans-30" transform="translate(127.246094 0)"/>
       <use xlink:href="#DejaVuSans-30" transform="translate(190.869141 0)"/>
       <use xlink:href="#DejaVuSans-30" transform="translate(254.492188 0)"/>
      </g>
     </g>
    </g>
    <g id="xtick_6">
     <g id="line2d_6">
      <g>
       <use xlink:href="#mb2eeab9846" x="679.118632" y="390.04" style="stroke: #000000; stroke-width: 0.8"/>
      </g>
     </g>
     <g id="text_6">
      <!-- 100000 -->
      <g transform="translate(660.031132 404.638438) scale(0.1 -0.1)">
       <defs>
        <path id="DejaVuSans-31" d="M 794 531 
L 1825 531 
L 1825 4091 
L 703 3866 
L 703 4441 
L 1819 4666 
L 2450 4666 
L 2450 531 
L 3481 531 
L 3481 0 
L 794 0 
L 794 531 
z
" transform="scale(0.015625)"/>
       </defs>
       <use xlink:href="#DejaVuSans-31"/>
       <use xlink:href="#DejaVuSans-30" transform="translate(63.623047 0)"/>
       <use xlink:href="#DejaVuSans-30" transform="translate(127.246094 0)"/>
       <use xlink:href="#DejaVuSans-30" transform="translate(190.869141 0)"/>
       <use xlink:href="#DejaVuSans-30" transform="translate(254.492188 0)"/>
       <use xlink:href="#DejaVuSans-30" transform="translate(318.115234 0)"/>
      </g>
     </g>
    </g>
    <g id="text_7">
     <!-- Step -->
     <g transform="translate(374.499844 418.316562) scale(0.1 -0.1)">
      <defs>
       <path id="DejaVuSans-53" d="M 3425 4513 
L 3425 3897 
Q 3066 4069 2747 4153 
Q 2428 4238 2131 4238 
Q 1616 4238 1336 4038 
Q 1056 3838 1056 3469 
Q 1056 3159 1242 3001 
Q 1428 2844 1947 2747 
L 2328 2669 
Q 3034 2534 3370 2195 
Q 3706 1856 3706 1288 
Q 3706 609 3251 259 
Q 2797 -91 1919 -91 
Q 1588 -91 1214 -16 
Q 841 59 441 206 
L 441 856 
Q 825 641 1194 531 
Q 1563 422 1919 422 
Q 2459 422 2753 634 
Q 3047 847 3047 1241 
Q 3047 1584 2836 1778 
Q 2625 1972 2144 2069 
L 1759 2144 
Q 1053 2284 737 2584 
Q 422 2884 422 3419 
Q 422 4038 858 4394 
Q 1294 4750 2059 4750 
Q 2388 4750 2728 4690 
Q 3069 4631 3425 4513 
z
" transform="scale(0.015625)"/>
       <path id="DejaVuSans-74" d="M 1172 4494 
L 1172 3500 
L 2356 3500 
L 2356 3053 
L 1172 3053 
L 1172 1153 
Q 1172 725 1289 603 
Q 1406 481 1766 481 
L 2356 481 
L 2356 0 
L 1766 0 
Q 1100 0 847 248 
Q 594 497 594 1153 
L 594 3053 
L 172 3053 
L 172 3500 
L 594 3500 
L 594 4494 
L 1172 4494 
z
" transform="scale(0.015625)"/>
       <path id="DejaVuSans-65" d="M 3597 1894 
L 3597 1613 
L 953 1613 
Q 991 1019 1311 708 
Q 1631 397 2203 397 
Q 2534 397 2845 478 
Q 3156 559 3463 722 
L 3463 178 
Q 3153 47 2828 -22 
Q 2503 -91 2169 -91 
Q 1331 -91 842 396 
Q 353 884 353 1716 
Q 353 2575 817 3079 
Q 1281 3584 2069 3584 
Q 2775 3584 3186 3129 
Q 3597 2675 3597 1894 
z
M 3022 2063 
Q 3016 2534 2758 2815 
Q 2500 3097 2075 3097 
Q 1594 3097 1305 2825 
Q 1016 2553 972 2059 
L 3022 2063 
z
" transform="scale(0.015625)"/>
       <path id="DejaVuSans-70" d="M 1159 525 
L 1159 -1331 
L 581 -1331 
L 581 3500 
L 1159 3500 
L 1159 2969 
Q 1341 3281 1617 3432 
Q 1894 3584 2278 3584 
Q 2916 3584 3314 3078 
Q 3713 2572 3713 1747 
Q 3713 922 3314 415 
Q 2916 -91 2278 -91 
Q 1894 -91 1617 61 
Q 1341 213 1159 525 
z
M 3116 1747 
Q 3116 2381 2855 2742 
Q 2594 3103 2138 3103 
Q 1681 3103 1420 2742 
Q 1159 2381 1159 1747 
Q 1159 1113 1420 752 
Q 1681 391 2138 391 
Q 2594 391 2855 752 
Q 3116 1113 3116 1747 
z
" transform="scale(0.015625)"/>
      </defs>
      <use xlink:href="#DejaVuSans-53"/>
      <use xlink:href="#DejaVuSans-74" transform="translate(63.476562 0)"/>
      <use xlink:href="#DejaVuSans-65" transform="translate(102.685547 0)"/>
      <use xlink:href="#DejaVuSans-70" transform="translate(164.208984 0)"/>
     </g>
    </g>
   </g>
   <g id="matplotlib.axis_2">
    <g id="ytick_1">
     <g id="line2d_7">
      <defs>
       <path id="m761a9e5165" d="M 0 0 
L -3.5 0 
" style="stroke: #000000; stroke-width: 0.8"/>
      </defs>
      <g>
       <use xlink:href="#m761a9e5165" x="62.57" y="372.499312" style="stroke: #000000; stroke-width: 0.8"/>
      </g>
     </g>
     <g id="text_8">
      <!-- −0.05 -->
      <g transform="translate(24.924688 376.29853) scale(0.1 -0.1)">
       <defs>
        <path id="DejaVuSans-2212" d="M 678 2272 
L 4684 2272 
L 4684 1741 
L 678 1741 
L 678 2272 
z
" transform="scale(0.015625)"/>
        <path id="DejaVuSans-2e" d="M 684 794 
L 1344 794 
L 1344 0 
L 684 0 
L 684 794 
z
" transform="scale(0.015625)"/>
        <path id="DejaVuSans-35" d="M 691 4666 
L 3169 4666 
L 3169 4134 
L 1269 4134 
L 1269 2991 
Q 1406 3038 1543 3061 
Q 1681 3084 1819 3084 
Q 2600 3084 3056 2656 
Q 3513 2228 3513 1497 
Q 3513 744 3044 326 
Q 2575 -91 1722 -91 
Q 1428 -91 1123 -41 
Q 819 9 494 109 
L 494 744 
Q 775 591 1075 516 
Q 1375 441 1709 441 
Q 2250 441 2565 725 
Q 2881 1009 2881 1497 
Q 2881 1984 2565 2268 
Q 2250 2553 1709 2553 
Q 1456 2553 1204 2497 
Q 953 2441 691 2322 
L 691 4666 
z
" transform="scale(0.015625)"/>
       </defs>
       <use xlink:href="#DejaVuSans-2212"/>
       <use xlink:href="#DejaVuSans-30" transform="translate(83.789062 0)"/>
       <use xlink:href="#DejaVuSans-2e" transform="translate(147.412109 0)"/>
       <use xlink:href="#DejaVuSans-30" transform="translate(179.199219 0)"/>
       <use xlink:href="#DejaVuSans-35" transform="translate(242.822266 0)"/>
      </g>
     </g>
    </g>
    <g id="ytick_2">
     <g id="line2d_8">
      <g>
       <use xlink:href="#m761a9e5165" x="62.57" y="302.06759" style="stroke: #000000; stroke-width: 0.8"/>
      </g>
     </g>
     <g id="text_9">
      <!-- 0.00 -->
      <g transform="translate(33.304375 305.866808) scale(0.1 -0.1)">
       <use xlink:href="#DejaVuSans-30"/>
       <use xlink:href="#DejaVuSans-2e" transform="translate(63.623047 0)"/>
       <use xlink:href="#DejaVuSans-30" transform="translate(95.410156 0)"/>
       <use xlink:href="#DejaVuSans-30" transform="translate(159.033203 0)"/>
      </g>
     </g>
    </g>
    <g id="ytick_3">
     <g id="line2d_9">
      <g>
       <use xlink:href="#m761a9e5165" x="62.57" y="231.635868" style="stroke: #000000; stroke-width: 0.8"/>
      </g>
     </g>
     <g id="text_10">
      <!-- 0.05 -->
      <g transform="translate(33.304375 235.435086) scale(0.1 -0.1)">
       <use xlink:href="#DejaVuSans-30"/>
       <use xlink:href="#DejaVuSans-2e" transform="translate(63.623047 0)"/>
       <use xlink:href="#DejaVuSans-30" transform="translate(95.410156 0)"/>
       <use xlink:href="#DejaVuSans-35" transform="translate(159.033203 0)"/>
      </g>
     </g>
    </g>
    <g id="ytick_4">
     <g id="line2d_10">
      <g>
       <use xlink:href="#m761a9e5165" x="62.57" y="161.204146" style="stroke: #000000; stroke-width: 0.8"/>
      </g>
     </g>
     <g id="text_11">
      <!-- 0.10 -->
      <g transform="translate(33.304375 165.003365) scale(0.1 -0.1)">
       <use xlink:href="#DejaVuSans-30"/>
       <use xlink:href="#DejaVuSans-2e" transform="translate(63.623047 0)"/>
       <use xlink:href="#DejaVuSans-31" transform="translate(95.410156 0)"/>
       <use xlink:href="#DejaVuSans-30" transform="translate(159.033203 0)"/>
      </g>
     </g>
    </g>
    <g id="ytick_5">
     <g id="line2d_11">
      <g>
       <use xlink:href="#m761a9e5165" x="62.57" y="90.772424" style="stroke: #000000; stroke-width: 0.8"/>
      </g>
     </g>
     <g id="text_12">
      <!-- 0.15 -->
      <g transform="translate(33.304375 94.571643) scale(0.1 -0.1)">
       <use xlink:href="#DejaVuSans-30"/>
       <use xlink:href="#DejaVuSans-2e" transform="translate(63.623047 0)"/>
       <use xlink:href="#DejaVuSans-31" transform="translate(95.410156 0)"/>
       <use xlink:href="#DejaVuSans-35" transform="translate(159.033203 0)"/>
      </g>
     </g>
    </g>
    <g id="text_13">
     <!-- Normalized (human) Episodic Return -->
     <g transform="translate(18.845 299.495469) rotate(-90) scale(0.1 -0.1)">
      <defs>
       <path id="DejaVuSans-4e" d="M 628 4666 
L 1478 4666 
L 3547 763 
L 3547 4666 
L 4159 4666 
L 4159 0 
L 3309 0 
L 1241 3903 
L 1241 0 
L 628 0 
L 628 4666 
z
" transform="scale(0.015625)"/>
       <path id="DejaVuSans-6f" d="M 1959 3097 
Q 1497 3097 1228 2736 
Q 959 2375 959 1747 
Q 959 1119 1226 758 
Q 1494 397 1959 397 
Q 2419 397 2687 759 
Q 2956 1122 2956 1747 
Q 2956 2369 2687 2733 
Q 2419 3097 1959 3097 
z
M 1959 3584 
Q 2709 3584 3137 3096 
Q 3566 2609 3566 1747 
Q 3566 888 3137 398 
Q 2709 -91 1959 -91 
Q 1206 -91 779 398 
Q 353 888 353 1747 
Q 353 2609 779 3096 
Q 1206 3584 1959 3584 
z
" transform="scale(0.015625)"/>
       <path id="DejaVuSans-72" d="M 2631 2963 
Q 2534 3019 2420 3045 
Q 2306 3072 2169 3072 
Q 1681 3072 1420 2755 
Q 1159 2438 1159 1844 
L 1159 0 
L 581 0 
L 581 3500 
L 1159 3500 
L 1159 2956 
Q 1341 3275 1631 3429 
Q 1922 3584 2338 3584 
Q 2397 3584 2469 3576 
Q 2541 3569 2628 3553 
L 2631 2963 
z
" transform="scale(0.015625)"/>
       <path id="DejaVuSans-6d" d="M 3328 2828 
Q 3544 3216 3844 3400 
Q 4144 3584 4550 3584 
Q 5097 3584 5394 3201 
Q 5691 2819 5691 2113 
L 5691 0 
L 5113 0 
L 5113 2094 
Q 5113 2597 4934 2840 
Q 4756 3084 4391 3084 
Q 3944 3084 3684 2787 
Q 3425 2491 3425 1978 
L 3425 0 
L 2847 0 
L 2847 2094 
Q 2847 2600 2669 2842 
Q 2491 3084 2119 3084 
Q 1678 3084 1418 2786 
Q 1159 2488 1159 1978 
L 1159 0 
L 581 0 
L 581 3500 
L 1159 3500 
L 1159 2956 
Q 1356 3278 1631 3431 
Q 1906 3584 2284 3584 
Q 2666 3584 2933 3390 
Q 3200 3197 3328 2828 
z
" transform="scale(0.015625)"/>
       <path id="DejaVuSans-61" d="M 2194 1759 
Q 1497 1759 1228 1600 
Q 959 1441 959 1056 
Q 959 750 1161 570 
Q 1363 391 1709 391 
Q 2188 391 2477 730 
Q 2766 1069 2766 1631 
L 2766 1759 
L 2194 1759 
z
M 3341 1997 
L 3341 0 
L 2766 0 
L 2766 531 
Q 2569 213 2275 61 
Q 1981 -91 1556 -91 
Q 1019 -91 701 211 
Q 384 513 384 1019 
Q 384 1609 779 1909 
Q 1175 2209 1959 2209 
L 2766 2209 
L 2766 2266 
Q 2766 2663 2505 2880 
Q 2244 3097 1772 3097 
Q 1472 3097 1187 3025 
Q 903 2953 641 2809 
L 641 3341 
Q 956 3463 1253 3523 
Q 1550 3584 1831 3584 
Q 2591 3584 2966 3190 
Q 3341 2797 3341 1997 
z
" transform="scale(0.015625)"/>
       <path id="DejaVuSans-6c" d="M 603 4863 
L 1178 4863 
L 1178 0 
L 603 0 
L 603 4863 
z
" transform="scale(0.015625)"/>
       <path id="DejaVuSans-69" d="M 603 3500 
L 1178 3500 
L 1178 0 
L 603 0 
L 603 3500 
z
M 603 4863 
L 1178 4863 
L 1178 4134 
L 603 4134 
L 603 4863 
z
" transform="scale(0.015625)"/>
       <path id="DejaVuSans-7a" d="M 353 3500 
L 3084 3500 
L 3084 2975 
L 922 459 
L 3084 459 
L 3084 0 
L 275 0 
L 275 525 
L 2438 3041 
L 353 3041 
L 353 3500 
z
" transform="scale(0.015625)"/>
       <path id="DejaVuSans-64" d="M 2906 2969 
L 2906 4863 
L 3481 4863 
L 3481 0 
L 2906 0 
L 2906 525 
Q 2725 213 2448 61 
Q 2172 -91 1784 -91 
Q 1150 -91 751 415 
Q 353 922 353 1747 
Q 353 2572 751 3078 
Q 1150 3584 1784 3584 
Q 2172 3584 2448 3432 
Q 2725 3281 2906 2969 
z
M 947 1747 
Q 947 1113 1208 752 
Q 1469 391 1925 391 
Q 2381 391 2643 752 
Q 2906 1113 2906 1747 
Q 2906 2381 2643 2742 
Q 2381 3103 1925 3103 
Q 1469 3103 1208 2742 
Q 947 2381 947 1747 
z
" transform="scale(0.015625)"/>
       <path id="DejaVuSans-20" transform="scale(0.015625)"/>
       <path id="DejaVuSans-28" d="M 1984 4856 
Q 1566 4138 1362 3434 
Q 1159 2731 1159 2009 
Q 1159 1288 1364 580 
Q 1569 -128 1984 -844 
L 1484 -844 
Q 1016 -109 783 600 
Q 550 1309 550 2009 
Q 550 2706 781 3412 
Q 1013 4119 1484 4856 
L 1984 4856 
z
" transform="scale(0.015625)"/>
       <path id="DejaVuSans-68" d="M 3513 2113 
L 3513 0 
L 2938 0 
L 2938 2094 
Q 2938 2591 2744 2837 
Q 2550 3084 2163 3084 
Q 1697 3084 1428 2787 
Q 1159 2491 1159 1978 
L 1159 0 
L 581 0 
L 581 4863 
L 1159 4863 
L 1159 2956 
Q 1366 3272 1645 3428 
Q 1925 3584 2291 3584 
Q 2894 3584 3203 3211 
Q 3513 2838 3513 2113 
z
" transform="scale(0.015625)"/>
       <path id="DejaVuSans-75" d="M 544 1381 
L 544 3500 
L 1119 3500 
L 1119 1403 
Q 1119 906 1312 657 
Q 1506 409 1894 409 
Q 2359 409 2629 706 
Q 2900 1003 2900 1516 
L 2900 3500 
L 3475 3500 
L 3475 0 
L 2900 0 
L 2900 538 
Q 2691 219 2414 64 
Q 2138 -91 1772 -91 
Q 1169 -91 856 284 
Q 544 659 544 1381 
z
M 1991 3584 
L 1991 3584 
z
" transform="scale(0.015625)"/>
       <path id="DejaVuSans-6e" d="M 3513 2113 
L 3513 0 
L 2938 0 
L 2938 2094 
Q 2938 2591 2744 2837 
Q 2550 3084 2163 3084 
Q 1697 3084 1428 2787 
Q 1159 2491 1159 1978 
L 1159 0 
L 581 0 
L 581 3500 
L 1159 3500 
L 1159 2956 
Q 1366 3272 1645 3428 
Q 1925 3584 2291 3584 
Q 2894 3584 3203 3211 
Q 3513 2838 3513 2113 
z
" transform="scale(0.015625)"/>
       <path id="DejaVuSans-29" d="M 513 4856 
L 1013 4856 
Q 1481 4119 1714 3412 
Q 1947 2706 1947 2009 
Q 1947 1309 1714 600 
Q 1481 -109 1013 -844 
L 513 -844 
Q 928 -128 1133 580 
Q 1338 1288 1338 2009 
Q 1338 2731 1133 3434 
Q 928 4138 513 4856 
z
" transform="scale(0.015625)"/>
       <path id="DejaVuSans-45" d="M 628 4666 
L 3578 4666 
L 3578 4134 
L 1259 4134 
L 1259 2753 
L 3481 2753 
L 3481 2222 
L 1259 2222 
L 1259 531 
L 3634 531 
L 3634 0 
L 628 0 
L 628 4666 
z
" transform="scale(0.015625)"/>
       <path id="DejaVuSans-73" d="M 2834 3397 
L 2834 2853 
Q 2591 2978 2328 3040 
Q 2066 3103 1784 3103 
Q 1356 3103 1142 2972 
Q 928 2841 928 2578 
Q 928 2378 1081 2264 
Q 1234 2150 1697 2047 
L 1894 2003 
Q 2506 1872 2764 1633 
Q 3022 1394 3022 966 
Q 3022 478 2636 193 
Q 2250 -91 1575 -91 
Q 1294 -91 989 -36 
Q 684 19 347 128 
L 347 722 
Q 666 556 975 473 
Q 1284 391 1588 391 
Q 1994 391 2212 530 
Q 2431 669 2431 922 
Q 2431 1156 2273 1281 
Q 2116 1406 1581 1522 
L 1381 1569 
Q 847 1681 609 1914 
Q 372 2147 372 2553 
Q 372 3047 722 3315 
Q 1072 3584 1716 3584 
Q 2034 3584 2315 3537 
Q 2597 3491 2834 3397 
z
" transform="scale(0.015625)"/>
       <path id="DejaVuSans-63" d="M 3122 3366 
L 3122 2828 
Q 2878 2963 2633 3030 
Q 2388 3097 2138 3097 
Q 1578 3097 1268 2742 
Q 959 2388 959 1747 
Q 959 1106 1268 751 
Q 1578 397 2138 397 
Q 2388 397 2633 464 
Q 2878 531 3122 666 
L 3122 134 
Q 2881 22 2623 -34 
Q 2366 -91 2075 -91 
Q 1284 -91 818 406 
Q 353 903 353 1747 
Q 353 2603 823 3093 
Q 1294 3584 2113 3584 
Q 2378 3584 2631 3529 
Q 2884 3475 3122 3366 
z
" transform="scale(0.015625)"/>
       <path id="DejaVuSans-52" d="M 2841 2188 
Q 3044 2119 3236 1894 
Q 3428 1669 3622 1275 
L 4263 0 
L 3584 0 
L 2988 1197 
Q 2756 1666 2539 1819 
Q 2322 1972 1947 1972 
L 1259 1972 
L 1259 0 
L 628 0 
L 628 4666 
L 2053 4666 
Q 2853 4666 3247 4331 
Q 3641 3997 3641 3322 
Q 3641 2881 3436 2590 
Q 3231 2300 2841 2188 
z
M 1259 4147 
L 1259 2491 
L 2053 2491 
Q 2509 2491 2742 2702 
Q 2975 2913 2975 3322 
Q 2975 3731 2742 3939 
Q 2509 4147 2053 4147 
L 1259 4147 
z
" transform="scale(0.015625)"/>
      </defs>
      <use xlink:href="#DejaVuSans-4e"/>
      <use xlink:href="#DejaVuSans-6f" transform="translate(74.804688 0)"/>
      <use xlink:href="#DejaVuSans-72" transform="translate(135.986328 0)"/>
      <use xlink:href="#DejaVuSans-6d" transform="translate(175.349609 0)"/>
      <use xlink:href="#DejaVuSans-61" transform="translate(272.761719 0)"/>
      <use xlink:href="#DejaVuSans-6c" transform="translate(334.041016 0)"/>
      <use xlink:href="#DejaVuSans-69" transform="translate(361.824219 0)"/>
      <use xlink:href="#DejaVuSans-7a" transform="translate(389.607422 0)"/>
      <use xlink:href="#DejaVuSans-65" transform="translate(442.097656 0)"/>
      <use xlink:href="#DejaVuSans-64" transform="translate(503.621094 0)"/>
      <use xlink:href="#DejaVuSans-20" transform="translate(567.097656 0)"/>
      <use xlink:href="#DejaVuSans-28" transform="translate(598.884766 0)"/>
      <use xlink:href="#DejaVuSans-68" transform="translate(637.898438 0)"/>
      <use xlink:href="#DejaVuSans-75" transform="translate(701.277344 0)"/>
      <use xlink:href="#DejaVuSans-6d" transform="translate(764.65625 0)"/>
      <use xlink:href="#DejaVuSans-61" transform="translate(862.068359 0)"/>
      <use xlink:href="#DejaVuSans-6e" transform="translate(923.347656 0)"/>
      <use xlink:href="#DejaVuSans-29" transform="translate(986.726562 0)"/>
      <use xlink:href="#DejaVuSans-20" transform="translate(1025.740234 0)"/>
      <use xlink:href="#DejaVuSans-45" transform="translate(1057.527344 0)"/>
      <use xlink:href="#DejaVuSans-70" transform="translate(1120.710938 0)"/>
      <use xlink:href="#DejaVuSans-69" transform="translate(1184.1875 0)"/>
      <use xlink:href="#DejaVuSans-73" transform="translate(1211.970703 0)"/>
      <use xlink:href="#DejaVuSans-6f" transform="translate(1264.070312 0)"/>
      <use xlink:href="#DejaVuSans-64" transform="translate(1325.251953 0)"/>
      <use xlink:href="#DejaVuSans-69" transform="translate(1388.728516 0)"/>
      <use xlink:href="#DejaVuSans-63" transform="translate(1416.511719 0)"/>
      <use xlink:href="#DejaVuSans-20" transform="translate(1471.492188 0)"/>
      <use xlink:href="#DejaVuSans-52" transform="translate(1503.279297 0)"/>
      <use xlink:href="#DejaVuSans-65" transform="translate(1568.261719 0)"/>
      <use xlink:href="#DejaVuSans-74" transform="translate(1629.785156 0)"/>
      <use xlink:href="#DejaVuSans-75" transform="translate(1668.994141 0)"/>
      <use xlink:href="#DejaVuSans-72" transform="translate(1732.373047 0)"/>
      <use xlink:href="#DejaVuSans-6e" transform="translate(1771.736328 0)"/>
     </g>
    </g>
   </g>
   <g id="line2d_12">
    <path d="M 106.639415 344.815486 
L 107.205251 344.33787 
L 107.771087 342.138378 
L 110.600267 325.018199 
L 111.166103 322.895354 
L 113.429447 316.942459 
L 113.995284 291.063979 
L 115.126956 280.468314 
L 115.692792 263.297762 
L 116.258628 250.305422 
L 116.824464 249.490688 
L 117.3903 259.890295 
L 117.956136 259.723365 
L 118.521972 250.549129 
L 119.087808 237.273608 
L 120.21948 187.272333 
L 120.785316 195.11557 
L 121.351152 198.363085 
L 121.916988 221.820415 
L 122.482824 225.558127 
L 123.04866 243.622023 
L 123.614496 245.100307 
L 125.312005 233.712621 
L 128.707021 266.895032 
L 133.233709 311.539268 
L 133.799545 313.481136 
L 134.931218 288.437721 
L 135.497054 284.574256 
L 136.628726 294.535617 
L 137.760398 307.95994 
L 139.457906 329.282215 
L 140.023742 329.033582 
L 141.155414 326.216049 
L 141.72125 322.245282 
L 142.287086 316.493049 
L 142.852922 298.990359 
L 143.418758 296.951824 
L 143.984594 301.416329 
L 144.550431 301.041416 
L 145.116267 300.318578 
L 145.682103 300.900272 
L 146.247939 292.477087 
L 146.813775 257.397216 
L 147.379611 203.08495 
L 147.945447 176.200131 
L 148.511283 164.205522 
L 149.077119 163.077046 
L 149.642955 168.344662 
L 150.208791 171.904323 
L 150.774627 174.317728 
L 155.301316 162.266762 
L 155.867152 164.10233 
L 156.432988 169.490053 
L 159.262168 234.375742 
L 162.657184 268.66755 
L 163.22302 262.944543 
L 163.788856 221.30809 
L 164.354692 190.738924 
L 165.486365 198.218155 
L 166.052201 200.168698 
L 166.618037 198.922396 
L 167.749709 187.327497 
L 168.315545 179.990912 
L 170.013053 144.090961 
L 170.578889 123.721312 
L 171.144725 167.274877 
L 171.710561 178.601544 
L 172.276397 176.810929 
L 173.973905 164.096169 
L 174.539741 168.978632 
L 175.105578 177.60271 
L 175.671414 182.255889 
L 176.803086 188.231306 
L 179.06643 199.069915 
L 179.632266 163.402219 
L 180.198102 147.297911 
L 181.329774 146.000627 
L 181.89561 143.367786 
L 185.290627 119.614083 
L 185.856463 117.637906 
L 186.988135 120.895638 
L 187.553971 126.309227 
L 188.119807 133.421827 
L 188.685643 156.029621 
L 189.817315 207.195252 
L 190.383151 213.884569 
L 190.948987 222.649322 
L 191.514823 228.489813 
L 192.080659 211.528549 
L 192.646495 179.50434 
L 193.212331 174.393016 
L 193.778167 173.182397 
L 196.041512 217.565869 
L 197.73902 233.664595 
L 198.304856 239.187939 
L 198.870692 188.920756 
L 201.134036 208.939421 
L 201.699872 214.688152 
L 204.529052 256.398516 
L 205.094888 262.712767 
L 205.660725 264.810864 
L 206.226561 265.894924 
L 207.924069 248.719908 
L 208.489905 238.731738 
L 209.621577 210.209115 
L 210.187413 259.695711 
L 210.753249 272.622125 
L 211.319085 271.205147 
L 211.884921 261.551912 
L 212.450757 295.268223 
L 214.148265 277.25991 
L 214.714101 270.479863 
L 215.279937 238.542064 
L 218.674954 229.603023 
L 219.24079 219.13351 
L 220.938298 177.55037 
L 221.504134 183.955798 
L 222.635806 237.622683 
L 223.201642 247.525448 
L 223.767478 252.294781 
L 224.333314 214.987443 
L 224.89915 203.880163 
L 226.596659 158.573049 
L 227.162495 156.97605 
L 229.425839 193.640983 
L 229.991675 198.235165 
L 230.557511 187.554898 
L 231.123347 182.030002 
L 232.255019 176.851322 
L 232.820855 176.898747 
L 233.952527 185.380868 
L 234.518363 182.595151 
L 235.084199 178.802252 
L 235.650035 173.120488 
L 236.215872 177.923961 
L 236.781708 185.971251 
L 237.347544 199.851179 
L 238.479216 234.874511 
L 239.045052 243.552659 
L 240.176724 255.081186 
L 241.308396 227.188763 
L 241.874232 218.650147 
L 243.57174 203.024745 
L 244.137576 203.031133 
L 244.703412 205.322719 
L 245.835084 216.892817 
L 246.400921 219.364039 
L 249.230101 198.652461 
L 250.927609 177.888008 
L 252.059281 169.980695 
L 252.625117 166.25349 
L 253.190953 168.821822 
L 253.756789 191.368669 
L 254.322625 199.987852 
L 254.888461 190.745553 
L 255.454297 178.336948 
L 256.020133 182.486051 
L 256.58597 154.256758 
L 258.283478 136.661343 
L 258.849314 144.72875 
L 259.41515 158.702416 
L 259.980986 151.896374 
L 261.112658 184.966924 
L 261.678494 214.660871 
L 262.24433 228.168773 
L 262.810166 234.399958 
L 263.941838 238.070722 
L 264.507674 227.080695 
L 265.07351 210.824784 
L 265.639346 187.948305 
L 267.336855 100.241185 
L 267.902691 80.420876 
L 269.034363 110.343354 
L 271.297707 199.240827 
L 271.863543 215.04302 
L 272.429379 219.170769 
L 273.561051 222.685196 
L 276.956068 232.374518 
L 277.521904 237.331318 
L 278.08774 249.408731 
L 278.653576 257.682851 
L 279.219412 260.607199 
L 279.785248 256.067663 
L 280.351084 247.830309 
L 282.048592 211.106116 
L 282.614428 240.915293 
L 284.311936 220.318846 
L 284.877772 228.416099 
L 285.443608 246.642306 
L 286.009444 239.452774 
L 287.706953 212.921387 
L 288.272789 261.663756 
L 288.838625 241.916767 
L 289.404461 217.175991 
L 289.970297 197.592908 
L 290.536133 211.252529 
L 291.101969 192.252611 
L 292.799477 158.319108 
L 293.931149 143.451579 
L 295.062821 135.790471 
L 295.628657 138.564 
L 296.760329 129.387091 
L 297.326166 138.385082 
L 299.023674 197.018399 
L 299.58951 223.397091 
L 300.721182 247.326065 
L 302.41869 249.168737 
L 303.550362 236.377915 
L 308.642887 174.719033 
L 309.208723 171.51641 
L 309.774559 177.706873 
L 310.340395 190.853298 
L 310.906231 210.423698 
L 311.472067 245.330702 
L 312.037903 248.340664 
L 312.603739 181.780273 
L 313.169575 161.430957 
L 313.735411 168.971599 
L 314.301247 170.432831 
L 314.867083 179.39055 
L 315.432919 185.208182 
L 315.998755 188.388994 
L 317.130427 201.468081 
L 319.959608 200.428809 
L 320.525444 193.546103 
L 321.09128 192.424084 
L 321.657116 179.247112 
L 322.222952 183.402153 
L 322.788788 185.628876 
L 323.354624 189.632795 
L 323.92046 191.820497 
L 324.486296 205.857264 
L 325.052132 223.145518 
L 325.617968 232.613572 
L 328.447149 201.146346 
L 329.012985 201.688303 
L 330.144657 178.206801 
L 330.710493 175.745939 
L 332.408001 186.271662 
L 334.105509 202.497975 
L 334.671345 184.558818 
L 335.237181 175.977478 
L 337.500525 163.156105 
L 338.066362 218.768655 
L 339.198034 209.418087 
L 339.76387 214.702146 
L 340.329706 216.205219 
L 340.895542 209.79442 
L 341.461378 199.520198 
L 342.027214 192.395212 
L 343.158886 157.367562 
L 344.856394 162.580792 
L 345.42223 174.950484 
L 345.988066 167.291082 
L 346.553902 158.006712 
L 347.119738 150.874815 
L 347.685574 149.629744 
L 348.251411 202.938837 
L 348.817247 204.533487 
L 349.383083 204.157716 
L 349.948919 194.398627 
L 352.212263 172.336477 
L 352.778099 172.913395 
L 353.343935 182.271931 
L 354.475607 211.43087 
L 355.607279 234.827171 
L 356.173115 227.010055 
L 357.304787 191.617997 
L 357.870623 245.856909 
L 359.568132 211.061286 
L 360.133968 200.274955 
L 360.699804 194.696512 
L 362.397312 208.082162 
L 362.963148 210.324959 
L 364.660656 207.59084 
L 365.226492 205.941867 
L 366.358164 195.751289 
L 366.924 184.221755 
L 367.489836 205.687529 
L 368.621509 148.740446 
L 369.187345 138.196612 
L 370.319017 133.989259 
L 371.450689 140.747967 
L 374.279869 99.391448 
L 374.845705 96.61457 
L 375.411541 118.534423 
L 375.977377 129.648071 
L 377.674885 145.928593 
L 378.240721 143.866455 
L 378.806558 150.757087 
L 379.372394 159.099519 
L 379.93823 170.654526 
L 380.504066 195.404473 
L 381.069902 206.249809 
L 381.635738 170.482164 
L 382.76741 194.27354 
L 384.464918 225.654785 
L 385.030754 224.735932 
L 385.59659 222.543306 
L 386.162426 221.35221 
L 386.728262 219.667887 
L 387.294098 214.418318 
L 388.42577 182.587792 
L 389.557443 175.938957 
L 390.689115 148.794519 
L 392.952459 91.783828 
L 393.518295 98.611731 
L 394.084131 113.858947 
L 396.347475 199.678724 
L 396.913311 210.241171 
L 397.479147 201.957433 
L 398.044983 188.194111 
L 398.61082 177.813905 
L 399.176656 143.749793 
L 399.742492 143.181365 
L 400.308328 152.578077 
L 401.44 183.454486 
L 402.005836 178.159171 
L 402.571672 175.572624 
L 403.703344 178.162955 
L 404.26918 155.831717 
L 404.835016 141.193162 
L 405.400852 148.526343 
L 405.966688 138.050632 
L 406.532524 132.649338 
L 408.795869 123.172513 
L 411.059213 122.036961 
L 411.625049 121.003603 
L 412.190885 115.981911 
L 413.322557 121.068206 
L 413.888393 120.915344 
L 414.454229 123.51888 
L 416.717573 159.446798 
L 417.849245 179.608931 
L 418.415081 143.290891 
L 418.980918 142.803849 
L 422.375934 134.99243 
L 424.639278 163.067577 
L 425.205114 164.74339 
L 425.77095 164.689503 
L 426.336786 162.387314 
L 427.468458 180.349942 
L 428.034294 165.977025 
L 428.60013 193.433349 
L 430.863475 185.637255 
L 431.429311 181.905062 
L 431.995147 165.855653 
L 432.560983 164.109219 
L 433.126819 178.063471 
L 433.692655 170.421896 
L 434.258491 159.350794 
L 436.521835 104.397847 
L 437.653507 90.928381 
L 438.219343 89.620498 
L 441.048524 153.521286 
L 441.61436 162.705727 
L 442.746032 189.587204 
L 445.575212 103.637437 
L 447.838556 88.910765 
L 448.404392 86.945087 
L 450.101901 108.487925 
L 451.799409 134.138414 
L 452.931081 152.523624 
L 454.628589 176.421804 
L 455.760261 158.866164 
L 456.326097 153.576821 
L 456.891933 142.8339 
L 457.457769 139.911535 
L 458.023605 129.551349 
L 459.155277 200.841963 
L 460.28695 156.326382 
L 460.852786 154.5452 
L 462.550294 172.346648 
L 463.11613 176.558263 
L 464.813638 186.276285 
L 465.379474 196.476969 
L 465.94531 203.193519 
L 467.076982 220.780567 
L 467.642818 230.159239 
L 468.77449 240.525487 
L 469.906163 166.270833 
L 471.037835 200.263558 
L 471.603671 200.307663 
L 472.169507 199.03553 
L 473.867015 182.351133 
L 474.432851 184.252865 
L 478.393703 215.894273 
L 479.525375 221.610766 
L 480.091212 222.412575 
L 480.657048 255.571076 
L 481.222884 229.390619 
L 481.78872 213.079042 
L 482.920392 220.122997 
L 483.486228 214.336115 
L 485.183736 172.035368 
L 486.315408 178.140699 
L 486.881244 122.448092 
L 487.44708 122.917929 
L 488.012916 119.468326 
L 488.578752 118.303146 
L 489.144588 117.721108 
L 489.710424 144.369859 
L 490.276261 133.770822 
L 490.842097 131.063084 
L 491.407933 137.284422 
L 493.671277 135.628168 
L 494.802949 42.012727 
L 495.368785 67.978593 
L 497.066293 106.515459 
L 498.197965 122.977772 
L 498.763801 134.939317 
L 500.46131 159.482021 
L 501.027146 153.980743 
L 502.158818 106.817103 
L 502.724654 98.915055 
L 503.856326 121.900172 
L 504.987998 146.486281 
L 505.553834 156.216879 
L 507.817178 113.72469 
L 508.383014 101.704764 
L 508.94885 95.157087 
L 509.514686 101.300172 
L 510.646359 124.429201 
L 511.212195 130.270434 
L 512.343867 139.61093 
L 513.475539 161.3591 
L 514.041375 165.029819 
L 514.607211 164.887014 
L 516.870555 115.687756 
L 518.002227 168.037113 
L 518.568063 188.145127 
L 519.133899 158.822421 
L 519.699735 152.209142 
L 520.265571 150.574131 
L 521.397244 118.430525 
L 521.96308 121.971442 
L 522.528916 122.854908 
L 524.226424 121.571442 
L 526.489768 162.052546 
L 527.055604 176.368231 
L 528.187276 213.113193 
L 528.753112 218.727251 
L 529.318948 216.69909 
L 532.148129 175.020262 
L 532.713965 174.790564 
L 534.411473 237.373518 
L 534.977309 241.115856 
L 535.543145 224.042158 
L 536.108981 192.605178 
L 538.372325 136.568952 
L 538.938161 132.50784 
L 539.503997 177.603751 
L 540.635669 165.130704 
L 541.201506 156.21364 
L 541.767342 130.956174 
L 542.333178 152.958766 
L 543.46485 127.210287 
L 544.030686 145.562763 
L 544.596522 172.75984 
L 545.162358 162.544769 
L 545.728194 114.635832 
L 546.29403 112.660837 
L 546.859866 113.032546 
L 547.425702 110.795533 
L 547.991538 109.647422 
L 549.12321 117.357331 
L 549.689046 118.261103 
L 550.820718 134.66208 
L 551.952391 153.975634 
L 552.518227 158.589535 
L 553.084063 158.449695 
L 553.649899 142.780855 
L 554.215735 146.060352 
L 556.479079 189.344948 
L 557.044915 182.327566 
L 557.610751 167.382031 
L 558.176587 169.74991 
L 558.742423 170.762488 
L 559.308259 171.534416 
L 559.874095 179.613189 
L 561.005767 104.663626 
L 562.13744 145.72896 
L 564.400784 140.91641 
L 564.96662 140.678315 
L 565.532456 131.975379 
L 566.098292 130.291482 
L 567.229964 119.271198 
L 568.361636 169.654698 
L 568.927472 192.128902 
L 569.493308 189.667704 
L 570.059144 177.635854 
L 571.190816 143.258806 
L 572.322489 129.579868 
L 572.888325 133.688866 
L 576.283341 201.511544 
L 576.849177 204.226768 
L 578.546685 193.829759 
L 579.678357 183.852052 
L 580.244193 181.318716 
L 581.375865 197.16322 
L 581.941702 208.526798 
L 582.507538 206.611179 
L 584.205046 146.003083 
L 585.336718 108.120632 
L 585.902554 105.991262 
L 587.034226 142.075366 
L 587.600062 153.173185 
L 588.165898 194.617789 
L 588.731734 175.064345 
L 589.29757 172.416296 
L 589.863406 173.999194 
L 590.995078 191.322962 
L 591.560914 201.538911 
L 592.126751 194.005467 
L 592.692587 171.039298 
L 594.390095 141.4062 
L 594.955931 160.500098 
L 595.521767 200.167287 
L 596.087603 222.393259 
L 596.653439 229.618427 
L 597.219275 196.157478 
L 597.785111 183.511812 
L 598.916783 219.060719 
L 599.482619 216.938603 
L 601.745963 195.257644 
L 602.3118 188.520596 
L 604.575144 153.909211 
L 605.14098 148.402352 
L 607.97016 132.369293 
L 608.535996 120.452061 
L 609.101832 115.370562 
L 609.667668 125.525804 
L 610.233504 125.832339 
L 610.79934 156.65106 
L 611.931012 147.742651 
L 612.496849 209.708226 
L 613.628521 198.321619 
L 614.194357 190.8164 
L 614.760193 166.725674 
L 615.326029 171.20014 
L 615.891865 173.161319 
L 617.023537 151.271419 
L 617.589373 150.888058 
L 618.155209 154.125369 
L 618.721045 155.701623 
L 619.286881 149.674549 
L 619.852717 117.620415 
L 621.550225 169.288504 
L 622.116061 170.274354 
L 623.81357 150.71063 
L 624.379406 182.719348 
L 624.945242 181.023995 
L 626.076914 170.26036 
L 628.340258 152.791588 
L 628.906094 122.666463 
L 629.47193 133.439852 
L 630.603602 160.952275 
L 631.169438 163.765267 
L 633.432783 172.481185 
L 633.998619 179.416346 
L 634.564455 155.891119 
L 635.130291 153.666888 
L 635.696127 199.616365 
L 636.261963 198.107685 
L 636.827799 197.243965 
L 637.393635 180.012788 
L 637.959471 171.7138 
L 638.525307 141.752271 
L 639.091143 137.656535 
L 640.788651 122.765177 
L 641.354487 121.248609 
L 641.920323 121.830723 
L 642.486159 119.735606 
L 643.051996 116.944611 
L 643.617832 118.567523 
L 644.183668 125.255886 
L 645.881176 163.692355 
L 646.447012 166.171669 
L 647.578684 161.387807 
L 648.14452 134.367799 
L 648.710356 128.717515 
L 650.407864 123.314159 
L 650.9737 122.257481 
L 653.802881 119.95688 
L 654.368717 120.367108 
L 657.763733 125.728961 
L 658.329569 124.041429 
L 658.895405 115.797525 
L 659.461241 111.78357 
L 660.027077 109.919792 
L 660.592913 115.082254 
L 662.290421 150.059687 
L 662.856257 138.367585 
L 663.422094 117.901417 
L 665.119602 133.301353 
L 665.685438 139.733241 
L 666.81711 156.358341 
L 667.948782 154.329284 
L 668.514618 111.376604 
L 669.080454 109.523511 
L 669.64629 104.099249 
L 670.212126 104.807701 
L 670.777962 103.73352 
L 671.343798 101.759975 
L 671.909634 129.969978 
L 671.909634 129.969978 
" clip-path="url(#p1b1077ce31)" style="fill: none; stroke: #00008b; stroke-width: 1.5; stroke-linecap: square"/>
   </g>
   <g id="line2d_13">
    <path d="M 92.722045 333.202215 
L 93.309718 338.424997 
L 93.897391 346.137154 
L 95.072738 373.467273 
L 95.660411 372.590796 
L 96.248085 369.636773 
L 97.423431 324.507625 
L 98.011105 299.019411 
L 98.598778 282.305349 
L 99.186451 268.951031 
L 99.774125 261.909282 
L 100.361798 259.232935 
L 101.537145 261.595018 
L 102.124818 262.393335 
L 102.712492 263.856742 
L 103.300165 263.773219 
L 105.063185 249.421648 
L 105.650858 240.423294 
L 106.238532 237.607349 
L 106.826205 235.622228 
L 108.001552 246.024102 
L 109.176898 257.151807 
L 109.764572 269.079087 
L 110.939919 281.536632 
L 111.527592 287.34461 
L 112.115265 294.568611 
L 112.702939 292.910953 
L 113.290612 286.134731 
L 115.053632 283.657382 
L 115.641305 279.650818 
L 116.228979 282.991939 
L 116.816652 291.870983 
L 117.991999 303.767156 
L 118.579672 309.087657 
L 119.167346 309.338909 
L 120.342692 301.849771 
L 120.930366 300.0266 
L 121.518039 303.220135 
L 122.105712 303.69923 
L 122.693386 300.544008 
L 123.281059 289.047296 
L 124.456406 258.328195 
L 125.631752 221.399463 
L 126.219426 211.425579 
L 126.807099 209.698212 
L 127.982446 209.649432 
L 128.570119 215.373786 
L 129.157793 224.666279 
L 129.745466 226.905644 
L 130.333139 244.617533 
L 130.920813 267.261161 
L 131.508486 282.75054 
L 132.096159 276.76278 
L 135.034526 198.875282 
L 135.6222 193.034563 
L 136.209873 205.523553 
L 137.38522 247.72869 
L 137.972893 263.735525 
L 138.560566 256.716181 
L 139.14824 247.094885 
L 140.91126 235.970286 
L 141.498933 235.416412 
L 142.086606 242.297703 
L 143.849627 273.961681 
L 144.4373 287.871888 
L 145.024973 290.663811 
L 145.612647 289.663077 
L 146.20032 290.636341 
L 146.787993 281.85826 
L 147.375667 271.020893 
L 147.96334 266.200793 
L 149.72636 245.46539 
L 150.314033 244.556175 
L 150.901707 242.493835 
L 151.48938 234.878181 
L 153.2524 205.824754 
L 153.840074 202.984552 
L 154.427747 207.902154 
L 155.01542 214.796004 
L 155.603094 226.938484 
L 156.190767 243.814987 
L 156.77844 248.300754 
L 157.366114 247.578065 
L 158.54146 259.558143 
L 159.129134 251.542226 
L 159.716807 250.552745 
L 160.30448 253.192217 
L 160.892154 244.477209 
L 161.479827 233.207712 
L 162.067501 226.284384 
L 163.242847 230.560374 
L 163.830521 233.734991 
L 165.005867 242.215559 
L 165.593541 243.602319 
L 166.181214 239.401287 
L 166.768887 245.016403 
L 169.119581 318.928923 
L 169.707254 322.541596 
L 170.294928 317.494083 
L 173.820968 267.853722 
L 174.996314 262.443621 
L 175.583988 257.982868 
L 176.171661 254.801977 
L 176.759334 253.384711 
L 177.347008 254.669205 
L 177.934681 262.379233 
L 178.522355 267.700422 
L 179.110028 259.415317 
L 180.285375 257.099483 
L 180.873048 255.178965 
L 182.048395 235.782168 
L 182.636068 237.30679 
L 183.223741 240.068671 
L 183.811415 239.307244 
L 184.399088 239.377555 
L 184.986761 248.427416 
L 185.574435 261.64183 
L 186.162108 271.504854 
L 186.749782 284.351593 
L 187.337455 303.521094 
L 187.925128 318.54172 
L 188.512802 327.510477 
L 189.100475 330.827516 
L 189.688148 332.009107 
L 193.214188 301.824082 
L 193.801862 299.086711 
L 194.389535 301.408895 
L 194.977208 302.397005 
L 196.740229 276.718199 
L 197.915575 257.321874 
L 198.503249 250.269364 
L 199.090922 252.024976 
L 199.678595 250.536034 
L 201.441615 273.654049 
L 202.029289 278.973369 
L 202.616962 288.853854 
L 203.204635 293.657819 
L 204.967656 303.937804 
L 205.555329 306.634973 
L 206.143002 305.662784 
L 207.318349 288.266789 
L 209.081369 241.101883 
L 209.669042 229.571416 
L 210.256716 226.119079 
L 210.844389 240.136585 
L 212.019736 289.921423 
L 212.607409 306.677158 
L 213.195083 313.739298 
L 213.782756 308.328191 
L 216.133449 246.007585 
L 216.721123 263.295454 
L 217.308796 291.438765 
L 217.896469 268.884106 
L 218.484143 264.491674 
L 219.659489 262.475022 
L 220.247163 263.049991 
L 220.834836 268.61804 
L 221.42251 270.29606 
L 222.010183 262.340511 
L 222.597856 247.26292 
L 223.773203 211.06606 
L 224.360876 207.808319 
L 225.536223 236.924187 
L 226.123896 256.26606 
L 226.71157 280.909579 
L 227.299243 291.074886 
L 228.47459 301.616016 
L 229.062263 296.561436 
L 230.825283 258.636333 
L 232.00063 251.350352 
L 232.588303 248.650592 
L 233.76365 265.576846 
L 235.52667 297.365591 
L 236.114343 300.215632 
L 236.702017 299.027314 
L 237.28969 291.463233 
L 239.05271 254.472697 
L 239.640384 251.545008 
L 240.228057 250.11007 
L 240.81573 258.132101 
L 241.991077 266.272349 
L 242.57875 269.937781 
L 243.166424 264.837941 
L 243.754097 255.216723 
L 244.34177 248.586019 
L 246.10479 261.981279 
L 246.692464 269.470662 
L 247.280137 269.109324 
L 248.455484 262.870136 
L 250.806177 230.039773 
L 251.393851 232.968534 
L 251.981524 241.692929 
L 252.569197 252.328075 
L 253.156871 259.118367 
L 254.919891 274.184298 
L 255.507564 276.380877 
L 256.682911 257.231629 
L 257.270584 251.621758 
L 258.445931 243.260923 
L 259.033604 237.417309 
L 260.208951 217.938239 
L 261.971971 236.712547 
L 262.559644 242.855159 
L 263.147318 251.674903 
L 263.734991 254.936347 
L 264.322665 250.728775 
L 265.498011 239.415478 
L 266.085685 235.241088 
L 266.673358 232.577258 
L 268.436378 251.348921 
L 269.024051 252.048552 
L 270.199398 231.119741 
L 271.374745 223.398455 
L 271.962418 219.76038 
L 272.550091 218.671603 
L 273.725438 223.974572 
L 274.900785 246.897012 
L 276.076132 257.286512 
L 276.663805 256.199505 
L 277.839152 248.832072 
L 278.426825 250.939662 
L 279.602172 260.590636 
L 280.777518 276.622853 
L 282.540539 298.795931 
L 283.128212 301.456738 
L 283.715885 303.375078 
L 284.891232 304.137205 
L 285.478905 304.095886 
L 286.066579 304.273442 
L 286.654252 303.889113 
L 287.829599 291.915759 
L 288.417272 287.946892 
L 290.180292 305.008347 
L 290.767966 311.062038 
L 291.355639 304.61696 
L 291.943312 295.882626 
L 294.881679 240.567296 
L 296.644699 205.417725 
L 297.232372 208.959654 
L 297.820046 228.435258 
L 298.995393 277.050877 
L 299.583066 281.8721 
L 300.170739 282.075562 
L 300.758413 278.707296 
L 301.346086 280.328992 
L 303.109106 274.894825 
L 303.696779 271.48692 
L 304.284453 262.927646 
L 304.872126 250.820402 
L 305.459799 246.323132 
L 306.047473 247.498822 
L 307.22282 264.119823 
L 308.398166 270.439736 
L 308.98584 269.661301 
L 310.161186 265.692788 
L 310.74886 266.643789 
L 311.336533 272.367502 
L 311.924206 276.163242 
L 312.51188 277.422932 
L 313.099553 277.098094 
L 313.687226 274.472407 
L 315.450246 238.417429 
L 316.03792 233.893132 
L 316.625593 239.710854 
L 318.976287 280.225261 
L 319.56396 283.036172 
L 321.32698 250.28071 
L 323.677673 203.833032 
L 325.440694 199.125615 
L 326.028367 203.375561 
L 326.61604 212.862015 
L 329.554407 247.826502 
L 330.14208 249.800097 
L 331.317427 237.459421 
L 331.9051 238.802238 
L 332.492774 240.803263 
L 333.080447 244.438097 
L 333.668121 255.050939 
L 335.431141 332.460718 
L 336.018814 353.607362 
L 336.606487 359.834506 
L 339.544854 270.711065 
L 340.132527 269.074969 
L 340.720201 269.516222 
L 341.307874 268.724507 
L 343.070894 257.420545 
L 344.246241 240.16268 
L 345.421588 227.731831 
L 346.009261 228.287121 
L 347.184608 245.926167 
L 348.359954 250.527544 
L 348.947628 249.374579 
L 349.535301 245.203554 
L 351.298321 248.934912 
L 352.473668 256.069823 
L 353.061341 252.306702 
L 354.824361 229.644538 
L 355.412035 241.988395 
L 355.999708 271.71526 
L 356.587381 275.856689 
L 357.175055 273.051466 
L 358.350401 272.770071 
L 359.525748 255.472317 
L 360.113422 253.313263 
L 360.701095 253.610641 
L 361.288768 253.110304 
L 362.464115 256.86588 
L 364.227135 279.047239 
L 364.814808 284.232092 
L 365.402482 287.062188 
L 365.990155 281.771145 
L 366.577828 273.454209 
L 368.928522 277.661903 
L 369.516195 272.968335 
L 371.866889 242.869984 
L 372.454562 243.572266 
L 374.217582 252.838364 
L 374.805255 248.537871 
L 375.392929 242.889238 
L 377.743622 211.76774 
L 378.331296 211.111327 
L 381.269662 262.432317 
L 381.857336 267.837175 
L 382.445009 270.056164 
L 383.032682 269.83659 
L 384.208029 262.159799 
L 384.795703 261.60251 
L 385.971049 275.291078 
L 386.558723 275.528083 
L 387.146396 274.648305 
L 388.321743 275.708439 
L 388.909416 275.585901 
L 390.084763 261.377875 
L 392.435456 209.316433 
L 393.023129 209.50421 
L 393.610803 235.176464 
L 394.78615 299.426747 
L 395.373823 322.480386 
L 395.961496 337.077678 
L 397.136843 317.64965 
L 398.31219 296.107303 
L 398.899863 284.037432 
L 399.487536 283.599326 
L 400.662883 294.473107 
L 401.250556 296.318497 
L 401.83823 290.581814 
L 402.425903 281.3016 
L 403.013577 269.72986 
L 405.36427 189.129534 
L 405.951943 190.005611 
L 407.12729 209.37634 
L 408.89031 260.322469 
L 409.477983 273.011145 
L 410.065657 282.186282 
L 410.65333 289.558558 
L 411.241004 294.430421 
L 411.828677 297.6187 
L 412.41635 289.813228 
L 415.354717 241.252361 
L 415.94239 243.202217 
L 416.530064 246.384946 
L 417.117737 248.707715 
L 417.70541 251.540838 
L 418.293084 253.604436 
L 420.056104 284.902412 
L 420.643777 280.221147 
L 421.231451 271.296323 
L 421.819124 271.460994 
L 422.406797 272.776795 
L 422.994471 271.79109 
L 423.582144 265.792788 
L 425.345164 238.500718 
L 426.520511 227.549849 
L 427.108184 228.285055 
L 427.695858 233.190064 
L 428.871204 248.345896 
L 430.634224 268.167358 
L 431.221898 271.467985 
L 431.809571 270.725671 
L 432.984918 266.684974 
L 433.572591 269.763017 
L 434.160264 274.887474 
L 434.747938 289.631236 
L 435.335611 299.727095 
L 435.923284 302.181663 
L 436.510958 301.740765 
L 437.098631 296.552828 
L 438.273978 272.666286 
L 438.861651 270.003521 
L 439.449325 270.344553 
L 440.624671 266.470034 
L 442.387691 265.693085 
L 442.975365 266.597631 
L 443.563038 266.147498 
L 444.150711 270.557765 
L 444.738385 279.594177 
L 446.501405 281.851401 
L 447.676752 265.510769 
L 448.264425 261.400781 
L 448.852098 258.977895 
L 449.439772 264.461739 
L 450.027445 268.084139 
L 450.615118 267.569036 
L 452.378138 264.354828 
L 453.553485 238.882787 
L 454.141159 225.445574 
L 454.728832 226.496823 
L 455.316505 223.566453 
L 456.491852 217.064497 
L 457.079525 221.307133 
L 457.667199 226.640448 
L 458.254872 224.587129 
L 458.842545 233.462306 
L 460.605565 287.391753 
L 461.193239 297.818403 
L 462.368586 278.540353 
L 463.543932 255.807558 
L 464.131606 255.832813 
L 464.719279 257.210933 
L 465.306952 255.590925 
L 466.482299 269.897586 
L 467.069972 277.330179 
L 467.657646 277.583872 
L 468.832992 244.272816 
L 470.008339 224.832596 
L 471.183686 207.021138 
L 471.771359 200.443161 
L 472.359033 208.215604 
L 474.122053 243.236912 
L 474.709726 253.780218 
L 475.297399 255.92391 
L 475.885073 264.119786 
L 477.648093 275.403401 
L 478.235766 275.499421 
L 479.411113 265.23925 
L 481.174133 292.703714 
L 481.761806 294.880466 
L 482.34948 291.404208 
L 482.937153 289.246288 
L 483.524826 286.314762 
L 484.700173 276.946147 
L 485.287846 269.138327 
L 485.87552 257.163151 
L 486.463193 252.652696 
L 488.226213 243.725212 
L 488.813887 239.638924 
L 489.40156 245.263492 
L 491.752253 311.131587 
L 492.339927 317.138408 
L 494.69062 313.331639 
L 495.278293 309.695511 
L 496.45364 290.469558 
L 497.628987 267.996613 
L 498.21666 262.268967 
L 498.804334 260.754447 
L 499.392007 261.701775 
L 499.97968 264.948664 
L 501.7427 260.108045 
L 502.330374 260.857451 
L 502.918047 259.134722 
L 504.093394 247.79371 
L 504.681067 250.487617 
L 505.268741 256.035459 
L 506.444087 277.53111 
L 507.619434 302.071933 
L 508.207107 309.78049 
L 508.794781 307.760299 
L 509.382454 300.209148 
L 509.970127 285.187077 
L 511.733147 219.900381 
L 512.320821 203.899034 
L 512.908494 205.62614 
L 513.496167 228.414813 
L 514.671514 295.35731 
L 515.259188 325.808586 
L 515.846861 316.560263 
L 518.785228 205.006089 
L 519.372901 187.421403 
L 519.960574 194.760461 
L 522.311268 241.867298 
L 522.898941 248.804415 
L 525.249635 258.466767 
L 525.837308 259.718695 
L 526.424981 247.049146 
L 527.600328 244.165982 
L 528.775675 241.53062 
L 529.363348 235.482576 
L 529.951021 224.903191 
L 530.538695 224.03462 
L 532.301715 229.54269 
L 533.477062 220.498504 
L 534.064735 229.48607 
L 534.652408 248.989303 
L 535.827755 316.107162 
L 536.415428 317.624241 
L 537.003102 309.555498 
L 538.178448 269.642628 
L 539.353795 242.073149 
L 539.941469 237.205204 
L 542.292162 302.883673 
L 542.879835 301.548703 
L 543.467509 296.862288 
L 544.055182 290.117123 
L 545.230529 263.82982 
L 546.405875 232.065652 
L 546.993549 219.732097 
L 547.581222 222.674881 
L 548.168896 226.76657 
L 548.756569 251.882918 
L 549.344242 291.219985 
L 549.931916 314.360379 
L 551.107262 318.165432 
L 551.694936 318.660678 
L 552.282609 317.078367 
L 552.870282 307.042131 
L 555.220976 243.190111 
L 555.808649 235.394804 
L 556.396322 231.929551 
L 558.159343 260.628043 
L 558.747016 257.14453 
L 559.334689 256.049251 
L 559.922363 257.638768 
L 561.097709 250.159601 
L 561.685383 249.266624 
L 562.273056 250.283376 
L 564.623749 268.168193 
L 565.799096 264.64414 
L 566.38677 264.302572 
L 567.562116 276.661181 
L 568.14979 283.507658 
L 569.325136 299.439557 
L 570.500483 286.401654 
L 571.67583 282.11766 
L 572.263503 280.765134 
L 572.851176 279.793611 
L 573.43885 273.316404 
L 574.026523 263.978877 
L 574.614197 261.751134 
L 575.20187 256.356823 
L 576.96489 236.514195 
L 577.552563 235.594043 
L 578.140237 238.076156 
L 581.078603 270.985283 
L 583.429297 320.115131 
L 584.01697 321.694538 
L 584.604644 320.62874 
L 585.192317 322.588708 
L 586.367664 320.079843 
L 586.955337 317.116742 
L 587.54301 312.144716 
L 588.718357 306.825251 
L 589.30603 310.199873 
L 589.893704 305.201829 
L 590.481377 298.816451 
L 591.069051 297.979951 
L 591.656724 298.308657 
L 592.244397 297.767029 
L 594.595091 285.001754 
L 595.770437 262.652907 
L 596.358111 246.114147 
L 598.121131 211.717625 
L 599.296477 181.837967 
L 600.471824 164.424171 
L 602.234844 187.667218 
L 602.822518 207.773447 
L 603.410191 223.140684 
L 603.997864 229.726688 
L 604.585538 242.467031 
L 605.760884 271.318604 
L 606.348558 271.781621 
L 606.936231 272.908271 
L 607.523904 277.160997 
L 608.111578 272.556611 
L 609.874598 235.171589 
L 610.462271 234.036494 
L 611.049945 239.602987 
L 611.637618 252.871603 
L 612.812965 300.476706 
L 613.400638 307.264773 
L 613.988311 310.114519 
L 614.575985 305.56238 
L 615.751331 265.307435 
L 616.339005 243.840176 
L 616.926678 227.268198 
L 617.514352 218.606646 
L 618.102025 218.65287 
L 618.689698 220.645891 
L 619.865045 227.441491 
L 620.452718 227.970816 
L 621.040392 228.125652 
L 622.215738 227.822381 
L 622.803412 231.541464 
L 623.978758 262.553635 
L 624.566432 273.631079 
L 625.154105 262.776358 
L 625.741779 248.554964 
L 626.329452 243.017529 
L 626.917125 239.178816 
L 628.092472 220.736725 
L 629.855492 265.978578 
L 631.030839 284.677197 
L 631.618512 288.330886 
L 632.206185 286.460758 
L 633.969205 256.443309 
L 634.556879 248.945171 
L 635.144552 250.226755 
L 636.319899 269.454432 
L 636.907572 279.795711 
L 637.495246 285.249633 
L 638.082919 292.508879 
L 639.258266 300.302205 
L 641.021286 320.641521 
L 641.608959 320.443771 
L 642.784306 294.945613 
L 644.547326 254.288933 
L 645.134999 249.42403 
L 645.722673 248.503033 
L 647.485693 244.330756 
L 648.073366 239.646741 
L 648.661039 229.806911 
L 649.248713 226.470374 
L 649.836386 228.115868 
L 651.599406 254.856122 
L 652.18708 257.452278 
L 653.362426 250.35704 
L 655.125446 221.019777 
L 655.71312 218.858929 
L 656.888466 224.564046 
L 657.47614 226.16461 
L 658.651486 228.368912 
L 659.23916 232.012779 
L 661.589853 256.064122 
L 662.177527 255.722377 
L 663.352873 256.623068 
L 663.940547 256.973209 
L 665.115893 258.068359 
L 665.703567 260.858981 
L 667.466587 261.773279 
L 668.05426 266.074717 
L 668.641934 267.5957 
L 669.229607 265.35462 
L 670.404954 259.392848 
L 670.992627 255.818789 
L 672.167974 245.183968 
L 672.755647 246.361399 
L 673.34332 264.014134 
L 674.518667 273.962263 
L 675.694014 282.889418 
L 676.281687 270.450263 
L 676.86936 253.239522 
L 678.044707 267.649762 
L 679.220054 280.181516 
L 679.807727 275.135862 
L 679.807727 275.135862 
" clip-path="url(#p1b1077ce31)" style="fill: none; stroke: #ff8c00; stroke-width: 1.5; stroke-linecap: square"/>
   </g>
   <g id="line2d_14">
    <path d="M 91.962273 280.942497 
L 92.549805 278.416722 
L 93.724868 277.032522 
L 94.3124 288.675293 
L 95.487464 356.267258 
L 96.074996 346.324405 
L 98.425123 273.063205 
L 99.012655 258.622201 
L 99.600187 258.094653 
L 100.187719 269.005959 
L 101.362783 297.530998 
L 101.950314 304.066227 
L 102.537846 303.973519 
L 103.125378 302.024659 
L 103.71291 295.164185 
L 104.300442 289.984398 
L 104.887974 288.891885 
L 105.475506 293.622009 
L 106.063037 295.926575 
L 107.238101 289.092829 
L 108.413165 273.648139 
L 109.000697 272.704965 
L 109.588229 287.147173 
L 110.17576 304.4566 
L 111.350824 291.422116 
L 111.938356 292.970051 
L 112.525888 291.350015 
L 114.876015 259.588902 
L 116.051079 233.564243 
L 116.638611 232.462042 
L 117.813675 230.821976 
L 118.401207 229.639855 
L 118.988738 229.598572 
L 119.57627 232.281788 
L 121.338866 243.089723 
L 121.926398 249.383845 
L 122.51393 260.396956 
L 123.101461 275.142685 
L 124.276525 311.241976 
L 124.864057 314.536404 
L 125.451589 318.682535 
L 126.039121 318.129083 
L 127.801716 300.434057 
L 128.389248 296.561315 
L 128.97678 290.797699 
L 129.564312 282.496807 
L 131.326907 267.397702 
L 131.914439 264.325324 
L 132.501971 262.121349 
L 133.089503 261.243674 
L 134.852099 270.18977 
L 135.43963 281.39756 
L 137.202226 340.675062 
L 139.552354 302.133363 
L 140.139885 295.167355 
L 140.727417 294.978365 
L 141.314949 289.063423 
L 143.077545 258.805553 
L 143.665077 258.775297 
L 144.252608 255.751978 
L 144.84014 269.94782 
L 145.427672 280.318344 
L 146.015204 279.851275 
L 146.602736 281.767378 
L 147.7778 296.646816 
L 149.540395 329.870746 
L 150.715459 325.002954 
L 151.890523 312.471062 
L 152.478054 305.975078 
L 153.065586 302.729223 
L 153.653118 307.824413 
L 154.24065 308.422217 
L 154.828182 307.932427 
L 155.415714 309.714082 
L 156.003246 310.630652 
L 156.590778 308.653571 
L 158.353373 305.746319 
L 158.940905 303.441287 
L 159.528437 298.256766 
L 160.115969 299.060704 
L 161.291032 309.59445 
L 161.878564 313.578183 
L 164.228692 301.545793 
L 164.816224 291.056232 
L 165.403755 286.790173 
L 165.991287 285.991969 
L 167.166351 284.794201 
L 168.341415 269.313075 
L 169.516478 240.657389 
L 170.10401 235.162326 
L 170.691542 228.617575 
L 171.279074 219.545198 
L 171.866606 224.800001 
L 172.454138 252.406205 
L 173.04167 271.491341 
L 173.629202 283.110288 
L 175.979329 243.788722 
L 176.566861 243.16889 
L 177.154393 241.714272 
L 177.741925 249.349217 
L 178.916988 277.236951 
L 180.092052 310.587718 
L 180.679584 325.544393 
L 181.267116 333.904511 
L 181.854648 339.132408 
L 182.442179 339.697957 
L 183.029711 335.053226 
L 183.617243 329.212178 
L 184.204775 321.869672 
L 184.792307 317.272629 
L 185.379839 316.983835 
L 185.967371 313.322398 
L 186.554902 307.122938 
L 187.142434 302.261052 
L 187.729966 298.565211 
L 188.317498 292.792245 
L 189.492562 274.083155 
L 190.080094 270.326246 
L 190.667625 268.359942 
L 192.430221 281.109298 
L 193.017753 280.668121 
L 193.605285 280.434959 
L 195.36788 284.635842 
L 195.955412 286.705262 
L 196.542944 290.358779 
L 197.718008 306.852399 
L 198.893072 323.309852 
L 202.418263 293.797939 
L 203.005795 297.310211 
L 203.593326 311.191135 
L 204.180858 327.9108 
L 204.76839 340.545129 
L 205.355922 338.958516 
L 205.943454 335.636713 
L 207.706049 321.061532 
L 208.293581 320.86995 
L 208.881113 331.263852 
L 209.468645 339.609952 
L 210.056177 344.00149 
L 210.643709 339.314324 
L 211.231241 329.700053 
L 211.818773 318.0388 
L 212.993836 290.300189 
L 213.581368 286.425344 
L 214.756432 286.888801 
L 215.343964 285.774294 
L 215.931496 292.961793 
L 216.519027 303.683919 
L 217.106559 311.371439 
L 217.694091 311.047638 
L 218.281623 310.883509 
L 218.869155 308.891206 
L 219.456687 300.142182 
L 220.044219 294.287853 
L 220.63175 292.351592 
L 221.219282 294.097468 
L 222.394346 314.675966 
L 222.981878 315.685831 
L 224.156942 309.37141 
L 224.744473 303.919967 
L 225.919537 296.37513 
L 226.507069 300.27901 
L 227.682133 322.953483 
L 228.269665 329.811415 
L 228.857197 335.330176 
L 231.207324 284.846239 
L 231.794856 286.934067 
L 232.382388 285.800122 
L 232.96992 290.041584 
L 233.557451 296.936842 
L 234.144983 294.737025 
L 235.320047 292.600213 
L 235.907579 298.100239 
L 236.495111 307.283053 
L 237.670174 334.409037 
L 238.257706 337.319276 
L 238.845238 328.674873 
L 239.43277 316.850212 
L 240.607834 296.990924 
L 241.782897 274.80832 
L 242.370429 287.024961 
L 244.133025 337.202059 
L 245.308089 345.683367 
L 245.89562 342.021839 
L 247.070684 323.506946 
L 247.658216 318.271621 
L 248.245748 320.559261 
L 248.83328 323.323792 
L 250.008344 333.229858 
L 251.183407 324.186336 
L 252.946003 310.247246 
L 253.533535 309.757844 
L 254.708598 310.123857 
L 255.29613 311.445903 
L 255.883662 313.189933 
L 257.058726 307.791383 
L 257.646258 308.858184 
L 258.23379 312.698495 
L 259.408853 308.409305 
L 259.996385 309.224603 
L 260.583917 309.029593 
L 261.171449 300.505412 
L 261.758981 288.382313 
L 262.346513 281.653065 
L 262.934044 276.883715 
L 263.521576 268.50157 
L 264.109108 264.821505 
L 264.69664 267.184006 
L 266.459236 278.38928 
L 267.046768 283.506018 
L 267.634299 291.587773 
L 268.221831 294.886598 
L 268.809363 299.324346 
L 269.984427 309.853298 
L 271.159491 312.223079 
L 271.747022 312.064425 
L 272.334554 308.565451 
L 273.509618 299.54636 
L 274.684682 285.650807 
L 275.272214 280.68508 
L 275.859745 278.826556 
L 277.034809 285.758979 
L 278.797405 317.425983 
L 279.384937 323.262693 
L 281.147532 331.57654 
L 281.735064 327.270216 
L 282.322596 318.599268 
L 284.085192 272.162857 
L 284.672723 257.184268 
L 285.260255 245.443592 
L 285.847787 244.072382 
L 286.435319 247.973423 
L 288.197915 278.770297 
L 288.785446 284.003249 
L 289.372978 284.972412 
L 289.96051 285.511798 
L 291.723106 285.743442 
L 292.310638 287.317458 
L 292.898169 291.141193 
L 293.485701 290.564975 
L 294.660765 296.373319 
L 295.248297 290.311138 
L 295.835829 277.61748 
L 297.010892 260.755268 
L 298.185956 269.03304 
L 299.36102 289.159261 
L 299.948552 294.762779 
L 300.536084 298.502867 
L 301.123615 293.944849 
L 301.711147 283.312876 
L 302.886211 257.113542 
L 303.473743 254.221809 
L 304.648807 268.502209 
L 305.236339 276.13932 
L 305.82387 278.426735 
L 306.411402 273.753621 
L 306.998934 270.933667 
L 307.586466 270.227016 
L 308.173998 268.321312 
L 308.76153 265.777806 
L 309.936593 283.171706 
L 311.699189 310.223917 
L 313.461785 353.776131 
L 314.049316 360.159109 
L 314.636848 353.899424 
L 315.811912 337.23367 
L 316.986976 319.141685 
L 318.162039 299.012333 
L 319.924635 273.951422 
L 324.037358 221.564759 
L 324.62489 226.693628 
L 325.799954 244.367048 
L 326.387486 247.454805 
L 326.975017 251.756479 
L 328.150081 238.882267 
L 328.737613 240.334182 
L 329.325145 255.417025 
L 330.500209 308.783876 
L 331.675272 323.613408 
L 332.262804 321.421476 
L 333.437868 313.471754 
L 334.612932 301.308248 
L 335.787995 288.917312 
L 336.375527 286.822177 
L 337.550591 283.741854 
L 338.725655 287.341309 
L 339.313187 288.747018 
L 339.900718 286.181825 
L 340.48825 281.557759 
L 341.663314 266.996121 
L 342.250846 261.216859 
L 342.838378 259.29484 
L 343.42591 256.989789 
L 344.013441 258.633654 
L 345.188505 276.99504 
L 346.363569 320.121033 
L 346.951101 322.731653 
L 348.126164 302.622278 
L 349.88876 264.35009 
L 350.476292 265.775064 
L 351.063824 284.186316 
L 352.826419 326.990816 
L 353.413951 324.09225 
L 354.001483 319.214717 
L 354.589015 315.326168 
L 355.176547 317.685043 
L 357.526674 295.544993 
L 358.114206 283.578002 
L 358.701738 261.547733 
L 361.051865 229.229319 
L 361.639397 215.074553 
L 362.226929 219.42627 
L 364.577057 286.954677 
L 365.164588 300.009635 
L 365.75212 301.922085 
L 366.339652 298.982695 
L 367.514716 274.469057 
L 368.102248 262.925858 
L 368.68978 260.207225 
L 370.452375 256.148611 
L 371.039907 257.447316 
L 372.214971 279.069401 
L 372.802503 290.388543 
L 373.390034 294.618227 
L 373.977566 292.59547 
L 374.565098 288.795371 
L 375.15263 281.555582 
L 375.740162 271.266914 
L 378.677821 208.157609 
L 379.265353 198.757145 
L 379.852885 191.757384 
L 380.440417 196.959055 
L 382.790544 237.532347 
L 383.378076 245.379413 
L 384.55314 257.079616 
L 385.728204 283.387585 
L 386.315735 297.623139 
L 386.903267 301.092739 
L 387.490799 311.924593 
L 388.078331 315.38627 
L 388.665863 315.681277 
L 389.253395 315.770804 
L 390.428458 300.967153 
L 391.01599 293.210908 
L 391.603522 296.89658 
L 393.95365 294.010503 
L 394.541182 293.982409 
L 395.716245 285.958612 
L 398.066373 283.086944 
L 399.241436 282.913767 
L 399.828968 277.820286 
L 400.4165 274.484585 
L 401.004032 269.364415 
L 402.766628 242.939427 
L 403.354159 237.011976 
L 403.941691 238.610949 
L 404.529223 248.155715 
L 406.291819 286.114801 
L 406.879351 290.052653 
L 407.466882 292.231711 
L 408.054414 292.338005 
L 408.641946 286.549151 
L 409.229478 283.333219 
L 409.81701 283.363334 
L 410.992074 292.110561 
L 411.579605 291.649633 
L 412.754669 286.120941 
L 413.342201 284.206067 
L 415.104797 262.627809 
L 415.692329 257.915257 
L 416.867392 266.701261 
L 417.454924 270.835672 
L 418.042456 278.557441 
L 419.805052 304.726962 
L 420.980115 306.813969 
L 421.567647 308.421523 
L 424.505306 319.73545 
L 425.092838 315.731115 
L 427.442966 288.964998 
L 428.618029 265.31476 
L 429.793093 227.629404 
L 430.380625 210.970825 
L 432.143221 190.246919 
L 432.730753 186.233592 
L 435.668412 176.091958 
L 436.255944 181.58458 
L 439.193603 245.972005 
L 440.368667 265.201871 
L 441.54373 273.230941 
L 442.718794 280.448046 
L 443.306326 276.700925 
L 445.068922 254.738842 
L 445.656453 250.891876 
L 446.831517 239.881319 
L 447.419049 237.754304 
L 448.594113 262.29199 
L 449.769177 287.210817 
L 450.94424 322.228369 
L 451.531772 326.032969 
L 452.119304 328.658291 
L 452.706836 330.594231 
L 455.056963 303.001224 
L 455.644495 297.247493 
L 456.232027 293.413143 
L 456.819559 285.177386 
L 457.407091 283.880176 
L 460.34475 297.227845 
L 460.932282 300.662948 
L 462.694877 315.259529 
L 463.282409 319.07386 
L 463.869941 312.888405 
L 466.807601 270.076575 
L 467.395132 262.028476 
L 467.982664 250.722762 
L 468.570196 236.715917 
L 470.332792 208.014033 
L 470.920324 206.169956 
L 472.682919 228.873361 
L 473.857983 247.67904 
L 474.445515 255.089224 
L 475.033047 252.140657 
L 476.795642 233.448141 
L 478.558238 199.550873 
L 479.14577 197.596748 
L 479.733301 200.08841 
L 480.908365 207.129495 
L 482.083429 216.276723 
L 483.258493 220.566006 
L 484.433556 232.372896 
L 485.021088 233.354188 
L 485.60862 245.488718 
L 486.196152 252.463993 
L 487.958748 255.38405 
L 488.546279 253.293589 
L 489.133811 245.125492 
L 489.721343 228.811076 
L 491.483939 196.297993 
L 493.246534 196.116454 
L 493.834066 199.73601 
L 494.421598 208.971152 
L 495.596662 237.022344 
L 497.359257 272.954241 
L 497.946789 282.390065 
L 498.534321 289.754506 
L 499.121853 290.331774 
L 499.709385 289.954243 
L 500.296917 286.477511 
L 500.884448 278.929313 
L 502.647044 248.478981 
L 504.40964 221.090538 
L 504.997172 227.83641 
L 507.347299 279.886646 
L 508.522363 283.234902 
L 509.109895 284.731059 
L 509.697426 284.826342 
L 510.284958 280.408999 
L 510.87249 273.382019 
L 512.047554 254.385554 
L 512.635086 244.225463 
L 513.222618 240.445221 
L 513.810149 243.306149 
L 514.397681 246.767301 
L 516.160277 266.546772 
L 517.922872 295.821551 
L 518.510404 307.907033 
L 519.685468 324.042496 
L 520.273 326.217729 
L 520.860532 318.828651 
L 522.035596 288.561658 
L 523.798191 237.03867 
L 524.385723 227.472425 
L 525.560787 222.397723 
L 526.148319 219.25306 
L 526.73585 221.904231 
L 527.323382 237.697458 
L 529.67351 270.145523 
L 530.261042 265.359717 
L 530.848573 255.944882 
L 531.436105 253.722613 
L 533.786233 255.108428 
L 534.373765 254.727627 
L 535.548828 245.680103 
L 537.898956 265.762506 
L 538.486488 266.224511 
L 539.074019 261.852993 
L 542.599211 184.540435 
L 543.774274 204.409457 
L 547.299466 283.930101 
L 548.474529 278.777203 
L 550.824657 267.839594 
L 551.412189 266.51862 
L 551.99972 267.533721 
L 552.587252 269.149244 
L 554.93738 265.060969 
L 555.524912 266.272875 
L 556.112443 270.184075 
L 556.699975 272.947087 
L 558.462571 278.44467 
L 559.050103 271.931977 
L 561.40023 235.760971 
L 562.575294 218.008786 
L 563.162826 209.70949 
L 563.750358 206.6322 
L 564.925421 205.34602 
L 565.512953 208.078262 
L 566.688017 220.591427 
L 568.450613 248.500346 
L 569.038144 253.084094 
L 569.625676 253.478503 
L 570.213208 253.033898 
L 570.80074 248.318445 
L 573.150867 224.025597 
L 574.325931 217.612347 
L 574.913463 217.354159 
L 575.500995 219.585623 
L 576.088527 214.986412 
L 577.851122 222.911553 
L 578.438654 221.265231 
L 579.613718 212.329277 
L 580.20125 204.077768 
L 581.963845 173.641113 
L 582.551377 171.508945 
L 583.138909 176.908664 
L 583.726441 178.024712 
L 584.313973 180.916178 
L 586.6641 197.224443 
L 587.251632 195.81411 
L 587.839164 203.109049 
L 589.014228 228.143263 
L 590.776823 247.501618 
L 591.364355 256.082546 
L 591.951887 262.736885 
L 592.539419 260.708855 
L 593.126951 258.090462 
L 593.714483 258.559053 
L 594.302014 263.376162 
L 595.477078 241.432602 
L 596.652142 215.669125 
L 597.239674 202.006154 
L 597.827206 185.480207 
L 599.002269 163.90284 
L 599.589801 167.201893 
L 600.177333 176.287418 
L 601.352397 199.484267 
L 602.527461 229.405079 
L 603.114992 233.740698 
L 604.290056 235.942589 
L 604.877588 236.860378 
L 605.46512 235.767638 
L 606.640184 227.944692 
L 607.227715 230.746469 
L 607.815247 234.452377 
L 608.402779 232.517998 
L 609.577843 219.584193 
L 611.340438 197.36424 
L 613.103034 179.803211 
L 613.690566 190.899364 
L 615.453162 247.784667 
L 616.040693 266.9836 
L 616.628225 272.795256 
L 617.215757 274.243753 
L 617.803289 272.62401 
L 618.390821 266.438547 
L 620.740948 225.876018 
L 621.32848 218.704205 
L 621.916012 214.988769 
L 624.853671 253.381894 
L 626.616267 270.550337 
L 627.203799 269.718343 
L 628.378862 261.955038 
L 628.966394 257.266594 
L 632.491586 207.785559 
L 635.429245 178.294512 
L 636.016777 182.910544 
L 636.604309 199.277146 
L 637.19184 211.135567 
L 638.366904 240.84763 
L 639.541968 247.45705 
L 640.1295 245.010527 
L 640.717032 237.204433 
L 642.479627 220.026046 
L 643.654691 204.798342 
L 645.417286 188.668837 
L 646.004818 187.945131 
L 647.767414 186.350879 
L 648.354946 187.337704 
L 649.530009 212.556835 
L 650.705073 247.438498 
L 651.880137 283.880134 
L 652.467669 290.334245 
L 653.055201 289.711309 
L 653.642733 290.666348 
L 655.99286 272.135951 
L 656.580392 273.257854 
L 657.167924 272.301416 
L 658.342987 269.180046 
L 658.930519 270.009566 
L 660.105583 274.795982 
L 660.693115 273.716776 
L 661.280647 270.997425 
L 661.868179 265.724394 
L 662.45571 261.728498 
L 663.630774 264.965007 
L 664.218306 266.558088 
L 664.805838 266.123734 
L 665.980902 264.757923 
L 666.568433 263.784771 
L 667.155965 261.067757 
L 667.743497 253.313271 
L 668.918561 240.998952 
L 669.506093 237.717851 
L 670.681157 240.950524 
L 671.268688 241.639418 
L 671.85622 241.691343 
L 673.618816 257.790066 
L 674.206348 259.136635 
L 675.968943 246.145368 
L 676.556475 243.500467 
L 678.319071 237.93609 
L 678.906603 234.489414 
L 678.906603 234.489414 
" clip-path="url(#p1b1077ce31)" style="fill: none; stroke: #8b0000; stroke-width: 1.5; stroke-linecap: square"/>
   </g>
   <g id="patch_3">
    <path d="M 62.57 390.04 
L 62.57 25.44 
" style="fill: none; stroke: #000000; stroke-width: 0.8; stroke-linejoin: miter; stroke-linecap: square"/>
   </g>
   <g id="patch_4">
    <path d="M 709.2 390.04 
L 709.2 25.44 
" style="fill: none; stroke: #000000; stroke-width: 0.8; stroke-linejoin: miter; stroke-linecap: square"/>
   </g>
   <g id="patch_5">
    <path d="M 62.57 390.04 
L 709.2 390.04 
" style="fill: none; stroke: #000000; stroke-width: 0.8; stroke-linejoin: miter; stroke-linecap: square"/>
   </g>
   <g id="patch_6">
    <path d="M 62.57 25.44 
L 709.2 25.44 
" style="fill: none; stroke: #000000; stroke-width: 0.8; stroke-linejoin: miter; stroke-linecap: square"/>
   </g>
   <g id="text_14">
    <!-- Policy Algorithms Comparison on AssaultNoFrameskip-v4 -->
    <g transform="translate(214.932813 19.44) scale(0.12 -0.12)">
     <defs>
      <path id="DejaVuSans-50" d="M 1259 4147 
L 1259 2394 
L 2053 2394 
Q 2494 2394 2734 2622 
Q 2975 2850 2975 3272 
Q 2975 3691 2734 3919 
Q 2494 4147 2053 4147 
L 1259 4147 
z
M 628 4666 
L 2053 4666 
Q 2838 4666 3239 4311 
Q 3641 3956 3641 3272 
Q 3641 2581 3239 2228 
Q 2838 1875 2053 1875 
L 1259 1875 
L 1259 0 
L 628 0 
L 628 4666 
z
" transform="scale(0.015625)"/>
      <path id="DejaVuSans-79" d="M 2059 -325 
Q 1816 -950 1584 -1140 
Q 1353 -1331 966 -1331 
L 506 -1331 
L 506 -850 
L 844 -850 
Q 1081 -850 1212 -737 
Q 1344 -625 1503 -206 
L 1606 56 
L 191 3500 
L 800 3500 
L 1894 763 
L 2988 3500 
L 3597 3500 
L 2059 -325 
z
" transform="scale(0.015625)"/>
      <path id="DejaVuSans-41" d="M 2188 4044 
L 1331 1722 
L 3047 1722 
L 2188 4044 
z
M 1831 4666 
L 2547 4666 
L 4325 0 
L 3669 0 
L 3244 1197 
L 1141 1197 
L 716 0 
L 50 0 
L 1831 4666 
z
" transform="scale(0.015625)"/>
      <path id="DejaVuSans-67" d="M 2906 1791 
Q 2906 2416 2648 2759 
Q 2391 3103 1925 3103 
Q 1463 3103 1205 2759 
Q 947 2416 947 1791 
Q 947 1169 1205 825 
Q 1463 481 1925 481 
Q 2391 481 2648 825 
Q 2906 1169 2906 1791 
z
M 3481 434 
Q 3481 -459 3084 -895 
Q 2688 -1331 1869 -1331 
Q 1566 -1331 1297 -1286 
Q 1028 -1241 775 -1147 
L 775 -588 
Q 1028 -725 1275 -790 
Q 1522 -856 1778 -856 
Q 2344 -856 2625 -561 
Q 2906 -266 2906 331 
L 2906 616 
Q 2728 306 2450 153 
Q 2172 0 1784 0 
Q 1141 0 747 490 
Q 353 981 353 1791 
Q 353 2603 747 3093 
Q 1141 3584 1784 3584 
Q 2172 3584 2450 3431 
Q 2728 3278 2906 2969 
L 2906 3500 
L 3481 3500 
L 3481 434 
z
" transform="scale(0.015625)"/>
      <path id="DejaVuSans-43" d="M 4122 4306 
L 4122 3641 
Q 3803 3938 3442 4084 
Q 3081 4231 2675 4231 
Q 1875 4231 1450 3742 
Q 1025 3253 1025 2328 
Q 1025 1406 1450 917 
Q 1875 428 2675 428 
Q 3081 428 3442 575 
Q 3803 722 4122 1019 
L 4122 359 
Q 3791 134 3420 21 
Q 3050 -91 2638 -91 
Q 1578 -91 968 557 
Q 359 1206 359 2328 
Q 359 3453 968 4101 
Q 1578 4750 2638 4750 
Q 3056 4750 3426 4639 
Q 3797 4528 4122 4306 
z
" transform="scale(0.015625)"/>
      <path id="DejaVuSans-46" d="M 628 4666 
L 3309 4666 
L 3309 4134 
L 1259 4134 
L 1259 2759 
L 3109 2759 
L 3109 2228 
L 1259 2228 
L 1259 0 
L 628 0 
L 628 4666 
z
" transform="scale(0.015625)"/>
      <path id="DejaVuSans-6b" d="M 581 4863 
L 1159 4863 
L 1159 1991 
L 2875 3500 
L 3609 3500 
L 1753 1863 
L 3688 0 
L 2938 0 
L 1159 1709 
L 1159 0 
L 581 0 
L 581 4863 
z
" transform="scale(0.015625)"/>
      <path id="DejaVuSans-2d" d="M 313 2009 
L 1997 2009 
L 1997 1497 
L 313 1497 
L 313 2009 
z
" transform="scale(0.015625)"/>
      <path id="DejaVuSans-76" d="M 191 3500 
L 800 3500 
L 1894 563 
L 2988 3500 
L 3597 3500 
L 2284 0 
L 1503 0 
L 191 3500 
z
" transform="scale(0.015625)"/>
     </defs>
     <use xlink:href="#DejaVuSans-50"/>
     <use xlink:href="#DejaVuSans-6f" transform="translate(56.677734 0)"/>
     <use xlink:href="#DejaVuSans-6c" transform="translate(117.859375 0)"/>
     <use xlink:href="#DejaVuSans-69" transform="translate(145.642578 0)"/>
     <use xlink:href="#DejaVuSans-63" transform="translate(173.425781 0)"/>
     <use xlink:href="#DejaVuSans-79" transform="translate(228.40625 0)"/>
     <use xlink:href="#DejaVuSans-20" transform="translate(287.585938 0)"/>
     <use xlink:href="#DejaVuSans-41" transform="translate(319.373047 0)"/>
     <use xlink:href="#DejaVuSans-6c" transform="translate(387.78125 0)"/>
     <use xlink:href="#DejaVuSans-67" transform="translate(415.564453 0)"/>
     <use xlink:href="#DejaVuSans-6f" transform="translate(479.041016 0)"/>
     <use xlink:href="#DejaVuSans-72" transform="translate(540.222656 0)"/>
     <use xlink:href="#DejaVuSans-69" transform="translate(581.335938 0)"/>
     <use xlink:href="#DejaVuSans-74" transform="translate(609.119141 0)"/>
     <use xlink:href="#DejaVuSans-68" transform="translate(648.328125 0)"/>
     <use xlink:href="#DejaVuSans-6d" transform="translate(711.707031 0)"/>
     <use xlink:href="#DejaVuSans-73" transform="translate(809.119141 0)"/>
     <use xlink:href="#DejaVuSans-20" transform="translate(861.21875 0)"/>
     <use xlink:href="#DejaVuSans-43" transform="translate(893.005859 0)"/>
     <use xlink:href="#DejaVuSans-6f" transform="translate(962.830078 0)"/>
     <use xlink:href="#DejaVuSans-6d" transform="translate(1024.011719 0)"/>
     <use xlink:href="#DejaVuSans-70" transform="translate(1121.423828 0)"/>
     <use xlink:href="#DejaVuSans-61" transform="translate(1184.900391 0)"/>
     <use xlink:href="#DejaVuSans-72" transform="translate(1246.179688 0)"/>
     <use xlink:href="#DejaVuSans-69" transform="translate(1287.292969 0)"/>
     <use xlink:href="#DejaVuSans-73" transform="translate(1315.076172 0)"/>
     <use xlink:href="#DejaVuSans-6f" transform="translate(1367.175781 0)"/>
     <use xlink:href="#DejaVuSans-6e" transform="translate(1428.357422 0)"/>
     <use xlink:href="#DejaVuSans-20" transform="translate(1491.736328 0)"/>
     <use xlink:href="#DejaVuSans-6f" transform="translate(1523.523438 0)"/>
     <use xlink:href="#DejaVuSans-6e" transform="translate(1584.705078 0)"/>
     <use xlink:href="#DejaVuSans-20" transform="translate(1648.083984 0)"/>
     <use xlink:href="#DejaVuSans-41" transform="translate(1679.871094 0)"/>
     <use xlink:href="#DejaVuSans-73" transform="translate(1748.279297 0)"/>
     <use xlink:href="#DejaVuSans-73" transform="translate(1800.378906 0)"/>
     <use xlink:href="#DejaVuSans-61" transform="translate(1852.478516 0)"/>
     <use xlink:href="#DejaVuSans-75" transform="translate(1913.757812 0)"/>
     <use xlink:href="#DejaVuSans-6c" transform="translate(1977.136719 0)"/>
     <use xlink:href="#DejaVuSans-74" transform="translate(2004.919922 0)"/>
     <use xlink:href="#DejaVuSans-4e" transform="translate(2044.128906 0)"/>
     <use xlink:href="#DejaVuSans-6f" transform="translate(2118.933594 0)"/>
     <use xlink:href="#DejaVuSans-46" transform="translate(2180.115234 0)"/>
     <use xlink:href="#DejaVuSans-72" transform="translate(2230.384766 0)"/>
     <use xlink:href="#DejaVuSans-61" transform="translate(2271.498047 0)"/>
     <use xlink:href="#DejaVuSans-6d" transform="translate(2332.777344 0)"/>
     <use xlink:href="#DejaVuSans-65" transform="translate(2430.189453 0)"/>
     <use xlink:href="#DejaVuSans-73" transform="translate(2491.712891 0)"/>
     <use xlink:href="#DejaVuSans-6b" transform="translate(2543.8125 0)"/>
     <use xlink:href="#DejaVuSans-69" transform="translate(2601.722656 0)"/>
     <use xlink:href="#DejaVuSans-70" transform="translate(2629.505859 0)"/>
     <use xlink:href="#DejaVuSans-2d" transform="translate(2692.982422 0)"/>
     <use xlink:href="#DejaVuSans-76" transform="translate(2726.441406 0)"/>
     <use xlink:href="#DejaVuSans-34" transform="translate(2785.621094 0)"/>
    </g>
   </g>
   <g id="legend_1">
    <g id="patch_7">
     <path d="M 597.803125 92.986875 
L 702.2 92.986875 
Q 704.2 92.986875 704.2 90.986875 
L 704.2 32.44 
Q 704.2 30.44 702.2 30.44 
L 597.803125 30.44 
Q 595.803125 30.44 595.803125 32.44 
L 595.803125 90.986875 
Q 595.803125 92.986875 597.803125 92.986875 
z
" style="fill: #ffffff; opacity: 0.8; stroke: #cccccc; stroke-linejoin: miter"/>
    </g>
    <g id="text_15">
     <!-- Algorithm -->
     <g transform="translate(625.514844 42.038437) scale(0.1 -0.1)">
      <use xlink:href="#DejaVuSans-41"/>
      <use xlink:href="#DejaVuSans-6c" transform="translate(68.408203 0)"/>
      <use xlink:href="#DejaVuSans-67" transform="translate(96.191406 0)"/>
      <use xlink:href="#DejaVuSans-6f" transform="translate(159.667969 0)"/>
      <use xlink:href="#DejaVuSans-72" transform="translate(220.849609 0)"/>
      <use xlink:href="#DejaVuSans-69" transform="translate(261.962891 0)"/>
      <use xlink:href="#DejaVuSans-74" transform="translate(289.746094 0)"/>
      <use xlink:href="#DejaVuSans-68" transform="translate(328.955078 0)"/>
      <use xlink:href="#DejaVuSans-6d" transform="translate(392.333984 0)"/>
     </g>
    </g>
    <g id="line2d_15">
     <path d="M 599.803125 53.216563 
L 609.803125 53.216563 
L 619.803125 53.216563 
" style="fill: none; stroke: #00008b; stroke-width: 1.5; stroke-linecap: square"/>
    </g>
    <g id="text_16">
     <!-- ppo_atari -->
     <g transform="translate(627.803125 56.716563) scale(0.1 -0.1)">
      <defs>
       <path id="DejaVuSans-5f" d="M 3263 -1063 
L 3263 -1509 
L -63 -1509 
L -63 -1063 
L 3263 -1063 
z
" transform="scale(0.015625)"/>
      </defs>
      <use xlink:href="#DejaVuSans-70"/>
      <use xlink:href="#DejaVuSans-70" transform="translate(63.476562 0)"/>
      <use xlink:href="#DejaVuSans-6f" transform="translate(126.953125 0)"/>
      <use xlink:href="#DejaVuSans-5f" transform="translate(188.134766 0)"/>
      <use xlink:href="#DejaVuSans-61" transform="translate(238.134766 0)"/>
      <use xlink:href="#DejaVuSans-74" transform="translate(299.414062 0)"/>
      <use xlink:href="#DejaVuSans-61" transform="translate(338.623047 0)"/>
      <use xlink:href="#DejaVuSans-72" transform="translate(399.902344 0)"/>
      <use xlink:href="#DejaVuSans-69" transform="translate(441.015625 0)"/>
     </g>
    </g>
    <g id="line2d_16">
     <path d="M 599.803125 68.172813 
L 609.803125 68.172813 
L 619.803125 68.172813 
" style="fill: none; stroke: #ff8c00; stroke-width: 1.5; stroke-linecap: square"/>
    </g>
    <g id="text_17">
     <!-- reinforce_atari -->
     <g transform="translate(627.803125 71.672813) scale(0.1 -0.1)">
      <defs>
       <path id="DejaVuSans-66" d="M 2375 4863 
L 2375 4384 
L 1825 4384 
Q 1516 4384 1395 4259 
Q 1275 4134 1275 3809 
L 1275 3500 
L 2222 3500 
L 2222 3053 
L 1275 3053 
L 1275 0 
L 697 0 
L 697 3053 
L 147 3053 
L 147 3500 
L 697 3500 
L 697 3744 
Q 697 4328 969 4595 
Q 1241 4863 1831 4863 
L 2375 4863 
z
" transform="scale(0.015625)"/>
      </defs>
      <use xlink:href="#DejaVuSans-72"/>
      <use xlink:href="#DejaVuSans-65" transform="translate(38.863281 0)"/>
      <use xlink:href="#DejaVuSans-69" transform="translate(100.386719 0)"/>
      <use xlink:href="#DejaVuSans-6e" transform="translate(128.169922 0)"/>
      <use xlink:href="#DejaVuSans-66" transform="translate(191.548828 0)"/>
      <use xlink:href="#DejaVuSans-6f" transform="translate(226.753906 0)"/>
      <use xlink:href="#DejaVuSans-72" transform="translate(287.935547 0)"/>
      <use xlink:href="#DejaVuSans-63" transform="translate(326.798828 0)"/>
      <use xlink:href="#DejaVuSans-65" transform="translate(381.779297 0)"/>
      <use xlink:href="#DejaVuSans-5f" transform="translate(443.302734 0)"/>
      <use xlink:href="#DejaVuSans-61" transform="translate(493.302734 0)"/>
      <use xlink:href="#DejaVuSans-74" transform="translate(554.582031 0)"/>
      <use xlink:href="#DejaVuSans-61" transform="translate(593.791016 0)"/>
      <use xlink:href="#DejaVuSans-72" transform="translate(655.070312 0)"/>
      <use xlink:href="#DejaVuSans-69" transform="translate(696.183594 0)"/>
     </g>
    </g>
    <g id="line2d_17">
     <path d="M 599.803125 83.129063 
L 609.803125 83.129063 
L 619.803125 83.129063 
" style="fill: none; stroke: #8b0000; stroke-width: 1.5; stroke-linecap: square"/>
    </g>
    <g id="text_18">
     <!-- sac_atari -->
     <g transform="translate(627.803125 86.629063) scale(0.1 -0.1)">
      <use xlink:href="#DejaVuSans-73"/>
      <use xlink:href="#DejaVuSans-61" transform="translate(52.099609 0)"/>
      <use xlink:href="#DejaVuSans-63" transform="translate(113.378906 0)"/>
      <use xlink:href="#DejaVuSans-5f" transform="translate(168.359375 0)"/>
      <use xlink:href="#DejaVuSans-61" transform="translate(218.359375 0)"/>
      <use xlink:href="#DejaVuSans-74" transform="translate(279.638672 0)"/>
      <use xlink:href="#DejaVuSans-61" transform="translate(318.847656 0)"/>
      <use xlink:href="#DejaVuSans-72" transform="translate(380.126953 0)"/>
      <use xlink:href="#DejaVuSans-69" transform="translate(421.240234 0)"/>
     </g>
    </g>
   </g>
  </g>
 </g>
 <defs>
  <clipPath id="p1b1077ce31">
   <rect x="62.57" y="25.44" width="646.63" height="364.6"/>
  </clipPath>
 </defs>
</svg>
