<?xml version="1.0" encoding="utf-8" standalone="no"?>
<!DOCTYPE svg PUBLIC "-//W3C//DTD SVG 1.1//EN"
  "http://www.w3.org/Graphics/SVG/1.1/DTD/svg11.dtd">
<svg xmlns:xlink="http://www.w3.org/1999/xlink" width="720pt" height="432pt" viewBox="0 0 720 432" xmlns="http://www.w3.org/2000/svg" version="1.1">
 <metadata>
  <rdf:RDF xmlns:dc="http://purl.org/dc/elements/1.1/" xmlns:cc="http://creativecommons.org/ns#" xmlns:rdf="http://www.w3.org/1999/02/22-rdf-syntax-ns#">
   <cc:Work>
    <dc:type rdf:resource="http://purl.org/dc/dcmitype/StillImage"/>
    <dc:date>2025-02-09T22:58:06.932170</dc:date>
    <dc:format>image/svg+xml</dc:format>
    <dc:creator>
     <cc:Agent>
      <dc:title>Matplotlib v3.10.0, https://matplotlib.org/</dc:title>
     </cc:Agent>
    </dc:creator>
   </cc:Work>
  </rdf:RDF>
 </metadata>
 <defs>
  <style type="text/css">*{stroke-linejoin: round; stroke-linecap: butt}</style>
 </defs>
 <g id="figure_1">
  <g id="patch_1">
   <path d="M 0 432 
L 720 432 
L 720 0 
L 0 0 
z
" style="fill: #ffffff"/>
  </g>
  <g id="axes_1">
   <g id="patch_2">
    <path d="M 54.2 390.04 
L 709.2 390.04 
L 709.2 25.44 
L 54.2 25.44 
z
" style="fill: #ffffff"/>
   </g>
   <g id="matplotlib.axis_1">
    <g id="xtick_1">
     <g id="line2d_1">
      <defs>
       <path id="m62d195e997" d="M 0 0 
L 0 3.5 
" style="stroke: #000000; stroke-width: 0.8"/>
      </defs>
      <g>
       <use xlink:href="#m62d195e997" x="80.904021" y="390.04" style="stroke: #000000; stroke-width: 0.8"/>
      </g>
     </g>
     <g id="text_1">
      <!-- 0 -->
      <g transform="translate(77.722771 404.638438) scale(0.1 -0.1)">
       <defs>
        <path id="DejaVuSans-30" d="M 2034 4250 
Q 1547 4250 1301 3770 
Q 1056 3291 1056 2328 
Q 1056 1369 1301 889 
Q 1547 409 2034 409 
Q 2525 409 2770 889 
Q 3016 1369 3016 2328 
Q 3016 3291 2770 3770 
Q 2525 4250 2034 4250 
z
M 2034 4750 
Q 2819 4750 3233 4129 
Q 3647 3509 3647 2328 
Q 3647 1150 3233 529 
Q 2819 -91 2034 -91 
Q 1250 -91 836 529 
Q 422 1150 422 2328 
Q 422 3509 836 4129 
Q 1250 4750 2034 4750 
z
" transform="scale(0.015625)"/>
       </defs>
       <use xlink:href="#DejaVuSans-30"/>
      </g>
     </g>
    </g>
    <g id="xtick_2">
     <g id="line2d_2">
      <g>
       <use xlink:href="#m62d195e997" x="200.541675" y="390.04" style="stroke: #000000; stroke-width: 0.8"/>
      </g>
     </g>
     <g id="text_2">
      <!-- 20000 -->
      <g transform="translate(184.635425 404.638438) scale(0.1 -0.1)">
       <defs>
        <path id="DejaVuSans-32" d="M 1228 531 
L 3431 531 
L 3431 0 
L 469 0 
L 469 531 
Q 828 903 1448 1529 
Q 2069 2156 2228 2338 
Q 2531 2678 2651 2914 
Q 2772 3150 2772 3378 
Q 2772 3750 2511 3984 
Q 2250 4219 1831 4219 
Q 1534 4219 1204 4116 
Q 875 4013 500 3803 
L 500 4441 
Q 881 4594 1212 4672 
Q 1544 4750 1819 4750 
Q 2544 4750 2975 4387 
Q 3406 4025 3406 3419 
Q 3406 3131 3298 2873 
Q 3191 2616 2906 2266 
Q 2828 2175 2409 1742 
Q 1991 1309 1228 531 
z
" transform="scale(0.015625)"/>
       </defs>
       <use xlink:href="#DejaVuSans-32"/>
       <use xlink:href="#DejaVuSans-30" transform="translate(63.623047 0)"/>
       <use xlink:href="#DejaVuSans-30" transform="translate(127.246094 0)"/>
       <use xlink:href="#DejaVuSans-30" transform="translate(190.869141 0)"/>
       <use xlink:href="#DejaVuSans-30" transform="translate(254.492188 0)"/>
      </g>
     </g>
    </g>
    <g id="xtick_3">
     <g id="line2d_3">
      <g>
       <use xlink:href="#m62d195e997" x="320.179328" y="390.04" style="stroke: #000000; stroke-width: 0.8"/>
      </g>
     </g>
     <g id="text_3">
      <!-- 40000 -->
      <g transform="translate(304.273078 404.638438) scale(0.1 -0.1)">
       <defs>
        <path id="DejaVuSans-34" d="M 2419 4116 
L 825 1625 
L 2419 1625 
L 2419 4116 
z
M 2253 4666 
L 3047 4666 
L 3047 1625 
L 3713 1625 
L 3713 1100 
L 3047 1100 
L 3047 0 
L 2419 0 
L 2419 1100 
L 313 1100 
L 313 1709 
L 2253 4666 
z
" transform="scale(0.015625)"/>
       </defs>
       <use xlink:href="#DejaVuSans-34"/>
       <use xlink:href="#DejaVuSans-30" transform="translate(63.623047 0)"/>
       <use xlink:href="#DejaVuSans-30" transform="translate(127.246094 0)"/>
       <use xlink:href="#DejaVuSans-30" transform="translate(190.869141 0)"/>
       <use xlink:href="#DejaVuSans-30" transform="translate(254.492188 0)"/>
      </g>
     </g>
    </g>
    <g id="xtick_4">
     <g id="line2d_4">
      <g>
       <use xlink:href="#m62d195e997" x="439.816981" y="390.04" style="stroke: #000000; stroke-width: 0.8"/>
      </g>
     </g>
     <g id="text_4">
      <!-- 60000 -->
      <g transform="translate(423.910731 404.638438) scale(0.1 -0.1)">
       <defs>
        <path id="DejaVuSans-36" d="M 2113 2584 
Q 1688 2584 1439 2293 
Q 1191 2003 1191 1497 
Q 1191 994 1439 701 
Q 1688 409 2113 409 
Q 2538 409 2786 701 
Q 3034 994 3034 1497 
Q 3034 2003 2786 2293 
Q 2538 2584 2113 2584 
z
M 3366 4563 
L 3366 3988 
Q 3128 4100 2886 4159 
Q 2644 4219 2406 4219 
Q 1781 4219 1451 3797 
Q 1122 3375 1075 2522 
Q 1259 2794 1537 2939 
Q 1816 3084 2150 3084 
Q 2853 3084 3261 2657 
Q 3669 2231 3669 1497 
Q 3669 778 3244 343 
Q 2819 -91 2113 -91 
Q 1303 -91 875 529 
Q 447 1150 447 2328 
Q 447 3434 972 4092 
Q 1497 4750 2381 4750 
Q 2619 4750 2861 4703 
Q 3103 4656 3366 4563 
z
" transform="scale(0.015625)"/>
       </defs>
       <use xlink:href="#DejaVuSans-36"/>
       <use xlink:href="#DejaVuSans-30" transform="translate(63.623047 0)"/>
       <use xlink:href="#DejaVuSans-30" transform="translate(127.246094 0)"/>
       <use xlink:href="#DejaVuSans-30" transform="translate(190.869141 0)"/>
       <use xlink:href="#DejaVuSans-30" transform="translate(254.492188 0)"/>
      </g>
     </g>
    </g>
    <g id="xtick_5">
     <g id="line2d_5">
      <g>
       <use xlink:href="#m62d195e997" x="559.454634" y="390.04" style="stroke: #000000; stroke-width: 0.8"/>
      </g>
     </g>
     <g id="text_5">
      <!-- 80000 -->
      <g transform="translate(543.548384 404.638438) scale(0.1 -0.1)">
       <defs>
        <path id="DejaVuSans-38" d="M 2034 2216 
Q 1584 2216 1326 1975 
Q 1069 1734 1069 1313 
Q 1069 891 1326 650 
Q 1584 409 2034 409 
Q 2484 409 2743 651 
Q 3003 894 3003 1313 
Q 3003 1734 2745 1975 
Q 2488 2216 2034 2216 
z
M 1403 2484 
Q 997 2584 770 2862 
Q 544 3141 544 3541 
Q 544 4100 942 4425 
Q 1341 4750 2034 4750 
Q 2731 4750 3128 4425 
Q 3525 4100 3525 3541 
Q 3525 3141 3298 2862 
Q 3072 2584 2669 2484 
Q 3125 2378 3379 2068 
Q 3634 1759 3634 1313 
Q 3634 634 3220 271 
Q 2806 -91 2034 -91 
Q 1263 -91 848 271 
Q 434 634 434 1313 
Q 434 1759 690 2068 
Q 947 2378 1403 2484 
z
M 1172 3481 
Q 1172 3119 1398 2916 
Q 1625 2713 2034 2713 
Q 2441 2713 2670 2916 
Q 2900 3119 2900 3481 
Q 2900 3844 2670 4047 
Q 2441 4250 2034 4250 
Q 1625 4250 1398 4047 
Q 1172 3844 1172 3481 
z
" transform="scale(0.015625)"/>
       </defs>
       <use xlink:href="#DejaVuSans-38"/>
       <use xlink:href="#DejaVuSans-30" transform="translate(63.623047 0)"/>
       <use xlink:href="#DejaVuSans-30" transform="translate(127.246094 0)"/>
       <use xlink:href="#DejaVuSans-30" transform="translate(190.869141 0)"/>
       <use xlink:href="#DejaVuSans-30" transform="translate(254.492188 0)"/>
      </g>
     </g>
    </g>
    <g id="xtick_6">
     <g id="line2d_6">
      <g>
       <use xlink:href="#m62d195e997" x="679.092287" y="390.04" style="stroke: #000000; stroke-width: 0.8"/>
      </g>
     </g>
     <g id="text_6">
      <!-- 100000 -->
      <g transform="translate(660.004787 404.638438) scale(0.1 -0.1)">
       <defs>
        <path id="DejaVuSans-31" d="M 794 531 
L 1825 531 
L 1825 4091 
L 703 3866 
L 703 4441 
L 1819 4666 
L 2450 4666 
L 2450 531 
L 3481 531 
L 3481 0 
L 794 0 
L 794 531 
z
" transform="scale(0.015625)"/>
       </defs>
       <use xlink:href="#DejaVuSans-31"/>
       <use xlink:href="#DejaVuSans-30" transform="translate(63.623047 0)"/>
       <use xlink:href="#DejaVuSans-30" transform="translate(127.246094 0)"/>
       <use xlink:href="#DejaVuSans-30" transform="translate(190.869141 0)"/>
       <use xlink:href="#DejaVuSans-30" transform="translate(254.492188 0)"/>
       <use xlink:href="#DejaVuSans-30" transform="translate(318.115234 0)"/>
      </g>
     </g>
    </g>
    <g id="text_7">
     <!-- Step -->
     <g transform="translate(370.314844 418.316562) scale(0.1 -0.1)">
      <defs>
       <path id="DejaVuSans-53" d="M 3425 4513 
L 3425 3897 
Q 3066 4069 2747 4153 
Q 2428 4238 2131 4238 
Q 1616 4238 1336 4038 
Q 1056 3838 1056 3469 
Q 1056 3159 1242 3001 
Q 1428 2844 1947 2747 
L 2328 2669 
Q 3034 2534 3370 2195 
Q 3706 1856 3706 1288 
Q 3706 609 3251 259 
Q 2797 -91 1919 -91 
Q 1588 -91 1214 -16 
Q 841 59 441 206 
L 441 856 
Q 825 641 1194 531 
Q 1563 422 1919 422 
Q 2459 422 2753 634 
Q 3047 847 3047 1241 
Q 3047 1584 2836 1778 
Q 2625 1972 2144 2069 
L 1759 2144 
Q 1053 2284 737 2584 
Q 422 2884 422 3419 
Q 422 4038 858 4394 
Q 1294 4750 2059 4750 
Q 2388 4750 2728 4690 
Q 3069 4631 3425 4513 
z
" transform="scale(0.015625)"/>
       <path id="DejaVuSans-74" d="M 1172 4494 
L 1172 3500 
L 2356 3500 
L 2356 3053 
L 1172 3053 
L 1172 1153 
Q 1172 725 1289 603 
Q 1406 481 1766 481 
L 2356 481 
L 2356 0 
L 1766 0 
Q 1100 0 847 248 
Q 594 497 594 1153 
L 594 3053 
L 172 3053 
L 172 3500 
L 594 3500 
L 594 4494 
L 1172 4494 
z
" transform="scale(0.015625)"/>
       <path id="DejaVuSans-65" d="M 3597 1894 
L 3597 1613 
L 953 1613 
Q 991 1019 1311 708 
Q 1631 397 2203 397 
Q 2534 397 2845 478 
Q 3156 559 3463 722 
L 3463 178 
Q 3153 47 2828 -22 
Q 2503 -91 2169 -91 
Q 1331 -91 842 396 
Q 353 884 353 1716 
Q 353 2575 817 3079 
Q 1281 3584 2069 3584 
Q 2775 3584 3186 3129 
Q 3597 2675 3597 1894 
z
M 3022 2063 
Q 3016 2534 2758 2815 
Q 2500 3097 2075 3097 
Q 1594 3097 1305 2825 
Q 1016 2553 972 2059 
L 3022 2063 
z
" transform="scale(0.015625)"/>
       <path id="DejaVuSans-70" d="M 1159 525 
L 1159 -1331 
L 581 -1331 
L 581 3500 
L 1159 3500 
L 1159 2969 
Q 1341 3281 1617 3432 
Q 1894 3584 2278 3584 
Q 2916 3584 3314 3078 
Q 3713 2572 3713 1747 
Q 3713 922 3314 415 
Q 2916 -91 2278 -91 
Q 1894 -91 1617 61 
Q 1341 213 1159 525 
z
M 3116 1747 
Q 3116 2381 2855 2742 
Q 2594 3103 2138 3103 
Q 1681 3103 1420 2742 
Q 1159 2381 1159 1747 
Q 1159 1113 1420 752 
Q 1681 391 2138 391 
Q 2594 391 2855 752 
Q 3116 1113 3116 1747 
z
" transform="scale(0.015625)"/>
      </defs>
      <use xlink:href="#DejaVuSans-53"/>
      <use xlink:href="#DejaVuSans-74" transform="translate(63.476562 0)"/>
      <use xlink:href="#DejaVuSans-65" transform="translate(102.685547 0)"/>
      <use xlink:href="#DejaVuSans-70" transform="translate(164.208984 0)"/>
     </g>
    </g>
   </g>
   <g id="matplotlib.axis_2">
    <g id="ytick_1">
     <g id="line2d_7">
      <defs>
       <path id="md630498d39" d="M 0 0 
L -3.5 0 
" style="stroke: #000000; stroke-width: 0.8"/>
      </defs>
      <g>
       <use xlink:href="#md630498d39" x="54.2" y="374.001066" style="stroke: #000000; stroke-width: 0.8"/>
      </g>
     </g>
     <g id="text_8">
      <!-- 0.00 -->
      <g transform="translate(24.934375 377.800285) scale(0.1 -0.1)">
       <defs>
        <path id="DejaVuSans-2e" d="M 684 794 
L 1344 794 
L 1344 0 
L 684 0 
L 684 794 
z
" transform="scale(0.015625)"/>
       </defs>
       <use xlink:href="#DejaVuSans-30"/>
       <use xlink:href="#DejaVuSans-2e" transform="translate(63.623047 0)"/>
       <use xlink:href="#DejaVuSans-30" transform="translate(95.410156 0)"/>
       <use xlink:href="#DejaVuSans-30" transform="translate(159.033203 0)"/>
      </g>
     </g>
    </g>
    <g id="ytick_2">
     <g id="line2d_8">
      <g>
       <use xlink:href="#md630498d39" x="54.2" y="333.269227" style="stroke: #000000; stroke-width: 0.8"/>
      </g>
     </g>
     <g id="text_9">
      <!-- 0.05 -->
      <g transform="translate(24.934375 337.068446) scale(0.1 -0.1)">
       <defs>
        <path id="DejaVuSans-35" d="M 691 4666 
L 3169 4666 
L 3169 4134 
L 1269 4134 
L 1269 2991 
Q 1406 3038 1543 3061 
Q 1681 3084 1819 3084 
Q 2600 3084 3056 2656 
Q 3513 2228 3513 1497 
Q 3513 744 3044 326 
Q 2575 -91 1722 -91 
Q 1428 -91 1123 -41 
Q 819 9 494 109 
L 494 744 
Q 775 591 1075 516 
Q 1375 441 1709 441 
Q 2250 441 2565 725 
Q 2881 1009 2881 1497 
Q 2881 1984 2565 2268 
Q 2250 2553 1709 2553 
Q 1456 2553 1204 2497 
Q 953 2441 691 2322 
L 691 4666 
z
" transform="scale(0.015625)"/>
       </defs>
       <use xlink:href="#DejaVuSans-30"/>
       <use xlink:href="#DejaVuSans-2e" transform="translate(63.623047 0)"/>
       <use xlink:href="#DejaVuSans-30" transform="translate(95.410156 0)"/>
       <use xlink:href="#DejaVuSans-35" transform="translate(159.033203 0)"/>
      </g>
     </g>
    </g>
    <g id="ytick_3">
     <g id="line2d_9">
      <g>
       <use xlink:href="#md630498d39" x="54.2" y="292.537388" style="stroke: #000000; stroke-width: 0.8"/>
      </g>
     </g>
     <g id="text_10">
      <!-- 0.10 -->
      <g transform="translate(24.934375 296.336607) scale(0.1 -0.1)">
       <use xlink:href="#DejaVuSans-30"/>
       <use xlink:href="#DejaVuSans-2e" transform="translate(63.623047 0)"/>
       <use xlink:href="#DejaVuSans-31" transform="translate(95.410156 0)"/>
       <use xlink:href="#DejaVuSans-30" transform="translate(159.033203 0)"/>
      </g>
     </g>
    </g>
    <g id="ytick_4">
     <g id="line2d_10">
      <g>
       <use xlink:href="#md630498d39" x="54.2" y="251.805549" style="stroke: #000000; stroke-width: 0.8"/>
      </g>
     </g>
     <g id="text_11">
      <!-- 0.15 -->
      <g transform="translate(24.934375 255.604768) scale(0.1 -0.1)">
       <use xlink:href="#DejaVuSans-30"/>
       <use xlink:href="#DejaVuSans-2e" transform="translate(63.623047 0)"/>
       <use xlink:href="#DejaVuSans-31" transform="translate(95.410156 0)"/>
       <use xlink:href="#DejaVuSans-35" transform="translate(159.033203 0)"/>
      </g>
     </g>
    </g>
    <g id="ytick_5">
     <g id="line2d_11">
      <g>
       <use xlink:href="#md630498d39" x="54.2" y="211.07371" style="stroke: #000000; stroke-width: 0.8"/>
      </g>
     </g>
     <g id="text_12">
      <!-- 0.20 -->
      <g transform="translate(24.934375 214.872929) scale(0.1 -0.1)">
       <use xlink:href="#DejaVuSans-30"/>
       <use xlink:href="#DejaVuSans-2e" transform="translate(63.623047 0)"/>
       <use xlink:href="#DejaVuSans-32" transform="translate(95.410156 0)"/>
       <use xlink:href="#DejaVuSans-30" transform="translate(159.033203 0)"/>
      </g>
     </g>
    </g>
    <g id="ytick_6">
     <g id="line2d_12">
      <g>
       <use xlink:href="#md630498d39" x="54.2" y="170.341871" style="stroke: #000000; stroke-width: 0.8"/>
      </g>
     </g>
     <g id="text_13">
      <!-- 0.25 -->
      <g transform="translate(24.934375 174.14109) scale(0.1 -0.1)">
       <use xlink:href="#DejaVuSans-30"/>
       <use xlink:href="#DejaVuSans-2e" transform="translate(63.623047 0)"/>
       <use xlink:href="#DejaVuSans-32" transform="translate(95.410156 0)"/>
       <use xlink:href="#DejaVuSans-35" transform="translate(159.033203 0)"/>
      </g>
     </g>
    </g>
    <g id="ytick_7">
     <g id="line2d_13">
      <g>
       <use xlink:href="#md630498d39" x="54.2" y="129.610032" style="stroke: #000000; stroke-width: 0.8"/>
      </g>
     </g>
     <g id="text_14">
      <!-- 0.30 -->
      <g transform="translate(24.934375 133.409251) scale(0.1 -0.1)">
       <defs>
        <path id="DejaVuSans-33" d="M 2597 2516 
Q 3050 2419 3304 2112 
Q 3559 1806 3559 1356 
Q 3559 666 3084 287 
Q 2609 -91 1734 -91 
Q 1441 -91 1130 -33 
Q 819 25 488 141 
L 488 750 
Q 750 597 1062 519 
Q 1375 441 1716 441 
Q 2309 441 2620 675 
Q 2931 909 2931 1356 
Q 2931 1769 2642 2001 
Q 2353 2234 1838 2234 
L 1294 2234 
L 1294 2753 
L 1863 2753 
Q 2328 2753 2575 2939 
Q 2822 3125 2822 3475 
Q 2822 3834 2567 4026 
Q 2313 4219 1838 4219 
Q 1578 4219 1281 4162 
Q 984 4106 628 3988 
L 628 4550 
Q 988 4650 1302 4700 
Q 1616 4750 1894 4750 
Q 2613 4750 3031 4423 
Q 3450 4097 3450 3541 
Q 3450 3153 3228 2886 
Q 3006 2619 2597 2516 
z
" transform="scale(0.015625)"/>
       </defs>
       <use xlink:href="#DejaVuSans-30"/>
       <use xlink:href="#DejaVuSans-2e" transform="translate(63.623047 0)"/>
       <use xlink:href="#DejaVuSans-33" transform="translate(95.410156 0)"/>
       <use xlink:href="#DejaVuSans-30" transform="translate(159.033203 0)"/>
      </g>
     </g>
    </g>
    <g id="ytick_8">
     <g id="line2d_14">
      <g>
       <use xlink:href="#md630498d39" x="54.2" y="88.878193" style="stroke: #000000; stroke-width: 0.8"/>
      </g>
     </g>
     <g id="text_15">
      <!-- 0.35 -->
      <g transform="translate(24.934375 92.677412) scale(0.1 -0.1)">
       <use xlink:href="#DejaVuSans-30"/>
       <use xlink:href="#DejaVuSans-2e" transform="translate(63.623047 0)"/>
       <use xlink:href="#DejaVuSans-33" transform="translate(95.410156 0)"/>
       <use xlink:href="#DejaVuSans-35" transform="translate(159.033203 0)"/>
      </g>
     </g>
    </g>
    <g id="ytick_9">
     <g id="line2d_15">
      <g>
       <use xlink:href="#md630498d39" x="54.2" y="48.146354" style="stroke: #000000; stroke-width: 0.8"/>
      </g>
     </g>
     <g id="text_16">
      <!-- 0.40 -->
      <g transform="translate(24.934375 51.945573) scale(0.1 -0.1)">
       <use xlink:href="#DejaVuSans-30"/>
       <use xlink:href="#DejaVuSans-2e" transform="translate(63.623047 0)"/>
       <use xlink:href="#DejaVuSans-34" transform="translate(95.410156 0)"/>
       <use xlink:href="#DejaVuSans-30" transform="translate(159.033203 0)"/>
      </g>
     </g>
    </g>
    <g id="text_17">
     <!-- Normalized (minmax) Episodic Return -->
     <g transform="translate(18.854688 302.376719) rotate(-90) scale(0.1 -0.1)">
      <defs>
       <path id="DejaVuSans-4e" d="M 628 4666 
L 1478 4666 
L 3547 763 
L 3547 4666 
L 4159 4666 
L 4159 0 
L 3309 0 
L 1241 3903 
L 1241 0 
L 628 0 
L 628 4666 
z
" transform="scale(0.015625)"/>
       <path id="DejaVuSans-6f" d="M 1959 3097 
Q 1497 3097 1228 2736 
Q 959 2375 959 1747 
Q 959 1119 1226 758 
Q 1494 397 1959 397 
Q 2419 397 2687 759 
Q 2956 1122 2956 1747 
Q 2956 2369 2687 2733 
Q 2419 3097 1959 3097 
z
M 1959 3584 
Q 2709 3584 3137 3096 
Q 3566 2609 3566 1747 
Q 3566 888 3137 398 
Q 2709 -91 1959 -91 
Q 1206 -91 779 398 
Q 353 888 353 1747 
Q 353 2609 779 3096 
Q 1206 3584 1959 3584 
z
" transform="scale(0.015625)"/>
       <path id="DejaVuSans-72" d="M 2631 2963 
Q 2534 3019 2420 3045 
Q 2306 3072 2169 3072 
Q 1681 3072 1420 2755 
Q 1159 2438 1159 1844 
L 1159 0 
L 581 0 
L 581 3500 
L 1159 3500 
L 1159 2956 
Q 1341 3275 1631 3429 
Q 1922 3584 2338 3584 
Q 2397 3584 2469 3576 
Q 2541 3569 2628 3553 
L 2631 2963 
z
" transform="scale(0.015625)"/>
       <path id="DejaVuSans-6d" d="M 3328 2828 
Q 3544 3216 3844 3400 
Q 4144 3584 4550 3584 
Q 5097 3584 5394 3201 
Q 5691 2819 5691 2113 
L 5691 0 
L 5113 0 
L 5113 2094 
Q 5113 2597 4934 2840 
Q 4756 3084 4391 3084 
Q 3944 3084 3684 2787 
Q 3425 2491 3425 1978 
L 3425 0 
L 2847 0 
L 2847 2094 
Q 2847 2600 2669 2842 
Q 2491 3084 2119 3084 
Q 1678 3084 1418 2786 
Q 1159 2488 1159 1978 
L 1159 0 
L 581 0 
L 581 3500 
L 1159 3500 
L 1159 2956 
Q 1356 3278 1631 3431 
Q 1906 3584 2284 3584 
Q 2666 3584 2933 3390 
Q 3200 3197 3328 2828 
z
" transform="scale(0.015625)"/>
       <path id="DejaVuSans-61" d="M 2194 1759 
Q 1497 1759 1228 1600 
Q 959 1441 959 1056 
Q 959 750 1161 570 
Q 1363 391 1709 391 
Q 2188 391 2477 730 
Q 2766 1069 2766 1631 
L 2766 1759 
L 2194 1759 
z
M 3341 1997 
L 3341 0 
L 2766 0 
L 2766 531 
Q 2569 213 2275 61 
Q 1981 -91 1556 -91 
Q 1019 -91 701 211 
Q 384 513 384 1019 
Q 384 1609 779 1909 
Q 1175 2209 1959 2209 
L 2766 2209 
L 2766 2266 
Q 2766 2663 2505 2880 
Q 2244 3097 1772 3097 
Q 1472 3097 1187 3025 
Q 903 2953 641 2809 
L 641 3341 
Q 956 3463 1253 3523 
Q 1550 3584 1831 3584 
Q 2591 3584 2966 3190 
Q 3341 2797 3341 1997 
z
" transform="scale(0.015625)"/>
       <path id="DejaVuSans-6c" d="M 603 4863 
L 1178 4863 
L 1178 0 
L 603 0 
L 603 4863 
z
" transform="scale(0.015625)"/>
       <path id="DejaVuSans-69" d="M 603 3500 
L 1178 3500 
L 1178 0 
L 603 0 
L 603 3500 
z
M 603 4863 
L 1178 4863 
L 1178 4134 
L 603 4134 
L 603 4863 
z
" transform="scale(0.015625)"/>
       <path id="DejaVuSans-7a" d="M 353 3500 
L 3084 3500 
L 3084 2975 
L 922 459 
L 3084 459 
L 3084 0 
L 275 0 
L 275 525 
L 2438 3041 
L 353 3041 
L 353 3500 
z
" transform="scale(0.015625)"/>
       <path id="DejaVuSans-64" d="M 2906 2969 
L 2906 4863 
L 3481 4863 
L 3481 0 
L 2906 0 
L 2906 525 
Q 2725 213 2448 61 
Q 2172 -91 1784 -91 
Q 1150 -91 751 415 
Q 353 922 353 1747 
Q 353 2572 751 3078 
Q 1150 3584 1784 3584 
Q 2172 3584 2448 3432 
Q 2725 3281 2906 2969 
z
M 947 1747 
Q 947 1113 1208 752 
Q 1469 391 1925 391 
Q 2381 391 2643 752 
Q 2906 1113 2906 1747 
Q 2906 2381 2643 2742 
Q 2381 3103 1925 3103 
Q 1469 3103 1208 2742 
Q 947 2381 947 1747 
z
" transform="scale(0.015625)"/>
       <path id="DejaVuSans-20" transform="scale(0.015625)"/>
       <path id="DejaVuSans-28" d="M 1984 4856 
Q 1566 4138 1362 3434 
Q 1159 2731 1159 2009 
Q 1159 1288 1364 580 
Q 1569 -128 1984 -844 
L 1484 -844 
Q 1016 -109 783 600 
Q 550 1309 550 2009 
Q 550 2706 781 3412 
Q 1013 4119 1484 4856 
L 1984 4856 
z
" transform="scale(0.015625)"/>
       <path id="DejaVuSans-6e" d="M 3513 2113 
L 3513 0 
L 2938 0 
L 2938 2094 
Q 2938 2591 2744 2837 
Q 2550 3084 2163 3084 
Q 1697 3084 1428 2787 
Q 1159 2491 1159 1978 
L 1159 0 
L 581 0 
L 581 3500 
L 1159 3500 
L 1159 2956 
Q 1366 3272 1645 3428 
Q 1925 3584 2291 3584 
Q 2894 3584 3203 3211 
Q 3513 2838 3513 2113 
z
" transform="scale(0.015625)"/>
       <path id="DejaVuSans-78" d="M 3513 3500 
L 2247 1797 
L 3578 0 
L 2900 0 
L 1881 1375 
L 863 0 
L 184 0 
L 1544 1831 
L 300 3500 
L 978 3500 
L 1906 2253 
L 2834 3500 
L 3513 3500 
z
" transform="scale(0.015625)"/>
       <path id="DejaVuSans-29" d="M 513 4856 
L 1013 4856 
Q 1481 4119 1714 3412 
Q 1947 2706 1947 2009 
Q 1947 1309 1714 600 
Q 1481 -109 1013 -844 
L 513 -844 
Q 928 -128 1133 580 
Q 1338 1288 1338 2009 
Q 1338 2731 1133 3434 
Q 928 4138 513 4856 
z
" transform="scale(0.015625)"/>
       <path id="DejaVuSans-45" d="M 628 4666 
L 3578 4666 
L 3578 4134 
L 1259 4134 
L 1259 2753 
L 3481 2753 
L 3481 2222 
L 1259 2222 
L 1259 531 
L 3634 531 
L 3634 0 
L 628 0 
L 628 4666 
z
" transform="scale(0.015625)"/>
       <path id="DejaVuSans-73" d="M 2834 3397 
L 2834 2853 
Q 2591 2978 2328 3040 
Q 2066 3103 1784 3103 
Q 1356 3103 1142 2972 
Q 928 2841 928 2578 
Q 928 2378 1081 2264 
Q 1234 2150 1697 2047 
L 1894 2003 
Q 2506 1872 2764 1633 
Q 3022 1394 3022 966 
Q 3022 478 2636 193 
Q 2250 -91 1575 -91 
Q 1294 -91 989 -36 
Q 684 19 347 128 
L 347 722 
Q 666 556 975 473 
Q 1284 391 1588 391 
Q 1994 391 2212 530 
Q 2431 669 2431 922 
Q 2431 1156 2273 1281 
Q 2116 1406 1581 1522 
L 1381 1569 
Q 847 1681 609 1914 
Q 372 2147 372 2553 
Q 372 3047 722 3315 
Q 1072 3584 1716 3584 
Q 2034 3584 2315 3537 
Q 2597 3491 2834 3397 
z
" transform="scale(0.015625)"/>
       <path id="DejaVuSans-63" d="M 3122 3366 
L 3122 2828 
Q 2878 2963 2633 3030 
Q 2388 3097 2138 3097 
Q 1578 3097 1268 2742 
Q 959 2388 959 1747 
Q 959 1106 1268 751 
Q 1578 397 2138 397 
Q 2388 397 2633 464 
Q 2878 531 3122 666 
L 3122 134 
Q 2881 22 2623 -34 
Q 2366 -91 2075 -91 
Q 1284 -91 818 406 
Q 353 903 353 1747 
Q 353 2603 823 3093 
Q 1294 3584 2113 3584 
Q 2378 3584 2631 3529 
Q 2884 3475 3122 3366 
z
" transform="scale(0.015625)"/>
       <path id="DejaVuSans-52" d="M 2841 2188 
Q 3044 2119 3236 1894 
Q 3428 1669 3622 1275 
L 4263 0 
L 3584 0 
L 2988 1197 
Q 2756 1666 2539 1819 
Q 2322 1972 1947 1972 
L 1259 1972 
L 1259 0 
L 628 0 
L 628 4666 
L 2053 4666 
Q 2853 4666 3247 4331 
Q 3641 3997 3641 3322 
Q 3641 2881 3436 2590 
Q 3231 2300 2841 2188 
z
M 1259 4147 
L 1259 2491 
L 2053 2491 
Q 2509 2491 2742 2702 
Q 2975 2913 2975 3322 
Q 2975 3731 2742 3939 
Q 2509 4147 2053 4147 
L 1259 4147 
z
" transform="scale(0.015625)"/>
       <path id="DejaVuSans-75" d="M 544 1381 
L 544 3500 
L 1119 3500 
L 1119 1403 
Q 1119 906 1312 657 
Q 1506 409 1894 409 
Q 2359 409 2629 706 
Q 2900 1003 2900 1516 
L 2900 3500 
L 3475 3500 
L 3475 0 
L 2900 0 
L 2900 538 
Q 2691 219 2414 64 
Q 2138 -91 1772 -91 
Q 1169 -91 856 284 
Q 544 659 544 1381 
z
M 1991 3584 
L 1991 3584 
z
" transform="scale(0.015625)"/>
      </defs>
      <use xlink:href="#DejaVuSans-4e"/>
      <use xlink:href="#DejaVuSans-6f" transform="translate(74.804688 0)"/>
      <use xlink:href="#DejaVuSans-72" transform="translate(135.986328 0)"/>
      <use xlink:href="#DejaVuSans-6d" transform="translate(175.349609 0)"/>
      <use xlink:href="#DejaVuSans-61" transform="translate(272.761719 0)"/>
      <use xlink:href="#DejaVuSans-6c" transform="translate(334.041016 0)"/>
      <use xlink:href="#DejaVuSans-69" transform="translate(361.824219 0)"/>
      <use xlink:href="#DejaVuSans-7a" transform="translate(389.607422 0)"/>
      <use xlink:href="#DejaVuSans-65" transform="translate(442.097656 0)"/>
      <use xlink:href="#DejaVuSans-64" transform="translate(503.621094 0)"/>
      <use xlink:href="#DejaVuSans-20" transform="translate(567.097656 0)"/>
      <use xlink:href="#DejaVuSans-28" transform="translate(598.884766 0)"/>
      <use xlink:href="#DejaVuSans-6d" transform="translate(637.898438 0)"/>
      <use xlink:href="#DejaVuSans-69" transform="translate(735.310547 0)"/>
      <use xlink:href="#DejaVuSans-6e" transform="translate(763.09375 0)"/>
      <use xlink:href="#DejaVuSans-6d" transform="translate(826.472656 0)"/>
      <use xlink:href="#DejaVuSans-61" transform="translate(923.884766 0)"/>
      <use xlink:href="#DejaVuSans-78" transform="translate(985.164062 0)"/>
      <use xlink:href="#DejaVuSans-29" transform="translate(1044.34375 0)"/>
      <use xlink:href="#DejaVuSans-20" transform="translate(1083.357422 0)"/>
      <use xlink:href="#DejaVuSans-45" transform="translate(1115.144531 0)"/>
      <use xlink:href="#DejaVuSans-70" transform="translate(1178.328125 0)"/>
      <use xlink:href="#DejaVuSans-69" transform="translate(1241.804688 0)"/>
      <use xlink:href="#DejaVuSans-73" transform="translate(1269.587891 0)"/>
      <use xlink:href="#DejaVuSans-6f" transform="translate(1321.6875 0)"/>
      <use xlink:href="#DejaVuSans-64" transform="translate(1382.869141 0)"/>
      <use xlink:href="#DejaVuSans-69" transform="translate(1446.345703 0)"/>
      <use xlink:href="#DejaVuSans-63" transform="translate(1474.128906 0)"/>
      <use xlink:href="#DejaVuSans-20" transform="translate(1529.109375 0)"/>
      <use xlink:href="#DejaVuSans-52" transform="translate(1560.896484 0)"/>
      <use xlink:href="#DejaVuSans-65" transform="translate(1625.878906 0)"/>
      <use xlink:href="#DejaVuSans-74" transform="translate(1687.402344 0)"/>
      <use xlink:href="#DejaVuSans-75" transform="translate(1726.611328 0)"/>
      <use xlink:href="#DejaVuSans-72" transform="translate(1789.990234 0)"/>
      <use xlink:href="#DejaVuSans-6e" transform="translate(1829.353516 0)"/>
     </g>
    </g>
   </g>
   <g id="line2d_16">
    <path d="M 104.783697 372.124023 
L 105.354173 372.124023 
L 105.92465 368.749225 
L 106.495126 371.993757 
L 107.065603 373.467273 
L 107.636079 366.643656 
L 108.206555 365.045038 
L 108.777032 350.951252 
L 109.347508 325.052141 
L 109.917985 354.934418 
L 110.488461 353.153118 
L 111.058937 352.6313 
L 112.19989 350.453978 
L 115.052272 344.461502 
L 115.622749 344.379918 
L 129.884659 365.647321 
L 130.455135 366.158991 
L 131.596088 366.774165 
L 132.737041 358.484452 
L 133.307517 358.224596 
L 133.877993 359.68991 
L 134.44847 354.886008 
L 135.018946 353.30702 
L 135.589423 342.383387 
L 136.159899 352.833917 
L 137.300852 355.586644 
L 137.871328 349.772843 
L 138.441805 348.317202 
L 140.153234 330.330535 
L 140.72371 330.326733 
L 141.864663 331.31776 
L 142.43514 332.002859 
L 145.857998 337.812344 
L 146.428474 338.428971 
L 151.562762 330.205221 
L 152.133238 330.742337 
L 156.126573 335.946751 
L 156.69705 338.718159 
L 157.267526 339.970452 
L 157.838002 340.28363 
L 158.408479 340.363718 
L 158.978955 341.323379 
L 159.549432 349.300281 
L 160.119908 348.921594 
L 160.690384 347.246403 
L 161.260861 348.954069 
L 161.831337 344.27254 
L 162.401814 341.147905 
L 162.97229 346.36023 
L 163.542766 340.910192 
L 164.113243 341.756828 
L 164.683719 350.80523 
L 166.395148 340.495067 
L 166.965625 336.868337 
L 167.536101 331.299864 
L 168.677054 317.705791 
L 169.24753 344.919584 
L 169.818007 344.895439 
L 174.952294 347.213935 
L 175.522771 347.344467 
L 180.086582 343.882093 
L 180.657058 342.760699 
L 183.50944 335.758084 
L 184.079917 333.688459 
L 185.22087 328.232187 
L 185.791346 326.665415 
L 186.361822 324.691069 
L 186.932299 324.603728 
L 187.502775 323.285308 
L 188.073252 316.104653 
L 188.643728 321.002045 
L 189.214204 320.192994 
L 189.784681 334.471865 
L 190.355157 338.921314 
L 190.925634 337.908462 
L 191.49611 329.14715 
L 192.066586 318.662054 
L 192.637063 304.193955 
L 193.778016 299.038447 
L 194.918968 295.118533 
L 195.489445 296.269174 
L 196.059921 293.464624 
L 198.341827 258.842549 
L 200.053256 244.363076 
L 203.476114 222.51706 
L 204.046591 220.262148 
L 206.898973 211.731458 
L 207.469449 218.791249 
L 208.610402 252.521592 
L 209.180878 256.619516 
L 213.174213 273.116654 
L 214.315166 282.125029 
L 214.885642 282.295277 
L 216.026595 275.403488 
L 216.597072 273.044639 
L 217.167548 271.439613 
L 217.738024 270.897637 
L 218.878977 276.938023 
L 219.449454 277.551559 
L 220.01993 277.032061 
L 220.590406 267.980012 
L 221.160883 254.35924 
L 221.731359 236.893378 
L 222.301836 234.32495 
L 222.872312 222.931885 
L 224.013265 226.222646 
L 225.724694 226.0718 
L 226.29517 226.176529 
L 226.865647 227.724539 
L 227.436123 228.619271 
L 228.0066 232.669915 
L 228.577076 239.321248 
L 229.147552 247.314749 
L 229.718029 250.113398 
L 235.422793 189.55817 
L 235.993269 187.879421 
L 237.704698 185.665613 
L 238.275175 190.741129 
L 238.845651 206.521653 
L 239.416128 226.63924 
L 239.986604 239.979988 
L 240.55708 242.041346 
L 241.127557 247.020521 
L 241.698033 259.126028 
L 242.26851 266.597074 
L 242.838986 268.579793 
L 243.979939 271.476092 
L 244.550415 269.80141 
L 245.120892 260.981807 
L 245.691368 258.681416 
L 246.832321 259.398349 
L 247.402797 257.764327 
L 247.973274 248.711281 
L 248.54375 249.789771 
L 251.396132 220.560822 
L 251.966609 212.568166 
L 252.537085 206.489966 
L 253.107561 230.819905 
L 253.678038 229.893646 
L 256.53042 219.031203 
L 257.671373 166.356023 
L 258.812325 165.480907 
L 259.382802 147.272547 
L 259.953278 143.146187 
L 260.523755 141.023269 
L 262.80566 174.443216 
L 263.376137 171.703672 
L 263.946613 170.681589 
L 264.517089 171.572428 
L 265.087566 172.017309 
L 265.658042 168.851578 
L 266.798995 166.210067 
L 268.510424 162.567082 
L 269.080901 159.65152 
L 269.651377 161.378014 
L 271.933283 210.242994 
L 273.644712 233.7619 
L 274.785665 290.917136 
L 275.356141 293.282382 
L 277.638047 262.969172 
L 278.208523 243.840088 
L 279.919952 209.65027 
L 281.060905 195.188764 
L 281.631381 195.466715 
L 282.772334 217.499067 
L 285.05424 259.014165 
L 285.624716 198.898251 
L 287.336145 217.937459 
L 287.906622 222.858793 
L 288.477098 224.874381 
L 289.047575 222.382526 
L 289.618051 210.612741 
L 290.188527 202.119079 
L 291.32948 214.696784 
L 291.899957 222.993984 
L 292.470433 237.10154 
L 293.040909 238.579063 
L 294.181862 220.797839 
L 294.752339 209.327653 
L 295.322815 205.925691 
L 295.893291 204.835659 
L 296.463768 214.65047 
L 297.604721 245.482367 
L 298.175197 251.48257 
L 298.745673 245.654662 
L 301.598055 198.832085 
L 302.168532 201.658991 
L 303.309485 241.310881 
L 303.879961 242.811731 
L 305.59139 226.005859 
L 306.161867 226.707802 
L 306.732343 231.537978 
L 307.302819 241.685842 
L 307.873296 247.228691 
L 308.443772 244.01618 
L 309.014249 245.398642 
L 311.296154 255.418277 
L 313.007583 269.444498 
L 313.57806 271.119024 
L 314.148536 268.720503 
L 314.719013 257.031878 
L 315.289489 174.088605 
L 315.859965 173.623527 
L 316.430442 178.24919 
L 317.000918 190.345087 
L 317.571395 184.354184 
L 318.141871 198.877282 
L 318.712347 232.974798 
L 320.994253 231.402603 
L 321.564729 250.603876 
L 322.135206 244.026979 
L 323.846635 220.26974 
L 324.417111 208.864759 
L 324.987588 194.605789 
L 325.558064 183.666968 
L 327.269493 163.262863 
L 329.551399 150.770837 
L 331.262828 130.788029 
L 332.403781 144.59121 
L 332.974257 180.935532 
L 333.544734 205.8118 
L 335.256163 236.599583 
L 335.826639 234.519325 
L 336.397116 221.756333 
L 336.967592 214.449912 
L 338.679021 217.901719 
L 339.249498 216.801385 
L 339.819974 272.024101 
L 340.390451 269.079917 
L 340.960927 258.346269 
L 343.242833 201.287568 
L 344.383785 176.774457 
L 344.954262 169.688652 
L 348.947597 223.825235 
L 349.518073 224.796975 
L 351.229502 214.060906 
L 351.799979 209.575374 
L 352.940931 199.016561 
L 353.511408 198.197256 
L 354.081884 199.20874 
L 355.222837 210.24991 
L 355.793313 213.533142 
L 356.934266 221.916107 
L 357.504743 224.186821 
L 358.645695 220.618847 
L 359.216172 218.270617 
L 360.927601 205.529099 
L 361.498078 209.317193 
L 362.63903 219.218077 
L 363.209507 222.249819 
L 363.779983 221.692553 
L 364.35046 226.430135 
L 365.491412 241.504306 
L 366.061889 266.252813 
L 366.632365 253.050749 
L 367.202842 233.590397 
L 367.773318 256.474404 
L 368.343794 250.911485 
L 368.914271 252.58825 
L 370.6257 262.971818 
L 371.196176 265.309001 
L 371.766653 263.91128 
L 375.189511 228.168292 
L 376.330464 217.852463 
L 378.61237 210.771489 
L 380.323799 202.577127 
L 381.464752 195.292891 
L 382.035228 194.097278 
L 382.605704 172.058057 
L 383.176181 160.931317 
L 383.746657 163.388365 
L 384.317134 159.100252 
L 384.88761 152.014176 
L 386.599039 159.923299 
L 387.169516 158.122173 
L 387.739992 159.541602 
L 388.310468 171.685669 
L 388.880945 179.672739 
L 389.451421 179.905192 
L 390.021898 180.67494 
L 394.585709 190.583468 
L 395.156185 186.702791 
L 395.726662 174.29058 
L 396.297138 196.609918 
L 396.867614 204.817862 
L 398.008567 209.754413 
L 398.579044 222.296008 
L 399.14952 227.227314 
L 400.290473 233.766831 
L 400.860949 225.982461 
L 402.001902 201.073319 
L 402.572378 192.563655 
L 404.283808 187.396772 
L 404.854284 189.969198 
L 406.565713 200.933959 
L 407.706666 187.744635 
L 409.418095 166.84767 
L 410.559048 127.026493 
L 411.129524 105.781363 
L 411.700001 113.832597 
L 412.270477 165.218915 
L 412.840954 198.685479 
L 413.41143 203.91032 
L 415.693336 208.702697 
L 416.263812 220.864421 
L 416.834288 235.959057 
L 417.404765 234.527414 
L 417.975241 231.14904 
L 418.545718 224.593854 
L 419.116194 220.525447 
L 419.68667 222.031527 
L 421.3981 235.367357 
L 421.968576 241.600565 
L 422.539052 231.488631 
L 424.250482 216.665761 
L 424.820958 214.744921 
L 425.391434 209.186502 
L 425.961911 212.523937 
L 426.532387 223.717832 
L 427.102864 224.179342 
L 427.67334 219.679331 
L 429.384769 202.901636 
L 431.096198 189.725257 
L 431.666675 186.582928 
L 433.378104 185.526928 
L 433.94858 185.639765 
L 434.519057 184.126961 
L 435.089533 252.611335 
L 436.230486 237.341164 
L 436.800962 236.514975 
L 442.505726 174.098822 
L 445.358108 146.285901 
L 445.928585 137.045871 
L 447.640014 42.012727 
L 448.21049 142.47899 
L 448.780967 142.753273 
L 449.351443 165.25516 
L 449.92192 165.274197 
L 451.062872 162.656893 
L 451.633349 162.957812 
L 452.203825 164.890346 
L 453.344778 154.210966 
L 454.485731 149.063446 
L 455.626684 161.699562 
L 456.767636 170.993377 
L 457.338113 163.291842 
L 457.908589 166.636741 
L 458.479066 172.191672 
L 462.4724 202.832274 
L 463.042877 158.376626 
L 464.18383 178.65365 
L 465.324782 192.41963 
L 467.036212 214.853551 
L 467.606688 213.032402 
L 468.747641 187.92074 
L 469.318117 182.014635 
L 469.888594 181.437418 
L 474.452405 178.468835 
L 475.022881 177.568671 
L 476.163834 172.115532 
L 476.734311 172.012585 
L 478.44574 174.949353 
L 479.016216 185.495956 
L 480.727645 235.967848 
L 481.298122 219.987389 
L 481.868598 218.088207 
L 483.580027 220.775554 
L 484.150504 220.731146 
L 484.72098 219.90848 
L 485.291457 213.02113 
L 485.861933 208.24789 
L 486.432409 213.104099 
L 487.002886 215.343137 
L 487.573362 209.484209 
L 488.143839 208.273844 
L 489.284791 171.366624 
L 490.996221 138.730023 
L 491.566697 150.091779 
L 492.70765 189.360297 
L 493.278126 198.649166 
L 494.419079 212.965373 
L 494.989555 216.302037 
L 497.271461 208.515175 
L 499.553367 199.79278 
L 502.405749 182.754587 
L 504.687654 168.091376 
L 505.828607 184.217579 
L 508.110513 164.392408 
L 508.680989 162.093015 
L 509.251465 163.257515 
L 509.821942 167.062744 
L 511.533371 184.949929 
L 512.103847 174.155514 
L 512.674324 173.526895 
L 514.385753 175.818963 
L 515.526706 192.816595 
L 516.097182 201.062669 
L 517.238135 208.576774 
L 517.808611 217.068516 
L 518.379088 210.739213 
L 518.949564 201.115116 
L 519.520041 195.422217 
L 520.090517 191.402934 
L 520.660993 188.192507 
L 521.23147 184.250866 
L 521.801946 201.645457 
L 522.942899 198.852854 
L 523.513375 196.272959 
L 526.936234 166.536412 
L 528.077187 156.562849 
L 528.647663 154.098667 
L 529.218139 158.381138 
L 530.929569 175.506269 
L 531.500045 181.337405 
L 532.070521 182.315592 
L 532.640998 182.542735 
L 534.922903 189.210182 
L 535.49338 191.47759 
L 536.634333 187.97462 
L 537.204809 193.80096 
L 539.486715 231.636918 
L 540.057191 167.889662 
L 542.339097 172.551431 
L 542.909573 179.833262 
L 544.050526 216.689391 
L 544.621002 216.885822 
L 545.191479 211.711596 
L 545.761955 202.967687 
L 546.902908 181.903359 
L 547.473384 180.817112 
L 548.043861 184.458469 
L 548.614337 190.817563 
L 549.75529 172.483013 
L 550.325766 165.83127 
L 551.466719 119.076275 
L 552.607672 155.836204 
L 553.178148 168.309333 
L 553.748625 167.949837 
L 554.889577 194.679254 
L 555.460054 194.932284 
L 557.741959 175.898161 
L 561.735294 138.160988 
L 562.305771 139.075414 
L 562.876247 149.117369 
L 565.158153 143.08778 
L 566.299105 134.252933 
L 566.869582 111.497696 
L 568.010535 80.079036 
L 568.581011 90.753115 
L 569.721964 160.046112 
L 570.862917 192.313922 
L 571.433393 191.196759 
L 572.003869 188.917343 
L 574.285775 216.345341 
L 574.856251 221.725381 
L 577.138157 224.73425 
L 577.708633 227.544549 
L 578.849586 221.564403 
L 579.420063 218.808021 
L 579.990539 217.905906 
L 580.561015 217.594302 
L 581.131492 149.310714 
L 581.701968 106.051329 
L 582.842921 122.862041 
L 583.413397 129.135143 
L 583.983874 157.466759 
L 584.55435 173.702004 
L 585.124827 177.543116 
L 585.695303 179.099473 
L 586.26578 173.391535 
L 586.836256 170.065657 
L 587.406732 177.394458 
L 588.547685 223.592761 
L 589.118162 223.654769 
L 589.688638 205.094012 
L 593.681973 185.111381 
L 597.104831 179.019958 
L 598.245784 175.402196 
L 598.81626 173.987176 
L 599.386737 177.240986 
L 599.957213 179.426421 
L 601.668642 190.142848 
L 602.239119 190.647267 
L 603.950548 190.691086 
L 604.521024 189.506413 
L 605.091501 185.684805 
L 605.661977 156.365672 
L 606.232454 150.567707 
L 606.80293 148.849367 
L 607.373406 149.886054 
L 607.943883 172.836603 
L 608.514359 172.581674 
L 609.655312 150.790417 
L 610.225788 143.340942 
L 611.366741 165.132143 
L 612.507694 201.092587 
L 613.07817 208.518532 
L 614.219123 170.360238 
L 614.7896 151.420359 
L 615.360076 158.386422 
L 615.930552 108.072015 
L 616.501029 114.409593 
L 617.071505 117.287685 
L 618.212458 109.275408 
L 618.782934 108.935125 
L 619.923887 124.231269 
L 620.494364 124.927203 
L 622.205793 121.73451 
L 622.776269 120.078083 
L 623.346746 118.993271 
L 625.628651 125.504305 
L 626.199128 126.468836 
L 626.769604 126.068583 
L 627.34008 130.0292 
L 629.05151 146.101038 
L 629.621986 148.132865 
L 631.333415 147.881145 
L 631.903892 149.293074 
L 633.615321 155.54144 
L 634.185797 149.105238 
L 634.756274 133.105322 
L 635.32675 130.122204 
L 636.467703 130.940629 
L 637.038179 169.697992 
L 638.749608 167.729349 
L 639.320085 169.148896 
L 641.60199 199.144247 
L 642.172467 204.33964 
L 642.742943 198.610229 
L 643.31342 180.729022 
L 643.883896 192.413558 
L 644.454372 191.2146 
L 645.024849 201.179639 
L 646.165802 201.021416 
L 647.306754 206.48243 
L 647.877231 208.835402 
L 650.159136 223.769681 
L 650.729613 222.900905 
L 651.300089 221.286502 
L 653.011518 218.312058 
L 653.581995 214.380497 
L 654.722948 203.521071 
L 655.293424 205.791936 
L 656.434377 213.882028 
L 657.004853 186.160532 
L 657.57533 186.37809 
L 658.145806 181.792387 
L 658.716282 174.252706 
L 659.286759 168.531321 
L 659.857235 168.879815 
L 661.568664 168.964307 
L 662.139141 168.700836 
L 665.561999 158.151067 
L 670.12581 92.02228 
L 670.696287 101.612205 
L 671.266763 106.713168 
L 671.83724 117.060038 
L 672.978192 146.382065 
L 673.548669 159.368048 
L 674.119145 163.173154 
L 674.689622 160.956655 
L 674.689622 160.956655 
" clip-path="url(#pedd377a9b3)" style="fill: none; stroke: #00008b; stroke-width: 1.5; stroke-linecap: square"/>
   </g>
   <g id="line2d_17">
    <path d="M 83.972727 373.062545 
L 84.568778 372.818985 
L 86.95298 370.189505 
L 88.741132 365.995559 
L 90.529284 362.49076 
L 91.125334 362.70946 
L 93.509537 362.549433 
L 94.105587 361.944419 
L 94.701638 362.118551 
L 97.681891 363.87557 
L 98.873992 362.254738 
L 99.470043 362.511899 
L 100.662144 363.731792 
L 101.258195 364.432609 
L 101.854245 365.418019 
L 102.450296 366.054866 
L 104.238448 365.981845 
L 104.834498 366.66367 
L 105.430549 367.69987 
L 106.62265 368.749452 
L 107.218701 368.581753 
L 107.814751 367.288685 
L 108.410802 364.675843 
L 109.602903 361.351017 
L 110.198953 359.789174 
L 110.795004 358.965565 
L 111.391055 359.302187 
L 111.987105 361.257002 
L 114.371308 362.592531 
L 114.967358 361.586666 
L 115.563409 359.678617 
L 116.159459 360.183652 
L 117.947611 362.352587 
L 119.139712 366.662715 
L 120.927864 371.965544 
L 121.523915 372.789118 
L 122.119965 372.723775 
L 123.312067 371.999331 
L 123.908117 371.465287 
L 124.504168 370.148972 
L 126.88837 367.446541 
L 127.484421 367.664374 
L 128.080471 368.901485 
L 128.676522 369.617899 
L 129.868623 370.251114 
L 130.464674 370.290897 
L 131.060724 369.916672 
L 131.656775 368.86898 
L 134.040977 369.498374 
L 134.637028 369.137756 
L 135.233079 368.442324 
L 137.617281 362.063668 
L 138.213332 362.227362 
L 138.809382 363.269059 
L 140.597534 368.11526 
L 141.193584 368.933571 
L 141.789635 369.223633 
L 142.981736 368.763703 
L 144.173837 368.756364 
L 145.961989 369.270035 
L 147.15409 369.271753 
L 147.750141 369.444477 
L 150.730394 368.945027 
L 151.326445 367.768401 
L 153.710647 368.235151 
L 154.306698 369.742835 
L 154.902748 370.403801 
L 155.498799 370.640148 
L 156.094849 367.003625 
L 159.075102 321.662515 
L 159.671153 320.608269 
L 161.459305 350.764568 
L 162.651406 368.23696 
L 163.247457 367.438596 
L 163.843507 367.361855 
L 164.439558 368.027518 
L 165.035608 368.497235 
L 165.631659 368.641085 
L 166.22771 369.111813 
L 166.82376 369.783687 
L 167.419811 369.405475 
L 168.015861 368.648854 
L 169.207963 369.041242 
L 170.400064 368.904968 
L 170.996114 369.729118 
L 171.592165 369.620363 
L 172.188215 369.260548 
L 173.380317 368.153546 
L 173.976367 367.11285 
L 174.572418 365.563801 
L 175.168468 365.715064 
L 176.36057 366.6473 
L 176.95662 367.391855 
L 178.148721 371.118204 
L 178.744772 371.899853 
L 179.936873 372.655915 
L 180.532924 372.134766 
L 181.128974 371.465295 
L 181.725025 370.615463 
L 182.917126 369.507393 
L 183.513177 369.103711 
L 184.109227 368.920754 
L 184.705278 369.038851 
L 185.301329 369.423251 
L 185.897379 370.434636 
L 186.49343 370.99256 
L 187.08948 369.276003 
L 187.685531 367.021865 
L 188.877632 360.818307 
L 189.473683 357.265162 
L 190.069733 354.840575 
L 190.665784 356.278074 
L 193.049986 368.875977 
L 193.646037 370.147798 
L 194.242088 370.867611 
L 196.62629 372.234676 
L 199.606543 369.695172 
L 200.202594 369.468331 
L 202.586796 372.323806 
L 203.182846 372.658609 
L 204.374948 369.158668 
L 204.970998 366.70948 
L 206.75915 357.823293 
L 207.951251 354.351521 
L 208.547302 353.95096 
L 210.335454 357.590588 
L 210.931504 359.429925 
L 211.527555 362.585001 
L 213.911757 368.070842 
L 214.507808 368.536237 
L 216.29596 371.61273 
L 216.89201 371.982158 
L 217.488061 371.813956 
L 218.084111 370.887176 
L 219.872263 366.669071 
L 220.468314 365.873272 
L 221.064364 365.387442 
L 221.660415 365.899908 
L 223.448567 368.584829 
L 224.044617 368.363576 
L 224.640668 368.004235 
L 226.42882 367.574043 
L 227.02487 367.982759 
L 227.620921 369.06714 
L 228.813022 368.731723 
L 230.005123 368.2959 
L 230.601174 367.688023 
L 231.793275 367.454862 
L 232.985376 367.298806 
L 233.581427 367.025881 
L 234.177477 366.127817 
L 235.369579 365.138167 
L 236.56168 364.475991 
L 237.753781 362.744465 
L 238.349832 361.951576 
L 240.734034 350.433169 
L 241.926135 348.470681 
L 244.906388 363.731668 
L 246.69454 358.106136 
L 247.886641 354.263918 
L 248.482692 354.830475 
L 249.674793 361.868987 
L 250.270844 364.636295 
L 250.866894 366.703196 
L 251.462945 367.737439 
L 252.058995 366.586514 
L 252.655046 364.996771 
L 253.847147 363.5007 
L 254.443198 362.973437 
L 255.039248 363.949185 
L 256.23135 366.625758 
L 257.423451 370.760288 
L 258.019501 371.572918 
L 259.211603 368.845217 
L 259.807653 366.718011 
L 260.999754 361.191021 
L 261.595805 359.490846 
L 262.191855 360.723191 
L 262.787906 362.413379 
L 264.576058 370.520269 
L 265.172108 371.160043 
L 266.36421 371.697285 
L 266.96026 371.045841 
L 268.152361 369.211539 
L 269.344463 368.182462 
L 269.940513 368.057758 
L 272.324716 371.342156 
L 272.920766 372.030696 
L 274.112867 371.970265 
L 275.901019 371.894485 
L 276.49707 371.910142 
L 277.09312 372.2493 
L 280.073373 372.171602 
L 280.669424 372.334772 
L 281.265475 372.322963 
L 283.053626 371.567988 
L 283.649677 371.066145 
L 285.437829 369.0498 
L 286.62993 368.499495 
L 287.225981 368.399634 
L 288.418082 369.261699 
L 290.206234 371.834619 
L 291.398335 372.926612 
L 291.994385 372.927423 
L 293.186486 372.55997 
L 293.782537 371.944489 
L 296.76279 367.599453 
L 298.550942 368.631899 
L 299.146992 368.844437 
L 299.743043 369.371564 
L 300.339094 368.872981 
L 300.935144 368.05066 
L 302.723296 364.276508 
L 303.319347 362.925028 
L 304.511448 361.144466 
L 305.107498 359.444802 
L 305.703549 360.393617 
L 306.89565 362.695473 
L 308.087751 364.226095 
L 308.683802 364.33612 
L 309.875903 364.06719 
L 310.471954 364.660892 
L 311.664055 367.045879 
L 312.260106 367.366481 
L 313.452207 367.339519 
L 314.644308 366.009373 
L 315.240359 365.712963 
L 317.02851 367.255814 
L 318.220612 368.658302 
L 318.816662 367.945543 
L 321.200865 364.558403 
L 321.796915 363.826587 
L 322.392966 364.947813 
L 323.585067 368.034231 
L 324.181117 369.012699 
L 324.777168 368.289436 
L 325.373219 366.649553 
L 327.16137 356.955528 
L 327.757421 355.02364 
L 328.353472 355.57048 
L 328.949522 358.052854 
L 330.737674 367.70442 
L 331.333725 367.765711 
L 331.929775 367.47183 
L 333.717927 365.583774 
L 334.313978 365.773968 
L 334.910028 367.462267 
L 335.506079 366.829771 
L 337.294231 363.44775 
L 337.890281 361.263954 
L 338.486332 360.233104 
L 340.274484 359.751752 
L 340.870534 359.412277 
L 341.466585 358.915119 
L 342.062635 359.689532 
L 343.850787 362.815883 
L 344.446838 362.998196 
L 345.042888 362.62884 
L 347.427091 357.824716 
L 348.023141 359.020993 
L 350.407344 361.592794 
L 351.003394 360.195872 
L 352.195495 355.642155 
L 353.387597 351.489281 
L 353.983647 351.028486 
L 354.579698 351.024974 
L 355.175748 353.522464 
L 356.36785 355.857817 
L 356.9639 356.783435 
L 357.559951 357.300892 
L 358.156001 357.093676 
L 358.752052 357.419989 
L 359.944153 359.435758 
L 361.136254 359.423042 
L 361.732305 359.108264 
L 362.328356 359.487634 
L 363.520457 359.777157 
L 364.712558 360.463177 
L 365.308609 361.177081 
L 365.904659 361.269748 
L 367.692811 363.92737 
L 368.288862 364.360125 
L 368.884912 364.058297 
L 369.480963 363.592492 
L 370.077013 362.618239 
L 370.673064 361.354192 
L 371.269115 361.792229 
L 372.461216 364.126432 
L 373.057266 365.415126 
L 373.653317 367.181777 
L 374.249368 368.36633 
L 375.441469 366.430336 
L 376.037519 365.615851 
L 376.63357 364.181624 
L 377.229621 362.426482 
L 377.825671 361.275929 
L 378.421722 360.661256 
L 379.017772 360.498787 
L 379.613823 361.794337 
L 381.401975 367.297781 
L 381.998025 368.791399 
L 382.594076 368.906774 
L 383.190126 367.936473 
L 383.786177 367.578453 
L 384.382228 366.992102 
L 385.574329 362.274207 
L 386.170379 360.938615 
L 386.76643 358.310861 
L 387.362481 355.120791 
L 387.958531 352.931857 
L 388.554582 353.341129 
L 389.150632 352.853143 
L 389.746683 353.639115 
L 391.534835 361.463074 
L 392.130885 363.64988 
L 392.726936 366.440108 
L 393.322987 367.655496 
L 393.919037 367.917049 
L 394.515088 368.046218 
L 395.111138 367.08827 
L 397.495341 358.632712 
L 398.091391 357.494149 
L 398.687442 357.012186 
L 400.475594 358.580973 
L 401.071644 358.354793 
L 402.263746 356.462483 
L 403.455847 352.47068 
L 404.051897 353.096516 
L 405.840049 362.372271 
L 406.4361 366.471445 
L 407.03215 367.613952 
L 408.820302 360.275395 
L 409.416353 357.303204 
L 410.012403 355.405344 
L 410.608454 355.786071 
L 412.396606 361.43899 
L 412.992656 363.868871 
L 414.780808 365.833433 
L 416.56896 367.124814 
L 420.145263 363.835953 
L 420.741314 364.249895 
L 423.125516 368.689668 
L 423.721567 370.387382 
L 425.509719 372.961238 
L 426.105769 373.252429 
L 426.70182 372.602306 
L 427.893921 370.123196 
L 429.086022 367.483446 
L 430.278124 366.755524 
L 432.662326 368.918781 
L 433.258377 369.306814 
L 434.450478 366.966106 
L 435.642579 364.454899 
L 436.23863 362.863725 
L 436.83468 360.647333 
L 437.430731 360.286281 
L 439.218883 359.863712 
L 439.814933 361.058969 
L 441.603085 367.778418 
L 442.795186 371.885408 
L 443.391237 371.152279 
L 444.583338 367.32121 
L 446.37149 361.616028 
L 446.96754 361.859504 
L 449.351743 361.415864 
L 449.947793 359.660287 
L 450.543844 359.263221 
L 452.331996 365.418193 
L 452.928046 368.309167 
L 453.524097 369.418907 
L 454.120147 369.273921 
L 455.312249 368.028896 
L 455.908299 366.957559 
L 456.50435 365.020041 
L 457.1004 363.837048 
L 458.888552 363.411407 
L 459.484603 364.071264 
L 460.676704 366.284044 
L 462.464856 371.171808 
L 463.060906 371.404439 
L 463.656957 371.265553 
L 464.253008 369.698544 
L 465.445109 365.871185 
L 466.041159 364.634406 
L 467.233261 362.968042 
L 468.425362 363.90065 
L 469.617463 364.12115 
L 470.213514 364.030825 
L 470.809564 364.063373 
L 472.597716 366.555678 
L 473.789817 367.929141 
L 474.385868 368.39881 
L 474.981918 368.362921 
L 475.577969 367.529376 
L 477.962171 363.285927 
L 478.558222 363.331964 
L 479.154272 364.531353 
L 480.346374 365.337074 
L 481.538475 365.978665 
L 482.134525 365.178083 
L 482.730576 364.789781 
L 484.518728 365.883132 
L 485.114778 366.045046 
L 488.095031 361.906261 
L 488.691082 360.786508 
L 489.287133 359.930243 
L 491.671335 355.641357 
L 492.267386 356.604938 
L 495.247639 367.52447 
L 495.843689 366.997236 
L 501.804195 364.035245 
L 502.400246 364.069766 
L 505.380499 371.627765 
L 505.976549 371.833578 
L 508.956802 370.195945 
L 511.937055 372.772887 
L 512.533106 372.543266 
L 515.513359 361.442962 
L 516.109409 360.579165 
L 518.493612 365.519674 
L 519.089662 366.492893 
L 520.281764 367.824083 
L 522.069915 370.037974 
L 522.665966 369.609278 
L 523.858067 367.087239 
L 525.050168 364.808917 
L 525.646219 364.142916 
L 526.24227 364.619104 
L 528.030421 368.851384 
L 528.626472 369.724492 
L 529.222523 370.091036 
L 529.818573 369.633636 
L 530.414624 369.324576 
L 531.010674 369.145858 
L 531.606725 369.15164 
L 532.202776 369.329033 
L 532.798826 369.328734 
L 533.394877 369.013068 
L 536.97118 362.727153 
L 538.759332 361.838711 
L 539.355383 361.834262 
L 540.547484 364.161946 
L 541.739585 366.98081 
L 542.335636 368.855935 
L 542.931686 369.891825 
L 543.527737 370.234649 
L 544.123787 370.379651 
L 544.719838 369.840729 
L 545.911939 367.029815 
L 548.892192 329.350491 
L 550.084293 315.035053 
L 553.064546 355.486409 
L 553.660597 361.561356 
L 554.256648 359.634214 
L 554.852698 359.259935 
L 556.64085 360.151445 
L 557.236901 360.792299 
L 559.025052 364.26429 
L 560.217154 366.307697 
L 560.813204 367.079632 
L 561.409255 367.016123 
L 564.389508 368.998683 
L 564.985558 367.342844 
L 567.369761 358.654189 
L 567.965811 355.739912 
L 570.350014 350.196915 
L 570.946064 349.591943 
L 571.542115 349.351989 
L 572.138165 352.077736 
L 573.926317 363.628471 
L 574.522368 366.43265 
L 575.118418 367.587684 
L 575.714469 367.335302 
L 577.502621 364.891053 
L 578.098671 365.302731 
L 578.694722 366.06159 
L 579.290773 365.577927 
L 581.078924 361.917982 
L 582.867076 358.217811 
L 583.463127 357.849942 
L 586.44338 369.309055 
L 587.03943 369.639124 
L 587.635481 368.097375 
L 588.827582 362.596131 
L 590.615734 354.220057 
L 591.211785 356.316642 
L 593.595987 368.441796 
L 594.192037 368.557548 
L 594.788088 367.40756 
L 597.768341 359.608758 
L 598.364392 359.324589 
L 600.748594 359.63845 
L 601.344645 361.122581 
L 604.324898 370.948521 
L 604.920948 369.917257 
L 607.901201 363.691532 
L 610.881454 370.218315 
L 611.477505 370.022279 
L 613.861707 368.670777 
L 614.457758 368.168496 
L 616.24591 368.073996 
L 617.438011 368.045372 
L 618.034061 368.211924 
L 620.418264 366.368193 
L 621.014314 365.610386 
L 623.994567 358.734863 
L 624.590618 358.915207 
L 627.570871 369.181204 
L 628.166921 367.913295 
L 630.551124 357.530699 
L 631.147174 355.522282 
L 632.935326 361.816458 
L 634.127427 366.276308 
L 634.723478 367.744119 
L 637.10768 369.564151 
L 637.703731 369.862518 
L 638.299782 369.0196 
L 640.087933 362.256007 
L 641.280035 356.831967 
L 641.876085 356.369227 
L 643.068186 359.663629 
L 643.664237 361.777791 
L 644.856338 366.943357 
L 646.048439 368.817057 
L 646.64449 369.674493 
L 647.836591 370.366773 
L 648.432642 369.956395 
L 651.412895 369.662689 
L 652.008945 369.32888 
L 652.604996 369.694124 
L 653.201047 369.706493 
L 654.989198 367.243985 
L 656.181299 364.023787 
L 656.77735 363.323913 
L 658.565502 363.422695 
L 659.757603 363.724519 
L 661.545755 364.669777 
L 662.141805 365.867945 
L 663.333907 369.609162 
L 664.526008 371.021767 
L 665.122058 371.147693 
L 666.91021 362.736909 
L 668.102311 358.579395 
L 668.698362 355.391118 
L 669.294413 355.408729 
L 669.890463 355.177916 
L 671.678615 351.262558 
L 672.274666 353.373954 
L 672.870716 354.01703 
L 674.658868 357.225879 
L 675.254919 356.728172 
L 675.850969 357.748933 
L 678.235172 364.890331 
L 678.831222 365.473787 
L 679.427273 365.554372 
L 679.427273 365.554372 
" clip-path="url(#pedd377a9b3)" style="fill: none; stroke: #ff8c00; stroke-width: 1.5; stroke-linecap: square"/>
   </g>
   <g id="line2d_18">
    <path d="M 84.158166 373.062545 
L 87.726278 361.672217 
L 90.699705 359.880717 
L 91.29439 359.890185 
L 93.673131 361.360526 
L 94.267817 361.345495 
L 94.862502 360.280197 
L 97.241244 360.305377 
L 97.835929 361.286292 
L 100.809356 372.083675 
L 101.404041 373.048749 
L 103.782783 370.282485 
L 104.972153 362.34053 
L 107.350895 350.128991 
L 107.94558 351.690693 
L 109.134951 357.142856 
L 110.919007 364.686219 
L 111.513692 364.557523 
L 113.892434 364.56581 
L 114.487119 364.442051 
L 117.460546 356.566662 
L 118.055231 356.046451 
L 119.244602 358.323512 
L 121.623343 362.675638 
L 124.59677 371.014965 
L 125.191456 370.966066 
L 127.570197 368.893472 
L 128.164882 368.07763 
L 131.138309 365.666612 
L 131.732995 365.860771 
L 134.706421 368.227554 
L 135.301107 368.284979 
L 137.679848 367.338136 
L 138.274534 366.61497 
L 138.869219 364.863988 
L 141.842646 358.457007 
L 142.437331 357.735126 
L 144.816073 354.109435 
L 145.410758 353.823736 
L 146.005443 354.399429 
L 148.384185 359.736128 
L 148.97887 360.458162 
L 149.573555 361.864955 
L 151.952297 362.429128 
L 152.546982 363.027504 
L 153.141668 364.390441 
L 154.925724 370.423284 
L 155.520409 371.295874 
L 156.115094 371.361881 
L 156.70978 370.917394 
L 158.493836 369.047536 
L 161.467263 372.595808 
L 162.061948 372.971784 
L 163.251319 371.598978 
L 165.63006 368.325029 
L 166.224746 367.839435 
L 168.008802 365.881457 
L 169.198172 364.140383 
L 169.792858 364.094521 
L 171.576914 364.607921 
L 172.171599 364.895419 
L 172.766285 364.63642 
L 173.955655 360.980005 
L 175.145026 357.264436 
L 175.739711 356.712888 
L 176.334397 353.202347 
L 178.713138 332.545691 
L 179.307823 326.371188 
L 179.902509 323.843054 
L 182.875936 353.745368 
L 183.470621 357.075828 
L 184.065306 353.520963 
L 185.254677 353.529054 
L 186.444048 356.531444 
L 187.038733 358.686384 
L 187.633419 361.575339 
L 188.228104 355.816969 
L 188.822789 348.088608 
L 191.201531 298.297348 
L 191.796216 293.956228 
L 193.580272 305.169198 
L 194.174958 316.46736 
L 194.769643 330.403471 
L 195.364328 338.592559 
L 197.148384 356.998443 
L 197.74307 357.050539 
L 198.337755 357.794191 
L 198.93244 356.59837 
L 200.716497 358.410269 
L 201.311182 360.287359 
L 201.905867 361.175279 
L 202.500553 358.973395 
L 204.284609 344.126884 
L 205.473979 327.534351 
L 206.068665 321.400857 
L 206.66335 319.319583 
L 207.852721 322.763813 
L 208.447406 327.265018 
L 210.231462 350.887748 
L 211.420833 362.021233 
L 212.015518 364.881819 
L 212.610204 366.315923 
L 213.204889 366.924285 
L 213.799574 366.13434 
L 214.988945 364.044715 
L 215.583631 363.233703 
L 216.178316 362.691918 
L 217.367687 359.653619 
L 219.151743 356.517256 
L 219.746428 356.959907 
L 220.341113 358.928249 
L 220.935799 359.117734 
L 222.719855 357.451671 
L 223.31454 355.06592 
L 223.909226 349.764096 
L 224.503911 348.064174 
L 225.693282 347.884013 
L 226.287967 347.83454 
L 227.477338 350.793311 
L 228.072023 351.440364 
L 229.856079 360.926033 
L 231.04545 364.763627 
L 231.640135 366.027076 
L 234.613562 363.776771 
L 235.208247 363.35222 
L 236.992304 360.893188 
L 237.586989 360.857222 
L 238.181674 361.406374 
L 238.77636 360.628239 
L 239.96573 358.65059 
L 240.560416 352.322775 
L 241.749786 330.081472 
L 242.939157 316.27376 
L 243.533843 314.922501 
L 244.723213 336.156229 
L 245.317899 344.029737 
L 246.507269 355.54728 
L 247.101955 359.940893 
L 248.291325 354.152579 
L 248.886011 352.39296 
L 250.670067 346.043356 
L 252.454123 342.151837 
L 253.048808 340.553909 
L 253.643494 340.168801 
L 254.238179 339.97111 
L 255.42755 338.731281 
L 256.022235 338.630374 
L 257.211606 341.924684 
L 257.806291 345.34481 
L 259.590347 359.389141 
L 260.185033 361.721754 
L 260.779718 362.735558 
L 261.374403 362.079581 
L 263.753145 349.773958 
L 264.34783 347.205998 
L 264.942516 348.794411 
L 265.537201 347.669822 
L 267.321257 342.728807 
L 267.915942 340.839847 
L 268.510628 336.25394 
L 269.105313 333.039494 
L 269.699998 331.18192 
L 270.294684 335.429339 
L 271.484055 346.078984 
L 272.673425 358.050536 
L 273.268111 363.063524 
L 273.862796 365.249181 
L 275.052167 366.492893 
L 275.646852 366.492893 
L 276.836223 366.21354 
L 277.430908 365.594162 
L 278.620279 363.783861 
L 280.404335 360.000938 
L 280.99902 359.237418 
L 281.593706 359.422551 
L 282.188391 359.304547 
L 283.377762 360.781258 
L 283.972447 361.579522 
L 284.567132 362.160388 
L 285.161818 362.177223 
L 285.756503 363.091826 
L 286.945874 364.143344 
L 288.72993 365.553545 
L 289.324615 365.40638 
L 289.919301 364.647853 
L 290.513986 363.294529 
L 291.108671 361.584467 
L 291.703357 359.179133 
L 292.892728 352.715696 
L 294.082098 348.676699 
L 295.271469 344.990343 
L 295.866154 344.788794 
L 297.055525 345.562743 
L 297.65021 346.282769 
L 299.434267 350.443047 
L 300.028952 351.417625 
L 300.623637 351.725744 
L 301.218323 351.780379 
L 302.407693 353.813316 
L 303.002379 354.332642 
L 303.597064 354.331219 
L 304.786435 356.089194 
L 306.570491 354.575714 
L 307.165176 355.401756 
L 307.759862 355.749585 
L 308.354547 355.780886 
L 308.949232 357.043146 
L 310.733288 361.456078 
L 311.327974 362.15358 
L 311.922659 362.618782 
L 313.706715 362.148 
L 314.301401 358.107893 
L 316.680142 326.162845 
L 317.274827 317.813703 
L 317.869513 313.504205 
L 319.058883 326.189449 
L 321.437625 352.158014 
L 322.03231 351.506031 
L 323.221681 354.150114 
L 324.411052 357.204793 
L 325.005737 358.342139 
L 326.195108 361.170782 
L 326.789793 361.898471 
L 327.979164 362.45192 
L 328.573849 363.75058 
L 329.168535 364.639144 
L 330.357905 363.853841 
L 331.547276 363.595735 
L 332.736647 362.594879 
L 333.926017 359.528084 
L 335.115388 357.815125 
L 336.304759 354.804843 
L 337.49413 349.960153 
L 338.6835 342.10553 
L 340.467556 334.375303 
L 341.062242 331.881661 
L 341.656927 330.476904 
L 342.251613 330.874467 
L 342.846298 334.194513 
L 345.225039 351.461159 
L 345.819725 353.692843 
L 347.009095 356.666338 
L 348.198466 358.967283 
L 348.793152 360.751148 
L 349.387837 363.122241 
L 349.982522 364.564828 
L 350.577208 365.170754 
L 351.171893 365.394496 
L 351.766578 365.378295 
L 352.361264 364.321067 
L 353.550634 356.782431 
L 354.740005 349.219188 
L 356.524061 340.244459 
L 357.118747 340.634767 
L 360.092173 362.955439 
L 360.686859 364.443961 
L 361.281544 364.27977 
L 361.876229 363.965424 
L 363.660286 362.096258 
L 364.254971 361.875989 
L 367.228398 367.295312 
L 367.823083 367.439131 
L 371.391195 358.110666 
L 373.175251 355.85661 
L 374.959307 353.677453 
L 376.148678 346.268109 
L 379.122105 346.078256 
L 379.71679 348.312326 
L 382.690217 365.725443 
L 383.284903 367.404447 
L 386.258329 368.150273 
L 386.853015 367.86796 
L 389.826441 364.07139 
L 390.421127 364.024 
L 393.394554 367.127919 
L 393.989239 366.98696 
L 397.557351 349.393679 
L 398.152037 349.319443 
L 398.746722 350.989411 
L 401.125463 364.91779 
L 401.720149 358.365574 
L 402.909519 339.022159 
L 404.693576 308.560819 
L 405.288261 313.486498 
L 406.477632 333.754234 
L 408.261688 366.010467 
L 408.856373 368.709754 
L 409.451058 367.859451 
L 411.8298 362.958642 
L 412.424485 363.019793 
L 413.019171 362.345316 
L 413.613856 361.987626 
L 415.397912 361.884065 
L 415.992597 360.596434 
L 417.181968 357.127623 
L 418.966024 350.546578 
L 419.56071 349.144345 
L 420.75008 346.920649 
L 421.344766 347.994807 
L 423.128822 354.396929 
L 423.723507 355.769981 
L 424.318192 356.805394 
L 424.912878 357.339582 
L 426.102249 354.925622 
L 426.696934 354.162379 
L 427.291619 354.432213 
L 427.886305 355.227226 
L 428.48099 355.63872 
L 429.075675 355.502571 
L 430.265046 359.044713 
L 430.859731 359.874137 
L 431.454417 360.503762 
L 432.049102 360.584614 
L 432.643788 358.886012 
L 435.022529 345.361352 
L 437.40127 331.386109 
L 437.995956 329.503743 
L 439.780012 328.498943 
L 440.969383 337.553676 
L 441.564068 336.608247 
L 443.942809 327.035903 
L 444.537495 314.04797 
L 445.13218 310.12732 
L 446.916236 304.458944 
L 447.510922 302.524332 
L 448.105607 301.160079 
L 448.700292 315.036528 
L 449.889663 330.919143 
L 451.673719 357.891593 
L 452.268404 359.395293 
L 453.457775 363.085683 
L 455.241831 367.276324 
L 455.836517 368.149179 
L 456.431202 368.395227 
L 457.025887 366.93656 
L 459.404629 355.702113 
L 459.999314 346.643789 
L 461.188685 322.88641 
L 462.378056 307.983521 
L 462.972741 301.686489 
L 463.567426 300.499646 
L 466.540853 319.16304 
L 467.135538 321.293851 
L 468.324909 323.381961 
L 468.919595 328.034504 
L 470.703651 345.903827 
L 471.893021 360.064978 
L 472.487707 364.104475 
L 473.082392 365.289367 
L 473.677077 366.96096 
L 474.271763 368.245501 
L 474.866448 369.246816 
L 476.650504 368.133602 
L 479.029246 363.703522 
L 479.623931 362.312182 
L 482.002673 348.479143 
L 482.597358 345.035346 
L 483.192043 340.165547 
L 484.976099 320.34194 
L 486.760155 311.776792 
L 487.354841 309.220636 
L 488.544212 319.570681 
L 490.328268 337.382805 
L 490.922953 344.605536 
L 492.112324 353.803441 
L 493.89638 365.720854 
L 494.491065 367.369746 
L 495.680436 366.556731 
L 496.869807 365.620585 
L 497.464492 365.44897 
L 498.059177 365.441272 
L 499.843233 366.335197 
L 500.437919 366.64887 
L 501.032604 366.52607 
L 502.221975 365.155791 
L 504.006031 363.793798 
L 504.600716 362.463932 
L 506.384772 353.569765 
L 508.763514 339.422549 
L 509.358199 339.594778 
L 509.952885 343.413618 
L 512.331626 362.635041 
L 512.926311 365.236787 
L 513.520997 365.263267 
L 515.305053 363.98912 
L 516.494423 362.616088 
L 517.089109 360.052199 
L 519.46785 347.171135 
L 520.657221 339.426687 
L 521.251906 341.846873 
L 523.630648 354.288575 
L 524.225333 357.999542 
L 524.820019 356.724222 
L 527.19876 349.448422 
L 527.793445 347.195576 
L 528.388131 344.42131 
L 528.982816 343.319202 
L 530.766872 356.531803 
L 531.956243 364.933405 
L 532.550928 367.603787 
L 534.334984 362.07781 
L 534.92967 359.519919 
L 536.11904 352.210227 
L 536.713726 350.800432 
L 537.903097 350.647793 
L 538.497782 350.77978 
L 539.092467 352.486107 
L 539.687153 354.770958 
L 540.281838 355.652747 
L 541.471209 355.928782 
L 542.065894 355.804085 
L 542.660579 355.290775 
L 543.255265 355.720185 
L 543.84995 356.589171 
L 545.039321 357.832042 
L 545.634006 358.221886 
L 546.228692 358.114395 
L 546.823377 357.592742 
L 548.607433 351.556563 
L 549.202118 349.612759 
L 549.796804 349.003903 
L 550.391489 347.80355 
L 551.58086 344.353154 
L 552.770231 344.596145 
L 553.959601 342.695479 
L 555.743657 345.903744 
L 558.122399 353.478984 
L 559.31177 358.683816 
L 559.906455 359.680047 
L 561.095826 361.250363 
L 561.690511 362.341783 
L 562.879882 362.739095 
L 563.474567 361.024716 
L 564.663938 356.568936 
L 565.258623 353.821534 
L 565.853309 351.760952 
L 567.042679 348.562591 
L 567.637365 347.705461 
L 568.23205 348.492214 
L 568.826735 348.274441 
L 569.421421 347.244384 
L 571.800162 341.704541 
L 572.394847 343.573571 
L 572.989533 346.133973 
L 575.368274 351.675914 
L 576.557645 350.495118 
L 577.15233 349.403756 
L 579.531072 341.595419 
L 581.909813 333.175796 
L 583.099184 342.678087 
L 585.477925 358.168367 
L 586.072611 358.511677 
L 586.667296 357.481322 
L 587.856667 354.256824 
L 588.451352 352.195276 
L 589.046038 349.504727 
L 590.235408 342.600813 
L 590.830094 338.443033 
L 591.424779 339.675092 
L 592.019464 342.392351 
L 593.803521 353.218073 
L 594.398206 358.285453 
L 595.587577 359.2376 
L 596.182262 358.566309 
L 597.371633 350.329241 
L 599.750374 332.640792 
L 600.345059 328.981521 
L 600.939745 331.625912 
L 602.723801 347.444479 
L 603.913172 354.970925 
L 604.507857 351.779608 
L 605.697228 341.986843 
L 607.481284 328.410968 
L 608.075969 323.197839 
L 608.670655 320.713874 
L 610.454711 328.797833 
L 611.644081 332.890546 
L 612.238767 334.029203 
L 614.022823 328.672641 
L 614.617508 327.806344 
L 615.212194 327.938334 
L 615.806879 328.918487 
L 618.18562 339.674634 
L 618.780306 341.209236 
L 619.374991 337.83057 
L 622.348418 295.295435 
L 622.943103 293.764514 
L 625.91653 330.15691 
L 626.511215 336.808854 
L 627.105901 335.322335 
L 628.889957 333.637827 
L 630.674013 336.547292 
L 631.863384 334.640948 
L 632.458069 335.528994 
L 635.431496 336.112044 
L 636.026181 332.451994 
L 636.620867 325.478544 
L 639.594293 312.14961 
L 640.188979 312.884271 
L 640.783664 319.650884 
L 643.162406 336.89552 
L 643.757091 339.237825 
L 644.351776 337.979808 
L 646.730518 325.452454 
L 647.919888 323.620207 
L 651.488001 294.318129 
L 652.082686 294.502321 
L 652.677371 294.269198 
L 655.056113 327.439964 
L 655.650798 332.422208 
L 656.245483 339.529985 
L 656.840169 343.107734 
L 658.624225 349.2068 
L 659.21891 350.071433 
L 659.813596 345.262212 
L 660.408281 339.399758 
L 663.976393 317.267188 
L 664.571079 314.227522 
L 666.94982 309.953469 
L 667.544505 308.167722 
L 668.733876 312.561438 
L 671.112618 322.636238 
L 671.707303 322.898981 
L 673.491359 315.702108 
L 674.086044 316.651631 
L 674.68073 318.047965 
L 676.464786 326.994509 
L 677.059471 331.811282 
L 677.654156 333.019493 
L 678.248842 333.644636 
L 678.248842 333.644636 
" clip-path="url(#pedd377a9b3)" style="fill: none; stroke: #8b0000; stroke-width: 1.5; stroke-linecap: square"/>
   </g>
   <g id="patch_3">
    <path d="M 54.2 390.04 
L 54.2 25.44 
" style="fill: none; stroke: #000000; stroke-width: 0.8; stroke-linejoin: miter; stroke-linecap: square"/>
   </g>
   <g id="patch_4">
    <path d="M 709.2 390.04 
L 709.2 25.44 
" style="fill: none; stroke: #000000; stroke-width: 0.8; stroke-linejoin: miter; stroke-linecap: square"/>
   </g>
   <g id="patch_5">
    <path d="M 54.2 390.04 
L 709.2 390.04 
" style="fill: none; stroke: #000000; stroke-width: 0.8; stroke-linejoin: miter; stroke-linecap: square"/>
   </g>
   <g id="patch_6">
    <path d="M 54.2 25.44 
L 709.2 25.44 
" style="fill: none; stroke: #000000; stroke-width: 0.8; stroke-linejoin: miter; stroke-linecap: square"/>
   </g>
   <g id="text_18">
    <!-- Policy Algorithms Comparison on AmidarNoFrameskip-v4 -->
    <g transform="translate(211.03375 19.44) scale(0.12 -0.12)">
     <defs>
      <path id="DejaVuSans-50" d="M 1259 4147 
L 1259 2394 
L 2053 2394 
Q 2494 2394 2734 2622 
Q 2975 2850 2975 3272 
Q 2975 3691 2734 3919 
Q 2494 4147 2053 4147 
L 1259 4147 
z
M 628 4666 
L 2053 4666 
Q 2838 4666 3239 4311 
Q 3641 3956 3641 3272 
Q 3641 2581 3239 2228 
Q 2838 1875 2053 1875 
L 1259 1875 
L 1259 0 
L 628 0 
L 628 4666 
z
" transform="scale(0.015625)"/>
      <path id="DejaVuSans-79" d="M 2059 -325 
Q 1816 -950 1584 -1140 
Q 1353 -1331 966 -1331 
L 506 -1331 
L 506 -850 
L 844 -850 
Q 1081 -850 1212 -737 
Q 1344 -625 1503 -206 
L 1606 56 
L 191 3500 
L 800 3500 
L 1894 763 
L 2988 3500 
L 3597 3500 
L 2059 -325 
z
" transform="scale(0.015625)"/>
      <path id="DejaVuSans-41" d="M 2188 4044 
L 1331 1722 
L 3047 1722 
L 2188 4044 
z
M 1831 4666 
L 2547 4666 
L 4325 0 
L 3669 0 
L 3244 1197 
L 1141 1197 
L 716 0 
L 50 0 
L 1831 4666 
z
" transform="scale(0.015625)"/>
      <path id="DejaVuSans-67" d="M 2906 1791 
Q 2906 2416 2648 2759 
Q 2391 3103 1925 3103 
Q 1463 3103 1205 2759 
Q 947 2416 947 1791 
Q 947 1169 1205 825 
Q 1463 481 1925 481 
Q 2391 481 2648 825 
Q 2906 1169 2906 1791 
z
M 3481 434 
Q 3481 -459 3084 -895 
Q 2688 -1331 1869 -1331 
Q 1566 -1331 1297 -1286 
Q 1028 -1241 775 -1147 
L 775 -588 
Q 1028 -725 1275 -790 
Q 1522 -856 1778 -856 
Q 2344 -856 2625 -561 
Q 2906 -266 2906 331 
L 2906 616 
Q 2728 306 2450 153 
Q 2172 0 1784 0 
Q 1141 0 747 490 
Q 353 981 353 1791 
Q 353 2603 747 3093 
Q 1141 3584 1784 3584 
Q 2172 3584 2450 3431 
Q 2728 3278 2906 2969 
L 2906 3500 
L 3481 3500 
L 3481 434 
z
" transform="scale(0.015625)"/>
      <path id="DejaVuSans-68" d="M 3513 2113 
L 3513 0 
L 2938 0 
L 2938 2094 
Q 2938 2591 2744 2837 
Q 2550 3084 2163 3084 
Q 1697 3084 1428 2787 
Q 1159 2491 1159 1978 
L 1159 0 
L 581 0 
L 581 4863 
L 1159 4863 
L 1159 2956 
Q 1366 3272 1645 3428 
Q 1925 3584 2291 3584 
Q 2894 3584 3203 3211 
Q 3513 2838 3513 2113 
z
" transform="scale(0.015625)"/>
      <path id="DejaVuSans-43" d="M 4122 4306 
L 4122 3641 
Q 3803 3938 3442 4084 
Q 3081 4231 2675 4231 
Q 1875 4231 1450 3742 
Q 1025 3253 1025 2328 
Q 1025 1406 1450 917 
Q 1875 428 2675 428 
Q 3081 428 3442 575 
Q 3803 722 4122 1019 
L 4122 359 
Q 3791 134 3420 21 
Q 3050 -91 2638 -91 
Q 1578 -91 968 557 
Q 359 1206 359 2328 
Q 359 3453 968 4101 
Q 1578 4750 2638 4750 
Q 3056 4750 3426 4639 
Q 3797 4528 4122 4306 
z
" transform="scale(0.015625)"/>
      <path id="DejaVuSans-46" d="M 628 4666 
L 3309 4666 
L 3309 4134 
L 1259 4134 
L 1259 2759 
L 3109 2759 
L 3109 2228 
L 1259 2228 
L 1259 0 
L 628 0 
L 628 4666 
z
" transform="scale(0.015625)"/>
      <path id="DejaVuSans-6b" d="M 581 4863 
L 1159 4863 
L 1159 1991 
L 2875 3500 
L 3609 3500 
L 1753 1863 
L 3688 0 
L 2938 0 
L 1159 1709 
L 1159 0 
L 581 0 
L 581 4863 
z
" transform="scale(0.015625)"/>
      <path id="DejaVuSans-2d" d="M 313 2009 
L 1997 2009 
L 1997 1497 
L 313 1497 
L 313 2009 
z
" transform="scale(0.015625)"/>
      <path id="DejaVuSans-76" d="M 191 3500 
L 800 3500 
L 1894 563 
L 2988 3500 
L 3597 3500 
L 2284 0 
L 1503 0 
L 191 3500 
z
" transform="scale(0.015625)"/>
     </defs>
     <use xlink:href="#DejaVuSans-50"/>
     <use xlink:href="#DejaVuSans-6f" transform="translate(56.677734 0)"/>
     <use xlink:href="#DejaVuSans-6c" transform="translate(117.859375 0)"/>
     <use xlink:href="#DejaVuSans-69" transform="translate(145.642578 0)"/>
     <use xlink:href="#DejaVuSans-63" transform="translate(173.425781 0)"/>
     <use xlink:href="#DejaVuSans-79" transform="translate(228.40625 0)"/>
     <use xlink:href="#DejaVuSans-20" transform="translate(287.585938 0)"/>
     <use xlink:href="#DejaVuSans-41" transform="translate(319.373047 0)"/>
     <use xlink:href="#DejaVuSans-6c" transform="translate(387.78125 0)"/>
     <use xlink:href="#DejaVuSans-67" transform="translate(415.564453 0)"/>
     <use xlink:href="#DejaVuSans-6f" transform="translate(479.041016 0)"/>
     <use xlink:href="#DejaVuSans-72" transform="translate(540.222656 0)"/>
     <use xlink:href="#DejaVuSans-69" transform="translate(581.335938 0)"/>
     <use xlink:href="#DejaVuSans-74" transform="translate(609.119141 0)"/>
     <use xlink:href="#DejaVuSans-68" transform="translate(648.328125 0)"/>
     <use xlink:href="#DejaVuSans-6d" transform="translate(711.707031 0)"/>
     <use xlink:href="#DejaVuSans-73" transform="translate(809.119141 0)"/>
     <use xlink:href="#DejaVuSans-20" transform="translate(861.21875 0)"/>
     <use xlink:href="#DejaVuSans-43" transform="translate(893.005859 0)"/>
     <use xlink:href="#DejaVuSans-6f" transform="translate(962.830078 0)"/>
     <use xlink:href="#DejaVuSans-6d" transform="translate(1024.011719 0)"/>
     <use xlink:href="#DejaVuSans-70" transform="translate(1121.423828 0)"/>
     <use xlink:href="#DejaVuSans-61" transform="translate(1184.900391 0)"/>
     <use xlink:href="#DejaVuSans-72" transform="translate(1246.179688 0)"/>
     <use xlink:href="#DejaVuSans-69" transform="translate(1287.292969 0)"/>
     <use xlink:href="#DejaVuSans-73" transform="translate(1315.076172 0)"/>
     <use xlink:href="#DejaVuSans-6f" transform="translate(1367.175781 0)"/>
     <use xlink:href="#DejaVuSans-6e" transform="translate(1428.357422 0)"/>
     <use xlink:href="#DejaVuSans-20" transform="translate(1491.736328 0)"/>
     <use xlink:href="#DejaVuSans-6f" transform="translate(1523.523438 0)"/>
     <use xlink:href="#DejaVuSans-6e" transform="translate(1584.705078 0)"/>
     <use xlink:href="#DejaVuSans-20" transform="translate(1648.083984 0)"/>
     <use xlink:href="#DejaVuSans-41" transform="translate(1679.871094 0)"/>
     <use xlink:href="#DejaVuSans-6d" transform="translate(1748.279297 0)"/>
     <use xlink:href="#DejaVuSans-69" transform="translate(1845.691406 0)"/>
     <use xlink:href="#DejaVuSans-64" transform="translate(1873.474609 0)"/>
     <use xlink:href="#DejaVuSans-61" transform="translate(1936.951172 0)"/>
     <use xlink:href="#DejaVuSans-72" transform="translate(1998.230469 0)"/>
     <use xlink:href="#DejaVuSans-4e" transform="translate(2039.34375 0)"/>
     <use xlink:href="#DejaVuSans-6f" transform="translate(2114.148438 0)"/>
     <use xlink:href="#DejaVuSans-46" transform="translate(2175.330078 0)"/>
     <use xlink:href="#DejaVuSans-72" transform="translate(2225.599609 0)"/>
     <use xlink:href="#DejaVuSans-61" transform="translate(2266.712891 0)"/>
     <use xlink:href="#DejaVuSans-6d" transform="translate(2327.992188 0)"/>
     <use xlink:href="#DejaVuSans-65" transform="translate(2425.404297 0)"/>
     <use xlink:href="#DejaVuSans-73" transform="translate(2486.927734 0)"/>
     <use xlink:href="#DejaVuSans-6b" transform="translate(2539.027344 0)"/>
     <use xlink:href="#DejaVuSans-69" transform="translate(2596.9375 0)"/>
     <use xlink:href="#DejaVuSans-70" transform="translate(2624.720703 0)"/>
     <use xlink:href="#DejaVuSans-2d" transform="translate(2688.197266 0)"/>
     <use xlink:href="#DejaVuSans-76" transform="translate(2721.65625 0)"/>
     <use xlink:href="#DejaVuSans-34" transform="translate(2780.835938 0)"/>
    </g>
   </g>
   <g id="legend_1">
    <g id="patch_7">
     <path d="M 61.2 92.986875 
L 165.596875 92.986875 
Q 167.596875 92.986875 167.596875 90.986875 
L 167.596875 32.44 
Q 167.596875 30.44 165.596875 30.44 
L 61.2 30.44 
Q 59.2 30.44 59.2 32.44 
L 59.2 90.986875 
Q 59.2 92.986875 61.2 92.986875 
z
" style="fill: #ffffff; opacity: 0.8; stroke: #cccccc; stroke-linejoin: miter"/>
    </g>
    <g id="text_19">
     <!-- Algorithm -->
     <g transform="translate(88.911719 42.038437) scale(0.1 -0.1)">
      <use xlink:href="#DejaVuSans-41"/>
      <use xlink:href="#DejaVuSans-6c" transform="translate(68.408203 0)"/>
      <use xlink:href="#DejaVuSans-67" transform="translate(96.191406 0)"/>
      <use xlink:href="#DejaVuSans-6f" transform="translate(159.667969 0)"/>
      <use xlink:href="#DejaVuSans-72" transform="translate(220.849609 0)"/>
      <use xlink:href="#DejaVuSans-69" transform="translate(261.962891 0)"/>
      <use xlink:href="#DejaVuSans-74" transform="translate(289.746094 0)"/>
      <use xlink:href="#DejaVuSans-68" transform="translate(328.955078 0)"/>
      <use xlink:href="#DejaVuSans-6d" transform="translate(392.333984 0)"/>
     </g>
    </g>
    <g id="line2d_19">
     <path d="M 63.2 53.216563 
L 73.2 53.216563 
L 83.2 53.216563 
" style="fill: none; stroke: #00008b; stroke-width: 1.5; stroke-linecap: square"/>
    </g>
    <g id="text_20">
     <!-- ppo_atari -->
     <g transform="translate(91.2 56.716563) scale(0.1 -0.1)">
      <defs>
       <path id="DejaVuSans-5f" d="M 3263 -1063 
L 3263 -1509 
L -63 -1509 
L -63 -1063 
L 3263 -1063 
z
" transform="scale(0.015625)"/>
      </defs>
      <use xlink:href="#DejaVuSans-70"/>
      <use xlink:href="#DejaVuSans-70" transform="translate(63.476562 0)"/>
      <use xlink:href="#DejaVuSans-6f" transform="translate(126.953125 0)"/>
      <use xlink:href="#DejaVuSans-5f" transform="translate(188.134766 0)"/>
      <use xlink:href="#DejaVuSans-61" transform="translate(238.134766 0)"/>
      <use xlink:href="#DejaVuSans-74" transform="translate(299.414062 0)"/>
      <use xlink:href="#DejaVuSans-61" transform="translate(338.623047 0)"/>
      <use xlink:href="#DejaVuSans-72" transform="translate(399.902344 0)"/>
      <use xlink:href="#DejaVuSans-69" transform="translate(441.015625 0)"/>
     </g>
    </g>
    <g id="line2d_20">
     <path d="M 63.2 68.172813 
L 73.2 68.172813 
L 83.2 68.172813 
" style="fill: none; stroke: #ff8c00; stroke-width: 1.5; stroke-linecap: square"/>
    </g>
    <g id="text_21">
     <!-- reinforce_atari -->
     <g transform="translate(91.2 71.672813) scale(0.1 -0.1)">
      <defs>
       <path id="DejaVuSans-66" d="M 2375 4863 
L 2375 4384 
L 1825 4384 
Q 1516 4384 1395 4259 
Q 1275 4134 1275 3809 
L 1275 3500 
L 2222 3500 
L 2222 3053 
L 1275 3053 
L 1275 0 
L 697 0 
L 697 3053 
L 147 3053 
L 147 3500 
L 697 3500 
L 697 3744 
Q 697 4328 969 4595 
Q 1241 4863 1831 4863 
L 2375 4863 
z
" transform="scale(0.015625)"/>
      </defs>
      <use xlink:href="#DejaVuSans-72"/>
      <use xlink:href="#DejaVuSans-65" transform="translate(38.863281 0)"/>
      <use xlink:href="#DejaVuSans-69" transform="translate(100.386719 0)"/>
      <use xlink:href="#DejaVuSans-6e" transform="translate(128.169922 0)"/>
      <use xlink:href="#DejaVuSans-66" transform="translate(191.548828 0)"/>
      <use xlink:href="#DejaVuSans-6f" transform="translate(226.753906 0)"/>
      <use xlink:href="#DejaVuSans-72" transform="translate(287.935547 0)"/>
      <use xlink:href="#DejaVuSans-63" transform="translate(326.798828 0)"/>
      <use xlink:href="#DejaVuSans-65" transform="translate(381.779297 0)"/>
      <use xlink:href="#DejaVuSans-5f" transform="translate(443.302734 0)"/>
      <use xlink:href="#DejaVuSans-61" transform="translate(493.302734 0)"/>
      <use xlink:href="#DejaVuSans-74" transform="translate(554.582031 0)"/>
      <use xlink:href="#DejaVuSans-61" transform="translate(593.791016 0)"/>
      <use xlink:href="#DejaVuSans-72" transform="translate(655.070312 0)"/>
      <use xlink:href="#DejaVuSans-69" transform="translate(696.183594 0)"/>
     </g>
    </g>
    <g id="line2d_21">
     <path d="M 63.2 83.129063 
L 73.2 83.129063 
L 83.2 83.129063 
" style="fill: none; stroke: #8b0000; stroke-width: 1.5; stroke-linecap: square"/>
    </g>
    <g id="text_22">
     <!-- sac_atari -->
     <g transform="translate(91.2 86.629063) scale(0.1 -0.1)">
      <use xlink:href="#DejaVuSans-73"/>
      <use xlink:href="#DejaVuSans-61" transform="translate(52.099609 0)"/>
      <use xlink:href="#DejaVuSans-63" transform="translate(113.378906 0)"/>
      <use xlink:href="#DejaVuSans-5f" transform="translate(168.359375 0)"/>
      <use xlink:href="#DejaVuSans-61" transform="translate(218.359375 0)"/>
      <use xlink:href="#DejaVuSans-74" transform="translate(279.638672 0)"/>
      <use xlink:href="#DejaVuSans-61" transform="translate(318.847656 0)"/>
      <use xlink:href="#DejaVuSans-72" transform="translate(380.126953 0)"/>
      <use xlink:href="#DejaVuSans-69" transform="translate(421.240234 0)"/>
     </g>
    </g>
   </g>
  </g>
 </g>
 <defs>
  <clipPath id="pedd377a9b3">
   <rect x="54.2" y="25.44" width="655" height="364.6"/>
  </clipPath>
 </defs>
</svg>
