<?xml version="1.0" encoding="utf-8" standalone="no"?>
<!DOCTYPE svg PUBLIC "-//W3C//DTD SVG 1.1//EN"
  "http://www.w3.org/Graphics/SVG/1.1/DTD/svg11.dtd">
<svg xmlns:xlink="http://www.w3.org/1999/xlink" width="720pt" height="432pt" viewBox="0 0 720 432" xmlns="http://www.w3.org/2000/svg" version="1.1">
 <metadata>
  <rdf:RDF xmlns:dc="http://purl.org/dc/elements/1.1/" xmlns:cc="http://creativecommons.org/ns#" xmlns:rdf="http://www.w3.org/1999/02/22-rdf-syntax-ns#">
   <cc:Work>
    <dc:type rdf:resource="http://purl.org/dc/dcmitype/StillImage"/>
    <dc:date>2025-02-09T22:58:13.692789</dc:date>
    <dc:format>image/svg+xml</dc:format>
    <dc:creator>
     <cc:Agent>
      <dc:title>Matplotlib v3.10.0, https://matplotlib.org/</dc:title>
     </cc:Agent>
    </dc:creator>
   </cc:Work>
  </rdf:RDF>
 </metadata>
 <defs>
  <style type="text/css">*{stroke-linejoin: round; stroke-linecap: butt}</style>
 </defs>
 <g id="figure_1">
  <g id="patch_1">
   <path d="M 0 432 
L 720 432 
L 720 0 
L 0 0 
z
" style="fill: #ffffff"/>
  </g>
  <g id="axes_1">
   <g id="patch_2">
    <path d="M 54.2 390.04 
L 709.2 390.04 
L 709.2 25.44 
L 54.2 25.44 
z
" style="fill: #ffffff"/>
   </g>
   <g id="matplotlib.axis_1">
    <g id="xtick_1">
     <g id="line2d_1">
      <defs>
       <path id="m3bd1b20d62" d="M 0 0 
L 0 3.5 
" style="stroke: #000000; stroke-width: 0.8"/>
      </defs>
      <g>
       <use xlink:href="#m3bd1b20d62" x="78.902034" y="390.04" style="stroke: #000000; stroke-width: 0.8"/>
      </g>
     </g>
     <g id="text_1">
      <!-- 0 -->
      <g transform="translate(75.720784 404.638438) scale(0.1 -0.1)">
       <defs>
        <path id="DejaVuSans-30" d="M 2034 4250 
Q 1547 4250 1301 3770 
Q 1056 3291 1056 2328 
Q 1056 1369 1301 889 
Q 1547 409 2034 409 
Q 2525 409 2770 889 
Q 3016 1369 3016 2328 
Q 3016 3291 2770 3770 
Q 2525 4250 2034 4250 
z
M 2034 4750 
Q 2819 4750 3233 4129 
Q 3647 3509 3647 2328 
Q 3647 1150 3233 529 
Q 2819 -91 2034 -91 
Q 1250 -91 836 529 
Q 422 1150 422 2328 
Q 422 3509 836 4129 
Q 1250 4750 2034 4750 
z
" transform="scale(0.015625)"/>
       </defs>
       <use xlink:href="#DejaVuSans-30"/>
      </g>
     </g>
    </g>
    <g id="xtick_2">
     <g id="line2d_2">
      <g>
       <use xlink:href="#m3bd1b20d62" x="198.212474" y="390.04" style="stroke: #000000; stroke-width: 0.8"/>
      </g>
     </g>
     <g id="text_2">
      <!-- 20000 -->
      <g transform="translate(182.306224 404.638438) scale(0.1 -0.1)">
       <defs>
        <path id="DejaVuSans-32" d="M 1228 531 
L 3431 531 
L 3431 0 
L 469 0 
L 469 531 
Q 828 903 1448 1529 
Q 2069 2156 2228 2338 
Q 2531 2678 2651 2914 
Q 2772 3150 2772 3378 
Q 2772 3750 2511 3984 
Q 2250 4219 1831 4219 
Q 1534 4219 1204 4116 
Q 875 4013 500 3803 
L 500 4441 
Q 881 4594 1212 4672 
Q 1544 4750 1819 4750 
Q 2544 4750 2975 4387 
Q 3406 4025 3406 3419 
Q 3406 3131 3298 2873 
Q 3191 2616 2906 2266 
Q 2828 2175 2409 1742 
Q 1991 1309 1228 531 
z
" transform="scale(0.015625)"/>
       </defs>
       <use xlink:href="#DejaVuSans-32"/>
       <use xlink:href="#DejaVuSans-30" transform="translate(63.623047 0)"/>
       <use xlink:href="#DejaVuSans-30" transform="translate(127.246094 0)"/>
       <use xlink:href="#DejaVuSans-30" transform="translate(190.869141 0)"/>
       <use xlink:href="#DejaVuSans-30" transform="translate(254.492188 0)"/>
      </g>
     </g>
    </g>
    <g id="xtick_3">
     <g id="line2d_3">
      <g>
       <use xlink:href="#m3bd1b20d62" x="317.522914" y="390.04" style="stroke: #000000; stroke-width: 0.8"/>
      </g>
     </g>
     <g id="text_3">
      <!-- 40000 -->
      <g transform="translate(301.616664 404.638438) scale(0.1 -0.1)">
       <defs>
        <path id="DejaVuSans-34" d="M 2419 4116 
L 825 1625 
L 2419 1625 
L 2419 4116 
z
M 2253 4666 
L 3047 4666 
L 3047 1625 
L 3713 1625 
L 3713 1100 
L 3047 1100 
L 3047 0 
L 2419 0 
L 2419 1100 
L 313 1100 
L 313 1709 
L 2253 4666 
z
" transform="scale(0.015625)"/>
       </defs>
       <use xlink:href="#DejaVuSans-34"/>
       <use xlink:href="#DejaVuSans-30" transform="translate(63.623047 0)"/>
       <use xlink:href="#DejaVuSans-30" transform="translate(127.246094 0)"/>
       <use xlink:href="#DejaVuSans-30" transform="translate(190.869141 0)"/>
       <use xlink:href="#DejaVuSans-30" transform="translate(254.492188 0)"/>
      </g>
     </g>
    </g>
    <g id="xtick_4">
     <g id="line2d_4">
      <g>
       <use xlink:href="#m3bd1b20d62" x="436.833354" y="390.04" style="stroke: #000000; stroke-width: 0.8"/>
      </g>
     </g>
     <g id="text_4">
      <!-- 60000 -->
      <g transform="translate(420.927104 404.638438) scale(0.1 -0.1)">
       <defs>
        <path id="DejaVuSans-36" d="M 2113 2584 
Q 1688 2584 1439 2293 
Q 1191 2003 1191 1497 
Q 1191 994 1439 701 
Q 1688 409 2113 409 
Q 2538 409 2786 701 
Q 3034 994 3034 1497 
Q 3034 2003 2786 2293 
Q 2538 2584 2113 2584 
z
M 3366 4563 
L 3366 3988 
Q 3128 4100 2886 4159 
Q 2644 4219 2406 4219 
Q 1781 4219 1451 3797 
Q 1122 3375 1075 2522 
Q 1259 2794 1537 2939 
Q 1816 3084 2150 3084 
Q 2853 3084 3261 2657 
Q 3669 2231 3669 1497 
Q 3669 778 3244 343 
Q 2819 -91 2113 -91 
Q 1303 -91 875 529 
Q 447 1150 447 2328 
Q 447 3434 972 4092 
Q 1497 4750 2381 4750 
Q 2619 4750 2861 4703 
Q 3103 4656 3366 4563 
z
" transform="scale(0.015625)"/>
       </defs>
       <use xlink:href="#DejaVuSans-36"/>
       <use xlink:href="#DejaVuSans-30" transform="translate(63.623047 0)"/>
       <use xlink:href="#DejaVuSans-30" transform="translate(127.246094 0)"/>
       <use xlink:href="#DejaVuSans-30" transform="translate(190.869141 0)"/>
       <use xlink:href="#DejaVuSans-30" transform="translate(254.492188 0)"/>
      </g>
     </g>
    </g>
    <g id="xtick_5">
     <g id="line2d_5">
      <g>
       <use xlink:href="#m3bd1b20d62" x="556.143795" y="390.04" style="stroke: #000000; stroke-width: 0.8"/>
      </g>
     </g>
     <g id="text_5">
      <!-- 80000 -->
      <g transform="translate(540.237545 404.638438) scale(0.1 -0.1)">
       <defs>
        <path id="DejaVuSans-38" d="M 2034 2216 
Q 1584 2216 1326 1975 
Q 1069 1734 1069 1313 
Q 1069 891 1326 650 
Q 1584 409 2034 409 
Q 2484 409 2743 651 
Q 3003 894 3003 1313 
Q 3003 1734 2745 1975 
Q 2488 2216 2034 2216 
z
M 1403 2484 
Q 997 2584 770 2862 
Q 544 3141 544 3541 
Q 544 4100 942 4425 
Q 1341 4750 2034 4750 
Q 2731 4750 3128 4425 
Q 3525 4100 3525 3541 
Q 3525 3141 3298 2862 
Q 3072 2584 2669 2484 
Q 3125 2378 3379 2068 
Q 3634 1759 3634 1313 
Q 3634 634 3220 271 
Q 2806 -91 2034 -91 
Q 1263 -91 848 271 
Q 434 634 434 1313 
Q 434 1759 690 2068 
Q 947 2378 1403 2484 
z
M 1172 3481 
Q 1172 3119 1398 2916 
Q 1625 2713 2034 2713 
Q 2441 2713 2670 2916 
Q 2900 3119 2900 3481 
Q 2900 3844 2670 4047 
Q 2441 4250 2034 4250 
Q 1625 4250 1398 4047 
Q 1172 3844 1172 3481 
z
" transform="scale(0.015625)"/>
       </defs>
       <use xlink:href="#DejaVuSans-38"/>
       <use xlink:href="#DejaVuSans-30" transform="translate(63.623047 0)"/>
       <use xlink:href="#DejaVuSans-30" transform="translate(127.246094 0)"/>
       <use xlink:href="#DejaVuSans-30" transform="translate(190.869141 0)"/>
       <use xlink:href="#DejaVuSans-30" transform="translate(254.492188 0)"/>
      </g>
     </g>
    </g>
    <g id="xtick_6">
     <g id="line2d_6">
      <g>
       <use xlink:href="#m3bd1b20d62" x="675.454235" y="390.04" style="stroke: #000000; stroke-width: 0.8"/>
      </g>
     </g>
     <g id="text_6">
      <!-- 100000 -->
      <g transform="translate(656.366735 404.638438) scale(0.1 -0.1)">
       <defs>
        <path id="DejaVuSans-31" d="M 794 531 
L 1825 531 
L 1825 4091 
L 703 3866 
L 703 4441 
L 1819 4666 
L 2450 4666 
L 2450 531 
L 3481 531 
L 3481 0 
L 794 0 
L 794 531 
z
" transform="scale(0.015625)"/>
       </defs>
       <use xlink:href="#DejaVuSans-31"/>
       <use xlink:href="#DejaVuSans-30" transform="translate(63.623047 0)"/>
       <use xlink:href="#DejaVuSans-30" transform="translate(127.246094 0)"/>
       <use xlink:href="#DejaVuSans-30" transform="translate(190.869141 0)"/>
       <use xlink:href="#DejaVuSans-30" transform="translate(254.492188 0)"/>
       <use xlink:href="#DejaVuSans-30" transform="translate(318.115234 0)"/>
      </g>
     </g>
    </g>
    <g id="text_7">
     <!-- Step -->
     <g transform="translate(370.314844 418.316562) scale(0.1 -0.1)">
      <defs>
       <path id="DejaVuSans-53" d="M 3425 4513 
L 3425 3897 
Q 3066 4069 2747 4153 
Q 2428 4238 2131 4238 
Q 1616 4238 1336 4038 
Q 1056 3838 1056 3469 
Q 1056 3159 1242 3001 
Q 1428 2844 1947 2747 
L 2328 2669 
Q 3034 2534 3370 2195 
Q 3706 1856 3706 1288 
Q 3706 609 3251 259 
Q 2797 -91 1919 -91 
Q 1588 -91 1214 -16 
Q 841 59 441 206 
L 441 856 
Q 825 641 1194 531 
Q 1563 422 1919 422 
Q 2459 422 2753 634 
Q 3047 847 3047 1241 
Q 3047 1584 2836 1778 
Q 2625 1972 2144 2069 
L 1759 2144 
Q 1053 2284 737 2584 
Q 422 2884 422 3419 
Q 422 4038 858 4394 
Q 1294 4750 2059 4750 
Q 2388 4750 2728 4690 
Q 3069 4631 3425 4513 
z
" transform="scale(0.015625)"/>
       <path id="DejaVuSans-74" d="M 1172 4494 
L 1172 3500 
L 2356 3500 
L 2356 3053 
L 1172 3053 
L 1172 1153 
Q 1172 725 1289 603 
Q 1406 481 1766 481 
L 2356 481 
L 2356 0 
L 1766 0 
Q 1100 0 847 248 
Q 594 497 594 1153 
L 594 3053 
L 172 3053 
L 172 3500 
L 594 3500 
L 594 4494 
L 1172 4494 
z
" transform="scale(0.015625)"/>
       <path id="DejaVuSans-65" d="M 3597 1894 
L 3597 1613 
L 953 1613 
Q 991 1019 1311 708 
Q 1631 397 2203 397 
Q 2534 397 2845 478 
Q 3156 559 3463 722 
L 3463 178 
Q 3153 47 2828 -22 
Q 2503 -91 2169 -91 
Q 1331 -91 842 396 
Q 353 884 353 1716 
Q 353 2575 817 3079 
Q 1281 3584 2069 3584 
Q 2775 3584 3186 3129 
Q 3597 2675 3597 1894 
z
M 3022 2063 
Q 3016 2534 2758 2815 
Q 2500 3097 2075 3097 
Q 1594 3097 1305 2825 
Q 1016 2553 972 2059 
L 3022 2063 
z
" transform="scale(0.015625)"/>
       <path id="DejaVuSans-70" d="M 1159 525 
L 1159 -1331 
L 581 -1331 
L 581 3500 
L 1159 3500 
L 1159 2969 
Q 1341 3281 1617 3432 
Q 1894 3584 2278 3584 
Q 2916 3584 3314 3078 
Q 3713 2572 3713 1747 
Q 3713 922 3314 415 
Q 2916 -91 2278 -91 
Q 1894 -91 1617 61 
Q 1341 213 1159 525 
z
M 3116 1747 
Q 3116 2381 2855 2742 
Q 2594 3103 2138 3103 
Q 1681 3103 1420 2742 
Q 1159 2381 1159 1747 
Q 1159 1113 1420 752 
Q 1681 391 2138 391 
Q 2594 391 2855 752 
Q 3116 1113 3116 1747 
z
" transform="scale(0.015625)"/>
      </defs>
      <use xlink:href="#DejaVuSans-53"/>
      <use xlink:href="#DejaVuSans-74" transform="translate(63.476562 0)"/>
      <use xlink:href="#DejaVuSans-65" transform="translate(102.685547 0)"/>
      <use xlink:href="#DejaVuSans-70" transform="translate(164.208984 0)"/>
     </g>
    </g>
   </g>
   <g id="matplotlib.axis_2">
    <g id="ytick_1">
     <g id="line2d_7">
      <defs>
       <path id="m2c1ed029e8" d="M 0 0 
L -3.5 0 
" style="stroke: #000000; stroke-width: 0.8"/>
      </defs>
      <g>
       <use xlink:href="#m2c1ed029e8" x="54.2" y="373.467273" style="stroke: #000000; stroke-width: 0.8"/>
      </g>
     </g>
     <g id="text_8">
      <!-- 0.00 -->
      <g transform="translate(24.934375 377.266491) scale(0.1 -0.1)">
       <defs>
        <path id="DejaVuSans-2e" d="M 684 794 
L 1344 794 
L 1344 0 
L 684 0 
L 684 794 
z
" transform="scale(0.015625)"/>
       </defs>
       <use xlink:href="#DejaVuSans-30"/>
       <use xlink:href="#DejaVuSans-2e" transform="translate(63.623047 0)"/>
       <use xlink:href="#DejaVuSans-30" transform="translate(95.410156 0)"/>
       <use xlink:href="#DejaVuSans-30" transform="translate(159.033203 0)"/>
      </g>
     </g>
    </g>
    <g id="ytick_2">
     <g id="line2d_8">
      <g>
       <use xlink:href="#m2c1ed029e8" x="54.2" y="299.150272" style="stroke: #000000; stroke-width: 0.8"/>
      </g>
     </g>
     <g id="text_9">
      <!-- 0.05 -->
      <g transform="translate(24.934375 302.949491) scale(0.1 -0.1)">
       <defs>
        <path id="DejaVuSans-35" d="M 691 4666 
L 3169 4666 
L 3169 4134 
L 1269 4134 
L 1269 2991 
Q 1406 3038 1543 3061 
Q 1681 3084 1819 3084 
Q 2600 3084 3056 2656 
Q 3513 2228 3513 1497 
Q 3513 744 3044 326 
Q 2575 -91 1722 -91 
Q 1428 -91 1123 -41 
Q 819 9 494 109 
L 494 744 
Q 775 591 1075 516 
Q 1375 441 1709 441 
Q 2250 441 2565 725 
Q 2881 1009 2881 1497 
Q 2881 1984 2565 2268 
Q 2250 2553 1709 2553 
Q 1456 2553 1204 2497 
Q 953 2441 691 2322 
L 691 4666 
z
" transform="scale(0.015625)"/>
       </defs>
       <use xlink:href="#DejaVuSans-30"/>
       <use xlink:href="#DejaVuSans-2e" transform="translate(63.623047 0)"/>
       <use xlink:href="#DejaVuSans-30" transform="translate(95.410156 0)"/>
       <use xlink:href="#DejaVuSans-35" transform="translate(159.033203 0)"/>
      </g>
     </g>
    </g>
    <g id="ytick_3">
     <g id="line2d_9">
      <g>
       <use xlink:href="#m2c1ed029e8" x="54.2" y="224.833272" style="stroke: #000000; stroke-width: 0.8"/>
      </g>
     </g>
     <g id="text_10">
      <!-- 0.10 -->
      <g transform="translate(24.934375 228.63249) scale(0.1 -0.1)">
       <use xlink:href="#DejaVuSans-30"/>
       <use xlink:href="#DejaVuSans-2e" transform="translate(63.623047 0)"/>
       <use xlink:href="#DejaVuSans-31" transform="translate(95.410156 0)"/>
       <use xlink:href="#DejaVuSans-30" transform="translate(159.033203 0)"/>
      </g>
     </g>
    </g>
    <g id="ytick_4">
     <g id="line2d_10">
      <g>
       <use xlink:href="#m2c1ed029e8" x="54.2" y="150.516271" style="stroke: #000000; stroke-width: 0.8"/>
      </g>
     </g>
     <g id="text_11">
      <!-- 0.15 -->
      <g transform="translate(24.934375 154.31549) scale(0.1 -0.1)">
       <use xlink:href="#DejaVuSans-30"/>
       <use xlink:href="#DejaVuSans-2e" transform="translate(63.623047 0)"/>
       <use xlink:href="#DejaVuSans-31" transform="translate(95.410156 0)"/>
       <use xlink:href="#DejaVuSans-35" transform="translate(159.033203 0)"/>
      </g>
     </g>
    </g>
    <g id="ytick_5">
     <g id="line2d_11">
      <g>
       <use xlink:href="#m2c1ed029e8" x="54.2" y="76.199271" style="stroke: #000000; stroke-width: 0.8"/>
      </g>
     </g>
     <g id="text_12">
      <!-- 0.20 -->
      <g transform="translate(24.934375 79.998489) scale(0.1 -0.1)">
       <use xlink:href="#DejaVuSans-30"/>
       <use xlink:href="#DejaVuSans-2e" transform="translate(63.623047 0)"/>
       <use xlink:href="#DejaVuSans-32" transform="translate(95.410156 0)"/>
       <use xlink:href="#DejaVuSans-30" transform="translate(159.033203 0)"/>
      </g>
     </g>
    </g>
    <g id="text_13">
     <!-- Normalized (minmax) Episodic Return -->
     <g transform="translate(18.854688 302.376719) rotate(-90) scale(0.1 -0.1)">
      <defs>
       <path id="DejaVuSans-4e" d="M 628 4666 
L 1478 4666 
L 3547 763 
L 3547 4666 
L 4159 4666 
L 4159 0 
L 3309 0 
L 1241 3903 
L 1241 0 
L 628 0 
L 628 4666 
z
" transform="scale(0.015625)"/>
       <path id="DejaVuSans-6f" d="M 1959 3097 
Q 1497 3097 1228 2736 
Q 959 2375 959 1747 
Q 959 1119 1226 758 
Q 1494 397 1959 397 
Q 2419 397 2687 759 
Q 2956 1122 2956 1747 
Q 2956 2369 2687 2733 
Q 2419 3097 1959 3097 
z
M 1959 3584 
Q 2709 3584 3137 3096 
Q 3566 2609 3566 1747 
Q 3566 888 3137 398 
Q 2709 -91 1959 -91 
Q 1206 -91 779 398 
Q 353 888 353 1747 
Q 353 2609 779 3096 
Q 1206 3584 1959 3584 
z
" transform="scale(0.015625)"/>
       <path id="DejaVuSans-72" d="M 2631 2963 
Q 2534 3019 2420 3045 
Q 2306 3072 2169 3072 
Q 1681 3072 1420 2755 
Q 1159 2438 1159 1844 
L 1159 0 
L 581 0 
L 581 3500 
L 1159 3500 
L 1159 2956 
Q 1341 3275 1631 3429 
Q 1922 3584 2338 3584 
Q 2397 3584 2469 3576 
Q 2541 3569 2628 3553 
L 2631 2963 
z
" transform="scale(0.015625)"/>
       <path id="DejaVuSans-6d" d="M 3328 2828 
Q 3544 3216 3844 3400 
Q 4144 3584 4550 3584 
Q 5097 3584 5394 3201 
Q 5691 2819 5691 2113 
L 5691 0 
L 5113 0 
L 5113 2094 
Q 5113 2597 4934 2840 
Q 4756 3084 4391 3084 
Q 3944 3084 3684 2787 
Q 3425 2491 3425 1978 
L 3425 0 
L 2847 0 
L 2847 2094 
Q 2847 2600 2669 2842 
Q 2491 3084 2119 3084 
Q 1678 3084 1418 2786 
Q 1159 2488 1159 1978 
L 1159 0 
L 581 0 
L 581 3500 
L 1159 3500 
L 1159 2956 
Q 1356 3278 1631 3431 
Q 1906 3584 2284 3584 
Q 2666 3584 2933 3390 
Q 3200 3197 3328 2828 
z
" transform="scale(0.015625)"/>
       <path id="DejaVuSans-61" d="M 2194 1759 
Q 1497 1759 1228 1600 
Q 959 1441 959 1056 
Q 959 750 1161 570 
Q 1363 391 1709 391 
Q 2188 391 2477 730 
Q 2766 1069 2766 1631 
L 2766 1759 
L 2194 1759 
z
M 3341 1997 
L 3341 0 
L 2766 0 
L 2766 531 
Q 2569 213 2275 61 
Q 1981 -91 1556 -91 
Q 1019 -91 701 211 
Q 384 513 384 1019 
Q 384 1609 779 1909 
Q 1175 2209 1959 2209 
L 2766 2209 
L 2766 2266 
Q 2766 2663 2505 2880 
Q 2244 3097 1772 3097 
Q 1472 3097 1187 3025 
Q 903 2953 641 2809 
L 641 3341 
Q 956 3463 1253 3523 
Q 1550 3584 1831 3584 
Q 2591 3584 2966 3190 
Q 3341 2797 3341 1997 
z
" transform="scale(0.015625)"/>
       <path id="DejaVuSans-6c" d="M 603 4863 
L 1178 4863 
L 1178 0 
L 603 0 
L 603 4863 
z
" transform="scale(0.015625)"/>
       <path id="DejaVuSans-69" d="M 603 3500 
L 1178 3500 
L 1178 0 
L 603 0 
L 603 3500 
z
M 603 4863 
L 1178 4863 
L 1178 4134 
L 603 4134 
L 603 4863 
z
" transform="scale(0.015625)"/>
       <path id="DejaVuSans-7a" d="M 353 3500 
L 3084 3500 
L 3084 2975 
L 922 459 
L 3084 459 
L 3084 0 
L 275 0 
L 275 525 
L 2438 3041 
L 353 3041 
L 353 3500 
z
" transform="scale(0.015625)"/>
       <path id="DejaVuSans-64" d="M 2906 2969 
L 2906 4863 
L 3481 4863 
L 3481 0 
L 2906 0 
L 2906 525 
Q 2725 213 2448 61 
Q 2172 -91 1784 -91 
Q 1150 -91 751 415 
Q 353 922 353 1747 
Q 353 2572 751 3078 
Q 1150 3584 1784 3584 
Q 2172 3584 2448 3432 
Q 2725 3281 2906 2969 
z
M 947 1747 
Q 947 1113 1208 752 
Q 1469 391 1925 391 
Q 2381 391 2643 752 
Q 2906 1113 2906 1747 
Q 2906 2381 2643 2742 
Q 2381 3103 1925 3103 
Q 1469 3103 1208 2742 
Q 947 2381 947 1747 
z
" transform="scale(0.015625)"/>
       <path id="DejaVuSans-20" transform="scale(0.015625)"/>
       <path id="DejaVuSans-28" d="M 1984 4856 
Q 1566 4138 1362 3434 
Q 1159 2731 1159 2009 
Q 1159 1288 1364 580 
Q 1569 -128 1984 -844 
L 1484 -844 
Q 1016 -109 783 600 
Q 550 1309 550 2009 
Q 550 2706 781 3412 
Q 1013 4119 1484 4856 
L 1984 4856 
z
" transform="scale(0.015625)"/>
       <path id="DejaVuSans-6e" d="M 3513 2113 
L 3513 0 
L 2938 0 
L 2938 2094 
Q 2938 2591 2744 2837 
Q 2550 3084 2163 3084 
Q 1697 3084 1428 2787 
Q 1159 2491 1159 1978 
L 1159 0 
L 581 0 
L 581 3500 
L 1159 3500 
L 1159 2956 
Q 1366 3272 1645 3428 
Q 1925 3584 2291 3584 
Q 2894 3584 3203 3211 
Q 3513 2838 3513 2113 
z
" transform="scale(0.015625)"/>
       <path id="DejaVuSans-78" d="M 3513 3500 
L 2247 1797 
L 3578 0 
L 2900 0 
L 1881 1375 
L 863 0 
L 184 0 
L 1544 1831 
L 300 3500 
L 978 3500 
L 1906 2253 
L 2834 3500 
L 3513 3500 
z
" transform="scale(0.015625)"/>
       <path id="DejaVuSans-29" d="M 513 4856 
L 1013 4856 
Q 1481 4119 1714 3412 
Q 1947 2706 1947 2009 
Q 1947 1309 1714 600 
Q 1481 -109 1013 -844 
L 513 -844 
Q 928 -128 1133 580 
Q 1338 1288 1338 2009 
Q 1338 2731 1133 3434 
Q 928 4138 513 4856 
z
" transform="scale(0.015625)"/>
       <path id="DejaVuSans-45" d="M 628 4666 
L 3578 4666 
L 3578 4134 
L 1259 4134 
L 1259 2753 
L 3481 2753 
L 3481 2222 
L 1259 2222 
L 1259 531 
L 3634 531 
L 3634 0 
L 628 0 
L 628 4666 
z
" transform="scale(0.015625)"/>
       <path id="DejaVuSans-73" d="M 2834 3397 
L 2834 2853 
Q 2591 2978 2328 3040 
Q 2066 3103 1784 3103 
Q 1356 3103 1142 2972 
Q 928 2841 928 2578 
Q 928 2378 1081 2264 
Q 1234 2150 1697 2047 
L 1894 2003 
Q 2506 1872 2764 1633 
Q 3022 1394 3022 966 
Q 3022 478 2636 193 
Q 2250 -91 1575 -91 
Q 1294 -91 989 -36 
Q 684 19 347 128 
L 347 722 
Q 666 556 975 473 
Q 1284 391 1588 391 
Q 1994 391 2212 530 
Q 2431 669 2431 922 
Q 2431 1156 2273 1281 
Q 2116 1406 1581 1522 
L 1381 1569 
Q 847 1681 609 1914 
Q 372 2147 372 2553 
Q 372 3047 722 3315 
Q 1072 3584 1716 3584 
Q 2034 3584 2315 3537 
Q 2597 3491 2834 3397 
z
" transform="scale(0.015625)"/>
       <path id="DejaVuSans-63" d="M 3122 3366 
L 3122 2828 
Q 2878 2963 2633 3030 
Q 2388 3097 2138 3097 
Q 1578 3097 1268 2742 
Q 959 2388 959 1747 
Q 959 1106 1268 751 
Q 1578 397 2138 397 
Q 2388 397 2633 464 
Q 2878 531 3122 666 
L 3122 134 
Q 2881 22 2623 -34 
Q 2366 -91 2075 -91 
Q 1284 -91 818 406 
Q 353 903 353 1747 
Q 353 2603 823 3093 
Q 1294 3584 2113 3584 
Q 2378 3584 2631 3529 
Q 2884 3475 3122 3366 
z
" transform="scale(0.015625)"/>
       <path id="DejaVuSans-52" d="M 2841 2188 
Q 3044 2119 3236 1894 
Q 3428 1669 3622 1275 
L 4263 0 
L 3584 0 
L 2988 1197 
Q 2756 1666 2539 1819 
Q 2322 1972 1947 1972 
L 1259 1972 
L 1259 0 
L 628 0 
L 628 4666 
L 2053 4666 
Q 2853 4666 3247 4331 
Q 3641 3997 3641 3322 
Q 3641 2881 3436 2590 
Q 3231 2300 2841 2188 
z
M 1259 4147 
L 1259 2491 
L 2053 2491 
Q 2509 2491 2742 2702 
Q 2975 2913 2975 3322 
Q 2975 3731 2742 3939 
Q 2509 4147 2053 4147 
L 1259 4147 
z
" transform="scale(0.015625)"/>
       <path id="DejaVuSans-75" d="M 544 1381 
L 544 3500 
L 1119 3500 
L 1119 1403 
Q 1119 906 1312 657 
Q 1506 409 1894 409 
Q 2359 409 2629 706 
Q 2900 1003 2900 1516 
L 2900 3500 
L 3475 3500 
L 3475 0 
L 2900 0 
L 2900 538 
Q 2691 219 2414 64 
Q 2138 -91 1772 -91 
Q 1169 -91 856 284 
Q 544 659 544 1381 
z
M 1991 3584 
L 1991 3584 
z
" transform="scale(0.015625)"/>
      </defs>
      <use xlink:href="#DejaVuSans-4e"/>
      <use xlink:href="#DejaVuSans-6f" transform="translate(74.804688 0)"/>
      <use xlink:href="#DejaVuSans-72" transform="translate(135.986328 0)"/>
      <use xlink:href="#DejaVuSans-6d" transform="translate(175.349609 0)"/>
      <use xlink:href="#DejaVuSans-61" transform="translate(272.761719 0)"/>
      <use xlink:href="#DejaVuSans-6c" transform="translate(334.041016 0)"/>
      <use xlink:href="#DejaVuSans-69" transform="translate(361.824219 0)"/>
      <use xlink:href="#DejaVuSans-7a" transform="translate(389.607422 0)"/>
      <use xlink:href="#DejaVuSans-65" transform="translate(442.097656 0)"/>
      <use xlink:href="#DejaVuSans-64" transform="translate(503.621094 0)"/>
      <use xlink:href="#DejaVuSans-20" transform="translate(567.097656 0)"/>
      <use xlink:href="#DejaVuSans-28" transform="translate(598.884766 0)"/>
      <use xlink:href="#DejaVuSans-6d" transform="translate(637.898438 0)"/>
      <use xlink:href="#DejaVuSans-69" transform="translate(735.310547 0)"/>
      <use xlink:href="#DejaVuSans-6e" transform="translate(763.09375 0)"/>
      <use xlink:href="#DejaVuSans-6d" transform="translate(826.472656 0)"/>
      <use xlink:href="#DejaVuSans-61" transform="translate(923.884766 0)"/>
      <use xlink:href="#DejaVuSans-78" transform="translate(985.164062 0)"/>
      <use xlink:href="#DejaVuSans-29" transform="translate(1044.34375 0)"/>
      <use xlink:href="#DejaVuSans-20" transform="translate(1083.357422 0)"/>
      <use xlink:href="#DejaVuSans-45" transform="translate(1115.144531 0)"/>
      <use xlink:href="#DejaVuSans-70" transform="translate(1178.328125 0)"/>
      <use xlink:href="#DejaVuSans-69" transform="translate(1241.804688 0)"/>
      <use xlink:href="#DejaVuSans-73" transform="translate(1269.587891 0)"/>
      <use xlink:href="#DejaVuSans-6f" transform="translate(1321.6875 0)"/>
      <use xlink:href="#DejaVuSans-64" transform="translate(1382.869141 0)"/>
      <use xlink:href="#DejaVuSans-69" transform="translate(1446.345703 0)"/>
      <use xlink:href="#DejaVuSans-63" transform="translate(1474.128906 0)"/>
      <use xlink:href="#DejaVuSans-20" transform="translate(1529.109375 0)"/>
      <use xlink:href="#DejaVuSans-52" transform="translate(1560.896484 0)"/>
      <use xlink:href="#DejaVuSans-65" transform="translate(1625.878906 0)"/>
      <use xlink:href="#DejaVuSans-74" transform="translate(1687.402344 0)"/>
      <use xlink:href="#DejaVuSans-75" transform="translate(1726.611328 0)"/>
      <use xlink:href="#DejaVuSans-72" transform="translate(1789.990234 0)"/>
      <use xlink:href="#DejaVuSans-6e" transform="translate(1829.353516 0)"/>
     </g>
    </g>
   </g>
   <g id="line2d_12">
    <path d="M 115.172407 373.467273 
L 116.836304 373.467273 
L 117.390937 369.76577 
L 118.500201 345.089082 
L 119.054834 336.308772 
L 120.718731 336.308772 
L 121.827995 301.615332 
L 122.382628 319.924198 
L 123.491892 247.151109 
L 124.046524 223.533866 
L 124.601157 207.234333 
L 125.710421 205.244823 
L 126.265054 177.534753 
L 127.374318 104.827622 
L 127.928951 76.2484 
L 128.483583 57.283747 
L 129.038215 52.071625 
L 129.592848 94.499222 
L 130.14748 59.779335 
L 130.702112 56.470781 
L 131.811377 92.880231 
L 132.366009 94.713537 
L 133.475274 42.012727 
L 134.029906 46.839567 
L 142.904023 145.14315 
L 154.551302 259.768912 
L 157.324464 279.635959 
L 157.879096 284.944118 
L 158.98836 325.201664 
L 159.542993 317.710166 
L 160.652257 298.927176 
L 161.20689 294.60155 
L 162.316154 274.826948 
L 162.870787 259.78973 
L 163.425419 227.178405 
L 163.980051 213.524076 
L 165.089316 244.133897 
L 165.643948 250.891479 
L 166.198581 202.828266 
L 166.753213 183.458875 
L 167.307845 235.133206 
L 167.862478 202.976039 
L 169.526374 197.793935 
L 170.081007 211.113533 
L 171.190271 245.659243 
L 171.744904 233.755111 
L 172.299536 197.191365 
L 172.854168 290.239779 
L 173.408801 254.345529 
L 177.291227 212.456717 
L 177.845859 209.277961 
L 180.619021 216.295979 
L 181.173653 221.10114 
L 187.274609 297.82172 
L 196.148726 358.243513 
L 196.703358 355.981486 
L 198.367255 347.025361 
L 198.921887 342.451761 
L 200.031152 318.694302 
L 202.249681 287.345317 
L 202.804314 279.397304 
L 203.358946 308.607791 
L 204.46821 291.420544 
L 206.132107 260.173499 
L 206.68674 251.972002 
L 207.241372 257.971824 
L 207.796004 262.598441 
L 210.014534 251.64109 
L 211.678431 281.847897 
L 212.233063 283.537201 
L 212.787695 284.205966 
L 213.89696 291.981833 
L 215.560857 288.40976 
L 216.115489 285.346481 
L 216.670121 279.91783 
L 217.224754 270.160369 
L 218.888651 171.292738 
L 219.443283 137.309448 
L 219.997915 118.059119 
L 220.552548 132.486872 
L 221.10718 114.582823 
L 221.661812 111.735982 
L 227.208135 119.822644 
L 227.762768 126.135909 
L 232.199826 203.156854 
L 238.300782 288.935548 
L 239.964679 309.304568 
L 240.519311 313.696081 
L 241.073943 315.680346 
L 241.628576 315.684533 
L 242.183208 315.274633 
L 244.401737 307.104805 
L 244.95637 312.700683 
L 246.065634 334.127053 
L 247.174899 304.344844 
L 247.729531 334.609215 
L 252.16659 290.317725 
L 252.721222 286.436235 
L 254.939751 288.619619 
L 255.494384 367.431103 
L 256.049016 363.886405 
L 256.603648 352.852838 
L 257.158281 307.621868 
L 257.712913 295.700723 
L 258.267545 294.170352 
L 263.813868 295.537752 
L 264.368501 302.221437 
L 264.923133 305.403129 
L 266.032398 303.997274 
L 267.141662 304.821361 
L 267.696295 305.279299 
L 268.250927 305.090032 
L 272.133353 274.707885 
L 278.234309 301.781171 
L 281.562103 316.574317 
L 282.116735 314.755745 
L 283.780632 305.753253 
L 284.889896 297.532449 
L 285.444529 288.576494 
L 286.553793 307.629407 
L 287.108426 314.149766 
L 287.663058 310.313448 
L 288.21769 308.768196 
L 288.772323 315.298626 
L 289.326955 319.312568 
L 289.881587 319.092131 
L 292.654749 251.466841 
L 293.209381 246.75573 
L 294.873278 265.796917 
L 295.42791 270.541398 
L 297.091807 262.0182 
L 299.864969 270.410495 
L 300.419601 206.316789 
L 300.974234 214.692202 
L 301.528866 233.652766 
L 302.083498 239.999526 
L 302.638131 241.686409 
L 303.192763 242.380356 
L 309.293718 234.098428 
L 310.957615 157.681972 
L 311.512248 156.655405 
L 314.285409 209.83603 
L 316.503939 260.025019 
L 317.058571 266.898031 
L 323.159526 235.606245 
L 323.714159 238.228468 
L 324.268791 237.524621 
L 324.823423 310.853345 
L 325.378056 360.208012 
L 326.48732 371.879419 
L 327.041953 363.161016 
L 328.705849 319.936103 
L 329.260482 270.376215 
L 329.815114 272.628397 
L 331.479011 317.580652 
L 332.033643 317.241338 
L 335.361437 278.688142 
L 336.470702 258.699123 
L 340.353128 241.312819 
L 340.90776 236.314419 
L 342.017025 228.786867 
L 342.571657 230.007642 
L 343.680922 260.918323 
L 344.235554 269.532758 
L 348.117981 271.939704 
L 348.672613 269.363931 
L 352.555039 230.979989 
L 354.218936 214.847959 
L 355.328201 170.631391 
L 356.437465 123.124191 
L 356.992098 124.491883 
L 357.54673 142.157003 
L 358.655995 187.594505 
L 360.319892 224.250539 
L 361.429156 273.670158 
L 362.538421 325.765387 
L 363.093053 333.869798 
L 364.75695 348.62062 
L 365.311582 320.388656 
L 365.866215 321.280921 
L 366.420847 361.818486 
L 368.639376 354.037548 
L 369.194009 351.340881 
L 371.412538 337.239248 
L 373.076435 290.822645 
L 373.631067 286.369669 
L 374.185699 286.204333 
L 380.286655 289.070063 
L 380.841287 311.50208 
L 381.39592 316.44478 
L 381.950552 297.929561 
L 382.505184 291.308974 
L 384.723714 304.453529 
L 385.278346 306.655926 
L 395.81636 230.746095 
L 396.370992 225.672412 
L 396.925624 230.302112 
L 403.02658 306.428111 
L 403.581212 295.766995 
L 404.135845 266.550062 
L 405.245109 258.079314 
L 405.799742 277.109848 
L 406.354374 251.620748 
L 406.909006 288.551722 
L 407.463639 268.685403 
L 408.018271 259.020493 
L 410.2368 270.469328 
L 410.791432 264.401707 
L 412.455329 235.58742 
L 413.009962 230.068658 
L 413.564594 237.508049 
L 415.228491 265.655043 
L 415.783123 270.446363 
L 416.337756 272.11723 
L 416.892388 269.770962 
L 419.110917 246.149725 
L 419.665549 250.620756 
L 420.774814 270.197152 
L 421.329446 277.211666 
L 421.884079 277.56117 
L 425.766505 276.244163 
L 426.321137 280.07143 
L 426.87577 306.861824 
L 427.430402 312.425125 
L 430.758196 308.1246 
L 431.312828 305.696844 
L 432.976725 296.380371 
L 434.08599 272.152631 
L 436.304519 220.652704 
L 436.859151 212.372145 
L 437.968416 203.361325 
L 439.632313 191.018009 
L 440.186945 194.221491 
L 445.178636 302.42413 
L 445.733268 290.199098 
L 446.842533 255.223361 
L 449.061062 250.871453 
L 449.615695 257.830618 
L 451.834224 297.000704 
L 452.388856 301.824663 
L 453.498121 299.438796 
L 454.052753 373.467273 
L 454.607385 365.602557 
L 457.935179 264.652472 
L 458.489812 372.594566 
L 459.044444 369.877689 
L 460.153709 356.905607 
L 461.262973 329.987245 
L 462.372238 297.695309 
L 462.92687 277.081592 
L 463.481503 251.610751 
L 464.036135 244.563801 
L 473.464884 266.554907 
L 474.019517 266.740974 
L 474.574149 264.792489 
L 475.683414 262.483173 
L 476.238046 253.132554 
L 478.456575 191.440836 
L 479.011207 212.781866 
L 479.56584 246.000484 
L 480.120472 257.512666 
L 484.002898 197.054782 
L 484.557531 194.84922 
L 486.77606 253.854108 
L 488.994589 275.732626 
L 489.549221 303.073325 
L 490.103854 323.830385 
L 490.658486 329.300015 
L 491.213118 299.28495 
L 491.767751 297.11329 
L 492.322383 296.324339 
L 492.877015 293.263302 
L 496.204809 196.133191 
L 496.759442 216.525925 
L 497.314074 199.92336 
L 497.868706 191.233603 
L 502.305765 186.763188 
L 502.860397 188.715096 
L 503.415029 188.749247 
L 503.969662 144.522685 
L 505.633559 132.922786 
L 506.188191 132.108424 
L 514.507676 178.064611 
L 515.062308 213.706709 
L 515.61694 300.47288 
L 516.171573 289.651927 
L 519.499367 210.075479 
L 520.053999 208.165978 
L 521.163264 249.050456 
L 523.936425 336.308772 
L 526.154954 336.308772 
L 526.709587 300.503266 
L 527.818851 306.501072 
L 528.373484 306.169981 
L 530.037381 292.438162 
L 530.592013 256.504917 
L 531.146645 282.023004 
L 531.701278 323.9754 
L 532.25591 348.148252 
L 533.365174 367.895118 
L 533.919807 372.689179 
L 535.029071 364.908242 
L 535.583704 350.149987 
L 536.138336 330.836589 
L 536.692968 319.189165 
L 538.356865 339.115956 
L 538.911498 335.023651 
L 539.46613 332.480737 
L 543.348556 332.873959 
L 543.903189 328.448052 
L 544.457821 320.547323 
L 545.012453 315.832542 
L 546.121718 299.838393 
L 546.67635 299.150272 
L 548.340247 299.150272 
L 548.894879 303.10464 
L 550.558776 330.094767 
L 551.113409 335.935673 
L 551.668041 334.72941 
L 552.222673 330.135363 
L 554.441203 302.278738 
L 555.550467 284.330077 
L 558.878261 278.209059 
L 559.432893 283.876506 
L 561.09679 311.333052 
L 561.651423 303.845618 
L 563.31532 266.039336 
L 563.869952 268.379536 
L 564.979217 282.234231 
L 565.533849 285.961493 
L 567.752378 259.708664 
L 568.30701 265.764634 
L 569.416275 294.689483 
L 569.970907 303.397633 
L 570.52554 308.53198 
L 571.634804 299.053971 
L 572.189437 294.029919 
L 572.744069 292.374462 
L 573.853334 321.89041 
L 574.407966 329.445245 
L 575.517231 329.386767 
L 576.071863 323.672564 
L 580.508921 261.746933 
L 581.063554 284.524784 
L 581.618186 297.184866 
L 582.172818 300.337727 
L 582.727451 293.714387 
L 586.055245 177.026175 
L 586.609877 166.045698 
L 588.273774 231.828303 
L 588.828406 234.400551 
L 589.383039 199.259826 
L 590.492303 227.764474 
L 594.929362 180.516868 
L 596.038626 328.819846 
L 599.36642 325.433156 
L 599.921053 323.976011 
L 600.475685 318.361948 
L 604.912743 250.425043 
L 605.467376 243.88411 
L 607.685905 226.366783 
L 608.240537 261.646327 
L 608.79517 263.139108 
L 609.349802 272.234542 
L 609.904434 306.788297 
L 612.677596 317.49283 
L 613.232228 277.79234 
L 613.78686 275.081089 
L 614.341493 267.663489 
L 616.00539 234.127263 
L 616.560022 226.009708 
L 617.669287 240.216389 
L 618.223919 244.571163 
L 618.778551 235.646874 
L 619.887816 202.670794 
L 622.106345 277.397274 
L 623.21561 311.340244 
L 623.770242 291.258439 
L 624.324874 284.644619 
L 627.098036 289.652832 
L 627.652668 301.910701 
L 628.207301 318.197575 
L 628.761933 325.263946 
L 629.316565 330.413695 
L 629.871198 322.361097 
L 631.535095 286.860332 
L 632.089727 281.245188 
L 633.198992 292.122517 
L 636.526785 326.658509 
L 637.081418 330.539963 
L 637.63605 328.900966 
L 638.745315 319.069594 
L 642.073109 287.277543 
L 643.182373 266.715106 
L 644.291638 244.973445 
L 644.84627 240.111186 
L 646.510167 286.591115 
L 647.064799 287.338599 
L 647.619432 278.327116 
L 649.283329 243.863717 
L 649.837961 237.982423 
L 650.392593 238.921415 
L 650.947226 241.635099 
L 652.611123 261.897846 
L 653.720387 255.684292 
L 654.27502 238.990146 
L 654.829652 212.312237 
L 658.712078 190.564797 
L 659.26671 188.587757 
L 660.930607 226.195246 
L 664.258401 261.689111 
L 667.031563 250.734505 
L 667.586195 253.957502 
L 668.140828 259.493938 
L 668.69546 272.160145 
L 669.250092 299.150272 
L 669.250092 299.150272 
" clip-path="url(#p8f548786a1)" style="fill: none; stroke: #00008b; stroke-width: 1.5; stroke-linecap: square"/>
   </g>
   <g id="line2d_13">
    <path d="M 83.972727 224.833272 
L 84.568778 223.787637 
L 85.164828 227.130098 
L 88.741132 259.076636 
L 89.337183 261.309469 
L 90.529284 247.445841 
L 94.105587 249.10509 
L 94.701638 253.57134 
L 95.297689 261.663573 
L 96.48979 280.264531 
L 100.066093 334.641179 
L 100.662144 336.195834 
L 101.258195 323.874873 
L 104.834498 211.545859 
L 105.430549 187.443229 
L 106.026599 153.425495 
L 106.62265 128.128223 
L 108.410802 98.408632 
L 110.795004 137.053436 
L 111.987105 161.996727 
L 114.371308 195.182928 
L 116.75551 232.827801 
L 117.351561 245.163092 
L 117.947611 262.000252 
L 118.543662 284.133619 
L 120.331814 323.230384 
L 122.119965 359.276541 
L 122.716016 367.454351 
L 123.312067 372.39311 
L 123.908117 367.112444 
L 126.29232 307.877406 
L 127.484421 265.649944 
L 128.676522 221.807351 
L 129.868623 192.442723 
L 130.464674 192.387986 
L 131.060724 197.338926 
L 131.656775 207.060278 
L 134.040977 262.10481 
L 134.637028 283.198904 
L 135.233079 299.663958 
L 137.02123 336.707831 
L 138.213332 334.757295 
L 138.809382 330.344421 
L 139.405433 320.621464 
L 140.597534 294.926896 
L 142.385686 244.375092 
L 143.577787 209.905666 
L 144.173837 201.168631 
L 145.961989 235.128284 
L 149.538293 283.003225 
L 150.134343 280.004631 
L 151.326445 257.156542 
L 151.922495 252.365839 
L 155.498799 252.4454 
L 156.094849 255.608869 
L 156.6909 259.666492 
L 157.883001 275.677509 
L 161.459305 325.95631 
L 162.055355 328.908002 
L 162.651406 328.67695 
L 163.247457 325.612301 
L 166.82376 301.213228 
L 167.419811 300.965495 
L 168.015861 301.882918 
L 168.611912 301.095637 
L 171.592165 287.193084 
L 172.188215 281.537114 
L 173.380317 259.347551 
L 173.976367 253.902185 
L 174.572418 251.362128 
L 177.552671 249.523802 
L 178.744772 264.945792 
L 179.340823 273.228226 
L 181.128974 312.992908 
L 182.321076 340.17302 
L 182.917126 344.888614 
L 183.513177 348.009394 
L 184.109227 349.535361 
L 184.705278 348.128939 
L 185.897379 326.846368 
L 187.685531 294.075232 
L 189.473683 273.244292 
L 190.665784 256.539194 
L 191.261835 256.126572 
L 192.453936 255.609264 
L 193.049986 258.530486 
L 196.62629 280.6449 
L 197.818391 273.11541 
L 198.414442 265.425812 
L 201.394695 196.196393 
L 201.990745 189.599591 
L 202.586796 185.414443 
L 204.970998 174.759126 
L 205.567049 180.477337 
L 206.75915 196.127319 
L 207.355201 208.773353 
L 207.951251 216.89189 
L 210.335454 266.796239 
L 212.123605 305.697832 
L 213.315707 323.573668 
L 215.103858 340.316878 
L 215.699909 342.959816 
L 216.89201 332.707382 
L 218.084111 314.084143 
L 218.680162 304.040409 
L 219.276213 300.036366 
L 222.256466 289.047861 
L 222.852516 288.324052 
L 224.044617 296.157186 
L 224.640668 294.549648 
L 226.42882 281.642815 
L 227.02487 275.489118 
L 228.216972 250.671787 
L 228.813022 245.9868 
L 229.409073 242.316928 
L 230.005123 241.477366 
L 231.793275 242.871063 
L 232.389326 244.056962 
L 232.985376 256.220587 
L 234.177477 271.476914 
L 234.773528 275.441586 
L 237.15773 273.934355 
L 237.753781 270.153069 
L 238.945882 255.784309 
L 239.541933 249.0362 
L 240.137983 246.794205 
L 242.522186 254.455056 
L 243.714287 246.355594 
L 244.310338 243.877349 
L 244.906388 240.168126 
L 246.098489 226.200166 
L 247.290591 220.512528 
L 248.482692 215.394927 
L 249.078742 214.460365 
L 249.674793 219.738227 
L 250.866894 251.264341 
L 252.058995 278.767663 
L 253.847147 316.531992 
L 254.443198 324.524377 
L 255.039248 328.601468 
L 255.635299 322.609477 
L 259.211603 256.55378 
L 259.807653 251.868258 
L 260.999754 246.456129 
L 261.595805 233.850129 
L 262.191855 228.277887 
L 262.787906 228.496523 
L 263.980007 231.503122 
L 264.576058 232.312143 
L 266.96026 205.767132 
L 267.556311 204.627313 
L 268.152361 205.66045 
L 269.940513 195.123912 
L 270.536564 194.94067 
L 272.920766 212.063531 
L 273.516817 214.353192 
L 274.112867 214.89877 
L 274.708918 219.118738 
L 275.901019 236.45657 
L 278.285222 255.42324 
L 278.881272 261.60076 
L 280.073373 279.819349 
L 281.265475 296.211073 
L 282.457576 306.55374 
L 283.649677 316.038068 
L 284.245728 318.558223 
L 287.822031 275.357373 
L 289.014132 267.838327 
L 290.206234 250.320772 
L 294.378588 240.429389 
L 294.974638 229.848999 
L 295.570689 215.677948 
L 297.954891 244.698917 
L 298.550942 249.477145 
L 299.743043 251.834682 
L 300.935144 237.551375 
L 305.107498 222.144533 
L 305.703549 223.271172 
L 306.2996 239.769038 
L 310.471954 328.569992 
L 311.068004 335.153577 
L 312.260106 327.118819 
L 315.240359 291.244215 
L 315.836409 282.177823 
L 317.02851 253.464157 
L 318.816662 199.231082 
L 321.796915 106.746306 
L 322.392966 103.421648 
L 322.989016 110.089316 
L 324.777168 154.289265 
L 325.373219 180.038531 
L 326.56532 241.903527 
L 327.16137 258.970093 
L 327.757421 271.591699 
L 330.141623 310.366948 
L 330.737674 305.344179 
L 331.929775 292.833124 
L 332.525826 284.673489 
L 333.717927 265.460259 
L 337.294231 169.980349 
L 337.890281 161.311637 
L 338.486332 160.816967 
L 340.870534 161.233464 
L 341.466585 170.922215 
L 342.062635 193.676817 
L 342.658686 211.179789 
L 345.042888 268.008544 
L 346.23499 305.457906 
L 350.407344 335.46839 
L 351.003394 336.186731 
L 351.599445 332.525266 
L 356.36785 277.53317 
L 356.9639 274.820901 
L 357.559951 279.393871 
L 359.348103 295.023127 
L 361.136254 310.253636 
L 361.732305 311.622631 
L 362.328356 308.865896 
L 363.520457 301.1391 
L 364.116507 303.53873 
L 365.308609 321.627527 
L 365.904659 327.939398 
L 366.50071 326.574285 
L 367.09676 322.723364 
L 368.288862 311.132219 
L 368.884912 301.800716 
L 371.865165 206.564176 
L 372.461216 198.747717 
L 373.653317 204.496096 
L 374.249368 206.674675 
L 376.63357 208.260564 
L 377.229621 204.372661 
L 378.421722 178.098347 
L 379.017772 175.533659 
L 380.209874 176.214687 
L 380.805924 177.110354 
L 384.978278 272.933363 
L 387.362481 299.897186 
L 390.342734 322.928982 
L 390.938784 330.557719 
L 392.130885 347.144434 
L 395.111138 351.274901 
L 395.707189 348.315421 
L 401.071644 280.79082 
L 403.455847 250.167277 
L 404.051897 251.599873 
L 407.03215 276.593221 
L 407.628201 283.272924 
L 408.224252 295.789249 
L 408.820302 305.160836 
L 409.416353 309.864811 
L 412.992656 306.366932 
L 413.588707 306.127322 
L 414.184757 304.068269 
L 418.357112 339.437566 
L 418.953162 340.198139 
L 419.549213 337.262746 
L 420.145263 339.704794 
L 423.125516 362.454338 
L 423.721567 364.20818 
L 424.317618 356.995873 
L 424.913668 344.889039 
L 429.086022 235.282726 
L 429.682073 227.225618 
L 430.278124 225.179958 
L 433.854427 258.025383 
L 434.450478 259.863814 
L 435.642579 261.067603 
L 440.410984 339.237255 
L 441.007034 340.624883 
L 441.603085 336.820861 
L 442.199135 340.564305 
L 445.775439 370.069409 
L 446.37149 373.467273 
L 452.331996 373.467273 
L 452.928046 370.45696 
L 458.292502 304.355021 
L 458.888552 302.004429 
L 461.868805 350.984977 
L 462.464856 358.794125 
L 463.060906 364.505828 
L 463.656957 351.767431 
L 467.829311 196.475507 
L 468.425362 182.057617 
L 469.021412 171.748618 
L 469.617463 171.241909 
L 472.597716 281.813579 
L 473.193766 293.736618 
L 474.385868 307.97232 
L 474.981918 303.214215 
L 478.558222 264.003665 
L 479.750323 267.077345 
L 482.730576 275.444063 
L 483.326627 275.714244 
L 483.922677 265.367492 
L 484.518728 252.003303 
L 486.30688 202.357835 
L 489.287133 193.06129 
L 489.883183 202.283158 
L 490.479234 215.293651 
L 491.075284 242.169882 
L 491.671335 261.577034 
L 494.055537 300.437191 
L 494.651588 306.700039 
L 495.247639 303.152196 
L 496.43974 288.711883 
L 501.208145 296.948379 
L 501.804195 304.136353 
L 504.188397 343.16632 
L 504.784448 348.978521 
L 505.976549 352.610187 
L 507.16865 329.651527 
L 509.552853 280.775557 
L 510.148903 271.020617 
L 510.744954 276.539393 
L 511.341005 283.91779 
L 514.321258 356.366895 
L 514.917308 365.444006 
L 515.513359 370.137717 
L 516.109409 372.428729 
L 522.665966 332.830284 
L 528.626472 266.695535 
L 529.222523 263.715819 
L 529.818573 265.37461 
L 534.586978 329.594728 
L 535.183028 335.673997 
L 539.951433 304.637628 
L 540.547484 303.243443 
L 541.143534 308.636358 
L 545.315889 371.327228 
L 545.911939 371.052487 
L 550.680344 343.717612 
L 551.872445 322.201408 
L 553.660597 273.627352 
L 556.64085 190.727773 
L 557.236901 184.8081 
L 559.025052 170.479276 
L 559.621103 185.408281 
L 563.793457 341.068026 
L 564.389508 353.27527 
L 567.369761 371.894757 
L 567.965811 371.513787 
L 569.753963 361.369728 
L 572.138165 320.652558 
L 573.926317 289.670001 
L 574.522368 283.580165 
L 575.714469 277.327186 
L 576.31052 274.952448 
L 579.886823 277.109693 
L 581.078924 258.530973 
L 582.271026 238.503109 
L 582.867076 235.865029 
L 586.44338 268.634011 
L 587.03943 278.415399 
L 588.231532 307.889807 
L 591.211785 327.471437 
L 591.807835 332.448953 
L 592.403886 332.411791 
L 592.999936 325.103276 
L 594.192037 302.857199 
L 597.17229 245.765547 
L 597.768341 238.872321 
L 598.364392 237.839416 
L 601.344645 282.555988 
L 601.940695 287.942866 
L 603.132796 296.084809 
L 603.728847 297.319888 
L 604.324898 289.909258 
L 604.920948 287.691049 
L 609.093302 292.998332 
L 609.689353 297.438361 
L 610.285404 308.46461 
L 613.861707 340.729678 
L 614.457758 342.880947 
L 615.053808 338.823323 
L 615.649859 337.644545 
L 621.610365 372.769669 
L 622.206416 373.467273 
L 637.10768 373.467273 
L 638.895832 361.668235 
L 642.472136 337.585691 
L 643.068186 336.308772 
L 646.048439 336.308772 
L 646.64449 333.58546 
L 648.432642 322.374527 
L 651.412895 325.389914 
L 652.008945 327.543394 
L 653.201047 345.170045 
L 654.393148 354.329635 
L 656.77735 371.538096 
L 657.373401 371.102554 
L 662.141805 336.804858 
L 662.737856 340.207959 
L 664.526008 352.614095 
L 666.91021 355.385978 
L 667.506261 354.06296 
L 669.890463 339.197191 
L 670.486514 337.174039 
L 675.850969 372.126477 
L 676.44702 373.467273 
L 679.427273 373.467273 
L 679.427273 373.467273 
" clip-path="url(#p8f548786a1)" style="fill: none; stroke: #ff8c00; stroke-width: 1.5; stroke-linecap: square"/>
   </g>
   <g id="line2d_14">
    <path d="M 84.086072 261.991772 
L 84.677214 261.991772 
L 85.268356 264.673808 
L 89.40635 296.106802 
L 89.997492 297.975228 
L 94.726629 214.542118 
L 95.908913 201.664704 
L 96.500055 208.253212 
L 100.046907 338.579517 
L 101.229191 373.173186 
L 102.411475 364.773795 
L 104.184901 351.512748 
L 104.776043 345.157763 
L 105.958327 322.364473 
L 106.549469 315.752707 
L 107.140611 312.626718 
L 110.096321 281.577281 
L 110.687463 280.79223 
L 111.278605 282.95702 
L 111.869748 278.731319 
L 113.643174 260.87152 
L 114.825458 255.524534 
L 115.4166 252.011474 
L 117.190026 230.917566 
L 117.781168 231.144071 
L 121.32802 312.519471 
L 121.919162 320.601632 
L 122.510304 319.469924 
L 123.101446 308.692259 
L 124.874872 258.75433 
L 125.466014 246.16944 
L 127.23944 188.525607 
L 128.421724 150.092035 
L 129.012866 153.446671 
L 130.19515 166.293928 
L 131.377434 172.000043 
L 131.968576 179.985104 
L 133.150861 216.947372 
L 133.742003 223.188048 
L 135.515429 216.767359 
L 136.106571 221.631439 
L 136.697713 231.858752 
L 137.288855 232.380466 
L 139.062281 216.05443 
L 139.653423 219.883435 
L 140.835707 240.556951 
L 141.426849 237.843265 
L 142.609133 233.682908 
L 143.200275 233.964736 
L 144.382559 252.853755 
L 144.973701 251.910167 
L 147.338269 239.220916 
L 147.929411 236.777036 
L 148.520553 233.793552 
L 149.702837 225.528343 
L 150.293979 224.833272 
L 153.24969 224.833272 
L 153.840832 227.030865 
L 155.023116 235.408909 
L 155.614258 242.191645 
L 156.796542 258.445949 
L 157.387684 264.209712 
L 158.569968 264.60976 
L 159.16111 262.06949 
L 160.343394 254.091493 
L 160.934536 251.347681 
L 162.707962 233.621591 
L 163.299104 235.030557 
L 165.07253 241.085849 
L 165.663672 232.562411 
L 166.254814 220.987227 
L 166.845956 216.30601 
L 168.619382 215.159546 
L 169.210524 217.84435 
L 172.757376 275.034095 
L 173.348518 278.677216 
L 173.939661 275.227697 
L 175.121945 260.525422 
L 177.486513 218.758975 
L 178.668797 221.910652 
L 179.259939 228.069214 
L 180.442223 249.457425 
L 181.033365 263.824442 
L 182.215649 300.945595 
L 183.397933 321.71523 
L 183.989075 320.281452 
L 184.580217 318.084046 
L 185.762501 318.137171 
L 186.353643 316.973962 
L 186.944785 312.949753 
L 187.535927 307.934723 
L 188.718211 292.9454 
L 189.309353 290.308478 
L 189.900495 291.322983 
L 190.491637 291.260313 
L 193.447347 277.773611 
L 194.038489 277.842015 
L 195.811916 277.287372 
L 196.403058 278.139621 
L 198.767626 292.032252 
L 199.94991 278.064027 
L 202.314478 222.310299 
L 204.679046 180.644384 
L 205.270188 174.420397 
L 205.86133 178.328388 
L 207.634756 185.31676 
L 208.225898 185.748086 
L 210.590466 179.881789 
L 211.181608 181.596616 
L 211.77275 191.158003 
L 212.363892 207.80013 
L 215.910745 265.333467 
L 216.501887 270.501318 
L 217.093029 269.591047 
L 218.275313 262.455096 
L 218.866455 268.577589 
L 224.186733 335.936226 
L 224.777875 328.70013 
L 228.915869 310.832946 
L 229.507011 305.930474 
L 230.098153 289.599436 
L 231.280437 270.489558 
L 236.009573 198.172359 
L 236.600716 196.583075 
L 237.191858 211.420859 
L 240.147568 298.318834 
L 241.329852 324.704623 
L 241.920994 322.429838 
L 243.103278 297.087046 
L 247.832414 249.609414 
L 249.60584 269.276638 
L 251.970408 294.794223 
L 252.56155 298.337883 
L 257.290687 294.037129 
L 257.881829 292.686554 
L 259.064113 285.779486 
L 263.202107 238.787032 
L 263.793249 230.354016 
L 264.384391 228.713837 
L 265.566675 255.718745 
L 268.522385 304.920643 
L 269.113527 309.643603 
L 269.704669 306.42458 
L 270.886953 300.85318 
L 274.433805 303.27532 
L 275.024947 291.496694 
L 276.207231 262.398941 
L 277.389515 240.478085 
L 280.345226 188.932584 
L 280.936368 188.313322 
L 282.118652 220.470285 
L 284.48322 277.928431 
L 285.074362 282.159765 
L 286.256646 285.988411 
L 286.847788 284.169994 
L 288.030072 252.245692 
L 291.576924 151.94833 
L 292.168066 152.895572 
L 292.759208 155.926388 
L 297.488344 157.141155 
L 298.079486 160.518846 
L 298.670628 173.008593 
L 302.217481 282.39678 
L 302.808623 291.723108 
L 303.990907 299.797633 
L 305.764333 325.788696 
L 308.720043 370.115005 
L 309.311185 373.467273 
L 312.266895 373.467273 
L 312.858037 372.852011 
L 319.360599 262.415626 
L 319.951742 269.256943 
L 324.089736 308.070676 
L 324.680878 301.486973 
L 325.863162 295.170138 
L 329.410014 254.051059 
L 330.001156 241.362359 
L 330.592298 231.650636 
L 331.18344 227.015954 
L 331.774582 224.84045 
L 332.365724 224.919288 
L 334.730292 229.534275 
L 335.321434 222.44248 
L 335.912576 216.961547 
L 338.277144 200.596432 
L 338.868286 203.376013 
L 340.05057 212.623755 
L 341.232855 231.175961 
L 342.415139 247.801574 
L 343.597423 268.427831 
L 345.961991 280.648133 
L 347.144275 296.88675 
L 348.917701 319.077255 
L 351.873411 319.646426 
L 352.464553 312.173181 
L 354.237979 312.874707 
L 354.829121 319.060316 
L 357.193689 351.185807 
L 357.784831 357.377432 
L 360.149399 332.489549 
L 363.696252 228.563425 
L 364.287394 219.454164 
L 364.878536 212.616941 
L 366.06082 207.183665 
L 368.425388 254.353429 
L 370.789956 253.780431 
L 371.381098 252.605205 
L 371.97224 242.537804 
L 374.92795 166.67754 
L 377.88366 83.848275 
L 378.474802 70.635863 
L 379.065944 66.113789 
L 379.657086 62.528199 
L 380.248228 61.756176 
L 380.83937 66.814013 
L 383.203939 109.177942 
L 384.977365 151.852527 
L 386.159649 173.695908 
L 387.341933 203.852566 
L 389.115359 249.712402 
L 390.888785 285.764115 
L 391.479927 294.701716 
L 392.071069 299.150272 
L 393.844495 299.150272 
L 397.391347 278.851175 
L 399.755915 278.698796 
L 400.347057 279.209052 
L 402.711625 292.80887 
L 403.302768 293.729038 
L 403.89391 291.820334 
L 408.623046 188.8259 
L 409.214188 180.67206 
L 410.396472 180.765983 
L 410.987614 183.222005 
L 412.169898 219.921254 
L 413.352182 253.419937 
L 413.943324 266.50555 
L 416.307892 296.215314 
L 416.899034 299.758756 
L 421.62817 335.72604 
L 422.219312 336.308772 
L 422.810454 336.308772 
L 423.401596 338.031274 
L 425.766165 356.769954 
L 426.357307 360.113686 
L 426.948449 360.633027 
L 427.539591 358.519071 
L 428.130733 353.273945 
L 431.086443 313.831777 
L 431.677585 307.613741 
L 432.859869 300.167531 
L 433.451011 299.150272 
L 436.406721 299.170641 
L 438.180147 311.694963 
L 438.771289 311.194065 
L 439.362431 312.599635 
L 441.726999 322.933977 
L 442.909283 319.969018 
L 443.500425 316.33893 
L 445.273852 257.612416 
L 450.002988 221.802998 
L 450.59413 207.080075 
L 451.185272 189.538901 
L 451.776414 181.137229 
L 455.914408 295.163347 
L 456.50555 296.905342 
L 458.870118 281.811355 
L 460.643544 270.630736 
L 461.234686 268.682969 
L 461.825828 267.692068 
L 463.008112 255.969006 
L 465.372681 231.444934 
L 465.963823 222.976016 
L 467.737249 190.93883 
L 468.328391 195.696242 
L 471.284101 233.520635 
L 472.466385 241.318044 
L 473.057527 246.002507 
L 473.648669 248.906324 
L 477.195521 210.5058 
L 477.786663 207.683278 
L 478.968947 193.286579 
L 479.560089 189.731901 
L 480.151231 198.488502 
L 481.333515 223.619133 
L 484.289225 289.530447 
L 484.880367 293.27023 
L 485.471509 293.709131 
L 487.836078 294.476722 
L 488.42722 296.167864 
L 489.609504 304.653201 
L 490.200646 310.109651 
L 490.791788 321.627104 
L 493.156356 341.82097 
L 493.747498 345.218704 
L 494.33864 341.884457 
L 494.929782 335.714219 
L 496.703208 298.519265 
L 498.476634 255.349796 
L 499.067776 246.06724 
L 499.658918 239.92654 
L 500.25006 236.330162 
L 503.796912 252.495011 
L 504.388054 268.351893 
L 504.979196 279.554278 
L 509.117191 338.692592 
L 509.708333 336.830744 
L 513.846327 369.665209 
L 514.437469 366.925983 
L 519.757747 304.042953 
L 520.348889 301.969449 
L 524.486883 367.806116 
L 525.078025 366.919573 
L 529.807162 272.983572 
L 530.398304 265.920756 
L 530.989446 267.957126 
L 534.536298 325.068288 
L 535.12744 330.327486 
L 535.718582 331.581204 
L 539.856576 332.322618 
L 540.447718 335.730609 
L 541.03886 336.308772 
L 544.585712 336.308772 
L 545.176854 337.69599 
L 545.767996 342.186418 
L 546.359138 345.377825 
L 549.314849 346.9324 
L 549.905991 347.091176 
L 550.497133 338.741456 
L 551.088275 327.241564 
L 551.679417 319.071719 
L 554.635127 301.198972 
L 555.817411 286.739604 
L 556.408553 285.487614 
L 556.999695 293.238189 
L 557.590837 299.115054 
L 559.955405 315.134034 
L 560.546547 322.351386 
L 561.137689 328.070773 
L 561.728831 329.905799 
L 562.319973 321.748343 
L 565.866825 254.441212 
L 567.049109 242.137361 
L 567.640251 236.600773 
L 568.231393 238.668725 
L 570.595962 283.627763 
L 571.187104 290.432682 
L 571.778246 293.561626 
L 572.369388 297.489017 
L 572.96053 303.218551 
L 577.098524 328.19438 
L 577.689666 329.38534 
L 579.463092 311.147657 
L 581.236518 292.844685 
L 583.601086 251.708985 
L 584.192228 239.368597 
L 584.78337 248.853745 
L 585.374512 256.294376 
L 585.965654 261.369761 
L 587.147938 279.140127 
L 588.921364 307.595568 
L 590.103648 292.536137 
L 591.877075 282.539348 
L 592.468217 281.296856 
L 595.423927 287.034899 
L 597.197353 311.755245 
L 599.561921 313.207772 
L 600.153063 313.004204 
L 601.926489 300.062527 
L 602.517631 302.727069 
L 604.882199 320.263965 
L 605.473341 315.725268 
L 606.655625 304.308245 
L 607.246767 294.057576 
L 610.793619 212.498425 
L 611.384762 198.993129 
L 611.975904 201.860146 
L 612.567046 205.408848 
L 613.158188 214.810541 
L 614.931614 248.84887 
L 615.522756 257.568688 
L 617.296182 306.072938 
L 617.887324 314.888888 
L 619.069608 315.845254 
L 619.66075 316.257284 
L 620.251892 315.751664 
L 622.61646 299.150272 
L 623.207602 299.150272 
L 623.798744 301.003028 
L 624.389886 305.835247 
L 624.981028 308.799346 
L 626.163312 309.686309 
L 626.754454 306.942329 
L 627.936738 299.673919 
L 628.52788 289.83063 
L 629.710164 264.660308 
L 632.665875 223.586968 
L 633.257017 217.904265 
L 633.848159 219.470276 
L 637.986153 249.362006 
L 639.168437 250.58675 
L 639.759579 247.888629 
L 640.350721 247.448328 
L 642.124147 251.347584 
L 642.715289 251.884341 
L 643.897573 246.513821 
L 644.488715 249.127805 
L 645.079857 249.382128 
L 648.035567 231.061573 
L 648.626709 234.923579 
L 649.217851 239.9411 
L 649.808993 245.999191 
L 650.400135 256.149255 
L 650.991277 269.179079 
L 652.764703 323.897508 
L 654.53813 352.157183 
L 655.129272 349.058152 
L 655.720414 344.45851 
L 658.084982 299.169106 
L 660.44955 287.384497 
L 661.040692 288.104814 
L 661.631834 290.086146 
L 662.814118 299.111025 
L 664.587544 299.150272 
L 666.36097 299.150272 
L 666.952112 300.224806 
L 667.543254 303.441529 
L 672.27239 298.984289 
L 672.863532 299.150272 
L 674.636959 299.150272 
L 674.636959 299.150272 
" clip-path="url(#p8f548786a1)" style="fill: none; stroke: #8b0000; stroke-width: 1.5; stroke-linecap: square"/>
   </g>
   <g id="patch_3">
    <path d="M 54.2 390.04 
L 54.2 25.44 
" style="fill: none; stroke: #000000; stroke-width: 0.8; stroke-linejoin: miter; stroke-linecap: square"/>
   </g>
   <g id="patch_4">
    <path d="M 709.2 390.04 
L 709.2 25.44 
" style="fill: none; stroke: #000000; stroke-width: 0.8; stroke-linejoin: miter; stroke-linecap: square"/>
   </g>
   <g id="patch_5">
    <path d="M 54.2 390.04 
L 709.2 390.04 
" style="fill: none; stroke: #000000; stroke-width: 0.8; stroke-linejoin: miter; stroke-linecap: square"/>
   </g>
   <g id="patch_6">
    <path d="M 54.2 25.44 
L 709.2 25.44 
" style="fill: none; stroke: #000000; stroke-width: 0.8; stroke-linejoin: miter; stroke-linecap: square"/>
   </g>
   <g id="text_14">
    <!-- Policy Algorithms Comparison on PongNoFrameskip-v4 -->
    <g transform="translate(217.91875 19.44) scale(0.12 -0.12)">
     <defs>
      <path id="DejaVuSans-50" d="M 1259 4147 
L 1259 2394 
L 2053 2394 
Q 2494 2394 2734 2622 
Q 2975 2850 2975 3272 
Q 2975 3691 2734 3919 
Q 2494 4147 2053 4147 
L 1259 4147 
z
M 628 4666 
L 2053 4666 
Q 2838 4666 3239 4311 
Q 3641 3956 3641 3272 
Q 3641 2581 3239 2228 
Q 2838 1875 2053 1875 
L 1259 1875 
L 1259 0 
L 628 0 
L 628 4666 
z
" transform="scale(0.015625)"/>
      <path id="DejaVuSans-79" d="M 2059 -325 
Q 1816 -950 1584 -1140 
Q 1353 -1331 966 -1331 
L 506 -1331 
L 506 -850 
L 844 -850 
Q 1081 -850 1212 -737 
Q 1344 -625 1503 -206 
L 1606 56 
L 191 3500 
L 800 3500 
L 1894 763 
L 2988 3500 
L 3597 3500 
L 2059 -325 
z
" transform="scale(0.015625)"/>
      <path id="DejaVuSans-41" d="M 2188 4044 
L 1331 1722 
L 3047 1722 
L 2188 4044 
z
M 1831 4666 
L 2547 4666 
L 4325 0 
L 3669 0 
L 3244 1197 
L 1141 1197 
L 716 0 
L 50 0 
L 1831 4666 
z
" transform="scale(0.015625)"/>
      <path id="DejaVuSans-67" d="M 2906 1791 
Q 2906 2416 2648 2759 
Q 2391 3103 1925 3103 
Q 1463 3103 1205 2759 
Q 947 2416 947 1791 
Q 947 1169 1205 825 
Q 1463 481 1925 481 
Q 2391 481 2648 825 
Q 2906 1169 2906 1791 
z
M 3481 434 
Q 3481 -459 3084 -895 
Q 2688 -1331 1869 -1331 
Q 1566 -1331 1297 -1286 
Q 1028 -1241 775 -1147 
L 775 -588 
Q 1028 -725 1275 -790 
Q 1522 -856 1778 -856 
Q 2344 -856 2625 -561 
Q 2906 -266 2906 331 
L 2906 616 
Q 2728 306 2450 153 
Q 2172 0 1784 0 
Q 1141 0 747 490 
Q 353 981 353 1791 
Q 353 2603 747 3093 
Q 1141 3584 1784 3584 
Q 2172 3584 2450 3431 
Q 2728 3278 2906 2969 
L 2906 3500 
L 3481 3500 
L 3481 434 
z
" transform="scale(0.015625)"/>
      <path id="DejaVuSans-68" d="M 3513 2113 
L 3513 0 
L 2938 0 
L 2938 2094 
Q 2938 2591 2744 2837 
Q 2550 3084 2163 3084 
Q 1697 3084 1428 2787 
Q 1159 2491 1159 1978 
L 1159 0 
L 581 0 
L 581 4863 
L 1159 4863 
L 1159 2956 
Q 1366 3272 1645 3428 
Q 1925 3584 2291 3584 
Q 2894 3584 3203 3211 
Q 3513 2838 3513 2113 
z
" transform="scale(0.015625)"/>
      <path id="DejaVuSans-43" d="M 4122 4306 
L 4122 3641 
Q 3803 3938 3442 4084 
Q 3081 4231 2675 4231 
Q 1875 4231 1450 3742 
Q 1025 3253 1025 2328 
Q 1025 1406 1450 917 
Q 1875 428 2675 428 
Q 3081 428 3442 575 
Q 3803 722 4122 1019 
L 4122 359 
Q 3791 134 3420 21 
Q 3050 -91 2638 -91 
Q 1578 -91 968 557 
Q 359 1206 359 2328 
Q 359 3453 968 4101 
Q 1578 4750 2638 4750 
Q 3056 4750 3426 4639 
Q 3797 4528 4122 4306 
z
" transform="scale(0.015625)"/>
      <path id="DejaVuSans-46" d="M 628 4666 
L 3309 4666 
L 3309 4134 
L 1259 4134 
L 1259 2759 
L 3109 2759 
L 3109 2228 
L 1259 2228 
L 1259 0 
L 628 0 
L 628 4666 
z
" transform="scale(0.015625)"/>
      <path id="DejaVuSans-6b" d="M 581 4863 
L 1159 4863 
L 1159 1991 
L 2875 3500 
L 3609 3500 
L 1753 1863 
L 3688 0 
L 2938 0 
L 1159 1709 
L 1159 0 
L 581 0 
L 581 4863 
z
" transform="scale(0.015625)"/>
      <path id="DejaVuSans-2d" d="M 313 2009 
L 1997 2009 
L 1997 1497 
L 313 1497 
L 313 2009 
z
" transform="scale(0.015625)"/>
      <path id="DejaVuSans-76" d="M 191 3500 
L 800 3500 
L 1894 563 
L 2988 3500 
L 3597 3500 
L 2284 0 
L 1503 0 
L 191 3500 
z
" transform="scale(0.015625)"/>
     </defs>
     <use xlink:href="#DejaVuSans-50"/>
     <use xlink:href="#DejaVuSans-6f" transform="translate(56.677734 0)"/>
     <use xlink:href="#DejaVuSans-6c" transform="translate(117.859375 0)"/>
     <use xlink:href="#DejaVuSans-69" transform="translate(145.642578 0)"/>
     <use xlink:href="#DejaVuSans-63" transform="translate(173.425781 0)"/>
     <use xlink:href="#DejaVuSans-79" transform="translate(228.40625 0)"/>
     <use xlink:href="#DejaVuSans-20" transform="translate(287.585938 0)"/>
     <use xlink:href="#DejaVuSans-41" transform="translate(319.373047 0)"/>
     <use xlink:href="#DejaVuSans-6c" transform="translate(387.78125 0)"/>
     <use xlink:href="#DejaVuSans-67" transform="translate(415.564453 0)"/>
     <use xlink:href="#DejaVuSans-6f" transform="translate(479.041016 0)"/>
     <use xlink:href="#DejaVuSans-72" transform="translate(540.222656 0)"/>
     <use xlink:href="#DejaVuSans-69" transform="translate(581.335938 0)"/>
     <use xlink:href="#DejaVuSans-74" transform="translate(609.119141 0)"/>
     <use xlink:href="#DejaVuSans-68" transform="translate(648.328125 0)"/>
     <use xlink:href="#DejaVuSans-6d" transform="translate(711.707031 0)"/>
     <use xlink:href="#DejaVuSans-73" transform="translate(809.119141 0)"/>
     <use xlink:href="#DejaVuSans-20" transform="translate(861.21875 0)"/>
     <use xlink:href="#DejaVuSans-43" transform="translate(893.005859 0)"/>
     <use xlink:href="#DejaVuSans-6f" transform="translate(962.830078 0)"/>
     <use xlink:href="#DejaVuSans-6d" transform="translate(1024.011719 0)"/>
     <use xlink:href="#DejaVuSans-70" transform="translate(1121.423828 0)"/>
     <use xlink:href="#DejaVuSans-61" transform="translate(1184.900391 0)"/>
     <use xlink:href="#DejaVuSans-72" transform="translate(1246.179688 0)"/>
     <use xlink:href="#DejaVuSans-69" transform="translate(1287.292969 0)"/>
     <use xlink:href="#DejaVuSans-73" transform="translate(1315.076172 0)"/>
     <use xlink:href="#DejaVuSans-6f" transform="translate(1367.175781 0)"/>
     <use xlink:href="#DejaVuSans-6e" transform="translate(1428.357422 0)"/>
     <use xlink:href="#DejaVuSans-20" transform="translate(1491.736328 0)"/>
     <use xlink:href="#DejaVuSans-6f" transform="translate(1523.523438 0)"/>
     <use xlink:href="#DejaVuSans-6e" transform="translate(1584.705078 0)"/>
     <use xlink:href="#DejaVuSans-20" transform="translate(1648.083984 0)"/>
     <use xlink:href="#DejaVuSans-50" transform="translate(1679.871094 0)"/>
     <use xlink:href="#DejaVuSans-6f" transform="translate(1736.548828 0)"/>
     <use xlink:href="#DejaVuSans-6e" transform="translate(1797.730469 0)"/>
     <use xlink:href="#DejaVuSans-67" transform="translate(1861.109375 0)"/>
     <use xlink:href="#DejaVuSans-4e" transform="translate(1924.585938 0)"/>
     <use xlink:href="#DejaVuSans-6f" transform="translate(1999.390625 0)"/>
     <use xlink:href="#DejaVuSans-46" transform="translate(2060.572266 0)"/>
     <use xlink:href="#DejaVuSans-72" transform="translate(2110.841797 0)"/>
     <use xlink:href="#DejaVuSans-61" transform="translate(2151.955078 0)"/>
     <use xlink:href="#DejaVuSans-6d" transform="translate(2213.234375 0)"/>
     <use xlink:href="#DejaVuSans-65" transform="translate(2310.646484 0)"/>
     <use xlink:href="#DejaVuSans-73" transform="translate(2372.169922 0)"/>
     <use xlink:href="#DejaVuSans-6b" transform="translate(2424.269531 0)"/>
     <use xlink:href="#DejaVuSans-69" transform="translate(2482.179688 0)"/>
     <use xlink:href="#DejaVuSans-70" transform="translate(2509.962891 0)"/>
     <use xlink:href="#DejaVuSans-2d" transform="translate(2573.439453 0)"/>
     <use xlink:href="#DejaVuSans-76" transform="translate(2606.898438 0)"/>
     <use xlink:href="#DejaVuSans-34" transform="translate(2666.078125 0)"/>
    </g>
   </g>
   <g id="legend_1">
    <g id="patch_7">
     <path d="M 597.803125 92.986875 
L 702.2 92.986875 
Q 704.2 92.986875 704.2 90.986875 
L 704.2 32.44 
Q 704.2 30.44 702.2 30.44 
L 597.803125 30.44 
Q 595.803125 30.44 595.803125 32.44 
L 595.803125 90.986875 
Q 595.803125 92.986875 597.803125 92.986875 
z
" style="fill: #ffffff; opacity: 0.8; stroke: #cccccc; stroke-linejoin: miter"/>
    </g>
    <g id="text_15">
     <!-- Algorithm -->
     <g transform="translate(625.514844 42.038437) scale(0.1 -0.1)">
      <use xlink:href="#DejaVuSans-41"/>
      <use xlink:href="#DejaVuSans-6c" transform="translate(68.408203 0)"/>
      <use xlink:href="#DejaVuSans-67" transform="translate(96.191406 0)"/>
      <use xlink:href="#DejaVuSans-6f" transform="translate(159.667969 0)"/>
      <use xlink:href="#DejaVuSans-72" transform="translate(220.849609 0)"/>
      <use xlink:href="#DejaVuSans-69" transform="translate(261.962891 0)"/>
      <use xlink:href="#DejaVuSans-74" transform="translate(289.746094 0)"/>
      <use xlink:href="#DejaVuSans-68" transform="translate(328.955078 0)"/>
      <use xlink:href="#DejaVuSans-6d" transform="translate(392.333984 0)"/>
     </g>
    </g>
    <g id="line2d_15">
     <path d="M 599.803125 53.216563 
L 609.803125 53.216563 
L 619.803125 53.216563 
" style="fill: none; stroke: #00008b; stroke-width: 1.5; stroke-linecap: square"/>
    </g>
    <g id="text_16">
     <!-- ppo_atari -->
     <g transform="translate(627.803125 56.716563) scale(0.1 -0.1)">
      <defs>
       <path id="DejaVuSans-5f" d="M 3263 -1063 
L 3263 -1509 
L -63 -1509 
L -63 -1063 
L 3263 -1063 
z
" transform="scale(0.015625)"/>
      </defs>
      <use xlink:href="#DejaVuSans-70"/>
      <use xlink:href="#DejaVuSans-70" transform="translate(63.476562 0)"/>
      <use xlink:href="#DejaVuSans-6f" transform="translate(126.953125 0)"/>
      <use xlink:href="#DejaVuSans-5f" transform="translate(188.134766 0)"/>
      <use xlink:href="#DejaVuSans-61" transform="translate(238.134766 0)"/>
      <use xlink:href="#DejaVuSans-74" transform="translate(299.414062 0)"/>
      <use xlink:href="#DejaVuSans-61" transform="translate(338.623047 0)"/>
      <use xlink:href="#DejaVuSans-72" transform="translate(399.902344 0)"/>
      <use xlink:href="#DejaVuSans-69" transform="translate(441.015625 0)"/>
     </g>
    </g>
    <g id="line2d_16">
     <path d="M 599.803125 68.172813 
L 609.803125 68.172813 
L 619.803125 68.172813 
" style="fill: none; stroke: #ff8c00; stroke-width: 1.5; stroke-linecap: square"/>
    </g>
    <g id="text_17">
     <!-- reinforce_atari -->
     <g transform="translate(627.803125 71.672813) scale(0.1 -0.1)">
      <defs>
       <path id="DejaVuSans-66" d="M 2375 4863 
L 2375 4384 
L 1825 4384 
Q 1516 4384 1395 4259 
Q 1275 4134 1275 3809 
L 1275 3500 
L 2222 3500 
L 2222 3053 
L 1275 3053 
L 1275 0 
L 697 0 
L 697 3053 
L 147 3053 
L 147 3500 
L 697 3500 
L 697 3744 
Q 697 4328 969 4595 
Q 1241 4863 1831 4863 
L 2375 4863 
z
" transform="scale(0.015625)"/>
      </defs>
      <use xlink:href="#DejaVuSans-72"/>
      <use xlink:href="#DejaVuSans-65" transform="translate(38.863281 0)"/>
      <use xlink:href="#DejaVuSans-69" transform="translate(100.386719 0)"/>
      <use xlink:href="#DejaVuSans-6e" transform="translate(128.169922 0)"/>
      <use xlink:href="#DejaVuSans-66" transform="translate(191.548828 0)"/>
      <use xlink:href="#DejaVuSans-6f" transform="translate(226.753906 0)"/>
      <use xlink:href="#DejaVuSans-72" transform="translate(287.935547 0)"/>
      <use xlink:href="#DejaVuSans-63" transform="translate(326.798828 0)"/>
      <use xlink:href="#DejaVuSans-65" transform="translate(381.779297 0)"/>
      <use xlink:href="#DejaVuSans-5f" transform="translate(443.302734 0)"/>
      <use xlink:href="#DejaVuSans-61" transform="translate(493.302734 0)"/>
      <use xlink:href="#DejaVuSans-74" transform="translate(554.582031 0)"/>
      <use xlink:href="#DejaVuSans-61" transform="translate(593.791016 0)"/>
      <use xlink:href="#DejaVuSans-72" transform="translate(655.070312 0)"/>
      <use xlink:href="#DejaVuSans-69" transform="translate(696.183594 0)"/>
     </g>
    </g>
    <g id="line2d_17">
     <path d="M 599.803125 83.129063 
L 609.803125 83.129063 
L 619.803125 83.129063 
" style="fill: none; stroke: #8b0000; stroke-width: 1.5; stroke-linecap: square"/>
    </g>
    <g id="text_18">
     <!-- sac_atari -->
     <g transform="translate(627.803125 86.629063) scale(0.1 -0.1)">
      <use xlink:href="#DejaVuSans-73"/>
      <use xlink:href="#DejaVuSans-61" transform="translate(52.099609 0)"/>
      <use xlink:href="#DejaVuSans-63" transform="translate(113.378906 0)"/>
      <use xlink:href="#DejaVuSans-5f" transform="translate(168.359375 0)"/>
      <use xlink:href="#DejaVuSans-61" transform="translate(218.359375 0)"/>
      <use xlink:href="#DejaVuSans-74" transform="translate(279.638672 0)"/>
      <use xlink:href="#DejaVuSans-61" transform="translate(318.847656 0)"/>
      <use xlink:href="#DejaVuSans-72" transform="translate(380.126953 0)"/>
      <use xlink:href="#DejaVuSans-69" transform="translate(421.240234 0)"/>
     </g>
    </g>
   </g>
  </g>
 </g>
 <defs>
  <clipPath id="p8f548786a1">
   <rect x="54.2" y="25.44" width="655" height="364.6"/>
  </clipPath>
 </defs>
</svg>
