<?xml version="1.0" encoding="utf-8" standalone="no"?>
<!DOCTYPE svg PUBLIC "-//W3C//DTD SVG 1.1//EN"
  "http://www.w3.org/Graphics/SVG/1.1/DTD/svg11.dtd">
<svg xmlns:xlink="http://www.w3.org/1999/xlink" width="720pt" height="432pt" viewBox="0 0 720 432" xmlns="http://www.w3.org/2000/svg" version="1.1">
 <metadata>
  <rdf:RDF xmlns:dc="http://purl.org/dc/elements/1.1/" xmlns:cc="http://creativecommons.org/ns#" xmlns:rdf="http://www.w3.org/1999/02/22-rdf-syntax-ns#">
   <cc:Work>
    <dc:type rdf:resource="http://purl.org/dc/dcmitype/StillImage"/>
    <dc:date>2025-02-09T22:57:33.919948</dc:date>
    <dc:format>image/svg+xml</dc:format>
    <dc:creator>
     <cc:Agent>
      <dc:title>Matplotlib v3.10.0, https://matplotlib.org/</dc:title>
     </cc:Agent>
    </dc:creator>
   </cc:Work>
  </rdf:RDF>
 </metadata>
 <defs>
  <style type="text/css">*{stroke-linejoin: round; stroke-linecap: butt}</style>
 </defs>
 <g id="figure_1">
  <g id="patch_1">
   <path d="M 0 432 
L 720 432 
L 720 0 
L 0 0 
z
" style="fill: #ffffff"/>
  </g>
  <g id="axes_1">
   <g id="patch_2">
    <path d="M 62.57 390.04 
L 709.2 390.04 
L 709.2 25.44 
L 62.57 25.44 
z
" style="fill: #ffffff"/>
   </g>
   <g id="matplotlib.axis_1">
    <g id="xtick_1">
     <g id="line2d_1">
      <defs>
       <path id="md8fd9367a2" d="M 0 0 
L 0 3.5 
" style="stroke: #000000; stroke-width: 0.8"/>
      </defs>
      <g>
       <use xlink:href="#md8fd9367a2" x="86.956376" y="390.04" style="stroke: #000000; stroke-width: 0.8"/>
      </g>
     </g>
     <g id="text_1">
      <!-- 0 -->
      <g transform="translate(83.775126 404.638438) scale(0.1 -0.1)">
       <defs>
        <path id="DejaVuSans-30" d="M 2034 4250 
Q 1547 4250 1301 3770 
Q 1056 3291 1056 2328 
Q 1056 1369 1301 889 
Q 1547 409 2034 409 
Q 2525 409 2770 889 
Q 3016 1369 3016 2328 
Q 3016 3291 2770 3770 
Q 2525 4250 2034 4250 
z
M 2034 4750 
Q 2819 4750 3233 4129 
Q 3647 3509 3647 2328 
Q 3647 1150 3233 529 
Q 2819 -91 2034 -91 
Q 1250 -91 836 529 
Q 422 1150 422 2328 
Q 422 3509 836 4129 
Q 1250 4750 2034 4750 
z
" transform="scale(0.015625)"/>
       </defs>
       <use xlink:href="#DejaVuSans-30"/>
      </g>
     </g>
    </g>
    <g id="xtick_2">
     <g id="line2d_2">
      <g>
       <use xlink:href="#md8fd9367a2" x="204.742192" y="390.04" style="stroke: #000000; stroke-width: 0.8"/>
      </g>
     </g>
     <g id="text_2">
      <!-- 20000 -->
      <g transform="translate(188.835942 404.638438) scale(0.1 -0.1)">
       <defs>
        <path id="DejaVuSans-32" d="M 1228 531 
L 3431 531 
L 3431 0 
L 469 0 
L 469 531 
Q 828 903 1448 1529 
Q 2069 2156 2228 2338 
Q 2531 2678 2651 2914 
Q 2772 3150 2772 3378 
Q 2772 3750 2511 3984 
Q 2250 4219 1831 4219 
Q 1534 4219 1204 4116 
Q 875 4013 500 3803 
L 500 4441 
Q 881 4594 1212 4672 
Q 1544 4750 1819 4750 
Q 2544 4750 2975 4387 
Q 3406 4025 3406 3419 
Q 3406 3131 3298 2873 
Q 3191 2616 2906 2266 
Q 2828 2175 2409 1742 
Q 1991 1309 1228 531 
z
" transform="scale(0.015625)"/>
       </defs>
       <use xlink:href="#DejaVuSans-32"/>
       <use xlink:href="#DejaVuSans-30" transform="translate(63.623047 0)"/>
       <use xlink:href="#DejaVuSans-30" transform="translate(127.246094 0)"/>
       <use xlink:href="#DejaVuSans-30" transform="translate(190.869141 0)"/>
       <use xlink:href="#DejaVuSans-30" transform="translate(254.492188 0)"/>
      </g>
     </g>
    </g>
    <g id="xtick_3">
     <g id="line2d_3">
      <g>
       <use xlink:href="#md8fd9367a2" x="322.528009" y="390.04" style="stroke: #000000; stroke-width: 0.8"/>
      </g>
     </g>
     <g id="text_3">
      <!-- 40000 -->
      <g transform="translate(306.621759 404.638438) scale(0.1 -0.1)">
       <defs>
        <path id="DejaVuSans-34" d="M 2419 4116 
L 825 1625 
L 2419 1625 
L 2419 4116 
z
M 2253 4666 
L 3047 4666 
L 3047 1625 
L 3713 1625 
L 3713 1100 
L 3047 1100 
L 3047 0 
L 2419 0 
L 2419 1100 
L 313 1100 
L 313 1709 
L 2253 4666 
z
" transform="scale(0.015625)"/>
       </defs>
       <use xlink:href="#DejaVuSans-34"/>
       <use xlink:href="#DejaVuSans-30" transform="translate(63.623047 0)"/>
       <use xlink:href="#DejaVuSans-30" transform="translate(127.246094 0)"/>
       <use xlink:href="#DejaVuSans-30" transform="translate(190.869141 0)"/>
       <use xlink:href="#DejaVuSans-30" transform="translate(254.492188 0)"/>
      </g>
     </g>
    </g>
    <g id="xtick_4">
     <g id="line2d_4">
      <g>
       <use xlink:href="#md8fd9367a2" x="440.313826" y="390.04" style="stroke: #000000; stroke-width: 0.8"/>
      </g>
     </g>
     <g id="text_4">
      <!-- 60000 -->
      <g transform="translate(424.407576 404.638438) scale(0.1 -0.1)">
       <defs>
        <path id="DejaVuSans-36" d="M 2113 2584 
Q 1688 2584 1439 2293 
Q 1191 2003 1191 1497 
Q 1191 994 1439 701 
Q 1688 409 2113 409 
Q 2538 409 2786 701 
Q 3034 994 3034 1497 
Q 3034 2003 2786 2293 
Q 2538 2584 2113 2584 
z
M 3366 4563 
L 3366 3988 
Q 3128 4100 2886 4159 
Q 2644 4219 2406 4219 
Q 1781 4219 1451 3797 
Q 1122 3375 1075 2522 
Q 1259 2794 1537 2939 
Q 1816 3084 2150 3084 
Q 2853 3084 3261 2657 
Q 3669 2231 3669 1497 
Q 3669 778 3244 343 
Q 2819 -91 2113 -91 
Q 1303 -91 875 529 
Q 447 1150 447 2328 
Q 447 3434 972 4092 
Q 1497 4750 2381 4750 
Q 2619 4750 2861 4703 
Q 3103 4656 3366 4563 
z
" transform="scale(0.015625)"/>
       </defs>
       <use xlink:href="#DejaVuSans-36"/>
       <use xlink:href="#DejaVuSans-30" transform="translate(63.623047 0)"/>
       <use xlink:href="#DejaVuSans-30" transform="translate(127.246094 0)"/>
       <use xlink:href="#DejaVuSans-30" transform="translate(190.869141 0)"/>
       <use xlink:href="#DejaVuSans-30" transform="translate(254.492188 0)"/>
      </g>
     </g>
    </g>
    <g id="xtick_5">
     <g id="line2d_5">
      <g>
       <use xlink:href="#md8fd9367a2" x="558.099643" y="390.04" style="stroke: #000000; stroke-width: 0.8"/>
      </g>
     </g>
     <g id="text_5">
      <!-- 80000 -->
      <g transform="translate(542.193393 404.638438) scale(0.1 -0.1)">
       <defs>
        <path id="DejaVuSans-38" d="M 2034 2216 
Q 1584 2216 1326 1975 
Q 1069 1734 1069 1313 
Q 1069 891 1326 650 
Q 1584 409 2034 409 
Q 2484 409 2743 651 
Q 3003 894 3003 1313 
Q 3003 1734 2745 1975 
Q 2488 2216 2034 2216 
z
M 1403 2484 
Q 997 2584 770 2862 
Q 544 3141 544 3541 
Q 544 4100 942 4425 
Q 1341 4750 2034 4750 
Q 2731 4750 3128 4425 
Q 3525 4100 3525 3541 
Q 3525 3141 3298 2862 
Q 3072 2584 2669 2484 
Q 3125 2378 3379 2068 
Q 3634 1759 3634 1313 
Q 3634 634 3220 271 
Q 2806 -91 2034 -91 
Q 1263 -91 848 271 
Q 434 634 434 1313 
Q 434 1759 690 2068 
Q 947 2378 1403 2484 
z
M 1172 3481 
Q 1172 3119 1398 2916 
Q 1625 2713 2034 2713 
Q 2441 2713 2670 2916 
Q 2900 3119 2900 3481 
Q 2900 3844 2670 4047 
Q 2441 4250 2034 4250 
Q 1625 4250 1398 4047 
Q 1172 3844 1172 3481 
z
" transform="scale(0.015625)"/>
       </defs>
       <use xlink:href="#DejaVuSans-38"/>
       <use xlink:href="#DejaVuSans-30" transform="translate(63.623047 0)"/>
       <use xlink:href="#DejaVuSans-30" transform="translate(127.246094 0)"/>
       <use xlink:href="#DejaVuSans-30" transform="translate(190.869141 0)"/>
       <use xlink:href="#DejaVuSans-30" transform="translate(254.492188 0)"/>
      </g>
     </g>
    </g>
    <g id="xtick_6">
     <g id="line2d_6">
      <g>
       <use xlink:href="#md8fd9367a2" x="675.88546" y="390.04" style="stroke: #000000; stroke-width: 0.8"/>
      </g>
     </g>
     <g id="text_6">
      <!-- 100000 -->
      <g transform="translate(656.79796 404.638438) scale(0.1 -0.1)">
       <defs>
        <path id="DejaVuSans-31" d="M 794 531 
L 1825 531 
L 1825 4091 
L 703 3866 
L 703 4441 
L 1819 4666 
L 2450 4666 
L 2450 531 
L 3481 531 
L 3481 0 
L 794 0 
L 794 531 
z
" transform="scale(0.015625)"/>
       </defs>
       <use xlink:href="#DejaVuSans-31"/>
       <use xlink:href="#DejaVuSans-30" transform="translate(63.623047 0)"/>
       <use xlink:href="#DejaVuSans-30" transform="translate(127.246094 0)"/>
       <use xlink:href="#DejaVuSans-30" transform="translate(190.869141 0)"/>
       <use xlink:href="#DejaVuSans-30" transform="translate(254.492188 0)"/>
       <use xlink:href="#DejaVuSans-30" transform="translate(318.115234 0)"/>
      </g>
     </g>
    </g>
    <g id="text_7">
     <!-- Step -->
     <g transform="translate(374.499844 418.316562) scale(0.1 -0.1)">
      <defs>
       <path id="DejaVuSans-53" d="M 3425 4513 
L 3425 3897 
Q 3066 4069 2747 4153 
Q 2428 4238 2131 4238 
Q 1616 4238 1336 4038 
Q 1056 3838 1056 3469 
Q 1056 3159 1242 3001 
Q 1428 2844 1947 2747 
L 2328 2669 
Q 3034 2534 3370 2195 
Q 3706 1856 3706 1288 
Q 3706 609 3251 259 
Q 2797 -91 1919 -91 
Q 1588 -91 1214 -16 
Q 841 59 441 206 
L 441 856 
Q 825 641 1194 531 
Q 1563 422 1919 422 
Q 2459 422 2753 634 
Q 3047 847 3047 1241 
Q 3047 1584 2836 1778 
Q 2625 1972 2144 2069 
L 1759 2144 
Q 1053 2284 737 2584 
Q 422 2884 422 3419 
Q 422 4038 858 4394 
Q 1294 4750 2059 4750 
Q 2388 4750 2728 4690 
Q 3069 4631 3425 4513 
z
" transform="scale(0.015625)"/>
       <path id="DejaVuSans-74" d="M 1172 4494 
L 1172 3500 
L 2356 3500 
L 2356 3053 
L 1172 3053 
L 1172 1153 
Q 1172 725 1289 603 
Q 1406 481 1766 481 
L 2356 481 
L 2356 0 
L 1766 0 
Q 1100 0 847 248 
Q 594 497 594 1153 
L 594 3053 
L 172 3053 
L 172 3500 
L 594 3500 
L 594 4494 
L 1172 4494 
z
" transform="scale(0.015625)"/>
       <path id="DejaVuSans-65" d="M 3597 1894 
L 3597 1613 
L 953 1613 
Q 991 1019 1311 708 
Q 1631 397 2203 397 
Q 2534 397 2845 478 
Q 3156 559 3463 722 
L 3463 178 
Q 3153 47 2828 -22 
Q 2503 -91 2169 -91 
Q 1331 -91 842 396 
Q 353 884 353 1716 
Q 353 2575 817 3079 
Q 1281 3584 2069 3584 
Q 2775 3584 3186 3129 
Q 3597 2675 3597 1894 
z
M 3022 2063 
Q 3016 2534 2758 2815 
Q 2500 3097 2075 3097 
Q 1594 3097 1305 2825 
Q 1016 2553 972 2059 
L 3022 2063 
z
" transform="scale(0.015625)"/>
       <path id="DejaVuSans-70" d="M 1159 525 
L 1159 -1331 
L 581 -1331 
L 581 3500 
L 1159 3500 
L 1159 2969 
Q 1341 3281 1617 3432 
Q 1894 3584 2278 3584 
Q 2916 3584 3314 3078 
Q 3713 2572 3713 1747 
Q 3713 922 3314 415 
Q 2916 -91 2278 -91 
Q 1894 -91 1617 61 
Q 1341 213 1159 525 
z
M 3116 1747 
Q 3116 2381 2855 2742 
Q 2594 3103 2138 3103 
Q 1681 3103 1420 2742 
Q 1159 2381 1159 1747 
Q 1159 1113 1420 752 
Q 1681 391 2138 391 
Q 2594 391 2855 752 
Q 3116 1113 3116 1747 
z
" transform="scale(0.015625)"/>
      </defs>
      <use xlink:href="#DejaVuSans-53"/>
      <use xlink:href="#DejaVuSans-74" transform="translate(63.476562 0)"/>
      <use xlink:href="#DejaVuSans-65" transform="translate(102.685547 0)"/>
      <use xlink:href="#DejaVuSans-70" transform="translate(164.208984 0)"/>
     </g>
    </g>
   </g>
   <g id="matplotlib.axis_2">
    <g id="ytick_1">
     <g id="line2d_7">
      <defs>
       <path id="mf67418ca00" d="M 0 0 
L -3.5 0 
" style="stroke: #000000; stroke-width: 0.8"/>
      </defs>
      <g>
       <use xlink:href="#mf67418ca00" x="62.57" y="373.467273" style="stroke: #000000; stroke-width: 0.8"/>
      </g>
     </g>
     <g id="text_8">
      <!-- −0.01 -->
      <g transform="translate(24.924688 377.266491) scale(0.1 -0.1)">
       <defs>
        <path id="DejaVuSans-2212" d="M 678 2272 
L 4684 2272 
L 4684 1741 
L 678 1741 
L 678 2272 
z
" transform="scale(0.015625)"/>
        <path id="DejaVuSans-2e" d="M 684 794 
L 1344 794 
L 1344 0 
L 684 0 
L 684 794 
z
" transform="scale(0.015625)"/>
       </defs>
       <use xlink:href="#DejaVuSans-2212"/>
       <use xlink:href="#DejaVuSans-30" transform="translate(83.789062 0)"/>
       <use xlink:href="#DejaVuSans-2e" transform="translate(147.412109 0)"/>
       <use xlink:href="#DejaVuSans-30" transform="translate(179.199219 0)"/>
       <use xlink:href="#DejaVuSans-31" transform="translate(242.822266 0)"/>
      </g>
     </g>
    </g>
    <g id="ytick_2">
     <g id="line2d_8">
      <g>
       <use xlink:href="#mf67418ca00" x="62.57" y="328.877072" style="stroke: #000000; stroke-width: 0.8"/>
      </g>
     </g>
     <g id="text_9">
      <!-- 0.00 -->
      <g transform="translate(33.304375 332.676291) scale(0.1 -0.1)">
       <use xlink:href="#DejaVuSans-30"/>
       <use xlink:href="#DejaVuSans-2e" transform="translate(63.623047 0)"/>
       <use xlink:href="#DejaVuSans-30" transform="translate(95.410156 0)"/>
       <use xlink:href="#DejaVuSans-30" transform="translate(159.033203 0)"/>
      </g>
     </g>
    </g>
    <g id="ytick_3">
     <g id="line2d_9">
      <g>
       <use xlink:href="#mf67418ca00" x="62.57" y="284.286872" style="stroke: #000000; stroke-width: 0.8"/>
      </g>
     </g>
     <g id="text_10">
      <!-- 0.01 -->
      <g transform="translate(33.304375 288.086091) scale(0.1 -0.1)">
       <use xlink:href="#DejaVuSans-30"/>
       <use xlink:href="#DejaVuSans-2e" transform="translate(63.623047 0)"/>
       <use xlink:href="#DejaVuSans-30" transform="translate(95.410156 0)"/>
       <use xlink:href="#DejaVuSans-31" transform="translate(159.033203 0)"/>
      </g>
     </g>
    </g>
    <g id="ytick_4">
     <g id="line2d_10">
      <g>
       <use xlink:href="#mf67418ca00" x="62.57" y="239.696672" style="stroke: #000000; stroke-width: 0.8"/>
      </g>
     </g>
     <g id="text_11">
      <!-- 0.02 -->
      <g transform="translate(33.304375 243.495891) scale(0.1 -0.1)">
       <use xlink:href="#DejaVuSans-30"/>
       <use xlink:href="#DejaVuSans-2e" transform="translate(63.623047 0)"/>
       <use xlink:href="#DejaVuSans-30" transform="translate(95.410156 0)"/>
       <use xlink:href="#DejaVuSans-32" transform="translate(159.033203 0)"/>
      </g>
     </g>
    </g>
    <g id="ytick_5">
     <g id="line2d_11">
      <g>
       <use xlink:href="#mf67418ca00" x="62.57" y="195.106472" style="stroke: #000000; stroke-width: 0.8"/>
      </g>
     </g>
     <g id="text_12">
      <!-- 0.03 -->
      <g transform="translate(33.304375 198.90569) scale(0.1 -0.1)">
       <defs>
        <path id="DejaVuSans-33" d="M 2597 2516 
Q 3050 2419 3304 2112 
Q 3559 1806 3559 1356 
Q 3559 666 3084 287 
Q 2609 -91 1734 -91 
Q 1441 -91 1130 -33 
Q 819 25 488 141 
L 488 750 
Q 750 597 1062 519 
Q 1375 441 1716 441 
Q 2309 441 2620 675 
Q 2931 909 2931 1356 
Q 2931 1769 2642 2001 
Q 2353 2234 1838 2234 
L 1294 2234 
L 1294 2753 
L 1863 2753 
Q 2328 2753 2575 2939 
Q 2822 3125 2822 3475 
Q 2822 3834 2567 4026 
Q 2313 4219 1838 4219 
Q 1578 4219 1281 4162 
Q 984 4106 628 3988 
L 628 4550 
Q 988 4650 1302 4700 
Q 1616 4750 1894 4750 
Q 2613 4750 3031 4423 
Q 3450 4097 3450 3541 
Q 3450 3153 3228 2886 
Q 3006 2619 2597 2516 
z
" transform="scale(0.015625)"/>
       </defs>
       <use xlink:href="#DejaVuSans-30"/>
       <use xlink:href="#DejaVuSans-2e" transform="translate(63.623047 0)"/>
       <use xlink:href="#DejaVuSans-30" transform="translate(95.410156 0)"/>
       <use xlink:href="#DejaVuSans-33" transform="translate(159.033203 0)"/>
      </g>
     </g>
    </g>
    <g id="ytick_6">
     <g id="line2d_12">
      <g>
       <use xlink:href="#mf67418ca00" x="62.57" y="150.516271" style="stroke: #000000; stroke-width: 0.8"/>
      </g>
     </g>
     <g id="text_13">
      <!-- 0.04 -->
      <g transform="translate(33.304375 154.31549) scale(0.1 -0.1)">
       <use xlink:href="#DejaVuSans-30"/>
       <use xlink:href="#DejaVuSans-2e" transform="translate(63.623047 0)"/>
       <use xlink:href="#DejaVuSans-30" transform="translate(95.410156 0)"/>
       <use xlink:href="#DejaVuSans-34" transform="translate(159.033203 0)"/>
      </g>
     </g>
    </g>
    <g id="ytick_7">
     <g id="line2d_13">
      <g>
       <use xlink:href="#mf67418ca00" x="62.57" y="105.926071" style="stroke: #000000; stroke-width: 0.8"/>
      </g>
     </g>
     <g id="text_14">
      <!-- 0.05 -->
      <g transform="translate(33.304375 109.72529) scale(0.1 -0.1)">
       <defs>
        <path id="DejaVuSans-35" d="M 691 4666 
L 3169 4666 
L 3169 4134 
L 1269 4134 
L 1269 2991 
Q 1406 3038 1543 3061 
Q 1681 3084 1819 3084 
Q 2600 3084 3056 2656 
Q 3513 2228 3513 1497 
Q 3513 744 3044 326 
Q 2575 -91 1722 -91 
Q 1428 -91 1123 -41 
Q 819 9 494 109 
L 494 744 
Q 775 591 1075 516 
Q 1375 441 1709 441 
Q 2250 441 2565 725 
Q 2881 1009 2881 1497 
Q 2881 1984 2565 2268 
Q 2250 2553 1709 2553 
Q 1456 2553 1204 2497 
Q 953 2441 691 2322 
L 691 4666 
z
" transform="scale(0.015625)"/>
       </defs>
       <use xlink:href="#DejaVuSans-30"/>
       <use xlink:href="#DejaVuSans-2e" transform="translate(63.623047 0)"/>
       <use xlink:href="#DejaVuSans-30" transform="translate(95.410156 0)"/>
       <use xlink:href="#DejaVuSans-35" transform="translate(159.033203 0)"/>
      </g>
     </g>
    </g>
    <g id="ytick_8">
     <g id="line2d_14">
      <g>
       <use xlink:href="#mf67418ca00" x="62.57" y="61.335871" style="stroke: #000000; stroke-width: 0.8"/>
      </g>
     </g>
     <g id="text_15">
      <!-- 0.06 -->
      <g transform="translate(33.304375 65.135089) scale(0.1 -0.1)">
       <use xlink:href="#DejaVuSans-30"/>
       <use xlink:href="#DejaVuSans-2e" transform="translate(63.623047 0)"/>
       <use xlink:href="#DejaVuSans-30" transform="translate(95.410156 0)"/>
       <use xlink:href="#DejaVuSans-36" transform="translate(159.033203 0)"/>
      </g>
     </g>
    </g>
    <g id="text_16">
     <!-- Normalized (human) Episodic Return -->
     <g transform="translate(18.845 299.495469) rotate(-90) scale(0.1 -0.1)">
      <defs>
       <path id="DejaVuSans-4e" d="M 628 4666 
L 1478 4666 
L 3547 763 
L 3547 4666 
L 4159 4666 
L 4159 0 
L 3309 0 
L 1241 3903 
L 1241 0 
L 628 0 
L 628 4666 
z
" transform="scale(0.015625)"/>
       <path id="DejaVuSans-6f" d="M 1959 3097 
Q 1497 3097 1228 2736 
Q 959 2375 959 1747 
Q 959 1119 1226 758 
Q 1494 397 1959 397 
Q 2419 397 2687 759 
Q 2956 1122 2956 1747 
Q 2956 2369 2687 2733 
Q 2419 3097 1959 3097 
z
M 1959 3584 
Q 2709 3584 3137 3096 
Q 3566 2609 3566 1747 
Q 3566 888 3137 398 
Q 2709 -91 1959 -91 
Q 1206 -91 779 398 
Q 353 888 353 1747 
Q 353 2609 779 3096 
Q 1206 3584 1959 3584 
z
" transform="scale(0.015625)"/>
       <path id="DejaVuSans-72" d="M 2631 2963 
Q 2534 3019 2420 3045 
Q 2306 3072 2169 3072 
Q 1681 3072 1420 2755 
Q 1159 2438 1159 1844 
L 1159 0 
L 581 0 
L 581 3500 
L 1159 3500 
L 1159 2956 
Q 1341 3275 1631 3429 
Q 1922 3584 2338 3584 
Q 2397 3584 2469 3576 
Q 2541 3569 2628 3553 
L 2631 2963 
z
" transform="scale(0.015625)"/>
       <path id="DejaVuSans-6d" d="M 3328 2828 
Q 3544 3216 3844 3400 
Q 4144 3584 4550 3584 
Q 5097 3584 5394 3201 
Q 5691 2819 5691 2113 
L 5691 0 
L 5113 0 
L 5113 2094 
Q 5113 2597 4934 2840 
Q 4756 3084 4391 3084 
Q 3944 3084 3684 2787 
Q 3425 2491 3425 1978 
L 3425 0 
L 2847 0 
L 2847 2094 
Q 2847 2600 2669 2842 
Q 2491 3084 2119 3084 
Q 1678 3084 1418 2786 
Q 1159 2488 1159 1978 
L 1159 0 
L 581 0 
L 581 3500 
L 1159 3500 
L 1159 2956 
Q 1356 3278 1631 3431 
Q 1906 3584 2284 3584 
Q 2666 3584 2933 3390 
Q 3200 3197 3328 2828 
z
" transform="scale(0.015625)"/>
       <path id="DejaVuSans-61" d="M 2194 1759 
Q 1497 1759 1228 1600 
Q 959 1441 959 1056 
Q 959 750 1161 570 
Q 1363 391 1709 391 
Q 2188 391 2477 730 
Q 2766 1069 2766 1631 
L 2766 1759 
L 2194 1759 
z
M 3341 1997 
L 3341 0 
L 2766 0 
L 2766 531 
Q 2569 213 2275 61 
Q 1981 -91 1556 -91 
Q 1019 -91 701 211 
Q 384 513 384 1019 
Q 384 1609 779 1909 
Q 1175 2209 1959 2209 
L 2766 2209 
L 2766 2266 
Q 2766 2663 2505 2880 
Q 2244 3097 1772 3097 
Q 1472 3097 1187 3025 
Q 903 2953 641 2809 
L 641 3341 
Q 956 3463 1253 3523 
Q 1550 3584 1831 3584 
Q 2591 3584 2966 3190 
Q 3341 2797 3341 1997 
z
" transform="scale(0.015625)"/>
       <path id="DejaVuSans-6c" d="M 603 4863 
L 1178 4863 
L 1178 0 
L 603 0 
L 603 4863 
z
" transform="scale(0.015625)"/>
       <path id="DejaVuSans-69" d="M 603 3500 
L 1178 3500 
L 1178 0 
L 603 0 
L 603 3500 
z
M 603 4863 
L 1178 4863 
L 1178 4134 
L 603 4134 
L 603 4863 
z
" transform="scale(0.015625)"/>
       <path id="DejaVuSans-7a" d="M 353 3500 
L 3084 3500 
L 3084 2975 
L 922 459 
L 3084 459 
L 3084 0 
L 275 0 
L 275 525 
L 2438 3041 
L 353 3041 
L 353 3500 
z
" transform="scale(0.015625)"/>
       <path id="DejaVuSans-64" d="M 2906 2969 
L 2906 4863 
L 3481 4863 
L 3481 0 
L 2906 0 
L 2906 525 
Q 2725 213 2448 61 
Q 2172 -91 1784 -91 
Q 1150 -91 751 415 
Q 353 922 353 1747 
Q 353 2572 751 3078 
Q 1150 3584 1784 3584 
Q 2172 3584 2448 3432 
Q 2725 3281 2906 2969 
z
M 947 1747 
Q 947 1113 1208 752 
Q 1469 391 1925 391 
Q 2381 391 2643 752 
Q 2906 1113 2906 1747 
Q 2906 2381 2643 2742 
Q 2381 3103 1925 3103 
Q 1469 3103 1208 2742 
Q 947 2381 947 1747 
z
" transform="scale(0.015625)"/>
       <path id="DejaVuSans-20" transform="scale(0.015625)"/>
       <path id="DejaVuSans-28" d="M 1984 4856 
Q 1566 4138 1362 3434 
Q 1159 2731 1159 2009 
Q 1159 1288 1364 580 
Q 1569 -128 1984 -844 
L 1484 -844 
Q 1016 -109 783 600 
Q 550 1309 550 2009 
Q 550 2706 781 3412 
Q 1013 4119 1484 4856 
L 1984 4856 
z
" transform="scale(0.015625)"/>
       <path id="DejaVuSans-68" d="M 3513 2113 
L 3513 0 
L 2938 0 
L 2938 2094 
Q 2938 2591 2744 2837 
Q 2550 3084 2163 3084 
Q 1697 3084 1428 2787 
Q 1159 2491 1159 1978 
L 1159 0 
L 581 0 
L 581 4863 
L 1159 4863 
L 1159 2956 
Q 1366 3272 1645 3428 
Q 1925 3584 2291 3584 
Q 2894 3584 3203 3211 
Q 3513 2838 3513 2113 
z
" transform="scale(0.015625)"/>
       <path id="DejaVuSans-75" d="M 544 1381 
L 544 3500 
L 1119 3500 
L 1119 1403 
Q 1119 906 1312 657 
Q 1506 409 1894 409 
Q 2359 409 2629 706 
Q 2900 1003 2900 1516 
L 2900 3500 
L 3475 3500 
L 3475 0 
L 2900 0 
L 2900 538 
Q 2691 219 2414 64 
Q 2138 -91 1772 -91 
Q 1169 -91 856 284 
Q 544 659 544 1381 
z
M 1991 3584 
L 1991 3584 
z
" transform="scale(0.015625)"/>
       <path id="DejaVuSans-6e" d="M 3513 2113 
L 3513 0 
L 2938 0 
L 2938 2094 
Q 2938 2591 2744 2837 
Q 2550 3084 2163 3084 
Q 1697 3084 1428 2787 
Q 1159 2491 1159 1978 
L 1159 0 
L 581 0 
L 581 3500 
L 1159 3500 
L 1159 2956 
Q 1366 3272 1645 3428 
Q 1925 3584 2291 3584 
Q 2894 3584 3203 3211 
Q 3513 2838 3513 2113 
z
" transform="scale(0.015625)"/>
       <path id="DejaVuSans-29" d="M 513 4856 
L 1013 4856 
Q 1481 4119 1714 3412 
Q 1947 2706 1947 2009 
Q 1947 1309 1714 600 
Q 1481 -109 1013 -844 
L 513 -844 
Q 928 -128 1133 580 
Q 1338 1288 1338 2009 
Q 1338 2731 1133 3434 
Q 928 4138 513 4856 
z
" transform="scale(0.015625)"/>
       <path id="DejaVuSans-45" d="M 628 4666 
L 3578 4666 
L 3578 4134 
L 1259 4134 
L 1259 2753 
L 3481 2753 
L 3481 2222 
L 1259 2222 
L 1259 531 
L 3634 531 
L 3634 0 
L 628 0 
L 628 4666 
z
" transform="scale(0.015625)"/>
       <path id="DejaVuSans-73" d="M 2834 3397 
L 2834 2853 
Q 2591 2978 2328 3040 
Q 2066 3103 1784 3103 
Q 1356 3103 1142 2972 
Q 928 2841 928 2578 
Q 928 2378 1081 2264 
Q 1234 2150 1697 2047 
L 1894 2003 
Q 2506 1872 2764 1633 
Q 3022 1394 3022 966 
Q 3022 478 2636 193 
Q 2250 -91 1575 -91 
Q 1294 -91 989 -36 
Q 684 19 347 128 
L 347 722 
Q 666 556 975 473 
Q 1284 391 1588 391 
Q 1994 391 2212 530 
Q 2431 669 2431 922 
Q 2431 1156 2273 1281 
Q 2116 1406 1581 1522 
L 1381 1569 
Q 847 1681 609 1914 
Q 372 2147 372 2553 
Q 372 3047 722 3315 
Q 1072 3584 1716 3584 
Q 2034 3584 2315 3537 
Q 2597 3491 2834 3397 
z
" transform="scale(0.015625)"/>
       <path id="DejaVuSans-63" d="M 3122 3366 
L 3122 2828 
Q 2878 2963 2633 3030 
Q 2388 3097 2138 3097 
Q 1578 3097 1268 2742 
Q 959 2388 959 1747 
Q 959 1106 1268 751 
Q 1578 397 2138 397 
Q 2388 397 2633 464 
Q 2878 531 3122 666 
L 3122 134 
Q 2881 22 2623 -34 
Q 2366 -91 2075 -91 
Q 1284 -91 818 406 
Q 353 903 353 1747 
Q 353 2603 823 3093 
Q 1294 3584 2113 3584 
Q 2378 3584 2631 3529 
Q 2884 3475 3122 3366 
z
" transform="scale(0.015625)"/>
       <path id="DejaVuSans-52" d="M 2841 2188 
Q 3044 2119 3236 1894 
Q 3428 1669 3622 1275 
L 4263 0 
L 3584 0 
L 2988 1197 
Q 2756 1666 2539 1819 
Q 2322 1972 1947 1972 
L 1259 1972 
L 1259 0 
L 628 0 
L 628 4666 
L 2053 4666 
Q 2853 4666 3247 4331 
Q 3641 3997 3641 3322 
Q 3641 2881 3436 2590 
Q 3231 2300 2841 2188 
z
M 1259 4147 
L 1259 2491 
L 2053 2491 
Q 2509 2491 2742 2702 
Q 2975 2913 2975 3322 
Q 2975 3731 2742 3939 
Q 2509 4147 2053 4147 
L 1259 4147 
z
" transform="scale(0.015625)"/>
      </defs>
      <use xlink:href="#DejaVuSans-4e"/>
      <use xlink:href="#DejaVuSans-6f" transform="translate(74.804688 0)"/>
      <use xlink:href="#DejaVuSans-72" transform="translate(135.986328 0)"/>
      <use xlink:href="#DejaVuSans-6d" transform="translate(175.349609 0)"/>
      <use xlink:href="#DejaVuSans-61" transform="translate(272.761719 0)"/>
      <use xlink:href="#DejaVuSans-6c" transform="translate(334.041016 0)"/>
      <use xlink:href="#DejaVuSans-69" transform="translate(361.824219 0)"/>
      <use xlink:href="#DejaVuSans-7a" transform="translate(389.607422 0)"/>
      <use xlink:href="#DejaVuSans-65" transform="translate(442.097656 0)"/>
      <use xlink:href="#DejaVuSans-64" transform="translate(503.621094 0)"/>
      <use xlink:href="#DejaVuSans-20" transform="translate(567.097656 0)"/>
      <use xlink:href="#DejaVuSans-28" transform="translate(598.884766 0)"/>
      <use xlink:href="#DejaVuSans-68" transform="translate(637.898438 0)"/>
      <use xlink:href="#DejaVuSans-75" transform="translate(701.277344 0)"/>
      <use xlink:href="#DejaVuSans-6d" transform="translate(764.65625 0)"/>
      <use xlink:href="#DejaVuSans-61" transform="translate(862.068359 0)"/>
      <use xlink:href="#DejaVuSans-6e" transform="translate(923.347656 0)"/>
      <use xlink:href="#DejaVuSans-29" transform="translate(986.726562 0)"/>
      <use xlink:href="#DejaVuSans-20" transform="translate(1025.740234 0)"/>
      <use xlink:href="#DejaVuSans-45" transform="translate(1057.527344 0)"/>
      <use xlink:href="#DejaVuSans-70" transform="translate(1120.710938 0)"/>
      <use xlink:href="#DejaVuSans-69" transform="translate(1184.1875 0)"/>
      <use xlink:href="#DejaVuSans-73" transform="translate(1211.970703 0)"/>
      <use xlink:href="#DejaVuSans-6f" transform="translate(1264.070312 0)"/>
      <use xlink:href="#DejaVuSans-64" transform="translate(1325.251953 0)"/>
      <use xlink:href="#DejaVuSans-69" transform="translate(1388.728516 0)"/>
      <use xlink:href="#DejaVuSans-63" transform="translate(1416.511719 0)"/>
      <use xlink:href="#DejaVuSans-20" transform="translate(1471.492188 0)"/>
      <use xlink:href="#DejaVuSans-52" transform="translate(1503.279297 0)"/>
      <use xlink:href="#DejaVuSans-65" transform="translate(1568.261719 0)"/>
      <use xlink:href="#DejaVuSans-74" transform="translate(1629.785156 0)"/>
      <use xlink:href="#DejaVuSans-75" transform="translate(1668.994141 0)"/>
      <use xlink:href="#DejaVuSans-72" transform="translate(1732.373047 0)"/>
      <use xlink:href="#DejaVuSans-6e" transform="translate(1771.736328 0)"/>
     </g>
    </g>
   </g>
   <g id="line2d_15">
    <path d="M 122.763264 373.467273 
L 124.405898 373.467273 
L 124.953443 369.76577 
L 126.048533 345.089082 
L 126.596078 336.308772 
L 128.238713 336.308772 
L 129.333802 301.615332 
L 129.881347 319.924198 
L 130.976437 247.151109 
L 131.523982 223.533866 
L 132.071527 207.234333 
L 133.166617 205.244823 
L 133.714161 177.534753 
L 134.809251 104.827622 
L 135.356796 76.2484 
L 135.904341 57.283747 
L 136.451886 52.071625 
L 136.999431 94.499222 
L 137.546976 59.779335 
L 138.09452 56.470781 
L 139.18961 92.880231 
L 139.737155 94.713537 
L 140.832245 42.012727 
L 141.37979 46.839567 
L 150.140508 145.14315 
L 161.63895 259.768912 
L 164.376675 279.635959 
L 164.924219 284.944118 
L 166.019309 325.201664 
L 166.566854 317.710166 
L 167.661944 298.927176 
L 168.209489 294.60155 
L 169.304578 274.826948 
L 169.852123 259.78973 
L 170.399668 227.178405 
L 170.947213 213.524076 
L 172.042303 244.133897 
L 172.589848 250.891479 
L 173.137393 202.828266 
L 173.684937 183.458875 
L 174.232482 235.133206 
L 174.780027 202.976039 
L 176.422662 197.793935 
L 176.970207 211.113533 
L 178.065297 245.659243 
L 178.612841 233.755111 
L 179.160386 197.191365 
L 179.707931 290.239779 
L 180.255476 254.345529 
L 184.08829 212.456717 
L 184.635835 209.277961 
L 187.373559 216.295979 
L 187.921104 221.10114 
L 193.944098 297.82172 
L 202.704816 358.243513 
L 203.252361 355.981486 
L 204.894996 347.025361 
L 205.44254 342.451761 
L 206.53763 318.694302 
L 208.72781 287.345317 
L 209.275355 279.397304 
L 209.822899 308.607791 
L 210.917989 291.420544 
L 212.560624 260.173499 
L 213.108169 251.972002 
L 213.655714 257.971824 
L 214.203258 262.598441 
L 216.393438 251.64109 
L 218.036073 281.847897 
L 218.583618 283.537201 
L 219.131162 284.205966 
L 220.226252 291.981833 
L 221.868887 288.40976 
L 222.416432 285.346481 
L 222.963977 279.91783 
L 223.511521 270.160369 
L 225.154156 171.292738 
L 225.701701 137.309448 
L 226.249246 118.059119 
L 226.796791 132.486872 
L 227.344336 114.582823 
L 227.89188 111.735982 
L 233.367329 119.822644 
L 233.914874 126.135909 
L 238.295233 203.156854 
L 244.318227 288.935548 
L 245.960861 309.304568 
L 246.508406 313.696081 
L 247.055951 315.680346 
L 247.603496 315.684533 
L 248.151041 315.274633 
L 250.34122 307.104805 
L 250.888765 312.700683 
L 251.983855 334.127053 
L 253.078945 304.344844 
L 253.62649 334.609215 
L 258.006849 290.317725 
L 258.554394 286.436235 
L 260.744573 288.619619 
L 261.292118 367.431103 
L 261.839663 363.886405 
L 262.387208 352.852838 
L 262.934753 307.621868 
L 263.482298 295.700723 
L 264.029842 294.170352 
L 269.505291 295.537752 
L 270.052836 302.221437 
L 270.600381 305.403129 
L 271.695471 303.997274 
L 272.79056 304.821361 
L 273.338105 305.279299 
L 273.88565 305.090032 
L 277.718464 274.707885 
L 283.741458 301.781171 
L 287.026727 316.574317 
L 287.574272 314.755745 
L 289.216907 305.753253 
L 290.311997 297.532449 
L 290.859541 288.576494 
L 291.954631 307.629407 
L 292.502176 314.149766 
L 293.049721 310.313448 
L 293.597266 308.768196 
L 294.144811 315.298626 
L 294.692356 319.312568 
L 295.2399 319.092131 
L 297.977625 251.466841 
L 298.52517 246.75573 
L 300.167804 265.796917 
L 300.715349 270.541398 
L 302.357984 262.0182 
L 305.095708 270.410495 
L 305.643253 206.316789 
L 306.190798 214.692202 
L 306.738343 233.652766 
L 307.285888 239.999526 
L 307.833433 241.686409 
L 308.380978 242.380356 
L 314.403971 234.098428 
L 316.046606 157.681972 
L 316.594151 156.655405 
L 319.331875 209.83603 
L 321.522055 260.025019 
L 322.069599 266.898031 
L 328.092593 235.606245 
L 328.640138 238.228468 
L 329.187683 237.524621 
L 329.735228 310.853345 
L 330.282773 360.208012 
L 331.377862 371.879419 
L 331.925407 363.161016 
L 333.568042 319.936103 
L 334.115587 270.376215 
L 334.663132 272.628397 
L 336.305766 317.580652 
L 336.853311 317.241338 
L 340.13858 278.688142 
L 341.23367 258.699123 
L 345.066484 241.312819 
L 345.614029 236.314419 
L 346.709119 228.786867 
L 347.256664 230.007642 
L 348.351754 260.918323 
L 348.899299 269.532758 
L 352.732113 271.939704 
L 353.279658 269.363931 
L 357.112472 230.979989 
L 358.755106 214.847959 
L 359.850196 170.631391 
L 360.945286 123.124191 
L 361.492831 124.491883 
L 362.040376 142.157003 
L 363.135465 187.594505 
L 364.7781 224.250539 
L 365.87319 273.670158 
L 366.968279 325.765387 
L 367.515824 333.869798 
L 369.158459 348.62062 
L 369.706004 320.388656 
L 370.253549 321.280921 
L 370.801094 361.818486 
L 372.991273 354.037548 
L 373.538818 351.340881 
L 375.728998 337.239248 
L 377.371632 290.822645 
L 377.919177 286.369669 
L 378.466722 286.204333 
L 384.489716 289.070063 
L 385.03726 311.50208 
L 385.584805 316.44478 
L 386.13235 297.929561 
L 386.679895 291.308974 
L 388.870075 304.453529 
L 389.417619 306.655926 
L 399.820972 230.746095 
L 400.368517 225.672412 
L 400.916062 230.302112 
L 406.939056 306.428111 
L 407.4866 295.766995 
L 408.034145 266.550062 
L 409.129235 258.079314 
L 409.67678 277.109848 
L 410.224325 251.620748 
L 410.77187 288.551722 
L 411.319415 268.685403 
L 411.866959 259.020493 
L 414.057139 270.469328 
L 414.604684 264.401707 
L 416.247319 235.58742 
L 416.794863 230.068658 
L 417.342408 237.508049 
L 418.985043 265.655043 
L 419.532588 270.446363 
L 420.080133 272.11723 
L 420.627678 269.770962 
L 422.817857 246.149725 
L 423.365402 250.620756 
L 424.460492 270.197152 
L 425.008037 277.211666 
L 425.555581 277.56117 
L 429.388396 276.244163 
L 429.93594 280.07143 
L 430.483485 306.861824 
L 431.03103 312.425125 
L 434.316299 308.1246 
L 434.863844 305.696844 
L 436.506479 296.380371 
L 437.601569 272.152631 
L 439.791748 220.652704 
L 440.339293 212.372145 
L 441.434383 203.361325 
L 443.077018 191.018009 
L 443.624562 194.221491 
L 448.552466 302.42413 
L 449.100011 290.199098 
L 450.195101 255.223361 
L 452.38528 250.871453 
L 452.932825 257.830618 
L 455.123005 297.000704 
L 455.67055 301.824663 
L 456.765639 299.438796 
L 457.313184 373.467273 
L 457.860729 365.602557 
L 461.145999 264.652472 
L 461.693543 372.594566 
L 462.241088 369.877689 
L 463.336178 356.905607 
L 464.431268 329.987245 
L 465.526358 297.695309 
L 466.073902 277.081592 
L 466.621447 251.610751 
L 467.168992 244.563801 
L 476.477255 266.554907 
L 477.0248 266.740974 
L 477.572345 264.792489 
L 478.667435 262.483173 
L 479.21498 253.132554 
L 481.405159 191.440836 
L 481.952704 212.781866 
L 482.500249 246.000484 
L 483.047794 257.512666 
L 486.880608 197.054782 
L 487.428153 194.84922 
L 489.618332 253.854108 
L 491.808512 275.732626 
L 492.356057 303.073325 
L 492.903601 323.830385 
L 493.451146 329.300015 
L 493.998691 299.28495 
L 494.546236 297.11329 
L 495.093781 296.324339 
L 495.641326 293.263302 
L 498.926595 196.133191 
L 499.47414 216.525925 
L 500.021685 199.92336 
L 500.56923 191.233603 
L 504.949589 186.763188 
L 505.497134 188.715096 
L 506.044679 188.749247 
L 506.592223 144.522685 
L 508.234858 132.922786 
L 508.782403 132.108424 
L 516.995576 178.064611 
L 517.543121 213.706709 
L 518.090666 300.47288 
L 518.638211 289.651927 
L 521.92348 210.075479 
L 522.471025 208.165978 
L 523.566115 249.050456 
L 526.303839 336.308772 
L 528.494019 336.308772 
L 529.041563 300.503266 
L 530.136653 306.501072 
L 530.684198 306.169981 
L 532.326833 292.438162 
L 532.874378 256.504917 
L 533.421922 282.023004 
L 533.969467 323.9754 
L 534.517012 348.148252 
L 535.612102 367.895118 
L 536.159647 372.689179 
L 537.254737 364.908242 
L 537.802281 350.149987 
L 538.349826 330.836589 
L 538.897371 319.189165 
L 540.540006 339.115956 
L 541.087551 335.023651 
L 541.635096 332.480737 
L 545.46791 332.873959 
L 546.015455 328.448052 
L 546.563 320.547323 
L 547.110544 315.832542 
L 548.205634 299.838393 
L 548.753179 299.150272 
L 550.395814 299.150272 
L 550.943359 303.10464 
L 552.585993 330.094767 
L 553.133538 335.935673 
L 553.681083 334.72941 
L 554.228628 330.135363 
L 556.418807 302.278738 
L 557.513897 284.330077 
L 560.799166 278.209059 
L 561.346711 283.876506 
L 562.989346 311.333052 
L 563.536891 303.845618 
L 565.179525 266.039336 
L 565.72707 268.379536 
L 566.82216 282.234231 
L 567.369705 285.961493 
L 569.559884 259.708664 
L 570.107429 265.764634 
L 571.202519 294.689483 
L 571.750064 303.397633 
L 572.297609 308.53198 
L 573.392699 299.053971 
L 573.940243 294.029919 
L 574.487788 292.374462 
L 575.582878 321.89041 
L 576.130423 329.445245 
L 577.225513 329.386767 
L 577.773058 323.672564 
L 582.153417 261.746933 
L 582.700961 284.524784 
L 583.248506 297.184866 
L 583.796051 300.337727 
L 584.343596 293.714387 
L 587.628865 177.026175 
L 588.17641 166.045698 
L 589.819045 231.828303 
L 590.36659 234.400551 
L 590.914135 199.259826 
L 592.009224 227.764474 
L 596.389583 180.516868 
L 597.484673 328.819846 
L 600.769942 325.433156 
L 601.317487 323.976011 
L 601.865032 318.361948 
L 606.245391 250.425043 
L 606.792936 243.88411 
L 608.983116 226.366783 
L 609.530661 261.646327 
L 610.078205 263.139108 
L 610.62575 272.234542 
L 611.173295 306.788297 
L 613.91102 317.49283 
L 614.458564 277.79234 
L 615.006109 275.081089 
L 615.553654 267.663489 
L 617.196289 234.127263 
L 617.743834 226.009708 
L 618.838923 240.216389 
L 619.386468 244.571163 
L 619.934013 235.646874 
L 621.029103 202.670794 
L 623.219282 277.397274 
L 624.314372 311.340244 
L 624.861917 291.258439 
L 625.409462 284.644619 
L 628.147186 289.652832 
L 628.694731 301.910701 
L 629.242276 318.197575 
L 629.789821 325.263946 
L 630.337366 330.413695 
L 630.884911 322.361097 
L 632.527545 286.860332 
L 633.07509 281.245188 
L 634.17018 292.122517 
L 637.455449 326.658509 
L 638.002994 330.539963 
L 638.550539 328.900966 
L 639.645629 319.069594 
L 642.930898 287.277543 
L 644.025988 266.715106 
L 645.121078 244.973445 
L 645.668622 240.111186 
L 647.311257 286.591115 
L 647.858802 287.338599 
L 648.406347 278.327116 
L 650.048981 243.863717 
L 650.596526 237.982423 
L 651.144071 238.921415 
L 651.691616 241.635099 
L 653.334251 261.897846 
L 654.429341 255.684292 
L 654.976885 238.990146 
L 655.52443 212.312237 
L 659.357244 190.564797 
L 659.904789 188.587757 
L 661.547424 226.195246 
L 664.832693 261.689111 
L 667.570418 250.734505 
L 668.117962 253.957502 
L 668.665507 259.493938 
L 669.213052 272.160145 
L 669.760597 299.150272 
L 669.760597 299.150272 
" clip-path="url(#p05a9b262e9)" style="fill: none; stroke: #00008b; stroke-width: 1.5; stroke-linecap: square"/>
   </g>
   <g id="line2d_16">
    <path d="M 91.962273 224.833272 
L 92.550707 223.787637 
L 93.139141 227.130098 
L 96.669744 259.076636 
L 97.258178 261.309469 
L 98.435046 247.445841 
L 101.965649 249.10509 
L 102.554083 253.57134 
L 103.142517 261.663573 
L 104.319384 280.264531 
L 107.849988 334.641179 
L 108.438422 336.195834 
L 109.026855 323.874873 
L 112.557459 211.545859 
L 113.145893 187.443229 
L 113.734327 153.425495 
L 114.32276 128.128223 
L 116.088062 98.408632 
L 118.441798 137.053436 
L 119.618665 161.996727 
L 121.972401 195.182928 
L 124.326137 232.827801 
L 124.91457 245.163092 
L 125.503004 262.000252 
L 126.091438 284.133619 
L 127.85674 323.230384 
L 129.622042 359.276541 
L 130.210475 367.454351 
L 130.798909 372.39311 
L 131.387343 367.112444 
L 133.741079 307.877406 
L 134.917947 265.649944 
L 136.094814 221.807351 
L 137.271682 192.442723 
L 137.860116 192.387986 
L 138.44855 197.338926 
L 139.036984 207.060278 
L 141.390719 262.10481 
L 141.979153 283.198904 
L 142.567587 299.663958 
L 144.332889 336.707831 
L 145.509757 334.757295 
L 146.09819 330.344421 
L 146.686624 320.621464 
L 147.863492 294.926896 
L 149.628794 244.375092 
L 150.805662 209.905666 
L 151.394095 201.168631 
L 153.159397 235.128284 
L 156.69 283.003225 
L 157.278434 280.004631 
L 158.455302 257.156542 
L 159.043736 252.365839 
L 162.574339 252.4454 
L 163.162773 255.608869 
L 163.751207 259.666492 
L 164.928075 275.677509 
L 168.458678 325.95631 
L 169.047112 328.908002 
L 169.635546 328.67695 
L 170.22398 325.612301 
L 173.754583 301.213228 
L 174.343017 300.965495 
L 174.931451 301.882918 
L 175.519885 301.095637 
L 178.462054 287.193084 
L 179.050488 281.537114 
L 180.227356 259.347551 
L 180.81579 253.902185 
L 181.404224 251.362128 
L 184.346393 249.523802 
L 185.523261 264.945792 
L 186.111695 273.228226 
L 187.876997 312.992908 
L 189.053864 340.17302 
L 189.642298 344.888614 
L 190.230732 348.009394 
L 190.819166 349.535361 
L 191.4076 348.128939 
L 192.584468 326.846368 
L 194.349769 294.075232 
L 196.115071 273.244292 
L 197.291939 256.539194 
L 197.880373 256.126572 
L 199.05724 255.609264 
L 199.645674 258.530486 
L 203.176278 280.6449 
L 204.353145 273.11541 
L 204.941579 265.425812 
L 207.883749 196.196393 
L 208.472183 189.599591 
L 209.060617 185.414443 
L 211.414352 174.759126 
L 212.002786 180.477337 
L 213.179654 196.127319 
L 213.768088 208.773353 
L 214.356522 216.89189 
L 216.710257 266.796239 
L 218.475559 305.697832 
L 219.652427 323.573668 
L 221.417728 340.316878 
L 222.006162 342.959816 
L 223.18303 332.707382 
L 224.359898 314.084143 
L 224.948332 304.040409 
L 225.536765 300.036366 
L 228.478935 289.047861 
L 229.067369 288.324052 
L 230.244237 296.157186 
L 230.83267 294.549648 
L 232.597972 281.642815 
L 233.186406 275.489118 
L 234.363274 250.671787 
L 234.951708 245.9868 
L 235.540142 242.316928 
L 236.128575 241.477366 
L 237.893877 242.871063 
L 238.482311 244.056962 
L 239.070745 256.220587 
L 240.247613 271.476914 
L 240.836047 275.441586 
L 243.189782 273.934355 
L 243.778216 270.153069 
L 244.955084 255.784309 
L 245.543518 249.0362 
L 246.131951 246.794205 
L 248.485687 254.455056 
L 249.662555 246.355594 
L 250.250989 243.877349 
L 250.839423 240.168126 
L 252.01629 226.200166 
L 253.193158 220.512528 
L 254.370026 215.394927 
L 254.95846 214.460365 
L 255.546894 219.738227 
L 256.723761 251.264341 
L 257.900629 278.767663 
L 259.665931 316.531992 
L 260.254365 324.524377 
L 260.842799 328.601468 
L 261.431233 322.609477 
L 264.961836 256.55378 
L 265.55027 251.868258 
L 266.727138 246.456129 
L 267.315571 233.850129 
L 267.904005 228.277887 
L 268.492439 228.496523 
L 269.669307 231.503122 
L 270.257741 232.312143 
L 272.611476 205.767132 
L 273.19991 204.627313 
L 273.788344 205.66045 
L 275.553646 195.123912 
L 276.14208 194.94067 
L 278.495815 212.063531 
L 279.084249 214.353192 
L 279.672683 214.89877 
L 280.261117 219.118738 
L 281.437985 236.45657 
L 283.79172 255.42324 
L 284.380154 261.60076 
L 285.557022 279.819349 
L 286.73389 296.211073 
L 287.910758 306.55374 
L 289.087625 316.038068 
L 289.676059 318.558223 
L 293.206663 275.357373 
L 294.38353 267.838327 
L 295.560398 250.320772 
L 299.679435 240.429389 
L 300.267869 229.848999 
L 300.856303 215.677948 
L 303.210039 244.698917 
L 303.798473 249.477145 
L 304.97534 251.834682 
L 306.152208 237.551375 
L 310.271245 222.144533 
L 310.859679 223.271172 
L 311.448113 239.769038 
L 315.56715 328.569992 
L 316.155584 335.153577 
L 317.332452 327.118819 
L 320.274621 291.244215 
L 320.863055 282.177823 
L 322.039923 253.464157 
L 323.805225 199.231082 
L 326.747394 106.746306 
L 327.335828 103.421648 
L 327.924262 110.089316 
L 329.689564 154.289265 
L 330.277998 180.038531 
L 331.454865 241.903527 
L 332.043299 258.970093 
L 332.631733 271.591699 
L 334.985469 310.366948 
L 335.573903 305.344179 
L 336.75077 292.833124 
L 337.339204 284.673489 
L 338.516072 265.460259 
L 342.046675 169.980349 
L 342.635109 161.311637 
L 343.223543 160.816967 
L 345.577279 161.233464 
L 346.165713 170.922215 
L 346.754146 193.676817 
L 347.931014 225.386978 
L 349.696316 268.008544 
L 350.873184 305.457906 
L 354.992221 335.46839 
L 355.580655 336.186731 
L 356.169089 332.525266 
L 360.87656 277.53317 
L 361.464994 274.820901 
L 362.053428 279.393871 
L 363.818729 295.023127 
L 365.584031 310.253636 
L 366.172465 311.622631 
L 366.760899 308.865896 
L 367.937766 301.1391 
L 368.5262 303.53873 
L 369.703068 321.627527 
L 370.291502 327.939398 
L 370.879936 326.574285 
L 371.46837 322.723364 
L 372.645238 311.132219 
L 373.233671 301.800716 
L 376.175841 206.564176 
L 376.764275 198.747717 
L 377.941143 204.496096 
L 378.529576 206.674675 
L 380.883312 208.260564 
L 381.471746 204.372661 
L 382.648614 178.098347 
L 383.237048 175.533659 
L 384.413915 176.214687 
L 385.002349 177.110354 
L 389.121386 272.933363 
L 391.475122 299.897186 
L 394.417291 322.928982 
L 395.005725 330.557719 
L 396.182593 347.144434 
L 399.124762 351.274901 
L 399.713196 348.315421 
L 405.009101 280.79082 
L 407.362837 250.167277 
L 407.951271 251.599873 
L 410.89344 276.593221 
L 411.481874 283.272924 
L 412.070308 295.789249 
L 412.658742 305.160836 
L 413.247176 309.864811 
L 416.777779 306.366932 
L 417.366213 306.127322 
L 417.954647 304.068269 
L 422.073684 339.437566 
L 422.662118 340.198139 
L 423.250552 337.262746 
L 423.838986 339.704794 
L 426.781155 362.454338 
L 427.369589 364.20818 
L 427.958023 356.995873 
L 428.546457 344.889039 
L 432.665494 235.282726 
L 433.253928 227.225618 
L 433.842362 225.179958 
L 437.372965 258.025383 
L 437.961399 259.863814 
L 439.138267 261.067603 
L 443.845738 339.237255 
L 444.434172 340.624883 
L 445.022606 336.820861 
L 445.61104 340.564305 
L 449.141643 370.069409 
L 449.730077 373.467273 
L 455.614416 373.467273 
L 456.20285 370.45696 
L 461.498755 304.355021 
L 462.087189 302.004429 
L 465.029358 350.984977 
L 465.617792 358.794125 
L 466.206226 364.505828 
L 466.79466 351.767431 
L 470.913697 196.475507 
L 471.502131 182.057617 
L 472.090565 171.748618 
L 472.678999 171.241909 
L 475.621168 281.813579 
L 476.209602 293.736618 
L 477.38647 307.97232 
L 477.974904 303.214215 
L 481.505507 264.003665 
L 482.682375 267.077345 
L 485.624544 275.444063 
L 486.212978 275.714244 
L 486.801412 265.367492 
L 487.389846 252.003303 
L 489.155147 202.357835 
L 492.097317 193.06129 
L 492.685751 202.283158 
L 493.274185 215.293651 
L 493.862619 242.169882 
L 494.451052 261.577034 
L 496.804788 300.437191 
L 497.393222 306.700039 
L 497.981656 303.152196 
L 499.158524 288.711883 
L 503.865995 296.948379 
L 504.454429 304.136353 
L 506.808164 343.16632 
L 507.396598 348.978521 
L 508.573466 352.610187 
L 509.750334 329.651527 
L 512.104069 280.775557 
L 512.692503 271.020617 
L 513.280937 276.539393 
L 513.869371 283.91779 
L 516.81154 356.366895 
L 517.399974 365.444006 
L 517.988408 370.137717 
L 518.576842 372.428729 
L 525.049615 332.830284 
L 530.933953 266.695535 
L 531.522387 263.715819 
L 532.110821 265.37461 
L 536.818292 329.594728 
L 537.406726 335.673997 
L 542.114197 304.637628 
L 542.702631 303.243443 
L 543.291065 308.636358 
L 547.410102 371.327228 
L 547.998536 371.052487 
L 552.706007 343.717612 
L 553.882875 322.201408 
L 555.648177 273.627352 
L 558.590346 190.727773 
L 559.17878 184.8081 
L 560.944082 170.479276 
L 561.532516 185.408281 
L 565.651553 341.068026 
L 566.239987 353.27527 
L 569.182156 371.894757 
L 569.77059 371.513787 
L 571.535892 361.369728 
L 573.889627 320.652558 
L 575.654929 289.670001 
L 576.243363 283.580165 
L 577.420231 277.327186 
L 578.008665 274.952448 
L 581.539268 277.109693 
L 582.716136 258.530973 
L 583.893003 238.503109 
L 584.481437 235.865029 
L 588.012041 268.634011 
L 588.600475 278.415399 
L 589.777342 307.889807 
L 592.719512 327.471437 
L 593.307946 332.448953 
L 593.89638 332.411791 
L 594.484813 325.103276 
L 595.661681 302.857199 
L 598.603851 245.765547 
L 599.192285 238.872321 
L 599.780718 237.839416 
L 602.722888 282.555988 
L 603.311322 287.942866 
L 604.48819 296.084809 
L 605.076623 297.319888 
L 605.665057 289.909258 
L 606.253491 287.691049 
L 610.372528 292.998332 
L 610.960962 297.438361 
L 611.549396 308.46461 
L 615.08 340.729678 
L 615.668433 342.880947 
L 616.256867 338.823323 
L 616.845301 337.644545 
L 622.72964 372.769669 
L 623.318074 373.467273 
L 638.028921 373.467273 
L 639.794223 361.668235 
L 643.324826 337.585691 
L 643.91326 336.308772 
L 646.85543 336.308772 
L 647.443863 333.58546 
L 649.209165 322.374527 
L 652.151335 325.389914 
L 652.739768 327.543394 
L 653.916636 345.170045 
L 655.093504 354.329635 
L 657.44724 371.538096 
L 658.035673 371.102554 
L 662.743145 336.804858 
L 663.331578 340.207959 
L 665.09688 352.614095 
L 667.450616 355.385978 
L 668.03905 354.06296 
L 670.392785 339.197191 
L 670.981219 337.174039 
L 676.277124 372.126477 
L 676.865558 373.467273 
L 679.807727 373.467273 
L 679.807727 373.467273 
" clip-path="url(#p05a9b262e9)" style="fill: none; stroke: #ff8c00; stroke-width: 1.5; stroke-linecap: square"/>
   </g>
   <g id="line2d_17">
    <path d="M 92.074169 261.991772 
L 92.657757 261.991772 
L 93.241345 264.673808 
L 97.326462 296.106802 
L 97.91005 297.975228 
L 102.578754 214.542118 
L 103.74593 201.664704 
L 104.329518 208.253212 
L 107.831046 338.579517 
L 108.998223 373.173186 
L 110.165399 364.773795 
L 111.916163 351.512748 
L 112.499751 345.157763 
L 113.666927 322.364473 
L 114.250515 315.752707 
L 114.834103 312.626718 
L 117.752043 281.577281 
L 118.335631 280.79223 
L 118.919219 282.95702 
L 119.502807 278.731319 
L 121.253572 260.87152 
L 122.420748 255.524534 
L 123.004336 252.011474 
L 124.7551 230.917566 
L 125.338688 231.144071 
L 128.840216 312.519471 
L 129.423804 320.601632 
L 130.007392 319.469924 
L 130.59098 308.692259 
L 132.341744 258.75433 
L 132.925332 246.16944 
L 134.676097 188.525607 
L 135.843273 150.092035 
L 136.426861 153.446671 
L 137.594037 166.293928 
L 138.761213 172.000043 
L 139.344801 179.985104 
L 140.511977 216.947372 
L 141.095565 223.188048 
L 142.846329 216.767359 
L 143.429917 221.631439 
L 144.013505 231.858752 
L 144.597093 232.380466 
L 146.347857 216.05443 
L 146.931446 219.883435 
L 148.098622 240.556951 
L 148.68221 237.843265 
L 149.849386 233.682908 
L 150.432974 233.964736 
L 151.60015 252.853755 
L 152.183738 251.910167 
L 154.51809 239.220916 
L 155.101678 236.777036 
L 155.685266 233.793552 
L 156.852442 225.528343 
L 157.43603 224.833272 
L 160.353971 224.833272 
L 160.937559 227.030865 
L 162.104735 235.408909 
L 162.688323 242.191645 
L 163.855499 258.445949 
L 164.439087 264.209712 
L 165.606263 264.60976 
L 166.189851 262.06949 
L 167.357027 254.091493 
L 167.940615 251.347681 
L 169.691379 233.621591 
L 170.274967 235.030557 
L 172.025731 241.085849 
L 172.60932 232.562411 
L 173.192908 220.987227 
L 173.776496 216.30601 
L 175.52726 215.159546 
L 176.110848 217.84435 
L 179.612376 275.034095 
L 180.195964 278.677216 
L 180.779552 275.227697 
L 181.946728 260.525422 
L 184.28108 218.758975 
L 185.448257 221.910652 
L 186.031845 228.069214 
L 187.199021 249.457425 
L 187.782609 263.824442 
L 188.949785 300.945595 
L 190.116961 321.71523 
L 190.700549 320.281452 
L 191.284137 318.084046 
L 192.451313 318.137171 
L 193.034901 316.973962 
L 193.618489 312.949753 
L 194.202077 307.934723 
L 195.369253 292.9454 
L 195.952841 290.308478 
L 196.536429 291.322983 
L 197.120017 291.260313 
L 200.037958 277.773611 
L 200.621546 277.842015 
L 202.37231 277.287372 
L 202.955898 278.139621 
L 205.29025 292.032252 
L 206.457426 278.064027 
L 208.791778 222.310299 
L 211.126131 180.644384 
L 211.709719 174.420397 
L 212.293307 178.328388 
L 214.044071 185.31676 
L 214.627659 185.748086 
L 216.962011 179.881789 
L 217.545599 181.596616 
L 218.129187 191.158003 
L 218.712775 207.80013 
L 222.214303 265.333467 
L 222.797891 270.501318 
L 223.381479 269.591047 
L 224.548656 262.455096 
L 225.132244 268.577589 
L 230.384536 335.936226 
L 230.968124 328.70013 
L 235.05324 310.832946 
L 235.636828 305.930474 
L 236.220416 289.599436 
L 237.387593 270.489558 
L 242.056297 198.172359 
L 242.639885 196.583075 
L 243.223473 211.420859 
L 246.141413 298.318834 
L 247.308589 324.704623 
L 247.892177 322.429838 
L 249.059353 297.087046 
L 253.728058 249.609414 
L 255.478822 269.276638 
L 257.813174 294.794223 
L 258.396762 298.337883 
L 263.065467 294.037129 
L 263.649055 292.686554 
L 264.816231 285.779486 
L 268.901347 238.787032 
L 269.484935 230.354016 
L 270.068523 228.713837 
L 271.235699 255.718745 
L 274.153639 304.920643 
L 274.737228 309.643603 
L 275.320816 306.42458 
L 276.487992 300.85318 
L 279.98952 303.27532 
L 280.573108 291.496694 
L 281.740284 262.398941 
L 282.90746 240.478085 
L 285.8254 188.932584 
L 286.408988 188.313322 
L 287.576165 220.470285 
L 289.910517 277.928431 
L 290.494105 282.159765 
L 291.661281 285.988411 
L 292.244869 284.169994 
L 293.412045 252.245692 
L 296.913573 151.94833 
L 297.497161 152.895572 
L 298.080749 155.926388 
L 302.749454 157.141155 
L 303.333042 160.518846 
L 303.91663 173.008593 
L 307.418158 282.39678 
L 308.001746 291.723108 
L 309.168922 299.797633 
L 310.919686 325.788696 
L 313.837627 370.115005 
L 314.421215 373.467273 
L 317.339155 373.467273 
L 317.922743 372.852011 
L 324.342211 262.415626 
L 325.509387 274.801762 
L 329.010916 308.070676 
L 329.594504 301.486973 
L 330.76168 295.170138 
L 334.263208 254.051059 
L 334.846796 241.362359 
L 335.430384 231.650636 
L 336.013972 227.015954 
L 336.59756 224.84045 
L 337.181148 224.919288 
L 339.515501 229.534275 
L 340.099089 222.44248 
L 340.682677 216.961547 
L 343.017029 200.596432 
L 343.600617 203.376013 
L 344.767793 212.623755 
L 345.934969 231.175961 
L 347.102145 247.801574 
L 348.269321 268.427831 
L 350.603673 280.648133 
L 351.77085 296.88675 
L 353.521614 319.077255 
L 356.439554 319.646426 
L 357.023142 312.173181 
L 358.773906 312.874707 
L 359.357494 319.060316 
L 361.691846 351.185807 
L 362.275434 357.377432 
L 364.609787 332.489549 
L 368.111315 228.563425 
L 368.694903 219.454164 
L 369.278491 212.616941 
L 370.445667 207.183665 
L 372.780019 254.353429 
L 375.114371 253.780431 
L 375.697959 252.605205 
L 376.281547 242.537804 
L 379.199488 166.67754 
L 382.117428 83.848275 
L 382.701016 70.635863 
L 383.284604 66.113789 
L 383.868192 62.528199 
L 384.45178 61.756176 
L 385.035368 66.814013 
L 387.36972 109.177942 
L 389.120484 151.852527 
L 390.287661 173.695908 
L 391.454837 203.852566 
L 393.205601 249.712402 
L 394.956365 285.764115 
L 395.539953 294.701716 
L 396.123541 299.150272 
L 397.874305 299.150272 
L 401.375833 278.851175 
L 403.710186 278.698796 
L 404.293774 279.209052 
L 406.628126 292.80887 
L 407.211714 293.729038 
L 407.795302 291.820334 
L 412.464006 188.8259 
L 413.047594 180.67206 
L 414.21477 180.765983 
L 414.798358 183.222005 
L 415.965535 219.921254 
L 417.132711 253.419937 
L 417.716299 266.50555 
L 420.050651 296.215314 
L 420.634239 299.758756 
L 425.302943 335.72604 
L 425.886531 336.308772 
L 426.470119 336.308772 
L 427.053707 338.031274 
L 429.38806 356.769954 
L 429.971648 360.113686 
L 430.555236 360.633027 
L 431.138824 358.519071 
L 431.722412 353.273945 
L 434.640352 313.831777 
L 435.22394 307.613741 
L 436.391116 300.167531 
L 436.974704 299.150272 
L 439.892644 299.170641 
L 441.643409 311.694963 
L 442.226997 311.194065 
L 442.810585 312.599635 
L 445.144937 322.933977 
L 446.312113 319.969018 
L 446.895701 316.33893 
L 448.646465 257.612416 
L 453.315169 221.802998 
L 453.898757 207.080075 
L 454.482346 189.538901 
L 455.065934 181.137229 
L 459.15105 295.163347 
L 459.734638 296.905342 
L 462.652578 278.084482 
L 463.819754 270.630736 
L 464.403342 268.682969 
L 464.98693 267.692068 
L 466.154106 255.969006 
L 468.488459 231.444934 
L 469.072047 222.976016 
L 470.822811 190.93883 
L 471.406399 195.696242 
L 474.324339 233.520635 
L 475.491515 241.318044 
L 476.075103 246.002507 
L 476.658691 248.906324 
L 480.16022 210.5058 
L 480.743808 207.683278 
L 481.910984 193.286579 
L 482.494572 189.731901 
L 483.07816 198.488502 
L 484.245336 223.619133 
L 487.163276 289.530447 
L 487.746864 293.27023 
L 488.330452 293.709131 
L 490.664804 294.476722 
L 491.248392 296.167864 
L 492.415568 304.653201 
L 492.999157 310.109651 
L 493.582745 321.627104 
L 495.917097 341.82097 
L 496.500685 345.218704 
L 497.084273 341.884457 
L 497.667861 335.714219 
L 499.418625 298.519265 
L 501.169389 255.349796 
L 501.752977 246.06724 
L 502.336565 239.92654 
L 502.920153 236.330162 
L 506.421682 252.495011 
L 507.00527 268.351893 
L 507.588858 279.554278 
L 511.673974 338.692592 
L 512.257562 336.830744 
L 516.342678 369.665209 
L 516.926266 366.925983 
L 522.178559 304.042953 
L 522.762147 301.969449 
L 526.847263 367.806116 
L 527.430851 366.919573 
L 532.099556 272.983572 
L 532.683144 265.920756 
L 533.266732 267.957126 
L 536.76826 325.068288 
L 537.351848 330.327486 
L 537.935436 331.581204 
L 542.020552 332.322618 
L 542.60414 335.730609 
L 543.187728 336.308772 
L 546.689257 336.308772 
L 547.272845 337.69599 
L 547.856433 342.186418 
L 548.440021 345.377825 
L 551.357961 346.9324 
L 551.941549 347.091176 
L 552.525137 338.741456 
L 553.108725 327.241564 
L 553.692313 319.071719 
L 556.610253 301.198972 
L 557.77743 286.739604 
L 558.361018 285.487614 
L 558.944606 293.238189 
L 559.528194 299.115054 
L 561.862546 315.134034 
L 562.446134 322.351386 
L 563.029722 328.070773 
L 563.61331 329.905799 
L 564.196898 321.748343 
L 567.698426 254.441212 
L 568.865602 242.137361 
L 569.44919 236.600773 
L 570.032779 238.668725 
L 572.367131 283.627763 
L 572.950719 290.432682 
L 573.534307 293.561626 
L 574.117895 297.489017 
L 574.701483 303.218551 
L 578.786599 328.19438 
L 579.370187 329.38534 
L 581.120951 311.147657 
L 582.871716 292.844685 
L 585.206068 251.708985 
L 585.789656 239.368597 
L 586.373244 248.853745 
L 586.956832 256.294376 
L 587.54042 261.369761 
L 588.707596 279.140127 
L 590.45836 307.595568 
L 591.625536 292.536137 
L 593.3763 282.539348 
L 593.959888 281.296856 
L 596.877829 287.034899 
L 598.628593 311.755245 
L 600.962945 313.207772 
L 601.546533 313.004204 
L 603.297297 300.062527 
L 603.880885 302.727069 
L 606.215237 320.263965 
L 606.798825 315.725268 
L 607.966001 304.308245 
L 608.54959 294.057576 
L 612.051118 212.498425 
L 612.634706 198.993129 
L 613.218294 201.860146 
L 613.801882 205.408848 
L 614.38547 214.810541 
L 616.136234 248.84887 
L 616.719822 257.568688 
L 618.470586 306.072938 
L 619.054174 314.888888 
L 620.22135 315.845254 
L 620.804938 316.257284 
L 621.388527 315.751664 
L 623.722879 299.150272 
L 624.306467 299.150272 
L 624.890055 301.003028 
L 625.473643 305.835247 
L 626.057231 308.799346 
L 627.224407 309.686309 
L 627.807995 306.942329 
L 628.975171 299.673919 
L 629.558759 289.83063 
L 630.725935 264.660308 
L 633.643875 223.586968 
L 634.227464 217.904265 
L 634.811052 219.470276 
L 638.896168 249.362006 
L 640.063344 250.58675 
L 640.646932 247.888629 
L 641.23052 247.448328 
L 642.981284 251.347584 
L 643.564872 251.884341 
L 644.732048 246.513821 
L 645.315636 249.127805 
L 645.899224 249.382128 
L 648.817165 231.061573 
L 649.400753 234.923579 
L 649.984341 239.9411 
L 650.567929 245.999191 
L 651.151517 256.149255 
L 651.735105 269.179079 
L 653.485869 323.897508 
L 655.236633 352.157183 
L 655.820221 349.058152 
L 656.403809 344.45851 
L 658.738161 299.169106 
L 661.072514 287.384497 
L 661.656102 288.104814 
L 662.23969 290.086146 
L 663.406866 299.111025 
L 665.15763 299.150272 
L 666.908394 299.150272 
L 667.491982 300.224806 
L 668.07557 303.441529 
L 672.744275 298.984289 
L 673.327863 299.150272 
L 675.078627 299.150272 
L 675.078627 299.150272 
" clip-path="url(#p05a9b262e9)" style="fill: none; stroke: #8b0000; stroke-width: 1.5; stroke-linecap: square"/>
   </g>
   <g id="patch_3">
    <path d="M 62.57 390.04 
L 62.57 25.44 
" style="fill: none; stroke: #000000; stroke-width: 0.8; stroke-linejoin: miter; stroke-linecap: square"/>
   </g>
   <g id="patch_4">
    <path d="M 709.2 390.04 
L 709.2 25.44 
" style="fill: none; stroke: #000000; stroke-width: 0.8; stroke-linejoin: miter; stroke-linecap: square"/>
   </g>
   <g id="patch_5">
    <path d="M 62.57 390.04 
L 709.2 390.04 
" style="fill: none; stroke: #000000; stroke-width: 0.8; stroke-linejoin: miter; stroke-linecap: square"/>
   </g>
   <g id="patch_6">
    <path d="M 62.57 25.44 
L 709.2 25.44 
" style="fill: none; stroke: #000000; stroke-width: 0.8; stroke-linejoin: miter; stroke-linecap: square"/>
   </g>
   <g id="text_17">
    <!-- Policy Algorithms Comparison on PongNoFrameskip-v4 -->
    <g transform="translate(222.10375 19.44) scale(0.12 -0.12)">
     <defs>
      <path id="DejaVuSans-50" d="M 1259 4147 
L 1259 2394 
L 2053 2394 
Q 2494 2394 2734 2622 
Q 2975 2850 2975 3272 
Q 2975 3691 2734 3919 
Q 2494 4147 2053 4147 
L 1259 4147 
z
M 628 4666 
L 2053 4666 
Q 2838 4666 3239 4311 
Q 3641 3956 3641 3272 
Q 3641 2581 3239 2228 
Q 2838 1875 2053 1875 
L 1259 1875 
L 1259 0 
L 628 0 
L 628 4666 
z
" transform="scale(0.015625)"/>
      <path id="DejaVuSans-79" d="M 2059 -325 
Q 1816 -950 1584 -1140 
Q 1353 -1331 966 -1331 
L 506 -1331 
L 506 -850 
L 844 -850 
Q 1081 -850 1212 -737 
Q 1344 -625 1503 -206 
L 1606 56 
L 191 3500 
L 800 3500 
L 1894 763 
L 2988 3500 
L 3597 3500 
L 2059 -325 
z
" transform="scale(0.015625)"/>
      <path id="DejaVuSans-41" d="M 2188 4044 
L 1331 1722 
L 3047 1722 
L 2188 4044 
z
M 1831 4666 
L 2547 4666 
L 4325 0 
L 3669 0 
L 3244 1197 
L 1141 1197 
L 716 0 
L 50 0 
L 1831 4666 
z
" transform="scale(0.015625)"/>
      <path id="DejaVuSans-67" d="M 2906 1791 
Q 2906 2416 2648 2759 
Q 2391 3103 1925 3103 
Q 1463 3103 1205 2759 
Q 947 2416 947 1791 
Q 947 1169 1205 825 
Q 1463 481 1925 481 
Q 2391 481 2648 825 
Q 2906 1169 2906 1791 
z
M 3481 434 
Q 3481 -459 3084 -895 
Q 2688 -1331 1869 -1331 
Q 1566 -1331 1297 -1286 
Q 1028 -1241 775 -1147 
L 775 -588 
Q 1028 -725 1275 -790 
Q 1522 -856 1778 -856 
Q 2344 -856 2625 -561 
Q 2906 -266 2906 331 
L 2906 616 
Q 2728 306 2450 153 
Q 2172 0 1784 0 
Q 1141 0 747 490 
Q 353 981 353 1791 
Q 353 2603 747 3093 
Q 1141 3584 1784 3584 
Q 2172 3584 2450 3431 
Q 2728 3278 2906 2969 
L 2906 3500 
L 3481 3500 
L 3481 434 
z
" transform="scale(0.015625)"/>
      <path id="DejaVuSans-43" d="M 4122 4306 
L 4122 3641 
Q 3803 3938 3442 4084 
Q 3081 4231 2675 4231 
Q 1875 4231 1450 3742 
Q 1025 3253 1025 2328 
Q 1025 1406 1450 917 
Q 1875 428 2675 428 
Q 3081 428 3442 575 
Q 3803 722 4122 1019 
L 4122 359 
Q 3791 134 3420 21 
Q 3050 -91 2638 -91 
Q 1578 -91 968 557 
Q 359 1206 359 2328 
Q 359 3453 968 4101 
Q 1578 4750 2638 4750 
Q 3056 4750 3426 4639 
Q 3797 4528 4122 4306 
z
" transform="scale(0.015625)"/>
      <path id="DejaVuSans-46" d="M 628 4666 
L 3309 4666 
L 3309 4134 
L 1259 4134 
L 1259 2759 
L 3109 2759 
L 3109 2228 
L 1259 2228 
L 1259 0 
L 628 0 
L 628 4666 
z
" transform="scale(0.015625)"/>
      <path id="DejaVuSans-6b" d="M 581 4863 
L 1159 4863 
L 1159 1991 
L 2875 3500 
L 3609 3500 
L 1753 1863 
L 3688 0 
L 2938 0 
L 1159 1709 
L 1159 0 
L 581 0 
L 581 4863 
z
" transform="scale(0.015625)"/>
      <path id="DejaVuSans-2d" d="M 313 2009 
L 1997 2009 
L 1997 1497 
L 313 1497 
L 313 2009 
z
" transform="scale(0.015625)"/>
      <path id="DejaVuSans-76" d="M 191 3500 
L 800 3500 
L 1894 563 
L 2988 3500 
L 3597 3500 
L 2284 0 
L 1503 0 
L 191 3500 
z
" transform="scale(0.015625)"/>
     </defs>
     <use xlink:href="#DejaVuSans-50"/>
     <use xlink:href="#DejaVuSans-6f" transform="translate(56.677734 0)"/>
     <use xlink:href="#DejaVuSans-6c" transform="translate(117.859375 0)"/>
     <use xlink:href="#DejaVuSans-69" transform="translate(145.642578 0)"/>
     <use xlink:href="#DejaVuSans-63" transform="translate(173.425781 0)"/>
     <use xlink:href="#DejaVuSans-79" transform="translate(228.40625 0)"/>
     <use xlink:href="#DejaVuSans-20" transform="translate(287.585938 0)"/>
     <use xlink:href="#DejaVuSans-41" transform="translate(319.373047 0)"/>
     <use xlink:href="#DejaVuSans-6c" transform="translate(387.78125 0)"/>
     <use xlink:href="#DejaVuSans-67" transform="translate(415.564453 0)"/>
     <use xlink:href="#DejaVuSans-6f" transform="translate(479.041016 0)"/>
     <use xlink:href="#DejaVuSans-72" transform="translate(540.222656 0)"/>
     <use xlink:href="#DejaVuSans-69" transform="translate(581.335938 0)"/>
     <use xlink:href="#DejaVuSans-74" transform="translate(609.119141 0)"/>
     <use xlink:href="#DejaVuSans-68" transform="translate(648.328125 0)"/>
     <use xlink:href="#DejaVuSans-6d" transform="translate(711.707031 0)"/>
     <use xlink:href="#DejaVuSans-73" transform="translate(809.119141 0)"/>
     <use xlink:href="#DejaVuSans-20" transform="translate(861.21875 0)"/>
     <use xlink:href="#DejaVuSans-43" transform="translate(893.005859 0)"/>
     <use xlink:href="#DejaVuSans-6f" transform="translate(962.830078 0)"/>
     <use xlink:href="#DejaVuSans-6d" transform="translate(1024.011719 0)"/>
     <use xlink:href="#DejaVuSans-70" transform="translate(1121.423828 0)"/>
     <use xlink:href="#DejaVuSans-61" transform="translate(1184.900391 0)"/>
     <use xlink:href="#DejaVuSans-72" transform="translate(1246.179688 0)"/>
     <use xlink:href="#DejaVuSans-69" transform="translate(1287.292969 0)"/>
     <use xlink:href="#DejaVuSans-73" transform="translate(1315.076172 0)"/>
     <use xlink:href="#DejaVuSans-6f" transform="translate(1367.175781 0)"/>
     <use xlink:href="#DejaVuSans-6e" transform="translate(1428.357422 0)"/>
     <use xlink:href="#DejaVuSans-20" transform="translate(1491.736328 0)"/>
     <use xlink:href="#DejaVuSans-6f" transform="translate(1523.523438 0)"/>
     <use xlink:href="#DejaVuSans-6e" transform="translate(1584.705078 0)"/>
     <use xlink:href="#DejaVuSans-20" transform="translate(1648.083984 0)"/>
     <use xlink:href="#DejaVuSans-50" transform="translate(1679.871094 0)"/>
     <use xlink:href="#DejaVuSans-6f" transform="translate(1736.548828 0)"/>
     <use xlink:href="#DejaVuSans-6e" transform="translate(1797.730469 0)"/>
     <use xlink:href="#DejaVuSans-67" transform="translate(1861.109375 0)"/>
     <use xlink:href="#DejaVuSans-4e" transform="translate(1924.585938 0)"/>
     <use xlink:href="#DejaVuSans-6f" transform="translate(1999.390625 0)"/>
     <use xlink:href="#DejaVuSans-46" transform="translate(2060.572266 0)"/>
     <use xlink:href="#DejaVuSans-72" transform="translate(2110.841797 0)"/>
     <use xlink:href="#DejaVuSans-61" transform="translate(2151.955078 0)"/>
     <use xlink:href="#DejaVuSans-6d" transform="translate(2213.234375 0)"/>
     <use xlink:href="#DejaVuSans-65" transform="translate(2310.646484 0)"/>
     <use xlink:href="#DejaVuSans-73" transform="translate(2372.169922 0)"/>
     <use xlink:href="#DejaVuSans-6b" transform="translate(2424.269531 0)"/>
     <use xlink:href="#DejaVuSans-69" transform="translate(2482.179688 0)"/>
     <use xlink:href="#DejaVuSans-70" transform="translate(2509.962891 0)"/>
     <use xlink:href="#DejaVuSans-2d" transform="translate(2573.439453 0)"/>
     <use xlink:href="#DejaVuSans-76" transform="translate(2606.898438 0)"/>
     <use xlink:href="#DejaVuSans-34" transform="translate(2666.078125 0)"/>
    </g>
   </g>
   <g id="legend_1">
    <g id="patch_7">
     <path d="M 597.803125 92.986875 
L 702.2 92.986875 
Q 704.2 92.986875 704.2 90.986875 
L 704.2 32.44 
Q 704.2 30.44 702.2 30.44 
L 597.803125 30.44 
Q 595.803125 30.44 595.803125 32.44 
L 595.803125 90.986875 
Q 595.803125 92.986875 597.803125 92.986875 
z
" style="fill: #ffffff; opacity: 0.8; stroke: #cccccc; stroke-linejoin: miter"/>
    </g>
    <g id="text_18">
     <!-- Algorithm -->
     <g transform="translate(625.514844 42.038437) scale(0.1 -0.1)">
      <use xlink:href="#DejaVuSans-41"/>
      <use xlink:href="#DejaVuSans-6c" transform="translate(68.408203 0)"/>
      <use xlink:href="#DejaVuSans-67" transform="translate(96.191406 0)"/>
      <use xlink:href="#DejaVuSans-6f" transform="translate(159.667969 0)"/>
      <use xlink:href="#DejaVuSans-72" transform="translate(220.849609 0)"/>
      <use xlink:href="#DejaVuSans-69" transform="translate(261.962891 0)"/>
      <use xlink:href="#DejaVuSans-74" transform="translate(289.746094 0)"/>
      <use xlink:href="#DejaVuSans-68" transform="translate(328.955078 0)"/>
      <use xlink:href="#DejaVuSans-6d" transform="translate(392.333984 0)"/>
     </g>
    </g>
    <g id="line2d_18">
     <path d="M 599.803125 53.216563 
L 609.803125 53.216563 
L 619.803125 53.216563 
" style="fill: none; stroke: #00008b; stroke-width: 1.5; stroke-linecap: square"/>
    </g>
    <g id="text_19">
     <!-- ppo_atari -->
     <g transform="translate(627.803125 56.716563) scale(0.1 -0.1)">
      <defs>
       <path id="DejaVuSans-5f" d="M 3263 -1063 
L 3263 -1509 
L -63 -1509 
L -63 -1063 
L 3263 -1063 
z
" transform="scale(0.015625)"/>
      </defs>
      <use xlink:href="#DejaVuSans-70"/>
      <use xlink:href="#DejaVuSans-70" transform="translate(63.476562 0)"/>
      <use xlink:href="#DejaVuSans-6f" transform="translate(126.953125 0)"/>
      <use xlink:href="#DejaVuSans-5f" transform="translate(188.134766 0)"/>
      <use xlink:href="#DejaVuSans-61" transform="translate(238.134766 0)"/>
      <use xlink:href="#DejaVuSans-74" transform="translate(299.414062 0)"/>
      <use xlink:href="#DejaVuSans-61" transform="translate(338.623047 0)"/>
      <use xlink:href="#DejaVuSans-72" transform="translate(399.902344 0)"/>
      <use xlink:href="#DejaVuSans-69" transform="translate(441.015625 0)"/>
     </g>
    </g>
    <g id="line2d_19">
     <path d="M 599.803125 68.172813 
L 609.803125 68.172813 
L 619.803125 68.172813 
" style="fill: none; stroke: #ff8c00; stroke-width: 1.5; stroke-linecap: square"/>
    </g>
    <g id="text_20">
     <!-- reinforce_atari -->
     <g transform="translate(627.803125 71.672813) scale(0.1 -0.1)">
      <defs>
       <path id="DejaVuSans-66" d="M 2375 4863 
L 2375 4384 
L 1825 4384 
Q 1516 4384 1395 4259 
Q 1275 4134 1275 3809 
L 1275 3500 
L 2222 3500 
L 2222 3053 
L 1275 3053 
L 1275 0 
L 697 0 
L 697 3053 
L 147 3053 
L 147 3500 
L 697 3500 
L 697 3744 
Q 697 4328 969 4595 
Q 1241 4863 1831 4863 
L 2375 4863 
z
" transform="scale(0.015625)"/>
      </defs>
      <use xlink:href="#DejaVuSans-72"/>
      <use xlink:href="#DejaVuSans-65" transform="translate(38.863281 0)"/>
      <use xlink:href="#DejaVuSans-69" transform="translate(100.386719 0)"/>
      <use xlink:href="#DejaVuSans-6e" transform="translate(128.169922 0)"/>
      <use xlink:href="#DejaVuSans-66" transform="translate(191.548828 0)"/>
      <use xlink:href="#DejaVuSans-6f" transform="translate(226.753906 0)"/>
      <use xlink:href="#DejaVuSans-72" transform="translate(287.935547 0)"/>
      <use xlink:href="#DejaVuSans-63" transform="translate(326.798828 0)"/>
      <use xlink:href="#DejaVuSans-65" transform="translate(381.779297 0)"/>
      <use xlink:href="#DejaVuSans-5f" transform="translate(443.302734 0)"/>
      <use xlink:href="#DejaVuSans-61" transform="translate(493.302734 0)"/>
      <use xlink:href="#DejaVuSans-74" transform="translate(554.582031 0)"/>
      <use xlink:href="#DejaVuSans-61" transform="translate(593.791016 0)"/>
      <use xlink:href="#DejaVuSans-72" transform="translate(655.070312 0)"/>
      <use xlink:href="#DejaVuSans-69" transform="translate(696.183594 0)"/>
     </g>
    </g>
    <g id="line2d_20">
     <path d="M 599.803125 83.129063 
L 609.803125 83.129063 
L 619.803125 83.129063 
" style="fill: none; stroke: #8b0000; stroke-width: 1.5; stroke-linecap: square"/>
    </g>
    <g id="text_21">
     <!-- sac_atari -->
     <g transform="translate(627.803125 86.629063) scale(0.1 -0.1)">
      <use xlink:href="#DejaVuSans-73"/>
      <use xlink:href="#DejaVuSans-61" transform="translate(52.099609 0)"/>
      <use xlink:href="#DejaVuSans-63" transform="translate(113.378906 0)"/>
      <use xlink:href="#DejaVuSans-5f" transform="translate(168.359375 0)"/>
      <use xlink:href="#DejaVuSans-61" transform="translate(218.359375 0)"/>
      <use xlink:href="#DejaVuSans-74" transform="translate(279.638672 0)"/>
      <use xlink:href="#DejaVuSans-61" transform="translate(318.847656 0)"/>
      <use xlink:href="#DejaVuSans-72" transform="translate(380.126953 0)"/>
      <use xlink:href="#DejaVuSans-69" transform="translate(421.240234 0)"/>
     </g>
    </g>
   </g>
  </g>
 </g>
 <defs>
  <clipPath id="p05a9b262e9">
   <rect x="62.57" y="25.44" width="646.63" height="364.6"/>
  </clipPath>
 </defs>
</svg>
