<?xml version="1.0" encoding="utf-8" standalone="no"?>
<!DOCTYPE svg PUBLIC "-//W3C//DTD SVG 1.1//EN"
  "http://www.w3.org/Graphics/SVG/1.1/DTD/svg11.dtd">
<svg xmlns:xlink="http://www.w3.org/1999/xlink" width="720pt" height="432pt" viewBox="0 0 720 432" xmlns="http://www.w3.org/2000/svg" version="1.1">
 <metadata>
  <rdf:RDF xmlns:dc="http://purl.org/dc/elements/1.1/" xmlns:cc="http://creativecommons.org/ns#" xmlns:rdf="http://www.w3.org/1999/02/22-rdf-syntax-ns#">
   <cc:Work>
    <dc:type rdf:resource="http://purl.org/dc/dcmitype/StillImage"/>
    <dc:date>2025-02-09T22:58:08.077512</dc:date>
    <dc:format>image/svg+xml</dc:format>
    <dc:creator>
     <cc:Agent>
      <dc:title>Matplotlib v3.10.0, https://matplotlib.org/</dc:title>
     </cc:Agent>
    </dc:creator>
   </cc:Work>
  </rdf:RDF>
 </metadata>
 <defs>
  <style type="text/css">*{stroke-linejoin: round; stroke-linecap: butt}</style>
 </defs>
 <g id="figure_1">
  <g id="patch_1">
   <path d="M 0 432 
L 720 432 
L 720 0 
L 0 0 
z
" style="fill: #ffffff"/>
  </g>
  <g id="axes_1">
   <g id="patch_2">
    <path d="M 54.2 390.04 
L 709.2 390.04 
L 709.2 25.44 
L 54.2 25.44 
z
" style="fill: #ffffff"/>
   </g>
   <g id="matplotlib.axis_1">
    <g id="xtick_1">
     <g id="line2d_1">
      <defs>
       <path id="m70edef4539" d="M 0 0 
L 0 3.5 
" style="stroke: #000000; stroke-width: 0.8"/>
      </defs>
      <g>
       <use xlink:href="#m70edef4539" x="82.135218" y="390.04" style="stroke: #000000; stroke-width: 0.8"/>
      </g>
     </g>
     <g id="text_1">
      <!-- 0 -->
      <g transform="translate(78.953968 404.638438) scale(0.1 -0.1)">
       <defs>
        <path id="DejaVuSans-30" d="M 2034 4250 
Q 1547 4250 1301 3770 
Q 1056 3291 1056 2328 
Q 1056 1369 1301 889 
Q 1547 409 2034 409 
Q 2525 409 2770 889 
Q 3016 1369 3016 2328 
Q 3016 3291 2770 3770 
Q 2525 4250 2034 4250 
z
M 2034 4750 
Q 2819 4750 3233 4129 
Q 3647 3509 3647 2328 
Q 3647 1150 3233 529 
Q 2819 -91 2034 -91 
Q 1250 -91 836 529 
Q 422 1150 422 2328 
Q 422 3509 836 4129 
Q 1250 4750 2034 4750 
z
" transform="scale(0.015625)"/>
       </defs>
       <use xlink:href="#DejaVuSans-30"/>
      </g>
     </g>
    </g>
    <g id="xtick_2">
     <g id="line2d_2">
      <g>
       <use xlink:href="#m70edef4539" x="201.454026" y="390.04" style="stroke: #000000; stroke-width: 0.8"/>
      </g>
     </g>
     <g id="text_2">
      <!-- 20000 -->
      <g transform="translate(185.547776 404.638438) scale(0.1 -0.1)">
       <defs>
        <path id="DejaVuSans-32" d="M 1228 531 
L 3431 531 
L 3431 0 
L 469 0 
L 469 531 
Q 828 903 1448 1529 
Q 2069 2156 2228 2338 
Q 2531 2678 2651 2914 
Q 2772 3150 2772 3378 
Q 2772 3750 2511 3984 
Q 2250 4219 1831 4219 
Q 1534 4219 1204 4116 
Q 875 4013 500 3803 
L 500 4441 
Q 881 4594 1212 4672 
Q 1544 4750 1819 4750 
Q 2544 4750 2975 4387 
Q 3406 4025 3406 3419 
Q 3406 3131 3298 2873 
Q 3191 2616 2906 2266 
Q 2828 2175 2409 1742 
Q 1991 1309 1228 531 
z
" transform="scale(0.015625)"/>
       </defs>
       <use xlink:href="#DejaVuSans-32"/>
       <use xlink:href="#DejaVuSans-30" transform="translate(63.623047 0)"/>
       <use xlink:href="#DejaVuSans-30" transform="translate(127.246094 0)"/>
       <use xlink:href="#DejaVuSans-30" transform="translate(190.869141 0)"/>
       <use xlink:href="#DejaVuSans-30" transform="translate(254.492188 0)"/>
      </g>
     </g>
    </g>
    <g id="xtick_3">
     <g id="line2d_3">
      <g>
       <use xlink:href="#m70edef4539" x="320.772834" y="390.04" style="stroke: #000000; stroke-width: 0.8"/>
      </g>
     </g>
     <g id="text_3">
      <!-- 40000 -->
      <g transform="translate(304.866584 404.638438) scale(0.1 -0.1)">
       <defs>
        <path id="DejaVuSans-34" d="M 2419 4116 
L 825 1625 
L 2419 1625 
L 2419 4116 
z
M 2253 4666 
L 3047 4666 
L 3047 1625 
L 3713 1625 
L 3713 1100 
L 3047 1100 
L 3047 0 
L 2419 0 
L 2419 1100 
L 313 1100 
L 313 1709 
L 2253 4666 
z
" transform="scale(0.015625)"/>
       </defs>
       <use xlink:href="#DejaVuSans-34"/>
       <use xlink:href="#DejaVuSans-30" transform="translate(63.623047 0)"/>
       <use xlink:href="#DejaVuSans-30" transform="translate(127.246094 0)"/>
       <use xlink:href="#DejaVuSans-30" transform="translate(190.869141 0)"/>
       <use xlink:href="#DejaVuSans-30" transform="translate(254.492188 0)"/>
      </g>
     </g>
    </g>
    <g id="xtick_4">
     <g id="line2d_4">
      <g>
       <use xlink:href="#m70edef4539" x="440.091642" y="390.04" style="stroke: #000000; stroke-width: 0.8"/>
      </g>
     </g>
     <g id="text_4">
      <!-- 60000 -->
      <g transform="translate(424.185392 404.638438) scale(0.1 -0.1)">
       <defs>
        <path id="DejaVuSans-36" d="M 2113 2584 
Q 1688 2584 1439 2293 
Q 1191 2003 1191 1497 
Q 1191 994 1439 701 
Q 1688 409 2113 409 
Q 2538 409 2786 701 
Q 3034 994 3034 1497 
Q 3034 2003 2786 2293 
Q 2538 2584 2113 2584 
z
M 3366 4563 
L 3366 3988 
Q 3128 4100 2886 4159 
Q 2644 4219 2406 4219 
Q 1781 4219 1451 3797 
Q 1122 3375 1075 2522 
Q 1259 2794 1537 2939 
Q 1816 3084 2150 3084 
Q 2853 3084 3261 2657 
Q 3669 2231 3669 1497 
Q 3669 778 3244 343 
Q 2819 -91 2113 -91 
Q 1303 -91 875 529 
Q 447 1150 447 2328 
Q 447 3434 972 4092 
Q 1497 4750 2381 4750 
Q 2619 4750 2861 4703 
Q 3103 4656 3366 4563 
z
" transform="scale(0.015625)"/>
       </defs>
       <use xlink:href="#DejaVuSans-36"/>
       <use xlink:href="#DejaVuSans-30" transform="translate(63.623047 0)"/>
       <use xlink:href="#DejaVuSans-30" transform="translate(127.246094 0)"/>
       <use xlink:href="#DejaVuSans-30" transform="translate(190.869141 0)"/>
       <use xlink:href="#DejaVuSans-30" transform="translate(254.492188 0)"/>
      </g>
     </g>
    </g>
    <g id="xtick_5">
     <g id="line2d_5">
      <g>
       <use xlink:href="#m70edef4539" x="559.41045" y="390.04" style="stroke: #000000; stroke-width: 0.8"/>
      </g>
     </g>
     <g id="text_5">
      <!-- 80000 -->
      <g transform="translate(543.5042 404.638438) scale(0.1 -0.1)">
       <defs>
        <path id="DejaVuSans-38" d="M 2034 2216 
Q 1584 2216 1326 1975 
Q 1069 1734 1069 1313 
Q 1069 891 1326 650 
Q 1584 409 2034 409 
Q 2484 409 2743 651 
Q 3003 894 3003 1313 
Q 3003 1734 2745 1975 
Q 2488 2216 2034 2216 
z
M 1403 2484 
Q 997 2584 770 2862 
Q 544 3141 544 3541 
Q 544 4100 942 4425 
Q 1341 4750 2034 4750 
Q 2731 4750 3128 4425 
Q 3525 4100 3525 3541 
Q 3525 3141 3298 2862 
Q 3072 2584 2669 2484 
Q 3125 2378 3379 2068 
Q 3634 1759 3634 1313 
Q 3634 634 3220 271 
Q 2806 -91 2034 -91 
Q 1263 -91 848 271 
Q 434 634 434 1313 
Q 434 1759 690 2068 
Q 947 2378 1403 2484 
z
M 1172 3481 
Q 1172 3119 1398 2916 
Q 1625 2713 2034 2713 
Q 2441 2713 2670 2916 
Q 2900 3119 2900 3481 
Q 2900 3844 2670 4047 
Q 2441 4250 2034 4250 
Q 1625 4250 1398 4047 
Q 1172 3844 1172 3481 
z
" transform="scale(0.015625)"/>
       </defs>
       <use xlink:href="#DejaVuSans-38"/>
       <use xlink:href="#DejaVuSans-30" transform="translate(63.623047 0)"/>
       <use xlink:href="#DejaVuSans-30" transform="translate(127.246094 0)"/>
       <use xlink:href="#DejaVuSans-30" transform="translate(190.869141 0)"/>
       <use xlink:href="#DejaVuSans-30" transform="translate(254.492188 0)"/>
      </g>
     </g>
    </g>
    <g id="xtick_6">
     <g id="line2d_6">
      <g>
       <use xlink:href="#m70edef4539" x="678.729258" y="390.04" style="stroke: #000000; stroke-width: 0.8"/>
      </g>
     </g>
     <g id="text_6">
      <!-- 100000 -->
      <g transform="translate(659.641758 404.638438) scale(0.1 -0.1)">
       <defs>
        <path id="DejaVuSans-31" d="M 794 531 
L 1825 531 
L 1825 4091 
L 703 3866 
L 703 4441 
L 1819 4666 
L 2450 4666 
L 2450 531 
L 3481 531 
L 3481 0 
L 794 0 
L 794 531 
z
" transform="scale(0.015625)"/>
       </defs>
       <use xlink:href="#DejaVuSans-31"/>
       <use xlink:href="#DejaVuSans-30" transform="translate(63.623047 0)"/>
       <use xlink:href="#DejaVuSans-30" transform="translate(127.246094 0)"/>
       <use xlink:href="#DejaVuSans-30" transform="translate(190.869141 0)"/>
       <use xlink:href="#DejaVuSans-30" transform="translate(254.492188 0)"/>
       <use xlink:href="#DejaVuSans-30" transform="translate(318.115234 0)"/>
      </g>
     </g>
    </g>
    <g id="text_7">
     <!-- Step -->
     <g transform="translate(370.314844 418.316562) scale(0.1 -0.1)">
      <defs>
       <path id="DejaVuSans-53" d="M 3425 4513 
L 3425 3897 
Q 3066 4069 2747 4153 
Q 2428 4238 2131 4238 
Q 1616 4238 1336 4038 
Q 1056 3838 1056 3469 
Q 1056 3159 1242 3001 
Q 1428 2844 1947 2747 
L 2328 2669 
Q 3034 2534 3370 2195 
Q 3706 1856 3706 1288 
Q 3706 609 3251 259 
Q 2797 -91 1919 -91 
Q 1588 -91 1214 -16 
Q 841 59 441 206 
L 441 856 
Q 825 641 1194 531 
Q 1563 422 1919 422 
Q 2459 422 2753 634 
Q 3047 847 3047 1241 
Q 3047 1584 2836 1778 
Q 2625 1972 2144 2069 
L 1759 2144 
Q 1053 2284 737 2584 
Q 422 2884 422 3419 
Q 422 4038 858 4394 
Q 1294 4750 2059 4750 
Q 2388 4750 2728 4690 
Q 3069 4631 3425 4513 
z
" transform="scale(0.015625)"/>
       <path id="DejaVuSans-74" d="M 1172 4494 
L 1172 3500 
L 2356 3500 
L 2356 3053 
L 1172 3053 
L 1172 1153 
Q 1172 725 1289 603 
Q 1406 481 1766 481 
L 2356 481 
L 2356 0 
L 1766 0 
Q 1100 0 847 248 
Q 594 497 594 1153 
L 594 3053 
L 172 3053 
L 172 3500 
L 594 3500 
L 594 4494 
L 1172 4494 
z
" transform="scale(0.015625)"/>
       <path id="DejaVuSans-65" d="M 3597 1894 
L 3597 1613 
L 953 1613 
Q 991 1019 1311 708 
Q 1631 397 2203 397 
Q 2534 397 2845 478 
Q 3156 559 3463 722 
L 3463 178 
Q 3153 47 2828 -22 
Q 2503 -91 2169 -91 
Q 1331 -91 842 396 
Q 353 884 353 1716 
Q 353 2575 817 3079 
Q 1281 3584 2069 3584 
Q 2775 3584 3186 3129 
Q 3597 2675 3597 1894 
z
M 3022 2063 
Q 3016 2534 2758 2815 
Q 2500 3097 2075 3097 
Q 1594 3097 1305 2825 
Q 1016 2553 972 2059 
L 3022 2063 
z
" transform="scale(0.015625)"/>
       <path id="DejaVuSans-70" d="M 1159 525 
L 1159 -1331 
L 581 -1331 
L 581 3500 
L 1159 3500 
L 1159 2969 
Q 1341 3281 1617 3432 
Q 1894 3584 2278 3584 
Q 2916 3584 3314 3078 
Q 3713 2572 3713 1747 
Q 3713 922 3314 415 
Q 2916 -91 2278 -91 
Q 1894 -91 1617 61 
Q 1341 213 1159 525 
z
M 3116 1747 
Q 3116 2381 2855 2742 
Q 2594 3103 2138 3103 
Q 1681 3103 1420 2742 
Q 1159 2381 1159 1747 
Q 1159 1113 1420 752 
Q 1681 391 2138 391 
Q 2594 391 2855 752 
Q 3116 1113 3116 1747 
z
" transform="scale(0.015625)"/>
      </defs>
      <use xlink:href="#DejaVuSans-53"/>
      <use xlink:href="#DejaVuSans-74" transform="translate(63.476562 0)"/>
      <use xlink:href="#DejaVuSans-65" transform="translate(102.685547 0)"/>
      <use xlink:href="#DejaVuSans-70" transform="translate(164.208984 0)"/>
     </g>
    </g>
   </g>
   <g id="matplotlib.axis_2">
    <g id="ytick_1">
     <g id="line2d_7">
      <defs>
       <path id="mfe456f55a4" d="M 0 0 
L -3.5 0 
" style="stroke: #000000; stroke-width: 0.8"/>
      </defs>
      <g>
       <use xlink:href="#mfe456f55a4" x="54.2" y="385.793741" style="stroke: #000000; stroke-width: 0.8"/>
      </g>
     </g>
     <g id="text_8">
      <!-- 0.15 -->
      <g transform="translate(24.934375 389.59296) scale(0.1 -0.1)">
       <defs>
        <path id="DejaVuSans-2e" d="M 684 794 
L 1344 794 
L 1344 0 
L 684 0 
L 684 794 
z
" transform="scale(0.015625)"/>
        <path id="DejaVuSans-35" d="M 691 4666 
L 3169 4666 
L 3169 4134 
L 1269 4134 
L 1269 2991 
Q 1406 3038 1543 3061 
Q 1681 3084 1819 3084 
Q 2600 3084 3056 2656 
Q 3513 2228 3513 1497 
Q 3513 744 3044 326 
Q 2575 -91 1722 -91 
Q 1428 -91 1123 -41 
Q 819 9 494 109 
L 494 744 
Q 775 591 1075 516 
Q 1375 441 1709 441 
Q 2250 441 2565 725 
Q 2881 1009 2881 1497 
Q 2881 1984 2565 2268 
Q 2250 2553 1709 2553 
Q 1456 2553 1204 2497 
Q 953 2441 691 2322 
L 691 4666 
z
" transform="scale(0.015625)"/>
       </defs>
       <use xlink:href="#DejaVuSans-30"/>
       <use xlink:href="#DejaVuSans-2e" transform="translate(63.623047 0)"/>
       <use xlink:href="#DejaVuSans-31" transform="translate(95.410156 0)"/>
       <use xlink:href="#DejaVuSans-35" transform="translate(159.033203 0)"/>
      </g>
     </g>
    </g>
    <g id="ytick_2">
     <g id="line2d_8">
      <g>
       <use xlink:href="#mfe456f55a4" x="54.2" y="339.451261" style="stroke: #000000; stroke-width: 0.8"/>
      </g>
     </g>
     <g id="text_9">
      <!-- 0.20 -->
      <g transform="translate(24.934375 343.25048) scale(0.1 -0.1)">
       <use xlink:href="#DejaVuSans-30"/>
       <use xlink:href="#DejaVuSans-2e" transform="translate(63.623047 0)"/>
       <use xlink:href="#DejaVuSans-32" transform="translate(95.410156 0)"/>
       <use xlink:href="#DejaVuSans-30" transform="translate(159.033203 0)"/>
      </g>
     </g>
    </g>
    <g id="ytick_3">
     <g id="line2d_9">
      <g>
       <use xlink:href="#mfe456f55a4" x="54.2" y="293.108781" style="stroke: #000000; stroke-width: 0.8"/>
      </g>
     </g>
     <g id="text_10">
      <!-- 0.25 -->
      <g transform="translate(24.934375 296.908) scale(0.1 -0.1)">
       <use xlink:href="#DejaVuSans-30"/>
       <use xlink:href="#DejaVuSans-2e" transform="translate(63.623047 0)"/>
       <use xlink:href="#DejaVuSans-32" transform="translate(95.410156 0)"/>
       <use xlink:href="#DejaVuSans-35" transform="translate(159.033203 0)"/>
      </g>
     </g>
    </g>
    <g id="ytick_4">
     <g id="line2d_10">
      <g>
       <use xlink:href="#mfe456f55a4" x="54.2" y="246.7663" style="stroke: #000000; stroke-width: 0.8"/>
      </g>
     </g>
     <g id="text_11">
      <!-- 0.30 -->
      <g transform="translate(24.934375 250.565519) scale(0.1 -0.1)">
       <defs>
        <path id="DejaVuSans-33" d="M 2597 2516 
Q 3050 2419 3304 2112 
Q 3559 1806 3559 1356 
Q 3559 666 3084 287 
Q 2609 -91 1734 -91 
Q 1441 -91 1130 -33 
Q 819 25 488 141 
L 488 750 
Q 750 597 1062 519 
Q 1375 441 1716 441 
Q 2309 441 2620 675 
Q 2931 909 2931 1356 
Q 2931 1769 2642 2001 
Q 2353 2234 1838 2234 
L 1294 2234 
L 1294 2753 
L 1863 2753 
Q 2328 2753 2575 2939 
Q 2822 3125 2822 3475 
Q 2822 3834 2567 4026 
Q 2313 4219 1838 4219 
Q 1578 4219 1281 4162 
Q 984 4106 628 3988 
L 628 4550 
Q 988 4650 1302 4700 
Q 1616 4750 1894 4750 
Q 2613 4750 3031 4423 
Q 3450 4097 3450 3541 
Q 3450 3153 3228 2886 
Q 3006 2619 2597 2516 
z
" transform="scale(0.015625)"/>
       </defs>
       <use xlink:href="#DejaVuSans-30"/>
       <use xlink:href="#DejaVuSans-2e" transform="translate(63.623047 0)"/>
       <use xlink:href="#DejaVuSans-33" transform="translate(95.410156 0)"/>
       <use xlink:href="#DejaVuSans-30" transform="translate(159.033203 0)"/>
      </g>
     </g>
    </g>
    <g id="ytick_5">
     <g id="line2d_11">
      <g>
       <use xlink:href="#mfe456f55a4" x="54.2" y="200.42382" style="stroke: #000000; stroke-width: 0.8"/>
      </g>
     </g>
     <g id="text_12">
      <!-- 0.35 -->
      <g transform="translate(24.934375 204.223039) scale(0.1 -0.1)">
       <use xlink:href="#DejaVuSans-30"/>
       <use xlink:href="#DejaVuSans-2e" transform="translate(63.623047 0)"/>
       <use xlink:href="#DejaVuSans-33" transform="translate(95.410156 0)"/>
       <use xlink:href="#DejaVuSans-35" transform="translate(159.033203 0)"/>
      </g>
     </g>
    </g>
    <g id="ytick_6">
     <g id="line2d_12">
      <g>
       <use xlink:href="#mfe456f55a4" x="54.2" y="154.08134" style="stroke: #000000; stroke-width: 0.8"/>
      </g>
     </g>
     <g id="text_13">
      <!-- 0.40 -->
      <g transform="translate(24.934375 157.880558) scale(0.1 -0.1)">
       <use xlink:href="#DejaVuSans-30"/>
       <use xlink:href="#DejaVuSans-2e" transform="translate(63.623047 0)"/>
       <use xlink:href="#DejaVuSans-34" transform="translate(95.410156 0)"/>
       <use xlink:href="#DejaVuSans-30" transform="translate(159.033203 0)"/>
      </g>
     </g>
    </g>
    <g id="ytick_7">
     <g id="line2d_13">
      <g>
       <use xlink:href="#mfe456f55a4" x="54.2" y="107.738859" style="stroke: #000000; stroke-width: 0.8"/>
      </g>
     </g>
     <g id="text_14">
      <!-- 0.45 -->
      <g transform="translate(24.934375 111.538078) scale(0.1 -0.1)">
       <use xlink:href="#DejaVuSans-30"/>
       <use xlink:href="#DejaVuSans-2e" transform="translate(63.623047 0)"/>
       <use xlink:href="#DejaVuSans-34" transform="translate(95.410156 0)"/>
       <use xlink:href="#DejaVuSans-35" transform="translate(159.033203 0)"/>
      </g>
     </g>
    </g>
    <g id="ytick_8">
     <g id="line2d_14">
      <g>
       <use xlink:href="#mfe456f55a4" x="54.2" y="61.396379" style="stroke: #000000; stroke-width: 0.8"/>
      </g>
     </g>
     <g id="text_15">
      <!-- 0.50 -->
      <g transform="translate(24.934375 65.195598) scale(0.1 -0.1)">
       <use xlink:href="#DejaVuSans-30"/>
       <use xlink:href="#DejaVuSans-2e" transform="translate(63.623047 0)"/>
       <use xlink:href="#DejaVuSans-35" transform="translate(95.410156 0)"/>
       <use xlink:href="#DejaVuSans-30" transform="translate(159.033203 0)"/>
      </g>
     </g>
    </g>
    <g id="text_16">
     <!-- Normalized (minmax) Episodic Return -->
     <g transform="translate(18.854688 302.376719) rotate(-90) scale(0.1 -0.1)">
      <defs>
       <path id="DejaVuSans-4e" d="M 628 4666 
L 1478 4666 
L 3547 763 
L 3547 4666 
L 4159 4666 
L 4159 0 
L 3309 0 
L 1241 3903 
L 1241 0 
L 628 0 
L 628 4666 
z
" transform="scale(0.015625)"/>
       <path id="DejaVuSans-6f" d="M 1959 3097 
Q 1497 3097 1228 2736 
Q 959 2375 959 1747 
Q 959 1119 1226 758 
Q 1494 397 1959 397 
Q 2419 397 2687 759 
Q 2956 1122 2956 1747 
Q 2956 2369 2687 2733 
Q 2419 3097 1959 3097 
z
M 1959 3584 
Q 2709 3584 3137 3096 
Q 3566 2609 3566 1747 
Q 3566 888 3137 398 
Q 2709 -91 1959 -91 
Q 1206 -91 779 398 
Q 353 888 353 1747 
Q 353 2609 779 3096 
Q 1206 3584 1959 3584 
z
" transform="scale(0.015625)"/>
       <path id="DejaVuSans-72" d="M 2631 2963 
Q 2534 3019 2420 3045 
Q 2306 3072 2169 3072 
Q 1681 3072 1420 2755 
Q 1159 2438 1159 1844 
L 1159 0 
L 581 0 
L 581 3500 
L 1159 3500 
L 1159 2956 
Q 1341 3275 1631 3429 
Q 1922 3584 2338 3584 
Q 2397 3584 2469 3576 
Q 2541 3569 2628 3553 
L 2631 2963 
z
" transform="scale(0.015625)"/>
       <path id="DejaVuSans-6d" d="M 3328 2828 
Q 3544 3216 3844 3400 
Q 4144 3584 4550 3584 
Q 5097 3584 5394 3201 
Q 5691 2819 5691 2113 
L 5691 0 
L 5113 0 
L 5113 2094 
Q 5113 2597 4934 2840 
Q 4756 3084 4391 3084 
Q 3944 3084 3684 2787 
Q 3425 2491 3425 1978 
L 3425 0 
L 2847 0 
L 2847 2094 
Q 2847 2600 2669 2842 
Q 2491 3084 2119 3084 
Q 1678 3084 1418 2786 
Q 1159 2488 1159 1978 
L 1159 0 
L 581 0 
L 581 3500 
L 1159 3500 
L 1159 2956 
Q 1356 3278 1631 3431 
Q 1906 3584 2284 3584 
Q 2666 3584 2933 3390 
Q 3200 3197 3328 2828 
z
" transform="scale(0.015625)"/>
       <path id="DejaVuSans-61" d="M 2194 1759 
Q 1497 1759 1228 1600 
Q 959 1441 959 1056 
Q 959 750 1161 570 
Q 1363 391 1709 391 
Q 2188 391 2477 730 
Q 2766 1069 2766 1631 
L 2766 1759 
L 2194 1759 
z
M 3341 1997 
L 3341 0 
L 2766 0 
L 2766 531 
Q 2569 213 2275 61 
Q 1981 -91 1556 -91 
Q 1019 -91 701 211 
Q 384 513 384 1019 
Q 384 1609 779 1909 
Q 1175 2209 1959 2209 
L 2766 2209 
L 2766 2266 
Q 2766 2663 2505 2880 
Q 2244 3097 1772 3097 
Q 1472 3097 1187 3025 
Q 903 2953 641 2809 
L 641 3341 
Q 956 3463 1253 3523 
Q 1550 3584 1831 3584 
Q 2591 3584 2966 3190 
Q 3341 2797 3341 1997 
z
" transform="scale(0.015625)"/>
       <path id="DejaVuSans-6c" d="M 603 4863 
L 1178 4863 
L 1178 0 
L 603 0 
L 603 4863 
z
" transform="scale(0.015625)"/>
       <path id="DejaVuSans-69" d="M 603 3500 
L 1178 3500 
L 1178 0 
L 603 0 
L 603 3500 
z
M 603 4863 
L 1178 4863 
L 1178 4134 
L 603 4134 
L 603 4863 
z
" transform="scale(0.015625)"/>
       <path id="DejaVuSans-7a" d="M 353 3500 
L 3084 3500 
L 3084 2975 
L 922 459 
L 3084 459 
L 3084 0 
L 275 0 
L 275 525 
L 2438 3041 
L 353 3041 
L 353 3500 
z
" transform="scale(0.015625)"/>
       <path id="DejaVuSans-64" d="M 2906 2969 
L 2906 4863 
L 3481 4863 
L 3481 0 
L 2906 0 
L 2906 525 
Q 2725 213 2448 61 
Q 2172 -91 1784 -91 
Q 1150 -91 751 415 
Q 353 922 353 1747 
Q 353 2572 751 3078 
Q 1150 3584 1784 3584 
Q 2172 3584 2448 3432 
Q 2725 3281 2906 2969 
z
M 947 1747 
Q 947 1113 1208 752 
Q 1469 391 1925 391 
Q 2381 391 2643 752 
Q 2906 1113 2906 1747 
Q 2906 2381 2643 2742 
Q 2381 3103 1925 3103 
Q 1469 3103 1208 2742 
Q 947 2381 947 1747 
z
" transform="scale(0.015625)"/>
       <path id="DejaVuSans-20" transform="scale(0.015625)"/>
       <path id="DejaVuSans-28" d="M 1984 4856 
Q 1566 4138 1362 3434 
Q 1159 2731 1159 2009 
Q 1159 1288 1364 580 
Q 1569 -128 1984 -844 
L 1484 -844 
Q 1016 -109 783 600 
Q 550 1309 550 2009 
Q 550 2706 781 3412 
Q 1013 4119 1484 4856 
L 1984 4856 
z
" transform="scale(0.015625)"/>
       <path id="DejaVuSans-6e" d="M 3513 2113 
L 3513 0 
L 2938 0 
L 2938 2094 
Q 2938 2591 2744 2837 
Q 2550 3084 2163 3084 
Q 1697 3084 1428 2787 
Q 1159 2491 1159 1978 
L 1159 0 
L 581 0 
L 581 3500 
L 1159 3500 
L 1159 2956 
Q 1366 3272 1645 3428 
Q 1925 3584 2291 3584 
Q 2894 3584 3203 3211 
Q 3513 2838 3513 2113 
z
" transform="scale(0.015625)"/>
       <path id="DejaVuSans-78" d="M 3513 3500 
L 2247 1797 
L 3578 0 
L 2900 0 
L 1881 1375 
L 863 0 
L 184 0 
L 1544 1831 
L 300 3500 
L 978 3500 
L 1906 2253 
L 2834 3500 
L 3513 3500 
z
" transform="scale(0.015625)"/>
       <path id="DejaVuSans-29" d="M 513 4856 
L 1013 4856 
Q 1481 4119 1714 3412 
Q 1947 2706 1947 2009 
Q 1947 1309 1714 600 
Q 1481 -109 1013 -844 
L 513 -844 
Q 928 -128 1133 580 
Q 1338 1288 1338 2009 
Q 1338 2731 1133 3434 
Q 928 4138 513 4856 
z
" transform="scale(0.015625)"/>
       <path id="DejaVuSans-45" d="M 628 4666 
L 3578 4666 
L 3578 4134 
L 1259 4134 
L 1259 2753 
L 3481 2753 
L 3481 2222 
L 1259 2222 
L 1259 531 
L 3634 531 
L 3634 0 
L 628 0 
L 628 4666 
z
" transform="scale(0.015625)"/>
       <path id="DejaVuSans-73" d="M 2834 3397 
L 2834 2853 
Q 2591 2978 2328 3040 
Q 2066 3103 1784 3103 
Q 1356 3103 1142 2972 
Q 928 2841 928 2578 
Q 928 2378 1081 2264 
Q 1234 2150 1697 2047 
L 1894 2003 
Q 2506 1872 2764 1633 
Q 3022 1394 3022 966 
Q 3022 478 2636 193 
Q 2250 -91 1575 -91 
Q 1294 -91 989 -36 
Q 684 19 347 128 
L 347 722 
Q 666 556 975 473 
Q 1284 391 1588 391 
Q 1994 391 2212 530 
Q 2431 669 2431 922 
Q 2431 1156 2273 1281 
Q 2116 1406 1581 1522 
L 1381 1569 
Q 847 1681 609 1914 
Q 372 2147 372 2553 
Q 372 3047 722 3315 
Q 1072 3584 1716 3584 
Q 2034 3584 2315 3537 
Q 2597 3491 2834 3397 
z
" transform="scale(0.015625)"/>
       <path id="DejaVuSans-63" d="M 3122 3366 
L 3122 2828 
Q 2878 2963 2633 3030 
Q 2388 3097 2138 3097 
Q 1578 3097 1268 2742 
Q 959 2388 959 1747 
Q 959 1106 1268 751 
Q 1578 397 2138 397 
Q 2388 397 2633 464 
Q 2878 531 3122 666 
L 3122 134 
Q 2881 22 2623 -34 
Q 2366 -91 2075 -91 
Q 1284 -91 818 406 
Q 353 903 353 1747 
Q 353 2603 823 3093 
Q 1294 3584 2113 3584 
Q 2378 3584 2631 3529 
Q 2884 3475 3122 3366 
z
" transform="scale(0.015625)"/>
       <path id="DejaVuSans-52" d="M 2841 2188 
Q 3044 2119 3236 1894 
Q 3428 1669 3622 1275 
L 4263 0 
L 3584 0 
L 2988 1197 
Q 2756 1666 2539 1819 
Q 2322 1972 1947 1972 
L 1259 1972 
L 1259 0 
L 628 0 
L 628 4666 
L 2053 4666 
Q 2853 4666 3247 4331 
Q 3641 3997 3641 3322 
Q 3641 2881 3436 2590 
Q 3231 2300 2841 2188 
z
M 1259 4147 
L 1259 2491 
L 2053 2491 
Q 2509 2491 2742 2702 
Q 2975 2913 2975 3322 
Q 2975 3731 2742 3939 
Q 2509 4147 2053 4147 
L 1259 4147 
z
" transform="scale(0.015625)"/>
       <path id="DejaVuSans-75" d="M 544 1381 
L 544 3500 
L 1119 3500 
L 1119 1403 
Q 1119 906 1312 657 
Q 1506 409 1894 409 
Q 2359 409 2629 706 
Q 2900 1003 2900 1516 
L 2900 3500 
L 3475 3500 
L 3475 0 
L 2900 0 
L 2900 538 
Q 2691 219 2414 64 
Q 2138 -91 1772 -91 
Q 1169 -91 856 284 
Q 544 659 544 1381 
z
M 1991 3584 
L 1991 3584 
z
" transform="scale(0.015625)"/>
      </defs>
      <use xlink:href="#DejaVuSans-4e"/>
      <use xlink:href="#DejaVuSans-6f" transform="translate(74.804688 0)"/>
      <use xlink:href="#DejaVuSans-72" transform="translate(135.986328 0)"/>
      <use xlink:href="#DejaVuSans-6d" transform="translate(175.349609 0)"/>
      <use xlink:href="#DejaVuSans-61" transform="translate(272.761719 0)"/>
      <use xlink:href="#DejaVuSans-6c" transform="translate(334.041016 0)"/>
      <use xlink:href="#DejaVuSans-69" transform="translate(361.824219 0)"/>
      <use xlink:href="#DejaVuSans-7a" transform="translate(389.607422 0)"/>
      <use xlink:href="#DejaVuSans-65" transform="translate(442.097656 0)"/>
      <use xlink:href="#DejaVuSans-64" transform="translate(503.621094 0)"/>
      <use xlink:href="#DejaVuSans-20" transform="translate(567.097656 0)"/>
      <use xlink:href="#DejaVuSans-28" transform="translate(598.884766 0)"/>
      <use xlink:href="#DejaVuSans-6d" transform="translate(637.898438 0)"/>
      <use xlink:href="#DejaVuSans-69" transform="translate(735.310547 0)"/>
      <use xlink:href="#DejaVuSans-6e" transform="translate(763.09375 0)"/>
      <use xlink:href="#DejaVuSans-6d" transform="translate(826.472656 0)"/>
      <use xlink:href="#DejaVuSans-61" transform="translate(923.884766 0)"/>
      <use xlink:href="#DejaVuSans-78" transform="translate(985.164062 0)"/>
      <use xlink:href="#DejaVuSans-29" transform="translate(1044.34375 0)"/>
      <use xlink:href="#DejaVuSans-20" transform="translate(1083.357422 0)"/>
      <use xlink:href="#DejaVuSans-45" transform="translate(1115.144531 0)"/>
      <use xlink:href="#DejaVuSans-70" transform="translate(1178.328125 0)"/>
      <use xlink:href="#DejaVuSans-69" transform="translate(1241.804688 0)"/>
      <use xlink:href="#DejaVuSans-73" transform="translate(1269.587891 0)"/>
      <use xlink:href="#DejaVuSans-6f" transform="translate(1321.6875 0)"/>
      <use xlink:href="#DejaVuSans-64" transform="translate(1382.869141 0)"/>
      <use xlink:href="#DejaVuSans-69" transform="translate(1446.345703 0)"/>
      <use xlink:href="#DejaVuSans-63" transform="translate(1474.128906 0)"/>
      <use xlink:href="#DejaVuSans-20" transform="translate(1529.109375 0)"/>
      <use xlink:href="#DejaVuSans-52" transform="translate(1560.896484 0)"/>
      <use xlink:href="#DejaVuSans-65" transform="translate(1625.878906 0)"/>
      <use xlink:href="#DejaVuSans-74" transform="translate(1687.402344 0)"/>
      <use xlink:href="#DejaVuSans-75" transform="translate(1726.611328 0)"/>
      <use xlink:href="#DejaVuSans-72" transform="translate(1789.990234 0)"/>
      <use xlink:href="#DejaVuSans-6e" transform="translate(1829.353516 0)"/>
     </g>
    </g>
   </g>
   <g id="line2d_15">
    <path d="M 98.839851 344.815486 
L 99.413011 344.33787 
L 99.986171 342.138378 
L 102.851973 325.018199 
L 103.425133 322.895354 
L 105.717774 316.942459 
L 106.290934 291.063979 
L 107.437255 280.468314 
L 108.010415 263.297762 
L 108.583575 250.305422 
L 109.156735 249.490688 
L 109.729896 259.890295 
L 110.303056 259.723365 
L 110.876216 250.549129 
L 111.449376 237.273608 
L 112.595697 187.272333 
L 113.168857 195.11557 
L 113.742017 198.363085 
L 114.315178 221.820415 
L 114.888338 225.558127 
L 115.461498 243.622023 
L 116.034658 245.100307 
L 117.754139 233.712621 
L 121.193101 266.895032 
L 125.778383 311.539268 
L 126.351543 313.481136 
L 127.497864 288.437721 
L 128.071024 284.574256 
L 129.217344 294.535617 
L 130.363665 307.95994 
L 132.083146 329.282215 
L 132.656306 329.033582 
L 133.802626 326.216049 
L 134.375787 322.245282 
L 134.948947 316.493049 
L 135.522107 298.990359 
L 136.095267 296.951824 
L 136.668428 301.416329 
L 137.241588 301.041416 
L 137.814748 300.318578 
L 138.387908 300.900272 
L 138.961069 292.477087 
L 139.534229 257.397216 
L 140.107389 203.08495 
L 140.680549 176.200131 
L 141.25371 164.205522 
L 141.82687 163.077046 
L 142.40003 168.344662 
L 142.97319 171.904323 
L 143.546351 174.317728 
L 148.131633 162.266762 
L 148.704793 164.10233 
L 149.277953 169.490053 
L 152.143755 234.375742 
L 155.582716 268.66755 
L 156.155876 262.944543 
L 156.729037 221.30809 
L 157.302197 190.738924 
L 158.448517 198.218155 
L 159.021678 200.168698 
L 159.594838 198.922396 
L 160.741158 187.327497 
L 161.314319 179.990912 
L 163.033799 144.090961 
L 163.60696 123.721312 
L 164.18012 167.274877 
L 164.75328 178.601544 
L 165.32644 176.810929 
L 167.045921 164.096169 
L 167.619081 168.978632 
L 168.192242 177.60271 
L 168.765402 182.255889 
L 169.911723 188.231306 
L 172.204364 199.069915 
L 172.777524 163.402219 
L 173.350684 147.297911 
L 174.497005 146.000627 
L 175.070165 143.367786 
L 178.509126 119.614083 
L 179.082287 117.637906 
L 180.228607 120.895638 
L 180.801767 126.309227 
L 181.374928 133.421827 
L 181.948088 156.029621 
L 183.094408 207.195252 
L 183.667569 213.884569 
L 184.240729 222.649322 
L 184.813889 228.489813 
L 185.387049 211.528549 
L 185.96021 179.50434 
L 186.53337 174.393016 
L 187.10653 173.182397 
L 189.399171 217.565869 
L 191.118652 233.664595 
L 191.691812 239.187939 
L 192.264973 188.920756 
L 194.557614 208.939421 
L 195.130774 214.688152 
L 197.996575 256.398516 
L 198.569735 262.712767 
L 199.142896 264.810864 
L 199.716056 265.894924 
L 201.435537 248.719908 
L 202.008697 238.731738 
L 203.155017 210.209115 
L 203.728178 259.695711 
L 204.301338 272.622125 
L 204.874498 271.205147 
L 205.447658 261.551912 
L 206.020819 295.268223 
L 207.740299 277.25991 
L 208.31346 270.479863 
L 208.88662 238.542064 
L 212.325581 229.603023 
L 212.898742 219.13351 
L 214.618222 177.55037 
L 215.191383 183.955798 
L 216.337703 237.622683 
L 216.910864 247.525448 
L 217.484024 252.294781 
L 218.057184 214.987443 
L 218.630344 203.880163 
L 220.349825 158.573049 
L 220.922985 156.97605 
L 223.215626 193.640983 
L 223.788787 198.235165 
L 224.361947 187.554898 
L 224.935107 182.030002 
L 226.081428 176.851322 
L 226.654588 176.898747 
L 227.800908 185.380868 
L 228.374069 182.595151 
L 228.947229 178.802252 
L 229.520389 173.120488 
L 230.093549 177.923961 
L 230.66671 185.971251 
L 231.23987 199.851179 
L 232.38619 234.874511 
L 232.959351 243.552659 
L 234.105671 255.081186 
L 235.251992 227.188763 
L 235.825152 218.650147 
L 237.544633 203.024745 
L 238.117793 203.031133 
L 238.690953 205.322719 
L 239.837274 216.892817 
L 240.410434 219.364039 
L 243.276235 198.652461 
L 244.995716 177.888008 
L 246.142037 169.980695 
L 246.715197 166.25349 
L 247.288357 168.821822 
L 247.861517 191.368669 
L 248.434678 199.987852 
L 249.007838 190.745553 
L 249.580998 178.336948 
L 250.154158 182.486051 
L 250.727319 154.256758 
L 252.446799 136.661343 
L 253.01996 144.72875 
L 253.59312 158.702416 
L 254.16628 151.896374 
L 255.312601 184.966924 
L 255.885761 214.660871 
L 256.458921 228.168773 
L 257.032081 234.399958 
L 258.178402 238.070722 
L 258.751562 227.080695 
L 259.324722 210.824784 
L 259.897883 187.948305 
L 261.617363 100.241185 
L 262.190524 80.420876 
L 263.336844 110.343354 
L 265.629485 199.240827 
L 266.202646 215.04302 
L 266.775806 219.170769 
L 267.922126 222.685196 
L 271.361088 232.374518 
L 271.934248 237.331318 
L 272.507408 249.408731 
L 273.080569 257.682851 
L 273.653729 260.607199 
L 274.226889 256.067663 
L 274.800049 247.830309 
L 276.51953 211.106116 
L 277.09269 240.915293 
L 278.812171 220.318846 
L 279.385331 228.416099 
L 279.958492 246.642306 
L 280.531652 239.452774 
L 282.251133 212.921387 
L 282.824293 261.663756 
L 283.397453 241.916767 
L 283.970613 217.175991 
L 284.543774 197.592908 
L 285.116934 211.252529 
L 285.690094 192.252611 
L 287.409575 158.319108 
L 288.555896 143.451579 
L 289.702216 135.790471 
L 290.275376 138.564 
L 291.421697 129.387091 
L 291.994857 138.385082 
L 293.714338 197.018399 
L 294.287498 223.397091 
L 295.433819 247.326065 
L 297.153299 249.168737 
L 298.29962 236.377915 
L 303.458062 174.719033 
L 304.031222 171.51641 
L 304.604383 177.706873 
L 305.177543 190.853298 
L 305.750703 210.423698 
L 306.323863 245.330702 
L 306.897024 248.340664 
L 307.470184 181.780273 
L 308.043344 161.430957 
L 308.616505 168.971599 
L 309.189665 170.432831 
L 309.762825 179.39055 
L 310.335985 185.208182 
L 310.909146 188.388994 
L 312.055466 201.468081 
L 314.921267 200.428809 
L 315.494428 193.546103 
L 316.067588 192.424084 
L 316.640748 179.247112 
L 317.213908 183.402153 
L 317.787069 185.628876 
L 318.360229 189.632795 
L 318.933389 191.820497 
L 319.506549 205.857264 
L 320.07971 223.145518 
L 320.65287 232.613572 
L 323.518671 201.146346 
L 324.091831 201.688303 
L 325.238152 178.206801 
L 325.811312 175.745939 
L 327.530793 186.271662 
L 329.250274 202.497975 
L 329.823434 184.558818 
L 330.396594 175.977478 
L 332.689235 163.156105 
L 333.262396 218.768655 
L 334.408716 209.418087 
L 334.981876 214.702146 
L 335.555037 216.205219 
L 336.128197 209.79442 
L 336.701357 199.520198 
L 337.274517 192.395212 
L 338.420838 157.367562 
L 340.140319 162.580792 
L 340.713479 174.950484 
L 341.286639 167.291082 
L 341.859799 158.006712 
L 342.43296 150.874815 
L 343.00612 149.629744 
L 343.57928 202.938837 
L 344.15244 204.533487 
L 344.725601 204.157716 
L 345.298761 194.398627 
L 347.591402 172.336477 
L 348.164562 172.913395 
L 348.737722 182.271931 
L 349.884043 211.43087 
L 351.030363 234.827171 
L 351.603524 227.010055 
L 352.749844 191.617997 
L 353.323004 245.856909 
L 355.042485 211.061286 
L 355.615646 200.274955 
L 356.188806 194.696512 
L 357.908287 208.082162 
L 358.481447 210.324959 
L 360.200928 207.59084 
L 360.774088 205.941867 
L 361.920408 195.751289 
L 362.493569 184.221755 
L 363.066729 205.687529 
L 364.213049 148.740446 
L 364.78621 138.196612 
L 365.93253 133.989259 
L 367.078851 140.747967 
L 369.944652 99.391448 
L 370.517812 96.61457 
L 371.090972 118.534423 
L 371.664133 129.648071 
L 373.383613 145.928593 
L 373.956774 143.866455 
L 374.529934 150.757087 
L 375.103094 159.099519 
L 375.676254 170.654526 
L 376.249415 195.404473 
L 376.822575 206.249809 
L 377.395735 170.482164 
L 378.542056 194.27354 
L 380.261537 225.654785 
L 380.834697 224.735932 
L 381.407857 222.543306 
L 381.981017 221.35221 
L 382.554178 219.667887 
L 383.127338 214.418318 
L 384.273658 182.587792 
L 385.419979 175.938957 
L 386.566299 148.794519 
L 388.85894 91.783828 
L 389.432101 98.611731 
L 390.005261 113.858947 
L 392.297902 199.678724 
L 392.871062 210.241171 
L 393.444222 201.957433 
L 394.017383 188.194111 
L 394.590543 177.813905 
L 395.163703 143.749793 
L 395.736863 143.181365 
L 396.310024 152.578077 
L 397.456344 183.454486 
L 398.029504 178.159171 
L 398.602665 175.572624 
L 399.748985 178.162955 
L 400.322145 155.831717 
L 400.895306 141.193162 
L 401.468466 148.526343 
L 402.041626 138.050632 
L 402.614787 132.649338 
L 404.907428 123.172513 
L 407.200069 122.036961 
L 407.773229 121.003603 
L 408.346389 115.981911 
L 409.49271 121.068206 
L 410.06587 120.915344 
L 410.63903 123.51888 
L 412.931671 159.446798 
L 414.077992 179.608931 
L 414.651152 143.290891 
L 415.224312 142.803849 
L 418.663274 134.99243 
L 420.955915 163.067577 
L 421.529075 164.74339 
L 422.102235 164.689503 
L 422.675395 162.387314 
L 423.821716 180.349942 
L 424.394876 165.977025 
L 424.968037 193.433349 
L 427.260678 185.637255 
L 427.833838 181.905062 
L 428.406998 165.855653 
L 428.980158 164.109219 
L 429.553319 178.063471 
L 430.126479 170.421896 
L 430.699639 159.350794 
L 432.99228 104.397847 
L 434.138601 90.928381 
L 434.711761 89.620498 
L 437.577562 153.521286 
L 438.150722 162.705727 
L 439.297043 189.587204 
L 442.162844 103.637437 
L 444.455485 88.910765 
L 445.028645 86.945087 
L 446.748126 108.487925 
L 448.467607 134.138414 
L 449.613928 152.523624 
L 451.333408 176.421804 
L 452.479729 158.866164 
L 453.052889 153.576821 
L 453.626049 142.8339 
L 454.19921 139.911535 
L 454.77237 129.551349 
L 455.91869 200.841963 
L 457.065011 156.326382 
L 457.638171 154.5452 
L 459.357652 172.346648 
L 459.930812 176.558263 
L 461.650293 186.276285 
L 462.223453 196.476969 
L 462.796613 203.193519 
L 463.942934 220.780567 
L 464.516094 230.159239 
L 465.662415 240.525487 
L 466.808735 166.270833 
L 467.955056 200.263558 
L 468.528216 200.307663 
L 469.101376 199.03553 
L 470.820857 182.351133 
L 471.394017 184.252865 
L 475.406139 215.894273 
L 476.55246 221.610766 
L 477.12562 222.412575 
L 477.69878 255.571076 
L 478.27194 229.390619 
L 478.845101 213.079042 
L 479.991421 220.122997 
L 480.564581 214.336115 
L 482.284062 172.035368 
L 483.430383 178.140699 
L 484.003543 122.448092 
L 484.576703 122.917929 
L 485.149863 119.468326 
L 485.723024 118.303146 
L 486.296184 117.721108 
L 486.869344 144.369859 
L 487.442504 133.770822 
L 488.015665 131.063084 
L 488.588825 137.284422 
L 490.881466 135.628168 
L 492.027786 42.012727 
L 492.600947 67.978593 
L 494.320427 106.515459 
L 495.466748 122.977772 
L 496.039908 134.939317 
L 497.759389 159.482021 
L 498.332549 153.980743 
L 499.47887 106.817103 
L 500.05203 98.915055 
L 501.198351 121.900172 
L 502.344671 146.486281 
L 502.917831 156.216879 
L 505.210472 113.72469 
L 505.783633 101.704764 
L 506.356793 95.157087 
L 506.929953 101.300172 
L 508.076274 124.429201 
L 508.649434 130.270434 
L 509.795754 139.61093 
L 510.942075 161.3591 
L 511.515235 165.029819 
L 512.088395 164.887014 
L 514.381036 115.687756 
L 515.527357 168.037113 
L 516.100517 188.145127 
L 516.673677 158.822421 
L 517.246838 152.209142 
L 517.819998 150.574131 
L 518.966319 118.430525 
L 519.539479 121.971442 
L 520.112639 122.854908 
L 521.83212 121.571442 
L 524.124761 162.052546 
L 524.697921 176.368231 
L 525.844242 213.113193 
L 526.417402 218.727251 
L 526.990562 216.69909 
L 529.856363 175.020262 
L 530.429524 174.790564 
L 532.149004 237.373518 
L 532.722165 241.115856 
L 533.295325 224.042158 
L 533.868485 192.605178 
L 536.161126 136.568952 
L 536.734286 132.50784 
L 537.307447 177.603751 
L 538.453767 165.130704 
L 539.026927 156.21364 
L 539.600088 130.956174 
L 540.173248 152.958766 
L 541.319569 127.210287 
L 541.892729 145.562763 
L 542.465889 172.75984 
L 543.039049 162.544769 
L 543.61221 114.635832 
L 544.18537 112.660837 
L 544.75853 113.032546 
L 545.33169 110.795533 
L 545.904851 109.647422 
L 547.051171 117.357331 
L 547.624331 118.261103 
L 548.770652 134.66208 
L 549.916972 153.975634 
L 550.490133 158.589535 
L 551.063293 158.449695 
L 551.636453 142.780855 
L 552.209613 146.060352 
L 554.502254 189.344948 
L 555.075415 182.327566 
L 555.648575 167.382031 
L 556.221735 169.74991 
L 556.794895 170.762488 
L 557.368056 171.534416 
L 557.941216 179.613189 
L 559.087536 104.663626 
L 560.233857 145.72896 
L 562.526498 140.91641 
L 563.099658 140.678315 
L 563.672818 131.975379 
L 564.245979 130.291482 
L 565.392299 119.271198 
L 565.96546 147.180494 
L 567.11178 192.128902 
L 567.68494 189.667704 
L 568.258101 177.635854 
L 569.404421 143.258806 
L 570.550742 129.579868 
L 571.123902 133.688866 
L 574.562863 201.511544 
L 575.136024 204.226768 
L 576.855504 193.829759 
L 578.001825 183.852052 
L 578.574985 181.318716 
L 579.721306 197.16322 
L 580.294466 208.526798 
L 580.867626 206.611179 
L 582.587107 146.003083 
L 583.733427 108.120632 
L 584.306588 105.991262 
L 585.452908 142.075366 
L 586.026068 153.173185 
L 586.599229 194.617789 
L 587.172389 175.064345 
L 587.745549 172.416296 
L 588.31871 173.999194 
L 589.46503 191.322962 
L 590.03819 201.538911 
L 590.611351 194.005467 
L 591.184511 171.039298 
L 592.903992 141.4062 
L 593.477152 160.500098 
L 594.050312 200.167287 
L 594.623472 222.393259 
L 595.196633 229.618427 
L 595.769793 196.157478 
L 596.342953 183.511812 
L 597.489274 219.060719 
L 598.062434 216.938603 
L 600.355075 195.257644 
L 600.928235 188.520596 
L 603.220876 153.909211 
L 603.794036 148.402352 
L 606.659838 132.369293 
L 607.232998 120.452061 
L 607.806158 115.370562 
L 608.379318 125.525804 
L 608.952479 125.832339 
L 609.525639 156.65106 
L 610.671959 147.742651 
L 611.24512 209.708226 
L 612.39144 198.321619 
L 612.964601 190.8164 
L 613.537761 166.725674 
L 614.110921 171.20014 
L 614.684081 173.161319 
L 615.830402 151.271419 
L 616.403562 150.888058 
L 616.976722 154.125369 
L 617.549883 155.701623 
L 618.123043 149.674549 
L 618.696203 117.620415 
L 620.415684 169.288504 
L 620.988844 170.274354 
L 622.708325 150.71063 
L 623.281485 182.719348 
L 623.854645 181.023995 
L 625.000966 170.26036 
L 627.293607 152.791588 
L 627.866767 122.666463 
L 628.439927 133.439852 
L 629.586248 160.952275 
L 630.159408 163.765267 
L 632.452049 172.481185 
L 633.025209 179.416346 
L 633.59837 155.891119 
L 634.17153 153.666888 
L 634.74469 199.616365 
L 635.317851 198.107685 
L 635.891011 197.243965 
L 636.464171 180.012788 
L 637.037331 171.7138 
L 637.610492 141.752271 
L 638.183652 137.656535 
L 639.903133 122.765177 
L 640.476293 121.248609 
L 641.049453 121.830723 
L 641.622613 119.735606 
L 642.195774 116.944611 
L 642.768934 118.567523 
L 643.342094 125.255886 
L 645.061575 163.692355 
L 645.634735 166.171669 
L 646.781056 161.387807 
L 647.354216 134.367799 
L 647.927376 128.717515 
L 649.646857 123.314159 
L 650.220017 122.257481 
L 653.085818 119.95688 
L 653.658979 120.367108 
L 657.09794 125.728961 
L 657.671101 124.041429 
L 658.244261 115.797525 
L 658.817421 111.78357 
L 659.390581 109.919792 
L 659.963742 115.082254 
L 661.683222 150.059687 
L 662.256383 138.367585 
L 662.829543 117.901417 
L 664.549024 133.301353 
L 665.122184 139.733241 
L 666.268504 156.358341 
L 667.414825 154.329284 
L 667.987985 111.376604 
L 668.561145 109.523511 
L 669.134306 104.099249 
L 669.707466 104.807701 
L 670.280626 103.73352 
L 670.853786 101.759975 
L 671.426947 129.969978 
L 671.426947 129.969978 
" clip-path="url(#pdc183c0cd3)" style="fill: none; stroke: #00008b; stroke-width: 1.5; stroke-linecap: square"/>
   </g>
   <g id="line2d_16">
    <path d="M 84.742334 333.202215 
L 85.337614 338.424997 
L 85.932894 346.137154 
L 87.123454 373.467273 
L 87.718735 372.590796 
L 88.314015 369.636773 
L 89.504575 324.507625 
L 90.099856 299.019411 
L 90.695136 282.305349 
L 91.290416 268.951031 
L 91.885696 261.909282 
L 92.480976 259.232935 
L 93.671537 261.595018 
L 94.266817 262.393335 
L 94.862097 263.856742 
L 95.457378 263.773219 
L 97.243218 249.421648 
L 97.838498 240.423294 
L 98.433779 237.607349 
L 99.029059 235.622228 
L 100.219619 246.024102 
L 101.41018 257.151807 
L 102.00546 269.079087 
L 103.19602 281.536632 
L 103.791301 287.34461 
L 104.386581 294.568611 
L 104.981861 292.910953 
L 105.577141 286.134731 
L 107.362982 283.657382 
L 107.958262 279.650818 
L 108.553542 282.991939 
L 109.148823 291.870983 
L 110.339383 303.767156 
L 110.934663 309.087657 
L 111.529943 309.338909 
L 112.720504 301.849771 
L 113.315784 300.0266 
L 113.911064 303.220135 
L 114.506345 303.69923 
L 115.101625 300.544008 
L 115.696905 289.047296 
L 116.887465 258.328195 
L 118.078026 221.399463 
L 118.673306 211.425579 
L 119.268586 209.698212 
L 120.459147 209.649432 
L 121.054427 215.373786 
L 121.649707 224.666279 
L 122.244987 226.905644 
L 122.840268 244.617533 
L 123.435548 267.261161 
L 124.030828 282.75054 
L 124.626108 276.76278 
L 127.602509 198.875282 
L 128.19779 193.034563 
L 128.79307 205.523553 
L 129.98363 247.72869 
L 130.57891 263.735525 
L 131.174191 256.716181 
L 131.769471 247.094885 
L 133.555312 235.970286 
L 134.150592 235.416412 
L 134.745872 242.297703 
L 136.531713 273.961681 
L 137.126993 287.871888 
L 137.722273 290.663811 
L 138.317553 289.663077 
L 138.912834 290.636341 
L 139.508114 281.85826 
L 140.103394 271.020893 
L 140.698674 266.200793 
L 142.484515 245.46539 
L 143.079795 244.556175 
L 143.675075 242.493835 
L 144.270356 234.878181 
L 146.056196 205.824754 
L 146.651476 202.984552 
L 147.246757 207.902154 
L 147.842037 214.796004 
L 148.437317 226.938484 
L 149.032597 243.814987 
L 149.627877 248.300754 
L 150.223158 247.578065 
L 151.413718 259.558143 
L 152.008998 251.542226 
L 152.604279 250.552745 
L 153.199559 253.192217 
L 153.794839 244.477209 
L 154.390119 233.207712 
L 154.985399 226.284384 
L 156.17596 230.560374 
L 156.77124 233.734991 
L 157.961801 242.215559 
L 158.557081 243.602319 
L 159.152361 239.401287 
L 159.747641 245.016403 
L 162.128762 318.928923 
L 162.724042 322.541596 
L 163.319323 317.494083 
L 166.891004 267.853722 
L 168.081564 262.443621 
L 168.676845 257.982868 
L 169.272125 254.801977 
L 169.867405 253.384711 
L 170.462685 254.669205 
L 171.057965 262.379233 
L 171.653246 267.700422 
L 172.248526 259.415317 
L 173.439086 257.099483 
L 174.034366 255.178965 
L 175.224927 235.782168 
L 175.820207 237.30679 
L 176.415487 240.068671 
L 177.010768 239.307244 
L 177.606048 239.377555 
L 178.201328 248.427416 
L 178.796608 261.64183 
L 179.391888 271.504854 
L 179.987169 284.351593 
L 180.582449 303.521094 
L 181.177729 318.54172 
L 181.773009 327.510477 
L 182.36829 330.827516 
L 182.96357 332.009107 
L 186.535251 301.824082 
L 187.130531 299.086711 
L 187.725812 301.408895 
L 188.321092 302.397005 
L 190.106932 276.718199 
L 191.297493 257.321874 
L 191.892773 250.269364 
L 192.488053 252.024976 
L 193.083334 250.536034 
L 194.869174 273.654049 
L 195.464454 278.973369 
L 196.059735 288.853854 
L 196.655015 293.657819 
L 198.440855 303.937804 
L 199.036136 306.634973 
L 199.631416 305.662784 
L 200.821976 288.266789 
L 202.607817 241.101883 
L 203.203097 229.571416 
L 203.798377 226.119079 
L 204.393658 240.136585 
L 205.584218 289.921423 
L 206.179498 306.677158 
L 206.774779 313.739298 
L 207.370059 308.328191 
L 209.75118 246.007585 
L 210.34646 263.295454 
L 210.94174 291.438765 
L 211.53702 268.884106 
L 212.132301 264.491674 
L 213.322861 262.475022 
L 213.918141 263.049991 
L 214.513421 268.61804 
L 215.108702 270.29606 
L 215.703982 262.340511 
L 216.299262 247.26292 
L 217.489823 211.06606 
L 218.085103 207.808319 
L 219.275663 236.924187 
L 219.870943 256.26606 
L 220.466224 280.909579 
L 221.061504 291.074886 
L 222.252064 301.616016 
L 222.847344 296.561436 
L 224.633185 258.636333 
L 225.823746 251.350352 
L 226.419026 248.650592 
L 227.609586 265.576846 
L 229.395427 297.365591 
L 229.990707 300.215632 
L 230.585987 299.027314 
L 231.181268 291.463233 
L 232.967108 254.472697 
L 233.562388 251.545008 
L 234.157669 250.11007 
L 234.752949 258.132101 
L 235.943509 266.272349 
L 236.53879 269.937781 
L 237.13407 264.837941 
L 237.72935 255.216723 
L 238.32463 248.586019 
L 240.110471 261.981279 
L 240.705751 269.470662 
L 241.301031 269.109324 
L 242.491592 262.870136 
L 244.872713 230.039773 
L 245.467993 232.968534 
L 246.063273 241.692929 
L 246.658553 252.328075 
L 247.253833 259.118367 
L 249.039674 274.184298 
L 249.634954 276.380877 
L 250.825515 257.231629 
L 251.420795 251.621758 
L 252.611355 243.260923 
L 253.206636 237.417309 
L 254.397196 217.938239 
L 256.183037 236.712547 
L 256.778317 242.855159 
L 257.373597 251.674903 
L 257.968877 254.936347 
L 258.564158 250.728775 
L 259.754718 239.415478 
L 260.349998 235.241088 
L 260.945279 232.577258 
L 262.731119 251.348921 
L 263.326399 252.048552 
L 264.51696 231.119741 
L 265.70752 223.398455 
L 266.3028 219.76038 
L 266.898081 218.671603 
L 268.088641 223.974572 
L 269.279202 246.897012 
L 270.469762 257.286512 
L 271.065042 256.199505 
L 272.255603 248.832072 
L 272.850883 250.939662 
L 274.041443 260.590636 
L 275.232004 276.622853 
L 277.017844 298.795931 
L 277.613125 301.456738 
L 278.208405 303.375078 
L 279.398965 304.137205 
L 279.994246 304.095886 
L 280.589526 304.273442 
L 281.184806 303.889113 
L 282.375366 291.915759 
L 282.970647 287.946892 
L 284.756487 305.008347 
L 285.351768 311.062038 
L 285.947048 304.61696 
L 286.542328 295.882626 
L 288.923449 252.19669 
L 291.30457 205.417725 
L 291.89985 208.959654 
L 292.49513 228.435258 
L 293.685691 277.050877 
L 294.280971 281.8721 
L 294.876251 282.075562 
L 295.471531 278.707296 
L 296.066811 280.328992 
L 297.852652 274.894825 
L 298.447932 271.48692 
L 299.043213 262.927646 
L 299.638493 250.820402 
L 300.233773 246.323132 
L 300.829053 247.498822 
L 302.019614 264.119823 
L 303.210174 270.439736 
L 303.805454 269.661301 
L 304.996015 265.692788 
L 305.591295 266.643789 
L 306.186575 272.367502 
L 306.781855 276.163242 
L 307.377136 277.422932 
L 307.972416 277.098094 
L 308.567696 274.472407 
L 310.353537 238.417429 
L 310.948817 233.893132 
L 311.544097 239.710854 
L 313.925218 280.225261 
L 314.520498 283.036172 
L 316.306339 250.28071 
L 318.68746 203.833032 
L 320.4733 199.125615 
L 321.068581 203.375561 
L 321.663861 212.862015 
L 324.640262 247.826502 
L 325.235542 249.800097 
L 326.426103 237.459421 
L 327.021383 238.802238 
L 327.616663 240.803263 
L 328.211943 244.438097 
L 328.807224 255.050939 
L 330.593064 332.460718 
L 331.188344 353.607362 
L 331.783625 359.834506 
L 334.760026 270.711065 
L 335.355306 269.074969 
L 335.950586 269.516222 
L 336.545866 268.724507 
L 338.331707 257.420545 
L 339.522267 240.16268 
L 340.712828 227.731831 
L 341.308108 228.287121 
L 342.498669 245.926167 
L 343.689229 250.527544 
L 344.284509 249.374579 
L 344.879789 245.203554 
L 346.66563 248.934912 
L 347.856191 256.069823 
L 348.451471 252.306702 
L 350.237311 229.644538 
L 350.832592 241.988395 
L 351.427872 271.71526 
L 352.023152 275.856689 
L 352.618432 273.051466 
L 353.808993 272.770071 
L 354.999553 255.472317 
L 355.594833 253.313263 
L 356.190114 253.610641 
L 356.785394 253.110304 
L 357.975954 256.86588 
L 359.761795 279.047239 
L 360.357075 284.232092 
L 360.952355 287.062188 
L 361.547636 281.771145 
L 362.142916 273.454209 
L 364.524037 277.661903 
L 365.119317 272.968335 
L 367.500438 242.869984 
L 368.095718 243.572266 
L 369.881559 252.838364 
L 370.476839 248.537871 
L 371.072119 242.889238 
L 373.45324 211.76774 
L 374.04852 211.111327 
L 377.024921 262.432317 
L 377.620202 267.837175 
L 378.215482 270.056164 
L 378.810762 269.83659 
L 380.001322 262.159799 
L 380.596603 261.60251 
L 381.787163 275.291078 
L 382.382443 275.528083 
L 382.977723 274.648305 
L 384.168284 275.708439 
L 384.763564 275.585901 
L 385.954125 261.377875 
L 388.335245 209.316433 
L 388.930526 209.50421 
L 389.525806 235.176464 
L 390.716366 299.426747 
L 391.311647 322.480386 
L 391.906927 337.077678 
L 393.097487 317.64965 
L 394.288048 296.107303 
L 394.883328 284.037432 
L 395.478608 283.599326 
L 396.669169 294.473107 
L 397.264449 296.318497 
L 397.859729 290.581814 
L 398.455009 281.3016 
L 399.050289 269.72986 
L 401.43141 189.129534 
L 402.026691 190.005611 
L 403.217251 209.37634 
L 405.003092 260.322469 
L 405.598372 273.011145 
L 406.193652 282.186282 
L 406.788932 289.558558 
L 407.384212 294.430421 
L 407.979493 297.6187 
L 408.574773 289.813228 
L 411.551174 241.252361 
L 412.146454 243.202217 
L 412.741734 246.384946 
L 413.337015 248.707715 
L 413.932295 251.540838 
L 414.527575 253.604436 
L 416.313416 284.902412 
L 416.908696 280.221147 
L 417.503976 271.296323 
L 418.099256 271.460994 
L 418.694537 272.776795 
L 419.289817 271.79109 
L 419.885097 265.792788 
L 421.670938 238.500718 
L 422.861498 227.549849 
L 423.456778 228.285055 
L 424.052059 233.190064 
L 425.242619 248.345896 
L 427.02846 268.167358 
L 427.62374 271.467985 
L 428.21902 270.725671 
L 429.409581 266.684974 
L 430.004861 269.763017 
L 430.600141 274.887474 
L 431.195421 289.631236 
L 431.790701 299.727095 
L 432.385982 302.181663 
L 432.981262 301.740765 
L 433.576542 296.552828 
L 434.767103 272.666286 
L 435.362383 270.003521 
L 435.957663 270.344553 
L 437.148223 266.470034 
L 438.934064 265.693085 
L 439.529344 266.597631 
L 440.124625 266.147498 
L 440.719905 270.557765 
L 441.315185 279.594177 
L 443.101026 281.851401 
L 444.291586 265.510769 
L 444.886866 261.400781 
L 445.482147 258.977895 
L 446.077427 264.461739 
L 446.672707 268.084139 
L 447.267987 267.569036 
L 449.053828 264.354828 
L 450.244388 238.882787 
L 450.839668 225.445574 
L 451.434949 226.496823 
L 452.030229 223.566453 
L 453.220789 217.064497 
L 453.81607 221.307133 
L 454.41135 226.640448 
L 455.00663 224.587129 
L 455.60191 233.462306 
L 457.387751 287.391753 
L 457.983031 297.818403 
L 459.173592 278.540353 
L 460.364152 255.807558 
L 460.959432 255.832813 
L 461.554712 257.210933 
L 462.149993 255.590925 
L 463.340553 269.897586 
L 463.935833 277.330179 
L 464.531114 277.583872 
L 465.721674 244.272816 
L 466.912234 224.832596 
L 468.102795 207.021138 
L 468.698075 200.443161 
L 469.293355 208.215604 
L 471.079196 243.236912 
L 471.674476 253.780218 
L 472.269756 255.92391 
L 472.865037 264.119786 
L 474.650877 275.403401 
L 475.246157 275.499421 
L 476.436718 265.23925 
L 478.222559 292.703714 
L 478.817839 294.880466 
L 479.413119 291.404208 
L 480.008399 289.246288 
L 480.603679 286.314762 
L 481.79424 276.946147 
L 482.38952 269.138327 
L 482.9848 257.163151 
L 483.580081 252.652696 
L 485.365921 243.725212 
L 485.961201 239.638924 
L 486.556482 245.263492 
L 488.937603 311.131587 
L 489.532883 317.138408 
L 491.914004 313.331639 
L 492.509284 309.695511 
L 493.699844 290.469558 
L 494.890405 267.996613 
L 495.485685 262.268967 
L 496.080965 260.754447 
L 496.676245 261.701775 
L 497.271526 264.948664 
L 499.057366 260.108045 
L 499.652646 260.857451 
L 500.247927 259.134722 
L 501.438487 247.79371 
L 502.033767 250.487617 
L 502.629048 256.035459 
L 503.819608 277.53111 
L 505.010168 302.071933 
L 505.605449 309.78049 
L 506.200729 307.760299 
L 506.796009 300.209148 
L 507.391289 285.187077 
L 509.17713 219.900381 
L 509.77241 203.899034 
L 510.36769 205.62614 
L 510.962971 228.414813 
L 512.153531 295.35731 
L 512.748811 325.808586 
L 513.344092 316.560263 
L 516.320493 205.006089 
L 516.915773 187.421403 
L 517.511053 194.760461 
L 519.892174 241.867298 
L 520.487454 248.804415 
L 522.868575 258.466767 
L 523.463855 259.718695 
L 524.059135 247.049146 
L 525.249696 244.165982 
L 526.440256 241.53062 
L 527.035537 235.482576 
L 527.630817 224.903191 
L 528.226097 224.03462 
L 530.011938 229.54269 
L 531.202498 220.498504 
L 531.797778 229.48607 
L 532.393059 248.989303 
L 533.583619 316.107162 
L 534.178899 317.624241 
L 534.774179 309.555498 
L 535.96474 269.642628 
L 537.1553 242.073149 
L 537.750581 237.205204 
L 540.131701 302.883673 
L 540.726982 301.548703 
L 541.322262 296.862288 
L 541.917542 290.117123 
L 543.108102 263.82982 
L 544.298663 232.065652 
L 544.893943 219.732097 
L 545.489223 222.674881 
L 546.084504 226.76657 
L 546.679784 251.882918 
L 547.275064 291.219985 
L 547.870344 314.360379 
L 549.060905 318.165432 
L 549.656185 318.660678 
L 550.251465 317.078367 
L 550.846745 307.042131 
L 553.227866 243.190111 
L 553.823146 235.394804 
L 554.418427 231.929551 
L 556.204267 260.628043 
L 556.799548 257.14453 
L 557.394828 256.049251 
L 557.990108 257.638768 
L 559.180668 250.159601 
L 559.775949 249.266624 
L 560.371229 250.283376 
L 562.75235 268.168193 
L 563.94291 264.64414 
L 564.53819 264.302572 
L 565.728751 276.661181 
L 566.324031 283.507658 
L 567.514591 299.439557 
L 568.705152 286.401654 
L 569.895712 282.11766 
L 570.490993 280.765134 
L 571.086273 279.793611 
L 571.681553 273.316404 
L 572.276833 263.978877 
L 572.872113 261.751134 
L 573.467394 256.356823 
L 575.253234 236.514195 
L 575.848515 235.594043 
L 576.443795 238.076156 
L 579.420196 270.985283 
L 581.801317 320.115131 
L 582.396597 321.694538 
L 582.991877 320.62874 
L 583.587157 322.588708 
L 584.777718 320.079843 
L 585.372998 317.116742 
L 585.968278 312.144716 
L 587.158839 306.825251 
L 587.754119 310.199873 
L 588.349399 305.201829 
L 588.944679 298.816451 
L 589.53996 297.979951 
L 590.13524 298.308657 
L 590.73052 297.767029 
L 593.111641 285.001754 
L 594.302201 262.652907 
L 594.897482 246.114147 
L 596.683322 211.717625 
L 597.873883 181.837967 
L 599.064443 164.424171 
L 600.850284 187.667218 
L 601.445564 207.773447 
L 602.040844 223.140684 
L 602.636124 229.726688 
L 603.231405 242.467031 
L 604.421965 271.318604 
L 605.017245 271.781621 
L 605.612526 272.908271 
L 606.207806 277.160997 
L 606.803086 272.556611 
L 607.993646 247.999423 
L 608.588927 235.171589 
L 609.184207 234.036494 
L 609.779487 239.602987 
L 610.374767 252.871603 
L 611.565328 300.476706 
L 612.160608 307.264773 
L 612.755888 310.114519 
L 613.351168 305.56238 
L 614.541729 265.307435 
L 615.137009 243.840176 
L 615.732289 227.268198 
L 616.327569 218.606646 
L 616.92285 218.65287 
L 617.51813 220.645891 
L 618.70869 227.441491 
L 619.303971 227.970816 
L 619.899251 228.125652 
L 621.089811 227.822381 
L 621.685091 231.541464 
L 622.875652 262.553635 
L 623.470932 273.631079 
L 624.066212 262.776358 
L 624.661493 248.554964 
L 625.256773 243.017529 
L 625.852053 239.178816 
L 627.042613 220.736725 
L 628.828454 265.978578 
L 630.019015 284.677197 
L 630.614295 288.330886 
L 631.209575 286.460758 
L 632.995416 256.443309 
L 633.590696 248.945171 
L 634.185976 250.226755 
L 635.376536 269.454432 
L 635.971817 279.795711 
L 636.567097 285.249633 
L 637.162377 292.508879 
L 638.352938 300.302205 
L 640.138778 320.641521 
L 640.734058 320.443771 
L 641.924619 294.945613 
L 643.71046 254.288933 
L 644.30574 249.42403 
L 644.90102 248.503033 
L 646.686861 244.330756 
L 647.282141 239.646741 
L 647.877421 229.806911 
L 648.472701 226.470374 
L 649.067982 228.115868 
L 650.853822 254.856122 
L 651.449102 257.452278 
L 652.639663 250.35704 
L 654.425504 221.019777 
L 655.020784 218.858929 
L 656.211344 224.564046 
L 656.806624 226.16461 
L 657.997185 228.368912 
L 658.592465 232.012779 
L 660.973586 256.064122 
L 661.568866 255.722377 
L 662.759427 256.623068 
L 663.354707 256.973209 
L 664.545267 258.068359 
L 665.140547 260.858981 
L 666.926388 261.773279 
L 667.521668 266.074717 
L 668.116949 267.5957 
L 668.712229 265.35462 
L 669.902789 259.392848 
L 670.498069 255.818789 
L 671.68863 245.183968 
L 672.28391 246.361399 
L 672.87919 264.014134 
L 674.069751 273.962263 
L 675.260311 282.889418 
L 675.855591 270.450263 
L 676.450872 253.239522 
L 677.641432 267.649762 
L 678.831993 280.181516 
L 679.427273 275.135862 
L 679.427273 275.135862 
" clip-path="url(#pdc183c0cd3)" style="fill: none; stroke: #ff8c00; stroke-width: 1.5; stroke-linecap: square"/>
   </g>
   <g id="line2d_17">
    <path d="M 83.972727 280.942497 
L 84.567864 278.416722 
L 85.758138 277.032522 
L 86.353275 288.675293 
L 87.543549 356.267258 
L 88.138686 346.324405 
L 90.519233 273.063205 
L 91.11437 258.622201 
L 91.709507 258.094653 
L 92.304644 269.005959 
L 93.494918 297.530998 
L 94.090054 304.066227 
L 94.685191 303.973519 
L 95.280328 302.024659 
L 95.875465 295.164185 
L 96.470602 289.984398 
L 97.065739 288.891885 
L 97.660876 293.622009 
L 98.256013 295.926575 
L 99.446287 289.092829 
L 100.63656 273.648139 
L 101.231697 272.704965 
L 101.826834 287.147173 
L 102.421971 304.4566 
L 103.612245 291.422116 
L 104.207382 292.970051 
L 104.802519 291.350015 
L 107.183066 259.588902 
L 108.37334 233.564243 
L 108.968477 232.462042 
L 109.563614 231.730698 
L 110.158751 230.821976 
L 110.753887 229.639855 
L 111.349024 229.598572 
L 111.944161 232.281788 
L 113.729572 243.089723 
L 114.324709 249.383845 
L 114.919846 260.396956 
L 115.514983 275.142685 
L 116.705256 311.241976 
L 117.300393 314.536404 
L 117.89553 318.682535 
L 118.490667 318.129083 
L 120.276078 300.434057 
L 120.871215 296.561315 
L 121.466352 290.797699 
L 122.061488 282.496807 
L 123.846899 267.397702 
L 124.442036 264.325324 
L 125.037173 262.121349 
L 125.63231 261.243674 
L 127.41772 270.18977 
L 128.012857 281.39756 
L 129.798268 340.675062 
L 132.178816 302.133363 
L 132.773953 295.167355 
L 133.369089 294.978365 
L 133.964226 289.063423 
L 135.749637 258.805553 
L 136.344774 258.775297 
L 136.939911 255.751978 
L 137.535048 269.94782 
L 138.130185 280.318344 
L 138.725321 279.851275 
L 139.320458 281.767378 
L 140.510732 296.646816 
L 142.296143 329.870746 
L 143.486417 325.002954 
L 144.67669 312.471062 
L 145.271827 305.975078 
L 145.866964 302.729223 
L 146.462101 307.824413 
L 147.057238 308.422217 
L 147.652375 307.932427 
L 148.247512 309.714082 
L 148.842649 310.630652 
L 149.437786 308.653571 
L 151.223196 305.746319 
L 151.818333 303.441287 
L 152.41347 298.256766 
L 153.008607 299.060704 
L 154.198881 309.59445 
L 154.794018 313.578183 
L 156.579428 304.968436 
L 157.174565 301.545793 
L 157.769702 291.056232 
L 158.364839 286.790173 
L 158.959976 285.991969 
L 160.15025 284.794201 
L 161.340523 269.313075 
L 162.530797 240.657389 
L 163.125934 235.162326 
L 163.721071 228.617575 
L 164.316208 219.545198 
L 164.911345 224.800001 
L 165.506482 252.406205 
L 166.101619 271.491341 
L 166.696755 283.110288 
L 169.077303 243.788722 
L 169.67244 243.16889 
L 170.267577 241.714272 
L 170.862714 249.349217 
L 172.052988 277.236951 
L 172.648124 295.631043 
L 173.838398 325.544393 
L 174.433535 333.904511 
L 175.028672 339.132408 
L 175.623809 339.697957 
L 176.218946 335.053226 
L 176.814083 329.212178 
L 177.40922 321.869672 
L 178.004356 317.272629 
L 178.599493 316.983835 
L 179.19463 313.322398 
L 179.789767 307.122938 
L 180.384904 302.261052 
L 180.980041 298.565211 
L 181.575178 292.792245 
L 182.765452 274.083155 
L 183.360588 270.326246 
L 183.955725 268.359942 
L 185.741136 281.109298 
L 186.336273 280.668121 
L 186.93141 280.434959 
L 188.716821 284.635842 
L 189.311957 286.705262 
L 189.907094 290.358779 
L 191.097368 306.852399 
L 192.287642 323.309852 
L 194.073053 307.61346 
L 194.668189 302.275984 
L 195.263326 298.717615 
L 195.858463 293.797939 
L 196.4536 297.310211 
L 197.048737 311.191135 
L 197.643874 327.9108 
L 198.239011 340.545129 
L 198.834148 338.958516 
L 199.429285 335.636713 
L 201.214695 321.061532 
L 201.809832 320.86995 
L 202.404969 331.263852 
L 203.000106 339.609952 
L 203.595243 344.00149 
L 204.19038 339.314324 
L 204.785517 329.700053 
L 205.380654 318.0388 
L 206.570927 290.300189 
L 207.166064 286.425344 
L 208.356338 286.888801 
L 208.951475 285.774294 
L 209.546612 292.961793 
L 210.141749 303.683919 
L 210.736886 311.371439 
L 211.332022 311.047638 
L 211.927159 310.883509 
L 212.522296 308.891206 
L 213.117433 300.142182 
L 213.71257 294.287853 
L 214.307707 292.351592 
L 214.902844 294.097468 
L 216.093118 314.675966 
L 216.688255 315.685831 
L 217.878528 309.37141 
L 218.473665 303.919967 
L 219.663939 296.37513 
L 220.259076 300.27901 
L 221.44935 322.953483 
L 222.044487 329.811415 
L 222.639623 335.330176 
L 225.020171 284.846239 
L 225.615308 286.934067 
L 226.210445 285.800122 
L 226.805582 290.041584 
L 227.400719 296.936842 
L 227.995855 294.737025 
L 229.186129 292.600213 
L 229.781266 298.100239 
L 230.376403 307.283053 
L 231.566677 334.409037 
L 232.161814 337.319276 
L 232.756951 328.674873 
L 233.352088 316.850212 
L 234.542361 296.990924 
L 235.732635 274.80832 
L 236.327772 287.024961 
L 238.113183 337.202059 
L 239.303456 345.683367 
L 239.898593 342.021839 
L 241.088867 323.506946 
L 241.684004 318.271621 
L 242.279141 320.559261 
L 242.874278 323.323792 
L 244.064552 333.229858 
L 245.254825 324.186336 
L 247.040236 310.247246 
L 247.635373 309.757844 
L 248.825647 310.123857 
L 249.420784 311.445903 
L 250.015921 313.189933 
L 251.206194 307.791383 
L 251.801331 308.858184 
L 252.396468 312.698495 
L 253.586742 308.409305 
L 254.181879 309.224603 
L 254.777016 309.029593 
L 255.372153 300.505412 
L 255.967289 288.382313 
L 256.562426 281.653065 
L 257.157563 276.883715 
L 257.7527 268.50157 
L 258.347837 264.821505 
L 258.942974 267.184006 
L 260.728385 278.38928 
L 261.323522 283.506018 
L 261.918658 291.587773 
L 262.513795 294.886598 
L 263.108932 299.324346 
L 264.299206 309.853298 
L 265.48948 312.223079 
L 266.084617 312.064425 
L 266.679754 308.565451 
L 267.870027 299.54636 
L 269.060301 285.650807 
L 269.655438 280.68508 
L 270.250575 278.826556 
L 271.440849 285.758979 
L 273.226259 317.425983 
L 273.821396 323.262693 
L 275.606807 331.57654 
L 276.201944 327.270216 
L 276.797081 318.599268 
L 278.582491 272.162857 
L 279.177628 257.184268 
L 279.772765 245.443592 
L 280.367902 244.072382 
L 280.963039 247.973423 
L 282.74845 278.770297 
L 283.343587 284.003249 
L 283.938723 284.972412 
L 284.53386 285.511798 
L 286.319271 285.743442 
L 286.914408 287.317458 
L 287.509545 291.141193 
L 288.104682 290.564975 
L 289.294956 296.373319 
L 289.890092 290.311138 
L 290.485229 277.61748 
L 291.675503 260.755268 
L 292.865777 269.03304 
L 294.056051 289.159261 
L 294.651188 294.762779 
L 295.246324 298.502867 
L 295.841461 293.944849 
L 296.436598 283.312876 
L 297.626872 257.113542 
L 298.222009 254.221809 
L 299.412283 268.502209 
L 300.00742 276.13932 
L 300.602556 278.426735 
L 301.197693 273.753621 
L 301.79283 270.933667 
L 302.387967 270.227016 
L 302.983104 268.321312 
L 303.578241 265.777806 
L 304.768515 283.171706 
L 306.553925 310.223917 
L 308.339336 353.776131 
L 308.934473 360.159109 
L 309.52961 353.899424 
L 310.719884 337.23367 
L 311.910157 319.141685 
L 313.100431 299.012333 
L 314.885842 273.951422 
L 319.0518 221.564759 
L 319.646937 226.693628 
L 320.837211 244.367048 
L 321.432348 247.454805 
L 322.027485 251.756479 
L 323.217758 238.882267 
L 323.812895 240.334182 
L 324.408032 255.417025 
L 325.598306 308.783876 
L 326.78858 323.613408 
L 327.383717 321.421476 
L 328.57399 313.471754 
L 329.764264 301.308248 
L 330.954538 288.917312 
L 331.549675 286.822177 
L 332.739949 283.741854 
L 333.930223 287.341309 
L 334.525359 288.747018 
L 335.120496 286.181825 
L 335.715633 281.557759 
L 336.905907 266.996121 
L 337.501044 261.216859 
L 338.096181 259.29484 
L 338.691318 256.989789 
L 339.286455 258.633654 
L 340.476728 276.99504 
L 341.667002 320.121033 
L 342.262139 322.731653 
L 343.452413 302.622278 
L 345.237824 264.35009 
L 345.83296 265.775064 
L 346.428097 284.186316 
L 348.213508 326.990816 
L 348.808645 324.09225 
L 349.403782 319.214717 
L 349.998919 315.326168 
L 350.594056 317.685043 
L 352.974603 295.544993 
L 353.56974 283.578002 
L 354.164877 261.547733 
L 356.545424 229.229319 
L 357.140561 215.074553 
L 357.735698 219.42627 
L 360.116246 286.954677 
L 360.711383 300.009635 
L 361.30652 301.922085 
L 361.901657 298.982695 
L 363.09193 274.469057 
L 363.687067 262.925858 
L 364.282204 260.207225 
L 366.067615 256.148611 
L 366.662752 257.447316 
L 367.853025 279.069401 
L 368.448162 290.388543 
L 369.043299 294.618227 
L 369.638436 292.59547 
L 370.233573 288.795371 
L 370.82871 281.555582 
L 371.423847 271.266914 
L 374.399531 208.157609 
L 374.994668 198.757145 
L 375.589805 191.757384 
L 376.184942 196.959055 
L 378.56549 237.532347 
L 379.160626 245.379413 
L 380.3509 257.079616 
L 381.541174 283.387585 
L 382.136311 297.623139 
L 382.731448 301.092739 
L 383.326585 311.924593 
L 383.921722 315.38627 
L 384.516858 315.681277 
L 385.111995 315.770804 
L 386.302269 300.967153 
L 386.897406 293.210908 
L 387.492543 296.89658 
L 389.873091 294.010503 
L 390.468227 293.982409 
L 391.658501 285.958612 
L 394.039049 283.086944 
L 395.229323 282.913767 
L 395.824459 277.820286 
L 396.419596 274.484585 
L 397.014733 269.364415 
L 398.800144 242.939427 
L 399.395281 237.011976 
L 399.990418 238.610949 
L 400.585555 248.155715 
L 402.370965 286.114801 
L 402.966102 290.052653 
L 403.561239 292.231711 
L 404.156376 292.338005 
L 404.751513 286.549151 
L 405.34665 283.333219 
L 405.941787 283.363334 
L 407.13206 292.110561 
L 407.727197 291.649633 
L 408.917471 286.120941 
L 409.512608 284.206067 
L 411.298019 262.627809 
L 411.893156 257.915257 
L 413.083429 266.701261 
L 413.678566 270.835672 
L 414.273703 278.557441 
L 416.059114 304.726962 
L 417.249388 306.813969 
L 417.844525 308.421523 
L 420.820209 319.73545 
L 421.415346 315.731115 
L 423.795893 288.964998 
L 424.986167 265.31476 
L 426.176441 227.629404 
L 426.771578 210.970825 
L 428.556989 190.246919 
L 429.152125 186.233592 
L 432.12781 176.091958 
L 432.722947 181.58458 
L 435.698631 245.972005 
L 436.888905 265.201871 
L 438.079179 273.230941 
L 439.269453 280.448046 
L 439.86459 276.700925 
L 441.65 254.738842 
L 442.245137 250.891876 
L 443.435411 239.881319 
L 444.030548 237.754304 
L 445.220822 262.29199 
L 446.411095 287.210817 
L 447.601369 322.228369 
L 448.196506 326.032969 
L 448.791643 328.658291 
L 449.38678 330.594231 
L 451.767327 303.001224 
L 452.362464 297.247493 
L 452.957601 293.413143 
L 453.552738 285.177386 
L 454.147875 283.880176 
L 457.123559 297.227845 
L 457.718696 300.662948 
L 459.504107 315.259529 
L 460.099244 319.07386 
L 460.694381 312.888405 
L 463.670065 270.076575 
L 464.265202 262.028476 
L 464.860339 250.722762 
L 465.455476 236.715917 
L 467.240887 208.014033 
L 467.836024 206.169956 
L 469.621434 228.873361 
L 470.811708 247.67904 
L 471.406845 255.089224 
L 472.001982 252.140657 
L 473.787392 233.448141 
L 475.572803 199.550873 
L 476.16794 197.596748 
L 476.763077 200.08841 
L 477.953351 207.129495 
L 479.143625 216.276723 
L 480.333898 220.566006 
L 480.929035 227.086168 
L 481.524172 232.372896 
L 482.119309 233.354188 
L 482.714446 245.488718 
L 483.309583 252.463993 
L 485.094993 255.38405 
L 485.69013 253.293589 
L 486.285267 245.125492 
L 486.880404 228.811076 
L 488.665815 196.297993 
L 490.451226 196.116454 
L 491.046362 199.73601 
L 491.641499 208.971152 
L 492.831773 237.022344 
L 494.617184 272.954241 
L 495.212321 282.390065 
L 495.807458 289.754506 
L 496.402594 290.331774 
L 496.997731 289.954243 
L 497.592868 286.477511 
L 498.188005 278.929313 
L 499.973416 248.478981 
L 501.758826 221.090538 
L 502.353963 227.83641 
L 504.734511 279.886646 
L 505.924785 283.234902 
L 506.519922 284.731059 
L 507.115059 284.826342 
L 507.710195 280.408999 
L 508.305332 273.382019 
L 509.495606 254.385554 
L 510.090743 244.225463 
L 510.68588 240.445221 
L 511.281017 243.306149 
L 511.876154 246.767301 
L 513.661564 266.546772 
L 515.446975 295.821551 
L 516.042112 307.907033 
L 517.232386 324.042496 
L 517.827523 326.217729 
L 518.42266 318.828651 
L 519.612933 288.561658 
L 521.398344 237.03867 
L 521.993481 227.472425 
L 523.183755 222.397723 
L 523.778892 219.25306 
L 524.374028 221.904231 
L 524.969165 237.697458 
L 527.349713 270.145523 
L 527.94485 265.359717 
L 528.539987 255.944882 
L 529.135124 253.722613 
L 531.515671 255.108428 
L 532.110808 254.727627 
L 533.301082 245.680103 
L 535.681629 265.762506 
L 536.276766 266.224511 
L 536.871903 261.852993 
L 540.442725 184.540435 
L 541.632998 204.409457 
L 545.20382 283.930101 
L 546.394093 278.777203 
L 548.774641 267.839594 
L 549.369778 266.51862 
L 549.964915 267.533721 
L 550.560052 269.149244 
L 552.940599 265.060969 
L 553.535736 266.272875 
L 554.130873 270.184075 
L 554.72601 272.947087 
L 556.511421 278.44467 
L 557.106558 271.931977 
L 559.487105 235.760971 
L 560.677379 218.008786 
L 561.272516 209.70949 
L 561.867653 206.6322 
L 563.057927 205.34602 
L 563.653063 208.078262 
L 564.843337 220.591427 
L 566.628748 248.500346 
L 567.223885 253.084094 
L 567.819022 253.478503 
L 568.414159 253.033898 
L 569.009295 248.318445 
L 571.389843 224.025597 
L 572.580117 217.612347 
L 573.175254 217.354159 
L 573.770391 219.585623 
L 574.365527 214.986412 
L 576.150938 222.911553 
L 576.746075 221.265231 
L 577.936349 212.329277 
L 578.531486 204.077768 
L 580.316896 173.641113 
L 580.912033 171.508945 
L 581.50717 176.908664 
L 582.102307 178.024712 
L 582.697444 180.916178 
L 585.077992 197.224443 
L 585.673128 195.81411 
L 586.268265 203.109049 
L 587.458539 228.143263 
L 589.24395 247.501618 
L 589.839087 256.082546 
L 590.434224 262.736885 
L 591.029361 260.708855 
L 591.624497 258.090462 
L 592.219634 258.559053 
L 592.814771 263.376162 
L 594.005045 241.432602 
L 595.195319 215.669125 
L 595.790456 202.006154 
L 596.385593 185.480207 
L 597.575866 163.90284 
L 598.171003 167.201893 
L 598.76614 176.287418 
L 599.956414 199.484267 
L 601.146688 229.405079 
L 601.741825 233.740698 
L 602.932098 235.942589 
L 603.527235 236.860378 
L 604.122372 235.767638 
L 605.312646 227.944692 
L 605.907783 230.746469 
L 606.50292 234.452377 
L 607.098057 232.517998 
L 608.28833 219.584193 
L 610.073741 197.36424 
L 611.859152 179.803211 
L 612.454289 190.899364 
L 614.239699 247.784667 
L 614.834836 266.9836 
L 615.429973 272.795256 
L 616.02511 274.243753 
L 616.620247 272.62401 
L 617.215384 266.438547 
L 619.595931 225.876018 
L 620.191068 218.704205 
L 620.786205 214.988769 
L 623.76189 253.381894 
L 625.5473 270.550337 
L 626.142437 269.718343 
L 627.332711 261.955038 
L 627.927848 257.266594 
L 631.498669 207.785559 
L 634.474354 178.294512 
L 635.069491 182.910544 
L 635.664628 199.277146 
L 636.259764 211.135567 
L 637.450038 240.84763 
L 638.640312 247.45705 
L 639.235449 245.010527 
L 639.830586 237.204433 
L 641.615996 220.026046 
L 642.80627 204.798342 
L 644.591681 188.668837 
L 645.186818 187.945131 
L 646.972228 186.350879 
L 647.567365 187.337704 
L 648.757639 212.556835 
L 649.947913 247.438498 
L 651.138187 283.880134 
L 651.733324 290.334245 
L 652.328461 289.711309 
L 652.923597 290.666348 
L 655.304145 272.135951 
L 655.899282 273.257854 
L 656.494419 272.301416 
L 657.684693 269.180046 
L 658.279829 270.009566 
L 659.470103 274.795982 
L 660.06524 273.716776 
L 660.660377 270.997425 
L 661.255514 265.724394 
L 661.850651 261.728498 
L 663.040925 264.965007 
L 663.636062 266.558088 
L 664.231198 266.123734 
L 665.421472 264.757923 
L 666.016609 263.784771 
L 666.611746 261.067757 
L 667.206883 253.313271 
L 668.397157 240.998952 
L 668.992294 237.717851 
L 670.182567 240.950524 
L 670.777704 241.639418 
L 671.372841 241.691343 
L 673.158252 257.790066 
L 673.753389 259.136635 
L 675.538799 246.145368 
L 676.133936 243.500467 
L 677.919347 237.93609 
L 678.514484 234.489414 
L 678.514484 234.489414 
" clip-path="url(#pdc183c0cd3)" style="fill: none; stroke: #8b0000; stroke-width: 1.5; stroke-linecap: square"/>
   </g>
   <g id="patch_3">
    <path d="M 54.2 390.04 
L 54.2 25.44 
" style="fill: none; stroke: #000000; stroke-width: 0.8; stroke-linejoin: miter; stroke-linecap: square"/>
   </g>
   <g id="patch_4">
    <path d="M 709.2 390.04 
L 709.2 25.44 
" style="fill: none; stroke: #000000; stroke-width: 0.8; stroke-linejoin: miter; stroke-linecap: square"/>
   </g>
   <g id="patch_5">
    <path d="M 54.2 390.04 
L 709.2 390.04 
" style="fill: none; stroke: #000000; stroke-width: 0.8; stroke-linejoin: miter; stroke-linecap: square"/>
   </g>
   <g id="patch_6">
    <path d="M 54.2 25.44 
L 709.2 25.44 
" style="fill: none; stroke: #000000; stroke-width: 0.8; stroke-linejoin: miter; stroke-linecap: square"/>
   </g>
   <g id="text_17">
    <!-- Policy Algorithms Comparison on AssaultNoFrameskip-v4 -->
    <g transform="translate(210.747813 19.44) scale(0.12 -0.12)">
     <defs>
      <path id="DejaVuSans-50" d="M 1259 4147 
L 1259 2394 
L 2053 2394 
Q 2494 2394 2734 2622 
Q 2975 2850 2975 3272 
Q 2975 3691 2734 3919 
Q 2494 4147 2053 4147 
L 1259 4147 
z
M 628 4666 
L 2053 4666 
Q 2838 4666 3239 4311 
Q 3641 3956 3641 3272 
Q 3641 2581 3239 2228 
Q 2838 1875 2053 1875 
L 1259 1875 
L 1259 0 
L 628 0 
L 628 4666 
z
" transform="scale(0.015625)"/>
      <path id="DejaVuSans-79" d="M 2059 -325 
Q 1816 -950 1584 -1140 
Q 1353 -1331 966 -1331 
L 506 -1331 
L 506 -850 
L 844 -850 
Q 1081 -850 1212 -737 
Q 1344 -625 1503 -206 
L 1606 56 
L 191 3500 
L 800 3500 
L 1894 763 
L 2988 3500 
L 3597 3500 
L 2059 -325 
z
" transform="scale(0.015625)"/>
      <path id="DejaVuSans-41" d="M 2188 4044 
L 1331 1722 
L 3047 1722 
L 2188 4044 
z
M 1831 4666 
L 2547 4666 
L 4325 0 
L 3669 0 
L 3244 1197 
L 1141 1197 
L 716 0 
L 50 0 
L 1831 4666 
z
" transform="scale(0.015625)"/>
      <path id="DejaVuSans-67" d="M 2906 1791 
Q 2906 2416 2648 2759 
Q 2391 3103 1925 3103 
Q 1463 3103 1205 2759 
Q 947 2416 947 1791 
Q 947 1169 1205 825 
Q 1463 481 1925 481 
Q 2391 481 2648 825 
Q 2906 1169 2906 1791 
z
M 3481 434 
Q 3481 -459 3084 -895 
Q 2688 -1331 1869 -1331 
Q 1566 -1331 1297 -1286 
Q 1028 -1241 775 -1147 
L 775 -588 
Q 1028 -725 1275 -790 
Q 1522 -856 1778 -856 
Q 2344 -856 2625 -561 
Q 2906 -266 2906 331 
L 2906 616 
Q 2728 306 2450 153 
Q 2172 0 1784 0 
Q 1141 0 747 490 
Q 353 981 353 1791 
Q 353 2603 747 3093 
Q 1141 3584 1784 3584 
Q 2172 3584 2450 3431 
Q 2728 3278 2906 2969 
L 2906 3500 
L 3481 3500 
L 3481 434 
z
" transform="scale(0.015625)"/>
      <path id="DejaVuSans-68" d="M 3513 2113 
L 3513 0 
L 2938 0 
L 2938 2094 
Q 2938 2591 2744 2837 
Q 2550 3084 2163 3084 
Q 1697 3084 1428 2787 
Q 1159 2491 1159 1978 
L 1159 0 
L 581 0 
L 581 4863 
L 1159 4863 
L 1159 2956 
Q 1366 3272 1645 3428 
Q 1925 3584 2291 3584 
Q 2894 3584 3203 3211 
Q 3513 2838 3513 2113 
z
" transform="scale(0.015625)"/>
      <path id="DejaVuSans-43" d="M 4122 4306 
L 4122 3641 
Q 3803 3938 3442 4084 
Q 3081 4231 2675 4231 
Q 1875 4231 1450 3742 
Q 1025 3253 1025 2328 
Q 1025 1406 1450 917 
Q 1875 428 2675 428 
Q 3081 428 3442 575 
Q 3803 722 4122 1019 
L 4122 359 
Q 3791 134 3420 21 
Q 3050 -91 2638 -91 
Q 1578 -91 968 557 
Q 359 1206 359 2328 
Q 359 3453 968 4101 
Q 1578 4750 2638 4750 
Q 3056 4750 3426 4639 
Q 3797 4528 4122 4306 
z
" transform="scale(0.015625)"/>
      <path id="DejaVuSans-46" d="M 628 4666 
L 3309 4666 
L 3309 4134 
L 1259 4134 
L 1259 2759 
L 3109 2759 
L 3109 2228 
L 1259 2228 
L 1259 0 
L 628 0 
L 628 4666 
z
" transform="scale(0.015625)"/>
      <path id="DejaVuSans-6b" d="M 581 4863 
L 1159 4863 
L 1159 1991 
L 2875 3500 
L 3609 3500 
L 1753 1863 
L 3688 0 
L 2938 0 
L 1159 1709 
L 1159 0 
L 581 0 
L 581 4863 
z
" transform="scale(0.015625)"/>
      <path id="DejaVuSans-2d" d="M 313 2009 
L 1997 2009 
L 1997 1497 
L 313 1497 
L 313 2009 
z
" transform="scale(0.015625)"/>
      <path id="DejaVuSans-76" d="M 191 3500 
L 800 3500 
L 1894 563 
L 2988 3500 
L 3597 3500 
L 2284 0 
L 1503 0 
L 191 3500 
z
" transform="scale(0.015625)"/>
     </defs>
     <use xlink:href="#DejaVuSans-50"/>
     <use xlink:href="#DejaVuSans-6f" transform="translate(56.677734 0)"/>
     <use xlink:href="#DejaVuSans-6c" transform="translate(117.859375 0)"/>
     <use xlink:href="#DejaVuSans-69" transform="translate(145.642578 0)"/>
     <use xlink:href="#DejaVuSans-63" transform="translate(173.425781 0)"/>
     <use xlink:href="#DejaVuSans-79" transform="translate(228.40625 0)"/>
     <use xlink:href="#DejaVuSans-20" transform="translate(287.585938 0)"/>
     <use xlink:href="#DejaVuSans-41" transform="translate(319.373047 0)"/>
     <use xlink:href="#DejaVuSans-6c" transform="translate(387.78125 0)"/>
     <use xlink:href="#DejaVuSans-67" transform="translate(415.564453 0)"/>
     <use xlink:href="#DejaVuSans-6f" transform="translate(479.041016 0)"/>
     <use xlink:href="#DejaVuSans-72" transform="translate(540.222656 0)"/>
     <use xlink:href="#DejaVuSans-69" transform="translate(581.335938 0)"/>
     <use xlink:href="#DejaVuSans-74" transform="translate(609.119141 0)"/>
     <use xlink:href="#DejaVuSans-68" transform="translate(648.328125 0)"/>
     <use xlink:href="#DejaVuSans-6d" transform="translate(711.707031 0)"/>
     <use xlink:href="#DejaVuSans-73" transform="translate(809.119141 0)"/>
     <use xlink:href="#DejaVuSans-20" transform="translate(861.21875 0)"/>
     <use xlink:href="#DejaVuSans-43" transform="translate(893.005859 0)"/>
     <use xlink:href="#DejaVuSans-6f" transform="translate(962.830078 0)"/>
     <use xlink:href="#DejaVuSans-6d" transform="translate(1024.011719 0)"/>
     <use xlink:href="#DejaVuSans-70" transform="translate(1121.423828 0)"/>
     <use xlink:href="#DejaVuSans-61" transform="translate(1184.900391 0)"/>
     <use xlink:href="#DejaVuSans-72" transform="translate(1246.179688 0)"/>
     <use xlink:href="#DejaVuSans-69" transform="translate(1287.292969 0)"/>
     <use xlink:href="#DejaVuSans-73" transform="translate(1315.076172 0)"/>
     <use xlink:href="#DejaVuSans-6f" transform="translate(1367.175781 0)"/>
     <use xlink:href="#DejaVuSans-6e" transform="translate(1428.357422 0)"/>
     <use xlink:href="#DejaVuSans-20" transform="translate(1491.736328 0)"/>
     <use xlink:href="#DejaVuSans-6f" transform="translate(1523.523438 0)"/>
     <use xlink:href="#DejaVuSans-6e" transform="translate(1584.705078 0)"/>
     <use xlink:href="#DejaVuSans-20" transform="translate(1648.083984 0)"/>
     <use xlink:href="#DejaVuSans-41" transform="translate(1679.871094 0)"/>
     <use xlink:href="#DejaVuSans-73" transform="translate(1748.279297 0)"/>
     <use xlink:href="#DejaVuSans-73" transform="translate(1800.378906 0)"/>
     <use xlink:href="#DejaVuSans-61" transform="translate(1852.478516 0)"/>
     <use xlink:href="#DejaVuSans-75" transform="translate(1913.757812 0)"/>
     <use xlink:href="#DejaVuSans-6c" transform="translate(1977.136719 0)"/>
     <use xlink:href="#DejaVuSans-74" transform="translate(2004.919922 0)"/>
     <use xlink:href="#DejaVuSans-4e" transform="translate(2044.128906 0)"/>
     <use xlink:href="#DejaVuSans-6f" transform="translate(2118.933594 0)"/>
     <use xlink:href="#DejaVuSans-46" transform="translate(2180.115234 0)"/>
     <use xlink:href="#DejaVuSans-72" transform="translate(2230.384766 0)"/>
     <use xlink:href="#DejaVuSans-61" transform="translate(2271.498047 0)"/>
     <use xlink:href="#DejaVuSans-6d" transform="translate(2332.777344 0)"/>
     <use xlink:href="#DejaVuSans-65" transform="translate(2430.189453 0)"/>
     <use xlink:href="#DejaVuSans-73" transform="translate(2491.712891 0)"/>
     <use xlink:href="#DejaVuSans-6b" transform="translate(2543.8125 0)"/>
     <use xlink:href="#DejaVuSans-69" transform="translate(2601.722656 0)"/>
     <use xlink:href="#DejaVuSans-70" transform="translate(2629.505859 0)"/>
     <use xlink:href="#DejaVuSans-2d" transform="translate(2692.982422 0)"/>
     <use xlink:href="#DejaVuSans-76" transform="translate(2726.441406 0)"/>
     <use xlink:href="#DejaVuSans-34" transform="translate(2785.621094 0)"/>
    </g>
   </g>
   <g id="legend_1">
    <g id="patch_7">
     <path d="M 597.803125 92.986875 
L 702.2 92.986875 
Q 704.2 92.986875 704.2 90.986875 
L 704.2 32.44 
Q 704.2 30.44 702.2 30.44 
L 597.803125 30.44 
Q 595.803125 30.44 595.803125 32.44 
L 595.803125 90.986875 
Q 595.803125 92.986875 597.803125 92.986875 
z
" style="fill: #ffffff; opacity: 0.8; stroke: #cccccc; stroke-linejoin: miter"/>
    </g>
    <g id="text_18">
     <!-- Algorithm -->
     <g transform="translate(625.514844 42.038437) scale(0.1 -0.1)">
      <use xlink:href="#DejaVuSans-41"/>
      <use xlink:href="#DejaVuSans-6c" transform="translate(68.408203 0)"/>
      <use xlink:href="#DejaVuSans-67" transform="translate(96.191406 0)"/>
      <use xlink:href="#DejaVuSans-6f" transform="translate(159.667969 0)"/>
      <use xlink:href="#DejaVuSans-72" transform="translate(220.849609 0)"/>
      <use xlink:href="#DejaVuSans-69" transform="translate(261.962891 0)"/>
      <use xlink:href="#DejaVuSans-74" transform="translate(289.746094 0)"/>
      <use xlink:href="#DejaVuSans-68" transform="translate(328.955078 0)"/>
      <use xlink:href="#DejaVuSans-6d" transform="translate(392.333984 0)"/>
     </g>
    </g>
    <g id="line2d_18">
     <path d="M 599.803125 53.216563 
L 609.803125 53.216563 
L 619.803125 53.216563 
" style="fill: none; stroke: #00008b; stroke-width: 1.5; stroke-linecap: square"/>
    </g>
    <g id="text_19">
     <!-- ppo_atari -->
     <g transform="translate(627.803125 56.716563) scale(0.1 -0.1)">
      <defs>
       <path id="DejaVuSans-5f" d="M 3263 -1063 
L 3263 -1509 
L -63 -1509 
L -63 -1063 
L 3263 -1063 
z
" transform="scale(0.015625)"/>
      </defs>
      <use xlink:href="#DejaVuSans-70"/>
      <use xlink:href="#DejaVuSans-70" transform="translate(63.476562 0)"/>
      <use xlink:href="#DejaVuSans-6f" transform="translate(126.953125 0)"/>
      <use xlink:href="#DejaVuSans-5f" transform="translate(188.134766 0)"/>
      <use xlink:href="#DejaVuSans-61" transform="translate(238.134766 0)"/>
      <use xlink:href="#DejaVuSans-74" transform="translate(299.414062 0)"/>
      <use xlink:href="#DejaVuSans-61" transform="translate(338.623047 0)"/>
      <use xlink:href="#DejaVuSans-72" transform="translate(399.902344 0)"/>
      <use xlink:href="#DejaVuSans-69" transform="translate(441.015625 0)"/>
     </g>
    </g>
    <g id="line2d_19">
     <path d="M 599.803125 68.172813 
L 609.803125 68.172813 
L 619.803125 68.172813 
" style="fill: none; stroke: #ff8c00; stroke-width: 1.5; stroke-linecap: square"/>
    </g>
    <g id="text_20">
     <!-- reinforce_atari -->
     <g transform="translate(627.803125 71.672813) scale(0.1 -0.1)">
      <defs>
       <path id="DejaVuSans-66" d="M 2375 4863 
L 2375 4384 
L 1825 4384 
Q 1516 4384 1395 4259 
Q 1275 4134 1275 3809 
L 1275 3500 
L 2222 3500 
L 2222 3053 
L 1275 3053 
L 1275 0 
L 697 0 
L 697 3053 
L 147 3053 
L 147 3500 
L 697 3500 
L 697 3744 
Q 697 4328 969 4595 
Q 1241 4863 1831 4863 
L 2375 4863 
z
" transform="scale(0.015625)"/>
      </defs>
      <use xlink:href="#DejaVuSans-72"/>
      <use xlink:href="#DejaVuSans-65" transform="translate(38.863281 0)"/>
      <use xlink:href="#DejaVuSans-69" transform="translate(100.386719 0)"/>
      <use xlink:href="#DejaVuSans-6e" transform="translate(128.169922 0)"/>
      <use xlink:href="#DejaVuSans-66" transform="translate(191.548828 0)"/>
      <use xlink:href="#DejaVuSans-6f" transform="translate(226.753906 0)"/>
      <use xlink:href="#DejaVuSans-72" transform="translate(287.935547 0)"/>
      <use xlink:href="#DejaVuSans-63" transform="translate(326.798828 0)"/>
      <use xlink:href="#DejaVuSans-65" transform="translate(381.779297 0)"/>
      <use xlink:href="#DejaVuSans-5f" transform="translate(443.302734 0)"/>
      <use xlink:href="#DejaVuSans-61" transform="translate(493.302734 0)"/>
      <use xlink:href="#DejaVuSans-74" transform="translate(554.582031 0)"/>
      <use xlink:href="#DejaVuSans-61" transform="translate(593.791016 0)"/>
      <use xlink:href="#DejaVuSans-72" transform="translate(655.070312 0)"/>
      <use xlink:href="#DejaVuSans-69" transform="translate(696.183594 0)"/>
     </g>
    </g>
    <g id="line2d_20">
     <path d="M 599.803125 83.129063 
L 609.803125 83.129063 
L 619.803125 83.129063 
" style="fill: none; stroke: #8b0000; stroke-width: 1.5; stroke-linecap: square"/>
    </g>
    <g id="text_21">
     <!-- sac_atari -->
     <g transform="translate(627.803125 86.629063) scale(0.1 -0.1)">
      <use xlink:href="#DejaVuSans-73"/>
      <use xlink:href="#DejaVuSans-61" transform="translate(52.099609 0)"/>
      <use xlink:href="#DejaVuSans-63" transform="translate(113.378906 0)"/>
      <use xlink:href="#DejaVuSans-5f" transform="translate(168.359375 0)"/>
      <use xlink:href="#DejaVuSans-61" transform="translate(218.359375 0)"/>
      <use xlink:href="#DejaVuSans-74" transform="translate(279.638672 0)"/>
      <use xlink:href="#DejaVuSans-61" transform="translate(318.847656 0)"/>
      <use xlink:href="#DejaVuSans-72" transform="translate(380.126953 0)"/>
      <use xlink:href="#DejaVuSans-69" transform="translate(421.240234 0)"/>
     </g>
    </g>
   </g>
  </g>
 </g>
 <defs>
  <clipPath id="pdc183c0cd3">
   <rect x="54.2" y="25.44" width="655" height="364.6"/>
  </clipPath>
 </defs>
</svg>
